<?xml version="1.0" standalone="no"?>
<!DOCTYPE svg PUBLIC "-//W3C//DTD SVG 1.1//EN" "http://www.w3.org/Graphics/SVG/1.1/DTD/svg11.dtd">
<svg xmlns="http://www.w3.org/2000/svg" version="1.1" width="30px" height="24.8px" viewBox="0 -5 30 24.8" style="top:-5px">
  <desc>17</desc>
  <defs/>
  <g id="Polygon32277">
    <path d="M 3.9 4.4 C 3.9 3.5 3.9 2.9 3.9 2.4 C 3.9 2 3.9 1.8 3.6 1.8 C 3.3 1.8 2.2 2.4 1.9 2.6 C 1.8 2.6 1.7 2.6 1.7 2.6 C 1.6 2.6 1.6 2.6 1.6 2.5 C 1.6 2.4 1.6 2.3 1.7 2.3 C 1.8 2.2 4.7 0.3 5.2 -0.1 C 5.3 -0.1 5.4 -0.3 5.6 -0.3 C 5.7 -0.3 5.7 -0.1 5.7 0.1 C 5.7 0.2 5.7 1.7 5.7 4 C 5.7 4 5.7 6.7 5.7 6.7 C 5.7 8.2 5.7 9.5 5.7 10.1 C 5.8 10.6 5.8 10.8 6.3 10.9 C 6.5 11 7.2 11 7.3 11 C 7.4 11 7.4 11.1 7.4 11.2 C 7.4 11.3 7.4 11.3 7.2 11.3 C 6.1 11.3 5.1 11.3 4.7 11.3 C 4.4 11.3 3.1 11.3 2.1 11.3 C 2 11.3 1.9 11.3 1.9 11.2 C 1.9 11.1 1.9 11 2 11 C 2.2 11 2.9 11 3.2 10.9 C 3.7 10.8 3.8 10.6 3.8 10.1 C 3.9 9.5 3.9 8.2 3.9 6.7 C 3.9 6.7 3.9 4.4 3.9 4.4 Z M 17.2 0 C 17.5 0 17.6 0 17.6 0.1 C 17.6 0.2 17.5 0.3 17.5 0.4 C 16.3 2.2 13.9 8.1 13.7 10 C 13.7 10.3 13.7 10.4 13.7 10.6 C 13.7 10.9 12.5 11.5 11.8 11.5 C 11.6 11.5 11.6 11.5 11.6 11.3 C 11.6 11.2 11.6 10.9 11.7 10.7 C 12.1 9.3 14 4.8 16.1 1.4 C 16.1 1.4 12.2 1.4 12.2 1.4 C 11.8 1.4 11.2 1.4 10.8 1.6 C 10.5 1.8 10.4 2.3 10.3 2.5 C 10.3 2.7 10.3 2.7 10.2 2.7 C 10.1 2.7 10.1 2.7 10.1 2.5 C 10.1 2 10.3 0.2 10.3 0.1 C 10.3 -0.1 10.3 -0.1 10.4 -0.1 C 10.5 -0.1 10.9 0 12.5 0 C 12.5 0 17.2 0 17.2 0 Z " stroke="none" fill="#000"/>
  </g>
</svg>