<?xml version="1.0" standalone="no"?>
<!DOCTYPE svg PUBLIC "-//W3C//DTD SVG 1.1//EN" "http://www.w3.org/Graphics/SVG/1.1/DTD/svg11.dtd">
<svg xmlns="http://www.w3.org/2000/svg" version="1.1" width="116.3px" height="19px" viewBox="0 -3 116.3 19" style="top:-3px">
  <desc>Likha ni Angela De Castro</desc>
  <defs/>
  <g id="Polygon22141">
    <path d="M 0.5 1.7 L 1.5 1.7 L 1.5 10.7 L 0.5 10.7 L 0.5 1.7 Z M 6 2.3 L 7.2 2.3 L 6 7.8 L 9.3 7.8 L 9.1 8.8 L 4.7 8.8 L 6 2.3 Z M 11.2 2.3 L 12.2 2.3 L 12 3.3 L 11 3.3 L 11.2 2.3 Z M 10.8 4.1 L 11.8 4.1 L 10.9 8.8 L 9.8 8.8 L 10.8 4.1 Z M 13.4 2.3 L 14.4 2.3 L 13.7 6 L 13.7 6 L 15.8 4.1 L 17.1 4.1 L 15.1 5.8 L 16.2 8.8 L 15.1 8.8 L 14.2 6.5 L 13.4 7.2 L 13.1 8.8 L 12.1 8.8 L 13.4 2.3 Z M 18.2 2.3 L 19.2 2.3 L 18.7 4.8 C 18.7 4.8 18.72 4.78 18.7 4.8 C 18.9 4.5 19.1 4.4 19.4 4.2 C 19.7 4.1 20 4 20.2 4 C 20.7 4 21.1 4.1 21.3 4.3 C 21.5 4.6 21.6 4.9 21.6 5.2 C 21.6 5.3 21.6 5.4 21.6 5.5 C 21.6 5.6 21.6 5.7 21.6 5.8 C 21.56 5.8 20.9 8.8 20.9 8.8 L 19.9 8.8 C 19.9 8.8 20.51 5.9 20.5 5.9 C 20.5 5.8 20.5 5.8 20.6 5.7 C 20.6 5.6 20.6 5.5 20.6 5.5 C 20.6 5.4 20.6 5.4 20.6 5.3 C 20.6 5.2 20.6 5.2 20.5 5.1 C 20.5 5 20.4 4.9 20.3 4.9 C 20.2 4.8 20.1 4.8 19.9 4.8 C 19.7 4.8 19.5 4.8 19.3 4.9 C 19.2 5 19 5.1 18.9 5.3 C 18.8 5.4 18.7 5.5 18.6 5.7 C 18.5 5.9 18.4 6.1 18.4 6.3 C 18.4 6.25 17.9 8.8 17.9 8.8 L 16.8 8.8 L 18.2 2.3 Z M 23.2 7.5 C 23.2 7.6 23.2 7.7 23.2 7.8 C 23.3 7.9 23.3 7.9 23.4 8 C 23.5 8 23.6 8 23.7 8.1 C 23.8 8.1 23.9 8.1 24 8.1 C 24.2 8.1 24.4 8 24.6 8 C 24.8 7.9 24.9 7.8 25 7.6 C 25.1 7.5 25.2 7.3 25.3 7.1 C 25.4 6.9 25.4 6.7 25.4 6.5 C 25.4 6.5 25.4 6.5 25.4 6.5 C 25.4 6.5 25.3 6.6 25.1 6.6 C 25 6.7 24.9 6.7 24.8 6.7 C 24.6 6.7 24.5 6.7 24.3 6.7 C 24.1 6.7 23.9 6.8 23.8 6.8 C 23.6 6.9 23.4 6.9 23.3 7.1 C 23.2 7.2 23.2 7.3 23.2 7.5 Z M 26.2 7.4 C 26.2 7.5 26.2 7.6 26.2 7.7 C 26.2 7.7 26.2 7.8 26.2 7.9 C 26.2 8 26.2 8 26.2 8 C 26.2 8.1 26.3 8.1 26.4 8.1 C 26.4 8.1 26.5 8.1 26.5 8.1 C 26.6 8.1 26.7 8 26.7 8 C 26.7 8 26.6 8.8 26.6 8.8 C 26.4 8.8 26.3 8.8 26.2 8.9 C 26 8.9 25.9 8.9 25.8 8.9 C 25.6 8.9 25.4 8.8 25.3 8.7 C 25.2 8.6 25.2 8.5 25.1 8.3 C 24.9 8.5 24.7 8.7 24.4 8.8 C 24.1 8.9 23.9 8.9 23.6 8.9 C 23.4 8.9 23.2 8.9 23 8.8 C 22.9 8.8 22.7 8.7 22.6 8.6 C 22.4 8.5 22.3 8.4 22.2 8.2 C 22.2 8 22.1 7.9 22.1 7.7 C 22.1 7.4 22.2 7.1 22.3 6.9 C 22.4 6.7 22.5 6.6 22.7 6.5 C 22.9 6.3 23.1 6.2 23.3 6.2 C 23.6 6.1 23.8 6.1 24.1 6.1 C 24.4 6 24.8 6 25.1 6 C 25.3 6 25.4 5.9 25.5 5.8 C 25.6 5.7 25.6 5.5 25.6 5.4 C 25.6 5.1 25.6 5 25.4 4.9 C 25.3 4.8 25.1 4.8 24.9 4.8 C 24.6 4.8 24.3 4.9 24.1 5 C 23.9 5.1 23.8 5.2 23.7 5.5 C 23.7 5.5 22.7 5.5 22.7 5.5 C 22.8 5.2 22.9 5 23 4.8 C 23.1 4.6 23.3 4.5 23.5 4.3 C 23.7 4.2 23.9 4.1 24.2 4.1 C 24.4 4 24.7 4 24.9 4 C 25.3 4 25.7 4 25.9 4.1 C 26.2 4.2 26.3 4.3 26.4 4.4 C 26.5 4.5 26.6 4.6 26.6 4.8 C 26.7 4.9 26.7 5 26.7 5.1 C 26.7 5.3 26.6 5.5 26.6 5.8 C 26.6 5.8 26.2 7.4 26.2 7.4 Z M 30.8 4.1 L 31.7 4.1 L 31.6 4.8 C 31.6 4.8 31.59 4.81 31.6 4.8 C 31.8 4.6 32 4.4 32.3 4.2 C 32.6 4.1 32.9 4 33.2 4 C 33.7 4 34 4.1 34.2 4.3 C 34.4 4.6 34.6 4.9 34.6 5.2 C 34.6 5.3 34.5 5.4 34.5 5.5 C 34.5 5.6 34.5 5.7 34.5 5.8 C 34.51 5.8 33.9 8.8 33.9 8.8 L 32.9 8.8 C 32.9 8.8 33.45 5.9 33.5 5.9 C 33.5 5.8 33.5 5.8 33.5 5.7 C 33.5 5.6 33.5 5.5 33.5 5.5 C 33.5 5.4 33.5 5.4 33.5 5.3 C 33.5 5.2 33.5 5.2 33.5 5.1 C 33.4 5 33.3 4.9 33.2 4.9 C 33.1 4.8 33 4.8 32.8 4.8 C 32.6 4.8 32.4 4.8 32.3 4.9 C 32.1 5 32 5.1 31.8 5.3 C 31.7 5.4 31.6 5.5 31.5 5.7 C 31.4 5.9 31.4 6.1 31.3 6.3 C 31.34 6.25 30.8 8.8 30.8 8.8 L 29.8 8.8 L 30.8 4.1 Z M 36.4 2.3 L 37.4 2.3 L 37.2 3.3 L 36.2 3.3 L 36.4 2.3 Z M 36 4.1 L 37 4.1 L 36.1 8.8 L 35 8.8 L 36 4.1 Z M 43.3 2.3 L 44.5 2.3 L 45.6 8.8 L 44.5 8.8 L 44.2 7.1 L 41.7 7.1 L 40.7 8.8 L 39.5 8.8 L 43.3 2.3 Z M 43.7 3.5 L 43.7 3.5 L 42.1 6.2 L 44.1 6.2 L 43.7 3.5 Z M 47.1 4.1 L 48.1 4.1 L 47.9 4.8 C 47.9 4.8 47.95 4.81 48 4.8 C 48.1 4.6 48.4 4.4 48.6 4.2 C 48.9 4.1 49.2 4 49.6 4 C 50 4 50.4 4.1 50.6 4.3 C 50.8 4.6 50.9 4.9 50.9 5.2 C 50.9 5.3 50.9 5.4 50.9 5.5 C 50.9 5.6 50.9 5.7 50.9 5.8 C 50.87 5.8 50.2 8.8 50.2 8.8 L 49.2 8.8 C 49.2 8.8 49.81 5.9 49.8 5.9 C 49.8 5.8 49.8 5.8 49.9 5.7 C 49.9 5.6 49.9 5.5 49.9 5.5 C 49.9 5.4 49.9 5.4 49.9 5.3 C 49.9 5.2 49.9 5.2 49.8 5.1 C 49.8 5 49.7 4.9 49.6 4.9 C 49.5 4.8 49.4 4.8 49.2 4.8 C 49 4.8 48.8 4.8 48.6 4.9 C 48.5 5 48.3 5.1 48.2 5.3 C 48.1 5.4 48 5.5 47.9 5.7 C 47.8 5.9 47.7 6.1 47.7 6.3 C 47.7 6.25 47.2 8.8 47.2 8.8 L 46.2 8.8 L 47.1 4.1 Z M 52.7 6.8 C 52.7 7 52.7 7.1 52.8 7.3 C 52.8 7.4 52.9 7.5 52.9 7.6 C 53 7.7 53.1 7.8 53.2 7.9 C 53.4 7.9 53.5 8 53.7 8 C 54 8 54.2 7.9 54.4 7.8 C 54.6 7.6 54.7 7.5 54.9 7.3 C 55 7.1 55.1 6.9 55.1 6.6 C 55.2 6.4 55.2 6.1 55.2 5.9 C 55.2 5.6 55.1 5.3 55 5.1 C 54.8 4.9 54.5 4.8 54.2 4.8 C 53.9 4.8 53.7 4.9 53.5 5 C 53.4 5.1 53.2 5.3 53.1 5.5 C 53 5.7 52.9 5.9 52.8 6.1 C 52.7 6.4 52.7 6.6 52.7 6.8 Z M 55.7 8.6 C 55.6 9 55.5 9.3 55.4 9.6 C 55.3 9.8 55.1 10 54.9 10.2 C 54.7 10.3 54.5 10.4 54.3 10.5 C 54 10.6 53.7 10.6 53.3 10.6 C 53.1 10.6 52.8 10.6 52.6 10.5 C 52.3 10.5 52.1 10.4 51.9 10.3 C 51.8 10.2 51.6 10 51.5 9.8 C 51.4 9.6 51.3 9.4 51.3 9.1 C 51.3 9.1 52.4 9.1 52.4 9.1 C 52.4 9.4 52.5 9.6 52.7 9.7 C 52.9 9.8 53.1 9.9 53.4 9.9 C 53.6 9.9 53.8 9.8 54 9.8 C 54.1 9.7 54.3 9.6 54.4 9.5 C 54.5 9.4 54.5 9.2 54.6 9.1 C 54.6 8.9 54.7 8.7 54.7 8.5 C 54.73 8.55 54.8 8.1 54.8 8.1 C 54.8 8.1 54.81 8.07 54.8 8.1 C 54.5 8.5 54 8.8 53.5 8.8 C 52.9 8.8 52.5 8.6 52.2 8.3 C 51.8 7.9 51.7 7.5 51.7 6.9 C 51.7 6.5 51.7 6.2 51.8 5.8 C 51.9 5.5 52.1 5.2 52.3 4.9 C 52.5 4.6 52.8 4.4 53.1 4.2 C 53.4 4.1 53.7 4 54.1 4 C 54.4 4 54.7 4.1 55 4.2 C 55.2 4.3 55.4 4.6 55.5 4.9 C 55.53 4.9 55.5 4.9 55.5 4.9 L 55.7 4.1 L 56.7 4.1 C 56.7 4.1 55.67 8.65 55.7 8.6 Z M 60.6 6 C 60.6 6 60.6 6 60.6 6 C 60.6 5.9 60.6 5.9 60.6 5.9 C 60.6 5.9 60.6 5.8 60.6 5.8 C 60.6 5.5 60.5 5.2 60.3 5.1 C 60.1 4.9 59.9 4.8 59.6 4.8 C 59.2 4.8 58.9 4.9 58.7 5.2 C 58.4 5.4 58.3 5.7 58.2 6 C 58.2 6 60.6 6 60.6 6 Z M 61.3 7.3 C 61.1 7.9 60.9 8.3 60.5 8.5 C 60.1 8.8 59.6 8.9 59.1 8.9 C 58.8 8.9 58.5 8.9 58.3 8.8 C 58 8.7 57.8 8.5 57.6 8.4 C 57.4 8.2 57.3 8 57.2 7.7 C 57.1 7.5 57 7.2 57 6.9 C 57 6.5 57.1 6.2 57.2 5.8 C 57.3 5.5 57.5 5.2 57.7 4.9 C 57.9 4.6 58.2 4.4 58.5 4.2 C 58.8 4.1 59.2 4 59.6 4 C 60 4 60.4 4.1 60.6 4.2 C 60.9 4.3 61.1 4.5 61.2 4.7 C 61.4 4.9 61.5 5.2 61.5 5.4 C 61.6 5.7 61.6 5.9 61.6 6.1 C 61.6 6.3 61.6 6.4 61.6 6.5 C 61.6 6.5 61.6 6.6 61.5 6.7 C 61.5 6.7 58.1 6.7 58.1 6.7 C 58.1 6.7 58.1 6.8 58.1 6.8 C 58.1 6.8 58.1 6.8 58.1 6.9 C 58.1 6.9 58.1 7 58.1 7 C 58.1 7.3 58.1 7.6 58.3 7.8 C 58.5 8 58.8 8.1 59.2 8.1 C 59.4 8.1 59.7 8 59.9 7.9 C 60.1 7.8 60.2 7.6 60.3 7.3 C 60.3 7.3 61.3 7.3 61.3 7.3 Z M 63.3 2.3 L 64.3 2.3 L 63 8.8 L 61.9 8.8 L 63.3 2.3 Z M 65.2 7.5 C 65.2 7.6 65.3 7.7 65.3 7.8 C 65.4 7.9 65.4 7.9 65.5 8 C 65.6 8 65.7 8 65.8 8.1 C 65.9 8.1 66 8.1 66.1 8.1 C 66.3 8.1 66.5 8 66.7 8 C 66.9 7.9 67 7.8 67.1 7.6 C 67.2 7.5 67.3 7.3 67.4 7.1 C 67.4 6.9 67.5 6.7 67.5 6.5 C 67.5 6.5 67.5 6.5 67.5 6.5 C 67.4 6.5 67.3 6.6 67.2 6.6 C 67.1 6.7 67 6.7 66.9 6.7 C 66.7 6.7 66.6 6.7 66.4 6.7 C 66.2 6.7 66 6.8 65.8 6.8 C 65.7 6.9 65.5 6.9 65.4 7.1 C 65.3 7.2 65.2 7.3 65.2 7.5 Z M 68.3 7.4 C 68.3 7.5 68.3 7.6 68.3 7.7 C 68.2 7.7 68.2 7.8 68.2 7.9 C 68.2 8 68.3 8 68.3 8 C 68.3 8.1 68.4 8.1 68.5 8.1 C 68.5 8.1 68.6 8.1 68.6 8.1 C 68.7 8.1 68.8 8 68.8 8 C 68.8 8 68.7 8.8 68.7 8.8 C 68.5 8.8 68.4 8.8 68.3 8.9 C 68.1 8.9 68 8.9 67.9 8.9 C 67.7 8.9 67.5 8.8 67.4 8.7 C 67.3 8.6 67.2 8.5 67.2 8.3 C 67 8.5 66.8 8.7 66.5 8.8 C 66.2 8.9 66 8.9 65.7 8.9 C 65.5 8.9 65.3 8.9 65.1 8.8 C 64.9 8.8 64.8 8.7 64.7 8.6 C 64.5 8.5 64.4 8.4 64.3 8.2 C 64.3 8 64.2 7.9 64.2 7.7 C 64.2 7.4 64.3 7.1 64.4 6.9 C 64.5 6.7 64.6 6.6 64.8 6.5 C 65 6.3 65.2 6.2 65.4 6.2 C 65.7 6.1 65.9 6.1 66.2 6.1 C 66.5 6 66.9 6 67.2 6 C 67.4 6 67.5 5.9 67.6 5.8 C 67.7 5.7 67.7 5.5 67.7 5.4 C 67.7 5.1 67.7 5 67.5 4.9 C 67.3 4.8 67.2 4.8 67 4.8 C 66.7 4.8 66.4 4.9 66.2 5 C 66 5.1 65.9 5.2 65.8 5.5 C 65.8 5.5 64.8 5.5 64.8 5.5 C 64.9 5.2 65 5 65.1 4.8 C 65.2 4.6 65.4 4.5 65.6 4.3 C 65.8 4.2 66 4.1 66.2 4.1 C 66.5 4 66.7 4 67 4 C 67.4 4 67.8 4 68 4.1 C 68.2 4.2 68.4 4.3 68.5 4.4 C 68.6 4.5 68.7 4.6 68.7 4.8 C 68.7 4.9 68.8 5 68.8 5.1 C 68.8 5.3 68.7 5.5 68.7 5.8 C 68.7 5.8 68.3 7.4 68.3 7.4 Z M 73.3 7.9 C 73.3 7.9 74.72 7.86 74.7 7.9 C 75 7.9 75.3 7.8 75.6 7.7 C 75.8 7.6 76 7.4 76.2 7.3 C 76.4 7.1 76.5 6.9 76.6 6.7 C 76.7 6.5 76.8 6.3 76.9 6.1 C 77 5.8 77 5.7 77.1 5.5 C 77.1 5.3 77.1 5.1 77.1 5 C 77.1 4.5 77 4 76.7 3.7 C 76.5 3.4 76.1 3.3 75.7 3.3 C 75.68 3.27 74.3 3.3 74.3 3.3 L 73.3 7.9 Z M 73.3 2.3 C 73.3 2.3 75.7 2.35 75.7 2.3 C 76.5 2.3 77.2 2.6 77.6 3 C 78 3.5 78.2 4.1 78.2 5 C 78.2 5.2 78.2 5.4 78.2 5.7 C 78.1 5.9 78.1 6.2 78 6.4 C 77.9 6.6 77.8 6.9 77.7 7.1 C 77.5 7.3 77.4 7.5 77.2 7.7 C 77 7.9 76.8 8 76.6 8.2 C 76.5 8.3 76.3 8.4 76 8.5 C 75.8 8.6 75.6 8.7 75.3 8.7 C 75 8.8 74.7 8.8 74.2 8.8 C 74.25 8.77 72 8.8 72 8.8 L 73.3 2.3 Z M 82.2 6 C 82.2 6 82.2 6 82.2 6 C 82.2 5.9 82.2 5.9 82.2 5.9 C 82.2 5.9 82.2 5.8 82.2 5.8 C 82.2 5.5 82.1 5.2 81.9 5.1 C 81.8 4.9 81.5 4.8 81.2 4.8 C 80.8 4.8 80.5 4.9 80.3 5.2 C 80.1 5.4 79.9 5.7 79.8 6 C 79.8 6 82.2 6 82.2 6 Z M 82.9 7.3 C 82.8 7.9 82.5 8.3 82.1 8.5 C 81.7 8.8 81.3 8.9 80.7 8.9 C 80.4 8.9 80.1 8.9 79.9 8.8 C 79.6 8.7 79.4 8.5 79.2 8.4 C 79.1 8.2 78.9 8 78.8 7.7 C 78.7 7.5 78.7 7.2 78.7 6.9 C 78.7 6.5 78.7 6.2 78.8 5.8 C 78.9 5.5 79.1 5.2 79.3 4.9 C 79.5 4.6 79.8 4.4 80.1 4.2 C 80.5 4.1 80.8 4 81.2 4 C 81.7 4 82 4.1 82.3 4.2 C 82.5 4.3 82.7 4.5 82.9 4.7 C 83 4.9 83.1 5.2 83.1 5.4 C 83.2 5.7 83.2 5.9 83.2 6.1 C 83.2 6.3 83.2 6.4 83.2 6.5 C 83.2 6.5 83.2 6.6 83.2 6.7 C 83.2 6.7 79.7 6.7 79.7 6.7 C 79.7 6.7 79.7 6.8 79.7 6.8 C 79.7 6.8 79.7 6.8 79.7 6.9 C 79.7 6.9 79.7 7 79.7 7 C 79.7 7.3 79.8 7.6 79.9 7.8 C 80.1 8 80.4 8.1 80.8 8.1 C 81.1 8.1 81.3 8 81.5 7.9 C 81.7 7.8 81.8 7.6 81.9 7.3 C 81.9 7.3 82.9 7.3 82.9 7.3 Z M 91.4 4.5 C 91.4 4 91.3 3.7 91 3.5 C 90.8 3.2 90.4 3.1 89.9 3.1 C 89.6 3.1 89.2 3.2 88.9 3.4 C 88.7 3.5 88.4 3.8 88.2 4.1 C 88 4.3 87.9 4.7 87.8 5 C 87.7 5.4 87.7 5.7 87.7 6.1 C 87.7 6.7 87.8 7.2 88.1 7.5 C 88.4 7.8 88.9 8 89.4 8 C 89.7 8 90 8 90.2 7.8 C 90.4 7.7 90.5 7.6 90.6 7.4 C 90.8 7.3 90.9 7.1 90.9 6.9 C 91 6.8 91.1 6.6 91.1 6.5 C 91.1 6.5 92.2 6.5 92.2 6.5 C 92.1 6.9 92 7.3 91.8 7.6 C 91.6 7.9 91.4 8.1 91.2 8.3 C 90.9 8.5 90.6 8.7 90.3 8.8 C 90 8.9 89.7 8.9 89.4 8.9 C 88.9 8.9 88.5 8.9 88.2 8.7 C 87.8 8.6 87.5 8.4 87.3 8.1 C 87 7.9 86.8 7.6 86.7 7.2 C 86.6 6.9 86.5 6.5 86.5 6.1 C 86.5 5.4 86.6 4.9 86.8 4.4 C 87 3.9 87.3 3.5 87.6 3.1 C 88 2.8 88.3 2.6 88.7 2.4 C 89.1 2.3 89.6 2.2 90 2.2 C 90.4 2.2 90.7 2.2 91 2.3 C 91.3 2.5 91.6 2.6 91.8 2.8 C 92.1 3 92.2 3.2 92.4 3.5 C 92.5 3.8 92.5 4.1 92.5 4.5 C 92.5 4.5 91.4 4.5 91.4 4.5 Z M 93.8 7.5 C 93.8 7.6 93.8 7.7 93.9 7.8 C 93.9 7.9 94 7.9 94.1 8 C 94.1 8 94.2 8 94.3 8.1 C 94.4 8.1 94.5 8.1 94.6 8.1 C 94.9 8.1 95.1 8 95.2 8 C 95.4 7.9 95.6 7.8 95.7 7.6 C 95.8 7.5 95.9 7.3 95.9 7.1 C 96 6.9 96 6.7 96.1 6.5 C 96.1 6.5 96.1 6.5 96.1 6.5 C 96 6.5 95.9 6.6 95.8 6.6 C 95.6 6.7 95.5 6.7 95.4 6.7 C 95.3 6.7 95.1 6.7 94.9 6.7 C 94.7 6.7 94.6 6.8 94.4 6.8 C 94.2 6.9 94.1 6.9 94 7.1 C 93.8 7.2 93.8 7.3 93.8 7.5 Z M 96.9 7.4 C 96.9 7.5 96.8 7.6 96.8 7.7 C 96.8 7.7 96.8 7.8 96.8 7.9 C 96.8 8 96.8 8 96.8 8 C 96.9 8.1 96.9 8.1 97 8.1 C 97.1 8.1 97.1 8.1 97.2 8.1 C 97.2 8.1 97.3 8 97.4 8 C 97.4 8 97.2 8.8 97.2 8.8 C 97.1 8.8 96.9 8.8 96.8 8.9 C 96.7 8.9 96.5 8.9 96.4 8.9 C 96.2 8.9 96.1 8.8 96 8.7 C 95.9 8.6 95.8 8.5 95.8 8.3 C 95.6 8.5 95.3 8.7 95.1 8.8 C 94.8 8.9 94.5 8.9 94.2 8.9 C 94 8.9 93.8 8.9 93.7 8.8 C 93.5 8.8 93.3 8.7 93.2 8.6 C 93.1 8.5 93 8.4 92.9 8.2 C 92.8 8 92.8 7.9 92.8 7.7 C 92.8 7.4 92.8 7.1 92.9 6.9 C 93 6.7 93.2 6.6 93.4 6.5 C 93.5 6.3 93.7 6.2 94 6.2 C 94.2 6.1 94.5 6.1 94.7 6.1 C 95.1 6 95.4 6 95.7 6 C 95.9 6 96.1 5.9 96.2 5.8 C 96.2 5.7 96.3 5.5 96.3 5.4 C 96.3 5.1 96.2 5 96 4.9 C 95.9 4.8 95.7 4.8 95.5 4.8 C 95.2 4.8 95 4.9 94.8 5 C 94.5 5.1 94.4 5.2 94.3 5.5 C 94.3 5.5 93.4 5.5 93.4 5.5 C 93.4 5.2 93.5 5 93.6 4.8 C 93.8 4.6 93.9 4.5 94.1 4.3 C 94.3 4.2 94.5 4.1 94.8 4.1 C 95 4 95.3 4 95.6 4 C 96 4 96.3 4 96.5 4.1 C 96.8 4.2 97 4.3 97.1 4.4 C 97.2 4.5 97.2 4.6 97.3 4.8 C 97.3 4.9 97.3 5 97.3 5.1 C 97.3 5.3 97.3 5.5 97.2 5.8 C 97.2 5.8 96.9 7.4 96.9 7.4 Z M 101.1 5.5 C 101.1 5.2 101 5.1 100.9 5 C 100.7 4.9 100.5 4.8 100.2 4.8 C 100.1 4.8 100 4.8 99.9 4.8 C 99.8 4.9 99.7 4.9 99.6 4.9 C 99.6 5 99.5 5 99.5 5.1 C 99.4 5.2 99.4 5.3 99.4 5.4 C 99.4 5.5 99.4 5.6 99.5 5.7 C 99.6 5.7 99.7 5.8 99.8 5.8 C 100 5.9 100.1 5.9 100.3 6 C 100.4 6 100.6 6.1 100.8 6.1 C 100.9 6.2 101 6.2 101.2 6.3 C 101.3 6.4 101.4 6.5 101.5 6.6 C 101.6 6.6 101.7 6.8 101.8 6.9 C 101.8 7 101.8 7.2 101.8 7.4 C 101.8 7.6 101.8 7.9 101.7 8.1 C 101.5 8.3 101.4 8.4 101.2 8.5 C 101 8.7 100.8 8.8 100.5 8.8 C 100.3 8.9 100 8.9 99.8 8.9 C 99.5 8.9 99.3 8.9 99 8.8 C 98.8 8.8 98.6 8.7 98.4 8.6 C 98.2 8.4 98.1 8.3 98 8.1 C 97.9 7.9 97.8 7.6 97.8 7.3 C 97.8 7.3 98.8 7.3 98.8 7.3 C 98.8 7.6 98.9 7.8 99.1 7.9 C 99.3 8 99.5 8.1 99.8 8.1 C 99.9 8.1 100.1 8.1 100.2 8.1 C 100.3 8 100.4 8 100.5 8 C 100.6 7.9 100.7 7.8 100.7 7.8 C 100.8 7.7 100.8 7.6 100.8 7.4 C 100.8 7.3 100.8 7.2 100.7 7.1 C 100.6 7.1 100.5 7 100.4 6.9 C 100.2 6.9 100.1 6.8 99.9 6.8 C 99.7 6.7 99.6 6.7 99.4 6.6 C 99.3 6.6 99.1 6.5 99 6.4 C 98.9 6.4 98.8 6.3 98.7 6.2 C 98.6 6.1 98.5 6 98.4 5.9 C 98.4 5.7 98.4 5.6 98.4 5.4 C 98.4 5.2 98.4 4.9 98.5 4.8 C 98.6 4.6 98.8 4.4 99 4.3 C 99.2 4.2 99.4 4.1 99.6 4.1 C 99.8 4 100 4 100.3 4 C 100.5 4 100.8 4 101 4.1 C 101.2 4.1 101.4 4.2 101.6 4.3 C 101.7 4.4 101.9 4.6 102 4.8 C 102.1 5 102.1 5.2 102.1 5.5 C 102.1 5.5 101.1 5.5 101.1 5.5 Z M 104 2.7 L 105 2.7 L 104.7 4.1 L 105.6 4.1 L 105.4 4.9 L 104.5 4.9 C 104.5 4.9 104.03 7.16 104 7.2 C 104 7.3 104 7.4 104 7.5 C 103.9 7.5 103.9 7.6 103.9 7.7 C 103.9 7.8 104 7.9 104 7.9 C 104.1 8 104.2 8 104.3 8 C 104.4 8 104.5 8 104.6 8 C 104.7 8 104.8 8 104.9 8 C 104.9 8 104.7 8.7 104.7 8.7 C 104.6 8.8 104.4 8.8 104.3 8.8 C 104.1 8.8 104 8.8 103.8 8.8 C 103.7 8.8 103.5 8.8 103.4 8.7 C 103.3 8.7 103.2 8.6 103.1 8.6 C 103 8.5 103 8.4 103 8.3 C 102.9 8.2 102.9 8.1 102.9 8 C 102.9 7.9 102.9 7.8 102.9 7.7 C 103 7.6 103 7.5 103 7.4 C 102.98 7.43 103.5 4.9 103.5 4.9 L 102.7 4.9 L 102.9 4.1 L 103.7 4.1 L 104 2.7 Z M 106.5 4.1 L 107.4 4.1 L 107.3 5 C 107.3 5 107.27 5.05 107.3 5 C 107.3 4.9 107.4 4.8 107.5 4.7 C 107.6 4.5 107.8 4.4 107.9 4.3 C 108 4.2 108.1 4.2 108.3 4.1 C 108.4 4 108.6 4 108.8 4 C 108.8 4 108.9 4 109 4 C 109.1 4 109.2 4 109.2 4 C 109.2 4 109 5 109 5 C 109 5 108.9 5 108.9 5 C 108.8 5 108.7 5 108.7 5 C 108.4 5 108.2 5 108 5.1 C 107.8 5.2 107.6 5.3 107.5 5.5 C 107.4 5.7 107.2 5.8 107.2 6 C 107.1 6.3 107 6.5 107 6.7 C 106.96 6.71 106.5 8.8 106.5 8.8 L 105.5 8.8 L 106.5 4.1 Z M 111.7 4.8 C 111.5 4.8 111.2 4.9 111 5 C 110.9 5.1 110.7 5.3 110.6 5.5 C 110.4 5.7 110.3 5.9 110.3 6.2 C 110.2 6.4 110.2 6.7 110.2 6.9 C 110.2 7.2 110.3 7.5 110.4 7.7 C 110.6 8 110.9 8.1 111.2 8.1 C 111.5 8.1 111.7 8 111.9 7.9 C 112.1 7.8 112.3 7.6 112.4 7.4 C 112.5 7.2 112.6 7 112.7 6.7 C 112.8 6.5 112.8 6.2 112.8 6 C 112.8 5.7 112.7 5.4 112.5 5.1 C 112.4 4.9 112.1 4.8 111.7 4.8 Z M 111.2 8.9 C 110.5 8.9 110 8.7 109.7 8.4 C 109.3 8 109.1 7.5 109.1 6.9 C 109.1 6.5 109.2 6.1 109.3 5.8 C 109.5 5.4 109.6 5.1 109.9 4.9 C 110.1 4.6 110.4 4.4 110.7 4.2 C 111 4.1 111.4 4 111.8 4 C 112.4 4 112.9 4.2 113.3 4.5 C 113.7 4.8 113.8 5.3 113.8 6 C 113.8 6.4 113.8 6.8 113.7 7.1 C 113.5 7.5 113.4 7.8 113.1 8.1 C 112.9 8.3 112.6 8.5 112.3 8.7 C 112 8.8 111.6 8.9 111.2 8.9 Z " stroke="none" fill="#fff"/>
  </g>
</svg>