<?xml version="1.0" standalone="no"?>
<!DOCTYPE svg PUBLIC "-//W3C//DTD SVG 1.1//EN" "http://www.w3.org/Graphics/SVG/1.1/DTD/svg11.dtd">
<svg xmlns="http://www.w3.org/2000/svg" version="1.1" width="27px" height="24.8px" viewBox="0 -5 27 24.8" style="top:-5px">
  <desc>12</desc>
  <defs/>
  <g id="Polygon26589">
    <path d="M 3.9 4.4 C 3.9 3.5 3.9 2.9 3.9 2.4 C 3.9 2 3.9 1.8 3.6 1.8 C 3.3 1.8 2.2 2.4 1.9 2.6 C 1.8 2.6 1.7 2.6 1.7 2.6 C 1.6 2.6 1.6 2.6 1.6 2.5 C 1.6 2.4 1.6 2.3 1.7 2.3 C 1.8 2.2 4.7 0.3 5.2 -0.1 C 5.3 -0.1 5.4 -0.3 5.6 -0.3 C 5.7 -0.3 5.7 -0.1 5.7 0.1 C 5.7 0.2 5.7 1.7 5.7 4 C 5.7 4 5.7 6.7 5.7 6.7 C 5.7 8.2 5.7 9.5 5.7 10.1 C 5.8 10.6 5.8 10.8 6.3 10.9 C 6.5 11 7.2 11 7.3 11 C 7.4 11 7.4 11.1 7.4 11.2 C 7.4 11.3 7.4 11.3 7.2 11.3 C 6.1 11.3 5.1 11.3 4.7 11.3 C 4.4 11.3 3.1 11.3 2.1 11.3 C 2 11.3 1.9 11.3 1.9 11.2 C 1.9 11.1 1.9 11 2 11 C 2.2 11 2.9 11 3.2 10.9 C 3.7 10.8 3.8 10.6 3.8 10.1 C 3.9 9.5 3.9 8.2 3.9 6.7 C 3.9 6.7 3.9 4.4 3.9 4.4 Z M 9.8 11.2 C 9.7 11.2 9.6 11.2 9.6 11 C 9.6 10.9 9.7 10.8 9.9 10.6 C 12 8.8 15 6.5 15 3.3 C 15 0.9 13.7 0.4 12.9 0.4 C 12.3 0.4 11.8 0.6 11.3 1 C 11 1.3 10.7 2 10.7 2.4 C 10.7 2.6 10.6 2.7 10.5 2.7 C 10.4 2.7 10.4 2.6 10.4 2.4 C 10.4 2.3 10.3 1 10.3 0.6 C 10.3 0.5 10.3 0.4 10.5 0.3 C 11 0 11.8 -0.3 13.2 -0.3 C 15.8 -0.3 16.9 1.2 16.9 2.9 C 16.9 5.9 13.7 8.4 11.8 9.9 C 11.7 10 11.7 10 11.8 10 C 11.8 10 12.8 10 12.8 10 C 13.1 10 14.9 10 15.4 9.9 C 16.4 9.8 16.9 9.3 17.1 8.6 C 17.2 8.4 17.2 8.4 17.3 8.4 C 17.4 8.4 17.4 8.5 17.4 8.7 C 17.4 8.9 17.1 10.3 17 10.8 C 16.9 11.2 16.6 11.2 15.7 11.2 C 15.7 11.2 9.8 11.2 9.8 11.2 Z " stroke="none" fill="#000"/>
  </g>
</svg>