<?xml version="1.0" standalone="no"?>
<!DOCTYPE svg PUBLIC "-//W3C//DTD SVG 1.1//EN" "http://www.w3.org/Graphics/SVG/1.1/DTD/svg11.dtd">
<svg xmlns="http://www.w3.org/2000/svg" version="1.1" width="310px" height="77.6px" viewBox="0 -9 310 77.6" style="top:-9px">
  <desc>Malayo pa sa ginto</desc>
  <defs/>
  <g id="Polygon18522">
    <path d="M 29.1 32.7 L 33.6 32.7 L 33.6 13.3 L 33.7 13.3 L 38 32.7 L 41.8 32.7 L 46.1 13.3 L 46.2 13.3 L 46.2 32.7 L 50.7 32.7 L 50.7 8.4 L 43.4 8.4 L 39.9 25.5 L 39.9 25.5 L 36.4 8.4 L 29.1 8.4 L 29.1 32.7 Z M 62.6 27.1 C 62.6 27.6 62.5 28.1 62.3 28.4 C 62.1 28.8 61.9 29.1 61.6 29.3 C 61.3 29.5 61 29.7 60.7 29.8 C 60.3 29.9 60 30 59.7 30 C 59 30 58.6 29.7 58.3 29.2 C 58.1 28.7 57.9 28.1 57.9 27.4 C 57.9 26.6 58.1 25.9 58.5 25.5 C 58.9 25 59.6 24.6 60.6 24.4 C 60.9 24.4 61.2 24.3 61.6 24.1 C 61.9 24 62.3 23.8 62.6 23.5 C 62.6 23.5 62.6 27.1 62.6 27.1 Z M 58.2 20 C 58.2 20 58.22 19.48 58.2 19.5 C 58.2 18.8 58.4 18.2 58.8 17.7 C 59.1 17.3 59.7 17.1 60.4 17.1 C 61.2 17.1 61.8 17.3 62.1 17.7 C 62.4 18.1 62.6 18.6 62.6 19.3 C 62.6 20 62.4 20.4 62.2 20.7 C 61.9 21.1 61.4 21.3 60.7 21.5 C 60.7 21.5 58.1 22.2 58.1 22.2 C 57.2 22.4 56.5 22.7 56 23 C 55.4 23.3 54.9 23.6 54.5 24.1 C 54.2 24.5 53.9 25.1 53.7 25.7 C 53.5 26.3 53.4 27.1 53.4 27.9 C 53.4 28.5 53.5 29.1 53.7 29.8 C 53.8 30.4 54.1 31 54.4 31.4 C 54.8 31.9 55.2 32.3 55.8 32.6 C 56.3 32.9 57 33 57.8 33 C 59 33 59.9 32.9 60.6 32.6 C 61.3 32.3 62 31.7 62.5 30.8 C 62.5 30.8 62.6 30.8 62.6 30.8 C 62.6 31.1 62.7 31.4 62.8 31.7 C 62.9 32.1 63 32.4 63.2 32.7 C 63.2 32.7 67.6 32.7 67.6 32.7 C 67.4 32.1 67.3 31.6 67.2 31.1 C 67.1 30.7 67.1 30 67.1 29.1 C 67.1 29.1 67.1 19.5 67.1 19.5 C 67.1 18.7 67 17.9 66.8 17.3 C 66.6 16.6 66.3 16 65.8 15.5 C 65.4 15 64.7 14.6 63.8 14.3 C 63 14 61.8 13.9 60.4 13.9 C 59.5 13.9 58.7 14 57.9 14.2 C 57.2 14.4 56.5 14.7 55.9 15.1 C 55.3 15.6 54.9 16.2 54.5 16.9 C 54.2 17.6 54 18.5 54 19.5 C 54.01 19.55 54 20 54 20 L 58.2 20 Z M 70.6 32.7 L 75.3 32.7 L 75.3 8.4 L 70.6 8.4 L 70.6 32.7 Z M 87.1 27.1 C 87.1 27.6 87 28.1 86.8 28.4 C 86.6 28.8 86.4 29.1 86.1 29.3 C 85.8 29.5 85.5 29.7 85.2 29.8 C 84.8 29.9 84.5 30 84.2 30 C 83.6 30 83.1 29.7 82.8 29.2 C 82.6 28.7 82.4 28.1 82.4 27.4 C 82.4 26.6 82.6 25.9 83 25.5 C 83.4 25 84.1 24.6 85.1 24.4 C 85.4 24.4 85.7 24.3 86.1 24.1 C 86.4 24 86.8 23.8 87.1 23.5 C 87.1 23.5 87.1 27.1 87.1 27.1 Z M 82.7 20 C 82.7 20 82.73 19.48 82.7 19.5 C 82.7 18.8 82.9 18.2 83.3 17.7 C 83.6 17.3 84.2 17.1 84.9 17.1 C 85.7 17.1 86.3 17.3 86.6 17.7 C 86.9 18.1 87.1 18.6 87.1 19.3 C 87.1 20 87 20.4 86.7 20.7 C 86.4 21.1 85.9 21.3 85.2 21.5 C 85.2 21.5 82.6 22.2 82.6 22.2 C 81.7 22.4 81.1 22.7 80.5 23 C 79.9 23.3 79.4 23.6 79 24.1 C 78.7 24.5 78.4 25.1 78.2 25.7 C 78 26.3 77.9 27.1 77.9 27.9 C 77.9 28.5 78 29.1 78.2 29.8 C 78.3 30.4 78.6 31 78.9 31.4 C 79.3 31.9 79.7 32.3 80.3 32.6 C 80.9 32.9 81.5 33 82.4 33 C 83.5 33 84.4 32.9 85.1 32.6 C 85.8 32.3 86.5 31.7 87 30.8 C 87 30.8 87.1 30.8 87.1 30.8 C 87.2 31.1 87.2 31.4 87.3 31.7 C 87.4 32.1 87.5 32.4 87.7 32.7 C 87.7 32.7 92.2 32.7 92.2 32.7 C 91.9 32.1 91.8 31.6 91.7 31.1 C 91.6 30.7 91.6 30 91.6 29.1 C 91.6 29.1 91.6 19.5 91.6 19.5 C 91.6 18.7 91.5 17.9 91.3 17.3 C 91.1 16.6 90.8 16 90.4 15.5 C 89.9 15 89.2 14.6 88.3 14.3 C 87.5 14 86.4 13.9 84.9 13.9 C 84.1 13.9 83.2 14 82.4 14.2 C 81.7 14.4 81 14.7 80.4 15.1 C 79.8 15.6 79.4 16.2 79 16.9 C 78.7 17.6 78.5 18.5 78.5 19.5 C 78.52 19.55 78.5 20 78.5 20 L 82.7 20 Z M 94.9 38.6 C 94.9 38.6 96.81 38.56 96.8 38.6 C 97.9 38.6 98.8 38.5 99.5 38.3 C 100.2 38.2 100.8 37.8 101.3 37.3 C 101.9 36.8 102.3 36.1 102.7 35.1 C 103 34.2 103.4 33 103.8 31.4 C 103.85 31.45 108.3 14.4 108.3 14.4 L 103.6 14.4 L 101.2 27 L 101.1 27 L 98.4 14.4 L 93.5 14.4 C 93.5 14.4 98.65 32.67 98.6 32.7 C 98.6 33.4 98.4 34 98 34.5 C 97.6 34.9 97 35.2 96.1 35.2 C 95.7 35.2 95.3 35.1 94.9 35.1 C 94.91 35.05 94.9 38.6 94.9 38.6 Z M 114.1 20.9 C 114.2 20.2 114.3 19.5 114.5 18.9 C 114.6 18.3 114.9 17.9 115.2 17.6 C 115.6 17.3 116 17.1 116.6 17.1 C 117.5 17.1 118.2 17.6 118.6 18.6 C 118.9 19.6 119.1 21.2 119.1 23.5 C 119.1 25.8 118.9 27.5 118.6 28.5 C 118.2 29.5 117.5 30 116.6 30 C 116 30 115.6 29.8 115.2 29.5 C 114.9 29.2 114.6 28.7 114.5 28.2 C 114.3 27.6 114.2 26.9 114.1 26.1 C 114.1 25.3 114.1 24.5 114.1 23.5 C 114.1 22.6 114.1 21.7 114.1 20.9 Z M 109.7 27.7 C 110 28.9 110.3 29.9 110.9 30.8 C 111.4 31.6 112.2 32.1 113.1 32.5 C 114 32.9 115.2 33.1 116.6 33 C 117.9 33 119.1 32.9 120 32.5 C 120.9 32.1 121.6 31.5 122.2 30.7 C 122.8 29.9 123.2 28.9 123.4 27.7 C 123.7 26.5 123.8 25.1 123.8 23.5 C 123.8 21.9 123.7 20.5 123.5 19.3 C 123.2 18.1 122.9 17.1 122.3 16.3 C 121.8 15.5 121 14.9 120.1 14.5 C 119.2 14.1 118 13.9 116.6 13.9 C 115.3 13.9 114.1 14.1 113.2 14.5 C 112.3 15 111.6 15.6 111 16.4 C 110.4 17.2 110 18.2 109.8 19.4 C 109.5 20.6 109.4 22 109.4 23.5 C 109.4 25.1 109.5 26.5 109.7 27.7 Z M 134.5 38.6 L 139.2 38.6 L 139.2 31 C 139.2 31 139.24 30.97 139.2 31 C 139.7 31.7 140.3 32.2 140.9 32.6 C 141.5 32.9 142.3 33 143.2 33 C 145.1 33 146.5 32.3 147.4 30.8 C 148.3 29.4 148.8 26.9 148.8 23.5 C 148.8 20.1 148.3 17.7 147.4 16.2 C 146.5 14.7 145.1 13.9 143.2 13.9 C 142.2 13.9 141.4 14.1 140.8 14.5 C 140.1 14.8 139.6 15.5 139 16.3 C 139.04 16.32 139 16.3 139 16.3 L 139 14.4 L 134.5 14.4 L 134.5 38.6 Z M 139.6 19 C 139.9 18 140.6 17.5 141.7 17.5 C 142.7 17.5 143.3 18 143.6 19 C 144 20 144.1 21.5 144.1 23.5 C 144.1 25.5 144 27 143.6 28 C 143.3 29 142.7 29.5 141.7 29.5 C 140.6 29.5 139.9 29 139.6 28 C 139.3 27 139.2 25.5 139.2 23.5 C 139.2 21.5 139.3 20 139.6 19 Z M 160 27.1 C 160 27.6 159.9 28.1 159.7 28.4 C 159.6 28.8 159.3 29.1 159 29.3 C 158.8 29.5 158.5 29.7 158.1 29.8 C 157.8 29.9 157.4 30 157.1 30 C 156.5 30 156 29.7 155.8 29.2 C 155.5 28.7 155.4 28.1 155.4 27.4 C 155.4 26.6 155.6 25.9 156 25.5 C 156.4 25 157.1 24.6 158 24.4 C 158.3 24.4 158.6 24.3 159 24.1 C 159.4 24 159.7 23.8 160 23.5 C 160 23.5 160 27.1 160 27.1 Z M 155.7 20 C 155.7 20 155.66 19.48 155.7 19.5 C 155.7 18.8 155.8 18.2 156.2 17.7 C 156.6 17.3 157.1 17.1 157.8 17.1 C 158.6 17.1 159.2 17.3 159.5 17.7 C 159.9 18.1 160 18.6 160 19.3 C 160 20 159.9 20.4 159.6 20.7 C 159.3 21.1 158.8 21.3 158.1 21.5 C 158.1 21.5 155.5 22.2 155.5 22.2 C 154.7 22.4 154 22.7 153.4 23 C 152.8 23.3 152.3 23.6 152 24.1 C 151.6 24.5 151.3 25.1 151.1 25.7 C 151 26.3 150.9 27.1 150.9 27.9 C 150.9 28.5 150.9 29.1 151.1 29.8 C 151.3 30.4 151.5 31 151.9 31.4 C 152.2 31.9 152.6 32.3 153.2 32.6 C 153.8 32.9 154.5 33 155.3 33 C 156.4 33 157.3 32.9 158.1 32.6 C 158.8 32.3 159.4 31.7 159.9 30.8 C 159.9 30.8 160 30.8 160 30.8 C 160.1 31.1 160.2 31.4 160.2 31.7 C 160.3 32.1 160.4 32.4 160.6 32.7 C 160.6 32.7 165.1 32.7 165.1 32.7 C 164.9 32.1 164.7 31.6 164.6 31.1 C 164.5 30.7 164.5 30 164.5 29.1 C 164.5 29.1 164.5 19.5 164.5 19.5 C 164.5 18.7 164.4 17.9 164.2 17.3 C 164.1 16.6 163.8 16 163.3 15.5 C 162.8 15 162.1 14.6 161.3 14.3 C 160.4 14 159.3 13.9 157.9 13.9 C 157 13.9 156.2 14 155.4 14.2 C 154.6 14.4 153.9 14.7 153.3 15.1 C 152.8 15.6 152.3 16.2 152 16.9 C 151.6 17.6 151.4 18.5 151.4 19.5 C 151.45 19.55 151.4 20 151.4 20 L 155.7 20 Z M 175.2 26.7 C 175.2 26.7 175.21 27.34 175.2 27.3 C 175.2 28.2 175.3 29 175.5 29.7 C 175.7 30.4 176.1 31.1 176.6 31.6 C 177.1 32.1 177.8 32.4 178.7 32.7 C 179.5 32.9 180.6 33 181.9 33 C 182.9 33 183.9 32.9 184.7 32.7 C 185.5 32.5 186.2 32.2 186.8 31.7 C 187.4 31.2 187.9 30.7 188.2 29.9 C 188.6 29.2 188.7 28.4 188.7 27.4 C 188.7 26 188.4 24.9 187.8 24.1 C 187.2 23.3 186.2 22.7 184.7 22.2 C 184.7 22.2 181.9 21.2 181.9 21.2 C 181.1 21 180.5 20.7 180.3 20.3 C 180 19.9 179.8 19.5 179.8 19.1 C 179.8 18.4 180.1 17.9 180.5 17.6 C 180.9 17.3 181.5 17.1 182 17.1 C 182.8 17.1 183.4 17.3 183.7 17.8 C 184 18.2 184.1 18.9 184.1 19.9 C 184.12 19.86 188.3 19.9 188.3 19.9 C 188.3 19.9 188.34 19.11 188.3 19.1 C 188.3 17.5 187.8 16.2 186.8 15.3 C 185.8 14.4 184.2 13.9 182.1 13.9 C 180.9 13.9 179.9 14.1 179 14.3 C 178.2 14.6 177.5 15 176.9 15.5 C 176.4 16 176 16.6 175.7 17.3 C 175.5 18 175.3 18.7 175.3 19.4 C 175.3 20.7 175.7 21.8 176.3 22.6 C 177 23.4 178 24.1 179.3 24.5 C 179.3 24.5 182.6 25.7 182.6 25.7 C 183 25.9 183.4 26.1 183.7 26.4 C 184.1 26.7 184.3 27.2 184.3 27.8 C 184.3 28.5 184 29 183.6 29.4 C 183.2 29.8 182.6 30 181.9 30 C 181.1 30 180.5 29.7 180.1 29.2 C 179.6 28.7 179.4 28.1 179.4 27.3 C 179.43 27.3 179.4 26.7 179.4 26.7 L 175.2 26.7 Z M 199.6 27.1 C 199.6 27.6 199.5 28.1 199.4 28.4 C 199.2 28.8 198.9 29.1 198.7 29.3 C 198.4 29.5 198.1 29.7 197.7 29.8 C 197.4 29.9 197.1 30 196.7 30 C 196.1 30 195.6 29.7 195.4 29.2 C 195.1 28.7 195 28.1 195 27.4 C 195 26.6 195.2 25.9 195.6 25.5 C 196 25 196.7 24.6 197.6 24.4 C 197.9 24.4 198.2 24.3 198.6 24.1 C 199 24 199.3 23.8 199.6 23.5 C 199.6 23.5 199.6 27.1 199.6 27.1 Z M 195.3 20 C 195.3 20 195.27 19.48 195.3 19.5 C 195.3 18.8 195.5 18.2 195.8 17.7 C 196.2 17.3 196.7 17.1 197.4 17.1 C 198.2 17.1 198.8 17.3 199.1 17.7 C 199.5 18.1 199.6 18.6 199.6 19.3 C 199.6 20 199.5 20.4 199.2 20.7 C 198.9 21.1 198.5 21.3 197.8 21.5 C 197.8 21.5 195.1 22.2 195.1 22.2 C 194.3 22.4 193.6 22.7 193 23 C 192.4 23.3 192 23.6 191.6 24.1 C 191.2 24.5 190.9 25.1 190.8 25.7 C 190.6 26.3 190.5 27.1 190.5 27.9 C 190.5 28.5 190.6 29.1 190.7 29.8 C 190.9 30.4 191.1 31 191.5 31.4 C 191.8 31.9 192.3 32.3 192.8 32.6 C 193.4 32.9 194.1 33 194.9 33 C 196 33 197 32.9 197.7 32.6 C 198.4 32.3 199 31.7 199.6 30.8 C 199.6 30.8 199.6 30.8 199.6 30.8 C 199.7 31.1 199.8 31.4 199.8 31.7 C 199.9 32.1 200 32.4 200.2 32.7 C 200.2 32.7 204.7 32.7 204.7 32.7 C 204.5 32.1 204.3 31.6 204.2 31.1 C 204.2 30.7 204.1 30 204.1 29.1 C 204.1 29.1 204.1 19.5 204.1 19.5 C 204.1 18.7 204 17.9 203.9 17.3 C 203.7 16.6 203.4 16 202.9 15.5 C 202.4 15 201.7 14.6 200.9 14.3 C 200 14 198.9 13.9 197.5 13.9 C 196.6 13.9 195.8 14 195 14.2 C 194.2 14.4 193.5 14.7 192.9 15.1 C 192.4 15.6 191.9 16.2 191.6 16.9 C 191.2 17.6 191.1 18.5 191.1 19.5 C 191.06 19.55 191.1 20 191.1 20 L 195.3 20 Z M 220 21 C 220.1 20.1 220.2 19.5 220.4 19 C 220.5 18.4 220.8 18.1 221.1 17.8 C 221.4 17.6 221.8 17.5 222.4 17.5 C 223.3 17.5 223.9 18 224.3 18.9 C 224.6 19.8 224.8 21.4 224.8 23.6 C 224.8 24.4 224.8 25.1 224.7 25.8 C 224.6 26.4 224.5 27 224.3 27.4 C 224.1 27.9 223.8 28.2 223.5 28.5 C 223.2 28.7 222.8 28.9 222.3 28.9 C 221.8 28.9 221.4 28.7 221.1 28.5 C 220.8 28.2 220.5 27.9 220.3 27.4 C 220.2 27 220.1 26.5 220 25.9 C 219.9 25.3 219.9 24.7 219.9 24.1 C 219.9 22.9 219.9 21.8 220 21 Z M 224.8 14.4 L 224.8 16.4 C 224.8 16.4 224.75 16.42 224.7 16.4 C 224.3 15.5 223.7 14.8 223 14.4 C 222.3 14.1 221.6 13.9 221 13.9 C 219.7 13.9 218.7 14.2 217.9 14.8 C 217.2 15.3 216.6 16.1 216.2 16.9 C 215.8 17.8 215.5 18.8 215.4 20 C 215.3 21.1 215.2 22.2 215.2 23.2 C 215.2 26.6 215.7 28.9 216.6 30.3 C 217.6 31.8 219 32.5 220.8 32.5 C 221.6 32.5 222.3 32.3 223 31.9 C 223.7 31.4 224.3 30.9 224.7 30.2 C 224.75 30.23 224.8 30.2 224.8 30.2 C 224.8 30.2 224.82 32.64 224.8 32.6 C 224.8 33.5 224.6 34.3 224.2 34.9 C 223.9 35.5 223.2 35.8 222.2 35.8 C 221.9 35.8 221.7 35.8 221.4 35.7 C 221.1 35.6 220.9 35.5 220.7 35.3 C 220.2 35 220 34.5 220 33.9 C 220 33.9 215.5 33.9 215.5 33.9 C 215.5 35.5 216 36.7 217.1 37.6 C 218.2 38.4 219.7 38.8 221.7 38.8 C 224.4 38.8 226.4 38.2 227.6 37.1 C 228.7 35.9 229.3 34.1 229.3 31.8 C 229.31 31.76 229.3 14.4 229.3 14.4 L 224.8 14.4 Z M 232.8 12.1 L 237.5 12.1 L 237.5 8.1 L 232.8 8.1 L 232.8 12.1 Z M 232.8 32.7 L 237.5 32.7 L 237.5 14.4 L 232.8 14.4 L 232.8 32.7 Z M 240.8 32.7 L 245.5 32.7 C 245.5 32.7 245.45 20.54 245.5 20.5 C 245.5 18.5 246.3 17.5 247.9 17.5 C 248.6 17.5 249.1 17.7 249.5 18.1 C 249.8 18.4 249.9 19.1 249.9 20.1 C 249.94 20.06 249.9 32.7 249.9 32.7 L 254.6 32.7 C 254.6 32.7 254.63 19.11 254.6 19.1 C 254.6 17.3 254.2 15.9 253.4 15.1 C 252.6 14.3 251.5 13.9 250 13.9 C 249 13.9 248.1 14.1 247.3 14.5 C 246.5 15 245.8 15.6 245.3 16.5 C 245.32 16.52 245.3 16.5 245.3 16.5 L 245.3 14.4 L 240.8 14.4 L 240.8 32.7 Z M 258.8 14.4 L 256.4 14.4 L 256.4 17.6 L 258.8 17.6 C 258.8 17.6 258.78 28.05 258.8 28 C 258.8 29 258.8 29.7 259 30.4 C 259.1 31 259.3 31.5 259.6 31.8 C 259.9 32.2 260.3 32.5 260.9 32.6 C 261.5 32.7 262.2 32.8 263.1 32.8 C 263.7 32.8 264.2 32.8 264.7 32.7 C 265.2 32.7 265.7 32.7 266.2 32.7 C 266.2 32.7 266.2 29.4 266.2 29.4 C 266 29.4 265.9 29.4 265.7 29.5 C 265.5 29.5 265.3 29.5 265.1 29.5 C 264.5 29.5 264 29.3 263.8 29 C 263.6 28.7 263.5 28.2 263.5 27.5 C 263.47 27.47 263.5 17.6 263.5 17.6 L 266.2 17.6 L 266.2 14.4 L 263.5 14.4 L 263.5 9.1 L 258.8 9.1 L 258.8 14.4 Z M 272 20.9 C 272 20.2 272.1 19.5 272.3 18.9 C 272.5 18.3 272.7 17.9 273.1 17.6 C 273.4 17.3 273.9 17.1 274.4 17.1 C 275.4 17.1 276 17.6 276.4 18.6 C 276.8 19.6 276.9 21.2 276.9 23.5 C 276.9 25.8 276.8 27.5 276.4 28.5 C 276 29.5 275.4 30 274.4 30 C 273.9 30 273.4 29.8 273.1 29.5 C 272.7 29.2 272.5 28.7 272.3 28.2 C 272.1 27.6 272 26.9 272 26.1 C 271.9 25.3 271.9 24.5 271.9 23.5 C 271.9 22.6 271.9 21.7 272 20.9 Z M 267.6 27.7 C 267.8 28.9 268.2 29.9 268.7 30.8 C 269.3 31.6 270 32.1 270.9 32.5 C 271.8 32.9 273 33.1 274.4 33 C 275.8 33 276.9 32.9 277.8 32.5 C 278.7 32.1 279.5 31.5 280 30.7 C 280.6 29.9 281 28.9 281.3 27.7 C 281.5 26.5 281.6 25.1 281.6 23.5 C 281.6 21.9 281.5 20.5 281.3 19.3 C 281.1 18.1 280.7 17.1 280.1 16.3 C 279.6 15.5 278.9 14.9 277.9 14.5 C 277 14.1 275.8 13.9 274.4 13.9 C 273.1 13.9 272 14.1 271 14.5 C 270.1 15 269.4 15.6 268.8 16.4 C 268.2 17.2 267.8 18.2 267.6 19.4 C 267.3 20.6 267.2 22 267.2 23.5 C 267.2 25.1 267.3 26.5 267.6 27.7 Z " stroke="none" fill="#000"/>
  </g>
</svg>