<?xml version="1.0" standalone="no"?>
<!DOCTYPE svg PUBLIC "-//W3C//DTD SVG 1.1//EN" "http://www.w3.org/Graphics/SVG/1.1/DTD/svg11.dtd">
<svg xmlns="http://www.w3.org/2000/svg" version="1.1" width="113.2px" height="18px" viewBox="0 -3 113.2 18" style="top:-3px">
  <desc>Dibuho ni Bryan Manese</desc>
  <defs/>
  <g id="Polygon30808">
    <path d="M 9 8.1 C 9 8.1 10.39 8.11 10.4 8.1 C 10.7 8.1 11 8.1 11.2 7.9 C 11.5 7.8 11.7 7.7 11.9 7.5 C 12 7.3 12.2 7.2 12.3 6.9 C 12.4 6.7 12.5 6.5 12.6 6.3 C 12.7 6.1 12.7 5.9 12.7 5.7 C 12.8 5.5 12.8 5.4 12.8 5.3 C 12.8 4.7 12.6 4.3 12.4 4 C 12.2 3.7 11.8 3.5 11.4 3.5 C 11.35 3.52 10 3.5 10 3.5 L 9 8.1 Z M 9 2.6 C 9 2.6 11.37 2.6 11.4 2.6 C 12.2 2.6 12.8 2.8 13.3 3.3 C 13.7 3.7 13.9 4.4 13.9 5.3 C 13.9 5.5 13.9 5.7 13.8 5.9 C 13.8 6.2 13.7 6.4 13.6 6.7 C 13.6 6.9 13.5 7.1 13.3 7.4 C 13.2 7.6 13 7.8 12.9 7.9 C 12.7 8.1 12.5 8.3 12.3 8.4 C 12.1 8.6 11.9 8.7 11.7 8.8 C 11.5 8.9 11.2 8.9 11 9 C 10.7 9 10.3 9 9.9 9 C 9.92 9.02 7.7 9 7.7 9 L 9 2.6 Z M 15.2 2.6 L 16.2 2.6 L 16 3.6 L 15 3.6 L 15.2 2.6 Z M 14.8 4.4 L 15.9 4.4 L 14.9 9 L 13.9 9 L 14.8 4.4 Z M 17.2 2.6 L 18.2 2.6 L 17.7 4.9 C 17.7 4.9 17.75 4.92 17.8 4.9 C 18.1 4.5 18.6 4.2 19.2 4.2 C 19.4 4.2 19.7 4.3 19.9 4.4 C 20.1 4.5 20.3 4.6 20.5 4.8 C 20.6 5 20.7 5.2 20.8 5.4 C 20.9 5.6 20.9 5.9 20.9 6.2 C 20.9 6.5 20.9 6.9 20.8 7.2 C 20.7 7.6 20.5 7.9 20.3 8.2 C 20.1 8.5 19.9 8.7 19.5 8.9 C 19.2 9.1 18.9 9.2 18.5 9.2 C 18.1 9.2 17.8 9.1 17.6 9 C 17.3 8.8 17.1 8.6 16.9 8.2 C 16.94 8.24 16.9 8.2 16.9 8.2 L 16.8 9 L 15.9 9 L 17.2 2.6 Z M 18.8 5.1 C 18.5 5.1 18.3 5.1 18.1 5.3 C 17.9 5.4 17.8 5.6 17.7 5.8 C 17.5 6 17.4 6.2 17.4 6.4 C 17.3 6.7 17.3 6.9 17.3 7.2 C 17.3 7.5 17.4 7.8 17.5 8 C 17.7 8.2 18 8.3 18.4 8.3 C 18.6 8.3 18.8 8.3 19 8.1 C 19.2 8 19.4 7.8 19.5 7.6 C 19.6 7.4 19.7 7.2 19.8 7 C 19.9 6.7 19.9 6.5 19.9 6.2 C 19.9 5.9 19.8 5.6 19.6 5.4 C 19.5 5.2 19.2 5.1 18.8 5.1 Z M 25.2 9 L 24.3 9 L 24.4 8.3 C 24.4 8.3 24.4 8.33 24.4 8.3 C 24.2 8.6 24 8.8 23.7 8.9 C 23.4 9.1 23.1 9.2 22.8 9.2 C 22.3 9.2 22 9 21.8 8.8 C 21.5 8.6 21.4 8.3 21.4 7.9 C 21.4 7.8 21.4 7.7 21.4 7.6 C 21.4 7.5 21.5 7.4 21.5 7.3 C 21.48 7.34 22.1 4.4 22.1 4.4 L 23.1 4.4 C 23.1 4.4 22.53 7.24 22.5 7.2 C 22.5 7.3 22.5 7.4 22.5 7.5 C 22.5 7.5 22.5 7.6 22.5 7.7 C 22.5 7.7 22.5 7.8 22.5 7.8 C 22.5 7.9 22.5 8 22.5 8.1 C 22.6 8.1 22.6 8.2 22.7 8.3 C 22.8 8.3 23 8.3 23.2 8.3 C 23.4 8.3 23.6 8.3 23.7 8.2 C 23.9 8.1 24 8 24.2 7.9 C 24.3 7.7 24.4 7.6 24.5 7.4 C 24.6 7.2 24.6 7.1 24.6 6.9 C 24.65 6.89 25.2 4.4 25.2 4.4 L 26.2 4.4 L 25.2 9 Z M 27.5 2.6 L 28.5 2.6 L 28 5 C 28 5 28.03 5.03 28 5 C 28.2 4.8 28.4 4.6 28.7 4.5 C 29 4.3 29.3 4.2 29.6 4.2 C 30 4.2 30.4 4.4 30.6 4.6 C 30.8 4.8 30.9 5.1 30.9 5.5 C 30.9 5.6 30.9 5.7 30.9 5.8 C 30.9 5.9 30.9 6 30.9 6.1 C 30.88 6.05 30.3 9 30.3 9 L 29.2 9 C 29.2 9 29.82 6.15 29.8 6.2 C 29.8 6.1 29.9 6 29.9 5.9 C 29.9 5.9 29.9 5.8 29.9 5.7 C 29.9 5.7 29.9 5.6 29.9 5.6 C 29.9 5.5 29.9 5.4 29.8 5.3 C 29.8 5.3 29.7 5.2 29.6 5.1 C 29.5 5.1 29.4 5.1 29.2 5.1 C 29 5.1 28.8 5.1 28.6 5.2 C 28.5 5.3 28.3 5.4 28.2 5.5 C 28.1 5.6 28 5.8 27.9 6 C 27.8 6.1 27.7 6.3 27.7 6.5 C 27.71 6.5 27.2 9 27.2 9 L 26.2 9 L 27.5 2.6 Z M 34 5.1 C 33.7 5.1 33.5 5.1 33.3 5.3 C 33.1 5.4 32.9 5.6 32.8 5.8 C 32.6 6 32.5 6.2 32.5 6.4 C 32.4 6.7 32.4 6.9 32.4 7.1 C 32.4 7.5 32.5 7.8 32.6 8 C 32.8 8.2 33.1 8.3 33.5 8.3 C 33.7 8.3 34 8.3 34.1 8.1 C 34.3 8 34.5 7.9 34.6 7.7 C 34.8 7.5 34.9 7.2 34.9 7 C 35 6.7 35 6.5 35 6.3 C 35 5.9 34.9 5.6 34.8 5.4 C 34.6 5.2 34.3 5.1 34 5.1 Z M 33.4 9.2 C 32.7 9.2 32.2 9 31.9 8.6 C 31.5 8.3 31.4 7.8 31.4 7.1 C 31.4 6.7 31.4 6.4 31.6 6 C 31.7 5.7 31.9 5.4 32.1 5.1 C 32.3 4.8 32.6 4.6 32.9 4.5 C 33.2 4.3 33.6 4.2 34 4.2 C 34.7 4.2 35.2 4.4 35.5 4.8 C 35.9 5.1 36.1 5.6 36.1 6.2 C 36.1 6.7 36 7 35.9 7.4 C 35.8 7.7 35.6 8 35.3 8.3 C 35.1 8.6 34.8 8.8 34.5 8.9 C 34.2 9.1 33.8 9.2 33.4 9.2 Z M 39.6 4.4 L 40.6 4.4 L 40.4 5 C 40.4 5 40.42 5.06 40.4 5.1 C 40.6 4.8 40.8 4.6 41.1 4.5 C 41.4 4.3 41.7 4.2 42 4.2 C 42.5 4.2 42.8 4.4 43.1 4.6 C 43.3 4.8 43.4 5.1 43.4 5.5 C 43.4 5.6 43.4 5.7 43.4 5.8 C 43.4 5.9 43.4 6 43.3 6.1 C 43.34 6.05 42.7 9 42.7 9 L 41.7 9 C 41.7 9 42.29 6.15 42.3 6.2 C 42.3 6.1 42.3 6 42.3 5.9 C 42.4 5.9 42.4 5.8 42.4 5.7 C 42.4 5.7 42.4 5.6 42.4 5.6 C 42.4 5.5 42.3 5.4 42.3 5.3 C 42.2 5.3 42.2 5.2 42.1 5.1 C 42 5.1 41.8 5.1 41.6 5.1 C 41.4 5.1 41.3 5.1 41.1 5.2 C 40.9 5.3 40.8 5.4 40.7 5.5 C 40.6 5.6 40.5 5.8 40.4 6 C 40.3 6.1 40.2 6.3 40.2 6.5 C 40.17 6.5 39.7 9 39.7 9 L 38.6 9 L 39.6 4.4 Z M 44.9 2.6 L 46 2.6 L 45.8 3.6 L 44.7 3.6 L 44.9 2.6 Z M 44.6 4.4 L 45.6 4.4 L 44.6 9 L 43.6 9 L 44.6 4.4 Z M 49.4 8.1 C 49.4 8.1 50.96 8.11 51 8.1 C 51.1 8.1 51.2 8.1 51.4 8.1 C 51.5 8.1 51.7 8.1 51.9 8 C 52.1 7.9 52.2 7.8 52.4 7.7 C 52.5 7.6 52.6 7.4 52.6 7.1 C 52.6 7 52.6 6.9 52.6 6.8 C 52.6 6.7 52.6 6.6 52.5 6.5 C 52.4 6.4 52.3 6.3 52.1 6.2 C 52 6.1 51.8 6.1 51.5 6.1 C 51.48 6.1 49.8 6.1 49.8 6.1 L 49.4 8.1 Z M 49.9 5.3 C 49.9 5.3 51.62 5.29 51.6 5.3 C 51.9 5.3 52.1 5.3 52.3 5.2 C 52.5 5.1 52.6 5 52.7 4.9 C 52.8 4.8 52.8 4.7 52.9 4.6 C 52.9 4.5 52.9 4.4 52.9 4.3 C 52.9 4.2 52.9 4.1 52.9 4.1 C 52.9 4 52.8 3.9 52.7 3.8 C 52.7 3.7 52.6 3.7 52.4 3.6 C 52.3 3.5 52.1 3.5 51.9 3.5 C 51.91 3.52 50.3 3.5 50.3 3.5 L 49.9 5.3 Z M 49.4 2.6 C 49.4 2.6 52.14 2.6 52.1 2.6 C 52.6 2.6 52.9 2.7 53.2 2.8 C 53.4 2.9 53.6 3 53.7 3.2 C 53.9 3.3 53.9 3.5 54 3.7 C 54 3.8 54 4 54 4.1 C 54 4.3 54 4.5 53.9 4.6 C 53.9 4.8 53.8 5 53.7 5.1 C 53.6 5.2 53.5 5.4 53.3 5.5 C 53.1 5.5 53 5.6 52.8 5.6 C 52.8 5.6 52.8 5.6 52.8 5.6 C 53.4 5.9 53.8 6.3 53.8 7 C 53.8 7.2 53.7 7.4 53.7 7.6 C 53.6 7.8 53.5 8.1 53.3 8.3 C 53.1 8.5 52.9 8.7 52.6 8.8 C 52.2 9 51.8 9 51.3 9 C 51.34 9.02 48 9 48 9 L 49.4 2.6 Z M 55 4.4 L 56 4.4 L 55.8 5.3 C 55.8 5.3 55.84 5.3 55.8 5.3 C 55.9 5.2 56 5 56.1 4.9 C 56.2 4.8 56.3 4.7 56.5 4.6 C 56.6 4.5 56.7 4.4 56.9 4.3 C 57 4.3 57.2 4.2 57.3 4.2 C 57.4 4.2 57.5 4.2 57.6 4.3 C 57.7 4.3 57.7 4.3 57.8 4.3 C 57.8 4.3 57.6 5.3 57.6 5.3 C 57.5 5.2 57.5 5.2 57.4 5.2 C 57.4 5.2 57.3 5.2 57.2 5.2 C 57 5.2 56.8 5.3 56.6 5.4 C 56.4 5.5 56.2 5.6 56.1 5.7 C 55.9 5.9 55.8 6.1 55.7 6.3 C 55.6 6.5 55.6 6.7 55.5 7 C 55.54 6.96 55.1 9 55.1 9 L 54.1 9 L 55 4.4 Z M 57.6 4.4 L 58.7 4.4 L 59.2 7.8 L 59.2 7.8 L 60.9 4.4 L 62 4.4 C 62 4.4 59.37 9.17 59.4 9.2 C 59.2 9.4 59.1 9.6 59 9.8 C 58.9 10 58.8 10.2 58.6 10.4 C 58.5 10.5 58.3 10.6 58.1 10.7 C 57.9 10.8 57.7 10.9 57.4 10.9 C 57.2 10.9 57 10.8 56.8 10.8 C 56.8 10.8 56.9 9.9 56.9 9.9 C 57 10 57.1 10 57.1 10 C 57.2 10 57.3 10 57.3 10 C 57.5 10 57.6 10 57.7 9.9 C 57.9 9.9 57.9 9.8 58 9.6 C 58.01 9.62 58.4 8.9 58.4 8.9 L 57.6 4.4 Z M 62.6 7.7 C 62.6 7.9 62.6 8 62.7 8 C 62.7 8.1 62.8 8.2 62.9 8.2 C 62.9 8.3 63 8.3 63.1 8.3 C 63.2 8.3 63.3 8.3 63.4 8.3 C 63.7 8.3 63.9 8.3 64.1 8.2 C 64.2 8.1 64.4 8 64.5 7.9 C 64.6 7.7 64.7 7.6 64.7 7.4 C 64.8 7.2 64.9 7 64.9 6.7 C 64.9 6.7 64.9 6.7 64.9 6.7 C 64.8 6.8 64.7 6.8 64.6 6.9 C 64.5 6.9 64.3 6.9 64.2 6.9 C 64.1 6.9 63.9 7 63.7 7 C 63.5 7 63.4 7 63.2 7.1 C 63 7.1 62.9 7.2 62.8 7.3 C 62.7 7.4 62.6 7.6 62.6 7.7 Z M 65.7 7.7 C 65.7 7.8 65.6 7.8 65.6 7.9 C 65.6 8 65.6 8.1 65.6 8.1 C 65.6 8.2 65.6 8.3 65.6 8.3 C 65.7 8.3 65.7 8.3 65.8 8.3 C 65.9 8.3 65.9 8.3 66 8.3 C 66.1 8.3 66.1 8.3 66.2 8.3 C 66.2 8.3 66 9 66 9 C 65.9 9.1 65.7 9.1 65.6 9.1 C 65.5 9.1 65.3 9.2 65.2 9.2 C 65 9.2 64.9 9.1 64.8 9 C 64.7 8.9 64.6 8.7 64.6 8.6 C 64.4 8.8 64.1 8.9 63.9 9 C 63.6 9.1 63.3 9.2 63 9.2 C 62.8 9.2 62.6 9.1 62.5 9.1 C 62.3 9 62.1 8.9 62 8.8 C 61.9 8.7 61.8 8.6 61.7 8.4 C 61.6 8.3 61.6 8.1 61.6 7.9 C 61.6 7.6 61.6 7.4 61.7 7.2 C 61.8 7 62 6.8 62.2 6.7 C 62.3 6.6 62.6 6.5 62.8 6.4 C 63 6.4 63.3 6.3 63.5 6.3 C 63.9 6.3 64.2 6.3 64.6 6.2 C 64.7 6.2 64.9 6.2 65 6 C 65 5.9 65.1 5.8 65.1 5.6 C 65.1 5.4 65 5.2 64.9 5.2 C 64.7 5.1 64.5 5.1 64.3 5.1 C 64 5.1 63.8 5.1 63.6 5.2 C 63.4 5.3 63.2 5.5 63.1 5.8 C 63.1 5.8 62.2 5.8 62.2 5.8 C 62.2 5.5 62.3 5.3 62.5 5.1 C 62.6 4.9 62.7 4.7 62.9 4.6 C 63.1 4.5 63.4 4.4 63.6 4.3 C 63.8 4.3 64.1 4.2 64.4 4.2 C 64.8 4.2 65.1 4.3 65.4 4.4 C 65.6 4.4 65.8 4.5 65.9 4.7 C 66 4.8 66.1 4.9 66.1 5 C 66.1 5.1 66.1 5.2 66.1 5.3 C 66.1 5.5 66.1 5.8 66 6 C 66 6 65.7 7.7 65.7 7.7 Z M 67.3 4.4 L 68.3 4.4 L 68.2 5 C 68.2 5 68.17 5.06 68.2 5.1 C 68.4 4.8 68.6 4.6 68.9 4.5 C 69.1 4.3 69.4 4.2 69.8 4.2 C 70.2 4.2 70.6 4.4 70.8 4.6 C 71 4.8 71.1 5.1 71.1 5.5 C 71.1 5.6 71.1 5.7 71.1 5.8 C 71.1 5.9 71.1 6 71.1 6.1 C 71.09 6.05 70.5 9 70.5 9 L 69.4 9 C 69.4 9 70.03 6.15 70 6.2 C 70.1 6.1 70.1 6 70.1 5.9 C 70.1 5.9 70.1 5.8 70.1 5.7 C 70.1 5.7 70.1 5.6 70.1 5.6 C 70.1 5.5 70.1 5.4 70 5.3 C 70 5.3 69.9 5.2 69.8 5.1 C 69.7 5.1 69.6 5.1 69.4 5.1 C 69.2 5.1 69 5.1 68.9 5.2 C 68.7 5.3 68.5 5.4 68.4 5.5 C 68.3 5.6 68.2 5.8 68.1 6 C 68 6.1 68 6.3 67.9 6.5 C 67.92 6.5 67.4 9 67.4 9 L 66.4 9 L 67.3 4.4 Z M 75.2 2.6 L 76.7 2.6 L 77.4 7.5 L 77.4 7.5 L 80.2 2.6 L 81.8 2.6 L 80.5 9 L 79.4 9 L 80.5 3.9 L 80.5 3.9 L 77.6 9 L 76.7 9 L 75.9 3.9 L 75.9 3.9 L 74.9 9 L 73.8 9 L 75.2 2.6 Z M 82.6 7.7 C 82.6 7.9 82.6 8 82.6 8 C 82.7 8.1 82.7 8.2 82.8 8.2 C 82.9 8.3 83 8.3 83.1 8.3 C 83.2 8.3 83.3 8.3 83.4 8.3 C 83.6 8.3 83.8 8.3 84 8.2 C 84.2 8.1 84.3 8 84.4 7.9 C 84.5 7.7 84.6 7.6 84.7 7.4 C 84.8 7.2 84.8 7 84.8 6.7 C 84.8 6.7 84.8 6.7 84.8 6.7 C 84.7 6.8 84.7 6.8 84.5 6.9 C 84.4 6.9 84.3 6.9 84.2 6.9 C 84 6.9 83.9 7 83.7 7 C 83.5 7 83.3 7 83.2 7.1 C 83 7.1 82.8 7.2 82.7 7.3 C 82.6 7.4 82.6 7.6 82.6 7.7 Z M 85.6 7.7 C 85.6 7.8 85.6 7.8 85.6 7.9 C 85.6 8 85.5 8.1 85.5 8.1 C 85.5 8.2 85.6 8.3 85.6 8.3 C 85.6 8.3 85.7 8.3 85.8 8.3 C 85.8 8.3 85.9 8.3 85.9 8.3 C 86 8.3 86.1 8.3 86.1 8.3 C 86.1 8.3 86 9 86 9 C 85.8 9.1 85.7 9.1 85.6 9.1 C 85.4 9.1 85.3 9.2 85.2 9.2 C 85 9.2 84.8 9.1 84.7 9 C 84.6 8.9 84.6 8.7 84.5 8.6 C 84.3 8.8 84.1 8.9 83.8 9 C 83.5 9.1 83.3 9.2 83 9.2 C 82.8 9.2 82.6 9.1 82.4 9.1 C 82.3 9 82.1 8.9 82 8.8 C 81.8 8.7 81.7 8.6 81.6 8.4 C 81.6 8.3 81.5 8.1 81.5 7.9 C 81.5 7.6 81.6 7.4 81.7 7.2 C 81.8 7 81.9 6.8 82.1 6.7 C 82.3 6.6 82.5 6.5 82.7 6.4 C 83 6.4 83.2 6.3 83.5 6.3 C 83.8 6.3 84.2 6.3 84.5 6.2 C 84.7 6.2 84.8 6.2 84.9 6 C 85 5.9 85 5.8 85 5.6 C 85 5.4 85 5.2 84.8 5.2 C 84.7 5.1 84.5 5.1 84.3 5.1 C 84 5.1 83.7 5.1 83.5 5.2 C 83.3 5.3 83.2 5.5 83.1 5.8 C 83.1 5.8 82.1 5.8 82.1 5.8 C 82.2 5.5 82.3 5.3 82.4 5.1 C 82.5 4.9 82.7 4.7 82.9 4.6 C 83.1 4.5 83.3 4.4 83.5 4.3 C 83.8 4.3 84 4.2 84.3 4.2 C 84.7 4.2 85.1 4.3 85.3 4.4 C 85.5 4.4 85.7 4.5 85.8 4.7 C 85.9 4.8 86 4.9 86 5 C 86.1 5.1 86.1 5.2 86.1 5.3 C 86.1 5.5 86 5.8 86 6 C 86 6 85.6 7.7 85.6 7.7 Z M 87.3 4.4 L 88.2 4.4 L 88.1 5 C 88.1 5 88.12 5.06 88.1 5.1 C 88.3 4.8 88.5 4.6 88.8 4.5 C 89.1 4.3 89.4 4.2 89.7 4.2 C 90.2 4.2 90.5 4.4 90.8 4.6 C 91 4.8 91.1 5.1 91.1 5.5 C 91.1 5.6 91.1 5.7 91.1 5.8 C 91.1 5.9 91.1 6 91 6.1 C 91.04 6.05 90.4 9 90.4 9 L 89.4 9 C 89.4 9 89.99 6.15 90 6.2 C 90 6.1 90 6 90 5.9 C 90.1 5.9 90.1 5.8 90.1 5.7 C 90.1 5.7 90.1 5.6 90.1 5.6 C 90.1 5.5 90 5.4 90 5.3 C 89.9 5.3 89.9 5.2 89.8 5.1 C 89.7 5.1 89.5 5.1 89.3 5.1 C 89.1 5.1 89 5.1 88.8 5.2 C 88.6 5.3 88.5 5.4 88.4 5.5 C 88.3 5.6 88.2 5.8 88.1 6 C 88 6.1 87.9 6.3 87.9 6.5 C 87.87 6.5 87.3 9 87.3 9 L 86.3 9 L 87.3 4.4 Z M 95 6.3 C 95 6.3 95 6.2 95 6.2 C 95 6.2 95 6.2 95 6.1 C 95 6.1 95 6 95 6 C 95 5.7 95 5.5 94.8 5.3 C 94.6 5.1 94.4 5.1 94.1 5.1 C 93.7 5.1 93.4 5.2 93.1 5.4 C 92.9 5.6 92.8 5.9 92.7 6.3 C 92.7 6.3 95 6.3 95 6.3 Z M 95.8 7.6 C 95.6 8.1 95.3 8.5 95 8.8 C 94.6 9 94.1 9.2 93.5 9.2 C 93.2 9.2 93 9.1 92.7 9 C 92.5 8.9 92.3 8.8 92.1 8.6 C 91.9 8.4 91.8 8.2 91.7 8 C 91.6 7.7 91.5 7.4 91.5 7.1 C 91.5 6.8 91.6 6.4 91.7 6.1 C 91.8 5.7 92 5.4 92.2 5.1 C 92.4 4.9 92.7 4.7 93 4.5 C 93.3 4.3 93.7 4.2 94.1 4.2 C 94.5 4.2 94.8 4.3 95.1 4.5 C 95.4 4.6 95.6 4.8 95.7 5 C 95.8 5.2 95.9 5.4 96 5.7 C 96 5.9 96.1 6.2 96.1 6.4 C 96.1 6.5 96.1 6.6 96.1 6.7 C 96 6.8 96 6.9 96 7 C 96 7 92.6 7 92.6 7 C 92.5 7 92.5 7 92.5 7 C 92.5 7.1 92.5 7.1 92.5 7.1 C 92.5 7.1 92.5 7.3 92.5 7.3 C 92.5 7.6 92.6 7.8 92.8 8 C 93 8.2 93.2 8.3 93.6 8.3 C 93.9 8.3 94.2 8.3 94.4 8.2 C 94.5 8 94.7 7.8 94.8 7.6 C 94.8 7.6 95.8 7.6 95.8 7.6 Z M 99.4 5.7 C 99.4 5.5 99.3 5.3 99.2 5.2 C 99 5.1 98.8 5.1 98.5 5.1 C 98.4 5.1 98.3 5.1 98.2 5.1 C 98.1 5.1 98 5.1 97.9 5.2 C 97.9 5.2 97.8 5.3 97.8 5.4 C 97.7 5.4 97.7 5.5 97.7 5.6 C 97.7 5.7 97.7 5.8 97.8 5.9 C 97.9 6 98 6 98.1 6.1 C 98.3 6.1 98.4 6.2 98.6 6.2 C 98.7 6.3 98.9 6.3 99.1 6.4 C 99.2 6.4 99.3 6.5 99.5 6.6 C 99.6 6.6 99.7 6.7 99.8 6.8 C 99.9 6.9 100 7 100.1 7.1 C 100.1 7.3 100.1 7.4 100.1 7.6 C 100.1 7.9 100.1 8.1 100 8.3 C 99.8 8.5 99.7 8.7 99.5 8.8 C 99.3 8.9 99.1 9 98.8 9.1 C 98.6 9.1 98.3 9.2 98.1 9.2 C 97.8 9.2 97.6 9.1 97.3 9.1 C 97.1 9 96.9 8.9 96.7 8.8 C 96.5 8.7 96.4 8.5 96.3 8.3 C 96.2 8.1 96.1 7.8 96.1 7.5 C 96.1 7.5 97.1 7.5 97.1 7.5 C 97.1 7.8 97.2 8 97.4 8.2 C 97.6 8.3 97.8 8.3 98.1 8.3 C 98.2 8.3 98.4 8.3 98.5 8.3 C 98.6 8.3 98.7 8.3 98.8 8.2 C 98.9 8.2 99 8.1 99 8 C 99.1 7.9 99.1 7.8 99.1 7.7 C 99.1 7.6 99.1 7.5 99 7.4 C 98.9 7.3 98.8 7.2 98.7 7.2 C 98.5 7.1 98.4 7.1 98.2 7 C 98 7 97.9 6.9 97.7 6.9 C 97.6 6.8 97.4 6.8 97.3 6.7 C 97.2 6.6 97.1 6.5 97 6.4 C 96.9 6.4 96.8 6.2 96.8 6.1 C 96.7 6 96.7 5.8 96.7 5.7 C 96.7 5.4 96.7 5.2 96.8 5 C 97 4.8 97.1 4.7 97.3 4.6 C 97.5 4.5 97.7 4.4 97.9 4.3 C 98.1 4.3 98.4 4.2 98.6 4.2 C 98.8 4.2 99.1 4.3 99.3 4.3 C 99.5 4.4 99.7 4.4 99.9 4.6 C 100 4.7 100.2 4.8 100.3 5 C 100.4 5.2 100.4 5.4 100.4 5.7 C 100.4 5.7 99.4 5.7 99.4 5.7 Z M 104.2 6.3 C 104.2 6.3 104.2 6.2 104.2 6.2 C 104.2 6.2 104.2 6.2 104.2 6.1 C 104.2 6.1 104.2 6 104.2 6 C 104.2 5.7 104.1 5.5 103.9 5.3 C 103.8 5.1 103.5 5.1 103.2 5.1 C 102.8 5.1 102.5 5.2 102.3 5.4 C 102.1 5.6 101.9 5.9 101.8 6.3 C 101.8 6.3 104.2 6.3 104.2 6.3 Z M 104.9 7.6 C 104.8 8.1 104.5 8.5 104.1 8.8 C 103.7 9 103.2 9.2 102.7 9.2 C 102.4 9.2 102.1 9.1 101.9 9 C 101.6 8.9 101.4 8.8 101.2 8.6 C 101 8.4 100.9 8.2 100.8 8 C 100.7 7.7 100.7 7.4 100.7 7.1 C 100.7 6.8 100.7 6.4 100.8 6.1 C 100.9 5.7 101.1 5.4 101.3 5.1 C 101.5 4.9 101.8 4.7 102.1 4.5 C 102.5 4.3 102.8 4.2 103.2 4.2 C 103.6 4.2 104 4.3 104.2 4.5 C 104.5 4.6 104.7 4.8 104.8 5 C 105 5.2 105.1 5.4 105.1 5.7 C 105.2 5.9 105.2 6.2 105.2 6.4 C 105.2 6.5 105.2 6.6 105.2 6.7 C 105.2 6.8 105.2 6.9 105.2 7 C 105.2 7 101.7 7 101.7 7 C 101.7 7 101.7 7 101.7 7 C 101.7 7.1 101.7 7.1 101.7 7.1 C 101.7 7.1 101.7 7.3 101.7 7.3 C 101.7 7.6 101.8 7.8 101.9 8 C 102.1 8.2 102.4 8.3 102.8 8.3 C 103.1 8.3 103.3 8.3 103.5 8.2 C 103.7 8 103.8 7.8 103.9 7.6 C 103.9 7.6 104.9 7.6 104.9 7.6 Z " stroke="none" fill="#fff"/>
  </g>
</svg>