<?xml version="1.0" standalone="no"?>
<!DOCTYPE svg PUBLIC "-//W3C//DTD SVG 1.1//EN" "http://www.w3.org/Graphics/SVG/1.1/DTD/svg11.dtd">
<svg xmlns="http://www.w3.org/2000/svg" version="1.1" width="461px" height="38.9px" viewBox="0 -6 461 38.9" style="top:-6px">
  <desc>GE COURSES Mula sa p 3</desc>
  <defs/>
  <g id="Polygon32512">
    <path d="M 14.2 14 C 12.4 15 10.5 15.5 8.3 15.5 C 3.9 15.5 0.8 12.3 0.8 7.5 C 0.8 2.5 3.9 -0.7 8.3 -0.7 C 10.5 -0.7 12.4 -0.2 13.9 1.2 C 13.9 1.2 12 3.3 12 3.3 C 11.1 2.3 9.7 1.8 8.3 1.8 C 5.4 1.8 3.5 4.2 3.5 7.3 C 3.5 10.6 5.4 13 8.3 13 C 9.6 13 10.8 12.8 11.6 12.2 C 11.64 12.22 11.6 8.6 11.6 8.6 L 8.7 8.6 L 8.7 6.1 L 14.2 6.1 C 14.2 6.1 14.16 13.99 14.2 14 Z M 17.7 -0.3 L 27.1 -0.3 L 27.1 2.2 L 20.3 2.2 L 20.3 6 L 26.8 6 L 26.8 8.4 L 20.3 8.4 L 20.3 12.6 L 27.5 12.6 L 27.5 15.1 L 17.7 15.1 L 17.7 -0.3 Z M 46.8 3.3 C 45.7 2.1 44.8 1.8 43.8 1.8 C 40.9 1.8 38.9 4.2 38.9 7.3 C 38.9 10.6 40.9 13 43.8 13 C 44.9 13 46 12.5 47 11.2 C 47 11.2 49.1 12.8 49.1 12.8 C 47.8 14.7 45.9 15.5 43.8 15.5 C 39.4 15.5 36.3 12.3 36.3 7.5 C 36.3 2.5 39.4 -0.7 43.8 -0.7 C 45.7 -0.7 47.3 0 48.7 1.7 C 48.7 1.7 46.8 3.3 46.8 3.3 Z M 58.1 -0.7 C 62.5 -0.8 65.6 2.4 65.6 7.4 C 65.6 12.2 62.5 15.4 58.1 15.5 C 53.7 15.5 50.6 12.3 50.6 7.5 C 50.6 2.5 53.7 -0.7 58.1 -0.7 Z M 58.1 13 C 61 13 63 10.6 63 7.3 C 63 4.2 61 1.8 58.1 1.8 C 55.2 1.8 53.2 4.2 53.2 7.3 C 53.2 10.6 55.2 13 58.1 13 Z M 79.9 9.5 C 79.9 13.2 77.5 15.5 74.2 15.5 C 71 15.5 68.5 13.2 68.5 9.5 C 68.54 9.45 68.5 -0.3 68.5 -0.3 L 71.1 -0.3 C 71.1 -0.3 71.06 9.36 71.1 9.4 C 71.1 10.9 71.8 12.9 74.2 12.9 C 76.7 12.9 77.4 10.9 77.4 9.4 C 77.42 9.36 77.4 -0.3 77.4 -0.3 L 79.9 -0.3 C 79.9 -0.3 79.94 9.45 79.9 9.5 Z M 83.6 -0.3 C 83.6 -0.3 88.55 -0.31 88.6 -0.3 C 91.3 -0.3 93.8 0.6 93.8 4.1 C 93.8 6.3 92.7 8 90.6 8.3 C 90.55 8.3 94.3 15.1 94.3 15.1 L 91.3 15.1 L 88 8.6 L 86.2 8.6 L 86.2 15.1 L 83.6 15.1 L 83.6 -0.3 Z M 88.1 6.2 C 89.5 6.2 91.2 6.1 91.2 4.1 C 91.2 2.3 89.6 2 88.3 2 C 88.33 2.04 86.2 2 86.2 2 L 86.2 6.2 C 86.2 6.2 88.11 6.23 88.1 6.2 Z M 103.8 3 C 103.2 2.2 102.3 1.8 101.3 1.8 C 100.1 1.8 99 2.3 99 3.8 C 99 6.9 105.7 5.1 105.7 10.6 C 105.7 13.9 103.3 15.5 100.5 15.5 C 98.7 15.5 97 14.9 95.9 13.4 C 95.9 13.4 97.8 11.4 97.8 11.4 C 98.4 12.4 99.4 13 100.6 13 C 101.7 13 103 12.3 103 10.9 C 103 7.5 96.3 9.5 96.3 4 C 96.3 0.8 98.9 -0.7 101.5 -0.7 C 103 -0.7 104.5 -0.2 105.6 0.9 C 105.6 0.9 103.8 3 103.8 3 Z M 108.9 -0.3 L 118.3 -0.3 L 118.3 2.2 L 111.4 2.2 L 111.4 6 L 117.9 6 L 117.9 8.4 L 111.4 8.4 L 111.4 12.6 L 118.6 12.6 L 118.6 15.1 L 108.9 15.1 L 108.9 -0.3 Z M 128.6 3 C 128.1 2.2 127.1 1.8 126.2 1.8 C 125 1.8 123.8 2.3 123.8 3.8 C 123.8 6.9 130.6 5.1 130.6 10.6 C 130.6 13.9 128.2 15.5 125.4 15.5 C 123.6 15.5 121.9 14.9 120.7 13.4 C 120.7 13.4 122.6 11.4 122.6 11.4 C 123.3 12.4 124.3 13 125.4 13 C 126.6 13 127.9 12.3 127.9 10.9 C 127.9 7.5 121.2 9.5 121.2 4 C 121.2 0.8 123.8 -0.7 126.4 -0.7 C 127.9 -0.7 129.4 -0.2 130.5 0.9 C 130.5 0.9 128.6 3 128.6 3 Z M 141.9 -1.2 L 141.9 20.6 L 139.9 20.6 L 139.9 -1.2 L 141.9 -1.2 Z M 151.9 -0.3 L 155.7 -0.3 L 159.5 10.5 L 163.3 -0.3 L 167.1 -0.3 L 167.1 15.1 L 164.7 15.1 L 164.7 2.3 L 164.7 2.3 L 160.4 15.1 L 158.6 15.1 L 154.3 2.3 L 154.3 2.3 L 154.3 15.1 L 151.9 15.1 L 151.9 -0.3 Z M 179.5 15.1 L 177.2 15.1 L 177.2 13.4 C 177.2 13.4 177.17 13.44 177.2 13.4 C 176.7 14.5 175.8 15.4 174.2 15.4 C 171.6 15.4 170.7 13.4 170.7 11.3 C 170.73 11.26 170.7 4.7 170.7 4.7 L 173.1 4.7 C 173.1 4.7 173.13 9.95 173.1 10 C 173.1 11.1 173.2 13 174.9 13 C 176.5 13 177.1 11.8 177.1 10.4 C 177.09 10.37 177.1 4.7 177.1 4.7 L 179.5 4.7 L 179.5 15.1 Z M 182.8 -1.4 L 185.2 -1.4 L 185.2 15.1 L 182.8 15.1 L 182.8 -1.4 Z M 194.6 13.7 C 194.6 13.7 194.53 13.68 194.5 13.7 C 193.8 14.9 192.7 15.4 191.4 15.4 C 189.7 15.4 187.9 14.3 187.9 12.2 C 187.9 8.8 191.6 8.6 194 8.6 C 193.99 8.6 194.6 8.6 194.6 8.6 C 194.6 8.6 194.59 8.32 194.6 8.3 C 194.6 7 193.7 6.4 192.4 6.4 C 191.4 6.4 190.5 6.8 189.8 7.4 C 189.8 7.4 188.6 6.1 188.6 6.1 C 189.6 4.9 191.1 4.4 192.6 4.4 C 196.7 4.4 196.7 7.6 196.7 9.1 C 196.75 9.1 196.7 15.1 196.7 15.1 L 194.6 15.1 L 194.6 13.7 Z M 194.4 10.4 C 194.4 10.4 193.95 10.43 193.9 10.4 C 192.6 10.4 190.3 10.5 190.3 12 C 190.3 13 191.2 13.4 192 13.4 C 193.7 13.4 194.4 12.5 194.4 11 C 194.45 11.02 194.4 10.4 194.4 10.4 Z M 211.6 7.6 C 211.1 6.9 210.5 6.5 209.7 6.5 C 209 6.5 208.3 6.8 208.3 7.6 C 208.3 9.5 213.5 7.9 213.5 12 C 213.5 14.5 211.3 15.4 209.3 15.4 C 207.8 15.4 206.6 15 205.6 13.8 C 205.6 13.8 207.2 12.1 207.2 12.1 C 207.8 12.9 208.4 13.4 209.5 13.4 C 210.2 13.4 211.1 13 211.1 12.2 C 211.1 10.1 205.9 11.8 205.9 7.8 C 205.9 5.4 207.8 4.4 209.7 4.4 C 211 4.4 212.4 4.8 213.2 6 C 213.2 6 211.6 7.6 211.6 7.6 Z M 221.9 13.7 C 221.9 13.7 221.84 13.68 221.8 13.7 C 221.2 14.9 220 15.4 218.8 15.4 C 217 15.4 215.3 14.3 215.3 12.2 C 215.3 8.8 218.9 8.6 221.3 8.6 C 221.3 8.6 221.9 8.6 221.9 8.6 C 221.9 8.6 221.9 8.32 221.9 8.3 C 221.9 7 221 6.4 219.7 6.4 C 218.7 6.4 217.8 6.8 217.1 7.4 C 217.1 7.4 215.9 6.1 215.9 6.1 C 216.9 4.9 218.4 4.4 220 4.4 C 224.1 4.4 224.1 7.6 224.1 9.1 C 224.06 9.1 224.1 15.1 224.1 15.1 L 221.9 15.1 L 221.9 13.7 Z M 221.8 10.4 C 221.8 10.4 221.26 10.43 221.3 10.4 C 219.9 10.4 217.7 10.5 217.7 12 C 217.7 13 218.6 13.4 219.3 13.4 C 221 13.4 221.8 12.5 221.8 11 C 221.76 11.02 221.8 10.4 221.8 10.4 Z M 233.7 4.7 L 236 4.7 L 236 6.2 C 236 6.2 236.07 6.23 236.1 6.2 C 236.8 5 238 4.4 239.4 4.4 C 242.3 4.4 244.1 6.8 244.1 9.9 C 244.1 13 242.2 15.4 239.5 15.4 C 237.7 15.4 236.7 14.5 236.2 13.8 C 236.21 13.79 236.1 13.8 236.1 13.8 L 236.1 20.1 L 233.7 20.1 L 233.7 4.7 Z M 238.9 6.7 C 237.1 6.7 236.1 8.3 236.1 9.9 C 236.1 11.5 237.1 13 238.9 13 C 240.6 13 241.7 11.5 241.7 9.9 C 241.7 8.3 240.6 6.7 238.9 6.7 Z M 248.5 11.9 C 249.4 11.9 250.1 12.6 250.1 13.6 C 250.1 14.5 249.4 15.3 248.5 15.3 C 247.7 15.3 246.9 14.5 246.9 13.6 C 246.9 12.7 247.7 11.9 248.5 11.9 Z M 256.5 5.9 C 256.5 5.9 257.15 5.9 257.2 5.9 C 258.5 5.9 259.9 5.7 259.9 3.8 C 259.9 2.6 259.1 1.8 257.9 1.8 C 256.9 1.8 256.1 2.4 255.8 3.5 C 255.8 3.5 253.2 2.7 253.2 2.7 C 253.9 0.4 255.7 -0.6 257.8 -0.6 C 260.2 -0.6 262.3 0.8 262.3 3.5 C 262.3 5.2 261.4 6.6 259.9 7 C 259.9 7 259.9 7.1 259.9 7.1 C 261.7 7.4 262.7 8.9 262.7 10.8 C 262.7 13.8 260.4 15.4 257.9 15.4 C 255.6 15.4 253.6 14.3 253 11.8 C 253 11.8 255.6 11 255.6 11 C 255.9 12.3 256.6 13 257.9 13 C 259.2 13 260.3 12 260.3 10.6 C 260.3 8.6 258.6 8.3 257.1 8.3 C 257.11 8.25 256.5 8.3 256.5 8.3 L 256.5 5.9 Z " stroke="none" fill="#fff"/>
  </g>
</svg>