<?xml version="1.0" standalone="no"?>
<!DOCTYPE svg PUBLIC "-//W3C//DTD SVG 1.1//EN" "http://www.w3.org/Graphics/SVG/1.1/DTD/svg11.dtd">
<svg xmlns="http://www.w3.org/2000/svg" version="1.1" width="296.1px" height="32.9px" viewBox="0 -6 296.1 32.9" style="top:-6px">
  <desc>SEA ICON Mula sa p 19</desc>
  <defs/>
  <g id="Polygon36465">
    <path d="M 8.5 3 C 8 2.2 7 1.8 6 1.8 C 4.9 1.8 3.7 2.3 3.7 3.8 C 3.7 6.9 10.4 5.1 10.4 10.6 C 10.4 13.9 8 15.5 5.3 15.5 C 3.5 15.5 1.8 14.9 0.6 13.4 C 0.6 13.4 2.5 11.4 2.5 11.4 C 3.1 12.4 4.2 13 5.3 13 C 6.5 13 7.8 12.3 7.8 10.9 C 7.8 7.5 1.1 9.5 1.1 4 C 1.1 0.8 3.7 -0.7 6.3 -0.7 C 7.8 -0.7 9.3 -0.2 10.4 0.9 C 10.4 0.9 8.5 3 8.5 3 Z M 13.7 -0.3 L 23 -0.3 L 23 2.2 L 16.2 2.2 L 16.2 6 L 22.7 6 L 22.7 8.4 L 16.2 8.4 L 16.2 12.6 L 23.4 12.6 L 23.4 15.1 L 13.7 15.1 L 13.7 -0.3 Z M 31 -0.3 L 33.2 -0.3 L 39.3 15.1 L 36.4 15.1 L 35.1 11.6 L 29 11.6 L 27.7 15.1 L 24.9 15.1 L 31 -0.3 Z M 34.2 9.2 L 32.1 3 L 29.8 9.2 L 34.2 9.2 Z M 47.9 -0.3 L 50.5 -0.3 L 50.5 15.1 L 47.9 15.1 L 47.9 -0.3 Z M 63.9 3.3 C 62.8 2.1 61.9 1.8 60.9 1.8 C 58 1.8 56 4.2 56 7.3 C 56 10.6 58 13 60.9 13 C 62 13 63.1 12.5 64.1 11.2 C 64.1 11.2 66.2 12.8 66.2 12.8 C 64.9 14.7 63 15.5 60.9 15.5 C 56.5 15.5 53.4 12.3 53.4 7.5 C 53.4 2.5 56.5 -0.7 60.9 -0.7 C 62.8 -0.7 64.4 0 65.8 1.7 C 65.8 1.7 63.9 3.3 63.9 3.3 Z M 75.2 -0.7 C 79.6 -0.8 82.7 2.4 82.7 7.4 C 82.7 12.2 79.6 15.4 75.2 15.5 C 70.8 15.5 67.7 12.3 67.7 7.5 C 67.7 2.5 70.8 -0.7 75.2 -0.7 Z M 75.2 13 C 78.1 13 80.1 10.6 80.1 7.3 C 80.1 4.2 78.1 1.8 75.2 1.8 C 72.3 1.8 70.3 4.2 70.3 7.3 C 70.3 10.6 72.3 13 75.2 13 Z M 85.7 -0.3 L 89 -0.3 L 95.9 11.2 L 95.9 11.2 L 95.9 -0.3 L 98.5 -0.3 L 98.5 15.1 L 95.3 15.1 L 88.3 3.3 L 88.2 3.3 L 88.2 15.1 L 85.7 15.1 L 85.7 -0.3 Z M 110.4 -1.2 L 110.4 20.6 L 108.3 20.6 L 108.3 -1.2 L 110.4 -1.2 Z M 120.3 -0.3 L 124.2 -0.3 L 127.9 10.5 L 131.8 -0.3 L 135.6 -0.3 L 135.6 15.1 L 133.2 15.1 L 133.2 2.3 L 133.1 2.3 L 128.8 15.1 L 127.1 15.1 L 122.8 2.3 L 122.7 2.3 L 122.7 15.1 L 120.3 15.1 L 120.3 -0.3 Z M 147.9 15.1 L 145.6 15.1 L 145.6 13.4 C 145.6 13.4 145.6 13.44 145.6 13.4 C 145.2 14.5 144.3 15.4 142.7 15.4 C 140.1 15.4 139.2 13.4 139.2 11.3 C 139.16 11.26 139.2 4.7 139.2 4.7 L 141.6 4.7 C 141.6 4.7 141.56 9.95 141.6 10 C 141.6 11.1 141.6 13 143.3 13 C 144.9 13 145.5 11.8 145.5 10.4 C 145.52 10.37 145.5 4.7 145.5 4.7 L 147.9 4.7 L 147.9 15.1 Z M 151.3 -1.4 L 153.7 -1.4 L 153.7 15.1 L 151.3 15.1 L 151.3 -1.4 Z M 163 13.7 C 163 13.7 162.97 13.68 163 13.7 C 162.3 14.9 161.2 15.4 159.9 15.4 C 158.1 15.4 156.4 14.3 156.4 12.2 C 156.4 8.8 160 8.6 162.4 8.6 C 162.43 8.6 163 8.6 163 8.6 C 163 8.6 163.03 8.32 163 8.3 C 163 7 162.1 6.4 160.8 6.4 C 159.8 6.4 158.9 6.8 158.3 7.4 C 158.3 7.4 157 6.1 157 6.1 C 158.1 4.9 159.6 4.4 161.1 4.4 C 165.2 4.4 165.2 7.6 165.2 9.1 C 165.19 9.1 165.2 15.1 165.2 15.1 L 163 15.1 L 163 13.7 Z M 162.9 10.4 C 162.9 10.4 162.39 10.43 162.4 10.4 C 161.1 10.4 158.8 10.5 158.8 12 C 158.8 13 159.7 13.4 160.5 13.4 C 162.1 13.4 162.9 12.5 162.9 11 C 162.89 11.02 162.9 10.4 162.9 10.4 Z M 180 7.6 C 179.5 6.9 178.9 6.5 178.1 6.5 C 177.5 6.5 176.7 6.8 176.7 7.6 C 176.7 9.5 181.9 7.9 181.9 12 C 181.9 14.5 179.7 15.4 177.7 15.4 C 176.3 15.4 175 15 174 13.8 C 174 13.8 175.6 12.1 175.6 12.1 C 176.2 12.9 176.9 13.4 177.9 13.4 C 178.6 13.4 179.5 13 179.5 12.2 C 179.5 10.1 174.3 11.8 174.3 7.8 C 174.3 5.4 176.2 4.4 178.2 4.4 C 179.4 4.4 180.8 4.8 181.6 6 C 181.6 6 180 7.6 180 7.6 Z M 190.3 13.7 C 190.3 13.7 190.28 13.68 190.3 13.7 C 189.6 14.9 188.5 15.4 187.2 15.4 C 185.4 15.4 183.7 14.3 183.7 12.2 C 183.7 8.8 187.3 8.6 189.7 8.6 C 189.74 8.6 190.3 8.6 190.3 8.6 C 190.3 8.6 190.34 8.32 190.3 8.3 C 190.3 7 189.4 6.4 188.1 6.4 C 187.1 6.4 186.2 6.8 185.6 7.4 C 185.6 7.4 184.3 6.1 184.3 6.1 C 185.4 4.9 186.9 4.4 188.4 4.4 C 192.5 4.4 192.5 7.6 192.5 9.1 C 192.5 9.1 192.5 15.1 192.5 15.1 L 190.3 15.1 L 190.3 13.7 Z M 190.2 10.4 C 190.2 10.4 189.7 10.43 189.7 10.4 C 188.4 10.4 186.1 10.5 186.1 12 C 186.1 13 187 13.4 187.8 13.4 C 189.4 13.4 190.2 12.5 190.2 11 C 190.2 11.02 190.2 10.4 190.2 10.4 Z M 202.2 4.7 L 204.5 4.7 L 204.5 6.2 C 204.5 6.2 204.5 6.23 204.5 6.2 C 205.2 5 206.5 4.4 207.8 4.4 C 210.8 4.4 212.5 6.8 212.5 9.9 C 212.5 13 210.6 15.4 207.9 15.4 C 206.1 15.4 205.1 14.5 204.6 13.8 C 204.64 13.79 204.6 13.8 204.6 13.8 L 204.6 20.1 L 202.2 20.1 L 202.2 4.7 Z M 207.3 6.7 C 205.6 6.7 204.5 8.3 204.5 9.9 C 204.5 11.5 205.6 13 207.3 13 C 209.1 13 210.1 11.5 210.1 9.9 C 210.1 8.3 209.1 6.7 207.3 6.7 Z M 217 11.9 C 217.8 11.9 218.6 12.6 218.6 13.6 C 218.6 14.5 217.9 15.3 217 15.3 C 216.1 15.3 215.4 14.5 215.4 13.6 C 215.4 12.7 216.1 11.9 217 11.9 Z M 225.9 2.7 L 223.2 5.4 L 221.8 3.6 L 226.1 -0.3 L 228.3 -0.3 L 228.3 15.1 L 225.9 15.1 L 225.9 2.7 Z M 236.1 15.1 L 239.5 9.4 C 239.5 9.4 239.42 9.36 239.4 9.4 C 239.1 9.5 238.6 9.6 238.1 9.6 C 235.6 9.6 233.8 7.4 233.8 4.7 C 233.8 1.5 236 -0.6 238.9 -0.6 C 241.8 -0.6 243.9 1.4 243.9 4.7 C 243.9 6.3 243.4 7.6 242.6 8.9 C 242.6 8.91 239 15.1 239 15.1 L 236.1 15.1 Z M 238.8 1.9 C 237.4 1.9 236.2 3.2 236.2 4.7 C 236.2 6.3 237.4 7.5 238.8 7.5 C 240.2 7.5 241.4 6.3 241.4 4.7 C 241.4 3.2 240.2 1.9 238.8 1.9 Z " stroke="none" fill="#fff"/>
  </g>
</svg>