<?xml version="1.0" standalone="no"?>
<!DOCTYPE svg PUBLIC "-//W3C//DTD SVG 1.1//EN" "http://www.w3.org/Graphics/SVG/1.1/DTD/svg11.dtd">
<svg xmlns="http://www.w3.org/2000/svg" version="1.1" width="102.4px" height="18px" viewBox="0 -3 102.4 18" style="top:-3px">
  <desc>Kuha ni Isabella Bernal</desc>
  <defs/>
  <g id="Polygon28529">
    <path d="M 0.5 1.7 L 1.5 1.7 L 1.5 10.7 L 0.5 10.7 L 0.5 1.7 Z M 6 2.3 L 7.1 2.3 L 6.5 5.3 L 6.6 5.3 L 9.8 2.3 L 11.3 2.3 L 8.3 5 L 10.3 8.8 L 9 8.8 L 7.4 5.7 L 6.2 6.7 L 5.8 8.8 L 4.7 8.8 L 6 2.3 Z M 14.9 8.8 L 13.9 8.8 L 14.1 8.1 C 14.1 8.1 14.05 8.08 14 8.1 C 13.9 8.3 13.6 8.5 13.4 8.7 C 13.1 8.8 12.8 8.9 12.4 8.9 C 12 8.9 11.6 8.8 11.4 8.6 C 11.2 8.3 11.1 8 11.1 7.7 C 11.1 7.6 11.1 7.5 11.1 7.4 C 11.1 7.3 11.1 7.2 11.1 7.1 C 11.13 7.09 11.8 4.1 11.8 4.1 L 12.8 4.1 C 12.8 4.1 12.19 6.99 12.2 7 C 12.2 7.1 12.2 7.1 12.1 7.2 C 12.1 7.3 12.1 7.4 12.1 7.4 C 12.1 7.5 12.1 7.5 12.1 7.6 C 12.1 7.7 12.1 7.7 12.2 7.8 C 12.2 7.9 12.3 8 12.4 8 C 12.5 8.1 12.6 8.1 12.8 8.1 C 13 8.1 13.2 8 13.4 8 C 13.5 7.9 13.7 7.8 13.8 7.6 C 13.9 7.5 14 7.3 14.1 7.2 C 14.2 7 14.3 6.8 14.3 6.6 C 14.3 6.64 14.8 4.1 14.8 4.1 L 15.8 4.1 L 14.9 8.8 Z M 17.4 2.3 L 18.4 2.3 L 17.9 4.8 C 17.9 4.8 17.95 4.78 18 4.8 C 18.1 4.5 18.4 4.4 18.6 4.2 C 18.9 4.1 19.2 4 19.5 4 C 20 4 20.3 4.1 20.5 4.3 C 20.7 4.6 20.8 4.9 20.8 5.2 C 20.8 5.3 20.8 5.4 20.8 5.5 C 20.8 5.6 20.8 5.7 20.8 5.8 C 20.8 5.8 20.2 8.8 20.2 8.8 L 19.2 8.8 C 19.2 8.8 19.75 5.9 19.7 5.9 C 19.8 5.8 19.8 5.8 19.8 5.7 C 19.8 5.6 19.8 5.5 19.8 5.5 C 19.8 5.4 19.8 5.4 19.8 5.3 C 19.8 5.2 19.8 5.2 19.7 5.1 C 19.7 5 19.6 4.9 19.5 4.9 C 19.4 4.8 19.3 4.8 19.1 4.8 C 18.9 4.8 18.7 4.8 18.6 4.9 C 18.4 5 18.3 5.1 18.1 5.3 C 18 5.4 17.9 5.5 17.8 5.7 C 17.7 5.9 17.7 6.1 17.6 6.3 C 17.63 6.25 17.1 8.8 17.1 8.8 L 16.1 8.8 L 17.4 2.3 Z M 22.4 7.5 C 22.4 7.6 22.4 7.7 22.5 7.8 C 22.5 7.9 22.6 7.9 22.7 8 C 22.7 8 22.8 8 22.9 8.1 C 23 8.1 23.1 8.1 23.2 8.1 C 23.5 8.1 23.7 8 23.8 8 C 24 7.9 24.2 7.8 24.3 7.6 C 24.4 7.5 24.5 7.3 24.5 7.1 C 24.6 6.9 24.6 6.7 24.7 6.5 C 24.7 6.5 24.7 6.5 24.7 6.5 C 24.6 6.5 24.5 6.6 24.4 6.6 C 24.3 6.7 24.1 6.7 24 6.7 C 23.9 6.7 23.7 6.7 23.5 6.7 C 23.3 6.7 23.2 6.8 23 6.8 C 22.8 6.9 22.7 6.9 22.6 7.1 C 22.5 7.2 22.4 7.3 22.4 7.5 Z M 25.5 7.4 C 25.5 7.5 25.4 7.6 25.4 7.7 C 25.4 7.7 25.4 7.8 25.4 7.9 C 25.4 8 25.4 8 25.4 8 C 25.5 8.1 25.5 8.1 25.6 8.1 C 25.7 8.1 25.7 8.1 25.8 8.1 C 25.8 8.1 25.9 8 26 8 C 26 8 25.8 8.8 25.8 8.8 C 25.7 8.8 25.5 8.8 25.4 8.9 C 25.3 8.9 25.1 8.9 25 8.9 C 24.8 8.9 24.7 8.8 24.6 8.7 C 24.5 8.6 24.4 8.5 24.4 8.3 C 24.2 8.5 23.9 8.7 23.7 8.8 C 23.4 8.9 23.1 8.9 22.8 8.9 C 22.6 8.9 22.4 8.9 22.3 8.8 C 22.1 8.8 21.9 8.7 21.8 8.6 C 21.7 8.5 21.6 8.4 21.5 8.2 C 21.4 8 21.4 7.9 21.4 7.7 C 21.4 7.4 21.4 7.1 21.5 6.9 C 21.6 6.7 21.8 6.6 22 6.5 C 22.1 6.3 22.3 6.2 22.6 6.2 C 22.8 6.1 23.1 6.1 23.3 6.1 C 23.7 6 24 6 24.3 6 C 24.5 6 24.7 5.9 24.8 5.8 C 24.8 5.7 24.9 5.5 24.9 5.4 C 24.9 5.1 24.8 5 24.7 4.9 C 24.5 4.8 24.3 4.8 24.1 4.8 C 23.8 4.8 23.6 4.9 23.4 5 C 23.2 5.1 23 5.2 22.9 5.5 C 22.9 5.5 22 5.5 22 5.5 C 22 5.2 22.1 5 22.2 4.8 C 22.4 4.6 22.5 4.5 22.7 4.3 C 22.9 4.2 23.1 4.1 23.4 4.1 C 23.6 4 23.9 4 24.2 4 C 24.6 4 24.9 4 25.2 4.1 C 25.4 4.2 25.6 4.3 25.7 4.4 C 25.8 4.5 25.9 4.6 25.9 4.8 C 25.9 4.9 25.9 5 25.9 5.1 C 25.9 5.3 25.9 5.5 25.8 5.8 C 25.8 5.8 25.5 7.4 25.5 7.4 Z M 30 4.1 L 31 4.1 L 30.8 4.8 C 30.8 4.8 30.82 4.81 30.8 4.8 C 31 4.6 31.2 4.4 31.5 4.2 C 31.8 4.1 32.1 4 32.4 4 C 32.9 4 33.2 4.1 33.5 4.3 C 33.7 4.6 33.8 4.9 33.8 5.2 C 33.8 5.3 33.8 5.4 33.8 5.5 C 33.8 5.6 33.8 5.7 33.7 5.8 C 33.74 5.8 33.1 8.8 33.1 8.8 L 32.1 8.8 C 32.1 8.8 32.69 5.9 32.7 5.9 C 32.7 5.8 32.7 5.8 32.7 5.7 C 32.8 5.6 32.8 5.5 32.8 5.5 C 32.8 5.4 32.8 5.4 32.8 5.3 C 32.8 5.2 32.7 5.2 32.7 5.1 C 32.6 5 32.6 4.9 32.5 4.9 C 32.4 4.8 32.2 4.8 32 4.8 C 31.8 4.8 31.7 4.8 31.5 4.9 C 31.3 5 31.2 5.1 31.1 5.3 C 31 5.4 30.9 5.5 30.8 5.7 C 30.7 5.9 30.6 6.1 30.6 6.3 C 30.57 6.25 30.1 8.8 30.1 8.8 L 29 8.8 L 30 4.1 Z M 35.6 2.3 L 36.6 2.3 L 36.4 3.3 L 35.4 3.3 L 35.6 2.3 Z M 35.2 4.1 L 36.3 4.1 L 35.3 8.8 L 34.3 8.8 L 35.2 4.1 Z M 40.6 2.3 L 41.7 2.3 L 40.4 8.8 L 39.3 8.8 L 40.6 2.3 Z M 45 5.5 C 45 5.2 44.9 5.1 44.8 5 C 44.6 4.9 44.4 4.8 44.1 4.8 C 44 4.8 43.9 4.8 43.8 4.8 C 43.7 4.9 43.6 4.9 43.5 4.9 C 43.5 5 43.4 5 43.4 5.1 C 43.3 5.2 43.3 5.3 43.3 5.4 C 43.3 5.5 43.3 5.6 43.4 5.7 C 43.5 5.7 43.6 5.8 43.7 5.8 C 43.9 5.9 44 5.9 44.2 6 C 44.3 6 44.5 6.1 44.7 6.1 C 44.8 6.2 44.9 6.2 45.1 6.3 C 45.2 6.4 45.3 6.5 45.4 6.6 C 45.5 6.6 45.6 6.8 45.6 6.9 C 45.7 7 45.7 7.2 45.7 7.4 C 45.7 7.6 45.7 7.9 45.6 8.1 C 45.4 8.3 45.3 8.4 45.1 8.5 C 44.9 8.7 44.7 8.8 44.4 8.8 C 44.2 8.9 43.9 8.9 43.7 8.9 C 43.4 8.9 43.2 8.9 42.9 8.8 C 42.7 8.8 42.5 8.7 42.3 8.6 C 42.1 8.4 42 8.3 41.9 8.1 C 41.8 7.9 41.7 7.6 41.7 7.3 C 41.7 7.3 42.7 7.3 42.7 7.3 C 42.7 7.6 42.8 7.8 43 7.9 C 43.2 8 43.4 8.1 43.7 8.1 C 43.8 8.1 43.9 8.1 44.1 8.1 C 44.2 8 44.3 8 44.4 8 C 44.5 7.9 44.6 7.8 44.6 7.8 C 44.7 7.7 44.7 7.6 44.7 7.4 C 44.7 7.3 44.7 7.2 44.6 7.1 C 44.5 7.1 44.4 7 44.2 6.9 C 44.1 6.9 44 6.8 43.8 6.8 C 43.6 6.7 43.5 6.7 43.3 6.6 C 43.2 6.6 43 6.5 42.9 6.4 C 42.8 6.4 42.7 6.3 42.6 6.2 C 42.5 6.1 42.4 6 42.3 5.9 C 42.3 5.7 42.3 5.6 42.3 5.4 C 42.3 5.2 42.3 4.9 42.4 4.8 C 42.5 4.6 42.7 4.4 42.9 4.3 C 43 4.2 43.3 4.1 43.5 4.1 C 43.7 4 43.9 4 44.2 4 C 44.4 4 44.7 4 44.9 4.1 C 45.1 4.1 45.3 4.2 45.5 4.3 C 45.6 4.4 45.8 4.6 45.9 4.8 C 46 5 46 5.2 46 5.5 C 46 5.5 45 5.5 45 5.5 Z M 47.4 7.5 C 47.4 7.6 47.4 7.7 47.4 7.8 C 47.5 7.9 47.6 7.9 47.6 8 C 47.7 8 47.8 8 47.9 8.1 C 48 8.1 48.1 8.1 48.2 8.1 C 48.4 8.1 48.6 8 48.8 8 C 49 7.9 49.1 7.8 49.2 7.6 C 49.4 7.5 49.4 7.3 49.5 7.1 C 49.6 6.9 49.6 6.7 49.7 6.5 C 49.7 6.5 49.6 6.5 49.6 6.5 C 49.6 6.5 49.5 6.6 49.3 6.6 C 49.2 6.7 49.1 6.7 49 6.7 C 48.9 6.7 48.7 6.7 48.5 6.7 C 48.3 6.7 48.1 6.8 48 6.8 C 47.8 6.9 47.7 6.9 47.5 7.1 C 47.4 7.2 47.4 7.3 47.4 7.5 Z M 50.5 7.4 C 50.4 7.5 50.4 7.6 50.4 7.7 C 50.4 7.7 50.4 7.8 50.4 7.9 C 50.4 8 50.4 8 50.4 8 C 50.4 8.1 50.5 8.1 50.6 8.1 C 50.6 8.1 50.7 8.1 50.8 8.1 C 50.8 8.1 50.9 8 50.9 8 C 50.9 8 50.8 8.8 50.8 8.8 C 50.6 8.8 50.5 8.8 50.4 8.9 C 50.2 8.9 50.1 8.9 50 8.9 C 49.8 8.9 49.7 8.8 49.5 8.7 C 49.4 8.6 49.4 8.5 49.4 8.3 C 49.2 8.5 48.9 8.7 48.6 8.8 C 48.4 8.9 48.1 8.9 47.8 8.9 C 47.6 8.9 47.4 8.9 47.2 8.8 C 47.1 8.8 46.9 8.7 46.8 8.6 C 46.6 8.5 46.5 8.4 46.5 8.2 C 46.4 8 46.3 7.9 46.3 7.7 C 46.3 7.4 46.4 7.1 46.5 6.9 C 46.6 6.7 46.8 6.6 46.9 6.5 C 47.1 6.3 47.3 6.2 47.6 6.2 C 47.8 6.1 48 6.1 48.3 6.1 C 48.6 6 49 6 49.3 6 C 49.5 6 49.6 5.9 49.7 5.8 C 49.8 5.7 49.9 5.5 49.9 5.4 C 49.9 5.1 49.8 5 49.6 4.9 C 49.5 4.8 49.3 4.8 49.1 4.8 C 48.8 4.8 48.5 4.9 48.3 5 C 48.1 5.1 48 5.2 47.9 5.5 C 47.9 5.5 46.9 5.5 46.9 5.5 C 47 5.2 47.1 5 47.2 4.8 C 47.4 4.6 47.5 4.5 47.7 4.3 C 47.9 4.2 48.1 4.1 48.4 4.1 C 48.6 4 48.9 4 49.1 4 C 49.6 4 49.9 4 50.1 4.1 C 50.4 4.2 50.5 4.3 50.6 4.4 C 50.8 4.5 50.8 4.6 50.8 4.8 C 50.9 4.9 50.9 5 50.9 5.1 C 50.9 5.3 50.9 5.5 50.8 5.8 C 50.8 5.8 50.5 7.4 50.5 7.4 Z M 52.7 2.3 L 53.8 2.3 L 53.3 4.7 C 53.3 4.7 53.31 4.67 53.3 4.7 C 53.7 4.2 54.1 4 54.7 4 C 55 4 55.2 4 55.5 4.1 C 55.7 4.2 55.9 4.4 56 4.5 C 56.2 4.7 56.3 4.9 56.4 5.1 C 56.4 5.4 56.5 5.6 56.5 5.9 C 56.5 6.3 56.4 6.6 56.3 7 C 56.2 7.4 56.1 7.7 55.9 8 C 55.7 8.2 55.4 8.5 55.1 8.6 C 54.8 8.8 54.4 8.9 54 8.9 C 53.7 8.9 53.4 8.8 53.1 8.7 C 52.9 8.6 52.7 8.3 52.5 8 C 52.5 7.99 52.5 8 52.5 8 L 52.3 8.8 L 51.4 8.8 L 52.7 2.3 Z M 54.4 4.8 C 54.1 4.8 53.9 4.9 53.7 5 C 53.5 5.1 53.3 5.3 53.2 5.5 C 53.1 5.7 53 5.9 52.9 6.2 C 52.9 6.4 52.8 6.7 52.8 6.9 C 52.8 7.3 52.9 7.6 53.1 7.8 C 53.3 8 53.5 8.1 53.9 8.1 C 54.2 8.1 54.4 8 54.6 7.9 C 54.8 7.8 54.9 7.6 55.1 7.4 C 55.2 7.2 55.3 7 55.4 6.7 C 55.4 6.5 55.4 6.2 55.4 6 C 55.4 5.6 55.4 5.3 55.2 5.1 C 55 4.9 54.7 4.8 54.4 4.8 Z M 60.7 6 C 60.7 6 60.7 6 60.7 6 C 60.7 5.9 60.7 5.9 60.7 5.9 C 60.7 5.9 60.7 5.8 60.7 5.8 C 60.7 5.5 60.6 5.2 60.5 5.1 C 60.3 4.9 60.1 4.8 59.8 4.8 C 59.4 4.8 59.1 4.9 58.8 5.2 C 58.6 5.4 58.4 5.7 58.3 6 C 58.3 6 60.7 6 60.7 6 Z M 61.5 7.3 C 61.3 7.9 61 8.3 60.7 8.5 C 60.3 8.8 59.8 8.9 59.2 8.9 C 58.9 8.9 58.7 8.9 58.4 8.8 C 58.2 8.7 58 8.5 57.8 8.4 C 57.6 8.2 57.4 8 57.3 7.7 C 57.2 7.5 57.2 7.2 57.2 6.9 C 57.2 6.5 57.3 6.2 57.4 5.8 C 57.5 5.5 57.6 5.2 57.9 4.9 C 58.1 4.6 58.4 4.4 58.7 4.2 C 59 4.1 59.4 4 59.8 4 C 60.2 4 60.5 4.1 60.8 4.2 C 61 4.3 61.2 4.5 61.4 4.7 C 61.5 4.9 61.6 5.2 61.7 5.4 C 61.7 5.7 61.8 5.9 61.8 6.1 C 61.8 6.3 61.8 6.4 61.7 6.5 C 61.7 6.5 61.7 6.6 61.7 6.7 C 61.7 6.7 58.2 6.7 58.2 6.7 C 58.2 6.7 58.2 6.8 58.2 6.8 C 58.2 6.8 58.2 6.8 58.2 6.9 C 58.2 6.9 58.2 7 58.2 7 C 58.2 7.3 58.3 7.6 58.5 7.8 C 58.6 8 58.9 8.1 59.3 8.1 C 59.6 8.1 59.8 8 60 7.9 C 60.2 7.8 60.4 7.6 60.4 7.3 C 60.4 7.3 61.5 7.3 61.5 7.3 Z M 63.4 2.3 L 64.4 2.3 L 63.1 8.8 L 62.1 8.8 L 63.4 2.3 Z M 65.7 2.3 L 66.7 2.3 L 65.4 8.8 L 64.3 8.8 L 65.7 2.3 Z M 67.7 7.5 C 67.7 7.6 67.7 7.7 67.7 7.8 C 67.8 7.9 67.9 7.9 67.9 8 C 68 8 68.1 8 68.2 8.1 C 68.3 8.1 68.4 8.1 68.5 8.1 C 68.7 8.1 68.9 8 69.1 8 C 69.3 7.9 69.4 7.8 69.5 7.6 C 69.6 7.5 69.7 7.3 69.8 7.1 C 69.9 6.9 69.9 6.7 69.9 6.5 C 69.9 6.5 69.9 6.5 69.9 6.5 C 69.9 6.5 69.8 6.6 69.6 6.6 C 69.5 6.7 69.4 6.7 69.3 6.7 C 69.1 6.7 69 6.7 68.8 6.7 C 68.6 6.7 68.4 6.8 68.3 6.8 C 68.1 6.9 68 6.9 67.8 7.1 C 67.7 7.2 67.7 7.3 67.7 7.5 Z M 70.7 7.4 C 70.7 7.5 70.7 7.6 70.7 7.7 C 70.7 7.7 70.7 7.8 70.7 7.9 C 70.7 8 70.7 8 70.7 8 C 70.7 8.1 70.8 8.1 70.9 8.1 C 70.9 8.1 71 8.1 71.1 8.1 C 71.1 8.1 71.2 8 71.2 8 C 71.2 8 71.1 8.8 71.1 8.8 C 70.9 8.8 70.8 8.8 70.7 8.9 C 70.5 8.9 70.4 8.9 70.3 8.9 C 70.1 8.9 70 8.8 69.8 8.7 C 69.7 8.6 69.7 8.5 69.7 8.3 C 69.4 8.5 69.2 8.7 68.9 8.8 C 68.7 8.9 68.4 8.9 68.1 8.9 C 67.9 8.9 67.7 8.9 67.5 8.8 C 67.4 8.8 67.2 8.7 67.1 8.6 C 66.9 8.5 66.8 8.4 66.8 8.2 C 66.7 8 66.6 7.9 66.6 7.7 C 66.6 7.4 66.7 7.1 66.8 6.9 C 66.9 6.7 67 6.6 67.2 6.5 C 67.4 6.3 67.6 6.2 67.9 6.2 C 68.1 6.1 68.3 6.1 68.6 6.1 C 68.9 6 69.3 6 69.6 6 C 69.8 6 69.9 5.9 70 5.8 C 70.1 5.7 70.2 5.5 70.2 5.4 C 70.2 5.1 70.1 5 69.9 4.9 C 69.8 4.8 69.6 4.8 69.4 4.8 C 69.1 4.8 68.8 4.9 68.6 5 C 68.4 5.1 68.3 5.2 68.2 5.5 C 68.2 5.5 67.2 5.5 67.2 5.5 C 67.3 5.2 67.4 5 67.5 4.8 C 67.6 4.6 67.8 4.5 68 4.3 C 68.2 4.2 68.4 4.1 68.7 4.1 C 68.9 4 69.2 4 69.4 4 C 69.9 4 70.2 4 70.4 4.1 C 70.7 4.2 70.8 4.3 70.9 4.4 C 71.1 4.5 71.1 4.6 71.1 4.8 C 71.2 4.9 71.2 5 71.2 5.1 C 71.2 5.3 71.2 5.5 71.1 5.8 C 71.1 5.8 70.7 7.4 70.7 7.4 Z M 75.7 7.9 C 75.7 7.9 77.34 7.86 77.3 7.9 C 77.4 7.9 77.6 7.9 77.7 7.8 C 77.9 7.8 78.1 7.8 78.3 7.8 C 78.5 7.7 78.6 7.6 78.8 7.5 C 78.9 7.3 79 7.1 79 6.9 C 79 6.8 79 6.7 79 6.6 C 79 6.5 78.9 6.3 78.9 6.2 C 78.8 6.1 78.7 6 78.5 6 C 78.4 5.9 78.1 5.8 77.8 5.8 C 77.85 5.85 76.1 5.8 76.1 5.8 L 75.7 7.9 Z M 76.3 5 C 76.3 5 77.99 5.04 78 5 C 78.3 5 78.5 5 78.7 4.9 C 78.8 4.9 79 4.8 79 4.7 C 79.1 4.6 79.2 4.5 79.2 4.3 C 79.3 4.2 79.3 4.1 79.3 4 C 79.3 4 79.3 3.9 79.2 3.8 C 79.2 3.7 79.2 3.6 79.1 3.6 C 79.1 3.5 79 3.4 78.8 3.3 C 78.7 3.3 78.5 3.3 78.3 3.3 C 78.28 3.27 76.7 3.3 76.7 3.3 L 76.3 5 Z M 75.7 2.3 C 75.7 2.3 78.52 2.35 78.5 2.3 C 78.9 2.3 79.3 2.4 79.5 2.5 C 79.8 2.6 80 2.8 80.1 2.9 C 80.2 3.1 80.3 3.2 80.3 3.4 C 80.4 3.6 80.4 3.7 80.4 3.9 C 80.4 4 80.4 4.2 80.3 4.4 C 80.3 4.6 80.2 4.7 80.1 4.9 C 80 5 79.8 5.1 79.7 5.2 C 79.5 5.3 79.3 5.4 79.2 5.4 C 79.2 5.4 79.2 5.4 79.2 5.4 C 79.8 5.6 80.1 6.1 80.1 6.7 C 80.1 6.9 80.1 7.1 80 7.3 C 80 7.6 79.8 7.8 79.7 8 C 79.5 8.2 79.2 8.4 78.9 8.6 C 78.6 8.7 78.2 8.8 77.7 8.8 C 77.71 8.77 74.4 8.8 74.4 8.8 L 75.7 2.3 Z M 84.4 6 C 84.5 6 84.5 6 84.5 6 C 84.5 5.9 84.5 5.9 84.5 5.9 C 84.5 5.9 84.5 5.8 84.5 5.8 C 84.5 5.5 84.4 5.2 84.2 5.1 C 84 4.9 83.8 4.8 83.5 4.8 C 83.1 4.8 82.8 4.9 82.6 5.2 C 82.3 5.4 82.2 5.7 82.1 6 C 82.1 6 84.4 6 84.4 6 Z M 85.2 7.3 C 85 7.9 84.8 8.3 84.4 8.5 C 84 8.8 83.5 8.9 83 8.9 C 82.7 8.9 82.4 8.9 82.1 8.8 C 81.9 8.7 81.7 8.5 81.5 8.4 C 81.3 8.2 81.2 8 81.1 7.7 C 81 7.5 80.9 7.2 80.9 6.9 C 80.9 6.5 81 6.2 81.1 5.8 C 81.2 5.5 81.4 5.2 81.6 4.9 C 81.8 4.6 82.1 4.4 82.4 4.2 C 82.7 4.1 83.1 4 83.5 4 C 83.9 4 84.3 4.1 84.5 4.2 C 84.8 4.3 85 4.5 85.1 4.7 C 85.3 4.9 85.4 5.2 85.4 5.4 C 85.5 5.7 85.5 5.9 85.5 6.1 C 85.5 6.3 85.5 6.4 85.5 6.5 C 85.5 6.5 85.4 6.6 85.4 6.7 C 85.4 6.7 82 6.7 82 6.7 C 82 6.7 82 6.8 81.9 6.8 C 81.9 6.8 81.9 6.8 81.9 6.9 C 81.9 6.9 81.9 7 81.9 7 C 81.9 7.3 82 7.6 82.2 7.8 C 82.4 8 82.7 8.1 83.1 8.1 C 83.3 8.1 83.6 8 83.8 7.9 C 84 7.8 84.1 7.6 84.2 7.3 C 84.2 7.3 85.2 7.3 85.2 7.3 Z M 86.8 4.1 L 87.7 4.1 L 87.6 5 C 87.6 5 87.58 5.05 87.6 5 C 87.7 4.9 87.7 4.8 87.8 4.7 C 87.9 4.5 88.1 4.4 88.2 4.3 C 88.3 4.2 88.5 4.2 88.6 4.1 C 88.7 4 88.9 4 89.1 4 C 89.1 4 89.2 4 89.3 4 C 89.4 4 89.5 4 89.6 4 C 89.6 4 89.3 5 89.3 5 C 89.3 5 89.2 5 89.2 5 C 89.1 5 89 5 89 5 C 88.7 5 88.5 5 88.3 5.1 C 88.1 5.2 87.9 5.3 87.8 5.5 C 87.7 5.7 87.6 5.8 87.5 6 C 87.4 6.3 87.3 6.5 87.3 6.7 C 87.27 6.71 86.8 8.8 86.8 8.8 L 85.8 8.8 L 86.8 4.1 Z M 90.2 4.1 L 91.2 4.1 L 91 4.8 C 91 4.8 91.03 4.81 91 4.8 C 91.2 4.6 91.5 4.4 91.7 4.2 C 92 4.1 92.3 4 92.6 4 C 93.1 4 93.4 4.1 93.7 4.3 C 93.9 4.6 94 4.9 94 5.2 C 94 5.3 94 5.4 94 5.5 C 94 5.6 94 5.7 94 5.8 C 93.95 5.8 93.3 8.8 93.3 8.8 L 92.3 8.8 C 92.3 8.8 92.9 5.9 92.9 5.9 C 92.9 5.8 92.9 5.8 92.9 5.7 C 93 5.6 93 5.5 93 5.5 C 93 5.4 93 5.4 93 5.3 C 93 5.2 92.9 5.2 92.9 5.1 C 92.9 5 92.8 4.9 92.7 4.9 C 92.6 4.8 92.4 4.8 92.3 4.8 C 92.1 4.8 91.9 4.8 91.7 4.9 C 91.6 5 91.4 5.1 91.3 5.3 C 91.2 5.4 91.1 5.5 91 5.7 C 90.9 5.9 90.8 6.1 90.8 6.3 C 90.78 6.25 90.3 8.8 90.3 8.8 L 89.2 8.8 L 90.2 4.1 Z M 95.5 7.5 C 95.5 7.6 95.6 7.7 95.6 7.8 C 95.7 7.9 95.7 7.9 95.8 8 C 95.9 8 96 8 96.1 8.1 C 96.2 8.1 96.3 8.1 96.4 8.1 C 96.6 8.1 96.8 8 97 8 C 97.2 7.9 97.3 7.8 97.4 7.6 C 97.5 7.5 97.6 7.3 97.7 7.1 C 97.7 6.9 97.8 6.7 97.8 6.5 C 97.8 6.5 97.8 6.5 97.8 6.5 C 97.7 6.5 97.6 6.6 97.5 6.6 C 97.4 6.7 97.3 6.7 97.2 6.7 C 97 6.7 96.9 6.7 96.7 6.7 C 96.5 6.7 96.3 6.8 96.1 6.8 C 96 6.9 95.8 6.9 95.7 7.1 C 95.6 7.2 95.5 7.3 95.5 7.5 Z M 98.6 7.4 C 98.6 7.5 98.6 7.6 98.6 7.7 C 98.6 7.7 98.5 7.8 98.5 7.9 C 98.5 8 98.6 8 98.6 8 C 98.6 8.1 98.7 8.1 98.8 8.1 C 98.8 8.1 98.9 8.1 98.9 8.1 C 99 8.1 99.1 8 99.1 8 C 99.1 8 99 8.8 99 8.8 C 98.8 8.8 98.7 8.8 98.6 8.9 C 98.4 8.9 98.3 8.9 98.2 8.9 C 98 8.9 97.8 8.8 97.7 8.7 C 97.6 8.6 97.5 8.5 97.5 8.3 C 97.3 8.5 97.1 8.7 96.8 8.8 C 96.5 8.9 96.3 8.9 96 8.9 C 95.8 8.9 95.6 8.9 95.4 8.8 C 95.2 8.8 95.1 8.7 95 8.6 C 94.8 8.5 94.7 8.4 94.6 8.2 C 94.6 8 94.5 7.9 94.5 7.7 C 94.5 7.4 94.6 7.1 94.7 6.9 C 94.8 6.7 94.9 6.6 95.1 6.5 C 95.3 6.3 95.5 6.2 95.7 6.2 C 96 6.1 96.2 6.1 96.5 6.1 C 96.8 6 97.2 6 97.5 6 C 97.7 6 97.8 5.9 97.9 5.8 C 98 5.7 98 5.5 98 5.4 C 98 5.1 98 5 97.8 4.9 C 97.6 4.8 97.5 4.8 97.3 4.8 C 97 4.8 96.7 4.9 96.5 5 C 96.3 5.1 96.2 5.2 96.1 5.5 C 96.1 5.5 95.1 5.5 95.1 5.5 C 95.2 5.2 95.3 5 95.4 4.8 C 95.5 4.6 95.7 4.5 95.9 4.3 C 96.1 4.2 96.3 4.1 96.5 4.1 C 96.8 4 97 4 97.3 4 C 97.7 4 98.1 4 98.3 4.1 C 98.5 4.2 98.7 4.3 98.8 4.4 C 98.9 4.5 99 4.6 99 4.8 C 99.1 4.9 99.1 5 99.1 5.1 C 99.1 5.3 99 5.5 99 5.8 C 99 5.8 98.6 7.4 98.6 7.4 Z M 100.9 2.3 L 101.9 2.3 L 100.6 8.8 L 99.6 8.8 L 100.9 2.3 Z " stroke="none" fill="#fff"/>
  </g>
</svg>