<?xml version="1.0" standalone="no"?>
<!DOCTYPE svg PUBLIC "-//W3C//DTD SVG 1.1//EN" "http://www.w3.org/Graphics/SVG/1.1/DTD/svg11.dtd">
<svg xmlns="http://www.w3.org/2000/svg" version="1.1" width="122px" height="14.9px" viewBox="0 -1 122 14.9" style="top:-1px">
  <desc>Anne Paula Dela Rosa</desc>
  <defs/>
  <g id="Polygon31934">
    <path d="M 34.5 2.2 L 30.6 8.6 L 31.6 8.6 L 32.7 6.7 L 35.4 6.7 L 35.7 8.6 L 36.6 8.6 L 35.4 2.2 L 34.5 2.2 Z M 33.1 6 L 34.8 2.9 L 34.8 2.9 L 35.3 6 L 33.1 6 Z M 38.1 4 L 37.2 8.6 L 37.9 8.6 C 37.9 8.6 38.45 6.04 38.4 6 C 38.5 5.9 38.6 5.7 38.6 5.5 C 38.7 5.3 38.8 5.2 39 5.1 C 39.1 4.9 39.3 4.8 39.5 4.7 C 39.7 4.6 39.9 4.5 40.1 4.5 C 40.3 4.5 40.5 4.6 40.7 4.7 C 40.8 4.8 40.9 5 40.9 5.2 C 40.9 5.2 40.9 5.3 40.9 5.3 C 40.9 5.4 40.9 5.5 40.9 5.5 C 40.9 5.6 40.9 5.7 40.8 5.7 C 40.8 5.8 40.8 5.8 40.8 5.9 C 40.82 5.89 40.2 8.6 40.2 8.6 L 41 8.6 C 41 8.6 41.55 5.96 41.6 6 C 41.6 5.8 41.6 5.6 41.7 5.4 C 41.7 5.3 41.7 5.2 41.7 5 C 41.7 4.6 41.6 4.3 41.4 4.1 C 41.2 3.9 40.8 3.9 40.4 3.9 C 40.1 3.9 39.8 3.9 39.5 4.1 C 39.2 4.2 38.9 4.4 38.7 4.7 C 38.74 4.66 38.7 4.7 38.7 4.7 L 38.9 4 L 38.1 4 Z M 43.2 4 L 42.2 8.6 L 43 8.6 C 43 8.6 43.54 6.04 43.5 6 C 43.6 5.9 43.7 5.7 43.7 5.5 C 43.8 5.3 43.9 5.2 44.1 5.1 C 44.2 4.9 44.4 4.8 44.6 4.7 C 44.8 4.6 45 4.5 45.2 4.5 C 45.4 4.5 45.6 4.6 45.8 4.7 C 45.9 4.8 46 5 46 5.2 C 46 5.2 46 5.3 46 5.3 C 46 5.4 46 5.5 46 5.5 C 46 5.6 45.9 5.7 45.9 5.7 C 45.9 5.8 45.9 5.8 45.9 5.9 C 45.91 5.89 45.3 8.6 45.3 8.6 L 46.1 8.6 C 46.1 8.6 46.65 5.96 46.6 6 C 46.7 5.8 46.7 5.6 46.7 5.4 C 46.8 5.3 46.8 5.2 46.8 5 C 46.8 4.6 46.7 4.3 46.5 4.1 C 46.3 3.9 45.9 3.9 45.5 3.9 C 45.2 3.9 44.9 3.9 44.6 4.1 C 44.3 4.2 44 4.4 43.8 4.7 C 43.83 4.66 43.8 4.7 43.8 4.7 L 44 4 L 43.2 4 Z M 48.2 6.9 C 48.2 6.8 48.2 6.6 48.3 6.5 C 48.3 6.5 51.8 6.5 51.8 6.5 C 51.8 6.4 51.8 6.4 51.8 6.3 C 51.8 6.1 51.8 6 51.8 5.9 C 51.8 5.3 51.7 4.8 51.4 4.4 C 51 4 50.5 3.9 49.9 3.9 C 49.5 3.9 49.2 3.9 48.9 4.1 C 48.7 4.2 48.4 4.4 48.2 4.7 C 48 4.9 47.8 5.3 47.7 5.6 C 47.5 6 47.5 6.4 47.5 6.8 C 47.5 7.1 47.5 7.3 47.6 7.5 C 47.6 7.7 47.7 7.9 47.9 8.1 C 48 8.3 48.2 8.4 48.5 8.5 C 48.7 8.7 49.1 8.7 49.4 8.7 C 49.7 8.7 49.9 8.7 50.2 8.6 C 50.4 8.5 50.6 8.4 50.8 8.3 C 51 8.2 51.1 8 51.3 7.8 C 51.4 7.6 51.5 7.4 51.5 7.2 C 51.5 7.2 50.8 7.2 50.8 7.2 C 50.7 7.4 50.5 7.7 50.3 7.8 C 50.1 8 49.8 8 49.4 8 C 49.3 8 49.1 8 49 8 C 48.8 7.9 48.7 7.8 48.6 7.8 C 48.5 7.7 48.4 7.5 48.3 7.4 C 48.3 7.3 48.2 7.1 48.2 6.9 C 48.2 6.9 48.2 6.9 48.2 6.9 Z M 51.1 5.8 C 51.1 5.8 48.4 5.8 48.4 5.8 C 48.4 5.7 48.5 5.5 48.6 5.3 C 48.7 5.2 48.8 5 48.9 4.9 C 49 4.8 49.2 4.7 49.4 4.6 C 49.6 4.6 49.8 4.5 50 4.5 C 50.2 4.5 50.4 4.6 50.5 4.6 C 50.7 4.7 50.8 4.8 50.9 4.9 C 50.9 5.1 51 5.2 51 5.4 C 51.1 5.5 51.1 5.7 51.1 5.8 Z M 56.5 5.3 L 57 2.9 C 57 2.9 58.82 2.91 58.8 2.9 C 59 2.9 59.1 2.9 59.2 3 C 59.4 3 59.5 3.1 59.6 3.1 C 59.7 3.2 59.7 3.3 59.8 3.5 C 59.8 3.6 59.9 3.8 59.9 4 C 59.9 4.3 59.8 4.7 59.5 4.9 C 59.3 5.1 58.9 5.3 58.5 5.3 C 58.46 5.26 56.5 5.3 56.5 5.3 Z M 56.3 2.2 L 55 8.6 L 55.8 8.6 L 56.4 6 C 56.4 6 58.28 5.98 58.3 6 C 58.7 6 59.1 5.9 59.5 5.8 C 59.8 5.6 60 5.5 60.2 5.3 C 60.4 5.1 60.5 4.8 60.6 4.6 C 60.7 4.4 60.7 4.2 60.7 4 C 60.7 3.4 60.6 2.9 60.2 2.6 C 59.9 2.3 59.4 2.2 58.8 2.2 C 58.82 2.19 56.3 2.2 56.3 2.2 Z M 61.3 5.4 C 61.3 5.4 62.1 5.4 62.1 5.4 C 62.1 5.2 62.1 5.1 62.2 5 C 62.3 4.9 62.4 4.8 62.5 4.7 C 62.6 4.7 62.7 4.6 62.9 4.6 C 63 4.5 63.2 4.5 63.3 4.5 C 63.4 4.5 63.5 4.5 63.6 4.6 C 63.7 4.6 63.8 4.6 63.9 4.6 C 64 4.7 64.1 4.8 64.2 4.8 C 64.2 4.9 64.2 5 64.2 5.1 C 64.2 5.3 64.2 5.4 64.2 5.5 C 64.1 5.6 64.1 5.7 64 5.7 C 63.9 5.8 63.7 5.8 63.6 5.8 C 63.5 5.8 63.3 5.9 63.1 5.9 C 62.8 5.9 62.5 5.9 62.3 6 C 62 6 61.7 6.1 61.5 6.2 C 61.3 6.3 61.1 6.4 61 6.6 C 60.8 6.8 60.7 7.1 60.7 7.4 C 60.7 7.6 60.8 7.8 60.8 8 C 60.9 8.2 61 8.3 61.1 8.4 C 61.3 8.5 61.4 8.6 61.6 8.6 C 61.8 8.7 61.9 8.7 62.1 8.7 C 62.5 8.7 62.9 8.7 63.1 8.5 C 63.3 8.4 63.5 8.3 63.7 8 C 63.7 8 63.7 8.1 63.7 8.1 C 63.7 8.3 63.7 8.4 63.8 8.5 C 64 8.7 64.1 8.7 64.3 8.7 C 64.4 8.7 64.5 8.7 64.6 8.7 C 64.7 8.7 64.7 8.6 64.8 8.6 C 64.8 8.6 64.9 8 64.9 8 C 64.9 8.1 64.8 8.1 64.8 8.1 C 64.7 8.1 64.7 8.1 64.7 8.1 C 64.6 8.1 64.5 8.1 64.5 8 C 64.5 8 64.4 7.9 64.4 7.8 C 64.4 7.7 64.5 7.6 64.5 7.5 C 64.5 7.4 64.5 7.3 64.6 7.2 C 64.6 7.2 64.9 5.9 64.9 5.9 C 64.9 5.8 64.9 5.6 65 5.5 C 65 5.3 65 5.2 65 5 C 65 4.8 65 4.6 64.9 4.5 C 64.8 4.3 64.7 4.2 64.5 4.1 C 64.3 4 64.2 3.9 64 3.9 C 63.8 3.9 63.5 3.9 63.3 3.9 C 63.1 3.9 62.8 3.9 62.6 3.9 C 62.4 4 62.2 4.1 62 4.2 C 61.8 4.3 61.7 4.5 61.5 4.7 C 61.4 4.9 61.3 5.1 61.3 5.4 Z M 61.5 7.4 C 61.5 7.2 61.5 7 61.6 6.9 C 61.7 6.8 61.9 6.7 62 6.7 C 62.2 6.6 62.3 6.6 62.5 6.5 C 62.7 6.5 62.9 6.5 63.1 6.5 C 63.3 6.5 63.4 6.4 63.6 6.4 C 63.8 6.4 63.9 6.3 64 6.2 C 64 6.2 64 6.2 64 6.2 C 64 6.5 63.9 6.7 63.9 6.9 C 63.8 7.1 63.8 7.3 63.6 7.4 C 63.4 7.8 62.9 8 62.3 8 C 62.1 8 61.9 8 61.7 7.9 C 61.6 7.8 61.5 7.6 61.5 7.4 Z M 69.3 8.6 L 70.3 4 L 69.5 4 C 69.5 4 68.95 6.53 68.9 6.5 C 68.9 6.7 68.8 6.9 68.7 7.1 C 68.6 7.3 68.5 7.4 68.4 7.6 C 68.2 7.7 68.1 7.8 67.9 7.9 C 67.7 8 67.5 8 67.3 8 C 67.1 8 66.9 8 66.7 7.9 C 66.6 7.8 66.5 7.6 66.5 7.4 C 66.5 7.4 66.5 7.3 66.5 7.2 C 66.5 7.2 66.5 7.1 66.5 7 C 66.5 7 66.5 6.9 66.5 6.8 C 66.6 6.8 66.6 6.7 66.6 6.7 C 66.58 6.68 67.2 4 67.2 4 L 66.4 4 C 66.4 4 65.84 6.61 65.8 6.6 C 65.8 6.8 65.8 7 65.7 7.1 C 65.7 7.3 65.7 7.4 65.7 7.5 C 65.7 7.9 65.8 8.2 66 8.4 C 66.2 8.6 66.6 8.7 67 8.7 C 67.3 8.7 67.6 8.6 67.9 8.5 C 68.2 8.4 68.5 8.2 68.7 7.9 C 68.66 7.91 68.7 7.9 68.7 7.9 L 68.5 8.6 L 69.3 8.6 Z M 72 2.2 L 70.6 8.6 L 71.4 8.6 L 72.7 2.2 L 72 2.2 Z M 73.2 5.4 C 73.2 5.4 74 5.4 74 5.4 C 74 5.2 74.1 5.1 74.2 5 C 74.2 4.9 74.3 4.8 74.4 4.7 C 74.6 4.7 74.7 4.6 74.8 4.6 C 75 4.5 75.1 4.5 75.2 4.5 C 75.4 4.5 75.5 4.5 75.6 4.6 C 75.7 4.6 75.8 4.6 75.9 4.6 C 76 4.7 76 4.8 76.1 4.8 C 76.2 4.9 76.2 5 76.2 5.1 C 76.2 5.3 76.2 5.4 76.1 5.5 C 76.1 5.6 76 5.7 75.9 5.7 C 75.8 5.8 75.7 5.8 75.5 5.8 C 75.4 5.8 75.2 5.9 75 5.9 C 74.8 5.9 74.5 5.9 74.2 6 C 73.9 6 73.7 6.1 73.5 6.2 C 73.2 6.3 73 6.4 72.9 6.6 C 72.7 6.8 72.7 7.1 72.7 7.4 C 72.7 7.6 72.7 7.8 72.8 8 C 72.9 8.2 73 8.3 73.1 8.4 C 73.2 8.5 73.4 8.6 73.5 8.6 C 73.7 8.7 73.9 8.7 74.1 8.7 C 74.5 8.7 74.8 8.7 75 8.5 C 75.3 8.4 75.5 8.3 75.6 8 C 75.6 8 75.7 8.1 75.7 8.1 C 75.6 8.3 75.7 8.4 75.8 8.5 C 75.9 8.7 76.1 8.7 76.3 8.7 C 76.3 8.7 76.4 8.7 76.5 8.7 C 76.6 8.7 76.7 8.6 76.7 8.6 C 76.7 8.6 76.9 8 76.9 8 C 76.8 8.1 76.8 8.1 76.7 8.1 C 76.7 8.1 76.6 8.1 76.6 8.1 C 76.5 8.1 76.5 8.1 76.4 8 C 76.4 8 76.4 7.9 76.4 7.8 C 76.4 7.7 76.4 7.6 76.4 7.5 C 76.5 7.4 76.5 7.3 76.5 7.2 C 76.5 7.2 76.8 5.9 76.8 5.9 C 76.8 5.8 76.9 5.6 76.9 5.5 C 76.9 5.3 77 5.2 77 5 C 77 4.8 76.9 4.6 76.8 4.5 C 76.7 4.3 76.6 4.2 76.4 4.1 C 76.3 4 76.1 3.9 75.9 3.9 C 75.7 3.9 75.5 3.9 75.2 3.9 C 75 3.9 74.8 3.9 74.5 3.9 C 74.3 4 74.1 4.1 73.9 4.2 C 73.7 4.3 73.6 4.5 73.5 4.7 C 73.3 4.9 73.3 5.1 73.2 5.4 Z M 73.4 7.4 C 73.4 7.2 73.5 7 73.6 6.9 C 73.7 6.8 73.8 6.7 74 6.7 C 74.1 6.6 74.3 6.6 74.5 6.5 C 74.7 6.5 74.8 6.5 75 6.5 C 75.2 6.5 75.4 6.4 75.6 6.4 C 75.7 6.4 75.9 6.3 76 6.2 C 76 6.2 76 6.2 76 6.2 C 75.9 6.5 75.9 6.7 75.8 6.9 C 75.8 7.1 75.7 7.3 75.6 7.4 C 75.3 7.8 74.9 8 74.3 8 C 74.1 8 73.9 8 73.7 7.9 C 73.5 7.8 73.4 7.6 73.4 7.4 Z M 81.2 7.9 L 82.2 2.9 C 82.2 2.9 83.58 2.91 83.6 2.9 C 83.9 2.9 84.2 3 84.5 3.1 C 84.7 3.2 84.9 3.3 85 3.5 C 85.1 3.6 85.2 3.8 85.3 4 C 85.3 4.3 85.4 4.5 85.4 4.7 C 85.4 5.1 85.3 5.5 85.2 5.9 C 85.1 6.3 84.9 6.6 84.7 6.9 C 84.5 7.2 84.2 7.4 83.8 7.6 C 83.5 7.8 83.1 7.9 82.6 7.9 C 82.65 7.89 81.2 7.9 81.2 7.9 Z M 81.5 2.2 L 80.2 8.6 C 80.2 8.6 82.64 8.61 82.6 8.6 C 83.2 8.6 83.7 8.5 84.1 8.3 C 84.5 8.1 84.9 7.9 85.2 7.5 C 85.5 7.2 85.8 6.8 86 6.3 C 86.1 5.8 86.2 5.2 86.2 4.6 C 86.2 3.9 86 3.3 85.6 2.8 C 85.2 2.4 84.6 2.2 83.8 2.2 C 83.78 2.19 81.5 2.2 81.5 2.2 Z M 87.4 6.9 C 87.4 6.8 87.4 6.6 87.4 6.5 C 87.4 6.5 90.9 6.5 90.9 6.5 C 90.9 6.4 90.9 6.4 91 6.3 C 91 6.1 91 6 91 5.9 C 91 5.3 90.8 4.8 90.5 4.4 C 90.2 4 89.7 3.9 89 3.9 C 88.7 3.9 88.4 3.9 88.1 4.1 C 87.8 4.2 87.6 4.4 87.3 4.7 C 87.1 4.9 86.9 5.3 86.8 5.6 C 86.7 6 86.6 6.4 86.6 6.8 C 86.6 7.1 86.7 7.3 86.7 7.5 C 86.8 7.7 86.9 7.9 87 8.1 C 87.2 8.3 87.4 8.4 87.6 8.5 C 87.9 8.7 88.2 8.7 88.6 8.7 C 88.8 8.7 89.1 8.7 89.3 8.6 C 89.5 8.5 89.8 8.4 89.9 8.3 C 90.1 8.2 90.3 8 90.4 7.8 C 90.5 7.6 90.6 7.4 90.7 7.2 C 90.7 7.2 89.9 7.2 89.9 7.2 C 89.8 7.4 89.7 7.7 89.4 7.8 C 89.2 8 88.9 8 88.6 8 C 88.4 8 88.3 8 88.1 8 C 88 7.9 87.9 7.8 87.8 7.8 C 87.6 7.7 87.6 7.5 87.5 7.4 C 87.4 7.3 87.4 7.1 87.4 6.9 C 87.4 6.9 87.4 6.9 87.4 6.9 Z M 90.2 5.8 C 90.2 5.8 87.5 5.8 87.5 5.8 C 87.6 5.7 87.7 5.5 87.7 5.3 C 87.8 5.2 87.9 5 88.1 4.9 C 88.2 4.8 88.4 4.7 88.5 4.6 C 88.7 4.6 88.9 4.5 89.1 4.5 C 89.3 4.5 89.5 4.6 89.7 4.6 C 89.8 4.7 89.9 4.8 90 4.9 C 90.1 5.1 90.2 5.2 90.2 5.4 C 90.2 5.5 90.2 5.7 90.2 5.8 Z M 92.8 2.2 L 91.4 8.6 L 92.2 8.6 L 93.5 2.2 L 92.8 2.2 Z M 94 5.4 C 94 5.4 94.8 5.4 94.8 5.4 C 94.8 5.2 94.9 5.1 94.9 5 C 95 4.9 95.1 4.8 95.2 4.7 C 95.3 4.7 95.5 4.6 95.6 4.6 C 95.8 4.5 95.9 4.5 96 4.5 C 96.1 4.5 96.2 4.5 96.4 4.6 C 96.5 4.6 96.6 4.6 96.7 4.6 C 96.8 4.7 96.8 4.8 96.9 4.8 C 96.9 4.9 97 5 97 5.1 C 97 5.3 97 5.4 96.9 5.5 C 96.9 5.6 96.8 5.7 96.7 5.7 C 96.6 5.8 96.5 5.8 96.3 5.8 C 96.2 5.8 96 5.9 95.8 5.9 C 95.5 5.9 95.3 5.9 95 6 C 94.7 6 94.5 6.1 94.2 6.2 C 94 6.3 93.8 6.4 93.7 6.6 C 93.5 6.8 93.5 7.1 93.5 7.4 C 93.5 7.6 93.5 7.8 93.6 8 C 93.7 8.2 93.8 8.3 93.9 8.4 C 94 8.5 94.2 8.6 94.3 8.6 C 94.5 8.7 94.7 8.7 94.9 8.7 C 95.3 8.7 95.6 8.7 95.8 8.5 C 96.1 8.4 96.3 8.3 96.4 8 C 96.4 8 96.5 8.1 96.5 8.1 C 96.4 8.3 96.5 8.4 96.6 8.5 C 96.7 8.7 96.8 8.7 97.1 8.7 C 97.1 8.7 97.2 8.7 97.3 8.7 C 97.4 8.7 97.5 8.6 97.5 8.6 C 97.5 8.6 97.6 8 97.6 8 C 97.6 8.1 97.6 8.1 97.5 8.1 C 97.5 8.1 97.4 8.1 97.4 8.1 C 97.3 8.1 97.3 8.1 97.2 8 C 97.2 8 97.2 7.9 97.2 7.8 C 97.2 7.7 97.2 7.6 97.2 7.5 C 97.3 7.4 97.3 7.3 97.3 7.2 C 97.3 7.2 97.6 5.9 97.6 5.9 C 97.6 5.8 97.7 5.6 97.7 5.5 C 97.7 5.3 97.7 5.2 97.7 5 C 97.7 4.8 97.7 4.6 97.6 4.5 C 97.5 4.3 97.4 4.2 97.2 4.1 C 97.1 4 96.9 3.9 96.7 3.9 C 96.5 3.9 96.3 3.9 96 3.9 C 95.8 3.9 95.6 3.9 95.3 3.9 C 95.1 4 94.9 4.1 94.7 4.2 C 94.5 4.3 94.4 4.5 94.3 4.7 C 94.1 4.9 94.1 5.1 94 5.4 Z M 94.2 7.4 C 94.2 7.2 94.3 7 94.4 6.9 C 94.5 6.8 94.6 6.7 94.7 6.7 C 94.9 6.6 95.1 6.6 95.3 6.5 C 95.4 6.5 95.6 6.5 95.8 6.5 C 96 6.5 96.2 6.4 96.3 6.4 C 96.5 6.4 96.6 6.3 96.8 6.2 C 96.8 6.2 96.8 6.2 96.8 6.2 C 96.7 6.5 96.7 6.7 96.6 6.9 C 96.6 7.1 96.5 7.3 96.4 7.4 C 96.1 7.8 95.7 8 95.1 8 C 94.8 8 94.6 8 94.5 7.9 C 94.3 7.8 94.2 7.6 94.2 7.4 Z M 102.3 2.2 L 101 8.6 L 101.8 8.6 L 102.4 5.9 L 104.3 5.9 C 104.3 5.9 104.63 5.87 104.6 5.9 C 104.7 5.9 104.8 5.9 104.9 5.9 C 105 6 105.1 6 105.2 6.1 C 105.2 6.2 105.3 6.4 105.3 6.5 C 105.3 6.7 105.3 6.9 105.3 7.2 C 105.2 7.6 105.2 7.8 105.2 8.1 C 105.2 8.3 105.2 8.5 105.2 8.6 C 105.2 8.6 106.1 8.6 106.1 8.6 C 106.1 8.5 106 8.4 106 8.2 C 106 8.1 106 8 106 7.8 C 106 7.7 106 7.5 106.1 7.4 C 106.1 7.3 106.1 7.1 106.1 7 C 106.1 6.8 106.1 6.6 106.1 6.5 C 106.1 6.3 106.1 6.2 106 6.1 C 106 6 105.9 5.9 105.8 5.8 C 105.7 5.7 105.6 5.6 105.5 5.6 C 105.5 5.6 105.5 5.6 105.5 5.6 C 105.7 5.5 105.9 5.5 106.1 5.4 C 106.2 5.3 106.4 5.1 106.5 5 C 106.6 4.8 106.7 4.6 106.8 4.4 C 106.9 4.2 106.9 4 106.9 3.8 C 106.9 3.5 106.9 3.2 106.7 3 C 106.6 2.8 106.5 2.7 106.3 2.5 C 106.1 2.4 105.8 2.3 105.6 2.3 C 105.3 2.2 105.1 2.2 104.8 2.2 C 104.8 2.19 102.3 2.2 102.3 2.2 Z M 102.5 5.1 L 103 2.9 C 103 2.9 104.8 2.91 104.8 2.9 C 105 2.9 105.1 2.9 105.3 2.9 C 105.4 3 105.5 3 105.7 3.1 C 105.8 3.2 105.9 3.3 105.9 3.4 C 106 3.5 106.1 3.7 106.1 3.9 C 106.1 4 106 4.1 106 4.3 C 106 4.4 105.9 4.6 105.8 4.7 C 105.7 4.8 105.5 4.9 105.3 5 C 105.1 5.1 104.8 5.1 104.5 5.1 C 104.47 5.15 102.5 5.1 102.5 5.1 Z M 107.3 6.8 C 107.3 7.1 107.4 7.3 107.4 7.6 C 107.5 7.8 107.7 8 107.8 8.2 C 108 8.3 108.2 8.5 108.4 8.6 C 108.7 8.7 109 8.7 109.3 8.7 C 109.7 8.7 110 8.6 110.4 8.5 C 110.7 8.3 110.9 8.1 111.2 7.8 C 111.4 7.5 111.6 7.2 111.7 6.9 C 111.8 6.5 111.8 6.2 111.8 5.8 C 111.8 5.1 111.7 4.7 111.3 4.3 C 111 4 110.5 3.9 109.9 3.9 C 109.5 3.9 109.1 3.9 108.8 4.1 C 108.5 4.3 108.2 4.5 108 4.7 C 107.8 5 107.6 5.3 107.5 5.7 C 107.4 6 107.3 6.4 107.3 6.8 Z M 108.1 6.8 C 108.1 6.5 108.1 6.3 108.2 6 C 108.3 5.7 108.4 5.5 108.5 5.3 C 108.7 5.1 108.9 4.9 109.1 4.7 C 109.3 4.6 109.6 4.5 109.9 4.5 C 110.1 4.5 110.2 4.6 110.4 4.6 C 110.6 4.7 110.7 4.8 110.8 4.9 C 110.9 5 111 5.2 111 5.3 C 111.1 5.5 111.1 5.7 111.1 5.8 C 111.1 6.1 111 6.3 111 6.6 C 110.9 6.8 110.8 7.1 110.6 7.3 C 110.5 7.5 110.3 7.7 110.1 7.8 C 109.9 8 109.6 8 109.4 8 C 108.9 8 108.6 7.9 108.4 7.7 C 108.2 7.5 108.1 7.2 108.1 6.8 Z M 115.6 5.3 C 115.6 5.3 116.4 5.3 116.4 5.3 C 116.4 5.1 116.3 4.8 116.2 4.6 C 116.1 4.5 116 4.3 115.8 4.2 C 115.7 4.1 115.5 4 115.3 3.9 C 115 3.9 114.8 3.9 114.6 3.9 C 114.4 3.9 114.2 3.9 114 3.9 C 113.8 4 113.6 4.1 113.4 4.2 C 113.3 4.3 113.1 4.4 113 4.6 C 112.9 4.8 112.9 5 112.9 5.2 C 112.9 5.4 112.9 5.5 113 5.7 C 113.1 5.8 113.2 5.9 113.3 6 C 113.4 6.1 113.5 6.2 113.7 6.3 C 113.8 6.3 114 6.4 114.1 6.5 C 114.3 6.5 114.4 6.6 114.6 6.6 C 114.7 6.7 114.8 6.8 115 6.8 C 115.1 6.9 115.2 7 115.2 7 C 115.3 7.1 115.3 7.2 115.3 7.3 C 115.3 7.5 115.3 7.6 115.2 7.7 C 115.2 7.8 115.1 7.8 115 7.9 C 114.9 7.9 114.8 8 114.7 8 C 114.5 8 114.4 8 114.3 8 C 114.1 8 114 8 113.8 8 C 113.7 8 113.5 7.9 113.4 7.9 C 113.3 7.8 113.2 7.7 113.2 7.6 C 113.1 7.5 113.1 7.3 113.1 7.1 C 113.1 7.1 112.3 7.1 112.3 7.1 C 112.3 7.4 112.4 7.7 112.5 7.9 C 112.6 8.1 112.7 8.3 112.9 8.4 C 113 8.5 113.2 8.6 113.5 8.6 C 113.7 8.7 113.9 8.7 114.2 8.7 C 114.4 8.7 114.7 8.7 114.9 8.6 C 115.1 8.6 115.3 8.5 115.5 8.4 C 115.7 8.3 115.8 8.1 115.9 7.9 C 116.1 7.8 116.1 7.5 116.1 7.3 C 116.1 7.1 116.1 6.9 116 6.8 C 115.9 6.7 115.8 6.6 115.7 6.5 C 115.6 6.4 115.5 6.3 115.3 6.2 C 115.2 6.1 115 6 114.9 6 C 114.7 5.9 114.6 5.9 114.4 5.8 C 114.3 5.7 114.2 5.7 114 5.6 C 113.9 5.5 113.8 5.5 113.8 5.4 C 113.7 5.3 113.7 5.2 113.7 5.1 C 113.7 5 113.7 4.9 113.7 4.8 C 113.8 4.8 113.9 4.7 114 4.6 C 114.1 4.6 114.2 4.6 114.3 4.6 C 114.4 4.5 114.5 4.5 114.6 4.5 C 114.9 4.5 115.1 4.6 115.3 4.7 C 115.5 4.9 115.6 5.1 115.6 5.3 Z M 117.3 5.4 C 117.3 5.4 118.1 5.4 118.1 5.4 C 118.1 5.2 118.1 5.1 118.2 5 C 118.3 4.9 118.4 4.8 118.5 4.7 C 118.6 4.7 118.8 4.6 118.9 4.6 C 119 4.5 119.2 4.5 119.3 4.5 C 119.4 4.5 119.5 4.5 119.6 4.6 C 119.8 4.6 119.9 4.6 119.9 4.6 C 120 4.7 120.1 4.8 120.2 4.8 C 120.2 4.9 120.3 5 120.3 5.1 C 120.3 5.3 120.2 5.4 120.2 5.5 C 120.1 5.6 120.1 5.7 120 5.7 C 119.9 5.8 119.8 5.8 119.6 5.8 C 119.5 5.8 119.3 5.9 119.1 5.9 C 118.8 5.9 118.6 5.9 118.3 6 C 118 6 117.8 6.1 117.5 6.2 C 117.3 6.3 117.1 6.4 117 6.6 C 116.8 6.8 116.7 7.1 116.7 7.4 C 116.7 7.6 116.8 7.8 116.9 8 C 116.9 8.2 117 8.3 117.2 8.4 C 117.3 8.5 117.4 8.6 117.6 8.6 C 117.8 8.7 118 8.7 118.2 8.7 C 118.6 8.7 118.9 8.7 119.1 8.5 C 119.4 8.4 119.6 8.3 119.7 8 C 119.7 8 119.7 8.1 119.7 8.1 C 119.7 8.3 119.8 8.4 119.9 8.5 C 120 8.7 120.1 8.7 120.3 8.7 C 120.4 8.7 120.5 8.7 120.6 8.7 C 120.7 8.7 120.7 8.6 120.8 8.6 C 120.8 8.6 120.9 8 120.9 8 C 120.9 8.1 120.8 8.1 120.8 8.1 C 120.8 8.1 120.7 8.1 120.7 8.1 C 120.6 8.1 120.6 8.1 120.5 8 C 120.5 8 120.5 7.9 120.5 7.8 C 120.5 7.7 120.5 7.6 120.5 7.5 C 120.5 7.4 120.6 7.3 120.6 7.2 C 120.6 7.2 120.9 5.9 120.9 5.9 C 120.9 5.8 120.9 5.6 121 5.5 C 121 5.3 121 5.2 121 5 C 121 4.8 121 4.6 120.9 4.5 C 120.8 4.3 120.7 4.2 120.5 4.1 C 120.4 4 120.2 3.9 120 3.9 C 119.8 3.9 119.5 3.9 119.3 3.9 C 119.1 3.9 118.8 3.9 118.6 3.9 C 118.4 4 118.2 4.1 118 4.2 C 117.8 4.3 117.7 4.5 117.5 4.7 C 117.4 4.9 117.3 5.1 117.3 5.4 Z M 117.5 7.4 C 117.5 7.2 117.6 7 117.7 6.9 C 117.8 6.8 117.9 6.7 118 6.7 C 118.2 6.6 118.3 6.6 118.5 6.5 C 118.7 6.5 118.9 6.5 119.1 6.5 C 119.3 6.5 119.5 6.4 119.6 6.4 C 119.8 6.4 119.9 6.3 120 6.2 C 120 6.2 120.1 6.2 120.1 6.2 C 120 6.5 119.9 6.7 119.9 6.9 C 119.9 7.1 119.8 7.3 119.6 7.4 C 119.4 7.8 118.9 8 118.3 8 C 118.1 8 117.9 8 117.8 7.9 C 117.6 7.8 117.5 7.6 117.5 7.4 Z " stroke="none" fill="#000"/>
  </g>
</svg>