<?xml version="1.0" standalone="no"?>
<!DOCTYPE svg PUBLIC "-//W3C//DTD SVG 1.1//EN" "http://www.w3.org/Graphics/SVG/1.1/DTD/svg11.dtd">
<svg xmlns="http://www.w3.org/2000/svg" version="1.1" width="149px" height="25.5px" viewBox="0 -1 149 25.5" style="top:-1px">
  <desc>Glyca Nuncio at Alexandra Isabel Saludes</desc>
  <defs/>
  <g id="Polygon13546">
    <path d="M 3.2 11.3 L 4.8 16.6 L 3.5 16.6 L 3.2 15.5 L 1.4 15.5 L 1.1 16.6 L 0 16.6 L 1.7 11.3 L 3.2 11.3 Z M 1.7 14.5 L 2.9 14.5 L 2.3 12.6 L 1.7 14.5 Z M 6.8 15.5 L 8.9 15.5 L 8.9 16.6 L 5.6 16.6 L 5.6 11.3 L 6.8 11.3 L 6.8 15.5 Z M 13.6 12.3 L 11 12.3 L 11 13.4 L 13 13.4 L 13 14.4 L 11 14.4 L 11 15.5 L 13.6 15.5 L 13.6 16.6 L 9.7 16.6 L 9.7 11.3 L 13.6 11.3 L 13.6 12.3 Z M 18.5 11.3 L 17.1 13.7 L 18.7 16.6 L 17.3 16.6 L 16.2 14.7 L 15.1 16.6 L 13.9 16.6 L 15.6 13.8 L 14.1 11.3 L 15.6 11.3 L 16.4 12.9 L 17.4 11.3 L 18.5 11.3 Z M 22 11.3 L 23.7 16.6 L 22.4 16.6 L 22 15.5 L 20.3 15.5 L 20 16.6 L 18.9 16.6 L 20.6 11.3 L 22 11.3 Z M 20.6 14.5 L 21.7 14.5 L 21.2 12.6 L 20.6 14.5 Z M 28.5 11.3 L 28.5 16.6 L 27.5 16.6 C 27.5 16.6 25.39 13 25.4 13 C 25.4 13.1 25.4 13.2 25.4 13.2 C 25.4 13.3 25.4 13.3 25.4 13.4 C 25.42 13.41 25.4 16.6 25.4 16.6 L 24.4 16.6 L 24.4 11.3 L 25.8 11.3 C 25.8 11.3 27.6 14.41 27.6 14.4 C 27.6 14.3 27.6 14.1 27.6 14.1 C 27.58 14.06 27.6 11.3 27.6 11.3 L 28.5 11.3 Z M 29.8 11.3 C 29.8 11.3 31.4 11.27 31.4 11.3 C 32.1 11.3 32.6 11.4 32.9 11.5 C 33.2 11.7 33.5 12 33.8 12.4 C 34 12.8 34.1 13.3 34.1 13.9 C 34.1 14.7 33.9 15.3 33.5 15.8 C 33 16.3 32.4 16.6 31.6 16.6 C 31.61 16.6 29.8 16.6 29.8 16.6 L 29.8 11.3 Z M 31 12.3 L 31 15.6 C 31 15.6 31.52 15.6 31.5 15.6 C 32 15.6 32.3 15.4 32.5 15.1 C 32.8 14.7 32.9 14.3 32.9 13.9 C 32.9 13.6 32.8 13.3 32.7 13 C 32.5 12.7 32.4 12.5 32.2 12.4 C 32 12.3 31.8 12.3 31.5 12.3 C 31.53 12.25 31 12.3 31 12.3 Z M 36.4 14.5 L 36.4 16.6 L 35.1 16.6 L 35.1 11.3 C 35.1 11.3 37.47 11.27 37.5 11.3 C 37.9 11.3 38.2 11.3 38.5 11.4 C 38.8 11.5 39 11.7 39.2 12 C 39.3 12.2 39.4 12.5 39.4 12.9 C 39.4 13.5 39.1 14 38.5 14.2 C 38.49 14.24 39.5 16.6 39.5 16.6 L 38.1 16.6 L 37.3 14.5 L 36.4 14.5 Z M 36.4 12.2 L 36.4 13.6 C 36.4 13.6 37.15 13.58 37.1 13.6 C 37.4 13.6 37.6 13.6 37.7 13.5 C 37.8 13.5 37.9 13.4 38 13.3 C 38.1 13.2 38.1 13 38.1 12.9 C 38.1 12.7 38.1 12.6 38 12.5 C 37.9 12.4 37.8 12.3 37.7 12.3 C 37.6 12.2 37.4 12.2 37.1 12.2 C 37.12 12.22 36.4 12.2 36.4 12.2 Z M 43.2 11.3 L 44.8 16.6 L 43.5 16.6 L 43.2 15.5 L 41.4 15.5 L 41.1 16.6 L 40 16.6 L 41.7 11.3 L 43.2 11.3 Z M 41.7 14.5 L 42.9 14.5 L 42.3 12.6 L 41.7 14.5 Z M 49 11.3 L 49 16.6 L 47.7 16.6 L 47.7 11.3 L 49 11.3 Z M 51.9 11.2 C 52.9 11.2 53.6 11.6 53.9 12.4 C 53.9 12.4 52.8 12.8 52.8 12.8 C 52.7 12.4 52.4 12.2 51.9 12.2 C 51.4 12.2 51.2 12.3 51.2 12.6 C 51.2 12.8 51.2 12.9 51.3 13 C 51.4 13.1 51.6 13.1 51.9 13.2 C 52.5 13.3 52.9 13.4 53.1 13.5 C 53.4 13.6 53.6 13.8 53.8 14.1 C 53.9 14.3 54 14.6 54 14.9 C 54 15.4 53.8 15.8 53.5 16.2 C 53.1 16.5 52.6 16.7 51.8 16.7 C 51.3 16.7 50.8 16.6 50.4 16.3 C 50 16.1 49.8 15.7 49.7 15.2 C 49.7 15.2 50.8 14.9 50.8 14.9 C 51 15.4 51.3 15.7 51.9 15.7 C 52.2 15.7 52.4 15.6 52.5 15.5 C 52.7 15.4 52.8 15.3 52.8 15.1 C 52.8 15 52.7 14.8 52.6 14.8 C 52.4 14.7 52.2 14.6 51.8 14.5 C 51.2 14.4 50.7 14.2 50.4 13.9 C 50.1 13.7 49.9 13.3 49.9 12.9 C 49.9 12.4 50.1 12 50.5 11.7 C 50.8 11.4 51.3 11.2 51.9 11.2 C 51.9 11.2 51.9 11.2 51.9 11.2 Z M 57.6 11.3 L 59.2 16.6 L 57.9 16.6 L 57.6 15.5 L 55.8 15.5 L 55.5 16.6 L 54.4 16.6 L 56.1 11.3 L 57.6 11.3 Z M 56.1 14.5 L 57.3 14.5 L 56.7 12.6 L 56.1 14.5 Z M 60 11.3 C 60 11.3 62.44 11.27 62.4 11.3 C 62.9 11.3 63.2 11.3 63.4 11.4 C 63.7 11.5 63.9 11.7 64 11.9 C 64.1 12.1 64.2 12.4 64.2 12.6 C 64.2 13.2 63.9 13.6 63.3 13.8 C 63.6 13.9 63.9 14.1 64.1 14.3 C 64.3 14.6 64.4 14.8 64.4 15.1 C 64.4 15.5 64.2 15.9 63.9 16.2 C 63.6 16.5 63.1 16.6 62.4 16.6 C 62.44 16.6 60 16.6 60 16.6 L 60 11.3 Z M 61.2 12.2 L 61.2 13.4 C 61.2 13.4 62.15 13.38 62.2 13.4 C 62.5 13.4 62.7 13.3 62.8 13.2 C 62.9 13 62.9 12.9 62.9 12.8 C 62.9 12.6 62.9 12.5 62.8 12.4 C 62.8 12.3 62.7 12.3 62.6 12.2 C 62.5 12.2 62.3 12.2 62.1 12.2 C 62.06 12.21 61.2 12.2 61.2 12.2 Z M 61.2 14.3 L 61.2 15.6 C 61.2 15.6 62.16 15.61 62.2 15.6 C 62.5 15.6 62.7 15.6 62.9 15.4 C 63 15.3 63.1 15.2 63.1 15 C 63.1 14.8 63 14.6 62.9 14.5 C 62.7 14.4 62.5 14.3 62.2 14.3 C 62.22 14.33 61.2 14.3 61.2 14.3 Z M 69.1 12.3 L 66.6 12.3 L 66.6 13.4 L 68.6 13.4 L 68.6 14.4 L 66.6 14.4 L 66.6 15.5 L 69.1 15.5 L 69.1 16.6 L 65.3 16.6 L 65.3 11.3 L 69.1 11.3 L 69.1 12.3 Z M 71.3 15.5 L 73.4 15.5 L 73.4 16.6 L 70 16.6 L 70 11.3 L 71.3 11.3 L 71.3 15.5 Z M 78.1 11.2 C 79.1 11.2 79.8 11.6 80.1 12.4 C 80.1 12.4 79 12.8 79 12.8 C 78.9 12.4 78.6 12.2 78.1 12.2 C 77.6 12.2 77.4 12.3 77.4 12.6 C 77.4 12.8 77.4 12.9 77.5 13 C 77.6 13.1 77.8 13.1 78.1 13.2 C 78.7 13.3 79.1 13.4 79.3 13.5 C 79.6 13.6 79.8 13.8 80 14.1 C 80.1 14.3 80.2 14.6 80.2 14.9 C 80.2 15.4 80 15.8 79.7 16.2 C 79.3 16.5 78.7 16.7 78 16.7 C 77.5 16.7 77 16.6 76.6 16.3 C 76.2 16.1 76 15.7 75.9 15.2 C 75.9 15.2 77 14.9 77 14.9 C 77.2 15.4 77.5 15.7 78.1 15.7 C 78.4 15.7 78.6 15.6 78.7 15.5 C 78.9 15.4 79 15.3 79 15.1 C 79 15 78.9 14.8 78.8 14.8 C 78.6 14.7 78.4 14.6 78 14.5 C 77.3 14.4 76.9 14.2 76.6 13.9 C 76.3 13.7 76.1 13.3 76.1 12.9 C 76.1 12.4 76.3 12 76.7 11.7 C 77 11.4 77.5 11.2 78.1 11.2 C 78.1 11.2 78.1 11.2 78.1 11.2 Z M 83.7 11.3 L 85.4 16.6 L 84.1 16.6 L 83.7 15.5 L 82 15.5 L 81.7 16.6 L 80.6 16.6 L 82.3 11.3 L 83.7 11.3 Z M 82.3 14.5 L 83.5 14.5 L 82.9 12.6 L 82.3 14.5 Z M 87.4 15.5 L 89.5 15.5 L 89.5 16.6 L 86.2 16.6 L 86.2 11.3 L 87.4 11.3 L 87.4 15.5 Z M 94.5 11.3 C 94.5 11.3 94.49 14.59 94.5 14.6 C 94.5 15.1 94.4 15.5 94.3 15.8 C 94.2 16 94 16.3 93.6 16.4 C 93.3 16.6 92.9 16.7 92.4 16.7 C 91.9 16.7 91.4 16.6 91.1 16.5 C 90.8 16.3 90.6 16.1 90.5 15.8 C 90.3 15.5 90.2 15.1 90.2 14.6 C 90.23 14.59 90.2 11.3 90.2 11.3 L 91.6 11.3 C 91.6 11.3 91.59 14.59 91.6 14.6 C 91.6 14.9 91.6 15.1 91.7 15.2 C 91.7 15.4 91.8 15.5 91.9 15.5 C 92.1 15.6 92.3 15.7 92.5 15.7 C 92.7 15.7 92.9 15.6 93.1 15.5 C 93.2 15.5 93.3 15.4 93.3 15.2 C 93.4 15.1 93.4 14.9 93.4 14.6 C 93.42 14.59 93.4 11.3 93.4 11.3 L 94.5 11.3 Z M 95.6 11.3 C 95.6 11.3 97.27 11.27 97.3 11.3 C 97.9 11.3 98.4 11.4 98.8 11.5 C 99.1 11.7 99.4 12 99.6 12.4 C 99.9 12.8 100 13.3 100 13.9 C 100 14.7 99.8 15.3 99.3 15.8 C 98.9 16.3 98.3 16.6 97.5 16.6 C 97.48 16.6 95.6 16.6 95.6 16.6 L 95.6 11.3 Z M 96.9 12.3 L 96.9 15.6 C 96.9 15.6 97.38 15.6 97.4 15.6 C 97.8 15.6 98.2 15.4 98.4 15.1 C 98.6 14.7 98.7 14.3 98.7 13.9 C 98.7 13.6 98.7 13.3 98.5 13 C 98.4 12.7 98.3 12.5 98.1 12.4 C 97.9 12.3 97.7 12.3 97.4 12.3 C 97.39 12.25 96.9 12.3 96.9 12.3 Z M 104.8 12.3 L 102.3 12.3 L 102.3 13.4 L 104.3 13.4 L 104.3 14.4 L 102.3 14.4 L 102.3 15.5 L 104.8 15.5 L 104.8 16.6 L 101 16.6 L 101 11.3 L 104.8 11.3 L 104.8 12.3 Z M 107.4 11.2 C 108.4 11.2 109.1 11.6 109.4 12.4 C 109.4 12.4 108.3 12.8 108.3 12.8 C 108.2 12.4 107.9 12.2 107.4 12.2 C 106.9 12.2 106.7 12.3 106.7 12.6 C 106.7 12.8 106.7 12.9 106.8 13 C 106.9 13.1 107.1 13.1 107.4 13.2 C 108 13.3 108.4 13.4 108.6 13.5 C 108.9 13.6 109.1 13.8 109.3 14.1 C 109.4 14.3 109.5 14.6 109.5 14.9 C 109.5 15.4 109.4 15.8 109 16.2 C 108.6 16.5 108.1 16.7 107.3 16.7 C 106.8 16.7 106.3 16.6 105.9 16.3 C 105.6 16.1 105.3 15.7 105.2 15.2 C 105.2 15.2 106.3 14.9 106.3 14.9 C 106.5 15.4 106.8 15.7 107.4 15.7 C 107.7 15.7 107.9 15.6 108.1 15.5 C 108.2 15.4 108.3 15.3 108.3 15.1 C 108.3 15 108.2 14.8 108.1 14.8 C 107.9 14.7 107.7 14.6 107.3 14.5 C 106.7 14.4 106.2 14.2 105.9 13.9 C 105.6 13.7 105.5 13.3 105.5 12.9 C 105.5 12.4 105.6 12 106 11.7 C 106.3 11.4 106.8 11.2 107.4 11.2 C 107.4 11.2 107.4 11.2 107.4 11.2 Z " stroke="none" fill="#000"/>
  </g>
  <g id="Polygon13545">
    <path d="M 4.7 2.8 L 4.7 5.6 C 4.7 5.6 4.12 5.6 4.1 5.6 C 4.1 5.4 4 5.2 3.9 5 C 3.6 5.5 3.1 5.7 2.5 5.7 C 1.8 5.7 1.2 5.4 0.9 4.9 C 0.5 4.4 0.3 3.8 0.3 3 C 0.3 2.2 0.5 1.5 0.9 1 C 1.3 0.4 1.9 0.2 2.6 0.2 C 3.2 0.2 3.7 0.4 4 0.7 C 4.4 1 4.6 1.5 4.7 2 C 4.7 2 3.5 2.2 3.5 2.2 C 3.4 1.5 3.1 1.2 2.6 1.2 C 2.2 1.2 2 1.4 1.8 1.7 C 1.6 2 1.6 2.4 1.6 3 C 1.6 3.5 1.6 3.9 1.8 4.2 C 2 4.5 2.3 4.7 2.6 4.7 C 2.9 4.7 3.1 4.6 3.2 4.4 C 3.4 4.3 3.5 4.1 3.5 3.7 C 3.5 3.75 2.5 3.7 2.5 3.7 L 2.5 2.8 L 4.7 2.8 Z M 7.1 4.5 L 9.2 4.5 L 9.2 5.6 L 5.8 5.6 L 5.8 0.3 L 7.1 0.3 L 7.1 4.5 Z M 13.4 0.3 L 11.7 3.4 L 11.7 5.6 L 10.4 5.6 L 10.4 3.4 L 8.8 0.3 L 10.2 0.3 L 11.2 2.3 L 12.2 0.3 L 13.4 0.3 Z M 15.8 0.2 C 17.1 0.2 17.8 0.9 18 2.3 C 18 2.3 16.6 2.3 16.6 2.3 C 16.6 1.6 16.3 1.2 15.8 1.2 C 15.1 1.2 14.8 1.8 14.8 2.9 C 14.8 3.6 14.9 4.1 15.1 4.3 C 15.2 4.5 15.5 4.7 15.8 4.7 C 16.3 4.7 16.6 4.3 16.7 3.7 C 16.7 3.7 18 3.7 18 3.7 C 17.9 4.4 17.6 4.9 17.2 5.2 C 16.8 5.5 16.4 5.7 15.8 5.7 C 15.1 5.7 14.5 5.4 14.1 5 C 13.6 4.5 13.4 3.8 13.4 2.9 C 13.4 2.1 13.6 1.5 14 1 C 14.5 0.4 15.1 0.2 15.8 0.2 C 15.8 0.2 15.8 0.2 15.8 0.2 Z M 21.4 0.3 L 23.1 5.6 L 21.7 5.6 L 21.4 4.5 L 19.7 4.5 L 19.3 5.6 L 18.2 5.6 L 20 0.3 L 21.4 0.3 Z M 20 3.5 L 21.1 3.5 L 20.5 1.6 L 20 3.5 Z M 30.1 0.3 L 30.1 5.6 L 29 5.6 C 29 5.6 26.91 2 26.9 2 C 26.9 2.1 26.9 2.2 26.9 2.2 C 26.9 2.3 26.9 2.3 26.9 2.4 C 26.94 2.41 26.9 5.6 26.9 5.6 L 26 5.6 L 26 0.3 L 27.3 0.3 C 27.3 0.3 29.12 3.41 29.1 3.4 C 29.1 3.3 29.1 3.1 29.1 3.1 C 29.1 3.06 29.1 0.3 29.1 0.3 L 30.1 0.3 Z M 35.5 0.3 C 35.5 0.3 35.5 3.59 35.5 3.6 C 35.5 4.1 35.4 4.5 35.3 4.8 C 35.2 5 35 5.3 34.6 5.4 C 34.3 5.6 33.9 5.7 33.4 5.7 C 32.9 5.7 32.5 5.6 32.1 5.5 C 31.8 5.3 31.6 5.1 31.5 4.8 C 31.3 4.5 31.2 4.1 31.2 3.6 C 31.24 3.59 31.2 0.3 31.2 0.3 L 32.6 0.3 C 32.6 0.3 32.6 3.59 32.6 3.6 C 32.6 3.9 32.6 4.1 32.7 4.2 C 32.7 4.4 32.8 4.5 33 4.5 C 33.1 4.6 33.3 4.7 33.5 4.7 C 33.7 4.7 33.9 4.6 34.1 4.5 C 34.2 4.5 34.3 4.4 34.4 4.2 C 34.4 4.1 34.4 3.9 34.4 3.6 C 34.43 3.59 34.4 0.3 34.4 0.3 L 35.5 0.3 Z M 40.8 0.3 L 40.8 5.6 L 39.7 5.6 C 39.7 5.6 37.6 2 37.6 2 C 37.6 2.1 37.6 2.2 37.6 2.2 C 37.6 2.3 37.6 2.3 37.6 2.4 C 37.62 2.41 37.6 5.6 37.6 5.6 L 36.7 5.6 L 36.7 0.3 L 38 0.3 C 38 0.3 39.81 3.41 39.8 3.4 C 39.8 3.3 39.8 3.1 39.8 3.1 C 39.79 3.06 39.8 0.3 39.8 0.3 L 40.8 0.3 Z M 44.1 0.2 C 45.4 0.2 46.1 0.9 46.3 2.3 C 46.3 2.3 45 2.3 45 2.3 C 45 1.6 44.7 1.2 44.1 1.2 C 43.4 1.2 43.1 1.8 43.1 2.9 C 43.1 3.6 43.2 4.1 43.4 4.3 C 43.6 4.5 43.8 4.7 44.1 4.7 C 44.6 4.7 45 4.3 45.1 3.7 C 45.1 3.7 46.3 3.7 46.3 3.7 C 46.2 4.4 46 4.9 45.6 5.2 C 45.2 5.5 44.7 5.7 44.1 5.7 C 43.4 5.7 42.8 5.4 42.4 5 C 41.9 4.5 41.7 3.8 41.7 2.9 C 41.7 2.1 41.9 1.5 42.4 1 C 42.8 0.4 43.4 0.2 44.1 0.2 C 44.1 0.2 44.1 0.2 44.1 0.2 Z M 48.4 0.3 L 48.4 5.6 L 47.2 5.6 L 47.2 0.3 L 48.4 0.3 Z M 51.6 5.7 C 50.9 5.7 50.4 5.4 50 4.9 C 49.6 4.3 49.4 3.7 49.4 2.9 C 49.4 2.1 49.6 1.5 50 1 C 50.4 0.4 50.9 0.2 51.7 0.2 C 52.4 0.2 53 0.5 53.4 1 C 53.7 1.6 53.9 2.2 53.9 2.9 C 53.9 3.7 53.7 4.4 53.4 4.9 C 53 5.4 52.4 5.7 51.6 5.7 Z M 52.6 2.9 C 52.6 1.8 52.3 1.2 51.7 1.2 C 51 1.2 50.7 1.8 50.7 2.9 C 50.7 4.1 51 4.7 51.7 4.7 C 52.3 4.7 52.6 4.1 52.6 2.9 C 52.6 2.9 52.6 2.9 52.6 2.9 Z M 59.7 0.3 L 61.4 5.6 L 60 5.6 L 59.7 4.5 L 58 4.5 L 57.6 5.6 L 56.5 5.6 L 58.2 0.3 L 59.7 0.3 Z M 58.3 3.5 L 59.4 3.5 L 58.8 1.6 L 58.3 3.5 Z M 65.1 0.3 L 65.1 1.3 L 63.7 1.3 L 63.7 5.6 L 62.5 5.6 L 62.5 1.3 L 61.2 1.3 L 61.2 0.3 L 65.1 0.3 Z " stroke="none" fill="#000"/>
  </g>
</svg>