<?xml version="1.0" standalone="no"?>
<!DOCTYPE svg PUBLIC "-//W3C//DTD SVG 1.1//EN" "http://www.w3.org/Graphics/SVG/1.1/DTD/svg11.dtd">
<svg xmlns="http://www.w3.org/2000/svg" version="1.1" width="122px" height="21.3px" viewBox="0 -4 122 21.3" style="top:-4px">
  <desc>BALITA</desc>
  <defs/>
  <g id="Polygon14597">
    <path d="M 4.5 4.5 C 5.7 4.7 6.6 5.2 6.6 6.4 C 6.6 7.2 6.1 7.8 5.4 8.2 C 4.8 8.6 4 8.7 3.1 8.7 C 3.08 8.72 0.4 8.7 0.4 8.7 C 0.4 8.7 0.43 8.39 0.4 8.4 C 1.5 8.3 1.5 8.2 1.5 7.2 C 1.5 7.2 1.5 2.4 1.5 2.4 C 1.5 1.4 1.5 1.3 0.5 1.3 C 0.53 1.26 0.5 0.9 0.5 0.9 C 0.5 0.9 3.61 0.92 3.6 0.9 C 4.5 0.9 5 1.1 5.4 1.3 C 5.8 1.6 6.1 2.1 6.1 2.7 C 6.1 3.8 5.1 4.3 4.5 4.5 C 4.5 4.5 4.5 4.5 4.5 4.5 Z M 3.1 4.4 C 4.4 4.4 5 3.9 5 2.8 C 5 2 4.5 1.3 3.4 1.3 C 3.1 1.3 2.8 1.4 2.7 1.4 C 2.6 1.5 2.5 1.6 2.5 2 C 2.54 2.03 2.5 4.4 2.5 4.4 C 2.5 4.4 3.11 4.38 3.1 4.4 Z M 2.5 7.2 C 2.5 8.1 2.8 8.3 3.5 8.3 C 4.5 8.3 5.4 7.8 5.4 6.6 C 5.4 5.3 4.6 4.8 3.1 4.8 C 3.1 4.78 2.5 4.8 2.5 4.8 C 2.5 4.8 2.54 7.22 2.5 7.2 Z M 11.9 8.7 C 11.9 8.7 11.9 8.39 11.9 8.4 C 12.7 8.3 12.8 8.2 12.6 7.7 C 12.5 7.3 12.2 6.6 12 5.9 C 12 5.9 9.4 5.9 9.4 5.9 C 9.2 6.4 9 6.9 8.9 7.4 C 8.6 8.2 8.7 8.3 9.6 8.4 C 9.61 8.39 9.6 8.7 9.6 8.7 L 7 8.7 C 7 8.7 7.01 8.39 7 8.4 C 7.8 8.3 7.9 8.2 8.4 7.2 C 8.35 7.15 10.8 0.9 10.8 0.9 C 10.8 0.9 11.21 0.74 11.2 0.7 C 12 2.8 12.8 5.1 13.5 7.2 C 13.9 8.2 14.1 8.3 14.8 8.4 C 14.84 8.39 14.8 8.7 14.8 8.7 L 11.9 8.7 Z M 10.7 2.3 C 10.7 2.3 10.7 2.3 10.7 2.3 C 10.3 3.3 9.9 4.4 9.6 5.4 C 9.58 5.36 11.8 5.4 11.8 5.4 L 10.7 2.3 Z M 21.4 6.8 C 21.3 7.2 21 8.4 20.9 8.7 C 20.93 8.72 15.5 8.7 15.5 8.7 C 15.5 8.7 15.49 8.39 15.5 8.4 C 16.5 8.3 16.6 8.2 16.6 7.2 C 16.6 7.2 16.6 2.4 16.6 2.4 C 16.6 1.4 16.5 1.3 15.5 1.3 C 15.54 1.26 15.5 0.9 15.5 0.9 L 18.7 0.9 C 18.7 0.9 18.67 1.26 18.7 1.3 C 17.7 1.3 17.6 1.4 17.6 2.4 C 17.6 2.4 17.6 7.2 17.6 7.2 C 17.6 7.8 17.7 8 17.9 8.2 C 18.1 8.3 18.5 8.3 19 8.3 C 19.7 8.3 20.1 8.3 20.4 7.9 C 20.6 7.7 20.8 7.3 21 6.8 C 21 6.8 21.4 6.8 21.4 6.8 Z M 22 8.7 C 22 8.7 21.97 8.39 22 8.4 C 23 8.3 23.1 8.2 23.1 7.2 C 23.1 7.2 23.1 2.4 23.1 2.4 C 23.1 1.4 23 1.3 22 1.3 C 21.97 1.26 22 0.9 22 0.9 L 25.2 0.9 C 25.2 0.9 25.15 1.26 25.2 1.3 C 24.2 1.3 24.1 1.4 24.1 2.4 C 24.1 2.4 24.1 7.2 24.1 7.2 C 24.1 8.3 24.2 8.3 25.2 8.4 C 25.15 8.39 25.2 8.7 25.2 8.7 L 22 8.7 Z M 32.4 2.8 C 32.2 2.2 32.1 1.9 32 1.7 C 31.8 1.4 31.6 1.3 30.7 1.3 C 30.68 1.34 29.8 1.3 29.8 1.3 C 29.8 1.3 29.83 7.25 29.8 7.2 C 29.8 8.2 29.9 8.3 31.1 8.4 C 31.07 8.39 31.1 8.7 31.1 8.7 L 27.6 8.7 C 27.6 8.7 27.62 8.39 27.6 8.4 C 28.7 8.3 28.8 8.2 28.8 7.2 C 28.81 7.25 28.8 1.3 28.8 1.3 C 28.8 1.3 28.07 1.34 28.1 1.3 C 27.1 1.3 26.8 1.4 26.7 1.7 C 26.5 1.9 26.4 2.3 26.3 2.8 C 26.3 2.8 25.9 2.8 25.9 2.8 C 26 2.1 26.1 1.3 26.1 0.6 C 26.1 0.6 26.3 0.6 26.3 0.6 C 26.5 0.9 26.7 0.9 27 0.9 C 27 0.9 31.7 0.9 31.7 0.9 C 32.1 0.9 32.1 0.9 32.3 0.6 C 32.3 0.6 32.6 0.6 32.6 0.6 C 32.6 1.2 32.7 2.1 32.7 2.7 C 32.7 2.7 32.4 2.8 32.4 2.8 Z M 37.3 8.7 C 37.3 8.7 37.27 8.39 37.3 8.4 C 38 8.3 38.1 8.2 38 7.7 C 37.8 7.3 37.6 6.6 37.3 5.9 C 37.3 5.9 34.8 5.9 34.8 5.9 C 34.6 6.4 34.4 6.9 34.2 7.4 C 34 8.2 34.1 8.3 35 8.4 C 34.98 8.39 35 8.7 35 8.7 L 32.4 8.7 C 32.4 8.7 32.38 8.39 32.4 8.4 C 33.1 8.3 33.3 8.2 33.7 7.2 C 33.72 7.15 36.2 0.9 36.2 0.9 C 36.2 0.9 36.58 0.74 36.6 0.7 C 37.3 2.8 38.1 5.1 38.9 7.2 C 39.3 8.2 39.4 8.3 40.2 8.4 C 40.21 8.39 40.2 8.7 40.2 8.7 L 37.3 8.7 Z M 36.1 2.3 C 36.1 2.3 36.07 2.3 36.1 2.3 C 35.7 3.3 35.3 4.4 34.9 5.4 C 34.94 5.36 37.2 5.4 37.2 5.4 L 36.1 2.3 Z " stroke="none" fill="#000"/>
  </g>
</svg>