<?xml version="1.0" standalone="no"?>
<!DOCTYPE svg PUBLIC "-//W3C//DTD SVG 1.1//EN" "http://www.w3.org/Graphics/SVG/1.1/DTD/svg11.dtd">
<svg xmlns="http://www.w3.org/2000/svg" version="1.1" width="310px" height="31.8px" viewBox="0 -7 310 31.8" style="top:-7px">
  <desc>Paghahanda para sa Halalan 2022:</desc>
  <defs/>
  <g id="Polygon14897">
    <path d="M 1.3 0.7 C 1.3 0.7 5.1 0.67 5.1 0.7 C 6.3 0.7 7.2 0.8 7.8 1 C 8.4 1.2 9 1.6 9.4 2.3 C 9.9 3 10.1 3.8 10.1 4.8 C 10.1 5.8 9.9 6.6 9.6 7.3 C 9.2 7.9 8.7 8.4 8.1 8.6 C 7.5 8.9 6.5 9.1 5.2 9.1 C 5.22 9.07 4.2 9.1 4.2 9.1 L 4.2 14 L 1.3 14 L 1.3 0.7 Z M 4.2 2.8 L 4.2 6.8 C 4.2 6.8 5.1 6.79 5.1 6.8 C 5.9 6.8 6.4 6.6 6.6 6.2 C 6.9 5.9 7 5.4 7 4.8 C 7 4.3 6.9 3.9 6.7 3.6 C 6.5 3.3 6.3 3.1 6.1 3 C 5.9 2.9 5.5 2.8 5.1 2.8 C 5.1 2.83 4.2 2.8 4.2 2.8 Z M 12.9 0.7 L 15.9 0.7 L 19.7 14 L 16.7 14 L 16 11.3 L 12.3 11.3 L 11.6 14 L 8.9 14 L 12.9 0.7 Z M 15.5 9 L 14.1 3.5 L 12.8 9 L 15.5 9 Z M 24.7 6.9 L 29.3 6.9 L 29.3 14 L 28.1 14 C 28.1 14 27.68 12.48 27.7 12.5 C 27 13.6 25.9 14.2 24.5 14.2 C 22.9 14.2 21.7 13.6 20.8 12.4 C 20 11.2 19.5 9.6 19.5 7.6 C 19.5 5.4 20 3.7 20.8 2.4 C 21.7 1.1 23 0.5 24.7 0.5 C 27.4 0.5 29 2 29.3 5 C 29.3 5 26.7 5.5 26.7 5.5 C 26.5 3.7 25.8 2.9 24.8 2.9 C 24.1 2.9 23.6 3.2 23.2 3.8 C 22.8 4.5 22.6 5.7 22.6 7.5 C 22.6 9.1 22.8 10.2 23.2 10.8 C 23.6 11.5 24.1 11.8 24.9 11.8 C 26.1 11.8 26.7 10.9 26.7 9.2 C 26.66 9.18 24.7 9.2 24.7 9.2 L 24.7 6.9 Z M 31 0.7 L 33.9 0.7 L 33.9 6.1 L 37.1 6.1 L 37.1 0.7 L 40 0.7 L 40 14 L 37.1 14 L 37.1 8.6 L 33.9 8.6 L 33.9 14 L 31 14 L 31 0.7 Z M 44.3 0.7 L 47.3 0.7 L 51.1 14 L 48.1 14 L 47.4 11.3 L 43.7 11.3 L 43 14 L 40.3 14 L 44.3 0.7 Z M 46.9 9 L 45.5 3.5 L 44.2 9 L 46.9 9 Z M 51.6 0.7 L 54.5 0.7 L 54.5 6.1 L 57.7 6.1 L 57.7 0.7 L 60.7 0.7 L 60.7 14 L 57.7 14 L 57.7 8.6 L 54.5 8.6 L 54.5 14 L 51.6 14 L 51.6 0.7 Z M 64.9 0.7 L 67.9 0.7 L 71.7 14 L 68.7 14 L 68 11.3 L 64.3 11.3 L 63.6 14 L 60.9 14 L 64.9 0.7 Z M 67.5 9 L 66.1 3.5 L 64.8 9 L 67.5 9 Z M 72.1 0.7 L 75.3 0.7 L 78.8 9 L 78.8 0.7 L 81 0.7 L 81 14 L 78.4 14 L 74.4 4.4 L 74.4 14 L 72.1 14 L 72.1 0.7 Z M 82.8 0.7 C 82.8 0.7 85.99 0.67 86 0.7 C 87.4 0.7 88.5 0.9 89.3 1.2 C 90.2 1.6 90.9 2.3 91.4 3.3 C 91.9 4.3 92.2 5.6 92.2 7.3 C 92.2 8.5 92 9.5 91.7 10.5 C 91.4 11.4 91 12.1 90.5 12.7 C 89.9 13.2 89.4 13.5 88.7 13.7 C 88.1 13.9 87.3 14 86.3 14 C 86.34 14 82.8 14 82.8 14 L 82.8 0.7 Z M 85.8 3 L 85.8 11.7 C 85.8 11.7 86.27 11.72 86.3 11.7 C 86.9 11.7 87.5 11.6 87.8 11.3 C 88.2 11.1 88.5 10.6 88.7 10 C 89 9.3 89.1 8.4 89.1 7.2 C 89.1 6 88.9 5.1 88.7 4.5 C 88.5 3.9 88.1 3.5 87.8 3.3 C 87.4 3.1 86.9 3 86.3 3 C 86.27 2.96 85.8 3 85.8 3 Z M 95.7 0.7 L 98.7 0.7 L 102.5 14 L 99.5 14 L 98.8 11.3 L 95.1 11.3 L 94.4 14 L 91.7 14 L 95.7 0.7 Z M 98.3 9 L 96.9 3.5 L 95.6 9 L 98.3 9 Z M 111.7 0.7 C 111.7 0.7 115.57 0.67 115.6 0.7 C 116.7 0.7 117.6 0.8 118.3 1 C 118.9 1.2 119.5 1.6 119.9 2.3 C 120.3 3 120.5 3.8 120.5 4.8 C 120.5 5.8 120.4 6.6 120 7.3 C 119.7 7.9 119.2 8.4 118.6 8.6 C 117.9 8.9 117 9.1 115.7 9.1 C 115.69 9.07 114.7 9.1 114.7 9.1 L 114.7 14 L 111.7 14 L 111.7 0.7 Z M 114.7 2.8 L 114.7 6.8 C 114.7 6.8 115.57 6.79 115.6 6.8 C 116.4 6.8 116.9 6.6 117.1 6.2 C 117.3 5.9 117.5 5.4 117.5 4.8 C 117.5 4.3 117.4 3.9 117.2 3.6 C 117 3.3 116.8 3.1 116.6 3 C 116.3 2.9 116 2.8 115.6 2.8 C 115.57 2.83 114.7 2.8 114.7 2.8 Z M 123.4 0.7 L 126.3 0.7 L 130.1 14 L 127.1 14 L 126.5 11.3 L 122.7 11.3 L 122.1 14 L 119.4 14 L 123.4 0.7 Z M 125.9 9 L 124.6 3.5 L 123.3 9 L 125.9 9 Z M 130.7 0.7 C 130.7 0.7 134.85 0.67 134.8 0.7 C 135.7 0.7 136.3 0.7 136.7 0.8 C 137.1 0.9 137.6 1.1 138 1.4 C 138.5 1.7 138.8 2.2 139.1 2.7 C 139.3 3.3 139.4 3.9 139.4 4.7 C 139.4 6.3 138.8 7.5 137.6 8.2 C 137.57 8.17 140 14 140 14 L 136.8 14 L 135.1 8.7 L 133.6 8.7 L 133.6 14 L 130.7 14 L 130.7 0.7 Z M 133.6 2.8 L 133.6 6.6 C 133.6 6.6 134.88 6.57 134.9 6.6 C 136 6.6 136.6 5.9 136.6 4.6 C 136.6 4.2 136.5 3.8 136.3 3.6 C 136.2 3.3 136 3.1 135.7 3 C 135.5 2.9 135.2 2.8 134.8 2.8 C 134.76 2.83 133.6 2.8 133.6 2.8 Z M 143.3 0.7 L 146.3 0.7 L 150.1 14 L 147.1 14 L 146.4 11.3 L 142.7 11.3 L 142 14 L 139.3 14 L 143.3 0.7 Z M 145.9 9 L 144.5 3.5 L 143.2 9 L 145.9 9 Z M 163.1 0.5 C 165.4 0.5 166.9 1.5 167.5 3.6 C 167.5 3.6 165 4.5 165 4.5 C 164.7 3.4 164.1 2.9 163.1 2.9 C 162.7 2.9 162.4 3 162.1 3.2 C 161.9 3.5 161.7 3.7 161.7 4.1 C 161.7 4.4 161.9 4.8 162.2 5 C 162.5 5.2 163.1 5.5 164.1 5.9 C 164.9 6.2 165.6 6.5 166.1 6.8 C 166.6 7.1 167 7.5 167.3 8.1 C 167.6 8.6 167.7 9.2 167.7 10 C 167.7 11.2 167.3 12.2 166.4 13 C 165.6 13.8 164.4 14.2 163 14.2 C 160.6 14.2 159 13 158.4 10.5 C 158.4 10.5 160.9 9.8 160.9 9.8 C 161.2 11.2 162 11.8 163.1 11.8 C 163.6 11.8 164 11.7 164.3 11.4 C 164.6 11.2 164.8 10.8 164.8 10.4 C 164.8 10.1 164.7 9.8 164.4 9.5 C 164.2 9.3 163.7 9 162.9 8.7 C 161.9 8.3 161.1 8 160.6 7.7 C 160.1 7.4 159.7 7 159.4 6.4 C 159.1 5.9 158.9 5.3 158.9 4.6 C 158.9 3.4 159.3 2.4 160.1 1.6 C 160.8 0.9 161.9 0.5 163.1 0.5 C 163.1 0.5 163.1 0.5 163.1 0.5 Z M 171.5 0.7 L 174.5 0.7 L 178.3 14 L 175.3 14 L 174.6 11.3 L 170.9 11.3 L 170.2 14 L 167.5 14 L 171.5 0.7 Z M 174.1 9 L 172.7 3.5 L 171.4 9 L 174.1 9 Z M 187.5 0.7 L 190.4 0.7 L 190.4 6.1 L 193.6 6.1 L 193.6 0.7 L 196.6 0.7 L 196.6 14 L 193.6 14 L 193.6 8.6 L 190.4 8.6 L 190.4 14 L 187.5 14 L 187.5 0.7 Z M 200.8 0.7 L 203.8 0.7 L 207.6 14 L 204.6 14 L 203.9 11.3 L 200.2 11.3 L 199.5 14 L 196.8 14 L 200.8 0.7 Z M 203.4 9 L 202 3.5 L 200.7 9 L 203.4 9 Z M 208.1 0.7 L 211 0.7 L 211 11.5 L 215.3 11.5 L 215.3 14 L 208.1 14 L 208.1 0.7 Z M 218.4 0.7 L 221.3 0.7 L 225.1 14 L 222.1 14 L 221.5 11.3 L 217.7 11.3 L 217.1 14 L 214.4 14 L 218.4 0.7 Z M 220.9 9 L 219.6 3.5 L 218.3 9 L 220.9 9 Z M 225.7 0.7 L 228.6 0.7 L 228.6 11.5 L 232.9 11.5 L 232.9 14 L 225.7 14 L 225.7 0.7 Z M 235.9 0.7 L 238.9 0.7 L 242.7 14 L 239.7 14 L 239 11.3 L 235.3 11.3 L 234.6 14 L 231.9 14 L 235.9 0.7 Z M 238.5 9 L 237.1 3.5 L 235.8 9 L 238.5 9 Z M 243.1 0.7 L 246.3 0.7 L 249.8 9 L 249.8 0.7 L 252 0.7 L 252 14 L 249.4 14 L 245.4 4.4 L 245.4 14 L 243.1 14 L 243.1 0.7 Z M 264.5 5.4 C 264.5 5.4 261.9 4.8 261.9 4.8 C 262.3 1.9 263.8 0.5 266.3 0.5 C 267.6 0.5 268.7 0.8 269.4 1.6 C 270.1 2.3 270.4 3.3 270.4 4.4 C 270.4 5.5 270 6.6 269.2 7.6 C 268.5 8.7 267 10 264.8 11.4 C 264.84 11.4 270.6 11.4 270.6 11.4 L 270.4 14 L 261.9 14 C 261.9 14 261.86 11.4 261.9 11.4 C 264.3 9.3 265.8 7.8 266.4 7 C 267 6.1 267.3 5.3 267.3 4.5 C 267.3 3.4 266.9 2.9 266.1 2.9 C 265.6 2.9 265.2 3.1 265 3.5 C 264.8 3.9 264.6 4.6 264.5 5.4 Z M 280.5 7.2 C 280.5 9.6 280.1 11.4 279.4 12.5 C 278.8 13.6 277.6 14.2 276 14.2 C 274.4 14.2 273.2 13.6 272.6 12.4 C 271.9 11.3 271.6 9.6 271.6 7.5 C 271.6 5.1 271.9 3.3 272.6 2.2 C 273.3 1 274.5 0.5 276 0.5 C 277.7 0.5 278.8 1.1 279.5 2.2 C 280.2 3.4 280.5 5.1 280.5 7.2 Z M 277.4 7.3 C 277.4 5.3 277.3 4 277.1 3.5 C 276.9 2.9 276.6 2.6 276 2.6 C 275.5 2.6 275.2 2.8 275 3.3 C 274.8 3.8 274.7 5.1 274.7 7.3 C 274.7 9.5 274.8 10.8 275 11.3 C 275.2 11.8 275.5 12.1 276 12.1 C 276.5 12.1 276.9 11.8 277.1 11.4 C 277.3 10.9 277.4 9.6 277.4 7.3 Z M 283.8 5.4 C 283.8 5.4 281.1 4.8 281.1 4.8 C 281.5 1.9 283 0.5 285.5 0.5 C 286.9 0.5 287.9 0.8 288.6 1.6 C 289.3 2.3 289.7 3.3 289.7 4.4 C 289.7 5.5 289.3 6.6 288.5 7.6 C 287.7 8.7 286.2 10 284.1 11.4 C 284.09 11.4 289.9 11.4 289.9 11.4 L 289.6 14 L 281.1 14 C 281.1 14 281.11 11.4 281.1 11.4 C 283.5 9.3 285.1 7.8 285.7 7 C 286.3 6.1 286.6 5.3 286.6 4.5 C 286.6 3.4 286.2 2.9 285.3 2.9 C 284.8 2.9 284.5 3.1 284.2 3.5 C 284 3.9 283.9 4.6 283.8 5.4 Z M 293.4 5.4 C 293.4 5.4 290.7 4.8 290.7 4.8 C 291.2 1.9 292.6 0.5 295.1 0.5 C 296.5 0.5 297.5 0.8 298.2 1.6 C 298.9 2.3 299.3 3.3 299.3 4.4 C 299.3 5.5 298.9 6.6 298.1 7.6 C 297.3 8.7 295.9 10 293.7 11.4 C 293.72 11.4 299.5 11.4 299.5 11.4 L 299.3 14 L 290.7 14 C 290.7 14 290.73 11.4 290.7 11.4 C 293.2 9.3 294.7 7.8 295.3 7 C 295.9 6.1 296.2 5.3 296.2 4.5 C 296.2 3.4 295.8 2.9 295 2.9 C 294.5 2.9 294.1 3.1 293.9 3.5 C 293.6 3.9 293.5 4.6 293.4 5.4 Z M 301 4.1 L 303.7 4.1 L 303.7 7.1 L 301 7.1 L 301 4.1 Z M 301 11.1 L 303.7 11.1 L 303.7 14 L 301 14 L 301 11.1 Z " stroke="none" fill="#000"/>
  </g>
</svg>