<?xml version="1.0" standalone="no"?>
<!DOCTYPE svg PUBLIC "-//W3C//DTD SVG 1.1//EN" "http://www.w3.org/Graphics/SVG/1.1/DTD/svg11.dtd">
<svg xmlns="http://www.w3.org/2000/svg" version="1.1" width="310px" height="53.6px" viewBox="0 -10 310 53.6" style="top:-10px">
  <desc>PLARIDEL</desc>
  <defs/>
  <g id="Polygon17612">
    <path d="M 68.8 9.8 C 68.8 4.5 68.8 3.5 68.7 2.4 C 68.6 1.3 68.3 0.7 67.2 0.5 C 66.9 0.4 66.4 0.4 66 0.4 C 65.9 0.4 65.8 0.3 65.8 0.2 C 65.8 0 65.9 -0.1 66.3 -0.1 C 67.9 -0.1 69.9 0 70.2 0 C 71 0 72.9 -0.1 74.5 -0.1 C 78.8 -0.1 80.4 1.3 80.9 1.9 C 81.7 2.6 82.6 4.1 82.6 5.9 C 82.6 10.8 79 14.1 74.2 14.1 C 74 14.1 73.6 14.1 73.5 14.1 C 73.3 14.1 73.1 14 73.1 13.8 C 73.1 13.6 73.3 13.5 74 13.5 C 77.3 13.5 79.9 11.1 79.9 7.9 C 79.9 6.8 79.8 4.5 78 2.6 C 76.2 0.8 74.1 0.9 73.3 0.9 C 72.7 0.9 72.2 1 71.8 1.1 C 71.6 1.2 71.6 1.4 71.6 1.8 C 71.6 1.8 71.6 15.9 71.6 15.9 C 71.6 19.2 71.6 21.9 71.7 23.3 C 71.8 24.3 72.1 25.1 73.1 25.2 C 73.6 25.3 74.3 25.4 74.6 25.4 C 74.8 25.4 74.9 25.5 74.9 25.6 C 74.9 25.7 74.7 25.8 74.3 25.8 C 72.5 25.8 70.3 25.7 70.1 25.7 C 70 25.7 67.9 25.8 66.8 25.8 C 66.5 25.8 66.3 25.8 66.3 25.6 C 66.3 25.5 66.4 25.4 66.6 25.4 C 66.9 25.4 67.3 25.3 67.6 25.2 C 68.3 25.1 68.4 24.3 68.6 23.3 C 68.8 21.9 68.8 19.2 68.8 15.9 C 68.8 15.9 68.8 9.8 68.8 9.8 Z M 93.8 16 C 93.8 21 94 23.2 94.6 23.8 C 95.1 24.4 96 24.6 98.7 24.6 C 100.5 24.6 102 24.6 102.9 23.6 C 103.3 23 103.6 22.2 103.8 21.5 C 103.8 21.2 103.9 21.1 104.1 21.1 C 104.2 21.1 104.3 21.2 104.3 21.6 C 104.3 22 104 24 103.8 25 C 103.5 25.8 103.4 25.9 101.6 25.9 C 99.1 25.9 97.3 25.9 95.9 25.8 C 94.5 25.8 93.4 25.7 92.4 25.7 C 92.3 25.7 91.7 25.8 91 25.8 C 90.3 25.8 89.5 25.8 89 25.8 C 88.7 25.8 88.5 25.8 88.5 25.6 C 88.5 25.5 88.6 25.4 88.8 25.4 C 89.1 25.4 89.5 25.3 89.8 25.2 C 90.5 25.1 90.6 24.3 90.8 23.3 C 91 21.9 91 19.2 91 15.9 C 91 15.9 91 9.8 91 9.8 C 91 4.5 91 3.5 90.9 2.4 C 90.8 1.3 90.5 0.7 89.4 0.5 C 89.1 0.4 88.6 0.4 88.2 0.4 C 88.1 0.4 88 0.3 88 0.2 C 88 0 88.1 -0.1 88.5 -0.1 C 90.1 -0.1 92.2 0 92.4 0 C 92.6 0 95.1 -0.1 96.1 -0.1 C 96.5 -0.1 96.6 0 96.6 0.2 C 96.6 0.3 96.5 0.4 96.4 0.4 C 96.1 0.4 95.7 0.4 95.2 0.5 C 94.2 0.7 94 1.2 93.9 2.4 C 93.8 3.5 93.8 4.5 93.8 9.8 C 93.8 9.8 93.8 16 93.8 16 Z M 117.2 0.8 C 117.6 -0.4 117.8 -0.6 118 -0.6 C 118.2 -0.6 118.3 -0.4 118.7 0.7 C 119.3 2 124.6 16.1 126.7 21.3 C 128 24.4 129 24.9 129.7 25.1 C 130.2 25.3 130.7 25.4 131.1 25.4 C 131.3 25.4 131.4 25.4 131.4 25.6 C 131.4 25.8 131.1 25.8 130.7 25.8 C 130.2 25.8 127.7 25.8 125.3 25.8 C 124.7 25.7 124.3 25.7 124.3 25.5 C 124.3 25.4 124.4 25.3 124.5 25.3 C 124.7 25.2 125 24.9 124.7 24.4 C 124.7 24.4 121.6 15.9 121.6 15.9 C 121.5 15.8 121.4 15.7 121.2 15.7 C 121.2 15.7 113.9 15.7 113.9 15.7 C 113.7 15.7 113.6 15.8 113.5 16 C 113.5 16 111.5 22.1 111.5 22.1 C 111.2 22.9 111 23.7 111 24.4 C 111 25 111.7 25.4 112.3 25.4 C 112.3 25.4 112.6 25.4 112.6 25.4 C 112.9 25.4 113 25.4 113 25.6 C 113 25.8 112.8 25.8 112.5 25.8 C 111.6 25.8 110.2 25.7 109.8 25.7 C 109.4 25.7 107.5 25.8 105.9 25.8 C 105.5 25.8 105.3 25.8 105.3 25.6 C 105.3 25.4 105.4 25.4 105.6 25.4 C 105.8 25.4 106.3 25.3 106.6 25.3 C 108.1 25.1 108.8 23.8 109.4 22.1 C 109.4 22.1 117.2 0.8 117.2 0.8 Z M 120.8 14.5 C 121 14.5 121 14.4 120.9 14.2 C 120.9 14.2 117.7 5 117.7 5 C 117.5 4.5 117.3 4.5 117.2 5 C 117.2 5 114.1 14.2 114.1 14.2 C 114.1 14.4 114.1 14.5 114.2 14.5 C 114.2 14.5 120.8 14.5 120.8 14.5 Z M 137 9.8 C 137 4.5 137 3.5 136.9 2.4 C 136.9 1.3 136.6 0.7 135.5 0.5 C 135.2 0.4 134.6 0.4 134.3 0.4 C 134.1 0.4 134 0.3 134 0.2 C 134 0 134.2 -0.1 134.6 -0.1 C 136.1 -0.1 138.3 0 138.4 0 C 138.8 0 141.4 -0.1 142.5 -0.1 C 144.6 -0.1 146.9 0.1 148.8 1.4 C 149.6 2 151.1 3.7 151.1 6.1 C 151.1 8.6 150.1 11.1 147 14 C 149.8 17.6 152.1 20.7 154.1 22.8 C 156 24.7 157.4 25.1 158.3 25.3 C 159 25.4 159.4 25.4 159.6 25.4 C 159.8 25.4 159.9 25.5 159.9 25.6 C 159.9 25.8 159.7 25.8 159.1 25.8 C 159.1 25.8 156.7 25.8 156.7 25.8 C 154.8 25.8 153.9 25.7 153 25.2 C 151.5 24.4 150.3 22.7 148.4 20.1 C 146.9 18.3 145.3 16 144.6 15.1 C 144.5 14.9 144.4 14.9 144.2 14.9 C 144.2 14.9 140 14.8 140 14.8 C 139.8 14.8 139.7 14.9 139.7 15.1 C 139.7 15.1 139.7 15.9 139.7 15.9 C 139.7 19.2 139.7 21.9 139.9 23.3 C 140 24.3 140.2 25.1 141.2 25.2 C 141.7 25.3 142.5 25.4 142.8 25.4 C 143 25.4 143.1 25.5 143.1 25.6 C 143.1 25.7 142.9 25.8 142.5 25.8 C 140.6 25.8 138.5 25.7 138.3 25.7 C 138.3 25.7 136.1 25.8 135.1 25.8 C 134.7 25.8 134.5 25.8 134.5 25.6 C 134.5 25.5 134.6 25.4 134.8 25.4 C 135.1 25.4 135.5 25.3 135.8 25.2 C 136.5 25.1 136.7 24.3 136.8 23.3 C 137 21.9 137 19.2 137 15.9 C 137 15.9 137 9.8 137 9.8 Z M 139.7 12.8 C 139.7 13 139.8 13.1 140 13.2 C 140.5 13.6 142.1 13.8 143.6 13.8 C 144.4 13.8 145.4 13.7 146.2 13.1 C 147.4 12.3 148.2 10.5 148.2 7.9 C 148.2 3.6 146 1 142.3 1 C 141.3 1 140.4 1.1 140 1.2 C 139.8 1.3 139.7 1.4 139.7 1.6 C 139.7 1.6 139.7 12.8 139.7 12.8 Z M 166.4 15.9 C 166.4 19.2 166.4 21.9 166.6 23.3 C 166.7 24.3 166.9 25.1 167.9 25.2 C 168.4 25.3 169.2 25.4 169.5 25.4 C 169.7 25.4 169.8 25.5 169.8 25.6 C 169.8 25.7 169.6 25.8 169.2 25.8 C 167.3 25.8 165.2 25.7 165 25.7 C 164.8 25.7 162.7 25.8 161.6 25.8 C 161.2 25.8 161.1 25.8 161.1 25.6 C 161.1 25.5 161.1 25.4 161.4 25.4 C 161.7 25.4 162.1 25.3 162.4 25.2 C 163.1 25.1 163.2 24.3 163.4 23.3 C 163.5 21.9 163.5 19.2 163.5 15.9 C 163.5 15.9 163.5 9.8 163.5 9.8 C 163.5 4.5 163.5 3.5 163.5 2.4 C 163.4 1.3 163.1 0.7 162.3 0.5 C 161.9 0.4 161.5 0.4 161.2 0.4 C 161.1 0.4 161 0.3 161 0.2 C 161 0 161.1 -0.1 161.5 -0.1 C 162.7 -0.1 164.8 0 165 0 C 165.2 0 167.3 -0.1 168.4 -0.1 C 168.7 -0.1 168.9 0 168.9 0.2 C 168.9 0.3 168.8 0.4 168.6 0.4 C 168.4 0.4 168.2 0.4 167.8 0.5 C 166.8 0.7 166.6 1.2 166.5 2.4 C 166.4 3.5 166.4 4.5 166.4 9.8 C 166.4 9.8 166.4 15.9 166.4 15.9 Z M 179.3 9.8 C 179.3 4.5 179.3 3.5 179.3 2.4 C 179.2 1.3 178.9 0.7 177.8 0.5 C 177.5 0.4 176.9 0.4 176.6 0.4 C 176.5 0.4 176.3 0.3 176.3 0.2 C 176.3 0 176.5 -0.1 176.9 -0.1 C 178.4 -0.1 180.6 0 180.8 0 C 181.2 0 183.3 -0.1 185.4 -0.1 C 188.8 -0.1 195.1 -0.4 199.2 3.8 C 200.9 5.6 202.5 8.4 202.5 12.5 C 202.5 16.8 200.7 20.2 198.8 22.2 C 197.3 23.7 194.2 26.1 188.4 26.1 C 186.9 26.1 185.1 26 183.6 25.9 C 182.1 25.8 180.9 25.7 180.8 25.7 C 180.7 25.7 180.1 25.7 179.4 25.8 C 178.7 25.8 177.9 25.8 177.4 25.8 C 177 25.8 176.9 25.8 176.9 25.6 C 176.9 25.5 176.9 25.4 177.1 25.4 C 177.4 25.4 177.9 25.3 178.2 25.2 C 178.8 25.1 179 24.3 179.2 23.3 C 179.3 21.9 179.3 19.2 179.3 15.9 C 179.3 15.9 179.3 9.8 179.3 9.8 Z M 182.2 13.6 C 182.2 17.2 182.2 20.3 182.3 21 C 182.3 21.9 182.4 23.2 182.7 23.6 C 183.1 24.3 184.4 25 188.5 25 C 191.7 25 194.6 23.8 196.7 21.8 C 198.4 20 199.4 16.7 199.4 13.6 C 199.4 9.2 197.5 6.4 196.1 4.9 C 192.9 1.5 189 1.1 184.9 1.1 C 184.2 1.1 182.9 1.2 182.7 1.3 C 182.3 1.4 182.2 1.6 182.2 2 C 182.2 3.2 182.2 6.7 182.2 9.3 C 182.2 9.3 182.2 13.6 182.2 13.6 Z M 211.1 9.8 C 211.1 4.5 211.1 3.5 211.1 2.4 C 211 1.3 210.7 0.7 209.6 0.5 C 209.3 0.4 208.7 0.4 208.4 0.4 C 208.3 0.4 208.1 0.3 208.1 0.2 C 208.1 0 208.3 -0.1 208.7 -0.1 C 209.5 -0.1 210.4 -0.1 211.2 -0.1 C 211.2 -0.1 212.6 0 212.6 0 C 212.8 0 219.6 0 220.4 0 C 221.1 -0.1 221.6 -0.1 221.9 -0.2 C 222.1 -0.2 222.2 -0.4 222.4 -0.4 C 222.5 -0.4 222.5 -0.2 222.5 -0.1 C 222.5 0.2 222.4 0.6 222.2 1.5 C 222.2 1.9 222.1 3.4 222.1 3.8 C 222 4 222 4.2 221.8 4.2 C 221.6 4.2 221.6 4 221.6 3.7 C 221.6 3.5 221.5 2.9 221.4 2.5 C 221.1 2 220.8 1.5 218.9 1.3 C 218.3 1.3 214.6 1.2 214.2 1.2 C 214.1 1.2 214 1.3 214 1.6 C 214 1.6 214 11 214 11 C 214 11.3 214 11.4 214.2 11.4 C 214.7 11.4 218.9 11.4 219.7 11.3 C 220.5 11.3 221 11.2 221.3 10.8 C 221.5 10.6 221.7 10.4 221.8 10.4 C 221.9 10.4 222 10.5 222 10.7 C 222 10.9 221.8 11.5 221.7 12.6 C 221.6 13.3 221.6 14.5 221.6 14.8 C 221.6 15.1 221.6 15.4 221.3 15.4 C 221.1 15.4 221.1 15.3 221.1 15.1 C 221.1 14.8 221.1 14.4 220.9 14 C 220.8 13.5 220.5 12.9 219.2 12.8 C 218.2 12.7 214.8 12.6 214.3 12.6 C 214.1 12.6 214 12.7 214 12.9 C 214 12.9 214 15.9 214 15.9 C 214 17.1 214 21 214 21.8 C 214.1 24.1 214.6 24.6 218 24.6 C 218.9 24.6 220.4 24.6 221.3 24.2 C 222.2 23.8 222.6 23.1 222.8 21.7 C 222.9 21.3 223 21.2 223.1 21.2 C 223.3 21.2 223.3 21.5 223.3 21.7 C 223.3 22 223.1 24.3 222.9 25 C 222.7 25.9 222.4 25.9 221 25.9 C 218.5 25.9 216.6 25.9 215.2 25.8 C 213.9 25.8 213.1 25.7 212.6 25.7 C 212.5 25.7 211.9 25.7 211.2 25.8 C 210.5 25.8 209.7 25.8 209.2 25.8 C 208.8 25.8 208.7 25.8 208.7 25.6 C 208.7 25.5 208.7 25.4 208.9 25.4 C 209.2 25.4 209.7 25.3 210 25.2 C 210.7 25.1 210.8 24.3 211 23.3 C 211.1 21.9 211.1 19.2 211.1 15.9 C 211.1 15.9 211.1 9.8 211.1 9.8 Z M 235.6 16 C 235.6 21 235.8 23.2 236.4 23.8 C 236.9 24.4 237.8 24.6 240.5 24.6 C 242.3 24.6 243.8 24.6 244.6 23.6 C 245.1 23 245.4 22.2 245.5 21.5 C 245.6 21.2 245.6 21.1 245.9 21.1 C 246 21.1 246.1 21.2 246.1 21.6 C 246.1 22 245.8 24 245.5 25 C 245.3 25.8 245.2 25.9 243.4 25.9 C 240.9 25.9 239.1 25.9 237.7 25.8 C 236.2 25.8 235.2 25.7 234.2 25.7 C 234 25.7 233.5 25.8 232.8 25.8 C 232.1 25.8 231.3 25.8 230.8 25.8 C 230.4 25.8 230.3 25.8 230.3 25.6 C 230.3 25.5 230.3 25.4 230.5 25.4 C 230.9 25.4 231.3 25.3 231.6 25.2 C 232.3 25.1 232.4 24.3 232.6 23.3 C 232.7 21.9 232.7 19.2 232.7 15.9 C 232.7 15.9 232.7 9.8 232.7 9.8 C 232.7 4.5 232.7 3.5 232.7 2.4 C 232.6 1.3 232.3 0.7 231.2 0.5 C 230.9 0.4 230.3 0.4 230 0.4 C 229.9 0.4 229.8 0.3 229.8 0.2 C 229.8 0 229.9 -0.1 230.3 -0.1 C 231.9 -0.1 234 0 234.2 0 C 234.4 0 236.9 -0.1 237.9 -0.1 C 238.3 -0.1 238.4 0 238.4 0.2 C 238.4 0.3 238.3 0.4 238.2 0.4 C 237.9 0.4 237.4 0.4 237 0.5 C 236 0.7 235.8 1.2 235.7 2.4 C 235.6 3.5 235.6 4.5 235.6 9.8 C 235.6 9.8 235.6 16 235.6 16 Z " stroke="none" fill="#000"/>
  </g>
</svg>