<?xml version="1.0" standalone="no"?>
<!DOCTYPE svg PUBLIC "-//W3C//DTD SVG 1.1//EN" "http://www.w3.org/Graphics/SVG/1.1/DTD/svg11.dtd">
<svg xmlns="http://www.w3.org/2000/svg" version="1.1" width="113px" height="18px" viewBox="0 -3 113 18" style="top:-3px">
  <desc>Dibuho ni Marco Pangilinan</desc>
  <defs/>
  <g id="Polygon33223">
    <path d="M 1.3 7.9 C 1.3 7.9 2.74 7.86 2.7 7.9 C 3.1 7.9 3.3 7.8 3.6 7.7 C 3.8 7.6 4 7.4 4.2 7.3 C 4.4 7.1 4.5 6.9 4.6 6.7 C 4.8 6.5 4.9 6.3 4.9 6.1 C 5 5.8 5 5.7 5.1 5.5 C 5.1 5.3 5.1 5.1 5.1 5 C 5.1 4.5 5 4 4.7 3.7 C 4.5 3.4 4.1 3.3 3.7 3.3 C 3.7 3.27 2.3 3.3 2.3 3.3 L 1.3 7.9 Z M 1.4 2.3 C 1.4 2.3 3.72 2.35 3.7 2.3 C 4.5 2.3 5.2 2.6 5.6 3 C 6 3.5 6.2 4.1 6.2 5 C 6.2 5.2 6.2 5.4 6.2 5.7 C 6.1 5.9 6.1 6.2 6 6.4 C 5.9 6.6 5.8 6.9 5.7 7.1 C 5.5 7.3 5.4 7.5 5.2 7.7 C 5 7.9 4.8 8 4.7 8.2 C 4.5 8.3 4.3 8.4 4.1 8.5 C 3.8 8.6 3.6 8.7 3.3 8.7 C 3 8.8 2.7 8.8 2.3 8.8 C 2.27 8.77 0 8.8 0 8.8 L 1.4 2.3 Z M 7.5 2.3 L 8.6 2.3 L 8.4 3.3 L 7.3 3.3 L 7.5 2.3 Z M 7.2 4.1 L 8.2 4.1 L 7.2 8.8 L 6.2 8.8 L 7.2 4.1 Z M 9.5 2.3 L 10.6 2.3 L 10.1 4.7 C 10.1 4.7 10.1 4.67 10.1 4.7 C 10.4 4.2 10.9 4 11.5 4 C 11.8 4 12 4 12.3 4.1 C 12.5 4.2 12.7 4.4 12.8 4.5 C 13 4.7 13.1 4.9 13.1 5.1 C 13.2 5.4 13.3 5.6 13.3 5.9 C 13.3 6.3 13.2 6.6 13.1 7 C 13 7.4 12.9 7.7 12.7 8 C 12.4 8.2 12.2 8.5 11.9 8.6 C 11.6 8.8 11.2 8.9 10.8 8.9 C 10.5 8.9 10.2 8.8 9.9 8.7 C 9.6 8.6 9.4 8.3 9.3 8 C 9.29 7.99 9.3 8 9.3 8 L 9.1 8.8 L 8.2 8.8 L 9.5 2.3 Z M 11.2 4.8 C 10.9 4.8 10.7 4.9 10.5 5 C 10.3 5.1 10.1 5.3 10 5.5 C 9.9 5.7 9.8 5.9 9.7 6.2 C 9.6 6.4 9.6 6.7 9.6 6.9 C 9.6 7.3 9.7 7.6 9.9 7.8 C 10 8 10.3 8.1 10.7 8.1 C 11 8.1 11.2 8 11.4 7.9 C 11.6 7.8 11.7 7.6 11.9 7.4 C 12 7.2 12.1 7 12.1 6.7 C 12.2 6.5 12.2 6.2 12.2 6 C 12.2 5.6 12.2 5.3 12 5.1 C 11.8 4.9 11.5 4.8 11.2 4.8 Z M 17.6 8.8 L 16.6 8.8 L 16.8 8.1 C 16.8 8.1 16.74 8.08 16.7 8.1 C 16.6 8.3 16.3 8.5 16 8.7 C 15.8 8.8 15.5 8.9 15.1 8.9 C 14.7 8.9 14.3 8.8 14.1 8.6 C 13.9 8.3 13.8 8 13.8 7.7 C 13.8 7.6 13.8 7.5 13.8 7.4 C 13.8 7.3 13.8 7.2 13.8 7.1 C 13.82 7.09 14.4 4.1 14.4 4.1 L 15.5 4.1 C 15.5 4.1 14.88 6.99 14.9 7 C 14.9 7.1 14.8 7.1 14.8 7.2 C 14.8 7.3 14.8 7.4 14.8 7.4 C 14.8 7.5 14.8 7.5 14.8 7.6 C 14.8 7.7 14.8 7.7 14.9 7.8 C 14.9 7.9 15 8 15.1 8 C 15.2 8.1 15.3 8.1 15.5 8.1 C 15.7 8.1 15.9 8 16.1 8 C 16.2 7.9 16.4 7.8 16.5 7.6 C 16.6 7.5 16.7 7.3 16.8 7.2 C 16.9 7 17 6.8 17 6.6 C 16.99 6.64 17.5 4.1 17.5 4.1 L 18.5 4.1 L 17.6 8.8 Z M 19.8 2.3 L 20.9 2.3 L 20.4 4.8 C 20.4 4.8 20.38 4.78 20.4 4.8 C 20.5 4.5 20.8 4.4 21.1 4.2 C 21.3 4.1 21.6 4 21.9 4 C 22.4 4 22.7 4.1 22.9 4.3 C 23.2 4.6 23.3 4.9 23.3 5.2 C 23.3 5.3 23.3 5.4 23.3 5.5 C 23.2 5.6 23.2 5.7 23.2 5.8 C 23.22 5.8 22.6 8.8 22.6 8.8 L 21.6 8.8 C 21.6 8.8 22.17 5.9 22.2 5.9 C 22.2 5.8 22.2 5.8 22.2 5.7 C 22.2 5.6 22.2 5.5 22.2 5.5 C 22.2 5.4 22.2 5.4 22.2 5.3 C 22.2 5.2 22.2 5.2 22.2 5.1 C 22.1 5 22.1 4.9 22 4.9 C 21.9 4.8 21.7 4.8 21.5 4.8 C 21.3 4.8 21.1 4.8 21 4.9 C 20.8 5 20.7 5.1 20.6 5.3 C 20.4 5.4 20.3 5.5 20.2 5.7 C 20.2 5.9 20.1 6.1 20.1 6.3 C 20.05 6.25 19.5 8.8 19.5 8.8 L 18.5 8.8 L 19.8 2.3 Z M 26.3 4.8 C 26 4.8 25.8 4.9 25.6 5 C 25.4 5.1 25.3 5.3 25.1 5.5 C 25 5.7 24.9 5.9 24.8 6.2 C 24.8 6.4 24.7 6.7 24.7 6.9 C 24.7 7.2 24.8 7.5 25 7.7 C 25.2 8 25.4 8.1 25.8 8.1 C 26.1 8.1 26.3 8 26.5 7.9 C 26.7 7.8 26.8 7.6 27 7.4 C 27.1 7.2 27.2 7 27.3 6.7 C 27.3 6.5 27.4 6.2 27.4 6 C 27.4 5.7 27.3 5.4 27.1 5.1 C 26.9 4.9 26.7 4.8 26.3 4.8 Z M 25.7 8.9 C 25.1 8.9 24.6 8.7 24.2 8.4 C 23.9 8 23.7 7.5 23.7 6.9 C 23.7 6.5 23.8 6.1 23.9 5.8 C 24 5.4 24.2 5.1 24.4 4.9 C 24.7 4.6 24.9 4.4 25.3 4.2 C 25.6 4.1 26 4 26.4 4 C 27 4 27.5 4.2 27.9 4.5 C 28.2 4.8 28.4 5.3 28.4 6 C 28.4 6.4 28.3 6.8 28.2 7.1 C 28.1 7.5 27.9 7.8 27.7 8.1 C 27.5 8.3 27.2 8.5 26.9 8.7 C 26.5 8.8 26.2 8.9 25.7 8.9 Z M 31.9 4.1 L 32.9 4.1 L 32.8 4.8 C 32.8 4.8 32.77 4.81 32.8 4.8 C 33 4.6 33.2 4.4 33.5 4.2 C 33.7 4.1 34 4 34.4 4 C 34.8 4 35.2 4.1 35.4 4.3 C 35.6 4.6 35.7 4.9 35.7 5.2 C 35.7 5.3 35.7 5.4 35.7 5.5 C 35.7 5.6 35.7 5.7 35.7 5.8 C 35.68 5.8 35.1 8.8 35.1 8.8 L 34 8.8 C 34 8.8 34.63 5.9 34.6 5.9 C 34.6 5.8 34.7 5.8 34.7 5.7 C 34.7 5.6 34.7 5.5 34.7 5.5 C 34.7 5.4 34.7 5.4 34.7 5.3 C 34.7 5.2 34.7 5.2 34.6 5.1 C 34.6 5 34.5 4.9 34.4 4.9 C 34.3 4.8 34.2 4.8 34 4.8 C 33.8 4.8 33.6 4.8 33.4 4.9 C 33.3 5 33.1 5.1 33 5.3 C 32.9 5.4 32.8 5.5 32.7 5.7 C 32.6 5.9 32.6 6.1 32.5 6.3 C 32.52 6.25 32 8.8 32 8.8 L 31 8.8 L 31.9 4.1 Z M 37.3 2.3 L 38.3 2.3 L 38.1 3.3 L 37.1 3.3 L 37.3 2.3 Z M 36.9 4.1 L 37.9 4.1 L 37 8.8 L 36 8.8 L 36.9 4.1 Z M 41.7 2.3 L 43.3 2.3 L 44 7.2 L 44 7.2 L 46.8 2.3 L 48.4 2.3 L 47.1 8.8 L 46 8.8 L 47.1 3.6 L 47.1 3.6 L 44.2 8.8 L 43.3 8.8 L 42.5 3.6 L 42.5 3.6 L 41.5 8.8 L 40.4 8.8 L 41.7 2.3 Z M 49.1 7.5 C 49.1 7.6 49.2 7.7 49.2 7.8 C 49.3 7.9 49.3 7.9 49.4 8 C 49.5 8 49.6 8 49.7 8.1 C 49.8 8.1 49.9 8.1 50 8.1 C 50.2 8.1 50.4 8 50.6 8 C 50.8 7.9 50.9 7.8 51 7.6 C 51.1 7.5 51.2 7.3 51.3 7.1 C 51.3 6.9 51.4 6.7 51.4 6.5 C 51.4 6.5 51.4 6.5 51.4 6.5 C 51.3 6.5 51.2 6.6 51.1 6.6 C 51 6.7 50.9 6.7 50.8 6.7 C 50.6 6.7 50.5 6.7 50.3 6.7 C 50.1 6.7 49.9 6.8 49.7 6.8 C 49.6 6.9 49.4 6.9 49.3 7.1 C 49.2 7.2 49.1 7.3 49.1 7.5 Z M 52.2 7.4 C 52.2 7.5 52.2 7.6 52.2 7.7 C 52.1 7.7 52.1 7.8 52.1 7.9 C 52.1 8 52.2 8 52.2 8 C 52.2 8.1 52.3 8.1 52.4 8.1 C 52.4 8.1 52.5 8.1 52.5 8.1 C 52.6 8.1 52.7 8 52.7 8 C 52.7 8 52.6 8.8 52.6 8.8 C 52.4 8.8 52.3 8.8 52.2 8.9 C 52 8.9 51.9 8.9 51.7 8.9 C 51.6 8.9 51.4 8.8 51.3 8.7 C 51.2 8.6 51.1 8.5 51.1 8.3 C 50.9 8.5 50.7 8.7 50.4 8.8 C 50.1 8.9 49.9 8.9 49.6 8.9 C 49.4 8.9 49.2 8.9 49 8.8 C 48.8 8.8 48.7 8.7 48.5 8.6 C 48.4 8.5 48.3 8.4 48.2 8.2 C 48.2 8 48.1 7.9 48.1 7.7 C 48.1 7.4 48.2 7.1 48.3 6.9 C 48.4 6.7 48.5 6.6 48.7 6.5 C 48.9 6.3 49.1 6.2 49.3 6.2 C 49.6 6.1 49.8 6.1 50.1 6.1 C 50.4 6 50.8 6 51.1 6 C 51.3 6 51.4 5.9 51.5 5.8 C 51.6 5.7 51.6 5.5 51.6 5.4 C 51.6 5.1 51.6 5 51.4 4.9 C 51.2 4.8 51.1 4.8 50.8 4.8 C 50.6 4.8 50.3 4.9 50.1 5 C 49.9 5.1 49.8 5.2 49.7 5.5 C 49.7 5.5 48.7 5.5 48.7 5.5 C 48.8 5.2 48.9 5 49 4.8 C 49.1 4.6 49.3 4.5 49.5 4.3 C 49.7 4.2 49.9 4.1 50.1 4.1 C 50.4 4 50.6 4 50.9 4 C 51.3 4 51.7 4 51.9 4.1 C 52.1 4.2 52.3 4.3 52.4 4.4 C 52.5 4.5 52.6 4.6 52.6 4.8 C 52.6 4.9 52.7 5 52.7 5.1 C 52.7 5.3 52.6 5.5 52.6 5.8 C 52.6 5.8 52.2 7.4 52.2 7.4 Z M 53.9 4.1 L 54.8 4.1 L 54.7 5 C 54.7 5 54.67 5.05 54.7 5 C 54.7 4.9 54.8 4.8 54.9 4.7 C 55 4.5 55.2 4.4 55.3 4.3 C 55.4 4.2 55.5 4.2 55.7 4.1 C 55.8 4 56 4 56.2 4 C 56.2 4 56.3 4 56.4 4 C 56.5 4 56.6 4 56.7 4 C 56.7 4 56.4 5 56.4 5 C 56.4 5 56.3 5 56.3 5 C 56.2 5 56.1 5 56.1 5 C 55.8 5 55.6 5 55.4 5.1 C 55.2 5.2 55 5.3 54.9 5.5 C 54.8 5.7 54.7 5.8 54.6 6 C 54.5 6.3 54.4 6.5 54.4 6.7 C 54.37 6.71 53.9 8.8 53.9 8.8 L 52.9 8.8 L 53.9 4.1 Z M 59.8 5.7 C 59.8 5.4 59.7 5.2 59.5 5 C 59.3 4.9 59.1 4.8 58.8 4.8 C 58.6 4.8 58.3 4.9 58.2 5 C 58 5.1 57.8 5.3 57.7 5.5 C 57.6 5.7 57.5 5.9 57.4 6.2 C 57.3 6.4 57.3 6.7 57.3 6.9 C 57.3 7.1 57.3 7.2 57.4 7.4 C 57.4 7.5 57.5 7.6 57.5 7.7 C 57.6 7.8 57.7 7.9 57.9 8 C 58 8.1 58.1 8.1 58.3 8.1 C 58.6 8.1 58.9 8 59.1 7.8 C 59.3 7.7 59.4 7.5 59.5 7.2 C 59.5 7.2 60.5 7.2 60.5 7.2 C 60.4 7.8 60.1 8.2 59.7 8.5 C 59.3 8.8 58.8 8.9 58.2 8.9 C 57.9 8.9 57.6 8.9 57.4 8.8 C 57.1 8.7 56.9 8.5 56.8 8.3 C 56.6 8.2 56.5 8 56.4 7.7 C 56.3 7.5 56.3 7.2 56.3 6.9 C 56.3 6.5 56.3 6.2 56.5 5.8 C 56.6 5.4 56.8 5.1 57 4.9 C 57.2 4.6 57.5 4.4 57.8 4.2 C 58.1 4.1 58.5 4 58.9 4 C 59.2 4 59.4 4 59.7 4.1 C 59.9 4.2 60.1 4.3 60.2 4.4 C 60.4 4.6 60.5 4.7 60.6 4.9 C 60.7 5.2 60.8 5.4 60.8 5.7 C 60.8 5.7 59.8 5.7 59.8 5.7 Z M 63.7 4.8 C 63.4 4.8 63.2 4.9 63 5 C 62.8 5.1 62.6 5.3 62.5 5.5 C 62.4 5.7 62.3 5.9 62.2 6.2 C 62.2 6.4 62.1 6.7 62.1 6.9 C 62.1 7.2 62.2 7.5 62.4 7.7 C 62.6 8 62.8 8.1 63.2 8.1 C 63.5 8.1 63.7 8 63.9 7.9 C 64.1 7.8 64.2 7.6 64.4 7.4 C 64.5 7.2 64.6 7 64.7 6.7 C 64.7 6.5 64.8 6.2 64.8 6 C 64.8 5.7 64.7 5.4 64.5 5.1 C 64.3 4.9 64.1 4.8 63.7 4.8 Z M 63.1 8.9 C 62.5 8.9 62 8.7 61.6 8.4 C 61.3 8 61.1 7.5 61.1 6.9 C 61.1 6.5 61.2 6.1 61.3 5.8 C 61.4 5.4 61.6 5.1 61.8 4.9 C 62.1 4.6 62.3 4.4 62.7 4.2 C 63 4.1 63.4 4 63.8 4 C 64.4 4 64.9 4.2 65.3 4.5 C 65.6 4.8 65.8 5.3 65.8 6 C 65.8 6.4 65.7 6.8 65.6 7.1 C 65.5 7.5 65.3 7.8 65.1 8.1 C 64.9 8.3 64.6 8.5 64.2 8.7 C 63.9 8.8 63.5 8.9 63.1 8.9 Z M 69.8 2.3 C 69.8 2.3 72.42 2.35 72.4 2.3 C 72.8 2.3 73 2.4 73.3 2.5 C 73.5 2.5 73.7 2.6 73.8 2.7 C 74 2.8 74.1 3 74.2 3.1 C 74.3 3.2 74.3 3.4 74.4 3.5 C 74.4 3.7 74.4 3.8 74.4 4 C 74.4 4.1 74.4 4.2 74.4 4.3 C 74.4 4.3 74.4 4.4 74.4 4.5 C 74.4 4.6 74.4 4.7 74.3 4.8 C 74.3 5 74.2 5.2 74.1 5.3 C 74 5.5 73.9 5.7 73.7 5.8 C 73.5 5.9 73.3 6.1 73.1 6.2 C 72.8 6.3 72.5 6.3 72.1 6.3 C 72.07 6.31 70.1 6.3 70.1 6.3 L 69.6 8.8 L 68.5 8.8 L 69.8 2.3 Z M 70.3 5.4 C 70.3 5.4 72.04 5.39 72 5.4 C 72.3 5.4 72.5 5.4 72.7 5.3 C 72.8 5.2 73 5.1 73 5 C 73.1 4.9 73.2 4.7 73.2 4.6 C 73.3 4.4 73.3 4.3 73.3 4.1 C 73.3 4.1 73.3 4 73.3 3.9 C 73.2 3.8 73.2 3.7 73.1 3.6 C 73 3.5 72.9 3.4 72.8 3.4 C 72.6 3.3 72.5 3.3 72.2 3.3 C 72.23 3.27 70.8 3.3 70.8 3.3 L 70.3 5.4 Z M 75.2 7.5 C 75.2 7.6 75.3 7.7 75.3 7.8 C 75.4 7.9 75.4 7.9 75.5 8 C 75.6 8 75.7 8 75.8 8.1 C 75.9 8.1 76 8.1 76.1 8.1 C 76.3 8.1 76.5 8 76.7 8 C 76.9 7.9 77 7.8 77.1 7.6 C 77.2 7.5 77.3 7.3 77.4 7.1 C 77.4 6.9 77.5 6.7 77.5 6.5 C 77.5 6.5 77.5 6.5 77.5 6.5 C 77.4 6.5 77.3 6.6 77.2 6.6 C 77.1 6.7 77 6.7 76.9 6.7 C 76.7 6.7 76.6 6.7 76.4 6.7 C 76.2 6.7 76 6.8 75.8 6.8 C 75.7 6.9 75.5 6.9 75.4 7.1 C 75.3 7.2 75.2 7.3 75.2 7.5 Z M 78.3 7.4 C 78.3 7.5 78.3 7.6 78.3 7.7 C 78.2 7.7 78.2 7.8 78.2 7.9 C 78.2 8 78.3 8 78.3 8 C 78.3 8.1 78.4 8.1 78.5 8.1 C 78.5 8.1 78.6 8.1 78.6 8.1 C 78.7 8.1 78.8 8 78.8 8 C 78.8 8 78.7 8.8 78.7 8.8 C 78.5 8.8 78.4 8.8 78.3 8.9 C 78.1 8.9 78 8.9 77.8 8.9 C 77.7 8.9 77.5 8.8 77.4 8.7 C 77.3 8.6 77.2 8.5 77.2 8.3 C 77 8.5 76.8 8.7 76.5 8.8 C 76.2 8.9 76 8.9 75.7 8.9 C 75.5 8.9 75.3 8.9 75.1 8.8 C 74.9 8.8 74.8 8.7 74.6 8.6 C 74.5 8.5 74.4 8.4 74.3 8.2 C 74.3 8 74.2 7.9 74.2 7.7 C 74.2 7.4 74.3 7.1 74.4 6.9 C 74.5 6.7 74.6 6.6 74.8 6.5 C 75 6.3 75.2 6.2 75.4 6.2 C 75.7 6.1 75.9 6.1 76.2 6.1 C 76.5 6 76.9 6 77.2 6 C 77.4 6 77.5 5.9 77.6 5.8 C 77.7 5.7 77.7 5.5 77.7 5.4 C 77.7 5.1 77.7 5 77.5 4.9 C 77.3 4.8 77.2 4.8 76.9 4.8 C 76.7 4.8 76.4 4.9 76.2 5 C 76 5.1 75.9 5.2 75.8 5.5 C 75.8 5.5 74.8 5.5 74.8 5.5 C 74.9 5.2 75 5 75.1 4.8 C 75.2 4.6 75.4 4.5 75.6 4.3 C 75.8 4.2 76 4.1 76.2 4.1 C 76.5 4 76.7 4 77 4 C 77.4 4 77.8 4 78 4.1 C 78.2 4.2 78.4 4.3 78.5 4.4 C 78.6 4.5 78.7 4.6 78.7 4.8 C 78.7 4.9 78.8 5 78.8 5.1 C 78.8 5.3 78.7 5.5 78.7 5.8 C 78.7 5.8 78.3 7.4 78.3 7.4 Z M 80 4.1 L 80.9 4.1 L 80.8 4.8 C 80.8 4.8 80.81 4.81 80.8 4.8 C 81 4.6 81.2 4.4 81.5 4.2 C 81.8 4.1 82.1 4 82.4 4 C 82.9 4 83.2 4.1 83.4 4.3 C 83.7 4.6 83.8 4.9 83.8 5.2 C 83.8 5.3 83.8 5.4 83.8 5.5 C 83.8 5.6 83.7 5.7 83.7 5.8 C 83.73 5.8 83.1 8.8 83.1 8.8 L 82.1 8.8 C 82.1 8.8 82.67 5.9 82.7 5.9 C 82.7 5.8 82.7 5.8 82.7 5.7 C 82.7 5.6 82.7 5.5 82.7 5.5 C 82.7 5.4 82.7 5.4 82.7 5.3 C 82.7 5.2 82.7 5.2 82.7 5.1 C 82.6 5 82.6 4.9 82.5 4.9 C 82.4 4.8 82.2 4.8 82 4.8 C 81.8 4.8 81.6 4.8 81.5 4.9 C 81.3 5 81.2 5.1 81.1 5.3 C 80.9 5.4 80.8 5.5 80.8 5.7 C 80.7 5.9 80.6 6.1 80.6 6.3 C 80.56 6.25 80 8.8 80 8.8 L 79 8.8 L 80 4.1 Z M 85.3 6.8 C 85.3 7 85.3 7.1 85.4 7.3 C 85.4 7.4 85.4 7.5 85.5 7.6 C 85.6 7.7 85.7 7.8 85.8 7.9 C 86 7.9 86.1 8 86.3 8 C 86.5 8 86.8 7.9 87 7.8 C 87.2 7.6 87.3 7.5 87.5 7.3 C 87.6 7.1 87.7 6.9 87.7 6.6 C 87.8 6.4 87.8 6.1 87.8 5.9 C 87.8 5.6 87.7 5.3 87.6 5.1 C 87.4 4.9 87.1 4.8 86.8 4.8 C 86.5 4.8 86.3 4.9 86.1 5 C 85.9 5.1 85.8 5.3 85.7 5.5 C 85.5 5.7 85.5 5.9 85.4 6.1 C 85.3 6.4 85.3 6.6 85.3 6.8 Z M 88.3 8.6 C 88.2 9 88.1 9.3 88 9.6 C 87.9 9.8 87.7 10 87.5 10.2 C 87.3 10.3 87.1 10.4 86.9 10.5 C 86.6 10.6 86.3 10.6 85.9 10.6 C 85.6 10.6 85.4 10.6 85.2 10.5 C 84.9 10.5 84.7 10.4 84.5 10.3 C 84.3 10.2 84.2 10 84.1 9.8 C 84 9.6 83.9 9.4 83.9 9.1 C 83.9 9.1 84.9 9.1 84.9 9.1 C 85 9.4 85.1 9.6 85.3 9.7 C 85.5 9.8 85.7 9.9 86 9.9 C 86.2 9.9 86.4 9.8 86.6 9.8 C 86.7 9.7 86.8 9.6 86.9 9.5 C 87 9.4 87.1 9.2 87.2 9.1 C 87.2 8.9 87.3 8.7 87.3 8.5 C 87.32 8.55 87.4 8.1 87.4 8.1 C 87.4 8.1 87.4 8.07 87.4 8.1 C 87.1 8.5 86.6 8.8 86.1 8.8 C 85.5 8.8 85.1 8.6 84.7 8.3 C 84.4 7.9 84.3 7.5 84.3 6.9 C 84.3 6.5 84.3 6.2 84.4 5.8 C 84.5 5.5 84.7 5.2 84.9 4.9 C 85.1 4.6 85.3 4.4 85.6 4.2 C 85.9 4.1 86.3 4 86.7 4 C 87 4 87.3 4.1 87.6 4.2 C 87.8 4.3 88 4.6 88.1 4.9 C 88.12 4.9 88.1 4.9 88.1 4.9 L 88.3 4.1 L 89.2 4.1 C 89.2 4.1 88.26 8.65 88.3 8.6 Z M 90.5 2.3 L 91.5 2.3 L 91.3 3.3 L 90.3 3.3 L 90.5 2.3 Z M 90.1 4.1 L 91.1 4.1 L 90.2 8.8 L 89.2 8.8 L 90.1 4.1 Z M 92.5 2.3 L 93.5 2.3 L 92.2 8.8 L 91.1 8.8 L 92.5 2.3 Z M 94.5 2.3 L 95.5 2.3 L 95.3 3.3 L 94.3 3.3 L 94.5 2.3 Z M 94.1 4.1 L 95.1 4.1 L 94.2 8.8 L 93.1 8.8 L 94.1 4.1 Z M 96.1 4.1 L 97 4.1 L 96.9 4.8 C 96.9 4.8 96.92 4.81 96.9 4.8 C 97.1 4.6 97.3 4.4 97.6 4.2 C 97.9 4.1 98.2 4 98.5 4 C 99 4 99.3 4.1 99.6 4.3 C 99.8 4.6 99.9 4.9 99.9 5.2 C 99.9 5.3 99.9 5.4 99.9 5.5 C 99.9 5.6 99.9 5.7 99.8 5.8 C 99.84 5.8 99.2 8.8 99.2 8.8 L 98.2 8.8 C 98.2 8.8 98.78 5.9 98.8 5.9 C 98.8 5.8 98.8 5.8 98.8 5.7 C 98.8 5.6 98.9 5.5 98.9 5.5 C 98.9 5.4 98.9 5.4 98.9 5.3 C 98.8 5.2 98.8 5.2 98.8 5.1 C 98.7 5 98.7 4.9 98.6 4.9 C 98.5 4.8 98.3 4.8 98.1 4.8 C 97.9 4.8 97.8 4.8 97.6 4.9 C 97.4 5 97.3 5.1 97.2 5.3 C 97.1 5.4 96.9 5.5 96.9 5.7 C 96.8 5.9 96.7 6.1 96.7 6.3 C 96.67 6.25 96.1 8.8 96.1 8.8 L 95.1 8.8 L 96.1 4.1 Z M 101.2 7.5 C 101.2 7.6 101.2 7.7 101.2 7.8 C 101.3 7.9 101.4 7.9 101.4 8 C 101.5 8 101.6 8 101.7 8.1 C 101.8 8.1 101.9 8.1 102 8.1 C 102.2 8.1 102.4 8 102.6 8 C 102.8 7.9 102.9 7.8 103 7.6 C 103.1 7.5 103.2 7.3 103.3 7.1 C 103.4 6.9 103.4 6.7 103.4 6.5 C 103.4 6.5 103.4 6.5 103.4 6.5 C 103.4 6.5 103.3 6.6 103.1 6.6 C 103 6.7 102.9 6.7 102.8 6.7 C 102.6 6.7 102.5 6.7 102.3 6.7 C 102.1 6.7 101.9 6.8 101.8 6.8 C 101.6 6.9 101.5 6.9 101.3 7.1 C 101.2 7.2 101.2 7.3 101.2 7.5 Z M 104.2 7.4 C 104.2 7.5 104.2 7.6 104.2 7.7 C 104.2 7.7 104.2 7.8 104.2 7.9 C 104.2 8 104.2 8 104.2 8 C 104.2 8.1 104.3 8.1 104.4 8.1 C 104.4 8.1 104.5 8.1 104.6 8.1 C 104.6 8.1 104.7 8 104.7 8 C 104.7 8 104.6 8.8 104.6 8.8 C 104.4 8.8 104.3 8.8 104.2 8.9 C 104 8.9 103.9 8.9 103.8 8.9 C 103.6 8.9 103.5 8.8 103.3 8.7 C 103.2 8.6 103.2 8.5 103.1 8.3 C 102.9 8.5 102.7 8.7 102.4 8.8 C 102.2 8.9 101.9 8.9 101.6 8.9 C 101.4 8.9 101.2 8.9 101 8.8 C 100.9 8.8 100.7 8.7 100.6 8.6 C 100.4 8.5 100.3 8.4 100.2 8.2 C 100.2 8 100.1 7.9 100.1 7.7 C 100.1 7.4 100.2 7.1 100.3 6.9 C 100.4 6.7 100.5 6.6 100.7 6.5 C 100.9 6.3 101.1 6.2 101.3 6.2 C 101.6 6.1 101.8 6.1 102.1 6.1 C 102.4 6 102.8 6 103.1 6 C 103.3 6 103.4 5.9 103.5 5.8 C 103.6 5.7 103.7 5.5 103.7 5.4 C 103.7 5.1 103.6 5 103.4 4.9 C 103.3 4.8 103.1 4.8 102.9 4.8 C 102.6 4.8 102.3 4.9 102.1 5 C 101.9 5.1 101.8 5.2 101.7 5.5 C 101.7 5.5 100.7 5.5 100.7 5.5 C 100.8 5.2 100.9 5 101 4.8 C 101.1 4.6 101.3 4.5 101.5 4.3 C 101.7 4.2 101.9 4.1 102.2 4.1 C 102.4 4 102.7 4 102.9 4 C 103.4 4 103.7 4 103.9 4.1 C 104.2 4.2 104.3 4.3 104.4 4.4 C 104.6 4.5 104.6 4.6 104.6 4.8 C 104.7 4.9 104.7 5 104.7 5.1 C 104.7 5.3 104.6 5.5 104.6 5.8 C 104.6 5.8 104.2 7.4 104.2 7.4 Z M 105.9 4.1 L 106.9 4.1 L 106.7 4.8 C 106.7 4.8 106.73 4.81 106.7 4.8 C 106.9 4.6 107.1 4.4 107.4 4.2 C 107.7 4.1 108 4 108.3 4 C 108.8 4 109.1 4.1 109.4 4.3 C 109.6 4.6 109.7 4.9 109.7 5.2 C 109.7 5.3 109.7 5.4 109.7 5.5 C 109.7 5.6 109.7 5.7 109.6 5.8 C 109.65 5.8 109 8.8 109 8.8 L 108 8.8 C 108 8.8 108.59 5.9 108.6 5.9 C 108.6 5.8 108.6 5.8 108.6 5.7 C 108.7 5.6 108.7 5.5 108.7 5.5 C 108.7 5.4 108.7 5.4 108.7 5.3 C 108.7 5.2 108.6 5.2 108.6 5.1 C 108.6 5 108.5 4.9 108.4 4.9 C 108.3 4.8 108.1 4.8 108 4.8 C 107.7 4.8 107.6 4.8 107.4 4.9 C 107.3 5 107.1 5.1 107 5.3 C 106.9 5.4 106.8 5.5 106.7 5.7 C 106.6 5.9 106.5 6.1 106.5 6.3 C 106.48 6.25 106 8.8 106 8.8 L 104.9 8.8 L 105.9 4.1 Z " stroke="none" fill="#fff"/>
  </g>
</svg>