<?xml version="1.0" standalone="no"?>
<!DOCTYPE svg PUBLIC "-//W3C//DTD SVG 1.1//EN" "http://www.w3.org/Graphics/SVG/1.1/DTD/svg11.dtd">
<svg xmlns="http://www.w3.org/2000/svg" version="1.1" width="143px" height="34.7px" viewBox="0 -4 143 34.7" style="top:-4px">
  <desc>Bring the Boys Out: PAGSILIP SA KUWENTO NG MGA LALAKING K-POP FAN</desc>
  <defs/>
  <g id="Polygon13852">
    <path d="M 3.7 26.9 L 2.8 26.9 L 2 24.6 L 1.4 25 L 1 26.9 L 0.2 26.9 L 1.3 21.9 L 2.1 21.9 L 1.6 24.3 L 2.1 23.7 L 3.8 21.9 L 4.7 21.9 L 2.6 24.2 L 3.7 26.9 Z M 4.4 25.4 L 4.5 24.7 L 6.2 24.7 L 6.1 25.4 L 4.4 25.4 Z M 8.3 24.3 C 8.3 24.3 8.64 24.33 8.6 24.3 C 9 24.3 9.4 24.2 9.6 24.1 C 9.8 23.9 9.9 23.6 9.9 23.3 C 9.9 23 9.8 22.9 9.7 22.7 C 9.6 22.6 9.4 22.6 9.1 22.6 C 9.1 22.57 8.7 22.6 8.7 22.6 L 8.3 24.3 Z M 10.7 23.3 C 10.7 23.8 10.5 24.3 10.2 24.6 C 9.8 24.9 9.2 25 8.5 25 C 8.55 25.02 8.2 25 8.2 25 L 7.8 26.9 L 7 26.9 L 8 21.9 C 8 21.9 9.17 21.89 9.2 21.9 C 9.7 21.9 10.1 22 10.3 22.2 C 10.6 22.5 10.7 22.8 10.7 23.3 Z M 15.8 23.7 C 15.8 24.4 15.7 24.9 15.4 25.4 C 15.2 25.9 14.9 26.3 14.6 26.6 C 14.2 26.8 13.7 27 13.2 27 C 12.6 27 12.2 26.8 11.9 26.4 C 11.5 26.1 11.4 25.6 11.4 25 C 11.4 24.4 11.5 23.9 11.7 23.4 C 11.9 22.9 12.2 22.5 12.6 22.2 C 13 21.9 13.5 21.8 14 21.8 C 14.5 21.8 15 22 15.3 22.3 C 15.6 22.7 15.8 23.1 15.8 23.7 Z M 13.9 22.5 C 13.6 22.5 13.3 22.6 13 22.8 C 12.8 23.1 12.6 23.4 12.4 23.8 C 12.3 24.1 12.2 24.6 12.2 25 C 12.2 25.4 12.3 25.7 12.5 25.9 C 12.7 26.2 12.9 26.3 13.3 26.3 C 13.6 26.3 13.9 26.1 14.1 25.9 C 14.4 25.7 14.6 25.4 14.7 25 C 14.9 24.6 14.9 24.2 14.9 23.7 C 14.9 23.4 14.8 23.1 14.7 22.8 C 14.5 22.6 14.2 22.5 13.9 22.5 Z M 17.7 24.3 C 17.7 24.3 18.04 24.33 18 24.3 C 18.4 24.3 18.8 24.2 19 24.1 C 19.2 23.9 19.3 23.6 19.3 23.3 C 19.3 23 19.2 22.9 19.1 22.7 C 19 22.6 18.8 22.6 18.5 22.6 C 18.5 22.57 18.1 22.6 18.1 22.6 L 17.7 24.3 Z M 20.1 23.3 C 20.1 23.8 19.9 24.3 19.6 24.6 C 19.2 24.9 18.6 25 17.9 25 C 17.95 25.02 17.6 25 17.6 25 L 17.2 26.9 L 16.4 26.9 L 17.4 21.9 C 17.4 21.9 18.57 21.89 18.6 21.9 C 19.1 21.9 19.5 22 19.7 22.2 C 20 22.5 20.1 22.8 20.1 23.3 Z M 23 26.9 L 22.2 26.9 L 23.3 21.9 L 25.9 21.9 L 25.8 22.6 L 23.9 22.6 L 23.6 24.1 L 25.3 24.1 L 25.2 24.8 L 23.4 24.8 L 23 26.9 Z M 28.4 25.5 L 26.7 25.5 L 26 26.9 L 25.1 26.9 L 27.8 21.9 L 28.7 21.9 L 29.3 26.9 L 28.5 26.9 L 28.4 25.5 Z M 28.3 24.8 C 28.2 23.8 28.2 23.3 28.2 23.1 C 28.1 22.9 28.1 22.7 28.1 22.6 C 28 22.9 27.8 23.3 27.7 23.6 C 27.65 23.64 27.1 24.8 27.1 24.8 C 27.1 24.8 28.31 24.79 28.3 24.8 Z M 33.9 26.9 L 33.1 26.9 L 31.7 22.9 L 31.6 22.9 C 31.6 22.9 31.6 23.15 31.6 23.1 C 31.5 23.5 31.5 23.7 31.5 23.9 C 31.5 24 31.2 25 30.9 26.9 C 30.85 26.89 30.1 26.9 30.1 26.9 L 31.2 21.9 L 32.1 21.9 L 33.4 25.8 C 33.4 25.8 33.46 25.82 33.5 25.8 C 33.5 25.7 33.5 25.5 33.6 25.2 C 33.6 24.8 33.7 24.6 33.7 24.5 C 33.71 24.46 34.3 21.9 34.3 21.9 L 35 21.9 L 33.9 26.9 Z " stroke="none" fill="#000"/>
  </g>
  <g id="Polygon13851">
    <path d="M 1.6 14.3 C 1.6 14.3 1.91 14.33 1.9 14.3 C 2.3 14.3 2.6 14.2 2.9 14.1 C 3.1 13.9 3.2 13.6 3.2 13.3 C 3.2 13 3.1 12.9 3 12.7 C 2.9 12.6 2.6 12.6 2.4 12.6 C 2.37 12.57 2 12.6 2 12.6 L 1.6 14.3 Z M 4 13.3 C 4 13.8 3.8 14.3 3.4 14.6 C 3 14.9 2.5 15 1.8 15 C 1.82 15.02 1.4 15 1.4 15 L 1 16.9 L 0.2 16.9 L 1.3 11.9 C 1.3 11.9 2.44 11.89 2.4 11.9 C 3 11.9 3.4 12 3.6 12.2 C 3.9 12.5 4 12.8 4 13.3 Z M 6.9 15.5 L 5.2 15.5 L 4.5 16.9 L 3.6 16.9 L 6.3 11.9 L 7.2 11.9 L 7.8 16.9 L 7 16.9 L 6.9 15.5 Z M 6.8 14.8 C 6.7 13.8 6.7 13.3 6.6 13.1 C 6.6 12.9 6.6 12.7 6.6 12.6 C 6.5 12.9 6.3 13.3 6.1 13.6 C 6.14 13.64 5.6 14.8 5.6 14.8 C 5.6 14.8 6.8 14.79 6.8 14.8 Z M 10.9 14.2 L 12.7 14.2 C 12.7 14.2 12.16 16.69 12.2 16.7 C 11.9 16.8 11.7 16.8 11.4 16.9 C 11.2 16.9 10.9 17 10.6 17 C 10 17 9.5 16.8 9.2 16.5 C 8.9 16.1 8.7 15.7 8.7 15 C 8.7 14.4 8.8 13.9 9.1 13.4 C 9.3 12.9 9.6 12.5 10.1 12.2 C 10.5 12 11 11.8 11.5 11.8 C 11.8 11.8 12 11.8 12.2 11.9 C 12.5 11.9 12.7 12 12.9 12.1 C 12.9 12.1 12.6 12.8 12.6 12.8 C 12.2 12.6 11.9 12.5 11.5 12.5 C 11.1 12.5 10.8 12.6 10.5 12.8 C 10.2 13 10 13.3 9.8 13.7 C 9.7 14.1 9.6 14.5 9.6 15 C 9.6 15.4 9.7 15.7 9.9 15.9 C 10.1 16.2 10.4 16.3 10.7 16.3 C 11 16.3 11.2 16.2 11.5 16.1 C 11.47 16.14 11.7 14.9 11.7 14.9 L 10.8 14.9 L 10.9 14.2 Z M 16.3 15.4 C 16.3 15.9 16.2 16.3 15.8 16.5 C 15.5 16.8 15 17 14.5 17 C 14 17 13.6 16.9 13.3 16.7 C 13.3 16.7 13.3 15.9 13.3 15.9 C 13.7 16.2 14.1 16.3 14.5 16.3 C 14.8 16.3 15 16.2 15.2 16.1 C 15.4 15.9 15.5 15.7 15.5 15.5 C 15.5 15.4 15.4 15.2 15.3 15.1 C 15.2 15 15.1 14.8 14.8 14.6 C 14.5 14.5 14.3 14.3 14.2 14.2 C 14.1 14.1 14 13.9 14 13.8 C 13.9 13.6 13.9 13.5 13.9 13.3 C 13.9 13 13.9 12.8 14.1 12.5 C 14.2 12.3 14.4 12.1 14.7 12 C 14.9 11.9 15.2 11.8 15.5 11.8 C 16 11.8 16.4 11.9 16.8 12.1 C 16.8 12.1 16.6 12.8 16.6 12.8 C 16.2 12.6 15.8 12.5 15.5 12.5 C 15.3 12.5 15.1 12.6 14.9 12.7 C 14.8 12.9 14.7 13 14.7 13.2 C 14.7 13.3 14.7 13.4 14.8 13.5 C 14.8 13.6 14.9 13.7 14.9 13.7 C 15 13.8 15.2 13.9 15.4 14.1 C 15.7 14.3 16 14.5 16.1 14.7 C 16.3 14.9 16.3 15.2 16.3 15.4 Z M 17.1 16.9 L 18.2 11.9 L 19 11.9 L 17.9 16.9 L 17.1 16.9 Z M 19.3 16.9 L 20.4 11.9 L 21.2 11.9 L 20.3 16.2 L 22.1 16.2 L 22 16.9 L 19.3 16.9 Z M 22.9 16.9 L 24 11.9 L 24.8 11.9 L 23.7 16.9 L 22.9 16.9 Z M 26.5 14.3 C 26.5 14.3 26.84 14.33 26.8 14.3 C 27.2 14.3 27.6 14.2 27.8 14.1 C 28 13.9 28.1 13.6 28.1 13.3 C 28.1 13 28.1 12.9 27.9 12.7 C 27.8 12.6 27.6 12.6 27.3 12.6 C 27.3 12.57 26.9 12.6 26.9 12.6 L 26.5 14.3 Z M 28.9 13.3 C 28.9 13.8 28.8 14.3 28.4 14.6 C 28 14.9 27.4 15 26.7 15 C 26.75 15.02 26.4 15 26.4 15 L 26 16.9 L 25.2 16.9 L 26.2 11.9 C 26.2 11.9 27.37 11.89 27.4 11.9 C 27.9 11.9 28.3 12 28.5 12.2 C 28.8 12.5 28.9 12.8 28.9 13.3 Z M 33.9 15.4 C 33.9 15.9 33.8 16.3 33.4 16.5 C 33.1 16.8 32.7 17 32.1 17 C 31.6 17 31.2 16.9 30.9 16.7 C 30.9 16.7 30.9 15.9 30.9 15.9 C 31.3 16.2 31.7 16.3 32.1 16.3 C 32.4 16.3 32.7 16.2 32.8 16.1 C 33 15.9 33.1 15.7 33.1 15.5 C 33.1 15.4 33.1 15.2 33 15.1 C 32.9 15 32.7 14.8 32.4 14.6 C 32.1 14.5 32 14.3 31.8 14.2 C 31.7 14.1 31.6 13.9 31.6 13.8 C 31.5 13.6 31.5 13.5 31.5 13.3 C 31.5 13 31.6 12.8 31.7 12.5 C 31.8 12.3 32 12.1 32.3 12 C 32.6 11.9 32.8 11.8 33.2 11.8 C 33.6 11.8 34.1 11.9 34.5 12.1 C 34.5 12.1 34.2 12.8 34.2 12.8 C 33.8 12.6 33.5 12.5 33.2 12.5 C 32.9 12.5 32.7 12.6 32.6 12.7 C 32.4 12.9 32.3 13 32.3 13.2 C 32.3 13.3 32.4 13.4 32.4 13.5 C 32.4 13.6 32.5 13.7 32.5 13.7 C 32.6 13.8 32.8 13.9 33 14.1 C 33.4 14.3 33.6 14.5 33.7 14.7 C 33.9 14.9 33.9 15.2 33.9 15.4 Z M 37.4 15.5 L 35.8 15.5 L 35.1 16.9 L 34.2 16.9 L 36.9 11.9 L 37.8 11.9 L 38.4 16.9 L 37.6 16.9 L 37.4 15.5 Z M 37.4 14.8 C 37.3 13.8 37.2 13.3 37.2 13.1 C 37.2 12.9 37.2 12.7 37.2 12.6 C 37.1 12.9 36.9 13.3 36.7 13.6 C 36.73 13.64 36.1 14.8 36.1 14.8 C 36.1 14.8 37.39 14.79 37.4 14.8 Z M 44.3 16.9 L 43.4 16.9 L 42.5 14.6 L 42 15 L 41.6 16.9 L 40.8 16.9 L 41.9 11.9 L 42.7 11.9 L 42.2 14.3 L 42.6 13.7 L 44.3 11.9 L 45.3 11.9 L 43.2 14.2 L 44.3 16.9 Z M 49.7 11.9 C 49.7 11.9 49.02 15.16 49 15.2 C 48.9 15.8 48.7 16.2 48.3 16.5 C 48 16.8 47.5 17 46.9 17 C 46.4 17 46.1 16.8 45.8 16.6 C 45.5 16.4 45.4 16 45.4 15.5 C 45.4 15.4 45.4 15.2 45.5 15 C 45.45 14.97 46.1 11.9 46.1 11.9 L 46.9 11.9 C 46.9 11.9 46.26 14.98 46.3 15 C 46.2 15.2 46.2 15.4 46.2 15.5 C 46.2 15.8 46.3 15.9 46.4 16.1 C 46.5 16.2 46.7 16.3 47 16.3 C 47.3 16.3 47.6 16.2 47.8 16 C 48 15.8 48.1 15.5 48.2 15.1 C 48.22 15.09 48.9 11.9 48.9 11.9 L 49.7 11.9 Z M 54.3 16.9 L 53.4 16.9 L 53.3 14 L 53.3 13.4 L 53.3 13 C 53.3 13 53.29 13.01 53.3 13 C 53.2 13.3 53.1 13.7 52.9 14 C 52.89 14.01 51.6 16.9 51.6 16.9 L 50.7 16.9 L 50.5 11.9 L 51.3 11.9 C 51.3 11.9 51.37 14.79 51.4 14.8 C 51.4 15.1 51.4 15.5 51.3 16 C 51.3 16 51.3 16 51.3 16 C 51.5 15.5 51.7 15.1 51.8 14.8 C 51.83 14.76 53.2 11.9 53.2 11.9 L 53.9 11.9 L 54 14.8 L 54 15.3 L 54 16 C 54 16 54.06 15.98 54.1 16 C 54.1 15.8 54.2 15.6 54.3 15.3 C 54.4 15.1 54.5 14.9 54.5 14.8 C 54.5 14.78 55.7 11.9 55.7 11.9 L 56.6 11.9 L 54.3 16.9 Z M 59 16.9 L 56.4 16.9 L 57.4 11.9 L 60.1 11.9 L 59.9 12.6 L 58.1 12.6 L 57.8 13.9 L 59.5 13.9 L 59.4 14.6 L 57.6 14.6 L 57.3 16.2 L 59.2 16.2 L 59 16.9 Z M 64 16.9 L 63.1 16.9 L 61.7 12.9 L 61.7 12.9 C 61.7 12.9 61.64 13.15 61.6 13.1 C 61.6 13.5 61.5 13.7 61.5 13.9 C 61.5 14 61.3 15 60.9 16.9 C 60.89 16.89 60.1 16.9 60.1 16.9 L 61.2 11.9 L 62.1 11.9 L 63.5 15.8 C 63.5 15.8 63.51 15.82 63.5 15.8 C 63.5 15.7 63.6 15.5 63.6 15.2 C 63.7 14.8 63.7 14.6 63.7 14.5 C 63.75 14.46 64.3 11.9 64.3 11.9 L 65 11.9 L 64 16.9 Z M 67 16.9 L 66.2 16.9 L 67.1 12.6 L 65.8 12.6 L 65.9 11.9 L 69.3 11.9 L 69.2 12.6 L 67.9 12.6 L 67 16.9 Z M 73.7 13.7 C 73.7 14.4 73.6 14.9 73.4 15.4 C 73.2 15.9 72.9 16.3 72.5 16.6 C 72.1 16.8 71.7 17 71.2 17 C 70.6 17 70.2 16.8 69.8 16.4 C 69.5 16.1 69.3 15.6 69.3 15 C 69.3 14.4 69.5 13.9 69.7 13.4 C 69.9 12.9 70.2 12.5 70.6 12.2 C 71 11.9 71.4 11.8 71.9 11.8 C 72.5 11.8 72.9 12 73.3 12.3 C 73.6 12.7 73.7 13.1 73.7 13.7 Z M 71.9 12.5 C 71.5 12.5 71.3 12.6 71 12.8 C 70.8 13.1 70.6 13.4 70.4 13.8 C 70.3 14.1 70.2 14.6 70.2 15 C 70.2 15.4 70.3 15.7 70.5 15.9 C 70.7 16.2 70.9 16.3 71.2 16.3 C 71.6 16.3 71.8 16.1 72.1 15.9 C 72.3 15.7 72.5 15.4 72.7 15 C 72.8 14.6 72.9 14.2 72.9 13.7 C 72.9 13.4 72.8 13.1 72.6 12.8 C 72.4 12.6 72.2 12.5 71.9 12.5 Z M 79.9 16.9 L 79 16.9 L 77.6 12.9 L 77.5 12.9 C 77.5 12.9 77.51 13.15 77.5 13.1 C 77.5 13.5 77.4 13.7 77.4 13.9 C 77.4 14 77.1 15 76.8 16.9 C 76.76 16.89 76 16.9 76 16.9 L 77.1 11.9 L 78 11.9 L 79.3 15.8 C 79.3 15.8 79.37 15.82 79.4 15.8 C 79.4 15.7 79.4 15.5 79.5 15.2 C 79.5 14.8 79.6 14.6 79.6 14.5 C 79.61 14.46 80.2 11.9 80.2 11.9 L 80.9 11.9 L 79.9 16.9 Z M 83.7 14.2 L 85.4 14.2 C 85.4 14.2 84.91 16.69 84.9 16.7 C 84.7 16.8 84.4 16.8 84.2 16.9 C 83.9 16.9 83.6 17 83.3 17 C 82.8 17 82.3 16.8 82 16.5 C 81.6 16.1 81.5 15.7 81.5 15 C 81.5 14.4 81.6 13.9 81.8 13.4 C 82.1 12.9 82.4 12.5 82.8 12.2 C 83.2 12 83.7 11.8 84.3 11.8 C 84.5 11.8 84.8 11.8 85 11.9 C 85.2 11.9 85.5 12 85.7 12.1 C 85.7 12.1 85.4 12.8 85.4 12.8 C 85 12.6 84.6 12.5 84.2 12.5 C 83.9 12.5 83.6 12.6 83.3 12.8 C 83 13 82.7 13.3 82.6 13.7 C 82.4 14.1 82.3 14.5 82.3 15 C 82.3 15.4 82.4 15.7 82.6 15.9 C 82.8 16.2 83.1 16.3 83.5 16.3 C 83.7 16.3 84 16.2 84.2 16.1 C 84.22 16.14 84.5 14.9 84.5 14.9 L 83.5 14.9 L 83.7 14.2 Z M 89.8 16.9 L 89.4 12.7 C 89.4 12.7 89.41 12.74 89.4 12.7 C 89.4 13 89.3 13.4 89.2 13.9 C 89.22 13.9 88.6 16.9 88.6 16.9 L 87.8 16.9 L 88.9 11.9 L 90 11.9 L 90.4 15.8 L 90.4 15.8 L 92.5 11.9 L 93.6 11.9 L 92.6 16.9 L 91.8 16.9 C 91.8 16.9 92.44 13.91 92.4 13.9 C 92.5 13.5 92.6 13.1 92.7 12.7 C 92.74 12.74 92.7 12.7 92.7 12.7 L 90.5 16.9 L 89.8 16.9 Z M 96.4 14.2 L 98.2 14.2 C 98.2 14.2 97.65 16.69 97.6 16.7 C 97.4 16.8 97.1 16.8 96.9 16.9 C 96.7 16.9 96.4 17 96.1 17 C 95.5 17 95 16.8 94.7 16.5 C 94.4 16.1 94.2 15.7 94.2 15 C 94.2 14.4 94.3 13.9 94.6 13.4 C 94.8 12.9 95.1 12.5 95.5 12.2 C 96 12 96.5 11.8 97 11.8 C 97.3 11.8 97.5 11.8 97.7 11.9 C 98 11.9 98.2 12 98.4 12.1 C 98.4 12.1 98.1 12.8 98.1 12.8 C 97.7 12.6 97.4 12.5 97 12.5 C 96.6 12.5 96.3 12.6 96 12.8 C 95.7 13 95.5 13.3 95.3 13.7 C 95.1 14.1 95.1 14.5 95.1 15 C 95.1 15.4 95.2 15.7 95.4 15.9 C 95.6 16.2 95.8 16.3 96.2 16.3 C 96.5 16.3 96.7 16.2 97 16.1 C 96.96 16.14 97.2 14.9 97.2 14.9 L 96.3 14.9 L 96.4 14.2 Z M 101.6 15.5 L 99.9 15.5 L 99.2 16.9 L 98.4 16.9 L 101 11.9 L 102 11.9 L 102.5 16.9 L 101.7 16.9 L 101.6 15.5 Z M 101.5 14.8 C 101.4 13.8 101.4 13.3 101.4 13.1 C 101.4 12.9 101.4 12.7 101.4 12.6 C 101.2 12.9 101.1 13.3 100.9 13.6 C 100.88 13.64 100.3 14.8 100.3 14.8 C 100.3 14.8 101.54 14.79 101.5 14.8 Z M 105 16.9 L 106 11.9 L 106.8 11.9 L 105.9 16.2 L 107.8 16.2 L 107.6 16.9 L 105 16.9 Z M 111.4 15.5 L 109.8 15.5 L 109.1 16.9 L 108.2 16.9 L 110.9 11.9 L 111.8 11.9 L 112.4 16.9 L 111.6 16.9 L 111.4 15.5 Z M 111.4 14.8 C 111.3 13.8 111.2 13.3 111.2 13.1 C 111.2 12.9 111.2 12.7 111.2 12.6 C 111.1 12.9 110.9 13.3 110.7 13.6 C 110.72 13.64 110.1 14.8 110.1 14.8 C 110.1 14.8 111.38 14.79 111.4 14.8 Z M 113.2 16.9 L 114.2 11.9 L 115 11.9 L 114.1 16.2 L 116 16.2 L 115.8 16.9 L 113.2 16.9 Z M 119.6 15.5 L 118 15.5 L 117.3 16.9 L 116.4 16.9 L 119.1 11.9 L 120 11.9 L 120.6 16.9 L 119.8 16.9 L 119.6 15.5 Z M 119.6 14.8 C 119.5 13.8 119.4 13.3 119.4 13.1 C 119.4 12.9 119.4 12.7 119.4 12.6 C 119.3 12.9 119.1 13.3 118.9 13.6 C 118.93 13.64 118.3 14.8 118.3 14.8 C 118.3 14.8 119.59 14.79 119.6 14.8 Z M 124.9 16.9 L 124 16.9 L 123.1 14.6 L 122.6 15 L 122.2 16.9 L 121.4 16.9 L 122.4 11.9 L 123.3 11.9 L 122.7 14.3 L 123.2 13.7 L 124.9 11.9 L 125.9 11.9 L 123.8 14.2 L 124.9 16.9 Z M 125.7 16.9 L 126.7 11.9 L 127.5 11.9 L 126.5 16.9 L 125.7 16.9 Z M 131.8 16.9 L 130.9 16.9 L 129.5 12.9 L 129.4 12.9 C 129.4 12.9 129.41 13.15 129.4 13.1 C 129.4 13.5 129.3 13.7 129.3 13.9 C 129.3 14 129 15 128.7 16.9 C 128.66 16.89 127.9 16.9 127.9 16.9 L 129 11.9 L 129.9 11.9 L 131.2 15.8 C 131.2 15.8 131.27 15.82 131.3 15.8 C 131.3 15.7 131.3 15.5 131.4 15.2 C 131.4 14.8 131.5 14.6 131.5 14.5 C 131.51 14.46 132.1 11.9 132.1 11.9 L 132.8 11.9 L 131.8 16.9 Z M 135.6 14.2 L 137.3 14.2 C 137.3 14.2 136.81 16.69 136.8 16.7 C 136.6 16.8 136.3 16.8 136.1 16.9 C 135.8 16.9 135.5 17 135.2 17 C 134.7 17 134.2 16.8 133.9 16.5 C 133.5 16.1 133.4 15.7 133.4 15 C 133.4 14.4 133.5 13.9 133.7 13.4 C 134 12.9 134.3 12.5 134.7 12.2 C 135.1 12 135.6 11.8 136.2 11.8 C 136.4 11.8 136.7 11.8 136.9 11.9 C 137.1 11.9 137.4 12 137.6 12.1 C 137.6 12.1 137.3 12.8 137.3 12.8 C 136.9 12.6 136.5 12.5 136.1 12.5 C 135.8 12.5 135.5 12.6 135.2 12.8 C 134.9 13 134.6 13.3 134.5 13.7 C 134.3 14.1 134.2 14.5 134.2 15 C 134.2 15.4 134.3 15.7 134.5 15.9 C 134.7 16.2 135 16.3 135.4 16.3 C 135.6 16.3 135.9 16.2 136.1 16.1 C 136.12 16.14 136.4 14.9 136.4 14.9 L 135.4 14.9 L 135.6 14.2 Z " stroke="none" fill="#000"/>
  </g>
  <g id="Polygon13850">
    <path d="M 0.8 1.2 C 0.8 1.2 2.38 1.18 2.4 1.2 C 3.1 1.2 3.6 1.3 3.9 1.5 C 4.3 1.8 4.4 2.1 4.4 2.6 C 4.4 3 4.3 3.2 4.1 3.4 C 3.9 3.7 3.6 3.8 3.2 3.9 C 3.2 3.9 3.2 3.9 3.2 3.9 C 3.7 4 4 4.1 4.2 4.3 C 4.5 4.5 4.6 4.9 4.6 5.2 C 4.6 5.8 4.4 6.2 4 6.5 C 3.7 6.7 3.2 6.9 2.6 6.9 C 2.56 6.89 0.8 6.9 0.8 6.9 L 0.8 1.2 Z M 1.2 3.7 C 1.2 3.7 2.46 3.72 2.5 3.7 C 3 3.7 3.4 3.6 3.6 3.5 C 3.9 3.3 4 3 4 2.6 C 4 2.2 3.9 2 3.6 1.8 C 3.3 1.6 2.9 1.5 2.4 1.5 C 2.36 1.53 1.2 1.5 1.2 1.5 L 1.2 3.7 Z M 1.2 4.1 L 1.2 6.5 C 1.2 6.5 2.55 6.53 2.6 6.5 C 3.6 6.5 4.1 6.1 4.1 5.2 C 4.1 4.5 3.6 4.1 2.5 4.1 C 2.46 4.07 1.2 4.1 1.2 4.1 Z M 7.2 2.6 C 7.3 2.6 7.5 2.6 7.7 2.6 C 7.7 2.6 7.7 3 7.7 3 C 7.5 2.9 7.3 2.9 7.1 2.9 C 6.7 2.9 6.5 3.1 6.2 3.4 C 6 3.7 5.9 4.1 5.9 4.5 C 5.87 4.54 5.9 6.9 5.9 6.9 L 5.5 6.9 L 5.5 2.6 L 5.8 2.6 L 5.9 3.4 C 5.9 3.4 5.88 3.41 5.9 3.4 C 6.1 3.1 6.2 2.9 6.4 2.7 C 6.6 2.6 6.9 2.6 7.2 2.6 Z M 8.7 6.9 L 8.4 6.9 L 8.4 2.6 L 8.7 2.6 L 8.7 6.9 Z M 8.6 1.8 C 8.4 1.8 8.3 1.7 8.3 1.5 C 8.3 1.2 8.4 1.1 8.6 1.1 C 8.6 1.1 8.7 1.1 8.7 1.2 C 8.8 1.2 8.8 1.3 8.8 1.5 C 8.8 1.6 8.8 1.7 8.7 1.7 C 8.7 1.8 8.6 1.8 8.6 1.8 C 8.6 1.8 8.6 1.8 8.6 1.8 Z M 12.9 6.9 C 12.9 6.9 12.89 4.13 12.9 4.1 C 12.9 3.7 12.8 3.4 12.6 3.2 C 12.4 3 12.2 2.9 11.8 2.9 C 11.3 2.9 10.9 3 10.7 3.3 C 10.4 3.6 10.3 4 10.3 4.5 C 10.32 4.54 10.3 6.9 10.3 6.9 L 9.9 6.9 L 9.9 2.6 L 10.3 2.6 L 10.3 3.2 C 10.3 3.2 10.35 3.22 10.4 3.2 C 10.6 2.8 11.1 2.6 11.8 2.6 C 12.8 2.6 13.3 3.1 13.3 4.1 C 13.27 4.11 13.3 6.9 13.3 6.9 L 12.9 6.9 Z M 17.7 2.6 L 17.7 2.9 C 17.7 2.9 16.84 2.96 16.8 3 C 17.1 3.3 17.2 3.6 17.2 3.9 C 17.2 4.3 17.1 4.7 16.8 4.9 C 16.5 5.2 16.1 5.3 15.7 5.3 C 15.5 5.3 15.4 5.3 15.3 5.3 C 15.1 5.4 15 5.5 14.9 5.6 C 14.8 5.7 14.8 5.8 14.8 5.9 C 14.8 6 14.9 6.1 15 6.2 C 15.1 6.3 15.2 6.3 15.5 6.3 C 15.5 6.3 16.2 6.3 16.2 6.3 C 16.7 6.3 17 6.4 17.3 6.6 C 17.5 6.8 17.6 7 17.6 7.4 C 17.6 7.9 17.5 8.2 17.1 8.4 C 16.7 8.7 16.2 8.8 15.6 8.8 C 15 8.8 14.6 8.7 14.3 8.5 C 14 8.3 13.9 8 13.9 7.6 C 13.9 7.3 14 7.1 14.1 6.9 C 14.3 6.7 14.6 6.6 14.9 6.5 C 14.8 6.5 14.6 6.4 14.6 6.3 C 14.5 6.2 14.5 6.1 14.5 5.9 C 14.5 5.7 14.6 5.4 15 5.2 C 14.8 5.1 14.6 4.9 14.4 4.7 C 14.3 4.5 14.2 4.2 14.2 4 C 14.2 3.5 14.4 3.2 14.6 2.9 C 14.9 2.7 15.3 2.6 15.7 2.6 C 16 2.6 16.2 2.6 16.4 2.6 C 16.36 2.64 17.7 2.6 17.7 2.6 Z M 15.5 6.7 C 14.7 6.7 14.3 7 14.3 7.6 C 14.3 8.2 14.7 8.5 15.6 8.5 C 16.7 8.5 17.3 8.1 17.3 7.4 C 17.3 7.2 17.2 7 17 6.9 C 16.8 6.7 16.5 6.7 16.1 6.7 C 16.15 6.69 15.5 6.7 15.5 6.7 C 15.5 6.7 15.45 6.69 15.5 6.7 Z M 14.6 4 C 14.6 4.3 14.7 4.5 14.9 4.7 C 15.1 4.9 15.4 5 15.7 5 C 16.1 5 16.3 4.9 16.5 4.7 C 16.7 4.6 16.8 4.3 16.8 3.9 C 16.8 3.6 16.7 3.3 16.5 3.1 C 16.3 3 16 2.9 15.7 2.9 C 15.4 2.9 15.1 3 14.9 3.2 C 14.7 3.3 14.6 3.6 14.6 4 Z M 21.3 6.6 C 21.6 6.6 21.8 6.6 22 6.6 C 22 6.6 22 6.9 22 6.9 C 21.8 6.9 21.5 7 21.3 7 C 20.9 7 20.7 6.9 20.5 6.7 C 20.3 6.5 20.2 6.1 20.2 5.7 C 20.2 5.72 20.2 3 20.2 3 L 19.6 3 L 19.6 2.7 L 20.2 2.6 L 20.4 1.6 L 20.6 1.6 L 20.6 2.6 L 21.8 2.6 L 21.8 3 L 20.6 3 C 20.6 3 20.6 5.66 20.6 5.7 C 20.6 6 20.7 6.2 20.8 6.4 C 20.9 6.5 21.1 6.6 21.3 6.6 Z M 25.6 6.9 C 25.6 6.9 25.59 4.13 25.6 4.1 C 25.6 3.7 25.5 3.4 25.3 3.2 C 25.1 3 24.9 2.9 24.5 2.9 C 24 2.9 23.6 3 23.4 3.3 C 23.1 3.6 23 4 23 4.5 C 23.02 4.54 23 6.9 23 6.9 L 22.6 6.9 L 22.6 0.8 L 23 0.8 L 23 2.7 L 23 3.3 C 23 3.3 23.02 3.28 23 3.3 C 23.2 3 23.4 2.8 23.6 2.7 C 23.9 2.6 24.2 2.6 24.5 2.6 C 25.5 2.6 26 3.1 26 4.1 C 25.97 4.11 26 6.9 26 6.9 L 25.6 6.9 Z M 28.8 7 C 28.2 7 27.7 6.8 27.4 6.4 C 27 6 26.9 5.5 26.9 4.8 C 26.9 4.1 27 3.6 27.4 3.2 C 27.7 2.8 28.1 2.6 28.7 2.6 C 29.2 2.6 29.6 2.7 29.9 3.1 C 30.2 3.4 30.3 3.9 30.3 4.5 C 30.33 4.5 30.3 4.8 30.3 4.8 C 30.3 4.8 27.27 4.82 27.3 4.8 C 27.3 5.4 27.4 5.8 27.7 6.2 C 27.9 6.5 28.3 6.6 28.8 6.6 C 29.1 6.6 29.3 6.6 29.5 6.6 C 29.6 6.5 29.9 6.5 30.2 6.3 C 30.2 6.3 30.2 6.7 30.2 6.7 C 29.9 6.8 29.7 6.9 29.5 6.9 C 29.3 6.9 29.1 7 28.8 7 Z M 28.7 2.9 C 28.3 2.9 28 3 27.7 3.3 C 27.5 3.6 27.3 4 27.3 4.5 C 27.3 4.5 29.9 4.5 29.9 4.5 C 29.9 4 29.8 3.6 29.6 3.3 C 29.4 3 29.1 2.9 28.7 2.9 Z M 33.2 1.2 C 33.2 1.2 34.76 1.18 34.8 1.2 C 35.5 1.2 36 1.3 36.3 1.5 C 36.6 1.8 36.8 2.1 36.8 2.6 C 36.8 3 36.7 3.2 36.5 3.4 C 36.3 3.7 36 3.8 35.6 3.9 C 35.6 3.9 35.6 3.9 35.6 3.9 C 36.1 4 36.4 4.1 36.6 4.3 C 36.8 4.5 37 4.9 37 5.2 C 37 5.8 36.8 6.2 36.4 6.5 C 36.1 6.7 35.6 6.9 34.9 6.9 C 34.94 6.89 33.2 6.9 33.2 6.9 L 33.2 1.2 Z M 33.6 3.7 C 33.6 3.7 34.85 3.72 34.8 3.7 C 35.4 3.7 35.8 3.6 36 3.5 C 36.3 3.3 36.4 3 36.4 2.6 C 36.4 2.2 36.2 2 36 1.8 C 35.7 1.6 35.3 1.5 34.7 1.5 C 34.74 1.53 33.6 1.5 33.6 1.5 L 33.6 3.7 Z M 33.6 4.1 L 33.6 6.5 C 33.6 6.5 34.94 6.53 34.9 6.5 C 36 6.5 36.5 6.1 36.5 5.2 C 36.5 4.5 36 4.1 34.8 4.1 C 34.85 4.07 33.6 4.1 33.6 4.1 Z M 41.4 4.8 C 41.4 5.5 41.2 6 40.9 6.4 C 40.5 6.8 40.1 7 39.5 7 C 39.1 7 38.8 6.9 38.5 6.7 C 38.2 6.5 38 6.3 37.9 5.9 C 37.7 5.6 37.6 5.2 37.6 4.8 C 37.6 4.1 37.8 3.5 38.1 3.1 C 38.5 2.8 38.9 2.6 39.5 2.6 C 40.1 2.6 40.6 2.8 40.9 3.1 C 41.2 3.5 41.4 4.1 41.4 4.8 Z M 38 4.8 C 38 5.3 38.2 5.8 38.4 6.1 C 38.7 6.4 39 6.6 39.5 6.6 C 40 6.6 40.3 6.4 40.6 6.1 C 40.8 5.8 41 5.3 41 4.8 C 41 4.2 40.8 3.7 40.6 3.4 C 40.3 3.1 40 2.9 39.5 2.9 C 39 2.9 38.7 3.1 38.4 3.4 C 38.2 3.7 38 4.2 38 4.8 Z M 41.6 2.6 L 42 2.6 C 42 2.6 42.91 5.02 42.9 5 C 43.2 5.8 43.4 6.2 43.4 6.5 C 43.4 6.5 43.4 6.5 43.4 6.5 C 43.6 6.2 43.7 5.7 44 5 C 43.98 5 44.9 2.6 44.9 2.6 L 45.3 2.6 C 45.3 2.6 43.38 7.57 43.4 7.6 C 43.2 8 43.1 8.2 43 8.4 C 42.9 8.5 42.8 8.6 42.6 8.7 C 42.5 8.8 42.3 8.8 42.1 8.8 C 42 8.8 41.8 8.8 41.6 8.7 C 41.6 8.7 41.6 8.4 41.6 8.4 C 41.8 8.4 41.9 8.5 42.1 8.5 C 42.2 8.5 42.4 8.4 42.5 8.4 C 42.6 8.3 42.7 8.2 42.7 8.1 C 42.8 7.9 42.9 7.7 43 7.4 C 43.1 7.2 43.2 7 43.2 6.9 C 43.23 6.89 41.6 2.6 41.6 2.6 Z M 48.4 5.8 C 48.4 6.2 48.2 6.5 48 6.7 C 47.7 6.9 47.3 7 46.7 7 C 46.2 7 45.7 6.9 45.4 6.7 C 45.4 6.7 45.4 6.3 45.4 6.3 C 45.8 6.5 46.2 6.6 46.7 6.6 C 47.1 6.6 47.5 6.5 47.7 6.4 C 47.9 6.3 48 6.1 48 5.8 C 48 5.6 47.9 5.4 47.7 5.3 C 47.6 5.2 47.3 5 46.9 4.9 C 46.5 4.7 46.2 4.6 46 4.5 C 45.8 4.4 45.7 4.2 45.6 4.1 C 45.5 4 45.5 3.8 45.5 3.6 C 45.5 3.3 45.6 3 45.9 2.8 C 46.1 2.7 46.5 2.6 47 2.6 C 47.5 2.6 47.9 2.6 48.3 2.8 C 48.3 2.8 48.2 3.2 48.2 3.2 C 47.7 3 47.4 2.9 47 2.9 C 46.6 2.9 46.4 3 46.2 3.1 C 46 3.2 45.9 3.4 45.9 3.6 C 45.9 3.8 45.9 4 46.1 4.1 C 46.3 4.2 46.6 4.4 47 4.5 C 47.4 4.7 47.7 4.8 47.9 4.9 C 48 5 48.2 5.1 48.3 5.3 C 48.3 5.4 48.4 5.6 48.4 5.8 Z M 56 4 C 56 4.9 55.7 5.6 55.3 6.2 C 54.8 6.7 54.2 7 53.4 7 C 52.6 7 52 6.7 51.5 6.2 C 51.1 5.6 50.9 4.9 50.9 4 C 50.9 3.1 51.1 2.4 51.6 1.9 C 52 1.3 52.6 1.1 53.4 1.1 C 54.2 1.1 54.8 1.3 55.3 1.9 C 55.7 2.4 56 3.1 56 4 Z M 51.3 4 C 51.3 4.8 51.5 5.5 51.8 5.9 C 52.2 6.4 52.7 6.6 53.4 6.6 C 54.1 6.6 54.6 6.4 55 5.9 C 55.4 5.5 55.5 4.8 55.5 4 C 55.5 3.2 55.4 2.6 55 2.1 C 54.6 1.7 54.1 1.5 53.4 1.5 C 52.7 1.5 52.2 1.7 51.9 2.1 C 51.5 2.6 51.3 3.2 51.3 4 Z M 57.3 2.6 C 57.3 2.6 57.28 5.39 57.3 5.4 C 57.3 5.8 57.4 6.1 57.6 6.3 C 57.7 6.5 58 6.6 58.4 6.6 C 58.9 6.6 59.3 6.5 59.5 6.2 C 59.7 6 59.9 5.6 59.9 5 C 59.86 4.98 59.9 2.6 59.9 2.6 L 60.2 2.6 L 60.2 6.9 L 59.9 6.9 L 59.8 6.3 C 59.8 6.3 59.82 6.3 59.8 6.3 C 59.5 6.7 59.1 7 58.4 7 C 57.4 7 56.9 6.4 56.9 5.4 C 56.9 5.41 56.9 2.6 56.9 2.6 L 57.3 2.6 Z M 62.5 6.6 C 62.8 6.6 63 6.6 63.2 6.6 C 63.2 6.6 63.2 6.9 63.2 6.9 C 63 6.9 62.8 7 62.5 7 C 62.2 7 61.9 6.9 61.7 6.7 C 61.5 6.5 61.4 6.1 61.4 5.7 C 61.44 5.72 61.4 3 61.4 3 L 60.8 3 L 60.8 2.7 L 61.4 2.6 L 61.6 1.6 L 61.8 1.6 L 61.8 2.6 L 63.1 2.6 L 63.1 3 L 61.8 3 C 61.8 3 61.84 5.66 61.8 5.7 C 61.8 6 61.9 6.2 62 6.4 C 62.1 6.5 62.3 6.6 62.5 6.6 Z M 64.1 7 C 63.9 7 63.8 6.8 63.8 6.6 C 63.8 6.3 63.9 6.2 64.1 6.2 C 64.3 6.2 64.4 6.3 64.4 6.6 C 64.4 6.8 64.3 7 64.1 7 C 64.1 7 64.1 7 64.1 7 Z M 63.8 3.1 C 63.8 2.8 63.9 2.7 64.1 2.7 C 64.3 2.7 64.4 2.8 64.4 3.1 C 64.4 3.2 64.4 3.3 64.3 3.4 C 64.3 3.5 64.2 3.5 64.1 3.5 C 64 3.5 63.9 3.5 63.9 3.4 C 63.8 3.3 63.8 3.2 63.8 3.1 Z " stroke="none" fill="#000"/>
  </g>
</svg>