<?xml version="1.0" standalone="no"?>
<!DOCTYPE svg PUBLIC "-//W3C//DTD SVG 1.1//EN" "http://www.w3.org/Graphics/SVG/1.1/DTD/svg11.dtd">
<svg xmlns="http://www.w3.org/2000/svg" version="1.1" width="310px" height="78.3px" viewBox="0 -7 310 78.3" style="top:-7px">
  <desc>Pangulong panggulo sa bayan</desc>
  <defs/>
  <g id="Polygon18208">
    <path d="M 105.4 49 C 105.4 49 105.39 49.51 105.4 49.5 C 105.4 50.2 105.5 50.9 105.6 51.5 C 105.8 52.1 106.1 52.6 106.5 53 C 106.9 53.4 107.5 53.7 108.2 53.9 C 109 54.1 109.9 54.2 110.9 54.2 C 111.8 54.2 112.5 54.1 113.2 54 C 113.9 53.8 114.5 53.5 115 53.1 C 115.4 52.7 115.8 52.2 116.1 51.7 C 116.4 51.1 116.5 50.4 116.5 49.6 C 116.5 48.4 116.3 47.5 115.8 46.9 C 115.3 46.2 114.4 45.7 113.2 45.3 C 113.2 45.3 110.9 44.5 110.9 44.5 C 110.2 44.3 109.8 44 109.6 43.7 C 109.3 43.4 109.2 43.1 109.2 42.7 C 109.2 42.2 109.4 41.8 109.7 41.5 C 110.1 41.2 110.5 41.1 111 41.1 C 111.7 41.1 112.1 41.3 112.4 41.6 C 112.6 42 112.7 42.6 112.7 43.4 C 112.73 43.35 116.2 43.4 116.2 43.4 C 116.2 43.4 116.2 42.74 116.2 42.7 C 116.2 41.4 115.8 40.3 114.9 39.6 C 114.1 38.8 112.8 38.5 111 38.5 C 110.1 38.5 109.2 38.6 108.5 38.8 C 107.8 39.1 107.2 39.4 106.8 39.8 C 106.3 40.2 106 40.7 105.8 41.2 C 105.6 41.8 105.5 42.4 105.5 43 C 105.5 44.1 105.8 44.9 106.3 45.6 C 106.9 46.3 107.7 46.8 108.7 47.2 C 108.7 47.2 111.4 48.2 111.4 48.2 C 111.8 48.3 112.1 48.5 112.4 48.8 C 112.7 49 112.8 49.4 112.8 49.9 C 112.8 50.5 112.7 50.9 112.3 51.2 C 112 51.5 111.5 51.7 110.9 51.7 C 110.2 51.7 109.7 51.5 109.4 51.1 C 109 50.7 108.9 50.1 108.9 49.5 C 108.86 49.48 108.9 49 108.9 49 L 105.4 49 Z M 125.5 49.3 C 125.5 49.8 125.4 50.1 125.3 50.4 C 125.1 50.7 124.9 50.9 124.7 51.1 C 124.5 51.3 124.2 51.5 123.9 51.5 C 123.6 51.6 123.4 51.7 123.1 51.7 C 122.6 51.7 122.2 51.5 122 51.1 C 121.8 50.6 121.7 50.1 121.7 49.6 C 121.7 48.9 121.8 48.4 122.2 48 C 122.5 47.6 123.1 47.3 123.8 47.1 C 124.1 47.1 124.4 47 124.7 46.9 C 125 46.7 125.2 46.6 125.5 46.4 C 125.5 46.4 125.5 49.3 125.5 49.3 Z M 121.9 43.5 C 121.9 43.5 121.91 43.04 121.9 43 C 121.9 42.4 122.1 42 122.4 41.6 C 122.7 41.3 123.1 41.1 123.7 41.1 C 124.4 41.1 124.8 41.2 125.1 41.6 C 125.4 41.9 125.5 42.4 125.5 42.9 C 125.5 43.4 125.4 43.8 125.2 44.1 C 124.9 44.3 124.5 44.5 124 44.7 C 124 44.7 121.8 45.3 121.8 45.3 C 121.1 45.5 120.5 45.7 120.1 45.9 C 119.6 46.2 119.2 46.5 118.9 46.8 C 118.6 47.2 118.3 47.6 118.2 48.2 C 118 48.7 118 49.3 118 50 C 118 50.5 118 51 118.2 51.5 C 118.3 52 118.5 52.5 118.8 52.9 C 119.1 53.3 119.4 53.6 119.9 53.9 C 120.4 54.1 120.9 54.2 121.6 54.2 C 122.5 54.2 123.3 54.1 123.9 53.9 C 124.5 53.6 125 53.1 125.4 52.3 C 125.4 52.3 125.5 52.3 125.5 52.3 C 125.6 52.6 125.6 52.9 125.7 53.1 C 125.7 53.4 125.8 53.7 126 53.9 C 126 53.9 129.7 53.9 129.7 53.9 C 129.5 53.5 129.4 53 129.3 52.6 C 129.2 52.3 129.2 51.7 129.2 51 C 129.2 51 129.2 43.1 129.2 43.1 C 129.2 42.4 129.1 41.8 129 41.2 C 128.8 40.6 128.6 40.2 128.2 39.7 C 127.8 39.3 127.2 39 126.5 38.8 C 125.8 38.6 124.9 38.5 123.7 38.5 C 123 38.5 122.3 38.5 121.7 38.7 C 121 38.8 120.5 39.1 120 39.5 C 119.5 39.8 119.1 40.3 118.9 40.9 C 118.6 41.5 118.4 42.2 118.4 43.1 C 118.44 43.1 118.4 43.5 118.4 43.5 L 121.9 43.5 Z M 138.7 53.9 L 142.4 53.9 L 142.4 52.3 C 142.4 52.3 142.41 52.31 142.4 52.3 C 142.8 53 143.3 53.5 143.8 53.8 C 144.4 54.1 145 54.2 145.8 54.2 C 147.4 54.2 148.6 53.6 149.3 52.4 C 150.1 51.2 150.4 49.2 150.4 46.4 C 150.4 43.6 150.1 41.6 149.3 40.3 C 148.6 39.1 147.4 38.5 145.8 38.5 C 145.1 38.5 144.5 38.6 144 38.9 C 143.4 39.2 143 39.6 142.6 40.2 C 142.58 40.24 142.5 40.2 142.5 40.2 L 142.5 33.9 L 138.7 33.9 L 138.7 53.9 Z M 142.9 42.7 C 143.1 41.8 143.7 41.4 144.6 41.4 C 145.4 41.4 145.9 41.8 146.2 42.7 C 146.5 43.5 146.6 44.7 146.6 46.4 C 146.6 48 146.5 49.3 146.2 50.1 C 145.9 50.9 145.4 51.3 144.6 51.3 C 143.7 51.3 143.1 50.9 142.9 50.1 C 142.6 49.3 142.5 48 142.5 46.4 C 142.5 44.7 142.6 43.5 142.9 42.7 Z M 159.7 49.3 C 159.7 49.8 159.6 50.1 159.5 50.4 C 159.3 50.7 159.1 50.9 158.9 51.1 C 158.7 51.3 158.4 51.5 158.1 51.5 C 157.8 51.6 157.6 51.7 157.3 51.7 C 156.8 51.7 156.4 51.5 156.2 51.1 C 156 50.6 155.8 50.1 155.8 49.6 C 155.8 48.9 156 48.4 156.4 48 C 156.7 47.6 157.2 47.3 158 47.1 C 158.3 47.1 158.5 47 158.8 46.9 C 159.1 46.7 159.4 46.6 159.7 46.4 C 159.7 46.4 159.7 49.3 159.7 49.3 Z M 156.1 43.5 C 156.1 43.5 156.1 43.04 156.1 43 C 156.1 42.4 156.2 42 156.5 41.6 C 156.8 41.3 157.3 41.1 157.9 41.1 C 158.5 41.1 159 41.2 159.3 41.6 C 159.5 41.9 159.7 42.4 159.7 42.9 C 159.7 43.4 159.6 43.8 159.3 44.1 C 159.1 44.3 158.7 44.5 158.1 44.7 C 158.1 44.7 156 45.3 156 45.3 C 155.3 45.5 154.7 45.7 154.2 45.9 C 153.8 46.2 153.4 46.5 153.1 46.8 C 152.8 47.2 152.5 47.6 152.4 48.2 C 152.2 48.7 152.2 49.3 152.2 50 C 152.2 50.5 152.2 51 152.3 51.5 C 152.5 52 152.7 52.5 153 52.9 C 153.2 53.3 153.6 53.6 154.1 53.9 C 154.6 54.1 155.1 54.2 155.8 54.2 C 156.7 54.2 157.5 54.1 158.1 53.9 C 158.7 53.6 159.2 53.1 159.6 52.3 C 159.6 52.3 159.7 52.3 159.7 52.3 C 159.7 52.6 159.8 52.9 159.9 53.1 C 159.9 53.4 160 53.7 160.2 53.9 C 160.2 53.9 163.9 53.9 163.9 53.9 C 163.7 53.5 163.5 53 163.5 52.6 C 163.4 52.3 163.4 51.7 163.4 51 C 163.4 51 163.4 43.1 163.4 43.1 C 163.4 42.4 163.3 41.8 163.2 41.2 C 163 40.6 162.8 40.2 162.4 39.7 C 162 39.3 161.4 39 160.7 38.8 C 160 38.6 159.1 38.5 157.9 38.5 C 157.2 38.5 156.5 38.5 155.9 38.7 C 155.2 38.8 154.7 39.1 154.2 39.5 C 153.7 39.8 153.3 40.3 153 40.9 C 152.8 41.5 152.6 42.2 152.6 43.1 C 152.63 43.1 152.6 43.5 152.6 43.5 L 156.1 43.5 Z M 166.1 58.8 C 166.1 58.8 167.69 58.75 167.7 58.8 C 168.6 58.8 169.3 58.7 169.9 58.6 C 170.5 58.4 171 58.1 171.4 57.7 C 171.8 57.3 172.2 56.7 172.5 55.9 C 172.8 55.2 173.2 54.2 173.5 52.9 C 173.49 52.9 177.1 38.8 177.1 38.8 L 173.3 38.8 L 171.3 49.3 L 171.2 49.3 L 169 38.8 L 165 38.8 C 165 38.8 169.2 53.91 169.2 53.9 C 169.1 54.5 169 55 168.7 55.4 C 168.3 55.8 167.8 56 167.1 56 C 166.8 56 166.5 55.9 166.1 55.9 C 166.12 55.87 166.1 58.8 166.1 58.8 Z M 185.9 49.3 C 185.9 49.8 185.8 50.1 185.6 50.4 C 185.5 50.7 185.3 50.9 185.1 51.1 C 184.8 51.3 184.6 51.5 184.3 51.5 C 184 51.6 183.7 51.7 183.5 51.7 C 183 51.7 182.6 51.5 182.4 51.1 C 182.1 50.6 182 50.1 182 49.6 C 182 48.9 182.2 48.4 182.5 48 C 182.9 47.6 183.4 47.3 184.2 47.1 C 184.5 47.1 184.7 47 185 46.9 C 185.3 46.7 185.6 46.6 185.9 46.4 C 185.9 46.4 185.9 49.3 185.9 49.3 Z M 182.3 43.5 C 182.3 43.5 182.28 43.04 182.3 43 C 182.3 42.4 182.4 42 182.7 41.6 C 183 41.3 183.5 41.1 184.1 41.1 C 184.7 41.1 185.2 41.2 185.5 41.6 C 185.7 41.9 185.9 42.4 185.9 42.9 C 185.9 43.4 185.8 43.8 185.5 44.1 C 185.3 44.3 184.9 44.5 184.3 44.7 C 184.3 44.7 182.1 45.3 182.1 45.3 C 181.5 45.5 180.9 45.7 180.4 45.9 C 179.9 46.2 179.5 46.5 179.2 46.8 C 178.9 47.2 178.7 47.6 178.6 48.2 C 178.4 48.7 178.3 49.3 178.3 50 C 178.3 50.5 178.4 51 178.5 51.5 C 178.7 52 178.9 52.5 179.1 52.9 C 179.4 53.3 179.8 53.6 180.3 53.9 C 180.7 54.1 181.3 54.2 182 54.2 C 182.9 54.2 183.7 54.1 184.3 53.9 C 184.8 53.6 185.4 53.1 185.8 52.3 C 185.8 52.3 185.9 52.3 185.9 52.3 C 185.9 52.6 186 52.9 186 53.1 C 186.1 53.4 186.2 53.7 186.3 53.9 C 186.3 53.9 190 53.9 190 53.9 C 189.8 53.5 189.7 53 189.7 52.6 C 189.6 52.3 189.6 51.7 189.6 51 C 189.6 51 189.6 43.1 189.6 43.1 C 189.6 42.4 189.5 41.8 189.3 41.2 C 189.2 40.6 188.9 40.2 188.6 39.7 C 188.2 39.3 187.6 39 186.9 38.8 C 186.2 38.6 185.3 38.5 184.1 38.5 C 183.4 38.5 182.7 38.5 182 38.7 C 181.4 38.8 180.8 39.1 180.4 39.5 C 179.9 39.8 179.5 40.3 179.2 40.9 C 178.9 41.5 178.8 42.2 178.8 43.1 C 178.81 43.1 178.8 43.5 178.8 43.5 L 182.3 43.5 Z M 192.3 53.9 L 196.2 53.9 C 196.2 53.9 196.17 43.91 196.2 43.9 C 196.2 42.3 196.8 41.4 198.2 41.4 C 198.8 41.4 199.2 41.6 199.5 41.9 C 199.7 42.2 199.9 42.7 199.9 43.5 C 199.86 43.52 199.9 53.9 199.9 53.9 L 203.7 53.9 C 203.7 53.9 203.73 42.74 203.7 42.7 C 203.7 41.2 203.4 40.1 202.7 39.5 C 202.1 38.8 201.1 38.5 199.9 38.5 C 199.1 38.5 198.3 38.6 197.7 39 C 197 39.3 196.5 39.9 196.1 40.6 C 196.05 40.61 196 40.6 196 40.6 L 196 38.8 L 192.3 38.8 L 192.3 53.9 Z " stroke="none" fill="#000"/>
  </g>
  <g id="Polygon18207">
    <path d="M 46.3 9.9 C 46.3 9.9 47.99 9.88 48 9.9 C 49 9.9 49.7 10.1 50.1 10.7 C 50.6 11.2 50.8 12 50.8 13 C 50.8 14 50.5 14.7 50.1 15.2 C 49.6 15.7 48.9 16 48.1 16 C 48.1 15.96 46.3 16 46.3 16 L 46.3 9.9 Z M 42.3 26.9 L 46.3 26.9 L 46.3 18.9 C 46.3 18.9 48.47 18.93 48.5 18.9 C 49.4 18.9 50.3 18.8 51.1 18.6 C 51.9 18.3 52.5 18 53.1 17.5 C 53.6 17 54.1 16.4 54.4 15.6 C 54.7 14.8 54.8 13.9 54.8 12.9 C 54.8 12.2 54.7 11.4 54.5 10.7 C 54.4 10 54 9.4 53.6 8.8 C 53.2 8.2 52.6 7.8 51.9 7.4 C 51.2 7.1 50.4 6.9 49.3 6.9 C 49.34 6.92 42.3 6.9 42.3 6.9 L 42.3 26.9 Z M 63.2 22.3 C 63.2 22.8 63.1 23.1 63 23.4 C 62.9 23.7 62.7 23.9 62.4 24.1 C 62.2 24.3 61.9 24.5 61.7 24.5 C 61.4 24.6 61.1 24.7 60.8 24.7 C 60.3 24.7 59.9 24.5 59.7 24.1 C 59.5 23.6 59.4 23.1 59.4 22.6 C 59.4 21.9 59.6 21.4 59.9 21 C 60.2 20.6 60.8 20.3 61.6 20.1 C 61.8 20.1 62.1 20 62.4 19.9 C 62.7 19.7 63 19.6 63.2 19.4 C 63.2 19.4 63.2 22.3 63.2 22.3 Z M 59.6 16.5 C 59.6 16.5 59.64 16.04 59.6 16 C 59.6 15.4 59.8 15 60.1 14.6 C 60.4 14.3 60.8 14.1 61.4 14.1 C 62.1 14.1 62.5 14.2 62.8 14.6 C 63.1 14.9 63.2 15.4 63.2 15.9 C 63.2 16.4 63.1 16.8 62.9 17.1 C 62.7 17.3 62.3 17.5 61.7 17.7 C 61.7 17.7 59.5 18.3 59.5 18.3 C 58.8 18.5 58.3 18.7 57.8 18.9 C 57.3 19.2 56.9 19.5 56.6 19.8 C 56.3 20.2 56.1 20.6 55.9 21.2 C 55.8 21.7 55.7 22.3 55.7 23 C 55.7 23.5 55.8 24 55.9 24.5 C 56 25 56.2 25.5 56.5 25.9 C 56.8 26.3 57.2 26.6 57.6 26.9 C 58.1 27.1 58.7 27.2 59.3 27.2 C 60.3 27.2 61 27.1 61.6 26.9 C 62.2 26.6 62.7 26.1 63.2 25.3 C 63.2 25.3 63.2 25.3 63.2 25.3 C 63.3 25.6 63.3 25.9 63.4 26.1 C 63.5 26.4 63.6 26.7 63.7 26.9 C 63.7 26.9 67.4 26.9 67.4 26.9 C 67.2 26.5 67.1 26 67 25.6 C 67 25.3 66.9 24.7 66.9 24 C 66.9 24 66.9 16.1 66.9 16.1 C 66.9 15.4 66.9 14.8 66.7 14.2 C 66.6 13.6 66.3 13.2 65.9 12.7 C 65.5 12.3 65 12 64.3 11.8 C 63.6 11.6 62.6 11.5 61.5 11.5 C 60.7 11.5 60 11.5 59.4 11.7 C 58.8 11.8 58.2 12.1 57.7 12.5 C 57.2 12.8 56.9 13.3 56.6 13.9 C 56.3 14.5 56.2 15.2 56.2 16.1 C 56.17 16.1 56.2 16.5 56.2 16.5 L 59.6 16.5 Z M 69.7 26.9 L 73.5 26.9 C 73.5 26.9 73.53 16.91 73.5 16.9 C 73.5 15.3 74.2 14.4 75.6 14.4 C 76.2 14.4 76.6 14.6 76.8 14.9 C 77.1 15.2 77.2 15.7 77.2 16.5 C 77.22 16.52 77.2 26.9 77.2 26.9 L 81.1 26.9 C 81.1 26.9 81.09 15.74 81.1 15.7 C 81.1 14.2 80.8 13.1 80.1 12.5 C 79.4 11.8 78.5 11.5 77.3 11.5 C 76.4 11.5 75.7 11.6 75 12 C 74.4 12.3 73.8 12.9 73.4 13.6 C 73.42 13.61 73.4 13.6 73.4 13.6 L 73.4 11.8 L 69.7 11.8 L 69.7 26.9 Z M 87.3 17.3 C 87.3 16.6 87.4 16 87.6 15.6 C 87.7 15.2 87.9 14.9 88.2 14.7 C 88.5 14.5 88.8 14.4 89.2 14.4 C 90 14.4 90.5 14.8 90.8 15.6 C 91.1 16.3 91.3 17.6 91.3 19.5 C 91.3 20.1 91.2 20.7 91.2 21.2 C 91.1 21.7 91 22.2 90.8 22.6 C 90.7 22.9 90.4 23.2 90.2 23.4 C 89.9 23.7 89.6 23.8 89.2 23.8 C 88.7 23.8 88.4 23.7 88.2 23.4 C 87.9 23.2 87.7 22.9 87.6 22.6 C 87.4 22.2 87.3 21.8 87.3 21.3 C 87.2 20.9 87.2 20.4 87.2 19.9 C 87.2 18.8 87.2 18 87.3 17.3 Z M 91.3 11.8 L 91.3 13.5 C 91.3 13.5 91.2 13.52 91.2 13.5 C 90.8 12.7 90.3 12.2 89.8 11.9 C 89.2 11.6 88.6 11.5 88.1 11.5 C 87 11.5 86.2 11.7 85.6 12.2 C 85 12.6 84.5 13.2 84.2 14 C 83.8 14.7 83.6 15.5 83.5 16.4 C 83.4 17.4 83.4 18.2 83.4 19.1 C 83.4 21.9 83.7 23.8 84.5 25 C 85.3 26.2 86.4 26.7 88 26.7 C 88.6 26.7 89.2 26.6 89.8 26.2 C 90.3 25.9 90.8 25.5 91.2 24.9 C 91.2 24.89 91.3 24.9 91.3 24.9 C 91.3 24.9 91.25 26.88 91.3 26.9 C 91.3 27.6 91.1 28.3 90.8 28.8 C 90.5 29.3 89.9 29.5 89.1 29.5 C 88.9 29.5 88.7 29.5 88.4 29.4 C 88.2 29.3 88 29.2 87.8 29.1 C 87.4 28.8 87.2 28.4 87.2 27.9 C 87.2 27.9 83.6 27.9 83.6 27.9 C 83.6 29.2 84 30.2 84.9 30.9 C 85.8 31.6 87 32 88.7 32 C 90.9 32 92.5 31.5 93.5 30.5 C 94.5 29.5 94.9 28.1 94.9 26.2 C 94.95 26.15 94.9 11.8 94.9 11.8 L 91.3 11.8 Z M 105.4 26.9 L 109.1 26.9 L 109.1 11.8 L 105.2 11.8 C 105.2 11.8 105.22 21.84 105.2 21.8 C 105.2 23.5 104.5 24.3 103.2 24.3 C 102.6 24.3 102.2 24.2 101.9 23.9 C 101.7 23.6 101.5 23 101.5 22.2 C 101.53 22.23 101.5 11.8 101.5 11.8 L 97.7 11.8 C 97.7 11.8 97.66 23.02 97.7 23 C 97.7 24.5 98 25.6 98.7 26.2 C 99.3 26.9 100.3 27.2 101.5 27.2 C 102.3 27.2 103.1 27.1 103.7 26.7 C 104.4 26.4 104.9 25.9 105.3 25.1 C 105.34 25.14 105.4 25.1 105.4 25.1 L 105.4 26.9 Z M 111.8 26.9 L 115.7 26.9 L 115.7 6.9 L 111.8 6.9 L 111.8 26.9 Z M 121.8 17.2 C 121.8 16.6 121.9 16 122.1 15.6 C 122.2 15.1 122.4 14.7 122.7 14.5 C 123 14.2 123.3 14.1 123.8 14.1 C 124.6 14.1 125.1 14.5 125.4 15.3 C 125.7 16.1 125.9 17.5 125.9 19.4 C 125.9 21.3 125.7 22.6 125.4 23.4 C 125.1 24.3 124.6 24.7 123.8 24.7 C 123.3 24.7 123 24.5 122.7 24.3 C 122.4 24 122.2 23.7 122.1 23.2 C 121.9 22.7 121.8 22.2 121.8 21.5 C 121.8 20.9 121.7 20.1 121.7 19.4 C 121.7 18.6 121.8 17.9 121.8 17.2 Z M 118.2 22.8 C 118.3 23.8 118.7 24.7 119.1 25.3 C 119.6 26 120.2 26.5 120.9 26.8 C 121.7 27.1 122.7 27.2 123.8 27.2 C 124.9 27.2 125.8 27.1 126.6 26.7 C 127.4 26.4 128 25.9 128.4 25.3 C 128.9 24.6 129.2 23.8 129.4 22.8 C 129.6 21.8 129.8 20.7 129.8 19.4 C 129.8 18.1 129.7 16.9 129.5 15.9 C 129.3 14.9 129 14.1 128.5 13.4 C 128.1 12.7 127.5 12.2 126.7 11.9 C 125.9 11.6 125 11.4 123.8 11.5 C 122.7 11.5 121.8 11.6 121 12 C 120.3 12.3 119.7 12.8 119.2 13.5 C 118.7 14.1 118.4 15 118.2 16 C 118 16.9 117.9 18.1 117.9 19.4 C 117.9 20.7 118 21.8 118.2 22.8 Z M 131.8 26.9 L 135.7 26.9 C 135.7 26.9 135.69 16.91 135.7 16.9 C 135.7 15.3 136.4 14.4 137.7 14.4 C 138.3 14.4 138.7 14.6 139 14.9 C 139.3 15.2 139.4 15.7 139.4 16.5 C 139.38 16.52 139.4 26.9 139.4 26.9 L 143.2 26.9 C 143.2 26.9 143.25 15.74 143.2 15.7 C 143.2 14.2 142.9 13.1 142.3 12.5 C 141.6 11.8 140.6 11.5 139.4 11.5 C 138.6 11.5 137.8 11.6 137.2 12 C 136.5 12.3 136 12.9 135.6 13.6 C 135.58 13.61 135.5 13.6 135.5 13.6 L 135.5 11.8 L 131.8 11.8 L 131.8 26.9 Z M 149.4 17.3 C 149.5 16.6 149.6 16 149.7 15.6 C 149.9 15.2 150.1 14.9 150.4 14.7 C 150.6 14.5 151 14.4 151.4 14.4 C 152.2 14.4 152.7 14.8 153 15.6 C 153.3 16.3 153.4 17.6 153.4 19.5 C 153.4 20.1 153.4 20.7 153.3 21.2 C 153.2 21.7 153.1 22.2 153 22.6 C 152.8 22.9 152.6 23.2 152.3 23.4 C 152.1 23.7 151.7 23.8 151.3 23.8 C 150.9 23.8 150.6 23.7 150.3 23.4 C 150.1 23.2 149.9 22.9 149.7 22.6 C 149.6 22.2 149.5 21.8 149.4 21.3 C 149.4 20.9 149.4 20.4 149.4 19.9 C 149.4 18.8 149.4 18 149.4 17.3 Z M 153.4 11.8 L 153.4 13.5 C 153.4 13.5 153.36 13.52 153.4 13.5 C 153 12.7 152.5 12.2 151.9 11.9 C 151.3 11.6 150.8 11.5 150.2 11.5 C 149.2 11.5 148.4 11.7 147.7 12.2 C 147.1 12.6 146.6 13.2 146.3 14 C 146 14.7 145.8 15.5 145.7 16.4 C 145.6 17.4 145.5 18.2 145.5 19.1 C 145.5 21.9 145.9 23.8 146.7 25 C 147.5 26.2 148.6 26.7 150.1 26.7 C 150.8 26.7 151.3 26.6 151.9 26.2 C 152.5 25.9 153 25.5 153.4 24.9 C 153.36 24.89 153.4 24.9 153.4 24.9 C 153.4 24.9 153.41 26.88 153.4 26.9 C 153.4 27.6 153.3 28.3 152.9 28.8 C 152.6 29.3 152.1 29.5 151.3 29.5 C 151 29.5 150.8 29.5 150.6 29.4 C 150.4 29.3 150.2 29.2 150 29.1 C 149.6 28.8 149.4 28.4 149.4 27.9 C 149.4 27.9 145.7 27.9 145.7 27.9 C 145.7 29.2 146.2 30.2 147 30.9 C 147.9 31.6 149.2 32 150.8 32 C 153.1 32 154.7 31.5 155.7 30.5 C 156.6 29.5 157.1 28.1 157.1 26.2 C 157.11 26.15 157.1 11.8 157.1 11.8 L 153.4 11.8 Z M 166.5 31.8 L 170.4 31.8 L 170.4 25.5 C 170.4 25.5 170.46 25.51 170.5 25.5 C 170.9 26.1 171.3 26.5 171.8 26.8 C 172.4 27.1 173 27.2 173.7 27.2 C 175.3 27.2 176.5 26.6 177.2 25.4 C 178 24.2 178.3 22.2 178.3 19.4 C 178.3 16.6 178 14.6 177.2 13.3 C 176.5 12.1 175.3 11.5 173.7 11.5 C 172.9 11.5 172.3 11.6 171.7 11.9 C 171.2 12.2 170.7 12.7 170.3 13.4 C 170.3 13.44 170.2 13.4 170.2 13.4 L 170.2 11.8 L 166.5 11.8 L 166.5 31.8 Z M 170.8 15.7 C 171 14.8 171.6 14.4 172.5 14.4 C 173.3 14.4 173.8 14.8 174.1 15.7 C 174.3 16.5 174.5 17.7 174.5 19.4 C 174.5 21 174.3 22.3 174.1 23.1 C 173.8 23.9 173.3 24.3 172.5 24.3 C 171.6 24.3 171 23.9 170.8 23.1 C 170.5 22.3 170.4 21 170.4 19.4 C 170.4 17.7 170.5 16.5 170.8 15.7 Z M 187.6 22.3 C 187.6 22.8 187.5 23.1 187.3 23.4 C 187.2 23.7 187 23.9 186.8 24.1 C 186.5 24.3 186.3 24.5 186 24.5 C 185.7 24.6 185.5 24.7 185.2 24.7 C 184.7 24.7 184.3 24.5 184.1 24.1 C 183.8 23.6 183.7 23.1 183.7 22.6 C 183.7 21.9 183.9 21.4 184.2 21 C 184.6 20.6 185.1 20.3 185.9 20.1 C 186.2 20.1 186.4 20 186.7 19.9 C 187 19.7 187.3 19.6 187.6 19.4 C 187.6 19.4 187.6 22.3 187.6 22.3 Z M 184 16.5 C 184 16.5 183.99 16.04 184 16 C 184 15.4 184.1 15 184.4 14.6 C 184.7 14.3 185.2 14.1 185.8 14.1 C 186.4 14.1 186.9 14.2 187.2 14.6 C 187.4 14.9 187.6 15.4 187.6 15.9 C 187.6 16.4 187.5 16.8 187.2 17.1 C 187 17.3 186.6 17.5 186 17.7 C 186 17.7 183.8 18.3 183.8 18.3 C 183.2 18.5 182.6 18.7 182.1 18.9 C 181.6 19.2 181.3 19.5 180.9 19.8 C 180.6 20.2 180.4 20.6 180.3 21.2 C 180.1 21.7 180 22.3 180 23 C 180 23.5 180.1 24 180.2 24.5 C 180.4 25 180.6 25.5 180.9 25.9 C 181.1 26.3 181.5 26.6 182 26.9 C 182.4 27.1 183 27.2 183.7 27.2 C 184.6 27.2 185.4 27.1 186 26.9 C 186.5 26.6 187.1 26.1 187.5 25.3 C 187.5 25.3 187.6 25.3 187.6 25.3 C 187.6 25.6 187.7 25.9 187.8 26.1 C 187.8 26.4 187.9 26.7 188 26.9 C 188 26.9 191.7 26.9 191.7 26.9 C 191.6 26.5 191.4 26 191.4 25.6 C 191.3 25.3 191.3 24.7 191.3 24 C 191.3 24 191.3 16.1 191.3 16.1 C 191.3 15.4 191.2 14.8 191.1 14.2 C 190.9 13.6 190.7 13.2 190.3 12.7 C 189.9 12.3 189.3 12 188.6 11.8 C 187.9 11.6 187 11.5 185.8 11.5 C 185.1 11.5 184.4 11.5 183.7 11.7 C 183.1 11.8 182.5 12.1 182.1 12.5 C 181.6 12.8 181.2 13.3 180.9 13.9 C 180.7 14.5 180.5 15.2 180.5 16.1 C 180.52 16.1 180.5 16.5 180.5 16.5 L 184 16.5 Z M 194 26.9 L 197.9 26.9 C 197.9 26.9 197.88 16.91 197.9 16.9 C 197.9 15.3 198.6 14.4 199.9 14.4 C 200.5 14.4 200.9 14.6 201.2 14.9 C 201.4 15.2 201.6 15.7 201.6 16.5 C 201.57 16.52 201.6 26.9 201.6 26.9 L 205.4 26.9 C 205.4 26.9 205.44 15.74 205.4 15.7 C 205.4 14.2 205.1 13.1 204.4 12.5 C 203.8 11.8 202.8 11.5 201.6 11.5 C 200.8 11.5 200 11.6 199.4 12 C 198.7 12.3 198.2 12.9 197.8 13.6 C 197.76 13.61 197.7 13.6 197.7 13.6 L 197.7 11.8 L 194 11.8 L 194 26.9 Z M 211.6 17.3 C 211.7 16.6 211.8 16 211.9 15.6 C 212.1 15.2 212.3 14.9 212.5 14.7 C 212.8 14.5 213.2 14.4 213.6 14.4 C 214.3 14.4 214.9 14.8 215.2 15.6 C 215.5 16.3 215.6 17.6 215.6 19.5 C 215.6 20.1 215.6 20.7 215.5 21.2 C 215.4 21.7 215.3 22.2 215.2 22.6 C 215 22.9 214.8 23.2 214.5 23.4 C 214.3 23.7 213.9 23.8 213.5 23.8 C 213.1 23.8 212.8 23.7 212.5 23.4 C 212.3 23.2 212.1 22.9 211.9 22.6 C 211.8 22.2 211.7 21.8 211.6 21.3 C 211.6 20.9 211.6 20.4 211.6 19.9 C 211.6 18.8 211.6 18 211.6 17.3 Z M 215.6 11.8 L 215.6 13.5 C 215.6 13.5 215.54 13.52 215.5 13.5 C 215.2 12.7 214.7 12.2 214.1 11.9 C 213.5 11.6 213 11.5 212.4 11.5 C 211.4 11.5 210.6 11.7 209.9 12.2 C 209.3 12.6 208.8 13.2 208.5 14 C 208.2 14.7 208 15.5 207.9 16.4 C 207.8 17.4 207.7 18.2 207.7 19.1 C 207.7 21.9 208.1 23.8 208.9 25 C 209.6 26.2 210.8 26.7 212.3 26.7 C 212.9 26.7 213.5 26.6 214.1 26.2 C 214.7 25.9 215.2 25.5 215.5 24.9 C 215.54 24.89 215.6 24.9 215.6 24.9 C 215.6 24.9 215.6 26.88 215.6 26.9 C 215.6 27.6 215.4 28.3 215.1 28.8 C 214.8 29.3 214.3 29.5 213.5 29.5 C 213.2 29.5 213 29.5 212.8 29.4 C 212.6 29.3 212.4 29.2 212.2 29.1 C 211.8 28.8 211.6 28.4 211.6 27.9 C 211.6 27.9 207.9 27.9 207.9 27.9 C 207.9 29.2 208.3 30.2 209.2 30.9 C 210.1 31.6 211.4 32 213 32 C 215.3 32 216.9 31.5 217.9 30.5 C 218.8 29.5 219.3 28.1 219.3 26.2 C 219.3 26.15 219.3 11.8 219.3 11.8 L 215.6 11.8 Z M 225.6 17.3 C 225.7 16.6 225.8 16 225.9 15.6 C 226.1 15.2 226.3 14.9 226.5 14.7 C 226.8 14.5 227.2 14.4 227.6 14.4 C 228.3 14.4 228.9 14.8 229.2 15.6 C 229.5 16.3 229.6 17.6 229.6 19.5 C 229.6 20.1 229.6 20.7 229.5 21.2 C 229.4 21.7 229.3 22.2 229.2 22.6 C 229 22.9 228.8 23.2 228.5 23.4 C 228.3 23.7 227.9 23.8 227.5 23.8 C 227.1 23.8 226.8 23.7 226.5 23.4 C 226.3 23.2 226.1 22.9 225.9 22.6 C 225.8 22.2 225.7 21.8 225.6 21.3 C 225.6 20.9 225.6 20.4 225.6 19.9 C 225.6 18.8 225.6 18 225.6 17.3 Z M 229.6 11.8 L 229.6 13.5 C 229.6 13.5 229.54 13.52 229.5 13.5 C 229.2 12.7 228.7 12.2 228.1 11.9 C 227.5 11.6 227 11.5 226.4 11.5 C 225.4 11.5 224.6 11.7 223.9 12.2 C 223.3 12.6 222.8 13.2 222.5 14 C 222.2 14.7 222 15.5 221.9 16.4 C 221.8 17.4 221.7 18.2 221.7 19.1 C 221.7 21.9 222.1 23.8 222.9 25 C 223.6 26.2 224.8 26.7 226.3 26.7 C 226.9 26.7 227.5 26.6 228.1 26.2 C 228.7 25.9 229.2 25.5 229.5 24.9 C 229.54 24.89 229.6 24.9 229.6 24.9 C 229.6 24.9 229.6 26.88 229.6 26.9 C 229.6 27.6 229.4 28.3 229.1 28.8 C 228.8 29.3 228.3 29.5 227.5 29.5 C 227.2 29.5 227 29.5 226.8 29.4 C 226.6 29.3 226.4 29.2 226.2 29.1 C 225.8 28.8 225.6 28.4 225.6 27.9 C 225.6 27.9 221.9 27.9 221.9 27.9 C 221.9 29.2 222.3 30.2 223.2 30.9 C 224.1 31.6 225.4 32 227 32 C 229.3 32 230.9 31.5 231.9 30.5 C 232.8 29.5 233.3 28.1 233.3 26.2 C 233.3 26.15 233.3 11.8 233.3 11.8 L 229.6 11.8 Z M 243.7 26.9 L 247.4 26.9 L 247.4 11.8 L 243.6 11.8 C 243.6 11.8 243.57 21.84 243.6 21.8 C 243.6 23.5 242.9 24.3 241.5 24.3 C 240.9 24.3 240.5 24.2 240.3 23.9 C 240 23.6 239.9 23 239.9 22.2 C 239.88 22.23 239.9 11.8 239.9 11.8 L 236 11.8 C 236 11.8 236.01 23.02 236 23 C 236 24.5 236.3 25.6 237 26.2 C 237.7 26.9 238.6 27.2 239.8 27.2 C 240.7 27.2 241.4 27.1 242.1 26.7 C 242.7 26.4 243.3 25.9 243.7 25.1 C 243.68 25.14 243.7 25.1 243.7 25.1 L 243.7 26.9 Z M 250.2 26.9 L 254 26.9 L 254 6.9 L 250.2 6.9 L 250.2 26.9 Z M 260.1 17.2 C 260.2 16.6 260.3 16 260.4 15.6 C 260.6 15.1 260.8 14.7 261 14.5 C 261.3 14.2 261.7 14.1 262.2 14.1 C 262.9 14.1 263.5 14.5 263.8 15.3 C 264.1 16.1 264.2 17.5 264.2 19.4 C 264.2 21.3 264.1 22.6 263.8 23.4 C 263.5 24.3 262.9 24.7 262.2 24.7 C 261.7 24.7 261.3 24.5 261 24.3 C 260.8 24 260.6 23.7 260.4 23.2 C 260.3 22.7 260.2 22.2 260.1 21.5 C 260.1 20.9 260.1 20.1 260.1 19.4 C 260.1 18.6 260.1 17.9 260.1 17.2 Z M 256.5 22.8 C 256.7 23.8 257 24.7 257.5 25.3 C 257.9 26 258.5 26.5 259.3 26.8 C 260 27.1 261 27.2 262.2 27.2 C 263.3 27.2 264.2 27.1 264.9 26.7 C 265.7 26.4 266.3 25.9 266.8 25.3 C 267.2 24.6 267.6 23.8 267.8 22.8 C 268 21.8 268.1 20.7 268.1 19.4 C 268.1 18.1 268 16.9 267.8 15.9 C 267.6 14.9 267.3 14.1 266.9 13.4 C 266.4 12.7 265.8 12.2 265 11.9 C 264.3 11.6 263.3 11.4 262.2 11.5 C 261.1 11.5 260.1 11.6 259.4 12 C 258.6 12.3 258 12.8 257.5 13.5 C 257.1 14.1 256.7 15 256.5 16 C 256.3 16.9 256.2 18.1 256.2 19.4 C 256.2 20.7 256.3 21.8 256.5 22.8 Z " stroke="none" fill="#000"/>
  </g>
</svg>