<?xml version="1.0" standalone="no"?>
<!DOCTYPE svg PUBLIC "-//W3C//DTD SVG 1.1//EN" "http://www.w3.org/Graphics/SVG/1.1/DTD/svg11.dtd">
<svg xmlns="http://www.w3.org/2000/svg" version="1.1" width="223.2px" height="18px" viewBox="0 -3 223.2 18" style="top:-3px">
  <desc>Likha ni Heather Lazier Kuha mula sa International</desc>
  <defs/>
  <g id="Polygon34164">
    <path d="M 0.5 1.7 L 1.5 1.7 L 1.5 10.7 L 0.5 10.7 L 0.5 1.7 Z M 6.2 2.3 L 7.3 2.3 L 6.2 7.8 L 9.4 7.8 L 9.2 8.8 L 4.8 8.8 L 6.2 2.3 Z M 11.3 2.3 L 12.3 2.3 L 12.1 3.3 L 11.1 3.3 L 11.3 2.3 Z M 10.9 4.1 L 11.9 4.1 L 11 8.8 L 9.9 8.8 L 10.9 4.1 Z M 13.5 2.3 L 14.6 2.3 L 13.8 6 L 13.8 6 L 15.9 4.1 L 17.2 4.1 L 15.2 5.8 L 16.3 8.8 L 15.2 8.8 L 14.4 6.5 L 13.6 7.2 L 13.2 8.8 L 12.2 8.8 L 13.5 2.3 Z M 18.3 2.3 L 19.3 2.3 L 18.8 4.8 C 18.8 4.8 18.84 4.78 18.8 4.8 C 19 4.5 19.2 4.4 19.5 4.2 C 19.8 4.1 20.1 4 20.4 4 C 20.8 4 21.2 4.1 21.4 4.3 C 21.6 4.6 21.7 4.9 21.7 5.2 C 21.7 5.3 21.7 5.4 21.7 5.5 C 21.7 5.6 21.7 5.7 21.7 5.8 C 21.68 5.8 21.1 8.8 21.1 8.8 L 20 8.8 C 20 8.8 20.63 5.9 20.6 5.9 C 20.6 5.8 20.7 5.8 20.7 5.7 C 20.7 5.6 20.7 5.5 20.7 5.5 C 20.7 5.4 20.7 5.4 20.7 5.3 C 20.7 5.2 20.7 5.2 20.6 5.1 C 20.6 5 20.5 4.9 20.4 4.9 C 20.3 4.8 20.2 4.8 20 4.8 C 19.8 4.8 19.6 4.8 19.4 4.9 C 19.3 5 19.1 5.1 19 5.3 C 18.9 5.4 18.8 5.5 18.7 5.7 C 18.6 5.9 18.6 6.1 18.5 6.3 C 18.51 6.25 18 8.8 18 8.8 L 17 8.8 L 18.3 2.3 Z M 23.3 7.5 C 23.3 7.6 23.3 7.7 23.3 7.8 C 23.4 7.9 23.5 7.9 23.5 8 C 23.6 8 23.7 8 23.8 8.1 C 23.9 8.1 24 8.1 24.1 8.1 C 24.3 8.1 24.6 8 24.7 8 C 24.9 7.9 25 7.8 25.1 7.6 C 25.3 7.5 25.3 7.3 25.4 7.1 C 25.5 6.9 25.5 6.7 25.6 6.5 C 25.6 6.5 25.5 6.5 25.5 6.5 C 25.5 6.5 25.4 6.6 25.3 6.6 C 25.1 6.7 25 6.7 24.9 6.7 C 24.8 6.7 24.6 6.7 24.4 6.7 C 24.2 6.7 24 6.8 23.9 6.8 C 23.7 6.9 23.6 6.9 23.4 7.1 C 23.3 7.2 23.3 7.3 23.3 7.5 Z M 26.4 7.4 C 26.3 7.5 26.3 7.6 26.3 7.7 C 26.3 7.7 26.3 7.8 26.3 7.9 C 26.3 8 26.3 8 26.3 8 C 26.3 8.1 26.4 8.1 26.5 8.1 C 26.5 8.1 26.6 8.1 26.7 8.1 C 26.7 8.1 26.8 8 26.8 8 C 26.8 8 26.7 8.8 26.7 8.8 C 26.6 8.8 26.4 8.8 26.3 8.9 C 26.2 8.9 26 8.9 25.9 8.9 C 25.7 8.9 25.6 8.8 25.5 8.7 C 25.3 8.6 25.3 8.5 25.3 8.3 C 25.1 8.5 24.8 8.7 24.5 8.8 C 24.3 8.9 24 8.9 23.7 8.9 C 23.5 8.9 23.3 8.9 23.1 8.8 C 23 8.8 22.8 8.7 22.7 8.6 C 22.5 8.5 22.4 8.4 22.4 8.2 C 22.3 8 22.2 7.9 22.2 7.7 C 22.2 7.4 22.3 7.1 22.4 6.9 C 22.5 6.7 22.7 6.6 22.8 6.5 C 23 6.3 23.2 6.2 23.5 6.2 C 23.7 6.1 23.9 6.1 24.2 6.1 C 24.5 6 24.9 6 25.2 6 C 25.4 6 25.5 5.9 25.6 5.8 C 25.7 5.7 25.8 5.5 25.8 5.4 C 25.8 5.1 25.7 5 25.5 4.9 C 25.4 4.8 25.2 4.8 25 4.8 C 24.7 4.8 24.4 4.9 24.2 5 C 24 5.1 23.9 5.2 23.8 5.5 C 23.8 5.5 22.8 5.5 22.8 5.5 C 22.9 5.2 23 5 23.1 4.8 C 23.3 4.6 23.4 4.5 23.6 4.3 C 23.8 4.2 24 4.1 24.3 4.1 C 24.5 4 24.8 4 25 4 C 25.5 4 25.8 4 26 4.1 C 26.3 4.2 26.4 4.3 26.6 4.4 C 26.7 4.5 26.7 4.6 26.8 4.8 C 26.8 4.9 26.8 5 26.8 5.1 C 26.8 5.3 26.8 5.5 26.7 5.8 C 26.7 5.8 26.4 7.4 26.4 7.4 Z M 31 4.1 L 31.9 4.1 L 31.8 4.8 C 31.8 4.8 31.82 4.81 31.8 4.8 C 32 4.6 32.2 4.4 32.5 4.2 C 32.8 4.1 33.1 4 33.4 4 C 33.9 4 34.2 4.1 34.5 4.3 C 34.7 4.6 34.8 4.9 34.8 5.2 C 34.8 5.3 34.8 5.4 34.8 5.5 C 34.8 5.6 34.8 5.7 34.7 5.8 C 34.74 5.8 34.1 8.8 34.1 8.8 L 33.1 8.8 C 33.1 8.8 33.69 5.9 33.7 5.9 C 33.7 5.8 33.7 5.8 33.7 5.7 C 33.7 5.6 33.8 5.5 33.8 5.5 C 33.8 5.4 33.8 5.4 33.8 5.3 C 33.7 5.2 33.7 5.2 33.7 5.1 C 33.6 5 33.6 4.9 33.5 4.9 C 33.4 4.8 33.2 4.8 33 4.8 C 32.8 4.8 32.7 4.8 32.5 4.9 C 32.3 5 32.2 5.1 32.1 5.3 C 32 5.4 31.9 5.5 31.8 5.7 C 31.7 5.9 31.6 6.1 31.6 6.3 C 31.57 6.25 31 8.8 31 8.8 L 30 8.8 L 31 4.1 Z M 36.6 2.3 L 37.6 2.3 L 37.4 3.3 L 36.4 3.3 L 36.6 2.3 Z M 36.2 4.1 L 37.3 4.1 L 36.3 8.8 L 35.3 8.8 L 36.2 4.1 Z M 41.6 2.3 L 42.8 2.3 L 42.2 4.9 L 45.2 4.9 L 45.8 2.3 L 46.9 2.3 L 45.6 8.8 L 44.4 8.8 L 45 5.9 L 42 5.9 L 41.4 8.8 L 40.3 8.8 L 41.6 2.3 Z M 50.6 6 C 50.6 6 50.6 6 50.6 6 C 50.6 5.9 50.6 5.9 50.6 5.9 C 50.6 5.9 50.6 5.8 50.6 5.8 C 50.6 5.5 50.5 5.2 50.3 5.1 C 50.1 4.9 49.9 4.8 49.6 4.8 C 49.2 4.8 48.9 4.9 48.7 5.2 C 48.4 5.4 48.3 5.7 48.2 6 C 48.2 6 50.6 6 50.6 6 Z M 51.3 7.3 C 51.1 7.9 50.9 8.3 50.5 8.5 C 50.1 8.8 49.6 8.9 49.1 8.9 C 48.8 8.9 48.5 8.9 48.3 8.8 C 48 8.7 47.8 8.5 47.6 8.4 C 47.4 8.2 47.3 8 47.2 7.7 C 47.1 7.5 47 7.2 47 6.9 C 47 6.5 47.1 6.2 47.2 5.8 C 47.3 5.5 47.5 5.2 47.7 4.9 C 47.9 4.6 48.2 4.4 48.5 4.2 C 48.8 4.1 49.2 4 49.6 4 C 50 4 50.4 4.1 50.6 4.2 C 50.9 4.3 51.1 4.5 51.2 4.7 C 51.4 4.9 51.5 5.2 51.5 5.4 C 51.6 5.7 51.6 5.9 51.6 6.1 C 51.6 6.3 51.6 6.4 51.6 6.5 C 51.6 6.5 51.6 6.6 51.5 6.7 C 51.5 6.7 48.1 6.7 48.1 6.7 C 48.1 6.7 48.1 6.8 48.1 6.8 C 48.1 6.8 48.1 6.8 48.1 6.9 C 48.1 6.9 48.1 7 48.1 7 C 48.1 7.3 48.1 7.6 48.3 7.8 C 48.5 8 48.8 8.1 49.2 8.1 C 49.4 8.1 49.7 8 49.9 7.9 C 50.1 7.8 50.2 7.6 50.3 7.3 C 50.3 7.3 51.3 7.3 51.3 7.3 Z M 53 7.5 C 53 7.6 53 7.7 53.1 7.8 C 53.1 7.9 53.2 7.9 53.3 8 C 53.3 8 53.4 8 53.5 8.1 C 53.6 8.1 53.7 8.1 53.8 8.1 C 54.1 8.1 54.3 8 54.4 8 C 54.6 7.9 54.7 7.8 54.9 7.6 C 55 7.5 55.1 7.3 55.1 7.1 C 55.2 6.9 55.2 6.7 55.3 6.5 C 55.3 6.5 55.2 6.5 55.2 6.5 C 55.2 6.5 55.1 6.6 55 6.6 C 54.8 6.7 54.7 6.7 54.6 6.7 C 54.5 6.7 54.3 6.7 54.1 6.7 C 53.9 6.7 53.7 6.8 53.6 6.8 C 53.4 6.9 53.3 6.9 53.2 7.1 C 53 7.2 53 7.3 53 7.5 Z M 56.1 7.4 C 56 7.5 56 7.6 56 7.7 C 56 7.7 56 7.8 56 7.9 C 56 8 56 8 56 8 C 56.1 8.1 56.1 8.1 56.2 8.1 C 56.3 8.1 56.3 8.1 56.4 8.1 C 56.4 8.1 56.5 8 56.6 8 C 56.6 8 56.4 8.8 56.4 8.8 C 56.3 8.8 56.1 8.8 56 8.9 C 55.9 8.9 55.7 8.9 55.6 8.9 C 55.4 8.9 55.3 8.8 55.2 8.7 C 55 8.6 55 8.5 55 8.3 C 54.8 8.5 54.5 8.7 54.2 8.8 C 54 8.9 53.7 8.9 53.4 8.9 C 53.2 8.9 53 8.9 52.9 8.8 C 52.7 8.8 52.5 8.7 52.4 8.6 C 52.3 8.5 52.1 8.4 52.1 8.2 C 52 8 52 7.9 52 7.7 C 52 7.4 52 7.1 52.1 6.9 C 52.2 6.7 52.4 6.6 52.5 6.5 C 52.7 6.3 52.9 6.2 53.2 6.2 C 53.4 6.1 53.6 6.1 53.9 6.1 C 54.3 6 54.6 6 54.9 6 C 55.1 6 55.3 5.9 55.3 5.8 C 55.4 5.7 55.5 5.5 55.5 5.4 C 55.5 5.1 55.4 5 55.2 4.9 C 55.1 4.8 54.9 4.8 54.7 4.8 C 54.4 4.8 54.2 4.9 53.9 5 C 53.7 5.1 53.6 5.2 53.5 5.5 C 53.5 5.5 52.6 5.5 52.6 5.5 C 52.6 5.2 52.7 5 52.8 4.8 C 53 4.6 53.1 4.5 53.3 4.3 C 53.5 4.2 53.7 4.1 54 4.1 C 54.2 4 54.5 4 54.8 4 C 55.2 4 55.5 4 55.7 4.1 C 56 4.2 56.1 4.3 56.3 4.4 C 56.4 4.5 56.4 4.6 56.5 4.8 C 56.5 4.9 56.5 5 56.5 5.1 C 56.5 5.3 56.5 5.5 56.4 5.8 C 56.4 5.8 56.1 7.4 56.1 7.4 Z M 58.6 2.7 L 59.6 2.7 L 59.3 4.1 L 60.2 4.1 L 60 4.9 L 59.1 4.9 C 59.1 4.9 58.63 7.16 58.6 7.2 C 58.6 7.3 58.6 7.4 58.6 7.5 C 58.6 7.5 58.5 7.6 58.5 7.7 C 58.5 7.8 58.6 7.9 58.6 7.9 C 58.7 8 58.8 8 58.9 8 C 59 8 59.1 8 59.2 8 C 59.3 8 59.4 8 59.5 8 C 59.5 8 59.3 8.7 59.3 8.7 C 59.2 8.8 59 8.8 58.9 8.8 C 58.7 8.8 58.6 8.8 58.4 8.8 C 58.3 8.8 58.1 8.8 58 8.7 C 57.9 8.7 57.8 8.6 57.7 8.6 C 57.6 8.5 57.6 8.4 57.6 8.3 C 57.5 8.2 57.5 8.1 57.5 8 C 57.5 7.9 57.5 7.8 57.5 7.7 C 57.6 7.6 57.6 7.5 57.6 7.4 C 57.58 7.43 58.1 4.9 58.1 4.9 L 57.3 4.9 L 57.5 4.1 L 58.3 4.1 L 58.6 2.7 Z M 61.4 2.3 L 62.5 2.3 L 62 4.8 C 62 4.8 61.98 4.78 62 4.8 C 62.2 4.5 62.4 4.4 62.7 4.2 C 62.9 4.1 63.2 4 63.5 4 C 64 4 64.3 4.1 64.5 4.3 C 64.8 4.6 64.9 4.9 64.9 5.2 C 64.9 5.3 64.9 5.4 64.9 5.5 C 64.9 5.6 64.8 5.7 64.8 5.8 C 64.82 5.8 64.2 8.8 64.2 8.8 L 63.2 8.8 C 63.2 8.8 63.77 5.9 63.8 5.9 C 63.8 5.8 63.8 5.8 63.8 5.7 C 63.8 5.6 63.8 5.5 63.8 5.5 C 63.8 5.4 63.8 5.4 63.8 5.3 C 63.8 5.2 63.8 5.2 63.8 5.1 C 63.7 5 63.7 4.9 63.6 4.9 C 63.5 4.8 63.3 4.8 63.1 4.8 C 62.9 4.8 62.7 4.8 62.6 4.9 C 62.4 5 62.3 5.1 62.2 5.3 C 62 5.4 61.9 5.5 61.8 5.7 C 61.8 5.9 61.7 6.1 61.7 6.3 C 61.66 6.25 61.1 8.8 61.1 8.8 L 60.1 8.8 L 61.4 2.3 Z M 69.1 6 C 69.1 6 69.1 6 69.1 6 C 69.1 5.9 69.1 5.9 69.1 5.9 C 69.1 5.9 69.1 5.8 69.1 5.8 C 69.1 5.5 69 5.2 68.8 5.1 C 68.7 4.9 68.4 4.8 68.1 4.8 C 67.7 4.8 67.4 4.9 67.2 5.2 C 67 5.4 66.8 5.7 66.7 6 C 66.7 6 69.1 6 69.1 6 Z M 69.8 7.3 C 69.7 7.9 69.4 8.3 69 8.5 C 68.6 8.8 68.2 8.9 67.6 8.9 C 67.3 8.9 67 8.9 66.8 8.8 C 66.5 8.7 66.3 8.5 66.1 8.4 C 66 8.2 65.8 8 65.7 7.7 C 65.6 7.5 65.6 7.2 65.6 6.9 C 65.6 6.5 65.6 6.2 65.7 5.8 C 65.8 5.5 66 5.2 66.2 4.9 C 66.5 4.6 66.7 4.4 67 4.2 C 67.4 4.1 67.7 4 68.1 4 C 68.6 4 68.9 4.1 69.2 4.2 C 69.4 4.3 69.6 4.5 69.8 4.7 C 69.9 4.9 70 5.2 70 5.4 C 70.1 5.7 70.1 5.9 70.1 6.1 C 70.1 6.3 70.1 6.4 70.1 6.5 C 70.1 6.5 70.1 6.6 70.1 6.7 C 70.1 6.7 66.6 6.7 66.6 6.7 C 66.6 6.7 66.6 6.8 66.6 6.8 C 66.6 6.8 66.6 6.8 66.6 6.9 C 66.6 6.9 66.6 7 66.6 7 C 66.6 7.3 66.7 7.6 66.8 7.8 C 67 8 67.3 8.1 67.7 8.1 C 68 8.1 68.2 8 68.4 7.9 C 68.6 7.8 68.7 7.6 68.8 7.3 C 68.8 7.3 69.8 7.3 69.8 7.3 Z M 71.4 4.1 L 72.4 4.1 L 72.2 5 C 72.2 5 72.22 5.05 72.2 5 C 72.3 4.9 72.4 4.8 72.5 4.7 C 72.6 4.5 72.7 4.4 72.8 4.3 C 73 4.2 73.1 4.2 73.2 4.1 C 73.4 4 73.5 4 73.7 4 C 73.8 4 73.9 4 74 4 C 74 4 74.1 4 74.2 4 C 74.2 4 74 5 74 5 C 73.9 5 73.9 5 73.8 5 C 73.7 5 73.7 5 73.6 5 C 73.4 5 73.1 5 72.9 5.1 C 72.7 5.2 72.6 5.3 72.4 5.5 C 72.3 5.7 72.2 5.8 72.1 6 C 72 6.3 72 6.5 71.9 6.7 C 71.92 6.71 71.5 8.8 71.5 8.8 L 70.5 8.8 L 71.4 4.1 Z M 78.1 2.3 L 79.2 2.3 L 78.1 7.8 L 81.3 7.8 L 81.1 8.8 L 76.7 8.8 L 78.1 2.3 Z M 82.9 7.5 C 82.9 7.6 82.9 7.7 83 7.8 C 83 7.9 83.1 7.9 83.2 8 C 83.2 8 83.3 8 83.4 8.1 C 83.5 8.1 83.6 8.1 83.7 8.1 C 84 8.1 84.2 8 84.3 8 C 84.5 7.9 84.7 7.8 84.8 7.6 C 84.9 7.5 85 7.3 85 7.1 C 85.1 6.9 85.1 6.7 85.2 6.5 C 85.2 6.5 85.2 6.5 85.2 6.5 C 85.1 6.5 85 6.6 84.9 6.6 C 84.8 6.7 84.6 6.7 84.5 6.7 C 84.4 6.7 84.2 6.7 84 6.7 C 83.8 6.7 83.7 6.8 83.5 6.8 C 83.3 6.9 83.2 6.9 83.1 7.1 C 83 7.2 82.9 7.3 82.9 7.5 Z M 86 7.4 C 86 7.5 85.9 7.6 85.9 7.7 C 85.9 7.7 85.9 7.8 85.9 7.9 C 85.9 8 85.9 8 85.9 8 C 86 8.1 86 8.1 86.1 8.1 C 86.2 8.1 86.2 8.1 86.3 8.1 C 86.3 8.1 86.4 8 86.5 8 C 86.5 8 86.3 8.8 86.3 8.8 C 86.2 8.8 86 8.8 85.9 8.9 C 85.8 8.9 85.6 8.9 85.5 8.9 C 85.3 8.9 85.2 8.8 85.1 8.7 C 85 8.6 84.9 8.5 84.9 8.3 C 84.7 8.5 84.4 8.7 84.2 8.8 C 83.9 8.9 83.6 8.9 83.3 8.9 C 83.1 8.9 82.9 8.9 82.8 8.8 C 82.6 8.8 82.4 8.7 82.3 8.6 C 82.2 8.5 82.1 8.4 82 8.2 C 81.9 8 81.9 7.9 81.9 7.7 C 81.9 7.4 81.9 7.1 82 6.9 C 82.1 6.7 82.3 6.6 82.5 6.5 C 82.6 6.3 82.9 6.2 83.1 6.2 C 83.3 6.1 83.6 6.1 83.8 6.1 C 84.2 6 84.5 6 84.8 6 C 85 6 85.2 5.9 85.3 5.8 C 85.3 5.7 85.4 5.5 85.4 5.4 C 85.4 5.1 85.3 5 85.2 4.9 C 85 4.8 84.8 4.8 84.6 4.8 C 84.3 4.8 84.1 4.9 83.9 5 C 83.7 5.1 83.5 5.2 83.4 5.5 C 83.4 5.5 82.5 5.5 82.5 5.5 C 82.5 5.2 82.6 5 82.8 4.8 C 82.9 4.6 83 4.5 83.2 4.3 C 83.4 4.2 83.6 4.1 83.9 4.1 C 84.1 4 84.4 4 84.7 4 C 85.1 4 85.4 4 85.7 4.1 C 85.9 4.2 86.1 4.3 86.2 4.4 C 86.3 4.5 86.4 4.6 86.4 4.8 C 86.4 4.9 86.4 5 86.4 5.1 C 86.4 5.3 86.4 5.5 86.3 5.8 C 86.3 5.8 86 7.4 86 7.4 Z M 87.7 4.1 L 91.4 4.1 L 91.2 4.9 L 88.2 8 L 90.8 8 L 90.6 8.8 L 86.6 8.8 L 86.8 8 L 89.8 4.9 L 87.5 4.9 L 87.7 4.1 Z M 92.7 2.3 L 93.7 2.3 L 93.5 3.3 L 92.5 3.3 L 92.7 2.3 Z M 92.3 4.1 L 93.3 4.1 L 92.4 8.8 L 91.4 8.8 L 92.3 4.1 Z M 97.3 6 C 97.3 6 97.3 6 97.3 6 C 97.3 5.9 97.3 5.9 97.3 5.9 C 97.3 5.9 97.3 5.8 97.3 5.8 C 97.3 5.5 97.3 5.2 97.1 5.1 C 96.9 4.9 96.7 4.8 96.4 4.8 C 96 4.8 95.7 4.9 95.4 5.2 C 95.2 5.4 95.1 5.7 95 6 C 95 6 97.3 6 97.3 6 Z M 98.1 7.3 C 97.9 7.9 97.7 8.3 97.3 8.5 C 96.9 8.8 96.4 8.9 95.8 8.9 C 95.6 8.9 95.3 8.9 95 8.8 C 94.8 8.7 94.6 8.5 94.4 8.4 C 94.2 8.2 94.1 8 94 7.7 C 93.9 7.5 93.8 7.2 93.8 6.9 C 93.8 6.5 93.9 6.2 94 5.8 C 94.1 5.5 94.3 5.2 94.5 4.9 C 94.7 4.6 95 4.4 95.3 4.2 C 95.6 4.1 96 4 96.4 4 C 96.8 4 97.1 4.1 97.4 4.2 C 97.7 4.3 97.9 4.5 98 4.7 C 98.1 4.9 98.2 5.2 98.3 5.4 C 98.3 5.7 98.4 5.9 98.4 6.1 C 98.4 6.3 98.4 6.4 98.4 6.5 C 98.3 6.5 98.3 6.6 98.3 6.7 C 98.3 6.7 94.9 6.7 94.9 6.7 C 94.8 6.7 94.8 6.8 94.8 6.8 C 94.8 6.8 94.8 6.8 94.8 6.9 C 94.8 6.9 94.8 7 94.8 7 C 94.8 7.3 94.9 7.6 95.1 7.8 C 95.3 8 95.5 8.1 95.9 8.1 C 96.2 8.1 96.5 8 96.7 7.9 C 96.9 7.8 97 7.6 97.1 7.3 C 97.1 7.3 98.1 7.3 98.1 7.3 Z M 99.7 4.1 L 100.6 4.1 L 100.5 5 C 100.5 5 100.47 5.05 100.5 5 C 100.5 4.9 100.6 4.8 100.7 4.7 C 100.8 4.5 101 4.4 101.1 4.3 C 101.2 4.2 101.3 4.2 101.5 4.1 C 101.6 4 101.8 4 102 4 C 102 4 102.1 4 102.2 4 C 102.3 4 102.4 4 102.5 4 C 102.5 4 102.2 5 102.2 5 C 102.2 5 102.1 5 102.1 5 C 102 5 101.9 5 101.9 5 C 101.6 5 101.4 5 101.2 5.1 C 101 5.2 100.8 5.3 100.7 5.5 C 100.6 5.7 100.4 5.8 100.4 6 C 100.3 6.3 100.2 6.5 100.2 6.7 C 100.17 6.71 99.7 8.8 99.7 8.8 L 98.7 8.8 L 99.7 4.1 Z M 105.5 1.7 L 106.4 1.7 L 106.4 10.7 L 105.5 10.7 L 105.5 1.7 Z M 111.1 2.3 L 112.2 2.3 L 111.6 5.3 L 111.6 5.3 L 114.9 2.3 L 116.4 2.3 L 113.3 5 L 115.3 8.8 L 114.1 8.8 L 112.4 5.7 L 111.3 6.7 L 110.9 8.8 L 109.7 8.8 L 111.1 2.3 Z M 119.9 8.8 L 119 8.8 L 119.1 8.1 C 119.1 8.1 119.11 8.08 119.1 8.1 C 118.9 8.3 118.7 8.5 118.4 8.7 C 118.1 8.8 117.8 8.9 117.5 8.9 C 117 8.9 116.7 8.8 116.5 8.6 C 116.3 8.3 116.1 8 116.1 7.7 C 116.1 7.6 116.2 7.5 116.2 7.4 C 116.2 7.3 116.2 7.2 116.2 7.1 C 116.19 7.09 116.8 4.1 116.8 4.1 L 117.8 4.1 C 117.8 4.1 117.25 6.99 117.2 7 C 117.2 7.1 117.2 7.1 117.2 7.2 C 117.2 7.3 117.2 7.4 117.2 7.4 C 117.2 7.5 117.2 7.5 117.2 7.6 C 117.2 7.7 117.2 7.7 117.2 7.8 C 117.3 7.9 117.4 8 117.5 8 C 117.5 8.1 117.7 8.1 117.9 8.1 C 118.1 8.1 118.3 8 118.4 8 C 118.6 7.9 118.7 7.8 118.9 7.6 C 119 7.5 119.1 7.3 119.2 7.2 C 119.3 7 119.3 6.8 119.4 6.6 C 119.36 6.64 119.9 4.1 119.9 4.1 L 120.9 4.1 L 119.9 8.8 Z M 122.5 2.3 L 123.5 2.3 L 123 4.8 C 123 4.8 123.02 4.78 123 4.8 C 123.2 4.5 123.4 4.4 123.7 4.2 C 124 4.1 124.3 4 124.5 4 C 125 4 125.4 4.1 125.6 4.3 C 125.8 4.6 125.9 4.9 125.9 5.2 C 125.9 5.3 125.9 5.4 125.9 5.5 C 125.9 5.6 125.9 5.7 125.9 5.8 C 125.86 5.8 125.2 8.8 125.2 8.8 L 124.2 8.8 C 124.2 8.8 124.81 5.9 124.8 5.9 C 124.8 5.8 124.8 5.8 124.9 5.7 C 124.9 5.6 124.9 5.5 124.9 5.5 C 124.9 5.4 124.9 5.4 124.9 5.3 C 124.9 5.2 124.8 5.2 124.8 5.1 C 124.8 5 124.7 4.9 124.6 4.9 C 124.5 4.8 124.4 4.8 124.2 4.8 C 124 4.8 123.8 4.8 123.6 4.9 C 123.5 5 123.3 5.1 123.2 5.3 C 123.1 5.4 123 5.5 122.9 5.7 C 122.8 5.9 122.7 6.1 122.7 6.3 C 122.69 6.25 122.2 8.8 122.2 8.8 L 121.1 8.8 L 122.5 2.3 Z M 127.5 7.5 C 127.5 7.6 127.5 7.7 127.5 7.8 C 127.6 7.9 127.6 7.9 127.7 8 C 127.8 8 127.9 8 128 8.1 C 128.1 8.1 128.2 8.1 128.3 8.1 C 128.5 8.1 128.7 8 128.9 8 C 129.1 7.9 129.2 7.8 129.3 7.6 C 129.4 7.5 129.5 7.3 129.6 7.1 C 129.7 6.9 129.7 6.7 129.7 6.5 C 129.7 6.5 129.7 6.5 129.7 6.5 C 129.6 6.5 129.6 6.6 129.4 6.6 C 129.3 6.7 129.2 6.7 129.1 6.7 C 128.9 6.7 128.8 6.7 128.6 6.7 C 128.4 6.7 128.2 6.8 128.1 6.8 C 127.9 6.9 127.7 6.9 127.6 7.1 C 127.5 7.2 127.5 7.3 127.5 7.5 Z M 130.5 7.4 C 130.5 7.5 130.5 7.6 130.5 7.7 C 130.5 7.7 130.4 7.8 130.4 7.9 C 130.4 8 130.5 8 130.5 8 C 130.5 8.1 130.6 8.1 130.7 8.1 C 130.7 8.1 130.8 8.1 130.8 8.1 C 130.9 8.1 131 8 131 8 C 131 8 130.9 8.8 130.9 8.8 C 130.7 8.8 130.6 8.8 130.5 8.9 C 130.3 8.9 130.2 8.9 130.1 8.9 C 129.9 8.9 129.7 8.8 129.6 8.7 C 129.5 8.6 129.5 8.5 129.4 8.3 C 129.2 8.5 129 8.7 128.7 8.8 C 128.4 8.9 128.2 8.9 127.9 8.9 C 127.7 8.9 127.5 8.9 127.3 8.8 C 127.2 8.8 127 8.7 126.9 8.6 C 126.7 8.5 126.6 8.4 126.5 8.2 C 126.5 8 126.4 7.9 126.4 7.7 C 126.4 7.4 126.5 7.1 126.6 6.9 C 126.7 6.7 126.8 6.6 127 6.5 C 127.2 6.3 127.4 6.2 127.6 6.2 C 127.9 6.1 128.1 6.1 128.4 6.1 C 128.7 6 129.1 6 129.4 6 C 129.6 6 129.7 5.9 129.8 5.8 C 129.9 5.7 129.9 5.5 129.9 5.4 C 129.9 5.1 129.9 5 129.7 4.9 C 129.6 4.8 129.4 4.8 129.2 4.8 C 128.9 4.8 128.6 4.9 128.4 5 C 128.2 5.1 128.1 5.2 128 5.5 C 128 5.5 127 5.5 127 5.5 C 127.1 5.2 127.2 5 127.3 4.8 C 127.4 4.6 127.6 4.5 127.8 4.3 C 128 4.2 128.2 4.1 128.4 4.1 C 128.7 4 128.9 4 129.2 4 C 129.6 4 130 4 130.2 4.1 C 130.4 4.2 130.6 4.3 130.7 4.4 C 130.8 4.5 130.9 4.6 130.9 4.8 C 131 4.9 131 5 131 5.1 C 131 5.3 130.9 5.5 130.9 5.8 C 130.9 5.8 130.5 7.4 130.5 7.4 Z M 135.2 4.1 L 136.2 4.1 L 136.1 4.8 C 136.1 4.8 136.07 4.8 136.1 4.8 C 136.3 4.5 136.5 4.3 136.8 4.2 C 137 4.1 137.3 4 137.7 4 C 138 4 138.2 4.1 138.4 4.2 C 138.6 4.3 138.8 4.5 138.8 4.8 C 139.1 4.6 139.3 4.4 139.5 4.2 C 139.8 4.1 140.1 4 140.4 4 C 140.9 4 141.2 4.1 141.4 4.3 C 141.6 4.6 141.7 4.9 141.7 5.2 C 141.7 5.3 141.7 5.4 141.7 5.5 C 141.7 5.6 141.7 5.7 141.7 5.8 C 141.67 5.8 141.1 8.8 141.1 8.8 L 140.1 8.8 C 140.1 8.8 140.63 6.02 140.6 6 C 140.6 6 140.7 5.9 140.7 5.8 C 140.7 5.7 140.7 5.6 140.7 5.5 C 140.7 5.4 140.7 5.3 140.7 5.2 C 140.7 5.2 140.6 5.1 140.6 5 C 140.6 5 140.5 4.9 140.4 4.9 C 140.3 4.8 140.2 4.8 140.1 4.8 C 139.9 4.8 139.7 4.8 139.6 4.9 C 139.4 5 139.3 5.1 139.2 5.2 C 139 5.4 139 5.5 138.9 5.6 C 138.8 5.8 138.8 5.9 138.7 6.1 C 138.75 6.06 138.2 8.8 138.2 8.8 L 137.2 8.8 C 137.2 8.8 137.68 6.22 137.7 6.2 C 137.7 6.1 137.7 6 137.8 5.8 C 137.8 5.7 137.8 5.5 137.8 5.4 C 137.8 5.2 137.8 5.1 137.7 5 C 137.6 4.9 137.5 4.8 137.3 4.8 C 137.1 4.8 136.9 4.8 136.7 4.9 C 136.6 5 136.5 5.1 136.4 5.2 C 136.3 5.3 136.2 5.4 136.1 5.6 C 136 5.7 135.9 5.9 135.8 6.1 C 135.84 6.08 135.3 8.8 135.3 8.8 L 134.3 8.8 L 135.2 4.1 Z M 146.4 8.8 L 145.4 8.8 L 145.5 8.1 C 145.5 8.1 145.51 8.08 145.5 8.1 C 145.3 8.3 145.1 8.5 144.8 8.7 C 144.5 8.8 144.2 8.9 143.9 8.9 C 143.4 8.9 143.1 8.8 142.9 8.6 C 142.7 8.3 142.6 8 142.6 7.7 C 142.6 7.6 142.6 7.5 142.6 7.4 C 142.6 7.3 142.6 7.2 142.6 7.1 C 142.6 7.09 143.2 4.1 143.2 4.1 L 144.2 4.1 C 144.2 4.1 143.65 6.99 143.7 7 C 143.6 7.1 143.6 7.1 143.6 7.2 C 143.6 7.3 143.6 7.4 143.6 7.4 C 143.6 7.5 143.6 7.5 143.6 7.6 C 143.6 7.7 143.6 7.7 143.7 7.8 C 143.7 7.9 143.8 8 143.9 8 C 144 8.1 144.1 8.1 144.3 8.1 C 144.5 8.1 144.7 8 144.8 8 C 145 7.9 145.1 7.8 145.3 7.6 C 145.4 7.5 145.5 7.3 145.6 7.2 C 145.7 7 145.7 6.8 145.8 6.6 C 145.77 6.64 146.3 4.1 146.3 4.1 L 147.3 4.1 L 146.4 8.8 Z M 148.9 2.3 L 149.9 2.3 L 148.6 8.8 L 147.5 8.8 L 148.9 2.3 Z M 150.9 7.5 C 150.9 7.6 150.9 7.7 150.9 7.8 C 151 7.9 151.1 7.9 151.1 8 C 151.2 8 151.3 8 151.4 8.1 C 151.5 8.1 151.6 8.1 151.7 8.1 C 151.9 8.1 152.1 8 152.3 8 C 152.5 7.9 152.6 7.8 152.7 7.6 C 152.8 7.5 152.9 7.3 153 7.1 C 153.1 6.9 153.1 6.7 153.1 6.5 C 153.1 6.5 153.1 6.5 153.1 6.5 C 153.1 6.5 153 6.6 152.8 6.6 C 152.7 6.7 152.6 6.7 152.5 6.7 C 152.3 6.7 152.2 6.7 152 6.7 C 151.8 6.7 151.6 6.8 151.5 6.8 C 151.3 6.9 151.2 6.9 151 7.1 C 150.9 7.2 150.9 7.3 150.9 7.5 Z M 153.9 7.4 C 153.9 7.5 153.9 7.6 153.9 7.7 C 153.9 7.7 153.9 7.8 153.9 7.9 C 153.9 8 153.9 8 153.9 8 C 153.9 8.1 154 8.1 154.1 8.1 C 154.1 8.1 154.2 8.1 154.3 8.1 C 154.3 8.1 154.4 8 154.4 8 C 154.4 8 154.3 8.8 154.3 8.8 C 154.1 8.8 154 8.8 153.9 8.9 C 153.7 8.9 153.6 8.9 153.5 8.9 C 153.3 8.9 153.2 8.8 153 8.7 C 152.9 8.6 152.9 8.5 152.8 8.3 C 152.6 8.5 152.4 8.7 152.1 8.8 C 151.9 8.9 151.6 8.9 151.3 8.9 C 151.1 8.9 150.9 8.9 150.7 8.8 C 150.6 8.8 150.4 8.7 150.3 8.6 C 150.1 8.5 150 8.4 150 8.2 C 149.9 8 149.8 7.9 149.8 7.7 C 149.8 7.4 149.9 7.1 150 6.9 C 150.1 6.7 150.2 6.6 150.4 6.5 C 150.6 6.3 150.8 6.2 151 6.2 C 151.3 6.1 151.5 6.1 151.8 6.1 C 152.1 6 152.5 6 152.8 6 C 153 6 153.1 5.9 153.2 5.8 C 153.3 5.7 153.4 5.5 153.4 5.4 C 153.4 5.1 153.3 5 153.1 4.9 C 153 4.8 152.8 4.8 152.6 4.8 C 152.3 4.8 152 4.9 151.8 5 C 151.6 5.1 151.5 5.2 151.4 5.5 C 151.4 5.5 150.4 5.5 150.4 5.5 C 150.5 5.2 150.6 5 150.7 4.8 C 150.8 4.6 151 4.5 151.2 4.3 C 151.4 4.2 151.6 4.1 151.9 4.1 C 152.1 4 152.4 4 152.6 4 C 153.1 4 153.4 4 153.6 4.1 C 153.9 4.2 154 4.3 154.1 4.4 C 154.3 4.5 154.3 4.6 154.3 4.8 C 154.4 4.9 154.4 5 154.4 5.1 C 154.4 5.3 154.3 5.5 154.3 5.8 C 154.3 5.8 153.9 7.4 153.9 7.4 Z M 160.9 5.5 C 160.9 5.2 160.8 5.1 160.6 5 C 160.5 4.9 160.2 4.8 160 4.8 C 159.9 4.8 159.8 4.8 159.7 4.8 C 159.6 4.9 159.5 4.9 159.4 4.9 C 159.3 5 159.3 5 159.2 5.1 C 159.2 5.2 159.2 5.3 159.2 5.4 C 159.2 5.5 159.2 5.6 159.3 5.7 C 159.4 5.7 159.5 5.8 159.6 5.8 C 159.7 5.9 159.9 5.9 160.1 6 C 160.2 6 160.4 6.1 160.5 6.1 C 160.7 6.2 160.8 6.2 160.9 6.3 C 161.1 6.4 161.2 6.5 161.3 6.6 C 161.4 6.6 161.5 6.8 161.5 6.9 C 161.6 7 161.6 7.2 161.6 7.4 C 161.6 7.6 161.6 7.9 161.4 8.1 C 161.3 8.3 161.2 8.4 161 8.5 C 160.8 8.7 160.6 8.8 160.3 8.8 C 160.1 8.9 159.8 8.9 159.6 8.9 C 159.3 8.9 159 8.9 158.8 8.8 C 158.6 8.8 158.4 8.7 158.2 8.6 C 158 8.4 157.9 8.3 157.8 8.1 C 157.7 7.9 157.6 7.6 157.6 7.3 C 157.6 7.3 158.6 7.3 158.6 7.3 C 158.6 7.6 158.7 7.8 158.9 7.9 C 159.1 8 159.3 8.1 159.6 8.1 C 159.7 8.1 159.8 8.1 159.9 8.1 C 160.1 8 160.2 8 160.3 8 C 160.4 7.9 160.4 7.8 160.5 7.8 C 160.6 7.7 160.6 7.6 160.6 7.4 C 160.6 7.3 160.6 7.2 160.5 7.1 C 160.4 7.1 160.3 7 160.1 6.9 C 160 6.9 159.8 6.8 159.7 6.8 C 159.5 6.7 159.3 6.7 159.2 6.6 C 159 6.6 158.9 6.5 158.8 6.4 C 158.7 6.4 158.6 6.3 158.5 6.2 C 158.4 6.1 158.3 6 158.2 5.9 C 158.2 5.7 158.1 5.6 158.1 5.4 C 158.1 5.2 158.2 4.9 158.3 4.8 C 158.4 4.6 158.6 4.4 158.8 4.3 C 158.9 4.2 159.1 4.1 159.4 4.1 C 159.6 4 159.8 4 160.1 4 C 160.3 4 160.6 4 160.8 4.1 C 161 4.1 161.2 4.2 161.4 4.3 C 161.5 4.4 161.7 4.6 161.7 4.8 C 161.8 5 161.9 5.2 161.9 5.5 C 161.9 5.5 160.9 5.5 160.9 5.5 Z M 163.3 7.5 C 163.3 7.6 163.3 7.7 163.3 7.8 C 163.4 7.9 163.4 7.9 163.5 8 C 163.6 8 163.7 8 163.8 8.1 C 163.9 8.1 164 8.1 164.1 8.1 C 164.3 8.1 164.5 8 164.7 8 C 164.9 7.9 165 7.8 165.1 7.6 C 165.2 7.5 165.3 7.3 165.4 7.1 C 165.5 6.9 165.5 6.7 165.5 6.5 C 165.5 6.5 165.5 6.5 165.5 6.5 C 165.4 6.5 165.4 6.6 165.2 6.6 C 165.1 6.7 165 6.7 164.9 6.7 C 164.7 6.7 164.6 6.7 164.4 6.7 C 164.2 6.7 164 6.8 163.9 6.8 C 163.7 6.9 163.5 6.9 163.4 7.1 C 163.3 7.2 163.3 7.3 163.3 7.5 Z M 166.3 7.4 C 166.3 7.5 166.3 7.6 166.3 7.7 C 166.3 7.7 166.2 7.8 166.2 7.9 C 166.2 8 166.3 8 166.3 8 C 166.3 8.1 166.4 8.1 166.5 8.1 C 166.5 8.1 166.6 8.1 166.6 8.1 C 166.7 8.1 166.8 8 166.8 8 C 166.8 8 166.7 8.8 166.7 8.8 C 166.5 8.8 166.4 8.8 166.3 8.9 C 166.1 8.9 166 8.9 165.9 8.9 C 165.7 8.9 165.5 8.8 165.4 8.7 C 165.3 8.6 165.3 8.5 165.2 8.3 C 165 8.5 164.8 8.7 164.5 8.8 C 164.2 8.9 164 8.9 163.7 8.9 C 163.5 8.9 163.3 8.9 163.1 8.8 C 163 8.8 162.8 8.7 162.7 8.6 C 162.5 8.5 162.4 8.4 162.3 8.2 C 162.3 8 162.2 7.9 162.2 7.7 C 162.2 7.4 162.3 7.1 162.4 6.9 C 162.5 6.7 162.6 6.6 162.8 6.5 C 163 6.3 163.2 6.2 163.4 6.2 C 163.7 6.1 163.9 6.1 164.2 6.1 C 164.5 6 164.9 6 165.2 6 C 165.4 6 165.5 5.9 165.6 5.8 C 165.7 5.7 165.7 5.5 165.7 5.4 C 165.7 5.1 165.7 5 165.5 4.9 C 165.4 4.8 165.2 4.8 165 4.8 C 164.7 4.8 164.4 4.9 164.2 5 C 164 5.1 163.9 5.2 163.8 5.5 C 163.8 5.5 162.8 5.5 162.8 5.5 C 162.9 5.2 163 5 163.1 4.8 C 163.2 4.6 163.4 4.5 163.6 4.3 C 163.8 4.2 164 4.1 164.2 4.1 C 164.5 4 164.7 4 165 4 C 165.4 4 165.8 4 166 4.1 C 166.2 4.2 166.4 4.3 166.5 4.4 C 166.6 4.5 166.7 4.6 166.7 4.8 C 166.8 4.9 166.8 5 166.8 5.1 C 166.8 5.3 166.7 5.5 166.7 5.8 C 166.7 5.8 166.3 7.4 166.3 7.4 Z M 171.5 2.3 L 172.6 2.3 L 171.3 8.8 L 170.1 8.8 L 171.5 2.3 Z M 173.6 4.1 L 174.5 4.1 L 174.4 4.8 C 174.4 4.8 174.39 4.81 174.4 4.8 C 174.6 4.6 174.8 4.4 175.1 4.2 C 175.4 4.1 175.7 4 176 4 C 176.5 4 176.8 4.1 177 4.3 C 177.2 4.6 177.4 4.9 177.4 5.2 C 177.4 5.3 177.4 5.4 177.3 5.5 C 177.3 5.6 177.3 5.7 177.3 5.8 C 177.31 5.8 176.7 8.8 176.7 8.8 L 175.7 8.8 C 175.7 8.8 176.26 5.9 176.3 5.9 C 176.3 5.8 176.3 5.8 176.3 5.7 C 176.3 5.6 176.3 5.5 176.3 5.5 C 176.3 5.4 176.3 5.4 176.3 5.3 C 176.3 5.2 176.3 5.2 176.3 5.1 C 176.2 5 176.1 4.9 176 4.9 C 175.9 4.8 175.8 4.8 175.6 4.8 C 175.4 4.8 175.2 4.8 175.1 4.9 C 174.9 5 174.8 5.1 174.6 5.3 C 174.5 5.4 174.4 5.5 174.3 5.7 C 174.2 5.9 174.2 6.1 174.1 6.3 C 174.14 6.25 173.6 8.8 173.6 8.8 L 172.6 8.8 L 173.6 4.1 Z M 179.4 2.7 L 180.4 2.7 L 180.1 4.1 L 181 4.1 L 180.9 4.9 L 179.9 4.9 C 179.9 4.9 179.46 7.16 179.5 7.2 C 179.4 7.3 179.4 7.4 179.4 7.5 C 179.4 7.5 179.4 7.6 179.4 7.7 C 179.4 7.8 179.4 7.9 179.4 7.9 C 179.5 8 179.6 8 179.7 8 C 179.8 8 179.9 8 180 8 C 180.1 8 180.2 8 180.3 8 C 180.3 8 180.1 8.7 180.1 8.7 C 180 8.8 179.8 8.8 179.7 8.8 C 179.5 8.8 179.4 8.8 179.3 8.8 C 179.1 8.8 178.9 8.8 178.8 8.7 C 178.7 8.7 178.6 8.6 178.5 8.6 C 178.5 8.5 178.4 8.4 178.4 8.3 C 178.4 8.2 178.3 8.1 178.3 8 C 178.3 7.9 178.4 7.8 178.4 7.7 C 178.4 7.6 178.4 7.5 178.4 7.4 C 178.41 7.43 178.9 4.9 178.9 4.9 L 178.1 4.9 L 178.3 4.1 L 179.1 4.1 L 179.4 2.7 Z M 184.7 6 C 184.7 6 184.7 6 184.7 6 C 184.7 5.9 184.7 5.9 184.7 5.9 C 184.7 5.9 184.7 5.8 184.7 5.8 C 184.7 5.5 184.6 5.2 184.4 5.1 C 184.2 4.9 184 4.8 183.7 4.8 C 183.3 4.8 183 4.9 182.8 5.2 C 182.5 5.4 182.4 5.7 182.3 6 C 182.3 6 184.7 6 184.7 6 Z M 185.4 7.3 C 185.2 7.9 185 8.3 184.6 8.5 C 184.2 8.8 183.7 8.9 183.2 8.9 C 182.9 8.9 182.6 8.9 182.4 8.8 C 182.1 8.7 181.9 8.5 181.7 8.4 C 181.5 8.2 181.4 8 181.3 7.7 C 181.2 7.5 181.1 7.2 181.1 6.9 C 181.1 6.5 181.2 6.2 181.3 5.8 C 181.4 5.5 181.6 5.2 181.8 4.9 C 182 4.6 182.3 4.4 182.6 4.2 C 182.9 4.1 183.3 4 183.7 4 C 184.1 4 184.5 4.1 184.7 4.2 C 185 4.3 185.2 4.5 185.3 4.7 C 185.5 4.9 185.6 5.2 185.6 5.4 C 185.7 5.7 185.7 5.9 185.7 6.1 C 185.7 6.3 185.7 6.4 185.7 6.5 C 185.7 6.5 185.7 6.6 185.6 6.7 C 185.6 6.7 182.2 6.7 182.2 6.7 C 182.2 6.7 182.2 6.8 182.2 6.8 C 182.2 6.8 182.2 6.8 182.2 6.9 C 182.2 6.9 182.2 7 182.2 7 C 182.2 7.3 182.2 7.6 182.4 7.8 C 182.6 8 182.9 8.1 183.3 8.1 C 183.5 8.1 183.8 8 184 7.9 C 184.2 7.8 184.3 7.6 184.4 7.3 C 184.4 7.3 185.4 7.3 185.4 7.3 Z M 187 4.1 L 188 4.1 L 187.8 5 C 187.8 5 187.79 5.05 187.8 5 C 187.9 4.9 188 4.8 188.1 4.7 C 188.2 4.5 188.3 4.4 188.4 4.3 C 188.5 4.2 188.7 4.2 188.8 4.1 C 189 4 189.1 4 189.3 4 C 189.4 4 189.4 4 189.5 4 C 189.6 4 189.7 4 189.8 4 C 189.8 4 189.6 5 189.6 5 C 189.5 5 189.4 5 189.4 5 C 189.3 5 189.3 5 189.2 5 C 188.9 5 188.7 5 188.5 5.1 C 188.3 5.2 188.1 5.3 188 5.5 C 187.9 5.7 187.8 5.8 187.7 6 C 187.6 6.3 187.5 6.5 187.5 6.7 C 187.49 6.71 187.1 8.8 187.1 8.8 L 186 8.8 L 187 4.1 Z M 190.4 4.1 L 191.4 4.1 L 191.2 4.8 C 191.2 4.8 191.25 4.81 191.3 4.8 C 191.4 4.6 191.7 4.4 191.9 4.2 C 192.2 4.1 192.5 4 192.9 4 C 193.3 4 193.7 4.1 193.9 4.3 C 194.1 4.6 194.2 4.9 194.2 5.2 C 194.2 5.3 194.2 5.4 194.2 5.5 C 194.2 5.6 194.2 5.7 194.2 5.8 C 194.17 5.8 193.5 8.8 193.5 8.8 L 192.5 8.8 C 192.5 8.8 193.11 5.9 193.1 5.9 C 193.1 5.8 193.1 5.8 193.2 5.7 C 193.2 5.6 193.2 5.5 193.2 5.5 C 193.2 5.4 193.2 5.4 193.2 5.3 C 193.2 5.2 193.2 5.2 193.1 5.1 C 193.1 5 193 4.9 192.9 4.9 C 192.8 4.8 192.7 4.8 192.5 4.8 C 192.3 4.8 192.1 4.8 191.9 4.9 C 191.8 5 191.6 5.1 191.5 5.3 C 191.4 5.4 191.3 5.5 191.2 5.7 C 191.1 5.9 191 6.1 191 6.3 C 191 6.25 190.5 8.8 190.5 8.8 L 189.5 8.8 L 190.4 4.1 Z M 195.8 7.5 C 195.8 7.6 195.8 7.7 195.8 7.8 C 195.9 7.9 196 7.9 196 8 C 196.1 8 196.2 8 196.3 8.1 C 196.4 8.1 196.5 8.1 196.6 8.1 C 196.8 8.1 197 8 197.2 8 C 197.4 7.9 197.5 7.8 197.6 7.6 C 197.7 7.5 197.8 7.3 197.9 7.1 C 198 6.9 198 6.7 198 6.5 C 198 6.5 198 6.5 198 6.5 C 198 6.5 197.9 6.6 197.7 6.6 C 197.6 6.7 197.5 6.7 197.4 6.7 C 197.2 6.7 197.1 6.7 196.9 6.7 C 196.7 6.7 196.5 6.8 196.4 6.8 C 196.2 6.9 196.1 6.9 195.9 7.1 C 195.8 7.2 195.8 7.3 195.8 7.5 Z M 198.8 7.4 C 198.8 7.5 198.8 7.6 198.8 7.7 C 198.8 7.7 198.8 7.8 198.8 7.9 C 198.8 8 198.8 8 198.8 8 C 198.8 8.1 198.9 8.1 199 8.1 C 199 8.1 199.1 8.1 199.2 8.1 C 199.2 8.1 199.3 8 199.3 8 C 199.3 8 199.2 8.8 199.2 8.8 C 199 8.8 198.9 8.8 198.8 8.9 C 198.6 8.9 198.5 8.9 198.4 8.9 C 198.2 8.9 198.1 8.8 197.9 8.7 C 197.8 8.6 197.8 8.5 197.7 8.3 C 197.5 8.5 197.3 8.7 197 8.8 C 196.8 8.9 196.5 8.9 196.2 8.9 C 196 8.9 195.8 8.9 195.6 8.8 C 195.5 8.8 195.3 8.7 195.2 8.6 C 195 8.5 194.9 8.4 194.9 8.2 C 194.8 8 194.7 7.9 194.7 7.7 C 194.7 7.4 194.8 7.1 194.9 6.9 C 195 6.7 195.1 6.6 195.3 6.5 C 195.5 6.3 195.7 6.2 195.9 6.2 C 196.2 6.1 196.4 6.1 196.7 6.1 C 197 6 197.4 6 197.7 6 C 197.9 6 198 5.9 198.1 5.8 C 198.2 5.7 198.3 5.5 198.3 5.4 C 198.3 5.1 198.2 5 198 4.9 C 197.9 4.8 197.7 4.8 197.5 4.8 C 197.2 4.8 196.9 4.9 196.7 5 C 196.5 5.1 196.4 5.2 196.3 5.5 C 196.3 5.5 195.3 5.5 195.3 5.5 C 195.4 5.2 195.5 5 195.6 4.8 C 195.7 4.6 195.9 4.5 196.1 4.3 C 196.3 4.2 196.5 4.1 196.8 4.1 C 197 4 197.3 4 197.5 4 C 198 4 198.3 4 198.5 4.1 C 198.8 4.2 198.9 4.3 199 4.4 C 199.2 4.5 199.2 4.6 199.2 4.8 C 199.3 4.9 199.3 5 199.3 5.1 C 199.3 5.3 199.2 5.5 199.2 5.8 C 199.2 5.8 198.8 7.4 198.8 7.4 Z M 201.3 2.7 L 202.3 2.7 L 202.1 4.1 L 203 4.1 L 202.8 4.9 L 201.9 4.9 C 201.9 4.9 201.41 7.16 201.4 7.2 C 201.4 7.3 201.4 7.4 201.3 7.5 C 201.3 7.5 201.3 7.6 201.3 7.7 C 201.3 7.8 201.3 7.9 201.4 7.9 C 201.4 8 201.5 8 201.7 8 C 201.8 8 201.9 8 201.9 8 C 202 8 202.1 8 202.2 8 C 202.2 8 202.1 8.7 202.1 8.7 C 201.9 8.8 201.8 8.8 201.6 8.8 C 201.5 8.8 201.4 8.8 201.2 8.8 C 201 8.8 200.9 8.8 200.8 8.7 C 200.6 8.7 200.5 8.6 200.5 8.6 C 200.4 8.5 200.4 8.4 200.3 8.3 C 200.3 8.2 200.3 8.1 200.3 8 C 200.3 7.9 200.3 7.8 200.3 7.7 C 200.3 7.6 200.3 7.5 200.4 7.4 C 200.36 7.43 200.9 4.9 200.9 4.9 L 200.1 4.9 L 200.2 4.1 L 201.1 4.1 L 201.3 2.7 Z M 204.2 2.3 L 205.2 2.3 L 205 3.3 L 204 3.3 L 204.2 2.3 Z M 203.9 4.1 L 204.9 4.1 L 203.9 8.8 L 202.9 8.8 L 203.9 4.1 Z M 208 4.8 C 207.7 4.8 207.5 4.9 207.3 5 C 207.1 5.1 206.9 5.3 206.8 5.5 C 206.6 5.7 206.5 5.9 206.5 6.2 C 206.4 6.4 206.4 6.7 206.4 6.9 C 206.4 7.2 206.5 7.5 206.6 7.7 C 206.8 8 207.1 8.1 207.5 8.1 C 207.7 8.1 208 8 208.1 7.9 C 208.3 7.8 208.5 7.6 208.6 7.4 C 208.8 7.2 208.9 7 208.9 6.7 C 209 6.5 209 6.2 209 6 C 209 5.7 208.9 5.4 208.8 5.1 C 208.6 4.9 208.3 4.8 208 4.8 Z M 207.4 8.9 C 206.7 8.9 206.2 8.7 205.9 8.4 C 205.5 8 205.4 7.5 205.4 6.9 C 205.4 6.5 205.4 6.1 205.6 5.8 C 205.7 5.4 205.9 5.1 206.1 4.9 C 206.3 4.6 206.6 4.4 206.9 4.2 C 207.3 4.1 207.6 4 208 4 C 208.7 4 209.2 4.2 209.5 4.5 C 209.9 4.8 210.1 5.3 210.1 6 C 210.1 6.4 210 6.8 209.9 7.1 C 209.8 7.5 209.6 7.8 209.3 8.1 C 209.1 8.3 208.8 8.5 208.5 8.7 C 208.2 8.8 207.8 8.9 207.4 8.9 Z M 211.5 4.1 L 212.5 4.1 L 212.4 4.8 C 212.4 4.8 212.37 4.81 212.4 4.8 C 212.6 4.6 212.8 4.4 213.1 4.2 C 213.3 4.1 213.7 4 214 4 C 214.4 4 214.8 4.1 215 4.3 C 215.2 4.6 215.3 4.9 215.3 5.2 C 215.3 5.3 215.3 5.4 215.3 5.5 C 215.3 5.6 215.3 5.7 215.3 5.8 C 215.29 5.8 214.7 8.8 214.7 8.8 L 213.6 8.8 C 213.6 8.8 214.24 5.9 214.2 5.9 C 214.3 5.8 214.3 5.8 214.3 5.7 C 214.3 5.6 214.3 5.5 214.3 5.5 C 214.3 5.4 214.3 5.4 214.3 5.3 C 214.3 5.2 214.3 5.2 214.2 5.1 C 214.2 5 214.1 4.9 214 4.9 C 213.9 4.8 213.8 4.8 213.6 4.8 C 213.4 4.8 213.2 4.8 213.1 4.9 C 212.9 5 212.8 5.1 212.6 5.3 C 212.5 5.4 212.4 5.5 212.3 5.7 C 212.2 5.9 212.2 6.1 212.1 6.3 C 212.12 6.25 211.6 8.8 211.6 8.8 L 210.6 8.8 L 211.5 4.1 Z M 216.9 7.5 C 216.9 7.6 216.9 7.7 217 7.8 C 217 7.9 217.1 7.9 217.2 8 C 217.2 8 217.3 8 217.4 8.1 C 217.5 8.1 217.6 8.1 217.7 8.1 C 218 8.1 218.2 8 218.3 8 C 218.5 7.9 218.6 7.8 218.8 7.6 C 218.9 7.5 219 7.3 219 7.1 C 219.1 6.9 219.1 6.7 219.2 6.5 C 219.2 6.5 219.2 6.5 219.2 6.5 C 219.1 6.5 219 6.6 218.9 6.6 C 218.7 6.7 218.6 6.7 218.5 6.7 C 218.4 6.7 218.2 6.7 218 6.7 C 217.8 6.7 217.6 6.8 217.5 6.8 C 217.3 6.9 217.2 6.9 217.1 7.1 C 216.9 7.2 216.9 7.3 216.9 7.5 Z M 220 7.4 C 220 7.5 219.9 7.6 219.9 7.7 C 219.9 7.7 219.9 7.8 219.9 7.9 C 219.9 8 219.9 8 219.9 8 C 220 8.1 220 8.1 220.1 8.1 C 220.2 8.1 220.2 8.1 220.3 8.1 C 220.3 8.1 220.4 8 220.5 8 C 220.5 8 220.3 8.8 220.3 8.8 C 220.2 8.8 220 8.8 219.9 8.9 C 219.8 8.9 219.6 8.9 219.5 8.9 C 219.3 8.9 219.2 8.8 219.1 8.7 C 218.9 8.6 218.9 8.5 218.9 8.3 C 218.7 8.5 218.4 8.7 218.2 8.8 C 217.9 8.9 217.6 8.9 217.3 8.9 C 217.1 8.9 216.9 8.9 216.8 8.8 C 216.6 8.8 216.4 8.7 216.3 8.6 C 216.2 8.5 216.1 8.4 216 8.2 C 215.9 8 215.9 7.9 215.9 7.7 C 215.9 7.4 215.9 7.1 216 6.9 C 216.1 6.7 216.3 6.6 216.5 6.5 C 216.6 6.3 216.8 6.2 217.1 6.2 C 217.3 6.1 217.6 6.1 217.8 6.1 C 218.2 6 218.5 6 218.8 6 C 219 6 219.2 5.9 219.2 5.8 C 219.3 5.7 219.4 5.5 219.4 5.4 C 219.4 5.1 219.3 5 219.1 4.9 C 219 4.8 218.8 4.8 218.6 4.8 C 218.3 4.8 218.1 4.9 217.8 5 C 217.6 5.1 217.5 5.2 217.4 5.5 C 217.4 5.5 216.5 5.5 216.5 5.5 C 216.5 5.2 216.6 5 216.7 4.8 C 216.9 4.6 217 4.5 217.2 4.3 C 217.4 4.2 217.6 4.1 217.9 4.1 C 218.1 4 218.4 4 218.7 4 C 219.1 4 219.4 4 219.6 4.1 C 219.9 4.2 220.1 4.3 220.2 4.4 C 220.3 4.5 220.3 4.6 220.4 4.8 C 220.4 4.9 220.4 5 220.4 5.1 C 220.4 5.3 220.4 5.5 220.3 5.8 C 220.3 5.8 220 7.4 220 7.4 Z M 222.3 2.3 L 223.3 2.3 L 221.9 8.8 L 220.9 8.8 L 222.3 2.3 Z " stroke="none" fill="#fff"/>
  </g>
</svg>