<?xml version="1.0" standalone="no"?>
<!DOCTYPE svg PUBLIC "-//W3C//DTD SVG 1.1//EN" "http://www.w3.org/Graphics/SVG/1.1/DTD/svg11.dtd">
<svg xmlns="http://www.w3.org/2000/svg" version="1.1" width="340px" height="47.8px" viewBox="0 -9 340 47.8" style="top:-9px">
  <desc>ANG PAHAYAGANG</desc>
  <defs/>
  <g id="Polygon13048">
    <path d="M 6 12.4 C 5.9 12.4 5.8 12.4 5.8 12.6 C 5.8 12.6 4.2 17.4 4.2 17.4 C 3.9 18 3.8 18.7 3.8 19.2 C 3.8 19.7 4.3 20 4.8 20 C 4.8 20 4.9 20 5 20 C 5.3 20 5.3 20 5.3 20.1 C 5.3 20.3 5.1 20.3 4.9 20.3 C 4.2 20.3 3.1 20.3 2.8 20.3 C 2.5 20.3 1.1 20.3 -0.2 20.3 C -0.6 20.3 -0.7 20.3 -0.7 20.1 C -0.7 20 -0.6 20 -0.4 20 C -0.2 20 0.1 19.9 0.3 19.9 C 1.5 19.7 2.1 18.7 2.6 17.4 C 2.6 17.4 8.7 0.6 8.7 0.6 C 9 -0.3 9.1 -0.5 9.3 -0.5 C 9.4 -0.5 9.6 -0.3 9.9 0.5 C 10.3 1.5 14.5 12.7 16.2 16.8 C 17.1 19.2 17.9 19.6 18.5 19.8 C 18.9 19.9 19.3 20 19.5 20 C 19.7 20 19.8 20 19.8 20.1 C 19.8 20.3 19.6 20.3 19.3 20.3 C 18.9 20.3 16.9 20.3 15.1 20.3 C 14.6 20.3 14.3 20.3 14.3 20.1 C 14.3 20 14.3 19.9 14.4 19.9 C 14.6 19.8 14.8 19.6 14.6 19.2 C 14.6 19.2 12.1 12.5 12.1 12.5 C 12 12.4 12 12.4 11.9 12.4 C 11.9 12.4 6 12.4 6 12.4 Z M 11.5 11.4 C 11.6 11.4 11.6 11.3 11.6 11.2 C 11.6 11.2 9 3.9 9 3.9 C 8.9 3.5 8.8 3.5 8.6 3.9 C 8.6 3.9 6.3 11.2 6.3 11.2 C 6.2 11.3 6.3 11.4 6.3 11.4 C 6.3 11.4 11.5 11.4 11.5 11.4 Z M 27.1 12.4 C 27.1 2.6 27.2 6.1 27.2 0.9 C 27.2 -0.2 27.2 -0.5 27.5 -0.5 C 27.7 -0.5 28.1 0.1 28.4 0.4 C 28.8 0.9 32.8 5.2 37 9.7 C 39.7 12.5 42.6 15.8 43.5 16.7 C 43.5 16.7 43.2 3 43.2 3 C 43.1 1.2 43 0.6 42.1 0.4 C 41.6 0.3 41.2 0.3 41 0.3 C 40.7 0.3 40.6 0.2 40.6 0.1 C 40.6 -0.1 40.8 -0.1 41.1 -0.1 C 42.3 -0.1 43.6 0 43.9 0 C 44.2 0 45.1 -0.1 46.2 -0.1 C 46.5 -0.1 46.7 -0.1 46.7 0.1 C 46.7 0.2 46.6 0.3 46.4 0.3 C 46.2 0.3 46 0.4 45.7 0.4 C 45 0.6 44.8 1 44.8 2.8 C 44.8 2.8 44.7 18.6 44.7 18.6 C 44.7 20.4 44.7 20.5 44.5 20.5 C 44.3 20.5 43.9 20.2 42.5 18.8 C 42.2 18.5 38.3 14.6 35.5 11.5 C 32.3 8.1 29.3 4.7 28.4 3.7 C 28.4 3.7 28.8 16.7 28.8 16.7 C 28.8 18.9 29.1 19.6 29.8 19.8 C 30.3 19.9 30.9 20 31.2 20 C 31.3 20 31.4 20 31.4 20.1 C 31.4 20.3 31.2 20.3 30.9 20.3 C 29.3 20.3 28.3 20.3 28 20.3 C 27.8 20.3 26.6 20.3 25.4 20.3 C 25.2 20.3 25 20.3 25 20.1 C 25 20 25.1 20 25.2 20 C 25.4 20 25.9 19.9 26.3 19.8 C 27 19.6 27.1 18.8 27.1 16.4 C 27.1 16.4 27.1 12.4 27.1 12.4 Z M 73.3 18 C 73.3 19.3 73.3 19.3 72.9 19.5 C 71.2 20.4 68.8 20.7 67.2 20.7 C 65.2 20.7 61.3 20.4 58.3 17.8 C 56.7 16.4 55.1 13.5 55.1 10.1 C 55.1 5.8 57.2 2.8 59.6 1.2 C 62 -0.3 64.7 -0.5 66.8 -0.5 C 68.5 -0.5 70.4 -0.1 70.9 0 C 71.5 0.1 72.4 0.2 73.1 0.3 C 73.4 0.3 73.4 0.4 73.4 0.5 C 73.4 0.9 73.3 1.6 73.3 4.3 C 73.3 4.8 73.2 4.9 73 4.9 C 72.9 4.9 72.8 4.8 72.8 4.5 C 72.8 4.1 72.7 3.4 72.3 2.7 C 71.6 1.7 69.4 0.5 65.9 0.5 C 64.2 0.5 62.2 0.7 60.1 2.3 C 58.6 3.6 57.5 6 57.5 9.2 C 57.5 13 59.4 15.7 60.3 16.7 C 62.5 18.7 64.9 19.5 67.4 19.5 C 68.4 19.5 69.8 19.4 70.5 19 C 70.8 18.8 71 18.5 71 18 C 71 18 71 13.4 71 13.4 C 71 11.3 70.9 11 69.8 10.7 C 69.6 10.6 69.1 10.6 68.9 10.6 C 68.8 10.6 68.7 10.5 68.7 10.4 C 68.7 10.3 68.8 10.2 69.1 10.2 C 70.3 10.2 72 10.3 72.1 10.3 C 72.3 10.3 74 10.2 74.8 10.2 C 75.1 10.2 75.2 10.3 75.2 10.4 C 75.2 10.5 75.1 10.6 75 10.6 C 74.8 10.6 74.7 10.6 74.3 10.7 C 73.6 10.8 73.4 11.3 73.3 12.2 C 73.3 13.1 73.3 13.9 73.3 15 C 73.3 15 73.3 18 73.3 18 Z M 99.4 7.7 C 99.4 3.5 99.4 2.8 99.4 1.9 C 99.3 1 99.1 0.6 98.2 0.4 C 98 0.3 97.5 0.3 97.3 0.3 C 97.2 0.3 97.1 0.2 97.1 0.1 C 97.1 0 97.2 -0.1 97.5 -0.1 C 98.7 -0.1 100.3 0 100.5 0 C 101.1 0 102.7 -0.1 103.9 -0.1 C 107.3 -0.1 108.5 1.1 109 1.5 C 109.6 2 110.3 3.2 110.3 5 C 110.3 8.5 107.5 11.1 103.7 11.1 C 103.5 11.1 103.2 11.1 103.1 11.1 C 103 11.1 102.8 11 102.8 10.9 C 102.8 10.7 103 10.6 103.5 10.6 C 106.2 10.6 108.2 8.9 108.2 6 C 108.2 5.3 108.1 3.5 106.7 2.1 C 105.3 0.6 103.6 0.7 103 0.7 C 102.5 0.7 102.1 0.8 101.8 0.9 C 101.7 0.9 101.6 1.1 101.6 1.4 C 101.6 1.4 101.6 12.5 101.6 12.5 C 101.6 15.1 101.6 17.2 101.8 18.4 C 101.8 19.1 102 19.7 102.8 19.8 C 103.2 19.9 103.8 20 104 20 C 104.2 20 104.2 20 104.2 20.1 C 104.2 20.3 104.1 20.3 103.8 20.3 C 102.3 20.3 100.6 20.3 100.5 20.3 C 100.4 20.3 98.7 20.3 97.9 20.3 C 97.6 20.3 97.5 20.3 97.5 20.1 C 97.5 20 97.5 20 97.7 20 C 97.9 20 98.3 19.9 98.5 19.8 C 99 19.7 99.2 19.1 99.3 18.4 C 99.4 17.2 99.4 15.1 99.4 12.5 C 99.4 12.5 99.4 7.7 99.4 7.7 Z M 120.9 12.4 C 120.8 12.4 120.7 12.4 120.6 12.6 C 120.6 12.6 119 17.4 119 17.4 C 118.8 18 118.6 18.7 118.6 19.2 C 118.6 19.7 119.2 20 119.6 20 C 119.7 20 119.8 20 119.9 20 C 120.1 20 120.2 20 120.2 20.1 C 120.2 20.3 120 20.3 119.7 20.3 C 119.1 20.3 118 20.3 117.7 20.3 C 117.4 20.3 115.9 20.3 114.6 20.3 C 114.3 20.3 114.1 20.3 114.1 20.1 C 114.1 20 114.3 20 114.5 20 C 114.7 20 114.9 19.9 115.2 19.9 C 116.4 19.7 116.9 18.7 117.4 17.4 C 117.4 17.4 123.6 0.6 123.6 0.6 C 123.9 -0.3 124 -0.5 124.1 -0.5 C 124.3 -0.5 124.4 -0.3 124.7 0.5 C 125.1 1.5 129.4 12.7 131 16.8 C 132 19.2 132.8 19.6 133.4 19.8 C 133.8 19.9 134.2 20 134.4 20 C 134.6 20 134.7 20 134.7 20.1 C 134.7 20.3 134.5 20.3 134.2 20.3 C 133.8 20.3 131.8 20.3 129.9 20.3 C 129.4 20.3 129.1 20.3 129.1 20.1 C 129.1 20 129.2 19.9 129.3 19.9 C 129.5 19.8 129.6 19.6 129.5 19.2 C 129.5 19.2 127 12.5 127 12.5 C 126.9 12.4 126.8 12.4 126.7 12.4 C 126.7 12.4 120.9 12.4 120.9 12.4 Z M 126.4 11.4 C 126.5 11.4 126.5 11.3 126.5 11.2 C 126.5 11.2 123.9 3.9 123.9 3.9 C 123.8 3.5 123.6 3.5 123.5 3.9 C 123.5 3.9 121.1 11.2 121.1 11.2 C 121.1 11.3 121.1 11.4 121.2 11.4 C 121.2 11.4 126.4 11.4 126.4 11.4 Z M 157 8.5 C 157.1 8.5 157.2 8.5 157.2 8.3 C 157.2 8.3 157.2 7.7 157.2 7.7 C 157.2 3.5 157.2 2.8 157.1 1.9 C 157.1 1 156.9 0.6 156 0.4 C 155.8 0.3 155.3 0.3 155.1 0.3 C 155 0.3 154.8 0.2 154.8 0.1 C 154.8 0 155 -0.1 155.3 -0.1 C 156.5 -0.1 158.2 0 158.3 0 C 158.5 0 160.2 -0.1 161 -0.1 C 161.3 -0.1 161.4 0 161.4 0.1 C 161.4 0.2 161.3 0.3 161.2 0.3 C 161 0.3 160.8 0.3 160.5 0.4 C 159.8 0.5 159.6 1 159.5 1.9 C 159.5 2.8 159.5 3.5 159.5 7.7 C 159.5 7.7 159.5 12.5 159.5 12.5 C 159.5 15.1 159.5 17.2 159.6 18.4 C 159.7 19.1 159.8 19.7 160.6 19.8 C 161 19.9 161.6 20 161.9 20 C 162 20 162.1 20 162.1 20.1 C 162.1 20.3 161.9 20.3 161.6 20.3 C 160.2 20.3 158.5 20.3 158.3 20.3 C 158.2 20.3 156.5 20.3 155.7 20.3 C 155.4 20.3 155.2 20.3 155.2 20.1 C 155.2 20 155.3 20 155.5 20 C 155.7 20 156 19.9 156.3 19.8 C 156.8 19.7 157 19.1 157.1 18.4 C 157.2 17.2 157.2 15.1 157.2 12.5 C 157.2 12.5 157.2 9.7 157.2 9.7 C 157.2 9.6 157.1 9.5 157 9.5 C 157 9.5 145.6 9.5 145.6 9.5 C 145.5 9.5 145.4 9.5 145.4 9.7 C 145.4 9.7 145.4 12.5 145.4 12.5 C 145.4 15.1 145.4 17.2 145.6 18.4 C 145.6 19.1 145.8 19.7 146.6 19.8 C 147 19.9 147.6 20 147.8 20 C 148 20 148 20 148 20.1 C 148 20.3 147.9 20.3 147.6 20.3 C 146.1 20.3 144.4 20.3 144.3 20.3 C 144.2 20.3 142.5 20.3 141.6 20.3 C 141.3 20.3 141.2 20.3 141.2 20.1 C 141.2 20 141.3 20 141.4 20 C 141.7 20 142 19.9 142.2 19.8 C 142.8 19.7 142.9 19.1 143 18.4 C 143.2 17.2 143.2 15.1 143.2 12.5 C 143.2 12.5 143.2 7.7 143.2 7.7 C 143.2 3.5 143.2 2.8 143.1 1.9 C 143 1 142.8 0.6 141.9 0.4 C 141.7 0.3 141.3 0.3 141 0.3 C 140.9 0.3 140.8 0.2 140.8 0.1 C 140.8 0 140.9 -0.1 141.2 -0.1 C 142.5 -0.1 144.2 0 144.3 0 C 144.4 0 146.1 -0.1 146.9 -0.1 C 147.2 -0.1 147.4 0 147.4 0.1 C 147.4 0.2 147.3 0.3 147.1 0.3 C 147 0.3 146.8 0.3 146.5 0.4 C 145.7 0.5 145.5 1 145.5 1.9 C 145.4 2.8 145.4 3.5 145.4 7.7 C 145.4 7.7 145.4 8.3 145.4 8.3 C 145.4 8.5 145.5 8.5 145.6 8.5 C 145.6 8.5 157 8.5 157 8.5 Z M 174.9 12.4 C 174.7 12.4 174.6 12.4 174.6 12.6 C 174.6 12.6 173 17.4 173 17.4 C 172.7 18 172.6 18.7 172.6 19.2 C 172.6 19.7 173.1 20 173.6 20 C 173.6 20 173.7 20 173.8 20 C 174.1 20 174.1 20 174.1 20.1 C 174.1 20.3 173.9 20.3 173.7 20.3 C 173 20.3 171.9 20.3 171.6 20.3 C 171.3 20.3 169.9 20.3 168.6 20.3 C 168.2 20.3 168.1 20.3 168.1 20.1 C 168.1 20 168.2 20 168.5 20 C 168.6 20 168.9 19.9 169.1 19.9 C 170.3 19.7 170.9 18.7 171.4 17.4 C 171.4 17.4 177.5 0.6 177.5 0.6 C 177.8 -0.3 177.9 -0.5 178.1 -0.5 C 178.3 -0.5 178.4 -0.3 178.7 0.5 C 179.1 1.5 183.3 12.7 185 16.8 C 185.9 19.2 186.7 19.6 187.3 19.8 C 187.7 19.9 188.1 20 188.4 20 C 188.5 20 188.6 20 188.6 20.1 C 188.6 20.3 188.4 20.3 188.1 20.3 C 187.7 20.3 185.7 20.3 183.9 20.3 C 183.4 20.3 183.1 20.3 183.1 20.1 C 183.1 20 183.1 19.9 183.2 19.9 C 183.4 19.8 183.6 19.6 183.4 19.2 C 183.4 19.2 180.9 12.5 180.9 12.5 C 180.8 12.4 180.8 12.4 180.7 12.4 C 180.7 12.4 174.9 12.4 174.9 12.4 Z M 180.3 11.4 C 180.4 11.4 180.4 11.3 180.4 11.2 C 180.4 11.2 177.8 3.9 177.8 3.9 C 177.7 3.5 177.6 3.5 177.4 3.9 C 177.4 3.9 175.1 11.2 175.1 11.2 C 175 11.3 175.1 11.4 175.1 11.4 C 175.1 11.4 180.3 11.4 180.3 11.4 Z M 198.7 13.3 C 198.7 11.9 198.5 11.3 198.1 10.5 C 197.9 10.1 194.3 4.1 193.4 2.7 C 192.7 1.7 192 1.1 191.5 0.7 C 191.1 0.5 190.6 0.3 190.4 0.3 C 190.2 0.3 190.1 0.2 190.1 0.1 C 190.1 0 190.2 -0.1 190.5 -0.1 C 191 -0.1 193 0 193.1 0 C 193.3 0 194.3 -0.1 195.4 -0.1 C 195.7 -0.1 195.7 0 195.7 0.1 C 195.7 0.2 195.6 0.2 195.3 0.4 C 195.1 0.5 195 0.6 195 0.8 C 195 1.2 195.1 1.5 195.3 1.9 C 195.8 2.7 199.8 9.6 200.3 10.4 C 200.8 9.3 204.3 3.4 204.8 2.5 C 205.1 1.9 205.3 1.5 205.3 1.1 C 205.3 0.7 205.1 0.4 204.8 0.4 C 204.6 0.3 204.4 0.2 204.4 0.1 C 204.4 0 204.6 -0.1 204.8 -0.1 C 205.6 -0.1 206.4 0 206.6 0 C 206.8 0 208.7 -0.1 209.2 -0.1 C 209.4 -0.1 209.6 0 209.6 0.1 C 209.6 0.2 209.5 0.3 209.2 0.3 C 209 0.3 208.4 0.4 208 0.7 C 207.5 1 207.2 1.3 206.6 2.1 C 205.7 3.1 201.9 9.5 201.4 10.6 C 201 11.6 201 12.4 201 13.3 C 201 13.3 201 15.7 201 15.7 C 201 16.1 201 17.2 201.1 18.4 C 201.1 19.1 201.4 19.7 202.2 19.8 C 202.6 19.9 203.2 20 203.4 20 C 203.6 20 203.6 20 203.6 20.1 C 203.6 20.3 203.5 20.3 203.2 20.3 C 201.7 20.3 200 20.3 199.9 20.3 C 199.7 20.3 198 20.3 197.2 20.3 C 196.9 20.3 196.8 20.3 196.8 20.1 C 196.8 20 196.9 20 197 20 C 197.3 20 197.6 19.9 197.8 19.8 C 198.4 19.7 198.6 19.1 198.7 18.4 C 198.7 17.2 198.7 16.1 198.7 15.7 C 198.7 15.7 198.7 13.3 198.7 13.3 Z M 218 12.4 C 217.9 12.4 217.8 12.4 217.8 12.6 C 217.8 12.6 216.1 17.4 216.1 17.4 C 215.9 18 215.8 18.7 215.8 19.2 C 215.8 19.7 216.3 20 216.7 20 C 216.8 20 216.9 20 217 20 C 217.2 20 217.3 20 217.3 20.1 C 217.3 20.3 217.1 20.3 216.8 20.3 C 216.2 20.3 215.1 20.3 214.8 20.3 C 214.5 20.3 213 20.3 211.8 20.3 C 211.4 20.3 211.2 20.3 211.2 20.1 C 211.2 20 211.4 20 211.6 20 C 211.8 20 212.1 19.9 212.3 19.9 C 213.5 19.7 214.1 18.7 214.5 17.4 C 214.5 17.4 220.7 0.6 220.7 0.6 C 221 -0.3 221.1 -0.5 221.3 -0.5 C 221.4 -0.5 221.5 -0.3 221.9 0.5 C 222.3 1.5 226.5 12.7 228.1 16.8 C 229.1 19.2 229.9 19.6 230.5 19.8 C 230.9 19.9 231.3 20 231.5 20 C 231.7 20 231.8 20 231.8 20.1 C 231.8 20.3 231.6 20.3 231.3 20.3 C 230.9 20.3 228.9 20.3 227 20.3 C 226.5 20.3 226.2 20.3 226.2 20.1 C 226.2 20 226.3 19.9 226.4 19.9 C 226.6 19.8 226.7 19.6 226.6 19.2 C 226.6 19.2 224.1 12.5 224.1 12.5 C 224 12.4 224 12.4 223.8 12.4 C 223.8 12.4 218 12.4 218 12.4 Z M 223.5 11.4 C 223.6 11.4 223.6 11.3 223.6 11.2 C 223.6 11.2 221 3.9 221 3.9 C 220.9 3.5 220.8 3.5 220.6 3.9 C 220.6 3.9 218.2 11.2 218.2 11.2 C 218.2 11.3 218.2 11.4 218.3 11.4 C 218.3 11.4 223.5 11.4 223.5 11.4 Z M 255.4 18 C 255.4 19.3 255.3 19.3 255 19.5 C 253.3 20.4 250.9 20.7 249.3 20.7 C 247.2 20.7 243.4 20.4 240.4 17.8 C 238.8 16.4 237.2 13.5 237.2 10.1 C 237.2 5.8 239.3 2.8 241.7 1.2 C 244.1 -0.3 246.8 -0.5 248.9 -0.5 C 250.6 -0.5 252.5 -0.1 253 0 C 253.6 0.1 254.5 0.2 255.2 0.3 C 255.5 0.3 255.5 0.4 255.5 0.5 C 255.5 0.9 255.3 1.6 255.3 4.3 C 255.3 4.8 255.3 4.9 255.1 4.9 C 255 4.9 254.9 4.8 254.9 4.5 C 254.9 4.1 254.7 3.4 254.3 2.7 C 253.7 1.7 251.5 0.5 248 0.5 C 246.3 0.5 244.3 0.7 242.2 2.3 C 240.7 3.6 239.5 6 239.5 9.2 C 239.5 13 241.5 15.7 242.4 16.7 C 244.5 18.7 247 19.5 249.5 19.5 C 250.5 19.5 251.9 19.4 252.6 19 C 252.9 18.8 253.1 18.5 253.1 18 C 253.1 18 253.1 13.4 253.1 13.4 C 253.1 11.3 253 11 251.9 10.7 C 251.7 10.6 251.2 10.6 251 10.6 C 250.9 10.6 250.7 10.5 250.7 10.4 C 250.7 10.3 250.9 10.2 251.2 10.2 C 252.4 10.2 254.1 10.3 254.2 10.3 C 254.4 10.3 256.1 10.2 256.9 10.2 C 257.2 10.2 257.3 10.3 257.3 10.4 C 257.3 10.5 257.2 10.6 257.1 10.6 C 256.9 10.6 256.7 10.6 256.4 10.7 C 255.7 10.8 255.5 11.3 255.4 12.2 C 255.4 13.1 255.4 13.9 255.4 15 C 255.4 15 255.4 18 255.4 18 Z M 269.4 12.4 C 269.2 12.4 269.2 12.4 269.1 12.6 C 269.1 12.6 267.5 17.4 267.5 17.4 C 267.2 18 267.1 18.7 267.1 19.2 C 267.1 19.7 267.6 20 268.1 20 C 268.2 20 268.2 20 268.3 20 C 268.6 20 268.7 20 268.7 20.1 C 268.7 20.3 268.4 20.3 268.2 20.3 C 267.5 20.3 266.5 20.3 266.2 20.3 C 265.9 20.3 264.4 20.3 263.1 20.3 C 262.8 20.3 262.6 20.3 262.6 20.1 C 262.6 20 262.7 20 263 20 C 263.2 20 263.4 19.9 263.6 19.9 C 264.9 19.7 265.4 18.7 265.9 17.4 C 265.9 17.4 272 0.6 272 0.6 C 272.3 -0.3 272.5 -0.5 272.6 -0.5 C 272.8 -0.5 272.9 -0.3 273.2 0.5 C 273.6 1.5 277.9 12.7 279.5 16.8 C 280.5 19.2 281.3 19.6 281.8 19.8 C 282.2 19.9 282.7 20 282.9 20 C 283 20 283.2 20 283.2 20.1 C 283.2 20.3 282.9 20.3 282.6 20.3 C 282.2 20.3 280.3 20.3 278.4 20.3 C 277.9 20.3 277.6 20.3 277.6 20.1 C 277.6 20 277.7 19.9 277.8 19.9 C 277.9 19.8 278.1 19.6 277.9 19.2 C 277.9 19.2 275.4 12.5 275.4 12.5 C 275.4 12.4 275.3 12.4 275.2 12.4 C 275.2 12.4 269.4 12.4 269.4 12.4 Z M 274.8 11.4 C 275 11.4 275 11.3 274.9 11.2 C 274.9 11.2 272.4 3.9 272.4 3.9 C 272.2 3.5 272.1 3.5 272 3.9 C 272 3.9 269.6 11.2 269.6 11.2 C 269.5 11.3 269.6 11.4 269.7 11.4 C 269.7 11.4 274.8 11.4 274.8 11.4 Z M 290.5 12.4 C 290.5 2.6 290.5 6.1 290.5 0.9 C 290.5 -0.2 290.6 -0.5 290.8 -0.5 C 291 -0.5 291.5 0.1 291.7 0.4 C 292.1 0.9 296.2 5.2 300.3 9.7 C 303 12.5 305.9 15.8 306.8 16.7 C 306.8 16.7 306.5 3 306.5 3 C 306.5 1.2 306.3 0.6 305.5 0.4 C 305 0.3 304.5 0.3 304.3 0.3 C 304 0.3 303.9 0.2 303.9 0.1 C 303.9 -0.1 304.1 -0.1 304.5 -0.1 C 305.7 -0.1 307 0 307.3 0 C 307.6 0 308.4 -0.1 309.6 -0.1 C 309.9 -0.1 310 -0.1 310 0.1 C 310 0.2 309.9 0.3 309.7 0.3 C 309.5 0.3 309.4 0.4 309 0.4 C 308.3 0.6 308.1 1 308.1 2.8 C 308.1 2.8 308 18.6 308 18.6 C 308 20.4 308 20.5 307.8 20.5 C 307.6 20.5 307.3 20.2 305.8 18.8 C 305.5 18.5 301.6 14.6 298.8 11.5 C 295.6 8.1 292.6 4.7 291.7 3.7 C 291.7 3.7 292.1 16.7 292.1 16.7 C 292.1 18.9 292.4 19.6 293.1 19.8 C 293.7 19.9 294.2 20 294.5 20 C 294.6 20 294.7 20 294.7 20.1 C 294.7 20.3 294.5 20.3 294.2 20.3 C 292.7 20.3 291.6 20.3 291.4 20.3 C 291.1 20.3 290 20.3 288.8 20.3 C 288.5 20.3 288.3 20.3 288.3 20.1 C 288.3 20 288.4 20 288.5 20 C 288.8 20 289.3 19.9 289.7 19.8 C 290.3 19.6 290.5 18.8 290.5 16.4 C 290.5 16.4 290.5 12.4 290.5 12.4 Z M 336.6 18 C 336.6 19.3 336.6 19.3 336.3 19.5 C 334.5 20.4 332.1 20.7 330.5 20.7 C 328.5 20.7 324.6 20.4 321.7 17.8 C 320 16.4 318.4 13.5 318.4 10.1 C 318.4 5.8 320.5 2.8 322.9 1.2 C 325.4 -0.3 328 -0.5 330.1 -0.5 C 331.8 -0.5 333.7 -0.1 334.3 0 C 334.8 0.1 335.8 0.2 336.4 0.3 C 336.7 0.3 336.8 0.4 336.8 0.5 C 336.8 0.9 336.6 1.6 336.6 4.3 C 336.6 4.8 336.5 4.9 336.3 4.9 C 336.2 4.9 336.2 4.8 336.1 4.5 C 336.1 4.1 336 3.4 335.6 2.7 C 334.9 1.7 332.7 0.5 329.2 0.5 C 327.5 0.5 325.5 0.7 323.5 2.3 C 321.9 3.6 320.8 6 320.8 9.2 C 320.8 13 322.7 15.7 323.6 16.7 C 325.8 18.7 328.2 19.5 330.7 19.5 C 331.7 19.5 333.1 19.4 333.8 19 C 334.2 18.8 334.3 18.5 334.3 18 C 334.3 18 334.3 13.4 334.3 13.4 C 334.3 11.3 334.2 11 333.1 10.7 C 332.9 10.6 332.5 10.6 332.2 10.6 C 332.1 10.6 332 10.5 332 10.4 C 332 10.3 332.1 10.2 332.4 10.2 C 333.6 10.2 335.3 10.3 335.5 10.3 C 335.6 10.3 337.3 10.2 338.1 10.2 C 338.4 10.2 338.6 10.3 338.6 10.4 C 338.6 10.5 338.4 10.6 338.3 10.6 C 338.1 10.6 338 10.6 337.7 10.7 C 336.9 10.8 336.7 11.3 336.7 12.2 C 336.6 13.1 336.6 13.9 336.6 15 C 336.6 15 336.6 18 336.6 18 Z " stroke="none" fill="#741113"/>
  </g>
</svg>