<?xml version="1.0" standalone="no"?>
<!DOCTYPE svg PUBLIC "-//W3C//DTD SVG 1.1//EN" "http://www.w3.org/Graphics/SVG/1.1/DTD/svg11.dtd">
<svg xmlns="http://www.w3.org/2000/svg" version="1.1" width="307px" height="126px" viewBox="0 -13 307 126" style="top:-13px">
  <desc>Pagsulyap sa hagupit ni Lady Paddler Janna Romero</desc>
  <defs/>
  <g id="Polygon39272">
    <path d="M 1.1 89.1 C 3.9 88.9 4 88.8 4 87 C 4 87 4 70.8 4 70.8 C 4 69 3.9 69 1.1 68.8 C 1.12 68.78 1.1 67.9 1.1 67.9 C 1.1 67.9 10.46 67.86 10.5 67.9 C 16.1 67.9 18 70.3 18 73.3 C 18 76.4 15.8 78.4 12.8 79 C 12.8 79 12.8 79 12.8 79 C 16.2 79.9 16.7 82 17.1 84.8 C 17.4 87 17.9 88.8 20.4 89.1 C 20.42 89.07 20.4 90 20.4 90 C 20.4 90 17.82 90 17.8 90 C 15.9 90 14.7 89.3 14.2 87.2 C 13.9 85.8 13.5 83.2 13.3 82.4 C 12.8 80.2 11.3 79.6 9.4 79.6 C 9.38 79.57 7.2 79.6 7.2 79.6 C 7.2 79.6 7.17 87.02 7.2 87 C 7.2 88.4 7.2 88.4 7.3 88.6 C 7.5 88.9 8.2 88.9 9.6 89.1 C 9.57 89.07 9.6 90 9.6 90 L 1.1 90 C 1.1 90 1.12 89.07 1.1 89.1 Z M 9.7 78.4 C 12.8 78.4 14.6 77 14.6 73.6 C 14.6 69.8 11.9 69 9.5 69 C 7.4 69 7.2 69.2 7.2 70.6 C 7.17 70.58 7.2 78.4 7.2 78.4 C 7.2 78.4 9.7 78.45 9.7 78.4 Z M 28.6 73.9 C 33.7 73.9 36.3 77 36.3 82.2 C 36.3 87.3 33.7 90.4 28.6 90.4 C 23.4 90.4 20.9 87.3 20.9 82.2 C 20.9 77 23.4 73.9 28.6 73.9 Z M 28.6 89.3 C 31.5 89.3 32.9 86.6 32.9 82.2 C 32.9 77.7 31.5 75.1 28.6 75.1 C 25.6 75.1 24.2 77.7 24.2 82.2 C 24.2 86.6 25.6 89.3 28.6 89.3 Z M 38.2 89.1 C 40.5 88.9 40.6 88.8 40.6 87.2 C 40.6 87.2 40.6 77.1 40.6 77.1 C 40.6 76 40.4 75.8 39.6 75.7 C 39.55 75.7 38.3 75.5 38.3 75.5 L 38.3 74.7 L 43.3 73.9 C 43.3 73.9 43.58 76.37 43.6 76.4 C 44.7 75.5 46.7 73.9 49.2 73.9 C 51.4 73.9 52.6 74.9 53.4 76.4 C 54.5 75.7 56.4 73.9 59 73.9 C 62.1 73.9 63.8 75.8 63.8 79 C 63.8 79 63.8 87.2 63.8 87.2 C 63.8 88.8 63.9 88.9 66.2 89.1 C 66.21 89.07 66.2 90 66.2 90 L 58.4 90 C 58.4 90 58.4 89.07 58.4 89.1 C 60.7 88.9 60.8 88.8 60.8 87.2 C 60.8 87.2 60.8 79.7 60.8 79.7 C 60.8 76.8 59.6 75.7 57.6 75.7 C 55.8 75.7 54.4 76.7 53.9 78 C 53.7 78.5 53.7 78.9 53.7 79.7 C 53.7 79.7 53.7 87.2 53.7 87.2 C 53.7 88.8 53.8 88.9 56.1 89.1 C 56.1 89.07 56.1 90 56.1 90 L 48.3 90 C 48.3 90 48.29 89.07 48.3 89.1 C 50.6 88.9 50.7 88.8 50.7 87.2 C 50.7 87.2 50.7 79.7 50.7 79.7 C 50.7 77.7 50.4 75.7 47.6 75.7 C 45.9 75.7 44.4 76.8 43.8 78 C 43.6 78.5 43.6 78.9 43.6 79.7 C 43.6 79.7 43.6 87.2 43.6 87.2 C 43.6 88.8 43.7 88.9 46 89.1 C 45.98 89.07 46 90 46 90 L 38.2 90 C 38.2 90 38.18 89.07 38.2 89.1 Z M 75 73.9 C 80.8 73.9 81.4 78.5 81.4 80.4 C 81.4 81.4 80.8 81.6 80.2 81.6 C 80.2 81.6 70.9 81.6 70.9 81.6 C 70.9 84.9 71.7 88.8 75.6 88.8 C 78.2 88.8 79.4 87.2 80.3 85.4 C 80.3 85.4 81.2 85.9 81.2 85.9 C 80.4 88.4 78.6 90.4 75 90.4 C 69.8 90.4 67.6 87.3 67.6 82.3 C 67.6 77.5 70 73.9 75 73.9 Z M 77 80.4 C 77.9 80.4 78.1 80 78.1 79.3 C 78.1 78.1 77.8 75.1 74.8 75.1 C 71.5 75.1 71 79.1 71 80.4 C 71 80.4 77 80.4 77 80.4 Z M 82.9 89.1 C 85.1 88.9 85.3 88.8 85.3 87.2 C 85.3 87.2 85.3 77.1 85.3 77.1 C 85.3 76 85.1 75.8 84.3 75.7 C 84.26 75.7 83 75.5 83 75.5 L 83 74.7 L 87.9 73.9 C 87.9 73.9 88.29 76.5 88.3 76.5 C 90.4 74.6 91.4 73.9 92.5 73.9 C 93.8 73.9 94.2 74.8 94.2 75.5 C 94.2 76.5 93.5 77.3 92.7 77.3 C 92.6 77.3 92.3 77.3 92.1 77.1 C 91.2 76.6 90.6 76.4 90.1 76.4 C 89.4 76.4 88.3 77.3 88.3 79.7 C 88.3 79.7 88.3 87.2 88.3 87.2 C 88.3 88.8 88.5 88.9 91.3 89.1 C 91.33 89.07 91.3 90 91.3 90 L 82.9 90 C 82.9 90 82.88 89.07 82.9 89.1 Z M 102.7 73.9 C 107.9 73.9 110.4 77 110.4 82.2 C 110.4 87.3 107.9 90.4 102.7 90.4 C 97.6 90.4 95 87.3 95 82.2 C 95 77 97.6 73.9 102.7 73.9 Z M 102.7 89.3 C 105.7 89.3 107.1 86.6 107.1 82.2 C 107.1 77.7 105.7 75.1 102.7 75.1 C 99.8 75.1 98.4 77.7 98.4 82.2 C 98.4 86.6 99.8 89.3 102.7 89.3 Z " stroke="none" fill="#000"/>
  </g>
  <g id="Polygon39271">
    <path d="M 1 56.1 C 3.3 55.9 3.4 55.8 3.4 54.2 C 3.4 54.2 3.4 44.1 3.4 44.1 C 3.4 43 3.2 42.8 2.4 42.7 C 2.4 42.7 1.2 42.5 1.2 42.5 L 1.2 41.7 L 6 40.9 C 6 40.9 6.4 43.37 6.4 43.4 C 8.4 42.1 9.9 40.9 12.2 40.9 C 15.2 40.9 16.9 42.8 16.9 46 C 16.9 46 16.9 54.2 16.9 54.2 C 16.9 55.8 17.1 55.9 19.3 56.1 C 19.33 56.07 19.3 57 19.3 57 L 11.5 57 C 11.5 57 11.52 56.07 11.5 56.1 C 13.8 55.9 13.9 55.8 13.9 54.2 C 13.9 54.2 13.9 46.7 13.9 46.7 C 13.9 43.9 12.7 42.7 10.6 42.7 C 8.9 42.7 7.4 43.7 6.8 45 C 6.5 45.5 6.4 45.9 6.4 46.7 C 6.4 46.7 6.4 54.2 6.4 54.2 C 6.4 55.8 6.6 55.9 8.8 56.1 C 8.83 56.07 8.8 57 8.8 57 L 1 57 C 1 57 1.02 56.07 1 56.1 Z M 24.1 34.1 C 25.2 34.1 26 34.9 26 36.1 C 26 37.2 25.2 38 24.1 38 C 22.9 38 22.1 37.2 22.1 36.1 C 22.1 34.9 22.9 34.1 24.1 34.1 Z M 20.2 56.1 C 22.5 55.9 22.6 55.8 22.6 54.2 C 22.6 54.2 22.6 44.1 22.6 44.1 C 22.6 43 22.4 42.8 21.6 42.7 C 21.57 42.7 20.4 42.5 20.4 42.5 L 20.4 41.7 L 25.4 40.9 L 25.6 41.1 C 25.6 41.1 25.6 54.22 25.6 54.2 C 25.6 55.8 25.7 55.9 28 56.1 C 28 56.07 28 57 28 57 L 20.2 57 C 20.2 57 20.19 56.07 20.2 56.1 Z M 35.5 56.1 C 38.3 55.9 38.4 55.8 38.4 54 C 38.4 54 38.4 37.8 38.4 37.8 C 38.4 36 38.3 36 35.5 35.8 C 35.52 35.78 35.5 34.9 35.5 34.9 L 44.6 34.9 C 44.6 34.9 44.64 35.78 44.6 35.8 C 41.7 36 41.6 36 41.6 37.8 C 41.6 37.8 41.6 53.2 41.6 53.2 C 41.6 54.7 41.7 55.3 42.4 55.6 C 43 55.8 44.2 55.9 45.8 55.9 C 49.2 55.9 50.9 55.5 51.6 51.3 C 51.55 51.27 52.5 51.3 52.5 51.3 L 52.1 57 L 35.5 57 C 35.5 57 35.52 56.07 35.5 56.1 Z M 56.5 49 C 59 48.2 62.1 47.4 62.9 46.6 C 62.9 46.6 62.9 45.3 62.9 45.3 C 62.9 42.7 61.4 42.1 60.2 42.1 C 58.9 42.1 57.6 42.8 56.9 45.2 C 56.7 45.7 56.5 46.1 55.9 46.1 C 55.3 46.1 54.1 45.6 54.1 44.6 C 54.1 42.8 56.9 40.9 60.5 40.9 C 65.4 40.9 65.8 43.3 65.8 45.2 C 65.8 45.2 65.8 52.9 65.8 52.9 C 65.8 55 66.3 55.6 66.9 55.7 C 67.4 55.8 68.1 55.8 68.5 55.7 C 68.5 55.7 68.7 56.4 68.7 56.4 C 67.5 57 66.1 57.4 65 57.4 C 63.8 57.4 63.3 56.6 62.9 55.5 C 61.9 56.1 60 57.4 58.1 57.4 C 55.1 57.4 53.5 55.2 53.5 52.8 C 53.5 51.3 54.2 49.7 56.5 49 Z M 59.7 55.7 C 60.9 55.7 62.9 55 62.9 52.4 C 62.9 52.4 62.9 47.9 62.9 47.9 C 62.2 48.4 60.5 49 59.2 49.4 C 57.4 50.1 56.7 50.9 56.7 52.4 C 56.7 54.3 57.7 55.7 59.7 55.7 Z M 71.8 43.1 C 73.2 41.8 75.1 40.9 77.7 40.9 C 79.2 40.9 80.4 41.2 81.3 41.7 C 81.3 41.7 81.3 36.5 81.3 36.5 C 81.3 35.2 81.1 35.1 80.3 35 C 80.25 34.98 79 34.9 79 34.9 L 79 34.1 L 84.1 33.3 L 84.3 33.4 C 84.3 33.4 84.29 54.22 84.3 54.2 C 84.3 55.8 84.4 55.9 86.7 56.1 C 86.69 56.07 86.7 57 86.7 57 L 81.5 57 L 81.2 56.8 C 81.2 56.8 81.25 55.21 81.2 55.2 C 79.5 56.6 78 57.4 76.3 57.4 C 72.1 57.4 69.6 54.2 69.6 49.5 C 69.6 46.7 70.4 44.6 71.8 43.1 Z M 77.3 55.7 C 79 55.7 80.4 55 81.1 53.4 C 81.2 52.8 81.3 52.3 81.3 51.6 C 81.3 51.6 81.3 45.9 81.3 45.9 C 81.3 45.1 81.2 44.6 81 44.1 C 80.4 42.8 79.2 42.1 77.7 42.1 C 74.4 42.1 72.9 44.9 72.9 49.1 C 72.9 52.8 74.4 55.7 77.3 55.7 Z M 86.4 41.3 L 93.7 41.3 L 93.7 42.2 C 93.7 42.2 92.32 42.38 92.3 42.4 C 91.6 42.4 91.6 42.8 91.8 43.4 C 93 46.7 94.3 50.2 95.8 54.1 C 95.8 54.1 95.8 54.1 95.8 54.1 C 97.2 50.2 98.9 45.4 99.4 43.5 C 99.6 42.9 99.5 42.5 98.9 42.4 C 98.94 42.41 97.3 42.2 97.3 42.2 L 97.3 41.3 L 103.4 41.3 C 103.4 41.3 103.42 42.25 103.4 42.2 C 101.8 42.3 101.6 42.6 101.1 43.9 C 100.1 46.1 97.1 53.9 95.1 59.6 C 93.5 64.4 91.9 64.7 90.6 64.7 C 89.2 64.7 88.4 63.8 88.4 63.1 C 88.4 62.2 89.2 61.3 89.8 61.3 C 90.1 61.3 90.4 61.4 90.7 61.7 C 91.3 62.3 91.6 62.4 91.9 62.4 C 92.3 62.4 92.8 62.1 93.3 61.1 C 93.8 60 94.1 59.1 94.1 58.3 C 94.1 57.8 94 57.3 93.8 56.8 C 93.1 54.6 90.4 47.8 88.8 43.9 C 88.2 42.5 87.9 42.3 86.4 42.2 C 86.37 42.25 86.4 41.3 86.4 41.3 Z M 109.8 56.1 C 112.6 55.9 112.6 55.8 112.6 54 C 112.6 54 112.6 37.8 112.6 37.8 C 112.6 36 112.6 36 109.8 35.8 C 109.76 35.78 109.8 34.9 109.8 34.9 C 109.8 34.9 118.69 34.86 118.7 34.9 C 120.9 34.9 123 35.2 124.5 36.1 C 125.9 37 127 38.7 127 41.1 C 127 45.1 124.2 46.9 121.7 47.5 C 120.5 47.8 119.1 47.9 117.6 47.9 C 117.63 47.91 115.8 47.9 115.8 47.9 C 115.8 47.9 115.81 54.02 115.8 54 C 115.8 55.8 115.9 55.9 119.2 56.1 C 119.2 56.07 119.2 57 119.2 57 L 109.8 57 C 109.8 57 109.76 56.07 109.8 56.1 Z M 118.2 46.8 C 120.9 46.8 123.5 45.4 123.5 41.4 C 123.5 37.9 121.5 36 118.2 36 C 116.2 36 115.8 36.3 115.8 37.2 C 115.8 37.2 115.8 45.5 115.8 45.5 C 115.8 46.7 116.3 46.8 118.2 46.8 Z M 130.6 49 C 133.1 48.2 136.2 47.4 137 46.6 C 137 46.6 137 45.3 137 45.3 C 137 42.7 135.5 42.1 134.3 42.1 C 133 42.1 131.7 42.8 131 45.2 C 130.8 45.7 130.7 46.1 130 46.1 C 129.4 46.1 128.2 45.6 128.2 44.6 C 128.2 42.8 131 40.9 134.7 40.9 C 139.5 40.9 139.9 43.3 139.9 45.2 C 139.9 45.2 139.9 52.9 139.9 52.9 C 139.9 55 140.4 55.6 141 55.7 C 141.5 55.8 142.2 55.8 142.7 55.7 C 142.7 55.7 142.8 56.4 142.8 56.4 C 141.6 57 140.3 57.4 139.1 57.4 C 137.9 57.4 137.4 56.6 137 55.5 C 136 56.1 134.1 57.4 132.2 57.4 C 129.2 57.4 127.6 55.2 127.6 52.8 C 127.6 51.3 128.3 49.7 130.6 49 Z M 133.8 55.7 C 135 55.7 137 55 137 52.4 C 137 52.4 137 47.9 137 47.9 C 136.3 48.4 134.6 49 133.3 49.4 C 131.5 50.1 130.8 50.9 130.8 52.4 C 130.8 54.3 131.8 55.7 133.8 55.7 Z M 145.9 43.1 C 147.3 41.8 149.2 40.9 151.8 40.9 C 153.3 40.9 154.5 41.2 155.4 41.7 C 155.4 41.7 155.4 36.5 155.4 36.5 C 155.4 35.2 155.2 35.1 154.4 35 C 154.37 34.98 153.1 34.9 153.1 34.9 L 153.1 34.1 L 158.2 33.3 L 158.4 33.4 C 158.4 33.4 158.4 54.22 158.4 54.2 C 158.4 55.8 158.5 55.9 160.8 56.1 C 160.8 56.07 160.8 57 160.8 57 L 155.6 57 L 155.4 56.8 C 155.4 56.8 155.36 55.21 155.4 55.2 C 153.6 56.6 152.1 57.4 150.4 57.4 C 146.2 57.4 143.7 54.2 143.7 49.5 C 143.7 46.7 144.5 44.6 145.9 43.1 Z M 151.5 55.7 C 153.1 55.7 154.5 55 155.2 53.4 C 155.4 52.8 155.4 52.3 155.4 51.6 C 155.4 51.6 155.4 45.9 155.4 45.9 C 155.4 45.1 155.4 44.6 155.1 44.1 C 154.5 42.8 153.3 42.1 151.8 42.1 C 148.5 42.1 147 44.9 147 49.1 C 147 52.8 148.5 55.7 151.5 55.7 Z M 164.4 43.1 C 165.8 41.8 167.7 40.9 170.3 40.9 C 171.8 40.9 173 41.2 173.9 41.7 C 173.9 41.7 173.9 36.5 173.9 36.5 C 173.9 35.2 173.7 35.1 172.9 35 C 172.86 34.98 171.6 34.9 171.6 34.9 L 171.6 34.1 L 176.7 33.3 L 176.9 33.4 C 176.9 33.4 176.89 54.22 176.9 54.2 C 176.9 55.8 177 55.9 179.3 56.1 C 179.29 56.07 179.3 57 179.3 57 L 174.1 57 L 173.9 56.8 C 173.9 56.8 173.85 55.21 173.9 55.2 C 172.1 56.6 170.6 57.4 168.9 57.4 C 164.7 57.4 162.2 54.2 162.2 49.5 C 162.2 46.7 163 44.6 164.4 43.1 Z M 169.9 55.7 C 171.6 55.7 173 55 173.7 53.4 C 173.9 52.8 173.9 52.3 173.9 51.6 C 173.9 51.6 173.9 45.9 173.9 45.9 C 173.9 45.1 173.9 44.6 173.6 44.1 C 173 42.8 171.8 42.1 170.3 42.1 C 167 42.1 165.5 44.9 165.5 49.1 C 165.5 52.8 167 55.7 169.9 55.7 Z M 179.8 56.1 C 182.1 55.9 182.2 55.8 182.2 54.2 C 182.2 54.2 182.2 36.5 182.2 36.5 C 182.2 35.2 182 35.1 181.1 35 C 181.15 34.98 179.9 34.9 179.9 34.9 L 179.9 34.1 L 185 33.3 L 185.2 33.4 C 185.2 33.4 185.18 54.22 185.2 54.2 C 185.2 55.8 185.3 55.9 187.6 56.1 C 187.58 56.07 187.6 57 187.6 57 L 179.8 57 C 179.8 57 179.77 56.07 179.8 56.1 Z M 196.3 40.9 C 202.2 40.9 202.8 45.5 202.8 47.4 C 202.8 48.4 202.2 48.6 201.5 48.6 C 201.5 48.6 192.3 48.6 192.3 48.6 C 192.3 51.9 193.1 55.8 197 55.8 C 199.5 55.8 200.8 54.2 201.7 52.4 C 201.7 52.4 202.6 52.9 202.6 52.9 C 201.8 55.4 199.9 57.4 196.4 57.4 C 191.2 57.4 189 54.3 189 49.3 C 189 44.5 191.4 40.9 196.3 40.9 Z M 198.4 47.4 C 199.3 47.4 199.5 47 199.5 46.3 C 199.5 45.1 199.1 42.1 196.2 42.1 C 192.8 42.1 192.3 46.1 192.3 47.4 C 192.3 47.4 198.4 47.4 198.4 47.4 Z M 204.3 56.1 C 206.5 55.9 206.7 55.8 206.7 54.2 C 206.7 54.2 206.7 44.1 206.7 44.1 C 206.7 43 206.5 42.8 205.6 42.7 C 205.63 42.7 204.4 42.5 204.4 42.5 L 204.4 41.7 L 209.3 40.9 C 209.3 40.9 209.66 43.5 209.7 43.5 C 211.8 41.6 212.7 40.9 213.9 40.9 C 215.1 40.9 215.6 41.8 215.6 42.5 C 215.6 43.5 214.9 44.3 214.1 44.3 C 213.9 44.3 213.7 44.3 213.5 44.1 C 212.5 43.6 212 43.4 211.5 43.4 C 210.7 43.4 209.7 44.3 209.7 46.7 C 209.7 46.7 209.7 54.2 209.7 54.2 C 209.7 55.8 209.9 55.9 212.7 56.1 C 212.7 56.07 212.7 57 212.7 57 L 204.3 57 C 204.3 57 204.25 56.07 204.3 56.1 Z M 224.6 58.2 C 225.3 57.3 225.9 55.7 225.9 52.6 C 225.9 52.6 225.9 37.8 225.9 37.8 C 225.9 36 225.8 36 223 35.8 C 223 35.78 223 34.9 223 34.9 L 231.9 34.9 C 231.9 34.9 231.93 35.78 231.9 35.8 C 229.1 36 229.1 36 229.1 37.8 C 229.1 37.8 229.1 52.4 229.1 52.4 C 229.1 55.7 228.7 58.3 225.8 59.7 C 224.5 60.2 223 60.6 221.8 60.6 C 221.8 60.6 221.6 59.8 221.6 59.8 C 222.7 59.6 223.9 59 224.6 58.2 Z M 235.5 49 C 238.1 48.2 241.2 47.4 242 46.6 C 242 46.6 242 45.3 242 45.3 C 242 42.7 240.5 42.1 239.3 42.1 C 238 42.1 236.7 42.8 236 45.2 C 235.8 45.7 235.6 46.1 234.9 46.1 C 234.3 46.1 233.1 45.6 233.1 44.6 C 233.1 42.8 236 40.9 239.6 40.9 C 244.4 40.9 244.9 43.3 244.9 45.2 C 244.9 45.2 244.9 52.9 244.9 52.9 C 244.9 55 245.4 55.6 246 55.7 C 246.5 55.8 247.2 55.8 247.6 55.7 C 247.6 55.7 247.8 56.4 247.8 56.4 C 246.6 57 245.2 57.4 244 57.4 C 242.9 57.4 242.4 56.6 241.9 55.5 C 240.9 56.1 239 57.4 237.2 57.4 C 234.2 57.4 232.6 55.2 232.6 52.8 C 232.6 51.3 233.2 49.7 235.5 49 Z M 238.7 55.7 C 240 55.7 242 55 242 52.4 C 242 52.4 242 47.9 242 47.9 C 241.3 48.4 239.6 49 238.3 49.4 C 236.5 50.1 235.8 50.9 235.8 52.4 C 235.8 54.3 236.8 55.7 238.7 55.7 Z M 248.1 56.1 C 250.4 55.9 250.5 55.8 250.5 54.2 C 250.5 54.2 250.5 44.1 250.5 44.1 C 250.5 43 250.3 42.8 249.5 42.7 C 249.5 42.7 248.3 42.5 248.3 42.5 L 248.3 41.7 L 253.1 40.9 C 253.1 40.9 253.5 43.37 253.5 43.4 C 255.5 42.1 257 40.9 259.3 40.9 C 262.3 40.9 264 42.8 264 46 C 264 46 264 54.2 264 54.2 C 264 55.8 264.2 55.9 266.4 56.1 C 266.43 56.07 266.4 57 266.4 57 L 258.6 57 C 258.6 57 258.62 56.07 258.6 56.1 C 260.9 55.9 261 55.8 261 54.2 C 261 54.2 261 46.7 261 46.7 C 261 43.9 259.8 42.7 257.7 42.7 C 256 42.7 254.5 43.7 253.9 45 C 253.6 45.5 253.5 45.9 253.5 46.7 C 253.5 46.7 253.5 54.2 253.5 54.2 C 253.5 55.8 253.7 55.9 255.9 56.1 C 255.93 56.07 255.9 57 255.9 57 L 248.1 57 C 248.1 57 248.12 56.07 248.1 56.1 Z M 267.3 56.1 C 269.6 55.9 269.7 55.8 269.7 54.2 C 269.7 54.2 269.7 44.1 269.7 44.1 C 269.7 43 269.5 42.8 268.7 42.7 C 268.67 42.7 267.5 42.5 267.5 42.5 L 267.5 41.7 L 272.2 40.9 C 272.2 40.9 272.67 43.37 272.7 43.4 C 274.7 42.1 276.1 40.9 278.5 40.9 C 281.4 40.9 283.2 42.8 283.2 46 C 283.2 46 283.2 54.2 283.2 54.2 C 283.2 55.8 283.3 55.9 285.6 56.1 C 285.6 56.07 285.6 57 285.6 57 L 277.8 57 C 277.8 57 277.79 56.07 277.8 56.1 C 280.1 55.9 280.2 55.8 280.2 54.2 C 280.2 54.2 280.2 46.7 280.2 46.7 C 280.2 43.9 279 42.7 276.8 42.7 C 275.1 42.7 273.7 43.7 273 45 C 272.8 45.5 272.7 45.9 272.7 46.7 C 272.7 46.7 272.7 54.2 272.7 54.2 C 272.7 55.8 272.8 55.9 275.1 56.1 C 275.1 56.07 275.1 57 275.1 57 L 267.3 57 C 267.3 57 267.29 56.07 267.3 56.1 Z M 290 49 C 292.5 48.2 295.6 47.4 296.4 46.6 C 296.4 46.6 296.4 45.3 296.4 45.3 C 296.4 42.7 294.9 42.1 293.7 42.1 C 292.4 42.1 291.1 42.8 290.4 45.2 C 290.2 45.7 290 46.1 289.4 46.1 C 288.8 46.1 287.6 45.6 287.6 44.6 C 287.6 42.8 290.4 40.9 294 40.9 C 298.9 40.9 299.3 43.3 299.3 45.2 C 299.3 45.2 299.3 52.9 299.3 52.9 C 299.3 55 299.8 55.6 300.4 55.7 C 300.9 55.8 301.6 55.8 302 55.7 C 302 55.7 302.2 56.4 302.2 56.4 C 301 57 299.6 57.4 298.5 57.4 C 297.3 57.4 296.8 56.6 296.4 55.5 C 295.4 56.1 293.5 57.4 291.6 57.4 C 288.6 57.4 287 55.2 287 52.8 C 287 51.3 287.7 49.7 290 49 Z M 293.2 55.7 C 294.4 55.7 296.4 55 296.4 52.4 C 296.4 52.4 296.4 47.9 296.4 47.9 C 295.7 48.4 294 49 292.7 49.4 C 290.9 50.1 290.2 50.9 290.2 52.4 C 290.2 54.3 291.2 55.7 293.2 55.7 Z " stroke="none" fill="#000"/>
  </g>
  <g id="Polygon39270">
    <path d="M 1.1 23.1 C 3.9 22.9 4 22.8 4 21 C 4 21 4 4.8 4 4.8 C 4 3 3.9 3 1.1 2.8 C 1.12 2.78 1.1 1.9 1.1 1.9 C 1.1 1.9 10.05 1.86 10 1.9 C 12.3 1.9 14.3 2.2 15.9 3.1 C 17.3 4 18.4 5.7 18.4 8.1 C 18.4 12.1 15.6 13.9 13.1 14.5 C 11.9 14.8 10.5 14.9 9 14.9 C 8.99 14.91 7.2 14.9 7.2 14.9 C 7.2 14.9 7.17 21.02 7.2 21 C 7.2 22.8 7.3 22.9 10.6 23.1 C 10.56 23.07 10.6 24 10.6 24 L 1.1 24 C 1.1 24 1.12 23.07 1.1 23.1 Z M 9.5 13.8 C 12.3 13.8 14.9 12.4 14.9 8.4 C 14.9 4.9 12.9 3 9.6 3 C 7.5 3 7.2 3.3 7.2 4.2 C 7.2 4.2 7.2 12.5 7.2 12.5 C 7.2 13.7 7.6 13.8 9.5 13.8 Z M 22 16 C 24.5 15.2 27.6 14.4 28.4 13.6 C 28.4 13.6 28.4 12.3 28.4 12.3 C 28.4 9.7 26.9 9.1 25.7 9.1 C 24.4 9.1 23.1 9.8 22.4 12.2 C 22.2 12.7 22 13.1 21.3 13.1 C 20.7 13.1 19.6 12.6 19.6 11.6 C 19.6 9.8 22.4 7.9 26 7.9 C 30.8 7.9 31.3 10.3 31.3 12.2 C 31.3 12.2 31.3 19.9 31.3 19.9 C 31.3 22 31.8 22.6 32.4 22.7 C 32.9 22.8 33.6 22.8 34 22.7 C 34 22.7 34.2 23.4 34.2 23.4 C 33 24 31.6 24.4 30.4 24.4 C 29.3 24.4 28.8 23.6 28.4 22.5 C 27.3 23.1 25.4 24.4 23.6 24.4 C 20.6 24.4 19 22.2 19 19.8 C 19 18.3 19.6 16.7 22 16 Z M 25.2 22.7 C 26.4 22.7 28.4 22 28.4 19.4 C 28.4 19.4 28.4 14.9 28.4 14.9 C 27.7 15.4 26 16 24.7 16.4 C 22.9 17.1 22.2 17.9 22.2 19.4 C 22.2 21.3 23.2 22.7 25.2 22.7 Z M 38.5 23.6 C 38.5 23.6 38.5 23.5 38.5 23.5 C 37 23.3 35.7 22.1 35.7 21 C 35.7 19.7 36.9 18.8 38.7 18.1 C 38.7 18.1 38.7 18.1 38.7 18.1 C 37.2 17.7 35.2 16.3 35.2 13.3 C 35.2 10.9 36.9 7.9 41.8 7.9 C 43.3 7.9 45.1 8.3 46 8.9 C 45.95 8.93 50 7.6 50 7.6 L 50.3 7.9 L 49.7 9.9 C 49.7 9.9 47.14 10.3 47.1 10.3 C 47.7 10.8 48.1 12 48.1 13.3 C 48.1 17.2 44.7 18.5 41.6 18.5 C 41.3 18.5 40.6 18.5 40 18.4 C 39.6 18.6 38.4 19.1 38.4 20 C 38.4 20.6 38.7 21.4 41 21.4 C 41 21.4 43.6 21.4 43.6 21.4 C 47 21.4 49.8 22.6 49.8 26 C 49.8 28 48.7 29.5 47.2 30.4 C 45.7 31.4 43.7 31.7 41.8 31.7 C 38 31.7 34.8 30.3 34.8 27.1 C 34.8 24.8 37.2 24 38.5 23.6 Z M 42.5 30.6 C 44.8 30.6 47.1 29.4 47.1 26.8 C 47.1 24.4 45 23.8 42.2 23.8 C 40.6 23.8 39.6 24 38.9 24.5 C 38.2 25 37.9 25.8 37.9 26.9 C 37.9 29.2 39.8 30.6 42.5 30.6 Z M 41.8 17.4 C 43.6 17.4 45 16 45 13.3 C 45 10.2 43.4 9.1 41.8 9.1 C 40.1 9.1 38.5 10.1 38.5 13.3 C 38.5 16 40 17.4 41.8 17.4 Z M 51.9 18.7 C 52.6 21.4 54 23.3 56.6 23.3 C 58.3 23.3 59.6 22.2 59.6 20.6 C 59.6 18.4 57.6 17.7 56.1 17.2 C 53.5 16.4 51.3 15.3 51.3 12.6 C 51.3 9.6 53.7 7.9 57.1 7.9 C 58.6 7.9 60.2 8.3 61.2 9 C 61.25 9.02 61.2 12.8 61.2 12.8 C 61.2 12.8 60.32 12.77 60.3 12.8 C 60.1 10.8 59 9.1 56.7 9.1 C 55.1 9.1 53.9 10 53.9 11.6 C 53.9 13.4 56 14.1 57.3 14.5 C 60.6 15.6 62.3 16.8 62.3 19.6 C 62.3 22.4 60.1 24.4 56.3 24.4 C 54.4 24.4 52.5 23.9 51.3 22.8 C 51.33 22.85 51 18.7 51 18.7 C 51 18.7 51.94 18.66 51.9 18.7 Z M 63.6 8.7 L 68.7 7.9 L 68.9 8.1 C 68.9 8.1 68.89 19.01 68.9 19 C 68.9 21.5 70.3 22.7 72.1 22.7 C 73.8 22.7 75.3 21.7 76.1 20.3 C 76.2 19.9 76.3 19.2 76.3 18.3 C 76.3 18.3 76.3 11.1 76.3 11.1 C 76.3 10 76.1 9.8 75.3 9.7 C 75.29 9.7 74.1 9.5 74.1 9.5 L 74.1 8.7 L 79.1 7.9 L 79.3 8.1 C 79.3 8.1 79.33 21.22 79.3 21.2 C 79.3 22.8 79.5 22.9 81.7 23.1 C 81.73 23.07 81.7 24 81.7 24 L 76.6 24 C 76.6 24 76.29 22.08 76.3 22.1 C 75.4 22.5 73.2 24.4 70.4 24.4 C 68.1 24.4 65.9 23.3 65.9 19.6 C 65.9 19.6 65.9 11.1 65.9 11.1 C 65.9 10 65.7 9.8 64.9 9.7 C 64.86 9.7 63.6 9.5 63.6 9.5 L 63.6 8.7 Z M 82.2 23.1 C 84.5 22.9 84.6 22.8 84.6 21.2 C 84.6 21.2 84.6 3.5 84.6 3.5 C 84.6 2.2 84.4 2.1 83.6 2 C 83.58 1.98 82.4 1.9 82.4 1.9 L 82.4 1.1 L 87.4 0.3 L 87.6 0.4 C 87.6 0.4 87.61 21.22 87.6 21.2 C 87.6 22.8 87.7 22.9 90 23.1 C 90.01 23.07 90 24 90 24 L 82.2 24 C 82.2 24 82.21 23.07 82.2 23.1 Z M 89.7 8.3 L 97 8.3 L 97 9.2 C 97 9.2 95.65 9.38 95.6 9.4 C 94.9 9.4 95 9.8 95.2 10.4 C 96.4 13.7 97.6 17.2 99.1 21.1 C 99.1 21.1 99.2 21.1 99.2 21.1 C 100.6 17.2 102.2 12.4 102.7 10.5 C 102.9 9.9 102.8 9.5 102.3 9.4 C 102.27 9.41 100.6 9.2 100.6 9.2 L 100.6 8.3 L 106.8 8.3 C 106.8 8.3 106.75 9.25 106.8 9.2 C 105.2 9.3 105 9.6 104.4 10.9 C 103.4 13.1 100.4 20.9 98.5 26.6 C 96.8 31.4 95.2 31.7 93.9 31.7 C 92.6 31.7 91.7 30.8 91.7 30.1 C 91.7 29.2 92.5 28.3 93.1 28.3 C 93.5 28.3 93.7 28.4 94 28.7 C 94.6 29.3 94.9 29.4 95.2 29.4 C 95.6 29.4 96.2 29.1 96.6 28.1 C 97.1 27 97.4 26.1 97.4 25.3 C 97.4 24.8 97.3 24.3 97.2 23.8 C 96.4 21.6 93.7 14.8 92.1 10.9 C 91.6 9.5 91.2 9.3 89.7 9.2 C 89.69 9.25 89.7 8.3 89.7 8.3 Z M 110 16 C 112.5 15.2 115.6 14.4 116.4 13.6 C 116.4 13.6 116.4 12.3 116.4 12.3 C 116.4 9.7 114.9 9.1 113.7 9.1 C 112.4 9.1 111.1 9.8 110.4 12.2 C 110.2 12.7 110 13.1 109.3 13.1 C 108.7 13.1 107.6 12.6 107.6 11.6 C 107.6 9.8 110.4 7.9 114 7.9 C 118.8 7.9 119.3 10.3 119.3 12.2 C 119.3 12.2 119.3 19.9 119.3 19.9 C 119.3 22 119.8 22.6 120.4 22.7 C 120.9 22.8 121.6 22.8 122 22.7 C 122 22.7 122.2 23.4 122.2 23.4 C 121 24 119.6 24.4 118.4 24.4 C 117.3 24.4 116.8 23.6 116.4 22.5 C 115.3 23.1 113.4 24.4 111.6 24.4 C 108.6 24.4 107 22.2 107 19.8 C 107 18.3 107.6 16.7 110 16 Z M 113.2 22.7 C 114.4 22.7 116.4 22 116.4 19.4 C 116.4 19.4 116.4 14.9 116.4 14.9 C 115.7 15.4 114 16 112.7 16.4 C 110.9 17.1 110.2 17.9 110.2 19.4 C 110.2 21.3 111.2 22.7 113.2 22.7 Z M 124.7 28.6 C 124.7 28.6 124.7 11.1 124.7 11.1 C 124.7 10 124.5 9.8 123.7 9.7 C 123.68 9.7 122.5 9.5 122.5 9.5 L 122.5 8.7 L 127.3 7.9 C 127.3 7.9 127.71 10.3 127.7 10.3 C 129 9.5 130.8 7.9 133.2 7.9 C 139 7.9 139.4 13.5 139.4 15.8 C 139.4 22.4 135.7 24.4 131.4 24.4 C 129.9 24.4 128.4 24 127.7 23.6 C 127.7 23.6 127.7 28.6 127.7 28.6 C 127.7 30.2 127.9 30.3 130.6 30.4 C 130.59 30.43 130.6 31.4 130.6 31.4 L 122.3 31.4 C 122.3 31.4 122.3 30.43 122.3 30.4 C 124.5 30.3 124.7 30.2 124.7 28.6 Z M 127.9 20.9 C 128.4 22.4 129.7 23.3 131.4 23.3 C 134.6 23.3 136.1 20.7 136.1 16 C 136.1 10.5 133.2 9.7 131.9 9.7 C 130.2 9.7 128.9 10.4 128.1 11.9 C 127.8 12.5 127.7 12.9 127.7 13.7 C 127.7 13.7 127.7 19 127.7 19 C 127.7 19.7 127.7 20.4 127.9 20.9 Z M 149.3 18.7 C 149.9 21.4 151.4 23.3 154 23.3 C 155.7 23.3 157 22.2 157 20.6 C 157 18.4 154.9 17.7 153.5 17.2 C 150.8 16.4 148.7 15.3 148.7 12.6 C 148.7 9.6 151 7.9 154.5 7.9 C 155.9 7.9 157.6 8.3 158.6 9 C 158.62 9.02 158.6 12.8 158.6 12.8 C 158.6 12.8 157.69 12.77 157.7 12.8 C 157.5 10.8 156.4 9.1 154.1 9.1 C 152.5 9.1 151.2 10 151.2 11.6 C 151.2 13.4 153.3 14.1 154.7 14.5 C 157.9 15.6 159.7 16.8 159.7 19.6 C 159.7 22.4 157.5 24.4 153.7 24.4 C 151.8 24.4 149.9 23.9 148.7 22.8 C 148.7 22.85 148.4 18.7 148.4 18.7 C 148.4 18.7 149.31 18.66 149.3 18.7 Z M 164.7 16 C 167.3 15.2 170.4 14.4 171.2 13.6 C 171.2 13.6 171.2 12.3 171.2 12.3 C 171.2 9.7 169.7 9.1 168.4 9.1 C 167.2 9.1 165.9 9.8 165.1 12.2 C 165 12.7 164.8 13.1 164.1 13.1 C 163.5 13.1 162.3 12.6 162.3 11.6 C 162.3 9.8 165.2 7.9 168.8 7.9 C 173.6 7.9 174 10.3 174 12.2 C 174 12.2 174 19.9 174 19.9 C 174 22 174.6 22.6 175.2 22.7 C 175.6 22.8 176.3 22.8 176.8 22.7 C 176.8 22.7 177 23.4 177 23.4 C 175.8 24 174.4 24.4 173.2 24.4 C 172.1 24.4 171.6 23.6 171.1 22.5 C 170.1 23.1 168.2 24.4 166.4 24.4 C 163.4 24.4 161.8 22.2 161.8 19.8 C 161.8 18.3 162.4 16.7 164.7 16 Z M 167.9 22.7 C 169.2 22.7 171.2 22 171.2 19.4 C 171.2 19.4 171.2 14.9 171.2 14.9 C 170.5 15.4 168.8 16 167.5 16.4 C 165.7 17.1 165 17.9 165 19.4 C 165 21.3 165.9 22.7 167.9 22.7 Z M 183.5 23.1 C 185.8 22.9 185.9 22.8 185.9 21.2 C 185.9 21.2 185.9 3.5 185.9 3.5 C 185.9 2.3 185.7 2.1 184.9 2 C 184.86 2.02 183.6 1.9 183.6 1.9 L 183.6 1.1 L 188.6 0.3 L 188.9 0.4 C 188.9 0.4 188.86 10.37 188.9 10.4 C 190.9 9 192.3 7.9 194.7 7.9 C 197.6 7.9 199.4 9.8 199.4 13 C 199.4 13 199.4 21.2 199.4 21.2 C 199.4 22.8 199.6 22.9 201.8 23.1 C 201.79 23.07 201.8 24 201.8 24 L 194 24 C 194 24 193.98 23.07 194 23.1 C 196.2 22.9 196.4 22.8 196.4 21.2 C 196.4 21.2 196.4 13.7 196.4 13.7 C 196.4 10.9 195.2 9.7 193 9.7 C 191.3 9.7 189.9 10.7 189.2 12 C 188.9 12.5 188.9 12.9 188.9 13.7 C 188.9 13.7 188.9 21.2 188.9 21.2 C 188.9 22.8 189.1 22.9 191.3 23.1 C 191.29 23.07 191.3 24 191.3 24 L 183.5 24 C 183.5 24 183.52 23.07 183.5 23.1 Z M 206.2 16 C 208.7 15.2 211.8 14.4 212.6 13.6 C 212.6 13.6 212.6 12.3 212.6 12.3 C 212.6 9.7 211.1 9.1 209.9 9.1 C 208.6 9.1 207.3 9.8 206.6 12.2 C 206.4 12.7 206.2 13.1 205.6 13.1 C 205 13.1 203.8 12.6 203.8 11.6 C 203.8 9.8 206.6 7.9 210.2 7.9 C 215.1 7.9 215.5 10.3 215.5 12.2 C 215.5 12.2 215.5 19.9 215.5 19.9 C 215.5 22 216 22.6 216.6 22.7 C 217.1 22.8 217.8 22.8 218.2 22.7 C 218.2 22.7 218.4 23.4 218.4 23.4 C 217.2 24 215.8 24.4 214.7 24.4 C 213.5 24.4 213 23.6 212.6 22.5 C 211.5 23.1 209.7 24.4 207.8 24.4 C 204.8 24.4 203.2 22.2 203.2 19.8 C 203.2 18.3 203.9 16.7 206.2 16 Z M 209.4 22.7 C 210.6 22.7 212.6 22 212.6 19.4 C 212.6 19.4 212.6 14.9 212.6 14.9 C 211.9 15.4 210.2 16 208.9 16.4 C 207.1 17.1 206.4 17.9 206.4 19.4 C 206.4 21.3 207.4 22.7 209.4 22.7 Z M 222.7 23.6 C 222.7 23.6 222.7 23.5 222.7 23.5 C 221.2 23.3 219.9 22.1 219.9 21 C 219.9 19.7 221.1 18.8 222.9 18.1 C 222.9 18.1 222.9 18.1 222.9 18.1 C 221.4 17.7 219.4 16.3 219.4 13.3 C 219.4 10.9 221.1 7.9 226 7.9 C 227.5 7.9 229.3 8.3 230.2 8.9 C 230.17 8.93 234.3 7.6 234.3 7.6 L 234.5 7.9 L 233.9 9.9 C 233.9 9.9 231.36 10.3 231.4 10.3 C 231.9 10.8 232.3 12 232.3 13.3 C 232.3 17.2 228.9 18.5 225.9 18.5 C 225.5 18.5 224.8 18.5 224.2 18.4 C 223.8 18.6 222.6 19.1 222.6 20 C 222.6 20.6 222.9 21.4 225.2 21.4 C 225.2 21.4 227.8 21.4 227.8 21.4 C 231.2 21.4 234 22.6 234 26 C 234 28 232.9 29.5 231.5 30.4 C 229.9 31.4 227.9 31.7 226 31.7 C 222.3 31.7 219.1 30.3 219.1 27.1 C 219.1 24.8 221.4 24 222.7 23.6 Z M 226.7 30.6 C 229 30.6 231.3 29.4 231.3 26.8 C 231.3 24.4 229.2 23.8 226.4 23.8 C 224.9 23.8 223.8 24 223.1 24.5 C 222.4 25 222.1 25.8 222.1 26.9 C 222.1 29.2 224 30.6 226.7 30.6 Z M 226 17.4 C 227.8 17.4 229.2 16 229.2 13.3 C 229.2 10.2 227.6 9.1 226 9.1 C 224.3 9.1 222.7 10.1 222.7 13.3 C 222.7 16 224.2 17.4 226 17.4 Z M 234.6 8.7 L 239.6 7.9 L 239.8 8.1 C 239.8 8.1 239.8 19.01 239.8 19 C 239.8 21.5 241.2 22.7 243 22.7 C 244.7 22.7 246.2 21.7 247 20.3 C 247.1 19.9 247.2 19.2 247.2 18.3 C 247.2 18.3 247.2 11.1 247.2 11.1 C 247.2 10 247 9.8 246.2 9.7 C 246.2 9.7 245 9.5 245 9.5 L 245 8.7 L 250 7.9 L 250.2 8.1 C 250.2 8.1 250.24 21.22 250.2 21.2 C 250.2 22.8 250.4 22.9 252.6 23.1 C 252.64 23.07 252.6 24 252.6 24 L 247.5 24 C 247.5 24 247.2 22.08 247.2 22.1 C 246.3 22.5 244.1 24.4 241.3 24.4 C 239 24.4 236.8 23.3 236.8 19.6 C 236.8 19.6 236.8 11.1 236.8 11.1 C 236.8 10 236.6 9.8 235.8 9.7 C 235.77 9.7 234.6 9.5 234.6 9.5 L 234.6 8.7 Z M 255.7 28.6 C 255.7 28.6 255.7 11.1 255.7 11.1 C 255.7 10 255.5 9.8 254.7 9.7 C 254.65 9.7 253.4 9.5 253.4 9.5 L 253.4 8.7 L 258.3 7.9 C 258.3 7.9 258.68 10.3 258.7 10.3 C 259.9 9.5 261.8 7.9 264.1 7.9 C 269.9 7.9 270.4 13.5 270.4 15.8 C 270.4 22.4 266.7 24.4 262.3 24.4 C 260.9 24.4 259.4 24 258.7 23.6 C 258.7 23.6 258.7 28.6 258.7 28.6 C 258.7 30.2 258.9 30.3 261.6 30.4 C 261.56 30.43 261.6 31.4 261.6 31.4 L 253.3 31.4 C 253.3 31.4 253.28 30.43 253.3 30.4 C 255.5 30.3 255.7 30.2 255.7 28.6 Z M 258.9 20.9 C 259.4 22.4 260.7 23.3 262.4 23.3 C 265.6 23.3 267 20.7 267 16 C 267 10.5 264.2 9.7 262.9 9.7 C 261.2 9.7 259.8 10.4 259.1 11.9 C 258.8 12.5 258.7 12.9 258.7 13.7 C 258.7 13.7 258.7 19 258.7 19 C 258.7 19.7 258.7 20.4 258.9 20.9 Z M 276.2 1.1 C 277.3 1.1 278.1 1.9 278.1 3.1 C 278.1 4.2 277.3 5 276.2 5 C 275 5 274.2 4.2 274.2 3.1 C 274.2 1.9 275 1.1 276.2 1.1 Z M 272.3 23.1 C 274.6 22.9 274.7 22.8 274.7 21.2 C 274.7 21.2 274.7 11.1 274.7 11.1 C 274.7 10 274.5 9.8 273.7 9.7 C 273.69 9.7 272.5 9.5 272.5 9.5 L 272.5 8.7 L 277.5 7.9 L 277.7 8.1 C 277.7 8.1 277.72 21.22 277.7 21.2 C 277.7 22.8 277.9 22.9 280.1 23.1 C 280.12 23.07 280.1 24 280.1 24 L 272.3 24 C 272.3 24 272.32 23.07 272.3 23.1 Z M 281 8.3 L 283.4 8.3 L 285.3 4.3 L 286.3 4.3 L 286.3 8.3 L 290.4 8.3 L 290.4 9.6 L 286.3 9.6 C 286.3 9.6 286.27 19.52 286.3 19.5 C 286.3 22 287.3 22.7 288.4 22.7 C 289.2 22.7 289.9 22.6 290.7 22.3 C 290.7 22.3 290.9 23 290.9 23 C 290 23.6 288.4 24.4 286.8 24.4 C 285.7 24.4 283.3 24 283.3 20.7 C 283.26 20.74 283.3 9.6 283.3 9.6 L 281 9.6 L 281 8.3 Z " stroke="none" fill="#000"/>
  </g>
</svg>