<?xml version="1.0" standalone="no"?>
<!DOCTYPE svg PUBLIC "-//W3C//DTD SVG 1.1//EN" "http://www.w3.org/Graphics/SVG/1.1/DTD/svg11.dtd">
<svg xmlns="http://www.w3.org/2000/svg" version="1.1" width="792px" height="47.9px" viewBox="0 -13 792 47.9" style="top:-13px">
  <desc>Pagsuri sa lumulubhang krisis pang-edukasyon ng Pilipinas</desc>
  <defs/>
  <g id="Polygon20169">
    <path d="M 47.9 0.5 C 47.9 0.5 56.76 0.45 56.8 0.5 C 58.8 0.5 60.3 0.9 61.4 1.8 C 62.4 2.7 63 3.9 63 5.4 C 63 6.9 62.5 8 61.5 8.8 C 60.2 9.8 58.5 10.4 56.5 10.4 C 56.53 10.36 53.3 10.4 53.3 10.4 C 53.3 10.4 53.31 16.53 53.3 16.5 C 53.3 16.9 53.4 17.1 53.6 17.3 C 53.8 17.5 54.1 17.6 54.5 17.6 C 54.48 17.59 56.5 17.6 56.5 17.6 L 56.5 18.5 L 47.9 18.5 L 47.9 17.6 C 47.9 17.6 49.67 17.59 49.7 17.6 C 50 17.6 50.3 17.5 50.5 17.4 C 50.6 17.2 50.7 17 50.7 16.8 C 50.7 16.8 50.7 2.4 50.7 2.4 C 50.7 2 50.6 1.8 50.4 1.6 C 50.2 1.4 49.8 1.4 49.2 1.4 C 49.19 1.37 47.9 1.4 47.9 1.4 L 47.9 0.5 Z M 53.3 9.5 C 53.3 9.5 55.76 9.47 55.8 9.5 C 57.3 9.5 58.4 9.1 59.1 8.5 C 59.8 7.9 60.1 6.8 60.1 5.3 C 60.1 4.3 60 3.5 59.7 2.9 C 59.4 2.3 58.9 1.9 58.3 1.7 C 57.7 1.4 56.7 1.3 55.4 1.3 C 54.5 1.3 53.9 1.3 53.7 1.5 C 53.4 1.7 53.3 2 53.3 2.4 C 53.31 2.4 53.3 9.5 53.3 9.5 Z M 75.5 17.6 C 75.8 17.6 76.1 17.5 76.5 17.2 C 76.5 17.2 76.9 17.9 76.9 17.9 C 76.3 18.5 75.7 18.8 74.9 18.8 C 74.4 18.8 73.9 18.7 73.5 18.4 C 73.2 18.1 72.8 17.6 72.5 16.8 C 71.8 17.6 71.1 18.2 70.5 18.4 C 69.9 18.7 69.2 18.8 68.4 18.8 C 67.2 18.8 66.3 18.6 65.7 18.1 C 65.1 17.6 64.8 16.9 64.8 16.1 C 64.8 15 65.5 14 66.9 13.2 C 68.3 12.4 70.1 11.9 72.5 11.6 C 72.5 11.6 72.5 9.9 72.5 9.9 C 72.5 9.3 72.2 8.7 71.7 8.3 C 71.2 7.9 70.6 7.6 69.8 7.6 C 69.1 7.6 68.5 7.8 68 8.1 C 67.6 8.3 67.4 8.5 67.4 8.7 C 67.4 8.9 67.5 9 67.7 9.3 C 68 9.6 68.1 9.9 68.1 10.2 C 68.1 10.5 68 10.8 67.7 11.1 C 67.5 11.3 67.2 11.4 66.8 11.4 C 66.4 11.4 66.1 11.3 65.8 11 C 65.5 10.7 65.4 10.4 65.4 9.9 C 65.4 9.1 65.8 8.4 66.7 7.7 C 67.7 7.1 68.8 6.7 70.3 6.7 C 71.7 6.7 72.7 7 73.4 7.6 C 74.1 8.2 74.5 8.9 74.5 9.8 C 74.5 9.8 74.5 16 74.5 16 C 74.5 16.6 74.6 17 74.8 17.2 C 75 17.5 75.2 17.6 75.5 17.6 C 75.5 17.6 75.5 17.6 75.5 17.6 Z M 72.5 12.4 C 70.4 12.7 68.9 13.2 68.1 13.8 C 67.4 14.3 67.1 15 67.1 15.9 C 67.1 16.5 67.3 17 67.6 17.4 C 67.9 17.7 68.4 17.9 68.9 17.9 C 69.9 17.9 70.7 17.5 71.4 16.8 C 72.1 16.1 72.5 15.2 72.5 14.1 C 72.5 14.1 72.5 12.4 72.5 12.4 Z M 87.1 7.7 C 87.9 6.9 88.6 6.5 89.3 6.5 C 89.7 6.5 90 6.6 90.3 6.9 C 90.6 7.1 90.7 7.5 90.7 7.8 C 90.7 8.1 90.6 8.4 90.4 8.6 C 90.3 8.8 90 8.9 89.8 8.9 C 89.3 8.9 89 8.6 88.9 8 C 88.8 7.8 88.7 7.7 88.5 7.7 C 88.3 7.7 88 7.8 87.6 8.2 C 88 8.7 88.2 9.1 88.3 9.5 C 88.5 9.8 88.5 10.2 88.5 10.6 C 88.5 11.3 88.4 11.9 88 12.5 C 87.7 13 87.1 13.5 86.3 13.9 C 85.5 14.3 84.8 14.5 84 14.5 C 84 14.5 82.7 14.5 82.7 14.5 C 81.8 14.5 81.1 14.6 80.8 14.8 C 80.5 15 80.4 15.3 80.4 15.7 C 80.4 16 80.5 16.3 80.8 16.4 C 81 16.6 81.5 16.7 82.2 16.7 C 82.2 16.7 85.2 16.6 85.2 16.6 C 86.7 16.6 87.8 16.9 88.5 17.4 C 89.2 17.9 89.5 18.6 89.5 19.5 C 89.5 20.5 89.1 21.3 88.3 22 C 87.3 22.9 85.7 23.4 83.6 23.4 C 81.8 23.4 80.5 23.1 79.7 22.4 C 79 21.9 78.7 21.3 78.7 20.7 C 78.7 20.2 78.9 19.8 79.3 19.4 C 79.7 19 80.5 18.7 81.5 18.5 C 80.7 18.3 80.1 18 79.7 17.6 C 79.2 17.3 79 16.8 79 16.2 C 79 15.7 79.2 15.3 79.5 14.9 C 79.9 14.5 80.4 14.2 81.3 13.9 C 80.6 13.5 80 13 79.7 12.5 C 79.3 12 79.2 11.3 79.2 10.6 C 79.2 9.5 79.6 8.6 80.5 7.8 C 81.3 7.1 82.5 6.7 83.9 6.7 C 84.4 6.7 85 6.8 85.5 7 C 86 7.1 86.6 7.4 87.1 7.7 Z M 83.8 7.5 C 83.1 7.5 82.5 7.8 82 8.3 C 81.6 8.8 81.3 9.6 81.3 10.5 C 81.3 11.6 81.6 12.4 82 12.9 C 82.5 13.5 83.1 13.8 83.9 13.8 C 84.6 13.8 85.2 13.5 85.7 13 C 86.1 12.4 86.4 11.6 86.4 10.6 C 86.4 9.6 86.1 8.9 85.6 8.3 C 85.2 7.8 84.6 7.5 83.8 7.5 Z M 84.6 18.5 C 83.1 18.5 82 18.7 81.4 19.1 C 80.7 19.6 80.4 20.1 80.4 20.6 C 80.4 21.2 80.6 21.6 81.1 21.9 C 81.8 22.4 82.7 22.6 83.8 22.6 C 85.2 22.6 86.3 22.4 87 21.9 C 87.7 21.4 88.1 20.9 88.1 20.3 C 88.1 20 87.9 19.7 87.7 19.4 C 87.5 19.1 87.2 18.9 86.7 18.7 C 86.2 18.6 85.5 18.5 84.6 18.5 Z M 93.1 14.2 C 93.6 15.6 94.2 16.6 94.8 17.1 C 95.5 17.7 96.3 17.9 97.3 17.9 C 98.1 17.9 98.8 17.7 99.3 17.4 C 99.8 17 100 16.5 100 15.9 C 100 15.5 99.9 15.2 99.8 15 C 99.6 14.7 99.3 14.5 99 14.4 C 98.7 14.3 97.9 14.1 96.6 13.9 C 95.4 13.6 94.5 13.4 94 13.1 C 93.5 12.8 93.2 12.4 92.9 12 C 92.6 11.5 92.5 11 92.5 10.4 C 92.5 9.6 92.8 8.8 93.3 8.2 C 94 7.3 95.1 6.8 96.4 6.8 C 97.4 6.8 98.3 7.2 99.1 7.8 C 99.12 7.79 99.9 6.9 99.9 6.9 L 100.4 6.9 L 100.7 11 C 100.7 11 99.93 11.01 99.9 11 C 99.6 9.9 99.1 9 98.5 8.5 C 97.9 8 97.1 7.8 96.2 7.8 C 95.4 7.8 94.8 7.9 94.4 8.3 C 93.9 8.7 93.7 9.2 93.7 9.7 C 93.7 10.2 93.9 10.6 94.3 10.9 C 94.7 11.2 95.5 11.5 96.7 11.7 C 98 11.9 98.9 12.1 99.3 12.2 C 100 12.5 100.5 12.9 100.9 13.4 C 101.2 13.9 101.4 14.5 101.4 15.2 C 101.4 16.2 101 17.1 100.2 17.8 C 99.4 18.5 98.4 18.8 97.2 18.8 C 96.1 18.8 95 18.5 94.1 17.7 C 94.06 17.72 93.2 18.8 93.2 18.8 L 92.5 18.8 L 92.3 14.2 C 92.3 14.2 93.09 14.2 93.1 14.2 Z M 107.2 6.9 C 107.2 6.9 107.21 14.44 107.2 14.4 C 107.2 15.4 107.4 16.1 107.9 16.6 C 108.4 17.1 109 17.3 109.7 17.3 C 110.6 17.3 111.4 17 112 16.2 C 112.7 15.5 113 14.6 113 13.5 C 113 13.5 113 9.2 113 9.2 C 113 8.8 112.9 8.5 112.6 8.3 C 112.3 8.1 111.8 7.9 111 7.9 C 110.95 7.92 111 7.1 111 7.1 L 115 6.9 C 115 6.9 114.97 16.25 115 16.2 C 115 16.7 115.1 17 115.3 17.2 C 115.6 17.5 115.9 17.6 116.4 17.6 C 116.36 17.59 117.1 17.6 117.1 17.6 L 117.1 18.4 L 113.2 18.5 C 113.2 18.5 112.99 16.25 113 16.2 C 112.3 17.1 111.6 17.7 110.9 18.1 C 110.2 18.5 109.5 18.7 108.8 18.7 C 107.8 18.7 106.9 18.3 106.2 17.6 C 105.5 17 105.2 15.8 105.2 14.2 C 105.2 14.2 105.2 9.2 105.2 9.2 C 105.2 8.8 105 8.4 104.7 8.2 C 104.4 8 103.9 7.9 103.2 7.9 C 103.15 7.92 103.2 7.1 103.2 7.1 L 107.2 6.9 Z M 118.4 7.1 L 122.5 6.9 C 122.5 6.9 122.49 11.49 122.5 11.5 C 122.9 10 123.5 8.8 124.1 8 C 124.7 7.3 125.5 6.9 126.4 6.9 C 127 6.9 127.5 7 127.9 7.4 C 128.2 7.8 128.4 8.3 128.4 8.9 C 128.4 9.5 128.3 9.9 128 10.1 C 127.8 10.4 127.5 10.6 127.1 10.6 C 126.7 10.6 126.4 10.4 126.2 10.2 C 126 10 125.9 9.6 125.9 9.2 C 125.9 8.9 125.9 8.7 126.1 8.5 C 126.2 8.2 126.3 8.1 126.3 8.1 C 126.3 8 126.2 7.9 126 7.9 C 125.7 7.9 125.3 8.1 124.9 8.5 C 124.3 9 123.9 9.8 123.5 10.7 C 123.1 12.2 122.8 13.4 122.8 14.3 C 122.8 14.3 122.8 16.7 122.8 16.7 C 122.8 17 122.9 17.2 123.1 17.4 C 123.3 17.5 123.6 17.6 124.1 17.6 C 124.1 17.59 125.6 17.6 125.6 17.6 L 125.6 18.5 L 118.4 18.5 L 118.4 17.6 C 118.4 17.6 119.58 17.59 119.6 17.6 C 120 17.6 120.3 17.5 120.5 17.4 C 120.6 17.2 120.7 17 120.7 16.8 C 120.7 16.8 120.7 9.5 120.7 9.5 C 120.7 9 120.6 8.6 120.4 8.3 C 120.2 8.1 119.8 7.9 119.4 7.9 C 119.38 7.93 118.4 7.9 118.4 7.9 L 118.4 7.1 Z M 132.6 0.2 C 133 0.2 133.3 0.4 133.6 0.7 C 133.8 0.9 134 1.3 134 1.6 C 134 2 133.9 2.3 133.6 2.6 C 133.3 2.9 133 3 132.6 3 C 132.2 3 131.9 2.9 131.7 2.6 C 131.4 2.3 131.2 2 131.2 1.6 C 131.2 1.3 131.4 0.9 131.7 0.7 C 131.9 0.4 132.3 0.2 132.6 0.2 Z M 129.4 7.1 L 134 6.9 C 134 6.9 133.99 16.77 134 16.8 C 134 17 134.1 17.2 134.2 17.3 C 134.4 17.5 134.6 17.6 134.9 17.6 C 134.89 17.59 136.2 17.6 136.2 17.6 L 136.2 18.5 L 129.7 18.5 L 129.7 17.6 C 129.7 17.6 130.89 17.59 130.9 17.6 C 131.2 17.6 131.5 17.5 131.7 17.3 C 131.8 17.2 131.9 16.9 131.9 16.6 C 131.9 16.6 131.9 9.4 131.9 9.4 C 131.9 8.9 131.8 8.6 131.5 8.3 C 131.3 8.1 130.9 8 130.4 8 C 130.38 7.98 129.4 8 129.4 8 L 129.4 7.1 Z M 145.9 14.2 C 146.4 15.6 146.9 16.6 147.6 17.1 C 148.2 17.7 149.1 17.9 150 17.9 C 150.9 17.9 151.6 17.7 152.1 17.4 C 152.5 17 152.8 16.5 152.8 15.9 C 152.8 15.5 152.7 15.2 152.5 15 C 152.3 14.7 152.1 14.5 151.8 14.4 C 151.5 14.3 150.7 14.1 149.4 13.9 C 148.1 13.6 147.3 13.4 146.8 13.1 C 146.3 12.8 145.9 12.4 145.6 12 C 145.4 11.5 145.2 11 145.2 10.4 C 145.2 9.6 145.5 8.8 146.1 8.2 C 146.8 7.3 147.8 6.8 149.1 6.8 C 150.1 6.8 151 7.2 151.9 7.8 C 151.88 7.79 152.7 6.9 152.7 6.9 L 153.2 6.9 L 153.5 11 C 153.5 11 152.69 11.01 152.7 11 C 152.3 9.9 151.8 9 151.2 8.5 C 150.6 8 149.9 7.8 149 7.8 C 148.2 7.8 147.6 7.9 147.1 8.3 C 146.7 8.7 146.5 9.2 146.5 9.7 C 146.5 10.2 146.7 10.6 147.1 10.9 C 147.5 11.2 148.3 11.5 149.4 11.7 C 150.8 11.9 151.7 12.1 152.1 12.2 C 152.8 12.5 153.3 12.9 153.6 13.4 C 154 13.9 154.2 14.5 154.2 15.2 C 154.2 16.2 153.8 17.1 153 17.8 C 152.2 18.5 151.2 18.8 150 18.8 C 148.8 18.8 147.8 18.5 146.8 17.7 C 146.82 17.72 145.9 18.8 145.9 18.8 L 145.3 18.8 L 145 14.2 C 145 14.2 145.85 14.2 145.9 14.2 Z M 167.1 17.6 C 167.4 17.6 167.8 17.5 168.1 17.2 C 168.1 17.2 168.6 17.9 168.6 17.9 C 168 18.5 167.3 18.8 166.6 18.8 C 166 18.8 165.6 18.7 165.2 18.4 C 164.8 18.1 164.5 17.6 164.2 16.8 C 163.4 17.6 162.7 18.2 162.2 18.4 C 161.6 18.7 160.9 18.8 160.1 18.8 C 158.9 18.8 158 18.6 157.4 18.1 C 156.8 17.6 156.5 16.9 156.5 16.1 C 156.5 15 157.2 14 158.6 13.2 C 160 12.4 161.8 11.9 164.1 11.6 C 164.1 11.6 164.1 9.9 164.1 9.9 C 164.1 9.3 163.9 8.7 163.4 8.3 C 162.9 7.9 162.3 7.6 161.5 7.6 C 160.8 7.6 160.2 7.8 159.7 8.1 C 159.3 8.3 159.1 8.5 159.1 8.7 C 159.1 8.9 159.2 9 159.4 9.3 C 159.6 9.6 159.8 9.9 159.8 10.2 C 159.8 10.5 159.6 10.8 159.4 11.1 C 159.2 11.3 158.9 11.4 158.5 11.4 C 158.1 11.4 157.7 11.3 157.5 11 C 157.2 10.7 157 10.4 157 9.9 C 157 9.1 157.5 8.4 158.4 7.7 C 159.3 7.1 160.5 6.7 162 6.7 C 163.3 6.7 164.4 7 165.1 7.6 C 165.8 8.2 166.2 8.9 166.2 9.8 C 166.2 9.8 166.2 16 166.2 16 C 166.2 16.6 166.3 17 166.4 17.2 C 166.6 17.5 166.8 17.6 167.1 17.6 C 167.1 17.6 167.1 17.6 167.1 17.6 Z M 164.1 12.4 C 162.1 12.7 160.6 13.2 159.7 13.8 C 159.1 14.3 158.8 15 158.8 15.9 C 158.8 16.5 158.9 17 159.3 17.4 C 159.6 17.7 160 17.9 160.6 17.9 C 161.5 17.9 162.4 17.5 163.1 16.8 C 163.8 16.1 164.1 15.2 164.1 14.1 C 164.1 14.1 164.1 12.4 164.1 12.4 Z M 181.2 0.2 C 181.2 0.2 181.22 16.82 181.2 16.8 C 181.2 17 181.3 17.2 181.4 17.3 C 181.6 17.5 181.9 17.6 182.2 17.6 C 182.17 17.59 183.4 17.6 183.4 17.6 L 183.4 18.5 L 176.9 18.5 L 176.9 17.6 C 176.9 17.6 178.04 17.59 178 17.6 C 178.4 17.6 178.7 17.5 178.9 17.3 C 179.1 17.1 179.2 16.9 179.2 16.6 C 179.2 16.6 179.2 2.6 179.2 2.6 C 179.2 2.2 179 1.9 178.8 1.8 C 178.5 1.5 178.2 1.4 177.7 1.4 C 177.71 1.37 176.7 1.4 176.7 1.4 L 176.7 0.5 L 181.2 0.2 Z M 188.7 6.9 C 188.7 6.9 188.69 14.44 188.7 14.4 C 188.7 15.4 188.9 16.1 189.4 16.6 C 189.9 17.1 190.5 17.3 191.2 17.3 C 192.1 17.3 192.9 17 193.5 16.2 C 194.2 15.5 194.5 14.6 194.5 13.5 C 194.5 13.5 194.5 9.2 194.5 9.2 C 194.5 8.8 194.3 8.5 194.1 8.3 C 193.8 8.1 193.2 7.9 192.4 7.9 C 192.44 7.92 192.4 7.1 192.4 7.1 L 196.5 6.9 C 196.5 6.9 196.45 16.25 196.5 16.2 C 196.5 16.7 196.6 17 196.8 17.2 C 197.1 17.5 197.4 17.6 197.8 17.6 C 197.84 17.59 198.6 17.6 198.6 17.6 L 198.6 18.4 L 194.7 18.5 C 194.7 18.5 194.47 16.25 194.5 16.2 C 193.8 17.1 193.1 17.7 192.4 18.1 C 191.7 18.5 191 18.7 190.3 18.7 C 189.3 18.7 188.4 18.3 187.7 17.6 C 187 17 186.7 15.8 186.7 14.2 C 186.7 14.2 186.7 9.2 186.7 9.2 C 186.7 8.8 186.5 8.4 186.1 8.2 C 185.9 8 185.4 7.9 184.6 7.9 C 184.64 7.92 184.6 7.1 184.6 7.1 L 188.7 6.9 Z M 200.7 7.1 C 200.7 7.1 204.02 6.86 204 6.9 C 204.2 7.7 204.3 8.5 204.4 9.3 C 205 8.4 205.6 7.8 206.2 7.4 C 206.9 7 207.5 6.9 208.3 6.9 C 209.1 6.9 209.7 7.1 210.2 7.5 C 210.7 7.9 211.1 8.6 211.4 9.5 C 212 8.6 212.6 8 213.2 7.5 C 213.9 7.1 214.6 6.9 215.4 6.9 C 216.5 6.9 217.2 7.2 217.8 7.8 C 218.4 8.6 218.8 9.7 218.8 10.9 C 218.8 10.9 218.8 16.6 218.8 16.6 C 218.8 17 218.8 17.2 219 17.3 C 219.2 17.5 219.6 17.6 220 17.6 C 220.02 17.59 220.6 17.6 220.6 17.6 L 220.6 18.5 L 214.8 18.5 L 214.8 17.6 C 214.8 17.6 215.42 17.59 215.4 17.6 C 215.9 17.6 216.3 17.5 216.4 17.3 C 216.6 17.2 216.7 16.9 216.7 16.6 C 216.7 16.6 216.7 10.9 216.7 10.9 C 216.7 10.1 216.5 9.4 216.1 9 C 215.7 8.5 215.2 8.3 214.5 8.3 C 214 8.3 213.5 8.4 213.1 8.7 C 212.7 8.9 212.4 9.3 212.1 9.8 C 211.8 10.6 211.6 11.2 211.6 11.7 C 211.6 11.7 211.6 16.6 211.6 16.6 C 211.6 16.9 211.7 17.2 211.9 17.4 C 212 17.5 212.3 17.6 212.7 17.6 C 212.7 17.59 213.5 17.6 213.5 17.6 L 213.5 18.5 L 207.6 18.5 L 207.6 17.6 C 207.6 17.6 208.3 17.59 208.3 17.6 C 208.7 17.6 209 17.5 209.2 17.3 C 209.4 17.2 209.5 17 209.5 16.7 C 209.5 16.7 209.5 11.5 209.5 11.5 C 209.5 10.3 209.3 9.5 208.9 9 C 208.6 8.5 208 8.3 207.4 8.3 C 206.5 8.3 205.8 8.6 205.4 9.1 C 204.7 10 204.4 10.9 204.4 12 C 204.4 12 204.4 16.6 204.4 16.6 C 204.4 17 204.5 17.2 204.6 17.3 C 204.8 17.5 205.2 17.6 205.6 17.6 C 205.63 17.59 206.2 17.6 206.2 17.6 L 206.2 18.5 L 200.5 18.5 L 200.5 17.6 C 200.5 17.6 201.32 17.59 201.3 17.6 C 201.6 17.6 201.9 17.5 202.1 17.3 C 202.2 17.2 202.3 17 202.3 16.7 C 202.3 16.7 202.3 9.2 202.3 9.2 C 202.3 8.8 202.2 8.5 202 8.3 C 201.8 8.1 201.4 8 200.7 7.9 C 200.75 7.91 200.7 7.1 200.7 7.1 Z M 226.2 6.9 C 226.2 6.9 226.19 14.44 226.2 14.4 C 226.2 15.4 226.4 16.1 226.9 16.6 C 227.4 17.1 228 17.3 228.7 17.3 C 229.6 17.3 230.4 17 231 16.2 C 231.7 15.5 232 14.6 232 13.5 C 232 13.5 232 9.2 232 9.2 C 232 8.8 231.8 8.5 231.6 8.3 C 231.3 8.1 230.7 7.9 229.9 7.9 C 229.94 7.92 229.9 7.1 229.9 7.1 L 234 6.9 C 234 6.9 233.95 16.25 234 16.2 C 234 16.7 234.1 17 234.3 17.2 C 234.6 17.5 234.9 17.6 235.3 17.6 C 235.34 17.59 236.1 17.6 236.1 17.6 L 236.1 18.4 L 232.2 18.5 C 232.2 18.5 231.97 16.25 232 16.2 C 231.3 17.1 230.6 17.7 229.9 18.1 C 229.2 18.5 228.5 18.7 227.8 18.7 C 226.8 18.7 225.9 18.3 225.2 17.6 C 224.5 17 224.2 15.8 224.2 14.2 C 224.2 14.2 224.2 9.2 224.2 9.2 C 224.2 8.8 224 8.4 223.6 8.2 C 223.4 8 222.9 7.9 222.1 7.9 C 222.14 7.92 222.1 7.1 222.1 7.1 L 226.2 6.9 Z M 241.9 0.2 C 241.9 0.2 241.86 16.82 241.9 16.8 C 241.9 17 241.9 17.2 242.1 17.3 C 242.3 17.5 242.5 17.6 242.8 17.6 C 242.81 17.59 244 17.6 244 17.6 L 244 18.5 L 237.5 18.5 L 237.5 17.6 C 237.5 17.6 238.69 17.59 238.7 17.6 C 239.1 17.6 239.3 17.5 239.5 17.3 C 239.7 17.1 239.8 16.9 239.8 16.6 C 239.8 16.6 239.8 2.6 239.8 2.6 C 239.8 2.2 239.7 1.9 239.5 1.8 C 239.2 1.5 238.8 1.4 238.4 1.4 C 238.36 1.37 237.3 1.4 237.3 1.4 L 237.3 0.5 L 241.9 0.2 Z M 249.3 6.9 C 249.3 6.9 249.33 14.44 249.3 14.4 C 249.3 15.4 249.6 16.1 250 16.6 C 250.5 17.1 251.1 17.3 251.8 17.3 C 252.8 17.3 253.5 17 254.2 16.2 C 254.8 15.5 255.1 14.6 255.1 13.5 C 255.1 13.5 255.1 9.2 255.1 9.2 C 255.1 8.8 255 8.5 254.7 8.3 C 254.4 8.1 253.9 7.9 253.1 7.9 C 253.08 7.92 253.1 7.1 253.1 7.1 L 257.1 6.9 C 257.1 6.9 257.1 16.25 257.1 16.2 C 257.1 16.7 257.2 17 257.5 17.2 C 257.7 17.5 258 17.6 258.5 17.6 C 258.49 17.59 259.2 17.6 259.2 17.6 L 259.2 18.4 L 255.4 18.5 C 255.4 18.5 255.12 16.25 255.1 16.2 C 254.4 17.1 253.7 17.7 253.1 18.1 C 252.4 18.5 251.7 18.7 251 18.7 C 249.9 18.7 249.1 18.3 248.4 17.6 C 247.7 17 247.3 15.8 247.3 14.2 C 247.3 14.2 247.3 9.2 247.3 9.2 C 247.3 8.8 247.1 8.4 246.8 8.2 C 246.5 8 246 7.9 245.3 7.9 C 245.28 7.92 245.3 7.1 245.3 7.1 L 249.3 6.9 Z M 264.2 0.2 C 264.2 0.2 264.23 8.75 264.2 8.8 C 264.7 8.1 265.2 7.6 265.8 7.2 C 266.4 6.9 267 6.7 267.7 6.7 C 269.1 6.7 270.2 7.3 271.1 8.3 C 272.1 9.4 272.5 10.7 272.5 12.5 C 272.5 14.3 272 15.8 271 17 C 270 18.1 268.8 18.7 267.3 18.7 C 266.6 18.7 266 18.5 265.4 18.3 C 264.9 18 264.3 17.5 263.7 16.9 C 263.2 17.6 262.8 18.2 262.3 18.7 C 262.3 18.7 261.8 18.5 261.8 18.5 C 262.1 17.6 262.2 16.6 262.2 15.6 C 262.2 15.6 262.2 2.6 262.2 2.6 C 262.2 2.3 262 1.9 261.8 1.7 C 261.5 1.5 261.1 1.4 260.6 1.4 C 260.58 1.37 260.1 1.4 260.1 1.4 L 260.1 0.5 L 264.2 0.2 Z M 267.3 7.8 C 266.4 7.8 265.6 8.2 265.1 9 C 264.5 9.8 264.2 11.1 264.2 13 C 264.2 14.7 264.5 16 265 16.7 C 265.6 17.5 266.4 17.9 267.3 17.9 C 268.1 17.9 268.8 17.5 269.3 16.8 C 269.9 15.8 270.2 14.5 270.2 12.7 C 270.2 11 270 9.8 269.4 9 C 268.8 8.2 268.1 7.8 267.3 7.8 Z M 274.3 0.5 L 278.6 0.2 C 278.6 0.2 278.63 9.06 278.6 9.1 C 279.2 8.3 279.9 7.7 280.6 7.3 C 281.3 6.9 282 6.7 282.8 6.7 C 283.5 6.7 284.2 6.9 284.7 7.3 C 285.2 7.5 285.6 8 285.9 8.7 C 286.2 9.4 286.4 10.2 286.4 11.2 C 286.4 11.2 286.4 16.6 286.4 16.6 C 286.4 16.9 286.5 17.2 286.7 17.4 C 286.8 17.5 287.1 17.6 287.5 17.6 C 287.5 17.59 288.5 17.6 288.5 17.6 L 288.5 18.5 L 282.3 18.5 L 282.3 17.6 C 282.3 17.6 282.99 17.59 283 17.6 C 283.5 17.6 283.9 17.5 284.1 17.3 C 284.3 17.2 284.4 16.9 284.4 16.6 C 284.4 16.6 284.4 11.2 284.4 11.2 C 284.4 10.2 284.1 9.5 283.7 8.9 C 283.2 8.4 282.6 8.1 281.9 8.1 C 281.4 8.1 280.8 8.3 280.4 8.6 C 279.9 8.9 279.5 9.3 279.1 10 C 278.8 10.6 278.6 11.2 278.6 11.9 C 278.6 11.9 278.6 16.5 278.6 16.5 C 278.6 16.9 278.7 17.2 278.9 17.3 C 279.1 17.5 279.3 17.6 279.7 17.6 C 279.73 17.59 280.7 17.6 280.7 17.6 L 280.7 18.5 L 274.7 18.5 L 274.7 17.6 C 274.7 17.6 275.35 17.59 275.3 17.6 C 275.8 17.6 276.1 17.5 276.3 17.3 C 276.5 17.1 276.6 16.8 276.6 16.5 C 276.6 16.5 276.6 2.8 276.6 2.8 C 276.6 2.3 276.5 2 276.2 1.7 C 276 1.5 275.6 1.4 275.1 1.4 C 275.13 1.37 274.3 1.4 274.3 1.4 L 274.3 0.5 Z M 300.9 17.6 C 301.3 17.6 301.6 17.5 301.9 17.2 C 301.9 17.2 302.4 17.9 302.4 17.9 C 301.8 18.5 301.1 18.8 300.4 18.8 C 299.9 18.8 299.4 18.7 299 18.4 C 298.6 18.1 298.3 17.6 298 16.8 C 297.2 17.6 296.6 18.2 296 18.4 C 295.4 18.7 294.7 18.8 293.9 18.8 C 292.7 18.8 291.8 18.6 291.2 18.1 C 290.6 17.6 290.3 16.9 290.3 16.1 C 290.3 15 291 14 292.4 13.2 C 293.8 12.4 295.6 11.9 297.9 11.6 C 297.9 11.6 297.9 9.9 297.9 9.9 C 297.9 9.3 297.7 8.7 297.2 8.3 C 296.7 7.9 296.1 7.6 295.3 7.6 C 294.6 7.6 294 7.8 293.5 8.1 C 293.1 8.3 292.9 8.5 292.9 8.7 C 292.9 8.9 293 9 293.2 9.3 C 293.5 9.6 293.6 9.9 293.6 10.2 C 293.6 10.5 293.5 10.8 293.2 11.1 C 293 11.3 292.7 11.4 292.3 11.4 C 291.9 11.4 291.5 11.3 291.3 11 C 291 10.7 290.9 10.4 290.9 9.9 C 290.9 9.1 291.3 8.4 292.2 7.7 C 293.1 7.1 294.3 6.7 295.8 6.7 C 297.2 6.7 298.2 7 298.9 7.6 C 299.6 8.2 300 8.9 300 9.8 C 300 9.8 300 16 300 16 C 300 16.6 300.1 17 300.2 17.2 C 300.4 17.5 300.7 17.6 300.9 17.6 C 300.9 17.6 300.9 17.6 300.9 17.6 Z M 297.9 12.4 C 295.9 12.7 294.4 13.2 293.5 13.8 C 292.9 14.3 292.6 15 292.6 15.9 C 292.6 16.5 292.7 17 293.1 17.4 C 293.4 17.7 293.9 17.9 294.4 17.9 C 295.3 17.9 296.2 17.5 296.9 16.8 C 297.6 16.1 297.9 15.2 297.9 14.1 C 297.9 14.1 297.9 12.4 297.9 12.4 Z M 303.8 7.1 C 303.8 7.1 307.56 6.84 307.6 6.8 C 307.7 7.6 307.8 8.4 307.9 9.4 C 308.4 8.5 309 7.9 309.7 7.5 C 310.4 7.1 311.2 6.9 312.1 6.9 C 312.8 6.9 313.5 7 314 7.3 C 314.5 7.6 314.9 8.1 315.2 8.7 C 315.5 9.4 315.7 10.1 315.7 10.9 C 315.7 10.9 315.7 16.4 315.7 16.4 C 315.7 16.9 315.8 17.2 316 17.3 C 316.1 17.5 316.5 17.6 316.9 17.6 C 316.9 17.59 317.7 17.6 317.7 17.6 L 317.7 18.5 L 311.7 18.5 L 311.7 17.6 C 311.7 17.6 312.25 17.59 312.2 17.6 C 312.8 17.6 313.2 17.5 313.4 17.3 C 313.6 17.2 313.7 16.9 313.7 16.6 C 313.7 16.6 313.7 11.7 313.7 11.7 C 313.7 10.6 313.5 9.8 313.2 9.3 C 312.7 8.6 312.1 8.2 311.1 8.2 C 310.2 8.2 309.4 8.6 308.8 9.3 C 308.2 10.1 307.9 11 307.9 12.2 C 307.9 12.2 307.9 16.4 307.9 16.4 C 307.9 16.9 308 17.2 308.2 17.3 C 308.4 17.5 308.7 17.6 309.1 17.6 C 309.13 17.59 309.9 17.6 309.9 17.6 L 309.9 18.5 L 303.9 18.5 L 303.9 17.6 C 303.9 17.6 304.67 17.59 304.7 17.6 C 305.1 17.6 305.4 17.5 305.6 17.3 C 305.8 17.2 305.9 17 305.9 16.7 C 305.9 16.7 305.9 9.4 305.9 9.4 C 305.9 8.9 305.8 8.5 305.5 8.2 C 305.2 8 304.8 7.9 304.3 7.9 C 304.35 7.86 303.8 7.9 303.8 7.9 L 303.8 7.1 Z M 327.8 7.7 C 328.6 6.9 329.4 6.5 330 6.5 C 330.5 6.5 330.8 6.6 331.1 6.9 C 331.3 7.1 331.5 7.5 331.5 7.8 C 331.5 8.1 331.4 8.4 331.2 8.6 C 331 8.8 330.8 8.9 330.5 8.9 C 330.1 8.9 329.8 8.6 329.6 8 C 329.5 7.8 329.4 7.7 329.3 7.7 C 329 7.7 328.7 7.8 328.4 8.2 C 328.7 8.7 329 9.1 329.1 9.5 C 329.2 9.8 329.3 10.2 329.3 10.6 C 329.3 11.3 329.1 11.9 328.8 12.5 C 328.4 13 327.9 13.5 327.1 13.9 C 326.3 14.3 325.5 14.5 324.8 14.5 C 324.8 14.5 323.5 14.5 323.5 14.5 C 322.5 14.5 321.9 14.6 321.6 14.8 C 321.3 15 321.1 15.3 321.1 15.7 C 321.1 16 321.2 16.3 321.5 16.4 C 321.8 16.6 322.2 16.7 322.9 16.7 C 322.9 16.7 325.9 16.6 325.9 16.6 C 327.5 16.6 328.6 16.9 329.2 17.4 C 329.9 17.9 330.2 18.6 330.2 19.5 C 330.2 20.5 329.9 21.3 329.1 22 C 328 22.9 326.4 23.4 324.3 23.4 C 322.6 23.4 321.3 23.1 320.4 22.4 C 319.8 21.9 319.4 21.3 319.4 20.7 C 319.4 20.2 319.6 19.8 320.1 19.4 C 320.5 19 321.2 18.7 322.2 18.5 C 321.4 18.3 320.8 18 320.4 17.6 C 320 17.3 319.8 16.8 319.8 16.2 C 319.8 15.7 320 15.3 320.3 14.9 C 320.6 14.5 321.2 14.2 322 13.9 C 321.3 13.5 320.8 13 320.4 12.5 C 320.1 12 319.9 11.3 319.9 10.6 C 319.9 9.5 320.3 8.6 321.2 7.8 C 322.1 7.1 323.2 6.7 324.6 6.7 C 325.2 6.7 325.7 6.8 326.3 7 C 326.8 7.1 327.3 7.4 327.8 7.7 Z M 324.6 7.5 C 323.9 7.5 323.3 7.8 322.8 8.3 C 322.3 8.8 322.1 9.6 322.1 10.5 C 322.1 11.6 322.3 12.4 322.8 12.9 C 323.3 13.5 323.9 13.8 324.6 13.8 C 325.3 13.8 325.9 13.5 326.4 13 C 326.9 12.4 327.1 11.6 327.1 10.6 C 327.1 9.6 326.9 8.9 326.4 8.3 C 325.9 7.8 325.3 7.5 324.6 7.5 Z M 325.3 18.5 C 323.8 18.5 322.7 18.7 322.1 19.1 C 321.5 19.6 321.1 20.1 321.1 20.6 C 321.1 21.2 321.4 21.6 321.9 21.9 C 322.5 22.4 323.4 22.6 324.6 22.6 C 326 22.6 327 22.4 327.7 21.9 C 328.4 21.4 328.8 20.9 328.8 20.3 C 328.8 20 328.7 19.7 328.5 19.4 C 328.3 19.1 327.9 18.9 327.4 18.7 C 326.9 18.6 326.2 18.5 325.3 18.5 Z M 339.2 0.5 L 343.6 0.2 L 343.6 12.7 C 343.6 12.7 347.3 9.49 347.3 9.5 C 347.7 9.2 347.8 8.9 347.8 8.7 C 347.8 8.5 347.7 8.3 347.5 8.2 C 347.2 8 346.7 7.9 346 7.9 C 345.98 7.92 346 7.1 346 7.1 L 352.1 7.1 C 352.1 7.1 352.07 7.92 352.1 7.9 C 350.9 8 349.9 8.3 349.3 8.9 C 349.31 8.87 346.7 11.2 346.7 11.2 C 346.7 11.2 350.94 17.07 350.9 17.1 C 351.2 17.4 351.7 17.6 352.3 17.6 C 352.3 17.59 352.9 17.6 352.9 17.6 L 352.9 18.5 L 346.7 18.5 L 346.7 17.6 C 346.7 17.6 347.31 17.59 347.3 17.6 C 347.8 17.6 348.1 17.5 348.2 17.5 C 348.4 17.4 348.5 17.3 348.5 17.2 C 348.5 17.1 348.4 16.9 348.4 16.8 C 348.36 16.83 345.2 12.5 345.2 12.5 L 343.6 13.9 C 343.6 13.9 343.58 16.83 343.6 16.8 C 343.6 17.1 343.7 17.2 343.8 17.4 C 344 17.5 344.3 17.6 344.7 17.6 C 344.73 17.59 345.5 17.6 345.5 17.6 L 345.5 18.5 L 339.4 18.5 L 339.4 17.6 C 339.4 17.6 340.37 17.59 340.4 17.6 C 340.8 17.6 341.1 17.5 341.3 17.3 C 341.5 17.2 341.6 16.9 341.6 16.7 C 341.6 16.7 341.6 2.5 341.6 2.5 C 341.6 2.2 341.5 1.9 341.2 1.7 C 340.9 1.5 340.4 1.4 339.8 1.4 C 339.84 1.37 339.2 1.4 339.2 1.4 L 339.2 0.5 Z M 354 7.1 L 358.2 6.9 C 358.2 6.9 358.16 11.49 358.2 11.5 C 358.6 10 359.1 8.8 359.7 8 C 360.4 7.3 361.1 6.9 362 6.9 C 362.7 6.9 363.2 7 363.5 7.4 C 363.9 7.8 364.1 8.3 364.1 8.9 C 364.1 9.5 364 9.9 363.7 10.1 C 363.5 10.4 363.1 10.6 362.8 10.6 C 362.4 10.6 362.1 10.4 361.9 10.2 C 361.7 10 361.6 9.6 361.6 9.2 C 361.6 8.9 361.6 8.7 361.7 8.5 C 361.9 8.2 361.9 8.1 361.9 8.1 C 361.9 8 361.9 7.9 361.7 7.9 C 361.4 7.9 361 8.1 360.6 8.5 C 360 9 359.5 9.8 359.2 10.7 C 358.7 12.2 358.5 13.4 358.5 14.3 C 358.5 14.3 358.5 16.7 358.5 16.7 C 358.5 17 358.6 17.2 358.8 17.4 C 359 17.5 359.3 17.6 359.8 17.6 C 359.77 17.59 361.2 17.6 361.2 17.6 L 361.2 18.5 L 354.1 18.5 L 354.1 17.6 C 354.1 17.6 355.25 17.59 355.3 17.6 C 355.6 17.6 355.9 17.5 356.1 17.4 C 356.3 17.2 356.4 17 356.4 16.8 C 356.4 16.8 356.4 9.5 356.4 9.5 C 356.4 9 356.3 8.6 356.1 8.3 C 355.8 8.1 355.5 7.9 355 7.9 C 355.05 7.93 354 7.9 354 7.9 L 354 7.1 Z M 368.3 0.2 C 368.6 0.2 369 0.4 369.2 0.7 C 369.5 0.9 369.7 1.3 369.7 1.6 C 369.7 2 369.5 2.3 369.3 2.6 C 369 2.9 368.7 3 368.3 3 C 367.9 3 367.6 2.9 367.3 2.6 C 367 2.3 366.9 2 366.9 1.6 C 366.9 1.3 367 0.9 367.3 0.7 C 367.6 0.4 367.9 0.2 368.3 0.2 Z M 365.1 7.1 L 369.7 6.9 C 369.7 6.9 369.66 16.77 369.7 16.8 C 369.7 17 369.7 17.2 369.9 17.3 C 370 17.5 370.3 17.6 370.6 17.6 C 370.56 17.59 371.9 17.6 371.9 17.6 L 371.9 18.5 L 365.3 18.5 L 365.3 17.6 C 365.3 17.6 366.56 17.59 366.6 17.6 C 366.9 17.6 367.2 17.5 367.3 17.3 C 367.5 17.2 367.6 16.9 367.6 16.6 C 367.6 16.6 367.6 9.4 367.6 9.4 C 367.6 8.9 367.5 8.6 367.2 8.3 C 366.9 8.1 366.6 8 366 8 C 366.04 7.98 365.1 8 365.1 8 L 365.1 7.1 Z M 374.6 14.2 C 375.1 15.6 375.7 16.6 376.3 17.1 C 377 17.7 377.8 17.9 378.7 17.9 C 379.6 17.9 380.3 17.7 380.8 17.4 C 381.3 17 381.5 16.5 381.5 15.9 C 381.5 15.5 381.4 15.2 381.2 15 C 381.1 14.7 380.8 14.5 380.5 14.4 C 380.2 14.3 379.4 14.1 378.1 13.9 C 376.9 13.6 376 13.4 375.5 13.1 C 375 12.8 374.6 12.4 374.4 12 C 374.1 11.5 374 11 374 10.4 C 374 9.6 374.2 8.8 374.8 8.2 C 375.5 7.3 376.5 6.8 377.8 6.8 C 378.8 6.8 379.8 7.2 380.6 7.8 C 380.6 7.79 381.4 6.9 381.4 6.9 L 381.9 6.9 L 382.2 11 C 382.2 11 381.41 11.01 381.4 11 C 381.1 9.9 380.6 9 380 8.5 C 379.3 8 378.6 7.8 377.7 7.8 C 376.9 7.8 376.3 7.9 375.9 8.3 C 375.4 8.7 375.2 9.2 375.2 9.7 C 375.2 10.2 375.4 10.6 375.8 10.9 C 376.2 11.2 377 11.5 378.2 11.7 C 379.5 11.9 380.4 12.1 380.8 12.2 C 381.5 12.5 382 12.9 382.4 13.4 C 382.7 13.9 382.9 14.5 382.9 15.2 C 382.9 16.2 382.5 17.1 381.7 17.8 C 380.9 18.5 379.9 18.8 378.7 18.8 C 377.6 18.8 376.5 18.5 375.5 17.7 C 375.54 17.72 374.7 18.8 374.7 18.8 L 374 18.8 L 373.8 14.2 C 373.8 14.2 374.58 14.2 374.6 14.2 Z M 387.7 0.2 C 388.1 0.2 388.4 0.4 388.7 0.7 C 389 0.9 389.1 1.3 389.1 1.6 C 389.1 2 389 2.3 388.7 2.6 C 388.4 2.9 388.1 3 387.7 3 C 387.4 3 387 2.9 386.8 2.6 C 386.5 2.3 386.4 2 386.4 1.6 C 386.4 1.3 386.5 0.9 386.8 0.7 C 387 0.4 387.4 0.2 387.7 0.2 Z M 384.5 7.1 L 389.1 6.9 C 389.1 6.9 389.1 16.77 389.1 16.8 C 389.1 17 389.2 17.2 389.3 17.3 C 389.5 17.5 389.7 17.6 390 17.6 C 390.01 17.59 391.3 17.6 391.3 17.6 L 391.3 18.5 L 384.8 18.5 L 384.8 17.6 C 384.8 17.6 386 17.59 386 17.6 C 386.4 17.6 386.6 17.5 386.8 17.3 C 387 17.2 387 16.9 387 16.6 C 387 16.6 387 9.4 387 9.4 C 387 8.9 386.9 8.6 386.6 8.3 C 386.4 8.1 386 8 385.5 8 C 385.49 7.98 384.5 8 384.5 8 L 384.5 7.1 Z M 394 14.2 C 394.5 15.6 395.1 16.6 395.8 17.1 C 396.4 17.7 397.2 17.9 398.2 17.9 C 399.1 17.9 399.8 17.7 400.2 17.4 C 400.7 17 400.9 16.5 400.9 15.9 C 400.9 15.5 400.9 15.2 400.7 15 C 400.5 14.7 400.3 14.5 400 14.4 C 399.6 14.3 398.8 14.1 397.5 13.9 C 396.3 13.6 395.4 13.4 395 13.1 C 394.5 12.8 394.1 12.4 393.8 12 C 393.5 11.5 393.4 11 393.4 10.4 C 393.4 9.6 393.7 8.8 394.2 8.2 C 395 7.3 396 6.8 397.3 6.8 C 398.3 6.8 399.2 7.2 400.1 7.8 C 400.05 7.79 400.9 6.9 400.9 6.9 L 401.4 6.9 L 401.7 11 C 401.7 11 400.86 11.01 400.9 11 C 400.5 9.9 400 9 399.4 8.5 C 398.8 8 398 7.8 397.1 7.8 C 396.4 7.8 395.8 7.9 395.3 8.3 C 394.9 8.7 394.7 9.2 394.7 9.7 C 394.7 10.2 394.9 10.6 395.3 10.9 C 395.7 11.2 396.5 11.5 397.6 11.7 C 399 11.9 399.9 12.1 400.3 12.2 C 400.9 12.5 401.4 12.9 401.8 13.4 C 402.2 13.9 402.4 14.5 402.4 15.2 C 402.4 16.2 402 17.1 401.2 17.8 C 400.4 18.5 399.4 18.8 398.1 18.8 C 397 18.8 396 18.5 395 17.7 C 394.99 17.72 394.1 18.8 394.1 18.8 L 393.4 18.8 L 393.2 14.2 C 393.2 14.2 394.02 14.2 394 14.2 Z M 414.8 6.9 C 415 7.7 415.1 8.5 415.1 9.3 C 415.7 8.4 416.3 7.8 416.9 7.4 C 417.5 7 418.2 6.9 418.9 6.9 C 419.7 6.9 420.4 7.1 421.1 7.6 C 421.8 8.1 422.4 8.8 422.9 9.7 C 423.3 10.6 423.5 11.7 423.5 12.8 C 423.5 14.7 423 16.2 421.9 17.4 C 421 18.4 419.9 18.8 418.7 18.8 C 417.9 18.8 417.3 18.7 416.7 18.3 C 416.1 17.9 415.6 17.4 415.2 16.7 C 415.2 16.7 415.2 21.3 415.2 21.3 C 415.2 21.6 415.3 21.9 415.4 22 C 415.7 22.2 416 22.3 416.4 22.3 C 416.36 22.34 417.2 22.3 417.2 22.3 L 417.2 23.2 L 411.1 23.2 L 411.1 22.3 C 411.1 22.3 411.93 22.34 411.9 22.3 C 412.3 22.3 412.6 22.3 412.8 22.1 C 413 22 413.1 21.7 413.1 21.5 C 413.1 21.5 413.1 9.5 413.1 9.5 C 413.1 8.9 413 8.5 412.7 8.3 C 412.4 8 411.9 7.9 411.1 7.9 C 411.09 7.89 411.1 7.1 411.1 7.1 C 411.1 7.1 414.79 6.86 414.8 6.9 Z M 418.3 8 C 417.4 8 416.7 8.4 416.1 9.3 C 415.5 10.1 415.2 11.3 415.2 13 C 415.2 14.6 415.5 15.8 416.1 16.6 C 416.6 17.4 417.4 17.8 418.3 17.8 C 419.2 17.8 419.8 17.4 420.3 16.8 C 420.9 15.9 421.2 14.6 421.2 12.9 C 421.2 11.1 420.9 9.9 420.4 9.1 C 419.9 8.3 419.2 8 418.3 8 Z M 436.6 17.6 C 436.9 17.6 437.3 17.5 437.6 17.2 C 437.6 17.2 438 17.9 438 17.9 C 437.4 18.5 436.8 18.8 436.1 18.8 C 435.5 18.8 435 18.7 434.7 18.4 C 434.3 18.1 434 17.6 433.7 16.8 C 432.9 17.6 432.2 18.2 431.6 18.4 C 431 18.7 430.3 18.8 429.5 18.8 C 428.3 18.8 427.5 18.6 426.8 18.1 C 426.2 17.6 425.9 16.9 425.9 16.1 C 425.9 15 426.6 14 428 13.2 C 429.4 12.4 431.3 11.9 433.6 11.6 C 433.6 11.6 433.6 9.9 433.6 9.9 C 433.6 9.3 433.3 8.7 432.9 8.3 C 432.4 7.9 431.7 7.6 431 7.6 C 430.3 7.6 429.6 7.8 429.1 8.1 C 428.8 8.3 428.6 8.5 428.6 8.7 C 428.6 8.9 428.7 9 428.9 9.3 C 429.1 9.6 429.2 9.9 429.2 10.2 C 429.2 10.5 429.1 10.8 428.9 11.1 C 428.6 11.3 428.3 11.4 427.9 11.4 C 427.5 11.4 427.2 11.3 426.9 11 C 426.7 10.7 426.5 10.4 426.5 9.9 C 426.5 9.1 427 8.4 427.9 7.7 C 428.8 7.1 430 6.7 431.4 6.7 C 432.8 6.7 433.8 7 434.6 7.6 C 435.3 8.2 435.6 8.9 435.6 9.8 C 435.6 9.8 435.6 16 435.6 16 C 435.6 16.6 435.7 17 435.9 17.2 C 436.1 17.5 436.3 17.6 436.6 17.6 C 436.6 17.6 436.6 17.6 436.6 17.6 Z M 433.6 12.4 C 431.5 12.7 430.1 13.2 429.2 13.8 C 428.6 14.3 428.2 15 428.2 15.9 C 428.2 16.5 428.4 17 428.7 17.4 C 429.1 17.7 429.5 17.9 430 17.9 C 431 17.9 431.8 17.5 432.5 16.8 C 433.2 16.1 433.6 15.2 433.6 14.1 C 433.6 14.1 433.6 12.4 433.6 12.4 Z M 439.4 7.1 C 439.4 7.1 443.22 6.84 443.2 6.8 C 443.4 7.6 443.5 8.4 443.6 9.4 C 444.1 8.5 444.7 7.9 445.4 7.5 C 446.1 7.1 446.9 6.9 447.7 6.9 C 448.5 6.9 449.1 7 449.6 7.3 C 450.2 7.6 450.6 8.1 450.9 8.7 C 451.2 9.4 451.3 10.1 451.3 10.9 C 451.3 10.9 451.3 16.4 451.3 16.4 C 451.3 16.9 451.4 17.2 451.6 17.3 C 451.8 17.5 452.1 17.6 452.6 17.6 C 452.56 17.59 453.4 17.6 453.4 17.6 L 453.4 18.5 L 447.3 18.5 L 447.3 17.6 C 447.3 17.6 447.9 17.59 447.9 17.6 C 448.4 17.6 448.8 17.5 449 17.3 C 449.2 17.2 449.3 16.9 449.3 16.6 C 449.3 16.6 449.3 11.7 449.3 11.7 C 449.3 10.6 449.2 9.8 448.9 9.3 C 448.4 8.6 447.7 8.2 446.8 8.2 C 445.9 8.2 445.1 8.6 444.5 9.3 C 443.9 10.1 443.6 11 443.6 12.2 C 443.6 12.2 443.6 16.4 443.6 16.4 C 443.6 16.9 443.7 17.2 443.8 17.3 C 444 17.5 444.4 17.6 444.8 17.6 C 444.79 17.59 445.6 17.6 445.6 17.6 L 445.6 18.5 L 439.5 18.5 L 439.5 17.6 C 439.5 17.6 440.32 17.59 440.3 17.6 C 440.7 17.6 441 17.5 441.2 17.3 C 441.4 17.2 441.5 17 441.5 16.7 C 441.5 16.7 441.5 9.4 441.5 9.4 C 441.5 8.9 441.4 8.5 441.1 8.2 C 440.9 8 440.5 7.9 440 7.9 C 440.01 7.86 439.4 7.9 439.4 7.9 L 439.4 7.1 Z M 463.5 7.7 C 464.3 6.9 465 6.5 465.7 6.5 C 466.1 6.5 466.4 6.6 466.7 6.9 C 467 7.1 467.1 7.5 467.1 7.8 C 467.1 8.1 467 8.4 466.8 8.6 C 466.7 8.8 466.4 8.9 466.2 8.9 C 465.7 8.9 465.4 8.6 465.3 8 C 465.2 7.8 465.1 7.7 464.9 7.7 C 464.7 7.7 464.4 7.8 464 8.2 C 464.4 8.7 464.6 9.1 464.8 9.5 C 464.9 9.8 464.9 10.2 464.9 10.6 C 464.9 11.3 464.8 11.9 464.4 12.5 C 464.1 13 463.5 13.5 462.7 13.9 C 461.9 14.3 461.2 14.5 460.5 14.5 C 460.5 14.5 459.1 14.5 459.1 14.5 C 458.2 14.5 457.6 14.6 457.2 14.8 C 456.9 15 456.8 15.3 456.8 15.7 C 456.8 16 456.9 16.3 457.2 16.4 C 457.4 16.6 457.9 16.7 458.6 16.7 C 458.6 16.7 461.6 16.6 461.6 16.6 C 463.1 16.6 464.2 16.9 464.9 17.4 C 465.6 17.9 465.9 18.6 465.9 19.5 C 465.9 20.5 465.5 21.3 464.8 22 C 463.7 22.9 462.1 23.4 460 23.4 C 458.2 23.4 456.9 23.1 456.1 22.4 C 455.4 21.9 455.1 21.3 455.1 20.7 C 455.1 20.2 455.3 19.8 455.7 19.4 C 456.2 19 456.9 18.7 457.9 18.5 C 457.1 18.3 456.5 18 456.1 17.6 C 455.7 17.3 455.4 16.8 455.4 16.2 C 455.4 15.7 455.6 15.3 455.9 14.9 C 456.3 14.5 456.8 14.2 457.7 13.9 C 457 13.5 456.4 13 456.1 12.5 C 455.7 12 455.6 11.3 455.6 10.6 C 455.6 9.5 456 8.6 456.9 7.8 C 457.7 7.1 458.9 6.7 460.3 6.7 C 460.8 6.7 461.4 6.8 461.9 7 C 462.4 7.1 463 7.4 463.5 7.7 Z M 460.2 7.5 C 459.5 7.5 458.9 7.8 458.5 8.3 C 458 8.8 457.7 9.6 457.7 10.5 C 457.7 11.6 458 12.4 458.5 12.9 C 458.9 13.5 459.5 13.8 460.3 13.8 C 461 13.8 461.6 13.5 462.1 13 C 462.5 12.4 462.8 11.6 462.8 10.6 C 462.8 9.6 462.5 8.9 462 8.3 C 461.6 7.8 461 7.5 460.2 7.5 Z M 461 18.5 C 459.5 18.5 458.4 18.7 457.8 19.1 C 457.1 19.6 456.8 20.1 456.8 20.6 C 456.8 21.2 457 21.6 457.5 21.9 C 458.2 22.4 459.1 22.6 460.2 22.6 C 461.6 22.6 462.7 22.4 463.4 21.9 C 464.1 21.4 464.5 20.9 464.5 20.3 C 464.5 20 464.3 19.7 464.1 19.4 C 463.9 19.1 463.6 18.9 463.1 18.7 C 462.6 18.6 461.9 18.5 461 18.5 Z M 469 8 L 473.9 8 L 473.9 9.8 L 469 9.8 L 469 8 Z M 486.7 10 C 487 10.8 487.2 11.7 487.2 12.9 C 487.2 12.9 479 12.9 479 12.9 C 479 14.6 479.3 15.8 480 16.6 C 480.7 17.4 481.6 17.8 482.6 17.8 C 484.2 17.8 485.5 16.9 486.5 15 C 486.5 15 487.3 15.4 487.3 15.4 C 486.1 17.7 484.4 18.8 482.1 18.8 C 480.6 18.8 479.3 18.3 478.3 17.2 C 477.2 16.1 476.7 14.7 476.7 12.9 C 476.7 11.1 477.2 9.6 478.2 8.4 C 479.3 7.3 480.5 6.7 482 6.7 C 483.1 6.7 484.1 7 484.9 7.6 C 485.7 8.2 486.3 9 486.7 10 C 486.7 10 486.7 10 486.7 10 Z M 479 12 C 479 12 483.9 12 483.9 12 C 484.2 12 484.5 11.9 484.6 11.7 C 484.8 11.5 484.9 11.2 484.9 10.7 C 484.9 9.8 484.6 9 484 8.4 C 483.5 7.8 482.8 7.5 482.1 7.5 C 481.2 7.5 480.5 7.8 479.9 8.6 C 479.3 9.4 479 10.5 479 12 Z M 495.4 0.5 L 499.9 0.2 C 499.9 0.2 499.89 15.89 499.9 15.9 C 499.9 16.5 500 16.9 500.2 17.2 C 500.5 17.5 500.8 17.6 501.3 17.6 C 501.29 17.59 502.1 17.6 502.1 17.6 L 502.1 18.5 L 498.2 18.5 C 498.2 18.5 497.88 16.17 497.9 16.2 C 497.4 17 496.9 17.6 496.3 18 C 495.6 18.5 494.9 18.7 494.2 18.7 C 492.9 18.7 491.7 18.1 490.8 17 C 489.9 16 489.5 14.5 489.5 12.7 C 489.5 10.8 490 9.2 491.2 8.1 C 492.1 7.2 493.2 6.7 494.4 6.7 C 495.1 6.7 495.8 6.9 496.4 7.3 C 496.9 7.6 497.4 8.2 497.9 8.9 C 497.9 8.9 497.9 2.5 497.9 2.5 C 497.9 2.1 497.7 1.9 497.5 1.7 C 497.2 1.5 496.8 1.4 496.2 1.4 C 496.24 1.37 495.4 1.4 495.4 1.4 L 495.4 0.5 Z M 496.9 8.9 C 496.3 8.1 495.6 7.7 494.7 7.7 C 493.8 7.7 493.1 8.1 492.6 8.8 C 492.1 9.6 491.8 10.8 491.8 12.5 C 491.8 14.4 492.1 15.7 492.6 16.4 C 493.2 17.2 493.9 17.6 494.7 17.6 C 495.6 17.6 496.3 17.1 497 16.3 C 497.6 15.4 497.9 14.2 497.9 12.6 C 497.9 11 497.6 9.8 496.9 8.9 C 496.9 8.9 496.9 8.9 496.9 8.9 Z M 507.2 6.9 C 507.2 6.9 507.22 14.44 507.2 14.4 C 507.2 15.4 507.5 16.1 507.9 16.6 C 508.4 17.1 509 17.3 509.7 17.3 C 510.6 17.3 511.4 17 512 16.2 C 512.7 15.5 513 14.6 513 13.5 C 513 13.5 513 9.2 513 9.2 C 513 8.8 512.9 8.5 512.6 8.3 C 512.3 8.1 511.8 7.9 511 7.9 C 510.97 7.92 511 7.1 511 7.1 L 515 6.9 C 515 6.9 514.98 16.25 515 16.2 C 515 16.7 515.1 17 515.3 17.2 C 515.6 17.5 515.9 17.6 516.4 17.6 C 516.37 17.59 517.1 17.6 517.1 17.6 L 517.1 18.4 L 513.2 18.5 C 513.2 18.5 513 16.25 513 16.2 C 512.3 17.1 511.6 17.7 510.9 18.1 C 510.3 18.5 509.6 18.7 508.8 18.7 C 507.8 18.7 507 18.3 506.3 17.6 C 505.5 17 505.2 15.8 505.2 14.2 C 505.2 14.2 505.2 9.2 505.2 9.2 C 505.2 8.8 505 8.4 504.7 8.2 C 504.4 8 503.9 7.9 503.2 7.9 C 503.17 7.92 503.2 7.1 503.2 7.1 L 507.2 6.9 Z M 518.4 0.5 L 522.7 0.2 L 522.7 12.7 C 522.7 12.7 526.46 9.49 526.5 9.5 C 526.8 9.2 527 8.9 527 8.7 C 527 8.5 526.9 8.3 526.7 8.2 C 526.4 8 525.9 7.9 525.1 7.9 C 525.14 7.92 525.1 7.1 525.1 7.1 L 531.2 7.1 C 531.2 7.1 531.23 7.92 531.2 7.9 C 530 8 529.1 8.3 528.5 8.9 C 528.47 8.87 525.8 11.2 525.8 11.2 C 525.8 11.2 530.11 17.07 530.1 17.1 C 530.4 17.4 530.8 17.6 531.5 17.6 C 531.46 17.59 532.1 17.6 532.1 17.6 L 532.1 18.5 L 525.8 18.5 L 525.8 17.6 C 525.8 17.6 526.47 17.59 526.5 17.6 C 526.9 17.6 527.2 17.5 527.4 17.5 C 527.6 17.4 527.6 17.3 527.6 17.2 C 527.6 17.1 527.6 16.9 527.5 16.8 C 527.52 16.83 524.4 12.5 524.4 12.5 L 522.7 13.9 C 522.7 13.9 522.75 16.83 522.7 16.8 C 522.7 17.1 522.8 17.2 523 17.4 C 523.2 17.5 523.5 17.6 523.9 17.6 C 523.89 17.59 524.7 17.6 524.7 17.6 L 524.7 18.5 L 518.5 18.5 L 518.5 17.6 C 518.5 17.6 519.54 17.59 519.5 17.6 C 519.9 17.6 520.2 17.5 520.4 17.3 C 520.6 17.2 520.7 16.9 520.7 16.7 C 520.7 16.7 520.7 2.5 520.7 2.5 C 520.7 2.2 520.6 1.9 520.4 1.7 C 520 1.5 519.6 1.4 519 1.4 C 519 1.37 518.4 1.4 518.4 1.4 L 518.4 0.5 Z M 544.5 17.6 C 544.8 17.6 545.1 17.5 545.5 17.2 C 545.5 17.2 545.9 17.9 545.9 17.9 C 545.3 18.5 544.7 18.8 543.9 18.8 C 543.4 18.8 542.9 18.7 542.5 18.4 C 542.2 18.1 541.8 17.6 541.5 16.8 C 540.8 17.6 540.1 18.2 539.5 18.4 C 538.9 18.7 538.2 18.8 537.4 18.8 C 536.2 18.8 535.3 18.6 534.7 18.1 C 534.1 17.6 533.8 16.9 533.8 16.1 C 533.8 15 534.5 14 535.9 13.2 C 537.3 12.4 539.2 11.9 541.5 11.6 C 541.5 11.6 541.5 9.9 541.5 9.9 C 541.5 9.3 541.2 8.7 540.7 8.3 C 540.2 7.9 539.6 7.6 538.8 7.6 C 538.1 7.6 537.5 7.8 537 8.1 C 536.6 8.3 536.5 8.5 536.5 8.7 C 536.5 8.9 536.6 9 536.7 9.3 C 537 9.6 537.1 9.9 537.1 10.2 C 537.1 10.5 537 10.8 536.7 11.1 C 536.5 11.3 536.2 11.4 535.8 11.4 C 535.4 11.4 535.1 11.3 534.8 11 C 534.5 10.7 534.4 10.4 534.4 9.9 C 534.4 9.1 534.8 8.4 535.8 7.7 C 536.7 7.1 537.8 6.7 539.3 6.7 C 540.7 6.7 541.7 7 542.4 7.6 C 543.2 8.2 543.5 8.9 543.5 9.8 C 543.5 9.8 543.5 16 543.5 16 C 543.5 16.6 543.6 17 543.8 17.2 C 544 17.5 544.2 17.6 544.5 17.6 C 544.5 17.6 544.5 17.6 544.5 17.6 Z M 541.5 12.4 C 539.4 12.7 537.9 13.2 537.1 13.8 C 536.4 14.3 536.1 15 536.1 15.9 C 536.1 16.5 536.3 17 536.6 17.4 C 536.9 17.7 537.4 17.9 537.9 17.9 C 538.9 17.9 539.7 17.5 540.4 16.8 C 541.1 16.1 541.5 15.2 541.5 14.1 C 541.5 14.1 541.5 12.4 541.5 12.4 Z M 548.7 14.2 C 549.2 15.6 549.8 16.6 550.4 17.1 C 551.1 17.7 551.9 17.9 552.8 17.9 C 553.7 17.9 554.4 17.7 554.9 17.4 C 555.4 17 555.6 16.5 555.6 15.9 C 555.6 15.5 555.5 15.2 555.3 15 C 555.2 14.7 554.9 14.5 554.6 14.4 C 554.3 14.3 553.5 14.1 552.2 13.9 C 551 13.6 550.1 13.4 549.6 13.1 C 549.1 12.8 548.7 12.4 548.5 12 C 548.2 11.5 548.1 11 548.1 10.4 C 548.1 9.6 548.3 8.8 548.9 8.2 C 549.6 7.3 550.6 6.8 551.9 6.8 C 552.9 6.8 553.9 7.2 554.7 7.8 C 554.7 7.79 555.5 6.9 555.5 6.9 L 556 6.9 L 556.3 11 C 556.3 11 555.51 11.01 555.5 11 C 555.2 9.9 554.7 9 554.1 8.5 C 553.4 8 552.7 7.8 551.8 7.8 C 551 7.8 550.4 7.9 550 8.3 C 549.5 8.7 549.3 9.2 549.3 9.7 C 549.3 10.2 549.5 10.6 549.9 10.9 C 550.3 11.2 551.1 11.5 552.3 11.7 C 553.6 11.9 554.5 12.1 554.9 12.2 C 555.6 12.5 556.1 12.9 556.5 13.4 C 556.8 13.9 557 14.5 557 15.2 C 557 16.2 556.6 17.1 555.8 17.8 C 555 18.5 554 18.8 552.8 18.8 C 551.7 18.8 550.6 18.5 549.6 17.7 C 549.64 17.72 548.7 18.8 548.7 18.8 L 548.1 18.8 L 547.9 14.2 C 547.9 14.2 548.67 14.2 548.7 14.2 Z M 558.6 7.1 L 564.1 7.1 L 564.1 7.9 C 564.1 7.9 563.58 7.9 563.6 7.9 C 563.1 7.9 562.8 8 562.6 8.1 C 562.4 8.2 562.3 8.4 562.3 8.6 C 562.3 8.7 562.4 8.8 562.4 8.9 C 562.41 8.95 565.6 15.8 565.6 15.8 C 565.6 15.8 567.96 10.12 568 10.1 C 568.1 9.7 568.2 9.3 568.2 8.9 C 568.2 8.6 568.1 8.4 567.9 8.2 C 567.6 8.1 567.2 7.9 566.4 7.9 C 566.45 7.9 566.4 7.1 566.4 7.1 L 571.2 7.1 C 571.2 7.1 571.21 7.9 571.2 7.9 C 570.3 8 569.7 8.4 569.4 9.1 C 569.4 9.1 565.1 19 565.1 19 C 564.4 20.6 563.7 21.8 563 22.4 C 562.2 23.1 561.4 23.4 560.6 23.4 C 560 23.4 559.5 23.2 559.1 22.9 C 558.8 22.5 558.6 22.1 558.6 21.6 C 558.6 21.3 558.7 21 558.9 20.7 C 559.1 20.5 559.4 20.4 559.8 20.4 C 560.1 20.4 560.3 20.5 560.6 20.7 C 560.8 20.9 560.9 21.1 560.9 21.4 C 560.9 21.5 560.9 21.6 560.8 21.8 C 560.8 21.9 560.8 22 560.8 22.1 C 560.8 22.3 560.9 22.4 561.1 22.4 C 561.4 22.4 561.7 22.3 562.1 22.1 C 562.4 21.9 562.7 21.5 563 21.1 C 563.3 20.7 563.8 19.7 564.5 18.3 C 564.5 18.3 560.2 8.9 560.2 8.9 C 560.1 8.6 559.9 8.4 559.6 8.2 C 559.4 8.1 559.1 8 558.6 7.9 C 558.61 7.9 558.6 7.1 558.6 7.1 Z M 577.7 6.7 C 579.2 6.7 580.5 7.3 581.6 8.4 C 582.6 9.5 583.1 11 583.1 12.8 C 583.1 14 582.9 15.1 582.4 16 C 582 16.9 581.3 17.6 580.4 18.1 C 579.6 18.6 578.6 18.8 577.6 18.8 C 576.1 18.8 574.9 18.3 573.9 17.2 C 572.8 16 572.3 14.6 572.3 12.8 C 572.3 11 572.8 9.5 573.9 8.4 C 574.9 7.3 576.2 6.7 577.7 6.7 Z M 577.7 7.6 C 576.8 7.6 576 8 575.4 8.8 C 574.9 9.7 574.6 11 574.6 12.7 C 574.6 14.6 574.9 15.9 575.4 16.7 C 576 17.6 576.8 18 577.7 18 C 578.6 18 579.4 17.6 580 16.7 C 580.6 15.9 580.9 14.5 580.9 12.6 C 580.9 10.8 580.6 9.6 580 8.8 C 579.4 8 578.7 7.6 577.7 7.6 Z M 584.8 7.1 C 584.8 7.1 588.59 6.84 588.6 6.8 C 588.7 7.6 588.9 8.4 588.9 9.4 C 589.4 8.5 590 7.9 590.7 7.5 C 591.4 7.1 592.2 6.9 593.1 6.9 C 593.9 6.9 594.5 7 595 7.3 C 595.5 7.6 595.9 8.1 596.2 8.7 C 596.6 9.4 596.7 10.1 596.7 10.9 C 596.7 10.9 596.7 16.4 596.7 16.4 C 596.7 16.9 596.8 17.2 597 17.3 C 597.2 17.5 597.5 17.6 597.9 17.6 C 597.93 17.59 598.7 17.6 598.7 17.6 L 598.7 18.5 L 592.7 18.5 L 592.7 17.6 C 592.7 17.6 593.28 17.59 593.3 17.6 C 593.8 17.6 594.2 17.5 594.4 17.3 C 594.6 17.2 594.7 16.9 594.7 16.6 C 594.7 16.6 594.7 11.7 594.7 11.7 C 594.7 10.6 594.6 9.8 594.2 9.3 C 593.8 8.6 593.1 8.2 592.2 8.2 C 591.2 8.2 590.5 8.6 589.9 9.3 C 589.2 10.1 588.9 11 588.9 12.2 C 588.9 12.2 588.9 16.4 588.9 16.4 C 588.9 16.9 589 17.2 589.2 17.3 C 589.4 17.5 589.7 17.6 590.2 17.6 C 590.17 17.59 591 17.6 591 17.6 L 591 18.5 L 584.9 18.5 L 584.9 17.6 C 584.9 17.6 585.7 17.59 585.7 17.6 C 586.1 17.6 586.4 17.5 586.6 17.3 C 586.8 17.2 586.9 17 586.9 16.7 C 586.9 16.7 586.9 9.4 586.9 9.4 C 586.9 8.9 586.8 8.5 586.5 8.2 C 586.3 8 585.9 7.9 585.4 7.9 C 585.38 7.86 584.8 7.9 584.8 7.9 L 584.8 7.1 Z M 607 7.1 C 607 7.1 610.81 6.84 610.8 6.8 C 611 7.6 611.1 8.4 611.1 9.4 C 611.7 8.5 612.3 7.9 613 7.5 C 613.7 7.1 614.4 6.9 615.3 6.9 C 616.1 6.9 616.7 7 617.2 7.3 C 617.7 7.6 618.2 8.1 618.5 8.7 C 618.8 9.4 618.9 10.1 618.9 10.9 C 618.9 10.9 618.9 16.4 618.9 16.4 C 618.9 16.9 619 17.2 619.2 17.3 C 619.4 17.5 619.7 17.6 620.1 17.6 C 620.15 17.59 621 17.6 621 17.6 L 621 18.5 L 614.9 18.5 L 614.9 17.6 C 614.9 17.6 615.49 17.59 615.5 17.6 C 616 17.6 616.4 17.5 616.6 17.3 C 616.8 17.2 616.9 16.9 616.9 16.6 C 616.9 16.6 616.9 11.7 616.9 11.7 C 616.9 10.6 616.8 9.8 616.4 9.3 C 616 8.6 615.3 8.2 614.4 8.2 C 613.5 8.2 612.7 8.6 612.1 9.3 C 611.5 10.1 611.1 11 611.1 12.2 C 611.1 12.2 611.1 16.4 611.1 16.4 C 611.1 16.9 611.2 17.2 611.4 17.3 C 611.6 17.5 611.9 17.6 612.4 17.6 C 612.38 17.59 613.2 17.6 613.2 17.6 L 613.2 18.5 L 607.1 18.5 L 607.1 17.6 C 607.1 17.6 607.91 17.59 607.9 17.6 C 608.3 17.6 608.6 17.5 608.8 17.3 C 609 17.2 609.1 17 609.1 16.7 C 609.1 16.7 609.1 9.4 609.1 9.4 C 609.1 8.9 609 8.5 608.7 8.2 C 608.5 8 608.1 7.9 607.6 7.9 C 607.6 7.86 607 7.9 607 7.9 L 607 7.1 Z M 631 7.7 C 631.9 6.9 632.6 6.5 633.3 6.5 C 633.7 6.5 634 6.6 634.3 6.9 C 634.6 7.1 634.7 7.5 634.7 7.8 C 634.7 8.1 634.6 8.4 634.4 8.6 C 634.3 8.8 634 8.9 633.8 8.9 C 633.3 8.9 633 8.6 632.9 8 C 632.8 7.8 632.7 7.7 632.5 7.7 C 632.2 7.7 631.9 7.8 631.6 8.2 C 632 8.7 632.2 9.1 632.3 9.5 C 632.5 9.8 632.5 10.2 632.5 10.6 C 632.5 11.3 632.4 11.9 632 12.5 C 631.7 13 631.1 13.5 630.3 13.9 C 629.5 14.3 628.8 14.5 628 14.5 C 628 14.5 626.7 14.5 626.7 14.5 C 625.8 14.5 625.1 14.6 624.8 14.8 C 624.5 15 624.4 15.3 624.4 15.7 C 624.4 16 624.5 16.3 624.7 16.4 C 625 16.6 625.5 16.7 626.2 16.7 C 626.2 16.7 629.2 16.6 629.2 16.6 C 630.7 16.6 631.8 16.9 632.5 17.4 C 633.2 17.9 633.5 18.6 633.5 19.5 C 633.5 20.5 633.1 21.3 632.3 22 C 631.3 22.9 629.7 23.4 627.6 23.4 C 625.8 23.4 624.5 23.1 623.7 22.4 C 623 21.9 622.7 21.3 622.7 20.7 C 622.7 20.2 622.9 19.8 623.3 19.4 C 623.7 19 624.5 18.7 625.5 18.5 C 624.7 18.3 624.1 18 623.6 17.6 C 623.2 17.3 623 16.8 623 16.2 C 623 15.7 623.2 15.3 623.5 14.9 C 623.9 14.5 624.4 14.2 625.2 13.9 C 624.6 13.5 624 13 623.7 12.5 C 623.3 12 623.2 11.3 623.2 10.6 C 623.2 9.5 623.6 8.6 624.5 7.8 C 625.3 7.1 626.5 6.7 627.9 6.7 C 628.4 6.7 629 6.8 629.5 7 C 630 7.1 630.5 7.4 631 7.7 Z M 627.8 7.5 C 627.1 7.5 626.5 7.8 626 8.3 C 625.6 8.8 625.3 9.6 625.3 10.5 C 625.3 11.6 625.6 12.4 626 12.9 C 626.5 13.5 627.1 13.8 627.8 13.8 C 628.6 13.8 629.2 13.5 629.6 13 C 630.1 12.4 630.4 11.6 630.4 10.6 C 630.4 9.6 630.1 8.9 629.6 8.3 C 629.2 7.8 628.6 7.5 627.8 7.5 Z M 628.6 18.5 C 627.1 18.5 626 18.7 625.4 19.1 C 624.7 19.6 624.4 20.1 624.4 20.6 C 624.4 21.2 624.6 21.6 625.1 21.9 C 625.7 22.4 626.7 22.6 627.8 22.6 C 629.2 22.6 630.3 22.4 631 21.9 C 631.7 21.4 632 20.9 632 20.3 C 632 20 631.9 19.7 631.7 19.4 C 631.5 19.1 631.1 18.9 630.7 18.7 C 630.2 18.6 629.5 18.5 628.6 18.5 Z M 642.8 0.5 C 642.8 0.5 651.71 0.45 651.7 0.5 C 653.7 0.5 655.3 0.9 656.3 1.8 C 657.4 2.7 657.9 3.9 657.9 5.4 C 657.9 6.9 657.4 8 656.4 8.8 C 655.1 9.8 653.4 10.4 651.5 10.4 C 651.48 10.36 648.3 10.4 648.3 10.4 C 648.3 10.4 648.26 16.53 648.3 16.5 C 648.3 16.9 648.3 17.1 648.5 17.3 C 648.7 17.5 649 17.6 649.4 17.6 C 649.43 17.59 651.5 17.6 651.5 17.6 L 651.5 18.5 L 642.8 18.5 L 642.8 17.6 C 642.8 17.6 644.62 17.59 644.6 17.6 C 645 17.6 645.2 17.5 645.4 17.4 C 645.6 17.2 645.7 17 645.7 16.8 C 645.7 16.8 645.7 2.4 645.7 2.4 C 645.7 2 645.6 1.8 645.3 1.6 C 645.1 1.4 644.7 1.4 644.1 1.4 C 644.14 1.37 642.8 1.4 642.8 1.4 L 642.8 0.5 Z M 648.3 9.5 C 648.3 9.5 650.71 9.47 650.7 9.5 C 652.3 9.5 653.4 9.1 654.1 8.5 C 654.8 7.9 655.1 6.8 655.1 5.3 C 655.1 4.3 654.9 3.5 654.6 2.9 C 654.3 2.3 653.9 1.9 653.3 1.7 C 652.7 1.4 651.7 1.3 650.3 1.3 C 649.4 1.3 648.9 1.3 648.6 1.5 C 648.4 1.7 648.3 2 648.3 2.4 C 648.26 2.4 648.3 9.5 648.3 9.5 Z M 662.3 0.2 C 662.7 0.2 663 0.4 663.2 0.7 C 663.5 0.9 663.7 1.3 663.7 1.6 C 663.7 2 663.5 2.3 663.3 2.6 C 663 2.9 662.7 3 662.3 3 C 661.9 3 661.6 2.9 661.3 2.6 C 661.1 2.3 660.9 2 660.9 1.6 C 660.9 1.3 661.1 0.9 661.3 0.7 C 661.6 0.4 661.9 0.2 662.3 0.2 Z M 659.1 7.1 L 663.7 6.9 C 663.7 6.9 663.66 16.77 663.7 16.8 C 663.7 17 663.7 17.2 663.9 17.3 C 664 17.5 664.3 17.6 664.6 17.6 C 664.57 17.59 665.9 17.6 665.9 17.6 L 665.9 18.5 L 659.4 18.5 L 659.4 17.6 C 659.4 17.6 660.56 17.59 660.6 17.6 C 660.9 17.6 661.2 17.5 661.4 17.3 C 661.5 17.2 661.6 16.9 661.6 16.6 C 661.6 16.6 661.6 9.4 661.6 9.4 C 661.6 8.9 661.5 8.6 661.2 8.3 C 660.9 8.1 660.6 8 660.1 8 C 660.05 7.98 659.1 8 659.1 8 L 659.1 7.1 Z M 671.5 0.2 C 671.5 0.2 671.52 16.82 671.5 16.8 C 671.5 17 671.6 17.2 671.7 17.3 C 671.9 17.5 672.2 17.6 672.5 17.6 C 672.48 17.59 673.7 17.6 673.7 17.6 L 673.7 18.5 L 667.2 18.5 L 667.2 17.6 C 667.2 17.6 668.35 17.59 668.4 17.6 C 668.7 17.6 669 17.5 669.2 17.3 C 669.4 17.1 669.5 16.9 669.5 16.6 C 669.5 16.6 669.5 2.6 669.5 2.6 C 669.5 2.2 669.4 1.9 669.1 1.8 C 668.8 1.5 668.5 1.4 668 1.4 C 668.02 1.37 667 1.4 667 1.4 L 667 0.5 L 671.5 0.2 Z M 678 0.2 C 678.4 0.2 678.7 0.4 679 0.7 C 679.3 0.9 679.4 1.3 679.4 1.6 C 679.4 2 679.3 2.3 679 2.6 C 678.7 2.9 678.4 3 678 3 C 677.7 3 677.3 2.9 677.1 2.6 C 676.8 2.3 676.7 2 676.7 1.6 C 676.7 1.3 676.8 0.9 677.1 0.7 C 677.4 0.4 677.7 0.2 678 0.2 Z M 674.9 7.1 L 679.4 6.9 C 679.4 6.9 679.41 16.77 679.4 16.8 C 679.4 17 679.5 17.2 679.6 17.3 C 679.8 17.5 680 17.6 680.3 17.6 C 680.31 17.59 681.6 17.6 681.6 17.6 L 681.6 18.5 L 675.1 18.5 L 675.1 17.6 C 675.1 17.6 676.31 17.59 676.3 17.6 C 676.7 17.6 676.9 17.5 677.1 17.3 C 677.3 17.2 677.3 16.9 677.3 16.6 C 677.3 16.6 677.3 9.4 677.3 9.4 C 677.3 8.9 677.2 8.6 677 8.3 C 676.7 8.1 676.3 8 675.8 8 C 675.8 7.98 674.9 8 674.9 8 L 674.9 7.1 Z M 686.6 6.9 C 686.8 7.7 686.9 8.5 686.9 9.3 C 687.5 8.4 688 7.8 688.7 7.4 C 689.3 7 690 6.9 690.7 6.9 C 691.5 6.9 692.2 7.1 692.9 7.6 C 693.6 8.1 694.2 8.8 694.7 9.7 C 695.1 10.6 695.3 11.7 695.3 12.8 C 695.3 14.7 694.8 16.2 693.7 17.4 C 692.8 18.4 691.7 18.8 690.4 18.8 C 689.7 18.8 689.1 18.7 688.5 18.3 C 687.9 17.9 687.4 17.4 687 16.7 C 687 16.7 687 21.3 687 21.3 C 687 21.6 687.1 21.9 687.2 22 C 687.5 22.2 687.8 22.3 688.2 22.3 C 688.15 22.34 689 22.3 689 22.3 L 689 23.2 L 682.9 23.2 L 682.9 22.3 C 682.9 22.3 683.72 22.34 683.7 22.3 C 684.1 22.3 684.4 22.3 684.6 22.1 C 684.8 22 684.9 21.7 684.9 21.5 C 684.9 21.5 684.9 9.5 684.9 9.5 C 684.9 8.9 684.8 8.5 684.5 8.3 C 684.2 8 683.7 7.9 682.9 7.9 C 682.88 7.89 682.9 7.1 682.9 7.1 C 682.9 7.1 686.58 6.86 686.6 6.9 Z M 690.1 8 C 689.2 8 688.5 8.4 687.9 9.3 C 687.3 10.1 687 11.3 687 13 C 687 14.6 687.3 15.8 687.8 16.6 C 688.4 17.4 689.2 17.8 690.1 17.8 C 691 17.8 691.6 17.4 692.1 16.8 C 692.7 15.9 693 14.6 693 12.9 C 693 11.1 692.7 9.9 692.2 9.1 C 691.6 8.3 691 8 690.1 8 Z M 700.3 0.2 C 700.6 0.2 700.9 0.4 701.2 0.7 C 701.5 0.9 701.6 1.3 701.6 1.6 C 701.6 2 701.5 2.3 701.2 2.6 C 701 2.9 700.6 3 700.3 3 C 699.9 3 699.6 2.9 699.3 2.6 C 699 2.3 698.9 2 698.9 1.6 C 698.9 1.3 699 0.9 699.3 0.7 C 699.6 0.4 699.9 0.2 700.3 0.2 Z M 697.1 7.1 L 701.6 6.9 C 701.6 6.9 701.64 16.77 701.6 16.8 C 701.6 17 701.7 17.2 701.8 17.3 C 702 17.5 702.3 17.6 702.5 17.6 C 702.54 17.59 703.8 17.6 703.8 17.6 L 703.8 18.5 L 697.3 18.5 L 697.3 17.6 C 697.3 17.6 698.54 17.59 698.5 17.6 C 698.9 17.6 699.2 17.5 699.3 17.3 C 699.5 17.2 699.6 16.9 699.6 16.6 C 699.6 16.6 699.6 9.4 699.6 9.4 C 699.6 8.9 699.4 8.6 699.2 8.3 C 698.9 8.1 698.5 8 698 8 C 698.03 7.98 697.1 8 697.1 8 L 697.1 7.1 Z M 705.2 7.1 C 705.2 7.1 708.98 6.84 709 6.8 C 709.1 7.6 709.2 8.4 709.3 9.4 C 709.8 8.5 710.4 7.9 711.1 7.5 C 711.8 7.1 712.6 6.9 713.5 6.9 C 714.2 6.9 714.9 7 715.4 7.3 C 715.9 7.6 716.3 8.1 716.6 8.7 C 716.9 9.4 717.1 10.1 717.1 10.9 C 717.1 10.9 717.1 16.4 717.1 16.4 C 717.1 16.9 717.2 17.2 717.4 17.3 C 717.6 17.5 717.9 17.6 718.3 17.6 C 718.31 17.59 719.1 17.6 719.1 17.6 L 719.1 18.5 L 713.1 18.5 L 713.1 17.6 C 713.1 17.6 713.66 17.59 713.7 17.6 C 714.2 17.6 714.6 17.5 714.8 17.3 C 715 17.2 715.1 16.9 715.1 16.6 C 715.1 16.6 715.1 11.7 715.1 11.7 C 715.1 10.6 714.9 9.8 714.6 9.3 C 714.2 8.6 713.5 8.2 712.5 8.2 C 711.6 8.2 710.9 8.6 710.2 9.3 C 709.6 10.1 709.3 11 709.3 12.2 C 709.3 12.2 709.3 16.4 709.3 16.4 C 709.3 16.9 709.4 17.2 709.6 17.3 C 709.8 17.5 710.1 17.6 710.6 17.6 C 710.55 17.59 711.3 17.6 711.3 17.6 L 711.3 18.5 L 705.3 18.5 L 705.3 17.6 C 705.3 17.6 706.08 17.59 706.1 17.6 C 706.5 17.6 706.8 17.5 707 17.3 C 707.2 17.2 707.3 17 707.3 16.7 C 707.3 16.7 707.3 9.4 707.3 9.4 C 707.3 8.9 707.2 8.5 706.9 8.2 C 706.6 8 706.3 7.9 705.8 7.9 C 705.77 7.86 705.2 7.9 705.2 7.9 L 705.2 7.1 Z M 731.5 17.6 C 731.9 17.6 732.2 17.5 732.5 17.2 C 732.5 17.2 733 17.9 733 17.9 C 732.4 18.5 731.7 18.8 731 18.8 C 730.4 18.8 730 18.7 729.6 18.4 C 729.2 18.1 728.9 17.6 728.6 16.8 C 727.8 17.6 727.2 18.2 726.6 18.4 C 726 18.7 725.3 18.8 724.5 18.8 C 723.3 18.8 722.4 18.6 721.8 18.1 C 721.2 17.6 720.9 16.9 720.9 16.1 C 720.9 15 721.6 14 723 13.2 C 724.4 12.4 726.2 11.9 728.5 11.6 C 728.5 11.6 728.5 9.9 728.5 9.9 C 728.5 9.3 728.3 8.7 727.8 8.3 C 727.3 7.9 726.7 7.6 725.9 7.6 C 725.2 7.6 724.6 7.8 724.1 8.1 C 723.7 8.3 723.5 8.5 723.5 8.7 C 723.5 8.9 723.6 9 723.8 9.3 C 724 9.6 724.2 9.9 724.2 10.2 C 724.2 10.5 724 10.8 723.8 11.1 C 723.6 11.3 723.3 11.4 722.9 11.4 C 722.5 11.4 722.1 11.3 721.9 11 C 721.6 10.7 721.5 10.4 721.5 9.9 C 721.5 9.1 721.9 8.4 722.8 7.7 C 723.7 7.1 724.9 6.7 726.4 6.7 C 727.7 6.7 728.8 7 729.5 7.6 C 730.2 8.2 730.6 8.9 730.6 9.8 C 730.6 9.8 730.6 16 730.6 16 C 730.6 16.6 730.7 17 730.8 17.2 C 731 17.5 731.2 17.6 731.5 17.6 C 731.5 17.6 731.5 17.6 731.5 17.6 Z M 728.5 12.4 C 726.5 12.7 725 13.2 724.1 13.8 C 723.5 14.3 723.2 15 723.2 15.9 C 723.2 16.5 723.3 17 723.7 17.4 C 724 17.7 724.4 17.9 725 17.9 C 725.9 17.9 726.8 17.5 727.5 16.8 C 728.2 16.1 728.5 15.2 728.5 14.1 C 728.5 14.1 728.5 12.4 728.5 12.4 Z M 735.7 14.2 C 736.2 15.6 736.8 16.6 737.5 17.1 C 738.1 17.7 738.9 17.9 739.9 17.9 C 740.8 17.9 741.5 17.7 741.9 17.4 C 742.4 17 742.7 16.5 742.7 15.9 C 742.7 15.5 742.6 15.2 742.4 15 C 742.2 14.7 742 14.5 741.7 14.4 C 741.4 14.3 740.6 14.1 739.3 13.9 C 738 13.6 737.2 13.4 736.7 13.1 C 736.2 12.8 735.8 12.4 735.5 12 C 735.2 11.5 735.1 11 735.1 10.4 C 735.1 9.6 735.4 8.8 736 8.2 C 736.7 7.3 737.7 6.8 739 6.8 C 740 6.8 740.9 7.2 741.8 7.8 C 741.76 7.79 742.6 6.9 742.6 6.9 L 743.1 6.9 L 743.4 11 C 743.4 11 742.57 11.01 742.6 11 C 742.2 9.9 741.7 9 741.1 8.5 C 740.5 8 739.7 7.8 738.9 7.8 C 738.1 7.8 737.5 7.9 737 8.3 C 736.6 8.7 736.4 9.2 736.4 9.7 C 736.4 10.2 736.6 10.6 737 10.9 C 737.4 11.2 738.2 11.5 739.3 11.7 C 740.7 11.9 741.6 12.1 742 12.2 C 742.6 12.5 743.2 12.9 743.5 13.4 C 743.9 13.9 744.1 14.5 744.1 15.2 C 744.1 16.2 743.7 17.1 742.9 17.8 C 742.1 18.5 741.1 18.8 739.9 18.8 C 738.7 18.8 737.7 18.5 736.7 17.7 C 736.7 17.72 735.8 18.8 735.8 18.8 L 735.2 18.8 L 734.9 14.2 C 734.9 14.2 735.73 14.2 735.7 14.2 Z " stroke="none" fill="#000"/>
  </g>
</svg>