<?xml version="1.0" standalone="no"?>
<!DOCTYPE svg PUBLIC "-//W3C//DTD SVG 1.1//EN" "http://www.w3.org/Graphics/SVG/1.1/DTD/svg11.dtd">
<svg xmlns="http://www.w3.org/2000/svg" version="1.1" width="27px" height="24.8px" viewBox="0 -5 27 24.8" style="top:-5px">
  <desc>14</desc>
  <defs/>
  <g id="Polygon30027">
    <path d="M 3.9 4.4 C 3.9 3.5 3.9 2.9 3.9 2.4 C 3.9 2 3.9 1.8 3.6 1.8 C 3.3 1.8 2.2 2.4 1.9 2.6 C 1.8 2.6 1.7 2.6 1.7 2.6 C 1.6 2.6 1.6 2.6 1.6 2.5 C 1.6 2.4 1.6 2.3 1.7 2.3 C 1.8 2.2 4.7 0.3 5.2 -0.1 C 5.3 -0.1 5.4 -0.3 5.6 -0.3 C 5.7 -0.3 5.7 -0.1 5.7 0.1 C 5.7 0.2 5.7 1.7 5.7 4 C 5.7 4 5.7 6.7 5.7 6.7 C 5.7 8.2 5.7 9.5 5.7 10.1 C 5.8 10.6 5.8 10.8 6.3 10.9 C 6.5 11 7.2 11 7.3 11 C 7.4 11 7.4 11.1 7.4 11.2 C 7.4 11.3 7.4 11.3 7.2 11.3 C 6.1 11.3 5.1 11.3 4.7 11.3 C 4.4 11.3 3.1 11.3 2.1 11.3 C 2 11.3 1.9 11.3 1.9 11.2 C 1.9 11.1 1.9 11 2 11 C 2.2 11 2.9 11 3.2 10.9 C 3.7 10.8 3.8 10.6 3.8 10.1 C 3.9 9.5 3.9 8.2 3.9 6.7 C 3.9 6.7 3.9 4.4 3.9 4.4 Z M 9.6 8.3 C 9.4 8.3 9.2 8.2 9.2 8.1 C 9.2 7.9 9.4 7.8 9.4 7.7 C 9.5 7.6 15.1 0.2 15.2 0 C 15.4 -0.1 15.5 -0.3 15.6 -0.3 C 15.8 -0.3 15.8 -0.1 15.8 0 C 15.8 0.2 15.8 1.3 15.8 2.3 C 15.79 2.25 15.8 7.1 15.8 7.1 C 15.8 7.1 16.95 7.13 16.9 7.1 C 17.4 7.1 17.5 7 17.6 7 C 17.7 7 17.8 7 17.8 7.2 C 17.8 7.3 17.6 7.9 17.5 8.1 C 17.4 8.2 17.4 8.3 17.1 8.3 C 17.1 8.3 15.8 8.3 15.8 8.3 C 15.8 8.8 15.8 9.4 15.8 10.1 C 15.9 10.6 16 10.8 16.5 11 C 16.7 11 17 11 17.1 11 C 17.2 11 17.3 11.1 17.3 11.2 C 17.3 11.3 17.2 11.3 17 11.3 C 16.2 11.3 15.2 11.3 14.9 11.3 C 14.5 11.3 13.7 11.3 12.9 11.3 C 12.7 11.3 12.6 11.3 12.6 11.2 C 12.6 11.1 12.7 11 12.8 11 C 12.9 11 13.2 11 13.5 11 C 14 10.9 14.1 10.6 14.2 10.1 C 14.2 9.4 14.2 8.8 14.2 8.3 C 14.2 8.3 9.6 8.3 9.6 8.3 Z M 14.2 2.5 C 14.2 2.5 14.16 2.49 14.2 2.5 C 13.8 3 11.3 6.5 10.8 7.1 C 10.82 7.13 14.2 7.1 14.2 7.1 L 14.2 2.5 Z " stroke="none" fill="#000"/>
  </g>
</svg>