<?xml version="1.0" standalone="no"?>
<!DOCTYPE svg PUBLIC "-//W3C//DTD SVG 1.1//EN" "http://www.w3.org/Graphics/SVG/1.1/DTD/svg11.dtd">
<svg xmlns="http://www.w3.org/2000/svg" version="1.1" width="120px" height="16.9px" viewBox="0 -1 120 16.9" style="top:-1px">
  <desc>GE COURSES p 16</desc>
  <defs/>
  <g id="Polygon15598">
    <path d="M 36.7 6.5 C 37.1 6.7 37.5 7 37.9 7.4 C 37.9 7.4 37 8.3 37 8.3 C 36.5 7.7 35.8 7.4 35.1 7.4 C 34.5 7.4 33.9 7.6 33.5 8.1 C 33.1 8.5 32.9 9 32.9 9.6 C 32.9 10.2 33.1 10.7 33.5 11.2 C 34 11.6 34.5 11.8 35.2 11.8 C 35.6 11.8 36 11.7 36.2 11.6 C 36.5 11.4 36.8 11.1 37 10.7 C 36.95 10.72 35.1 10.7 35.1 10.7 L 35.1 9.6 L 38.3 9.6 C 38.3 9.6 38.34 9.84 38.3 9.8 C 38.3 10.4 38.2 10.9 37.9 11.4 C 37.6 12 37.2 12.3 36.8 12.6 C 36.3 12.9 35.8 13 35.1 13 C 34.5 13 33.9 12.9 33.3 12.6 C 32.8 12.3 32.4 11.9 32.1 11.3 C 31.8 10.8 31.6 10.2 31.6 9.6 C 31.6 8.7 31.9 8 32.5 7.3 C 33.1 6.6 34 6.2 35.1 6.2 C 35.7 6.2 36.2 6.3 36.7 6.5 C 36.7 6.5 36.7 6.5 36.7 6.5 Z M 39.5 6.4 L 43 6.4 L 43 7.6 L 40.7 7.6 L 40.7 8.8 L 43 8.8 L 43 9.9 L 40.7 9.9 L 40.7 11.6 L 43 11.6 L 43 12.8 L 39.5 12.8 L 39.5 6.4 Z M 52.6 7.5 C 52.6 7.5 51.7 8.3 51.7 8.3 C 51.2 7.7 50.5 7.4 49.8 7.4 C 49.2 7.4 48.6 7.6 48.2 8 C 47.8 8.5 47.6 9 47.6 9.6 C 47.6 10 47.7 10.4 47.9 10.8 C 48 11.1 48.3 11.3 48.7 11.5 C 49 11.7 49.4 11.8 49.8 11.8 C 50.2 11.8 50.5 11.8 50.8 11.6 C 51.1 11.5 51.4 11.2 51.7 10.9 C 51.7 10.9 52.6 11.8 52.6 11.8 C 52.1 12.2 51.7 12.6 51.2 12.7 C 50.8 12.9 50.3 13 49.8 13 C 48.8 13 47.9 12.7 47.3 12.1 C 46.7 11.4 46.3 10.6 46.3 9.6 C 46.3 9 46.5 8.4 46.8 7.9 C 47.1 7.4 47.5 7 48 6.7 C 48.6 6.4 49.2 6.2 49.8 6.2 C 50.3 6.2 50.8 6.3 51.3 6.6 C 51.8 6.8 52.3 7.1 52.6 7.5 Z M 56.7 6.2 C 57.7 6.2 58.4 6.5 59.1 7.2 C 59.8 7.9 60.1 8.7 60.1 9.6 C 60.1 10.6 59.8 11.4 59.1 12 C 58.5 12.7 57.7 13 56.7 13 C 55.8 13 55 12.7 54.3 12 C 53.7 11.3 53.4 10.5 53.4 9.6 C 53.4 9 53.5 8.4 53.8 7.9 C 54.1 7.4 54.5 7 55 6.7 C 55.6 6.4 56.1 6.2 56.7 6.2 Z M 56.7 7.4 C 56.1 7.4 55.6 7.6 55.2 8 C 54.8 8.5 54.6 9 54.6 9.6 C 54.6 10.3 54.9 10.9 55.4 11.3 C 55.8 11.7 56.2 11.8 56.7 11.8 C 57.3 11.8 57.8 11.6 58.2 11.2 C 58.6 10.8 58.9 10.2 58.9 9.6 C 58.9 9 58.6 8.5 58.2 8.1 C 57.8 7.6 57.3 7.4 56.7 7.4 Z M 61.2 6.4 L 62.4 6.4 C 62.4 6.4 62.44 10.56 62.4 10.6 C 62.4 10.9 62.5 11.2 62.5 11.3 C 62.6 11.5 62.7 11.6 62.8 11.7 C 63 11.8 63.2 11.8 63.4 11.8 C 63.6 11.8 63.8 11.8 63.9 11.7 C 64.1 11.6 64.2 11.4 64.3 11.3 C 64.3 11.1 64.3 10.8 64.3 10.4 C 64.34 10.41 64.3 6.4 64.3 6.4 L 65.6 6.4 C 65.6 6.4 65.58 10.23 65.6 10.2 C 65.6 10.9 65.5 11.3 65.5 11.6 C 65.4 11.8 65.3 12.1 65 12.3 C 64.8 12.6 64.6 12.7 64.3 12.8 C 64.1 13 63.8 13 63.4 13 C 62.9 13 62.5 12.9 62.2 12.7 C 61.8 12.5 61.6 12.2 61.4 11.9 C 61.3 11.6 61.2 11 61.2 10.2 C 61.2 10.23 61.2 6.4 61.2 6.4 Z M 67.1 6.4 C 67.1 6.4 68.39 6.38 68.4 6.4 C 69.1 6.4 69.6 6.4 69.9 6.6 C 70.2 6.7 70.5 6.9 70.7 7.2 C 70.8 7.5 70.9 7.9 70.9 8.3 C 70.9 8.7 70.8 9 70.6 9.3 C 70.4 9.6 70.1 9.8 69.7 10 C 69.7 9.97 71.2 12.8 71.2 12.8 L 69.9 12.8 L 68.4 10.1 L 68.3 10.1 L 68.3 12.8 L 67.1 12.8 L 67.1 6.4 Z M 68.3 8.9 C 68.3 8.9 68.71 8.91 68.7 8.9 C 69.1 8.9 69.4 8.9 69.5 8.8 C 69.7 8.7 69.7 8.5 69.7 8.2 C 69.7 8.1 69.7 8 69.6 7.9 C 69.6 7.8 69.5 7.7 69.3 7.6 C 69.2 7.6 69 7.6 68.7 7.6 C 68.66 7.58 68.3 7.6 68.3 7.6 L 68.3 8.9 Z M 75.6 7.3 C 75.6 7.3 74.7 8.1 74.7 8.1 C 74.4 7.6 74.1 7.4 73.7 7.4 C 73.6 7.4 73.4 7.4 73.3 7.5 C 73.2 7.6 73.2 7.7 73.2 7.8 C 73.2 7.9 73.2 8 73.3 8.1 C 73.4 8.3 73.7 8.5 74.2 9 C 74.7 9.3 74.9 9.6 75 9.7 C 75.3 10 75.5 10.2 75.6 10.4 C 75.7 10.7 75.7 10.9 75.7 11.2 C 75.7 11.7 75.6 12.1 75.2 12.5 C 74.8 12.8 74.3 13 73.8 13 C 73.3 13 72.9 12.9 72.5 12.7 C 72.2 12.4 71.9 12.1 71.7 11.6 C 71.7 11.6 72.7 11 72.7 11 C 73 11.6 73.4 11.8 73.8 11.8 C 74 11.8 74.2 11.8 74.3 11.7 C 74.5 11.5 74.5 11.4 74.5 11.2 C 74.5 11.1 74.5 10.9 74.4 10.8 C 74.3 10.6 74 10.4 73.6 10.1 C 72.9 9.5 72.5 9.1 72.3 8.8 C 72.1 8.5 72 8.2 72 7.9 C 72 7.4 72.1 7 72.5 6.7 C 72.8 6.4 73.2 6.2 73.8 6.2 C 74.1 6.2 74.4 6.3 74.7 6.4 C 75 6.6 75.3 6.9 75.6 7.3 Z M 76.9 6.4 L 80.4 6.4 L 80.4 7.6 L 78.1 7.6 L 78.1 8.8 L 80.4 8.8 L 80.4 9.9 L 78.1 9.9 L 78.1 11.6 L 80.4 11.6 L 80.4 12.8 L 76.9 12.8 L 76.9 6.4 Z M 85 7.3 C 85 7.3 84.1 8.1 84.1 8.1 C 83.7 7.6 83.4 7.4 83.1 7.4 C 82.9 7.4 82.8 7.4 82.7 7.5 C 82.6 7.6 82.5 7.7 82.5 7.8 C 82.5 7.9 82.6 8 82.7 8.1 C 82.8 8.3 83.1 8.5 83.6 9 C 84 9.3 84.3 9.6 84.4 9.7 C 84.7 10 84.8 10.2 84.9 10.4 C 85 10.7 85.1 10.9 85.1 11.2 C 85.1 11.7 84.9 12.1 84.5 12.5 C 84.2 12.8 83.7 13 83.1 13 C 82.7 13 82.2 12.9 81.9 12.7 C 81.6 12.4 81.3 12.1 81 11.6 C 81 11.6 82.1 11 82.1 11 C 82.4 11.6 82.7 11.8 83.1 11.8 C 83.3 11.8 83.5 11.8 83.7 11.7 C 83.8 11.5 83.9 11.4 83.9 11.2 C 83.9 11.1 83.8 10.9 83.7 10.8 C 83.6 10.6 83.4 10.4 83 10.1 C 82.3 9.5 81.8 9.1 81.6 8.8 C 81.4 8.5 81.3 8.2 81.3 7.9 C 81.3 7.4 81.5 7 81.8 6.7 C 82.2 6.4 82.6 6.2 83.1 6.2 C 83.4 6.2 83.7 6.3 84 6.4 C 84.3 6.6 84.6 6.9 85 7.3 Z M 88.6 8 L 88.6 6.9 L 92.9 9.1 L 92.9 10.1 L 88.6 12.3 L 88.6 11.2 L 91.7 9.6 L 88.6 8 Z M 94 8 L 94 6.9 L 98.3 9.1 L 98.3 10.1 L 94 12.3 L 94 11.2 L 97.1 9.6 L 94 8 Z M 103.2 8.1 C 103.2 8.1 103.17 8.59 103.2 8.6 C 103.4 8.4 103.6 8.2 103.9 8.1 C 104.1 8 104.4 7.9 104.7 7.9 C 105.3 7.9 105.8 8.2 106.3 8.6 C 106.7 9.1 106.9 9.7 106.9 10.5 C 106.9 11.2 106.7 11.8 106.2 12.2 C 105.8 12.7 105.3 13 104.6 13 C 104.4 13 104.1 12.9 103.9 12.8 C 103.6 12.7 103.4 12.6 103.2 12.3 C 103.17 12.34 103.2 14.6 103.2 14.6 L 102 14.6 L 102 8.1 L 103.2 8.1 Z M 104.4 9 C 104 9 103.7 9.2 103.5 9.4 C 103.2 9.7 103.1 10 103.1 10.4 C 103.1 10.9 103.2 11.2 103.5 11.5 C 103.7 11.7 104 11.9 104.4 11.9 C 104.8 11.9 105.1 11.7 105.4 11.5 C 105.6 11.2 105.7 10.9 105.7 10.5 C 105.7 10 105.6 9.7 105.4 9.4 C 105.1 9.2 104.8 9 104.4 9 Z M 108.6 11.6 C 108.8 11.6 108.9 11.7 109.1 11.8 C 109.2 11.9 109.3 12.1 109.3 12.3 C 109.3 12.5 109.2 12.6 109.1 12.8 C 108.9 12.9 108.8 13 108.6 13 C 108.4 13 108.2 12.9 108.1 12.8 C 107.9 12.6 107.9 12.5 107.9 12.3 C 107.9 12.1 107.9 11.9 108.1 11.8 C 108.2 11.7 108.4 11.6 108.6 11.6 Z M 111.3 6.4 L 113.1 6.4 L 113.1 12.8 L 111.9 12.8 L 111.9 7.5 L 110.6 7.5 L 111.3 6.4 Z M 117.5 6.2 L 118.5 6.7 C 118.5 6.7 117.39 8.94 117.4 8.9 C 117.9 8.9 118.4 9.1 118.8 9.5 C 119.2 9.9 119.4 10.4 119.4 11 C 119.4 11.6 119.2 12 118.8 12.4 C 118.4 12.8 117.9 13 117.4 13 C 116.8 13 116.3 12.8 115.9 12.4 C 115.5 12 115.3 11.5 115.3 11 C 115.3 10.8 115.3 10.6 115.4 10.4 C 115.5 10.2 115.6 9.9 115.8 9.5 C 115.82 9.47 117.5 6.2 117.5 6.2 Z M 117.3 10.1 C 117.1 10.1 116.9 10.2 116.7 10.4 C 116.6 10.5 116.5 10.7 116.5 11 C 116.5 11.2 116.6 11.4 116.8 11.6 C 116.9 11.8 117.1 11.9 117.3 11.9 C 117.6 11.9 117.8 11.8 117.9 11.6 C 118.1 11.4 118.2 11.2 118.2 11 C 118.2 10.7 118.1 10.5 117.9 10.4 C 117.8 10.2 117.6 10.1 117.3 10.1 Z " stroke="none" fill="#000"/>
  </g>
</svg>