<?xml version="1.0" standalone="no"?>
<!DOCTYPE svg PUBLIC "-//W3C//DTD SVG 1.1//EN" "http://www.w3.org/Graphics/SVG/1.1/DTD/svg11.dtd">
<svg xmlns="http://www.w3.org/2000/svg" version="1.1" width="750px" height="33.9px" viewBox="0 -6 750 33.9" style="top:-6px">
  <desc>BOTO LASALYANO Mula sa p 3</desc>
  <defs/>
  <g id="Polygon24425">
    <path d="M 1.6 -0.3 C 1.6 -0.3 7.1 -0.31 7.1 -0.3 C 9.2 -0.3 11.4 0.8 11.4 3.6 C 11.4 5.3 10.4 6.5 9 6.9 C 9 6.9 9 7 9 7 C 10.8 7.2 12 8.7 12 10.7 C 12 14.1 9.4 15.1 6.7 15.1 C 6.68 15.12 1.6 15.1 1.6 15.1 L 1.6 -0.3 Z M 4.1 6 C 4.1 6 6.4 5.96 6.4 6 C 8.1 6 8.9 5.2 8.9 4 C 8.9 2.7 8.1 2 6.2 2 C 6.18 2.04 4.1 2 4.1 2 L 4.1 6 Z M 4.1 12.8 C 4.1 12.8 6.42 12.77 6.4 12.8 C 7.7 12.8 9.5 12.5 9.5 10.5 C 9.5 8.9 8.6 8.3 6.5 8.3 C 6.52 8.32 4.1 8.3 4.1 8.3 L 4.1 12.8 Z M 21.9 -0.7 C 26.3 -0.8 29.4 2.4 29.4 7.4 C 29.4 12.2 26.3 15.4 21.9 15.5 C 17.5 15.5 14.4 12.3 14.4 7.5 C 14.4 2.5 17.5 -0.7 21.9 -0.7 Z M 21.9 13 C 24.8 13 26.8 10.6 26.8 7.3 C 26.8 4.2 24.8 1.8 21.9 1.8 C 19 1.8 17 4.2 17 7.3 C 17 10.6 19 13 21.9 13 Z M 35.3 2.2 L 30.9 2.2 L 30.9 -0.3 L 42.1 -0.3 L 42.1 2.2 L 37.8 2.2 L 37.8 15.1 L 35.3 15.1 L 35.3 2.2 Z M 51.2 -0.7 C 55.6 -0.8 58.7 2.4 58.7 7.4 C 58.7 12.2 55.6 15.4 51.2 15.5 C 46.8 15.5 43.7 12.3 43.7 7.5 C 43.7 2.5 46.8 -0.7 51.2 -0.7 Z M 51.2 13 C 54.1 13 56.1 10.6 56.1 7.3 C 56.1 4.2 54.1 1.8 51.2 1.8 C 48.3 1.8 46.3 4.2 46.3 7.3 C 46.3 10.6 48.3 13 51.2 13 Z M 68.2 -0.3 L 70.7 -0.3 L 70.7 12.6 L 76.8 12.6 L 76.8 15.1 L 68.2 15.1 L 68.2 -0.3 Z M 83.8 -0.3 L 86 -0.3 L 92.1 15.1 L 89.2 15.1 L 87.9 11.6 L 81.7 11.6 L 80.4 15.1 L 77.6 15.1 L 83.8 -0.3 Z M 87 9.2 L 84.8 3 L 82.6 9.2 L 87 9.2 Z M 101.2 3 C 100.6 2.2 99.7 1.8 98.7 1.8 C 97.5 1.8 96.4 2.3 96.4 3.8 C 96.4 6.9 103.1 5.1 103.1 10.6 C 103.1 13.9 100.7 15.5 97.9 15.5 C 96.1 15.5 94.4 14.9 93.3 13.4 C 93.3 13.4 95.2 11.4 95.2 11.4 C 95.8 12.4 96.8 13 98 13 C 99.1 13 100.4 12.3 100.4 10.9 C 100.4 7.5 93.7 9.5 93.7 4 C 93.7 0.8 96.3 -0.7 98.9 -0.7 C 100.4 -0.7 101.9 -0.2 103 0.9 C 103 0.9 101.2 3 101.2 3 Z M 110.9 -0.3 L 113.1 -0.3 L 119.2 15.1 L 116.3 15.1 L 115 11.6 L 108.8 11.6 L 107.5 15.1 L 104.7 15.1 L 110.9 -0.3 Z M 114.1 9.2 L 111.9 3 L 109.7 9.2 L 114.1 9.2 Z M 121.3 -0.3 L 123.8 -0.3 L 123.8 12.6 L 129.9 12.6 L 129.9 15.1 L 121.3 15.1 L 121.3 -0.3 Z M 133.5 8.5 L 128.2 -0.3 L 131.4 -0.3 L 134.9 5.8 L 138.4 -0.3 L 141.4 -0.3 L 136.1 8.5 L 136.1 15.1 L 133.5 15.1 L 133.5 8.5 Z M 146.4 -0.3 L 148.6 -0.3 L 154.7 15.1 L 151.8 15.1 L 150.5 11.6 L 144.3 11.6 L 143 15.1 L 140.2 15.1 L 146.4 -0.3 Z M 149.6 9.2 L 147.4 3 L 145.2 9.2 L 149.6 9.2 Z M 156.8 -0.3 L 160.2 -0.3 L 167 11.2 L 167.1 11.2 L 167.1 -0.3 L 169.6 -0.3 L 169.6 15.1 L 166.4 15.1 L 159.4 3.3 L 159.3 3.3 L 159.3 15.1 L 156.8 15.1 L 156.8 -0.3 Z M 180.1 -0.7 C 184.5 -0.8 187.6 2.4 187.6 7.4 C 187.6 12.2 184.5 15.4 180.1 15.5 C 175.7 15.5 172.6 12.3 172.6 7.5 C 172.6 2.5 175.7 -0.7 180.1 -0.7 Z M 180.1 13 C 183 13 185 10.6 185 7.3 C 185 4.2 183 1.8 180.1 1.8 C 177.2 1.8 175.2 4.2 175.2 7.3 C 175.2 10.6 177.2 13 180.1 13 Z M 198.8 -1.2 L 198.8 20.6 L 196.7 20.6 L 196.7 -1.2 L 198.8 -1.2 Z M 208.7 -0.3 L 212.5 -0.3 L 216.3 10.5 L 220.1 -0.3 L 223.9 -0.3 L 223.9 15.1 L 221.5 15.1 L 221.5 2.3 L 221.5 2.3 L 217.2 15.1 L 215.4 15.1 L 211.1 2.3 L 211.1 2.3 L 211.1 15.1 L 208.7 15.1 L 208.7 -0.3 Z M 236.3 15.1 L 234 15.1 L 234 13.4 C 234 13.4 233.97 13.44 234 13.4 C 233.5 14.5 232.6 15.4 231 15.4 C 228.5 15.4 227.5 13.4 227.5 11.3 C 227.53 11.26 227.5 4.7 227.5 4.7 L 229.9 4.7 C 229.9 4.7 229.93 9.95 229.9 10 C 229.9 11.1 230 13 231.7 13 C 233.3 13 233.9 11.8 233.9 10.4 C 233.89 10.37 233.9 4.7 233.9 4.7 L 236.3 4.7 L 236.3 15.1 Z M 239.6 -1.4 L 242 -1.4 L 242 15.1 L 239.6 15.1 L 239.6 -1.4 Z M 251.4 13.7 C 251.4 13.7 251.34 13.68 251.3 13.7 C 250.7 14.9 249.5 15.4 248.3 15.4 C 246.5 15.4 244.8 14.3 244.8 12.2 C 244.8 8.8 248.4 8.6 250.8 8.6 C 250.8 8.6 251.4 8.6 251.4 8.6 C 251.4 8.6 251.4 8.32 251.4 8.3 C 251.4 7 250.5 6.4 249.2 6.4 C 248.2 6.4 247.3 6.8 246.6 7.4 C 246.6 7.4 245.4 6.1 245.4 6.1 C 246.4 4.9 247.9 4.4 249.5 4.4 C 253.6 4.4 253.6 7.6 253.6 9.1 C 253.56 9.1 253.6 15.1 253.6 15.1 L 251.4 15.1 L 251.4 13.7 Z M 251.3 10.4 C 251.3 10.4 250.76 10.43 250.8 10.4 C 249.4 10.4 247.2 10.5 247.2 12 C 247.2 13 248.1 13.4 248.8 13.4 C 250.5 13.4 251.3 12.5 251.3 11 C 251.26 11.02 251.3 10.4 251.3 10.4 Z M 268.4 7.6 C 267.9 6.9 267.3 6.5 266.5 6.5 C 265.8 6.5 265.1 6.8 265.1 7.6 C 265.1 9.5 270.3 7.9 270.3 12 C 270.3 14.5 268.1 15.4 266.1 15.4 C 264.6 15.4 263.4 15 262.4 13.8 C 262.4 13.8 264 12.1 264 12.1 C 264.6 12.9 265.2 13.4 266.3 13.4 C 267 13.4 267.9 13 267.9 12.2 C 267.9 10.1 262.7 11.8 262.7 7.8 C 262.7 5.4 264.6 4.4 266.5 4.4 C 267.8 4.4 269.2 4.8 270 6 C 270 6 268.4 7.6 268.4 7.6 Z M 278.7 13.7 C 278.7 13.7 278.65 13.68 278.7 13.7 C 278 14.9 276.9 15.4 275.6 15.4 C 273.8 15.4 272.1 14.3 272.1 12.2 C 272.1 8.8 275.7 8.6 278.1 8.6 C 278.11 8.6 278.7 8.6 278.7 8.6 C 278.7 8.6 278.71 8.32 278.7 8.3 C 278.7 7 277.8 6.4 276.5 6.4 C 275.5 6.4 274.6 6.8 274 7.4 C 274 7.4 272.7 6.1 272.7 6.1 C 273.8 4.9 275.3 4.4 276.8 4.4 C 280.9 4.4 280.9 7.6 280.9 9.1 C 280.87 9.1 280.9 15.1 280.9 15.1 L 278.7 15.1 L 278.7 13.7 Z M 278.6 10.4 C 278.6 10.4 278.07 10.43 278.1 10.4 C 276.8 10.4 274.5 10.5 274.5 12 C 274.5 13 275.4 13.4 276.2 13.4 C 277.8 13.4 278.6 12.5 278.6 11 C 278.57 11.02 278.6 10.4 278.6 10.4 Z M 290.6 4.7 L 292.8 4.7 L 292.8 6.2 C 292.8 6.2 292.87 6.23 292.9 6.2 C 293.6 5 294.8 4.4 296.2 4.4 C 299.1 4.4 300.9 6.8 300.9 9.9 C 300.9 13 299 15.4 296.3 15.4 C 294.5 15.4 293.5 14.5 293 13.8 C 293.01 13.79 293 13.8 293 13.8 L 293 20.1 L 290.6 20.1 L 290.6 4.7 Z M 295.7 6.7 C 293.9 6.7 292.9 8.3 292.9 9.9 C 292.9 11.5 293.9 13 295.7 13 C 297.5 13 298.5 11.5 298.5 9.9 C 298.5 8.3 297.5 6.7 295.7 6.7 Z M 305.3 11.9 C 306.2 11.9 306.9 12.6 306.9 13.6 C 306.9 14.5 306.2 15.3 305.3 15.3 C 304.5 15.3 303.7 14.5 303.7 13.6 C 303.7 12.7 304.5 11.9 305.3 11.9 Z M 313.3 5.9 C 313.3 5.9 313.96 5.9 314 5.9 C 315.3 5.9 316.7 5.7 316.7 3.8 C 316.7 2.6 315.9 1.8 314.7 1.8 C 313.7 1.8 312.9 2.4 312.6 3.5 C 312.6 3.5 310 2.7 310 2.7 C 310.7 0.4 312.5 -0.6 314.6 -0.6 C 317 -0.6 319.1 0.8 319.1 3.5 C 319.1 5.2 318.2 6.6 316.7 7 C 316.7 7 316.7 7.1 316.7 7.1 C 318.5 7.4 319.5 8.9 319.5 10.8 C 319.5 13.8 317.2 15.4 314.7 15.4 C 312.4 15.4 310.4 14.3 309.8 11.8 C 309.8 11.8 312.4 11 312.4 11 C 312.7 12.3 313.4 13 314.7 13 C 316 13 317.1 12 317.1 10.6 C 317.1 8.6 315.4 8.3 313.9 8.3 C 313.92 8.25 313.3 8.3 313.3 8.3 L 313.3 5.9 Z " stroke="none" fill="#fff"/>
  </g>
</svg>