<?xml version="1.0" standalone="no"?>
<!DOCTYPE svg PUBLIC "-//W3C//DTD SVG 1.1//EN" "http://www.w3.org/Graphics/SVG/1.1/DTD/svg11.dtd">
<svg xmlns="http://www.w3.org/2000/svg" version="1.1" width="428px" height="25.5px" viewBox="0 -3 428 25.5" style="top:-3px">
  <desc>Elijah MAHRI Barongan, Jezryl Xavier Genecera, Earth Vicel Angelo Laco, at Jhazmin Joi Manguera</desc>
  <defs/>
  <g id="Polygon20223">
    <path d="M 4.8 1.3 L 2.3 1.3 L 2.3 2.4 L 4.3 2.4 L 4.3 3.4 L 2.3 3.4 L 2.3 4.5 L 4.8 4.5 L 4.8 5.6 L 1 5.6 L 1 0.3 L 4.8 0.3 L 4.8 1.3 Z M 7.2 4.5 L 9.3 4.5 L 9.3 5.6 L 5.9 5.6 L 5.9 0.3 L 7.2 0.3 L 7.2 4.5 Z M 11.5 0.3 L 11.5 5.6 L 10.3 5.6 L 10.3 0.3 L 11.5 0.3 Z M 14.9 0.3 C 14.9 0.3 14.92 4.07 14.9 4.1 C 14.9 4.6 14.8 5 14.5 5.3 C 14.3 5.6 13.8 5.7 13.3 5.7 C 13 5.7 12.7 5.7 12.4 5.6 C 12.4 5.6 12.4 4.6 12.4 4.6 C 12.7 4.6 12.9 4.6 13 4.6 C 13.2 4.6 13.3 4.6 13.4 4.5 C 13.5 4.5 13.6 4.4 13.6 4.3 C 13.7 4.3 13.7 4.1 13.7 3.9 C 13.67 3.92 13.7 0.3 13.7 0.3 L 14.9 0.3 Z M 18.8 0.3 L 20.4 5.6 L 19.1 5.6 L 18.8 4.5 L 17 4.5 L 16.7 5.6 L 15.6 5.6 L 17.3 0.3 L 18.8 0.3 Z M 17.3 3.5 L 18.5 3.5 L 17.9 1.6 L 17.3 3.5 Z M 25.4 0.3 L 25.4 5.6 L 24.2 5.6 L 24.2 3.4 L 22.5 3.4 L 22.5 5.6 L 21.3 5.6 L 21.3 0.3 L 22.5 0.3 L 22.5 2.3 L 24.2 2.3 L 24.2 0.3 L 25.4 0.3 Z M 31.5 5.6 L 30.2 1.3 L 30.2 5.6 L 29.1 5.6 L 29.1 0.3 L 31.1 0.3 L 32 3.5 L 33 0.3 L 35 0.3 L 35 5.6 L 33.7 5.6 L 33.7 1.3 L 32.4 5.6 L 31.5 5.6 Z M 39 0.3 L 40.6 5.6 L 39.3 5.6 L 39 4.5 L 37.2 4.5 L 36.9 5.6 L 35.8 5.6 L 37.5 0.3 L 39 0.3 Z M 37.5 3.5 L 38.7 3.5 L 38.1 1.6 L 37.5 3.5 Z M 45.6 0.3 L 45.6 5.6 L 44.4 5.6 L 44.4 3.4 L 42.8 3.4 L 42.8 5.6 L 41.5 5.6 L 41.5 0.3 L 42.8 0.3 L 42.8 2.3 L 44.4 2.3 L 44.4 0.3 L 45.6 0.3 Z M 48.3 3.5 L 48.3 5.6 L 47 5.6 L 47 0.3 C 47 0.3 49.38 0.27 49.4 0.3 C 49.8 0.3 50.2 0.3 50.4 0.4 C 50.7 0.5 50.9 0.7 51.1 1 C 51.2 1.2 51.3 1.5 51.3 1.9 C 51.3 2.5 51 3 50.4 3.2 C 50.4 3.24 51.4 5.6 51.4 5.6 L 50 5.6 L 49.2 3.5 L 48.3 3.5 Z M 48.3 1.2 L 48.3 2.6 C 48.3 2.6 49.06 2.58 49.1 2.6 C 49.3 2.6 49.5 2.6 49.6 2.5 C 49.7 2.5 49.8 2.4 49.9 2.3 C 50 2.2 50 2 50 1.9 C 50 1.7 50 1.6 49.9 1.5 C 49.8 1.4 49.7 1.3 49.6 1.3 C 49.5 1.2 49.3 1.2 49 1.2 C 49.03 1.22 48.3 1.2 48.3 1.2 Z M 53.9 0.3 L 53.9 5.6 L 52.6 5.6 L 52.6 0.3 L 53.9 0.3 Z M 57.6 0.3 C 57.6 0.3 60.05 0.27 60.1 0.3 C 60.5 0.3 60.8 0.3 61.1 0.4 C 61.3 0.5 61.5 0.7 61.6 0.9 C 61.8 1.1 61.8 1.4 61.8 1.6 C 61.8 2.2 61.5 2.6 60.9 2.8 C 61.2 2.9 61.5 3.1 61.7 3.3 C 61.9 3.6 62 3.8 62 4.1 C 62 4.5 61.8 4.9 61.5 5.2 C 61.2 5.5 60.7 5.6 60.1 5.6 C 60.05 5.6 57.6 5.6 57.6 5.6 L 57.6 0.3 Z M 58.8 1.2 L 58.8 2.4 C 58.8 2.4 59.76 2.38 59.8 2.4 C 60.1 2.4 60.3 2.3 60.4 2.2 C 60.5 2 60.5 1.9 60.5 1.8 C 60.5 1.6 60.5 1.5 60.4 1.4 C 60.4 1.3 60.3 1.3 60.2 1.2 C 60.1 1.2 59.9 1.2 59.7 1.2 C 59.67 1.21 58.8 1.2 58.8 1.2 Z M 58.8 3.3 L 58.8 4.6 C 58.8 4.6 59.77 4.61 59.8 4.6 C 60.1 4.6 60.3 4.6 60.5 4.4 C 60.6 4.3 60.7 4.2 60.7 4 C 60.7 3.8 60.6 3.6 60.5 3.5 C 60.3 3.4 60.1 3.3 59.8 3.3 C 59.83 3.33 58.8 3.3 58.8 3.3 Z M 65.7 0.3 L 67.4 5.6 L 66 5.6 L 65.7 4.5 L 64 4.5 L 63.7 5.6 L 62.6 5.6 L 64.3 0.3 L 65.7 0.3 Z M 64.3 3.5 L 65.4 3.5 L 64.9 1.6 L 64.3 3.5 Z M 69.5 3.5 L 69.5 5.6 L 68.3 5.6 L 68.3 0.3 C 68.3 0.3 70.63 0.27 70.6 0.3 C 71.1 0.3 71.4 0.3 71.7 0.4 C 71.9 0.5 72.1 0.7 72.3 1 C 72.5 1.2 72.6 1.5 72.6 1.9 C 72.6 2.5 72.3 3 71.6 3.2 C 71.65 3.24 72.6 5.6 72.6 5.6 L 71.3 5.6 L 70.4 3.5 L 69.5 3.5 Z M 69.5 1.2 L 69.5 2.6 C 69.5 2.6 70.31 2.58 70.3 2.6 C 70.6 2.6 70.7 2.6 70.9 2.5 C 71 2.5 71.1 2.4 71.2 2.3 C 71.2 2.2 71.3 2 71.3 1.9 C 71.3 1.7 71.2 1.6 71.2 1.5 C 71.1 1.4 71 1.3 70.9 1.3 C 70.8 1.2 70.6 1.2 70.3 1.2 C 70.28 1.22 69.5 1.2 69.5 1.2 Z M 75.8 5.7 C 75 5.7 74.5 5.4 74.1 4.9 C 73.7 4.3 73.5 3.7 73.5 2.9 C 73.5 2.1 73.7 1.5 74.1 1 C 74.5 0.4 75.1 0.2 75.8 0.2 C 76.5 0.2 77.1 0.5 77.5 1 C 77.9 1.6 78.1 2.2 78.1 2.9 C 78.1 3.7 77.9 4.4 77.5 4.9 C 77.1 5.4 76.5 5.7 75.8 5.7 Z M 76.7 2.9 C 76.7 1.8 76.4 1.2 75.8 1.2 C 75.1 1.2 74.8 1.8 74.8 2.9 C 74.8 4.1 75.1 4.7 75.8 4.7 C 76.4 4.7 76.7 4.1 76.7 2.9 C 76.7 2.9 76.7 2.9 76.7 2.9 Z M 83.3 0.3 L 83.3 5.6 L 82.2 5.6 C 82.2 5.6 80.14 2 80.1 2 C 80.1 2.1 80.1 2.2 80.1 2.2 C 80.2 2.3 80.2 2.3 80.2 2.4 C 80.16 2.41 80.2 5.6 80.2 5.6 L 79.2 5.6 L 79.2 0.3 L 80.5 0.3 C 80.5 0.3 82.35 3.41 82.3 3.4 C 82.3 3.3 82.3 3.1 82.3 3.1 C 82.32 3.06 82.3 0.3 82.3 0.3 L 83.3 0.3 Z M 88.8 2.8 L 88.8 5.6 C 88.8 5.6 88.26 5.6 88.3 5.6 C 88.2 5.4 88.2 5.2 88.1 5 C 87.7 5.5 87.2 5.7 86.6 5.7 C 85.9 5.7 85.4 5.4 85 4.9 C 84.6 4.4 84.4 3.8 84.4 3 C 84.4 2.2 84.6 1.5 85 1 C 85.5 0.4 86 0.2 86.7 0.2 C 87.3 0.2 87.8 0.4 88.2 0.7 C 88.5 1 88.8 1.5 88.8 2 C 88.8 2 87.6 2.2 87.6 2.2 C 87.5 1.5 87.2 1.2 86.7 1.2 C 86.4 1.2 86.1 1.4 86 1.7 C 85.8 2 85.7 2.4 85.7 3 C 85.7 3.5 85.8 3.9 86 4.2 C 86.2 4.5 86.4 4.7 86.8 4.7 C 87 4.7 87.2 4.6 87.4 4.4 C 87.6 4.3 87.6 4.1 87.6 3.7 C 87.64 3.75 86.6 3.7 86.6 3.7 L 86.6 2.8 L 88.8 2.8 Z M 92.8 0.3 L 94.5 5.6 L 93.1 5.6 L 92.8 4.5 L 91.1 4.5 L 90.7 5.6 L 89.6 5.6 L 91.4 0.3 L 92.8 0.3 Z M 91.4 3.5 L 92.5 3.5 L 91.9 1.6 L 91.4 3.5 Z M 99.5 0.3 L 99.5 5.6 L 98.4 5.6 C 98.4 5.6 96.32 2 96.3 2 C 96.3 2.1 96.3 2.2 96.3 2.2 C 96.3 2.3 96.3 2.3 96.3 2.4 C 96.34 2.41 96.3 5.6 96.3 5.6 L 95.4 5.6 L 95.4 0.3 L 96.7 0.3 C 96.7 0.3 98.53 3.41 98.5 3.4 C 98.5 3.3 98.5 3.1 98.5 3.1 C 98.5 3.06 98.5 0.3 98.5 0.3 L 99.5 0.3 Z M 102 4.4 L 102 5.5 L 101.2 6.8 L 100.8 6.8 L 101.4 5.6 L 100.8 5.6 L 100.8 4.4 L 102 4.4 Z M 107.7 0.3 C 107.7 0.3 107.65 4.07 107.7 4.1 C 107.7 4.6 107.5 5 107.3 5.3 C 107 5.6 106.6 5.7 106 5.7 C 105.7 5.7 105.4 5.7 105.1 5.6 C 105.1 5.6 105.1 4.6 105.1 4.6 C 105.4 4.6 105.6 4.6 105.8 4.6 C 105.9 4.6 106.1 4.6 106.1 4.5 C 106.2 4.5 106.3 4.4 106.3 4.3 C 106.4 4.3 106.4 4.1 106.4 3.9 C 106.41 3.92 106.4 0.3 106.4 0.3 L 107.7 0.3 Z M 112.8 1.3 L 110.3 1.3 L 110.3 2.4 L 112.3 2.4 L 112.3 3.4 L 110.3 3.4 L 110.3 4.5 L 112.8 4.5 L 112.8 5.6 L 109 5.6 L 109 0.3 L 112.8 0.3 L 112.8 1.3 Z M 117.7 1.2 L 115 4.6 L 117.8 4.6 L 117.8 5.6 L 113.5 5.6 L 113.5 4.7 L 116.2 1.3 L 113.7 1.3 L 113.7 0.3 L 117.7 0.3 L 117.7 1.2 Z M 120.1 3.5 L 120.1 5.6 L 118.8 5.6 L 118.8 0.3 C 118.8 0.3 121.15 0.27 121.2 0.3 C 121.6 0.3 121.9 0.3 122.2 0.4 C 122.5 0.5 122.7 0.7 122.8 1 C 123 1.2 123.1 1.5 123.1 1.9 C 123.1 2.5 122.8 3 122.2 3.2 C 122.18 3.24 123.2 5.6 123.2 5.6 L 121.8 5.6 L 121 3.5 L 120.1 3.5 Z M 120.1 1.2 L 120.1 2.6 C 120.1 2.6 120.83 2.58 120.8 2.6 C 121.1 2.6 121.3 2.6 121.4 2.5 C 121.5 2.5 121.6 2.4 121.7 2.3 C 121.8 2.2 121.8 2 121.8 1.9 C 121.8 1.7 121.8 1.6 121.7 1.5 C 121.6 1.4 121.5 1.3 121.4 1.3 C 121.3 1.2 121.1 1.2 120.8 1.2 C 120.81 1.22 120.1 1.2 120.1 1.2 Z M 128.1 0.3 L 126.4 3.4 L 126.4 5.6 L 125.2 5.6 L 125.2 3.4 L 123.5 0.3 L 125 0.3 L 126 2.3 L 127 0.3 L 128.1 0.3 Z M 130 4.5 L 132.1 4.5 L 132.1 5.6 L 128.8 5.6 L 128.8 0.3 L 130 0.3 L 130 4.5 Z M 139.5 0.3 L 138 2.7 L 139.7 5.6 L 138.2 5.6 L 137.2 3.7 L 136.1 5.6 L 134.9 5.6 L 136.6 2.8 L 135.1 0.3 L 136.5 0.3 L 137.4 1.9 L 138.3 0.3 L 139.5 0.3 Z M 143.2 0.3 L 144.8 5.6 L 143.5 5.6 L 143.2 4.5 L 141.4 4.5 L 141.1 5.6 L 140 5.6 L 141.7 0.3 L 143.2 0.3 Z M 141.7 3.5 L 142.9 3.5 L 142.3 1.6 L 141.7 3.5 Z M 149.4 0.3 L 147.8 5.6 L 146.5 5.6 L 144.9 0.3 L 146.2 0.3 L 147.3 4.1 L 148.4 0.3 L 149.4 0.3 Z M 151.5 0.3 L 151.5 5.6 L 150.2 5.6 L 150.2 0.3 L 151.5 0.3 Z M 156.7 1.3 L 154.1 1.3 L 154.1 2.4 L 156.1 2.4 L 156.1 3.4 L 154.1 3.4 L 154.1 4.5 L 156.7 4.5 L 156.7 5.6 L 152.9 5.6 L 152.9 0.3 L 156.7 0.3 L 156.7 1.3 Z M 159 3.5 L 159 5.6 L 157.7 5.6 L 157.7 0.3 C 157.7 0.3 160.09 0.27 160.1 0.3 C 160.5 0.3 160.9 0.3 161.1 0.4 C 161.4 0.5 161.6 0.7 161.8 1 C 162 1.2 162 1.5 162 1.9 C 162 2.5 161.7 3 161.1 3.2 C 161.12 3.24 162.1 5.6 162.1 5.6 L 160.7 5.6 L 159.9 3.5 L 159 3.5 Z M 159 1.2 L 159 2.6 C 159 2.6 159.77 2.58 159.8 2.6 C 160 2.6 160.2 2.6 160.3 2.5 C 160.4 2.5 160.5 2.4 160.6 2.3 C 160.7 2.2 160.8 2 160.8 1.9 C 160.8 1.7 160.7 1.6 160.6 1.5 C 160.5 1.4 160.4 1.3 160.3 1.3 C 160.2 1.2 160 1.2 159.7 1.2 C 159.74 1.22 159 1.2 159 1.2 Z M 169.8 2.8 L 169.8 5.6 C 169.8 5.6 169.23 5.6 169.2 5.6 C 169.2 5.4 169.1 5.2 169.1 5 C 168.7 5.5 168.2 5.7 167.6 5.7 C 166.9 5.7 166.4 5.4 166 4.9 C 165.6 4.4 165.4 3.8 165.4 3 C 165.4 2.2 165.6 1.5 166 1 C 166.4 0.4 167 0.2 167.7 0.2 C 168.3 0.2 168.8 0.4 169.1 0.7 C 169.5 1 169.7 1.5 169.8 2 C 169.8 2 168.6 2.2 168.6 2.2 C 168.5 1.5 168.2 1.2 167.7 1.2 C 167.4 1.2 167.1 1.4 166.9 1.7 C 166.8 2 166.7 2.4 166.7 3 C 166.7 3.5 166.8 3.9 166.9 4.2 C 167.1 4.5 167.4 4.7 167.7 4.7 C 168 4.7 168.2 4.6 168.3 4.4 C 168.5 4.3 168.6 4.1 168.6 3.7 C 168.61 3.75 167.6 3.7 167.6 3.7 L 167.6 2.8 L 169.8 2.8 Z M 174.9 1.3 L 172.4 1.3 L 172.4 2.4 L 174.4 2.4 L 174.4 3.4 L 172.4 3.4 L 172.4 4.5 L 174.9 4.5 L 174.9 5.6 L 171.1 5.6 L 171.1 0.3 L 174.9 0.3 L 174.9 1.3 Z M 180.1 0.3 L 180.1 5.6 L 179 5.6 C 179 5.6 176.93 2 176.9 2 C 176.9 2.1 176.9 2.2 176.9 2.2 C 176.9 2.3 177 2.3 177 2.4 C 176.95 2.41 177 5.6 177 5.6 L 176 5.6 L 176 0.3 L 177.3 0.3 C 177.3 0.3 179.14 3.41 179.1 3.4 C 179.1 3.3 179.1 3.1 179.1 3.1 C 179.12 3.06 179.1 0.3 179.1 0.3 L 180.1 0.3 Z M 185.3 1.3 L 182.7 1.3 L 182.7 2.4 L 184.7 2.4 L 184.7 3.4 L 182.7 3.4 L 182.7 4.5 L 185.3 4.5 L 185.3 5.6 L 181.5 5.6 L 181.5 0.3 L 185.3 0.3 L 185.3 1.3 Z M 188.5 0.2 C 189.8 0.2 190.5 0.9 190.7 2.3 C 190.7 2.3 189.3 2.3 189.3 2.3 C 189.3 1.6 189 1.2 188.5 1.2 C 187.8 1.2 187.5 1.8 187.5 2.9 C 187.5 3.6 187.6 4.1 187.8 4.3 C 187.9 4.5 188.2 4.7 188.5 4.7 C 189 4.7 189.3 4.3 189.4 3.7 C 189.4 3.7 190.7 3.7 190.7 3.7 C 190.6 4.4 190.3 4.9 189.9 5.2 C 189.5 5.5 189.1 5.7 188.5 5.7 C 187.8 5.7 187.2 5.4 186.8 5 C 186.3 4.5 186.1 3.8 186.1 2.9 C 186.1 2.1 186.3 1.5 186.7 1 C 187.2 0.4 187.7 0.2 188.5 0.2 C 188.5 0.2 188.5 0.2 188.5 0.2 Z M 195.5 1.3 L 193 1.3 L 193 2.4 L 195 2.4 L 195 3.4 L 193 3.4 L 193 4.5 L 195.5 4.5 L 195.5 5.6 L 191.7 5.6 L 191.7 0.3 L 195.5 0.3 L 195.5 1.3 Z M 197.8 3.5 L 197.8 5.6 L 196.6 5.6 L 196.6 0.3 C 196.6 0.3 198.91 0.27 198.9 0.3 C 199.3 0.3 199.7 0.3 200 0.4 C 200.2 0.5 200.4 0.7 200.6 1 C 200.8 1.2 200.9 1.5 200.9 1.9 C 200.9 2.5 200.6 3 199.9 3.2 C 199.94 3.24 200.9 5.6 200.9 5.6 L 199.5 5.6 L 198.7 3.5 L 197.8 3.5 Z M 197.8 1.2 L 197.8 2.6 C 197.8 2.6 198.59 2.58 198.6 2.6 C 198.8 2.6 199 2.6 199.1 2.5 C 199.3 2.5 199.4 2.4 199.4 2.3 C 199.5 2.2 199.6 2 199.6 1.9 C 199.6 1.7 199.5 1.6 199.4 1.5 C 199.4 1.4 199.3 1.3 199.2 1.3 C 199 1.2 198.9 1.2 198.6 1.2 C 198.57 1.22 197.8 1.2 197.8 1.2 Z M 204.8 0.3 L 206.4 5.6 L 205.1 5.6 L 204.8 4.5 L 203 4.5 L 202.7 5.6 L 201.6 5.6 L 203.3 0.3 L 204.8 0.3 Z M 203.3 3.5 L 204.5 3.5 L 203.9 1.6 L 203.3 3.5 Z M 208.6 4.4 L 208.6 5.5 L 207.8 6.8 L 207.4 6.8 L 208 5.6 L 207.4 5.6 L 207.4 4.4 L 208.6 4.4 Z M 216 1.3 L 213.5 1.3 L 213.5 2.4 L 215.5 2.4 L 215.5 3.4 L 213.5 3.4 L 213.5 4.5 L 216 4.5 L 216 5.6 L 212.2 5.6 L 212.2 0.3 L 216 0.3 L 216 1.3 Z M 219.7 0.3 L 221.4 5.6 L 220 5.6 L 219.7 4.5 L 218 4.5 L 217.7 5.6 L 216.6 5.6 L 218.3 0.3 L 219.7 0.3 Z M 218.3 3.5 L 219.4 3.5 L 218.9 1.6 L 218.3 3.5 Z M 223.5 3.5 L 223.5 5.6 L 222.3 5.6 L 222.3 0.3 C 222.3 0.3 224.62 0.27 224.6 0.3 C 225.1 0.3 225.4 0.3 225.7 0.4 C 225.9 0.5 226.1 0.7 226.3 1 C 226.5 1.2 226.6 1.5 226.6 1.9 C 226.6 2.5 226.3 3 225.6 3.2 C 225.64 3.24 226.6 5.6 226.6 5.6 L 225.2 5.6 L 224.4 3.5 L 223.5 3.5 Z M 223.5 1.2 L 223.5 2.6 C 223.5 2.6 224.3 2.58 224.3 2.6 C 224.5 2.6 224.7 2.6 224.8 2.5 C 225 2.5 225.1 2.4 225.1 2.3 C 225.2 2.2 225.3 2 225.3 1.9 C 225.3 1.7 225.2 1.6 225.1 1.5 C 225.1 1.4 225 1.3 224.9 1.3 C 224.8 1.2 224.6 1.2 224.3 1.2 C 224.27 1.22 223.5 1.2 223.5 1.2 Z M 231.2 0.3 L 231.2 1.3 L 229.9 1.3 L 229.9 5.6 L 228.6 5.6 L 228.6 1.3 L 227.3 1.3 L 227.3 0.3 L 231.2 0.3 Z M 236.2 0.3 L 236.2 5.6 L 235 5.6 L 235 3.4 L 233.3 3.4 L 233.3 5.6 L 232.1 5.6 L 232.1 0.3 L 233.3 0.3 L 233.3 2.3 L 235 2.3 L 235 0.3 L 236.2 0.3 Z M 243.9 0.3 L 242.3 5.6 L 240.9 5.6 L 239.3 0.3 L 240.7 0.3 L 241.7 4.1 L 242.8 0.3 L 243.9 0.3 Z M 245.9 0.3 L 245.9 5.6 L 244.7 5.6 L 244.7 0.3 L 245.9 0.3 Z M 249.5 0.2 C 250.7 0.2 251.5 0.9 251.6 2.3 C 251.6 2.3 250.3 2.3 250.3 2.3 C 250.3 1.6 250 1.2 249.4 1.2 C 248.8 1.2 248.4 1.8 248.4 2.9 C 248.4 3.6 248.5 4.1 248.7 4.3 C 248.9 4.5 249.1 4.7 249.5 4.7 C 250 4.7 250.3 4.3 250.4 3.7 C 250.4 3.7 251.6 3.7 251.6 3.7 C 251.5 4.4 251.3 4.9 250.9 5.2 C 250.5 5.5 250 5.7 249.4 5.7 C 248.7 5.7 248.2 5.4 247.7 5 C 247.3 4.5 247.1 3.8 247.1 2.9 C 247.1 2.1 247.3 1.5 247.7 1 C 248.1 0.4 248.7 0.2 249.5 0.2 C 249.5 0.2 249.5 0.2 249.5 0.2 Z M 256.5 1.3 L 253.9 1.3 L 253.9 2.4 L 255.9 2.4 L 255.9 3.4 L 253.9 3.4 L 253.9 4.5 L 256.5 4.5 L 256.5 5.6 L 252.7 5.6 L 252.7 0.3 L 256.5 0.3 L 256.5 1.3 Z M 258.8 4.5 L 260.9 4.5 L 260.9 5.6 L 257.5 5.6 L 257.5 0.3 L 258.8 0.3 L 258.8 4.5 Z M 266.8 0.3 L 268.5 5.6 L 267.1 5.6 L 266.8 4.5 L 265.1 4.5 L 264.8 5.6 L 263.7 5.6 L 265.4 0.3 L 266.8 0.3 Z M 265.4 3.5 L 266.5 3.5 L 266 1.6 L 265.4 3.5 Z M 273.5 0.3 L 273.5 5.6 L 272.4 5.6 C 272.4 5.6 270.33 2 270.3 2 C 270.3 2.1 270.3 2.2 270.3 2.2 C 270.4 2.3 270.4 2.3 270.4 2.4 C 270.36 2.41 270.4 5.6 270.4 5.6 L 269.4 5.6 L 269.4 0.3 L 270.7 0.3 C 270.7 0.3 272.55 3.41 272.5 3.4 C 272.5 3.3 272.5 3.1 272.5 3.1 C 272.52 3.06 272.5 0.3 272.5 0.3 L 273.5 0.3 Z M 279 2.8 L 279 5.6 C 279 5.6 278.46 5.6 278.5 5.6 C 278.4 5.4 278.4 5.2 278.3 5 C 277.9 5.5 277.4 5.7 276.8 5.7 C 276.1 5.7 275.6 5.4 275.2 4.9 C 274.8 4.4 274.6 3.8 274.6 3 C 274.6 2.2 274.8 1.5 275.2 1 C 275.7 0.4 276.2 0.2 276.9 0.2 C 277.5 0.2 278 0.4 278.4 0.7 C 278.7 1 278.9 1.5 279 2 C 279 2 277.8 2.2 277.8 2.2 C 277.7 1.5 277.4 1.2 276.9 1.2 C 276.6 1.2 276.3 1.4 276.2 1.7 C 276 2 275.9 2.4 275.9 3 C 275.9 3.5 276 3.9 276.2 4.2 C 276.4 4.5 276.6 4.7 277 4.7 C 277.2 4.7 277.4 4.6 277.6 4.4 C 277.8 4.3 277.8 4.1 277.8 3.7 C 277.84 3.75 276.8 3.7 276.8 3.7 L 276.8 2.8 L 279 2.8 Z M 284.1 1.3 L 281.6 1.3 L 281.6 2.4 L 283.6 2.4 L 283.6 3.4 L 281.6 3.4 L 281.6 4.5 L 284.1 4.5 L 284.1 5.6 L 280.3 5.6 L 280.3 0.3 L 284.1 0.3 L 284.1 1.3 Z M 286.5 4.5 L 288.6 4.5 L 288.6 5.6 L 285.2 5.6 L 285.2 0.3 L 286.5 0.3 L 286.5 4.5 Z M 291.5 5.7 C 290.8 5.7 290.2 5.4 289.8 4.9 C 289.4 4.3 289.2 3.7 289.2 2.9 C 289.2 2.1 289.4 1.5 289.8 1 C 290.2 0.4 290.8 0.2 291.5 0.2 C 292.3 0.2 292.8 0.5 293.2 1 C 293.6 1.6 293.8 2.2 293.8 2.9 C 293.8 3.7 293.6 4.4 293.2 4.9 C 292.8 5.4 292.2 5.7 291.5 5.7 Z M 292.5 2.9 C 292.5 1.8 292.2 1.2 291.5 1.2 C 290.9 1.2 290.5 1.8 290.5 2.9 C 290.5 4.1 290.9 4.7 291.5 4.7 C 292.2 4.7 292.5 4.1 292.5 2.9 C 292.5 2.9 292.5 2.9 292.5 2.9 Z M 298.5 4.5 L 300.6 4.5 L 300.6 5.6 L 297.2 5.6 L 297.2 0.3 L 298.5 0.3 L 298.5 4.5 Z M 304.2 0.3 L 305.9 5.6 L 304.5 5.6 L 304.2 4.5 L 302.5 4.5 L 302.1 5.6 L 301 5.6 L 302.8 0.3 L 304.2 0.3 Z M 302.8 3.5 L 303.9 3.5 L 303.3 1.6 L 302.8 3.5 Z M 308.7 0.2 C 310 0.2 310.7 0.9 310.9 2.3 C 310.9 2.3 309.6 2.3 309.6 2.3 C 309.6 1.6 309.3 1.2 308.7 1.2 C 308 1.2 307.7 1.8 307.7 2.9 C 307.7 3.6 307.8 4.1 308 4.3 C 308.2 4.5 308.4 4.7 308.7 4.7 C 309.2 4.7 309.6 4.3 309.7 3.7 C 309.7 3.7 310.9 3.7 310.9 3.7 C 310.8 4.4 310.6 4.9 310.2 5.2 C 309.8 5.5 309.3 5.7 308.7 5.7 C 308 5.7 307.4 5.4 307 5 C 306.6 4.5 306.3 3.8 306.3 2.9 C 306.3 2.1 306.5 1.5 307 1 C 307.4 0.4 308 0.2 308.7 0.2 C 308.7 0.2 308.7 0.2 308.7 0.2 Z M 313.9 5.7 C 313.2 5.7 312.7 5.4 312.3 4.9 C 311.9 4.3 311.7 3.7 311.7 2.9 C 311.7 2.1 311.9 1.5 312.3 1 C 312.7 0.4 313.2 0.2 314 0.2 C 314.7 0.2 315.3 0.5 315.7 1 C 316 1.6 316.2 2.2 316.2 2.9 C 316.2 3.7 316 4.4 315.6 4.9 C 315.3 5.4 314.7 5.7 313.9 5.7 Z M 314.9 2.9 C 314.9 1.8 314.6 1.2 314 1.2 C 313.3 1.2 313 1.8 313 2.9 C 313 4.1 313.3 4.7 314 4.7 C 314.6 4.7 314.9 4.1 314.9 2.9 C 314.9 2.9 314.9 2.9 314.9 2.9 Z M 318.5 4.4 L 318.5 5.5 L 317.7 6.8 L 317.2 6.8 L 317.9 5.6 L 317.2 5.6 L 317.2 4.4 L 318.5 4.4 Z M 324.7 0.3 L 326.4 5.6 L 325 5.6 L 324.7 4.5 L 323 4.5 L 322.6 5.6 L 321.5 5.6 L 323.2 0.3 L 324.7 0.3 Z M 323.3 3.5 L 324.4 3.5 L 323.8 1.6 L 323.3 3.5 Z M 330.2 0.3 L 330.2 1.3 L 328.9 1.3 L 328.9 5.6 L 327.6 5.6 L 327.6 1.3 L 326.3 1.3 L 326.3 0.3 L 330.2 0.3 Z M 335.4 0.3 C 335.4 0.3 335.42 4.07 335.4 4.1 C 335.4 4.6 335.3 5 335 5.3 C 334.8 5.6 334.3 5.7 333.8 5.7 C 333.5 5.7 333.2 5.7 332.9 5.6 C 332.9 5.6 332.9 4.6 332.9 4.6 C 333.2 4.6 333.4 4.6 333.5 4.6 C 333.7 4.6 333.8 4.6 333.9 4.5 C 334 4.5 334.1 4.4 334.1 4.3 C 334.2 4.3 334.2 4.1 334.2 3.9 C 334.18 3.92 334.2 0.3 334.2 0.3 L 335.4 0.3 Z M 340.9 0.3 L 340.9 5.6 L 339.7 5.6 L 339.7 3.4 L 338 3.4 L 338 5.6 L 336.8 5.6 L 336.8 0.3 L 338 0.3 L 338 2.3 L 339.7 2.3 L 339.7 0.3 L 340.9 0.3 Z M 344.9 0.3 L 346.6 5.6 L 345.2 5.6 L 344.9 4.5 L 343.2 4.5 L 342.8 5.6 L 341.7 5.6 L 343.4 0.3 L 344.9 0.3 Z M 343.5 3.5 L 344.6 3.5 L 344 1.6 L 343.5 3.5 Z M 351.3 1.2 L 348.6 4.6 L 351.4 4.6 L 351.4 5.6 L 347.1 5.6 L 347.1 4.7 L 349.8 1.3 L 347.3 1.3 L 347.3 0.3 L 351.3 0.3 L 351.3 1.2 Z M 354.8 5.6 L 353.4 1.3 L 353.4 5.6 L 352.4 5.6 L 352.4 0.3 L 354.3 0.3 L 355.3 3.5 L 356.3 0.3 L 358.2 0.3 L 358.2 5.6 L 357 5.6 L 357 1.3 L 355.6 5.6 L 354.8 5.6 Z M 360.8 0.3 L 360.8 5.6 L 359.6 5.6 L 359.6 0.3 L 360.8 0.3 Z M 366.3 0.3 L 366.3 5.6 L 365.3 5.6 C 365.3 5.6 363.18 2 363.2 2 C 363.2 2.1 363.2 2.2 363.2 2.2 C 363.2 2.3 363.2 2.3 363.2 2.4 C 363.2 2.41 363.2 5.6 363.2 5.6 L 362.2 5.6 L 362.2 0.3 L 363.6 0.3 C 363.6 0.3 365.39 3.41 365.4 3.4 C 365.4 3.3 365.4 3.1 365.4 3.1 C 365.37 3.06 365.4 0.3 365.4 0.3 L 366.3 0.3 Z M 372.1 0.3 C 372.1 0.3 372.07 4.07 372.1 4.1 C 372.1 4.6 371.9 5 371.7 5.3 C 371.4 5.6 371 5.7 370.4 5.7 C 370.1 5.7 369.9 5.7 369.6 5.6 C 369.6 5.6 369.6 4.6 369.6 4.6 C 369.8 4.6 370 4.6 370.2 4.6 C 370.4 4.6 370.5 4.6 370.6 4.5 C 370.7 4.5 370.7 4.4 370.8 4.3 C 370.8 4.3 370.8 4.1 370.8 3.9 C 370.83 3.92 370.8 0.3 370.8 0.3 L 372.1 0.3 Z M 375.4 5.7 C 374.7 5.7 374.1 5.4 373.7 4.9 C 373.4 4.3 373.2 3.7 373.2 2.9 C 373.2 2.1 373.4 1.5 373.8 1 C 374.2 0.4 374.7 0.2 375.5 0.2 C 376.2 0.2 376.8 0.5 377.1 1 C 377.5 1.6 377.7 2.2 377.7 2.9 C 377.7 3.7 377.5 4.4 377.1 4.9 C 376.7 5.4 376.2 5.7 375.4 5.7 Z M 376.4 2.9 C 376.4 1.8 376.1 1.2 375.4 1.2 C 374.8 1.2 374.5 1.8 374.5 2.9 C 374.5 4.1 374.8 4.7 375.4 4.7 C 376.1 4.7 376.4 4.1 376.4 2.9 C 376.4 2.9 376.4 2.9 376.4 2.9 Z M 380.1 0.3 L 380.1 5.6 L 378.8 5.6 L 378.8 0.3 L 380.1 0.3 Z M 386.2 5.6 L 384.8 1.3 L 384.8 5.6 L 383.8 5.6 L 383.8 0.3 L 385.7 0.3 L 386.7 3.5 L 387.7 0.3 L 389.6 0.3 L 389.6 5.6 L 388.4 5.6 L 388.4 1.3 L 387 5.6 L 386.2 5.6 Z M 393.6 0.3 L 395.3 5.6 L 393.9 5.6 L 393.6 4.5 L 391.9 4.5 L 391.6 5.6 L 390.5 5.6 L 392.2 0.3 L 393.6 0.3 Z M 392.2 3.5 L 393.3 3.5 L 392.8 1.6 L 392.2 3.5 Z M 400.3 0.3 L 400.3 5.6 L 399.2 5.6 C 399.2 5.6 397.13 2 397.1 2 C 397.1 2.1 397.1 2.2 397.1 2.2 C 397.1 2.3 397.2 2.3 397.2 2.4 C 397.15 2.41 397.2 5.6 397.2 5.6 L 396.2 5.6 L 396.2 0.3 L 397.5 0.3 C 397.5 0.3 399.34 3.41 399.3 3.4 C 399.3 3.3 399.3 3.1 399.3 3.1 C 399.32 3.06 399.3 0.3 399.3 0.3 L 400.3 0.3 Z M 405.8 2.8 L 405.8 5.6 C 405.8 5.6 405.26 5.6 405.3 5.6 C 405.2 5.4 405.2 5.2 405.1 5 C 404.7 5.5 404.2 5.7 403.6 5.7 C 402.9 5.7 402.4 5.4 402 4.9 C 401.6 4.4 401.4 3.8 401.4 3 C 401.4 2.2 401.6 1.5 402 1 C 402.5 0.4 403 0.2 403.7 0.2 C 404.3 0.2 404.8 0.4 405.2 0.7 C 405.5 1 405.7 1.5 405.8 2 C 405.8 2 404.6 2.2 404.6 2.2 C 404.5 1.5 404.2 1.2 403.7 1.2 C 403.4 1.2 403.1 1.4 403 1.7 C 402.8 2 402.7 2.4 402.7 3 C 402.7 3.5 402.8 3.9 403 4.2 C 403.2 4.5 403.4 4.7 403.8 4.7 C 404 4.7 404.2 4.6 404.4 4.4 C 404.6 4.3 404.6 4.1 404.6 3.7 C 404.64 3.75 403.6 3.7 403.6 3.7 L 403.6 2.8 L 405.8 2.8 Z M 411.3 0.3 C 411.3 0.3 411.33 3.59 411.3 3.6 C 411.3 4.1 411.3 4.5 411.1 4.8 C 411 5 410.8 5.3 410.5 5.4 C 410.1 5.6 409.7 5.7 409.2 5.7 C 408.7 5.7 408.3 5.6 408 5.5 C 407.7 5.3 407.5 5.1 407.3 4.8 C 407.2 4.5 407.1 4.1 407.1 3.6 C 407.08 3.59 407.1 0.3 407.1 0.3 L 408.4 0.3 C 408.4 0.3 408.43 3.59 408.4 3.6 C 408.4 3.9 408.5 4.1 408.5 4.2 C 408.6 4.4 408.6 4.5 408.8 4.5 C 408.9 4.6 409.1 4.7 409.3 4.7 C 409.6 4.7 409.8 4.6 409.9 4.5 C 410 4.5 410.1 4.4 410.2 4.2 C 410.2 4.1 410.3 3.9 410.3 3.6 C 410.26 3.59 410.3 0.3 410.3 0.3 L 411.3 0.3 Z M 416.5 1.3 L 413.9 1.3 L 413.9 2.4 L 415.9 2.4 L 415.9 3.4 L 413.9 3.4 L 413.9 4.5 L 416.5 4.5 L 416.5 5.6 L 412.6 5.6 L 412.6 0.3 L 416.5 0.3 L 416.5 1.3 Z M 418.8 3.5 L 418.8 5.6 L 417.5 5.6 L 417.5 0.3 C 417.5 0.3 419.87 0.27 419.9 0.3 C 420.3 0.3 420.6 0.3 420.9 0.4 C 421.2 0.5 421.4 0.7 421.6 1 C 421.7 1.2 421.8 1.5 421.8 1.9 C 421.8 2.5 421.5 3 420.9 3.2 C 420.89 3.24 421.9 5.6 421.9 5.6 L 420.5 5.6 L 419.7 3.5 L 418.8 3.5 Z M 418.8 1.2 L 418.8 2.6 C 418.8 2.6 419.55 2.58 419.5 2.6 C 419.8 2.6 420 2.6 420.1 2.5 C 420.2 2.5 420.3 2.4 420.4 2.3 C 420.5 2.2 420.5 2 420.5 1.9 C 420.5 1.7 420.5 1.6 420.4 1.5 C 420.3 1.4 420.2 1.3 420.1 1.3 C 420 1.2 419.8 1.2 419.5 1.2 C 419.52 1.22 418.8 1.2 418.8 1.2 Z M 425.7 0.3 L 427.4 5.6 L 426 5.6 L 425.7 4.5 L 424 4.5 L 423.7 5.6 L 422.6 5.6 L 424.3 0.3 L 425.7 0.3 Z M 424.3 3.5 L 425.4 3.5 L 424.9 1.6 L 424.3 3.5 Z " stroke="none" fill="#000"/>
  </g>
</svg>