<?xml version="1.0" standalone="no"?>
<!DOCTYPE svg PUBLIC "-//W3C//DTD SVG 1.1//EN" "http://www.w3.org/Graphics/SVG/1.1/DTD/svg11.dtd">
<svg xmlns="http://www.w3.org/2000/svg" version="1.1" width="337.3px" height="13.7px" viewBox="0 -3 337.3 13.7" style="top:-3px">
  <desc>Patnugot ng BUHAY AT KULTURA: MA ROSELLE ALZAGA Layout artist: RIZZA JOYCE MONTOYA</desc>
  <defs/>
  <g id="Polygon26700">
    <path d="M 1.7 2.7 C 1.7 2.7 2.04 2.71 2 2.7 C 2.4 2.7 2.6 2.6 2.8 2.5 C 2.9 2.4 3 2.2 3 2 C 3 1.7 2.9 1.5 2.8 1.4 C 2.7 1.3 2.5 1.2 2.2 1.2 C 2.17 1.23 1.7 1.2 1.7 1.2 L 1.7 2.7 Z M 4.1 1.9 C 4.1 2.5 3.9 2.9 3.6 3.2 C 3.2 3.4 2.8 3.6 2.1 3.6 C 2.14 3.58 1.7 3.6 1.7 3.6 L 1.7 5.4 L 0.6 5.4 L 0.6 0.4 C 0.6 0.4 2.23 0.36 2.2 0.4 C 2.8 0.4 3.3 0.5 3.6 0.8 C 3.9 1 4.1 1.4 4.1 1.9 Z M 7.9 5.4 L 7.6 4.2 L 5.8 4.2 L 5.4 5.4 L 4.3 5.4 L 6 0.3 L 7.3 0.3 L 9.1 5.4 L 7.9 5.4 Z M 7.3 3.3 C 7 2.2 6.8 1.6 6.8 1.4 C 6.7 1.3 6.7 1.2 6.7 1.1 C 6.6 1.4 6.4 2.1 6 3.3 C 6 3.3 7.3 3.3 7.3 3.3 Z M 11.5 5.4 L 10.4 5.4 L 10.4 1.2 L 9.1 1.2 L 9.1 0.4 L 12.9 0.4 L 12.9 1.2 L 11.5 1.2 L 11.5 5.4 Z M 17.9 5.4 L 16.6 5.4 L 14.4 1.6 C 14.4 1.6 14.37 1.58 14.4 1.6 C 14.4 2.2 14.4 2.7 14.4 3 C 14.43 3 14.4 5.4 14.4 5.4 L 13.5 5.4 L 13.5 0.4 L 14.8 0.4 L 17 4.1 C 17 4.1 17.02 4.1 17 4.1 C 17 3.5 17 3 17 2.7 C 16.97 2.72 17 0.4 17 0.4 L 17.9 0.4 L 17.9 5.4 Z M 23.1 0.4 C 23.1 0.4 23.11 3.59 23.1 3.6 C 23.1 4 23 4.3 22.9 4.6 C 22.7 4.8 22.5 5.1 22.1 5.2 C 21.8 5.4 21.5 5.4 21 5.4 C 20.4 5.4 19.9 5.3 19.5 4.9 C 19.2 4.6 19 4.2 19 3.6 C 19 3.58 19 0.4 19 0.4 L 20.1 0.4 C 20.1 0.4 20.06 3.42 20.1 3.4 C 20.1 3.8 20.1 4.1 20.3 4.3 C 20.4 4.4 20.7 4.5 21.1 4.5 C 21.4 4.5 21.7 4.4 21.8 4.3 C 22 4.1 22 3.8 22 3.4 C 22.05 3.41 22 0.4 22 0.4 L 23.1 0.4 Z M 26.1 2.5 L 28.1 2.5 C 28.1 2.5 28.07 5.14 28.1 5.1 C 27.7 5.2 27.4 5.3 27.2 5.4 C 26.9 5.4 26.6 5.4 26.3 5.4 C 25.5 5.4 25 5.2 24.6 4.8 C 24.2 4.3 24 3.7 24 2.9 C 24 2 24.2 1.4 24.7 1 C 25.1 0.5 25.8 0.3 26.6 0.3 C 27.1 0.3 27.6 0.4 28.1 0.6 C 28.1 0.6 27.7 1.4 27.7 1.4 C 27.3 1.3 27 1.2 26.6 1.2 C 26.1 1.2 25.7 1.3 25.5 1.6 C 25.2 1.9 25.1 2.4 25.1 2.9 C 25.1 3.4 25.2 3.8 25.4 4.1 C 25.6 4.4 25.9 4.5 26.4 4.5 C 26.6 4.5 26.8 4.5 27 4.5 C 27.03 4.47 27 3.4 27 3.4 L 26.1 3.4 L 26.1 2.5 Z M 33.7 2.9 C 33.7 3.7 33.4 4.3 33 4.8 C 32.6 5.2 32 5.4 31.3 5.4 C 30.5 5.4 29.9 5.2 29.5 4.8 C 29.1 4.3 28.9 3.7 28.9 2.8 C 28.9 2 29.1 1.4 29.5 0.9 C 29.9 0.5 30.5 0.3 31.3 0.3 C 32 0.3 32.6 0.5 33 0.9 C 33.5 1.4 33.7 2 33.7 2.9 Z M 30 2.9 C 30 3.4 30.1 3.8 30.3 4.1 C 30.5 4.4 30.9 4.5 31.3 4.5 C 32.1 4.5 32.5 4 32.5 2.9 C 32.5 1.7 32.1 1.2 31.3 1.2 C 30.9 1.2 30.5 1.3 30.3 1.6 C 30.1 1.9 30 2.3 30 2.9 Z M 36.5 5.4 L 35.4 5.4 L 35.4 1.2 L 34.1 1.2 L 34.1 0.4 L 37.8 0.4 L 37.8 1.2 L 36.5 1.2 L 36.5 5.4 Z M 44.6 5.4 L 43.2 5.4 L 41 1.6 C 41 1.6 41.02 1.58 41 1.6 C 41.1 2.2 41.1 2.7 41.1 3 C 41.08 3 41.1 5.4 41.1 5.4 L 40.1 5.4 L 40.1 0.4 L 41.5 0.4 L 43.6 4.1 C 43.6 4.1 43.67 4.1 43.7 4.1 C 43.6 3.5 43.6 3 43.6 2.7 C 43.61 2.72 43.6 0.4 43.6 0.4 L 44.6 0.4 L 44.6 5.4 Z M 47.6 2.5 L 49.6 2.5 C 49.6 2.5 49.57 5.14 49.6 5.1 C 49.2 5.2 48.9 5.3 48.7 5.4 C 48.4 5.4 48.1 5.4 47.8 5.4 C 47 5.4 46.5 5.2 46.1 4.8 C 45.7 4.3 45.5 3.7 45.5 2.9 C 45.5 2 45.7 1.4 46.2 1 C 46.6 0.5 47.3 0.3 48.1 0.3 C 48.6 0.3 49.1 0.4 49.6 0.6 C 49.6 0.6 49.2 1.4 49.2 1.4 C 48.8 1.3 48.5 1.2 48.1 1.2 C 47.6 1.2 47.2 1.3 47 1.6 C 46.7 1.9 46.6 2.4 46.6 2.9 C 46.6 3.4 46.7 3.8 46.9 4.1 C 47.1 4.4 47.4 4.5 47.9 4.5 C 48.1 4.5 48.3 4.5 48.5 4.5 C 48.53 4.47 48.5 3.4 48.5 3.4 L 47.6 3.4 L 47.6 2.5 Z M 52.3 0.4 C 52.3 0.4 53.84 0.36 53.8 0.4 C 54.5 0.4 55.1 0.5 55.4 0.7 C 55.7 0.9 55.9 1.2 55.9 1.6 C 55.9 1.9 55.8 2.2 55.7 2.4 C 55.5 2.5 55.3 2.7 55.1 2.7 C 55.1 2.7 55.1 2.7 55.1 2.7 C 55.4 2.8 55.6 2.9 55.8 3.1 C 55.9 3.3 56 3.6 56 3.9 C 56 4.4 55.8 4.7 55.5 5 C 55.2 5.2 54.7 5.4 54.2 5.4 C 54.16 5.36 52.3 5.4 52.3 5.4 L 52.3 0.4 Z M 53.3 2.3 C 53.3 2.3 53.96 2.34 54 2.3 C 54.2 2.3 54.5 2.3 54.6 2.2 C 54.7 2.1 54.8 2 54.8 1.8 C 54.8 1.6 54.7 1.4 54.6 1.4 C 54.4 1.3 54.2 1.2 53.9 1.2 C 53.9 1.23 53.3 1.2 53.3 1.2 L 53.3 2.3 Z M 53.3 3.2 L 53.3 4.5 C 53.3 4.5 54.04 4.48 54 4.5 C 54.3 4.5 54.5 4.4 54.7 4.3 C 54.8 4.2 54.9 4 54.9 3.8 C 54.9 3.4 54.6 3.2 54 3.2 C 54 3.18 53.3 3.2 53.3 3.2 Z M 60.9 0.4 C 60.9 0.4 60.92 3.59 60.9 3.6 C 60.9 4 60.8 4.3 60.7 4.6 C 60.5 4.8 60.3 5.1 60 5.2 C 59.6 5.4 59.3 5.4 58.8 5.4 C 58.2 5.4 57.7 5.3 57.3 4.9 C 57 4.6 56.8 4.2 56.8 3.6 C 56.81 3.58 56.8 0.4 56.8 0.4 L 57.9 0.4 C 57.9 0.4 57.87 3.42 57.9 3.4 C 57.9 3.8 57.9 4.1 58.1 4.3 C 58.3 4.4 58.5 4.5 58.9 4.5 C 59.2 4.5 59.5 4.4 59.6 4.3 C 59.8 4.1 59.9 3.8 59.9 3.4 C 59.86 3.41 59.9 0.4 59.9 0.4 L 60.9 0.4 Z M 66.1 5.4 L 65 5.4 L 65 3.2 L 63.1 3.2 L 63.1 5.4 L 62 5.4 L 62 0.4 L 63.1 0.4 L 63.1 2.3 L 65 2.3 L 65 0.4 L 66.1 0.4 L 66.1 5.4 Z M 70.3 5.4 L 69.9 4.2 L 68.1 4.2 L 67.7 5.4 L 66.6 5.4 L 68.4 0.3 L 69.6 0.3 L 71.4 5.4 L 70.3 5.4 Z M 69.7 3.3 C 69.3 2.2 69.1 1.6 69.1 1.4 C 69.1 1.3 69 1.2 69 1.1 C 68.9 1.4 68.7 2.1 68.4 3.3 C 68.4 3.3 69.7 3.3 69.7 3.3 Z M 73.5 2.4 L 74.5 0.4 L 75.6 0.4 L 74 3.4 L 74 5.4 L 72.9 5.4 L 72.9 3.4 L 71.3 0.4 L 72.4 0.4 L 73.5 2.4 Z M 80.9 5.4 L 80.5 4.2 L 78.7 4.2 L 78.3 5.4 L 77.2 5.4 L 78.9 0.3 L 80.2 0.3 L 82 5.4 L 80.9 5.4 Z M 80.2 3.3 C 79.9 2.2 79.7 1.6 79.7 1.4 C 79.6 1.3 79.6 1.2 79.6 1.1 C 79.5 1.4 79.3 2.1 78.9 3.3 C 78.9 3.3 80.2 3.3 80.2 3.3 Z M 84.4 5.4 L 83.4 5.4 L 83.4 1.2 L 82 1.2 L 82 0.4 L 85.8 0.4 L 85.8 1.2 L 84.4 1.2 L 84.4 5.4 Z M 92.1 5.4 L 90.9 5.4 L 89.6 3.3 L 89.1 3.6 L 89.1 5.4 L 88.1 5.4 L 88.1 0.4 L 89.1 0.4 L 89.1 2.6 L 89.6 2.1 L 90.9 0.4 L 92.1 0.4 L 90.3 2.6 L 92.1 5.4 Z M 96.7 0.4 C 96.7 0.4 96.66 3.59 96.7 3.6 C 96.7 4 96.6 4.3 96.4 4.6 C 96.2 4.8 96 5.1 95.7 5.2 C 95.4 5.4 95 5.4 94.6 5.4 C 93.9 5.4 93.4 5.3 93.1 4.9 C 92.7 4.6 92.6 4.2 92.6 3.6 C 92.55 3.58 92.6 0.4 92.6 0.4 L 93.6 0.4 C 93.6 0.4 93.61 3.42 93.6 3.4 C 93.6 3.8 93.7 4.1 93.8 4.3 C 94 4.4 94.3 4.5 94.6 4.5 C 95 4.5 95.2 4.4 95.4 4.3 C 95.5 4.1 95.6 3.8 95.6 3.4 C 95.6 3.41 95.6 0.4 95.6 0.4 L 96.7 0.4 Z M 97.7 5.4 L 97.7 0.4 L 98.8 0.4 L 98.8 4.5 L 100.8 4.5 L 100.8 5.4 L 97.7 5.4 Z M 103.5 5.4 L 102.4 5.4 L 102.4 1.2 L 101.1 1.2 L 101.1 0.4 L 104.8 0.4 L 104.8 1.2 L 103.5 1.2 L 103.5 5.4 Z M 109.5 0.4 C 109.5 0.4 109.53 3.59 109.5 3.6 C 109.5 4 109.5 4.3 109.3 4.6 C 109.1 4.8 108.9 5.1 108.6 5.2 C 108.3 5.4 107.9 5.4 107.5 5.4 C 106.8 5.4 106.3 5.3 106 4.9 C 105.6 4.6 105.4 4.2 105.4 3.6 C 105.43 3.58 105.4 0.4 105.4 0.4 L 106.5 0.4 C 106.5 0.4 106.49 3.42 106.5 3.4 C 106.5 3.8 106.6 4.1 106.7 4.3 C 106.9 4.4 107.1 4.5 107.5 4.5 C 107.8 4.5 108.1 4.4 108.2 4.3 C 108.4 4.1 108.5 3.8 108.5 3.4 C 108.48 3.41 108.5 0.4 108.5 0.4 L 109.5 0.4 Z M 111.7 2.6 C 111.7 2.6 112.02 2.58 112 2.6 C 112.4 2.6 112.6 2.5 112.8 2.4 C 112.9 2.3 113 2.1 113 1.9 C 113 1.6 112.9 1.5 112.8 1.4 C 112.6 1.3 112.3 1.2 112 1.2 C 112 1.23 111.7 1.2 111.7 1.2 L 111.7 2.6 Z M 111.7 3.4 L 111.7 5.4 L 110.6 5.4 L 110.6 0.4 C 110.6 0.4 112.07 0.36 112.1 0.4 C 112.8 0.4 113.3 0.5 113.6 0.7 C 113.9 1 114.1 1.4 114.1 1.9 C 114.1 2.1 114 2.4 113.8 2.6 C 113.7 2.9 113.4 3 113.1 3.2 C 113.9 4.3 114.4 5 114.6 5.4 C 114.61 5.36 113.4 5.4 113.4 5.4 L 112.2 3.4 L 111.7 3.4 Z M 118.2 5.4 L 117.8 4.2 L 116 4.2 L 115.6 5.4 L 114.5 5.4 L 116.2 0.3 L 117.5 0.3 L 119.3 5.4 L 118.2 5.4 Z M 117.5 3.3 C 117.2 2.2 117 1.6 117 1.4 C 116.9 1.3 116.9 1.2 116.9 1.1 C 116.8 1.4 116.6 2.1 116.2 3.3 C 116.2 3.3 117.5 3.3 117.5 3.3 Z M 119.6 4.9 C 119.6 4.7 119.6 4.5 119.7 4.4 C 119.8 4.3 120 4.3 120.2 4.3 C 120.4 4.3 120.5 4.3 120.6 4.4 C 120.7 4.5 120.8 4.7 120.8 4.9 C 120.8 5 120.7 5.2 120.6 5.3 C 120.5 5.4 120.3 5.4 120.2 5.4 C 120 5.4 119.8 5.4 119.7 5.3 C 119.6 5.2 119.6 5.1 119.6 4.9 Z M 119.6 2 C 119.6 1.9 119.6 1.7 119.7 1.6 C 119.8 1.5 120 1.5 120.2 1.5 C 120.4 1.5 120.5 1.5 120.6 1.6 C 120.7 1.7 120.8 1.9 120.8 2 C 120.8 2.2 120.7 2.4 120.6 2.5 C 120.5 2.6 120.3 2.6 120.2 2.6 C 120 2.6 119.8 2.6 119.7 2.5 C 119.6 2.4 119.6 2.2 119.6 2 Z M 128.9 5.4 L 127.1 0.7 C 127.1 0.7 127.05 0.74 127 0.7 C 127.1 1 127.1 1.3 127.1 1.6 C 127.07 1.61 127.1 5.4 127.1 5.4 L 126.7 5.4 L 126.7 0.4 L 127.3 0.4 L 129 4.8 L 129.1 4.8 L 130.8 0.4 L 131.4 0.4 L 131.4 5.4 L 131 5.4 C 131 5.4 131.01 1.57 131 1.6 C 131 1.3 131 1 131.1 0.7 C 131.05 0.75 131 0.7 131 0.7 L 129.2 5.4 L 128.9 5.4 Z M 135.3 3.6 L 133.3 3.6 L 132.6 5.4 L 132.2 5.4 L 134.2 0.3 L 134.4 0.3 L 136.4 5.4 L 136 5.4 L 135.3 3.6 Z M 133.4 3.3 L 135.2 3.3 C 135.2 3.3 134.53 1.48 134.5 1.5 C 134.5 1.3 134.4 1.1 134.3 0.9 C 134.3 1.1 134.2 1.3 134.1 1.5 C 134.12 1.48 133.4 3.3 133.4 3.3 Z M 137.4 5.4 C 137.2 5.4 137.1 5.3 137.1 5.1 C 137.1 4.9 137.2 4.8 137.4 4.8 C 137.6 4.8 137.7 4.9 137.7 5.1 C 137.7 5.3 137.6 5.4 137.4 5.4 C 137.4 5.4 137.4 5.4 137.4 5.4 Z M 141.4 3.2 L 141.4 5.4 L 141 5.4 L 141 0.4 C 141 0.4 142.2 0.36 142.2 0.4 C 142.8 0.4 143.3 0.5 143.6 0.7 C 143.9 0.9 144 1.3 144 1.7 C 144 2.1 143.9 2.4 143.8 2.6 C 143.6 2.8 143.3 3 143 3.1 C 142.95 3.08 144.3 5.4 144.3 5.4 L 143.9 5.4 L 142.6 3.2 L 141.4 3.2 Z M 141.4 2.9 C 141.4 2.9 142.32 2.88 142.3 2.9 C 142.7 2.9 143.1 2.8 143.3 2.6 C 143.5 2.4 143.6 2.1 143.6 1.8 C 143.6 1.4 143.5 1.1 143.3 0.9 C 143.1 0.8 142.7 0.7 142.2 0.7 C 142.19 0.67 141.4 0.7 141.4 0.7 L 141.4 2.9 Z M 149.5 2.9 C 149.5 3.6 149.3 4.3 148.9 4.7 C 148.5 5.2 148 5.4 147.3 5.4 C 146.6 5.4 146 5.2 145.6 4.7 C 145.2 4.3 145 3.6 145 2.8 C 145 2 145.2 1.4 145.6 1 C 146 0.5 146.6 0.3 147.3 0.3 C 148 0.3 148.5 0.5 148.9 1 C 149.3 1.4 149.5 2.1 149.5 2.9 Z M 145.4 2.9 C 145.4 3.6 145.6 4.1 145.9 4.5 C 146.2 4.9 146.7 5.1 147.3 5.1 C 147.9 5.1 148.3 4.9 148.7 4.5 C 149 4.1 149.1 3.6 149.1 2.9 C 149.1 2.1 149 1.6 148.7 1.2 C 148.3 0.8 147.9 0.6 147.3 0.6 C 146.7 0.6 146.2 0.8 145.9 1.2 C 145.6 1.6 145.4 2.1 145.4 2.9 Z M 153.6 4.1 C 153.6 4.5 153.4 4.8 153.1 5.1 C 152.8 5.3 152.4 5.4 151.9 5.4 C 151.3 5.4 150.8 5.4 150.5 5.2 C 150.5 5.2 150.5 4.9 150.5 4.9 C 150.8 5 151.3 5.1 151.9 5.1 C 152.3 5.1 152.6 5 152.8 4.8 C 153.1 4.6 153.2 4.4 153.2 4.1 C 153.2 3.9 153.1 3.7 153.1 3.6 C 153 3.5 152.9 3.4 152.7 3.3 C 152.5 3.2 152.2 3.1 151.9 2.9 C 151.4 2.8 151 2.6 150.8 2.4 C 150.6 2.2 150.5 1.9 150.5 1.6 C 150.5 1.2 150.7 0.9 151 0.6 C 151.3 0.4 151.6 0.3 152.1 0.3 C 152.6 0.3 153 0.4 153.4 0.6 C 153.4 0.6 153.3 0.9 153.3 0.9 C 152.9 0.7 152.5 0.6 152.1 0.6 C 151.7 0.6 151.4 0.7 151.2 0.9 C 151 1 150.9 1.3 150.9 1.5 C 150.9 1.7 150.9 1.9 151 2 C 151.1 2.1 151.2 2.2 151.3 2.3 C 151.5 2.4 151.7 2.5 152.1 2.7 C 152.5 2.8 152.8 2.9 153 3.1 C 153.2 3.2 153.3 3.3 153.4 3.5 C 153.5 3.6 153.6 3.8 153.6 4.1 Z M 157.5 5.4 L 154.8 5.4 L 154.8 0.4 L 157.5 0.4 L 157.5 0.7 L 155.1 0.7 L 155.1 2.6 L 157.4 2.6 L 157.4 2.9 L 155.1 2.9 L 155.1 5 L 157.5 5 L 157.5 5.4 Z M 158.8 5.4 L 158.8 0.4 L 159.1 0.4 L 159.1 5 L 161.5 5 L 161.5 5.4 L 158.8 5.4 Z M 162.5 5.4 L 162.5 0.4 L 162.8 0.4 L 162.8 5 L 165.2 5 L 165.2 5.4 L 162.5 5.4 Z M 169 5.4 L 166.2 5.4 L 166.2 0.4 L 169 0.4 L 169 0.7 L 166.6 0.7 L 166.6 2.6 L 168.8 2.6 L 168.8 2.9 L 166.6 2.9 L 166.6 5 L 169 5 L 169 5.4 Z M 174.6 3.6 L 172.6 3.6 L 171.9 5.4 L 171.5 5.4 L 173.5 0.3 L 173.7 0.3 L 175.7 5.4 L 175.3 5.4 L 174.6 3.6 Z M 172.7 3.3 L 174.5 3.3 C 174.5 3.3 173.79 1.48 173.8 1.5 C 173.7 1.3 173.7 1.1 173.6 0.9 C 173.5 1.1 173.5 1.3 173.4 1.5 C 173.38 1.48 172.7 3.3 172.7 3.3 Z M 176.5 5.4 L 176.5 0.4 L 176.9 0.4 L 176.9 5 L 179.2 5 L 179.2 5.4 L 176.5 5.4 Z M 183.3 5.4 L 179.8 5.4 L 179.8 5.1 L 182.7 0.7 L 180 0.7 L 180 0.4 L 183.2 0.4 L 183.2 0.6 L 180.3 5 L 183.3 5 L 183.3 5.4 Z M 186.8 3.6 L 184.8 3.6 L 184.1 5.4 L 183.7 5.4 L 185.7 0.3 L 185.9 0.3 L 187.9 5.4 L 187.5 5.4 L 186.8 3.6 Z M 184.9 3.3 L 186.7 3.3 C 186.7 3.3 186.03 1.48 186 1.5 C 186 1.3 185.9 1.1 185.8 0.9 C 185.8 1.1 185.7 1.3 185.6 1.5 C 185.63 1.48 184.9 3.3 184.9 3.3 Z M 190.7 2.8 L 192.6 2.8 C 192.6 2.8 192.57 5.12 192.6 5.1 C 192.1 5.3 191.5 5.4 190.9 5.4 C 190.2 5.4 189.5 5.2 189.1 4.8 C 188.7 4.3 188.5 3.7 188.5 2.9 C 188.5 2.4 188.6 1.9 188.8 1.5 C 189 1.1 189.3 0.8 189.7 0.6 C 190.1 0.4 190.5 0.3 191 0.3 C 191.6 0.3 192.1 0.4 192.5 0.6 C 192.5 0.6 192.4 0.9 192.4 0.9 C 191.9 0.7 191.5 0.6 191 0.6 C 190.4 0.6 189.8 0.8 189.5 1.2 C 189.1 1.6 188.9 2.2 188.9 2.9 C 188.9 3.6 189.1 4.2 189.4 4.5 C 189.8 4.9 190.3 5.1 191 5.1 C 191.5 5.1 191.9 5.1 192.2 4.9 C 192.22 4.92 192.2 3.2 192.2 3.2 L 190.7 3.2 L 190.7 2.8 Z M 196.4 3.6 L 194.3 3.6 L 193.6 5.4 L 193.3 5.4 L 195.3 0.3 L 195.5 0.3 L 197.5 5.4 L 197.1 5.4 L 196.4 3.6 Z M 194.5 3.3 L 196.3 3.3 C 196.3 3.3 195.58 1.48 195.6 1.5 C 195.5 1.3 195.5 1.1 195.4 0.9 C 195.3 1.1 195.2 1.3 195.2 1.5 C 195.17 1.48 194.5 3.3 194.5 3.3 Z M 202.6 5.4 L 202.6 0.4 L 203.7 0.4 L 203.7 4.5 L 205.7 4.5 L 205.7 5.4 L 202.6 5.4 Z M 209.5 5.4 L 209.1 4.2 L 207.3 4.2 L 206.9 5.4 L 205.8 5.4 L 207.6 0.3 L 208.9 0.3 L 210.6 5.4 L 209.5 5.4 Z M 208.9 3.3 C 208.5 2.2 208.4 1.6 208.3 1.4 C 208.3 1.3 208.2 1.2 208.2 1.1 C 208.1 1.4 207.9 2.1 207.6 3.3 C 207.6 3.3 208.9 3.3 208.9 3.3 Z M 212.7 2.4 L 213.7 0.4 L 214.9 0.4 L 213.2 3.4 L 213.2 5.4 L 212.2 5.4 L 212.2 3.4 L 210.5 0.4 L 211.6 0.4 L 212.7 2.4 Z M 219.9 2.9 C 219.9 3.7 219.7 4.3 219.3 4.8 C 218.9 5.2 218.3 5.4 217.5 5.4 C 216.7 5.4 216.2 5.2 215.7 4.8 C 215.3 4.3 215.1 3.7 215.1 2.8 C 215.1 2 215.3 1.4 215.7 0.9 C 216.2 0.5 216.8 0.3 217.5 0.3 C 218.3 0.3 218.9 0.5 219.3 0.9 C 219.7 1.4 219.9 2 219.9 2.9 Z M 216.2 2.9 C 216.2 3.4 216.3 3.8 216.6 4.1 C 216.8 4.4 217.1 4.5 217.5 4.5 C 218.4 4.5 218.8 4 218.8 2.9 C 218.8 1.7 218.4 1.2 217.5 1.2 C 217.1 1.2 216.8 1.3 216.6 1.6 C 216.4 1.9 216.2 2.3 216.2 2.9 Z M 224.9 0.4 C 224.9 0.4 224.85 3.59 224.9 3.6 C 224.9 4 224.8 4.3 224.6 4.6 C 224.4 4.8 224.2 5.1 223.9 5.2 C 223.6 5.4 223.2 5.4 222.8 5.4 C 222.1 5.4 221.6 5.3 221.3 4.9 C 220.9 4.6 220.8 4.2 220.8 3.6 C 220.75 3.58 220.8 0.4 220.8 0.4 L 221.8 0.4 C 221.8 0.4 221.81 3.42 221.8 3.4 C 221.8 3.8 221.9 4.1 222 4.3 C 222.2 4.4 222.5 4.5 222.8 4.5 C 223.2 4.5 223.4 4.4 223.6 4.3 C 223.7 4.1 223.8 3.8 223.8 3.4 C 223.8 3.41 223.8 0.4 223.8 0.4 L 224.9 0.4 Z M 227.9 5.4 L 226.8 5.4 L 226.8 1.2 L 225.4 1.2 L 225.4 0.4 L 229.2 0.4 L 229.2 1.2 L 227.9 1.2 L 227.9 5.4 Z M 234.6 5.4 L 234.2 4.2 L 232.4 4.2 L 232 5.4 L 230.9 5.4 L 232.7 0.3 L 234 0.3 L 235.7 5.4 L 234.6 5.4 Z M 234 3.3 C 233.6 2.2 233.4 1.6 233.4 1.4 C 233.4 1.3 233.3 1.2 233.3 1.1 C 233.2 1.4 233 2.1 232.7 3.3 C 232.7 3.3 234 3.3 234 3.3 Z M 237.3 2.6 C 237.3 2.6 237.61 2.58 237.6 2.6 C 237.9 2.6 238.2 2.5 238.4 2.4 C 238.5 2.3 238.6 2.1 238.6 1.9 C 238.6 1.6 238.5 1.5 238.3 1.4 C 238.2 1.3 237.9 1.2 237.6 1.2 C 237.59 1.23 237.3 1.2 237.3 1.2 L 237.3 2.6 Z M 237.3 3.4 L 237.3 5.4 L 236.2 5.4 L 236.2 0.4 C 236.2 0.4 237.67 0.36 237.7 0.4 C 238.3 0.4 238.8 0.5 239.2 0.7 C 239.5 1 239.7 1.4 239.7 1.9 C 239.7 2.1 239.6 2.4 239.4 2.6 C 239.3 2.9 239 3 238.7 3.2 C 239.5 4.3 240 5 240.2 5.4 C 240.2 5.36 239 5.4 239 5.4 L 237.8 3.4 L 237.3 3.4 Z M 242.6 5.4 L 241.6 5.4 L 241.6 1.2 L 240.2 1.2 L 240.2 0.4 L 244 0.4 L 244 1.2 L 242.6 1.2 L 242.6 5.4 Z M 244.6 5.4 L 244.6 0.4 L 245.7 0.4 L 245.7 5.4 L 244.6 5.4 Z M 249.7 4 C 249.7 4.4 249.6 4.8 249.2 5 C 248.9 5.3 248.5 5.4 247.9 5.4 C 247.4 5.4 246.9 5.3 246.5 5.1 C 246.5 5.1 246.5 4.1 246.5 4.1 C 246.8 4.3 247.1 4.4 247.3 4.5 C 247.6 4.5 247.8 4.5 248 4.5 C 248.2 4.5 248.4 4.5 248.5 4.4 C 248.6 4.3 248.7 4.2 248.7 4 C 248.7 3.9 248.7 3.8 248.6 3.8 C 248.6 3.7 248.5 3.6 248.4 3.5 C 248.3 3.5 248 3.4 247.7 3.2 C 247.4 3.1 247.2 2.9 247 2.8 C 246.9 2.7 246.8 2.5 246.7 2.3 C 246.6 2.1 246.5 1.9 246.5 1.7 C 246.5 1.3 246.7 0.9 247 0.7 C 247.3 0.4 247.7 0.3 248.2 0.3 C 248.5 0.3 248.7 0.3 249 0.4 C 249.2 0.4 249.5 0.5 249.7 0.6 C 249.7 0.6 249.4 1.5 249.4 1.5 C 249.1 1.4 248.9 1.3 248.7 1.2 C 248.5 1.2 248.4 1.2 248.2 1.2 C 248 1.2 247.8 1.2 247.7 1.3 C 247.6 1.4 247.6 1.5 247.6 1.7 C 247.6 1.8 247.6 1.8 247.6 1.9 C 247.7 2 247.7 2.1 247.8 2.1 C 247.9 2.2 248.2 2.3 248.5 2.5 C 249 2.7 249.3 2.9 249.5 3.1 C 249.6 3.4 249.7 3.6 249.7 4 Z M 252.4 5.4 L 251.4 5.4 L 251.4 1.2 L 250 1.2 L 250 0.4 L 253.8 0.4 L 253.8 1.2 L 252.4 1.2 L 252.4 5.4 Z M 254.2 4.9 C 254.2 4.7 254.2 4.5 254.3 4.4 C 254.4 4.3 254.6 4.3 254.8 4.3 C 255 4.3 255.1 4.3 255.2 4.4 C 255.3 4.5 255.4 4.7 255.4 4.9 C 255.4 5 255.3 5.2 255.2 5.3 C 255.1 5.4 255 5.4 254.8 5.4 C 254.6 5.4 254.4 5.4 254.3 5.3 C 254.2 5.2 254.2 5.1 254.2 4.9 Z M 254.2 2 C 254.2 1.9 254.2 1.7 254.3 1.6 C 254.4 1.5 254.6 1.5 254.8 1.5 C 255 1.5 255.1 1.5 255.2 1.6 C 255.3 1.7 255.4 1.9 255.4 2 C 255.4 2.2 255.3 2.4 255.2 2.5 C 255.1 2.6 255 2.6 254.8 2.6 C 254.6 2.6 254.4 2.6 254.3 2.5 C 254.2 2.4 254.2 2.2 254.2 2 Z M 261.7 3.2 L 261.7 5.4 L 261.4 5.4 L 261.4 0.4 C 261.4 0.4 262.55 0.36 262.6 0.4 C 263.2 0.4 263.6 0.5 263.9 0.7 C 264.2 0.9 264.4 1.3 264.4 1.7 C 264.4 2.1 264.3 2.4 264.1 2.6 C 263.9 2.8 263.7 3 263.3 3.1 C 263.3 3.08 264.7 5.4 264.7 5.4 L 264.2 5.4 L 263 3.2 L 261.7 3.2 Z M 261.7 2.9 C 261.7 2.9 262.66 2.88 262.7 2.9 C 263.1 2.9 263.4 2.8 263.6 2.6 C 263.9 2.4 264 2.1 264 1.8 C 264 1.4 263.9 1.1 263.7 0.9 C 263.4 0.8 263.1 0.7 262.5 0.7 C 262.54 0.67 261.7 0.7 261.7 0.7 L 261.7 2.9 Z M 265.7 5.4 L 265.7 0.4 L 266 0.4 L 266 5.4 L 265.7 5.4 Z M 270.6 5.4 L 267.1 5.4 L 267.1 5.1 L 270.1 0.7 L 267.3 0.7 L 267.3 0.4 L 270.5 0.4 L 270.5 0.6 L 267.6 5 L 270.6 5 L 270.6 5.4 Z M 274.8 5.4 L 271.3 5.4 L 271.3 5.1 L 274.2 0.7 L 271.4 0.7 L 271.4 0.4 L 274.7 0.4 L 274.7 0.6 L 271.8 5 L 274.8 5 L 274.8 5.4 Z M 278.3 3.6 L 276.3 3.6 L 275.6 5.4 L 275.2 5.4 L 277.2 0.3 L 277.4 0.3 L 279.4 5.4 L 279 5.4 L 278.3 3.6 Z M 276.4 3.3 L 278.2 3.3 C 278.2 3.3 277.52 1.48 277.5 1.5 C 277.5 1.3 277.4 1.1 277.3 0.9 C 277.3 1.1 277.2 1.3 277.1 1.5 C 277.11 1.48 276.4 3.3 276.4 3.3 Z M 282.6 5.4 C 282.6 6.2 282.2 6.6 281.4 6.6 C 281.2 6.6 281 6.6 280.9 6.5 C 280.9 6.5 280.9 6.2 280.9 6.2 C 281 6.3 281.2 6.3 281.4 6.3 C 281.9 6.3 282.2 6 282.2 5.4 C 282.2 5.39 282.2 0.4 282.2 0.4 L 282.6 0.4 L 282.6 5.4 C 282.6 5.4 282.55 5.36 282.6 5.4 Z M 288.3 2.9 C 288.3 3.6 288.1 4.3 287.7 4.7 C 287.3 5.2 286.7 5.4 286 5.4 C 285.3 5.4 284.8 5.2 284.4 4.7 C 284 4.3 283.8 3.6 283.8 2.8 C 283.8 2 284 1.4 284.4 1 C 284.8 0.5 285.4 0.3 286 0.3 C 286.7 0.3 287.3 0.5 287.7 1 C 288.1 1.4 288.3 2.1 288.3 2.9 Z M 284.2 2.9 C 284.2 3.6 284.3 4.1 284.7 4.5 C 285 4.9 285.4 5.1 286 5.1 C 286.6 5.1 287.1 4.9 287.4 4.5 C 287.7 4.1 287.9 3.6 287.9 2.9 C 287.9 2.1 287.7 1.6 287.4 1.2 C 287.1 0.8 286.6 0.6 286 0.6 C 285.5 0.6 285 0.8 284.7 1.2 C 284.3 1.6 284.2 2.1 284.2 2.9 Z M 290.7 3.1 L 292.2 0.4 L 292.5 0.4 L 290.9 3.4 L 290.9 5.4 L 290.5 5.4 L 290.5 3.5 L 288.9 0.4 L 289.3 0.4 L 290.7 3.1 Z M 296.7 0.9 C 296.3 0.7 295.9 0.6 295.5 0.6 C 294.9 0.6 294.4 0.8 294 1.2 C 293.7 1.6 293.5 2.2 293.5 2.9 C 293.5 3.6 293.7 4.1 294 4.5 C 294.4 4.9 294.8 5.1 295.5 5.1 C 295.9 5.1 296.3 5 296.6 4.9 C 296.6 4.9 296.6 5.3 296.6 5.3 C 296.3 5.4 295.9 5.4 295.4 5.4 C 294.7 5.4 294.1 5.2 293.7 4.7 C 293.3 4.3 293.1 3.7 293.1 2.8 C 293.1 2.3 293.2 1.9 293.4 1.5 C 293.6 1.1 293.9 0.8 294.2 0.6 C 294.6 0.4 295 0.3 295.5 0.3 C 296 0.3 296.4 0.4 296.8 0.6 C 296.82 0.56 296.7 0.9 296.7 0.9 C 296.7 0.9 296.68 0.88 296.7 0.9 Z M 300.6 5.4 L 297.9 5.4 L 297.9 0.4 L 300.6 0.4 L 300.6 0.7 L 298.2 0.7 L 298.2 2.6 L 300.5 2.6 L 300.5 2.9 L 298.2 2.9 L 298.2 5 L 300.6 5 L 300.6 5.4 Z M 306 5.4 L 304.2 0.7 C 304.2 0.7 304.15 0.74 304.1 0.7 C 304.2 1 304.2 1.3 304.2 1.6 C 304.17 1.61 304.2 5.4 304.2 5.4 L 303.8 5.4 L 303.8 0.4 L 304.4 0.4 L 306.1 4.8 L 306.2 4.8 L 307.9 0.4 L 308.5 0.4 L 308.5 5.4 L 308.1 5.4 C 308.1 5.4 308.11 1.57 308.1 1.6 C 308.1 1.3 308.1 1 308.2 0.7 C 308.16 0.75 308.1 0.7 308.1 0.7 L 306.3 5.4 L 306 5.4 Z M 314.2 2.9 C 314.2 3.6 314 4.3 313.6 4.7 C 313.2 5.2 312.7 5.4 312 5.4 C 311.3 5.4 310.7 5.2 310.3 4.7 C 309.9 4.3 309.8 3.6 309.8 2.8 C 309.8 2 310 1.4 310.4 1 C 310.8 0.5 311.3 0.3 312 0.3 C 312.7 0.3 313.2 0.5 313.6 1 C 314 1.4 314.2 2.1 314.2 2.9 Z M 310.1 2.9 C 310.1 3.6 310.3 4.1 310.6 4.5 C 310.9 4.9 311.4 5.1 312 5.1 C 312.6 5.1 313 4.9 313.4 4.5 C 313.7 4.1 313.8 3.6 313.8 2.9 C 313.8 2.1 313.7 1.6 313.4 1.2 C 313 0.8 312.6 0.6 312 0.6 C 311.4 0.6 310.9 0.8 310.6 1.2 C 310.3 1.6 310.1 2.1 310.1 2.9 Z M 319.1 5.4 L 318.8 5.4 L 315.8 0.9 C 315.8 0.9 315.8 0.92 315.8 0.9 C 315.8 1.4 315.8 1.8 315.8 2.1 C 315.84 2.12 315.8 5.4 315.8 5.4 L 315.5 5.4 L 315.5 0.4 L 315.9 0.4 L 318.8 4.8 C 318.8 4.8 318.83 4.79 318.8 4.8 C 318.8 4.4 318.8 4 318.8 3.6 C 318.8 3.62 318.8 0.4 318.8 0.4 L 319.1 0.4 L 319.1 5.4 Z M 322 5.4 L 321.6 5.4 L 321.6 0.7 L 320 0.7 L 320 0.4 L 323.6 0.4 L 323.6 0.7 L 322 0.7 L 322 5.4 Z M 328.7 2.9 C 328.7 3.6 328.5 4.3 328.1 4.7 C 327.7 5.2 327.2 5.4 326.5 5.4 C 325.8 5.4 325.2 5.2 324.8 4.7 C 324.4 4.3 324.2 3.6 324.2 2.8 C 324.2 2 324.4 1.4 324.8 1 C 325.2 0.5 325.8 0.3 326.5 0.3 C 327.2 0.3 327.7 0.5 328.1 1 C 328.5 1.4 328.7 2.1 328.7 2.9 Z M 324.6 2.9 C 324.6 3.6 324.8 4.1 325.1 4.5 C 325.4 4.9 325.9 5.1 326.5 5.1 C 327.1 5.1 327.5 4.9 327.8 4.5 C 328.2 4.1 328.3 3.6 328.3 2.9 C 328.3 2.1 328.2 1.6 327.8 1.2 C 327.5 0.8 327.1 0.6 326.5 0.6 C 325.9 0.6 325.4 0.8 325.1 1.2 C 324.8 1.6 324.6 2.1 324.6 2.9 Z M 331.1 3.1 L 332.6 0.4 L 333 0.4 L 331.3 3.4 L 331.3 5.4 L 331 5.4 L 331 3.5 L 329.3 0.4 L 329.7 0.4 L 331.1 3.1 Z M 336.2 3.6 L 334.2 3.6 L 333.5 5.4 L 333.1 5.4 L 335.1 0.3 L 335.4 0.3 L 337.3 5.4 L 336.9 5.4 L 336.2 3.6 Z M 334.3 3.3 L 336.1 3.3 C 336.1 3.3 335.44 1.48 335.4 1.5 C 335.4 1.3 335.3 1.1 335.2 0.9 C 335.2 1.1 335.1 1.3 335 1.5 C 335.03 1.48 334.3 3.3 334.3 3.3 Z " stroke="none" fill="#000"/>
  </g>
</svg>