<?xml version="1.0" standalone="no"?>
<!DOCTYPE svg PUBLIC "-//W3C//DTD SVG 1.1//EN" "http://www.w3.org/Graphics/SVG/1.1/DTD/svg11.dtd">
<svg xmlns="http://www.w3.org/2000/svg" version="1.1" width="120.4px" height="16.7px" viewBox="0 -3 120.4 16.7" style="top:-3px">
  <desc>Dibuho ni Justine Mikkael Gacot</desc>
  <defs/>
  <g id="Polygon20060">
    <path d="M 1.2 7 C 1.2 7 2.43 6.98 2.4 7 C 2.7 7 3 6.9 3.2 6.8 C 3.4 6.7 3.6 6.6 3.7 6.5 C 3.9 6.3 4 6.1 4.1 5.9 C 4.2 5.8 4.3 5.6 4.4 5.4 C 4.4 5.2 4.5 5 4.5 4.9 C 4.5 4.7 4.5 4.6 4.5 4.5 C 4.5 4 4.4 3.6 4.2 3.3 C 4 3 3.7 2.9 3.3 2.9 C 3.29 2.9 2 2.9 2 2.9 L 1.2 7 Z M 1.2 2.1 C 1.2 2.1 3.3 2.09 3.3 2.1 C 4 2.1 4.6 2.3 5 2.7 C 5.4 3.1 5.5 3.7 5.5 4.5 C 5.5 4.7 5.5 4.8 5.5 5.1 C 5.5 5.3 5.4 5.5 5.3 5.7 C 5.2 5.9 5.2 6.1 5 6.3 C 4.9 6.5 4.8 6.7 4.6 6.8 C 4.5 7 4.3 7.1 4.1 7.3 C 4 7.4 3.8 7.5 3.6 7.6 C 3.4 7.6 3.2 7.7 2.9 7.7 C 2.7 7.8 2.4 7.8 2 7.8 C 2.02 7.8 0 7.8 0 7.8 L 1.2 2.1 Z M 6.9 2.1 L 7.8 2.1 L 7.7 3 L 6.8 3 L 6.9 2.1 Z M 6.6 3.7 L 7.5 3.7 L 6.7 7.8 L 5.8 7.8 L 6.6 3.7 Z M 9 2.1 L 9.9 2.1 L 9.4 4.1 C 9.4 4.1 9.46 4.15 9.5 4.2 C 9.8 3.8 10.2 3.6 10.7 3.6 C 11 3.6 11.2 3.6 11.4 3.7 C 11.6 3.8 11.7 3.9 11.9 4 C 12 4.2 12.1 4.4 12.2 4.6 C 12.2 4.8 12.3 5 12.3 5.3 C 12.3 5.6 12.2 5.9 12.1 6.2 C 12 6.5 11.9 6.8 11.7 7.1 C 11.5 7.3 11.3 7.5 11 7.7 C 10.8 7.8 10.5 7.9 10.1 7.9 C 9.8 7.9 9.5 7.9 9.3 7.7 C 9.1 7.6 8.9 7.4 8.7 7.1 C 8.74 7.1 8.7 7.1 8.7 7.1 L 8.6 7.8 L 7.8 7.8 L 9 2.1 Z M 10.4 4.3 C 10.2 4.3 10 4.3 9.8 4.4 C 9.6 4.6 9.5 4.7 9.4 4.9 C 9.2 5.1 9.2 5.3 9.1 5.5 C 9.1 5.7 9 5.9 9 6.2 C 9 6.5 9.1 6.7 9.3 6.9 C 9.4 7.1 9.7 7.2 10 7.2 C 10.2 7.2 10.4 7.1 10.6 7 C 10.8 6.9 10.9 6.7 11 6.6 C 11.1 6.4 11.2 6.2 11.3 6 C 11.3 5.7 11.4 5.5 11.4 5.3 C 11.4 5 11.3 4.7 11.1 4.6 C 11 4.4 10.7 4.3 10.4 4.3 Z M 16.3 7.8 L 15.5 7.8 L 15.6 7.2 C 15.6 7.2 15.6 7.18 15.6 7.2 C 15.4 7.4 15.2 7.6 15 7.7 C 14.7 7.8 14.5 7.9 14.2 7.9 C 13.8 7.9 13.5 7.8 13.3 7.6 C 13.1 7.4 13 7.2 13 6.8 C 13 6.7 13 6.7 13 6.6 C 13 6.5 13 6.4 13 6.3 C 13.01 6.3 13.6 3.7 13.6 3.7 L 14.5 3.7 C 14.5 3.7 13.94 6.22 13.9 6.2 C 13.9 6.3 13.9 6.4 13.9 6.4 C 13.9 6.5 13.9 6.5 13.9 6.6 C 13.9 6.6 13.9 6.7 13.9 6.7 C 13.9 6.8 13.9 6.9 13.9 6.9 C 14 7 14 7.1 14.1 7.1 C 14.2 7.2 14.3 7.2 14.5 7.2 C 14.7 7.2 14.8 7.2 15 7.1 C 15.1 7 15.3 6.9 15.4 6.8 C 15.5 6.7 15.6 6.5 15.7 6.4 C 15.7 6.2 15.8 6.1 15.8 5.9 C 15.82 5.9 16.3 3.7 16.3 3.7 L 17.2 3.7 L 16.3 7.8 Z M 18.6 2.1 L 19.5 2.1 L 19.1 4.2 C 19.1 4.2 19.07 4.25 19.1 4.2 C 19.2 4 19.4 3.9 19.7 3.7 C 19.9 3.6 20.2 3.6 20.4 3.6 C 20.8 3.6 21.2 3.7 21.3 3.8 C 21.5 4 21.6 4.3 21.6 4.6 C 21.6 4.7 21.6 4.8 21.6 4.9 C 21.6 5 21.6 5.1 21.6 5.2 C 21.6 5.16 21 7.8 21 7.8 L 20.1 7.8 C 20.1 7.8 20.66 5.25 20.7 5.2 C 20.7 5.2 20.7 5.1 20.7 5 C 20.7 5 20.7 4.9 20.7 4.9 C 20.7 4.8 20.7 4.8 20.7 4.7 C 20.7 4.6 20.7 4.6 20.7 4.5 C 20.6 4.4 20.6 4.4 20.5 4.3 C 20.4 4.3 20.3 4.3 20.1 4.3 C 19.9 4.3 19.8 4.3 19.6 4.4 C 19.5 4.5 19.3 4.6 19.2 4.7 C 19.1 4.8 19 4.9 19 5.1 C 18.9 5.2 18.8 5.4 18.8 5.6 C 18.78 5.56 18.3 7.8 18.3 7.8 L 17.4 7.8 L 18.6 2.1 Z M 24.6 4.3 C 24.3 4.3 24.1 4.3 24 4.4 C 23.8 4.6 23.6 4.7 23.5 4.9 C 23.4 5.1 23.3 5.3 23.3 5.5 C 23.2 5.7 23.2 5.9 23.2 6.1 C 23.2 6.4 23.3 6.7 23.4 6.9 C 23.6 7.1 23.8 7.2 24.1 7.2 C 24.4 7.2 24.6 7.1 24.7 7 C 24.9 6.9 25.1 6.8 25.2 6.6 C 25.3 6.4 25.4 6.2 25.4 6 C 25.5 5.8 25.5 5.5 25.5 5.3 C 25.5 5 25.5 4.8 25.3 4.6 C 25.1 4.4 24.9 4.3 24.6 4.3 Z M 24.1 7.9 C 23.5 7.9 23.1 7.8 22.7 7.4 C 22.4 7.1 22.3 6.7 22.3 6.1 C 22.3 5.8 22.3 5.4 22.4 5.1 C 22.6 4.8 22.7 4.6 22.9 4.3 C 23.1 4.1 23.4 3.9 23.7 3.8 C 24 3.6 24.3 3.6 24.6 3.6 C 25.2 3.6 25.7 3.7 26 4 C 26.3 4.3 26.4 4.7 26.4 5.3 C 26.4 5.7 26.4 6 26.3 6.3 C 26.2 6.7 26 6.9 25.8 7.2 C 25.6 7.4 25.4 7.6 25.1 7.7 C 24.8 7.8 24.4 7.9 24.1 7.9 Z M 29.8 3.7 L 30.7 3.7 L 30.5 4.3 C 30.5 4.3 30.56 4.28 30.6 4.3 C 30.7 4.1 30.9 3.9 31.2 3.7 C 31.4 3.6 31.7 3.6 32 3.6 C 32.4 3.6 32.7 3.7 32.9 3.8 C 33.1 4 33.2 4.3 33.2 4.6 C 33.2 4.7 33.2 4.8 33.2 4.9 C 33.2 5 33.2 5.1 33.2 5.2 C 33.15 5.16 32.6 7.8 32.6 7.8 L 31.7 7.8 C 31.7 7.8 32.22 5.25 32.2 5.2 C 32.2 5.2 32.2 5.1 32.3 5 C 32.3 5 32.3 4.9 32.3 4.9 C 32.3 4.8 32.3 4.8 32.3 4.7 C 32.3 4.6 32.3 4.6 32.2 4.5 C 32.2 4.4 32.1 4.4 32 4.3 C 31.9 4.3 31.8 4.3 31.6 4.3 C 31.5 4.3 31.3 4.3 31.2 4.4 C 31 4.5 30.9 4.6 30.8 4.7 C 30.7 4.8 30.6 4.9 30.5 5.1 C 30.4 5.2 30.4 5.4 30.3 5.6 C 30.34 5.56 29.9 7.8 29.9 7.8 L 29 7.8 L 29.8 3.7 Z M 34.8 2.1 L 35.7 2.1 L 35.5 3 L 34.6 3 L 34.8 2.1 Z M 34.5 3.7 L 35.4 3.7 L 34.5 7.8 L 33.6 7.8 L 34.5 3.7 Z M 41.3 2.1 L 42.3 2.1 C 42.3 2.1 41.6 5.28 41.6 5.3 C 41.6 5.4 41.5 5.5 41.5 5.7 C 41.5 5.8 41.4 6 41.4 6.2 C 41.3 6.3 41.3 6.5 41.2 6.7 C 41.2 6.9 41.1 7 41 7.1 C 40.9 7.3 40.8 7.4 40.7 7.5 C 40.6 7.6 40.4 7.7 40.3 7.8 C 40.2 7.8 40 7.9 39.9 7.9 C 39.7 7.9 39.6 7.9 39.4 7.9 C 39.1 7.9 38.8 7.9 38.6 7.8 C 38.4 7.7 38.2 7.6 38.1 7.4 C 38 7.3 37.9 7.1 37.9 7 C 37.8 6.8 37.8 6.7 37.8 6.6 C 37.8 6.5 37.8 6.3 37.8 6.2 C 37.8 6.1 37.9 5.9 37.9 5.8 C 37.9 5.8 38.8 5.8 38.8 5.8 C 38.8 6 38.7 6.2 38.7 6.4 C 38.7 6.9 39 7.1 39.5 7.1 C 39.7 7.1 39.8 7.1 39.9 7 C 40 6.9 40.1 6.8 40.2 6.7 C 40.3 6.6 40.3 6.4 40.4 6.3 C 40.4 6.1 40.5 5.9 40.5 5.7 C 40.51 5.69 41.3 2.1 41.3 2.1 Z M 45.7 7.8 L 44.8 7.8 L 45 7.2 C 45 7.2 44.94 7.18 44.9 7.2 C 44.8 7.4 44.6 7.6 44.3 7.7 C 44.1 7.8 43.8 7.9 43.5 7.9 C 43.1 7.9 42.8 7.8 42.6 7.6 C 42.4 7.4 42.3 7.2 42.3 6.8 C 42.3 6.7 42.3 6.7 42.3 6.6 C 42.3 6.5 42.3 6.4 42.3 6.3 C 42.34 6.3 42.9 3.7 42.9 3.7 L 43.8 3.7 C 43.8 3.7 43.28 6.22 43.3 6.2 C 43.3 6.3 43.2 6.4 43.2 6.4 C 43.2 6.5 43.2 6.5 43.2 6.6 C 43.2 6.6 43.2 6.7 43.2 6.7 C 43.2 6.8 43.2 6.9 43.3 6.9 C 43.3 7 43.4 7.1 43.5 7.1 C 43.5 7.2 43.7 7.2 43.8 7.2 C 44 7.2 44.2 7.2 44.3 7.1 C 44.5 7 44.6 6.9 44.7 6.8 C 44.8 6.7 44.9 6.5 45 6.4 C 45.1 6.2 45.1 6.1 45.2 5.9 C 45.16 5.9 45.6 3.7 45.6 3.7 L 46.5 3.7 L 45.7 7.8 Z M 49.7 4.9 C 49.7 4.7 49.6 4.5 49.4 4.4 C 49.3 4.3 49.1 4.3 48.8 4.3 C 48.7 4.3 48.7 4.3 48.6 4.3 C 48.5 4.3 48.4 4.3 48.4 4.4 C 48.3 4.4 48.2 4.5 48.2 4.5 C 48.2 4.6 48.1 4.7 48.1 4.8 C 48.1 4.9 48.2 5 48.2 5 C 48.3 5.1 48.4 5.1 48.5 5.2 C 48.6 5.2 48.8 5.3 48.9 5.3 C 49.1 5.3 49.2 5.4 49.4 5.4 C 49.5 5.5 49.6 5.5 49.7 5.6 C 49.8 5.7 49.9 5.7 50 5.8 C 50.1 5.9 50.2 6 50.2 6.1 C 50.3 6.2 50.3 6.4 50.3 6.6 C 50.3 6.8 50.3 7 50.2 7.2 C 50 7.3 49.9 7.5 49.7 7.6 C 49.6 7.7 49.4 7.8 49.1 7.8 C 48.9 7.9 48.7 7.9 48.5 7.9 C 48.2 7.9 48 7.9 47.8 7.8 C 47.6 7.8 47.4 7.7 47.3 7.6 C 47.1 7.5 47 7.4 46.9 7.2 C 46.8 7 46.8 6.8 46.8 6.5 C 46.8 6.5 47.6 6.5 47.6 6.5 C 47.6 6.7 47.7 6.9 47.9 7 C 48 7.1 48.3 7.2 48.5 7.2 C 48.6 7.2 48.7 7.2 48.8 7.2 C 48.9 7.1 49 7.1 49.1 7.1 C 49.2 7 49.3 7 49.3 6.9 C 49.4 6.8 49.4 6.7 49.4 6.6 C 49.4 6.5 49.4 6.4 49.3 6.3 C 49.2 6.3 49.1 6.2 49 6.2 C 48.9 6.1 48.7 6.1 48.6 6 C 48.4 6 48.3 5.9 48.1 5.9 C 48 5.8 47.9 5.8 47.8 5.7 C 47.7 5.7 47.6 5.6 47.5 5.5 C 47.4 5.4 47.3 5.3 47.3 5.2 C 47.2 5.1 47.2 5 47.2 4.8 C 47.2 4.6 47.3 4.4 47.4 4.2 C 47.5 4.1 47.6 3.9 47.8 3.8 C 47.9 3.7 48.1 3.7 48.3 3.6 C 48.5 3.6 48.7 3.6 48.9 3.6 C 49.2 3.6 49.4 3.6 49.6 3.6 C 49.8 3.7 49.9 3.7 50.1 3.8 C 50.2 3.9 50.3 4.1 50.4 4.2 C 50.5 4.4 50.5 4.6 50.5 4.9 C 50.5 4.9 49.7 4.9 49.7 4.9 Z M 52.2 2.4 L 53.1 2.4 L 52.8 3.7 L 53.6 3.7 L 53.5 4.3 L 52.7 4.3 C 52.7 4.3 52.26 6.37 52.3 6.4 C 52.2 6.5 52.2 6.5 52.2 6.6 C 52.2 6.7 52.2 6.8 52.2 6.8 C 52.2 6.9 52.2 7 52.2 7 C 52.3 7.1 52.4 7.1 52.5 7.1 C 52.6 7.1 52.6 7.1 52.7 7.1 C 52.8 7.1 52.9 7.1 53 7.1 C 53 7.1 52.8 7.8 52.8 7.8 C 52.7 7.8 52.6 7.8 52.5 7.8 C 52.3 7.8 52.2 7.8 52.1 7.8 C 51.9 7.8 51.8 7.8 51.7 7.8 C 51.6 7.7 51.5 7.7 51.4 7.6 C 51.4 7.5 51.3 7.4 51.3 7.4 C 51.3 7.3 51.3 7.2 51.3 7.1 C 51.3 7 51.3 6.9 51.3 6.8 C 51.3 6.7 51.3 6.6 51.3 6.6 C 51.32 6.61 51.8 4.3 51.8 4.3 L 51.1 4.3 L 51.2 3.7 L 51.9 3.7 L 52.2 2.4 Z M 54.8 2.1 L 55.7 2.1 L 55.5 3 L 54.6 3 L 54.8 2.1 Z M 54.4 3.7 L 55.3 3.7 L 54.5 7.8 L 53.6 7.8 L 54.4 3.7 Z M 56.4 3.7 L 57.3 3.7 L 57.2 4.3 C 57.2 4.3 57.18 4.28 57.2 4.3 C 57.3 4.1 57.5 3.9 57.8 3.7 C 58 3.6 58.3 3.6 58.6 3.6 C 59 3.6 59.3 3.7 59.5 3.8 C 59.7 4 59.8 4.3 59.8 4.6 C 59.8 4.7 59.8 4.8 59.8 4.9 C 59.8 5 59.8 5.1 59.8 5.2 C 59.77 5.16 59.2 7.8 59.2 7.8 L 58.3 7.8 C 58.3 7.8 58.83 5.25 58.8 5.2 C 58.8 5.2 58.9 5.1 58.9 5 C 58.9 5 58.9 4.9 58.9 4.9 C 58.9 4.8 58.9 4.8 58.9 4.7 C 58.9 4.6 58.9 4.6 58.8 4.5 C 58.8 4.4 58.7 4.4 58.6 4.3 C 58.6 4.3 58.4 4.3 58.3 4.3 C 58.1 4.3 57.9 4.3 57.8 4.4 C 57.6 4.5 57.5 4.6 57.4 4.7 C 57.3 4.8 57.2 4.9 57.1 5.1 C 57 5.2 57 5.4 57 5.6 C 56.95 5.56 56.5 7.8 56.5 7.8 L 55.6 7.8 L 56.4 3.7 Z M 63.6 5.4 C 63.6 5.3 63.6 5.3 63.6 5.3 C 63.6 5.3 63.6 5.3 63.6 5.2 C 63.6 5.2 63.6 5.1 63.6 5.1 C 63.6 4.9 63.5 4.7 63.3 4.5 C 63.2 4.4 63 4.3 62.7 4.3 C 62.4 4.3 62.1 4.4 61.9 4.6 C 61.7 4.8 61.5 5 61.4 5.4 C 61.4 5.4 63.6 5.4 63.6 5.4 Z M 64.2 6.5 C 64.1 7 63.8 7.4 63.5 7.6 C 63.2 7.8 62.7 7.9 62.2 7.9 C 62 7.9 61.7 7.9 61.5 7.8 C 61.3 7.7 61.1 7.6 60.9 7.4 C 60.8 7.3 60.7 7.1 60.6 6.9 C 60.5 6.6 60.4 6.4 60.4 6.1 C 60.4 5.8 60.5 5.5 60.6 5.2 C 60.7 4.9 60.8 4.6 61 4.4 C 61.2 4.1 61.5 3.9 61.7 3.8 C 62 3.6 62.4 3.6 62.7 3.6 C 63.1 3.6 63.4 3.6 63.6 3.7 C 63.8 3.9 64 4 64.2 4.2 C 64.3 4.4 64.4 4.6 64.4 4.8 C 64.5 5 64.5 5.3 64.5 5.5 C 64.5 5.6 64.5 5.7 64.5 5.7 C 64.5 5.8 64.4 5.9 64.4 6 C 64.4 6 61.4 6 61.4 6 C 61.3 6 61.3 6 61.3 6 C 61.3 6.1 61.3 6.1 61.3 6.1 C 61.3 6.1 61.3 6.2 61.3 6.2 C 61.3 6.5 61.4 6.8 61.6 6.9 C 61.7 7.1 62 7.2 62.3 7.2 C 62.6 7.2 62.8 7.1 63 7 C 63.1 6.9 63.2 6.7 63.3 6.5 C 63.3 6.5 64.2 6.5 64.2 6.5 Z M 68.1 2.1 L 69.5 2.1 L 70.1 6.4 L 70.2 6.4 L 72.6 2.1 L 74.1 2.1 L 72.9 7.8 L 71.9 7.8 L 72.9 3.2 L 72.9 3.2 L 70.3 7.8 L 69.5 7.8 L 68.8 3.2 L 68.8 3.2 L 67.9 7.8 L 67 7.8 L 68.1 2.1 Z M 75.2 2.1 L 76.1 2.1 L 75.9 3 L 75 3 L 75.2 2.1 Z M 74.9 3.7 L 75.8 3.7 L 74.9 7.8 L 74 7.8 L 74.9 3.7 Z M 77.2 2.1 L 78.1 2.1 L 77.5 5.3 L 77.5 5.3 L 79.3 3.7 L 80.5 3.7 L 78.7 5.2 L 79.7 7.8 L 78.7 7.8 L 77.9 5.8 L 77.2 6.4 L 76.9 7.8 L 76 7.8 L 77.2 2.1 Z M 81.4 2.1 L 82.4 2.1 L 81.7 5.3 L 81.7 5.3 L 83.6 3.7 L 84.7 3.7 L 82.9 5.2 L 83.9 7.8 L 82.9 7.8 L 82.2 5.8 L 81.5 6.4 L 81.2 7.8 L 80.3 7.8 L 81.4 2.1 Z M 85.4 6.7 C 85.4 6.8 85.5 6.8 85.5 6.9 C 85.5 7 85.6 7 85.7 7.1 C 85.7 7.1 85.8 7.1 85.9 7.2 C 86 7.2 86.1 7.2 86.2 7.2 C 86.4 7.2 86.6 7.2 86.7 7.1 C 86.9 7 87 6.9 87.1 6.8 C 87.2 6.6 87.3 6.5 87.3 6.3 C 87.4 6.2 87.4 6 87.5 5.8 C 87.5 5.8 87.4 5.8 87.4 5.8 C 87.4 5.8 87.3 5.9 87.2 5.9 C 87.1 5.9 87 5.9 86.9 5.9 C 86.8 6 86.6 6 86.4 6 C 86.3 6 86.1 6 86 6.1 C 85.8 6.1 85.7 6.2 85.6 6.3 C 85.5 6.4 85.4 6.5 85.4 6.7 Z M 88.2 6.6 C 88.2 6.7 88.1 6.7 88.1 6.8 C 88.1 6.9 88.1 6.9 88.1 7 C 88.1 7.1 88.1 7.1 88.1 7.1 C 88.2 7.2 88.2 7.2 88.3 7.2 C 88.3 7.2 88.4 7.2 88.4 7.2 C 88.5 7.2 88.6 7.1 88.6 7.1 C 88.6 7.1 88.5 7.8 88.5 7.8 C 88.3 7.8 88.2 7.9 88.1 7.9 C 88 7.9 87.9 7.9 87.8 7.9 C 87.6 7.9 87.5 7.9 87.4 7.8 C 87.3 7.7 87.2 7.5 87.2 7.4 C 87 7.6 86.8 7.7 86.6 7.8 C 86.3 7.9 86.1 7.9 85.8 7.9 C 85.6 7.9 85.5 7.9 85.3 7.8 C 85.2 7.8 85 7.7 84.9 7.6 C 84.8 7.5 84.7 7.4 84.6 7.3 C 84.6 7.1 84.5 7 84.5 6.8 C 84.5 6.6 84.6 6.3 84.7 6.2 C 84.8 6 84.9 5.8 85 5.7 C 85.2 5.6 85.4 5.5 85.6 5.5 C 85.8 5.4 86 5.4 86.3 5.4 C 86.6 5.4 86.9 5.3 87.2 5.3 C 87.3 5.3 87.5 5.2 87.5 5.1 C 87.6 5 87.6 4.9 87.6 4.8 C 87.6 4.6 87.6 4.4 87.4 4.4 C 87.3 4.3 87.1 4.3 87 4.3 C 86.7 4.3 86.5 4.3 86.3 4.4 C 86.1 4.5 86 4.7 85.9 4.9 C 85.9 4.9 85.1 4.9 85.1 4.9 C 85.1 4.7 85.2 4.4 85.3 4.3 C 85.4 4.1 85.6 4 85.7 3.9 C 85.9 3.7 86.1 3.7 86.3 3.6 C 86.5 3.6 86.8 3.6 87 3.6 C 87.4 3.6 87.7 3.6 87.9 3.7 C 88.1 3.7 88.2 3.8 88.3 3.9 C 88.4 4 88.5 4.1 88.5 4.2 C 88.5 4.3 88.6 4.4 88.6 4.5 C 88.6 4.7 88.5 4.9 88.5 5.1 C 88.5 5.1 88.2 6.6 88.2 6.6 Z M 92.3 5.4 C 92.3 5.3 92.3 5.3 92.3 5.3 C 92.3 5.3 92.3 5.3 92.3 5.2 C 92.3 5.2 92.3 5.1 92.3 5.1 C 92.3 4.9 92.3 4.7 92.1 4.5 C 92 4.4 91.7 4.3 91.5 4.3 C 91.1 4.3 90.9 4.4 90.7 4.6 C 90.5 4.8 90.3 5 90.2 5.4 C 90.2 5.4 92.3 5.4 92.3 5.4 Z M 93 6.5 C 92.9 7 92.6 7.4 92.3 7.6 C 91.9 7.8 91.5 7.9 91 7.9 C 90.7 7.9 90.5 7.9 90.3 7.8 C 90.1 7.7 89.9 7.6 89.7 7.4 C 89.6 7.3 89.4 7.1 89.3 6.9 C 89.2 6.6 89.2 6.4 89.2 6.1 C 89.2 5.8 89.3 5.5 89.4 5.2 C 89.5 4.9 89.6 4.6 89.8 4.4 C 90 4.1 90.2 3.9 90.5 3.8 C 90.8 3.6 91.1 3.6 91.5 3.6 C 91.9 3.6 92.2 3.6 92.4 3.7 C 92.6 3.9 92.8 4 92.9 4.2 C 93.1 4.4 93.1 4.6 93.2 4.8 C 93.2 5 93.3 5.3 93.3 5.5 C 93.3 5.6 93.3 5.7 93.2 5.7 C 93.2 5.8 93.2 5.9 93.2 6 C 93.2 6 90.1 6 90.1 6 C 90.1 6 90.1 6 90.1 6 C 90.1 6.1 90.1 6.1 90.1 6.1 C 90.1 6.1 90.1 6.2 90.1 6.2 C 90.1 6.5 90.2 6.8 90.3 6.9 C 90.5 7.1 90.7 7.2 91.1 7.2 C 91.3 7.2 91.6 7.1 91.7 7 C 91.9 6.9 92 6.7 92.1 6.5 C 92.1 6.5 93 6.5 93 6.5 Z M 94.7 2.1 L 95.6 2.1 L 94.5 7.8 L 93.6 7.8 L 94.7 2.1 Z M 102.7 7.8 L 102 7.8 L 102 7.2 C 102 7.2 102.02 7.2 102 7.2 C 101.9 7.3 101.8 7.4 101.7 7.5 C 101.6 7.6 101.4 7.7 101.3 7.8 C 101.1 7.8 101 7.9 100.9 7.9 C 100.7 7.9 100.6 7.9 100.5 7.9 C 100.1 7.9 99.7 7.9 99.4 7.7 C 99.1 7.6 98.8 7.4 98.6 7.2 C 98.4 7 98.2 6.7 98.1 6.4 C 98 6.1 98 5.8 98 5.4 C 98 4.8 98.1 4.3 98.2 3.9 C 98.4 3.4 98.6 3.1 98.9 2.8 C 99.2 2.5 99.6 2.3 99.9 2.2 C 100.3 2 100.7 2 101 2 C 101.4 2 101.7 2 102 2.1 C 102.3 2.2 102.5 2.3 102.7 2.4 C 102.9 2.6 103.1 2.8 103.2 3 C 103.3 3.3 103.4 3.6 103.4 3.9 C 103.4 3.9 102.4 3.9 102.4 3.9 C 102.4 3.5 102.3 3.2 102 3 C 101.8 2.9 101.4 2.8 101 2.8 C 100.7 2.8 100.4 2.8 100.1 3 C 99.8 3.2 99.6 3.4 99.5 3.6 C 99.3 3.9 99.2 4.1 99.1 4.5 C 99 4.8 99 5.1 99 5.4 C 99 5.9 99.1 6.4 99.4 6.7 C 99.6 7 100 7.1 100.5 7.1 C 100.8 7.1 101 7.1 101.2 7 C 101.4 6.9 101.5 6.8 101.7 6.7 C 101.8 6.5 101.9 6.4 102 6.2 C 102.1 6 102.2 5.8 102.3 5.6 C 102.27 5.55 100.7 5.6 100.7 5.6 L 100.9 4.8 L 103.3 4.8 L 102.7 7.8 Z M 104.7 6.7 C 104.7 6.8 104.7 6.8 104.8 6.9 C 104.8 7 104.9 7 104.9 7.1 C 105 7.1 105.1 7.1 105.2 7.2 C 105.3 7.2 105.3 7.2 105.4 7.2 C 105.7 7.2 105.8 7.2 106 7.1 C 106.1 7 106.3 6.9 106.4 6.8 C 106.5 6.6 106.5 6.5 106.6 6.3 C 106.7 6.2 106.7 6 106.7 5.8 C 106.7 5.8 106.7 5.8 106.7 5.8 C 106.7 5.8 106.6 5.9 106.5 5.9 C 106.4 5.9 106.3 5.9 106.2 5.9 C 106 6 105.9 6 105.7 6 C 105.5 6 105.4 6 105.2 6.1 C 105.1 6.1 105 6.2 104.9 6.3 C 104.8 6.4 104.7 6.5 104.7 6.7 Z M 107.4 6.6 C 107.4 6.7 107.4 6.7 107.4 6.8 C 107.4 6.9 107.4 6.9 107.4 7 C 107.4 7.1 107.4 7.1 107.4 7.1 C 107.4 7.2 107.5 7.2 107.6 7.2 C 107.6 7.2 107.7 7.2 107.7 7.2 C 107.8 7.2 107.8 7.1 107.9 7.1 C 107.9 7.1 107.7 7.8 107.7 7.8 C 107.6 7.8 107.5 7.9 107.4 7.9 C 107.3 7.9 107.1 7.9 107 7.9 C 106.9 7.9 106.7 7.9 106.6 7.8 C 106.5 7.7 106.5 7.5 106.5 7.4 C 106.3 7.6 106.1 7.7 105.8 7.8 C 105.6 7.9 105.3 7.9 105.1 7.9 C 104.9 7.9 104.7 7.9 104.6 7.8 C 104.4 7.8 104.3 7.7 104.2 7.6 C 104.1 7.5 104 7.4 103.9 7.3 C 103.8 7.1 103.8 7 103.8 6.8 C 103.8 6.6 103.8 6.3 103.9 6.2 C 104 6 104.2 5.8 104.3 5.7 C 104.5 5.6 104.7 5.5 104.9 5.5 C 105.1 5.4 105.3 5.4 105.5 5.4 C 105.8 5.4 106.1 5.3 106.4 5.3 C 106.6 5.3 106.7 5.2 106.8 5.1 C 106.9 5 106.9 4.9 106.9 4.8 C 106.9 4.6 106.9 4.4 106.7 4.4 C 106.6 4.3 106.4 4.3 106.2 4.3 C 106 4.3 105.7 4.3 105.6 4.4 C 105.4 4.5 105.3 4.7 105.2 4.9 C 105.2 4.9 104.3 4.9 104.3 4.9 C 104.4 4.7 104.5 4.4 104.6 4.3 C 104.7 4.1 104.8 4 105 3.9 C 105.2 3.7 105.4 3.7 105.6 3.6 C 105.8 3.6 106 3.6 106.3 3.6 C 106.7 3.6 106.9 3.6 107.2 3.7 C 107.4 3.7 107.5 3.8 107.6 3.9 C 107.7 4 107.8 4.1 107.8 4.2 C 107.8 4.3 107.8 4.4 107.8 4.5 C 107.8 4.7 107.8 4.9 107.8 5.1 C 107.8 5.1 107.4 6.6 107.4 6.6 Z M 111.6 5 C 111.6 4.8 111.5 4.6 111.4 4.5 C 111.2 4.3 111 4.3 110.8 4.3 C 110.5 4.3 110.3 4.3 110.2 4.4 C 110 4.6 109.8 4.7 109.7 4.9 C 109.6 5.1 109.5 5.3 109.5 5.5 C 109.4 5.7 109.4 5.9 109.4 6.1 C 109.4 6.3 109.4 6.4 109.4 6.5 C 109.5 6.7 109.5 6.8 109.6 6.9 C 109.7 7 109.8 7.1 109.9 7.1 C 110 7.2 110.2 7.2 110.3 7.2 C 110.6 7.2 110.8 7.1 111 7 C 111.2 6.8 111.3 6.6 111.4 6.4 C 111.4 6.4 112.3 6.4 112.3 6.4 C 112.1 6.9 111.9 7.3 111.5 7.5 C 111.2 7.8 110.7 7.9 110.2 7.9 C 109.9 7.9 109.7 7.9 109.4 7.8 C 109.2 7.7 109.1 7.6 108.9 7.4 C 108.8 7.3 108.7 7.1 108.6 6.9 C 108.5 6.6 108.5 6.4 108.5 6.1 C 108.5 5.8 108.5 5.5 108.6 5.2 C 108.8 4.8 108.9 4.6 109.1 4.3 C 109.3 4.1 109.6 3.9 109.9 3.8 C 110.1 3.6 110.5 3.6 110.8 3.6 C 111.1 3.6 111.3 3.6 111.5 3.6 C 111.7 3.7 111.9 3.8 112 3.9 C 112.2 4.1 112.3 4.2 112.4 4.4 C 112.5 4.6 112.5 4.8 112.5 5 C 112.5 5 111.6 5 111.6 5 Z M 115.3 4.3 C 115.1 4.3 114.9 4.3 114.7 4.4 C 114.5 4.6 114.4 4.7 114.3 4.9 C 114.2 5.1 114.1 5.3 114 5.5 C 114 5.7 113.9 5.9 113.9 6.1 C 113.9 6.4 114 6.7 114.2 6.9 C 114.3 7.1 114.6 7.2 114.9 7.2 C 115.1 7.2 115.3 7.1 115.5 7 C 115.7 6.9 115.8 6.8 115.9 6.6 C 116 6.4 116.1 6.2 116.2 6 C 116.2 5.8 116.3 5.5 116.3 5.3 C 116.3 5 116.2 4.8 116 4.6 C 115.9 4.4 115.7 4.3 115.3 4.3 Z M 114.8 7.9 C 114.2 7.9 113.8 7.8 113.5 7.4 C 113.2 7.1 113 6.7 113 6.1 C 113 5.8 113.1 5.4 113.2 5.1 C 113.3 4.8 113.5 4.6 113.7 4.3 C 113.9 4.1 114.1 3.9 114.4 3.8 C 114.7 3.6 115 3.6 115.4 3.6 C 116 3.6 116.4 3.7 116.7 4 C 117 4.3 117.2 4.7 117.2 5.3 C 117.2 5.7 117.1 6 117 6.3 C 116.9 6.7 116.8 6.9 116.6 7.2 C 116.4 7.4 116.1 7.6 115.8 7.7 C 115.5 7.8 115.2 7.9 114.8 7.9 Z M 119 2.4 L 119.9 2.4 L 119.6 3.7 L 120.5 3.7 L 120.3 4.3 L 119.5 4.3 C 119.5 4.3 119.08 6.37 119.1 6.4 C 119.1 6.5 119 6.5 119 6.6 C 119 6.7 119 6.8 119 6.8 C 119 6.9 119 7 119.1 7 C 119.1 7.1 119.2 7.1 119.3 7.1 C 119.4 7.1 119.5 7.1 119.6 7.1 C 119.6 7.1 119.7 7.1 119.8 7.1 C 119.8 7.1 119.7 7.8 119.7 7.8 C 119.5 7.8 119.4 7.8 119.3 7.8 C 119.2 7.8 119 7.8 118.9 7.8 C 118.7 7.8 118.6 7.8 118.5 7.8 C 118.4 7.7 118.3 7.7 118.3 7.6 C 118.2 7.5 118.1 7.4 118.1 7.4 C 118.1 7.3 118.1 7.2 118.1 7.1 C 118.1 7 118.1 6.9 118.1 6.8 C 118.1 6.7 118.1 6.6 118.1 6.6 C 118.14 6.61 118.6 4.3 118.6 4.3 L 117.9 4.3 L 118 3.7 L 118.8 3.7 L 119 2.4 Z " stroke="none" fill="#fff"/>
  </g>
</svg>