<?xml version="1.0" standalone="no"?>
<!DOCTYPE svg PUBLIC "-//W3C//DTD SVG 1.1//EN" "http://www.w3.org/Graphics/SVG/1.1/DTD/svg11.dtd">
<svg xmlns="http://www.w3.org/2000/svg" version="1.1" width="123px" height="14.9px" viewBox="0 -1 123 14.9" style="top:-1px">
  <desc>Felisano Liam Miguel Manalo</desc>
  <defs/>
  <g id="Polygon31591">
    <path d="M 5.7 2.2 L 4.4 8.6 L 5.2 8.6 L 5.8 5.7 L 8.8 5.7 L 9 4.9 L 6 4.9 L 6.4 2.9 L 9.8 2.9 L 9.9 2.2 L 5.7 2.2 Z M 10.4 6.9 C 10.4 6.8 10.4 6.6 10.4 6.5 C 10.4 6.5 13.9 6.5 13.9 6.5 C 14 6.4 14 6.4 14 6.3 C 14 6.1 14 6 14 5.9 C 14 5.3 13.9 4.8 13.5 4.4 C 13.2 4 12.7 3.9 12.1 3.9 C 11.7 3.9 11.4 3.9 11.1 4.1 C 10.8 4.2 10.6 4.4 10.4 4.7 C 10.2 4.9 10 5.3 9.9 5.6 C 9.7 6 9.7 6.4 9.7 6.8 C 9.7 7.1 9.7 7.3 9.7 7.5 C 9.8 7.7 9.9 7.9 10.1 8.1 C 10.2 8.3 10.4 8.4 10.7 8.5 C 10.9 8.7 11.2 8.7 11.6 8.7 C 11.9 8.7 12.1 8.7 12.3 8.6 C 12.6 8.5 12.8 8.4 13 8.3 C 13.2 8.2 13.3 8 13.4 7.8 C 13.6 7.6 13.7 7.4 13.7 7.2 C 13.7 7.2 13 7.2 13 7.2 C 12.9 7.4 12.7 7.7 12.5 7.8 C 12.3 8 12 8 11.6 8 C 11.5 8 11.3 8 11.2 8 C 11 7.9 10.9 7.8 10.8 7.8 C 10.7 7.7 10.6 7.5 10.5 7.4 C 10.5 7.3 10.4 7.1 10.4 6.9 C 10.4 6.9 10.4 6.9 10.4 6.9 Z M 13.3 5.8 C 13.3 5.8 10.6 5.8 10.6 5.8 C 10.6 5.7 10.7 5.5 10.8 5.3 C 10.9 5.2 11 5 11.1 4.9 C 11.2 4.8 11.4 4.7 11.6 4.6 C 11.7 4.6 11.9 4.5 12.2 4.5 C 12.4 4.5 12.6 4.6 12.7 4.6 C 12.8 4.7 13 4.8 13 4.9 C 13.1 5.1 13.2 5.2 13.2 5.4 C 13.3 5.5 13.3 5.7 13.3 5.8 Z M 15.8 2.2 L 14.5 8.6 L 15.2 8.6 L 16.6 2.2 L 15.8 2.2 Z M 18.4 3.1 L 18.6 2.2 L 17.9 2.2 L 17.7 3.1 L 18.4 3.1 Z M 17.5 4 L 16.5 8.6 L 17.3 8.6 L 18.3 4 L 17.5 4 Z M 21.9 5.3 C 21.9 5.3 22.6 5.3 22.6 5.3 C 22.6 5.1 22.6 4.8 22.5 4.6 C 22.4 4.5 22.2 4.3 22.1 4.2 C 21.9 4.1 21.7 4 21.5 3.9 C 21.3 3.9 21.1 3.9 20.9 3.9 C 20.7 3.9 20.4 3.9 20.2 3.9 C 20 4 19.8 4.1 19.7 4.2 C 19.5 4.3 19.4 4.4 19.3 4.6 C 19.2 4.8 19.1 5 19.1 5.2 C 19.1 5.4 19.2 5.5 19.2 5.7 C 19.3 5.8 19.4 5.9 19.5 6 C 19.6 6.1 19.8 6.2 19.9 6.3 C 20.1 6.3 20.2 6.4 20.4 6.5 C 20.5 6.5 20.7 6.6 20.8 6.6 C 21 6.7 21.1 6.8 21.2 6.8 C 21.3 6.9 21.4 7 21.5 7 C 21.6 7.1 21.6 7.2 21.6 7.3 C 21.6 7.5 21.6 7.6 21.5 7.7 C 21.4 7.8 21.4 7.8 21.3 7.9 C 21.2 7.9 21 8 20.9 8 C 20.8 8 20.7 8 20.5 8 C 20.4 8 20.2 8 20.1 8 C 19.9 8 19.8 7.9 19.7 7.9 C 19.6 7.8 19.5 7.7 19.4 7.6 C 19.4 7.5 19.3 7.3 19.3 7.1 C 19.3 7.1 18.6 7.1 18.6 7.1 C 18.6 7.4 18.6 7.7 18.7 7.9 C 18.8 8.1 19 8.3 19.1 8.4 C 19.3 8.5 19.5 8.6 19.7 8.6 C 19.9 8.7 20.2 8.7 20.5 8.7 C 20.7 8.7 20.9 8.7 21.1 8.6 C 21.4 8.6 21.6 8.5 21.8 8.4 C 21.9 8.3 22.1 8.1 22.2 7.9 C 22.3 7.8 22.4 7.5 22.4 7.3 C 22.4 7.1 22.3 6.9 22.3 6.8 C 22.2 6.7 22.1 6.6 22 6.5 C 21.9 6.4 21.7 6.3 21.6 6.2 C 21.4 6.1 21.3 6 21.1 6 C 21 5.9 20.8 5.9 20.7 5.8 C 20.5 5.7 20.4 5.7 20.3 5.6 C 20.2 5.5 20.1 5.5 20 5.4 C 19.9 5.3 19.9 5.2 19.9 5.1 C 19.9 5 19.9 4.9 20 4.8 C 20.1 4.8 20.1 4.7 20.2 4.6 C 20.3 4.6 20.4 4.6 20.5 4.6 C 20.7 4.5 20.8 4.5 20.9 4.5 C 21.2 4.5 21.4 4.6 21.6 4.7 C 21.8 4.9 21.9 5.1 21.9 5.3 Z M 23.6 5.4 C 23.6 5.4 24.3 5.4 24.3 5.4 C 24.4 5.2 24.4 5.1 24.5 5 C 24.6 4.9 24.7 4.8 24.8 4.7 C 24.9 4.7 25 4.6 25.1 4.6 C 25.3 4.5 25.4 4.5 25.6 4.5 C 25.7 4.5 25.8 4.5 25.9 4.6 C 26 4.6 26.1 4.6 26.2 4.6 C 26.3 4.7 26.4 4.8 26.4 4.8 C 26.5 4.9 26.5 5 26.5 5.1 C 26.5 5.3 26.5 5.4 26.4 5.5 C 26.4 5.6 26.3 5.7 26.2 5.7 C 26.1 5.8 26 5.8 25.9 5.8 C 25.7 5.8 25.5 5.9 25.3 5.9 C 25.1 5.9 24.8 5.9 24.5 6 C 24.3 6 24 6.1 23.8 6.2 C 23.6 6.3 23.4 6.4 23.2 6.6 C 23.1 6.8 23 7.1 23 7.4 C 23 7.6 23 7.8 23.1 8 C 23.2 8.2 23.3 8.3 23.4 8.4 C 23.5 8.5 23.7 8.6 23.9 8.6 C 24 8.7 24.2 8.7 24.4 8.7 C 24.8 8.7 25.1 8.7 25.4 8.5 C 25.6 8.4 25.8 8.3 26 8 C 26 8 26 8.1 26 8.1 C 26 8.3 26 8.4 26.1 8.5 C 26.2 8.7 26.4 8.7 26.6 8.7 C 26.7 8.7 26.7 8.7 26.8 8.7 C 26.9 8.7 27 8.6 27.1 8.6 C 27.1 8.6 27.2 8 27.2 8 C 27.1 8.1 27.1 8.1 27.1 8.1 C 27 8.1 27 8.1 26.9 8.1 C 26.9 8.1 26.8 8.1 26.8 8 C 26.7 8 26.7 7.9 26.7 7.8 C 26.7 7.7 26.7 7.6 26.8 7.5 C 26.8 7.4 26.8 7.3 26.8 7.2 C 26.8 7.2 27.1 5.9 27.1 5.9 C 27.2 5.8 27.2 5.6 27.2 5.5 C 27.3 5.3 27.3 5.2 27.3 5 C 27.3 4.8 27.2 4.6 27.1 4.5 C 27 4.3 26.9 4.2 26.8 4.1 C 26.6 4 26.4 3.9 26.2 3.9 C 26 3.9 25.8 3.9 25.6 3.9 C 25.3 3.9 25.1 3.9 24.9 3.9 C 24.6 4 24.4 4.1 24.3 4.2 C 24.1 4.3 23.9 4.5 23.8 4.7 C 23.7 4.9 23.6 5.1 23.6 5.4 Z M 23.8 7.4 C 23.8 7.2 23.8 7 23.9 6.9 C 24 6.8 24.1 6.7 24.3 6.7 C 24.4 6.6 24.6 6.6 24.8 6.5 C 25 6.5 25.2 6.5 25.4 6.5 C 25.5 6.5 25.7 6.4 25.9 6.4 C 26 6.4 26.2 6.3 26.3 6.2 C 26.3 6.2 26.3 6.2 26.3 6.2 C 26.3 6.5 26.2 6.7 26.2 6.9 C 26.1 7.1 26 7.3 25.9 7.4 C 25.6 7.8 25.2 8 24.6 8 C 24.4 8 24.2 8 24 7.9 C 23.8 7.8 23.8 7.6 23.8 7.4 Z M 28.8 4 L 27.8 8.6 L 28.6 8.6 C 28.6 8.6 29.11 6.04 29.1 6 C 29.2 5.9 29.2 5.7 29.3 5.5 C 29.4 5.3 29.5 5.2 29.6 5.1 C 29.8 4.9 29.9 4.8 30.1 4.7 C 30.4 4.6 30.6 4.5 30.8 4.5 C 31 4.5 31.2 4.6 31.3 4.7 C 31.5 4.8 31.6 5 31.6 5.2 C 31.6 5.2 31.6 5.3 31.6 5.3 C 31.6 5.4 31.5 5.5 31.5 5.5 C 31.5 5.6 31.5 5.7 31.5 5.7 C 31.5 5.8 31.5 5.8 31.5 5.9 C 31.47 5.89 30.9 8.6 30.9 8.6 L 31.6 8.6 C 31.6 8.6 32.21 5.96 32.2 6 C 32.3 5.8 32.3 5.6 32.3 5.4 C 32.3 5.3 32.3 5.2 32.3 5 C 32.3 4.6 32.2 4.3 32 4.1 C 31.8 3.9 31.5 3.9 31 3.9 C 30.7 3.9 30.4 3.9 30.1 4.1 C 29.8 4.2 29.6 4.4 29.4 4.7 C 29.39 4.66 29.4 4.7 29.4 4.7 L 29.5 4 L 28.8 4 Z M 33.1 6.8 C 33.1 7.1 33.1 7.3 33.2 7.6 C 33.3 7.8 33.4 8 33.6 8.2 C 33.8 8.3 34 8.5 34.2 8.6 C 34.5 8.7 34.7 8.7 35.1 8.7 C 35.5 8.7 35.8 8.6 36.1 8.5 C 36.5 8.3 36.7 8.1 37 7.8 C 37.2 7.5 37.3 7.2 37.5 6.9 C 37.6 6.5 37.6 6.2 37.6 5.8 C 37.6 5.1 37.5 4.7 37.1 4.3 C 36.8 4 36.3 3.9 35.7 3.9 C 35.3 3.9 34.9 3.9 34.6 4.1 C 34.3 4.3 34 4.5 33.8 4.7 C 33.6 5 33.4 5.3 33.3 5.7 C 33.2 6 33.1 6.4 33.1 6.8 Z M 33.9 6.8 C 33.9 6.5 33.9 6.3 34 6 C 34 5.7 34.2 5.5 34.3 5.3 C 34.5 5.1 34.6 4.9 34.9 4.7 C 35.1 4.6 35.3 4.5 35.6 4.5 C 35.8 4.5 36 4.6 36.2 4.6 C 36.3 4.7 36.5 4.8 36.6 4.9 C 36.7 5 36.7 5.2 36.8 5.3 C 36.8 5.5 36.9 5.7 36.9 5.8 C 36.9 6.1 36.8 6.3 36.8 6.6 C 36.7 6.8 36.6 7.1 36.4 7.3 C 36.3 7.5 36.1 7.7 35.9 7.8 C 35.7 8 35.4 8 35.1 8 C 34.7 8 34.4 7.9 34.2 7.7 C 34 7.5 33.9 7.2 33.9 6.8 Z M 42.2 2.2 L 40.9 8.6 L 45.1 8.6 L 45.3 7.9 L 41.9 7.9 L 43.1 2.2 L 42.2 2.2 Z M 47.8 3.1 L 48 2.2 L 47.2 2.2 L 47 3.1 L 47.8 3.1 Z M 46.8 4 L 45.8 8.6 L 46.6 8.6 L 47.6 4 L 46.8 4 Z M 48.4 5.4 C 48.4 5.4 49.2 5.4 49.2 5.4 C 49.2 5.2 49.3 5.1 49.4 5 C 49.4 4.9 49.5 4.8 49.7 4.7 C 49.8 4.7 49.9 4.6 50 4.6 C 50.2 4.5 50.3 4.5 50.5 4.5 C 50.6 4.5 50.7 4.5 50.8 4.6 C 50.9 4.6 51 4.6 51.1 4.6 C 51.2 4.7 51.2 4.8 51.3 4.8 C 51.4 4.9 51.4 5 51.4 5.1 C 51.4 5.3 51.4 5.4 51.3 5.5 C 51.3 5.6 51.2 5.7 51.1 5.7 C 51 5.8 50.9 5.8 50.8 5.8 C 50.6 5.8 50.4 5.9 50.2 5.9 C 50 5.9 49.7 5.9 49.4 6 C 49.2 6 48.9 6.1 48.7 6.2 C 48.4 6.3 48.3 6.4 48.1 6.6 C 48 6.8 47.9 7.1 47.9 7.4 C 47.9 7.6 47.9 7.8 48 8 C 48.1 8.2 48.2 8.3 48.3 8.4 C 48.4 8.5 48.6 8.6 48.7 8.6 C 48.9 8.7 49.1 8.7 49.3 8.7 C 49.7 8.7 50 8.7 50.3 8.5 C 50.5 8.4 50.7 8.3 50.9 8 C 50.9 8 50.9 8.1 50.9 8.1 C 50.9 8.3 50.9 8.4 51 8.5 C 51.1 8.7 51.3 8.7 51.5 8.7 C 51.5 8.7 51.6 8.7 51.7 8.7 C 51.8 8.7 51.9 8.6 51.9 8.6 C 51.9 8.6 52.1 8 52.1 8 C 52 8.1 52 8.1 51.9 8.1 C 51.9 8.1 51.9 8.1 51.8 8.1 C 51.8 8.1 51.7 8.1 51.7 8 C 51.6 8 51.6 7.9 51.6 7.8 C 51.6 7.7 51.6 7.6 51.6 7.5 C 51.7 7.4 51.7 7.3 51.7 7.2 C 51.7 7.2 52 5.9 52 5.9 C 52 5.8 52.1 5.6 52.1 5.5 C 52.1 5.3 52.2 5.2 52.2 5 C 52.2 4.8 52.1 4.6 52 4.5 C 51.9 4.3 51.8 4.2 51.6 4.1 C 51.5 4 51.3 3.9 51.1 3.9 C 50.9 3.9 50.7 3.9 50.5 3.9 C 50.2 3.9 50 3.9 49.8 3.9 C 49.5 4 49.3 4.1 49.1 4.2 C 49 4.3 48.8 4.5 48.7 4.7 C 48.6 4.9 48.5 5.1 48.4 5.4 Z M 48.6 7.4 C 48.6 7.2 48.7 7 48.8 6.9 C 48.9 6.8 49 6.7 49.2 6.7 C 49.3 6.6 49.5 6.6 49.7 6.5 C 49.9 6.5 50.1 6.5 50.2 6.5 C 50.4 6.5 50.6 6.4 50.8 6.4 C 50.9 6.4 51.1 6.3 51.2 6.2 C 51.2 6.2 51.2 6.2 51.2 6.2 C 51.1 6.5 51.1 6.7 51 6.9 C 51 7.1 50.9 7.3 50.8 7.4 C 50.5 7.8 50.1 8 49.5 8 C 49.3 8 49.1 8 48.9 7.9 C 48.7 7.8 48.6 7.6 48.6 7.4 Z M 53.7 4 L 52.7 8.6 L 53.4 8.6 C 53.4 8.6 53.97 6.17 54 6.2 C 54 5.9 54.1 5.8 54.1 5.6 C 54.2 5.4 54.3 5.3 54.5 5.1 C 54.6 5 54.8 4.8 55 4.7 C 55.2 4.6 55.4 4.5 55.6 4.5 C 55.8 4.5 56 4.6 56.1 4.7 C 56.2 4.8 56.3 4.9 56.3 5.1 C 56.3 5.2 56.2 5.3 56.2 5.5 C 56.2 5.6 56.2 5.8 56.1 6 C 56.11 5.96 55.6 8.6 55.6 8.6 L 56.3 8.6 C 56.3 8.6 56.83 6.21 56.8 6.2 C 56.9 6 56.9 5.8 57 5.6 C 57 5.5 57.1 5.3 57.3 5.2 C 57.3 5.1 57.4 5 57.5 4.9 C 57.6 4.8 57.7 4.8 57.8 4.7 C 57.9 4.7 58 4.6 58.1 4.6 C 58.2 4.5 58.3 4.5 58.4 4.5 C 58.6 4.5 58.8 4.6 58.9 4.7 C 59.1 4.8 59.1 5 59.1 5.2 C 59.1 5.2 59.1 5.3 59.1 5.4 C 59.1 5.5 59.1 5.6 59.1 5.7 C 59.07 5.66 58.4 8.6 58.4 8.6 L 59.2 8.6 C 59.2 8.6 59.78 5.82 59.8 5.8 C 59.8 5.7 59.8 5.5 59.9 5.4 C 59.9 5.2 59.9 5 59.9 4.9 C 59.9 4.7 59.9 4.5 59.8 4.4 C 59.7 4.3 59.6 4.2 59.5 4.1 C 59.4 4 59.2 3.9 59.1 3.9 C 58.9 3.9 58.8 3.9 58.6 3.9 C 58.3 3.9 58 3.9 57.7 4.1 C 57.4 4.2 57.2 4.4 57 4.7 C 57 4.4 56.8 4.2 56.6 4 C 56.4 3.9 56.1 3.9 55.9 3.9 C 55.5 3.9 55.2 3.9 54.9 4.1 C 54.7 4.2 54.4 4.4 54.2 4.7 C 54.23 4.67 54.2 4.7 54.2 4.7 L 54.4 4 L 53.7 4 Z M 64.5 2.2 L 63.1 8.6 L 64 8.6 L 65.1 3 L 65.1 3 L 65.9 8.6 L 66.8 8.6 L 70 3 L 70.1 3 L 68.7 8.6 L 69.6 8.6 L 70.9 2.2 L 69.7 2.2 L 66.6 7.7 L 66.5 7.7 L 65.7 2.2 L 64.5 2.2 Z M 72.9 3.1 L 73.1 2.2 L 72.3 2.2 L 72.1 3.1 L 72.9 3.1 Z M 71.9 4 L 71 8.6 L 71.7 8.6 L 72.7 4 L 71.9 4 Z M 77.2 7.9 C 77.22 7.94 78.1 4 78.1 4 L 77.3 4 L 77.2 4.8 L 77.2 4.8 C 77.2 4.8 77.17 4.8 77.2 4.8 C 77.1 4.7 77.1 4.5 77 4.4 C 76.9 4.3 76.8 4.2 76.6 4.1 C 76.5 4 76.4 4 76.2 3.9 C 76 3.9 75.9 3.9 75.7 3.9 C 75.3 3.9 75 3.9 74.7 4.1 C 74.4 4.3 74.1 4.5 73.9 4.8 C 73.7 5 73.6 5.4 73.4 5.7 C 73.3 6 73.3 6.4 73.3 6.7 C 73.3 7 73.3 7.3 73.4 7.5 C 73.5 7.7 73.6 7.9 73.7 8.1 C 73.9 8.3 74 8.4 74.3 8.5 C 74.5 8.6 74.7 8.6 75 8.6 C 75.3 8.6 75.6 8.6 75.8 8.5 C 76.1 8.4 76.3 8.2 76.5 7.9 C 76.5 7.9 76.5 8 76.5 8 C 76.4 8.2 76.4 8.4 76.3 8.6 C 76.2 8.9 76.1 9.1 76 9.2 C 75.9 9.4 75.7 9.5 75.5 9.7 C 75.4 9.8 75.1 9.8 74.8 9.8 C 74.7 9.8 74.5 9.8 74.4 9.8 C 74.3 9.8 74.1 9.7 74 9.7 C 73.9 9.6 73.8 9.5 73.8 9.4 C 73.7 9.3 73.7 9.2 73.7 9.1 C 73.7 9.1 72.9 9.1 72.9 9.1 C 72.9 9.3 73 9.5 73.1 9.7 C 73.2 9.9 73.3 10 73.5 10.2 C 73.6 10.3 73.8 10.4 74.1 10.4 C 74.3 10.5 74.5 10.5 74.7 10.5 C 75.2 10.5 75.7 10.4 76 10.2 C 76.4 10 76.7 9.7 76.9 9.2 C 76.9 9 77 8.8 77 8.6 C 77.1 8.4 77.2 8.2 77.2 7.9 Z M 74 6.7 C 74 6.5 74.1 6.3 74.1 6 C 74.2 5.8 74.3 5.5 74.5 5.3 C 74.6 5.1 74.8 4.9 75 4.8 C 75.2 4.6 75.4 4.5 75.7 4.5 C 76.1 4.5 76.4 4.6 76.6 4.9 C 76.8 5.1 76.9 5.4 76.9 5.7 C 76.9 6 76.8 6.2 76.8 6.5 C 76.7 6.7 76.6 7 76.5 7.2 C 76.3 7.4 76.1 7.6 75.9 7.8 C 75.7 7.9 75.5 8 75.2 8 C 75 8 74.8 7.9 74.7 7.9 C 74.5 7.8 74.4 7.7 74.3 7.6 C 74.2 7.5 74.2 7.3 74.1 7.2 C 74.1 7 74 6.9 74 6.7 Z M 82 8.6 L 83 4 L 82.3 4 C 82.3 4 81.72 6.53 81.7 6.5 C 81.7 6.7 81.6 6.9 81.5 7.1 C 81.4 7.3 81.3 7.4 81.1 7.6 C 81 7.7 80.8 7.8 80.7 7.9 C 80.5 8 80.3 8 80.1 8 C 79.8 8 79.6 8 79.5 7.9 C 79.3 7.8 79.2 7.6 79.2 7.4 C 79.2 7.4 79.2 7.3 79.3 7.2 C 79.3 7.2 79.3 7.1 79.3 7 C 79.3 7 79.3 6.9 79.3 6.8 C 79.3 6.8 79.3 6.7 79.4 6.7 C 79.35 6.68 79.9 4 79.9 4 L 79.2 4 C 79.2 4 78.61 6.61 78.6 6.6 C 78.6 6.8 78.5 7 78.5 7.1 C 78.5 7.3 78.5 7.4 78.5 7.5 C 78.5 7.9 78.6 8.2 78.8 8.4 C 79 8.6 79.3 8.7 79.8 8.7 C 80.1 8.7 80.4 8.6 80.7 8.5 C 81 8.4 81.2 8.2 81.4 7.9 C 81.43 7.91 81.4 7.9 81.4 7.9 L 81.3 8.6 L 82 8.6 Z M 84.3 6.9 C 84.3 6.8 84.3 6.6 84.3 6.5 C 84.3 6.5 87.8 6.5 87.8 6.5 C 87.8 6.4 87.8 6.4 87.9 6.3 C 87.9 6.1 87.9 6 87.9 5.9 C 87.9 5.3 87.7 4.8 87.4 4.4 C 87.1 4 86.6 3.9 85.9 3.9 C 85.6 3.9 85.3 3.9 85 4.1 C 84.7 4.2 84.5 4.4 84.2 4.7 C 84 4.9 83.9 5.3 83.7 5.6 C 83.6 6 83.5 6.4 83.5 6.8 C 83.5 7.1 83.6 7.3 83.6 7.5 C 83.7 7.7 83.8 7.9 83.9 8.1 C 84.1 8.3 84.3 8.4 84.5 8.5 C 84.8 8.7 85.1 8.7 85.5 8.7 C 85.8 8.7 86 8.7 86.2 8.6 C 86.4 8.5 86.7 8.4 86.8 8.3 C 87 8.2 87.2 8 87.3 7.8 C 87.4 7.6 87.5 7.4 87.6 7.2 C 87.6 7.2 86.8 7.2 86.8 7.2 C 86.7 7.4 86.6 7.7 86.3 7.8 C 86.1 8 85.8 8 85.5 8 C 85.3 8 85.2 8 85 8 C 84.9 7.9 84.8 7.8 84.7 7.8 C 84.5 7.7 84.5 7.5 84.4 7.4 C 84.3 7.3 84.3 7.1 84.3 6.9 C 84.3 6.9 84.3 6.9 84.3 6.9 Z M 87.1 5.8 C 87.1 5.8 84.4 5.8 84.4 5.8 C 84.5 5.7 84.6 5.5 84.6 5.3 C 84.7 5.2 84.8 5 85 4.9 C 85.1 4.8 85.3 4.7 85.4 4.6 C 85.6 4.6 85.8 4.5 86 4.5 C 86.2 4.5 86.4 4.6 86.6 4.6 C 86.7 4.7 86.8 4.8 86.9 4.9 C 87 5.1 87.1 5.2 87.1 5.4 C 87.1 5.5 87.1 5.7 87.1 5.8 Z M 89.7 2.2 L 88.3 8.6 L 89.1 8.6 L 90.4 2.2 L 89.7 2.2 Z M 94.5 2.2 L 93.1 8.6 L 93.9 8.6 L 95 3 L 95.1 3 L 95.9 8.6 L 96.7 8.6 L 100 3 L 100 3 L 98.7 8.6 L 99.5 8.6 L 100.9 2.2 L 99.7 2.2 L 96.5 7.7 L 96.5 7.7 L 95.6 2.2 L 94.5 2.2 Z M 101.4 5.4 C 101.4 5.4 102.2 5.4 102.2 5.4 C 102.2 5.2 102.3 5.1 102.4 5 C 102.4 4.9 102.5 4.8 102.6 4.7 C 102.8 4.7 102.9 4.6 103 4.6 C 103.2 4.5 103.3 4.5 103.5 4.5 C 103.6 4.5 103.7 4.5 103.8 4.6 C 103.9 4.6 104 4.6 104.1 4.6 C 104.2 4.7 104.2 4.8 104.3 4.8 C 104.4 4.9 104.4 5 104.4 5.1 C 104.4 5.3 104.4 5.4 104.3 5.5 C 104.3 5.6 104.2 5.7 104.1 5.7 C 104 5.8 103.9 5.8 103.7 5.8 C 103.6 5.8 103.4 5.9 103.2 5.9 C 103 5.9 102.7 5.9 102.4 6 C 102.1 6 101.9 6.1 101.7 6.2 C 101.4 6.3 101.2 6.4 101.1 6.6 C 101 6.8 100.9 7.1 100.9 7.4 C 100.9 7.6 100.9 7.8 101 8 C 101.1 8.2 101.2 8.3 101.3 8.4 C 101.4 8.5 101.6 8.6 101.7 8.6 C 101.9 8.7 102.1 8.7 102.3 8.7 C 102.7 8.7 103 8.7 103.2 8.5 C 103.5 8.4 103.7 8.3 103.8 8 C 103.8 8 103.9 8.1 103.9 8.1 C 103.8 8.3 103.9 8.4 104 8.5 C 104.1 8.7 104.3 8.7 104.5 8.7 C 104.5 8.7 104.6 8.7 104.7 8.7 C 104.8 8.7 104.9 8.6 104.9 8.6 C 104.9 8.6 105.1 8 105.1 8 C 105 8.1 105 8.1 104.9 8.1 C 104.9 8.1 104.8 8.1 104.8 8.1 C 104.7 8.1 104.7 8.1 104.7 8 C 104.6 8 104.6 7.9 104.6 7.8 C 104.6 7.7 104.6 7.6 104.6 7.5 C 104.7 7.4 104.7 7.3 104.7 7.2 C 104.7 7.2 105 5.9 105 5.9 C 105 5.8 105.1 5.6 105.1 5.5 C 105.1 5.3 105.2 5.2 105.2 5 C 105.2 4.8 105.1 4.6 105 4.5 C 104.9 4.3 104.8 4.2 104.6 4.1 C 104.5 4 104.3 3.9 104.1 3.9 C 103.9 3.9 103.7 3.9 103.5 3.9 C 103.2 3.9 103 3.9 102.7 3.9 C 102.5 4 102.3 4.1 102.1 4.2 C 102 4.3 101.8 4.5 101.7 4.7 C 101.6 4.9 101.5 5.1 101.4 5.4 Z M 101.6 7.4 C 101.6 7.2 101.7 7 101.8 6.9 C 101.9 6.8 102 6.7 102.2 6.7 C 102.3 6.6 102.5 6.6 102.7 6.5 C 102.9 6.5 103 6.5 103.2 6.5 C 103.4 6.5 103.6 6.4 103.8 6.4 C 103.9 6.4 104.1 6.3 104.2 6.2 C 104.2 6.2 104.2 6.2 104.2 6.2 C 104.1 6.5 104.1 6.7 104 6.9 C 104 7.1 103.9 7.3 103.8 7.4 C 103.5 7.8 103.1 8 102.5 8 C 102.3 8 102.1 8 101.9 7.9 C 101.7 7.8 101.6 7.6 101.6 7.4 Z M 106.7 4 L 105.7 8.6 L 106.4 8.6 C 106.4 8.6 106.98 6.04 107 6 C 107 5.9 107.1 5.7 107.2 5.5 C 107.2 5.3 107.4 5.2 107.5 5.1 C 107.6 4.9 107.8 4.8 108 4.7 C 108.2 4.6 108.4 4.5 108.6 4.5 C 108.9 4.5 109.1 4.6 109.2 4.7 C 109.4 4.8 109.5 5 109.5 5.2 C 109.5 5.2 109.5 5.3 109.4 5.3 C 109.4 5.4 109.4 5.5 109.4 5.5 C 109.4 5.6 109.4 5.7 109.4 5.7 C 109.4 5.8 109.4 5.8 109.3 5.9 C 109.35 5.89 108.8 8.6 108.8 8.6 L 109.5 8.6 C 109.5 8.6 110.09 5.96 110.1 6 C 110.1 5.8 110.2 5.6 110.2 5.4 C 110.2 5.3 110.2 5.2 110.2 5 C 110.2 4.6 110.1 4.3 109.9 4.1 C 109.7 3.9 109.4 3.9 108.9 3.9 C 108.6 3.9 108.3 3.9 108 4.1 C 107.7 4.2 107.5 4.4 107.3 4.7 C 107.27 4.66 107.3 4.7 107.3 4.7 L 107.4 4 L 106.7 4 Z M 111.3 5.4 C 111.3 5.4 112.1 5.4 112.1 5.4 C 112.1 5.2 112.1 5.1 112.2 5 C 112.3 4.9 112.4 4.8 112.5 4.7 C 112.6 4.7 112.7 4.6 112.9 4.6 C 113 4.5 113.2 4.5 113.3 4.5 C 113.4 4.5 113.5 4.5 113.6 4.6 C 113.7 4.6 113.8 4.6 113.9 4.6 C 114 4.7 114.1 4.8 114.2 4.8 C 114.2 4.9 114.2 5 114.2 5.1 C 114.2 5.3 114.2 5.4 114.2 5.5 C 114.1 5.6 114.1 5.7 114 5.7 C 113.9 5.8 113.7 5.8 113.6 5.8 C 113.5 5.8 113.3 5.9 113.1 5.9 C 112.8 5.9 112.5 5.9 112.3 6 C 112 6 111.7 6.1 111.5 6.2 C 111.3 6.3 111.1 6.4 111 6.6 C 110.8 6.8 110.7 7.1 110.7 7.4 C 110.7 7.6 110.8 7.8 110.8 8 C 110.9 8.2 111 8.3 111.1 8.4 C 111.3 8.5 111.4 8.6 111.6 8.6 C 111.8 8.7 111.9 8.7 112.1 8.7 C 112.5 8.7 112.9 8.7 113.1 8.5 C 113.3 8.4 113.5 8.3 113.7 8 C 113.7 8 113.7 8.1 113.7 8.1 C 113.7 8.3 113.7 8.4 113.8 8.5 C 114 8.7 114.1 8.7 114.3 8.7 C 114.4 8.7 114.5 8.7 114.6 8.7 C 114.7 8.7 114.7 8.6 114.8 8.6 C 114.8 8.6 114.9 8 114.9 8 C 114.9 8.1 114.8 8.1 114.8 8.1 C 114.7 8.1 114.7 8.1 114.7 8.1 C 114.6 8.1 114.5 8.1 114.5 8 C 114.5 8 114.4 7.9 114.4 7.8 C 114.4 7.7 114.5 7.6 114.5 7.5 C 114.5 7.4 114.6 7.3 114.6 7.2 C 114.6 7.2 114.9 5.9 114.9 5.9 C 114.9 5.8 114.9 5.6 115 5.5 C 115 5.3 115 5.2 115 5 C 115 4.8 115 4.6 114.9 4.5 C 114.8 4.3 114.7 4.2 114.5 4.1 C 114.3 4 114.2 3.9 114 3.9 C 113.8 3.9 113.5 3.9 113.3 3.9 C 113.1 3.9 112.8 3.9 112.6 3.9 C 112.4 4 112.2 4.1 112 4.2 C 111.8 4.3 111.7 4.5 111.5 4.7 C 111.4 4.9 111.3 5.1 111.3 5.4 Z M 111.5 7.4 C 111.5 7.2 111.5 7 111.6 6.9 C 111.7 6.8 111.9 6.7 112 6.7 C 112.2 6.6 112.3 6.6 112.5 6.5 C 112.7 6.5 112.9 6.5 113.1 6.5 C 113.3 6.5 113.4 6.4 113.6 6.4 C 113.8 6.4 113.9 6.3 114 6.2 C 114 6.2 114 6.2 114 6.2 C 114 6.5 113.9 6.7 113.9 6.9 C 113.8 7.1 113.8 7.3 113.6 7.4 C 113.4 7.8 112.9 8 112.3 8 C 112.1 8 111.9 8 111.7 7.9 C 111.6 7.8 111.5 7.6 111.5 7.4 Z M 116.9 2.2 L 115.5 8.6 L 116.3 8.6 L 117.6 2.2 L 116.9 2.2 Z M 117.8 6.8 C 117.8 7.1 117.9 7.3 118 7.6 C 118 7.8 118.2 8 118.3 8.2 C 118.5 8.3 118.7 8.5 119 8.6 C 119.2 8.7 119.5 8.7 119.8 8.7 C 120.2 8.7 120.6 8.6 120.9 8.5 C 121.2 8.3 121.5 8.1 121.7 7.8 C 121.9 7.5 122.1 7.2 122.2 6.9 C 122.3 6.5 122.4 6.2 122.4 5.8 C 122.4 5.1 122.2 4.7 121.9 4.3 C 121.5 4 121 3.9 120.4 3.9 C 120 3.9 119.6 3.9 119.3 4.1 C 119 4.3 118.7 4.5 118.5 4.7 C 118.3 5 118.1 5.3 118 5.7 C 117.9 6 117.8 6.4 117.8 6.8 Z M 118.6 6.8 C 118.6 6.5 118.6 6.3 118.7 6 C 118.8 5.7 118.9 5.5 119 5.3 C 119.2 5.1 119.4 4.9 119.6 4.7 C 119.8 4.6 120.1 4.5 120.4 4.5 C 120.6 4.5 120.8 4.6 120.9 4.6 C 121.1 4.7 121.2 4.8 121.3 4.9 C 121.4 5 121.5 5.2 121.5 5.3 C 121.6 5.5 121.6 5.7 121.6 5.8 C 121.6 6.1 121.6 6.3 121.5 6.6 C 121.4 6.8 121.3 7.1 121.1 7.3 C 121 7.5 120.8 7.7 120.6 7.8 C 120.4 8 120.1 8 119.9 8 C 119.4 8 119.1 7.9 118.9 7.7 C 118.7 7.5 118.6 7.2 118.6 6.8 Z " stroke="none" fill="#000"/>
  </g>
</svg>