<?xml version="1.0" standalone="no"?>
<!DOCTYPE svg PUBLIC "-//W3C//DTD SVG 1.1//EN" "http://www.w3.org/Graphics/SVG/1.1/DTD/svg11.dtd">
<svg xmlns="http://www.w3.org/2000/svg" version="1.1" width="144.4px" height="34.7px" viewBox="0 -4 144.4 34.7" style="top:-4px">
  <desc>Solusyon o panibagong suliranin : PAGKILATIS SA BISA NG POLISIYA NG STAGGERING GE COURSES SA ENLISTMENT</desc>
  <defs/>
  <g id="Polygon13648">
    <path d="M 3.2 25.4 C 3.2 25.9 3 26.3 2.7 26.5 C 2.4 26.8 1.9 27 1.3 27 C 0.8 27 0.4 26.9 0.1 26.7 C 0.1 26.7 0.1 25.9 0.1 25.9 C 0.5 26.2 0.9 26.3 1.3 26.3 C 1.6 26.3 1.9 26.2 2.1 26.1 C 2.2 25.9 2.3 25.7 2.3 25.5 C 2.3 25.4 2.3 25.2 2.2 25.1 C 2.1 25 1.9 24.8 1.6 24.6 C 1.4 24.5 1.2 24.3 1.1 24.2 C 1 24.1 0.9 23.9 0.8 23.8 C 0.8 23.6 0.7 23.5 0.7 23.3 C 0.7 23 0.8 22.8 0.9 22.5 C 1.1 22.3 1.3 22.1 1.5 22 C 1.8 21.9 2.1 21.8 2.4 21.8 C 2.9 21.8 3.3 21.9 3.7 22.1 C 3.7 22.1 3.4 22.8 3.4 22.8 C 3 22.6 2.7 22.5 2.4 22.5 C 2.2 22.5 2 22.6 1.8 22.7 C 1.7 22.9 1.6 23 1.6 23.2 C 1.6 23.3 1.6 23.4 1.6 23.5 C 1.7 23.6 1.7 23.7 1.8 23.7 C 1.9 23.8 2 23.9 2.2 24.1 C 2.6 24.3 2.8 24.5 3 24.7 C 3.1 24.9 3.2 25.2 3.2 25.4 Z M 5 26.9 L 4.2 26.9 L 5.1 22.6 L 3.8 22.6 L 3.9 21.9 L 7.4 21.9 L 7.2 22.6 L 5.9 22.6 L 5 26.9 Z M 9.2 25.5 L 7.5 25.5 L 6.8 26.9 L 6 26.9 L 8.6 21.9 L 9.6 21.9 L 10.1 26.9 L 9.3 26.9 L 9.2 25.5 Z M 9.1 24.8 C 9.1 23.8 9 23.3 9 23.1 C 9 22.9 9 22.7 9 22.6 C 8.8 22.9 8.7 23.3 8.5 23.6 C 8.48 23.64 7.9 24.8 7.9 24.8 C 7.9 24.8 9.14 24.79 9.1 24.8 Z M 12.8 24.2 L 14.5 24.2 C 14.5 24.2 13.99 26.69 14 26.7 C 13.7 26.8 13.5 26.8 13.2 26.9 C 13 26.9 12.7 27 12.4 27 C 11.8 27 11.4 26.8 11 26.5 C 10.7 26.1 10.5 25.7 10.5 25 C 10.5 24.4 10.7 23.9 10.9 23.4 C 11.1 22.9 11.5 22.5 11.9 22.2 C 12.3 22 12.8 21.8 13.3 21.8 C 13.6 21.8 13.8 21.8 14.1 21.9 C 14.3 21.9 14.5 22 14.8 22.1 C 14.8 22.1 14.5 22.8 14.5 22.8 C 14.1 22.6 13.7 22.5 13.3 22.5 C 13 22.5 12.6 22.6 12.3 22.8 C 12.1 23 11.8 23.3 11.7 23.7 C 11.5 24.1 11.4 24.5 11.4 25 C 11.4 25.4 11.5 25.7 11.7 25.9 C 11.9 26.2 12.2 26.3 12.6 26.3 C 12.8 26.3 13.1 26.2 13.3 26.1 C 13.3 26.14 13.6 24.9 13.6 24.9 L 12.6 24.9 L 12.8 24.2 Z M 17.1 24.2 L 18.9 24.2 C 18.9 24.2 18.35 26.69 18.3 26.7 C 18.1 26.8 17.8 26.8 17.6 26.9 C 17.4 26.9 17.1 27 16.8 27 C 16.2 27 15.7 26.8 15.4 26.5 C 15.1 26.1 14.9 25.7 14.9 25 C 14.9 24.4 15 23.9 15.3 23.4 C 15.5 22.9 15.8 22.5 16.3 22.2 C 16.7 22 17.2 21.8 17.7 21.8 C 18 21.8 18.2 21.8 18.4 21.9 C 18.7 21.9 18.9 22 19.1 22.1 C 19.1 22.1 18.8 22.8 18.8 22.8 C 18.4 22.6 18.1 22.5 17.7 22.5 C 17.3 22.5 17 22.6 16.7 22.8 C 16.4 23 16.2 23.3 16 23.7 C 15.8 24.1 15.8 24.5 15.8 25 C 15.8 25.4 15.9 25.7 16.1 25.9 C 16.3 26.2 16.6 26.3 16.9 26.3 C 17.2 26.3 17.4 26.2 17.7 26.1 C 17.66 26.14 17.9 24.9 17.9 24.9 L 17 24.9 L 17.1 24.2 Z M 21.7 26.9 L 19.1 26.9 L 20.1 21.9 L 22.8 21.9 L 22.6 22.6 L 20.8 22.6 L 20.5 23.9 L 22.2 23.9 L 22.1 24.6 L 20.3 24.6 L 20 26.2 L 21.8 26.2 L 21.7 26.9 Z M 23.5 24.9 L 23.1 26.9 L 22.3 26.9 L 23.4 21.9 C 23.4 21.9 24.52 21.89 24.5 21.9 C 25 21.9 25.4 22 25.7 22.2 C 26 22.4 26.1 22.8 26.1 23.2 C 26.1 23.6 26 23.9 25.8 24.2 C 25.6 24.4 25.3 24.6 24.9 24.7 C 24.92 24.72 25.8 26.9 25.8 26.9 L 24.9 26.9 L 24.2 24.9 L 23.5 24.9 Z M 23.7 24.2 C 23.7 24.2 24.11 24.21 24.1 24.2 C 24.5 24.2 24.8 24.1 25 24 C 25.2 23.8 25.3 23.6 25.3 23.3 C 25.3 23 25.2 22.8 25.1 22.7 C 24.9 22.6 24.7 22.6 24.4 22.6 C 24.44 22.58 24 22.6 24 22.6 L 23.7 24.2 Z M 26 26.9 L 27.1 21.9 L 27.9 21.9 L 26.8 26.9 L 26 26.9 Z M 31.5 26.9 L 30.6 26.9 L 29.2 22.9 L 29.2 22.9 C 29.2 22.9 29.16 23.15 29.2 23.1 C 29.1 23.5 29.1 23.7 29 23.9 C 29 24 28.8 25 28.4 26.9 C 28.41 26.89 27.7 26.9 27.7 26.9 L 28.7 21.9 L 29.6 21.9 L 31 25.8 C 31 25.8 31.02 25.82 31 25.8 C 31 25.7 31.1 25.5 31.1 25.2 C 31.2 24.8 31.2 24.6 31.3 24.5 C 31.27 24.46 31.8 21.9 31.8 21.9 L 32.6 21.9 L 31.5 26.9 Z M 34.8 24.2 L 36.5 24.2 C 36.5 24.2 36.01 26.69 36 26.7 C 35.8 26.8 35.5 26.8 35.3 26.9 C 35 26.9 34.7 27 34.4 27 C 33.9 27 33.4 26.8 33.1 26.5 C 32.7 26.1 32.6 25.7 32.6 25 C 32.6 24.4 32.7 23.9 32.9 23.4 C 33.2 22.9 33.5 22.5 33.9 22.2 C 34.3 22 34.8 21.8 35.4 21.8 C 35.6 21.8 35.9 21.8 36.1 21.9 C 36.3 21.9 36.6 22 36.8 22.1 C 36.8 22.1 36.5 22.8 36.5 22.8 C 36.1 22.6 35.7 22.5 35.3 22.5 C 35 22.5 34.7 22.6 34.4 22.8 C 34.1 23 33.8 23.3 33.7 23.7 C 33.5 24.1 33.4 24.5 33.4 25 C 33.4 25.4 33.5 25.7 33.7 25.9 C 33.9 26.2 34.2 26.3 34.6 26.3 C 34.8 26.3 35.1 26.2 35.3 26.1 C 35.32 26.14 35.6 24.9 35.6 24.9 L 34.6 24.9 L 34.8 24.2 Z M 40.6 24.2 L 42.3 24.2 C 42.3 24.2 41.77 26.69 41.8 26.7 C 41.5 26.8 41.3 26.8 41 26.9 C 40.8 26.9 40.5 27 40.2 27 C 39.6 27 39.2 26.8 38.8 26.5 C 38.5 26.1 38.3 25.7 38.3 25 C 38.3 24.4 38.4 23.9 38.7 23.4 C 38.9 22.9 39.2 22.5 39.7 22.2 C 40.1 22 40.6 21.8 41.1 21.8 C 41.4 21.8 41.6 21.8 41.9 21.9 C 42.1 21.9 42.3 22 42.6 22.1 C 42.6 22.1 42.3 22.8 42.3 22.8 C 41.9 22.6 41.5 22.5 41.1 22.5 C 40.7 22.5 40.4 22.6 40.1 22.8 C 39.8 23 39.6 23.3 39.4 23.7 C 39.3 24.1 39.2 24.5 39.2 25 C 39.2 25.4 39.3 25.7 39.5 25.9 C 39.7 26.2 40 26.3 40.3 26.3 C 40.6 26.3 40.8 26.2 41.1 26.1 C 41.08 26.14 41.4 24.9 41.4 24.9 L 40.4 24.9 L 40.6 24.2 Z M 45.1 26.9 L 42.5 26.9 L 43.5 21.9 L 46.2 21.9 L 46 22.6 L 44.2 22.6 L 43.9 23.9 L 45.6 23.9 L 45.5 24.6 L 43.8 24.6 L 43.4 26.2 L 45.3 26.2 L 45.1 26.9 Z M 50 22.5 C 49.7 22.5 49.4 22.6 49.1 22.8 C 48.8 23 48.6 23.3 48.4 23.7 C 48.3 24.1 48.2 24.5 48.2 25 C 48.2 25.4 48.3 25.7 48.5 25.9 C 48.7 26.1 48.9 26.3 49.3 26.3 C 49.6 26.3 50 26.2 50.4 26 C 50.4 26 50.4 26.7 50.4 26.7 C 50 26.9 49.6 27 49.2 27 C 48.6 27 48.2 26.8 47.8 26.4 C 47.5 26.1 47.4 25.6 47.4 25 C 47.4 24.4 47.5 23.9 47.7 23.4 C 48 22.9 48.3 22.5 48.7 22.2 C 49.1 21.9 49.5 21.8 50 21.8 C 50.5 21.8 51 21.9 51.4 22.1 C 51.4 22.1 51.1 22.8 51.1 22.8 C 50.9 22.7 50.8 22.7 50.6 22.6 C 50.4 22.5 50.3 22.5 50 22.5 Z M 55.5 23.7 C 55.5 24.4 55.4 24.9 55.2 25.4 C 55 25.9 54.7 26.3 54.3 26.6 C 53.9 26.8 53.5 27 53 27 C 52.4 27 51.9 26.8 51.6 26.4 C 51.3 26.1 51.1 25.6 51.1 25 C 51.1 24.4 51.2 23.9 51.5 23.4 C 51.7 22.9 52 22.5 52.4 22.2 C 52.8 21.9 53.2 21.8 53.7 21.8 C 54.3 21.8 54.7 22 55 22.3 C 55.4 22.7 55.5 23.1 55.5 23.7 Z M 53.6 22.5 C 53.3 22.5 53 22.6 52.8 22.8 C 52.5 23.1 52.3 23.4 52.2 23.8 C 52 24.1 52 24.6 52 25 C 52 25.4 52.1 25.7 52.2 25.9 C 52.4 26.2 52.7 26.3 53 26.3 C 53.3 26.3 53.6 26.1 53.9 25.9 C 54.1 25.7 54.3 25.4 54.5 25 C 54.6 24.6 54.7 24.2 54.7 23.7 C 54.7 23.4 54.6 23.1 54.4 22.8 C 54.2 22.6 54 22.5 53.6 22.5 Z M 60.2 21.9 C 60.2 21.9 59.47 25.16 59.5 25.2 C 59.3 25.8 59.1 26.2 58.8 26.5 C 58.4 26.8 58 27 57.4 27 C 56.9 27 56.5 26.8 56.2 26.6 C 56 26.4 55.8 26 55.8 25.5 C 55.8 25.4 55.9 25.2 55.9 25 C 55.9 24.97 56.6 21.9 56.6 21.9 L 57.4 21.9 C 57.4 21.9 56.71 24.98 56.7 25 C 56.7 25.2 56.6 25.4 56.6 25.5 C 56.6 25.8 56.7 25.9 56.8 26.1 C 57 26.2 57.2 26.3 57.5 26.3 C 57.8 26.3 58.1 26.2 58.2 26 C 58.4 25.8 58.6 25.5 58.7 25.1 C 58.67 25.09 59.4 21.9 59.4 21.9 L 60.2 21.9 Z M 61.1 24.9 L 60.7 26.9 L 59.9 26.9 L 61 21.9 C 61 21.9 62.13 21.89 62.1 21.9 C 62.6 21.9 63 22 63.3 22.2 C 63.6 22.4 63.7 22.8 63.7 23.2 C 63.7 23.6 63.6 23.9 63.4 24.2 C 63.2 24.4 62.9 24.6 62.5 24.7 C 62.53 24.72 63.4 26.9 63.4 26.9 L 62.5 26.9 L 61.8 24.9 L 61.1 24.9 Z M 61.3 24.2 C 61.3 24.2 61.71 24.21 61.7 24.2 C 62.1 24.2 62.4 24.1 62.6 24 C 62.8 23.8 62.9 23.6 62.9 23.3 C 62.9 23 62.8 22.8 62.7 22.7 C 62.5 22.6 62.3 22.6 62 22.6 C 62.04 22.58 61.6 22.6 61.6 22.6 L 61.3 24.2 Z M 66.6 25.4 C 66.6 25.9 66.4 26.3 66.1 26.5 C 65.7 26.8 65.3 27 64.7 27 C 64.2 27 63.8 26.9 63.5 26.7 C 63.5 26.7 63.5 25.9 63.5 25.9 C 63.9 26.2 64.3 26.3 64.7 26.3 C 65 26.3 65.3 26.2 65.4 26.1 C 65.6 25.9 65.7 25.7 65.7 25.5 C 65.7 25.4 65.7 25.2 65.6 25.1 C 65.5 25 65.3 24.8 65 24.6 C 64.7 24.5 64.6 24.3 64.5 24.2 C 64.3 24.1 64.3 23.9 64.2 23.8 C 64.1 23.6 64.1 23.5 64.1 23.3 C 64.1 23 64.2 22.8 64.3 22.5 C 64.5 22.3 64.7 22.1 64.9 22 C 65.2 21.9 65.5 21.8 65.8 21.8 C 66.2 21.8 66.7 21.9 67.1 22.1 C 67.1 22.1 66.8 22.8 66.8 22.8 C 66.4 22.6 66.1 22.5 65.8 22.5 C 65.5 22.5 65.3 22.6 65.2 22.7 C 65 22.9 65 23 65 23.2 C 65 23.3 65 23.4 65 23.5 C 65 23.6 65.1 23.7 65.2 23.7 C 65.2 23.8 65.4 23.9 65.6 24.1 C 66 24.3 66.2 24.5 66.4 24.7 C 66.5 24.9 66.6 25.2 66.6 25.4 Z M 69.5 26.9 L 66.8 26.9 L 67.9 21.9 L 70.5 21.9 L 70.4 22.6 L 68.5 22.6 L 68.2 23.9 L 70 23.9 L 69.8 24.6 L 68.1 24.6 L 67.8 26.2 L 69.6 26.2 L 69.5 26.9 Z M 73 25.4 C 73 25.9 72.8 26.3 72.5 26.5 C 72.2 26.8 71.7 27 71.2 27 C 70.7 27 70.3 26.9 70 26.7 C 70 26.7 70 25.9 70 25.9 C 70.4 26.2 70.8 26.3 71.2 26.3 C 71.5 26.3 71.7 26.2 71.9 26.1 C 72.1 25.9 72.2 25.7 72.2 25.5 C 72.2 25.4 72.1 25.2 72 25.1 C 71.9 25 71.7 24.8 71.4 24.6 C 71.2 24.5 71 24.3 70.9 24.2 C 70.8 24.1 70.7 23.9 70.6 23.8 C 70.6 23.6 70.6 23.5 70.6 23.3 C 70.6 23 70.6 22.8 70.8 22.5 C 70.9 22.3 71.1 22.1 71.4 22 C 71.6 21.9 71.9 21.8 72.2 21.8 C 72.7 21.8 73.1 21.9 73.5 22.1 C 73.5 22.1 73.2 22.8 73.2 22.8 C 72.9 22.6 72.5 22.5 72.2 22.5 C 72 22.5 71.8 22.6 71.6 22.7 C 71.5 22.9 71.4 23 71.4 23.2 C 71.4 23.3 71.4 23.4 71.5 23.5 C 71.5 23.6 71.5 23.7 71.6 23.7 C 71.7 23.8 71.8 23.9 72.1 24.1 C 72.4 24.3 72.7 24.5 72.8 24.7 C 72.9 24.9 73 25.2 73 25.4 Z M 77.6 25.4 C 77.6 25.9 77.4 26.3 77.1 26.5 C 76.8 26.8 76.3 27 75.7 27 C 75.3 27 74.9 26.9 74.6 26.7 C 74.6 26.7 74.6 25.9 74.6 25.9 C 74.9 26.2 75.3 26.3 75.8 26.3 C 76.1 26.3 76.3 26.2 76.5 26.1 C 76.7 25.9 76.8 25.7 76.8 25.5 C 76.8 25.4 76.7 25.2 76.6 25.1 C 76.5 25 76.3 24.8 76 24.6 C 75.8 24.5 75.6 24.3 75.5 24.2 C 75.4 24.1 75.3 23.9 75.2 23.8 C 75.2 23.6 75.1 23.5 75.1 23.3 C 75.1 23 75.2 22.8 75.4 22.5 C 75.5 22.3 75.7 22.1 76 22 C 76.2 21.9 76.5 21.8 76.8 21.8 C 77.3 21.8 77.7 21.9 78.1 22.1 C 78.1 22.1 77.8 22.8 77.8 22.8 C 77.5 22.6 77.1 22.5 76.8 22.5 C 76.6 22.5 76.4 22.6 76.2 22.7 C 76.1 22.9 76 23 76 23.2 C 76 23.3 76 23.4 76 23.5 C 76.1 23.6 76.1 23.7 76.2 23.7 C 76.3 23.8 76.4 23.9 76.7 24.1 C 77 24.3 77.3 24.5 77.4 24.7 C 77.5 24.9 77.6 25.2 77.6 25.4 Z M 80.4 25.5 L 78.8 25.5 L 78.1 26.9 L 77.2 26.9 L 79.9 21.9 L 80.8 21.9 L 81.4 26.9 L 80.6 26.9 L 80.4 25.5 Z M 80.4 24.8 C 80.3 23.8 80.2 23.3 80.2 23.1 C 80.2 22.9 80.2 22.7 80.2 22.6 C 80.1 22.9 79.9 23.3 79.7 23.6 C 79.73 23.64 79.1 24.8 79.1 24.8 C 79.1 24.8 80.39 24.79 80.4 24.8 Z M 85.6 26.9 L 83 26.9 L 84 21.9 L 86.7 21.9 L 86.5 22.6 L 84.7 22.6 L 84.4 23.9 L 86.1 23.9 L 86 24.6 L 84.3 24.6 L 83.9 26.2 L 85.8 26.2 L 85.6 26.9 Z M 90.1 26.9 L 89.2 26.9 L 87.8 22.9 L 87.8 22.9 C 87.8 22.9 87.72 23.15 87.7 23.1 C 87.7 23.5 87.6 23.7 87.6 23.9 C 87.6 24 87.4 25 87 26.9 C 86.97 26.89 86.2 26.9 86.2 26.9 L 87.3 21.9 L 88.2 21.9 L 89.6 25.8 C 89.6 25.8 89.58 25.82 89.6 25.8 C 89.6 25.7 89.6 25.5 89.7 25.2 C 89.7 24.8 89.8 24.6 89.8 24.5 C 89.82 24.46 90.4 21.9 90.4 21.9 L 91.1 21.9 L 90.1 26.9 Z M 90.9 26.9 L 92 21.9 L 92.8 21.9 L 91.9 26.2 L 93.7 26.2 L 93.6 26.9 L 90.9 26.9 Z M 94 26.9 L 95 21.9 L 95.8 21.9 L 94.8 26.9 L 94 26.9 Z M 98.6 25.4 C 98.6 25.9 98.4 26.3 98.1 26.5 C 97.7 26.8 97.3 27 96.7 27 C 96.2 27 95.8 26.9 95.5 26.7 C 95.5 26.7 95.5 25.9 95.5 25.9 C 95.9 26.2 96.3 26.3 96.7 26.3 C 97 26.3 97.3 26.2 97.4 26.1 C 97.6 25.9 97.7 25.7 97.7 25.5 C 97.7 25.4 97.7 25.2 97.6 25.1 C 97.5 25 97.3 24.8 97 24.6 C 96.7 24.5 96.6 24.3 96.5 24.2 C 96.3 24.1 96.3 23.9 96.2 23.8 C 96.1 23.6 96.1 23.5 96.1 23.3 C 96.1 23 96.2 22.8 96.3 22.5 C 96.5 22.3 96.7 22.1 96.9 22 C 97.2 21.9 97.5 21.8 97.8 21.8 C 98.2 21.8 98.7 21.9 99.1 22.1 C 99.1 22.1 98.8 22.8 98.8 22.8 C 98.4 22.6 98.1 22.5 97.8 22.5 C 97.5 22.5 97.3 22.6 97.2 22.7 C 97 22.9 97 23 97 23.2 C 97 23.3 97 23.4 97 23.5 C 97 23.6 97.1 23.7 97.2 23.7 C 97.2 23.8 97.4 23.9 97.6 24.1 C 98 24.3 98.2 24.5 98.4 24.7 C 98.5 24.9 98.6 25.2 98.6 25.4 Z M 100.4 26.9 L 99.6 26.9 L 100.5 22.6 L 99.2 22.6 L 99.3 21.9 L 102.7 21.9 L 102.6 22.6 L 101.3 22.6 L 100.4 26.9 Z M 104 26.9 L 103.6 22.7 C 103.6 22.7 103.55 22.74 103.5 22.7 C 103.5 23 103.5 23.4 103.4 23.9 C 103.36 23.9 102.7 26.9 102.7 26.9 L 102 26.9 L 103 21.9 L 104.1 21.9 L 104.5 25.8 L 104.5 25.8 L 106.6 21.9 L 107.8 21.9 L 106.7 26.9 L 106 26.9 C 106 26.9 106.58 23.91 106.6 23.9 C 106.7 23.5 106.8 23.1 106.9 22.7 C 106.88 22.74 106.9 22.7 106.9 22.7 L 104.7 26.9 L 104 26.9 Z M 110.2 26.9 L 107.6 26.9 L 108.6 21.9 L 111.3 21.9 L 111.1 22.6 L 109.3 22.6 L 109 23.9 L 110.7 23.9 L 110.6 24.6 L 108.9 24.6 L 108.5 26.2 L 110.4 26.2 L 110.2 26.9 Z M 114.7 26.9 L 113.8 26.9 L 112.4 22.9 L 112.4 22.9 C 112.4 22.9 112.32 23.15 112.3 23.1 C 112.3 23.5 112.2 23.7 112.2 23.9 C 112.2 24 112 25 111.6 26.9 C 111.58 26.89 110.8 26.9 110.8 26.9 L 111.9 21.9 L 112.8 21.9 L 114.2 25.8 C 114.2 25.8 114.19 25.82 114.2 25.8 C 114.2 25.7 114.2 25.5 114.3 25.2 C 114.4 24.8 114.4 24.6 114.4 24.5 C 114.43 24.46 115 21.9 115 21.9 L 115.7 21.9 L 114.7 26.9 Z M 117.1 26.9 L 116.3 26.9 L 117.2 22.6 L 115.9 22.6 L 116 21.9 L 119.4 21.9 L 119.3 22.6 L 118 22.6 L 117.1 26.9 Z " stroke="none" fill="#000"/>
  </g>
  <g id="Polygon13647">
    <path d="M 1.6 14.3 C 1.6 14.3 1.91 14.33 1.9 14.3 C 2.3 14.3 2.6 14.2 2.9 14.1 C 3.1 13.9 3.2 13.6 3.2 13.3 C 3.2 13 3.1 12.9 3 12.7 C 2.9 12.6 2.6 12.6 2.4 12.6 C 2.37 12.57 2 12.6 2 12.6 L 1.6 14.3 Z M 4 13.3 C 4 13.8 3.8 14.3 3.4 14.6 C 3 14.9 2.5 15 1.8 15 C 1.82 15.02 1.4 15 1.4 15 L 1 16.9 L 0.2 16.9 L 1.3 11.9 C 1.3 11.9 2.44 11.89 2.4 11.9 C 3 11.9 3.4 12 3.6 12.2 C 3.9 12.5 4 12.8 4 13.3 Z M 6.4 15.5 L 4.8 15.5 L 4 16.9 L 3.2 16.9 L 5.9 11.9 L 6.8 11.9 L 7.4 16.9 L 6.6 16.9 L 6.4 15.5 Z M 6.4 14.8 C 6.3 13.8 6.2 13.3 6.2 13.1 C 6.2 12.9 6.2 12.7 6.2 12.6 C 6.1 12.9 5.9 13.3 5.7 13.6 C 5.7 13.64 5.1 14.8 5.1 14.8 C 5.1 14.8 6.36 14.79 6.4 14.8 Z M 10 14.2 L 11.7 14.2 C 11.7 14.2 11.21 16.69 11.2 16.7 C 11 16.8 10.7 16.8 10.5 16.9 C 10.2 16.9 9.9 17 9.6 17 C 9.1 17 8.6 16.8 8.3 16.5 C 7.9 16.1 7.8 15.7 7.8 15 C 7.8 14.4 7.9 13.9 8.1 13.4 C 8.4 12.9 8.7 12.5 9.1 12.2 C 9.5 12 10 11.8 10.6 11.8 C 10.8 11.8 11.1 11.8 11.3 11.9 C 11.5 11.9 11.8 12 12 12.1 C 12 12.1 11.7 12.8 11.7 12.8 C 11.3 12.6 10.9 12.5 10.5 12.5 C 10.2 12.5 9.9 12.6 9.6 12.8 C 9.3 13 9 13.3 8.9 13.7 C 8.7 14.1 8.6 14.5 8.6 15 C 8.6 15.4 8.7 15.7 8.9 15.9 C 9.1 16.2 9.4 16.3 9.8 16.3 C 10 16.3 10.3 16.2 10.5 16.1 C 10.52 16.14 10.8 14.9 10.8 14.9 L 9.8 14.9 L 10 14.2 Z M 15.4 16.9 L 14.5 16.9 L 13.6 14.6 L 13.1 15 L 12.7 16.9 L 11.9 16.9 L 13 11.9 L 13.8 11.9 L 13.3 14.3 L 13.7 13.7 L 15.4 11.9 L 16.4 11.9 L 14.3 14.2 L 15.4 16.9 Z M 15.6 16.9 L 16.6 11.9 L 17.5 11.9 L 16.4 16.9 L 15.6 16.9 Z M 17.2 16.9 L 18.3 11.9 L 19.1 11.9 L 18.2 16.2 L 20 16.2 L 19.9 16.9 L 17.2 16.9 Z M 22.9 15.5 L 21.2 15.5 L 20.5 16.9 L 19.6 16.9 L 22.3 11.9 L 23.3 11.9 L 23.8 16.9 L 23 16.9 L 22.9 15.5 Z M 22.8 14.8 C 22.7 13.8 22.7 13.3 22.7 13.1 C 22.7 12.9 22.7 12.7 22.7 12.6 C 22.5 12.9 22.4 13.3 22.2 13.6 C 22.17 13.64 21.6 14.8 21.6 14.8 C 21.6 14.8 22.83 14.79 22.8 14.8 Z M 25.6 16.9 L 24.8 16.9 L 25.7 12.6 L 24.4 12.6 L 24.5 11.9 L 27.9 11.9 L 27.8 12.6 L 26.5 12.6 L 25.6 16.9 Z M 27.2 16.9 L 28.3 11.9 L 29.1 11.9 L 28 16.9 L 27.2 16.9 Z M 31.8 15.4 C 31.8 15.9 31.6 16.3 31.3 16.5 C 31 16.8 30.5 17 29.9 17 C 29.5 17 29.1 16.9 28.7 16.7 C 28.7 16.7 28.7 15.9 28.7 15.9 C 29.1 16.2 29.5 16.3 29.9 16.3 C 30.3 16.3 30.5 16.2 30.7 16.1 C 30.9 15.9 30.9 15.7 30.9 15.5 C 30.9 15.4 30.9 15.2 30.8 15.1 C 30.7 15 30.5 14.8 30.2 14.6 C 30 14.5 29.8 14.3 29.7 14.2 C 29.6 14.1 29.5 13.9 29.4 13.8 C 29.4 13.6 29.3 13.5 29.3 13.3 C 29.3 13 29.4 12.8 29.5 12.5 C 29.7 12.3 29.9 12.1 30.1 12 C 30.4 11.9 30.7 11.8 31 11.8 C 31.5 11.8 31.9 11.9 32.3 12.1 C 32.3 12.1 32 12.8 32 12.8 C 31.6 12.6 31.3 12.5 31 12.5 C 30.8 12.5 30.6 12.6 30.4 12.7 C 30.3 12.9 30.2 13 30.2 13.2 C 30.2 13.3 30.2 13.4 30.2 13.5 C 30.3 13.6 30.3 13.7 30.4 13.7 C 30.5 13.8 30.6 13.9 30.9 14.1 C 31.2 14.3 31.5 14.5 31.6 14.7 C 31.7 14.9 31.8 15.2 31.8 15.4 Z M 36.4 15.4 C 36.4 15.9 36.2 16.3 35.9 16.5 C 35.6 16.8 35.1 17 34.5 17 C 34 17 33.6 16.9 33.3 16.7 C 33.3 16.7 33.3 15.9 33.3 15.9 C 33.7 16.2 34.1 16.3 34.5 16.3 C 34.8 16.3 35.1 16.2 35.3 16.1 C 35.4 15.9 35.5 15.7 35.5 15.5 C 35.5 15.4 35.5 15.2 35.4 15.1 C 35.3 15 35.1 14.8 34.8 14.6 C 34.6 14.5 34.4 14.3 34.3 14.2 C 34.2 14.1 34.1 13.9 34 13.8 C 34 13.6 33.9 13.5 33.9 13.3 C 33.9 13 34 12.8 34.1 12.5 C 34.3 12.3 34.5 12.1 34.7 12 C 35 11.9 35.3 11.8 35.6 11.8 C 36.1 11.8 36.5 11.9 36.9 12.1 C 36.9 12.1 36.6 12.8 36.6 12.8 C 36.2 12.6 35.9 12.5 35.6 12.5 C 35.4 12.5 35.2 12.6 35 12.7 C 34.9 12.9 34.8 13 34.8 13.2 C 34.8 13.3 34.8 13.4 34.8 13.5 C 34.9 13.6 34.9 13.7 35 13.7 C 35.1 13.8 35.2 13.9 35.4 14.1 C 35.8 14.3 36 14.5 36.2 14.7 C 36.3 14.9 36.4 15.2 36.4 15.4 Z M 39.2 15.5 L 37.6 15.5 L 36.8 16.9 L 36 16.9 L 38.7 11.9 L 39.6 11.9 L 40.2 16.9 L 39.4 16.9 L 39.2 15.5 Z M 39.2 14.8 C 39.1 13.8 39 13.3 39 13.1 C 39 12.9 39 12.7 39 12.6 C 38.9 12.9 38.7 13.3 38.5 13.6 C 38.5 13.64 37.9 14.8 37.9 14.8 C 37.9 14.8 39.16 14.79 39.2 14.8 Z M 44.2 11.9 C 44.7 11.9 45.1 12 45.3 12.2 C 45.6 12.4 45.7 12.7 45.7 13 C 45.7 13.4 45.6 13.6 45.4 13.9 C 45.2 14.1 44.9 14.2 44.6 14.3 C 44.6 14.3 44.6 14.3 44.6 14.3 C 44.8 14.4 45 14.5 45.2 14.7 C 45.3 14.8 45.4 15.1 45.4 15.3 C 45.4 15.8 45.2 16.2 44.8 16.5 C 44.5 16.7 44 16.9 43.4 16.9 C 43.42 16.89 41.7 16.9 41.7 16.9 L 42.8 11.9 C 42.8 11.9 44.17 11.89 44.2 11.9 Z M 43.2 14 C 43.2 14 43.86 13.95 43.9 14 C 44.2 14 44.4 13.9 44.6 13.7 C 44.8 13.6 44.9 13.4 44.9 13.2 C 44.9 12.8 44.6 12.6 44.1 12.6 C 44.09 12.57 43.5 12.6 43.5 12.6 L 43.2 14 Z M 42.7 16.2 C 42.7 16.2 43.46 16.2 43.5 16.2 C 43.8 16.2 44.1 16.1 44.2 16 C 44.4 15.8 44.5 15.6 44.5 15.3 C 44.5 15.1 44.5 14.9 44.3 14.8 C 44.2 14.7 44 14.6 43.7 14.6 C 43.72 14.62 43 14.6 43 14.6 L 42.7 16.2 Z M 45.6 16.9 L 46.7 11.9 L 47.5 11.9 L 46.4 16.9 L 45.6 16.9 Z M 50.2 15.4 C 50.2 15.9 50 16.3 49.7 16.5 C 49.4 16.8 48.9 17 48.3 17 C 47.9 17 47.5 16.9 47.1 16.7 C 47.1 16.7 47.1 15.9 47.1 15.9 C 47.5 16.2 47.9 16.3 48.3 16.3 C 48.6 16.3 48.9 16.2 49.1 16.1 C 49.3 15.9 49.3 15.7 49.3 15.5 C 49.3 15.4 49.3 15.2 49.2 15.1 C 49.1 15 48.9 14.8 48.6 14.6 C 48.4 14.5 48.2 14.3 48.1 14.2 C 48 14.1 47.9 13.9 47.8 13.8 C 47.8 13.6 47.7 13.5 47.7 13.3 C 47.7 13 47.8 12.8 47.9 12.5 C 48.1 12.3 48.3 12.1 48.5 12 C 48.8 11.9 49.1 11.8 49.4 11.8 C 49.9 11.8 50.3 11.9 50.7 12.1 C 50.7 12.1 50.4 12.8 50.4 12.8 C 50 12.6 49.7 12.5 49.4 12.5 C 49.2 12.5 49 12.6 48.8 12.7 C 48.7 12.9 48.6 13 48.6 13.2 C 48.6 13.3 48.6 13.4 48.6 13.5 C 48.7 13.6 48.7 13.7 48.8 13.7 C 48.9 13.8 49 13.9 49.3 14.1 C 49.6 14.3 49.8 14.5 50 14.7 C 50.1 14.9 50.2 15.2 50.2 15.4 Z M 53 15.5 L 51.4 15.5 L 50.7 16.9 L 49.8 16.9 L 52.5 11.9 L 53.4 11.9 L 54 16.9 L 53.2 16.9 L 53 15.5 Z M 53 14.8 C 52.9 13.8 52.8 13.3 52.8 13.1 C 52.8 12.9 52.8 12.7 52.8 12.6 C 52.7 12.9 52.5 13.3 52.3 13.6 C 52.31 13.64 51.7 14.8 51.7 14.8 C 51.7 14.8 52.97 14.79 53 14.8 Z M 59.4 16.9 L 58.5 16.9 L 57.1 12.9 L 57.1 12.9 C 57.1 12.9 57.04 13.15 57 13.1 C 57 13.5 56.9 13.7 56.9 13.9 C 56.9 14 56.7 15 56.3 16.9 C 56.29 16.89 55.5 16.9 55.5 16.9 L 56.6 11.9 L 57.5 11.9 L 58.9 15.8 C 58.9 15.8 58.91 15.82 58.9 15.8 C 58.9 15.7 59 15.5 59 15.2 C 59.1 14.8 59.1 14.6 59.1 14.5 C 59.15 14.46 59.7 11.9 59.7 11.9 L 60.4 11.9 L 59.4 16.9 Z M 62.7 14.2 L 64.4 14.2 C 64.4 14.2 63.89 16.69 63.9 16.7 C 63.6 16.8 63.4 16.8 63.1 16.9 C 62.9 16.9 62.6 17 62.3 17 C 61.7 17 61.3 16.8 60.9 16.5 C 60.6 16.1 60.5 15.7 60.5 15 C 60.5 14.4 60.6 13.9 60.8 13.4 C 61 12.9 61.4 12.5 61.8 12.2 C 62.2 12 62.7 11.8 63.3 11.8 C 63.5 11.8 63.7 11.8 64 11.9 C 64.2 11.9 64.4 12 64.7 12.1 C 64.7 12.1 64.4 12.8 64.4 12.8 C 64 12.6 63.6 12.5 63.2 12.5 C 62.9 12.5 62.5 12.6 62.2 12.8 C 62 13 61.7 13.3 61.6 13.7 C 61.4 14.1 61.3 14.5 61.3 15 C 61.3 15.4 61.4 15.7 61.6 15.9 C 61.8 16.2 62.1 16.3 62.5 16.3 C 62.7 16.3 63 16.2 63.2 16.1 C 63.2 16.14 63.5 14.9 63.5 14.9 L 62.5 14.9 L 62.7 14.2 Z M 67.3 14.3 C 67.3 14.3 67.66 14.33 67.7 14.3 C 68.1 14.3 68.4 14.2 68.6 14.1 C 68.8 13.9 68.9 13.6 68.9 13.3 C 68.9 13 68.9 12.9 68.7 12.7 C 68.6 12.6 68.4 12.6 68.1 12.6 C 68.12 12.57 67.7 12.6 67.7 12.6 L 67.3 14.3 Z M 69.8 13.3 C 69.8 13.8 69.6 14.3 69.2 14.6 C 68.8 14.9 68.3 15 67.6 15 C 67.57 15.02 67.2 15 67.2 15 L 66.8 16.9 L 66 16.9 L 67 11.9 C 67 11.9 68.19 11.89 68.2 11.9 C 68.7 11.9 69.1 12 69.4 12.2 C 69.6 12.5 69.8 12.8 69.8 13.3 Z M 74.2 13.7 C 74.2 14.4 74.1 14.9 73.9 15.4 C 73.7 15.9 73.4 16.3 73 16.6 C 72.6 16.8 72.2 17 71.7 17 C 71.1 17 70.6 16.8 70.3 16.4 C 70 16.1 69.8 15.6 69.8 15 C 69.8 14.4 69.9 13.9 70.1 13.4 C 70.4 12.9 70.7 12.5 71.1 12.2 C 71.5 11.9 71.9 11.8 72.4 11.8 C 73 11.8 73.4 12 73.7 12.3 C 74 12.7 74.2 13.1 74.2 13.7 Z M 72.3 12.5 C 72 12.5 71.7 12.6 71.5 12.8 C 71.2 13.1 71 13.4 70.9 13.8 C 70.7 14.1 70.7 14.6 70.7 15 C 70.7 15.4 70.7 15.7 70.9 15.9 C 71.1 16.2 71.4 16.3 71.7 16.3 C 72 16.3 72.3 16.1 72.6 15.9 C 72.8 15.7 73 15.4 73.1 15 C 73.3 14.6 73.4 14.2 73.4 13.7 C 73.4 13.4 73.3 13.1 73.1 12.8 C 72.9 12.6 72.7 12.5 72.3 12.5 Z M 74.2 16.9 L 75.3 11.9 L 76.1 11.9 L 75.2 16.2 L 77 16.2 L 76.9 16.9 L 74.2 16.9 Z M 77.3 16.9 L 78.4 11.9 L 79.2 11.9 L 78.1 16.9 L 77.3 16.9 Z M 81.9 15.4 C 81.9 15.9 81.7 16.3 81.4 16.5 C 81.1 16.8 80.6 17 80 17 C 79.6 17 79.2 16.9 78.8 16.7 C 78.8 16.7 78.8 15.9 78.8 15.9 C 79.2 16.2 79.6 16.3 80 16.3 C 80.4 16.3 80.6 16.2 80.8 16.1 C 81 15.9 81 15.7 81 15.5 C 81 15.4 81 15.2 80.9 15.1 C 80.8 15 80.6 14.8 80.3 14.6 C 80.1 14.5 79.9 14.3 79.8 14.2 C 79.7 14.1 79.6 13.9 79.5 13.8 C 79.5 13.6 79.4 13.5 79.4 13.3 C 79.4 13 79.5 12.8 79.6 12.5 C 79.8 12.3 80 12.1 80.2 12 C 80.5 11.9 80.8 11.8 81.1 11.8 C 81.6 11.8 82 11.9 82.4 12.1 C 82.4 12.1 82.1 12.8 82.1 12.8 C 81.8 12.6 81.4 12.5 81.1 12.5 C 80.9 12.5 80.7 12.6 80.5 12.7 C 80.4 12.9 80.3 13 80.3 13.2 C 80.3 13.3 80.3 13.4 80.3 13.5 C 80.4 13.6 80.4 13.7 80.5 13.7 C 80.6 13.8 80.7 13.9 81 14.1 C 81.3 14.3 81.6 14.5 81.7 14.7 C 81.8 14.9 81.9 15.2 81.9 15.4 Z M 82.1 16.9 L 83.2 11.9 L 84 11.9 L 82.9 16.9 L 82.1 16.9 Z M 85.5 14.2 L 87 11.9 L 87.9 11.9 L 85.8 15 L 85.4 16.9 L 84.6 16.9 L 85 15 L 84.2 11.9 L 85 11.9 L 85.5 14.2 Z M 89.7 15.5 L 88 15.5 L 87.3 16.9 L 86.5 16.9 L 89.1 11.9 L 90.1 11.9 L 90.6 16.9 L 89.8 16.9 L 89.7 15.5 Z M 89.6 14.8 C 89.6 13.8 89.5 13.3 89.5 13.1 C 89.5 12.9 89.5 12.7 89.5 12.6 C 89.3 12.9 89.2 13.3 89 13.6 C 88.99 13.64 88.4 14.8 88.4 14.8 C 88.4 14.8 89.64 14.79 89.6 14.8 Z M 96.1 16.9 L 95.2 16.9 L 93.8 12.9 L 93.8 12.9 C 93.8 12.9 93.72 13.15 93.7 13.1 C 93.7 13.5 93.6 13.7 93.6 13.9 C 93.6 14 93.4 15 93 16.9 C 92.97 16.89 92.2 16.9 92.2 16.9 L 93.3 11.9 L 94.2 11.9 L 95.6 15.8 C 95.6 15.8 95.58 15.82 95.6 15.8 C 95.6 15.7 95.6 15.5 95.7 15.2 C 95.7 14.8 95.8 14.6 95.8 14.5 C 95.82 14.46 96.4 11.9 96.4 11.9 L 97.1 11.9 L 96.1 16.9 Z M 99.3 14.2 L 101.1 14.2 C 101.1 14.2 100.56 16.69 100.6 16.7 C 100.3 16.8 100.1 16.8 99.8 16.9 C 99.6 16.9 99.3 17 99 17 C 98.4 17 97.9 16.8 97.6 16.5 C 97.3 16.1 97.1 15.7 97.1 15 C 97.1 14.4 97.2 13.9 97.5 13.4 C 97.7 12.9 98 12.5 98.5 12.2 C 98.9 12 99.4 11.8 99.9 11.8 C 100.2 11.8 100.4 11.8 100.7 11.9 C 100.9 11.9 101.1 12 101.4 12.1 C 101.4 12.1 101 12.8 101 12.8 C 100.6 12.6 100.3 12.5 99.9 12.5 C 99.5 12.5 99.2 12.6 98.9 12.8 C 98.6 13 98.4 13.3 98.2 13.7 C 98.1 14.1 98 14.5 98 15 C 98 15.4 98.1 15.7 98.3 15.9 C 98.5 16.2 98.8 16.3 99.1 16.3 C 99.4 16.3 99.6 16.2 99.9 16.1 C 99.88 16.14 100.1 14.9 100.1 14.9 L 99.2 14.9 L 99.3 14.2 Z " stroke="none" fill="#000"/>
  </g>
  <g id="Polygon13646">
    <path d="M 4 5.4 C 4 5.9 3.8 6.3 3.4 6.5 C 3.1 6.8 2.6 7 2 7 C 1.3 7 0.8 6.9 0.4 6.7 C 0.4 6.7 0.4 6.3 0.4 6.3 C 0.8 6.5 1.4 6.6 2 6.6 C 2.5 6.6 2.8 6.5 3.1 6.3 C 3.4 6.1 3.5 5.8 3.5 5.4 C 3.5 5.2 3.5 5 3.4 4.9 C 3.3 4.8 3.2 4.6 3 4.5 C 2.7 4.4 2.4 4.3 2 4.1 C 1.5 3.9 1.1 3.7 0.8 3.5 C 0.6 3.2 0.5 2.9 0.5 2.5 C 0.5 2.1 0.7 1.8 1 1.5 C 1.3 1.2 1.8 1.1 2.3 1.1 C 2.8 1.1 3.3 1.2 3.8 1.4 C 3.8 1.4 3.7 1.7 3.7 1.7 C 3.2 1.5 2.7 1.4 2.3 1.4 C 1.9 1.4 1.5 1.5 1.3 1.7 C 1 1.9 0.9 2.2 0.9 2.5 C 0.9 2.7 1 2.9 1 3.1 C 1.1 3.2 1.2 3.3 1.4 3.4 C 1.6 3.5 1.9 3.7 2.3 3.8 C 2.8 4 3.1 4.1 3.3 4.3 C 3.5 4.4 3.7 4.6 3.8 4.7 C 3.9 4.9 4 5.2 4 5.4 Z M 8.3 4.8 C 8.3 5.5 8.2 6 7.8 6.4 C 7.5 6.8 7 7 6.4 7 C 6.1 7 5.7 6.9 5.5 6.7 C 5.2 6.5 5 6.3 4.8 5.9 C 4.7 5.6 4.6 5.2 4.6 4.8 C 4.6 4.1 4.8 3.5 5.1 3.1 C 5.4 2.8 5.9 2.6 6.5 2.6 C 7.1 2.6 7.5 2.8 7.8 3.1 C 8.2 3.5 8.3 4.1 8.3 4.8 Z M 5 4.8 C 5 5.3 5.1 5.8 5.4 6.1 C 5.6 6.4 6 6.6 6.5 6.6 C 6.9 6.6 7.3 6.4 7.6 6.1 C 7.8 5.8 7.9 5.3 7.9 4.8 C 7.9 4.2 7.8 3.7 7.5 3.4 C 7.3 3.1 6.9 2.9 6.5 2.9 C 6 2.9 5.6 3.1 5.4 3.4 C 5.1 3.7 5 4.2 5 4.8 Z M 9.7 6.9 L 9.3 6.9 L 9.3 0.8 L 9.7 0.8 L 9.7 6.9 Z M 11.2 2.6 C 11.2 2.6 11.18 5.39 11.2 5.4 C 11.2 5.8 11.3 6.1 11.5 6.3 C 11.6 6.5 11.9 6.6 12.3 6.6 C 12.8 6.6 13.2 6.5 13.4 6.2 C 13.6 6 13.8 5.6 13.8 5 C 13.76 4.98 13.8 2.6 13.8 2.6 L 14.1 2.6 L 14.1 6.9 L 13.8 6.9 L 13.7 6.3 C 13.7 6.3 13.72 6.3 13.7 6.3 C 13.4 6.7 13 7 12.2 7 C 11.3 7 10.8 6.4 10.8 5.4 C 10.8 5.41 10.8 2.6 10.8 2.6 L 11.2 2.6 Z M 18 5.8 C 18 6.2 17.8 6.5 17.5 6.7 C 17.2 6.9 16.8 7 16.3 7 C 15.7 7 15.3 6.9 14.9 6.7 C 14.9 6.7 14.9 6.3 14.9 6.3 C 15.4 6.5 15.8 6.6 16.3 6.6 C 16.7 6.6 17 6.5 17.2 6.4 C 17.5 6.3 17.6 6.1 17.6 5.8 C 17.6 5.6 17.5 5.4 17.3 5.3 C 17.1 5.2 16.9 5 16.5 4.9 C 16 4.7 15.7 4.6 15.6 4.5 C 15.4 4.4 15.3 4.2 15.2 4.1 C 15.1 4 15 3.8 15 3.6 C 15 3.3 15.2 3 15.4 2.8 C 15.7 2.7 16.1 2.6 16.6 2.6 C 17 2.6 17.5 2.6 17.9 2.8 C 17.9 2.8 17.7 3.2 17.7 3.2 C 17.3 3 16.9 2.9 16.6 2.9 C 16.2 2.9 15.9 3 15.7 3.1 C 15.5 3.2 15.4 3.4 15.4 3.6 C 15.4 3.8 15.5 4 15.7 4.1 C 15.8 4.2 16.1 4.4 16.6 4.5 C 17 4.7 17.3 4.8 17.4 4.9 C 17.6 5 17.7 5.1 17.8 5.3 C 17.9 5.4 18 5.6 18 5.8 Z M 18.1 2.6 L 18.5 2.6 C 18.5 2.6 19.4 5.02 19.4 5 C 19.7 5.8 19.8 6.2 19.9 6.5 C 19.9 6.5 19.9 6.5 19.9 6.5 C 20 6.2 20.2 5.7 20.5 5 C 20.48 5 21.4 2.6 21.4 2.6 L 21.8 2.6 C 21.8 2.6 19.87 7.57 19.9 7.6 C 19.7 8 19.6 8.2 19.5 8.4 C 19.4 8.5 19.3 8.6 19.1 8.7 C 19 8.8 18.8 8.8 18.6 8.8 C 18.5 8.8 18.3 8.8 18.1 8.7 C 18.1 8.7 18.1 8.4 18.1 8.4 C 18.3 8.4 18.4 8.5 18.6 8.5 C 18.7 8.5 18.9 8.4 19 8.4 C 19.1 8.3 19.1 8.2 19.2 8.1 C 19.3 7.9 19.4 7.7 19.5 7.4 C 19.6 7.2 19.7 7 19.7 6.9 C 19.73 6.89 18.1 2.6 18.1 2.6 Z M 25.8 4.8 C 25.8 5.5 25.6 6 25.3 6.4 C 24.9 6.8 24.5 7 23.9 7 C 23.5 7 23.2 6.9 22.9 6.7 C 22.6 6.5 22.4 6.3 22.2 5.9 C 22.1 5.6 22 5.2 22 4.8 C 22 4.1 22.2 3.5 22.5 3.1 C 22.8 2.8 23.3 2.6 23.9 2.6 C 24.5 2.6 24.9 2.8 25.3 3.1 C 25.6 3.5 25.8 4.1 25.8 4.8 Z M 22.4 4.8 C 22.4 5.3 22.5 5.8 22.8 6.1 C 23 6.4 23.4 6.6 23.9 6.6 C 24.3 6.6 24.7 6.4 25 6.1 C 25.2 5.8 25.3 5.3 25.3 4.8 C 25.3 4.2 25.2 3.7 25 3.4 C 24.7 3.1 24.3 2.9 23.9 2.9 C 23.4 2.9 23 3.1 22.8 3.4 C 22.5 3.7 22.4 4.2 22.4 4.8 Z M 29.7 6.9 C 29.7 6.9 29.65 4.13 29.7 4.1 C 29.7 3.7 29.6 3.4 29.4 3.2 C 29.2 3 28.9 2.9 28.5 2.9 C 28 2.9 27.7 3 27.4 3.3 C 27.2 3.6 27.1 4 27.1 4.5 C 27.08 4.54 27.1 6.9 27.1 6.9 L 26.7 6.9 L 26.7 2.6 L 27 2.6 L 27.1 3.2 C 27.1 3.2 27.12 3.22 27.1 3.2 C 27.4 2.8 27.9 2.6 28.6 2.6 C 29.6 2.6 30 3.1 30 4.1 C 30.03 4.11 30 6.9 30 6.9 L 29.7 6.9 Z M 36.5 4.8 C 36.5 5.5 36.4 6 36 6.4 C 35.7 6.8 35.2 7 34.6 7 C 34.3 7 33.9 6.9 33.6 6.7 C 33.4 6.5 33.1 6.3 33 5.9 C 32.8 5.6 32.8 5.2 32.8 4.8 C 32.8 4.1 32.9 3.5 33.3 3.1 C 33.6 2.8 34.1 2.6 34.6 2.6 C 35.2 2.6 35.7 2.8 36 3.1 C 36.4 3.5 36.5 4.1 36.5 4.8 Z M 33.2 4.8 C 33.2 5.3 33.3 5.8 33.6 6.1 C 33.8 6.4 34.2 6.6 34.6 6.6 C 35.1 6.6 35.5 6.4 35.7 6.1 C 36 5.8 36.1 5.3 36.1 4.8 C 36.1 4.2 36 3.7 35.7 3.4 C 35.5 3.1 35.1 2.9 34.6 2.9 C 34.2 2.9 33.8 3.1 33.5 3.4 C 33.3 3.7 33.2 4.2 33.2 4.8 Z M 41.1 7 C 40.5 7 40 6.7 39.7 6.2 C 39.68 6.23 39.7 6.2 39.7 6.2 C 39.7 6.2 39.66 6.56 39.7 6.6 C 39.7 6.8 39.7 7 39.7 7.2 C 39.68 7.19 39.7 8.8 39.7 8.8 L 39.3 8.8 L 39.3 2.6 L 39.6 2.6 L 39.7 3.2 C 39.7 3.2 39.72 3.25 39.7 3.2 C 40 2.8 40.5 2.6 41.1 2.6 C 41.7 2.6 42.1 2.7 42.4 3.1 C 42.7 3.5 42.9 4 42.9 4.8 C 42.9 5.5 42.7 6 42.4 6.4 C 42.1 6.8 41.7 7 41.1 7 Z M 41.1 6.6 C 41.5 6.6 41.9 6.5 42.1 6.1 C 42.4 5.8 42.5 5.4 42.5 4.8 C 42.5 3.5 42 2.9 41.1 2.9 C 40.6 2.9 40.3 3 40 3.3 C 39.8 3.6 39.7 4 39.7 4.6 C 39.7 4.6 39.7 4.8 39.7 4.8 C 39.7 5.4 39.8 5.9 40 6.2 C 40.2 6.5 40.6 6.6 41.1 6.6 Z M 46.4 6.9 L 46.3 6.2 C 46.3 6.2 46.26 6.21 46.3 6.2 C 46.1 6.5 45.8 6.7 45.6 6.8 C 45.4 6.9 45.1 7 44.8 7 C 44.4 7 44.1 6.9 43.8 6.6 C 43.6 6.4 43.5 6.1 43.5 5.8 C 43.5 5.3 43.7 5 44 4.8 C 44.3 4.6 44.8 4.4 45.5 4.4 C 45.5 4.43 46.3 4.4 46.3 4.4 C 46.3 4.4 46.31 4.12 46.3 4.1 C 46.3 3.7 46.2 3.4 46.1 3.2 C 45.9 3 45.6 2.9 45.3 2.9 C 44.9 2.9 44.5 3 44 3.2 C 44 3.2 43.9 2.9 43.9 2.9 C 44.4 2.7 44.8 2.6 45.3 2.6 C 45.8 2.6 46.1 2.7 46.3 2.9 C 46.6 3.2 46.7 3.5 46.7 4.1 C 46.68 4.06 46.7 6.9 46.7 6.9 L 46.4 6.9 Z M 44.8 6.6 C 45.3 6.6 45.6 6.5 45.9 6.2 C 46.2 6 46.3 5.6 46.3 5.1 C 46.3 5.14 46.3 4.7 46.3 4.7 C 46.3 4.7 45.55 4.76 45.6 4.8 C 45 4.8 44.5 4.9 44.3 5 C 44 5.2 43.9 5.4 43.9 5.8 C 43.9 6 44 6.2 44.1 6.4 C 44.3 6.5 44.5 6.6 44.8 6.6 Z M 50.8 6.9 C 50.8 6.9 50.77 4.13 50.8 4.1 C 50.8 3.7 50.7 3.4 50.5 3.2 C 50.3 3 50 2.9 49.7 2.9 C 49.2 2.9 48.8 3 48.6 3.3 C 48.3 3.6 48.2 4 48.2 4.5 C 48.2 4.54 48.2 6.9 48.2 6.9 L 47.8 6.9 L 47.8 2.6 L 48.1 2.6 L 48.2 3.2 C 48.2 3.2 48.24 3.22 48.2 3.2 C 48.5 2.8 49 2.6 49.7 2.6 C 50.7 2.6 51.2 3.1 51.2 4.1 C 51.16 4.11 51.2 6.9 51.2 6.9 L 50.8 6.9 Z M 52.7 6.9 L 52.3 6.9 L 52.3 2.6 L 52.7 2.6 L 52.7 6.9 Z M 52.5 1.8 C 52.3 1.8 52.2 1.7 52.2 1.5 C 52.2 1.2 52.3 1.1 52.5 1.1 C 52.6 1.1 52.6 1.1 52.7 1.2 C 52.7 1.2 52.7 1.3 52.7 1.5 C 52.7 1.6 52.7 1.7 52.7 1.7 C 52.6 1.8 52.6 1.8 52.5 1.8 C 52.5 1.8 52.5 1.8 52.5 1.8 Z M 55.7 2.6 C 56.2 2.6 56.7 2.7 57 3.1 C 57.3 3.5 57.4 4 57.4 4.8 C 57.4 5.5 57.3 6 57 6.4 C 56.7 6.8 56.2 7 55.6 7 C 55.3 7 55.1 6.9 54.8 6.8 C 54.6 6.7 54.4 6.5 54.2 6.2 C 54.25 6.25 54.2 6.2 54.2 6.2 L 54.1 6.9 L 53.9 6.9 L 53.9 0.8 L 54.2 0.8 C 54.2 0.8 54.25 2.34 54.2 2.3 C 54.2 2.6 54.2 2.8 54.2 3 C 54.23 2.97 54.2 3.3 54.2 3.3 C 54.2 3.3 54.25 3.3 54.2 3.3 C 54.4 3 54.6 2.9 54.8 2.7 C 55.1 2.6 55.3 2.6 55.7 2.6 Z M 57 4.7 C 57 3.5 56.6 2.9 55.6 2.9 C 55.1 2.9 54.8 3.1 54.6 3.3 C 54.4 3.6 54.2 4.1 54.2 4.8 C 54.2 4.8 54.2 4.8 54.2 4.8 C 54.2 5.5 54.4 5.9 54.6 6.2 C 54.8 6.5 55.2 6.6 55.6 6.6 C 56.1 6.6 56.5 6.5 56.7 6.1 C 56.9 5.8 57 5.3 57 4.7 C 57 4.7 57 4.7 57 4.7 Z M 61 6.9 L 60.9 6.2 C 60.9 6.2 60.83 6.21 60.8 6.2 C 60.6 6.5 60.4 6.7 60.2 6.8 C 59.9 6.9 59.7 7 59.4 7 C 59 7 58.6 6.9 58.4 6.6 C 58.2 6.4 58.1 6.1 58.1 5.8 C 58.1 5.3 58.2 5 58.6 4.8 C 58.9 4.6 59.4 4.4 60.1 4.4 C 60.07 4.43 60.9 4.4 60.9 4.4 C 60.9 4.4 60.88 4.12 60.9 4.1 C 60.9 3.7 60.8 3.4 60.6 3.2 C 60.5 3 60.2 2.9 59.8 2.9 C 59.4 2.9 59 3 58.6 3.2 C 58.6 3.2 58.5 2.9 58.5 2.9 C 58.9 2.7 59.4 2.6 59.9 2.6 C 60.3 2.6 60.7 2.7 60.9 2.9 C 61.1 3.2 61.2 3.5 61.2 4.1 C 61.25 4.06 61.2 6.9 61.2 6.9 L 61 6.9 Z M 59.4 6.6 C 59.9 6.6 60.2 6.5 60.5 6.2 C 60.7 6 60.9 5.6 60.9 5.1 C 60.86 5.14 60.9 4.7 60.9 4.7 C 60.9 4.7 60.12 4.76 60.1 4.8 C 59.5 4.8 59.1 4.9 58.8 5 C 58.6 5.2 58.5 5.4 58.5 5.8 C 58.5 6 58.5 6.2 58.7 6.4 C 58.9 6.5 59.1 6.6 59.4 6.6 Z M 65.7 2.6 L 65.7 2.9 C 65.7 2.9 64.81 2.96 64.8 3 C 65 3.3 65.2 3.6 65.2 3.9 C 65.2 4.3 65 4.7 64.8 4.9 C 64.5 5.2 64.1 5.3 63.7 5.3 C 63.5 5.3 63.3 5.3 63.3 5.3 C 63.1 5.4 63 5.5 62.9 5.6 C 62.8 5.7 62.8 5.8 62.8 5.9 C 62.8 6 62.8 6.1 62.9 6.2 C 63 6.3 63.2 6.3 63.5 6.3 C 63.5 6.3 64.2 6.3 64.2 6.3 C 64.7 6.3 65 6.4 65.3 6.6 C 65.5 6.8 65.6 7 65.6 7.4 C 65.6 7.9 65.4 8.2 65.1 8.4 C 64.7 8.7 64.2 8.8 63.5 8.8 C 63 8.8 62.6 8.7 62.3 8.5 C 62 8.3 61.8 8 61.8 7.6 C 61.8 7.3 61.9 7.1 62.1 6.9 C 62.3 6.7 62.5 6.6 62.9 6.5 C 62.7 6.5 62.6 6.4 62.5 6.3 C 62.5 6.2 62.4 6.1 62.4 5.9 C 62.4 5.7 62.6 5.4 63 5.2 C 62.7 5.1 62.5 4.9 62.4 4.7 C 62.3 4.5 62.2 4.2 62.2 4 C 62.2 3.5 62.3 3.2 62.6 2.9 C 62.9 2.7 63.2 2.6 63.7 2.6 C 64 2.6 64.2 2.6 64.3 2.6 C 64.33 2.64 65.7 2.6 65.7 2.6 Z M 63.4 6.7 C 62.6 6.7 62.3 7 62.3 7.6 C 62.3 8.2 62.7 8.5 63.6 8.5 C 64.7 8.5 65.2 8.1 65.2 7.4 C 65.2 7.2 65.1 7 65 6.9 C 64.8 6.7 64.5 6.7 64.1 6.7 C 64.12 6.69 63.4 6.7 63.4 6.7 C 63.4 6.7 63.42 6.69 63.4 6.7 Z M 62.6 4 C 62.6 4.3 62.7 4.5 62.9 4.7 C 63.1 4.9 63.3 5 63.7 5 C 64 5 64.3 4.9 64.5 4.7 C 64.7 4.6 64.8 4.3 64.8 3.9 C 64.8 3.6 64.7 3.3 64.5 3.1 C 64.3 3 64 2.9 63.7 2.9 C 63.3 2.9 63.1 3 62.9 3.2 C 62.7 3.3 62.6 3.6 62.6 4 Z M 69.8 4.8 C 69.8 5.5 69.7 6 69.3 6.4 C 69 6.8 68.5 7 67.9 7 C 67.6 7 67.2 6.9 67 6.7 C 66.7 6.5 66.5 6.3 66.3 5.9 C 66.2 5.6 66.1 5.2 66.1 4.8 C 66.1 4.1 66.2 3.5 66.6 3.1 C 66.9 2.8 67.4 2.6 68 2.6 C 68.5 2.6 69 2.8 69.3 3.1 C 69.7 3.5 69.8 4.1 69.8 4.8 Z M 66.5 4.8 C 66.5 5.3 66.6 5.8 66.9 6.1 C 67.1 6.4 67.5 6.6 68 6.6 C 68.4 6.6 68.8 6.4 69 6.1 C 69.3 5.8 69.4 5.3 69.4 4.8 C 69.4 4.2 69.3 3.7 69 3.4 C 68.8 3.1 68.4 2.9 67.9 2.9 C 67.5 2.9 67.1 3.1 66.9 3.4 C 66.6 3.7 66.5 4.2 66.5 4.8 Z M 73.7 6.9 C 73.7 6.9 73.73 4.13 73.7 4.1 C 73.7 3.7 73.6 3.4 73.5 3.2 C 73.3 3 73 2.9 72.6 2.9 C 72.1 2.9 71.7 3 71.5 3.3 C 71.3 3.6 71.2 4 71.2 4.5 C 71.16 4.54 71.2 6.9 71.2 6.9 L 70.8 6.9 L 70.8 2.6 L 71.1 2.6 L 71.2 3.2 C 71.2 3.2 71.2 3.22 71.2 3.2 C 71.5 2.8 72 2.6 72.7 2.6 C 73.6 2.6 74.1 3.1 74.1 4.1 C 74.12 4.11 74.1 6.9 74.1 6.9 L 73.7 6.9 Z M 78.6 2.6 L 78.6 2.9 C 78.6 2.9 77.68 2.96 77.7 3 C 77.9 3.3 78 3.6 78 3.9 C 78 4.3 77.9 4.7 77.6 4.9 C 77.4 5.2 77 5.3 76.5 5.3 C 76.3 5.3 76.2 5.3 76.1 5.3 C 76 5.4 75.9 5.5 75.8 5.6 C 75.7 5.7 75.7 5.8 75.7 5.9 C 75.7 6 75.7 6.1 75.8 6.2 C 75.9 6.3 76.1 6.3 76.3 6.3 C 76.3 6.3 77.1 6.3 77.1 6.3 C 77.5 6.3 77.9 6.4 78.1 6.6 C 78.4 6.8 78.5 7 78.5 7.4 C 78.5 7.9 78.3 8.2 77.9 8.4 C 77.6 8.7 77.1 8.8 76.4 8.8 C 75.9 8.8 75.4 8.7 75.2 8.5 C 74.9 8.3 74.7 8 74.7 7.6 C 74.7 7.3 74.8 7.1 75 6.9 C 75.2 6.7 75.4 6.6 75.7 6.5 C 75.6 6.5 75.5 6.4 75.4 6.3 C 75.3 6.2 75.3 6.1 75.3 5.9 C 75.3 5.7 75.5 5.4 75.8 5.2 C 75.6 5.1 75.4 4.9 75.3 4.7 C 75.1 4.5 75.1 4.2 75.1 4 C 75.1 3.5 75.2 3.2 75.5 2.9 C 75.7 2.7 76.1 2.6 76.6 2.6 C 76.8 2.6 77.1 2.6 77.2 2.6 C 77.2 2.64 78.6 2.6 78.6 2.6 Z M 76.3 6.7 C 75.5 6.7 75.1 7 75.1 7.6 C 75.1 8.2 75.6 8.5 76.4 8.5 C 77.5 8.5 78.1 8.1 78.1 7.4 C 78.1 7.2 78 7 77.8 6.9 C 77.7 6.7 77.4 6.7 77 6.7 C 76.99 6.69 76.3 6.7 76.3 6.7 C 76.3 6.7 76.29 6.69 76.3 6.7 Z M 75.4 4 C 75.4 4.3 75.5 4.5 75.7 4.7 C 75.9 4.9 76.2 5 76.5 5 C 76.9 5 77.2 4.9 77.4 4.7 C 77.6 4.6 77.6 4.3 77.6 3.9 C 77.6 3.6 77.5 3.3 77.4 3.1 C 77.2 3 76.9 2.9 76.5 2.9 C 76.2 2.9 75.9 3 75.7 3.2 C 75.5 3.3 75.4 3.6 75.4 4 Z M 83.7 5.8 C 83.7 6.2 83.5 6.5 83.2 6.7 C 82.9 6.9 82.5 7 82 7 C 81.4 7 81 6.9 80.6 6.7 C 80.6 6.7 80.6 6.3 80.6 6.3 C 81.1 6.5 81.5 6.6 82 6.6 C 82.4 6.6 82.7 6.5 83 6.4 C 83.2 6.3 83.3 6.1 83.3 5.8 C 83.3 5.6 83.2 5.4 83 5.3 C 82.8 5.2 82.6 5 82.2 4.9 C 81.7 4.7 81.4 4.6 81.3 4.5 C 81.1 4.4 81 4.2 80.9 4.1 C 80.8 4 80.8 3.8 80.8 3.6 C 80.8 3.3 80.9 3 81.2 2.8 C 81.4 2.7 81.8 2.6 82.3 2.6 C 82.7 2.6 83.2 2.6 83.6 2.8 C 83.6 2.8 83.4 3.2 83.4 3.2 C 83 3 82.6 2.9 82.3 2.9 C 81.9 2.9 81.7 3 81.5 3.1 C 81.2 3.2 81.1 3.4 81.1 3.6 C 81.1 3.8 81.2 4 81.4 4.1 C 81.5 4.2 81.8 4.4 82.3 4.5 C 82.7 4.7 83 4.8 83.1 4.9 C 83.3 5 83.4 5.1 83.5 5.3 C 83.6 5.4 83.7 5.6 83.7 5.8 Z M 84.9 2.6 C 84.9 2.6 84.86 5.39 84.9 5.4 C 84.9 5.8 84.9 6.1 85.1 6.3 C 85.3 6.5 85.6 6.6 86 6.6 C 86.5 6.6 86.8 6.5 87.1 6.2 C 87.3 6 87.4 5.6 87.4 5 C 87.43 4.98 87.4 2.6 87.4 2.6 L 87.8 2.6 L 87.8 6.9 L 87.5 6.9 L 87.4 6.3 C 87.4 6.3 87.39 6.3 87.4 6.3 C 87.1 6.7 86.6 7 85.9 7 C 85 7 84.5 6.4 84.5 5.4 C 84.47 5.41 84.5 2.6 84.5 2.6 L 84.9 2.6 Z M 89.4 6.9 L 89 6.9 L 89 0.8 L 89.4 0.8 L 89.4 6.9 Z M 91 6.9 L 90.6 6.9 L 90.6 2.6 L 91 2.6 L 91 6.9 Z M 90.8 1.8 C 90.6 1.8 90.5 1.7 90.5 1.5 C 90.5 1.2 90.6 1.1 90.8 1.1 C 90.8 1.1 90.9 1.1 90.9 1.2 C 91 1.2 91 1.3 91 1.5 C 91 1.6 91 1.7 90.9 1.7 C 90.9 1.8 90.8 1.8 90.8 1.8 C 90.8 1.8 90.8 1.8 90.8 1.8 Z M 93.8 2.6 C 94 2.6 94.2 2.6 94.4 2.6 C 94.4 2.6 94.3 3 94.3 3 C 94.1 2.9 94 2.9 93.8 2.9 C 93.4 2.9 93.1 3.1 92.9 3.4 C 92.6 3.7 92.5 4.1 92.5 4.5 C 92.52 4.54 92.5 6.9 92.5 6.9 L 92.1 6.9 L 92.1 2.6 L 92.5 2.6 L 92.5 3.4 C 92.5 3.4 92.53 3.41 92.5 3.4 C 92.7 3.1 92.9 2.9 93.1 2.7 C 93.3 2.6 93.5 2.6 93.8 2.6 Z M 97.6 6.9 L 97.5 6.2 C 97.5 6.2 97.46 6.21 97.5 6.2 C 97.2 6.5 97 6.7 96.8 6.8 C 96.6 6.9 96.3 7 96 7 C 95.6 7 95.3 6.9 95 6.6 C 94.8 6.4 94.7 6.1 94.7 5.8 C 94.7 5.3 94.9 5 95.2 4.8 C 95.5 4.6 96 4.4 96.7 4.4 C 96.7 4.43 97.5 4.4 97.5 4.4 C 97.5 4.4 97.5 4.12 97.5 4.1 C 97.5 3.7 97.4 3.4 97.3 3.2 C 97.1 3 96.8 2.9 96.5 2.9 C 96.1 2.9 95.7 3 95.2 3.2 C 95.2 3.2 95.1 2.9 95.1 2.9 C 95.6 2.7 96 2.6 96.5 2.6 C 96.9 2.6 97.3 2.7 97.5 2.9 C 97.8 3.2 97.9 3.5 97.9 4.1 C 97.87 4.06 97.9 6.9 97.9 6.9 L 97.6 6.9 Z M 96 6.6 C 96.5 6.6 96.8 6.5 97.1 6.2 C 97.4 6 97.5 5.6 97.5 5.1 C 97.49 5.14 97.5 4.7 97.5 4.7 C 97.5 4.7 96.75 4.76 96.7 4.8 C 96.2 4.8 95.7 4.9 95.5 5 C 95.2 5.2 95.1 5.4 95.1 5.8 C 95.1 6 95.2 6.2 95.3 6.4 C 95.5 6.5 95.7 6.6 96 6.6 Z M 102 6.9 C 102 6.9 101.97 4.13 102 4.1 C 102 3.7 101.9 3.4 101.7 3.2 C 101.5 3 101.2 2.9 100.9 2.9 C 100.4 2.9 100 3 99.7 3.3 C 99.5 3.6 99.4 4 99.4 4.5 C 99.39 4.54 99.4 6.9 99.4 6.9 L 99 6.9 L 99 2.6 L 99.3 2.6 L 99.4 3.2 C 99.4 3.2 99.43 3.22 99.4 3.2 C 99.7 2.8 100.2 2.6 100.9 2.6 C 101.9 2.6 102.4 3.1 102.4 4.1 C 102.35 4.11 102.4 6.9 102.4 6.9 L 102 6.9 Z M 103.9 6.9 L 103.5 6.9 L 103.5 2.6 L 103.9 2.6 L 103.9 6.9 Z M 103.7 1.8 C 103.5 1.8 103.4 1.7 103.4 1.5 C 103.4 1.2 103.5 1.1 103.7 1.1 C 103.8 1.1 103.8 1.1 103.9 1.2 C 103.9 1.2 103.9 1.3 103.9 1.5 C 103.9 1.6 103.9 1.7 103.9 1.7 C 103.8 1.8 103.8 1.8 103.7 1.8 C 103.7 1.8 103.7 1.8 103.7 1.8 Z M 108 6.9 C 108 6.9 108.01 4.13 108 4.1 C 108 3.7 107.9 3.4 107.7 3.2 C 107.6 3 107.3 2.9 106.9 2.9 C 106.4 2.9 106 3 105.8 3.3 C 105.6 3.6 105.4 4 105.4 4.5 C 105.44 4.54 105.4 6.9 105.4 6.9 L 105.1 6.9 L 105.1 2.6 L 105.4 2.6 L 105.5 3.2 C 105.5 3.2 105.48 3.22 105.5 3.2 C 105.8 2.8 106.2 2.6 107 2.6 C 107.9 2.6 108.4 3.1 108.4 4.1 C 108.4 4.11 108.4 6.9 108.4 6.9 L 108 6.9 Z M 110 5.4 C 110 5.4 109.97 5.27 110 5.3 C 110 4.9 110 4.7 110.1 4.5 C 110.2 4.3 110.4 4.1 110.7 3.8 C 110.7 3.8 111 3.5 111 3.5 C 111.2 3.4 111.3 3.2 111.4 3.1 C 111.5 2.9 111.5 2.7 111.5 2.5 C 111.5 2.2 111.4 1.9 111.2 1.7 C 111 1.5 110.7 1.4 110.3 1.4 C 110.1 1.4 110 1.5 109.8 1.5 C 109.6 1.5 109.4 1.6 109.2 1.7 C 109.2 1.7 109 1.4 109 1.4 C 109.3 1.3 109.6 1.2 109.8 1.2 C 110 1.1 110.2 1.1 110.4 1.1 C 110.8 1.1 111.2 1.2 111.5 1.5 C 111.8 1.7 111.9 2.1 111.9 2.5 C 111.9 2.7 111.9 2.9 111.8 3 C 111.8 3.1 111.7 3.3 111.6 3.4 C 111.5 3.5 111.4 3.6 111.3 3.7 C 111.2 3.8 111.1 3.9 110.9 4 C 110.8 4.2 110.6 4.3 110.5 4.4 C 110.5 4.5 110.4 4.7 110.3 4.8 C 110.3 4.9 110.3 5.1 110.3 5.4 C 110.29 5.36 110.3 5.4 110.3 5.4 L 110 5.4 Z M 110.1 7 C 109.9 7 109.8 6.8 109.8 6.6 C 109.8 6.3 109.9 6.2 110.1 6.2 C 110.4 6.2 110.5 6.3 110.5 6.6 C 110.5 6.8 110.4 7 110.1 7 C 110.1 7 110.1 7 110.1 7 Z M 112.9 7 C 112.7 7 112.6 6.8 112.6 6.6 C 112.6 6.3 112.7 6.2 112.9 6.2 C 113.1 6.2 113.2 6.3 113.2 6.6 C 113.2 6.8 113.1 7 112.9 7 C 112.9 7 112.9 7 112.9 7 Z M 112.6 3.1 C 112.6 2.8 112.7 2.7 112.9 2.7 C 113.1 2.7 113.2 2.8 113.2 3.1 C 113.2 3.2 113.2 3.3 113.1 3.4 C 113.1 3.5 113 3.5 112.9 3.5 C 112.8 3.5 112.7 3.5 112.7 3.4 C 112.6 3.3 112.6 3.2 112.6 3.1 Z " stroke="none" fill="#000"/>
  </g>
</svg>