<?xml version="1.0" standalone="no"?>
<!DOCTYPE svg PUBLIC "-//W3C//DTD SVG 1.1//EN" "http://www.w3.org/Graphics/SVG/1.1/DTD/svg11.dtd">
<svg xmlns="http://www.w3.org/2000/svg" version="1.1" width="114px" height="17px" viewBox="0 -3 114 17" style="top:-3px">
  <desc>Quaranthing essentials</desc>
  <defs/>
  <g id="Polygon31877">
    <path d="M 4 4.7 C 4 4.7 4.58 5.36 4.6 5.4 C 5 4.8 5.3 4 5.3 3.3 C 5.3 2.4 4.9 1.6 3.9 1.6 C 2.4 1.6 1.7 3.1 1.7 4.3 C 1.7 5.2 2.2 6 3.2 6 C 3.4 6 3.6 6 3.8 5.9 C 3.76 5.9 3.3 5.3 3.3 5.3 L 4 4.7 Z M 5.4 7.7 C 5.4 7.7 4.63 6.88 4.6 6.9 C 4.2 7.1 3.7 7.2 3.2 7.2 C 1.4 7.2 0.3 6.2 0.3 4.3 C 0.3 2.3 1.7 0.5 3.8 0.5 C 5.6 0.5 6.7 1.4 6.7 3.2 C 6.7 4.4 6.3 5.6 5.5 6.3 C 5.45 6.34 6.1 7.1 6.1 7.1 L 5.4 7.7 Z M 11.4 7 L 10.2 7 L 10.3 6.4 C 10.3 6.4 10.3 6.39 10.3 6.4 C 9.9 6.9 9.3 7.2 8.7 7.2 C 7.8 7.2 7.3 6.7 7.3 5.9 C 7.3 5.7 7.4 5.3 7.4 5.1 C 7.44 5.11 8 2.4 8 2.4 L 9.3 2.4 C 9.3 2.4 8.73 5.11 8.7 5.1 C 8.7 5.2 8.6 5.6 8.6 5.7 C 8.6 6 9 6.2 9.3 6.2 C 10 6.2 10.4 5.5 10.6 4.9 C 10.57 4.86 11.1 2.4 11.1 2.4 L 12.4 2.4 L 11.4 7 Z M 15.9 4.8 C 15.6 5 15.2 5 14.8 5 C 14.4 5.1 13.9 5.2 13.9 5.8 C 13.9 6.1 14.2 6.3 14.6 6.3 C 15.4 6.3 15.7 5.8 15.8 5.3 C 15.8 5.3 15.9 4.8 15.9 4.8 Z M 13.2 3.8 C 13.4 2.6 14.4 2.3 15.4 2.3 C 16.3 2.3 17.4 2.4 17.4 3.5 C 17.4 3.7 17.3 4 17.3 4.3 C 17.3 4.3 16.8 6.1 16.8 6.1 C 16.8 6.3 16.8 6.6 16.8 6.8 C 16.8 6.8 16.8 7 16.8 7 C 16.83 7.04 15.6 7 15.6 7 C 15.6 7 15.55 6.58 15.6 6.6 C 15.2 7 14.7 7.2 14.1 7.2 C 13.1 7.2 12.6 6.6 12.6 5.9 C 12.6 5 13.3 4.5 14.4 4.4 C 15.6 4.2 16.2 4.3 16.2 3.7 C 16.2 3.2 15.7 3.1 15.4 3.1 C 14.9 3.1 14.5 3.3 14.4 3.8 C 14.4 3.8 13.2 3.8 13.2 3.8 Z M 18.8 2.4 L 20 2.4 L 19.8 3.2 C 19.8 3.2 19.84 3.24 19.8 3.2 C 20.1 2.6 20.8 2.3 21.4 2.3 C 21.6 2.3 21.7 2.3 21.8 2.3 C 21.8 2.3 21.6 3.5 21.6 3.5 C 21.4 3.5 21.2 3.4 21 3.4 C 20.1 3.4 19.7 4.2 19.5 5 C 19.54 4.98 19.1 7 19.1 7 L 17.8 7 L 18.8 2.4 Z M 24.8 4.8 C 24.4 5 24.1 5 23.7 5 C 23.2 5.1 22.7 5.2 22.7 5.8 C 22.7 6.1 23.1 6.3 23.4 6.3 C 24.2 6.3 24.5 5.8 24.6 5.3 C 24.6 5.3 24.8 4.8 24.8 4.8 Z M 22.1 3.8 C 22.2 2.6 23.2 2.3 24.3 2.3 C 25.1 2.3 26.2 2.4 26.2 3.5 C 26.2 3.7 26.2 4 26.1 4.3 C 26.1 4.3 25.7 6.1 25.7 6.1 C 25.6 6.3 25.6 6.6 25.6 6.8 C 25.6 6.8 25.6 7 25.7 7 C 25.68 7.04 24.4 7 24.4 7 C 24.4 7 24.4 6.58 24.4 6.6 C 24 7 23.5 7.2 23 7.2 C 22 7.2 21.5 6.6 21.5 5.9 C 21.5 5 22.1 4.5 23.2 4.4 C 24.5 4.2 25 4.3 25 3.7 C 25 3.2 24.5 3.1 24.2 3.1 C 23.8 3.1 23.3 3.3 23.3 3.8 C 23.3 3.8 22.1 3.8 22.1 3.8 Z M 27.6 2.4 L 28.9 2.4 L 28.7 3 C 28.7 3 28.75 3.03 28.7 3 C 29.2 2.5 29.7 2.3 30.4 2.3 C 31.3 2.3 31.7 2.7 31.7 3.5 C 31.7 3.7 31.6 4.1 31.6 4.3 C 31.6 4.31 31 7 31 7 L 29.7 7 C 29.7 7 30.31 4.31 30.3 4.3 C 30.3 4.2 30.4 3.9 30.4 3.7 C 30.4 3.5 30.1 3.3 29.8 3.3 C 29 3.3 28.6 3.9 28.5 4.6 C 28.48 4.56 28 7 28 7 L 26.7 7 L 27.6 2.4 Z M 34.9 2.4 L 35.8 2.4 L 35.6 3.2 L 34.7 3.2 C 34.7 3.2 34.21 5.55 34.2 5.6 C 34.2 5.7 34.2 5.7 34.2 5.8 C 34.2 6.1 34.4 6.1 34.6 6.1 C 34.8 6.1 34.9 6.1 35.1 6.1 C 35.1 6.1 34.8 7.1 34.8 7.1 C 34.6 7.1 34.3 7.1 34 7.1 C 33.5 7.1 32.8 6.9 32.8 6.2 C 32.8 6.1 32.9 5.9 32.9 5.7 C 32.9 5.73 33.4 3.2 33.4 3.2 L 32.6 3.2 L 32.8 2.4 L 33.6 2.4 L 33.9 1 L 35.2 1 L 34.9 2.4 Z M 37 0.6 L 38.3 0.6 L 37.8 2.9 C 37.8 2.9 37.85 2.92 37.8 2.9 C 38 2.7 38.5 2.3 39.4 2.3 C 40.3 2.3 40.7 2.7 40.7 3.5 C 40.7 3.7 40.6 4.1 40.6 4.3 C 40.61 4.31 40 7 40 7 L 38.8 7 C 38.8 7 39.32 4.31 39.3 4.3 C 39.4 4.2 39.4 3.9 39.4 3.7 C 39.4 3.5 39.1 3.3 38.8 3.3 C 38 3.3 37.6 3.9 37.5 4.6 C 37.49 4.56 37 7 37 7 L 35.7 7 L 37 0.6 Z M 42.3 2.4 L 43.6 2.4 L 42.6 7 L 41.3 7 L 42.3 2.4 Z M 43.7 1.7 L 42.4 1.7 L 42.6 0.6 L 43.9 0.6 L 43.7 1.7 Z M 44.7 2.4 L 45.9 2.4 L 45.7 3 C 45.7 3 45.76 3.03 45.8 3 C 46.2 2.5 46.7 2.3 47.4 2.3 C 48.3 2.3 48.8 2.7 48.8 3.5 C 48.8 3.7 48.7 4.1 48.6 4.3 C 48.62 4.31 48 7 48 7 L 46.8 7 C 46.8 7 47.33 4.31 47.3 4.3 C 47.4 4.2 47.4 3.9 47.4 3.7 C 47.4 3.5 47.1 3.3 46.8 3.3 C 46 3.3 45.6 3.9 45.5 4.6 C 45.49 4.56 45 7 45 7 L 43.7 7 L 44.7 2.4 Z M 50.8 5 C 50.8 5.5 51.1 6 51.7 6 C 52.6 6 53 5 53 4.2 C 53 3.6 52.7 3.2 52.1 3.2 C 51.3 3.2 50.8 4.2 50.8 5 Z M 53.8 6.8 C 53.5 8.2 52.7 8.8 51.2 8.8 C 50.3 8.8 49.2 8.4 49.2 7.3 C 49.2 7.3 50.5 7.3 50.5 7.3 C 50.5 7.7 50.9 7.9 51.3 7.9 C 52.1 7.9 52.4 7.2 52.6 6.3 C 52.6 6.3 52.6 6.3 52.6 6.3 C 52.3 6.7 51.9 7 51.3 7 C 50.2 7 49.5 6.2 49.5 5.1 C 49.5 3.7 50.4 2.3 51.9 2.3 C 52.5 2.3 53.1 2.5 53.3 3.1 C 53.31 3.1 53.3 3.1 53.3 3.1 L 53.5 2.4 L 54.7 2.4 C 54.7 2.4 53.77 6.8 53.8 6.8 Z M 58.9 5 C 58.9 5.1 58.9 5.2 58.9 5.3 C 58.9 5.8 59.2 6.2 59.9 6.2 C 60.4 6.2 60.7 5.9 60.9 5.6 C 60.9 5.6 62.1 5.6 62.1 5.6 C 61.7 6.6 61.1 7.2 59.7 7.2 C 58.5 7.2 57.7 6.5 57.7 5.1 C 57.7 3.6 58.6 2.3 60.2 2.3 C 61.5 2.3 62.4 2.9 62.4 4.3 C 62.4 4.5 62.4 4.8 62.3 5 C 62.3 5 58.9 5 58.9 5 Z M 61.2 4.2 C 61.2 3.7 61 3.2 60.3 3.2 C 59.6 3.2 59.2 3.7 59 4.2 C 59 4.2 61.2 4.2 61.2 4.2 Z M 66 3.7 C 66 3.3 65.8 3.1 65.3 3.1 C 64.8 3.1 64.5 3.2 64.5 3.6 C 64.5 3.8 64.6 3.9 65.1 4 C 65.1 4 65.7 4.2 65.7 4.2 C 66.4 4.5 66.9 4.8 66.9 5.6 C 66.9 6.7 65.8 7.2 64.7 7.2 C 63.8 7.2 62.7 6.8 62.7 5.7 C 62.75 5.72 62.7 5.5 62.7 5.5 L 63.9 5.5 C 63.9 5.5 63.93 5.68 63.9 5.7 C 63.9 6.1 64.4 6.3 64.9 6.3 C 65.2 6.3 65.7 6.2 65.7 5.8 C 65.7 5.4 65.5 5.3 65.2 5.2 C 65.2 5.2 64.2 4.9 64.2 4.9 C 63.6 4.7 63.2 4.5 63.2 3.7 C 63.2 2.6 64.4 2.3 65.3 2.3 C 66.3 2.3 67.2 2.5 67.2 3.7 C 67.2 3.7 66 3.7 66 3.7 Z M 70.8 3.7 C 70.7 3.3 70.5 3.1 70 3.1 C 69.6 3.1 69.3 3.2 69.3 3.6 C 69.3 3.8 69.4 3.9 69.8 4 C 69.8 4 70.5 4.2 70.5 4.2 C 71.2 4.5 71.7 4.8 71.7 5.6 C 71.7 6.7 70.6 7.2 69.5 7.2 C 68.6 7.2 67.5 6.8 67.5 5.7 C 67.51 5.72 67.5 5.5 67.5 5.5 L 68.7 5.5 C 68.7 5.5 68.7 5.68 68.7 5.7 C 68.7 6.1 69.2 6.3 69.6 6.3 C 70 6.3 70.4 6.2 70.4 5.8 C 70.4 5.4 70.2 5.3 70 5.2 C 70 5.2 69 4.9 69 4.9 C 68.3 4.7 68 4.5 68 3.7 C 68 2.6 69.1 2.3 70 2.3 C 71.1 2.3 72 2.5 71.9 3.7 C 71.9 3.7 70.8 3.7 70.8 3.7 Z M 73.7 5 C 73.7 5.1 73.7 5.2 73.7 5.3 C 73.7 5.8 74 6.2 74.7 6.2 C 75.2 6.2 75.5 5.9 75.6 5.6 C 75.6 5.6 76.9 5.6 76.9 5.6 C 76.5 6.6 75.9 7.2 74.5 7.2 C 73.3 7.2 72.4 6.5 72.4 5.1 C 72.4 3.6 73.4 2.3 75 2.3 C 76.3 2.3 77.2 2.9 77.2 4.3 C 77.2 4.5 77.1 4.8 77.1 5 C 77.1 5 73.7 5 73.7 5 Z M 75.9 4.2 C 75.9 3.7 75.8 3.2 75.1 3.2 C 74.4 3.2 74 3.7 73.8 4.2 C 73.8 4.2 75.9 4.2 75.9 4.2 Z M 78.5 2.4 L 79.7 2.4 L 79.6 3 C 79.6 3 79.57 3.03 79.6 3 C 80 2.5 80.5 2.3 81.2 2.3 C 82.1 2.3 82.6 2.7 82.6 3.5 C 82.6 3.7 82.5 4.1 82.4 4.3 C 82.42 4.31 81.8 7 81.8 7 L 80.6 7 C 80.6 7 81.13 4.31 81.1 4.3 C 81.2 4.2 81.2 3.9 81.2 3.7 C 81.2 3.5 80.9 3.3 80.6 3.3 C 79.8 3.3 79.4 3.9 79.3 4.6 C 79.3 4.56 78.8 7 78.8 7 L 77.5 7 L 78.5 2.4 Z M 85.7 2.4 L 86.6 2.4 L 86.4 3.2 L 85.5 3.2 C 85.5 3.2 85.03 5.55 85 5.6 C 85 5.7 85 5.7 85 5.8 C 85 6.1 85.2 6.1 85.4 6.1 C 85.6 6.1 85.7 6.1 85.9 6.1 C 85.9 6.1 85.7 7.1 85.7 7.1 C 85.4 7.1 85.1 7.1 84.9 7.1 C 84.3 7.1 83.6 6.9 83.7 6.2 C 83.7 6.1 83.7 5.9 83.7 5.7 C 83.72 5.73 84.2 3.2 84.2 3.2 L 83.4 3.2 L 83.6 2.4 L 84.4 2.4 L 84.7 1 L 86 1 L 85.7 2.4 Z M 87.5 2.4 L 88.8 2.4 L 87.8 7 L 86.5 7 L 87.5 2.4 Z M 88.9 1.7 L 87.6 1.7 L 87.9 0.6 L 89.2 0.6 L 88.9 1.7 Z M 92.3 4.8 C 92 5 91.6 5 91.2 5 C 90.7 5.1 90.3 5.2 90.3 5.8 C 90.3 6.1 90.6 6.3 91 6.3 C 91.7 6.3 92 5.8 92.2 5.3 C 92.2 5.3 92.3 4.8 92.3 4.8 Z M 89.6 3.8 C 89.7 2.6 90.7 2.3 91.8 2.3 C 92.6 2.3 93.7 2.4 93.7 3.5 C 93.7 3.7 93.7 4 93.6 4.3 C 93.6 4.3 93.2 6.1 93.2 6.1 C 93.2 6.3 93.1 6.6 93.1 6.8 C 93.1 6.8 93.2 7 93.2 7 C 93.18 7.04 91.9 7 91.9 7 C 91.9 7 91.91 6.58 91.9 6.6 C 91.6 7 91 7.2 90.5 7.2 C 89.5 7.2 89 6.6 89 5.9 C 89 5 89.6 4.5 90.8 4.4 C 92 4.2 92.5 4.3 92.5 3.7 C 92.5 3.2 92 3.1 91.7 3.1 C 91.3 3.1 90.9 3.3 90.8 3.8 C 90.8 3.8 89.6 3.8 89.6 3.8 Z M 95.6 0.6 L 96.8 0.6 L 95.5 7 L 94.2 7 L 95.6 0.6 Z M 99.9 3.7 C 99.9 3.3 99.6 3.1 99.2 3.1 C 98.7 3.1 98.4 3.2 98.4 3.6 C 98.4 3.8 98.5 3.9 99 4 C 99 4 99.6 4.2 99.6 4.2 C 100.3 4.5 100.8 4.8 100.8 5.6 C 100.8 6.7 99.7 7.2 98.6 7.2 C 97.7 7.2 96.6 6.8 96.6 5.7 C 96.63 5.72 96.6 5.5 96.6 5.5 L 97.8 5.5 C 97.8 5.5 97.82 5.68 97.8 5.7 C 97.8 6.1 98.3 6.3 98.7 6.3 C 99.1 6.3 99.5 6.2 99.5 5.8 C 99.5 5.4 99.4 5.3 99.1 5.2 C 99.1 5.2 98.1 4.9 98.1 4.9 C 97.5 4.7 97.1 4.5 97.1 3.7 C 97.1 2.6 98.3 2.3 99.2 2.3 C 100.2 2.3 101.1 2.5 101.1 3.7 C 101.1 3.7 99.9 3.7 99.9 3.7 Z " stroke="none" fill="#000"/>
  </g>
</svg>