<?xml version="1.0" standalone="no"?>
<!DOCTYPE svg PUBLIC "-//W3C//DTD SVG 1.1//EN" "http://www.w3.org/Graphics/SVG/1.1/DTD/svg11.dtd">
<svg xmlns="http://www.w3.org/2000/svg" version="1.1" width="148.1px" height="23.5px" viewBox="0 -1 148.1 23.5" style="top:-1px">
  <desc>Wynola Clare Cartalla at Alyssa Joie Tablada</desc>
  <defs/>
  <g id="Polygon14105">
    <path d="M 3.2 11.3 L 4.8 16.6 L 3.5 16.6 L 3.2 15.5 L 1.4 15.5 L 1.1 16.6 L 0 16.6 L 1.7 11.3 L 3.2 11.3 Z M 1.7 14.5 L 2.9 14.5 L 2.3 12.6 L 1.7 14.5 Z M 6.9 15.5 L 9 15.5 L 9 16.6 L 5.6 16.6 L 5.6 11.3 L 6.9 11.3 L 6.9 15.5 Z M 13.2 11.3 L 11.6 14.4 L 11.6 16.6 L 10.3 16.6 L 10.3 14.4 L 8.7 11.3 L 10.1 11.3 L 11.1 13.3 L 12.1 11.3 L 13.2 11.3 Z M 15.4 11.2 C 16.5 11.2 17.2 11.6 17.5 12.4 C 17.5 12.4 16.4 12.8 16.4 12.8 C 16.3 12.4 16 12.2 15.5 12.2 C 15 12.2 14.7 12.3 14.7 12.6 C 14.7 12.8 14.8 12.9 14.9 13 C 15 13.1 15.2 13.1 15.5 13.2 C 16.1 13.3 16.5 13.4 16.7 13.5 C 17 13.6 17.2 13.8 17.3 14.1 C 17.5 14.3 17.6 14.6 17.6 14.9 C 17.6 15.4 17.4 15.8 17 16.2 C 16.7 16.5 16.1 16.7 15.4 16.7 C 14.9 16.7 14.4 16.6 14 16.3 C 13.6 16.1 13.4 15.7 13.2 15.2 C 13.2 15.2 14.4 14.9 14.4 14.9 C 14.5 15.4 14.9 15.7 15.5 15.7 C 15.8 15.7 16 15.6 16.1 15.5 C 16.3 15.4 16.3 15.3 16.3 15.1 C 16.3 15 16.3 14.8 16.1 14.8 C 16 14.7 15.8 14.6 15.4 14.5 C 14.7 14.4 14.2 14.2 14 13.9 C 13.7 13.7 13.5 13.3 13.5 12.9 C 13.5 12.4 13.7 12 14 11.7 C 14.4 11.4 14.9 11.2 15.4 11.2 C 15.4 11.2 15.4 11.2 15.4 11.2 Z M 20.3 11.2 C 21.4 11.2 22 11.6 22.3 12.4 C 22.3 12.4 21.3 12.8 21.3 12.8 C 21.1 12.4 20.8 12.2 20.4 12.2 C 19.9 12.2 19.6 12.3 19.6 12.6 C 19.6 12.8 19.7 12.9 19.8 13 C 19.9 13.1 20.1 13.1 20.4 13.2 C 20.9 13.3 21.3 13.4 21.6 13.5 C 21.8 13.6 22.1 13.8 22.2 14.1 C 22.4 14.3 22.5 14.6 22.5 14.9 C 22.5 15.4 22.3 15.8 21.9 16.2 C 21.6 16.5 21 16.7 20.3 16.7 C 19.7 16.7 19.3 16.6 18.9 16.3 C 18.5 16.1 18.3 15.7 18.1 15.2 C 18.1 15.2 19.3 14.9 19.3 14.9 C 19.4 15.4 19.8 15.7 20.4 15.7 C 20.7 15.7 20.9 15.6 21 15.5 C 21.1 15.4 21.2 15.3 21.2 15.1 C 21.2 15 21.2 14.8 21 14.8 C 20.9 14.7 20.7 14.6 20.3 14.5 C 19.6 14.4 19.1 14.2 18.8 13.9 C 18.5 13.7 18.4 13.3 18.4 12.9 C 18.4 12.4 18.6 12 18.9 11.7 C 19.3 11.4 19.7 11.2 20.3 11.2 C 20.3 11.2 20.3 11.2 20.3 11.2 Z M 26.1 11.3 L 27.8 16.6 L 26.4 16.6 L 26.1 15.5 L 24.4 15.5 L 24 16.6 L 22.9 16.6 L 24.6 11.3 L 26.1 11.3 Z M 24.7 14.5 L 25.8 14.5 L 25.2 12.6 L 24.7 14.5 Z M 32.8 11.3 C 32.8 11.3 32.85 15.07 32.8 15.1 C 32.8 15.6 32.7 16 32.5 16.3 C 32.2 16.6 31.8 16.7 31.2 16.7 C 30.9 16.7 30.6 16.7 30.3 16.6 C 30.3 16.6 30.3 15.6 30.3 15.6 C 30.6 15.6 30.8 15.6 31 15.6 C 31.1 15.6 31.3 15.6 31.3 15.5 C 31.4 15.5 31.5 15.4 31.5 15.3 C 31.6 15.3 31.6 15.1 31.6 14.9 C 31.6 14.92 31.6 11.3 31.6 11.3 L 32.8 11.3 Z M 36.1 16.7 C 35.4 16.7 34.8 16.4 34.4 15.9 C 34 15.3 33.8 14.7 33.8 13.9 C 33.8 13.1 34 12.5 34.4 12 C 34.8 11.4 35.4 11.2 36.1 11.2 C 36.9 11.2 37.5 11.5 37.8 12 C 38.2 12.6 38.4 13.2 38.4 13.9 C 38.4 14.7 38.2 15.4 37.8 15.9 C 37.4 16.4 36.9 16.7 36.1 16.7 Z M 37.1 13.9 C 37.1 12.8 36.8 12.2 36.1 12.2 C 35.5 12.2 35.2 12.8 35.2 13.9 C 35.2 15.1 35.5 15.7 36.1 15.7 C 36.8 15.7 37.1 15.1 37.1 13.9 C 37.1 13.9 37.1 13.9 37.1 13.9 Z M 40.7 11.3 L 40.7 16.6 L 39.5 16.6 L 39.5 11.3 L 40.7 11.3 Z M 45.8 12.3 L 43.3 12.3 L 43.3 13.4 L 45.3 13.4 L 45.3 14.4 L 43.3 14.4 L 43.3 15.5 L 45.8 15.5 L 45.8 16.6 L 42 16.6 L 42 11.3 L 45.8 11.3 L 45.8 12.3 Z M 52.4 11.3 L 52.4 12.3 L 51.1 12.3 L 51.1 16.6 L 49.8 16.6 L 49.8 12.3 L 48.5 12.3 L 48.5 11.3 L 52.4 11.3 Z M 55.5 11.3 L 57.1 16.6 L 55.8 16.6 L 55.4 15.5 L 53.7 15.5 L 53.4 16.6 L 52.3 16.6 L 54 11.3 L 55.5 11.3 Z M 54 14.5 L 55.2 14.5 L 54.6 12.6 L 54 14.5 Z M 57.9 11.3 C 57.9 11.3 60.42 11.27 60.4 11.3 C 60.9 11.3 61.2 11.3 61.4 11.4 C 61.6 11.5 61.8 11.7 62 11.9 C 62.1 12.1 62.2 12.4 62.2 12.6 C 62.2 13.2 61.9 13.6 61.2 13.8 C 61.6 13.9 61.9 14.1 62.1 14.3 C 62.3 14.6 62.3 14.8 62.3 15.1 C 62.3 15.5 62.2 15.9 61.9 16.2 C 61.6 16.5 61.1 16.6 60.4 16.6 C 60.42 16.6 57.9 16.6 57.9 16.6 L 57.9 11.3 Z M 59.2 12.2 L 59.2 13.4 C 59.2 13.4 60.13 13.38 60.1 13.4 C 60.5 13.4 60.7 13.3 60.8 13.2 C 60.9 13 60.9 12.9 60.9 12.8 C 60.9 12.6 60.9 12.5 60.8 12.4 C 60.7 12.3 60.6 12.3 60.6 12.2 C 60.5 12.2 60.3 12.2 60 12.2 C 60.04 12.21 59.2 12.2 59.2 12.2 Z M 59.2 14.3 L 59.2 15.6 C 59.2 15.6 60.14 15.61 60.1 15.6 C 60.5 15.6 60.7 15.6 60.8 15.4 C 61 15.3 61 15.2 61 15 C 61 14.8 61 14.6 60.8 14.5 C 60.7 14.4 60.5 14.3 60.2 14.3 C 60.19 14.33 59.2 14.3 59.2 14.3 Z M 64.7 15.5 L 66.8 15.5 L 66.8 16.6 L 63.4 16.6 L 63.4 11.3 L 64.7 11.3 L 64.7 15.5 Z M 70.3 11.3 L 71.9 16.6 L 70.6 16.6 L 70.3 15.5 L 68.5 15.5 L 68.2 16.6 L 67.1 16.6 L 68.8 11.3 L 70.3 11.3 Z M 68.8 14.5 L 70 14.5 L 69.4 12.6 L 68.8 14.5 Z M 72.8 11.3 C 72.8 11.3 74.38 11.27 74.4 11.3 C 75 11.3 75.5 11.4 75.9 11.5 C 76.2 11.7 76.5 12 76.7 12.4 C 77 12.8 77.1 13.3 77.1 13.9 C 77.1 14.7 76.9 15.3 76.5 15.8 C 76 16.3 75.4 16.6 74.6 16.6 C 74.59 16.6 72.8 16.6 72.8 16.6 L 72.8 11.3 Z M 74 12.3 L 74 15.6 C 74 15.6 74.5 15.6 74.5 15.6 C 75 15.6 75.3 15.4 75.5 15.1 C 75.7 14.7 75.8 14.3 75.8 13.9 C 75.8 13.6 75.8 13.3 75.7 13 C 75.5 12.7 75.4 12.5 75.2 12.4 C 75 12.3 74.8 12.3 74.5 12.3 C 74.51 12.25 74 12.3 74 12.3 Z M 80.6 11.3 L 82.3 16.6 L 80.9 16.6 L 80.6 15.5 L 78.9 15.5 L 78.6 16.6 L 77.5 16.6 L 79.2 11.3 L 80.6 11.3 Z M 79.2 14.5 L 80.3 14.5 L 79.8 12.6 L 79.2 14.5 Z " stroke="none" fill="#000"/>
  </g>
  <g id="Polygon14104">
    <path d="M 6.9 0.3 L 5.6 5.6 L 4.4 5.6 L 3.5 2.1 L 2.6 5.6 L 1.4 5.6 L 0.1 0.3 L 1.3 0.3 C 1.3 0.3 2.06 3.52 2.1 3.5 C 2.1 3.5 2.1 3.6 2.1 3.7 C 2.1 3.7 2.1 3.8 2.2 3.9 C 2.15 3.86 3 0.3 3 0.3 L 4.2 0.3 C 4.2 0.3 5.07 3.86 5.1 3.9 C 5.1 3.8 5.1 3.7 5.2 3.5 C 5.15 3.52 5.9 0.3 5.9 0.3 L 6.9 0.3 Z M 11.6 0.3 L 9.9 3.4 L 9.9 5.6 L 8.7 5.6 L 8.7 3.4 L 7 0.3 L 8.5 0.3 L 9.5 2.3 L 10.5 0.3 L 11.6 0.3 Z M 16.3 0.3 L 16.3 5.6 L 15.2 5.6 C 15.2 5.6 13.12 2 13.1 2 C 13.1 2.1 13.1 2.2 13.1 2.2 C 13.1 2.3 13.1 2.3 13.1 2.4 C 13.14 2.41 13.1 5.6 13.1 5.6 L 12.2 5.6 L 12.2 0.3 L 13.5 0.3 C 13.5 0.3 15.33 3.41 15.3 3.4 C 15.3 3.3 15.3 3.1 15.3 3.1 C 15.31 3.06 15.3 0.3 15.3 0.3 L 16.3 0.3 Z M 19.6 5.7 C 18.9 5.7 18.3 5.4 17.9 4.9 C 17.5 4.3 17.3 3.7 17.3 2.9 C 17.3 2.1 17.5 1.5 17.9 1 C 18.3 0.4 18.9 0.2 19.6 0.2 C 20.4 0.2 20.9 0.5 21.3 1 C 21.7 1.6 21.9 2.2 21.9 2.9 C 21.9 3.7 21.7 4.4 21.3 4.9 C 20.9 5.4 20.3 5.7 19.6 5.7 Z M 20.6 2.9 C 20.6 1.8 20.3 1.2 19.6 1.2 C 19 1.2 18.6 1.8 18.6 2.9 C 18.6 4.1 19 4.7 19.6 4.7 C 20.3 4.7 20.6 4.1 20.6 2.9 C 20.6 2.9 20.6 2.9 20.6 2.9 Z M 24.2 4.5 L 26.3 4.5 L 26.3 5.6 L 22.9 5.6 L 22.9 0.3 L 24.2 0.3 L 24.2 4.5 Z M 29.8 0.3 L 31.5 5.6 L 30.2 5.6 L 29.8 4.5 L 28.1 4.5 L 27.8 5.6 L 26.7 5.6 L 28.4 0.3 L 29.8 0.3 Z M 28.4 3.5 L 29.5 3.5 L 29 1.6 L 28.4 3.5 Z M 36.7 0.2 C 38 0.2 38.7 0.9 38.8 2.3 C 38.8 2.3 37.5 2.3 37.5 2.3 C 37.5 1.6 37.2 1.2 36.7 1.2 C 36 1.2 35.7 1.8 35.7 2.9 C 35.7 3.6 35.8 4.1 35.9 4.3 C 36.1 4.5 36.4 4.7 36.7 4.7 C 37.2 4.7 37.5 4.3 37.6 3.7 C 37.6 3.7 38.8 3.7 38.8 3.7 C 38.8 4.4 38.5 4.9 38.1 5.2 C 37.7 5.5 37.3 5.7 36.7 5.7 C 36 5.7 35.4 5.4 35 5 C 34.5 4.5 34.3 3.8 34.3 2.9 C 34.3 2.1 34.5 1.5 34.9 1 C 35.4 0.4 35.9 0.2 36.7 0.2 C 36.7 0.2 36.7 0.2 36.7 0.2 Z M 41.1 4.5 L 43.2 4.5 L 43.2 5.6 L 39.8 5.6 L 39.8 0.3 L 41.1 0.3 L 41.1 4.5 Z M 46.7 0.3 L 48.4 5.6 L 47 5.6 L 46.7 4.5 L 45 4.5 L 44.6 5.6 L 43.5 5.6 L 45.2 0.3 L 46.7 0.3 Z M 45.3 3.5 L 46.4 3.5 L 45.8 1.6 L 45.3 3.5 Z M 50.4 3.5 L 50.4 5.6 L 49.2 5.6 L 49.2 0.3 C 49.2 0.3 51.52 0.27 51.5 0.3 C 52 0.3 52.3 0.3 52.6 0.4 C 52.8 0.5 53 0.7 53.2 1 C 53.4 1.2 53.5 1.5 53.5 1.9 C 53.5 2.5 53.2 3 52.5 3.2 C 52.54 3.24 53.5 5.6 53.5 5.6 L 52.1 5.6 L 51.3 3.5 L 50.4 3.5 Z M 50.4 1.2 L 50.4 2.6 C 50.4 2.6 51.2 2.58 51.2 2.6 C 51.5 2.6 51.6 2.6 51.7 2.5 C 51.9 2.5 52 2.4 52 2.3 C 52.1 2.2 52.2 2 52.2 1.9 C 52.2 1.7 52.1 1.6 52 1.5 C 52 1.4 51.9 1.3 51.8 1.3 C 51.7 1.2 51.5 1.2 51.2 1.2 C 51.17 1.22 50.4 1.2 50.4 1.2 Z M 58.5 1.3 L 55.9 1.3 L 55.9 2.4 L 57.9 2.4 L 57.9 3.4 L 55.9 3.4 L 55.9 4.5 L 58.5 4.5 L 58.5 5.6 L 54.7 5.6 L 54.7 0.3 L 58.5 0.3 L 58.5 1.3 Z M 63.9 0.2 C 65.1 0.2 65.9 0.9 66 2.3 C 66 2.3 64.7 2.3 64.7 2.3 C 64.7 1.6 64.4 1.2 63.8 1.2 C 63.2 1.2 62.8 1.8 62.8 2.9 C 62.8 3.6 62.9 4.1 63.1 4.3 C 63.3 4.5 63.5 4.7 63.9 4.7 C 64.4 4.7 64.7 4.3 64.8 3.7 C 64.8 3.7 66 3.7 66 3.7 C 65.9 4.4 65.7 4.9 65.3 5.2 C 64.9 5.5 64.4 5.7 63.8 5.7 C 63.1 5.7 62.6 5.4 62.1 5 C 61.7 4.5 61.5 3.8 61.5 2.9 C 61.5 2.1 61.7 1.5 62.1 1 C 62.5 0.4 63.1 0.2 63.9 0.2 C 63.9 0.2 63.9 0.2 63.9 0.2 Z M 69.5 0.3 L 71.2 5.6 L 69.9 5.6 L 69.5 4.5 L 67.8 4.5 L 67.5 5.6 L 66.4 5.6 L 68.1 0.3 L 69.5 0.3 Z M 68.1 3.5 L 69.2 3.5 L 68.7 1.6 L 68.1 3.5 Z M 73.3 3.5 L 73.3 5.6 L 72 5.6 L 72 0.3 C 72 0.3 74.37 0.27 74.4 0.3 C 74.8 0.3 75.1 0.3 75.4 0.4 C 75.7 0.5 75.9 0.7 76.1 1 C 76.2 1.2 76.3 1.5 76.3 1.9 C 76.3 2.5 76 3 75.4 3.2 C 75.39 3.24 76.4 5.6 76.4 5.6 L 75 5.6 L 74.2 3.5 L 73.3 3.5 Z M 73.3 1.2 L 73.3 2.6 C 73.3 2.6 74.05 2.58 74 2.6 C 74.3 2.6 74.5 2.6 74.6 2.5 C 74.7 2.5 74.8 2.4 74.9 2.3 C 75 2.2 75 2 75 1.9 C 75 1.7 75 1.6 74.9 1.5 C 74.8 1.4 74.7 1.3 74.6 1.3 C 74.5 1.2 74.3 1.2 74 1.2 C 74.02 1.22 73.3 1.2 73.3 1.2 Z M 80.9 0.3 L 80.9 1.3 L 79.6 1.3 L 79.6 5.6 L 78.3 5.6 L 78.3 1.3 L 77 1.3 L 77 0.3 L 80.9 0.3 Z M 83.9 0.3 L 85.6 5.6 L 84.2 5.6 L 83.9 4.5 L 82.2 4.5 L 81.9 5.6 L 80.8 5.6 L 82.5 0.3 L 83.9 0.3 Z M 82.5 3.5 L 83.6 3.5 L 83.1 1.6 L 82.5 3.5 Z M 87.7 4.5 L 89.8 4.5 L 89.8 5.6 L 86.4 5.6 L 86.4 0.3 L 87.7 0.3 L 87.7 4.5 Z M 91.9 4.5 L 94.1 4.5 L 94.1 5.6 L 90.7 5.6 L 90.7 0.3 L 91.9 0.3 L 91.9 4.5 Z M 97.6 0.3 L 99.2 5.6 L 97.9 5.6 L 97.6 4.5 L 95.8 4.5 L 95.5 5.6 L 94.4 5.6 L 96.1 0.3 L 97.6 0.3 Z M 96.1 3.5 L 97.3 3.5 L 96.7 1.6 L 96.1 3.5 Z M 104.9 0.3 L 106.6 5.6 L 105.2 5.6 L 104.9 4.5 L 103.2 4.5 L 102.8 5.6 L 101.7 5.6 L 103.5 0.3 L 104.9 0.3 Z M 103.5 3.5 L 104.6 3.5 L 104 1.6 L 103.5 3.5 Z M 110.4 0.3 L 110.4 1.3 L 109 1.3 L 109 5.6 L 107.8 5.6 L 107.8 1.3 L 106.4 1.3 L 106.4 0.3 L 110.4 0.3 Z " stroke="none" fill="#000"/>
  </g>
</svg>