<?xml version="1.0" standalone="no"?>
<!DOCTYPE svg PUBLIC "-//W3C//DTD SVG 1.1//EN" "http://www.w3.org/Graphics/SVG/1.1/DTD/svg11.dtd">
<svg xmlns="http://www.w3.org/2000/svg" version="1.1" width="145.2px" height="24.5px" viewBox="0 -3 145.2 24.5" style="top:-3px">
  <desc>Airon Cruz at Zoie Nathaniel Guevarra</desc>
  <defs/>
  <g id="Polygon39563">
    <path d="M 4.6 11.3 L 4.6 16.6 L 3.6 16.6 C 3.6 16.6 1.48 13 1.5 13 C 1.5 13.1 1.5 13.2 1.5 13.2 C 1.5 13.3 1.5 13.3 1.5 13.4 C 1.51 13.41 1.5 16.6 1.5 16.6 L 0.5 16.6 L 0.5 11.3 L 1.9 11.3 C 1.9 11.3 3.7 14.41 3.7 14.4 C 3.7 14.3 3.7 14.1 3.7 14.1 C 3.67 14.06 3.7 11.3 3.7 11.3 L 4.6 11.3 Z M 8.6 11.3 L 10.3 16.6 L 9 16.6 L 8.6 15.5 L 6.9 15.5 L 6.6 16.6 L 5.5 16.6 L 7.2 11.3 L 8.6 11.3 Z M 7.2 14.5 L 8.4 14.5 L 7.8 12.6 L 7.2 14.5 Z M 14.2 11.3 L 14.2 12.3 L 12.9 12.3 L 12.9 16.6 L 11.6 16.6 L 11.6 12.3 L 10.3 12.3 L 10.3 11.3 L 14.2 11.3 Z M 19.2 11.3 L 19.2 16.6 L 17.9 16.6 L 17.9 14.4 L 16.3 14.4 L 16.3 16.6 L 15 16.6 L 15 11.3 L 16.3 11.3 L 16.3 13.3 L 17.9 13.3 L 17.9 11.3 L 19.2 11.3 Z M 23.2 11.3 L 24.8 16.6 L 23.5 16.6 L 23.2 15.5 L 21.4 15.5 L 21.1 16.6 L 20 16.6 L 21.7 11.3 L 23.2 11.3 Z M 21.7 14.5 L 22.9 14.5 L 22.3 12.6 L 21.7 14.5 Z M 29.8 11.3 L 29.8 16.6 L 28.8 16.6 C 28.8 16.6 26.68 13 26.7 13 C 26.7 13.1 26.7 13.2 26.7 13.2 C 26.7 13.3 26.7 13.3 26.7 13.4 C 26.7 13.41 26.7 16.6 26.7 16.6 L 25.7 16.6 L 25.7 11.3 L 27.1 11.3 C 27.1 11.3 28.89 14.41 28.9 14.4 C 28.9 14.3 28.9 14.1 28.9 14.1 C 28.87 14.06 28.9 11.3 28.9 11.3 L 29.8 11.3 Z M 32.5 11.3 L 32.5 16.6 L 31.2 16.6 L 31.2 11.3 L 32.5 11.3 Z M 37.7 12.3 L 35.1 12.3 L 35.1 13.4 L 37.1 13.4 L 37.1 14.4 L 35.1 14.4 L 35.1 15.5 L 37.7 15.5 L 37.7 16.6 L 33.9 16.6 L 33.9 11.3 L 37.7 11.3 L 37.7 12.3 Z M 40 15.5 L 42.1 15.5 L 42.1 16.6 L 38.7 16.6 L 38.7 11.3 L 40 11.3 L 40 15.5 Z M 49.6 13.8 L 49.6 16.6 C 49.6 16.6 48.99 16.6 49 16.6 C 48.9 16.4 48.9 16.2 48.8 16 C 48.4 16.5 47.9 16.7 47.4 16.7 C 46.7 16.7 46.1 16.4 45.7 15.9 C 45.3 15.4 45.1 14.8 45.1 14 C 45.1 13.2 45.4 12.5 45.8 12 C 46.2 11.4 46.7 11.2 47.5 11.2 C 48 11.2 48.5 11.4 48.9 11.7 C 49.3 12 49.5 12.5 49.6 13 C 49.6 13 48.4 13.2 48.4 13.2 C 48.3 12.5 48 12.2 47.5 12.2 C 47.1 12.2 46.9 12.4 46.7 12.7 C 46.5 13 46.4 13.4 46.4 14 C 46.4 14.5 46.5 14.9 46.7 15.2 C 46.9 15.5 47.2 15.7 47.5 15.7 C 47.7 15.7 47.9 15.6 48.1 15.4 C 48.3 15.3 48.4 15.1 48.4 14.7 C 48.37 14.75 47.4 14.7 47.4 14.7 L 47.4 13.8 L 49.6 13.8 Z M 55.1 11.3 C 55.1 11.3 55.06 14.59 55.1 14.6 C 55.1 15.1 55 15.5 54.9 15.8 C 54.8 16 54.5 16.3 54.2 16.4 C 53.9 16.6 53.5 16.7 52.9 16.7 C 52.4 16.7 52 16.6 51.7 16.5 C 51.4 16.3 51.2 16.1 51 15.8 C 50.9 15.5 50.8 15.1 50.8 14.6 C 50.81 14.59 50.8 11.3 50.8 11.3 L 52.2 11.3 C 52.2 11.3 52.16 14.59 52.2 14.6 C 52.2 14.9 52.2 15.1 52.2 15.2 C 52.3 15.4 52.4 15.5 52.5 15.5 C 52.7 15.6 52.8 15.7 53.1 15.7 C 53.3 15.7 53.5 15.6 53.6 15.5 C 53.8 15.5 53.9 15.4 53.9 15.2 C 54 15.1 54 14.9 54 14.6 C 53.99 14.59 54 11.3 54 11.3 L 55.1 11.3 Z M 60.2 12.3 L 57.6 12.3 L 57.6 13.4 L 59.6 13.4 L 59.6 14.4 L 57.6 14.4 L 57.6 15.5 L 60.2 15.5 L 60.2 16.6 L 56.4 16.6 L 56.4 11.3 L 60.2 11.3 L 60.2 12.3 Z M 65.2 11.3 L 63.6 16.6 L 62.3 16.6 L 60.7 11.3 L 62 11.3 L 63.1 15.1 L 64.2 11.3 L 65.2 11.3 Z M 68.4 11.3 L 70.1 16.6 L 68.7 16.6 L 68.4 15.5 L 66.7 15.5 L 66.3 16.6 L 65.2 16.6 L 66.9 11.3 L 68.4 11.3 Z M 67 14.5 L 68.1 14.5 L 67.5 12.6 L 67 14.5 Z M 72.2 14.5 L 72.2 16.6 L 71 16.6 L 71 11.3 C 71 11.3 73.3 11.27 73.3 11.3 C 73.7 11.3 74.1 11.3 74.3 11.4 C 74.6 11.5 74.8 11.7 75 12 C 75.2 12.2 75.2 12.5 75.2 12.9 C 75.2 13.5 74.9 14 74.3 14.2 C 74.32 14.24 75.3 16.6 75.3 16.6 L 73.9 16.6 L 73.1 14.5 L 72.2 14.5 Z M 72.2 12.2 L 72.2 13.6 C 72.2 13.6 72.98 13.58 73 13.6 C 73.2 13.6 73.4 13.6 73.5 13.5 C 73.6 13.5 73.7 13.4 73.8 13.3 C 73.9 13.2 74 13 74 12.9 C 74 12.7 73.9 12.6 73.8 12.5 C 73.7 12.4 73.6 12.3 73.5 12.3 C 73.4 12.2 73.2 12.2 73 12.2 C 72.95 12.22 72.2 12.2 72.2 12.2 Z M 77.8 14.5 L 77.8 16.6 L 76.5 16.6 L 76.5 11.3 C 76.5 11.3 78.88 11.27 78.9 11.3 C 79.3 11.3 79.7 11.3 79.9 11.4 C 80.2 11.5 80.4 11.7 80.6 12 C 80.7 12.2 80.8 12.5 80.8 12.9 C 80.8 13.5 80.5 14 79.9 14.2 C 79.9 14.24 80.9 16.6 80.9 16.6 L 79.5 16.6 L 78.7 14.5 L 77.8 14.5 Z M 77.8 12.2 L 77.8 13.6 C 77.8 13.6 78.56 13.58 78.6 13.6 C 78.8 13.6 79 13.6 79.1 13.5 C 79.2 13.5 79.3 13.4 79.4 13.3 C 79.5 13.2 79.5 13 79.5 12.9 C 79.5 12.7 79.5 12.6 79.4 12.5 C 79.3 12.4 79.2 12.3 79.1 12.3 C 79 12.2 78.8 12.2 78.5 12.2 C 78.53 12.22 77.8 12.2 77.8 12.2 Z M 84.7 11.3 L 86.4 16.6 L 85.1 16.6 L 84.7 15.5 L 83 15.5 L 82.7 16.6 L 81.6 16.6 L 83.3 11.3 L 84.7 11.3 Z M 83.3 14.5 L 84.4 14.5 L 83.9 12.6 L 83.3 14.5 Z " stroke="none" fill="#000"/>
  </g>
  <g id="Polygon39562">
    <path d="M 3.2 0.3 L 4.8 5.6 L 3.5 5.6 L 3.2 4.5 L 1.4 4.5 L 1.1 5.6 L 0 5.6 L 1.7 0.3 L 3.2 0.3 Z M 1.7 3.5 L 2.9 3.5 L 2.3 1.6 L 1.7 3.5 Z M 7 0.3 L 7 5.6 L 5.7 5.6 L 5.7 0.3 L 7 0.3 Z M 9.6 3.5 L 9.6 5.6 L 8.4 5.6 L 8.4 0.3 C 8.4 0.3 10.7 0.27 10.7 0.3 C 11.1 0.3 11.5 0.3 11.7 0.4 C 12 0.5 12.2 0.7 12.4 1 C 12.6 1.2 12.6 1.5 12.6 1.9 C 12.6 2.5 12.3 3 11.7 3.2 C 11.72 3.24 12.7 5.6 12.7 5.6 L 11.3 5.6 L 10.5 3.5 L 9.6 3.5 Z M 9.6 1.2 L 9.6 2.6 C 9.6 2.6 10.38 2.58 10.4 2.6 C 10.6 2.6 10.8 2.6 10.9 2.5 C 11 2.5 11.1 2.4 11.2 2.3 C 11.3 2.2 11.4 2 11.4 1.9 C 11.4 1.7 11.3 1.6 11.2 1.5 C 11.1 1.4 11 1.3 10.9 1.3 C 10.8 1.2 10.6 1.2 10.4 1.2 C 10.35 1.22 9.6 1.2 9.6 1.2 Z M 15.8 5.7 C 15.1 5.7 14.6 5.4 14.2 4.9 C 13.8 4.3 13.6 3.7 13.6 2.9 C 13.6 2.1 13.8 1.5 14.2 1 C 14.6 0.4 15.1 0.2 15.9 0.2 C 16.6 0.2 17.2 0.5 17.6 1 C 17.9 1.6 18.1 2.2 18.1 2.9 C 18.1 3.7 17.9 4.4 17.5 4.9 C 17.1 5.4 16.6 5.7 15.8 5.7 Z M 16.8 2.9 C 16.8 1.8 16.5 1.2 15.9 1.2 C 15.2 1.2 14.9 1.8 14.9 2.9 C 14.9 4.1 15.2 4.7 15.9 4.7 C 16.5 4.7 16.8 4.1 16.8 2.9 C 16.8 2.9 16.8 2.9 16.8 2.9 Z M 23.4 0.3 L 23.4 5.6 L 22.3 5.6 C 22.3 5.6 20.21 2 20.2 2 C 20.2 2.1 20.2 2.2 20.2 2.2 C 20.2 2.3 20.2 2.3 20.2 2.4 C 20.23 2.41 20.2 5.6 20.2 5.6 L 19.3 5.6 L 19.3 0.3 L 20.6 0.3 C 20.6 0.3 22.42 3.41 22.4 3.4 C 22.4 3.3 22.4 3.1 22.4 3.1 C 22.4 3.06 22.4 0.3 22.4 0.3 L 23.4 0.3 Z M 29.2 0.2 C 30.5 0.2 31.2 0.9 31.4 2.3 C 31.4 2.3 30.1 2.3 30.1 2.3 C 30 1.6 29.8 1.2 29.2 1.2 C 28.5 1.2 28.2 1.8 28.2 2.9 C 28.2 3.6 28.3 4.1 28.5 4.3 C 28.6 4.5 28.9 4.7 29.2 4.7 C 29.7 4.7 30 4.3 30.2 3.7 C 30.2 3.7 31.4 3.7 31.4 3.7 C 31.3 4.4 31.1 4.9 30.7 5.2 C 30.3 5.5 29.8 5.7 29.2 5.7 C 28.5 5.7 27.9 5.4 27.5 5 C 27 4.5 26.8 3.8 26.8 2.9 C 26.8 2.1 27 1.5 27.5 1 C 27.9 0.4 28.5 0.2 29.2 0.2 C 29.2 0.2 29.2 0.2 29.2 0.2 Z M 33.7 3.5 L 33.7 5.6 L 32.4 5.6 L 32.4 0.3 C 32.4 0.3 34.76 0.27 34.8 0.3 C 35.2 0.3 35.5 0.3 35.8 0.4 C 36.1 0.5 36.3 0.7 36.4 1 C 36.6 1.2 36.7 1.5 36.7 1.9 C 36.7 2.5 36.4 3 35.8 3.2 C 35.78 3.24 36.8 5.6 36.8 5.6 L 35.4 5.6 L 34.6 3.5 L 33.7 3.5 Z M 33.7 1.2 L 33.7 2.6 C 33.7 2.6 34.44 2.58 34.4 2.6 C 34.7 2.6 34.9 2.6 35 2.5 C 35.1 2.5 35.2 2.4 35.3 2.3 C 35.4 2.2 35.4 2 35.4 1.9 C 35.4 1.7 35.4 1.6 35.3 1.5 C 35.2 1.4 35.1 1.3 35 1.3 C 34.9 1.2 34.7 1.2 34.4 1.2 C 34.41 1.22 33.7 1.2 33.7 1.2 Z M 42.1 0.3 C 42.1 0.3 42.11 3.59 42.1 3.6 C 42.1 4.1 42.1 4.5 41.9 4.8 C 41.8 5 41.6 5.3 41.3 5.4 C 40.9 5.6 40.5 5.7 40 5.7 C 39.5 5.7 39.1 5.6 38.8 5.5 C 38.5 5.3 38.2 5.1 38.1 4.8 C 37.9 4.5 37.9 4.1 37.9 3.6 C 37.86 3.59 37.9 0.3 37.9 0.3 L 39.2 0.3 C 39.2 0.3 39.21 3.59 39.2 3.6 C 39.2 3.9 39.2 4.1 39.3 4.2 C 39.3 4.4 39.4 4.5 39.6 4.5 C 39.7 4.6 39.9 4.7 40.1 4.7 C 40.3 4.7 40.5 4.6 40.7 4.5 C 40.8 4.5 40.9 4.4 41 4.2 C 41 4.1 41 3.9 41 3.6 C 41.04 3.59 41 0.3 41 0.3 L 42.1 0.3 Z M 47.3 1.2 L 44.6 4.6 L 47.4 4.6 L 47.4 5.6 L 43.1 5.6 L 43.1 4.7 L 45.7 1.3 L 43.2 1.3 L 43.2 0.3 L 47.3 0.3 L 47.3 1.2 Z M 53.3 0.3 L 55 5.6 L 53.6 5.6 L 53.3 4.5 L 51.6 4.5 L 51.3 5.6 L 50.2 5.6 L 51.9 0.3 L 53.3 0.3 Z M 51.9 3.5 L 53 3.5 L 52.5 1.6 L 51.9 3.5 Z M 58.8 0.3 L 58.8 1.3 L 57.5 1.3 L 57.5 5.6 L 56.3 5.6 L 56.3 1.3 L 54.9 1.3 L 54.9 0.3 L 58.8 0.3 Z M 65.9 1.2 L 63.2 4.6 L 66 4.6 L 66 5.6 L 61.6 5.6 L 61.6 4.7 L 64.3 1.3 L 61.8 1.3 L 61.8 0.3 L 65.9 0.3 L 65.9 1.2 Z M 69 5.7 C 68.3 5.7 67.7 5.4 67.3 4.9 C 66.9 4.3 66.7 3.7 66.7 2.9 C 66.7 2.1 66.9 1.5 67.3 1 C 67.7 0.4 68.3 0.2 69 0.2 C 69.8 0.2 70.3 0.5 70.7 1 C 71.1 1.6 71.3 2.2 71.3 2.9 C 71.3 3.7 71.1 4.4 70.7 4.9 C 70.3 5.4 69.7 5.7 69 5.7 Z M 70 2.9 C 70 1.8 69.6 1.2 69 1.2 C 68.4 1.2 68 1.8 68 2.9 C 68 4.1 68.4 4.7 69 4.7 C 69.6 4.7 70 4.1 70 2.9 C 70 2.9 70 2.9 70 2.9 Z M 73.6 0.3 L 73.6 5.6 L 72.4 5.6 L 72.4 0.3 L 73.6 0.3 Z M 78.8 1.3 L 76.3 1.3 L 76.3 2.4 L 78.3 2.4 L 78.3 3.4 L 76.3 3.4 L 76.3 4.5 L 78.8 4.5 L 78.8 5.6 L 75 5.6 L 75 0.3 L 78.8 0.3 L 78.8 1.3 Z " stroke="none" fill="#000"/>
  </g>
</svg>