<?xml version="1.0" standalone="no"?>
<!DOCTYPE svg PUBLIC "-//W3C//DTD SVG 1.1//EN" "http://www.w3.org/Graphics/SVG/1.1/DTD/svg11.dtd">
<svg xmlns="http://www.w3.org/2000/svg" version="1.1" width="131.3px" height="16.7px" viewBox="0 -3 131.3 16.7" style="top:-3px">
  <desc>Dibuho ni Mary Shanelle Magbitang</desc>
  <defs/>
  <g id="Polygon21128">
    <path d="M 1.2 7 C 1.2 7 2.43 6.98 2.4 7 C 2.7 7 3 6.9 3.2 6.8 C 3.4 6.7 3.6 6.6 3.7 6.5 C 3.9 6.3 4 6.1 4.1 5.9 C 4.2 5.8 4.3 5.6 4.4 5.4 C 4.4 5.2 4.5 5 4.5 4.9 C 4.5 4.7 4.5 4.6 4.5 4.5 C 4.5 4 4.4 3.6 4.2 3.3 C 4 3 3.7 2.9 3.3 2.9 C 3.29 2.9 2 2.9 2 2.9 L 1.2 7 Z M 1.2 2.1 C 1.2 2.1 3.3 2.09 3.3 2.1 C 4 2.1 4.6 2.3 5 2.7 C 5.4 3.1 5.5 3.7 5.5 4.5 C 5.5 4.7 5.5 4.8 5.5 5.1 C 5.5 5.3 5.4 5.5 5.3 5.7 C 5.2 5.9 5.2 6.1 5 6.3 C 4.9 6.5 4.8 6.7 4.6 6.8 C 4.5 7 4.3 7.1 4.1 7.3 C 4 7.4 3.8 7.5 3.6 7.6 C 3.4 7.6 3.2 7.7 2.9 7.7 C 2.7 7.8 2.4 7.8 2 7.8 C 2.02 7.8 0 7.8 0 7.8 L 1.2 2.1 Z M 6.9 2.1 L 7.8 2.1 L 7.7 3 L 6.8 3 L 6.9 2.1 Z M 6.6 3.7 L 7.5 3.7 L 6.7 7.8 L 5.8 7.8 L 6.6 3.7 Z M 9 2.1 L 9.9 2.1 L 9.4 4.1 C 9.4 4.1 9.46 4.15 9.5 4.2 C 9.8 3.8 10.2 3.6 10.7 3.6 C 11 3.6 11.2 3.6 11.4 3.7 C 11.6 3.8 11.7 3.9 11.9 4 C 12 4.2 12.1 4.4 12.2 4.6 C 12.2 4.8 12.3 5 12.3 5.3 C 12.3 5.6 12.2 5.9 12.1 6.2 C 12 6.5 11.9 6.8 11.7 7.1 C 11.5 7.3 11.3 7.5 11 7.7 C 10.8 7.8 10.5 7.9 10.1 7.9 C 9.8 7.9 9.5 7.9 9.3 7.7 C 9.1 7.6 8.9 7.4 8.7 7.1 C 8.74 7.1 8.7 7.1 8.7 7.1 L 8.6 7.8 L 7.8 7.8 L 9 2.1 Z M 10.4 4.3 C 10.2 4.3 10 4.3 9.8 4.4 C 9.6 4.6 9.5 4.7 9.4 4.9 C 9.2 5.1 9.2 5.3 9.1 5.5 C 9.1 5.7 9 5.9 9 6.2 C 9 6.5 9.1 6.7 9.3 6.9 C 9.4 7.1 9.7 7.2 10 7.2 C 10.2 7.2 10.4 7.1 10.6 7 C 10.8 6.9 10.9 6.7 11 6.6 C 11.1 6.4 11.2 6.2 11.3 6 C 11.3 5.7 11.4 5.5 11.4 5.3 C 11.4 5 11.3 4.7 11.1 4.6 C 11 4.4 10.7 4.3 10.4 4.3 Z M 16.3 7.8 L 15.5 7.8 L 15.6 7.2 C 15.6 7.2 15.6 7.18 15.6 7.2 C 15.4 7.4 15.2 7.6 15 7.7 C 14.7 7.8 14.5 7.9 14.2 7.9 C 13.8 7.9 13.5 7.8 13.3 7.6 C 13.1 7.4 13 7.2 13 6.8 C 13 6.7 13 6.7 13 6.6 C 13 6.5 13 6.4 13 6.3 C 13.01 6.3 13.6 3.7 13.6 3.7 L 14.5 3.7 C 14.5 3.7 13.94 6.22 13.9 6.2 C 13.9 6.3 13.9 6.4 13.9 6.4 C 13.9 6.5 13.9 6.5 13.9 6.6 C 13.9 6.6 13.9 6.7 13.9 6.7 C 13.9 6.8 13.9 6.9 13.9 6.9 C 14 7 14 7.1 14.1 7.1 C 14.2 7.2 14.3 7.2 14.5 7.2 C 14.7 7.2 14.8 7.2 15 7.1 C 15.1 7 15.3 6.9 15.4 6.8 C 15.5 6.7 15.6 6.5 15.7 6.4 C 15.7 6.2 15.8 6.1 15.8 5.9 C 15.82 5.9 16.3 3.7 16.3 3.7 L 17.2 3.7 L 16.3 7.8 Z M 18.6 2.1 L 19.5 2.1 L 19.1 4.2 C 19.1 4.2 19.07 4.25 19.1 4.2 C 19.2 4 19.4 3.9 19.7 3.7 C 19.9 3.6 20.2 3.6 20.4 3.6 C 20.8 3.6 21.2 3.7 21.3 3.8 C 21.5 4 21.6 4.3 21.6 4.6 C 21.6 4.7 21.6 4.8 21.6 4.9 C 21.6 5 21.6 5.1 21.6 5.2 C 21.6 5.16 21 7.8 21 7.8 L 20.1 7.8 C 20.1 7.8 20.66 5.25 20.7 5.2 C 20.7 5.2 20.7 5.1 20.7 5 C 20.7 5 20.7 4.9 20.7 4.9 C 20.7 4.8 20.7 4.8 20.7 4.7 C 20.7 4.6 20.7 4.6 20.7 4.5 C 20.6 4.4 20.6 4.4 20.5 4.3 C 20.4 4.3 20.3 4.3 20.1 4.3 C 19.9 4.3 19.8 4.3 19.6 4.4 C 19.5 4.5 19.3 4.6 19.2 4.7 C 19.1 4.8 19 4.9 19 5.1 C 18.9 5.2 18.8 5.4 18.8 5.6 C 18.78 5.56 18.3 7.8 18.3 7.8 L 17.4 7.8 L 18.6 2.1 Z M 24.6 4.3 C 24.3 4.3 24.1 4.3 24 4.4 C 23.8 4.6 23.6 4.7 23.5 4.9 C 23.4 5.1 23.3 5.3 23.3 5.5 C 23.2 5.7 23.2 5.9 23.2 6.1 C 23.2 6.4 23.3 6.7 23.4 6.9 C 23.6 7.1 23.8 7.2 24.1 7.2 C 24.4 7.2 24.6 7.1 24.7 7 C 24.9 6.9 25.1 6.8 25.2 6.6 C 25.3 6.4 25.4 6.2 25.4 6 C 25.5 5.8 25.5 5.5 25.5 5.3 C 25.5 5 25.5 4.8 25.3 4.6 C 25.1 4.4 24.9 4.3 24.6 4.3 Z M 24.1 7.9 C 23.5 7.9 23.1 7.8 22.7 7.4 C 22.4 7.1 22.3 6.7 22.3 6.1 C 22.3 5.8 22.3 5.4 22.4 5.1 C 22.6 4.8 22.7 4.6 22.9 4.3 C 23.1 4.1 23.4 3.9 23.7 3.8 C 24 3.6 24.3 3.6 24.6 3.6 C 25.2 3.6 25.7 3.7 26 4 C 26.3 4.3 26.4 4.7 26.4 5.3 C 26.4 5.7 26.4 6 26.3 6.3 C 26.2 6.7 26 6.9 25.8 7.2 C 25.6 7.4 25.4 7.6 25.1 7.7 C 24.8 7.8 24.4 7.9 24.1 7.9 Z M 29.4 3.7 L 30.2 3.7 L 30.1 4.3 C 30.1 4.3 30.1 4.28 30.1 4.3 C 30.3 4.1 30.5 3.9 30.7 3.7 C 31 3.6 31.2 3.6 31.5 3.6 C 31.9 3.6 32.2 3.7 32.4 3.8 C 32.6 4 32.7 4.3 32.7 4.6 C 32.7 4.7 32.7 4.8 32.7 4.9 C 32.7 5 32.7 5.1 32.7 5.2 C 32.69 5.16 32.1 7.8 32.1 7.8 L 31.2 7.8 C 31.2 7.8 31.75 5.25 31.8 5.2 C 31.8 5.2 31.8 5.1 31.8 5 C 31.8 5 31.8 4.9 31.8 4.9 C 31.8 4.8 31.8 4.8 31.8 4.7 C 31.8 4.6 31.8 4.6 31.8 4.5 C 31.7 4.4 31.7 4.4 31.6 4.3 C 31.5 4.3 31.3 4.3 31.2 4.3 C 31 4.3 30.8 4.3 30.7 4.4 C 30.6 4.5 30.4 4.6 30.3 4.7 C 30.2 4.8 30.1 4.9 30 5.1 C 30 5.2 29.9 5.4 29.9 5.6 C 29.87 5.56 29.4 7.8 29.4 7.8 L 28.5 7.8 L 29.4 3.7 Z M 34.4 2.1 L 35.3 2.1 L 35.1 3 L 34.2 3 L 34.4 2.1 Z M 34 3.7 L 34.9 3.7 L 34.1 7.8 L 33.2 7.8 L 34 3.7 Z M 38.1 2.1 L 39.5 2.1 L 40.1 6.4 L 40.1 6.4 L 42.6 2.1 L 44 2.1 L 42.8 7.8 L 41.9 7.8 L 42.8 3.2 L 42.8 3.2 L 40.2 7.8 L 39.5 7.8 L 38.7 3.2 L 38.7 3.2 L 37.9 7.8 L 36.9 7.8 L 38.1 2.1 Z M 44.9 6.7 C 44.9 6.8 44.9 6.8 45 6.9 C 45 7 45.1 7 45.1 7.1 C 45.2 7.1 45.3 7.1 45.4 7.2 C 45.5 7.2 45.5 7.2 45.6 7.2 C 45.8 7.2 46 7.2 46.2 7.1 C 46.3 7 46.5 6.9 46.6 6.8 C 46.7 6.6 46.7 6.5 46.8 6.3 C 46.9 6.2 46.9 6 46.9 5.8 C 46.9 5.8 46.9 5.8 46.9 5.8 C 46.8 5.8 46.8 5.9 46.7 5.9 C 46.5 5.9 46.4 5.9 46.3 5.9 C 46.2 6 46.1 6 45.9 6 C 45.7 6 45.6 6 45.4 6.1 C 45.3 6.1 45.2 6.2 45.1 6.3 C 44.9 6.4 44.9 6.5 44.9 6.7 Z M 47.6 6.6 C 47.6 6.7 47.6 6.7 47.6 6.8 C 47.6 6.9 47.6 6.9 47.6 7 C 47.6 7.1 47.6 7.1 47.6 7.1 C 47.6 7.2 47.7 7.2 47.8 7.2 C 47.8 7.2 47.9 7.2 47.9 7.2 C 48 7.2 48 7.1 48.1 7.1 C 48.1 7.1 47.9 7.8 47.9 7.8 C 47.8 7.8 47.7 7.9 47.6 7.9 C 47.5 7.9 47.3 7.9 47.2 7.9 C 47.1 7.9 46.9 7.9 46.8 7.8 C 46.7 7.7 46.7 7.5 46.7 7.4 C 46.5 7.6 46.3 7.7 46 7.8 C 45.8 7.9 45.5 7.9 45.3 7.9 C 45.1 7.9 44.9 7.9 44.8 7.8 C 44.6 7.8 44.5 7.7 44.4 7.6 C 44.3 7.5 44.2 7.4 44.1 7.3 C 44 7.1 44 7 44 6.8 C 44 6.6 44 6.3 44.1 6.2 C 44.2 6 44.4 5.8 44.5 5.7 C 44.7 5.6 44.9 5.5 45.1 5.5 C 45.3 5.4 45.5 5.4 45.7 5.4 C 46 5.4 46.3 5.3 46.6 5.3 C 46.8 5.3 46.9 5.2 47 5.1 C 47.1 5 47.1 4.9 47.1 4.8 C 47.1 4.6 47 4.4 46.9 4.4 C 46.8 4.3 46.6 4.3 46.4 4.3 C 46.2 4.3 45.9 4.3 45.8 4.4 C 45.6 4.5 45.4 4.7 45.4 4.9 C 45.4 4.9 44.5 4.9 44.5 4.9 C 44.6 4.7 44.7 4.4 44.8 4.3 C 44.9 4.1 45 4 45.2 3.9 C 45.4 3.7 45.6 3.7 45.8 3.6 C 46 3.6 46.2 3.6 46.5 3.6 C 46.8 3.6 47.1 3.6 47.3 3.7 C 47.6 3.7 47.7 3.8 47.8 3.9 C 47.9 4 48 4.1 48 4.2 C 48 4.3 48 4.4 48 4.5 C 48 4.7 48 4.9 47.9 5.1 C 47.9 5.1 47.6 6.6 47.6 6.6 Z M 49.3 3.7 L 50.2 3.7 L 50 4.5 C 50 4.5 50.06 4.49 50.1 4.5 C 50.1 4.4 50.2 4.3 50.3 4.2 C 50.4 4 50.5 3.9 50.6 3.9 C 50.7 3.8 50.8 3.7 51 3.6 C 51.1 3.6 51.2 3.6 51.4 3.6 C 51.5 3.6 51.5 3.6 51.6 3.6 C 51.7 3.6 51.7 3.6 51.8 3.6 C 51.8 3.6 51.6 4.4 51.6 4.4 C 51.6 4.4 51.5 4.4 51.5 4.4 C 51.4 4.4 51.4 4.4 51.3 4.4 C 51.1 4.4 50.9 4.5 50.7 4.5 C 50.5 4.6 50.4 4.7 50.3 4.9 C 50.1 5 50 5.2 50 5.4 C 49.9 5.6 49.8 5.8 49.8 6 C 49.78 5.97 49.4 7.8 49.4 7.8 L 48.5 7.8 L 49.3 3.7 Z M 51.9 3.7 L 52.8 3.7 L 53.2 6.7 L 53.3 6.7 L 54.8 3.7 L 55.8 3.7 C 55.8 3.7 53.43 7.93 53.4 7.9 C 53.3 8.1 53.2 8.3 53.1 8.5 C 53 8.7 52.9 8.8 52.8 9 C 52.6 9.1 52.5 9.2 52.3 9.3 C 52.1 9.4 51.9 9.4 51.7 9.4 C 51.5 9.4 51.3 9.4 51.1 9.4 C 51.1 9.4 51.3 8.6 51.3 8.6 C 51.3 8.6 51.4 8.6 51.5 8.7 C 51.5 8.7 51.6 8.7 51.6 8.7 C 51.8 8.7 51.9 8.7 52 8.6 C 52.1 8.6 52.2 8.5 52.2 8.3 C 52.22 8.33 52.6 7.7 52.6 7.7 L 51.9 3.7 Z M 58.4 5.9 C 58.3 6.4 58.4 6.7 58.7 6.8 C 58.9 7 59.3 7.1 59.7 7.1 C 59.8 7.1 59.9 7.1 60.1 7.1 C 60.3 7 60.4 7 60.5 6.9 C 60.6 6.8 60.7 6.8 60.8 6.6 C 60.9 6.5 60.9 6.4 60.9 6.2 C 60.9 6 60.9 5.9 60.8 5.8 C 60.8 5.7 60.6 5.6 60.5 5.5 C 60.4 5.5 60.3 5.4 60.1 5.4 C 59.9 5.3 59.8 5.3 59.6 5.2 C 59.4 5.2 59.3 5.1 59.1 5.1 C 58.9 5 58.8 4.9 58.6 4.8 C 58.4 4.7 58.3 4.6 58.2 4.4 C 58.1 4.2 58 4 58 3.7 C 58 3.5 58.1 3.2 58.2 3 C 58.3 2.8 58.4 2.6 58.6 2.5 C 58.8 2.3 59 2.2 59.2 2.1 C 59.5 2 59.8 2 60.1 2 C 60.4 2 60.7 2 61 2 C 61.2 2.1 61.5 2.2 61.7 2.4 C 61.9 2.5 62 2.7 62.1 2.9 C 62.2 3.2 62.3 3.4 62.3 3.8 C 62.3 3.8 61.3 3.8 61.3 3.8 C 61.3 3.4 61.2 3.2 61 3 C 60.8 2.8 60.5 2.8 60.1 2.8 C 60.1 2.8 60 2.8 59.8 2.8 C 59.7 2.8 59.6 2.8 59.5 2.9 C 59.3 3 59.2 3 59.2 3.2 C 59.1 3.3 59 3.4 59 3.6 C 59 3.7 59 3.9 59.1 4 C 59.2 4 59.3 4.1 59.4 4.2 C 59.5 4.2 59.6 4.3 59.8 4.3 C 59.9 4.4 60 4.4 60.2 4.5 C 60.4 4.5 60.6 4.6 60.8 4.6 C 61 4.7 61.2 4.8 61.4 4.9 C 61.5 5 61.7 5.2 61.8 5.4 C 61.9 5.5 61.9 5.8 61.9 6.1 C 61.9 6.3 61.9 6.5 61.8 6.8 C 61.7 7 61.6 7.2 61.4 7.3 C 61.2 7.5 61 7.7 60.7 7.8 C 60.4 7.9 60 7.9 59.6 7.9 C 59.2 7.9 58.9 7.9 58.7 7.8 C 58.4 7.7 58.2 7.6 58 7.5 C 57.8 7.3 57.6 7.1 57.5 6.8 C 57.4 6.6 57.4 6.3 57.4 5.9 C 57.4 5.9 58.4 5.9 58.4 5.9 Z M 63.6 2.1 L 64.6 2.1 L 64.1 4.2 C 64.1 4.2 64.13 4.25 64.1 4.2 C 64.3 4 64.5 3.9 64.7 3.7 C 65 3.6 65.2 3.6 65.5 3.6 C 65.9 3.6 66.2 3.7 66.4 3.8 C 66.6 4 66.7 4.3 66.7 4.6 C 66.7 4.7 66.7 4.8 66.7 4.9 C 66.7 5 66.7 5.1 66.7 5.2 C 66.66 5.16 66.1 7.8 66.1 7.8 L 65.2 7.8 C 65.2 7.8 65.72 5.25 65.7 5.2 C 65.7 5.2 65.8 5.1 65.8 5 C 65.8 5 65.8 4.9 65.8 4.9 C 65.8 4.8 65.8 4.8 65.8 4.7 C 65.8 4.6 65.8 4.6 65.7 4.5 C 65.7 4.4 65.6 4.4 65.5 4.3 C 65.4 4.3 65.3 4.3 65.2 4.3 C 65 4.3 64.8 4.3 64.7 4.4 C 64.5 4.5 64.4 4.6 64.3 4.7 C 64.2 4.8 64.1 4.9 64 5.1 C 63.9 5.2 63.9 5.4 63.8 5.6 C 63.84 5.56 63.4 7.8 63.4 7.8 L 62.5 7.8 L 63.6 2.1 Z M 68.1 6.7 C 68.1 6.8 68.1 6.8 68.1 6.9 C 68.2 7 68.2 7 68.3 7.1 C 68.4 7.1 68.5 7.1 68.5 7.2 C 68.6 7.2 68.7 7.2 68.8 7.2 C 69 7.2 69.2 7.2 69.4 7.1 C 69.5 7 69.6 6.9 69.7 6.8 C 69.8 6.6 69.9 6.5 70 6.3 C 70 6.2 70.1 6 70.1 5.8 C 70.1 5.8 70.1 5.8 70.1 5.8 C 70 5.8 69.9 5.9 69.8 5.9 C 69.7 5.9 69.6 5.9 69.5 5.9 C 69.4 6 69.2 6 69.1 6 C 68.9 6 68.8 6 68.6 6.1 C 68.5 6.1 68.3 6.2 68.2 6.3 C 68.1 6.4 68.1 6.5 68.1 6.7 Z M 70.8 6.6 C 70.8 6.7 70.8 6.7 70.8 6.8 C 70.7 6.9 70.7 6.9 70.7 7 C 70.7 7.1 70.7 7.1 70.8 7.1 C 70.8 7.2 70.9 7.2 70.9 7.2 C 71 7.2 71 7.2 71.1 7.2 C 71.1 7.2 71.2 7.1 71.2 7.1 C 71.2 7.1 71.1 7.8 71.1 7.8 C 71 7.8 70.9 7.9 70.8 7.9 C 70.6 7.9 70.5 7.9 70.4 7.9 C 70.2 7.9 70.1 7.9 70 7.8 C 69.9 7.7 69.9 7.5 69.8 7.4 C 69.7 7.6 69.4 7.7 69.2 7.8 C 69 7.9 68.7 7.9 68.4 7.9 C 68.3 7.9 68.1 7.9 68 7.8 C 67.8 7.8 67.7 7.7 67.5 7.6 C 67.4 7.5 67.3 7.4 67.3 7.3 C 67.2 7.1 67.2 7 67.2 6.8 C 67.2 6.6 67.2 6.3 67.3 6.2 C 67.4 6 67.5 5.8 67.7 5.7 C 67.8 5.6 68 5.5 68.2 5.5 C 68.4 5.4 68.7 5.4 68.9 5.4 C 69.2 5.4 69.5 5.3 69.8 5.3 C 70 5.3 70.1 5.2 70.2 5.1 C 70.2 5 70.3 4.9 70.3 4.8 C 70.3 4.6 70.2 4.4 70.1 4.4 C 69.9 4.3 69.8 4.3 69.6 4.3 C 69.3 4.3 69.1 4.3 68.9 4.4 C 68.7 4.5 68.6 4.7 68.6 4.9 C 68.6 4.9 67.7 4.9 67.7 4.9 C 67.7 4.7 67.8 4.4 67.9 4.3 C 68.1 4.1 68.2 4 68.4 3.9 C 68.5 3.7 68.7 3.7 69 3.6 C 69.2 3.6 69.4 3.6 69.6 3.6 C 70 3.6 70.3 3.6 70.5 3.7 C 70.7 3.7 70.9 3.8 71 3.9 C 71.1 4 71.1 4.1 71.2 4.2 C 71.2 4.3 71.2 4.4 71.2 4.5 C 71.2 4.7 71.2 4.9 71.1 5.1 C 71.1 5.1 70.8 6.6 70.8 6.6 Z M 72.5 3.7 L 73.4 3.7 L 73.2 4.3 C 73.2 4.3 73.26 4.28 73.3 4.3 C 73.4 4.1 73.6 3.9 73.9 3.7 C 74.1 3.6 74.4 3.6 74.7 3.6 C 75.1 3.6 75.4 3.7 75.6 3.8 C 75.8 4 75.9 4.3 75.9 4.6 C 75.9 4.7 75.9 4.8 75.9 4.9 C 75.9 5 75.9 5.1 75.9 5.2 C 75.86 5.16 75.3 7.8 75.3 7.8 L 74.4 7.8 C 74.4 7.8 74.92 5.25 74.9 5.2 C 74.9 5.2 75 5.1 75 5 C 75 5 75 4.9 75 4.9 C 75 4.8 75 4.8 75 4.7 C 75 4.6 75 4.6 74.9 4.5 C 74.9 4.4 74.8 4.4 74.7 4.3 C 74.6 4.3 74.5 4.3 74.4 4.3 C 74.2 4.3 74 4.3 73.9 4.4 C 73.7 4.5 73.6 4.6 73.5 4.7 C 73.4 4.8 73.3 4.9 73.2 5.1 C 73.1 5.2 73.1 5.4 73 5.6 C 73.04 5.56 72.6 7.8 72.6 7.8 L 71.7 7.8 L 72.5 3.7 Z M 79.6 5.4 C 79.7 5.3 79.7 5.3 79.7 5.3 C 79.7 5.3 79.7 5.3 79.7 5.2 C 79.7 5.2 79.7 5.1 79.7 5.1 C 79.7 4.9 79.6 4.7 79.4 4.5 C 79.3 4.4 79.1 4.3 78.8 4.3 C 78.4 4.3 78.2 4.4 78 4.6 C 77.8 4.8 77.6 5 77.5 5.4 C 77.5 5.4 79.6 5.4 79.6 5.4 Z M 80.3 6.5 C 80.2 7 79.9 7.4 79.6 7.6 C 79.2 7.8 78.8 7.9 78.3 7.9 C 78.1 7.9 77.8 7.9 77.6 7.8 C 77.4 7.7 77.2 7.6 77 7.4 C 76.9 7.3 76.7 7.1 76.6 6.9 C 76.6 6.6 76.5 6.4 76.5 6.1 C 76.5 5.8 76.6 5.5 76.7 5.2 C 76.8 4.9 76.9 4.6 77.1 4.4 C 77.3 4.1 77.5 3.9 77.8 3.8 C 78.1 3.6 78.4 3.6 78.8 3.6 C 79.2 3.6 79.5 3.6 79.7 3.7 C 79.9 3.9 80.1 4 80.2 4.2 C 80.4 4.4 80.5 4.6 80.5 4.8 C 80.5 5 80.6 5.3 80.6 5.5 C 80.6 5.6 80.6 5.7 80.6 5.7 C 80.5 5.8 80.5 5.9 80.5 6 C 80.5 6 77.4 6 77.4 6 C 77.4 6 77.4 6 77.4 6 C 77.4 6.1 77.4 6.1 77.4 6.1 C 77.4 6.1 77.4 6.2 77.4 6.2 C 77.4 6.5 77.5 6.8 77.7 6.9 C 77.8 7.1 78.1 7.2 78.4 7.2 C 78.7 7.2 78.9 7.1 79 7 C 79.2 6.9 79.3 6.7 79.4 6.5 C 79.4 6.5 80.3 6.5 80.3 6.5 Z M 82 2.1 L 83 2.1 L 81.8 7.8 L 80.9 7.8 L 82 2.1 Z M 84.1 2.1 L 85 2.1 L 83.8 7.8 L 82.9 7.8 L 84.1 2.1 Z M 88.2 5.4 C 88.2 5.3 88.2 5.3 88.2 5.3 C 88.2 5.3 88.2 5.3 88.2 5.2 C 88.2 5.2 88.2 5.1 88.2 5.1 C 88.2 4.9 88.1 4.7 88 4.5 C 87.8 4.4 87.6 4.3 87.3 4.3 C 87 4.3 86.7 4.4 86.5 4.6 C 86.3 4.8 86.2 5 86.1 5.4 C 86.1 5.4 88.2 5.4 88.2 5.4 Z M 88.9 6.5 C 88.7 7 88.5 7.4 88.1 7.6 C 87.8 7.8 87.4 7.9 86.9 7.9 C 86.6 7.9 86.4 7.9 86.1 7.8 C 85.9 7.7 85.7 7.6 85.6 7.4 C 85.4 7.3 85.3 7.1 85.2 6.9 C 85.1 6.6 85.1 6.4 85.1 6.1 C 85.1 5.8 85.1 5.5 85.2 5.2 C 85.3 4.9 85.5 4.6 85.7 4.4 C 85.8 4.1 86.1 3.9 86.4 3.8 C 86.7 3.6 87 3.6 87.4 3.6 C 87.7 3.6 88 3.6 88.2 3.7 C 88.5 3.9 88.7 4 88.8 4.2 C 88.9 4.4 89 4.6 89 4.8 C 89.1 5 89.1 5.3 89.1 5.5 C 89.1 5.6 89.1 5.7 89.1 5.7 C 89.1 5.8 89.1 5.9 89.1 6 C 89.1 6 86 6 86 6 C 86 6 86 6 86 6 C 86 6.1 86 6.1 86 6.1 C 86 6.1 86 6.2 86 6.2 C 86 6.5 86 6.8 86.2 6.9 C 86.3 7.1 86.6 7.2 87 7.2 C 87.2 7.2 87.4 7.1 87.6 7 C 87.8 6.9 87.9 6.7 87.9 6.5 C 87.9 6.5 88.9 6.5 88.9 6.5 Z M 92.3 2.1 L 93.7 2.1 L 94.3 6.4 L 94.3 6.4 L 96.8 2.1 L 98.2 2.1 L 97 7.8 L 96.1 7.8 L 97.1 3.2 L 97.1 3.2 L 94.5 7.8 L 93.7 7.8 L 93 3.2 L 93 3.2 L 92.1 7.8 L 91.1 7.8 L 92.3 2.1 Z M 99.1 6.7 C 99.1 6.8 99.2 6.8 99.2 6.9 C 99.2 7 99.3 7 99.4 7.1 C 99.4 7.1 99.5 7.1 99.6 7.2 C 99.7 7.2 99.8 7.2 99.9 7.2 C 100.1 7.2 100.3 7.2 100.4 7.1 C 100.6 7 100.7 6.9 100.8 6.8 C 100.9 6.6 101 6.5 101 6.3 C 101.1 6.2 101.1 6 101.2 5.8 C 101.2 5.8 101.1 5.8 101.1 5.8 C 101.1 5.8 101 5.9 100.9 5.9 C 100.8 5.9 100.7 5.9 100.6 5.9 C 100.4 6 100.3 6 100.1 6 C 100 6 99.8 6 99.7 6.1 C 99.5 6.1 99.4 6.2 99.3 6.3 C 99.2 6.4 99.1 6.5 99.1 6.7 Z M 101.9 6.6 C 101.9 6.7 101.8 6.7 101.8 6.8 C 101.8 6.9 101.8 6.9 101.8 7 C 101.8 7.1 101.8 7.1 101.8 7.1 C 101.9 7.2 101.9 7.2 102 7.2 C 102 7.2 102.1 7.2 102.1 7.2 C 102.2 7.2 102.3 7.1 102.3 7.1 C 102.3 7.1 102.2 7.8 102.2 7.8 C 102 7.8 101.9 7.9 101.8 7.9 C 101.7 7.9 101.6 7.9 101.4 7.9 C 101.3 7.9 101.2 7.9 101.1 7.8 C 101 7.7 100.9 7.5 100.9 7.4 C 100.7 7.6 100.5 7.7 100.3 7.8 C 100 7.9 99.8 7.9 99.5 7.9 C 99.3 7.9 99.2 7.9 99 7.8 C 98.9 7.8 98.7 7.7 98.6 7.6 C 98.5 7.5 98.4 7.4 98.3 7.3 C 98.3 7.1 98.2 7 98.2 6.8 C 98.2 6.6 98.3 6.3 98.4 6.2 C 98.5 6 98.6 5.8 98.7 5.7 C 98.9 5.6 99.1 5.5 99.3 5.5 C 99.5 5.4 99.7 5.4 100 5.4 C 100.3 5.4 100.6 5.3 100.9 5.3 C 101 5.3 101.2 5.2 101.2 5.1 C 101.3 5 101.3 4.9 101.3 4.8 C 101.3 4.6 101.3 4.4 101.1 4.4 C 101 4.3 100.8 4.3 100.6 4.3 C 100.4 4.3 100.2 4.3 100 4.4 C 99.8 4.5 99.7 4.7 99.6 4.9 C 99.6 4.9 98.8 4.9 98.8 4.9 C 98.8 4.7 98.9 4.4 99 4.3 C 99.1 4.1 99.3 4 99.4 3.9 C 99.6 3.7 99.8 3.7 100 3.6 C 100.2 3.6 100.5 3.6 100.7 3.6 C 101.1 3.6 101.4 3.6 101.6 3.7 C 101.8 3.7 101.9 3.8 102 3.9 C 102.1 4 102.2 4.1 102.2 4.2 C 102.2 4.3 102.3 4.4 102.3 4.5 C 102.3 4.7 102.2 4.9 102.2 5.1 C 102.2 5.1 101.9 6.6 101.9 6.6 Z M 103.9 6.1 C 103.9 6.2 103.9 6.3 103.9 6.5 C 104 6.6 104 6.7 104.1 6.8 C 104.1 6.9 104.2 6.9 104.3 7 C 104.5 7.1 104.6 7.1 104.7 7.1 C 105 7.1 105.2 7 105.4 6.9 C 105.5 6.8 105.7 6.7 105.8 6.5 C 105.9 6.3 106 6.1 106 5.9 C 106.1 5.7 106.1 5.5 106.1 5.2 C 106.1 4.9 106 4.7 105.9 4.5 C 105.7 4.4 105.5 4.3 105.2 4.3 C 105 4.3 104.8 4.3 104.6 4.4 C 104.5 4.6 104.3 4.7 104.2 4.9 C 104.1 5.1 104 5.2 104 5.5 C 103.9 5.7 103.9 5.9 103.9 6.1 Z M 106.5 7.7 C 106.4 8 106.4 8.3 106.3 8.5 C 106.1 8.7 106 8.9 105.9 9 C 105.7 9.2 105.5 9.3 105.3 9.3 C 105 9.4 104.7 9.4 104.4 9.4 C 104.2 9.4 104 9.4 103.8 9.4 C 103.5 9.3 103.4 9.2 103.2 9.1 C 103 9 102.9 8.9 102.8 8.7 C 102.7 8.6 102.7 8.4 102.6 8.1 C 102.6 8.1 103.6 8.1 103.6 8.1 C 103.6 8.4 103.7 8.5 103.8 8.6 C 104 8.7 104.2 8.8 104.5 8.8 C 104.7 8.8 104.9 8.7 105 8.7 C 105.1 8.6 105.3 8.5 105.3 8.4 C 105.4 8.3 105.5 8.2 105.5 8.1 C 105.6 7.9 105.6 7.8 105.7 7.6 C 105.67 7.6 105.8 7.2 105.8 7.2 C 105.8 7.2 105.74 7.18 105.7 7.2 C 105.5 7.6 105.1 7.8 104.6 7.8 C 104.1 7.8 103.7 7.6 103.4 7.3 C 103.1 7 103 6.6 103 6.1 C 103 5.8 103 5.5 103.1 5.2 C 103.2 4.9 103.3 4.6 103.5 4.4 C 103.7 4.1 103.9 3.9 104.2 3.8 C 104.5 3.6 104.8 3.6 105.1 3.6 C 105.4 3.6 105.7 3.6 105.9 3.7 C 106.1 3.9 106.3 4.1 106.4 4.4 C 106.38 4.35 106.4 4.4 106.4 4.4 L 106.5 3.7 L 107.4 3.7 C 107.4 3.7 106.51 7.69 106.5 7.7 Z M 108.7 2.1 L 109.6 2.1 L 109.2 4.1 C 109.2 4.1 109.23 4.15 109.2 4.2 C 109.5 3.8 110 3.6 110.5 3.6 C 110.7 3.6 111 3.6 111.1 3.7 C 111.3 3.8 111.5 3.9 111.6 4 C 111.8 4.2 111.9 4.4 111.9 4.6 C 112 4.8 112 5 112 5.3 C 112 5.6 112 5.9 111.9 6.2 C 111.8 6.5 111.7 6.8 111.5 7.1 C 111.3 7.3 111.1 7.5 110.8 7.7 C 110.6 7.8 110.2 7.9 109.9 7.9 C 109.6 7.9 109.3 7.9 109.1 7.7 C 108.8 7.6 108.7 7.4 108.5 7.1 C 108.51 7.1 108.5 7.1 108.5 7.1 L 108.4 7.8 L 107.5 7.8 L 108.7 2.1 Z M 110.2 4.3 C 109.9 4.3 109.7 4.3 109.6 4.4 C 109.4 4.6 109.3 4.7 109.1 4.9 C 109 5.1 108.9 5.3 108.9 5.5 C 108.8 5.7 108.8 5.9 108.8 6.2 C 108.8 6.5 108.9 6.7 109 6.9 C 109.2 7.1 109.4 7.2 109.8 7.2 C 110 7.2 110.2 7.1 110.4 7 C 110.5 6.9 110.7 6.7 110.8 6.6 C 110.9 6.4 111 6.2 111.1 6 C 111.1 5.7 111.1 5.5 111.1 5.3 C 111.1 5 111.1 4.7 110.9 4.6 C 110.7 4.4 110.5 4.3 110.2 4.3 Z M 113.7 2.1 L 114.6 2.1 L 114.4 3 L 113.5 3 L 113.7 2.1 Z M 113.4 3.7 L 114.3 3.7 L 113.4 7.8 L 112.5 7.8 L 113.4 3.7 Z M 115.9 2.4 L 116.8 2.4 L 116.5 3.7 L 117.3 3.7 L 117.2 4.3 L 116.4 4.3 C 116.4 4.3 115.95 6.37 116 6.4 C 115.9 6.5 115.9 6.5 115.9 6.6 C 115.9 6.7 115.9 6.8 115.9 6.8 C 115.9 6.9 115.9 7 115.9 7 C 116 7.1 116.1 7.1 116.2 7.1 C 116.3 7.1 116.3 7.1 116.4 7.1 C 116.5 7.1 116.6 7.1 116.7 7.1 C 116.7 7.1 116.5 7.8 116.5 7.8 C 116.4 7.8 116.3 7.8 116.2 7.8 C 116 7.8 115.9 7.8 115.8 7.8 C 115.6 7.8 115.5 7.8 115.4 7.8 C 115.3 7.7 115.2 7.7 115.1 7.6 C 115.1 7.5 115 7.4 115 7.4 C 115 7.3 115 7.2 115 7.1 C 115 7 115 6.9 115 6.8 C 115 6.7 115 6.6 115 6.6 C 115.02 6.61 115.5 4.3 115.5 4.3 L 114.8 4.3 L 114.9 3.7 L 115.6 3.7 L 115.9 2.4 Z M 118.2 6.7 C 118.2 6.8 118.2 6.8 118.3 6.9 C 118.3 7 118.4 7 118.4 7.1 C 118.5 7.1 118.6 7.1 118.7 7.2 C 118.8 7.2 118.8 7.2 118.9 7.2 C 119.2 7.2 119.3 7.2 119.5 7.1 C 119.6 7 119.8 6.9 119.9 6.8 C 120 6.6 120 6.5 120.1 6.3 C 120.2 6.2 120.2 6 120.2 5.8 C 120.2 5.8 120.2 5.8 120.2 5.8 C 120.2 5.8 120.1 5.9 120 5.9 C 119.9 5.9 119.7 5.9 119.6 5.9 C 119.5 6 119.4 6 119.2 6 C 119 6 118.9 6 118.7 6.1 C 118.6 6.1 118.5 6.2 118.4 6.3 C 118.3 6.4 118.2 6.5 118.2 6.7 Z M 120.9 6.6 C 120.9 6.7 120.9 6.7 120.9 6.8 C 120.9 6.9 120.9 6.9 120.9 7 C 120.9 7.1 120.9 7.1 120.9 7.1 C 120.9 7.2 121 7.2 121.1 7.2 C 121.1 7.2 121.2 7.2 121.2 7.2 C 121.3 7.2 121.3 7.1 121.4 7.1 C 121.4 7.1 121.2 7.8 121.2 7.8 C 121.1 7.8 121 7.9 120.9 7.9 C 120.8 7.9 120.6 7.9 120.5 7.9 C 120.4 7.9 120.2 7.9 120.1 7.8 C 120 7.7 120 7.5 120 7.4 C 119.8 7.6 119.6 7.7 119.3 7.8 C 119.1 7.9 118.8 7.9 118.6 7.9 C 118.4 7.9 118.2 7.9 118.1 7.8 C 117.9 7.8 117.8 7.7 117.7 7.6 C 117.6 7.5 117.5 7.4 117.4 7.3 C 117.3 7.1 117.3 7 117.3 6.8 C 117.3 6.6 117.3 6.3 117.4 6.2 C 117.5 6 117.7 5.8 117.8 5.7 C 118 5.6 118.2 5.5 118.4 5.5 C 118.6 5.4 118.8 5.4 119 5.4 C 119.3 5.4 119.6 5.3 119.9 5.3 C 120.1 5.3 120.2 5.2 120.3 5.1 C 120.4 5 120.4 4.9 120.4 4.8 C 120.4 4.6 120.3 4.4 120.2 4.4 C 120.1 4.3 119.9 4.3 119.7 4.3 C 119.5 4.3 119.2 4.3 119.1 4.4 C 118.9 4.5 118.8 4.7 118.7 4.9 C 118.7 4.9 117.8 4.9 117.8 4.9 C 117.9 4.7 118 4.4 118.1 4.3 C 118.2 4.1 118.3 4 118.5 3.9 C 118.7 3.7 118.9 3.7 119.1 3.6 C 119.3 3.6 119.5 3.6 119.8 3.6 C 120.1 3.6 120.4 3.6 120.7 3.7 C 120.9 3.7 121 3.8 121.1 3.9 C 121.2 4 121.3 4.1 121.3 4.2 C 121.3 4.3 121.3 4.4 121.3 4.5 C 121.3 4.7 121.3 4.9 121.2 5.1 C 121.2 5.1 120.9 6.6 120.9 6.6 Z M 122.6 3.7 L 123.5 3.7 L 123.4 4.3 C 123.4 4.3 123.39 4.28 123.4 4.3 C 123.6 4.1 123.8 3.9 124 3.7 C 124.3 3.6 124.5 3.6 124.8 3.6 C 125.2 3.6 125.5 3.7 125.7 3.8 C 125.9 4 126 4.3 126 4.6 C 126 4.7 126 4.8 126 4.9 C 126 5 126 5.1 126 5.2 C 125.98 5.16 125.4 7.8 125.4 7.8 L 124.5 7.8 C 124.5 7.8 125.05 5.25 125 5.2 C 125.1 5.2 125.1 5.1 125.1 5 C 125.1 5 125.1 4.9 125.1 4.9 C 125.1 4.8 125.1 4.8 125.1 4.7 C 125.1 4.6 125.1 4.6 125 4.5 C 125 4.4 124.9 4.4 124.9 4.3 C 124.8 4.3 124.6 4.3 124.5 4.3 C 124.3 4.3 124.1 4.3 124 4.4 C 123.9 4.5 123.7 4.6 123.6 4.7 C 123.5 4.8 123.4 4.9 123.3 5.1 C 123.3 5.2 123.2 5.4 123.2 5.6 C 123.17 5.56 122.7 7.8 122.7 7.8 L 121.8 7.8 L 122.6 3.7 Z M 127.6 6.1 C 127.6 6.2 127.6 6.3 127.7 6.5 C 127.7 6.6 127.8 6.7 127.8 6.8 C 127.9 6.9 128 6.9 128.1 7 C 128.2 7.1 128.3 7.1 128.5 7.1 C 128.7 7.1 128.9 7 129.1 6.9 C 129.3 6.8 129.4 6.7 129.5 6.5 C 129.7 6.3 129.7 6.1 129.8 5.9 C 129.8 5.7 129.9 5.5 129.9 5.2 C 129.9 4.9 129.8 4.7 129.6 4.5 C 129.5 4.4 129.2 4.3 128.9 4.3 C 128.7 4.3 128.5 4.3 128.4 4.4 C 128.2 4.6 128.1 4.7 127.9 4.9 C 127.8 5.1 127.8 5.2 127.7 5.5 C 127.7 5.7 127.6 5.9 127.6 6.1 Z M 130.3 7.7 C 130.2 8 130.1 8.3 130 8.5 C 129.9 8.7 129.8 8.9 129.6 9 C 129.4 9.2 129.2 9.3 129 9.3 C 128.8 9.4 128.5 9.4 128.2 9.4 C 127.9 9.4 127.7 9.4 127.5 9.4 C 127.3 9.3 127.1 9.2 126.9 9.1 C 126.8 9 126.6 8.9 126.5 8.7 C 126.4 8.6 126.4 8.4 126.4 8.1 C 126.4 8.1 127.3 8.1 127.3 8.1 C 127.3 8.4 127.4 8.5 127.6 8.6 C 127.8 8.7 128 8.8 128.2 8.8 C 128.5 8.8 128.6 8.7 128.8 8.7 C 128.9 8.6 129 8.5 129.1 8.4 C 129.2 8.3 129.2 8.2 129.3 8.1 C 129.3 7.9 129.4 7.8 129.4 7.6 C 129.42 7.6 129.5 7.2 129.5 7.2 C 129.5 7.2 129.49 7.18 129.5 7.2 C 129.2 7.6 128.8 7.8 128.3 7.8 C 127.8 7.8 127.4 7.6 127.1 7.3 C 126.9 7 126.7 6.6 126.7 6.1 C 126.7 5.8 126.8 5.5 126.9 5.2 C 126.9 4.9 127.1 4.6 127.3 4.4 C 127.4 4.1 127.7 3.9 127.9 3.8 C 128.2 3.6 128.5 3.6 128.8 3.6 C 129.2 3.6 129.4 3.6 129.6 3.7 C 129.9 3.9 130 4.1 130.1 4.4 C 130.13 4.35 130.1 4.4 130.1 4.4 L 130.3 3.7 L 131.1 3.7 C 131.1 3.7 130.26 7.69 130.3 7.7 Z " stroke="none" fill="#fff"/>
  </g>
</svg>