<?xml version="1.0" standalone="no"?>
<!DOCTYPE svg PUBLIC "-//W3C//DTD SVG 1.1//EN" "http://www.w3.org/Graphics/SVG/1.1/DTD/svg11.dtd">
<svg xmlns="http://www.w3.org/2000/svg" version="1.1" width="454.4px" height="38.8px" viewBox="0 -3 454.4 38.8" style="top:-3px">
  <desc>ITINATAAS ng kababaihan ang kamalayan hinggil sa nararapat na pagkakaroon ng kontrol sa kanilang sariling buhay, at i</desc>
  <defs/>
  <g id="Polygon26142">
    <path d="M 0.4 30.6 C 0.4 30.6 0.7 30.1 0.7 30.1 C 1.2 30.5 1.8 30.7 2.3 30.7 C 2.9 30.7 3.3 30.4 3.3 30 C 3.3 30 3.3 29.9 3.3 29.9 C 3.3 29.5 2.8 29.3 2.2 29.1 C 1.4 28.9 0.6 28.7 0.6 27.8 C 0.6 27.8 0.6 27.8 0.6 27.8 C 0.6 27 1.3 26.5 2.2 26.5 C 2.8 26.5 3.4 26.7 3.9 27 C 3.9 27 3.6 27.5 3.6 27.5 C 3.1 27.2 2.6 27.1 2.2 27.1 C 1.6 27.1 1.3 27.3 1.3 27.7 C 1.3 27.7 1.3 27.7 1.3 27.7 C 1.3 28.2 1.9 28.4 2.5 28.5 C 3.2 28.8 4 29 4 29.9 C 4 29.9 4 29.9 4 29.9 C 4 30.8 3.2 31.3 2.3 31.3 C 1.6 31.3 0.9 31 0.4 30.6 Z M 4.8 29.8 C 4.8 29.8 4.8 29.8 4.8 29.8 C 4.8 28.9 5.6 28.3 6.8 28.3 C 7.4 28.3 7.8 28.4 8.2 28.5 C 8.2 28.5 8.2 28.4 8.2 28.4 C 8.2 27.5 7.7 27.1 6.8 27.1 C 6.3 27.1 5.9 27.2 5.4 27.4 C 5.4 27.4 5.2 26.9 5.2 26.9 C 5.7 26.6 6.2 26.5 6.9 26.5 C 7.6 26.5 8.1 26.7 8.4 27 C 8.7 27.3 8.9 27.8 8.9 28.4 C 8.9 28.36 8.9 31.2 8.9 31.2 L 8.2 31.2 C 8.2 31.2 8.24 30.5 8.2 30.5 C 7.9 30.9 7.4 31.3 6.6 31.3 C 5.7 31.3 4.8 30.8 4.8 29.8 Z M 8.2 29.5 C 8.2 29.5 8.2 29 8.2 29 C 7.9 28.9 7.4 28.8 6.9 28.8 C 6 28.8 5.5 29.2 5.5 29.8 C 5.5 29.8 5.5 29.8 5.5 29.8 C 5.5 30.4 6.1 30.8 6.7 30.8 C 7.5 30.8 8.2 30.2 8.2 29.5 Z M 10.4 24.6 L 11 24.6 L 11 31.2 L 10.4 31.2 L 10.4 24.6 Z M 12.3 28.9 C 12.3 28.9 12.3 28.9 12.3 28.9 C 12.3 27.6 13.3 26.4 14.7 26.4 C 16.1 26.4 17.1 27.5 17.1 28.9 C 17.1 28.9 17.1 28.9 17.1 28.9 C 17.1 30.2 16.1 31.3 14.7 31.3 C 13.3 31.3 12.3 30.2 12.3 28.9 Z M 16.4 28.9 C 16.4 28.9 16.4 28.9 16.4 28.9 C 16.4 27.9 15.7 27.1 14.7 27.1 C 13.7 27.1 13 27.9 13 28.9 C 13 28.9 13 28.9 13 28.9 C 13 29.9 13.7 30.7 14.7 30.7 C 15.7 30.7 16.4 29.9 16.4 28.9 Z M 18 28.9 C 18 28.9 18 28.9 18 28.9 C 18 27.6 19 26.4 20.4 26.4 C 21.8 26.4 22.9 27.5 22.9 28.9 C 22.9 28.9 22.9 28.9 22.9 28.9 C 22.9 30.2 21.8 31.3 20.4 31.3 C 19 31.3 18 30.2 18 28.9 Z M 22.1 28.9 C 22.1 28.9 22.1 28.9 22.1 28.9 C 22.1 27.9 21.4 27.1 20.4 27.1 C 19.4 27.1 18.7 27.9 18.7 28.9 C 18.7 28.9 18.7 28.9 18.7 28.9 C 18.7 29.9 19.4 30.7 20.4 30.7 C 21.4 30.7 22.1 29.9 22.1 28.9 Z M 24.7 30.3 C 24.7 30.31 24.7 31.2 24.7 31.2 L 24 31.2 L 24 24.6 L 24.7 24.6 C 24.7 24.6 24.7 27.48 24.7 27.5 C 25.1 26.9 25.6 26.4 26.5 26.4 C 27.6 26.4 28.7 27.3 28.7 28.9 C 28.7 28.9 28.7 28.9 28.7 28.9 C 28.7 30.4 27.6 31.3 26.5 31.3 C 25.6 31.3 25.1 30.8 24.7 30.3 Z M 28 28.9 C 28 28.9 28 28.9 28 28.9 C 28 27.8 27.2 27.1 26.4 27.1 C 25.5 27.1 24.7 27.8 24.7 28.9 C 24.7 28.9 24.7 28.9 24.7 28.9 C 24.7 30 25.5 30.7 26.4 30.7 C 27.3 30.7 28 30 28 28.9 Z M 29.9 24.8 L 30.7 24.8 L 30.7 25.5 L 29.9 25.5 L 29.9 24.8 Z M 30 26.5 L 30.7 26.5 L 30.7 31.2 L 30 31.2 L 30 26.5 Z M 32.2 26.5 L 32.9 26.5 C 32.9 26.5 32.87 27.36 32.9 27.4 C 33.2 26.9 33.7 26.4 34.5 26.4 C 35.6 26.4 36.2 27.2 36.2 28.3 C 36.24 28.31 36.2 31.2 36.2 31.2 L 35.5 31.2 C 35.5 31.2 35.55 28.48 35.5 28.5 C 35.5 27.6 35.1 27.1 34.3 27.1 C 33.5 27.1 32.9 27.7 32.9 28.5 C 32.87 28.54 32.9 31.2 32.9 31.2 L 32.2 31.2 L 32.2 26.5 Z M 40.2 29.4 C 40.17 29.44 40.2 26.5 40.2 26.5 L 40.9 26.5 C 40.9 26.5 40.86 29.27 40.9 29.3 C 40.9 30.1 41.3 30.7 42.1 30.7 C 42.9 30.7 43.5 30.1 43.5 29.2 C 43.54 29.21 43.5 26.5 43.5 26.5 L 44.2 26.5 L 44.2 31.2 L 43.5 31.2 C 43.5 31.2 43.54 30.39 43.5 30.4 C 43.2 30.9 42.7 31.3 41.9 31.3 C 40.8 31.3 40.2 30.5 40.2 29.4 Z M 45.7 24.6 L 46.4 24.6 L 46.4 29.2 L 48.9 26.5 L 49.8 26.5 L 47.8 28.5 L 49.8 31.2 L 49 31.2 L 47.3 29 L 46.4 30 L 46.4 31.2 L 45.7 31.2 L 45.7 24.6 Z M 50.2 28.9 C 50.2 28.9 50.2 28.9 50.2 28.9 C 50.2 27.6 51.2 26.4 52.6 26.4 C 54 26.4 55.1 27.5 55.1 28.9 C 55.1 28.9 55.1 28.9 55.1 28.9 C 55.1 30.2 54 31.3 52.6 31.3 C 51.2 31.3 50.2 30.2 50.2 28.9 Z M 54.4 28.9 C 54.4 28.9 54.4 28.9 54.4 28.9 C 54.4 27.9 53.6 27.1 52.6 27.1 C 51.6 27.1 50.9 27.9 50.9 28.9 C 50.9 28.9 50.9 28.9 50.9 28.9 C 50.9 29.9 51.7 30.7 52.6 30.7 C 53.6 30.7 54.4 29.9 54.4 28.9 Z M 56.3 24.6 L 57 24.6 L 57 31.2 L 56.3 31.2 L 56.3 24.6 Z M 60.7 30.6 C 60.7 30.6 61.1 30.1 61.1 30.1 C 61.6 30.5 62.1 30.7 62.7 30.7 C 63.2 30.7 63.6 30.4 63.6 30 C 63.6 30 63.6 29.9 63.6 29.9 C 63.6 29.5 63.1 29.3 62.5 29.1 C 61.8 28.9 60.9 28.7 60.9 27.8 C 60.9 27.8 60.9 27.8 60.9 27.8 C 60.9 27 61.6 26.5 62.5 26.5 C 63.1 26.5 63.7 26.7 64.2 27 C 64.2 27 63.9 27.5 63.9 27.5 C 63.5 27.2 63 27.1 62.5 27.1 C 62 27.1 61.6 27.3 61.6 27.7 C 61.6 27.7 61.6 27.7 61.6 27.7 C 61.6 28.2 62.2 28.4 62.8 28.5 C 63.5 28.8 64.3 29 64.3 29.9 C 64.3 29.9 64.3 29.9 64.3 29.9 C 64.3 30.8 63.6 31.3 62.6 31.3 C 62 31.3 61.2 31 60.7 30.6 Z M 65.2 29.8 C 65.2 29.8 65.2 29.8 65.2 29.8 C 65.2 28.9 66 28.3 67.1 28.3 C 67.7 28.3 68.2 28.4 68.6 28.5 C 68.6 28.5 68.6 28.4 68.6 28.4 C 68.6 27.5 68.1 27.1 67.2 27.1 C 66.6 27.1 66.2 27.2 65.8 27.4 C 65.8 27.4 65.6 26.9 65.6 26.9 C 66.1 26.6 66.6 26.5 67.3 26.5 C 67.9 26.5 68.4 26.7 68.8 27 C 69.1 27.3 69.2 27.8 69.2 28.4 C 69.24 28.36 69.2 31.2 69.2 31.2 L 68.6 31.2 C 68.6 31.2 68.57 30.5 68.6 30.5 C 68.2 30.9 67.7 31.3 66.9 31.3 C 66 31.3 65.2 30.8 65.2 29.8 Z M 68.6 29.5 C 68.6 29.5 68.6 29 68.6 29 C 68.2 28.9 67.8 28.8 67.2 28.8 C 66.3 28.8 65.9 29.2 65.9 29.8 C 65.9 29.8 65.9 29.8 65.9 29.8 C 65.9 30.4 66.4 30.8 67 30.8 C 67.9 30.8 68.6 30.2 68.6 29.5 Z M 73.2 24.6 L 73.9 24.6 L 73.9 29.2 L 76.4 26.5 L 77.3 26.5 L 75.3 28.5 L 77.4 31.2 L 76.5 31.2 L 74.9 29 L 73.9 30 L 73.9 31.2 L 73.2 31.2 L 73.2 24.6 Z M 77.8 29.8 C 77.8 29.8 77.8 29.8 77.8 29.8 C 77.8 28.9 78.6 28.3 79.8 28.3 C 80.4 28.3 80.8 28.4 81.2 28.5 C 81.2 28.5 81.2 28.4 81.2 28.4 C 81.2 27.5 80.7 27.1 79.9 27.1 C 79.3 27.1 78.9 27.2 78.4 27.4 C 78.4 27.4 78.2 26.9 78.2 26.9 C 78.7 26.6 79.3 26.5 79.9 26.5 C 80.6 26.5 81.1 26.7 81.4 27 C 81.7 27.3 81.9 27.8 81.9 28.4 C 81.91 28.36 81.9 31.2 81.9 31.2 L 81.2 31.2 C 81.2 31.2 81.24 30.5 81.2 30.5 C 80.9 30.9 80.4 31.3 79.6 31.3 C 78.7 31.3 77.8 30.8 77.8 29.8 Z M 81.3 29.5 C 81.3 29.5 81.3 29 81.3 29 C 80.9 28.9 80.4 28.8 79.9 28.8 C 79 28.8 78.5 29.2 78.5 29.8 C 78.5 29.8 78.5 29.8 78.5 29.8 C 78.5 30.4 79.1 30.8 79.7 30.8 C 80.5 30.8 81.3 30.2 81.3 29.5 Z M 83.3 26.5 L 84 26.5 C 84 26.5 83.99 27.36 84 27.4 C 84.3 26.9 84.8 26.4 85.6 26.4 C 86.7 26.4 87.4 27.2 87.4 28.3 C 87.36 28.31 87.4 31.2 87.4 31.2 L 86.7 31.2 C 86.7 31.2 86.67 28.48 86.7 28.5 C 86.7 27.6 86.2 27.1 85.4 27.1 C 84.6 27.1 84 27.7 84 28.5 C 83.99 28.54 84 31.2 84 31.2 L 83.3 31.2 L 83.3 26.5 Z M 88.8 24.8 L 89.6 24.8 L 89.6 25.5 L 88.8 25.5 L 88.8 24.8 Z M 88.8 26.5 L 89.5 26.5 L 89.5 31.2 L 88.8 31.2 L 88.8 26.5 Z M 91.1 24.6 L 91.8 24.6 L 91.8 31.2 L 91.1 31.2 L 91.1 24.6 Z M 93 29.8 C 93 29.8 93 29.8 93 29.8 C 93 28.9 93.8 28.3 94.9 28.3 C 95.5 28.3 96 28.4 96.4 28.5 C 96.4 28.5 96.4 28.4 96.4 28.4 C 96.4 27.5 95.9 27.1 95 27.1 C 94.4 27.1 94 27.2 93.6 27.4 C 93.6 27.4 93.4 26.9 93.4 26.9 C 93.9 26.6 94.4 26.5 95.1 26.5 C 95.7 26.5 96.2 26.7 96.6 27 C 96.9 27.3 97 27.8 97 28.4 C 97.04 28.36 97 31.2 97 31.2 L 96.4 31.2 C 96.4 31.2 96.37 30.5 96.4 30.5 C 96 30.9 95.5 31.3 94.7 31.3 C 93.8 31.3 93 30.8 93 29.8 Z M 96.4 29.5 C 96.4 29.5 96.4 29 96.4 29 C 96 28.9 95.6 28.8 95 28.8 C 94.1 28.8 93.7 29.2 93.7 29.8 C 93.7 29.8 93.7 29.8 93.7 29.8 C 93.7 30.4 94.2 30.8 94.8 30.8 C 95.7 30.8 96.4 30.2 96.4 29.5 Z M 98.4 26.5 L 99.1 26.5 C 99.1 26.5 99.11 27.36 99.1 27.4 C 99.4 26.9 99.9 26.4 100.7 26.4 C 101.8 26.4 102.5 27.2 102.5 28.3 C 102.49 28.31 102.5 31.2 102.5 31.2 L 101.8 31.2 C 101.8 31.2 101.8 28.48 101.8 28.5 C 101.8 27.6 101.3 27.1 100.5 27.1 C 99.7 27.1 99.1 27.7 99.1 28.5 C 99.11 28.54 99.1 31.2 99.1 31.2 L 98.4 31.2 L 98.4 26.5 Z M 103.8 32 C 103.8 32 104.1 31.5 104.1 31.5 C 104.7 31.9 105.3 32.1 105.9 32.1 C 107 32.1 107.6 31.5 107.6 30.4 C 107.6 30.4 107.6 29.9 107.6 29.9 C 107.2 30.4 106.6 30.8 105.8 30.8 C 104.7 30.8 103.6 30 103.6 28.7 C 103.6 28.7 103.6 28.6 103.6 28.6 C 103.6 27.3 104.7 26.4 105.8 26.4 C 106.7 26.4 107.2 26.9 107.6 27.4 C 107.61 27.38 107.6 26.5 107.6 26.5 L 108.3 26.5 C 108.3 26.5 108.3 30.39 108.3 30.4 C 108.3 31.1 108.1 31.7 107.7 32 C 107.3 32.5 106.7 32.7 105.9 32.7 C 105.2 32.7 104.4 32.4 103.8 32 Z M 107.6 28.7 C 107.6 28.7 107.6 28.6 107.6 28.6 C 107.6 27.7 106.8 27.1 105.9 27.1 C 105 27.1 104.3 27.7 104.3 28.6 C 104.3 28.6 104.3 28.6 104.3 28.6 C 104.3 29.6 105.1 30.2 105.9 30.2 C 106.8 30.2 107.6 29.6 107.6 28.7 Z M 112.1 28.9 C 112.1 28.9 112.1 28.9 112.1 28.9 C 112.1 27.3 113.2 26.4 114.3 26.4 C 115.2 26.4 115.7 26.9 116.1 27.4 C 116.11 27.44 116.1 24.6 116.1 24.6 L 116.8 24.6 L 116.8 31.2 L 116.1 31.2 C 116.1 31.2 116.11 30.26 116.1 30.3 C 115.7 30.8 115.2 31.3 114.3 31.3 C 113.2 31.3 112.1 30.4 112.1 28.9 Z M 116.1 28.9 C 116.1 28.9 116.1 28.9 116.1 28.9 C 116.1 27.8 115.3 27.1 114.5 27.1 C 113.6 27.1 112.8 27.7 112.8 28.9 C 112.8 28.9 112.8 28.9 112.8 28.9 C 112.8 30 113.6 30.7 114.5 30.7 C 115.3 30.7 116.1 29.9 116.1 28.9 Z M 118 28.9 C 118 28.9 118 28.9 118 28.9 C 118 27.5 118.9 26.4 120.2 26.4 C 121.6 26.4 122.4 27.5 122.4 28.9 C 122.4 29 122.4 29 122.4 29.1 C 122.4 29.1 118.7 29.1 118.7 29.1 C 118.8 30.1 119.5 30.7 120.3 30.7 C 120.9 30.7 121.4 30.4 121.8 30 C 121.8 30 122.2 30.4 122.2 30.4 C 121.7 31 121.2 31.3 120.3 31.3 C 119 31.3 118 30.3 118 28.9 Z M 121.7 28.6 C 121.6 27.8 121.1 27 120.2 27 C 119.4 27 118.8 27.7 118.7 28.6 C 118.7 28.6 121.7 28.6 121.7 28.6 Z M 123.1 30.6 C 123.1 30.6 123.5 30.1 123.5 30.1 C 124 30.5 124.5 30.7 125.1 30.7 C 125.6 30.7 126 30.4 126 30 C 126 30 126 29.9 126 29.9 C 126 29.5 125.5 29.3 124.9 29.1 C 124.1 28.9 123.3 28.7 123.3 27.8 C 123.3 27.8 123.3 27.8 123.3 27.8 C 123.3 27 124 26.5 124.9 26.5 C 125.5 26.5 126.1 26.7 126.6 27 C 126.6 27 126.3 27.5 126.3 27.5 C 125.8 27.2 125.3 27.1 124.9 27.1 C 124.4 27.1 124 27.3 124 27.7 C 124 27.7 124 27.7 124 27.7 C 124 28.2 124.6 28.4 125.2 28.5 C 125.9 28.8 126.7 29 126.7 29.9 C 126.7 29.9 126.7 29.9 126.7 29.9 C 126.7 30.8 126 31.3 125 31.3 C 124.4 31.3 123.6 31 123.1 30.6 Z M 127.9 24.8 L 128.7 24.8 L 128.7 25.5 L 127.9 25.5 L 127.9 24.8 Z M 128 26.5 L 128.6 26.5 L 128.6 31.2 L 128 31.2 L 128 26.5 Z M 129.8 30.6 C 129.8 30.6 130.1 30.1 130.1 30.1 C 130.6 30.5 131.2 30.7 131.7 30.7 C 132.3 30.7 132.7 30.4 132.7 30 C 132.7 30 132.7 29.9 132.7 29.9 C 132.7 29.5 132.2 29.3 131.5 29.1 C 130.8 28.9 130 28.7 130 27.8 C 130 27.8 130 27.8 130 27.8 C 130 27 130.7 26.5 131.6 26.5 C 132.2 26.5 132.8 26.7 133.3 27 C 133.3 27 132.9 27.5 132.9 27.5 C 132.5 27.2 132 27.1 131.6 27.1 C 131 27.1 130.7 27.3 130.7 27.7 C 130.7 27.7 130.7 27.7 130.7 27.7 C 130.7 28.2 131.2 28.4 131.9 28.5 C 132.6 28.8 133.4 29 133.4 29.9 C 133.4 29.9 133.4 29.9 133.4 29.9 C 133.4 30.8 132.6 31.3 131.7 31.3 C 131 31.3 130.3 31 129.8 30.6 Z M 137.9 26.5 L 138.6 26.5 C 138.6 26.5 136.69 31.35 136.7 31.4 C 136.3 32.3 135.8 32.7 135.1 32.7 C 134.8 32.7 134.5 32.6 134.2 32.4 C 134.2 32.4 134.4 31.9 134.4 31.9 C 134.6 32 134.8 32.1 135.1 32.1 C 135.5 32.1 135.8 31.8 136.1 31.2 C 136.07 31.18 134 26.5 134 26.5 L 134.7 26.5 L 136.4 30.4 L 137.9 26.5 Z M 139.1 28.9 C 139.1 28.9 139.1 28.9 139.1 28.9 C 139.1 27.6 140.1 26.4 141.5 26.4 C 142.9 26.4 143.9 27.5 143.9 28.9 C 143.9 28.9 143.9 28.9 143.9 28.9 C 143.9 30.2 142.9 31.3 141.5 31.3 C 140.1 31.3 139.1 30.2 139.1 28.9 Z M 143.2 28.9 C 143.2 28.9 143.2 28.9 143.2 28.9 C 143.2 27.9 142.5 27.1 141.5 27.1 C 140.5 27.1 139.8 27.9 139.8 28.9 C 139.8 28.9 139.8 28.9 139.8 28.9 C 139.8 29.9 140.5 30.7 141.5 30.7 C 142.5 30.7 143.2 29.9 143.2 28.9 Z M 145.1 26.5 L 145.8 26.5 C 145.8 26.5 145.8 27.36 145.8 27.4 C 146.1 26.9 146.6 26.4 147.4 26.4 C 148.5 26.4 149.2 27.2 149.2 28.3 C 149.17 28.31 149.2 31.2 149.2 31.2 L 148.5 31.2 C 148.5 31.2 148.48 28.48 148.5 28.5 C 148.5 27.6 148 27.1 147.2 27.1 C 146.4 27.1 145.8 27.7 145.8 28.5 C 145.8 28.54 145.8 31.2 145.8 31.2 L 145.1 31.2 L 145.1 26.5 Z M 150.5 32 C 150.5 32 150.8 31.5 150.8 31.5 C 151.3 31.9 151.9 32.1 152.6 32.1 C 153.6 32.1 154.3 31.5 154.3 30.4 C 154.3 30.4 154.3 29.9 154.3 29.9 C 153.9 30.4 153.3 30.8 152.5 30.8 C 151.4 30.8 150.3 30 150.3 28.7 C 150.3 28.7 150.3 28.6 150.3 28.6 C 150.3 27.3 151.4 26.4 152.5 26.4 C 153.3 26.4 153.9 26.9 154.3 27.4 C 154.29 27.38 154.3 26.5 154.3 26.5 L 155 26.5 C 155 26.5 154.99 30.39 155 30.4 C 155 31.1 154.8 31.7 154.4 32 C 154 32.5 153.4 32.7 152.6 32.7 C 151.8 32.7 151.1 32.4 150.5 32 Z M 154.3 28.7 C 154.3 28.7 154.3 28.6 154.3 28.6 C 154.3 27.7 153.5 27.1 152.6 27.1 C 151.7 27.1 151 27.7 151 28.6 C 151 28.6 151 28.6 151 28.6 C 151 29.6 151.7 30.2 152.6 30.2 C 153.5 30.2 154.3 29.6 154.3 28.7 Z M 159.1 24.6 L 159.7 24.6 C 159.7 24.6 159.75 27.36 159.7 27.4 C 160.1 26.9 160.5 26.4 161.3 26.4 C 162.5 26.4 163.1 27.2 163.1 28.3 C 163.12 28.31 163.1 31.2 163.1 31.2 L 162.4 31.2 C 162.4 31.2 162.43 28.48 162.4 28.5 C 162.4 27.6 162 27.1 161.1 27.1 C 160.3 27.1 159.7 27.7 159.7 28.5 C 159.75 28.54 159.7 31.2 159.7 31.2 L 159.1 31.2 L 159.1 24.6 Z M 164.5 24.8 L 165.3 24.8 L 165.3 25.5 L 164.5 25.5 L 164.5 24.8 Z M 164.6 26.5 L 165.3 26.5 L 165.3 31.2 L 164.6 31.2 L 164.6 26.5 Z M 166.8 26.5 L 167.5 26.5 C 167.5 26.5 167.48 27.36 167.5 27.4 C 167.8 26.9 168.3 26.4 169.1 26.4 C 170.2 26.4 170.9 27.2 170.9 28.3 C 170.85 28.31 170.9 31.2 170.9 31.2 L 170.2 31.2 C 170.2 31.2 170.16 28.48 170.2 28.5 C 170.2 27.6 169.7 27.1 168.9 27.1 C 168.1 27.1 167.5 27.7 167.5 28.5 C 167.48 28.54 167.5 31.2 167.5 31.2 L 166.8 31.2 L 166.8 26.5 Z M 172 28.9 C 172 28.9 172 28.9 172 28.9 C 172 27.3 173.1 26.4 174.2 26.4 C 175.1 26.4 175.6 26.9 176 27.4 C 175.97 27.44 176 24.6 176 24.6 L 176.7 24.6 L 176.7 31.2 L 176 31.2 C 176 31.2 175.97 30.26 176 30.3 C 175.6 30.8 175 31.3 174.2 31.3 C 173.1 31.3 172 30.4 172 28.9 Z M 176 28.9 C 176 28.9 176 28.9 176 28.9 C 176 27.8 175.2 27.1 174.3 27.1 C 173.4 27.1 172.7 27.7 172.7 28.9 C 172.7 28.9 172.7 28.9 172.7 28.9 C 172.7 30 173.4 30.7 174.3 30.7 C 175.2 30.7 176 29.9 176 28.9 Z M 178.1 24.8 L 178.9 24.8 L 178.9 25.5 L 178.1 25.5 L 178.1 24.8 Z M 178.2 26.5 L 178.9 26.5 L 178.9 31.2 L 178.2 31.2 L 178.2 26.5 Z M 183 26.5 L 183.7 26.5 C 183.7 26.5 183.7 27.33 183.7 27.3 C 184 26.9 184.4 26.4 185.2 26.4 C 186 26.4 186.4 26.9 186.7 27.4 C 187 26.9 187.5 26.4 188.3 26.4 C 189.4 26.4 190.1 27.2 190.1 28.3 C 190.07 28.32 190.1 31.2 190.1 31.2 L 189.4 31.2 C 189.4 31.2 189.37 28.48 189.4 28.5 C 189.4 27.6 188.9 27.1 188.2 27.1 C 187.5 27.1 186.9 27.6 186.9 28.5 C 186.89 28.52 186.9 31.2 186.9 31.2 L 186.2 31.2 C 186.2 31.2 186.2 28.46 186.2 28.5 C 186.2 27.6 185.7 27.1 185 27.1 C 184.3 27.1 183.7 27.7 183.7 28.5 C 183.7 28.54 183.7 31.2 183.7 31.2 L 183 31.2 L 183 26.5 Z M 191.1 29.8 C 191.1 29.8 191.1 29.8 191.1 29.8 C 191.1 28.9 191.9 28.3 193.1 28.3 C 193.7 28.3 194.1 28.4 194.5 28.5 C 194.5 28.5 194.5 28.4 194.5 28.4 C 194.5 27.5 194 27.1 193.2 27.1 C 192.6 27.1 192.2 27.2 191.7 27.4 C 191.7 27.4 191.5 26.9 191.5 26.9 C 192.1 26.6 192.6 26.5 193.2 26.5 C 193.9 26.5 194.4 26.7 194.7 27 C 195.1 27.3 195.2 27.8 195.2 28.4 C 195.21 28.36 195.2 31.2 195.2 31.2 L 194.5 31.2 C 194.5 31.2 194.55 30.5 194.5 30.5 C 194.2 30.9 193.7 31.3 192.9 31.3 C 192 31.3 191.1 30.8 191.1 29.8 Z M 194.6 29.5 C 194.6 29.5 194.6 29 194.6 29 C 194.2 28.9 193.8 28.8 193.2 28.8 C 192.3 28.8 191.8 29.2 191.8 29.8 C 191.8 29.8 191.8 29.8 191.8 29.8 C 191.8 30.4 192.4 30.8 193 30.8 C 193.9 30.8 194.6 30.2 194.6 29.5 Z M 196.5 32 C 196.5 32 196.9 31.5 196.9 31.5 C 197.4 31.9 198 32.1 198.7 32.1 C 199.7 32.1 200.3 31.5 200.3 30.4 C 200.3 30.4 200.3 29.9 200.3 29.9 C 199.9 30.4 199.4 30.8 198.5 30.8 C 197.4 30.8 196.3 30 196.3 28.7 C 196.3 28.7 196.3 28.6 196.3 28.6 C 196.3 27.3 197.4 26.4 198.5 26.4 C 199.4 26.4 200 26.9 200.3 27.4 C 200.34 27.38 200.3 26.5 200.3 26.5 L 201 26.5 C 201 26.5 201.03 30.39 201 30.4 C 201 31.1 200.8 31.7 200.4 32 C 200 32.5 199.4 32.7 198.7 32.7 C 197.9 32.7 197.2 32.4 196.5 32 Z M 200.4 28.7 C 200.4 28.7 200.4 28.6 200.4 28.6 C 200.4 27.7 199.5 27.1 198.7 27.1 C 197.8 27.1 197 27.7 197 28.6 C 197 28.6 197 28.6 197 28.6 C 197 29.6 197.8 30.2 198.7 30.2 C 199.5 30.2 200.4 29.6 200.4 28.7 Z M 202.5 24.6 L 203.2 24.6 L 203.2 29.2 L 205.7 26.5 L 206.6 26.5 L 204.6 28.5 L 206.6 31.2 L 205.8 31.2 L 204.1 29 L 203.2 30 L 203.2 31.2 L 202.5 31.2 L 202.5 24.6 Z M 207.1 29.8 C 207.1 29.8 207.1 29.8 207.1 29.8 C 207.1 28.9 207.9 28.3 209.1 28.3 C 209.7 28.3 210.1 28.4 210.5 28.5 C 210.5 28.5 210.5 28.4 210.5 28.4 C 210.5 27.5 210 27.1 209.1 27.1 C 208.6 27.1 208.1 27.2 207.7 27.4 C 207.7 27.4 207.5 26.9 207.5 26.9 C 208 26.6 208.5 26.5 209.2 26.5 C 209.8 26.5 210.3 26.7 210.7 27 C 211 27.3 211.2 27.8 211.2 28.4 C 211.16 28.36 211.2 31.2 211.2 31.2 L 210.5 31.2 C 210.5 31.2 210.5 30.5 210.5 30.5 C 210.2 30.9 209.6 31.3 208.8 31.3 C 207.9 31.3 207.1 30.8 207.1 29.8 Z M 210.5 29.5 C 210.5 29.5 210.5 29 210.5 29 C 210.2 28.9 209.7 28.8 209.1 28.8 C 208.3 28.8 207.8 29.2 207.8 29.8 C 207.8 29.8 207.8 29.8 207.8 29.8 C 207.8 30.4 208.3 30.8 208.9 30.8 C 209.8 30.8 210.5 30.2 210.5 29.5 Z M 212.5 26.5 L 213.2 26.5 C 213.2 26.5 213.24 27.76 213.2 27.8 C 213.6 27 214.3 26.4 215.1 26.5 C 215.14 26.47 215.1 27.2 215.1 27.2 C 215.1 27.2 215.09 27.21 215.1 27.2 C 214.1 27.2 213.2 27.9 213.2 29.3 C 213.24 29.35 213.2 31.2 213.2 31.2 L 212.5 31.2 L 212.5 26.5 Z M 215.6 28.9 C 215.6 28.9 215.6 28.9 215.6 28.9 C 215.6 27.6 216.6 26.4 218 26.4 C 219.4 26.4 220.5 27.5 220.5 28.9 C 220.5 28.9 220.5 28.9 220.5 28.9 C 220.5 30.2 219.4 31.3 218 31.3 C 216.6 31.3 215.6 30.2 215.6 28.9 Z M 219.8 28.9 C 219.8 28.9 219.8 28.9 219.8 28.9 C 219.8 27.9 219 27.1 218 27.1 C 217 27.1 216.3 27.9 216.3 28.9 C 216.3 28.9 216.3 28.9 216.3 28.9 C 216.3 29.9 217.1 30.7 218 30.7 C 219.1 30.7 219.8 29.9 219.8 28.9 Z M 221.3 28.9 C 221.3 28.9 221.3 28.9 221.3 28.9 C 221.3 27.6 222.4 26.4 223.8 26.4 C 225.2 26.4 226.2 27.5 226.2 28.9 C 226.2 28.9 226.2 28.9 226.2 28.9 C 226.2 30.2 225.2 31.3 223.8 31.3 C 222.4 31.3 221.3 30.2 221.3 28.9 Z M 225.5 28.9 C 225.5 28.9 225.5 28.9 225.5 28.9 C 225.5 27.9 224.7 27.1 223.8 27.1 C 222.7 27.1 222.1 27.9 222.1 28.9 C 222.1 28.9 222.1 28.9 222.1 28.9 C 222.1 29.9 222.8 30.7 223.8 30.7 C 224.8 30.7 225.5 29.9 225.5 28.9 Z M 227.4 26.5 L 228 26.5 C 228 26.5 228.05 27.36 228 27.4 C 228.4 26.9 228.8 26.4 229.6 26.4 C 230.8 26.4 231.4 27.2 231.4 28.3 C 231.42 28.31 231.4 31.2 231.4 31.2 L 230.7 31.2 C 230.7 31.2 230.73 28.48 230.7 28.5 C 230.7 27.6 230.3 27.1 229.4 27.1 C 228.6 27.1 228 27.7 228 28.5 C 228.05 28.54 228 31.2 228 31.2 L 227.4 31.2 L 227.4 26.5 Z M 235.4 26.5 L 236.1 26.5 C 236.1 26.5 236.11 27.36 236.1 27.4 C 236.4 26.9 236.9 26.4 237.7 26.4 C 238.8 26.4 239.5 27.2 239.5 28.3 C 239.49 28.31 239.5 31.2 239.5 31.2 L 238.8 31.2 C 238.8 31.2 238.79 28.48 238.8 28.5 C 238.8 27.6 238.3 27.1 237.5 27.1 C 236.7 27.1 236.1 27.7 236.1 28.5 C 236.11 28.54 236.1 31.2 236.1 31.2 L 235.4 31.2 L 235.4 26.5 Z M 240.8 32 C 240.8 32 241.1 31.5 241.1 31.5 C 241.7 31.9 242.3 32.1 242.9 32.1 C 244 32.1 244.6 31.5 244.6 30.4 C 244.6 30.4 244.6 29.9 244.6 29.9 C 244.2 30.4 243.6 30.8 242.8 30.8 C 241.7 30.8 240.6 30 240.6 28.7 C 240.6 28.7 240.6 28.6 240.6 28.6 C 240.6 27.3 241.7 26.4 242.8 26.4 C 243.7 26.4 244.2 26.9 244.6 27.4 C 244.61 27.38 244.6 26.5 244.6 26.5 L 245.3 26.5 C 245.3 26.5 245.3 30.39 245.3 30.4 C 245.3 31.1 245.1 31.7 244.7 32 C 244.3 32.5 243.7 32.7 242.9 32.7 C 242.2 32.7 241.4 32.4 240.8 32 Z M 244.6 28.7 C 244.6 28.7 244.6 28.6 244.6 28.6 C 244.6 27.7 243.8 27.1 242.9 27.1 C 242 27.1 241.3 27.7 241.3 28.6 C 241.3 28.6 241.3 28.6 241.3 28.6 C 241.3 29.6 242.1 30.2 242.9 30.2 C 243.8 30.2 244.6 29.6 244.6 28.7 Z M 249 29.8 C 249 29.8 249 29.8 249 29.8 C 249 28.9 249.8 28.3 251 28.3 C 251.6 28.3 252 28.4 252.4 28.5 C 252.4 28.5 252.4 28.4 252.4 28.4 C 252.4 27.5 251.9 27.1 251.1 27.1 C 250.5 27.1 250.1 27.2 249.6 27.4 C 249.6 27.4 249.4 26.9 249.4 26.9 C 249.9 26.6 250.4 26.5 251.1 26.5 C 251.8 26.5 252.3 26.7 252.6 27 C 252.9 27.3 253.1 27.8 253.1 28.4 C 253.1 28.36 253.1 31.2 253.1 31.2 L 252.4 31.2 C 252.4 31.2 252.44 30.5 252.4 30.5 C 252.1 30.9 251.6 31.3 250.8 31.3 C 249.9 31.3 249 30.8 249 29.8 Z M 252.4 29.5 C 252.4 29.5 252.4 29 252.4 29 C 252.1 28.9 251.6 28.8 251.1 28.8 C 250.2 28.8 249.7 29.2 249.7 29.8 C 249.7 29.8 249.7 29.8 249.7 29.8 C 249.7 30.4 250.3 30.8 250.9 30.8 C 251.7 30.8 252.4 30.2 252.4 29.5 Z M 254.5 26.5 L 255.2 26.5 C 255.2 26.5 255.18 27.36 255.2 27.4 C 255.5 26.9 256 26.4 256.8 26.4 C 257.9 26.4 258.6 27.2 258.6 28.3 C 258.56 28.31 258.6 31.2 258.6 31.2 L 257.9 31.2 C 257.9 31.2 257.86 28.48 257.9 28.5 C 257.9 27.6 257.4 27.1 256.6 27.1 C 255.8 27.1 255.2 27.7 255.2 28.5 C 255.18 28.54 255.2 31.2 255.2 31.2 L 254.5 31.2 L 254.5 26.5 Z M 259.6 29.8 C 259.6 29.8 259.6 29.8 259.6 29.8 C 259.6 28.9 260.4 28.3 261.6 28.3 C 262.2 28.3 262.6 28.4 263 28.5 C 263 28.5 263 28.4 263 28.4 C 263 27.5 262.5 27.1 261.6 27.1 C 261.1 27.1 260.6 27.2 260.2 27.4 C 260.2 27.4 260 26.9 260 26.9 C 260.5 26.6 261 26.5 261.7 26.5 C 262.4 26.5 262.9 26.7 263.2 27 C 263.5 27.3 263.7 27.8 263.7 28.4 C 263.68 28.36 263.7 31.2 263.7 31.2 L 263 31.2 C 263 31.2 263.01 30.5 263 30.5 C 262.7 30.9 262.1 31.3 261.3 31.3 C 260.5 31.3 259.6 30.8 259.6 29.8 Z M 263 29.5 C 263 29.5 263 29 263 29 C 262.7 28.9 262.2 28.8 261.7 28.8 C 260.8 28.8 260.3 29.2 260.3 29.8 C 260.3 29.8 260.3 29.8 260.3 29.8 C 260.3 30.4 260.8 30.8 261.5 30.8 C 262.3 30.8 263 30.2 263 29.5 Z M 265.1 24.6 L 265.8 24.6 L 265.8 29.2 L 268.3 26.5 L 269.1 26.5 L 267.2 28.5 L 269.2 31.2 L 268.4 31.2 L 266.7 29 L 265.8 30 L 265.8 31.2 L 265.1 31.2 L 265.1 24.6 Z M 270 30.3 L 270.8 30.3 L 270.8 31.2 L 270 31.2 L 270 30.3 Z " stroke="none" fill="#fff"/>
  </g>
  <g id="Polygon26141">
    <path d="M 0.4 18.6 C 0.4 18.6 0.7 18.1 0.7 18.1 C 1.2 18.5 1.8 18.7 2.3 18.7 C 2.9 18.7 3.3 18.4 3.3 18 C 3.3 18 3.3 17.9 3.3 17.9 C 3.3 17.5 2.8 17.3 2.2 17.1 C 1.4 16.9 0.6 16.7 0.6 15.8 C 0.6 15.8 0.6 15.8 0.6 15.8 C 0.6 15 1.3 14.5 2.2 14.5 C 2.8 14.5 3.4 14.7 3.9 15 C 3.9 15 3.6 15.5 3.6 15.5 C 3.1 15.2 2.6 15.1 2.2 15.1 C 1.6 15.1 1.3 15.3 1.3 15.7 C 1.3 15.7 1.3 15.7 1.3 15.7 C 1.3 16.2 1.9 16.4 2.5 16.5 C 3.2 16.8 4 17 4 17.9 C 4 17.9 4 17.9 4 17.9 C 4 18.8 3.2 19.3 2.3 19.3 C 1.6 19.3 0.9 19 0.4 18.6 Z M 4.8 17.8 C 4.8 17.8 4.8 17.8 4.8 17.8 C 4.8 16.9 5.6 16.3 6.8 16.3 C 7.4 16.3 7.8 16.4 8.2 16.5 C 8.2 16.5 8.2 16.4 8.2 16.4 C 8.2 15.5 7.7 15.1 6.8 15.1 C 6.3 15.1 5.9 15.2 5.4 15.4 C 5.4 15.4 5.2 14.9 5.2 14.9 C 5.7 14.6 6.2 14.5 6.9 14.5 C 7.6 14.5 8.1 14.7 8.4 15 C 8.7 15.3 8.9 15.8 8.9 16.4 C 8.9 16.36 8.9 19.2 8.9 19.2 L 8.2 19.2 C 8.2 19.2 8.24 18.5 8.2 18.5 C 7.9 18.9 7.4 19.3 6.6 19.3 C 5.7 19.3 4.8 18.8 4.8 17.8 Z M 8.2 17.5 C 8.2 17.5 8.2 17 8.2 17 C 7.9 16.9 7.4 16.8 6.9 16.8 C 6 16.8 5.5 17.2 5.5 17.8 C 5.5 17.8 5.5 17.8 5.5 17.8 C 5.5 18.4 6.1 18.8 6.7 18.8 C 7.5 18.8 8.2 18.2 8.2 17.5 Z M 10.3 14.5 L 11 14.5 C 11 14.5 10.98 15.76 11 15.8 C 11.3 15 12 14.4 12.9 14.5 C 12.88 14.47 12.9 15.2 12.9 15.2 C 12.9 15.2 12.82 15.21 12.8 15.2 C 11.8 15.2 11 15.9 11 17.3 C 10.98 17.35 11 19.2 11 19.2 L 10.3 19.2 L 10.3 14.5 Z M 13.9 12.8 L 14.7 12.8 L 14.7 13.5 L 13.9 13.5 L 13.9 12.8 Z M 13.9 14.5 L 14.6 14.5 L 14.6 19.2 L 13.9 19.2 L 13.9 14.5 Z M 16.2 12.6 L 16.9 12.6 L 16.9 19.2 L 16.2 19.2 L 16.2 12.6 Z M 18.4 12.8 L 19.2 12.8 L 19.2 13.5 L 18.4 13.5 L 18.4 12.8 Z M 18.5 14.5 L 19.2 14.5 L 19.2 19.2 L 18.5 19.2 L 18.5 14.5 Z M 20.7 14.5 L 21.4 14.5 C 21.4 14.5 21.36 15.36 21.4 15.4 C 21.7 14.9 22.2 14.4 23 14.4 C 24.1 14.4 24.7 15.2 24.7 16.3 C 24.74 16.31 24.7 19.2 24.7 19.2 L 24 19.2 C 24 19.2 24.05 16.48 24 16.5 C 24 15.6 23.6 15.1 22.8 15.1 C 22 15.1 21.4 15.7 21.4 16.5 C 21.36 16.54 21.4 19.2 21.4 19.2 L 20.7 19.2 L 20.7 14.5 Z M 26.1 20 C 26.1 20 26.4 19.5 26.4 19.5 C 26.9 19.9 27.5 20.1 28.2 20.1 C 29.2 20.1 29.9 19.5 29.9 18.4 C 29.9 18.4 29.9 17.9 29.9 17.9 C 29.5 18.4 28.9 18.8 28 18.8 C 26.9 18.8 25.9 18 25.9 16.7 C 25.9 16.7 25.9 16.6 25.9 16.6 C 25.9 15.3 26.9 14.4 28 14.4 C 28.9 14.4 29.5 14.9 29.9 15.4 C 29.86 15.38 29.9 14.5 29.9 14.5 L 30.6 14.5 C 30.6 14.5 30.55 18.39 30.6 18.4 C 30.6 19.1 30.3 19.7 30 20 C 29.5 20.5 28.9 20.7 28.2 20.7 C 27.4 20.7 26.7 20.4 26.1 20 Z M 29.9 16.7 C 29.9 16.7 29.9 16.6 29.9 16.6 C 29.9 15.7 29.1 15.1 28.2 15.1 C 27.3 15.1 26.6 15.7 26.6 16.6 C 26.6 16.6 26.6 16.6 26.6 16.6 C 26.6 17.6 27.3 18.2 28.2 18.2 C 29.1 18.2 29.9 17.6 29.9 16.7 Z M 37.1 18.3 C 37.09 18.31 37.1 19.2 37.1 19.2 L 36.4 19.2 L 36.4 12.6 L 37.1 12.6 C 37.1 12.6 37.09 15.48 37.1 15.5 C 37.5 14.9 38 14.4 38.9 14.4 C 40 14.4 41.1 15.3 41.1 16.9 C 41.1 16.9 41.1 16.9 41.1 16.9 C 41.1 18.4 40 19.3 38.9 19.3 C 38 19.3 37.4 18.8 37.1 18.3 Z M 40.4 16.9 C 40.4 16.9 40.4 16.9 40.4 16.9 C 40.4 15.8 39.6 15.1 38.7 15.1 C 37.9 15.1 37.1 15.8 37.1 16.9 C 37.1 16.9 37.1 16.9 37.1 16.9 C 37.1 18 37.9 18.7 38.7 18.7 C 39.6 18.7 40.4 18 40.4 16.9 Z M 42.2 17.4 C 42.21 17.44 42.2 14.5 42.2 14.5 L 42.9 14.5 C 42.9 14.5 42.9 17.27 42.9 17.3 C 42.9 18.1 43.4 18.7 44.2 18.7 C 45 18.7 45.6 18.1 45.6 17.2 C 45.58 17.21 45.6 14.5 45.6 14.5 L 46.3 14.5 L 46.3 19.2 L 45.6 19.2 C 45.6 19.2 45.58 18.39 45.6 18.4 C 45.3 18.9 44.8 19.3 44 19.3 C 42.9 19.3 42.2 18.5 42.2 17.4 Z M 47.7 12.6 L 48.4 12.6 C 48.4 12.6 48.43 15.36 48.4 15.4 C 48.7 14.9 49.2 14.4 50 14.4 C 51.1 14.4 51.8 15.2 51.8 16.3 C 51.8 16.31 51.8 19.2 51.8 19.2 L 51.1 19.2 C 51.1 19.2 51.11 16.48 51.1 16.5 C 51.1 15.6 50.6 15.1 49.8 15.1 C 49 15.1 48.4 15.7 48.4 16.5 C 48.43 16.54 48.4 19.2 48.4 19.2 L 47.7 19.2 L 47.7 12.6 Z M 52.8 17.8 C 52.8 17.8 52.8 17.8 52.8 17.8 C 52.8 16.9 53.6 16.3 54.8 16.3 C 55.4 16.3 55.8 16.4 56.3 16.5 C 56.3 16.5 56.3 16.4 56.3 16.4 C 56.3 15.5 55.7 15.1 54.9 15.1 C 54.3 15.1 53.9 15.2 53.5 15.4 C 53.5 15.4 53.3 14.9 53.3 14.9 C 53.8 14.6 54.3 14.5 54.9 14.5 C 55.6 14.5 56.1 14.7 56.4 15 C 56.8 15.3 56.9 15.8 56.9 16.4 C 56.92 16.36 56.9 19.2 56.9 19.2 L 56.3 19.2 C 56.3 19.2 56.26 18.5 56.3 18.5 C 55.9 18.9 55.4 19.3 54.6 19.3 C 53.7 19.3 52.8 18.8 52.8 17.8 Z M 56.3 17.5 C 56.3 17.5 56.3 17 56.3 17 C 55.9 16.9 55.5 16.8 54.9 16.8 C 54 16.8 53.5 17.2 53.5 17.8 C 53.5 17.8 53.5 17.8 53.5 17.8 C 53.5 18.4 54.1 18.8 54.7 18.8 C 55.6 18.8 56.3 18.2 56.3 17.5 Z M 61.6 14.5 L 62.3 14.5 C 62.3 14.5 60.4 19.35 60.4 19.4 C 60 20.3 59.6 20.7 58.8 20.7 C 58.5 20.7 58.2 20.6 57.9 20.4 C 57.9 20.4 58.1 19.9 58.1 19.9 C 58.3 20 58.5 20.1 58.8 20.1 C 59.2 20.1 59.5 19.8 59.8 19.2 C 59.78 19.18 57.7 14.5 57.7 14.5 L 58.4 14.5 L 60.1 18.4 L 61.6 14.5 Z M 62.2 20 C 62.7 19.8 62.9 19.6 62.8 19.2 C 62.84 19.2 62.5 19.2 62.5 19.2 L 62.5 18.3 L 63.3 18.3 C 63.3 18.3 63.34 19.06 63.3 19.1 C 63.3 19.8 63 20.1 62.3 20.3 C 62.3 20.3 62.2 20 62.2 20 Z M 68.7 17.8 C 68.7 17.8 68.7 17.8 68.7 17.8 C 68.7 16.9 69.5 16.3 70.7 16.3 C 71.3 16.3 71.7 16.4 72.2 16.5 C 72.2 16.5 72.2 16.4 72.2 16.4 C 72.2 15.5 71.6 15.1 70.8 15.1 C 70.2 15.1 69.8 15.2 69.4 15.4 C 69.4 15.4 69.2 14.9 69.2 14.9 C 69.7 14.6 70.2 14.5 70.8 14.5 C 71.5 14.5 72 14.7 72.3 15 C 72.7 15.3 72.8 15.8 72.8 16.4 C 72.82 16.36 72.8 19.2 72.8 19.2 L 72.2 19.2 C 72.2 19.2 72.16 18.5 72.2 18.5 C 71.8 18.9 71.3 19.3 70.5 19.3 C 69.6 19.3 68.7 18.8 68.7 17.8 Z M 72.2 17.5 C 72.2 17.5 72.2 17 72.2 17 C 71.8 16.9 71.4 16.8 70.8 16.8 C 69.9 16.8 69.4 17.2 69.4 17.8 C 69.4 17.8 69.4 17.8 69.4 17.8 C 69.4 18.4 70 18.8 70.6 18.8 C 71.5 18.8 72.2 18.2 72.2 17.5 Z M 74.4 18 C 74.41 17.97 74.4 15.2 74.4 15.2 L 73.8 15.2 L 73.8 14.5 L 74.4 14.5 L 74.4 13.1 L 75.1 13.1 L 75.1 14.5 L 76.6 14.5 L 76.6 15.2 L 75.1 15.2 C 75.1 15.2 75.1 17.88 75.1 17.9 C 75.1 18.4 75.4 18.7 75.9 18.7 C 76.1 18.7 76.3 18.6 76.6 18.5 C 76.6 18.5 76.6 19.1 76.6 19.1 C 76.3 19.2 76.1 19.3 75.7 19.3 C 75 19.3 74.4 18.9 74.4 18 Z M 82.1 12.8 L 82.9 12.8 L 82.9 13.5 L 82.1 13.5 L 82.1 12.8 Z M 82.2 14.5 L 82.8 14.5 L 82.8 19.2 L 82.2 19.2 L 82.2 14.5 Z M 84 18.6 C 84 18.6 84.3 18.1 84.3 18.1 C 84.8 18.5 85.4 18.7 85.9 18.7 C 86.5 18.7 86.9 18.4 86.9 18 C 86.9 18 86.9 17.9 86.9 17.9 C 86.9 17.5 86.4 17.3 85.7 17.1 C 85 16.9 84.2 16.7 84.2 15.8 C 84.2 15.8 84.2 15.8 84.2 15.8 C 84.2 15 84.9 14.5 85.8 14.5 C 86.4 14.5 87 14.7 87.5 15 C 87.5 15 87.1 15.5 87.1 15.5 C 86.7 15.2 86.2 15.1 85.8 15.1 C 85.2 15.1 84.9 15.3 84.9 15.7 C 84.9 15.7 84.9 15.7 84.9 15.7 C 84.9 16.2 85.4 16.4 86.1 16.5 C 86.8 16.8 87.6 17 87.6 17.9 C 87.6 17.9 87.6 17.9 87.6 17.9 C 87.6 18.8 86.8 19.3 85.9 19.3 C 85.2 19.3 84.5 19 84 18.6 Z M 88.4 17.8 C 88.4 17.8 88.4 17.8 88.4 17.8 C 88.4 16.9 89.2 16.3 90.4 16.3 C 91 16.3 91.4 16.4 91.8 16.5 C 91.8 16.5 91.8 16.4 91.8 16.4 C 91.8 15.5 91.3 15.1 90.4 15.1 C 89.9 15.1 89.5 15.2 89 15.4 C 89 15.4 88.8 14.9 88.8 14.9 C 89.3 14.6 89.8 14.5 90.5 14.5 C 91.2 14.5 91.7 14.7 92 15 C 92.3 15.3 92.5 15.8 92.5 16.4 C 92.49 16.36 92.5 19.2 92.5 19.2 L 91.8 19.2 C 91.8 19.2 91.83 18.5 91.8 18.5 C 91.5 18.9 91 19.3 90.1 19.3 C 89.3 19.3 88.4 18.8 88.4 17.8 Z M 91.8 17.5 C 91.8 17.5 91.8 17 91.8 17 C 91.5 16.9 91 16.8 90.5 16.8 C 89.6 16.8 89.1 17.2 89.1 17.8 C 89.1 17.8 89.1 17.8 89.1 17.8 C 89.1 18.4 89.7 18.8 90.3 18.8 C 91.1 18.8 91.8 18.2 91.8 17.5 Z M 93.9 14.5 L 94.6 14.5 C 94.6 14.5 94.57 15.36 94.6 15.4 C 94.9 14.9 95.4 14.4 96.2 14.4 C 97.3 14.4 97.9 15.2 97.9 16.3 C 97.95 16.31 97.9 19.2 97.9 19.2 L 97.3 19.2 C 97.3 19.2 97.26 16.48 97.3 16.5 C 97.3 15.6 96.8 15.1 96 15.1 C 95.2 15.1 94.6 15.7 94.6 16.5 C 94.57 16.54 94.6 19.2 94.6 19.2 L 93.9 19.2 L 93.9 14.5 Z M 99.3 20 C 99.3 20 99.6 19.5 99.6 19.5 C 100.1 19.9 100.7 20.1 101.4 20.1 C 102.4 20.1 103.1 19.5 103.1 18.4 C 103.1 18.4 103.1 17.9 103.1 17.9 C 102.7 18.4 102.1 18.8 101.3 18.8 C 100.1 18.8 99.1 18 99.1 16.7 C 99.1 16.7 99.1 16.6 99.1 16.6 C 99.1 15.3 100.1 14.4 101.3 14.4 C 102.1 14.4 102.7 14.9 103.1 15.4 C 103.07 15.38 103.1 14.5 103.1 14.5 L 103.8 14.5 C 103.8 14.5 103.76 18.39 103.8 18.4 C 103.8 19.1 103.5 19.7 103.2 20 C 102.8 20.5 102.1 20.7 101.4 20.7 C 100.6 20.7 99.9 20.4 99.3 20 Z M 103.1 16.7 C 103.1 16.7 103.1 16.6 103.1 16.6 C 103.1 15.7 102.3 15.1 101.4 15.1 C 100.5 15.1 99.8 15.7 99.8 16.6 C 99.8 16.6 99.8 16.6 99.8 16.6 C 99.8 17.6 100.5 18.2 101.4 18.2 C 102.3 18.2 103.1 17.6 103.1 16.7 Z M 109.6 14.5 L 110.3 14.5 C 110.3 14.5 110.29 15.48 110.3 15.5 C 110.7 14.9 111.2 14.4 112.1 14.4 C 113.2 14.4 114.3 15.3 114.3 16.9 C 114.3 16.9 114.3 16.9 114.3 16.9 C 114.3 18.4 113.2 19.3 112.1 19.3 C 111.2 19.3 110.7 18.8 110.3 18.3 C 110.29 18.31 110.3 20.6 110.3 20.6 L 109.6 20.6 L 109.6 14.5 Z M 113.6 16.9 C 113.6 16.9 113.6 16.9 113.6 16.9 C 113.6 15.8 112.8 15.1 112 15.1 C 111.1 15.1 110.3 15.8 110.3 16.9 C 110.3 16.9 110.3 16.9 110.3 16.9 C 110.3 18 111.1 18.7 112 18.7 C 112.9 18.7 113.6 18 113.6 16.9 Z M 115.1 17.8 C 115.1 17.8 115.1 17.8 115.1 17.8 C 115.1 16.9 115.9 16.3 117.1 16.3 C 117.7 16.3 118.1 16.4 118.6 16.5 C 118.6 16.5 118.6 16.4 118.6 16.4 C 118.6 15.5 118 15.1 117.2 15.1 C 116.6 15.1 116.2 15.2 115.8 15.4 C 115.8 15.4 115.6 14.9 115.6 14.9 C 116.1 14.6 116.6 14.5 117.2 14.5 C 117.9 14.5 118.4 14.7 118.7 15 C 119.1 15.3 119.2 15.8 119.2 16.4 C 119.22 16.36 119.2 19.2 119.2 19.2 L 118.6 19.2 C 118.6 19.2 118.56 18.5 118.6 18.5 C 118.2 18.9 117.7 19.3 116.9 19.3 C 116 19.3 115.1 18.8 115.1 17.8 Z M 118.6 17.5 C 118.6 17.5 118.6 17 118.6 17 C 118.2 16.9 117.8 16.8 117.2 16.8 C 116.3 16.8 115.8 17.2 115.8 17.8 C 115.8 17.8 115.8 17.8 115.8 17.8 C 115.8 18.4 116.4 18.8 117 18.8 C 117.9 18.8 118.6 18.2 118.6 17.5 Z M 120.6 14.5 L 121.3 14.5 C 121.3 14.5 121.3 15.76 121.3 15.8 C 121.6 15 122.3 14.4 123.2 14.5 C 123.2 14.47 123.2 15.2 123.2 15.2 C 123.2 15.2 123.15 15.21 123.1 15.2 C 122.1 15.2 121.3 15.9 121.3 17.3 C 121.3 17.35 121.3 19.2 121.3 19.2 L 120.6 19.2 L 120.6 14.5 Z M 123.6 17.8 C 123.6 17.8 123.6 17.8 123.6 17.8 C 123.6 16.9 124.4 16.3 125.6 16.3 C 126.2 16.3 126.6 16.4 127 16.5 C 127 16.5 127 16.4 127 16.4 C 127 15.5 126.5 15.1 125.6 15.1 C 125.1 15.1 124.6 15.2 124.2 15.4 C 124.2 15.4 124 14.9 124 14.9 C 124.5 14.6 125 14.5 125.7 14.5 C 126.4 14.5 126.9 14.7 127.2 15 C 127.5 15.3 127.7 15.8 127.7 16.4 C 127.67 16.36 127.7 19.2 127.7 19.2 L 127 19.2 C 127 19.2 127.01 18.5 127 18.5 C 126.7 18.9 126.1 19.3 125.3 19.3 C 124.5 19.3 123.6 18.8 123.6 17.8 Z M 127 17.5 C 127 17.5 127 17 127 17 C 126.7 16.9 126.2 16.8 125.6 16.8 C 124.8 16.8 124.3 17.2 124.3 17.8 C 124.3 17.8 124.3 17.8 124.3 17.8 C 124.3 18.4 124.8 18.8 125.5 18.8 C 126.3 18.8 127 18.2 127 17.5 Z M 128.7 17.8 C 128.7 17.8 128.7 17.8 128.7 17.8 C 128.7 16.9 129.5 16.3 130.7 16.3 C 131.3 16.3 131.7 16.4 132.1 16.5 C 132.1 16.5 132.1 16.4 132.1 16.4 C 132.1 15.5 131.6 15.1 130.7 15.1 C 130.2 15.1 129.8 15.2 129.3 15.4 C 129.3 15.4 129.1 14.9 129.1 14.9 C 129.6 14.6 130.1 14.5 130.8 14.5 C 131.5 14.5 132 14.7 132.3 15 C 132.6 15.3 132.8 15.8 132.8 16.4 C 132.79 16.36 132.8 19.2 132.8 19.2 L 132.1 19.2 C 132.1 19.2 132.13 18.5 132.1 18.5 C 131.8 18.9 131.3 19.3 130.4 19.3 C 129.6 19.3 128.7 18.8 128.7 17.8 Z M 132.1 17.5 C 132.1 17.5 132.1 17 132.1 17 C 131.8 16.9 131.3 16.8 130.8 16.8 C 129.9 16.8 129.4 17.2 129.4 17.8 C 129.4 17.8 129.4 17.8 129.4 17.8 C 129.4 18.4 130 18.8 130.6 18.8 C 131.4 18.8 132.1 18.2 132.1 17.5 Z M 134.2 14.5 L 134.9 14.5 C 134.9 14.5 134.87 15.36 134.9 15.4 C 135.2 14.9 135.7 14.4 136.5 14.4 C 137.6 14.4 138.2 15.2 138.2 16.3 C 138.25 16.31 138.2 19.2 138.2 19.2 L 137.6 19.2 C 137.6 19.2 137.56 16.48 137.6 16.5 C 137.6 15.6 137.1 15.1 136.3 15.1 C 135.5 15.1 134.9 15.7 134.9 16.5 C 134.87 16.54 134.9 19.2 134.9 19.2 L 134.2 19.2 L 134.2 14.5 Z M 144 14.5 L 144.7 14.5 C 144.7 14.5 144.71 15.36 144.7 15.4 C 145 14.9 145.5 14.4 146.3 14.4 C 147.4 14.4 148.1 15.2 148.1 16.3 C 148.08 16.31 148.1 19.2 148.1 19.2 L 147.4 19.2 C 147.4 19.2 147.39 16.48 147.4 16.5 C 147.4 15.6 146.9 15.1 146.1 15.1 C 145.3 15.1 144.7 15.7 144.7 16.5 C 144.71 16.54 144.7 19.2 144.7 19.2 L 144 19.2 L 144 14.5 Z M 149.4 20 C 149.4 20 149.7 19.5 149.7 19.5 C 150.3 19.9 150.9 20.1 151.5 20.1 C 152.5 20.1 153.2 19.5 153.2 18.4 C 153.2 18.4 153.2 17.9 153.2 17.9 C 152.8 18.4 152.2 18.8 151.4 18.8 C 150.3 18.8 149.2 18 149.2 16.7 C 149.2 16.7 149.2 16.6 149.2 16.6 C 149.2 15.3 150.3 14.4 151.4 14.4 C 152.3 14.4 152.8 14.9 153.2 15.4 C 153.21 15.38 153.2 14.5 153.2 14.5 L 153.9 14.5 C 153.9 14.5 153.9 18.39 153.9 18.4 C 153.9 19.1 153.7 19.7 153.3 20 C 152.9 20.5 152.3 20.7 151.5 20.7 C 150.8 20.7 150 20.4 149.4 20 Z M 153.2 16.7 C 153.2 16.7 153.2 16.6 153.2 16.6 C 153.2 15.7 152.4 15.1 151.5 15.1 C 150.6 15.1 149.9 15.7 149.9 16.6 C 149.9 16.6 149.9 16.6 149.9 16.6 C 149.9 17.6 150.7 18.2 151.5 18.2 C 152.4 18.2 153.2 17.6 153.2 16.7 Z M 159.7 14.5 L 160.4 14.5 C 160.4 14.5 160.43 15.48 160.4 15.5 C 160.8 14.9 161.4 14.4 162.2 14.4 C 163.3 14.4 164.4 15.3 164.4 16.9 C 164.4 16.9 164.4 16.9 164.4 16.9 C 164.4 18.4 163.3 19.3 162.2 19.3 C 161.3 19.3 160.8 18.8 160.4 18.3 C 160.43 18.31 160.4 20.6 160.4 20.6 L 159.7 20.6 L 159.7 14.5 Z M 163.7 16.9 C 163.7 16.9 163.7 16.9 163.7 16.9 C 163.7 15.8 163 15.1 162.1 15.1 C 161.2 15.1 160.4 15.8 160.4 16.9 C 160.4 16.9 160.4 16.9 160.4 16.9 C 160.4 18 161.2 18.7 162.1 18.7 C 163 18.7 163.7 18 163.7 16.9 Z M 165.3 17.8 C 165.3 17.8 165.3 17.8 165.3 17.8 C 165.3 16.9 166.1 16.3 167.3 16.3 C 167.9 16.3 168.3 16.4 168.7 16.5 C 168.7 16.5 168.7 16.4 168.7 16.4 C 168.7 15.5 168.2 15.1 167.3 15.1 C 166.8 15.1 166.3 15.2 165.9 15.4 C 165.9 15.4 165.7 14.9 165.7 14.9 C 166.2 14.6 166.7 14.5 167.4 14.5 C 168 14.5 168.5 14.7 168.9 15 C 169.2 15.3 169.4 15.8 169.4 16.4 C 169.36 16.36 169.4 19.2 169.4 19.2 L 168.7 19.2 C 168.7 19.2 168.69 18.5 168.7 18.5 C 168.4 18.9 167.8 19.3 167 19.3 C 166.1 19.3 165.3 18.8 165.3 17.8 Z M 168.7 17.5 C 168.7 17.5 168.7 17 168.7 17 C 168.4 16.9 167.9 16.8 167.3 16.8 C 166.5 16.8 166 17.2 166 17.8 C 166 17.8 166 17.8 166 17.8 C 166 18.4 166.5 18.8 167.1 18.8 C 168 18.8 168.7 18.2 168.7 17.5 Z M 170.7 20 C 170.7 20 171 19.5 171 19.5 C 171.5 19.9 172.1 20.1 172.8 20.1 C 173.8 20.1 174.5 19.5 174.5 18.4 C 174.5 18.4 174.5 17.9 174.5 17.9 C 174.1 18.4 173.5 18.8 172.7 18.8 C 171.5 18.8 170.5 18 170.5 16.7 C 170.5 16.7 170.5 16.6 170.5 16.6 C 170.5 15.3 171.6 14.4 172.7 14.4 C 173.5 14.4 174.1 14.9 174.5 15.4 C 174.48 15.38 174.5 14.5 174.5 14.5 L 175.2 14.5 C 175.2 14.5 175.17 18.39 175.2 18.4 C 175.2 19.1 175 19.7 174.6 20 C 174.2 20.5 173.5 20.7 172.8 20.7 C 172 20.7 171.3 20.4 170.7 20 Z M 174.5 16.7 C 174.5 16.7 174.5 16.6 174.5 16.6 C 174.5 15.7 173.7 15.1 172.8 15.1 C 171.9 15.1 171.2 15.7 171.2 16.6 C 171.2 16.6 171.2 16.6 171.2 16.6 C 171.2 17.6 171.9 18.2 172.8 18.2 C 173.7 18.2 174.5 17.6 174.5 16.7 Z M 176.6 14.5 L 177.3 14.5 C 177.3 14.5 177.32 15.48 177.3 15.5 C 177.7 14.9 178.2 14.4 179.1 14.4 C 180.2 14.4 181.3 15.3 181.3 16.9 C 181.3 16.9 181.3 16.9 181.3 16.9 C 181.3 18.4 180.2 19.3 179.1 19.3 C 178.2 19.3 177.7 18.8 177.3 18.3 C 177.32 18.31 177.3 20.6 177.3 20.6 L 176.6 20.6 L 176.6 14.5 Z M 180.6 16.9 C 180.6 16.9 180.6 16.9 180.6 16.9 C 180.6 15.8 179.9 15.1 179 15.1 C 178.1 15.1 177.3 15.8 177.3 16.9 C 177.3 16.9 177.3 16.9 177.3 16.9 C 177.3 18 178.1 18.7 179 18.7 C 179.9 18.7 180.6 18 180.6 16.9 Z M 182.2 17.8 C 182.2 17.8 182.2 17.8 182.2 17.8 C 182.2 16.9 183 16.3 184.2 16.3 C 184.7 16.3 185.2 16.4 185.6 16.5 C 185.6 16.5 185.6 16.4 185.6 16.4 C 185.6 15.5 185.1 15.1 184.2 15.1 C 183.6 15.1 183.2 15.2 182.8 15.4 C 182.8 15.4 182.6 14.9 182.6 14.9 C 183.1 14.6 183.6 14.5 184.3 14.5 C 184.9 14.5 185.4 14.7 185.8 15 C 186.1 15.3 186.3 15.8 186.3 16.4 C 186.25 16.36 186.3 19.2 186.3 19.2 L 185.6 19.2 C 185.6 19.2 185.59 18.5 185.6 18.5 C 185.3 18.9 184.7 19.3 183.9 19.3 C 183 19.3 182.2 18.8 182.2 17.8 Z M 185.6 17.5 C 185.6 17.5 185.6 17 185.6 17 C 185.3 16.9 184.8 16.8 184.2 16.8 C 183.4 16.8 182.9 17.2 182.9 17.8 C 182.9 17.8 182.9 17.8 182.9 17.8 C 182.9 18.4 183.4 18.8 184 18.8 C 184.9 18.8 185.6 18.2 185.6 17.5 Z M 187.6 14.5 L 188.3 14.5 C 188.3 14.5 188.33 15.48 188.3 15.5 C 188.7 14.9 189.3 14.4 190.1 14.4 C 191.2 14.4 192.3 15.3 192.3 16.9 C 192.3 16.9 192.3 16.9 192.3 16.9 C 192.3 18.4 191.2 19.3 190.1 19.3 C 189.2 19.3 188.7 18.8 188.3 18.3 C 188.33 18.31 188.3 20.6 188.3 20.6 L 187.6 20.6 L 187.6 14.5 Z M 191.6 16.9 C 191.6 16.9 191.6 16.9 191.6 16.9 C 191.6 15.8 190.9 15.1 190 15.1 C 189.1 15.1 188.3 15.8 188.3 16.9 C 188.3 16.9 188.3 16.9 188.3 16.9 C 188.3 18 189.1 18.7 190 18.7 C 190.9 18.7 191.6 18 191.6 16.9 Z M 193.2 17.8 C 193.2 17.8 193.2 17.8 193.2 17.8 C 193.2 16.9 194 16.3 195.2 16.3 C 195.8 16.3 196.2 16.4 196.6 16.5 C 196.6 16.5 196.6 16.4 196.6 16.4 C 196.6 15.5 196.1 15.1 195.2 15.1 C 194.7 15.1 194.2 15.2 193.8 15.4 C 193.8 15.4 193.6 14.9 193.6 14.9 C 194.1 14.6 194.6 14.5 195.3 14.5 C 195.9 14.5 196.4 14.7 196.8 15 C 197.1 15.3 197.3 15.8 197.3 16.4 C 197.26 16.36 197.3 19.2 197.3 19.2 L 196.6 19.2 C 196.6 19.2 196.59 18.5 196.6 18.5 C 196.3 18.9 195.7 19.3 194.9 19.3 C 194 19.3 193.2 18.8 193.2 17.8 Z M 196.6 17.5 C 196.6 17.5 196.6 17 196.6 17 C 196.3 16.9 195.8 16.8 195.2 16.8 C 194.4 16.8 193.9 17.2 193.9 17.8 C 193.9 17.8 193.9 17.8 193.9 17.8 C 193.9 18.4 194.4 18.8 195 18.8 C 195.9 18.8 196.6 18.2 196.6 17.5 Z M 198.8 18 C 198.84 17.97 198.8 15.2 198.8 15.2 L 198.2 15.2 L 198.2 14.5 L 198.8 14.5 L 198.8 13.1 L 199.5 13.1 L 199.5 14.5 L 201 14.5 L 201 15.2 L 199.5 15.2 C 199.5 15.2 199.53 17.88 199.5 17.9 C 199.5 18.4 199.8 18.7 200.3 18.7 C 200.6 18.7 200.7 18.6 201 18.5 C 201 18.5 201 19.1 201 19.1 C 200.7 19.2 200.5 19.3 200.2 19.3 C 199.4 19.3 198.8 18.9 198.8 18 Z M 202.2 12.8 L 203 12.8 L 203 13.5 L 202.2 13.5 L 202.2 12.8 Z M 202.2 14.5 L 202.9 14.5 L 202.9 19.2 L 202.2 19.2 L 202.2 14.5 Z M 205.1 18.3 C 205.11 18.31 205.1 19.2 205.1 19.2 L 204.4 19.2 L 204.4 12.6 L 205.1 12.6 C 205.1 12.6 205.11 15.48 205.1 15.5 C 205.5 14.9 206 14.4 206.9 14.4 C 208 14.4 209.1 15.3 209.1 16.9 C 209.1 16.9 209.1 16.9 209.1 16.9 C 209.1 18.4 208 19.3 206.9 19.3 C 206 19.3 205.5 18.8 205.1 18.3 Z M 208.4 16.9 C 208.4 16.9 208.4 16.9 208.4 16.9 C 208.4 15.8 207.7 15.1 206.8 15.1 C 205.9 15.1 205.1 15.8 205.1 16.9 C 205.1 16.9 205.1 16.9 205.1 16.9 C 205.1 18 205.9 18.7 206.8 18.7 C 207.7 18.7 208.4 18 208.4 16.9 Z M 210 17.8 C 210 17.8 210 17.8 210 17.8 C 210 16.9 210.8 16.3 211.9 16.3 C 212.5 16.3 213 16.4 213.4 16.5 C 213.4 16.5 213.4 16.4 213.4 16.4 C 213.4 15.5 212.9 15.1 212 15.1 C 211.4 15.1 211 15.2 210.6 15.4 C 210.6 15.4 210.4 14.9 210.4 14.9 C 210.9 14.6 211.4 14.5 212.1 14.5 C 212.7 14.5 213.2 14.7 213.6 15 C 213.9 15.3 214 15.8 214 16.4 C 214.04 16.36 214 19.2 214 19.2 L 213.4 19.2 C 213.4 19.2 213.38 18.5 213.4 18.5 C 213.1 18.9 212.5 19.3 211.7 19.3 C 210.8 19.3 210 18.8 210 17.8 Z M 213.4 17.5 C 213.4 17.5 213.4 17 213.4 17 C 213 16.9 212.6 16.8 212 16.8 C 211.1 16.8 210.7 17.2 210.7 17.8 C 210.7 17.8 210.7 17.8 210.7 17.8 C 210.7 18.4 211.2 18.8 211.8 18.8 C 212.7 18.8 213.4 18.2 213.4 17.5 Z M 218.7 14.5 L 219.5 14.5 C 219.5 14.5 217.52 19.35 217.5 19.4 C 217.1 20.3 216.7 20.7 216 20.7 C 215.6 20.7 215.3 20.6 215 20.4 C 215 20.4 215.2 19.9 215.2 19.9 C 215.4 20 215.6 20.1 215.9 20.1 C 216.4 20.1 216.6 19.8 216.9 19.2 C 216.9 19.18 214.8 14.5 214.8 14.5 L 215.5 14.5 L 217.2 18.4 L 218.7 14.5 Z M 224.9 14.5 L 225.6 14.5 C 225.6 14.5 225.55 15.36 225.6 15.4 C 225.9 14.9 226.3 14.4 227.1 14.4 C 228.3 14.4 228.9 15.2 228.9 16.3 C 228.93 16.31 228.9 19.2 228.9 19.2 L 228.2 19.2 C 228.2 19.2 228.23 16.48 228.2 16.5 C 228.2 15.6 227.8 15.1 226.9 15.1 C 226.1 15.1 225.6 15.7 225.6 16.5 C 225.55 16.54 225.6 19.2 225.6 19.2 L 224.9 19.2 L 224.9 14.5 Z M 230.3 12.8 L 231.1 12.8 L 231.1 13.5 L 230.3 13.5 L 230.3 12.8 Z M 230.4 14.5 L 231.1 14.5 L 231.1 19.2 L 230.4 19.2 L 230.4 14.5 Z M 232.8 18 C 232.83 17.97 232.8 15.2 232.8 15.2 L 232.2 15.2 L 232.2 14.5 L 232.8 14.5 L 232.8 13.1 L 233.5 13.1 L 233.5 14.5 L 235 14.5 L 235 15.2 L 233.5 15.2 C 233.5 15.2 233.52 17.88 233.5 17.9 C 233.5 18.4 233.8 18.7 234.3 18.7 C 234.5 18.7 234.7 18.6 235 18.5 C 235 18.5 235 19.1 235 19.1 C 234.7 19.2 234.5 19.3 234.1 19.3 C 233.4 19.3 232.8 18.9 232.8 18 Z M 235.7 16.9 C 235.7 16.9 235.7 16.9 235.7 16.9 C 235.7 15.6 236.7 14.4 238.1 14.4 C 239.5 14.4 240.6 15.5 240.6 16.9 C 240.6 16.9 240.6 16.9 240.6 16.9 C 240.6 18.2 239.5 19.3 238.1 19.3 C 236.7 19.3 235.7 18.2 235.7 16.9 Z M 239.9 16.9 C 239.9 16.9 239.9 16.9 239.9 16.9 C 239.9 15.9 239.1 15.1 238.1 15.1 C 237.1 15.1 236.4 15.9 236.4 16.9 C 236.4 16.9 236.4 16.9 236.4 16.9 C 236.4 17.9 237.2 18.7 238.1 18.7 C 239.2 18.7 239.9 17.9 239.9 16.9 Z M 245.8 17.8 C 245.8 17.8 245.8 17.8 245.8 17.8 C 245.8 16.9 246.6 16.3 247.7 16.3 C 248.3 16.3 248.8 16.4 249.2 16.5 C 249.2 16.5 249.2 16.4 249.2 16.4 C 249.2 15.5 248.7 15.1 247.8 15.1 C 247.2 15.1 246.8 15.2 246.4 15.4 C 246.4 15.4 246.2 14.9 246.2 14.9 C 246.7 14.6 247.2 14.5 247.9 14.5 C 248.5 14.5 249 14.7 249.4 15 C 249.7 15.3 249.8 15.8 249.8 16.4 C 249.84 16.36 249.8 19.2 249.8 19.2 L 249.2 19.2 C 249.2 19.2 249.17 18.5 249.2 18.5 C 248.9 18.9 248.3 19.3 247.5 19.3 C 246.6 19.3 245.8 18.8 245.8 17.8 Z M 249.2 17.5 C 249.2 17.5 249.2 17 249.2 17 C 248.8 16.9 248.4 16.8 247.8 16.8 C 246.9 16.8 246.5 17.2 246.5 17.8 C 246.5 17.8 246.5 17.8 246.5 17.8 C 246.5 18.4 247 18.8 247.6 18.8 C 248.5 18.8 249.2 18.2 249.2 17.5 Z M 251.2 14.5 L 251.9 14.5 C 251.9 14.5 251.92 15.36 251.9 15.4 C 252.2 14.9 252.7 14.4 253.5 14.4 C 254.6 14.4 255.3 15.2 255.3 16.3 C 255.29 16.31 255.3 19.2 255.3 19.2 L 254.6 19.2 C 254.6 19.2 254.6 16.48 254.6 16.5 C 254.6 15.6 254.1 15.1 253.3 15.1 C 252.5 15.1 251.9 15.7 251.9 16.5 C 251.92 16.54 251.9 19.2 251.9 19.2 L 251.2 19.2 L 251.2 14.5 Z M 256.6 20 C 256.6 20 256.9 19.5 256.9 19.5 C 257.5 19.9 258.1 20.1 258.7 20.1 C 259.8 20.1 260.4 19.5 260.4 18.4 C 260.4 18.4 260.4 17.9 260.4 17.9 C 260 18.4 259.5 18.8 258.6 18.8 C 257.5 18.8 256.4 18 256.4 16.7 C 256.4 16.7 256.4 16.6 256.4 16.6 C 256.4 15.3 257.5 14.4 258.6 14.4 C 259.5 14.4 260 14.9 260.4 15.4 C 260.42 15.38 260.4 14.5 260.4 14.5 L 261.1 14.5 C 261.1 14.5 261.11 18.39 261.1 18.4 C 261.1 19.1 260.9 19.7 260.5 20 C 260.1 20.5 259.5 20.7 258.7 20.7 C 258 20.7 257.2 20.4 256.6 20 Z M 260.4 16.7 C 260.4 16.7 260.4 16.6 260.4 16.6 C 260.4 15.7 259.6 15.1 258.7 15.1 C 257.8 15.1 257.1 15.7 257.1 16.6 C 257.1 16.6 257.1 16.6 257.1 16.6 C 257.1 17.6 257.9 18.2 258.7 18.2 C 259.6 18.2 260.4 17.6 260.4 16.7 Z M 266.9 14.5 L 267.6 14.5 C 267.6 14.5 267.64 15.48 267.6 15.5 C 268 14.9 268.6 14.4 269.4 14.4 C 270.5 14.4 271.6 15.3 271.6 16.9 C 271.6 16.9 271.6 16.9 271.6 16.9 C 271.6 18.4 270.5 19.3 269.4 19.3 C 268.6 19.3 268 18.8 267.6 18.3 C 267.64 18.31 267.6 20.6 267.6 20.6 L 266.9 20.6 L 266.9 14.5 Z M 270.9 16.9 C 270.9 16.9 270.9 16.9 270.9 16.9 C 270.9 15.8 270.2 15.1 269.3 15.1 C 268.4 15.1 267.6 15.8 267.6 16.9 C 267.6 16.9 267.6 16.9 267.6 16.9 C 267.6 18 268.4 18.7 269.3 18.7 C 270.2 18.7 270.9 18 270.9 16.9 Z M 272.5 17.8 C 272.5 17.8 272.5 17.8 272.5 17.8 C 272.5 16.9 273.3 16.3 274.5 16.3 C 275.1 16.3 275.5 16.4 275.9 16.5 C 275.9 16.5 275.9 16.4 275.9 16.4 C 275.9 15.5 275.4 15.1 274.5 15.1 C 274 15.1 273.5 15.2 273.1 15.4 C 273.1 15.4 272.9 14.9 272.9 14.9 C 273.4 14.6 273.9 14.5 274.6 14.5 C 275.2 14.5 275.7 14.7 276.1 15 C 276.4 15.3 276.6 15.8 276.6 16.4 C 276.57 16.36 276.6 19.2 276.6 19.2 L 275.9 19.2 C 275.9 19.2 275.9 18.5 275.9 18.5 C 275.6 18.9 275 19.3 274.2 19.3 C 273.4 19.3 272.5 18.8 272.5 17.8 Z M 275.9 17.5 C 275.9 17.5 275.9 17 275.9 17 C 275.6 16.9 275.1 16.8 274.5 16.8 C 273.7 16.8 273.2 17.2 273.2 17.8 C 273.2 17.8 273.2 17.8 273.2 17.8 C 273.2 18.4 273.7 18.8 274.4 18.8 C 275.2 18.8 275.9 18.2 275.9 17.5 Z M 277.9 20 C 277.9 20 278.2 19.5 278.2 19.5 C 278.7 19.9 279.3 20.1 280 20.1 C 281 20.1 281.7 19.5 281.7 18.4 C 281.7 18.4 281.7 17.9 281.7 17.9 C 281.3 18.4 280.7 18.8 279.9 18.8 C 278.8 18.8 277.7 18 277.7 16.7 C 277.7 16.7 277.7 16.6 277.7 16.6 C 277.7 15.3 278.8 14.4 279.9 14.4 C 280.7 14.4 281.3 14.9 281.7 15.4 C 281.69 15.38 281.7 14.5 281.7 14.5 L 282.4 14.5 C 282.4 14.5 282.38 18.39 282.4 18.4 C 282.4 19.1 282.2 19.7 281.8 20 C 281.4 20.5 280.8 20.7 280 20.7 C 279.2 20.7 278.5 20.4 277.9 20 Z M 281.7 16.7 C 281.7 16.7 281.7 16.6 281.7 16.6 C 281.7 15.7 280.9 15.1 280 15.1 C 279.1 15.1 278.4 15.7 278.4 16.6 C 278.4 16.6 278.4 16.6 278.4 16.6 C 278.4 17.6 279.1 18.2 280 18.2 C 280.9 18.2 281.7 17.6 281.7 16.7 Z M 284.5 18.3 C 284.53 18.31 284.5 19.2 284.5 19.2 L 283.8 19.2 L 283.8 12.6 L 284.5 12.6 C 284.5 12.6 284.53 15.48 284.5 15.5 C 284.9 14.9 285.5 14.4 286.3 14.4 C 287.4 14.4 288.5 15.3 288.5 16.9 C 288.5 16.9 288.5 16.9 288.5 16.9 C 288.5 18.4 287.4 19.3 286.3 19.3 C 285.5 19.3 284.9 18.8 284.5 18.3 Z M 287.8 16.9 C 287.8 16.9 287.8 16.9 287.8 16.9 C 287.8 15.8 287.1 15.1 286.2 15.1 C 285.3 15.1 284.5 15.8 284.5 16.9 C 284.5 16.9 284.5 16.9 284.5 16.9 C 284.5 18 285.3 18.7 286.2 18.7 C 287.1 18.7 287.8 18 287.8 16.9 Z M 289.4 17.8 C 289.4 17.8 289.4 17.8 289.4 17.8 C 289.4 16.9 290.2 16.3 291.4 16.3 C 292 16.3 292.4 16.4 292.8 16.5 C 292.8 16.5 292.8 16.4 292.8 16.4 C 292.8 15.5 292.3 15.1 291.4 15.1 C 290.9 15.1 290.4 15.2 290 15.4 C 290 15.4 289.8 14.9 289.8 14.9 C 290.3 14.6 290.8 14.5 291.5 14.5 C 292.1 14.5 292.6 14.7 293 15 C 293.3 15.3 293.5 15.8 293.5 16.4 C 293.46 16.36 293.5 19.2 293.5 19.2 L 292.8 19.2 C 292.8 19.2 292.8 18.5 292.8 18.5 C 292.5 18.9 291.9 19.3 291.1 19.3 C 290.2 19.3 289.4 18.8 289.4 17.8 Z M 292.8 17.5 C 292.8 17.5 292.8 17 292.8 17 C 292.5 16.9 292 16.8 291.4 16.8 C 290.6 16.8 290.1 17.2 290.1 17.8 C 290.1 17.8 290.1 17.8 290.1 17.8 C 290.1 18.4 290.6 18.8 291.2 18.8 C 292.1 18.8 292.8 18.2 292.8 17.5 Z M 295.5 18.3 C 295.54 18.31 295.5 19.2 295.5 19.2 L 294.8 19.2 L 294.8 12.6 L 295.5 12.6 C 295.5 12.6 295.54 15.48 295.5 15.5 C 295.9 14.9 296.5 14.4 297.3 14.4 C 298.4 14.4 299.5 15.3 299.5 16.9 C 299.5 16.9 299.5 16.9 299.5 16.9 C 299.5 18.4 298.4 19.3 297.3 19.3 C 296.5 19.3 295.9 18.8 295.5 18.3 Z M 298.8 16.9 C 298.8 16.9 298.8 16.9 298.8 16.9 C 298.8 15.8 298.1 15.1 297.2 15.1 C 296.3 15.1 295.5 15.8 295.5 16.9 C 295.5 16.9 295.5 16.9 295.5 16.9 C 295.5 18 296.3 18.7 297.2 18.7 C 298.1 18.7 298.8 18 298.8 16.9 Z M 300.4 17.8 C 300.4 17.8 300.4 17.8 300.4 17.8 C 300.4 16.9 301.2 16.3 302.4 16.3 C 303 16.3 303.4 16.4 303.8 16.5 C 303.8 16.5 303.8 16.4 303.8 16.4 C 303.8 15.5 303.3 15.1 302.4 15.1 C 301.9 15.1 301.4 15.2 301 15.4 C 301 15.4 300.8 14.9 300.8 14.9 C 301.3 14.6 301.8 14.5 302.5 14.5 C 303.1 14.5 303.6 14.7 304 15 C 304.3 15.3 304.5 15.8 304.5 16.4 C 304.47 16.36 304.5 19.2 304.5 19.2 L 303.8 19.2 C 303.8 19.2 303.8 18.5 303.8 18.5 C 303.5 18.9 302.9 19.3 302.1 19.3 C 301.3 19.3 300.4 18.8 300.4 17.8 Z M 303.8 17.5 C 303.8 17.5 303.8 17 303.8 17 C 303.5 16.9 303 16.8 302.4 16.8 C 301.6 16.8 301.1 17.2 301.1 17.8 C 301.1 17.8 301.1 17.8 301.1 17.8 C 301.1 18.4 301.6 18.8 302.3 18.8 C 303.1 18.8 303.8 18.2 303.8 17.5 Z M 305.9 12.6 L 306.5 12.6 C 306.5 12.6 306.55 15.36 306.5 15.4 C 306.9 14.9 307.3 14.4 308.1 14.4 C 309.3 14.4 309.9 15.2 309.9 16.3 C 309.92 16.31 309.9 19.2 309.9 19.2 L 309.2 19.2 C 309.2 19.2 309.23 16.48 309.2 16.5 C 309.2 15.6 308.8 15.1 307.9 15.1 C 307.1 15.1 306.5 15.7 306.5 16.5 C 306.55 16.54 306.5 19.2 306.5 19.2 L 305.9 19.2 L 305.9 12.6 Z M 311 17.8 C 311 17.8 311 17.8 311 17.8 C 311 16.9 311.8 16.3 312.9 16.3 C 313.5 16.3 314 16.4 314.4 16.5 C 314.4 16.5 314.4 16.4 314.4 16.4 C 314.4 15.5 313.9 15.1 313 15.1 C 312.4 15.1 312 15.2 311.6 15.4 C 311.6 15.4 311.4 14.9 311.4 14.9 C 311.9 14.6 312.4 14.5 313.1 14.5 C 313.7 14.5 314.2 14.7 314.6 15 C 314.9 15.3 315 15.8 315 16.4 C 315.04 16.36 315 19.2 315 19.2 L 314.4 19.2 C 314.4 19.2 314.38 18.5 314.4 18.5 C 314.1 18.9 313.5 19.3 312.7 19.3 C 311.8 19.3 311 18.8 311 17.8 Z M 314.4 17.5 C 314.4 17.5 314.4 17 314.4 17 C 314 16.9 313.6 16.8 313 16.8 C 312.1 16.8 311.7 17.2 311.7 17.8 C 311.7 17.8 311.7 17.8 311.7 17.8 C 311.7 18.4 312.2 18.8 312.8 18.8 C 313.7 18.8 314.4 18.2 314.4 17.5 Z M 316.4 20 C 316.4 20 316.7 19.5 316.7 19.5 C 317.2 19.9 317.8 20.1 318.5 20.1 C 319.5 20.1 320.2 19.5 320.2 18.4 C 320.2 18.4 320.2 17.9 320.2 17.9 C 319.8 18.4 319.2 18.8 318.3 18.8 C 317.2 18.8 316.2 18 316.2 16.7 C 316.2 16.7 316.2 16.6 316.2 16.6 C 316.2 15.3 317.2 14.4 318.3 14.4 C 319.2 14.4 319.8 14.9 320.2 15.4 C 320.16 15.38 320.2 14.5 320.2 14.5 L 320.9 14.5 C 320.9 14.5 320.86 18.39 320.9 18.4 C 320.9 19.1 320.6 19.7 320.3 20 C 319.8 20.5 319.2 20.7 318.5 20.7 C 317.7 20.7 317 20.4 316.4 20 Z M 320.2 16.7 C 320.2 16.7 320.2 16.6 320.2 16.6 C 320.2 15.7 319.4 15.1 318.5 15.1 C 317.6 15.1 316.9 15.7 316.9 16.6 C 316.9 16.6 316.9 16.6 316.9 16.6 C 316.9 17.6 317.6 18.2 318.5 18.2 C 319.4 18.2 320.2 17.6 320.2 16.7 Z M 322.3 12.8 L 323.1 12.8 L 323.1 13.5 L 322.3 13.5 L 322.3 12.8 Z M 322.4 14.5 L 323.1 14.5 L 323.1 19.2 L 322.4 19.2 L 322.4 14.5 Z M 329 14.5 L 329.7 14.5 C 329.7 14.5 329.66 15.36 329.7 15.4 C 330 14.9 330.5 14.4 331.3 14.4 C 332.4 14.4 333 15.2 333 16.3 C 333.04 16.31 333 19.2 333 19.2 L 332.3 19.2 C 332.3 19.2 332.35 16.48 332.3 16.5 C 332.3 15.6 331.9 15.1 331.1 15.1 C 330.3 15.1 329.7 15.7 329.7 16.5 C 329.66 16.54 329.7 19.2 329.7 19.2 L 329 19.2 L 329 14.5 Z M 334.4 12.8 L 335.2 12.8 L 335.2 13.5 L 334.4 13.5 L 334.4 12.8 Z M 334.5 14.5 L 335.2 14.5 L 335.2 19.2 L 334.5 19.2 L 334.5 14.5 Z M 336.8 12.6 L 337.5 12.6 L 337.5 19.2 L 336.8 19.2 L 336.8 12.6 Z M 338.6 17.8 C 338.6 17.8 338.6 17.8 338.6 17.8 C 338.6 16.9 339.4 16.3 340.6 16.3 C 341.2 16.3 341.6 16.4 342 16.5 C 342 16.5 342 16.4 342 16.4 C 342 15.5 341.5 15.1 340.7 15.1 C 340.1 15.1 339.7 15.2 339.2 15.4 C 339.2 15.4 339 14.9 339 14.9 C 339.6 14.6 340.1 14.5 340.7 14.5 C 341.4 14.5 341.9 14.7 342.2 15 C 342.6 15.3 342.7 15.8 342.7 16.4 C 342.71 16.36 342.7 19.2 342.7 19.2 L 342 19.2 C 342 19.2 342.05 18.5 342 18.5 C 341.7 18.9 341.2 19.3 340.4 19.3 C 339.5 19.3 338.6 18.8 338.6 17.8 Z M 342.1 17.5 C 342.1 17.5 342.1 17 342.1 17 C 341.7 16.9 341.3 16.8 340.7 16.8 C 339.8 16.8 339.3 17.2 339.3 17.8 C 339.3 17.8 339.3 17.8 339.3 17.8 C 339.3 18.4 339.9 18.8 340.5 18.8 C 341.4 18.8 342.1 18.2 342.1 17.5 Z M 348.5 14.5 L 349.2 14.5 C 349.2 14.5 349.17 15.36 349.2 15.4 C 349.5 14.9 350 14.4 350.8 14.4 C 351.9 14.4 352.5 15.2 352.5 16.3 C 352.55 16.31 352.5 19.2 352.5 19.2 L 351.9 19.2 C 351.9 19.2 351.86 16.48 351.9 16.5 C 351.9 15.6 351.4 15.1 350.6 15.1 C 349.8 15.1 349.2 15.7 349.2 16.5 C 349.17 16.54 349.2 19.2 349.2 19.2 L 348.5 19.2 L 348.5 14.5 Z M 353.9 20 C 353.9 20 354.2 19.5 354.2 19.5 C 354.7 19.9 355.3 20.1 356 20.1 C 357 20.1 357.7 19.5 357.7 18.4 C 357.7 18.4 357.7 17.9 357.7 17.9 C 357.3 18.4 356.7 18.8 355.9 18.8 C 354.7 18.8 353.7 18 353.7 16.7 C 353.7 16.7 353.7 16.6 353.7 16.6 C 353.7 15.3 354.7 14.4 355.9 14.4 C 356.7 14.4 357.3 14.9 357.7 15.4 C 357.67 15.38 357.7 14.5 357.7 14.5 L 358.4 14.5 C 358.4 14.5 358.36 18.39 358.4 18.4 C 358.4 19.1 358.1 19.7 357.8 20 C 357.4 20.5 356.7 20.7 356 20.7 C 355.2 20.7 354.5 20.4 353.9 20 Z M 357.7 16.7 C 357.7 16.7 357.7 16.6 357.7 16.6 C 357.7 15.7 356.9 15.1 356 15.1 C 355.1 15.1 354.4 15.7 354.4 16.6 C 354.4 16.6 354.4 16.6 354.4 16.6 C 354.4 17.6 355.1 18.2 356 18.2 C 356.9 18.2 357.7 17.6 357.7 16.7 Z M 364.2 14.5 L 364.9 14.5 C 364.9 14.5 364.9 15.33 364.9 15.3 C 365.2 14.9 365.6 14.4 366.4 14.4 C 367.2 14.4 367.6 14.9 367.9 15.4 C 368.2 14.9 368.7 14.4 369.5 14.4 C 370.6 14.4 371.3 15.2 371.3 16.3 C 371.26 16.32 371.3 19.2 371.3 19.2 L 370.6 19.2 C 370.6 19.2 370.57 16.48 370.6 16.5 C 370.6 15.6 370.1 15.1 369.4 15.1 C 368.7 15.1 368.1 15.6 368.1 16.5 C 368.08 16.52 368.1 19.2 368.1 19.2 L 367.4 19.2 C 367.4 19.2 367.39 16.46 367.4 16.5 C 367.4 15.6 366.9 15.1 366.2 15.1 C 365.5 15.1 364.9 15.7 364.9 16.5 C 364.9 16.54 364.9 19.2 364.9 19.2 L 364.2 19.2 L 364.2 14.5 Z M 372.6 20 C 372.6 20 372.9 19.5 372.9 19.5 C 373.5 19.9 374.1 20.1 374.7 20.1 C 375.8 20.1 376.4 19.5 376.4 18.4 C 376.4 18.4 376.4 17.9 376.4 17.9 C 376 18.4 375.4 18.8 374.6 18.8 C 373.5 18.8 372.4 18 372.4 16.7 C 372.4 16.7 372.4 16.6 372.4 16.6 C 372.4 15.3 373.5 14.4 374.6 14.4 C 375.5 14.4 376 14.9 376.4 15.4 C 376.41 15.38 376.4 14.5 376.4 14.5 L 377.1 14.5 C 377.1 14.5 377.1 18.39 377.1 18.4 C 377.1 19.1 376.9 19.7 376.5 20 C 376.1 20.5 375.5 20.7 374.7 20.7 C 374 20.7 373.2 20.4 372.6 20 Z M 376.4 16.7 C 376.4 16.7 376.4 16.6 376.4 16.6 C 376.4 15.7 375.6 15.1 374.7 15.1 C 373.8 15.1 373.1 15.7 373.1 16.6 C 373.1 16.6 373.1 16.6 373.1 16.6 C 373.1 17.6 373.9 18.2 374.7 18.2 C 375.6 18.2 376.4 17.6 376.4 16.7 Z M 378.2 17.8 C 378.2 17.8 378.2 17.8 378.2 17.8 C 378.2 16.9 379 16.3 380.2 16.3 C 380.8 16.3 381.2 16.4 381.6 16.5 C 381.6 16.5 381.6 16.4 381.6 16.4 C 381.6 15.5 381.1 15.1 380.2 15.1 C 379.7 15.1 379.3 15.2 378.8 15.4 C 378.8 15.4 378.6 14.9 378.6 14.9 C 379.1 14.6 379.6 14.5 380.3 14.5 C 381 14.5 381.5 14.7 381.8 15 C 382.1 15.3 382.3 15.8 382.3 16.4 C 382.29 16.36 382.3 19.2 382.3 19.2 L 381.6 19.2 C 381.6 19.2 381.63 18.5 381.6 18.5 C 381.3 18.9 380.8 19.3 379.9 19.3 C 379.1 19.3 378.2 18.8 378.2 17.8 Z M 381.6 17.5 C 381.6 17.5 381.6 17 381.6 17 C 381.3 16.9 380.8 16.8 380.3 16.8 C 379.4 16.8 378.9 17.2 378.9 17.8 C 378.9 17.8 378.9 17.8 378.9 17.8 C 378.9 18.4 379.4 18.8 380.1 18.8 C 380.9 18.8 381.6 18.2 381.6 17.5 Z M 387.7 18.6 C 387.7 18.6 388 18.1 388 18.1 C 388.5 18.5 389.1 18.7 389.6 18.7 C 390.2 18.7 390.6 18.4 390.6 18 C 390.6 18 390.6 17.9 390.6 17.9 C 390.6 17.5 390 17.3 389.4 17.1 C 388.7 16.9 387.9 16.7 387.9 15.8 C 387.9 15.8 387.9 15.8 387.9 15.8 C 387.9 15 388.6 14.5 389.5 14.5 C 390 14.5 390.7 14.7 391.2 15 C 391.2 15 390.8 15.5 390.8 15.5 C 390.4 15.2 389.9 15.1 389.5 15.1 C 388.9 15.1 388.6 15.3 388.6 15.7 C 388.6 15.7 388.6 15.7 388.6 15.7 C 388.6 16.2 389.1 16.4 389.8 16.5 C 390.5 16.8 391.3 17 391.3 17.9 C 391.3 17.9 391.3 17.9 391.3 17.9 C 391.3 18.8 390.5 19.3 389.6 19.3 C 388.9 19.3 388.2 19 387.7 18.6 Z M 392.2 16.9 C 392.2 16.9 392.2 16.9 392.2 16.9 C 392.2 15.5 393.1 14.4 394.4 14.4 C 395.8 14.4 396.6 15.5 396.6 16.9 C 396.6 17 396.6 17 396.6 17.1 C 396.6 17.1 392.9 17.1 392.9 17.1 C 393 18.1 393.7 18.7 394.5 18.7 C 395.1 18.7 395.6 18.4 396 18 C 396 18 396.4 18.4 396.4 18.4 C 395.9 19 395.4 19.3 394.5 19.3 C 393.2 19.3 392.2 18.3 392.2 16.9 Z M 395.9 16.6 C 395.8 15.8 395.3 15 394.4 15 C 393.6 15 393 15.7 392.9 16.6 C 392.9 16.6 395.9 16.6 395.9 16.6 Z M 397.7 14.5 L 398.4 14.5 C 398.4 14.5 398.38 15.36 398.4 15.4 C 398.7 14.9 399.2 14.4 400 14.4 C 401.1 14.4 401.8 15.2 401.8 16.3 C 401.76 16.31 401.8 19.2 401.8 19.2 L 401.1 19.2 C 401.1 19.2 401.07 16.48 401.1 16.5 C 401.1 15.6 400.6 15.1 399.8 15.1 C 399 15.1 398.4 15.7 398.4 16.5 C 398.38 16.54 398.4 19.2 398.4 19.2 L 397.7 19.2 L 397.7 14.5 Z M 403.4 18 C 403.39 17.97 403.4 15.2 403.4 15.2 L 402.7 15.2 L 402.7 14.5 L 403.4 14.5 L 403.4 13.1 L 404.1 13.1 L 404.1 14.5 L 405.6 14.5 L 405.6 15.2 L 404.1 15.2 C 404.1 15.2 404.08 17.88 404.1 17.9 C 404.1 18.4 404.4 18.7 404.9 18.7 C 405.1 18.7 405.3 18.6 405.5 18.5 C 405.5 18.5 405.5 19.1 405.5 19.1 C 405.3 19.2 405 19.3 404.7 19.3 C 404 19.3 403.4 18.9 403.4 18 Z M 406.7 12.8 L 407.5 12.8 L 407.5 13.5 L 406.7 13.5 L 406.7 12.8 Z M 406.8 14.5 L 407.4 14.5 L 407.4 19.2 L 406.8 19.2 L 406.8 14.5 Z M 409 14.5 L 409.7 14.5 C 409.7 14.5 409.66 15.33 409.7 15.3 C 410 14.9 410.4 14.4 411.2 14.4 C 411.9 14.4 412.4 14.9 412.7 15.4 C 413 14.9 413.5 14.4 414.3 14.4 C 415.4 14.4 416 15.2 416 16.3 C 416.02 16.32 416 19.2 416 19.2 L 415.3 19.2 C 415.3 19.2 415.33 16.48 415.3 16.5 C 415.3 15.6 414.9 15.1 414.1 15.1 C 413.4 15.1 412.8 15.6 412.8 16.5 C 412.85 16.52 412.8 19.2 412.8 19.2 L 412.2 19.2 C 412.2 19.2 412.15 16.46 412.2 16.5 C 412.2 15.6 411.7 15.1 411 15.1 C 410.2 15.1 409.7 15.7 409.7 16.5 C 409.66 16.54 409.7 19.2 409.7 19.2 L 409 19.2 L 409 14.5 Z M 420.8 14.5 L 421.5 14.5 C 421.5 14.5 419.57 19.35 419.6 19.4 C 419.2 20.3 418.7 20.7 418 20.7 C 417.6 20.7 417.3 20.6 417 20.4 C 417 20.4 417.3 19.9 417.3 19.9 C 417.5 20 417.7 20.1 418 20.1 C 418.4 20.1 418.7 19.8 418.9 19.2 C 418.95 19.18 416.8 14.5 416.8 14.5 L 417.6 14.5 L 419.3 18.4 L 420.8 14.5 Z M 422 16.9 C 422 16.9 422 16.9 422 16.9 C 422 15.5 422.9 14.4 424.2 14.4 C 425.6 14.4 426.4 15.5 426.4 16.9 C 426.4 17 426.4 17 426.4 17.1 C 426.4 17.1 422.7 17.1 422.7 17.1 C 422.8 18.1 423.5 18.7 424.3 18.7 C 425 18.7 425.4 18.4 425.8 18 C 425.8 18 426.2 18.4 426.2 18.4 C 425.7 19 425.2 19.3 424.3 19.3 C 423 19.3 422 18.3 422 16.9 Z M 425.7 16.6 C 425.6 15.8 425.1 15 424.2 15 C 423.4 15 422.8 15.7 422.7 16.6 C 422.7 16.6 425.7 16.6 425.7 16.6 Z M 427.5 14.5 L 428.2 14.5 C 428.2 14.5 428.19 15.36 428.2 15.4 C 428.5 14.9 429 14.4 429.8 14.4 C 430.9 14.4 431.6 15.2 431.6 16.3 C 431.56 16.31 431.6 19.2 431.6 19.2 L 430.9 19.2 C 430.9 19.2 430.87 16.48 430.9 16.5 C 430.9 15.6 430.4 15.1 429.6 15.1 C 428.8 15.1 428.2 15.7 428.2 16.5 C 428.19 16.54 428.2 19.2 428.2 19.2 L 427.5 19.2 L 427.5 14.5 Z M 433.2 18 C 433.19 17.97 433.2 15.2 433.2 15.2 L 432.5 15.2 L 432.5 14.5 L 433.2 14.5 L 433.2 13.1 L 433.9 13.1 L 433.9 14.5 L 435.4 14.5 L 435.4 15.2 L 433.9 15.2 C 433.9 15.2 433.89 17.88 433.9 17.9 C 433.9 18.4 434.2 18.7 434.7 18.7 C 434.9 18.7 435.1 18.6 435.3 18.5 C 435.3 18.5 435.3 19.1 435.3 19.1 C 435.1 19.2 434.8 19.3 434.5 19.3 C 433.8 19.3 433.2 18.9 433.2 18 Z M 436.1 16.9 C 436.1 16.9 436.1 16.9 436.1 16.9 C 436.1 15.6 437.1 14.4 438.5 14.4 C 439.9 14.4 440.9 15.5 440.9 16.9 C 440.9 16.9 440.9 16.9 440.9 16.9 C 440.9 18.2 439.9 19.3 438.5 19.3 C 437.1 19.3 436.1 18.2 436.1 16.9 Z M 440.2 16.9 C 440.2 16.9 440.2 16.9 440.2 16.9 C 440.2 15.9 439.5 15.1 438.5 15.1 C 437.5 15.1 436.8 15.9 436.8 16.9 C 436.8 16.9 436.8 16.9 436.8 16.9 C 436.8 17.9 437.5 18.7 438.5 18.7 C 439.5 18.7 440.2 17.9 440.2 16.9 Z M 446.1 17.8 C 446.1 17.8 446.1 17.8 446.1 17.8 C 446.1 16.9 446.9 16.3 448.1 16.3 C 448.7 16.3 449.1 16.4 449.5 16.5 C 449.5 16.5 449.5 16.4 449.5 16.4 C 449.5 15.5 449 15.1 448.2 15.1 C 447.6 15.1 447.2 15.2 446.7 15.4 C 446.7 15.4 446.5 14.9 446.5 14.9 C 447 14.6 447.5 14.5 448.2 14.5 C 448.9 14.5 449.4 14.7 449.7 15 C 450 15.3 450.2 15.8 450.2 16.4 C 450.2 16.36 450.2 19.2 450.2 19.2 L 449.5 19.2 C 449.5 19.2 449.54 18.5 449.5 18.5 C 449.2 18.9 448.7 19.3 447.9 19.3 C 447 19.3 446.1 18.8 446.1 17.8 Z M 449.5 17.5 C 449.5 17.5 449.5 17 449.5 17 C 449.2 16.9 448.7 16.8 448.2 16.8 C 447.3 16.8 446.8 17.2 446.8 17.8 C 446.8 17.8 446.8 17.8 446.8 17.8 C 446.8 18.4 447.4 18.8 448 18.8 C 448.8 18.8 449.5 18.2 449.5 17.5 Z M 451.8 18 C 451.79 17.97 451.8 15.2 451.8 15.2 L 451.1 15.2 L 451.1 14.5 L 451.8 14.5 L 451.8 13.1 L 452.5 13.1 L 452.5 14.5 L 454 14.5 L 454 15.2 L 452.5 15.2 C 452.5 15.2 452.48 17.88 452.5 17.9 C 452.5 18.4 452.8 18.7 453.3 18.7 C 453.5 18.7 453.7 18.6 453.9 18.5 C 453.9 18.5 453.9 19.1 453.9 19.1 C 453.7 19.2 453.4 19.3 453.1 19.3 C 452.4 19.3 451.8 18.9 451.8 18 Z " stroke="none" fill="#fff"/>
  </g>
  <g id="Polygon26140">
    <path d="M 1 0.9 L 1.7 0.9 L 1.7 7.2 L 1 7.2 L 1 0.9 Z M 5.1 1.6 L 3 1.6 L 3 0.9 L 7.9 0.9 L 7.9 1.6 L 5.8 1.6 L 5.8 7.2 L 5.1 7.2 L 5.1 1.6 Z M 9.2 0.9 L 9.9 0.9 L 9.9 7.2 L 9.2 7.2 L 9.2 0.9 Z M 11.7 0.9 L 12.4 0.9 L 16.3 5.9 L 16.3 0.9 L 17 0.9 L 17 7.2 L 16.5 7.2 L 12.4 2 L 12.4 7.2 L 11.7 7.2 L 11.7 0.9 Z M 21 0.9 L 21.7 0.9 L 24.6 7.2 L 23.8 7.2 L 23.1 5.5 L 19.6 5.5 L 18.9 7.2 L 18.2 7.2 L 21 0.9 Z M 22.8 4.9 L 21.4 1.7 L 19.9 4.9 L 22.8 4.9 Z M 26.6 1.6 L 24.5 1.6 L 24.5 0.9 L 29.4 0.9 L 29.4 1.6 L 27.3 1.6 L 27.3 7.2 L 26.6 7.2 L 26.6 1.6 Z M 32.2 0.9 L 32.8 0.9 L 35.7 7.2 L 35 7.2 L 34.2 5.5 L 30.8 5.5 L 30 7.2 L 29.3 7.2 L 32.2 0.9 Z M 33.9 4.9 L 32.5 1.7 L 31.1 4.9 L 33.9 4.9 Z M 39.2 0.9 L 39.8 0.9 L 42.7 7.2 L 41.9 7.2 L 41.2 5.5 L 37.8 5.5 L 37 7.2 L 36.3 7.2 L 39.2 0.9 Z M 40.9 4.9 L 39.5 1.7 L 38 4.9 L 40.9 4.9 Z M 43.3 6.3 C 43.3 6.3 43.7 5.8 43.7 5.8 C 44.4 6.4 45 6.7 45.9 6.7 C 46.8 6.7 47.3 6.2 47.3 5.6 C 47.3 5.6 47.3 5.6 47.3 5.6 C 47.3 5 47 4.6 45.7 4.4 C 44.2 4 43.6 3.6 43.6 2.5 C 43.6 2.5 43.6 2.5 43.6 2.5 C 43.6 1.5 44.4 0.8 45.6 0.8 C 46.5 0.8 47.2 1.1 47.8 1.6 C 47.8 1.6 47.4 2.1 47.4 2.1 C 46.8 1.7 46.3 1.4 45.6 1.4 C 44.8 1.4 44.3 1.9 44.3 2.5 C 44.3 2.5 44.3 2.5 44.3 2.5 C 44.3 3.1 44.6 3.4 46 3.7 C 47.4 4 48 4.5 48 5.5 C 48 5.5 48 5.5 48 5.5 C 48 6.6 47.1 7.3 45.9 7.3 C 44.9 7.3 44.1 7 43.3 6.3 Z M 52.7 2.5 L 53.4 2.5 C 53.4 2.5 53.36 3.36 53.4 3.4 C 53.7 2.9 54.1 2.4 54.9 2.4 C 56.1 2.4 56.7 3.2 56.7 4.3 C 56.73 4.31 56.7 7.2 56.7 7.2 L 56 7.2 C 56 7.2 56.04 4.48 56 4.5 C 56 3.6 55.6 3.1 54.8 3.1 C 54 3.1 53.4 3.7 53.4 4.5 C 53.36 4.54 53.4 7.2 53.4 7.2 L 52.7 7.2 L 52.7 2.5 Z M 58.1 8 C 58.1 8 58.4 7.5 58.4 7.5 C 58.9 7.9 59.5 8.1 60.2 8.1 C 61.2 8.1 61.9 7.5 61.9 6.4 C 61.9 6.4 61.9 5.9 61.9 5.9 C 61.5 6.4 60.9 6.8 60 6.8 C 58.9 6.8 57.8 6 57.8 4.7 C 57.8 4.7 57.8 4.6 57.8 4.6 C 57.8 3.3 58.9 2.4 60 2.4 C 60.9 2.4 61.5 2.9 61.9 3.4 C 61.85 3.38 61.9 2.5 61.9 2.5 L 62.5 2.5 C 62.5 2.5 62.54 6.39 62.5 6.4 C 62.5 7.1 62.3 7.7 62 8 C 61.5 8.5 60.9 8.7 60.2 8.7 C 59.4 8.7 58.7 8.4 58.1 8 Z M 61.9 4.7 C 61.9 4.7 61.9 4.6 61.9 4.6 C 61.9 3.7 61.1 3.1 60.2 3.1 C 59.3 3.1 58.6 3.7 58.6 4.6 C 58.6 4.6 58.6 4.6 58.6 4.6 C 58.6 5.6 59.3 6.2 60.2 6.2 C 61.1 6.2 61.9 5.6 61.9 4.7 Z M 67.4 0.6 L 68.1 0.6 L 68.1 5.2 L 70.6 2.5 L 71.5 2.5 L 69.5 4.5 L 71.5 7.2 L 70.7 7.2 L 69 5 L 68.1 6 L 68.1 7.2 L 67.4 7.2 L 67.4 0.6 Z M 72 5.8 C 72 5.8 72 5.8 72 5.8 C 72 4.9 72.8 4.3 74 4.3 C 74.6 4.3 75 4.4 75.4 4.5 C 75.4 4.5 75.4 4.4 75.4 4.4 C 75.4 3.5 74.9 3.1 74 3.1 C 73.5 3.1 73 3.2 72.6 3.4 C 72.6 3.4 72.4 2.9 72.4 2.9 C 72.9 2.6 73.4 2.5 74.1 2.5 C 74.7 2.5 75.2 2.7 75.6 3 C 75.9 3.3 76.1 3.8 76.1 4.4 C 76.07 4.36 76.1 7.2 76.1 7.2 L 75.4 7.2 C 75.4 7.2 75.4 6.5 75.4 6.5 C 75.1 6.9 74.5 7.3 73.7 7.3 C 72.9 7.3 72 6.8 72 5.8 Z M 75.4 5.5 C 75.4 5.5 75.4 5 75.4 5 C 75.1 4.9 74.6 4.8 74 4.8 C 73.2 4.8 72.7 5.2 72.7 5.8 C 72.7 5.8 72.7 5.8 72.7 5.8 C 72.7 6.4 73.2 6.8 73.9 6.8 C 74.7 6.8 75.4 6.2 75.4 5.5 Z M 78.1 6.3 C 78.15 6.31 78.1 7.2 78.1 7.2 L 77.5 7.2 L 77.5 0.6 L 78.1 0.6 C 78.1 0.6 78.15 3.48 78.1 3.5 C 78.5 2.9 79.1 2.4 79.9 2.4 C 81 2.4 82.2 3.3 82.2 4.9 C 82.2 4.9 82.2 4.9 82.2 4.9 C 82.2 6.4 81.1 7.3 79.9 7.3 C 79.1 7.3 78.5 6.8 78.1 6.3 Z M 81.4 4.9 C 81.4 4.9 81.4 4.9 81.4 4.9 C 81.4 3.8 80.7 3.1 79.8 3.1 C 78.9 3.1 78.1 3.8 78.1 4.9 C 78.1 4.9 78.1 4.9 78.1 4.9 C 78.1 6 78.9 6.7 79.8 6.7 C 80.7 6.7 81.4 6 81.4 4.9 Z M 83 5.8 C 83 5.8 83 5.8 83 5.8 C 83 4.9 83.8 4.3 85 4.3 C 85.6 4.3 86 4.4 86.4 4.5 C 86.4 4.5 86.4 4.4 86.4 4.4 C 86.4 3.5 85.9 3.1 85 3.1 C 84.5 3.1 84 3.2 83.6 3.4 C 83.6 3.4 83.4 2.9 83.4 2.9 C 83.9 2.6 84.4 2.5 85.1 2.5 C 85.8 2.5 86.3 2.7 86.6 3 C 86.9 3.3 87.1 3.8 87.1 4.4 C 87.07 4.36 87.1 7.2 87.1 7.2 L 86.4 7.2 C 86.4 7.2 86.41 6.5 86.4 6.5 C 86.1 6.9 85.5 7.3 84.7 7.3 C 83.9 7.3 83 6.8 83 5.8 Z M 86.4 5.5 C 86.4 5.5 86.4 5 86.4 5 C 86.1 4.9 85.6 4.8 85 4.8 C 84.2 4.8 83.7 5.2 83.7 5.8 C 83.7 5.8 83.7 5.8 83.7 5.8 C 83.7 6.4 84.2 6.8 84.9 6.8 C 85.7 6.8 86.4 6.2 86.4 5.5 Z M 89.2 6.3 C 89.15 6.31 89.2 7.2 89.2 7.2 L 88.5 7.2 L 88.5 0.6 L 89.2 0.6 C 89.2 0.6 89.15 3.48 89.2 3.5 C 89.5 2.9 90.1 2.4 90.9 2.4 C 92.1 2.4 93.2 3.3 93.2 4.9 C 93.2 4.9 93.2 4.9 93.2 4.9 C 93.2 6.4 92.1 7.3 90.9 7.3 C 90.1 7.3 89.5 6.8 89.2 6.3 Z M 92.4 4.9 C 92.4 4.9 92.4 4.9 92.4 4.9 C 92.4 3.8 91.7 3.1 90.8 3.1 C 89.9 3.1 89.1 3.8 89.1 4.9 C 89.1 4.9 89.1 4.9 89.1 4.9 C 89.1 6 89.9 6.7 90.8 6.7 C 91.7 6.7 92.4 6 92.4 4.9 Z M 94 5.8 C 94 5.8 94 5.8 94 5.8 C 94 4.9 94.8 4.3 96 4.3 C 96.6 4.3 97 4.4 97.4 4.5 C 97.4 4.5 97.4 4.4 97.4 4.4 C 97.4 3.5 96.9 3.1 96 3.1 C 95.5 3.1 95 3.2 94.6 3.4 C 94.6 3.4 94.4 2.9 94.4 2.9 C 94.9 2.6 95.4 2.5 96.1 2.5 C 96.8 2.5 97.3 2.7 97.6 3 C 97.9 3.3 98.1 3.8 98.1 4.4 C 98.08 4.36 98.1 7.2 98.1 7.2 L 97.4 7.2 C 97.4 7.2 97.42 6.5 97.4 6.5 C 97.1 6.9 96.6 7.3 95.7 7.3 C 94.9 7.3 94 6.8 94 5.8 Z M 97.4 5.5 C 97.4 5.5 97.4 5 97.4 5 C 97.1 4.9 96.6 4.8 96.1 4.8 C 95.2 4.8 94.7 5.2 94.7 5.8 C 94.7 5.8 94.7 5.8 94.7 5.8 C 94.7 6.4 95.2 6.8 95.9 6.8 C 96.7 6.8 97.4 6.2 97.4 5.5 Z M 99.5 0.8 L 100.3 0.8 L 100.3 1.5 L 99.5 1.5 L 99.5 0.8 Z M 99.5 2.5 L 100.2 2.5 L 100.2 7.2 L 99.5 7.2 L 99.5 2.5 Z M 101.7 0.6 L 102.4 0.6 C 102.4 0.6 102.44 3.36 102.4 3.4 C 102.7 2.9 103.2 2.4 104 2.4 C 105.2 2.4 105.8 3.2 105.8 4.3 C 105.81 4.31 105.8 7.2 105.8 7.2 L 105.1 7.2 C 105.1 7.2 105.12 4.48 105.1 4.5 C 105.1 3.6 104.7 3.1 103.8 3.1 C 103 3.1 102.4 3.7 102.4 4.5 C 102.44 4.54 102.4 7.2 102.4 7.2 L 101.7 7.2 L 101.7 0.6 Z M 106.8 5.8 C 106.8 5.8 106.8 5.8 106.8 5.8 C 106.8 4.9 107.7 4.3 108.8 4.3 C 109.4 4.3 109.9 4.4 110.3 4.5 C 110.3 4.5 110.3 4.4 110.3 4.4 C 110.3 3.5 109.8 3.1 108.9 3.1 C 108.3 3.1 107.9 3.2 107.5 3.4 C 107.5 3.4 107.3 2.9 107.3 2.9 C 107.8 2.6 108.3 2.5 109 2.5 C 109.6 2.5 110.1 2.7 110.5 3 C 110.8 3.3 110.9 3.8 110.9 4.4 C 110.93 4.36 110.9 7.2 110.9 7.2 L 110.3 7.2 C 110.3 7.2 110.27 6.5 110.3 6.5 C 109.9 6.9 109.4 7.3 108.6 7.3 C 107.7 7.3 106.8 6.8 106.8 5.8 Z M 110.3 5.5 C 110.3 5.5 110.3 5 110.3 5 C 109.9 4.9 109.5 4.8 108.9 4.8 C 108 4.8 107.5 5.2 107.5 5.8 C 107.5 5.8 107.5 5.8 107.5 5.8 C 107.5 6.4 108.1 6.8 108.7 6.8 C 109.6 6.8 110.3 6.2 110.3 5.5 Z M 112.3 2.5 L 113 2.5 C 113 2.5 113.01 3.36 113 3.4 C 113.3 2.9 113.8 2.4 114.6 2.4 C 115.7 2.4 116.4 3.2 116.4 4.3 C 116.39 4.31 116.4 7.2 116.4 7.2 L 115.7 7.2 C 115.7 7.2 115.7 4.48 115.7 4.5 C 115.7 3.6 115.2 3.1 114.4 3.1 C 113.6 3.1 113 3.7 113 4.5 C 113.01 4.54 113 7.2 113 7.2 L 112.3 7.2 L 112.3 2.5 Z M 120.8 5.8 C 120.8 5.8 120.8 5.8 120.8 5.8 C 120.8 4.9 121.6 4.3 122.8 4.3 C 123.4 4.3 123.8 4.4 124.2 4.5 C 124.2 4.5 124.2 4.4 124.2 4.4 C 124.2 3.5 123.7 3.1 122.8 3.1 C 122.3 3.1 121.9 3.2 121.4 3.4 C 121.4 3.4 121.2 2.9 121.2 2.9 C 121.7 2.6 122.2 2.5 122.9 2.5 C 123.6 2.5 124.1 2.7 124.4 3 C 124.7 3.3 124.9 3.8 124.9 4.4 C 124.9 4.36 124.9 7.2 124.9 7.2 L 124.2 7.2 C 124.2 7.2 124.23 6.5 124.2 6.5 C 123.9 6.9 123.4 7.3 122.5 7.3 C 121.7 7.3 120.8 6.8 120.8 5.8 Z M 124.2 5.5 C 124.2 5.5 124.2 5 124.2 5 C 123.9 4.9 123.4 4.8 122.9 4.8 C 122 4.8 121.5 5.2 121.5 5.8 C 121.5 5.8 121.5 5.8 121.5 5.8 C 121.5 6.4 122.1 6.8 122.7 6.8 C 123.5 6.8 124.2 6.2 124.2 5.5 Z M 126.3 2.5 L 127 2.5 C 127 2.5 126.98 3.36 127 3.4 C 127.3 2.9 127.8 2.4 128.6 2.4 C 129.7 2.4 130.4 3.2 130.4 4.3 C 130.35 4.31 130.4 7.2 130.4 7.2 L 129.7 7.2 C 129.7 7.2 129.66 4.48 129.7 4.5 C 129.7 3.6 129.2 3.1 128.4 3.1 C 127.6 3.1 127 3.7 127 4.5 C 126.98 4.54 127 7.2 127 7.2 L 126.3 7.2 L 126.3 2.5 Z M 131.7 8 C 131.7 8 132 7.5 132 7.5 C 132.5 7.9 133.1 8.1 133.8 8.1 C 134.8 8.1 135.5 7.5 135.5 6.4 C 135.5 6.4 135.5 5.9 135.5 5.9 C 135.1 6.4 134.5 6.8 133.7 6.8 C 132.5 6.8 131.5 6 131.5 4.7 C 131.5 4.7 131.5 4.6 131.5 4.6 C 131.5 3.3 132.5 2.4 133.7 2.4 C 134.5 2.4 135.1 2.9 135.5 3.4 C 135.47 3.38 135.5 2.5 135.5 2.5 L 136.2 2.5 C 136.2 2.5 136.16 6.39 136.2 6.4 C 136.2 7.1 135.9 7.7 135.6 8 C 135.2 8.5 134.5 8.7 133.8 8.7 C 133 8.7 132.3 8.4 131.7 8 Z M 135.5 4.7 C 135.5 4.7 135.5 4.6 135.5 4.6 C 135.5 3.7 134.7 3.1 133.8 3.1 C 132.9 3.1 132.2 3.7 132.2 4.6 C 132.2 4.6 132.2 4.6 132.2 4.6 C 132.2 5.6 132.9 6.2 133.8 6.2 C 134.7 6.2 135.5 5.6 135.5 4.7 Z M 141 0.6 L 141.7 0.6 L 141.7 5.2 L 144.2 2.5 L 145.1 2.5 L 143.1 4.5 L 145.1 7.2 L 144.3 7.2 L 142.6 5 L 141.7 6 L 141.7 7.2 L 141 7.2 L 141 0.6 Z M 145.6 5.8 C 145.6 5.8 145.6 5.8 145.6 5.8 C 145.6 4.9 146.4 4.3 147.6 4.3 C 148.2 4.3 148.6 4.4 149 4.5 C 149 4.5 149 4.4 149 4.4 C 149 3.5 148.5 3.1 147.6 3.1 C 147.1 3.1 146.7 3.2 146.2 3.4 C 146.2 3.4 146 2.9 146 2.9 C 146.5 2.6 147 2.5 147.7 2.5 C 148.4 2.5 148.9 2.7 149.2 3 C 149.5 3.3 149.7 3.8 149.7 4.4 C 149.69 4.36 149.7 7.2 149.7 7.2 L 149 7.2 C 149 7.2 149.02 6.5 149 6.5 C 148.7 6.9 148.2 7.3 147.3 7.3 C 146.5 7.3 145.6 6.8 145.6 5.8 Z M 149 5.5 C 149 5.5 149 5 149 5 C 148.7 4.9 148.2 4.8 147.7 4.8 C 146.8 4.8 146.3 5.2 146.3 5.8 C 146.3 5.8 146.3 5.8 146.3 5.8 C 146.3 6.4 146.8 6.8 147.5 6.8 C 148.3 6.8 149 6.2 149 5.5 Z M 151.1 2.5 L 151.8 2.5 C 151.8 2.5 151.77 3.33 151.8 3.3 C 152.1 2.9 152.5 2.4 153.3 2.4 C 154 2.4 154.5 2.9 154.8 3.4 C 155.1 2.9 155.6 2.4 156.4 2.4 C 157.5 2.4 158.1 3.2 158.1 4.3 C 158.13 4.32 158.1 7.2 158.1 7.2 L 157.4 7.2 C 157.4 7.2 157.44 4.48 157.4 4.5 C 157.4 3.6 157 3.1 156.2 3.1 C 155.5 3.1 155 3.6 155 4.5 C 154.95 4.52 155 7.2 155 7.2 L 154.3 7.2 C 154.3 7.2 154.26 4.46 154.3 4.5 C 154.3 3.6 153.8 3.1 153.1 3.1 C 152.3 3.1 151.8 3.7 151.8 4.5 C 151.77 4.54 151.8 7.2 151.8 7.2 L 151.1 7.2 L 151.1 2.5 Z M 159.2 5.8 C 159.2 5.8 159.2 5.8 159.2 5.8 C 159.2 4.9 160 4.3 161.2 4.3 C 161.8 4.3 162.2 4.4 162.6 4.5 C 162.6 4.5 162.6 4.4 162.6 4.4 C 162.6 3.5 162.1 3.1 161.2 3.1 C 160.7 3.1 160.2 3.2 159.8 3.4 C 159.8 3.4 159.6 2.9 159.6 2.9 C 160.1 2.6 160.6 2.5 161.3 2.5 C 162 2.5 162.5 2.7 162.8 3 C 163.1 3.3 163.3 3.8 163.3 4.4 C 163.28 4.36 163.3 7.2 163.3 7.2 L 162.6 7.2 C 162.6 7.2 162.61 6.5 162.6 6.5 C 162.3 6.9 161.7 7.3 160.9 7.3 C 160.1 7.3 159.2 6.8 159.2 5.8 Z M 162.6 5.5 C 162.6 5.5 162.6 5 162.6 5 C 162.3 4.9 161.8 4.8 161.3 4.8 C 160.4 4.8 159.9 5.2 159.9 5.8 C 159.9 5.8 159.9 5.8 159.9 5.8 C 159.9 6.4 160.4 6.8 161.1 6.8 C 161.9 6.8 162.6 6.2 162.6 5.5 Z M 164.7 0.6 L 165.4 0.6 L 165.4 7.2 L 164.7 7.2 L 164.7 0.6 Z M 166.6 5.8 C 166.6 5.8 166.6 5.8 166.6 5.8 C 166.6 4.9 167.4 4.3 168.6 4.3 C 169.2 4.3 169.6 4.4 170 4.5 C 170 4.5 170 4.4 170 4.4 C 170 3.5 169.5 3.1 168.6 3.1 C 168.1 3.1 167.6 3.2 167.2 3.4 C 167.2 3.4 167 2.9 167 2.9 C 167.5 2.6 168 2.5 168.7 2.5 C 169.4 2.5 169.9 2.7 170.2 3 C 170.5 3.3 170.7 3.8 170.7 4.4 C 170.68 4.36 170.7 7.2 170.7 7.2 L 170 7.2 C 170 7.2 170.01 6.5 170 6.5 C 169.7 6.9 169.1 7.3 168.3 7.3 C 167.5 7.3 166.6 6.8 166.6 5.8 Z M 170 5.5 C 170 5.5 170 5 170 5 C 169.7 4.9 169.2 4.8 168.7 4.8 C 167.8 4.8 167.3 5.2 167.3 5.8 C 167.3 5.8 167.3 5.8 167.3 5.8 C 167.3 6.4 167.8 6.8 168.5 6.8 C 169.3 6.8 170 6.2 170 5.5 Z M 175.4 2.5 L 176.1 2.5 C 176.1 2.5 174.15 7.35 174.1 7.4 C 173.8 8.3 173.3 8.7 172.6 8.7 C 172.2 8.7 171.9 8.6 171.6 8.4 C 171.6 8.4 171.8 7.9 171.8 7.9 C 172.1 8 172.3 8.1 172.6 8.1 C 173 8.1 173.2 7.8 173.5 7.2 C 173.53 7.18 171.4 2.5 171.4 2.5 L 172.2 2.5 L 173.9 6.4 L 175.4 2.5 Z M 176.5 5.8 C 176.5 5.8 176.5 5.8 176.5 5.8 C 176.5 4.9 177.3 4.3 178.5 4.3 C 179.1 4.3 179.5 4.4 180 4.5 C 180 4.5 180 4.4 180 4.4 C 180 3.5 179.4 3.1 178.6 3.1 C 178 3.1 177.6 3.2 177.2 3.4 C 177.2 3.4 176.9 2.9 176.9 2.9 C 177.5 2.6 178 2.5 178.6 2.5 C 179.3 2.5 179.8 2.7 180.1 3 C 180.5 3.3 180.6 3.8 180.6 4.4 C 180.62 4.36 180.6 7.2 180.6 7.2 L 180 7.2 C 180 7.2 179.96 6.5 180 6.5 C 179.6 6.9 179.1 7.3 178.3 7.3 C 177.4 7.3 176.5 6.8 176.5 5.8 Z M 180 5.5 C 180 5.5 180 5 180 5 C 179.6 4.9 179.2 4.8 178.6 4.8 C 177.7 4.8 177.2 5.2 177.2 5.8 C 177.2 5.8 177.2 5.8 177.2 5.8 C 177.2 6.4 177.8 6.8 178.4 6.8 C 179.3 6.8 180 6.2 180 5.5 Z M 182 2.5 L 182.7 2.5 C 182.7 2.5 182.7 3.36 182.7 3.4 C 183 2.9 183.5 2.4 184.3 2.4 C 185.4 2.4 186.1 3.2 186.1 4.3 C 186.07 4.31 186.1 7.2 186.1 7.2 L 185.4 7.2 C 185.4 7.2 185.38 4.48 185.4 4.5 C 185.4 3.6 184.9 3.1 184.1 3.1 C 183.3 3.1 182.7 3.7 182.7 4.5 C 182.7 4.54 182.7 7.2 182.7 7.2 L 182 7.2 L 182 2.5 Z M 190.8 0.6 L 191.5 0.6 C 191.5 0.6 191.54 3.36 191.5 3.4 C 191.8 2.9 192.3 2.4 193.1 2.4 C 194.3 2.4 194.9 3.2 194.9 4.3 C 194.92 4.31 194.9 7.2 194.9 7.2 L 194.2 7.2 C 194.2 7.2 194.22 4.48 194.2 4.5 C 194.2 3.6 193.8 3.1 192.9 3.1 C 192.1 3.1 191.5 3.7 191.5 4.5 C 191.54 4.54 191.5 7.2 191.5 7.2 L 190.8 7.2 L 190.8 0.6 Z M 196.3 0.8 L 197.1 0.8 L 197.1 1.5 L 196.3 1.5 L 196.3 0.8 Z M 196.4 2.5 L 197.1 2.5 L 197.1 7.2 L 196.4 7.2 L 196.4 2.5 Z M 198.6 2.5 L 199.3 2.5 C 199.3 2.5 199.27 3.36 199.3 3.4 C 199.6 2.9 200.1 2.4 200.9 2.4 C 202 2.4 202.6 3.2 202.6 4.3 C 202.65 4.31 202.6 7.2 202.6 7.2 L 202 7.2 C 202 7.2 201.96 4.48 202 4.5 C 202 3.6 201.5 3.1 200.7 3.1 C 199.9 3.1 199.3 3.7 199.3 4.5 C 199.27 4.54 199.3 7.2 199.3 7.2 L 198.6 7.2 L 198.6 2.5 Z M 204 8 C 204 8 204.3 7.5 204.3 7.5 C 204.8 7.9 205.4 8.1 206.1 8.1 C 207.1 8.1 207.8 7.5 207.8 6.4 C 207.8 6.4 207.8 5.9 207.8 5.9 C 207.4 6.4 206.8 6.8 206 6.8 C 204.8 6.8 203.8 6 203.8 4.7 C 203.8 4.7 203.8 4.6 203.8 4.6 C 203.8 3.3 204.8 2.4 206 2.4 C 206.8 2.4 207.4 2.9 207.8 3.4 C 207.77 3.38 207.8 2.5 207.8 2.5 L 208.5 2.5 C 208.5 2.5 208.46 6.39 208.5 6.4 C 208.5 7.1 208.2 7.7 207.9 8 C 207.5 8.5 206.8 8.7 206.1 8.7 C 205.3 8.7 204.6 8.4 204 8 Z M 207.8 4.7 C 207.8 4.7 207.8 4.6 207.8 4.6 C 207.8 3.7 207 3.1 206.1 3.1 C 205.2 3.1 204.5 3.7 204.5 4.6 C 204.5 4.6 204.5 4.6 204.5 4.6 C 204.5 5.6 205.2 6.2 206.1 6.2 C 207 6.2 207.8 5.6 207.8 4.7 Z M 209.9 8 C 209.9 8 210.2 7.5 210.2 7.5 C 210.7 7.9 211.3 8.1 212 8.1 C 213 8.1 213.7 7.5 213.7 6.4 C 213.7 6.4 213.7 5.9 213.7 5.9 C 213.3 6.4 212.7 6.8 211.8 6.8 C 210.7 6.8 209.7 6 209.7 4.7 C 209.7 4.7 209.7 4.6 209.7 4.6 C 209.7 3.3 210.7 2.4 211.8 2.4 C 212.7 2.4 213.3 2.9 213.7 3.4 C 213.66 3.38 213.7 2.5 213.7 2.5 L 214.3 2.5 C 214.3 2.5 214.35 6.39 214.3 6.4 C 214.3 7.1 214.1 7.7 213.8 8 C 213.3 8.5 212.7 8.7 212 8.7 C 211.2 8.7 210.5 8.4 209.9 8 Z M 213.7 4.7 C 213.7 4.7 213.7 4.6 213.7 4.6 C 213.7 3.7 212.9 3.1 212 3.1 C 211.1 3.1 210.4 3.7 210.4 4.6 C 210.4 4.6 210.4 4.6 210.4 4.6 C 210.4 5.6 211.1 6.2 212 6.2 C 212.9 6.2 213.7 5.6 213.7 4.7 Z M 215.8 0.8 L 216.6 0.8 L 216.6 1.5 L 215.8 1.5 L 215.8 0.8 Z M 215.9 2.5 L 216.6 2.5 L 216.6 7.2 L 215.9 7.2 L 215.9 2.5 Z M 218.1 0.6 L 218.8 0.6 L 218.8 7.2 L 218.1 7.2 L 218.1 0.6 Z M 223.4 6.6 C 223.4 6.6 223.7 6.1 223.7 6.1 C 224.2 6.5 224.8 6.7 225.3 6.7 C 225.9 6.7 226.3 6.4 226.3 6 C 226.3 6 226.3 5.9 226.3 5.9 C 226.3 5.5 225.7 5.3 225.1 5.1 C 224.4 4.9 223.6 4.7 223.6 3.8 C 223.6 3.8 223.6 3.8 223.6 3.8 C 223.6 3 224.3 2.5 225.2 2.5 C 225.7 2.5 226.4 2.7 226.8 3 C 226.8 3 226.5 3.5 226.5 3.5 C 226.1 3.2 225.6 3.1 225.2 3.1 C 224.6 3.1 224.3 3.3 224.3 3.7 C 224.3 3.7 224.3 3.7 224.3 3.7 C 224.3 4.2 224.8 4.4 225.4 4.5 C 226.2 4.8 226.9 5 226.9 5.9 C 226.9 5.9 226.9 5.9 226.9 5.9 C 226.9 6.8 226.2 7.3 225.3 7.3 C 224.6 7.3 223.9 7 223.4 6.6 Z M 227.8 5.8 C 227.8 5.8 227.8 5.8 227.8 5.8 C 227.8 4.9 228.6 4.3 229.8 4.3 C 230.4 4.3 230.8 4.4 231.2 4.5 C 231.2 4.5 231.2 4.4 231.2 4.4 C 231.2 3.5 230.7 3.1 229.8 3.1 C 229.3 3.1 228.8 3.2 228.4 3.4 C 228.4 3.4 228.2 2.9 228.2 2.9 C 228.7 2.6 229.2 2.5 229.9 2.5 C 230.6 2.5 231.1 2.7 231.4 3 C 231.7 3.3 231.9 3.8 231.9 4.4 C 231.87 4.36 231.9 7.2 231.9 7.2 L 231.2 7.2 C 231.2 7.2 231.21 6.5 231.2 6.5 C 230.9 6.9 230.3 7.3 229.5 7.3 C 228.7 7.3 227.8 6.8 227.8 5.8 Z M 231.2 5.5 C 231.2 5.5 231.2 5 231.2 5 C 230.9 4.9 230.4 4.8 229.9 4.8 C 229 4.8 228.5 5.2 228.5 5.8 C 228.5 5.8 228.5 5.8 228.5 5.8 C 228.5 6.4 229 6.8 229.7 6.8 C 230.5 6.8 231.2 6.2 231.2 5.5 Z M 236.7 2.5 L 237.3 2.5 C 237.3 2.5 237.34 3.36 237.3 3.4 C 237.6 2.9 238.1 2.4 238.9 2.4 C 240.1 2.4 240.7 3.2 240.7 4.3 C 240.72 4.31 240.7 7.2 240.7 7.2 L 240 7.2 C 240 7.2 240.03 4.48 240 4.5 C 240 3.6 239.6 3.1 238.7 3.1 C 237.9 3.1 237.3 3.7 237.3 4.5 C 237.34 4.54 237.3 7.2 237.3 7.2 L 236.7 7.2 L 236.7 2.5 Z M 241.8 5.8 C 241.8 5.8 241.8 5.8 241.8 5.8 C 241.8 4.9 242.6 4.3 243.7 4.3 C 244.3 4.3 244.8 4.4 245.2 4.5 C 245.2 4.5 245.2 4.4 245.2 4.4 C 245.2 3.5 244.7 3.1 243.8 3.1 C 243.2 3.1 242.8 3.2 242.4 3.4 C 242.4 3.4 242.2 2.9 242.2 2.9 C 242.7 2.6 243.2 2.5 243.9 2.5 C 244.5 2.5 245 2.7 245.4 3 C 245.7 3.3 245.8 3.8 245.8 4.4 C 245.84 4.36 245.8 7.2 245.8 7.2 L 245.2 7.2 C 245.2 7.2 245.17 6.5 245.2 6.5 C 244.8 6.9 244.3 7.3 243.5 7.3 C 242.6 7.3 241.8 6.8 241.8 5.8 Z M 245.2 5.5 C 245.2 5.5 245.2 5 245.2 5 C 244.8 4.9 244.4 4.8 243.8 4.8 C 242.9 4.8 242.5 5.2 242.5 5.8 C 242.5 5.8 242.5 5.8 242.5 5.8 C 242.5 6.4 243 6.8 243.6 6.8 C 244.5 6.8 245.2 6.2 245.2 5.5 Z M 247.2 2.5 L 247.9 2.5 C 247.9 2.5 247.92 3.76 247.9 3.8 C 248.3 3 248.9 2.4 249.8 2.5 C 249.82 2.47 249.8 3.2 249.8 3.2 C 249.8 3.2 249.76 3.21 249.8 3.2 C 248.7 3.2 247.9 3.9 247.9 5.3 C 247.92 5.35 247.9 7.2 247.9 7.2 L 247.2 7.2 L 247.2 2.5 Z M 250.2 5.8 C 250.2 5.8 250.2 5.8 250.2 5.8 C 250.2 4.9 251 4.3 252.2 4.3 C 252.8 4.3 253.2 4.4 253.6 4.5 C 253.6 4.5 253.6 4.4 253.6 4.4 C 253.6 3.5 253.1 3.1 252.2 3.1 C 251.7 3.1 251.3 3.2 250.8 3.4 C 250.8 3.4 250.6 2.9 250.6 2.9 C 251.1 2.6 251.6 2.5 252.3 2.5 C 253 2.5 253.5 2.7 253.8 3 C 254.1 3.3 254.3 3.8 254.3 4.4 C 254.29 4.36 254.3 7.2 254.3 7.2 L 253.6 7.2 C 253.6 7.2 253.62 6.5 253.6 6.5 C 253.3 6.9 252.8 7.3 251.9 7.3 C 251.1 7.3 250.2 6.8 250.2 5.8 Z M 253.6 5.5 C 253.6 5.5 253.6 5 253.6 5 C 253.3 4.9 252.8 4.8 252.3 4.8 C 251.4 4.8 250.9 5.2 250.9 5.8 C 250.9 5.8 250.9 5.8 250.9 5.8 C 250.9 6.4 251.4 6.8 252.1 6.8 C 252.9 6.8 253.6 6.2 253.6 5.5 Z M 255.7 2.5 L 256.4 2.5 C 256.4 2.5 256.37 3.76 256.4 3.8 C 256.7 3 257.4 2.4 258.3 2.5 C 258.27 2.47 258.3 3.2 258.3 3.2 C 258.3 3.2 258.21 3.21 258.2 3.2 C 257.2 3.2 256.4 3.9 256.4 5.3 C 256.37 5.35 256.4 7.2 256.4 7.2 L 255.7 7.2 L 255.7 2.5 Z M 258.7 5.8 C 258.7 5.8 258.7 5.8 258.7 5.8 C 258.7 4.9 259.5 4.3 260.6 4.3 C 261.2 4.3 261.7 4.4 262.1 4.5 C 262.1 4.5 262.1 4.4 262.1 4.4 C 262.1 3.5 261.6 3.1 260.7 3.1 C 260.1 3.1 259.7 3.2 259.3 3.4 C 259.3 3.4 259.1 2.9 259.1 2.9 C 259.6 2.6 260.1 2.5 260.8 2.5 C 261.4 2.5 261.9 2.7 262.3 3 C 262.6 3.3 262.7 3.8 262.7 4.4 C 262.74 4.36 262.7 7.2 262.7 7.2 L 262.1 7.2 C 262.1 7.2 262.08 6.5 262.1 6.5 C 261.8 6.9 261.2 7.3 260.4 7.3 C 259.5 7.3 258.7 6.8 258.7 5.8 Z M 262.1 5.5 C 262.1 5.5 262.1 5 262.1 5 C 261.7 4.9 261.3 4.8 260.7 4.8 C 259.8 4.8 259.4 5.2 259.4 5.8 C 259.4 5.8 259.4 5.8 259.4 5.8 C 259.4 6.4 259.9 6.8 260.5 6.8 C 261.4 6.8 262.1 6.2 262.1 5.5 Z M 264.1 2.5 L 264.8 2.5 C 264.8 2.5 264.82 3.48 264.8 3.5 C 265.2 2.9 265.7 2.4 266.6 2.4 C 267.7 2.4 268.8 3.3 268.8 4.9 C 268.8 4.9 268.8 4.9 268.8 4.9 C 268.8 6.4 267.7 7.3 266.6 7.3 C 265.7 7.3 265.2 6.8 264.8 6.3 C 264.82 6.31 264.8 8.6 264.8 8.6 L 264.1 8.6 L 264.1 2.5 Z M 268.1 4.9 C 268.1 4.9 268.1 4.9 268.1 4.9 C 268.1 3.8 267.4 3.1 266.5 3.1 C 265.6 3.1 264.8 3.8 264.8 4.9 C 264.8 4.9 264.8 4.9 264.8 4.9 C 264.8 6 265.6 6.7 266.5 6.7 C 267.4 6.7 268.1 6 268.1 4.9 Z M 269.7 5.8 C 269.7 5.8 269.7 5.8 269.7 5.8 C 269.7 4.9 270.5 4.3 271.7 4.3 C 272.2 4.3 272.7 4.4 273.1 4.5 C 273.1 4.5 273.1 4.4 273.1 4.4 C 273.1 3.5 272.6 3.1 271.7 3.1 C 271.1 3.1 270.7 3.2 270.3 3.4 C 270.3 3.4 270.1 2.9 270.1 2.9 C 270.6 2.6 271.1 2.5 271.8 2.5 C 272.4 2.5 272.9 2.7 273.3 3 C 273.6 3.3 273.7 3.8 273.7 4.4 C 273.75 4.36 273.7 7.2 273.7 7.2 L 273.1 7.2 C 273.1 7.2 273.08 6.5 273.1 6.5 C 272.8 6.9 272.2 7.3 271.4 7.3 C 270.5 7.3 269.7 6.8 269.7 5.8 Z M 273.1 5.5 C 273.1 5.5 273.1 5 273.1 5 C 272.7 4.9 272.3 4.8 271.7 4.8 C 270.8 4.8 270.4 5.2 270.4 5.8 C 270.4 5.8 270.4 5.8 270.4 5.8 C 270.4 6.4 270.9 6.8 271.5 6.8 C 272.4 6.8 273.1 6.2 273.1 5.5 Z M 275.3 6 C 275.33 5.97 275.3 3.2 275.3 3.2 L 274.7 3.2 L 274.7 2.5 L 275.3 2.5 L 275.3 1.1 L 276 1.1 L 276 2.5 L 277.5 2.5 L 277.5 3.2 L 276 3.2 C 276 3.2 276.02 5.88 276 5.9 C 276 6.4 276.3 6.7 276.8 6.7 C 277 6.7 277.2 6.6 277.5 6.5 C 277.5 6.5 277.5 7.1 277.5 7.1 C 277.2 7.2 277 7.3 276.6 7.3 C 275.9 7.3 275.3 6.9 275.3 6 Z M 282 2.5 L 282.7 2.5 C 282.7 2.5 282.72 3.36 282.7 3.4 C 283 2.9 283.5 2.4 284.3 2.4 C 285.4 2.4 286.1 3.2 286.1 4.3 C 286.09 4.31 286.1 7.2 286.1 7.2 L 285.4 7.2 C 285.4 7.2 285.4 4.48 285.4 4.5 C 285.4 3.6 284.9 3.1 284.1 3.1 C 283.3 3.1 282.7 3.7 282.7 4.5 C 282.72 4.54 282.7 7.2 282.7 7.2 L 282 7.2 L 282 2.5 Z M 287.1 5.8 C 287.1 5.8 287.1 5.8 287.1 5.8 C 287.1 4.9 287.9 4.3 289.1 4.3 C 289.7 4.3 290.1 4.4 290.5 4.5 C 290.5 4.5 290.5 4.4 290.5 4.4 C 290.5 3.5 290 3.1 289.2 3.1 C 288.6 3.1 288.2 3.2 287.7 3.4 C 287.7 3.4 287.5 2.9 287.5 2.9 C 288.1 2.6 288.6 2.5 289.2 2.5 C 289.9 2.5 290.4 2.7 290.7 3 C 291.1 3.3 291.2 3.8 291.2 4.4 C 291.21 4.36 291.2 7.2 291.2 7.2 L 290.5 7.2 C 290.5 7.2 290.55 6.5 290.5 6.5 C 290.2 6.9 289.7 7.3 288.9 7.3 C 288 7.3 287.1 6.8 287.1 5.8 Z M 290.6 5.5 C 290.6 5.5 290.6 5 290.6 5 C 290.2 4.9 289.8 4.8 289.2 4.8 C 288.3 4.8 287.8 5.2 287.8 5.8 C 287.8 5.8 287.8 5.8 287.8 5.8 C 287.8 6.4 288.4 6.8 289 6.8 C 289.9 6.8 290.6 6.2 290.6 5.5 Z M 296 2.5 L 296.7 2.5 C 296.7 2.5 296.68 3.48 296.7 3.5 C 297.1 2.9 297.6 2.4 298.5 2.4 C 299.6 2.4 300.7 3.3 300.7 4.9 C 300.7 4.9 300.7 4.9 300.7 4.9 C 300.7 6.4 299.6 7.3 298.5 7.3 C 297.6 7.3 297 6.8 296.7 6.3 C 296.68 6.31 296.7 8.6 296.7 8.6 L 296 8.6 L 296 2.5 Z M 300 4.9 C 300 4.9 300 4.9 300 4.9 C 300 3.8 299.2 3.1 298.3 3.1 C 297.5 3.1 296.7 3.8 296.7 4.9 C 296.7 4.9 296.7 4.9 296.7 4.9 C 296.7 6 297.5 6.7 298.3 6.7 C 299.2 6.7 300 6 300 4.9 Z M 301.5 5.8 C 301.5 5.8 301.5 5.8 301.5 5.8 C 301.5 4.9 302.3 4.3 303.5 4.3 C 304.1 4.3 304.5 4.4 304.9 4.5 C 304.9 4.5 304.9 4.4 304.9 4.4 C 304.9 3.5 304.4 3.1 303.6 3.1 C 303 3.1 302.6 3.2 302.1 3.4 C 302.1 3.4 301.9 2.9 301.9 2.9 C 302.4 2.6 303 2.5 303.6 2.5 C 304.3 2.5 304.8 2.7 305.1 3 C 305.4 3.3 305.6 3.8 305.6 4.4 C 305.61 4.36 305.6 7.2 305.6 7.2 L 304.9 7.2 C 304.9 7.2 304.94 6.5 304.9 6.5 C 304.6 6.9 304.1 7.3 303.3 7.3 C 302.4 7.3 301.5 6.8 301.5 5.8 Z M 305 5.5 C 305 5.5 305 5 305 5 C 304.6 4.9 304.2 4.8 303.6 4.8 C 302.7 4.8 302.2 5.2 302.2 5.8 C 302.2 5.8 302.2 5.8 302.2 5.8 C 302.2 6.4 302.8 6.8 303.4 6.8 C 304.2 6.8 305 6.2 305 5.5 Z M 306.9 8 C 306.9 8 307.3 7.5 307.3 7.5 C 307.8 7.9 308.4 8.1 309 8.1 C 310.1 8.1 310.7 7.5 310.7 6.4 C 310.7 6.4 310.7 5.9 310.7 5.9 C 310.3 6.4 309.8 6.8 308.9 6.8 C 307.8 6.8 306.7 6 306.7 4.7 C 306.7 4.7 306.7 4.6 306.7 4.6 C 306.7 3.3 307.8 2.4 308.9 2.4 C 309.8 2.4 310.4 2.9 310.7 3.4 C 310.73 3.38 310.7 2.5 310.7 2.5 L 311.4 2.5 C 311.4 2.5 311.42 6.39 311.4 6.4 C 311.4 7.1 311.2 7.7 310.8 8 C 310.4 8.5 309.8 8.7 309.1 8.7 C 308.3 8.7 307.6 8.4 306.9 8 Z M 310.8 4.7 C 310.8 4.7 310.8 4.6 310.8 4.6 C 310.8 3.7 309.9 3.1 309 3.1 C 308.2 3.1 307.4 3.7 307.4 4.6 C 307.4 4.6 307.4 4.6 307.4 4.6 C 307.4 5.6 308.2 6.2 309 6.2 C 309.9 6.2 310.8 5.6 310.8 4.7 Z M 312.9 0.6 L 313.6 0.6 L 313.6 5.2 L 316.1 2.5 L 316.9 2.5 L 315 4.5 L 317 7.2 L 316.2 7.2 L 314.5 5 L 313.6 6 L 313.6 7.2 L 312.9 7.2 L 312.9 0.6 Z M 317.5 5.8 C 317.5 5.8 317.5 5.8 317.5 5.8 C 317.5 4.9 318.3 4.3 319.5 4.3 C 320.1 4.3 320.5 4.4 320.9 4.5 C 320.9 4.5 320.9 4.4 320.9 4.4 C 320.9 3.5 320.4 3.1 319.5 3.1 C 319 3.1 318.5 3.2 318.1 3.4 C 318.1 3.4 317.9 2.9 317.9 2.9 C 318.4 2.6 318.9 2.5 319.6 2.5 C 320.2 2.5 320.7 2.7 321.1 3 C 321.4 3.3 321.6 3.8 321.6 4.4 C 321.56 4.36 321.6 7.2 321.6 7.2 L 320.9 7.2 C 320.9 7.2 320.89 6.5 320.9 6.5 C 320.6 6.9 320 7.3 319.2 7.3 C 318.3 7.3 317.5 6.8 317.5 5.8 Z M 320.9 5.5 C 320.9 5.5 320.9 5 320.9 5 C 320.6 4.9 320.1 4.8 319.5 4.8 C 318.7 4.8 318.2 5.2 318.2 5.8 C 318.2 5.8 318.2 5.8 318.2 5.8 C 318.2 6.4 318.7 6.8 319.3 6.8 C 320.2 6.8 320.9 6.2 320.9 5.5 Z M 322.9 0.6 L 323.6 0.6 L 323.6 5.2 L 326.1 2.5 L 327 2.5 L 325.1 4.5 L 327.1 7.2 L 326.2 7.2 L 324.6 5 L 323.6 6 L 323.6 7.2 L 322.9 7.2 L 322.9 0.6 Z M 327.5 5.8 C 327.5 5.8 327.5 5.8 327.5 5.8 C 327.5 4.9 328.3 4.3 329.5 4.3 C 330.1 4.3 330.5 4.4 331 4.5 C 331 4.5 331 4.4 331 4.4 C 331 3.5 330.4 3.1 329.6 3.1 C 329 3.1 328.6 3.2 328.2 3.4 C 328.2 3.4 327.9 2.9 327.9 2.9 C 328.5 2.6 329 2.5 329.6 2.5 C 330.3 2.5 330.8 2.7 331.1 3 C 331.5 3.3 331.6 3.8 331.6 4.4 C 331.62 4.36 331.6 7.2 331.6 7.2 L 331 7.2 C 331 7.2 330.95 6.5 331 6.5 C 330.6 6.9 330.1 7.3 329.3 7.3 C 328.4 7.3 327.5 6.8 327.5 5.8 Z M 331 5.5 C 331 5.5 331 5 331 5 C 330.6 4.9 330.2 4.8 329.6 4.8 C 328.7 4.8 328.2 5.2 328.2 5.8 C 328.2 5.8 328.2 5.8 328.2 5.8 C 328.2 6.4 328.8 6.8 329.4 6.8 C 330.3 6.8 331 6.2 331 5.5 Z M 333 2.5 L 333.7 2.5 C 333.7 2.5 333.7 3.76 333.7 3.8 C 334 3 334.7 2.4 335.6 2.5 C 335.6 2.47 335.6 3.2 335.6 3.2 C 335.6 3.2 335.54 3.21 335.5 3.2 C 334.5 3.2 333.7 3.9 333.7 5.3 C 333.7 5.35 333.7 7.2 333.7 7.2 L 333 7.2 L 333 2.5 Z M 336.1 4.9 C 336.1 4.9 336.1 4.9 336.1 4.9 C 336.1 3.6 337.1 2.4 338.5 2.4 C 339.9 2.4 340.9 3.5 340.9 4.9 C 340.9 4.9 340.9 4.9 340.9 4.9 C 340.9 6.2 339.9 7.3 338.5 7.3 C 337.1 7.3 336.1 6.2 336.1 4.9 Z M 340.2 4.9 C 340.2 4.9 340.2 4.9 340.2 4.9 C 340.2 3.9 339.5 3.1 338.5 3.1 C 337.5 3.1 336.8 3.9 336.8 4.9 C 336.8 4.9 336.8 4.9 336.8 4.9 C 336.8 5.9 337.5 6.7 338.5 6.7 C 339.5 6.7 340.2 5.9 340.2 4.9 Z M 341.8 4.9 C 341.8 4.9 341.8 4.9 341.8 4.9 C 341.8 3.6 342.8 2.4 344.2 2.4 C 345.6 2.4 346.6 3.5 346.6 4.9 C 346.6 4.9 346.6 4.9 346.6 4.9 C 346.6 6.2 345.6 7.3 344.2 7.3 C 342.8 7.3 341.8 6.2 341.8 4.9 Z M 345.9 4.9 C 345.9 4.9 345.9 4.9 345.9 4.9 C 345.9 3.9 345.2 3.1 344.2 3.1 C 343.2 3.1 342.5 3.9 342.5 4.9 C 342.5 4.9 342.5 4.9 342.5 4.9 C 342.5 5.9 343.2 6.7 344.2 6.7 C 345.2 6.7 345.9 5.9 345.9 4.9 Z M 347.8 2.5 L 348.5 2.5 C 348.5 2.5 348.5 3.36 348.5 3.4 C 348.8 2.9 349.3 2.4 350.1 2.4 C 351.2 2.4 351.9 3.2 351.9 4.3 C 351.88 4.31 351.9 7.2 351.9 7.2 L 351.2 7.2 C 351.2 7.2 351.18 4.48 351.2 4.5 C 351.2 3.6 350.7 3.1 349.9 3.1 C 349.1 3.1 348.5 3.7 348.5 4.5 C 348.5 4.54 348.5 7.2 348.5 7.2 L 347.8 7.2 L 347.8 2.5 Z M 356.7 2.5 L 357.3 2.5 C 357.3 2.5 357.34 3.36 357.3 3.4 C 357.7 2.9 358.1 2.4 358.9 2.4 C 360.1 2.4 360.7 3.2 360.7 4.3 C 360.72 4.31 360.7 7.2 360.7 7.2 L 360 7.2 C 360 7.2 360.03 4.48 360 4.5 C 360 3.6 359.6 3.1 358.7 3.1 C 357.9 3.1 357.3 3.7 357.3 4.5 C 357.34 4.54 357.3 7.2 357.3 7.2 L 356.7 7.2 L 356.7 2.5 Z M 362.1 8 C 362.1 8 362.4 7.5 362.4 7.5 C 362.9 7.9 363.5 8.1 364.2 8.1 C 365.2 8.1 365.9 7.5 365.9 6.4 C 365.9 6.4 365.9 5.9 365.9 5.9 C 365.4 6.4 364.9 6.8 364 6.8 C 362.9 6.8 361.8 6 361.8 4.7 C 361.8 4.7 361.8 4.6 361.8 4.6 C 361.8 3.3 362.9 2.4 364 2.4 C 364.9 2.4 365.5 2.9 365.8 3.4 C 365.84 3.38 365.8 2.5 365.8 2.5 L 366.5 2.5 C 366.5 2.5 366.53 6.39 366.5 6.4 C 366.5 7.1 366.3 7.7 365.9 8 C 365.5 8.5 364.9 8.7 364.2 8.7 C 363.4 8.7 362.7 8.4 362.1 8 Z M 365.9 4.7 C 365.9 4.7 365.9 4.6 365.9 4.6 C 365.9 3.7 365 3.1 364.2 3.1 C 363.3 3.1 362.5 3.7 362.5 4.6 C 362.5 4.6 362.5 4.6 362.5 4.6 C 362.5 5.6 363.3 6.2 364.2 6.2 C 365 6.2 365.9 5.6 365.9 4.7 Z M 371.4 0.6 L 372.1 0.6 L 372.1 5.2 L 374.6 2.5 L 375.4 2.5 L 373.5 4.5 L 375.5 7.2 L 374.7 7.2 L 373 5 L 372.1 6 L 372.1 7.2 L 371.4 7.2 L 371.4 0.6 Z M 375.9 4.9 C 375.9 4.9 375.9 4.9 375.9 4.9 C 375.9 3.6 376.9 2.4 378.3 2.4 C 379.7 2.4 380.7 3.5 380.7 4.9 C 380.7 4.9 380.7 4.9 380.7 4.9 C 380.7 6.2 379.7 7.3 378.3 7.3 C 376.9 7.3 375.9 6.2 375.9 4.9 Z M 380 4.9 C 380 4.9 380 4.9 380 4.9 C 380 3.9 379.3 3.1 378.3 3.1 C 377.3 3.1 376.6 3.9 376.6 4.9 C 376.6 4.9 376.6 4.9 376.6 4.9 C 376.6 5.9 377.3 6.7 378.3 6.7 C 379.3 6.7 380 5.9 380 4.9 Z M 381.9 2.5 L 382.6 2.5 C 382.6 2.5 382.6 3.36 382.6 3.4 C 382.9 2.9 383.4 2.4 384.2 2.4 C 385.3 2.4 386 3.2 386 4.3 C 385.98 4.31 386 7.2 386 7.2 L 385.3 7.2 C 385.3 7.2 385.29 4.48 385.3 4.5 C 385.3 3.6 384.8 3.1 384 3.1 C 383.2 3.1 382.6 3.7 382.6 4.5 C 382.6 4.54 382.6 7.2 382.6 7.2 L 381.9 7.2 L 381.9 2.5 Z M 387.6 6 C 387.61 5.97 387.6 3.2 387.6 3.2 L 387 3.2 L 387 2.5 L 387.6 2.5 L 387.6 1.1 L 388.3 1.1 L 388.3 2.5 L 389.8 2.5 L 389.8 3.2 L 388.3 3.2 C 388.3 3.2 388.3 5.88 388.3 5.9 C 388.3 6.4 388.6 6.7 389.1 6.7 C 389.3 6.7 389.5 6.6 389.8 6.5 C 389.8 6.5 389.8 7.1 389.8 7.1 C 389.5 7.2 389.3 7.3 388.9 7.3 C 388.2 7.3 387.6 6.9 387.6 6 Z M 390.9 2.5 L 391.6 2.5 C 391.6 2.5 391.6 3.76 391.6 3.8 C 391.9 3 392.6 2.4 393.5 2.5 C 393.5 2.47 393.5 3.2 393.5 3.2 C 393.5 3.2 393.45 3.21 393.4 3.2 C 392.4 3.2 391.6 3.9 391.6 5.3 C 391.6 5.35 391.6 7.2 391.6 7.2 L 390.9 7.2 L 390.9 2.5 Z M 394 4.9 C 394 4.9 394 4.9 394 4.9 C 394 3.6 395 2.4 396.4 2.4 C 397.8 2.4 398.8 3.5 398.8 4.9 C 398.8 4.9 398.8 4.9 398.8 4.9 C 398.8 6.2 397.8 7.3 396.4 7.3 C 395 7.3 394 6.2 394 4.9 Z M 398.1 4.9 C 398.1 4.9 398.1 4.9 398.1 4.9 C 398.1 3.9 397.4 3.1 396.4 3.1 C 395.4 3.1 394.7 3.9 394.7 4.9 C 394.7 4.9 394.7 4.9 394.7 4.9 C 394.7 5.9 395.4 6.7 396.4 6.7 C 397.4 6.7 398.1 5.9 398.1 4.9 Z M 400.1 0.6 L 400.7 0.6 L 400.7 7.2 L 400.1 7.2 L 400.1 0.6 Z M 405.3 6.6 C 405.3 6.6 405.6 6.1 405.6 6.1 C 406.1 6.5 406.7 6.7 407.2 6.7 C 407.8 6.7 408.2 6.4 408.2 6 C 408.2 6 408.2 5.9 408.2 5.9 C 408.2 5.5 407.6 5.3 407 5.1 C 406.3 4.9 405.5 4.7 405.5 3.8 C 405.5 3.8 405.5 3.8 405.5 3.8 C 405.5 3 406.2 2.5 407.1 2.5 C 407.6 2.5 408.3 2.7 408.8 3 C 408.8 3 408.4 3.5 408.4 3.5 C 408 3.2 407.5 3.1 407.1 3.1 C 406.5 3.1 406.2 3.3 406.2 3.7 C 406.2 3.7 406.2 3.7 406.2 3.7 C 406.2 4.2 406.7 4.4 407.4 4.5 C 408.1 4.8 408.9 5 408.9 5.9 C 408.9 5.9 408.9 5.9 408.9 5.9 C 408.9 6.8 408.1 7.3 407.2 7.3 C 406.5 7.3 405.8 7 405.3 6.6 Z M 409.7 5.8 C 409.7 5.8 409.7 5.8 409.7 5.8 C 409.7 4.9 410.5 4.3 411.7 4.3 C 412.3 4.3 412.7 4.4 413.1 4.5 C 413.1 4.5 413.1 4.4 413.1 4.4 C 413.1 3.5 412.6 3.1 411.7 3.1 C 411.2 3.1 410.8 3.2 410.3 3.4 C 410.3 3.4 410.1 2.9 410.1 2.9 C 410.6 2.6 411.1 2.5 411.8 2.5 C 412.5 2.5 413 2.7 413.3 3 C 413.6 3.3 413.8 3.8 413.8 4.4 C 413.78 4.36 413.8 7.2 413.8 7.2 L 413.1 7.2 C 413.1 7.2 413.12 6.5 413.1 6.5 C 412.8 6.9 412.3 7.3 411.4 7.3 C 410.6 7.3 409.7 6.8 409.7 5.8 Z M 413.1 5.5 C 413.1 5.5 413.1 5 413.1 5 C 412.8 4.9 412.3 4.8 411.8 4.8 C 410.9 4.8 410.4 5.2 410.4 5.8 C 410.4 5.8 410.4 5.8 410.4 5.8 C 410.4 6.4 410.9 6.8 411.6 6.8 C 412.4 6.8 413.1 6.2 413.1 5.5 Z M 418.6 0.6 L 419.3 0.6 L 419.3 5.2 L 421.8 2.5 L 422.6 2.5 L 420.7 4.5 L 422.7 7.2 L 421.9 7.2 L 420.2 5 L 419.3 6 L 419.3 7.2 L 418.6 7.2 L 418.6 0.6 Z M 423.1 5.8 C 423.1 5.8 423.1 5.8 423.1 5.8 C 423.1 4.9 424 4.3 425.1 4.3 C 425.7 4.3 426.2 4.4 426.6 4.5 C 426.6 4.5 426.6 4.4 426.6 4.4 C 426.6 3.5 426.1 3.1 425.2 3.1 C 424.6 3.1 424.2 3.2 423.8 3.4 C 423.8 3.4 423.6 2.9 423.6 2.9 C 424.1 2.6 424.6 2.5 425.3 2.5 C 425.9 2.5 426.4 2.7 426.8 3 C 427.1 3.3 427.2 3.8 427.2 4.4 C 427.23 4.36 427.2 7.2 427.2 7.2 L 426.6 7.2 C 426.6 7.2 426.57 6.5 426.6 6.5 C 426.2 6.9 425.7 7.3 424.9 7.3 C 424 7.3 423.1 6.8 423.1 5.8 Z M 426.6 5.5 C 426.6 5.5 426.6 5 426.6 5 C 426.2 4.9 425.8 4.8 425.2 4.8 C 424.3 4.8 423.9 5.2 423.9 5.8 C 423.9 5.8 423.9 5.8 423.9 5.8 C 423.9 6.4 424.4 6.8 425 6.8 C 425.9 6.8 426.6 6.2 426.6 5.5 Z M 428.6 2.5 L 429.3 2.5 C 429.3 2.5 429.31 3.36 429.3 3.4 C 429.6 2.9 430.1 2.4 430.9 2.4 C 432 2.4 432.7 3.2 432.7 4.3 C 432.69 4.31 432.7 7.2 432.7 7.2 L 432 7.2 C 432 7.2 432 4.48 432 4.5 C 432 3.6 431.5 3.1 430.7 3.1 C 429.9 3.1 429.3 3.7 429.3 4.5 C 429.31 4.54 429.3 7.2 429.3 7.2 L 428.6 7.2 L 428.6 2.5 Z M 434.1 0.8 L 434.9 0.8 L 434.9 1.5 L 434.1 1.5 L 434.1 0.8 Z M 434.1 2.5 L 434.8 2.5 L 434.8 7.2 L 434.1 7.2 L 434.1 2.5 Z M 436.4 0.6 L 437.1 0.6 L 437.1 7.2 L 436.4 7.2 L 436.4 0.6 Z M 438.3 5.8 C 438.3 5.8 438.3 5.8 438.3 5.8 C 438.3 4.9 439.1 4.3 440.3 4.3 C 440.9 4.3 441.3 4.4 441.7 4.5 C 441.7 4.5 441.7 4.4 441.7 4.4 C 441.7 3.5 441.2 3.1 440.3 3.1 C 439.8 3.1 439.3 3.2 438.9 3.4 C 438.9 3.4 438.7 2.9 438.7 2.9 C 439.2 2.6 439.7 2.5 440.4 2.5 C 441 2.5 441.5 2.7 441.9 3 C 442.2 3.3 442.4 3.8 442.4 4.4 C 442.36 4.36 442.4 7.2 442.4 7.2 L 441.7 7.2 C 441.7 7.2 441.7 6.5 441.7 6.5 C 441.4 6.9 440.8 7.3 440 7.3 C 439.2 7.3 438.3 6.8 438.3 5.8 Z M 441.7 5.5 C 441.7 5.5 441.7 5 441.7 5 C 441.4 4.9 440.9 4.8 440.3 4.8 C 439.5 4.8 439 5.2 439 5.8 C 439 5.8 439 5.8 439 5.8 C 439 6.4 439.5 6.8 440.1 6.8 C 441 6.8 441.7 6.2 441.7 5.5 Z M 443.8 2.5 L 444.4 2.5 C 444.4 2.5 444.44 3.36 444.4 3.4 C 444.7 2.9 445.2 2.4 446 2.4 C 447.2 2.4 447.8 3.2 447.8 4.3 C 447.82 4.31 447.8 7.2 447.8 7.2 L 447.1 7.2 C 447.1 7.2 447.13 4.48 447.1 4.5 C 447.1 3.6 446.7 3.1 445.8 3.1 C 445 3.1 444.4 3.7 444.4 4.5 C 444.44 4.54 444.4 7.2 444.4 7.2 L 443.8 7.2 L 443.8 2.5 Z M 449.1 8 C 449.1 8 449.5 7.5 449.5 7.5 C 450 7.9 450.6 8.1 451.3 8.1 C 452.3 8.1 452.9 7.5 452.9 6.4 C 452.9 6.4 452.9 5.9 452.9 5.9 C 452.5 6.4 452 6.8 451.1 6.8 C 450 6.8 448.9 6 448.9 4.7 C 448.9 4.7 448.9 4.6 448.9 4.6 C 448.9 3.3 450 2.4 451.1 2.4 C 452 2.4 452.6 2.9 452.9 3.4 C 452.94 3.38 452.9 2.5 452.9 2.5 L 453.6 2.5 C 453.6 2.5 453.63 6.39 453.6 6.4 C 453.6 7.1 453.4 7.7 453 8 C 452.6 8.5 452 8.7 451.3 8.7 C 450.5 8.7 449.8 8.4 449.1 8 Z M 453 4.7 C 453 4.7 453 4.6 453 4.6 C 453 3.7 452.1 3.1 451.3 3.1 C 450.4 3.1 449.6 3.7 449.6 4.6 C 449.6 4.6 449.6 4.6 449.6 4.6 C 449.6 5.6 450.4 6.2 451.3 6.2 C 452.1 6.2 453 5.6 453 4.7 Z " stroke="none" fill="#fff"/>
  </g>
</svg>