<?xml version="1.0" standalone="no"?>
<!DOCTYPE svg PUBLIC "-//W3C//DTD SVG 1.1//EN" "http://www.w3.org/Graphics/SVG/1.1/DTD/svg11.dtd">
<svg xmlns="http://www.w3.org/2000/svg" version="1.1" width="468px" height="134px" viewBox="0 -13 468 134" style="top:-13px">
  <desc>Pagbida sa umaalpas na kampanya ng mga para-athlete tungo sa pagkakakilanlan</desc>
  <defs/>
  <g id="Polygon38572">
    <path d="M 1 82.3 L 3.4 82.3 L 5.4 78.3 L 6.3 78.3 L 6.3 82.3 L 10.4 82.3 L 10.4 83.6 L 6.3 83.6 C 6.3 83.6 6.3 93.52 6.3 93.5 C 6.3 96 7.3 96.7 8.4 96.7 C 9.2 96.7 9.9 96.6 10.7 96.3 C 10.7 96.3 10.9 97 10.9 97 C 10 97.6 8.5 98.4 6.8 98.4 C 5.7 98.4 3.3 98 3.3 94.7 C 3.3 94.74 3.3 83.6 3.3 83.6 L 1 83.6 L 1 82.3 Z M 12.2 82.7 L 17.2 81.9 L 17.4 82.1 C 17.4 82.1 17.41 93.01 17.4 93 C 17.4 95.5 18.8 96.7 20.6 96.7 C 22.3 96.7 23.8 95.7 24.6 94.3 C 24.7 93.9 24.8 93.2 24.8 92.3 C 24.8 92.3 24.8 85.1 24.8 85.1 C 24.8 84 24.6 83.8 23.8 83.7 C 23.81 83.7 22.6 83.5 22.6 83.5 L 22.6 82.7 L 27.6 81.9 L 27.8 82.1 C 27.8 82.1 27.84 95.22 27.8 95.2 C 27.8 96.8 28 96.9 30.2 97.1 C 30.24 97.07 30.2 98 30.2 98 L 25.1 98 C 25.1 98 24.8 96.08 24.8 96.1 C 23.9 96.5 21.7 98.4 18.9 98.4 C 16.6 98.4 14.4 97.3 14.4 93.6 C 14.4 93.6 14.4 85.1 14.4 85.1 C 14.4 84 14.2 83.8 13.4 83.7 C 13.38 83.7 12.2 83.5 12.2 83.5 L 12.2 82.7 Z M 32.1 97.1 C 34.4 96.9 34.5 96.8 34.5 95.2 C 34.5 95.2 34.5 85.1 34.5 85.1 C 34.5 84 34.3 83.8 33.4 83.7 C 33.44 83.7 32.2 83.5 32.2 83.5 L 32.2 82.7 L 37 81.9 C 37 81.9 37.44 84.37 37.4 84.4 C 39.4 83.1 40.9 81.9 43.3 81.9 C 46.2 81.9 48 83.8 48 87 C 48 87 48 95.2 48 95.2 C 48 96.8 48.1 96.9 50.4 97.1 C 50.37 97.07 50.4 98 50.4 98 L 42.6 98 C 42.6 98 42.56 97.07 42.6 97.1 C 44.9 96.9 45 96.8 45 95.2 C 45 95.2 45 87.7 45 87.7 C 45 84.9 43.8 83.7 41.6 83.7 C 39.9 83.7 38.5 84.7 37.8 86 C 37.5 86.5 37.5 86.9 37.5 87.7 C 37.5 87.7 37.5 95.2 37.5 95.2 C 37.5 96.8 37.6 96.9 39.9 97.1 C 39.87 97.07 39.9 98 39.9 98 L 32.1 98 C 32.1 98 32.06 97.07 32.1 97.1 Z M 56.2 97.6 C 56.2 97.6 56.2 97.5 56.2 97.5 C 54.7 97.3 53.4 96.1 53.4 95 C 53.4 93.7 54.6 92.8 56.3 92.1 C 56.3 92.1 56.3 92.1 56.3 92.1 C 54.8 91.7 52.9 90.3 52.9 87.3 C 52.9 84.9 54.6 81.9 59.5 81.9 C 61 81.9 62.7 82.3 63.6 82.9 C 63.62 82.93 67.7 81.6 67.7 81.6 L 68 81.9 L 67.3 83.9 C 67.3 83.9 64.8 84.3 64.8 84.3 C 65.3 84.8 65.8 86 65.8 87.3 C 65.8 91.2 62.3 92.5 59.3 92.5 C 58.9 92.5 58.3 92.5 57.7 92.4 C 57.2 92.6 56 93.1 56 94 C 56 94.6 56.4 95.4 58.7 95.4 C 58.7 95.4 61.2 95.4 61.2 95.4 C 64.7 95.4 67.4 96.6 67.4 100 C 67.4 102 66.4 103.5 64.9 104.4 C 63.4 105.4 61.3 105.7 59.4 105.7 C 55.7 105.7 52.5 104.3 52.5 101.1 C 52.5 98.8 54.8 98 56.2 97.6 Z M 60.2 104.6 C 62.4 104.6 64.7 103.4 64.7 100.8 C 64.7 98.4 62.7 97.8 59.8 97.8 C 58.3 97.8 57.2 98 56.5 98.5 C 55.9 99 55.6 99.8 55.6 100.9 C 55.6 103.2 57.4 104.6 60.2 104.6 Z M 59.4 91.4 C 61.3 91.4 62.7 90 62.7 87.3 C 62.7 84.2 61.1 83.1 59.5 83.1 C 57.8 83.1 56.1 84.1 56.1 87.3 C 56.1 90 57.6 91.4 59.4 91.4 Z M 77.4 81.9 C 82.5 81.9 85.1 85 85.1 90.2 C 85.1 95.3 82.5 98.4 77.4 98.4 C 72.2 98.4 69.7 95.3 69.7 90.2 C 69.7 85 72.2 81.9 77.4 81.9 Z M 77.4 97.3 C 80.3 97.3 81.7 94.6 81.7 90.2 C 81.7 85.7 80.3 83.1 77.4 83.1 C 74.4 83.1 73 85.7 73 90.2 C 73 94.6 74.4 97.3 77.4 97.3 Z M 96.9 92.7 C 97.5 95.4 98.9 97.3 101.5 97.3 C 103.2 97.3 104.5 96.2 104.5 94.6 C 104.5 92.4 102.5 91.7 101.1 91.2 C 98.4 90.4 96.2 89.3 96.2 86.6 C 96.2 83.6 98.6 81.9 102 81.9 C 103.5 81.9 105.1 82.3 106.2 83 C 106.17 83.02 106.2 86.8 106.2 86.8 C 106.2 86.8 105.25 86.77 105.2 86.8 C 105 84.8 103.9 83.1 101.7 83.1 C 100.1 83.1 98.8 84 98.8 85.6 C 98.8 87.4 100.9 88.1 102.2 88.5 C 105.5 89.6 107.2 90.8 107.2 93.6 C 107.2 96.4 105.1 98.4 101.2 98.4 C 99.4 98.4 97.4 97.9 96.3 96.8 C 96.25 96.85 95.9 92.7 95.9 92.7 C 95.9 92.7 96.86 92.66 96.9 92.7 Z M 113.2 90 C 115.8 89.2 118.9 88.4 119.7 87.6 C 119.7 87.6 119.7 86.3 119.7 86.3 C 119.7 83.7 118.2 83.1 117 83.1 C 115.7 83.1 114.4 83.8 113.7 86.2 C 113.5 86.7 113.3 87.1 112.6 87.1 C 112 87.1 110.8 86.6 110.8 85.6 C 110.8 83.8 113.7 81.9 117.3 81.9 C 122.1 81.9 122.6 84.3 122.6 86.2 C 122.6 86.2 122.6 93.9 122.6 93.9 C 122.6 96 123.1 96.6 123.7 96.7 C 124.2 96.8 124.9 96.8 125.3 96.7 C 125.3 96.7 125.5 97.4 125.5 97.4 C 124.3 98 122.9 98.4 121.7 98.4 C 120.6 98.4 120.1 97.6 119.6 96.5 C 118.6 97.1 116.7 98.4 114.9 98.4 C 111.9 98.4 110.3 96.2 110.3 93.8 C 110.3 92.3 110.9 90.7 113.2 90 Z M 116.4 96.7 C 117.7 96.7 119.7 96 119.7 93.4 C 119.7 93.4 119.7 88.9 119.7 88.9 C 119 89.4 117.3 90 116 90.4 C 114.2 91.1 113.5 91.9 113.5 93.4 C 113.5 95.3 114.5 96.7 116.4 96.7 Z M 136.5 102.6 C 136.5 102.6 136.5 85.1 136.5 85.1 C 136.5 84 136.3 83.8 135.5 83.7 C 135.45 83.7 134.2 83.5 134.2 83.5 L 134.2 82.7 L 139.1 81.9 C 139.1 81.9 139.49 84.3 139.5 84.3 C 140.7 83.5 142.6 81.9 144.9 81.9 C 150.7 81.9 151.2 87.5 151.2 89.8 C 151.2 96.4 147.5 98.4 143.1 98.4 C 141.7 98.4 140.2 98 139.5 97.6 C 139.5 97.6 139.5 102.6 139.5 102.6 C 139.5 104.2 139.7 104.3 142.4 104.4 C 142.37 104.43 142.4 105.4 142.4 105.4 L 134.1 105.4 C 134.1 105.4 134.08 104.43 134.1 104.4 C 136.3 104.3 136.5 104.2 136.5 102.6 Z M 139.7 94.9 C 140.2 96.4 141.5 97.3 143.2 97.3 C 146.4 97.3 147.8 94.7 147.8 90 C 147.8 84.5 145 83.7 143.7 83.7 C 142 83.7 140.6 84.4 139.9 85.9 C 139.6 86.5 139.5 86.9 139.5 87.7 C 139.5 87.7 139.5 93 139.5 93 C 139.5 93.7 139.5 94.4 139.7 94.9 Z M 157.6 90 C 160.1 89.2 163.2 88.4 164 87.6 C 164 87.6 164 86.3 164 86.3 C 164 83.7 162.6 83.1 161.3 83.1 C 160 83.1 158.7 83.8 158 86.2 C 157.9 86.7 157.7 87.1 157 87.1 C 156.4 87.1 155.2 86.6 155.2 85.6 C 155.2 83.8 158 81.9 161.7 81.9 C 166.5 81.9 166.9 84.3 166.9 86.2 C 166.9 86.2 166.9 93.9 166.9 93.9 C 166.9 96 167.5 96.6 168 96.7 C 168.5 96.8 169.2 96.8 169.7 96.7 C 169.7 96.7 169.9 97.4 169.9 97.4 C 168.6 98 167.3 98.4 166.1 98.4 C 165 98.4 164.4 97.6 164 96.5 C 163 97.1 161.1 98.4 159.2 98.4 C 156.2 98.4 154.6 96.2 154.6 93.8 C 154.6 92.3 155.3 90.7 157.6 90 Z M 160.8 96.7 C 162 96.7 164 96 164 93.4 C 164 93.4 164 88.9 164 88.9 C 163.3 89.4 161.6 90 160.3 90.4 C 158.6 91.1 157.9 91.9 157.9 93.4 C 157.9 95.3 158.8 96.7 160.8 96.7 Z M 175.1 97.6 C 175.1 97.6 175.1 97.5 175.1 97.5 C 173.6 97.3 172.3 96.1 172.3 95 C 172.3 93.7 173.5 92.8 175.3 92.1 C 175.3 92.1 175.3 92.1 175.3 92.1 C 173.8 91.7 171.8 90.3 171.8 87.3 C 171.8 84.9 173.5 81.9 178.4 81.9 C 179.9 81.9 181.7 82.3 182.6 82.9 C 182.56 82.93 186.7 81.6 186.7 81.6 L 186.9 81.9 L 186.3 83.9 C 186.3 83.9 183.74 84.3 183.7 84.3 C 184.3 84.8 184.7 86 184.7 87.3 C 184.7 91.2 181.3 92.5 178.2 92.5 C 177.9 92.5 177.2 92.5 176.6 92.4 C 176.2 92.6 175 93.1 175 94 C 175 94.6 175.3 95.4 177.6 95.4 C 177.6 95.4 180.2 95.4 180.2 95.4 C 183.6 95.4 186.4 96.6 186.4 100 C 186.4 102 185.3 103.5 183.8 104.4 C 182.3 105.4 180.3 105.7 178.4 105.7 C 174.7 105.7 171.5 104.3 171.5 101.1 C 171.5 98.8 173.8 98 175.1 97.6 Z M 179.1 104.6 C 181.4 104.6 183.7 103.4 183.7 100.8 C 183.7 98.4 181.6 97.8 178.8 97.8 C 177.2 97.8 176.2 98 175.5 98.5 C 174.8 99 174.5 99.8 174.5 100.9 C 174.5 103.2 176.4 104.6 179.1 104.6 Z M 178.4 91.4 C 180.2 91.4 181.6 90 181.6 87.3 C 181.6 84.2 180 83.1 178.4 83.1 C 176.7 83.1 175.1 84.1 175.1 87.3 C 175.1 90 176.6 91.4 178.4 91.4 Z M 187.7 97.1 C 190 96.9 190.1 96.8 190.1 95.2 C 190.1 95.2 190.1 77.5 190.1 77.5 C 190.1 76.2 189.9 76.1 189.1 76 C 189.08 75.98 187.9 75.9 187.9 75.9 L 187.9 75.1 L 192.9 74.3 L 193.1 74.4 L 193.1 89.4 C 193.1 89.4 193.18 89.42 193.2 89.4 C 193.9 88.3 197.1 84.4 198 83.2 C 198.7 82.5 198.9 82.3 200 82.3 C 200.03 82.32 203.3 82.3 203.3 82.3 C 203.3 82.3 203.32 83.22 203.3 83.2 C 201.5 83.4 200.7 83.8 199.6 84.6 C 198.5 85.4 197.5 86.3 195.9 88.1 C 195.6 88.4 195.7 88.6 195.8 88.8 C 197.1 90.5 199.5 93.6 201.5 95.5 C 202.5 96.5 203.3 97 204.3 97.3 C 204.28 97.26 204.3 98.2 204.3 98.2 C 204.3 98.2 201.88 98.06 201.9 98.1 C 200.9 98 199.6 97.6 198.4 96.4 C 196.8 94.7 194.5 92 193.2 89.9 C 193.18 89.87 193.1 89.9 193.1 89.9 C 193.1 89.9 193.12 95.22 193.1 95.2 C 193.1 96.8 193.2 96.9 195.5 97.1 C 195.52 97.07 195.5 98 195.5 98 L 187.7 98 C 187.7 98 187.71 97.07 187.7 97.1 Z M 208.7 90 C 211.2 89.2 214.3 88.4 215.1 87.6 C 215.1 87.6 215.1 86.3 215.1 86.3 C 215.1 83.7 213.7 83.1 212.4 83.1 C 211.1 83.1 209.8 83.8 209.1 86.2 C 209 86.7 208.8 87.1 208.1 87.1 C 207.5 87.1 206.3 86.6 206.3 85.6 C 206.3 83.8 209.1 81.9 212.8 81.9 C 217.6 81.9 218 84.3 218 86.2 C 218 86.2 218 93.9 218 93.9 C 218 96 218.6 96.6 219.1 96.7 C 219.6 96.8 220.3 96.8 220.8 96.7 C 220.8 96.7 221 97.4 221 97.4 C 219.7 98 218.4 98.4 217.2 98.4 C 216.1 98.4 215.5 97.6 215.1 96.5 C 214.1 97.1 212.2 98.4 210.3 98.4 C 207.3 98.4 205.7 96.2 205.7 93.8 C 205.7 92.3 206.4 90.7 208.7 90 Z M 211.9 96.7 C 213.1 96.7 215.1 96 215.1 93.4 C 215.1 93.4 215.1 88.9 215.1 88.9 C 214.4 89.4 212.7 90 211.5 90.4 C 209.7 91.1 209 91.9 209 93.4 C 209 95.3 209.9 96.7 211.9 96.7 Z M 221.9 97.1 C 224.2 96.9 224.3 96.8 224.3 95.2 C 224.3 95.2 224.3 77.5 224.3 77.5 C 224.3 76.2 224.1 76.1 223.2 76 C 223.23 75.98 222 75.9 222 75.9 L 222 75.1 L 227 74.3 L 227.3 74.4 L 227.3 89.4 C 227.3 89.4 227.32 89.42 227.3 89.4 C 228.1 88.3 231.2 84.4 232.2 83.2 C 232.8 82.5 233.1 82.3 234.2 82.3 C 234.17 82.32 237.5 82.3 237.5 82.3 C 237.5 82.3 237.47 83.22 237.5 83.2 C 235.6 83.4 234.8 83.8 233.7 84.6 C 232.6 85.4 231.6 86.3 230.1 88.1 C 229.8 88.4 229.8 88.6 230 88.8 C 231.2 90.5 233.7 93.6 235.7 95.5 C 236.7 96.5 237.5 97 238.4 97.3 C 238.43 97.26 238.4 98.2 238.4 98.2 C 238.4 98.2 236.03 98.06 236 98.1 C 235 98 233.8 97.6 232.6 96.4 C 230.9 94.7 228.6 92 227.3 89.9 C 227.32 89.87 227.3 89.9 227.3 89.9 C 227.3 89.9 227.26 95.22 227.3 95.2 C 227.3 96.8 227.4 96.9 229.7 97.1 C 229.66 97.07 229.7 98 229.7 98 L 221.9 98 C 221.9 98 221.85 97.07 221.9 97.1 Z M 242.8 90 C 245.4 89.2 248.5 88.4 249.3 87.6 C 249.3 87.6 249.3 86.3 249.3 86.3 C 249.3 83.7 247.8 83.1 246.6 83.1 C 245.3 83.1 244 83.8 243.3 86.2 C 243.1 86.7 242.9 87.1 242.2 87.1 C 241.6 87.1 240.4 86.6 240.4 85.6 C 240.4 83.8 243.3 81.9 246.9 81.9 C 251.7 81.9 252.2 84.3 252.2 86.2 C 252.2 86.2 252.2 93.9 252.2 93.9 C 252.2 96 252.7 96.6 253.3 96.7 C 253.8 96.8 254.5 96.8 254.9 96.7 C 254.9 96.7 255.1 97.4 255.1 97.4 C 253.9 98 252.5 98.4 251.3 98.4 C 250.2 98.4 249.7 97.6 249.2 96.5 C 248.2 97.1 246.3 98.4 244.5 98.4 C 241.5 98.4 239.9 96.2 239.9 93.8 C 239.9 92.3 240.5 90.7 242.8 90 Z M 246 96.7 C 247.3 96.7 249.3 96 249.3 93.4 C 249.3 93.4 249.3 88.9 249.3 88.9 C 248.6 89.4 246.9 90 245.6 90.4 C 243.8 91.1 243.1 91.9 243.1 93.4 C 243.1 95.3 244.1 96.7 246 96.7 Z M 256 97.1 C 258.3 96.9 258.4 96.8 258.4 95.2 C 258.4 95.2 258.4 77.5 258.4 77.5 C 258.4 76.2 258.2 76.1 257.4 76 C 257.37 75.98 256.2 75.9 256.2 75.9 L 256.2 75.1 L 261.2 74.3 L 261.4 74.4 L 261.4 89.4 C 261.4 89.4 261.47 89.42 261.5 89.4 C 262.2 88.3 265.4 84.4 266.3 83.2 C 266.9 82.5 267.2 82.3 268.3 82.3 C 268.32 82.32 271.6 82.3 271.6 82.3 C 271.6 82.3 271.61 83.22 271.6 83.2 C 269.8 83.4 269 83.8 267.9 84.6 C 266.8 85.4 265.8 86.3 264.2 88.1 C 263.9 88.4 264 88.6 264.1 88.8 C 265.3 90.5 267.8 93.6 269.8 95.5 C 270.8 96.5 271.6 97 272.6 97.3 C 272.57 97.26 272.6 98.2 272.6 98.2 C 272.6 98.2 270.17 98.06 270.2 98.1 C 269.1 98 267.9 97.6 266.7 96.4 C 265.1 94.7 262.8 92 261.5 89.9 C 261.47 89.87 261.4 89.9 261.4 89.9 C 261.4 89.9 261.4 95.22 261.4 95.2 C 261.4 96.8 261.5 96.9 263.8 97.1 C 263.8 97.07 263.8 98 263.8 98 L 256 98 C 256 98 256 97.07 256 97.1 Z M 277.3 75.1 C 278.5 75.1 279.3 75.9 279.3 77.1 C 279.3 78.2 278.5 79 277.3 79 C 276.2 79 275.4 78.2 275.4 77.1 C 275.4 75.9 276.2 75.1 277.3 75.1 Z M 273.5 97.1 C 275.8 96.9 275.9 96.8 275.9 95.2 C 275.9 95.2 275.9 85.1 275.9 85.1 C 275.9 84 275.7 83.8 274.8 83.7 C 274.84 83.7 273.6 83.5 273.6 83.5 L 273.6 82.7 L 278.7 81.9 L 278.9 82.1 C 278.9 82.1 278.87 95.22 278.9 95.2 C 278.9 96.8 279 96.9 281.3 97.1 C 281.27 97.07 281.3 98 281.3 98 L 273.5 98 C 273.5 98 273.47 97.07 273.5 97.1 Z M 282.7 97.1 C 285 96.9 285.1 96.8 285.1 95.2 C 285.1 95.2 285.1 77.5 285.1 77.5 C 285.1 76.2 284.9 76.1 284.1 76 C 284.09 75.98 282.9 75.9 282.9 75.9 L 282.9 75.1 L 287.9 74.3 L 288.1 74.4 C 288.1 74.4 288.12 95.22 288.1 95.2 C 288.1 96.8 288.3 96.9 290.5 97.1 C 290.52 97.07 290.5 98 290.5 98 L 282.7 98 C 282.7 98 282.71 97.07 282.7 97.1 Z M 295.9 90 C 298.4 89.2 301.5 88.4 302.3 87.6 C 302.3 87.6 302.3 86.3 302.3 86.3 C 302.3 83.7 300.8 83.1 299.6 83.1 C 298.3 83.1 297 83.8 296.3 86.2 C 296.1 86.7 295.9 87.1 295.3 87.1 C 294.7 87.1 293.5 86.6 293.5 85.6 C 293.5 83.8 296.3 81.9 299.9 81.9 C 304.8 81.9 305.2 84.3 305.2 86.2 C 305.2 86.2 305.2 93.9 305.2 93.9 C 305.2 96 305.7 96.6 306.3 96.7 C 306.8 96.8 307.5 96.8 307.9 96.7 C 307.9 96.7 308.1 97.4 308.1 97.4 C 306.9 98 305.5 98.4 304.3 98.4 C 303.2 98.4 302.7 97.6 302.3 96.5 C 301.2 97.1 299.4 98.4 297.5 98.4 C 294.5 98.4 292.9 96.2 292.9 93.8 C 292.9 92.3 293.6 90.7 295.9 90 Z M 299.1 96.7 C 300.3 96.7 302.3 96 302.3 93.4 C 302.3 93.4 302.3 88.9 302.3 88.9 C 301.6 89.4 299.9 90 298.6 90.4 C 296.8 91.1 296.1 91.9 296.1 93.4 C 296.1 95.3 297.1 96.7 299.1 96.7 Z M 309.4 97.1 C 311.7 96.9 311.8 96.8 311.8 95.2 C 311.8 95.2 311.8 85.1 311.8 85.1 C 311.8 84 311.6 83.8 310.8 83.7 C 310.78 83.7 309.6 83.5 309.6 83.5 L 309.6 82.7 L 314.3 81.9 C 314.3 81.9 314.78 84.37 314.8 84.4 C 316.8 83.1 318.2 81.9 320.6 81.9 C 323.5 81.9 325.3 83.8 325.3 87 C 325.3 87 325.3 95.2 325.3 95.2 C 325.3 96.8 325.4 96.9 327.7 97.1 C 327.71 97.07 327.7 98 327.7 98 L 319.9 98 C 319.9 98 319.9 97.07 319.9 97.1 C 322.2 96.9 322.3 96.8 322.3 95.2 C 322.3 95.2 322.3 87.7 322.3 87.7 C 322.3 84.9 321.1 83.7 318.9 83.7 C 317.2 83.7 315.8 84.7 315.1 86 C 314.9 86.5 314.8 86.9 314.8 87.7 C 314.8 87.7 314.8 95.2 314.8 95.2 C 314.8 96.8 314.9 96.9 317.2 97.1 C 317.21 97.07 317.2 98 317.2 98 L 309.4 98 C 309.4 98 309.4 97.07 309.4 97.1 Z M 329.1 97.1 C 331.4 96.9 331.5 96.8 331.5 95.2 C 331.5 95.2 331.5 77.5 331.5 77.5 C 331.5 76.2 331.4 76.1 330.5 76 C 330.52 75.98 329.3 75.9 329.3 75.9 L 329.3 75.1 L 334.3 74.3 L 334.6 74.4 C 334.6 74.4 334.55 95.22 334.6 95.2 C 334.6 96.8 334.7 96.9 337 97.1 C 336.95 97.07 337 98 337 98 L 329.1 98 C 329.1 98 329.15 97.07 329.1 97.1 Z M 342.3 90 C 344.8 89.2 347.9 88.4 348.7 87.6 C 348.7 87.6 348.7 86.3 348.7 86.3 C 348.7 83.7 347.3 83.1 346 83.1 C 344.7 83.1 343.4 83.8 342.7 86.2 C 342.6 86.7 342.4 87.1 341.7 87.1 C 341.1 87.1 339.9 86.6 339.9 85.6 C 339.9 83.8 342.7 81.9 346.4 81.9 C 351.2 81.9 351.6 84.3 351.6 86.2 C 351.6 86.2 351.6 93.9 351.6 93.9 C 351.6 96 352.2 96.6 352.7 96.7 C 353.2 96.8 353.9 96.8 354.4 96.7 C 354.4 96.7 354.6 97.4 354.6 97.4 C 353.3 98 352 98.4 350.8 98.4 C 349.7 98.4 349.1 97.6 348.7 96.5 C 347.7 97.1 345.8 98.4 343.9 98.4 C 340.9 98.4 339.3 96.2 339.3 93.8 C 339.3 92.3 340 90.7 342.3 90 Z M 345.5 96.7 C 346.7 96.7 348.7 96 348.7 93.4 C 348.7 93.4 348.7 88.9 348.7 88.9 C 348 89.4 346.3 90 345 90.4 C 343.3 91.1 342.6 91.9 342.6 93.4 C 342.6 95.3 343.5 96.7 345.5 96.7 Z M 355.8 97.1 C 358.1 96.9 358.2 96.8 358.2 95.2 C 358.2 95.2 358.2 85.1 358.2 85.1 C 358.2 84 358 83.8 357.2 83.7 C 357.21 83.7 356 83.5 356 83.5 L 356 82.7 L 360.8 81.9 C 360.8 81.9 361.21 84.37 361.2 84.4 C 363.2 83.1 364.7 81.9 367 81.9 C 370 81.9 371.7 83.8 371.7 87 C 371.7 87 371.7 95.2 371.7 95.2 C 371.7 96.8 371.9 96.9 374.1 97.1 C 374.14 97.07 374.1 98 374.1 98 L 366.3 98 C 366.3 98 366.33 97.07 366.3 97.1 C 368.6 96.9 368.7 96.8 368.7 95.2 C 368.7 95.2 368.7 87.7 368.7 87.7 C 368.7 84.9 367.5 83.7 365.4 83.7 C 363.7 83.7 362.2 84.7 361.6 86 C 361.3 86.5 361.2 86.9 361.2 87.7 C 361.2 87.7 361.2 95.2 361.2 95.2 C 361.2 96.8 361.4 96.9 363.6 97.1 C 363.64 97.07 363.6 98 363.6 98 L 355.8 98 C 355.8 98 355.83 97.07 355.8 97.1 Z " stroke="none" fill="#000"/>
  </g>
  <g id="Polygon38571">
    <path d="M 0.6 60.1 C 2.9 59.9 3 59.8 3 58.2 C 3 58.2 3 40.5 3 40.5 C 3 39.2 2.8 39.1 2 39 C 2.02 38.98 0.8 38.9 0.8 38.9 L 0.8 38.1 L 5.8 37.3 L 6 37.4 L 6 52.4 C 6 52.4 6.11 52.42 6.1 52.4 C 6.8 51.3 10 47.4 10.9 46.2 C 11.6 45.5 11.9 45.3 13 45.3 C 12.96 45.32 16.3 45.3 16.3 45.3 C 16.3 45.3 16.26 46.22 16.3 46.2 C 14.4 46.4 13.6 46.8 12.5 47.6 C 11.4 48.4 10.4 49.3 8.9 51.1 C 8.5 51.4 8.6 51.6 8.8 51.8 C 10 53.5 12.5 56.6 14.5 58.5 C 15.5 59.5 16.3 60 17.2 60.3 C 17.22 60.26 17.2 61.2 17.2 61.2 C 17.2 61.2 14.82 61.06 14.8 61.1 C 13.8 61 12.5 60.6 11.4 59.4 C 9.7 57.7 7.4 55 6.1 52.9 C 6.11 52.87 6 52.9 6 52.9 C 6 52.9 6.05 58.22 6 58.2 C 6 59.8 6.2 59.9 8.4 60.1 C 8.45 60.07 8.4 61 8.4 61 L 0.6 61 C 0.6 61 0.64 60.07 0.6 60.1 Z M 21.6 53 C 24.2 52.2 27.3 51.4 28.1 50.6 C 28.1 50.6 28.1 49.3 28.1 49.3 C 28.1 46.7 26.6 46.1 25.3 46.1 C 24.1 46.1 22.8 46.8 22 49.2 C 21.9 49.7 21.7 50.1 21 50.1 C 20.4 50.1 19.2 49.6 19.2 48.6 C 19.2 46.8 22.1 44.9 25.7 44.9 C 30.5 44.9 30.9 47.3 30.9 49.2 C 30.9 49.2 30.9 56.9 30.9 56.9 C 30.9 59 31.5 59.6 32.1 59.7 C 32.5 59.8 33.2 59.8 33.7 59.7 C 33.7 59.7 33.9 60.4 33.9 60.4 C 32.7 61 31.3 61.4 30.1 61.4 C 29 61.4 28.5 60.6 28 59.5 C 27 60.1 25.1 61.4 23.3 61.4 C 20.3 61.4 18.7 59.2 18.7 56.8 C 18.7 55.3 19.3 53.7 21.6 53 Z M 24.8 59.7 C 26.1 59.7 28.1 59 28.1 56.4 C 28.1 56.4 28.1 51.9 28.1 51.9 C 27.4 52.4 25.7 53 24.4 53.4 C 22.6 54.1 21.9 54.9 21.9 56.4 C 21.9 58.3 22.8 59.7 24.8 59.7 Z M 35.2 60.1 C 37.5 59.9 37.6 59.8 37.6 58.2 C 37.6 58.2 37.6 48.1 37.6 48.1 C 37.6 47 37.4 46.8 36.5 46.7 C 36.54 46.7 35.3 46.5 35.3 46.5 L 35.3 45.7 L 40.3 44.9 C 40.3 44.9 40.58 47.37 40.6 47.4 C 41.7 46.5 43.7 44.9 46.2 44.9 C 48.4 44.9 49.6 45.9 50.4 47.4 C 51.5 46.7 53.4 44.9 56 44.9 C 59.1 44.9 60.8 46.8 60.8 50 C 60.8 50 60.8 58.2 60.8 58.2 C 60.8 59.8 60.9 59.9 63.2 60.1 C 63.2 60.07 63.2 61 63.2 61 L 55.4 61 C 55.4 61 55.39 60.07 55.4 60.1 C 57.7 59.9 57.8 59.8 57.8 58.2 C 57.8 58.2 57.8 50.7 57.8 50.7 C 57.8 47.8 56.6 46.7 54.6 46.7 C 52.8 46.7 51.4 47.7 50.9 49 C 50.7 49.5 50.7 49.9 50.7 50.7 C 50.7 50.7 50.7 58.2 50.7 58.2 C 50.7 59.8 50.8 59.9 53.1 60.1 C 53.09 60.07 53.1 61 53.1 61 L 45.3 61 C 45.3 61 45.28 60.07 45.3 60.1 C 47.6 59.9 47.7 59.8 47.7 58.2 C 47.7 58.2 47.7 50.7 47.7 50.7 C 47.7 48.7 47.4 46.7 44.6 46.7 C 42.8 46.7 41.4 47.8 40.8 49 C 40.6 49.5 40.6 49.9 40.6 50.7 C 40.6 50.7 40.6 58.2 40.6 58.2 C 40.6 59.8 40.7 59.9 43 60.1 C 42.98 60.07 43 61 43 61 L 35.2 61 C 35.2 61 35.17 60.07 35.2 60.1 Z M 67.2 65.6 C 67.2 65.6 67.2 48.1 67.2 48.1 C 67.2 47 67 46.8 66.2 46.7 C 66.18 46.7 65 46.5 65 46.5 L 65 45.7 L 69.8 44.9 C 69.8 44.9 70.21 47.3 70.2 47.3 C 71.5 46.5 73.3 44.9 75.6 44.9 C 81.5 44.9 81.9 50.5 81.9 52.8 C 81.9 59.4 78.2 61.4 73.9 61.4 C 72.4 61.4 70.9 61 70.2 60.6 C 70.2 60.6 70.2 65.6 70.2 65.6 C 70.2 67.2 70.4 67.3 73.1 67.4 C 73.09 67.43 73.1 68.4 73.1 68.4 L 64.8 68.4 C 64.8 68.4 64.8 67.43 64.8 67.4 C 67 67.3 67.2 67.2 67.2 65.6 Z M 70.4 57.9 C 70.9 59.4 72.2 60.3 73.9 60.3 C 77.1 60.3 78.6 57.7 78.6 53 C 78.6 47.5 75.7 46.7 74.4 46.7 C 72.7 46.7 71.4 47.4 70.6 48.9 C 70.3 49.5 70.2 49.9 70.2 50.7 C 70.2 50.7 70.2 56 70.2 56 C 70.2 56.7 70.2 57.4 70.4 57.9 Z M 88.3 53 C 90.8 52.2 94 51.4 94.8 50.6 C 94.8 50.6 94.8 49.3 94.8 49.3 C 94.8 46.7 93.3 46.1 92 46.1 C 90.8 46.1 89.4 46.8 88.7 49.2 C 88.6 49.7 88.4 50.1 87.7 50.1 C 87.1 50.1 85.9 49.6 85.9 48.6 C 85.9 46.8 88.8 44.9 92.4 44.9 C 97.2 44.9 97.6 47.3 97.6 49.2 C 97.6 49.2 97.6 56.9 97.6 56.9 C 97.6 59 98.2 59.6 98.8 59.7 C 99.2 59.8 99.9 59.8 100.4 59.7 C 100.4 59.7 100.6 60.4 100.6 60.4 C 99.4 61 98 61.4 96.8 61.4 C 95.7 61.4 95.2 60.6 94.7 59.5 C 93.7 60.1 91.8 61.4 90 61.4 C 86.9 61.4 85.3 59.2 85.3 56.8 C 85.3 55.3 86 53.7 88.3 53 Z M 91.5 59.7 C 92.8 59.7 94.8 59 94.8 56.4 C 94.8 56.4 94.8 51.9 94.8 51.9 C 94 52.4 92.4 53 91.1 53.4 C 89.3 54.1 88.6 54.9 88.6 56.4 C 88.6 58.3 89.5 59.7 91.5 59.7 Z M 101.9 60.1 C 104.2 59.9 104.3 59.8 104.3 58.2 C 104.3 58.2 104.3 48.1 104.3 48.1 C 104.3 47 104.1 46.8 103.2 46.7 C 103.23 46.7 102 46.5 102 46.5 L 102 45.7 L 106.8 44.9 C 106.8 44.9 107.23 47.37 107.2 47.4 C 109.2 46.1 110.7 44.9 113.1 44.9 C 116 44.9 117.8 46.8 117.8 50 C 117.8 50 117.8 58.2 117.8 58.2 C 117.8 59.8 117.9 59.9 120.2 60.1 C 120.16 60.07 120.2 61 120.2 61 L 112.4 61 C 112.4 61 112.35 60.07 112.4 60.1 C 114.7 59.9 114.8 59.8 114.8 58.2 C 114.8 58.2 114.8 50.7 114.8 50.7 C 114.8 47.9 113.6 46.7 111.4 46.7 C 109.7 46.7 108.3 47.7 107.6 49 C 107.3 49.5 107.3 49.9 107.3 50.7 C 107.3 50.7 107.3 58.2 107.3 58.2 C 107.3 59.8 107.4 59.9 109.7 60.1 C 109.66 60.07 109.7 61 109.7 61 L 101.9 61 C 101.9 61 101.85 60.07 101.9 60.1 Z M 120.8 45.3 L 128.1 45.3 L 128.1 46.2 C 128.1 46.2 126.75 46.38 126.8 46.4 C 126 46.4 126.1 46.8 126.3 47.4 C 127.5 50.7 128.7 54.2 130.2 58.1 C 130.2 58.1 130.3 58.1 130.3 58.1 C 131.7 54.2 133.3 49.4 133.8 47.5 C 134 46.9 133.9 46.5 133.4 46.4 C 133.37 46.41 131.7 46.2 131.7 46.2 L 131.7 45.3 L 137.9 45.3 C 137.9 45.3 137.85 46.25 137.9 46.2 C 136.3 46.3 136.1 46.6 135.5 47.9 C 134.5 50.1 131.6 57.9 129.6 63.6 C 127.9 68.4 126.3 68.7 125 68.7 C 123.7 68.7 122.8 67.8 122.8 67.1 C 122.8 66.2 123.6 65.3 124.2 65.3 C 124.6 65.3 124.8 65.4 125.2 65.7 C 125.7 66.3 126 66.4 126.3 66.4 C 126.7 66.4 127.3 66.1 127.7 65.1 C 128.2 64 128.5 63.1 128.5 62.3 C 128.5 61.8 128.4 61.3 128.3 60.8 C 127.5 58.6 124.8 51.8 123.2 47.9 C 122.7 46.5 122.3 46.3 120.8 46.2 C 120.8 46.25 120.8 45.3 120.8 45.3 Z M 142 53 C 144.5 52.2 147.6 51.4 148.4 50.6 C 148.4 50.6 148.4 49.3 148.4 49.3 C 148.4 46.7 147 46.1 145.7 46.1 C 144.4 46.1 143.1 46.8 142.4 49.2 C 142.3 49.7 142.1 50.1 141.4 50.1 C 140.8 50.1 139.6 49.6 139.6 48.6 C 139.6 46.8 142.5 44.9 146.1 44.9 C 150.9 44.9 151.3 47.3 151.3 49.2 C 151.3 49.2 151.3 56.9 151.3 56.9 C 151.3 59 151.9 59.6 152.4 59.7 C 152.9 59.8 153.6 59.8 154.1 59.7 C 154.1 59.7 154.3 60.4 154.3 60.4 C 153.1 61 151.7 61.4 150.5 61.4 C 149.4 61.4 148.9 60.6 148.4 59.5 C 147.4 60.1 145.5 61.4 143.6 61.4 C 140.6 61.4 139 59.2 139 56.8 C 139 55.3 139.7 53.7 142 53 Z M 145.2 59.7 C 146.5 59.7 148.4 59 148.4 56.4 C 148.4 56.4 148.4 51.9 148.4 51.9 C 147.7 52.4 146 53 144.8 53.4 C 143 54.1 142.3 54.9 142.3 56.4 C 142.3 58.3 143.2 59.7 145.2 59.7 Z M 163.1 60.1 C 165.4 59.9 165.5 59.8 165.5 58.2 C 165.5 58.2 165.5 48.1 165.5 48.1 C 165.5 47 165.3 46.8 164.4 46.7 C 164.45 46.7 163.2 46.5 163.2 46.5 L 163.2 45.7 L 168 44.9 C 168 44.9 168.45 47.37 168.4 47.4 C 170.4 46.1 171.9 44.9 174.3 44.9 C 177.2 44.9 179 46.8 179 50 C 179 50 179 58.2 179 58.2 C 179 59.8 179.1 59.9 181.4 60.1 C 181.37 60.07 181.4 61 181.4 61 L 173.6 61 C 173.6 61 173.57 60.07 173.6 60.1 C 175.9 59.9 176 59.8 176 58.2 C 176 58.2 176 50.7 176 50.7 C 176 47.9 174.8 46.7 172.6 46.7 C 170.9 46.7 169.5 47.7 168.8 49 C 168.5 49.5 168.5 49.9 168.5 50.7 C 168.5 50.7 168.5 58.2 168.5 58.2 C 168.5 59.8 168.6 59.9 170.9 60.1 C 170.88 60.07 170.9 61 170.9 61 L 163.1 61 C 163.1 61 163.07 60.07 163.1 60.1 Z M 187.2 60.6 C 187.2 60.6 187.2 60.5 187.2 60.5 C 185.7 60.3 184.4 59.1 184.4 58 C 184.4 56.7 185.6 55.8 187.3 55.1 C 187.3 55.1 187.3 55.1 187.3 55.1 C 185.9 54.7 183.9 53.3 183.9 50.3 C 183.9 47.9 185.6 44.9 190.5 44.9 C 192 44.9 193.7 45.3 194.6 45.9 C 194.62 45.93 198.7 44.6 198.7 44.6 L 199 44.9 L 198.3 46.9 C 198.3 46.9 195.81 47.3 195.8 47.3 C 196.3 47.8 196.8 49 196.8 50.3 C 196.8 54.2 193.3 55.5 190.3 55.5 C 189.9 55.5 189.3 55.5 188.7 55.4 C 188.3 55.6 187 56.1 187 57 C 187 57.6 187.4 58.4 189.7 58.4 C 189.7 58.4 192.3 58.4 192.3 58.4 C 195.7 58.4 198.4 59.6 198.4 63 C 198.4 65 197.4 66.5 195.9 67.4 C 194.4 68.4 192.3 68.7 190.4 68.7 C 186.7 68.7 183.5 67.3 183.5 64.1 C 183.5 61.8 185.8 61 187.2 60.6 Z M 191.2 67.6 C 193.4 67.6 195.7 66.4 195.7 63.8 C 195.7 61.4 193.7 60.8 190.8 60.8 C 189.3 60.8 188.3 61 187.5 61.5 C 186.9 62 186.6 62.8 186.6 63.9 C 186.6 66.2 188.4 67.6 191.2 67.6 Z M 190.4 54.4 C 192.3 54.4 193.7 53 193.7 50.3 C 193.7 47.2 192.1 46.1 190.5 46.1 C 188.8 46.1 187.1 47.1 187.1 50.3 C 187.1 53 188.6 54.4 190.4 54.4 Z M 207.7 60.1 C 210 59.9 210.1 59.8 210.1 58.2 C 210.1 58.2 210.1 48.1 210.1 48.1 C 210.1 47 209.9 46.8 209.1 46.7 C 209.05 46.7 207.8 46.5 207.8 46.5 L 207.8 45.7 L 212.8 44.9 C 212.8 44.9 213.08 47.37 213.1 47.4 C 214.2 46.5 216.2 44.9 218.7 44.9 C 220.9 44.9 222.1 45.9 222.9 47.4 C 224 46.7 225.9 44.9 228.5 44.9 C 231.6 44.9 233.3 46.8 233.3 50 C 233.3 50 233.3 58.2 233.3 58.2 C 233.3 59.8 233.4 59.9 235.7 60.1 C 235.71 60.07 235.7 61 235.7 61 L 227.9 61 C 227.9 61 227.9 60.07 227.9 60.1 C 230.2 59.9 230.3 59.8 230.3 58.2 C 230.3 58.2 230.3 50.7 230.3 50.7 C 230.3 47.8 229.1 46.7 227.1 46.7 C 225.3 46.7 223.9 47.7 223.4 49 C 223.2 49.5 223.2 49.9 223.2 50.7 C 223.2 50.7 223.2 58.2 223.2 58.2 C 223.2 59.8 223.3 59.9 225.6 60.1 C 225.6 60.07 225.6 61 225.6 61 L 217.8 61 C 217.8 61 217.79 60.07 217.8 60.1 C 220.1 59.9 220.2 59.8 220.2 58.2 C 220.2 58.2 220.2 50.7 220.2 50.7 C 220.2 48.7 219.9 46.7 217.1 46.7 C 215.4 46.7 213.9 47.8 213.3 49 C 213.1 49.5 213.1 49.9 213.1 50.7 C 213.1 50.7 213.1 58.2 213.1 58.2 C 213.1 59.8 213.2 59.9 215.5 60.1 C 215.48 60.07 215.5 61 215.5 61 L 207.7 61 C 207.7 61 207.68 60.07 207.7 60.1 Z M 241.5 60.6 C 241.5 60.6 241.5 60.5 241.5 60.5 C 240 60.3 238.7 59.1 238.7 58 C 238.7 56.7 239.9 55.8 241.7 55.1 C 241.7 55.1 241.7 55.1 241.7 55.1 C 240.2 54.7 238.2 53.3 238.2 50.3 C 238.2 47.9 239.9 44.9 244.8 44.9 C 246.3 44.9 248.1 45.3 249 45.9 C 248.96 45.93 253.1 44.6 253.1 44.6 L 253.3 44.9 L 252.7 46.9 C 252.7 46.9 250.14 47.3 250.1 47.3 C 250.7 47.8 251.1 49 251.1 50.3 C 251.1 54.2 247.7 55.5 244.6 55.5 C 244.3 55.5 243.6 55.5 243 55.4 C 242.6 55.6 241.4 56.1 241.4 57 C 241.4 57.6 241.7 58.4 244 58.4 C 244 58.4 246.6 58.4 246.6 58.4 C 250 58.4 252.8 59.6 252.8 63 C 252.8 65 251.7 66.5 250.2 67.4 C 248.7 68.4 246.7 68.7 244.8 68.7 C 241.1 68.7 237.9 67.3 237.9 64.1 C 237.9 61.8 240.2 61 241.5 60.6 Z M 245.5 67.6 C 247.8 67.6 250.1 66.4 250.1 63.8 C 250.1 61.4 248 60.8 245.2 60.8 C 243.6 60.8 242.6 61 241.9 61.5 C 241.2 62 240.9 62.8 240.9 63.9 C 240.9 66.2 242.8 67.6 245.5 67.6 Z M 244.8 54.4 C 246.6 54.4 248 53 248 50.3 C 248 47.2 246.4 46.1 244.8 46.1 C 243.1 46.1 241.5 47.1 241.5 50.3 C 241.5 53 243 54.4 244.8 54.4 Z M 258 53 C 260.5 52.2 263.6 51.4 264.4 50.6 C 264.4 50.6 264.4 49.3 264.4 49.3 C 264.4 46.7 263 46.1 261.7 46.1 C 260.4 46.1 259.1 46.8 258.4 49.2 C 258.3 49.7 258.1 50.1 257.4 50.1 C 256.8 50.1 255.6 49.6 255.6 48.6 C 255.6 46.8 258.5 44.9 262.1 44.9 C 266.9 44.9 267.3 47.3 267.3 49.2 C 267.3 49.2 267.3 56.9 267.3 56.9 C 267.3 59 267.9 59.6 268.4 59.7 C 268.9 59.8 269.6 59.8 270.1 59.7 C 270.1 59.7 270.3 60.4 270.3 60.4 C 269.1 61 267.7 61.4 266.5 61.4 C 265.4 61.4 264.9 60.6 264.4 59.5 C 263.4 60.1 261.5 61.4 259.6 61.4 C 256.6 61.4 255 59.2 255 56.8 C 255 55.3 255.7 53.7 258 53 Z M 261.2 59.7 C 262.5 59.7 264.4 59 264.4 56.4 C 264.4 56.4 264.4 51.9 264.4 51.9 C 263.7 52.4 262 53 260.8 53.4 C 259 54.1 258.3 54.9 258.3 56.4 C 258.3 58.3 259.2 59.7 261.2 59.7 Z M 281.2 65.6 C 281.2 65.6 281.2 48.1 281.2 48.1 C 281.2 47 281.1 46.8 280.2 46.7 C 280.22 46.7 279 46.5 279 46.5 L 279 45.7 L 283.8 44.9 C 283.8 44.9 284.25 47.3 284.3 47.3 C 285.5 46.5 287.4 44.9 289.7 44.9 C 295.5 44.9 295.9 50.5 295.9 52.8 C 295.9 59.4 292.2 61.4 287.9 61.4 C 286.4 61.4 284.9 61 284.3 60.6 C 284.3 60.6 284.3 65.6 284.3 65.6 C 284.3 67.2 284.4 67.3 287.1 67.4 C 287.13 67.43 287.1 68.4 287.1 68.4 L 278.8 68.4 C 278.8 68.4 278.84 67.43 278.8 67.4 C 281.1 67.3 281.2 67.2 281.2 65.6 Z M 284.5 57.9 C 285 59.4 286.3 60.3 287.9 60.3 C 291.1 60.3 292.6 57.7 292.6 53 C 292.6 47.5 289.8 46.7 288.5 46.7 C 286.8 46.7 285.4 47.4 284.7 48.9 C 284.4 49.5 284.3 49.9 284.3 50.7 C 284.3 50.7 284.3 56 284.3 56 C 284.3 56.7 284.3 57.4 284.5 57.9 Z M 302.4 53 C 304.9 52.2 308 51.4 308.8 50.6 C 308.8 50.6 308.8 49.3 308.8 49.3 C 308.8 46.7 307.3 46.1 306.1 46.1 C 304.8 46.1 303.5 46.8 302.8 49.2 C 302.6 49.7 302.4 50.1 301.8 50.1 C 301.1 50.1 300 49.6 300 48.6 C 300 46.8 302.8 44.9 306.4 44.9 C 311.3 44.9 311.7 47.3 311.7 49.2 C 311.7 49.2 311.7 56.9 311.7 56.9 C 311.7 59 312.2 59.6 312.8 59.7 C 313.3 59.8 314 59.8 314.4 59.7 C 314.4 59.7 314.6 60.4 314.6 60.4 C 313.4 61 312 61.4 310.8 61.4 C 309.7 61.4 309.2 60.6 308.8 59.5 C 307.7 60.1 305.9 61.4 304 61.4 C 301 61.4 299.4 59.2 299.4 56.8 C 299.4 55.3 300.1 53.7 302.4 53 Z M 305.6 59.7 C 306.8 59.7 308.8 59 308.8 56.4 C 308.8 56.4 308.8 51.9 308.8 51.9 C 308.1 52.4 306.4 53 305.1 53.4 C 303.3 54.1 302.6 54.9 302.6 56.4 C 302.6 58.3 303.6 59.7 305.6 59.7 Z M 315.9 60.1 C 318.1 59.9 318.3 59.8 318.3 58.2 C 318.3 58.2 318.3 48.1 318.3 48.1 C 318.3 47 318.1 46.8 317.3 46.7 C 317.27 46.7 316.1 46.5 316.1 46.5 L 316.1 45.7 L 320.9 44.9 C 320.9 44.9 321.31 47.5 321.3 47.5 C 323.4 45.6 324.4 44.9 325.5 44.9 C 326.8 44.9 327.2 45.8 327.2 46.5 C 327.2 47.5 326.5 48.3 325.8 48.3 C 325.6 48.3 325.3 48.3 325.1 48.1 C 324.2 47.6 323.6 47.4 323.1 47.4 C 322.4 47.4 321.3 48.3 321.3 50.7 C 321.3 50.7 321.3 58.2 321.3 58.2 C 321.3 59.8 321.5 59.9 324.3 60.1 C 324.35 60.07 324.3 61 324.3 61 L 315.9 61 C 315.9 61 315.9 60.07 315.9 60.1 Z M 331.9 53 C 334.4 52.2 337.5 51.4 338.3 50.6 C 338.3 50.6 338.3 49.3 338.3 49.3 C 338.3 46.7 336.8 46.1 335.6 46.1 C 334.3 46.1 333 46.8 332.3 49.2 C 332.1 49.7 331.9 50.1 331.3 50.1 C 330.7 50.1 329.5 49.6 329.5 48.6 C 329.5 46.8 332.3 44.9 335.9 44.9 C 340.8 44.9 341.2 47.3 341.2 49.2 C 341.2 49.2 341.2 56.9 341.2 56.9 C 341.2 59 341.7 59.6 342.3 59.7 C 342.8 59.8 343.5 59.8 343.9 59.7 C 343.9 59.7 344.1 60.4 344.1 60.4 C 342.9 61 341.5 61.4 340.3 61.4 C 339.2 61.4 338.7 60.6 338.3 59.5 C 337.2 60.1 335.4 61.4 333.5 61.4 C 330.5 61.4 328.9 59.2 328.9 56.8 C 328.9 55.3 329.6 53.7 331.9 53 Z M 335.1 59.7 C 336.3 59.7 338.3 59 338.3 56.4 C 338.3 56.4 338.3 51.9 338.3 51.9 C 337.6 52.4 335.9 53 334.6 53.4 C 332.8 54.1 332.1 54.9 332.1 56.4 C 332.1 58.3 333.1 59.7 335.1 59.7 Z M 346.7 51.8 L 354.6 51.8 L 354.6 54.1 L 346.7 54.1 L 346.7 51.8 Z M 361.8 53 C 364.3 52.2 367.4 51.4 368.2 50.6 C 368.2 50.6 368.2 49.3 368.2 49.3 C 368.2 46.7 366.7 46.1 365.5 46.1 C 364.2 46.1 362.9 46.8 362.2 49.2 C 362 49.7 361.9 50.1 361.2 50.1 C 360.6 50.1 359.4 49.6 359.4 48.6 C 359.4 46.8 362.2 44.9 365.9 44.9 C 370.7 44.9 371.1 47.3 371.1 49.2 C 371.1 49.2 371.1 56.9 371.1 56.9 C 371.1 59 371.6 59.6 372.2 59.7 C 372.7 59.8 373.4 59.8 373.9 59.7 C 373.9 59.7 374 60.4 374 60.4 C 372.8 61 371.5 61.4 370.3 61.4 C 369.1 61.4 368.6 60.6 368.2 59.5 C 367.2 60.1 365.3 61.4 363.4 61.4 C 360.4 61.4 358.8 59.2 358.8 56.8 C 358.8 55.3 359.5 53.7 361.8 53 Z M 365 59.7 C 366.2 59.7 368.2 59 368.2 56.4 C 368.2 56.4 368.2 51.9 368.2 51.9 C 367.5 52.4 365.8 53 364.5 53.4 C 362.7 54.1 362 54.9 362 56.4 C 362 58.3 363 59.7 365 59.7 Z M 375.3 45.3 L 377.7 45.3 L 379.7 41.3 L 380.6 41.3 L 380.6 45.3 L 384.7 45.3 L 384.7 46.6 L 380.6 46.6 C 380.6 46.6 380.6 56.52 380.6 56.5 C 380.6 59 381.6 59.7 382.7 59.7 C 383.5 59.7 384.2 59.6 385 59.3 C 385 59.3 385.2 60 385.2 60 C 384.3 60.6 382.8 61.4 381.1 61.4 C 380 61.4 377.6 61 377.6 57.7 C 377.59 57.74 377.6 46.6 377.6 46.6 L 375.3 46.6 L 375.3 45.3 Z M 386.3 60.1 C 388.5 59.9 388.7 59.8 388.7 58.2 C 388.7 58.2 388.7 40.5 388.7 40.5 C 388.7 39.3 388.5 39.1 387.6 39 C 387.64 39.02 386.4 38.9 386.4 38.9 L 386.4 38.1 L 391.4 37.3 L 391.6 37.4 C 391.6 37.4 391.64 47.37 391.6 47.4 C 393.7 46 395.1 44.9 397.4 44.9 C 400.4 44.9 402.2 46.8 402.2 50 C 402.2 50 402.2 58.2 402.2 58.2 C 402.2 59.8 402.4 59.9 404.6 60.1 C 404.57 60.07 404.6 61 404.6 61 L 396.8 61 C 396.8 61 396.76 60.07 396.8 60.1 C 399 59.9 399.2 59.8 399.2 58.2 C 399.2 58.2 399.2 50.7 399.2 50.7 C 399.2 47.9 398 46.7 395.8 46.7 C 394.1 46.7 392.6 47.7 392 49 C 391.7 49.5 391.7 49.9 391.7 50.7 C 391.7 50.7 391.7 58.2 391.7 58.2 C 391.7 59.8 391.9 59.9 394.1 60.1 C 394.07 60.07 394.1 61 394.1 61 L 386.3 61 C 386.3 61 386.3 60.07 386.3 60.1 Z M 406 60.1 C 408.3 59.9 408.4 59.8 408.4 58.2 C 408.4 58.2 408.4 40.5 408.4 40.5 C 408.4 39.2 408.2 39.1 407.4 39 C 407.39 38.98 406.2 38.9 406.2 38.9 L 406.2 38.1 L 411.2 37.3 L 411.4 37.4 C 411.4 37.4 411.42 58.22 411.4 58.2 C 411.4 59.8 411.5 59.9 413.8 60.1 C 413.82 60.07 413.8 61 413.8 61 L 406 61 C 406 61 406.01 60.07 406 60.1 Z M 423.5 44.9 C 429.4 44.9 430 49.5 430 51.4 C 430 52.4 429.4 52.6 428.7 52.6 C 428.7 52.6 419.5 52.6 419.5 52.6 C 419.4 55.9 420.2 59.8 424.2 59.8 C 426.7 59.8 428 58.2 428.9 56.4 C 428.9 56.4 429.8 56.9 429.8 56.9 C 429 59.4 427.1 61.4 423.6 61.4 C 418.4 61.4 416.2 58.3 416.2 53.3 C 416.2 48.5 418.6 44.9 423.5 44.9 Z M 425.6 51.4 C 426.5 51.4 426.7 51 426.7 50.3 C 426.7 49.1 426.3 46.1 423.4 46.1 C 420 46.1 419.5 50.1 419.5 51.4 C 419.5 51.4 425.6 51.4 425.6 51.4 Z M 432.4 45.3 L 434.8 45.3 L 436.8 41.3 L 437.7 41.3 L 437.7 45.3 L 441.8 45.3 L 441.8 46.6 L 437.7 46.6 C 437.7 46.6 437.69 56.52 437.7 56.5 C 437.7 59 438.7 59.7 439.8 59.7 C 440.6 59.7 441.3 59.6 442.1 59.3 C 442.1 59.3 442.3 60 442.3 60 C 441.4 60.6 439.9 61.4 438.2 61.4 C 437.1 61.4 434.7 61 434.7 57.7 C 434.68 57.74 434.7 46.6 434.7 46.6 L 432.4 46.6 L 432.4 45.3 Z M 451.6 44.9 C 457.5 44.9 458.1 49.5 458.1 51.4 C 458.1 52.4 457.5 52.6 456.8 52.6 C 456.8 52.6 447.6 52.6 447.6 52.6 C 447.5 55.9 448.3 59.8 452.3 59.8 C 454.8 59.8 456.1 58.2 457 56.4 C 457 56.4 457.9 56.9 457.9 56.9 C 457 59.4 455.2 61.4 451.7 61.4 C 446.5 61.4 444.3 58.3 444.3 53.3 C 444.3 48.5 446.6 44.9 451.6 44.9 Z M 453.7 51.4 C 454.6 51.4 454.8 51 454.8 50.3 C 454.8 49.1 454.4 46.1 451.4 46.1 C 448.1 46.1 447.6 50.1 447.6 51.4 C 447.6 51.4 453.7 51.4 453.7 51.4 Z " stroke="none" fill="#000"/>
  </g>
  <g id="Polygon38570">
    <path d="M 1.1 23.1 C 3.9 22.9 4 22.8 4 21 C 4 21 4 4.8 4 4.8 C 4 3 3.9 3 1.1 2.8 C 1.12 2.78 1.1 1.9 1.1 1.9 C 1.1 1.9 10.05 1.86 10 1.9 C 12.3 1.9 14.3 2.2 15.9 3.1 C 17.3 4 18.4 5.7 18.4 8.1 C 18.4 12.1 15.6 13.9 13.1 14.5 C 11.9 14.8 10.5 14.9 9 14.9 C 8.99 14.91 7.2 14.9 7.2 14.9 C 7.2 14.9 7.17 21.02 7.2 21 C 7.2 22.8 7.3 22.9 10.6 23.1 C 10.56 23.07 10.6 24 10.6 24 L 1.1 24 C 1.1 24 1.12 23.07 1.1 23.1 Z M 9.5 13.8 C 12.3 13.8 14.9 12.4 14.9 8.4 C 14.9 4.9 12.9 3 9.6 3 C 7.5 3 7.2 3.3 7.2 4.2 C 7.2 4.2 7.2 12.5 7.2 12.5 C 7.2 13.7 7.6 13.8 9.5 13.8 Z M 22.9 16 C 25.4 15.2 28.5 14.4 29.3 13.6 C 29.3 13.6 29.3 12.3 29.3 12.3 C 29.3 9.7 27.9 9.1 26.6 9.1 C 25.3 9.1 24 9.8 23.3 12.2 C 23.2 12.7 23 13.1 22.3 13.1 C 21.7 13.1 20.5 12.6 20.5 11.6 C 20.5 9.8 23.4 7.9 27 7.9 C 31.8 7.9 32.2 10.3 32.2 12.2 C 32.2 12.2 32.2 19.9 32.2 19.9 C 32.2 22 32.8 22.6 33.3 22.7 C 33.8 22.8 34.5 22.8 35 22.7 C 35 22.7 35.2 23.4 35.2 23.4 C 34 24 32.6 24.4 31.4 24.4 C 30.3 24.4 29.8 23.6 29.3 22.5 C 28.3 23.1 26.4 24.4 24.5 24.4 C 21.5 24.4 19.9 22.2 19.9 19.8 C 19.9 18.3 20.6 16.7 22.9 16 Z M 26.1 22.7 C 27.4 22.7 29.3 22 29.3 19.4 C 29.3 19.4 29.3 14.9 29.3 14.9 C 28.6 15.4 26.9 16 25.7 16.4 C 23.9 17.1 23.2 17.9 23.2 19.4 C 23.2 21.3 24.1 22.7 26.1 22.7 Z M 40.4 23.6 C 40.4 23.6 40.4 23.5 40.4 23.5 C 38.9 23.3 37.6 22.1 37.6 21 C 37.6 19.7 38.8 18.8 40.6 18.1 C 40.6 18.1 40.6 18.1 40.6 18.1 C 39.1 17.7 37.1 16.3 37.1 13.3 C 37.1 10.9 38.8 7.9 43.7 7.9 C 45.2 7.9 47 8.3 47.9 8.9 C 47.87 8.93 52 7.6 52 7.6 L 52.2 7.9 L 51.6 9.9 C 51.6 9.9 49.06 10.3 49.1 10.3 C 49.6 10.8 50 12 50 13.3 C 50 17.2 46.6 18.5 43.6 18.5 C 43.2 18.5 42.5 18.5 41.9 18.4 C 41.5 18.6 40.3 19.1 40.3 20 C 40.3 20.6 40.6 21.4 42.9 21.4 C 42.9 21.4 45.5 21.4 45.5 21.4 C 48.9 21.4 51.7 22.6 51.7 26 C 51.7 28 50.6 29.5 49.2 30.4 C 47.6 31.4 45.6 31.7 43.7 31.7 C 40 31.7 36.8 30.3 36.8 27.1 C 36.8 24.8 39.1 24 40.4 23.6 Z M 44.4 30.6 C 46.7 30.6 49 29.4 49 26.8 C 49 24.4 46.9 23.8 44.1 23.8 C 42.6 23.8 41.5 24 40.8 24.5 C 40.1 25 39.8 25.8 39.8 26.9 C 39.8 29.2 41.7 30.6 44.4 30.6 Z M 43.7 17.4 C 45.5 17.4 46.9 16 46.9 13.3 C 46.9 10.2 45.3 9.1 43.7 9.1 C 42 9.1 40.4 10.1 40.4 13.3 C 40.4 16 41.9 17.4 43.7 17.4 Z M 53 1.1 L 58 0.3 L 58.3 0.4 C 58.3 0.4 58.27 10.21 58.3 10.2 C 59.5 9.5 61.3 7.9 63.8 7.9 C 69.5 7.9 70 13.8 70 15.8 C 70 22.3 66.2 24.4 62 24.4 C 59.6 24.4 58.2 23.8 57.1 23.1 C 57.12 23.14 55.8 24.4 55.8 24.4 L 55.3 24.1 C 55.3 24.1 55.26 3.46 55.3 3.5 C 55.3 2.2 55.1 2.1 54.2 2 C 54.24 1.98 53 1.9 53 1.9 L 53 1.1 Z M 58.5 20.8 C 59.1 22.4 60.3 23.3 62 23.3 C 65.2 23.3 66.6 20.7 66.6 16 C 66.6 10.4 63.8 9.7 62.5 9.7 C 60.7 9.7 59.4 10.4 58.6 11.9 C 58.3 12.4 58.3 12.9 58.3 13.7 C 58.3 13.7 58.3 18.8 58.3 18.8 C 58.3 19.6 58.3 20.2 58.5 20.8 Z M 76.7 1.1 C 77.9 1.1 78.7 1.9 78.7 3.1 C 78.7 4.2 77.9 5 76.7 5 C 75.6 5 74.8 4.2 74.8 3.1 C 74.8 1.9 75.6 1.1 76.7 1.1 Z M 72.9 23.1 C 75.2 22.9 75.3 22.8 75.3 21.2 C 75.3 21.2 75.3 11.1 75.3 11.1 C 75.3 10 75.1 9.8 74.2 9.7 C 74.24 9.7 73 9.5 73 9.5 L 73 8.7 L 78 7.9 L 78.3 8.1 C 78.3 8.1 78.27 21.22 78.3 21.2 C 78.3 22.8 78.4 22.9 80.7 23.1 C 80.67 23.07 80.7 24 80.7 24 L 72.9 24 C 72.9 24 72.86 23.07 72.9 23.1 Z M 85.2 10.1 C 86.6 8.8 88.5 7.9 91.2 7.9 C 92.6 7.9 93.8 8.2 94.7 8.7 C 94.7 8.7 94.7 3.5 94.7 3.5 C 94.7 2.2 94.5 2.1 93.7 2 C 93.69 1.98 92.5 1.9 92.5 1.9 L 92.5 1.1 L 97.5 0.3 L 97.7 0.4 C 97.7 0.4 97.73 21.22 97.7 21.2 C 97.7 22.8 97.9 22.9 100.1 23.1 C 100.13 23.07 100.1 24 100.1 24 L 94.9 24 L 94.7 23.8 C 94.7 23.8 94.69 22.21 94.7 22.2 C 93 23.6 91.5 24.4 89.7 24.4 C 85.5 24.4 83 21.2 83 16.5 C 83 13.7 83.9 11.6 85.2 10.1 Z M 90.8 22.7 C 92.4 22.7 93.9 22 94.5 20.4 C 94.7 19.8 94.7 19.3 94.7 18.6 C 94.7 18.6 94.7 12.9 94.7 12.9 C 94.7 12.1 94.7 11.6 94.4 11.1 C 93.9 9.8 92.6 9.1 91.1 9.1 C 87.9 9.1 86.4 11.9 86.4 16.1 C 86.4 19.8 87.8 22.7 90.8 22.7 Z M 105.5 16 C 108 15.2 111.1 14.4 111.9 13.6 C 111.9 13.6 111.9 12.3 111.9 12.3 C 111.9 9.7 110.4 9.1 109.2 9.1 C 107.9 9.1 106.6 9.8 105.9 12.2 C 105.7 12.7 105.5 13.1 104.9 13.1 C 104.3 13.1 103.1 12.6 103.1 11.6 C 103.1 9.8 105.9 7.9 109.5 7.9 C 114.4 7.9 114.8 10.3 114.8 12.2 C 114.8 12.2 114.8 19.9 114.8 19.9 C 114.8 22 115.3 22.6 115.9 22.7 C 116.4 22.8 117.1 22.8 117.5 22.7 C 117.5 22.7 117.7 23.4 117.7 23.4 C 116.5 24 115.1 24.4 114 24.4 C 112.8 24.4 112.3 23.6 111.9 22.5 C 110.8 23.1 109 24.4 107.1 24.4 C 104.1 24.4 102.5 22.2 102.5 19.8 C 102.5 18.3 103.2 16.7 105.5 16 Z M 108.7 22.7 C 109.9 22.7 111.9 22 111.9 19.4 C 111.9 19.4 111.9 14.9 111.9 14.9 C 111.2 15.4 109.5 16 108.2 16.4 C 106.4 17.1 105.7 17.9 105.7 19.4 C 105.7 21.3 106.7 22.7 108.7 22.7 Z M 127.9 18.7 C 128.6 21.4 130 23.3 132.6 23.3 C 134.3 23.3 135.6 22.2 135.6 20.6 C 135.6 18.4 133.6 17.7 132.1 17.2 C 129.5 16.4 127.3 15.3 127.3 12.6 C 127.3 9.6 129.7 7.9 133.1 7.9 C 134.6 7.9 136.2 8.3 137.2 9 C 137.25 9.02 137.2 12.8 137.2 12.8 C 137.2 12.8 136.32 12.77 136.3 12.8 C 136.1 10.8 135 9.1 132.7 9.1 C 131.1 9.1 129.9 10 129.9 11.6 C 129.9 13.4 132 14.1 133.3 14.5 C 136.6 15.6 138.3 16.8 138.3 19.6 C 138.3 22.4 136.1 24.4 132.3 24.4 C 130.4 24.4 128.5 23.9 127.3 22.8 C 127.33 22.85 127 18.7 127 18.7 C 127 18.7 127.93 18.66 127.9 18.7 Z M 144.3 16 C 146.8 15.2 149.9 14.4 150.7 13.6 C 150.7 13.6 150.7 12.3 150.7 12.3 C 150.7 9.7 149.3 9.1 148 9.1 C 146.7 9.1 145.4 9.8 144.7 12.2 C 144.6 12.7 144.4 13.1 143.7 13.1 C 143.1 13.1 141.9 12.6 141.9 11.6 C 141.9 9.8 144.8 7.9 148.4 7.9 C 153.2 7.9 153.6 10.3 153.6 12.2 C 153.6 12.2 153.6 19.9 153.6 19.9 C 153.6 22 154.2 22.6 154.7 22.7 C 155.2 22.8 155.9 22.8 156.4 22.7 C 156.4 22.7 156.6 23.4 156.6 23.4 C 155.4 24 154 24.4 152.8 24.4 C 151.7 24.4 151.2 23.6 150.7 22.5 C 149.7 23.1 147.8 24.4 145.9 24.4 C 142.9 24.4 141.3 22.2 141.3 19.8 C 141.3 18.3 142 16.7 144.3 16 Z M 147.5 22.7 C 148.8 22.7 150.7 22 150.7 19.4 C 150.7 19.4 150.7 14.9 150.7 14.9 C 150 15.4 148.3 16 147.1 16.4 C 145.3 17.1 144.6 17.9 144.6 19.4 C 144.6 21.3 145.5 22.7 147.5 22.7 Z M 165.2 8.7 L 170.2 7.9 L 170.4 8.1 C 170.4 8.1 170.43 19.01 170.4 19 C 170.4 21.5 171.8 22.7 173.7 22.7 C 175.3 22.7 176.9 21.7 177.6 20.3 C 177.8 19.9 177.9 19.2 177.9 18.3 C 177.9 18.3 177.9 11.1 177.9 11.1 C 177.9 10 177.7 9.8 176.8 9.7 C 176.83 9.7 175.6 9.5 175.6 9.5 L 175.6 8.7 L 180.6 7.9 L 180.9 8.1 C 180.9 8.1 180.86 21.22 180.9 21.2 C 180.9 22.8 181.1 22.9 183.3 23.1 C 183.26 23.07 183.3 24 183.3 24 L 178.1 24 C 178.1 24 177.82 22.08 177.8 22.1 C 176.9 22.5 174.7 24.4 172 24.4 C 169.6 24.4 167.4 23.3 167.4 19.6 C 167.4 19.6 167.4 11.1 167.4 11.1 C 167.4 10 167.2 9.8 166.4 9.7 C 166.4 9.7 165.2 9.5 165.2 9.5 L 165.2 8.7 Z M 185.1 23.1 C 187.4 22.9 187.5 22.8 187.5 21.2 C 187.5 21.2 187.5 11.1 187.5 11.1 C 187.5 10 187.3 9.8 186.5 9.7 C 186.46 9.7 185.2 9.5 185.2 9.5 L 185.2 8.7 L 190.2 7.9 C 190.2 7.9 190.49 10.37 190.5 10.4 C 191.6 9.5 193.6 7.9 196.1 7.9 C 198.3 7.9 199.5 8.9 200.3 10.4 C 201.4 9.7 203.3 7.9 205.9 7.9 C 209 7.9 210.7 9.8 210.7 13 C 210.7 13 210.7 21.2 210.7 21.2 C 210.7 22.8 210.8 22.9 213.1 23.1 C 213.12 23.07 213.1 24 213.1 24 L 205.3 24 C 205.3 24 205.31 23.07 205.3 23.1 C 207.6 22.9 207.7 22.8 207.7 21.2 C 207.7 21.2 207.7 13.7 207.7 13.7 C 207.7 10.8 206.5 9.7 204.5 9.7 C 202.7 9.7 201.3 10.7 200.8 12 C 200.6 12.5 200.6 12.9 200.6 13.7 C 200.6 13.7 200.6 21.2 200.6 21.2 C 200.6 22.8 200.7 22.9 203 23.1 C 203 23.07 203 24 203 24 L 195.2 24 C 195.2 24 195.2 23.07 195.2 23.1 C 197.5 22.9 197.6 22.8 197.6 21.2 C 197.6 21.2 197.6 13.7 197.6 13.7 C 197.6 11.7 197.3 9.7 194.5 9.7 C 192.8 9.7 191.4 10.8 190.7 12 C 190.5 12.5 190.5 12.9 190.5 13.7 C 190.5 13.7 190.5 21.2 190.5 21.2 C 190.5 22.8 190.6 22.9 192.9 23.1 C 192.89 23.07 192.9 24 192.9 24 L 185.1 24 C 185.1 24 185.08 23.07 185.1 23.1 Z M 218.5 16 C 221 15.2 224.1 14.4 224.9 13.6 C 224.9 13.6 224.9 12.3 224.9 12.3 C 224.9 9.7 223.4 9.1 222.2 9.1 C 220.9 9.1 219.6 9.8 218.9 12.2 C 218.7 12.7 218.5 13.1 217.9 13.1 C 217.2 13.1 216.1 12.6 216.1 11.6 C 216.1 9.8 218.9 7.9 222.5 7.9 C 227.4 7.9 227.8 10.3 227.8 12.2 C 227.8 12.2 227.8 19.9 227.8 19.9 C 227.8 22 228.3 22.6 228.9 22.7 C 229.4 22.8 230.1 22.8 230.5 22.7 C 230.5 22.7 230.7 23.4 230.7 23.4 C 229.5 24 228.1 24.4 226.9 24.4 C 225.8 24.4 225.3 23.6 224.9 22.5 C 223.8 23.1 221.9 24.4 220.1 24.4 C 217.1 24.4 215.5 22.2 215.5 19.8 C 215.5 18.3 216.2 16.7 218.5 16 Z M 221.7 22.7 C 222.9 22.7 224.9 22 224.9 19.4 C 224.9 19.4 224.9 14.9 224.9 14.9 C 224.2 15.4 222.5 16 221.2 16.4 C 219.4 17.1 218.7 17.9 218.7 19.4 C 218.7 21.3 219.7 22.7 221.7 22.7 Z M 235.5 16 C 238 15.2 241.1 14.4 241.9 13.6 C 241.9 13.6 241.9 12.3 241.9 12.3 C 241.9 9.7 240.5 9.1 239.2 9.1 C 237.9 9.1 236.6 9.8 235.9 12.2 C 235.8 12.7 235.6 13.1 234.9 13.1 C 234.3 13.1 233.1 12.6 233.1 11.6 C 233.1 9.8 236 7.9 239.6 7.9 C 244.4 7.9 244.8 10.3 244.8 12.2 C 244.8 12.2 244.8 19.9 244.8 19.9 C 244.8 22 245.4 22.6 245.9 22.7 C 246.4 22.8 247.1 22.8 247.6 22.7 C 247.6 22.7 247.8 23.4 247.8 23.4 C 246.6 24 245.2 24.4 244 24.4 C 242.9 24.4 242.4 23.6 241.9 22.5 C 240.9 23.1 239 24.4 237.1 24.4 C 234.1 24.4 232.5 22.2 232.5 19.8 C 232.5 18.3 233.2 16.7 235.5 16 Z M 238.7 22.7 C 240 22.7 241.9 22 241.9 19.4 C 241.9 19.4 241.9 14.9 241.9 14.9 C 241.2 15.4 239.5 16 238.3 16.4 C 236.5 17.1 235.8 17.9 235.8 19.4 C 235.8 21.3 236.7 22.7 238.7 22.7 Z M 248.7 23.1 C 251 22.9 251.1 22.8 251.1 21.2 C 251.1 21.2 251.1 3.5 251.1 3.5 C 251.1 2.2 250.9 2.1 250 2 C 250.04 1.98 248.8 1.9 248.8 1.9 L 248.8 1.1 L 253.9 0.3 L 254.1 0.4 C 254.1 0.4 254.08 21.22 254.1 21.2 C 254.1 22.8 254.2 22.9 256.5 23.1 C 256.48 23.07 256.5 24 256.5 24 L 248.7 24 C 248.7 24 248.67 23.07 248.7 23.1 Z M 260.5 28.6 C 260.5 28.6 260.5 11.1 260.5 11.1 C 260.5 10 260.3 9.8 259.5 9.7 C 259.45 9.7 258.2 9.5 258.2 9.5 L 258.2 8.7 L 263.1 7.9 C 263.1 7.9 263.48 10.3 263.5 10.3 C 264.7 9.5 266.6 7.9 268.9 7.9 C 274.7 7.9 275.2 13.5 275.2 15.8 C 275.2 22.4 271.5 24.4 267.1 24.4 C 265.7 24.4 264.2 24 263.5 23.6 C 263.5 23.6 263.5 28.6 263.5 28.6 C 263.5 30.2 263.7 30.3 266.4 30.4 C 266.36 30.43 266.4 31.4 266.4 31.4 L 258.1 31.4 C 258.1 31.4 258.08 30.43 258.1 30.4 C 260.3 30.3 260.5 30.2 260.5 28.6 Z M 263.7 20.9 C 264.2 22.4 265.5 23.3 267.2 23.3 C 270.4 23.3 271.8 20.7 271.8 16 C 271.8 10.5 269 9.7 267.7 9.7 C 266 9.7 264.6 10.4 263.9 11.9 C 263.6 12.5 263.5 12.9 263.5 13.7 C 263.5 13.7 263.5 19 263.5 19 C 263.5 19.7 263.5 20.4 263.7 20.9 Z M 281.6 16 C 284.1 15.2 287.2 14.4 288 13.6 C 288 13.6 288 12.3 288 12.3 C 288 9.7 286.6 9.1 285.3 9.1 C 284 9.1 282.7 9.8 282 12.2 C 281.9 12.7 281.7 13.1 281 13.1 C 280.4 13.1 279.2 12.6 279.2 11.6 C 279.2 9.8 282 7.9 285.7 7.9 C 290.5 7.9 290.9 10.3 290.9 12.2 C 290.9 12.2 290.9 19.9 290.9 19.9 C 290.9 22 291.5 22.6 292 22.7 C 292.5 22.8 293.2 22.8 293.7 22.7 C 293.7 22.7 293.9 23.4 293.9 23.4 C 292.6 24 291.3 24.4 290.1 24.4 C 289 24.4 288.4 23.6 288 22.5 C 287 23.1 285.1 24.4 283.2 24.4 C 280.2 24.4 278.6 22.2 278.6 19.8 C 278.6 18.3 279.3 16.7 281.6 16 Z M 284.8 22.7 C 286 22.7 288 22 288 19.4 C 288 19.4 288 14.9 288 14.9 C 287.3 15.4 285.6 16 284.3 16.4 C 282.6 17.1 281.9 17.9 281.9 19.4 C 281.9 21.3 282.8 22.7 284.8 22.7 Z M 296.5 18.7 C 297.2 21.4 298.6 23.3 301.2 23.3 C 302.9 23.3 304.2 22.2 304.2 20.6 C 304.2 18.4 302.2 17.7 300.7 17.2 C 298.1 16.4 295.9 15.3 295.9 12.6 C 295.9 9.6 298.3 7.9 301.7 7.9 C 303.2 7.9 304.8 8.3 305.9 9 C 305.85 9.02 305.9 12.8 305.9 12.8 C 305.9 12.8 304.92 12.77 304.9 12.8 C 304.7 10.8 303.6 9.1 301.3 9.1 C 299.7 9.1 298.5 10 298.5 11.6 C 298.5 13.4 300.6 14.1 301.9 14.5 C 305.2 15.6 306.9 16.8 306.9 19.6 C 306.9 22.4 304.7 24.4 300.9 24.4 C 299 24.4 297.1 23.9 295.9 22.8 C 295.93 22.85 295.6 18.7 295.6 18.7 C 295.6 18.7 296.54 18.66 296.5 18.7 Z M 316.9 23.1 C 319.2 22.9 319.3 22.8 319.3 21.2 C 319.3 21.2 319.3 11.1 319.3 11.1 C 319.3 10 319.1 9.8 318.3 9.7 C 318.3 9.7 317.1 9.5 317.1 9.5 L 317.1 8.7 L 321.9 7.9 C 321.9 7.9 322.3 10.37 322.3 10.4 C 324.3 9.1 325.8 7.9 328.1 7.9 C 331.1 7.9 332.8 9.8 332.8 13 C 332.8 13 332.8 21.2 332.8 21.2 C 332.8 22.8 333 22.9 335.2 23.1 C 335.23 23.07 335.2 24 335.2 24 L 327.4 24 C 327.4 24 327.42 23.07 327.4 23.1 C 329.7 22.9 329.8 22.8 329.8 21.2 C 329.8 21.2 329.8 13.7 329.8 13.7 C 329.8 10.9 328.6 9.7 326.5 9.7 C 324.8 9.7 323.3 10.7 322.7 12 C 322.4 12.5 322.3 12.9 322.3 13.7 C 322.3 13.7 322.3 21.2 322.3 21.2 C 322.3 22.8 322.5 22.9 324.7 23.1 C 324.73 23.07 324.7 24 324.7 24 L 316.9 24 C 316.9 24 316.92 23.07 316.9 23.1 Z M 340.6 16 C 343.1 15.2 346.2 14.4 347 13.6 C 347 13.6 347 12.3 347 12.3 C 347 9.7 345.5 9.1 344.3 9.1 C 343 9.1 341.7 9.8 341 12.2 C 340.8 12.7 340.6 13.1 340 13.1 C 339.4 13.1 338.2 12.6 338.2 11.6 C 338.2 9.8 341 7.9 344.6 7.9 C 349.5 7.9 349.9 10.3 349.9 12.2 C 349.9 12.2 349.9 19.9 349.9 19.9 C 349.9 22 350.4 22.6 351 22.7 C 351.5 22.8 352.2 22.8 352.6 22.7 C 352.6 22.7 352.8 23.4 352.8 23.4 C 351.6 24 350.2 24.4 349.1 24.4 C 347.9 24.4 347.4 23.6 347 22.5 C 345.9 23.1 344.1 24.4 342.2 24.4 C 339.2 24.4 337.6 22.2 337.6 19.8 C 337.6 18.3 338.3 16.7 340.6 16 Z M 343.8 22.7 C 345 22.7 347 22 347 19.4 C 347 19.4 347 14.9 347 14.9 C 346.3 15.4 344.6 16 343.3 16.4 C 341.5 17.1 340.8 17.9 340.8 19.4 C 340.8 21.3 341.8 22.7 343.8 22.7 Z " stroke="none" fill="#000"/>
  </g>
</svg>