<?xml version="1.0" standalone="no"?>
<!DOCTYPE svg PUBLIC "-//W3C//DTD SVG 1.1//EN" "http://www.w3.org/Graphics/SVG/1.1/DTD/svg11.dtd">
<svg xmlns="http://www.w3.org/2000/svg" version="1.1" width="149.5px" height="17.9px" viewBox="0 -4 149.5 17.9" style="top:-4px">
  <desc>LABORATORYO p 9</desc>
  <defs/>
  <g id="Polygon14157">
    <path d="M 55.9 0.3 L 57.1 0.3 L 57.1 5.6 L 58.9 5.6 L 58.9 6.8 L 55.9 6.8 L 55.9 0.3 Z M 61.8 0.3 L 63.1 0.3 L 65.6 6.8 L 64.3 6.8 L 63.8 5.4 L 61.1 5.4 L 60.6 6.8 L 59.3 6.8 L 61.8 0.3 Z M 62.5 2 L 61.6 4.2 L 63.3 4.2 L 62.5 2 Z M 66.5 6.8 L 66.5 0.3 C 66.5 0.3 67.52 0.29 67.5 0.3 C 68.1 0.3 68.5 0.3 68.8 0.4 C 69.2 0.5 69.5 0.7 69.7 1 C 70 1.2 70.1 1.6 70.1 2 C 70.1 2.2 70 2.4 69.9 2.6 C 69.8 2.8 69.7 3 69.4 3.2 C 69.8 3.4 70.1 3.6 70.3 3.9 C 70.5 4.2 70.6 4.5 70.6 4.9 C 70.6 5.2 70.5 5.6 70.3 5.9 C 70.1 6.2 69.8 6.4 69.5 6.5 C 69.3 6.7 68.8 6.8 68.3 6.8 C 68.32 6.75 66.5 6.8 66.5 6.8 Z M 67.7 1.5 L 67.7 2.8 C 67.7 2.8 68.01 2.82 68 2.8 C 68.3 2.8 68.5 2.8 68.7 2.6 C 68.8 2.5 68.9 2.3 68.9 2.1 C 68.9 1.9 68.8 1.8 68.7 1.6 C 68.5 1.5 68.3 1.5 68.1 1.5 C 68.06 1.46 67.7 1.5 67.7 1.5 Z M 67.7 3.9 L 67.7 5.6 C 67.7 5.6 68.05 5.58 68 5.6 C 68.6 5.6 68.9 5.5 69.1 5.4 C 69.3 5.3 69.3 5.1 69.3 4.8 C 69.3 4.5 69.2 4.3 69 4.2 C 68.8 4 68.5 3.9 68 3.9 C 67.99 3.92 67.7 3.9 67.7 3.9 Z M 74.8 0.1 C 75.7 0.1 76.5 0.5 77.1 1.1 C 77.8 1.8 78.1 2.6 78.1 3.5 C 78.1 4.5 77.8 5.3 77.2 5.9 C 76.5 6.6 75.7 6.9 74.8 6.9 C 73.8 6.9 73 6.6 72.4 5.9 C 71.7 5.2 71.4 4.4 71.4 3.5 C 71.4 2.9 71.6 2.3 71.9 1.8 C 72.2 1.3 72.6 0.9 73.1 0.6 C 73.6 0.3 74.2 0.1 74.8 0.1 Z M 74.8 1.3 C 74.2 1.3 73.7 1.5 73.3 2 C 72.9 2.4 72.6 2.9 72.6 3.5 C 72.6 4.3 72.9 4.8 73.4 5.2 C 73.8 5.6 74.3 5.7 74.8 5.7 C 75.4 5.7 75.9 5.5 76.3 5.1 C 76.7 4.7 76.9 4.1 76.9 3.5 C 76.9 2.9 76.7 2.4 76.3 2 C 75.9 1.5 75.4 1.3 74.8 1.3 Z M 79.4 0.3 C 79.4 0.3 80.67 0.29 80.7 0.3 C 81.4 0.3 81.9 0.3 82.2 0.5 C 82.5 0.6 82.7 0.8 82.9 1.1 C 83.1 1.4 83.2 1.8 83.2 2.2 C 83.2 2.6 83.1 2.9 82.9 3.2 C 82.7 3.5 82.4 3.7 82 3.9 C 81.98 3.88 83.5 6.8 83.5 6.8 L 82.2 6.8 L 80.7 4 L 80.6 4 L 80.6 6.8 L 79.4 6.8 L 79.4 0.3 Z M 80.6 2.8 C 80.6 2.8 80.99 2.81 81 2.8 C 81.4 2.8 81.6 2.8 81.8 2.7 C 81.9 2.6 82 2.4 82 2.1 C 82 2 82 1.9 81.9 1.8 C 81.8 1.7 81.7 1.6 81.6 1.6 C 81.5 1.5 81.3 1.5 80.9 1.5 C 80.94 1.49 80.6 1.5 80.6 1.5 L 80.6 2.8 Z M 86.5 0.3 L 87.7 0.3 L 90.2 6.8 L 88.9 6.8 L 88.4 5.4 L 85.8 5.4 L 85.3 6.8 L 84 6.8 L 86.5 0.3 Z M 87.1 2 L 86.2 4.2 L 88 4.2 L 87.1 2 Z M 90.5 0.3 L 94.1 0.3 L 94.1 1.5 L 92.9 1.5 L 92.9 6.8 L 91.7 6.8 L 91.7 1.5 L 90.5 1.5 L 90.5 0.3 Z M 98 0.1 C 98.9 0.1 99.7 0.5 100.4 1.1 C 101 1.8 101.3 2.6 101.3 3.5 C 101.3 4.5 101 5.3 100.4 5.9 C 99.7 6.6 98.9 6.9 98 6.9 C 97 6.9 96.2 6.6 95.6 5.9 C 94.9 5.2 94.6 4.4 94.6 3.5 C 94.6 2.9 94.8 2.3 95.1 1.8 C 95.4 1.3 95.8 0.9 96.3 0.6 C 96.8 0.3 97.4 0.1 98 0.1 Z M 98 1.3 C 97.4 1.3 96.9 1.5 96.5 2 C 96.1 2.4 95.9 2.9 95.9 3.5 C 95.9 4.3 96.1 4.8 96.6 5.2 C 97 5.6 97.5 5.7 98 5.7 C 98.6 5.7 99.1 5.5 99.5 5.1 C 99.9 4.7 100.1 4.1 100.1 3.5 C 100.1 2.9 99.9 2.4 99.5 2 C 99.1 1.5 98.6 1.3 98 1.3 Z M 102.6 0.3 C 102.6 0.3 103.89 0.29 103.9 0.3 C 104.6 0.3 105.1 0.3 105.4 0.5 C 105.7 0.6 106 0.8 106.1 1.1 C 106.3 1.4 106.4 1.8 106.4 2.2 C 106.4 2.6 106.3 2.9 106.1 3.2 C 105.9 3.5 105.6 3.7 105.2 3.9 C 105.2 3.88 106.7 6.8 106.7 6.8 L 105.4 6.8 L 103.9 4 L 103.8 4 L 103.8 6.8 L 102.6 6.8 L 102.6 0.3 Z M 103.8 2.8 C 103.8 2.8 104.2 2.81 104.2 2.8 C 104.6 2.8 104.9 2.8 105 2.7 C 105.2 2.6 105.2 2.4 105.2 2.1 C 105.2 2 105.2 1.9 105.1 1.8 C 105.1 1.7 105 1.6 104.8 1.6 C 104.7 1.5 104.5 1.5 104.2 1.5 C 104.16 1.49 103.8 1.5 103.8 1.5 L 103.8 2.8 Z M 107.3 0.3 L 108.6 0.3 L 109.8 2.6 L 111 0.3 L 112.3 0.3 L 110.4 4 L 110.4 6.8 L 109.2 6.8 L 109.2 4 L 107.3 0.3 Z M 116.4 0.1 C 117.3 0.1 118.1 0.5 118.7 1.1 C 119.4 1.8 119.7 2.6 119.7 3.5 C 119.7 4.5 119.4 5.3 118.7 5.9 C 118.1 6.6 117.3 6.9 116.4 6.9 C 115.4 6.9 114.6 6.6 113.9 5.9 C 113.3 5.2 113 4.4 113 3.5 C 113 2.9 113.1 2.3 113.4 1.8 C 113.7 1.3 114.1 0.9 114.7 0.6 C 115.2 0.3 115.8 0.1 116.4 0.1 Z M 116.3 1.3 C 115.7 1.3 115.2 1.5 114.8 2 C 114.4 2.4 114.2 2.9 114.2 3.5 C 114.2 4.3 114.5 4.8 115 5.2 C 115.4 5.6 115.9 5.7 116.4 5.7 C 116.9 5.7 117.4 5.5 117.9 5.1 C 118.3 4.7 118.5 4.1 118.5 3.5 C 118.5 2.9 118.3 2.4 117.9 2 C 117.4 1.5 116.9 1.3 116.3 1.3 Z M 123.1 1.9 L 123.1 0.8 L 127.5 3 L 127.5 4 L 123.1 6.2 L 123.1 5.1 L 126.3 3.5 L 123.1 1.9 Z M 128.6 1.9 L 128.6 0.8 L 132.9 3 L 132.9 4 L 128.6 6.2 L 128.6 5.1 L 131.7 3.5 L 128.6 1.9 Z M 137.8 2 C 137.8 2 137.76 2.5 137.8 2.5 C 138 2.3 138.2 2.1 138.5 2 C 138.7 1.9 139 1.8 139.3 1.8 C 139.9 1.8 140.4 2.1 140.9 2.6 C 141.3 3 141.5 3.6 141.5 4.4 C 141.5 5.1 141.3 5.7 140.8 6.2 C 140.4 6.6 139.9 6.9 139.2 6.9 C 139 6.9 138.7 6.8 138.5 6.7 C 138.2 6.6 138 6.5 137.8 6.2 C 137.76 6.24 137.8 8.5 137.8 8.5 L 136.6 8.5 L 136.6 2 L 137.8 2 Z M 139 3 C 138.6 3 138.3 3.1 138.1 3.3 C 137.8 3.6 137.7 3.9 137.7 4.4 C 137.7 4.8 137.8 5.1 138.1 5.4 C 138.3 5.6 138.6 5.8 139 5.8 C 139.4 5.8 139.7 5.6 139.9 5.4 C 140.2 5.1 140.3 4.8 140.3 4.4 C 140.3 3.9 140.2 3.6 140 3.3 C 139.7 3.1 139.4 3 139 3 Z M 143.2 5.5 C 143.4 5.5 143.5 5.6 143.7 5.7 C 143.8 5.8 143.9 6 143.9 6.2 C 143.9 6.4 143.8 6.5 143.7 6.7 C 143.5 6.8 143.4 6.9 143.2 6.9 C 143 6.9 142.8 6.8 142.7 6.7 C 142.5 6.5 142.5 6.4 142.5 6.2 C 142.5 6 142.5 5.8 142.7 5.7 C 142.8 5.6 143 5.5 143.2 5.5 Z M 146.9 6.9 L 145.8 6.4 C 145.8 6.4 146.94 4.19 146.9 4.2 C 146.4 4.2 145.9 4 145.5 3.6 C 145.2 3.2 145 2.7 145 2.1 C 145 1.6 145.2 1.1 145.6 0.7 C 145.9 0.3 146.4 0.1 147 0.1 C 147.6 0.1 148 0.3 148.4 0.7 C 148.8 1.1 149 1.6 149 2.1 C 149 2.3 149 2.5 148.9 2.7 C 148.9 2.9 148.7 3.2 148.5 3.7 C 148.51 3.66 146.9 6.9 146.9 6.9 Z M 147 3 C 147.2 3 147.4 2.9 147.6 2.8 C 147.7 2.6 147.8 2.4 147.8 2.2 C 147.8 1.9 147.7 1.7 147.6 1.5 C 147.4 1.4 147.2 1.3 147 1.3 C 146.8 1.3 146.6 1.4 146.4 1.5 C 146.2 1.7 146.2 1.9 146.2 2.2 C 146.2 2.4 146.2 2.6 146.4 2.8 C 146.6 2.9 146.8 3 147 3 Z " stroke="none" fill="#000"/>
  </g>
</svg>