<?xml version="1.0" standalone="no"?>
<!DOCTYPE svg PUBLIC "-//W3C//DTD SVG 1.1//EN" "http://www.w3.org/Graphics/SVG/1.1/DTD/svg11.dtd">
<svg xmlns="http://www.w3.org/2000/svg" version="1.1" width="120px" height="13.9px" viewBox="0 -1 120 13.9" style="top:-1px">
  <desc>PADDLER p 17</desc>
  <defs/>
  <g id="Polygon39220">
    <path d="M 48.1 2.7 C 48.1 2.7 49.41 2.74 49.4 2.7 C 50.1 2.7 50.6 2.8 50.9 2.9 C 51.2 3.1 51.5 3.3 51.7 3.6 C 51.9 3.9 51.9 4.2 51.9 4.6 C 51.9 5.1 51.8 5.4 51.6 5.7 C 51.4 6 51 6.2 50.6 6.4 C 50.4 6.4 50 6.5 49.3 6.5 C 49.33 6.46 49.3 9.2 49.3 9.2 L 48.1 9.2 L 48.1 2.7 Z M 49.3 5.3 C 49.3 5.3 49.72 5.27 49.7 5.3 C 50 5.3 50.2 5.2 50.4 5.2 C 50.5 5.2 50.6 5.1 50.6 5 C 50.7 4.9 50.8 4.8 50.8 4.6 C 50.8 4.4 50.7 4.2 50.5 4.1 C 50.3 4 50.1 3.9 49.7 3.9 C 49.68 3.94 49.3 3.9 49.3 3.9 L 49.3 5.3 Z M 55.1 2.7 L 56.4 2.7 L 58.9 9.2 L 57.6 9.2 L 57.1 7.9 L 54.4 7.9 L 53.9 9.2 L 52.6 9.2 L 55.1 2.7 Z M 55.8 4.5 L 54.9 6.7 L 56.6 6.7 L 55.8 4.5 Z M 59.8 2.7 C 59.8 2.7 61.27 2.74 61.3 2.7 C 62.2 2.7 62.9 2.9 63.4 3.1 C 63.8 3.3 64.2 3.7 64.5 4.2 C 64.8 4.7 64.9 5.4 64.9 6.1 C 64.9 6.6 64.9 7 64.7 7.4 C 64.5 7.9 64.3 8.2 64 8.5 C 63.7 8.7 63.4 8.9 63.1 9 C 62.7 9.1 62.1 9.2 61.3 9.2 C 61.29 9.2 59.8 9.2 59.8 9.2 L 59.8 2.7 Z M 61 3.9 L 61 8 C 61 8 61.6 8 61.6 8 C 62.2 8 62.6 7.9 62.8 7.8 C 63.1 7.7 63.3 7.5 63.4 7.2 C 63.6 6.9 63.7 6.5 63.7 6 C 63.7 5.3 63.5 4.8 63.1 4.4 C 62.8 4.1 62.2 3.9 61.4 3.9 C 61.45 3.92 61 3.9 61 3.9 Z M 66.1 2.7 C 66.1 2.7 67.57 2.74 67.6 2.7 C 68.5 2.7 69.2 2.9 69.7 3.1 C 70.1 3.3 70.5 3.7 70.8 4.2 C 71.1 4.7 71.2 5.4 71.2 6.1 C 71.2 6.6 71.2 7 71 7.4 C 70.8 7.9 70.6 8.2 70.3 8.5 C 70 8.7 69.7 8.9 69.4 9 C 69 9.1 68.4 9.2 67.6 9.2 C 67.59 9.2 66.1 9.2 66.1 9.2 L 66.1 2.7 Z M 67.3 3.9 L 67.3 8 C 67.3 8 67.9 8 67.9 8 C 68.5 8 68.9 7.9 69.1 7.8 C 69.4 7.7 69.6 7.5 69.7 7.2 C 69.9 6.9 70 6.5 70 6 C 70 5.3 69.8 4.8 69.4 4.4 C 69.1 4.1 68.5 3.9 67.7 3.9 C 67.75 3.92 67.3 3.9 67.3 3.9 Z M 72.4 2.7 L 73.6 2.7 L 73.6 8 L 75.4 8 L 75.4 9.2 L 72.4 9.2 L 72.4 2.7 Z M 76.4 2.7 L 79.9 2.7 L 79.9 3.9 L 77.6 3.9 L 77.6 5.1 L 79.9 5.1 L 79.9 6.3 L 77.6 6.3 L 77.6 8 L 79.9 8 L 79.9 9.2 L 76.4 9.2 L 76.4 2.7 Z M 81.1 2.7 C 81.1 2.7 82.43 2.74 82.4 2.7 C 83.1 2.7 83.7 2.8 84 2.9 C 84.3 3.1 84.5 3.3 84.7 3.6 C 84.9 3.9 85 4.2 85 4.6 C 85 5 84.9 5.4 84.7 5.7 C 84.5 6 84.2 6.2 83.7 6.3 C 83.74 6.33 85.3 9.2 85.3 9.2 L 83.9 9.2 L 82.5 6.5 L 82.4 6.5 L 82.4 9.2 L 81.1 9.2 L 81.1 2.7 Z M 82.4 5.3 C 82.4 5.3 82.75 5.27 82.7 5.3 C 83.1 5.3 83.4 5.2 83.6 5.1 C 83.7 5 83.8 4.8 83.8 4.6 C 83.8 4.5 83.7 4.3 83.7 4.2 C 83.6 4.1 83.5 4.1 83.4 4 C 83.3 4 83 3.9 82.7 3.9 C 82.7 3.94 82.4 3.9 82.4 3.9 L 82.4 5.3 Z M 88.6 4.3 L 88.6 3.3 L 92.9 5.5 L 92.9 6.5 L 88.6 8.7 L 88.6 7.6 L 91.7 6 L 88.6 4.3 Z M 94 4.3 L 94 3.3 L 98.3 5.5 L 98.3 6.5 L 94 8.7 L 94 7.6 L 97.1 6 L 94 4.3 Z M 103.2 4.4 C 103.2 4.4 103.17 4.95 103.2 4.9 C 103.4 4.7 103.6 4.6 103.9 4.5 C 104.1 4.4 104.4 4.3 104.7 4.3 C 105.3 4.3 105.8 4.5 106.3 5 C 106.7 5.5 106.9 6.1 106.9 6.8 C 106.9 7.5 106.7 8.1 106.2 8.6 C 105.8 9.1 105.3 9.3 104.6 9.3 C 104.4 9.3 104.1 9.3 103.9 9.2 C 103.6 9.1 103.4 8.9 103.2 8.7 C 103.17 8.7 103.2 11 103.2 11 L 102 11 L 102 4.4 L 103.2 4.4 Z M 104.4 5.4 C 104 5.4 103.7 5.5 103.5 5.8 C 103.2 6.1 103.1 6.4 103.1 6.8 C 103.1 7.2 103.2 7.6 103.5 7.8 C 103.7 8.1 104 8.2 104.4 8.2 C 104.8 8.2 105.1 8.1 105.4 7.8 C 105.6 7.6 105.7 7.2 105.7 6.8 C 105.7 6.4 105.6 6.1 105.4 5.8 C 105.1 5.5 104.8 5.4 104.4 5.4 Z M 108.6 8 C 108.8 8 108.9 8 109.1 8.2 C 109.2 8.3 109.3 8.4 109.3 8.6 C 109.3 8.8 109.2 9 109.1 9.1 C 108.9 9.3 108.8 9.3 108.6 9.3 C 108.4 9.3 108.2 9.3 108.1 9.1 C 107.9 9 107.9 8.8 107.9 8.6 C 107.9 8.4 107.9 8.3 108.1 8.2 C 108.2 8 108.4 8 108.6 8 Z M 111.3 2.7 L 113.1 2.7 L 113.1 9.2 L 111.9 9.2 L 111.9 3.9 L 110.6 3.9 L 111.3 2.7 Z M 115.4 2.7 L 119.6 2.7 L 119.6 3.4 L 116.7 9.4 L 115.7 8.9 L 118.1 3.9 L 115.4 3.9 L 115.4 2.7 Z " stroke="none" fill="#000"/>
  </g>
</svg>