<?xml version="1.0" standalone="no"?>
<!DOCTYPE svg PUBLIC "-//W3C//DTD SVG 1.1//EN" "http://www.w3.org/Graphics/SVG/1.1/DTD/svg11.dtd">
<svg xmlns="http://www.w3.org/2000/svg" version="1.1" width="133.2px" height="18px" viewBox="0 -3 133.2 18" style="top:-3px">
  <desc>Dibuho ni Angelina Bien Visaya</desc>
  <defs/>
  <g id="Polygon37310">
    <path d="M 1.3 7.9 C 1.3 7.9 2.74 7.86 2.7 7.9 C 3.1 7.9 3.3 7.8 3.6 7.7 C 3.8 7.6 4 7.4 4.2 7.3 C 4.4 7.1 4.5 6.9 4.6 6.7 C 4.8 6.5 4.9 6.3 4.9 6.1 C 5 5.8 5 5.7 5.1 5.5 C 5.1 5.3 5.1 5.1 5.1 5 C 5.1 4.5 5 4 4.7 3.7 C 4.5 3.4 4.1 3.3 3.7 3.3 C 3.7 3.27 2.3 3.3 2.3 3.3 L 1.3 7.9 Z M 1.4 2.3 C 1.4 2.3 3.72 2.35 3.7 2.3 C 4.5 2.3 5.2 2.6 5.6 3 C 6 3.5 6.2 4.1 6.2 5 C 6.2 5.2 6.2 5.4 6.2 5.7 C 6.1 5.9 6.1 6.2 6 6.4 C 5.9 6.6 5.8 6.9 5.7 7.1 C 5.5 7.3 5.4 7.5 5.2 7.7 C 5 7.9 4.8 8 4.7 8.2 C 4.5 8.3 4.3 8.4 4.1 8.5 C 3.8 8.6 3.6 8.7 3.3 8.7 C 3 8.8 2.7 8.8 2.3 8.8 C 2.27 8.77 0 8.8 0 8.8 L 1.4 2.3 Z M 7.8 2.3 L 8.8 2.3 L 8.6 3.3 L 7.6 3.3 L 7.8 2.3 Z M 7.4 4.1 L 8.5 4.1 L 7.5 8.8 L 6.5 8.8 L 7.4 4.1 Z M 10.1 2.3 L 11.1 2.3 L 10.6 4.7 C 10.6 4.7 10.64 4.67 10.6 4.7 C 11 4.2 11.5 4 12.1 4 C 12.3 4 12.6 4 12.8 4.1 C 13 4.2 13.2 4.4 13.3 4.5 C 13.5 4.7 13.6 4.9 13.7 5.1 C 13.8 5.4 13.8 5.6 13.8 5.9 C 13.8 6.3 13.8 6.6 13.7 7 C 13.6 7.4 13.4 7.7 13.2 8 C 13 8.2 12.7 8.5 12.4 8.6 C 12.1 8.8 11.8 8.9 11.4 8.9 C 11 8.9 10.7 8.8 10.4 8.7 C 10.2 8.6 10 8.3 9.8 8 C 9.83 7.99 9.8 8 9.8 8 L 9.7 8.8 L 8.7 8.8 L 10.1 2.3 Z M 11.7 4.8 C 11.4 4.8 11.2 4.9 11 5 C 10.8 5.1 10.7 5.3 10.5 5.5 C 10.4 5.7 10.3 5.9 10.2 6.2 C 10.2 6.4 10.2 6.7 10.2 6.9 C 10.2 7.3 10.2 7.6 10.4 7.8 C 10.6 8 10.9 8.1 11.2 8.1 C 11.5 8.1 11.7 8 11.9 7.9 C 12.1 7.8 12.3 7.6 12.4 7.4 C 12.5 7.2 12.6 7 12.7 6.7 C 12.7 6.5 12.8 6.2 12.8 6 C 12.8 5.6 12.7 5.3 12.5 5.1 C 12.3 4.9 12.1 4.8 11.7 4.8 Z M 18.4 8.8 L 17.4 8.8 L 17.6 8.1 C 17.6 8.1 17.55 8.08 17.5 8.1 C 17.4 8.3 17.1 8.5 16.9 8.7 C 16.6 8.8 16.3 8.9 15.9 8.9 C 15.5 8.9 15.1 8.8 14.9 8.6 C 14.7 8.3 14.6 8 14.6 7.7 C 14.6 7.6 14.6 7.5 14.6 7.4 C 14.6 7.3 14.6 7.2 14.6 7.1 C 14.63 7.09 15.3 4.1 15.3 4.1 L 16.3 4.1 C 16.3 4.1 15.69 6.99 15.7 7 C 15.7 7.1 15.7 7.1 15.6 7.2 C 15.6 7.3 15.6 7.4 15.6 7.4 C 15.6 7.5 15.6 7.5 15.6 7.6 C 15.6 7.7 15.6 7.7 15.7 7.8 C 15.7 7.9 15.8 8 15.9 8 C 16 8.1 16.1 8.1 16.3 8.1 C 16.5 8.1 16.7 8 16.9 8 C 17 7.9 17.2 7.8 17.3 7.6 C 17.4 7.5 17.5 7.3 17.6 7.2 C 17.7 7 17.8 6.8 17.8 6.6 C 17.8 6.64 18.3 4.1 18.3 4.1 L 19.3 4.1 L 18.4 8.8 Z M 20.9 2.3 L 21.9 2.3 L 21.4 4.8 C 21.4 4.8 21.46 4.78 21.5 4.8 C 21.6 4.5 21.9 4.4 22.1 4.2 C 22.4 4.1 22.7 4 23 4 C 23.5 4 23.8 4.1 24 4.3 C 24.2 4.6 24.3 4.9 24.3 5.2 C 24.3 5.3 24.3 5.4 24.3 5.5 C 24.3 5.6 24.3 5.7 24.3 5.8 C 24.3 5.8 23.7 8.8 23.7 8.8 L 22.7 8.8 C 22.7 8.8 23.25 5.9 23.2 5.9 C 23.3 5.8 23.3 5.8 23.3 5.7 C 23.3 5.6 23.3 5.5 23.3 5.5 C 23.3 5.4 23.3 5.4 23.3 5.3 C 23.3 5.2 23.3 5.2 23.2 5.1 C 23.2 5 23.1 4.9 23 4.9 C 22.9 4.8 22.8 4.8 22.6 4.8 C 22.4 4.8 22.2 4.8 22.1 4.9 C 21.9 5 21.8 5.1 21.6 5.3 C 21.5 5.4 21.4 5.5 21.3 5.7 C 21.2 5.9 21.2 6.1 21.1 6.3 C 21.13 6.25 20.6 8.8 20.6 8.8 L 19.6 8.8 L 20.9 2.3 Z M 27.6 4.8 C 27.4 4.8 27.2 4.9 27 5 C 26.8 5.1 26.6 5.3 26.5 5.5 C 26.3 5.7 26.2 5.9 26.2 6.2 C 26.1 6.4 26.1 6.7 26.1 6.9 C 26.1 7.2 26.2 7.5 26.3 7.7 C 26.5 8 26.8 8.1 27.2 8.1 C 27.4 8.1 27.6 8 27.8 7.9 C 28 7.8 28.2 7.6 28.3 7.4 C 28.5 7.2 28.6 7 28.6 6.7 C 28.7 6.5 28.7 6.2 28.7 6 C 28.7 5.7 28.6 5.4 28.5 5.1 C 28.3 4.9 28 4.8 27.6 4.8 Z M 27.1 8.9 C 26.4 8.9 25.9 8.7 25.6 8.4 C 25.2 8 25.1 7.5 25.1 6.9 C 25.1 6.5 25.1 6.1 25.2 5.8 C 25.4 5.4 25.5 5.1 25.8 4.9 C 26 4.6 26.3 4.4 26.6 4.2 C 26.9 4.1 27.3 4 27.7 4 C 28.4 4 28.9 4.2 29.2 4.5 C 29.6 4.8 29.7 5.3 29.7 6 C 29.7 6.4 29.7 6.8 29.6 7.1 C 29.4 7.5 29.3 7.8 29 8.1 C 28.8 8.3 28.5 8.5 28.2 8.7 C 27.9 8.8 27.5 8.9 27.1 8.9 Z M 33.8 4.1 L 34.8 4.1 L 34.6 4.8 C 34.6 4.8 34.66 4.81 34.7 4.8 C 34.8 4.6 35.1 4.4 35.4 4.2 C 35.6 4.1 35.9 4 36.3 4 C 36.7 4 37.1 4.1 37.3 4.3 C 37.5 4.6 37.6 4.9 37.6 5.2 C 37.6 5.3 37.6 5.4 37.6 5.5 C 37.6 5.6 37.6 5.7 37.6 5.8 C 37.57 5.8 37 8.8 37 8.8 L 35.9 8.8 C 35.9 8.8 36.52 5.9 36.5 5.9 C 36.5 5.8 36.6 5.8 36.6 5.7 C 36.6 5.6 36.6 5.5 36.6 5.5 C 36.6 5.4 36.6 5.4 36.6 5.3 C 36.6 5.2 36.6 5.2 36.5 5.1 C 36.5 5 36.4 4.9 36.3 4.9 C 36.2 4.8 36.1 4.8 35.9 4.8 C 35.7 4.8 35.5 4.8 35.3 4.9 C 35.2 5 35 5.1 34.9 5.3 C 34.8 5.4 34.7 5.5 34.6 5.7 C 34.5 5.9 34.4 6.1 34.4 6.3 C 34.41 6.25 33.9 8.8 33.9 8.8 L 32.9 8.8 L 33.8 4.1 Z M 39.4 2.3 L 40.5 2.3 L 40.3 3.3 L 39.2 3.3 L 39.4 2.3 Z M 39.1 4.1 L 40.1 4.1 L 39.1 8.8 L 38.1 8.8 L 39.1 4.1 Z M 46.4 2.3 L 47.6 2.3 L 48.7 8.8 L 47.5 8.8 L 47.3 7.1 L 44.7 7.1 L 43.7 8.8 L 42.5 8.8 L 46.4 2.3 Z M 46.8 3.5 L 46.8 3.5 L 45.2 6.2 L 47.2 6.2 L 46.8 3.5 Z M 50.2 4.1 L 51.1 4.1 L 51 4.8 C 51 4.8 51.02 4.81 51 4.8 C 51.2 4.6 51.4 4.4 51.7 4.2 C 52 4.1 52.3 4 52.6 4 C 53.1 4 53.4 4.1 53.7 4.3 C 53.9 4.6 54 4.9 54 5.2 C 54 5.3 54 5.4 54 5.5 C 54 5.6 54 5.7 53.9 5.8 C 53.94 5.8 53.3 8.8 53.3 8.8 L 52.3 8.8 C 52.3 8.8 52.88 5.9 52.9 5.9 C 52.9 5.8 52.9 5.8 52.9 5.7 C 52.9 5.6 53 5.5 53 5.5 C 53 5.4 53 5.4 53 5.3 C 52.9 5.2 52.9 5.2 52.9 5.1 C 52.8 5 52.8 4.9 52.7 4.9 C 52.6 4.8 52.4 4.8 52.2 4.8 C 52 4.8 51.9 4.8 51.7 4.9 C 51.5 5 51.4 5.1 51.3 5.3 C 51.2 5.4 51 5.5 51 5.7 C 50.9 5.9 50.8 6.1 50.8 6.3 C 50.77 6.25 50.2 8.8 50.2 8.8 L 49.2 8.8 L 50.2 4.1 Z M 55.8 6.8 C 55.8 7 55.8 7.1 55.8 7.3 C 55.9 7.4 55.9 7.5 56 7.6 C 56.1 7.7 56.2 7.8 56.3 7.9 C 56.4 7.9 56.6 8 56.8 8 C 57 8 57.3 7.9 57.5 7.8 C 57.7 7.6 57.8 7.5 57.9 7.3 C 58.1 7.1 58.2 6.9 58.2 6.6 C 58.3 6.4 58.3 6.1 58.3 5.9 C 58.3 5.6 58.2 5.3 58 5.1 C 57.9 4.9 57.6 4.8 57.3 4.8 C 57 4.8 56.8 4.9 56.6 5 C 56.4 5.1 56.3 5.3 56.1 5.5 C 56 5.7 55.9 5.9 55.9 6.1 C 55.8 6.4 55.8 6.6 55.8 6.8 Z M 58.7 8.6 C 58.7 9 58.6 9.3 58.4 9.6 C 58.3 9.8 58.2 10 58 10.2 C 57.8 10.3 57.6 10.4 57.3 10.5 C 57.1 10.6 56.8 10.6 56.4 10.6 C 56.1 10.6 55.9 10.6 55.6 10.5 C 55.4 10.5 55.2 10.4 55 10.3 C 54.8 10.2 54.7 10 54.6 9.8 C 54.5 9.6 54.4 9.4 54.4 9.1 C 54.4 9.1 55.4 9.1 55.4 9.1 C 55.4 9.4 55.5 9.6 55.7 9.7 C 55.9 9.8 56.2 9.9 56.5 9.9 C 56.7 9.9 56.9 9.8 57.1 9.8 C 57.2 9.7 57.3 9.6 57.4 9.5 C 57.5 9.4 57.6 9.2 57.7 9.1 C 57.7 8.9 57.8 8.7 57.8 8.5 C 57.8 8.55 57.9 8.1 57.9 8.1 C 57.9 8.1 57.88 8.07 57.9 8.1 C 57.6 8.5 57.1 8.8 56.6 8.8 C 56 8.8 55.5 8.6 55.2 8.3 C 54.9 7.9 54.8 7.5 54.8 6.9 C 54.8 6.5 54.8 6.2 54.9 5.8 C 55 5.5 55.2 5.2 55.4 4.9 C 55.6 4.6 55.8 4.4 56.1 4.2 C 56.4 4.1 56.8 4 57.2 4 C 57.5 4 57.8 4.1 58 4.2 C 58.3 4.3 58.5 4.6 58.6 4.9 C 58.6 4.9 58.6 4.9 58.6 4.9 L 58.8 4.1 L 59.7 4.1 C 59.7 4.1 58.74 8.65 58.7 8.6 Z M 63.6 6 C 63.6 6 63.6 6 63.6 6 C 63.6 5.9 63.6 5.9 63.6 5.9 C 63.6 5.9 63.6 5.8 63.6 5.8 C 63.6 5.5 63.6 5.2 63.4 5.1 C 63.2 4.9 63 4.8 62.7 4.8 C 62.3 4.8 62 4.9 61.7 5.2 C 61.5 5.4 61.3 5.7 61.2 6 C 61.2 6 63.6 6 63.6 6 Z M 64.4 7.3 C 64.2 7.9 63.9 8.3 63.6 8.5 C 63.2 8.8 62.7 8.9 62.1 8.9 C 61.8 8.9 61.6 8.9 61.3 8.8 C 61.1 8.7 60.9 8.5 60.7 8.4 C 60.5 8.2 60.4 8 60.3 7.7 C 60.2 7.5 60.1 7.2 60.1 6.9 C 60.1 6.5 60.2 6.2 60.3 5.8 C 60.4 5.5 60.6 5.2 60.8 4.9 C 61 4.6 61.3 4.4 61.6 4.2 C 61.9 4.1 62.3 4 62.7 4 C 63.1 4 63.4 4.1 63.7 4.2 C 64 4.3 64.2 4.5 64.3 4.7 C 64.4 4.9 64.5 5.2 64.6 5.4 C 64.6 5.7 64.7 5.9 64.7 6.1 C 64.7 6.3 64.7 6.4 64.6 6.5 C 64.6 6.5 64.6 6.6 64.6 6.7 C 64.6 6.7 61.1 6.7 61.1 6.7 C 61.1 6.7 61.1 6.8 61.1 6.8 C 61.1 6.8 61.1 6.8 61.1 6.9 C 61.1 6.9 61.1 7 61.1 7 C 61.1 7.3 61.2 7.6 61.4 7.8 C 61.6 8 61.8 8.1 62.2 8.1 C 62.5 8.1 62.7 8 62.9 7.9 C 63.1 7.8 63.3 7.6 63.4 7.3 C 63.4 7.3 64.4 7.3 64.4 7.3 Z M 66.3 2.3 L 67.4 2.3 L 66 8.8 L 65 8.8 L 66.3 2.3 Z M 68.6 2.3 L 69.6 2.3 L 69.4 3.3 L 68.4 3.3 L 68.6 2.3 Z M 68.2 4.1 L 69.2 4.1 L 68.3 8.8 L 67.3 8.8 L 68.2 4.1 Z M 70.5 4.1 L 71.4 4.1 L 71.3 4.8 C 71.3 4.8 71.32 4.81 71.3 4.8 C 71.5 4.6 71.7 4.4 72 4.2 C 72.3 4.1 72.6 4 72.9 4 C 73.4 4 73.7 4.1 73.9 4.3 C 74.2 4.6 74.3 4.9 74.3 5.2 C 74.3 5.3 74.3 5.4 74.3 5.5 C 74.3 5.6 74.2 5.7 74.2 5.8 C 74.23 5.8 73.6 8.8 73.6 8.8 L 72.6 8.8 C 72.6 8.8 73.18 5.9 73.2 5.9 C 73.2 5.8 73.2 5.8 73.2 5.7 C 73.2 5.6 73.3 5.5 73.3 5.5 C 73.3 5.4 73.2 5.4 73.2 5.3 C 73.2 5.2 73.2 5.2 73.2 5.1 C 73.1 5 73.1 4.9 73 4.9 C 72.9 4.8 72.7 4.8 72.5 4.8 C 72.3 4.8 72.2 4.8 72 4.9 C 71.8 5 71.7 5.1 71.6 5.3 C 71.4 5.4 71.3 5.5 71.3 5.7 C 71.2 5.9 71.1 6.1 71.1 6.3 C 71.06 6.25 70.5 8.8 70.5 8.8 L 69.5 8.8 L 70.5 4.1 Z M 75.8 7.5 C 75.8 7.6 75.8 7.7 75.9 7.8 C 76 7.9 76 7.9 76.1 8 C 76.2 8 76.3 8 76.4 8.1 C 76.5 8.1 76.5 8.1 76.6 8.1 C 76.9 8.1 77.1 8 77.3 8 C 77.4 7.9 77.6 7.8 77.7 7.6 C 77.8 7.5 77.9 7.3 78 7.1 C 78 6.9 78.1 6.7 78.1 6.5 C 78.1 6.5 78.1 6.5 78.1 6.5 C 78 6.5 77.9 6.6 77.8 6.6 C 77.7 6.7 77.6 6.7 77.5 6.7 C 77.3 6.7 77.1 6.7 77 6.7 C 76.8 6.7 76.6 6.8 76.4 6.8 C 76.3 6.9 76.1 6.9 76 7.1 C 75.9 7.2 75.8 7.3 75.8 7.5 Z M 78.9 7.4 C 78.9 7.5 78.9 7.6 78.9 7.7 C 78.8 7.7 78.8 7.8 78.8 7.9 C 78.8 8 78.8 8 78.9 8 C 78.9 8.1 79 8.1 79 8.1 C 79.1 8.1 79.2 8.1 79.2 8.1 C 79.3 8.1 79.3 8 79.4 8 C 79.4 8 79.2 8.8 79.2 8.8 C 79.1 8.8 79 8.8 78.8 8.9 C 78.7 8.9 78.6 8.9 78.4 8.9 C 78.3 8.9 78.1 8.8 78 8.7 C 77.9 8.6 77.8 8.5 77.8 8.3 C 77.6 8.5 77.4 8.7 77.1 8.8 C 76.8 8.9 76.5 8.9 76.2 8.9 C 76.1 8.9 75.9 8.9 75.7 8.8 C 75.5 8.8 75.4 8.7 75.2 8.6 C 75.1 8.5 75 8.4 74.9 8.2 C 74.8 8 74.8 7.9 74.8 7.7 C 74.8 7.4 74.9 7.1 75 6.9 C 75.1 6.7 75.2 6.6 75.4 6.5 C 75.6 6.3 75.8 6.2 76 6.2 C 76.2 6.1 76.5 6.1 76.8 6.1 C 77.1 6 77.4 6 77.8 6 C 78 6 78.1 5.9 78.2 5.8 C 78.3 5.7 78.3 5.5 78.3 5.4 C 78.3 5.1 78.2 5 78.1 4.9 C 77.9 4.8 77.7 4.8 77.5 4.8 C 77.2 4.8 77 4.9 76.8 5 C 76.6 5.1 76.4 5.2 76.4 5.5 C 76.4 5.5 75.4 5.5 75.4 5.5 C 75.5 5.2 75.5 5 75.7 4.8 C 75.8 4.6 76 4.5 76.2 4.3 C 76.4 4.2 76.6 4.1 76.8 4.1 C 77.1 4 77.3 4 77.6 4 C 78 4 78.3 4 78.6 4.1 C 78.8 4.2 79 4.3 79.1 4.4 C 79.2 4.5 79.3 4.6 79.3 4.8 C 79.3 4.9 79.3 5 79.3 5.1 C 79.3 5.3 79.3 5.5 79.3 5.8 C 79.3 5.8 78.9 7.4 78.9 7.4 Z M 83.9 7.9 C 83.9 7.9 85.5 7.86 85.5 7.9 C 85.6 7.9 85.7 7.9 85.9 7.8 C 86.1 7.8 86.3 7.8 86.4 7.8 C 86.6 7.7 86.8 7.6 86.9 7.5 C 87.1 7.3 87.1 7.1 87.2 6.9 C 87.2 6.8 87.2 6.7 87.2 6.6 C 87.2 6.5 87.1 6.3 87 6.2 C 87 6.1 86.8 6 86.7 6 C 86.5 5.9 86.3 5.8 86 5.8 C 86.01 5.85 84.3 5.8 84.3 5.8 L 83.9 7.9 Z M 84.5 5 C 84.5 5 86.16 5.04 86.2 5 C 86.4 5 86.7 5 86.8 4.9 C 87 4.9 87.1 4.8 87.2 4.7 C 87.3 4.6 87.4 4.5 87.4 4.3 C 87.4 4.2 87.4 4.1 87.4 4 C 87.4 4 87.4 3.9 87.4 3.8 C 87.4 3.7 87.3 3.6 87.3 3.6 C 87.2 3.5 87.1 3.4 87 3.3 C 86.9 3.3 86.7 3.3 86.4 3.3 C 86.44 3.27 84.8 3.3 84.8 3.3 L 84.5 5 Z M 83.9 2.3 C 83.9 2.3 86.68 2.35 86.7 2.3 C 87.1 2.3 87.4 2.4 87.7 2.5 C 87.9 2.6 88.1 2.8 88.3 2.9 C 88.4 3.1 88.5 3.2 88.5 3.4 C 88.5 3.6 88.6 3.7 88.6 3.9 C 88.6 4 88.5 4.2 88.5 4.4 C 88.4 4.6 88.3 4.7 88.2 4.9 C 88.1 5 88 5.1 87.8 5.2 C 87.7 5.3 87.5 5.4 87.3 5.4 C 87.3 5.4 87.3 5.4 87.3 5.4 C 88 5.6 88.3 6.1 88.3 6.7 C 88.3 6.9 88.3 7.1 88.2 7.3 C 88.1 7.6 88 7.8 87.8 8 C 87.6 8.2 87.4 8.4 87.1 8.6 C 86.8 8.7 86.4 8.8 85.9 8.8 C 85.88 8.77 82.6 8.8 82.6 8.8 L 83.9 2.3 Z M 90.2 2.3 L 91.2 2.3 L 91 3.3 L 90 3.3 L 90.2 2.3 Z M 89.8 4.1 L 90.9 4.1 L 89.9 8.8 L 88.9 8.8 L 89.8 4.1 Z M 94.9 6 C 94.9 6 94.9 6 94.9 6 C 94.9 5.9 94.9 5.9 94.9 5.9 C 94.9 5.9 94.9 5.8 94.9 5.8 C 94.9 5.5 94.8 5.2 94.6 5.1 C 94.4 4.9 94.2 4.8 93.9 4.8 C 93.5 4.8 93.2 4.9 93 5.2 C 92.7 5.4 92.6 5.7 92.5 6 C 92.5 6 94.9 6 94.9 6 Z M 95.6 7.3 C 95.5 7.9 95.2 8.3 94.8 8.5 C 94.4 8.8 93.9 8.9 93.4 8.9 C 93.1 8.9 92.8 8.9 92.6 8.8 C 92.3 8.7 92.1 8.5 91.9 8.4 C 91.7 8.2 91.6 8 91.5 7.7 C 91.4 7.5 91.3 7.2 91.3 6.9 C 91.3 6.5 91.4 6.2 91.5 5.8 C 91.6 5.5 91.8 5.2 92 4.9 C 92.2 4.6 92.5 4.4 92.8 4.2 C 93.1 4.1 93.5 4 93.9 4 C 94.3 4 94.7 4.1 94.9 4.2 C 95.2 4.3 95.4 4.5 95.5 4.7 C 95.7 4.9 95.8 5.2 95.8 5.4 C 95.9 5.7 95.9 5.9 95.9 6.1 C 95.9 6.3 95.9 6.4 95.9 6.5 C 95.9 6.5 95.9 6.6 95.8 6.7 C 95.8 6.7 92.4 6.7 92.4 6.7 C 92.4 6.7 92.4 6.8 92.4 6.8 C 92.4 6.8 92.4 6.8 92.4 6.9 C 92.4 6.9 92.4 7 92.4 7 C 92.4 7.3 92.5 7.6 92.6 7.8 C 92.8 8 93.1 8.1 93.5 8.1 C 93.7 8.1 94 8 94.2 7.9 C 94.4 7.8 94.5 7.6 94.6 7.3 C 94.6 7.3 95.6 7.3 95.6 7.3 Z M 97.2 4.1 L 98.2 4.1 L 98 4.8 C 98 4.8 98.04 4.81 98 4.8 C 98.2 4.6 98.5 4.4 98.7 4.2 C 99 4.1 99.3 4 99.6 4 C 100.1 4 100.4 4.1 100.7 4.3 C 100.9 4.6 101 4.9 101 5.2 C 101 5.3 101 5.4 101 5.5 C 101 5.6 101 5.7 101 5.8 C 100.95 5.8 100.3 8.8 100.3 8.8 L 99.3 8.8 C 99.3 8.8 99.9 5.9 99.9 5.9 C 99.9 5.8 99.9 5.8 99.9 5.7 C 100 5.6 100 5.5 100 5.5 C 100 5.4 100 5.4 100 5.3 C 100 5.2 99.9 5.2 99.9 5.1 C 99.9 5 99.8 4.9 99.7 4.9 C 99.6 4.8 99.4 4.8 99.3 4.8 C 99.1 4.8 98.9 4.8 98.7 4.9 C 98.6 5 98.4 5.1 98.3 5.3 C 98.2 5.4 98.1 5.5 98 5.7 C 97.9 5.9 97.8 6.1 97.8 6.3 C 97.78 6.25 97.3 8.8 97.3 8.8 L 96.2 8.8 L 97.2 4.1 Z M 104.8 2.3 L 105.9 2.3 L 106.5 7.4 L 106.6 7.4 L 109.2 2.3 L 110.4 2.3 L 106.9 8.8 L 105.6 8.8 L 104.8 2.3 Z M 110.7 2.3 L 111.7 2.3 L 111.5 3.3 L 110.5 3.3 L 110.7 2.3 Z M 110.3 4.1 L 111.3 4.1 L 110.3 8.8 L 109.3 8.8 L 110.3 4.1 Z M 114.9 5.5 C 114.9 5.2 114.8 5.1 114.6 5 C 114.4 4.9 114.2 4.8 113.9 4.8 C 113.8 4.8 113.7 4.8 113.6 4.8 C 113.6 4.9 113.5 4.9 113.4 4.9 C 113.3 5 113.3 5 113.2 5.1 C 113.2 5.2 113.1 5.3 113.1 5.4 C 113.1 5.5 113.2 5.6 113.3 5.7 C 113.3 5.7 113.5 5.8 113.6 5.8 C 113.7 5.9 113.9 5.9 114 6 C 114.2 6 114.4 6.1 114.5 6.1 C 114.7 6.2 114.8 6.2 114.9 6.3 C 115.1 6.4 115.2 6.5 115.3 6.6 C 115.4 6.6 115.4 6.8 115.5 6.9 C 115.6 7 115.6 7.2 115.6 7.4 C 115.6 7.6 115.5 7.9 115.4 8.1 C 115.3 8.3 115.1 8.4 114.9 8.5 C 114.8 8.7 114.5 8.8 114.3 8.8 C 114 8.9 113.8 8.9 113.5 8.9 C 113.3 8.9 113 8.9 112.8 8.8 C 112.5 8.8 112.3 8.7 112.2 8.6 C 112 8.4 111.9 8.3 111.8 8.1 C 111.6 7.9 111.6 7.6 111.6 7.3 C 111.6 7.3 112.6 7.3 112.6 7.3 C 112.5 7.6 112.6 7.8 112.8 7.9 C 113 8 113.3 8.1 113.6 8.1 C 113.7 8.1 113.8 8.1 113.9 8.1 C 114 8 114.1 8 114.2 8 C 114.3 7.9 114.4 7.8 114.5 7.8 C 114.5 7.7 114.6 7.6 114.6 7.4 C 114.6 7.3 114.5 7.2 114.4 7.1 C 114.4 7.1 114.2 7 114.1 6.9 C 114 6.9 113.8 6.8 113.6 6.8 C 113.5 6.7 113.3 6.7 113.1 6.6 C 113 6.6 112.9 6.5 112.8 6.4 C 112.6 6.4 112.5 6.3 112.4 6.2 C 112.3 6.1 112.3 6 112.2 5.9 C 112.1 5.7 112.1 5.6 112.1 5.4 C 112.1 5.2 112.2 4.9 112.3 4.8 C 112.4 4.6 112.5 4.4 112.7 4.3 C 112.9 4.2 113.1 4.1 113.3 4.1 C 113.6 4 113.8 4 114 4 C 114.3 4 114.5 4 114.7 4.1 C 115 4.1 115.2 4.2 115.3 4.3 C 115.5 4.4 115.6 4.6 115.7 4.8 C 115.8 5 115.9 5.2 115.8 5.5 C 115.8 5.5 114.9 5.5 114.9 5.5 Z M 117.2 7.5 C 117.2 7.6 117.2 7.7 117.3 7.8 C 117.4 7.9 117.4 7.9 117.5 8 C 117.6 8 117.7 8 117.8 8.1 C 117.9 8.1 117.9 8.1 118 8.1 C 118.3 8.1 118.5 8 118.7 8 C 118.8 7.9 119 7.8 119.1 7.6 C 119.2 7.5 119.3 7.3 119.4 7.1 C 119.4 6.9 119.5 6.7 119.5 6.5 C 119.5 6.5 119.5 6.5 119.5 6.5 C 119.4 6.5 119.3 6.6 119.2 6.6 C 119.1 6.7 119 6.7 118.9 6.7 C 118.7 6.7 118.5 6.7 118.4 6.7 C 118.2 6.7 118 6.8 117.8 6.8 C 117.7 6.9 117.5 6.9 117.4 7.1 C 117.3 7.2 117.2 7.3 117.2 7.5 Z M 120.3 7.4 C 120.3 7.5 120.3 7.6 120.3 7.7 C 120.2 7.7 120.2 7.8 120.2 7.9 C 120.2 8 120.2 8 120.3 8 C 120.3 8.1 120.4 8.1 120.4 8.1 C 120.5 8.1 120.6 8.1 120.6 8.1 C 120.7 8.1 120.7 8 120.8 8 C 120.8 8 120.6 8.8 120.6 8.8 C 120.5 8.8 120.4 8.8 120.2 8.9 C 120.1 8.9 120 8.9 119.8 8.9 C 119.7 8.9 119.5 8.8 119.4 8.7 C 119.3 8.6 119.2 8.5 119.2 8.3 C 119 8.5 118.8 8.7 118.5 8.8 C 118.2 8.9 117.9 8.9 117.6 8.9 C 117.5 8.9 117.3 8.9 117.1 8.8 C 116.9 8.8 116.8 8.7 116.6 8.6 C 116.5 8.5 116.4 8.4 116.3 8.2 C 116.2 8 116.2 7.9 116.2 7.7 C 116.2 7.4 116.3 7.1 116.4 6.9 C 116.5 6.7 116.6 6.6 116.8 6.5 C 117 6.3 117.2 6.2 117.4 6.2 C 117.6 6.1 117.9 6.1 118.2 6.1 C 118.5 6 118.8 6 119.2 6 C 119.4 6 119.5 5.9 119.6 5.8 C 119.7 5.7 119.7 5.5 119.7 5.4 C 119.7 5.1 119.6 5 119.5 4.9 C 119.3 4.8 119.1 4.8 118.9 4.8 C 118.6 4.8 118.4 4.9 118.2 5 C 118 5.1 117.8 5.2 117.8 5.5 C 117.8 5.5 116.8 5.5 116.8 5.5 C 116.9 5.2 116.9 5 117.1 4.8 C 117.2 4.6 117.4 4.5 117.6 4.3 C 117.8 4.2 118 4.1 118.2 4.1 C 118.5 4 118.7 4 119 4 C 119.4 4 119.7 4 120 4.1 C 120.2 4.2 120.4 4.3 120.5 4.4 C 120.6 4.5 120.7 4.6 120.7 4.8 C 120.7 4.9 120.7 5 120.7 5.1 C 120.7 5.3 120.7 5.5 120.7 5.8 C 120.7 5.8 120.3 7.4 120.3 7.4 Z M 121.6 4.1 L 122.7 4.1 L 123.2 7.5 L 123.2 7.5 L 125 4.1 L 126.1 4.1 C 126.1 4.1 123.41 8.92 123.4 8.9 C 123.3 9.1 123.2 9.4 123.1 9.6 C 122.9 9.8 122.8 9.9 122.7 10.1 C 122.5 10.3 122.3 10.4 122.1 10.5 C 121.9 10.6 121.7 10.6 121.4 10.6 C 121.2 10.6 121 10.6 120.8 10.5 C 120.8 10.5 121 9.7 121 9.7 C 121.1 9.7 121.1 9.7 121.2 9.7 C 121.2 9.8 121.3 9.8 121.4 9.8 C 121.5 9.8 121.7 9.7 121.8 9.7 C 121.9 9.6 122 9.5 122 9.4 C 122.05 9.37 122.5 8.6 122.5 8.6 L 121.6 4.1 Z M 126.9 7.5 C 126.9 7.6 126.9 7.7 127 7.8 C 127 7.9 127.1 7.9 127.2 8 C 127.3 8 127.3 8 127.4 8.1 C 127.5 8.1 127.6 8.1 127.7 8.1 C 128 8.1 128.2 8 128.4 8 C 128.5 7.9 128.7 7.8 128.8 7.6 C 128.9 7.5 129 7.3 129 7.1 C 129.1 6.9 129.2 6.7 129.2 6.5 C 129.2 6.5 129.2 6.5 129.2 6.5 C 129.1 6.5 129 6.6 128.9 6.6 C 128.8 6.7 128.7 6.7 128.5 6.7 C 128.4 6.7 128.2 6.7 128 6.7 C 127.8 6.7 127.7 6.8 127.5 6.8 C 127.3 6.9 127.2 6.9 127.1 7.1 C 127 7.2 126.9 7.3 126.9 7.5 Z M 130 7.4 C 130 7.5 130 7.6 129.9 7.7 C 129.9 7.7 129.9 7.8 129.9 7.9 C 129.9 8 129.9 8 129.9 8 C 130 8.1 130 8.1 130.1 8.1 C 130.2 8.1 130.2 8.1 130.3 8.1 C 130.4 8.1 130.4 8 130.5 8 C 130.5 8 130.3 8.8 130.3 8.8 C 130.2 8.8 130.1 8.8 129.9 8.9 C 129.8 8.9 129.7 8.9 129.5 8.9 C 129.3 8.9 129.2 8.8 129.1 8.7 C 129 8.6 128.9 8.5 128.9 8.3 C 128.7 8.5 128.5 8.7 128.2 8.8 C 127.9 8.9 127.6 8.9 127.3 8.9 C 127.1 8.9 127 8.9 126.8 8.8 C 126.6 8.8 126.5 8.7 126.3 8.6 C 126.2 8.5 126.1 8.4 126 8.2 C 125.9 8 125.9 7.9 125.9 7.7 C 125.9 7.4 125.9 7.1 126 6.9 C 126.2 6.7 126.3 6.6 126.5 6.5 C 126.7 6.3 126.9 6.2 127.1 6.2 C 127.3 6.1 127.6 6.1 127.8 6.1 C 128.2 6 128.5 6 128.9 6 C 129 6 129.2 5.9 129.3 5.8 C 129.4 5.7 129.4 5.5 129.4 5.4 C 129.4 5.1 129.3 5 129.2 4.9 C 129 4.8 128.8 4.8 128.6 4.8 C 128.3 4.8 128.1 4.9 127.9 5 C 127.7 5.1 127.5 5.2 127.5 5.5 C 127.5 5.5 126.5 5.5 126.5 5.5 C 126.5 5.2 126.6 5 126.8 4.8 C 126.9 4.6 127.1 4.5 127.2 4.3 C 127.4 4.2 127.7 4.1 127.9 4.1 C 128.1 4 128.4 4 128.7 4 C 129.1 4 129.4 4 129.7 4.1 C 129.9 4.2 130.1 4.3 130.2 4.4 C 130.3 4.5 130.4 4.6 130.4 4.8 C 130.4 4.9 130.4 5 130.4 5.1 C 130.4 5.3 130.4 5.5 130.3 5.8 C 130.3 5.8 130 7.4 130 7.4 Z " stroke="none" fill="#fff"/>
  </g>
</svg>