<?xml version="1.0" standalone="no"?>
<!DOCTYPE svg PUBLIC "-//W3C//DTD SVG 1.1//EN" "http://www.w3.org/Graphics/SVG/1.1/DTD/svg11.dtd">
<svg xmlns="http://www.w3.org/2000/svg" version="1.1" width="631.3px" height="95px" viewBox="0 -13 631.3 95" style="top:-13px">
  <desc>Adhikain sa paglalaro ng koponang Viridis Arcus Wild Rift, sinilip</desc>
  <defs/>
  <g id="Polygon37721">
    <path d="M -0.9 58.1 C 1.1 58 1.4 57.6 2 55.9 C 3.2 53 4.5 49.1 5.5 46.3 C 5.5 46.33 8.9 36.9 8.9 36.9 L 11.2 36.9 C 11.2 36.9 18.02 56.15 18 56.2 C 18.6 57.8 18.9 57.9 20.8 58.1 C 20.8 58.07 20.8 59 20.8 59 L 12.6 59 L 12.6 58.1 C 12.6 58.1 14.05 57.94 14 57.9 C 15.1 57.8 15.2 57.5 14.9 56.6 C 14.91 56.57 12.8 50.5 12.8 50.5 C 12.8 50.5 5.6 50.46 5.6 50.5 C 4.9 52.7 4.2 54.7 3.6 56.6 C 3.4 57.5 3.5 57.8 4.4 57.9 C 4.45 57.91 6.1 58.1 6.1 58.1 L 6.1 59 L -0.9 59 C -0.9 59 -0.93 58.07 -0.9 58.1 Z M 12.4 49.2 L 9.2 40.1 C 9.2 40.1 9.12 40.09 9.1 40.1 C 8.2 42.9 7 46 6 49.2 C 6.02 49.24 12.4 49.2 12.4 49.2 Z M 20.7 58.1 C 22.9 57.9 23.1 57.8 23.1 56.2 C 23.1 56.2 23.1 46.1 23.1 46.1 C 23.1 45 22.9 44.8 22.1 44.7 C 22.08 44.7 20.9 44.5 20.9 44.5 L 20.9 43.7 L 25.7 42.9 C 25.7 42.9 26.11 45.5 26.1 45.5 C 28.2 43.6 29.2 42.9 30.3 42.9 C 31.6 42.9 32 43.8 32 44.5 C 32 45.5 31.3 46.3 30.6 46.3 C 30.4 46.3 30.1 46.3 29.9 46.1 C 29 45.6 28.4 45.4 27.9 45.4 C 27.2 45.4 26.1 46.3 26.1 48.7 C 26.1 48.7 26.1 56.2 26.1 56.2 C 26.1 57.8 26.3 57.9 29.2 58.1 C 29.15 58.07 29.2 59 29.2 59 L 20.7 59 C 20.7 59 20.7 58.07 20.7 58.1 Z M 40.2 42.9 C 43.6 42.9 45.8 44.6 45.8 46 C 45.8 47.3 44.5 47.7 43.9 47.7 C 43.3 47.7 43.1 47.4 42.9 46.8 C 42.2 45.1 41.3 44.1 39.8 44.1 C 37.6 44.1 35.7 46 35.7 50.7 C 35.7 53.8 36.6 57.7 40.4 57.7 C 42.8 57.7 44.1 56.6 45.1 54.3 C 45.1 54.3 46 54.8 46 54.8 C 45.1 58.2 42.1 59.4 39.8 59.4 C 35 59.4 32.4 56.7 32.4 51.3 C 32.4 47.1 34.4 42.9 40.2 42.9 Z M 46.9 43.7 L 51.9 42.9 L 52.2 43.1 C 52.2 43.1 52.16 54.01 52.2 54 C 52.2 56.5 53.5 57.7 55.4 57.7 C 57.1 57.7 58.6 56.7 59.3 55.3 C 59.5 54.9 59.6 54.2 59.6 53.3 C 59.6 53.3 59.6 46.1 59.6 46.1 C 59.6 45 59.4 44.8 58.6 44.7 C 58.56 44.7 57.3 44.5 57.3 44.5 L 57.3 43.7 L 62.4 42.9 L 62.6 43.1 C 62.6 43.1 62.59 56.22 62.6 56.2 C 62.6 57.8 62.8 57.9 65 58.1 C 64.99 58.07 65 59 65 59 L 59.9 59 C 59.9 59 59.55 57.08 59.6 57.1 C 58.6 57.5 56.4 59.4 53.7 59.4 C 51.3 59.4 49.2 58.3 49.2 54.6 C 49.2 54.6 49.2 46.1 49.2 46.1 C 49.2 45 49 44.8 48.1 44.7 C 48.13 44.7 46.9 44.5 46.9 44.5 L 46.9 43.7 Z M 67.3 53.7 C 67.9 56.4 69.3 58.3 71.9 58.3 C 73.6 58.3 74.9 57.2 74.9 55.6 C 74.9 53.4 72.9 52.7 71.5 52.2 C 68.8 51.4 66.6 50.3 66.6 47.6 C 66.6 44.6 69 42.9 72.4 42.9 C 73.9 42.9 75.5 43.3 76.6 44 C 76.58 44.02 76.6 47.8 76.6 47.8 C 76.6 47.8 75.65 47.77 75.6 47.8 C 75.4 45.8 74.3 44.1 72.1 44.1 C 70.5 44.1 69.2 45 69.2 46.6 C 69.2 48.4 71.3 49.1 72.6 49.5 C 75.9 50.6 77.6 51.8 77.6 54.6 C 77.6 57.4 75.5 59.4 71.6 59.4 C 69.8 59.4 67.8 58.9 66.7 57.8 C 66.66 57.85 66.3 53.7 66.3 53.7 C 66.3 53.7 67.26 53.66 67.3 53.7 Z M 82.4 36.9 L 90.4 36.9 L 90.4 37.8 C 90.4 37.8 88.8 37.94 88.8 37.9 C 88 38 87.9 38.2 88.1 39.3 C 89.4 44.3 90.8 49.7 92.5 55.2 C 92.48 55.16 92.5 55.2 92.5 55.2 L 97.4 37.4 C 97.4 37.4 99.84 37.43 99.8 37.4 C 101.6 43.3 103.4 49.2 105.2 55.2 C 105.25 55.16 105.3 55.2 105.3 55.2 C 105.3 55.2 107.71 46.01 107.7 46 C 108.5 43 109.2 40.4 109.4 39.2 C 109.5 38.5 109.5 38.1 108.7 38 C 108.7 37.98 106.7 37.8 106.7 37.8 L 106.7 36.9 L 114 36.9 C 114 36.9 114.05 37.78 114 37.8 C 112.1 37.9 111.7 38.1 111.1 39.9 C 110.6 41.1 109.9 44 108.9 47.6 C 108.86 47.58 105.7 59 105.7 59 C 105.7 59 103.23 59 103.2 59 C 101.6 53.3 99.8 47.4 97.9 41.3 C 97.89 41.27 97.8 41.3 97.8 41.3 L 92.8 59 L 90.3 59 C 90.3 59 87.61 48.79 87.6 48.8 C 86.8 45.6 85.8 42.4 85.1 39.9 C 84.5 38 84.3 37.9 82.4 37.8 C 82.37 37.78 82.4 36.9 82.4 36.9 Z M 116.8 36.1 C 118 36.1 118.8 36.9 118.8 38.1 C 118.8 39.2 118 40 116.8 40 C 115.6 40 114.8 39.2 114.8 38.1 C 114.8 36.9 115.6 36.1 116.8 36.1 Z M 112.9 58.1 C 115.2 57.9 115.3 57.8 115.3 56.2 C 115.3 56.2 115.3 46.1 115.3 46.1 C 115.3 45 115.1 44.8 114.3 44.7 C 114.3 44.7 113.1 44.5 113.1 44.5 L 113.1 43.7 L 118.1 42.9 L 118.3 43.1 C 118.3 43.1 118.33 56.22 118.3 56.2 C 118.3 57.8 118.5 57.9 120.7 58.1 C 120.73 58.07 120.7 59 120.7 59 L 112.9 59 C 112.9 59 112.93 58.07 112.9 58.1 Z M 121.2 58.1 C 123.5 57.9 123.6 57.8 123.6 56.2 C 123.6 56.2 123.6 38.5 123.6 38.5 C 123.6 37.2 123.4 37.1 122.6 37 C 122.59 36.98 121.4 36.9 121.4 36.9 L 121.4 36.1 L 126.4 35.3 L 126.6 35.4 C 126.6 35.4 126.62 56.22 126.6 56.2 C 126.6 57.8 126.7 57.9 129 58.1 C 129.02 58.07 129 59 129 59 L 121.2 59 C 121.2 59 121.21 58.07 121.2 58.1 Z M 132.6 45.1 C 134 43.8 135.9 42.9 138.6 42.9 C 140 42.9 141.2 43.2 142.1 43.7 C 142.1 43.7 142.1 38.5 142.1 38.5 C 142.1 37.2 141.9 37.1 141.1 37 C 141.09 36.98 139.9 36.9 139.9 36.9 L 139.9 36.1 L 144.9 35.3 L 145.1 35.4 C 145.1 35.4 145.12 56.22 145.1 56.2 C 145.1 57.8 145.2 57.9 147.5 58.1 C 147.52 58.07 147.5 59 147.5 59 L 142.3 59 L 142.1 58.8 C 142.1 58.8 142.08 57.21 142.1 57.2 C 140.3 58.6 138.8 59.4 137.1 59.4 C 132.9 59.4 130.4 56.2 130.4 51.5 C 130.4 48.7 131.3 46.6 132.6 45.1 Z M 138.2 57.7 C 139.8 57.7 141.2 57 141.9 55.4 C 142.1 54.8 142.1 54.3 142.1 53.6 C 142.1 53.6 142.1 47.9 142.1 47.9 C 142.1 47.1 142.1 46.6 141.8 46.1 C 141.2 44.8 140 44.1 138.5 44.1 C 135.3 44.1 133.8 46.9 133.8 51.1 C 133.8 54.8 135.2 57.7 138.2 57.7 Z M 155 58.1 C 157.9 57.9 157.9 57.8 157.9 56 C 157.9 56 157.9 39.8 157.9 39.8 C 157.9 38 157.9 38 155 37.8 C 155.04 37.78 155 36.9 155 36.9 C 155 36.9 164.38 36.86 164.4 36.9 C 170 36.9 171.9 39.3 171.9 42.3 C 171.9 45.4 169.7 47.4 166.7 48 C 166.7 48 166.7 48 166.7 48 C 170.1 48.9 170.7 51 171 53.8 C 171.3 56 171.8 57.8 174.3 58.1 C 174.33 58.07 174.3 59 174.3 59 C 174.3 59 171.74 59 171.7 59 C 169.9 59 168.6 58.3 168.2 56.2 C 167.8 54.8 167.5 52.2 167.2 51.4 C 166.7 49.2 165.2 48.6 163.3 48.6 C 163.29 48.57 161.1 48.6 161.1 48.6 C 161.1 48.6 161.09 56.02 161.1 56 C 161.1 57.4 161.1 57.4 161.2 57.6 C 161.4 57.9 162.1 57.9 163.5 58.1 C 163.49 58.07 163.5 59 163.5 59 L 155 59 C 155 59 155.04 58.07 155 58.1 Z M 163.6 47.4 C 166.7 47.4 168.5 46 168.5 42.6 C 168.5 38.8 165.8 38 163.4 38 C 161.3 38 161.1 38.2 161.1 39.6 C 161.09 39.58 161.1 47.4 161.1 47.4 C 161.1 47.4 163.61 47.45 163.6 47.4 Z M 178.8 36.1 C 179.9 36.1 180.7 36.9 180.7 38.1 C 180.7 39.2 179.9 40 178.8 40 C 177.6 40 176.8 39.2 176.8 38.1 C 176.8 36.9 177.6 36.1 178.8 36.1 Z M 174.9 58.1 C 177.2 57.9 177.3 57.8 177.3 56.2 C 177.3 56.2 177.3 46.1 177.3 46.1 C 177.3 45 177.1 44.8 176.3 44.7 C 176.28 44.7 175.1 44.5 175.1 44.5 L 175.1 43.7 L 180.1 42.9 L 180.3 43.1 C 180.3 43.1 180.32 56.22 180.3 56.2 C 180.3 57.8 180.4 57.9 182.7 58.1 C 182.72 58.07 182.7 59 182.7 59 L 174.9 59 C 174.9 59 174.91 58.07 174.9 58.1 Z M 183.5 43.3 L 186 43.3 C 186 43.3 185.98 42.2 186 42.2 C 186 40.1 186.3 38.4 187 37.3 C 187.8 36.1 189.3 35.3 191.1 35.3 C 193.7 35.3 195 36.5 195 37.6 C 195 38.6 194.1 39.1 193.4 39.1 C 193 39.1 192.7 38.9 192.6 38.6 C 191.8 36.7 191.1 36.4 190.4 36.4 C 189.9 36.4 188.8 36.7 188.9 39.7 C 188.86 39.74 189 43.3 189 43.3 L 192.9 43.3 L 192.9 44.6 L 189 44.6 C 189 44.6 188.99 56.25 189 56.2 C 189 57.9 189.1 57.9 192 58.1 C 192.03 58.07 192 59 192 59 L 183.6 59 C 183.6 59 183.58 58.07 183.6 58.1 C 185.9 57.9 186 57.8 186 56.2 C 185.98 56.22 186 44.6 186 44.6 L 183.5 44.6 L 183.5 43.3 Z M 193.1 43.3 L 195.5 43.3 L 197.5 39.3 L 198.4 39.3 L 198.4 43.3 L 202.6 43.3 L 202.6 44.6 L 198.4 44.6 C 198.4 44.6 198.43 54.52 198.4 54.5 C 198.4 57 199.5 57.7 200.5 57.7 C 201.3 57.7 202 57.6 202.8 57.3 C 202.8 57.3 203.1 58 203.1 58 C 202.1 58.6 200.6 59.4 199 59.4 C 197.9 59.4 195.4 59 195.4 55.7 C 195.42 55.74 195.4 44.6 195.4 44.6 L 193.1 44.6 L 193.1 43.3 Z M 206 59.2 C 206 57.8 204.9 57.2 204.9 56.1 C 204.9 55.3 205.5 54.5 206.5 54.5 C 207.7 54.5 208.7 55.7 208.7 57.4 C 208.7 59.9 206.3 62 204.7 63.5 C 204.7 63.5 204.1 62.9 204.1 62.9 C 205.1 61.8 206 60.5 206 59.2 Z M 219.3 53.7 C 220 56.4 221.4 58.3 224 58.3 C 225.7 58.3 227 57.2 227 55.6 C 227 53.4 225 52.7 223.5 52.2 C 220.9 51.4 218.7 50.3 218.7 47.6 C 218.7 44.6 221.1 42.9 224.5 42.9 C 225.9 42.9 227.6 43.3 228.6 44 C 228.64 44.02 228.6 47.8 228.6 47.8 C 228.6 47.8 227.71 47.77 227.7 47.8 C 227.5 45.8 226.4 44.1 224.1 44.1 C 222.5 44.1 221.2 45 221.2 46.6 C 221.2 48.4 223.4 49.1 224.7 49.5 C 228 50.6 229.7 51.8 229.7 54.6 C 229.7 57.4 227.5 59.4 223.7 59.4 C 221.8 59.4 219.9 58.9 218.7 57.8 C 218.72 57.85 218.4 53.7 218.4 53.7 C 218.4 53.7 219.32 53.66 219.3 53.7 Z M 235.1 36.1 C 236.3 36.1 237.1 36.9 237.1 38.1 C 237.1 39.2 236.3 40 235.1 40 C 233.9 40 233.1 39.2 233.1 38.1 C 233.1 36.9 233.9 36.1 235.1 36.1 Z M 231.2 58.1 C 233.5 57.9 233.6 57.8 233.6 56.2 C 233.6 56.2 233.6 46.1 233.6 46.1 C 233.6 45 233.4 44.8 232.6 44.7 C 232.6 44.7 231.4 44.5 231.4 44.5 L 231.4 43.7 L 236.4 42.9 L 236.6 43.1 C 236.6 43.1 236.64 56.22 236.6 56.2 C 236.6 57.8 236.8 57.9 239 58.1 C 239.04 58.07 239 59 239 59 L 231.2 59 C 231.2 59 231.23 58.07 231.2 58.1 Z M 239.9 58.1 C 242.2 57.9 242.3 57.8 242.3 56.2 C 242.3 56.2 242.3 46.1 242.3 46.1 C 242.3 45 242.1 44.8 241.3 44.7 C 241.27 44.7 240.1 44.5 240.1 44.5 L 240.1 43.7 L 244.8 42.9 C 244.8 42.9 245.27 45.37 245.3 45.4 C 247.3 44.1 248.7 42.9 251.1 42.9 C 254 42.9 255.8 44.8 255.8 48 C 255.8 48 255.8 56.2 255.8 56.2 C 255.8 57.8 255.9 57.9 258.2 58.1 C 258.2 58.07 258.2 59 258.2 59 L 250.4 59 C 250.4 59 250.39 58.07 250.4 58.1 C 252.7 57.9 252.8 57.8 252.8 56.2 C 252.8 56.2 252.8 48.7 252.8 48.7 C 252.8 45.9 251.6 44.7 249.4 44.7 C 247.7 44.7 246.3 45.7 245.6 47 C 245.4 47.5 245.3 47.9 245.3 48.7 C 245.3 48.7 245.3 56.2 245.3 56.2 C 245.3 57.8 245.4 57.9 247.7 58.1 C 247.71 58.07 247.7 59 247.7 59 L 239.9 59 C 239.9 59 239.9 58.07 239.9 58.1 Z M 262.9 36.1 C 264.1 36.1 264.9 36.9 264.9 38.1 C 264.9 39.2 264.1 40 262.9 40 C 261.8 40 261 39.2 261 38.1 C 261 36.9 261.8 36.1 262.9 36.1 Z M 259.1 58.1 C 261.4 57.9 261.5 57.8 261.5 56.2 C 261.5 56.2 261.5 46.1 261.5 46.1 C 261.5 45 261.3 44.8 260.4 44.7 C 260.44 44.7 259.2 44.5 259.2 44.5 L 259.2 43.7 L 264.3 42.9 L 264.5 43.1 C 264.5 43.1 264.47 56.22 264.5 56.2 C 264.5 57.8 264.6 57.9 266.9 58.1 C 266.87 58.07 266.9 59 266.9 59 L 259.1 59 C 259.1 59 259.07 58.07 259.1 58.1 Z M 267.4 58.1 C 269.7 57.9 269.8 57.8 269.8 56.2 C 269.8 56.2 269.8 38.5 269.8 38.5 C 269.8 37.2 269.6 37.1 268.7 37 C 268.73 36.98 267.5 36.9 267.5 36.9 L 267.5 36.1 L 272.5 35.3 L 272.8 35.4 C 272.8 35.4 272.76 56.22 272.8 56.2 C 272.8 57.8 272.9 57.9 275.2 58.1 C 275.16 58.07 275.2 59 275.2 59 L 267.4 59 C 267.4 59 267.35 58.07 267.4 58.1 Z M 279.9 36.1 C 281 36.1 281.8 36.9 281.8 38.1 C 281.8 39.2 281 40 279.9 40 C 278.7 40 277.9 39.2 277.9 38.1 C 277.9 36.9 278.7 36.1 279.9 36.1 Z M 276 58.1 C 278.3 57.9 278.4 57.8 278.4 56.2 C 278.4 56.2 278.4 46.1 278.4 46.1 C 278.4 45 278.2 44.8 277.4 44.7 C 277.4 44.7 276.2 44.5 276.2 44.5 L 276.2 43.7 L 281.2 42.9 L 281.4 43.1 C 281.4 43.1 281.43 56.22 281.4 56.2 C 281.4 57.8 281.6 57.9 283.8 58.1 C 283.83 58.07 283.8 59 283.8 59 L 276 59 C 276 59 276.03 58.07 276 58.1 Z M 286.9 63.6 C 286.9 63.6 286.9 46.1 286.9 46.1 C 286.9 45 286.7 44.8 285.8 44.7 C 285.85 44.7 284.6 44.5 284.6 44.5 L 284.6 43.7 L 289.5 42.9 C 289.5 42.9 289.88 45.3 289.9 45.3 C 291.1 44.5 293 42.9 295.3 42.9 C 301.1 42.9 301.6 48.5 301.6 50.8 C 301.6 57.4 297.8 59.4 293.5 59.4 C 292.1 59.4 290.6 59 289.9 58.6 C 289.9 58.6 289.9 63.6 289.9 63.6 C 289.9 65.2 290.1 65.3 292.8 65.4 C 292.76 65.43 292.8 66.4 292.8 66.4 L 284.5 66.4 C 284.5 66.4 284.47 65.43 284.5 65.4 C 286.7 65.3 286.9 65.2 286.9 63.6 Z M 290.1 55.9 C 290.6 57.4 291.9 58.3 293.6 58.3 C 296.8 58.3 298.2 55.7 298.2 51 C 298.2 45.5 295.4 44.7 294.1 44.7 C 292.4 44.7 291 45.4 290.3 46.9 C 290 47.5 289.9 47.9 289.9 48.7 C 289.9 48.7 289.9 54 289.9 54 C 289.9 54.7 289.9 55.4 290.1 55.9 Z " stroke="none" fill="#000"/>
  </g>
  <g id="Polygon37720">
    <path d="M -0.9 23.1 C 1.1 23 1.4 22.6 2 20.9 C 3.2 18 4.5 14.1 5.5 11.3 C 5.5 11.33 8.9 1.9 8.9 1.9 L 11.2 1.9 C 11.2 1.9 18.02 21.15 18 21.2 C 18.6 22.8 18.9 22.9 20.8 23.1 C 20.8 23.07 20.8 24 20.8 24 L 12.6 24 L 12.6 23.1 C 12.6 23.1 14.05 22.94 14 22.9 C 15.1 22.8 15.2 22.5 14.9 21.6 C 14.91 21.57 12.8 15.5 12.8 15.5 C 12.8 15.5 5.6 15.46 5.6 15.5 C 4.9 17.7 4.2 19.7 3.6 21.6 C 3.4 22.5 3.5 22.8 4.4 22.9 C 4.45 22.91 6.1 23.1 6.1 23.1 L 6.1 24 L -0.9 24 C -0.9 24 -0.93 23.07 -0.9 23.1 Z M 12.4 14.2 L 9.2 5.1 C 9.2 5.1 9.12 5.09 9.1 5.1 C 8.2 7.9 7 11 6 14.2 C 6.02 14.24 12.4 14.2 12.4 14.2 Z M 23.1 10.1 C 24.4 8.8 26.4 7.9 29 7.9 C 30.5 7.9 31.6 8.2 32.5 8.7 C 32.5 8.7 32.5 3.5 32.5 3.5 C 32.5 2.2 32.4 2.1 31.5 2 C 31.52 1.98 30.3 1.9 30.3 1.9 L 30.3 1.1 L 35.3 0.3 L 35.6 0.4 C 35.6 0.4 35.55 21.22 35.6 21.2 C 35.6 22.8 35.7 22.9 38 23.1 C 37.95 23.07 38 24 38 24 L 32.8 24 L 32.5 23.8 C 32.5 23.8 32.51 22.21 32.5 22.2 C 30.8 23.6 29.3 24.4 27.6 24.4 C 23.3 24.4 20.9 21.2 20.9 16.5 C 20.9 13.7 21.7 11.6 23.1 10.1 Z M 28.6 22.7 C 30.3 22.7 31.7 22 32.3 20.4 C 32.5 19.8 32.5 19.3 32.5 18.6 C 32.5 18.6 32.5 12.9 32.5 12.9 C 32.5 12.1 32.5 11.6 32.3 11.1 C 31.7 9.8 30.5 9.1 29 9.1 C 25.7 9.1 24.2 11.9 24.2 16.1 C 24.2 19.8 25.7 22.7 28.6 22.7 Z M 38.5 23.1 C 40.7 22.9 40.8 22.8 40.8 21.2 C 40.8 21.2 40.8 3.5 40.8 3.5 C 40.8 2.3 40.6 2.1 39.8 2 C 39.81 2.02 38.6 1.9 38.6 1.9 L 38.6 1.1 L 43.6 0.3 L 43.8 0.4 C 43.8 0.4 43.81 10.37 43.8 10.4 C 45.8 9 47.3 7.9 49.6 7.9 C 52.6 7.9 54.3 9.8 54.3 13 C 54.3 13 54.3 21.2 54.3 21.2 C 54.3 22.8 54.5 22.9 56.7 23.1 C 56.74 23.07 56.7 24 56.7 24 L 48.9 24 C 48.9 24 48.93 23.07 48.9 23.1 C 51.2 22.9 51.3 22.8 51.3 21.2 C 51.3 21.2 51.3 13.7 51.3 13.7 C 51.3 10.9 50.1 9.7 48 9.7 C 46.3 9.7 44.8 10.7 44.1 12 C 43.9 12.5 43.8 12.9 43.8 13.7 C 43.8 13.7 43.8 21.2 43.8 21.2 C 43.8 22.8 44 22.9 46.2 23.1 C 46.24 23.07 46.2 24 46.2 24 L 38.5 24 C 38.5 24 38.46 23.07 38.5 23.1 Z M 61.5 1.1 C 62.6 1.1 63.4 1.9 63.4 3.1 C 63.4 4.2 62.6 5 61.5 5 C 60.3 5 59.5 4.2 59.5 3.1 C 59.5 1.9 60.3 1.1 61.5 1.1 Z M 57.6 23.1 C 59.9 22.9 60 22.8 60 21.2 C 60 21.2 60 11.1 60 11.1 C 60 10 59.8 9.8 59 9.7 C 58.98 9.7 57.8 9.5 57.8 9.5 L 57.8 8.7 L 62.8 7.9 L 63 8.1 C 63 8.1 63.01 21.22 63 21.2 C 63 22.8 63.1 22.9 65.4 23.1 C 65.41 23.07 65.4 24 65.4 24 L 57.6 24 C 57.6 24 57.6 23.07 57.6 23.1 Z M 65.9 23.1 C 68.2 22.9 68.3 22.8 68.3 21.2 C 68.3 21.2 68.3 3.5 68.3 3.5 C 68.3 2.2 68.1 2.1 67.3 2 C 67.26 1.98 66 1.9 66 1.9 L 66 1.1 L 71.1 0.3 L 71.3 0.4 L 71.3 15.4 C 71.3 15.4 71.36 15.42 71.4 15.4 C 72.1 14.3 75.3 10.4 76.2 9.2 C 76.8 8.5 77.1 8.3 78.2 8.3 C 78.21 8.32 81.5 8.3 81.5 8.3 C 81.5 8.3 81.5 9.22 81.5 9.2 C 79.6 9.4 78.8 9.8 77.8 10.6 C 76.7 11.4 75.6 12.3 74.1 14.1 C 73.8 14.4 73.9 14.6 74 14.8 C 75.2 16.5 77.7 19.6 79.7 21.5 C 80.7 22.5 81.5 23 82.5 23.3 C 82.46 23.26 82.5 24.2 82.5 24.2 C 82.5 24.2 80.06 24.06 80.1 24.1 C 79 24 77.8 23.6 76.6 22.4 C 74.9 20.7 72.7 18 71.4 15.9 C 71.36 15.87 71.3 15.9 71.3 15.9 C 71.3 15.9 71.3 21.22 71.3 21.2 C 71.3 22.8 71.4 22.9 73.7 23.1 C 73.7 23.07 73.7 24 73.7 24 L 65.9 24 C 65.9 24 65.89 23.07 65.9 23.1 Z M 85.9 16 C 88.4 15.2 91.6 14.4 92.4 13.6 C 92.4 13.6 92.4 12.3 92.4 12.3 C 92.4 9.7 90.9 9.1 89.6 9.1 C 88.4 9.1 87 9.8 86.3 12.2 C 86.2 12.7 86 13.1 85.3 13.1 C 84.7 13.1 83.5 12.6 83.5 11.6 C 83.5 9.8 86.4 7.9 90 7.9 C 94.8 7.9 95.2 10.3 95.2 12.2 C 95.2 12.2 95.2 19.9 95.2 19.9 C 95.2 22 95.8 22.6 96.4 22.7 C 96.8 22.8 97.5 22.8 98 22.7 C 98 22.7 98.2 23.4 98.2 23.4 C 97 24 95.6 24.4 94.4 24.4 C 93.3 24.4 92.8 23.6 92.3 22.5 C 91.3 23.1 89.4 24.4 87.6 24.4 C 84.5 24.4 82.9 22.2 82.9 19.8 C 82.9 18.3 83.6 16.7 85.9 16 Z M 89.1 22.7 C 90.4 22.7 92.4 22 92.4 19.4 C 92.4 19.4 92.4 14.9 92.4 14.9 C 91.6 15.4 90 16 88.7 16.4 C 86.9 17.1 86.2 17.9 86.2 19.4 C 86.2 21.3 87.1 22.7 89.1 22.7 Z M 102.4 1.1 C 103.5 1.1 104.3 1.9 104.3 3.1 C 104.3 4.2 103.5 5 102.4 5 C 101.2 5 100.4 4.2 100.4 3.1 C 100.4 1.9 101.2 1.1 102.4 1.1 Z M 98.5 23.1 C 100.8 22.9 100.9 22.8 100.9 21.2 C 100.9 21.2 100.9 11.1 100.9 11.1 C 100.9 10 100.7 9.8 99.9 9.7 C 99.87 9.7 98.7 9.5 98.7 9.5 L 98.7 8.7 L 103.7 7.9 L 103.9 8.1 C 103.9 8.1 103.9 21.22 103.9 21.2 C 103.9 22.8 104 22.9 106.3 23.1 C 106.3 23.07 106.3 24 106.3 24 L 98.5 24 C 98.5 24 98.49 23.07 98.5 23.1 Z M 107.2 23.1 C 109.5 22.9 109.6 22.8 109.6 21.2 C 109.6 21.2 109.6 11.1 109.6 11.1 C 109.6 10 109.4 9.8 108.5 9.7 C 108.54 9.7 107.3 9.5 107.3 9.5 L 107.3 8.7 L 112.1 7.9 C 112.1 7.9 112.54 10.37 112.5 10.4 C 114.5 9.1 116 7.9 118.4 7.9 C 121.3 7.9 123.1 9.8 123.1 13 C 123.1 13 123.1 21.2 123.1 21.2 C 123.1 22.8 123.2 22.9 125.5 23.1 C 125.47 23.07 125.5 24 125.5 24 L 117.7 24 C 117.7 24 117.66 23.07 117.7 23.1 C 120 22.9 120.1 22.8 120.1 21.2 C 120.1 21.2 120.1 13.7 120.1 13.7 C 120.1 10.9 118.9 9.7 116.7 9.7 C 115 9.7 113.6 10.7 112.9 12 C 112.6 12.5 112.6 12.9 112.6 13.7 C 112.6 13.7 112.6 21.2 112.6 21.2 C 112.6 22.8 112.7 22.9 115 23.1 C 114.97 23.07 115 24 115 24 L 107.2 24 C 107.2 24 107.17 23.07 107.2 23.1 Z M 134.3 18.7 C 134.9 21.4 136.4 23.3 139 23.3 C 140.7 23.3 141.9 22.2 141.9 20.6 C 141.9 18.4 139.9 17.7 138.5 17.2 C 135.8 16.4 133.7 15.3 133.7 12.6 C 133.7 9.6 136 7.9 139.5 7.9 C 140.9 7.9 142.6 8.3 143.6 9 C 143.61 9.02 143.6 12.8 143.6 12.8 C 143.6 12.8 142.69 12.77 142.7 12.8 C 142.5 10.8 141.4 9.1 139.1 9.1 C 137.5 9.1 136.2 10 136.2 11.6 C 136.2 13.4 138.3 14.1 139.6 14.5 C 142.9 15.6 144.7 16.8 144.7 19.6 C 144.7 22.4 142.5 24.4 138.7 24.4 C 136.8 24.4 134.8 23.9 133.7 22.8 C 133.69 22.85 133.4 18.7 133.4 18.7 C 133.4 18.7 134.3 18.66 134.3 18.7 Z M 149.7 16 C 152.3 15.2 155.4 14.4 156.2 13.6 C 156.2 13.6 156.2 12.3 156.2 12.3 C 156.2 9.7 154.7 9.1 153.4 9.1 C 152.2 9.1 150.8 9.8 150.1 12.2 C 150 12.7 149.8 13.1 149.1 13.1 C 148.5 13.1 147.3 12.6 147.3 11.6 C 147.3 9.8 150.2 7.9 153.8 7.9 C 158.6 7.9 159 10.3 159 12.2 C 159 12.2 159 19.9 159 19.9 C 159 22 159.6 22.6 160.2 22.7 C 160.6 22.8 161.3 22.8 161.8 22.7 C 161.8 22.7 162 23.4 162 23.4 C 160.8 24 159.4 24.4 158.2 24.4 C 157.1 24.4 156.6 23.6 156.1 22.5 C 155.1 23.1 153.2 24.4 151.4 24.4 C 148.3 24.4 146.7 22.2 146.7 19.8 C 146.7 18.3 147.4 16.7 149.7 16 Z M 152.9 22.7 C 154.2 22.7 156.2 22 156.2 19.4 C 156.2 19.4 156.2 14.9 156.2 14.9 C 155.5 15.4 153.8 16 152.5 16.4 C 150.7 17.1 150 17.9 150 19.4 C 150 21.3 150.9 22.7 152.9 22.7 Z M 171 28.6 C 171 28.6 171 11.1 171 11.1 C 171 10 170.8 9.8 170 9.7 C 170.01 9.7 168.8 9.5 168.8 9.5 L 168.8 8.7 L 173.6 7.9 C 173.6 7.9 174.04 10.3 174 10.3 C 175.3 9.5 177.1 7.9 179.5 7.9 C 185.3 7.9 185.7 13.5 185.7 15.8 C 185.7 22.4 182 24.4 177.7 24.4 C 176.2 24.4 174.7 24 174 23.6 C 174 23.6 174 28.6 174 28.6 C 174 30.2 174.2 30.3 176.9 30.4 C 176.92 30.43 176.9 31.4 176.9 31.4 L 168.6 31.4 C 168.6 31.4 168.64 30.43 168.6 30.4 C 170.9 30.3 171 30.2 171 28.6 Z M 174.3 20.9 C 174.8 22.4 176.1 23.3 177.7 23.3 C 180.9 23.3 182.4 20.7 182.4 16 C 182.4 10.5 179.5 9.7 178.3 9.7 C 176.6 9.7 175.2 10.4 174.5 11.9 C 174.2 12.5 174 12.9 174 13.7 C 174 13.7 174 19 174 19 C 174 19.7 174.1 20.4 174.3 20.9 Z M 191.2 16 C 193.7 15.2 196.8 14.4 197.6 13.6 C 197.6 13.6 197.6 12.3 197.6 12.3 C 197.6 9.7 196.2 9.1 194.9 9.1 C 193.6 9.1 192.3 9.8 191.6 12.2 C 191.5 12.7 191.3 13.1 190.6 13.1 C 190 13.1 188.8 12.6 188.8 11.6 C 188.8 9.8 191.6 7.9 195.3 7.9 C 200.1 7.9 200.5 10.3 200.5 12.2 C 200.5 12.2 200.5 19.9 200.5 19.9 C 200.5 22 201.1 22.6 201.6 22.7 C 202.1 22.8 202.8 22.8 203.3 22.7 C 203.3 22.7 203.5 23.4 203.5 23.4 C 202.2 24 200.9 24.4 199.7 24.4 C 198.6 24.4 198 23.6 197.6 22.5 C 196.6 23.1 194.7 24.4 192.8 24.4 C 189.8 24.4 188.2 22.2 188.2 19.8 C 188.2 18.3 188.9 16.7 191.2 16 Z M 194.4 22.7 C 195.6 22.7 197.6 22 197.6 19.4 C 197.6 19.4 197.6 14.9 197.6 14.9 C 196.9 15.4 195.2 16 193.9 16.4 C 192.2 17.1 191.5 17.9 191.5 19.4 C 191.5 21.3 192.4 22.7 194.4 22.7 Z M 207.8 23.6 C 207.8 23.6 207.8 23.5 207.8 23.5 C 206.2 23.3 205 22.1 205 21 C 205 19.7 206.2 18.8 207.9 18.1 C 207.9 18.1 207.9 18.1 207.9 18.1 C 206.4 17.7 204.4 16.3 204.4 13.3 C 204.4 10.9 206.2 7.9 211.1 7.9 C 212.5 7.9 214.3 8.3 215.2 8.9 C 215.2 8.93 219.3 7.6 219.3 7.6 L 219.5 7.9 L 218.9 9.9 C 218.9 9.9 216.38 10.3 216.4 10.3 C 216.9 10.8 217.3 12 217.3 13.3 C 217.3 17.2 213.9 18.5 210.9 18.5 C 210.5 18.5 209.9 18.5 209.2 18.4 C 208.8 18.6 207.6 19.1 207.6 20 C 207.6 20.6 208 21.4 210.3 21.4 C 210.3 21.4 212.8 21.4 212.8 21.4 C 216.3 21.4 219 22.6 219 26 C 219 28 217.9 29.5 216.5 30.4 C 214.9 31.4 212.9 31.7 211 31.7 C 207.3 31.7 204.1 30.3 204.1 27.1 C 204.1 24.8 206.4 24 207.8 23.6 Z M 211.7 30.6 C 214 30.6 216.3 29.4 216.3 26.8 C 216.3 24.4 214.2 23.8 211.4 23.8 C 209.9 23.8 208.8 24 208.1 24.5 C 207.5 25 207.1 25.8 207.1 26.9 C 207.1 29.2 209 30.6 211.7 30.6 Z M 211 17.4 C 212.9 17.4 214.3 16 214.3 13.3 C 214.3 10.2 212.6 9.1 211.1 9.1 C 209.4 9.1 207.7 10.1 207.7 13.3 C 207.7 16 209.2 17.4 211 17.4 Z M 219.4 23.1 C 221.7 22.9 221.8 22.8 221.8 21.2 C 221.8 21.2 221.8 3.5 221.8 3.5 C 221.8 2.2 221.6 2.1 220.8 2 C 220.76 1.98 219.5 1.9 219.5 1.9 L 219.5 1.1 L 224.6 0.3 L 224.8 0.4 C 224.8 0.4 224.8 21.22 224.8 21.2 C 224.8 22.8 224.9 22.9 227.2 23.1 C 227.2 23.07 227.2 24 227.2 24 L 219.4 24 C 219.4 24 219.39 23.07 219.4 23.1 Z M 231.6 16 C 234.1 15.2 237.2 14.4 238 13.6 C 238 13.6 238 12.3 238 12.3 C 238 9.7 236.5 9.1 235.3 9.1 C 234 9.1 232.7 9.8 232 12.2 C 231.8 12.7 231.6 13.1 231 13.1 C 230.4 13.1 229.2 12.6 229.2 11.6 C 229.2 9.8 232 7.9 235.6 7.9 C 240.5 7.9 240.9 10.3 240.9 12.2 C 240.9 12.2 240.9 19.9 240.9 19.9 C 240.9 22 241.4 22.6 242 22.7 C 242.5 22.8 243.2 22.8 243.6 22.7 C 243.6 22.7 243.8 23.4 243.8 23.4 C 242.6 24 241.2 24.4 240.1 24.4 C 238.9 24.4 238.4 23.6 238 22.5 C 237 23.1 235.1 24.4 233.2 24.4 C 230.2 24.4 228.6 22.2 228.6 19.8 C 228.6 18.3 229.3 16.7 231.6 16 Z M 234.8 22.7 C 236 22.7 238 22 238 19.4 C 238 19.4 238 14.9 238 14.9 C 237.3 15.4 235.6 16 234.3 16.4 C 232.5 17.1 231.8 17.9 231.8 19.4 C 231.8 21.3 232.8 22.7 234.8 22.7 Z M 243.8 23.1 C 246.1 22.9 246.2 22.8 246.2 21.2 C 246.2 21.2 246.2 3.5 246.2 3.5 C 246.2 2.2 246 2.1 245.1 2 C 245.15 1.98 243.9 1.9 243.9 1.9 L 243.9 1.1 L 249 0.3 L 249.2 0.4 C 249.2 0.4 249.18 21.22 249.2 21.2 C 249.2 22.8 249.3 22.9 251.6 23.1 C 251.58 23.07 251.6 24 251.6 24 L 243.8 24 C 243.8 24 243.77 23.07 243.8 23.1 Z M 256 16 C 258.5 15.2 261.6 14.4 262.4 13.6 C 262.4 13.6 262.4 12.3 262.4 12.3 C 262.4 9.7 260.9 9.1 259.7 9.1 C 258.4 9.1 257.1 9.8 256.4 12.2 C 256.2 12.7 256 13.1 255.4 13.1 C 254.7 13.1 253.6 12.6 253.6 11.6 C 253.6 9.8 256.4 7.9 260 7.9 C 264.9 7.9 265.3 10.3 265.3 12.2 C 265.3 12.2 265.3 19.9 265.3 19.9 C 265.3 22 265.8 22.6 266.4 22.7 C 266.9 22.8 267.6 22.8 268 22.7 C 268 22.7 268.2 23.4 268.2 23.4 C 267 24 265.6 24.4 264.4 24.4 C 263.3 24.4 262.8 23.6 262.4 22.5 C 261.3 23.1 259.5 24.4 257.6 24.4 C 254.6 24.4 253 22.2 253 19.8 C 253 18.3 253.7 16.7 256 16 Z M 259.2 22.7 C 260.4 22.7 262.4 22 262.4 19.4 C 262.4 19.4 262.4 14.9 262.4 14.9 C 261.7 15.4 260 16 258.7 16.4 C 256.9 17.1 256.2 17.9 256.2 19.4 C 256.2 21.3 257.2 22.7 259.2 22.7 Z M 268.5 23.1 C 270.8 22.9 270.9 22.8 270.9 21.2 C 270.9 21.2 270.9 11.1 270.9 11.1 C 270.9 10 270.7 9.8 269.9 9.7 C 269.91 9.7 268.7 9.5 268.7 9.5 L 268.7 8.7 L 273.6 7.9 C 273.6 7.9 273.95 10.5 273.9 10.5 C 276.1 8.6 277 7.9 278.2 7.9 C 279.4 7.9 279.9 8.8 279.9 9.5 C 279.9 10.5 279.2 11.3 278.4 11.3 C 278.2 11.3 278 11.3 277.8 11.1 C 276.8 10.6 276.3 10.4 275.8 10.4 C 275 10.4 273.9 11.3 273.9 13.7 C 273.9 13.7 273.9 21.2 273.9 21.2 C 273.9 22.8 274.1 22.9 277 23.1 C 276.99 23.07 277 24 277 24 L 268.5 24 C 268.5 24 268.54 23.07 268.5 23.1 Z M 288.4 7.9 C 293.5 7.9 296.1 11 296.1 16.2 C 296.1 21.3 293.5 24.4 288.4 24.4 C 283.2 24.4 280.7 21.3 280.7 16.2 C 280.7 11 283.2 7.9 288.4 7.9 Z M 288.4 23.3 C 291.3 23.3 292.7 20.6 292.7 16.2 C 292.7 11.7 291.3 9.1 288.4 9.1 C 285.4 9.1 284 11.7 284 16.2 C 284 20.6 285.4 23.3 288.4 23.3 Z M 304.5 23.1 C 306.8 22.9 306.9 22.8 306.9 21.2 C 306.9 21.2 306.9 11.1 306.9 11.1 C 306.9 10 306.7 9.8 305.9 9.7 C 305.91 9.7 304.7 9.5 304.7 9.5 L 304.7 8.7 L 309.5 7.9 C 309.5 7.9 309.91 10.37 309.9 10.4 C 311.9 9.1 313.4 7.9 315.7 7.9 C 318.7 7.9 320.4 9.8 320.4 13 C 320.4 13 320.4 21.2 320.4 21.2 C 320.4 22.8 320.6 22.9 322.8 23.1 C 322.84 23.07 322.8 24 322.8 24 L 315 24 C 315 24 315.03 23.07 315 23.1 C 317.3 22.9 317.4 22.8 317.4 21.2 C 317.4 21.2 317.4 13.7 317.4 13.7 C 317.4 10.9 316.3 9.7 314.1 9.7 C 312.4 9.7 310.9 10.7 310.3 12 C 310 12.5 309.9 12.9 309.9 13.7 C 309.9 13.7 309.9 21.2 309.9 21.2 C 309.9 22.8 310.1 22.9 312.3 23.1 C 312.35 23.07 312.3 24 312.3 24 L 304.5 24 C 304.5 24 304.54 23.07 304.5 23.1 Z M 327.7 23.6 C 327.7 23.6 327.7 23.5 327.7 23.5 C 326.2 23.3 324.9 22.1 324.9 21 C 324.9 19.7 326.1 18.8 327.8 18.1 C 327.8 18.1 327.8 18.1 327.8 18.1 C 326.4 17.7 324.4 16.3 324.4 13.3 C 324.4 10.9 326.1 7.9 331 7.9 C 332.5 7.9 334.2 8.3 335.1 8.9 C 335.13 8.93 339.2 7.6 339.2 7.6 L 339.5 7.9 L 338.8 9.9 C 338.8 9.9 336.31 10.3 336.3 10.3 C 336.9 10.8 337.3 12 337.3 13.3 C 337.3 17.2 333.8 18.5 330.8 18.5 C 330.5 18.5 329.8 18.5 329.2 18.4 C 328.8 18.6 327.5 19.1 327.5 20 C 327.5 20.6 327.9 21.4 330.2 21.4 C 330.2 21.4 332.8 21.4 332.8 21.4 C 336.2 21.4 338.9 22.6 338.9 26 C 338.9 28 337.9 29.5 336.4 30.4 C 334.9 31.4 332.9 31.7 330.9 31.7 C 327.2 31.7 324 30.3 324 27.1 C 324 24.8 326.3 24 327.7 23.6 Z M 331.7 30.6 C 333.9 30.6 336.2 29.4 336.2 26.8 C 336.2 24.4 334.2 23.8 331.4 23.8 C 329.8 23.8 328.8 24 328.1 24.5 C 327.4 25 327.1 25.8 327.1 26.9 C 327.1 29.2 329 30.6 331.7 30.6 Z M 330.9 17.4 C 332.8 17.4 334.2 16 334.2 13.3 C 334.2 10.2 332.6 9.1 331 9.1 C 329.3 9.1 327.6 10.1 327.6 13.3 C 327.6 16 329.1 17.4 330.9 17.4 Z M 345.9 23.1 C 348.2 22.9 348.3 22.8 348.3 21.2 C 348.3 21.2 348.3 3.5 348.3 3.5 C 348.3 2.2 348.1 2.1 347.3 2 C 347.26 1.98 346 1.9 346 1.9 L 346 1.1 L 351.1 0.3 L 351.3 0.4 L 351.3 15.4 C 351.3 15.4 351.35 15.42 351.4 15.4 C 352.1 14.3 355.3 10.4 356.2 9.2 C 356.8 8.5 357.1 8.3 358.2 8.3 C 358.2 8.32 361.5 8.3 361.5 8.3 C 361.5 8.3 361.5 9.22 361.5 9.2 C 359.6 9.4 358.8 9.8 357.8 10.6 C 356.7 11.4 355.6 12.3 354.1 14.1 C 353.8 14.4 353.8 14.6 354 14.8 C 355.2 16.5 357.7 19.6 359.7 21.5 C 360.7 22.5 361.5 23 362.5 23.3 C 362.46 23.26 362.5 24.2 362.5 24.2 C 362.5 24.2 360.06 24.06 360.1 24.1 C 359 24 357.8 23.6 356.6 22.4 C 354.9 20.7 352.7 18 351.4 15.9 C 351.35 15.87 351.3 15.9 351.3 15.9 C 351.3 15.9 351.29 21.22 351.3 21.2 C 351.3 22.8 351.4 22.9 353.7 23.1 C 353.69 23.07 353.7 24 353.7 24 L 345.9 24 C 345.9 24 345.88 23.07 345.9 23.1 Z M 370.6 7.9 C 375.8 7.9 378.3 11 378.3 16.2 C 378.3 21.3 375.8 24.4 370.6 24.4 C 365.5 24.4 362.9 21.3 362.9 16.2 C 362.9 11 365.5 7.9 370.6 7.9 Z M 370.6 23.3 C 373.6 23.3 375 20.6 375 16.2 C 375 11.7 373.6 9.1 370.6 9.1 C 367.7 9.1 366.3 11.7 366.3 16.2 C 366.3 20.6 367.7 23.3 370.6 23.3 Z M 382.4 28.6 C 382.4 28.6 382.4 11.1 382.4 11.1 C 382.4 10 382.2 9.8 381.4 9.7 C 381.37 9.7 380.2 9.5 380.2 9.5 L 380.2 8.7 L 385 7.9 C 385 7.9 385.4 10.3 385.4 10.3 C 386.6 9.5 388.5 7.9 390.8 7.9 C 396.7 7.9 397.1 13.5 397.1 15.8 C 397.1 22.4 393.4 24.4 389 24.4 C 387.6 24.4 386.1 24 385.4 23.6 C 385.4 23.6 385.4 28.6 385.4 28.6 C 385.4 30.2 385.6 30.3 388.3 30.4 C 388.28 30.43 388.3 31.4 388.3 31.4 L 380 31.4 C 380 31.4 379.99 30.43 380 30.4 C 382.2 30.3 382.4 30.2 382.4 28.6 Z M 385.6 20.9 C 386.1 22.4 387.4 23.3 389.1 23.3 C 392.3 23.3 393.8 20.7 393.8 16 C 393.8 10.5 390.9 9.7 389.6 9.7 C 387.9 9.7 386.6 10.4 385.8 11.9 C 385.5 12.5 385.4 12.9 385.4 13.7 C 385.4 13.7 385.4 19 385.4 19 C 385.4 19.7 385.4 20.4 385.6 20.9 Z M 407.3 7.9 C 412.4 7.9 414.9 11 414.9 16.2 C 414.9 21.3 412.4 24.4 407.3 24.4 C 402.1 24.4 399.6 21.3 399.6 16.2 C 399.6 11 402.1 7.9 407.3 7.9 Z M 407.3 23.3 C 410.2 23.3 411.6 20.6 411.6 16.2 C 411.6 11.7 410.2 9.1 407.3 9.1 C 404.3 9.1 402.9 11.7 402.9 16.2 C 402.9 20.6 404.3 23.3 407.3 23.3 Z M 416.9 23.1 C 419.2 22.9 419.3 22.8 419.3 21.2 C 419.3 21.2 419.3 11.1 419.3 11.1 C 419.3 10 419.1 9.8 418.2 9.7 C 418.23 9.7 417 9.5 417 9.5 L 417 8.7 L 421.8 7.9 C 421.8 7.9 422.23 10.37 422.2 10.4 C 424.2 9.1 425.7 7.9 428.1 7.9 C 431 7.9 432.8 9.8 432.8 13 C 432.8 13 432.8 21.2 432.8 21.2 C 432.8 22.8 432.9 22.9 435.2 23.1 C 435.16 23.07 435.2 24 435.2 24 L 427.4 24 C 427.4 24 427.35 23.07 427.4 23.1 C 429.7 22.9 429.8 22.8 429.8 21.2 C 429.8 21.2 429.8 13.7 429.8 13.7 C 429.8 10.9 428.6 9.7 426.4 9.7 C 424.7 9.7 423.3 10.7 422.6 12 C 422.3 12.5 422.3 12.9 422.3 13.7 C 422.3 13.7 422.3 21.2 422.3 21.2 C 422.3 22.8 422.4 22.9 424.7 23.1 C 424.66 23.07 424.7 24 424.7 24 L 416.9 24 C 416.9 24 416.86 23.07 416.9 23.1 Z M 439.5 16 C 442.1 15.2 445.2 14.4 446 13.6 C 446 13.6 446 12.3 446 12.3 C 446 9.7 444.5 9.1 443.3 9.1 C 442 9.1 440.7 9.8 440 12.2 C 439.8 12.7 439.6 13.1 438.9 13.1 C 438.3 13.1 437.1 12.6 437.1 11.6 C 437.1 9.8 440 7.9 443.6 7.9 C 448.4 7.9 448.9 10.3 448.9 12.2 C 448.9 12.2 448.9 19.9 448.9 19.9 C 448.9 22 449.4 22.6 450 22.7 C 450.5 22.8 451.2 22.8 451.6 22.7 C 451.6 22.7 451.8 23.4 451.8 23.4 C 450.6 24 449.2 24.4 448 24.4 C 446.9 24.4 446.4 23.6 445.9 22.5 C 444.9 23.1 443 24.4 441.2 24.4 C 438.2 24.4 436.6 22.2 436.6 19.8 C 436.6 18.3 437.2 16.7 439.5 16 Z M 442.7 22.7 C 444 22.7 446 22 446 19.4 C 446 19.4 446 14.9 446 14.9 C 445.3 15.4 443.6 16 442.3 16.4 C 440.5 17.1 439.8 17.9 439.8 19.4 C 439.8 21.3 440.8 22.7 442.7 22.7 Z M 452.1 23.1 C 454.4 22.9 454.5 22.8 454.5 21.2 C 454.5 21.2 454.5 11.1 454.5 11.1 C 454.5 10 454.3 9.8 453.5 9.7 C 453.5 9.7 452.3 9.5 452.3 9.5 L 452.3 8.7 L 457 7.9 C 457 7.9 457.5 10.37 457.5 10.4 C 459.5 9.1 461 7.9 463.3 7.9 C 466.3 7.9 468 9.8 468 13 C 468 13 468 21.2 468 21.2 C 468 22.8 468.2 22.9 470.4 23.1 C 470.42 23.07 470.4 24 470.4 24 L 462.6 24 C 462.6 24 462.62 23.07 462.6 23.1 C 464.9 22.9 465 22.8 465 21.2 C 465 21.2 465 13.7 465 13.7 C 465 10.9 463.8 9.7 461.7 9.7 C 460 9.7 458.5 10.7 457.8 12 C 457.6 12.5 457.5 12.9 457.5 13.7 C 457.5 13.7 457.5 21.2 457.5 21.2 C 457.5 22.8 457.7 22.9 459.9 23.1 C 459.93 23.07 459.9 24 459.9 24 L 452.1 24 C 452.1 24 452.12 23.07 452.1 23.1 Z M 475.3 23.6 C 475.3 23.6 475.3 23.5 475.3 23.5 C 473.8 23.3 472.5 22.1 472.5 21 C 472.5 19.7 473.7 18.8 475.4 18.1 C 475.4 18.1 475.4 18.1 475.4 18.1 C 473.9 17.7 472 16.3 472 13.3 C 472 10.9 473.7 7.9 478.6 7.9 C 480.1 7.9 481.8 8.3 482.7 8.9 C 482.71 8.93 486.8 7.6 486.8 7.6 L 487.1 7.9 L 486.4 9.9 C 486.4 9.9 483.9 10.3 483.9 10.3 C 484.4 10.8 484.9 12 484.9 13.3 C 484.9 17.2 481.4 18.5 478.4 18.5 C 478 18.5 477.4 18.5 476.8 18.4 C 476.3 18.6 475.1 19.1 475.1 20 C 475.1 20.6 475.5 21.4 477.8 21.4 C 477.8 21.4 480.3 21.4 480.3 21.4 C 483.8 21.4 486.5 22.6 486.5 26 C 486.5 28 485.5 29.5 484 30.4 C 482.5 31.4 480.4 31.7 478.5 31.7 C 474.8 31.7 471.6 30.3 471.6 27.1 C 471.6 24.8 473.9 24 475.3 23.6 Z M 479.3 30.6 C 481.5 30.6 483.8 29.4 483.8 26.8 C 483.8 24.4 481.8 23.8 478.9 23.8 C 477.4 23.8 476.3 24 475.6 24.5 C 475 25 474.6 25.8 474.6 26.9 C 474.6 29.2 476.5 30.6 479.3 30.6 Z M 478.5 17.4 C 480.4 17.4 481.8 16 481.8 13.3 C 481.8 10.2 480.2 9.1 478.6 9.1 C 476.9 9.1 475.2 10.1 475.2 13.3 C 475.2 16 476.7 17.4 478.5 17.4 Z M 490.3 1.9 L 498.6 1.9 L 498.6 2.8 C 498.6 2.8 496.92 2.94 496.9 2.9 C 496.2 3 496.1 3.3 496.3 4.1 C 497.1 6.7 498.1 9.5 499.1 12.3 C 499.13 12.26 502.1 20.5 502.1 20.5 L 502.2 20.5 C 502.2 20.5 505.49 11.36 505.5 11.4 C 506.6 8.2 507.6 5.3 508 3.9 C 508.2 3.3 508.1 3 507.3 2.9 C 507.29 2.94 505.5 2.8 505.5 2.8 L 505.5 1.9 L 512.6 1.9 C 512.6 1.9 512.6 2.78 512.6 2.8 C 510.9 2.9 510.5 2.9 509.8 4.4 C 509 6.1 507.8 9.4 506.5 13 C 506.45 12.96 502.4 24 502.4 24 L 500.1 24 C 500.1 24 496.47 13.76 496.5 13.8 C 495.4 10.6 494.2 7.4 493.1 4.7 C 492.5 3 492.1 2.8 490.3 2.8 C 490.33 2.78 490.3 1.9 490.3 1.9 Z M 515.6 1.1 C 516.8 1.1 517.6 1.9 517.6 3.1 C 517.6 4.2 516.8 5 515.6 5 C 514.5 5 513.7 4.2 513.7 3.1 C 513.7 1.9 514.5 1.1 515.6 1.1 Z M 511.8 23.1 C 514.1 22.9 514.2 22.8 514.2 21.2 C 514.2 21.2 514.2 11.1 514.2 11.1 C 514.2 10 514 9.8 513.1 9.7 C 513.14 9.7 511.9 9.5 511.9 9.5 L 511.9 8.7 L 517 7.9 L 517.2 8.1 C 517.2 8.1 517.17 21.22 517.2 21.2 C 517.2 22.8 517.3 22.9 519.6 23.1 C 519.57 23.07 519.6 24 519.6 24 L 511.8 24 C 511.8 24 511.77 23.07 511.8 23.1 Z M 520.4 23.1 C 522.7 22.9 522.8 22.8 522.8 21.2 C 522.8 21.2 522.8 11.1 522.8 11.1 C 522.8 10 522.6 9.8 521.8 9.7 C 521.81 9.7 520.6 9.5 520.6 9.5 L 520.6 8.7 L 525.5 7.9 C 525.5 7.9 525.85 10.5 525.8 10.5 C 528 8.6 528.9 7.9 530.1 7.9 C 531.3 7.9 531.8 8.8 531.8 9.5 C 531.8 10.5 531.1 11.3 530.3 11.3 C 530.1 11.3 529.9 11.3 529.7 11.1 C 528.7 10.6 528.2 10.4 527.7 10.4 C 526.9 10.4 525.8 11.3 525.8 13.7 C 525.8 13.7 525.8 21.2 525.8 21.2 C 525.8 22.8 526 22.9 528.9 23.1 C 528.89 23.07 528.9 24 528.9 24 L 520.4 24 C 520.4 24 520.44 23.07 520.4 23.1 Z M 536.4 1.1 C 537.5 1.1 538.3 1.9 538.3 3.1 C 538.3 4.2 537.5 5 536.4 5 C 535.2 5 534.4 4.2 534.4 3.1 C 534.4 1.9 535.2 1.1 536.4 1.1 Z M 532.5 23.1 C 534.8 22.9 534.9 22.8 534.9 21.2 C 534.9 21.2 534.9 11.1 534.9 11.1 C 534.9 10 534.7 9.8 533.9 9.7 C 533.88 9.7 532.7 9.5 532.7 9.5 L 532.7 8.7 L 537.7 7.9 L 537.9 8.1 C 537.9 8.1 537.91 21.22 537.9 21.2 C 537.9 22.8 538 22.9 540.3 23.1 C 540.31 23.07 540.3 24 540.3 24 L 532.5 24 C 532.5 24 532.5 23.07 532.5 23.1 Z M 543.9 10.1 C 545.3 8.8 547.2 7.9 549.8 7.9 C 551.3 7.9 552.5 8.2 553.4 8.7 C 553.4 8.7 553.4 3.5 553.4 3.5 C 553.4 2.2 553.2 2.1 552.4 2 C 552.37 1.98 551.2 1.9 551.2 1.9 L 551.2 1.1 L 556.2 0.3 L 556.4 0.4 C 556.4 0.4 556.4 21.22 556.4 21.2 C 556.4 22.8 556.5 22.9 558.8 23.1 C 558.8 23.07 558.8 24 558.8 24 L 553.6 24 L 553.4 23.8 C 553.4 23.8 553.36 22.21 553.4 22.2 C 551.6 23.6 550.1 24.4 548.4 24.4 C 544.2 24.4 541.7 21.2 541.7 16.5 C 541.7 13.7 542.5 11.6 543.9 10.1 Z M 549.5 22.7 C 551.1 22.7 552.5 22 553.2 20.4 C 553.4 19.8 553.4 19.3 553.4 18.6 C 553.4 18.6 553.4 12.9 553.4 12.9 C 553.4 12.1 553.4 11.6 553.1 11.1 C 552.5 9.8 551.3 9.1 549.8 9.1 C 546.5 9.1 545 11.9 545 16.1 C 545 19.8 546.5 22.7 549.5 22.7 Z M 563.5 1.1 C 564.7 1.1 565.5 1.9 565.5 3.1 C 565.5 4.2 564.7 5 563.5 5 C 562.4 5 561.6 4.2 561.6 3.1 C 561.6 1.9 562.4 1.1 563.5 1.1 Z M 559.7 23.1 C 562 22.9 562.1 22.8 562.1 21.2 C 562.1 21.2 562.1 11.1 562.1 11.1 C 562.1 10 561.9 9.8 561 9.7 C 561.04 9.7 559.8 9.5 559.8 9.5 L 559.8 8.7 L 564.9 7.9 L 565.1 8.1 C 565.1 8.1 565.08 21.22 565.1 21.2 C 565.1 22.8 565.2 22.9 567.5 23.1 C 567.48 23.07 567.5 24 567.5 24 L 559.7 24 C 559.7 24 559.67 23.07 559.7 23.1 Z M 569.7 18.7 C 570.4 21.4 571.8 23.3 574.4 23.3 C 576.1 23.3 577.4 22.2 577.4 20.6 C 577.4 18.4 575.4 17.7 573.9 17.2 C 571.3 16.4 569.1 15.3 569.1 12.6 C 569.1 9.6 571.5 7.9 574.9 7.9 C 576.4 7.9 578 8.3 579.1 9 C 579.06 9.02 579.1 12.8 579.1 12.8 C 579.1 12.8 578.13 12.77 578.1 12.8 C 577.9 10.8 576.8 9.1 574.5 9.1 C 572.9 9.1 571.7 10 571.7 11.6 C 571.7 13.4 573.8 14.1 575.1 14.5 C 578.4 15.6 580.1 16.8 580.1 19.6 C 580.1 22.4 577.9 24.4 574.1 24.4 C 572.2 24.4 570.3 23.9 569.1 22.8 C 569.14 22.85 568.8 18.7 568.8 18.7 C 568.8 18.7 569.75 18.66 569.7 18.7 Z " stroke="none" fill="#000"/>
  </g>
</svg>