<?xml version="1.0" standalone="no"?>
<!DOCTYPE svg PUBLIC "-//W3C//DTD SVG 1.1//EN" "http://www.w3.org/Graphics/SVG/1.1/DTD/svg11.dtd">
<svg xmlns="http://www.w3.org/2000/svg" version="1.1" width="363.2px" height="123.8px" viewBox="0 -22 363.2 123.8" style="top:-22px">
  <desc>PLARIDEL</desc>
  <defs/>
  <g id="Polygon13097">
    <path d="M 13.3 20.4 C 13.3 9.3 13.3 7.3 13.2 5 C 13.1 2.6 12.5 1.5 10.2 1 C 9.6 0.9 8.4 0.8 7.7 0.8 C 7.5 0.8 7.2 0.6 7.2 0.4 C 7.2 -0.1 7.5 -0.2 8.3 -0.2 C 11.5 -0.2 15.8 0 16.3 0 C 17.9 0 22 -0.2 25.3 -0.2 C 34.2 -0.2 37.3 2.8 38.5 3.8 C 40 5.3 42 8.5 42 13.1 C 42 22.4 34.6 29.2 24.6 29.2 C 24.2 29.2 23.4 29.2 23.1 29.1 C 22.7 29.1 22.3 29 22.3 28.6 C 22.3 28 22.7 28 24.2 28 C 31.1 28 36.5 23.3 36.5 15.8 C 36.5 14.1 36.3 9.3 32.5 5.5 C 28.8 1.6 24.4 1.9 22.8 1.9 C 21.6 1.9 20.4 2.1 19.7 2.3 C 19.3 2.5 19.2 3 19.2 3.7 C 19.2 3.7 19.2 32.9 19.2 32.9 C 19.2 39.7 19.2 45.3 19.5 48.3 C 19.7 50.3 20.2 51.9 22.3 52.2 C 23.3 52.3 24.9 52.5 25.5 52.5 C 25.9 52.5 26.1 52.7 26.1 52.9 C 26.1 53.3 25.7 53.5 24.9 53.5 C 21 53.5 16.5 53.3 16.2 53.3 C 16 53.3 11.5 53.5 9.4 53.5 C 8.6 53.5 8.2 53.3 8.2 52.9 C 8.2 52.7 8.4 52.5 8.8 52.5 C 9.4 52.5 10.3 52.3 10.9 52.2 C 12.4 51.9 12.7 50.3 13 48.3 C 13.3 45.3 13.3 39.7 13.3 32.9 C 13.3 32.9 13.3 20.4 13.3 20.4 Z M 62 33 C 62 43.5 62.3 48 63.5 49.3 C 64.7 50.4 66.5 50.9 72.1 50.9 C 75.8 50.9 79 50.8 80.7 48.8 C 81.6 47.6 82.3 45.9 82.5 44.5 C 82.6 43.9 82.7 43.6 83.1 43.6 C 83.5 43.6 83.6 43.9 83.6 44.7 C 83.6 45.4 83.1 49.7 82.5 51.8 C 82 53.4 81.8 53.7 78 53.7 C 71.9 53.7 65.9 53.3 59 53.3 C 56.8 53.3 54.7 53.5 52 53.5 C 51.3 53.5 50.9 53.3 50.9 52.9 C 50.9 52.7 51 52.5 51.5 52.5 C 52.1 52.5 53 52.3 53.6 52.2 C 55 51.9 55.4 50.3 55.7 48.3 C 56 45.3 56 39.7 56 32.9 C 56 32.9 56 20.4 56 20.4 C 56 9.3 56 7.3 55.9 5 C 55.7 2.6 55.2 1.5 52.8 1 C 52.3 0.9 51 0.8 50.4 0.8 C 50.1 0.8 49.8 0.6 49.8 0.4 C 49.8 -0.1 50.2 -0.2 51 -0.2 C 54.2 -0.2 58.6 0 59 0 C 59.4 0 64.5 -0.2 66.7 -0.2 C 67.5 -0.2 67.8 -0.1 67.8 0.4 C 67.8 0.6 67.5 0.8 67.2 0.8 C 66.7 0.8 65.7 0.9 64.9 1 C 62.8 1.3 62.3 2.6 62.1 5 C 62 7.3 62 9.3 62 20.4 C 62 20.4 62 33 62 33 Z M 103.2 32.5 C 102.8 32.5 102.6 32.7 102.5 33.1 C 102.5 33.1 98.2 45.7 98.2 45.7 C 97.6 47.4 97.2 49.1 97.2 50.4 C 97.2 51.8 98.5 52.5 99.8 52.5 C 100 52.5 100.2 52.5 100.4 52.5 C 101.1 52.5 101.3 52.6 101.3 52.9 C 101.3 53.3 100.7 53.5 100 53.5 C 98.3 53.5 95.5 53.3 94.7 53.3 C 93.9 53.3 90 53.5 86.7 53.5 C 85.8 53.5 85.3 53.3 85.3 52.9 C 85.3 52.6 85.7 52.5 86.3 52.5 C 86.8 52.5 87.5 52.4 88 52.3 C 91.3 51.9 92.7 49.2 94 45.7 C 94 45.7 110.1 1.6 110.1 1.6 C 111 -0.8 111.3 -1.2 111.7 -1.2 C 112.1 -1.2 112.4 -0.9 113.2 1.3 C 114.3 4 125.5 33.4 129.8 44.2 C 132.3 50.5 134.4 51.6 135.9 52 C 137 52.4 138.1 52.5 138.7 52.5 C 139.1 52.5 139.4 52.5 139.4 52.9 C 139.4 53.3 138.8 53.5 138 53.5 C 137 53.5 131.8 53.5 126.9 53.3 C 125.5 53.3 124.7 53.3 124.7 52.8 C 124.7 52.5 125 52.4 125.2 52.3 C 125.7 52.2 126.1 51.5 125.7 50.4 C 125.7 50.4 119.1 32.9 119.1 32.9 C 118.9 32.7 118.8 32.5 118.4 32.5 C 118.4 32.5 103.2 32.5 103.2 32.5 Z M 117.5 30 C 117.9 30 117.9 29.7 117.8 29.5 C 117.8 29.5 111 10.3 111 10.3 C 110.7 9.2 110.3 9.2 110 10.3 C 110 10.3 103.7 29.5 103.7 29.5 C 103.6 29.8 103.7 30 103.9 30 C 103.9 30 117.5 30 117.5 30 Z M 148.2 20.4 C 148.2 9.3 148.2 7.3 148 5 C 147.9 2.6 147.3 1.5 145 1 C 144.4 0.9 143.2 0.8 142.6 0.8 C 142.3 0.8 142 0.6 142 0.4 C 142 -0.1 142.4 -0.2 143.1 -0.2 C 146.3 -0.2 150.8 0 151.2 0 C 151.9 0 157.3 -0.2 159.5 -0.2 C 164 -0.2 168.8 0.2 172.5 2.9 C 174.3 4.2 177.4 7.7 177.4 12.6 C 177.4 17.8 175.2 23.1 168.8 29 C 174.7 36.4 179.5 42.7 183.6 47.1 C 187.4 51.2 190.5 52 192.3 52.3 C 193.6 52.5 194.6 52.5 195 52.5 C 195.4 52.5 195.7 52.7 195.7 52.9 C 195.7 53.3 195.2 53.5 194 53.5 C 194 53.5 188.9 53.5 188.9 53.5 C 185 53.5 183.2 53.1 181.3 52.1 C 178.3 50.5 175.8 47 171.7 41.7 C 168.8 37.8 165.4 33 164 31.2 C 163.7 30.9 163.5 30.7 163.1 30.7 C 163.1 30.7 154.4 30.6 154.4 30.6 C 154 30.6 153.9 30.8 153.9 31.2 C 153.9 31.2 153.9 32.9 153.9 32.9 C 153.9 39.7 153.9 45.3 154.2 48.3 C 154.4 50.3 154.8 51.9 157 52.2 C 158 52.3 159.5 52.5 160.2 52.5 C 160.6 52.5 160.7 52.7 160.7 52.9 C 160.7 53.3 160.4 53.5 159.6 53.5 C 155.7 53.5 151.2 53.3 150.9 53.3 C 150.8 53.3 146.3 53.5 144.2 53.5 C 143.4 53.5 143.1 53.3 143.1 52.9 C 143.1 52.7 143.2 52.5 143.6 52.5 C 144.3 52.5 145.1 52.3 145.8 52.2 C 147.2 51.9 147.5 50.3 147.8 48.3 C 148.2 45.3 148.2 39.7 148.2 32.9 C 148.2 32.9 148.2 20.4 148.2 20.4 Z M 153.9 26.6 C 153.9 26.9 154 27.2 154.4 27.4 C 155.4 28 158.7 28.5 161.8 28.5 C 163.5 28.5 165.5 28.3 167.1 27.2 C 169.6 25.5 171.5 21.7 171.5 16.3 C 171.5 7.4 166.8 2.1 159.2 2.1 C 157.1 2.1 155.1 2.3 154.4 2.5 C 154.1 2.6 153.9 2.9 153.9 3.3 C 153.9 3.3 153.9 26.6 153.9 26.6 Z M 200.3 20.4 C 200.3 9.3 200.3 7.3 200.1 5 C 200 2.6 199.3 1.4 197.7 1.1 C 197 0.9 196 0.8 195.5 0.8 C 195.2 0.8 195 0.6 195 0.4 C 195 -0.1 195.3 -0.2 196.1 -0.2 C 198.4 -0.2 202.9 0 203.3 0 C 203.6 0 208.1 -0.2 210.2 -0.2 C 211 -0.2 211.4 -0.1 211.4 0.4 C 211.4 0.6 211.1 0.8 210.8 0.8 C 210.3 0.8 209.9 0.9 209 1 C 207.1 1.3 206.5 2.6 206.4 5 C 206.3 7.3 206.3 9.3 206.3 20.4 C 206.3 20.4 206.3 32.9 206.3 32.9 C 206.3 39.7 206.3 45.3 206.6 48.3 C 206.8 50.3 207.2 51.9 209.4 52.2 C 210.4 52.3 211.9 52.5 212.3 52.5 C 212.9 52.5 213.1 52.7 213.1 52.9 C 213.1 53.3 212.9 53.5 212.1 53.5 C 208.2 53.5 203.6 53.3 203.3 53.3 C 202.9 53.3 198.4 53.5 196.3 53.5 C 195.5 53.5 195.2 53.3 195.2 52.9 C 195.2 52.7 195.3 52.5 196 52.5 C 196.4 52.5 197.2 52.4 197.8 52.3 C 199.2 52 199.7 50.3 199.9 48.3 C 200.3 45.3 200.3 39.7 200.3 32.9 C 200.3 32.9 200.3 20.4 200.3 20.4 Z M 230.1 20.4 C 230.1 9.3 230.1 7.3 230 5 C 229.8 2.6 229.5 1.5 227.1 1 C 226.6 0.9 225.4 0.8 224.7 0.8 C 224.2 0.8 223.9 0.6 223.9 0.4 C 223.9 -0.1 224.3 -0.2 225.1 -0.2 C 228.3 -0.2 232.7 0 233.1 0 C 233.9 0 238.4 -0.2 242.7 -0.2 C 249.7 -0.2 262.7 -0.9 271.1 7.9 C 274.7 11.6 278 17.5 278 25.9 C 278 34.9 274.3 41.7 270.4 45.9 C 267.3 49.1 260.9 54.1 248.9 54.1 C 245.8 54.1 242 53.9 239 53.7 C 235.9 53.5 233.4 53.3 233.1 53.3 C 232.9 53.3 231.7 53.3 230.3 53.3 C 228.8 53.3 227.2 53.5 226.1 53.5 C 225.4 53.5 225 53.3 225 52.9 C 225 52.7 225.1 52.5 225.7 52.5 C 226.5 52.4 227.1 52.3 227.7 52.2 C 229.1 51.9 229.5 50.3 229.8 48.3 C 230.1 45.3 230.1 39.7 230.1 32.9 C 230.1 32.9 230.1 20.4 230.1 20.4 Z M 236.1 28 C 236.1 35.6 236.1 42.1 236.2 43.5 C 236.3 45.2 236.4 48.1 237 48.8 C 237.9 50.2 240.7 51.7 249.1 51.7 C 255.7 51.7 261.8 49.3 266 45.1 C 269.7 41.5 271.6 34.6 271.6 28.1 C 271.6 19.1 267.7 13.3 264.8 10.2 C 258.2 3.2 250.1 2.2 241.6 2.2 C 240.2 2.2 237.6 2.4 237 2.7 C 236.4 3 236.1 3.3 236.1 4.1 C 236.1 6.5 236.1 13.8 236.1 19.2 C 236.1 19.2 236.1 28 236.1 28 Z M 292.7 20.4 C 292.7 9.3 292.7 7.3 292.6 5 C 292.4 2.6 291.9 1.5 289.5 1 C 289 0.9 288.1 0.9 287.5 0.8 C 287 0.7 286.6 0.6 286.6 0.4 C 286.6 -0.1 286.9 -0.2 287.7 -0.2 C 289.3 -0.2 291.2 -0.2 295.7 0 C 296.2 0 310.3 0 312 -0.1 C 313.5 -0.1 314.8 -0.3 315.2 -0.5 C 315.7 -0.7 315.8 -0.8 316 -0.8 C 316.2 -0.8 316.3 -0.5 316.3 -0.1 C 316.3 0.4 315.9 1.2 315.7 3.2 C 315.7 4.3 315.6 5.6 315.5 7.5 C 315.4 8.2 315.2 8.7 314.9 8.7 C 314.5 8.7 314.3 8.3 314.3 7.7 C 314.3 6.8 314.2 6 314 5.4 C 313.5 3.8 312 3.1 308.8 2.8 C 307.6 2.6 299.9 2.6 299.1 2.6 C 298.8 2.6 298.7 2.8 298.7 3.3 C 298.7 3.3 298.7 22.9 298.7 22.9 C 298.7 23.4 298.8 23.6 299.1 23.6 C 300 23.6 308.8 23.6 310.4 23.4 C 312.3 23.3 313.2 23.1 314 22.2 C 314.3 21.8 314.5 21.5 314.8 21.5 C 315 21.5 315.2 21.7 315.2 22.1 C 315.2 22.5 314.8 23.7 314.6 26.1 C 314.4 28.3 314.4 29.9 314.3 30.9 C 314.2 31.6 314.1 31.9 313.8 31.9 C 313.4 31.9 313.3 31.4 313.3 30.8 C 313.3 30.2 313.2 29.5 313 28.8 C 312.8 27.8 311.9 26.8 309.3 26.5 C 307.4 26.3 300.4 26.1 299.2 26.1 C 298.8 26.1 298.7 26.3 298.7 26.6 C 298.7 26.6 298.7 32.9 298.7 32.9 C 298.7 35.3 298.6 43.5 298.7 45 C 298.8 47.9 299.3 49.5 301 50.2 C 302.2 50.7 304.2 50.8 306.9 50.8 C 309.1 50.8 311.4 50.8 313.3 50.2 C 315.6 49.5 316.4 48 316.9 44.9 C 317.1 44.2 317.2 43.9 317.6 43.9 C 318 43.9 318 44.4 318 44.9 C 318 45.5 317.4 50.3 317.1 51.8 C 316.6 53.7 316 53.7 313.2 53.7 C 308 53.7 305.7 53.5 302.9 53.5 C 300 53.4 296.8 53.3 294 53.3 C 292.3 53.3 290.6 53.5 288.8 53.5 C 288 53.5 287.6 53.3 287.6 52.9 C 287.6 52.7 288 52.5 288.4 52.5 C 289.1 52.4 289.5 52.4 290 52.3 C 291.5 51.9 292.4 50.9 292.6 45.6 C 292.7 42.8 292.7 39.2 292.7 32.9 C 292.7 32.9 292.7 20.4 292.7 20.4 Z M 339 33 C 339 43.5 339.3 48 340.6 49.3 C 341.7 50.4 343.6 50.9 349.1 50.9 C 352.9 50.9 356 50.8 357.7 48.8 C 358.6 47.6 359.3 45.9 359.5 44.5 C 359.6 43.9 359.8 43.6 360.2 43.6 C 360.5 43.6 360.6 43.9 360.6 44.7 C 360.6 45.4 360.1 49.7 359.5 51.8 C 359 53.4 358.8 53.7 355.1 53.7 C 349 53.7 342.9 53.3 336 53.3 C 333.8 53.3 331.7 53.5 329.1 53.5 C 328.3 53.5 327.9 53.3 327.9 52.9 C 327.9 52.7 328.1 52.5 328.5 52.5 C 329.2 52.5 330 52.3 330.6 52.2 C 332.1 51.9 332.4 50.3 332.7 48.3 C 333.1 45.3 333.1 39.7 333.1 32.9 C 333.1 32.9 333.1 20.4 333.1 20.4 C 333.1 9.3 333.1 7.3 332.9 5 C 332.8 2.6 332.2 1.5 329.9 1 C 329.3 0.9 328.1 0.8 327.4 0.8 C 327.2 0.8 326.9 0.6 326.9 0.4 C 326.9 -0.1 327.2 -0.2 328 -0.2 C 331.2 -0.2 335.7 0 336 0 C 336.4 0 341.6 -0.2 343.7 -0.2 C 344.5 -0.2 344.8 -0.1 344.8 0.4 C 344.8 0.6 344.6 0.8 344.3 0.8 C 343.8 0.8 342.8 0.9 341.9 1 C 339.9 1.3 339.3 2.6 339.2 5 C 339 7.3 339 9.3 339 20.4 C 339 20.4 339 33 339 33 Z " stroke="none" fill="#741113"/>
  </g>
</svg>