<?xml version="1.0" standalone="no"?>
<!DOCTYPE svg PUBLIC "-//W3C//DTD SVG 1.1//EN" "http://www.w3.org/Graphics/SVG/1.1/DTD/svg11.dtd">
<svg xmlns="http://www.w3.org/2000/svg" version="1.1" width="79.4px" height="14.9px" viewBox="0 -1 79.4 14.9" style="top:-1px">
  <desc>Julia Halili</desc>
  <defs/>
  <g id="Polygon31820">
    <path d="M 42.1 7 C 42.07 7.03 43.1 2.2 43.1 2.2 L 42.2 2.2 C 42.2 2.2 41.31 6.59 41.3 6.6 C 41.3 6.8 41.2 6.9 41.2 7.1 C 41.1 7.3 41.1 7.4 41 7.6 C 40.9 7.7 40.8 7.8 40.6 7.9 C 40.5 8 40.3 8 40.1 8 C 39.8 8 39.6 8 39.4 7.8 C 39.2 7.7 39.1 7.5 39.1 7.2 C 39.1 7.1 39.2 6.9 39.2 6.8 C 39.2 6.7 39.2 6.6 39.2 6.5 C 39.2 6.5 38.4 6.5 38.4 6.5 C 38.3 6.7 38.3 6.8 38.3 7 C 38.3 7.2 38.3 7.3 38.3 7.4 C 38.3 7.6 38.3 7.8 38.4 8 C 38.5 8.2 38.6 8.3 38.8 8.4 C 38.9 8.5 39.1 8.6 39.4 8.7 C 39.6 8.7 39.8 8.8 40.1 8.8 C 40.4 8.8 40.7 8.7 40.9 8.6 C 41.1 8.6 41.3 8.5 41.5 8.3 C 41.6 8.2 41.7 8 41.8 7.8 C 41.9 7.6 42 7.3 42.1 7 Z M 46.8 8.6 L 47.8 4 L 47 4 C 47 4 46.5 6.53 46.5 6.5 C 46.5 6.7 46.4 6.9 46.3 7.1 C 46.2 7.3 46.1 7.4 45.9 7.6 C 45.8 7.7 45.6 7.8 45.4 7.9 C 45.3 8 45.1 8 44.8 8 C 44.6 8 44.4 8 44.3 7.9 C 44.1 7.8 44 7.6 44 7.4 C 44 7.4 44 7.3 44 7.2 C 44 7.2 44 7.1 44.1 7 C 44.1 7 44.1 6.9 44.1 6.8 C 44.1 6.8 44.1 6.7 44.1 6.7 C 44.13 6.68 44.7 4 44.7 4 L 44 4 C 44 4 43.4 6.61 43.4 6.6 C 43.4 6.8 43.3 7 43.3 7.1 C 43.3 7.3 43.3 7.4 43.3 7.5 C 43.3 7.9 43.4 8.2 43.6 8.4 C 43.8 8.6 44.1 8.7 44.6 8.7 C 44.9 8.7 45.2 8.6 45.5 8.5 C 45.8 8.4 46 8.2 46.2 7.9 C 46.21 7.91 46.2 7.9 46.2 7.9 L 46.1 8.6 L 46.8 8.6 Z M 49.5 2.2 L 48.2 8.6 L 48.9 8.6 L 50.3 2.2 L 49.5 2.2 Z M 52.2 3.1 L 52.4 2.2 L 51.6 2.2 L 51.4 3.1 L 52.2 3.1 Z M 51.2 4 L 50.3 8.6 L 51 8.6 L 52 4 L 51.2 4 Z M 52.9 5.4 C 52.9 5.4 53.6 5.4 53.6 5.4 C 53.7 5.2 53.7 5.1 53.8 5 C 53.9 4.9 54 4.8 54.1 4.7 C 54.2 4.7 54.3 4.6 54.5 4.6 C 54.6 4.5 54.7 4.5 54.9 4.5 C 55 4.5 55.1 4.5 55.2 4.6 C 55.3 4.6 55.4 4.6 55.5 4.6 C 55.6 4.7 55.7 4.8 55.7 4.8 C 55.8 4.9 55.8 5 55.8 5.1 C 55.8 5.3 55.8 5.4 55.8 5.5 C 55.7 5.6 55.6 5.7 55.5 5.7 C 55.4 5.8 55.3 5.8 55.2 5.8 C 55 5.8 54.9 5.9 54.7 5.9 C 54.4 5.9 54.1 5.9 53.9 6 C 53.6 6 53.3 6.1 53.1 6.2 C 52.9 6.3 52.7 6.4 52.5 6.6 C 52.4 6.8 52.3 7.1 52.3 7.4 C 52.3 7.6 52.4 7.8 52.4 8 C 52.5 8.2 52.6 8.3 52.7 8.4 C 52.9 8.5 53 8.6 53.2 8.6 C 53.3 8.7 53.5 8.7 53.7 8.7 C 54.1 8.7 54.4 8.7 54.7 8.5 C 54.9 8.4 55.1 8.3 55.3 8 C 55.3 8 55.3 8.1 55.3 8.1 C 55.3 8.3 55.3 8.4 55.4 8.5 C 55.5 8.7 55.7 8.7 55.9 8.7 C 56 8.7 56.1 8.7 56.1 8.7 C 56.2 8.7 56.3 8.6 56.4 8.6 C 56.4 8.6 56.5 8 56.5 8 C 56.5 8.1 56.4 8.1 56.4 8.1 C 56.3 8.1 56.3 8.1 56.2 8.1 C 56.2 8.1 56.1 8.1 56.1 8 C 56 8 56 7.9 56 7.8 C 56 7.7 56 7.6 56.1 7.5 C 56.1 7.4 56.1 7.3 56.1 7.2 C 56.1 7.2 56.4 5.9 56.4 5.9 C 56.5 5.8 56.5 5.6 56.5 5.5 C 56.6 5.3 56.6 5.2 56.6 5 C 56.6 4.8 56.5 4.6 56.4 4.5 C 56.4 4.3 56.2 4.2 56.1 4.1 C 55.9 4 55.7 3.9 55.5 3.9 C 55.3 3.9 55.1 3.9 54.9 3.9 C 54.6 3.9 54.4 3.9 54.2 3.9 C 53.9 4 53.7 4.1 53.6 4.2 C 53.4 4.3 53.2 4.5 53.1 4.7 C 53 4.9 52.9 5.1 52.9 5.4 Z M 53.1 7.4 C 53.1 7.2 53.1 7 53.2 6.9 C 53.3 6.8 53.4 6.7 53.6 6.7 C 53.7 6.6 53.9 6.6 54.1 6.5 C 54.3 6.5 54.5 6.5 54.7 6.5 C 54.8 6.5 55 6.4 55.2 6.4 C 55.4 6.4 55.5 6.3 55.6 6.2 C 55.6 6.2 55.6 6.2 55.6 6.2 C 55.6 6.5 55.5 6.7 55.5 6.9 C 55.4 7.1 55.3 7.3 55.2 7.4 C 54.9 7.8 54.5 8 53.9 8 C 53.7 8 53.5 8 53.3 7.9 C 53.2 7.8 53.1 7.6 53.1 7.4 Z M 61.2 2.2 L 59.8 8.6 L 60.7 8.6 L 61.3 5.7 L 64.7 5.7 L 64 8.6 L 64.9 8.6 L 66.2 2.2 L 65.4 2.2 L 64.8 4.9 L 61.4 4.9 L 62 2.2 L 61.2 2.2 Z M 66.8 5.4 C 66.8 5.4 67.6 5.4 67.6 5.4 C 67.6 5.2 67.7 5.1 67.7 5 C 67.8 4.9 67.9 4.8 68 4.7 C 68.1 4.7 68.3 4.6 68.4 4.6 C 68.5 4.5 68.7 4.5 68.8 4.5 C 68.9 4.5 69 4.5 69.1 4.6 C 69.3 4.6 69.4 4.6 69.5 4.6 C 69.5 4.7 69.6 4.8 69.7 4.8 C 69.7 4.9 69.8 5 69.8 5.1 C 69.8 5.3 69.7 5.4 69.7 5.5 C 69.7 5.6 69.6 5.7 69.5 5.7 C 69.4 5.8 69.3 5.8 69.1 5.8 C 69 5.8 68.8 5.9 68.6 5.9 C 68.3 5.9 68.1 5.9 67.8 6 C 67.5 6 67.3 6.1 67 6.2 C 66.8 6.3 66.6 6.4 66.5 6.6 C 66.3 6.8 66.3 7.1 66.3 7.4 C 66.3 7.6 66.3 7.8 66.4 8 C 66.4 8.2 66.5 8.3 66.7 8.4 C 66.8 8.5 66.9 8.6 67.1 8.6 C 67.3 8.7 67.5 8.7 67.7 8.7 C 68.1 8.7 68.4 8.7 68.6 8.5 C 68.9 8.4 69.1 8.3 69.2 8 C 69.2 8 69.2 8.1 69.2 8.1 C 69.2 8.3 69.3 8.4 69.4 8.5 C 69.5 8.7 69.6 8.7 69.8 8.7 C 69.9 8.7 70 8.7 70.1 8.7 C 70.2 8.7 70.3 8.6 70.3 8.6 C 70.3 8.6 70.4 8 70.4 8 C 70.4 8.1 70.4 8.1 70.3 8.1 C 70.3 8.1 70.2 8.1 70.2 8.1 C 70.1 8.1 70.1 8.1 70 8 C 70 8 70 7.9 70 7.8 C 70 7.7 70 7.6 70 7.5 C 70 7.4 70.1 7.3 70.1 7.2 C 70.1 7.2 70.4 5.9 70.4 5.9 C 70.4 5.8 70.4 5.6 70.5 5.5 C 70.5 5.3 70.5 5.2 70.5 5 C 70.5 4.8 70.5 4.6 70.4 4.5 C 70.3 4.3 70.2 4.2 70 4.1 C 69.9 4 69.7 3.9 69.5 3.9 C 69.3 3.9 69.1 3.9 68.8 3.9 C 68.6 3.9 68.3 3.9 68.1 3.9 C 67.9 4 67.7 4.1 67.5 4.2 C 67.3 4.3 67.2 4.5 67.1 4.7 C 66.9 4.9 66.8 5.1 66.8 5.4 Z M 67 7.4 C 67 7.2 67.1 7 67.2 6.9 C 67.3 6.8 67.4 6.7 67.5 6.7 C 67.7 6.6 67.9 6.6 68 6.5 C 68.2 6.5 68.4 6.5 68.6 6.5 C 68.8 6.5 69 6.4 69.1 6.4 C 69.3 6.4 69.4 6.3 69.5 6.2 C 69.5 6.2 69.6 6.2 69.6 6.2 C 69.5 6.5 69.5 6.7 69.4 6.9 C 69.4 7.1 69.3 7.3 69.2 7.4 C 68.9 7.8 68.5 8 67.8 8 C 67.6 8 67.4 8 67.3 7.9 C 67.1 7.8 67 7.6 67 7.4 Z M 72.4 2.2 L 71.1 8.6 L 71.8 8.6 L 73.2 2.2 L 72.4 2.2 Z M 75.1 3.1 L 75.3 2.2 L 74.5 2.2 L 74.3 3.1 L 75.1 3.1 Z M 74.1 4 L 73.1 8.6 L 73.9 8.6 L 74.9 4 L 74.1 4 Z M 76.6 2.2 L 75.2 8.6 L 76 8.6 L 77.3 2.2 L 76.6 2.2 Z M 79.2 3.1 L 79.4 2.2 L 78.7 2.2 L 78.5 3.1 L 79.2 3.1 Z M 78.3 4 L 77.3 8.6 L 78.1 8.6 L 79.1 4 L 78.3 4 Z " stroke="none" fill="#000"/>
  </g>
</svg>