<?xml version="1.0" standalone="no"?>
<!DOCTYPE svg PUBLIC "-//W3C//DTD SVG 1.1//EN" "http://www.w3.org/Graphics/SVG/1.1/DTD/svg11.dtd">
<svg xmlns="http://www.w3.org/2000/svg" version="1.1" width="470px" height="127px" viewBox="0 -13 470 127" style="top:-13px">
  <desc>Isang taong integrasyon ng Mobile Legends sa GESPORT at GETEAMS, inusisa</desc>
  <defs/>
  <g id="Polygon36673">
    <path d="M 4.5 83 C 7.1 82.2 10.2 81.4 11 80.6 C 11 80.6 11 79.3 11 79.3 C 11 76.7 9.5 76.1 8.3 76.1 C 7 76.1 5.7 76.8 5 79.2 C 4.8 79.7 4.6 80.1 3.9 80.1 C 3.3 80.1 2.1 79.6 2.1 78.6 C 2.1 76.8 5 74.9 8.6 74.9 C 13.4 74.9 13.9 77.3 13.9 79.2 C 13.9 79.2 13.9 86.9 13.9 86.9 C 13.9 89 14.4 89.6 15 89.7 C 15.5 89.8 16.2 89.8 16.6 89.7 C 16.6 89.7 16.8 90.4 16.8 90.4 C 15.6 91 14.2 91.4 13 91.4 C 11.9 91.4 11.4 90.6 10.9 89.5 C 9.9 90.1 8 91.4 6.2 91.4 C 3.2 91.4 1.6 89.2 1.6 86.8 C 1.6 85.3 2.2 83.7 4.5 83 Z M 7.7 89.7 C 9 89.7 11 89 11 86.4 C 11 86.4 11 81.9 11 81.9 C 10.3 82.4 8.6 83 7.3 83.4 C 5.5 84.1 4.8 84.9 4.8 86.4 C 4.8 88.3 5.8 89.7 7.7 89.7 Z M 17.1 75.3 L 19.5 75.3 L 21.5 71.3 L 22.4 71.3 L 22.4 75.3 L 26.5 75.3 L 26.5 76.6 L 22.4 76.6 C 22.4 76.6 22.4 86.52 22.4 86.5 C 22.4 89 23.4 89.7 24.5 89.7 C 25.3 89.7 26 89.6 26.8 89.3 C 26.8 89.3 27 90 27 90 C 26.1 90.6 24.6 91.4 22.9 91.4 C 21.8 91.4 19.4 91 19.4 87.7 C 19.39 87.74 19.4 76.6 19.4 76.6 L 17.1 76.6 L 17.1 75.3 Z M 37 72.3 C 38.8 69.9 42 68.4 46.8 68.4 C 49.3 68.4 52.1 68.9 53.7 69.7 C 53.66 69.69 53.7 74.7 53.7 74.7 C 53.7 74.7 52.7 74.71 52.7 74.7 C 52 71.1 50 69.5 46.5 69.5 C 40.2 69.5 38.1 74.8 38.1 79.8 C 38.1 83.8 39.5 90.4 46.9 90.4 C 48 90.4 48.9 90.2 49.7 89.9 C 50.4 89.6 50.8 89.3 50.8 88.2 C 50.8 88.2 50.8 83.8 50.8 83.8 C 50.8 82.3 50.6 82.1 47.4 81.8 C 47.39 81.85 47.4 80.9 47.4 80.9 L 56.2 80.9 C 56.2 80.9 56.22 81.85 56.2 81.8 C 54.1 82.1 54 82.2 54 83.8 C 54 83.8 54 90.1 54 90.1 C 51.9 90.8 48.8 91.5 46.6 91.5 C 43.8 91.5 41 91.1 38.5 89.4 C 36.2 87.8 34.6 84.5 34.6 80.3 C 34.6 77 35.3 74.5 37 72.3 Z M 57 90.1 C 59.8 89.9 59.9 89.8 59.9 88 C 59.9 88 59.9 71.8 59.9 71.8 C 59.9 70 59.8 70 57 69.8 C 56.99 69.78 57 68.9 57 68.9 L 73.2 68.9 L 73.2 74.1 C 73.2 74.1 72.19 74.1 72.2 74.1 C 71.7 70.8 71 70 67.4 70 C 67.4 70 64.2 70 64.2 70 C 63.2 70 63 70.1 63 71.1 C 63.04 71.13 63 78.9 63 78.9 C 63 78.9 67.52 78.87 67.5 78.9 C 70.2 78.9 70.4 78.1 70.7 76.1 C 70.66 76.12 71.6 76.1 71.6 76.1 L 71.6 82.9 C 71.6 82.9 70.66 82.87 70.7 82.9 C 70.4 80.9 70.2 80.1 67.5 80.1 C 67.52 80.09 63 80.1 63 80.1 C 63 80.1 63.04 87.16 63 87.2 C 63 88.7 63.2 89.3 63.8 89.6 C 64.5 89.8 65.7 89.9 67.2 89.9 C 71.2 89.9 72.6 89.4 73.4 85.5 C 73.38 85.46 74.3 85.5 74.3 85.5 L 74 91 L 57 91 C 57 91 56.99 90.07 57 90.1 Z M 75.3 68.9 L 93.8 68.9 L 93.8 74.2 C 93.8 74.2 92.83 74.17 92.8 74.2 C 92.4 70.7 91.8 70 88 70 C 88.03 69.98 86.1 70 86.1 70 C 86.1 70 86.14 88.02 86.1 88 C 86.1 89.8 86.2 89.9 89.7 90.1 C 89.66 90.07 89.7 91 89.7 91 L 79.5 91 C 79.5 91 79.45 90.07 79.5 90.1 C 82.9 89.9 83 89.8 83 88 C 82.97 88.02 83 70 83 70 C 83 70 81.09 69.98 81.1 70 C 77.3 70 76.7 70.7 76.3 74.2 C 76.29 74.17 75.3 74.2 75.3 74.2 L 75.3 68.9 Z M 95 90.1 C 97.8 89.9 97.9 89.8 97.9 88 C 97.9 88 97.9 71.8 97.9 71.8 C 97.9 70 97.8 70 95 69.8 C 94.97 69.78 95 68.9 95 68.9 L 111.1 68.9 L 111.1 74.1 C 111.1 74.1 110.17 74.1 110.2 74.1 C 109.7 70.8 109 70 105.3 70 C 105.3 70 102.2 70 102.2 70 C 101.2 70 101 70.1 101 71.1 C 101.02 71.13 101 78.9 101 78.9 C 101 78.9 105.5 78.87 105.5 78.9 C 108.2 78.9 108.4 78.1 108.6 76.1 C 108.64 76.12 109.6 76.1 109.6 76.1 L 109.6 82.9 C 109.6 82.9 108.64 82.87 108.6 82.9 C 108.4 80.9 108.2 80.1 105.5 80.1 C 105.5 80.09 101 80.1 101 80.1 C 101 80.1 101.02 87.16 101 87.2 C 101 88.7 101.2 89.3 101.8 89.6 C 102.5 89.8 103.6 89.9 105.2 89.9 C 109.2 89.9 110.6 89.4 111.4 85.5 C 111.36 85.46 112.3 85.5 112.3 85.5 L 111.9 91 L 95 91 C 95 91 94.97 90.07 95 90.1 Z M 111.7 90.1 C 113.7 90 114 89.6 114.7 87.9 C 115.8 85 117.1 81.1 118.1 78.3 C 118.11 78.33 121.5 68.9 121.5 68.9 L 123.8 68.9 C 123.8 68.9 130.62 88.15 130.6 88.2 C 131.2 89.8 131.5 89.9 133.4 90.1 C 133.41 90.07 133.4 91 133.4 91 L 125.2 91 L 125.2 90.1 C 125.2 90.1 126.65 89.94 126.7 89.9 C 127.7 89.8 127.8 89.5 127.5 88.6 C 127.52 88.57 125.4 82.5 125.4 82.5 C 125.4 82.5 118.21 82.46 118.2 82.5 C 117.5 84.7 116.8 86.7 116.3 88.6 C 116 89.5 116.1 89.8 117.1 89.9 C 117.05 89.91 118.7 90.1 118.7 90.1 L 118.7 91 L 111.7 91 C 111.7 91 111.68 90.07 111.7 90.1 Z M 125 81.2 L 121.8 72.1 C 121.8 72.1 121.73 72.09 121.7 72.1 C 120.8 74.9 119.6 78 118.6 81.2 C 118.62 81.24 125 81.2 125 81.2 Z M 133.4 90.1 C 135 89.9 135.8 89.8 136 88.5 C 136.2 87.4 136.2 86.2 136.2 84.5 C 136.2 84.5 136.2 71.8 136.2 71.8 C 136.2 70 136.2 70 133.3 69.8 C 133.34 69.78 133.3 68.9 133.3 68.9 C 133.3 68.9 139.84 68.86 139.8 68.9 C 141 71.7 142.3 74.5 143.6 77.4 C 143.58 77.37 147.4 85.9 147.4 85.9 L 147.4 85.9 C 147.4 85.9 151.26 77.34 151.3 77.3 C 152.5 74.5 153.9 71.7 154.9 68.9 C 154.94 68.86 161.4 68.9 161.4 68.9 C 161.4 68.9 161.37 69.78 161.4 69.8 C 158.6 70 158.5 70 158.5 71.8 C 158.5 71.8 158.5 88 158.5 88 C 158.5 89.8 158.6 89.9 161.4 90.1 C 161.37 90.07 161.4 91 161.4 91 L 152.4 91 C 152.4 91 152.45 90.07 152.4 90.1 C 155.3 89.9 155.3 89.8 155.3 88 C 155.33 88.02 155.3 71.8 155.3 71.8 L 155.2 71.8 L 146.9 90.6 L 146 90.6 L 137.8 71.8 L 137.7 71.8 C 137.7 71.8 137.69 84.5 137.7 84.5 C 137.7 86.2 137.8 87.4 137.9 88.5 C 138.1 89.8 138.9 89.9 141 90.1 C 140.96 90.07 141 91 141 91 L 133.4 91 C 133.4 91 133.37 90.07 133.4 90.1 Z M 164.5 84.4 C 165.3 88 167.3 90.4 170.3 90.4 C 173.1 90.4 174.9 88.7 174.9 85.9 C 174.9 83.1 171.8 81.6 170.4 81.1 C 170.4 81.1 169.9 80.9 169.9 80.9 C 166.5 79.7 163.8 77.9 163.8 74.6 C 163.8 70.3 167.3 68.4 171.2 68.4 C 173.3 68.4 175.5 68.9 176.6 69.8 C 176.61 69.78 176.6 74.3 176.6 74.3 C 176.6 74.3 175.61 74.3 175.6 74.3 C 175.1 71.1 173.6 69.5 170.8 69.5 C 168.1 69.5 166.7 71.2 166.7 73.6 C 166.7 75.5 168.5 76.9 170.7 77.7 C 170.7 77.7 171.7 78 171.7 78 C 175.4 79.4 178 81.2 178 85 C 178 88.2 175.7 91.5 170.1 91.5 C 167.8 91.5 165.2 90.9 163.8 89.6 C 163.77 89.56 163.5 84.4 163.5 84.4 C 163.5 84.4 164.48 84.44 164.5 84.4 Z M 182 91.2 C 182 89.8 181 89.2 181 88.1 C 181 87.3 181.5 86.5 182.5 86.5 C 183.7 86.5 184.7 87.7 184.7 89.4 C 184.7 91.9 182.4 94 180.8 95.5 C 180.8 95.5 180.2 94.9 180.2 94.9 C 181.2 93.8 182 92.5 182 91.2 Z M 197.8 68.1 C 199 68.1 199.8 68.9 199.8 70.1 C 199.8 71.2 199 72 197.8 72 C 196.7 72 195.9 71.2 195.9 70.1 C 195.9 68.9 196.7 68.1 197.8 68.1 Z M 193.9 90.1 C 196.3 89.9 196.3 89.8 196.3 88.2 C 196.3 88.2 196.3 78.1 196.3 78.1 C 196.3 77 196.2 76.8 195.3 76.7 C 195.32 76.7 194.1 76.5 194.1 76.5 L 194.1 75.7 L 199.1 74.9 L 199.4 75.1 C 199.4 75.1 199.36 88.22 199.4 88.2 C 199.4 89.8 199.5 89.9 201.8 90.1 C 201.76 90.07 201.8 91 201.8 91 L 193.9 91 C 193.9 91 193.95 90.07 193.9 90.1 Z M 202.6 90.1 C 204.9 89.9 205 89.8 205 88.2 C 205 88.2 205 78.1 205 78.1 C 205 77 204.8 76.8 204 76.7 C 204 76.7 202.8 76.5 202.8 76.5 L 202.8 75.7 L 207.5 74.9 C 207.5 74.9 208 77.37 208 77.4 C 210 76.1 211.5 74.9 213.8 74.9 C 216.8 74.9 218.5 76.8 218.5 80 C 218.5 80 218.5 88.2 218.5 88.2 C 218.5 89.8 218.7 89.9 220.9 90.1 C 220.92 90.07 220.9 91 220.9 91 L 213.1 91 C 213.1 91 213.12 90.07 213.1 90.1 C 215.4 89.9 215.5 89.8 215.5 88.2 C 215.5 88.2 215.5 80.7 215.5 80.7 C 215.5 77.9 214.3 76.7 212.2 76.7 C 210.5 76.7 209 77.7 208.3 79 C 208.1 79.5 208 79.9 208 80.7 C 208 80.7 208 88.2 208 88.2 C 208 89.8 208.2 89.9 210.4 90.1 C 210.43 90.07 210.4 91 210.4 91 L 202.6 91 C 202.6 91 202.62 90.07 202.6 90.1 Z M 221.6 75.7 L 226.6 74.9 L 226.8 75.1 C 226.8 75.1 226.84 86.01 226.8 86 C 226.8 88.5 228.2 89.7 230.1 89.7 C 231.7 89.7 233.3 88.7 234 87.3 C 234.2 86.9 234.3 86.2 234.3 85.3 C 234.3 85.3 234.3 78.1 234.3 78.1 C 234.3 77 234.1 76.8 233.2 76.7 C 233.24 76.7 232 76.5 232 76.5 L 232 75.7 L 237.1 74.9 L 237.3 75.1 C 237.3 75.1 237.28 88.22 237.3 88.2 C 237.3 89.8 237.5 89.9 239.7 90.1 C 239.68 90.07 239.7 91 239.7 91 L 234.6 91 C 234.6 91 234.24 89.08 234.2 89.1 C 233.3 89.5 231.1 91.4 228.4 91.4 C 226 91.4 223.8 90.3 223.8 86.6 C 223.8 86.6 223.8 78.1 223.8 78.1 C 223.8 77 223.6 76.8 222.8 76.7 C 222.81 76.7 221.6 76.5 221.6 76.5 L 221.6 75.7 Z M 241.9 85.7 C 242.6 88.4 244 90.3 246.6 90.3 C 248.3 90.3 249.6 89.2 249.6 87.6 C 249.6 85.4 247.6 84.7 246.1 84.2 C 243.5 83.4 241.3 82.3 241.3 79.6 C 241.3 76.6 243.7 74.9 247.1 74.9 C 248.6 74.9 250.2 75.3 251.3 76 C 251.26 76.02 251.3 79.8 251.3 79.8 C 251.3 79.8 250.33 79.77 250.3 79.8 C 250.1 77.8 249 76.1 246.7 76.1 C 245.1 76.1 243.9 77 243.9 78.6 C 243.9 80.4 246 81.1 247.3 81.5 C 250.6 82.6 252.3 83.8 252.3 86.6 C 252.3 89.4 250.1 91.4 246.3 91.4 C 244.4 91.4 242.5 90.9 241.3 89.8 C 241.34 89.85 241 85.7 241 85.7 C 241 85.7 241.95 85.66 241.9 85.7 Z M 257.7 68.1 C 258.9 68.1 259.7 68.9 259.7 70.1 C 259.7 71.2 258.9 72 257.7 72 C 256.6 72 255.8 71.2 255.8 70.1 C 255.8 68.9 256.6 68.1 257.7 68.1 Z M 253.9 90.1 C 256.2 89.9 256.3 89.8 256.3 88.2 C 256.3 88.2 256.3 78.1 256.3 78.1 C 256.3 77 256.1 76.8 255.2 76.7 C 255.23 76.7 254 76.5 254 76.5 L 254 75.7 L 259 74.9 L 259.3 75.1 C 259.3 75.1 259.26 88.22 259.3 88.2 C 259.3 89.8 259.4 89.9 261.7 90.1 C 261.66 90.07 261.7 91 261.7 91 L 253.9 91 C 253.9 91 253.85 90.07 253.9 90.1 Z M 263.9 85.7 C 264.6 88.4 266 90.3 268.6 90.3 C 270.3 90.3 271.6 89.2 271.6 87.6 C 271.6 85.4 269.6 84.7 268.1 84.2 C 265.5 83.4 263.3 82.3 263.3 79.6 C 263.3 76.6 265.7 74.9 269.1 74.9 C 270.6 74.9 272.2 75.3 273.2 76 C 273.24 76.02 273.2 79.8 273.2 79.8 C 273.2 79.8 272.31 79.77 272.3 79.8 C 272.1 77.8 271 76.1 268.7 76.1 C 267.1 76.1 265.9 77 265.9 78.6 C 265.9 80.4 268 81.1 269.3 81.5 C 272.6 82.6 274.3 83.8 274.3 86.6 C 274.3 89.4 272.1 91.4 268.3 91.4 C 266.4 91.4 264.5 90.9 263.3 89.8 C 263.32 89.85 263 85.7 263 85.7 C 263 85.7 263.93 85.66 263.9 85.7 Z M 279.4 83 C 281.9 82.2 285 81.4 285.8 80.6 C 285.8 80.6 285.8 79.3 285.8 79.3 C 285.8 76.7 284.3 76.1 283.1 76.1 C 281.8 76.1 280.5 76.8 279.8 79.2 C 279.6 79.7 279.4 80.1 278.7 80.1 C 278.1 80.1 277 79.6 277 78.6 C 277 76.8 279.8 74.9 283.4 74.9 C 288.3 74.9 288.7 77.3 288.7 79.2 C 288.7 79.2 288.7 86.9 288.7 86.9 C 288.7 89 289.2 89.6 289.8 89.7 C 290.3 89.8 291 89.8 291.4 89.7 C 291.4 89.7 291.6 90.4 291.6 90.4 C 290.4 91 289 91.4 287.8 91.4 C 286.7 91.4 286.2 90.6 285.8 89.5 C 284.7 90.1 282.8 91.4 281 91.4 C 278 91.4 276.4 89.2 276.4 86.8 C 276.4 85.3 277.1 83.7 279.4 83 Z M 282.6 89.7 C 283.8 89.7 285.8 89 285.8 86.4 C 285.8 86.4 285.8 81.9 285.8 81.9 C 285.1 82.4 283.4 83 282.1 83.4 C 280.3 84.1 279.6 84.9 279.6 86.4 C 279.6 88.3 280.6 89.7 282.6 89.7 Z " stroke="none" fill="#000"/>
  </g>
  <g id="Polygon36672">
    <path d="M 1.1 56.6 C 2.8 56.4 3.5 56.3 3.7 55 C 3.9 53.9 3.9 52.7 3.9 51 C 3.9 51 3.9 38.3 3.9 38.3 C 3.9 36.5 3.9 36.5 1.1 36.3 C 1.06 36.28 1.1 35.4 1.1 35.4 C 1.1 35.4 7.55 35.36 7.6 35.4 C 8.7 38.2 10 41 11.3 43.9 C 11.3 43.87 15.1 52.4 15.1 52.4 L 15.1 52.4 C 15.1 52.4 18.98 43.84 19 43.8 C 20.3 41 21.6 38.2 22.7 35.4 C 22.66 35.36 29.1 35.4 29.1 35.4 C 29.1 35.4 29.09 36.28 29.1 36.3 C 26.3 36.5 26.2 36.5 26.2 38.3 C 26.2 38.3 26.2 54.5 26.2 54.5 C 26.2 56.3 26.3 56.4 29.1 56.6 C 29.09 56.57 29.1 57.5 29.1 57.5 L 20.2 57.5 C 20.2 57.5 20.16 56.57 20.2 56.6 C 23 56.4 23 56.3 23 54.5 C 23.04 54.52 23 38.3 23 38.3 L 22.9 38.3 L 14.6 57.1 L 13.7 57.1 L 5.5 38.3 L 5.4 38.3 C 5.4 38.3 5.41 51 5.4 51 C 5.4 52.7 5.5 53.9 5.6 55 C 5.8 56.3 6.6 56.4 8.7 56.6 C 8.67 56.57 8.7 57.5 8.7 57.5 L 1.1 57.5 C 1.1 57.5 1.09 56.57 1.1 56.6 Z M 37.9 41.4 C 43 41.4 45.5 44.5 45.5 49.7 C 45.5 54.8 43 57.9 37.9 57.9 C 32.7 57.9 30.2 54.8 30.2 49.7 C 30.2 44.5 32.7 41.4 37.9 41.4 Z M 37.9 56.8 C 40.8 56.8 42.2 54.1 42.2 49.7 C 42.2 45.2 40.8 42.6 37.9 42.6 C 34.9 42.6 33.5 45.2 33.5 49.7 C 33.5 54.1 34.9 56.8 37.9 56.8 Z M 47.1 34.6 L 52.1 33.8 L 52.3 33.9 C 52.3 33.9 52.32 43.71 52.3 43.7 C 53.5 43 55.4 41.4 57.8 41.4 C 63.6 41.4 64 47.3 64 49.3 C 64 55.8 60.3 57.9 56 57.9 C 53.6 57.9 52.3 57.3 51.2 56.6 C 51.17 56.64 49.9 57.9 49.9 57.9 L 49.3 57.6 C 49.3 57.6 49.31 36.96 49.3 37 C 49.3 35.7 49.1 35.6 48.3 35.5 C 48.29 35.48 47.1 35.4 47.1 35.4 L 47.1 34.6 Z M 52.5 54.3 C 53.1 55.9 54.4 56.8 56.1 56.8 C 59.2 56.8 60.7 54.2 60.7 49.5 C 60.7 43.9 57.9 43.2 56.5 43.2 C 54.8 43.2 53.4 43.9 52.6 45.4 C 52.4 45.9 52.3 46.4 52.3 47.2 C 52.3 47.2 52.3 52.3 52.3 52.3 C 52.3 53.1 52.4 53.7 52.5 54.3 Z M 69.8 34.6 C 71 34.6 71.8 35.4 71.8 36.6 C 71.8 37.7 71 38.5 69.8 38.5 C 68.7 38.5 67.9 37.7 67.9 36.6 C 67.9 35.4 68.7 34.6 69.8 34.6 Z M 66 56.6 C 68.3 56.4 68.4 56.3 68.4 54.7 C 68.4 54.7 68.4 44.6 68.4 44.6 C 68.4 43.5 68.2 43.3 67.3 43.2 C 67.33 43.2 66.1 43 66.1 43 L 66.1 42.2 L 71.1 41.4 L 71.4 41.6 C 71.4 41.6 71.36 54.72 71.4 54.7 C 71.4 56.3 71.5 56.4 73.8 56.6 C 73.76 56.57 73.8 57.5 73.8 57.5 L 66 57.5 C 66 57.5 65.95 56.57 66 56.6 Z M 74.2 56.6 C 76.5 56.4 76.6 56.3 76.6 54.7 C 76.6 54.7 76.6 37 76.6 37 C 76.6 35.7 76.4 35.6 75.6 35.5 C 75.61 35.48 74.4 35.4 74.4 35.4 L 74.4 34.6 L 79.4 33.8 L 79.6 33.9 C 79.6 33.9 79.65 54.72 79.6 54.7 C 79.6 56.3 79.8 56.4 82 56.6 C 82.05 56.57 82 57.5 82 57.5 L 74.2 57.5 C 74.2 57.5 74.24 56.57 74.2 56.6 Z M 90.8 41.4 C 96.7 41.4 97.3 46 97.3 47.9 C 97.3 48.9 96.7 49.1 96 49.1 C 96 49.1 86.8 49.1 86.8 49.1 C 86.7 52.4 87.5 56.3 91.5 56.3 C 94 56.3 95.2 54.7 96.1 52.9 C 96.1 52.9 97.1 53.4 97.1 53.4 C 96.2 55.9 94.4 57.9 90.8 57.9 C 85.6 57.9 83.5 54.8 83.5 49.8 C 83.5 45 85.8 41.4 90.8 41.4 Z M 92.9 47.9 C 93.8 47.9 94 47.5 94 46.8 C 94 45.6 93.6 42.6 90.6 42.6 C 87.3 42.6 86.8 46.6 86.8 47.9 C 86.8 47.9 92.9 47.9 92.9 47.9 Z M 105.4 56.6 C 108.2 56.4 108.3 56.3 108.3 54.5 C 108.3 54.5 108.3 38.3 108.3 38.3 C 108.3 36.5 108.2 36.5 105.4 36.3 C 105.37 36.28 105.4 35.4 105.4 35.4 L 114.5 35.4 C 114.5 35.4 114.49 36.28 114.5 36.3 C 111.5 36.5 111.4 36.5 111.4 38.3 C 111.4 38.3 111.4 53.7 111.4 53.7 C 111.4 55.2 111.5 55.8 112.2 56.1 C 112.9 56.3 114 56.4 115.6 56.4 C 119 56.4 120.8 56 121.4 51.8 C 121.41 51.77 122.4 51.8 122.4 51.8 L 122 57.5 L 105.4 57.5 C 105.4 57.5 105.37 56.57 105.4 56.6 Z M 130.7 41.4 C 136.6 41.4 137.2 46 137.2 47.9 C 137.2 48.9 136.6 49.1 135.9 49.1 C 135.9 49.1 126.7 49.1 126.7 49.1 C 126.6 52.4 127.4 56.3 131.4 56.3 C 133.9 56.3 135.1 54.7 136 52.9 C 136 52.9 137 53.4 137 53.4 C 136.1 55.9 134.3 57.9 130.7 57.9 C 125.5 57.9 123.4 54.8 123.4 49.8 C 123.4 45 125.7 41.4 130.7 41.4 Z M 132.8 47.9 C 133.7 47.9 133.9 47.5 133.9 46.8 C 133.9 45.6 133.5 42.6 130.5 42.6 C 127.2 42.6 126.7 46.6 126.7 47.9 C 126.7 47.9 132.8 47.9 132.8 47.9 Z M 142.6 57.1 C 142.6 57.1 142.6 57 142.6 57 C 141.1 56.8 139.8 55.6 139.8 54.5 C 139.8 53.2 141 52.3 142.7 51.6 C 142.7 51.6 142.7 51.6 142.7 51.6 C 141.3 51.2 139.3 49.8 139.3 46.8 C 139.3 44.4 141 41.4 145.9 41.4 C 147.4 41.4 149.1 41.8 150 42.4 C 150.05 42.43 154.1 41.1 154.1 41.1 L 154.4 41.4 L 153.8 43.4 C 153.8 43.4 151.23 43.8 151.2 43.8 C 151.8 44.3 152.2 45.5 152.2 46.8 C 152.2 50.7 148.8 52 145.7 52 C 145.4 52 144.7 52 144.1 51.9 C 143.7 52.1 142.5 52.6 142.5 53.5 C 142.5 54.1 142.8 54.9 145.1 54.9 C 145.1 54.9 147.7 54.9 147.7 54.9 C 151.1 54.9 153.9 56.1 153.9 59.5 C 153.9 61.5 152.8 63 151.3 63.9 C 149.8 64.9 147.8 65.2 145.9 65.2 C 142.1 65.2 138.9 63.8 138.9 60.6 C 138.9 58.3 141.2 57.5 142.6 57.1 Z M 146.6 64.1 C 148.9 64.1 151.2 62.9 151.2 60.3 C 151.2 57.9 149.1 57.3 146.3 57.3 C 144.7 57.3 143.7 57.5 143 58 C 142.3 58.5 142 59.3 142 60.4 C 142 62.7 143.9 64.1 146.6 64.1 Z M 145.9 50.9 C 147.7 50.9 149.1 49.5 149.1 46.8 C 149.1 43.7 147.5 42.6 145.9 42.6 C 144.2 42.6 142.6 43.6 142.6 46.8 C 142.6 49.5 144.1 50.9 145.9 50.9 Z M 162.5 41.4 C 168.4 41.4 169 46 169 47.9 C 169 48.9 168.4 49.1 167.7 49.1 C 167.7 49.1 158.5 49.1 158.5 49.1 C 158.4 52.4 159.2 56.3 163.2 56.3 C 165.7 56.3 166.9 54.7 167.8 52.9 C 167.8 52.9 168.8 53.4 168.8 53.4 C 167.9 55.9 166.1 57.9 162.6 57.9 C 157.3 57.9 155.2 54.8 155.2 49.8 C 155.2 45 157.5 41.4 162.5 41.4 Z M 164.6 47.9 C 165.5 47.9 165.7 47.5 165.7 46.8 C 165.7 45.6 165.3 42.6 162.3 42.6 C 159 42.6 158.5 46.6 158.5 47.9 C 158.5 47.9 164.6 47.9 164.6 47.9 Z M 170.4 56.6 C 172.7 56.4 172.8 56.3 172.8 54.7 C 172.8 54.7 172.8 44.6 172.8 44.6 C 172.8 43.5 172.6 43.3 171.8 43.2 C 171.8 43.2 170.6 43 170.6 43 L 170.6 42.2 L 175.4 41.4 C 175.4 41.4 175.8 43.87 175.8 43.9 C 177.8 42.6 179.3 41.4 181.6 41.4 C 184.6 41.4 186.3 43.3 186.3 46.5 C 186.3 46.5 186.3 54.7 186.3 54.7 C 186.3 56.3 186.5 56.4 188.7 56.6 C 188.73 56.57 188.7 57.5 188.7 57.5 L 180.9 57.5 C 180.9 57.5 180.92 56.57 180.9 56.6 C 183.2 56.4 183.3 56.3 183.3 54.7 C 183.3 54.7 183.3 47.2 183.3 47.2 C 183.3 44.4 182.1 43.2 180 43.2 C 178.3 43.2 176.8 44.2 176.2 45.5 C 175.9 46 175.8 46.4 175.8 47.2 C 175.8 47.2 175.8 54.7 175.8 54.7 C 175.8 56.3 176 56.4 178.2 56.6 C 178.24 56.57 178.2 57.5 178.2 57.5 L 170.4 57.5 C 170.4 57.5 170.43 56.57 170.4 56.6 Z M 192.3 43.6 C 193.7 42.3 195.6 41.4 198.3 41.4 C 199.7 41.4 200.9 41.7 201.8 42.2 C 201.8 42.2 201.8 37 201.8 37 C 201.8 35.7 201.6 35.6 200.8 35.5 C 200.8 35.48 199.6 35.4 199.6 35.4 L 199.6 34.6 L 204.6 33.8 L 204.8 33.9 C 204.8 33.9 204.83 54.72 204.8 54.7 C 204.8 56.3 205 56.4 207.2 56.6 C 207.23 56.57 207.2 57.5 207.2 57.5 L 202 57.5 L 201.8 57.3 C 201.8 57.3 201.79 55.71 201.8 55.7 C 200.1 57.1 198.6 57.9 196.8 57.9 C 192.6 57.9 190.1 54.7 190.1 50 C 190.1 47.2 191 45.1 192.3 43.6 Z M 197.9 56.2 C 199.5 56.2 201 55.5 201.6 53.9 C 201.8 53.3 201.8 52.8 201.8 52.1 C 201.8 52.1 201.8 46.4 201.8 46.4 C 201.8 45.6 201.8 45.1 201.5 44.6 C 201 43.3 199.7 42.6 198.2 42.6 C 195 42.6 193.5 45.4 193.5 49.6 C 193.5 53.3 194.9 56.2 197.9 56.2 Z M 209.5 52.2 C 210.1 54.9 211.6 56.8 214.2 56.8 C 215.9 56.8 217.1 55.7 217.1 54.1 C 217.1 51.9 215.1 51.2 213.7 50.7 C 211 49.9 208.9 48.8 208.9 46.1 C 208.9 43.1 211.2 41.4 214.7 41.4 C 216.1 41.4 217.8 41.8 218.8 42.5 C 218.81 42.52 218.8 46.3 218.8 46.3 C 218.8 46.3 217.88 46.27 217.9 46.3 C 217.7 44.3 216.6 42.6 214.3 42.6 C 212.7 42.6 211.4 43.5 211.4 45.1 C 211.4 46.9 213.5 47.6 214.8 48 C 218.1 49.1 219.9 50.3 219.9 53.1 C 219.9 55.9 217.7 57.9 213.9 57.9 C 212 57.9 210 57.4 208.9 56.3 C 208.89 56.35 208.6 52.2 208.6 52.2 C 208.6 52.2 209.5 52.16 209.5 52.2 Z M 229.4 52.2 C 230 54.9 231.5 56.8 234 56.8 C 235.7 56.8 237 55.7 237 54.1 C 237 51.9 235 51.2 233.6 50.7 C 230.9 49.9 228.7 48.8 228.7 46.1 C 228.7 43.1 231.1 41.4 234.6 41.4 C 236 41.4 237.6 41.8 238.7 42.5 C 238.68 42.52 238.7 46.3 238.7 46.3 C 238.7 46.3 237.76 46.27 237.8 46.3 C 237.5 44.3 236.4 42.6 234.2 42.6 C 232.6 42.6 231.3 43.5 231.3 45.1 C 231.3 46.9 233.4 47.6 234.7 48 C 238 49.1 239.7 50.3 239.7 53.1 C 239.7 55.9 237.6 57.9 233.8 57.9 C 231.9 57.9 229.9 57.4 228.8 56.3 C 228.76 56.35 228.4 52.2 228.4 52.2 C 228.4 52.2 229.37 52.16 229.4 52.2 Z M 244.8 49.5 C 247.3 48.7 250.4 47.9 251.2 47.1 C 251.2 47.1 251.2 45.8 251.2 45.8 C 251.2 43.2 249.8 42.6 248.5 42.6 C 247.2 42.6 245.9 43.3 245.2 45.7 C 245.1 46.2 244.9 46.6 244.2 46.6 C 243.6 46.6 242.4 46.1 242.4 45.1 C 242.4 43.3 245.2 41.4 248.9 41.4 C 253.7 41.4 254.1 43.8 254.1 45.7 C 254.1 45.7 254.1 53.4 254.1 53.4 C 254.1 55.5 254.7 56.1 255.2 56.2 C 255.7 56.3 256.4 56.3 256.9 56.2 C 256.9 56.2 257.1 56.9 257.1 56.9 C 255.8 57.5 254.5 57.9 253.3 57.9 C 252.2 57.9 251.6 57.1 251.2 56 C 250.2 56.6 248.3 57.9 246.4 57.9 C 243.4 57.9 241.8 55.7 241.8 53.3 C 241.8 51.8 242.5 50.2 244.8 49.5 Z M 248 56.2 C 249.2 56.2 251.2 55.5 251.2 52.9 C 251.2 52.9 251.2 48.4 251.2 48.4 C 250.5 48.9 248.8 49.5 247.5 49.9 C 245.8 50.6 245.1 51.4 245.1 52.9 C 245.1 54.8 246 56.2 248 56.2 Z M 266.8 38.8 C 268.7 36.4 271.9 34.9 276.7 34.9 C 279.2 34.9 282 35.4 283.5 36.2 C 283.55 36.19 283.5 41.2 283.5 41.2 C 283.5 41.2 282.59 41.21 282.6 41.2 C 281.9 37.6 279.9 36 276.3 36 C 270 36 268 41.3 268 46.3 C 268 50.3 269.4 56.9 276.8 56.9 C 277.9 56.9 278.7 56.7 279.6 56.4 C 280.3 56.1 280.7 55.8 280.7 54.7 C 280.7 54.7 280.7 50.3 280.7 50.3 C 280.7 48.8 280.5 48.6 277.3 48.3 C 277.27 48.35 277.3 47.4 277.3 47.4 L 286.1 47.4 C 286.1 47.4 286.11 48.35 286.1 48.3 C 284 48.6 283.8 48.7 283.8 50.3 C 283.8 50.3 283.8 56.6 283.8 56.6 C 281.8 57.3 278.7 58 276.5 58 C 273.7 58 270.8 57.6 268.4 55.9 C 266.1 54.3 264.4 51 264.4 46.8 C 264.4 43.5 265.2 41 266.8 38.8 Z M 286.9 56.6 C 289.7 56.4 289.8 56.3 289.8 54.5 C 289.8 54.5 289.8 38.3 289.8 38.3 C 289.8 36.5 289.7 36.5 286.9 36.3 C 286.87 36.28 286.9 35.4 286.9 35.4 L 303 35.4 L 303 40.6 C 303 40.6 302.07 40.6 302.1 40.6 C 301.6 37.3 300.9 36.5 297.2 36.5 C 297.2 36.5 294.1 36.5 294.1 36.5 C 293.1 36.5 292.9 36.6 292.9 37.6 C 292.92 37.63 292.9 45.4 292.9 45.4 C 292.9 45.4 297.4 45.37 297.4 45.4 C 300.1 45.4 300.3 44.6 300.5 42.6 C 300.54 42.62 301.5 42.6 301.5 42.6 L 301.5 49.4 C 301.5 49.4 300.54 49.37 300.5 49.4 C 300.3 47.4 300.1 46.6 297.4 46.6 C 297.4 46.59 292.9 46.6 292.9 46.6 C 292.9 46.6 292.92 53.66 292.9 53.7 C 292.9 55.2 293.1 55.8 293.7 56.1 C 294.4 56.3 295.5 56.4 297.1 56.4 C 301.1 56.4 302.5 55.9 303.3 52 C 303.26 51.96 304.2 52 304.2 52 L 303.8 57.5 L 286.9 57.5 C 286.9 57.5 286.87 56.57 286.9 56.6 Z M 307.1 50.9 C 307.9 54.5 309.9 56.9 312.9 56.9 C 315.8 56.9 317.5 55.2 317.5 52.4 C 317.5 49.6 314.5 48.1 313.1 47.6 C 313.1 47.6 312.5 47.4 312.5 47.4 C 309.1 46.2 306.5 44.4 306.5 41.1 C 306.5 36.8 309.9 34.9 313.8 34.9 C 316 34.9 318.2 35.4 319.3 36.3 C 319.26 36.28 319.3 40.8 319.3 40.8 C 319.3 40.8 318.27 40.8 318.3 40.8 C 317.8 37.6 316.2 36 313.5 36 C 310.8 36 309.4 37.7 309.4 40.1 C 309.4 42 311.2 43.4 313.3 44.2 C 313.3 44.2 314.3 44.5 314.3 44.5 C 318.1 45.9 320.6 47.7 320.6 51.5 C 320.6 54.7 318.4 58 312.7 58 C 310.5 58 307.8 57.4 306.4 56.1 C 306.43 56.06 306.1 50.9 306.1 50.9 C 306.1 50.9 307.13 50.94 307.1 50.9 Z M 322.3 56.6 C 325.1 56.4 325.2 56.3 325.2 54.5 C 325.2 54.5 325.2 38.3 325.2 38.3 C 325.2 36.5 325.1 36.5 322.3 36.3 C 322.3 36.28 322.3 35.4 322.3 35.4 C 322.3 35.4 331.23 35.36 331.2 35.4 C 333.5 35.4 335.5 35.7 337 36.6 C 338.5 37.5 339.5 39.2 339.5 41.6 C 339.5 45.6 336.7 47.4 334.3 48 C 333.1 48.3 331.6 48.4 330.2 48.4 C 330.17 48.41 328.3 48.4 328.3 48.4 C 328.3 48.4 328.35 54.52 328.3 54.5 C 328.3 56.3 328.4 56.4 331.7 56.6 C 331.74 56.57 331.7 57.5 331.7 57.5 L 322.3 57.5 C 322.3 57.5 322.3 56.57 322.3 56.6 Z M 330.7 47.3 C 333.5 47.3 336.1 45.9 336.1 41.9 C 336.1 38.4 334.1 36.5 330.8 36.5 C 328.7 36.5 328.3 36.8 328.3 37.7 C 328.3 37.7 328.3 46 328.3 46 C 328.3 47.2 328.8 47.3 330.7 47.3 Z M 344 38 C 345.8 36 348.4 34.9 351.9 34.9 C 355.4 34.9 358.1 36 359.9 38 C 361.6 39.9 362.6 42.8 362.6 46.4 C 362.6 50 361.6 53 359.9 54.9 C 358.1 56.9 355.4 58 351.9 58 C 348.4 58 345.8 56.9 344 54.9 C 342.3 53 341.3 50 341.3 46.4 C 341.3 42.8 342.3 39.9 344 38 Z M 351.9 56.9 C 357.6 56.9 359 51.1 359 46.4 C 359 41.7 357.6 36 351.9 36 C 346.2 36 344.9 41.7 344.9 46.4 C 344.9 51.1 346.2 56.9 351.9 56.9 Z M 364.6 56.6 C 367.4 56.4 367.5 56.3 367.5 54.5 C 367.5 54.5 367.5 38.3 367.5 38.3 C 367.5 36.5 367.4 36.5 364.6 36.3 C 364.6 36.28 364.6 35.4 364.6 35.4 C 364.6 35.4 373.95 35.36 373.9 35.4 C 379.5 35.4 381.5 37.8 381.5 40.8 C 381.5 43.9 379.3 45.9 376.2 46.5 C 376.2 46.5 376.2 46.5 376.2 46.5 C 379.6 47.4 380.2 49.5 380.6 52.3 C 380.9 54.5 381.4 56.3 383.9 56.6 C 383.9 56.57 383.9 57.5 383.9 57.5 C 383.9 57.5 381.31 57.5 381.3 57.5 C 379.4 57.5 378.2 56.8 377.7 54.7 C 377.4 53.3 377 50.7 376.8 49.9 C 376.2 47.7 374.8 47.1 372.9 47.1 C 372.86 47.07 370.6 47.1 370.6 47.1 C 370.6 47.1 370.65 54.52 370.6 54.5 C 370.6 55.9 370.6 55.9 370.7 56.1 C 371 56.4 371.7 56.4 373 56.6 C 373.05 56.57 373 57.5 373 57.5 L 364.6 57.5 C 364.6 57.5 364.6 56.57 364.6 56.6 Z M 373.2 45.9 C 376.3 45.9 378 44.5 378 41.1 C 378 37.3 375.4 36.5 373 36.5 C 370.9 36.5 370.6 36.7 370.6 38.1 C 370.65 38.08 370.6 45.9 370.6 45.9 C 370.6 45.9 373.18 45.95 373.2 45.9 Z M 383.1 35.4 L 401.6 35.4 L 401.6 40.7 C 401.6 40.7 400.63 40.67 400.6 40.7 C 400.2 37.2 399.6 36.5 395.8 36.5 C 395.83 36.48 393.9 36.5 393.9 36.5 C 393.9 36.5 393.95 54.52 393.9 54.5 C 393.9 56.3 394 56.4 397.5 56.6 C 397.47 56.57 397.5 57.5 397.5 57.5 L 387.3 57.5 C 387.3 57.5 387.26 56.57 387.3 56.6 C 390.7 56.4 390.8 56.3 390.8 54.5 C 390.78 54.52 390.8 36.5 390.8 36.5 C 390.8 36.5 388.89 36.48 388.9 36.5 C 385.1 36.5 384.5 37.2 384.1 40.7 C 384.09 40.67 383.1 40.7 383.1 40.7 L 383.1 35.4 Z " stroke="none" fill="#000"/>
  </g>
  <g id="Polygon36671">
    <path d="M 1.1 23.1 C 3.9 22.9 4 22.8 4 21 C 4 21 4 4.8 4 4.8 C 4 3 3.9 3 1.1 2.8 C 1.12 2.78 1.1 1.9 1.1 1.9 L 10 1.9 C 10 1.9 10.05 2.78 10 2.8 C 7.3 3 7.2 3 7.2 4.8 C 7.2 4.8 7.2 21 7.2 21 C 7.2 22.8 7.3 22.9 10 23.1 C 10.05 23.07 10 24 10 24 L 1.1 24 C 1.1 24 1.12 23.07 1.1 23.1 Z M 12.4 18.7 C 13 21.4 14.5 23.3 17.1 23.3 C 18.8 23.3 20 22.2 20 20.6 C 20 18.4 18 17.7 16.6 17.2 C 13.9 16.4 11.7 15.3 11.7 12.6 C 11.7 9.6 14.1 7.9 17.6 7.9 C 19 7.9 20.6 8.3 21.7 9 C 21.7 9.02 21.7 12.8 21.7 12.8 C 21.7 12.8 20.77 12.77 20.8 12.8 C 20.5 10.8 19.5 9.1 17.2 9.1 C 15.6 9.1 14.3 10 14.3 11.6 C 14.3 13.4 16.4 14.1 17.7 14.5 C 21 15.6 22.8 16.8 22.8 19.6 C 22.8 22.4 20.6 24.4 16.8 24.4 C 14.9 24.4 12.9 23.9 11.8 22.8 C 11.78 22.85 11.5 18.7 11.5 18.7 C 11.5 18.7 12.38 18.66 12.4 18.7 Z M 27.8 16 C 30.3 15.2 33.4 14.4 34.2 13.6 C 34.2 13.6 34.2 12.3 34.2 12.3 C 34.2 9.7 32.8 9.1 31.5 9.1 C 30.2 9.1 28.9 9.8 28.2 12.2 C 28.1 12.7 27.9 13.1 27.2 13.1 C 26.6 13.1 25.4 12.6 25.4 11.6 C 25.4 9.8 28.3 7.9 31.9 7.9 C 36.7 7.9 37.1 10.3 37.1 12.2 C 37.1 12.2 37.1 19.9 37.1 19.9 C 37.1 22 37.7 22.6 38.2 22.7 C 38.7 22.8 39.4 22.8 39.9 22.7 C 39.9 22.7 40.1 23.4 40.1 23.4 C 38.8 24 37.5 24.4 36.3 24.4 C 35.2 24.4 34.7 23.6 34.2 22.5 C 33.2 23.1 31.3 24.4 29.4 24.4 C 26.4 24.4 24.8 22.2 24.8 19.8 C 24.8 18.3 25.5 16.7 27.8 16 Z M 31 22.7 C 32.3 22.7 34.2 22 34.2 19.4 C 34.2 19.4 34.2 14.9 34.2 14.9 C 33.5 15.4 31.8 16 30.6 16.4 C 28.8 17.1 28.1 17.9 28.1 19.4 C 28.1 21.3 29 22.7 31 22.7 Z M 40.4 23.1 C 42.7 22.9 42.8 22.8 42.8 21.2 C 42.8 21.2 42.8 11.1 42.8 11.1 C 42.8 10 42.6 9.8 41.8 9.7 C 41.76 9.7 40.5 9.5 40.5 9.5 L 40.5 8.7 L 45.3 7.9 C 45.3 7.9 45.76 10.37 45.8 10.4 C 47.7 9.1 49.2 7.9 51.6 7.9 C 54.5 7.9 56.3 9.8 56.3 13 C 56.3 13 56.3 21.2 56.3 21.2 C 56.3 22.8 56.4 22.9 58.7 23.1 C 58.69 23.07 58.7 24 58.7 24 L 50.9 24 C 50.9 24 50.88 23.07 50.9 23.1 C 53.2 22.9 53.3 22.8 53.3 21.2 C 53.3 21.2 53.3 13.7 53.3 13.7 C 53.3 10.9 52.1 9.7 49.9 9.7 C 48.2 9.7 46.8 10.7 46.1 12 C 45.9 12.5 45.8 12.9 45.8 13.7 C 45.8 13.7 45.8 21.2 45.8 21.2 C 45.8 22.8 45.9 22.9 48.2 23.1 C 48.19 23.07 48.2 24 48.2 24 L 40.4 24 C 40.4 24 40.38 23.07 40.4 23.1 Z M 63.6 23.6 C 63.6 23.6 63.6 23.5 63.6 23.5 C 62 23.3 60.7 22.1 60.7 21 C 60.7 19.7 62 18.8 63.7 18.1 C 63.7 18.1 63.7 18.1 63.7 18.1 C 62.2 17.7 60.2 16.3 60.2 13.3 C 60.2 10.9 62 7.9 66.8 7.9 C 68.3 7.9 70.1 8.3 71 8.9 C 70.98 8.93 75.1 7.6 75.1 7.6 L 75.3 7.9 L 74.7 9.9 C 74.7 9.9 72.16 10.3 72.2 10.3 C 72.7 10.8 73.1 12 73.1 13.3 C 73.1 17.2 69.7 18.5 66.7 18.5 C 66.3 18.5 65.6 18.5 65 18.4 C 64.6 18.6 63.4 19.1 63.4 20 C 63.4 20.6 63.7 21.4 66 21.4 C 66 21.4 68.6 21.4 68.6 21.4 C 72 21.4 74.8 22.6 74.8 26 C 74.8 28 73.7 29.5 72.3 30.4 C 70.7 31.4 68.7 31.7 66.8 31.7 C 63.1 31.7 59.9 30.3 59.9 27.1 C 59.9 24.8 62.2 24 63.6 23.6 Z M 67.5 30.6 C 69.8 30.6 72.1 29.4 72.1 26.8 C 72.1 24.4 70 23.8 67.2 23.8 C 65.7 23.8 64.6 24 63.9 24.5 C 63.2 25 62.9 25.8 62.9 26.9 C 62.9 29.2 64.8 30.6 67.5 30.6 Z M 66.8 17.4 C 68.6 17.4 70 16 70 13.3 C 70 10.2 68.4 9.1 66.8 9.1 C 65.2 9.1 63.5 10.1 63.5 13.3 C 63.5 16 65 17.4 66.8 17.4 Z M 82.1 8.3 L 84.5 8.3 L 86.5 4.3 L 87.4 4.3 L 87.4 8.3 L 91.5 8.3 L 91.5 9.6 L 87.4 9.6 C 87.4 9.6 87.39 19.52 87.4 19.5 C 87.4 22 88.4 22.7 89.5 22.7 C 90.3 22.7 91 22.6 91.8 22.3 C 91.8 22.3 92 23 92 23 C 91.1 23.6 89.6 24.4 87.9 24.4 C 86.8 24.4 84.4 24 84.4 20.7 C 84.38 20.74 84.4 9.6 84.4 9.6 L 82.1 9.6 L 82.1 8.3 Z M 96 16 C 98.5 15.2 101.6 14.4 102.4 13.6 C 102.4 13.6 102.4 12.3 102.4 12.3 C 102.4 9.7 101 9.1 99.7 9.1 C 98.4 9.1 97.1 9.8 96.4 12.2 C 96.3 12.7 96.1 13.1 95.4 13.1 C 94.8 13.1 93.6 12.6 93.6 11.6 C 93.6 9.8 96.4 7.9 100.1 7.9 C 104.9 7.9 105.3 10.3 105.3 12.2 C 105.3 12.2 105.3 19.9 105.3 19.9 C 105.3 22 105.9 22.6 106.4 22.7 C 106.9 22.8 107.6 22.8 108.1 22.7 C 108.1 22.7 108.3 23.4 108.3 23.4 C 107 24 105.7 24.4 104.5 24.4 C 103.4 24.4 102.8 23.6 102.4 22.5 C 101.4 23.1 99.5 24.4 97.6 24.4 C 94.6 24.4 93 22.2 93 19.8 C 93 18.3 93.7 16.7 96 16 Z M 99.2 22.7 C 100.4 22.7 102.4 22 102.4 19.4 C 102.4 19.4 102.4 14.9 102.4 14.9 C 101.7 15.4 100 16 98.8 16.4 C 97 17.1 96.3 17.9 96.3 19.4 C 96.3 21.3 97.2 22.7 99.2 22.7 Z M 116.8 7.9 C 122 7.9 124.5 11 124.5 16.2 C 124.5 21.3 122 24.4 116.8 24.4 C 111.6 24.4 109.1 21.3 109.1 16.2 C 109.1 11 111.6 7.9 116.8 7.9 Z M 116.8 23.3 C 119.7 23.3 121.2 20.6 121.2 16.2 C 121.2 11.7 119.7 9.1 116.8 9.1 C 113.9 9.1 112.4 11.7 112.4 16.2 C 112.4 20.6 113.9 23.3 116.8 23.3 Z M 126.4 23.1 C 128.7 22.9 128.8 22.8 128.8 21.2 C 128.8 21.2 128.8 11.1 128.8 11.1 C 128.8 10 128.6 9.8 127.8 9.7 C 127.77 9.7 126.6 9.5 126.6 9.5 L 126.6 8.7 L 131.3 7.9 C 131.3 7.9 131.77 10.37 131.8 10.4 C 133.8 9.1 135.2 7.9 137.6 7.9 C 140.5 7.9 142.3 9.8 142.3 13 C 142.3 13 142.3 21.2 142.3 21.2 C 142.3 22.8 142.4 22.9 144.7 23.1 C 144.7 23.07 144.7 24 144.7 24 L 136.9 24 C 136.9 24 136.89 23.07 136.9 23.1 C 139.2 22.9 139.3 22.8 139.3 21.2 C 139.3 21.2 139.3 13.7 139.3 13.7 C 139.3 10.9 138.1 9.7 135.9 9.7 C 134.2 9.7 132.8 10.7 132.1 12 C 131.9 12.5 131.8 12.9 131.8 13.7 C 131.8 13.7 131.8 21.2 131.8 21.2 C 131.8 22.8 131.9 22.9 134.2 23.1 C 134.21 23.07 134.2 24 134.2 24 L 126.4 24 C 126.4 24 126.4 23.07 126.4 23.1 Z M 149.6 23.6 C 149.6 23.6 149.6 23.5 149.6 23.5 C 148 23.3 146.7 22.1 146.7 21 C 146.7 19.7 148 18.8 149.7 18.1 C 149.7 18.1 149.7 18.1 149.7 18.1 C 148.2 17.7 146.2 16.3 146.2 13.3 C 146.2 10.9 148 7.9 152.9 7.9 C 154.3 7.9 156.1 8.3 157 8.9 C 156.99 8.93 161.1 7.6 161.1 7.6 L 161.3 7.9 L 160.7 9.9 C 160.7 9.9 158.17 10.3 158.2 10.3 C 158.7 10.8 159.1 12 159.1 13.3 C 159.1 17.2 155.7 18.5 152.7 18.5 C 152.3 18.5 151.6 18.5 151 18.4 C 150.6 18.6 149.4 19.1 149.4 20 C 149.4 20.6 149.8 21.4 152.1 21.4 C 152.1 21.4 154.6 21.4 154.6 21.4 C 158 21.4 160.8 22.6 160.8 26 C 160.8 28 159.7 29.5 158.3 30.4 C 156.7 31.4 154.7 31.7 152.8 31.7 C 149.1 31.7 145.9 30.3 145.9 27.1 C 145.9 24.8 148.2 24 149.6 23.6 Z M 153.5 30.6 C 155.8 30.6 158.1 29.4 158.1 26.8 C 158.1 24.4 156 23.8 153.2 23.8 C 151.7 23.8 150.6 24 149.9 24.5 C 149.2 25 148.9 25.8 148.9 26.9 C 148.9 29.2 150.8 30.6 153.5 30.6 Z M 152.8 17.4 C 154.7 17.4 156.1 16 156.1 13.3 C 156.1 10.2 154.4 9.1 152.9 9.1 C 151.2 9.1 149.5 10.1 149.5 13.3 C 149.5 16 151 17.4 152.8 17.4 Z M 172 1.1 C 173.1 1.1 173.9 1.9 173.9 3.1 C 173.9 4.2 173.1 5 172 5 C 170.8 5 170 4.2 170 3.1 C 170 1.9 170.8 1.1 172 1.1 Z M 168.1 23.1 C 170.4 22.9 170.5 22.8 170.5 21.2 C 170.5 21.2 170.5 11.1 170.5 11.1 C 170.5 10 170.3 9.8 169.5 9.7 C 169.5 9.7 168.3 9.5 168.3 9.5 L 168.3 8.7 L 173.3 7.9 L 173.5 8.1 C 173.5 8.1 173.53 21.22 173.5 21.2 C 173.5 22.8 173.7 22.9 175.9 23.1 C 175.93 23.07 175.9 24 175.9 24 L 168.1 24 C 168.1 24 168.13 23.07 168.1 23.1 Z M 176.8 23.1 C 179.1 22.9 179.2 22.8 179.2 21.2 C 179.2 21.2 179.2 11.1 179.2 11.1 C 179.2 10 179 9.8 178.2 9.7 C 178.17 9.7 177 9.5 177 9.5 L 177 8.7 L 181.7 7.9 C 181.7 7.9 182.17 10.37 182.2 10.4 C 184.2 9.1 185.6 7.9 188 7.9 C 190.9 7.9 192.7 9.8 192.7 13 C 192.7 13 192.7 21.2 192.7 21.2 C 192.7 22.8 192.8 22.9 195.1 23.1 C 195.1 23.07 195.1 24 195.1 24 L 187.3 24 C 187.3 24 187.29 23.07 187.3 23.1 C 189.6 22.9 189.7 22.8 189.7 21.2 C 189.7 21.2 189.7 13.7 189.7 13.7 C 189.7 10.9 188.5 9.7 186.3 9.7 C 184.6 9.7 183.2 10.7 182.5 12 C 182.3 12.5 182.2 12.9 182.2 13.7 C 182.2 13.7 182.2 21.2 182.2 21.2 C 182.2 22.8 182.3 22.9 184.6 23.1 C 184.6 23.07 184.6 24 184.6 24 L 176.8 24 C 176.8 24 176.8 23.07 176.8 23.1 Z M 195.9 8.3 L 198.4 8.3 L 200.3 4.3 L 201.2 4.3 L 201.2 8.3 L 205.4 8.3 L 205.4 9.6 L 201.2 9.6 C 201.2 9.6 201.24 19.52 201.2 19.5 C 201.2 22 202.3 22.7 203.4 22.7 C 204.2 22.7 204.9 22.6 205.6 22.3 C 205.6 22.3 205.9 23 205.9 23 C 205 23.6 203.4 24.4 201.8 24.4 C 200.7 24.4 198.2 24 198.2 20.7 C 198.24 20.74 198.2 9.6 198.2 9.6 L 195.9 9.6 L 195.9 8.3 Z M 214.2 7.9 C 220.1 7.9 220.7 12.5 220.7 14.4 C 220.7 15.4 220.1 15.6 219.4 15.6 C 219.4 15.6 210.2 15.6 210.2 15.6 C 210.1 18.9 210.9 22.8 214.9 22.8 C 217.4 22.8 218.7 21.2 219.5 19.4 C 219.5 19.4 220.5 19.9 220.5 19.9 C 219.6 22.4 217.8 24.4 214.3 24.4 C 209.1 24.4 206.9 21.3 206.9 16.3 C 206.9 11.5 209.2 7.9 214.2 7.9 Z M 216.3 14.4 C 217.2 14.4 217.4 14 217.4 13.3 C 217.4 12.1 217 9.1 214 9.1 C 210.7 9.1 210.2 13.1 210.2 14.4 C 210.2 14.4 216.3 14.4 216.3 14.4 Z M 226.1 23.6 C 226.1 23.6 226.1 23.5 226.1 23.5 C 224.6 23.3 223.3 22.1 223.3 21 C 223.3 19.7 224.5 18.8 226.3 18.1 C 226.3 18.1 226.3 18.1 226.3 18.1 C 224.8 17.7 222.8 16.3 222.8 13.3 C 222.8 10.9 224.5 7.9 229.4 7.9 C 230.9 7.9 232.7 8.3 233.6 8.9 C 233.56 8.93 237.7 7.6 237.7 7.6 L 237.9 7.9 L 237.3 9.9 C 237.3 9.9 234.75 10.3 234.7 10.3 C 235.3 10.8 235.7 12 235.7 13.3 C 235.7 17.2 232.3 18.5 229.2 18.5 C 228.9 18.5 228.2 18.5 227.6 18.4 C 227.2 18.6 226 19.1 226 20 C 226 20.6 226.3 21.4 228.6 21.4 C 228.6 21.4 231.2 21.4 231.2 21.4 C 234.6 21.4 237.4 22.6 237.4 26 C 237.4 28 236.3 29.5 234.8 30.4 C 233.3 31.4 231.3 31.7 229.4 31.7 C 225.7 31.7 222.5 30.3 222.5 27.1 C 222.5 24.8 224.8 24 226.1 23.6 Z M 230.1 30.6 C 232.4 30.6 234.7 29.4 234.7 26.8 C 234.7 24.4 232.6 23.8 229.8 23.8 C 228.3 23.8 227.2 24 226.5 24.5 C 225.8 25 225.5 25.8 225.5 26.9 C 225.5 29.2 227.4 30.6 230.1 30.6 Z M 229.4 17.4 C 231.2 17.4 232.6 16 232.6 13.3 C 232.6 10.2 231 9.1 229.4 9.1 C 227.7 9.1 226.1 10.1 226.1 13.3 C 226.1 16 227.6 17.4 229.4 17.4 Z M 238.1 23.1 C 240.4 22.9 240.5 22.8 240.5 21.2 C 240.5 21.2 240.5 11.1 240.5 11.1 C 240.5 10 240.3 9.8 239.5 9.7 C 239.52 9.7 238.3 9.5 238.3 9.5 L 238.3 8.7 L 243.2 7.9 C 243.2 7.9 243.55 10.5 243.5 10.5 C 245.7 8.6 246.6 7.9 247.8 7.9 C 249 7.9 249.5 8.8 249.5 9.5 C 249.5 10.5 248.8 11.3 248 11.3 C 247.8 11.3 247.6 11.3 247.4 11.1 C 246.4 10.6 245.9 10.4 245.4 10.4 C 244.6 10.4 243.5 11.3 243.5 13.7 C 243.5 13.7 243.5 21.2 243.5 21.2 C 243.5 22.8 243.7 22.9 246.6 23.1 C 246.59 23.07 246.6 24 246.6 24 L 238.1 24 C 238.1 24 238.14 23.07 238.1 23.1 Z M 253.1 16 C 255.7 15.2 258.8 14.4 259.6 13.6 C 259.6 13.6 259.6 12.3 259.6 12.3 C 259.6 9.7 258.1 9.1 256.9 9.1 C 255.6 9.1 254.3 9.8 253.6 12.2 C 253.4 12.7 253.2 13.1 252.5 13.1 C 251.9 13.1 250.7 12.6 250.7 11.6 C 250.7 9.8 253.6 7.9 257.2 7.9 C 262 7.9 262.5 10.3 262.5 12.2 C 262.5 12.2 262.5 19.9 262.5 19.9 C 262.5 22 263 22.6 263.6 22.7 C 264.1 22.8 264.8 22.8 265.2 22.7 C 265.2 22.7 265.4 23.4 265.4 23.4 C 264.2 24 262.8 24.4 261.6 24.4 C 260.5 24.4 260 23.6 259.5 22.5 C 258.5 23.1 256.6 24.4 254.8 24.4 C 251.8 24.4 250.2 22.2 250.2 19.8 C 250.2 18.3 250.8 16.7 253.1 16 Z M 256.3 22.7 C 257.6 22.7 259.6 22 259.6 19.4 C 259.6 19.4 259.6 14.9 259.6 14.9 C 258.9 15.4 257.2 16 255.9 16.4 C 254.1 17.1 253.4 17.9 253.4 19.4 C 253.4 21.3 254.4 22.7 256.3 22.7 Z M 267.1 18.7 C 267.8 21.4 269.2 23.3 271.8 23.3 C 273.5 23.3 274.8 22.2 274.8 20.6 C 274.8 18.4 272.8 17.7 271.3 17.2 C 268.7 16.4 266.5 15.3 266.5 12.6 C 266.5 9.6 268.9 7.9 272.3 7.9 C 273.8 7.9 275.4 8.3 276.4 9 C 276.44 9.02 276.4 12.8 276.4 12.8 C 276.4 12.8 275.52 12.77 275.5 12.8 C 275.3 10.8 274.2 9.1 271.9 9.1 C 270.3 9.1 269.1 10 269.1 11.6 C 269.1 13.4 271.2 14.1 272.5 14.5 C 275.8 15.6 277.5 16.8 277.5 19.6 C 277.5 22.4 275.3 24.4 271.5 24.4 C 269.6 24.4 267.7 23.9 266.5 22.8 C 266.52 22.85 266.2 18.7 266.2 18.7 C 266.2 18.7 267.13 18.66 267.1 18.7 Z M 277.9 8.3 L 285.2 8.3 L 285.2 9.2 C 285.2 9.2 283.8 9.38 283.8 9.4 C 283.1 9.4 283.1 9.8 283.3 10.4 C 284.5 13.7 285.8 17.2 287.3 21.1 C 287.3 21.1 287.3 21.1 287.3 21.1 C 288.7 17.2 290.4 12.4 290.9 10.5 C 291 9.9 291 9.5 290.4 9.4 C 290.43 9.41 288.8 9.2 288.8 9.2 L 288.8 8.3 L 294.9 8.3 C 294.9 8.3 294.91 9.25 294.9 9.2 C 293.3 9.3 293.1 9.6 292.5 10.9 C 291.5 13.1 288.6 20.9 286.6 26.6 C 285 31.4 283.4 31.7 282.1 31.7 C 280.7 31.7 279.8 30.8 279.8 30.1 C 279.8 29.2 280.6 28.3 281.2 28.3 C 281.6 28.3 281.9 28.4 282.2 28.7 C 282.8 29.3 283.1 29.4 283.4 29.4 C 283.7 29.4 284.3 29.1 284.8 28.1 C 285.3 27 285.6 26.1 285.6 25.3 C 285.6 24.8 285.5 24.3 285.3 23.8 C 284.5 21.6 281.9 14.8 280.3 10.9 C 279.7 9.5 279.4 9.3 277.9 9.2 C 277.85 9.25 277.9 8.3 277.9 8.3 Z M 302.6 7.9 C 307.8 7.9 310.3 11 310.3 16.2 C 310.3 21.3 307.8 24.4 302.6 24.4 C 297.5 24.4 294.9 21.3 294.9 16.2 C 294.9 11 297.5 7.9 302.6 7.9 Z M 302.6 23.3 C 305.6 23.3 307 20.6 307 16.2 C 307 11.7 305.6 9.1 302.6 9.1 C 299.7 9.1 298.3 11.7 298.3 16.2 C 298.3 20.6 299.7 23.3 302.6 23.3 Z M 312.2 23.1 C 314.5 22.9 314.6 22.8 314.6 21.2 C 314.6 21.2 314.6 11.1 314.6 11.1 C 314.6 10 314.4 9.8 313.6 9.7 C 313.59 9.7 312.4 9.5 312.4 9.5 L 312.4 8.7 L 317.1 7.9 C 317.1 7.9 317.59 10.37 317.6 10.4 C 319.6 9.1 321.1 7.9 323.4 7.9 C 326.4 7.9 328.1 9.8 328.1 13 C 328.1 13 328.1 21.2 328.1 21.2 C 328.1 22.8 328.3 22.9 330.5 23.1 C 330.52 23.07 330.5 24 330.5 24 L 322.7 24 C 322.7 24 322.71 23.07 322.7 23.1 C 325 22.9 325.1 22.8 325.1 21.2 C 325.1 21.2 325.1 13.7 325.1 13.7 C 325.1 10.9 323.9 9.7 321.8 9.7 C 320.1 9.7 318.6 10.7 317.9 12 C 317.7 12.5 317.6 12.9 317.6 13.7 C 317.6 13.7 317.6 21.2 317.6 21.2 C 317.6 22.8 317.8 22.9 320 23.1 C 320.03 23.07 320 24 320 24 L 312.2 24 C 312.2 24 312.22 23.07 312.2 23.1 Z M 337.9 23.1 C 340.3 22.9 340.3 22.8 340.3 21.2 C 340.3 21.2 340.3 11.1 340.3 11.1 C 340.3 10 340.2 9.8 339.3 9.7 C 339.32 9.7 338.1 9.5 338.1 9.5 L 338.1 8.7 L 342.9 7.9 C 342.9 7.9 343.32 10.37 343.3 10.4 C 345.3 9.1 346.8 7.9 349.1 7.9 C 352.1 7.9 353.9 9.8 353.9 13 C 353.9 13 353.9 21.2 353.9 21.2 C 353.9 22.8 354 22.9 356.3 23.1 C 356.25 23.07 356.3 24 356.3 24 L 348.4 24 C 348.4 24 348.44 23.07 348.4 23.1 C 350.7 22.9 350.8 22.8 350.8 21.2 C 350.8 21.2 350.8 13.7 350.8 13.7 C 350.8 10.9 349.7 9.7 347.5 9.7 C 345.8 9.7 344.3 10.7 343.7 12 C 343.4 12.5 343.4 12.9 343.4 13.7 C 343.4 13.7 343.4 21.2 343.4 21.2 C 343.4 22.8 343.5 22.9 345.8 23.1 C 345.75 23.07 345.8 24 345.8 24 L 337.9 24 C 337.9 24 337.95 23.07 337.9 23.1 Z M 361.1 23.6 C 361.1 23.6 361.1 23.5 361.1 23.5 C 359.6 23.3 358.3 22.1 358.3 21 C 358.3 19.7 359.5 18.8 361.2 18.1 C 361.2 18.1 361.2 18.1 361.2 18.1 C 359.8 17.7 357.8 16.3 357.8 13.3 C 357.8 10.9 359.5 7.9 364.4 7.9 C 365.9 7.9 367.6 8.3 368.5 8.9 C 368.54 8.93 372.6 7.6 372.6 7.6 L 372.9 7.9 L 372.2 9.9 C 372.2 9.9 369.72 10.3 369.7 10.3 C 370.3 10.8 370.7 12 370.7 13.3 C 370.7 17.2 367.3 18.5 364.2 18.5 C 363.9 18.5 363.2 18.5 362.6 18.4 C 362.2 18.6 361 19.1 361 20 C 361 20.6 361.3 21.4 363.6 21.4 C 363.6 21.4 366.2 21.4 366.2 21.4 C 369.6 21.4 372.3 22.6 372.3 26 C 372.3 28 371.3 29.5 369.8 30.4 C 368.3 31.4 366.3 31.7 364.3 31.7 C 360.6 31.7 357.4 30.3 357.4 27.1 C 357.4 24.8 359.7 24 361.1 23.6 Z M 365.1 30.6 C 367.4 30.6 369.7 29.4 369.7 26.8 C 369.7 24.4 367.6 23.8 364.8 23.8 C 363.2 23.8 362.2 24 361.5 24.5 C 360.8 25 360.5 25.8 360.5 26.9 C 360.5 29.2 362.4 30.6 365.1 30.6 Z M 364.3 17.4 C 366.2 17.4 367.6 16 367.6 13.3 C 367.6 10.2 366 9.1 364.4 9.1 C 362.7 9.1 361 10.1 361 13.3 C 361 16 362.6 17.4 364.3 17.4 Z " stroke="none" fill="#000"/>
  </g>
</svg>