<?xml version="1.0" standalone="no"?>
<!DOCTYPE svg PUBLIC "-//W3C//DTD SVG 1.1//EN" "http://www.w3.org/Graphics/SVG/1.1/DTD/svg11.dtd">
<svg xmlns="http://www.w3.org/2000/svg" version="1.1" width="273px" height="61.5px" viewBox="0 -6 273 61.5" style="top:-6px">
  <desc>Huwag kang matakot makiisa sa iba pang naghahangad ng buhay na karapatdapat para sa isang Pilipino</desc>
  <defs/>
  <g id="Polygon17307">
    <path d="M 68.3 36.9 C 68.4 36.5 68.4 36.3 68.1 36.3 C 68.05 36.27 67.2 36.2 67.2 36.2 L 67.3 35.9 L 69.8 35.5 L 69.9 35.5 L 69.1 38.5 C 69.1 38.5 69.12 38.5 69.1 38.5 C 70.2 36.5 71.6 35.5 72.6 35.5 C 73.7 35.5 74.2 36.1 74.2 37.3 C 74.2 38.4 73.3 42.7 69.8 42.7 C 69.1 42.7 68.6 42.5 68.3 42.4 C 68.32 42.36 67.5 45.7 67.5 45.7 L 66.3 45.9 C 66.3 45.9 68.26 36.94 68.3 36.9 Z M 69.7 42.2 C 72 42.2 72.8 38.5 72.8 37.4 C 72.8 36.6 72.6 36.2 72.1 36.2 C 71.3 36.2 70.2 37.3 69.6 38.5 C 69 39.4 68.6 40.9 68.5 41.8 C 68.8 42 69.1 42.2 69.7 42.2 Z M 79.8 35.5 C 80.1 35.5 80.5 35.6 80.8 35.8 C 80.78 35.77 80.8 35.6 80.8 35.6 L 82 35.6 C 82 35.6 80.54 41.17 80.5 41.2 C 80.4 41.6 80.4 41.9 80.7 41.9 C 81.1 41.9 81.7 40.9 81.9 40.5 C 81.9 40.5 82.3 40.7 82.3 40.7 C 81.8 41.7 81 42.7 80 42.7 C 79.2 42.7 79 42.1 79.3 41.1 C 79.34 41.1 79.8 39.5 79.8 39.5 C 79.8 39.5 79.78 39.5 79.8 39.5 C 79 40.9 77.7 42.7 76.2 42.7 C 75.2 42.7 74.8 41.8 74.8 41 C 74.8 39.2 76.4 35.5 79.8 35.5 Z M 76.8 41.9 C 77.5 41.9 78.4 41 79.1 39.8 C 79.9 38.7 80.4 37.3 80.6 36.3 C 80.4 36.1 80.1 36 79.8 36 C 77.6 36 76.2 39.4 76.2 41 C 76.2 41.5 76.4 41.9 76.8 41.9 Z M 84.6 36.9 C 84.7 36.5 84.8 36.3 84.4 36.3 C 84.43 36.27 83.6 36.2 83.6 36.2 L 83.6 35.9 L 86.1 35.5 L 86.1 35.5 L 85.5 37.9 C 85.5 37.9 85.52 37.87 85.5 37.9 C 86.3 36.4 87.2 35.5 88 35.5 C 88.5 35.5 88.7 35.7 88.7 36.1 C 88.7 36.5 88.4 37 88 37 C 87.6 37 87.5 36.6 87 36.6 C 86.5 36.6 85.8 37.8 85.3 39.6 C 85.1 40.5 84.8 41.6 84.6 42.5 C 84.56 42.5 83.4 42.7 83.4 42.7 C 83.4 42.7 84.64 36.94 84.6 36.9 Z M 93.2 35.5 C 93.6 35.5 94 35.6 94.3 35.8 C 94.26 35.77 94.3 35.6 94.3 35.6 L 95.5 35.6 C 95.5 35.6 94.02 41.17 94 41.2 C 93.9 41.6 93.9 41.9 94.2 41.9 C 94.6 41.9 95.2 40.9 95.4 40.5 C 95.4 40.5 95.8 40.7 95.8 40.7 C 95.3 41.7 94.5 42.7 93.4 42.7 C 92.7 42.7 92.5 42.1 92.8 41.1 C 92.82 41.1 93.3 39.5 93.3 39.5 C 93.3 39.5 93.27 39.5 93.3 39.5 C 92.5 40.9 91.2 42.7 89.7 42.7 C 88.7 42.7 88.3 41.8 88.3 41 C 88.3 39.2 89.9 35.5 93.2 35.5 Z M 90.3 41.9 C 91 41.9 91.8 41 92.6 39.8 C 93.4 38.7 93.9 37.3 94.1 36.3 C 93.9 36.1 93.6 36 93.3 36 C 91.1 36 89.7 39.4 89.7 41 C 89.7 41.5 89.8 41.9 90.3 41.9 Z M 100.2 40.6 C 100.4 40.6 100.5 40.7 100.6 41 C 100.8 41.7 101.3 42.2 101.9 42.2 C 102.4 42.2 102.9 41.8 102.9 41.1 C 102.9 40.6 102.5 40 101.9 39.5 C 101.2 38.9 100.7 38.3 100.7 37.5 C 100.7 36.4 101.5 35.5 102.9 35.5 C 104.2 35.5 104.7 36.1 104.7 36.6 C 104.7 37 104.3 37.2 104 37.2 C 103.8 37.2 103.7 37.1 103.7 36.9 C 103.4 36.3 103 36 102.5 36 C 102 36 101.7 36.4 101.7 36.9 C 101.7 37.3 101.8 37.7 102.7 38.4 C 103.6 39.2 103.9 39.8 103.9 40.6 C 103.9 41.7 103 42.7 101.5 42.7 C 100.2 42.7 99.4 41.9 99.4 41.3 C 99.4 41 99.7 40.6 100.2 40.6 Z M 110.1 35.5 C 110.5 35.5 110.9 35.6 111.1 35.8 C 111.13 35.77 111.2 35.6 111.2 35.6 L 112.4 35.6 C 112.4 35.6 110.89 41.17 110.9 41.2 C 110.8 41.6 110.8 41.9 111 41.9 C 111.4 41.9 112 40.9 112.3 40.5 C 112.3 40.5 112.6 40.7 112.6 40.7 C 112.2 41.7 111.4 42.7 110.3 42.7 C 109.5 42.7 109.4 42.1 109.7 41.1 C 109.69 41.1 110.2 39.5 110.2 39.5 C 110.2 39.5 110.13 39.5 110.1 39.5 C 109.3 40.9 108 42.7 106.5 42.7 C 105.6 42.7 105.2 41.8 105.2 41 C 105.2 39.2 106.8 35.5 110.1 35.5 Z M 107.2 41.9 C 107.9 41.9 108.7 41 109.5 39.8 C 110.2 38.7 110.7 37.3 111 36.3 C 110.8 36.1 110.5 36 110.1 36 C 107.9 36 106.6 39.4 106.6 41 C 106.6 41.5 106.7 41.9 107.2 41.9 Z M 119.9 32.5 C 120.3 32.5 120.6 32.7 120.6 33.3 C 120.6 33.8 120.3 34.2 119.7 34.2 C 119.3 34.2 119 33.9 119 33.4 C 119 33 119.3 32.5 119.9 32.5 Z M 118.4 36.9 C 118.5 36.4 118.5 36.3 118.1 36.3 C 118.1 36.27 117.3 36.2 117.3 36.2 L 117.4 35.9 L 119.9 35.5 L 120 35.5 C 120 35.5 118.48 41.17 118.5 41.2 C 118.4 41.6 118.3 41.9 118.6 41.9 C 119 41.9 119.6 40.9 119.9 40.5 C 119.9 40.5 120.2 40.7 120.2 40.7 C 119.7 41.7 119 42.7 117.9 42.7 C 117.2 42.7 117 42.1 117.2 41.3 C 117.2 41.3 118.4 36.9 118.4 36.9 Z M 121.6 40.6 C 121.8 40.6 122 40.7 122 41 C 122.3 41.7 122.8 42.2 123.3 42.2 C 123.9 42.2 124.3 41.8 124.3 41.1 C 124.3 40.6 124 40 123.4 39.5 C 122.6 38.9 122.1 38.3 122.1 37.5 C 122.1 36.4 123 35.5 124.4 35.5 C 125.6 35.5 126.2 36.1 126.2 36.6 C 126.2 37 125.8 37.2 125.5 37.2 C 125.3 37.2 125.2 37.1 125.1 36.9 C 124.8 36.3 124.4 36 124 36 C 123.5 36 123.1 36.4 123.1 36.9 C 123.1 37.3 123.3 37.7 124.1 38.4 C 125 39.2 125.4 39.8 125.4 40.6 C 125.4 41.7 124.5 42.7 123 42.7 C 121.6 42.7 120.9 41.9 120.9 41.3 C 120.9 41 121.2 40.6 121.6 40.6 Z M 131.6 35.5 C 131.9 35.5 132.3 35.6 132.6 35.8 C 132.58 35.77 132.6 35.6 132.6 35.6 L 133.8 35.6 C 133.8 35.6 132.34 41.17 132.3 41.2 C 132.2 41.6 132.2 41.9 132.5 41.9 C 132.9 41.9 133.5 40.9 133.7 40.5 C 133.7 40.5 134.1 40.7 134.1 40.7 C 133.6 41.7 132.8 42.7 131.8 42.7 C 131 42.7 130.8 42.1 131.1 41.1 C 131.13 41.1 131.6 39.5 131.6 39.5 C 131.6 39.5 131.58 39.5 131.6 39.5 C 130.8 40.9 129.5 42.7 128 42.7 C 127 42.7 126.6 41.8 126.6 41 C 126.6 39.2 128.2 35.5 131.6 35.5 Z M 128.6 41.9 C 129.3 41.9 130.2 41 130.9 39.8 C 131.7 38.7 132.2 37.3 132.4 36.3 C 132.2 36.1 131.9 36 131.6 36 C 129.4 36 128 39.4 128 41 C 128 41.5 128.2 41.9 128.6 41.9 Z M 136.5 36.9 C 136.7 36.5 136.7 36.3 136.3 36.3 C 136.33 36.27 135.5 36.2 135.5 36.2 L 135.5 35.9 L 138.1 35.5 L 138.2 35.5 L 137.3 38.6 C 137.3 38.6 137.31 38.59 137.3 38.6 C 138.1 37 139.6 35.5 140.9 35.5 C 142.1 35.5 142.3 36.4 141.9 37.5 C 141.9 37.5 140.8 41.2 140.8 41.2 C 140.7 41.6 140.7 41.9 141 41.9 C 141.4 41.9 142 40.9 142.2 40.5 C 142.2 40.5 142.6 40.7 142.6 40.7 C 142.1 41.7 141.3 42.7 140.3 42.7 C 139.5 42.7 139.3 42.1 139.6 41.3 C 139.6 41.3 140.8 37.2 140.8 37.2 C 140.9 36.6 140.8 36.2 140.3 36.2 C 139.2 36.2 137.8 38.2 137.3 39.4 C 136.9 40.3 136.7 41.1 136.3 42.5 C 136.3 42.5 135.1 42.7 135.1 42.7 C 135.1 42.7 136.54 36.94 136.5 36.9 Z M 145.1 41.9 C 145.1 41.9 145.1 41.9 145.1 41.9 C 144.5 41.6 144.1 41.3 144.1 40.8 C 144.1 40.3 144.9 40 145.3 39.8 C 145.3 39.8 145.3 39.8 145.3 39.8 C 144.9 39.6 144.2 39.1 144.2 38 C 144.2 37.1 144.9 35.5 147.1 35.5 C 147.8 35.5 148.5 35.7 148.9 35.9 C 148.89 35.89 150.9 35.3 150.9 35.3 L 151 35.5 L 150.5 36.3 C 150.5 36.3 149.36 36.51 149.4 36.5 C 149.5 36.7 149.7 37.1 149.7 37.5 C 149.7 38.9 148.6 40 146.6 40 C 146.4 40 146.2 40 145.9 39.9 C 145.5 40 145.3 40.2 145.3 40.5 C 145.3 40.9 145.8 41.1 147 41.4 C 148.6 41.7 149.4 42.5 149.4 43.6 C 149.4 45.1 147.9 45.9 146 45.9 C 144.2 45.9 142.9 45.1 142.9 43.8 C 142.9 42.7 144.1 42.1 145.1 41.9 Z M 146.3 45.4 C 147.3 45.4 148.2 44.9 148.2 43.8 C 148.2 42.6 146.6 42.3 145.7 42.1 C 145.1 42.2 144.2 42.7 144.2 43.7 C 144.2 44.7 145.1 45.4 146.3 45.4 Z M 146.6 39.5 C 147.7 39.5 148.4 38.4 148.4 37.1 C 148.4 36.2 147.7 36 147.2 36 C 145.9 36 145.5 37.4 145.5 38.3 C 145.5 39 145.9 39.5 146.6 39.5 Z M 153.5 42.1 C 153.5 42.1 154.32 42.01 154.3 42 C 154.7 42 154.8 41.8 154.9 41.3 C 154.9 41.3 156.6 34 156.6 34 C 156.7 33.5 156.6 33.3 156.3 33.3 C 156.28 33.29 155.5 33.2 155.5 33.2 L 155.5 32.8 C 155.5 32.8 158.83 32.81 158.8 32.8 C 159.7 32.8 160.6 32.9 161.3 33.3 C 162 33.7 162.4 34.4 162.4 35.4 C 162.4 36.4 161.9 37.4 161 37.9 C 160.2 38.4 159.1 38.6 157.9 38.6 C 157.92 38.58 156.9 38.6 156.9 38.6 C 156.9 38.6 156.25 41.34 156.2 41.3 C 156.2 41.8 156.2 42 156.6 42 C 156.56 42.01 157.5 42.1 157.5 42.1 L 157.4 42.5 L 153.5 42.5 L 153.5 42.1 Z M 158 38.1 C 159.8 38.1 161 37.1 161 35.1 C 161 33.9 160.3 33.3 158.9 33.3 C 158.2 33.3 158.1 33.4 158 33.8 C 158 33.8 157.1 37.5 157.1 37.5 C 157 37.9 157 38.1 158 38.1 Z M 166 32.5 C 166.4 32.5 166.7 32.7 166.7 33.3 C 166.7 33.8 166.4 34.2 165.8 34.2 C 165.4 34.2 165.1 33.9 165.1 33.4 C 165.1 33 165.4 32.5 166 32.5 Z M 164.5 36.9 C 164.6 36.4 164.6 36.3 164.2 36.3 C 164.2 36.27 163.4 36.2 163.4 36.2 L 163.5 35.9 L 166 35.5 L 166.1 35.5 C 166.1 35.5 164.58 41.17 164.6 41.2 C 164.5 41.6 164.4 41.9 164.7 41.9 C 165.1 41.9 165.7 40.9 166 40.5 C 166 40.5 166.3 40.7 166.3 40.7 C 165.8 41.7 165.1 42.7 164 42.7 C 163.3 42.7 163.1 42.1 163.3 41.3 C 163.3 41.3 164.5 36.9 164.5 36.9 Z M 169.8 33.6 C 169.9 33 169.8 32.9 169.5 32.9 C 169.48 32.87 168.7 32.8 168.7 32.8 L 168.8 32.4 L 171.3 32.1 L 171.3 32.2 C 171.3 32.2 169.09 41.18 169.1 41.2 C 169 41.6 169 41.9 169.2 41.9 C 169.6 41.9 170.2 41.1 170.5 40.5 C 170.5 40.5 170.9 40.7 170.9 40.7 C 170.4 41.7 169.5 42.7 168.6 42.7 C 167.8 42.7 167.6 42.1 167.8 41.3 C 167.8 41.3 169.8 33.6 169.8 33.6 Z M 175 32.5 C 175.4 32.5 175.7 32.7 175.7 33.3 C 175.7 33.8 175.4 34.2 174.8 34.2 C 174.4 34.2 174.1 33.9 174.1 33.4 C 174.1 33 174.4 32.5 175 32.5 Z M 173.5 36.9 C 173.6 36.4 173.6 36.3 173.2 36.3 C 173.2 36.27 172.4 36.2 172.4 36.2 L 172.5 35.9 L 175 35.5 L 175.1 35.5 C 175.1 35.5 173.58 41.17 173.6 41.2 C 173.5 41.6 173.4 41.9 173.7 41.9 C 174.1 41.9 174.7 40.9 175 40.5 C 175 40.5 175.3 40.7 175.3 40.7 C 174.8 41.7 174.1 42.7 173 42.7 C 172.3 42.7 172.1 42.1 172.3 41.3 C 172.3 41.3 173.5 36.9 173.5 36.9 Z M 178 36.9 C 178.1 36.5 178.1 36.3 177.8 36.3 C 177.77 36.27 176.9 36.2 176.9 36.2 L 177 35.9 L 179.5 35.5 L 179.6 35.5 L 178.8 38.5 C 178.8 38.5 178.83 38.5 178.8 38.5 C 179.9 36.5 181.3 35.5 182.4 35.5 C 183.4 35.5 183.9 36.1 183.9 37.3 C 183.9 38.4 183 42.7 179.5 42.7 C 178.8 42.7 178.3 42.5 178 42.4 C 178.03 42.36 177.3 45.7 177.3 45.7 L 176 45.9 C 176 45.9 177.98 36.94 178 36.9 Z M 179.4 42.2 C 181.7 42.2 182.5 38.5 182.5 37.4 C 182.5 36.6 182.3 36.2 181.8 36.2 C 181 36.2 180 37.3 179.3 38.5 C 178.7 39.4 178.4 40.9 178.2 41.8 C 178.5 42 178.9 42.2 179.4 42.2 Z M 187.9 32.5 C 188.3 32.5 188.7 32.7 188.7 33.3 C 188.7 33.8 188.4 34.2 187.8 34.2 C 187.4 34.2 187 33.9 187 33.4 C 187 33 187.3 32.5 187.9 32.5 Z M 186.5 36.9 C 186.6 36.4 186.6 36.3 186.2 36.3 C 186.18 36.27 185.4 36.2 185.4 36.2 L 185.5 35.9 L 188 35.5 L 188.1 35.5 C 188.1 35.5 186.56 41.17 186.6 41.2 C 186.4 41.6 186.4 41.9 186.7 41.9 C 187.1 41.9 187.7 40.9 188 40.5 C 188 40.5 188.3 40.7 188.3 40.7 C 187.8 41.7 187 42.7 186 42.7 C 185.3 42.7 185.1 42.1 185.3 41.3 C 185.3 41.3 186.5 36.9 186.5 36.9 Z M 191 36.9 C 191.2 36.5 191.2 36.3 190.8 36.3 C 190.83 36.27 190 36.2 190 36.2 L 190 35.9 L 192.6 35.5 L 192.7 35.5 L 191.8 38.6 C 191.8 38.6 191.81 38.59 191.8 38.6 C 192.6 37 194.1 35.5 195.4 35.5 C 196.6 35.5 196.8 36.4 196.4 37.5 C 196.4 37.5 195.4 41.2 195.4 41.2 C 195.2 41.6 195.2 41.9 195.5 41.9 C 195.9 41.9 196.5 40.9 196.8 40.5 C 196.8 40.5 197.1 40.7 197.1 40.7 C 196.6 41.7 195.8 42.7 194.8 42.7 C 194 42.7 193.8 42.1 194.1 41.3 C 194.1 41.3 195.3 37.2 195.3 37.2 C 195.4 36.6 195.3 36.2 194.8 36.2 C 193.7 36.2 192.3 38.2 191.8 39.4 C 191.4 40.3 191.2 41.1 190.8 42.5 C 190.8 42.5 189.6 42.7 189.6 42.7 C 189.6 42.7 191.04 36.94 191 36.9 Z M 202.3 35.5 C 203.4 35.5 204.8 36 204.8 37.9 C 204.8 38.7 204.5 39.9 203.9 40.9 C 203.2 41.9 202.3 42.7 200.7 42.7 C 199 42.7 198.2 41.6 198.2 40.1 C 198.2 38.9 199 35.5 202.3 35.5 Z M 200.8 42.2 C 202.7 42.2 203.4 38.4 203.4 37.4 C 203.4 36.6 203.1 36 202.3 36 C 200.4 36 199.5 39.2 199.5 40.7 C 199.5 41.7 200 42.2 200.8 42.2 Z M 206.3 40.9 C 206.8 40.9 207.1 41.3 207.1 41.7 C 207.1 42.3 206.7 42.7 206.2 42.7 C 205.7 42.7 205.4 42.3 205.4 41.9 C 205.4 41.3 205.8 40.9 206.3 40.9 Z " stroke="none" fill="#000"/>
  </g>
  <g id="Polygon17306">
    <path d="M 7.6 20.9 C 7.7 20.5 7.7 20.3 7.3 20.3 C 7.34 20.27 6.5 20.2 6.5 20.2 L 6.6 19.9 L 9.1 19.5 L 9.2 19.5 L 8.3 22.6 C 8.3 22.6 8.32 22.59 8.3 22.6 C 9.2 21 10.6 19.5 12 19.5 C 13.1 19.5 13.3 20.4 13 21.5 C 13 21.5 11.9 25.2 11.9 25.2 C 11.7 25.6 11.7 25.9 12 25.9 C 12.4 25.9 13 24.9 13.3 24.5 C 13.3 24.5 13.6 24.7 13.6 24.7 C 13.1 25.7 12.3 26.7 11.3 26.7 C 10.5 26.7 10.4 26.1 10.6 25.3 C 10.6 25.3 11.8 21.2 11.8 21.2 C 11.9 20.6 11.8 20.2 11.3 20.2 C 10.2 20.2 8.8 22.2 8.3 23.4 C 8 24.3 7.7 25.1 7.3 26.5 C 7.31 26.5 6.1 26.7 6.1 26.7 C 6.1 26.7 7.55 20.94 7.6 20.9 Z M 19.4 19.5 C 19.7 19.5 20.1 19.6 20.4 19.8 C 20.37 19.77 20.4 19.6 20.4 19.6 L 21.6 19.6 C 21.6 19.6 20.14 25.17 20.1 25.2 C 20 25.6 20 25.9 20.3 25.9 C 20.7 25.9 21.3 24.9 21.5 24.5 C 21.5 24.5 21.9 24.7 21.9 24.7 C 21.4 25.7 20.6 26.7 19.5 26.7 C 18.8 26.7 18.6 26.1 18.9 25.1 C 18.93 25.1 19.4 23.5 19.4 23.5 C 19.4 23.5 19.38 23.5 19.4 23.5 C 18.6 24.9 17.3 26.7 15.8 26.7 C 14.8 26.7 14.4 25.8 14.4 25 C 14.4 23.2 16 19.5 19.4 19.5 Z M 16.4 25.9 C 17.1 25.9 18 25 18.7 23.8 C 19.5 22.7 20 21.3 20.2 20.3 C 20 20.1 19.7 20 19.4 20 C 17.2 20 15.8 23.4 15.8 25 C 15.8 25.5 16 25.9 16.4 25.9 Z M 24.1 25.9 C 24.1 25.9 24.1 25.9 24.1 25.9 C 23.5 25.6 23.1 25.3 23.1 24.8 C 23.1 24.3 23.9 24 24.4 23.8 C 24.4 23.8 24.4 23.8 24.4 23.8 C 23.9 23.6 23.2 23.1 23.2 22 C 23.2 21.1 23.9 19.5 26.2 19.5 C 26.8 19.5 27.5 19.7 27.9 19.9 C 27.89 19.89 29.9 19.3 29.9 19.3 L 30 19.5 L 29.5 20.3 C 29.5 20.3 28.37 20.51 28.4 20.5 C 28.6 20.7 28.7 21.1 28.7 21.5 C 28.7 22.9 27.6 24 25.6 24 C 25.4 24 25.2 24 24.9 23.9 C 24.5 24 24.3 24.2 24.3 24.5 C 24.3 24.9 24.8 25.1 26 25.4 C 27.6 25.7 28.4 26.5 28.4 27.6 C 28.4 29.1 26.9 29.9 25 29.9 C 23.2 29.9 21.9 29.1 21.9 27.8 C 21.9 26.7 23.1 26.1 24.1 25.9 Z M 25.3 29.4 C 26.4 29.4 27.2 28.9 27.2 27.8 C 27.2 26.6 25.6 26.3 24.7 26.1 C 24.1 26.2 23.2 26.7 23.2 27.7 C 23.2 28.7 24.1 29.4 25.3 29.4 Z M 25.7 23.5 C 26.7 23.5 27.4 22.4 27.4 21.1 C 27.4 20.2 26.7 20 26.3 20 C 24.9 20 24.5 21.4 24.5 22.3 C 24.5 23 24.9 23.5 25.7 23.5 Z M 32 17.6 C 32.1 17 32 16.9 31.7 16.9 C 31.67 16.87 30.9 16.8 30.9 16.8 L 31 16.4 L 33.5 16.1 L 33.5 16.2 L 32 22.6 C 32 22.6 32.02 22.59 32 22.6 C 32.9 20.9 34.4 19.5 35.7 19.5 C 36.9 19.5 37 20.4 36.7 21.5 C 36.7 21.5 35.6 25.2 35.6 25.2 C 35.5 25.6 35.5 25.9 35.7 25.9 C 36.1 25.9 36.8 24.9 37 24.5 C 37 24.5 37.3 24.7 37.3 24.7 C 36.9 25.7 36.1 26.7 35.1 26.7 C 34.3 26.7 34.1 26.1 34.4 25.2 C 34.4 25.2 35.5 21.2 35.5 21.2 C 35.7 20.6 35.5 20.2 35.1 20.2 C 33.9 20.2 32.5 22.3 32.1 23.4 C 31.7 24.3 31.5 25.1 31.1 26.5 C 31.13 26.5 29.9 26.7 29.9 26.7 C 29.9 26.7 31.95 17.55 32 17.6 Z M 43.1 19.5 C 43.5 19.5 43.9 19.6 44.1 19.8 C 44.13 19.77 44.2 19.6 44.2 19.6 L 45.4 19.6 C 45.4 19.6 43.89 25.17 43.9 25.2 C 43.8 25.6 43.8 25.9 44 25.9 C 44.4 25.9 45 24.9 45.3 24.5 C 45.3 24.5 45.6 24.7 45.6 24.7 C 45.2 25.7 44.4 26.7 43.3 26.7 C 42.6 26.7 42.4 26.1 42.7 25.1 C 42.69 25.1 43.2 23.5 43.2 23.5 C 43.2 23.5 43.14 23.5 43.1 23.5 C 42.3 24.9 41 26.7 39.5 26.7 C 38.6 26.7 38.2 25.8 38.2 25 C 38.2 23.2 39.8 19.5 43.1 19.5 Z M 40.2 25.9 C 40.9 25.9 41.7 25 42.5 23.8 C 43.2 22.7 43.7 21.3 44 20.3 C 43.8 20.1 43.5 20 43.1 20 C 40.9 20 39.6 23.4 39.6 25 C 39.6 25.5 39.7 25.9 40.2 25.9 Z M 48.6 17.6 C 48.7 17 48.7 16.9 48.3 16.9 C 48.3 16.87 47.5 16.8 47.5 16.8 L 47.6 16.4 L 50.1 16.1 L 50.2 16.2 L 48.6 22.6 C 48.6 22.6 48.65 22.59 48.7 22.6 C 49.6 20.9 51 19.5 52.4 19.5 C 53.5 19.5 53.7 20.4 53.3 21.5 C 53.3 21.5 52.2 25.2 52.2 25.2 C 52.1 25.6 52.1 25.9 52.4 25.9 C 52.8 25.9 53.4 24.9 53.6 24.5 C 53.6 24.5 54 24.7 54 24.7 C 53.5 25.7 52.7 26.7 51.7 26.7 C 51 26.7 50.8 26.1 51 25.2 C 51 25.2 52.2 21.2 52.2 21.2 C 52.3 20.6 52.2 20.2 51.7 20.2 C 50.5 20.2 49.1 22.3 48.7 23.4 C 48.3 24.3 48.1 25.1 47.8 26.5 C 47.76 26.5 46.5 26.7 46.5 26.7 C 46.5 26.7 48.58 17.55 48.6 17.6 Z M 59.7 19.5 C 60.1 19.5 60.5 19.6 60.8 19.8 C 60.76 19.77 60.8 19.6 60.8 19.6 L 62 19.6 C 62 19.6 60.53 25.17 60.5 25.2 C 60.4 25.6 60.4 25.9 60.7 25.9 C 61.1 25.9 61.7 24.9 61.9 24.5 C 61.9 24.5 62.3 24.7 62.3 24.7 C 61.8 25.7 61 26.7 59.9 26.7 C 59.2 26.7 59 26.1 59.3 25.1 C 59.32 25.1 59.8 23.5 59.8 23.5 C 59.8 23.5 59.77 23.5 59.8 23.5 C 59 24.9 57.7 26.7 56.2 26.7 C 55.2 26.7 54.8 25.8 54.8 25 C 54.8 23.2 56.4 19.5 59.7 19.5 Z M 56.8 25.9 C 57.5 25.9 58.3 25 59.1 23.8 C 59.9 22.7 60.4 21.3 60.6 20.3 C 60.4 20.1 60.1 20 59.8 20 C 57.6 20 56.2 23.4 56.2 25 C 56.2 25.5 56.4 25.9 56.8 25.9 Z M 64.7 20.9 C 64.9 20.5 64.9 20.3 64.5 20.3 C 64.52 20.27 63.6 20.2 63.6 20.2 L 63.7 19.9 L 66.3 19.5 L 66.4 19.5 L 65.5 22.6 C 65.5 22.6 65.5 22.59 65.5 22.6 C 66.3 21 67.8 19.5 69.1 19.5 C 70.3 19.5 70.5 20.4 70.1 21.5 C 70.1 21.5 69 25.2 69 25.2 C 68.9 25.6 68.9 25.9 69.2 25.9 C 69.6 25.9 70.2 24.9 70.4 24.5 C 70.4 24.5 70.8 24.7 70.8 24.7 C 70.3 25.7 69.5 26.7 68.5 26.7 C 67.7 26.7 67.5 26.1 67.8 25.3 C 67.8 25.3 69 21.2 69 21.2 C 69.1 20.6 69 20.2 68.5 20.2 C 67.4 20.2 66 22.2 65.5 23.4 C 65.1 24.3 64.9 25.1 64.5 26.5 C 64.49 26.5 63.3 26.7 63.3 26.7 C 63.3 26.7 64.73 20.94 64.7 20.9 Z M 73.3 25.9 C 73.3 25.9 73.3 25.9 73.3 25.9 C 72.7 25.6 72.3 25.3 72.3 24.8 C 72.3 24.3 73.1 24 73.5 23.8 C 73.5 23.8 73.5 23.8 73.5 23.8 C 73.1 23.6 72.4 23.1 72.4 22 C 72.4 21.1 73 19.5 75.3 19.5 C 76 19.5 76.7 19.7 77.1 19.9 C 77.07 19.89 79.1 19.3 79.1 19.3 L 79.2 19.5 L 78.7 20.3 C 78.7 20.3 77.55 20.51 77.6 20.5 C 77.7 20.7 77.8 21.1 77.8 21.5 C 77.8 22.9 76.8 24 74.8 24 C 74.6 24 74.3 24 74.1 23.9 C 73.7 24 73.4 24.2 73.4 24.5 C 73.4 24.9 74 25.1 75.1 25.4 C 76.8 25.7 77.6 26.5 77.6 27.6 C 77.6 29.1 76.1 29.9 74.2 29.9 C 72.4 29.9 71.1 29.1 71.1 27.8 C 71.1 26.7 72.3 26.1 73.3 25.9 Z M 74.5 29.4 C 75.5 29.4 76.4 28.9 76.4 27.8 C 76.4 26.6 74.8 26.3 73.9 26.1 C 73.3 26.2 72.4 26.7 72.4 27.7 C 72.4 28.7 73.3 29.4 74.5 29.4 Z M 74.8 23.5 C 75.9 23.5 76.6 22.4 76.6 21.1 C 76.6 20.2 75.9 20 75.4 20 C 74.1 20 73.7 21.4 73.7 22.3 C 73.7 23 74.1 23.5 74.8 23.5 Z M 83.7 19.5 C 84 19.5 84.4 19.6 84.7 19.8 C 84.68 19.77 84.7 19.6 84.7 19.6 L 85.9 19.6 C 85.9 19.6 84.44 25.17 84.4 25.2 C 84.3 25.6 84.3 25.9 84.6 25.9 C 85 25.9 85.6 24.9 85.8 24.5 C 85.8 24.5 86.2 24.7 86.2 24.7 C 85.7 25.7 84.9 26.7 83.9 26.7 C 83.1 26.7 82.9 26.1 83.2 25.1 C 83.23 25.1 83.7 23.5 83.7 23.5 C 83.7 23.5 83.68 23.5 83.7 23.5 C 82.9 24.9 81.6 26.7 80.1 26.7 C 79.1 26.7 78.7 25.8 78.7 25 C 78.7 23.2 80.3 19.5 83.7 19.5 Z M 80.7 25.9 C 81.4 25.9 82.3 25 83 23.8 C 83.8 22.7 84.3 21.3 84.5 20.3 C 84.3 20.1 84 20 83.7 20 C 81.5 20 80.1 23.4 80.1 25 C 80.1 25.5 80.3 25.9 80.7 25.9 Z M 91.6 19.5 C 92 19.5 92.5 19.6 92.7 19.7 C 92.74 19.71 92.8 19.7 92.8 19.7 C 92.8 19.7 93.3 17.43 93.3 17.4 C 93.4 17 93.4 16.9 93 16.9 C 93.05 16.85 92.2 16.8 92.2 16.8 L 92.3 16.4 L 94.8 16.1 L 94.9 16.2 C 94.9 16.2 92.64 25.17 92.6 25.2 C 92.5 25.6 92.5 25.9 92.8 25.9 C 93.2 25.9 93.8 24.9 94 24.5 C 94 24.5 94.4 24.7 94.4 24.7 C 93.9 25.7 93.1 26.7 92.1 26.7 C 91.4 26.7 91.2 26.1 91.5 25.1 C 91.45 25.11 91.9 23.4 91.9 23.4 C 91.9 23.4 91.89 23.45 91.9 23.4 C 91.1 24.9 89.8 26.7 88.2 26.7 C 87.1 26.7 86.8 25.7 86.8 24.8 C 86.8 23.1 88.3 19.5 91.6 19.5 Z M 88.9 25.9 C 89.6 25.9 90.6 24.9 91.2 23.8 C 91.9 22.6 92.4 21.3 92.6 20.2 C 92.4 20.1 92.1 20 91.6 20 C 89.4 20 88.2 23.4 88.2 24.9 C 88.2 25.6 88.4 25.9 88.9 25.9 Z M 100.3 20.9 C 100.4 20.5 100.4 20.3 100.1 20.3 C 100.08 20.27 99.2 20.2 99.2 20.2 L 99.3 19.9 L 101.9 19.5 L 101.9 19.5 L 101 22.6 C 101 22.6 101.06 22.59 101.1 22.6 C 101.9 21 103.4 19.5 104.7 19.5 C 105.8 19.5 106 20.4 105.7 21.5 C 105.7 21.5 104.6 25.2 104.6 25.2 C 104.5 25.6 104.5 25.9 104.7 25.9 C 105.1 25.9 105.7 24.9 106 24.5 C 106 24.5 106.3 24.7 106.3 24.7 C 105.9 25.7 105.1 26.7 104 26.7 C 103.3 26.7 103.1 26.1 103.3 25.3 C 103.3 25.3 104.5 21.2 104.5 21.2 C 104.7 20.6 104.5 20.2 104.1 20.2 C 102.9 20.2 101.6 22.2 101.1 23.4 C 100.7 24.3 100.5 25.1 100 26.5 C 100.05 26.5 98.8 26.7 98.8 26.7 C 98.8 26.7 100.29 20.94 100.3 20.9 Z M 108.8 25.9 C 108.8 25.9 108.8 25.9 108.8 25.9 C 108.2 25.6 107.8 25.3 107.8 24.8 C 107.8 24.3 108.7 24 109.1 23.8 C 109.1 23.8 109.1 23.8 109.1 23.8 C 108.7 23.6 107.9 23.1 107.9 22 C 107.9 21.1 108.6 19.5 110.9 19.5 C 111.6 19.5 112.3 19.7 112.6 19.9 C 112.63 19.89 114.7 19.3 114.7 19.3 L 114.7 19.5 L 114.3 20.3 C 114.3 20.3 113.11 20.51 113.1 20.5 C 113.3 20.7 113.4 21.1 113.4 21.5 C 113.4 22.9 112.3 24 110.4 24 C 110.2 24 109.9 24 109.6 23.9 C 109.3 24 109 24.2 109 24.5 C 109 24.9 109.5 25.1 110.7 25.4 C 112.4 25.7 113.2 26.5 113.2 27.6 C 113.2 29.1 111.6 29.9 109.7 29.9 C 108 29.9 106.7 29.1 106.7 27.8 C 106.7 26.7 107.9 26.1 108.8 25.9 Z M 110 29.4 C 111.1 29.4 112 28.9 112 27.8 C 112 26.6 110.3 26.3 109.4 26.1 C 108.9 26.2 107.9 26.7 107.9 27.7 C 107.9 28.7 108.8 29.4 110 29.4 Z M 110.4 23.5 C 111.4 23.5 112.1 22.4 112.1 21.1 C 112.1 20.2 111.4 20 111 20 C 109.7 20 109.2 21.4 109.2 22.3 C 109.2 23 109.7 23.5 110.4 23.5 Z M 119.9 17.6 C 120 17 119.9 16.9 119.6 16.9 C 119.58 16.87 118.8 16.8 118.8 16.8 L 118.9 16.4 L 121.4 16.1 L 121.4 16.2 L 119.9 22.4 C 119.9 22.4 119.91 22.36 119.9 22.4 C 121 20.4 122.4 19.5 123.4 19.5 C 124.5 19.5 124.9 20.2 124.9 21.2 C 124.9 21.9 124.7 23.1 124 24.3 C 123.3 25.6 122.1 26.7 120.5 26.7 C 119.7 26.7 119 26.3 118.7 25.7 C 118.74 25.69 118.3 26.5 118.3 26.5 L 117.8 26.5 C 117.8 26.5 119.86 17.55 119.9 17.6 Z M 120.7 26.2 C 122.7 26.2 123.6 22.4 123.6 21.4 C 123.6 20.6 123.3 20.2 122.8 20.2 C 121.9 20.2 120.9 21.4 120.3 22.5 C 119.8 23.3 119.5 24.3 119.5 25 C 119.5 25.7 120 26.2 120.7 26.2 Z M 126.5 19.9 L 129 19.5 L 129.1 19.5 C 129.1 19.5 127.74 24.71 127.7 24.7 C 127.5 25.5 127.6 25.9 128.1 25.9 C 129.3 25.9 130.5 24.1 131.1 22.7 C 131.4 21.8 131.7 21.1 132.1 19.6 C 132.08 19.64 133.3 19.5 133.3 19.5 C 133.3 19.5 131.83 25.18 131.8 25.2 C 131.7 25.6 131.7 25.9 132 25.9 C 132.4 25.9 133 24.9 133.3 24.5 C 133.3 24.5 133.6 24.7 133.6 24.7 C 133.1 25.7 132.3 26.7 131.3 26.7 C 130.6 26.7 130.4 26.1 130.7 25.2 C 130.65 25.16 131.1 23.6 131.1 23.6 C 131.1 23.6 131.09 23.56 131.1 23.6 C 130.2 25.2 128.8 26.7 127.4 26.7 C 126.3 26.7 126.2 25.8 126.5 24.6 C 126.5 24.6 127.5 20.9 127.5 20.9 C 127.6 20.5 127.6 20.3 127.2 20.3 C 127.25 20.27 126.4 20.2 126.4 20.2 L 126.5 19.9 Z M 136.7 17.6 C 136.9 17 136.8 16.9 136.5 16.9 C 136.46 16.87 135.7 16.8 135.7 16.8 L 135.7 16.4 L 138.3 16.1 L 138.3 16.2 L 136.8 22.6 C 136.8 22.6 136.81 22.59 136.8 22.6 C 137.7 20.9 139.2 19.5 140.5 19.5 C 141.7 19.5 141.8 20.4 141.5 21.5 C 141.5 21.5 140.4 25.2 140.4 25.2 C 140.3 25.6 140.3 25.9 140.5 25.9 C 140.9 25.9 141.5 24.9 141.8 24.5 C 141.8 24.5 142.1 24.7 142.1 24.7 C 141.7 25.7 140.9 26.7 139.9 26.7 C 139.1 26.7 138.9 26.1 139.2 25.2 C 139.2 25.2 140.3 21.2 140.3 21.2 C 140.5 20.6 140.3 20.2 139.9 20.2 C 138.7 20.2 137.3 22.3 136.9 23.4 C 136.5 24.3 136.3 25.1 135.9 26.5 C 135.92 26.5 134.7 26.7 134.7 26.7 C 134.7 26.7 136.74 17.55 136.7 17.6 Z M 147.9 19.5 C 148.3 19.5 148.7 19.6 148.9 19.8 C 148.92 19.77 149 19.6 149 19.6 L 150.2 19.6 C 150.2 19.6 148.68 25.17 148.7 25.2 C 148.6 25.6 148.5 25.9 148.8 25.9 C 149.2 25.9 149.8 24.9 150.1 24.5 C 150.1 24.5 150.4 24.7 150.4 24.7 C 149.9 25.7 149.2 26.7 148.1 26.7 C 147.3 26.7 147.2 26.1 147.5 25.1 C 147.48 25.1 148 23.5 148 23.5 C 148 23.5 147.93 23.5 147.9 23.5 C 147.1 24.9 145.8 26.7 144.3 26.7 C 143.4 26.7 143 25.8 143 25 C 143 23.2 144.6 19.5 147.9 19.5 Z M 145 25.9 C 145.6 25.9 146.5 25 147.3 23.8 C 148 22.7 148.5 21.3 148.8 20.3 C 148.6 20.1 148.3 20 147.9 20 C 145.7 20 144.4 23.4 144.4 25 C 144.4 25.5 144.5 25.9 145 25.9 Z M 150.7 28.3 C 150.9 28.3 151 28.4 151.2 28.6 C 151.4 28.9 151.5 29 151.7 29 C 152 29 152.4 28.6 152.6 28.1 C 153 27.3 153 26.7 153 26.3 C 153 25.2 152.7 22.5 152.5 21.4 C 152.4 20.7 152.3 20.5 152 20.5 C 152.03 20.47 151.1 20.5 151.1 20.5 L 151 20.1 L 153.4 19.5 C 153.4 19.5 153.5 19.53 153.5 19.5 C 153.7 20.5 154 23.5 154.1 25.6 C 154.1 25.6 154.1 25.6 154.1 25.6 C 155 24 155.9 22.5 156.1 21.8 C 156.2 21.2 156.3 20.3 156.3 19.8 C 156.6 19.6 157.1 19.5 157.3 19.5 C 157.4 19.5 157.6 19.8 157.6 20.3 C 157.6 20.8 156.7 22.2 155.9 23.5 C 155.1 24.9 154.2 26.4 153.9 26.9 C 152.7 29 152.2 29.9 151 29.9 C 150.4 29.9 150 29.5 150 29.1 C 150 28.7 150.3 28.3 150.7 28.3 Z M 162.9 20.9 C 163 20.5 163 20.3 162.7 20.3 C 162.65 20.27 161.8 20.2 161.8 20.2 L 161.9 19.9 L 164.4 19.5 L 164.5 19.5 L 163.6 22.6 C 163.6 22.6 163.63 22.59 163.6 22.6 C 164.5 21 165.9 19.5 167.3 19.5 C 168.4 19.5 168.6 20.4 168.3 21.5 C 168.3 21.5 167.2 25.2 167.2 25.2 C 167.1 25.6 167 25.9 167.3 25.9 C 167.7 25.9 168.3 24.9 168.6 24.5 C 168.6 24.5 168.9 24.7 168.9 24.7 C 168.4 25.7 167.7 26.7 166.6 26.7 C 165.8 26.7 165.7 26.1 165.9 25.3 C 165.9 25.3 167.1 21.2 167.1 21.2 C 167.2 20.6 167.1 20.2 166.6 20.2 C 165.5 20.2 164.2 22.2 163.6 23.4 C 163.3 24.3 163 25.1 162.6 26.5 C 162.63 26.5 161.4 26.7 161.4 26.7 C 161.4 26.7 162.86 20.94 162.9 20.9 Z M 174.7 19.5 C 175 19.5 175.5 19.6 175.7 19.8 C 175.69 19.77 175.8 19.6 175.8 19.6 L 176.9 19.6 C 176.9 19.6 175.45 25.17 175.5 25.2 C 175.3 25.6 175.3 25.9 175.6 25.9 C 176 25.9 176.6 24.9 176.9 24.5 C 176.9 24.5 177.2 24.7 177.2 24.7 C 176.7 25.7 175.9 26.7 174.9 26.7 C 174.1 26.7 174 26.1 174.2 25.1 C 174.25 25.1 174.7 23.5 174.7 23.5 C 174.7 23.5 174.69 23.5 174.7 23.5 C 173.9 24.9 172.6 26.7 171.1 26.7 C 170.1 26.7 169.7 25.8 169.7 25 C 169.7 23.2 171.3 19.5 174.7 19.5 Z M 171.7 25.9 C 172.4 25.9 173.3 25 174.1 23.8 C 174.8 22.7 175.3 21.3 175.5 20.3 C 175.3 20.1 175 20 174.7 20 C 172.5 20 171.1 23.4 171.1 25 C 171.1 25.5 171.3 25.9 171.7 25.9 Z M 183.6 17.6 C 183.7 17 183.6 16.9 183.3 16.9 C 183.28 16.87 182.5 16.8 182.5 16.8 L 182.6 16.4 L 185.1 16.1 L 185.1 16.2 L 182.7 26.5 L 181.4 26.7 C 181.4 26.7 183.56 17.55 183.6 17.6 Z M 185.8 20.5 C 186.6 19.9 187.2 19.5 187.8 19.5 C 188.3 19.5 188.5 19.8 188.5 20.2 C 188.5 20.5 188.2 20.9 187.8 20.9 C 187.7 20.9 187.5 20.9 187.4 20.8 C 187.1 20.6 187 20.5 186.8 20.5 C 186.3 20.5 185.2 21.7 184.8 22.2 C 185 23.1 185.4 24 185.8 24.9 C 186.2 25.6 186.4 25.9 186.6 25.9 C 187 25.9 187.3 25.4 187.7 24.5 C 187.7 24.5 188.1 24.7 188.1 24.7 C 187.7 25.9 187 26.7 186.1 26.7 C 185.5 26.7 185.1 26.2 184.7 25.3 C 184.3 24.5 183.9 23.7 183.7 22.8 C 184.3 22 185.1 21.2 185.8 20.5 Z M 193.7 19.5 C 194.1 19.5 194.5 19.6 194.7 19.8 C 194.74 19.77 194.8 19.6 194.8 19.6 L 196 19.6 C 196 19.6 194.5 25.17 194.5 25.2 C 194.4 25.6 194.4 25.9 194.6 25.9 C 195 25.9 195.7 24.9 195.9 24.5 C 195.9 24.5 196.2 24.7 196.2 24.7 C 195.8 25.7 195 26.7 193.9 26.7 C 193.2 26.7 193 26.1 193.3 25.1 C 193.3 25.1 193.8 23.5 193.8 23.5 C 193.8 23.5 193.75 23.5 193.7 23.5 C 192.9 24.9 191.6 26.7 190.1 26.7 C 189.2 26.7 188.8 25.8 188.8 25 C 188.8 23.2 190.4 19.5 193.7 19.5 Z M 190.8 25.9 C 191.5 25.9 192.3 25 193.1 23.8 C 193.8 22.7 194.4 21.3 194.6 20.3 C 194.4 20.1 194.1 20 193.7 20 C 191.6 20 190.2 23.4 190.2 25 C 190.2 25.5 190.3 25.9 190.8 25.9 Z M 198.6 20.9 C 198.7 20.5 198.7 20.3 198.4 20.3 C 198.4 20.27 197.5 20.2 197.5 20.2 L 197.6 19.9 L 200 19.5 L 200.1 19.5 L 199.5 21.9 C 199.5 21.9 199.49 21.87 199.5 21.9 C 200.2 20.4 201.2 19.5 202 19.5 C 202.4 19.5 202.6 19.7 202.6 20.1 C 202.6 20.5 202.3 21 202 21 C 201.5 21 201.4 20.6 201 20.6 C 200.5 20.6 199.8 21.8 199.3 23.6 C 199 24.5 198.8 25.6 198.5 26.5 C 198.52 26.5 197.3 26.7 197.3 26.7 C 197.3 26.7 198.61 20.94 198.6 20.9 Z M 207.2 19.5 C 207.6 19.5 208 19.6 208.2 19.8 C 208.22 19.77 208.3 19.6 208.3 19.6 L 209.5 19.6 C 209.5 19.6 207.99 25.17 208 25.2 C 207.9 25.6 207.8 25.9 208.1 25.9 C 208.5 25.9 209.1 24.9 209.4 24.5 C 209.4 24.5 209.7 24.7 209.7 24.7 C 209.2 25.7 208.5 26.7 207.4 26.7 C 206.6 26.7 206.5 26.1 206.8 25.1 C 206.78 25.1 207.3 23.5 207.3 23.5 C 207.3 23.5 207.23 23.5 207.2 23.5 C 206.4 24.9 205.1 26.7 203.6 26.7 C 202.7 26.7 202.3 25.8 202.3 25 C 202.3 23.2 203.9 19.5 207.2 19.5 Z M 204.3 25.9 C 204.9 25.9 205.8 25 206.6 23.8 C 207.3 22.7 207.8 21.3 208.1 20.3 C 207.9 20.1 207.6 20 207.2 20 C 205 20 203.7 23.4 203.7 25 C 203.7 25.5 203.8 25.9 204.3 25.9 Z M 212.1 20.9 C 212.2 20.5 212.2 20.3 211.9 20.3 C 211.89 20.27 211 20.2 211 20.2 L 211.1 19.9 L 213.6 19.5 L 213.7 19.5 L 212.9 22.5 C 212.9 22.5 212.96 22.5 213 22.5 C 214 20.5 215.4 19.5 216.5 19.5 C 217.5 19.5 218 20.1 218 21.3 C 218 22.4 217.1 26.7 213.7 26.7 C 212.9 26.7 212.5 26.5 212.2 26.4 C 212.16 26.36 211.4 29.7 211.4 29.7 L 210.1 29.9 C 210.1 29.9 212.1 20.94 212.1 20.9 Z M 213.5 26.2 C 215.8 26.2 216.7 22.5 216.7 21.4 C 216.7 20.6 216.4 20.2 215.9 20.2 C 215.1 20.2 214.1 21.3 213.4 22.5 C 212.9 23.4 212.5 24.9 212.3 25.8 C 212.6 26 213 26.2 213.5 26.2 Z M 223.6 19.5 C 224 19.5 224.4 19.6 224.6 19.8 C 224.62 19.77 224.7 19.6 224.7 19.6 L 225.9 19.6 C 225.9 19.6 224.38 25.17 224.4 25.2 C 224.3 25.6 224.2 25.9 224.5 25.9 C 224.9 25.9 225.5 24.9 225.8 24.5 C 225.8 24.5 226.1 24.7 226.1 24.7 C 225.6 25.7 224.9 26.7 223.8 26.7 C 223 26.7 222.9 26.1 223.2 25.1 C 223.18 25.1 223.7 23.5 223.7 23.5 C 223.7 23.5 223.62 23.5 223.6 23.5 C 222.8 24.9 221.5 26.7 220 26.7 C 219.1 26.7 218.7 25.8 218.7 25 C 218.7 23.2 220.3 19.5 223.6 19.5 Z M 220.7 25.9 C 221.3 25.9 222.2 25 223 23.8 C 223.7 22.7 224.2 21.3 224.5 20.3 C 224.3 20.1 224 20 223.6 20 C 221.4 20 220.1 23.4 220.1 25 C 220.1 25.5 220.2 25.9 220.7 25.9 Z M 228.7 20.2 L 227.6 20.2 L 227.7 19.6 L 228.9 19.6 L 229.1 19 L 230.4 17.9 L 230.6 18 L 230.1 19.6 L 231.9 19.6 L 231.7 20.2 L 230 20.2 C 230 20.2 228.73 25.27 228.7 25.3 C 228.6 25.6 228.6 25.9 228.9 25.9 C 229.4 25.9 230.1 25 230.4 24.5 C 230.4 24.5 230.7 24.7 230.7 24.7 C 230.2 25.7 229.3 26.7 228.1 26.7 C 227.4 26.7 227.3 26.1 227.5 25.3 C 227.49 25.3 228.7 20.2 228.7 20.2 Z M 236.4 19.5 C 236.9 19.5 237.3 19.6 237.6 19.7 C 237.6 19.71 237.6 19.7 237.6 19.7 C 237.6 19.7 238.16 17.43 238.2 17.4 C 238.3 17 238.2 16.9 237.9 16.9 C 237.9 16.85 237.1 16.8 237.1 16.8 L 237.1 16.4 L 239.6 16.1 L 239.7 16.2 C 239.7 16.2 237.5 25.17 237.5 25.2 C 237.4 25.6 237.4 25.9 237.6 25.9 C 238 25.9 238.6 24.9 238.9 24.5 C 238.9 24.5 239.2 24.7 239.2 24.7 C 238.8 25.7 238 26.7 237 26.7 C 236.2 26.7 236 26.1 236.3 25.1 C 236.31 25.11 236.8 23.4 236.8 23.4 C 236.8 23.4 236.74 23.45 236.7 23.4 C 235.9 24.9 234.7 26.7 233.1 26.7 C 231.9 26.7 231.7 25.7 231.7 24.8 C 231.7 23.1 233.2 19.5 236.4 19.5 Z M 233.7 25.9 C 234.5 25.9 235.4 24.9 236.1 23.8 C 236.8 22.6 237.3 21.3 237.5 20.2 C 237.3 20.1 236.9 20 236.5 20 C 234.3 20 233 23.4 233 24.9 C 233 25.6 233.3 25.9 233.7 25.9 Z M 244.9 19.5 C 245.2 19.5 245.6 19.6 245.9 19.8 C 245.88 19.77 246 19.6 246 19.6 L 247.1 19.6 C 247.1 19.6 245.65 25.17 245.6 25.2 C 245.5 25.6 245.5 25.9 245.8 25.9 C 246.2 25.9 246.8 24.9 247 24.5 C 247 24.5 247.4 24.7 247.4 24.7 C 246.9 25.7 246.1 26.7 245.1 26.7 C 244.3 26.7 244.1 26.1 244.4 25.1 C 244.44 25.1 244.9 23.5 244.9 23.5 C 244.9 23.5 244.89 23.5 244.9 23.5 C 244.1 24.9 242.8 26.7 241.3 26.7 C 240.3 26.7 239.9 25.8 239.9 25 C 239.9 23.2 241.5 19.5 244.9 19.5 Z M 241.9 25.9 C 242.6 25.9 243.5 25 244.2 23.8 C 245 22.7 245.5 21.3 245.7 20.3 C 245.5 20.1 245.2 20 244.9 20 C 242.7 20 241.3 23.4 241.3 25 C 241.3 25.5 241.5 25.9 241.9 25.9 Z M 249.8 20.9 C 249.9 20.5 249.9 20.3 249.6 20.3 C 249.55 20.27 248.7 20.2 248.7 20.2 L 248.8 19.9 L 251.3 19.5 L 251.4 19.5 L 250.6 22.5 C 250.6 22.5 250.62 22.5 250.6 22.5 C 251.7 20.5 253.1 19.5 254.1 19.5 C 255.2 19.5 255.7 20.1 255.7 21.3 C 255.7 22.4 254.8 26.7 251.3 26.7 C 250.6 26.7 250.1 26.5 249.8 26.4 C 249.82 26.36 249 29.7 249 29.7 L 247.8 29.9 C 247.8 29.9 249.76 20.94 249.8 20.9 Z M 251.2 26.2 C 253.5 26.2 254.3 22.5 254.3 21.4 C 254.3 20.6 254.1 20.2 253.6 20.2 C 252.8 20.2 251.7 21.3 251.1 22.5 C 250.5 23.4 250.1 24.9 250 25.8 C 250.3 26 250.6 26.2 251.2 26.2 Z M 261.3 19.5 C 261.6 19.5 262 19.6 262.3 19.8 C 262.28 19.77 262.3 19.6 262.3 19.6 L 263.5 19.6 C 263.5 19.6 262.04 25.17 262 25.2 C 261.9 25.6 261.9 25.9 262.2 25.9 C 262.6 25.9 263.2 24.9 263.4 24.5 C 263.4 24.5 263.8 24.7 263.8 24.7 C 263.3 25.7 262.5 26.7 261.5 26.7 C 260.7 26.7 260.5 26.1 260.8 25.1 C 260.84 25.1 261.3 23.5 261.3 23.5 C 261.3 23.5 261.28 23.5 261.3 23.5 C 260.5 24.9 259.2 26.7 257.7 26.7 C 256.7 26.7 256.3 25.8 256.3 25 C 256.3 23.2 257.9 19.5 261.3 19.5 Z M 258.3 25.9 C 259 25.9 259.9 25 260.6 23.8 C 261.4 22.7 261.9 21.3 262.1 20.3 C 261.9 20.1 261.6 20 261.3 20 C 259.1 20 257.7 23.4 257.7 25 C 257.7 25.5 257.9 25.9 258.3 25.9 Z M 266.4 20.2 L 265.2 20.2 L 265.4 19.6 L 266.5 19.6 L 266.7 19 L 268.1 17.9 L 268.2 18 L 267.8 19.6 L 269.5 19.6 L 269.4 20.2 L 267.6 20.2 C 267.6 20.2 266.39 25.27 266.4 25.3 C 266.3 25.6 266.3 25.9 266.6 25.9 C 267 25.9 267.8 25 268.1 24.5 C 268.1 24.5 268.4 24.7 268.4 24.7 C 267.8 25.7 266.9 26.7 265.8 26.7 C 265.1 26.7 264.9 26.1 265.1 25.3 C 265.15 25.3 266.4 20.2 266.4 20.2 Z " stroke="none" fill="#000"/>
  </g>
  <g id="Polygon17305">
    <path d="M 2.6 10.1 C 2.6 10.1 3.41 10.01 3.4 10 C 3.8 10 3.9 9.8 4 9.3 C 4 9.3 5.7 2 5.7 2 C 5.8 1.5 5.7 1.3 5.4 1.3 C 5.37 1.27 4.5 1.2 4.5 1.2 L 4.6 0.8 L 8.5 0.8 L 8.4 1.2 C 8.4 1.2 7.61 1.29 7.6 1.3 C 7.3 1.3 7.1 1.5 7 2 C 7.03 1.97 6.3 5.2 6.3 5.2 L 11 5.2 C 11 5.2 11.69 1.97 11.7 2 C 11.8 1.5 11.7 1.3 11.4 1.3 C 11.38 1.27 10.6 1.2 10.6 1.2 L 10.7 0.8 L 14.5 0.8 L 14.4 1.2 C 14.4 1.2 13.62 1.29 13.6 1.3 C 13.3 1.3 13.1 1.5 13 2 C 13 2 11.4 9.3 11.4 9.3 C 11.2 9.8 11.3 10 11.7 10 C 11.66 10.04 12.5 10.1 12.5 10.1 L 12.4 10.5 L 8.6 10.5 L 8.7 10.1 C 8.7 10.1 9.42 10.01 9.4 10 C 9.8 10 9.9 9.8 10 9.3 C 10.01 9.34 10.8 5.7 10.8 5.7 L 6.2 5.7 C 6.2 5.7 5.35 9.34 5.3 9.3 C 5.2 9.8 5.3 10 5.7 10 C 5.65 10.04 6.5 10.1 6.5 10.1 L 6.4 10.5 L 2.6 10.5 L 2.6 10.1 Z M 14.4 3.9 L 17 3.5 L 17 3.5 C 17 3.5 15.69 8.71 15.7 8.7 C 15.5 9.5 15.6 9.9 16 9.9 C 17.2 9.9 18.4 8.1 19 6.7 C 19.4 5.8 19.6 5.1 20 3.6 C 20.03 3.64 21.3 3.5 21.3 3.5 C 21.3 3.5 19.78 9.18 19.8 9.2 C 19.7 9.6 19.7 9.9 20 9.9 C 20.4 9.9 21 8.9 21.3 8.5 C 21.3 8.5 21.6 8.7 21.6 8.7 C 21.1 9.7 20.3 10.7 19.2 10.7 C 18.5 10.7 18.3 10.1 18.6 9.2 C 18.6 9.16 19.1 7.6 19.1 7.6 C 19.1 7.6 19.04 7.56 19 7.6 C 18.2 9.2 16.7 10.7 15.4 10.7 C 14.3 10.7 14.2 9.8 14.4 8.6 C 14.4 8.6 15.4 4.9 15.4 4.9 C 15.5 4.5 15.5 4.3 15.2 4.3 C 15.2 4.27 14.3 4.2 14.3 4.2 L 14.4 3.9 Z M 23.1 3.9 L 25.6 3.5 L 25.7 3.5 C 25.7 3.5 24.48 8.81 24.5 8.8 C 24.3 9.6 24.6 9.9 24.9 9.9 C 25.5 9.9 26.1 9.2 26.7 8.4 C 27.5 7.1 27.9 5.4 28.4 3.7 C 28.39 3.68 29.6 3.6 29.6 3.6 C 29.6 3.6 28.61 8.01 28.6 8 C 28.3 9.3 28.4 9.9 29.1 9.9 C 30.2 9.9 31.9 7.3 31.9 5.4 C 31.9 4.8 31.9 4.3 31.7 3.8 C 32 3.6 32.4 3.5 32.7 3.5 C 32.8 3.5 33.2 4 33.2 4.6 C 33.2 5.4 32.5 6.9 31.6 8.3 C 30.7 9.6 29.6 10.7 28.5 10.7 C 27.6 10.7 27.3 10.1 27.3 9.3 C 27.3 8.9 27.4 8.3 27.5 7.8 C 27.5 7.8 27.5 7.8 27.5 7.8 C 26.7 9.5 25.4 10.7 24.2 10.7 C 23.5 10.7 22.9 10.1 23.3 8.8 C 23.3 8.8 24.1 4.9 24.1 4.9 C 24.2 4.5 24.2 4.3 23.9 4.3 C 23.92 4.27 23.1 4.2 23.1 4.2 L 23.1 3.9 Z M 38.3 3.5 C 38.7 3.5 39.1 3.6 39.4 3.8 C 39.37 3.77 39.4 3.6 39.4 3.6 L 40.6 3.6 C 40.6 3.6 39.13 9.17 39.1 9.2 C 39 9.6 39 9.9 39.3 9.9 C 39.7 9.9 40.3 8.9 40.5 8.5 C 40.5 8.5 40.9 8.7 40.9 8.7 C 40.4 9.7 39.6 10.7 38.5 10.7 C 37.8 10.7 37.6 10.1 37.9 9.1 C 37.92 9.1 38.4 7.5 38.4 7.5 C 38.4 7.5 38.37 7.5 38.4 7.5 C 37.6 8.9 36.3 10.7 34.8 10.7 C 33.8 10.7 33.4 9.8 33.4 9 C 33.4 7.2 35 3.5 38.3 3.5 Z M 35.4 9.9 C 36.1 9.9 36.9 9 37.7 7.8 C 38.5 6.7 39 5.3 39.2 4.3 C 39 4.1 38.7 4 38.4 4 C 36.2 4 34.8 7.4 34.8 9 C 34.8 9.5 35 9.9 35.4 9.9 Z M 43.1 9.9 C 43.1 9.9 43.1 9.9 43.1 9.9 C 42.5 9.6 42.1 9.3 42.1 8.8 C 42.1 8.3 42.9 8 43.3 7.8 C 43.3 7.8 43.3 7.8 43.3 7.8 C 42.9 7.6 42.2 7.1 42.2 6 C 42.2 5.1 42.9 3.5 45.1 3.5 C 45.8 3.5 46.5 3.7 46.9 3.9 C 46.88 3.89 48.9 3.3 48.9 3.3 L 49 3.5 L 48.5 4.3 C 48.5 4.3 47.36 4.51 47.4 4.5 C 47.5 4.7 47.7 5.1 47.7 5.5 C 47.7 6.9 46.6 8 44.6 8 C 44.4 8 44.2 8 43.9 7.9 C 43.5 8 43.3 8.2 43.3 8.5 C 43.3 8.9 43.8 9.1 45 9.4 C 46.6 9.7 47.4 10.5 47.4 11.6 C 47.4 13.1 45.9 13.9 44 13.9 C 42.2 13.9 40.9 13.1 40.9 11.8 C 40.9 10.7 42.1 10.1 43.1 9.9 Z M 44.3 13.4 C 45.3 13.4 46.2 12.9 46.2 11.8 C 46.2 10.6 44.6 10.3 43.7 10.1 C 43.1 10.2 42.2 10.7 42.2 11.7 C 42.2 12.7 43.1 13.4 44.3 13.4 Z M 44.6 7.5 C 45.7 7.5 46.4 6.4 46.4 5.1 C 46.4 4.2 45.7 4 45.2 4 C 43.9 4 43.5 5.4 43.5 6.3 C 43.5 7 43.9 7.5 44.6 7.5 Z M 54.4 1.6 C 54.5 1 54.4 0.9 54.1 0.9 C 54.08 0.87 53.3 0.8 53.3 0.8 L 53.4 0.4 L 55.9 0.1 L 55.9 0.2 L 53.5 10.5 L 52.2 10.7 C 52.2 10.7 54.36 1.55 54.4 1.6 Z M 56.6 4.5 C 57.4 3.9 58 3.5 58.6 3.5 C 59.1 3.5 59.3 3.8 59.3 4.2 C 59.3 4.5 59 4.9 58.6 4.9 C 58.5 4.9 58.3 4.9 58.3 4.8 C 57.9 4.6 57.8 4.5 57.6 4.5 C 57.1 4.5 56 5.7 55.6 6.2 C 55.8 7.1 56.2 8 56.6 8.9 C 57 9.6 57.2 9.9 57.4 9.9 C 57.8 9.9 58.1 9.4 58.5 8.5 C 58.5 8.5 58.9 8.7 58.9 8.7 C 58.5 9.9 57.8 10.7 56.9 10.7 C 56.3 10.7 55.9 10.2 55.5 9.3 C 55.1 8.5 54.7 7.7 54.5 6.8 C 55.1 6 55.9 5.2 56.6 4.5 Z M 64.5 3.5 C 64.9 3.5 65.3 3.6 65.5 3.8 C 65.55 3.77 65.6 3.6 65.6 3.6 L 66.8 3.6 C 66.8 3.6 65.31 9.17 65.3 9.2 C 65.2 9.6 65.2 9.9 65.4 9.9 C 65.8 9.9 66.5 8.9 66.7 8.5 C 66.7 8.5 67 8.7 67 8.7 C 66.6 9.7 65.8 10.7 64.7 10.7 C 64 10.7 63.8 10.1 64.1 9.1 C 64.1 9.1 64.6 7.5 64.6 7.5 C 64.6 7.5 64.55 7.5 64.6 7.5 C 63.7 8.9 62.4 10.7 60.9 10.7 C 60 10.7 59.6 9.8 59.6 9 C 59.6 7.2 61.2 3.5 64.5 3.5 Z M 61.6 9.9 C 62.3 9.9 63.1 9 63.9 7.8 C 64.6 6.7 65.2 5.3 65.4 4.3 C 65.2 4.1 64.9 4 64.6 4 C 62.4 4 61 7.4 61 9 C 61 9.5 61.1 9.9 61.6 9.9 Z M 69.5 4.9 C 69.6 4.5 69.6 4.3 69.3 4.3 C 69.3 4.27 68.4 4.2 68.4 4.2 L 68.5 3.9 L 71.1 3.5 L 71.1 3.5 L 70.2 6.6 C 70.2 6.6 70.28 6.59 70.3 6.6 C 71.1 5 72.6 3.5 73.9 3.5 C 75.1 3.5 75.2 4.4 74.9 5.5 C 74.9 5.5 73.8 9.2 73.8 9.2 C 73.7 9.6 73.7 9.9 74 9.9 C 74.4 9.9 75 8.9 75.2 8.5 C 75.2 8.5 75.6 8.7 75.6 8.7 C 75.1 9.7 74.3 10.7 73.2 10.7 C 72.5 10.7 72.3 10.1 72.5 9.3 C 72.5 9.3 73.7 5.2 73.7 5.2 C 73.9 4.6 73.8 4.2 73.3 4.2 C 72.1 4.2 70.8 6.2 70.3 7.4 C 69.9 8.3 69.7 9.1 69.3 10.5 C 69.27 10.5 68 10.7 68 10.7 C 68 10.7 69.51 4.94 69.5 4.9 Z M 78 9.9 C 78 9.9 78 9.9 78 9.9 C 77.5 9.6 77 9.3 77 8.8 C 77 8.3 77.9 8 78.3 7.8 C 78.3 7.8 78.3 7.8 78.3 7.8 C 77.9 7.6 77.1 7.1 77.1 6 C 77.1 5.1 77.8 3.5 80.1 3.5 C 80.8 3.5 81.5 3.7 81.9 3.9 C 81.86 3.89 83.9 3.3 83.9 3.3 L 84 3.5 L 83.5 4.3 C 83.5 4.3 82.33 4.51 82.3 4.5 C 82.5 4.7 82.6 5.1 82.6 5.5 C 82.6 6.9 81.5 8 79.6 8 C 79.4 8 79.1 8 78.8 7.9 C 78.5 8 78.2 8.2 78.2 8.5 C 78.2 8.9 78.7 9.1 79.9 9.4 C 81.6 9.7 82.4 10.5 82.4 11.6 C 82.4 13.1 80.8 13.9 79 13.9 C 77.2 13.9 75.9 13.1 75.9 11.8 C 75.9 10.7 77.1 10.1 78 9.9 Z M 79.3 13.4 C 80.3 13.4 81.2 12.9 81.2 11.8 C 81.2 10.6 79.5 10.3 78.6 10.1 C 78.1 10.2 77.2 10.7 77.2 11.7 C 77.2 12.7 78 13.4 79.3 13.4 Z M 79.6 7.5 C 80.7 7.5 81.3 6.4 81.3 5.1 C 81.3 4.2 80.6 4 80.2 4 C 78.9 4 78.5 5.4 78.5 6.3 C 78.5 7 78.9 7.5 79.6 7.5 Z M 88.7 4.9 C 88.8 4.5 88.8 4.3 88.5 4.3 C 88.49 4.27 87.6 4.2 87.6 4.2 L 87.7 3.9 L 90.3 3.5 L 90.3 3.5 L 89.4 6.4 C 89.4 6.4 89.49 6.44 89.5 6.4 C 90.5 4.7 91.8 3.5 93 3.5 C 94 3.5 94.3 4.2 93.9 5.6 C 93.88 5.56 93.6 6.4 93.6 6.4 C 93.6 6.4 93.66 6.44 93.7 6.4 C 94.7 4.6 95.9 3.5 97.2 3.5 C 98.4 3.5 98.5 4.4 98.2 5.5 C 98.2 5.5 97.1 9.2 97.1 9.2 C 97 9.6 97 9.9 97.3 9.9 C 97.7 9.9 98.3 8.9 98.5 8.5 C 98.5 8.5 98.9 8.7 98.9 8.7 C 98.4 9.7 97.6 10.7 96.6 10.7 C 95.9 10.7 95.6 10.2 95.9 9.3 C 95.9 9.3 97.1 5.2 97.1 5.2 C 97.3 4.6 97.1 4.2 96.6 4.2 C 95.4 4.2 94.1 6.2 93.6 7.4 C 93.3 8.3 93 9.1 92.6 10.5 C 92.64 10.5 91.4 10.7 91.4 10.7 L 91.8 9.3 C 91.8 9.3 92.82 5.38 92.8 5.4 C 93 4.5 92.8 4.2 92.4 4.2 C 91.2 4.2 89.9 6.3 89.4 7.5 C 89.1 8.3 88.9 9.1 88.5 10.5 C 88.46 10.5 87.2 10.7 87.2 10.7 C 87.2 10.7 88.69 4.94 88.7 4.9 Z M 104.6 3.5 C 105 3.5 105.4 3.6 105.7 3.8 C 105.66 3.77 105.7 3.6 105.7 3.6 L 106.9 3.6 C 106.9 3.6 105.42 9.17 105.4 9.2 C 105.3 9.6 105.3 9.9 105.6 9.9 C 105.9 9.9 106.6 8.9 106.8 8.5 C 106.8 8.5 107.2 8.7 107.2 8.7 C 106.7 9.7 105.9 10.7 104.8 10.7 C 104.1 10.7 103.9 10.1 104.2 9.1 C 104.21 9.1 104.7 7.5 104.7 7.5 C 104.7 7.5 104.66 7.5 104.7 7.5 C 103.8 8.9 102.5 10.7 101 10.7 C 100.1 10.7 99.7 9.8 99.7 9 C 99.7 7.2 101.3 3.5 104.6 3.5 Z M 101.7 9.9 C 102.4 9.9 103.2 9 104 7.8 C 104.8 6.7 105.3 5.3 105.5 4.3 C 105.3 4.1 105 4 104.7 4 C 102.5 4 101.1 7.4 101.1 9 C 101.1 9.5 101.2 9.9 101.7 9.9 Z M 109.8 4.2 L 108.6 4.2 L 108.8 3.6 L 109.9 3.6 L 110.1 3 L 111.5 1.9 L 111.6 2 L 111.1 3.6 L 112.9 3.6 L 112.8 4.2 L 111 4.2 C 111 4.2 109.77 9.27 109.8 9.3 C 109.7 9.6 109.7 9.9 110 9.9 C 110.4 9.9 111.1 9 111.5 8.5 C 111.5 8.5 111.8 8.7 111.8 8.7 C 111.2 9.7 110.3 10.7 109.2 10.7 C 108.5 10.7 108.3 10.1 108.5 9.3 C 108.52 9.3 109.8 4.2 109.8 4.2 Z M 117.5 3.5 C 117.9 3.5 118.3 3.6 118.6 3.8 C 118.56 3.77 118.6 3.6 118.6 3.6 L 119.8 3.6 C 119.8 3.6 118.32 9.17 118.3 9.2 C 118.2 9.6 118.2 9.9 118.5 9.9 C 118.9 9.9 119.5 8.9 119.7 8.5 C 119.7 8.5 120.1 8.7 120.1 8.7 C 119.6 9.7 118.8 10.7 117.7 10.7 C 117 10.7 116.8 10.1 117.1 9.1 C 117.12 9.1 117.6 7.5 117.6 7.5 C 117.6 7.5 117.57 7.5 117.6 7.5 C 116.8 8.9 115.5 10.7 114 10.7 C 113 10.7 112.6 9.8 112.6 9 C 112.6 7.2 114.2 3.5 117.5 3.5 Z M 114.6 9.9 C 115.3 9.9 116.1 9 116.9 7.8 C 117.7 6.7 118.2 5.3 118.4 4.3 C 118.2 4.1 117.9 4 117.6 4 C 115.4 4 114 7.4 114 9 C 114 9.5 114.2 9.9 114.6 9.9 Z M 123.1 1.6 C 123.3 1 123.2 0.9 122.9 0.9 C 122.86 0.87 122.1 0.8 122.1 0.8 L 122.1 0.4 L 124.7 0.1 L 124.7 0.2 L 122.3 10.5 L 121 10.7 C 121 10.7 123.14 1.55 123.1 1.6 Z M 125.4 4.5 C 126.1 3.9 126.8 3.5 127.4 3.5 C 127.9 3.5 128.1 3.8 128.1 4.2 C 128.1 4.5 127.8 4.9 127.4 4.9 C 127.3 4.9 127.1 4.9 127 4.8 C 126.7 4.6 126.6 4.5 126.3 4.5 C 125.8 4.5 124.8 5.7 124.4 6.2 C 124.6 7.1 125 8 125.4 8.9 C 125.8 9.6 126 9.9 126.2 9.9 C 126.6 9.9 126.9 9.4 127.3 8.5 C 127.3 8.5 127.7 8.7 127.7 8.7 C 127.2 9.9 126.6 10.7 125.7 10.7 C 125.1 10.7 124.7 10.2 124.2 9.3 C 123.9 8.5 123.5 7.7 123.3 6.8 C 123.9 6 124.6 5.2 125.4 4.5 Z M 132.7 3.5 C 133.9 3.5 135.3 4 135.3 5.9 C 135.3 6.7 135 7.9 134.4 8.9 C 133.7 9.9 132.7 10.7 131.2 10.7 C 129.4 10.7 128.6 9.6 128.6 8.1 C 128.6 6.9 129.4 3.5 132.7 3.5 Z M 131.2 10.2 C 133.2 10.2 133.9 6.4 133.9 5.4 C 133.9 4.6 133.6 4 132.7 4 C 130.9 4 130 7.2 130 8.7 C 130 9.7 130.4 10.2 131.2 10.2 Z M 138.1 4.2 L 137 4.2 L 137.1 3.6 L 138.2 3.6 L 138.4 3 L 139.8 1.9 L 140 2 L 139.5 3.6 L 141.3 3.6 L 141.1 4.2 L 139.4 4.2 C 139.4 4.2 138.11 9.27 138.1 9.3 C 138 9.6 138 9.9 138.3 9.9 C 138.8 9.9 139.5 9 139.8 8.5 C 139.8 8.5 140.1 8.7 140.1 8.7 C 139.5 9.7 138.6 10.7 137.5 10.7 C 136.8 10.7 136.7 10.1 136.9 9.3 C 136.86 9.3 138.1 4.2 138.1 4.2 Z M 146.1 4.9 C 146.2 4.5 146.3 4.3 145.9 4.3 C 145.93 4.27 145.1 4.2 145.1 4.2 L 145.2 3.9 L 147.7 3.5 L 147.8 3.5 L 146.9 6.4 C 146.9 6.4 146.93 6.44 146.9 6.4 C 147.9 4.7 149.2 3.5 150.5 3.5 C 151.5 3.5 151.7 4.2 151.3 5.6 C 151.32 5.56 151 6.4 151 6.4 C 151 6.4 151.1 6.44 151.1 6.4 C 152.1 4.6 153.4 3.5 154.6 3.5 C 155.8 3.5 156 4.4 155.7 5.5 C 155.7 5.5 154.6 9.2 154.6 9.2 C 154.5 9.6 154.4 9.9 154.7 9.9 C 155.1 9.9 155.7 8.9 156 8.5 C 156 8.5 156.3 8.7 156.3 8.7 C 155.8 9.7 155.1 10.7 154 10.7 C 153.3 10.7 153.1 10.2 153.3 9.3 C 153.3 9.3 154.5 5.2 154.5 5.2 C 154.7 4.6 154.5 4.2 154 4.2 C 152.9 4.2 151.6 6.2 151.1 7.4 C 150.7 8.3 150.5 9.1 150.1 10.5 C 150.08 10.5 148.9 10.7 148.9 10.7 L 149.2 9.3 C 149.2 9.3 150.26 5.38 150.3 5.4 C 150.5 4.5 150.3 4.2 149.8 4.2 C 148.7 4.2 147.3 6.3 146.8 7.5 C 146.5 8.3 146.3 9.1 145.9 10.5 C 145.9 10.5 144.7 10.7 144.7 10.7 C 144.7 10.7 146.13 4.94 146.1 4.9 Z M 162.1 3.5 C 162.5 3.5 162.9 3.6 163.1 3.8 C 163.1 3.77 163.2 3.6 163.2 3.6 L 164.3 3.6 C 164.3 3.6 162.86 9.17 162.9 9.2 C 162.7 9.6 162.7 9.9 163 9.9 C 163.4 9.9 164 8.9 164.3 8.5 C 164.3 8.5 164.6 8.7 164.6 8.7 C 164.1 9.7 163.3 10.7 162.3 10.7 C 161.5 10.7 161.4 10.1 161.7 9.1 C 161.65 9.1 162.1 7.5 162.1 7.5 C 162.1 7.5 162.1 7.5 162.1 7.5 C 161.3 8.9 160 10.7 158.5 10.7 C 157.5 10.7 157.1 9.8 157.1 9 C 157.1 7.2 158.7 3.5 162.1 3.5 Z M 159.1 9.9 C 159.8 9.9 160.7 9 161.5 7.8 C 162.2 6.7 162.7 5.3 163 4.3 C 162.7 4.1 162.4 4 162.1 4 C 159.9 4 158.5 7.4 158.5 9 C 158.5 9.5 158.7 9.9 159.1 9.9 Z M 167.7 1.6 C 167.8 1 167.7 0.9 167.4 0.9 C 167.39 0.87 166.6 0.8 166.6 0.8 L 166.7 0.4 L 169.2 0.1 L 169.3 0.2 L 166.8 10.5 L 165.5 10.7 C 165.5 10.7 167.67 1.55 167.7 1.6 Z M 170 4.5 C 170.7 3.9 171.4 3.5 171.9 3.5 C 172.5 3.5 172.6 3.8 172.6 4.2 C 172.6 4.5 172.3 4.9 172 4.9 C 171.8 4.9 171.7 4.9 171.6 4.8 C 171.2 4.6 171.1 4.5 170.9 4.5 C 170.4 4.5 169.3 5.7 168.9 6.2 C 169.2 7.1 169.5 8 169.9 8.9 C 170.3 9.6 170.5 9.9 170.7 9.9 C 171.1 9.9 171.5 9.4 171.8 8.5 C 171.8 8.5 172.2 8.7 172.2 8.7 C 171.8 9.9 171.2 10.7 170.3 10.7 C 169.6 10.7 169.2 10.2 168.8 9.3 C 168.4 8.5 168.1 7.7 167.8 6.8 C 168.4 6 169.2 5.2 170 4.5 Z M 176.3 0.5 C 176.7 0.5 177.1 0.7 177.1 1.3 C 177.1 1.8 176.7 2.2 176.2 2.2 C 175.8 2.2 175.4 1.9 175.4 1.4 C 175.4 1 175.7 0.5 176.3 0.5 Z M 174.8 4.9 C 175 4.4 174.9 4.3 174.5 4.3 C 174.55 4.27 173.7 4.2 173.7 4.2 L 173.8 3.9 L 176.4 3.5 L 176.5 3.5 C 176.5 3.5 174.93 9.17 174.9 9.2 C 174.8 9.6 174.8 9.9 175.1 9.9 C 175.5 9.9 176.1 8.9 176.3 8.5 C 176.3 8.5 176.7 8.7 176.7 8.7 C 176.2 9.7 175.4 10.7 174.4 10.7 C 173.6 10.7 173.5 10.1 173.7 9.3 C 173.7 9.3 174.8 4.9 174.8 4.9 Z M 180.9 0.5 C 181.3 0.5 181.6 0.7 181.6 1.3 C 181.6 1.8 181.3 2.2 180.7 2.2 C 180.3 2.2 180 1.9 180 1.4 C 180 1 180.3 0.5 180.9 0.5 Z M 179.4 4.9 C 179.5 4.4 179.5 4.3 179.1 4.3 C 179.13 4.27 178.3 4.2 178.3 4.2 L 178.4 3.9 L 181 3.5 L 181 3.5 C 181 3.5 179.5 9.17 179.5 9.2 C 179.4 9.6 179.4 9.9 179.6 9.9 C 180 9.9 180.7 8.9 180.9 8.5 C 180.9 8.5 181.2 8.7 181.2 8.7 C 180.8 9.7 180 10.7 179 10.7 C 178.2 10.7 178 10.1 178.2 9.3 C 178.2 9.3 179.4 4.9 179.4 4.9 Z M 182.6 8.6 C 182.9 8.6 183 8.7 183.1 9 C 183.3 9.7 183.8 10.2 184.3 10.2 C 184.9 10.2 185.3 9.8 185.3 9.1 C 185.3 8.6 185 8 184.4 7.5 C 183.6 6.9 183.1 6.3 183.1 5.5 C 183.1 4.4 184 3.5 185.4 3.5 C 186.7 3.5 187.2 4.1 187.2 4.6 C 187.2 5 186.8 5.2 186.5 5.2 C 186.3 5.2 186.2 5.1 186.1 4.9 C 185.8 4.3 185.5 4 185 4 C 184.5 4 184.1 4.4 184.1 4.9 C 184.1 5.3 184.3 5.7 185.1 6.4 C 186.1 7.2 186.4 7.8 186.4 8.6 C 186.4 9.7 185.5 10.7 184 10.7 C 182.7 10.7 181.9 9.9 181.9 9.3 C 181.9 9 182.2 8.6 182.6 8.6 Z M 192.6 3.5 C 193 3.5 193.4 3.6 193.6 3.8 C 193.6 3.77 193.7 3.6 193.7 3.6 L 194.8 3.6 C 194.8 3.6 193.36 9.17 193.4 9.2 C 193.2 9.6 193.2 9.9 193.5 9.9 C 193.9 9.9 194.5 8.9 194.8 8.5 C 194.8 8.5 195.1 8.7 195.1 8.7 C 194.6 9.7 193.8 10.7 192.8 10.7 C 192 10.7 191.9 10.1 192.2 9.1 C 192.16 9.1 192.6 7.5 192.6 7.5 C 192.6 7.5 192.61 7.5 192.6 7.5 C 191.8 8.9 190.5 10.7 189 10.7 C 188 10.7 187.7 9.8 187.7 9 C 187.7 7.2 189.2 3.5 192.6 3.5 Z M 189.7 9.9 C 190.3 9.9 191.2 9 192 7.8 C 192.7 6.7 193.2 5.3 193.5 4.3 C 193.3 4.1 192.9 4 192.6 4 C 190.4 4 189 7.4 189 9 C 189 9.5 189.2 9.9 189.7 9.9 Z M 199.5 8.6 C 199.7 8.6 199.9 8.7 199.9 9 C 200.2 9.7 200.7 10.2 201.2 10.2 C 201.8 10.2 202.2 9.8 202.2 9.1 C 202.2 8.6 201.8 8 201.2 7.5 C 200.5 6.9 200 6.3 200 5.5 C 200 4.4 200.9 3.5 202.3 3.5 C 203.5 3.5 204.1 4.1 204.1 4.6 C 204.1 5 203.7 5.2 203.4 5.2 C 203.2 5.2 203.1 5.1 203 4.9 C 202.7 4.3 202.3 4 201.9 4 C 201.4 4 201 4.4 201 4.9 C 201 5.3 201.2 5.7 202 6.4 C 202.9 7.2 203.3 7.8 203.3 8.6 C 203.3 9.7 202.4 10.7 200.9 10.7 C 199.5 10.7 198.8 9.9 198.8 9.3 C 198.8 9 199.1 8.6 199.5 8.6 Z M 209.4 3.5 C 209.8 3.5 210.2 3.6 210.5 3.8 C 210.47 3.77 210.5 3.6 210.5 3.6 L 211.7 3.6 C 211.7 3.6 210.23 9.17 210.2 9.2 C 210.1 9.6 210.1 9.9 210.4 9.9 C 210.8 9.9 211.4 8.9 211.6 8.5 C 211.6 8.5 212 8.7 212 8.7 C 211.5 9.7 210.7 10.7 209.6 10.7 C 208.9 10.7 208.7 10.1 209 9.1 C 209.03 9.1 209.5 7.5 209.5 7.5 C 209.5 7.5 209.48 7.5 209.5 7.5 C 208.7 8.9 207.4 10.7 205.9 10.7 C 204.9 10.7 204.5 9.8 204.5 9 C 204.5 7.2 206.1 3.5 209.4 3.5 Z M 206.5 9.9 C 207.2 9.9 208 9 208.8 7.8 C 209.6 6.7 210.1 5.3 210.3 4.3 C 210.1 4.1 209.8 4 209.5 4 C 207.3 4 205.9 7.4 205.9 9 C 205.9 9.5 206.1 9.9 206.5 9.9 Z M 219.2 0.5 C 219.6 0.5 220 0.7 220 1.3 C 220 1.8 219.6 2.2 219.1 2.2 C 218.6 2.2 218.3 1.9 218.3 1.4 C 218.3 1 218.6 0.5 219.2 0.5 Z M 217.7 4.9 C 217.9 4.4 217.8 4.3 217.4 4.3 C 217.44 4.27 216.6 4.2 216.6 4.2 L 216.7 3.9 L 219.3 3.5 L 219.3 3.5 C 219.3 3.5 217.82 9.17 217.8 9.2 C 217.7 9.6 217.7 9.9 218 9.9 C 218.4 9.9 219 8.9 219.2 8.5 C 219.2 8.5 219.6 8.7 219.6 8.7 C 219.1 9.7 218.3 10.7 217.3 10.7 C 216.5 10.7 216.4 10.1 216.6 9.3 C 216.6 9.3 217.7 4.9 217.7 4.9 Z M 222.7 1.6 C 222.8 1 222.7 0.9 222.4 0.9 C 222.38 0.87 221.6 0.8 221.6 0.8 L 221.7 0.4 L 224.2 0.1 L 224.2 0.2 L 222.7 6.4 C 222.7 6.4 222.72 6.36 222.7 6.4 C 223.8 4.4 225.2 3.5 226.2 3.5 C 227.3 3.5 227.7 4.2 227.7 5.2 C 227.7 5.9 227.5 7.1 226.8 8.3 C 226.1 9.6 224.9 10.7 223.3 10.7 C 222.5 10.7 221.8 10.3 221.5 9.7 C 221.54 9.69 221.1 10.5 221.1 10.5 L 220.6 10.5 C 220.6 10.5 222.66 1.55 222.7 1.6 Z M 223.5 10.2 C 225.5 10.2 226.4 6.4 226.4 5.4 C 226.4 4.6 226.1 4.2 225.6 4.2 C 224.8 4.2 223.7 5.4 223.1 6.5 C 222.6 7.3 222.3 8.3 222.3 9 C 222.3 9.7 222.8 10.2 223.5 10.2 Z M 233.3 3.5 C 233.7 3.5 234.1 3.6 234.3 3.8 C 234.3 3.77 234.4 3.6 234.4 3.6 L 235.5 3.6 C 235.5 3.6 234.06 9.17 234.1 9.2 C 233.9 9.6 233.9 9.9 234.2 9.9 C 234.6 9.9 235.2 8.9 235.5 8.5 C 235.5 8.5 235.8 8.7 235.8 8.7 C 235.3 9.7 234.5 10.7 233.5 10.7 C 232.7 10.7 232.6 10.1 232.9 9.1 C 232.86 9.1 233.3 7.5 233.3 7.5 C 233.3 7.5 233.3 7.5 233.3 7.5 C 232.5 8.9 231.2 10.7 229.7 10.7 C 228.7 10.7 228.3 9.8 228.3 9 C 228.3 7.2 229.9 3.5 233.3 3.5 Z M 230.4 9.9 C 231 9.9 231.9 9 232.7 7.8 C 233.4 6.7 233.9 5.3 234.2 4.3 C 233.9 4.1 233.6 4 233.3 4 C 231.1 4 229.7 7.4 229.7 9 C 229.7 9.5 229.9 9.9 230.4 9.9 Z M 241.5 4.9 C 241.6 4.5 241.6 4.3 241.3 4.3 C 241.26 4.27 240.4 4.2 240.4 4.2 L 240.5 3.9 L 243 3.5 L 243.1 3.5 L 242.3 6.5 C 242.3 6.5 242.32 6.5 242.3 6.5 C 243.4 4.5 244.8 3.5 245.8 3.5 C 246.9 3.5 247.4 4.1 247.4 5.3 C 247.4 6.4 246.5 10.7 243 10.7 C 242.3 10.7 241.8 10.5 241.5 10.4 C 241.52 10.36 240.8 13.7 240.8 13.7 L 239.5 13.9 C 239.5 13.9 241.47 4.94 241.5 4.9 Z M 242.9 10.2 C 245.2 10.2 246 6.5 246 5.4 C 246 4.6 245.8 4.2 245.3 4.2 C 244.5 4.2 243.4 5.3 242.8 6.5 C 242.2 7.4 241.8 8.9 241.7 9.8 C 242 10 242.3 10.2 242.9 10.2 Z M 253 3.5 C 253.3 3.5 253.7 3.6 254 3.8 C 253.98 3.77 254.1 3.6 254.1 3.6 L 255.2 3.6 C 255.2 3.6 253.74 9.17 253.7 9.2 C 253.6 9.6 253.6 9.9 253.9 9.9 C 254.3 9.9 254.9 8.9 255.1 8.5 C 255.1 8.5 255.5 8.7 255.5 8.7 C 255 9.7 254.2 10.7 253.2 10.7 C 252.4 10.7 252.2 10.1 252.5 9.1 C 252.54 9.1 253 7.5 253 7.5 C 253 7.5 252.99 7.5 253 7.5 C 252.2 8.9 250.9 10.7 249.4 10.7 C 248.4 10.7 248 9.8 248 9 C 248 7.2 249.6 3.5 253 3.5 Z M 250 9.9 C 250.7 9.9 251.6 9 252.3 7.8 C 253.1 6.7 253.6 5.3 253.8 4.3 C 253.6 4.1 253.3 4 253 4 C 250.8 4 249.4 7.4 249.4 9 C 249.4 9.5 249.6 9.9 250 9.9 Z M 257.9 4.9 C 258.1 4.5 258.1 4.3 257.7 4.3 C 257.73 4.27 256.9 4.2 256.9 4.2 L 256.9 3.9 L 259.5 3.5 L 259.6 3.5 L 258.7 6.6 C 258.7 6.6 258.71 6.59 258.7 6.6 C 259.6 5 261 3.5 262.4 3.5 C 263.5 3.5 263.7 4.4 263.3 5.5 C 263.3 5.5 262.3 9.2 262.3 9.2 C 262.1 9.6 262.1 9.9 262.4 9.9 C 262.8 9.9 263.4 8.9 263.7 8.5 C 263.7 8.5 264 8.7 264 8.7 C 263.5 9.7 262.7 10.7 261.7 10.7 C 260.9 10.7 260.7 10.1 261 9.3 C 261 9.3 262.2 5.2 262.2 5.2 C 262.3 4.6 262.2 4.2 261.7 4.2 C 260.6 4.2 259.2 6.2 258.7 7.4 C 258.3 8.3 258.1 9.1 257.7 10.5 C 257.71 10.5 256.5 10.7 256.5 10.7 C 256.5 10.7 257.94 4.94 257.9 4.9 Z M 266.5 9.9 C 266.5 9.9 266.5 9.9 266.5 9.9 C 265.9 9.6 265.5 9.3 265.5 8.8 C 265.5 8.3 266.3 8 266.7 7.8 C 266.7 7.8 266.7 7.8 266.7 7.8 C 266.3 7.6 265.6 7.1 265.6 6 C 265.6 5.1 266.3 3.5 268.6 3.5 C 269.2 3.5 269.9 3.7 270.3 3.9 C 270.29 3.89 272.3 3.3 272.3 3.3 L 272.4 3.5 L 271.9 4.3 C 271.9 4.3 270.77 4.51 270.8 4.5 C 270.9 4.7 271.1 5.1 271.1 5.5 C 271.1 6.9 270 8 268 8 C 267.8 8 267.6 8 267.3 7.9 C 266.9 8 266.7 8.2 266.7 8.5 C 266.7 8.9 267.2 9.1 268.4 9.4 C 270 9.7 270.8 10.5 270.8 11.6 C 270.8 13.1 269.3 13.9 267.4 13.9 C 265.6 13.9 264.3 13.1 264.3 11.8 C 264.3 10.7 265.5 10.1 266.5 9.9 Z M 267.7 13.4 C 268.8 13.4 269.6 12.9 269.6 11.8 C 269.6 10.6 268 10.3 267.1 10.1 C 266.5 10.2 265.6 10.7 265.6 11.7 C 265.6 12.7 266.5 13.4 267.7 13.4 Z M 268.1 7.5 C 269.1 7.5 269.8 6.4 269.8 5.1 C 269.8 4.2 269.1 4 268.7 4 C 267.3 4 266.9 5.4 266.9 6.3 C 266.9 7 267.3 7.5 268.1 7.5 Z " stroke="none" fill="#000"/>
  </g>
</svg>