<?xml version="1.0" standalone="no"?>
<!DOCTYPE svg PUBLIC "-//W3C//DTD SVG 1.1//EN" "http://www.w3.org/Graphics/SVG/1.1/DTD/svg11.dtd">
<svg xmlns="http://www.w3.org/2000/svg" version="1.1" width="147.2px" height="25.5px" viewBox="0 -3 147.2 25.5" style="top:-3px">
  <desc>Mary Joy Javier at Pauline Faith Talampas</desc>
  <defs/>
  <g id="Polygon33466">
    <path d="M 3.9 11.3 L 3.9 12.3 L 2.6 12.3 L 2.6 16.6 L 1.3 16.6 L 1.3 12.3 L 0 12.3 L 0 11.3 L 3.9 11.3 Z M 7 11.3 L 8.7 16.6 L 7.3 16.6 L 7 15.5 L 5.3 15.5 L 5 16.6 L 3.9 16.6 L 5.6 11.3 L 7 11.3 Z M 5.6 14.5 L 6.7 14.5 L 6.2 12.6 L 5.6 14.5 Z M 10.8 15.5 L 13 15.5 L 13 16.6 L 9.6 16.6 L 9.6 11.3 L 10.8 11.3 L 10.8 15.5 Z M 16.5 11.3 L 18.2 16.6 L 16.9 16.6 L 16.5 15.5 L 14.8 15.5 L 14.5 16.6 L 13.4 16.6 L 15.1 11.3 L 16.5 11.3 Z M 15.1 14.5 L 16.2 14.5 L 15.7 12.6 L 15.1 14.5 Z M 21.5 16.6 L 20.2 12.3 L 20.2 16.6 L 19.1 16.6 L 19.1 11.3 L 21.1 11.3 L 22 14.5 L 23 11.3 L 24.9 11.3 L 24.9 16.6 L 23.7 16.6 L 23.7 12.3 L 22.3 16.6 L 21.5 16.6 Z M 27.6 14.6 L 27.6 16.6 L 26.3 16.6 L 26.3 11.3 C 26.3 11.3 28.41 11.27 28.4 11.3 C 28.9 11.3 29.2 11.3 29.5 11.4 C 29.7 11.5 30 11.7 30.2 12 C 30.3 12.2 30.4 12.5 30.4 12.9 C 30.4 13.2 30.4 13.4 30.3 13.7 C 30.2 13.9 30 14.1 29.8 14.3 C 29.7 14.4 29.5 14.5 29.3 14.6 C 29.1 14.6 28.8 14.6 28.5 14.6 C 28.46 14.62 27.6 14.6 27.6 14.6 Z M 27.5 13.7 C 27.5 13.7 28.35 13.65 28.3 13.7 C 28.7 13.7 28.9 13.6 29 13.4 C 29.1 13.3 29.2 13.1 29.2 12.9 C 29.2 12.7 29.1 12.6 29 12.4 C 28.8 12.3 28.6 12.2 28.3 12.2 C 28.34 12.24 27.5 12.2 27.5 12.2 L 27.5 13.7 Z M 33.8 11.3 L 35.4 16.6 L 34.1 16.6 L 33.8 15.5 L 32 15.5 L 31.7 16.6 L 30.6 16.6 L 32.3 11.3 L 33.8 11.3 Z M 32.3 14.5 L 33.5 14.5 L 32.9 12.6 L 32.3 14.5 Z M 38 11.2 C 39 11.2 39.7 11.6 40 12.4 C 40 12.4 38.9 12.8 38.9 12.8 C 38.8 12.4 38.5 12.2 38 12.2 C 37.5 12.2 37.3 12.3 37.3 12.6 C 37.3 12.8 37.3 12.9 37.4 13 C 37.5 13.1 37.7 13.1 38.1 13.2 C 38.6 13.3 39 13.4 39.2 13.5 C 39.5 13.6 39.7 13.8 39.9 14.1 C 40.1 14.3 40.1 14.6 40.1 14.9 C 40.1 15.4 40 15.8 39.6 16.2 C 39.2 16.5 38.7 16.7 37.9 16.7 C 37.4 16.7 36.9 16.6 36.5 16.3 C 36.2 16.1 35.9 15.7 35.8 15.2 C 35.8 15.2 36.9 14.9 36.9 14.9 C 37.1 15.4 37.4 15.7 38 15.7 C 38.3 15.7 38.5 15.6 38.7 15.5 C 38.8 15.4 38.9 15.3 38.9 15.1 C 38.9 15 38.8 14.8 38.7 14.8 C 38.6 14.7 38.3 14.6 37.9 14.5 C 37.3 14.4 36.8 14.2 36.5 13.9 C 36.2 13.7 36.1 13.3 36.1 12.9 C 36.1 12.4 36.2 12 36.6 11.7 C 36.9 11.4 37.4 11.2 38 11.2 C 38 11.2 38 11.2 38 11.2 Z " stroke="none" fill="#000"/>
  </g>
  <g id="Polygon33465">
    <path d="M 2.9 5.6 L 1.6 1.3 L 1.6 5.6 L 0.5 5.6 L 0.5 0.3 L 2.5 0.3 L 3.4 3.5 L 4.4 0.3 L 6.4 0.3 L 6.4 5.6 L 5.1 5.6 L 5.1 1.3 L 3.8 5.6 L 2.9 5.6 Z M 10.4 0.3 L 12 5.6 L 10.7 5.6 L 10.4 4.5 L 8.6 4.5 L 8.3 5.6 L 7.2 5.6 L 8.9 0.3 L 10.4 0.3 Z M 8.9 3.5 L 10.1 3.5 L 9.5 1.6 L 8.9 3.5 Z M 14.2 3.5 L 14.2 5.6 L 12.9 5.6 L 12.9 0.3 C 12.9 0.3 15.26 0.27 15.3 0.3 C 15.7 0.3 16 0.3 16.3 0.4 C 16.6 0.5 16.8 0.7 17 1 C 17.1 1.2 17.2 1.5 17.2 1.9 C 17.2 2.5 16.9 3 16.3 3.2 C 16.28 3.24 17.3 5.6 17.3 5.6 L 15.9 5.6 L 15.1 3.5 L 14.2 3.5 Z M 14.2 1.2 L 14.2 2.6 C 14.2 2.6 14.94 2.58 14.9 2.6 C 15.2 2.6 15.4 2.6 15.5 2.5 C 15.6 2.5 15.7 2.4 15.8 2.3 C 15.9 2.2 15.9 2 15.9 1.9 C 15.9 1.7 15.9 1.6 15.8 1.5 C 15.7 1.4 15.6 1.3 15.5 1.3 C 15.4 1.2 15.2 1.2 14.9 1.2 C 14.91 1.22 14.2 1.2 14.2 1.2 Z M 22.2 0.3 L 20.5 3.4 L 20.5 5.6 L 19.3 5.6 L 19.3 3.4 L 17.6 0.3 L 19.1 0.3 L 20.1 2.3 L 21.1 0.3 L 22.2 0.3 Z M 27.2 0.3 C 27.2 0.3 27.22 4.07 27.2 4.1 C 27.2 4.6 27.1 5 26.8 5.3 C 26.6 5.6 26.1 5.7 25.5 5.7 C 25.3 5.7 25 5.7 24.7 5.6 C 24.7 5.6 24.7 4.6 24.7 4.6 C 25 4.6 25.2 4.6 25.3 4.6 C 25.5 4.6 25.6 4.6 25.7 4.5 C 25.8 4.5 25.9 4.4 25.9 4.3 C 26 4.3 26 4.1 26 3.9 C 25.97 3.92 26 0.3 26 0.3 L 27.2 0.3 Z M 30.6 5.7 C 29.8 5.7 29.3 5.4 28.9 4.9 C 28.5 4.3 28.3 3.7 28.3 2.9 C 28.3 2.1 28.5 1.5 28.9 1 C 29.3 0.4 29.9 0.2 30.6 0.2 C 31.3 0.2 31.9 0.5 32.3 1 C 32.7 1.6 32.8 2.2 32.8 2.9 C 32.8 3.7 32.7 4.4 32.3 4.9 C 31.9 5.4 31.3 5.7 30.6 5.7 Z M 31.5 2.9 C 31.5 1.8 31.2 1.2 30.6 1.2 C 29.9 1.2 29.6 1.8 29.6 2.9 C 29.6 4.1 29.9 4.7 30.6 4.7 C 31.2 4.7 31.5 4.1 31.5 2.9 C 31.5 2.9 31.5 2.9 31.5 2.9 Z M 37.6 0.3 L 36 3.4 L 36 5.6 L 34.7 5.6 L 34.7 3.4 L 33 0.3 L 34.5 0.3 L 35.5 2.3 L 36.5 0.3 L 37.6 0.3 Z M 42.6 0.3 C 42.6 0.3 42.64 4.07 42.6 4.1 C 42.6 4.6 42.5 5 42.2 5.3 C 42 5.6 41.6 5.7 41 5.7 C 40.7 5.7 40.4 5.7 40.1 5.6 C 40.1 5.6 40.1 4.6 40.1 4.6 C 40.4 4.6 40.6 4.6 40.8 4.6 C 40.9 4.6 41 4.6 41.1 4.5 C 41.2 4.5 41.3 4.4 41.3 4.3 C 41.4 4.3 41.4 4.1 41.4 3.9 C 41.39 3.92 41.4 0.3 41.4 0.3 L 42.6 0.3 Z M 46.5 0.3 L 48.1 5.6 L 46.8 5.6 L 46.5 4.5 L 44.7 4.5 L 44.4 5.6 L 43.3 5.6 L 45 0.3 L 46.5 0.3 Z M 45 3.5 L 46.2 3.5 L 45.6 1.6 L 45 3.5 Z M 52.7 0.3 L 51.1 5.6 L 49.8 5.6 L 48.2 0.3 L 49.5 0.3 L 50.6 4.1 L 51.7 0.3 L 52.7 0.3 Z M 54.8 0.3 L 54.8 5.6 L 53.5 5.6 L 53.5 0.3 L 54.8 0.3 Z M 60 1.3 L 57.4 1.3 L 57.4 2.4 L 59.4 2.4 L 59.4 3.4 L 57.4 3.4 L 57.4 4.5 L 60 4.5 L 60 5.6 L 56.2 5.6 L 56.2 0.3 L 60 0.3 L 60 1.3 Z M 62.3 3.5 L 62.3 5.6 L 61.1 5.6 L 61.1 0.3 C 61.1 0.3 63.4 0.27 63.4 0.3 C 63.8 0.3 64.2 0.3 64.4 0.4 C 64.7 0.5 64.9 0.7 65.1 1 C 65.3 1.2 65.4 1.5 65.4 1.9 C 65.4 2.5 65 3 64.4 3.2 C 64.43 3.24 65.4 5.6 65.4 5.6 L 64 5.6 L 63.2 3.5 L 62.3 3.5 Z M 62.3 1.2 L 62.3 2.6 C 62.3 2.6 63.08 2.58 63.1 2.6 C 63.3 2.6 63.5 2.6 63.6 2.5 C 63.7 2.5 63.8 2.4 63.9 2.3 C 64 2.2 64.1 2 64.1 1.9 C 64.1 1.7 64 1.6 63.9 1.5 C 63.8 1.4 63.7 1.3 63.6 1.3 C 63.5 1.2 63.3 1.2 63.1 1.2 C 63.05 1.22 62.3 1.2 62.3 1.2 Z M 71.6 0.3 L 73.2 5.6 L 71.9 5.6 L 71.6 4.5 L 69.9 4.5 L 69.5 5.6 L 68.4 5.6 L 70.1 0.3 L 71.6 0.3 Z M 70.1 3.5 L 71.3 3.5 L 70.7 1.6 L 70.1 3.5 Z M 77.1 0.3 L 77.1 1.3 L 75.8 1.3 L 75.8 5.6 L 74.5 5.6 L 74.5 1.3 L 73.2 1.3 L 73.2 0.3 L 77.1 0.3 Z M 81.6 3.6 L 81.6 5.6 L 80.3 5.6 L 80.3 0.3 C 80.3 0.3 82.39 0.27 82.4 0.3 C 82.9 0.3 83.2 0.3 83.5 0.4 C 83.7 0.5 83.9 0.7 84.1 1 C 84.3 1.2 84.4 1.5 84.4 1.9 C 84.4 2.2 84.4 2.4 84.3 2.7 C 84.2 2.9 84 3.1 83.8 3.3 C 83.6 3.4 83.5 3.5 83.3 3.6 C 83.1 3.6 82.8 3.6 82.4 3.6 C 82.44 3.62 81.6 3.6 81.6 3.6 Z M 81.5 2.7 C 81.5 2.7 82.33 2.65 82.3 2.7 C 82.6 2.7 82.9 2.6 83 2.4 C 83.1 2.3 83.2 2.1 83.2 1.9 C 83.2 1.7 83.1 1.6 83 1.4 C 82.8 1.3 82.6 1.2 82.3 1.2 C 82.32 1.24 81.5 1.2 81.5 1.2 L 81.5 2.7 Z M 87.7 0.3 L 89.4 5.6 L 88.1 5.6 L 87.7 4.5 L 86 4.5 L 85.7 5.6 L 84.6 5.6 L 86.3 0.3 L 87.7 0.3 Z M 86.3 3.5 L 87.4 3.5 L 86.9 1.6 L 86.3 3.5 Z M 94.4 0.3 C 94.4 0.3 94.36 3.59 94.4 3.6 C 94.4 4.1 94.3 4.5 94.2 4.8 C 94.1 5 93.8 5.3 93.5 5.4 C 93.2 5.6 92.7 5.7 92.2 5.7 C 91.7 5.7 91.3 5.6 91 5.5 C 90.7 5.3 90.5 5.1 90.3 4.8 C 90.2 4.5 90.1 4.1 90.1 3.6 C 90.1 3.59 90.1 0.3 90.1 0.3 L 91.5 0.3 C 91.5 0.3 91.45 3.59 91.5 3.6 C 91.5 3.9 91.5 4.1 91.5 4.2 C 91.6 4.4 91.7 4.5 91.8 4.5 C 92 4.6 92.1 4.7 92.3 4.7 C 92.6 4.7 92.8 4.6 92.9 4.5 C 93.1 4.5 93.2 4.4 93.2 4.2 C 93.3 4.1 93.3 3.9 93.3 3.6 C 93.29 3.59 93.3 0.3 93.3 0.3 L 94.4 0.3 Z M 96.9 4.5 L 99.1 4.5 L 99.1 5.6 L 95.7 5.6 L 95.7 0.3 L 96.9 0.3 L 96.9 4.5 Z M 101.3 0.3 L 101.3 5.6 L 100 5.6 L 100 0.3 L 101.3 0.3 Z M 106.8 0.3 L 106.8 5.6 L 105.7 5.6 C 105.7 5.6 103.6 2 103.6 2 C 103.6 2.1 103.6 2.2 103.6 2.2 C 103.6 2.3 103.6 2.3 103.6 2.4 C 103.63 2.41 103.6 5.6 103.6 5.6 L 102.7 5.6 L 102.7 0.3 L 104 0.3 C 104 0.3 105.81 3.41 105.8 3.4 C 105.8 3.3 105.8 3.1 105.8 3.1 C 105.79 3.06 105.8 0.3 105.8 0.3 L 106.8 0.3 Z M 112 1.3 L 109.4 1.3 L 109.4 2.4 L 111.4 2.4 L 111.4 3.4 L 109.4 3.4 L 109.4 4.5 L 112 4.5 L 112 5.6 L 108.1 5.6 L 108.1 0.3 L 112 0.3 L 112 1.3 Z M 119.1 1.3 L 116.6 1.3 L 116.6 2.5 L 118.6 2.5 L 118.6 3.5 L 116.6 3.5 L 116.6 5.6 L 115.3 5.6 L 115.3 0.3 L 119.1 0.3 L 119.1 1.3 Z M 122.4 0.3 L 124.1 5.6 L 122.7 5.6 L 122.4 4.5 L 120.7 4.5 L 120.3 5.6 L 119.2 5.6 L 121 0.3 L 122.4 0.3 Z M 121 3.5 L 122.1 3.5 L 121.5 1.6 L 121 3.5 Z M 126.2 0.3 L 126.2 5.6 L 125 5.6 L 125 0.3 L 126.2 0.3 Z M 131 0.3 L 131 1.3 L 129.7 1.3 L 129.7 5.6 L 128.4 5.6 L 128.4 1.3 L 127.1 1.3 L 127.1 0.3 L 131 0.3 Z M 135.9 0.3 L 135.9 5.6 L 134.7 5.6 L 134.7 3.4 L 133.1 3.4 L 133.1 5.6 L 131.8 5.6 L 131.8 0.3 L 133.1 0.3 L 133.1 2.3 L 134.7 2.3 L 134.7 0.3 L 135.9 0.3 Z " stroke="none" fill="#000"/>
  </g>
</svg>