<?xml version="1.0" standalone="no"?>
<!DOCTYPE svg PUBLIC "-//W3C//DTD SVG 1.1//EN" "http://www.w3.org/Graphics/SVG/1.1/DTD/svg11.dtd">
<svg xmlns="http://www.w3.org/2000/svg" version="1.1" width="792px" height="111px" viewBox="0 -18 792 111" style="top:-18px">
  <desc>OPINYON</desc>
  <defs/>
  <g id="Polygon16775">
    <path d="M 200.3 27 C 200.3 14.7 208.5 -1.2 230.1 -1.2 C 248 -1.2 259.2 9.2 259.2 25.7 C 259.2 42.2 247.6 55.2 229.4 55.2 C 208.7 55.2 200.3 39.7 200.3 27 Z M 249.1 28.4 C 249.1 12.2 239.8 2.2 228 2.2 C 219.7 2.2 210.3 6.8 210.3 24.8 C 210.3 39.7 218.6 51.6 232.4 51.6 C 237.4 51.6 249.1 49.2 249.1 28.4 Z M 274.9 20.7 C 274.9 9.7 274.9 7.7 274.8 5.4 C 274.6 3 274.1 1.8 271.7 1.3 C 271.1 1.2 269.9 1.1 268.9 1.1 C 268.1 1.1 267.7 0.9 267.7 0.4 C 267.7 -0.1 268.2 -0.2 269.2 -0.2 C 273.1 -0.2 277.6 0 279.6 0 C 282.6 0 286.7 -0.2 290.1 -0.2 C 299.1 -0.2 302.3 2.8 303.4 3.9 C 305 5.4 307 8.6 307 12.5 C 307 22.7 299.6 29.9 289.3 29.9 C 289 29.9 288.2 29.9 287.8 29.8 C 287.5 29.7 287 29.7 287 29.2 C 287 28.6 287.5 28.4 289 28.4 C 293 28.4 298.6 23.8 298.6 16.5 C 298.6 14.1 298.4 9.3 294.4 5.7 C 291.8 3.3 288.8 2.9 287.2 2.9 C 286.1 2.9 285 3 284.4 3.2 C 284 3.3 283.8 3.7 283.8 4.5 C 283.8 4.5 283.8 33.3 283.8 33.3 C 283.8 40 283.8 45.6 284.1 48.7 C 284.4 50.8 284.8 52.3 287 52.6 C 288 52.8 289.5 52.9 290.6 52.9 C 291.4 52.9 291.8 53.1 291.8 53.5 C 291.8 54 291.2 54.2 290.4 54.2 C 285.7 54.2 281.1 54 279.3 54 C 277.6 54 273.1 54.2 270.2 54.2 C 269.2 54.2 268.7 54 268.7 53.5 C 268.7 53.1 269 52.9 269.9 52.9 C 271 52.9 271.8 52.8 272.5 52.6 C 273.9 52.3 274.3 50.8 274.6 48.7 C 274.9 45.6 274.9 40 274.9 33.3 C 274.9 33.3 274.9 20.7 274.9 20.7 Z M 322.8 20.7 C 322.8 9.7 322.8 7.7 322.7 5.4 C 322.5 3 321.8 1.7 320.2 1.4 C 319.4 1.2 318.5 1.1 317.6 1.1 C 316.9 1.1 316.5 0.9 316.5 0.4 C 316.5 -0.1 317.1 -0.2 318.2 -0.2 C 320.9 -0.2 325.5 0 327.6 0 C 329.4 0 333.6 -0.2 336.3 -0.2 C 337.3 -0.2 337.9 -0.1 337.9 0.4 C 337.9 0.9 337.4 1.1 336.7 1.1 C 336 1.1 335.4 1.2 334.5 1.3 C 332.6 1.7 332 2.9 331.9 5.4 C 331.7 7.7 331.7 9.7 331.7 20.7 C 331.7 20.7 331.7 33.3 331.7 33.3 C 331.7 40.3 331.7 46 332 49.1 C 332.2 51 332.7 52.3 334.9 52.6 C 335.9 52.8 337.5 52.9 338.6 52.9 C 339.4 52.9 339.7 53.1 339.7 53.5 C 339.7 54 339.2 54.2 338.4 54.2 C 333.6 54.2 329.1 54 327.1 54 C 325.5 54 320.9 54.2 318.1 54.2 C 317.1 54.2 316.6 54 316.6 53.5 C 316.6 53.1 316.9 52.9 317.8 52.9 C 318.9 52.9 319.7 52.8 320.4 52.6 C 321.8 52.3 322.2 51.1 322.5 49 C 322.8 46 322.8 40.3 322.8 33.3 C 322.8 33.3 322.8 20.7 322.8 20.7 Z M 360.1 44.4 C 360.3 50 361.2 51.9 362.6 52.4 C 363.9 52.8 365.2 52.9 366.4 52.9 C 367.2 52.9 367.6 53.1 367.6 53.5 C 367.6 54.1 366.9 54.2 365.9 54.2 C 361.3 54.2 358.4 54 357 54 C 356.4 54 353 54.2 349.2 54.2 C 348.3 54.2 347.7 54.1 347.7 53.5 C 347.7 53.1 348.1 52.9 348.8 52.9 C 349.7 52.9 351 52.8 352 52.6 C 353.9 52 354.2 49.9 354.3 43.6 C 354.3 43.6 354.9 1 354.9 1 C 354.9 -0.4 355.1 -1.4 355.9 -1.4 C 356.7 -1.4 357.3 -0.5 358.5 0.8 C 359.4 1.7 370.3 13.5 380.8 23.9 C 385.7 28.8 395.5 39.2 396.7 40.3 C 396.68 40.32 397 40.3 397 40.3 C 397 40.3 396.32 7.99 396.3 8 C 396.3 3.6 395.6 2.2 393.9 1.5 C 392.8 1.1 391.1 1.1 390.1 1.1 C 389.2 1.1 388.9 0.9 388.9 0.4 C 388.9 -0.1 389.7 -0.2 390.8 -0.2 C 394.5 -0.2 398 0 399.5 0 C 400.3 0 403 -0.2 406.5 -0.2 C 407.5 -0.2 408.2 -0.1 408.2 0.4 C 408.2 0.9 407.8 1.1 406.9 1.1 C 406.2 1.1 405.6 1.1 404.7 1.3 C 402.7 1.9 402.2 3.4 402.1 7.4 C 402.1 7.4 401.3 52.8 401.3 52.8 C 401.3 54.4 401 55.1 400.4 55.1 C 399.6 55.1 398.7 54.3 397.9 53.5 C 393.4 49.2 384.2 39.7 376.7 32.3 C 368.8 24.6 360.8 15.6 359.5 14.2 C 359.53 14.18 359.3 14.2 359.3 14.2 C 359.3 14.2 360.11 44.42 360.1 44.4 Z M 433 35.6 C 433 31.7 432.3 30.1 431.4 28 C 430.9 26.9 421.2 11 418.7 7.3 C 416.9 4.6 415.1 2.8 413.7 2 C 412.8 1.5 411.6 1.1 410.7 1.1 C 410.1 1.1 409.6 0.9 409.6 0.4 C 409.6 0 410.1 -0.2 411 -0.2 C 412.3 -0.2 417.7 0 420.1 0 C 421.6 0 424.5 -0.2 427.8 -0.2 C 428.5 -0.2 428.9 0 428.9 0.4 C 428.9 0.9 428.4 0.9 427.3 1.2 C 426.6 1.4 426.3 1.9 426.3 2.5 C 426.3 3.1 426.6 4 427.1 5 C 428.1 7.1 438.2 24.5 439.4 26.5 C 440.1 24.8 449.2 8.9 450.2 6.7 C 450.9 5.1 451.2 3.9 451.2 3 C 451.2 2.2 450.9 1.4 449.7 1.2 C 449 1 448.4 0.9 448.4 0.4 C 448.4 -0.1 448.7 -0.2 449.6 -0.2 C 452 -0.2 454.3 0 456.4 0 C 458 0 462.7 -0.2 464.1 -0.2 C 464.9 -0.2 465.4 -0.1 465.4 0.4 C 465.4 0.9 464.8 1.1 464 1.1 C 463.3 1.1 461.9 1.4 460.8 1.9 C 459.3 2.7 458.5 3.5 456.9 5.5 C 454.6 8.4 444.5 25.3 443.2 28.4 C 442.1 31 442.1 33.2 442.1 35.6 C 442.1 35.6 442.1 41.5 442.1 41.5 C 442.1 42.6 442.1 45.6 442.3 48.7 C 442.5 50.8 443.1 52.3 445.3 52.6 C 446.3 52.8 447.9 52.9 448.9 52.9 C 449.7 52.9 450 53.1 450 53.5 C 450 54 449.5 54.2 448.5 54.2 C 444 54.2 439.5 54 437.5 54 C 435.7 54 431.2 54.2 428.5 54.2 C 427.5 54.2 426.9 54.1 426.9 53.5 C 426.9 53.1 427.3 52.9 428.1 52.9 C 429.1 52.9 429.9 52.8 430.6 52.6 C 432 52.3 432.7 50.8 432.8 48.7 C 433 45.6 433 42.6 433 41.5 C 433 41.5 433 35.6 433 35.6 Z M 464.7 27 C 464.7 14.7 472.8 -1.2 494.4 -1.2 C 512.3 -1.2 523.5 9.2 523.5 25.7 C 523.5 42.2 512 55.2 493.7 55.2 C 473 55.2 464.7 39.7 464.7 27 Z M 513.4 28.4 C 513.4 12.2 504.1 2.2 492.3 2.2 C 484 2.2 474.6 6.8 474.6 24.8 C 474.6 39.7 482.9 51.6 496.7 51.6 C 501.7 51.6 513.4 49.2 513.4 28.4 Z M 543.3 44.4 C 543.4 50 544.4 51.9 545.8 52.4 C 547 52.8 548.4 52.9 549.5 52.9 C 550.3 52.9 550.8 53.1 550.8 53.5 C 550.8 54.1 550.1 54.2 549.1 54.2 C 544.4 54.2 541.5 54 540.2 54 C 539.5 54 536.1 54.2 532.4 54.2 C 531.5 54.2 530.8 54.1 530.8 53.5 C 530.8 53.1 531.3 52.9 532 52.9 C 532.9 52.9 534.2 52.8 535.2 52.6 C 537.1 52 537.4 49.9 537.4 43.6 C 537.4 43.6 538.1 1 538.1 1 C 538.1 -0.4 538.3 -1.4 539 -1.4 C 539.8 -1.4 540.5 -0.5 541.7 0.8 C 542.6 1.7 553.5 13.5 564 23.9 C 568.9 28.8 578.6 39.2 579.9 40.3 C 579.85 40.32 580.2 40.3 580.2 40.3 C 580.2 40.3 579.49 7.99 579.5 8 C 579.4 3.6 578.8 2.2 577 1.5 C 576 1.1 574.2 1.1 573.2 1.1 C 572.4 1.1 572.1 0.9 572.1 0.4 C 572.1 -0.1 572.9 -0.2 573.9 -0.2 C 577.7 -0.2 581.1 0 582.7 0 C 583.5 0 586.2 -0.2 589.7 -0.2 C 590.7 -0.2 591.4 -0.1 591.4 0.4 C 591.4 0.9 590.9 1.1 590.1 1.1 C 589.4 1.1 588.8 1.1 587.9 1.3 C 585.9 1.9 585.3 3.4 585.3 7.4 C 585.3 7.4 584.5 52.8 584.5 52.8 C 584.5 54.4 584.2 55.1 583.5 55.1 C 582.7 55.1 581.9 54.3 581.1 53.5 C 576.5 49.2 567.3 39.7 559.8 32.3 C 552 24.6 544 15.6 542.7 14.2 C 542.7 14.18 542.5 14.2 542.5 14.2 C 542.5 14.2 543.28 44.42 543.3 44.4 Z " stroke="none" fill="#000"/>
  </g>
</svg>