<?xml version="1.0" standalone="no"?>
<!DOCTYPE svg PUBLIC "-//W3C//DTD SVG 1.1//EN" "http://www.w3.org/Graphics/SVG/1.1/DTD/svg11.dtd">
<svg xmlns="http://www.w3.org/2000/svg" version="1.1" width="792px" height="35.2px" viewBox="0 -8 792 35.2" style="top:-8px">
  <desc>Nagigibang ikalawang tahanan ni Juan:</desc>
  <defs/>
  <g id="Polygon20115">
    <path d="M 197.5 0.7 L 201.1 0.7 L 204.9 9.9 L 204.9 0.7 L 207.4 0.7 L 207.4 15.4 L 204.5 15.4 L 200 4.8 L 200 15.4 L 197.5 15.4 L 197.5 0.7 Z M 213 0.7 L 216.2 0.7 L 220.4 15.4 L 217.1 15.4 L 216.4 12.4 L 212.3 12.4 L 211.6 15.4 L 208.6 15.4 L 213 0.7 Z M 215.8 9.9 L 214.3 3.9 L 212.9 9.9 L 215.8 9.9 Z M 226.6 7.6 L 231.7 7.6 L 231.7 15.4 L 230.3 15.4 C 230.3 15.4 229.9 13.73 229.9 13.7 C 229.1 15 227.9 15.6 226.4 15.6 C 224.7 15.6 223.4 15 222.4 13.7 C 221.4 12.3 220.9 10.6 220.9 8.4 C 220.9 5.9 221.4 4 222.4 2.6 C 223.3 1.2 224.7 0.5 226.6 0.5 C 229.6 0.5 231.3 2.2 231.7 5.5 C 231.7 5.5 228.8 6 228.8 6 C 228.6 4.1 227.9 3.1 226.7 3.1 C 226 3.1 225.4 3.5 225 4.2 C 224.5 4.9 224.3 6.3 224.3 8.2 C 224.3 10 224.5 11.2 224.9 11.9 C 225.4 12.7 226 13 226.8 13 C 228.1 13 228.8 12 228.8 10.1 C 228.78 10.1 226.6 10.1 226.6 10.1 L 226.6 7.6 Z M 234.2 0.7 L 237.4 0.7 L 237.4 15.4 L 234.2 15.4 L 234.2 0.7 Z M 245.3 7.6 L 250.4 7.6 L 250.4 15.4 L 249.1 15.4 C 249.1 15.4 248.64 13.73 248.6 13.7 C 247.9 15 246.7 15.6 245.1 15.6 C 243.4 15.6 242.1 15 241.1 13.7 C 240.2 12.3 239.7 10.6 239.7 8.4 C 239.7 5.9 240.1 4 241.1 2.6 C 242.1 1.2 243.5 0.5 245.4 0.5 C 248.4 0.5 250.1 2.2 250.4 5.5 C 250.4 5.5 247.5 6 247.5 6 C 247.3 4.1 246.6 3.1 245.4 3.1 C 244.7 3.1 244.1 3.5 243.7 4.2 C 243.3 4.9 243.1 6.3 243.1 8.2 C 243.1 10 243.3 11.2 243.7 11.9 C 244.1 12.7 244.7 13 245.6 13 C 246.9 13 247.5 12 247.5 10.1 C 247.53 10.1 245.3 10.1 245.3 10.1 L 245.3 7.6 Z M 252.9 0.7 L 256.2 0.7 L 256.2 15.4 L 252.9 15.4 L 252.9 0.7 Z M 258.9 0.7 C 258.9 0.7 263.94 0.74 263.9 0.7 C 265.1 0.7 266 0.8 266.6 1 C 267.2 1.2 267.7 1.6 268.1 2.2 C 268.5 2.9 268.7 3.7 268.7 4.6 C 268.7 6.2 268 7.3 266.6 7.8 C 268.3 8.3 269.1 9.5 269.1 11.4 C 269.1 12.3 268.9 13.1 268.4 13.8 C 268 14.4 267.4 14.9 266.8 15.1 C 266.1 15.3 265.2 15.4 263.9 15.4 C 263.94 15.4 258.9 15.4 258.9 15.4 L 258.9 0.7 Z M 262 6.7 C 262 6.7 263.07 6.66 263.1 6.7 C 264.1 6.7 264.8 6.5 265 6.1 C 265.3 5.7 265.4 5.3 265.4 4.8 C 265.4 4.4 265.3 4 265 3.6 C 264.8 3.3 264.2 3.1 263.3 3.1 C 263.31 3.12 262 3.1 262 3.1 L 262 6.7 Z M 262 12.9 C 262 12.9 263.61 12.89 263.6 12.9 C 265.1 12.9 265.8 12.3 265.8 11 C 265.8 10.3 265.6 9.8 265.3 9.5 C 264.9 9.2 264.4 9 263.6 9 C 263.61 9.03 262 9 262 9 L 262 12.9 Z M 273.9 0.7 L 277.1 0.7 L 281.3 15.4 L 278 15.4 L 277.3 12.4 L 273.2 12.4 L 272.4 15.4 L 269.5 15.4 L 273.9 0.7 Z M 276.7 9.9 L 275.2 3.9 L 273.8 9.9 L 276.7 9.9 Z M 282.4 0.7 L 286 0.7 L 289.8 9.9 L 289.8 0.7 L 292.3 0.7 L 292.3 15.4 L 289.4 15.4 L 284.9 4.8 L 284.9 15.4 L 282.4 15.4 L 282.4 0.7 Z M 300.1 7.6 L 305.1 7.6 L 305.1 15.4 L 303.8 15.4 C 303.8 15.4 303.36 13.73 303.4 13.7 C 302.6 15 301.4 15.6 299.8 15.6 C 298.2 15.6 296.8 15 295.9 13.7 C 294.9 12.3 294.4 10.6 294.4 8.4 C 294.4 5.9 294.9 4 295.8 2.6 C 296.8 1.2 298.2 0.5 300.1 0.5 C 303.1 0.5 304.8 2.2 305.1 5.5 C 305.1 5.5 302.2 6 302.2 6 C 302 4.1 301.4 3.1 300.2 3.1 C 299.4 3.1 298.9 3.5 298.4 4.2 C 298 4.9 297.8 6.3 297.8 8.2 C 297.8 10 298 11.2 298.4 11.9 C 298.8 12.7 299.5 13 300.3 13 C 301.6 13 302.2 12 302.2 10.1 C 302.25 10.1 300.1 10.1 300.1 10.1 L 300.1 7.6 Z M 317.9 0.7 L 321.1 0.7 L 321.1 15.4 L 317.9 15.4 L 317.9 0.7 Z M 323.9 0.7 L 327.1 0.7 L 327.1 6.9 L 330.7 0.7 L 334 0.7 L 330.3 6.1 L 334.3 15.4 L 330.9 15.4 L 328.4 8.7 L 327.1 10.4 L 327.1 15.4 L 323.9 15.4 L 323.9 0.7 Z M 338.1 0.7 L 341.4 0.7 L 345.5 15.4 L 342.3 15.4 L 341.5 12.4 L 337.4 12.4 L 336.7 15.4 L 333.7 15.4 L 338.1 0.7 Z M 340.9 9.9 L 339.4 3.9 L 338 9.9 L 340.9 9.9 Z M 346.8 0.7 L 350 0.7 L 350 12.7 L 354.7 12.7 L 354.7 15.4 L 346.8 15.4 L 346.8 0.7 Z M 358.7 0.7 L 362 0.7 L 366.2 15.4 L 362.9 15.4 L 362.1 12.4 L 358 12.4 L 357.3 15.4 L 354.3 15.4 L 358.7 0.7 Z M 361.5 9.9 L 360 3.9 L 358.6 9.9 L 361.5 9.9 Z M 365.6 0.7 L 368.9 0.7 L 370.5 10.9 L 372.4 0.7 L 375.3 0.7 L 377.1 10.9 L 378.9 0.7 L 381.6 0.7 L 378.5 15.5 L 375.6 15.5 L 373.7 5.3 L 371.7 15.5 L 368.8 15.5 L 365.6 0.7 Z M 385.3 0.7 L 388.6 0.7 L 392.8 15.4 L 389.5 15.4 L 388.7 12.4 L 384.6 12.4 L 383.9 15.4 L 380.9 15.4 L 385.3 0.7 Z M 388.1 9.9 L 386.6 3.9 L 385.2 9.9 L 388.1 9.9 Z M 393.9 0.7 L 397.4 0.7 L 401.2 9.9 L 401.2 0.7 L 403.7 0.7 L 403.7 15.4 L 400.8 15.4 L 396.3 4.8 L 396.3 15.4 L 393.9 15.4 L 393.9 0.7 Z M 411.5 7.6 L 416.6 7.6 L 416.6 15.4 L 415.2 15.4 C 415.2 15.4 414.79 13.73 414.8 13.7 C 414 15 412.8 15.6 411.2 15.6 C 409.6 15.6 408.3 15 407.3 13.7 C 406.3 12.3 405.8 10.6 405.8 8.4 C 405.8 5.9 406.3 4 407.3 2.6 C 408.2 1.2 409.6 0.5 411.5 0.5 C 414.5 0.5 416.2 2.2 416.6 5.5 C 416.6 5.5 413.7 6 413.7 6 C 413.5 4.1 412.8 3.1 411.6 3.1 C 410.9 3.1 410.3 3.5 409.9 4.2 C 409.4 4.9 409.2 6.3 409.2 8.2 C 409.2 10 409.4 11.2 409.8 11.9 C 410.3 12.7 410.9 13 411.7 13 C 413 13 413.7 12 413.7 10.1 C 413.68 10.1 411.5 10.1 411.5 10.1 L 411.5 7.6 Z M 427.7 0.7 L 436.8 0.7 L 436.8 3.5 L 433.9 3.5 L 433.9 15.4 L 430.6 15.4 L 430.6 3.5 L 427.7 3.5 L 427.7 0.7 Z M 440.3 0.7 L 443.5 0.7 L 447.7 15.4 L 444.4 15.4 L 443.7 12.4 L 439.5 12.4 L 438.8 15.4 L 435.9 15.4 L 440.3 0.7 Z M 443.1 9.9 L 441.6 3.9 L 440.2 9.9 L 443.1 9.9 Z M 448.9 0.7 L 452.1 0.7 L 452.1 6.7 L 455.7 6.7 L 455.7 0.7 L 458.9 0.7 L 458.9 15.4 L 455.7 15.4 L 455.7 9.4 L 452.1 9.4 L 452.1 15.4 L 448.9 15.4 L 448.9 0.7 Z M 464.3 0.7 L 467.5 0.7 L 471.7 15.4 L 468.4 15.4 L 467.7 12.4 L 463.5 12.4 L 462.8 15.4 L 459.8 15.4 L 464.3 0.7 Z M 467.1 9.9 L 465.6 3.9 L 464.1 9.9 L 467.1 9.9 Z M 472.8 0.7 L 476.4 0.7 L 480.1 9.9 L 480.1 0.7 L 482.6 0.7 L 482.6 15.4 L 479.8 15.4 L 475.3 4.8 L 475.3 15.4 L 472.8 15.4 L 472.8 0.7 Z M 488.3 0.7 L 491.5 0.7 L 495.7 15.4 L 492.4 15.4 L 491.7 12.4 L 487.6 12.4 L 486.8 15.4 L 483.9 15.4 L 488.3 0.7 Z M 491.1 9.9 L 489.6 3.9 L 488.2 9.9 L 491.1 9.9 Z M 496.8 0.7 L 500.4 0.7 L 504.2 9.9 L 504.2 0.7 L 506.7 0.7 L 506.7 15.4 L 503.8 15.4 L 499.3 4.8 L 499.3 15.4 L 496.8 15.4 L 496.8 0.7 Z M 519.4 0.7 L 523 0.7 L 526.8 9.9 L 526.8 0.7 L 529.3 0.7 L 529.3 15.4 L 526.4 15.4 L 521.9 4.8 L 521.9 15.4 L 519.4 15.4 L 519.4 0.7 Z M 531.9 0.7 L 535.1 0.7 L 535.1 15.4 L 531.9 15.4 L 531.9 0.7 Z M 549.4 0.7 L 552.6 0.7 C 552.6 0.7 552.6 10.47 552.6 10.5 C 552.6 11.7 552.5 12.7 552.3 13.4 C 552.1 14.1 551.8 14.6 551.2 15 C 550.6 15.4 549.8 15.6 548.7 15.6 C 548.2 15.6 547.5 15.6 546.7 15.4 C 546.7 15.4 546.7 12.7 546.7 12.7 C 547.2 12.8 547.6 12.9 548 12.9 C 548.6 12.9 548.9 12.7 549.1 12.4 C 549.3 12.1 549.4 11.5 549.4 10.5 C 549.38 10.47 549.4 0.7 549.4 0.7 Z M 555.3 0.7 L 558.5 0.7 C 558.5 0.7 558.52 9.12 558.5 9.1 C 558.5 10.3 558.6 11.1 558.7 11.6 C 558.8 12.1 559 12.4 559.4 12.6 C 559.7 12.9 560.1 13 560.6 13 C 561.1 13 561.6 12.9 561.9 12.6 C 562.2 12.3 562.4 12 562.5 11.6 C 562.5 11.1 562.6 10.3 562.6 9.1 C 562.57 9.12 562.6 0.7 562.6 0.7 L 565.3 0.7 C 565.3 0.7 565.27 8.99 565.3 9 C 565.3 10.6 565.2 11.9 565 12.7 C 564.8 13.5 564.3 14.2 563.5 14.8 C 562.8 15.3 561.7 15.6 560.3 15.6 C 559.1 15.6 558.1 15.4 557.3 15 C 556.6 14.6 556.1 14 555.8 13.2 C 555.5 12.4 555.3 11.1 555.3 9.1 C 555.3 9.12 555.3 0.7 555.3 0.7 Z M 570.5 0.7 L 573.7 0.7 L 577.9 15.4 L 574.6 15.4 L 573.9 12.4 L 569.8 12.4 L 569.1 15.4 L 566.1 15.4 L 570.5 0.7 Z M 573.3 9.9 L 571.8 3.9 L 570.4 9.9 L 573.3 9.9 Z M 579 0.7 L 582.6 0.7 L 586.4 9.9 L 586.4 0.7 L 588.9 0.7 L 588.9 15.4 L 586 15.4 L 581.5 4.8 L 581.5 15.4 L 579 15.4 L 579 0.7 Z M 591.4 4.6 L 594.4 4.6 L 594.4 7.8 L 591.4 7.8 L 591.4 4.6 Z M 591.4 12.2 L 594.4 12.2 L 594.4 15.4 L 591.4 15.4 L 591.4 12.2 Z " stroke="none" fill="#000"/>
  </g>
</svg>