<?xml version="1.0" standalone="no"?>
<!DOCTYPE svg PUBLIC "-//W3C//DTD SVG 1.1//EN" "http://www.w3.org/Graphics/SVG/1.1/DTD/svg11.dtd">
<svg xmlns="http://www.w3.org/2000/svg" version="1.1" width="149px" height="133.4px" viewBox="0 -3 149 133.4" style="top:-3px">
  <desc>Punong Patnugot Pangalawang Patnugot Tagapamahalang Patnugot Patnugot ng Balita PATNUGOT NG BAYAN Patnugot ng Buhay</desc>
  <defs/>
  <g id="Polygon17916">
    <path d="M 19.3 121.6 L 18.6 121.6 L 18.6 117.9 L 17.3 117.9 L 17.3 117.3 L 20.6 117.3 L 20.6 117.9 L 19.3 117.9 L 19.3 121.6 Z M 23.8 121.6 L 23.3 120.4 L 21.7 120.4 L 21.3 121.6 L 20.5 121.6 L 22.1 117.3 L 22.9 117.3 L 24.5 121.6 L 23.8 121.6 Z M 23.2 119.8 C 23.2 119.8 22.75 118.63 22.7 118.6 C 22.7 118.6 22.7 118.4 22.6 118.3 C 22.6 118.1 22.5 118 22.5 117.9 C 22.5 118.1 22.4 118.4 22.3 118.7 C 22.29 118.68 21.9 119.8 21.9 119.8 L 23.2 119.8 Z M 26.7 119.3 L 28.3 119.3 C 28.3 119.3 28.28 121.42 28.3 121.4 C 28 121.5 27.8 121.6 27.5 121.6 C 27.3 121.6 27 121.6 26.8 121.6 C 26.1 121.6 25.6 121.5 25.3 121.1 C 24.9 120.7 24.7 120.1 24.7 119.4 C 24.7 118.8 24.9 118.2 25.3 117.8 C 25.7 117.4 26.3 117.2 27 117.2 C 27.4 117.2 27.8 117.3 28.2 117.5 C 28.2 117.5 28 118.1 28 118.1 C 27.7 117.9 27.3 117.8 27 117.8 C 26.5 117.8 26.1 118 25.9 118.3 C 25.6 118.6 25.5 119 25.5 119.5 C 25.5 120 25.6 120.4 25.8 120.6 C 26.1 120.9 26.4 121.1 26.9 121.1 C 27.1 121.1 27.3 121 27.6 121 C 27.59 120.97 27.6 119.9 27.6 119.9 L 26.7 119.9 L 26.7 119.3 Z M 31.8 121.6 L 31.4 120.4 L 29.8 120.4 L 29.4 121.6 L 28.6 121.6 L 30.2 117.3 L 31 117.3 L 32.6 121.6 L 31.8 121.6 Z M 31.2 119.8 C 31.2 119.8 30.83 118.63 30.8 118.6 C 30.8 118.6 30.8 118.4 30.7 118.3 C 30.7 118.1 30.6 118 30.6 117.9 C 30.6 118.1 30.5 118.4 30.4 118.7 C 30.37 118.68 30 119.8 30 119.8 L 31.2 119.8 Z M 35.9 118.6 C 35.9 119 35.7 119.4 35.4 119.6 C 35.1 119.9 34.7 120 34.2 120 C 34.18 119.99 33.7 120 33.7 120 L 33.7 121.6 L 33 121.6 L 33 117.3 C 33 117.3 34.27 117.31 34.3 117.3 C 34.8 117.3 35.2 117.4 35.5 117.6 C 35.7 117.9 35.9 118.2 35.9 118.6 Z M 33.7 119.4 C 33.7 119.4 34.11 119.4 34.1 119.4 C 34.5 119.4 34.7 119.3 34.9 119.2 C 35.1 119.1 35.2 118.9 35.2 118.6 C 35.2 118.4 35.1 118.2 34.9 118.1 C 34.8 118 34.5 117.9 34.2 117.9 C 34.22 117.89 33.7 117.9 33.7 117.9 L 33.7 119.4 Z M 39.3 121.6 L 38.8 120.4 L 37.2 120.4 L 36.8 121.6 L 36 121.6 L 37.6 117.3 L 38.4 117.3 L 40 121.6 L 39.3 121.6 Z M 38.7 119.8 C 38.7 119.8 38.25 118.63 38.3 118.6 C 38.2 118.6 38.2 118.4 38.1 118.3 C 38.1 118.1 38 118 38 117.9 C 38 118.1 37.9 118.4 37.8 118.7 C 37.79 118.68 37.4 119.8 37.4 119.8 L 38.7 119.8 Z M 42.3 121.6 L 41.1 118 C 41.1 118 41.04 118.01 41 118 C 41.1 118.5 41.1 119 41.1 119.5 C 41.09 119.51 41.1 121.6 41.1 121.6 L 40.5 121.6 L 40.5 117.3 L 41.4 117.3 L 42.6 120.7 L 42.6 120.7 L 43.9 117.3 L 44.9 117.3 L 44.9 121.6 L 44.2 121.6 C 44.2 121.6 44.19 119.47 44.2 119.5 C 44.2 119.3 44.2 119 44.2 118.6 C 44.2 118.3 44.2 118.1 44.2 118 C 44.23 118.02 44.2 118 44.2 118 L 42.9 121.6 L 42.3 121.6 Z M 48.5 121.6 L 48.1 120.4 L 46.5 120.4 L 46 121.6 L 45.3 121.6 L 46.9 117.3 L 47.7 117.3 L 49.3 121.6 L 48.5 121.6 Z M 47.9 119.8 C 47.9 119.8 47.51 118.63 47.5 118.6 C 47.5 118.6 47.4 118.4 47.4 118.3 C 47.3 118.1 47.3 118 47.3 117.9 C 47.2 118.1 47.2 118.4 47.1 118.7 C 47.05 118.68 46.7 119.8 46.7 119.8 L 47.9 119.8 Z M 53.1 121.6 L 52.4 121.6 L 52.4 119.7 L 50.4 119.7 L 50.4 121.6 L 49.7 121.6 L 49.7 117.3 L 50.4 117.3 L 50.4 119.1 L 52.4 119.1 L 52.4 117.3 L 53.1 117.3 L 53.1 121.6 Z M 56.8 121.6 L 56.3 120.4 L 54.7 120.4 L 54.3 121.6 L 53.5 121.6 L 55.1 117.3 L 55.9 117.3 L 57.5 121.6 L 56.8 121.6 Z M 56.1 119.8 C 56.1 119.8 55.75 118.63 55.7 118.6 C 55.7 118.6 55.7 118.4 55.6 118.3 C 55.6 118.1 55.5 118 55.5 117.9 C 55.5 118.1 55.4 118.4 55.3 118.7 C 55.29 118.68 54.9 119.8 54.9 119.8 L 56.1 119.8 Z M 58 121.6 L 58 117.3 L 58.7 117.3 L 58.7 121 L 60.5 121 L 60.5 121.6 L 58 121.6 Z M 63.7 121.6 L 63.3 120.4 L 61.7 120.4 L 61.3 121.6 L 60.5 121.6 L 62.1 117.3 L 62.9 117.3 L 64.5 121.6 L 63.7 121.6 Z M 63.1 119.8 C 63.1 119.8 62.73 118.63 62.7 118.6 C 62.7 118.6 62.7 118.4 62.6 118.3 C 62.6 118.1 62.5 118 62.5 117.9 C 62.4 118.1 62.4 118.4 62.3 118.7 C 62.27 118.68 61.9 119.8 61.9 119.8 L 63.1 119.8 Z M 69.9 121.6 L 69.1 121.6 L 67 118.2 L 66.9 118.2 C 66.9 118.2 66.96 118.37 67 118.4 C 67 118.7 67 119.1 67 119.4 C 67 119.36 67 121.6 67 121.6 L 66.4 121.6 L 66.4 117.3 L 67.2 117.3 L 69.3 120.7 C 69.3 120.7 69.34 120.7 69.3 120.7 C 69.3 120.7 69.3 120.5 69.3 120.2 C 69.3 119.9 69.3 119.7 69.3 119.6 C 69.29 119.55 69.3 117.3 69.3 117.3 L 69.9 117.3 L 69.9 121.6 Z M 72.7 119.3 L 74.3 119.3 C 74.3 119.3 74.27 121.42 74.3 121.4 C 74 121.5 73.8 121.6 73.5 121.6 C 73.3 121.6 73 121.6 72.8 121.6 C 72.1 121.6 71.6 121.5 71.3 121.1 C 70.9 120.7 70.7 120.1 70.7 119.4 C 70.7 118.8 70.9 118.2 71.3 117.8 C 71.7 117.4 72.3 117.2 73 117.2 C 73.4 117.2 73.8 117.3 74.2 117.5 C 74.2 117.5 74 118.1 74 118.1 C 73.6 117.9 73.3 117.8 73 117.8 C 72.5 117.8 72.1 118 71.9 118.3 C 71.6 118.6 71.5 119 71.5 119.5 C 71.5 120 71.6 120.4 71.8 120.6 C 72.1 120.9 72.4 121.1 72.9 121.1 C 73.1 121.1 73.3 121 73.6 121 C 73.59 120.97 73.6 119.9 73.6 119.9 L 72.7 119.9 L 72.7 119.3 Z M 80.4 119.4 C 80.4 120.1 80.3 120.7 79.9 121.1 C 79.6 121.5 79.1 121.6 78.4 121.6 C 77.8 121.6 77.3 121.5 76.9 121.1 C 76.6 120.7 76.4 120.1 76.4 119.4 C 76.4 118.7 76.6 118.2 76.9 117.8 C 77.3 117.4 77.8 117.2 78.4 117.2 C 79.1 117.2 79.6 117.4 79.9 117.8 C 80.3 118.2 80.4 118.7 80.4 119.4 Z M 77.2 119.4 C 77.2 120 77.3 120.4 77.5 120.6 C 77.7 120.9 78 121.1 78.4 121.1 C 78.8 121.1 79.2 120.9 79.4 120.6 C 79.6 120.4 79.7 120 79.7 119.4 C 79.7 118.9 79.6 118.5 79.4 118.2 C 79.2 118 78.8 117.8 78.4 117.8 C 78 117.8 77.7 118 77.5 118.2 C 77.3 118.5 77.2 118.9 77.2 119.4 Z M 84.1 118.6 C 84.1 119 83.9 119.4 83.6 119.6 C 83.3 119.9 82.9 120 82.4 120 C 82.37 119.99 81.9 120 81.9 120 L 81.9 121.6 L 81.2 121.6 L 81.2 117.3 C 81.2 117.3 82.46 117.31 82.5 117.3 C 83 117.3 83.4 117.4 83.7 117.6 C 83.9 117.9 84.1 118.2 84.1 118.6 Z M 81.9 119.4 C 81.9 119.4 82.3 119.4 82.3 119.4 C 82.7 119.4 82.9 119.3 83.1 119.2 C 83.3 119.1 83.3 118.9 83.3 118.6 C 83.3 118.4 83.3 118.2 83.1 118.1 C 83 118 82.7 117.9 82.4 117.9 C 82.41 117.89 81.9 117.9 81.9 117.9 L 81.9 119.4 Z M 84.8 121.6 L 84.8 117.3 L 85.5 117.3 L 85.5 121.6 L 84.8 121.6 Z M 89 120.4 C 89 120.8 88.8 121.1 88.6 121.3 C 88.3 121.5 87.9 121.6 87.4 121.6 C 86.9 121.6 86.5 121.6 86.2 121.4 C 86.2 121.4 86.2 120.8 86.2 120.8 C 86.4 120.9 86.6 120.9 86.9 121 C 87.1 121 87.3 121.1 87.5 121.1 C 87.7 121.1 88 121 88.1 120.9 C 88.2 120.8 88.3 120.7 88.3 120.5 C 88.3 120.3 88.2 120.2 88.1 120.1 C 88 120 87.7 119.8 87.4 119.7 C 87 119.5 86.7 119.3 86.5 119.1 C 86.4 118.9 86.3 118.7 86.3 118.4 C 86.3 118 86.4 117.8 86.7 117.6 C 86.9 117.3 87.3 117.2 87.7 117.2 C 88.1 117.2 88.5 117.3 88.9 117.5 C 88.9 117.5 88.7 118.1 88.7 118.1 C 88.3 117.9 88 117.8 87.7 117.8 C 87.4 117.8 87.3 117.9 87.2 118 C 87 118.1 87 118.2 87 118.4 C 87 118.5 87 118.6 87 118.7 C 87.1 118.8 87.2 118.8 87.3 118.9 C 87.4 119 87.6 119.1 87.9 119.2 C 88.2 119.3 88.4 119.4 88.6 119.5 C 88.7 119.7 88.8 119.8 88.9 119.9 C 88.9 120.1 89 120.2 89 120.4 Z M 89.7 121.6 L 89.7 117.3 L 90.4 117.3 L 90.4 121.6 L 89.7 121.6 Z M 95 121.6 L 94.1 121.6 L 92 118.2 L 92 118.2 C 92 118.2 91.99 118.37 92 118.4 C 92 118.7 92 119.1 92 119.4 C 92.03 119.36 92 121.6 92 121.6 L 91.4 121.6 L 91.4 117.3 L 92.2 117.3 L 94.3 120.7 C 94.3 120.7 94.36 120.7 94.4 120.7 C 94.4 120.7 94.4 120.5 94.3 120.2 C 94.3 119.9 94.3 119.7 94.3 119.6 C 94.32 119.55 94.3 117.3 94.3 117.3 L 95 117.3 L 95 121.6 Z M 98.6 121.6 L 98.2 120.4 L 96.6 120.4 L 96.1 121.6 L 95.4 121.6 L 97 117.3 L 97.8 117.3 L 99.4 121.6 L 98.6 121.6 Z M 98 119.8 C 98 119.8 97.62 118.63 97.6 118.6 C 97.6 118.6 97.5 118.4 97.5 118.3 C 97.4 118.1 97.4 118 97.4 117.9 C 97.3 118.1 97.3 118.4 97.2 118.7 C 97.16 118.68 96.8 119.8 96.8 119.8 L 98 119.8 Z M 103.9 121.6 L 103.5 120.4 L 101.9 120.4 L 101.4 121.6 L 100.7 121.6 L 102.3 117.3 L 103.1 117.3 L 104.7 121.6 L 103.9 121.6 Z M 103.3 119.8 C 103.3 119.8 102.9 118.63 102.9 118.6 C 102.9 118.6 102.8 118.4 102.8 118.3 C 102.7 118.1 102.7 118 102.7 117.9 C 102.6 118.1 102.5 118.4 102.4 118.7 C 102.44 118.68 102.1 119.8 102.1 119.8 L 103.3 119.8 Z M 106.6 121.6 L 105.9 121.6 L 105.9 117.9 L 104.6 117.9 L 104.6 117.3 L 107.8 117.3 L 107.8 117.9 L 106.6 117.9 L 106.6 121.6 Z M 112.3 120.4 C 112.3 120.8 112.2 121.1 111.9 121.3 C 111.6 121.5 111.2 121.6 110.7 121.6 C 110.3 121.6 109.9 121.6 109.5 121.4 C 109.5 121.4 109.5 120.8 109.5 120.8 C 109.7 120.9 110 120.9 110.2 121 C 110.4 121 110.6 121.1 110.8 121.1 C 111.1 121.1 111.3 121 111.4 120.9 C 111.5 120.8 111.6 120.7 111.6 120.5 C 111.6 120.3 111.5 120.2 111.4 120.1 C 111.3 120 111 119.8 110.7 119.7 C 110.3 119.5 110 119.3 109.8 119.1 C 109.7 118.9 109.6 118.7 109.6 118.4 C 109.6 118 109.7 117.8 110 117.6 C 110.2 117.3 110.6 117.2 111 117.2 C 111.4 117.2 111.8 117.3 112.2 117.5 C 112.2 117.5 112 118.1 112 118.1 C 111.6 117.9 111.3 117.8 111 117.8 C 110.8 117.8 110.6 117.9 110.5 118 C 110.4 118.1 110.3 118.2 110.3 118.4 C 110.3 118.5 110.3 118.6 110.4 118.7 C 110.4 118.8 110.5 118.8 110.6 118.9 C 110.7 119 110.9 119.1 111.2 119.2 C 111.5 119.3 111.7 119.4 111.9 119.5 C 112 119.7 112.1 119.8 112.2 119.9 C 112.3 120.1 112.3 120.2 112.3 120.4 Z M 113 121.6 L 113 117.3 L 113.7 117.3 L 113.7 121.6 L 113 121.6 Z M 115.4 119.3 C 115.4 119.3 115.9 119.3 115.9 119.3 C 116.2 119.3 116.5 119.2 116.6 119.1 C 116.8 119 116.8 118.8 116.8 118.6 C 116.8 118.3 116.7 118.2 116.6 118.1 C 116.4 118 116.2 117.9 115.9 117.9 C 115.88 117.9 115.4 117.9 115.4 117.9 L 115.4 119.3 Z M 115.4 119.9 L 115.4 121.6 L 114.7 121.6 L 114.7 117.3 C 114.7 117.3 115.92 117.31 115.9 117.3 C 116.5 117.3 116.9 117.4 117.1 117.6 C 117.4 117.8 117.5 118.1 117.5 118.6 C 117.5 119.1 117.3 119.5 116.7 119.7 C 116.72 119.7 117.9 121.6 117.9 121.6 L 117.1 121.6 L 116.1 119.9 L 115.4 119.9 Z M 121.7 121.6 L 120.9 121.6 L 119.5 119.7 L 119.1 120 L 119.1 121.6 L 118.4 121.6 L 118.4 117.3 L 119.1 117.3 C 119.1 117.3 119.13 119.35 119.1 119.4 C 119.3 119.1 119.5 118.9 119.7 118.7 C 119.7 118.68 120.9 117.3 120.9 117.3 C 120.9 117.3 121.65 117.31 121.7 117.3 C 120.9 118.2 120.4 118.8 120 119.2 C 120.04 119.19 121.7 121.6 121.7 121.6 Z M 125.5 117.3 C 125.5 117.3 125.5 120.08 125.5 120.1 C 125.5 120.4 125.4 120.7 125.3 120.9 C 125.2 121.1 125 121.3 124.7 121.5 C 124.5 121.6 124.1 121.6 123.8 121.6 C 123.3 121.6 122.8 121.5 122.5 121.2 C 122.3 120.9 122.1 120.6 122.1 120.1 C 122.1 120.07 122.1 117.3 122.1 117.3 L 122.8 117.3 C 122.8 117.3 122.81 120.02 122.8 120 C 122.8 120.4 122.9 120.6 123.1 120.8 C 123.2 121 123.5 121.1 123.8 121.1 C 124.5 121.1 124.8 120.7 124.8 120 C 124.8 120.01 124.8 117.3 124.8 117.3 L 125.5 117.3 Z M 126.5 121.6 L 126.5 117.3 L 127.2 117.3 L 127.2 121 L 129 121 L 129 121.6 L 126.5 121.6 Z M 132.3 121.6 L 131.8 120.4 L 130.2 120.4 L 129.8 121.6 L 129 121.6 L 130.6 117.3 L 131.4 117.3 L 133 121.6 L 132.3 121.6 Z M 131.7 119.8 C 131.7 119.8 131.25 118.63 131.3 118.6 C 131.2 118.6 131.2 118.4 131.1 118.3 C 131.1 118.1 131 118 131 117.9 C 131 118.1 130.9 118.4 130.8 118.7 C 130.79 118.68 130.4 119.8 130.4 119.8 L 131.7 119.8 Z M 135.9 120.4 C 135.9 120.8 135.8 121.1 135.5 121.3 C 135.2 121.5 134.9 121.6 134.4 121.6 C 133.9 121.6 133.5 121.6 133.2 121.4 C 133.2 121.4 133.2 120.8 133.2 120.8 C 133.4 120.9 133.6 120.9 133.8 121 C 134 121 134.2 121.1 134.4 121.1 C 134.7 121.1 134.9 121 135 120.9 C 135.2 120.8 135.2 120.7 135.2 120.5 C 135.2 120.3 135.2 120.2 135 120.1 C 134.9 120 134.7 119.8 134.3 119.7 C 133.9 119.5 133.6 119.3 133.5 119.1 C 133.3 118.9 133.2 118.7 133.2 118.4 C 133.2 118 133.4 117.8 133.6 117.6 C 133.9 117.3 134.2 117.2 134.6 117.2 C 135 117.2 135.5 117.3 135.9 117.5 C 135.9 117.5 135.6 118.1 135.6 118.1 C 135.3 117.9 134.9 117.8 134.6 117.8 C 134.4 117.8 134.2 117.9 134.1 118 C 134 118.1 133.9 118.2 133.9 118.4 C 133.9 118.5 133.9 118.6 134 118.7 C 134 118.8 134.1 118.8 134.2 118.9 C 134.3 119 134.5 119.1 134.8 119.2 C 135.1 119.3 135.4 119.4 135.5 119.5 C 135.6 119.7 135.8 119.8 135.8 119.9 C 135.9 120.1 135.9 120.2 135.9 120.4 Z M 137.8 119.3 L 138.9 117.3 L 139.6 117.3 L 138.2 119.9 L 138.2 121.6 L 137.5 121.6 L 137.5 120 L 136.1 117.3 L 136.8 117.3 L 137.8 119.3 Z M 143.9 119.4 C 143.9 120.1 143.7 120.7 143.3 121.1 C 143 121.5 142.5 121.6 141.9 121.6 C 141.2 121.6 140.7 121.5 140.4 121.1 C 140 120.7 139.9 120.1 139.9 119.4 C 139.9 118.7 140 118.2 140.4 117.8 C 140.7 117.4 141.2 117.2 141.9 117.2 C 142.5 117.2 143 117.4 143.3 117.8 C 143.7 118.2 143.9 118.7 143.9 119.4 Z M 140.6 119.4 C 140.6 120 140.7 120.4 140.9 120.6 C 141.1 120.9 141.4 121.1 141.9 121.1 C 142.3 121.1 142.6 120.9 142.8 120.6 C 143 120.4 143.1 120 143.1 119.4 C 143.1 118.9 143 118.5 142.8 118.2 C 142.6 118 142.3 117.8 141.9 117.8 C 141.4 117.8 141.1 118 140.9 118.2 C 140.7 118.5 140.6 118.9 140.6 119.4 Z M 148.2 121.6 L 147.4 121.6 L 145.3 118.2 L 145.2 118.2 C 145.2 118.2 145.26 118.37 145.3 118.4 C 145.3 118.7 145.3 119.1 145.3 119.4 C 145.3 119.36 145.3 121.6 145.3 121.6 L 144.7 121.6 L 144.7 117.3 L 145.5 117.3 L 147.6 120.7 C 147.6 120.7 147.63 120.7 147.6 120.7 C 147.6 120.7 147.6 120.5 147.6 120.2 C 147.6 119.9 147.6 119.7 147.6 119.6 C 147.59 119.55 147.6 117.3 147.6 117.3 L 148.2 117.3 L 148.2 121.6 Z " stroke="none" fill="#000"/>
  </g>
  <g id="Polygon17915">
    <path d="M 99.6 100.6 C 99.6 101 99.4 101.4 99.1 101.6 C 98.8 101.9 98.4 102 97.9 102 C 97.88 101.99 97.4 102 97.4 102 L 97.4 103.6 L 96.7 103.6 L 96.7 99.3 C 96.7 99.3 97.97 99.31 98 99.3 C 98.5 99.3 98.9 99.4 99.2 99.6 C 99.4 99.9 99.6 100.2 99.6 100.6 Z M 97.4 101.4 C 97.4 101.4 97.81 101.4 97.8 101.4 C 98.2 101.4 98.4 101.3 98.6 101.2 C 98.8 101.1 98.9 100.9 98.9 100.6 C 98.9 100.4 98.8 100.2 98.6 100.1 C 98.5 100 98.2 99.9 97.9 99.9 C 97.92 99.89 97.4 99.9 97.4 99.9 L 97.4 101.4 Z M 103 103.6 L 102.5 102.4 L 100.9 102.4 L 100.5 103.6 L 99.7 103.6 L 101.3 99.3 L 102.1 99.3 L 103.7 103.6 L 103 103.6 Z M 102.4 101.8 C 102.4 101.8 101.95 100.63 102 100.6 C 101.9 100.6 101.9 100.4 101.8 100.3 C 101.8 100.1 101.7 100 101.7 99.9 C 101.7 100.1 101.6 100.4 101.5 100.7 C 101.49 100.68 101.1 101.8 101.1 101.8 L 102.4 101.8 Z M 107.7 103.6 L 106.9 103.6 L 104.8 100.2 L 104.7 100.2 C 104.7 100.2 104.75 100.37 104.8 100.4 C 104.8 100.7 104.8 101.1 104.8 101.4 C 104.79 101.36 104.8 103.6 104.8 103.6 L 104.2 103.6 L 104.2 99.3 L 105 99.3 L 107.1 102.7 C 107.1 102.7 107.12 102.7 107.1 102.7 C 107.1 102.7 107.1 102.5 107.1 102.2 C 107.1 101.9 107.1 101.7 107.1 101.6 C 107.08 101.55 107.1 99.3 107.1 99.3 L 107.7 99.3 L 107.7 103.6 Z M 110.2 103.6 L 109.5 103.6 L 109.5 99.9 L 108.3 99.9 L 108.3 99.3 L 111.5 99.3 L 111.5 99.9 L 110.2 99.9 L 110.2 103.6 Z M 114.4 103.6 L 112 103.6 L 112 99.3 L 114.4 99.3 L 114.4 99.9 L 112.7 99.9 L 112.7 101.1 L 114.3 101.1 L 114.3 101.7 L 112.7 101.7 L 112.7 103 L 114.4 103 L 114.4 103.6 Z M 118.5 103.6 L 117.7 103.6 L 116.4 101.7 L 115.9 102 L 115.9 103.6 L 115.2 103.6 L 115.2 99.3 L 115.9 99.3 C 115.9 99.3 115.94 101.35 115.9 101.4 C 116.1 101.1 116.3 100.9 116.5 100.7 C 116.51 100.68 117.7 99.3 117.7 99.3 C 117.7 99.3 118.47 99.31 118.5 99.3 C 117.7 100.2 117.2 100.8 116.9 101.2 C 116.86 101.19 118.5 103.6 118.5 103.6 Z M 122.5 103.6 L 121.7 103.6 L 119.6 100.2 L 119.5 100.2 C 119.5 100.2 119.55 100.37 119.5 100.4 C 119.6 100.7 119.6 101.1 119.6 101.4 C 119.59 101.36 119.6 103.6 119.6 103.6 L 119 103.6 L 119 99.3 L 119.8 99.3 L 121.9 102.7 C 121.9 102.7 121.92 102.7 121.9 102.7 C 121.9 102.7 121.9 102.5 121.9 102.2 C 121.9 101.9 121.9 101.7 121.9 101.6 C 121.88 101.55 121.9 99.3 121.9 99.3 L 122.5 99.3 L 122.5 103.6 Z M 127.3 101.4 C 127.3 102.1 127.2 102.7 126.8 103.1 C 126.5 103.5 126 103.6 125.3 103.6 C 124.7 103.6 124.2 103.5 123.8 103.1 C 123.5 102.7 123.3 102.1 123.3 101.4 C 123.3 100.7 123.5 100.2 123.8 99.8 C 124.2 99.4 124.7 99.2 125.3 99.2 C 126 99.2 126.5 99.4 126.8 99.8 C 127.2 100.2 127.3 100.7 127.3 101.4 Z M 124.1 101.4 C 124.1 102 124.2 102.4 124.4 102.6 C 124.6 102.9 124.9 103.1 125.3 103.1 C 125.7 103.1 126.1 102.9 126.3 102.6 C 126.5 102.4 126.6 102 126.6 101.4 C 126.6 100.9 126.5 100.5 126.3 100.2 C 126.1 100 125.8 99.8 125.3 99.8 C 124.9 99.8 124.6 100 124.4 100.2 C 124.2 100.5 124.1 100.9 124.1 101.4 Z M 128.1 103.6 L 128.1 99.3 L 128.8 99.3 L 128.8 103 L 130.7 103 L 130.7 103.6 L 128.1 103.6 Z M 135.1 101.4 C 135.1 102.1 134.9 102.7 134.5 103.1 C 134.2 103.5 133.7 103.6 133.1 103.6 C 132.4 103.6 131.9 103.5 131.6 103.1 C 131.2 102.7 131.1 102.1 131.1 101.4 C 131.1 100.7 131.2 100.2 131.6 99.8 C 131.9 99.4 132.4 99.2 133.1 99.2 C 133.7 99.2 134.2 99.4 134.5 99.8 C 134.9 100.2 135.1 100.7 135.1 101.4 Z M 131.8 101.4 C 131.8 102 131.9 102.4 132.1 102.6 C 132.3 102.9 132.6 103.1 133.1 103.1 C 133.5 103.1 133.8 102.9 134 102.6 C 134.2 102.4 134.3 102 134.3 101.4 C 134.3 100.9 134.2 100.5 134 100.2 C 133.8 100 133.5 99.8 133.1 99.8 C 132.7 99.8 132.3 100 132.1 100.2 C 131.9 100.5 131.8 100.9 131.8 101.4 Z M 139.2 103.6 L 138.5 103.6 L 138.5 101.7 L 136.6 101.7 L 136.6 103.6 L 135.9 103.6 L 135.9 99.3 L 136.6 99.3 L 136.6 101.1 L 138.5 101.1 L 138.5 99.3 L 139.2 99.3 L 139.2 103.6 Z M 140.3 103.6 L 140.3 99.3 L 141 99.3 L 141 103.6 L 140.3 103.6 Z M 143.2 101.3 L 144.2 99.3 L 145 99.3 L 143.5 101.9 L 143.5 103.6 L 142.8 103.6 L 142.8 102 L 141.4 99.3 L 142.2 99.3 L 143.2 101.3 Z M 148.1 103.6 L 147.6 102.4 L 146 102.4 L 145.6 103.6 L 144.8 103.6 L 146.4 99.3 L 147.2 99.3 L 148.8 103.6 L 148.1 103.6 Z M 147.4 101.8 C 147.4 101.8 147.04 100.63 147 100.6 C 147 100.6 147 100.4 146.9 100.3 C 146.9 100.1 146.8 100 146.8 99.9 C 146.8 100.1 146.7 100.4 146.6 100.7 C 146.58 100.68 146.2 101.8 146.2 101.8 L 147.4 101.8 Z " stroke="none" fill="#000"/>
  </g>
  <g id="Polygon17914">
    <path d="M 58.9 91.6 C 58.9 92 58.8 92.4 58.5 92.6 C 58.2 92.9 57.8 93 57.2 93 C 57.23 92.99 56.8 93 56.8 93 L 56.8 94.6 L 56.1 94.6 L 56.1 90.3 C 56.1 90.3 57.32 90.31 57.3 90.3 C 57.9 90.3 58.3 90.4 58.5 90.6 C 58.8 90.9 58.9 91.2 58.9 91.6 Z M 56.8 92.4 C 56.8 92.4 57.16 92.4 57.2 92.4 C 57.5 92.4 57.8 92.3 57.9 92.2 C 58.1 92.1 58.2 91.9 58.2 91.6 C 58.2 91.4 58.1 91.2 58 91.1 C 57.8 91 57.6 90.9 57.3 90.9 C 57.27 90.89 56.8 90.9 56.8 90.9 L 56.8 92.4 Z M 62.3 94.6 L 61.9 93.4 L 60.2 93.4 L 59.8 94.6 L 59.1 94.6 L 60.7 90.3 L 61.5 90.3 L 63.1 94.6 L 62.3 94.6 Z M 61.7 92.8 C 61.7 92.8 61.3 91.63 61.3 91.6 C 61.3 91.6 61.2 91.4 61.2 91.3 C 61.1 91.1 61.1 91 61.1 90.9 C 61 91.1 60.9 91.4 60.8 91.7 C 60.84 91.68 60.5 92.8 60.5 92.8 L 61.7 92.8 Z M 65 94.6 L 64.3 94.6 L 64.3 90.9 L 63 90.9 L 63 90.3 L 66.2 90.3 L 66.2 90.9 L 65 90.9 L 65 94.6 Z M 70.3 94.6 L 69.5 94.6 L 67.4 91.2 L 67.4 91.2 C 67.4 91.2 67.37 91.37 67.4 91.4 C 67.4 91.7 67.4 92.1 67.4 92.4 C 67.41 92.36 67.4 94.6 67.4 94.6 L 66.8 94.6 L 66.8 90.3 L 67.6 90.3 L 69.7 93.7 C 69.7 93.7 69.75 93.7 69.7 93.7 C 69.7 93.7 69.7 93.5 69.7 93.2 C 69.7 92.9 69.7 92.7 69.7 92.6 C 69.7 92.55 69.7 90.3 69.7 90.3 L 70.3 90.3 L 70.3 94.6 Z M 74.7 90.3 C 74.7 90.3 74.71 93.08 74.7 93.1 C 74.7 93.4 74.6 93.7 74.5 93.9 C 74.4 94.1 74.2 94.3 73.9 94.5 C 73.7 94.6 73.4 94.6 73 94.6 C 72.5 94.6 72.1 94.5 71.8 94.2 C 71.5 93.9 71.3 93.6 71.3 93.1 C 71.32 93.07 71.3 90.3 71.3 90.3 L 72 90.3 C 72 90.3 72.02 93.02 72 93 C 72 93.4 72.1 93.6 72.3 93.8 C 72.4 94 72.7 94.1 73 94.1 C 73.7 94.1 74 93.7 74 93 C 74.01 93.01 74 90.3 74 90.3 L 74.7 90.3 Z M 77.4 92.3 L 79 92.3 C 79 92.3 79.02 94.42 79 94.4 C 78.8 94.5 78.5 94.6 78.3 94.6 C 78 94.6 77.8 94.6 77.5 94.6 C 76.9 94.6 76.4 94.5 76 94.1 C 75.7 93.7 75.5 93.1 75.5 92.4 C 75.5 91.8 75.7 91.2 76.1 90.8 C 76.5 90.4 77 90.2 77.7 90.2 C 78.2 90.2 78.6 90.3 79 90.5 C 79 90.5 78.7 91.1 78.7 91.1 C 78.4 90.9 78 90.8 77.7 90.8 C 77.2 90.8 76.9 91 76.6 91.3 C 76.3 91.6 76.2 92 76.2 92.5 C 76.2 93 76.3 93.4 76.6 93.6 C 76.8 93.9 77.2 94.1 77.6 94.1 C 77.8 94.1 78.1 94 78.3 94 C 78.33 93.97 78.3 92.9 78.3 92.9 L 77.4 92.9 L 77.4 92.3 Z M 83.7 92.4 C 83.7 93.1 83.6 93.7 83.2 94.1 C 82.9 94.5 82.4 94.6 81.7 94.6 C 81.1 94.6 80.6 94.5 80.2 94.1 C 79.9 93.7 79.7 93.1 79.7 92.4 C 79.7 91.7 79.9 91.2 80.2 90.8 C 80.6 90.4 81.1 90.2 81.7 90.2 C 82.4 90.2 82.9 90.4 83.2 90.8 C 83.6 91.2 83.7 91.7 83.7 92.4 Z M 80.5 92.4 C 80.5 93 80.6 93.4 80.8 93.6 C 81 93.9 81.3 94.1 81.7 94.1 C 82.1 94.1 82.5 93.9 82.7 93.6 C 82.9 93.4 83 93 83 92.4 C 83 91.9 82.9 91.5 82.7 91.2 C 82.5 91 82.1 90.8 81.7 90.8 C 81.3 90.8 81 91 80.8 91.2 C 80.6 91.5 80.5 91.9 80.5 92.4 Z M 86 94.6 L 85.3 94.6 L 85.3 90.9 L 84 90.9 L 84 90.3 L 87.3 90.3 L 87.3 90.9 L 86 90.9 L 86 94.6 Z M 92.8 94.6 L 92 94.6 L 89.8 91.2 L 89.8 91.2 C 89.8 91.2 89.84 91.37 89.8 91.4 C 89.9 91.7 89.9 92.1 89.9 92.4 C 89.88 92.36 89.9 94.6 89.9 94.6 L 89.2 94.6 L 89.2 90.3 L 90.1 90.3 L 92.2 93.7 C 92.2 93.7 92.21 93.7 92.2 93.7 C 92.2 93.7 92.2 93.5 92.2 93.2 C 92.2 92.9 92.2 92.7 92.2 92.6 C 92.17 92.55 92.2 90.3 92.2 90.3 L 92.8 90.3 L 92.8 94.6 Z M 95.6 92.3 L 97.2 92.3 C 97.2 92.3 97.15 94.42 97.2 94.4 C 96.9 94.5 96.6 94.6 96.4 94.6 C 96.2 94.6 95.9 94.6 95.6 94.6 C 95 94.6 94.5 94.5 94.1 94.1 C 93.8 93.7 93.6 93.1 93.6 92.4 C 93.6 91.8 93.8 91.2 94.2 90.8 C 94.6 90.4 95.1 90.2 95.8 90.2 C 96.3 90.2 96.7 90.3 97.1 90.5 C 97.1 90.5 96.9 91.1 96.9 91.1 C 96.5 90.9 96.2 90.8 95.8 90.8 C 95.4 90.8 95 91 94.7 91.3 C 94.5 91.6 94.3 92 94.3 92.5 C 94.3 93 94.5 93.4 94.7 93.6 C 94.9 93.9 95.3 94.1 95.7 94.1 C 96 94.1 96.2 94 96.5 94 C 96.46 93.97 96.5 92.9 96.5 92.9 L 95.6 92.9 L 95.6 92.3 Z M 100.9 94.6 L 100.9 90.3 L 101.6 90.3 L 101.6 94.6 L 100.9 94.6 Z M 104.5 94.6 L 103.3 91 C 103.3 91 103.23 91.01 103.2 91 C 103.3 91.5 103.3 92 103.3 92.5 C 103.28 92.51 103.3 94.6 103.3 94.6 L 102.6 94.6 L 102.6 90.3 L 103.6 90.3 L 104.8 93.7 L 104.8 93.7 L 106.1 90.3 L 107.1 90.3 L 107.1 94.6 L 106.4 94.6 C 106.4 94.6 106.38 92.47 106.4 92.5 C 106.4 92.3 106.4 92 106.4 91.6 C 106.4 91.3 106.4 91.1 106.4 91 C 106.43 91.02 106.4 91 106.4 91 L 105.1 94.6 L 104.5 94.6 Z M 110.9 91.6 C 110.9 92 110.8 92.4 110.5 92.6 C 110.2 92.9 109.8 93 109.2 93 C 109.21 92.99 108.8 93 108.8 93 L 108.8 94.6 L 108.1 94.6 L 108.1 90.3 C 108.1 90.3 109.3 90.31 109.3 90.3 C 109.8 90.3 110.2 90.4 110.5 90.6 C 110.8 90.9 110.9 91.2 110.9 91.6 Z M 108.8 92.4 C 108.8 92.4 109.14 92.4 109.1 92.4 C 109.5 92.4 109.8 92.3 109.9 92.2 C 110.1 92.1 110.2 91.9 110.2 91.6 C 110.2 91.4 110.1 91.2 110 91.1 C 109.8 91 109.6 90.9 109.3 90.9 C 109.25 90.89 108.8 90.9 108.8 90.9 L 108.8 92.4 Z M 115.4 92.4 C 115.4 93.1 115.3 93.7 114.9 94.1 C 114.6 94.5 114.1 94.6 113.4 94.6 C 112.8 94.6 112.3 94.5 111.9 94.1 C 111.6 93.7 111.4 93.1 111.4 92.4 C 111.4 91.7 111.6 91.2 111.9 90.8 C 112.3 90.4 112.8 90.2 113.4 90.2 C 114.1 90.2 114.6 90.4 114.9 90.8 C 115.3 91.2 115.4 91.7 115.4 92.4 Z M 112.2 92.4 C 112.2 93 112.3 93.4 112.5 93.6 C 112.7 93.9 113 94.1 113.4 94.1 C 113.9 94.1 114.2 93.9 114.4 93.6 C 114.6 93.4 114.7 93 114.7 92.4 C 114.7 91.9 114.6 91.5 114.4 91.2 C 114.2 91 113.9 90.8 113.4 90.8 C 113 90.8 112.7 91 112.5 91.2 C 112.3 91.5 112.2 91.9 112.2 92.4 Z M 116.9 92.3 C 116.9 92.3 117.43 92.3 117.4 92.3 C 117.8 92.3 118 92.2 118.1 92.1 C 118.3 92 118.4 91.8 118.4 91.6 C 118.4 91.3 118.3 91.2 118.1 91.1 C 118 91 117.7 90.9 117.4 90.9 C 117.4 90.9 116.9 90.9 116.9 90.9 L 116.9 92.3 Z M 116.9 92.9 L 116.9 94.6 L 116.2 94.6 L 116.2 90.3 C 116.2 90.3 117.45 90.31 117.4 90.3 C 118 90.3 118.4 90.4 118.7 90.6 C 118.9 90.8 119.1 91.1 119.1 91.6 C 119.1 92.1 118.8 92.5 118.2 92.7 C 118.24 92.7 119.5 94.6 119.5 94.6 L 118.7 94.6 L 117.6 92.9 L 116.9 92.9 Z M 121.8 94.6 L 120.6 91 C 120.6 91 120.54 91.01 120.5 91 C 120.6 91.5 120.6 92 120.6 92.5 C 120.59 92.51 120.6 94.6 120.6 94.6 L 120 94.6 L 120 90.3 L 120.9 90.3 L 122.1 93.7 L 122.1 93.7 L 123.4 90.3 L 124.4 90.3 L 124.4 94.6 L 123.7 94.6 C 123.7 94.6 123.69 92.47 123.7 92.5 C 123.7 92.3 123.7 92 123.7 91.6 C 123.7 91.3 123.7 91.1 123.7 91 C 123.73 91.02 123.7 91 123.7 91 L 122.4 94.6 L 121.8 94.6 Z M 128 94.6 L 127.6 93.4 L 126 93.4 L 125.5 94.6 L 124.8 94.6 L 126.4 90.3 L 127.2 90.3 L 128.8 94.6 L 128 94.6 Z M 127.4 92.8 C 127.4 92.8 127.01 91.63 127 91.6 C 127 91.6 126.9 91.4 126.9 91.3 C 126.8 91.1 126.8 91 126.8 90.9 C 126.7 91.1 126.7 91.4 126.6 91.7 C 126.55 91.68 126.2 92.8 126.2 92.8 L 127.4 92.8 Z M 131.7 93.4 C 131.7 93.8 131.5 94.1 131.3 94.3 C 131 94.5 130.6 94.6 130.1 94.6 C 129.7 94.6 129.3 94.6 128.9 94.4 C 128.9 94.4 128.9 93.8 128.9 93.8 C 129.1 93.9 129.3 93.9 129.6 94 C 129.8 94 130 94.1 130.2 94.1 C 130.5 94.1 130.7 94 130.8 93.9 C 130.9 93.8 131 93.7 131 93.5 C 131 93.3 130.9 93.2 130.8 93.1 C 130.7 93 130.4 92.8 130.1 92.7 C 129.7 92.5 129.4 92.3 129.2 92.1 C 129.1 91.9 129 91.7 129 91.4 C 129 91 129.1 90.8 129.4 90.6 C 129.6 90.3 130 90.2 130.4 90.2 C 130.8 90.2 131.2 90.3 131.6 90.5 C 131.6 90.5 131.4 91.1 131.4 91.1 C 131 90.9 130.7 90.8 130.4 90.8 C 130.2 90.8 130 90.9 129.9 91 C 129.7 91.1 129.7 91.2 129.7 91.4 C 129.7 91.5 129.7 91.6 129.8 91.7 C 129.8 91.8 129.9 91.8 130 91.9 C 130.1 92 130.3 92.1 130.6 92.2 C 130.9 92.3 131.1 92.4 131.3 92.5 C 131.4 92.7 131.5 92.8 131.6 92.9 C 131.7 93.1 131.7 93.2 131.7 93.4 Z M 133.6 92.3 L 134.6 90.3 L 135.4 90.3 L 134 92.9 L 134 94.6 L 133.3 94.6 L 133.3 93 L 131.8 90.3 L 132.6 90.3 L 133.6 92.3 Z M 139.6 92.4 C 139.6 93.1 139.5 93.7 139.1 94.1 C 138.8 94.5 138.3 94.6 137.6 94.6 C 137 94.6 136.5 94.5 136.1 94.1 C 135.8 93.7 135.6 93.1 135.6 92.4 C 135.6 91.7 135.8 91.2 136.1 90.8 C 136.5 90.4 137 90.2 137.6 90.2 C 138.3 90.2 138.8 90.4 139.1 90.8 C 139.5 91.2 139.6 91.7 139.6 92.4 Z M 136.4 92.4 C 136.4 93 136.5 93.4 136.7 93.6 C 136.9 93.9 137.2 94.1 137.6 94.1 C 138 94.1 138.4 93.9 138.6 93.6 C 138.8 93.4 138.9 93 138.9 92.4 C 138.9 91.9 138.8 91.5 138.6 91.2 C 138.4 91 138 90.8 137.6 90.8 C 137.2 90.8 136.9 91 136.7 91.2 C 136.5 91.5 136.4 91.9 136.4 92.4 Z M 144 94.6 L 143.1 94.6 L 141 91.2 L 141 91.2 C 141 91.2 141.02 91.37 141 91.4 C 141.1 91.7 141.1 92.1 141.1 92.4 C 141.07 92.36 141.1 94.6 141.1 94.6 L 140.4 94.6 L 140.4 90.3 L 141.3 90.3 L 143.4 93.7 C 143.4 93.7 143.4 93.7 143.4 93.7 C 143.4 93.7 143.4 93.5 143.4 93.2 C 143.4 92.9 143.4 92.7 143.4 92.6 C 143.36 92.55 143.4 90.3 143.4 90.3 L 144 90.3 L 144 94.6 Z M 146.8 92.3 L 148.3 92.3 C 148.3 92.3 148.34 94.42 148.3 94.4 C 148.1 94.5 147.8 94.6 147.6 94.6 C 147.4 94.6 147.1 94.6 146.8 94.6 C 146.2 94.6 145.7 94.5 145.3 94.1 C 145 93.7 144.8 93.1 144.8 92.4 C 144.8 91.8 145 91.2 145.4 90.8 C 145.8 90.4 146.3 90.2 147 90.2 C 147.5 90.2 147.9 90.3 148.3 90.5 C 148.3 90.5 148.1 91.1 148.1 91.1 C 147.7 90.9 147.4 90.8 147 90.8 C 146.6 90.8 146.2 91 145.9 91.3 C 145.7 91.6 145.5 92 145.5 92.5 C 145.5 93 145.7 93.4 145.9 93.6 C 146.1 93.9 146.5 94.1 146.9 94.1 C 147.1 94.1 147.4 94 147.6 94 C 147.65 93.97 147.6 92.9 147.6 92.9 L 146.8 92.9 L 146.8 92.3 Z " stroke="none" fill="#000"/>
  </g>
  <g id="Polygon17913">
    <path d="M 88.7 82.6 C 88.7 83 88.5 83.4 88.2 83.6 C 87.9 83.9 87.5 84 87 84 C 86.98 83.99 86.5 84 86.5 84 L 86.5 85.6 L 85.8 85.6 L 85.8 81.3 C 85.8 81.3 87.07 81.31 87.1 81.3 C 87.6 81.3 88 81.4 88.3 81.6 C 88.5 81.9 88.7 82.2 88.7 82.6 Z M 86.5 83.4 C 86.5 83.4 86.91 83.4 86.9 83.4 C 87.3 83.4 87.5 83.3 87.7 83.2 C 87.9 83.1 88 82.9 88 82.6 C 88 82.4 87.9 82.2 87.7 82.1 C 87.6 82 87.3 81.9 87 81.9 C 87.02 81.89 86.5 81.9 86.5 81.9 L 86.5 83.4 Z M 92.1 85.6 L 91.6 84.4 L 90 84.4 L 89.6 85.6 L 88.8 85.6 L 90.4 81.3 L 91.2 81.3 L 92.8 85.6 L 92.1 85.6 Z M 91.5 83.8 C 91.5 83.8 91.05 82.63 91.1 82.6 C 91 82.6 91 82.4 90.9 82.3 C 90.9 82.1 90.8 82 90.8 81.9 C 90.8 82.1 90.7 82.4 90.6 82.7 C 90.59 82.68 90.2 83.8 90.2 83.8 L 91.5 83.8 Z M 94.7 85.6 L 94 85.6 L 94 81.9 L 92.8 81.9 L 92.8 81.3 L 96 81.3 L 96 81.9 L 94.7 81.9 L 94.7 85.6 Z M 100.1 85.6 L 99.2 85.6 L 97.1 82.2 L 97.1 82.2 C 97.1 82.2 97.12 82.37 97.1 82.4 C 97.2 82.7 97.2 83.1 97.2 83.4 C 97.17 83.36 97.2 85.6 97.2 85.6 L 96.5 85.6 L 96.5 81.3 L 97.4 81.3 L 99.5 84.7 C 99.5 84.7 99.5 84.7 99.5 84.7 C 99.5 84.7 99.5 84.5 99.5 84.2 C 99.5 83.9 99.5 83.7 99.5 83.6 C 99.46 83.55 99.5 81.3 99.5 81.3 L 100.1 81.3 L 100.1 85.6 Z M 104.5 81.3 C 104.5 81.3 104.47 84.08 104.5 84.1 C 104.5 84.4 104.4 84.7 104.3 84.9 C 104.1 85.1 103.9 85.3 103.7 85.5 C 103.4 85.6 103.1 85.6 102.8 85.6 C 102.2 85.6 101.8 85.5 101.5 85.2 C 101.2 84.9 101.1 84.6 101.1 84.1 C 101.07 84.07 101.1 81.3 101.1 81.3 L 101.8 81.3 C 101.8 81.3 101.77 84.02 101.8 84 C 101.8 84.4 101.9 84.6 102 84.8 C 102.2 85 102.4 85.1 102.8 85.1 C 103.4 85.1 103.8 84.7 103.8 84 C 103.77 84.01 103.8 81.3 103.8 81.3 L 104.5 81.3 Z M 107.2 83.3 L 108.8 83.3 C 108.8 83.3 108.77 85.42 108.8 85.4 C 108.5 85.5 108.3 85.6 108 85.6 C 107.8 85.6 107.5 85.6 107.3 85.6 C 106.6 85.6 106.1 85.5 105.8 85.1 C 105.4 84.7 105.2 84.1 105.2 83.4 C 105.2 82.8 105.4 82.2 105.8 81.8 C 106.2 81.4 106.8 81.2 107.5 81.2 C 107.9 81.2 108.3 81.3 108.7 81.5 C 108.7 81.5 108.5 82.1 108.5 82.1 C 108.1 81.9 107.8 81.8 107.4 81.8 C 107 81.8 106.6 82 106.4 82.3 C 106.1 82.6 106 83 106 83.5 C 106 84 106.1 84.4 106.3 84.6 C 106.6 84.9 106.9 85.1 107.4 85.1 C 107.6 85.1 107.8 85 108.1 85 C 108.08 84.97 108.1 83.9 108.1 83.9 L 107.2 83.9 L 107.2 83.3 Z M 113.5 83.4 C 113.5 84.1 113.3 84.7 113 85.1 C 112.6 85.5 112.1 85.6 111.5 85.6 C 110.8 85.6 110.3 85.5 110 85.1 C 109.6 84.7 109.5 84.1 109.5 83.4 C 109.5 82.7 109.6 82.2 110 81.8 C 110.3 81.4 110.8 81.2 111.5 81.2 C 112.1 81.2 112.6 81.4 113 81.8 C 113.3 82.2 113.5 82.7 113.5 83.4 Z M 110.2 83.4 C 110.2 84 110.3 84.4 110.5 84.6 C 110.7 84.9 111.1 85.1 111.5 85.1 C 111.9 85.1 112.2 84.9 112.4 84.6 C 112.6 84.4 112.7 84 112.7 83.4 C 112.7 82.9 112.6 82.5 112.4 82.2 C 112.2 82 111.9 81.8 111.5 81.8 C 111.1 81.8 110.7 82 110.5 82.2 C 110.3 82.5 110.2 82.9 110.2 83.4 Z M 115.8 85.6 L 115.1 85.6 L 115.1 81.9 L 113.8 81.9 L 113.8 81.3 L 117 81.3 L 117 81.9 L 115.8 81.9 L 115.8 85.6 Z M 122.6 85.6 L 121.7 85.6 L 119.6 82.2 L 119.6 82.2 C 119.6 82.2 119.59 82.37 119.6 82.4 C 119.6 82.7 119.6 83.1 119.6 83.4 C 119.63 83.36 119.6 85.6 119.6 85.6 L 119 85.6 L 119 81.3 L 119.8 81.3 L 121.9 84.7 C 121.9 84.7 121.96 84.7 122 84.7 C 122 84.7 122 84.5 121.9 84.2 C 121.9 83.9 121.9 83.7 121.9 83.6 C 121.92 83.55 121.9 81.3 121.9 81.3 L 122.6 81.3 L 122.6 85.6 Z M 125.3 83.3 L 126.9 83.3 C 126.9 83.3 126.9 85.42 126.9 85.4 C 126.6 85.5 126.4 85.6 126.2 85.6 C 125.9 85.6 125.7 85.6 125.4 85.6 C 124.7 85.6 124.2 85.5 123.9 85.1 C 123.5 84.7 123.4 84.1 123.4 83.4 C 123.4 82.8 123.6 82.2 124 81.8 C 124.4 81.4 124.9 81.2 125.6 81.2 C 126 81.2 126.5 81.3 126.9 81.5 C 126.9 81.5 126.6 82.1 126.6 82.1 C 126.3 81.9 125.9 81.8 125.6 81.8 C 125.1 81.8 124.8 82 124.5 82.3 C 124.2 82.6 124.1 83 124.1 83.5 C 124.1 84 124.2 84.4 124.5 84.6 C 124.7 84.9 125 85.1 125.5 85.1 C 125.7 85.1 126 85 126.2 85 C 126.21 84.97 126.2 83.9 126.2 83.9 L 125.3 83.9 L 125.3 83.3 Z M 131.7 84.4 C 131.7 84.8 131.6 85.1 131.3 85.3 C 131 85.5 130.7 85.6 130.2 85.6 C 129.7 85.6 129.3 85.6 129 85.4 C 129 85.4 129 84.8 129 84.8 C 129.2 84.9 129.4 84.9 129.6 85 C 129.8 85 130 85.1 130.2 85.1 C 130.5 85.1 130.7 85 130.8 84.9 C 131 84.8 131 84.7 131 84.5 C 131 84.3 131 84.2 130.8 84.1 C 130.7 84 130.5 83.8 130.1 83.7 C 129.7 83.5 129.4 83.3 129.3 83.1 C 129.1 82.9 129 82.7 129 82.4 C 129 82 129.2 81.8 129.4 81.6 C 129.7 81.3 130 81.2 130.4 81.2 C 130.8 81.2 131.2 81.3 131.7 81.5 C 131.7 81.5 131.4 82.1 131.4 82.1 C 131.1 81.9 130.7 81.8 130.4 81.8 C 130.2 81.8 130 81.9 129.9 82 C 129.8 82.1 129.7 82.2 129.7 82.4 C 129.7 82.5 129.7 82.6 129.8 82.7 C 129.8 82.8 129.9 82.8 130 82.9 C 130.1 83 130.3 83.1 130.6 83.2 C 130.9 83.3 131.1 83.4 131.3 83.5 C 131.4 83.7 131.5 83.8 131.6 83.9 C 131.7 84.1 131.7 84.2 131.7 84.4 Z M 132.4 85.6 L 132.4 81.3 L 133.1 81.3 L 133.1 85.6 L 132.4 85.6 Z M 137.7 85.6 L 136.8 85.6 L 134.7 82.2 L 134.7 82.2 C 134.7 82.2 134.73 82.37 134.7 82.4 C 134.8 82.7 134.8 83.1 134.8 83.4 C 134.78 83.36 134.8 85.6 134.8 85.6 L 134.1 85.6 L 134.1 81.3 L 135 81.3 L 137.1 84.7 C 137.1 84.7 137.11 84.7 137.1 84.7 C 137.1 84.7 137.1 84.5 137.1 84.2 C 137.1 83.9 137.1 83.7 137.1 83.6 C 137.07 83.55 137.1 81.3 137.1 81.3 L 137.7 81.3 L 137.7 85.6 Z M 138.7 85.6 L 138.7 81.3 L 139.4 81.3 L 139.4 85.6 L 138.7 85.6 Z M 144 85.6 L 143.1 85.6 L 141 82.2 L 141 82.2 C 141 82.2 141.02 82.37 141 82.4 C 141.1 82.7 141.1 83.1 141.1 83.4 C 141.07 83.36 141.1 85.6 141.1 85.6 L 140.4 85.6 L 140.4 81.3 L 141.3 81.3 L 143.4 84.7 C 143.4 84.7 143.4 84.7 143.4 84.7 C 143.4 84.7 143.4 84.5 143.4 84.2 C 143.4 83.9 143.4 83.7 143.4 83.6 C 143.36 83.55 143.4 81.3 143.4 81.3 L 144 81.3 L 144 85.6 Z M 146.8 83.3 L 148.3 83.3 C 148.3 83.3 148.34 85.42 148.3 85.4 C 148.1 85.5 147.8 85.6 147.6 85.6 C 147.4 85.6 147.1 85.6 146.8 85.6 C 146.2 85.6 145.7 85.5 145.3 85.1 C 145 84.7 144.8 84.1 144.8 83.4 C 144.8 82.8 145 82.2 145.4 81.8 C 145.8 81.4 146.3 81.2 147 81.2 C 147.5 81.2 147.9 81.3 148.3 81.5 C 148.3 81.5 148.1 82.1 148.1 82.1 C 147.7 81.9 147.4 81.8 147 81.8 C 146.6 81.8 146.2 82 145.9 82.3 C 145.7 82.6 145.5 83 145.5 83.5 C 145.5 84 145.7 84.4 145.9 84.6 C 146.1 84.9 146.5 85.1 146.9 85.1 C 147.1 85.1 147.4 85 147.6 85 C 147.65 84.97 147.6 83.9 147.6 83.9 L 146.8 83.9 L 146.8 83.3 Z " stroke="none" fill="#000"/>
  </g>
  <g id="Polygon17912">
    <path d="M 83 73.6 C 83 74 82.9 74.4 82.6 74.6 C 82.3 74.9 81.9 75 81.3 75 C 81.32 74.99 80.9 75 80.9 75 L 80.9 76.6 L 80.2 76.6 L 80.2 72.3 C 80.2 72.3 81.41 72.31 81.4 72.3 C 81.9 72.3 82.3 72.4 82.6 72.6 C 82.9 72.9 83 73.2 83 73.6 Z M 80.9 74.4 C 80.9 74.4 81.25 74.4 81.2 74.4 C 81.6 74.4 81.9 74.3 82 74.2 C 82.2 74.1 82.3 73.9 82.3 73.6 C 82.3 73.4 82.2 73.2 82.1 73.1 C 81.9 73 81.7 72.9 81.4 72.9 C 81.36 72.89 80.9 72.9 80.9 72.9 L 80.9 74.4 Z M 86.4 76.6 L 86 75.4 L 84.3 75.4 L 83.9 76.6 L 83.2 76.6 L 84.8 72.3 L 85.5 72.3 L 87.1 76.6 L 86.4 76.6 Z M 85.8 74.8 C 85.8 74.8 85.39 73.63 85.4 73.6 C 85.4 73.6 85.3 73.4 85.3 73.3 C 85.2 73.1 85.2 73 85.2 72.9 C 85.1 73.1 85 73.4 84.9 73.7 C 84.93 73.68 84.5 74.8 84.5 74.8 L 85.8 74.8 Z M 89.1 76.6 L 88.4 76.6 L 88.4 72.9 L 87.1 72.9 L 87.1 72.3 L 90.3 72.3 L 90.3 72.9 L 89.1 72.9 L 89.1 76.6 Z M 94.4 76.6 L 93.6 76.6 L 91.5 73.2 L 91.4 73.2 C 91.4 73.2 91.46 73.37 91.5 73.4 C 91.5 73.7 91.5 74.1 91.5 74.4 C 91.5 74.36 91.5 76.6 91.5 76.6 L 90.9 76.6 L 90.9 72.3 L 91.7 72.3 L 93.8 75.7 C 93.8 75.7 93.83 75.7 93.8 75.7 C 93.8 75.7 93.8 75.5 93.8 75.2 C 93.8 74.9 93.8 74.7 93.8 74.6 C 93.79 74.55 93.8 72.3 93.8 72.3 L 94.4 72.3 L 94.4 76.6 Z M 98.8 72.3 C 98.8 72.3 98.8 75.08 98.8 75.1 C 98.8 75.4 98.7 75.7 98.6 75.9 C 98.5 76.1 98.3 76.3 98 76.5 C 97.8 76.6 97.4 76.6 97.1 76.6 C 96.6 76.6 96.1 76.5 95.9 76.2 C 95.6 75.9 95.4 75.6 95.4 75.1 C 95.41 75.07 95.4 72.3 95.4 72.3 L 96.1 72.3 C 96.1 72.3 96.11 75.02 96.1 75 C 96.1 75.4 96.2 75.6 96.4 75.8 C 96.5 76 96.8 76.1 97.1 76.1 C 97.8 76.1 98.1 75.7 98.1 75 C 98.1 75.01 98.1 72.3 98.1 72.3 L 98.8 72.3 Z M 101.5 74.3 L 103.1 74.3 C 103.1 74.3 103.11 76.42 103.1 76.4 C 102.8 76.5 102.6 76.6 102.4 76.6 C 102.1 76.6 101.9 76.6 101.6 76.6 C 100.9 76.6 100.4 76.5 100.1 76.1 C 99.7 75.7 99.6 75.1 99.6 74.4 C 99.6 73.8 99.8 73.2 100.2 72.8 C 100.6 72.4 101.1 72.2 101.8 72.2 C 102.2 72.2 102.7 72.3 103.1 72.5 C 103.1 72.5 102.8 73.1 102.8 73.1 C 102.5 72.9 102.1 72.8 101.8 72.8 C 101.3 72.8 101 73 100.7 73.3 C 100.4 73.6 100.3 74 100.3 74.5 C 100.3 75 100.4 75.4 100.7 75.6 C 100.9 75.9 101.2 76.1 101.7 76.1 C 101.9 76.1 102.2 76 102.4 76 C 102.42 75.97 102.4 74.9 102.4 74.9 L 101.5 74.9 L 101.5 74.3 Z M 107.8 74.4 C 107.8 75.1 107.6 75.7 107.3 76.1 C 106.9 76.5 106.5 76.6 105.8 76.6 C 105.2 76.6 104.7 76.5 104.3 76.1 C 104 75.7 103.8 75.1 103.8 74.4 C 103.8 73.7 104 73.2 104.3 72.8 C 104.7 72.4 105.2 72.2 105.8 72.2 C 106.5 72.2 106.9 72.4 107.3 72.8 C 107.6 73.2 107.8 73.7 107.8 74.4 Z M 104.5 74.4 C 104.5 75 104.7 75.4 104.9 75.6 C 105.1 75.9 105.4 76.1 105.8 76.1 C 106.2 76.1 106.5 75.9 106.8 75.6 C 107 75.4 107.1 75 107.1 74.4 C 107.1 73.9 107 73.5 106.8 73.2 C 106.5 73 106.2 72.8 105.8 72.8 C 105.4 72.8 105.1 73 104.9 73.2 C 104.7 73.5 104.5 73.9 104.5 74.4 Z M 110.1 76.6 L 109.4 76.6 L 109.4 72.9 L 108.1 72.9 L 108.1 72.3 L 111.4 72.3 L 111.4 72.9 L 110.1 72.9 L 110.1 76.6 Z M 116.9 76.6 L 116 76.6 L 113.9 73.2 L 113.9 73.2 C 113.9 73.2 113.93 73.37 113.9 73.4 C 114 73.7 114 74.1 114 74.4 C 113.97 74.36 114 76.6 114 76.6 L 113.3 76.6 L 113.3 72.3 L 114.2 72.3 L 116.3 75.7 C 116.3 75.7 116.3 75.7 116.3 75.7 C 116.3 75.7 116.3 75.5 116.3 75.2 C 116.3 74.9 116.3 74.7 116.3 74.6 C 116.26 74.55 116.3 72.3 116.3 72.3 L 116.9 72.3 L 116.9 76.6 Z M 119.7 74.3 L 121.2 74.3 C 121.2 74.3 121.24 76.42 121.2 76.4 C 121 76.5 120.7 76.6 120.5 76.6 C 120.3 76.6 120 76.6 119.7 76.6 C 119.1 76.6 118.6 76.5 118.2 76.1 C 117.9 75.7 117.7 75.1 117.7 74.4 C 117.7 73.8 117.9 73.2 118.3 72.8 C 118.7 72.4 119.2 72.2 119.9 72.2 C 120.4 72.2 120.8 72.3 121.2 72.5 C 121.2 72.5 121 73.1 121 73.1 C 120.6 72.9 120.3 72.8 119.9 72.8 C 119.5 72.8 119.1 73 118.8 73.3 C 118.6 73.6 118.4 74 118.4 74.5 C 118.4 75 118.6 75.4 118.8 75.6 C 119 75.9 119.4 76.1 119.8 76.1 C 120.1 76.1 120.3 76 120.6 76 C 120.55 75.97 120.6 74.9 120.6 74.9 L 119.7 74.9 L 119.7 74.3 Z M 124.3 74.3 C 124.3 74.3 124.77 74.3 124.8 74.3 C 125.1 74.3 125.3 74.2 125.5 74.1 C 125.6 74 125.7 73.8 125.7 73.6 C 125.7 73.3 125.6 73.2 125.5 73.1 C 125.3 73 125.1 72.9 124.7 72.9 C 124.75 72.9 124.3 72.9 124.3 72.9 L 124.3 74.3 Z M 124.3 74.9 L 124.3 76.6 L 123.6 76.6 L 123.6 72.3 C 123.6 72.3 124.8 72.31 124.8 72.3 C 125.3 72.3 125.8 72.4 126 72.6 C 126.3 72.8 126.4 73.1 126.4 73.6 C 126.4 74.1 126.1 74.5 125.6 74.7 C 125.59 74.7 126.8 76.6 126.8 76.6 L 126 76.6 L 125 74.9 L 124.3 74.9 Z M 129.7 76.6 L 127.3 76.6 L 127.3 72.3 L 129.7 72.3 L 129.7 72.9 L 128 72.9 L 128 74.1 L 129.6 74.1 L 129.6 74.7 L 128 74.7 L 128 76 L 129.7 76 L 129.7 76.6 Z M 132 76.6 L 131.3 76.6 L 131.3 72.9 L 130 72.9 L 130 72.3 L 133.3 72.3 L 133.3 72.9 L 132 72.9 L 132 76.6 Z M 134.5 74.3 C 134.5 74.3 134.99 74.3 135 74.3 C 135.3 74.3 135.6 74.2 135.7 74.1 C 135.8 74 135.9 73.8 135.9 73.6 C 135.9 73.3 135.8 73.2 135.7 73.1 C 135.5 73 135.3 72.9 135 72.9 C 134.97 72.9 134.5 72.9 134.5 72.9 L 134.5 74.3 Z M 134.5 74.9 L 134.5 76.6 L 133.8 76.6 L 133.8 72.3 C 133.8 72.3 135.02 72.31 135 72.3 C 135.6 72.3 136 72.4 136.2 72.6 C 136.5 72.8 136.6 73.1 136.6 73.6 C 136.6 74.1 136.4 74.5 135.8 74.7 C 135.81 74.7 137 76.6 137 76.6 L 136.2 76.6 L 135.2 74.9 L 134.5 74.9 Z M 140.2 76.6 L 139.7 75.4 L 138.1 75.4 L 137.7 76.6 L 137 76.6 L 138.6 72.3 L 139.3 72.3 L 140.9 76.6 L 140.2 76.6 Z M 139.6 74.8 C 139.6 74.8 139.16 73.63 139.2 73.6 C 139.1 73.6 139.1 73.4 139 73.3 C 139 73.1 139 73 138.9 72.9 C 138.9 73.1 138.8 73.4 138.7 73.7 C 138.7 73.68 138.3 74.8 138.3 74.8 L 139.6 74.8 Z M 142.8 76.6 L 142.1 76.6 L 142.1 72.9 L 140.9 72.9 L 140.9 72.3 L 144.1 72.3 L 144.1 72.9 L 142.8 72.9 L 142.8 76.6 Z M 148.4 74.4 C 148.4 75.1 148.3 75.7 147.9 76.1 C 147.6 76.5 147.1 76.6 146.4 76.6 C 145.8 76.6 145.3 76.5 145 76.1 C 144.6 75.7 144.4 75.1 144.4 74.4 C 144.4 73.7 144.6 73.2 145 72.8 C 145.3 72.4 145.8 72.2 146.4 72.2 C 147.1 72.2 147.6 72.4 147.9 72.8 C 148.3 73.2 148.4 73.7 148.4 74.4 Z M 145.2 74.4 C 145.2 75 145.3 75.4 145.5 75.6 C 145.7 75.9 146 76.1 146.4 76.1 C 146.9 76.1 147.2 75.9 147.4 75.6 C 147.6 75.4 147.7 75 147.7 74.4 C 147.7 73.9 147.6 73.5 147.4 73.2 C 147.2 73 146.9 72.8 146.4 72.8 C 146 72.8 145.7 73 145.5 73.2 C 145.3 73.5 145.2 73.9 145.2 74.4 Z " stroke="none" fill="#000"/>
  </g>
  <g id="Polygon17911">
    <path d="M 85.4 64.6 C 85.4 65 85.3 65.4 85 65.6 C 84.7 65.9 84.3 66 83.7 66 C 83.74 65.99 83.3 66 83.3 66 L 83.3 67.6 L 82.6 67.6 L 82.6 63.3 C 82.6 63.3 83.83 63.31 83.8 63.3 C 84.4 63.3 84.8 63.4 85 63.6 C 85.3 63.9 85.4 64.2 85.4 64.6 Z M 83.3 65.4 C 83.3 65.4 83.67 65.4 83.7 65.4 C 84 65.4 84.3 65.3 84.5 65.2 C 84.6 65.1 84.7 64.9 84.7 64.6 C 84.7 64.4 84.6 64.2 84.5 64.1 C 84.3 64 84.1 63.9 83.8 63.9 C 83.79 63.89 83.3 63.9 83.3 63.9 L 83.3 65.4 Z M 88.8 67.6 L 88.4 66.4 L 86.8 66.4 L 86.3 67.6 L 85.6 67.6 L 87.2 63.3 L 88 63.3 L 89.6 67.6 L 88.8 67.6 Z M 88.2 65.8 C 88.2 65.8 87.81 64.63 87.8 64.6 C 87.8 64.6 87.7 64.4 87.7 64.3 C 87.6 64.1 87.6 64 87.6 63.9 C 87.5 64.1 87.5 64.4 87.4 64.7 C 87.35 64.68 87 65.8 87 65.8 L 88.2 65.8 Z M 91.5 67.6 L 90.8 67.6 L 90.8 63.9 L 89.5 63.9 L 89.5 63.3 L 92.8 63.3 L 92.8 63.9 L 91.5 63.9 L 91.5 67.6 Z M 96.9 67.6 L 96 67.6 L 93.9 64.2 L 93.9 64.2 C 93.9 64.2 93.89 64.37 93.9 64.4 C 93.9 64.7 93.9 65.1 93.9 65.4 C 93.93 65.36 93.9 67.6 93.9 67.6 L 93.3 67.6 L 93.3 63.3 L 94.1 63.3 L 96.2 66.7 C 96.2 66.7 96.26 66.7 96.3 66.7 C 96.3 66.7 96.2 66.5 96.2 66.2 C 96.2 65.9 96.2 65.7 96.2 65.6 C 96.22 65.55 96.2 63.3 96.2 63.3 L 96.9 63.3 L 96.9 67.6 Z M 101.2 63.3 C 101.2 63.3 101.23 66.08 101.2 66.1 C 101.2 66.4 101.2 66.7 101 66.9 C 100.9 67.1 100.7 67.3 100.4 67.5 C 100.2 67.6 99.9 67.6 99.5 67.6 C 99 67.6 98.6 67.5 98.3 67.2 C 98 66.9 97.8 66.6 97.8 66.1 C 97.83 66.07 97.8 63.3 97.8 63.3 L 98.5 63.3 C 98.5 63.3 98.54 66.02 98.5 66 C 98.5 66.4 98.6 66.6 98.8 66.8 C 98.9 67 99.2 67.1 99.5 67.1 C 100.2 67.1 100.5 66.7 100.5 66 C 100.53 66.01 100.5 63.3 100.5 63.3 L 101.2 63.3 Z M 104 65.3 L 105.5 65.3 C 105.5 65.3 105.53 67.42 105.5 67.4 C 105.3 67.5 105 67.6 104.8 67.6 C 104.6 67.6 104.3 67.6 104 67.6 C 103.4 67.6 102.9 67.5 102.5 67.1 C 102.2 66.7 102 66.1 102 65.4 C 102 64.8 102.2 64.2 102.6 63.8 C 103 63.4 103.5 63.2 104.2 63.2 C 104.7 63.2 105.1 63.3 105.5 63.5 C 105.5 63.5 105.3 64.1 105.3 64.1 C 104.9 63.9 104.6 63.8 104.2 63.8 C 103.8 63.8 103.4 64 103.1 64.3 C 102.9 64.6 102.7 65 102.7 65.5 C 102.7 66 102.8 66.4 103.1 66.6 C 103.3 66.9 103.7 67.1 104.1 67.1 C 104.3 67.1 104.6 67 104.8 67 C 104.84 66.97 104.8 65.9 104.8 65.9 L 104 65.9 L 104 65.3 Z M 110.2 65.4 C 110.2 66.1 110.1 66.7 109.7 67.1 C 109.4 67.5 108.9 67.6 108.2 67.6 C 107.6 67.6 107.1 67.5 106.8 67.1 C 106.4 66.7 106.2 66.1 106.2 65.4 C 106.2 64.7 106.4 64.2 106.8 63.8 C 107.1 63.4 107.6 63.2 108.2 63.2 C 108.9 63.2 109.4 63.4 109.7 63.8 C 110.1 64.2 110.2 64.7 110.2 65.4 Z M 107 65.4 C 107 66 107.1 66.4 107.3 66.6 C 107.5 66.9 107.8 67.1 108.2 67.1 C 108.7 67.1 109 66.9 109.2 66.6 C 109.4 66.4 109.5 66 109.5 65.4 C 109.5 64.9 109.4 64.5 109.2 64.2 C 109 64 108.7 63.8 108.2 63.8 C 107.8 63.8 107.5 64 107.3 64.2 C 107.1 64.5 107 64.9 107 65.4 Z M 112.5 67.6 L 111.8 67.6 L 111.8 63.9 L 110.6 63.9 L 110.6 63.3 L 113.8 63.3 L 113.8 63.9 L 112.5 63.9 L 112.5 67.6 Z M 119.3 67.6 L 118.5 67.6 L 116.4 64.2 L 116.3 64.2 C 116.3 64.2 116.35 64.37 116.4 64.4 C 116.4 64.7 116.4 65.1 116.4 65.4 C 116.39 65.36 116.4 67.6 116.4 67.6 L 115.8 67.6 L 115.8 63.3 L 116.6 63.3 L 118.7 66.7 C 118.7 66.7 118.73 66.7 118.7 66.7 C 118.7 66.7 118.7 66.5 118.7 66.2 C 118.7 65.9 118.7 65.7 118.7 65.6 C 118.68 65.55 118.7 63.3 118.7 63.3 L 119.3 63.3 L 119.3 67.6 Z M 122.1 65.3 L 123.7 65.3 C 123.7 65.3 123.67 67.42 123.7 67.4 C 123.4 67.5 123.2 67.6 122.9 67.6 C 122.7 67.6 122.4 67.6 122.2 67.6 C 121.5 67.6 121 67.5 120.7 67.1 C 120.3 66.7 120.1 66.1 120.1 65.4 C 120.1 64.8 120.3 64.2 120.7 63.8 C 121.1 63.4 121.7 63.2 122.4 63.2 C 122.8 63.2 123.2 63.3 123.6 63.5 C 123.6 63.5 123.4 64.1 123.4 64.1 C 123 63.9 122.7 63.8 122.3 63.8 C 121.9 63.8 121.5 64 121.3 64.3 C 121 64.6 120.9 65 120.9 65.5 C 120.9 66 121 66.4 121.2 66.6 C 121.5 66.9 121.8 67.1 122.3 67.1 C 122.5 67.1 122.7 67 123 67 C 122.98 66.97 123 65.9 123 65.9 L 122.1 65.9 L 122.1 65.3 Z M 126 67.6 L 126 63.3 L 126.7 63.3 L 126.7 67.6 L 126 67.6 Z M 130.2 66.4 C 130.2 66.8 130.1 67.1 129.8 67.3 C 129.5 67.5 129.1 67.6 128.6 67.6 C 128.2 67.6 127.8 67.6 127.5 67.4 C 127.5 67.4 127.5 66.8 127.5 66.8 C 127.6 66.9 127.9 66.9 128.1 67 C 128.3 67 128.5 67.1 128.7 67.1 C 129 67.1 129.2 67 129.3 66.9 C 129.4 66.8 129.5 66.7 129.5 66.5 C 129.5 66.3 129.4 66.2 129.3 66.1 C 129.2 66 128.9 65.8 128.6 65.7 C 128.2 65.5 127.9 65.3 127.7 65.1 C 127.6 64.9 127.5 64.7 127.5 64.4 C 127.5 64 127.6 63.8 127.9 63.6 C 128.1 63.3 128.5 63.2 128.9 63.2 C 129.3 63.2 129.7 63.3 130.1 63.5 C 130.1 63.5 129.9 64.1 129.9 64.1 C 129.5 63.9 129.2 63.8 128.9 63.8 C 128.7 63.8 128.5 63.9 128.4 64 C 128.3 64.1 128.2 64.2 128.2 64.4 C 128.2 64.5 128.2 64.6 128.3 64.7 C 128.3 64.8 128.4 64.8 128.5 64.9 C 128.6 65 128.8 65.1 129.1 65.2 C 129.4 65.3 129.6 65.4 129.8 65.5 C 129.9 65.7 130 65.8 130.1 65.9 C 130.2 66.1 130.2 66.2 130.2 66.4 Z M 133.7 64.6 C 133.7 65 133.6 65.4 133.3 65.6 C 133 65.9 132.6 66 132 66 C 132.05 65.99 131.6 66 131.6 66 L 131.6 67.6 L 130.9 67.6 L 130.9 63.3 C 130.9 63.3 132.14 63.31 132.1 63.3 C 132.7 63.3 133.1 63.4 133.3 63.6 C 133.6 63.9 133.7 64.2 133.7 64.6 Z M 131.6 65.4 C 131.6 65.4 131.97 65.4 132 65.4 C 132.3 65.4 132.6 65.3 132.8 65.2 C 132.9 65.1 133 64.9 133 64.6 C 133 64.4 132.9 64.2 132.8 64.1 C 132.6 64 132.4 63.9 132.1 63.9 C 132.09 63.89 131.6 63.9 131.6 63.9 L 131.6 65.4 Z M 138.3 65.4 C 138.3 66.1 138.1 66.7 137.8 67.1 C 137.4 67.5 136.9 67.6 136.3 67.6 C 135.6 67.6 135.1 67.5 134.8 67.1 C 134.4 66.7 134.3 66.1 134.3 65.4 C 134.3 64.7 134.4 64.2 134.8 63.8 C 135.1 63.4 135.6 63.2 136.3 63.2 C 136.9 63.2 137.4 63.4 137.8 63.8 C 138.1 64.2 138.3 64.7 138.3 65.4 Z M 135 65.4 C 135 66 135.1 66.4 135.3 66.6 C 135.5 66.9 135.9 67.1 136.3 67.1 C 136.7 67.1 137 66.9 137.2 66.6 C 137.4 66.4 137.5 66 137.5 65.4 C 137.5 64.9 137.4 64.5 137.2 64.2 C 137 64 136.7 63.8 136.3 63.8 C 135.9 63.8 135.5 64 135.3 64.2 C 135.1 64.5 135 64.9 135 65.4 Z M 139.8 65.3 C 139.8 65.3 140.26 65.3 140.3 65.3 C 140.6 65.3 140.8 65.2 141 65.1 C 141.1 65 141.2 64.8 141.2 64.6 C 141.2 64.3 141.1 64.2 141 64.1 C 140.8 64 140.6 63.9 140.2 63.9 C 140.24 63.9 139.8 63.9 139.8 63.9 L 139.8 65.3 Z M 139.8 65.9 L 139.8 67.6 L 139.1 67.6 L 139.1 63.3 C 139.1 63.3 140.29 63.31 140.3 63.3 C 140.8 63.3 141.2 63.4 141.5 63.6 C 141.8 63.8 141.9 64.1 141.9 64.6 C 141.9 65.1 141.6 65.5 141.1 65.7 C 141.08 65.7 142.3 67.6 142.3 67.6 L 141.5 67.6 L 140.5 65.9 L 139.8 65.9 Z M 144.3 67.6 L 143.6 67.6 L 143.6 63.9 L 142.3 63.9 L 142.3 63.3 L 145.5 63.3 L 145.5 63.9 L 144.3 63.9 L 144.3 67.6 Z M 148.5 66.4 C 148.5 66.8 148.4 67.1 148.1 67.3 C 147.8 67.5 147.5 67.6 147 67.6 C 146.5 67.6 146.1 67.6 145.8 67.4 C 145.8 67.4 145.8 66.8 145.8 66.8 C 146 66.9 146.2 66.9 146.4 67 C 146.6 67 146.8 67.1 147 67.1 C 147.3 67.1 147.5 67 147.6 66.9 C 147.8 66.8 147.8 66.7 147.8 66.5 C 147.8 66.3 147.8 66.2 147.7 66.1 C 147.5 66 147.3 65.8 146.9 65.7 C 146.5 65.5 146.2 65.3 146.1 65.1 C 145.9 64.9 145.8 64.7 145.8 64.4 C 145.8 64 146 63.8 146.2 63.6 C 146.5 63.3 146.8 63.2 147.2 63.2 C 147.7 63.2 148.1 63.3 148.5 63.5 C 148.5 63.5 148.2 64.1 148.2 64.1 C 147.9 63.9 147.5 63.8 147.2 63.8 C 147 63.8 146.8 63.9 146.7 64 C 146.6 64.1 146.5 64.2 146.5 64.4 C 146.5 64.5 146.6 64.6 146.6 64.7 C 146.7 64.8 146.7 64.8 146.8 64.9 C 146.9 65 147.1 65.1 147.4 65.2 C 147.7 65.3 148 65.4 148.1 65.5 C 148.3 65.7 148.4 65.8 148.4 65.9 C 148.5 66.1 148.5 66.2 148.5 66.4 Z " stroke="none" fill="#000"/>
  </g>
  <g id="Polygon17910">
    <path d="M 52.5 55.6 C 52.5 56 52.3 56.4 52 56.6 C 51.7 56.9 51.3 57 50.8 57 C 50.79 56.99 50.3 57 50.3 57 L 50.3 58.6 L 49.6 58.6 L 49.6 54.3 C 49.6 54.3 50.88 54.31 50.9 54.3 C 51.4 54.3 51.8 54.4 52.1 54.6 C 52.3 54.9 52.5 55.2 52.5 55.6 Z M 50.3 56.4 C 50.3 56.4 50.72 56.4 50.7 56.4 C 51.1 56.4 51.3 56.3 51.5 56.2 C 51.7 56.1 51.8 55.9 51.8 55.6 C 51.8 55.4 51.7 55.2 51.5 55.1 C 51.4 55 51.1 54.9 50.8 54.9 C 50.83 54.89 50.3 54.9 50.3 54.9 L 50.3 56.4 Z M 55.9 58.6 L 55.4 57.4 L 53.8 57.4 L 53.4 58.6 L 52.7 58.6 L 54.3 54.3 L 55 54.3 L 56.6 58.6 L 55.9 58.6 Z M 55.3 56.8 C 55.3 56.8 54.86 55.63 54.9 55.6 C 54.8 55.6 54.8 55.4 54.7 55.3 C 54.7 55.1 54.7 55 54.6 54.9 C 54.6 55.1 54.5 55.4 54.4 55.7 C 54.4 55.68 54 56.8 54 56.8 L 55.3 56.8 Z M 58.5 58.6 L 57.8 58.6 L 57.8 54.9 L 56.6 54.9 L 56.6 54.3 L 59.8 54.3 L 59.8 54.9 L 58.5 54.9 L 58.5 58.6 Z M 63.9 58.6 L 63 58.6 L 60.9 55.2 L 60.9 55.2 C 60.9 55.2 60.93 55.37 60.9 55.4 C 61 55.7 61 56.1 61 56.4 C 60.97 56.36 61 58.6 61 58.6 L 60.3 58.6 L 60.3 54.3 L 61.2 54.3 L 63.3 57.7 C 63.3 57.7 63.31 57.7 63.3 57.7 C 63.3 57.7 63.3 57.5 63.3 57.2 C 63.3 56.9 63.3 56.7 63.3 56.6 C 63.26 56.55 63.3 54.3 63.3 54.3 L 63.9 54.3 L 63.9 58.6 Z M 68.3 54.3 C 68.3 54.3 68.27 57.08 68.3 57.1 C 68.3 57.4 68.2 57.7 68.1 57.9 C 67.9 58.1 67.7 58.3 67.5 58.5 C 67.2 58.6 66.9 58.6 66.6 58.6 C 66 58.6 65.6 58.5 65.3 58.2 C 65 57.9 64.9 57.6 64.9 57.1 C 64.88 57.07 64.9 54.3 64.9 54.3 L 65.6 54.3 C 65.6 54.3 65.58 57.02 65.6 57 C 65.6 57.4 65.7 57.6 65.8 57.8 C 66 58 66.2 58.1 66.6 58.1 C 67.2 58.1 67.6 57.7 67.6 57 C 67.57 57.01 67.6 54.3 67.6 54.3 L 68.3 54.3 Z M 71 56.3 L 72.6 56.3 C 72.6 56.3 72.58 58.42 72.6 58.4 C 72.3 58.5 72.1 58.6 71.8 58.6 C 71.6 58.6 71.3 58.6 71.1 58.6 C 70.4 58.6 69.9 58.5 69.6 58.1 C 69.2 57.7 69 57.1 69 56.4 C 69 55.8 69.2 55.2 69.6 54.8 C 70 54.4 70.6 54.2 71.3 54.2 C 71.7 54.2 72.1 54.3 72.5 54.5 C 72.5 54.5 72.3 55.1 72.3 55.1 C 71.9 54.9 71.6 54.8 71.3 54.8 C 70.8 54.8 70.4 55 70.2 55.3 C 69.9 55.6 69.8 56 69.8 56.5 C 69.8 57 69.9 57.4 70.1 57.6 C 70.4 57.9 70.7 58.1 71.2 58.1 C 71.4 58.1 71.6 58 71.9 58 C 71.89 57.97 71.9 56.9 71.9 56.9 L 71 56.9 L 71 56.3 Z M 77.3 56.4 C 77.3 57.1 77.1 57.7 76.8 58.1 C 76.4 58.5 75.9 58.6 75.3 58.6 C 74.6 58.6 74.1 58.5 73.8 58.1 C 73.4 57.7 73.3 57.1 73.3 56.4 C 73.3 55.7 73.5 55.2 73.8 54.8 C 74.1 54.4 74.6 54.2 75.3 54.2 C 75.9 54.2 76.4 54.4 76.8 54.8 C 77.1 55.2 77.3 55.7 77.3 56.4 Z M 74 56.4 C 74 57 74.1 57.4 74.3 57.6 C 74.6 57.9 74.9 58.1 75.3 58.1 C 75.7 58.1 76 57.9 76.2 57.6 C 76.4 57.4 76.5 57 76.5 56.4 C 76.5 55.9 76.4 55.5 76.2 55.2 C 76 55 75.7 54.8 75.3 54.8 C 74.9 54.8 74.6 55 74.3 55.2 C 74.1 55.5 74 55.9 74 56.4 Z M 79.6 58.6 L 78.9 58.6 L 78.9 54.9 L 77.6 54.9 L 77.6 54.3 L 80.8 54.3 L 80.8 54.9 L 79.6 54.9 L 79.6 58.6 Z M 86.4 58.6 L 85.5 58.6 L 83.4 55.2 L 83.4 55.2 C 83.4 55.2 83.4 55.37 83.4 55.4 C 83.4 55.7 83.4 56.1 83.4 56.4 C 83.44 56.36 83.4 58.6 83.4 58.6 L 82.8 58.6 L 82.8 54.3 L 83.7 54.3 L 85.8 57.7 C 85.8 57.7 85.77 57.7 85.8 57.7 C 85.8 57.7 85.8 57.5 85.7 57.2 C 85.7 56.9 85.7 56.7 85.7 56.6 C 85.73 56.55 85.7 54.3 85.7 54.3 L 86.4 54.3 L 86.4 58.6 Z M 89.1 56.3 L 90.7 56.3 C 90.7 56.3 90.71 58.42 90.7 58.4 C 90.5 58.5 90.2 58.6 90 58.6 C 89.7 58.6 89.5 58.6 89.2 58.6 C 88.6 58.6 88.1 58.5 87.7 58.1 C 87.3 57.7 87.2 57.1 87.2 56.4 C 87.2 55.8 87.4 55.2 87.8 54.8 C 88.2 54.4 88.7 54.2 89.4 54.2 C 89.9 54.2 90.3 54.3 90.7 54.5 C 90.7 54.5 90.4 55.1 90.4 55.1 C 90.1 54.9 89.7 54.8 89.4 54.8 C 88.9 54.8 88.6 55 88.3 55.3 C 88 55.6 87.9 56 87.9 56.5 C 87.9 57 88 57.4 88.3 57.6 C 88.5 57.9 88.8 58.1 89.3 58.1 C 89.5 58.1 89.8 58 90 58 C 90.02 57.97 90 56.9 90 56.9 L 89.1 56.9 L 89.1 56.3 Z M 93.1 54.3 C 93.1 54.3 94.33 54.31 94.3 54.3 C 94.9 54.3 95.3 54.4 95.6 54.6 C 95.9 54.7 96 55 96 55.4 C 96 55.6 95.9 55.8 95.8 56 C 95.7 56.2 95.5 56.3 95.3 56.3 C 95.3 56.3 95.3 56.3 95.3 56.3 C 95.6 56.4 95.8 56.5 95.9 56.7 C 96.1 56.8 96.1 57.1 96.1 57.4 C 96.1 57.7 96 58 95.7 58.3 C 95.5 58.5 95.1 58.6 94.6 58.6 C 94.6 58.59 93.1 58.6 93.1 58.6 L 93.1 54.3 Z M 93.8 56.1 C 93.8 56.1 94.43 56.08 94.4 56.1 C 94.7 56.1 94.9 56 95.1 55.9 C 95.2 55.8 95.3 55.7 95.3 55.5 C 95.3 55.3 95.2 55.1 95.1 55 C 94.9 54.9 94.7 54.9 94.4 54.9 C 94.36 54.89 93.8 54.9 93.8 54.9 L 93.8 56.1 Z M 93.8 56.6 L 93.8 58 C 93.8 58 94.5 58 94.5 58 C 94.8 58 95 57.9 95.2 57.8 C 95.3 57.7 95.4 57.5 95.4 57.3 C 95.4 57.1 95.3 56.9 95.2 56.8 C 95 56.7 94.8 56.6 94.5 56.6 C 94.47 56.65 93.8 56.6 93.8 56.6 Z M 100.3 54.3 C 100.3 54.3 100.26 57.08 100.3 57.1 C 100.3 57.4 100.2 57.7 100.1 57.9 C 99.9 58.1 99.7 58.3 99.5 58.5 C 99.2 58.6 98.9 58.6 98.5 58.6 C 98 58.6 97.6 58.5 97.3 58.2 C 97 57.9 96.9 57.6 96.9 57.1 C 96.86 57.07 96.9 54.3 96.9 54.3 L 97.6 54.3 C 97.6 54.3 97.56 57.02 97.6 57 C 97.6 57.4 97.6 57.6 97.8 57.8 C 98 58 98.2 58.1 98.6 58.1 C 99.2 58.1 99.6 57.7 99.6 57 C 99.56 57.01 99.6 54.3 99.6 54.3 L 100.3 54.3 Z M 104.6 58.6 L 103.9 58.6 L 103.9 56.7 L 101.9 56.7 L 101.9 58.6 L 101.2 58.6 L 101.2 54.3 L 101.9 54.3 L 101.9 56.1 L 103.9 56.1 L 103.9 54.3 L 104.6 54.3 L 104.6 58.6 Z M 108.3 58.6 L 107.8 57.4 L 106.2 57.4 L 105.8 58.6 L 105.1 58.6 L 106.7 54.3 L 107.4 54.3 L 109 58.6 L 108.3 58.6 Z M 107.7 56.8 C 107.7 56.8 107.26 55.63 107.3 55.6 C 107.2 55.6 107.2 55.4 107.1 55.3 C 107.1 55.1 107.1 55 107 54.9 C 107 55.1 106.9 55.4 106.8 55.7 C 106.8 55.68 106.4 56.8 106.4 56.8 L 107.7 56.8 Z M 110.7 56.3 L 111.7 54.3 L 112.5 54.3 L 111 56.9 L 111 58.6 L 110.3 58.6 L 110.3 57 L 108.9 54.3 L 109.7 54.3 L 110.7 56.3 Z M 117 58.6 L 116.6 57.4 L 114.9 57.4 L 114.5 58.6 L 113.8 58.6 L 115.4 54.3 L 116.1 54.3 L 117.7 58.6 L 117 58.6 Z M 116.4 56.8 C 116.4 56.8 115.98 55.63 116 55.6 C 115.9 55.6 115.9 55.4 115.9 55.3 C 115.8 55.1 115.8 55 115.7 54.9 C 115.7 55.1 115.6 55.4 115.5 55.7 C 115.52 55.68 115.1 56.8 115.1 56.8 L 116.4 56.8 Z M 119.7 58.6 L 119 58.6 L 119 54.9 L 117.7 54.9 L 117.7 54.3 L 120.9 54.3 L 120.9 54.9 L 119.7 54.9 L 119.7 58.6 Z M 126.2 58.6 L 125.4 58.6 L 124 56.7 L 123.6 57 L 123.6 58.6 L 122.9 58.6 L 122.9 54.3 L 123.6 54.3 C 123.6 54.3 123.6 56.35 123.6 56.4 C 123.8 56.1 124 55.9 124.2 55.7 C 124.17 55.68 125.3 54.3 125.3 54.3 C 125.3 54.3 126.12 54.31 126.1 54.3 C 125.4 55.2 124.8 55.8 124.5 56.2 C 124.51 56.19 126.2 58.6 126.2 58.6 Z M 130 54.3 C 130 54.3 129.97 57.08 130 57.1 C 130 57.4 129.9 57.7 129.8 57.9 C 129.6 58.1 129.4 58.3 129.2 58.5 C 128.9 58.6 128.6 58.6 128.3 58.6 C 127.7 58.6 127.3 58.5 127 58.2 C 126.7 57.9 126.6 57.6 126.6 57.1 C 126.57 57.07 126.6 54.3 126.6 54.3 L 127.3 54.3 C 127.3 54.3 127.28 57.02 127.3 57 C 127.3 57.4 127.4 57.6 127.5 57.8 C 127.7 58 127.9 58.1 128.3 58.1 C 128.9 58.1 129.3 57.7 129.3 57 C 129.27 57.01 129.3 54.3 129.3 54.3 L 130 54.3 Z M 130.9 58.6 L 130.9 54.3 L 131.6 54.3 L 131.6 58 L 133.5 58 L 133.5 58.6 L 130.9 58.6 Z M 135.6 58.6 L 134.9 58.6 L 134.9 54.9 L 133.6 54.9 L 133.6 54.3 L 136.8 54.3 L 136.8 54.9 L 135.6 54.9 L 135.6 58.6 Z M 140.7 54.3 C 140.7 54.3 140.71 57.08 140.7 57.1 C 140.7 57.4 140.6 57.7 140.5 57.9 C 140.4 58.1 140.2 58.3 139.9 58.5 C 139.7 58.6 139.4 58.6 139 58.6 C 138.5 58.6 138 58.5 137.8 58.2 C 137.5 57.9 137.3 57.6 137.3 57.1 C 137.31 57.07 137.3 54.3 137.3 54.3 L 138 54.3 C 138 54.3 138.02 57.02 138 57 C 138 57.4 138.1 57.6 138.3 57.8 C 138.4 58 138.7 58.1 139 58.1 C 139.7 58.1 140 57.7 140 57 C 140.01 57.01 140 54.3 140 54.3 L 140.7 54.3 Z M 142.4 56.3 C 142.4 56.3 142.87 56.3 142.9 56.3 C 143.2 56.3 143.4 56.2 143.6 56.1 C 143.7 56 143.8 55.8 143.8 55.6 C 143.8 55.3 143.7 55.2 143.6 55.1 C 143.4 55 143.2 54.9 142.8 54.9 C 142.85 54.9 142.4 54.9 142.4 54.9 L 142.4 56.3 Z M 142.4 56.9 L 142.4 58.6 L 141.7 58.6 L 141.7 54.3 C 141.7 54.3 142.89 54.31 142.9 54.3 C 143.4 54.3 143.9 54.4 144.1 54.6 C 144.4 54.8 144.5 55.1 144.5 55.6 C 144.5 56.1 144.2 56.5 143.7 56.7 C 143.69 56.7 144.9 58.6 144.9 58.6 L 144.1 58.6 L 143.1 56.9 L 142.4 56.9 Z M 148.1 58.6 L 147.6 57.4 L 146 57.4 L 145.6 58.6 L 144.8 58.6 L 146.4 54.3 L 147.2 54.3 L 148.8 58.6 L 148.1 58.6 Z M 147.4 56.8 C 147.4 56.8 147.04 55.63 147 55.6 C 147 55.6 147 55.4 146.9 55.3 C 146.9 55.1 146.8 55 146.8 54.9 C 146.8 55.1 146.7 55.4 146.6 55.7 C 146.58 55.68 146.2 56.8 146.2 56.8 L 147.4 56.8 Z " stroke="none" fill="#000"/>
  </g>
  <g id="Polygon17909">
    <path d="M 89.1 46.6 C 89.1 47 89 47.4 88.7 47.6 C 88.4 47.9 88 48 87.4 48 C 87.43 47.99 87 48 87 48 L 87 49.6 L 86.3 49.6 L 86.3 45.3 C 86.3 45.3 87.52 45.31 87.5 45.3 C 88.1 45.3 88.5 45.4 88.7 45.6 C 89 45.9 89.1 46.2 89.1 46.6 Z M 87 47.4 C 87 47.4 87.36 47.4 87.4 47.4 C 87.7 47.4 88 47.3 88.2 47.2 C 88.3 47.1 88.4 46.9 88.4 46.6 C 88.4 46.4 88.3 46.2 88.2 46.1 C 88 46 87.8 45.9 87.5 45.9 C 87.47 45.89 87 45.9 87 45.9 L 87 47.4 Z M 92.5 49.6 L 92.1 48.4 L 90.5 48.4 L 90 49.6 L 89.3 49.6 L 90.9 45.3 L 91.7 45.3 L 93.3 49.6 L 92.5 49.6 Z M 91.9 47.8 C 91.9 47.8 91.5 46.63 91.5 46.6 C 91.5 46.6 91.4 46.4 91.4 46.3 C 91.3 46.1 91.3 46 91.3 45.9 C 91.2 46.1 91.1 46.4 91 46.7 C 91.04 46.68 90.7 47.8 90.7 47.8 L 91.9 47.8 Z M 95.2 49.6 L 94.5 49.6 L 94.5 45.9 L 93.2 45.9 L 93.2 45.3 L 96.4 45.3 L 96.4 45.9 L 95.2 45.9 L 95.2 49.6 Z M 100.5 49.6 L 99.7 49.6 L 97.6 46.2 L 97.6 46.2 C 97.6 46.2 97.58 46.37 97.6 46.4 C 97.6 46.7 97.6 47.1 97.6 47.4 C 97.62 47.36 97.6 49.6 97.6 49.6 L 97 49.6 L 97 45.3 L 97.8 45.3 L 99.9 48.7 C 99.9 48.7 99.95 48.7 99.9 48.7 C 99.9 48.7 99.9 48.5 99.9 48.2 C 99.9 47.9 99.9 47.7 99.9 47.6 C 99.91 47.55 99.9 45.3 99.9 45.3 L 100.5 45.3 L 100.5 49.6 Z M 104.9 45.3 C 104.9 45.3 104.92 48.08 104.9 48.1 C 104.9 48.4 104.8 48.7 104.7 48.9 C 104.6 49.1 104.4 49.3 104.1 49.5 C 103.9 49.6 103.6 49.6 103.2 49.6 C 102.7 49.6 102.3 49.5 102 49.2 C 101.7 48.9 101.5 48.6 101.5 48.1 C 101.52 48.07 101.5 45.3 101.5 45.3 L 102.2 45.3 C 102.2 45.3 102.23 48.02 102.2 48 C 102.2 48.4 102.3 48.6 102.5 48.8 C 102.6 49 102.9 49.1 103.2 49.1 C 103.9 49.1 104.2 48.7 104.2 48 C 104.22 48.01 104.2 45.3 104.2 45.3 L 104.9 45.3 Z M 107.6 47.3 L 109.2 47.3 C 109.2 47.3 109.22 49.42 109.2 49.4 C 109 49.5 108.7 49.6 108.5 49.6 C 108.2 49.6 108 49.6 107.7 49.6 C 107.1 49.6 106.6 49.5 106.2 49.1 C 105.9 48.7 105.7 48.1 105.7 47.4 C 105.7 46.8 105.9 46.2 106.3 45.8 C 106.7 45.4 107.2 45.2 107.9 45.2 C 108.4 45.2 108.8 45.3 109.2 45.5 C 109.2 45.5 108.9 46.1 108.9 46.1 C 108.6 45.9 108.2 45.8 107.9 45.8 C 107.4 45.8 107.1 46 106.8 46.3 C 106.5 46.6 106.4 47 106.4 47.5 C 106.4 48 106.5 48.4 106.8 48.6 C 107 48.9 107.4 49.1 107.8 49.1 C 108 49.1 108.3 49 108.5 49 C 108.53 48.97 108.5 47.9 108.5 47.9 L 107.6 47.9 L 107.6 47.3 Z M 113.9 47.4 C 113.9 48.1 113.8 48.7 113.4 49.1 C 113.1 49.5 112.6 49.6 111.9 49.6 C 111.3 49.6 110.8 49.5 110.4 49.1 C 110.1 48.7 109.9 48.1 109.9 47.4 C 109.9 46.7 110.1 46.2 110.4 45.8 C 110.8 45.4 111.3 45.2 111.9 45.2 C 112.6 45.2 113.1 45.4 113.4 45.8 C 113.8 46.2 113.9 46.7 113.9 47.4 Z M 110.7 47.4 C 110.7 48 110.8 48.4 111 48.6 C 111.2 48.9 111.5 49.1 111.9 49.1 C 112.3 49.1 112.7 48.9 112.9 48.6 C 113.1 48.4 113.2 48 113.2 47.4 C 113.2 46.9 113.1 46.5 112.9 46.2 C 112.7 46 112.4 45.8 111.9 45.8 C 111.5 45.8 111.2 46 111 46.2 C 110.8 46.5 110.7 46.9 110.7 47.4 Z M 116.2 49.6 L 115.5 49.6 L 115.5 45.9 L 114.3 45.9 L 114.3 45.3 L 117.5 45.3 L 117.5 45.9 L 116.2 45.9 L 116.2 49.6 Z M 123 49.6 L 122.2 49.6 L 120.1 46.2 L 120 46.2 C 120 46.2 120.04 46.37 120 46.4 C 120.1 46.7 120.1 47.1 120.1 47.4 C 120.08 47.36 120.1 49.6 120.1 49.6 L 119.4 49.6 L 119.4 45.3 L 120.3 45.3 L 122.4 48.7 C 122.4 48.7 122.41 48.7 122.4 48.7 C 122.4 48.7 122.4 48.5 122.4 48.2 C 122.4 47.9 122.4 47.7 122.4 47.6 C 122.37 47.55 122.4 45.3 122.4 45.3 L 123 45.3 L 123 49.6 Z M 125.8 47.3 L 127.4 47.3 C 127.4 47.3 127.35 49.42 127.4 49.4 C 127.1 49.5 126.8 49.6 126.6 49.6 C 126.4 49.6 126.1 49.6 125.8 49.6 C 125.2 49.6 124.7 49.5 124.3 49.1 C 124 48.7 123.8 48.1 123.8 47.4 C 123.8 46.8 124 46.2 124.4 45.8 C 124.8 45.4 125.4 45.2 126 45.2 C 126.5 45.2 126.9 45.3 127.3 45.5 C 127.3 45.5 127.1 46.1 127.1 46.1 C 126.7 45.9 126.4 45.8 126 45.8 C 125.6 45.8 125.2 46 124.9 46.3 C 124.7 46.6 124.5 47 124.5 47.5 C 124.5 48 124.7 48.4 124.9 48.6 C 125.1 48.9 125.5 49.1 125.9 49.1 C 126.2 49.1 126.4 49 126.7 49 C 126.67 48.97 126.7 47.9 126.7 47.9 L 125.8 47.9 L 125.8 47.3 Z M 129.7 45.3 C 129.7 45.3 130.97 45.31 131 45.3 C 131.6 45.3 132 45.4 132.3 45.6 C 132.5 45.7 132.6 46 132.6 46.4 C 132.6 46.6 132.6 46.8 132.5 47 C 132.3 47.2 132.1 47.3 131.9 47.3 C 131.9 47.3 131.9 47.3 131.9 47.3 C 132.2 47.4 132.4 47.5 132.6 47.7 C 132.7 47.8 132.8 48.1 132.8 48.4 C 132.8 48.7 132.6 49 132.4 49.3 C 132.1 49.5 131.7 49.6 131.2 49.6 C 131.25 49.59 129.7 49.6 129.7 49.6 L 129.7 45.3 Z M 130.4 47.1 C 130.4 47.1 131.07 47.08 131.1 47.1 C 131.4 47.1 131.6 47 131.7 46.9 C 131.9 46.8 131.9 46.7 131.9 46.5 C 131.9 46.3 131.8 46.1 131.7 46 C 131.6 45.9 131.3 45.9 131 45.9 C 131.01 45.89 130.4 45.9 130.4 45.9 L 130.4 47.1 Z M 130.4 47.6 L 130.4 49 C 130.4 49 131.15 49 131.1 49 C 131.4 49 131.7 48.9 131.8 48.8 C 132 48.7 132 48.5 132 48.3 C 132 48.1 132 47.9 131.8 47.8 C 131.7 47.7 131.4 47.6 131.1 47.6 C 131.11 47.65 130.4 47.6 130.4 47.6 Z M 136.2 49.6 L 135.8 48.4 L 134.1 48.4 L 133.7 49.6 L 133 49.6 L 134.6 45.3 L 135.3 45.3 L 136.9 49.6 L 136.2 49.6 Z M 135.6 47.8 C 135.6 47.8 135.19 46.63 135.2 46.6 C 135.2 46.6 135.1 46.4 135.1 46.3 C 135 46.1 135 46 135 45.9 C 134.9 46.1 134.8 46.4 134.7 46.7 C 134.73 46.68 134.3 47.8 134.3 47.8 L 135.6 47.8 Z M 138.6 47.3 L 139.6 45.3 L 140.4 45.3 L 138.9 47.9 L 138.9 49.6 L 138.2 49.6 L 138.2 48 L 136.8 45.3 L 137.6 45.3 L 138.6 47.3 Z M 143.5 49.6 L 143 48.4 L 141.4 48.4 L 141 49.6 L 140.3 49.6 L 141.9 45.3 L 142.6 45.3 L 144.2 49.6 L 143.5 49.6 Z M 142.9 47.8 C 142.9 47.8 142.46 46.63 142.5 46.6 C 142.4 46.6 142.4 46.4 142.3 46.3 C 142.3 46.1 142.3 46 142.2 45.9 C 142.2 46.1 142.1 46.4 142 46.7 C 142 46.68 141.6 47.8 141.6 47.8 L 142.9 47.8 Z M 148.2 49.6 L 147.4 49.6 L 145.3 46.2 L 145.2 46.2 C 145.2 46.2 145.26 46.37 145.3 46.4 C 145.3 46.7 145.3 47.1 145.3 47.4 C 145.3 47.36 145.3 49.6 145.3 49.6 L 144.7 49.6 L 144.7 45.3 L 145.5 45.3 L 147.6 48.7 C 147.6 48.7 147.63 48.7 147.6 48.7 C 147.6 48.7 147.6 48.5 147.6 48.2 C 147.6 47.9 147.6 47.7 147.6 47.6 C 147.59 47.55 147.6 45.3 147.6 45.3 L 148.2 45.3 L 148.2 49.6 Z " stroke="none" fill="#000"/>
  </g>
  <g id="Polygon17908">
    <path d="M 89 37.6 C 89 38 88.9 38.4 88.6 38.6 C 88.3 38.9 87.9 39 87.3 39 C 87.32 38.99 86.9 39 86.9 39 L 86.9 40.6 L 86.2 40.6 L 86.2 36.3 C 86.2 36.3 87.41 36.31 87.4 36.3 C 87.9 36.3 88.3 36.4 88.6 36.6 C 88.9 36.9 89 37.2 89 37.6 Z M 86.9 38.4 C 86.9 38.4 87.25 38.4 87.3 38.4 C 87.6 38.4 87.9 38.3 88 38.2 C 88.2 38.1 88.3 37.9 88.3 37.6 C 88.3 37.4 88.2 37.2 88.1 37.1 C 87.9 37 87.7 36.9 87.4 36.9 C 87.37 36.89 86.9 36.9 86.9 36.9 L 86.9 38.4 Z M 92.4 40.6 L 92 39.4 L 90.3 39.4 L 89.9 40.6 L 89.2 40.6 L 90.8 36.3 L 91.5 36.3 L 93.2 40.6 L 92.4 40.6 Z M 91.8 38.8 C 91.8 38.8 91.39 37.63 91.4 37.6 C 91.4 37.6 91.3 37.4 91.3 37.3 C 91.2 37.1 91.2 37 91.2 36.9 C 91.1 37.1 91 37.4 90.9 37.7 C 90.93 37.68 90.5 38.8 90.5 38.8 L 91.8 38.8 Z M 95.1 40.6 L 94.4 40.6 L 94.4 36.9 L 93.1 36.9 L 93.1 36.3 L 96.3 36.3 L 96.3 36.9 L 95.1 36.9 L 95.1 40.6 Z M 100.4 40.6 L 99.6 40.6 L 97.5 37.2 L 97.5 37.2 C 97.5 37.2 97.47 37.37 97.5 37.4 C 97.5 37.7 97.5 38.1 97.5 38.4 C 97.51 38.36 97.5 40.6 97.5 40.6 L 96.9 40.6 L 96.9 36.3 L 97.7 36.3 L 99.8 39.7 C 99.8 39.7 99.84 39.7 99.8 39.7 C 99.8 39.7 99.8 39.5 99.8 39.2 C 99.8 38.9 99.8 38.7 99.8 38.6 C 99.8 38.55 99.8 36.3 99.8 36.3 L 100.4 36.3 L 100.4 40.6 Z M 104.8 36.3 C 104.8 36.3 104.81 39.08 104.8 39.1 C 104.8 39.4 104.7 39.7 104.6 39.9 C 104.5 40.1 104.3 40.3 104 40.5 C 103.8 40.6 103.5 40.6 103.1 40.6 C 102.6 40.6 102.2 40.5 101.9 40.2 C 101.6 39.9 101.4 39.6 101.4 39.1 C 101.41 39.07 101.4 36.3 101.4 36.3 L 102.1 36.3 C 102.1 36.3 102.12 39.02 102.1 39 C 102.1 39.4 102.2 39.6 102.4 39.8 C 102.5 40 102.8 40.1 103.1 40.1 C 103.8 40.1 104.1 39.7 104.1 39 C 104.11 39.01 104.1 36.3 104.1 36.3 L 104.8 36.3 Z M 107.5 38.3 L 109.1 38.3 C 109.1 38.3 109.11 40.42 109.1 40.4 C 108.9 40.5 108.6 40.6 108.4 40.6 C 108.1 40.6 107.9 40.6 107.6 40.6 C 107 40.6 106.5 40.5 106.1 40.1 C 105.7 39.7 105.6 39.1 105.6 38.4 C 105.6 37.8 105.8 37.2 106.2 36.8 C 106.6 36.4 107.1 36.2 107.8 36.2 C 108.3 36.2 108.7 36.3 109.1 36.5 C 109.1 36.5 108.8 37.1 108.8 37.1 C 108.5 36.9 108.1 36.8 107.8 36.8 C 107.3 36.8 107 37 106.7 37.3 C 106.4 37.6 106.3 38 106.3 38.5 C 106.3 39 106.4 39.4 106.7 39.6 C 106.9 39.9 107.2 40.1 107.7 40.1 C 107.9 40.1 108.2 40 108.4 40 C 108.42 39.97 108.4 38.9 108.4 38.9 L 107.5 38.9 L 107.5 38.3 Z M 113.8 38.4 C 113.8 39.1 113.6 39.7 113.3 40.1 C 113 40.5 112.5 40.6 111.8 40.6 C 111.2 40.6 110.7 40.5 110.3 40.1 C 110 39.7 109.8 39.1 109.8 38.4 C 109.8 37.7 110 37.2 110.3 36.8 C 110.7 36.4 111.2 36.2 111.8 36.2 C 112.5 36.2 113 36.4 113.3 36.8 C 113.7 37.2 113.8 37.7 113.8 38.4 Z M 110.6 38.4 C 110.6 39 110.7 39.4 110.9 39.6 C 111.1 39.9 111.4 40.1 111.8 40.1 C 112.2 40.1 112.6 39.9 112.8 39.6 C 113 39.4 113.1 39 113.1 38.4 C 113.1 37.9 113 37.5 112.8 37.2 C 112.6 37 112.2 36.8 111.8 36.8 C 111.4 36.8 111.1 37 110.9 37.2 C 110.7 37.5 110.6 37.9 110.6 38.4 Z M 116.1 40.6 L 115.4 40.6 L 115.4 36.9 L 114.1 36.9 L 114.1 36.3 L 117.4 36.3 L 117.4 36.9 L 116.1 36.9 L 116.1 40.6 Z M 122.9 40.6 L 122 40.6 L 119.9 37.2 L 119.9 37.2 C 119.9 37.2 119.93 37.37 119.9 37.4 C 120 37.7 120 38.1 120 38.4 C 119.97 38.36 120 40.6 120 40.6 L 119.3 40.6 L 119.3 36.3 L 120.2 36.3 L 122.3 39.7 C 122.3 39.7 122.31 39.7 122.3 39.7 C 122.3 39.7 122.3 39.5 122.3 39.2 C 122.3 38.9 122.3 38.7 122.3 38.6 C 122.26 38.55 122.3 36.3 122.3 36.3 L 122.9 36.3 L 122.9 40.6 Z M 125.7 38.3 L 127.2 38.3 C 127.2 38.3 127.25 40.42 127.2 40.4 C 127 40.5 126.7 40.6 126.5 40.6 C 126.3 40.6 126 40.6 125.7 40.6 C 125.1 40.6 124.6 40.5 124.2 40.1 C 123.9 39.7 123.7 39.1 123.7 38.4 C 123.7 37.8 123.9 37.2 124.3 36.8 C 124.7 36.4 125.2 36.2 125.9 36.2 C 126.4 36.2 126.8 36.3 127.2 36.5 C 127.2 36.5 127 37.1 127 37.1 C 126.6 36.9 126.3 36.8 125.9 36.8 C 125.5 36.8 125.1 37 124.8 37.3 C 124.6 37.6 124.4 38 124.4 38.5 C 124.4 39 124.6 39.4 124.8 39.6 C 125 39.9 125.4 40.1 125.8 40.1 C 126.1 40.1 126.3 40 126.6 40 C 126.56 39.97 126.6 38.9 126.6 38.9 L 125.7 38.9 L 125.7 38.3 Z M 129.6 36.3 C 129.6 36.3 130.86 36.31 130.9 36.3 C 131.5 36.3 131.9 36.4 132.1 36.6 C 132.4 36.7 132.5 37 132.5 37.4 C 132.5 37.6 132.5 37.8 132.3 38 C 132.2 38.2 132 38.3 131.8 38.3 C 131.8 38.3 131.8 38.3 131.8 38.3 C 132.1 38.4 132.3 38.5 132.5 38.7 C 132.6 38.8 132.7 39.1 132.7 39.4 C 132.7 39.7 132.5 40 132.3 40.3 C 132 40.5 131.6 40.6 131.1 40.6 C 131.14 40.59 129.6 40.6 129.6 40.6 L 129.6 36.3 Z M 130.3 38.1 C 130.3 38.1 130.97 38.08 131 38.1 C 131.3 38.1 131.5 38 131.6 37.9 C 131.7 37.8 131.8 37.7 131.8 37.5 C 131.8 37.3 131.7 37.1 131.6 37 C 131.4 36.9 131.2 36.9 130.9 36.9 C 130.9 36.89 130.3 36.9 130.3 36.9 L 130.3 38.1 Z M 130.3 38.6 L 130.3 40 C 130.3 40 131.04 40 131 40 C 131.3 40 131.6 39.9 131.7 39.8 C 131.8 39.7 131.9 39.5 131.9 39.3 C 131.9 39.1 131.8 38.9 131.7 38.8 C 131.5 38.7 131.3 38.6 131 38.6 C 131 38.65 130.3 38.6 130.3 38.6 Z M 136.1 40.6 L 135.7 39.4 L 134 39.4 L 133.6 40.6 L 132.9 40.6 L 134.5 36.3 L 135.2 36.3 L 136.8 40.6 L 136.1 40.6 Z M 135.5 38.8 C 135.5 38.8 135.08 37.63 135.1 37.6 C 135 37.6 135 37.4 135 37.3 C 134.9 37.1 134.9 37 134.8 36.9 C 134.8 37.1 134.7 37.4 134.6 37.7 C 134.62 37.68 134.2 38.8 134.2 38.8 L 135.5 38.8 Z M 137.3 40.6 L 137.3 36.3 L 138 36.3 L 138 40 L 139.8 40 L 139.8 40.6 L 137.3 40.6 Z M 140.4 40.6 L 140.4 36.3 L 141.1 36.3 L 141.1 40.6 L 140.4 40.6 Z M 143.6 40.6 L 142.9 40.6 L 142.9 36.9 L 141.6 36.9 L 141.6 36.3 L 144.9 36.3 L 144.9 36.9 L 143.6 36.9 L 143.6 40.6 Z M 148.1 40.6 L 147.6 39.4 L 146 39.4 L 145.6 40.6 L 144.8 40.6 L 146.4 36.3 L 147.2 36.3 L 148.8 40.6 L 148.1 40.6 Z M 147.4 38.8 C 147.4 38.8 147.04 37.63 147 37.6 C 147 37.6 147 37.4 146.9 37.3 C 146.9 37.1 146.8 37 146.8 36.9 C 146.8 37.1 146.7 37.4 146.6 37.7 C 146.58 37.68 146.2 38.8 146.2 38.8 L 147.4 38.8 Z " stroke="none" fill="#000"/>
  </g>
  <g id="Polygon17907">
    <path d="M 61.7 22.6 L 61 22.6 L 61 18.9 L 59.7 18.9 L 59.7 18.3 L 62.9 18.3 L 62.9 18.9 L 61.7 18.9 L 61.7 22.6 Z M 66.1 22.6 L 65.7 21.4 L 64 21.4 L 63.6 22.6 L 62.9 22.6 L 64.5 18.3 L 65.2 18.3 L 66.8 22.6 L 66.1 22.6 Z M 65.5 20.8 C 65.5 20.8 65.09 19.63 65.1 19.6 C 65.1 19.6 65 19.4 65 19.3 C 64.9 19.1 64.9 19 64.9 18.9 C 64.8 19.1 64.7 19.4 64.6 19.7 C 64.63 19.68 64.2 20.8 64.2 20.8 L 65.5 20.8 Z M 69 20.3 L 70.6 20.3 C 70.6 20.3 70.62 22.42 70.6 22.4 C 70.4 22.5 70.1 22.6 69.9 22.6 C 69.6 22.6 69.4 22.6 69.1 22.6 C 68.5 22.6 68 22.5 67.6 22.1 C 67.3 21.7 67.1 21.1 67.1 20.4 C 67.1 19.8 67.3 19.2 67.7 18.8 C 68.1 18.4 68.6 18.2 69.3 18.2 C 69.8 18.2 70.2 18.3 70.6 18.5 C 70.6 18.5 70.3 19.1 70.3 19.1 C 70 18.9 69.6 18.8 69.3 18.8 C 68.8 18.8 68.5 19 68.2 19.3 C 67.9 19.6 67.8 20 67.8 20.5 C 67.8 21 67.9 21.4 68.2 21.6 C 68.4 21.9 68.8 22.1 69.2 22.1 C 69.4 22.1 69.7 22 69.9 22 C 69.93 21.97 69.9 20.9 69.9 20.9 L 69 20.9 L 69 20.3 Z M 74.2 22.6 L 73.8 21.4 L 72.1 21.4 L 71.7 22.6 L 71 22.6 L 72.6 18.3 L 73.3 18.3 L 74.9 22.6 L 74.2 22.6 Z M 73.6 20.8 C 73.6 20.8 73.17 19.63 73.2 19.6 C 73.1 19.6 73.1 19.4 73.1 19.3 C 73 19.1 73 19 72.9 18.9 C 72.9 19.1 72.8 19.4 72.7 19.7 C 72.71 19.68 72.3 20.8 72.3 20.8 L 73.6 20.8 Z M 78.2 19.6 C 78.2 20 78.1 20.4 77.8 20.6 C 77.5 20.9 77.1 21 76.5 21 C 76.52 20.99 76.1 21 76.1 21 L 76.1 22.6 L 75.4 22.6 L 75.4 18.3 C 75.4 18.3 76.61 18.31 76.6 18.3 C 77.1 18.3 77.5 18.4 77.8 18.6 C 78.1 18.9 78.2 19.2 78.2 19.6 Z M 76.1 20.4 C 76.1 20.4 76.45 20.4 76.4 20.4 C 76.8 20.4 77.1 20.3 77.2 20.2 C 77.4 20.1 77.5 19.9 77.5 19.6 C 77.5 19.4 77.4 19.2 77.3 19.1 C 77.1 19 76.9 18.9 76.6 18.9 C 76.56 18.89 76.1 18.9 76.1 18.9 L 76.1 20.4 Z M 81.6 22.6 L 81.2 21.4 L 79.5 21.4 L 79.1 22.6 L 78.4 22.6 L 80 18.3 L 80.7 18.3 L 82.3 22.6 L 81.6 22.6 Z M 81 20.8 C 81 20.8 80.59 19.63 80.6 19.6 C 80.6 19.6 80.5 19.4 80.5 19.3 C 80.4 19.1 80.4 19 80.4 18.9 C 80.3 19.1 80.2 19.4 80.1 19.7 C 80.13 19.68 79.7 20.8 79.7 20.8 L 81 20.8 Z M 84.6 22.6 L 83.4 19 C 83.4 19 83.38 19.01 83.4 19 C 83.4 19.5 83.4 20 83.4 20.5 C 83.43 20.51 83.4 22.6 83.4 22.6 L 82.8 22.6 L 82.8 18.3 L 83.8 18.3 L 85 21.7 L 85 21.7 L 86.2 18.3 L 87.2 18.3 L 87.2 22.6 L 86.5 22.6 C 86.5 22.6 86.53 20.47 86.5 20.5 C 86.5 20.3 86.5 20 86.5 19.6 C 86.6 19.3 86.6 19.1 86.6 19 C 86.57 19.02 86.6 19 86.6 19 L 85.3 22.6 L 84.6 22.6 Z M 90.9 22.6 L 90.4 21.4 L 88.8 21.4 L 88.4 22.6 L 87.6 22.6 L 89.2 18.3 L 90 18.3 L 91.6 22.6 L 90.9 22.6 Z M 90.3 20.8 C 90.3 20.8 89.86 19.63 89.9 19.6 C 89.8 19.6 89.8 19.4 89.7 19.3 C 89.7 19.1 89.6 19 89.6 18.9 C 89.6 19.1 89.5 19.4 89.4 19.7 C 89.4 19.68 89 20.8 89 20.8 L 90.3 20.8 Z M 95.4 22.6 L 94.7 22.6 L 94.7 20.7 L 92.8 20.7 L 92.8 22.6 L 92.1 22.6 L 92.1 18.3 L 92.8 18.3 L 92.8 20.1 L 94.7 20.1 L 94.7 18.3 L 95.4 18.3 L 95.4 22.6 Z M 99.1 22.6 L 98.7 21.4 L 97 21.4 L 96.6 22.6 L 95.9 22.6 L 97.5 18.3 L 98.2 18.3 L 99.8 22.6 L 99.1 22.6 Z M 98.5 20.8 C 98.5 20.8 98.09 19.63 98.1 19.6 C 98.1 19.6 98 19.4 98 19.3 C 97.9 19.1 97.9 19 97.9 18.9 C 97.8 19.1 97.7 19.4 97.6 19.7 C 97.63 19.68 97.2 20.8 97.2 20.8 L 98.5 20.8 Z M 100.3 22.6 L 100.3 18.3 L 101 18.3 L 101 22 L 102.8 22 L 102.8 22.6 L 100.3 22.6 Z M 106.1 22.6 L 105.7 21.4 L 104 21.4 L 103.6 22.6 L 102.9 22.6 L 104.5 18.3 L 105.2 18.3 L 106.8 22.6 L 106.1 22.6 Z M 105.5 20.8 C 105.5 20.8 105.07 19.63 105.1 19.6 C 105 19.6 105 19.4 104.9 19.3 C 104.9 19.1 104.9 19 104.8 18.9 C 104.8 19.1 104.7 19.4 104.6 19.7 C 104.61 19.68 104.2 20.8 104.2 20.8 L 105.5 20.8 Z M 110.8 22.6 L 110 22.6 L 107.9 19.2 L 107.9 19.2 C 107.9 19.2 107.87 19.37 107.9 19.4 C 107.9 19.7 107.9 20.1 107.9 20.4 C 107.91 20.36 107.9 22.6 107.9 22.6 L 107.3 22.6 L 107.3 18.3 L 108.1 18.3 L 110.2 21.7 C 110.2 21.7 110.24 21.7 110.2 21.7 C 110.2 21.7 110.2 21.5 110.2 21.2 C 110.2 20.9 110.2 20.7 110.2 20.6 C 110.2 20.55 110.2 18.3 110.2 18.3 L 110.8 18.3 L 110.8 22.6 Z M 113.6 20.3 L 115.2 20.3 C 115.2 20.3 115.18 22.42 115.2 22.4 C 114.9 22.5 114.7 22.6 114.4 22.6 C 114.2 22.6 113.9 22.6 113.7 22.6 C 113 22.6 112.5 22.5 112.2 22.1 C 111.8 21.7 111.6 21.1 111.6 20.4 C 111.6 19.8 111.8 19.2 112.2 18.8 C 112.6 18.4 113.2 18.2 113.9 18.2 C 114.3 18.2 114.7 18.3 115.1 18.5 C 115.1 18.5 114.9 19.1 114.9 19.1 C 114.5 18.9 114.2 18.8 113.9 18.8 C 113.4 18.8 113 19 112.8 19.3 C 112.5 19.6 112.4 20 112.4 20.5 C 112.4 21 112.5 21.4 112.7 21.6 C 113 21.9 113.3 22.1 113.8 22.1 C 114 22.1 114.2 22 114.5 22 C 114.49 21.97 114.5 20.9 114.5 20.9 L 113.6 20.9 L 113.6 20.3 Z M 120.4 19.6 C 120.4 20 120.2 20.4 119.9 20.6 C 119.6 20.9 119.2 21 118.7 21 C 118.67 20.99 118.2 21 118.2 21 L 118.2 22.6 L 117.5 22.6 L 117.5 18.3 C 117.5 18.3 118.76 18.31 118.8 18.3 C 119.3 18.3 119.7 18.4 120 18.6 C 120.2 18.9 120.4 19.2 120.4 19.6 Z M 118.2 20.4 C 118.2 20.4 118.6 20.4 118.6 20.4 C 119 20.4 119.2 20.3 119.4 20.2 C 119.6 20.1 119.6 19.9 119.6 19.6 C 119.6 19.4 119.6 19.2 119.4 19.1 C 119.3 19 119 18.9 118.7 18.9 C 118.71 18.89 118.2 18.9 118.2 18.9 L 118.2 20.4 Z M 123.8 22.6 L 123.3 21.4 L 121.7 21.4 L 121.3 22.6 L 120.5 22.6 L 122.1 18.3 L 122.9 18.3 L 124.5 22.6 L 123.8 22.6 Z M 123.1 20.8 C 123.1 20.8 122.74 19.63 122.7 19.6 C 122.7 19.6 122.7 19.4 122.6 19.3 C 122.6 19.1 122.5 19 122.5 18.9 C 122.5 19.1 122.4 19.4 122.3 19.7 C 122.28 19.68 121.9 20.8 121.9 20.8 L 123.1 20.8 Z M 126.4 22.6 L 125.7 22.6 L 125.7 18.9 L 124.5 18.9 L 124.5 18.3 L 127.7 18.3 L 127.7 18.9 L 126.4 18.9 L 126.4 22.6 Z M 131.8 22.6 L 130.9 22.6 L 128.8 19.2 L 128.8 19.2 C 128.8 19.2 128.81 19.37 128.8 19.4 C 128.8 19.7 128.9 20.1 128.9 20.4 C 128.85 20.36 128.9 22.6 128.9 22.6 L 128.2 22.6 L 128.2 18.3 L 129.1 18.3 L 131.2 21.7 C 131.2 21.7 131.19 21.7 131.2 21.7 C 131.2 21.7 131.2 21.5 131.2 21.2 C 131.2 20.9 131.1 20.7 131.1 20.6 C 131.15 20.55 131.1 18.3 131.1 18.3 L 131.8 18.3 L 131.8 22.6 Z M 136.2 18.3 C 136.2 18.3 136.16 21.08 136.2 21.1 C 136.2 21.4 136.1 21.7 136 21.9 C 135.8 22.1 135.6 22.3 135.4 22.5 C 135.1 22.6 134.8 22.6 134.4 22.6 C 133.9 22.6 133.5 22.5 133.2 22.2 C 132.9 21.9 132.8 21.6 132.8 21.1 C 132.76 21.07 132.8 18.3 132.8 18.3 L 133.5 18.3 C 133.5 18.3 133.46 21.02 133.5 21 C 133.5 21.4 133.5 21.6 133.7 21.8 C 133.9 22 134.1 22.1 134.5 22.1 C 135.1 22.1 135.5 21.7 135.5 21 C 135.45 21.01 135.5 18.3 135.5 18.3 L 136.2 18.3 Z M 138.9 20.3 L 140.5 20.3 C 140.5 20.3 140.46 22.42 140.5 22.4 C 140.2 22.5 140 22.6 139.7 22.6 C 139.5 22.6 139.2 22.6 138.9 22.6 C 138.3 22.6 137.8 22.5 137.4 22.1 C 137.1 21.7 136.9 21.1 136.9 20.4 C 136.9 19.8 137.1 19.2 137.5 18.8 C 137.9 18.4 138.5 18.2 139.2 18.2 C 139.6 18.2 140 18.3 140.4 18.5 C 140.4 18.5 140.2 19.1 140.2 19.1 C 139.8 18.9 139.5 18.8 139.1 18.8 C 138.7 18.8 138.3 19 138.1 19.3 C 137.8 19.6 137.7 20 137.7 20.5 C 137.7 21 137.8 21.4 138 21.6 C 138.3 21.9 138.6 22.1 139 22.1 C 139.3 22.1 139.5 22 139.8 22 C 139.77 21.97 139.8 20.9 139.8 20.9 L 138.9 20.9 L 138.9 20.3 Z M 145.2 20.4 C 145.2 21.1 145 21.7 144.6 22.1 C 144.3 22.5 143.8 22.6 143.2 22.6 C 142.5 22.6 142 22.5 141.7 22.1 C 141.3 21.7 141.2 21.1 141.2 20.4 C 141.2 19.7 141.3 19.2 141.7 18.8 C 142 18.4 142.5 18.2 143.2 18.2 C 143.8 18.2 144.3 18.4 144.6 18.8 C 145 19.2 145.2 19.7 145.2 20.4 Z M 141.9 20.4 C 141.9 21 142 21.4 142.2 21.6 C 142.4 21.9 142.7 22.1 143.2 22.1 C 143.6 22.1 143.9 21.9 144.1 21.6 C 144.3 21.4 144.4 21 144.4 20.4 C 144.4 19.9 144.3 19.5 144.1 19.2 C 143.9 19 143.6 18.8 143.2 18.8 C 142.8 18.8 142.4 19 142.2 19.2 C 142 19.5 141.9 19.9 141.9 20.4 Z M 147.4 22.6 L 146.7 22.6 L 146.7 18.9 L 145.5 18.9 L 145.5 18.3 L 148.7 18.3 L 148.7 18.9 L 147.4 18.9 L 147.4 22.6 Z " stroke="none" fill="#000"/>
  </g>
  <g id="Polygon17906">
    <path d="M 73.6 10.6 C 73.6 11 73.5 11.4 73.2 11.6 C 72.9 11.9 72.5 12 72 12 C 71.96 11.99 71.5 12 71.5 12 L 71.5 13.6 L 70.8 13.6 L 70.8 9.3 C 70.8 9.3 72.04 9.31 72 9.3 C 72.6 9.3 73 9.4 73.2 9.6 C 73.5 9.9 73.6 10.2 73.6 10.6 Z M 71.5 11.4 C 71.5 11.4 71.88 11.4 71.9 11.4 C 72.2 11.4 72.5 11.3 72.7 11.2 C 72.8 11.1 72.9 10.9 72.9 10.6 C 72.9 10.4 72.8 10.2 72.7 10.1 C 72.5 10 72.3 9.9 72 9.9 C 72 9.89 71.5 9.9 71.5 9.9 L 71.5 11.4 Z M 77 13.6 L 76.6 12.4 L 75 12.4 L 74.6 13.6 L 73.8 13.6 L 75.4 9.3 L 76.2 9.3 L 77.8 13.6 L 77 13.6 Z M 76.4 11.8 C 76.4 11.8 76.02 10.63 76 10.6 C 76 10.6 76 10.4 75.9 10.3 C 75.9 10.1 75.8 10 75.8 9.9 C 75.7 10.1 75.7 10.4 75.6 10.7 C 75.56 10.68 75.2 11.8 75.2 11.8 L 76.4 11.8 Z M 81.8 13.6 L 80.9 13.6 L 78.8 10.2 L 78.8 10.2 C 78.8 10.2 78.82 10.37 78.8 10.4 C 78.8 10.7 78.9 11.1 78.9 11.4 C 78.86 11.36 78.9 13.6 78.9 13.6 L 78.2 13.6 L 78.2 9.3 L 79.1 9.3 L 81.2 12.7 C 81.2 12.7 81.2 12.7 81.2 12.7 C 81.2 12.7 81.2 12.5 81.2 12.2 C 81.2 11.9 81.2 11.7 81.2 11.6 C 81.15 11.55 81.2 9.3 81.2 9.3 L 81.8 9.3 L 81.8 13.6 Z M 84.6 11.3 L 86.1 11.3 C 86.1 11.3 86.14 13.42 86.1 13.4 C 85.9 13.5 85.6 13.6 85.4 13.6 C 85.2 13.6 84.9 13.6 84.6 13.6 C 84 13.6 83.5 13.5 83.1 13.1 C 82.8 12.7 82.6 12.1 82.6 11.4 C 82.6 10.8 82.8 10.2 83.2 9.8 C 83.6 9.4 84.1 9.2 84.8 9.2 C 85.3 9.2 85.7 9.3 86.1 9.5 C 86.1 9.5 85.9 10.1 85.9 10.1 C 85.5 9.9 85.2 9.8 84.8 9.8 C 84.4 9.8 84 10 83.7 10.3 C 83.5 10.6 83.3 11 83.3 11.5 C 83.3 12 83.4 12.4 83.7 12.6 C 83.9 12.9 84.3 13.1 84.7 13.1 C 84.9 13.1 85.2 13 85.4 13 C 85.45 12.97 85.4 11.9 85.4 11.9 L 84.6 11.9 L 84.6 11.3 Z M 89.7 13.6 L 89.3 12.4 L 87.6 12.4 L 87.2 13.6 L 86.5 13.6 L 88.1 9.3 L 88.8 9.3 L 90.4 13.6 L 89.7 13.6 Z M 89.1 11.8 C 89.1 11.8 88.69 10.63 88.7 10.6 C 88.7 10.6 88.6 10.4 88.6 10.3 C 88.5 10.1 88.5 10 88.5 9.9 C 88.4 10.1 88.3 10.4 88.2 10.7 C 88.23 10.68 87.8 11.8 87.8 11.8 L 89.1 11.8 Z M 90.9 13.6 L 90.9 9.3 L 91.6 9.3 L 91.6 13 L 93.4 13 L 93.4 13.6 L 90.9 13.6 Z M 96.7 13.6 L 96.3 12.4 L 94.6 12.4 L 94.2 13.6 L 93.5 13.6 L 95.1 9.3 L 95.8 9.3 L 97.4 13.6 L 96.7 13.6 Z M 96.1 11.8 C 96.1 11.8 95.67 10.63 95.7 10.6 C 95.6 10.6 95.6 10.4 95.5 10.3 C 95.5 10.1 95.5 10 95.4 9.9 C 95.4 10.1 95.3 10.4 95.2 10.7 C 95.21 10.68 94.8 11.8 94.8 11.8 L 96.1 11.8 Z M 101.8 13.6 L 101.1 13.6 C 101.1 13.6 100.33 11.04 100.3 11 C 100.3 10.9 100.3 10.8 100.2 10.6 C 100.2 10.3 100.1 10.2 100.1 10.1 C 100.1 10.2 100.1 10.4 100 10.6 C 100 10.8 100 11 99.9 11 C 99.93 11.05 99.2 13.6 99.2 13.6 L 98.5 13.6 L 97.9 11.4 L 97.3 9.3 L 98.1 9.3 C 98.1 9.3 98.67 11.8 98.7 11.8 C 98.8 12.2 98.8 12.6 98.9 12.9 C 98.9 12.7 98.9 12.5 99 12.3 C 99 12.1 99 11.9 99.1 11.8 C 99.08 11.81 99.8 9.3 99.8 9.3 L 100.5 9.3 C 100.5 9.3 101.19 11.82 101.2 11.8 C 101.3 12.1 101.3 12.4 101.4 12.9 C 101.4 12.6 101.5 12.2 101.6 11.8 C 101.62 11.8 102.2 9.3 102.2 9.3 L 102.9 9.3 L 101.8 13.6 Z M 106.1 13.6 L 105.7 12.4 L 104 12.4 L 103.6 13.6 L 102.9 13.6 L 104.5 9.3 L 105.2 9.3 L 106.8 13.6 L 106.1 13.6 Z M 105.5 11.8 C 105.5 11.8 105.07 10.63 105.1 10.6 C 105 10.6 105 10.4 104.9 10.3 C 104.9 10.1 104.9 10 104.8 9.9 C 104.8 10.1 104.7 10.4 104.6 10.7 C 104.61 10.68 104.2 11.8 104.2 11.8 L 105.5 11.8 Z M 110.8 13.6 L 110 13.6 L 107.9 10.2 L 107.9 10.2 C 107.9 10.2 107.87 10.37 107.9 10.4 C 107.9 10.7 107.9 11.1 107.9 11.4 C 107.91 11.36 107.9 13.6 107.9 13.6 L 107.3 13.6 L 107.3 9.3 L 108.1 9.3 L 110.2 12.7 C 110.2 12.7 110.24 12.7 110.2 12.7 C 110.2 12.7 110.2 12.5 110.2 12.2 C 110.2 11.9 110.2 11.7 110.2 11.6 C 110.2 11.55 110.2 9.3 110.2 9.3 L 110.8 9.3 L 110.8 13.6 Z M 113.6 11.3 L 115.2 11.3 C 115.2 11.3 115.18 13.42 115.2 13.4 C 114.9 13.5 114.7 13.6 114.4 13.6 C 114.2 13.6 113.9 13.6 113.7 13.6 C 113 13.6 112.5 13.5 112.2 13.1 C 111.8 12.7 111.6 12.1 111.6 11.4 C 111.6 10.8 111.8 10.2 112.2 9.8 C 112.6 9.4 113.2 9.2 113.9 9.2 C 114.3 9.2 114.7 9.3 115.1 9.5 C 115.1 9.5 114.9 10.1 114.9 10.1 C 114.5 9.9 114.2 9.8 113.9 9.8 C 113.4 9.8 113 10 112.8 10.3 C 112.5 10.6 112.4 11 112.4 11.5 C 112.4 12 112.5 12.4 112.7 12.6 C 113 12.9 113.3 13.1 113.8 13.1 C 114 13.1 114.2 13 114.5 13 C 114.49 12.97 114.5 11.9 114.5 11.9 L 113.6 11.9 L 113.6 11.3 Z M 120.4 10.6 C 120.4 11 120.2 11.4 119.9 11.6 C 119.6 11.9 119.2 12 118.7 12 C 118.67 11.99 118.2 12 118.2 12 L 118.2 13.6 L 117.5 13.6 L 117.5 9.3 C 117.5 9.3 118.76 9.31 118.8 9.3 C 119.3 9.3 119.7 9.4 120 9.6 C 120.2 9.9 120.4 10.2 120.4 10.6 Z M 118.2 11.4 C 118.2 11.4 118.6 11.4 118.6 11.4 C 119 11.4 119.2 11.3 119.4 11.2 C 119.6 11.1 119.6 10.9 119.6 10.6 C 119.6 10.4 119.6 10.2 119.4 10.1 C 119.3 10 119 9.9 118.7 9.9 C 118.71 9.89 118.2 9.9 118.2 9.9 L 118.2 11.4 Z M 123.8 13.6 L 123.3 12.4 L 121.7 12.4 L 121.3 13.6 L 120.5 13.6 L 122.1 9.3 L 122.9 9.3 L 124.5 13.6 L 123.8 13.6 Z M 123.1 11.8 C 123.1 11.8 122.74 10.63 122.7 10.6 C 122.7 10.6 122.7 10.4 122.6 10.3 C 122.6 10.1 122.5 10 122.5 9.9 C 122.5 10.1 122.4 10.4 122.3 10.7 C 122.28 10.68 121.9 11.8 121.9 11.8 L 123.1 11.8 Z M 126.4 13.6 L 125.7 13.6 L 125.7 9.9 L 124.5 9.9 L 124.5 9.3 L 127.7 9.3 L 127.7 9.9 L 126.4 9.9 L 126.4 13.6 Z M 131.8 13.6 L 130.9 13.6 L 128.8 10.2 L 128.8 10.2 C 128.8 10.2 128.81 10.37 128.8 10.4 C 128.8 10.7 128.9 11.1 128.9 11.4 C 128.85 11.36 128.9 13.6 128.9 13.6 L 128.2 13.6 L 128.2 9.3 L 129.1 9.3 L 131.2 12.7 C 131.2 12.7 131.19 12.7 131.2 12.7 C 131.2 12.7 131.2 12.5 131.2 12.2 C 131.2 11.9 131.1 11.7 131.1 11.6 C 131.15 11.55 131.1 9.3 131.1 9.3 L 131.8 9.3 L 131.8 13.6 Z M 136.2 9.3 C 136.2 9.3 136.16 12.08 136.2 12.1 C 136.2 12.4 136.1 12.7 136 12.9 C 135.8 13.1 135.6 13.3 135.4 13.5 C 135.1 13.6 134.8 13.6 134.4 13.6 C 133.9 13.6 133.5 13.5 133.2 13.2 C 132.9 12.9 132.8 12.6 132.8 12.1 C 132.76 12.07 132.8 9.3 132.8 9.3 L 133.5 9.3 C 133.5 9.3 133.46 12.02 133.5 12 C 133.5 12.4 133.5 12.6 133.7 12.8 C 133.9 13 134.1 13.1 134.5 13.1 C 135.1 13.1 135.5 12.7 135.5 12 C 135.45 12.01 135.5 9.3 135.5 9.3 L 136.2 9.3 Z M 138.9 11.3 L 140.5 11.3 C 140.5 11.3 140.46 13.42 140.5 13.4 C 140.2 13.5 140 13.6 139.7 13.6 C 139.5 13.6 139.2 13.6 138.9 13.6 C 138.3 13.6 137.8 13.5 137.4 13.1 C 137.1 12.7 136.9 12.1 136.9 11.4 C 136.9 10.8 137.1 10.2 137.5 9.8 C 137.9 9.4 138.5 9.2 139.2 9.2 C 139.6 9.2 140 9.3 140.4 9.5 C 140.4 9.5 140.2 10.1 140.2 10.1 C 139.8 9.9 139.5 9.8 139.1 9.8 C 138.7 9.8 138.3 10 138.1 10.3 C 137.8 10.6 137.7 11 137.7 11.5 C 137.7 12 137.8 12.4 138 12.6 C 138.3 12.9 138.6 13.1 139 13.1 C 139.3 13.1 139.5 13 139.8 13 C 139.77 12.97 139.8 11.9 139.8 11.9 L 138.9 11.9 L 138.9 11.3 Z M 145.2 11.4 C 145.2 12.1 145 12.7 144.6 13.1 C 144.3 13.5 143.8 13.6 143.2 13.6 C 142.5 13.6 142 13.5 141.7 13.1 C 141.3 12.7 141.2 12.1 141.2 11.4 C 141.2 10.7 141.3 10.2 141.7 9.8 C 142 9.4 142.5 9.2 143.2 9.2 C 143.8 9.2 144.3 9.4 144.6 9.8 C 145 10.2 145.2 10.7 145.2 11.4 Z M 141.9 11.4 C 141.9 12 142 12.4 142.2 12.6 C 142.4 12.9 142.7 13.1 143.2 13.1 C 143.6 13.1 143.9 12.9 144.1 12.6 C 144.3 12.4 144.4 12 144.4 11.4 C 144.4 10.9 144.3 10.5 144.1 10.2 C 143.9 10 143.6 9.8 143.2 9.8 C 142.8 9.8 142.4 10 142.2 10.2 C 142 10.5 141.9 10.9 141.9 11.4 Z M 147.4 13.6 L 146.7 13.6 L 146.7 9.9 L 145.5 9.9 L 145.5 9.3 L 148.7 9.3 L 148.7 9.9 L 147.4 9.9 L 147.4 13.6 Z " stroke="none" fill="#000"/>
  </g>
  <g id="Polygon17905">
    <path d="M 93 1.6 C 93 2 92.9 2.4 92.6 2.6 C 92.3 2.9 91.9 3 91.3 3 C 91.33 2.99 90.9 3 90.9 3 L 90.9 4.6 L 90.2 4.6 L 90.2 0.3 C 90.2 0.3 91.42 0.31 91.4 0.3 C 92 0.3 92.4 0.4 92.6 0.6 C 92.9 0.9 93 1.2 93 1.6 Z M 90.9 2.4 C 90.9 2.4 91.26 2.4 91.3 2.4 C 91.6 2.4 91.9 2.3 92 2.2 C 92.2 2.1 92.3 1.9 92.3 1.6 C 92.3 1.4 92.2 1.2 92.1 1.1 C 91.9 1 91.7 0.9 91.4 0.9 C 91.37 0.89 90.9 0.9 90.9 0.9 L 90.9 2.4 Z M 97.1 0.3 C 97.1 0.3 97.11 3.08 97.1 3.1 C 97.1 3.4 97 3.7 96.9 3.9 C 96.8 4.1 96.6 4.3 96.3 4.5 C 96.1 4.6 95.8 4.6 95.4 4.6 C 94.9 4.6 94.5 4.5 94.2 4.2 C 93.9 3.9 93.7 3.6 93.7 3.1 C 93.72 3.07 93.7 0.3 93.7 0.3 L 94.4 0.3 C 94.4 0.3 94.42 3.02 94.4 3 C 94.4 3.4 94.5 3.6 94.7 3.8 C 94.8 4 95.1 4.1 95.4 4.1 C 96.1 4.1 96.4 3.7 96.4 3 C 96.41 3.01 96.4 0.3 96.4 0.3 L 97.1 0.3 Z M 101.7 4.6 L 100.8 4.6 L 98.7 1.2 L 98.7 1.2 C 98.7 1.2 98.68 1.37 98.7 1.4 C 98.7 1.7 98.7 2.1 98.7 2.4 C 98.72 2.36 98.7 4.6 98.7 4.6 L 98.1 4.6 L 98.1 0.3 L 98.9 0.3 L 101 3.7 C 101 3.7 101.06 3.7 101.1 3.7 C 101.1 3.7 101 3.5 101 3.2 C 101 2.9 101 2.7 101 2.6 C 101.02 2.55 101 0.3 101 0.3 L 101.7 0.3 L 101.7 4.6 Z M 106.5 2.4 C 106.5 3.1 106.3 3.7 105.9 4.1 C 105.6 4.5 105.1 4.6 104.5 4.6 C 103.8 4.6 103.3 4.5 103 4.1 C 102.6 3.7 102.5 3.1 102.5 2.4 C 102.5 1.7 102.6 1.2 103 0.8 C 103.3 0.4 103.8 0.2 104.5 0.2 C 105.1 0.2 105.6 0.4 105.9 0.8 C 106.3 1.2 106.5 1.7 106.5 2.4 Z M 103.2 2.4 C 103.2 3 103.3 3.4 103.5 3.6 C 103.7 3.9 104 4.1 104.5 4.1 C 104.9 4.1 105.2 3.9 105.4 3.6 C 105.6 3.4 105.7 3 105.7 2.4 C 105.7 1.9 105.6 1.5 105.4 1.2 C 105.2 1 104.9 0.8 104.5 0.8 C 104.1 0.8 103.7 1 103.5 1.2 C 103.3 1.5 103.2 1.9 103.2 2.4 Z M 110.8 4.6 L 110 4.6 L 107.9 1.2 L 107.9 1.2 C 107.9 1.2 107.87 1.37 107.9 1.4 C 107.9 1.7 107.9 2.1 107.9 2.4 C 107.91 2.36 107.9 4.6 107.9 4.6 L 107.3 4.6 L 107.3 0.3 L 108.1 0.3 L 110.2 3.7 C 110.2 3.7 110.24 3.7 110.2 3.7 C 110.2 3.7 110.2 3.5 110.2 3.2 C 110.2 2.9 110.2 2.7 110.2 2.6 C 110.2 2.55 110.2 0.3 110.2 0.3 L 110.8 0.3 L 110.8 4.6 Z M 113.6 2.3 L 115.2 2.3 C 115.2 2.3 115.18 4.42 115.2 4.4 C 114.9 4.5 114.7 4.6 114.4 4.6 C 114.2 4.6 113.9 4.6 113.7 4.6 C 113 4.6 112.5 4.5 112.2 4.1 C 111.8 3.7 111.6 3.1 111.6 2.4 C 111.6 1.8 111.8 1.2 112.2 0.8 C 112.6 0.4 113.2 0.2 113.9 0.2 C 114.3 0.2 114.7 0.3 115.1 0.5 C 115.1 0.5 114.9 1.1 114.9 1.1 C 114.5 0.9 114.2 0.8 113.9 0.8 C 113.4 0.8 113 1 112.8 1.3 C 112.5 1.6 112.4 2 112.4 2.5 C 112.4 3 112.5 3.4 112.7 3.6 C 113 3.9 113.3 4.1 113.8 4.1 C 114 4.1 114.2 4 114.5 4 C 114.49 3.97 114.5 2.9 114.5 2.9 L 113.6 2.9 L 113.6 2.3 Z M 120.4 1.6 C 120.4 2 120.2 2.4 119.9 2.6 C 119.6 2.9 119.2 3 118.7 3 C 118.67 2.99 118.2 3 118.2 3 L 118.2 4.6 L 117.5 4.6 L 117.5 0.3 C 117.5 0.3 118.76 0.31 118.8 0.3 C 119.3 0.3 119.7 0.4 120 0.6 C 120.2 0.9 120.4 1.2 120.4 1.6 Z M 118.2 2.4 C 118.2 2.4 118.6 2.4 118.6 2.4 C 119 2.4 119.2 2.3 119.4 2.2 C 119.6 2.1 119.6 1.9 119.6 1.6 C 119.6 1.4 119.6 1.2 119.4 1.1 C 119.3 1 119 0.9 118.7 0.9 C 118.71 0.89 118.2 0.9 118.2 0.9 L 118.2 2.4 Z M 123.8 4.6 L 123.3 3.4 L 121.7 3.4 L 121.3 4.6 L 120.5 4.6 L 122.1 0.3 L 122.9 0.3 L 124.5 4.6 L 123.8 4.6 Z M 123.1 2.8 C 123.1 2.8 122.74 1.63 122.7 1.6 C 122.7 1.6 122.7 1.4 122.6 1.3 C 122.6 1.1 122.5 1 122.5 0.9 C 122.5 1.1 122.4 1.4 122.3 1.7 C 122.28 1.68 121.9 2.8 121.9 2.8 L 123.1 2.8 Z M 126.4 4.6 L 125.7 4.6 L 125.7 0.9 L 124.5 0.9 L 124.5 0.3 L 127.7 0.3 L 127.7 0.9 L 126.4 0.9 L 126.4 4.6 Z M 131.8 4.6 L 130.9 4.6 L 128.8 1.2 L 128.8 1.2 C 128.8 1.2 128.81 1.37 128.8 1.4 C 128.8 1.7 128.9 2.1 128.9 2.4 C 128.85 2.36 128.9 4.6 128.9 4.6 L 128.2 4.6 L 128.2 0.3 L 129.1 0.3 L 131.2 3.7 C 131.2 3.7 131.19 3.7 131.2 3.7 C 131.2 3.7 131.2 3.5 131.2 3.2 C 131.2 2.9 131.1 2.7 131.1 2.6 C 131.15 2.55 131.1 0.3 131.1 0.3 L 131.8 0.3 L 131.8 4.6 Z M 136.2 0.3 C 136.2 0.3 136.16 3.08 136.2 3.1 C 136.2 3.4 136.1 3.7 136 3.9 C 135.8 4.1 135.6 4.3 135.4 4.5 C 135.1 4.6 134.8 4.6 134.4 4.6 C 133.9 4.6 133.5 4.5 133.2 4.2 C 132.9 3.9 132.8 3.6 132.8 3.1 C 132.76 3.07 132.8 0.3 132.8 0.3 L 133.5 0.3 C 133.5 0.3 133.46 3.02 133.5 3 C 133.5 3.4 133.5 3.6 133.7 3.8 C 133.9 4 134.1 4.1 134.5 4.1 C 135.1 4.1 135.5 3.7 135.5 3 C 135.45 3.01 135.5 0.3 135.5 0.3 L 136.2 0.3 Z M 138.9 2.3 L 140.5 2.3 C 140.5 2.3 140.46 4.42 140.5 4.4 C 140.2 4.5 140 4.6 139.7 4.6 C 139.5 4.6 139.2 4.6 138.9 4.6 C 138.3 4.6 137.8 4.5 137.4 4.1 C 137.1 3.7 136.9 3.1 136.9 2.4 C 136.9 1.8 137.1 1.2 137.5 0.8 C 137.9 0.4 138.5 0.2 139.2 0.2 C 139.6 0.2 140 0.3 140.4 0.5 C 140.4 0.5 140.2 1.1 140.2 1.1 C 139.8 0.9 139.5 0.8 139.1 0.8 C 138.7 0.8 138.3 1 138.1 1.3 C 137.8 1.6 137.7 2 137.7 2.5 C 137.7 3 137.8 3.4 138 3.6 C 138.3 3.9 138.6 4.1 139 4.1 C 139.3 4.1 139.5 4 139.8 4 C 139.77 3.97 139.8 2.9 139.8 2.9 L 138.9 2.9 L 138.9 2.3 Z M 145.2 2.4 C 145.2 3.1 145 3.7 144.6 4.1 C 144.3 4.5 143.8 4.6 143.2 4.6 C 142.5 4.6 142 4.5 141.7 4.1 C 141.3 3.7 141.2 3.1 141.2 2.4 C 141.2 1.7 141.3 1.2 141.7 0.8 C 142 0.4 142.5 0.2 143.2 0.2 C 143.8 0.2 144.3 0.4 144.6 0.8 C 145 1.2 145.2 1.7 145.2 2.4 Z M 141.9 2.4 C 141.9 3 142 3.4 142.2 3.6 C 142.4 3.9 142.7 4.1 143.2 4.1 C 143.6 4.1 143.9 3.9 144.1 3.6 C 144.3 3.4 144.4 3 144.4 2.4 C 144.4 1.9 144.3 1.5 144.1 1.2 C 143.9 1 143.6 0.8 143.2 0.8 C 142.8 0.8 142.4 1 142.2 1.2 C 142 1.5 141.9 1.9 141.9 2.4 Z M 147.4 4.6 L 146.7 4.6 L 146.7 0.9 L 145.5 0.9 L 145.5 0.3 L 148.7 0.3 L 148.7 0.9 L 147.4 0.9 L 147.4 4.6 Z " stroke="none" fill="#000"/>
  </g>
</svg>