<?xml version="1.0" standalone="no"?>
<!DOCTYPE svg PUBLIC "-//W3C//DTD SVG 1.1//EN" "http://www.w3.org/Graphics/SVG/1.1/DTD/svg11.dtd">
<svg xmlns="http://www.w3.org/2000/svg" version="1.1" width="312px" height="13.7px" viewBox="0 -3 312 13.7" style="top:-3px">
  <desc>Patnugot ng ISPORTS: CHRISTIAN PHILIP MATEO Layout artist: ADRIAN DONATO</desc>
  <defs/>
  <g id="Polygon38471">
    <path d="M 1.7 2.7 C 1.7 2.7 2.04 2.71 2 2.7 C 2.4 2.7 2.6 2.6 2.8 2.5 C 2.9 2.4 3 2.2 3 2 C 3 1.7 2.9 1.5 2.8 1.4 C 2.7 1.3 2.5 1.2 2.2 1.2 C 2.17 1.23 1.7 1.2 1.7 1.2 L 1.7 2.7 Z M 4.1 1.9 C 4.1 2.5 3.9 2.9 3.6 3.2 C 3.2 3.4 2.8 3.6 2.1 3.6 C 2.14 3.58 1.7 3.6 1.7 3.6 L 1.7 5.4 L 0.6 5.4 L 0.6 0.4 C 0.6 0.4 2.23 0.36 2.2 0.4 C 2.8 0.4 3.3 0.5 3.6 0.8 C 3.9 1 4.1 1.4 4.1 1.9 Z M 7.9 5.4 L 7.6 4.2 L 5.8 4.2 L 5.4 5.4 L 4.3 5.4 L 6 0.3 L 7.3 0.3 L 9.1 5.4 L 7.9 5.4 Z M 7.3 3.3 C 7 2.2 6.8 1.6 6.8 1.4 C 6.7 1.3 6.7 1.2 6.7 1.1 C 6.6 1.4 6.4 2.1 6 3.3 C 6 3.3 7.3 3.3 7.3 3.3 Z M 11.5 5.4 L 10.4 5.4 L 10.4 1.2 L 9.1 1.2 L 9.1 0.4 L 12.9 0.4 L 12.9 1.2 L 11.5 1.2 L 11.5 5.4 Z M 17.9 5.4 L 16.6 5.4 L 14.4 1.6 C 14.4 1.6 14.37 1.58 14.4 1.6 C 14.4 2.2 14.4 2.7 14.4 3 C 14.43 3 14.4 5.4 14.4 5.4 L 13.5 5.4 L 13.5 0.4 L 14.8 0.4 L 17 4.1 C 17 4.1 17.02 4.1 17 4.1 C 17 3.5 17 3 17 2.7 C 16.97 2.72 17 0.4 17 0.4 L 17.9 0.4 L 17.9 5.4 Z M 23.1 0.4 C 23.1 0.4 23.11 3.59 23.1 3.6 C 23.1 4 23 4.3 22.9 4.6 C 22.7 4.8 22.5 5.1 22.1 5.2 C 21.8 5.4 21.5 5.4 21 5.4 C 20.4 5.4 19.9 5.3 19.5 4.9 C 19.2 4.6 19 4.2 19 3.6 C 19 3.58 19 0.4 19 0.4 L 20.1 0.4 C 20.1 0.4 20.06 3.42 20.1 3.4 C 20.1 3.8 20.1 4.1 20.3 4.3 C 20.4 4.4 20.7 4.5 21.1 4.5 C 21.4 4.5 21.7 4.4 21.8 4.3 C 22 4.1 22 3.8 22 3.4 C 22.05 3.41 22 0.4 22 0.4 L 23.1 0.4 Z M 26.1 2.5 L 28.1 2.5 C 28.1 2.5 28.07 5.14 28.1 5.1 C 27.7 5.2 27.4 5.3 27.2 5.4 C 26.9 5.4 26.6 5.4 26.3 5.4 C 25.5 5.4 25 5.2 24.6 4.8 C 24.2 4.3 24 3.7 24 2.9 C 24 2 24.2 1.4 24.7 1 C 25.1 0.5 25.8 0.3 26.6 0.3 C 27.1 0.3 27.6 0.4 28.1 0.6 C 28.1 0.6 27.7 1.4 27.7 1.4 C 27.3 1.3 27 1.2 26.6 1.2 C 26.1 1.2 25.7 1.3 25.5 1.6 C 25.2 1.9 25.1 2.4 25.1 2.9 C 25.1 3.4 25.2 3.8 25.4 4.1 C 25.6 4.4 25.9 4.5 26.4 4.5 C 26.6 4.5 26.8 4.5 27 4.5 C 27.03 4.47 27 3.4 27 3.4 L 26.1 3.4 L 26.1 2.5 Z M 33.7 2.9 C 33.7 3.7 33.4 4.3 33 4.8 C 32.6 5.2 32 5.4 31.3 5.4 C 30.5 5.4 29.9 5.2 29.5 4.8 C 29.1 4.3 28.9 3.7 28.9 2.8 C 28.9 2 29.1 1.4 29.5 0.9 C 29.9 0.5 30.5 0.3 31.3 0.3 C 32 0.3 32.6 0.5 33 0.9 C 33.5 1.4 33.7 2 33.7 2.9 Z M 30 2.9 C 30 3.4 30.1 3.8 30.3 4.1 C 30.5 4.4 30.9 4.5 31.3 4.5 C 32.1 4.5 32.5 4 32.5 2.9 C 32.5 1.7 32.1 1.2 31.3 1.2 C 30.9 1.2 30.5 1.3 30.3 1.6 C 30.1 1.9 30 2.3 30 2.9 Z M 36.5 5.4 L 35.4 5.4 L 35.4 1.2 L 34.1 1.2 L 34.1 0.4 L 37.8 0.4 L 37.8 1.2 L 36.5 1.2 L 36.5 5.4 Z M 44.6 5.4 L 43.2 5.4 L 41.1 1.6 C 41.1 1.6 41.02 1.58 41 1.6 C 41.1 2.2 41.1 2.7 41.1 3 C 41.09 3 41.1 5.4 41.1 5.4 L 40.1 5.4 L 40.1 0.4 L 41.5 0.4 L 43.6 4.1 C 43.6 4.1 43.67 4.1 43.7 4.1 C 43.6 3.5 43.6 3 43.6 2.7 C 43.62 2.72 43.6 0.4 43.6 0.4 L 44.6 0.4 L 44.6 5.4 Z M 47.6 2.5 L 49.6 2.5 C 49.6 2.5 49.57 5.14 49.6 5.1 C 49.3 5.2 48.9 5.3 48.7 5.4 C 48.4 5.4 48.1 5.4 47.8 5.4 C 47 5.4 46.5 5.2 46.1 4.8 C 45.7 4.3 45.5 3.7 45.5 2.9 C 45.5 2 45.7 1.4 46.2 1 C 46.6 0.5 47.3 0.3 48.1 0.3 C 48.6 0.3 49.1 0.4 49.6 0.6 C 49.6 0.6 49.2 1.4 49.2 1.4 C 48.8 1.3 48.5 1.2 48.1 1.2 C 47.6 1.2 47.3 1.3 47 1.6 C 46.7 1.9 46.6 2.4 46.6 2.9 C 46.6 3.4 46.7 3.8 46.9 4.1 C 47.1 4.4 47.4 4.5 47.9 4.5 C 48.1 4.5 48.3 4.5 48.5 4.5 C 48.54 4.47 48.5 3.4 48.5 3.4 L 47.6 3.4 L 47.6 2.5 Z M 52.3 5.4 L 52.3 0.4 L 53.4 0.4 L 53.4 5.4 L 52.3 5.4 Z M 57.4 4 C 57.4 4.4 57.3 4.8 56.9 5 C 56.6 5.3 56.2 5.4 55.6 5.4 C 55.1 5.4 54.6 5.3 54.2 5.1 C 54.2 5.1 54.2 4.1 54.2 4.1 C 54.5 4.3 54.8 4.4 55 4.5 C 55.3 4.5 55.5 4.5 55.7 4.5 C 55.9 4.5 56.1 4.5 56.2 4.4 C 56.3 4.3 56.4 4.2 56.4 4 C 56.4 3.9 56.4 3.8 56.3 3.8 C 56.3 3.7 56.2 3.6 56.1 3.5 C 56 3.5 55.7 3.4 55.4 3.2 C 55.1 3.1 54.9 2.9 54.7 2.8 C 54.6 2.7 54.5 2.5 54.4 2.3 C 54.3 2.1 54.2 1.9 54.2 1.7 C 54.2 1.3 54.4 0.9 54.7 0.7 C 55 0.4 55.4 0.3 55.9 0.3 C 56.2 0.3 56.4 0.3 56.7 0.4 C 56.9 0.4 57.1 0.5 57.4 0.6 C 57.4 0.6 57.1 1.5 57.1 1.5 C 56.8 1.4 56.6 1.3 56.4 1.2 C 56.2 1.2 56.1 1.2 55.9 1.2 C 55.7 1.2 55.5 1.2 55.4 1.3 C 55.3 1.4 55.3 1.5 55.3 1.7 C 55.3 1.8 55.3 1.8 55.3 1.9 C 55.4 2 55.4 2.1 55.5 2.1 C 55.6 2.2 55.9 2.3 56.2 2.5 C 56.7 2.7 57 2.9 57.2 3.1 C 57.3 3.4 57.4 3.6 57.4 4 Z M 59.3 2.7 C 59.3 2.7 59.6 2.71 59.6 2.7 C 59.9 2.7 60.2 2.6 60.3 2.5 C 60.5 2.4 60.6 2.2 60.6 2 C 60.6 1.7 60.5 1.5 60.4 1.4 C 60.2 1.3 60 1.2 59.7 1.2 C 59.73 1.23 59.3 1.2 59.3 1.2 L 59.3 2.7 Z M 61.6 1.9 C 61.6 2.5 61.5 2.9 61.1 3.2 C 60.8 3.4 60.3 3.6 59.7 3.6 C 59.71 3.58 59.3 3.6 59.3 3.6 L 59.3 5.4 L 58.2 5.4 L 58.2 0.4 C 58.2 0.4 59.79 0.36 59.8 0.4 C 60.4 0.4 60.9 0.5 61.2 0.8 C 61.5 1 61.6 1.4 61.6 1.9 Z M 67 2.9 C 67 3.7 66.8 4.3 66.4 4.8 C 66 5.2 65.4 5.4 64.6 5.4 C 63.8 5.4 63.3 5.2 62.8 4.8 C 62.4 4.3 62.2 3.7 62.2 2.8 C 62.2 2 62.4 1.4 62.8 0.9 C 63.3 0.5 63.8 0.3 64.6 0.3 C 65.4 0.3 66 0.5 66.4 0.9 C 66.8 1.4 67 2 67 2.9 Z M 63.3 2.9 C 63.3 3.4 63.4 3.8 63.7 4.1 C 63.9 4.4 64.2 4.5 64.6 4.5 C 65.5 4.5 65.9 4 65.9 2.9 C 65.9 1.7 65.5 1.2 64.6 1.2 C 64.2 1.2 63.9 1.3 63.7 1.6 C 63.4 1.9 63.3 2.3 63.3 2.9 Z M 68.9 2.6 C 68.9 2.6 69.28 2.58 69.3 2.6 C 69.6 2.6 69.9 2.5 70 2.4 C 70.2 2.3 70.3 2.1 70.3 1.9 C 70.3 1.6 70.2 1.5 70 1.4 C 69.9 1.3 69.6 1.2 69.3 1.2 C 69.26 1.23 68.9 1.2 68.9 1.2 L 68.9 2.6 Z M 68.9 3.4 L 68.9 5.4 L 67.9 5.4 L 67.9 0.4 C 67.9 0.4 69.34 0.36 69.3 0.4 C 70 0.4 70.5 0.5 70.8 0.7 C 71.2 1 71.3 1.4 71.3 1.9 C 71.3 2.1 71.3 2.4 71.1 2.6 C 70.9 2.9 70.7 3 70.4 3.2 C 71.2 4.3 71.6 5 71.9 5.4 C 71.87 5.36 70.7 5.4 70.7 5.4 L 69.5 3.4 L 68.9 3.4 Z M 74.3 5.4 L 73.2 5.4 L 73.2 1.2 L 71.9 1.2 L 71.9 0.4 L 75.6 0.4 L 75.6 1.2 L 74.3 1.2 L 74.3 5.4 Z M 79.2 4 C 79.2 4.4 79.1 4.8 78.7 5 C 78.4 5.3 78 5.4 77.4 5.4 C 76.8 5.4 76.4 5.3 76 5.1 C 76 5.1 76 4.1 76 4.1 C 76.3 4.3 76.6 4.4 76.8 4.5 C 77.1 4.5 77.3 4.5 77.5 4.5 C 77.7 4.5 77.9 4.5 78 4.4 C 78.1 4.3 78.2 4.2 78.2 4 C 78.2 3.9 78.2 3.8 78.1 3.8 C 78 3.7 78 3.6 77.9 3.5 C 77.8 3.5 77.5 3.4 77.2 3.2 C 76.9 3.1 76.7 2.9 76.5 2.8 C 76.4 2.7 76.3 2.5 76.2 2.3 C 76.1 2.1 76 1.9 76 1.7 C 76 1.3 76.2 0.9 76.5 0.7 C 76.8 0.4 77.2 0.3 77.7 0.3 C 78 0.3 78.2 0.3 78.5 0.4 C 78.7 0.4 78.9 0.5 79.2 0.6 C 79.2 0.6 78.9 1.5 78.9 1.5 C 78.6 1.4 78.4 1.3 78.2 1.2 C 78 1.2 77.9 1.2 77.7 1.2 C 77.5 1.2 77.3 1.2 77.2 1.3 C 77.1 1.4 77.1 1.5 77.1 1.7 C 77.1 1.8 77.1 1.8 77.1 1.9 C 77.2 2 77.2 2.1 77.3 2.1 C 77.4 2.2 77.7 2.3 78 2.5 C 78.5 2.7 78.8 2.9 79 3.1 C 79.1 3.4 79.2 3.6 79.2 4 Z M 79.8 4.9 C 79.8 4.7 79.8 4.5 79.9 4.4 C 80 4.3 80.2 4.3 80.4 4.3 C 80.6 4.3 80.7 4.3 80.8 4.4 C 80.9 4.5 81 4.7 81 4.9 C 81 5 80.9 5.2 80.8 5.3 C 80.7 5.4 80.5 5.4 80.4 5.4 C 80.2 5.4 80 5.4 79.9 5.3 C 79.8 5.2 79.8 5.1 79.8 4.9 Z M 79.8 2 C 79.8 1.9 79.8 1.7 79.9 1.6 C 80 1.5 80.2 1.5 80.4 1.5 C 80.6 1.5 80.7 1.5 80.8 1.6 C 80.9 1.7 81 1.9 81 2 C 81 2.2 80.9 2.4 80.8 2.5 C 80.7 2.6 80.5 2.6 80.4 2.6 C 80.2 2.6 80 2.6 79.9 2.5 C 79.8 2.4 79.8 2.2 79.8 2 Z M 90.2 0.9 C 89.9 0.7 89.5 0.6 89.1 0.6 C 88.5 0.6 88 0.8 87.6 1.2 C 87.3 1.6 87.1 2.2 87.1 2.9 C 87.1 3.6 87.2 4.1 87.6 4.5 C 87.9 4.9 88.4 5.1 89 5.1 C 89.5 5.1 89.8 5 90.2 4.9 C 90.2 4.9 90.2 5.3 90.2 5.3 C 89.9 5.4 89.5 5.4 89 5.4 C 88.3 5.4 87.7 5.2 87.3 4.7 C 86.9 4.3 86.7 3.7 86.7 2.8 C 86.7 2.3 86.8 1.9 87 1.5 C 87.2 1.1 87.5 0.8 87.8 0.6 C 88.2 0.4 88.6 0.3 89.1 0.3 C 89.6 0.3 90 0.4 90.4 0.6 C 90.38 0.56 90.2 0.9 90.2 0.9 C 90.2 0.9 90.24 0.88 90.2 0.9 Z M 95.1 5.4 L 94.7 5.4 L 94.7 2.9 L 91.8 2.9 L 91.8 5.4 L 91.4 5.4 L 91.4 0.4 L 91.8 0.4 L 91.8 2.6 L 94.7 2.6 L 94.7 0.4 L 95.1 0.4 L 95.1 5.4 Z M 97 3.2 L 97 5.4 L 96.6 5.4 L 96.6 0.4 C 96.6 0.4 97.81 0.36 97.8 0.4 C 98.4 0.4 98.9 0.5 99.2 0.7 C 99.5 0.9 99.6 1.3 99.6 1.7 C 99.6 2.1 99.5 2.4 99.4 2.6 C 99.2 2.8 98.9 3 98.6 3.1 C 98.56 3.08 99.9 5.4 99.9 5.4 L 99.5 5.4 L 98.2 3.2 L 97 3.2 Z M 97 2.9 C 97 2.9 97.92 2.88 97.9 2.9 C 98.3 2.9 98.7 2.8 98.9 2.6 C 99.1 2.4 99.3 2.1 99.3 1.8 C 99.3 1.4 99.1 1.1 98.9 0.9 C 98.7 0.8 98.3 0.7 97.8 0.7 C 97.8 0.67 97 0.7 97 0.7 L 97 2.9 Z M 100.9 5.4 L 100.9 0.4 L 101.3 0.4 L 101.3 5.4 L 100.9 5.4 Z M 105.6 4.1 C 105.6 4.5 105.4 4.8 105.1 5.1 C 104.8 5.3 104.4 5.4 103.9 5.4 C 103.3 5.4 102.8 5.4 102.5 5.2 C 102.5 5.2 102.5 4.9 102.5 4.9 C 102.9 5 103.3 5.1 103.9 5.1 C 104.3 5.1 104.6 5 104.9 4.8 C 105.1 4.6 105.2 4.4 105.2 4.1 C 105.2 3.9 105.2 3.7 105.1 3.6 C 105 3.5 104.9 3.4 104.7 3.3 C 104.5 3.2 104.3 3.1 103.9 2.9 C 103.4 2.8 103 2.6 102.9 2.4 C 102.7 2.2 102.6 1.9 102.6 1.6 C 102.6 1.2 102.7 0.9 103 0.6 C 103.3 0.4 103.7 0.3 104.1 0.3 C 104.6 0.3 105 0.4 105.5 0.6 C 105.5 0.6 105.3 0.9 105.3 0.9 C 104.9 0.7 104.5 0.6 104.1 0.6 C 103.8 0.6 103.5 0.7 103.3 0.9 C 103 1 102.9 1.3 102.9 1.5 C 102.9 1.7 103 1.9 103 2 C 103.1 2.1 103.2 2.2 103.4 2.3 C 103.5 2.4 103.8 2.5 104.1 2.7 C 104.5 2.8 104.8 2.9 105 3.1 C 105.2 3.2 105.4 3.3 105.4 3.5 C 105.5 3.6 105.6 3.8 105.6 4.1 Z M 108.1 5.4 L 107.7 5.4 L 107.7 0.7 L 106.1 0.7 L 106.1 0.4 L 109.7 0.4 L 109.7 0.7 L 108.1 0.7 L 108.1 5.4 Z M 110.6 5.4 L 110.6 0.4 L 110.9 0.4 L 110.9 5.4 L 110.6 5.4 Z M 114.9 3.6 L 112.9 3.6 L 112.2 5.4 L 111.8 5.4 L 113.8 0.3 L 114 0.3 L 116 5.4 L 115.6 5.4 L 114.9 3.6 Z M 113 3.3 L 114.8 3.3 C 114.8 3.3 114.1 1.48 114.1 1.5 C 114 1.3 114 1.1 113.9 0.9 C 113.8 1.1 113.8 1.3 113.7 1.5 C 113.69 1.48 113 3.3 113 3.3 Z M 120.5 5.4 L 120.1 5.4 L 117.2 0.9 C 117.2 0.9 117.13 0.92 117.1 0.9 C 117.2 1.4 117.2 1.8 117.2 2.1 C 117.17 2.12 117.2 5.4 117.2 5.4 L 116.8 5.4 L 116.8 0.4 L 117.2 0.4 L 120.1 4.8 C 120.1 4.8 120.16 4.79 120.2 4.8 C 120.1 4.4 120.1 4 120.1 3.6 C 120.13 3.62 120.1 0.4 120.1 0.4 L 120.5 0.4 L 120.5 5.4 Z M 125.2 0.4 C 126.4 0.4 127 0.8 127 1.8 C 127 2.3 126.8 2.6 126.5 2.9 C 126.2 3.2 125.7 3.3 125.1 3.3 C 125.1 3.29 124.3 3.3 124.3 3.3 L 124.3 5.4 L 124 5.4 L 124 0.4 L 125.2 0.4 C 125.2 0.4 125.2 0.36 125.2 0.4 Z M 124.3 3 C 124.3 3 125.01 2.99 125 3 C 125.6 3 126 2.9 126.2 2.7 C 126.5 2.5 126.6 2.2 126.6 1.8 C 126.6 1.4 126.5 1.1 126.3 1 C 126 0.8 125.7 0.7 125.2 0.7 C 125.15 0.67 124.3 0.7 124.3 0.7 L 124.3 3 Z M 131.8 5.4 L 131.5 5.4 L 131.5 2.9 L 128.6 2.9 L 128.6 5.4 L 128.2 5.4 L 128.2 0.4 L 128.6 0.4 L 128.6 2.6 L 131.5 2.6 L 131.5 0.4 L 131.8 0.4 L 131.8 5.4 Z M 133.4 5.4 L 133.4 0.4 L 133.7 0.4 L 133.7 5.4 L 133.4 5.4 Z M 135.3 5.4 L 135.3 0.4 L 135.6 0.4 L 135.6 5 L 138 5 L 138 5.4 L 135.3 5.4 Z M 139 5.4 L 139 0.4 L 139.4 0.4 L 139.4 5.4 L 139 5.4 Z M 142.2 0.4 C 143.3 0.4 143.9 0.8 143.9 1.8 C 143.9 2.3 143.8 2.6 143.4 2.9 C 143.1 3.2 142.7 3.3 142 3.3 C 142.05 3.29 141.3 3.3 141.3 3.3 L 141.3 5.4 L 140.9 5.4 L 140.9 0.4 L 142.2 0.4 C 142.2 0.4 142.15 0.36 142.2 0.4 Z M 141.3 3 C 141.3 3 141.96 2.99 142 3 C 142.5 3 142.9 2.9 143.2 2.7 C 143.4 2.5 143.6 2.2 143.6 1.8 C 143.6 1.4 143.4 1.1 143.2 1 C 143 0.8 142.6 0.7 142.1 0.7 C 142.1 0.67 141.3 0.7 141.3 0.7 L 141.3 3 Z M 149.3 5.4 L 147.5 0.7 C 147.5 0.7 147.43 0.74 147.4 0.7 C 147.4 1 147.5 1.3 147.5 1.6 C 147.46 1.61 147.5 5.4 147.5 5.4 L 147.1 5.4 L 147.1 0.4 L 147.7 0.4 L 149.4 4.8 L 149.5 4.8 L 151.2 0.4 L 151.7 0.4 L 151.7 5.4 L 151.4 5.4 C 151.4 5.4 151.4 1.57 151.4 1.6 C 151.4 1.3 151.4 1 151.4 0.7 C 151.44 0.75 151.4 0.7 151.4 0.7 L 149.5 5.4 L 149.3 5.4 Z M 155.7 3.6 L 153.7 3.6 L 153 5.4 L 152.6 5.4 L 154.6 0.3 L 154.8 0.3 L 156.8 5.4 L 156.4 5.4 L 155.7 3.6 Z M 153.8 3.3 L 155.6 3.3 C 155.6 3.3 154.91 1.48 154.9 1.5 C 154.9 1.3 154.8 1.1 154.7 0.9 C 154.6 1.1 154.6 1.3 154.5 1.5 C 154.5 1.48 153.8 3.3 153.8 3.3 Z M 158.9 5.4 L 158.6 5.4 L 158.6 0.7 L 157 0.7 L 157 0.4 L 160.6 0.4 L 160.6 0.7 L 158.9 0.7 L 158.9 5.4 Z M 164.2 5.4 L 161.4 5.4 L 161.4 0.4 L 164.2 0.4 L 164.2 0.7 L 161.8 0.7 L 161.8 2.6 L 164 2.6 L 164 2.9 L 161.8 2.9 L 161.8 5 L 164.2 5 L 164.2 5.4 Z M 169.7 2.9 C 169.7 3.6 169.5 4.3 169.1 4.7 C 168.7 5.2 168.1 5.4 167.4 5.4 C 166.7 5.4 166.2 5.2 165.8 4.7 C 165.4 4.3 165.2 3.6 165.2 2.8 C 165.2 2 165.4 1.4 165.8 1 C 166.2 0.5 166.7 0.3 167.4 0.3 C 168.1 0.3 168.7 0.5 169.1 1 C 169.5 1.4 169.7 2.1 169.7 2.9 Z M 165.6 2.9 C 165.6 3.6 165.7 4.1 166 4.5 C 166.4 4.9 166.8 5.1 167.4 5.1 C 168 5.1 168.5 4.9 168.8 4.5 C 169.1 4.1 169.3 3.6 169.3 2.9 C 169.3 2.1 169.1 1.6 168.8 1.2 C 168.5 0.8 168 0.6 167.4 0.6 C 166.8 0.6 166.4 0.8 166 1.2 C 165.7 1.6 165.6 2.1 165.6 2.9 Z M 176.9 5.4 L 176.9 0.4 L 178 0.4 L 178 4.5 L 180 4.5 L 180 5.4 L 176.9 5.4 Z M 183.8 5.4 L 183.5 4.2 L 181.6 4.2 L 181.3 5.4 L 180.1 5.4 L 181.9 0.3 L 183.2 0.3 L 185 5.4 L 183.8 5.4 Z M 183.2 3.3 C 182.9 2.2 182.7 1.6 182.6 1.4 C 182.6 1.3 182.6 1.2 182.6 1.1 C 182.5 1.4 182.3 2.1 181.9 3.3 C 181.9 3.3 183.2 3.3 183.2 3.3 Z M 187 2.4 L 188.1 0.4 L 189.2 0.4 L 187.5 3.4 L 187.5 5.4 L 186.5 5.4 L 186.5 3.4 L 184.8 0.4 L 186 0.4 L 187 2.4 Z M 194.2 2.9 C 194.2 3.7 194 4.3 193.6 4.8 C 193.2 5.2 192.6 5.4 191.8 5.4 C 191.1 5.4 190.5 5.2 190.1 4.8 C 189.7 4.3 189.5 3.7 189.5 2.8 C 189.5 2 189.7 1.4 190.1 0.9 C 190.5 0.5 191.1 0.3 191.8 0.3 C 192.6 0.3 193.2 0.5 193.6 0.9 C 194 1.4 194.2 2 194.2 2.9 Z M 190.6 2.9 C 190.6 3.4 190.7 3.8 190.9 4.1 C 191.1 4.4 191.4 4.5 191.8 4.5 C 192.7 4.5 193.1 4 193.1 2.9 C 193.1 1.7 192.7 1.2 191.8 1.2 C 191.4 1.2 191.1 1.3 190.9 1.6 C 190.7 1.9 190.6 2.3 190.6 2.9 Z M 199.2 0.4 C 199.2 0.4 199.18 3.59 199.2 3.6 C 199.2 4 199.1 4.3 198.9 4.6 C 198.8 4.8 198.5 5.1 198.2 5.2 C 197.9 5.4 197.5 5.4 197.1 5.4 C 196.5 5.4 196 5.3 195.6 4.9 C 195.3 4.6 195.1 4.2 195.1 3.6 C 195.08 3.58 195.1 0.4 195.1 0.4 L 196.1 0.4 C 196.1 0.4 196.14 3.42 196.1 3.4 C 196.1 3.8 196.2 4.1 196.4 4.3 C 196.5 4.4 196.8 4.5 197.1 4.5 C 197.5 4.5 197.7 4.4 197.9 4.3 C 198 4.1 198.1 3.8 198.1 3.4 C 198.12 3.41 198.1 0.4 198.1 0.4 L 199.2 0.4 Z M 202.2 5.4 L 201.1 5.4 L 201.1 1.2 L 199.8 1.2 L 199.8 0.4 L 203.5 0.4 L 203.5 1.2 L 202.2 1.2 L 202.2 5.4 Z M 208.9 5.4 L 208.6 4.2 L 206.7 4.2 L 206.4 5.4 L 205.2 5.4 L 207 0.3 L 208.3 0.3 L 210.1 5.4 L 208.9 5.4 Z M 208.3 3.3 C 208 2.2 207.8 1.6 207.7 1.4 C 207.7 1.3 207.7 1.2 207.6 1.1 C 207.6 1.4 207.4 2.1 207 3.3 C 207 3.3 208.3 3.3 208.3 3.3 Z M 211.6 2.6 C 211.6 2.6 211.95 2.58 211.9 2.6 C 212.3 2.6 212.5 2.5 212.7 2.4 C 212.8 2.3 212.9 2.1 212.9 1.9 C 212.9 1.6 212.8 1.5 212.7 1.4 C 212.5 1.3 212.3 1.2 211.9 1.2 C 211.93 1.23 211.6 1.2 211.6 1.2 L 211.6 2.6 Z M 211.6 3.4 L 211.6 5.4 L 210.5 5.4 L 210.5 0.4 C 210.5 0.4 212 0.36 212 0.4 C 212.7 0.4 213.2 0.5 213.5 0.7 C 213.8 1 214 1.4 214 1.9 C 214 2.1 213.9 2.4 213.8 2.6 C 213.6 2.9 213.4 3 213.1 3.2 C 213.8 4.3 214.3 5 214.5 5.4 C 214.54 5.36 213.4 5.4 213.4 5.4 L 212.2 3.4 L 211.6 3.4 Z M 217 5.4 L 215.9 5.4 L 215.9 1.2 L 214.5 1.2 L 214.5 0.4 L 218.3 0.4 L 218.3 1.2 L 217 1.2 L 217 5.4 Z M 218.9 5.4 L 218.9 0.4 L 220 0.4 L 220 5.4 L 218.9 5.4 Z M 224.1 4 C 224.1 4.4 223.9 4.8 223.6 5 C 223.3 5.3 222.8 5.4 222.2 5.4 C 221.7 5.4 221.2 5.3 220.8 5.1 C 220.8 5.1 220.8 4.1 220.8 4.1 C 221.1 4.3 221.4 4.4 221.7 4.5 C 221.9 4.5 222.1 4.5 222.3 4.5 C 222.5 4.5 222.7 4.5 222.8 4.4 C 223 4.3 223 4.2 223 4 C 223 3.9 223 3.8 222.9 3.8 C 222.9 3.7 222.8 3.6 222.7 3.5 C 222.6 3.5 222.4 3.4 222.1 3.2 C 221.8 3.1 221.5 2.9 221.4 2.8 C 221.2 2.7 221.1 2.5 221 2.3 C 220.9 2.1 220.9 1.9 220.9 1.7 C 220.9 1.3 221 0.9 221.3 0.7 C 221.6 0.4 222 0.3 222.6 0.3 C 222.8 0.3 223.1 0.3 223.3 0.4 C 223.5 0.4 223.8 0.5 224 0.6 C 224 0.6 223.7 1.5 223.7 1.5 C 223.4 1.4 223.2 1.3 223 1.2 C 222.9 1.2 222.7 1.2 222.5 1.2 C 222.3 1.2 222.2 1.2 222.1 1.3 C 222 1.4 221.9 1.5 221.9 1.7 C 221.9 1.8 221.9 1.8 222 1.9 C 222 2 222.1 2.1 222.2 2.1 C 222.3 2.2 222.5 2.3 222.8 2.5 C 223.3 2.7 223.6 2.9 223.8 3.1 C 224 3.4 224.1 3.6 224.1 4 Z M 226.8 5.4 L 225.7 5.4 L 225.7 1.2 L 224.3 1.2 L 224.3 0.4 L 228.1 0.4 L 228.1 1.2 L 226.8 1.2 L 226.8 5.4 Z M 228.5 4.9 C 228.5 4.7 228.6 4.5 228.7 4.4 C 228.8 4.3 228.9 4.3 229.1 4.3 C 229.3 4.3 229.5 4.3 229.6 4.4 C 229.7 4.5 229.7 4.7 229.7 4.9 C 229.7 5 229.7 5.2 229.6 5.3 C 229.5 5.4 229.3 5.4 229.1 5.4 C 228.9 5.4 228.8 5.4 228.7 5.3 C 228.6 5.2 228.5 5.1 228.5 4.9 Z M 228.5 2 C 228.5 1.9 228.6 1.7 228.7 1.6 C 228.8 1.5 228.9 1.5 229.1 1.5 C 229.3 1.5 229.5 1.5 229.6 1.6 C 229.7 1.7 229.7 1.9 229.7 2 C 229.7 2.2 229.7 2.4 229.6 2.5 C 229.4 2.6 229.3 2.6 229.1 2.6 C 228.9 2.6 228.8 2.6 228.7 2.5 C 228.6 2.4 228.5 2.2 228.5 2 Z M 238.1 3.6 L 236.1 3.6 L 235.4 5.4 L 235 5.4 L 237 0.3 L 237.2 0.3 L 239.2 5.4 L 238.8 5.4 L 238.1 3.6 Z M 236.2 3.3 L 238 3.3 C 238 3.3 237.33 1.48 237.3 1.5 C 237.3 1.3 237.2 1.1 237.1 0.9 C 237.1 1.1 237 1.3 236.9 1.5 C 236.92 1.48 236.2 3.3 236.2 3.3 Z M 243.9 2.8 C 243.9 3.6 243.6 4.3 243.2 4.7 C 242.8 5.1 242.1 5.4 241.3 5.4 C 241.25 5.36 240.1 5.4 240.1 5.4 L 240.1 0.4 C 240.1 0.4 241.41 0.36 241.4 0.4 C 242.2 0.4 242.8 0.6 243.2 1 C 243.6 1.4 243.9 2 243.9 2.8 Z M 241.2 5 C 242.7 5 243.5 4.3 243.5 2.8 C 243.5 2.1 243.3 1.6 242.9 1.2 C 242.6 0.8 242 0.7 241.3 0.7 C 241.33 0.67 240.4 0.7 240.4 0.7 L 240.4 5 L 241.2 5 C 241.2 5 241.23 5.05 241.2 5 Z M 245.5 3.2 L 245.5 5.4 L 245.1 5.4 L 245.1 0.4 C 245.1 0.4 246.33 0.36 246.3 0.4 C 246.9 0.4 247.4 0.5 247.7 0.7 C 248 0.9 248.1 1.3 248.1 1.7 C 248.1 2.1 248.1 2.4 247.9 2.6 C 247.7 2.8 247.4 3 247.1 3.1 C 247.08 3.08 248.4 5.4 248.4 5.4 L 248 5.4 L 246.7 3.2 L 245.5 3.2 Z M 245.5 2.9 C 245.5 2.9 246.44 2.88 246.4 2.9 C 246.9 2.9 247.2 2.8 247.4 2.6 C 247.7 2.4 247.8 2.1 247.8 1.8 C 247.8 1.4 247.7 1.1 247.4 0.9 C 247.2 0.8 246.8 0.7 246.3 0.7 C 246.32 0.67 245.5 0.7 245.5 0.7 L 245.5 2.9 Z M 249.4 5.4 L 249.4 0.4 L 249.8 0.4 L 249.8 5.4 L 249.4 5.4 Z M 253.7 3.6 L 251.7 3.6 L 251 5.4 L 250.6 5.4 L 252.6 0.3 L 252.9 0.3 L 254.8 5.4 L 254.4 5.4 L 253.7 3.6 Z M 251.8 3.3 L 253.6 3.3 C 253.6 3.3 252.95 1.48 253 1.5 C 252.9 1.3 252.8 1.1 252.7 0.9 C 252.7 1.1 252.6 1.3 252.5 1.5 C 252.55 1.48 251.8 3.3 251.8 3.3 Z M 259.3 5.4 L 259 5.4 L 256 0.9 C 256 0.9 255.98 0.92 256 0.9 C 256 1.4 256 1.8 256 2.1 C 256.02 2.12 256 5.4 256 5.4 L 255.7 5.4 L 255.7 0.4 L 256 0.4 L 259 4.8 C 259 4.8 259.01 4.79 259 4.8 C 259 4.4 259 4 259 3.6 C 258.98 3.62 259 0.4 259 0.4 L 259.3 0.4 L 259.3 5.4 Z M 266.6 2.8 C 266.6 3.6 266.4 4.3 266 4.7 C 265.5 5.1 264.9 5.4 264 5.4 C 264.03 5.36 262.8 5.4 262.8 5.4 L 262.8 0.4 C 262.8 0.4 264.18 0.36 264.2 0.4 C 265 0.4 265.6 0.6 266 1 C 266.4 1.4 266.6 2 266.6 2.8 Z M 264 5 C 265.5 5 266.2 4.3 266.2 2.8 C 266.2 2.1 266.1 1.6 265.7 1.2 C 265.3 0.8 264.8 0.7 264.1 0.7 C 264.1 0.67 263.2 0.7 263.2 0.7 L 263.2 5 L 264 5 C 264 5 264.01 5.05 264 5 Z M 272.1 2.9 C 272.1 3.6 271.9 4.3 271.5 4.7 C 271.1 5.2 270.6 5.4 269.9 5.4 C 269.2 5.4 268.6 5.2 268.2 4.7 C 267.8 4.3 267.6 3.6 267.6 2.8 C 267.6 2 267.8 1.4 268.2 1 C 268.6 0.5 269.2 0.3 269.9 0.3 C 270.6 0.3 271.1 0.5 271.5 1 C 271.9 1.4 272.1 2.1 272.1 2.9 Z M 268 2.9 C 268 3.6 268.2 4.1 268.5 4.5 C 268.8 4.9 269.3 5.1 269.9 5.1 C 270.5 5.1 270.9 4.9 271.3 4.5 C 271.6 4.1 271.7 3.6 271.7 2.9 C 271.7 2.1 271.6 1.6 271.3 1.2 C 270.9 0.8 270.5 0.6 269.9 0.6 C 269.3 0.6 268.8 0.8 268.5 1.2 C 268.2 1.6 268 2.1 268 2.9 Z M 277 5.4 L 276.7 5.4 L 273.7 0.9 C 273.7 0.9 273.7 0.92 273.7 0.9 C 273.7 1.4 273.7 1.8 273.7 2.1 C 273.74 2.12 273.7 5.4 273.7 5.4 L 273.4 5.4 L 273.4 0.4 L 273.8 0.4 L 276.7 4.8 C 276.7 4.8 276.73 4.79 276.7 4.8 C 276.7 4.4 276.7 4 276.7 3.6 C 276.7 3.62 276.7 0.4 276.7 0.4 L 277 0.4 L 277 5.4 Z M 281 3.6 L 279 3.6 L 278.3 5.4 L 277.9 5.4 L 279.9 0.3 L 280.1 0.3 L 282.1 5.4 L 281.7 5.4 L 281 3.6 Z M 279.1 3.3 L 280.9 3.3 C 280.9 3.3 280.2 1.48 280.2 1.5 C 280.1 1.3 280.1 1.1 280 0.9 C 279.9 1.1 279.9 1.3 279.8 1.5 C 279.79 1.48 279.1 3.3 279.1 3.3 Z M 284.2 5.4 L 283.9 5.4 L 283.9 0.7 L 282.3 0.7 L 282.3 0.4 L 285.9 0.4 L 285.9 0.7 L 284.2 0.7 L 284.2 5.4 Z M 290.9 2.9 C 290.9 3.6 290.7 4.3 290.3 4.7 C 289.9 5.2 289.4 5.4 288.7 5.4 C 288 5.4 287.5 5.2 287.1 4.7 C 286.7 4.3 286.5 3.6 286.5 2.8 C 286.5 2 286.7 1.4 287.1 1 C 287.5 0.5 288 0.3 288.7 0.3 C 289.4 0.3 290 0.5 290.3 1 C 290.7 1.4 290.9 2.1 290.9 2.9 Z M 286.9 2.9 C 286.9 3.6 287 4.1 287.3 4.5 C 287.6 4.9 288.1 5.1 288.7 5.1 C 289.3 5.1 289.8 4.9 290.1 4.5 C 290.4 4.1 290.6 3.6 290.6 2.9 C 290.6 2.1 290.4 1.6 290.1 1.2 C 289.8 0.8 289.3 0.6 288.7 0.6 C 288.1 0.6 287.7 0.8 287.3 1.2 C 287 1.6 286.9 2.1 286.9 2.9 Z " stroke="none" fill="#000"/>
  </g>
</svg>