<?xml version="1.0" standalone="no"?>
<!DOCTYPE svg PUBLIC "-//W3C//DTD SVG 1.1//EN" "http://www.w3.org/Graphics/SVG/1.1/DTD/svg11.dtd">
<svg xmlns="http://www.w3.org/2000/svg" version="1.1" width="185px" height="19px" viewBox="0 -3 185 19" style="top:-3px">
  <desc>Likha ni Elisa Lim Mga kuha mula sa</desc>
  <defs/>
  <g id="Polygon25244">
    <path d="M 0.5 1.7 L 1.5 1.7 L 1.5 10.7 L 0.5 10.7 L 0.5 1.7 Z M 8.5 2.3 L 9.7 2.3 L 8.5 7.8 L 11.8 7.8 L 11.6 8.8 L 7.2 8.8 L 8.5 2.3 Z M 13.7 2.3 L 14.7 2.3 L 14.5 3.3 L 13.5 3.3 L 13.7 2.3 Z M 13.3 4.1 L 14.3 4.1 L 13.3 8.8 L 12.3 8.8 L 13.3 4.1 Z M 15.9 2.3 L 16.9 2.3 L 16.2 6 L 16.2 6 L 18.3 4.1 L 19.6 4.1 L 17.6 5.8 L 18.7 8.8 L 17.6 8.8 L 16.7 6.5 L 15.9 7.2 L 15.6 8.8 L 14.6 8.8 L 15.9 2.3 Z M 20.7 2.3 L 21.7 2.3 L 21.2 4.8 C 21.2 4.8 21.22 4.78 21.2 4.8 C 21.4 4.5 21.6 4.4 21.9 4.2 C 22.2 4.1 22.5 4 22.7 4 C 23.2 4 23.6 4.1 23.8 4.3 C 24 4.6 24.1 4.9 24.1 5.2 C 24.1 5.3 24.1 5.4 24.1 5.5 C 24.1 5.6 24.1 5.7 24.1 5.8 C 24.06 5.8 23.4 8.8 23.4 8.8 L 22.4 8.8 C 22.4 8.8 23.01 5.9 23 5.9 C 23 5.8 23 5.8 23.1 5.7 C 23.1 5.6 23.1 5.5 23.1 5.5 C 23.1 5.4 23.1 5.4 23.1 5.3 C 23.1 5.2 23 5.2 23 5.1 C 23 5 22.9 4.9 22.8 4.9 C 22.7 4.8 22.6 4.8 22.4 4.8 C 22.2 4.8 22 4.8 21.8 4.9 C 21.7 5 21.5 5.1 21.4 5.3 C 21.3 5.4 21.2 5.5 21.1 5.7 C 21 5.9 20.9 6.1 20.9 6.3 C 20.89 6.25 20.4 8.8 20.4 8.8 L 19.3 8.8 L 20.7 2.3 Z M 25.7 7.5 C 25.7 7.6 25.7 7.7 25.7 7.8 C 25.8 7.9 25.8 7.9 25.9 8 C 26 8 26.1 8 26.2 8.1 C 26.3 8.1 26.4 8.1 26.5 8.1 C 26.7 8.1 26.9 8 27.1 8 C 27.3 7.9 27.4 7.8 27.5 7.6 C 27.6 7.5 27.7 7.3 27.8 7.1 C 27.9 6.9 27.9 6.7 27.9 6.5 C 27.9 6.5 27.9 6.5 27.9 6.5 C 27.8 6.5 27.8 6.6 27.6 6.6 C 27.5 6.7 27.4 6.7 27.3 6.7 C 27.1 6.7 27 6.7 26.8 6.7 C 26.6 6.7 26.4 6.8 26.3 6.8 C 26.1 6.9 25.9 6.9 25.8 7.1 C 25.7 7.2 25.7 7.3 25.7 7.5 Z M 28.7 7.4 C 28.7 7.5 28.7 7.6 28.7 7.7 C 28.7 7.7 28.6 7.8 28.6 7.9 C 28.6 8 28.7 8 28.7 8 C 28.7 8.1 28.8 8.1 28.9 8.1 C 28.9 8.1 29 8.1 29 8.1 C 29.1 8.1 29.2 8 29.2 8 C 29.2 8 29.1 8.8 29.1 8.8 C 28.9 8.8 28.8 8.8 28.7 8.9 C 28.5 8.9 28.4 8.9 28.3 8.9 C 28.1 8.9 27.9 8.8 27.8 8.7 C 27.7 8.6 27.7 8.5 27.6 8.3 C 27.4 8.5 27.2 8.7 26.9 8.8 C 26.6 8.9 26.4 8.9 26.1 8.9 C 25.9 8.9 25.7 8.9 25.5 8.8 C 25.4 8.8 25.2 8.7 25.1 8.6 C 24.9 8.5 24.8 8.4 24.7 8.2 C 24.7 8 24.6 7.9 24.6 7.7 C 24.6 7.4 24.7 7.1 24.8 6.9 C 24.9 6.7 25 6.6 25.2 6.5 C 25.4 6.3 25.6 6.2 25.8 6.2 C 26.1 6.1 26.3 6.1 26.6 6.1 C 26.9 6 27.3 6 27.6 6 C 27.8 6 27.9 5.9 28 5.8 C 28.1 5.7 28.1 5.5 28.1 5.4 C 28.1 5.1 28.1 5 27.9 4.9 C 27.8 4.8 27.6 4.8 27.4 4.8 C 27.1 4.8 26.8 4.9 26.6 5 C 26.4 5.1 26.3 5.2 26.2 5.5 C 26.2 5.5 25.2 5.5 25.2 5.5 C 25.3 5.2 25.4 5 25.5 4.8 C 25.6 4.6 25.8 4.5 26 4.3 C 26.2 4.2 26.4 4.1 26.6 4.1 C 26.9 4 27.1 4 27.4 4 C 27.8 4 28.2 4 28.4 4.1 C 28.6 4.2 28.8 4.3 28.9 4.4 C 29 4.5 29.1 4.6 29.1 4.8 C 29.2 4.9 29.2 5 29.2 5.1 C 29.2 5.3 29.1 5.5 29.1 5.8 C 29.1 5.8 28.7 7.4 28.7 7.4 Z M 35.7 4.1 L 36.7 4.1 L 36.6 4.8 C 36.6 4.8 36.58 4.81 36.6 4.8 C 36.8 4.6 37 4.4 37.3 4.2 C 37.6 4.1 37.9 4 38.2 4 C 38.7 4 39 4.1 39.2 4.3 C 39.4 4.6 39.5 4.9 39.5 5.2 C 39.5 5.3 39.5 5.4 39.5 5.5 C 39.5 5.6 39.5 5.7 39.5 5.8 C 39.5 5.8 38.9 8.8 38.9 8.8 L 37.9 8.8 C 37.9 8.8 38.44 5.9 38.4 5.9 C 38.5 5.8 38.5 5.8 38.5 5.7 C 38.5 5.6 38.5 5.5 38.5 5.5 C 38.5 5.4 38.5 5.4 38.5 5.3 C 38.5 5.2 38.5 5.2 38.4 5.1 C 38.4 5 38.3 4.9 38.2 4.9 C 38.1 4.8 38 4.8 37.8 4.8 C 37.6 4.8 37.4 4.8 37.3 4.9 C 37.1 5 37 5.1 36.8 5.3 C 36.7 5.4 36.6 5.5 36.5 5.7 C 36.4 5.9 36.4 6.1 36.3 6.3 C 36.33 6.25 35.8 8.8 35.8 8.8 L 34.8 8.8 L 35.7 4.1 Z M 41.4 2.3 L 42.4 2.3 L 42.2 3.3 L 41.2 3.3 L 41.4 2.3 Z M 41 4.1 L 42 4.1 L 41.1 8.8 L 40 8.8 L 41 4.1 Z M 48.8 2.3 L 53.5 2.3 L 53.3 3.3 L 49.7 3.3 L 49.4 5 L 52.7 5 L 52.5 5.9 L 49.2 5.9 L 48.8 7.8 L 52.4 7.8 L 52.2 8.8 L 47.5 8.8 L 48.8 2.3 Z M 54.5 2.3 L 55.5 2.3 L 54.2 8.8 L 53.1 8.8 L 54.5 2.3 Z M 56.7 2.3 L 57.8 2.3 L 57.6 3.3 L 56.5 3.3 L 56.7 2.3 Z M 56.4 4.1 L 57.4 4.1 L 56.4 8.8 L 55.4 8.8 L 56.4 4.1 Z M 61 5.5 C 61 5.2 60.9 5.1 60.7 5 C 60.5 4.9 60.3 4.8 60 4.8 C 59.9 4.8 59.8 4.8 59.7 4.8 C 59.6 4.9 59.6 4.9 59.5 4.9 C 59.4 5 59.3 5 59.3 5.1 C 59.3 5.2 59.2 5.3 59.2 5.4 C 59.2 5.5 59.3 5.6 59.3 5.7 C 59.4 5.7 59.5 5.8 59.7 5.8 C 59.8 5.9 59.9 5.9 60.1 6 C 60.3 6 60.4 6.1 60.6 6.1 C 60.7 6.2 60.9 6.2 61 6.3 C 61.1 6.4 61.2 6.5 61.3 6.6 C 61.4 6.6 61.5 6.8 61.6 6.9 C 61.6 7 61.7 7.2 61.7 7.4 C 61.7 7.6 61.6 7.9 61.5 8.1 C 61.4 8.3 61.2 8.4 61 8.5 C 60.8 8.7 60.6 8.8 60.4 8.8 C 60.1 8.9 59.9 8.9 59.6 8.9 C 59.3 8.9 59.1 8.9 58.9 8.8 C 58.6 8.8 58.4 8.7 58.2 8.6 C 58.1 8.4 57.9 8.3 57.8 8.1 C 57.7 7.9 57.7 7.6 57.7 7.3 C 57.7 7.3 58.6 7.3 58.6 7.3 C 58.6 7.6 58.7 7.8 58.9 7.9 C 59.1 8 59.4 8.1 59.7 8.1 C 59.8 8.1 59.9 8.1 60 8.1 C 60.1 8 60.2 8 60.3 8 C 60.4 7.9 60.5 7.8 60.6 7.8 C 60.6 7.7 60.7 7.6 60.7 7.4 C 60.7 7.3 60.6 7.2 60.5 7.1 C 60.4 7.1 60.3 7 60.2 6.9 C 60.1 6.9 59.9 6.8 59.7 6.8 C 59.6 6.7 59.4 6.7 59.2 6.6 C 59.1 6.6 59 6.5 58.8 6.4 C 58.7 6.4 58.6 6.3 58.5 6.2 C 58.4 6.1 58.3 6 58.3 5.9 C 58.2 5.7 58.2 5.6 58.2 5.4 C 58.2 5.2 58.3 4.9 58.4 4.8 C 58.5 4.6 58.6 4.4 58.8 4.3 C 59 4.2 59.2 4.1 59.4 4.1 C 59.6 4 59.9 4 60.1 4 C 60.4 4 60.6 4 60.8 4.1 C 61.1 4.1 61.2 4.2 61.4 4.3 C 61.6 4.4 61.7 4.6 61.8 4.8 C 61.9 5 61.9 5.2 61.9 5.5 C 61.9 5.5 61 5.5 61 5.5 Z M 63.3 7.5 C 63.3 7.6 63.3 7.7 63.4 7.8 C 63.4 7.9 63.5 7.9 63.6 8 C 63.7 8 63.7 8 63.8 8.1 C 63.9 8.1 64 8.1 64.1 8.1 C 64.4 8.1 64.6 8 64.8 8 C 64.9 7.9 65.1 7.8 65.2 7.6 C 65.3 7.5 65.4 7.3 65.4 7.1 C 65.5 6.9 65.6 6.7 65.6 6.5 C 65.6 6.5 65.6 6.5 65.6 6.5 C 65.5 6.5 65.4 6.6 65.3 6.6 C 65.2 6.7 65 6.7 64.9 6.7 C 64.8 6.7 64.6 6.7 64.4 6.7 C 64.2 6.7 64.1 6.8 63.9 6.8 C 63.7 6.9 63.6 6.9 63.5 7.1 C 63.4 7.2 63.3 7.3 63.3 7.5 Z M 66.4 7.4 C 66.4 7.5 66.4 7.6 66.3 7.7 C 66.3 7.7 66.3 7.8 66.3 7.9 C 66.3 8 66.3 8 66.3 8 C 66.4 8.1 66.4 8.1 66.5 8.1 C 66.6 8.1 66.6 8.1 66.7 8.1 C 66.8 8.1 66.8 8 66.9 8 C 66.9 8 66.7 8.8 66.7 8.8 C 66.6 8.8 66.5 8.8 66.3 8.9 C 66.2 8.9 66.1 8.9 65.9 8.9 C 65.7 8.9 65.6 8.8 65.5 8.7 C 65.4 8.6 65.3 8.5 65.3 8.3 C 65.1 8.5 64.9 8.7 64.6 8.8 C 64.3 8.9 64 8.9 63.7 8.9 C 63.5 8.9 63.4 8.9 63.2 8.8 C 63 8.8 62.9 8.7 62.7 8.6 C 62.6 8.5 62.5 8.4 62.4 8.2 C 62.3 8 62.3 7.9 62.3 7.7 C 62.3 7.4 62.3 7.1 62.4 6.9 C 62.5 6.7 62.7 6.6 62.9 6.5 C 63.1 6.3 63.3 6.2 63.5 6.2 C 63.7 6.1 64 6.1 64.2 6.1 C 64.6 6 64.9 6 65.3 6 C 65.4 6 65.6 5.9 65.7 5.8 C 65.8 5.7 65.8 5.5 65.8 5.4 C 65.8 5.1 65.7 5 65.6 4.9 C 65.4 4.8 65.2 4.8 65 4.8 C 64.7 4.8 64.5 4.9 64.3 5 C 64.1 5.1 63.9 5.2 63.9 5.5 C 63.9 5.5 62.9 5.5 62.9 5.5 C 62.9 5.2 63 5 63.2 4.8 C 63.3 4.6 63.5 4.5 63.6 4.3 C 63.8 4.2 64.1 4.1 64.3 4.1 C 64.5 4 64.8 4 65.1 4 C 65.5 4 65.8 4 66.1 4.1 C 66.3 4.2 66.5 4.3 66.6 4.4 C 66.7 4.5 66.8 4.6 66.8 4.8 C 66.8 4.9 66.8 5 66.8 5.1 C 66.8 5.3 66.8 5.5 66.7 5.8 C 66.7 5.8 66.4 7.4 66.4 7.4 Z M 73.9 2.3 L 75 2.3 L 73.9 7.8 L 77.1 7.8 L 76.9 8.8 L 72.6 8.8 L 73.9 2.3 Z M 79 2.3 L 80 2.3 L 79.8 3.3 L 78.8 3.3 L 79 2.3 Z M 78.7 4.1 L 79.7 4.1 L 78.7 8.8 L 77.7 8.8 L 78.7 4.1 Z M 81 4.1 L 81.9 4.1 L 81.8 4.8 C 81.8 4.8 81.82 4.8 81.8 4.8 C 82 4.5 82.2 4.3 82.5 4.2 C 82.8 4.1 83.1 4 83.4 4 C 83.7 4 84 4.1 84.2 4.2 C 84.4 4.3 84.5 4.5 84.6 4.8 C 84.8 4.6 85 4.4 85.3 4.2 C 85.6 4.1 85.8 4 86.2 4 C 86.6 4 87 4.1 87.2 4.3 C 87.4 4.6 87.5 4.9 87.5 5.2 C 87.5 5.3 87.5 5.4 87.5 5.5 C 87.5 5.6 87.4 5.7 87.4 5.8 C 87.42 5.8 86.8 8.8 86.8 8.8 L 85.8 8.8 C 85.8 8.8 86.38 6.02 86.4 6 C 86.4 6 86.4 5.9 86.4 5.8 C 86.4 5.7 86.5 5.6 86.5 5.5 C 86.5 5.4 86.5 5.3 86.4 5.2 C 86.4 5.2 86.4 5.1 86.3 5 C 86.3 5 86.2 4.9 86.2 4.9 C 86.1 4.8 86 4.8 85.8 4.8 C 85.6 4.8 85.5 4.8 85.3 4.9 C 85.1 5 85 5.1 84.9 5.2 C 84.8 5.4 84.7 5.5 84.6 5.6 C 84.6 5.8 84.5 5.9 84.5 6.1 C 84.49 6.06 83.9 8.8 83.9 8.8 L 82.9 8.8 C 82.9 8.8 83.43 6.22 83.4 6.2 C 83.5 6.1 83.5 6 83.5 5.8 C 83.6 5.7 83.6 5.5 83.6 5.4 C 83.6 5.2 83.5 5.1 83.4 5 C 83.4 4.9 83.2 4.8 83 4.8 C 82.8 4.8 82.6 4.8 82.5 4.9 C 82.4 5 82.2 5.1 82.1 5.2 C 82 5.3 81.9 5.4 81.8 5.6 C 81.7 5.7 81.6 5.9 81.6 6.1 C 81.59 6.08 81 8.8 81 8.8 L 80 8.8 L 81 4.1 Z M 93.8 1.7 L 94.7 1.7 L 94.7 10.7 L 93.8 10.7 L 93.8 1.7 Z M 101.8 2.3 L 103.3 2.3 L 104 7.2 L 104 7.2 L 106.8 2.3 L 108.4 2.3 L 107.1 8.8 L 106 8.8 L 107.1 3.6 L 107.1 3.6 L 104.2 8.8 L 103.3 8.8 L 102.5 3.6 L 102.5 3.6 L 101.5 8.8 L 100.4 8.8 L 101.8 2.3 Z M 109.7 6.8 C 109.7 7 109.7 7.1 109.8 7.3 C 109.8 7.4 109.8 7.5 109.9 7.6 C 110 7.7 110.1 7.8 110.2 7.9 C 110.3 7.9 110.5 8 110.7 8 C 110.9 8 111.2 7.9 111.4 7.8 C 111.6 7.6 111.7 7.5 111.9 7.3 C 112 7.1 112.1 6.9 112.1 6.6 C 112.2 6.4 112.2 6.1 112.2 5.9 C 112.2 5.6 112.1 5.3 112 5.1 C 111.8 4.9 111.5 4.8 111.2 4.8 C 110.9 4.8 110.7 4.9 110.5 5 C 110.3 5.1 110.2 5.3 110.1 5.5 C 109.9 5.7 109.8 5.9 109.8 6.1 C 109.7 6.4 109.7 6.6 109.7 6.8 Z M 112.7 8.6 C 112.6 9 112.5 9.3 112.4 9.6 C 112.3 9.8 112.1 10 111.9 10.2 C 111.7 10.3 111.5 10.4 111.3 10.5 C 111 10.6 110.7 10.6 110.3 10.6 C 110 10.6 109.8 10.6 109.6 10.5 C 109.3 10.5 109.1 10.4 108.9 10.3 C 108.7 10.2 108.6 10 108.5 9.8 C 108.4 9.6 108.3 9.4 108.3 9.1 C 108.3 9.1 109.3 9.1 109.3 9.1 C 109.4 9.4 109.5 9.6 109.7 9.7 C 109.9 9.8 110.1 9.9 110.4 9.9 C 110.6 9.9 110.8 9.8 111 9.8 C 111.1 9.7 111.2 9.6 111.3 9.5 C 111.4 9.4 111.5 9.2 111.6 9.1 C 111.6 8.9 111.7 8.7 111.7 8.5 C 111.72 8.55 111.8 8.1 111.8 8.1 C 111.8 8.1 111.8 8.07 111.8 8.1 C 111.5 8.5 111 8.8 110.5 8.8 C 109.9 8.8 109.5 8.6 109.1 8.3 C 108.8 7.9 108.7 7.5 108.7 6.9 C 108.7 6.5 108.7 6.2 108.8 5.8 C 108.9 5.5 109.1 5.2 109.3 4.9 C 109.5 4.6 109.7 4.4 110 4.2 C 110.3 4.1 110.7 4 111.1 4 C 111.4 4 111.7 4.1 112 4.2 C 112.2 4.3 112.4 4.6 112.5 4.9 C 112.52 4.9 112.5 4.9 112.5 4.9 L 112.7 4.1 L 113.6 4.1 C 113.6 4.1 112.66 8.65 112.7 8.6 Z M 114.9 7.5 C 114.9 7.6 114.9 7.7 115 7.8 C 115 7.9 115.1 7.9 115.1 8 C 115.2 8 115.3 8 115.4 8.1 C 115.5 8.1 115.6 8.1 115.7 8.1 C 115.9 8.1 116.2 8 116.3 8 C 116.5 7.9 116.6 7.8 116.8 7.6 C 116.9 7.5 116.9 7.3 117 7.1 C 117.1 6.9 117.1 6.7 117.2 6.5 C 117.2 6.5 117.1 6.5 117.1 6.5 C 117.1 6.5 117 6.6 116.9 6.6 C 116.7 6.7 116.6 6.7 116.5 6.7 C 116.4 6.7 116.2 6.7 116 6.7 C 115.8 6.7 115.6 6.8 115.5 6.8 C 115.3 6.9 115.2 6.9 115.1 7.1 C 114.9 7.2 114.9 7.3 114.9 7.5 Z M 118 7.4 C 117.9 7.5 117.9 7.6 117.9 7.7 C 117.9 7.7 117.9 7.8 117.9 7.9 C 117.9 8 117.9 8 117.9 8 C 117.9 8.1 118 8.1 118.1 8.1 C 118.1 8.1 118.2 8.1 118.3 8.1 C 118.3 8.1 118.4 8 118.4 8 C 118.4 8 118.3 8.8 118.3 8.8 C 118.2 8.8 118 8.8 117.9 8.9 C 117.8 8.9 117.6 8.9 117.5 8.9 C 117.3 8.9 117.2 8.8 117.1 8.7 C 116.9 8.6 116.9 8.5 116.9 8.3 C 116.7 8.5 116.4 8.7 116.1 8.8 C 115.9 8.9 115.6 8.9 115.3 8.9 C 115.1 8.9 114.9 8.9 114.7 8.8 C 114.6 8.8 114.4 8.7 114.3 8.6 C 114.2 8.5 114 8.4 114 8.2 C 113.9 8 113.8 7.9 113.8 7.7 C 113.8 7.4 113.9 7.1 114 6.9 C 114.1 6.7 114.3 6.6 114.4 6.5 C 114.6 6.3 114.8 6.2 115.1 6.2 C 115.3 6.1 115.5 6.1 115.8 6.1 C 116.1 6 116.5 6 116.8 6 C 117 6 117.2 5.9 117.2 5.8 C 117.3 5.7 117.4 5.5 117.4 5.4 C 117.4 5.1 117.3 5 117.1 4.9 C 117 4.8 116.8 4.8 116.6 4.8 C 116.3 4.8 116 4.9 115.8 5 C 115.6 5.1 115.5 5.2 115.4 5.5 C 115.4 5.5 114.5 5.5 114.5 5.5 C 114.5 5.2 114.6 5 114.7 4.8 C 114.9 4.6 115 4.5 115.2 4.3 C 115.4 4.2 115.6 4.1 115.9 4.1 C 116.1 4 116.4 4 116.6 4 C 117.1 4 117.4 4 117.6 4.1 C 117.9 4.2 118 4.3 118.2 4.4 C 118.3 4.5 118.3 4.6 118.4 4.8 C 118.4 4.9 118.4 5 118.4 5.1 C 118.4 5.3 118.4 5.5 118.3 5.8 C 118.3 5.8 118 7.4 118 7.4 Z M 125.3 2.3 L 126.4 2.3 L 125.6 6 L 125.6 6 L 127.7 4.1 L 129 4.1 L 127 5.8 L 128.1 8.8 L 127 8.8 L 126.2 6.5 L 125.4 7.2 L 125 8.8 L 124 8.8 L 125.3 2.3 Z M 132.8 8.8 L 131.9 8.8 L 132 8.1 C 132 8.1 131.99 8.08 132 8.1 C 131.8 8.3 131.6 8.5 131.3 8.7 C 131 8.8 130.7 8.9 130.4 8.9 C 129.9 8.9 129.6 8.8 129.4 8.6 C 129.1 8.3 129 8 129 7.7 C 129 7.6 129 7.5 129 7.4 C 129 7.3 129.1 7.2 129.1 7.1 C 129.07 7.09 129.7 4.1 129.7 4.1 L 130.7 4.1 C 130.7 4.1 130.12 6.99 130.1 7 C 130.1 7.1 130.1 7.1 130.1 7.2 C 130.1 7.3 130.1 7.4 130.1 7.4 C 130.1 7.5 130.1 7.5 130.1 7.6 C 130.1 7.7 130.1 7.7 130.1 7.8 C 130.2 7.9 130.2 8 130.3 8 C 130.4 8.1 130.6 8.1 130.8 8.1 C 131 8.1 131.1 8 131.3 8 C 131.5 7.9 131.6 7.8 131.7 7.6 C 131.9 7.5 132 7.3 132.1 7.2 C 132.1 7 132.2 6.8 132.2 6.6 C 132.24 6.64 132.8 4.1 132.8 4.1 L 133.8 4.1 L 132.8 8.8 Z M 135.4 2.3 L 136.4 2.3 L 135.9 4.8 C 135.9 4.8 135.89 4.78 135.9 4.8 C 136.1 4.5 136.3 4.4 136.6 4.2 C 136.8 4.1 137.1 4 137.4 4 C 137.9 4 138.2 4.1 138.5 4.3 C 138.7 4.6 138.8 4.9 138.8 5.2 C 138.8 5.3 138.8 5.4 138.8 5.5 C 138.8 5.6 138.8 5.7 138.7 5.8 C 138.74 5.8 138.1 8.8 138.1 8.8 L 137.1 8.8 C 137.1 8.8 137.68 5.9 137.7 5.9 C 137.7 5.8 137.7 5.8 137.7 5.7 C 137.7 5.6 137.8 5.5 137.8 5.5 C 137.8 5.4 137.8 5.4 137.8 5.3 C 137.7 5.2 137.7 5.2 137.7 5.1 C 137.6 5 137.6 4.9 137.5 4.9 C 137.4 4.8 137.2 4.8 137 4.8 C 136.8 4.8 136.7 4.8 136.5 4.9 C 136.3 5 136.2 5.1 136.1 5.3 C 136 5.4 135.8 5.5 135.8 5.7 C 135.7 5.9 135.6 6.1 135.6 6.3 C 135.57 6.25 135 8.8 135 8.8 L 134 8.8 L 135.4 2.3 Z M 140.3 7.5 C 140.3 7.6 140.4 7.7 140.4 7.8 C 140.5 7.9 140.5 7.9 140.6 8 C 140.7 8 140.8 8 140.9 8.1 C 141 8.1 141.1 8.1 141.1 8.1 C 141.4 8.1 141.6 8 141.8 8 C 142 7.9 142.1 7.8 142.2 7.6 C 142.3 7.5 142.4 7.3 142.5 7.1 C 142.5 6.9 142.6 6.7 142.6 6.5 C 142.6 6.5 142.6 6.5 142.6 6.5 C 142.5 6.5 142.4 6.6 142.3 6.6 C 142.2 6.7 142.1 6.7 142 6.7 C 141.8 6.7 141.6 6.7 141.5 6.7 C 141.3 6.7 141.1 6.8 140.9 6.8 C 140.8 6.9 140.6 6.9 140.5 7.1 C 140.4 7.2 140.3 7.3 140.3 7.5 Z M 143.4 7.4 C 143.4 7.5 143.4 7.6 143.4 7.7 C 143.3 7.7 143.3 7.8 143.3 7.9 C 143.3 8 143.3 8 143.4 8 C 143.4 8.1 143.5 8.1 143.5 8.1 C 143.6 8.1 143.7 8.1 143.7 8.1 C 143.8 8.1 143.8 8 143.9 8 C 143.9 8 143.7 8.8 143.7 8.8 C 143.6 8.8 143.5 8.8 143.3 8.9 C 143.2 8.9 143.1 8.9 142.9 8.9 C 142.8 8.9 142.6 8.8 142.5 8.7 C 142.4 8.6 142.3 8.5 142.3 8.3 C 142.1 8.5 141.9 8.7 141.6 8.8 C 141.3 8.9 141 8.9 140.8 8.9 C 140.6 8.9 140.4 8.9 140.2 8.8 C 140 8.8 139.9 8.7 139.7 8.6 C 139.6 8.5 139.5 8.4 139.4 8.2 C 139.3 8 139.3 7.9 139.3 7.7 C 139.3 7.4 139.4 7.1 139.5 6.9 C 139.6 6.7 139.7 6.6 139.9 6.5 C 140.1 6.3 140.3 6.2 140.5 6.2 C 140.8 6.1 141 6.1 141.3 6.1 C 141.6 6 141.9 6 142.3 6 C 142.5 6 142.6 5.9 142.7 5.8 C 142.8 5.7 142.8 5.5 142.8 5.4 C 142.8 5.1 142.7 5 142.6 4.9 C 142.4 4.8 142.2 4.8 142 4.8 C 141.8 4.8 141.5 4.9 141.3 5 C 141.1 5.1 141 5.2 140.9 5.5 C 140.9 5.5 139.9 5.5 139.9 5.5 C 140 5.2 140.1 5 140.2 4.8 C 140.3 4.6 140.5 4.5 140.7 4.3 C 140.9 4.2 141.1 4.1 141.3 4.1 C 141.6 4 141.8 4 142.1 4 C 142.5 4 142.9 4 143.1 4.1 C 143.3 4.2 143.5 4.3 143.6 4.4 C 143.7 4.5 143.8 4.6 143.8 4.8 C 143.8 4.9 143.8 5 143.8 5.1 C 143.8 5.3 143.8 5.5 143.8 5.8 C 143.8 5.8 143.4 7.4 143.4 7.4 Z M 150.5 4.1 L 151.4 4.1 L 151.3 4.8 C 151.3 4.8 151.33 4.8 151.3 4.8 C 151.5 4.5 151.8 4.3 152 4.2 C 152.3 4.1 152.6 4 152.9 4 C 153.2 4 153.5 4.1 153.7 4.2 C 153.9 4.3 154 4.5 154.1 4.8 C 154.3 4.6 154.5 4.4 154.8 4.2 C 155.1 4.1 155.4 4 155.7 4 C 156.1 4 156.5 4.1 156.7 4.3 C 156.9 4.6 157 4.9 157 5.2 C 157 5.3 157 5.4 157 5.5 C 157 5.6 156.9 5.7 156.9 5.8 C 156.93 5.8 156.3 8.8 156.3 8.8 L 155.3 8.8 C 155.3 8.8 155.88 6.02 155.9 6 C 155.9 6 155.9 5.9 155.9 5.8 C 156 5.7 156 5.6 156 5.5 C 156 5.4 156 5.3 156 5.2 C 155.9 5.2 155.9 5.1 155.9 5 C 155.8 5 155.7 4.9 155.7 4.9 C 155.6 4.8 155.5 4.8 155.3 4.8 C 155.1 4.8 155 4.8 154.8 4.9 C 154.7 5 154.5 5.1 154.4 5.2 C 154.3 5.4 154.2 5.5 154.1 5.6 C 154.1 5.8 154 5.9 154 6.1 C 154 6.06 153.4 8.8 153.4 8.8 L 152.4 8.8 C 152.4 8.8 152.94 6.22 152.9 6.2 C 153 6.1 153 6 153 5.8 C 153.1 5.7 153.1 5.5 153.1 5.4 C 153.1 5.2 153 5.1 153 5 C 152.9 4.9 152.7 4.8 152.5 4.8 C 152.3 4.8 152.1 4.8 152 4.9 C 151.9 5 151.7 5.1 151.6 5.2 C 151.5 5.3 151.4 5.4 151.3 5.6 C 151.2 5.7 151.1 5.9 151.1 6.1 C 151.1 6.08 150.5 8.8 150.5 8.8 L 149.5 8.8 L 150.5 4.1 Z M 161.6 8.8 L 160.6 8.8 L 160.8 8.1 C 160.8 8.1 160.77 8.08 160.8 8.1 C 160.6 8.3 160.4 8.5 160.1 8.7 C 159.8 8.8 159.5 8.9 159.2 8.9 C 158.7 8.9 158.4 8.8 158.1 8.6 C 157.9 8.3 157.8 8 157.8 7.7 C 157.8 7.6 157.8 7.5 157.8 7.4 C 157.8 7.3 157.8 7.2 157.9 7.1 C 157.86 7.09 158.5 4.1 158.5 4.1 L 159.5 4.1 C 159.5 4.1 158.91 6.99 158.9 7 C 158.9 7.1 158.9 7.1 158.9 7.2 C 158.8 7.3 158.8 7.4 158.8 7.4 C 158.8 7.5 158.8 7.5 158.8 7.6 C 158.8 7.7 158.9 7.7 158.9 7.8 C 159 7.9 159 8 159.1 8 C 159.2 8.1 159.4 8.1 159.5 8.1 C 159.7 8.1 159.9 8 160.1 8 C 160.3 7.9 160.4 7.8 160.5 7.6 C 160.7 7.5 160.8 7.3 160.8 7.2 C 160.9 7 161 6.8 161 6.6 C 161.02 6.64 161.5 4.1 161.5 4.1 L 162.6 4.1 L 161.6 8.8 Z M 164.1 2.3 L 165.2 2.3 L 163.8 8.8 L 162.8 8.8 L 164.1 2.3 Z M 166.1 7.5 C 166.1 7.6 166.1 7.7 166.2 7.8 C 166.2 7.9 166.3 7.9 166.4 8 C 166.5 8 166.6 8 166.6 8.1 C 166.7 8.1 166.8 8.1 166.9 8.1 C 167.2 8.1 167.4 8 167.6 8 C 167.7 7.9 167.9 7.8 168 7.6 C 168.1 7.5 168.2 7.3 168.3 7.1 C 168.3 6.9 168.4 6.7 168.4 6.5 C 168.4 6.5 168.4 6.5 168.4 6.5 C 168.3 6.5 168.2 6.6 168.1 6.6 C 168 6.7 167.9 6.7 167.7 6.7 C 167.6 6.7 167.4 6.7 167.2 6.7 C 167.1 6.7 166.9 6.8 166.7 6.8 C 166.6 6.9 166.4 6.9 166.3 7.1 C 166.2 7.2 166.1 7.3 166.1 7.5 Z M 169.2 7.4 C 169.2 7.5 169.2 7.6 169.1 7.7 C 169.1 7.7 169.1 7.8 169.1 7.9 C 169.1 8 169.1 8 169.2 8 C 169.2 8.1 169.2 8.1 169.3 8.1 C 169.4 8.1 169.5 8.1 169.5 8.1 C 169.6 8.1 169.6 8 169.7 8 C 169.7 8 169.5 8.8 169.5 8.8 C 169.4 8.8 169.3 8.8 169.1 8.9 C 169 8.9 168.9 8.9 168.7 8.9 C 168.6 8.9 168.4 8.8 168.3 8.7 C 168.2 8.6 168.1 8.5 168.1 8.3 C 167.9 8.5 167.7 8.7 167.4 8.8 C 167.1 8.9 166.8 8.9 166.5 8.9 C 166.3 8.9 166.2 8.9 166 8.8 C 165.8 8.8 165.7 8.7 165.5 8.6 C 165.4 8.5 165.3 8.4 165.2 8.2 C 165.1 8 165.1 7.9 165.1 7.7 C 165.1 7.4 165.1 7.1 165.3 6.9 C 165.4 6.7 165.5 6.6 165.7 6.5 C 165.9 6.3 166.1 6.2 166.3 6.2 C 166.5 6.1 166.8 6.1 167 6.1 C 167.4 6 167.7 6 168.1 6 C 168.3 6 168.4 5.9 168.5 5.8 C 168.6 5.7 168.6 5.5 168.6 5.4 C 168.6 5.1 168.5 5 168.4 4.9 C 168.2 4.8 168 4.8 167.8 4.8 C 167.5 4.8 167.3 4.9 167.1 5 C 166.9 5.1 166.7 5.2 166.7 5.5 C 166.7 5.5 165.7 5.5 165.7 5.5 C 165.7 5.2 165.8 5 166 4.8 C 166.1 4.6 166.3 4.5 166.5 4.3 C 166.7 4.2 166.9 4.1 167.1 4.1 C 167.4 4 167.6 4 167.9 4 C 168.3 4 168.6 4 168.9 4.1 C 169.1 4.2 169.3 4.3 169.4 4.4 C 169.5 4.5 169.6 4.6 169.6 4.8 C 169.6 4.9 169.6 5 169.6 5.1 C 169.6 5.3 169.6 5.5 169.5 5.8 C 169.5 5.8 169.2 7.4 169.2 7.4 Z M 178.5 5.5 C 178.5 5.2 178.4 5.1 178.3 5 C 178.1 4.9 177.9 4.8 177.6 4.8 C 177.5 4.8 177.4 4.8 177.3 4.8 C 177.2 4.9 177.1 4.9 177.1 4.9 C 177 5 176.9 5 176.9 5.1 C 176.8 5.2 176.8 5.3 176.8 5.4 C 176.8 5.5 176.9 5.6 176.9 5.7 C 177 5.7 177.1 5.8 177.3 5.8 C 177.4 5.9 177.5 5.9 177.7 6 C 177.9 6 178 6.1 178.2 6.1 C 178.3 6.2 178.5 6.2 178.6 6.3 C 178.7 6.4 178.8 6.5 178.9 6.6 C 179 6.6 179.1 6.8 179.2 6.9 C 179.2 7 179.3 7.2 179.3 7.4 C 179.3 7.6 179.2 7.9 179.1 8.1 C 179 8.3 178.8 8.4 178.6 8.5 C 178.4 8.7 178.2 8.8 178 8.8 C 177.7 8.9 177.5 8.9 177.2 8.9 C 176.9 8.9 176.7 8.9 176.4 8.8 C 176.2 8.8 176 8.7 175.8 8.6 C 175.7 8.4 175.5 8.3 175.4 8.1 C 175.3 7.9 175.3 7.6 175.3 7.3 C 175.3 7.3 176.2 7.3 176.2 7.3 C 176.2 7.6 176.3 7.8 176.5 7.9 C 176.7 8 177 8.1 177.3 8.1 C 177.4 8.1 177.5 8.1 177.6 8.1 C 177.7 8 177.8 8 177.9 8 C 178 7.9 178.1 7.8 178.1 7.8 C 178.2 7.7 178.2 7.6 178.2 7.4 C 178.2 7.3 178.2 7.2 178.1 7.1 C 178 7.1 177.9 7 177.8 6.9 C 177.6 6.9 177.5 6.8 177.3 6.8 C 177.1 6.7 177 6.7 176.8 6.6 C 176.7 6.6 176.5 6.5 176.4 6.4 C 176.3 6.4 176.2 6.3 176.1 6.2 C 176 6.1 175.9 6 175.9 5.9 C 175.8 5.7 175.8 5.6 175.8 5.4 C 175.8 5.2 175.8 4.9 176 4.8 C 176.1 4.6 176.2 4.4 176.4 4.3 C 176.6 4.2 176.8 4.1 177 4.1 C 177.2 4 177.5 4 177.7 4 C 178 4 178.2 4 178.4 4.1 C 178.6 4.1 178.8 4.2 179 4.3 C 179.2 4.4 179.3 4.6 179.4 4.8 C 179.5 5 179.5 5.2 179.5 5.5 C 179.5 5.5 178.5 5.5 178.5 5.5 Z M 180.9 7.5 C 180.9 7.6 180.9 7.7 181 7.8 C 181 7.9 181.1 7.9 181.2 8 C 181.2 8 181.3 8 181.4 8.1 C 181.5 8.1 181.6 8.1 181.7 8.1 C 182 8.1 182.2 8 182.3 8 C 182.5 7.9 182.7 7.8 182.8 7.6 C 182.9 7.5 183 7.3 183 7.1 C 183.1 6.9 183.1 6.7 183.2 6.5 C 183.2 6.5 183.2 6.5 183.2 6.5 C 183.1 6.5 183 6.6 182.9 6.6 C 182.7 6.7 182.6 6.7 182.5 6.7 C 182.4 6.7 182.2 6.7 182 6.7 C 181.8 6.7 181.7 6.8 181.5 6.8 C 181.3 6.9 181.2 6.9 181.1 7.1 C 180.9 7.2 180.9 7.3 180.9 7.5 Z M 184 7.4 C 184 7.5 183.9 7.6 183.9 7.7 C 183.9 7.7 183.9 7.8 183.9 7.9 C 183.9 8 183.9 8 183.9 8 C 184 8.1 184 8.1 184.1 8.1 C 184.2 8.1 184.2 8.1 184.3 8.1 C 184.3 8.1 184.4 8 184.5 8 C 184.5 8 184.3 8.8 184.3 8.8 C 184.2 8.8 184 8.8 183.9 8.9 C 183.8 8.9 183.6 8.9 183.5 8.9 C 183.3 8.9 183.2 8.8 183.1 8.7 C 183 8.6 182.9 8.5 182.9 8.3 C 182.7 8.5 182.4 8.7 182.2 8.8 C 181.9 8.9 181.6 8.9 181.3 8.9 C 181.1 8.9 180.9 8.9 180.8 8.8 C 180.6 8.8 180.4 8.7 180.3 8.6 C 180.2 8.5 180.1 8.4 180 8.2 C 179.9 8 179.9 7.9 179.9 7.7 C 179.9 7.4 179.9 7.1 180 6.9 C 180.1 6.7 180.3 6.6 180.5 6.5 C 180.6 6.3 180.8 6.2 181.1 6.2 C 181.3 6.1 181.6 6.1 181.8 6.1 C 182.2 6 182.5 6 182.8 6 C 183 6 183.2 5.9 183.3 5.8 C 183.3 5.7 183.4 5.5 183.4 5.4 C 183.4 5.1 183.3 5 183.1 4.9 C 183 4.8 182.8 4.8 182.6 4.8 C 182.3 4.8 182.1 4.9 181.9 5 C 181.6 5.1 181.5 5.2 181.4 5.5 C 181.4 5.5 180.5 5.5 180.5 5.5 C 180.5 5.2 180.6 5 180.7 4.8 C 180.9 4.6 181 4.5 181.2 4.3 C 181.4 4.2 181.6 4.1 181.9 4.1 C 182.1 4 182.4 4 182.7 4 C 183.1 4 183.4 4 183.6 4.1 C 183.9 4.2 184.1 4.3 184.2 4.4 C 184.3 4.5 184.3 4.6 184.4 4.8 C 184.4 4.9 184.4 5 184.4 5.1 C 184.4 5.3 184.4 5.5 184.3 5.8 C 184.3 5.8 184 7.4 184 7.4 Z " stroke="none" fill="#fff"/>
  </g>
</svg>