<?xml version="1.0" standalone="no"?>
<!DOCTYPE svg PUBLIC "-//W3C//DTD SVG 1.1//EN" "http://www.w3.org/Graphics/SVG/1.1/DTD/svg11.dtd">
<svg xmlns="http://www.w3.org/2000/svg" version="1.1" width="120px" height="13.9px" viewBox="0 -1 120 13.9" style="top:-1px">
  <desc>LAMBDA p 8</desc>
  <defs/>
  <g id="Polygon21047">
    <path d="M 54.4 3.4 L 55.6 3.4 L 55.6 8.6 L 57.4 8.6 L 57.4 9.8 L 54.4 9.8 L 54.4 3.4 Z M 60.3 3.4 L 61.6 3.4 L 64.1 9.8 L 62.8 9.8 L 62.3 8.5 L 59.7 8.5 L 59.1 9.8 L 57.9 9.8 L 60.3 3.4 Z M 61 5.1 L 60.1 7.3 L 61.8 7.3 L 61 5.1 Z M 65.7 3.4 L 66.9 3.4 L 68.4 7.9 L 69.9 3.4 L 71.1 3.4 L 72.1 9.8 L 71 9.8 L 70.3 5.7 L 68.9 9.8 L 67.8 9.8 L 66.4 5.7 L 65.7 9.8 L 64.5 9.8 L 65.7 3.4 Z M 73.1 9.8 L 73.1 3.4 C 73.1 3.4 74.15 3.36 74.1 3.4 C 74.7 3.4 75.2 3.4 75.4 3.5 C 75.8 3.6 76.1 3.8 76.4 4 C 76.6 4.3 76.7 4.6 76.7 5 C 76.7 5.3 76.7 5.5 76.5 5.7 C 76.4 5.9 76.3 6.1 76 6.3 C 76.4 6.4 76.7 6.7 76.9 7 C 77.1 7.2 77.2 7.6 77.2 7.9 C 77.2 8.3 77.1 8.6 76.9 8.9 C 76.7 9.2 76.5 9.5 76.2 9.6 C 75.9 9.7 75.5 9.8 74.9 9.8 C 74.94 9.82 73.1 9.8 73.1 9.8 Z M 74.4 4.5 L 74.4 5.9 C 74.4 5.9 74.63 5.89 74.6 5.9 C 74.9 5.9 75.2 5.8 75.3 5.7 C 75.4 5.6 75.5 5.4 75.5 5.2 C 75.5 5 75.4 4.8 75.3 4.7 C 75.2 4.6 75 4.5 74.7 4.5 C 74.68 4.53 74.4 4.5 74.4 4.5 Z M 74.4 7 L 74.4 8.6 C 74.4 8.6 74.67 8.65 74.7 8.6 C 75.2 8.6 75.5 8.6 75.7 8.5 C 75.9 8.3 76 8.1 76 7.9 C 76 7.6 75.9 7.4 75.7 7.2 C 75.4 7.1 75.1 7 74.6 7 C 74.61 6.99 74.4 7 74.4 7 Z M 78.4 3.4 C 78.4 3.4 79.81 3.36 79.8 3.4 C 80.8 3.4 81.4 3.5 81.9 3.7 C 82.4 3.9 82.7 4.3 83 4.8 C 83.3 5.4 83.5 6 83.5 6.7 C 83.5 7.2 83.4 7.6 83.2 8.1 C 83.1 8.5 82.8 8.8 82.5 9.1 C 82.3 9.4 81.9 9.6 81.6 9.7 C 81.3 9.8 80.7 9.8 79.8 9.8 C 79.83 9.82 78.4 9.8 78.4 9.8 L 78.4 3.4 Z M 79.6 4.5 L 79.6 8.6 C 79.6 8.6 80.15 8.62 80.1 8.6 C 80.7 8.6 81.1 8.6 81.4 8.4 C 81.6 8.3 81.8 8.1 82 7.8 C 82.2 7.5 82.2 7.1 82.2 6.7 C 82.2 6 82 5.4 81.7 5.1 C 81.3 4.7 80.8 4.5 80 4.5 C 79.99 4.54 79.6 4.5 79.6 4.5 Z M 86.6 3.4 L 87.9 3.4 L 90.4 9.8 L 89.1 9.8 L 88.6 8.5 L 85.9 8.5 L 85.4 9.8 L 84.1 9.8 L 86.6 3.4 Z M 87.3 5.1 L 86.4 7.3 L 88.1 7.3 L 87.3 5.1 Z M 93.6 5 L 93.6 3.9 L 98 6.1 L 98 7.1 L 93.6 9.3 L 93.6 8.2 L 96.7 6.6 L 93.6 5 Z M 99 5 L 99 3.9 L 103.4 6.1 L 103.4 7.1 L 99 9.3 L 99 8.2 L 102.1 6.6 L 99 5 Z M 108.2 5 C 108.2 5 108.21 5.57 108.2 5.6 C 108.4 5.4 108.7 5.2 108.9 5.1 C 109.2 5 109.4 4.9 109.7 4.9 C 110.3 4.9 110.9 5.2 111.3 5.6 C 111.7 6.1 112 6.7 112 7.4 C 112 8.2 111.7 8.7 111.3 9.2 C 110.8 9.7 110.3 9.9 109.7 9.9 C 109.4 9.9 109.2 9.9 108.9 9.8 C 108.7 9.7 108.4 9.5 108.2 9.3 C 108.21 9.32 108.2 11.6 108.2 11.6 L 107 11.6 L 107 5 L 108.2 5 Z M 109.5 6 C 109.1 6 108.8 6.2 108.5 6.4 C 108.3 6.7 108.2 7 108.2 7.4 C 108.2 7.8 108.3 8.2 108.5 8.5 C 108.8 8.7 109.1 8.8 109.5 8.8 C 109.8 8.8 110.1 8.7 110.4 8.4 C 110.6 8.2 110.8 7.8 110.8 7.4 C 110.8 7 110.6 6.7 110.4 6.4 C 110.2 6.2 109.8 6 109.5 6 Z M 113.6 8.6 C 113.8 8.6 114 8.6 114.1 8.8 C 114.2 8.9 114.3 9.1 114.3 9.3 C 114.3 9.4 114.2 9.6 114.1 9.7 C 114 9.9 113.8 9.9 113.6 9.9 C 113.4 9.9 113.3 9.9 113.1 9.7 C 113 9.6 112.9 9.4 112.9 9.3 C 112.9 9.1 113 8.9 113.1 8.8 C 113.3 8.6 113.4 8.6 113.6 8.6 Z M 118.7 6.3 C 119 6.5 119.2 6.7 119.4 7 C 119.6 7.3 119.6 7.7 119.6 8 C 119.6 8.4 119.5 8.7 119.4 9 C 119.2 9.3 118.9 9.6 118.6 9.7 C 118.3 9.9 117.9 10 117.4 10 C 116.9 10 116.5 9.9 116.2 9.8 C 115.9 9.6 115.6 9.4 115.4 9.1 C 115.2 8.7 115.1 8.4 115.1 8 C 115.1 7.7 115.2 7.3 115.4 7.1 C 115.5 6.8 115.7 6.5 116 6.3 C 115.8 6.1 115.7 5.9 115.6 5.7 C 115.5 5.5 115.4 5.2 115.4 5 C 115.4 4.7 115.5 4.3 115.7 4.1 C 115.9 3.8 116.1 3.6 116.4 3.4 C 116.7 3.3 117 3.2 117.4 3.2 C 117.8 3.2 118.1 3.3 118.4 3.4 C 118.7 3.6 118.9 3.8 119.1 4.1 C 119.2 4.4 119.3 4.7 119.3 5 C 119.3 5.2 119.3 5.5 119.2 5.7 C 119.1 5.8 118.9 6.1 118.7 6.3 Z M 117.4 4.4 C 117.1 4.4 117 4.4 116.9 4.6 C 116.7 4.7 116.7 4.9 116.7 5.1 C 116.7 5.3 116.7 5.5 116.9 5.6 C 117 5.8 117.2 5.8 117.4 5.8 C 117.6 5.8 117.8 5.8 117.9 5.6 C 118 5.5 118.1 5.3 118.1 5.1 C 118.1 4.9 118 4.7 117.9 4.6 C 117.7 4.4 117.6 4.4 117.4 4.4 Z M 117.4 7 C 117.1 7 116.9 7.1 116.7 7.2 C 116.4 7.4 116.3 7.6 116.3 7.9 C 116.3 8.1 116.4 8.4 116.6 8.5 C 116.8 8.7 117.1 8.8 117.4 8.8 C 117.7 8.8 117.9 8.7 118.1 8.6 C 118.3 8.4 118.4 8.2 118.4 7.9 C 118.4 7.6 118.3 7.4 118.1 7.2 C 117.9 7.1 117.7 7 117.4 7 Z " stroke="none" fill="#000"/>
  </g>
</svg>