<?xml version="1.0" standalone="no"?>
<!DOCTYPE svg PUBLIC "-//W3C//DTD SVG 1.1//EN" "http://www.w3.org/Graphics/SVG/1.1/DTD/svg11.dtd">
<svg xmlns="http://www.w3.org/2000/svg" version="1.1" width="296.1px" height="32.9px" viewBox="0 -6 296.1 32.9" style="top:-6px">
  <desc>ANIME Mula sa p 17</desc>
  <defs/>
  <g id="Polygon35911">
    <path d="M 6.2 -0.3 L 8.3 -0.3 L 14.4 15.1 L 11.6 15.1 L 10.2 11.6 L 4.1 11.6 L 2.8 15.1 L 0 15.1 L 6.2 -0.3 Z M 9.4 9.2 L 7.2 3 L 5 9.2 L 9.4 9.2 Z M 16.6 -0.3 L 20 -0.3 L 26.8 11.2 L 26.9 11.2 L 26.9 -0.3 L 29.4 -0.3 L 29.4 15.1 L 26.2 15.1 L 19.2 3.3 L 19.1 3.3 L 19.1 15.1 L 16.6 15.1 L 16.6 -0.3 Z M 33.1 -0.3 L 35.6 -0.3 L 35.6 15.1 L 33.1 15.1 L 33.1 -0.3 Z M 39.3 -0.3 L 43.2 -0.3 L 47 10.5 L 50.8 -0.3 L 54.6 -0.3 L 54.6 15.1 L 52.2 15.1 L 52.2 2.3 L 52.1 2.3 L 47.8 15.1 L 46.1 15.1 L 41.8 2.3 L 41.7 2.3 L 41.7 15.1 L 39.3 15.1 L 39.3 -0.3 Z M 58.4 -0.3 L 67.8 -0.3 L 67.8 2.2 L 60.9 2.2 L 60.9 6 L 67.4 6 L 67.4 8.4 L 60.9 8.4 L 60.9 12.6 L 68.1 12.6 L 68.1 15.1 L 58.4 15.1 L 58.4 -0.3 Z M 79.4 -1.2 L 79.4 20.6 L 77.3 20.6 L 77.3 -1.2 L 79.4 -1.2 Z M 89.3 -0.3 L 93.2 -0.3 L 96.9 10.5 L 100.8 -0.3 L 104.6 -0.3 L 104.6 15.1 L 102.2 15.1 L 102.2 2.3 L 102.1 2.3 L 97.8 15.1 L 96.1 15.1 L 91.8 2.3 L 91.7 2.3 L 91.7 15.1 L 89.3 15.1 L 89.3 -0.3 Z M 116.9 15.1 L 114.6 15.1 L 114.6 13.4 C 114.6 13.4 114.59 13.44 114.6 13.4 C 114.1 14.5 113.2 15.4 111.6 15.4 C 109.1 15.4 108.1 13.4 108.1 11.3 C 108.15 11.26 108.1 4.7 108.1 4.7 L 110.5 4.7 C 110.5 4.7 110.55 9.95 110.5 10 C 110.5 11.1 110.6 13 112.3 13 C 113.9 13 114.5 11.8 114.5 10.4 C 114.51 10.37 114.5 4.7 114.5 4.7 L 116.9 4.7 L 116.9 15.1 Z M 120.3 -1.4 L 122.7 -1.4 L 122.7 15.1 L 120.3 15.1 L 120.3 -1.4 Z M 132 13.7 C 132 13.7 131.95 13.68 131.9 13.7 C 131.3 14.9 130.1 15.4 128.9 15.4 C 127.1 15.4 125.4 14.3 125.4 12.2 C 125.4 8.8 129 8.6 131.4 8.6 C 131.41 8.6 132 8.6 132 8.6 C 132 8.6 132.01 8.32 132 8.3 C 132 7 131.1 6.4 129.8 6.4 C 128.8 6.4 127.9 6.8 127.2 7.4 C 127.2 7.4 126 6.1 126 6.1 C 127 4.9 128.5 4.4 130.1 4.4 C 134.2 4.4 134.2 7.6 134.2 9.1 C 134.17 9.1 134.2 15.1 134.2 15.1 L 132 15.1 L 132 13.7 Z M 131.9 10.4 C 131.9 10.4 131.37 10.43 131.4 10.4 C 130 10.4 127.8 10.5 127.8 12 C 127.8 13 128.7 13.4 129.4 13.4 C 131.1 13.4 131.9 12.5 131.9 11 C 131.87 11.02 131.9 10.4 131.9 10.4 Z M 149 7.6 C 148.5 6.9 147.9 6.5 147.1 6.5 C 146.5 6.5 145.7 6.8 145.7 7.6 C 145.7 9.5 150.9 7.9 150.9 12 C 150.9 14.5 148.7 15.4 146.7 15.4 C 145.3 15.4 144 15 143 13.8 C 143 13.8 144.6 12.1 144.6 12.1 C 145.2 12.9 145.9 13.4 146.9 13.4 C 147.6 13.4 148.5 13 148.5 12.2 C 148.5 10.1 143.3 11.8 143.3 7.8 C 143.3 5.4 145.2 4.4 147.2 4.4 C 148.4 4.4 149.8 4.8 150.6 6 C 150.6 6 149 7.6 149 7.6 Z M 159.3 13.7 C 159.3 13.7 159.27 13.68 159.3 13.7 C 158.6 14.9 157.5 15.4 156.2 15.4 C 154.4 15.4 152.7 14.3 152.7 12.2 C 152.7 8.8 156.3 8.6 158.7 8.6 C 158.73 8.6 159.3 8.6 159.3 8.6 C 159.3 8.6 159.33 8.32 159.3 8.3 C 159.3 7 158.4 6.4 157.1 6.4 C 156.1 6.4 155.2 6.8 154.6 7.4 C 154.6 7.4 153.3 6.1 153.3 6.1 C 154.4 4.9 155.9 4.4 157.4 4.4 C 161.5 4.4 161.5 7.6 161.5 9.1 C 161.49 9.1 161.5 15.1 161.5 15.1 L 159.3 15.1 L 159.3 13.7 Z M 159.2 10.4 C 159.2 10.4 158.69 10.43 158.7 10.4 C 157.4 10.4 155.1 10.5 155.1 12 C 155.1 13 156 13.4 156.8 13.4 C 158.4 13.4 159.2 12.5 159.2 11 C 159.19 11.02 159.2 10.4 159.2 10.4 Z M 171.2 4.7 L 173.4 4.7 L 173.4 6.2 C 173.4 6.2 173.49 6.23 173.5 6.2 C 174.2 5 175.4 4.4 176.8 4.4 C 179.7 4.4 181.5 6.8 181.5 9.9 C 181.5 13 179.6 15.4 176.9 15.4 C 175.1 15.4 174.1 14.5 173.6 13.8 C 173.63 13.79 173.6 13.8 173.6 13.8 L 173.6 20.1 L 171.2 20.1 L 171.2 4.7 Z M 176.3 6.7 C 174.5 6.7 173.5 8.3 173.5 9.9 C 173.5 11.5 174.5 13 176.3 13 C 178.1 13 179.1 11.5 179.1 9.9 C 179.1 8.3 178.1 6.7 176.3 6.7 Z M 186 11.9 C 186.8 11.9 187.6 12.6 187.6 13.6 C 187.6 14.5 186.8 15.3 186 15.3 C 185.1 15.3 184.4 14.5 184.4 13.6 C 184.4 12.7 185.1 11.9 186 11.9 Z M 194.9 2.7 L 192.2 5.4 L 190.8 3.6 L 195.1 -0.3 L 197.3 -0.3 L 197.3 15.1 L 194.9 15.1 L 194.9 2.7 Z M 202.8 -0.3 L 212.4 -0.3 L 212.4 2.1 L 206.7 15.1 L 203.9 15.1 L 209.7 2.2 L 202.8 2.2 L 202.8 -0.3 Z " stroke="none" fill="#fff"/>
  </g>
</svg>