<?xml version="1.0" standalone="no"?>
<!DOCTYPE svg PUBLIC "-//W3C//DTD SVG 1.1//EN" "http://www.w3.org/Graphics/SVG/1.1/DTD/svg11.dtd">
<svg xmlns="http://www.w3.org/2000/svg" version="1.1" width="309px" height="31.8px" viewBox="0 -7 309 31.8" style="top:-7px">
  <desc>Panibagong alas:</desc>
  <defs/>
  <g id="Polygon39322">
    <path d="M 1.3 0.7 C 1.3 0.7 5.1 0.67 5.1 0.7 C 6.3 0.7 7.2 0.8 7.8 1 C 8.4 1.2 9 1.6 9.4 2.3 C 9.9 3 10.1 3.8 10.1 4.8 C 10.1 5.8 9.9 6.6 9.6 7.3 C 9.2 7.9 8.7 8.4 8.1 8.6 C 7.5 8.9 6.5 9.1 5.2 9.1 C 5.22 9.07 4.2 9.1 4.2 9.1 L 4.2 14 L 1.3 14 L 1.3 0.7 Z M 4.2 2.8 L 4.2 6.8 C 4.2 6.8 5.1 6.79 5.1 6.8 C 5.9 6.8 6.4 6.6 6.6 6.2 C 6.9 5.9 7 5.4 7 4.8 C 7 4.3 6.9 3.9 6.7 3.6 C 6.5 3.3 6.3 3.1 6.1 3 C 5.9 2.9 5.5 2.8 5.1 2.8 C 5.1 2.83 4.2 2.8 4.2 2.8 Z M 13.5 0.7 L 16.5 0.7 L 20.3 14 L 17.3 14 L 16.6 11.3 L 12.9 11.3 L 12.2 14 L 9.5 14 L 13.5 0.7 Z M 16.1 9 L 14.7 3.5 L 13.4 9 L 16.1 9 Z M 21.3 0.7 L 24.5 0.7 L 28 9 L 28 0.7 L 30.2 0.7 L 30.2 14 L 27.6 14 L 23.5 4.4 L 23.5 14 L 21.3 14 L 21.3 0.7 Z M 32.6 0.7 L 35.6 0.7 L 35.6 14 L 32.6 14 L 32.6 0.7 Z M 38.1 0.7 C 38.1 0.7 42.63 0.67 42.6 0.7 C 43.7 0.7 44.5 0.8 45 0.9 C 45.6 1.1 46 1.5 46.4 2 C 46.8 2.6 47 3.3 47 4.2 C 47 5.7 46.3 6.6 45.1 7.1 C 46.6 7.6 47.3 8.7 47.3 10.3 C 47.3 11.2 47.1 11.9 46.7 12.5 C 46.3 13.1 45.8 13.5 45.2 13.7 C 44.6 13.9 43.7 14 42.6 14 C 42.63 14 38.1 14 38.1 14 L 38.1 0.7 Z M 40.9 6.1 C 40.9 6.1 41.84 6.05 41.8 6.1 C 42.8 6.1 43.4 5.9 43.6 5.5 C 43.9 5.2 44 4.8 44 4.4 C 44 4 43.9 3.6 43.6 3.3 C 43.4 3 42.9 2.8 42.1 2.8 C 42.05 2.83 40.9 2.8 40.9 2.8 L 40.9 6.1 Z M 40.9 11.7 C 40.9 11.7 42.32 11.72 42.3 11.7 C 43.7 11.7 44.3 11.1 44.3 10 C 44.3 9.3 44.2 8.9 43.8 8.6 C 43.5 8.3 43 8.2 42.3 8.2 C 42.32 8.21 40.9 8.2 40.9 8.2 L 40.9 11.7 Z M 51.7 0.7 L 54.6 0.7 L 58.4 14 L 55.4 14 L 54.8 11.3 L 51 11.3 L 50.4 14 L 47.7 14 L 51.7 0.7 Z M 54.2 9 L 52.9 3.5 L 51.6 9 L 54.2 9 Z M 64 6.9 L 68.7 6.9 L 68.7 14 L 67.4 14 C 67.4 14 67.03 12.48 67 12.5 C 66.3 13.6 65.2 14.2 63.8 14.2 C 62.3 14.2 61.1 13.6 60.2 12.4 C 59.3 11.2 58.9 9.6 58.9 7.6 C 58.9 5.4 59.3 3.7 60.2 2.4 C 61.1 1.1 62.4 0.5 64.1 0.5 C 66.8 0.5 68.3 2 68.7 5 C 68.7 5 66 5.5 66 5.5 C 65.8 3.7 65.2 2.9 64.1 2.9 C 63.5 2.9 62.9 3.2 62.5 3.8 C 62.1 4.5 62 5.7 62 7.5 C 62 9.1 62.1 10.2 62.5 10.8 C 62.9 11.5 63.5 11.8 64.2 11.8 C 65.4 11.8 66 10.9 66 9.2 C 66.02 9.18 64 9.2 64 9.2 L 64 6.9 Z M 80.1 7.3 C 80.1 11.9 78.5 14.2 75.3 14.2 C 73.7 14.2 72.5 13.6 71.7 12.5 C 70.9 11.3 70.5 9.6 70.5 7.3 C 70.5 2.8 72.1 0.5 75.3 0.5 C 76.9 0.5 78.1 1 78.9 2.2 C 79.7 3.3 80.1 5 80.1 7.3 Z M 77.1 7.3 C 77.1 5.5 76.9 4.3 76.6 3.7 C 76.4 3.1 75.9 2.9 75.3 2.9 C 74.7 2.9 74.2 3.2 74 3.8 C 73.7 4.3 73.5 5.5 73.5 7.3 C 73.5 9.1 73.7 10.3 74 10.9 C 74.2 11.5 74.7 11.8 75.3 11.8 C 75.9 11.8 76.3 11.5 76.6 10.9 C 76.9 10.3 77.1 9.1 77.1 7.3 Z M 82.1 0.7 L 85.3 0.7 L 88.8 9 L 88.8 0.7 L 91 0.7 L 91 14 L 88.4 14 L 84.3 4.4 L 84.3 14 L 82.1 14 L 82.1 0.7 Z M 98.1 6.9 L 102.7 6.9 L 102.7 14 L 101.5 14 C 101.5 14 101.1 12.48 101.1 12.5 C 100.4 13.6 99.3 14.2 97.9 14.2 C 96.4 14.2 95.2 13.6 94.3 12.4 C 93.4 11.2 92.9 9.6 92.9 7.6 C 92.9 5.4 93.4 3.7 94.3 2.4 C 95.1 1.1 96.4 0.5 98.1 0.5 C 100.9 0.5 102.4 2 102.7 5 C 102.7 5 100.1 5.5 100.1 5.5 C 99.9 3.7 99.3 2.9 98.2 2.9 C 97.5 2.9 97 3.2 96.6 3.8 C 96.2 4.5 96 5.7 96 7.5 C 96 9.1 96.2 10.2 96.6 10.8 C 97 11.5 97.5 11.8 98.3 11.8 C 99.5 11.8 100.1 10.9 100.1 9.2 C 100.09 9.18 98.1 9.2 98.1 9.2 L 98.1 6.9 Z M 116.7 0.7 L 119.6 0.7 L 123.4 14 L 120.5 14 L 119.8 11.3 L 116 11.3 L 115.4 14 L 112.7 14 L 116.7 0.7 Z M 119.2 9 L 117.9 3.5 L 116.6 9 L 119.2 9 Z M 124.6 0.7 L 127.5 0.7 L 127.5 11.5 L 131.8 11.5 L 131.8 14 L 124.6 14 L 124.6 0.7 Z M 135.4 0.7 L 138.4 0.7 L 142.2 14 L 139.2 14 L 138.5 11.3 L 134.8 11.3 L 134.1 14 L 131.4 14 L 135.4 0.7 Z M 138 9 L 136.6 3.5 L 135.3 9 L 138 9 Z M 147.1 0.5 C 149.4 0.5 150.9 1.5 151.5 3.6 C 151.5 3.6 149 4.5 149 4.5 C 148.7 3.4 148.1 2.9 147.1 2.9 C 146.7 2.9 146.4 3 146.1 3.2 C 145.9 3.5 145.7 3.7 145.7 4.1 C 145.7 4.4 145.9 4.8 146.2 5 C 146.5 5.2 147.1 5.5 148 5.9 C 148.9 6.2 149.6 6.5 150.1 6.8 C 150.6 7.1 151 7.5 151.3 8.1 C 151.6 8.6 151.7 9.2 151.7 10 C 151.7 11.2 151.3 12.2 150.4 13 C 149.6 13.8 148.4 14.2 147 14.2 C 144.6 14.2 143 13 142.4 10.5 C 142.4 10.5 144.9 9.8 144.9 9.8 C 145.2 11.2 145.9 11.8 147.1 11.8 C 147.6 11.8 148 11.7 148.3 11.4 C 148.6 11.2 148.8 10.8 148.8 10.4 C 148.8 10.1 148.7 9.8 148.4 9.5 C 148.2 9.3 147.7 9 146.9 8.7 C 145.9 8.3 145.1 8 144.6 7.7 C 144.1 7.4 143.7 7 143.4 6.4 C 143.1 5.9 142.9 5.3 142.9 4.6 C 142.9 3.4 143.3 2.4 144.1 1.6 C 144.8 0.9 145.8 0.5 147.1 0.5 C 147.1 0.5 147.1 0.5 147.1 0.5 Z M 153.5 4.1 L 156.2 4.1 L 156.2 7.1 L 153.5 7.1 L 153.5 4.1 Z M 153.5 11.1 L 156.2 11.1 L 156.2 14 L 153.5 14 L 153.5 11.1 Z " stroke="none" fill="#000"/>
  </g>
</svg>