<?xml version="1.0" standalone="no"?>
<!DOCTYPE svg PUBLIC "-//W3C//DTD SVG 1.1//EN" "http://www.w3.org/Graphics/SVG/1.1/DTD/svg11.dtd">
<svg xmlns="http://www.w3.org/2000/svg" version="1.1" width="138.2px" height="18px" viewBox="0 -3 138.2 18" style="top:-3px">
  <desc>Likha ni Hans Gutierrez</desc>
  <defs/>
  <g id="Polygon38223">
    <path d="M 0.5 1.7 L 1.5 1.7 L 1.5 10.7 L 0.5 10.7 L 0.5 1.7 Z M 6 2.3 L 7.2 2.3 L 6 7.8 L 9.3 7.8 L 9.1 8.8 L 4.7 8.8 L 6 2.3 Z M 11.2 2.3 L 12.2 2.3 L 12 3.3 L 11 3.3 L 11.2 2.3 Z M 10.8 4.1 L 11.8 4.1 L 10.9 8.8 L 9.8 8.8 L 10.8 4.1 Z M 13.4 2.3 L 14.4 2.3 L 13.7 6 L 13.7 6 L 15.8 4.1 L 17.1 4.1 L 15.1 5.8 L 16.2 8.8 L 15.1 8.8 L 14.2 6.5 L 13.4 7.2 L 13.1 8.8 L 12.1 8.8 L 13.4 2.3 Z M 18.2 2.3 L 19.2 2.3 L 18.7 4.8 C 18.7 4.8 18.72 4.78 18.7 4.8 C 18.9 4.5 19.1 4.4 19.4 4.2 C 19.7 4.1 20 4 20.2 4 C 20.7 4 21.1 4.1 21.3 4.3 C 21.5 4.6 21.6 4.9 21.6 5.2 C 21.6 5.3 21.6 5.4 21.6 5.5 C 21.6 5.6 21.6 5.7 21.6 5.8 C 21.56 5.8 20.9 8.8 20.9 8.8 L 19.9 8.8 C 19.9 8.8 20.51 5.9 20.5 5.9 C 20.5 5.8 20.5 5.8 20.6 5.7 C 20.6 5.6 20.6 5.5 20.6 5.5 C 20.6 5.4 20.6 5.4 20.6 5.3 C 20.6 5.2 20.6 5.2 20.5 5.1 C 20.5 5 20.4 4.9 20.3 4.9 C 20.2 4.8 20.1 4.8 19.9 4.8 C 19.7 4.8 19.5 4.8 19.3 4.9 C 19.2 5 19 5.1 18.9 5.3 C 18.8 5.4 18.7 5.5 18.6 5.7 C 18.5 5.9 18.4 6.1 18.4 6.3 C 18.4 6.25 17.9 8.8 17.9 8.8 L 16.8 8.8 L 18.2 2.3 Z M 23.2 7.5 C 23.2 7.6 23.2 7.7 23.2 7.8 C 23.3 7.9 23.3 7.9 23.4 8 C 23.5 8 23.6 8 23.7 8.1 C 23.8 8.1 23.9 8.1 24 8.1 C 24.2 8.1 24.4 8 24.6 8 C 24.8 7.9 24.9 7.8 25 7.6 C 25.1 7.5 25.2 7.3 25.3 7.1 C 25.4 6.9 25.4 6.7 25.4 6.5 C 25.4 6.5 25.4 6.5 25.4 6.5 C 25.4 6.5 25.3 6.6 25.1 6.6 C 25 6.7 24.9 6.7 24.8 6.7 C 24.6 6.7 24.5 6.7 24.3 6.7 C 24.1 6.7 23.9 6.8 23.8 6.8 C 23.6 6.9 23.4 6.9 23.3 7.1 C 23.2 7.2 23.2 7.3 23.2 7.5 Z M 26.2 7.4 C 26.2 7.5 26.2 7.6 26.2 7.7 C 26.2 7.7 26.2 7.8 26.2 7.9 C 26.2 8 26.2 8 26.2 8 C 26.2 8.1 26.3 8.1 26.4 8.1 C 26.4 8.1 26.5 8.1 26.5 8.1 C 26.6 8.1 26.7 8 26.7 8 C 26.7 8 26.6 8.8 26.6 8.8 C 26.4 8.8 26.3 8.8 26.2 8.9 C 26 8.9 25.9 8.9 25.8 8.9 C 25.6 8.9 25.4 8.8 25.3 8.7 C 25.2 8.6 25.2 8.5 25.1 8.3 C 24.9 8.5 24.7 8.7 24.4 8.8 C 24.1 8.9 23.9 8.9 23.6 8.9 C 23.4 8.9 23.2 8.9 23 8.8 C 22.9 8.8 22.7 8.7 22.6 8.6 C 22.4 8.5 22.3 8.4 22.2 8.2 C 22.2 8 22.1 7.9 22.1 7.7 C 22.1 7.4 22.2 7.1 22.3 6.9 C 22.4 6.7 22.5 6.6 22.7 6.5 C 22.9 6.3 23.1 6.2 23.3 6.2 C 23.6 6.1 23.8 6.1 24.1 6.1 C 24.4 6 24.8 6 25.1 6 C 25.3 6 25.4 5.9 25.5 5.8 C 25.6 5.7 25.6 5.5 25.6 5.4 C 25.6 5.1 25.6 5 25.4 4.9 C 25.3 4.8 25.1 4.8 24.9 4.8 C 24.6 4.8 24.3 4.9 24.1 5 C 23.9 5.1 23.8 5.2 23.7 5.5 C 23.7 5.5 22.7 5.5 22.7 5.5 C 22.8 5.2 22.9 5 23 4.8 C 23.1 4.6 23.3 4.5 23.5 4.3 C 23.7 4.2 23.9 4.1 24.2 4.1 C 24.4 4 24.7 4 24.9 4 C 25.3 4 25.7 4 25.9 4.1 C 26.2 4.2 26.3 4.3 26.4 4.4 C 26.5 4.5 26.6 4.6 26.6 4.8 C 26.7 4.9 26.7 5 26.7 5.1 C 26.7 5.3 26.6 5.5 26.6 5.8 C 26.6 5.8 26.2 7.4 26.2 7.4 Z M 30.8 4.1 L 31.7 4.1 L 31.6 4.8 C 31.6 4.8 31.59 4.81 31.6 4.8 C 31.8 4.6 32 4.4 32.3 4.2 C 32.6 4.1 32.9 4 33.2 4 C 33.7 4 34 4.1 34.2 4.3 C 34.4 4.6 34.6 4.9 34.6 5.2 C 34.6 5.3 34.5 5.4 34.5 5.5 C 34.5 5.6 34.5 5.7 34.5 5.8 C 34.51 5.8 33.9 8.8 33.9 8.8 L 32.9 8.8 C 32.9 8.8 33.45 5.9 33.5 5.9 C 33.5 5.8 33.5 5.8 33.5 5.7 C 33.5 5.6 33.5 5.5 33.5 5.5 C 33.5 5.4 33.5 5.4 33.5 5.3 C 33.5 5.2 33.5 5.2 33.5 5.1 C 33.4 5 33.3 4.9 33.2 4.9 C 33.1 4.8 33 4.8 32.8 4.8 C 32.6 4.8 32.4 4.8 32.3 4.9 C 32.1 5 32 5.1 31.8 5.3 C 31.7 5.4 31.6 5.5 31.5 5.7 C 31.4 5.9 31.4 6.1 31.3 6.3 C 31.34 6.25 30.8 8.8 30.8 8.8 L 29.8 8.8 L 30.8 4.1 Z M 36.4 2.3 L 37.4 2.3 L 37.2 3.3 L 36.2 3.3 L 36.4 2.3 Z M 36 4.1 L 37 4.1 L 36.1 8.8 L 35 8.8 L 36 4.1 Z M 41.3 2.3 L 42.4 2.3 L 41.9 4.9 L 44.9 4.9 L 45.4 2.3 L 46.5 2.3 L 45.2 8.8 L 44.1 8.8 L 44.7 5.9 L 41.7 5.9 L 41.1 8.8 L 40 8.8 L 41.3 2.3 Z M 47.5 7.5 C 47.5 7.6 47.6 7.7 47.6 7.8 C 47.7 7.9 47.7 7.9 47.8 8 C 47.9 8 48 8 48.1 8.1 C 48.2 8.1 48.3 8.1 48.4 8.1 C 48.6 8.1 48.8 8 49 8 C 49.2 7.9 49.3 7.8 49.4 7.6 C 49.5 7.5 49.6 7.3 49.7 7.1 C 49.7 6.9 49.8 6.7 49.8 6.5 C 49.8 6.5 49.8 6.5 49.8 6.5 C 49.7 6.5 49.6 6.6 49.5 6.6 C 49.4 6.7 49.3 6.7 49.2 6.7 C 49 6.7 48.9 6.7 48.7 6.7 C 48.5 6.7 48.3 6.8 48.1 6.8 C 48 6.9 47.8 6.9 47.7 7.1 C 47.6 7.2 47.5 7.3 47.5 7.5 Z M 50.6 7.4 C 50.6 7.5 50.6 7.6 50.6 7.7 C 50.5 7.7 50.5 7.8 50.5 7.9 C 50.5 8 50.5 8 50.6 8 C 50.6 8.1 50.7 8.1 50.8 8.1 C 50.8 8.1 50.9 8.1 50.9 8.1 C 51 8.1 51.1 8 51.1 8 C 51.1 8 50.9 8.8 50.9 8.8 C 50.8 8.8 50.7 8.8 50.6 8.9 C 50.4 8.9 50.3 8.9 50.1 8.9 C 50 8.9 49.8 8.8 49.7 8.7 C 49.6 8.6 49.5 8.5 49.5 8.3 C 49.3 8.5 49.1 8.7 48.8 8.8 C 48.5 8.9 48.2 8.9 48 8.9 C 47.8 8.9 47.6 8.9 47.4 8.8 C 47.2 8.8 47.1 8.7 46.9 8.6 C 46.8 8.5 46.7 8.4 46.6 8.2 C 46.6 8 46.5 7.9 46.5 7.7 C 46.5 7.4 46.6 7.1 46.7 6.9 C 46.8 6.7 46.9 6.6 47.1 6.5 C 47.3 6.3 47.5 6.2 47.7 6.2 C 48 6.1 48.2 6.1 48.5 6.1 C 48.8 6 49.2 6 49.5 6 C 49.7 6 49.8 5.9 49.9 5.8 C 50 5.7 50 5.5 50 5.4 C 50 5.1 50 5 49.8 4.9 C 49.6 4.8 49.5 4.8 49.2 4.8 C 49 4.8 48.7 4.9 48.5 5 C 48.3 5.1 48.2 5.2 48.1 5.5 C 48.1 5.5 47.1 5.5 47.1 5.5 C 47.2 5.2 47.3 5 47.4 4.8 C 47.5 4.6 47.7 4.5 47.9 4.3 C 48.1 4.2 48.3 4.1 48.5 4.1 C 48.8 4 49 4 49.3 4 C 49.7 4 50.1 4 50.3 4.1 C 50.5 4.2 50.7 4.3 50.8 4.4 C 50.9 4.5 51 4.6 51 4.8 C 51 4.9 51.1 5 51.1 5.1 C 51.1 5.3 51 5.5 51 5.8 C 51 5.8 50.6 7.4 50.6 7.4 Z M 52.5 4.1 L 53.5 4.1 L 53.4 4.8 C 53.4 4.8 53.38 4.81 53.4 4.8 C 53.6 4.6 53.8 4.4 54.1 4.2 C 54.4 4.1 54.7 4 55 4 C 55.4 4 55.8 4.1 56 4.3 C 56.2 4.6 56.3 4.9 56.3 5.2 C 56.3 5.3 56.3 5.4 56.3 5.5 C 56.3 5.6 56.3 5.7 56.3 5.8 C 56.29 5.8 55.7 8.8 55.7 8.8 L 54.6 8.8 C 54.6 8.8 55.24 5.9 55.2 5.9 C 55.3 5.8 55.3 5.8 55.3 5.7 C 55.3 5.6 55.3 5.5 55.3 5.5 C 55.3 5.4 55.3 5.4 55.3 5.3 C 55.3 5.2 55.3 5.2 55.2 5.1 C 55.2 5 55.1 4.9 55 4.9 C 54.9 4.8 54.8 4.8 54.6 4.8 C 54.4 4.8 54.2 4.8 54.1 4.9 C 53.9 5 53.8 5.1 53.6 5.3 C 53.5 5.4 53.4 5.5 53.3 5.7 C 53.2 5.9 53.2 6.1 53.1 6.3 C 53.13 6.25 52.6 8.8 52.6 8.8 L 51.6 8.8 L 52.5 4.1 Z M 60.1 5.5 C 60.1 5.2 60 5.1 59.9 5 C 59.7 4.9 59.5 4.8 59.2 4.8 C 59.1 4.8 59 4.8 58.9 4.8 C 58.8 4.9 58.7 4.9 58.6 4.9 C 58.6 5 58.5 5 58.5 5.1 C 58.4 5.2 58.4 5.3 58.4 5.4 C 58.4 5.5 58.4 5.6 58.5 5.7 C 58.6 5.7 58.7 5.8 58.8 5.8 C 59 5.9 59.1 5.9 59.3 6 C 59.4 6 59.6 6.1 59.8 6.1 C 59.9 6.2 60 6.2 60.2 6.3 C 60.3 6.4 60.4 6.5 60.5 6.6 C 60.6 6.6 60.7 6.8 60.8 6.9 C 60.8 7 60.8 7.2 60.8 7.4 C 60.8 7.6 60.8 7.9 60.7 8.1 C 60.5 8.3 60.4 8.4 60.2 8.5 C 60 8.7 59.8 8.8 59.5 8.8 C 59.3 8.9 59 8.9 58.8 8.9 C 58.5 8.9 58.3 8.9 58 8.8 C 57.8 8.8 57.6 8.7 57.4 8.6 C 57.2 8.4 57.1 8.3 57 8.1 C 56.9 7.9 56.8 7.6 56.8 7.3 C 56.8 7.3 57.8 7.3 57.8 7.3 C 57.8 7.6 57.9 7.8 58.1 7.9 C 58.3 8 58.5 8.1 58.8 8.1 C 58.9 8.1 59.1 8.1 59.2 8.1 C 59.3 8 59.4 8 59.5 8 C 59.6 7.9 59.7 7.8 59.7 7.8 C 59.8 7.7 59.8 7.6 59.8 7.4 C 59.8 7.3 59.8 7.2 59.7 7.1 C 59.6 7.1 59.5 7 59.4 6.9 C 59.2 6.9 59.1 6.8 58.9 6.8 C 58.7 6.7 58.6 6.7 58.4 6.6 C 58.3 6.6 58.1 6.5 58 6.4 C 57.9 6.4 57.8 6.3 57.7 6.2 C 57.6 6.1 57.5 6 57.5 5.9 C 57.4 5.7 57.4 5.6 57.4 5.4 C 57.4 5.2 57.4 4.9 57.5 4.8 C 57.7 4.6 57.8 4.4 58 4.3 C 58.2 4.2 58.4 4.1 58.6 4.1 C 58.8 4 59.1 4 59.3 4 C 59.5 4 59.8 4 60 4.1 C 60.2 4.1 60.4 4.2 60.6 4.3 C 60.7 4.4 60.9 4.6 61 4.8 C 61.1 5 61.1 5.2 61.1 5.5 C 61.1 5.5 60.1 5.5 60.1 5.5 Z M 69.7 8.8 L 69 8.8 L 69 8.1 C 69 8.1 68.97 8.1 69 8.1 C 68.9 8.2 68.7 8.4 68.6 8.5 C 68.4 8.6 68.3 8.7 68.1 8.7 C 68 8.8 67.8 8.8 67.7 8.9 C 67.5 8.9 67.4 8.9 67.3 8.9 C 66.8 8.9 66.4 8.9 66 8.7 C 65.7 8.6 65.4 8.4 65.1 8.1 C 64.9 7.9 64.7 7.6 64.6 7.2 C 64.5 6.9 64.4 6.5 64.4 6.1 C 64.4 5.4 64.5 4.9 64.7 4.4 C 64.9 3.9 65.2 3.5 65.5 3.1 C 65.8 2.8 66.2 2.6 66.6 2.4 C 67 2.3 67.4 2.2 67.9 2.2 C 68.2 2.2 68.6 2.2 68.9 2.3 C 69.2 2.4 69.5 2.6 69.8 2.7 C 70 2.9 70.2 3.1 70.3 3.4 C 70.5 3.7 70.5 4 70.5 4.4 C 70.5 4.4 69.4 4.4 69.4 4.4 C 69.4 4 69.2 3.6 68.9 3.4 C 68.7 3.2 68.3 3.1 67.8 3.1 C 67.4 3.1 67.1 3.2 66.8 3.4 C 66.5 3.5 66.3 3.8 66.1 4.1 C 65.9 4.3 65.8 4.7 65.7 5 C 65.6 5.4 65.5 5.7 65.5 6.1 C 65.5 6.7 65.7 7.2 66 7.5 C 66.3 7.8 66.7 8 67.3 8 C 67.6 8 67.8 8 68 7.9 C 68.2 7.8 68.4 7.7 68.6 7.5 C 68.8 7.4 68.9 7.2 69 7 C 69.1 6.7 69.2 6.5 69.2 6.2 C 69.25 6.25 67.5 6.2 67.5 6.2 L 67.7 5.4 L 70.4 5.4 L 69.7 8.8 Z M 75 8.8 L 74 8.8 L 74.2 8.1 C 74.2 8.1 74.16 8.08 74.2 8.1 C 74 8.3 73.7 8.5 73.5 8.7 C 73.2 8.8 72.9 8.9 72.6 8.9 C 72.1 8.9 71.7 8.8 71.5 8.6 C 71.3 8.3 71.2 8 71.2 7.7 C 71.2 7.6 71.2 7.5 71.2 7.4 C 71.2 7.3 71.2 7.2 71.2 7.1 C 71.24 7.09 71.9 4.1 71.9 4.1 L 72.9 4.1 C 72.9 4.1 72.3 6.99 72.3 7 C 72.3 7.1 72.3 7.1 72.2 7.2 C 72.2 7.3 72.2 7.4 72.2 7.4 C 72.2 7.5 72.2 7.5 72.2 7.6 C 72.2 7.7 72.3 7.7 72.3 7.8 C 72.3 7.9 72.4 8 72.5 8 C 72.6 8.1 72.7 8.1 72.9 8.1 C 73.1 8.1 73.3 8 73.5 8 C 73.6 7.9 73.8 7.8 73.9 7.6 C 74 7.5 74.1 7.3 74.2 7.2 C 74.3 7 74.4 6.8 74.4 6.6 C 74.41 6.64 74.9 4.1 74.9 4.1 L 76 4.1 L 75 8.8 Z M 77.7 2.7 L 78.7 2.7 L 78.4 4.1 L 79.4 4.1 L 79.2 4.9 L 78.3 4.9 C 78.3 4.9 77.8 7.16 77.8 7.2 C 77.8 7.3 77.8 7.4 77.7 7.5 C 77.7 7.5 77.7 7.6 77.7 7.7 C 77.7 7.8 77.7 7.9 77.8 7.9 C 77.8 8 77.9 8 78.1 8 C 78.2 8 78.2 8 78.3 8 C 78.4 8 78.5 8 78.6 8 C 78.6 8 78.5 8.7 78.5 8.7 C 78.3 8.8 78.2 8.8 78 8.8 C 77.9 8.8 77.7 8.8 77.6 8.8 C 77.4 8.8 77.3 8.8 77.2 8.7 C 77 8.7 76.9 8.6 76.9 8.6 C 76.8 8.5 76.8 8.4 76.7 8.3 C 76.7 8.2 76.7 8.1 76.7 8 C 76.7 7.9 76.7 7.8 76.7 7.7 C 76.7 7.6 76.7 7.5 76.8 7.4 C 76.75 7.43 77.3 4.9 77.3 4.9 L 76.5 4.9 L 76.6 4.1 L 77.4 4.1 L 77.7 2.7 Z M 80.6 2.3 L 81.6 2.3 L 81.4 3.3 L 80.4 3.3 L 80.6 2.3 Z M 80.2 4.1 L 81.3 4.1 L 80.3 8.8 L 79.3 8.8 L 80.2 4.1 Z M 85.3 6 C 85.3 6 85.3 6 85.3 6 C 85.3 5.9 85.3 5.9 85.3 5.9 C 85.3 5.9 85.3 5.8 85.3 5.8 C 85.3 5.5 85.2 5.2 85 5.1 C 84.8 4.9 84.6 4.8 84.3 4.8 C 83.9 4.8 83.6 4.9 83.4 5.2 C 83.1 5.4 83 5.7 82.9 6 C 82.9 6 85.3 6 85.3 6 Z M 86 7.3 C 85.8 7.9 85.6 8.3 85.2 8.5 C 84.8 8.8 84.3 8.9 83.8 8.9 C 83.5 8.9 83.2 8.9 83 8.8 C 82.7 8.7 82.5 8.5 82.3 8.4 C 82.1 8.2 82 8 81.9 7.7 C 81.8 7.5 81.7 7.2 81.7 6.9 C 81.7 6.5 81.8 6.2 81.9 5.8 C 82 5.5 82.2 5.2 82.4 4.9 C 82.6 4.6 82.9 4.4 83.2 4.2 C 83.5 4.1 83.9 4 84.3 4 C 84.7 4 85.1 4.1 85.3 4.2 C 85.6 4.3 85.8 4.5 85.9 4.7 C 86.1 4.9 86.2 5.2 86.2 5.4 C 86.3 5.7 86.3 5.9 86.3 6.1 C 86.3 6.3 86.3 6.4 86.3 6.5 C 86.3 6.5 86.3 6.6 86.2 6.7 C 86.2 6.7 82.8 6.7 82.8 6.7 C 82.8 6.7 82.8 6.8 82.8 6.8 C 82.8 6.8 82.8 6.8 82.8 6.9 C 82.8 6.9 82.8 7 82.8 7 C 82.8 7.3 82.8 7.6 83 7.8 C 83.2 8 83.5 8.1 83.9 8.1 C 84.1 8.1 84.4 8 84.6 7.9 C 84.8 7.8 84.9 7.6 85 7.3 C 85 7.3 86 7.3 86 7.3 Z M 87.6 4.1 L 88.6 4.1 L 88.4 5 C 88.4 5 88.4 5.05 88.4 5 C 88.5 4.9 88.6 4.8 88.7 4.7 C 88.8 4.5 88.9 4.4 89 4.3 C 89.1 4.2 89.3 4.2 89.4 4.1 C 89.6 4 89.7 4 89.9 4 C 90 4 90 4 90.1 4 C 90.2 4 90.3 4 90.4 4 C 90.4 4 90.2 5 90.2 5 C 90.1 5 90 5 90 5 C 89.9 5 89.9 5 89.8 5 C 89.5 5 89.3 5 89.1 5.1 C 88.9 5.2 88.8 5.3 88.6 5.5 C 88.5 5.7 88.4 5.8 88.3 6 C 88.2 6.3 88.1 6.5 88.1 6.7 C 88.09 6.71 87.7 8.8 87.7 8.8 L 86.6 8.8 L 87.6 4.1 Z M 91 4.1 L 92 4.1 L 91.8 5 C 91.8 5 91.82 5.05 91.8 5 C 91.9 4.9 92 4.8 92.1 4.7 C 92.2 4.5 92.3 4.4 92.4 4.3 C 92.6 4.2 92.7 4.2 92.8 4.1 C 93 4 93.1 4 93.3 4 C 93.4 4 93.5 4 93.5 4 C 93.6 4 93.7 4 93.8 4 C 93.8 4 93.6 5 93.6 5 C 93.5 5 93.5 5 93.4 5 C 93.3 5 93.3 5 93.2 5 C 93 5 92.7 5 92.5 5.1 C 92.3 5.2 92.2 5.3 92 5.5 C 91.9 5.7 91.8 5.8 91.7 6 C 91.6 6.3 91.6 6.5 91.5 6.7 C 91.51 6.71 91.1 8.8 91.1 8.8 L 90.1 8.8 L 91 4.1 Z M 97.2 6 C 97.2 6 97.2 6 97.2 6 C 97.2 5.9 97.2 5.9 97.2 5.9 C 97.2 5.9 97.2 5.8 97.2 5.8 C 97.2 5.5 97.1 5.2 96.9 5.1 C 96.8 4.9 96.5 4.8 96.2 4.8 C 95.8 4.8 95.5 4.9 95.3 5.2 C 95.1 5.4 94.9 5.7 94.8 6 C 94.8 6 97.2 6 97.2 6 Z M 97.9 7.3 C 97.8 7.9 97.5 8.3 97.1 8.5 C 96.7 8.8 96.3 8.9 95.7 8.9 C 95.4 8.9 95.1 8.9 94.9 8.8 C 94.6 8.7 94.4 8.5 94.2 8.4 C 94.1 8.2 93.9 8 93.8 7.7 C 93.7 7.5 93.7 7.2 93.7 6.9 C 93.7 6.5 93.7 6.2 93.8 5.8 C 94 5.5 94.1 5.2 94.3 4.9 C 94.6 4.6 94.8 4.4 95.2 4.2 C 95.5 4.1 95.8 4 96.3 4 C 96.7 4 97 4.1 97.3 4.2 C 97.5 4.3 97.7 4.5 97.9 4.7 C 98 4.9 98.1 5.2 98.2 5.4 C 98.2 5.7 98.2 5.9 98.2 6.1 C 98.2 6.3 98.2 6.4 98.2 6.5 C 98.2 6.5 98.2 6.6 98.2 6.7 C 98.2 6.7 94.7 6.7 94.7 6.7 C 94.7 6.7 94.7 6.8 94.7 6.8 C 94.7 6.8 94.7 6.8 94.7 6.9 C 94.7 6.9 94.7 7 94.7 7 C 94.7 7.3 94.8 7.6 95 7.8 C 95.1 8 95.4 8.1 95.8 8.1 C 96.1 8.1 96.3 8 96.5 7.9 C 96.7 7.8 96.8 7.6 96.9 7.3 C 96.9 7.3 97.9 7.3 97.9 7.3 Z M 99.3 4.1 L 103 4.1 L 102.9 4.9 L 99.8 8 L 102.4 8 L 102.3 8.8 L 98.2 8.8 L 98.4 8 L 101.5 4.9 L 99.1 4.9 L 99.3 4.1 Z " stroke="none" fill="#fff"/>
  </g>
</svg>