<?xml version="1.0" standalone="no"?>
<!DOCTYPE svg PUBLIC "-//W3C//DTD SVG 1.1//EN" "http://www.w3.org/Graphics/SVG/1.1/DTD/svg11.dtd">
<svg xmlns="http://www.w3.org/2000/svg" version="1.1" width="279.5px" height="33.9px" viewBox="0 -6 279.5 33.9" style="top:-6px">
  <desc>DUTERTE Mula sa p 7</desc>
  <defs/>
  <g id="Polygon22536">
    <path d="M 1.6 -0.3 C 1.6 -0.3 7.16 -0.31 7.2 -0.3 C 10.9 -0.3 14.4 2.2 14.4 7.4 C 14.4 12.7 10.3 15.1 6.9 15.1 C 6.86 15.12 1.6 15.1 1.6 15.1 L 1.6 -0.3 Z M 6 12.6 C 9.1 12.6 11.7 11.2 11.7 7.4 C 11.7 3.7 9.5 2.2 6.4 2.2 C 6.4 2.17 4.1 2.2 4.1 2.2 L 4.1 12.6 C 4.1 12.6 5.98 12.63 6 12.6 Z M 28.7 9.5 C 28.7 13.2 26.2 15.5 23 15.5 C 19.8 15.5 17.3 13.2 17.3 9.5 C 17.29 9.45 17.3 -0.3 17.3 -0.3 L 19.8 -0.3 C 19.8 -0.3 19.81 9.36 19.8 9.4 C 19.8 10.9 20.6 12.9 23 12.9 C 25.4 12.9 26.2 10.9 26.2 9.4 C 26.17 9.36 26.2 -0.3 26.2 -0.3 L 28.7 -0.3 C 28.7 -0.3 28.69 9.45 28.7 9.5 Z M 35.3 2.2 L 30.9 2.2 L 30.9 -0.3 L 42.1 -0.3 L 42.1 2.2 L 37.8 2.2 L 37.8 15.1 L 35.3 15.1 L 35.3 2.2 Z M 44.5 -0.3 L 53.8 -0.3 L 53.8 2.2 L 47 2.2 L 47 6 L 53.5 6 L 53.5 8.4 L 47 8.4 L 47 12.6 L 54.2 12.6 L 54.2 15.1 L 44.5 15.1 L 44.5 -0.3 Z M 57.3 -0.3 C 57.3 -0.3 62.19 -0.31 62.2 -0.3 C 64.9 -0.3 67.5 0.6 67.5 4.1 C 67.5 6.3 66.3 8 64.2 8.3 C 64.19 8.3 67.9 15.1 67.9 15.1 L 64.9 15.1 L 61.6 8.6 L 59.8 8.6 L 59.8 15.1 L 57.3 15.1 L 57.3 -0.3 Z M 61.7 6.2 C 63.2 6.2 64.8 6.1 64.8 4.1 C 64.8 2.3 63.3 2 62 2 C 61.97 2.04 59.8 2 59.8 2 L 59.8 6.2 C 59.8 6.2 61.75 6.23 61.7 6.2 Z M 73 2.2 L 68.7 2.2 L 68.7 -0.3 L 79.9 -0.3 L 79.9 2.2 L 75.5 2.2 L 75.5 15.1 L 73 15.1 L 73 2.2 Z M 82.2 -0.3 L 91.6 -0.3 L 91.6 2.2 L 84.7 2.2 L 84.7 6 L 91.2 6 L 91.2 8.4 L 84.7 8.4 L 84.7 12.6 L 91.9 12.6 L 91.9 15.1 L 82.2 15.1 L 82.2 -0.3 Z M 103.2 -1.2 L 103.2 20.6 L 101.1 20.6 L 101.1 -1.2 L 103.2 -1.2 Z M 113.1 -0.3 L 116.9 -0.3 L 120.7 10.5 L 124.5 -0.3 L 128.3 -0.3 L 128.3 15.1 L 125.9 15.1 L 125.9 2.3 L 125.9 2.3 L 121.6 15.1 L 119.8 15.1 L 115.5 2.3 L 115.5 2.3 L 115.5 15.1 L 113.1 15.1 L 113.1 -0.3 Z M 140.7 15.1 L 138.4 15.1 L 138.4 13.4 C 138.4 13.4 138.37 13.44 138.4 13.4 C 137.9 14.5 137 15.4 135.4 15.4 C 132.8 15.4 131.9 13.4 131.9 11.3 C 131.93 11.26 131.9 4.7 131.9 4.7 L 134.3 4.7 C 134.3 4.7 134.33 9.95 134.3 10 C 134.3 11.1 134.4 13 136.1 13 C 137.7 13 138.3 11.8 138.3 10.4 C 138.29 10.37 138.3 4.7 138.3 4.7 L 140.7 4.7 L 140.7 15.1 Z M 144 -1.4 L 146.4 -1.4 L 146.4 15.1 L 144 15.1 L 144 -1.4 Z M 155.8 13.7 C 155.8 13.7 155.73 13.68 155.7 13.7 C 155.1 14.9 153.9 15.4 152.7 15.4 C 150.9 15.4 149.2 14.3 149.2 12.2 C 149.2 8.8 152.8 8.6 155.2 8.6 C 155.19 8.6 155.8 8.6 155.8 8.6 C 155.8 8.6 155.79 8.32 155.8 8.3 C 155.8 7 154.9 6.4 153.6 6.4 C 152.6 6.4 151.7 6.8 151 7.4 C 151 7.4 149.8 6.1 149.8 6.1 C 150.8 4.9 152.3 4.4 153.9 4.4 C 158 4.4 158 7.6 158 9.1 C 157.95 9.1 158 15.1 158 15.1 L 155.8 15.1 L 155.8 13.7 Z M 155.7 10.4 C 155.7 10.4 155.15 10.43 155.2 10.4 C 153.8 10.4 151.6 10.5 151.6 12 C 151.6 13 152.5 13.4 153.2 13.4 C 154.9 13.4 155.7 12.5 155.7 11 C 155.65 11.02 155.7 10.4 155.7 10.4 Z M 172.8 7.6 C 172.3 6.9 171.7 6.5 170.9 6.5 C 170.2 6.5 169.5 6.8 169.5 7.6 C 169.5 9.5 174.7 7.9 174.7 12 C 174.7 14.5 172.5 15.4 170.5 15.4 C 169 15.4 167.8 15 166.8 13.8 C 166.8 13.8 168.4 12.1 168.4 12.1 C 169 12.9 169.6 13.4 170.7 13.4 C 171.4 13.4 172.3 13 172.3 12.2 C 172.3 10.1 167.1 11.8 167.1 7.8 C 167.1 5.4 169 4.4 170.9 4.4 C 172.2 4.4 173.6 4.8 174.4 6 C 174.4 6 172.8 7.6 172.8 7.6 Z M 183.1 13.7 C 183.1 13.7 183.05 13.68 183 13.7 C 182.4 14.9 181.2 15.4 180 15.4 C 178.2 15.4 176.5 14.3 176.5 12.2 C 176.5 8.8 180.1 8.6 182.5 8.6 C 182.51 8.6 183.1 8.6 183.1 8.6 C 183.1 8.6 183.11 8.32 183.1 8.3 C 183.1 7 182.2 6.4 180.9 6.4 C 179.9 6.4 179 6.8 178.3 7.4 C 178.3 7.4 177.1 6.1 177.1 6.1 C 178.1 4.9 179.6 4.4 181.2 4.4 C 185.3 4.4 185.3 7.6 185.3 9.1 C 185.27 9.1 185.3 15.1 185.3 15.1 L 183.1 15.1 L 183.1 13.7 Z M 183 10.4 C 183 10.4 182.47 10.43 182.5 10.4 C 181.1 10.4 178.9 10.5 178.9 12 C 178.9 13 179.8 13.4 180.5 13.4 C 182.2 13.4 183 12.5 183 11 C 182.97 11.02 183 10.4 183 10.4 Z M 195 4.7 L 197.2 4.7 L 197.2 6.2 C 197.2 6.2 197.27 6.23 197.3 6.2 C 198 5 199.2 4.4 200.6 4.4 C 203.5 4.4 205.3 6.8 205.3 9.9 C 205.3 13 203.4 15.4 200.7 15.4 C 198.9 15.4 197.9 14.5 197.4 13.8 C 197.41 13.79 197.4 13.8 197.4 13.8 L 197.4 20.1 L 195 20.1 L 195 4.7 Z M 200.1 6.7 C 198.3 6.7 197.3 8.3 197.3 9.9 C 197.3 11.5 198.3 13 200.1 13 C 201.9 13 202.9 11.5 202.9 9.9 C 202.9 8.3 201.9 6.7 200.1 6.7 Z M 209.7 11.9 C 210.6 11.9 211.3 12.6 211.3 13.6 C 211.3 14.5 210.6 15.3 209.7 15.3 C 208.9 15.3 208.1 14.5 208.1 13.6 C 208.1 12.7 208.9 11.9 209.7 11.9 Z M 214.1 -0.3 L 223.8 -0.3 L 223.8 2.1 L 218.1 15.1 L 215.3 15.1 L 221.1 2.2 L 214.1 2.2 L 214.1 -0.3 Z " stroke="none" fill="#fff"/>
  </g>
</svg>