<?xml version="1.0" standalone="no"?>
<!DOCTYPE svg PUBLIC "-//W3C//DTD SVG 1.1//EN" "http://www.w3.org/Graphics/SVG/1.1/DTD/svg11.dtd">
<svg xmlns="http://www.w3.org/2000/svg" version="1.1" width="457.3px" height="40.8px" viewBox="0 -1 457.3 40.8" style="top:-1px">
  <desc>NAG-ALOK man ng proyekto ang Department of Transportation upang mapadali ang transportasyon sa panahon ng pandemya, n</desc>
  <defs/>
  <g id="Polygon22196">
    <path d="M 1 32.9 C 1.02 32.92 1 30.1 1 30.1 L 0.4 30.1 L 0.4 29.5 L 1 29.5 L 1 28.1 L 1.7 28.1 L 1.7 29.5 L 3.2 29.5 L 3.2 30.1 L 1.7 30.1 C 1.7 30.1 1.71 32.83 1.7 32.8 C 1.7 33.4 2 33.6 2.5 33.6 C 2.7 33.6 2.9 33.6 3.2 33.4 C 3.2 33.4 3.2 34 3.2 34 C 2.9 34.2 2.7 34.2 2.3 34.2 C 1.6 34.2 1 33.9 1 32.9 Z M 4.1 29.5 L 4.8 29.5 C 4.8 29.5 4.83 30.72 4.8 30.7 C 5.2 29.9 5.8 29.4 6.7 29.4 C 6.73 29.42 6.7 30.2 6.7 30.2 C 6.7 30.2 6.68 30.17 6.7 30.2 C 5.7 30.2 4.8 30.9 4.8 32.3 C 4.83 32.3 4.8 34.2 4.8 34.2 L 4.1 34.2 L 4.1 29.5 Z M 6.9 32.8 C 6.9 32.8 6.9 32.8 6.9 32.8 C 6.9 31.8 7.7 31.3 8.9 31.3 C 9.5 31.3 9.9 31.4 10.4 31.5 C 10.4 31.5 10.4 31.3 10.4 31.3 C 10.4 30.5 9.8 30.1 9 30.1 C 8.4 30.1 8 30.2 7.6 30.4 C 7.6 30.4 7.4 29.8 7.4 29.8 C 7.9 29.6 8.4 29.4 9 29.4 C 9.7 29.4 10.2 29.6 10.5 30 C 10.9 30.3 11 30.7 11 31.3 C 11.02 31.31 11 34.2 11 34.2 L 10.4 34.2 C 10.4 34.2 10.36 33.46 10.4 33.5 C 10 33.9 9.5 34.3 8.7 34.3 C 7.8 34.3 6.9 33.8 6.9 32.8 Z M 10.4 32.4 C 10.4 32.4 10.4 32 10.4 32 C 10 31.9 9.6 31.8 9 31.8 C 8.1 31.8 7.6 32.2 7.6 32.8 C 7.6 32.8 7.6 32.8 7.6 32.8 C 7.6 33.4 8.2 33.7 8.8 33.7 C 9.7 33.7 10.4 33.2 10.4 32.4 Z M 12.2 29.5 L 12.9 29.5 C 12.9 29.5 12.92 30.31 12.9 30.3 C 13.2 29.8 13.7 29.4 14.5 29.4 C 15.6 29.4 16.3 30.2 16.3 31.3 C 16.3 31.27 16.3 34.2 16.3 34.2 L 15.6 34.2 C 15.6 34.2 15.61 31.44 15.6 31.4 C 15.6 30.6 15.1 30 14.3 30 C 13.5 30 12.9 30.6 12.9 31.5 C 12.92 31.49 12.9 34.2 12.9 34.2 L 12.2 34.2 L 12.2 29.5 Z M 17.1 33.6 C 17.1 33.6 17.5 33.1 17.5 33.1 C 18 33.4 18.5 33.7 19.1 33.7 C 19.6 33.7 20 33.4 20 32.9 C 20 32.9 20 32.9 20 32.9 C 20 32.4 19.5 32.3 18.9 32.1 C 18.2 31.9 17.3 31.6 17.3 30.8 C 17.3 30.8 17.3 30.8 17.3 30.8 C 17.3 30 18 29.4 18.9 29.4 C 19.5 29.4 20.1 29.6 20.6 29.9 C 20.6 29.9 20.3 30.5 20.3 30.5 C 19.9 30.2 19.4 30 18.9 30 C 18.4 30 18 30.3 18 30.7 C 18 30.7 18 30.7 18 30.7 C 18 31.1 18.6 31.3 19.2 31.5 C 19.9 31.7 20.7 32 20.7 32.8 C 20.7 32.8 20.7 32.9 20.7 32.9 C 20.7 33.7 20 34.2 19 34.2 C 18.4 34.2 17.6 34 17.1 33.6 Z M 21.7 29.5 L 22.4 29.5 C 22.4 29.5 22.41 30.44 22.4 30.4 C 22.8 29.9 23.3 29.4 24.2 29.4 C 25.3 29.4 26.4 30.3 26.4 31.8 C 26.4 31.8 26.4 31.8 26.4 31.8 C 26.4 33.4 25.3 34.3 24.2 34.3 C 23.3 34.3 22.8 33.8 22.4 33.3 C 22.41 33.27 22.4 35.6 22.4 35.6 L 21.7 35.6 L 21.7 29.5 Z M 25.7 31.8 C 25.7 31.8 25.7 31.8 25.7 31.8 C 25.7 30.7 24.9 30 24.1 30 C 23.2 30 22.4 30.8 22.4 31.8 C 22.4 31.8 22.4 31.8 22.4 31.8 C 22.4 32.9 23.2 33.6 24.1 33.6 C 25 33.6 25.7 33 25.7 31.8 Z M 27.1 31.9 C 27.1 31.9 27.1 31.8 27.1 31.8 C 27.1 30.5 28.2 29.4 29.6 29.4 C 31 29.4 32 30.5 32 31.8 C 32 31.8 32 31.8 32 31.8 C 32 33.1 31 34.3 29.5 34.3 C 28.2 34.3 27.1 33.2 27.1 31.9 Z M 31.3 31.9 C 31.3 31.9 31.3 31.8 31.3 31.8 C 31.3 30.8 30.5 30 29.5 30 C 28.5 30 27.8 30.8 27.8 31.8 C 27.8 31.8 27.8 31.8 27.8 31.8 C 27.8 32.8 28.6 33.6 29.6 33.6 C 30.6 33.6 31.3 32.8 31.3 31.9 Z M 33 29.5 L 33.7 29.5 C 33.7 29.5 33.66 30.72 33.7 30.7 C 34 29.9 34.7 29.4 35.6 29.4 C 35.56 29.42 35.6 30.2 35.6 30.2 C 35.6 30.2 35.5 30.17 35.5 30.2 C 34.5 30.2 33.7 30.9 33.7 32.3 C 33.66 32.3 33.7 34.2 33.7 34.2 L 33 34.2 L 33 29.5 Z M 36.6 32.9 C 36.59 32.92 36.6 30.1 36.6 30.1 L 35.9 30.1 L 35.9 29.5 L 36.6 29.5 L 36.6 28.1 L 37.3 28.1 L 37.3 29.5 L 38.8 29.5 L 38.8 30.1 L 37.3 30.1 C 37.3 30.1 37.28 32.83 37.3 32.8 C 37.3 33.4 37.6 33.6 38.1 33.6 C 38.3 33.6 38.5 33.6 38.7 33.4 C 38.7 33.4 38.7 34 38.7 34 C 38.5 34.2 38.2 34.2 37.9 34.2 C 37.2 34.2 36.6 33.9 36.6 32.9 Z M 39.4 32.8 C 39.4 32.8 39.4 32.8 39.4 32.8 C 39.4 31.8 40.2 31.3 41.3 31.3 C 41.9 31.3 42.4 31.4 42.8 31.5 C 42.8 31.5 42.8 31.3 42.8 31.3 C 42.8 30.5 42.3 30.1 41.4 30.1 C 40.8 30.1 40.4 30.2 40 30.4 C 40 30.4 39.8 29.8 39.8 29.8 C 40.3 29.6 40.8 29.4 41.5 29.4 C 42.1 29.4 42.6 29.6 43 30 C 43.3 30.3 43.4 30.7 43.4 31.3 C 43.44 31.31 43.4 34.2 43.4 34.2 L 42.8 34.2 C 42.8 34.2 42.78 33.46 42.8 33.5 C 42.5 33.9 41.9 34.3 41.1 34.3 C 40.2 34.3 39.4 33.8 39.4 32.8 Z M 42.8 32.4 C 42.8 32.4 42.8 32 42.8 32 C 42.4 31.9 42 31.8 41.4 31.8 C 40.5 31.8 40.1 32.2 40.1 32.8 C 40.1 32.8 40.1 32.8 40.1 32.8 C 40.1 33.4 40.6 33.7 41.2 33.7 C 42.1 33.7 42.8 33.2 42.8 32.4 Z M 44.3 33.6 C 44.3 33.6 44.6 33.1 44.6 33.1 C 45.1 33.4 45.7 33.7 46.2 33.7 C 46.8 33.7 47.2 33.4 47.2 32.9 C 47.2 32.9 47.2 32.9 47.2 32.9 C 47.2 32.4 46.6 32.3 46 32.1 C 45.3 31.9 44.5 31.6 44.5 30.8 C 44.5 30.8 44.5 30.8 44.5 30.8 C 44.5 30 45.2 29.4 46.1 29.4 C 46.6 29.4 47.3 29.6 47.7 29.9 C 47.7 29.9 47.4 30.5 47.4 30.5 C 47 30.2 46.5 30 46.1 30 C 45.5 30 45.2 30.3 45.2 30.7 C 45.2 30.7 45.2 30.7 45.2 30.7 C 45.2 31.1 45.7 31.3 46.3 31.5 C 47.1 31.7 47.8 32 47.8 32.8 C 47.8 32.8 47.8 32.9 47.8 32.9 C 47.8 33.7 47.1 34.2 46.2 34.2 C 45.5 34.2 44.8 34 44.3 33.6 Z M 52.2 29.5 L 52.9 29.5 C 52.9 29.5 50.99 34.31 51 34.3 C 50.6 35.3 50.1 35.6 49.4 35.6 C 49.1 35.6 48.8 35.5 48.5 35.4 C 48.5 35.4 48.7 34.8 48.7 34.8 C 48.9 35 49.1 35 49.4 35 C 49.8 35 50.1 34.8 50.4 34.1 C 50.37 34.14 48.3 29.5 48.3 29.5 L 49 29.5 L 50.7 33.4 L 52.2 29.5 Z M 53.2 31.9 C 53.2 31.9 53.2 31.8 53.2 31.8 C 53.2 30.5 54.2 29.4 55.6 29.4 C 57 29.4 58.1 30.5 58.1 31.8 C 58.1 31.8 58.1 31.8 58.1 31.8 C 58.1 33.1 57 34.3 55.6 34.3 C 54.2 34.3 53.2 33.2 53.2 31.9 Z M 57.4 31.9 C 57.4 31.9 57.4 31.8 57.4 31.8 C 57.4 30.8 56.6 30 55.6 30 C 54.6 30 53.9 30.8 53.9 31.8 C 53.9 31.8 53.9 31.8 53.9 31.8 C 53.9 32.8 54.7 33.6 55.6 33.6 C 56.7 33.6 57.4 32.8 57.4 31.9 Z M 59 29.5 L 59.7 29.5 C 59.7 29.5 59.74 30.31 59.7 30.3 C 60 29.8 60.5 29.4 61.3 29.4 C 62.5 29.4 63.1 30.2 63.1 31.3 C 63.12 31.27 63.1 34.2 63.1 34.2 L 62.4 34.2 C 62.4 34.2 62.42 31.44 62.4 31.4 C 62.4 30.6 62 30 61.1 30 C 60.3 30 59.7 30.6 59.7 31.5 C 59.74 31.49 59.7 34.2 59.7 34.2 L 59 34.2 L 59 29.5 Z M 73.2 33.6 C 73.2 33.6 73.6 33.1 73.6 33.1 C 74.1 33.4 74.6 33.7 75.2 33.7 C 75.7 33.7 76.1 33.4 76.1 32.9 C 76.1 32.9 76.1 32.9 76.1 32.9 C 76.1 32.4 75.6 32.3 75 32.1 C 74.3 31.9 73.4 31.6 73.4 30.8 C 73.4 30.8 73.4 30.8 73.4 30.8 C 73.4 30 74.1 29.4 75 29.4 C 75.6 29.4 76.2 29.6 76.7 29.9 C 76.7 29.9 76.4 30.5 76.4 30.5 C 76 30.2 75.5 30 75 30 C 74.5 30 74.1 30.3 74.1 30.7 C 74.1 30.7 74.1 30.7 74.1 30.7 C 74.1 31.1 74.7 31.3 75.3 31.5 C 76 31.7 76.8 32 76.8 32.8 C 76.8 32.8 76.8 32.9 76.8 32.9 C 76.8 33.7 76.1 34.2 75.1 34.2 C 74.5 34.2 73.7 34 73.2 33.6 Z M 77.5 32.8 C 77.5 32.8 77.5 32.8 77.5 32.8 C 77.5 31.8 78.3 31.3 79.5 31.3 C 80.1 31.3 80.5 31.4 80.9 31.5 C 80.9 31.5 80.9 31.3 80.9 31.3 C 80.9 30.5 80.4 30.1 79.5 30.1 C 79 30.1 78.5 30.2 78.1 30.4 C 78.1 30.4 77.9 29.8 77.9 29.8 C 78.4 29.6 78.9 29.4 79.6 29.4 C 80.2 29.4 80.7 29.6 81.1 30 C 81.4 30.3 81.6 30.7 81.6 31.3 C 81.56 31.31 81.6 34.2 81.6 34.2 L 80.9 34.2 C 80.9 34.2 80.89 33.46 80.9 33.5 C 80.6 33.9 80 34.3 79.2 34.3 C 78.3 34.3 77.5 33.8 77.5 32.8 Z M 80.9 32.4 C 80.9 32.4 80.9 32 80.9 32 C 80.6 31.9 80.1 31.8 79.5 31.8 C 78.7 31.8 78.2 32.2 78.2 32.8 C 78.2 32.8 78.2 32.8 78.2 32.8 C 78.2 33.4 78.7 33.7 79.3 33.7 C 80.2 33.7 80.9 33.2 80.9 32.4 Z M 92.1 29.5 L 92.7 29.5 C 92.7 29.5 92.74 30.44 92.7 30.4 C 93.1 29.9 93.7 29.4 94.5 29.4 C 95.6 29.4 96.7 30.3 96.7 31.8 C 96.7 31.8 96.7 31.8 96.7 31.8 C 96.7 33.4 95.7 34.3 94.5 34.3 C 93.7 34.3 93.1 33.8 92.7 33.3 C 92.74 33.27 92.7 35.6 92.7 35.6 L 92.1 35.6 L 92.1 29.5 Z M 96 31.8 C 96 31.8 96 31.8 96 31.8 C 96 30.7 95.3 30 94.4 30 C 93.5 30 92.7 30.8 92.7 31.8 C 92.7 31.8 92.7 31.8 92.7 31.8 C 92.7 32.9 93.5 33.6 94.4 33.6 C 95.3 33.6 96 33 96 31.8 Z M 97.4 32.8 C 97.4 32.8 97.4 32.8 97.4 32.8 C 97.4 31.8 98.2 31.3 99.4 31.3 C 100 31.3 100.4 31.4 100.8 31.5 C 100.8 31.5 100.8 31.3 100.8 31.3 C 100.8 30.5 100.3 30.1 99.4 30.1 C 98.9 30.1 98.5 30.2 98 30.4 C 98 30.4 97.8 29.8 97.8 29.8 C 98.3 29.6 98.8 29.4 99.5 29.4 C 100.2 29.4 100.7 29.6 101 30 C 101.3 30.3 101.5 30.7 101.5 31.3 C 101.49 31.31 101.5 34.2 101.5 34.2 L 100.8 34.2 C 100.8 34.2 100.83 33.46 100.8 33.5 C 100.5 33.9 100 34.3 99.1 34.3 C 98.3 34.3 97.4 33.8 97.4 32.8 Z M 100.8 32.4 C 100.8 32.4 100.8 32 100.8 32 C 100.5 31.9 100 31.8 99.5 31.8 C 98.6 31.8 98.1 32.2 98.1 32.8 C 98.1 32.8 98.1 32.8 98.1 32.8 C 98.1 33.4 98.6 33.7 99.3 33.7 C 100.1 33.7 100.8 33.2 100.8 32.4 Z M 102.7 29.5 L 103.4 29.5 C 103.4 29.5 103.39 30.31 103.4 30.3 C 103.7 29.8 104.2 29.4 105 29.4 C 106.1 29.4 106.8 30.2 106.8 31.3 C 106.76 31.27 106.8 34.2 106.8 34.2 L 106.1 34.2 C 106.1 34.2 106.07 31.44 106.1 31.4 C 106.1 30.6 105.6 30 104.8 30 C 104 30 103.4 30.6 103.4 31.5 C 103.39 31.49 103.4 34.2 103.4 34.2 L 102.7 34.2 L 102.7 29.5 Z M 107.6 32.8 C 107.6 32.8 107.6 32.8 107.6 32.8 C 107.6 31.8 108.4 31.3 109.6 31.3 C 110.2 31.3 110.6 31.4 111 31.5 C 111 31.5 111 31.3 111 31.3 C 111 30.5 110.5 30.1 109.7 30.1 C 109.1 30.1 108.7 30.2 108.2 30.4 C 108.2 30.4 108 29.8 108 29.8 C 108.5 29.6 109.1 29.4 109.7 29.4 C 110.4 29.4 110.9 29.6 111.2 30 C 111.5 30.3 111.7 30.7 111.7 31.3 C 111.71 31.31 111.7 34.2 111.7 34.2 L 111 34.2 C 111 34.2 111.04 33.46 111 33.5 C 110.7 33.9 110.2 34.3 109.4 34.3 C 108.5 34.3 107.6 33.8 107.6 32.8 Z M 111 32.4 C 111 32.4 111 32 111 32 C 110.7 31.9 110.2 31.8 109.7 31.8 C 108.8 31.8 108.3 32.2 108.3 32.8 C 108.3 32.8 108.3 32.8 108.3 32.8 C 108.3 33.4 108.9 33.7 109.5 33.7 C 110.3 33.7 111 33.2 111 32.4 Z M 112.9 27.6 L 113.6 27.6 C 113.6 27.6 113.6 30.31 113.6 30.3 C 113.9 29.8 114.4 29.4 115.2 29.4 C 116.3 29.4 117 30.2 117 31.3 C 116.98 31.27 117 34.2 117 34.2 L 116.3 34.2 C 116.3 34.2 116.29 31.44 116.3 31.4 C 116.3 30.6 115.8 30 115 30 C 114.2 30 113.6 30.6 113.6 31.5 C 113.6 31.49 113.6 34.2 113.6 34.2 L 112.9 34.2 L 112.9 27.6 Z M 117.9 31.9 C 117.9 31.9 117.9 31.8 117.9 31.8 C 117.9 30.5 118.9 29.4 120.3 29.4 C 121.7 29.4 122.7 30.5 122.7 31.8 C 122.7 31.8 122.7 31.8 122.7 31.8 C 122.7 33.1 121.7 34.3 120.3 34.3 C 118.9 34.3 117.9 33.2 117.9 31.9 Z M 122 31.9 C 122 31.9 122 31.8 122 31.8 C 122 30.8 121.3 30 120.3 30 C 119.3 30 118.6 30.8 118.6 31.8 C 118.6 31.8 118.6 31.8 118.6 31.8 C 118.6 32.8 119.3 33.6 120.3 33.6 C 121.3 33.6 122 32.8 122 31.9 Z M 123.7 29.5 L 124.4 29.5 C 124.4 29.5 124.42 30.31 124.4 30.3 C 124.7 29.8 125.2 29.4 126 29.4 C 127.1 29.4 127.8 30.2 127.8 31.3 C 127.8 31.27 127.8 34.2 127.8 34.2 L 127.1 34.2 C 127.1 34.2 127.11 31.44 127.1 31.4 C 127.1 30.6 126.6 30 125.8 30 C 125 30 124.4 30.6 124.4 31.5 C 124.42 31.49 124.4 34.2 124.4 34.2 L 123.7 34.2 L 123.7 29.5 Z M 138.3 29.5 L 139 29.5 C 139 29.5 138.98 30.31 139 30.3 C 139.3 29.8 139.8 29.4 140.6 29.4 C 141.7 29.4 142.4 30.2 142.4 31.3 C 142.36 31.27 142.4 34.2 142.4 34.2 L 141.7 34.2 C 141.7 34.2 141.67 31.44 141.7 31.4 C 141.7 30.6 141.2 30 140.4 30 C 139.6 30 139 30.6 139 31.5 C 138.98 31.49 139 34.2 139 34.2 L 138.3 34.2 L 138.3 29.5 Z M 143.5 35 C 143.5 35 143.8 34.4 143.8 34.4 C 144.4 34.8 145 35 145.6 35 C 146.6 35 147.3 34.5 147.3 33.4 C 147.3 33.4 147.3 32.8 147.3 32.8 C 146.9 33.4 146.3 33.8 145.5 33.8 C 144.4 33.8 143.3 33 143.3 31.6 C 143.3 31.6 143.3 31.6 143.3 31.6 C 143.3 30.2 144.4 29.4 145.5 29.4 C 146.4 29.4 146.9 29.8 147.3 30.3 C 147.3 30.34 147.3 29.5 147.3 29.5 L 148 29.5 C 148 29.5 147.99 33.35 148 33.3 C 148 34.1 147.8 34.6 147.4 35 C 147 35.4 146.4 35.6 145.6 35.6 C 144.9 35.6 144.1 35.4 143.5 35 Z M 147.3 31.6 C 147.3 31.6 147.3 31.6 147.3 31.6 C 147.3 30.6 146.5 30 145.6 30 C 144.7 30 144 30.6 144 31.6 C 144 31.6 144 31.6 144 31.6 C 144 32.5 144.8 33.2 145.6 33.2 C 146.5 33.2 147.3 32.5 147.3 31.6 Z M 158.6 29.5 L 159.3 29.5 C 159.3 29.5 159.25 30.44 159.3 30.4 C 159.6 29.9 160.2 29.4 161 29.4 C 162.1 29.4 163.3 30.3 163.3 31.8 C 163.3 31.8 163.3 31.8 163.3 31.8 C 163.3 33.4 162.2 34.3 161 34.3 C 160.2 34.3 159.6 33.8 159.3 33.3 C 159.25 33.27 159.3 35.6 159.3 35.6 L 158.6 35.6 L 158.6 29.5 Z M 162.5 31.8 C 162.5 31.8 162.5 31.8 162.5 31.8 C 162.5 30.7 161.8 30 160.9 30 C 160 30 159.2 30.8 159.2 31.8 C 159.2 31.8 159.2 31.8 159.2 31.8 C 159.2 32.9 160 33.6 160.9 33.6 C 161.8 33.6 162.5 33 162.5 31.8 Z M 163.9 32.8 C 163.9 32.8 163.9 32.8 163.9 32.8 C 163.9 31.8 164.7 31.3 165.9 31.3 C 166.5 31.3 166.9 31.4 167.3 31.5 C 167.3 31.5 167.3 31.3 167.3 31.3 C 167.3 30.5 166.8 30.1 165.9 30.1 C 165.4 30.1 165 30.2 164.5 30.4 C 164.5 30.4 164.3 29.8 164.3 29.8 C 164.8 29.6 165.3 29.4 166 29.4 C 166.7 29.4 167.2 29.6 167.5 30 C 167.8 30.3 168 30.7 168 31.3 C 168 31.31 168 34.2 168 34.2 L 167.3 34.2 C 167.3 34.2 167.33 33.46 167.3 33.5 C 167 33.9 166.5 34.3 165.7 34.3 C 164.8 34.3 163.9 33.8 163.9 32.8 Z M 167.3 32.4 C 167.3 32.4 167.3 32 167.3 32 C 167 31.9 166.5 31.8 166 31.8 C 165.1 31.8 164.6 32.2 164.6 32.8 C 164.6 32.8 164.6 32.8 164.6 32.8 C 164.6 33.4 165.2 33.7 165.8 33.7 C 166.6 33.7 167.3 33.2 167.3 32.4 Z M 169.2 29.5 L 169.9 29.5 C 169.9 29.5 169.9 30.31 169.9 30.3 C 170.2 29.8 170.7 29.4 171.5 29.4 C 172.6 29.4 173.3 30.2 173.3 31.3 C 173.27 31.27 173.3 34.2 173.3 34.2 L 172.6 34.2 C 172.6 34.2 172.58 31.44 172.6 31.4 C 172.6 30.6 172.1 30 171.3 30 C 170.5 30 169.9 30.6 169.9 31.5 C 169.9 31.49 169.9 34.2 169.9 34.2 L 169.2 34.2 L 169.2 29.5 Z M 174.2 31.8 C 174.2 31.8 174.2 31.8 174.2 31.8 C 174.2 30.3 175.3 29.4 176.4 29.4 C 177.3 29.4 177.9 29.9 178.2 30.4 C 178.21 30.39 178.2 27.6 178.2 27.6 L 178.9 27.6 L 178.9 34.2 L 178.2 34.2 C 178.2 34.2 178.21 33.22 178.2 33.2 C 177.8 33.8 177.3 34.3 176.4 34.3 C 175.3 34.3 174.2 33.4 174.2 31.8 Z M 178.2 31.8 C 178.2 31.8 178.2 31.8 178.2 31.8 C 178.2 30.7 177.4 30 176.6 30 C 175.7 30 174.9 30.7 174.9 31.8 C 174.9 31.8 174.9 31.8 174.9 31.8 C 174.9 32.9 175.7 33.6 176.6 33.6 C 177.4 33.6 178.2 32.9 178.2 31.8 Z M 179.9 31.8 C 179.9 31.8 179.9 31.8 179.9 31.8 C 179.9 30.5 180.8 29.4 182.1 29.4 C 183.5 29.4 184.3 30.5 184.3 31.9 C 184.3 32 184.3 32 184.3 32.1 C 184.3 32.1 180.6 32.1 180.6 32.1 C 180.7 33.1 181.4 33.7 182.2 33.7 C 182.9 33.7 183.3 33.4 183.7 33 C 183.7 33 184.1 33.4 184.1 33.4 C 183.7 33.9 183.1 34.3 182.2 34.3 C 180.9 34.3 179.9 33.3 179.9 31.8 Z M 183.6 31.6 C 183.5 30.7 183 30 182.1 30 C 181.3 30 180.7 30.7 180.6 31.6 C 180.6 31.6 183.6 31.6 183.6 31.6 Z M 185.2 29.5 L 185.9 29.5 C 185.9 29.5 185.94 30.29 185.9 30.3 C 186.2 29.8 186.7 29.4 187.4 29.4 C 188.2 29.4 188.7 29.8 188.9 30.3 C 189.3 29.8 189.8 29.4 190.6 29.4 C 191.6 29.4 192.3 30.1 192.3 31.3 C 192.3 31.28 192.3 34.2 192.3 34.2 L 191.6 34.2 C 191.6 34.2 191.61 31.44 191.6 31.4 C 191.6 30.5 191.2 30 190.4 30 C 189.7 30 189.1 30.6 189.1 31.5 C 189.12 31.47 189.1 34.2 189.1 34.2 L 188.4 34.2 C 188.4 34.2 188.43 31.42 188.4 31.4 C 188.4 30.5 188 30 187.2 30 C 186.5 30 185.9 30.6 185.9 31.5 C 185.94 31.5 185.9 34.2 185.9 34.2 L 185.2 34.2 L 185.2 29.5 Z M 196.9 29.5 L 197.6 29.5 C 197.6 29.5 195.66 34.31 195.7 34.3 C 195.3 35.3 194.8 35.6 194.1 35.6 C 193.7 35.6 193.4 35.5 193.1 35.4 C 193.1 35.4 193.4 34.8 193.4 34.8 C 193.6 35 193.8 35 194.1 35 C 194.5 35 194.8 34.8 195 34.1 C 195.04 34.14 192.9 29.5 192.9 29.5 L 193.7 29.5 L 195.4 33.4 L 196.9 29.5 Z M 197.9 32.8 C 197.9 32.8 197.9 32.8 197.9 32.8 C 197.9 31.8 198.7 31.3 199.9 31.3 C 200.5 31.3 200.9 31.4 201.3 31.5 C 201.3 31.5 201.3 31.3 201.3 31.3 C 201.3 30.5 200.8 30.1 199.9 30.1 C 199.4 30.1 198.9 30.2 198.5 30.4 C 198.5 30.4 198.3 29.8 198.3 29.8 C 198.8 29.6 199.3 29.4 200 29.4 C 200.6 29.4 201.1 29.6 201.5 30 C 201.8 30.3 202 30.7 202 31.3 C 201.96 31.31 202 34.2 202 34.2 L 201.3 34.2 C 201.3 34.2 201.29 33.46 201.3 33.5 C 201 33.9 200.4 34.3 199.6 34.3 C 198.7 34.3 197.9 33.8 197.9 32.8 Z M 201.3 32.4 C 201.3 32.4 201.3 32 201.3 32 C 201 31.9 200.5 31.8 199.9 31.8 C 199.1 31.8 198.6 32.2 198.6 32.8 C 198.6 32.8 198.6 32.8 198.6 32.8 C 198.6 33.4 199.1 33.7 199.7 33.7 C 200.6 33.7 201.3 33.2 201.3 32.4 Z M 202.8 34.9 C 203.3 34.8 203.4 34.5 203.4 34.2 C 203.4 34.16 203.1 34.2 203.1 34.2 L 203.1 33.2 L 203.9 33.2 C 203.9 33.2 203.91 34.02 203.9 34 C 203.9 34.8 203.6 35.1 202.9 35.3 C 202.9 35.3 202.8 34.9 202.8 34.9 Z M 214.4 29.5 L 215.1 29.5 C 215.1 29.5 215.08 30.31 215.1 30.3 C 215.4 29.8 215.9 29.4 216.7 29.4 C 217.8 29.4 218.5 30.2 218.5 31.3 C 218.45 31.27 218.5 34.2 218.5 34.2 L 217.8 34.2 C 217.8 34.2 217.76 31.44 217.8 31.4 C 217.8 30.6 217.3 30 216.5 30 C 215.7 30 215.1 30.6 215.1 31.5 C 215.08 31.49 215.1 34.2 215.1 34.2 L 214.4 34.2 L 214.4 29.5 Z M 219.3 32.8 C 219.3 32.8 219.3 32.8 219.3 32.8 C 219.3 31.8 220.1 31.3 221.3 31.3 C 221.9 31.3 222.3 31.4 222.7 31.5 C 222.7 31.5 222.7 31.3 222.7 31.3 C 222.7 30.5 222.2 30.1 221.3 30.1 C 220.8 30.1 220.4 30.2 219.9 30.4 C 219.9 30.4 219.7 29.8 219.7 29.8 C 220.2 29.6 220.7 29.4 221.4 29.4 C 222.1 29.4 222.6 29.6 222.9 30 C 223.2 30.3 223.4 30.7 223.4 31.3 C 223.39 31.31 223.4 34.2 223.4 34.2 L 222.7 34.2 C 222.7 34.2 222.73 33.46 222.7 33.5 C 222.4 33.9 221.9 34.3 221 34.3 C 220.2 34.3 219.3 33.8 219.3 32.8 Z M 222.7 32.4 C 222.7 32.4 222.7 32 222.7 32 C 222.4 31.9 221.9 31.8 221.4 31.8 C 220.5 31.8 220 32.2 220 32.8 C 220 32.8 220 32.8 220 32.8 C 220 33.4 220.5 33.7 221.2 33.7 C 222 33.7 222.7 33.2 222.7 32.4 Z M 224.5 35 C 224.5 35 224.9 34.4 224.9 34.4 C 225.4 34.8 226 35 226.7 35 C 227.7 35 228.3 34.5 228.3 33.4 C 228.3 33.4 228.3 32.8 228.3 32.8 C 227.9 33.4 227.4 33.8 226.5 33.8 C 225.4 33.8 224.3 33 224.3 31.6 C 224.3 31.6 224.3 31.6 224.3 31.6 C 224.3 30.2 225.4 29.4 226.5 29.4 C 227.4 29.4 228 29.8 228.3 30.3 C 228.33 30.34 228.3 29.5 228.3 29.5 L 229 29.5 C 229 29.5 229.03 33.35 229 33.3 C 229 34.1 228.8 34.6 228.4 35 C 228 35.4 227.4 35.6 226.7 35.6 C 225.9 35.6 225.2 35.4 224.5 35 Z M 228.4 31.6 C 228.4 31.6 228.4 31.6 228.4 31.6 C 228.4 30.6 227.5 30 226.7 30 C 225.8 30 225 30.6 225 31.6 C 225 31.6 225 31.6 225 31.6 C 225 32.5 225.8 33.2 226.7 33.2 C 227.5 33.2 228.4 32.5 228.4 31.6 Z M 230.3 27.7 L 231.1 27.7 L 231.1 28.5 L 230.3 28.5 L 230.3 27.7 Z M 230.4 29.5 L 231.1 29.5 L 231.1 34.2 L 230.4 34.2 L 230.4 29.5 Z M 232.4 29.5 L 233.1 29.5 C 233.1 29.5 233.09 30.31 233.1 30.3 C 233.4 29.8 233.9 29.4 234.7 29.4 C 235.8 29.4 236.5 30.2 236.5 31.3 C 236.47 31.27 236.5 34.2 236.5 34.2 L 235.8 34.2 C 235.8 34.2 235.78 31.44 235.8 31.4 C 235.8 30.6 235.3 30 234.5 30 C 233.7 30 233.1 30.6 233.1 31.5 C 233.09 31.49 233.1 34.2 233.1 34.2 L 232.4 34.2 L 232.4 29.5 Z M 237.6 35 C 237.6 35 237.9 34.4 237.9 34.4 C 238.5 34.8 239.1 35 239.7 35 C 240.8 35 241.4 34.5 241.4 33.4 C 241.4 33.4 241.4 32.8 241.4 32.8 C 241 33.4 240.4 33.8 239.6 33.8 C 238.5 33.8 237.4 33 237.4 31.6 C 237.4 31.6 237.4 31.6 237.4 31.6 C 237.4 30.2 238.5 29.4 239.6 29.4 C 240.5 29.4 241 29.8 241.4 30.3 C 241.41 30.34 241.4 29.5 241.4 29.5 L 242.1 29.5 C 242.1 29.5 242.1 33.35 242.1 33.3 C 242.1 34.1 241.9 34.6 241.5 35 C 241.1 35.4 240.5 35.6 239.7 35.6 C 239 35.6 238.2 35.4 237.6 35 Z M 241.4 31.6 C 241.4 31.6 241.4 31.6 241.4 31.6 C 241.4 30.6 240.6 30 239.7 30 C 238.8 30 238.1 30.6 238.1 31.6 C 238.1 31.6 238.1 31.6 238.1 31.6 C 238.1 32.5 238.9 33.2 239.7 33.2 C 240.6 33.2 241.4 32.5 241.4 31.6 Z M 252.4 31.8 C 252.4 31.8 252.4 31.8 252.4 31.8 C 252.4 30.3 253.5 29.4 254.6 29.4 C 255.5 29.4 256 29.9 256.4 30.4 C 256.4 30.39 256.4 27.6 256.4 27.6 L 257.1 27.6 L 257.1 34.2 L 256.4 34.2 C 256.4 34.2 256.4 33.22 256.4 33.2 C 256 33.8 255.5 34.3 254.6 34.3 C 253.5 34.3 252.4 33.4 252.4 31.8 Z M 256.4 31.8 C 256.4 31.8 256.4 31.8 256.4 31.8 C 256.4 30.7 255.6 30 254.7 30 C 253.8 30 253.1 30.7 253.1 31.8 C 253.1 31.8 253.1 31.8 253.1 31.8 C 253.1 32.9 253.9 33.6 254.7 33.6 C 255.6 33.6 256.4 32.9 256.4 31.8 Z M 258 32.8 C 258 32.8 258 32.8 258 32.8 C 258 31.8 258.8 31.3 260 31.3 C 260.6 31.3 261 31.4 261.4 31.5 C 261.4 31.5 261.4 31.3 261.4 31.3 C 261.4 30.5 260.9 30.1 260.1 30.1 C 259.5 30.1 259.1 30.2 258.6 30.4 C 258.6 30.4 258.4 29.8 258.4 29.8 C 259 29.6 259.5 29.4 260.1 29.4 C 260.8 29.4 261.3 29.6 261.6 30 C 261.9 30.3 262.1 30.7 262.1 31.3 C 262.11 31.31 262.1 34.2 262.1 34.2 L 261.4 34.2 C 261.4 34.2 261.44 33.46 261.4 33.5 C 261.1 33.9 260.6 34.3 259.8 34.3 C 258.9 34.3 258 33.8 258 32.8 Z M 261.5 32.4 C 261.5 32.4 261.5 32 261.5 32 C 261.1 31.9 260.7 31.8 260.1 31.8 C 259.2 31.8 258.7 32.2 258.7 32.8 C 258.7 32.8 258.7 32.8 258.7 32.8 C 258.7 33.4 259.3 33.7 259.9 33.7 C 260.8 33.7 261.5 33.2 261.5 32.4 Z M 263.3 35 C 263.3 35 263.6 34.4 263.6 34.4 C 264.1 34.8 264.7 35 265.4 35 C 266.4 35 267.1 34.5 267.1 33.4 C 267.1 33.4 267.1 32.8 267.1 32.8 C 266.7 33.4 266.1 33.8 265.2 33.8 C 264.1 33.8 263 33 263 31.6 C 263 31.6 263 31.6 263 31.6 C 263 30.2 264.1 29.4 265.2 29.4 C 266.1 29.4 266.7 29.8 267.1 30.3 C 267.05 30.34 267.1 29.5 267.1 29.5 L 267.7 29.5 C 267.7 29.5 267.74 33.35 267.7 33.3 C 267.7 34.1 267.5 34.6 267.2 35 C 266.7 35.4 266.1 35.6 265.4 35.6 C 264.6 35.6 263.9 35.4 263.3 35 Z M 267.1 31.6 C 267.1 31.6 267.1 31.6 267.1 31.6 C 267.1 30.6 266.3 30 265.4 30 C 264.5 30 263.8 30.6 263.8 31.6 C 263.8 31.6 263.8 31.6 263.8 31.6 C 263.8 32.5 264.5 33.2 265.4 33.2 C 266.3 33.2 267.1 32.5 267.1 31.6 Z M 268.8 31.8 C 268.8 31.8 268.8 31.8 268.8 31.8 C 268.8 30.3 269.9 29.4 271 29.4 C 271.8 29.4 272.4 29.9 272.8 30.4 C 272.76 30.39 272.8 27.6 272.8 27.6 L 273.4 27.6 L 273.4 34.2 L 272.8 34.2 C 272.8 34.2 272.76 33.22 272.8 33.2 C 272.4 33.8 271.8 34.3 271 34.3 C 269.9 34.3 268.8 33.4 268.8 31.8 Z M 272.8 31.8 C 272.8 31.8 272.8 31.8 272.8 31.8 C 272.8 30.7 272 30 271.1 30 C 270.2 30 269.5 30.7 269.5 31.8 C 269.5 31.8 269.5 31.8 269.5 31.8 C 269.5 32.9 270.2 33.6 271.1 33.6 C 272 33.6 272.8 32.9 272.8 31.8 Z M 274.4 32.8 C 274.4 32.8 274.4 32.8 274.4 32.8 C 274.4 31.8 275.2 31.3 276.4 31.3 C 277 31.3 277.4 31.4 277.8 31.5 C 277.8 31.5 277.8 31.3 277.8 31.3 C 277.8 30.5 277.3 30.1 276.4 30.1 C 275.9 30.1 275.4 30.2 275 30.4 C 275 30.4 274.8 29.8 274.8 29.8 C 275.3 29.6 275.8 29.4 276.5 29.4 C 277.1 29.4 277.6 29.6 278 30 C 278.3 30.3 278.5 30.7 278.5 31.3 C 278.46 31.31 278.5 34.2 278.5 34.2 L 277.8 34.2 C 277.8 34.2 277.8 33.46 277.8 33.5 C 277.5 33.9 276.9 34.3 276.1 34.3 C 275.2 34.3 274.4 33.8 274.4 32.8 Z M 277.8 32.4 C 277.8 32.4 277.8 32 277.8 32 C 277.5 31.9 277 31.8 276.4 31.8 C 275.6 31.8 275.1 32.2 275.1 32.8 C 275.1 32.8 275.1 32.8 275.1 32.8 C 275.1 33.4 275.6 33.7 276.2 33.7 C 277.1 33.7 277.8 33.2 277.8 32.4 Z M 279.6 35 C 279.6 35 279.9 34.4 279.9 34.4 C 280.5 34.8 281.1 35 281.7 35 C 282.7 35 283.4 34.5 283.4 33.4 C 283.4 33.4 283.4 32.8 283.4 32.8 C 283 33.4 282.4 33.8 281.6 33.8 C 280.5 33.8 279.4 33 279.4 31.6 C 279.4 31.6 279.4 31.6 279.4 31.6 C 279.4 30.2 280.5 29.4 281.6 29.4 C 282.5 29.4 283 29.8 283.4 30.3 C 283.4 30.34 283.4 29.5 283.4 29.5 L 284.1 29.5 C 284.1 29.5 284.1 33.35 284.1 33.3 C 284.1 34.1 283.9 34.6 283.5 35 C 283.1 35.4 282.5 35.6 281.7 35.6 C 281 35.6 280.2 35.4 279.6 35 Z M 283.4 31.6 C 283.4 31.6 283.4 31.6 283.4 31.6 C 283.4 30.6 282.6 30 281.7 30 C 280.8 30 280.1 30.6 280.1 31.6 C 280.1 31.6 280.1 31.6 280.1 31.6 C 280.1 32.5 280.9 33.2 281.7 33.2 C 282.6 33.2 283.4 32.5 283.4 31.6 Z M 294.7 29.5 L 295.4 29.5 C 295.4 29.5 295.35 30.31 295.4 30.3 C 295.7 29.8 296.1 29.4 296.9 29.4 C 298.1 29.4 298.7 30.2 298.7 31.3 C 298.73 31.27 298.7 34.2 298.7 34.2 L 298 34.2 C 298 34.2 298.04 31.44 298 31.4 C 298 30.6 297.6 30 296.8 30 C 295.9 30 295.4 30.6 295.4 31.5 C 295.35 31.49 295.4 34.2 295.4 34.2 L 294.7 34.2 L 294.7 29.5 Z M 299.6 32.8 C 299.6 32.8 299.6 32.8 299.6 32.8 C 299.6 31.8 300.4 31.3 301.6 31.3 C 302.2 31.3 302.6 31.4 303 31.5 C 303 31.5 303 31.3 303 31.3 C 303 30.5 302.5 30.1 301.6 30.1 C 301.1 30.1 300.6 30.2 300.2 30.4 C 300.2 30.4 300 29.8 300 29.8 C 300.5 29.6 301 29.4 301.7 29.4 C 302.3 29.4 302.9 29.6 303.2 30 C 303.5 30.3 303.7 30.7 303.7 31.3 C 303.67 31.31 303.7 34.2 303.7 34.2 L 303 34.2 C 303 34.2 303.01 33.46 303 33.5 C 302.7 33.9 302.1 34.3 301.3 34.3 C 300.5 34.3 299.6 33.8 299.6 32.8 Z M 303 32.4 C 303 32.4 303 32 303 32 C 302.7 31.9 302.2 31.8 301.6 31.8 C 300.8 31.8 300.3 32.2 300.3 32.8 C 300.3 32.8 300.3 32.8 300.3 32.8 C 300.3 33.4 300.8 33.7 301.5 33.7 C 302.3 33.7 303 33.2 303 32.4 Z M 314.9 33.3 C 314.86 33.27 314.9 34.2 314.9 34.2 L 314.2 34.2 L 314.2 27.6 L 314.9 27.6 C 314.9 27.6 314.86 30.44 314.9 30.4 C 315.2 29.9 315.8 29.4 316.6 29.4 C 317.8 29.4 318.9 30.3 318.9 31.8 C 318.9 31.8 318.9 31.8 318.9 31.8 C 318.9 33.4 317.8 34.3 316.6 34.3 C 315.8 34.3 315.2 33.8 314.9 33.3 Z M 318.2 31.8 C 318.2 31.8 318.2 31.8 318.2 31.8 C 318.2 30.7 317.4 30 316.5 30 C 315.6 30 314.8 30.8 314.8 31.8 C 314.8 31.8 314.8 31.8 314.8 31.8 C 314.8 32.9 315.6 33.6 316.5 33.6 C 317.4 33.6 318.2 33 318.2 31.8 Z M 319.5 32.8 C 319.5 32.8 319.5 32.8 319.5 32.8 C 319.5 31.8 320.3 31.3 321.5 31.3 C 322.1 31.3 322.5 31.4 322.9 31.5 C 322.9 31.5 322.9 31.3 322.9 31.3 C 322.9 30.5 322.4 30.1 321.6 30.1 C 321 30.1 320.6 30.2 320.1 30.4 C 320.1 30.4 319.9 29.8 319.9 29.8 C 320.4 29.6 320.9 29.4 321.6 29.4 C 322.3 29.4 322.8 29.6 323.1 30 C 323.4 30.3 323.6 30.7 323.6 31.3 C 323.6 31.31 323.6 34.2 323.6 34.2 L 322.9 34.2 C 322.9 34.2 322.94 33.46 322.9 33.5 C 322.6 33.9 322.1 34.3 321.3 34.3 C 320.4 34.3 319.5 33.8 319.5 32.8 Z M 322.9 32.4 C 322.9 32.4 322.9 32 322.9 32 C 322.6 31.9 322.1 31.8 321.6 31.8 C 320.7 31.8 320.2 32.2 320.2 32.8 C 320.2 32.8 320.2 32.8 320.2 32.8 C 320.2 33.4 320.8 33.7 321.4 33.7 C 322.2 33.7 322.9 33.2 322.9 32.4 Z M 324.9 27.6 L 325.6 27.6 L 325.6 34.2 L 324.9 34.2 L 324.9 27.6 Z M 326.6 32.8 C 326.6 32.8 326.6 32.8 326.6 32.8 C 326.6 31.8 327.4 31.3 328.5 31.3 C 329.1 31.3 329.6 31.4 330 31.5 C 330 31.5 330 31.3 330 31.3 C 330 30.5 329.5 30.1 328.6 30.1 C 328 30.1 327.6 30.2 327.2 30.4 C 327.2 30.4 327 29.8 327 29.8 C 327.5 29.6 328 29.4 328.7 29.4 C 329.3 29.4 329.8 29.6 330.2 30 C 330.5 30.3 330.6 30.7 330.6 31.3 C 330.64 31.31 330.6 34.2 330.6 34.2 L 330 34.2 C 330 34.2 329.98 33.46 330 33.5 C 329.7 33.9 329.1 34.3 328.3 34.3 C 327.4 34.3 326.6 33.8 326.6 32.8 Z M 330 32.4 C 330 32.4 330 32 330 32 C 329.6 31.9 329.2 31.8 328.6 31.8 C 327.7 31.8 327.3 32.2 327.3 32.8 C 327.3 32.8 327.3 32.8 327.3 32.8 C 327.3 33.4 327.8 33.7 328.4 33.7 C 329.3 33.7 330 33.2 330 32.4 Z M 331.8 27.6 L 332.5 27.6 L 332.5 32.1 L 335.1 29.5 L 335.9 29.5 L 334 31.5 L 336 34.2 L 335.2 34.2 L 333.5 32 L 332.5 32.9 L 332.5 34.2 L 331.8 34.2 L 331.8 27.6 Z M 336.7 27.7 L 337.5 27.7 L 337.5 28.5 L 336.7 28.5 L 336.7 27.7 Z M 336.8 29.5 L 337.5 29.5 L 337.5 34.2 L 336.8 34.2 L 336.8 29.5 Z M 338.5 31.8 C 338.5 31.8 338.5 31.8 338.5 31.8 C 338.5 30.3 339.6 29.4 340.7 29.4 C 341.6 29.4 342.2 29.9 342.5 30.4 C 342.53 30.39 342.5 27.6 342.5 27.6 L 343.2 27.6 L 343.2 34.2 L 342.5 34.2 C 342.5 34.2 342.53 33.22 342.5 33.2 C 342.2 33.8 341.6 34.3 340.7 34.3 C 339.6 34.3 338.5 33.4 338.5 31.8 Z M 342.6 31.8 C 342.6 31.8 342.6 31.8 342.6 31.8 C 342.6 30.7 341.7 30 340.9 30 C 340 30 339.2 30.7 339.2 31.8 C 339.2 31.8 339.2 31.8 339.2 31.8 C 339.2 32.9 340 33.6 340.9 33.6 C 341.7 33.6 342.6 32.9 342.6 31.8 Z M 353.8 29.5 L 354.5 29.5 C 354.5 29.5 354.48 30.31 354.5 30.3 C 354.8 29.8 355.3 29.4 356.1 29.4 C 357.2 29.4 357.9 30.2 357.9 31.3 C 357.86 31.27 357.9 34.2 357.9 34.2 L 357.2 34.2 C 357.2 34.2 357.17 31.44 357.2 31.4 C 357.2 30.6 356.7 30 355.9 30 C 355.1 30 354.5 30.6 354.5 31.5 C 354.48 31.49 354.5 34.2 354.5 34.2 L 353.8 34.2 L 353.8 29.5 Z M 358.7 32.8 C 358.7 32.8 358.7 32.8 358.7 32.8 C 358.7 31.8 359.5 31.3 360.7 31.3 C 361.3 31.3 361.7 31.4 362.1 31.5 C 362.1 31.5 362.1 31.3 362.1 31.3 C 362.1 30.5 361.6 30.1 360.7 30.1 C 360.2 30.1 359.8 30.2 359.3 30.4 C 359.3 30.4 359.1 29.8 359.1 29.8 C 359.6 29.6 360.1 29.4 360.8 29.4 C 361.5 29.4 362 29.6 362.3 30 C 362.6 30.3 362.8 30.7 362.8 31.3 C 362.8 31.31 362.8 34.2 362.8 34.2 L 362.1 34.2 C 362.1 34.2 362.13 33.46 362.1 33.5 C 361.8 33.9 361.3 34.3 360.4 34.3 C 359.6 34.3 358.7 33.8 358.7 32.8 Z M 362.1 32.4 C 362.1 32.4 362.1 32 362.1 32 C 361.8 31.9 361.3 31.8 360.8 31.8 C 359.9 31.8 359.4 32.2 359.4 32.8 C 359.4 32.8 359.4 32.8 359.4 32.8 C 359.4 33.4 360 33.7 360.6 33.7 C 361.4 33.7 362.1 33.2 362.1 32.4 Z M 364 29.5 L 364.7 29.5 C 364.7 29.5 364.7 30.29 364.7 30.3 C 365 29.8 365.4 29.4 366.2 29.4 C 367 29.4 367.4 29.8 367.7 30.3 C 368 29.8 368.5 29.4 369.3 29.4 C 370.4 29.4 371.1 30.1 371.1 31.3 C 371.06 31.28 371.1 34.2 371.1 34.2 L 370.4 34.2 C 370.4 34.2 370.37 31.44 370.4 31.4 C 370.4 30.5 369.9 30 369.2 30 C 368.5 30 367.9 30.6 367.9 31.5 C 367.88 31.47 367.9 34.2 367.9 34.2 L 367.2 34.2 C 367.2 34.2 367.19 31.42 367.2 31.4 C 367.2 30.5 366.7 30 366 30 C 365.3 30 364.7 30.6 364.7 31.5 C 364.7 31.5 364.7 34.2 364.7 34.2 L 364 34.2 L 364 29.5 Z M 371.9 32.8 C 371.9 32.8 371.9 32.8 371.9 32.8 C 371.9 31.8 372.8 31.3 373.9 31.3 C 374.5 31.3 374.9 31.4 375.4 31.5 C 375.4 31.5 375.4 31.3 375.4 31.3 C 375.4 30.5 374.9 30.1 374 30.1 C 373.4 30.1 373 30.2 372.6 30.4 C 372.6 30.4 372.4 29.8 372.4 29.8 C 372.9 29.6 373.4 29.4 374 29.4 C 374.7 29.4 375.2 29.6 375.6 30 C 375.9 30.3 376 30.7 376 31.3 C 376.03 31.31 376 34.2 376 34.2 L 375.4 34.2 C 375.4 34.2 375.36 33.46 375.4 33.5 C 375 33.9 374.5 34.3 373.7 34.3 C 372.8 34.3 371.9 33.8 371.9 32.8 Z M 375.4 32.4 C 375.4 32.4 375.4 32 375.4 32 C 375 31.9 374.6 31.8 374 31.8 C 373.1 31.8 372.6 32.2 372.6 32.8 C 372.6 32.8 372.6 32.8 372.6 32.8 C 372.6 33.4 373.2 33.7 373.8 33.7 C 374.7 33.7 375.4 33.2 375.4 32.4 Z M 377.2 29.5 L 377.9 29.5 C 377.9 29.5 377.93 30.31 377.9 30.3 C 378.2 29.8 378.7 29.4 379.5 29.4 C 380.6 29.4 381.3 30.2 381.3 31.3 C 381.3 31.27 381.3 34.2 381.3 34.2 L 380.6 34.2 C 380.6 34.2 380.61 31.44 380.6 31.4 C 380.6 30.6 380.1 30 379.3 30 C 378.5 30 377.9 30.6 377.9 31.5 C 377.93 31.49 377.9 34.2 377.9 34.2 L 377.2 34.2 L 377.2 29.5 Z M 391.4 33.6 C 391.4 33.6 391.8 33.1 391.8 33.1 C 392.3 33.4 392.8 33.7 393.4 33.7 C 393.9 33.7 394.3 33.4 394.3 32.9 C 394.3 32.9 394.3 32.9 394.3 32.9 C 394.3 32.4 393.8 32.3 393.2 32.1 C 392.4 31.9 391.6 31.6 391.6 30.8 C 391.6 30.8 391.6 30.8 391.6 30.8 C 391.6 30 392.3 29.4 393.2 29.4 C 393.8 29.4 394.4 29.6 394.9 29.9 C 394.9 29.9 394.6 30.5 394.6 30.5 C 394.1 30.2 393.7 30 393.2 30 C 392.7 30 392.3 30.3 392.3 30.7 C 392.3 30.7 392.3 30.7 392.3 30.7 C 392.3 31.1 392.9 31.3 393.5 31.5 C 394.2 31.7 395 32 395 32.8 C 395 32.8 395 32.9 395 32.9 C 395 33.7 394.3 34.2 393.3 34.2 C 392.7 34.2 391.9 34 391.4 33.6 Z M 395.7 32.8 C 395.7 32.8 395.7 32.8 395.7 32.8 C 395.7 31.8 396.5 31.3 397.6 31.3 C 398.2 31.3 398.7 31.4 399.1 31.5 C 399.1 31.5 399.1 31.3 399.1 31.3 C 399.1 30.5 398.6 30.1 397.7 30.1 C 397.1 30.1 396.7 30.2 396.3 30.4 C 396.3 30.4 396.1 29.8 396.1 29.8 C 396.6 29.6 397.1 29.4 397.8 29.4 C 398.4 29.4 398.9 29.6 399.3 30 C 399.6 30.3 399.7 30.7 399.7 31.3 C 399.74 31.31 399.7 34.2 399.7 34.2 L 399.1 34.2 C 399.1 34.2 399.08 33.46 399.1 33.5 C 398.8 33.9 398.2 34.3 397.4 34.3 C 396.5 34.3 395.7 33.8 395.7 32.8 Z M 399.1 32.4 C 399.1 32.4 399.1 32 399.1 32 C 398.7 31.9 398.3 31.8 397.7 31.8 C 396.8 31.8 396.4 32.2 396.4 32.8 C 396.4 32.8 396.4 32.8 396.4 32.8 C 396.4 33.4 396.9 33.7 397.5 33.7 C 398.4 33.7 399.1 33.2 399.1 32.4 Z M 410.2 29.5 L 410.9 29.5 C 410.9 29.5 410.93 30.29 410.9 30.3 C 411.2 29.8 411.6 29.4 412.4 29.4 C 413.2 29.4 413.7 29.8 413.9 30.3 C 414.3 29.8 414.8 29.4 415.6 29.4 C 416.6 29.4 417.3 30.1 417.3 31.3 C 417.29 31.28 417.3 34.2 417.3 34.2 L 416.6 34.2 C 416.6 34.2 416.6 31.44 416.6 31.4 C 416.6 30.5 416.1 30 415.4 30 C 414.7 30 414.1 30.6 414.1 31.5 C 414.12 31.47 414.1 34.2 414.1 34.2 L 413.4 34.2 C 413.4 34.2 413.42 31.42 413.4 31.4 C 413.4 30.5 413 30 412.2 30 C 411.5 30 410.9 30.6 410.9 31.5 C 410.93 31.5 410.9 34.2 410.9 34.2 L 410.2 34.2 L 410.2 29.5 Z M 418.2 32.8 C 418.2 32.8 418.2 32.8 418.2 32.8 C 418.2 31.8 419 31.3 420.2 31.3 C 420.8 31.3 421.2 31.4 421.6 31.5 C 421.6 31.5 421.6 31.3 421.6 31.3 C 421.6 30.5 421.1 30.1 420.2 30.1 C 419.7 30.1 419.2 30.2 418.8 30.4 C 418.8 30.4 418.6 29.8 418.6 29.8 C 419.1 29.6 419.6 29.4 420.3 29.4 C 420.9 29.4 421.4 29.6 421.8 30 C 422.1 30.3 422.3 30.7 422.3 31.3 C 422.26 31.31 422.3 34.2 422.3 34.2 L 421.6 34.2 C 421.6 34.2 421.6 33.46 421.6 33.5 C 421.3 33.9 420.7 34.3 419.9 34.3 C 419 34.3 418.2 33.8 418.2 32.8 Z M 421.6 32.4 C 421.6 32.4 421.6 32 421.6 32 C 421.3 31.9 420.8 31.8 420.2 31.8 C 419.4 31.8 418.9 32.2 418.9 32.8 C 418.9 32.8 418.9 32.8 418.9 32.8 C 418.9 33.4 419.4 33.7 420 33.7 C 420.9 33.7 421.6 33.2 421.6 32.4 Z M 423.1 33.6 C 423.1 33.6 423.4 33.1 423.4 33.1 C 423.9 33.4 424.5 33.7 425 33.7 C 425.6 33.7 426 33.4 426 32.9 C 426 32.9 426 32.9 426 32.9 C 426 32.4 425.5 32.3 424.8 32.1 C 424.1 31.9 423.3 31.6 423.3 30.8 C 423.3 30.8 423.3 30.8 423.3 30.8 C 423.3 30 424 29.4 424.9 29.4 C 425.5 29.4 426.1 29.6 426.6 29.9 C 426.6 29.9 426.2 30.5 426.2 30.5 C 425.8 30.2 425.3 30 424.9 30 C 424.3 30 424 30.3 424 30.7 C 424 30.7 424 30.7 424 30.7 C 424 31.1 424.5 31.3 425.2 31.5 C 425.9 31.7 426.7 32 426.7 32.8 C 426.7 32.8 426.7 32.9 426.7 32.9 C 426.7 33.7 425.9 34.2 425 34.2 C 424.3 34.2 423.6 34 423.1 33.6 Z M 427.3 32.8 C 427.3 32.8 427.3 32.8 427.3 32.8 C 427.3 31.8 428.1 31.3 429.3 31.3 C 429.9 31.3 430.3 31.4 430.7 31.5 C 430.7 31.5 430.7 31.3 430.7 31.3 C 430.7 30.5 430.2 30.1 429.4 30.1 C 428.8 30.1 428.4 30.2 427.9 30.4 C 427.9 30.4 427.7 29.8 427.7 29.8 C 428.3 29.6 428.8 29.4 429.4 29.4 C 430.1 29.4 430.6 29.6 430.9 30 C 431.3 30.3 431.4 30.7 431.4 31.3 C 431.41 31.31 431.4 34.2 431.4 34.2 L 430.7 34.2 C 430.7 34.2 430.75 33.46 430.7 33.5 C 430.4 33.9 429.9 34.3 429.1 34.3 C 428.2 34.3 427.3 33.8 427.3 32.8 Z M 430.8 32.4 C 430.8 32.4 430.8 32 430.8 32 C 430.4 31.9 430 31.8 429.4 31.8 C 428.5 31.8 428 32.2 428 32.8 C 428 32.8 428 32.8 428 32.8 C 428 33.4 428.6 33.7 429.2 33.7 C 430.1 33.7 430.8 33.2 430.8 32.4 Z M 441.6 32.8 C 441.6 32.8 441.6 32.8 441.6 32.8 C 441.6 31.8 442.4 31.3 443.5 31.3 C 444.1 31.3 444.6 31.4 445 31.5 C 445 31.5 445 31.3 445 31.3 C 445 30.5 444.5 30.1 443.6 30.1 C 443 30.1 442.6 30.2 442.2 30.4 C 442.2 30.4 442 29.8 442 29.8 C 442.5 29.6 443 29.4 443.7 29.4 C 444.3 29.4 444.8 29.6 445.2 30 C 445.5 30.3 445.6 30.7 445.6 31.3 C 445.64 31.31 445.6 34.2 445.6 34.2 L 445 34.2 C 445 34.2 444.98 33.46 445 33.5 C 444.7 33.9 444.1 34.3 443.3 34.3 C 442.4 34.3 441.6 33.8 441.6 32.8 Z M 445 32.4 C 445 32.4 445 32 445 32 C 444.6 31.9 444.2 31.8 443.6 31.8 C 442.7 31.8 442.3 32.2 442.3 32.8 C 442.3 32.8 442.3 32.8 442.3 32.8 C 442.3 33.4 442.8 33.7 443.4 33.7 C 444.3 33.7 445 33.2 445 32.4 Z M 446.8 29.5 L 447.5 29.5 C 447.5 29.5 447.54 30.31 447.5 30.3 C 447.8 29.8 448.3 29.4 449.1 29.4 C 450.3 29.4 450.9 30.2 450.9 31.3 C 450.92 31.27 450.9 34.2 450.9 34.2 L 450.2 34.2 C 450.2 34.2 450.22 31.44 450.2 31.4 C 450.2 30.6 449.8 30 448.9 30 C 448.1 30 447.5 30.6 447.5 31.5 C 447.54 31.49 447.5 34.2 447.5 34.2 L 446.8 34.2 L 446.8 29.5 Z M 452.1 35 C 452.1 35 452.4 34.4 452.4 34.4 C 452.9 34.8 453.5 35 454.2 35 C 455.2 35 455.9 34.5 455.9 33.4 C 455.9 33.4 455.9 32.8 455.9 32.8 C 455.5 33.4 454.9 33.8 454 33.8 C 452.9 33.8 451.9 33 451.9 31.6 C 451.9 31.6 451.9 31.6 451.9 31.6 C 451.9 30.2 452.9 29.4 454 29.4 C 454.9 29.4 455.5 29.8 455.9 30.3 C 455.86 30.34 455.9 29.5 455.9 29.5 L 456.5 29.5 C 456.5 29.5 456.55 33.35 456.5 33.3 C 456.5 34.1 456.3 34.6 456 35 C 455.5 35.4 454.9 35.6 454.2 35.6 C 453.4 35.6 452.7 35.4 452.1 35 Z M 455.9 31.6 C 455.9 31.6 455.9 31.6 455.9 31.6 C 455.9 30.6 455.1 30 454.2 30 C 453.3 30 452.6 30.6 452.6 31.6 C 452.6 31.6 452.6 31.6 452.6 31.6 C 452.6 32.5 453.3 33.2 454.2 33.2 C 455.1 33.2 455.9 32.5 455.9 31.6 Z " stroke="none" fill="#fff"/>
  </g>
  <g id="Polygon22195">
    <path d="M 0.9 15.9 L 1.6 15.9 L 5.5 20.9 L 5.5 15.9 L 6.2 15.9 L 6.2 22.2 L 5.7 22.2 L 1.6 17 L 1.6 22.2 L 0.9 22.2 L 0.9 15.9 Z M 10.1 15.8 L 10.7 15.8 L 13.6 22.2 L 12.8 22.2 L 12.1 20.5 L 8.7 20.5 L 7.9 22.2 L 7.2 22.2 L 10.1 15.8 Z M 11.8 19.8 L 10.4 16.6 L 8.9 19.8 L 11.8 19.8 Z M 13.9 19 C 13.9 19 13.9 19 13.9 19 C 13.9 17.3 15.2 15.8 17.1 15.8 C 18.1 15.8 18.8 16.1 19.4 16.6 C 19.4 16.6 19 17.1 19 17.1 C 18.5 16.7 17.9 16.4 17.1 16.4 C 15.7 16.4 14.7 17.6 14.7 19 C 14.7 19 14.7 19 14.7 19 C 14.7 20.5 15.6 21.6 17.2 21.6 C 17.9 21.6 18.5 21.3 19 21 C 18.97 21 19 19.4 19 19.4 L 17.1 19.4 L 17.1 18.8 L 19.7 18.8 C 19.7 18.8 19.66 21.3 19.7 21.3 C 19.1 21.8 18.2 22.3 17.1 22.3 C 15.1 22.3 13.9 20.8 13.9 19 Z M 20.7 19.1 L 23.2 19.1 L 23.2 19.8 L 20.7 19.8 L 20.7 19.1 Z M 26.4 15.8 L 27 15.8 L 29.9 22.2 L 29.1 22.2 L 28.4 20.5 L 25 20.5 L 24.2 22.2 L 23.5 22.2 L 26.4 15.8 Z M 28.1 19.8 L 26.7 16.6 L 25.2 19.8 L 28.1 19.8 Z M 30.9 15.9 L 31.6 15.9 L 31.6 21.5 L 35.1 21.5 L 35.1 22.2 L 30.9 22.2 L 30.9 15.9 Z M 35.5 19 C 35.5 19 35.5 19 35.5 19 C 35.5 17.3 36.8 15.8 38.8 15.8 C 40.7 15.8 42 17.3 42 19 C 42 19 42 19 42 19 C 42 20.7 40.7 22.3 38.7 22.3 C 36.8 22.3 35.5 20.8 35.5 19 Z M 41.2 19 C 41.2 19 41.2 19 41.2 19 C 41.2 17.6 40.2 16.4 38.7 16.4 C 37.3 16.4 36.3 17.6 36.3 19 C 36.3 19 36.3 19 36.3 19 C 36.3 20.4 37.3 21.6 38.8 21.6 C 40.2 21.6 41.2 20.5 41.2 19 Z M 43.2 15.9 L 43.9 15.9 L 43.9 19.6 L 47.5 15.9 L 48.4 15.9 L 45.7 18.6 L 48.6 22.2 L 47.7 22.2 L 45.2 19.1 L 43.9 20.5 L 43.9 22.2 L 43.2 22.2 L 43.2 15.9 Z M 61.6 17.5 L 62.2 17.5 C 62.2 17.5 62.25 18.29 62.2 18.3 C 62.6 17.8 63 17.4 63.8 17.4 C 64.5 17.4 65 17.8 65.2 18.3 C 65.6 17.8 66.1 17.4 66.9 17.4 C 68 17.4 68.6 18.1 68.6 19.3 C 68.61 19.28 68.6 22.2 68.6 22.2 L 67.9 22.2 C 67.9 22.2 67.92 19.44 67.9 19.4 C 67.9 18.5 67.5 18 66.7 18 C 66 18 65.4 18.6 65.4 19.5 C 65.43 19.47 65.4 22.2 65.4 22.2 L 64.7 22.2 C 64.7 22.2 64.74 19.42 64.7 19.4 C 64.7 18.5 64.3 18 63.5 18 C 62.8 18 62.2 18.6 62.2 19.5 C 62.25 19.5 62.2 22.2 62.2 22.2 L 61.6 22.2 L 61.6 17.5 Z M 69.5 20.8 C 69.5 20.8 69.5 20.8 69.5 20.8 C 69.5 19.8 70.3 19.3 71.5 19.3 C 72.1 19.3 72.5 19.4 72.9 19.5 C 72.9 19.5 72.9 19.3 72.9 19.3 C 72.9 18.5 72.4 18.1 71.5 18.1 C 71 18.1 70.5 18.2 70.1 18.4 C 70.1 18.4 69.9 17.8 69.9 17.8 C 70.4 17.6 70.9 17.4 71.6 17.4 C 72.3 17.4 72.8 17.6 73.1 18 C 73.4 18.3 73.6 18.7 73.6 19.3 C 73.58 19.31 73.6 22.2 73.6 22.2 L 72.9 22.2 C 72.9 22.2 72.91 21.46 72.9 21.5 C 72.6 21.9 72 22.3 71.2 22.3 C 70.4 22.3 69.5 21.8 69.5 20.8 Z M 72.9 20.4 C 72.9 20.4 72.9 20 72.9 20 C 72.6 19.9 72.1 19.8 71.6 19.8 C 70.7 19.8 70.2 20.2 70.2 20.8 C 70.2 20.8 70.2 20.8 70.2 20.8 C 70.2 21.4 70.7 21.7 71.4 21.7 C 72.2 21.7 72.9 21.2 72.9 20.4 Z M 74.8 17.5 L 75.5 17.5 C 75.5 17.5 75.48 18.31 75.5 18.3 C 75.8 17.8 76.3 17.4 77.1 17.4 C 78.2 17.4 78.9 18.2 78.9 19.3 C 78.85 19.27 78.9 22.2 78.9 22.2 L 78.2 22.2 C 78.2 22.2 78.16 19.44 78.2 19.4 C 78.2 18.6 77.7 18 76.9 18 C 76.1 18 75.5 18.6 75.5 19.5 C 75.48 19.49 75.5 22.2 75.5 22.2 L 74.8 22.2 L 74.8 17.5 Z M 92.3 17.5 L 93 17.5 C 93 17.5 93.03 18.31 93 18.3 C 93.3 17.8 93.8 17.4 94.6 17.4 C 95.7 17.4 96.4 18.2 96.4 19.3 C 96.41 19.27 96.4 22.2 96.4 22.2 L 95.7 22.2 C 95.7 22.2 95.71 19.44 95.7 19.4 C 95.7 18.6 95.2 18 94.4 18 C 93.6 18 93 18.6 93 19.5 C 93.03 19.49 93 22.2 93 22.2 L 92.3 22.2 L 92.3 17.5 Z M 97.6 23 C 97.6 23 97.9 22.4 97.9 22.4 C 98.4 22.8 99 23 99.7 23 C 100.7 23 101.4 22.5 101.4 21.4 C 101.4 21.4 101.4 20.8 101.4 20.8 C 101 21.4 100.4 21.8 99.5 21.8 C 98.4 21.8 97.3 21 97.3 19.6 C 97.3 19.6 97.3 19.6 97.3 19.6 C 97.3 18.2 98.4 17.4 99.5 17.4 C 100.4 17.4 101 17.8 101.3 18.3 C 101.35 18.34 101.3 17.5 101.3 17.5 L 102 17.5 C 102 17.5 102.04 21.35 102 21.3 C 102 22.1 101.8 22.6 101.4 23 C 101 23.4 100.4 23.6 99.7 23.6 C 98.9 23.6 98.2 23.4 97.6 23 Z M 101.4 19.6 C 101.4 19.6 101.4 19.6 101.4 19.6 C 101.4 18.6 100.5 18 99.7 18 C 98.8 18 98.1 18.6 98.1 19.6 C 98.1 19.6 98.1 19.6 98.1 19.6 C 98.1 20.5 98.8 21.2 99.7 21.2 C 100.5 21.2 101.4 20.5 101.4 19.6 Z M 115.6 17.5 L 116.3 17.5 C 116.3 17.5 116.29 18.44 116.3 18.4 C 116.7 17.9 117.2 17.4 118.1 17.4 C 119.2 17.4 120.3 18.3 120.3 19.8 C 120.3 19.8 120.3 19.8 120.3 19.8 C 120.3 21.4 119.2 22.3 118.1 22.3 C 117.2 22.3 116.7 21.8 116.3 21.3 C 116.29 21.27 116.3 23.6 116.3 23.6 L 115.6 23.6 L 115.6 17.5 Z M 119.6 19.8 C 119.6 19.8 119.6 19.8 119.6 19.8 C 119.6 18.7 118.8 18 117.9 18 C 117.1 18 116.3 18.8 116.3 19.8 C 116.3 19.8 116.3 19.8 116.3 19.8 C 116.3 20.9 117.1 21.6 117.9 21.6 C 118.8 21.6 119.6 21 119.6 19.8 Z M 121.3 17.5 L 122 17.5 C 122 17.5 122 18.72 122 18.7 C 122.3 17.9 123 17.4 123.9 17.4 C 123.89 17.42 123.9 18.2 123.9 18.2 C 123.9 18.2 123.84 18.17 123.8 18.2 C 122.8 18.2 122 18.9 122 20.3 C 122 20.3 122 22.2 122 22.2 L 121.3 22.2 L 121.3 17.5 Z M 124.2 19.9 C 124.2 19.9 124.2 19.8 124.2 19.8 C 124.2 18.5 125.2 17.4 126.6 17.4 C 128 17.4 129 18.5 129 19.8 C 129 19.8 129 19.8 129 19.8 C 129 21.1 128 22.3 126.6 22.3 C 125.2 22.3 124.2 21.2 124.2 19.9 Z M 128.3 19.9 C 128.3 19.9 128.3 19.8 128.3 19.8 C 128.3 18.8 127.6 18 126.6 18 C 125.6 18 124.9 18.8 124.9 19.8 C 124.9 19.8 124.9 19.8 124.9 19.8 C 124.9 20.8 125.6 21.6 126.6 21.6 C 127.6 21.6 128.3 20.8 128.3 19.9 Z M 133.2 17.5 L 134 17.5 C 134 17.5 132.02 22.31 132 22.3 C 131.6 23.3 131.2 23.6 130.5 23.6 C 130.1 23.6 129.8 23.5 129.5 23.4 C 129.5 23.4 129.7 22.8 129.7 22.8 C 129.9 23 130.2 23 130.4 23 C 130.9 23 131.1 22.8 131.4 22.1 C 131.4 22.14 129.3 17.5 129.3 17.5 L 130.1 17.5 L 131.7 21.4 L 133.2 17.5 Z M 134.2 19.8 C 134.2 19.8 134.2 19.8 134.2 19.8 C 134.2 18.5 135.2 17.4 136.5 17.4 C 137.9 17.4 138.6 18.5 138.6 19.9 C 138.6 20 138.6 20 138.6 20.1 C 138.6 20.1 134.9 20.1 134.9 20.1 C 135 21.1 135.8 21.7 136.6 21.7 C 137.2 21.7 137.7 21.4 138.1 21 C 138.1 21 138.5 21.4 138.5 21.4 C 138 21.9 137.4 22.3 136.6 22.3 C 135.3 22.3 134.2 21.3 134.2 19.8 Z M 137.9 19.6 C 137.9 18.7 137.4 18 136.5 18 C 135.6 18 135 18.7 134.9 19.6 C 134.9 19.6 137.9 19.6 137.9 19.6 Z M 139.6 15.6 L 140.3 15.6 L 140.3 20.1 L 142.8 17.5 L 143.7 17.5 L 141.7 19.5 L 143.7 22.2 L 142.9 22.2 L 141.2 20 L 140.3 20.9 L 140.3 22.2 L 139.6 22.2 L 139.6 15.6 Z M 144.6 20.9 C 144.6 20.92 144.6 18.1 144.6 18.1 L 143.9 18.1 L 143.9 17.5 L 144.6 17.5 L 144.6 16.1 L 145.3 16.1 L 145.3 17.5 L 146.8 17.5 L 146.8 18.1 L 145.3 18.1 C 145.3 18.1 145.29 20.83 145.3 20.8 C 145.3 21.4 145.6 21.6 146.1 21.6 C 146.3 21.6 146.5 21.6 146.7 21.4 C 146.7 21.4 146.7 22 146.7 22 C 146.5 22.2 146.2 22.2 145.9 22.2 C 145.2 22.2 144.6 21.9 144.6 20.9 Z M 147.3 19.9 C 147.3 19.9 147.3 19.8 147.3 19.8 C 147.3 18.5 148.3 17.4 149.7 17.4 C 151.1 17.4 152.1 18.5 152.1 19.8 C 152.1 19.8 152.1 19.8 152.1 19.8 C 152.1 21.1 151.1 22.3 149.7 22.3 C 148.3 22.3 147.3 21.2 147.3 19.9 Z M 151.4 19.9 C 151.4 19.9 151.4 19.8 151.4 19.8 C 151.4 18.8 150.7 18 149.7 18 C 148.7 18 148 18.8 148 19.8 C 148 19.8 148 19.8 148 19.8 C 148 20.8 148.7 21.6 149.7 21.6 C 150.7 21.6 151.4 20.8 151.4 19.9 Z M 165.1 20.8 C 165.1 20.8 165.1 20.8 165.1 20.8 C 165.1 19.8 165.9 19.3 167 19.3 C 167.6 19.3 168.1 19.4 168.5 19.5 C 168.5 19.5 168.5 19.3 168.5 19.3 C 168.5 18.5 168 18.1 167.1 18.1 C 166.5 18.1 166.1 18.2 165.7 18.4 C 165.7 18.4 165.5 17.8 165.5 17.8 C 166 17.6 166.5 17.4 167.2 17.4 C 167.8 17.4 168.3 17.6 168.7 18 C 169 18.3 169.1 18.7 169.1 19.3 C 169.14 19.31 169.1 22.2 169.1 22.2 L 168.5 22.2 C 168.5 22.2 168.48 21.46 168.5 21.5 C 168.2 21.9 167.6 22.3 166.8 22.3 C 165.9 22.3 165.1 21.8 165.1 20.8 Z M 168.5 20.4 C 168.5 20.4 168.5 20 168.5 20 C 168.1 19.9 167.7 19.8 167.1 19.8 C 166.2 19.8 165.8 20.2 165.8 20.8 C 165.8 20.8 165.8 20.8 165.8 20.8 C 165.8 21.4 166.3 21.7 166.9 21.7 C 167.8 21.7 168.5 21.2 168.5 20.4 Z M 170.3 17.5 L 171 17.5 C 171 17.5 171.04 18.31 171 18.3 C 171.3 17.8 171.8 17.4 172.6 17.4 C 173.8 17.4 174.4 18.2 174.4 19.3 C 174.42 19.27 174.4 22.2 174.4 22.2 L 173.7 22.2 C 173.7 22.2 173.72 19.44 173.7 19.4 C 173.7 18.6 173.3 18 172.4 18 C 171.6 18 171 18.6 171 19.5 C 171.04 19.49 171 22.2 171 22.2 L 170.3 22.2 L 170.3 17.5 Z M 175.6 23 C 175.6 23 175.9 22.4 175.9 22.4 C 176.4 22.8 177 23 177.7 23 C 178.7 23 179.4 22.5 179.4 21.4 C 179.4 21.4 179.4 20.8 179.4 20.8 C 179 21.4 178.4 21.8 177.5 21.8 C 176.4 21.8 175.4 21 175.4 19.6 C 175.4 19.6 175.4 19.6 175.4 19.6 C 175.4 18.2 176.4 17.4 177.5 17.4 C 178.4 17.4 179 17.8 179.4 18.3 C 179.36 18.34 179.4 17.5 179.4 17.5 L 180 17.5 C 180 17.5 180.05 21.35 180 21.3 C 180 22.1 179.8 22.6 179.5 23 C 179 23.4 178.4 23.6 177.7 23.6 C 176.9 23.6 176.2 23.4 175.6 23 Z M 179.4 19.6 C 179.4 19.6 179.4 19.6 179.4 19.6 C 179.4 18.6 178.6 18 177.7 18 C 176.8 18 176.1 18.6 176.1 19.6 C 176.1 19.6 176.1 19.6 176.1 19.6 C 176.1 20.5 176.8 21.2 177.7 21.2 C 178.6 21.2 179.4 20.5 179.4 19.6 Z M 193.7 15.9 C 193.7 15.9 195.91 15.86 195.9 15.9 C 197.9 15.9 199.3 17.2 199.3 19 C 199.3 19 199.3 19 199.3 19 C 199.3 20.8 197.9 22.2 195.9 22.2 C 195.91 22.16 193.7 22.2 193.7 22.2 L 193.7 15.9 Z M 194.4 16.5 L 194.4 21.5 C 194.4 21.5 195.91 21.5 195.9 21.5 C 197.5 21.5 198.5 20.4 198.5 19 C 198.5 19 198.5 19 198.5 19 C 198.5 17.6 197.5 16.5 195.9 16.5 C 195.91 16.51 194.4 16.5 194.4 16.5 Z M 200.1 19.8 C 200.1 19.8 200.1 19.8 200.1 19.8 C 200.1 18.5 201 17.4 202.3 17.4 C 203.7 17.4 204.5 18.5 204.5 19.9 C 204.5 20 204.5 20 204.5 20.1 C 204.5 20.1 200.8 20.1 200.8 20.1 C 200.9 21.1 201.6 21.7 202.4 21.7 C 203.1 21.7 203.5 21.4 203.9 21 C 203.9 21 204.3 21.4 204.3 21.4 C 203.9 21.9 203.3 22.3 202.4 22.3 C 201.1 22.3 200.1 21.3 200.1 19.8 Z M 203.8 19.6 C 203.7 18.7 203.2 18 202.3 18 C 201.5 18 200.9 18.7 200.8 19.6 C 200.8 19.6 203.8 19.6 203.8 19.6 Z M 205.4 17.5 L 206.1 17.5 C 206.1 17.5 206.13 18.44 206.1 18.4 C 206.5 17.9 207.1 17.4 207.9 17.4 C 209 17.4 210.1 18.3 210.1 19.8 C 210.1 19.8 210.1 19.8 210.1 19.8 C 210.1 21.4 209 22.3 207.9 22.3 C 207 22.3 206.5 21.8 206.1 21.3 C 206.13 21.27 206.1 23.6 206.1 23.6 L 205.4 23.6 L 205.4 17.5 Z M 209.4 19.8 C 209.4 19.8 209.4 19.8 209.4 19.8 C 209.4 18.7 208.7 18 207.8 18 C 206.9 18 206.1 18.8 206.1 19.8 C 206.1 19.8 206.1 19.8 206.1 19.8 C 206.1 20.9 206.9 21.6 207.8 21.6 C 208.7 21.6 209.4 21 209.4 19.8 Z M 210.8 20.8 C 210.8 20.8 210.8 20.8 210.8 20.8 C 210.8 19.8 211.6 19.3 212.8 19.3 C 213.4 19.3 213.8 19.4 214.2 19.5 C 214.2 19.5 214.2 19.3 214.2 19.3 C 214.2 18.5 213.7 18.1 212.8 18.1 C 212.3 18.1 211.8 18.2 211.4 18.4 C 211.4 18.4 211.2 17.8 211.2 17.8 C 211.7 17.6 212.2 17.4 212.9 17.4 C 213.6 17.4 214.1 17.6 214.4 18 C 214.7 18.3 214.9 18.7 214.9 19.3 C 214.87 19.31 214.9 22.2 214.9 22.2 L 214.2 22.2 C 214.2 22.2 214.21 21.46 214.2 21.5 C 213.9 21.9 213.3 22.3 212.5 22.3 C 211.7 22.3 210.8 21.8 210.8 20.8 Z M 214.2 20.4 C 214.2 20.4 214.2 20 214.2 20 C 213.9 19.9 213.4 19.8 212.8 19.8 C 212 19.8 211.5 20.2 211.5 20.8 C 211.5 20.8 211.5 20.8 211.5 20.8 C 211.5 21.4 212 21.7 212.7 21.7 C 213.5 21.7 214.2 21.2 214.2 20.4 Z M 216.1 17.5 L 216.8 17.5 C 216.8 17.5 216.77 18.72 216.8 18.7 C 217.1 17.9 217.8 17.4 218.7 17.4 C 218.67 17.42 218.7 18.2 218.7 18.2 C 218.7 18.2 218.62 18.17 218.6 18.2 C 217.6 18.2 216.8 18.9 216.8 20.3 C 216.77 20.3 216.8 22.2 216.8 22.2 L 216.1 22.2 L 216.1 17.5 Z M 219.7 20.9 C 219.7 20.92 219.7 18.1 219.7 18.1 L 219.1 18.1 L 219.1 17.5 L 219.7 17.5 L 219.7 16.1 L 220.4 16.1 L 220.4 17.5 L 221.9 17.5 L 221.9 18.1 L 220.4 18.1 C 220.4 18.1 220.39 20.83 220.4 20.8 C 220.4 21.4 220.7 21.6 221.2 21.6 C 221.4 21.6 221.6 21.6 221.8 21.4 C 221.8 21.4 221.8 22 221.8 22 C 221.6 22.2 221.3 22.2 221 22.2 C 220.3 22.2 219.7 21.9 219.7 20.9 Z M 222.8 17.5 L 223.5 17.5 C 223.5 17.5 223.51 18.29 223.5 18.3 C 223.8 17.8 224.2 17.4 225 17.4 C 225.8 17.4 226.3 17.8 226.5 18.3 C 226.8 17.8 227.3 17.4 228.1 17.4 C 229.2 17.4 229.9 18.1 229.9 19.3 C 229.88 19.28 229.9 22.2 229.9 22.2 L 229.2 22.2 C 229.2 22.2 229.18 19.44 229.2 19.4 C 229.2 18.5 228.7 18 228 18 C 227.3 18 226.7 18.6 226.7 19.5 C 226.7 19.47 226.7 22.2 226.7 22.2 L 226 22.2 C 226 22.2 226.01 19.42 226 19.4 C 226 18.5 225.5 18 224.8 18 C 224.1 18 223.5 18.6 223.5 19.5 C 223.51 19.5 223.5 22.2 223.5 22.2 L 222.8 22.2 L 222.8 17.5 Z M 230.8 19.8 C 230.8 19.8 230.8 19.8 230.8 19.8 C 230.8 18.5 231.8 17.4 233.1 17.4 C 234.4 17.4 235.2 18.5 235.2 19.9 C 235.2 20 235.2 20 235.2 20.1 C 235.2 20.1 231.5 20.1 231.5 20.1 C 231.6 21.1 232.3 21.7 233.2 21.7 C 233.8 21.7 234.3 21.4 234.6 21 C 234.6 21 235.1 21.4 235.1 21.4 C 234.6 21.9 234 22.3 233.1 22.3 C 231.9 22.3 230.8 21.3 230.8 19.8 Z M 234.5 19.6 C 234.4 18.7 234 18 233 18 C 232.2 18 231.6 18.7 231.5 19.6 C 231.5 19.6 234.5 19.6 234.5 19.6 Z M 236.2 17.5 L 236.9 17.5 C 236.9 17.5 236.86 18.31 236.9 18.3 C 237.2 17.8 237.7 17.4 238.5 17.4 C 239.6 17.4 240.2 18.2 240.2 19.3 C 240.24 19.27 240.2 22.2 240.2 22.2 L 239.5 22.2 C 239.5 22.2 239.54 19.44 239.5 19.4 C 239.5 18.6 239.1 18 238.3 18 C 237.5 18 236.9 18.6 236.9 19.5 C 236.86 19.49 236.9 22.2 236.9 22.2 L 236.2 22.2 L 236.2 17.5 Z M 241.7 20.9 C 241.69 20.92 241.7 18.1 241.7 18.1 L 241 18.1 L 241 17.5 L 241.7 17.5 L 241.7 16.1 L 242.4 16.1 L 242.4 17.5 L 243.9 17.5 L 243.9 18.1 L 242.4 18.1 C 242.4 18.1 242.38 20.83 242.4 20.8 C 242.4 21.4 242.7 21.6 243.2 21.6 C 243.4 21.6 243.6 21.6 243.8 21.4 C 243.8 21.4 243.8 22 243.8 22 C 243.6 22.2 243.3 22.2 243 22.2 C 242.3 22.2 241.7 21.9 241.7 20.9 Z M 256.8 19.9 C 256.8 19.9 256.8 19.8 256.8 19.8 C 256.8 18.5 257.8 17.4 259.2 17.4 C 260.6 17.4 261.7 18.5 261.7 19.8 C 261.7 19.8 261.7 19.8 261.7 19.8 C 261.7 21.1 260.6 22.3 259.2 22.3 C 257.8 22.3 256.8 21.2 256.8 19.9 Z M 260.9 19.9 C 260.9 19.9 260.9 19.8 260.9 19.8 C 260.9 18.8 260.2 18 259.2 18 C 258.2 18 257.5 18.8 257.5 19.8 C 257.5 19.8 257.5 19.8 257.5 19.8 C 257.5 20.8 258.2 21.6 259.2 21.6 C 260.2 21.6 260.9 20.8 260.9 19.9 Z M 262.9 18.1 L 262.3 18.1 L 262.3 17.5 L 262.9 17.5 C 262.9 17.5 262.89 17.1 262.9 17.1 C 262.9 16.6 263 16.2 263.3 15.9 C 263.5 15.7 263.9 15.6 264.3 15.6 C 264.6 15.6 264.8 15.6 265.1 15.7 C 265.1 15.7 265.1 16.3 265.1 16.3 C 264.8 16.2 264.6 16.2 264.4 16.2 C 263.8 16.2 263.6 16.5 263.6 17.1 C 263.58 17.14 263.6 17.5 263.6 17.5 L 265.1 17.5 L 265.1 18.1 L 263.6 18.1 L 263.6 22.2 L 262.9 22.2 L 262.9 18.1 Z M 279.7 16.5 L 277.6 16.5 L 277.6 15.9 L 282.6 15.9 L 282.6 16.5 L 280.4 16.5 L 280.4 22.2 L 279.7 22.2 L 279.7 16.5 Z M 282.7 17.5 L 283.4 17.5 C 283.4 17.5 283.4 18.72 283.4 18.7 C 283.7 17.9 284.4 17.4 285.3 17.4 C 285.3 17.42 285.3 18.2 285.3 18.2 C 285.3 18.2 285.24 18.17 285.2 18.2 C 284.2 18.2 283.4 18.9 283.4 20.3 C 283.4 20.3 283.4 22.2 283.4 22.2 L 282.7 22.2 L 282.7 17.5 Z M 285.5 20.8 C 285.5 20.8 285.5 20.8 285.5 20.8 C 285.5 19.8 286.3 19.3 287.5 19.3 C 288.1 19.3 288.5 19.4 288.9 19.5 C 288.9 19.5 288.9 19.3 288.9 19.3 C 288.9 18.5 288.4 18.1 287.5 18.1 C 287 18.1 286.6 18.2 286.1 18.4 C 286.1 18.4 285.9 17.8 285.9 17.8 C 286.4 17.6 286.9 17.4 287.6 17.4 C 288.3 17.4 288.8 17.6 289.1 18 C 289.4 18.3 289.6 18.7 289.6 19.3 C 289.59 19.31 289.6 22.2 289.6 22.2 L 288.9 22.2 C 288.9 22.2 288.92 21.46 288.9 21.5 C 288.6 21.9 288.1 22.3 287.2 22.3 C 286.4 22.3 285.5 21.8 285.5 20.8 Z M 288.9 20.4 C 288.9 20.4 288.9 20 288.9 20 C 288.6 19.9 288.1 19.8 287.6 19.8 C 286.7 19.8 286.2 20.2 286.2 20.8 C 286.2 20.8 286.2 20.8 286.2 20.8 C 286.2 21.4 286.7 21.7 287.4 21.7 C 288.2 21.7 288.9 21.2 288.9 20.4 Z M 290.8 17.5 L 291.5 17.5 C 291.5 17.5 291.49 18.31 291.5 18.3 C 291.8 17.8 292.3 17.4 293.1 17.4 C 294.2 17.4 294.9 18.2 294.9 19.3 C 294.86 19.27 294.9 22.2 294.9 22.2 L 294.2 22.2 C 294.2 22.2 294.17 19.44 294.2 19.4 C 294.2 18.6 293.7 18 292.9 18 C 292.1 18 291.5 18.6 291.5 19.5 C 291.49 19.49 291.5 22.2 291.5 22.2 L 290.8 22.2 L 290.8 17.5 Z M 295.7 21.6 C 295.7 21.6 296 21.1 296 21.1 C 296.5 21.4 297.1 21.7 297.6 21.7 C 298.2 21.7 298.6 21.4 298.6 20.9 C 298.6 20.9 298.6 20.9 298.6 20.9 C 298.6 20.4 298.1 20.3 297.4 20.1 C 296.7 19.9 295.9 19.6 295.9 18.8 C 295.9 18.8 295.9 18.8 295.9 18.8 C 295.9 18 296.6 17.4 297.5 17.4 C 298.1 17.4 298.7 17.6 299.2 17.9 C 299.2 17.9 298.9 18.5 298.9 18.5 C 298.4 18.2 297.9 18 297.5 18 C 296.9 18 296.6 18.3 296.6 18.7 C 296.6 18.7 296.6 18.7 296.6 18.7 C 296.6 19.1 297.1 19.3 297.8 19.5 C 298.5 19.7 299.3 20 299.3 20.8 C 299.3 20.8 299.3 20.9 299.3 20.9 C 299.3 21.7 298.5 22.2 297.6 22.2 C 296.9 22.2 296.2 22 295.7 21.6 Z M 300.3 17.5 L 301 17.5 C 301 17.5 300.97 18.44 301 18.4 C 301.4 17.9 301.9 17.4 302.8 17.4 C 303.9 17.4 305 18.3 305 19.8 C 305 19.8 305 19.8 305 19.8 C 305 21.4 303.9 22.3 302.8 22.3 C 301.9 22.3 301.3 21.8 301 21.3 C 300.97 21.27 301 23.6 301 23.6 L 300.3 23.6 L 300.3 17.5 Z M 304.3 19.8 C 304.3 19.8 304.3 19.8 304.3 19.8 C 304.3 18.7 303.5 18 302.6 18 C 301.8 18 300.9 18.8 300.9 19.8 C 300.9 19.8 300.9 19.8 300.9 19.8 C 300.9 20.9 301.8 21.6 302.6 21.6 C 303.5 21.6 304.3 21 304.3 19.8 Z M 305.7 19.9 C 305.7 19.9 305.7 19.8 305.7 19.8 C 305.7 18.5 306.7 17.4 308.1 17.4 C 309.5 17.4 310.6 18.5 310.6 19.8 C 310.6 19.8 310.6 19.8 310.6 19.8 C 310.6 21.1 309.5 22.3 308.1 22.3 C 306.7 22.3 305.7 21.2 305.7 19.9 Z M 309.8 19.9 C 309.8 19.9 309.8 19.8 309.8 19.8 C 309.8 18.8 309.1 18 308.1 18 C 307.1 18 306.4 18.8 306.4 19.8 C 306.4 19.8 306.4 19.8 306.4 19.8 C 306.4 20.8 307.1 21.6 308.1 21.6 C 309.1 21.6 309.8 20.8 309.8 19.9 Z M 311.5 17.5 L 312.2 17.5 C 312.2 17.5 312.22 18.72 312.2 18.7 C 312.6 17.9 313.2 17.4 314.1 17.4 C 314.12 17.42 314.1 18.2 314.1 18.2 C 314.1 18.2 314.07 18.17 314.1 18.2 C 313.1 18.2 312.2 18.9 312.2 20.3 C 312.22 20.3 312.2 22.2 312.2 22.2 L 311.5 22.2 L 311.5 17.5 Z M 315.2 20.9 C 315.15 20.92 315.2 18.1 315.2 18.1 L 314.5 18.1 L 314.5 17.5 L 315.2 17.5 L 315.2 16.1 L 315.8 16.1 L 315.8 17.5 L 317.3 17.5 L 317.3 18.1 L 315.8 18.1 C 315.8 18.1 315.84 20.83 315.8 20.8 C 315.8 21.4 316.2 21.6 316.6 21.6 C 316.9 21.6 317.1 21.6 317.3 21.4 C 317.3 21.4 317.3 22 317.3 22 C 317.1 22.2 316.8 22.2 316.5 22.2 C 315.7 22.2 315.2 21.9 315.2 20.9 Z M 317.9 20.8 C 317.9 20.8 317.9 20.8 317.9 20.8 C 317.9 19.8 318.7 19.3 319.9 19.3 C 320.5 19.3 320.9 19.4 321.3 19.5 C 321.3 19.5 321.3 19.3 321.3 19.3 C 321.3 18.5 320.8 18.1 320 18.1 C 319.4 18.1 319 18.2 318.5 18.4 C 318.5 18.4 318.3 17.8 318.3 17.8 C 318.8 17.6 319.4 17.4 320 17.4 C 320.7 17.4 321.2 17.6 321.5 18 C 321.8 18.3 322 18.7 322 19.3 C 322.01 19.31 322 22.2 322 22.2 L 321.3 22.2 C 321.3 22.2 321.34 21.46 321.3 21.5 C 321 21.9 320.5 22.3 319.7 22.3 C 318.8 22.3 317.9 21.8 317.9 20.8 Z M 321.4 20.4 C 321.4 20.4 321.4 20 321.4 20 C 321 19.9 320.6 19.8 320 19.8 C 319.1 19.8 318.6 20.2 318.6 20.8 C 318.6 20.8 318.6 20.8 318.6 20.8 C 318.6 21.4 319.2 21.7 319.8 21.7 C 320.6 21.7 321.4 21.2 321.4 20.4 Z M 323.4 20.9 C 323.41 20.92 323.4 18.1 323.4 18.1 L 322.8 18.1 L 322.8 17.5 L 323.4 17.5 L 323.4 16.1 L 324.1 16.1 L 324.1 17.5 L 325.6 17.5 L 325.6 18.1 L 324.1 18.1 C 324.1 18.1 324.1 20.83 324.1 20.8 C 324.1 21.4 324.4 21.6 324.9 21.6 C 325.1 21.6 325.3 21.6 325.6 21.4 C 325.6 21.4 325.6 22 325.6 22 C 325.3 22.2 325.1 22.2 324.7 22.2 C 324 22.2 323.4 21.9 323.4 20.9 Z M 326.6 15.7 L 327.3 15.7 L 327.3 16.5 L 326.6 16.5 L 326.6 15.7 Z M 326.6 17.5 L 327.3 17.5 L 327.3 22.2 L 326.6 22.2 L 326.6 17.5 Z M 328.3 19.9 C 328.3 19.9 328.3 19.8 328.3 19.8 C 328.3 18.5 329.4 17.4 330.8 17.4 C 332.2 17.4 333.2 18.5 333.2 19.8 C 333.2 19.8 333.2 19.8 333.2 19.8 C 333.2 21.1 332.2 22.3 330.8 22.3 C 329.4 22.3 328.3 21.2 328.3 19.9 Z M 332.5 19.9 C 332.5 19.9 332.5 19.8 332.5 19.8 C 332.5 18.8 331.7 18 330.8 18 C 329.7 18 329.1 18.8 329.1 19.8 C 329.1 19.8 329.1 19.8 329.1 19.8 C 329.1 20.8 329.8 21.6 330.8 21.6 C 331.8 21.6 332.5 20.8 332.5 19.9 Z M 334.2 17.5 L 334.9 17.5 C 334.9 17.5 334.87 18.31 334.9 18.3 C 335.2 17.8 335.7 17.4 336.5 17.4 C 337.6 17.4 338.2 18.2 338.2 19.3 C 338.24 19.27 338.2 22.2 338.2 22.2 L 337.6 22.2 C 337.6 22.2 337.55 19.44 337.6 19.4 C 337.6 18.6 337.1 18 336.3 18 C 335.5 18 334.9 18.6 334.9 19.5 C 334.87 19.49 334.9 22.2 334.9 22.2 L 334.2 22.2 L 334.2 17.5 Z M 351.7 20.4 C 351.66 20.39 351.7 17.5 351.7 17.5 L 352.3 17.5 C 352.3 17.5 352.35 20.22 352.3 20.2 C 352.3 21.1 352.8 21.6 353.6 21.6 C 354.4 21.6 355 21 355 20.2 C 355.03 20.17 355 17.5 355 17.5 L 355.7 17.5 L 355.7 22.2 L 355 22.2 C 355 22.2 355.03 21.35 355 21.3 C 354.7 21.9 354.2 22.3 353.4 22.3 C 352.3 22.3 351.7 21.5 351.7 20.4 Z M 357 17.5 L 357.7 17.5 C 357.7 17.5 357.7 18.44 357.7 18.4 C 358.1 17.9 358.6 17.4 359.5 17.4 C 360.6 17.4 361.7 18.3 361.7 19.8 C 361.7 19.8 361.7 19.8 361.7 19.8 C 361.7 21.4 360.6 22.3 359.5 22.3 C 358.6 22.3 358.1 21.8 357.7 21.3 C 357.7 21.27 357.7 23.6 357.7 23.6 L 357 23.6 L 357 17.5 Z M 361 19.8 C 361 19.8 361 19.8 361 19.8 C 361 18.7 360.2 18 359.4 18 C 358.5 18 357.7 18.8 357.7 19.8 C 357.7 19.8 357.7 19.8 357.7 19.8 C 357.7 20.9 358.5 21.6 359.4 21.6 C 360.3 21.6 361 21 361 19.8 Z M 362.4 20.8 C 362.4 20.8 362.4 20.8 362.4 20.8 C 362.4 19.8 363.2 19.3 364.3 19.3 C 364.9 19.3 365.4 19.4 365.8 19.5 C 365.8 19.5 365.8 19.3 365.8 19.3 C 365.8 18.5 365.3 18.1 364.4 18.1 C 363.8 18.1 363.4 18.2 363 18.4 C 363 18.4 362.8 17.8 362.8 17.8 C 363.3 17.6 363.8 17.4 364.5 17.4 C 365.1 17.4 365.6 17.6 366 18 C 366.3 18.3 366.4 18.7 366.4 19.3 C 366.44 19.31 366.4 22.2 366.4 22.2 L 365.8 22.2 C 365.8 22.2 365.78 21.46 365.8 21.5 C 365.5 21.9 364.9 22.3 364.1 22.3 C 363.2 22.3 362.4 21.8 362.4 20.8 Z M 365.8 20.4 C 365.8 20.4 365.8 20 365.8 20 C 365.4 19.9 365 19.8 364.4 19.8 C 363.5 19.8 363.1 20.2 363.1 20.8 C 363.1 20.8 363.1 20.8 363.1 20.8 C 363.1 21.4 363.6 21.7 364.2 21.7 C 365.1 21.7 365.8 21.2 365.8 20.4 Z M 367.7 17.5 L 368.3 17.5 C 368.3 17.5 368.34 18.31 368.3 18.3 C 368.6 17.8 369.1 17.4 369.9 17.4 C 371.1 17.4 371.7 18.2 371.7 19.3 C 371.72 19.27 371.7 22.2 371.7 22.2 L 371 22.2 C 371 22.2 371.03 19.44 371 19.4 C 371 18.6 370.6 18 369.7 18 C 368.9 18 368.3 18.6 368.3 19.5 C 368.34 19.49 368.3 22.2 368.3 22.2 L 367.7 22.2 L 367.7 17.5 Z M 372.9 23 C 372.9 23 373.2 22.4 373.2 22.4 C 373.7 22.8 374.3 23 375 23 C 376 23 376.7 22.5 376.7 21.4 C 376.7 21.4 376.7 20.8 376.7 20.8 C 376.3 21.4 375.7 21.8 374.8 21.8 C 373.7 21.8 372.7 21 372.7 19.6 C 372.7 19.6 372.7 19.6 372.7 19.6 C 372.7 18.2 373.7 17.4 374.8 17.4 C 375.7 17.4 376.3 17.8 376.7 18.3 C 376.66 18.34 376.7 17.5 376.7 17.5 L 377.4 17.5 C 377.4 17.5 377.35 21.35 377.4 21.3 C 377.4 22.1 377.1 22.6 376.8 23 C 376.3 23.4 375.7 23.6 375 23.6 C 374.2 23.6 373.5 23.4 372.9 23 Z M 376.7 19.6 C 376.7 19.6 376.7 19.6 376.7 19.6 C 376.7 18.6 375.9 18 375 18 C 374.1 18 373.4 18.6 373.4 19.6 C 373.4 19.6 373.4 19.6 373.4 19.6 C 373.4 20.5 374.1 21.2 375 21.2 C 375.9 21.2 376.7 20.5 376.7 19.6 Z M 390.9 17.5 L 391.6 17.5 C 391.6 17.5 391.6 18.29 391.6 18.3 C 391.9 17.8 392.3 17.4 393.1 17.4 C 393.9 17.4 394.3 17.8 394.6 18.3 C 394.9 17.8 395.4 17.4 396.2 17.4 C 397.3 17.4 398 18.1 398 19.3 C 397.97 19.28 398 22.2 398 22.2 L 397.3 22.2 C 397.3 22.2 397.27 19.44 397.3 19.4 C 397.3 18.5 396.8 18 396.1 18 C 395.4 18 394.8 18.6 394.8 19.5 C 394.79 19.47 394.8 22.2 394.8 22.2 L 394.1 22.2 C 394.1 22.2 394.1 19.42 394.1 19.4 C 394.1 18.5 393.6 18 392.9 18 C 392.2 18 391.6 18.6 391.6 19.5 C 391.6 19.5 391.6 22.2 391.6 22.2 L 390.9 22.2 L 390.9 17.5 Z M 398.8 20.8 C 398.8 20.8 398.8 20.8 398.8 20.8 C 398.8 19.8 399.7 19.3 400.8 19.3 C 401.4 19.3 401.9 19.4 402.3 19.5 C 402.3 19.5 402.3 19.3 402.3 19.3 C 402.3 18.5 401.8 18.1 400.9 18.1 C 400.3 18.1 399.9 18.2 399.5 18.4 C 399.5 18.4 399.3 17.8 399.3 17.8 C 399.8 17.6 400.3 17.4 401 17.4 C 401.6 17.4 402.1 17.6 402.5 18 C 402.8 18.3 402.9 18.7 402.9 19.3 C 402.93 19.31 402.9 22.2 402.9 22.2 L 402.3 22.2 C 402.3 22.2 402.27 21.46 402.3 21.5 C 401.9 21.9 401.4 22.3 400.6 22.3 C 399.7 22.3 398.8 21.8 398.8 20.8 Z M 402.3 20.4 C 402.3 20.4 402.3 20 402.3 20 C 401.9 19.9 401.5 19.8 400.9 19.8 C 400 19.8 399.5 20.2 399.5 20.8 C 399.5 20.8 399.5 20.8 399.5 20.8 C 399.5 21.4 400.1 21.7 400.7 21.7 C 401.6 21.7 402.3 21.2 402.3 20.4 Z M 404.1 17.5 L 404.8 17.5 C 404.8 17.5 404.83 18.44 404.8 18.4 C 405.2 17.9 405.8 17.4 406.6 17.4 C 407.7 17.4 408.8 18.3 408.8 19.8 C 408.8 19.8 408.8 19.8 408.8 19.8 C 408.8 21.4 407.7 22.3 406.6 22.3 C 405.8 22.3 405.2 21.8 404.8 21.3 C 404.83 21.27 404.8 23.6 404.8 23.6 L 404.1 23.6 L 404.1 17.5 Z M 408.1 19.8 C 408.1 19.8 408.1 19.8 408.1 19.8 C 408.1 18.7 407.4 18 406.5 18 C 405.6 18 404.8 18.8 404.8 19.8 C 404.8 19.8 404.8 19.8 404.8 19.8 C 404.8 20.9 405.6 21.6 406.5 21.6 C 407.4 21.6 408.1 21 408.1 19.8 Z M 409.5 20.8 C 409.5 20.8 409.5 20.8 409.5 20.8 C 409.5 19.8 410.3 19.3 411.5 19.3 C 412.1 19.3 412.5 19.4 412.9 19.5 C 412.9 19.5 412.9 19.3 412.9 19.3 C 412.9 18.5 412.4 18.1 411.5 18.1 C 411 18.1 410.5 18.2 410.1 18.4 C 410.1 18.4 409.9 17.8 409.9 17.8 C 410.4 17.6 410.9 17.4 411.6 17.4 C 412.3 17.4 412.8 17.6 413.1 18 C 413.4 18.3 413.6 18.7 413.6 19.3 C 413.58 19.31 413.6 22.2 413.6 22.2 L 412.9 22.2 C 412.9 22.2 412.92 21.46 412.9 21.5 C 412.6 21.9 412.1 22.3 411.2 22.3 C 410.4 22.3 409.5 21.8 409.5 20.8 Z M 412.9 20.4 C 412.9 20.4 412.9 20 412.9 20 C 412.6 19.9 412.1 19.8 411.6 19.8 C 410.7 19.8 410.2 20.2 410.2 20.8 C 410.2 20.8 410.2 20.8 410.2 20.8 C 410.2 21.4 410.7 21.7 411.4 21.7 C 412.2 21.7 412.9 21.2 412.9 20.4 Z M 414.5 19.8 C 414.5 19.8 414.5 19.8 414.5 19.8 C 414.5 18.3 415.6 17.4 416.7 17.4 C 417.6 17.4 418.2 17.9 418.5 18.4 C 418.52 18.39 418.5 15.6 418.5 15.6 L 419.2 15.6 L 419.2 22.2 L 418.5 22.2 C 418.5 22.2 418.52 21.22 418.5 21.2 C 418.1 21.8 417.6 22.3 416.7 22.3 C 415.6 22.3 414.5 21.4 414.5 19.8 Z M 418.5 19.8 C 418.5 19.8 418.5 19.8 418.5 19.8 C 418.5 18.7 417.7 18 416.9 18 C 416 18 415.2 18.7 415.2 19.8 C 415.2 19.8 415.2 19.8 415.2 19.8 C 415.2 20.9 416 21.6 416.9 21.6 C 417.7 21.6 418.5 20.9 418.5 19.8 Z M 420.1 20.8 C 420.1 20.8 420.1 20.8 420.1 20.8 C 420.1 19.8 421 19.3 422.1 19.3 C 422.7 19.3 423.1 19.4 423.6 19.5 C 423.6 19.5 423.6 19.3 423.6 19.3 C 423.6 18.5 423 18.1 422.2 18.1 C 421.6 18.1 421.2 18.2 420.8 18.4 C 420.8 18.4 420.6 17.8 420.6 17.8 C 421.1 17.6 421.6 17.4 422.2 17.4 C 422.9 17.4 423.4 17.6 423.8 18 C 424.1 18.3 424.2 18.7 424.2 19.3 C 424.23 19.31 424.2 22.2 424.2 22.2 L 423.6 22.2 C 423.6 22.2 423.56 21.46 423.6 21.5 C 423.2 21.9 422.7 22.3 421.9 22.3 C 421 22.3 420.1 21.8 420.1 20.8 Z M 423.6 20.4 C 423.6 20.4 423.6 20 423.6 20 C 423.2 19.9 422.8 19.8 422.2 19.8 C 421.3 19.8 420.8 20.2 420.8 20.8 C 420.8 20.8 420.8 20.8 420.8 20.8 C 420.8 21.4 421.4 21.7 422 21.7 C 422.9 21.7 423.6 21.2 423.6 20.4 Z M 425.5 15.6 L 426.2 15.6 L 426.2 22.2 L 425.5 22.2 L 425.5 15.6 Z M 427.5 15.7 L 428.3 15.7 L 428.3 16.5 L 427.5 16.5 L 427.5 15.7 Z M 427.6 17.5 L 428.3 17.5 L 428.3 22.2 L 427.6 22.2 L 427.6 17.5 Z M 441.6 20.8 C 441.6 20.8 441.6 20.8 441.6 20.8 C 441.6 19.8 442.4 19.3 443.5 19.3 C 444.1 19.3 444.6 19.4 445 19.5 C 445 19.5 445 19.3 445 19.3 C 445 18.5 444.5 18.1 443.6 18.1 C 443 18.1 442.6 18.2 442.2 18.4 C 442.2 18.4 442 17.8 442 17.8 C 442.5 17.6 443 17.4 443.7 17.4 C 444.3 17.4 444.8 17.6 445.2 18 C 445.5 18.3 445.6 18.7 445.6 19.3 C 445.64 19.31 445.6 22.2 445.6 22.2 L 445 22.2 C 445 22.2 444.98 21.46 445 21.5 C 444.7 21.9 444.1 22.3 443.3 22.3 C 442.4 22.3 441.6 21.8 441.6 20.8 Z M 445 20.4 C 445 20.4 445 20 445 20 C 444.6 19.9 444.2 19.8 443.6 19.8 C 442.7 19.8 442.3 20.2 442.3 20.8 C 442.3 20.8 442.3 20.8 442.3 20.8 C 442.3 21.4 442.8 21.7 443.4 21.7 C 444.3 21.7 445 21.2 445 20.4 Z M 446.8 17.5 L 447.5 17.5 C 447.5 17.5 447.54 18.31 447.5 18.3 C 447.8 17.8 448.3 17.4 449.1 17.4 C 450.3 17.4 450.9 18.2 450.9 19.3 C 450.92 19.27 450.9 22.2 450.9 22.2 L 450.2 22.2 C 450.2 22.2 450.22 19.44 450.2 19.4 C 450.2 18.6 449.8 18 448.9 18 C 448.1 18 447.5 18.6 447.5 19.5 C 447.54 19.49 447.5 22.2 447.5 22.2 L 446.8 22.2 L 446.8 17.5 Z M 452.1 23 C 452.1 23 452.4 22.4 452.4 22.4 C 452.9 22.8 453.5 23 454.2 23 C 455.2 23 455.9 22.5 455.9 21.4 C 455.9 21.4 455.9 20.8 455.9 20.8 C 455.5 21.4 454.9 21.8 454 21.8 C 452.9 21.8 451.9 21 451.9 19.6 C 451.9 19.6 451.9 19.6 451.9 19.6 C 451.9 18.2 452.9 17.4 454 17.4 C 454.9 17.4 455.5 17.8 455.9 18.3 C 455.86 18.34 455.9 17.5 455.9 17.5 L 456.5 17.5 C 456.5 17.5 456.55 21.35 456.5 21.3 C 456.5 22.1 456.3 22.6 456 23 C 455.5 23.4 454.9 23.6 454.2 23.6 C 453.4 23.6 452.7 23.4 452.1 23 Z M 455.9 19.6 C 455.9 19.6 455.9 19.6 455.9 19.6 C 455.9 18.6 455.1 18 454.2 18 C 453.3 18 452.6 18.6 452.6 19.6 C 452.6 19.6 452.6 19.6 452.6 19.6 C 452.6 20.5 453.3 21.2 454.2 21.2 C 455.1 21.2 455.9 20.5 455.9 19.6 Z " stroke="none" fill="#fff"/>
  </g>
</svg>