<?xml version="1.0" standalone="no"?>
<!DOCTYPE svg PUBLIC "-//W3C//DTD SVG 1.1//EN" "http://www.w3.org/Graphics/SVG/1.1/DTD/svg11.dtd">
<svg xmlns="http://www.w3.org/2000/svg" version="1.1" width="459.4px" height="18px" viewBox="0 -3 459.4 18" style="top:-3px">
  <desc>Mga kuha mula sa Viridis Arcus, Gamepur, at League of Legends: Wild Rift</desc>
  <defs/>
  <g id="Polygon38272">
    <path d="M 0.5 1.7 L 1.5 1.7 L 1.5 10.7 L 0.5 10.7 L 0.5 1.7 Z M 6 2.3 L 7.6 2.3 L 8.3 7.2 L 8.3 7.2 L 11.1 2.3 L 12.7 2.3 L 11.4 8.8 L 10.3 8.8 L 11.4 3.6 L 11.4 3.6 L 8.5 8.8 L 7.6 8.8 L 6.8 3.6 L 6.8 3.6 L 5.8 8.8 L 4.7 8.8 L 6 2.3 Z M 14 6.8 C 14 7 14 7.1 14 7.3 C 14.1 7.4 14.1 7.5 14.2 7.6 C 14.3 7.7 14.4 7.8 14.5 7.9 C 14.6 7.9 14.8 8 14.9 8 C 15.2 8 15.5 7.9 15.6 7.8 C 15.8 7.6 16 7.5 16.1 7.3 C 16.3 7.1 16.3 6.9 16.4 6.6 C 16.5 6.4 16.5 6.1 16.5 5.9 C 16.5 5.6 16.4 5.3 16.2 5.1 C 16.1 4.9 15.8 4.8 15.5 4.8 C 15.2 4.8 15 4.9 14.8 5 C 14.6 5.1 14.5 5.3 14.3 5.5 C 14.2 5.7 14.1 5.9 14.1 6.1 C 14 6.4 14 6.6 14 6.8 Z M 16.9 8.6 C 16.9 9 16.8 9.3 16.6 9.6 C 16.5 9.8 16.4 10 16.2 10.2 C 16 10.3 15.8 10.4 15.5 10.5 C 15.3 10.6 14.9 10.6 14.6 10.6 C 14.3 10.6 14.1 10.6 13.8 10.5 C 13.6 10.5 13.4 10.4 13.2 10.3 C 13 10.2 12.9 10 12.8 9.8 C 12.6 9.6 12.6 9.4 12.6 9.1 C 12.6 9.1 13.6 9.1 13.6 9.1 C 13.6 9.4 13.7 9.6 13.9 9.7 C 14.1 9.8 14.4 9.9 14.7 9.9 C 14.9 9.9 15.1 9.8 15.2 9.8 C 15.4 9.7 15.5 9.6 15.6 9.5 C 15.7 9.4 15.8 9.2 15.8 9.1 C 15.9 8.9 15.9 8.7 16 8.5 C 15.98 8.55 16.1 8.1 16.1 8.1 C 16.1 8.1 16.06 8.07 16.1 8.1 C 15.7 8.5 15.3 8.8 14.8 8.8 C 14.2 8.8 13.7 8.6 13.4 8.3 C 13.1 7.9 12.9 7.5 12.9 6.9 C 12.9 6.5 13 6.2 13.1 5.8 C 13.2 5.5 13.4 5.2 13.6 4.9 C 13.8 4.6 14 4.4 14.3 4.2 C 14.6 4.1 15 4 15.3 4 C 15.7 4 16 4.1 16.2 4.2 C 16.5 4.3 16.7 4.6 16.8 4.9 C 16.78 4.9 16.8 4.9 16.8 4.9 L 16.9 4.1 L 17.9 4.1 C 17.9 4.1 16.93 8.65 16.9 8.6 Z M 19.1 7.5 C 19.1 7.6 19.2 7.7 19.2 7.8 C 19.3 7.9 19.3 7.9 19.4 8 C 19.5 8 19.6 8 19.7 8.1 C 19.8 8.1 19.9 8.1 20 8.1 C 20.2 8.1 20.4 8 20.6 8 C 20.8 7.9 20.9 7.8 21 7.6 C 21.1 7.5 21.2 7.3 21.3 7.1 C 21.3 6.9 21.4 6.7 21.4 6.5 C 21.4 6.5 21.4 6.5 21.4 6.5 C 21.3 6.5 21.2 6.6 21.1 6.6 C 21 6.7 20.9 6.7 20.8 6.7 C 20.6 6.7 20.5 6.7 20.3 6.7 C 20.1 6.7 19.9 6.8 19.7 6.8 C 19.6 6.9 19.4 6.9 19.3 7.1 C 19.2 7.2 19.1 7.3 19.1 7.5 Z M 22.2 7.4 C 22.2 7.5 22.2 7.6 22.2 7.7 C 22.2 7.7 22.1 7.8 22.1 7.9 C 22.1 8 22.2 8 22.2 8 C 22.2 8.1 22.3 8.1 22.4 8.1 C 22.4 8.1 22.5 8.1 22.5 8.1 C 22.6 8.1 22.7 8 22.7 8 C 22.7 8 22.6 8.8 22.6 8.8 C 22.4 8.8 22.3 8.8 22.2 8.9 C 22 8.9 21.9 8.9 21.8 8.9 C 21.6 8.9 21.4 8.8 21.3 8.7 C 21.2 8.6 21.1 8.5 21.1 8.3 C 20.9 8.5 20.7 8.7 20.4 8.8 C 20.1 8.9 19.9 8.9 19.6 8.9 C 19.4 8.9 19.2 8.9 19 8.8 C 18.8 8.8 18.7 8.7 18.6 8.6 C 18.4 8.5 18.3 8.4 18.2 8.2 C 18.2 8 18.1 7.9 18.1 7.7 C 18.1 7.4 18.2 7.1 18.3 6.9 C 18.4 6.7 18.5 6.6 18.7 6.5 C 18.9 6.3 19.1 6.2 19.3 6.2 C 19.6 6.1 19.8 6.1 20.1 6.1 C 20.4 6 20.8 6 21.1 6 C 21.3 6 21.4 5.9 21.5 5.8 C 21.6 5.7 21.6 5.5 21.6 5.4 C 21.6 5.1 21.6 5 21.4 4.9 C 21.2 4.8 21.1 4.8 20.9 4.8 C 20.6 4.8 20.3 4.9 20.1 5 C 19.9 5.1 19.8 5.2 19.7 5.5 C 19.7 5.5 18.7 5.5 18.7 5.5 C 18.8 5.2 18.9 5 19 4.8 C 19.1 4.6 19.3 4.5 19.5 4.3 C 19.7 4.2 19.9 4.1 20.1 4.1 C 20.4 4 20.6 4 20.9 4 C 21.3 4 21.7 4 21.9 4.1 C 22.1 4.2 22.3 4.3 22.4 4.4 C 22.5 4.5 22.6 4.6 22.6 4.8 C 22.6 4.9 22.7 5 22.7 5.1 C 22.7 5.3 22.6 5.5 22.6 5.8 C 22.6 5.8 22.2 7.4 22.2 7.4 Z M 27.1 2.3 L 28.1 2.3 L 27.4 6 L 27.4 6 L 29.5 4.1 L 30.8 4.1 L 28.7 5.8 L 29.9 8.8 L 28.7 8.8 L 27.9 6.5 L 27.1 7.2 L 26.8 8.8 L 25.8 8.8 L 27.1 2.3 Z M 34.6 8.8 L 33.6 8.8 L 33.8 8.1 C 33.8 8.1 33.76 8.08 33.8 8.1 C 33.6 8.3 33.3 8.5 33.1 8.7 C 32.8 8.8 32.5 8.9 32.2 8.9 C 31.7 8.9 31.3 8.8 31.1 8.6 C 30.9 8.3 30.8 8 30.8 7.7 C 30.8 7.6 30.8 7.5 30.8 7.4 C 30.8 7.3 30.8 7.2 30.8 7.1 C 30.84 7.09 31.5 4.1 31.5 4.1 L 32.5 4.1 C 32.5 4.1 31.9 6.99 31.9 7 C 31.9 7.1 31.9 7.1 31.8 7.2 C 31.8 7.3 31.8 7.4 31.8 7.4 C 31.8 7.5 31.8 7.5 31.8 7.6 C 31.8 7.7 31.9 7.7 31.9 7.8 C 31.9 7.9 32 8 32.1 8 C 32.2 8.1 32.3 8.1 32.5 8.1 C 32.7 8.1 32.9 8 33.1 8 C 33.2 7.9 33.4 7.8 33.5 7.6 C 33.6 7.5 33.7 7.3 33.8 7.2 C 33.9 7 34 6.8 34 6.6 C 34.01 6.64 34.5 4.1 34.5 4.1 L 35.6 4.1 L 34.6 8.8 Z M 37.1 2.3 L 38.2 2.3 L 37.6 4.8 C 37.6 4.8 37.66 4.78 37.7 4.8 C 37.8 4.5 38.1 4.4 38.3 4.2 C 38.6 4.1 38.9 4 39.2 4 C 39.7 4 40 4.1 40.2 4.3 C 40.4 4.6 40.6 4.9 40.6 5.2 C 40.6 5.3 40.6 5.4 40.5 5.5 C 40.5 5.6 40.5 5.7 40.5 5.8 C 40.51 5.8 39.9 8.8 39.9 8.8 L 38.9 8.8 C 38.9 8.8 39.46 5.9 39.5 5.9 C 39.5 5.8 39.5 5.8 39.5 5.7 C 39.5 5.6 39.5 5.5 39.5 5.5 C 39.5 5.4 39.5 5.4 39.5 5.3 C 39.5 5.2 39.5 5.2 39.5 5.1 C 39.4 5 39.3 4.9 39.2 4.9 C 39.1 4.8 39 4.8 38.8 4.8 C 38.6 4.8 38.4 4.8 38.3 4.9 C 38.1 5 38 5.1 37.8 5.3 C 37.7 5.4 37.6 5.5 37.5 5.7 C 37.4 5.9 37.4 6.1 37.3 6.3 C 37.34 6.25 36.8 8.8 36.8 8.8 L 35.8 8.8 L 37.1 2.3 Z M 42.1 7.5 C 42.1 7.6 42.1 7.7 42.2 7.8 C 42.2 7.9 42.3 7.9 42.4 8 C 42.4 8 42.5 8 42.6 8.1 C 42.7 8.1 42.8 8.1 42.9 8.1 C 43.2 8.1 43.4 8 43.6 8 C 43.7 7.9 43.9 7.8 44 7.6 C 44.1 7.5 44.2 7.3 44.2 7.1 C 44.3 6.9 44.4 6.7 44.4 6.5 C 44.4 6.5 44.4 6.5 44.4 6.5 C 44.3 6.5 44.2 6.6 44.1 6.6 C 44 6.7 43.8 6.7 43.7 6.7 C 43.6 6.7 43.4 6.7 43.2 6.7 C 43 6.7 42.9 6.8 42.7 6.8 C 42.5 6.9 42.4 6.9 42.3 7.1 C 42.2 7.2 42.1 7.3 42.1 7.5 Z M 45.2 7.4 C 45.2 7.5 45.2 7.6 45.1 7.7 C 45.1 7.7 45.1 7.8 45.1 7.9 C 45.1 8 45.1 8 45.1 8 C 45.2 8.1 45.2 8.1 45.3 8.1 C 45.4 8.1 45.4 8.1 45.5 8.1 C 45.6 8.1 45.6 8 45.7 8 C 45.7 8 45.5 8.8 45.5 8.8 C 45.4 8.8 45.2 8.8 45.1 8.9 C 45 8.9 44.8 8.9 44.7 8.9 C 44.5 8.9 44.4 8.8 44.3 8.7 C 44.2 8.6 44.1 8.5 44.1 8.3 C 43.9 8.5 43.6 8.7 43.4 8.8 C 43.1 8.9 42.8 8.9 42.5 8.9 C 42.3 8.9 42.1 8.9 42 8.8 C 41.8 8.8 41.6 8.7 41.5 8.6 C 41.4 8.5 41.3 8.4 41.2 8.2 C 41.1 8 41.1 7.9 41.1 7.7 C 41.1 7.4 41.1 7.1 41.2 6.9 C 41.3 6.7 41.5 6.6 41.7 6.5 C 41.8 6.3 42.1 6.2 42.3 6.2 C 42.5 6.1 42.8 6.1 43 6.1 C 43.4 6 43.7 6 44.1 6 C 44.2 6 44.4 5.9 44.5 5.8 C 44.6 5.7 44.6 5.5 44.6 5.4 C 44.6 5.1 44.5 5 44.4 4.9 C 44.2 4.8 44 4.8 43.8 4.8 C 43.5 4.8 43.3 4.9 43.1 5 C 42.9 5.1 42.7 5.2 42.7 5.5 C 42.7 5.5 41.7 5.5 41.7 5.5 C 41.7 5.2 41.8 5 42 4.8 C 42.1 4.6 42.3 4.5 42.4 4.3 C 42.6 4.2 42.9 4.1 43.1 4.1 C 43.3 4 43.6 4 43.9 4 C 44.3 4 44.6 4 44.9 4.1 C 45.1 4.2 45.3 4.3 45.4 4.4 C 45.5 4.5 45.6 4.6 45.6 4.8 C 45.6 4.9 45.6 5 45.6 5.1 C 45.6 5.3 45.6 5.5 45.5 5.8 C 45.5 5.8 45.2 7.4 45.2 7.4 Z M 49.8 4.1 L 50.7 4.1 L 50.6 4.8 C 50.6 4.8 50.61 4.8 50.6 4.8 C 50.8 4.5 51 4.3 51.3 4.2 C 51.6 4.1 51.9 4 52.2 4 C 52.5 4 52.7 4.1 53 4.2 C 53.2 4.3 53.3 4.5 53.4 4.8 C 53.6 4.6 53.8 4.4 54.1 4.2 C 54.3 4.1 54.6 4 55 4 C 55.4 4 55.7 4.1 56 4.3 C 56.2 4.6 56.3 4.9 56.3 5.2 C 56.3 5.3 56.3 5.4 56.3 5.5 C 56.2 5.6 56.2 5.7 56.2 5.8 C 56.2 5.8 55.6 8.8 55.6 8.8 L 54.6 8.8 C 54.6 8.8 55.16 6.02 55.2 6 C 55.2 6 55.2 5.9 55.2 5.8 C 55.2 5.7 55.2 5.6 55.3 5.5 C 55.3 5.4 55.2 5.3 55.2 5.2 C 55.2 5.2 55.2 5.1 55.1 5 C 55.1 5 55 4.9 54.9 4.9 C 54.9 4.8 54.7 4.8 54.6 4.8 C 54.4 4.8 54.2 4.8 54.1 4.9 C 53.9 5 53.8 5.1 53.7 5.2 C 53.6 5.4 53.5 5.5 53.4 5.6 C 53.3 5.8 53.3 5.9 53.3 6.1 C 53.28 6.06 52.7 8.8 52.7 8.8 L 51.7 8.8 C 51.7 8.8 52.22 6.22 52.2 6.2 C 52.2 6.1 52.3 6 52.3 5.8 C 52.3 5.7 52.4 5.5 52.4 5.4 C 52.4 5.2 52.3 5.1 52.2 5 C 52.1 4.9 52 4.8 51.8 4.8 C 51.6 4.8 51.4 4.8 51.3 4.9 C 51.1 5 51 5.1 50.9 5.2 C 50.8 5.3 50.7 5.4 50.6 5.6 C 50.5 5.7 50.4 5.9 50.4 6.1 C 50.37 6.08 49.8 8.8 49.8 8.8 L 48.8 8.8 L 49.8 4.1 Z M 60.9 8.8 L 59.9 8.8 L 60.1 8.1 C 60.1 8.1 60.05 8.08 60 8.1 C 59.9 8.3 59.6 8.5 59.3 8.7 C 59.1 8.8 58.8 8.9 58.4 8.9 C 58 8.9 57.6 8.8 57.4 8.6 C 57.2 8.3 57.1 8 57.1 7.7 C 57.1 7.6 57.1 7.5 57.1 7.4 C 57.1 7.3 57.1 7.2 57.1 7.1 C 57.13 7.09 57.8 4.1 57.8 4.1 L 58.8 4.1 C 58.8 4.1 58.18 6.99 58.2 7 C 58.2 7.1 58.1 7.1 58.1 7.2 C 58.1 7.3 58.1 7.4 58.1 7.4 C 58.1 7.5 58.1 7.5 58.1 7.6 C 58.1 7.7 58.1 7.7 58.2 7.8 C 58.2 7.9 58.3 8 58.4 8 C 58.5 8.1 58.6 8.1 58.8 8.1 C 59 8.1 59.2 8 59.4 8 C 59.5 7.9 59.7 7.8 59.8 7.6 C 59.9 7.5 60 7.3 60.1 7.2 C 60.2 7 60.3 6.8 60.3 6.6 C 60.3 6.64 60.8 4.1 60.8 4.1 L 61.8 4.1 L 60.9 8.8 Z M 63.4 2.3 L 64.4 2.3 L 63.1 8.8 L 62.1 8.8 L 63.4 2.3 Z M 65.4 7.5 C 65.4 7.6 65.4 7.7 65.5 7.8 C 65.5 7.9 65.6 7.9 65.7 8 C 65.7 8 65.8 8 65.9 8.1 C 66 8.1 66.1 8.1 66.2 8.1 C 66.5 8.1 66.7 8 66.8 8 C 67 7.9 67.2 7.8 67.3 7.6 C 67.4 7.5 67.5 7.3 67.5 7.1 C 67.6 6.9 67.6 6.7 67.7 6.5 C 67.7 6.5 67.7 6.5 67.7 6.5 C 67.6 6.5 67.5 6.6 67.4 6.6 C 67.3 6.7 67.1 6.7 67 6.7 C 66.9 6.7 66.7 6.7 66.5 6.7 C 66.3 6.7 66.2 6.8 66 6.8 C 65.8 6.9 65.7 6.9 65.6 7.1 C 65.5 7.2 65.4 7.3 65.4 7.5 Z M 68.5 7.4 C 68.5 7.5 68.4 7.6 68.4 7.7 C 68.4 7.7 68.4 7.8 68.4 7.9 C 68.4 8 68.4 8 68.4 8 C 68.5 8.1 68.5 8.1 68.6 8.1 C 68.7 8.1 68.7 8.1 68.8 8.1 C 68.8 8.1 68.9 8 69 8 C 69 8 68.8 8.8 68.8 8.8 C 68.7 8.8 68.5 8.8 68.4 8.9 C 68.3 8.9 68.1 8.9 68 8.9 C 67.8 8.9 67.7 8.8 67.6 8.7 C 67.5 8.6 67.4 8.5 67.4 8.3 C 67.2 8.5 66.9 8.7 66.7 8.8 C 66.4 8.9 66.1 8.9 65.8 8.9 C 65.6 8.9 65.4 8.9 65.3 8.8 C 65.1 8.8 64.9 8.7 64.8 8.6 C 64.7 8.5 64.6 8.4 64.5 8.2 C 64.4 8 64.4 7.9 64.4 7.7 C 64.4 7.4 64.4 7.1 64.5 6.9 C 64.6 6.7 64.8 6.6 65 6.5 C 65.1 6.3 65.3 6.2 65.6 6.2 C 65.8 6.1 66.1 6.1 66.3 6.1 C 66.7 6 67 6 67.3 6 C 67.5 6 67.7 5.9 67.8 5.8 C 67.8 5.7 67.9 5.5 67.9 5.4 C 67.9 5.1 67.8 5 67.7 4.9 C 67.5 4.8 67.3 4.8 67.1 4.8 C 66.8 4.8 66.6 4.9 66.4 5 C 66.2 5.1 66 5.2 65.9 5.5 C 65.9 5.5 65 5.5 65 5.5 C 65 5.2 65.1 5 65.2 4.8 C 65.4 4.6 65.5 4.5 65.7 4.3 C 65.9 4.2 66.1 4.1 66.4 4.1 C 66.6 4 66.9 4 67.2 4 C 67.6 4 67.9 4 68.2 4.1 C 68.4 4.2 68.6 4.3 68.7 4.4 C 68.8 4.5 68.9 4.6 68.9 4.8 C 68.9 4.9 68.9 5 68.9 5.1 C 68.9 5.3 68.9 5.5 68.8 5.8 C 68.8 5.8 68.5 7.4 68.5 7.4 Z M 75.3 5.5 C 75.3 5.2 75.2 5.1 75.1 5 C 74.9 4.9 74.7 4.8 74.4 4.8 C 74.3 4.8 74.2 4.8 74.1 4.8 C 74 4.9 73.9 4.9 73.8 4.9 C 73.8 5 73.7 5 73.7 5.1 C 73.6 5.2 73.6 5.3 73.6 5.4 C 73.6 5.5 73.6 5.6 73.7 5.7 C 73.8 5.7 73.9 5.8 74 5.8 C 74.2 5.9 74.3 5.9 74.5 6 C 74.6 6 74.8 6.1 75 6.1 C 75.1 6.2 75.2 6.2 75.4 6.3 C 75.5 6.4 75.6 6.5 75.7 6.6 C 75.8 6.6 75.9 6.8 76 6.9 C 76 7 76 7.2 76 7.4 C 76 7.6 76 7.9 75.9 8.1 C 75.7 8.3 75.6 8.4 75.4 8.5 C 75.2 8.7 75 8.8 74.7 8.8 C 74.5 8.9 74.2 8.9 74 8.9 C 73.7 8.9 73.5 8.9 73.2 8.8 C 73 8.8 72.8 8.7 72.6 8.6 C 72.4 8.4 72.3 8.3 72.2 8.1 C 72.1 7.9 72 7.6 72 7.3 C 72 7.3 73 7.3 73 7.3 C 73 7.6 73.1 7.8 73.3 7.9 C 73.5 8 73.7 8.1 74 8.1 C 74.1 8.1 74.3 8.1 74.4 8.1 C 74.5 8 74.6 8 74.7 8 C 74.8 7.9 74.9 7.8 74.9 7.8 C 75 7.7 75 7.6 75 7.4 C 75 7.3 75 7.2 74.9 7.1 C 74.8 7.1 74.7 7 74.6 6.9 C 74.4 6.9 74.3 6.8 74.1 6.8 C 73.9 6.7 73.8 6.7 73.6 6.6 C 73.5 6.6 73.3 6.5 73.2 6.4 C 73.1 6.4 73 6.3 72.9 6.2 C 72.8 6.1 72.7 6 72.6 5.9 C 72.6 5.7 72.6 5.6 72.6 5.4 C 72.6 5.2 72.6 4.9 72.7 4.8 C 72.8 4.6 73 4.4 73.2 4.3 C 73.3 4.2 73.6 4.1 73.8 4.1 C 74 4 74.2 4 74.5 4 C 74.7 4 75 4 75.2 4.1 C 75.4 4.1 75.6 4.2 75.8 4.3 C 75.9 4.4 76.1 4.6 76.2 4.8 C 76.3 5 76.3 5.2 76.3 5.5 C 76.3 5.5 75.3 5.5 75.3 5.5 Z M 77.7 7.5 C 77.7 7.6 77.7 7.7 77.7 7.8 C 77.8 7.9 77.9 7.9 77.9 8 C 78 8 78.1 8 78.2 8.1 C 78.3 8.1 78.4 8.1 78.5 8.1 C 78.7 8.1 79 8 79.1 8 C 79.3 7.9 79.4 7.8 79.5 7.6 C 79.7 7.5 79.7 7.3 79.8 7.1 C 79.9 6.9 79.9 6.7 80 6.5 C 80 6.5 79.9 6.5 79.9 6.5 C 79.9 6.5 79.8 6.6 79.6 6.6 C 79.5 6.7 79.4 6.7 79.3 6.7 C 79.2 6.7 79 6.7 78.8 6.7 C 78.6 6.7 78.4 6.8 78.3 6.8 C 78.1 6.9 78 6.9 77.8 7.1 C 77.7 7.2 77.7 7.3 77.7 7.5 Z M 80.8 7.4 C 80.7 7.5 80.7 7.6 80.7 7.7 C 80.7 7.7 80.7 7.8 80.7 7.9 C 80.7 8 80.7 8 80.7 8 C 80.7 8.1 80.8 8.1 80.9 8.1 C 80.9 8.1 81 8.1 81.1 8.1 C 81.1 8.1 81.2 8 81.2 8 C 81.2 8 81.1 8.8 81.1 8.8 C 80.9 8.8 80.8 8.8 80.7 8.9 C 80.6 8.9 80.4 8.9 80.3 8.9 C 80.1 8.9 80 8.8 79.8 8.7 C 79.7 8.6 79.7 8.5 79.7 8.3 C 79.5 8.5 79.2 8.7 78.9 8.8 C 78.7 8.9 78.4 8.9 78.1 8.9 C 77.9 8.9 77.7 8.9 77.5 8.8 C 77.4 8.8 77.2 8.7 77.1 8.6 C 76.9 8.5 76.8 8.4 76.8 8.2 C 76.7 8 76.6 7.9 76.6 7.7 C 76.6 7.4 76.7 7.1 76.8 6.9 C 76.9 6.7 77.1 6.6 77.2 6.5 C 77.4 6.3 77.6 6.2 77.9 6.2 C 78.1 6.1 78.3 6.1 78.6 6.1 C 78.9 6 79.3 6 79.6 6 C 79.8 6 79.9 5.9 80 5.8 C 80.1 5.7 80.2 5.5 80.2 5.4 C 80.2 5.1 80.1 5 79.9 4.9 C 79.8 4.8 79.6 4.8 79.4 4.8 C 79.1 4.8 78.8 4.9 78.6 5 C 78.4 5.1 78.3 5.2 78.2 5.5 C 78.2 5.5 77.2 5.5 77.2 5.5 C 77.3 5.2 77.4 5 77.5 4.8 C 77.7 4.6 77.8 4.5 78 4.3 C 78.2 4.2 78.4 4.1 78.7 4.1 C 78.9 4 79.2 4 79.4 4 C 79.9 4 80.2 4 80.4 4.1 C 80.7 4.2 80.8 4.3 80.9 4.4 C 81.1 4.5 81.1 4.6 81.2 4.8 C 81.2 4.9 81.2 5 81.2 5.1 C 81.2 5.3 81.2 5.5 81.1 5.8 C 81.1 5.8 80.8 7.4 80.8 7.4 Z M 85 2.3 L 86.2 2.3 L 86.8 7.4 L 86.8 7.4 L 89.5 2.3 L 90.7 2.3 L 87.1 8.8 L 85.9 8.8 L 85 2.3 Z M 90.9 2.3 L 91.9 2.3 L 91.7 3.3 L 90.7 3.3 L 90.9 2.3 Z M 90.5 4.1 L 91.5 4.1 L 90.6 8.8 L 89.5 8.8 L 90.5 4.1 Z M 92.8 4.1 L 93.7 4.1 L 93.5 5 C 93.5 5 93.56 5.05 93.6 5 C 93.6 4.9 93.7 4.8 93.8 4.7 C 93.9 4.5 94 4.4 94.2 4.3 C 94.3 4.2 94.4 4.2 94.6 4.1 C 94.7 4 94.9 4 95 4 C 95.1 4 95.2 4 95.3 4 C 95.4 4 95.5 4 95.5 4 C 95.5 4 95.3 5 95.3 5 C 95.3 5 95.2 5 95.1 5 C 95.1 5 95 5 95 5 C 94.7 5 94.5 5 94.3 5.1 C 94.1 5.2 93.9 5.3 93.8 5.5 C 93.6 5.7 93.5 5.8 93.5 6 C 93.4 6.3 93.3 6.5 93.3 6.7 C 93.26 6.71 92.8 8.8 92.8 8.8 L 91.8 8.8 L 92.8 4.1 Z M 96.6 2.3 L 97.6 2.3 L 97.4 3.3 L 96.4 3.3 L 96.6 2.3 Z M 96.2 4.1 L 97.2 4.1 L 96.2 8.8 L 95.2 8.8 L 96.2 4.1 Z M 101.8 8.8 L 100.8 8.8 L 101 8.1 C 101 8.1 100.94 8.13 100.9 8.1 C 100.7 8.4 100.5 8.6 100.3 8.7 C 100 8.8 99.8 8.9 99.5 8.9 C 99.4 8.9 99.2 8.9 99 8.8 C 98.8 8.8 98.6 8.7 98.4 8.6 C 98.2 8.5 98 8.3 97.9 8 C 97.7 7.8 97.7 7.4 97.7 7 C 97.7 6.6 97.7 6.2 97.8 5.9 C 98 5.5 98.1 5.2 98.3 4.9 C 98.6 4.6 98.8 4.4 99.1 4.3 C 99.4 4.1 99.8 4 100.2 4 C 100.5 4 100.8 4.1 101.1 4.2 C 101.3 4.3 101.5 4.5 101.6 4.8 C 101.61 4.76 101.6 4.8 101.6 4.8 L 102.1 2.3 L 103.2 2.3 L 101.8 8.8 Z M 101.4 5.9 C 101.4 5.8 101.3 5.6 101.3 5.5 C 101.3 5.4 101.2 5.2 101.1 5.1 C 101 5 100.9 5 100.8 4.9 C 100.7 4.8 100.5 4.8 100.3 4.8 C 100 4.8 99.8 4.9 99.6 5 C 99.4 5.1 99.2 5.3 99.1 5.5 C 99 5.7 98.9 6 98.8 6.2 C 98.7 6.5 98.7 6.7 98.7 7 C 98.7 7.3 98.8 7.6 99 7.8 C 99.1 8 99.4 8.1 99.8 8.1 C 100 8.1 100.3 8 100.5 7.9 C 100.7 7.7 100.8 7.6 101 7.4 C 101.1 7.1 101.2 6.9 101.3 6.7 C 101.3 6.4 101.4 6.2 101.4 5.9 Z M 104.4 2.3 L 105.4 2.3 L 105.2 3.3 L 104.2 3.3 L 104.4 2.3 Z M 104 4.1 L 105.1 4.1 L 104.1 8.8 L 103.1 8.8 L 104 4.1 Z M 108.6 5.5 C 108.6 5.2 108.5 5.1 108.4 5 C 108.2 4.9 108 4.8 107.7 4.8 C 107.6 4.8 107.5 4.8 107.4 4.8 C 107.3 4.9 107.2 4.9 107.1 4.9 C 107.1 5 107 5 107 5.1 C 106.9 5.2 106.9 5.3 106.9 5.4 C 106.9 5.5 106.9 5.6 107 5.7 C 107.1 5.7 107.2 5.8 107.3 5.8 C 107.5 5.9 107.6 5.9 107.8 6 C 107.9 6 108.1 6.1 108.3 6.1 C 108.4 6.2 108.5 6.2 108.7 6.3 C 108.8 6.4 108.9 6.5 109 6.6 C 109.1 6.6 109.2 6.8 109.3 6.9 C 109.3 7 109.3 7.2 109.3 7.4 C 109.3 7.6 109.3 7.9 109.2 8.1 C 109 8.3 108.9 8.4 108.7 8.5 C 108.5 8.7 108.3 8.8 108 8.8 C 107.8 8.9 107.5 8.9 107.3 8.9 C 107 8.9 106.8 8.9 106.5 8.8 C 106.3 8.8 106.1 8.7 105.9 8.6 C 105.7 8.4 105.6 8.3 105.5 8.1 C 105.4 7.9 105.3 7.6 105.3 7.3 C 105.3 7.3 106.3 7.3 106.3 7.3 C 106.3 7.6 106.4 7.8 106.6 7.9 C 106.8 8 107 8.1 107.3 8.1 C 107.4 8.1 107.6 8.1 107.7 8.1 C 107.8 8 107.9 8 108 8 C 108.1 7.9 108.2 7.8 108.2 7.8 C 108.3 7.7 108.3 7.6 108.3 7.4 C 108.3 7.3 108.3 7.2 108.2 7.1 C 108.1 7.1 108 7 107.9 6.9 C 107.7 6.9 107.6 6.8 107.4 6.8 C 107.2 6.7 107.1 6.7 106.9 6.6 C 106.8 6.6 106.6 6.5 106.5 6.4 C 106.4 6.4 106.3 6.3 106.2 6.2 C 106.1 6.1 106 6 105.9 5.9 C 105.9 5.7 105.9 5.6 105.9 5.4 C 105.9 5.2 105.9 4.9 106 4.8 C 106.1 4.6 106.3 4.4 106.5 4.3 C 106.6 4.2 106.9 4.1 107.1 4.1 C 107.3 4 107.5 4 107.8 4 C 108 4 108.3 4 108.5 4.1 C 108.7 4.1 108.9 4.2 109.1 4.3 C 109.2 4.4 109.4 4.6 109.5 4.8 C 109.6 5 109.6 5.2 109.6 5.5 C 109.6 5.5 108.6 5.5 108.6 5.5 Z M 115.9 2.3 L 117.1 2.3 L 118.2 8.8 L 117.1 8.8 L 116.8 7.1 L 114.3 7.1 L 113.3 8.8 L 112.1 8.8 L 115.9 2.3 Z M 116.3 3.5 L 116.3 3.5 L 114.7 6.2 L 116.7 6.2 L 116.3 3.5 Z M 119.7 4.1 L 120.7 4.1 L 120.5 5 C 120.5 5 120.53 5.05 120.5 5 C 120.6 4.9 120.7 4.8 120.8 4.7 C 120.9 4.5 121 4.4 121.1 4.3 C 121.3 4.2 121.4 4.2 121.5 4.1 C 121.7 4 121.9 4 122 4 C 122.1 4 122.2 4 122.3 4 C 122.3 4 122.4 4 122.5 4 C 122.5 4 122.3 5 122.3 5 C 122.2 5 122.2 5 122.1 5 C 122.1 5 122 5 121.9 5 C 121.7 5 121.4 5 121.2 5.1 C 121 5.2 120.9 5.3 120.7 5.5 C 120.6 5.7 120.5 5.8 120.4 6 C 120.3 6.3 120.3 6.5 120.2 6.7 C 120.22 6.71 119.8 8.8 119.8 8.8 L 118.8 8.8 L 119.7 4.1 Z M 125.9 5.7 C 125.9 5.4 125.8 5.2 125.6 5 C 125.5 4.9 125.2 4.8 125 4.8 C 124.7 4.8 124.5 4.9 124.3 5 C 124.1 5.1 123.9 5.3 123.8 5.5 C 123.7 5.7 123.6 5.9 123.5 6.2 C 123.5 6.4 123.4 6.7 123.4 6.9 C 123.4 7.1 123.4 7.2 123.5 7.4 C 123.5 7.5 123.6 7.6 123.7 7.7 C 123.7 7.8 123.8 7.9 124 8 C 124.1 8.1 124.3 8.1 124.5 8.1 C 124.8 8.1 125 8 125.2 7.8 C 125.4 7.7 125.5 7.5 125.6 7.2 C 125.6 7.2 126.7 7.2 126.7 7.2 C 126.5 7.8 126.2 8.2 125.8 8.5 C 125.4 8.8 124.9 8.9 124.3 8.9 C 124 8.9 123.7 8.9 123.5 8.8 C 123.2 8.7 123 8.5 122.9 8.3 C 122.7 8.2 122.6 8 122.5 7.7 C 122.4 7.5 122.4 7.2 122.4 6.9 C 122.4 6.5 122.5 6.2 122.6 5.8 C 122.7 5.4 122.9 5.1 123.1 4.9 C 123.3 4.6 123.6 4.4 123.9 4.2 C 124.3 4.1 124.6 4 125 4 C 125.3 4 125.5 4 125.8 4.1 C 126 4.2 126.2 4.3 126.4 4.4 C 126.5 4.6 126.7 4.7 126.8 4.9 C 126.9 5.2 126.9 5.4 126.9 5.7 C 126.9 5.7 125.9 5.7 125.9 5.7 Z M 131.3 8.8 L 130.4 8.8 L 130.5 8.1 C 130.5 8.1 130.5 8.08 130.5 8.1 C 130.3 8.3 130.1 8.5 129.8 8.7 C 129.5 8.8 129.2 8.9 128.9 8.9 C 128.4 8.9 128.1 8.8 127.9 8.6 C 127.6 8.3 127.5 8 127.5 7.7 C 127.5 7.6 127.5 7.5 127.5 7.4 C 127.6 7.3 127.6 7.2 127.6 7.1 C 127.58 7.09 128.2 4.1 128.2 4.1 L 129.2 4.1 C 129.2 4.1 128.64 6.99 128.6 7 C 128.6 7.1 128.6 7.1 128.6 7.2 C 128.6 7.3 128.6 7.4 128.6 7.4 C 128.6 7.5 128.6 7.5 128.6 7.6 C 128.6 7.7 128.6 7.7 128.6 7.8 C 128.7 7.9 128.7 8 128.8 8 C 128.9 8.1 129.1 8.1 129.3 8.1 C 129.5 8.1 129.7 8 129.8 8 C 130 7.9 130.1 7.8 130.3 7.6 C 130.4 7.5 130.5 7.3 130.6 7.2 C 130.7 7 130.7 6.8 130.8 6.6 C 130.75 6.64 131.3 4.1 131.3 4.1 L 132.3 4.1 L 131.3 8.8 Z M 135.8 5.5 C 135.8 5.2 135.7 5.1 135.6 5 C 135.4 4.9 135.2 4.8 134.9 4.8 C 134.8 4.8 134.7 4.8 134.6 4.8 C 134.5 4.9 134.4 4.9 134.3 4.9 C 134.3 5 134.2 5 134.2 5.1 C 134.1 5.2 134.1 5.3 134.1 5.4 C 134.1 5.5 134.1 5.6 134.2 5.7 C 134.3 5.7 134.4 5.8 134.5 5.8 C 134.7 5.9 134.8 5.9 135 6 C 135.1 6 135.3 6.1 135.5 6.1 C 135.6 6.2 135.7 6.2 135.9 6.3 C 136 6.4 136.1 6.5 136.2 6.6 C 136.3 6.6 136.4 6.8 136.5 6.9 C 136.5 7 136.5 7.2 136.5 7.4 C 136.5 7.6 136.5 7.9 136.4 8.1 C 136.2 8.3 136.1 8.4 135.9 8.5 C 135.7 8.7 135.5 8.8 135.2 8.8 C 135 8.9 134.7 8.9 134.5 8.9 C 134.2 8.9 134 8.9 133.7 8.8 C 133.5 8.8 133.3 8.7 133.1 8.6 C 132.9 8.4 132.8 8.3 132.7 8.1 C 132.6 7.9 132.5 7.6 132.5 7.3 C 132.5 7.3 133.5 7.3 133.5 7.3 C 133.5 7.6 133.6 7.8 133.8 7.9 C 134 8 134.2 8.1 134.5 8.1 C 134.6 8.1 134.8 8.1 134.9 8.1 C 135 8 135.1 8 135.2 8 C 135.3 7.9 135.4 7.8 135.4 7.8 C 135.5 7.7 135.5 7.6 135.5 7.4 C 135.5 7.3 135.5 7.2 135.4 7.1 C 135.3 7.1 135.2 7 135.1 6.9 C 134.9 6.9 134.8 6.8 134.6 6.8 C 134.4 6.7 134.3 6.7 134.1 6.6 C 134 6.6 133.8 6.5 133.7 6.4 C 133.6 6.4 133.5 6.3 133.4 6.2 C 133.3 6.1 133.2 6 133.2 5.9 C 133.1 5.7 133.1 5.6 133.1 5.4 C 133.1 5.2 133.1 4.9 133.2 4.8 C 133.4 4.6 133.5 4.4 133.7 4.3 C 133.9 4.2 134.1 4.1 134.3 4.1 C 134.5 4 134.7 4 135 4 C 135.2 4 135.5 4 135.7 4.1 C 135.9 4.1 136.1 4.2 136.3 4.3 C 136.4 4.4 136.6 4.6 136.7 4.8 C 136.8 5 136.8 5.2 136.8 5.5 C 136.8 5.5 135.8 5.5 135.8 5.5 Z M 137.5 7.6 C 137.5 7.6 138.76 7.56 138.8 7.6 C 138.7 7.8 138.6 8.1 138.6 8.4 C 138.5 8.7 138.5 8.9 138.4 9.2 C 138.3 9.4 138.1 9.6 137.9 9.8 C 137.7 10 137.4 10.1 137.1 10.1 C 137.1 10.1 137.2 9.6 137.2 9.6 C 137.4 9.5 137.6 9.4 137.7 9.3 C 137.8 9.2 137.9 9 137.9 8.8 C 137.91 8.77 137.2 8.8 137.2 8.8 L 137.5 7.6 Z M 148 8.8 L 147.3 8.8 L 147.3 8.1 C 147.3 8.1 147.26 8.1 147.3 8.1 C 147.1 8.2 147 8.4 146.9 8.5 C 146.7 8.6 146.6 8.7 146.4 8.7 C 146.3 8.8 146.1 8.8 146 8.9 C 145.8 8.9 145.7 8.9 145.5 8.9 C 145.1 8.9 144.7 8.9 144.3 8.7 C 144 8.6 143.7 8.4 143.4 8.1 C 143.2 7.9 143 7.6 142.9 7.2 C 142.8 6.9 142.7 6.5 142.7 6.1 C 142.7 5.4 142.8 4.9 143 4.4 C 143.2 3.9 143.5 3.5 143.8 3.1 C 144.1 2.8 144.5 2.6 144.9 2.4 C 145.3 2.3 145.7 2.2 146.1 2.2 C 146.5 2.2 146.9 2.2 147.2 2.3 C 147.5 2.4 147.8 2.6 148 2.7 C 148.3 2.9 148.5 3.1 148.6 3.4 C 148.8 3.7 148.8 4 148.8 4.4 C 148.8 4.4 147.7 4.4 147.7 4.4 C 147.7 4 147.5 3.6 147.2 3.4 C 147 3.2 146.6 3.1 146.1 3.1 C 145.7 3.1 145.4 3.2 145.1 3.4 C 144.8 3.5 144.6 3.8 144.4 4.1 C 144.2 4.3 144.1 4.7 144 5 C 143.9 5.4 143.8 5.7 143.8 6.1 C 143.8 6.7 144 7.2 144.3 7.5 C 144.6 7.8 145 8 145.6 8 C 145.9 8 146.1 8 146.3 7.9 C 146.5 7.8 146.7 7.7 146.9 7.5 C 147 7.4 147.2 7.2 147.3 7 C 147.4 6.7 147.5 6.5 147.5 6.2 C 147.54 6.25 145.8 6.2 145.8 6.2 L 146 5.4 L 148.7 5.4 L 148 8.8 Z M 150.3 7.5 C 150.3 7.6 150.3 7.7 150.4 7.8 C 150.4 7.9 150.5 7.9 150.6 8 C 150.6 8 150.7 8 150.8 8.1 C 150.9 8.1 151 8.1 151.1 8.1 C 151.4 8.1 151.6 8 151.7 8 C 151.9 7.9 152 7.8 152.2 7.6 C 152.3 7.5 152.4 7.3 152.4 7.1 C 152.5 6.9 152.5 6.7 152.6 6.5 C 152.6 6.5 152.5 6.5 152.5 6.5 C 152.5 6.5 152.4 6.6 152.3 6.6 C 152.1 6.7 152 6.7 151.9 6.7 C 151.8 6.7 151.6 6.7 151.4 6.7 C 151.2 6.7 151 6.8 150.9 6.8 C 150.7 6.9 150.6 6.9 150.5 7.1 C 150.3 7.2 150.3 7.3 150.3 7.5 Z M 153.4 7.4 C 153.3 7.5 153.3 7.6 153.3 7.7 C 153.3 7.7 153.3 7.8 153.3 7.9 C 153.3 8 153.3 8 153.3 8 C 153.4 8.1 153.4 8.1 153.5 8.1 C 153.6 8.1 153.6 8.1 153.7 8.1 C 153.7 8.1 153.8 8 153.9 8 C 153.9 8 153.7 8.8 153.7 8.8 C 153.6 8.8 153.4 8.8 153.3 8.9 C 153.2 8.9 153 8.9 152.9 8.9 C 152.7 8.9 152.6 8.8 152.5 8.7 C 152.3 8.6 152.3 8.5 152.3 8.3 C 152.1 8.5 151.8 8.7 151.5 8.8 C 151.3 8.9 151 8.9 150.7 8.9 C 150.5 8.9 150.3 8.9 150.2 8.8 C 150 8.8 149.8 8.7 149.7 8.6 C 149.6 8.5 149.4 8.4 149.4 8.2 C 149.3 8 149.3 7.9 149.3 7.7 C 149.3 7.4 149.3 7.1 149.4 6.9 C 149.5 6.7 149.7 6.6 149.8 6.5 C 150 6.3 150.2 6.2 150.5 6.2 C 150.7 6.1 150.9 6.1 151.2 6.1 C 151.6 6 151.9 6 152.2 6 C 152.4 6 152.6 5.9 152.6 5.8 C 152.7 5.7 152.8 5.5 152.8 5.4 C 152.8 5.1 152.7 5 152.5 4.9 C 152.4 4.8 152.2 4.8 152 4.8 C 151.7 4.8 151.5 4.9 151.2 5 C 151 5.1 150.9 5.2 150.8 5.5 C 150.8 5.5 149.9 5.5 149.9 5.5 C 149.9 5.2 150 5 150.1 4.8 C 150.3 4.6 150.4 4.5 150.6 4.3 C 150.8 4.2 151 4.1 151.3 4.1 C 151.5 4 151.8 4 152.1 4 C 152.5 4 152.8 4 153 4.1 C 153.3 4.2 153.5 4.3 153.6 4.4 C 153.7 4.5 153.7 4.6 153.8 4.8 C 153.8 4.9 153.8 5 153.8 5.1 C 153.8 5.3 153.8 5.5 153.7 5.8 C 153.7 5.8 153.4 7.4 153.4 7.4 Z M 155.3 4.1 L 156.3 4.1 L 156.2 4.8 C 156.2 4.8 156.19 4.8 156.2 4.8 C 156.4 4.5 156.6 4.3 156.9 4.2 C 157.2 4.1 157.5 4 157.8 4 C 158.1 4 158.3 4.1 158.5 4.2 C 158.8 4.3 158.9 4.5 159 4.8 C 159.2 4.6 159.4 4.4 159.7 4.2 C 159.9 4.1 160.2 4 160.5 4 C 161 4 161.3 4.1 161.5 4.3 C 161.8 4.6 161.9 4.9 161.9 5.2 C 161.9 5.3 161.9 5.4 161.8 5.5 C 161.8 5.6 161.8 5.7 161.8 5.8 C 161.79 5.8 161.2 8.8 161.2 8.8 L 160.2 8.8 C 160.2 8.8 160.75 6.02 160.7 6 C 160.8 6 160.8 5.9 160.8 5.8 C 160.8 5.7 160.8 5.6 160.8 5.5 C 160.8 5.4 160.8 5.3 160.8 5.2 C 160.8 5.2 160.8 5.1 160.7 5 C 160.7 5 160.6 4.9 160.5 4.9 C 160.4 4.8 160.3 4.8 160.2 4.8 C 160 4.8 159.8 4.8 159.7 4.9 C 159.5 5 159.4 5.1 159.3 5.2 C 159.2 5.4 159.1 5.5 159 5.6 C 158.9 5.8 158.9 5.9 158.9 6.1 C 158.87 6.06 158.3 8.8 158.3 8.8 L 157.3 8.8 C 157.3 8.8 157.8 6.22 157.8 6.2 C 157.8 6.1 157.9 6 157.9 5.8 C 157.9 5.7 157.9 5.5 157.9 5.4 C 157.9 5.2 157.9 5.1 157.8 5 C 157.7 4.9 157.6 4.8 157.4 4.8 C 157.2 4.8 157 4.8 156.9 4.9 C 156.7 5 156.6 5.1 156.5 5.2 C 156.4 5.3 156.3 5.4 156.2 5.6 C 156.1 5.7 156 5.9 156 6.1 C 155.96 6.08 155.4 8.8 155.4 8.8 L 154.4 8.8 L 155.3 4.1 Z M 166.1 6 C 166.1 6 166.1 6 166.1 6 C 166.1 5.9 166.1 5.9 166.1 5.9 C 166.1 5.9 166.1 5.8 166.1 5.8 C 166.1 5.5 166.1 5.2 165.9 5.1 C 165.7 4.9 165.5 4.8 165.2 4.8 C 164.8 4.8 164.5 4.9 164.2 5.2 C 164 5.4 163.9 5.7 163.8 6 C 163.8 6 166.1 6 166.1 6 Z M 166.9 7.3 C 166.7 7.9 166.5 8.3 166.1 8.5 C 165.7 8.8 165.2 8.9 164.6 8.9 C 164.4 8.9 164.1 8.9 163.8 8.8 C 163.6 8.7 163.4 8.5 163.2 8.4 C 163 8.2 162.9 8 162.8 7.7 C 162.7 7.5 162.6 7.2 162.6 6.9 C 162.6 6.5 162.7 6.2 162.8 5.8 C 162.9 5.5 163.1 5.2 163.3 4.9 C 163.5 4.6 163.8 4.4 164.1 4.2 C 164.4 4.1 164.8 4 165.2 4 C 165.6 4 165.9 4.1 166.2 4.2 C 166.5 4.3 166.7 4.5 166.8 4.7 C 166.9 4.9 167 5.2 167.1 5.4 C 167.1 5.7 167.2 5.9 167.2 6.1 C 167.2 6.3 167.2 6.4 167.2 6.5 C 167.1 6.5 167.1 6.6 167.1 6.7 C 167.1 6.7 163.7 6.7 163.7 6.7 C 163.6 6.7 163.6 6.8 163.6 6.8 C 163.6 6.8 163.6 6.8 163.6 6.9 C 163.6 6.9 163.6 7 163.6 7 C 163.6 7.3 163.7 7.6 163.9 7.8 C 164.1 8 164.3 8.1 164.7 8.1 C 165 8.1 165.3 8 165.5 7.9 C 165.7 7.8 165.8 7.6 165.9 7.3 C 165.9 7.3 166.9 7.3 166.9 7.3 Z M 169 6.9 C 169 7.1 169 7.2 169 7.4 C 169.1 7.5 169.1 7.6 169.2 7.7 C 169.3 7.8 169.4 7.9 169.5 8 C 169.7 8.1 169.8 8.1 170 8.1 C 170.3 8.1 170.5 8 170.7 7.9 C 170.9 7.8 171.1 7.6 171.2 7.4 C 171.3 7.2 171.4 7 171.5 6.8 C 171.6 6.5 171.6 6.3 171.6 6 C 171.6 5.9 171.6 5.7 171.5 5.5 C 171.5 5.4 171.4 5.3 171.3 5.2 C 171.3 5.1 171.2 5 171 4.9 C 170.9 4.8 170.7 4.8 170.6 4.8 C 170.3 4.8 170.1 4.9 169.9 5 C 169.7 5.1 169.5 5.3 169.4 5.5 C 169.2 5.7 169.1 5.9 169.1 6.2 C 169 6.4 169 6.7 169 6.9 Z M 168.5 4.1 L 169.5 4.1 L 169.4 4.7 C 169.4 4.7 169.39 4.73 169.4 4.7 C 169.5 4.5 169.8 4.3 170 4.2 C 170.3 4.1 170.6 4 170.9 4 C 171.1 4 171.4 4 171.6 4.1 C 171.8 4.2 172 4.4 172.2 4.5 C 172.3 4.7 172.4 4.9 172.5 5.2 C 172.6 5.4 172.6 5.6 172.6 5.9 C 172.6 6.3 172.6 6.6 172.5 7 C 172.4 7.3 172.2 7.7 172 7.9 C 171.8 8.2 171.6 8.5 171.3 8.6 C 171 8.8 170.6 8.9 170.2 8.9 C 169.9 8.9 169.6 8.8 169.3 8.7 C 169.1 8.6 168.9 8.4 168.7 8.1 C 168.71 8.05 168.7 8.1 168.7 8.1 L 168.2 10.5 L 167.2 10.5 L 168.5 4.1 Z M 177.2 8.8 L 176.2 8.8 L 176.3 8.1 C 176.3 8.1 176.32 8.08 176.3 8.1 C 176.1 8.3 175.9 8.5 175.6 8.7 C 175.3 8.8 175 8.9 174.7 8.9 C 174.2 8.9 173.9 8.8 173.7 8.6 C 173.5 8.3 173.4 8 173.4 7.7 C 173.4 7.6 173.4 7.5 173.4 7.4 C 173.4 7.3 173.4 7.2 173.4 7.1 C 173.4 7.09 174 4.1 174 4.1 L 175 4.1 C 175 4.1 174.45 6.99 174.5 7 C 174.4 7.1 174.4 7.1 174.4 7.2 C 174.4 7.3 174.4 7.4 174.4 7.4 C 174.4 7.5 174.4 7.5 174.4 7.6 C 174.4 7.7 174.4 7.7 174.5 7.8 C 174.5 7.9 174.6 8 174.7 8 C 174.8 8.1 174.9 8.1 175.1 8.1 C 175.3 8.1 175.5 8 175.6 8 C 175.8 7.9 175.9 7.8 176.1 7.6 C 176.2 7.5 176.3 7.3 176.4 7.2 C 176.5 7 176.5 6.8 176.6 6.6 C 176.57 6.64 177.1 4.1 177.1 4.1 L 178.1 4.1 L 177.2 8.8 Z M 179.3 4.1 L 180.3 4.1 L 180.1 5 C 180.1 5 180.12 5.05 180.1 5 C 180.2 4.9 180.3 4.8 180.4 4.7 C 180.5 4.5 180.6 4.4 180.7 4.3 C 180.9 4.2 181 4.2 181.1 4.1 C 181.3 4 181.4 4 181.6 4 C 181.7 4 181.8 4 181.8 4 C 181.9 4 182 4 182.1 4 C 182.1 4 181.9 5 181.9 5 C 181.8 5 181.8 5 181.7 5 C 181.6 5 181.6 5 181.5 5 C 181.3 5 181 5 180.8 5.1 C 180.6 5.2 180.5 5.3 180.3 5.5 C 180.2 5.7 180.1 5.8 180 6 C 179.9 6.3 179.9 6.5 179.8 6.7 C 179.81 6.71 179.4 8.8 179.4 8.8 L 178.4 8.8 L 179.3 4.1 Z M 181.3 7.6 C 181.3 7.6 182.58 7.56 182.6 7.6 C 182.5 7.8 182.4 8.1 182.4 8.4 C 182.4 8.7 182.3 8.9 182.2 9.2 C 182.1 9.4 181.9 9.6 181.7 9.8 C 181.5 10 181.3 10.1 180.9 10.1 C 180.9 10.1 181 9.6 181 9.6 C 181.2 9.5 181.4 9.4 181.5 9.3 C 181.6 9.2 181.7 9 181.7 8.8 C 181.74 8.77 181.1 8.8 181.1 8.8 L 181.3 7.6 Z M 187.2 7.5 C 187.2 7.6 187.2 7.7 187.3 7.8 C 187.3 7.9 187.4 7.9 187.5 8 C 187.5 8 187.6 8 187.7 8.1 C 187.8 8.1 187.9 8.1 188 8.1 C 188.3 8.1 188.5 8 188.6 8 C 188.8 7.9 188.9 7.8 189.1 7.6 C 189.2 7.5 189.3 7.3 189.3 7.1 C 189.4 6.9 189.4 6.7 189.5 6.5 C 189.5 6.5 189.4 6.5 189.4 6.5 C 189.4 6.5 189.3 6.6 189.2 6.6 C 189 6.7 188.9 6.7 188.8 6.7 C 188.7 6.7 188.5 6.7 188.3 6.7 C 188.1 6.7 187.9 6.8 187.8 6.8 C 187.6 6.9 187.5 6.9 187.4 7.1 C 187.2 7.2 187.2 7.3 187.2 7.5 Z M 190.3 7.4 C 190.2 7.5 190.2 7.6 190.2 7.7 C 190.2 7.7 190.2 7.8 190.2 7.9 C 190.2 8 190.2 8 190.2 8 C 190.3 8.1 190.3 8.1 190.4 8.1 C 190.5 8.1 190.5 8.1 190.6 8.1 C 190.6 8.1 190.7 8 190.8 8 C 190.8 8 190.6 8.8 190.6 8.8 C 190.5 8.8 190.3 8.8 190.2 8.9 C 190.1 8.9 189.9 8.9 189.8 8.9 C 189.6 8.9 189.5 8.8 189.4 8.7 C 189.2 8.6 189.2 8.5 189.2 8.3 C 189 8.5 188.7 8.7 188.4 8.8 C 188.2 8.9 187.9 8.9 187.6 8.9 C 187.4 8.9 187.2 8.9 187.1 8.8 C 186.9 8.8 186.7 8.7 186.6 8.6 C 186.5 8.5 186.3 8.4 186.3 8.2 C 186.2 8 186.2 7.9 186.2 7.7 C 186.2 7.4 186.2 7.1 186.3 6.9 C 186.4 6.7 186.6 6.6 186.7 6.5 C 186.9 6.3 187.1 6.2 187.4 6.2 C 187.6 6.1 187.8 6.1 188.1 6.1 C 188.5 6 188.8 6 189.1 6 C 189.3 6 189.5 5.9 189.5 5.8 C 189.6 5.7 189.7 5.5 189.7 5.4 C 189.7 5.1 189.6 5 189.4 4.9 C 189.3 4.8 189.1 4.8 188.9 4.8 C 188.6 4.8 188.4 4.9 188.1 5 C 187.9 5.1 187.8 5.2 187.7 5.5 C 187.7 5.5 186.8 5.5 186.8 5.5 C 186.8 5.2 186.9 5 187 4.8 C 187.2 4.6 187.3 4.5 187.5 4.3 C 187.7 4.2 187.9 4.1 188.2 4.1 C 188.4 4 188.7 4 189 4 C 189.4 4 189.7 4 189.9 4.1 C 190.2 4.2 190.4 4.3 190.5 4.4 C 190.6 4.5 190.6 4.6 190.7 4.8 C 190.7 4.9 190.7 5 190.7 5.1 C 190.7 5.3 190.7 5.5 190.6 5.8 C 190.6 5.8 190.3 7.4 190.3 7.4 Z M 192.8 2.7 L 193.8 2.7 L 193.5 4.1 L 194.4 4.1 L 194.2 4.9 L 193.3 4.9 C 193.3 4.9 192.83 7.16 192.8 7.2 C 192.8 7.3 192.8 7.4 192.8 7.5 C 192.8 7.5 192.7 7.6 192.7 7.7 C 192.7 7.8 192.8 7.9 192.8 7.9 C 192.9 8 193 8 193.1 8 C 193.2 8 193.3 8 193.4 8 C 193.5 8 193.6 8 193.7 8 C 193.7 8 193.5 8.7 193.5 8.7 C 193.4 8.8 193.2 8.8 193.1 8.8 C 192.9 8.8 192.8 8.8 192.6 8.8 C 192.5 8.8 192.3 8.8 192.2 8.7 C 192.1 8.7 192 8.6 191.9 8.6 C 191.8 8.5 191.8 8.4 191.8 8.3 C 191.7 8.2 191.7 8.1 191.7 8 C 191.7 7.9 191.7 7.8 191.7 7.7 C 191.8 7.6 191.8 7.5 191.8 7.4 C 191.78 7.43 192.3 4.9 192.3 4.9 L 191.5 4.9 L 191.7 4.1 L 192.5 4.1 L 192.8 2.7 Z M 198.4 2.3 L 199.5 2.3 L 198.4 7.8 L 201.6 7.8 L 201.4 8.8 L 197 8.8 L 198.4 2.3 Z M 205.9 6 C 205.9 6 205.9 6 205.9 6 C 205.9 5.9 205.9 5.9 205.9 5.9 C 205.9 5.9 205.9 5.8 205.9 5.8 C 205.9 5.5 205.8 5.2 205.6 5.1 C 205.5 4.9 205.2 4.8 204.9 4.8 C 204.5 4.8 204.2 4.9 204 5.2 C 203.8 5.4 203.6 5.7 203.5 6 C 203.5 6 205.9 6 205.9 6 Z M 206.6 7.3 C 206.5 7.9 206.2 8.3 205.8 8.5 C 205.4 8.8 205 8.9 204.4 8.9 C 204.1 8.9 203.8 8.9 203.6 8.8 C 203.3 8.7 203.1 8.5 202.9 8.4 C 202.8 8.2 202.6 8 202.5 7.7 C 202.4 7.5 202.4 7.2 202.4 6.9 C 202.4 6.5 202.4 6.2 202.5 5.8 C 202.6 5.5 202.8 5.2 203 4.9 C 203.2 4.6 203.5 4.4 203.8 4.2 C 204.2 4.1 204.5 4 204.9 4 C 205.4 4 205.7 4.1 205.9 4.2 C 206.2 4.3 206.4 4.5 206.5 4.7 C 206.7 4.9 206.8 5.2 206.8 5.4 C 206.9 5.7 206.9 5.9 206.9 6.1 C 206.9 6.3 206.9 6.4 206.9 6.5 C 206.9 6.5 206.9 6.6 206.9 6.7 C 206.9 6.7 203.4 6.7 203.4 6.7 C 203.4 6.7 203.4 6.8 203.4 6.8 C 203.4 6.8 203.4 6.8 203.4 6.9 C 203.4 6.9 203.4 7 203.4 7 C 203.4 7.3 203.5 7.6 203.6 7.8 C 203.8 8 204.1 8.1 204.5 8.1 C 204.8 8.1 205 8 205.2 7.9 C 205.4 7.8 205.5 7.6 205.6 7.3 C 205.6 7.3 206.6 7.3 206.6 7.3 Z M 208.3 7.5 C 208.3 7.6 208.3 7.7 208.4 7.8 C 208.4 7.9 208.5 7.9 208.6 8 C 208.7 8 208.7 8 208.8 8.1 C 208.9 8.1 209 8.1 209.1 8.1 C 209.4 8.1 209.6 8 209.8 8 C 209.9 7.9 210.1 7.8 210.2 7.6 C 210.3 7.5 210.4 7.3 210.4 7.1 C 210.5 6.9 210.6 6.7 210.6 6.5 C 210.6 6.5 210.6 6.5 210.6 6.5 C 210.5 6.5 210.4 6.6 210.3 6.6 C 210.2 6.7 210 6.7 209.9 6.7 C 209.8 6.7 209.6 6.7 209.4 6.7 C 209.2 6.7 209.1 6.8 208.9 6.8 C 208.7 6.9 208.6 6.9 208.5 7.1 C 208.4 7.2 208.3 7.3 208.3 7.5 Z M 211.4 7.4 C 211.4 7.5 211.4 7.6 211.3 7.7 C 211.3 7.7 211.3 7.8 211.3 7.9 C 211.3 8 211.3 8 211.3 8 C 211.4 8.1 211.4 8.1 211.5 8.1 C 211.6 8.1 211.6 8.1 211.7 8.1 C 211.8 8.1 211.8 8 211.9 8 C 211.9 8 211.7 8.8 211.7 8.8 C 211.6 8.8 211.5 8.8 211.3 8.9 C 211.2 8.9 211.1 8.9 210.9 8.9 C 210.7 8.9 210.6 8.8 210.5 8.7 C 210.4 8.6 210.3 8.5 210.3 8.3 C 210.1 8.5 209.8 8.7 209.6 8.8 C 209.3 8.9 209 8.9 208.7 8.9 C 208.5 8.9 208.4 8.9 208.2 8.8 C 208 8.8 207.8 8.7 207.7 8.6 C 207.6 8.5 207.5 8.4 207.4 8.2 C 207.3 8 207.3 7.9 207.3 7.7 C 207.3 7.4 207.3 7.1 207.4 6.9 C 207.5 6.7 207.7 6.6 207.9 6.5 C 208.1 6.3 208.3 6.2 208.5 6.2 C 208.7 6.1 209 6.1 209.2 6.1 C 209.6 6 209.9 6 210.3 6 C 210.4 6 210.6 5.9 210.7 5.8 C 210.8 5.7 210.8 5.5 210.8 5.4 C 210.8 5.1 210.7 5 210.6 4.9 C 210.4 4.8 210.2 4.8 210 4.8 C 209.7 4.8 209.5 4.9 209.3 5 C 209.1 5.1 208.9 5.2 208.9 5.5 C 208.9 5.5 207.9 5.5 207.9 5.5 C 207.9 5.2 208 5 208.2 4.8 C 208.3 4.6 208.5 4.5 208.6 4.3 C 208.8 4.2 209.1 4.1 209.3 4.1 C 209.5 4 209.8 4 210.1 4 C 210.5 4 210.8 4 211.1 4.1 C 211.3 4.2 211.5 4.3 211.6 4.4 C 211.7 4.5 211.8 4.6 211.8 4.8 C 211.8 4.9 211.8 5 211.8 5.1 C 211.8 5.3 211.8 5.5 211.7 5.8 C 211.7 5.8 211.4 7.4 211.4 7.4 Z M 213.6 6.8 C 213.6 7 213.7 7.1 213.7 7.3 C 213.7 7.4 213.8 7.5 213.9 7.6 C 214 7.7 214.1 7.8 214.2 7.9 C 214.3 7.9 214.4 8 214.6 8 C 214.9 8 215.1 7.9 215.3 7.8 C 215.5 7.6 215.7 7.5 215.8 7.3 C 215.9 7.1 216 6.9 216.1 6.6 C 216.1 6.4 216.2 6.1 216.2 5.9 C 216.2 5.6 216.1 5.3 215.9 5.1 C 215.7 4.9 215.5 4.8 215.1 4.8 C 214.9 4.8 214.7 4.9 214.5 5 C 214.3 5.1 214.1 5.3 214 5.5 C 213.9 5.7 213.8 5.9 213.7 6.1 C 213.7 6.4 213.6 6.6 213.6 6.8 Z M 216.6 8.6 C 216.5 9 216.4 9.3 216.3 9.6 C 216.2 9.8 216.1 10 215.9 10.2 C 215.7 10.3 215.5 10.4 215.2 10.5 C 214.9 10.6 214.6 10.6 214.3 10.6 C 214 10.6 213.7 10.6 213.5 10.5 C 213.3 10.5 213.1 10.4 212.9 10.3 C 212.7 10.2 212.5 10 212.4 9.8 C 212.3 9.6 212.3 9.4 212.3 9.1 C 212.3 9.1 213.3 9.1 213.3 9.1 C 213.3 9.4 213.4 9.6 213.6 9.7 C 213.8 9.8 214.1 9.9 214.4 9.9 C 214.6 9.9 214.8 9.8 214.9 9.8 C 215.1 9.7 215.2 9.6 215.3 9.5 C 215.4 9.4 215.5 9.2 215.5 9.1 C 215.6 8.9 215.6 8.7 215.7 8.5 C 215.67 8.55 215.8 8.1 215.8 8.1 C 215.8 8.1 215.75 8.07 215.7 8.1 C 215.4 8.5 215 8.8 214.4 8.8 C 213.9 8.8 213.4 8.6 213.1 8.3 C 212.8 7.9 212.6 7.5 212.6 6.9 C 212.6 6.5 212.7 6.2 212.8 5.8 C 212.9 5.5 213 5.2 213.2 4.9 C 213.4 4.6 213.7 4.4 214 4.2 C 214.3 4.1 214.6 4 215 4 C 215.4 4 215.7 4.1 215.9 4.2 C 216.2 4.3 216.3 4.6 216.5 4.9 C 216.47 4.9 216.5 4.9 216.5 4.9 L 216.6 4.1 L 217.6 4.1 C 217.6 4.1 216.61 8.65 216.6 8.6 Z M 221.8 8.8 L 220.9 8.8 L 221 8.1 C 221 8.1 220.99 8.08 221 8.1 C 220.8 8.3 220.6 8.5 220.3 8.7 C 220 8.8 219.7 8.9 219.4 8.9 C 218.9 8.9 218.6 8.8 218.4 8.6 C 218.1 8.3 218 8 218 7.7 C 218 7.6 218 7.5 218 7.4 C 218 7.3 218.1 7.2 218.1 7.1 C 218.08 7.09 218.7 4.1 218.7 4.1 L 219.7 4.1 C 219.7 4.1 219.13 6.99 219.1 7 C 219.1 7.1 219.1 7.1 219.1 7.2 C 219.1 7.3 219.1 7.4 219.1 7.4 C 219.1 7.5 219.1 7.5 219.1 7.6 C 219.1 7.7 219.1 7.7 219.1 7.8 C 219.2 7.9 219.2 8 219.3 8 C 219.4 8.1 219.6 8.1 219.8 8.1 C 220 8.1 220.1 8 220.3 8 C 220.5 7.9 220.6 7.8 220.8 7.6 C 220.9 7.5 221 7.3 221.1 7.2 C 221.1 7 221.2 6.8 221.2 6.6 C 221.25 6.64 221.8 4.1 221.8 4.1 L 222.8 4.1 L 221.8 8.8 Z M 226.8 6 C 226.8 6 226.8 6 226.8 6 C 226.8 5.9 226.8 5.9 226.8 5.9 C 226.8 5.9 226.8 5.8 226.8 5.8 C 226.8 5.5 226.7 5.2 226.5 5.1 C 226.3 4.9 226.1 4.8 225.8 4.8 C 225.4 4.8 225.1 4.9 224.9 5.2 C 224.6 5.4 224.5 5.7 224.4 6 C 224.4 6 226.8 6 226.8 6 Z M 227.5 7.3 C 227.3 7.9 227.1 8.3 226.7 8.5 C 226.3 8.8 225.8 8.9 225.3 8.9 C 225 8.9 224.7 8.9 224.4 8.8 C 224.2 8.7 224 8.5 223.8 8.4 C 223.6 8.2 223.5 8 223.4 7.7 C 223.3 7.5 223.2 7.2 223.2 6.9 C 223.2 6.5 223.3 6.2 223.4 5.8 C 223.5 5.5 223.7 5.2 223.9 4.9 C 224.1 4.6 224.4 4.4 224.7 4.2 C 225 4.1 225.4 4 225.8 4 C 226.2 4 226.6 4.1 226.8 4.2 C 227.1 4.3 227.3 4.5 227.4 4.7 C 227.6 4.9 227.7 5.2 227.7 5.4 C 227.8 5.7 227.8 5.9 227.8 6.1 C 227.8 6.3 227.8 6.4 227.8 6.5 C 227.8 6.5 227.7 6.6 227.7 6.7 C 227.7 6.7 224.3 6.7 224.3 6.7 C 224.3 6.7 224.3 6.8 224.3 6.8 C 224.3 6.8 224.3 6.8 224.3 6.9 C 224.3 6.9 224.3 7 224.3 7 C 224.3 7.3 224.3 7.6 224.5 7.8 C 224.7 8 225 8.1 225.4 8.1 C 225.6 8.1 225.9 8 226.1 7.9 C 226.3 7.8 226.4 7.6 226.5 7.3 C 226.5 7.3 227.5 7.3 227.5 7.3 Z M 233.5 4.8 C 233.3 4.8 233 4.9 232.8 5 C 232.6 5.1 232.5 5.3 232.3 5.5 C 232.2 5.7 232.1 5.9 232 6.2 C 232 6.4 232 6.7 232 6.9 C 232 7.2 232 7.5 232.2 7.7 C 232.4 8 232.7 8.1 233 8.1 C 233.3 8.1 233.5 8 233.7 7.9 C 233.9 7.8 234.1 7.6 234.2 7.4 C 234.3 7.2 234.4 7 234.5 6.7 C 234.6 6.5 234.6 6.2 234.6 6 C 234.6 5.7 234.5 5.4 234.3 5.1 C 234.2 4.9 233.9 4.8 233.5 4.8 Z M 233 8.9 C 232.3 8.9 231.8 8.7 231.5 8.4 C 231.1 8 230.9 7.5 230.9 6.9 C 230.9 6.5 231 6.1 231.1 5.8 C 231.2 5.4 231.4 5.1 231.7 4.9 C 231.9 4.6 232.2 4.4 232.5 4.2 C 232.8 4.1 233.2 4 233.6 4 C 234.2 4 234.7 4.2 235.1 4.5 C 235.4 4.8 235.6 5.3 235.6 6 C 235.6 6.4 235.6 6.8 235.4 7.1 C 235.3 7.5 235.1 7.8 234.9 8.1 C 234.7 8.3 234.4 8.5 234.1 8.7 C 233.7 8.8 233.4 8.9 233 8.9 Z M 237.2 4.9 L 236.5 4.9 L 236.6 4.1 C 236.6 4.1 237.39 4.12 237.4 4.1 C 237.4 3.9 237.5 3.6 237.6 3.4 C 237.6 3.2 237.7 3 237.8 2.8 C 237.9 2.7 238.1 2.6 238.3 2.5 C 238.5 2.4 238.7 2.3 239 2.3 C 239.2 2.3 239.3 2.4 239.4 2.4 C 239.6 2.4 239.7 2.4 239.8 2.4 C 239.8 2.4 239.6 3.2 239.6 3.2 C 239.5 3.2 239.4 3.2 239.2 3.2 C 239.1 3.2 238.9 3.2 238.8 3.2 C 238.7 3.3 238.7 3.3 238.6 3.4 C 238.6 3.5 238.5 3.6 238.5 3.7 C 238.5 3.9 238.5 4 238.4 4.1 C 238.42 4.12 239.3 4.1 239.3 4.1 L 239.2 4.9 L 238.3 4.9 L 237.5 8.8 L 236.4 8.8 L 237.2 4.9 Z M 243.1 2.3 L 244.3 2.3 L 243.1 7.8 L 246.4 7.8 L 246.2 8.8 L 241.8 8.8 L 243.1 2.3 Z M 250.6 6 C 250.6 6 250.6 6 250.6 6 C 250.6 5.9 250.6 5.9 250.6 5.9 C 250.6 5.9 250.6 5.8 250.6 5.8 C 250.6 5.5 250.6 5.2 250.4 5.1 C 250.2 4.9 250 4.8 249.7 4.8 C 249.3 4.8 249 4.9 248.7 5.2 C 248.5 5.4 248.4 5.7 248.3 6 C 248.3 6 250.6 6 250.6 6 Z M 251.4 7.3 C 251.2 7.9 251 8.3 250.6 8.5 C 250.2 8.8 249.7 8.9 249.1 8.9 C 248.9 8.9 248.6 8.9 248.3 8.8 C 248.1 8.7 247.9 8.5 247.7 8.4 C 247.5 8.2 247.4 8 247.3 7.7 C 247.2 7.5 247.1 7.2 247.1 6.9 C 247.1 6.5 247.2 6.2 247.3 5.8 C 247.4 5.5 247.6 5.2 247.8 4.9 C 248 4.6 248.3 4.4 248.6 4.2 C 248.9 4.1 249.3 4 249.7 4 C 250.1 4 250.4 4.1 250.7 4.2 C 251 4.3 251.2 4.5 251.3 4.7 C 251.4 4.9 251.5 5.2 251.6 5.4 C 251.6 5.7 251.7 5.9 251.7 6.1 C 251.7 6.3 251.7 6.4 251.7 6.5 C 251.6 6.5 251.6 6.6 251.6 6.7 C 251.6 6.7 248.2 6.7 248.2 6.7 C 248.1 6.7 248.1 6.8 248.1 6.8 C 248.1 6.8 248.1 6.8 248.1 6.9 C 248.1 6.9 248.1 7 248.1 7 C 248.1 7.3 248.2 7.6 248.4 7.8 C 248.6 8 248.8 8.1 249.2 8.1 C 249.5 8.1 249.8 8 250 7.9 C 250.2 7.8 250.3 7.6 250.4 7.3 C 250.4 7.3 251.4 7.3 251.4 7.3 Z M 253.3 6.8 C 253.3 7 253.3 7.1 253.4 7.3 C 253.4 7.4 253.5 7.5 253.5 7.6 C 253.6 7.7 253.7 7.8 253.8 7.9 C 254 7.9 254.1 8 254.3 8 C 254.6 8 254.8 7.9 255 7.8 C 255.2 7.6 255.3 7.5 255.5 7.3 C 255.6 7.1 255.7 6.9 255.7 6.6 C 255.8 6.4 255.8 6.1 255.8 5.9 C 255.8 5.6 255.7 5.3 255.6 5.1 C 255.4 4.9 255.1 4.8 254.8 4.8 C 254.5 4.8 254.3 4.9 254.1 5 C 254 5.1 253.8 5.3 253.7 5.5 C 253.6 5.7 253.5 5.9 253.4 6.1 C 253.3 6.4 253.3 6.6 253.3 6.8 Z M 256.3 8.6 C 256.2 9 256.1 9.3 256 9.6 C 255.9 9.8 255.7 10 255.5 10.2 C 255.3 10.3 255.1 10.4 254.9 10.5 C 254.6 10.6 254.3 10.6 253.9 10.6 C 253.7 10.6 253.4 10.6 253.2 10.5 C 252.9 10.5 252.7 10.4 252.5 10.3 C 252.4 10.2 252.2 10 252.1 9.8 C 252 9.6 251.9 9.4 251.9 9.1 C 251.9 9.1 253 9.1 253 9.1 C 253 9.4 253.1 9.6 253.3 9.7 C 253.5 9.8 253.7 9.9 254 9.9 C 254.2 9.9 254.4 9.8 254.6 9.8 C 254.7 9.7 254.9 9.6 255 9.5 C 255.1 9.4 255.1 9.2 255.2 9.1 C 255.2 8.9 255.3 8.7 255.3 8.5 C 255.33 8.55 255.4 8.1 255.4 8.1 C 255.4 8.1 255.41 8.07 255.4 8.1 C 255.1 8.5 254.6 8.8 254.1 8.8 C 253.5 8.8 253.1 8.6 252.8 8.3 C 252.4 7.9 252.3 7.5 252.3 6.9 C 252.3 6.5 252.3 6.2 252.4 5.8 C 252.5 5.5 252.7 5.2 252.9 4.9 C 253.1 4.6 253.4 4.4 253.7 4.2 C 254 4.1 254.3 4 254.7 4 C 255 4 255.3 4.1 255.6 4.2 C 255.8 4.3 256 4.6 256.1 4.9 C 256.13 4.9 256.1 4.9 256.1 4.9 L 256.3 4.1 L 257.3 4.1 C 257.3 4.1 256.27 8.65 256.3 8.6 Z M 261.2 6 C 261.2 6 261.2 6 261.2 6 C 261.2 5.9 261.2 5.9 261.2 5.9 C 261.2 5.9 261.2 5.8 261.2 5.8 C 261.2 5.5 261.1 5.2 260.9 5.1 C 260.7 4.9 260.5 4.8 260.2 4.8 C 259.8 4.8 259.5 4.9 259.3 5.2 C 259 5.4 258.9 5.7 258.8 6 C 258.8 6 261.2 6 261.2 6 Z M 261.9 7.3 C 261.7 7.9 261.5 8.3 261.1 8.5 C 260.7 8.8 260.2 8.9 259.7 8.9 C 259.4 8.9 259.1 8.9 258.9 8.8 C 258.6 8.7 258.4 8.5 258.2 8.4 C 258 8.2 257.9 8 257.8 7.7 C 257.7 7.5 257.6 7.2 257.6 6.9 C 257.6 6.5 257.7 6.2 257.8 5.8 C 257.9 5.5 258.1 5.2 258.3 4.9 C 258.5 4.6 258.8 4.4 259.1 4.2 C 259.4 4.1 259.8 4 260.2 4 C 260.6 4 261 4.1 261.2 4.2 C 261.5 4.3 261.7 4.5 261.8 4.7 C 262 4.9 262.1 5.2 262.1 5.4 C 262.2 5.7 262.2 5.9 262.2 6.1 C 262.2 6.3 262.2 6.4 262.2 6.5 C 262.2 6.5 262.2 6.6 262.1 6.7 C 262.1 6.7 258.7 6.7 258.7 6.7 C 258.7 6.7 258.7 6.8 258.7 6.8 C 258.7 6.8 258.7 6.8 258.7 6.9 C 258.7 6.9 258.7 7 258.7 7 C 258.7 7.3 258.7 7.6 258.9 7.8 C 259.1 8 259.4 8.1 259.8 8.1 C 260 8.1 260.3 8 260.5 7.9 C 260.7 7.8 260.8 7.6 260.9 7.3 C 260.9 7.3 261.9 7.3 261.9 7.3 Z M 263.5 4.1 L 264.5 4.1 L 264.3 4.8 C 264.3 4.8 264.33 4.81 264.3 4.8 C 264.5 4.6 264.7 4.4 265 4.2 C 265.3 4.1 265.6 4 265.9 4 C 266.4 4 266.7 4.1 267 4.3 C 267.2 4.6 267.3 4.9 267.3 5.2 C 267.3 5.3 267.3 5.4 267.3 5.5 C 267.3 5.6 267.3 5.7 267.2 5.8 C 267.24 5.8 266.6 8.8 266.6 8.8 L 265.6 8.8 C 265.6 8.8 266.19 5.9 266.2 5.9 C 266.2 5.8 266.2 5.8 266.2 5.7 C 266.3 5.6 266.3 5.5 266.3 5.5 C 266.3 5.4 266.3 5.4 266.3 5.3 C 266.3 5.2 266.2 5.2 266.2 5.1 C 266.1 5 266.1 4.9 266 4.9 C 265.9 4.8 265.7 4.8 265.6 4.8 C 265.3 4.8 265.2 4.8 265 4.9 C 264.8 5 264.7 5.1 264.6 5.3 C 264.5 5.4 264.4 5.5 264.3 5.7 C 264.2 5.9 264.1 6.1 264.1 6.3 C 264.08 6.25 263.6 8.8 263.6 8.8 L 262.5 8.8 L 263.5 4.1 Z M 272.1 8.8 L 271.1 8.8 L 271.3 8.1 C 271.3 8.1 271.25 8.13 271.2 8.1 C 271 8.4 270.8 8.6 270.6 8.7 C 270.3 8.8 270.1 8.9 269.8 8.9 C 269.7 8.9 269.5 8.9 269.3 8.8 C 269.1 8.8 268.9 8.7 268.7 8.6 C 268.5 8.5 268.3 8.3 268.2 8 C 268.1 7.8 268 7.4 268 7 C 268 6.6 268 6.2 268.2 5.9 C 268.3 5.5 268.4 5.2 268.6 4.9 C 268.9 4.6 269.1 4.4 269.4 4.3 C 269.8 4.1 270.1 4 270.5 4 C 270.8 4 271.1 4.1 271.4 4.2 C 271.6 4.3 271.8 4.5 271.9 4.8 C 271.91 4.76 271.9 4.8 271.9 4.8 L 272.4 2.3 L 273.5 2.3 L 272.1 8.8 Z M 271.7 5.9 C 271.7 5.8 271.6 5.6 271.6 5.5 C 271.6 5.4 271.5 5.2 271.4 5.1 C 271.3 5 271.2 5 271.1 4.9 C 271 4.8 270.8 4.8 270.6 4.8 C 270.3 4.8 270.1 4.9 269.9 5 C 269.7 5.1 269.5 5.3 269.4 5.5 C 269.3 5.7 269.2 6 269.1 6.2 C 269 6.5 269 6.7 269 7 C 269 7.3 269.1 7.6 269.3 7.8 C 269.4 8 269.7 8.1 270.1 8.1 C 270.3 8.1 270.6 8 270.8 7.9 C 271 7.7 271.1 7.6 271.3 7.4 C 271.4 7.1 271.5 6.9 271.6 6.7 C 271.6 6.4 271.7 6.2 271.7 5.9 Z M 276.7 5.5 C 276.7 5.2 276.6 5.1 276.4 5 C 276.2 4.9 276 4.8 275.7 4.8 C 275.6 4.8 275.5 4.8 275.4 4.8 C 275.3 4.9 275.3 4.9 275.2 4.9 C 275.1 5 275.1 5 275 5.1 C 275 5.2 274.9 5.3 274.9 5.4 C 274.9 5.5 275 5.6 275.1 5.7 C 275.1 5.7 275.2 5.8 275.4 5.8 C 275.5 5.9 275.7 5.9 275.8 6 C 276 6 276.1 6.1 276.3 6.1 C 276.4 6.2 276.6 6.2 276.7 6.3 C 276.8 6.4 277 6.5 277.1 6.6 C 277.2 6.6 277.2 6.8 277.3 6.9 C 277.4 7 277.4 7.2 277.4 7.4 C 277.4 7.6 277.3 7.9 277.2 8.1 C 277.1 8.3 276.9 8.4 276.7 8.5 C 276.5 8.7 276.3 8.8 276.1 8.8 C 275.8 8.9 275.6 8.9 275.3 8.9 C 275.1 8.9 274.8 8.9 274.6 8.8 C 274.3 8.8 274.1 8.7 274 8.6 C 273.8 8.4 273.6 8.3 273.5 8.1 C 273.4 7.9 273.4 7.6 273.4 7.3 C 273.4 7.3 274.4 7.3 274.4 7.3 C 274.3 7.6 274.4 7.8 274.6 7.9 C 274.8 8 275.1 8.1 275.4 8.1 C 275.5 8.1 275.6 8.1 275.7 8.1 C 275.8 8 275.9 8 276 8 C 276.1 7.9 276.2 7.8 276.3 7.8 C 276.3 7.7 276.4 7.6 276.4 7.4 C 276.4 7.3 276.3 7.2 276.2 7.1 C 276.1 7.1 276 7 275.9 6.9 C 275.8 6.9 275.6 6.8 275.4 6.8 C 275.3 6.7 275.1 6.7 274.9 6.6 C 274.8 6.6 274.7 6.5 274.5 6.4 C 274.4 6.4 274.3 6.3 274.2 6.2 C 274.1 6.1 274 6 274 5.9 C 273.9 5.7 273.9 5.6 273.9 5.4 C 273.9 5.2 274 4.9 274.1 4.8 C 274.2 4.6 274.3 4.4 274.5 4.3 C 274.7 4.2 274.9 4.1 275.1 4.1 C 275.4 4 275.6 4 275.8 4 C 276.1 4 276.3 4 276.5 4.1 C 276.8 4.1 277 4.2 277.1 4.3 C 277.3 4.4 277.4 4.6 277.5 4.8 C 277.6 5 277.6 5.2 277.6 5.5 C 277.6 5.5 276.7 5.5 276.7 5.5 Z M 278.3 7.6 L 279.6 7.6 L 279.3 8.8 L 278.1 8.8 L 278.3 7.6 Z M 279 4.2 L 280.3 4.2 L 280 5.4 L 278.8 5.4 L 279 4.2 Z M 283.9 2.3 L 285 2.3 L 285.3 7.3 L 285.3 7.3 L 287.5 2.3 L 288.6 2.3 L 288.9 7.3 L 289 7.3 L 291.1 2.3 L 292.2 2.3 L 289.2 8.8 L 288.1 8.8 L 287.8 3.9 L 287.8 3.9 L 285.5 8.8 L 284.4 8.8 L 283.9 2.3 Z M 292.7 2.3 L 293.7 2.3 L 293.6 3.3 L 292.5 3.3 L 292.7 2.3 Z M 292.4 4.1 L 293.4 4.1 L 292.4 8.8 L 291.4 8.8 L 292.4 4.1 Z M 295 2.3 L 296 2.3 L 294.7 8.8 L 293.7 8.8 L 295 2.3 Z M 300.2 8.8 L 299.3 8.8 L 299.4 8.1 C 299.4 8.1 299.38 8.13 299.4 8.1 C 299.2 8.4 299 8.6 298.7 8.7 C 298.5 8.8 298.2 8.9 297.9 8.9 C 297.8 8.9 297.6 8.9 297.4 8.8 C 297.2 8.8 297 8.7 296.8 8.6 C 296.6 8.5 296.5 8.3 296.3 8 C 296.2 7.8 296.1 7.4 296.1 7 C 296.1 6.6 296.2 6.2 296.3 5.9 C 296.4 5.5 296.6 5.2 296.8 4.9 C 297 4.6 297.3 4.4 297.6 4.3 C 297.9 4.1 298.2 4 298.6 4 C 299 4 299.2 4.1 299.5 4.2 C 299.7 4.3 299.9 4.5 300 4.8 C 300.05 4.76 300.1 4.8 300.1 4.8 L 300.6 2.3 L 301.6 2.3 L 300.2 8.8 Z M 299.8 5.9 C 299.8 5.8 299.8 5.6 299.7 5.5 C 299.7 5.4 299.6 5.2 299.6 5.1 C 299.5 5 299.4 5 299.2 4.9 C 299.1 4.8 299 4.8 298.8 4.8 C 298.5 4.8 298.2 4.9 298 5 C 297.8 5.1 297.7 5.3 297.5 5.5 C 297.4 5.7 297.3 6 297.2 6.2 C 297.2 6.5 297.1 6.7 297.1 7 C 297.1 7.3 297.2 7.6 297.4 7.8 C 297.6 8 297.8 8.1 298.2 8.1 C 298.5 8.1 298.7 8 298.9 7.9 C 299.1 7.7 299.3 7.6 299.4 7.4 C 299.5 7.1 299.6 6.9 299.7 6.7 C 299.8 6.4 299.8 6.2 299.8 5.9 Z M 306.1 5.3 C 306.1 5.3 307.73 5.27 307.7 5.3 C 308.2 5.3 308.6 5.2 308.8 5 C 309.1 4.8 309.2 4.5 309.2 4.1 C 309.2 3.9 309.2 3.8 309.1 3.7 C 309.1 3.6 309 3.5 308.9 3.4 C 308.8 3.4 308.6 3.3 308.5 3.3 C 308.4 3.3 308.2 3.3 308.1 3.3 C 308.08 3.27 306.5 3.3 306.5 3.3 L 306.1 5.3 Z M 305.5 2.3 C 305.5 2.3 308.33 2.35 308.3 2.3 C 308.5 2.3 308.6 2.4 308.9 2.4 C 309.1 2.4 309.3 2.5 309.5 2.6 C 309.8 2.7 310 2.9 310.1 3.1 C 310.3 3.3 310.4 3.6 310.4 4 C 310.4 4.5 310.2 4.9 310 5.2 C 309.7 5.5 309.4 5.6 308.9 5.7 C 308.9 5.7 308.9 5.8 308.9 5.8 C 309.2 5.9 309.3 6 309.4 6.2 C 309.5 6.4 309.6 6.6 309.6 6.9 C 309.6 7.1 309.6 7.4 309.5 7.6 C 309.5 7.8 309.5 8 309.5 8.2 C 309.5 8.3 309.5 8.4 309.5 8.5 C 309.5 8.6 309.5 8.7 309.6 8.8 C 309.6 8.8 308.4 8.8 308.4 8.8 C 308.4 8.7 308.4 8.6 308.4 8.5 C 308.4 8.5 308.3 8.4 308.3 8.3 C 308.3 8 308.4 7.8 308.4 7.6 C 308.4 7.3 308.5 7.1 308.5 6.9 C 308.5 6.7 308.4 6.5 308.4 6.4 C 308.3 6.3 308.2 6.3 308.1 6.2 C 308 6.2 307.8 6.2 307.7 6.1 C 307.5 6.1 307.4 6.1 307.2 6.1 C 307.25 6.13 305.9 6.1 305.9 6.1 L 305.4 8.8 L 304.2 8.8 L 305.5 2.3 Z M 311.9 2.3 L 312.9 2.3 L 312.7 3.3 L 311.7 3.3 L 311.9 2.3 Z M 311.5 4.1 L 312.5 4.1 L 311.6 8.8 L 310.5 8.8 L 311.5 4.1 Z M 313.9 4.9 L 313.1 4.9 L 313.3 4.1 C 313.3 4.1 314.03 4.12 314 4.1 C 314.1 3.9 314.1 3.6 314.2 3.4 C 314.3 3.2 314.4 3 314.5 2.8 C 314.6 2.7 314.7 2.6 314.9 2.5 C 315.1 2.4 315.4 2.3 315.7 2.3 C 315.8 2.3 316 2.4 316.1 2.4 C 316.2 2.4 316.3 2.4 316.4 2.4 C 316.4 2.4 316.3 3.2 316.3 3.2 C 316.2 3.2 316 3.2 315.9 3.2 C 315.7 3.2 315.6 3.2 315.5 3.2 C 315.4 3.3 315.3 3.3 315.3 3.4 C 315.2 3.5 315.2 3.6 315.2 3.7 C 315.1 3.9 315.1 4 315.1 4.1 C 315.06 4.12 316 4.1 316 4.1 L 315.8 4.9 L 314.9 4.9 L 314.1 8.8 L 313.1 8.8 L 313.9 4.9 Z M 317.2 2.7 L 318.2 2.7 L 318 4.1 L 318.9 4.1 L 318.7 4.9 L 317.8 4.9 C 317.8 4.9 317.32 7.16 317.3 7.2 C 317.3 7.3 317.3 7.4 317.3 7.5 C 317.2 7.5 317.2 7.6 317.2 7.7 C 317.2 7.8 317.3 7.9 317.3 7.9 C 317.3 8 317.4 8 317.6 8 C 317.7 8 317.8 8 317.9 8 C 317.9 8 318 8 318.1 8 C 318.1 8 318 8.7 318 8.7 C 317.8 8.8 317.7 8.8 317.6 8.8 C 317.4 8.8 317.3 8.8 317.1 8.8 C 316.9 8.8 316.8 8.8 316.7 8.7 C 316.6 8.7 316.5 8.6 316.4 8.6 C 316.3 8.5 316.3 8.4 316.2 8.3 C 316.2 8.2 316.2 8.1 316.2 8 C 316.2 7.9 316.2 7.8 316.2 7.7 C 316.2 7.6 316.3 7.5 316.3 7.4 C 316.27 7.43 316.8 4.9 316.8 4.9 L 316 4.9 L 316.1 4.1 L 317 4.1 L 317.2 2.7 Z " stroke="none" fill="#fff"/>
  </g>
</svg>