<?xml version="1.0" standalone="no"?>
<!DOCTYPE svg PUBLIC "-//W3C//DTD SVG 1.1//EN" "http://www.w3.org/Graphics/SVG/1.1/DTD/svg11.dtd">
<svg xmlns="http://www.w3.org/2000/svg" version="1.1" width="27px" height="24.8px" viewBox="0 -5 27 24.8" style="top:-5px">
  <desc>2</desc>
  <defs/>
  <g id="Polygon14746">
    <path d="M 0.8 11.2 C 0.7 11.2 0.6 11.2 0.6 11 C 0.6 10.9 0.7 10.8 0.9 10.6 C 3 8.8 6 6.5 6 3.3 C 6 0.9 4.7 0.4 3.9 0.4 C 3.3 0.4 2.8 0.6 2.3 1 C 2 1.3 1.7 2 1.7 2.4 C 1.7 2.6 1.6 2.7 1.5 2.7 C 1.4 2.7 1.4 2.6 1.4 2.4 C 1.4 2.3 1.3 1 1.3 0.6 C 1.3 0.5 1.3 0.4 1.5 0.3 C 2 0 2.8 -0.3 4.2 -0.3 C 6.8 -0.3 7.9 1.2 7.9 2.9 C 7.9 5.9 4.7 8.4 2.8 9.9 C 2.7 10 2.7 10 2.8 10 C 2.8 10 3.8 10 3.8 10 C 4.1 10 5.9 10 6.4 9.9 C 7.4 9.8 7.9 9.3 8.1 8.6 C 8.2 8.4 8.2 8.4 8.3 8.4 C 8.4 8.4 8.4 8.5 8.4 8.7 C 8.4 8.9 8.1 10.3 8 10.8 C 7.9 11.2 7.6 11.2 6.7 11.2 C 6.7 11.2 0.8 11.2 0.8 11.2 Z " stroke="none" fill="#000"/>
  </g>
</svg>