<?xml version="1.0" standalone="no"?>
<!DOCTYPE svg PUBLIC "-//W3C//DTD SVG 1.1//EN" "http://www.w3.org/Graphics/SVG/1.1/DTD/svg11.dtd">
<svg xmlns="http://www.w3.org/2000/svg" version="1.1" width="792px" height="59.6px" viewBox="0 -17 792 59.6" style="top:-17px">
  <desc>Pagsilip sa kuwento ng mga lalaking K-pop fan</desc>
  <defs/>
  <g id="Polygon29203">
    <path d="M 25.4 0.6 C 25.4 0.6 37.55 0.61 37.5 0.6 C 40.3 0.6 42.4 1.2 43.8 2.5 C 45.3 3.7 46 5.3 46 7.3 C 46 9.3 45.3 10.9 44 11.9 C 42.2 13.4 39.9 14.1 37.2 14.1 C 37.23 14.09 32.9 14.1 32.9 14.1 C 32.9 14.1 32.86 22.48 32.9 22.5 C 32.9 23 33 23.3 33.2 23.5 C 33.5 23.8 33.9 23.9 34.5 23.9 C 34.45 23.92 37.2 23.9 37.2 23.9 L 37.2 25.2 L 25.4 25.2 L 25.4 23.9 C 25.4 23.9 27.9 23.92 27.9 23.9 C 28.4 23.9 28.8 23.8 29 23.6 C 29.2 23.4 29.3 23.2 29.3 22.8 C 29.3 22.8 29.3 3.3 29.3 3.3 C 29.3 2.8 29.2 2.4 28.9 2.2 C 28.6 2 28.1 1.9 27.3 1.9 C 27.25 1.86 25.4 1.9 25.4 1.9 L 25.4 0.6 Z M 32.9 12.9 C 32.9 12.9 36.19 12.88 36.2 12.9 C 38.3 12.9 39.8 12.4 40.8 11.6 C 41.7 10.7 42.2 9.2 42.2 7.2 C 42.2 5.8 41.9 4.7 41.5 3.9 C 41.1 3.2 40.5 2.6 39.7 2.3 C 38.9 1.9 37.5 1.7 35.7 1.7 C 34.4 1.7 33.7 1.8 33.3 2.1 C 33 2.3 32.9 2.7 32.9 3.3 C 32.86 3.27 32.9 12.9 32.9 12.9 Z M 63 24 C 63.4 24 63.9 23.8 64.4 23.5 C 64.4 23.5 64.9 24.4 64.9 24.4 C 64.1 25.2 63.2 25.6 62.3 25.6 C 61.5 25.6 60.9 25.4 60.4 25 C 59.8 24.6 59.4 23.9 59 22.9 C 58 24 57 24.7 56.2 25.1 C 55.4 25.4 54.5 25.6 53.4 25.6 C 51.8 25.6 50.6 25.3 49.7 24.6 C 48.9 23.9 48.5 23 48.5 22 C 48.5 20.3 49.4 19 51.3 17.9 C 53.2 16.9 55.8 16.2 58.9 15.8 C 58.9 15.8 58.9 13.4 58.9 13.4 C 58.9 12.6 58.6 11.9 57.9 11.3 C 57.2 10.7 56.4 10.4 55.3 10.4 C 54.4 10.4 53.5 10.6 52.8 11 C 52.3 11.3 52.1 11.6 52.1 11.9 C 52.1 12 52.2 12.3 52.5 12.7 C 52.8 13.1 53 13.5 53 13.8 C 53 14.3 52.8 14.7 52.5 15 C 52.2 15.4 51.7 15.5 51.2 15.5 C 50.7 15.5 50.2 15.3 49.8 15 C 49.5 14.6 49.3 14.1 49.3 13.5 C 49.3 12.4 49.9 11.4 51.1 10.5 C 52.4 9.6 54 9.1 56 9.1 C 57.8 9.1 59.2 9.5 60.2 10.3 C 61.2 11.2 61.7 12.1 61.7 13.3 C 61.7 13.3 61.7 21.8 61.7 21.8 C 61.7 22.5 61.8 23.1 62 23.4 C 62.3 23.8 62.6 24 63 24 C 63 24 63 24 63 24 Z M 58.9 16.9 C 56.1 17.3 54.1 17.9 52.9 18.8 C 52.1 19.5 51.6 20.4 51.6 21.6 C 51.6 22.5 51.8 23.1 52.3 23.6 C 52.8 24.1 53.3 24.3 54.1 24.3 C 55.4 24.3 56.5 23.8 57.5 22.9 C 58.4 21.9 58.9 20.6 58.9 19.1 C 58.9 19.1 58.9 16.9 58.9 16.9 Z M 78.7 10.5 C 79.9 9.4 80.9 8.8 81.8 8.8 C 82.4 8.8 82.8 9 83.2 9.3 C 83.5 9.7 83.7 10.1 83.7 10.6 C 83.7 11.1 83.6 11.4 83.4 11.7 C 83.1 11.9 82.8 12.1 82.5 12.1 C 81.8 12.1 81.4 11.7 81.2 10.9 C 81.1 10.6 81 10.4 80.8 10.4 C 80.4 10.4 80 10.7 79.5 11.2 C 80 11.8 80.3 12.4 80.5 12.9 C 80.7 13.3 80.8 13.9 80.8 14.4 C 80.8 15.4 80.5 16.2 80.1 17 C 79.6 17.7 78.8 18.3 77.8 18.9 C 76.7 19.5 75.6 19.8 74.7 19.8 C 74.7 19.8 72.9 19.8 72.9 19.8 C 71.6 19.8 70.7 19.9 70.3 20.2 C 69.9 20.4 69.7 20.8 69.7 21.4 C 69.7 21.8 69.8 22.1 70.2 22.4 C 70.5 22.6 71.2 22.7 72.1 22.7 C 72.1 22.7 76.2 22.6 76.2 22.6 C 78.3 22.6 79.8 23 80.7 23.7 C 81.6 24.4 82.1 25.3 82.1 26.5 C 82.1 27.8 81.5 29 80.5 29.9 C 79.1 31.1 76.9 31.8 74 31.8 C 71.6 31.8 69.9 31.4 68.7 30.5 C 67.8 29.8 67.4 29 67.4 28.2 C 67.4 27.5 67.6 26.9 68.2 26.4 C 68.8 25.8 69.8 25.4 71.2 25.2 C 70.1 24.9 69.2 24.5 68.7 24 C 68.1 23.5 67.9 22.8 67.9 22.1 C 67.9 21.4 68.1 20.8 68.5 20.2 C 69 19.7 69.8 19.3 70.9 18.9 C 69.9 18.4 69.2 17.7 68.7 17 C 68.3 16.3 68 15.4 68 14.5 C 68 13 68.6 11.7 69.8 10.7 C 71 9.7 72.5 9.1 74.4 9.1 C 75.2 9.1 75.9 9.3 76.7 9.5 C 77.4 9.7 78.1 10 78.7 10.5 Z M 74.4 10.2 C 73.4 10.2 72.6 10.6 71.9 11.3 C 71.3 12 71 13 71 14.3 C 71 15.7 71.3 16.8 71.9 17.6 C 72.6 18.4 73.4 18.7 74.4 18.7 C 75.4 18.7 76.2 18.4 76.8 17.6 C 77.5 16.9 77.8 15.8 77.8 14.4 C 77.8 13.1 77.5 12.1 76.8 11.3 C 76.2 10.6 75.4 10.2 74.4 10.2 Z M 75.4 25.2 C 73.3 25.2 71.9 25.5 71 26 C 70.1 26.6 69.7 27.3 69.7 28.1 C 69.7 28.8 70 29.4 70.7 29.8 C 71.5 30.4 72.8 30.7 74.4 30.7 C 76.3 30.7 77.7 30.4 78.7 29.8 C 79.6 29.1 80.1 28.4 80.1 27.7 C 80.1 27.2 80 26.8 79.7 26.4 C 79.4 26 78.9 25.7 78.2 25.5 C 77.6 25.3 76.6 25.2 75.4 25.2 Z M 87 19.3 C 87.6 21.2 88.4 22.5 89.3 23.3 C 90.2 24 91.3 24.4 92.6 24.4 C 93.8 24.4 94.8 24.1 95.4 23.6 C 96.1 23.1 96.4 22.4 96.4 21.6 C 96.4 21.1 96.3 20.7 96 20.4 C 95.8 20 95.4 19.8 95 19.6 C 94.6 19.4 93.5 19.2 91.8 18.8 C 90.1 18.5 88.9 18.2 88.2 17.8 C 87.6 17.4 87 16.9 86.7 16.3 C 86.3 15.6 86.1 14.9 86.1 14.2 C 86.1 13.1 86.5 12 87.3 11.1 C 88.2 9.9 89.6 9.3 91.4 9.3 C 92.8 9.3 94 9.7 95.2 10.6 C 95.16 10.59 96.3 9.4 96.3 9.4 L 96.9 9.4 L 97.4 15 C 97.4 15 96.26 14.97 96.3 15 C 95.8 13.4 95.1 12.3 94.3 11.6 C 93.4 10.9 92.4 10.5 91.2 10.5 C 90.1 10.5 89.3 10.8 88.7 11.3 C 88.1 11.8 87.8 12.5 87.8 13.2 C 87.8 13.9 88.1 14.4 88.7 14.8 C 89.2 15.3 90.3 15.6 91.9 15.9 C 93.7 16.2 94.9 16.4 95.4 16.7 C 96.4 17 97.1 17.5 97.6 18.2 C 98.1 18.9 98.3 19.7 98.3 20.7 C 98.3 22.1 97.8 23.3 96.7 24.2 C 95.6 25.2 94.2 25.6 92.6 25.6 C 91 25.6 89.6 25.1 88.3 24.1 C 88.28 24.11 87.1 25.5 87.1 25.5 L 86.2 25.5 L 85.8 19.3 C 85.8 19.3 86.96 19.31 87 19.3 Z M 104.8 0.3 C 105.3 0.3 105.8 0.5 106.2 0.9 C 106.5 1.3 106.7 1.7 106.7 2.2 C 106.7 2.7 106.5 3.2 106.2 3.5 C 105.8 3.9 105.4 4.1 104.9 4.1 C 104.3 4.1 103.9 3.9 103.5 3.5 C 103.2 3.1 103 2.7 103 2.2 C 103 1.7 103.2 1.3 103.5 0.9 C 103.9 0.5 104.4 0.3 104.8 0.3 Z M 100.5 9.6 L 106.7 9.4 C 106.7 9.4 106.72 22.81 106.7 22.8 C 106.7 23.2 106.8 23.4 107 23.6 C 107.2 23.8 107.6 23.9 107.9 23.9 C 107.95 23.92 109.7 23.9 109.7 23.9 L 109.7 25.2 L 100.9 25.2 L 100.9 23.9 C 100.9 23.9 102.5 23.92 102.5 23.9 C 103 23.9 103.3 23.8 103.6 23.6 C 103.8 23.3 103.9 23 103.9 22.5 C 103.9 22.5 103.9 12.7 103.9 12.7 C 103.9 12.1 103.7 11.6 103.4 11.3 C 103 11 102.5 10.9 101.8 10.9 C 101.8 10.86 100.5 10.9 100.5 10.9 L 100.5 9.6 Z M 117.4 0.3 C 117.4 0.3 117.41 22.88 117.4 22.9 C 117.4 23.2 117.5 23.4 117.7 23.6 C 118 23.8 118.3 23.9 118.7 23.9 C 118.7 23.92 120.3 23.9 120.3 23.9 L 120.3 25.2 L 111.5 25.2 L 111.5 23.9 C 111.5 23.9 113.09 23.92 113.1 23.9 C 113.6 23.9 114 23.8 114.2 23.6 C 114.5 23.3 114.6 23 114.6 22.5 C 114.6 22.5 114.6 3.6 114.6 3.6 C 114.6 3 114.5 2.6 114.2 2.4 C 113.7 2 113.2 1.9 112.6 1.9 C 112.64 1.86 111.3 1.9 111.3 1.9 L 111.3 0.6 L 117.4 0.3 Z M 126.3 0.3 C 126.8 0.3 127.2 0.5 127.6 0.9 C 127.9 1.3 128.1 1.7 128.1 2.2 C 128.1 2.7 128 3.2 127.6 3.5 C 127.2 3.9 126.8 4.1 126.3 4.1 C 125.8 4.1 125.3 3.9 125 3.5 C 124.6 3.1 124.4 2.7 124.4 2.2 C 124.4 1.7 124.6 1.3 125 0.9 C 125.3 0.5 125.8 0.3 126.3 0.3 Z M 121.9 9.6 L 128.1 9.4 C 128.1 9.4 128.13 22.81 128.1 22.8 C 128.1 23.2 128.2 23.4 128.4 23.6 C 128.7 23.8 129 23.9 129.4 23.9 C 129.36 23.92 131.1 23.9 131.1 23.9 L 131.1 25.2 L 122.3 25.2 L 122.3 23.9 C 122.3 23.9 123.92 23.92 123.9 23.9 C 124.4 23.9 124.8 23.8 125 23.6 C 125.2 23.3 125.3 23 125.3 22.5 C 125.3 22.5 125.3 12.7 125.3 12.7 C 125.3 12.1 125.2 11.6 124.8 11.3 C 124.4 11 123.9 10.9 123.2 10.9 C 123.22 10.86 121.9 10.9 121.9 10.9 L 121.9 9.6 Z M 137.9 9.3 C 138.1 10.5 138.3 11.6 138.3 12.7 C 139.1 11.5 139.9 10.6 140.7 10.1 C 141.6 9.6 142.5 9.3 143.5 9.3 C 144.5 9.3 145.5 9.7 146.5 10.3 C 147.5 11 148.3 11.9 148.9 13.2 C 149.5 14.4 149.8 15.9 149.8 17.4 C 149.8 20 149 22 147.5 23.6 C 146.3 25 144.9 25.6 143.1 25.6 C 142.2 25.6 141.3 25.4 140.5 24.9 C 139.7 24.4 139 23.6 138.4 22.7 C 138.4 22.7 138.4 29 138.4 29 C 138.4 29.4 138.5 29.8 138.8 30 C 139.1 30.2 139.5 30.4 140 30.4 C 140.02 30.38 141.2 30.4 141.2 30.4 L 141.2 31.6 L 132.8 31.6 L 132.8 30.4 C 132.8 30.4 133.99 30.38 134 30.4 C 134.5 30.4 134.9 30.3 135.2 30.1 C 135.5 29.9 135.6 29.6 135.6 29.2 C 135.6 29.2 135.6 12.9 135.6 12.9 C 135.6 12.1 135.4 11.6 135 11.2 C 134.7 10.9 133.9 10.8 132.8 10.7 C 132.85 10.72 132.8 9.6 132.8 9.6 C 132.8 9.6 137.88 9.33 137.9 9.3 Z M 142.7 10.8 C 141.5 10.8 140.5 11.4 139.6 12.6 C 138.8 13.7 138.4 15.4 138.4 17.6 C 138.4 19.9 138.8 21.5 139.6 22.6 C 140.4 23.6 141.4 24.2 142.7 24.2 C 143.9 24.2 144.8 23.7 145.4 22.8 C 146.2 21.6 146.6 19.9 146.6 17.5 C 146.6 15.1 146.2 13.4 145.5 12.4 C 144.8 11.4 143.8 10.8 142.7 10.8 Z M 163.8 19.3 C 164.5 21.2 165.3 22.5 166.2 23.3 C 167.1 24 168.1 24.4 169.5 24.4 C 170.7 24.4 171.6 24.1 172.2 23.6 C 172.9 23.1 173.2 22.4 173.2 21.6 C 173.2 21.1 173.1 20.7 172.8 20.4 C 172.6 20 172.3 19.8 171.9 19.6 C 171.4 19.4 170.3 19.2 168.6 18.8 C 166.9 18.5 165.7 18.2 165.1 17.8 C 164.4 17.4 163.9 16.9 163.5 16.3 C 163.1 15.6 162.9 14.9 162.9 14.2 C 162.9 13.1 163.3 12 164.1 11.1 C 165.1 9.9 166.5 9.3 168.2 9.3 C 169.6 9.3 170.8 9.7 172 10.6 C 171.99 10.59 173.1 9.4 173.1 9.4 L 173.8 9.4 L 174.2 15 C 174.2 15 173.09 14.97 173.1 15 C 172.6 13.4 171.9 12.3 171.1 11.6 C 170.3 10.9 169.3 10.5 168 10.5 C 167 10.5 166.2 10.8 165.6 11.3 C 165 11.8 164.7 12.5 164.7 13.2 C 164.7 13.9 164.9 14.4 165.5 14.8 C 166 15.3 167.1 15.6 168.7 15.9 C 170.5 16.2 171.7 16.4 172.3 16.7 C 173.2 17 173.9 17.5 174.4 18.2 C 174.9 18.9 175.1 19.7 175.1 20.7 C 175.1 22.1 174.6 23.3 173.5 24.2 C 172.4 25.2 171.1 25.6 169.4 25.6 C 167.9 25.6 166.4 25.1 165.1 24.1 C 165.11 24.11 163.9 25.5 163.9 25.5 L 163 25.5 L 162.7 19.3 C 162.7 19.3 163.79 19.31 163.8 19.3 Z M 192.7 24 C 193.2 24 193.6 23.8 194.1 23.5 C 194.1 23.5 194.7 24.4 194.7 24.4 C 193.9 25.2 193 25.6 192 25.6 C 191.2 25.6 190.6 25.4 190.1 25 C 189.6 24.6 189.1 23.9 188.7 22.9 C 187.7 24 186.8 24.7 186 25.1 C 185.2 25.4 184.2 25.6 183.1 25.6 C 181.5 25.6 180.3 25.3 179.5 24.6 C 178.6 23.9 178.2 23 178.2 22 C 178.2 20.3 179.2 19 181.1 17.9 C 183 16.9 185.5 16.2 188.6 15.8 C 188.6 15.8 188.6 13.4 188.6 13.4 C 188.6 12.6 188.3 11.9 187.6 11.3 C 187 10.7 186.1 10.4 185.1 10.4 C 184.1 10.4 183.3 10.6 182.6 11 C 182.1 11.3 181.8 11.6 181.8 11.9 C 181.8 12 182 12.3 182.2 12.7 C 182.5 13.1 182.7 13.5 182.7 13.8 C 182.7 14.3 182.5 14.7 182.2 15 C 181.9 15.4 181.5 15.5 181 15.5 C 180.4 15.5 179.9 15.3 179.6 15 C 179.2 14.6 179 14.1 179 13.5 C 179 12.4 179.6 11.4 180.9 10.5 C 182.1 9.6 183.7 9.1 185.7 9.1 C 187.6 9.1 189 9.5 190 10.3 C 190.9 11.2 191.4 12.1 191.4 13.3 C 191.4 13.3 191.4 21.8 191.4 21.8 C 191.4 22.5 191.5 23.1 191.8 23.4 C 192 23.8 192.3 24 192.7 24 C 192.7 24 192.7 24 192.7 24 Z M 188.6 16.9 C 185.8 17.3 183.8 17.9 182.7 18.8 C 181.8 19.5 181.4 20.4 181.4 21.6 C 181.4 22.5 181.6 23.1 182 23.6 C 182.5 24.1 183.1 24.3 183.8 24.3 C 185.1 24.3 186.3 23.8 187.2 22.9 C 188.2 21.9 188.6 20.6 188.6 19.1 C 188.6 19.1 188.6 16.9 188.6 16.9 Z M 205.7 0.6 L 211.7 0.3 L 211.7 17.3 C 211.7 17.3 216.75 12.91 216.7 12.9 C 217.2 12.5 217.5 12.1 217.5 11.8 C 217.5 11.5 217.3 11.3 217 11.1 C 216.6 10.9 215.9 10.8 214.9 10.8 C 214.94 10.77 214.9 9.6 214.9 9.6 L 223.2 9.6 C 223.2 9.6 223.23 10.77 223.2 10.8 C 221.6 10.9 220.3 11.3 219.5 12.1 C 219.48 12.07 215.9 15.2 215.9 15.2 C 215.9 15.2 221.7 23.21 221.7 23.2 C 222.1 23.7 222.7 23.9 223.5 23.9 C 223.54 23.92 224.4 23.9 224.4 23.9 L 224.4 25.2 L 215.9 25.2 L 215.9 23.9 C 215.9 23.9 216.75 23.92 216.8 23.9 C 217.4 23.9 217.8 23.9 218 23.8 C 218.2 23.6 218.3 23.5 218.3 23.4 C 218.3 23.2 218.3 23 218.2 22.9 C 218.18 22.89 213.9 17 213.9 17 L 211.7 19 C 211.7 19 211.69 22.89 211.7 22.9 C 211.7 23.2 211.8 23.5 212 23.6 C 212.3 23.8 212.7 23.9 213.3 23.9 C 213.25 23.92 214.3 23.9 214.3 23.9 L 214.3 25.2 L 206 25.2 L 206 23.9 C 206 23.9 207.32 23.92 207.3 23.9 C 207.9 23.9 208.3 23.8 208.6 23.6 C 208.8 23.3 209 23 209 22.6 C 209 22.6 209 3.5 209 3.5 C 209 3 208.8 2.6 208.5 2.4 C 208 2 207.4 1.9 206.6 1.9 C 206.59 1.86 205.7 1.9 205.7 1.9 L 205.7 0.6 Z M 231.5 9.3 C 231.5 9.3 231.5 19.64 231.5 19.6 C 231.5 20.9 231.8 21.9 232.4 22.6 C 233.1 23.2 233.9 23.6 234.9 23.6 C 236.1 23.6 237.2 23.1 238.1 22.1 C 238.9 21.1 239.4 19.8 239.4 18.3 C 239.4 18.3 239.4 12.5 239.4 12.5 C 239.4 12 239.2 11.6 238.8 11.3 C 238.4 11 237.7 10.8 236.6 10.8 C 236.59 10.77 236.6 9.6 236.6 9.6 L 242.1 9.3 C 242.1 9.3 242.05 22.1 242.1 22.1 C 242.1 22.7 242.2 23.1 242.6 23.4 C 242.9 23.8 243.3 23.9 243.9 23.9 C 243.95 23.92 244.9 23.9 244.9 23.9 L 244.9 25 L 239.7 25.2 C 239.7 25.2 239.36 22.1 239.4 22.1 C 238.4 23.2 237.5 24 236.6 24.6 C 235.6 25.1 234.7 25.4 233.7 25.4 C 232.3 25.4 231.1 24.9 230.2 24 C 229.2 23.1 228.7 21.5 228.7 19.3 C 228.7 19.3 228.7 12.5 228.7 12.5 C 228.7 11.9 228.5 11.4 228 11.1 C 227.7 10.9 227 10.8 226 10.8 C 225.98 10.77 226 9.6 226 9.6 L 231.5 9.3 Z M 246.7 9.6 L 253.5 9.6 L 253.5 10.8 C 253.5 10.8 252.63 10.76 252.6 10.8 C 252.2 10.8 251.9 10.8 251.7 11 C 251.5 11.1 251.4 11.3 251.4 11.5 C 251.4 11.8 251.5 12 251.6 12.3 C 251.57 12.3 255.1 21.1 255.1 21.1 C 255.1 21.1 258.11 12.75 258.1 12.7 C 257.7 11.9 257.3 11.3 257 11.1 C 256.7 10.9 256.1 10.8 255.3 10.8 C 255.3 10.76 255.3 9.6 255.3 9.6 L 262.8 9.6 L 262.8 10.8 C 262.8 10.8 262.18 10.76 262.2 10.8 C 261.6 10.8 261.2 10.8 261 11 C 260.8 11.1 260.7 11.3 260.7 11.6 C 260.7 11.8 260.7 12 260.8 12.3 C 260.82 12.3 264.4 21.1 264.4 21.1 C 264.4 21.1 267.16 13.28 267.2 13.3 C 267.3 12.8 267.4 12.3 267.4 12 C 267.4 11.6 267.3 11.3 267 11.1 C 266.7 10.9 266.2 10.8 265.4 10.8 C 265.38 10.76 265.4 9.6 265.4 9.6 L 271.4 9.6 C 271.4 9.6 271.44 10.76 271.4 10.8 C 270.7 10.9 270.1 11.1 269.7 11.5 C 269.3 11.8 269 12.3 268.7 13.1 C 268.75 13.06 264.2 25.6 264.2 25.6 L 263.3 25.6 L 258.9 14.8 L 255 25.6 L 254 25.6 C 254 25.6 248.43 11.89 248.4 11.9 C 248.3 11.5 248.1 11.2 247.8 11 C 247.6 10.9 247.2 10.8 246.7 10.8 C 246.71 10.76 246.7 9.6 246.7 9.6 Z M 287.4 13.6 C 287.7 14.7 288 15.9 288 17.5 C 288 17.5 276.8 17.5 276.8 17.5 C 276.9 19.9 277.3 21.5 278.2 22.5 C 279.1 23.6 280.3 24.2 281.8 24.2 C 284 24.2 285.7 22.9 287 20.5 C 287 20.5 288.1 20.9 288.1 20.9 C 286.5 24.1 284.2 25.6 281.1 25.6 C 279 25.6 277.3 24.9 275.8 23.4 C 274.4 21.9 273.7 19.9 273.7 17.6 C 273.7 15.1 274.4 13 275.8 11.5 C 277.2 9.9 278.9 9.1 281 9.1 C 282.5 9.1 283.8 9.5 284.9 10.3 C 286 11.1 286.8 12.2 287.4 13.6 C 287.4 13.6 287.4 13.6 287.4 13.6 Z M 276.8 16.3 C 276.8 16.3 283.6 16.3 283.6 16.3 C 284 16.3 284.3 16.2 284.5 15.9 C 284.7 15.6 284.8 15.2 284.8 14.5 C 284.8 13.3 284.5 12.3 283.7 11.4 C 282.9 10.6 282 10.1 281 10.1 C 279.9 10.1 278.9 10.7 278.1 11.7 C 277.3 12.7 276.9 14.3 276.8 16.3 Z M 290.4 9.6 C 290.4 9.6 295.54 9.3 295.5 9.3 C 295.8 10.3 295.9 11.4 296 12.7 C 296.7 11.6 297.5 10.7 298.5 10.2 C 299.4 9.6 300.5 9.3 301.7 9.3 C 302.7 9.3 303.6 9.5 304.3 9.9 C 305 10.3 305.5 11 306 11.9 C 306.4 12.7 306.6 13.7 306.6 14.8 C 306.6 14.8 306.6 22.4 306.6 22.4 C 306.6 22.9 306.7 23.3 307 23.6 C 307.2 23.8 307.6 23.9 308.2 23.9 C 308.24 23.92 309.3 23.9 309.3 23.9 L 309.3 25.2 L 301.1 25.2 L 301.1 23.9 C 301.1 23.9 301.92 23.92 301.9 23.9 C 302.6 23.9 303.2 23.8 303.4 23.6 C 303.7 23.3 303.9 23 303.9 22.5 C 303.9 22.5 303.9 15.9 303.9 15.9 C 303.9 14.4 303.7 13.3 303.2 12.7 C 302.6 11.7 301.7 11.2 300.4 11.2 C 299.1 11.2 298.1 11.7 297.3 12.7 C 296.4 13.7 296 15 296 16.6 C 296 16.6 296 22.4 296 22.4 C 296 22.9 296.1 23.3 296.4 23.6 C 296.7 23.8 297.1 23.9 297.7 23.9 C 297.69 23.92 298.8 23.9 298.8 23.9 L 298.8 25.2 L 290.5 25.2 L 290.5 23.9 C 290.5 23.9 291.61 23.92 291.6 23.9 C 292.2 23.9 292.6 23.8 292.8 23.6 C 293.1 23.4 293.3 23.1 293.3 22.8 C 293.3 22.8 293.3 12.7 293.3 12.7 C 293.3 12.1 293.1 11.5 292.7 11.2 C 292.4 10.9 291.9 10.7 291.2 10.7 C 291.18 10.69 290.4 10.7 290.4 10.7 L 290.4 9.6 Z M 313.7 8.4 C 314.7 7.2 315.2 5.5 315.3 3.3 C 315.25 3.27 316.4 3.3 316.4 3.3 L 316.4 9.6 L 321.4 9.6 L 321.4 11.1 L 316.4 11.1 C 316.4 11.1 316.36 21.12 316.4 21.1 C 316.4 22 316.6 22.6 317 23.1 C 317.4 23.6 317.9 23.8 318.5 23.8 C 319.3 23.8 319.9 23.4 320.5 22.7 C 321 22 321.3 20.9 321.4 19.3 C 321.4 19.3 322.5 19.3 322.5 19.3 C 322.4 21.4 322 22.9 321.1 23.9 C 320.2 24.9 319.1 25.4 317.7 25.4 C 316.4 25.4 315.4 25 314.7 24.3 C 314 23.6 313.6 22.7 313.6 21.6 C 313.59 21.58 313.6 11.1 313.6 11.1 L 310.9 11.1 C 310.9 11.1 310.88 9.98 310.9 10 C 312.1 9.8 313.1 9.3 313.7 8.4 C 313.7 8.4 313.7 8.4 313.7 8.4 Z M 331.7 9.1 C 333.8 9.1 335.6 9.9 337 11.4 C 338.4 12.9 339.1 14.9 339.1 17.4 C 339.1 19.1 338.8 20.5 338.2 21.7 C 337.5 22.9 336.6 23.9 335.4 24.6 C 334.3 25.3 333 25.6 331.6 25.6 C 329.6 25.6 327.9 24.9 326.5 23.3 C 325.1 21.8 324.4 19.8 324.4 17.4 C 324.4 15 325.1 13 326.5 11.4 C 327.9 9.9 329.7 9.1 331.7 9.1 Z M 331.7 10.3 C 330.5 10.3 329.5 10.9 328.7 12 C 327.9 13.1 327.5 14.9 327.5 17.3 C 327.5 19.8 327.9 21.6 328.7 22.7 C 329.4 23.9 330.5 24.5 331.7 24.5 C 333 24.5 334.1 23.9 334.9 22.7 C 335.7 21.6 336.1 19.7 336.1 17.1 C 336.1 14.7 335.7 13 334.9 11.9 C 334.1 10.9 333 10.3 331.7 10.3 Z M 350.8 9.6 C 350.8 9.6 355.99 9.3 356 9.3 C 356.2 10.3 356.4 11.4 356.5 12.7 C 357.2 11.6 358 10.7 358.9 10.2 C 359.9 9.6 360.9 9.3 362.1 9.3 C 363.2 9.3 364 9.5 364.7 9.9 C 365.4 10.3 366 11 366.4 11.9 C 366.8 12.7 367 13.7 367 14.8 C 367 14.8 367 22.4 367 22.4 C 367 22.9 367.2 23.3 367.4 23.6 C 367.7 23.8 368.1 23.9 368.7 23.9 C 368.69 23.92 369.8 23.9 369.8 23.9 L 369.8 25.2 L 361.6 25.2 L 361.6 23.9 C 361.6 23.9 362.37 23.92 362.4 23.9 C 363.1 23.9 363.6 23.8 363.9 23.6 C 364.2 23.3 364.3 23 364.3 22.5 C 364.3 22.5 364.3 15.9 364.3 15.9 C 364.3 14.4 364.1 13.3 363.7 12.7 C 363 11.7 362.1 11.2 360.8 11.2 C 359.6 11.2 358.5 11.7 357.7 12.7 C 356.9 13.7 356.5 15 356.5 16.6 C 356.5 16.6 356.5 22.4 356.5 22.4 C 356.5 22.9 356.6 23.3 356.8 23.6 C 357.1 23.8 357.5 23.9 358.1 23.9 C 358.13 23.92 359.2 23.9 359.2 23.9 L 359.2 25.2 L 351 25.2 L 351 23.9 C 351 23.9 352.06 23.92 352.1 23.9 C 352.6 23.9 353 23.8 353.3 23.6 C 353.6 23.4 353.7 23.1 353.7 22.8 C 353.7 22.8 353.7 12.7 353.7 12.7 C 353.7 12.1 353.5 11.5 353.2 11.2 C 352.8 10.9 352.3 10.7 351.6 10.7 C 351.62 10.69 350.8 10.7 350.8 10.7 L 350.8 9.6 Z M 383.5 10.5 C 384.6 9.4 385.6 8.8 386.6 8.8 C 387.1 8.8 387.6 9 387.9 9.3 C 388.3 9.7 388.5 10.1 388.5 10.6 C 388.5 11.1 388.4 11.4 388.1 11.7 C 387.9 11.9 387.6 12.1 387.3 12.1 C 386.6 12.1 386.2 11.7 386 10.9 C 385.9 10.6 385.7 10.4 385.5 10.4 C 385.1 10.4 384.7 10.7 384.3 11.2 C 384.8 11.8 385.1 12.4 385.3 12.9 C 385.5 13.3 385.5 13.9 385.5 14.4 C 385.5 15.4 385.3 16.2 384.8 17 C 384.4 17.7 383.6 18.3 382.5 18.9 C 381.4 19.5 380.4 19.8 379.4 19.8 C 379.4 19.8 377.6 19.8 377.6 19.8 C 376.3 19.8 375.5 19.9 375.1 20.2 C 374.6 20.4 374.4 20.8 374.4 21.4 C 374.4 21.8 374.6 22.1 374.9 22.4 C 375.3 22.6 375.9 22.7 376.9 22.7 C 376.9 22.7 381 22.6 381 22.6 C 383.1 22.6 384.6 23 385.5 23.7 C 386.4 24.4 386.8 25.3 386.8 26.5 C 386.8 27.8 386.3 29 385.3 29.9 C 383.8 31.1 381.7 31.8 378.8 31.8 C 376.4 31.8 374.6 31.4 373.5 30.5 C 372.6 29.8 372.1 29 372.1 28.2 C 372.1 27.5 372.4 26.9 373 26.4 C 373.6 25.8 374.6 25.4 375.9 25.2 C 374.8 24.9 374 24.5 373.5 24 C 372.9 23.5 372.6 22.8 372.6 22.1 C 372.6 21.4 372.8 20.8 373.3 20.2 C 373.7 19.7 374.5 19.3 375.6 18.9 C 374.7 18.4 374 17.7 373.5 17 C 373 16.3 372.8 15.4 372.8 14.5 C 372.8 13 373.4 11.7 374.6 10.7 C 375.8 9.7 377.3 9.1 379.2 9.1 C 380 9.1 380.7 9.3 381.4 9.5 C 382.1 9.7 382.8 10 383.5 10.5 Z M 379.1 10.2 C 378.2 10.2 377.4 10.6 376.7 11.3 C 376.1 12 375.7 13 375.7 14.3 C 375.7 15.7 376.1 16.8 376.7 17.6 C 377.4 18.4 378.2 18.7 379.2 18.7 C 380.2 18.7 381 18.4 381.6 17.6 C 382.3 16.9 382.6 15.8 382.6 14.4 C 382.6 13.1 382.2 12.1 381.6 11.3 C 381 10.6 380.1 10.2 379.1 10.2 Z M 380.1 25.2 C 378.1 25.2 376.6 25.5 375.8 26 C 374.9 26.6 374.5 27.3 374.5 28.1 C 374.5 28.8 374.8 29.4 375.4 29.8 C 376.3 30.4 377.5 30.7 379.1 30.7 C 381 30.7 382.5 30.4 383.4 29.8 C 384.4 29.1 384.9 28.4 384.9 27.7 C 384.9 27.2 384.7 26.8 384.4 26.4 C 384.1 26 383.7 25.7 383 25.5 C 382.3 25.3 381.4 25.2 380.1 25.2 Z M 400.3 9.6 C 400.3 9.6 404.72 9.33 404.7 9.3 C 405 10.5 405.1 11.6 405.2 12.6 C 406 11.4 406.9 10.6 407.7 10.1 C 408.6 9.6 409.5 9.3 410.5 9.3 C 411.6 9.3 412.5 9.6 413.2 10.2 C 413.9 10.7 414.4 11.7 414.8 12.9 C 415.5 11.7 416.3 10.8 417.2 10.2 C 418.2 9.6 419.1 9.3 420.2 9.3 C 421.6 9.3 422.7 9.8 423.4 10.6 C 424.3 11.7 424.8 13.1 424.8 14.9 C 424.8 14.9 424.8 22.6 424.8 22.6 C 424.8 23.1 424.9 23.4 425.1 23.5 C 425.4 23.8 425.9 23.9 426.5 23.9 C 426.48 23.92 427.3 23.9 427.3 23.9 L 427.3 25.2 L 419.4 25.2 L 419.4 23.9 C 419.4 23.9 420.22 23.92 420.2 23.9 C 420.9 23.9 421.4 23.8 421.6 23.6 C 421.9 23.4 422 23 422 22.6 C 422 22.6 422 14.9 422 14.9 C 422 13.7 421.7 12.8 421.2 12.2 C 420.6 11.6 419.9 11.2 419 11.2 C 418.3 11.2 417.6 11.4 417.1 11.8 C 416.5 12.2 416.1 12.7 415.7 13.4 C 415.3 14.4 415 15.2 415 15.9 C 415 15.9 415 22.6 415 22.6 C 415 23 415.1 23.4 415.4 23.6 C 415.6 23.8 416 23.9 416.5 23.9 C 416.52 23.92 417.6 23.9 417.6 23.9 L 417.6 25.2 L 409.6 25.2 L 409.6 23.9 C 409.6 23.9 410.54 23.92 410.5 23.9 C 411.1 23.9 411.5 23.8 411.8 23.6 C 412.1 23.4 412.2 23.1 412.2 22.7 C 412.2 22.7 412.2 15.6 412.2 15.6 C 412.2 14.1 412 13 411.4 12.3 C 410.9 11.6 410.2 11.2 409.2 11.2 C 408.1 11.2 407.2 11.6 406.5 12.4 C 405.6 13.6 405.2 14.9 405.2 16.4 C 405.2 16.4 405.2 22.6 405.2 22.6 C 405.2 23.1 405.3 23.4 405.5 23.6 C 405.8 23.8 406.3 23.9 406.9 23.9 C 406.91 23.92 407.7 23.9 407.7 23.9 L 407.7 25.2 L 399.9 25.2 L 399.9 23.9 C 399.9 23.9 401.05 23.92 401 23.9 C 401.5 23.9 401.8 23.8 402.1 23.6 C 402.3 23.4 402.4 23.1 402.4 22.7 C 402.4 22.7 402.4 12.6 402.4 12.6 C 402.4 12 402.3 11.6 402 11.3 C 401.7 11 401.1 10.8 400.3 10.8 C 400.27 10.76 400.3 9.6 400.3 9.6 Z M 441.5 10.5 C 442.6 9.4 443.6 8.8 444.5 8.8 C 445.1 8.8 445.5 9 445.9 9.3 C 446.3 9.7 446.4 10.1 446.4 10.6 C 446.4 11.1 446.3 11.4 446.1 11.7 C 445.8 11.9 445.5 12.1 445.2 12.1 C 444.6 12.1 444.1 11.7 443.9 10.9 C 443.8 10.6 443.7 10.4 443.5 10.4 C 443.1 10.4 442.7 10.7 442.2 11.2 C 442.7 11.8 443 12.4 443.2 12.9 C 443.4 13.3 443.5 13.9 443.5 14.4 C 443.5 15.4 443.2 16.2 442.8 17 C 442.3 17.7 441.5 18.3 440.5 18.9 C 439.4 19.5 438.4 19.8 437.4 19.8 C 437.4 19.8 435.6 19.8 435.6 19.8 C 434.3 19.8 433.4 19.9 433 20.2 C 432.6 20.4 432.4 20.8 432.4 21.4 C 432.4 21.8 432.5 22.1 432.9 22.4 C 433.2 22.6 433.9 22.7 434.8 22.7 C 434.8 22.7 438.9 22.6 438.9 22.6 C 441 22.6 442.5 23 443.4 23.7 C 444.3 24.4 444.8 25.3 444.8 26.5 C 444.8 27.8 444.3 29 443.2 29.9 C 441.8 31.1 439.6 31.8 436.7 31.8 C 434.3 31.8 432.6 31.4 431.4 30.5 C 430.5 29.8 430.1 29 430.1 28.2 C 430.1 27.5 430.4 26.9 430.9 26.4 C 431.5 25.8 432.5 25.4 433.9 25.2 C 432.8 24.9 431.9 24.5 431.4 24 C 430.8 23.5 430.6 22.8 430.6 22.1 C 430.6 21.4 430.8 20.8 431.2 20.2 C 431.7 19.7 432.5 19.3 433.6 18.9 C 432.6 18.4 431.9 17.7 431.4 17 C 431 16.3 430.7 15.4 430.7 14.5 C 430.7 13 431.3 11.7 432.5 10.7 C 433.7 9.7 435.2 9.1 437.1 9.1 C 437.9 9.1 438.6 9.3 439.4 9.5 C 440.1 9.7 440.8 10 441.5 10.5 Z M 437.1 10.2 C 436.1 10.2 435.3 10.6 434.6 11.3 C 434 12 433.7 13 433.7 14.3 C 433.7 15.7 434 16.8 434.6 17.6 C 435.3 18.4 436.1 18.7 437.1 18.7 C 438.1 18.7 438.9 18.4 439.6 17.6 C 440.2 16.9 440.5 15.8 440.5 14.4 C 440.5 13.1 440.2 12.1 439.5 11.3 C 438.9 10.6 438.1 10.2 437.1 10.2 Z M 438.1 25.2 C 436 25.2 434.6 25.5 433.7 26 C 432.8 26.6 432.4 27.3 432.4 28.1 C 432.4 28.8 432.7 29.4 433.4 29.8 C 434.3 30.4 435.5 30.7 437.1 30.7 C 439 30.7 440.4 30.4 441.4 29.8 C 442.3 29.1 442.8 28.4 442.8 27.7 C 442.8 27.2 442.7 26.8 442.4 26.4 C 442.1 26 441.6 25.7 440.9 25.5 C 440.3 25.3 439.3 25.2 438.1 25.2 Z M 462.9 24 C 463.3 24 463.8 23.8 464.2 23.5 C 464.2 23.5 464.8 24.4 464.8 24.4 C 464 25.2 463.1 25.6 462.1 25.6 C 461.4 25.6 460.8 25.4 460.2 25 C 459.7 24.6 459.3 23.9 458.9 22.9 C 457.8 24 456.9 24.7 456.1 25.1 C 455.3 25.4 454.4 25.6 453.2 25.6 C 451.6 25.6 450.4 25.3 449.6 24.6 C 448.8 23.9 448.4 23 448.4 22 C 448.4 20.3 449.3 19 451.2 17.9 C 453.1 16.9 455.6 16.2 458.8 15.8 C 458.8 15.8 458.8 13.4 458.8 13.4 C 458.8 12.6 458.4 11.9 457.8 11.3 C 457.1 10.7 456.2 10.4 455.2 10.4 C 454.2 10.4 453.4 10.6 452.7 11 C 452.2 11.3 452 11.6 452 11.9 C 452 12 452.1 12.3 452.4 12.7 C 452.7 13.1 452.8 13.5 452.8 13.8 C 452.8 14.3 452.7 14.7 452.4 15 C 452 15.4 451.6 15.5 451.1 15.5 C 450.5 15.5 450.1 15.3 449.7 15 C 449.3 14.6 449.2 14.1 449.2 13.5 C 449.2 12.4 449.8 11.4 451 10.5 C 452.2 9.6 453.9 9.1 455.9 9.1 C 457.7 9.1 459.1 9.5 460.1 10.3 C 461.1 11.2 461.6 12.1 461.6 13.3 C 461.6 13.3 461.6 21.8 461.6 21.8 C 461.6 22.5 461.7 23.1 461.9 23.4 C 462.2 23.8 462.5 24 462.9 24 C 462.9 24 462.9 24 462.9 24 Z M 458.8 16.9 C 456 17.3 454 17.9 452.8 18.8 C 451.9 19.5 451.5 20.4 451.5 21.6 C 451.5 22.5 451.7 23.1 452.2 23.6 C 452.6 24.1 453.2 24.3 454 24.3 C 455.3 24.3 456.4 23.8 457.4 22.9 C 458.3 21.9 458.8 20.6 458.8 19.1 C 458.8 19.1 458.8 16.9 458.8 16.9 Z M 482 0.3 C 482 0.3 482.03 22.88 482 22.9 C 482 23.2 482.1 23.4 482.3 23.6 C 482.6 23.8 482.9 23.9 483.3 23.9 C 483.32 23.92 485 23.9 485 23.9 L 485 25.2 L 476.2 25.2 L 476.2 23.9 C 476.2 23.9 477.71 23.92 477.7 23.9 C 478.2 23.9 478.6 23.8 478.9 23.6 C 479.1 23.3 479.2 23 479.2 22.5 C 479.2 22.5 479.2 3.6 479.2 3.6 C 479.2 3 479.1 2.6 478.8 2.4 C 478.4 2 477.9 1.9 477.3 1.9 C 477.26 1.86 475.9 1.9 475.9 1.9 L 475.9 0.6 L 482 0.3 Z M 501.9 24 C 502.4 24 502.8 23.8 503.3 23.5 C 503.3 23.5 503.9 24.4 503.9 24.4 C 503.1 25.2 502.2 25.6 501.2 25.6 C 500.5 25.6 499.8 25.4 499.3 25 C 498.8 24.6 498.3 23.9 498 22.9 C 496.9 24 496 24.7 495.2 25.1 C 494.4 25.4 493.4 25.6 492.3 25.6 C 490.7 25.6 489.5 25.3 488.7 24.6 C 487.8 23.9 487.4 23 487.4 22 C 487.4 20.3 488.4 19 490.3 17.9 C 492.2 16.9 494.7 16.2 497.9 15.8 C 497.9 15.8 497.9 13.4 497.9 13.4 C 497.9 12.6 497.5 11.9 496.8 11.3 C 496.2 10.7 495.3 10.4 494.3 10.4 C 493.3 10.4 492.5 10.6 491.8 11 C 491.3 11.3 491 11.6 491 11.9 C 491 12 491.2 12.3 491.4 12.7 C 491.7 13.1 491.9 13.5 491.9 13.8 C 491.9 14.3 491.7 14.7 491.4 15 C 491.1 15.4 490.7 15.5 490.2 15.5 C 489.6 15.5 489.1 15.3 488.8 15 C 488.4 14.6 488.2 14.1 488.2 13.5 C 488.2 12.4 488.8 11.4 490.1 10.5 C 491.3 9.6 492.9 9.1 494.9 9.1 C 496.8 9.1 498.2 9.5 499.2 10.3 C 500.1 11.2 500.6 12.1 500.6 13.3 C 500.6 13.3 500.6 21.8 500.6 21.8 C 500.6 22.5 500.7 23.1 501 23.4 C 501.2 23.8 501.5 24 501.9 24 C 501.9 24 501.9 24 501.9 24 Z M 497.9 16.9 C 495 17.3 493 17.9 491.9 18.8 C 491 19.5 490.6 20.4 490.6 21.6 C 490.6 22.5 490.8 23.1 491.2 23.6 C 491.7 24.1 492.3 24.3 493 24.3 C 494.3 24.3 495.5 23.8 496.4 22.9 C 497.4 21.9 497.9 20.6 497.9 19.1 C 497.9 19.1 497.9 16.9 497.9 16.9 Z M 511.6 0.3 C 511.6 0.3 511.65 22.88 511.6 22.9 C 511.6 23.2 511.7 23.4 511.9 23.6 C 512.2 23.8 512.5 23.9 512.9 23.9 C 512.94 23.92 514.6 23.9 514.6 23.9 L 514.6 25.2 L 505.8 25.2 L 505.8 23.9 C 505.8 23.9 507.33 23.92 507.3 23.9 C 507.8 23.9 508.2 23.8 508.5 23.6 C 508.7 23.3 508.8 23 508.8 22.5 C 508.8 22.5 508.8 3.6 508.8 3.6 C 508.8 3 508.7 2.6 508.4 2.4 C 508 2 507.5 1.9 506.9 1.9 C 506.88 1.86 505.5 1.9 505.5 1.9 L 505.5 0.6 L 511.6 0.3 Z M 531.6 24 C 532 24 532.4 23.8 532.9 23.5 C 532.9 23.5 533.5 24.4 533.5 24.4 C 532.7 25.2 531.8 25.6 530.8 25.6 C 530.1 25.6 529.4 25.4 528.9 25 C 528.4 24.6 528 23.9 527.6 22.9 C 526.5 24 525.6 24.7 524.8 25.1 C 524 25.4 523 25.6 521.9 25.6 C 520.3 25.6 519.1 25.3 518.3 24.6 C 517.5 23.9 517 23 517 22 C 517 20.3 518 19 519.9 17.9 C 521.8 16.9 524.3 16.2 527.5 15.8 C 527.5 15.8 527.5 13.4 527.5 13.4 C 527.5 12.6 527.1 11.9 526.5 11.3 C 525.8 10.7 524.9 10.4 523.9 10.4 C 522.9 10.4 522.1 10.6 521.4 11 C 520.9 11.3 520.6 11.6 520.6 11.9 C 520.6 12 520.8 12.3 521 12.7 C 521.4 13.1 521.5 13.5 521.5 13.8 C 521.5 14.3 521.4 14.7 521 15 C 520.7 15.4 520.3 15.5 519.8 15.5 C 519.2 15.5 518.8 15.3 518.4 15 C 518 14.6 517.8 14.1 517.8 13.5 C 517.8 12.4 518.5 11.4 519.7 10.5 C 520.9 9.6 522.5 9.1 524.5 9.1 C 526.4 9.1 527.8 9.5 528.8 10.3 C 529.8 11.2 530.2 12.1 530.2 13.3 C 530.2 13.3 530.2 21.8 530.2 21.8 C 530.2 22.5 530.4 23.1 530.6 23.4 C 530.8 23.8 531.2 24 531.6 24 C 531.6 24 531.6 24 531.6 24 Z M 527.5 16.9 C 524.7 17.3 522.7 17.9 521.5 18.8 C 520.6 19.5 520.2 20.4 520.2 21.6 C 520.2 22.5 520.4 23.1 520.9 23.6 C 521.3 24.1 521.9 24.3 522.6 24.3 C 523.9 24.3 525.1 23.8 526 22.9 C 527 21.9 527.5 20.6 527.5 19.1 C 527.5 19.1 527.5 16.9 527.5 16.9 Z M 535.1 0.6 L 541.1 0.3 L 541.1 17.3 C 541.1 17.3 546.12 12.91 546.1 12.9 C 546.6 12.5 546.9 12.1 546.9 11.8 C 546.9 11.5 546.7 11.3 546.4 11.1 C 546 10.9 545.3 10.8 544.3 10.8 C 544.32 10.77 544.3 9.6 544.3 9.6 L 552.6 9.6 C 552.6 9.6 552.6 10.77 552.6 10.8 C 551 10.9 549.7 11.3 548.9 12.1 C 548.85 12.07 545.3 15.2 545.3 15.2 C 545.3 15.2 551.08 23.21 551.1 23.2 C 551.4 23.7 552 23.9 552.9 23.9 C 552.92 23.92 553.8 23.9 553.8 23.9 L 553.8 25.2 L 545.3 25.2 L 545.3 23.9 C 545.3 23.9 546.13 23.92 546.1 23.9 C 546.8 23.9 547.2 23.9 547.4 23.8 C 547.6 23.6 547.7 23.5 547.7 23.4 C 547.7 23.2 547.7 23 547.6 22.9 C 547.55 22.89 543.3 17 543.3 17 L 541.1 19 C 541.1 19 541.06 22.89 541.1 22.9 C 541.1 23.2 541.2 23.5 541.4 23.6 C 541.7 23.8 542.1 23.9 542.6 23.9 C 542.63 23.92 543.7 23.9 543.7 23.9 L 543.7 25.2 L 535.4 25.2 L 535.4 23.9 C 535.4 23.9 536.7 23.92 536.7 23.9 C 537.3 23.9 537.7 23.8 537.9 23.6 C 538.2 23.3 538.3 23 538.3 22.6 C 538.3 22.6 538.3 3.5 538.3 3.5 C 538.3 3 538.2 2.6 537.8 2.4 C 537.4 2 536.8 1.9 536 1.9 C 535.97 1.86 535.1 1.9 535.1 1.9 L 535.1 0.6 Z M 559.6 0.3 C 560.1 0.3 560.5 0.5 560.9 0.9 C 561.2 1.3 561.4 1.7 561.4 2.2 C 561.4 2.7 561.3 3.2 560.9 3.5 C 560.5 3.9 560.1 4.1 559.6 4.1 C 559.1 4.1 558.6 3.9 558.3 3.5 C 557.9 3.1 557.7 2.7 557.7 2.2 C 557.7 1.7 557.9 1.3 558.3 0.9 C 558.6 0.5 559.1 0.3 559.6 0.3 Z M 555.2 9.6 L 561.4 9.4 C 561.4 9.4 561.43 22.81 561.4 22.8 C 561.4 23.2 561.5 23.4 561.7 23.6 C 562 23.8 562.3 23.9 562.7 23.9 C 562.66 23.92 564.4 23.9 564.4 23.9 L 564.4 25.2 L 555.6 25.2 L 555.6 23.9 C 555.6 23.9 557.22 23.92 557.2 23.9 C 557.7 23.9 558.1 23.8 558.3 23.6 C 558.5 23.3 558.6 23 558.6 22.5 C 558.6 22.5 558.6 12.7 558.6 12.7 C 558.6 12.1 558.5 11.6 558.1 11.3 C 557.7 11 557.2 10.9 556.5 10.9 C 556.52 10.86 555.2 10.9 555.2 10.9 L 555.2 9.6 Z M 566.2 9.6 C 566.2 9.6 571.41 9.3 571.4 9.3 C 571.6 10.3 571.8 11.4 571.9 12.7 C 572.6 11.6 573.4 10.7 574.3 10.2 C 575.3 9.6 576.4 9.3 577.6 9.3 C 578.6 9.3 579.4 9.5 580.1 9.9 C 580.8 10.3 581.4 11 581.8 11.9 C 582.2 12.7 582.5 13.7 582.5 14.8 C 582.5 14.8 582.5 22.4 582.5 22.4 C 582.5 22.9 582.6 23.3 582.8 23.6 C 583.1 23.8 583.5 23.9 584.1 23.9 C 584.11 23.92 585.2 23.9 585.2 23.9 L 585.2 25.2 L 577 25.2 L 577 23.9 C 577 23.9 577.79 23.92 577.8 23.9 C 578.5 23.9 579 23.8 579.3 23.6 C 579.6 23.3 579.7 23 579.7 22.5 C 579.7 22.5 579.7 15.9 579.7 15.9 C 579.7 14.4 579.5 13.3 579.1 12.7 C 578.5 11.7 577.5 11.2 576.3 11.2 C 575 11.2 574 11.7 573.1 12.7 C 572.3 13.7 571.9 15 571.9 16.6 C 571.9 16.6 571.9 22.4 571.9 22.4 C 571.9 22.9 572 23.3 572.3 23.6 C 572.5 23.8 573 23.9 573.6 23.9 C 573.55 23.92 574.6 23.9 574.6 23.9 L 574.6 25.2 L 566.4 25.2 L 566.4 23.9 C 566.4 23.9 567.48 23.92 567.5 23.9 C 568 23.9 568.4 23.8 568.7 23.6 C 569 23.4 569.1 23.1 569.1 22.8 C 569.1 22.8 569.1 12.7 569.1 12.7 C 569.1 12.1 569 11.5 568.6 11.2 C 568.2 10.9 567.7 10.7 567 10.7 C 567.05 10.69 566.2 10.7 566.2 10.7 L 566.2 9.6 Z M 598.9 10.5 C 600 9.4 601.1 8.8 602 8.8 C 602.5 8.8 603 9 603.4 9.3 C 603.7 9.7 603.9 10.1 603.9 10.6 C 603.9 11.1 603.8 11.4 603.5 11.7 C 603.3 11.9 603 12.1 602.7 12.1 C 602 12.1 601.6 11.7 601.4 10.9 C 601.3 10.6 601.2 10.4 600.9 10.4 C 600.6 10.4 600.2 10.7 599.7 11.2 C 600.2 11.8 600.5 12.4 600.7 12.9 C 600.9 13.3 601 13.9 601 14.4 C 601 15.4 600.7 16.2 600.3 17 C 599.8 17.7 599 18.3 597.9 18.9 C 596.9 19.5 595.8 19.8 594.9 19.8 C 594.9 19.8 593 19.8 593 19.8 C 591.8 19.8 590.9 19.9 590.5 20.2 C 590.1 20.4 589.9 20.8 589.9 21.4 C 589.9 21.8 590 22.1 590.4 22.4 C 590.7 22.6 591.4 22.7 592.3 22.7 C 592.3 22.7 596.4 22.6 596.4 22.6 C 598.5 22.6 600 23 600.9 23.7 C 601.8 24.4 602.3 25.3 602.3 26.5 C 602.3 27.8 601.7 29 600.7 29.9 C 599.2 31.1 597.1 31.8 594.2 31.8 C 591.8 31.8 590.1 31.4 588.9 30.5 C 588 29.8 587.5 29 587.5 28.2 C 587.5 27.5 587.8 26.9 588.4 26.4 C 589 25.8 590 25.4 591.4 25.2 C 590.3 24.9 589.4 24.5 588.9 24 C 588.3 23.5 588 22.8 588 22.1 C 588 21.4 588.3 20.8 588.7 20.2 C 589.2 19.7 589.9 19.3 591.1 18.9 C 590.1 18.4 589.4 17.7 588.9 17 C 588.5 16.3 588.2 15.4 588.2 14.5 C 588.2 13 588.8 11.7 590 10.7 C 591.2 9.7 592.7 9.1 594.6 9.1 C 595.4 9.1 596.1 9.3 596.8 9.5 C 597.6 9.7 598.3 10 598.9 10.5 Z M 594.6 10.2 C 593.6 10.2 592.8 10.6 592.1 11.3 C 591.5 12 591.2 13 591.2 14.3 C 591.2 15.7 591.5 16.8 592.1 17.6 C 592.8 18.4 593.6 18.7 594.6 18.7 C 595.6 18.7 596.4 18.4 597 17.6 C 597.7 16.9 598 15.8 598 14.4 C 598 13.1 597.7 12.1 597 11.3 C 596.4 10.6 595.6 10.2 594.6 10.2 Z M 595.6 25.2 C 593.5 25.2 592.1 25.5 591.2 26 C 590.3 26.6 589.9 27.3 589.9 28.1 C 589.9 28.8 590.2 29.4 590.9 29.8 C 591.7 30.4 593 30.7 594.6 30.7 C 596.5 30.7 597.9 30.4 598.9 29.8 C 599.8 29.1 600.3 28.4 600.3 27.7 C 600.3 27.2 600.1 26.8 599.9 26.4 C 599.6 26 599.1 25.7 598.4 25.5 C 597.8 25.3 596.8 25.2 595.6 25.2 Z M 615 0.6 L 626.2 0.6 L 626.2 1.9 C 626.2 1.9 623.82 1.86 623.8 1.9 C 623.3 1.9 622.9 2 622.6 2.3 C 622.4 2.5 622.2 2.9 622.2 3.3 C 622.23 3.27 622.2 14.7 622.2 14.7 C 622.2 14.7 631.48 4.8 631.5 4.8 C 632 4.2 632.3 3.7 632.3 3.2 C 632.3 2.8 632.1 2.5 631.7 2.2 C 631.4 2 630.8 1.9 629.9 1.9 C 629.93 1.86 629.3 1.9 629.3 1.9 L 629.3 0.6 L 639.3 0.6 L 639.3 1.9 C 639.3 1.9 638.55 1.86 638.5 1.9 C 637.9 1.9 637.1 2.1 636.3 2.5 C 635.5 2.9 634.8 3.4 634.1 4.1 C 634.08 4.12 628.4 10.1 628.4 10.1 C 628.4 10.1 636.54 22.06 636.5 22.1 C 637 22.7 637.5 23.2 638 23.5 C 638.4 23.8 639 23.9 639.7 23.9 C 639.68 23.92 640.6 23.9 640.6 23.9 L 640.6 25.2 L 629.5 25.2 L 629.5 23.9 C 629.5 23.9 630.76 23.92 630.8 23.9 C 631.7 23.9 632.3 23.8 632.6 23.7 C 632.9 23.5 633.1 23.3 633.1 23.1 C 633.1 22.9 633 22.7 632.9 22.5 C 632.85 22.48 626.1 12.5 626.1 12.5 L 622.2 16.7 C 622.2 16.7 622.23 22.69 622.2 22.7 C 622.2 23.1 622.3 23.3 622.6 23.5 C 622.9 23.8 623.3 23.9 623.8 23.9 C 623.82 23.92 626.2 23.9 626.2 23.9 L 626.2 25.2 L 615 25.2 L 615 23.9 C 615 23.9 617.15 23.92 617.1 23.9 C 617.7 23.9 618.1 23.8 618.4 23.6 C 618.6 23.4 618.8 23.1 618.8 22.7 C 618.8 22.7 618.8 3.1 618.8 3.1 C 618.8 2.7 618.6 2.4 618.3 2.2 C 618 2 617.5 1.9 616.8 1.9 C 616.82 1.86 615 1.9 615 1.9 L 615 0.6 Z M 642.3 10.8 L 649.1 10.8 L 649.1 13.3 L 642.3 13.3 L 642.3 10.8 Z M 657.4 9.3 C 657.7 10.5 657.8 11.6 657.9 12.7 C 658.6 11.5 659.4 10.6 660.3 10.1 C 661.1 9.6 662 9.3 663 9.3 C 664.1 9.3 665.1 9.7 666.1 10.3 C 667 11 667.8 11.9 668.4 13.2 C 669 14.4 669.3 15.9 669.3 17.4 C 669.3 20 668.6 22 667.1 23.6 C 665.9 25 664.4 25.6 662.7 25.6 C 661.7 25.6 660.8 25.4 660.1 24.9 C 659.3 24.4 658.6 23.6 658 22.7 C 658 22.7 658 29 658 29 C 658 29.4 658.1 29.8 658.3 30 C 658.6 30.2 659 30.4 659.6 30.4 C 659.57 30.38 660.7 30.4 660.7 30.4 L 660.7 31.6 L 652.4 31.6 L 652.4 30.4 C 652.4 30.4 653.54 30.38 653.5 30.4 C 654.1 30.4 654.5 30.3 654.7 30.1 C 655 29.9 655.1 29.6 655.1 29.2 C 655.1 29.2 655.1 12.9 655.1 12.9 C 655.1 12.1 655 11.6 654.6 11.2 C 654.2 10.9 653.5 10.8 652.4 10.7 C 652.39 10.72 652.4 9.6 652.4 9.6 C 652.4 9.6 657.42 9.33 657.4 9.3 Z M 662.2 10.8 C 661 10.8 660 11.4 659.2 12.6 C 658.4 13.7 657.9 15.4 657.9 17.6 C 657.9 19.9 658.3 21.5 659.1 22.6 C 660 23.6 661 24.2 662.2 24.2 C 663.4 24.2 664.3 23.7 664.9 22.8 C 665.7 21.6 666.1 19.9 666.1 17.5 C 666.1 15.1 665.8 13.4 665 12.4 C 664.3 11.4 663.4 10.8 662.2 10.8 Z M 679.4 9.1 C 681.4 9.1 683.2 9.9 684.6 11.4 C 686 12.9 686.8 14.9 686.8 17.4 C 686.8 19.1 686.4 20.5 685.8 21.7 C 685.2 22.9 684.3 23.9 683.1 24.6 C 681.9 25.3 680.6 25.6 679.3 25.6 C 677.3 25.6 675.6 24.9 674.2 23.3 C 672.8 21.8 672.1 19.8 672.1 17.4 C 672.1 15 672.8 13 674.2 11.4 C 675.6 9.9 677.3 9.1 679.4 9.1 Z M 679.4 10.3 C 678.1 10.3 677.1 10.9 676.3 12 C 675.5 13.1 675.1 14.9 675.1 17.3 C 675.1 19.8 675.5 21.6 676.3 22.7 C 677.1 23.9 678.1 24.5 679.4 24.5 C 680.7 24.5 681.7 23.9 682.5 22.7 C 683.3 21.6 683.7 19.7 683.7 17.1 C 683.7 14.7 683.3 13 682.5 11.9 C 681.7 10.9 680.7 10.3 679.4 10.3 Z M 693.9 9.3 C 694.2 10.5 694.3 11.6 694.4 12.7 C 695.1 11.5 695.9 10.6 696.8 10.1 C 697.6 9.6 698.5 9.3 699.5 9.3 C 700.6 9.3 701.6 9.7 702.6 10.3 C 703.5 11 704.3 11.9 704.9 13.2 C 705.5 14.4 705.8 15.9 705.8 17.4 C 705.8 20 705.1 22 703.6 23.6 C 702.4 25 700.9 25.6 699.2 25.6 C 698.2 25.6 697.4 25.4 696.6 24.9 C 695.8 24.4 695.1 23.6 694.5 22.7 C 694.5 22.7 694.5 29 694.5 29 C 694.5 29.4 694.6 29.8 694.8 30 C 695.1 30.2 695.6 30.4 696.1 30.4 C 696.09 30.38 697.2 30.4 697.2 30.4 L 697.2 31.6 L 688.9 31.6 L 688.9 30.4 C 688.9 30.4 690.06 30.38 690.1 30.4 C 690.6 30.4 691 30.3 691.3 30.1 C 691.5 29.9 691.7 29.6 691.7 29.2 C 691.7 29.2 691.7 12.9 691.7 12.9 C 691.7 12.1 691.5 11.6 691.1 11.2 C 690.7 10.9 690 10.8 688.9 10.7 C 688.92 10.72 688.9 9.6 688.9 9.6 C 688.9 9.6 693.95 9.33 693.9 9.3 Z M 698.8 10.8 C 697.6 10.8 696.5 11.4 695.7 12.6 C 694.9 13.7 694.5 15.4 694.5 17.6 C 694.5 19.9 694.9 21.5 695.7 22.6 C 696.5 23.6 697.5 24.2 698.8 24.2 C 699.9 24.2 700.8 23.7 701.5 22.8 C 702.3 21.6 702.7 19.9 702.7 17.5 C 702.7 15.1 702.3 13.4 701.6 12.4 C 700.8 11.4 699.9 10.8 698.8 10.8 Z M 723.3 9.6 L 727.2 9.6 L 727.2 11.1 L 723.3 11.1 C 723.3 11.1 723.3 22.41 723.3 22.4 C 723.3 22.9 723.4 23.3 723.7 23.5 C 724 23.8 724.5 23.9 725.1 23.9 C 725.06 23.92 727.2 23.9 727.2 23.9 L 727.2 25.2 L 717.7 25.2 L 717.7 23.9 C 717.7 23.9 718.97 23.92 719 23.9 C 719.6 23.9 720 23.8 720.2 23.6 C 720.4 23.4 720.5 23.1 720.5 22.7 C 720.54 22.69 720.5 11.1 720.5 11.1 L 717.9 11.1 L 717.9 9.6 L 720.5 9.6 C 720.5 9.6 720.54 8.43 720.5 8.4 C 720.5 5.7 721.1 3.6 722.3 2.2 C 723.4 0.7 724.8 0 726.5 0 C 727.7 0 728.7 0.3 729.4 0.9 C 730.1 1.5 730.5 2.3 730.5 3.3 C 730.5 3.9 730.3 4.5 729.9 4.8 C 729.6 5.2 729.2 5.4 728.7 5.4 C 728.2 5.4 727.8 5.2 727.5 4.9 C 727.2 4.6 727.1 4.3 727.1 3.8 C 727.1 3.3 727.3 2.9 727.6 2.5 C 728 2.3 728.1 2.1 728.1 1.9 C 728.1 1.7 728 1.6 727.8 1.4 C 727.5 1.3 727.1 1.2 726.6 1.2 C 725.7 1.2 724.9 1.6 724.3 2.4 C 723.6 3.3 723.3 4.5 723.3 6.2 C 723.3 6.16 723.3 9.6 723.3 9.6 Z M 744.4 24 C 744.8 24 745.3 23.8 745.7 23.5 C 745.7 23.5 746.3 24.4 746.3 24.4 C 745.5 25.2 744.6 25.6 743.7 25.6 C 742.9 25.6 742.3 25.4 741.8 25 C 741.2 24.6 740.8 23.9 740.4 22.9 C 739.3 24 738.4 24.7 737.6 25.1 C 736.8 25.4 735.9 25.6 734.8 25.6 C 733.2 25.6 731.9 25.3 731.1 24.6 C 730.3 23.9 729.9 23 729.9 22 C 729.9 20.3 730.8 19 732.7 17.9 C 734.6 16.9 737.1 16.2 740.3 15.8 C 740.3 15.8 740.3 13.4 740.3 13.4 C 740.3 12.6 740 11.9 739.3 11.3 C 738.6 10.7 737.8 10.4 736.7 10.4 C 735.8 10.4 734.9 10.6 734.2 11 C 733.7 11.3 733.5 11.6 733.5 11.9 C 733.5 12 733.6 12.3 733.9 12.7 C 734.2 13.1 734.4 13.5 734.4 13.8 C 734.4 14.3 734.2 14.7 733.9 15 C 733.6 15.4 733.1 15.5 732.6 15.5 C 732.1 15.5 731.6 15.3 731.2 15 C 730.9 14.6 730.7 14.1 730.7 13.5 C 730.7 12.4 731.3 11.4 732.5 10.5 C 733.8 9.6 735.4 9.1 737.4 9.1 C 739.2 9.1 740.6 9.5 741.6 10.3 C 742.6 11.2 743.1 12.1 743.1 13.3 C 743.1 13.3 743.1 21.8 743.1 21.8 C 743.1 22.5 743.2 23.1 743.4 23.4 C 743.7 23.8 744 24 744.4 24 C 744.4 24 744.4 24 744.4 24 Z M 740.3 16.9 C 737.5 17.3 735.5 17.9 734.3 18.8 C 733.4 19.5 733 20.4 733 21.6 C 733 22.5 733.2 23.1 733.7 23.6 C 734.1 24.1 734.7 24.3 735.5 24.3 C 736.8 24.3 737.9 23.8 738.9 22.9 C 739.8 21.9 740.3 20.6 740.3 19.1 C 740.3 19.1 740.3 16.9 740.3 16.9 Z M 748.2 9.6 C 748.2 9.6 753.38 9.3 753.4 9.3 C 753.6 10.3 753.7 11.4 753.8 12.7 C 754.5 11.6 755.4 10.7 756.3 10.2 C 757.3 9.6 758.3 9.3 759.5 9.3 C 760.6 9.3 761.4 9.5 762.1 9.9 C 762.8 10.3 763.4 11 763.8 11.9 C 764.2 12.7 764.4 13.7 764.4 14.8 C 764.4 14.8 764.4 22.4 764.4 22.4 C 764.4 22.9 764.5 23.3 764.8 23.6 C 765.1 23.8 765.5 23.9 766.1 23.9 C 766.08 23.92 767.2 23.9 767.2 23.9 L 767.2 25.2 L 759 25.2 L 759 23.9 C 759 23.9 759.76 23.92 759.8 23.9 C 760.5 23.9 761 23.8 761.3 23.6 C 761.6 23.3 761.7 23 761.7 22.5 C 761.7 22.5 761.7 15.9 761.7 15.9 C 761.7 14.4 761.5 13.3 761.1 12.7 C 760.4 11.7 759.5 11.2 758.2 11.2 C 757 11.2 755.9 11.7 755.1 12.7 C 754.3 13.7 753.8 15 753.8 16.6 C 753.8 16.6 753.8 22.4 753.8 22.4 C 753.8 22.9 754 23.3 754.2 23.6 C 754.5 23.8 754.9 23.9 755.5 23.9 C 755.52 23.92 756.6 23.9 756.6 23.9 L 756.6 25.2 L 748.4 25.2 L 748.4 23.9 C 748.4 23.9 749.45 23.92 749.4 23.9 C 750 23.9 750.4 23.8 750.7 23.6 C 751 23.4 751.1 23.1 751.1 22.8 C 751.1 22.8 751.1 12.7 751.1 12.7 C 751.1 12.1 750.9 11.5 750.6 11.2 C 750.2 10.9 749.7 10.7 749 10.7 C 749.02 10.69 748.2 10.7 748.2 10.7 L 748.2 9.6 Z " stroke="none" fill="#000"/>
  </g>
</svg>