<?xml version="1.0" standalone="no"?>
<!DOCTYPE svg PUBLIC "-//W3C//DTD SVG 1.1//EN" "http://www.w3.org/Graphics/SVG/1.1/DTD/svg11.dtd">
<svg xmlns="http://www.w3.org/2000/svg" version="1.1" width="310px" height="18px" viewBox="0 -1 310 18" style="top:-1px">
  <desc>Lupong Patnugutan</desc>
  <defs/>
  <g id="Polygon17667">
    <path d="M 100.1 2.3 L 100.1 8.8 L 104.7 8.8 L 104.7 7.6 L 101.5 7.6 L 101.5 2.3 L 100.1 2.3 Z M 111.5 6.3 C 111.48 6.34 111.5 2.3 111.5 2.3 L 110.1 2.3 C 110.1 2.3 110.07 6.34 110.1 6.3 C 110.1 6.8 110 7.2 109.8 7.4 C 109.6 7.6 109.2 7.7 108.7 7.7 C 108.4 7.7 108.2 7.7 108 7.6 C 107.9 7.5 107.7 7.4 107.6 7.3 C 107.5 7.2 107.5 7 107.5 6.9 C 107.4 6.7 107.4 6.5 107.4 6.3 C 107.41 6.34 107.4 2.3 107.4 2.3 L 106 2.3 C 106 2.3 106 6.34 106 6.3 C 106 7.2 106.2 7.9 106.7 8.3 C 107.2 8.7 107.9 8.9 108.7 8.9 C 109.6 8.9 110.3 8.7 110.8 8.3 C 111.2 7.9 111.5 7.2 111.5 6.3 Z M 114.7 5.4 L 114.7 3.4 C 114.7 3.4 115.78 3.45 115.8 3.4 C 115.9 3.4 116.1 3.5 116.2 3.5 C 116.4 3.5 116.5 3.6 116.6 3.6 C 116.8 3.7 116.9 3.8 116.9 3.9 C 117 4 117 4.2 117 4.4 C 117 4.6 117 4.8 116.9 4.9 C 116.9 5 116.8 5.1 116.6 5.2 C 116.5 5.3 116.4 5.3 116.2 5.3 C 116.1 5.4 115.9 5.4 115.8 5.4 C 115.78 5.37 114.7 5.4 114.7 5.4 Z M 113.3 2.3 L 113.3 8.8 L 114.7 8.8 L 114.7 6.5 C 114.7 6.5 116.17 6.47 116.2 6.5 C 116.6 6.5 116.9 6.4 117.2 6.3 C 117.5 6.2 117.7 6 117.9 5.8 C 118.1 5.6 118.2 5.4 118.3 5.2 C 118.4 4.9 118.4 4.7 118.4 4.4 C 118.4 4.1 118.4 3.9 118.3 3.6 C 118.2 3.4 118.1 3.2 117.9 3 C 117.7 2.8 117.5 2.6 117.2 2.5 C 116.9 2.4 116.6 2.3 116.2 2.3 C 116.17 2.35 113.3 2.3 113.3 2.3 Z M 121 5.6 C 121 5.3 121 5 121.1 4.8 C 121.1 4.5 121.2 4.3 121.4 4.1 C 121.5 3.9 121.7 3.7 121.9 3.6 C 122.1 3.4 122.4 3.4 122.7 3.4 C 123 3.4 123.3 3.4 123.5 3.6 C 123.8 3.7 123.9 3.9 124.1 4.1 C 124.2 4.3 124.3 4.5 124.4 4.8 C 124.4 5 124.5 5.3 124.5 5.6 C 124.5 5.9 124.4 6.1 124.4 6.4 C 124.3 6.6 124.2 6.9 124.1 7.1 C 123.9 7.3 123.8 7.4 123.5 7.6 C 123.3 7.7 123 7.7 122.7 7.7 C 122.4 7.7 122.1 7.7 121.9 7.6 C 121.7 7.4 121.5 7.3 121.4 7.1 C 121.2 6.9 121.1 6.6 121.1 6.4 C 121 6.1 121 5.9 121 5.6 Z M 119.6 5.6 C 119.6 6.1 119.6 6.5 119.8 6.9 C 119.9 7.3 120.1 7.7 120.4 8 C 120.7 8.3 121 8.5 121.4 8.7 C 121.8 8.8 122.2 8.9 122.7 8.9 C 123.2 8.9 123.7 8.8 124.1 8.7 C 124.5 8.5 124.8 8.3 125.1 8 C 125.3 7.7 125.5 7.3 125.7 6.9 C 125.8 6.5 125.9 6.1 125.9 5.6 C 125.9 5.1 125.8 4.7 125.7 4.3 C 125.5 3.8 125.3 3.5 125.1 3.2 C 124.8 2.9 124.5 2.6 124.1 2.5 C 123.7 2.3 123.2 2.2 122.7 2.2 C 122.2 2.2 121.8 2.3 121.4 2.5 C 121 2.6 120.7 2.9 120.4 3.2 C 120.1 3.5 119.9 3.8 119.8 4.3 C 119.6 4.7 119.6 5.1 119.6 5.6 Z M 127.4 2.3 L 127.4 8.8 L 128.7 8.8 L 128.7 4.5 L 128.8 4.5 L 131.4 8.8 L 132.9 8.8 L 132.9 2.3 L 131.5 2.3 L 131.5 6.7 L 131.5 6.7 L 128.8 2.3 L 127.4 2.3 Z M 139.3 8 C 139.32 8.05 139.5 8.8 139.5 8.8 L 140.4 8.8 L 140.4 5.3 L 137.7 5.3 L 137.7 6.4 C 137.7 6.4 139.08 6.35 139.1 6.4 C 139 6.8 138.9 7.1 138.6 7.4 C 138.4 7.6 138 7.7 137.6 7.7 C 137.2 7.7 137 7.7 136.7 7.6 C 136.5 7.4 136.3 7.3 136.2 7.1 C 136.1 6.9 136 6.6 135.9 6.4 C 135.8 6.1 135.8 5.9 135.8 5.6 C 135.8 5.3 135.8 5 135.9 4.8 C 136 4.5 136.1 4.3 136.2 4.1 C 136.3 3.9 136.5 3.7 136.7 3.6 C 137 3.4 137.2 3.4 137.6 3.4 C 137.9 3.4 138.2 3.5 138.4 3.7 C 138.7 3.8 138.8 4.1 138.9 4.5 C 138.9 4.5 140.3 4.5 140.3 4.5 C 140.2 4.1 140.1 3.8 140 3.5 C 139.8 3.2 139.6 3 139.3 2.8 C 139.1 2.6 138.8 2.4 138.5 2.3 C 138.2 2.2 137.9 2.2 137.6 2.2 C 137.1 2.2 136.6 2.3 136.2 2.5 C 135.8 2.6 135.5 2.9 135.2 3.2 C 135 3.5 134.8 3.8 134.6 4.3 C 134.5 4.7 134.4 5.1 134.4 5.6 C 134.4 6.1 134.5 6.5 134.6 6.9 C 134.8 7.3 135 7.7 135.2 8 C 135.5 8.3 135.8 8.5 136.2 8.7 C 136.6 8.8 137.1 8.9 137.6 8.9 C 137.9 8.9 138.2 8.9 138.5 8.7 C 138.8 8.6 139.1 8.4 139.3 8 Z M 146.4 5.4 L 146.4 3.4 C 146.4 3.4 147.54 3.45 147.5 3.4 C 147.7 3.4 147.9 3.5 148 3.5 C 148.2 3.5 148.3 3.6 148.4 3.6 C 148.5 3.7 148.6 3.8 148.7 3.9 C 148.7 4 148.8 4.2 148.8 4.4 C 148.8 4.6 148.7 4.8 148.7 4.9 C 148.6 5 148.5 5.1 148.4 5.2 C 148.3 5.3 148.2 5.3 148 5.3 C 147.9 5.4 147.7 5.4 147.5 5.4 C 147.54 5.37 146.4 5.4 146.4 5.4 Z M 145 2.3 L 145 8.8 L 146.4 8.8 L 146.4 6.5 C 146.4 6.5 147.93 6.47 147.9 6.5 C 148.3 6.5 148.7 6.4 149 6.3 C 149.2 6.2 149.5 6 149.6 5.8 C 149.8 5.6 149.9 5.4 150 5.2 C 150.1 4.9 150.2 4.7 150.2 4.4 C 150.2 4.1 150.1 3.9 150 3.6 C 149.9 3.4 149.8 3.2 149.6 3 C 149.5 2.8 149.2 2.6 149 2.5 C 148.7 2.4 148.3 2.3 147.9 2.3 C 147.93 2.35 145 2.3 145 2.3 Z M 152.6 6.3 L 153.4 3.9 L 153.4 3.9 L 154.2 6.3 L 152.6 6.3 Z M 152.7 2.3 L 150.3 8.8 L 151.7 8.8 L 152.2 7.3 L 154.6 7.3 L 155.1 8.8 L 156.6 8.8 L 154.1 2.3 L 152.7 2.3 Z M 158.3 3.5 L 158.3 8.8 L 159.7 8.8 L 159.7 3.5 L 161.6 3.5 L 161.6 2.3 L 156.4 2.3 L 156.4 3.5 L 158.3 3.5 Z M 162.9 2.3 L 162.9 8.8 L 164.3 8.8 L 164.3 4.5 L 164.3 4.5 L 166.9 8.8 L 168.4 8.8 L 168.4 2.3 L 167 2.3 L 167 6.7 L 167 6.7 L 164.3 2.3 L 162.9 2.3 Z M 175.6 6.3 C 175.63 6.34 175.6 2.3 175.6 2.3 L 174.2 2.3 C 174.2 2.3 174.22 6.34 174.2 6.3 C 174.2 6.8 174.1 7.2 173.9 7.4 C 173.7 7.6 173.4 7.7 172.9 7.7 C 172.6 7.7 172.4 7.7 172.2 7.6 C 172 7.5 171.9 7.4 171.8 7.3 C 171.7 7.2 171.6 7 171.6 6.9 C 171.6 6.7 171.6 6.5 171.6 6.3 C 171.56 6.34 171.6 2.3 171.6 2.3 L 170.1 2.3 C 170.1 2.3 170.15 6.34 170.1 6.3 C 170.1 7.2 170.4 7.9 170.9 8.3 C 171.3 8.7 172 8.9 172.9 8.9 C 173.7 8.9 174.4 8.7 174.9 8.3 C 175.4 7.9 175.6 7.2 175.6 6.3 Z M 182.1 8 C 182.07 8.05 182.2 8.8 182.2 8.8 L 183.1 8.8 L 183.1 5.3 L 180.4 5.3 L 180.4 6.4 C 180.4 6.4 181.83 6.35 181.8 6.4 C 181.8 6.8 181.6 7.1 181.4 7.4 C 181.1 7.6 180.8 7.7 180.3 7.7 C 180 7.7 179.7 7.7 179.5 7.6 C 179.3 7.4 179.1 7.3 179 7.1 C 178.8 6.9 178.7 6.6 178.6 6.4 C 178.6 6.1 178.6 5.9 178.6 5.6 C 178.6 5.3 178.6 5 178.6 4.8 C 178.7 4.5 178.8 4.3 179 4.1 C 179.1 3.9 179.3 3.7 179.5 3.6 C 179.7 3.4 180 3.4 180.3 3.4 C 180.6 3.4 180.9 3.5 181.2 3.7 C 181.4 3.8 181.6 4.1 181.7 4.5 C 181.7 4.5 183 4.5 183 4.5 C 183 4.1 182.9 3.8 182.7 3.5 C 182.6 3.2 182.3 3 182.1 2.8 C 181.8 2.6 181.6 2.4 181.3 2.3 C 181 2.2 180.6 2.2 180.3 2.2 C 179.8 2.2 179.4 2.3 179 2.5 C 178.6 2.6 178.2 2.9 178 3.2 C 177.7 3.5 177.5 3.8 177.4 4.3 C 177.2 4.7 177.1 5.1 177.1 5.6 C 177.1 6.1 177.2 6.5 177.4 6.9 C 177.5 7.3 177.7 7.7 178 8 C 178.2 8.3 178.6 8.5 179 8.7 C 179.4 8.8 179.8 8.9 180.3 8.9 C 180.6 8.9 180.9 8.9 181.2 8.7 C 181.5 8.6 181.8 8.4 182.1 8 Z M 190.3 6.3 C 190.28 6.34 190.3 2.3 190.3 2.3 L 188.9 2.3 C 188.9 2.3 188.87 6.34 188.9 6.3 C 188.9 6.8 188.8 7.2 188.6 7.4 C 188.4 7.6 188 7.7 187.5 7.7 C 187.2 7.7 187 7.7 186.8 7.6 C 186.7 7.5 186.5 7.4 186.4 7.3 C 186.4 7.2 186.3 7 186.3 6.9 C 186.2 6.7 186.2 6.5 186.2 6.3 C 186.21 6.34 186.2 2.3 186.2 2.3 L 184.8 2.3 C 184.8 2.3 184.8 6.34 184.8 6.3 C 184.8 7.2 185 7.9 185.5 8.3 C 186 8.7 186.7 8.9 187.5 8.9 C 188.4 8.9 189.1 8.7 189.6 8.3 C 190 7.9 190.3 7.2 190.3 6.3 Z M 193.5 3.5 L 193.5 8.8 L 194.9 8.8 L 194.9 3.5 L 196.8 3.5 L 196.8 2.3 L 191.6 2.3 L 191.6 3.5 L 193.5 3.5 Z M 198.9 6.3 L 199.8 3.9 L 199.8 3.9 L 200.6 6.3 L 198.9 6.3 Z M 199.1 2.3 L 196.6 8.8 L 198.1 8.8 L 198.6 7.3 L 201 7.3 L 201.5 8.8 L 202.9 8.8 L 200.5 2.3 L 199.1 2.3 Z M 204.1 2.3 L 204.1 8.8 L 205.4 8.8 L 205.4 4.5 L 205.4 4.5 L 208.1 8.8 L 209.5 8.8 L 209.5 2.3 L 208.2 2.3 L 208.2 6.7 L 208.1 6.7 L 205.5 2.3 L 204.1 2.3 Z " stroke="none" fill="#000"/>
  </g>
</svg>