<?xml version="1.0" standalone="no"?>
<!DOCTYPE svg PUBLIC "-//W3C//DTD SVG 1.1//EN" "http://www.w3.org/Graphics/SVG/1.1/DTD/svg11.dtd">
<svg xmlns="http://www.w3.org/2000/svg" version="1.1" width="774px" height="42.8px" viewBox="0 -3 774 42.8" style="top:-3px">
  <desc>PAKINGGAN ang kuwento ng mga mag-aaral na nag-file ng leave of absence sa kalagitnaan ng pagsasagawa ng online classe</desc>
  <defs/>
  <g id="Polygon26871">
    <path d="M 0.8 14.5 L 1.5 14.5 C 1.5 14.5 1.47 15.48 1.5 15.5 C 1.8 14.9 2.4 14.4 3.2 14.4 C 4.4 14.4 5.5 15.3 5.5 16.9 C 5.5 16.9 5.5 16.9 5.5 16.9 C 5.5 18.4 4.4 19.3 3.2 19.3 C 2.4 19.3 1.8 18.8 1.5 18.3 C 1.47 18.31 1.5 20.6 1.5 20.6 L 0.8 20.6 L 0.8 14.5 Z M 4.8 16.9 C 4.8 16.9 4.8 16.9 4.8 16.9 C 4.8 15.8 4 15.1 3.1 15.1 C 2.3 15.1 1.4 15.8 1.4 16.9 C 1.4 16.9 1.4 16.9 1.4 16.9 C 1.4 18 2.3 18.7 3.1 18.7 C 4 18.7 4.8 18 4.8 16.9 Z M 6.3 17.8 C 6.3 17.8 6.3 17.8 6.3 17.8 C 6.3 16.9 7.1 16.3 8.3 16.3 C 8.9 16.3 9.3 16.4 9.7 16.5 C 9.7 16.5 9.7 16.4 9.7 16.4 C 9.7 15.5 9.2 15.1 8.3 15.1 C 7.8 15.1 7.4 15.2 6.9 15.4 C 6.9 15.4 6.7 14.9 6.7 14.9 C 7.2 14.6 7.7 14.5 8.4 14.5 C 9.1 14.5 9.6 14.7 9.9 15 C 10.2 15.3 10.4 15.8 10.4 16.4 C 10.39 16.36 10.4 19.2 10.4 19.2 L 9.7 19.2 C 9.7 19.2 9.73 18.5 9.7 18.5 C 9.4 18.9 8.9 19.3 8 19.3 C 7.2 19.3 6.3 18.8 6.3 17.8 Z M 9.7 17.5 C 9.7 17.5 9.7 17 9.7 17 C 9.4 16.9 8.9 16.8 8.4 16.8 C 7.5 16.8 7 17.2 7 17.8 C 7 17.8 7 17.8 7 17.8 C 7 18.4 7.6 18.8 8.2 18.8 C 9 18.8 9.7 18.2 9.7 17.5 Z M 11.8 14.5 L 12.5 14.5 C 12.5 14.5 12.47 15.36 12.5 15.4 C 12.8 14.9 13.3 14.4 14.1 14.4 C 15.2 14.4 15.8 15.2 15.8 16.3 C 15.85 16.31 15.8 19.2 15.8 19.2 L 15.2 19.2 C 15.2 19.2 15.16 16.48 15.2 16.5 C 15.2 15.6 14.7 15.1 13.9 15.1 C 13.1 15.1 12.5 15.7 12.5 16.5 C 12.47 16.54 12.5 19.2 12.5 19.2 L 11.8 19.2 L 11.8 14.5 Z M 17 16.9 C 17 16.9 17 16.9 17 16.9 C 17 15.3 18.1 14.4 19.2 14.4 C 20.1 14.4 20.6 14.9 21 15.4 C 20.97 15.44 21 12.6 21 12.6 L 21.7 12.6 L 21.7 19.2 L 21 19.2 C 21 19.2 20.97 18.26 21 18.3 C 20.6 18.8 20 19.3 19.2 19.3 C 18.1 19.3 17 18.4 17 16.9 Z M 21 16.9 C 21 16.9 21 16.9 21 16.9 C 21 15.8 20.2 15.1 19.3 15.1 C 18.4 15.1 17.7 15.7 17.7 16.9 C 17.7 16.9 17.7 16.9 17.7 16.9 C 17.7 18 18.4 18.7 19.3 18.7 C 20.2 18.7 21 17.9 21 16.9 Z M 22.8 16.9 C 22.8 16.9 22.8 16.9 22.8 16.9 C 22.8 15.5 23.8 14.4 25.1 14.4 C 26.4 14.4 27.2 15.5 27.2 16.9 C 27.2 17 27.2 17 27.2 17.1 C 27.2 17.1 23.5 17.1 23.5 17.1 C 23.6 18.1 24.3 18.7 25.2 18.7 C 25.8 18.7 26.3 18.4 26.6 18 C 26.6 18 27.1 18.4 27.1 18.4 C 26.6 19 26 19.3 25.2 19.3 C 23.9 19.3 22.8 18.3 22.8 16.9 Z M 26.5 16.6 C 26.5 15.8 26 15 25 15 C 24.2 15 23.6 15.7 23.5 16.6 C 23.5 16.6 26.5 16.6 26.5 16.6 Z M 28.4 14.5 L 29.1 14.5 C 29.1 14.5 29.05 15.33 29.1 15.3 C 29.4 14.9 29.8 14.4 30.6 14.4 C 31.3 14.4 31.8 14.9 32 15.4 C 32.4 14.9 32.9 14.4 33.7 14.4 C 34.8 14.4 35.4 15.2 35.4 16.3 C 35.41 16.32 35.4 19.2 35.4 19.2 L 34.7 19.2 C 34.7 19.2 34.72 16.48 34.7 16.5 C 34.7 15.6 34.3 15.1 33.5 15.1 C 32.8 15.1 32.2 15.6 32.2 16.5 C 32.24 16.52 32.2 19.2 32.2 19.2 L 31.5 19.2 C 31.5 19.2 31.55 16.46 31.5 16.5 C 31.5 15.6 31.1 15.1 30.3 15.1 C 29.6 15.1 29.1 15.7 29.1 16.5 C 29.05 16.54 29.1 19.2 29.1 19.2 L 28.4 19.2 L 28.4 14.5 Z M 40.2 14.5 L 40.9 14.5 C 40.9 14.5 38.96 19.35 39 19.4 C 38.6 20.3 38.1 20.7 37.4 20.7 C 37 20.7 36.7 20.6 36.4 20.4 C 36.4 20.4 36.7 19.9 36.7 19.9 C 36.9 20 37.1 20.1 37.4 20.1 C 37.8 20.1 38.1 19.8 38.3 19.2 C 38.34 19.18 36.2 14.5 36.2 14.5 L 37 14.5 L 38.7 18.4 L 40.2 14.5 Z M 41.3 17.8 C 41.3 17.8 41.3 17.8 41.3 17.8 C 41.3 16.9 42.2 16.3 43.3 16.3 C 43.9 16.3 44.4 16.4 44.8 16.5 C 44.8 16.5 44.8 16.4 44.8 16.4 C 44.8 15.5 44.3 15.1 43.4 15.1 C 42.8 15.1 42.4 15.2 42 15.4 C 42 15.4 41.8 14.9 41.8 14.9 C 42.3 14.6 42.8 14.5 43.5 14.5 C 44.1 14.5 44.6 14.7 45 15 C 45.3 15.3 45.4 15.8 45.4 16.4 C 45.43 16.36 45.4 19.2 45.4 19.2 L 44.8 19.2 C 44.8 19.2 44.77 18.5 44.8 18.5 C 44.4 18.9 43.9 19.3 43.1 19.3 C 42.2 19.3 41.3 18.8 41.3 17.8 Z M 44.8 17.5 C 44.8 17.5 44.8 17 44.8 17 C 44.4 16.9 44 16.8 43.4 16.8 C 42.5 16.8 42 17.2 42 17.8 C 42 17.8 42 17.8 42 17.8 C 42 18.4 42.6 18.8 43.2 18.8 C 44.1 18.8 44.8 18.2 44.8 17.5 Z M 46.7 18.3 L 47.6 18.3 L 47.6 19.2 L 46.7 19.2 L 46.7 18.3 Z " stroke="none" fill="#fff"/>
  </g>
  <g id="Polygon26870">
    <path d="M 0.9 0.9 C 0.9 0.9 3.25 0.9 3.2 0.9 C 4.7 0.9 5.6 1.7 5.6 2.9 C 5.6 2.9 5.6 2.9 5.6 2.9 C 5.6 4.3 4.5 5 3.1 5 C 3.13 4.98 1.6 5 1.6 5 L 1.6 7.2 L 0.9 7.2 L 0.9 0.9 Z M 3.2 4.3 C 4.2 4.3 4.9 3.8 4.9 2.9 C 4.9 2.9 4.9 2.9 4.9 2.9 C 4.9 2 4.2 1.6 3.2 1.6 C 3.19 1.56 1.6 1.6 1.6 1.6 L 1.6 4.3 C 1.6 4.3 3.16 4.33 3.2 4.3 Z M 8.5 0.9 L 9.2 0.9 L 12.1 7.2 L 11.3 7.2 L 10.5 5.5 L 7.1 5.5 L 6.4 7.2 L 5.6 7.2 L 8.5 0.9 Z M 10.3 4.9 L 8.8 1.7 L 7.4 4.9 L 10.3 4.9 Z M 13.2 0.9 L 13.9 0.9 L 13.9 4.7 L 17.5 0.9 L 18.4 0.9 L 15.7 3.7 L 18.6 7.2 L 17.7 7.2 L 15.3 4.1 L 13.9 5.5 L 13.9 7.2 L 13.2 7.2 L 13.2 0.9 Z M 19.6 0.9 L 20.4 0.9 L 20.4 7.2 L 19.6 7.2 L 19.6 0.9 Z M 22.1 0.9 L 22.8 0.9 L 26.7 5.9 L 26.7 0.9 L 27.4 0.9 L 27.4 7.2 L 26.9 7.2 L 22.8 2 L 22.8 7.2 L 22.1 7.2 L 22.1 0.9 Z M 28.9 4.1 C 28.9 4.1 28.9 4.1 28.9 4.1 C 28.9 2.3 30.1 0.8 32 0.8 C 33.1 0.8 33.7 1.1 34.4 1.6 C 34.4 1.6 33.9 2.2 33.9 2.2 C 33.4 1.7 32.9 1.4 32 1.4 C 30.6 1.4 29.6 2.6 29.6 4 C 29.6 4 29.6 4.1 29.6 4.1 C 29.6 5.6 30.6 6.7 32.1 6.7 C 32.8 6.7 33.5 6.4 33.9 6 C 33.9 6.04 33.9 4.5 33.9 4.5 L 32 4.5 L 32 3.8 L 34.6 3.8 C 34.6 3.8 34.59 6.35 34.6 6.3 C 34 6.9 33.1 7.3 32.1 7.3 C 30.1 7.3 28.9 5.9 28.9 4.1 Z M 35.8 4.1 C 35.8 4.1 35.8 4.1 35.8 4.1 C 35.8 2.3 37.1 0.8 39 0.8 C 40 0.8 40.7 1.1 41.3 1.6 C 41.3 1.6 40.9 2.2 40.9 2.2 C 40.4 1.7 39.8 1.4 39 1.4 C 37.6 1.4 36.6 2.6 36.6 4 C 36.6 4 36.6 4.1 36.6 4.1 C 36.6 5.6 37.5 6.7 39.1 6.7 C 39.8 6.7 40.4 6.4 40.9 6 C 40.87 6.04 40.9 4.5 40.9 4.5 L 39 4.5 L 39 3.8 L 41.6 3.8 C 41.6 3.8 41.55 6.35 41.6 6.3 C 41 6.9 40.1 7.3 39 7.3 C 37 7.3 35.8 5.9 35.8 4.1 Z M 45.4 0.9 L 46.1 0.9 L 48.9 7.2 L 48.2 7.2 L 47.4 5.5 L 44 5.5 L 43.3 7.2 L 42.5 7.2 L 45.4 0.9 Z M 47.2 4.9 L 45.7 1.7 L 44.3 4.9 L 47.2 4.9 Z M 50.1 0.9 L 50.8 0.9 L 54.7 5.9 L 54.7 0.9 L 55.4 0.9 L 55.4 7.2 L 54.8 7.2 L 50.8 2 L 50.8 7.2 L 50.1 7.2 L 50.1 0.9 Z M 59.2 5.8 C 59.2 5.8 59.2 5.8 59.2 5.8 C 59.2 4.9 60 4.3 61.2 4.3 C 61.8 4.3 62.2 4.4 62.6 4.5 C 62.6 4.5 62.6 4.4 62.6 4.4 C 62.6 3.5 62.1 3.1 61.2 3.1 C 60.7 3.1 60.2 3.2 59.8 3.4 C 59.8 3.4 59.6 2.9 59.6 2.9 C 60.1 2.6 60.6 2.5 61.3 2.5 C 61.9 2.5 62.5 2.7 62.8 3 C 63.1 3.3 63.3 3.8 63.3 4.4 C 63.27 4.36 63.3 7.2 63.3 7.2 L 62.6 7.2 C 62.6 7.2 62.6 6.5 62.6 6.5 C 62.3 6.9 61.7 7.3 60.9 7.3 C 60.1 7.3 59.2 6.8 59.2 5.8 Z M 62.6 5.5 C 62.6 5.5 62.6 5 62.6 5 C 62.3 4.9 61.8 4.8 61.2 4.8 C 60.4 4.8 59.9 5.2 59.9 5.8 C 59.9 5.8 59.9 5.8 59.9 5.8 C 59.9 6.4 60.4 6.8 61.1 6.8 C 61.9 6.8 62.6 6.2 62.6 5.5 Z M 64.7 2.5 L 65.3 2.5 C 65.3 2.5 65.35 3.36 65.3 3.4 C 65.7 2.9 66.1 2.4 66.9 2.4 C 68.1 2.4 68.7 3.2 68.7 4.3 C 68.72 4.31 68.7 7.2 68.7 7.2 L 68 7.2 C 68 7.2 68.03 4.48 68 4.5 C 68 3.6 67.6 3.1 66.7 3.1 C 65.9 3.1 65.3 3.7 65.3 4.5 C 65.35 4.54 65.3 7.2 65.3 7.2 L 64.7 7.2 L 64.7 2.5 Z M 70.1 8 C 70.1 8 70.4 7.5 70.4 7.5 C 70.9 7.9 71.5 8.1 72.2 8.1 C 73.2 8.1 73.9 7.5 73.9 6.4 C 73.9 6.4 73.9 5.9 73.9 5.9 C 73.4 6.4 72.9 6.8 72 6.8 C 70.9 6.8 69.8 6 69.8 4.7 C 69.8 4.7 69.8 4.6 69.8 4.6 C 69.8 3.3 70.9 2.4 72 2.4 C 72.9 2.4 73.5 2.9 73.8 3.4 C 73.84 3.38 73.8 2.5 73.8 2.5 L 74.5 2.5 C 74.5 2.5 74.54 6.39 74.5 6.4 C 74.5 7.1 74.3 7.7 73.9 8 C 73.5 8.5 72.9 8.7 72.2 8.7 C 71.4 8.7 70.7 8.4 70.1 8 Z M 73.9 4.7 C 73.9 4.7 73.9 4.6 73.9 4.6 C 73.9 3.7 73 3.1 72.2 3.1 C 71.3 3.1 70.5 3.7 70.5 4.6 C 70.5 4.6 70.5 4.6 70.5 4.6 C 70.5 5.6 71.3 6.2 72.2 6.2 C 73 6.2 73.9 5.6 73.9 4.7 Z M 78.5 0.6 L 79.2 0.6 L 79.2 5.2 L 81.7 2.5 L 82.6 2.5 L 80.7 4.5 L 82.7 7.2 L 81.8 7.2 L 80.2 5 L 79.2 6 L 79.2 7.2 L 78.5 7.2 L 78.5 0.6 Z M 83.4 5.4 C 83.41 5.44 83.4 2.5 83.4 2.5 L 84.1 2.5 C 84.1 2.5 84.1 5.27 84.1 5.3 C 84.1 6.1 84.6 6.7 85.4 6.7 C 86.2 6.7 86.8 6.1 86.8 5.2 C 86.79 5.21 86.8 2.5 86.8 2.5 L 87.5 2.5 L 87.5 7.2 L 86.8 7.2 C 86.8 7.2 86.79 6.39 86.8 6.4 C 86.5 6.9 86 7.3 85.2 7.3 C 84.1 7.3 83.4 6.5 83.4 5.4 Z M 88.5 2.5 L 89.3 2.5 L 90.5 6.3 L 91.8 2.5 L 92.3 2.5 L 93.6 6.3 L 94.8 2.5 L 95.5 2.5 L 93.9 7.2 L 93.3 7.2 L 92 3.6 L 90.8 7.2 L 90.2 7.2 L 88.5 2.5 Z M 96.1 4.9 C 96.1 4.9 96.1 4.9 96.1 4.9 C 96.1 3.5 97 2.4 98.3 2.4 C 99.7 2.4 100.5 3.5 100.5 4.9 C 100.5 5 100.5 5 100.5 5.1 C 100.5 5.1 96.8 5.1 96.8 5.1 C 96.9 6.1 97.6 6.7 98.4 6.7 C 99.1 6.7 99.5 6.4 99.9 6 C 99.9 6 100.3 6.4 100.3 6.4 C 99.9 7 99.3 7.3 98.4 7.3 C 97.1 7.3 96.1 6.3 96.1 4.9 Z M 99.8 4.6 C 99.7 3.8 99.2 3 98.3 3 C 97.5 3 96.9 3.7 96.8 4.6 C 96.8 4.6 99.8 4.6 99.8 4.6 Z M 101.6 2.5 L 102.3 2.5 C 102.3 2.5 102.3 3.36 102.3 3.4 C 102.6 2.9 103.1 2.4 103.9 2.4 C 105 2.4 105.7 3.2 105.7 4.3 C 105.68 4.31 105.7 7.2 105.7 7.2 L 105 7.2 C 105 7.2 104.98 4.48 105 4.5 C 105 3.6 104.5 3.1 103.7 3.1 C 102.9 3.1 102.3 3.7 102.3 4.5 C 102.3 4.54 102.3 7.2 102.3 7.2 L 101.6 7.2 L 101.6 2.5 Z M 107.3 6 C 107.31 5.97 107.3 3.2 107.3 3.2 L 106.7 3.2 L 106.7 2.5 L 107.3 2.5 L 107.3 1.1 L 108 1.1 L 108 2.5 L 109.5 2.5 L 109.5 3.2 L 108 3.2 C 108 3.2 108 5.88 108 5.9 C 108 6.4 108.3 6.7 108.8 6.7 C 109 6.7 109.2 6.6 109.5 6.5 C 109.5 6.5 109.5 7.1 109.5 7.1 C 109.2 7.2 109 7.3 108.6 7.3 C 107.9 7.3 107.3 6.9 107.3 6 Z M 110.2 4.9 C 110.2 4.9 110.2 4.9 110.2 4.9 C 110.2 3.6 111.2 2.4 112.6 2.4 C 114 2.4 115 3.5 115 4.9 C 115 4.9 115 4.9 115 4.9 C 115 6.2 114 7.3 112.6 7.3 C 111.2 7.3 110.2 6.2 110.2 4.9 Z M 114.3 4.9 C 114.3 4.9 114.3 4.9 114.3 4.9 C 114.3 3.9 113.6 3.1 112.6 3.1 C 111.6 3.1 110.9 3.9 110.9 4.9 C 110.9 4.9 110.9 4.9 110.9 4.9 C 110.9 5.9 111.6 6.7 112.6 6.7 C 113.6 6.7 114.3 5.9 114.3 4.9 Z M 118.7 2.5 L 119.4 2.5 C 119.4 2.5 119.44 3.36 119.4 3.4 C 119.7 2.9 120.2 2.4 121 2.4 C 122.2 2.4 122.8 3.2 122.8 4.3 C 122.81 4.31 122.8 7.2 122.8 7.2 L 122.1 7.2 C 122.1 7.2 122.12 4.48 122.1 4.5 C 122.1 3.6 121.7 3.1 120.8 3.1 C 120 3.1 119.4 3.7 119.4 4.5 C 119.44 4.54 119.4 7.2 119.4 7.2 L 118.7 7.2 L 118.7 2.5 Z M 124.1 8 C 124.1 8 124.5 7.5 124.5 7.5 C 125 7.9 125.6 8.1 126.2 8.1 C 127.3 8.1 127.9 7.5 127.9 6.4 C 127.9 6.4 127.9 5.9 127.9 5.9 C 127.5 6.4 127 6.8 126.1 6.8 C 125 6.8 123.9 6 123.9 4.7 C 123.9 4.7 123.9 4.6 123.9 4.6 C 123.9 3.3 125 2.4 126.1 2.4 C 127 2.4 127.6 2.9 127.9 3.4 C 127.93 3.38 127.9 2.5 127.9 2.5 L 128.6 2.5 C 128.6 2.5 128.63 6.39 128.6 6.4 C 128.6 7.1 128.4 7.7 128 8 C 127.6 8.5 127 8.7 126.3 8.7 C 125.5 8.7 124.8 8.4 124.1 8 Z M 128 4.7 C 128 4.7 128 4.6 128 4.6 C 128 3.7 127.1 3.1 126.2 3.1 C 125.4 3.1 124.6 3.7 124.6 4.6 C 124.6 4.6 124.6 4.6 124.6 4.6 C 124.6 5.6 125.4 6.2 126.2 6.2 C 127.1 6.2 128 5.6 128 4.7 Z M 132.6 2.5 L 133.3 2.5 C 133.3 2.5 133.32 3.33 133.3 3.3 C 133.6 2.9 134 2.4 134.8 2.4 C 135.6 2.4 136.1 2.9 136.3 3.4 C 136.7 2.9 137.1 2.4 138 2.4 C 139 2.4 139.7 3.2 139.7 4.3 C 139.69 4.32 139.7 7.2 139.7 7.2 L 139 7.2 C 139 7.2 138.99 4.48 139 4.5 C 139 3.6 138.5 3.1 137.8 3.1 C 137.1 3.1 136.5 3.6 136.5 4.5 C 136.51 4.52 136.5 7.2 136.5 7.2 L 135.8 7.2 C 135.8 7.2 135.82 4.46 135.8 4.5 C 135.8 3.6 135.4 3.1 134.6 3.1 C 133.9 3.1 133.3 3.7 133.3 4.5 C 133.32 4.54 133.3 7.2 133.3 7.2 L 132.6 7.2 L 132.6 2.5 Z M 141 8 C 141 8 141.4 7.5 141.4 7.5 C 141.9 7.9 142.5 8.1 143.2 8.1 C 144.2 8.1 144.8 7.5 144.8 6.4 C 144.8 6.4 144.8 5.9 144.8 5.9 C 144.4 6.4 143.9 6.8 143 6.8 C 141.9 6.8 140.8 6 140.8 4.7 C 140.8 4.7 140.8 4.6 140.8 4.6 C 140.8 3.3 141.9 2.4 143 2.4 C 143.9 2.4 144.5 2.9 144.8 3.4 C 144.83 3.38 144.8 2.5 144.8 2.5 L 145.5 2.5 C 145.5 2.5 145.53 6.39 145.5 6.4 C 145.5 7.1 145.3 7.7 144.9 8 C 144.5 8.5 143.9 8.7 143.2 8.7 C 142.4 8.7 141.7 8.4 141 8 Z M 144.9 4.7 C 144.9 4.7 144.9 4.6 144.9 4.6 C 144.9 3.7 144 3.1 143.2 3.1 C 142.3 3.1 141.5 3.7 141.5 4.6 C 141.5 4.6 141.5 4.6 141.5 4.6 C 141.5 5.6 142.3 6.2 143.2 6.2 C 144 6.2 144.9 5.6 144.9 4.7 Z M 146.6 5.8 C 146.6 5.8 146.6 5.8 146.6 5.8 C 146.6 4.9 147.4 4.3 148.6 4.3 C 149.2 4.3 149.6 4.4 150.1 4.5 C 150.1 4.5 150.1 4.4 150.1 4.4 C 150.1 3.5 149.5 3.1 148.7 3.1 C 148.1 3.1 147.7 3.2 147.3 3.4 C 147.3 3.4 147 2.9 147 2.9 C 147.6 2.6 148.1 2.5 148.7 2.5 C 149.4 2.5 149.9 2.7 150.2 3 C 150.6 3.3 150.7 3.8 150.7 4.4 C 150.72 4.36 150.7 7.2 150.7 7.2 L 150.1 7.2 C 150.1 7.2 150.05 6.5 150.1 6.5 C 149.7 6.9 149.2 7.3 148.4 7.3 C 147.5 7.3 146.6 6.8 146.6 5.8 Z M 150.1 5.5 C 150.1 5.5 150.1 5 150.1 5 C 149.7 4.9 149.3 4.8 148.7 4.8 C 147.8 4.8 147.3 5.2 147.3 5.8 C 147.3 5.8 147.3 5.8 147.3 5.8 C 147.3 6.4 147.9 6.8 148.5 6.8 C 149.4 6.8 150.1 6.2 150.1 5.5 Z M 154.7 2.5 L 155.3 2.5 C 155.3 2.5 155.35 3.33 155.3 3.3 C 155.7 2.9 156.1 2.4 156.8 2.4 C 157.6 2.4 158.1 2.9 158.3 3.4 C 158.7 2.9 159.2 2.4 160 2.4 C 161.1 2.4 161.7 3.2 161.7 4.3 C 161.71 4.32 161.7 7.2 161.7 7.2 L 161 7.2 C 161 7.2 161.02 4.48 161 4.5 C 161 3.6 160.6 3.1 159.8 3.1 C 159.1 3.1 158.5 3.6 158.5 4.5 C 158.53 4.52 158.5 7.2 158.5 7.2 L 157.8 7.2 C 157.8 7.2 157.84 4.46 157.8 4.5 C 157.8 3.6 157.4 3.1 156.6 3.1 C 155.9 3.1 155.3 3.7 155.3 4.5 C 155.35 4.54 155.3 7.2 155.3 7.2 L 154.7 7.2 L 154.7 2.5 Z M 162.8 5.8 C 162.8 5.8 162.8 5.8 162.8 5.8 C 162.8 4.9 163.6 4.3 164.8 4.3 C 165.4 4.3 165.8 4.4 166.2 4.5 C 166.2 4.5 166.2 4.4 166.2 4.4 C 166.2 3.5 165.7 3.1 164.8 3.1 C 164.3 3.1 163.8 3.2 163.4 3.4 C 163.4 3.4 163.2 2.9 163.2 2.9 C 163.7 2.6 164.2 2.5 164.9 2.5 C 165.5 2.5 166 2.7 166.4 3 C 166.7 3.3 166.9 3.8 166.9 4.4 C 166.86 4.36 166.9 7.2 166.9 7.2 L 166.2 7.2 C 166.2 7.2 166.19 6.5 166.2 6.5 C 165.9 6.9 165.3 7.3 164.5 7.3 C 163.6 7.3 162.8 6.8 162.8 5.8 Z M 166.2 5.5 C 166.2 5.5 166.2 5 166.2 5 C 165.9 4.9 165.4 4.8 164.8 4.8 C 164 4.8 163.5 5.2 163.5 5.8 C 163.5 5.8 163.5 5.8 163.5 5.8 C 163.5 6.4 164 6.8 164.6 6.8 C 165.5 6.8 166.2 6.2 166.2 5.5 Z M 168.2 8 C 168.2 8 168.5 7.5 168.5 7.5 C 169 7.9 169.6 8.1 170.3 8.1 C 171.3 8.1 172 7.5 172 6.4 C 172 6.4 172 5.9 172 5.9 C 171.6 6.4 171 6.8 170.2 6.8 C 169 6.8 168 6 168 4.7 C 168 4.7 168 4.6 168 4.6 C 168 3.3 169.1 2.4 170.2 2.4 C 171 2.4 171.6 2.9 172 3.4 C 171.98 3.38 172 2.5 172 2.5 L 172.7 2.5 C 172.7 2.5 172.67 6.39 172.7 6.4 C 172.7 7.1 172.5 7.7 172.1 8 C 171.7 8.5 171 8.7 170.3 8.7 C 169.5 8.7 168.8 8.4 168.2 8 Z M 172 4.7 C 172 4.7 172 4.6 172 4.6 C 172 3.7 171.2 3.1 170.3 3.1 C 169.4 3.1 168.7 3.7 168.7 4.6 C 168.7 4.6 168.7 4.6 168.7 4.6 C 168.7 5.6 169.4 6.2 170.3 6.2 C 171.2 6.2 172 5.6 172 4.7 Z M 173.9 4.1 L 176.4 4.1 L 176.4 4.9 L 173.9 4.9 L 173.9 4.1 Z M 177.4 5.8 C 177.4 5.8 177.4 5.8 177.4 5.8 C 177.4 4.9 178.2 4.3 179.3 4.3 C 179.9 4.3 180.4 4.4 180.8 4.5 C 180.8 4.5 180.8 4.4 180.8 4.4 C 180.8 3.5 180.3 3.1 179.4 3.1 C 178.8 3.1 178.4 3.2 178 3.4 C 178 3.4 177.8 2.9 177.8 2.9 C 178.3 2.6 178.8 2.5 179.5 2.5 C 180.1 2.5 180.6 2.7 181 3 C 181.3 3.3 181.4 3.8 181.4 4.4 C 181.44 4.36 181.4 7.2 181.4 7.2 L 180.8 7.2 C 180.8 7.2 180.78 6.5 180.8 6.5 C 180.5 6.9 179.9 7.3 179.1 7.3 C 178.2 7.3 177.4 6.8 177.4 5.8 Z M 180.8 5.5 C 180.8 5.5 180.8 5 180.8 5 C 180.4 4.9 180 4.8 179.4 4.8 C 178.5 4.8 178.1 5.2 178.1 5.8 C 178.1 5.8 178.1 5.8 178.1 5.8 C 178.1 6.4 178.6 6.8 179.2 6.8 C 180.1 6.8 180.8 6.2 180.8 5.5 Z M 182.5 5.8 C 182.5 5.8 182.5 5.8 182.5 5.8 C 182.5 4.9 183.3 4.3 184.5 4.3 C 185.1 4.3 185.5 4.4 185.9 4.5 C 185.9 4.5 185.9 4.4 185.9 4.4 C 185.9 3.5 185.4 3.1 184.5 3.1 C 184 3.1 183.5 3.2 183.1 3.4 C 183.1 3.4 182.9 2.9 182.9 2.9 C 183.4 2.6 183.9 2.5 184.6 2.5 C 185.2 2.5 185.7 2.7 186.1 3 C 186.4 3.3 186.6 3.8 186.6 4.4 C 186.57 4.36 186.6 7.2 186.6 7.2 L 185.9 7.2 C 185.9 7.2 185.9 6.5 185.9 6.5 C 185.6 6.9 185 7.3 184.2 7.3 C 183.4 7.3 182.5 6.8 182.5 5.8 Z M 185.9 5.5 C 185.9 5.5 185.9 5 185.9 5 C 185.6 4.9 185.1 4.8 184.5 4.8 C 183.7 4.8 183.2 5.2 183.2 5.8 C 183.2 5.8 183.2 5.8 183.2 5.8 C 183.2 6.4 183.7 6.8 184.4 6.8 C 185.2 6.8 185.9 6.2 185.9 5.5 Z M 188 2.5 L 188.6 2.5 C 188.6 2.5 188.64 3.76 188.6 3.8 C 189 3 189.7 2.4 190.5 2.5 C 190.54 2.47 190.5 3.2 190.5 3.2 C 190.5 3.2 190.49 3.21 190.5 3.2 C 189.5 3.2 188.6 3.9 188.6 5.3 C 188.64 5.35 188.6 7.2 188.6 7.2 L 188 7.2 L 188 2.5 Z M 190.9 5.8 C 190.9 5.8 190.9 5.8 190.9 5.8 C 190.9 4.9 191.7 4.3 192.9 4.3 C 193.5 4.3 193.9 4.4 194.4 4.5 C 194.4 4.5 194.4 4.4 194.4 4.4 C 194.4 3.5 193.8 3.1 193 3.1 C 192.4 3.1 192 3.2 191.6 3.4 C 191.6 3.4 191.3 2.9 191.3 2.9 C 191.9 2.6 192.4 2.5 193 2.5 C 193.7 2.5 194.2 2.7 194.5 3 C 194.9 3.3 195 3.8 195 4.4 C 195.02 4.36 195 7.2 195 7.2 L 194.4 7.2 C 194.4 7.2 194.35 6.5 194.4 6.5 C 194 6.9 193.5 7.3 192.7 7.3 C 191.8 7.3 190.9 6.8 190.9 5.8 Z M 194.4 5.5 C 194.4 5.5 194.4 5 194.4 5 C 194 4.9 193.6 4.8 193 4.8 C 192.1 4.8 191.6 5.2 191.6 5.8 C 191.6 5.8 191.6 5.8 191.6 5.8 C 191.6 6.4 192.2 6.8 192.8 6.8 C 193.7 6.8 194.4 6.2 194.4 5.5 Z M 196.5 0.6 L 197.2 0.6 L 197.2 7.2 L 196.5 7.2 L 196.5 0.6 Z M 201.2 2.5 L 201.9 2.5 C 201.9 2.5 201.92 3.36 201.9 3.4 C 202.2 2.9 202.7 2.4 203.5 2.4 C 204.6 2.4 205.3 3.2 205.3 4.3 C 205.29 4.31 205.3 7.2 205.3 7.2 L 204.6 7.2 C 204.6 7.2 204.6 4.48 204.6 4.5 C 204.6 3.6 204.1 3.1 203.3 3.1 C 202.5 3.1 201.9 3.7 201.9 4.5 C 201.92 4.54 201.9 7.2 201.9 7.2 L 201.2 7.2 L 201.2 2.5 Z M 206.3 5.8 C 206.3 5.8 206.3 5.8 206.3 5.8 C 206.3 4.9 207.1 4.3 208.3 4.3 C 208.9 4.3 209.3 4.4 209.8 4.5 C 209.8 4.5 209.8 4.4 209.8 4.4 C 209.8 3.5 209.2 3.1 208.4 3.1 C 207.8 3.1 207.4 3.2 207 3.4 C 207 3.4 206.7 2.9 206.7 2.9 C 207.3 2.6 207.8 2.5 208.4 2.5 C 209.1 2.5 209.6 2.7 209.9 3 C 210.3 3.3 210.4 3.8 210.4 4.4 C 210.42 4.36 210.4 7.2 210.4 7.2 L 209.8 7.2 C 209.8 7.2 209.75 6.5 209.8 6.5 C 209.4 6.9 208.9 7.3 208.1 7.3 C 207.2 7.3 206.3 6.8 206.3 5.8 Z M 209.8 5.5 C 209.8 5.5 209.8 5 209.8 5 C 209.4 4.9 209 4.8 208.4 4.8 C 207.5 4.8 207 5.2 207 5.8 C 207 5.8 207 5.8 207 5.8 C 207 6.4 207.6 6.8 208.2 6.8 C 209.1 6.8 209.8 6.2 209.8 5.5 Z M 214.3 2.5 L 215 2.5 C 215 2.5 215.04 3.36 215 3.4 C 215.3 2.9 215.8 2.4 216.6 2.4 C 217.8 2.4 218.4 3.2 218.4 4.3 C 218.42 4.31 218.4 7.2 218.4 7.2 L 217.7 7.2 C 217.7 7.2 217.72 4.48 217.7 4.5 C 217.7 3.6 217.3 3.1 216.4 3.1 C 215.6 3.1 215 3.7 215 4.5 C 215.04 4.54 215 7.2 215 7.2 L 214.3 7.2 L 214.3 2.5 Z M 219.5 5.8 C 219.5 5.8 219.5 5.8 219.5 5.8 C 219.5 4.9 220.3 4.3 221.4 4.3 C 222 4.3 222.5 4.4 222.9 4.5 C 222.9 4.5 222.9 4.4 222.9 4.4 C 222.9 3.5 222.4 3.1 221.5 3.1 C 220.9 3.1 220.5 3.2 220.1 3.4 C 220.1 3.4 219.9 2.9 219.9 2.9 C 220.4 2.6 220.9 2.5 221.6 2.5 C 222.2 2.5 222.7 2.7 223.1 3 C 223.4 3.3 223.5 3.8 223.5 4.4 C 223.54 4.36 223.5 7.2 223.5 7.2 L 222.9 7.2 C 222.9 7.2 222.87 6.5 222.9 6.5 C 222.5 6.9 222 7.3 221.2 7.3 C 220.3 7.3 219.5 6.8 219.5 5.8 Z M 222.9 5.5 C 222.9 5.5 222.9 5 222.9 5 C 222.5 4.9 222.1 4.8 221.5 4.8 C 220.6 4.8 220.2 5.2 220.2 5.8 C 220.2 5.8 220.2 5.8 220.2 5.8 C 220.2 6.4 220.7 6.8 221.3 6.8 C 222.2 6.8 222.9 6.2 222.9 5.5 Z M 224.9 8 C 224.9 8 225.2 7.5 225.2 7.5 C 225.7 7.9 226.3 8.1 227 8.1 C 228 8.1 228.7 7.5 228.7 6.4 C 228.7 6.4 228.7 5.9 228.7 5.9 C 228.3 6.4 227.7 6.8 226.8 6.8 C 225.7 6.8 224.7 6 224.7 4.7 C 224.7 4.7 224.7 4.6 224.7 4.6 C 224.7 3.3 225.7 2.4 226.8 2.4 C 227.7 2.4 228.3 2.9 228.7 3.4 C 228.66 3.38 228.7 2.5 228.7 2.5 L 229.4 2.5 C 229.4 2.5 229.35 6.39 229.4 6.4 C 229.4 7.1 229.1 7.7 228.8 8 C 228.3 8.5 227.7 8.7 227 8.7 C 226.2 8.7 225.5 8.4 224.9 8 Z M 228.7 4.7 C 228.7 4.7 228.7 4.6 228.7 4.6 C 228.7 3.7 227.9 3.1 227 3.1 C 226.1 3.1 225.4 3.7 225.4 4.6 C 225.4 4.6 225.4 4.6 225.4 4.6 C 225.4 5.6 226.1 6.2 227 6.2 C 227.9 6.2 228.7 5.6 228.7 4.7 Z M 230.6 4.1 L 233.1 4.1 L 233.1 4.9 L 230.6 4.9 L 230.6 4.1 Z M 234.7 3.1 L 234 3.1 L 234 2.5 L 234.7 2.5 C 234.7 2.5 234.65 2.14 234.7 2.1 C 234.7 1.6 234.8 1.2 235.1 1 C 235.3 0.7 235.6 0.6 236.1 0.6 C 236.4 0.6 236.6 0.6 236.8 0.7 C 236.8 0.7 236.8 1.3 236.8 1.3 C 236.6 1.2 236.4 1.2 236.1 1.2 C 235.6 1.2 235.3 1.5 235.3 2.2 C 235.34 2.19 235.3 2.6 235.3 2.6 L 236.8 2.6 L 236.8 3.1 L 235.3 3.1 L 235.3 7.2 L 234.7 7.2 L 234.7 3.1 Z M 237.8 2.5 L 238.4 2.5 L 238.4 7.2 L 237.8 7.2 L 237.8 2.5 Z M 237.7 0.8 L 238.5 0.8 L 238.5 1.5 L 237.7 1.5 L 237.7 0.8 Z M 240 0.6 L 240.7 0.6 L 240.7 7.2 L 240 7.2 L 240 0.6 Z M 242 4.9 C 242 4.9 242 4.9 242 4.9 C 242 3.5 242.9 2.4 244.2 2.4 C 245.6 2.4 246.4 3.5 246.4 4.9 C 246.4 5 246.4 5 246.4 5.1 C 246.4 5.1 242.7 5.1 242.7 5.1 C 242.8 6.1 243.5 6.7 244.3 6.7 C 244.9 6.7 245.4 6.4 245.8 6 C 245.8 6 246.2 6.4 246.2 6.4 C 245.7 7 245.2 7.3 244.3 7.3 C 243 7.3 242 6.3 242 4.9 Z M 245.7 4.6 C 245.6 3.8 245.1 3 244.2 3 C 243.4 3 242.8 3.7 242.7 4.6 C 242.7 4.6 245.7 4.6 245.7 4.6 Z M 250 2.5 L 250.7 2.5 C 250.7 2.5 250.73 3.36 250.7 3.4 C 251 2.9 251.5 2.4 252.3 2.4 C 253.5 2.4 254.1 3.2 254.1 4.3 C 254.11 4.31 254.1 7.2 254.1 7.2 L 253.4 7.2 C 253.4 7.2 253.42 4.48 253.4 4.5 C 253.4 3.6 252.9 3.1 252.1 3.1 C 251.3 3.1 250.7 3.7 250.7 4.5 C 250.73 4.54 250.7 7.2 250.7 7.2 L 250 7.2 L 250 2.5 Z M 255.4 8 C 255.4 8 255.8 7.5 255.8 7.5 C 256.3 7.9 256.9 8.1 257.5 8.1 C 258.6 8.1 259.2 7.5 259.2 6.4 C 259.2 6.4 259.2 5.9 259.2 5.9 C 258.8 6.4 258.3 6.8 257.4 6.8 C 256.3 6.8 255.2 6 255.2 4.7 C 255.2 4.7 255.2 4.6 255.2 4.6 C 255.2 3.3 256.3 2.4 257.4 2.4 C 258.3 2.4 258.9 2.9 259.2 3.4 C 259.23 3.38 259.2 2.5 259.2 2.5 L 259.9 2.5 C 259.9 2.5 259.92 6.39 259.9 6.4 C 259.9 7.1 259.7 7.7 259.3 8 C 258.9 8.5 258.3 8.7 257.6 8.7 C 256.8 8.7 256.1 8.4 255.4 8 Z M 259.3 4.7 C 259.3 4.7 259.3 4.6 259.3 4.6 C 259.3 3.7 258.4 3.1 257.5 3.1 C 256.7 3.1 255.9 3.7 255.9 4.6 C 255.9 4.6 255.9 4.6 255.9 4.6 C 255.9 5.6 256.7 6.2 257.5 6.2 C 258.4 6.2 259.3 5.6 259.3 4.7 Z M 264 0.6 L 264.7 0.6 L 264.7 7.2 L 264 7.2 L 264 0.6 Z M 265.9 4.9 C 265.9 4.9 265.9 4.9 265.9 4.9 C 265.9 3.5 266.9 2.4 268.1 2.4 C 269.5 2.4 270.3 3.5 270.3 4.9 C 270.3 5 270.3 5 270.3 5.1 C 270.3 5.1 266.6 5.1 266.6 5.1 C 266.7 6.1 267.4 6.7 268.3 6.7 C 268.9 6.7 269.3 6.4 269.7 6 C 269.7 6 270.2 6.4 270.2 6.4 C 269.7 7 269.1 7.3 268.2 7.3 C 267 7.3 265.9 6.3 265.9 4.9 Z M 269.6 4.6 C 269.5 3.8 269.1 3 268.1 3 C 267.3 3 266.7 3.7 266.6 4.6 C 266.6 4.6 269.6 4.6 269.6 4.6 Z M 271.1 5.8 C 271.1 5.8 271.1 5.8 271.1 5.8 C 271.1 4.9 271.9 4.3 273.1 4.3 C 273.7 4.3 274.1 4.4 274.5 4.5 C 274.5 4.5 274.5 4.4 274.5 4.4 C 274.5 3.5 274 3.1 273.1 3.1 C 272.6 3.1 272.1 3.2 271.7 3.4 C 271.7 3.4 271.5 2.9 271.5 2.9 C 272 2.6 272.5 2.5 273.2 2.5 C 273.9 2.5 274.4 2.7 274.7 3 C 275 3.3 275.2 3.8 275.2 4.4 C 275.18 4.36 275.2 7.2 275.2 7.2 L 274.5 7.2 C 274.5 7.2 274.51 6.5 274.5 6.5 C 274.2 6.9 273.6 7.3 272.8 7.3 C 272 7.3 271.1 6.8 271.1 5.8 Z M 274.5 5.5 C 274.5 5.5 274.5 5 274.5 5 C 274.2 4.9 273.7 4.8 273.2 4.8 C 272.3 4.8 271.8 5.2 271.8 5.8 C 271.8 5.8 271.8 5.8 271.8 5.8 C 271.8 6.4 272.3 6.8 273 6.8 C 273.8 6.8 274.5 6.2 274.5 5.5 Z M 275.9 2.5 L 276.7 2.5 L 278.3 6.4 L 279.8 2.5 L 280.6 2.5 L 278.6 7.2 L 277.9 7.2 L 275.9 2.5 Z M 281 4.9 C 281 4.9 281 4.9 281 4.9 C 281 3.5 282 2.4 283.3 2.4 C 284.6 2.4 285.4 3.5 285.4 4.9 C 285.4 5 285.4 5 285.4 5.1 C 285.4 5.1 281.7 5.1 281.7 5.1 C 281.8 6.1 282.5 6.7 283.4 6.7 C 284 6.7 284.4 6.4 284.8 6 C 284.8 6 285.3 6.4 285.3 6.4 C 284.8 7 284.2 7.3 283.3 7.3 C 282.1 7.3 281 6.3 281 4.9 Z M 284.7 4.6 C 284.6 3.8 284.2 3 283.2 3 C 282.4 3 281.8 3.7 281.7 4.6 C 281.7 4.6 284.7 4.6 284.7 4.6 Z M 288.8 4.9 C 288.8 4.9 288.8 4.9 288.8 4.9 C 288.8 3.6 289.8 2.4 291.2 2.4 C 292.6 2.4 293.7 3.5 293.7 4.9 C 293.7 4.9 293.7 4.9 293.7 4.9 C 293.7 6.2 292.6 7.3 291.2 7.3 C 289.8 7.3 288.8 6.2 288.8 4.9 Z M 292.9 4.9 C 292.9 4.9 292.9 4.9 292.9 4.9 C 292.9 3.9 292.2 3.1 291.2 3.1 C 290.2 3.1 289.5 3.9 289.5 4.9 C 289.5 4.9 289.5 4.9 289.5 4.9 C 289.5 5.9 290.3 6.7 291.2 6.7 C 292.2 6.7 292.9 5.9 292.9 4.9 Z M 295.1 3.1 L 294.4 3.1 L 294.4 2.5 L 295.1 2.5 C 295.1 2.5 295.08 2.14 295.1 2.1 C 295.1 1.6 295.2 1.2 295.5 1 C 295.7 0.7 296.1 0.6 296.5 0.6 C 296.8 0.6 297 0.6 297.2 0.7 C 297.2 0.7 297.2 1.3 297.2 1.3 C 297 1.2 296.8 1.2 296.6 1.2 C 296 1.2 295.8 1.5 295.8 2.2 C 295.76 2.19 295.8 2.6 295.8 2.6 L 297.2 2.6 L 297.2 3.1 L 295.8 3.1 L 295.8 7.2 L 295.1 7.2 L 295.1 3.1 Z M 300.2 5.8 C 300.2 5.8 300.2 5.8 300.2 5.8 C 300.2 4.9 301 4.3 302.2 4.3 C 302.8 4.3 303.2 4.4 303.6 4.5 C 303.6 4.5 303.6 4.4 303.6 4.4 C 303.6 3.5 303.1 3.1 302.3 3.1 C 301.7 3.1 301.3 3.2 300.8 3.4 C 300.8 3.4 300.6 2.9 300.6 2.9 C 301.2 2.6 301.7 2.5 302.3 2.5 C 303 2.5 303.5 2.7 303.8 3 C 304.1 3.3 304.3 3.8 304.3 4.4 C 304.31 4.36 304.3 7.2 304.3 7.2 L 303.6 7.2 C 303.6 7.2 303.64 6.5 303.6 6.5 C 303.3 6.9 302.8 7.3 302 7.3 C 301.1 7.3 300.2 6.8 300.2 5.8 Z M 303.7 5.5 C 303.7 5.5 303.7 5 303.7 5 C 303.3 4.9 302.9 4.8 302.3 4.8 C 301.4 4.8 300.9 5.2 300.9 5.8 C 300.9 5.8 300.9 5.8 300.9 5.8 C 300.9 6.4 301.5 6.8 302.1 6.8 C 303 6.8 303.7 6.2 303.7 5.5 Z M 306.4 6.3 C 306.39 6.31 306.4 7.2 306.4 7.2 L 305.7 7.2 L 305.7 0.6 L 306.4 0.6 C 306.4 0.6 306.39 3.48 306.4 3.5 C 306.8 2.9 307.3 2.4 308.2 2.4 C 309.3 2.4 310.4 3.3 310.4 4.9 C 310.4 4.9 310.4 4.9 310.4 4.9 C 310.4 6.4 309.3 7.3 308.2 7.3 C 307.3 7.3 306.7 6.8 306.4 6.3 Z M 309.7 4.9 C 309.7 4.9 309.7 4.9 309.7 4.9 C 309.7 3.8 308.9 3.1 308 3.1 C 307.2 3.1 306.4 3.8 306.4 4.9 C 306.4 4.9 306.4 4.9 306.4 4.9 C 306.4 6 307.2 6.7 308 6.7 C 308.9 6.7 309.7 6 309.7 4.9 Z M 311.2 6.6 C 311.2 6.6 311.5 6.1 311.5 6.1 C 312 6.5 312.6 6.7 313.2 6.7 C 313.7 6.7 314.1 6.4 314.1 6 C 314.1 6 314.1 5.9 314.1 5.9 C 314.1 5.5 313.6 5.3 313 5.1 C 312.2 4.9 311.4 4.7 311.4 3.8 C 311.4 3.8 311.4 3.8 311.4 3.8 C 311.4 3 312.1 2.5 313 2.5 C 313.6 2.5 314.2 2.7 314.7 3 C 314.7 3 314.4 3.5 314.4 3.5 C 313.9 3.2 313.4 3.1 313 3.1 C 312.4 3.1 312.1 3.3 312.1 3.7 C 312.1 3.7 312.1 3.7 312.1 3.7 C 312.1 4.2 312.7 4.4 313.3 4.5 C 314 4.8 314.8 5 314.8 5.9 C 314.8 5.9 314.8 5.9 314.8 5.9 C 314.8 6.8 314 7.3 313.1 7.3 C 312.5 7.3 311.7 7 311.2 6.6 Z M 315.7 4.9 C 315.7 4.9 315.7 4.9 315.7 4.9 C 315.7 3.5 316.6 2.4 317.9 2.4 C 319.3 2.4 320.1 3.5 320.1 4.9 C 320.1 5 320.1 5 320.1 5.1 C 320.1 5.1 316.4 5.1 316.4 5.1 C 316.5 6.1 317.2 6.7 318 6.7 C 318.7 6.7 319.1 6.4 319.5 6 C 319.5 6 319.9 6.4 319.9 6.4 C 319.5 7 318.9 7.3 318 7.3 C 316.7 7.3 315.7 6.3 315.7 4.9 Z M 319.4 4.6 C 319.3 3.8 318.8 3 317.9 3 C 317.1 3 316.5 3.7 316.4 4.6 C 316.4 4.6 319.4 4.6 319.4 4.6 Z M 321.2 2.5 L 321.9 2.5 C 321.9 2.5 321.9 3.36 321.9 3.4 C 322.2 2.9 322.7 2.4 323.5 2.4 C 324.6 2.4 325.3 3.2 325.3 4.3 C 325.28 4.31 325.3 7.2 325.3 7.2 L 324.6 7.2 C 324.6 7.2 324.59 4.48 324.6 4.5 C 324.6 3.6 324.1 3.1 323.3 3.1 C 322.5 3.1 321.9 3.7 321.9 4.5 C 321.9 4.54 321.9 7.2 321.9 7.2 L 321.2 7.2 L 321.2 2.5 Z M 326.4 4.9 C 326.4 4.9 326.4 4.9 326.4 4.9 C 326.4 3.6 327.4 2.4 328.8 2.4 C 329.6 2.4 330.2 2.8 330.6 3.3 C 330.6 3.3 330.2 3.8 330.2 3.8 C 329.8 3.4 329.4 3.1 328.8 3.1 C 327.8 3.1 327.1 3.9 327.1 4.9 C 327.1 4.9 327.1 4.9 327.1 4.9 C 327.1 5.9 327.8 6.7 328.8 6.7 C 329.4 6.7 329.9 6.4 330.2 6 C 330.2 6 330.7 6.4 330.7 6.4 C 330.2 6.9 329.6 7.3 328.8 7.3 C 327.4 7.3 326.4 6.2 326.4 4.9 Z M 331.3 4.9 C 331.3 4.9 331.3 4.9 331.3 4.9 C 331.3 3.5 332.2 2.4 333.5 2.4 C 334.9 2.4 335.7 3.5 335.7 4.9 C 335.7 5 335.7 5 335.7 5.1 C 335.7 5.1 332 5.1 332 5.1 C 332.1 6.1 332.8 6.7 333.6 6.7 C 334.3 6.7 334.7 6.4 335.1 6 C 335.1 6 335.5 6.4 335.5 6.4 C 335.1 7 334.5 7.3 333.6 7.3 C 332.3 7.3 331.3 6.3 331.3 4.9 Z M 335 4.6 C 334.9 3.8 334.4 3 333.5 3 C 332.7 3 332.1 3.7 332 4.6 C 332 4.6 335 4.6 335 4.6 Z M 339 6.6 C 339 6.6 339.3 6.1 339.3 6.1 C 339.8 6.5 340.4 6.7 340.9 6.7 C 341.5 6.7 341.9 6.4 341.9 6 C 341.9 6 341.9 5.9 341.9 5.9 C 341.9 5.5 341.4 5.3 340.7 5.1 C 340 4.9 339.2 4.7 339.2 3.8 C 339.2 3.8 339.2 3.8 339.2 3.8 C 339.2 3 339.9 2.5 340.8 2.5 C 341.4 2.5 342 2.7 342.5 3 C 342.5 3 342.1 3.5 342.1 3.5 C 341.7 3.2 341.2 3.1 340.8 3.1 C 340.2 3.1 339.9 3.3 339.9 3.7 C 339.9 3.7 339.9 3.7 339.9 3.7 C 339.9 4.2 340.4 4.4 341.1 4.5 C 341.8 4.8 342.6 5 342.6 5.9 C 342.6 5.9 342.6 5.9 342.6 5.9 C 342.6 6.8 341.8 7.3 340.9 7.3 C 340.2 7.3 339.5 7 339 6.6 Z M 343.4 5.8 C 343.4 5.8 343.4 5.8 343.4 5.8 C 343.4 4.9 344.2 4.3 345.4 4.3 C 346 4.3 346.4 4.4 346.8 4.5 C 346.8 4.5 346.8 4.4 346.8 4.4 C 346.8 3.5 346.3 3.1 345.4 3.1 C 344.9 3.1 344.5 3.2 344 3.4 C 344 3.4 343.8 2.9 343.8 2.9 C 344.3 2.6 344.8 2.5 345.5 2.5 C 346.2 2.5 346.7 2.7 347 3 C 347.3 3.3 347.5 3.8 347.5 4.4 C 347.49 4.36 347.5 7.2 347.5 7.2 L 346.8 7.2 C 346.8 7.2 346.83 6.5 346.8 6.5 C 346.5 6.9 346 7.3 345.1 7.3 C 344.3 7.3 343.4 6.8 343.4 5.8 Z M 346.8 5.5 C 346.8 5.5 346.8 5 346.8 5 C 346.5 4.9 346 4.8 345.5 4.8 C 344.6 4.8 344.1 5.2 344.1 5.8 C 344.1 5.8 344.1 5.8 344.1 5.8 C 344.1 6.4 344.6 6.8 345.3 6.8 C 346.1 6.8 346.8 6.2 346.8 5.5 Z M 351.4 0.6 L 352.1 0.6 L 352.1 5.2 L 354.6 2.5 L 355.5 2.5 L 353.5 4.5 L 355.6 7.2 L 354.7 7.2 L 353.1 5 L 352.1 6 L 352.1 7.2 L 351.4 7.2 L 351.4 0.6 Z M 356 5.8 C 356 5.8 356 5.8 356 5.8 C 356 4.9 356.8 4.3 358 4.3 C 358.6 4.3 359 4.4 359.4 4.5 C 359.4 4.5 359.4 4.4 359.4 4.4 C 359.4 3.5 358.9 3.1 358 3.1 C 357.5 3.1 357.1 3.2 356.6 3.4 C 356.6 3.4 356.4 2.9 356.4 2.9 C 356.9 2.6 357.4 2.5 358.1 2.5 C 358.8 2.5 359.3 2.7 359.6 3 C 359.9 3.3 360.1 3.8 360.1 4.4 C 360.1 4.36 360.1 7.2 360.1 7.2 L 359.4 7.2 C 359.4 7.2 359.43 6.5 359.4 6.5 C 359.1 6.9 358.6 7.3 357.8 7.3 C 356.9 7.3 356 6.8 356 5.8 Z M 359.4 5.5 C 359.4 5.5 359.4 5 359.4 5 C 359.1 4.9 358.6 4.8 358.1 4.8 C 357.2 4.8 356.7 5.2 356.7 5.8 C 356.7 5.8 356.7 5.8 356.7 5.8 C 356.7 6.4 357.3 6.8 357.9 6.8 C 358.7 6.8 359.4 6.2 359.4 5.5 Z M 361.5 0.6 L 362.2 0.6 L 362.2 7.2 L 361.5 7.2 L 361.5 0.6 Z M 363.4 5.8 C 363.4 5.8 363.4 5.8 363.4 5.8 C 363.4 4.9 364.2 4.3 365.4 4.3 C 366 4.3 366.4 4.4 366.8 4.5 C 366.8 4.5 366.8 4.4 366.8 4.4 C 366.8 3.5 366.3 3.1 365.4 3.1 C 364.9 3.1 364.5 3.2 364 3.4 C 364 3.4 363.8 2.9 363.8 2.9 C 364.3 2.6 364.8 2.5 365.5 2.5 C 366.2 2.5 366.7 2.7 367 3 C 367.3 3.3 367.5 3.8 367.5 4.4 C 367.5 4.36 367.5 7.2 367.5 7.2 L 366.8 7.2 C 366.8 7.2 366.83 6.5 366.8 6.5 C 366.5 6.9 366 7.3 365.1 7.3 C 364.3 7.3 363.4 6.8 363.4 5.8 Z M 366.8 5.5 C 366.8 5.5 366.8 5 366.8 5 C 366.5 4.9 366 4.8 365.5 4.8 C 364.6 4.8 364.1 5.2 364.1 5.8 C 364.1 5.8 364.1 5.8 364.1 5.8 C 364.1 6.4 364.7 6.8 365.3 6.8 C 366.1 6.8 366.8 6.2 366.8 5.5 Z M 368.8 8 C 368.8 8 369.1 7.5 369.1 7.5 C 369.7 7.9 370.3 8.1 370.9 8.1 C 372 8.1 372.6 7.5 372.6 6.4 C 372.6 6.4 372.6 5.9 372.6 5.9 C 372.2 6.4 371.7 6.8 370.8 6.8 C 369.7 6.8 368.6 6 368.6 4.7 C 368.6 4.7 368.6 4.6 368.6 4.6 C 368.6 3.3 369.7 2.4 370.8 2.4 C 371.7 2.4 372.2 2.9 372.6 3.4 C 372.62 3.38 372.6 2.5 372.6 2.5 L 373.3 2.5 C 373.3 2.5 373.31 6.39 373.3 6.4 C 373.3 7.1 373.1 7.7 372.7 8 C 372.3 8.5 371.7 8.7 370.9 8.7 C 370.2 8.7 369.4 8.4 368.8 8 Z M 372.6 4.7 C 372.6 4.7 372.6 4.6 372.6 4.6 C 372.6 3.7 371.8 3.1 370.9 3.1 C 370.1 3.1 369.3 3.7 369.3 4.6 C 369.3 4.6 369.3 4.6 369.3 4.6 C 369.3 5.6 370.1 6.2 370.9 6.2 C 371.8 6.2 372.6 5.6 372.6 4.7 Z M 374.8 0.8 L 375.6 0.8 L 375.6 1.5 L 374.8 1.5 L 374.8 0.8 Z M 374.8 2.5 L 375.5 2.5 L 375.5 7.2 L 374.8 7.2 L 374.8 2.5 Z M 377.3 6 C 377.29 5.97 377.3 3.2 377.3 3.2 L 376.6 3.2 L 376.6 2.5 L 377.3 2.5 L 377.3 1.1 L 378 1.1 L 378 2.5 L 379.5 2.5 L 379.5 3.2 L 378 3.2 C 378 3.2 377.98 5.88 378 5.9 C 378 6.4 378.3 6.7 378.8 6.7 C 379 6.7 379.2 6.6 379.4 6.5 C 379.4 6.5 379.4 7.1 379.4 7.1 C 379.2 7.2 378.9 7.3 378.6 7.3 C 377.9 7.3 377.3 6.9 377.3 6 Z M 380.6 2.5 L 381.3 2.5 C 381.3 2.5 381.28 3.36 381.3 3.4 C 381.6 2.9 382.1 2.4 382.9 2.4 C 384 2.4 384.7 3.2 384.7 4.3 C 384.66 4.31 384.7 7.2 384.7 7.2 L 384 7.2 C 384 7.2 383.97 4.48 384 4.5 C 384 3.6 383.5 3.1 382.7 3.1 C 381.9 3.1 381.3 3.7 381.3 4.5 C 381.28 4.54 381.3 7.2 381.3 7.2 L 380.6 7.2 L 380.6 2.5 Z M 385.7 5.8 C 385.7 5.8 385.7 5.8 385.7 5.8 C 385.7 4.9 386.5 4.3 387.7 4.3 C 388.3 4.3 388.7 4.4 389.1 4.5 C 389.1 4.5 389.1 4.4 389.1 4.4 C 389.1 3.5 388.6 3.1 387.7 3.1 C 387.2 3.1 386.7 3.2 386.3 3.4 C 386.3 3.4 386.1 2.9 386.1 2.9 C 386.6 2.6 387.1 2.5 387.8 2.5 C 388.5 2.5 389 2.7 389.3 3 C 389.6 3.3 389.8 3.8 389.8 4.4 C 389.78 4.36 389.8 7.2 389.8 7.2 L 389.1 7.2 C 389.1 7.2 389.12 6.5 389.1 6.5 C 388.8 6.9 388.3 7.3 387.4 7.3 C 386.6 7.3 385.7 6.8 385.7 5.8 Z M 389.1 5.5 C 389.1 5.5 389.1 5 389.1 5 C 388.8 4.9 388.3 4.8 387.8 4.8 C 386.9 4.8 386.4 5.2 386.4 5.8 C 386.4 5.8 386.4 5.8 386.4 5.8 C 386.4 6.4 386.9 6.8 387.6 6.8 C 388.4 6.8 389.1 6.2 389.1 5.5 Z M 390.8 5.8 C 390.8 5.8 390.8 5.8 390.8 5.8 C 390.8 4.9 391.6 4.3 392.8 4.3 C 393.4 4.3 393.8 4.4 394.2 4.5 C 394.2 4.5 394.2 4.4 394.2 4.4 C 394.2 3.5 393.7 3.1 392.8 3.1 C 392.3 3.1 391.9 3.2 391.4 3.4 C 391.4 3.4 391.2 2.9 391.2 2.9 C 391.7 2.6 392.2 2.5 392.9 2.5 C 393.6 2.5 394.1 2.7 394.4 3 C 394.7 3.3 394.9 3.8 394.9 4.4 C 394.9 4.36 394.9 7.2 394.9 7.2 L 394.2 7.2 C 394.2 7.2 394.24 6.5 394.2 6.5 C 393.9 6.9 393.4 7.3 392.6 7.3 C 391.7 7.3 390.8 6.8 390.8 5.8 Z M 394.2 5.5 C 394.2 5.5 394.2 5 394.2 5 C 393.9 4.9 393.4 4.8 392.9 4.8 C 392 4.8 391.5 5.2 391.5 5.8 C 391.5 5.8 391.5 5.8 391.5 5.8 C 391.5 6.4 392.1 6.8 392.7 6.8 C 393.5 6.8 394.2 6.2 394.2 5.5 Z M 396.3 2.5 L 397 2.5 C 397 2.5 396.98 3.36 397 3.4 C 397.3 2.9 397.8 2.4 398.6 2.4 C 399.7 2.4 400.4 3.2 400.4 4.3 C 400.36 4.31 400.4 7.2 400.4 7.2 L 399.7 7.2 C 399.7 7.2 399.66 4.48 399.7 4.5 C 399.7 3.6 399.2 3.1 398.4 3.1 C 397.6 3.1 397 3.7 397 4.5 C 396.98 4.54 397 7.2 397 7.2 L 396.3 7.2 L 396.3 2.5 Z M 404.3 2.5 L 405 2.5 C 405 2.5 404.98 3.36 405 3.4 C 405.3 2.9 405.8 2.4 406.6 2.4 C 407.7 2.4 408.4 3.2 408.4 4.3 C 408.36 4.31 408.4 7.2 408.4 7.2 L 407.7 7.2 C 407.7 7.2 407.66 4.48 407.7 4.5 C 407.7 3.6 407.2 3.1 406.4 3.1 C 405.6 3.1 405 3.7 405 4.5 C 404.98 4.54 405 7.2 405 7.2 L 404.3 7.2 L 404.3 2.5 Z M 409.7 8 C 409.7 8 410 7.5 410 7.5 C 410.5 7.9 411.1 8.1 411.8 8.1 C 412.8 8.1 413.5 7.5 413.5 6.4 C 413.5 6.4 413.5 5.9 413.5 5.9 C 413.1 6.4 412.5 6.8 411.7 6.8 C 410.5 6.8 409.5 6 409.5 4.7 C 409.5 4.7 409.5 4.6 409.5 4.6 C 409.5 3.3 410.6 2.4 411.7 2.4 C 412.5 2.4 413.1 2.9 413.5 3.4 C 413.48 3.38 413.5 2.5 413.5 2.5 L 414.2 2.5 C 414.2 2.5 414.17 6.39 414.2 6.4 C 414.2 7.1 414 7.7 413.6 8 C 413.2 8.5 412.5 8.7 411.8 8.7 C 411 8.7 410.3 8.4 409.7 8 Z M 413.5 4.7 C 413.5 4.7 413.5 4.6 413.5 4.6 C 413.5 3.7 412.7 3.1 411.8 3.1 C 410.9 3.1 410.2 3.7 410.2 4.6 C 410.2 4.6 410.2 4.6 410.2 4.6 C 410.2 5.6 410.9 6.2 411.8 6.2 C 412.7 6.2 413.5 5.6 413.5 4.7 Z M 418.2 2.5 L 418.9 2.5 C 418.9 2.5 418.87 3.48 418.9 3.5 C 419.2 2.9 419.8 2.4 420.7 2.4 C 421.8 2.4 422.9 3.3 422.9 4.9 C 422.9 4.9 422.9 4.9 422.9 4.9 C 422.9 6.4 421.8 7.3 420.7 7.3 C 419.8 7.3 419.2 6.8 418.9 6.3 C 418.87 6.31 418.9 8.6 418.9 8.6 L 418.2 8.6 L 418.2 2.5 Z M 422.2 4.9 C 422.2 4.9 422.2 4.9 422.2 4.9 C 422.2 3.8 421.4 3.1 420.5 3.1 C 419.7 3.1 418.8 3.8 418.8 4.9 C 418.8 4.9 418.8 4.9 418.8 4.9 C 418.8 6 419.7 6.7 420.5 6.7 C 421.4 6.7 422.2 6 422.2 4.9 Z M 423.7 5.8 C 423.7 5.8 423.7 5.8 423.7 5.8 C 423.7 4.9 424.5 4.3 425.7 4.3 C 426.3 4.3 426.7 4.4 427.1 4.5 C 427.1 4.5 427.1 4.4 427.1 4.4 C 427.1 3.5 426.6 3.1 425.7 3.1 C 425.2 3.1 424.8 3.2 424.3 3.4 C 424.3 3.4 424.1 2.9 424.1 2.9 C 424.6 2.6 425.1 2.5 425.8 2.5 C 426.5 2.5 427 2.7 427.3 3 C 427.6 3.3 427.8 3.8 427.8 4.4 C 427.8 4.36 427.8 7.2 427.8 7.2 L 427.1 7.2 C 427.1 7.2 427.13 6.5 427.1 6.5 C 426.8 6.9 426.3 7.3 425.4 7.3 C 424.6 7.3 423.7 6.8 423.7 5.8 Z M 427.1 5.5 C 427.1 5.5 427.1 5 427.1 5 C 426.8 4.9 426.3 4.8 425.8 4.8 C 424.9 4.8 424.4 5.2 424.4 5.8 C 424.4 5.8 424.4 5.8 424.4 5.8 C 424.4 6.4 425 6.8 425.6 6.8 C 426.4 6.8 427.1 6.2 427.1 5.5 Z M 429.1 8 C 429.1 8 429.4 7.5 429.4 7.5 C 430 7.9 430.6 8.1 431.2 8.1 C 432.3 8.1 432.9 7.5 432.9 6.4 C 432.9 6.4 432.9 5.9 432.9 5.9 C 432.5 6.4 432 6.8 431.1 6.8 C 430 6.8 428.9 6 428.9 4.7 C 428.9 4.7 428.9 4.6 428.9 4.6 C 428.9 3.3 430 2.4 431.1 2.4 C 432 2.4 432.5 2.9 432.9 3.4 C 432.92 3.38 432.9 2.5 432.9 2.5 L 433.6 2.5 C 433.6 2.5 433.61 6.39 433.6 6.4 C 433.6 7.1 433.4 7.7 433 8 C 432.6 8.5 432 8.7 431.2 8.7 C 430.5 8.7 429.7 8.4 429.1 8 Z M 432.9 4.7 C 432.9 4.7 432.9 4.6 432.9 4.6 C 432.9 3.7 432.1 3.1 431.2 3.1 C 430.4 3.1 429.6 3.7 429.6 4.6 C 429.6 4.6 429.6 4.6 429.6 4.6 C 429.6 5.6 430.4 6.2 431.2 6.2 C 432.1 6.2 432.9 5.6 432.9 4.7 Z M 434.7 6.6 C 434.7 6.6 435 6.1 435 6.1 C 435.5 6.5 436.1 6.7 436.6 6.7 C 437.2 6.7 437.6 6.4 437.6 6 C 437.6 6 437.6 5.9 437.6 5.9 C 437.6 5.5 437.1 5.3 436.4 5.1 C 435.7 4.9 434.9 4.7 434.9 3.8 C 434.9 3.8 434.9 3.8 434.9 3.8 C 434.9 3 435.6 2.5 436.5 2.5 C 437.1 2.5 437.7 2.7 438.2 3 C 438.2 3 437.8 3.5 437.8 3.5 C 437.4 3.2 436.9 3.1 436.5 3.1 C 435.9 3.1 435.6 3.3 435.6 3.7 C 435.6 3.7 435.6 3.7 435.6 3.7 C 435.6 4.2 436.1 4.4 436.8 4.5 C 437.5 4.8 438.3 5 438.3 5.9 C 438.3 5.9 438.3 5.9 438.3 5.9 C 438.3 6.8 437.5 7.3 436.6 7.3 C 435.9 7.3 435.2 7 434.7 6.6 Z M 439.1 5.8 C 439.1 5.8 439.1 5.8 439.1 5.8 C 439.1 4.9 439.9 4.3 441.1 4.3 C 441.7 4.3 442.1 4.4 442.5 4.5 C 442.5 4.5 442.5 4.4 442.5 4.4 C 442.5 3.5 442 3.1 441.1 3.1 C 440.6 3.1 440.2 3.2 439.7 3.4 C 439.7 3.4 439.5 2.9 439.5 2.9 C 440 2.6 440.5 2.5 441.2 2.5 C 441.9 2.5 442.4 2.7 442.7 3 C 443 3.3 443.2 3.8 443.2 4.4 C 443.19 4.36 443.2 7.2 443.2 7.2 L 442.5 7.2 C 442.5 7.2 442.53 6.5 442.5 6.5 C 442.2 6.9 441.7 7.3 440.8 7.3 C 440 7.3 439.1 6.8 439.1 5.8 Z M 442.5 5.5 C 442.5 5.5 442.5 5 442.5 5 C 442.2 4.9 441.7 4.8 441.2 4.8 C 440.3 4.8 439.8 5.2 439.8 5.8 C 439.8 5.8 439.8 5.8 439.8 5.8 C 439.8 6.4 440.4 6.8 441 6.8 C 441.8 6.8 442.5 6.2 442.5 5.5 Z M 444.2 6.6 C 444.2 6.6 444.5 6.1 444.5 6.1 C 445 6.5 445.6 6.7 446.2 6.7 C 446.7 6.7 447.1 6.4 447.1 6 C 447.1 6 447.1 5.9 447.1 5.9 C 447.1 5.5 446.6 5.3 446 5.1 C 445.2 4.9 444.4 4.7 444.4 3.8 C 444.4 3.8 444.4 3.8 444.4 3.8 C 444.4 3 445.1 2.5 446 2.5 C 446.6 2.5 447.2 2.7 447.7 3 C 447.7 3 447.4 3.5 447.4 3.5 C 446.9 3.2 446.4 3.1 446 3.1 C 445.4 3.1 445.1 3.3 445.1 3.7 C 445.1 3.7 445.1 3.7 445.1 3.7 C 445.1 4.2 445.7 4.4 446.3 4.5 C 447 4.8 447.8 5 447.8 5.9 C 447.8 5.9 447.8 5.9 447.8 5.9 C 447.8 6.8 447 7.3 446.1 7.3 C 445.5 7.3 444.7 7 444.2 6.6 Z M 448.6 5.8 C 448.6 5.8 448.6 5.8 448.6 5.8 C 448.6 4.9 449.4 4.3 450.6 4.3 C 451.2 4.3 451.6 4.4 452 4.5 C 452 4.5 452 4.4 452 4.4 C 452 3.5 451.5 3.1 450.7 3.1 C 450.1 3.1 449.7 3.2 449.2 3.4 C 449.2 3.4 449 2.9 449 2.9 C 449.5 2.6 450.1 2.5 450.7 2.5 C 451.4 2.5 451.9 2.7 452.2 3 C 452.5 3.3 452.7 3.8 452.7 4.4 C 452.71 4.36 452.7 7.2 452.7 7.2 L 452 7.2 C 452 7.2 452.04 6.5 452 6.5 C 451.7 6.9 451.2 7.3 450.4 7.3 C 449.5 7.3 448.6 6.8 448.6 5.8 Z M 452.1 5.5 C 452.1 5.5 452.1 5 452.1 5 C 451.7 4.9 451.2 4.8 450.7 4.8 C 449.8 4.8 449.3 5.2 449.3 5.8 C 449.3 5.8 449.3 5.8 449.3 5.8 C 449.3 6.4 449.9 6.8 450.5 6.8 C 451.3 6.8 452.1 6.2 452.1 5.5 Z M 454 8 C 454 8 454.4 7.5 454.4 7.5 C 454.9 7.9 455.5 8.1 456.1 8.1 C 457.2 8.1 457.8 7.5 457.8 6.4 C 457.8 6.4 457.8 5.9 457.8 5.9 C 457.4 6.4 456.9 6.8 456 6.8 C 454.9 6.8 453.8 6 453.8 4.7 C 453.8 4.7 453.8 4.6 453.8 4.6 C 453.8 3.3 454.9 2.4 456 2.4 C 456.9 2.4 457.5 2.9 457.8 3.4 C 457.83 3.38 457.8 2.5 457.8 2.5 L 458.5 2.5 C 458.5 2.5 458.52 6.39 458.5 6.4 C 458.5 7.1 458.3 7.7 457.9 8 C 457.5 8.5 456.9 8.7 456.2 8.7 C 455.4 8.7 454.7 8.4 454 8 Z M 457.9 4.7 C 457.9 4.7 457.9 4.6 457.9 4.6 C 457.9 3.7 457 3.1 456.1 3.1 C 455.3 3.1 454.5 3.7 454.5 4.6 C 454.5 4.6 454.5 4.6 454.5 4.6 C 454.5 5.6 455.3 6.2 456.1 6.2 C 457 6.2 457.9 5.6 457.9 4.7 Z M 459.6 5.8 C 459.6 5.8 459.6 5.8 459.6 5.8 C 459.6 4.9 460.4 4.3 461.6 4.3 C 462.2 4.3 462.6 4.4 463 4.5 C 463 4.5 463 4.4 463 4.4 C 463 3.5 462.5 3.1 461.7 3.1 C 461.1 3.1 460.7 3.2 460.2 3.4 C 460.2 3.4 460 2.9 460 2.9 C 460.6 2.6 461.1 2.5 461.7 2.5 C 462.4 2.5 462.9 2.7 463.2 3 C 463.6 3.3 463.7 3.8 463.7 4.4 C 463.71 4.36 463.7 7.2 463.7 7.2 L 463 7.2 C 463 7.2 463.05 6.5 463 6.5 C 462.7 6.9 462.2 7.3 461.4 7.3 C 460.5 7.3 459.6 6.8 459.6 5.8 Z M 463.1 5.5 C 463.1 5.5 463.1 5 463.1 5 C 462.7 4.9 462.3 4.8 461.7 4.8 C 460.8 4.8 460.3 5.2 460.3 5.8 C 460.3 5.8 460.3 5.8 460.3 5.8 C 460.3 6.4 460.9 6.8 461.5 6.8 C 462.4 6.8 463.1 6.2 463.1 5.5 Z M 464.5 2.5 L 465.3 2.5 L 466.5 6.3 L 467.7 2.5 L 468.3 2.5 L 469.6 6.3 L 470.8 2.5 L 471.5 2.5 L 469.9 7.2 L 469.3 7.2 L 468 3.6 L 466.8 7.2 L 466.2 7.2 L 464.5 2.5 Z M 472 5.8 C 472 5.8 472 5.8 472 5.8 C 472 4.9 472.9 4.3 474 4.3 C 474.6 4.3 475.1 4.4 475.5 4.5 C 475.5 4.5 475.5 4.4 475.5 4.4 C 475.5 3.5 475 3.1 474.1 3.1 C 473.5 3.1 473.1 3.2 472.7 3.4 C 472.7 3.4 472.5 2.9 472.5 2.9 C 473 2.6 473.5 2.5 474.2 2.5 C 474.8 2.5 475.3 2.7 475.7 3 C 476 3.3 476.1 3.8 476.1 4.4 C 476.13 4.36 476.1 7.2 476.1 7.2 L 475.5 7.2 C 475.5 7.2 475.47 6.5 475.5 6.5 C 475.1 6.9 474.6 7.3 473.8 7.3 C 472.9 7.3 472 6.8 472 5.8 Z M 475.5 5.5 C 475.5 5.5 475.5 5 475.5 5 C 475.1 4.9 474.7 4.8 474.1 4.8 C 473.2 4.8 472.7 5.2 472.7 5.8 C 472.7 5.8 472.7 5.8 472.7 5.8 C 472.7 6.4 473.3 6.8 473.9 6.8 C 474.8 6.8 475.5 6.2 475.5 5.5 Z M 480.1 2.5 L 480.8 2.5 C 480.8 2.5 480.76 3.36 480.8 3.4 C 481.1 2.9 481.6 2.4 482.4 2.4 C 483.5 2.4 484.1 3.2 484.1 4.3 C 484.13 4.31 484.1 7.2 484.1 7.2 L 483.4 7.2 C 483.4 7.2 483.44 4.48 483.4 4.5 C 483.4 3.6 483 3.1 482.2 3.1 C 481.4 3.1 480.8 3.7 480.8 4.5 C 480.76 4.54 480.8 7.2 480.8 7.2 L 480.1 7.2 L 480.1 2.5 Z M 485.5 8 C 485.5 8 485.8 7.5 485.8 7.5 C 486.3 7.9 486.9 8.1 487.6 8.1 C 488.6 8.1 489.3 7.5 489.3 6.4 C 489.3 6.4 489.3 5.9 489.3 5.9 C 488.9 6.4 488.3 6.8 487.4 6.8 C 486.3 6.8 485.3 6 485.3 4.7 C 485.3 4.7 485.3 4.6 485.3 4.6 C 485.3 3.3 486.3 2.4 487.4 2.4 C 488.3 2.4 488.9 2.9 489.3 3.4 C 489.26 3.38 489.3 2.5 489.3 2.5 L 489.9 2.5 C 489.9 2.5 489.95 6.39 489.9 6.4 C 489.9 7.1 489.7 7.7 489.4 8 C 488.9 8.5 488.3 8.7 487.6 8.7 C 486.8 8.7 486.1 8.4 485.5 8 Z M 489.3 4.7 C 489.3 4.7 489.3 4.6 489.3 4.6 C 489.3 3.7 488.5 3.1 487.6 3.1 C 486.7 3.1 486 3.7 486 4.6 C 486 4.6 486 4.6 486 4.6 C 486 5.6 486.7 6.2 487.6 6.2 C 488.5 6.2 489.3 5.6 489.3 4.7 Z M 493.7 4.9 C 493.7 4.9 493.7 4.9 493.7 4.9 C 493.7 3.6 494.7 2.4 496.1 2.4 C 497.5 2.4 498.5 3.5 498.5 4.9 C 498.5 4.9 498.5 4.9 498.5 4.9 C 498.5 6.2 497.5 7.3 496.1 7.3 C 494.7 7.3 493.7 6.2 493.7 4.9 Z M 497.8 4.9 C 497.8 4.9 497.8 4.9 497.8 4.9 C 497.8 3.9 497.1 3.1 496.1 3.1 C 495.1 3.1 494.4 3.9 494.4 4.9 C 494.4 4.9 494.4 4.9 494.4 4.9 C 494.4 5.9 495.1 6.7 496.1 6.7 C 497.1 6.7 497.8 5.9 497.8 4.9 Z M 499.7 2.5 L 500.4 2.5 C 500.4 2.5 500.37 3.36 500.4 3.4 C 500.7 2.9 501.2 2.4 502 2.4 C 503.1 2.4 503.7 3.2 503.7 4.3 C 503.74 4.31 503.7 7.2 503.7 7.2 L 503.1 7.2 C 503.1 7.2 503.05 4.48 503.1 4.5 C 503.1 3.6 502.6 3.1 501.8 3.1 C 501 3.1 500.4 3.7 500.4 4.5 C 500.37 4.54 500.4 7.2 500.4 7.2 L 499.7 7.2 L 499.7 2.5 Z M 505.2 0.6 L 505.9 0.6 L 505.9 7.2 L 505.2 7.2 L 505.2 0.6 Z M 507.4 0.8 L 508.2 0.8 L 508.2 1.5 L 507.4 1.5 L 507.4 0.8 Z M 507.5 2.5 L 508.2 2.5 L 508.2 7.2 L 507.5 7.2 L 507.5 2.5 Z M 509.7 2.5 L 510.4 2.5 C 510.4 2.5 510.38 3.36 510.4 3.4 C 510.7 2.9 511.2 2.4 512 2.4 C 513.1 2.4 513.8 3.2 513.8 4.3 C 513.75 4.31 513.8 7.2 513.8 7.2 L 513.1 7.2 C 513.1 7.2 513.06 4.48 513.1 4.5 C 513.1 3.6 512.6 3.1 511.8 3.1 C 511 3.1 510.4 3.7 510.4 4.5 C 510.38 4.54 510.4 7.2 510.4 7.2 L 509.7 7.2 L 509.7 2.5 Z M 514.9 4.9 C 514.9 4.9 514.9 4.9 514.9 4.9 C 514.9 3.5 515.8 2.4 517.1 2.4 C 518.5 2.4 519.3 3.5 519.3 4.9 C 519.3 5 519.3 5 519.2 5.1 C 519.2 5.1 515.6 5.1 515.6 5.1 C 515.7 6.1 516.4 6.7 517.2 6.7 C 517.8 6.7 518.3 6.4 518.7 6 C 518.7 6 519.1 6.4 519.1 6.4 C 518.6 7 518.1 7.3 517.2 7.3 C 515.9 7.3 514.9 6.3 514.9 4.9 Z M 518.6 4.6 C 518.5 3.8 518 3 517.1 3 C 516.3 3 515.6 3.7 515.6 4.6 C 515.6 4.6 518.6 4.6 518.6 4.6 Z M 522.6 4.9 C 522.6 4.9 522.6 4.9 522.6 4.9 C 522.6 3.6 523.7 2.4 525 2.4 C 525.9 2.4 526.5 2.8 526.9 3.3 C 526.9 3.3 526.4 3.8 526.4 3.8 C 526.1 3.4 525.6 3.1 525 3.1 C 524.1 3.1 523.3 3.9 523.3 4.9 C 523.3 4.9 523.3 4.9 523.3 4.9 C 523.3 5.9 524.1 6.7 525.1 6.7 C 525.7 6.7 526.1 6.4 526.5 6 C 526.5 6 526.9 6.4 526.9 6.4 C 526.5 6.9 525.9 7.3 525 7.3 C 523.7 7.3 522.6 6.2 522.6 4.9 Z M 528 0.6 L 528.7 0.6 L 528.7 7.2 L 528 7.2 L 528 0.6 Z M 529.9 5.8 C 529.9 5.8 529.9 5.8 529.9 5.8 C 529.9 4.9 530.7 4.3 531.9 4.3 C 532.5 4.3 532.9 4.4 533.3 4.5 C 533.3 4.5 533.3 4.4 533.3 4.4 C 533.3 3.5 532.8 3.1 531.9 3.1 C 531.4 3.1 531 3.2 530.5 3.4 C 530.5 3.4 530.3 2.9 530.3 2.9 C 530.8 2.6 531.3 2.5 532 2.5 C 532.7 2.5 533.2 2.7 533.5 3 C 533.8 3.3 534 3.8 534 4.4 C 533.98 4.36 534 7.2 534 7.2 L 533.3 7.2 C 533.3 7.2 533.32 6.5 533.3 6.5 C 533 6.9 532.5 7.3 531.6 7.3 C 530.8 7.3 529.9 6.8 529.9 5.8 Z M 533.3 5.5 C 533.3 5.5 533.3 5 533.3 5 C 533 4.9 532.5 4.8 532 4.8 C 531.1 4.8 530.6 5.2 530.6 5.8 C 530.6 5.8 530.6 5.8 530.6 5.8 C 530.6 6.4 531.1 6.8 531.8 6.8 C 532.6 6.8 533.3 6.2 533.3 5.5 Z M 535 6.6 C 535 6.6 535.3 6.1 535.3 6.1 C 535.8 6.5 536.4 6.7 536.9 6.7 C 537.5 6.7 537.9 6.4 537.9 6 C 537.9 6 537.9 5.9 537.9 5.9 C 537.9 5.5 537.4 5.3 536.7 5.1 C 536 4.9 535.2 4.7 535.2 3.8 C 535.2 3.8 535.2 3.8 535.2 3.8 C 535.2 3 535.9 2.5 536.8 2.5 C 537.4 2.5 538 2.7 538.5 3 C 538.5 3 538.2 3.5 538.2 3.5 C 537.7 3.2 537.2 3.1 536.8 3.1 C 536.2 3.1 535.9 3.3 535.9 3.7 C 535.9 3.7 535.9 3.7 535.9 3.7 C 535.9 4.2 536.5 4.4 537.1 4.5 C 537.8 4.8 538.6 5 538.6 5.9 C 538.6 5.9 538.6 5.9 538.6 5.9 C 538.6 6.8 537.8 7.3 536.9 7.3 C 536.2 7.3 535.5 7 535 6.6 Z M 539.3 6.6 C 539.3 6.6 539.6 6.1 539.6 6.1 C 540.1 6.5 540.7 6.7 541.2 6.7 C 541.8 6.7 542.2 6.4 542.2 6 C 542.2 6 542.2 5.9 542.2 5.9 C 542.2 5.5 541.7 5.3 541 5.1 C 540.3 4.9 539.5 4.7 539.5 3.8 C 539.5 3.8 539.5 3.8 539.5 3.8 C 539.5 3 540.2 2.5 541.1 2.5 C 541.7 2.5 542.3 2.7 542.8 3 C 542.8 3 542.5 3.5 542.5 3.5 C 542 3.2 541.5 3.1 541.1 3.1 C 540.5 3.1 540.2 3.3 540.2 3.7 C 540.2 3.7 540.2 3.7 540.2 3.7 C 540.2 4.2 540.8 4.4 541.4 4.5 C 542.1 4.8 542.9 5 542.9 5.9 C 542.9 5.9 542.9 5.9 542.9 5.9 C 542.9 6.8 542.1 7.3 541.2 7.3 C 540.5 7.3 539.8 7 539.3 6.6 Z M 543.8 4.9 C 543.8 4.9 543.8 4.9 543.8 4.9 C 543.8 3.5 544.7 2.4 546 2.4 C 547.4 2.4 548.2 3.5 548.2 4.9 C 548.2 5 548.2 5 548.2 5.1 C 548.2 5.1 544.5 5.1 544.5 5.1 C 544.6 6.1 545.3 6.7 546.1 6.7 C 546.8 6.7 547.2 6.4 547.6 6 C 547.6 6 548 6.4 548 6.4 C 547.5 7 547 7.3 546.1 7.3 C 544.8 7.3 543.8 6.3 543.8 4.9 Z M 547.5 4.6 C 547.4 3.8 546.9 3 546 3 C 545.2 3 544.6 3.7 544.5 4.6 C 544.5 4.6 547.5 4.6 547.5 4.6 Z M 548.9 6.6 C 548.9 6.6 549.3 6.1 549.3 6.1 C 549.8 6.5 550.3 6.7 550.9 6.7 C 551.4 6.7 551.8 6.4 551.8 6 C 551.8 6 551.8 5.9 551.8 5.9 C 551.8 5.5 551.3 5.3 550.7 5.1 C 549.9 4.9 549.1 4.7 549.1 3.8 C 549.1 3.8 549.1 3.8 549.1 3.8 C 549.1 3 549.8 2.5 550.7 2.5 C 551.3 2.5 551.9 2.7 552.4 3 C 552.4 3 552.1 3.5 552.1 3.5 C 551.7 3.2 551.2 3.1 550.7 3.1 C 550.2 3.1 549.8 3.3 549.8 3.7 C 549.8 3.7 549.8 3.7 549.8 3.7 C 549.8 4.2 550.4 4.4 551 4.5 C 551.7 4.8 552.5 5 552.5 5.9 C 552.5 5.9 552.5 5.9 552.5 5.9 C 552.5 6.8 551.8 7.3 550.8 7.3 C 550.2 7.3 549.4 7 548.9 6.6 Z M 555.9 6.6 C 555.9 6.6 556.2 6.1 556.2 6.1 C 556.7 6.5 557.3 6.7 557.8 6.7 C 558.4 6.7 558.8 6.4 558.8 6 C 558.8 6 558.8 5.9 558.8 5.9 C 558.8 5.5 558.2 5.3 557.6 5.1 C 556.9 4.9 556.1 4.7 556.1 3.8 C 556.1 3.8 556.1 3.8 556.1 3.8 C 556.1 3 556.7 2.5 557.7 2.5 C 558.2 2.5 558.9 2.7 559.3 3 C 559.3 3 559 3.5 559 3.5 C 558.6 3.2 558.1 3.1 557.6 3.1 C 557.1 3.1 556.7 3.3 556.7 3.7 C 556.7 3.7 556.7 3.7 556.7 3.7 C 556.7 4.2 557.3 4.4 557.9 4.5 C 558.7 4.8 559.4 5 559.4 5.9 C 559.4 5.9 559.4 5.9 559.4 5.9 C 559.4 6.8 558.7 7.3 557.8 7.3 C 557.1 7.3 556.4 7 555.9 6.6 Z M 560.3 5.8 C 560.3 5.8 560.3 5.8 560.3 5.8 C 560.3 4.9 561.1 4.3 562.3 4.3 C 562.9 4.3 563.3 4.4 563.7 4.5 C 563.7 4.5 563.7 4.4 563.7 4.4 C 563.7 3.5 563.2 3.1 562.3 3.1 C 561.8 3.1 561.3 3.2 560.9 3.4 C 560.9 3.4 560.7 2.9 560.7 2.9 C 561.2 2.6 561.7 2.5 562.4 2.5 C 563 2.5 563.5 2.7 563.9 3 C 564.2 3.3 564.4 3.8 564.4 4.4 C 564.37 4.36 564.4 7.2 564.4 7.2 L 563.7 7.2 C 563.7 7.2 563.7 6.5 563.7 6.5 C 563.4 6.9 562.8 7.3 562 7.3 C 561.2 7.3 560.3 6.8 560.3 5.8 Z M 563.7 5.5 C 563.7 5.5 563.7 5 563.7 5 C 563.4 4.9 562.9 4.8 562.3 4.8 C 561.5 4.8 561 5.2 561 5.8 C 561 5.8 561 5.8 561 5.8 C 561 6.4 561.5 6.8 562.2 6.8 C 563 6.8 563.7 6.2 563.7 5.5 Z M 568.4 0.9 C 568.4 0.9 570.78 0.9 570.8 0.9 C 572.2 0.9 573.1 1.7 573.1 2.9 C 573.1 2.9 573.1 2.9 573.1 2.9 C 573.1 4.3 572 5 570.7 5 C 570.66 4.98 569.1 5 569.1 5 L 569.1 7.2 L 568.4 7.2 L 568.4 0.9 Z M 570.7 4.3 C 571.7 4.3 572.4 3.8 572.4 2.9 C 572.4 2.9 572.4 2.9 572.4 2.9 C 572.4 2 571.7 1.6 570.7 1.6 C 570.72 1.56 569.1 1.6 569.1 1.6 L 569.1 4.3 C 569.1 4.3 570.69 4.33 570.7 4.3 Z M 573.8 5.8 C 573.8 5.8 573.8 5.8 573.8 5.8 C 573.8 4.9 574.6 4.3 575.8 4.3 C 576.4 4.3 576.8 4.4 577.2 4.5 C 577.2 4.5 577.2 4.4 577.2 4.4 C 577.2 3.5 576.7 3.1 575.8 3.1 C 575.3 3.1 574.8 3.2 574.4 3.4 C 574.4 3.4 574.2 2.9 574.2 2.9 C 574.7 2.6 575.2 2.5 575.9 2.5 C 576.5 2.5 577 2.7 577.4 3 C 577.7 3.3 577.9 3.8 577.9 4.4 C 577.87 4.36 577.9 7.2 577.9 7.2 L 577.2 7.2 C 577.2 7.2 577.2 6.5 577.2 6.5 C 576.9 6.9 576.3 7.3 575.5 7.3 C 574.7 7.3 573.8 6.8 573.8 5.8 Z M 577.2 5.5 C 577.2 5.5 577.2 5 577.2 5 C 576.9 4.9 576.4 4.8 575.8 4.8 C 575 4.8 574.5 5.2 574.5 5.8 C 574.5 5.8 574.5 5.8 574.5 5.8 C 574.5 6.4 575 6.8 575.7 6.8 C 576.5 6.8 577.2 6.2 577.2 5.5 Z M 579.3 2.5 L 579.9 2.5 C 579.9 2.5 579.95 3.33 579.9 3.3 C 580.3 2.9 580.7 2.4 581.4 2.4 C 582.2 2.4 582.7 2.9 582.9 3.4 C 583.3 2.9 583.8 2.4 584.6 2.4 C 585.7 2.4 586.3 3.2 586.3 4.3 C 586.31 4.32 586.3 7.2 586.3 7.2 L 585.6 7.2 C 585.6 7.2 585.62 4.48 585.6 4.5 C 585.6 3.6 585.2 3.1 584.4 3.1 C 583.7 3.1 583.1 3.6 583.1 4.5 C 583.13 4.52 583.1 7.2 583.1 7.2 L 582.4 7.2 C 582.4 7.2 582.44 4.46 582.4 4.5 C 582.4 3.6 582 3.1 581.2 3.1 C 580.5 3.1 579.9 3.7 579.9 4.5 C 579.95 4.54 579.9 7.2 579.9 7.2 L 579.3 7.2 L 579.3 2.5 Z M 587.4 5.8 C 587.4 5.8 587.4 5.8 587.4 5.8 C 587.4 4.9 588.2 4.3 589.4 4.3 C 590 4.3 590.4 4.4 590.8 4.5 C 590.8 4.5 590.8 4.4 590.8 4.4 C 590.8 3.5 590.3 3.1 589.4 3.1 C 588.9 3.1 588.4 3.2 588 3.4 C 588 3.4 587.8 2.9 587.8 2.9 C 588.3 2.6 588.8 2.5 589.5 2.5 C 590.1 2.5 590.6 2.7 591 3 C 591.3 3.3 591.5 3.8 591.5 4.4 C 591.46 4.36 591.5 7.2 591.5 7.2 L 590.8 7.2 C 590.8 7.2 590.79 6.5 590.8 6.5 C 590.5 6.9 589.9 7.3 589.1 7.3 C 588.2 7.3 587.4 6.8 587.4 5.8 Z M 590.8 5.5 C 590.8 5.5 590.8 5 590.8 5 C 590.5 4.9 590 4.8 589.4 4.8 C 588.6 4.8 588.1 5.2 588.1 5.8 C 588.1 5.8 588.1 5.8 588.1 5.8 C 588.1 6.4 588.6 6.8 589.2 6.8 C 590.1 6.8 590.8 6.2 590.8 5.5 Z M 592.8 2.5 L 593.5 2.5 C 593.5 2.5 593.54 3.36 593.5 3.4 C 593.8 2.9 594.3 2.4 595.1 2.4 C 596.3 2.4 596.9 3.2 596.9 4.3 C 596.91 4.31 596.9 7.2 596.9 7.2 L 596.2 7.2 C 596.2 7.2 596.22 4.48 596.2 4.5 C 596.2 3.6 595.8 3.1 594.9 3.1 C 594.1 3.1 593.5 3.7 593.5 4.5 C 593.54 4.54 593.5 7.2 593.5 7.2 L 592.8 7.2 L 592.8 2.5 Z M 598.5 6 C 598.54 5.97 598.5 3.2 598.5 3.2 L 597.9 3.2 L 597.9 2.5 L 598.5 2.5 L 598.5 1.1 L 599.2 1.1 L 599.2 2.5 L 600.7 2.5 L 600.7 3.2 L 599.2 3.2 C 599.2 3.2 599.23 5.88 599.2 5.9 C 599.2 6.4 599.5 6.7 600 6.7 C 600.2 6.7 600.4 6.6 600.7 6.5 C 600.7 6.5 600.7 7.1 600.7 7.1 C 600.4 7.2 600.2 7.3 599.9 7.3 C 599.1 7.3 598.5 6.9 598.5 6 Z M 601.5 5.8 C 601.5 5.8 601.5 5.8 601.5 5.8 C 601.5 4.9 602.3 4.3 603.5 4.3 C 604.1 4.3 604.5 4.4 604.9 4.5 C 604.9 4.5 604.9 4.4 604.9 4.4 C 604.9 3.5 604.4 3.1 603.5 3.1 C 603 3.1 602.5 3.2 602.1 3.4 C 602.1 3.4 601.9 2.9 601.9 2.9 C 602.4 2.6 602.9 2.5 603.6 2.5 C 604.3 2.5 604.8 2.7 605.1 3 C 605.4 3.3 605.6 3.8 605.6 4.4 C 605.58 4.36 605.6 7.2 605.6 7.2 L 604.9 7.2 C 604.9 7.2 604.91 6.5 604.9 6.5 C 604.6 6.9 604 7.3 603.2 7.3 C 602.4 7.3 601.5 6.8 601.5 5.8 Z M 604.9 5.5 C 604.9 5.5 604.9 5 604.9 5 C 604.6 4.9 604.1 4.8 603.6 4.8 C 602.7 4.8 602.2 5.2 602.2 5.8 C 602.2 5.8 602.2 5.8 602.2 5.8 C 602.2 6.4 602.7 6.8 603.4 6.8 C 604.2 6.8 604.9 6.2 604.9 5.5 Z M 606.6 6.6 C 606.6 6.6 606.9 6.1 606.9 6.1 C 607.4 6.5 608 6.7 608.5 6.7 C 609.1 6.7 609.5 6.4 609.5 6 C 609.5 6 609.5 5.9 609.5 5.9 C 609.5 5.5 609 5.3 608.3 5.1 C 607.6 4.9 606.8 4.7 606.8 3.8 C 606.8 3.8 606.8 3.8 606.8 3.8 C 606.8 3 607.5 2.5 608.4 2.5 C 609 2.5 609.6 2.7 610.1 3 C 610.1 3 609.7 3.5 609.7 3.5 C 609.3 3.2 608.8 3.1 608.4 3.1 C 607.8 3.1 607.5 3.3 607.5 3.7 C 607.5 3.7 607.5 3.7 607.5 3.7 C 607.5 4.2 608 4.4 608.7 4.5 C 609.4 4.8 610.2 5 610.2 5.9 C 610.2 5.9 610.2 5.9 610.2 5.9 C 610.2 6.8 609.4 7.3 608.5 7.3 C 607.8 7.3 607.1 7 606.6 6.6 Z M 611 5.8 C 611 5.8 611 5.8 611 5.8 C 611 4.9 611.8 4.3 613 4.3 C 613.6 4.3 614 4.4 614.4 4.5 C 614.4 4.5 614.4 4.4 614.4 4.4 C 614.4 3.5 613.9 3.1 613 3.1 C 612.5 3.1 612.1 3.2 611.6 3.4 C 611.6 3.4 611.4 2.9 611.4 2.9 C 611.9 2.6 612.4 2.5 613.1 2.5 C 613.8 2.5 614.3 2.7 614.6 3 C 614.9 3.3 615.1 3.8 615.1 4.4 C 615.09 4.36 615.1 7.2 615.1 7.2 L 614.4 7.2 C 614.4 7.2 614.43 6.5 614.4 6.5 C 614.1 6.9 613.6 7.3 612.7 7.3 C 611.9 7.3 611 6.8 611 5.8 Z M 614.4 5.5 C 614.4 5.5 614.4 5 614.4 5 C 614.1 4.9 613.6 4.8 613.1 4.8 C 612.2 4.8 611.7 5.2 611.7 5.8 C 611.7 5.8 611.7 5.8 611.7 5.8 C 611.7 6.4 612.2 6.8 612.9 6.8 C 613.7 6.8 614.4 6.2 614.4 5.5 Z M 616.5 2.5 L 617.2 2.5 C 617.2 2.5 617.17 3.36 617.2 3.4 C 617.5 2.9 618 2.4 618.8 2.4 C 619.9 2.4 620.5 3.2 620.5 4.3 C 620.54 4.31 620.5 7.2 620.5 7.2 L 619.9 7.2 C 619.9 7.2 619.85 4.48 619.9 4.5 C 619.9 3.6 619.4 3.1 618.6 3.1 C 617.8 3.1 617.2 3.7 617.2 4.5 C 617.17 4.54 617.2 7.2 617.2 7.2 L 616.5 7.2 L 616.5 2.5 Z M 621.9 8 C 621.9 8 622.2 7.5 622.2 7.5 C 622.7 7.9 623.3 8.1 624 8.1 C 625 8.1 625.7 7.5 625.7 6.4 C 625.7 6.4 625.7 5.9 625.7 5.9 C 625.3 6.4 624.7 6.8 623.8 6.8 C 622.7 6.8 621.7 6 621.7 4.7 C 621.7 4.7 621.7 4.6 621.7 4.6 C 621.7 3.3 622.7 2.4 623.8 2.4 C 624.7 2.4 625.3 2.9 625.7 3.4 C 625.67 3.38 625.7 2.5 625.7 2.5 L 626.4 2.5 C 626.4 2.5 626.36 6.39 626.4 6.4 C 626.4 7.1 626.1 7.7 625.8 8 C 625.4 8.5 624.7 8.7 624 8.7 C 623.2 8.7 622.5 8.4 621.9 8 Z M 625.7 4.7 C 625.7 4.7 625.7 4.6 625.7 4.6 C 625.7 3.7 624.9 3.1 624 3.1 C 623.1 3.1 622.4 3.7 622.4 4.6 C 622.4 4.6 622.4 4.6 622.4 4.6 C 622.4 5.6 623.1 6.2 624 6.2 C 624.9 6.2 625.7 5.6 625.7 4.7 Z M 630.5 0.9 C 630.5 0.9 632.67 0.9 632.7 0.9 C 634.6 0.9 636 2.3 636 4 C 636 4 636 4 636 4 C 636 5.8 634.6 7.2 632.7 7.2 C 632.67 7.2 630.5 7.2 630.5 7.2 L 630.5 0.9 Z M 631.2 1.6 L 631.2 6.5 C 631.2 6.5 632.67 6.54 632.7 6.5 C 634.3 6.5 635.3 5.5 635.3 4.1 C 635.3 4.1 635.3 4 635.3 4 C 635.3 2.7 634.3 1.6 632.7 1.6 C 632.67 1.56 631.2 1.6 631.2 1.6 Z M 637 4.9 C 637 4.9 637 4.9 637 4.9 C 637 3.5 638 2.4 639.3 2.4 C 640.6 2.4 641.4 3.5 641.4 4.9 C 641.4 5 641.4 5 641.4 5.1 C 641.4 5.1 637.7 5.1 637.7 5.1 C 637.8 6.1 638.5 6.7 639.4 6.7 C 640 6.7 640.5 6.4 640.8 6 C 640.8 6 641.3 6.4 641.3 6.4 C 640.8 7 640.2 7.3 639.3 7.3 C 638.1 7.3 637 6.3 637 4.9 Z M 640.7 4.6 C 640.7 3.8 640.2 3 639.2 3 C 638.4 3 637.8 3.7 637.7 4.6 C 637.7 4.6 640.7 4.6 640.7 4.6 Z M 645.2 0.9 L 645.9 0.9 L 645.9 6.5 L 649.5 6.5 L 649.5 7.2 L 645.2 7.2 L 645.2 0.9 Z M 650.2 5.8 C 650.2 5.8 650.2 5.8 650.2 5.8 C 650.2 4.9 651 4.3 652.2 4.3 C 652.8 4.3 653.2 4.4 653.6 4.5 C 653.6 4.5 653.6 4.4 653.6 4.4 C 653.6 3.5 653.1 3.1 652.3 3.1 C 651.7 3.1 651.3 3.2 650.8 3.4 C 650.8 3.4 650.6 2.9 650.6 2.9 C 651.2 2.6 651.7 2.5 652.3 2.5 C 653 2.5 653.5 2.7 653.8 3 C 654.1 3.3 654.3 3.8 654.3 4.4 C 654.31 4.36 654.3 7.2 654.3 7.2 L 653.6 7.2 C 653.6 7.2 653.65 6.5 653.6 6.5 C 653.3 6.9 652.8 7.3 652 7.3 C 651.1 7.3 650.2 6.8 650.2 5.8 Z M 653.7 5.5 C 653.7 5.5 653.7 5 653.7 5 C 653.3 4.9 652.9 4.8 652.3 4.8 C 651.4 4.8 650.9 5.2 650.9 5.8 C 650.9 5.8 650.9 5.8 650.9 5.8 C 650.9 6.4 651.5 6.8 652.1 6.8 C 653 6.8 653.7 6.2 653.7 5.5 Z M 657.9 6.3 C 657.9 6.3 658.4 5.8 658.4 5.8 C 659 6.4 659.7 6.7 660.5 6.7 C 661.4 6.7 662 6.2 662 5.6 C 662 5.6 662 5.6 662 5.6 C 662 5 661.6 4.6 660.3 4.4 C 658.9 4 658.2 3.6 658.2 2.5 C 658.2 2.5 658.2 2.5 658.2 2.5 C 658.2 1.5 659.1 0.8 660.3 0.8 C 661.2 0.8 661.8 1.1 662.5 1.6 C 662.5 1.6 662.1 2.1 662.1 2.1 C 661.5 1.7 660.9 1.4 660.3 1.4 C 659.4 1.4 658.9 1.9 658.9 2.5 C 658.9 2.5 658.9 2.5 658.9 2.5 C 658.9 3.1 659.2 3.4 660.6 3.7 C 662 4 662.7 4.5 662.7 5.5 C 662.7 5.5 662.7 5.5 662.7 5.5 C 662.7 6.6 661.8 7.3 660.5 7.3 C 659.5 7.3 658.7 7 657.9 6.3 Z M 663.6 5.8 C 663.6 5.8 663.6 5.8 663.6 5.8 C 663.6 4.9 664.4 4.3 665.6 4.3 C 666.1 4.3 666.6 4.4 667 4.5 C 667 4.5 667 4.4 667 4.4 C 667 3.5 666.5 3.1 665.6 3.1 C 665 3.1 664.6 3.2 664.2 3.4 C 664.2 3.4 664 2.9 664 2.9 C 664.5 2.6 665 2.5 665.7 2.5 C 666.3 2.5 666.8 2.7 667.2 3 C 667.5 3.3 667.6 3.8 667.6 4.4 C 667.65 4.36 667.6 7.2 667.6 7.2 L 667 7.2 C 667 7.2 666.98 6.5 667 6.5 C 666.7 6.9 666.1 7.3 665.3 7.3 C 664.4 7.3 663.6 6.8 663.6 5.8 Z M 667 5.5 C 667 5.5 667 5 667 5 C 666.7 4.9 666.2 4.8 665.6 4.8 C 664.8 4.8 664.3 5.2 664.3 5.8 C 664.3 5.8 664.3 5.8 664.3 5.8 C 664.3 6.4 664.8 6.8 665.4 6.8 C 666.3 6.8 667 6.2 667 5.5 Z M 669.1 0.6 L 669.8 0.6 L 669.8 7.2 L 669.1 7.2 L 669.1 0.6 Z M 671.4 0.6 L 672.1 0.6 L 672.1 7.2 L 671.4 7.2 L 671.4 0.6 Z M 673.3 4.9 C 673.3 4.9 673.3 4.9 673.3 4.9 C 673.3 3.5 674.2 2.4 675.5 2.4 C 676.9 2.4 677.7 3.5 677.7 4.9 C 677.7 5 677.7 5 677.7 5.1 C 677.7 5.1 674 5.1 674 5.1 C 674.1 6.1 674.8 6.7 675.6 6.7 C 676.3 6.7 676.7 6.4 677.1 6 C 677.1 6 677.5 6.4 677.5 6.4 C 677.1 7 676.5 7.3 675.6 7.3 C 674.3 7.3 673.3 6.3 673.3 4.9 Z M 677 4.6 C 676.9 3.8 676.4 3 675.5 3 C 674.7 3 674.1 3.7 674 4.6 C 674 4.6 677 4.6 677 4.6 Z M 681.4 2.5 L 682.1 2.5 C 682.1 2.5 682.07 3.36 682.1 3.4 C 682.4 2.9 682.9 2.4 683.7 2.4 C 684.8 2.4 685.4 3.2 685.4 4.3 C 685.44 4.31 685.4 7.2 685.4 7.2 L 684.7 7.2 C 684.7 7.2 684.75 4.48 684.7 4.5 C 684.7 3.6 684.3 3.1 683.5 3.1 C 682.7 3.1 682.1 3.7 682.1 4.5 C 682.07 4.54 682.1 7.2 682.1 7.2 L 681.4 7.2 L 681.4 2.5 Z M 686.8 8 C 686.8 8 687.1 7.5 687.1 7.5 C 687.6 7.9 688.2 8.1 688.9 8.1 C 689.9 8.1 690.6 7.5 690.6 6.4 C 690.6 6.4 690.6 5.9 690.6 5.9 C 690.2 6.4 689.6 6.8 688.7 6.8 C 687.6 6.8 686.6 6 686.6 4.7 C 686.6 4.7 686.6 4.6 686.6 4.6 C 686.6 3.3 687.6 2.4 688.7 2.4 C 689.6 2.4 690.2 2.9 690.6 3.4 C 690.56 3.38 690.6 2.5 690.6 2.5 L 691.3 2.5 C 691.3 2.5 691.25 6.39 691.3 6.4 C 691.3 7.1 691 7.7 690.7 8 C 690.2 8.5 689.6 8.7 688.9 8.7 C 688.1 8.7 687.4 8.4 686.8 8 Z M 690.6 4.7 C 690.6 4.7 690.6 4.6 690.6 4.6 C 690.6 3.7 689.8 3.1 688.9 3.1 C 688 3.1 687.3 3.7 687.3 4.6 C 687.3 4.6 687.3 4.6 687.3 4.6 C 687.3 5.6 688 6.2 688.9 6.2 C 689.8 6.2 690.6 5.6 690.6 4.7 Z M 692.4 5.8 C 692.4 5.8 692.4 5.8 692.4 5.8 C 692.4 4.9 693.2 4.3 694.4 4.3 C 694.9 4.3 695.4 4.4 695.8 4.5 C 695.8 4.5 695.8 4.4 695.8 4.4 C 695.8 3.5 695.3 3.1 694.4 3.1 C 693.8 3.1 693.4 3.2 693 3.4 C 693 3.4 692.8 2.9 692.8 2.9 C 693.3 2.6 693.8 2.5 694.5 2.5 C 695.1 2.5 695.6 2.7 696 3 C 696.3 3.3 696.4 3.8 696.4 4.4 C 696.45 4.36 696.4 7.2 696.4 7.2 L 695.8 7.2 C 695.8 7.2 695.78 6.5 695.8 6.5 C 695.5 6.9 694.9 7.3 694.1 7.3 C 693.2 7.3 692.4 6.8 692.4 5.8 Z M 695.8 5.5 C 695.8 5.5 695.8 5 695.8 5 C 695.4 4.9 695 4.8 694.4 4.8 C 693.6 4.8 693.1 5.2 693.1 5.8 C 693.1 5.8 693.1 5.8 693.1 5.8 C 693.1 6.4 693.6 6.8 694.2 6.8 C 695.1 6.8 695.8 6.2 695.8 5.5 Z M 701.1 2.5 L 701.9 2.5 C 701.9 2.5 699.92 7.35 699.9 7.4 C 699.5 8.3 699.1 8.7 698.4 8.7 C 698 8.7 697.7 8.6 697.4 8.4 C 697.4 8.4 697.6 7.9 697.6 7.9 C 697.8 8 698.1 8.1 698.3 8.1 C 698.8 8.1 699 7.8 699.3 7.2 C 699.3 7.18 697.2 2.5 697.2 2.5 L 698 2.5 L 699.6 6.4 L 701.1 2.5 Z M 702.3 4.9 C 702.3 4.9 702.3 4.9 702.3 4.9 C 702.3 3.6 703.4 2.4 704.8 2.4 C 706.2 2.4 707.2 3.5 707.2 4.9 C 707.2 4.9 707.2 4.9 707.2 4.9 C 707.2 6.2 706.1 7.3 704.7 7.3 C 703.3 7.3 702.3 6.2 702.3 4.9 Z M 706.5 4.9 C 706.5 4.9 706.5 4.9 706.5 4.9 C 706.5 3.9 705.7 3.1 704.7 3.1 C 703.7 3.1 703 3.9 703 4.9 C 703 4.9 703 4.9 703 4.9 C 703 5.9 703.8 6.7 704.8 6.7 C 705.8 6.7 706.5 5.9 706.5 4.9 Z M 708.3 2.5 L 709 2.5 C 709 2.5 709.03 3.36 709 3.4 C 709.3 2.9 709.8 2.4 710.6 2.4 C 711.7 2.4 712.4 3.2 712.4 4.3 C 712.4 4.31 712.4 7.2 712.4 7.2 L 711.7 7.2 C 711.7 7.2 711.71 4.48 711.7 4.5 C 711.7 3.6 711.2 3.1 710.4 3.1 C 709.6 3.1 709 3.7 709 4.5 C 709.03 4.54 709 7.2 709 7.2 L 708.3 7.2 L 708.3 2.5 Z M 713.7 8 C 713.7 8 714.1 7.5 714.1 7.5 C 714.6 7.9 715.2 8.1 715.8 8.1 C 716.9 8.1 717.5 7.5 717.5 6.4 C 717.5 6.4 717.5 5.9 717.5 5.9 C 717.1 6.4 716.6 6.8 715.7 6.8 C 714.6 6.8 713.5 6 713.5 4.7 C 713.5 4.7 713.5 4.6 713.5 4.6 C 713.5 3.3 714.6 2.4 715.7 2.4 C 716.6 2.4 717.1 2.9 717.5 3.4 C 717.53 3.38 717.5 2.5 717.5 2.5 L 718.2 2.5 C 718.2 2.5 718.22 6.39 718.2 6.4 C 718.2 7.1 718 7.7 717.6 8 C 717.2 8.5 716.6 8.7 715.9 8.7 C 715.1 8.7 714.4 8.4 713.7 8 Z M 717.6 4.7 C 717.6 4.7 717.6 4.6 717.6 4.6 C 717.6 3.7 716.7 3.1 715.8 3.1 C 715 3.1 714.2 3.7 714.2 4.6 C 714.2 4.6 714.2 4.6 714.2 4.6 C 714.2 5.6 715 6.2 715.8 6.2 C 716.7 6.2 717.6 5.6 717.6 4.7 Z M 722.2 2.5 L 722.9 2.5 C 722.9 2.5 722.92 3.48 722.9 3.5 C 723.3 2.9 723.8 2.4 724.7 2.4 C 725.8 2.4 726.9 3.3 726.9 4.9 C 726.9 4.9 726.9 4.9 726.9 4.9 C 726.9 6.4 725.8 7.3 724.7 7.3 C 723.8 7.3 723.3 6.8 722.9 6.3 C 722.92 6.31 722.9 8.6 722.9 8.6 L 722.2 8.6 L 722.2 2.5 Z M 726.2 4.9 C 726.2 4.9 726.2 4.9 726.2 4.9 C 726.2 3.8 725.5 3.1 724.6 3.1 C 723.7 3.1 722.9 3.8 722.9 4.9 C 722.9 4.9 722.9 4.9 722.9 4.9 C 722.9 6 723.7 6.7 724.6 6.7 C 725.5 6.7 726.2 6 726.2 4.9 Z M 727.8 5.8 C 727.8 5.8 727.8 5.8 727.8 5.8 C 727.8 4.9 728.6 4.3 729.7 4.3 C 730.3 4.3 730.8 4.4 731.2 4.5 C 731.2 4.5 731.2 4.4 731.2 4.4 C 731.2 3.5 730.7 3.1 729.8 3.1 C 729.2 3.1 728.8 3.2 728.4 3.4 C 728.4 3.4 728.2 2.9 728.2 2.9 C 728.7 2.6 729.2 2.5 729.9 2.5 C 730.5 2.5 731 2.7 731.4 3 C 731.7 3.3 731.8 3.8 731.8 4.4 C 731.84 4.36 731.8 7.2 731.8 7.2 L 731.2 7.2 C 731.2 7.2 731.18 6.5 731.2 6.5 C 730.9 6.9 730.3 7.3 729.5 7.3 C 728.6 7.3 727.8 6.8 727.8 5.8 Z M 731.2 5.5 C 731.2 5.5 731.2 5 731.2 5 C 730.8 4.9 730.4 4.8 729.8 4.8 C 728.9 4.8 728.5 5.2 728.5 5.8 C 728.5 5.8 728.5 5.8 728.5 5.8 C 728.5 6.4 729 6.8 729.6 6.8 C 730.5 6.8 731.2 6.2 731.2 5.5 Z M 733.2 2.5 L 733.9 2.5 C 733.9 2.5 733.92 3.36 733.9 3.4 C 734.2 2.9 734.7 2.4 735.5 2.4 C 736.6 2.4 737.3 3.2 737.3 4.3 C 737.3 4.31 737.3 7.2 737.3 7.2 L 736.6 7.2 C 736.6 7.2 736.61 4.48 736.6 4.5 C 736.6 3.6 736.1 3.1 735.3 3.1 C 734.5 3.1 733.9 3.7 733.9 4.5 C 733.92 4.54 733.9 7.2 733.9 7.2 L 733.2 7.2 L 733.2 2.5 Z M 738.3 5.8 C 738.3 5.8 738.3 5.8 738.3 5.8 C 738.3 4.9 739.1 4.3 740.3 4.3 C 740.9 4.3 741.3 4.4 741.8 4.5 C 741.8 4.5 741.8 4.4 741.8 4.4 C 741.8 3.5 741.2 3.1 740.4 3.1 C 739.8 3.1 739.4 3.2 739 3.4 C 739 3.4 738.7 2.9 738.7 2.9 C 739.3 2.6 739.8 2.5 740.4 2.5 C 741.1 2.5 741.6 2.7 741.9 3 C 742.3 3.3 742.4 3.8 742.4 4.4 C 742.42 4.36 742.4 7.2 742.4 7.2 L 741.8 7.2 C 741.8 7.2 741.75 6.5 741.8 6.5 C 741.4 6.9 740.9 7.3 740.1 7.3 C 739.2 7.3 738.3 6.8 738.3 5.8 Z M 741.8 5.5 C 741.8 5.5 741.8 5 741.8 5 C 741.4 4.9 741 4.8 740.4 4.8 C 739.5 4.8 739 5.2 739 5.8 C 739 5.8 739 5.8 739 5.8 C 739 6.4 739.6 6.8 740.2 6.8 C 741.1 6.8 741.8 6.2 741.8 5.5 Z M 743.8 0.6 L 744.5 0.6 C 744.5 0.6 744.5 3.36 744.5 3.4 C 744.8 2.9 745.3 2.4 746.1 2.4 C 747.2 2.4 747.9 3.2 747.9 4.3 C 747.87 4.31 747.9 7.2 747.9 7.2 L 747.2 7.2 C 747.2 7.2 747.18 4.48 747.2 4.5 C 747.2 3.6 746.7 3.1 745.9 3.1 C 745.1 3.1 744.5 3.7 744.5 4.5 C 744.5 4.54 744.5 7.2 744.5 7.2 L 743.8 7.2 L 743.8 0.6 Z M 749 4.9 C 749 4.9 749 4.9 749 4.9 C 749 3.6 750 2.4 751.4 2.4 C 752.8 2.4 753.8 3.5 753.8 4.9 C 753.8 4.9 753.8 4.9 753.8 4.9 C 753.8 6.2 752.8 7.3 751.4 7.3 C 750 7.3 749 6.2 749 4.9 Z M 753.1 4.9 C 753.1 4.9 753.1 4.9 753.1 4.9 C 753.1 3.9 752.4 3.1 751.4 3.1 C 750.4 3.1 749.7 3.9 749.7 4.9 C 749.7 4.9 749.7 4.9 749.7 4.9 C 749.7 5.9 750.4 6.7 751.4 6.7 C 752.4 6.7 753.1 5.9 753.1 4.9 Z M 755 2.5 L 755.7 2.5 C 755.7 2.5 755.68 3.36 755.7 3.4 C 756 2.9 756.5 2.4 757.3 2.4 C 758.4 2.4 759.1 3.2 759.1 4.3 C 759.05 4.31 759.1 7.2 759.1 7.2 L 758.4 7.2 C 758.4 7.2 758.36 4.48 758.4 4.5 C 758.4 3.6 757.9 3.1 757.1 3.1 C 756.3 3.1 755.7 3.7 755.7 4.5 C 755.68 4.54 755.7 7.2 755.7 7.2 L 755 7.2 L 755 2.5 Z M 763 2.5 L 763.7 2.5 C 763.7 2.5 763.68 3.36 763.7 3.4 C 764 2.9 764.5 2.4 765.3 2.4 C 766.4 2.4 767.1 3.2 767.1 4.3 C 767.05 4.31 767.1 7.2 767.1 7.2 L 766.4 7.2 C 766.4 7.2 766.36 4.48 766.4 4.5 C 766.4 3.6 765.9 3.1 765.1 3.1 C 764.3 3.1 763.7 3.7 763.7 4.5 C 763.68 4.54 763.7 7.2 763.7 7.2 L 763 7.2 L 763 2.5 Z M 768.4 8 C 768.4 8 768.7 7.5 768.7 7.5 C 769.2 7.9 769.8 8.1 770.5 8.1 C 771.5 8.1 772.2 7.5 772.2 6.4 C 772.2 6.4 772.2 5.9 772.2 5.9 C 771.8 6.4 771.2 6.8 770.4 6.8 C 769.2 6.8 768.2 6 768.2 4.7 C 768.2 4.7 768.2 4.6 768.2 4.6 C 768.2 3.3 769.2 2.4 770.4 2.4 C 771.2 2.4 771.8 2.9 772.2 3.4 C 772.17 3.38 772.2 2.5 772.2 2.5 L 772.9 2.5 C 772.9 2.5 772.87 6.39 772.9 6.4 C 772.9 7.1 772.6 7.7 772.3 8 C 771.9 8.5 771.2 8.7 770.5 8.7 C 769.7 8.7 769 8.4 768.4 8 Z M 772.2 4.7 C 772.2 4.7 772.2 4.6 772.2 4.6 C 772.2 3.7 771.4 3.1 770.5 3.1 C 769.6 3.1 768.9 3.7 768.9 4.6 C 768.9 4.6 768.9 4.6 768.9 4.6 C 768.9 5.6 769.6 6.2 770.5 6.2 C 771.4 6.2 772.2 5.6 772.2 4.7 Z " stroke="none" fill="#fff"/>
  </g>
</svg>