<?xml version="1.0" standalone="no"?>
<!DOCTYPE svg PUBLIC "-//W3C//DTD SVG 1.1//EN" "http://www.w3.org/Graphics/SVG/1.1/DTD/svg11.dtd">
<svg xmlns="http://www.w3.org/2000/svg" version="1.1" width="132px" height="20.8px" viewBox="0 -5 132 20.8" style="top:-5px">
  <desc>HULYO 31, 2021</desc>
  <defs/>
  <g id="Polygon13244">
    <path d="M 55.6 9.1 C 55.6 9.1 55.57 8.83 55.6 8.8 C 55.8 8.8 56 8.7 56.2 8.7 C 56.3 8.6 56.4 8.5 56.4 8.5 C 56.4 8.5 56.4 2.3 56.4 2.3 C 56.4 2.3 56.3 2.2 56.2 2.1 C 56.1 2.1 55.8 2 55.6 2 C 55.57 1.95 55.6 1.7 55.6 1.7 L 58.2 1.7 C 58.2 1.7 58.2 1.95 58.2 2 C 57.9 2 57.7 2.1 57.6 2.1 C 57.4 2.2 57.4 2.3 57.4 2.3 C 57.35 2.31 57.4 5 57.4 5 L 60.9 5 C 60.9 5 60.93 2.31 60.9 2.3 C 60.9 2.3 60.9 2.2 60.7 2.1 C 60.6 2.1 60.4 2 60.1 2 C 60.08 1.95 60.1 1.7 60.1 1.7 L 62.7 1.7 C 62.7 1.7 62.71 1.95 62.7 2 C 62.4 2 62.2 2.1 62.1 2.1 C 61.9 2.2 61.9 2.3 61.9 2.3 C 61.9 2.3 61.9 8.5 61.9 8.5 C 61.9 8.5 61.9 8.6 62.1 8.6 C 62.2 8.7 62.4 8.8 62.7 8.8 C 62.71 8.83 62.7 9.1 62.7 9.1 L 60.1 9.1 C 60.1 9.1 60.08 8.83 60.1 8.8 C 60.3 8.8 60.6 8.7 60.7 8.7 C 60.9 8.6 60.9 8.5 60.9 8.5 C 60.93 8.47 60.9 5.5 60.9 5.5 L 57.4 5.5 C 57.4 5.5 57.35 8.47 57.4 8.5 C 57.4 8.5 57.4 8.6 57.6 8.6 C 57.7 8.7 57.9 8.8 58.2 8.8 C 58.2 8.83 58.2 9.1 58.2 9.1 L 55.6 9.1 Z M 70.6 2 C 70.3 2 70.1 2.1 70 2.1 C 69.8 2.2 69.7 2.3 69.7 2.3 C 69.7 2.3 69.7 6 69.7 6 C 69.7 6.5 69.7 7 69.6 7.4 C 69.4 7.8 69.2 8.1 69 8.4 C 68.8 8.7 68.5 8.9 68.2 9 C 67.8 9.2 67.4 9.3 67 9.3 C 66.6 9.3 66.2 9.2 65.9 9.1 C 65.6 9 65.3 8.8 65 8.6 C 64.8 8.4 64.6 8.1 64.5 7.7 C 64.3 7.4 64.3 7 64.3 6.5 C 64.3 6.5 64.3 2.3 64.3 2.3 C 64.3 2.3 64.2 2.2 64 2.1 C 63.9 2.1 63.7 2 63.4 2 C 63.41 1.95 63.4 1.7 63.4 1.7 L 66 1.7 C 66 1.7 66.05 1.95 66 2 C 65.8 2 65.6 2.1 65.4 2.1 C 65.3 2.2 65.2 2.3 65.2 2.3 C 65.2 2.3 65.2 6.2 65.2 6.2 C 65.2 6.6 65.2 6.9 65.3 7.2 C 65.4 7.5 65.5 7.7 65.7 8 C 65.9 8.2 66.1 8.3 66.4 8.4 C 66.6 8.5 66.9 8.6 67.2 8.6 C 67.5 8.6 67.8 8.5 68 8.4 C 68.2 8.3 68.4 8.1 68.5 7.9 C 68.7 7.6 68.8 7.4 68.9 7.1 C 68.9 6.8 69 6.5 69 6.3 C 69 6.3 69 2.3 69 2.3 C 69 2.3 68.9 2.2 68.8 2.1 C 68.6 2.1 68.4 2 68.1 2 C 68.13 1.95 68.1 1.7 68.1 1.7 L 70.6 1.7 L 70.6 2 C 70.6 2 70.59 1.95 70.6 2 Z M 76.5 7.7 C 76.5 8 76.4 8.3 76.4 8.5 C 76.3 8.8 76.3 9 76.3 9.1 C 76.26 9.08 71.3 9.1 71.3 9.1 C 71.3 9.1 71.26 8.83 71.3 8.8 C 71.5 8.8 71.7 8.7 71.9 8.7 C 72 8.6 72.1 8.5 72.1 8.5 C 72.1 8.5 72.1 2.3 72.1 2.3 C 72.1 2.3 72 2.2 71.9 2.1 C 71.8 2.1 71.5 2 71.3 2 C 71.26 1.95 71.3 1.7 71.3 1.7 L 73.9 1.7 C 73.9 1.7 73.89 1.95 73.9 2 C 73.6 2 73.4 2.1 73.3 2.1 C 73.1 2.2 73 2.3 73 2.3 C 73 2.3 73 8.1 73 8.1 C 73 8.2 73.1 8.3 73.1 8.3 C 73.1 8.4 73.2 8.4 73.3 8.4 C 73.3 8.5 73.5 8.5 73.6 8.5 C 73.7 8.5 73.9 8.6 74.1 8.6 C 74.1 8.6 75 8.6 75 8.6 C 75.2 8.6 75.3 8.5 75.4 8.5 C 75.5 8.5 75.7 8.5 75.8 8.4 C 75.8 8.3 75.9 8.2 76 8.1 C 76.1 8 76.2 7.8 76.2 7.5 C 76.24 7.55 76.5 7.7 76.5 7.7 C 76.5 7.7 76.5 7.65 76.5 7.7 Z M 78 9.1 C 78 9.1 77.97 8.83 78 8.8 C 78.3 8.8 78.6 8.7 78.7 8.6 C 78.9 8.5 78.9 8.5 78.9 8.4 C 78.9 8.4 78.9 5.9 78.9 5.9 C 78.8 5.6 78.6 5.3 78.4 4.9 C 78.3 4.6 78.1 4.3 77.9 3.9 C 77.7 3.6 77.5 3.3 77.3 3 C 77.1 2.8 77 2.5 76.8 2.3 C 76.8 2.3 76.8 2.3 76.7 2.2 C 76.7 2.2 76.6 2.1 76.5 2.1 C 76.5 2.1 76.4 2.1 76.3 2 C 76.2 2 76 2 75.9 2 C 75.9 2 75.9 1.8 75.9 1.8 C 76.1 1.7 76.3 1.7 76.5 1.7 C 76.8 1.7 77 1.6 77.1 1.6 C 77.3 1.6 77.5 1.7 77.6 1.9 C 77.7 2.1 77.9 2.3 78.1 2.5 C 78.2 2.8 78.4 3.1 78.6 3.3 C 78.7 3.6 78.9 3.9 79.1 4.2 C 79.2 4.5 79.4 4.8 79.5 5.1 C 79.5 5.1 81.1 2.3 81.1 2.3 C 81.1 2.2 81.1 2.2 81 2.1 C 80.9 2 80.7 2 80.4 2 C 80.43 1.95 80.4 1.7 80.4 1.7 L 82.7 1.7 C 82.7 1.7 82.75 1.95 82.7 2 C 82.5 2 82.3 2.1 82.1 2.1 C 82 2.2 81.9 2.2 81.8 2.3 C 81.83 2.34 79.9 5.9 79.9 5.9 C 79.9 5.9 79.86 8.41 79.9 8.4 C 79.9 8.4 79.9 8.5 79.9 8.5 C 79.9 8.5 80 8.6 80.1 8.6 C 80.2 8.6 80.3 8.7 80.4 8.7 C 80.5 8.8 80.7 8.8 80.8 8.8 C 80.84 8.83 80.8 9.1 80.8 9.1 L 78 9.1 Z M 88.3 5.4 C 88.3 5.1 88.3 4.9 88.2 4.6 C 88.2 4.3 88.1 4.1 88 3.8 C 87.9 3.6 87.8 3.4 87.7 3.2 C 87.5 3 87.4 2.8 87.2 2.7 C 87.1 2.5 86.9 2.4 86.7 2.3 C 86.5 2.2 86.3 2.2 86.1 2.2 C 85.7 2.2 85.4 2.3 85.1 2.4 C 84.8 2.6 84.6 2.8 84.4 3 C 84.2 3.3 84.1 3.6 84 4 C 83.9 4.4 83.8 4.8 83.8 5.3 C 83.8 5.8 83.9 6.2 84 6.6 C 84.1 7 84.3 7.3 84.5 7.6 C 84.7 7.9 84.9 8.1 85.2 8.3 C 85.5 8.5 85.8 8.6 86.1 8.6 C 86.4 8.6 86.7 8.5 87 8.4 C 87.2 8.2 87.5 8 87.7 7.8 C 87.9 7.5 88 7.2 88.1 6.8 C 88.2 6.4 88.3 5.9 88.3 5.4 Z M 89.2 5.3 C 89.2 5.8 89.1 6.3 88.9 6.8 C 88.7 7.3 88.5 7.7 88.2 8.1 C 87.9 8.4 87.6 8.7 87.2 8.9 C 86.8 9.2 86.3 9.3 85.9 9.3 C 85.4 9.3 85 9.2 84.6 8.9 C 84.3 8.7 84 8.5 83.7 8.1 C 83.5 7.8 83.3 7.4 83.1 6.9 C 83 6.5 82.9 6 82.9 5.5 C 82.9 5 83 4.5 83.2 4 C 83.4 3.5 83.6 3.1 83.9 2.7 C 84.2 2.3 84.5 2.1 84.9 1.8 C 85.3 1.6 85.8 1.5 86.2 1.5 C 86.7 1.5 87.1 1.6 87.5 1.8 C 87.9 2.1 88.2 2.3 88.4 2.7 C 88.7 3 88.9 3.4 89 3.9 C 89.1 4.3 89.2 4.8 89.2 5.3 Z M 97.2 6.8 C 97.2 7.2 97.1 7.5 97 7.8 C 96.9 8.1 96.8 8.3 96.6 8.5 C 96.4 8.8 96.1 8.9 95.8 9.1 C 95.5 9.2 95.1 9.3 94.7 9.3 C 94.6 9.3 94.4 9.2 94.3 9.2 C 94.1 9.2 93.9 9.1 93.8 9.1 C 93.6 9 93.4 8.9 93.3 8.8 C 93.1 8.7 92.9 8.6 92.8 8.4 C 92.8 8.4 93 8 93 8 C 93.1 8.1 93.3 8.2 93.4 8.3 C 93.6 8.4 93.7 8.5 93.9 8.5 C 94 8.6 94.1 8.6 94.2 8.6 C 94.4 8.7 94.5 8.7 94.7 8.7 C 94.9 8.7 95.1 8.6 95.3 8.5 C 95.5 8.5 95.7 8.4 95.8 8.2 C 96 8.1 96.1 7.9 96.1 7.7 C 96.2 7.5 96.3 7.3 96.3 7 C 96.3 6.8 96.2 6.5 96.1 6.3 C 96 6.1 95.9 5.9 95.8 5.8 C 95.6 5.7 95.5 5.6 95.3 5.5 C 95.1 5.5 94.9 5.4 94.8 5.4 C 94.7 5.4 94.7 5.4 94.6 5.4 C 94.6 5.4 94.6 5.4 94.6 5.4 C 94.6 5.4 94.5 5.4 94.5 5.4 C 94.5 5.5 94.4 5.5 94.4 5.5 C 94.4 5.5 94.3 5.1 94.3 5.1 C 94.6 5 94.9 4.9 95.1 4.8 C 95.4 4.7 95.5 4.5 95.6 4.4 C 95.8 4.2 95.8 4.1 95.9 4 C 95.9 3.8 95.9 3.7 95.9 3.6 C 95.9 3.4 95.9 3.3 95.9 3.2 C 95.8 3 95.8 2.9 95.7 2.8 C 95.6 2.7 95.5 2.6 95.3 2.5 C 95.2 2.4 95 2.4 94.9 2.4 C 94.7 2.4 94.6 2.4 94.4 2.5 C 94.3 2.5 94.2 2.6 94.1 2.7 C 94.1 2.8 94 2.9 94 3 C 93.9 3.1 93.9 3.2 93.9 3.4 C 93.8 3.4 93.7 3.5 93.6 3.5 C 93.4 3.6 93.3 3.6 93.1 3.6 C 93.1 3.6 93 3.4 93 3.4 C 93 3.3 93 3.1 93.2 2.9 C 93.3 2.7 93.4 2.5 93.6 2.4 C 93.8 2.2 94.1 2.1 94.3 2 C 94.6 1.9 94.9 1.8 95.2 1.8 C 95.5 1.8 95.7 1.9 95.9 2 C 96.2 2.1 96.3 2.2 96.5 2.4 C 96.6 2.5 96.7 2.7 96.8 2.9 C 96.8 3.1 96.9 3.3 96.9 3.5 C 96.9 3.6 96.8 3.8 96.8 3.9 C 96.7 4.1 96.6 4.2 96.5 4.3 C 96.4 4.5 96.3 4.6 96.1 4.7 C 96 4.8 95.8 4.9 95.6 5 C 95.8 5 96 5.1 96.2 5.2 C 96.4 5.3 96.6 5.4 96.7 5.6 C 96.9 5.8 97 6 97.1 6.2 C 97.2 6.4 97.2 6.6 97.2 6.8 Z M 99 9.1 C 99 9.1 98.99 8.77 99 8.8 C 99.3 8.7 99.5 8.7 99.8 8.7 C 100 8.6 100.1 8.6 100.2 8.5 C 100.4 8.5 100.4 8.4 100.5 8.4 C 100.5 8.3 100.6 8.3 100.6 8.2 C 100.6 8.2 100.6 3.6 100.6 3.6 C 100.6 3.4 100.6 3.3 100.6 3.2 C 100.5 3.1 100.5 3.1 100.5 3 C 100.4 3 100.4 3 100.3 2.9 C 100.3 2.9 100.2 2.9 100.1 2.9 C 99.9 2.9 99.8 2.9 99.6 3 C 99.4 3 99.2 3 98.9 3.1 C 98.9 3.1 98.8 2.8 98.8 2.8 C 99 2.7 99.2 2.7 99.4 2.6 C 99.6 2.5 99.8 2.4 100.1 2.3 C 100.3 2.2 100.5 2.1 100.7 2 C 100.9 1.9 101.1 1.9 101.2 1.8 C 101.23 1.79 101.5 2 101.5 2 C 101.5 2 101.45 8.24 101.5 8.2 C 101.5 8.3 101.5 8.3 101.5 8.4 C 101.6 8.4 101.6 8.5 101.7 8.5 C 101.9 8.6 102 8.6 102.2 8.6 C 102.4 8.7 102.6 8.7 102.9 8.8 C 102.92 8.77 102.9 9.1 102.9 9.1 L 99 9.1 Z M 105.9 8.7 C 105.9 8.8 105.9 9 105.8 9.2 C 105.8 9.4 105.7 9.6 105.6 9.8 C 105.4 10 105.3 10.2 105.1 10.4 C 105 10.5 104.8 10.7 104.6 10.9 C 104.6 10.9 104.3 10.7 104.3 10.7 C 104.4 10.5 104.5 10.4 104.6 10.3 C 104.7 10.2 104.7 10.1 104.8 9.9 C 104.8 9.8 104.9 9.7 104.9 9.5 C 104.9 9.4 104.9 9.2 104.9 9.1 C 104.9 8.9 104.9 8.8 104.8 8.7 C 104.7 8.6 104.5 8.5 104.2 8.5 C 104.2 8.5 104.1 8.3 104.1 8.3 C 104.2 8.2 104.2 8.2 104.4 8.1 C 104.5 8 104.6 8 104.7 7.9 C 104.9 7.9 105 7.8 105.1 7.8 C 105.3 7.8 105.4 7.7 105.4 7.7 C 105.6 7.8 105.7 8 105.8 8.1 C 105.9 8.3 105.9 8.4 105.9 8.7 Z M 113.8 9.1 L 109.8 9.1 C 109.8 9.1 109.59 8.65 109.6 8.6 C 110.1 8.1 110.5 7.6 110.8 7.2 C 111.2 6.8 111.4 6.4 111.7 6.1 C 111.9 5.8 112.1 5.5 112.3 5.3 C 112.5 5 112.6 4.8 112.7 4.6 C 112.8 4.4 112.8 4.3 112.9 4.1 C 112.9 4 112.9 3.8 112.9 3.7 C 112.9 3.5 112.9 3.3 112.9 3.2 C 112.8 3 112.8 2.9 112.7 2.8 C 112.6 2.6 112.4 2.6 112.3 2.5 C 112.1 2.4 112 2.4 111.8 2.4 C 111.6 2.4 111.4 2.4 111.3 2.5 C 111.2 2.6 111.1 2.7 111 2.8 C 110.9 2.9 110.8 3 110.7 3.2 C 110.7 3.3 110.7 3.5 110.7 3.6 C 110.6 3.6 110.5 3.7 110.5 3.7 C 110.4 3.7 110.4 3.8 110.3 3.8 C 110.3 3.8 110.2 3.8 110.1 3.9 C 110.1 3.9 110 3.9 109.9 3.9 C 109.9 3.9 109.7 3.7 109.7 3.7 C 109.7 3.5 109.8 3.3 110 3.1 C 110.1 2.9 110.3 2.7 110.5 2.5 C 110.7 2.3 111 2.1 111.3 2 C 111.6 1.9 111.8 1.8 112.2 1.8 C 112.4 1.8 112.6 1.9 112.8 1.9 C 113 2 113.2 2.1 113.3 2.2 C 113.5 2.4 113.6 2.6 113.7 2.8 C 113.8 3 113.8 3.2 113.8 3.5 C 113.8 3.7 113.8 3.9 113.8 4 C 113.7 4.2 113.6 4.4 113.5 4.6 C 113.4 4.8 113.3 5 113.1 5.3 C 112.9 5.5 112.7 5.8 112.5 6.1 C 112.2 6.4 112 6.7 111.6 7.1 C 111.3 7.5 111 7.9 110.6 8.4 C 110.6 8.4 113 8.4 113 8.4 C 113.1 8.4 113.2 8.3 113.3 8.3 C 113.4 8.2 113.4 8.1 113.5 8 C 113.5 7.9 113.5 7.8 113.6 7.7 C 113.6 7.6 113.6 7.5 113.6 7.4 C 113.6 7.4 113.6 7.3 113.6 7.3 C 113.62 7.33 113.9 7.4 113.9 7.4 L 113.8 9.1 Z M 118.9 5.8 C 118.9 5.2 118.8 4.8 118.7 4.4 C 118.7 4 118.5 3.6 118.4 3.3 C 118.3 3.1 118.1 2.9 117.9 2.7 C 117.7 2.6 117.5 2.5 117.3 2.5 C 117.1 2.5 117 2.6 116.8 2.7 C 116.6 2.8 116.5 3 116.4 3.2 C 116.3 3.4 116.2 3.7 116.1 4 C 116.1 4.4 116.1 4.8 116.1 5.3 C 116.1 5.8 116.1 6.3 116.2 6.7 C 116.2 7.1 116.4 7.5 116.5 7.7 C 116.6 8 116.8 8.2 117 8.4 C 117.2 8.5 117.4 8.6 117.6 8.6 C 117.8 8.6 118 8.5 118.1 8.4 C 118.3 8.3 118.4 8.1 118.5 7.9 C 118.6 7.7 118.7 7.4 118.8 7 C 118.8 6.7 118.9 6.3 118.9 5.8 Z M 119.8 5.6 C 119.8 6.1 119.8 6.5 119.7 7 C 119.5 7.4 119.4 7.8 119.1 8.2 C 118.9 8.5 118.7 8.8 118.4 9 C 118.1 9.2 117.7 9.3 117.3 9.3 C 117 9.3 116.7 9.2 116.4 9 C 116.1 8.8 115.9 8.5 115.7 8.2 C 115.5 7.8 115.3 7.4 115.2 7 C 115.1 6.5 115.1 6.1 115.1 5.6 C 115.1 5.1 115.2 4.6 115.3 4.1 C 115.4 3.7 115.6 3.3 115.8 2.9 C 116 2.6 116.3 2.3 116.6 2.1 C 116.9 1.9 117.2 1.8 117.6 1.8 C 117.9 1.8 118.3 1.9 118.6 2.1 C 118.8 2.3 119.1 2.6 119.3 2.9 C 119.4 3.3 119.6 3.7 119.7 4.1 C 119.8 4.6 119.8 5 119.8 5.6 Z M 125.1 9.1 L 121 9.1 C 121 9.1 120.85 8.65 120.9 8.6 C 121.3 8.1 121.7 7.6 122.1 7.2 C 122.4 6.8 122.7 6.4 123 6.1 C 123.2 5.8 123.4 5.5 123.6 5.3 C 123.7 5 123.9 4.8 123.9 4.6 C 124 4.4 124.1 4.3 124.1 4.1 C 124.2 4 124.2 3.8 124.2 3.7 C 124.2 3.5 124.2 3.3 124.1 3.2 C 124.1 3 124 2.9 123.9 2.8 C 123.8 2.6 123.7 2.6 123.6 2.5 C 123.4 2.4 123.2 2.4 123 2.4 C 122.9 2.4 122.7 2.4 122.6 2.5 C 122.4 2.6 122.3 2.7 122.2 2.8 C 122.1 2.9 122.1 3 122 3.2 C 121.9 3.3 121.9 3.5 121.9 3.6 C 121.9 3.6 121.8 3.7 121.7 3.7 C 121.7 3.7 121.6 3.8 121.6 3.8 C 121.5 3.8 121.5 3.8 121.4 3.9 C 121.3 3.9 121.3 3.9 121.2 3.9 C 121.2 3.9 121 3.7 121 3.7 C 121 3.5 121.1 3.3 121.2 3.1 C 121.4 2.9 121.5 2.7 121.8 2.5 C 122 2.3 122.2 2.1 122.5 2 C 122.8 1.9 123.1 1.8 123.4 1.8 C 123.6 1.8 123.9 1.9 124.1 1.9 C 124.3 2 124.5 2.1 124.6 2.2 C 124.8 2.4 124.9 2.6 125 2.8 C 125 3 125.1 3.2 125.1 3.5 C 125.1 3.7 125.1 3.9 125 4 C 125 4.2 124.9 4.4 124.8 4.6 C 124.7 4.8 124.5 5 124.4 5.3 C 124.2 5.5 124 5.8 123.7 6.1 C 123.5 6.4 123.2 6.7 122.9 7.1 C 122.6 7.5 122.2 7.9 121.8 8.4 C 121.8 8.4 124.3 8.4 124.3 8.4 C 124.4 8.4 124.5 8.3 124.6 8.3 C 124.6 8.2 124.7 8.1 124.7 8 C 124.8 7.9 124.8 7.8 124.8 7.7 C 124.8 7.6 124.9 7.5 124.9 7.4 C 124.9 7.4 124.9 7.3 124.9 7.3 C 124.88 7.33 125.2 7.4 125.2 7.4 L 125.1 9.1 Z M 126.9 9.1 C 126.9 9.1 126.9 8.77 126.9 8.8 C 127.2 8.7 127.5 8.7 127.7 8.7 C 127.9 8.6 128 8.6 128.2 8.5 C 128.3 8.5 128.4 8.4 128.4 8.4 C 128.5 8.3 128.5 8.3 128.5 8.2 C 128.5 8.2 128.5 3.6 128.5 3.6 C 128.5 3.4 128.5 3.3 128.5 3.2 C 128.5 3.1 128.4 3.1 128.4 3 C 128.4 3 128.3 3 128.2 2.9 C 128.2 2.9 128.1 2.9 128 2.9 C 127.8 2.9 127.7 2.9 127.5 3 C 127.3 3 127.1 3 126.8 3.1 C 126.8 3.1 126.7 2.8 126.7 2.8 C 126.9 2.7 127.1 2.7 127.3 2.6 C 127.5 2.5 127.8 2.4 128 2.3 C 128.2 2.2 128.4 2.1 128.6 2 C 128.9 1.9 129 1.9 129.1 1.8 C 129.15 1.79 129.4 2 129.4 2 C 129.4 2 129.36 8.24 129.4 8.2 C 129.4 8.3 129.4 8.3 129.4 8.4 C 129.5 8.4 129.5 8.5 129.7 8.5 C 129.8 8.6 129.9 8.6 130.1 8.6 C 130.3 8.7 130.5 8.7 130.8 8.8 C 130.83 8.77 130.8 9.1 130.8 9.1 L 126.9 9.1 Z " stroke="none" fill="#000"/>
  </g>
</svg>