<?xml version="1.0" standalone="no"?>
<!DOCTYPE svg PUBLIC "-//W3C//DTD SVG 1.1//EN" "http://www.w3.org/Graphics/SVG/1.1/DTD/svg11.dtd">
<svg xmlns="http://www.w3.org/2000/svg" version="1.1" width="112.4px" height="16px" viewBox="0 -3 112.4 16" style="top:-3px">
  <desc>Sugar level, Sir</desc>
  <defs/>
  <g id="Polygon31534">
    <path d="M 1.4 4.9 C 1.3 5.8 2 6.1 2.8 6.1 C 3.3 6.1 4 5.8 4 5.2 C 4 4.6 3.2 4.4 2.4 4.2 C 1.6 3.9 0.7 3.6 0.7 2.5 C 0.7 1 2.1 0.5 3.3 0.5 C 4.6 0.5 5.7 1 5.7 2.5 C 5.7 2.5 4.4 2.5 4.4 2.5 C 4.4 1.8 3.9 1.6 3.2 1.6 C 2.7 1.6 2.1 1.8 2.1 2.4 C 2.1 3 3.2 3.2 3.6 3.3 C 4.6 3.5 5.3 3.9 5.3 5.1 C 5.3 6.6 3.9 7.2 2.7 7.2 C 0.9 7.2 0 6.5 0 4.9 C 0 4.9 1.4 4.9 1.4 4.9 Z M 10.2 7 L 9 7 L 9.1 6.4 C 9.1 6.4 9.13 6.39 9.1 6.4 C 8.7 6.9 8.2 7.2 7.5 7.2 C 6.6 7.2 6.1 6.7 6.1 5.9 C 6.1 5.7 6.2 5.3 6.3 5.1 C 6.27 5.11 6.8 2.4 6.8 2.4 L 8.1 2.4 C 8.1 2.4 7.56 5.11 7.6 5.1 C 7.5 5.2 7.5 5.6 7.5 5.7 C 7.5 6 7.8 6.2 8.1 6.2 C 8.9 6.2 9.3 5.5 9.4 4.9 C 9.4 4.86 9.9 2.4 9.9 2.4 L 11.2 2.4 L 10.2 7 Z M 12.9 5 C 12.9 5.5 13.2 6 13.8 6 C 14.7 6 15.2 5 15.2 4.2 C 15.2 3.6 14.9 3.2 14.2 3.2 C 13.4 3.2 12.9 4.2 12.9 5 Z M 15.9 6.8 C 15.6 8.2 14.9 8.8 13.3 8.8 C 12.4 8.8 11.3 8.4 11.3 7.3 C 11.3 7.3 12.6 7.3 12.6 7.3 C 12.6 7.7 13 7.9 13.5 7.9 C 14.3 7.9 14.5 7.2 14.8 6.3 C 14.8 6.3 14.7 6.3 14.7 6.3 C 14.4 6.7 14 7 13.5 7 C 12.3 7 11.7 6.2 11.7 5.1 C 11.7 3.7 12.5 2.3 14 2.3 C 14.7 2.3 15.2 2.5 15.4 3.1 C 15.43 3.1 15.5 3.1 15.5 3.1 L 15.6 2.4 L 16.8 2.4 C 16.8 2.4 15.89 6.8 15.9 6.8 Z M 20.3 4.8 C 20 5 19.6 5 19.3 5 C 18.8 5.1 18.3 5.2 18.3 5.8 C 18.3 6.1 18.6 6.3 19 6.3 C 19.8 6.3 20.1 5.8 20.2 5.3 C 20.2 5.3 20.3 4.8 20.3 4.8 Z M 17.6 3.8 C 17.8 2.6 18.8 2.3 19.8 2.3 C 20.7 2.3 21.8 2.4 21.8 3.5 C 21.8 3.7 21.7 4 21.7 4.3 C 21.7 4.3 21.3 6.1 21.3 6.1 C 21.2 6.3 21.2 6.6 21.2 6.8 C 21.2 6.8 21.2 7 21.2 7 C 21.25 7.04 20 7 20 7 C 20 7 19.97 6.58 20 6.6 C 19.6 7 19.1 7.2 18.5 7.2 C 17.5 7.2 17 6.6 17 5.9 C 17 5 17.7 4.5 18.8 4.4 C 20 4.2 20.6 4.3 20.6 3.7 C 20.6 3.2 20.1 3.1 19.8 3.1 C 19.3 3.1 18.9 3.3 18.8 3.8 C 18.8 3.8 17.6 3.8 17.6 3.8 Z M 23.2 2.4 L 24.4 2.4 L 24.2 3.2 C 24.2 3.2 24.26 3.24 24.3 3.2 C 24.6 2.6 25.2 2.3 25.9 2.3 C 26 2.3 26.1 2.3 26.3 2.3 C 26.3 2.3 26 3.5 26 3.5 C 25.8 3.5 25.6 3.4 25.5 3.4 C 24.5 3.4 24.1 4.2 24 5 C 23.96 4.98 23.5 7 23.5 7 L 22.2 7 L 23.2 2.4 Z M 29.8 0.6 L 31.1 0.6 L 29.7 7 L 28.4 7 L 29.8 0.6 Z M 32.3 5 C 32.3 5.1 32.3 5.2 32.3 5.3 C 32.3 5.8 32.6 6.2 33.3 6.2 C 33.8 6.2 34.1 5.9 34.3 5.6 C 34.3 5.6 35.5 5.6 35.5 5.6 C 35.1 6.6 34.5 7.2 33.1 7.2 C 31.9 7.2 31.1 6.5 31.1 5.1 C 31.1 3.6 32 2.3 33.6 2.3 C 34.9 2.3 35.8 2.9 35.8 4.3 C 35.8 4.5 35.8 4.8 35.7 5 C 35.7 5 32.3 5 32.3 5 Z M 34.6 4.2 C 34.6 3.7 34.4 3.2 33.7 3.2 C 33 3.2 32.6 3.7 32.4 4.2 C 32.4 4.2 34.6 4.2 34.6 4.2 Z M 38.6 7 L 37.1 7 L 36.5 2.4 L 37.8 2.4 L 38.1 5.7 L 38.1 5.7 L 39.8 2.4 L 41.1 2.4 L 38.6 7 Z M 42.3 5 C 42.3 5.1 42.3 5.2 42.3 5.3 C 42.3 5.8 42.6 6.2 43.3 6.2 C 43.8 6.2 44.1 5.9 44.3 5.6 C 44.3 5.6 45.5 5.6 45.5 5.6 C 45.1 6.6 44.5 7.2 43.1 7.2 C 41.9 7.2 41.1 6.5 41.1 5.1 C 41.1 3.6 42 2.3 43.6 2.3 C 44.9 2.3 45.8 2.9 45.8 4.3 C 45.8 4.5 45.8 4.8 45.7 5 C 45.7 5 42.3 5 42.3 5 Z M 44.6 4.2 C 44.6 3.7 44.5 3.2 43.7 3.2 C 43 3.2 42.6 3.7 42.4 4.2 C 42.4 4.2 44.6 4.2 44.6 4.2 Z M 47.5 0.6 L 48.8 0.6 L 47.4 7 L 46.1 7 L 47.5 0.6 Z M 48.8 5.7 C 48.8 5.7 50.25 5.65 50.2 5.7 C 49.9 6.9 50 8.5 48.2 8.5 C 48.2 8.5 48.4 7.9 48.4 7.9 C 48.9 7.8 49.1 7.6 49.2 7 C 49.16 7.04 48.5 7 48.5 7 L 48.8 5.7 Z M 55.2 4.9 C 55.2 5.8 55.8 6.1 56.6 6.1 C 57.2 6.1 57.8 5.8 57.8 5.2 C 57.8 4.6 57 4.4 56.2 4.2 C 55.4 3.9 54.6 3.6 54.6 2.5 C 54.6 1 55.9 0.5 57.1 0.5 C 58.4 0.5 59.5 1 59.5 2.5 C 59.5 2.5 58.2 2.5 58.2 2.5 C 58.2 1.8 57.7 1.6 57.1 1.6 C 56.5 1.6 55.9 1.8 55.9 2.4 C 55.9 3 57 3.2 57.5 3.3 C 58.5 3.5 59.2 3.9 59.2 5.1 C 59.2 6.6 57.8 7.2 56.6 7.2 C 54.8 7.2 53.9 6.5 53.9 4.9 C 53.9 4.9 55.2 4.9 55.2 4.9 Z M 60.6 2.4 L 61.9 2.4 L 60.9 7 L 59.7 7 L 60.6 2.4 Z M 62.1 1.7 L 60.8 1.7 L 61 0.6 L 62.3 0.6 L 62.1 1.7 Z M 63 2.4 L 64.3 2.4 L 64.1 3.2 C 64.1 3.2 64.09 3.24 64.1 3.2 C 64.4 2.6 65 2.3 65.7 2.3 C 65.8 2.3 66 2.3 66.1 2.3 C 66.1 2.3 65.8 3.5 65.8 3.5 C 65.6 3.5 65.5 3.4 65.3 3.4 C 64.3 3.4 64 4.2 63.8 5 C 63.78 4.98 63.4 7 63.4 7 L 62.1 7 L 63 2.4 Z M 66.4 2.6 C 66.5 1.2 67.6 0.5 68.9 0.5 C 70 0.5 70.9 1 70.9 2.1 C 70.9 3 70.3 3.5 69.7 3.8 C 69.1 4.1 68.7 4.4 68.6 5.1 C 68.6 5.1 67.4 5.1 67.4 5.1 C 67.6 3.9 68.1 3.6 68.9 3.1 C 69.3 2.9 69.6 2.6 69.6 2.2 C 69.6 1.7 69.2 1.5 68.8 1.5 C 68.1 1.5 67.8 2 67.7 2.6 C 67.7 2.6 66.4 2.6 66.4 2.6 Z M 67.2 5.7 L 68.6 5.7 L 68.3 7 L 66.9 7 L 67.2 5.7 Z " stroke="none" fill="#000"/>
  </g>
</svg>