<?xml version="1.0" standalone="no"?>
<!DOCTYPE svg PUBLIC "-//W3C//DTD SVG 1.1//EN" "http://www.w3.org/Graphics/SVG/1.1/DTD/svg11.dtd">
<svg xmlns="http://www.w3.org/2000/svg" version="1.1" width="353px" height="25px" viewBox="0 -3 353 25" style="top:-3px">
  <desc>DLSU, DLSU Civil Engineering Department, at DLSU-Dasmarinas</desc>
  <defs/>
  <g id="Polygon25355">
    <path d="M 1.3 7.9 C 1.3 7.9 2.74 7.86 2.7 7.9 C 3.1 7.9 3.3 7.8 3.6 7.7 C 3.8 7.6 4 7.4 4.2 7.3 C 4.4 7.1 4.5 6.9 4.6 6.7 C 4.8 6.5 4.9 6.3 4.9 6.1 C 5 5.8 5 5.7 5.1 5.5 C 5.1 5.3 5.1 5.1 5.1 5 C 5.1 4.5 5 4 4.7 3.7 C 4.5 3.4 4.1 3.3 3.7 3.3 C 3.7 3.27 2.3 3.3 2.3 3.3 L 1.3 7.9 Z M 1.4 2.3 C 1.4 2.3 3.72 2.35 3.7 2.3 C 4.5 2.3 5.2 2.6 5.6 3 C 6 3.5 6.2 4.1 6.2 5 C 6.2 5.2 6.2 5.4 6.2 5.7 C 6.1 5.9 6.1 6.2 6 6.4 C 5.9 6.6 5.8 6.9 5.7 7.1 C 5.5 7.3 5.4 7.5 5.2 7.7 C 5 7.9 4.8 8 4.7 8.2 C 4.5 8.3 4.3 8.4 4.1 8.5 C 3.8 8.6 3.6 8.7 3.3 8.7 C 3 8.8 2.7 8.8 2.3 8.8 C 2.27 8.77 0 8.8 0 8.8 L 1.4 2.3 Z M 8 2.3 L 9.1 2.3 L 7.9 7.8 L 11.2 7.8 L 11 8.8 L 6.6 8.8 L 8 2.3 Z M 13 6.7 C 13 7.1 13.1 7.5 13.4 7.7 C 13.7 7.9 14 8 14.5 8 C 14.7 8 14.8 8 15 8 C 15.2 7.9 15.3 7.9 15.5 7.8 C 15.6 7.7 15.7 7.6 15.8 7.5 C 15.9 7.3 15.9 7.2 15.9 7 C 15.9 6.8 15.9 6.7 15.8 6.5 C 15.7 6.4 15.6 6.3 15.5 6.2 C 15.3 6.2 15.2 6.1 15 6 C 14.8 6 14.6 5.9 14.4 5.9 C 14.3 5.8 14.1 5.8 13.9 5.7 C 13.7 5.6 13.5 5.6 13.3 5.4 C 13.1 5.3 13 5.1 12.8 4.9 C 12.7 4.8 12.7 4.5 12.7 4.2 C 12.7 3.9 12.7 3.6 12.8 3.4 C 12.9 3.1 13.1 2.9 13.3 2.8 C 13.5 2.6 13.7 2.4 14 2.3 C 14.3 2.2 14.7 2.2 15 2.2 C 15.4 2.2 15.7 2.2 16 2.3 C 16.3 2.4 16.5 2.5 16.8 2.7 C 17 2.8 17.1 3 17.3 3.3 C 17.4 3.6 17.4 3.9 17.4 4.2 C 17.4 4.2 16.3 4.2 16.3 4.2 C 16.3 3.8 16.2 3.6 16 3.4 C 15.8 3.2 15.5 3.1 15 3.1 C 15 3.1 14.8 3.1 14.7 3.1 C 14.6 3.2 14.4 3.2 14.3 3.3 C 14.2 3.3 14 3.4 13.9 3.6 C 13.8 3.7 13.8 3.8 13.8 4.1 C 13.8 4.2 13.8 4.3 13.9 4.4 C 14 4.5 14.1 4.6 14.2 4.7 C 14.3 4.8 14.4 4.8 14.6 4.9 C 14.8 4.9 14.9 5 15.1 5 C 15.3 5.1 15.6 5.1 15.8 5.2 C 16 5.3 16.2 5.4 16.4 5.5 C 16.6 5.7 16.8 5.8 16.9 6 C 17 6.2 17.1 6.5 17.1 6.8 C 17.1 7.1 17 7.3 16.9 7.6 C 16.8 7.8 16.7 8.1 16.5 8.3 C 16.3 8.5 16 8.6 15.6 8.7 C 15.3 8.9 14.9 8.9 14.4 8.9 C 14 8.9 13.7 8.9 13.4 8.8 C 13.1 8.7 12.8 8.6 12.6 8.4 C 12.4 8.2 12.2 8 12.1 7.7 C 12 7.4 11.9 7.1 12 6.7 C 12 6.7 13 6.7 13 6.7 Z M 19.1 2.3 L 20.2 2.3 C 20.2 2.3 19.41 6.28 19.4 6.3 C 19.4 6.4 19.4 6.5 19.4 6.5 C 19.4 6.6 19.3 6.7 19.3 6.8 C 19.3 7 19.4 7.2 19.4 7.3 C 19.5 7.5 19.6 7.6 19.7 7.7 C 19.9 7.8 20 7.9 20.2 7.9 C 20.3 7.9 20.5 8 20.7 8 C 20.9 8 21.1 7.9 21.3 7.9 C 21.5 7.8 21.7 7.8 21.8 7.6 C 22 7.5 22.1 7.3 22.2 7.1 C 22.3 6.9 22.4 6.6 22.5 6.3 C 22.48 6.31 23.3 2.3 23.3 2.3 L 24.5 2.3 C 24.5 2.3 23.61 6.38 23.6 6.4 C 23.6 6.6 23.5 6.9 23.4 7.2 C 23.3 7.5 23.1 7.8 22.9 8.1 C 22.7 8.3 22.4 8.5 22 8.7 C 21.6 8.8 21.2 8.9 20.6 8.9 C 20.3 8.9 20 8.9 19.7 8.8 C 19.4 8.7 19.1 8.6 18.9 8.4 C 18.7 8.3 18.5 8.1 18.4 7.8 C 18.3 7.6 18.2 7.3 18.2 6.9 C 18.2 6.8 18.2 6.7 18.2 6.5 C 18.3 6.4 18.3 6.2 18.3 6.1 C 18.32 6.08 19.1 2.3 19.1 2.3 Z M 24.8 7.6 C 24.8 7.6 26.05 7.56 26.1 7.6 C 26 7.8 25.9 8.1 25.9 8.4 C 25.8 8.7 25.8 8.9 25.6 9.2 C 25.5 9.4 25.4 9.6 25.2 9.8 C 25 10 24.7 10.1 24.4 10.1 C 24.4 10.1 24.5 9.6 24.5 9.6 C 24.7 9.5 24.9 9.4 25 9.3 C 25.1 9.2 25.2 9 25.2 8.8 C 25.21 8.77 24.5 8.8 24.5 8.8 L 24.8 7.6 Z M 31 7.9 C 31 7.9 32.44 7.86 32.4 7.9 C 32.8 7.9 33.1 7.8 33.3 7.7 C 33.5 7.6 33.7 7.4 33.9 7.3 C 34.1 7.1 34.2 6.9 34.4 6.7 C 34.5 6.5 34.6 6.3 34.6 6.1 C 34.7 5.8 34.8 5.7 34.8 5.5 C 34.8 5.3 34.8 5.1 34.8 5 C 34.8 4.5 34.7 4 34.5 3.7 C 34.2 3.4 33.9 3.3 33.4 3.3 C 33.41 3.27 32 3.3 32 3.3 L 31 7.9 Z M 31.1 2.3 C 31.1 2.3 33.43 2.35 33.4 2.3 C 34.3 2.3 34.9 2.6 35.3 3 C 35.7 3.5 35.9 4.1 35.9 5 C 35.9 5.2 35.9 5.4 35.9 5.7 C 35.8 5.9 35.8 6.2 35.7 6.4 C 35.6 6.6 35.5 6.9 35.4 7.1 C 35.3 7.3 35.1 7.5 34.9 7.7 C 34.7 7.9 34.6 8 34.4 8.2 C 34.2 8.3 34 8.4 33.8 8.5 C 33.5 8.6 33.3 8.7 33 8.7 C 32.7 8.8 32.4 8.8 32 8.8 C 31.98 8.77 29.7 8.8 29.7 8.8 L 31.1 2.3 Z M 37.7 2.3 L 38.8 2.3 L 37.7 7.8 L 40.9 7.8 L 40.7 8.8 L 36.3 8.8 L 37.7 2.3 Z M 42.7 6.7 C 42.7 7.1 42.8 7.5 43.1 7.7 C 43.4 7.9 43.8 8 44.2 8 C 44.4 8 44.5 8 44.7 8 C 44.9 7.9 45 7.9 45.2 7.8 C 45.3 7.7 45.4 7.6 45.5 7.5 C 45.6 7.3 45.7 7.2 45.7 7 C 45.7 6.8 45.6 6.7 45.5 6.5 C 45.4 6.4 45.3 6.3 45.2 6.2 C 45 6.2 44.9 6.1 44.7 6 C 44.5 6 44.3 5.9 44.1 5.9 C 44 5.8 43.8 5.8 43.6 5.7 C 43.4 5.6 43.2 5.6 43 5.4 C 42.8 5.3 42.7 5.1 42.6 4.9 C 42.4 4.8 42.4 4.5 42.4 4.2 C 42.4 3.9 42.4 3.6 42.5 3.4 C 42.6 3.1 42.8 2.9 43 2.8 C 43.2 2.6 43.4 2.4 43.7 2.3 C 44 2.2 44.4 2.2 44.8 2.2 C 45.1 2.2 45.4 2.2 45.7 2.3 C 46 2.4 46.3 2.5 46.5 2.7 C 46.7 2.8 46.9 3 47 3.3 C 47.1 3.6 47.1 3.9 47.1 4.2 C 47.1 4.2 46.1 4.2 46.1 4.2 C 46 3.8 45.9 3.6 45.7 3.4 C 45.5 3.2 45.2 3.1 44.7 3.1 C 44.7 3.1 44.6 3.1 44.4 3.1 C 44.3 3.2 44.1 3.2 44 3.3 C 43.9 3.3 43.7 3.4 43.6 3.6 C 43.5 3.7 43.5 3.8 43.5 4.1 C 43.5 4.2 43.5 4.3 43.6 4.4 C 43.7 4.5 43.8 4.6 43.9 4.7 C 44 4.8 44.2 4.8 44.3 4.9 C 44.5 4.9 44.6 5 44.8 5 C 45.1 5.1 45.3 5.1 45.5 5.2 C 45.7 5.3 46 5.4 46.1 5.5 C 46.3 5.7 46.5 5.8 46.6 6 C 46.7 6.2 46.8 6.5 46.8 6.8 C 46.8 7.1 46.7 7.3 46.6 7.6 C 46.5 7.8 46.4 8.1 46.2 8.3 C 46 8.5 45.7 8.6 45.3 8.7 C 45 8.9 44.6 8.9 44.1 8.9 C 43.7 8.9 43.4 8.9 43.1 8.8 C 42.8 8.7 42.5 8.6 42.3 8.4 C 42.1 8.2 41.9 8 41.8 7.7 C 41.7 7.4 41.7 7.1 41.7 6.7 C 41.7 6.7 42.7 6.7 42.7 6.7 Z M 48.8 2.3 L 49.9 2.3 C 49.9 2.3 49.12 6.28 49.1 6.3 C 49.1 6.4 49.1 6.5 49.1 6.5 C 49.1 6.6 49.1 6.7 49 6.8 C 49 7 49.1 7.2 49.1 7.3 C 49.2 7.5 49.3 7.6 49.4 7.7 C 49.6 7.8 49.7 7.9 49.9 7.9 C 50 7.9 50.2 8 50.4 8 C 50.6 8 50.8 7.9 51 7.9 C 51.2 7.8 51.4 7.8 51.5 7.6 C 51.7 7.5 51.8 7.3 51.9 7.1 C 52 6.9 52.1 6.6 52.2 6.3 C 52.19 6.31 53 2.3 53 2.3 L 54.2 2.3 C 54.2 2.3 53.32 6.38 53.3 6.4 C 53.3 6.6 53.2 6.9 53.1 7.2 C 53 7.5 52.8 7.8 52.6 8.1 C 52.4 8.3 52.1 8.5 51.7 8.7 C 51.4 8.8 50.9 8.9 50.3 8.9 C 50 8.9 49.7 8.9 49.4 8.8 C 49.1 8.7 48.9 8.6 48.6 8.4 C 48.4 8.3 48.2 8.1 48.1 7.8 C 48 7.6 47.9 7.3 47.9 6.9 C 47.9 6.8 47.9 6.7 48 6.5 C 48 6.4 48 6.2 48 6.1 C 48.03 6.08 48.8 2.3 48.8 2.3 Z M 62 4.5 C 62 4 61.8 3.7 61.6 3.5 C 61.3 3.2 61 3.1 60.5 3.1 C 60.1 3.1 59.8 3.2 59.5 3.4 C 59.2 3.5 59 3.8 58.8 4.1 C 58.6 4.3 58.5 4.7 58.4 5 C 58.3 5.4 58.2 5.7 58.2 6.1 C 58.2 6.7 58.4 7.2 58.7 7.5 C 59 7.8 59.4 8 60 8 C 60.3 8 60.5 8 60.7 7.8 C 60.9 7.7 61.1 7.6 61.2 7.4 C 61.3 7.3 61.4 7.1 61.5 6.9 C 61.6 6.8 61.6 6.6 61.7 6.5 C 61.7 6.5 62.8 6.5 62.8 6.5 C 62.7 6.9 62.6 7.3 62.4 7.6 C 62.2 7.9 62 8.1 61.7 8.3 C 61.5 8.5 61.2 8.7 60.9 8.8 C 60.6 8.9 60.3 8.9 60 8.9 C 59.5 8.9 59.1 8.9 58.7 8.7 C 58.4 8.6 58.1 8.4 57.8 8.1 C 57.6 7.9 57.4 7.6 57.3 7.2 C 57.2 6.9 57.1 6.5 57.1 6.1 C 57.1 5.4 57.2 4.9 57.4 4.4 C 57.6 3.9 57.9 3.5 58.2 3.1 C 58.5 2.8 58.9 2.6 59.3 2.4 C 59.7 2.3 60.1 2.2 60.6 2.2 C 60.9 2.2 61.3 2.2 61.6 2.3 C 61.9 2.5 62.2 2.6 62.4 2.8 C 62.6 3 62.8 3.2 62.9 3.5 C 63 3.8 63.1 4.1 63.1 4.5 C 63.1 4.5 62 4.5 62 4.5 Z M 64.6 2.3 L 65.7 2.3 L 65.5 3.3 L 64.4 3.3 L 64.6 2.3 Z M 64.3 4.1 L 65.3 4.1 L 64.3 8.8 L 63.3 8.8 L 64.3 4.1 Z M 66 4.1 L 67 4.1 L 67.4 7.5 L 67.4 7.5 L 69.2 4.1 L 70.3 4.1 L 67.8 8.8 L 66.6 8.8 L 66 4.1 Z M 71.5 2.3 L 72.5 2.3 L 72.3 3.3 L 71.3 3.3 L 71.5 2.3 Z M 71.1 4.1 L 72.1 4.1 L 71.2 8.8 L 70.2 8.8 L 71.1 4.1 Z M 73.7 2.3 L 74.8 2.3 L 73.4 8.8 L 72.4 8.8 L 73.7 2.3 Z M 78.7 2.3 L 83.4 2.3 L 83.2 3.3 L 79.6 3.3 L 79.3 5 L 82.6 5 L 82.4 5.9 L 79.1 5.9 L 78.7 7.8 L 82.3 7.8 L 82.1 8.8 L 77.4 8.8 L 78.7 2.3 Z M 84 4.1 L 85 4.1 L 84.8 4.8 C 84.8 4.8 84.82 4.81 84.8 4.8 C 85 4.6 85.2 4.4 85.5 4.2 C 85.8 4.1 86.1 4 86.4 4 C 86.9 4 87.2 4.1 87.5 4.3 C 87.7 4.6 87.8 4.9 87.8 5.2 C 87.8 5.3 87.8 5.4 87.8 5.5 C 87.8 5.6 87.8 5.7 87.7 5.8 C 87.74 5.8 87.1 8.8 87.1 8.8 L 86.1 8.8 C 86.1 8.8 86.69 5.9 86.7 5.9 C 86.7 5.8 86.7 5.8 86.7 5.7 C 86.8 5.6 86.8 5.5 86.8 5.5 C 86.8 5.4 86.8 5.4 86.8 5.3 C 86.8 5.2 86.7 5.2 86.7 5.1 C 86.6 5 86.6 4.9 86.5 4.9 C 86.4 4.8 86.2 4.8 86 4.8 C 85.8 4.8 85.7 4.8 85.5 4.9 C 85.3 5 85.2 5.1 85.1 5.3 C 85 5.4 84.9 5.5 84.8 5.7 C 84.7 5.9 84.6 6.1 84.6 6.3 C 84.57 6.25 84.1 8.8 84.1 8.8 L 83 8.8 L 84 4.1 Z M 89.6 6.8 C 89.6 7 89.6 7.1 89.6 7.3 C 89.7 7.4 89.7 7.5 89.8 7.6 C 89.9 7.7 90 7.8 90.1 7.9 C 90.2 7.9 90.4 8 90.6 8 C 90.8 8 91.1 7.9 91.3 7.8 C 91.5 7.6 91.6 7.5 91.7 7.3 C 91.9 7.1 92 6.9 92 6.6 C 92.1 6.4 92.1 6.1 92.1 5.9 C 92.1 5.6 92 5.3 91.8 5.1 C 91.7 4.9 91.4 4.8 91.1 4.8 C 90.8 4.8 90.6 4.9 90.4 5 C 90.2 5.1 90.1 5.3 89.9 5.5 C 89.8 5.7 89.7 5.9 89.7 6.1 C 89.6 6.4 89.6 6.6 89.6 6.8 Z M 92.5 8.6 C 92.5 9 92.4 9.3 92.3 9.6 C 92.1 9.8 92 10 91.8 10.2 C 91.6 10.3 91.4 10.4 91.1 10.5 C 90.9 10.6 90.6 10.6 90.2 10.6 C 89.9 10.6 89.7 10.6 89.4 10.5 C 89.2 10.5 89 10.4 88.8 10.3 C 88.6 10.2 88.5 10 88.4 9.8 C 88.3 9.6 88.2 9.4 88.2 9.1 C 88.2 9.1 89.2 9.1 89.2 9.1 C 89.2 9.4 89.3 9.6 89.5 9.7 C 89.7 9.8 90 9.9 90.3 9.9 C 90.5 9.9 90.7 9.8 90.9 9.8 C 91 9.7 91.1 9.6 91.2 9.5 C 91.3 9.4 91.4 9.2 91.5 9.1 C 91.5 8.9 91.6 8.7 91.6 8.5 C 91.6 8.55 91.7 8.1 91.7 8.1 C 91.7 8.1 91.68 8.07 91.7 8.1 C 91.4 8.5 90.9 8.8 90.4 8.8 C 89.8 8.8 89.3 8.6 89 8.3 C 88.7 7.9 88.6 7.5 88.6 6.9 C 88.6 6.5 88.6 6.2 88.7 5.8 C 88.8 5.5 89 5.2 89.2 4.9 C 89.4 4.6 89.6 4.4 89.9 4.2 C 90.2 4.1 90.6 4 91 4 C 91.3 4 91.6 4.1 91.8 4.2 C 92.1 4.3 92.3 4.6 92.4 4.9 C 92.4 4.9 92.4 4.9 92.4 4.9 L 92.6 4.1 L 93.5 4.1 C 93.5 4.1 92.55 8.65 92.5 8.6 Z M 95 2.3 L 96.1 2.3 L 95.9 3.3 L 94.8 3.3 L 95 2.3 Z M 94.7 4.1 L 95.7 4.1 L 94.7 8.8 L 93.7 8.8 L 94.7 4.1 Z M 96.9 4.1 L 97.9 4.1 L 97.7 4.8 C 97.7 4.8 97.77 4.81 97.8 4.8 C 98 4.6 98.2 4.4 98.5 4.2 C 98.7 4.1 99 4 99.4 4 C 99.8 4 100.2 4.1 100.4 4.3 C 100.6 4.6 100.7 4.9 100.7 5.2 C 100.7 5.3 100.7 5.4 100.7 5.5 C 100.7 5.6 100.7 5.7 100.7 5.8 C 100.68 5.8 100.1 8.8 100.1 8.8 L 99 8.8 C 99 8.8 99.63 5.9 99.6 5.9 C 99.6 5.8 99.7 5.8 99.7 5.7 C 99.7 5.6 99.7 5.5 99.7 5.5 C 99.7 5.4 99.7 5.4 99.7 5.3 C 99.7 5.2 99.7 5.2 99.6 5.1 C 99.6 5 99.5 4.9 99.4 4.9 C 99.3 4.8 99.2 4.8 99 4.8 C 98.8 4.8 98.6 4.8 98.4 4.9 C 98.3 5 98.1 5.1 98 5.3 C 97.9 5.4 97.8 5.5 97.7 5.7 C 97.6 5.9 97.6 6.1 97.5 6.3 C 97.51 6.25 97 8.8 97 8.8 L 96 8.8 L 96.9 4.1 Z M 104.9 6 C 105 6 105 6 105 6 C 105 5.9 105 5.9 105 5.9 C 105 5.9 105 5.8 105 5.8 C 105 5.5 104.9 5.2 104.7 5.1 C 104.5 4.9 104.3 4.8 104 4.8 C 103.6 4.8 103.3 4.9 103.1 5.2 C 102.8 5.4 102.7 5.7 102.6 6 C 102.6 6 104.9 6 104.9 6 Z M 105.7 7.3 C 105.5 7.9 105.3 8.3 104.9 8.5 C 104.5 8.8 104 8.9 103.5 8.9 C 103.2 8.9 102.9 8.9 102.6 8.8 C 102.4 8.7 102.2 8.5 102 8.4 C 101.8 8.2 101.7 8 101.6 7.7 C 101.5 7.5 101.4 7.2 101.4 6.9 C 101.4 6.5 101.5 6.2 101.6 5.8 C 101.7 5.5 101.9 5.2 102.1 4.9 C 102.3 4.6 102.6 4.4 102.9 4.2 C 103.2 4.1 103.6 4 104 4 C 104.4 4 104.8 4.1 105 4.2 C 105.3 4.3 105.5 4.5 105.6 4.7 C 105.8 4.9 105.9 5.2 105.9 5.4 C 106 5.7 106 5.9 106 6.1 C 106 6.3 106 6.4 106 6.5 C 106 6.5 105.9 6.6 105.9 6.7 C 105.9 6.7 102.5 6.7 102.5 6.7 C 102.5 6.7 102.5 6.8 102.5 6.8 C 102.4 6.8 102.4 6.8 102.4 6.9 C 102.4 6.9 102.4 7 102.4 7 C 102.4 7.3 102.5 7.6 102.7 7.8 C 102.9 8 103.2 8.1 103.6 8.1 C 103.8 8.1 104.1 8 104.3 7.9 C 104.5 7.8 104.6 7.6 104.7 7.3 C 104.7 7.3 105.7 7.3 105.7 7.3 Z M 110 6 C 110 6 110.1 6 110.1 6 C 110.1 5.9 110.1 5.9 110.1 5.9 C 110.1 5.9 110.1 5.8 110.1 5.8 C 110.1 5.5 110 5.2 109.8 5.1 C 109.6 4.9 109.4 4.8 109.1 4.8 C 108.7 4.8 108.4 4.9 108.2 5.2 C 107.9 5.4 107.8 5.7 107.7 6 C 107.7 6 110 6 110 6 Z M 110.8 7.3 C 110.6 7.9 110.4 8.3 110 8.5 C 109.6 8.8 109.1 8.9 108.5 8.9 C 108.3 8.9 108 8.9 107.7 8.8 C 107.5 8.7 107.3 8.5 107.1 8.4 C 106.9 8.2 106.8 8 106.7 7.7 C 106.6 7.5 106.5 7.2 106.5 6.9 C 106.5 6.5 106.6 6.2 106.7 5.8 C 106.8 5.5 107 5.2 107.2 4.9 C 107.4 4.6 107.7 4.4 108 4.2 C 108.3 4.1 108.7 4 109.1 4 C 109.5 4 109.8 4.1 110.1 4.2 C 110.4 4.3 110.6 4.5 110.7 4.7 C 110.9 4.9 110.9 5.2 111 5.4 C 111.1 5.7 111.1 5.9 111.1 6.1 C 111.1 6.3 111.1 6.4 111.1 6.5 C 111 6.5 111 6.6 111 6.7 C 111 6.7 107.6 6.7 107.6 6.7 C 107.6 6.7 107.5 6.8 107.5 6.8 C 107.5 6.8 107.5 6.8 107.5 6.9 C 107.5 6.9 107.5 7 107.5 7 C 107.5 7.3 107.6 7.6 107.8 7.8 C 108 8 108.3 8.1 108.6 8.1 C 108.9 8.1 109.2 8 109.4 7.9 C 109.6 7.8 109.7 7.6 109.8 7.3 C 109.8 7.3 110.8 7.3 110.8 7.3 Z M 112.4 4.1 L 113.3 4.1 L 113.2 5 C 113.2 5 113.17 5.05 113.2 5 C 113.2 4.9 113.3 4.8 113.4 4.7 C 113.5 4.5 113.7 4.4 113.8 4.3 C 113.9 4.2 114 4.2 114.2 4.1 C 114.3 4 114.5 4 114.7 4 C 114.7 4 114.8 4 114.9 4 C 115 4 115.1 4 115.2 4 C 115.2 4 114.9 5 114.9 5 C 114.9 5 114.8 5 114.8 5 C 114.7 5 114.6 5 114.6 5 C 114.3 5 114.1 5 113.9 5.1 C 113.7 5.2 113.5 5.3 113.4 5.5 C 113.3 5.7 113.1 5.8 113.1 6 C 113 6.3 112.9 6.5 112.9 6.7 C 112.87 6.71 112.4 8.8 112.4 8.8 L 111.4 8.8 L 112.4 4.1 Z M 116.2 2.3 L 117.2 2.3 L 117 3.3 L 116 3.3 L 116.2 2.3 Z M 115.8 4.1 L 116.8 4.1 L 115.9 8.8 L 114.8 8.8 L 115.8 4.1 Z M 118.1 4.1 L 119 4.1 L 118.9 4.8 C 118.9 4.8 118.89 4.81 118.9 4.8 C 119.1 4.6 119.3 4.4 119.6 4.2 C 119.9 4.1 120.2 4 120.5 4 C 121 4 121.3 4.1 121.5 4.3 C 121.7 4.6 121.8 4.9 121.8 5.2 C 121.8 5.3 121.8 5.4 121.8 5.5 C 121.8 5.6 121.8 5.7 121.8 5.8 C 121.8 5.8 121.2 8.8 121.2 8.8 L 120.2 8.8 C 120.2 8.8 120.75 5.9 120.8 5.9 C 120.8 5.8 120.8 5.8 120.8 5.7 C 120.8 5.6 120.8 5.5 120.8 5.5 C 120.8 5.4 120.8 5.4 120.8 5.3 C 120.8 5.2 120.8 5.2 120.8 5.1 C 120.7 5 120.6 4.9 120.5 4.9 C 120.4 4.8 120.3 4.8 120.1 4.8 C 119.9 4.8 119.7 4.8 119.6 4.9 C 119.4 5 119.3 5.1 119.1 5.3 C 119 5.4 118.9 5.5 118.8 5.7 C 118.7 5.9 118.7 6.1 118.6 6.3 C 118.64 6.25 118.1 8.8 118.1 8.8 L 117.1 8.8 L 118.1 4.1 Z M 123.6 6.8 C 123.6 7 123.7 7.1 123.7 7.3 C 123.7 7.4 123.8 7.5 123.9 7.6 C 124 7.7 124.1 7.8 124.2 7.9 C 124.3 7.9 124.4 8 124.6 8 C 124.9 8 125.1 7.9 125.3 7.8 C 125.5 7.6 125.7 7.5 125.8 7.3 C 125.9 7.1 126 6.9 126.1 6.6 C 126.1 6.4 126.2 6.1 126.2 5.9 C 126.2 5.6 126.1 5.3 125.9 5.1 C 125.7 4.9 125.5 4.8 125.1 4.8 C 124.9 4.8 124.7 4.9 124.5 5 C 124.3 5.1 124.1 5.3 124 5.5 C 123.9 5.7 123.8 5.9 123.7 6.1 C 123.7 6.4 123.6 6.6 123.6 6.8 Z M 126.6 8.6 C 126.5 9 126.4 9.3 126.3 9.6 C 126.2 9.8 126.1 10 125.9 10.2 C 125.7 10.3 125.5 10.4 125.2 10.5 C 124.9 10.6 124.6 10.6 124.3 10.6 C 124 10.6 123.7 10.6 123.5 10.5 C 123.3 10.5 123.1 10.4 122.9 10.3 C 122.7 10.2 122.6 10 122.4 9.8 C 122.3 9.6 122.3 9.4 122.3 9.1 C 122.3 9.1 123.3 9.1 123.3 9.1 C 123.3 9.4 123.4 9.6 123.6 9.7 C 123.8 9.8 124.1 9.9 124.4 9.9 C 124.6 9.9 124.8 9.8 124.9 9.8 C 125.1 9.7 125.2 9.6 125.3 9.5 C 125.4 9.4 125.5 9.2 125.5 9.1 C 125.6 8.9 125.6 8.7 125.7 8.5 C 125.67 8.55 125.8 8.1 125.8 8.1 C 125.8 8.1 125.75 8.07 125.7 8.1 C 125.4 8.5 125 8.8 124.4 8.8 C 123.9 8.8 123.4 8.6 123.1 8.3 C 122.8 7.9 122.6 7.5 122.6 6.9 C 122.6 6.5 122.7 6.2 122.8 5.8 C 122.9 5.5 123 5.2 123.2 4.9 C 123.4 4.6 123.7 4.4 124 4.2 C 124.3 4.1 124.6 4 125 4 C 125.4 4 125.7 4.1 125.9 4.2 C 126.2 4.3 126.3 4.6 126.5 4.9 C 126.47 4.9 126.5 4.9 126.5 4.9 L 126.6 4.1 L 127.6 4.1 C 127.6 4.1 126.61 8.65 126.6 8.6 Z M 131.8 7.9 C 131.8 7.9 133.21 7.86 133.2 7.9 C 133.5 7.9 133.8 7.8 134.1 7.7 C 134.3 7.6 134.5 7.4 134.7 7.3 C 134.9 7.1 135 6.9 135.1 6.7 C 135.2 6.5 135.3 6.3 135.4 6.1 C 135.5 5.8 135.5 5.7 135.5 5.5 C 135.6 5.3 135.6 5.1 135.6 5 C 135.6 4.5 135.5 4 135.2 3.7 C 135 3.4 134.6 3.3 134.2 3.3 C 134.17 3.27 132.8 3.3 132.8 3.3 L 131.8 7.9 Z M 131.8 2.3 C 131.8 2.3 134.19 2.35 134.2 2.3 C 135 2.3 135.6 2.6 136.1 3 C 136.5 3.5 136.7 4.1 136.7 5 C 136.7 5.2 136.7 5.4 136.6 5.7 C 136.6 5.9 136.5 6.2 136.5 6.4 C 136.4 6.6 136.3 6.9 136.1 7.1 C 136 7.3 135.9 7.5 135.7 7.7 C 135.5 7.9 135.3 8 135.1 8.2 C 135 8.3 134.8 8.4 134.5 8.5 C 134.3 8.6 134.1 8.7 133.8 8.7 C 133.5 8.8 133.1 8.8 132.7 8.8 C 132.74 8.77 130.5 8.8 130.5 8.8 L 131.8 2.3 Z M 140.7 6 C 140.7 6 140.7 6 140.7 6 C 140.7 5.9 140.7 5.9 140.7 5.9 C 140.7 5.9 140.7 5.8 140.7 5.8 C 140.7 5.5 140.6 5.2 140.4 5.1 C 140.3 4.9 140 4.8 139.7 4.8 C 139.3 4.8 139 4.9 138.8 5.2 C 138.6 5.4 138.4 5.7 138.3 6 C 138.3 6 140.7 6 140.7 6 Z M 141.4 7.3 C 141.3 7.9 141 8.3 140.6 8.5 C 140.2 8.8 139.7 8.9 139.2 8.9 C 138.9 8.9 138.6 8.9 138.4 8.8 C 138.1 8.7 137.9 8.5 137.7 8.4 C 137.5 8.2 137.4 8 137.3 7.7 C 137.2 7.5 137.1 7.2 137.1 6.9 C 137.1 6.5 137.2 6.2 137.3 5.8 C 137.4 5.5 137.6 5.2 137.8 4.9 C 138 4.6 138.3 4.4 138.6 4.2 C 139 4.1 139.3 4 139.7 4 C 140.1 4 140.5 4.1 140.7 4.2 C 141 4.3 141.2 4.5 141.3 4.7 C 141.5 4.9 141.6 5.2 141.6 5.4 C 141.7 5.7 141.7 5.9 141.7 6.1 C 141.7 6.3 141.7 6.4 141.7 6.5 C 141.7 6.5 141.7 6.6 141.7 6.7 C 141.7 6.7 138.2 6.7 138.2 6.7 C 138.2 6.7 138.2 6.8 138.2 6.8 C 138.2 6.8 138.2 6.8 138.2 6.9 C 138.2 6.9 138.2 7 138.2 7 C 138.2 7.3 138.3 7.6 138.4 7.8 C 138.6 8 138.9 8.1 139.3 8.1 C 139.6 8.1 139.8 8 140 7.9 C 140.2 7.8 140.3 7.6 140.4 7.3 C 140.4 7.3 141.4 7.3 141.4 7.3 Z M 143.5 6.9 C 143.5 7.1 143.5 7.2 143.6 7.4 C 143.6 7.5 143.7 7.6 143.8 7.7 C 143.8 7.8 143.9 7.9 144.1 8 C 144.2 8.1 144.4 8.1 144.5 8.1 C 144.8 8.1 145.1 8 145.3 7.9 C 145.5 7.8 145.6 7.6 145.7 7.4 C 145.9 7.2 146 7 146 6.8 C 146.1 6.5 146.1 6.3 146.1 6 C 146.1 5.9 146.1 5.7 146.1 5.5 C 146 5.4 146 5.3 145.9 5.2 C 145.8 5.1 145.7 5 145.6 4.9 C 145.4 4.8 145.3 4.8 145.1 4.8 C 144.8 4.8 144.6 4.9 144.4 5 C 144.2 5.1 144 5.3 143.9 5.5 C 143.8 5.7 143.7 5.9 143.6 6.2 C 143.5 6.4 143.5 6.7 143.5 6.9 Z M 143 4.1 L 144 4.1 L 143.9 4.7 C 143.9 4.7 143.93 4.73 143.9 4.7 C 144.1 4.5 144.3 4.3 144.6 4.2 C 144.8 4.1 145.1 4 145.4 4 C 145.7 4 145.9 4 146.2 4.1 C 146.4 4.2 146.6 4.4 146.7 4.5 C 146.9 4.7 147 4.9 147 5.2 C 147.1 5.4 147.2 5.6 147.2 5.9 C 147.2 6.3 147.1 6.6 147 7 C 146.9 7.3 146.8 7.7 146.6 7.9 C 146.4 8.2 146.1 8.5 145.8 8.6 C 145.5 8.8 145.2 8.9 144.8 8.9 C 144.4 8.9 144.1 8.8 143.9 8.7 C 143.6 8.6 143.4 8.4 143.3 8.1 C 143.25 8.05 143.2 8.1 143.2 8.1 L 142.7 10.5 L 141.7 10.5 L 143 4.1 Z M 148.7 7.5 C 148.7 7.6 148.7 7.7 148.8 7.8 C 148.8 7.9 148.9 7.9 149 8 C 149 8 149.1 8 149.2 8.1 C 149.3 8.1 149.4 8.1 149.5 8.1 C 149.8 8.1 150 8 150.1 8 C 150.3 7.9 150.5 7.8 150.6 7.6 C 150.7 7.5 150.8 7.3 150.8 7.1 C 150.9 6.9 150.9 6.7 151 6.5 C 151 6.5 151 6.5 151 6.5 C 150.9 6.5 150.8 6.6 150.7 6.6 C 150.5 6.7 150.4 6.7 150.3 6.7 C 150.2 6.7 150 6.7 149.8 6.7 C 149.6 6.7 149.5 6.8 149.3 6.8 C 149.1 6.9 149 6.9 148.9 7.1 C 148.7 7.2 148.7 7.3 148.7 7.5 Z M 151.8 7.4 C 151.8 7.5 151.7 7.6 151.7 7.7 C 151.7 7.7 151.7 7.8 151.7 7.9 C 151.7 8 151.7 8 151.7 8 C 151.8 8.1 151.8 8.1 151.9 8.1 C 152 8.1 152 8.1 152.1 8.1 C 152.1 8.1 152.2 8 152.3 8 C 152.3 8 152.1 8.8 152.1 8.8 C 152 8.8 151.8 8.8 151.7 8.9 C 151.6 8.9 151.4 8.9 151.3 8.9 C 151.1 8.9 151 8.8 150.9 8.7 C 150.8 8.6 150.7 8.5 150.7 8.3 C 150.5 8.5 150.2 8.7 150 8.8 C 149.7 8.9 149.4 8.9 149.1 8.9 C 148.9 8.9 148.7 8.9 148.6 8.8 C 148.4 8.8 148.2 8.7 148.1 8.6 C 148 8.5 147.9 8.4 147.8 8.2 C 147.7 8 147.7 7.9 147.7 7.7 C 147.7 7.4 147.7 7.1 147.8 6.9 C 147.9 6.7 148.1 6.6 148.3 6.5 C 148.4 6.3 148.6 6.2 148.9 6.2 C 149.1 6.1 149.4 6.1 149.6 6.1 C 150 6 150.3 6 150.6 6 C 150.8 6 151 5.9 151 5.8 C 151.1 5.7 151.2 5.5 151.2 5.4 C 151.2 5.1 151.1 5 150.9 4.9 C 150.8 4.8 150.6 4.8 150.4 4.8 C 150.1 4.8 149.9 4.9 149.7 5 C 149.4 5.1 149.3 5.2 149.2 5.5 C 149.2 5.5 148.3 5.5 148.3 5.5 C 148.3 5.2 148.4 5 148.5 4.8 C 148.7 4.6 148.8 4.5 149 4.3 C 149.2 4.2 149.4 4.1 149.7 4.1 C 149.9 4 150.2 4 150.5 4 C 150.9 4 151.2 4 151.4 4.1 C 151.7 4.2 151.9 4.3 152 4.4 C 152.1 4.5 152.1 4.6 152.2 4.8 C 152.2 4.9 152.2 5 152.2 5.1 C 152.2 5.3 152.2 5.5 152.1 5.8 C 152.1 5.8 151.8 7.4 151.8 7.4 Z M 153.7 4.1 L 154.7 4.1 L 154.5 5 C 154.5 5 154.49 5.05 154.5 5 C 154.6 4.9 154.7 4.8 154.8 4.7 C 154.9 4.5 155 4.4 155.1 4.3 C 155.2 4.2 155.4 4.2 155.5 4.1 C 155.7 4 155.8 4 156 4 C 156.1 4 156.1 4 156.2 4 C 156.3 4 156.4 4 156.5 4 C 156.5 4 156.3 5 156.3 5 C 156.2 5 156.1 5 156.1 5 C 156 5 156 5 155.9 5 C 155.6 5 155.4 5 155.2 5.1 C 155 5.2 154.8 5.3 154.7 5.5 C 154.6 5.7 154.5 5.8 154.4 6 C 154.3 6.3 154.2 6.5 154.2 6.7 C 154.19 6.71 153.8 8.8 153.8 8.8 L 152.7 8.8 L 153.7 4.1 Z M 157.7 2.7 L 158.7 2.7 L 158.4 4.1 L 159.3 4.1 L 159.2 4.9 L 158.2 4.9 C 158.2 4.9 157.76 7.16 157.8 7.2 C 157.7 7.3 157.7 7.4 157.7 7.5 C 157.7 7.5 157.7 7.6 157.7 7.7 C 157.7 7.8 157.7 7.9 157.7 7.9 C 157.8 8 157.9 8 158 8 C 158.1 8 158.2 8 158.3 8 C 158.4 8 158.5 8 158.6 8 C 158.6 8 158.4 8.7 158.4 8.7 C 158.3 8.8 158.1 8.8 158 8.8 C 157.8 8.8 157.7 8.8 157.6 8.8 C 157.4 8.8 157.2 8.8 157.1 8.7 C 157 8.7 156.9 8.6 156.8 8.6 C 156.8 8.5 156.7 8.4 156.7 8.3 C 156.7 8.2 156.6 8.1 156.6 8 C 156.6 7.9 156.7 7.8 156.7 7.7 C 156.7 7.6 156.7 7.5 156.7 7.4 C 156.71 7.43 157.2 4.9 157.2 4.9 L 156.4 4.9 L 156.6 4.1 L 157.4 4.1 L 157.7 2.7 Z M 160.3 4.1 L 161.2 4.1 L 161.1 4.8 C 161.1 4.8 161.11 4.8 161.1 4.8 C 161.3 4.5 161.5 4.3 161.8 4.2 C 162.1 4.1 162.4 4 162.7 4 C 163 4 163.2 4.1 163.5 4.2 C 163.7 4.3 163.8 4.5 163.9 4.8 C 164.1 4.6 164.3 4.4 164.6 4.2 C 164.8 4.1 165.1 4 165.5 4 C 165.9 4 166.2 4.1 166.5 4.3 C 166.7 4.6 166.8 4.9 166.8 5.2 C 166.8 5.3 166.8 5.4 166.8 5.5 C 166.7 5.6 166.7 5.7 166.7 5.8 C 166.71 5.8 166.1 8.8 166.1 8.8 L 165.1 8.8 C 165.1 8.8 165.66 6.02 165.7 6 C 165.7 6 165.7 5.9 165.7 5.8 C 165.7 5.7 165.7 5.6 165.8 5.5 C 165.8 5.4 165.7 5.3 165.7 5.2 C 165.7 5.2 165.7 5.1 165.6 5 C 165.6 5 165.5 4.9 165.4 4.9 C 165.4 4.8 165.2 4.8 165.1 4.8 C 164.9 4.8 164.7 4.8 164.6 4.9 C 164.4 5 164.3 5.1 164.2 5.2 C 164.1 5.4 164 5.5 163.9 5.6 C 163.9 5.8 163.8 5.9 163.8 6.1 C 163.78 6.06 163.2 8.8 163.2 8.8 L 162.2 8.8 C 162.2 8.8 162.72 6.22 162.7 6.2 C 162.7 6.1 162.8 6 162.8 5.8 C 162.8 5.7 162.9 5.5 162.9 5.4 C 162.9 5.2 162.8 5.1 162.7 5 C 162.7 4.9 162.5 4.8 162.3 4.8 C 162.1 4.8 161.9 4.8 161.8 4.9 C 161.6 5 161.5 5.1 161.4 5.2 C 161.3 5.3 161.2 5.4 161.1 5.6 C 161 5.7 160.9 5.9 160.9 6.1 C 160.87 6.08 160.3 8.8 160.3 8.8 L 159.3 8.8 L 160.3 4.1 Z M 171.1 6 C 171.1 6 171.1 6 171.1 6 C 171.1 5.9 171.1 5.9 171.1 5.9 C 171.1 5.9 171.1 5.8 171.1 5.8 C 171.1 5.5 171 5.2 170.8 5.1 C 170.6 4.9 170.4 4.8 170.1 4.8 C 169.7 4.8 169.4 4.9 169.2 5.2 C 168.9 5.4 168.8 5.7 168.7 6 C 168.7 6 171.1 6 171.1 6 Z M 171.8 7.3 C 171.6 7.9 171.4 8.3 171 8.5 C 170.6 8.8 170.1 8.9 169.6 8.9 C 169.3 8.9 169 8.9 168.7 8.8 C 168.5 8.7 168.3 8.5 168.1 8.4 C 167.9 8.2 167.8 8 167.7 7.7 C 167.6 7.5 167.5 7.2 167.5 6.9 C 167.5 6.5 167.6 6.2 167.7 5.8 C 167.8 5.5 168 5.2 168.2 4.9 C 168.4 4.6 168.7 4.4 169 4.2 C 169.3 4.1 169.7 4 170.1 4 C 170.5 4 170.9 4.1 171.1 4.2 C 171.4 4.3 171.6 4.5 171.7 4.7 C 171.9 4.9 172 5.2 172 5.4 C 172.1 5.7 172.1 5.9 172.1 6.1 C 172.1 6.3 172.1 6.4 172.1 6.5 C 172.1 6.5 172 6.6 172 6.7 C 172 6.7 168.6 6.7 168.6 6.7 C 168.6 6.7 168.6 6.8 168.6 6.8 C 168.6 6.8 168.6 6.8 168.6 6.9 C 168.6 6.9 168.6 7 168.6 7 C 168.6 7.3 168.6 7.6 168.8 7.8 C 169 8 169.3 8.1 169.7 8.1 C 169.9 8.1 170.2 8 170.4 7.9 C 170.6 7.8 170.7 7.6 170.8 7.3 C 170.8 7.3 171.8 7.3 171.8 7.3 Z M 173.4 4.1 L 174.3 4.1 L 174.2 4.8 C 174.2 4.8 174.22 4.81 174.2 4.8 C 174.4 4.6 174.6 4.4 174.9 4.2 C 175.2 4.1 175.5 4 175.8 4 C 176.3 4 176.6 4.1 176.9 4.3 C 177.1 4.6 177.2 4.9 177.2 5.2 C 177.2 5.3 177.2 5.4 177.2 5.5 C 177.2 5.6 177.2 5.7 177.1 5.8 C 177.14 5.8 176.5 8.8 176.5 8.8 L 175.5 8.8 C 175.5 8.8 176.08 5.9 176.1 5.9 C 176.1 5.8 176.1 5.8 176.1 5.7 C 176.1 5.6 176.2 5.5 176.2 5.5 C 176.2 5.4 176.2 5.4 176.2 5.3 C 176.1 5.2 176.1 5.2 176.1 5.1 C 176 5 176 4.9 175.9 4.9 C 175.8 4.8 175.6 4.8 175.4 4.8 C 175.2 4.8 175.1 4.8 174.9 4.9 C 174.7 5 174.6 5.1 174.5 5.3 C 174.4 5.4 174.2 5.5 174.2 5.7 C 174.1 5.9 174 6.1 174 6.3 C 173.97 6.25 173.4 8.8 173.4 8.8 L 172.4 8.8 L 173.4 4.1 Z M 179.2 2.7 L 180.2 2.7 L 179.9 4.1 L 180.9 4.1 L 180.7 4.9 L 179.8 4.9 C 179.8 4.9 179.29 7.16 179.3 7.2 C 179.3 7.3 179.2 7.4 179.2 7.5 C 179.2 7.5 179.2 7.6 179.2 7.7 C 179.2 7.8 179.2 7.9 179.3 7.9 C 179.3 8 179.4 8 179.6 8 C 179.6 8 179.7 8 179.8 8 C 179.9 8 180 8 180.1 8 C 180.1 8 179.9 8.7 179.9 8.7 C 179.8 8.8 179.7 8.8 179.5 8.8 C 179.4 8.8 179.2 8.8 179.1 8.8 C 178.9 8.8 178.8 8.8 178.6 8.7 C 178.5 8.7 178.4 8.6 178.4 8.6 C 178.3 8.5 178.2 8.4 178.2 8.3 C 178.2 8.2 178.2 8.1 178.2 8 C 178.2 7.9 178.2 7.8 178.2 7.7 C 178.2 7.6 178.2 7.5 178.2 7.4 C 178.23 7.43 178.8 4.9 178.8 4.9 L 178 4.9 L 178.1 4.1 L 178.9 4.1 L 179.2 2.7 Z M 181.1 7.6 C 181.1 7.6 182.4 7.56 182.4 7.6 C 182.3 7.8 182.3 8.1 182.2 8.4 C 182.2 8.7 182.1 8.9 182 9.2 C 181.9 9.4 181.7 9.6 181.6 9.8 C 181.4 10 181.1 10.1 180.7 10.1 C 180.7 10.1 180.8 9.6 180.8 9.6 C 181.1 9.5 181.2 9.4 181.3 9.3 C 181.4 9.2 181.5 9 181.6 8.8 C 181.55 8.77 180.9 8.8 180.9 8.8 L 181.1 7.6 Z M 187 7.5 C 187 7.6 187 7.7 187.1 7.8 C 187.1 7.9 187.2 7.9 187.3 8 C 187.3 8 187.4 8 187.5 8.1 C 187.6 8.1 187.7 8.1 187.8 8.1 C 188.1 8.1 188.3 8 188.5 8 C 188.6 7.9 188.8 7.8 188.9 7.6 C 189 7.5 189.1 7.3 189.1 7.1 C 189.2 6.9 189.2 6.7 189.3 6.5 C 189.3 6.5 189.3 6.5 189.3 6.5 C 189.2 6.5 189.1 6.6 189 6.6 C 188.9 6.7 188.7 6.7 188.6 6.7 C 188.5 6.7 188.3 6.7 188.1 6.7 C 187.9 6.7 187.8 6.8 187.6 6.8 C 187.4 6.9 187.3 6.9 187.2 7.1 C 187.1 7.2 187 7.3 187 7.5 Z M 190.1 7.4 C 190.1 7.5 190 7.6 190 7.7 C 190 7.7 190 7.8 190 7.9 C 190 8 190 8 190 8 C 190.1 8.1 190.1 8.1 190.2 8.1 C 190.3 8.1 190.3 8.1 190.4 8.1 C 190.5 8.1 190.5 8 190.6 8 C 190.6 8 190.4 8.8 190.4 8.8 C 190.3 8.8 190.1 8.8 190 8.9 C 189.9 8.9 189.7 8.9 189.6 8.9 C 189.4 8.9 189.3 8.8 189.2 8.7 C 189.1 8.6 189 8.5 189 8.3 C 188.8 8.5 188.5 8.7 188.3 8.8 C 188 8.9 187.7 8.9 187.4 8.9 C 187.2 8.9 187 8.9 186.9 8.8 C 186.7 8.8 186.5 8.7 186.4 8.6 C 186.3 8.5 186.2 8.4 186.1 8.2 C 186 8 186 7.9 186 7.7 C 186 7.4 186 7.1 186.1 6.9 C 186.2 6.7 186.4 6.6 186.6 6.5 C 186.7 6.3 187 6.2 187.2 6.2 C 187.4 6.1 187.7 6.1 187.9 6.1 C 188.3 6 188.6 6 189 6 C 189.1 6 189.3 5.9 189.4 5.8 C 189.4 5.7 189.5 5.5 189.5 5.4 C 189.5 5.1 189.4 5 189.3 4.9 C 189.1 4.8 188.9 4.8 188.7 4.8 C 188.4 4.8 188.2 4.9 188 5 C 187.8 5.1 187.6 5.2 187.5 5.5 C 187.5 5.5 186.6 5.5 186.6 5.5 C 186.6 5.2 186.7 5 186.9 4.8 C 187 4.6 187.1 4.5 187.3 4.3 C 187.5 4.2 187.8 4.1 188 4.1 C 188.2 4 188.5 4 188.8 4 C 189.2 4 189.5 4 189.8 4.1 C 190 4.2 190.2 4.3 190.3 4.4 C 190.4 4.5 190.5 4.6 190.5 4.8 C 190.5 4.9 190.5 5 190.5 5.1 C 190.5 5.3 190.5 5.5 190.4 5.8 C 190.4 5.8 190.1 7.4 190.1 7.4 Z M 192.6 2.7 L 193.6 2.7 L 193.3 4.1 L 194.2 4.1 L 194.1 4.9 L 193.1 4.9 C 193.1 4.9 192.65 7.16 192.7 7.2 C 192.6 7.3 192.6 7.4 192.6 7.5 C 192.6 7.5 192.6 7.6 192.6 7.7 C 192.6 7.8 192.6 7.9 192.6 7.9 C 192.7 8 192.8 8 192.9 8 C 193 8 193.1 8 193.2 8 C 193.3 8 193.4 8 193.5 8 C 193.5 8 193.3 8.7 193.3 8.7 C 193.2 8.8 193 8.8 192.9 8.8 C 192.7 8.8 192.6 8.8 192.5 8.8 C 192.3 8.8 192.1 8.8 192 8.7 C 191.9 8.7 191.8 8.6 191.7 8.6 C 191.7 8.5 191.6 8.4 191.6 8.3 C 191.5 8.2 191.5 8.1 191.5 8 C 191.5 7.9 191.5 7.8 191.6 7.7 C 191.6 7.6 191.6 7.5 191.6 7.4 C 191.6 7.43 192.1 4.9 192.1 4.9 L 191.3 4.9 L 191.5 4.1 L 192.3 4.1 L 192.6 2.7 Z M 198.2 7.9 C 198.2 7.9 199.56 7.86 199.6 7.9 C 199.9 7.9 200.2 7.8 200.4 7.7 C 200.7 7.6 200.9 7.4 201 7.3 C 201.2 7.1 201.4 6.9 201.5 6.7 C 201.6 6.5 201.7 6.3 201.8 6.1 C 201.8 5.8 201.9 5.7 201.9 5.5 C 201.9 5.3 201.9 5.1 201.9 5 C 201.9 4.5 201.8 4 201.6 3.7 C 201.3 3.4 201 3.3 200.5 3.3 C 200.53 3.27 199.1 3.3 199.1 3.3 L 198.2 7.9 Z M 198.2 2.3 C 198.2 2.3 200.54 2.35 200.5 2.3 C 201.4 2.3 202 2.6 202.4 3 C 202.9 3.5 203.1 4.1 203.1 5 C 203.1 5.2 203 5.4 203 5.7 C 203 5.9 202.9 6.2 202.8 6.4 C 202.7 6.6 202.6 6.9 202.5 7.1 C 202.4 7.3 202.2 7.5 202 7.7 C 201.9 7.9 201.7 8 201.5 8.2 C 201.3 8.3 201.1 8.4 200.9 8.5 C 200.7 8.6 200.4 8.7 200.1 8.7 C 199.8 8.8 199.5 8.8 199.1 8.8 C 199.1 8.77 196.8 8.8 196.8 8.8 L 198.2 2.3 Z M 204.8 2.3 L 205.9 2.3 L 204.8 7.8 L 208 7.8 L 207.8 8.8 L 203.5 8.8 L 204.8 2.3 Z M 209.9 6.7 C 209.8 7.1 210 7.5 210.2 7.7 C 210.5 7.9 210.9 8 211.3 8 C 211.5 8 211.7 8 211.8 8 C 212 7.9 212.2 7.9 212.3 7.8 C 212.4 7.7 212.5 7.6 212.6 7.5 C 212.7 7.3 212.8 7.2 212.8 7 C 212.8 6.8 212.7 6.7 212.6 6.5 C 212.6 6.4 212.4 6.3 212.3 6.2 C 212.2 6.2 212 6.1 211.8 6 C 211.6 6 211.4 5.9 211.2 5.9 C 211.1 5.8 210.9 5.8 210.7 5.7 C 210.5 5.6 210.3 5.6 210.1 5.4 C 210 5.3 209.8 5.1 209.7 4.9 C 209.5 4.8 209.5 4.5 209.5 4.2 C 209.5 3.9 209.5 3.6 209.6 3.4 C 209.8 3.1 209.9 2.9 210.1 2.8 C 210.3 2.6 210.6 2.4 210.9 2.3 C 211.2 2.2 211.5 2.2 211.9 2.2 C 212.2 2.2 212.5 2.2 212.8 2.3 C 213.1 2.4 213.4 2.5 213.6 2.7 C 213.8 2.8 214 3 214.1 3.3 C 214.2 3.6 214.3 3.9 214.3 4.2 C 214.3 4.2 213.2 4.2 213.2 4.2 C 213.2 3.8 213.1 3.6 212.8 3.4 C 212.6 3.2 212.3 3.1 211.9 3.1 C 211.8 3.1 211.7 3.1 211.5 3.1 C 211.4 3.2 211.3 3.2 211.1 3.3 C 211 3.3 210.9 3.4 210.8 3.6 C 210.7 3.7 210.6 3.8 210.6 4.1 C 210.6 4.2 210.6 4.3 210.7 4.4 C 210.8 4.5 210.9 4.6 211 4.7 C 211.1 4.8 211.3 4.8 211.4 4.9 C 211.6 4.9 211.8 5 211.9 5 C 212.2 5.1 212.4 5.1 212.6 5.2 C 212.9 5.3 213.1 5.4 213.3 5.5 C 213.5 5.7 213.6 5.8 213.7 6 C 213.8 6.2 213.9 6.5 213.9 6.8 C 213.9 7.1 213.9 7.3 213.8 7.6 C 213.7 7.8 213.5 8.1 213.3 8.3 C 213.1 8.5 212.8 8.6 212.5 8.7 C 212.1 8.9 211.7 8.9 211.2 8.9 C 210.8 8.9 210.5 8.9 210.2 8.8 C 209.9 8.7 209.6 8.6 209.4 8.4 C 209.2 8.2 209 8 208.9 7.7 C 208.8 7.4 208.8 7.1 208.8 6.7 C 208.8 6.7 209.9 6.7 209.9 6.7 Z M 215.9 2.3 L 217.1 2.3 C 217.1 2.3 216.24 6.28 216.2 6.3 C 216.2 6.4 216.2 6.5 216.2 6.5 C 216.2 6.6 216.2 6.7 216.2 6.8 C 216.2 7 216.2 7.2 216.3 7.3 C 216.3 7.5 216.4 7.6 216.6 7.7 C 216.7 7.8 216.8 7.9 217 7.9 C 217.2 7.9 217.3 8 217.5 8 C 217.8 8 218 7.9 218.1 7.9 C 218.3 7.8 218.5 7.8 218.6 7.6 C 218.8 7.5 218.9 7.3 219 7.1 C 219.1 6.9 219.2 6.6 219.3 6.3 C 219.31 6.31 220.2 2.3 220.2 2.3 L 221.3 2.3 C 221.3 2.3 220.43 6.38 220.4 6.4 C 220.4 6.6 220.3 6.9 220.2 7.2 C 220.1 7.5 219.9 7.8 219.7 8.1 C 219.5 8.3 219.2 8.5 218.8 8.7 C 218.5 8.8 218 8.9 217.4 8.9 C 217.1 8.9 216.8 8.9 216.5 8.8 C 216.2 8.7 216 8.6 215.8 8.4 C 215.5 8.3 215.4 8.1 215.2 7.8 C 215.1 7.6 215 7.3 215 6.9 C 215 6.8 215.1 6.7 215.1 6.5 C 215.1 6.4 215.1 6.2 215.2 6.1 C 215.15 6.08 215.9 2.3 215.9 2.3 Z M 221.7 5.8 L 224.4 5.8 L 224.2 6.8 L 221.5 6.8 L 221.7 5.8 Z M 226.3 7.9 C 226.3 7.9 227.68 7.86 227.7 7.9 C 228 7.9 228.3 7.8 228.5 7.7 C 228.8 7.6 229 7.4 229.2 7.3 C 229.3 7.1 229.5 6.9 229.6 6.7 C 229.7 6.5 229.8 6.3 229.9 6.1 C 229.9 5.8 230 5.7 230 5.5 C 230 5.3 230.1 5.1 230.1 5 C 230.1 4.5 229.9 4 229.7 3.7 C 229.4 3.4 229.1 3.3 228.6 3.3 C 228.64 3.27 227.2 3.3 227.2 3.3 L 226.3 7.9 Z M 226.3 2.3 C 226.3 2.3 228.66 2.35 228.7 2.3 C 229.5 2.3 230.1 2.6 230.5 3 C 231 3.5 231.2 4.1 231.2 5 C 231.2 5.2 231.2 5.4 231.1 5.7 C 231.1 5.9 231 6.2 230.9 6.4 C 230.8 6.6 230.7 6.9 230.6 7.1 C 230.5 7.3 230.3 7.5 230.2 7.7 C 230 7.9 229.8 8 229.6 8.2 C 229.4 8.3 229.2 8.4 229 8.5 C 228.8 8.6 228.5 8.7 228.2 8.7 C 228 8.8 227.6 8.8 227.2 8.8 C 227.21 8.77 225 8.8 225 8.8 L 226.3 2.3 Z M 232.5 7.5 C 232.5 7.6 232.5 7.7 232.6 7.8 C 232.6 7.9 232.7 7.9 232.7 8 C 232.8 8 232.9 8 233 8.1 C 233.1 8.1 233.2 8.1 233.3 8.1 C 233.5 8.1 233.8 8 233.9 8 C 234.1 7.9 234.2 7.8 234.4 7.6 C 234.5 7.5 234.6 7.3 234.6 7.1 C 234.7 6.9 234.7 6.7 234.8 6.5 C 234.8 6.5 234.7 6.5 234.7 6.5 C 234.7 6.5 234.6 6.6 234.5 6.6 C 234.3 6.7 234.2 6.7 234.1 6.7 C 234 6.7 233.8 6.7 233.6 6.7 C 233.4 6.7 233.2 6.8 233.1 6.8 C 232.9 6.9 232.8 6.9 232.7 7.1 C 232.5 7.2 232.5 7.3 232.5 7.5 Z M 235.6 7.4 C 235.5 7.5 235.5 7.6 235.5 7.7 C 235.5 7.7 235.5 7.8 235.5 7.9 C 235.5 8 235.5 8 235.5 8 C 235.5 8.1 235.6 8.1 235.7 8.1 C 235.7 8.1 235.8 8.1 235.9 8.1 C 235.9 8.1 236 8 236 8 C 236 8 235.9 8.8 235.9 8.8 C 235.8 8.8 235.6 8.8 235.5 8.9 C 235.4 8.9 235.2 8.9 235.1 8.9 C 234.9 8.9 234.8 8.8 234.7 8.7 C 234.5 8.6 234.5 8.5 234.5 8.3 C 234.3 8.5 234 8.7 233.7 8.8 C 233.5 8.9 233.2 8.9 232.9 8.9 C 232.7 8.9 232.5 8.9 232.4 8.8 C 232.2 8.8 232 8.7 231.9 8.6 C 231.8 8.5 231.6 8.4 231.6 8.2 C 231.5 8 231.5 7.9 231.5 7.7 C 231.5 7.4 231.5 7.1 231.6 6.9 C 231.7 6.7 231.9 6.6 232 6.5 C 232.2 6.3 232.4 6.2 232.7 6.2 C 232.9 6.1 233.1 6.1 233.4 6.1 C 233.8 6 234.1 6 234.4 6 C 234.6 6 234.8 5.9 234.8 5.8 C 234.9 5.7 235 5.5 235 5.4 C 235 5.1 234.9 5 234.7 4.9 C 234.6 4.8 234.4 4.8 234.2 4.8 C 233.9 4.8 233.7 4.9 233.4 5 C 233.2 5.1 233.1 5.2 233 5.5 C 233 5.5 232.1 5.5 232.1 5.5 C 232.1 5.2 232.2 5 232.3 4.8 C 232.5 4.6 232.6 4.5 232.8 4.3 C 233 4.2 233.2 4.1 233.5 4.1 C 233.7 4 234 4 234.2 4 C 234.7 4 235 4 235.2 4.1 C 235.5 4.2 235.6 4.3 235.8 4.4 C 235.9 4.5 235.9 4.6 236 4.8 C 236 4.9 236 5 236 5.1 C 236 5.3 236 5.5 235.9 5.8 C 235.9 5.8 235.6 7.4 235.6 7.4 Z M 239.8 5.5 C 239.8 5.2 239.7 5.1 239.5 5 C 239.4 4.9 239.2 4.8 238.9 4.8 C 238.8 4.8 238.7 4.8 238.6 4.8 C 238.5 4.9 238.4 4.9 238.3 4.9 C 238.3 5 238.2 5 238.2 5.1 C 238.1 5.2 238.1 5.3 238.1 5.4 C 238.1 5.5 238.1 5.6 238.2 5.7 C 238.3 5.7 238.4 5.8 238.5 5.8 C 238.7 5.9 238.8 5.9 239 6 C 239.1 6 239.3 6.1 239.5 6.1 C 239.6 6.2 239.7 6.2 239.9 6.3 C 240 6.4 240.1 6.5 240.2 6.6 C 240.3 6.6 240.4 6.8 240.4 6.9 C 240.5 7 240.5 7.2 240.5 7.4 C 240.5 7.6 240.5 7.9 240.4 8.1 C 240.2 8.3 240.1 8.4 239.9 8.5 C 239.7 8.7 239.5 8.8 239.2 8.8 C 239 8.9 238.7 8.9 238.5 8.9 C 238.2 8.9 237.9 8.9 237.7 8.8 C 237.5 8.8 237.3 8.7 237.1 8.6 C 236.9 8.4 236.8 8.3 236.7 8.1 C 236.6 7.9 236.5 7.6 236.5 7.3 C 236.5 7.3 237.5 7.3 237.5 7.3 C 237.5 7.6 237.6 7.8 237.8 7.9 C 238 8 238.2 8.1 238.5 8.1 C 238.6 8.1 238.7 8.1 238.9 8.1 C 239 8 239.1 8 239.2 8 C 239.3 7.9 239.3 7.8 239.4 7.8 C 239.5 7.7 239.5 7.6 239.5 7.4 C 239.5 7.3 239.5 7.2 239.4 7.1 C 239.3 7.1 239.2 7 239 6.9 C 238.9 6.9 238.8 6.8 238.6 6.8 C 238.4 6.7 238.2 6.7 238.1 6.6 C 237.9 6.6 237.8 6.5 237.7 6.4 C 237.6 6.4 237.5 6.3 237.4 6.2 C 237.3 6.1 237.2 6 237.1 5.9 C 237.1 5.7 237.1 5.6 237.1 5.4 C 237.1 5.2 237.1 4.9 237.2 4.8 C 237.3 4.6 237.5 4.4 237.7 4.3 C 237.8 4.2 238 4.1 238.3 4.1 C 238.5 4 238.7 4 239 4 C 239.2 4 239.5 4 239.7 4.1 C 239.9 4.1 240.1 4.2 240.3 4.3 C 240.4 4.4 240.6 4.6 240.7 4.8 C 240.7 5 240.8 5.2 240.8 5.5 C 240.8 5.5 239.8 5.5 239.8 5.5 Z M 242.1 4.1 L 243.1 4.1 L 243 4.8 C 243 4.8 242.98 4.8 243 4.8 C 243.2 4.5 243.4 4.3 243.7 4.2 C 243.9 4.1 244.2 4 244.6 4 C 244.9 4 245.1 4.1 245.3 4.2 C 245.5 4.3 245.7 4.5 245.8 4.8 C 246 4.6 246.2 4.4 246.5 4.2 C 246.7 4.1 247 4 247.3 4 C 247.8 4 248.1 4.1 248.3 4.3 C 248.5 4.6 248.6 4.9 248.6 5.2 C 248.6 5.3 248.6 5.4 248.6 5.5 C 248.6 5.6 248.6 5.7 248.6 5.8 C 248.58 5.8 248 8.8 248 8.8 L 247 8.8 C 247 8.8 247.53 6.02 247.5 6 C 247.5 6 247.6 5.9 247.6 5.8 C 247.6 5.7 247.6 5.6 247.6 5.5 C 247.6 5.4 247.6 5.3 247.6 5.2 C 247.6 5.2 247.6 5.1 247.5 5 C 247.5 5 247.4 4.9 247.3 4.9 C 247.2 4.8 247.1 4.8 247 4.8 C 246.8 4.8 246.6 4.8 246.5 4.9 C 246.3 5 246.2 5.1 246.1 5.2 C 246 5.4 245.9 5.5 245.8 5.6 C 245.7 5.8 245.7 5.9 245.7 6.1 C 245.65 6.06 245.1 8.8 245.1 8.8 L 244.1 8.8 C 244.1 8.8 244.59 6.22 244.6 6.2 C 244.6 6.1 244.6 6 244.7 5.8 C 244.7 5.7 244.7 5.5 244.7 5.4 C 244.7 5.2 244.7 5.1 244.6 5 C 244.5 4.9 244.4 4.8 244.2 4.8 C 244 4.8 243.8 4.8 243.6 4.9 C 243.5 5 243.4 5.1 243.3 5.2 C 243.2 5.3 243.1 5.4 243 5.6 C 242.9 5.7 242.8 5.9 242.7 6.1 C 242.75 6.08 242.2 8.8 242.2 8.8 L 241.2 8.8 L 242.1 4.1 Z M 250.3 7.5 C 250.3 7.6 250.3 7.7 250.3 7.8 C 250.4 7.9 250.4 7.9 250.5 8 C 250.6 8 250.7 8 250.8 8.1 C 250.9 8.1 251 8.1 251.1 8.1 C 251.3 8.1 251.5 8 251.7 8 C 251.9 7.9 252 7.8 252.1 7.6 C 252.2 7.5 252.3 7.3 252.4 7.1 C 252.5 6.9 252.5 6.7 252.5 6.5 C 252.5 6.5 252.5 6.5 252.5 6.5 C 252.4 6.5 252.4 6.6 252.2 6.6 C 252.1 6.7 252 6.7 251.9 6.7 C 251.7 6.7 251.6 6.7 251.4 6.7 C 251.2 6.7 251 6.8 250.8 6.8 C 250.7 6.9 250.5 6.9 250.4 7.1 C 250.3 7.2 250.3 7.3 250.3 7.5 Z M 253.3 7.4 C 253.3 7.5 253.3 7.6 253.3 7.7 C 253.3 7.7 253.2 7.8 253.2 7.9 C 253.2 8 253.3 8 253.3 8 C 253.3 8.1 253.4 8.1 253.5 8.1 C 253.5 8.1 253.6 8.1 253.6 8.1 C 253.7 8.1 253.8 8 253.8 8 C 253.8 8 253.7 8.8 253.7 8.8 C 253.5 8.8 253.4 8.8 253.3 8.9 C 253.1 8.9 253 8.9 252.9 8.9 C 252.7 8.9 252.5 8.8 252.4 8.7 C 252.3 8.6 252.3 8.5 252.2 8.3 C 252 8.5 251.8 8.7 251.5 8.8 C 251.2 8.9 251 8.9 250.7 8.9 C 250.5 8.9 250.3 8.9 250.1 8.8 C 250 8.8 249.8 8.7 249.7 8.6 C 249.5 8.5 249.4 8.4 249.3 8.2 C 249.3 8 249.2 7.9 249.2 7.7 C 249.2 7.4 249.3 7.1 249.4 6.9 C 249.5 6.7 249.6 6.6 249.8 6.5 C 250 6.3 250.2 6.2 250.4 6.2 C 250.7 6.1 250.9 6.1 251.2 6.1 C 251.5 6 251.9 6 252.2 6 C 252.4 6 252.5 5.9 252.6 5.8 C 252.7 5.7 252.7 5.5 252.7 5.4 C 252.7 5.1 252.7 5 252.5 4.9 C 252.4 4.8 252.2 4.8 252 4.8 C 251.7 4.8 251.4 4.9 251.2 5 C 251 5.1 250.9 5.2 250.8 5.5 C 250.8 5.5 249.8 5.5 249.8 5.5 C 249.9 5.2 250 5 250.1 4.8 C 250.2 4.6 250.4 4.5 250.6 4.3 C 250.8 4.2 251 4.1 251.2 4.1 C 251.5 4 251.7 4 252 4 C 252.4 4 252.8 4 253 4.1 C 253.2 4.2 253.4 4.3 253.5 4.4 C 253.6 4.5 253.7 4.6 253.7 4.8 C 253.8 4.9 253.8 5 253.8 5.1 C 253.8 5.3 253.7 5.5 253.7 5.8 C 253.7 5.8 253.3 7.4 253.3 7.4 Z M 255.3 4.1 L 256.2 4.1 L 256 5 C 256 5 256.06 5.05 256.1 5 C 256.1 4.9 256.2 4.8 256.3 4.7 C 256.4 4.5 256.5 4.4 256.7 4.3 C 256.8 4.2 256.9 4.2 257.1 4.1 C 257.2 4 257.4 4 257.5 4 C 257.6 4 257.7 4 257.8 4 C 257.9 4 258 4 258 4 C 258 4 257.8 5 257.8 5 C 257.8 5 257.7 5 257.6 5 C 257.6 5 257.5 5 257.5 5 C 257.2 5 257 5 256.8 5.1 C 256.6 5.2 256.4 5.3 256.3 5.5 C 256.1 5.7 256 5.8 255.9 6 C 255.9 6.3 255.8 6.5 255.8 6.7 C 255.75 6.71 255.3 8.8 255.3 8.8 L 254.3 8.8 L 255.3 4.1 Z M 259 2.3 L 260.1 2.3 L 259.9 3.3 L 258.8 3.3 L 259 2.3 Z M 258.7 4.1 L 259.7 4.1 L 258.7 8.8 L 257.7 8.8 L 258.7 4.1 Z M 260.9 4.1 L 261.9 4.1 L 261.8 4.8 C 261.8 4.8 261.77 4.81 261.8 4.8 C 262 4.6 262.2 4.4 262.5 4.2 C 262.7 4.1 263 4 263.4 4 C 263.8 4 264.2 4.1 264.4 4.3 C 264.6 4.6 264.7 4.9 264.7 5.2 C 264.7 5.3 264.7 5.4 264.7 5.5 C 264.7 5.6 264.7 5.7 264.7 5.8 C 264.69 5.8 264.1 8.8 264.1 8.8 L 263 8.8 C 263 8.8 263.63 5.9 263.6 5.9 C 263.7 5.8 263.7 5.8 263.7 5.7 C 263.7 5.6 263.7 5.5 263.7 5.5 C 263.7 5.4 263.7 5.4 263.7 5.3 C 263.7 5.2 263.7 5.2 263.6 5.1 C 263.6 5 263.5 4.9 263.4 4.9 C 263.3 4.8 263.2 4.8 263 4.8 C 262.8 4.8 262.6 4.8 262.5 4.9 C 262.3 5 262.1 5.1 262 5.3 C 261.9 5.4 261.8 5.5 261.7 5.7 C 261.6 5.9 261.6 6.1 261.5 6.3 C 261.52 6.25 261 8.8 261 8.8 L 260 8.8 L 260.9 4.1 Z M 266.3 7.5 C 266.3 7.6 266.3 7.7 266.4 7.8 C 266.4 7.9 266.5 7.9 266.6 8 C 266.6 8 266.7 8 266.8 8.1 C 266.9 8.1 267 8.1 267.1 8.1 C 267.4 8.1 267.6 8 267.7 8 C 267.9 7.9 268 7.8 268.2 7.6 C 268.3 7.5 268.4 7.3 268.4 7.1 C 268.5 6.9 268.5 6.7 268.6 6.5 C 268.6 6.5 268.5 6.5 268.5 6.5 C 268.5 6.5 268.4 6.6 268.3 6.6 C 268.1 6.7 268 6.7 267.9 6.7 C 267.8 6.7 267.6 6.7 267.4 6.7 C 267.2 6.7 267 6.8 266.9 6.8 C 266.7 6.9 266.6 6.9 266.5 7.1 C 266.3 7.2 266.3 7.3 266.3 7.5 Z M 269.4 7.4 C 269.3 7.5 269.3 7.6 269.3 7.7 C 269.3 7.7 269.3 7.8 269.3 7.9 C 269.3 8 269.3 8 269.3 8 C 269.4 8.1 269.4 8.1 269.5 8.1 C 269.6 8.1 269.6 8.1 269.7 8.1 C 269.7 8.1 269.8 8 269.9 8 C 269.9 8 269.7 8.8 269.7 8.8 C 269.6 8.8 269.4 8.8 269.3 8.9 C 269.2 8.9 269 8.9 268.9 8.9 C 268.7 8.9 268.6 8.8 268.5 8.7 C 268.3 8.6 268.3 8.5 268.3 8.3 C 268.1 8.5 267.8 8.7 267.5 8.8 C 267.3 8.9 267 8.9 266.7 8.9 C 266.5 8.9 266.3 8.9 266.2 8.8 C 266 8.8 265.8 8.7 265.7 8.6 C 265.6 8.5 265.4 8.4 265.4 8.2 C 265.3 8 265.3 7.9 265.3 7.7 C 265.3 7.4 265.3 7.1 265.4 6.9 C 265.5 6.7 265.7 6.6 265.8 6.5 C 266 6.3 266.2 6.2 266.5 6.2 C 266.7 6.1 266.9 6.1 267.2 6.1 C 267.6 6 267.9 6 268.2 6 C 268.4 6 268.6 5.9 268.6 5.8 C 268.7 5.7 268.8 5.5 268.8 5.4 C 268.8 5.1 268.7 5 268.5 4.9 C 268.4 4.8 268.2 4.8 268 4.8 C 267.7 4.8 267.5 4.9 267.2 5 C 267 5.1 266.9 5.2 266.8 5.5 C 266.8 5.5 265.9 5.5 265.9 5.5 C 265.9 5.2 266 5 266.1 4.8 C 266.3 4.6 266.4 4.5 266.6 4.3 C 266.8 4.2 267 4.1 267.3 4.1 C 267.5 4 267.8 4 268.1 4 C 268.5 4 268.8 4 269 4.1 C 269.3 4.2 269.4 4.3 269.6 4.4 C 269.7 4.5 269.7 4.6 269.8 4.8 C 269.8 4.9 269.8 5 269.8 5.1 C 269.8 5.3 269.8 5.5 269.7 5.8 C 269.7 5.8 269.4 7.4 269.4 7.4 Z M 273.6 5.5 C 273.6 5.2 273.5 5.1 273.3 5 C 273.2 4.9 273 4.8 272.7 4.8 C 272.6 4.8 272.5 4.8 272.4 4.8 C 272.3 4.9 272.2 4.9 272.1 4.9 C 272.1 5 272 5 272 5.1 C 271.9 5.2 271.9 5.3 271.9 5.4 C 271.9 5.5 271.9 5.6 272 5.7 C 272.1 5.7 272.2 5.8 272.3 5.8 C 272.5 5.9 272.6 5.9 272.8 6 C 272.9 6 273.1 6.1 273.3 6.1 C 273.4 6.2 273.5 6.2 273.7 6.3 C 273.8 6.4 273.9 6.5 274 6.6 C 274.1 6.6 274.2 6.8 274.2 6.9 C 274.3 7 274.3 7.2 274.3 7.4 C 274.3 7.6 274.3 7.9 274.2 8.1 C 274 8.3 273.9 8.4 273.7 8.5 C 273.5 8.7 273.3 8.8 273 8.8 C 272.8 8.9 272.5 8.9 272.3 8.9 C 272 8.9 271.8 8.9 271.5 8.8 C 271.3 8.8 271.1 8.7 270.9 8.6 C 270.7 8.4 270.6 8.3 270.5 8.1 C 270.4 7.9 270.3 7.6 270.3 7.3 C 270.3 7.3 271.3 7.3 271.3 7.3 C 271.3 7.6 271.4 7.8 271.6 7.9 C 271.8 8 272 8.1 272.3 8.1 C 272.4 8.1 272.5 8.1 272.7 8.1 C 272.8 8 272.9 8 273 8 C 273.1 7.9 273.2 7.8 273.2 7.8 C 273.3 7.7 273.3 7.6 273.3 7.4 C 273.3 7.3 273.3 7.2 273.2 7.1 C 273.1 7.1 273 7 272.8 6.9 C 272.7 6.9 272.6 6.8 272.4 6.8 C 272.2 6.7 272 6.7 271.9 6.6 C 271.7 6.6 271.6 6.5 271.5 6.4 C 271.4 6.4 271.3 6.3 271.2 6.2 C 271.1 6.1 271 6 270.9 5.9 C 270.9 5.7 270.9 5.6 270.9 5.4 C 270.9 5.2 270.9 4.9 271 4.8 C 271.1 4.6 271.3 4.4 271.5 4.3 C 271.6 4.2 271.8 4.1 272.1 4.1 C 272.3 4 272.5 4 272.8 4 C 273 4 273.3 4 273.5 4.1 C 273.7 4.1 273.9 4.2 274.1 4.3 C 274.2 4.4 274.4 4.6 274.5 4.8 C 274.5 5 274.6 5.2 274.6 5.5 C 274.6 5.5 273.6 5.5 273.6 5.5 Z " stroke="none" fill="#fff"/>
  </g>
</svg>