<?xml version="1.0" standalone="no"?>
<!DOCTYPE svg PUBLIC "-//W3C//DTD SVG 1.1//EN" "http://www.w3.org/Graphics/SVG/1.1/DTD/svg11.dtd">
<svg xmlns="http://www.w3.org/2000/svg" version="1.1" width="792px" height="29.6px" viewBox="0 -5 792 29.6" style="top:-5px">
  <desc>ANG OPISYAL NA PAHAYAGANG PANGMAG-AARAL NG PAMANTASANG DE LA SALLE</desc>
  <defs/>
  <g id="Polygon13146">
    <path d="M 154.5 5.7 L 151.5 5.7 C 151.5 5.7 150.93 6.91 150.9 6.9 C 150.8 7.2 150.7 7.5 150.7 7.6 C 150.7 7.7 150.8 7.8 150.9 7.9 C 151 8 151.3 8.1 151.6 8.1 C 151.65 8.1 151.6 8.3 151.6 8.3 L 149.1 8.3 C 149.1 8.3 149.15 8.1 149.1 8.1 C 149.5 8 149.7 8 149.8 7.9 C 150 7.7 150.2 7.3 150.5 6.7 C 150.45 6.73 153.2 0.2 153.2 0.2 L 153.5 0.2 C 153.5 0.2 156.22 6.8 156.2 6.8 C 156.4 7.3 156.6 7.7 156.8 7.8 C 157 8 157.3 8.1 157.6 8.1 C 157.58 8.1 157.6 8.3 157.6 8.3 L 154.4 8.3 C 154.4 8.3 154.45 8.1 154.4 8.1 C 154.8 8.1 155 8 155.1 7.9 C 155.2 7.9 155.3 7.7 155.3 7.6 C 155.3 7.4 155.2 7.2 155 6.8 C 155.02 6.8 154.5 5.7 154.5 5.7 Z M 154.4 5.2 L 153 2 L 151.6 5.2 L 154.4 5.2 Z M 158 0.4 L 160.1 0.4 L 165 6.3 C 165 6.3 164.99 1.75 165 1.8 C 165 1.3 164.9 1 164.8 0.8 C 164.7 0.7 164.5 0.6 164.1 0.6 C 164.14 0.59 163.9 0.6 163.9 0.6 L 163.9 0.4 L 166.6 0.4 L 166.6 0.6 C 166.6 0.6 166.35 0.59 166.4 0.6 C 166 0.6 165.8 0.7 165.6 0.9 C 165.6 1 165.5 1.3 165.5 1.8 C 165.51 1.75 165.5 8.4 165.5 8.4 L 165.3 8.4 L 160.1 2.1 C 160.1 2.1 160.06 6.94 160.1 6.9 C 160.1 7.4 160.1 7.7 160.2 7.9 C 160.4 8 160.6 8.1 160.9 8.1 C 160.9 8.1 161.2 8.1 161.2 8.1 L 161.2 8.3 L 158.4 8.3 L 158.4 8.1 C 158.4 8.1 158.7 8.1 158.7 8.1 C 159 8.1 159.3 8 159.4 7.8 C 159.5 7.7 159.5 7.4 159.5 6.9 C 159.5 6.9 159.5 1.4 159.5 1.4 C 159.3 1.1 159.1 1 159 0.9 C 158.9 0.8 158.7 0.7 158.5 0.6 C 158.4 0.6 158.2 0.6 158 0.6 C 157.98 0.59 158 0.4 158 0.4 Z M 174.6 0.2 L 174.8 2.7 C 174.8 2.7 174.59 2.7 174.6 2.7 C 174.4 2.1 174.1 1.6 173.8 1.3 C 173.3 0.8 172.7 0.6 172 0.6 C 171 0.6 170.2 1 169.7 1.8 C 169.2 2.5 169 3.3 169 4.2 C 169 5 169.1 5.7 169.4 6.3 C 169.7 6.9 170.1 7.4 170.6 7.7 C 171.1 8 171.5 8.1 172 8.1 C 172.3 8.1 172.6 8.1 172.9 8 C 173.2 7.9 173.4 7.8 173.7 7.7 C 173.7 7.7 173.7 5.4 173.7 5.4 C 173.7 5 173.7 4.7 173.6 4.6 C 173.5 4.5 173.4 4.4 173.3 4.3 C 173.2 4.2 173 4.2 172.6 4.2 C 172.65 4.21 172.6 4 172.6 4 L 175.7 4 L 175.7 4.2 C 175.7 4.2 175.57 4.21 175.6 4.2 C 175.3 4.2 175.1 4.3 174.9 4.5 C 174.9 4.7 174.8 4.9 174.8 5.4 C 174.8 5.4 174.8 7.8 174.8 7.8 C 174.4 8 173.9 8.2 173.5 8.3 C 173.1 8.4 172.6 8.5 172 8.5 C 170.5 8.5 169.3 8 168.5 7 C 167.9 6.3 167.6 5.4 167.6 4.5 C 167.6 3.8 167.8 3.1 168.2 2.5 C 168.5 1.7 169.1 1.1 169.8 0.7 C 170.4 0.4 171.1 0.2 171.9 0.2 C 172.1 0.2 172.4 0.2 172.6 0.3 C 172.9 0.3 173.2 0.4 173.6 0.6 C 173.9 0.7 174 0.7 174.1 0.7 C 174.2 0.7 174.2 0.7 174.3 0.6 C 174.3 0.5 174.4 0.4 174.4 0.2 C 174.37 0.19 174.6 0.2 174.6 0.2 Z M 181.4 1.2 C 182.2 0.5 183.1 0.2 184.1 0.2 C 185.2 0.2 186 0.6 186.8 1.4 C 187.6 2.2 187.9 3.1 187.9 4.3 C 187.9 5.5 187.6 6.5 186.8 7.3 C 186 8.1 185.1 8.5 184 8.5 C 182.9 8.5 182 8.1 181.3 7.3 C 180.5 6.6 180.2 5.6 180.2 4.3 C 180.2 3.1 180.6 2 181.4 1.2 C 181.4 1.2 181.4 1.2 181.4 1.2 Z M 185.8 1.4 C 185.4 0.9 184.8 0.6 184 0.6 C 183.3 0.6 182.7 0.9 182.3 1.4 C 181.8 2.1 181.5 3 181.5 4.3 C 181.5 5.6 181.8 6.6 182.3 7.3 C 182.8 7.8 183.3 8.1 184 8.1 C 184.8 8.1 185.4 7.8 185.9 7.2 C 186.3 6.6 186.6 5.7 186.6 4.5 C 186.6 3.1 186.3 2.1 185.8 1.4 C 185.8 1.4 185.8 1.4 185.8 1.4 Z M 191.3 4.6 C 191.3 4.6 191.3 6.9 191.3 6.9 C 191.3 7.4 191.3 7.7 191.4 7.8 C 191.6 8 191.8 8.1 192.1 8.1 C 192.12 8.1 192.4 8.1 192.4 8.1 L 192.4 8.3 L 189 8.3 L 189 8.1 C 189 8.1 189.32 8.1 189.3 8.1 C 189.7 8.1 189.9 8 190 7.8 C 190.1 7.7 190.2 7.4 190.2 6.9 C 190.2 6.9 190.2 1.8 190.2 1.8 C 190.2 1.3 190.1 1 190 0.8 C 189.8 0.7 189.6 0.6 189.3 0.6 C 189.32 0.59 189 0.6 189 0.6 L 189 0.4 C 189 0.4 191.93 0.38 191.9 0.4 C 192.6 0.4 193.2 0.4 193.6 0.6 C 194 0.7 194.4 1 194.6 1.3 C 194.9 1.7 195.1 2.1 195.1 2.6 C 195.1 3.2 194.9 3.7 194.4 4.2 C 194 4.6 193.4 4.8 192.6 4.8 C 192.4 4.8 192.2 4.8 192 4.7 C 191.8 4.7 191.5 4.7 191.3 4.6 Z M 191.3 4.3 C 191.5 4.3 191.7 4.3 191.8 4.4 C 192 4.4 192.1 4.4 192.2 4.4 C 192.6 4.4 193 4.2 193.3 3.9 C 193.6 3.6 193.7 3.2 193.7 2.7 C 193.7 2.3 193.7 2 193.5 1.7 C 193.4 1.4 193.2 1.2 192.9 1.1 C 192.7 0.9 192.4 0.8 192 0.8 C 191.8 0.8 191.6 0.9 191.3 1 C 191.3 1 191.3 4.3 191.3 4.3 Z M 199.6 8.1 L 199.6 8.3 L 196.2 8.3 L 196.2 8.1 C 196.2 8.1 196.49 8.1 196.5 8.1 C 196.8 8.1 197.1 8 197.2 7.8 C 197.3 7.7 197.3 7.4 197.3 6.9 C 197.3 6.9 197.3 1.8 197.3 1.8 C 197.3 1.4 197.3 1.1 197.3 1 C 197.2 0.9 197.2 0.8 197 0.7 C 196.9 0.6 196.7 0.6 196.5 0.6 C 196.49 0.59 196.2 0.6 196.2 0.6 L 196.2 0.4 L 199.6 0.4 L 199.6 0.6 C 199.6 0.6 199.33 0.59 199.3 0.6 C 199 0.6 198.8 0.7 198.6 0.9 C 198.5 1 198.5 1.3 198.5 1.8 C 198.5 1.8 198.5 6.9 198.5 6.9 C 198.5 7.3 198.5 7.6 198.5 7.7 C 198.6 7.8 198.7 7.9 198.8 8 C 199 8.1 199.1 8.1 199.3 8.1 C 199.33 8.1 199.6 8.1 199.6 8.1 Z M 205.8 0.2 L 205.8 2.9 C 205.8 2.9 205.61 2.94 205.6 2.9 C 205.5 2.4 205.4 2 205.2 1.7 C 205.1 1.4 204.8 1.1 204.5 0.9 C 204.1 0.8 203.8 0.7 203.4 0.7 C 203 0.7 202.7 0.8 202.4 1 C 202.1 1.3 202 1.6 202 1.9 C 202 2.1 202.1 2.3 202.3 2.5 C 202.5 2.8 203.1 3.2 204 3.7 C 204.7 4.1 205.2 4.4 205.5 4.6 C 205.8 4.8 206 5.1 206.1 5.4 C 206.3 5.7 206.4 6 206.4 6.3 C 206.4 6.9 206.1 7.4 205.7 7.8 C 205.2 8.3 204.6 8.5 203.9 8.5 C 203.6 8.5 203.4 8.5 203.2 8.4 C 203.1 8.4 202.8 8.4 202.5 8.2 C 202.1 8.1 201.8 8.1 201.7 8.1 C 201.6 8.1 201.6 8.1 201.5 8.1 C 201.4 8.2 201.4 8.3 201.4 8.5 C 201.37 8.5 201.2 8.5 201.2 8.5 L 201.2 5.8 C 201.2 5.8 201.37 5.78 201.4 5.8 C 201.5 6.3 201.6 6.8 201.8 7.1 C 202 7.3 202.2 7.6 202.6 7.8 C 202.9 8 203.3 8 203.7 8 C 204.2 8 204.6 7.9 204.9 7.7 C 205.2 7.4 205.3 7.1 205.3 6.7 C 205.3 6.5 205.3 6.4 205.2 6.2 C 205 6 204.9 5.8 204.7 5.6 C 204.5 5.5 204.1 5.2 203.4 4.8 C 202.7 4.5 202.2 4.2 202 3.9 C 201.7 3.7 201.4 3.5 201.3 3.2 C 201.2 2.9 201.1 2.6 201.1 2.3 C 201.1 1.7 201.3 1.2 201.7 0.8 C 202.2 0.4 202.7 0.2 203.4 0.2 C 203.8 0.2 204.3 0.3 204.7 0.5 C 205 0.6 205.1 0.7 205.2 0.7 C 205.3 0.7 205.4 0.6 205.5 0.6 C 205.5 0.5 205.6 0.4 205.6 0.2 C 205.61 0.19 205.8 0.2 205.8 0.2 Z M 213.1 0.4 L 215.9 0.4 L 215.9 0.6 C 215.9 0.6 215.76 0.59 215.8 0.6 C 215.7 0.6 215.5 0.6 215.3 0.7 C 215.1 0.8 214.9 0.9 214.8 1.1 C 214.6 1.3 214.4 1.6 214.2 1.9 C 214.19 1.93 212.3 5 212.3 5 C 212.3 5 212.27 6.94 212.3 6.9 C 212.3 7.4 212.3 7.7 212.4 7.9 C 212.6 8 212.8 8.1 213.1 8.1 C 213.14 8.1 213.4 8.1 213.4 8.1 L 213.4 8.3 L 210 8.3 L 210 8.1 C 210 8.1 210.3 8.1 210.3 8.1 C 210.6 8.1 210.9 8 211 7.8 C 211.1 7.7 211.1 7.4 211.1 6.9 C 211.15 6.94 211.1 5.1 211.1 5.1 C 211.1 5.1 208.97 1.73 209 1.7 C 208.7 1.3 208.5 1.1 208.4 1 C 208.4 0.9 208.2 0.8 207.9 0.7 C 207.8 0.6 207.7 0.6 207.5 0.6 C 207.53 0.59 207.5 0.4 207.5 0.4 L 210.9 0.4 L 210.9 0.6 C 210.9 0.6 210.75 0.59 210.8 0.6 C 210.6 0.6 210.4 0.6 210.2 0.7 C 210.1 0.8 210 0.9 210 1.1 C 210 1.2 210.1 1.5 210.4 1.9 C 210.37 1.87 212 4.4 212 4.4 C 212 4.4 213.59 1.98 213.6 2 C 213.8 1.6 213.9 1.3 213.9 1.2 C 213.9 1.1 213.9 1 213.9 0.9 C 213.8 0.8 213.7 0.7 213.6 0.7 C 213.5 0.6 213.4 0.6 213.1 0.6 C 213.14 0.59 213.1 0.4 213.1 0.4 Z M 220.7 5.7 L 217.6 5.7 C 217.6 5.7 217.05 6.91 217.1 6.9 C 216.9 7.2 216.9 7.5 216.9 7.6 C 216.9 7.7 216.9 7.8 217 7.9 C 217.1 8 217.4 8.1 217.8 8.1 C 217.77 8.1 217.8 8.3 217.8 8.3 L 215.3 8.3 C 215.3 8.3 215.27 8.1 215.3 8.1 C 215.6 8 215.8 8 215.9 7.9 C 216.1 7.7 216.3 7.3 216.6 6.7 C 216.58 6.73 219.4 0.2 219.4 0.2 L 219.6 0.2 C 219.6 0.2 222.34 6.8 222.3 6.8 C 222.6 7.3 222.8 7.7 222.9 7.8 C 223.1 8 223.4 8.1 223.7 8.1 C 223.71 8.1 223.7 8.3 223.7 8.3 L 220.6 8.3 C 220.6 8.3 220.57 8.1 220.6 8.1 C 220.9 8.1 221.1 8 221.2 7.9 C 221.3 7.9 221.4 7.7 221.4 7.6 C 221.4 7.4 221.3 7.2 221.1 6.8 C 221.15 6.8 220.7 5.7 220.7 5.7 Z M 220.5 5.2 L 219.2 2 L 217.8 5.2 L 220.5 5.2 Z M 231.1 6.1 C 231.14 6.12 231.3 6.2 231.3 6.2 L 230.7 8.3 L 224.5 8.3 L 224.5 8.1 C 224.5 8.1 224.8 8.1 224.8 8.1 C 225.1 8.1 225.4 8 225.5 7.8 C 225.6 7.7 225.6 7.4 225.6 6.9 C 225.6 6.9 225.6 1.8 225.6 1.8 C 225.6 1.3 225.6 1 225.5 0.8 C 225.3 0.7 225.1 0.6 224.8 0.6 C 224.8 0.59 224.5 0.6 224.5 0.6 L 224.5 0.4 L 228.1 0.4 C 228.1 0.4 228.1 0.59 228.1 0.6 C 227.7 0.6 227.4 0.6 227.2 0.7 C 227 0.8 226.9 0.9 226.9 1 C 226.8 1.1 226.8 1.4 226.8 1.9 C 226.8 1.9 226.8 6.9 226.8 6.9 C 226.8 7.2 226.8 7.5 226.9 7.6 C 226.9 7.7 227 7.7 227.1 7.8 C 227.2 7.8 227.5 7.8 228 7.8 C 228 7.8 228.6 7.8 228.6 7.8 C 229.2 7.8 229.6 7.8 229.9 7.7 C 230.1 7.6 230.3 7.4 230.5 7.2 C 230.7 7 230.9 6.6 231.1 6.1 Z M 234.8 0.4 L 237 0.4 L 241.8 6.3 C 241.8 6.3 241.84 1.75 241.8 1.8 C 241.8 1.3 241.8 1 241.7 0.8 C 241.5 0.7 241.3 0.6 241 0.6 C 240.99 0.59 240.7 0.6 240.7 0.6 L 240.7 0.4 L 243.5 0.4 L 243.5 0.6 C 243.5 0.6 243.2 0.59 243.2 0.6 C 242.9 0.6 242.6 0.7 242.5 0.9 C 242.4 1 242.4 1.3 242.4 1.8 C 242.36 1.75 242.4 8.4 242.4 8.4 L 242.1 8.4 L 236.9 2.1 C 236.9 2.1 236.91 6.94 236.9 6.9 C 236.9 7.4 237 7.7 237.1 7.9 C 237.2 8 237.4 8.1 237.8 8.1 C 237.75 8.1 238 8.1 238 8.1 L 238 8.3 L 235.3 8.3 L 235.3 8.1 C 235.3 8.1 235.54 8.1 235.5 8.1 C 235.9 8.1 236.1 8 236.3 7.8 C 236.4 7.7 236.4 7.4 236.4 6.9 C 236.4 6.9 236.4 1.4 236.4 1.4 C 236.2 1.1 236 1 235.9 0.9 C 235.8 0.8 235.6 0.7 235.3 0.6 C 235.2 0.6 235.1 0.6 234.8 0.6 C 234.83 0.59 234.8 0.4 234.8 0.4 Z M 249.6 5.7 L 246.5 5.7 C 246.5 5.7 245.95 6.91 245.9 6.9 C 245.8 7.2 245.7 7.5 245.7 7.6 C 245.7 7.7 245.8 7.8 245.9 7.9 C 246 8 246.3 8.1 246.7 8.1 C 246.67 8.1 246.7 8.3 246.7 8.3 L 244.2 8.3 C 244.2 8.3 244.17 8.1 244.2 8.1 C 244.5 8 244.7 8 244.8 7.9 C 245 7.7 245.2 7.3 245.5 6.7 C 245.47 6.73 248.3 0.2 248.3 0.2 L 248.5 0.2 C 248.5 0.2 251.24 6.8 251.2 6.8 C 251.5 7.3 251.7 7.7 251.8 7.8 C 252 8 252.3 8.1 252.6 8.1 C 252.6 8.1 252.6 8.3 252.6 8.3 L 249.5 8.3 C 249.5 8.3 249.47 8.1 249.5 8.1 C 249.8 8.1 250 8 250.1 7.9 C 250.2 7.9 250.3 7.7 250.3 7.6 C 250.3 7.4 250.2 7.2 250 6.8 C 250.04 6.8 249.6 5.7 249.6 5.7 Z M 249.4 5.2 L 248.1 2 L 246.7 5.2 L 249.4 5.2 Z M 258.4 4.6 C 258.4 4.6 258.4 6.9 258.4 6.9 C 258.4 7.4 258.4 7.7 258.5 7.8 C 258.7 8 258.9 8.1 259.2 8.1 C 259.22 8.1 259.5 8.1 259.5 8.1 L 259.5 8.3 L 256.1 8.3 L 256.1 8.1 C 256.1 8.1 256.42 8.1 256.4 8.1 C 256.8 8.1 257 8 257.1 7.8 C 257.2 7.7 257.3 7.4 257.3 6.9 C 257.3 6.9 257.3 1.8 257.3 1.8 C 257.3 1.3 257.2 1 257.1 0.8 C 256.9 0.7 256.7 0.6 256.4 0.6 C 256.42 0.59 256.1 0.6 256.1 0.6 L 256.1 0.4 C 256.1 0.4 259.03 0.38 259 0.4 C 259.7 0.4 260.3 0.4 260.7 0.6 C 261.1 0.7 261.5 1 261.7 1.3 C 262 1.7 262.2 2.1 262.2 2.6 C 262.2 3.2 262 3.7 261.5 4.2 C 261.1 4.6 260.5 4.8 259.7 4.8 C 259.5 4.8 259.3 4.8 259.1 4.7 C 258.9 4.7 258.6 4.7 258.4 4.6 Z M 258.4 4.3 C 258.6 4.3 258.8 4.3 258.9 4.4 C 259.1 4.4 259.2 4.4 259.3 4.4 C 259.7 4.4 260.1 4.2 260.4 3.9 C 260.7 3.6 260.8 3.2 260.8 2.7 C 260.8 2.3 260.8 2 260.6 1.7 C 260.5 1.4 260.3 1.2 260 1.1 C 259.8 0.9 259.5 0.8 259.1 0.8 C 258.9 0.8 258.7 0.9 258.4 1 C 258.4 1 258.4 4.3 258.4 4.3 Z M 267.4 5.7 L 264.3 5.7 C 264.3 5.7 263.78 6.91 263.8 6.9 C 263.7 7.2 263.6 7.5 263.6 7.6 C 263.6 7.7 263.6 7.8 263.8 7.9 C 263.9 8 264.1 8.1 264.5 8.1 C 264.51 8.1 264.5 8.3 264.5 8.3 L 262 8.3 C 262 8.3 262 8.1 262 8.1 C 262.3 8 262.6 8 262.6 7.9 C 262.8 7.7 263.1 7.3 263.3 6.7 C 263.31 6.73 266.1 0.2 266.1 0.2 L 266.3 0.2 C 266.3 0.2 269.08 6.8 269.1 6.8 C 269.3 7.3 269.5 7.7 269.7 7.8 C 269.9 8 270.1 8.1 270.4 8.1 C 270.44 8.1 270.4 8.3 270.4 8.3 L 267.3 8.3 C 267.3 8.3 267.31 8.1 267.3 8.1 C 267.6 8.1 267.8 8 267.9 7.9 C 268.1 7.9 268.1 7.7 268.1 7.6 C 268.1 7.4 268 7.2 267.9 6.8 C 267.88 6.8 267.4 5.7 267.4 5.7 Z M 267.2 5.2 L 265.9 2 L 264.5 5.2 L 267.2 5.2 Z M 273.5 4.1 L 277.2 4.1 C 277.2 4.1 277.15 1.79 277.2 1.8 C 277.2 1.4 277.1 1.1 277.1 1 C 277 0.9 277 0.8 276.8 0.7 C 276.7 0.6 276.5 0.6 276.3 0.6 C 276.3 0.59 276 0.6 276 0.6 L 276 0.4 L 279.4 0.4 L 279.4 0.6 C 279.4 0.6 279.13 0.59 279.1 0.6 C 278.9 0.6 278.8 0.6 278.6 0.7 C 278.5 0.8 278.4 0.9 278.3 1 C 278.3 1.1 278.3 1.4 278.3 1.8 C 278.3 1.8 278.3 6.9 278.3 6.9 C 278.3 7.3 278.3 7.6 278.4 7.7 C 278.4 7.8 278.5 7.9 278.6 8 C 278.8 8.1 278.9 8.1 279.1 8.1 C 279.13 8.1 279.4 8.1 279.4 8.1 L 279.4 8.3 L 276 8.3 L 276 8.1 C 276 8.1 276.3 8.1 276.3 8.1 C 276.6 8.1 276.9 8 277 7.8 C 277.1 7.7 277.2 7.4 277.2 6.9 C 277.15 6.91 277.2 4.5 277.2 4.5 L 273.5 4.5 C 273.5 4.5 273.46 6.91 273.5 6.9 C 273.5 7.3 273.5 7.6 273.5 7.7 C 273.6 7.8 273.7 7.9 273.8 8 C 274 8.1 274.1 8.1 274.3 8.1 C 274.32 8.1 274.6 8.1 274.6 8.1 L 274.6 8.3 L 271.2 8.3 L 271.2 8.1 C 271.2 8.1 271.48 8.1 271.5 8.1 C 271.8 8.1 272 8 272.2 7.8 C 272.3 7.7 272.3 7.4 272.3 6.9 C 272.3 6.9 272.3 1.8 272.3 1.8 C 272.3 1.4 272.3 1.1 272.3 1 C 272.2 0.9 272.1 0.8 272 0.7 C 271.8 0.6 271.7 0.6 271.5 0.6 C 271.48 0.59 271.2 0.6 271.2 0.6 L 271.2 0.4 L 274.6 0.4 L 274.6 0.6 C 274.6 0.6 274.32 0.59 274.3 0.6 C 274.1 0.6 274 0.6 273.8 0.7 C 273.7 0.8 273.6 0.9 273.5 1 C 273.5 1.1 273.5 1.4 273.5 1.8 C 273.46 1.79 273.5 4.1 273.5 4.1 Z M 285.6 5.7 L 282.5 5.7 C 282.5 5.7 281.96 6.91 282 6.9 C 281.8 7.2 281.8 7.5 281.8 7.6 C 281.8 7.7 281.8 7.8 281.9 7.9 C 282 8 282.3 8.1 282.7 8.1 C 282.68 8.1 282.7 8.3 282.7 8.3 L 280.2 8.3 C 280.2 8.3 280.18 8.1 280.2 8.1 C 280.5 8 280.7 8 280.8 7.9 C 281 7.7 281.2 7.3 281.5 6.7 C 281.48 6.73 284.3 0.2 284.3 0.2 L 284.5 0.2 C 284.5 0.2 287.25 6.8 287.2 6.8 C 287.5 7.3 287.7 7.7 287.9 7.8 C 288 8 288.3 8.1 288.6 8.1 C 288.61 8.1 288.6 8.3 288.6 8.3 L 285.5 8.3 C 285.5 8.3 285.48 8.1 285.5 8.1 C 285.8 8.1 286 8 286.1 7.9 C 286.2 7.9 286.3 7.7 286.3 7.6 C 286.3 7.4 286.2 7.2 286.1 6.8 C 286.05 6.8 285.6 5.7 285.6 5.7 Z M 285.4 5.2 L 284.1 2 L 282.7 5.2 L 285.4 5.2 Z M 293.8 0.4 L 296.6 0.4 L 296.6 0.6 C 296.6 0.6 296.4 0.59 296.4 0.6 C 296.3 0.6 296.2 0.6 296 0.7 C 295.8 0.8 295.6 0.9 295.4 1.1 C 295.3 1.3 295.1 1.6 294.8 1.9 C 294.83 1.93 292.9 5 292.9 5 C 292.9 5 292.92 6.94 292.9 6.9 C 292.9 7.4 293 7.7 293.1 7.9 C 293.2 8 293.5 8.1 293.8 8.1 C 293.79 8.1 294 8.1 294 8.1 L 294 8.3 L 290.7 8.3 L 290.7 8.1 C 290.7 8.1 290.95 8.1 290.9 8.1 C 291.3 8.1 291.5 8 291.7 7.8 C 291.7 7.7 291.8 7.4 291.8 6.9 C 291.79 6.94 291.8 5.1 291.8 5.1 C 291.8 5.1 289.61 1.73 289.6 1.7 C 289.4 1.3 289.2 1.1 289.1 1 C 289 0.9 288.8 0.8 288.5 0.7 C 288.4 0.6 288.3 0.6 288.2 0.6 C 288.18 0.59 288.2 0.4 288.2 0.4 L 291.6 0.4 L 291.6 0.6 C 291.6 0.6 291.4 0.59 291.4 0.6 C 291.2 0.6 291 0.6 290.9 0.7 C 290.7 0.8 290.7 0.9 290.7 1.1 C 290.7 1.2 290.8 1.5 291 1.9 C 291.02 1.87 292.7 4.4 292.7 4.4 C 292.7 4.4 294.24 1.98 294.2 2 C 294.5 1.6 294.6 1.3 294.6 1.2 C 294.6 1.1 294.6 1 294.5 0.9 C 294.4 0.8 294.4 0.7 294.3 0.7 C 294.2 0.6 294 0.6 293.8 0.6 C 293.79 0.59 293.8 0.4 293.8 0.4 Z M 301.3 5.7 L 298.2 5.7 C 298.2 5.7 297.7 6.91 297.7 6.9 C 297.6 7.2 297.5 7.5 297.5 7.6 C 297.5 7.7 297.6 7.8 297.7 7.9 C 297.8 8 298 8.1 298.4 8.1 C 298.42 8.1 298.4 8.3 298.4 8.3 L 295.9 8.3 C 295.9 8.3 295.92 8.1 295.9 8.1 C 296.2 8 296.5 8 296.6 7.9 C 296.8 7.7 297 7.3 297.2 6.7 C 297.22 6.73 300 0.2 300 0.2 L 300.2 0.2 C 300.2 0.2 302.99 6.8 303 6.8 C 303.2 7.3 303.4 7.7 303.6 7.8 C 303.8 8 304 8.1 304.4 8.1 C 304.35 8.1 304.4 8.3 304.4 8.3 L 301.2 8.3 C 301.2 8.3 301.22 8.1 301.2 8.1 C 301.5 8.1 301.7 8 301.9 7.9 C 302 7.9 302 7.7 302 7.6 C 302 7.4 301.9 7.2 301.8 6.8 C 301.79 6.8 301.3 5.7 301.3 5.7 Z M 301.1 5.2 L 299.8 2 L 298.4 5.2 L 301.1 5.2 Z M 312.3 0.2 L 312.5 2.7 C 312.5 2.7 312.27 2.7 312.3 2.7 C 312.1 2.1 311.8 1.6 311.5 1.3 C 311 0.8 310.4 0.6 309.6 0.6 C 308.6 0.6 307.9 1 307.3 1.8 C 306.9 2.5 306.7 3.3 306.7 4.2 C 306.7 5 306.8 5.7 307.1 6.3 C 307.4 6.9 307.8 7.4 308.3 7.7 C 308.7 8 309.2 8.1 309.7 8.1 C 310 8.1 310.3 8.1 310.6 8 C 310.9 7.9 311.1 7.8 311.4 7.7 C 311.4 7.7 311.4 5.4 311.4 5.4 C 311.4 5 311.3 4.7 311.3 4.6 C 311.2 4.5 311.1 4.4 311 4.3 C 310.9 4.2 310.6 4.2 310.3 4.2 C 310.33 4.21 310.3 4 310.3 4 L 313.4 4 L 313.4 4.2 C 313.4 4.2 313.26 4.21 313.3 4.2 C 313 4.2 312.7 4.3 312.6 4.5 C 312.6 4.7 312.5 4.9 312.5 5.4 C 312.5 5.4 312.5 7.8 312.5 7.8 C 312.1 8 311.6 8.2 311.2 8.3 C 310.7 8.4 310.3 8.5 309.7 8.5 C 308.2 8.5 307 8 306.2 7 C 305.6 6.3 305.3 5.4 305.3 4.5 C 305.3 3.8 305.5 3.1 305.8 2.5 C 306.2 1.7 306.8 1.1 307.5 0.7 C 308.1 0.4 308.7 0.2 309.5 0.2 C 309.8 0.2 310.1 0.2 310.3 0.3 C 310.6 0.3 310.9 0.4 311.3 0.6 C 311.5 0.7 311.7 0.7 311.8 0.7 C 311.8 0.7 311.9 0.7 312 0.6 C 312 0.5 312 0.4 312.1 0.2 C 312.06 0.19 312.3 0.2 312.3 0.2 Z M 319.5 5.7 L 316.4 5.7 C 316.4 5.7 315.87 6.91 315.9 6.9 C 315.7 7.2 315.7 7.5 315.7 7.6 C 315.7 7.7 315.7 7.8 315.8 7.9 C 316 8 316.2 8.1 316.6 8.1 C 316.59 8.1 316.6 8.3 316.6 8.3 L 314.1 8.3 C 314.1 8.3 314.09 8.1 314.1 8.1 C 314.4 8 314.6 8 314.7 7.9 C 314.9 7.7 315.2 7.3 315.4 6.7 C 315.39 6.73 318.2 0.2 318.2 0.2 L 318.4 0.2 C 318.4 0.2 321.16 6.8 321.2 6.8 C 321.4 7.3 321.6 7.7 321.8 7.8 C 321.9 8 322.2 8.1 322.5 8.1 C 322.53 8.1 322.5 8.3 322.5 8.3 L 319.4 8.3 C 319.4 8.3 319.39 8.1 319.4 8.1 C 319.7 8.1 319.9 8 320 7.9 C 320.1 7.9 320.2 7.7 320.2 7.6 C 320.2 7.4 320.1 7.2 320 6.8 C 319.96 6.8 319.5 5.7 319.5 5.7 Z M 319.3 5.2 L 318 2 L 316.6 5.2 L 319.3 5.2 Z M 322.9 0.4 L 325.1 0.4 L 329.9 6.3 C 329.9 6.3 329.94 1.75 329.9 1.8 C 329.9 1.3 329.9 1 329.8 0.8 C 329.6 0.7 329.4 0.6 329.1 0.6 C 329.09 0.59 328.8 0.6 328.8 0.6 L 328.8 0.4 L 331.6 0.4 L 331.6 0.6 C 331.6 0.6 331.3 0.59 331.3 0.6 C 331 0.6 330.7 0.7 330.6 0.9 C 330.5 1 330.5 1.3 330.5 1.8 C 330.45 1.75 330.5 8.4 330.5 8.4 L 330.2 8.4 L 325 2.1 C 325 2.1 325 6.94 325 6.9 C 325 7.4 325.1 7.7 325.2 7.9 C 325.3 8 325.5 8.1 325.8 8.1 C 325.85 8.1 326.1 8.1 326.1 8.1 L 326.1 8.3 L 323.4 8.3 L 323.4 8.1 C 323.4 8.1 323.64 8.1 323.6 8.1 C 324 8.1 324.2 8 324.4 7.8 C 324.4 7.7 324.5 7.4 324.5 6.9 C 324.5 6.9 324.5 1.4 324.5 1.4 C 324.3 1.1 324.1 1 324 0.9 C 323.8 0.8 323.7 0.7 323.4 0.6 C 323.3 0.6 323.2 0.6 322.9 0.6 C 322.92 0.59 322.9 0.4 322.9 0.4 Z M 339.5 0.2 L 339.7 2.7 C 339.7 2.7 339.53 2.7 339.5 2.7 C 339.3 2.1 339.1 1.6 338.7 1.3 C 338.3 0.8 337.6 0.6 336.9 0.6 C 335.9 0.6 335.1 1 334.6 1.8 C 334.2 2.5 333.9 3.3 333.9 4.2 C 333.9 5 334.1 5.7 334.4 6.3 C 334.7 6.9 335.1 7.4 335.5 7.7 C 336 8 336.5 8.1 337 8.1 C 337.3 8.1 337.6 8.1 337.8 8 C 338.1 7.9 338.4 7.8 338.6 7.7 C 338.6 7.7 338.6 5.4 338.6 5.4 C 338.6 5 338.6 4.7 338.5 4.6 C 338.5 4.5 338.4 4.4 338.3 4.3 C 338.1 4.2 337.9 4.2 337.6 4.2 C 337.59 4.21 337.6 4 337.6 4 L 340.7 4 L 340.7 4.2 C 340.7 4.2 340.52 4.21 340.5 4.2 C 340.2 4.2 340 4.3 339.9 4.5 C 339.8 4.7 339.8 4.9 339.8 5.4 C 339.8 5.4 339.8 7.8 339.8 7.8 C 339.3 8 338.9 8.2 338.4 8.3 C 338 8.4 337.5 8.5 337 8.5 C 335.4 8.5 334.3 8 333.5 7 C 332.9 6.3 332.6 5.4 332.6 4.5 C 332.6 3.8 332.8 3.1 333.1 2.5 C 333.5 1.7 334 1.1 334.7 0.7 C 335.3 0.4 336 0.2 336.8 0.2 C 337.1 0.2 337.3 0.2 337.6 0.3 C 337.8 0.3 338.2 0.4 338.6 0.6 C 338.8 0.7 339 0.7 339 0.7 C 339.1 0.7 339.2 0.7 339.2 0.6 C 339.3 0.5 339.3 0.4 339.3 0.2 C 339.31 0.19 339.5 0.2 339.5 0.2 Z M 347.1 4.6 C 347.1 4.6 347.1 6.9 347.1 6.9 C 347.1 7.4 347.2 7.7 347.3 7.8 C 347.4 8 347.7 8.1 348 8.1 C 347.97 8.1 348.3 8.1 348.3 8.1 L 348.3 8.3 L 344.9 8.3 L 344.9 8.1 C 344.9 8.1 345.17 8.1 345.2 8.1 C 345.5 8.1 345.7 8 345.9 7.8 C 346 7.7 346 7.4 346 6.9 C 346 6.9 346 1.8 346 1.8 C 346 1.3 346 1 345.9 0.8 C 345.7 0.7 345.5 0.6 345.2 0.6 C 345.17 0.59 344.9 0.6 344.9 0.6 L 344.9 0.4 C 344.9 0.4 347.78 0.38 347.8 0.4 C 348.5 0.4 349.1 0.4 349.5 0.6 C 349.9 0.7 350.2 1 350.5 1.3 C 350.8 1.7 350.9 2.1 350.9 2.6 C 350.9 3.2 350.7 3.7 350.3 4.2 C 349.9 4.6 349.3 4.8 348.5 4.8 C 348.3 4.8 348.1 4.8 347.8 4.7 C 347.6 4.7 347.4 4.7 347.1 4.6 Z M 347.1 4.3 C 347.3 4.3 347.5 4.3 347.7 4.4 C 347.8 4.4 348 4.4 348.1 4.4 C 348.5 4.4 348.9 4.2 349.1 3.9 C 349.4 3.6 349.6 3.2 349.6 2.7 C 349.6 2.3 349.5 2 349.4 1.7 C 349.2 1.4 349 1.2 348.8 1.1 C 348.5 0.9 348.2 0.8 347.9 0.8 C 347.7 0.8 347.4 0.9 347.1 1 C 347.1 1 347.1 4.3 347.1 4.3 Z M 356.2 5.7 L 353.1 5.7 C 353.1 5.7 352.54 6.91 352.5 6.9 C 352.4 7.2 352.3 7.5 352.3 7.6 C 352.3 7.7 352.4 7.8 352.5 7.9 C 352.6 8 352.9 8.1 353.3 8.1 C 353.26 8.1 353.3 8.3 353.3 8.3 L 350.8 8.3 C 350.8 8.3 350.76 8.1 350.8 8.1 C 351.1 8 351.3 8 351.4 7.9 C 351.6 7.7 351.8 7.3 352.1 6.7 C 352.06 6.73 354.9 0.2 354.9 0.2 L 355.1 0.2 C 355.1 0.2 357.83 6.8 357.8 6.8 C 358.1 7.3 358.3 7.7 358.4 7.8 C 358.6 8 358.9 8.1 359.2 8.1 C 359.2 8.1 359.2 8.3 359.2 8.3 L 356.1 8.3 C 356.1 8.3 356.06 8.1 356.1 8.1 C 356.4 8.1 356.6 8 356.7 7.9 C 356.8 7.9 356.9 7.7 356.9 7.6 C 356.9 7.4 356.8 7.2 356.6 6.8 C 356.64 6.8 356.2 5.7 356.2 5.7 Z M 356 5.2 L 354.6 2 L 353.3 5.2 L 356 5.2 Z M 359.6 0.4 L 361.7 0.4 L 366.6 6.3 C 366.6 6.3 366.61 1.75 366.6 1.8 C 366.6 1.3 366.6 1 366.4 0.8 C 366.3 0.7 366.1 0.6 365.8 0.6 C 365.76 0.59 365.5 0.6 365.5 0.6 L 365.5 0.4 L 368.2 0.4 L 368.2 0.6 C 368.2 0.6 367.97 0.59 368 0.6 C 367.6 0.6 367.4 0.7 367.3 0.9 C 367.2 1 367.1 1.3 367.1 1.8 C 367.12 1.75 367.1 8.4 367.1 8.4 L 366.9 8.4 L 361.7 2.1 C 361.7 2.1 361.67 6.94 361.7 6.9 C 361.7 7.4 361.7 7.7 361.8 7.9 C 362 8 362.2 8.1 362.5 8.1 C 362.52 8.1 362.8 8.1 362.8 8.1 L 362.8 8.3 L 360 8.3 L 360 8.1 C 360 8.1 360.31 8.1 360.3 8.1 C 360.6 8.1 360.9 8 361 7.8 C 361.1 7.7 361.2 7.4 361.2 6.9 C 361.2 6.9 361.2 1.4 361.2 1.4 C 360.9 1.1 360.8 1 360.6 0.9 C 360.5 0.8 360.3 0.7 360.1 0.6 C 360 0.6 359.8 0.6 359.6 0.6 C 359.59 0.59 359.6 0.4 359.6 0.4 Z M 376.2 0.2 L 376.4 2.7 C 376.4 2.7 376.2 2.7 376.2 2.7 C 376 2.1 375.7 1.6 375.4 1.3 C 374.9 0.8 374.3 0.6 373.6 0.6 C 372.6 0.6 371.8 1 371.3 1.8 C 370.8 2.5 370.6 3.3 370.6 4.2 C 370.6 5 370.8 5.7 371 6.3 C 371.3 6.9 371.7 7.4 372.2 7.7 C 372.7 8 373.2 8.1 373.7 8.1 C 374 8.1 374.2 8.1 374.5 8 C 374.8 7.9 375 7.8 375.3 7.7 C 375.3 7.7 375.3 5.4 375.3 5.4 C 375.3 5 375.3 4.7 375.2 4.6 C 375.1 4.5 375.1 4.4 374.9 4.3 C 374.8 4.2 374.6 4.2 374.3 4.2 C 374.26 4.21 374.3 4 374.3 4 L 377.3 4 L 377.3 4.2 C 377.3 4.2 377.19 4.21 377.2 4.2 C 376.9 4.2 376.7 4.3 376.6 4.5 C 376.5 4.7 376.4 4.9 376.4 5.4 C 376.4 5.4 376.4 7.8 376.4 7.8 C 376 8 375.5 8.2 375.1 8.3 C 374.7 8.4 374.2 8.5 373.7 8.5 C 372.1 8.5 371 8 370.2 7 C 369.6 6.3 369.3 5.4 369.3 4.5 C 369.3 3.8 369.4 3.1 369.8 2.5 C 370.2 1.7 370.7 1.1 371.4 0.7 C 372 0.4 372.7 0.2 373.5 0.2 C 373.8 0.2 374 0.2 374.3 0.3 C 374.5 0.3 374.8 0.4 375.3 0.6 C 375.5 0.7 375.6 0.7 375.7 0.7 C 375.8 0.7 375.8 0.7 375.9 0.6 C 375.9 0.5 376 0.4 376 0.2 C 375.99 0.19 376.2 0.2 376.2 0.2 Z M 382.8 8.3 L 379.8 1.6 C 379.8 1.6 379.76 6.94 379.8 6.9 C 379.8 7.4 379.8 7.7 379.9 7.9 C 380.1 8 380.3 8.1 380.6 8.1 C 380.61 8.1 380.9 8.1 380.9 8.1 L 380.9 8.3 L 378.1 8.3 L 378.1 8.1 C 378.1 8.1 378.4 8.1 378.4 8.1 C 378.7 8.1 379 8 379.1 7.8 C 379.2 7.7 379.2 7.4 379.2 6.9 C 379.2 6.9 379.2 1.8 379.2 1.8 C 379.2 1.4 379.2 1.1 379.1 1 C 379.1 0.9 379 0.8 378.8 0.7 C 378.7 0.6 378.4 0.6 378.1 0.6 C 378.12 0.59 378.1 0.4 378.1 0.4 L 380.4 0.4 L 383.3 6.6 L 386.1 0.4 L 388.3 0.4 L 388.3 0.6 C 388.3 0.6 388.07 0.59 388.1 0.6 C 387.7 0.6 387.5 0.7 387.3 0.9 C 387.3 1 387.2 1.3 387.2 1.8 C 387.2 1.8 387.2 6.9 387.2 6.9 C 387.2 7.4 387.3 7.7 387.4 7.9 C 387.5 8 387.8 8.1 388.1 8.1 C 388.07 8.1 388.3 8.1 388.3 8.1 L 388.3 8.3 L 385 8.3 L 385 8.1 C 385 8.1 385.25 8.1 385.2 8.1 C 385.6 8.1 385.8 8 386 7.8 C 386 7.7 386.1 7.4 386.1 6.9 C 386.09 6.94 386.1 1.6 386.1 1.6 L 383 8.3 L 382.8 8.3 Z M 394.5 5.7 L 391.4 5.7 C 391.4 5.7 390.89 6.91 390.9 6.9 C 390.8 7.2 390.7 7.5 390.7 7.6 C 390.7 7.7 390.7 7.8 390.9 7.9 C 391 8 391.2 8.1 391.6 8.1 C 391.61 8.1 391.6 8.3 391.6 8.3 L 389.1 8.3 C 389.1 8.3 389.11 8.1 389.1 8.1 C 389.4 8 389.7 8 389.8 7.9 C 390 7.7 390.2 7.3 390.4 6.7 C 390.41 6.73 393.2 0.2 393.2 0.2 L 393.4 0.2 C 393.4 0.2 396.18 6.8 396.2 6.8 C 396.4 7.3 396.6 7.7 396.8 7.8 C 397 8 397.2 8.1 397.5 8.1 C 397.54 8.1 397.5 8.3 397.5 8.3 L 394.4 8.3 C 394.4 8.3 394.41 8.1 394.4 8.1 C 394.7 8.1 394.9 8 395.1 7.9 C 395.2 7.9 395.2 7.7 395.2 7.6 C 395.2 7.4 395.1 7.2 395 6.8 C 394.98 6.8 394.5 5.7 394.5 5.7 Z M 394.3 5.2 L 393 2 L 391.6 5.2 L 394.3 5.2 Z M 405.5 0.2 L 405.7 2.7 C 405.7 2.7 405.46 2.7 405.5 2.7 C 405.3 2.1 405 1.6 404.7 1.3 C 404.2 0.8 403.6 0.6 402.8 0.6 C 401.8 0.6 401.1 1 400.5 1.8 C 400.1 2.5 399.9 3.3 399.9 4.2 C 399.9 5 400 5.7 400.3 6.3 C 400.6 6.9 401 7.4 401.5 7.7 C 401.9 8 402.4 8.1 402.9 8.1 C 403.2 8.1 403.5 8.1 403.8 8 C 404 7.9 404.3 7.8 404.6 7.7 C 404.6 7.7 404.6 5.4 404.6 5.4 C 404.6 5 404.5 4.7 404.5 4.6 C 404.4 4.5 404.3 4.4 404.2 4.3 C 404.1 4.2 403.8 4.2 403.5 4.2 C 403.52 4.21 403.5 4 403.5 4 L 406.6 4 L 406.6 4.2 C 406.6 4.2 406.45 4.21 406.4 4.2 C 406.1 4.2 405.9 4.3 405.8 4.5 C 405.7 4.7 405.7 4.9 405.7 5.4 C 405.7 5.4 405.7 7.8 405.7 7.8 C 405.3 8 404.8 8.2 404.4 8.3 C 403.9 8.4 403.5 8.5 402.9 8.5 C 401.4 8.5 400.2 8 399.4 7 C 398.8 6.3 398.5 5.4 398.5 4.5 C 398.5 3.8 398.7 3.1 399 2.5 C 399.4 1.7 400 1.1 400.7 0.7 C 401.2 0.4 401.9 0.2 402.7 0.2 C 403 0.2 403.3 0.2 403.5 0.3 C 403.8 0.3 404.1 0.4 404.5 0.6 C 404.7 0.7 404.9 0.7 405 0.7 C 405 0.7 405.1 0.7 405.2 0.6 C 405.2 0.5 405.2 0.4 405.2 0.2 C 405.25 0.19 405.5 0.2 405.5 0.2 Z M 407.7 5.2 L 410.7 5.2 L 410.7 6.1 L 407.7 6.1 L 407.7 5.2 Z M 417.1 5.7 L 414 5.7 C 414 5.7 413.48 6.91 413.5 6.9 C 413.3 7.2 413.3 7.5 413.3 7.6 C 413.3 7.7 413.3 7.8 413.4 7.9 C 413.6 8 413.8 8.1 414.2 8.1 C 414.2 8.1 414.2 8.3 414.2 8.3 L 411.7 8.3 C 411.7 8.3 411.69 8.1 411.7 8.1 C 412 8 412.2 8 412.3 7.9 C 412.5 7.7 412.8 7.3 413 6.7 C 413 6.73 415.8 0.2 415.8 0.2 L 416 0.2 C 416 0.2 418.77 6.8 418.8 6.8 C 419 7.3 419.2 7.7 419.4 7.8 C 419.6 8 419.8 8.1 420.1 8.1 C 420.13 8.1 420.1 8.3 420.1 8.3 L 417 8.3 C 417 8.3 417 8.1 417 8.1 C 417.3 8.1 417.5 8 417.6 7.9 C 417.8 7.9 417.8 7.7 417.8 7.6 C 417.8 7.4 417.7 7.2 417.6 6.8 C 417.57 6.8 417.1 5.7 417.1 5.7 Z M 416.9 5.2 L 415.6 2 L 414.2 5.2 L 416.9 5.2 Z M 426.2 5.7 L 423.1 5.7 C 423.1 5.7 422.56 6.91 422.6 6.9 C 422.4 7.2 422.4 7.5 422.4 7.6 C 422.4 7.7 422.4 7.8 422.5 7.9 C 422.7 8 422.9 8.1 423.3 8.1 C 423.28 8.1 423.3 8.3 423.3 8.3 L 420.8 8.3 C 420.8 8.3 420.78 8.1 420.8 8.1 C 421.1 8 421.3 8 421.4 7.9 C 421.6 7.7 421.8 7.3 422.1 6.7 C 422.09 6.73 424.9 0.2 424.9 0.2 L 425.1 0.2 C 425.1 0.2 427.85 6.8 427.9 6.8 C 428.1 7.3 428.3 7.7 428.5 7.8 C 428.6 8 428.9 8.1 429.2 8.1 C 429.22 8.1 429.2 8.3 429.2 8.3 L 426.1 8.3 C 426.1 8.3 426.08 8.1 426.1 8.1 C 426.4 8.1 426.6 8 426.7 7.9 C 426.8 7.9 426.9 7.7 426.9 7.6 C 426.9 7.4 426.8 7.2 426.7 6.8 C 426.66 6.8 426.2 5.7 426.2 5.7 Z M 426 5.2 L 424.7 2 L 423.3 5.2 L 426 5.2 Z M 437.9 8.3 L 435.8 8.3 C 435.8 8.3 433.07 4.61 433.1 4.6 C 432.9 4.6 432.7 4.6 432.6 4.6 C 432.5 4.6 432.5 4.6 432.4 4.6 C 432.4 4.6 432.3 4.6 432.2 4.6 C 432.2 4.6 432.2 6.9 432.2 6.9 C 432.2 7.4 432.3 7.7 432.4 7.8 C 432.6 8 432.8 8.1 433.1 8.1 C 433.07 8.1 433.4 8.1 433.4 8.1 L 433.4 8.3 L 430 8.3 L 430 8.1 C 430 8.1 430.28 8.1 430.3 8.1 C 430.6 8.1 430.9 8 431 7.8 C 431.1 7.7 431.1 7.4 431.1 6.9 C 431.1 6.9 431.1 1.8 431.1 1.8 C 431.1 1.3 431.1 1 431 0.8 C 430.8 0.7 430.6 0.6 430.3 0.6 C 430.28 0.59 430 0.6 430 0.6 L 430 0.4 C 430 0.4 432.87 0.38 432.9 0.4 C 433.7 0.4 434.3 0.4 434.7 0.6 C 435.1 0.7 435.5 0.9 435.8 1.2 C 436 1.6 436.2 2 436.2 2.4 C 436.2 2.9 436 3.3 435.7 3.7 C 435.4 4.1 434.9 4.3 434.2 4.5 C 434.2 4.5 435.9 6.7 435.9 6.7 C 436.2 7.3 436.6 7.6 436.8 7.8 C 437.1 7.9 437.4 8.1 437.9 8.1 C 437.88 8.1 437.9 8.3 437.9 8.3 Z M 432.2 4.2 C 432.3 4.2 432.4 4.2 432.4 4.2 C 432.5 4.2 432.5 4.2 432.6 4.2 C 433.3 4.2 433.9 4.1 434.3 3.8 C 434.7 3.4 434.9 3 434.9 2.5 C 434.9 2 434.7 1.6 434.4 1.3 C 434.1 1 433.7 0.8 433.2 0.8 C 432.9 0.8 432.6 0.9 432.2 0.9 C 432.2 0.9 432.2 4.2 432.2 4.2 Z M 443.7 5.7 L 440.6 5.7 C 440.6 5.7 440.07 6.91 440.1 6.9 C 439.9 7.2 439.9 7.5 439.9 7.6 C 439.9 7.7 439.9 7.8 440 7.9 C 440.2 8 440.4 8.1 440.8 8.1 C 440.79 8.1 440.8 8.3 440.8 8.3 L 438.3 8.3 C 438.3 8.3 438.29 8.1 438.3 8.1 C 438.6 8 438.8 8 438.9 7.9 C 439.1 7.7 439.4 7.3 439.6 6.7 C 439.6 6.73 442.4 0.2 442.4 0.2 L 442.6 0.2 C 442.6 0.2 445.36 6.8 445.4 6.8 C 445.6 7.3 445.8 7.7 446 7.8 C 446.2 8 446.4 8.1 446.7 8.1 C 446.73 8.1 446.7 8.3 446.7 8.3 L 443.6 8.3 C 443.6 8.3 443.59 8.1 443.6 8.1 C 443.9 8.1 444.1 8 444.2 7.9 C 444.3 7.9 444.4 7.7 444.4 7.6 C 444.4 7.4 444.3 7.2 444.2 6.8 C 444.17 6.8 443.7 5.7 443.7 5.7 Z M 443.5 5.2 L 442.2 2 L 440.8 5.2 L 443.5 5.2 Z M 454.2 6.1 C 454.16 6.12 454.4 6.2 454.4 6.2 L 453.7 8.3 L 447.5 8.3 L 447.5 8.1 C 447.5 8.1 447.82 8.1 447.8 8.1 C 448.2 8.1 448.4 8 448.5 7.8 C 448.6 7.7 448.7 7.4 448.7 6.9 C 448.7 6.9 448.7 1.8 448.7 1.8 C 448.7 1.3 448.6 1 448.5 0.8 C 448.3 0.7 448.1 0.6 447.8 0.6 C 447.82 0.59 447.5 0.6 447.5 0.6 L 447.5 0.4 L 451.1 0.4 C 451.1 0.4 451.12 0.59 451.1 0.6 C 450.7 0.6 450.4 0.6 450.2 0.7 C 450.1 0.8 449.9 0.9 449.9 1 C 449.8 1.1 449.8 1.4 449.8 1.9 C 449.8 1.9 449.8 6.9 449.8 6.9 C 449.8 7.2 449.8 7.5 449.9 7.6 C 449.9 7.7 450 7.7 450.1 7.8 C 450.2 7.8 450.5 7.8 451 7.8 C 451 7.8 451.6 7.8 451.6 7.8 C 452.2 7.8 452.6 7.8 452.9 7.7 C 453.1 7.6 453.3 7.4 453.6 7.2 C 453.8 7 454 6.6 454.2 6.1 Z M 457.8 0.4 L 460 0.4 L 464.9 6.3 C 464.9 6.3 464.86 1.75 464.9 1.8 C 464.9 1.3 464.8 1 464.7 0.8 C 464.6 0.7 464.3 0.6 464 0.6 C 464.01 0.59 463.7 0.6 463.7 0.6 L 463.7 0.4 L 466.5 0.4 L 466.5 0.6 C 466.5 0.6 466.22 0.59 466.2 0.6 C 465.9 0.6 465.6 0.7 465.5 0.9 C 465.4 1 465.4 1.3 465.4 1.8 C 465.38 1.75 465.4 8.4 465.4 8.4 L 465.2 8.4 L 459.9 2.1 C 459.9 2.1 459.93 6.94 459.9 6.9 C 459.9 7.4 460 7.7 460.1 7.9 C 460.2 8 460.5 8.1 460.8 8.1 C 460.77 8.1 461.1 8.1 461.1 8.1 L 461.1 8.3 L 458.3 8.3 L 458.3 8.1 C 458.3 8.1 458.56 8.1 458.6 8.1 C 458.9 8.1 459.1 8 459.3 7.8 C 459.4 7.7 459.4 7.4 459.4 6.9 C 459.4 6.9 459.4 1.4 459.4 1.4 C 459.2 1.1 459 1 458.9 0.9 C 458.8 0.8 458.6 0.7 458.4 0.6 C 458.3 0.6 458.1 0.6 457.8 0.6 C 457.85 0.59 457.8 0.4 457.8 0.4 Z M 474.5 0.2 L 474.7 2.7 C 474.7 2.7 474.46 2.7 474.5 2.7 C 474.3 2.1 474 1.6 473.7 1.3 C 473.2 0.8 472.6 0.6 471.8 0.6 C 470.8 0.6 470.1 1 469.5 1.8 C 469.1 2.5 468.9 3.3 468.9 4.2 C 468.9 5 469 5.7 469.3 6.3 C 469.6 6.9 470 7.4 470.5 7.7 C 470.9 8 471.4 8.1 471.9 8.1 C 472.2 8.1 472.5 8.1 472.8 8 C 473 7.9 473.3 7.8 473.6 7.7 C 473.6 7.7 473.6 5.4 473.6 5.4 C 473.6 5 473.5 4.7 473.5 4.6 C 473.4 4.5 473.3 4.4 473.2 4.3 C 473.1 4.2 472.8 4.2 472.5 4.2 C 472.51 4.21 472.5 4 472.5 4 L 475.6 4 L 475.6 4.2 C 475.6 4.2 475.44 4.21 475.4 4.2 C 475.1 4.2 474.9 4.3 474.8 4.5 C 474.7 4.7 474.7 4.9 474.7 5.4 C 474.7 5.4 474.7 7.8 474.7 7.8 C 474.2 8 473.8 8.2 473.4 8.3 C 472.9 8.4 472.4 8.5 471.9 8.5 C 470.4 8.5 469.2 8 468.4 7 C 467.8 6.3 467.5 5.4 467.5 4.5 C 467.5 3.8 467.7 3.1 468 2.5 C 468.4 1.7 469 1.1 469.7 0.7 C 470.2 0.4 470.9 0.2 471.7 0.2 C 472 0.2 472.3 0.2 472.5 0.3 C 472.7 0.3 473.1 0.4 473.5 0.6 C 473.7 0.7 473.9 0.7 474 0.7 C 474 0.7 474.1 0.7 474.1 0.6 C 474.2 0.5 474.2 0.4 474.2 0.2 C 474.24 0.19 474.5 0.2 474.5 0.2 Z M 482.1 4.6 C 482.1 4.6 482.1 6.9 482.1 6.9 C 482.1 7.4 482.1 7.7 482.2 7.8 C 482.4 8 482.6 8.1 482.9 8.1 C 482.9 8.1 483.2 8.1 483.2 8.1 L 483.2 8.3 L 479.8 8.3 L 479.8 8.1 C 479.8 8.1 480.1 8.1 480.1 8.1 C 480.4 8.1 480.7 8 480.8 7.8 C 480.9 7.7 480.9 7.4 480.9 6.9 C 480.9 6.9 480.9 1.8 480.9 1.8 C 480.9 1.3 480.9 1 480.8 0.8 C 480.6 0.7 480.4 0.6 480.1 0.6 C 480.1 0.59 479.8 0.6 479.8 0.6 L 479.8 0.4 C 479.8 0.4 482.71 0.38 482.7 0.4 C 483.4 0.4 484 0.4 484.4 0.6 C 484.8 0.7 485.1 1 485.4 1.3 C 485.7 1.7 485.9 2.1 485.9 2.6 C 485.9 3.2 485.6 3.7 485.2 4.2 C 484.8 4.6 484.2 4.8 483.4 4.8 C 483.2 4.8 483 4.8 482.8 4.7 C 482.6 4.7 482.3 4.7 482.1 4.6 Z M 482.1 4.3 C 482.3 4.3 482.5 4.3 482.6 4.4 C 482.8 4.4 482.9 4.4 483 4.4 C 483.4 4.4 483.8 4.2 484.1 3.9 C 484.4 3.6 484.5 3.2 484.5 2.7 C 484.5 2.3 484.4 2 484.3 1.7 C 484.2 1.4 484 1.2 483.7 1.1 C 483.4 0.9 483.2 0.8 482.8 0.8 C 482.6 0.8 482.4 0.9 482.1 1 C 482.1 1 482.1 4.3 482.1 4.3 Z M 491.1 5.7 L 488 5.7 C 488 5.7 487.47 6.91 487.5 6.9 C 487.3 7.2 487.3 7.5 487.3 7.6 C 487.3 7.7 487.3 7.8 487.4 7.9 C 487.6 8 487.8 8.1 488.2 8.1 C 488.19 8.1 488.2 8.3 488.2 8.3 L 485.7 8.3 C 485.7 8.3 485.69 8.1 485.7 8.1 C 486 8 486.2 8 486.3 7.9 C 486.5 7.7 486.7 7.3 487 6.7 C 486.99 6.73 489.8 0.2 489.8 0.2 L 490 0.2 C 490 0.2 492.76 6.8 492.8 6.8 C 493 7.3 493.2 7.7 493.4 7.8 C 493.5 8 493.8 8.1 494.1 8.1 C 494.12 8.1 494.1 8.3 494.1 8.3 L 491 8.3 C 491 8.3 490.99 8.1 491 8.1 C 491.3 8.1 491.5 8 491.6 7.9 C 491.7 7.9 491.8 7.7 491.8 7.6 C 491.8 7.4 491.7 7.2 491.6 6.8 C 491.56 6.8 491.1 5.7 491.1 5.7 Z M 490.9 5.2 L 489.6 2 L 488.2 5.2 L 490.9 5.2 Z M 499.6 8.3 L 496.5 1.6 C 496.5 1.6 496.52 6.94 496.5 6.9 C 496.5 7.4 496.6 7.7 496.7 7.9 C 496.8 8 497 8.1 497.4 8.1 C 497.36 8.1 497.6 8.1 497.6 8.1 L 497.6 8.3 L 494.9 8.3 L 494.9 8.1 C 494.9 8.1 495.16 8.1 495.2 8.1 C 495.5 8.1 495.7 8 495.9 7.8 C 496 7.7 496 7.4 496 6.9 C 496 6.9 496 1.8 496 1.8 C 496 1.4 496 1.1 495.9 1 C 495.8 0.9 495.7 0.8 495.6 0.7 C 495.4 0.6 495.2 0.6 494.9 0.6 C 494.88 0.59 494.9 0.4 494.9 0.4 L 497.1 0.4 L 500 6.6 L 502.8 0.4 L 505.1 0.4 L 505.1 0.6 C 505.1 0.6 504.82 0.59 504.8 0.6 C 504.5 0.6 504.2 0.7 504.1 0.9 C 504 1 504 1.3 504 1.8 C 504 1.8 504 6.9 504 6.9 C 504 7.4 504 7.7 504.1 7.9 C 504.3 8 504.5 8.1 504.8 8.1 C 504.82 8.1 505.1 8.1 505.1 8.1 L 505.1 8.3 L 501.7 8.3 L 501.7 8.1 C 501.7 8.1 502 8.1 502 8.1 C 502.3 8.1 502.6 8 502.7 7.8 C 502.8 7.7 502.8 7.4 502.8 6.9 C 502.85 6.94 502.8 1.6 502.8 1.6 L 499.8 8.3 L 499.6 8.3 Z M 511.3 5.7 L 508.2 5.7 C 508.2 5.7 507.64 6.91 507.6 6.9 C 507.5 7.2 507.4 7.5 507.4 7.6 C 507.4 7.7 507.5 7.8 507.6 7.9 C 507.7 8 508 8.1 508.4 8.1 C 508.36 8.1 508.4 8.3 508.4 8.3 L 505.9 8.3 C 505.9 8.3 505.86 8.1 505.9 8.1 C 506.2 8 506.4 8 506.5 7.9 C 506.7 7.7 506.9 7.3 507.2 6.7 C 507.17 6.73 510 0.2 510 0.2 L 510.2 0.2 C 510.2 0.2 512.93 6.8 512.9 6.8 C 513.2 7.3 513.4 7.7 513.5 7.8 C 513.7 8 514 8.1 514.3 8.1 C 514.3 8.1 514.3 8.3 514.3 8.3 L 511.2 8.3 C 511.2 8.3 511.16 8.1 511.2 8.1 C 511.5 8.1 511.7 8 511.8 7.9 C 511.9 7.9 512 7.7 512 7.6 C 512 7.4 511.9 7.2 511.7 6.8 C 511.74 6.8 511.3 5.7 511.3 5.7 Z M 511.1 5.2 L 509.7 2 L 508.4 5.2 L 511.1 5.2 Z M 514.7 0.4 L 516.9 0.4 L 521.7 6.3 C 521.7 6.3 521.71 1.75 521.7 1.8 C 521.7 1.3 521.7 1 521.5 0.8 C 521.4 0.7 521.2 0.6 520.9 0.6 C 520.86 0.59 520.6 0.6 520.6 0.6 L 520.6 0.4 L 523.3 0.4 L 523.3 0.6 C 523.3 0.6 523.07 0.59 523.1 0.6 C 522.7 0.6 522.5 0.7 522.4 0.9 C 522.3 1 522.2 1.3 522.2 1.8 C 522.22 1.75 522.2 8.4 522.2 8.4 L 522 8.4 L 516.8 2.1 C 516.8 2.1 516.78 6.94 516.8 6.9 C 516.8 7.4 516.8 7.7 516.9 7.9 C 517.1 8 517.3 8.1 517.6 8.1 C 517.62 8.1 517.9 8.1 517.9 8.1 L 517.9 8.3 L 515.1 8.3 L 515.1 8.1 C 515.1 8.1 515.41 8.1 515.4 8.1 C 515.8 8.1 516 8 516.1 7.8 C 516.2 7.7 516.3 7.4 516.3 6.9 C 516.3 6.9 516.3 1.4 516.3 1.4 C 516 1.1 515.9 1 515.7 0.9 C 515.6 0.8 515.4 0.7 515.2 0.6 C 515.1 0.6 514.9 0.6 514.7 0.6 C 514.7 0.59 514.7 0.4 514.7 0.4 Z M 530.9 0.4 L 531 2.2 C 531 2.2 530.75 2.24 530.7 2.2 C 530.7 1.9 530.6 1.7 530.6 1.5 C 530.5 1.3 530.3 1.1 530.1 1 C 529.9 0.9 529.6 0.9 529.3 0.9 C 529.3 0.87 528.2 0.9 528.2 0.9 C 528.2 0.9 528.18 6.94 528.2 6.9 C 528.2 7.4 528.2 7.7 528.3 7.9 C 528.5 8 528.7 8.1 529 8.1 C 529.02 8.1 529.3 8.1 529.3 8.1 L 529.3 8.3 L 525.9 8.3 L 525.9 8.1 C 525.9 8.1 526.21 8.1 526.2 8.1 C 526.5 8.1 526.8 8 526.9 7.8 C 527 7.7 527.1 7.4 527.1 6.9 C 527.05 6.94 527.1 0.9 527.1 0.9 C 527.1 0.9 526.1 0.87 526.1 0.9 C 525.7 0.9 525.5 0.9 525.3 1 C 525.1 1 524.9 1.2 524.8 1.4 C 524.6 1.6 524.6 1.9 524.5 2.2 C 524.53 2.24 524.3 2.2 524.3 2.2 L 524.4 0.4 L 530.9 0.4 Z M 536.2 5.7 L 533.1 5.7 C 533.1 5.7 532.6 6.91 532.6 6.9 C 532.5 7.2 532.4 7.5 532.4 7.6 C 532.4 7.7 532.5 7.8 532.6 7.9 C 532.7 8 532.9 8.1 533.3 8.1 C 533.32 8.1 533.3 8.3 533.3 8.3 L 530.8 8.3 C 530.8 8.3 530.82 8.1 530.8 8.1 C 531.2 8 531.4 8 531.5 7.9 C 531.7 7.7 531.9 7.3 532.1 6.7 C 532.13 6.73 534.9 0.2 534.9 0.2 L 535.1 0.2 C 535.1 0.2 537.89 6.8 537.9 6.8 C 538.1 7.3 538.3 7.7 538.5 7.8 C 538.7 8 538.9 8.1 539.3 8.1 C 539.26 8.1 539.3 8.3 539.3 8.3 L 536.1 8.3 C 536.1 8.3 536.13 8.1 536.1 8.1 C 536.4 8.1 536.7 8 536.8 7.9 C 536.9 7.9 536.9 7.7 536.9 7.6 C 536.9 7.4 536.9 7.2 536.7 6.8 C 536.7 6.8 536.2 5.7 536.2 5.7 Z M 536.1 5.2 L 534.7 2 L 533.3 5.2 L 536.1 5.2 Z M 545.3 0.2 L 545.3 2.9 C 545.3 2.9 545.1 2.94 545.1 2.9 C 545 2.4 544.9 2 544.7 1.7 C 544.5 1.4 544.3 1.1 543.9 0.9 C 543.6 0.8 543.3 0.7 542.9 0.7 C 542.5 0.7 542.2 0.8 541.9 1 C 541.6 1.3 541.5 1.6 541.5 1.9 C 541.5 2.1 541.6 2.3 541.7 2.5 C 542 2.8 542.6 3.2 543.5 3.7 C 544.2 4.1 544.7 4.4 545 4.6 C 545.3 4.8 545.5 5.1 545.6 5.4 C 545.8 5.7 545.8 6 545.8 6.3 C 545.8 6.9 545.6 7.4 545.1 7.8 C 544.7 8.3 544.1 8.5 543.3 8.5 C 543.1 8.5 542.9 8.5 542.7 8.4 C 542.6 8.4 542.3 8.4 541.9 8.2 C 541.6 8.1 541.3 8.1 541.2 8.1 C 541.1 8.1 541 8.1 541 8.1 C 540.9 8.2 540.9 8.3 540.9 8.5 C 540.86 8.5 540.6 8.5 540.6 8.5 L 540.6 5.8 C 540.6 5.8 540.86 5.78 540.9 5.8 C 541 6.3 541.1 6.8 541.3 7.1 C 541.4 7.3 541.7 7.6 542.1 7.8 C 542.4 8 542.8 8 543.2 8 C 543.7 8 544.1 7.9 544.4 7.7 C 544.7 7.4 544.8 7.1 544.8 6.7 C 544.8 6.5 544.7 6.4 544.6 6.2 C 544.5 6 544.4 5.8 544.1 5.6 C 544 5.5 543.6 5.2 542.9 4.8 C 542.2 4.5 541.7 4.2 541.4 3.9 C 541.2 3.7 540.9 3.5 540.8 3.2 C 540.6 2.9 540.6 2.6 540.6 2.3 C 540.6 1.7 540.8 1.2 541.2 0.8 C 541.7 0.4 542.2 0.2 542.9 0.2 C 543.3 0.2 543.8 0.3 544.2 0.5 C 544.5 0.6 544.6 0.7 544.7 0.7 C 544.8 0.7 544.9 0.6 544.9 0.6 C 545 0.5 545.1 0.4 545.1 0.2 C 545.1 0.19 545.3 0.2 545.3 0.2 Z M 552.4 5.7 L 549.3 5.7 C 549.3 5.7 548.78 6.91 548.8 6.9 C 548.7 7.2 548.6 7.5 548.6 7.6 C 548.6 7.7 548.6 7.8 548.8 7.9 C 548.9 8 549.1 8.1 549.5 8.1 C 549.5 8.1 549.5 8.3 549.5 8.3 L 547 8.3 C 547 8.3 547 8.1 547 8.1 C 547.3 8 547.5 8 547.6 7.9 C 547.8 7.7 548.1 7.3 548.3 6.7 C 548.31 6.73 551.1 0.2 551.1 0.2 L 551.3 0.2 C 551.3 0.2 554.07 6.8 554.1 6.8 C 554.3 7.3 554.5 7.7 554.7 7.8 C 554.9 8 555.1 8.1 555.4 8.1 C 555.44 8.1 555.4 8.3 555.4 8.3 L 552.3 8.3 C 552.3 8.3 552.31 8.1 552.3 8.1 C 552.6 8.1 552.8 8 552.9 7.9 C 553.1 7.9 553.1 7.7 553.1 7.6 C 553.1 7.4 553 7.2 552.9 6.8 C 552.88 6.8 552.4 5.7 552.4 5.7 Z M 552.2 5.2 L 550.9 2 L 549.5 5.2 L 552.2 5.2 Z M 555.8 0.4 L 558 0.4 L 562.9 6.3 C 562.9 6.3 562.85 1.75 562.9 1.8 C 562.9 1.3 562.8 1 562.7 0.8 C 562.5 0.7 562.3 0.6 562 0.6 C 562 0.59 561.7 0.6 561.7 0.6 L 561.7 0.4 L 564.5 0.4 L 564.5 0.6 C 564.5 0.6 564.21 0.59 564.2 0.6 C 563.9 0.6 563.6 0.7 563.5 0.9 C 563.4 1 563.4 1.3 563.4 1.8 C 563.37 1.75 563.4 8.4 563.4 8.4 L 563.2 8.4 L 557.9 2.1 C 557.9 2.1 557.92 6.94 557.9 6.9 C 557.9 7.4 558 7.7 558.1 7.9 C 558.2 8 558.5 8.1 558.8 8.1 C 558.76 8.1 559 8.1 559 8.1 L 559 8.3 L 556.3 8.3 L 556.3 8.1 C 556.3 8.1 556.55 8.1 556.6 8.1 C 556.9 8.1 557.1 8 557.3 7.8 C 557.4 7.7 557.4 7.4 557.4 6.9 C 557.4 6.9 557.4 1.4 557.4 1.4 C 557.2 1.1 557 1 556.9 0.9 C 556.8 0.8 556.6 0.7 556.4 0.6 C 556.2 0.6 556.1 0.6 555.8 0.6 C 555.84 0.59 555.8 0.4 555.8 0.4 Z M 572.4 0.2 L 572.7 2.7 C 572.7 2.7 572.45 2.7 572.4 2.7 C 572.2 2.1 572 1.6 571.6 1.3 C 571.2 0.8 570.6 0.6 569.8 0.6 C 568.8 0.6 568 1 567.5 1.8 C 567.1 2.5 566.9 3.3 566.9 4.2 C 566.9 5 567 5.7 567.3 6.3 C 567.6 6.9 568 7.4 568.4 7.7 C 568.9 8 569.4 8.1 569.9 8.1 C 570.2 8.1 570.5 8.1 570.8 8 C 571 7.9 571.3 7.8 571.5 7.7 C 571.5 7.7 571.5 5.4 571.5 5.4 C 571.5 5 571.5 4.7 571.5 4.6 C 571.4 4.5 571.3 4.4 571.2 4.3 C 571 4.2 570.8 4.2 570.5 4.2 C 570.5 4.21 570.5 4 570.5 4 L 573.6 4 L 573.6 4.2 C 573.6 4.2 573.43 4.21 573.4 4.2 C 573.1 4.2 572.9 4.3 572.8 4.5 C 572.7 4.7 572.7 4.9 572.7 5.4 C 572.7 5.4 572.7 7.8 572.7 7.8 C 572.2 8 571.8 8.2 571.4 8.3 C 570.9 8.4 570.4 8.5 569.9 8.5 C 568.4 8.5 567.2 8 566.4 7 C 565.8 6.3 565.5 5.4 565.5 4.5 C 565.5 3.8 565.7 3.1 566 2.5 C 566.4 1.7 567 1.1 567.6 0.7 C 568.2 0.4 568.9 0.2 569.7 0.2 C 570 0.2 570.3 0.2 570.5 0.3 C 570.7 0.3 571.1 0.4 571.5 0.6 C 571.7 0.7 571.9 0.7 571.9 0.7 C 572 0.7 572.1 0.7 572.1 0.6 C 572.2 0.5 572.2 0.4 572.2 0.2 C 572.23 0.19 572.4 0.2 572.4 0.2 Z M 577.8 8.3 L 577.8 8.1 C 577.8 8.1 578.09 8.1 578.1 8.1 C 578.4 8.1 578.7 8 578.8 7.8 C 578.9 7.7 578.9 7.4 578.9 6.9 C 578.9 6.9 578.9 1.8 578.9 1.8 C 578.9 1.3 578.9 1 578.8 0.8 C 578.6 0.7 578.4 0.6 578.1 0.6 C 578.09 0.59 577.8 0.6 577.8 0.6 L 577.8 0.4 C 577.8 0.4 581.03 0.38 581 0.4 C 582.2 0.4 583.1 0.5 583.7 0.8 C 584.4 1 584.9 1.5 585.2 2.1 C 585.6 2.8 585.8 3.5 585.8 4.3 C 585.8 5.4 585.5 6.3 584.8 7.1 C 584 7.9 582.9 8.3 581.3 8.3 C 581.34 8.32 577.8 8.3 577.8 8.3 Z M 580.1 7.7 C 580.6 7.9 581 7.9 581.3 7.9 C 582.2 7.9 583 7.6 583.6 7 C 584.2 6.3 584.5 5.5 584.5 4.4 C 584.5 3.3 584.2 2.4 583.6 1.8 C 583 1.1 582.2 0.8 581.3 0.8 C 580.9 0.8 580.5 0.9 580.1 1 C 580.1 1 580.1 7.7 580.1 7.7 Z M 589.2 0.8 L 589.2 3.9 C 589.2 3.9 590.93 3.95 590.9 3.9 C 591.4 3.9 591.7 3.9 591.8 3.7 C 592 3.6 592.2 3.2 592.2 2.8 C 592.17 2.79 592.4 2.8 592.4 2.8 L 592.4 5.6 C 592.4 5.6 592.17 5.56 592.2 5.6 C 592.1 5.2 592.1 4.9 592 4.8 C 591.9 4.7 591.8 4.6 591.7 4.5 C 591.5 4.4 591.3 4.4 590.9 4.4 C 590.93 4.38 589.2 4.4 589.2 4.4 C 589.2 4.4 589.18 7 589.2 7 C 589.2 7.3 589.2 7.6 589.2 7.6 C 589.3 7.7 589.3 7.8 589.4 7.8 C 589.5 7.9 589.6 7.9 589.8 7.9 C 589.8 7.9 591.2 7.9 591.2 7.9 C 591.6 7.9 592 7.9 592.2 7.8 C 592.4 7.7 592.6 7.6 592.7 7.4 C 593 7.2 593.2 6.8 593.5 6.3 C 593.49 6.33 593.7 6.3 593.7 6.3 L 593 8.3 L 586.9 8.3 L 586.9 8.1 C 586.9 8.1 587.2 8.1 587.2 8.1 C 587.4 8.1 587.6 8.1 587.7 8 C 587.9 7.9 587.9 7.8 588 7.7 C 588 7.6 588.1 7.3 588.1 6.9 C 588.1 6.9 588.1 1.8 588.1 1.8 C 588.1 1.3 588 0.9 587.9 0.8 C 587.8 0.7 587.5 0.6 587.2 0.6 C 587.2 0.59 586.9 0.6 586.9 0.6 L 586.9 0.4 L 593 0.4 L 593.1 2.1 C 593.1 2.1 592.9 2.12 592.9 2.1 C 592.8 1.7 592.7 1.4 592.6 1.3 C 592.5 1.1 592.4 1 592.2 0.9 C 592 0.8 591.8 0.8 591.4 0.8 C 591.36 0.81 589.2 0.8 589.2 0.8 Z M 604.7 6.1 C 604.72 6.12 604.9 6.2 604.9 6.2 L 604.2 8.3 L 598.1 8.3 L 598.1 8.1 C 598.1 8.1 598.38 8.1 598.4 8.1 C 598.7 8.1 599 8 599.1 7.8 C 599.2 7.7 599.2 7.4 599.2 6.9 C 599.2 6.9 599.2 1.8 599.2 1.8 C 599.2 1.3 599.2 1 599.1 0.8 C 598.9 0.7 598.7 0.6 598.4 0.6 C 598.38 0.59 598.1 0.6 598.1 0.6 L 598.1 0.4 L 601.7 0.4 C 601.7 0.4 601.68 0.59 601.7 0.6 C 601.3 0.6 601 0.6 600.8 0.7 C 600.6 0.8 600.5 0.9 600.4 1 C 600.4 1.1 600.4 1.4 600.4 1.9 C 600.4 1.9 600.4 6.9 600.4 6.9 C 600.4 7.2 600.4 7.5 600.4 7.6 C 600.5 7.7 600.6 7.7 600.7 7.8 C 600.8 7.8 601.1 7.8 601.6 7.8 C 601.6 7.8 602.2 7.8 602.2 7.8 C 602.8 7.8 603.2 7.8 603.4 7.7 C 603.7 7.6 603.9 7.4 604.1 7.2 C 604.3 7 604.5 6.6 604.7 6.1 Z M 611.1 5.7 L 608 5.7 C 608 5.7 607.47 6.91 607.5 6.9 C 607.3 7.2 607.3 7.5 607.3 7.6 C 607.3 7.7 607.3 7.8 607.4 7.9 C 607.6 8 607.8 8.1 608.2 8.1 C 608.19 8.1 608.2 8.3 608.2 8.3 L 605.7 8.3 C 605.7 8.3 605.69 8.1 605.7 8.1 C 606 8 606.2 8 606.3 7.9 C 606.5 7.7 606.8 7.3 607 6.7 C 606.99 6.73 609.8 0.2 609.8 0.2 L 610 0.2 C 610 0.2 612.76 6.8 612.8 6.8 C 613 7.3 613.2 7.7 613.4 7.8 C 613.5 8 613.8 8.1 614.1 8.1 C 614.12 8.1 614.1 8.3 614.1 8.3 L 611 8.3 C 611 8.3 610.99 8.1 611 8.1 C 611.3 8.1 611.5 8 611.6 7.9 C 611.7 7.9 611.8 7.7 611.8 7.6 C 611.8 7.4 611.7 7.2 611.6 6.8 C 611.56 6.8 611.1 5.7 611.1 5.7 Z M 610.9 5.2 L 609.6 2 L 608.2 5.2 L 610.9 5.2 Z M 622.9 0.2 L 622.9 2.9 C 622.9 2.9 622.72 2.94 622.7 2.9 C 622.7 2.4 622.5 2 622.3 1.7 C 622.2 1.4 621.9 1.1 621.6 0.9 C 621.2 0.8 620.9 0.7 620.5 0.7 C 620.1 0.7 619.8 0.8 619.5 1 C 619.3 1.3 619.1 1.6 619.1 1.9 C 619.1 2.1 619.2 2.3 619.4 2.5 C 619.6 2.8 620.2 3.2 621.1 3.7 C 621.8 4.1 622.3 4.4 622.6 4.6 C 622.9 4.8 623.1 5.1 623.2 5.4 C 623.4 5.7 623.5 6 623.5 6.3 C 623.5 6.9 623.2 7.4 622.8 7.8 C 622.3 8.3 621.7 8.5 621 8.5 C 620.7 8.5 620.5 8.5 620.3 8.4 C 620.2 8.4 619.9 8.4 619.6 8.2 C 619.2 8.1 618.9 8.1 618.8 8.1 C 618.7 8.1 618.7 8.1 618.6 8.1 C 618.5 8.2 618.5 8.3 618.5 8.5 C 618.48 8.5 618.3 8.5 618.3 8.5 L 618.3 5.8 C 618.3 5.8 618.48 5.78 618.5 5.8 C 618.6 6.3 618.7 6.8 618.9 7.1 C 619.1 7.3 619.3 7.6 619.7 7.8 C 620 8 620.4 8 620.8 8 C 621.3 8 621.7 7.9 622 7.7 C 622.3 7.4 622.4 7.1 622.4 6.7 C 622.4 6.5 622.4 6.4 622.3 6.2 C 622.2 6 622 5.8 621.8 5.6 C 621.6 5.5 621.2 5.2 620.5 4.8 C 619.8 4.5 619.3 4.2 619.1 3.9 C 618.8 3.7 618.6 3.5 618.4 3.2 C 618.3 2.9 618.2 2.6 618.2 2.3 C 618.2 1.7 618.4 1.2 618.8 0.8 C 619.3 0.4 619.8 0.2 620.5 0.2 C 620.9 0.2 621.4 0.3 621.9 0.5 C 622.1 0.6 622.2 0.7 622.3 0.7 C 622.4 0.7 622.5 0.6 622.6 0.6 C 622.6 0.5 622.7 0.4 622.7 0.2 C 622.72 0.19 622.9 0.2 622.9 0.2 Z M 630 5.7 L 626.9 5.7 C 626.9 5.7 626.41 6.91 626.4 6.9 C 626.3 7.2 626.2 7.5 626.2 7.6 C 626.2 7.7 626.3 7.8 626.4 7.9 C 626.5 8 626.7 8.1 627.1 8.1 C 627.13 8.1 627.1 8.3 627.1 8.3 L 624.6 8.3 C 624.6 8.3 624.62 8.1 624.6 8.1 C 625 8 625.2 8 625.3 7.9 C 625.5 7.7 625.7 7.3 625.9 6.7 C 625.93 6.73 628.7 0.2 628.7 0.2 L 628.9 0.2 C 628.9 0.2 631.7 6.8 631.7 6.8 C 631.9 7.3 632.1 7.7 632.3 7.8 C 632.5 8 632.7 8.1 633.1 8.1 C 633.06 8.1 633.1 8.3 633.1 8.3 L 629.9 8.3 C 629.9 8.3 629.93 8.1 629.9 8.1 C 630.2 8.1 630.5 8 630.6 7.9 C 630.7 7.9 630.7 7.7 630.7 7.6 C 630.7 7.4 630.7 7.2 630.5 6.8 C 630.5 6.8 630 5.7 630 5.7 Z M 629.9 5.2 L 628.5 2 L 627.1 5.2 L 629.9 5.2 Z M 640.5 6.1 C 640.5 6.12 640.7 6.2 640.7 6.2 L 640 8.3 L 633.9 8.3 L 633.9 8.1 C 633.9 8.1 634.16 8.1 634.2 8.1 C 634.5 8.1 634.7 8 634.9 7.8 C 635 7.7 635 7.4 635 6.9 C 635 6.9 635 1.8 635 1.8 C 635 1.3 634.9 1 634.8 0.8 C 634.7 0.7 634.5 0.6 634.2 0.6 C 634.16 0.59 633.9 0.6 633.9 0.6 L 633.9 0.4 L 637.5 0.4 C 637.5 0.4 637.45 0.59 637.5 0.6 C 637 0.6 636.7 0.6 636.6 0.7 C 636.4 0.8 636.3 0.9 636.2 1 C 636.2 1.1 636.1 1.4 636.1 1.9 C 636.1 1.9 636.1 6.9 636.1 6.9 C 636.1 7.2 636.2 7.5 636.2 7.6 C 636.3 7.7 636.3 7.7 636.4 7.8 C 636.5 7.8 636.8 7.8 637.3 7.8 C 637.3 7.8 637.9 7.8 637.9 7.8 C 638.5 7.8 639 7.8 639.2 7.7 C 639.5 7.6 639.7 7.4 639.9 7.2 C 640.1 7 640.3 6.6 640.5 6.1 Z M 648.2 6.1 C 648.25 6.12 648.4 6.2 648.4 6.2 L 647.8 8.3 L 641.6 8.3 L 641.6 8.1 C 641.6 8.1 641.91 8.1 641.9 8.1 C 642.2 8.1 642.5 8 642.6 7.8 C 642.7 7.7 642.7 7.4 642.7 6.9 C 642.7 6.9 642.7 1.8 642.7 1.8 C 642.7 1.3 642.7 1 642.6 0.8 C 642.4 0.7 642.2 0.6 641.9 0.6 C 641.91 0.59 641.6 0.6 641.6 0.6 L 641.6 0.4 L 645.2 0.4 C 645.2 0.4 645.2 0.59 645.2 0.6 C 644.8 0.6 644.5 0.6 644.3 0.7 C 644.1 0.8 644 0.9 644 1 C 643.9 1.1 643.9 1.4 643.9 1.9 C 643.9 1.9 643.9 6.9 643.9 6.9 C 643.9 7.2 643.9 7.5 644 7.6 C 644 7.7 644.1 7.7 644.2 7.8 C 644.3 7.8 644.6 7.8 645.1 7.8 C 645.1 7.8 645.7 7.8 645.7 7.8 C 646.3 7.8 646.7 7.8 647 7.7 C 647.2 7.6 647.4 7.4 647.6 7.2 C 647.8 7 648 6.6 648.2 6.1 Z M 651.6 0.8 L 651.6 3.9 C 651.6 3.9 653.37 3.95 653.4 3.9 C 653.8 3.9 654.1 3.9 654.3 3.7 C 654.5 3.6 654.6 3.2 654.6 2.8 C 654.62 2.79 654.8 2.8 654.8 2.8 L 654.8 5.6 C 654.8 5.6 654.62 5.56 654.6 5.6 C 654.6 5.2 654.5 4.9 654.5 4.8 C 654.4 4.7 654.3 4.6 654.1 4.5 C 653.9 4.4 653.7 4.4 653.4 4.4 C 653.37 4.38 651.6 4.4 651.6 4.4 C 651.6 4.4 651.62 7 651.6 7 C 651.6 7.3 651.6 7.6 651.7 7.6 C 651.7 7.7 651.8 7.8 651.8 7.8 C 651.9 7.9 652.1 7.9 652.3 7.9 C 652.3 7.9 653.6 7.9 653.6 7.9 C 654.1 7.9 654.4 7.9 654.6 7.8 C 654.8 7.7 655 7.6 655.2 7.4 C 655.4 7.2 655.7 6.8 655.9 6.3 C 655.94 6.33 656.2 6.3 656.2 6.3 L 655.5 8.3 L 649.4 8.3 L 649.4 8.1 C 649.4 8.1 649.64 8.1 649.6 8.1 C 649.8 8.1 650 8.1 650.2 8 C 650.3 7.9 650.4 7.8 650.4 7.7 C 650.5 7.6 650.5 7.3 650.5 6.9 C 650.5 6.9 650.5 1.8 650.5 1.8 C 650.5 1.3 650.4 0.9 650.3 0.8 C 650.2 0.7 650 0.6 649.6 0.6 C 649.64 0.59 649.4 0.6 649.4 0.6 L 649.4 0.4 L 655.5 0.4 L 655.6 2.1 C 655.6 2.1 655.35 2.12 655.3 2.1 C 655.3 1.7 655.2 1.4 655.1 1.3 C 655 1.1 654.8 1 654.6 0.9 C 654.5 0.8 654.2 0.8 653.8 0.8 C 653.8 0.81 651.6 0.8 651.6 0.8 Z " stroke="none" fill="#741113"/>
  </g>
</svg>