<?xml version="1.0" standalone="no"?>
<!DOCTYPE svg PUBLIC "-//W3C//DTD SVG 1.1//EN" "http://www.w3.org/Graphics/SVG/1.1/DTD/svg11.dtd">
<svg xmlns="http://www.w3.org/2000/svg" version="1.1" width="122px" height="21.3px" viewBox="0 -4 122 21.3" style="top:-4px">
  <desc>ISPORTS</desc>
  <defs/>
  <g id="Polygon35693">
    <path d="M 0.5 8.7 C 0.5 8.7 0.46 8.39 0.5 8.4 C 1.4 8.3 1.5 8.2 1.5 7.2 C 1.5 7.2 1.5 2.4 1.5 2.4 C 1.5 1.4 1.4 1.3 0.5 1.3 C 0.46 1.26 0.5 0.9 0.5 0.9 L 3.6 0.9 C 3.6 0.9 3.64 1.26 3.6 1.3 C 2.7 1.3 2.6 1.4 2.6 2.4 C 2.6 2.4 2.6 7.2 2.6 7.2 C 2.6 8.3 2.7 8.3 3.6 8.4 C 3.64 8.39 3.6 8.7 3.6 8.7 L 0.5 8.7 Z M 8.7 2.7 C 8.4 2 8.1 1.2 7.1 1.2 C 6.2 1.2 5.7 1.8 5.7 2.5 C 5.7 3.3 6.3 3.8 7.3 4.2 C 8.2 4.7 9.3 5.3 9.3 6.6 C 9.3 7.9 8.3 8.9 6.7 8.9 C 6.2 8.9 5.8 8.8 5.5 8.7 C 5.2 8.6 5 8.5 4.9 8.5 C 4.8 8.2 4.7 7.2 4.6 6.6 C 4.6 6.6 4.9 6.5 4.9 6.5 C 5.1 7.3 5.7 8.5 6.9 8.5 C 7.8 8.5 8.4 7.9 8.4 7 C 8.4 6.1 7.7 5.7 6.8 5.2 C 6 4.8 4.8 4.2 4.8 2.9 C 4.8 1.7 5.7 0.7 7.3 0.7 C 7.8 0.7 8.3 0.9 8.8 1 C 8.8 1.5 8.9 1.9 9 2.7 C 9 2.7 8.7 2.7 8.7 2.7 Z M 13.2 0.9 C 14 0.9 14.7 1.1 15.2 1.4 C 15.6 1.8 15.9 2.3 15.9 3.1 C 15.9 4.7 14.8 5.4 13.6 5.6 C 13.4 5.6 13.2 5.6 13.1 5.6 C 13.07 5.58 12.2 5.4 12.2 5.4 C 12.2 5.4 12.18 7.24 12.2 7.2 C 12.2 8.3 12.3 8.3 13.4 8.4 C 13.37 8.39 13.4 8.7 13.4 8.7 L 10.1 8.7 C 10.1 8.7 10.12 8.39 10.1 8.4 C 11.1 8.3 11.2 8.2 11.2 7.2 C 11.2 7.2 11.2 2.4 11.2 2.4 C 11.2 1.4 11.1 1.3 10.2 1.3 C 10.19 1.26 10.2 0.9 10.2 0.9 C 10.2 0.9 13.15 0.92 13.2 0.9 Z M 12.2 5 C 12.3 5 12.7 5.1 13.1 5.1 C 13.8 5.1 14.8 4.7 14.8 3.2 C 14.8 1.9 14 1.3 13 1.3 C 12.6 1.3 12.4 1.4 12.3 1.5 C 12.2 1.5 12.2 1.7 12.2 2 C 12.2 2 12.2 5 12.2 5 Z M 24.8 4.7 C 24.8 7.3 23 8.9 20.8 8.9 C 18.6 8.9 16.9 7.2 16.9 4.9 C 16.9 2.7 18.4 0.7 21 0.7 C 23 0.7 24.8 2.3 24.8 4.7 Z M 18.1 4.6 C 18.1 6.8 19.4 8.5 21.1 8.5 C 22.4 8.5 23.6 7.4 23.6 5.1 C 23.6 2.5 22.3 1.2 20.7 1.2 C 19.4 1.2 18.1 2.3 18.1 4.6 Z M 32.8 8.8 C 32.6 8.8 32.5 8.8 32.4 8.8 C 31.5 8.8 30.9 8.5 30.4 7.7 C 30 7.1 29.6 6.4 29.2 5.8 C 29 5.5 28.8 5.3 28.2 5.3 C 28.16 5.32 27.8 5.3 27.8 5.3 C 27.8 5.3 27.78 7.22 27.8 7.2 C 27.8 8.2 27.9 8.3 28.8 8.4 C 28.85 8.39 28.8 8.7 28.8 8.7 L 25.7 8.7 C 25.7 8.7 25.69 8.39 25.7 8.4 C 26.7 8.3 26.8 8.2 26.8 7.2 C 26.8 7.2 26.8 2.4 26.8 2.4 C 26.8 1.4 26.7 1.3 25.8 1.3 C 25.75 1.26 25.8 0.9 25.8 0.9 C 25.8 0.9 28.73 0.92 28.7 0.9 C 29.6 0.9 30.2 1 30.6 1.3 C 31.1 1.6 31.4 2.2 31.4 2.9 C 31.4 3.9 30.8 4.6 29.9 5 C 30.1 5.4 30.6 6.2 31 6.7 C 31.4 7.3 31.7 7.6 32 7.9 C 32.3 8.3 32.6 8.4 32.8 8.5 C 32.8 8.5 32.8 8.8 32.8 8.8 Z M 28.4 4.9 C 29 4.9 29.4 4.8 29.7 4.6 C 30.1 4.2 30.3 3.7 30.3 3.1 C 30.3 1.8 29.5 1.3 28.6 1.3 C 28.2 1.3 28 1.4 27.9 1.4 C 27.8 1.5 27.8 1.6 27.8 2 C 27.78 1.97 27.8 4.9 27.8 4.9 C 27.8 4.9 28.36 4.92 28.4 4.9 Z M 39.1 2.8 C 38.9 2.2 38.8 1.9 38.7 1.7 C 38.5 1.4 38.3 1.3 37.4 1.3 C 37.39 1.34 36.5 1.3 36.5 1.3 C 36.5 1.3 36.54 7.25 36.5 7.2 C 36.5 8.2 36.6 8.3 37.8 8.4 C 37.77 8.39 37.8 8.7 37.8 8.7 L 34.3 8.7 C 34.3 8.7 34.33 8.39 34.3 8.4 C 35.4 8.3 35.5 8.2 35.5 7.2 C 35.52 7.25 35.5 1.3 35.5 1.3 C 35.5 1.3 34.78 1.34 34.8 1.3 C 33.8 1.3 33.5 1.4 33.4 1.7 C 33.2 1.9 33.1 2.3 33 2.8 C 33 2.8 32.7 2.8 32.7 2.8 C 32.7 2.1 32.8 1.3 32.8 0.6 C 32.8 0.6 33 0.6 33 0.6 C 33.2 0.9 33.4 0.9 33.7 0.9 C 33.7 0.9 38.4 0.9 38.4 0.9 C 38.8 0.9 38.9 0.9 39 0.6 C 39 0.6 39.3 0.6 39.3 0.6 C 39.3 1.2 39.4 2.1 39.4 2.7 C 39.4 2.7 39.1 2.8 39.1 2.8 Z M 44.4 2.7 C 44.2 2 43.9 1.2 42.8 1.2 C 41.9 1.2 41.5 1.8 41.5 2.5 C 41.5 3.3 42.1 3.8 43 4.2 C 43.9 4.7 45.1 5.3 45.1 6.6 C 45.1 7.9 44 8.9 42.4 8.9 C 41.9 8.9 41.5 8.8 41.2 8.7 C 40.9 8.6 40.8 8.5 40.7 8.5 C 40.6 8.2 40.4 7.2 40.3 6.6 C 40.3 6.6 40.7 6.5 40.7 6.5 C 40.9 7.3 41.4 8.5 42.6 8.5 C 43.5 8.5 44.1 7.9 44.1 7 C 44.1 6.1 43.4 5.7 42.5 5.2 C 41.8 4.8 40.5 4.2 40.5 2.9 C 40.5 1.7 41.5 0.7 43 0.7 C 43.6 0.7 44.1 0.9 44.5 1 C 44.6 1.5 44.6 1.9 44.7 2.7 C 44.7 2.7 44.4 2.7 44.4 2.7 Z " stroke="none" fill="#000"/>
  </g>
</svg>