<?xml version="1.0" standalone="no"?>
<!DOCTYPE svg PUBLIC "-//W3C//DTD SVG 1.1//EN" "http://www.w3.org/Graphics/SVG/1.1/DTD/svg11.dtd">
<svg xmlns="http://www.w3.org/2000/svg" version="1.1" width="778px" height="27.8px" viewBox="0 -3 778 27.8" style="top:-3px">
  <desc>TUNGHAYAN ang 17 atletang Pilipino na lalahok sa 2020 Summer Paralympics sa darating na Agosto 24, 2021 sa Tokyo, Jap</desc>
  <defs/>
  <g id="Polygon39069">
    <path d="M 0.8 14.5 L 1.5 14.5 C 1.5 14.5 1.47 15.36 1.5 15.4 C 1.8 14.9 2.3 14.4 3.1 14.4 C 4.2 14.4 4.8 15.2 4.8 16.3 C 4.84 16.31 4.8 19.2 4.8 19.2 L 4.1 19.2 C 4.1 19.2 4.15 16.48 4.1 16.5 C 4.1 15.6 3.7 15.1 2.9 15.1 C 2.1 15.1 1.5 15.7 1.5 16.5 C 1.47 16.54 1.5 19.2 1.5 19.2 L 0.8 19.2 L 0.8 14.5 Z M 6.2 20 C 6.2 20 6.5 19.5 6.5 19.5 C 7 19.9 7.6 20.1 8.3 20.1 C 9.3 20.1 10 19.5 10 18.4 C 10 18.4 10 17.9 10 17.9 C 9.6 18.4 9 18.8 8.1 18.8 C 7 18.8 6 18 6 16.7 C 6 16.7 6 16.6 6 16.6 C 6 15.3 7 14.4 8.1 14.4 C 9 14.4 9.6 14.9 10 15.4 C 9.96 15.38 10 14.5 10 14.5 L 10.7 14.5 C 10.7 14.5 10.66 18.39 10.7 18.4 C 10.7 19.1 10.4 19.7 10.1 20 C 9.6 20.5 9 20.7 8.3 20.7 C 7.5 20.7 6.8 20.4 6.2 20 Z M 10 16.7 C 10 16.7 10 16.6 10 16.6 C 10 15.7 9.2 15.1 8.3 15.1 C 7.4 15.1 6.7 15.7 6.7 16.6 C 6.7 16.6 6.7 16.6 6.7 16.6 C 6.7 17.6 7.4 18.2 8.3 18.2 C 9.2 18.2 10 17.6 10 16.7 Z M 14.8 12.9 C 14.8 12.9 17.2 12.9 17.2 12.9 C 18.6 12.9 19.6 13.7 19.6 14.9 C 19.6 14.9 19.6 14.9 19.6 14.9 C 19.6 16.3 18.4 17 17.1 17 C 17.08 16.98 15.6 17 15.6 17 L 15.6 19.2 L 14.8 19.2 L 14.8 12.9 Z M 17.1 16.3 C 18.2 16.3 18.8 15.8 18.8 14.9 C 18.8 14.9 18.8 14.9 18.8 14.9 C 18.8 14 18.2 13.6 17.1 13.6 C 17.14 13.56 15.6 13.6 15.6 13.6 L 15.6 16.3 C 15.6 16.3 17.11 16.33 17.1 16.3 Z M 20.7 12.8 L 21.5 12.8 L 21.5 13.5 L 20.7 13.5 L 20.7 12.8 Z M 20.7 14.5 L 21.4 14.5 L 21.4 19.2 L 20.7 19.2 L 20.7 14.5 Z M 23 12.6 L 23.7 12.6 L 23.7 19.2 L 23 19.2 L 23 12.6 Z M 25.2 12.8 L 26 12.8 L 26 13.5 L 25.2 13.5 L 25.2 12.8 Z M 25.3 14.5 L 26 14.5 L 26 19.2 L 25.3 19.2 L 25.3 14.5 Z M 27.5 14.5 L 28.2 14.5 C 28.2 14.5 28.17 15.48 28.2 15.5 C 28.5 14.9 29.1 14.4 30 14.4 C 31.1 14.4 32.2 15.3 32.2 16.9 C 32.2 16.9 32.2 16.9 32.2 16.9 C 32.2 18.4 31.1 19.3 30 19.3 C 29.1 19.3 28.5 18.8 28.2 18.3 C 28.17 18.31 28.2 20.6 28.2 20.6 L 27.5 20.6 L 27.5 14.5 Z M 31.5 16.9 C 31.5 16.9 31.5 16.9 31.5 16.9 C 31.5 15.8 30.7 15.1 29.8 15.1 C 29 15.1 28.1 15.8 28.1 16.9 C 28.1 16.9 28.1 16.9 28.1 16.9 C 28.1 18 29 18.7 29.8 18.7 C 30.7 18.7 31.5 18 31.5 16.9 Z M 33.4 12.8 L 34.2 12.8 L 34.2 13.5 L 33.4 13.5 L 33.4 12.8 Z M 33.4 14.5 L 34.1 14.5 L 34.1 19.2 L 33.4 19.2 L 33.4 14.5 Z M 35.6 14.5 L 36.3 14.5 C 36.3 14.5 36.33 15.36 36.3 15.4 C 36.6 14.9 37.1 14.4 37.9 14.4 C 39.1 14.4 39.7 15.2 39.7 16.3 C 39.71 16.31 39.7 19.2 39.7 19.2 L 39 19.2 C 39 19.2 39.01 16.48 39 16.5 C 39 15.6 38.5 15.1 37.7 15.1 C 36.9 15.1 36.3 15.7 36.3 16.5 C 36.33 16.54 36.3 19.2 36.3 19.2 L 35.6 19.2 L 35.6 14.5 Z M 40.7 17.8 C 40.7 17.8 40.7 17.8 40.7 17.8 C 40.7 16.9 41.6 16.3 42.7 16.3 C 43.3 16.3 43.7 16.4 44.2 16.5 C 44.2 16.5 44.2 16.4 44.2 16.4 C 44.2 15.5 43.6 15.1 42.8 15.1 C 42.2 15.1 41.8 15.2 41.4 15.4 C 41.4 15.4 41.2 14.9 41.2 14.9 C 41.7 14.6 42.2 14.5 42.8 14.5 C 43.5 14.5 44 14.7 44.4 15 C 44.7 15.3 44.8 15.8 44.8 16.4 C 44.83 16.36 44.8 19.2 44.8 19.2 L 44.2 19.2 C 44.2 19.2 44.16 18.5 44.2 18.5 C 43.8 18.9 43.3 19.3 42.5 19.3 C 41.6 19.3 40.7 18.8 40.7 17.8 Z M 44.2 17.5 C 44.2 17.5 44.2 17 44.2 17 C 43.8 16.9 43.4 16.8 42.8 16.8 C 41.9 16.8 41.4 17.2 41.4 17.8 C 41.4 17.8 41.4 17.8 41.4 17.8 C 41.4 18.4 42 18.8 42.6 18.8 C 43.5 18.8 44.2 18.2 44.2 17.5 Z M 45.8 18.6 C 45.8 18.6 46.2 18.1 46.2 18.1 C 46.7 18.5 47.2 18.7 47.8 18.7 C 48.3 18.7 48.8 18.4 48.8 18 C 48.8 18 48.8 17.9 48.8 17.9 C 48.8 17.5 48.2 17.3 47.6 17.1 C 46.9 16.9 46.1 16.7 46.1 15.8 C 46.1 15.8 46.1 15.8 46.1 15.8 C 46.1 15 46.7 14.5 47.6 14.5 C 48.2 14.5 48.8 14.7 49.3 15 C 49.3 15 49 15.5 49 15.5 C 48.6 15.2 48.1 15.1 47.6 15.1 C 47.1 15.1 46.7 15.3 46.7 15.7 C 46.7 15.7 46.7 15.7 46.7 15.7 C 46.7 16.2 47.3 16.4 47.9 16.5 C 48.6 16.8 49.4 17 49.4 17.9 C 49.4 17.9 49.4 17.9 49.4 17.9 C 49.4 18.8 48.7 19.3 47.8 19.3 C 47.1 19.3 46.3 19 45.8 18.6 Z M 52.8 18.6 C 52.8 18.6 53.2 18.1 53.2 18.1 C 53.7 18.5 54.2 18.7 54.8 18.7 C 55.3 18.7 55.8 18.4 55.8 18 C 55.8 18 55.8 17.9 55.8 17.9 C 55.8 17.5 55.2 17.3 54.6 17.1 C 53.9 16.9 53.1 16.7 53.1 15.8 C 53.1 15.8 53.1 15.8 53.1 15.8 C 53.1 15 53.7 14.5 54.6 14.5 C 55.2 14.5 55.8 14.7 56.3 15 C 56.3 15 56 15.5 56 15.5 C 55.6 15.2 55.1 15.1 54.6 15.1 C 54.1 15.1 53.7 15.3 53.7 15.7 C 53.7 15.7 53.7 15.7 53.7 15.7 C 53.7 16.2 54.3 16.4 54.9 16.5 C 55.6 16.8 56.4 17 56.4 17.9 C 56.4 17.9 56.4 17.9 56.4 17.9 C 56.4 18.8 55.7 19.3 54.8 19.3 C 54.1 19.3 53.4 19 52.8 18.6 Z M 57.6 12.8 L 58.4 12.8 L 58.4 13.5 L 57.6 13.5 L 57.6 12.8 Z M 57.7 14.5 L 58.4 14.5 L 58.4 19.2 L 57.7 19.2 L 57.7 14.5 Z M 59.9 14.5 L 60.6 14.5 C 60.6 14.5 60.58 15.36 60.6 15.4 C 60.9 14.9 61.4 14.4 62.2 14.4 C 63.3 14.4 64 15.2 64 16.3 C 63.95 16.31 64 19.2 64 19.2 L 63.3 19.2 C 63.3 19.2 63.26 16.48 63.3 16.5 C 63.3 15.6 62.8 15.1 62 15.1 C 61.2 15.1 60.6 15.7 60.6 16.5 C 60.58 16.54 60.6 19.2 60.6 19.2 L 59.9 19.2 L 59.9 14.5 Z M 65 17.8 C 65 17.8 65 17.8 65 17.8 C 65 16.9 65.8 16.3 67 16.3 C 67.6 16.3 68 16.4 68.4 16.5 C 68.4 16.5 68.4 16.4 68.4 16.4 C 68.4 15.5 67.9 15.1 67 15.1 C 66.5 15.1 66 15.2 65.6 15.4 C 65.6 15.4 65.4 14.9 65.4 14.9 C 65.9 14.6 66.4 14.5 67.1 14.5 C 67.8 14.5 68.3 14.7 68.6 15 C 68.9 15.3 69.1 15.8 69.1 16.4 C 69.07 16.36 69.1 19.2 69.1 19.2 L 68.4 19.2 C 68.4 19.2 68.41 18.5 68.4 18.5 C 68.1 18.9 67.5 19.3 66.7 19.3 C 65.9 19.3 65 18.8 65 17.8 Z M 68.4 17.5 C 68.4 17.5 68.4 17 68.4 17 C 68.1 16.9 67.6 16.8 67 16.8 C 66.2 16.8 65.7 17.2 65.7 17.8 C 65.7 17.8 65.7 17.8 65.7 17.8 C 65.7 18.4 66.2 18.8 66.9 18.8 C 67.7 18.8 68.4 18.2 68.4 17.5 Z M 72.6 18.2 C 72.6 18.2 73.1 17.7 73.1 17.7 C 73.5 18.3 73.9 18.6 74.5 18.6 C 75.2 18.6 75.8 18.1 75.8 17.1 C 75.76 17.12 75.8 12.9 75.8 12.9 L 76.5 12.9 C 76.5 12.9 76.48 17.11 76.5 17.1 C 76.5 17.9 76.3 18.4 75.9 18.8 C 75.6 19.1 75.1 19.3 74.5 19.3 C 73.6 19.3 73 18.8 72.6 18.2 Z M 77.7 16.9 C 77.7 16.9 77.7 16.9 77.7 16.9 C 77.7 15.5 78.6 14.4 79.9 14.4 C 81.3 14.4 82.1 15.5 82.1 16.9 C 82.1 17 82.1 17 82.1 17.1 C 82.1 17.1 78.4 17.1 78.4 17.1 C 78.5 18.1 79.2 18.7 80 18.7 C 80.6 18.7 81.1 18.4 81.5 18 C 81.5 18 81.9 18.4 81.9 18.4 C 81.4 19 80.9 19.3 80 19.3 C 78.7 19.3 77.7 18.3 77.7 16.9 Z M 81.4 16.6 C 81.3 15.8 80.8 15 79.9 15 C 79.1 15 78.5 15.7 78.4 16.6 C 78.4 16.6 81.4 16.6 81.4 16.6 Z M 83.2 14.5 L 83.9 14.5 C 83.9 14.5 83.89 15.76 83.9 15.8 C 84.2 15 84.9 14.4 85.8 14.5 C 85.79 14.47 85.8 15.2 85.8 15.2 C 85.8 15.2 85.73 15.21 85.7 15.2 C 84.7 15.2 83.9 15.9 83.9 17.3 C 83.89 17.35 83.9 19.2 83.9 19.2 L 83.2 19.2 L 83.2 14.5 Z M 86.7 14.5 L 87.4 14.5 C 87.4 14.5 87.44 15.76 87.4 15.8 C 87.8 15 88.5 14.4 89.3 14.5 C 89.34 14.47 89.3 15.2 89.3 15.2 C 89.3 15.2 89.29 15.21 89.3 15.2 C 88.3 15.2 87.4 15.9 87.4 17.3 C 87.44 17.35 87.4 19.2 87.4 19.2 L 86.7 19.2 L 86.7 14.5 Z M 89.8 16.9 C 89.8 16.9 89.8 16.9 89.8 16.9 C 89.8 15.6 90.8 14.4 92.2 14.4 C 93.6 14.4 94.7 15.5 94.7 16.9 C 94.7 16.9 94.7 16.9 94.7 16.9 C 94.7 18.2 93.6 19.3 92.2 19.3 C 90.8 19.3 89.8 18.2 89.8 16.9 Z M 94 16.9 C 94 16.9 94 16.9 94 16.9 C 94 15.9 93.2 15.1 92.2 15.1 C 91.2 15.1 90.5 15.9 90.5 16.9 C 90.5 16.9 90.5 16.9 90.5 16.9 C 90.5 17.9 91.3 18.7 92.2 18.7 C 93.3 18.7 94 17.9 94 16.9 Z M 95.9 12.6 L 96.6 12.6 L 96.6 19.2 L 95.9 19.2 L 95.9 12.6 Z M 97.8 16.9 C 97.8 16.9 97.8 16.9 97.8 16.9 C 97.8 15.3 98.9 14.4 100.1 14.4 C 100.9 14.4 101.5 14.9 101.8 15.4 C 101.84 15.44 101.8 12.6 101.8 12.6 L 102.5 12.6 L 102.5 19.2 L 101.8 19.2 C 101.8 19.2 101.84 18.26 101.8 18.3 C 101.5 18.8 100.9 19.3 100.1 19.3 C 98.9 19.3 97.8 18.4 97.8 16.9 Z M 101.9 16.9 C 101.9 16.9 101.9 16.9 101.9 16.9 C 101.9 15.8 101.1 15.1 100.2 15.1 C 99.3 15.1 98.5 15.7 98.5 16.9 C 98.5 16.9 98.5 16.9 98.5 16.9 C 98.5 18 99.3 18.7 100.2 18.7 C 101.1 18.7 101.9 17.9 101.9 16.9 Z M 106.7 12.9 L 107.4 12.9 L 109.7 16.3 L 112 12.9 L 112.7 12.9 L 112.7 19.2 L 112 19.2 L 112 14.1 L 109.7 17.5 L 109.7 17.5 L 107.4 14.1 L 107.4 19.2 L 106.7 19.2 L 106.7 12.9 Z M 114 17.8 C 114 17.8 114 17.8 114 17.8 C 114 16.9 114.8 16.3 116 16.3 C 116.6 16.3 117 16.4 117.4 16.5 C 117.4 16.5 117.4 16.4 117.4 16.4 C 117.4 15.5 116.9 15.1 116 15.1 C 115.5 15.1 115 15.2 114.6 15.4 C 114.6 15.4 114.4 14.9 114.4 14.9 C 114.9 14.6 115.4 14.5 116.1 14.5 C 116.7 14.5 117.2 14.7 117.6 15 C 117.9 15.3 118.1 15.8 118.1 16.4 C 118.06 16.36 118.1 19.2 118.1 19.2 L 117.4 19.2 C 117.4 19.2 117.39 18.5 117.4 18.5 C 117.1 18.9 116.5 19.3 115.7 19.3 C 114.8 19.3 114 18.8 114 17.8 Z M 117.4 17.5 C 117.4 17.5 117.4 17 117.4 17 C 117.1 16.9 116.6 16.8 116 16.8 C 115.2 16.8 114.7 17.2 114.7 17.8 C 114.7 17.8 114.7 17.8 114.7 17.8 C 114.7 18.4 115.2 18.8 115.8 18.8 C 116.7 18.8 117.4 18.2 117.4 17.5 Z M 119.4 14.5 L 120.1 14.5 C 120.1 14.5 120.14 15.36 120.1 15.4 C 120.4 14.9 120.9 14.4 121.7 14.4 C 122.9 14.4 123.5 15.2 123.5 16.3 C 123.51 16.31 123.5 19.2 123.5 19.2 L 122.8 19.2 C 122.8 19.2 122.82 16.48 122.8 16.5 C 122.8 15.6 122.4 15.1 121.5 15.1 C 120.7 15.1 120.1 15.7 120.1 16.5 C 120.14 16.54 120.1 19.2 120.1 19.2 L 119.4 19.2 L 119.4 14.5 Z M 124.8 20 C 124.8 20 125.2 19.5 125.2 19.5 C 125.7 19.9 126.3 20.1 127 20.1 C 128 20.1 128.6 19.5 128.6 18.4 C 128.6 18.4 128.6 17.9 128.6 17.9 C 128.2 18.4 127.7 18.8 126.8 18.8 C 125.7 18.8 124.6 18 124.6 16.7 C 124.6 16.7 124.6 16.6 124.6 16.6 C 124.6 15.3 125.7 14.4 126.8 14.4 C 127.7 14.4 128.3 14.9 128.6 15.4 C 128.64 15.38 128.6 14.5 128.6 14.5 L 129.3 14.5 C 129.3 14.5 129.33 18.39 129.3 18.4 C 129.3 19.1 129.1 19.7 128.7 20 C 128.3 20.5 127.7 20.7 127 20.7 C 126.2 20.7 125.5 20.4 124.8 20 Z M 128.7 16.7 C 128.7 16.7 128.7 16.6 128.7 16.6 C 128.7 15.7 127.8 15.1 127 15.1 C 126.1 15.1 125.3 15.7 125.3 16.6 C 125.3 16.6 125.3 16.6 125.3 16.6 C 125.3 17.6 126.1 18.2 127 18.2 C 127.8 18.2 128.7 17.6 128.7 16.7 Z M 130.8 12.6 L 131.5 12.6 L 131.5 19.2 L 130.8 19.2 L 130.8 12.6 Z M 133.1 12.8 L 133.9 12.8 L 133.9 13.5 L 133.1 13.5 L 133.1 12.8 Z M 133.1 14.5 L 133.8 14.5 L 133.8 19.2 L 133.1 19.2 L 133.1 14.5 Z M 134.9 14.5 L 135.7 14.5 L 136.9 18.3 L 138.2 14.5 L 138.7 14.5 L 140 18.3 L 141.2 14.5 L 141.9 14.5 L 140.3 19.2 L 139.7 19.2 L 138.4 15.6 L 137.2 19.2 L 136.6 19.2 L 134.9 14.5 Z M 142.5 17.8 C 142.5 17.8 142.5 17.8 142.5 17.8 C 142.5 16.9 143.3 16.3 144.5 16.3 C 145.1 16.3 145.5 16.4 145.9 16.5 C 145.9 16.5 145.9 16.4 145.9 16.4 C 145.9 15.5 145.4 15.1 144.5 15.1 C 144 15.1 143.5 15.2 143.1 15.4 C 143.1 15.4 142.9 14.9 142.9 14.9 C 143.4 14.6 143.9 14.5 144.6 14.5 C 145.2 14.5 145.7 14.7 146.1 15 C 146.4 15.3 146.6 15.8 146.6 16.4 C 146.55 16.36 146.6 19.2 146.6 19.2 L 145.9 19.2 C 145.9 19.2 145.89 18.5 145.9 18.5 C 145.6 18.9 145 19.3 144.2 19.3 C 143.3 19.3 142.5 18.8 142.5 17.8 Z M 145.9 17.5 C 145.9 17.5 145.9 17 145.9 17 C 145.6 16.9 145.1 16.8 144.5 16.8 C 143.7 16.8 143.2 17.2 143.2 17.8 C 143.2 17.8 143.2 17.8 143.2 17.8 C 143.2 18.4 143.7 18.8 144.3 18.8 C 145.2 18.8 145.9 18.2 145.9 17.5 Z M 147.9 14.5 L 148.6 14.5 C 148.6 14.5 148.63 15.36 148.6 15.4 C 148.9 14.9 149.4 14.4 150.2 14.4 C 151.4 14.4 152 15.2 152 16.3 C 152.01 16.31 152 19.2 152 19.2 L 151.3 19.2 C 151.3 19.2 151.31 16.48 151.3 16.5 C 151.3 15.6 150.8 15.1 150 15.1 C 149.2 15.1 148.6 15.7 148.6 16.5 C 148.63 16.54 148.6 19.2 148.6 19.2 L 147.9 19.2 L 147.9 14.5 Z M 153 20 C 153.5 19.8 153.7 19.6 153.6 19.2 C 153.64 19.2 153.3 19.2 153.3 19.2 L 153.3 18.3 L 154.1 18.3 C 154.1 18.3 154.14 19.06 154.1 19.1 C 154.1 19.8 153.8 20.1 153.1 20.3 C 153.1 20.3 153 20 153 20 Z M 157.6 18.2 C 157.6 18.2 158.1 17.7 158.1 17.7 C 158.5 18.3 158.9 18.6 159.6 18.6 C 160.3 18.6 160.8 18.1 160.8 17.1 C 160.81 17.12 160.8 12.9 160.8 12.9 L 161.5 12.9 C 161.5 12.9 161.53 17.11 161.5 17.1 C 161.5 17.9 161.3 18.4 161 18.8 C 160.6 19.1 160.1 19.3 159.6 19.3 C 158.6 19.3 158 18.8 157.6 18.2 Z M 162.7 16.9 C 162.7 16.9 162.7 16.9 162.7 16.9 C 162.7 15.5 163.7 14.4 164.9 14.4 C 166.3 14.4 167.1 15.5 167.1 16.9 C 167.1 17 167.1 17 167.1 17.1 C 167.1 17.1 163.4 17.1 163.4 17.1 C 163.5 18.1 164.2 18.7 165.1 18.7 C 165.7 18.7 166.1 18.4 166.5 18 C 166.5 18 167 18.4 167 18.4 C 166.5 19 165.9 19.3 165 19.3 C 163.8 19.3 162.7 18.3 162.7 16.9 Z M 166.4 16.6 C 166.3 15.8 165.9 15 164.9 15 C 164.1 15 163.5 15.7 163.4 16.6 C 163.4 16.6 166.4 16.6 166.4 16.6 Z M 167.9 17.8 C 167.9 17.8 167.9 17.8 167.9 17.8 C 167.9 16.9 168.7 16.3 169.9 16.3 C 170.5 16.3 170.9 16.4 171.3 16.5 C 171.3 16.5 171.3 16.4 171.3 16.4 C 171.3 15.5 170.8 15.1 169.9 15.1 C 169.4 15.1 168.9 15.2 168.5 15.4 C 168.5 15.4 168.3 14.9 168.3 14.9 C 168.8 14.6 169.3 14.5 170 14.5 C 170.7 14.5 171.2 14.7 171.5 15 C 171.8 15.3 172 15.8 172 16.4 C 171.98 16.36 172 19.2 172 19.2 L 171.3 19.2 C 171.3 19.2 171.31 18.5 171.3 18.5 C 171 18.9 170.4 19.3 169.6 19.3 C 168.8 19.3 167.9 18.8 167.9 17.8 Z M 171.3 17.5 C 171.3 17.5 171.3 17 171.3 17 C 171 16.9 170.5 16.8 170 16.8 C 169.1 16.8 168.6 17.2 168.6 17.8 C 168.6 17.8 168.6 17.8 168.6 17.8 C 168.6 18.4 169.1 18.8 169.8 18.8 C 170.6 18.8 171.3 18.2 171.3 17.5 Z M 173.4 14.5 L 174.1 14.5 C 174.1 14.5 174.06 15.36 174.1 15.4 C 174.4 14.9 174.8 14.4 175.7 14.4 C 176.8 14.4 177.4 15.2 177.4 16.3 C 177.43 16.31 177.4 19.2 177.4 19.2 L 176.7 19.2 C 176.7 19.2 176.74 16.48 176.7 16.5 C 176.7 15.6 176.3 15.1 175.5 15.1 C 174.7 15.1 174.1 15.7 174.1 16.5 C 174.06 16.54 174.1 19.2 174.1 19.2 L 173.4 19.2 L 173.4 14.5 Z M 178.5 16.9 C 178.5 16.9 178.5 16.9 178.5 16.9 C 178.5 15.5 179.5 14.4 180.8 14.4 C 182.1 14.4 182.9 15.5 182.9 16.9 C 182.9 17 182.9 17 182.9 17.1 C 182.9 17.1 179.2 17.1 179.2 17.1 C 179.3 18.1 180 18.7 180.9 18.7 C 181.5 18.7 182 18.4 182.3 18 C 182.3 18 182.8 18.4 182.8 18.4 C 182.3 19 181.7 19.3 180.9 19.3 C 179.6 19.3 178.5 18.3 178.5 16.9 Z M 182.2 16.6 C 182.2 15.8 181.7 15 180.7 15 C 179.9 15 179.3 15.7 179.2 16.6 C 179.2 16.6 182.2 16.6 182.2 16.6 Z M 184.3 18 C 184.3 17.97 184.3 15.2 184.3 15.2 L 183.7 15.2 L 183.7 14.5 L 184.3 14.5 L 184.3 13.1 L 185 13.1 L 185 14.5 L 186.5 14.5 L 186.5 15.2 L 185 15.2 C 185 15.2 184.99 17.88 185 17.9 C 185 18.4 185.3 18.7 185.8 18.7 C 186 18.7 186.2 18.6 186.4 18.5 C 186.4 18.5 186.4 19.1 186.4 19.1 C 186.2 19.2 185.9 19.3 185.6 19.3 C 184.9 19.3 184.3 18.9 184.3 18 Z M 187.8 18 C 187.85 17.97 187.8 15.2 187.8 15.2 L 187.2 15.2 L 187.2 14.5 L 187.8 14.5 L 187.8 13.1 L 188.5 13.1 L 188.5 14.5 L 190 14.5 L 190 15.2 L 188.5 15.2 C 188.5 15.2 188.54 17.88 188.5 17.9 C 188.5 18.4 188.9 18.7 189.3 18.7 C 189.6 18.7 189.8 18.6 190 18.5 C 190 18.5 190 19.1 190 19.1 C 189.8 19.2 189.5 19.3 189.2 19.3 C 188.4 19.3 187.8 18.9 187.8 18 Z M 190.7 16.9 C 190.7 16.9 190.7 16.9 190.7 16.9 C 190.7 15.5 191.7 14.4 193 14.4 C 194.3 14.4 195.1 15.5 195.1 16.9 C 195.1 17 195.1 17 195.1 17.1 C 195.1 17.1 191.4 17.1 191.4 17.1 C 191.5 18.1 192.2 18.7 193.1 18.7 C 193.7 18.7 194.2 18.4 194.5 18 C 194.5 18 195 18.4 195 18.4 C 194.5 19 193.9 19.3 193 19.3 C 191.8 19.3 190.7 18.3 190.7 16.9 Z M 194.4 16.6 C 194.4 15.8 193.9 15 192.9 15 C 192.1 15 191.5 15.7 191.4 16.6 C 191.4 16.6 194.4 16.6 194.4 16.6 Z M 201.3 12.9 L 202 12.9 L 204.8 19.2 L 204.1 19.2 L 203.3 17.5 L 199.9 17.5 L 199.2 19.2 L 198.4 19.2 L 201.3 12.9 Z M 203.1 16.9 L 201.6 13.7 L 200.2 16.9 L 203.1 16.9 Z M 205.4 16.9 C 205.4 16.9 205.4 16.9 205.4 16.9 C 205.4 15.6 206.4 14.4 207.8 14.4 C 208.6 14.4 209.2 14.8 209.6 15.3 C 209.6 15.3 209.2 15.8 209.2 15.8 C 208.8 15.4 208.4 15.1 207.7 15.1 C 206.8 15.1 206.1 15.9 206.1 16.9 C 206.1 16.9 206.1 16.9 206.1 16.9 C 206.1 17.9 206.8 18.7 207.8 18.7 C 208.4 18.7 208.8 18.4 209.2 18 C 209.2 18 209.7 18.4 209.7 18.4 C 209.2 18.9 208.6 19.3 207.8 19.3 C 206.4 19.3 205.4 18.2 205.4 16.9 Z M 210.3 16.9 C 210.3 16.9 210.3 16.9 210.3 16.9 C 210.3 15.5 211.2 14.4 212.5 14.4 C 213.9 14.4 214.7 15.5 214.7 16.9 C 214.7 17 214.7 17 214.7 17.1 C 214.7 17.1 211 17.1 211 17.1 C 211.1 18.1 211.8 18.7 212.6 18.7 C 213.3 18.7 213.7 18.4 214.1 18 C 214.1 18 214.5 18.4 214.5 18.4 C 214.1 19 213.5 19.3 212.6 19.3 C 211.3 19.3 210.3 18.3 210.3 16.9 Z M 214 16.6 C 213.9 15.8 213.4 15 212.5 15 C 211.7 15 211.1 15.7 211 16.6 C 211 16.6 214 16.6 214 16.6 Z M 215.1 14.5 L 215.9 14.5 L 217.5 18.4 L 219 14.5 L 219.8 14.5 L 217.8 19.2 L 217.1 19.2 L 215.1 14.5 Z M 220.2 16.9 C 220.2 16.9 220.2 16.9 220.2 16.9 C 220.2 15.5 221.2 14.4 222.4 14.4 C 223.8 14.4 224.6 15.5 224.6 16.9 C 224.6 17 224.6 17 224.6 17.1 C 224.6 17.1 220.9 17.1 220.9 17.1 C 221 18.1 221.7 18.7 222.6 18.7 C 223.2 18.7 223.6 18.4 224 18 C 224 18 224.5 18.4 224.5 18.4 C 224 19 223.4 19.3 222.5 19.3 C 221.3 19.3 220.2 18.3 220.2 16.9 Z M 223.9 16.6 C 223.8 15.8 223.4 15 222.4 15 C 221.6 15 221 15.7 220.9 16.6 C 220.9 16.6 223.9 16.6 223.9 16.6 Z M 225.5 16.9 C 225.5 16.9 225.5 16.9 225.5 16.9 C 225.5 15.3 226.6 14.4 227.7 14.4 C 228.6 14.4 229.1 14.9 229.5 15.4 C 229.48 15.44 229.5 12.6 229.5 12.6 L 230.2 12.6 L 230.2 19.2 L 229.5 19.2 C 229.5 19.2 229.48 18.26 229.5 18.3 C 229.1 18.8 228.6 19.3 227.7 19.3 C 226.6 19.3 225.5 18.4 225.5 16.9 Z M 229.5 16.9 C 229.5 16.9 229.5 16.9 229.5 16.9 C 229.5 15.8 228.7 15.1 227.8 15.1 C 226.9 15.1 226.2 15.7 226.2 16.9 C 226.2 16.9 226.2 16.9 226.2 16.9 C 226.2 18 226.9 18.7 227.8 18.7 C 228.7 18.7 229.5 17.9 229.5 16.9 Z M 231.3 17.8 C 231.3 17.8 231.3 17.8 231.3 17.8 C 231.3 16.9 232.1 16.3 233.3 16.3 C 233.9 16.3 234.3 16.4 234.7 16.5 C 234.7 16.5 234.7 16.4 234.7 16.4 C 234.7 15.5 234.2 15.1 233.3 15.1 C 232.8 15.1 232.3 15.2 231.9 15.4 C 231.9 15.4 231.7 14.9 231.7 14.9 C 232.2 14.6 232.7 14.5 233.4 14.5 C 234 14.5 234.5 14.7 234.9 15 C 235.2 15.3 235.4 15.8 235.4 16.4 C 235.36 16.36 235.4 19.2 235.4 19.2 L 234.7 19.2 C 234.7 19.2 234.7 18.5 234.7 18.5 C 234.4 18.9 233.8 19.3 233 19.3 C 232.2 19.3 231.3 18.8 231.3 17.8 Z M 234.7 17.5 C 234.7 17.5 234.7 17 234.7 17 C 234.4 16.9 233.9 16.8 233.3 16.8 C 232.5 16.8 232 17.2 232 17.8 C 232 17.8 232 17.8 232 17.8 C 232 18.4 232.5 18.8 233.2 18.8 C 234 18.8 234.7 18.2 234.7 17.5 Z M 236.4 20 C 236.8 19.8 237 19.6 237 19.2 C 236.99 19.2 236.7 19.2 236.7 19.2 L 236.7 18.3 L 237.5 18.3 C 237.5 18.3 237.5 19.06 237.5 19.1 C 237.5 19.8 237.2 20.1 236.5 20.3 C 236.5 20.3 236.4 20 236.4 20 Z M 243.9 12.9 L 244.6 12.9 L 247.5 19.2 L 246.7 19.2 L 246 17.5 L 242.5 17.5 L 241.8 19.2 L 241.1 19.2 L 243.9 12.9 Z M 245.7 16.9 L 244.2 13.7 L 242.8 16.9 L 245.7 16.9 Z M 248.5 14.5 L 249.2 14.5 C 249.2 14.5 249.19 15.76 249.2 15.8 C 249.5 15 250.2 14.4 251.1 14.5 C 251.09 14.47 251.1 15.2 251.1 15.2 C 251.1 15.2 251.03 15.21 251 15.2 C 250 15.2 249.2 15.9 249.2 17.3 C 249.19 17.35 249.2 19.2 249.2 19.2 L 248.5 19.2 L 248.5 14.5 Z M 251.6 16.9 C 251.6 16.9 251.6 16.9 251.6 16.9 C 251.6 15.6 252.6 14.4 253.9 14.4 C 254.8 14.4 255.4 14.8 255.8 15.3 C 255.8 15.3 255.4 15.8 255.4 15.8 C 255 15.4 254.6 15.1 253.9 15.1 C 253 15.1 252.3 15.9 252.3 16.9 C 252.3 16.9 252.3 16.9 252.3 16.9 C 252.3 17.9 253 18.7 254 18.7 C 254.6 18.7 255 18.4 255.4 18 C 255.4 18 255.8 18.4 255.8 18.4 C 255.4 18.9 254.8 19.3 253.9 19.3 C 252.6 19.3 251.6 18.2 251.6 16.9 Z M 256.9 12.6 L 257.6 12.6 C 257.6 12.6 257.59 15.36 257.6 15.4 C 257.9 14.9 258.4 14.4 259.2 14.4 C 260.3 14.4 261 15.2 261 16.3 C 260.97 16.31 261 19.2 261 19.2 L 260.3 19.2 C 260.3 19.2 260.28 16.48 260.3 16.5 C 260.3 15.6 259.8 15.1 259 15.1 C 258.2 15.1 257.6 15.7 257.6 16.5 C 257.59 16.54 257.6 19.2 257.6 19.2 L 256.9 19.2 L 256.9 12.6 Z M 262.1 16.9 C 262.1 16.9 262.1 16.9 262.1 16.9 C 262.1 15.5 263 14.4 264.3 14.4 C 265.7 14.4 266.5 15.5 266.5 16.9 C 266.5 17 266.5 17 266.5 17.1 C 266.5 17.1 262.8 17.1 262.8 17.1 C 262.9 18.1 263.6 18.7 264.4 18.7 C 265 18.7 265.5 18.4 265.9 18 C 265.9 18 266.3 18.4 266.3 18.4 C 265.8 19 265.3 19.3 264.4 19.3 C 263.1 19.3 262.1 18.3 262.1 16.9 Z M 265.8 16.6 C 265.7 15.8 265.2 15 264.3 15 C 263.5 15 262.9 15.7 262.8 16.6 C 262.8 16.6 265.8 16.6 265.8 16.6 Z M 267.7 12.6 L 268.3 12.6 L 268.3 19.2 L 267.7 19.2 L 267.7 12.6 Z M 269.9 12.6 L 270.6 12.6 L 270.6 19.2 L 269.9 19.2 L 269.9 12.6 Z M 271.9 16.9 C 271.9 16.9 271.9 16.9 271.9 16.9 C 271.9 15.5 272.8 14.4 274.1 14.4 C 275.5 14.4 276.3 15.5 276.3 16.9 C 276.3 17 276.3 17 276.3 17.1 C 276.3 17.1 272.6 17.1 272.6 17.1 C 272.7 18.1 273.4 18.7 274.2 18.7 C 274.8 18.7 275.3 18.4 275.7 18 C 275.7 18 276.1 18.4 276.1 18.4 C 275.6 19 275.1 19.3 274.2 19.3 C 272.9 19.3 271.9 18.3 271.9 16.9 Z M 275.6 16.6 C 275.5 15.8 275 15 274.1 15 C 273.3 15 272.7 15.7 272.6 16.6 C 272.6 16.6 275.6 16.6 275.6 16.6 Z M 279.8 16.1 C 279.8 16.1 279.8 16.1 279.8 16.1 C 279.8 14.3 281.1 12.8 283 12.8 C 284.1 12.8 284.7 13.1 285.3 13.6 C 285.3 13.6 284.9 14.2 284.9 14.2 C 284.4 13.7 283.9 13.4 283 13.4 C 281.6 13.4 280.6 14.6 280.6 16 C 280.6 16 280.6 16.1 280.6 16.1 C 280.6 17.6 281.5 18.7 283.1 18.7 C 283.8 18.7 284.5 18.4 284.9 18 C 284.88 18.04 284.9 16.5 284.9 16.5 L 283 16.5 L 283 15.8 L 285.6 15.8 C 285.6 15.8 285.57 18.35 285.6 18.3 C 285 18.9 284.1 19.3 283 19.3 C 281.1 19.3 279.8 17.9 279.8 16.1 Z M 286.9 17.4 C 286.89 17.44 286.9 14.5 286.9 14.5 L 287.6 14.5 C 287.6 14.5 287.58 17.27 287.6 17.3 C 287.6 18.1 288 18.7 288.9 18.7 C 289.7 18.7 290.3 18.1 290.3 17.2 C 290.26 17.21 290.3 14.5 290.3 14.5 L 290.9 14.5 L 290.9 19.2 L 290.3 19.2 C 290.3 19.2 290.26 18.39 290.3 18.4 C 289.9 18.9 289.5 19.3 288.7 19.3 C 287.5 19.3 286.9 18.5 286.9 17.4 Z M 292.4 12.8 L 293.2 12.8 L 293.2 13.5 L 292.4 13.5 L 292.4 12.8 Z M 292.5 14.5 L 293.2 14.5 L 293.2 19.2 L 292.5 19.2 L 292.5 14.5 Z M 294.4 16.9 C 294.4 16.9 294.4 16.9 294.4 16.9 C 294.4 15.6 295.4 14.4 296.8 14.4 C 298.2 14.4 299.3 15.5 299.3 16.9 C 299.3 16.9 299.3 16.9 299.3 16.9 C 299.3 18.2 298.2 19.3 296.8 19.3 C 295.4 19.3 294.4 18.2 294.4 16.9 Z M 298.5 16.9 C 298.5 16.9 298.5 16.9 298.5 16.9 C 298.5 15.9 297.8 15.1 296.8 15.1 C 295.8 15.1 295.1 15.9 295.1 16.9 C 295.1 16.9 295.1 16.9 295.1 16.9 C 295.1 17.9 295.9 18.7 296.8 18.7 C 297.8 18.7 298.5 17.9 298.5 16.9 Z M 300.4 14.5 L 301.1 14.5 C 301.1 14.5 301.11 15.36 301.1 15.4 C 301.4 14.9 301.9 14.4 302.7 14.4 C 303.8 14.4 304.5 15.2 304.5 16.3 C 304.48 16.31 304.5 19.2 304.5 19.2 L 303.8 19.2 C 303.8 19.2 303.79 16.48 303.8 16.5 C 303.8 15.6 303.3 15.1 302.5 15.1 C 301.7 15.1 301.1 15.7 301.1 16.5 C 301.11 16.54 301.1 19.2 301.1 19.2 L 300.4 19.2 L 300.4 14.5 Z M 305.5 20 C 306 19.8 306.1 19.6 306.1 19.2 C 306.11 19.2 305.8 19.2 305.8 19.2 L 305.8 18.3 L 306.6 18.3 C 306.6 18.3 306.62 19.06 306.6 19.1 C 306.6 19.8 306.3 20.1 305.6 20.3 C 305.6 20.3 305.5 20 305.5 20 Z M 310.7 12.9 L 315.3 12.9 L 315.3 13.5 L 311.4 13.5 L 311.4 15.7 L 314.9 15.7 L 314.9 16.3 L 311.4 16.3 L 311.4 18.6 L 315.3 18.6 L 315.3 19.2 L 310.7 19.2 L 310.7 12.9 Z M 316.5 14.5 L 317.2 14.5 C 317.2 14.5 317.23 15.76 317.2 15.8 C 317.6 15 318.2 14.4 319.1 14.5 C 319.13 14.47 319.1 15.2 319.1 15.2 C 319.1 15.2 319.07 15.21 319.1 15.2 C 318.1 15.2 317.2 15.9 317.2 17.3 C 317.23 17.35 317.2 19.2 317.2 19.2 L 316.5 19.2 L 316.5 14.5 Z M 320.1 14.5 L 320.8 14.5 C 320.8 14.5 320.78 15.36 320.8 15.4 C 321.1 14.9 321.6 14.4 322.4 14.4 C 323.5 14.4 324.2 15.2 324.2 16.3 C 324.16 16.31 324.2 19.2 324.2 19.2 L 323.5 19.2 C 323.5 19.2 323.46 16.48 323.5 16.5 C 323.5 15.6 323 15.1 322.2 15.1 C 321.4 15.1 320.8 15.7 320.8 16.5 C 320.78 16.54 320.8 19.2 320.8 19.2 L 320.1 19.2 L 320.1 14.5 Z M 325.6 12.8 L 326.4 12.8 L 326.4 13.5 L 325.6 13.5 L 325.6 12.8 Z M 325.6 14.5 L 326.3 14.5 L 326.3 19.2 L 325.6 19.2 L 325.6 14.5 Z M 327.5 16.9 C 327.5 16.9 327.5 16.9 327.5 16.9 C 327.5 15.5 328.5 14.4 329.8 14.4 C 331.1 14.4 331.9 15.5 331.9 16.9 C 331.9 17 331.9 17 331.9 17.1 C 331.9 17.1 328.2 17.1 328.2 17.1 C 328.3 18.1 329 18.7 329.9 18.7 C 330.5 18.7 331 18.4 331.3 18 C 331.3 18 331.8 18.4 331.8 18.4 C 331.3 19 330.7 19.3 329.9 19.3 C 328.6 19.3 327.5 18.3 327.5 16.9 Z M 331.2 16.6 C 331.2 15.8 330.7 15 329.7 15 C 328.9 15 328.3 15.7 328.2 16.6 C 328.2 16.6 331.2 16.6 331.2 16.6 Z M 335.5 16.1 C 335.5 16.1 335.5 16.1 335.5 16.1 C 335.5 14.3 336.8 12.8 338.7 12.8 C 339.7 12.8 340.4 13.1 341 13.6 C 341 13.6 340.6 14.2 340.6 14.2 C 340.1 13.7 339.5 13.4 338.6 13.4 C 337.2 13.4 336.2 14.6 336.2 16 C 336.2 16 336.2 16.1 336.2 16.1 C 336.2 17.6 337.2 18.7 338.7 18.7 C 339.5 18.7 340.1 18.4 340.6 18 C 340.56 18.04 340.6 16.5 340.6 16.5 L 338.6 16.5 L 338.6 15.8 L 341.2 15.8 C 341.2 15.8 341.24 18.35 341.2 18.3 C 340.7 18.9 339.8 19.3 338.7 19.3 C 336.7 19.3 335.5 17.9 335.5 16.1 Z M 342.4 17.8 C 342.4 17.8 342.4 17.8 342.4 17.8 C 342.4 16.9 343.2 16.3 344.4 16.3 C 345 16.3 345.4 16.4 345.8 16.5 C 345.8 16.5 345.8 16.4 345.8 16.4 C 345.8 15.5 345.3 15.1 344.4 15.1 C 343.9 15.1 343.4 15.2 343 15.4 C 343 15.4 342.8 14.9 342.8 14.9 C 343.3 14.6 343.8 14.5 344.5 14.5 C 345.1 14.5 345.6 14.7 346 15 C 346.3 15.3 346.5 15.8 346.5 16.4 C 346.46 16.36 346.5 19.2 346.5 19.2 L 345.8 19.2 C 345.8 19.2 345.79 18.5 345.8 18.5 C 345.5 18.9 344.9 19.3 344.1 19.3 C 343.2 19.3 342.4 18.8 342.4 17.8 Z M 345.8 17.5 C 345.8 17.5 345.8 17 345.8 17 C 345.5 16.9 345 16.8 344.4 16.8 C 343.6 16.8 343.1 17.2 343.1 17.8 C 343.1 17.8 343.1 17.8 343.1 17.8 C 343.1 18.4 343.6 18.8 344.2 18.8 C 345.1 18.8 345.8 18.2 345.8 17.5 Z M 347.3 14.5 L 348 14.5 L 349.2 18.3 L 350.5 14.5 L 351.1 14.5 L 352.3 18.3 L 353.5 14.5 L 354.3 14.5 L 352.6 19.2 L 352 19.2 L 350.8 15.6 L 349.5 19.2 L 348.9 19.2 L 347.3 14.5 Z M 355.3 12.8 L 356.1 12.8 L 356.1 13.5 L 355.3 13.5 L 355.3 12.8 Z M 355.4 14.5 L 356.1 14.5 L 356.1 19.2 L 355.4 19.2 L 355.4 14.5 Z M 357.7 12.6 L 358.4 12.6 L 358.4 19.2 L 357.7 19.2 L 357.7 12.6 Z M 359.5 17.8 C 359.5 17.8 359.5 17.8 359.5 17.8 C 359.5 16.9 360.3 16.3 361.5 16.3 C 362.1 16.3 362.5 16.4 362.9 16.5 C 362.9 16.5 362.9 16.4 362.9 16.4 C 362.9 15.5 362.4 15.1 361.6 15.1 C 361 15.1 360.6 15.2 360.1 15.4 C 360.1 15.4 359.9 14.9 359.9 14.9 C 360.5 14.6 361 14.5 361.6 14.5 C 362.3 14.5 362.8 14.7 363.1 15 C 363.5 15.3 363.6 15.8 363.6 16.4 C 363.61 16.36 363.6 19.2 363.6 19.2 L 362.9 19.2 C 362.9 19.2 362.95 18.5 362.9 18.5 C 362.6 18.9 362.1 19.3 361.3 19.3 C 360.4 19.3 359.5 18.8 359.5 17.8 Z M 363 17.5 C 363 17.5 363 17 363 17 C 362.6 16.9 362.2 16.8 361.6 16.8 C 360.7 16.8 360.2 17.2 360.2 17.8 C 360.2 17.8 360.2 17.8 360.2 17.8 C 360.2 18.4 360.8 18.8 361.4 18.8 C 362.3 18.8 363 18.2 363 17.5 Z M 365 14.5 L 365.7 14.5 C 365.7 14.5 365.69 15.36 365.7 15.4 C 366 14.9 366.5 14.4 367.3 14.4 C 368.4 14.4 369.1 15.2 369.1 16.3 C 369.07 16.31 369.1 19.2 369.1 19.2 L 368.4 19.2 C 368.4 19.2 368.37 16.48 368.4 16.5 C 368.4 15.6 367.9 15.1 367.1 15.1 C 366.3 15.1 365.7 15.7 365.7 16.5 C 365.69 16.54 365.7 19.2 365.7 19.2 L 365 19.2 L 365 14.5 Z M 370.1 20 C 370.5 19.8 370.7 19.6 370.7 19.2 C 370.7 19.2 370.4 19.2 370.4 19.2 L 370.4 18.3 L 371.2 18.3 C 371.2 18.3 371.2 19.06 371.2 19.1 C 371.2 19.8 370.9 20.1 370.2 20.3 C 370.2 20.3 370.1 20 370.1 20 Z M 375 16.1 C 375 16.1 375 16.1 375 16.1 C 375 14.3 376.3 12.8 378.2 12.8 C 379.2 12.8 379.9 13.1 380.5 13.6 C 380.5 13.6 380.1 14.2 380.1 14.2 C 379.6 13.7 379 13.4 378.1 13.4 C 376.8 13.4 375.8 14.6 375.8 16 C 375.8 16 375.8 16.1 375.8 16.1 C 375.8 17.6 376.7 18.7 378.2 18.7 C 379 18.7 379.6 18.4 380.1 18 C 380.07 18.04 380.1 16.5 380.1 16.5 L 378.1 16.5 L 378.1 15.8 L 380.7 15.8 C 380.7 15.8 380.75 18.35 380.7 18.3 C 380.2 18.9 379.3 19.3 378.2 19.3 C 376.2 19.3 375 17.9 375 16.1 Z M 381.9 17.8 C 381.9 17.8 381.9 17.8 381.9 17.8 C 381.9 16.9 382.7 16.3 383.9 16.3 C 384.5 16.3 384.9 16.4 385.3 16.5 C 385.3 16.5 385.3 16.4 385.3 16.4 C 385.3 15.5 384.8 15.1 383.9 15.1 C 383.4 15.1 382.9 15.2 382.5 15.4 C 382.5 15.4 382.3 14.9 382.3 14.9 C 382.8 14.6 383.3 14.5 384 14.5 C 384.6 14.5 385.1 14.7 385.5 15 C 385.8 15.3 386 15.8 386 16.4 C 385.97 16.36 386 19.2 386 19.2 L 385.3 19.2 C 385.3 19.2 385.3 18.5 385.3 18.5 C 385 18.9 384.4 19.3 383.6 19.3 C 382.8 19.3 381.9 18.8 381.9 17.8 Z M 385.3 17.5 C 385.3 17.5 385.3 17 385.3 17 C 385 16.9 384.5 16.8 383.9 16.8 C 383.1 16.8 382.6 17.2 382.6 17.8 C 382.6 17.8 382.6 17.8 382.6 17.8 C 382.6 18.4 383.1 18.8 383.8 18.8 C 384.6 18.8 385.3 18.2 385.3 17.5 Z M 387.4 14.5 L 388 14.5 C 388 14.5 388.05 15.76 388 15.8 C 388.4 15 389.1 14.4 389.9 14.5 C 389.95 14.47 389.9 15.2 389.9 15.2 C 389.9 15.2 389.89 15.21 389.9 15.2 C 388.9 15.2 388 15.9 388 17.3 C 388.05 17.35 388 19.2 388 19.2 L 387.4 19.2 L 387.4 14.5 Z M 394.4 14.5 L 395.1 14.5 C 395.1 14.5 393.18 19.35 393.2 19.4 C 392.8 20.3 392.3 20.7 391.6 20.7 C 391.2 20.7 391 20.6 390.6 20.4 C 390.6 20.4 390.9 19.9 390.9 19.9 C 391.1 20 391.3 20.1 391.6 20.1 C 392 20.1 392.3 19.8 392.6 19.2 C 392.56 19.18 390.4 14.5 390.4 14.5 L 391.2 14.5 L 392.9 18.4 L 394.4 14.5 Z M 398.9 12.9 C 398.9 12.9 401.55 12.9 401.5 12.9 C 402.3 12.9 402.8 13.1 403.2 13.5 C 403.5 13.7 403.6 14.1 403.6 14.5 C 403.6 14.5 403.6 14.5 403.6 14.5 C 403.6 15.3 403.1 15.7 402.6 15.9 C 403.3 16.2 403.9 16.6 403.9 17.5 C 403.9 17.5 403.9 17.5 403.9 17.5 C 403.9 18.6 403 19.2 401.7 19.2 C 401.66 19.2 398.9 19.2 398.9 19.2 L 398.9 12.9 Z M 402.9 14.6 C 402.9 13.9 402.4 13.5 401.5 13.5 C 401.48 13.54 399.6 13.5 399.6 13.5 L 399.6 15.7 C 399.6 15.7 401.43 15.71 401.4 15.7 C 402.3 15.7 402.9 15.3 402.9 14.6 C 402.9 14.6 402.9 14.6 402.9 14.6 Z M 401.6 16.3 C 401.56 16.34 399.6 16.3 399.6 16.3 L 399.6 18.6 C 399.6 18.6 401.68 18.56 401.7 18.6 C 402.6 18.6 403.2 18.1 403.2 17.4 C 403.2 17.4 403.2 17.4 403.2 17.4 C 403.2 16.7 402.7 16.3 401.6 16.3 Z M 404.9 16.9 C 404.9 16.9 404.9 16.9 404.9 16.9 C 404.9 15.5 405.8 14.4 407.1 14.4 C 408.5 14.4 409.3 15.5 409.3 16.9 C 409.3 17 409.3 17 409.3 17.1 C 409.3 17.1 405.6 17.1 405.6 17.1 C 405.7 18.1 406.4 18.7 407.2 18.7 C 407.8 18.7 408.3 18.4 408.7 18 C 408.7 18 409.1 18.4 409.1 18.4 C 408.6 19 408.1 19.3 407.2 19.3 C 405.9 19.3 404.9 18.3 404.9 16.9 Z M 408.6 16.6 C 408.5 15.8 408 15 407.1 15 C 406.3 15 405.7 15.7 405.6 16.6 C 405.6 16.6 408.6 16.6 408.6 16.6 Z M 410.4 12.8 L 411.2 12.8 L 411.2 13.5 L 410.4 13.5 L 410.4 12.8 Z M 409.6 20.6 C 409.6 20.6 409.6 20.1 409.6 20.1 C 409.7 20.1 409.8 20.1 409.9 20.1 C 410.2 20.1 410.5 19.9 410.5 19.5 C 410.46 19.46 410.5 14.5 410.5 14.5 L 411.1 14.5 C 411.1 14.5 411.15 19.47 411.1 19.5 C 411.1 20.3 410.7 20.7 410 20.7 C 409.9 20.7 409.7 20.7 409.6 20.6 Z M 412.7 12.8 L 413.5 12.8 L 413.5 13.5 L 412.7 13.5 L 412.7 12.8 Z M 412.7 14.5 L 413.4 14.5 L 413.4 19.2 L 412.7 19.2 L 412.7 14.5 Z M 414.9 14.5 L 415.6 14.5 C 415.6 14.5 415.64 15.36 415.6 15.4 C 415.9 14.9 416.4 14.4 417.2 14.4 C 418.4 14.4 419 15.2 419 16.3 C 419.02 16.31 419 19.2 419 19.2 L 418.3 19.2 C 418.3 19.2 418.32 16.48 418.3 16.5 C 418.3 15.6 417.9 15.1 417 15.1 C 416.2 15.1 415.6 15.7 415.6 16.5 C 415.64 16.54 415.6 19.2 415.6 19.2 L 414.9 19.2 L 414.9 14.5 Z M 420.1 16.9 C 420.1 16.9 420.1 16.9 420.1 16.9 C 420.1 15.6 421.1 14.4 422.5 14.4 C 423.9 14.4 425 15.5 425 16.9 C 425 16.9 425 16.9 425 16.9 C 425 18.2 423.9 19.3 422.5 19.3 C 421.1 19.3 420.1 18.2 420.1 16.9 Z M 424.3 16.9 C 424.3 16.9 424.3 16.9 424.3 16.9 C 424.3 15.9 423.5 15.1 422.5 15.1 C 421.5 15.1 420.8 15.9 420.8 16.9 C 420.8 16.9 420.8 16.9 420.8 16.9 C 420.8 17.9 421.6 18.7 422.5 18.7 C 423.6 18.7 424.3 17.9 424.3 16.9 Z M 425.6 20 C 426 19.8 426.2 19.6 426.2 19.2 C 426.19 19.2 425.9 19.2 425.9 19.2 L 425.9 18.3 L 426.7 18.3 C 426.7 18.3 426.69 19.06 426.7 19.1 C 426.7 19.8 426.4 20.1 425.7 20.3 C 425.7 20.3 425.6 20 425.6 20 Z M 430.3 17.8 C 430.3 17.8 430.3 17.8 430.3 17.8 C 430.3 16.9 431.1 16.3 432.3 16.3 C 432.9 16.3 433.3 16.4 433.7 16.5 C 433.7 16.5 433.7 16.4 433.7 16.4 C 433.7 15.5 433.2 15.1 432.4 15.1 C 431.8 15.1 431.4 15.2 430.9 15.4 C 430.9 15.4 430.7 14.9 430.7 14.9 C 431.2 14.6 431.8 14.5 432.4 14.5 C 433.1 14.5 433.6 14.7 433.9 15 C 434.2 15.3 434.4 15.8 434.4 16.4 C 434.4 16.36 434.4 19.2 434.4 19.2 L 433.7 19.2 C 433.7 19.2 433.74 18.5 433.7 18.5 C 433.4 18.9 432.9 19.3 432.1 19.3 C 431.2 19.3 430.3 18.8 430.3 17.8 Z M 433.7 17.5 C 433.7 17.5 433.7 17 433.7 17 C 433.4 16.9 432.9 16.8 432.4 16.8 C 431.5 16.8 431 17.2 431 17.8 C 431 17.8 431 17.8 431 17.8 C 431 18.4 431.6 18.8 432.2 18.8 C 433 18.8 433.7 18.2 433.7 17.5 Z M 436 18 C 435.99 17.97 436 15.2 436 15.2 L 435.3 15.2 L 435.3 14.5 L 436 14.5 L 436 13.1 L 436.7 13.1 L 436.7 14.5 L 438.2 14.5 L 438.2 15.2 L 436.7 15.2 C 436.7 15.2 436.68 17.88 436.7 17.9 C 436.7 18.4 437 18.7 437.5 18.7 C 437.7 18.7 437.9 18.6 438.1 18.5 C 438.1 18.5 438.1 19.1 438.1 19.1 C 437.9 19.2 437.6 19.3 437.3 19.3 C 436.6 19.3 436 18.9 436 18 Z M 444.4 12.9 L 445 12.9 L 447.9 19.2 L 447.1 19.2 L 446.4 17.5 L 443 17.5 L 442.2 19.2 L 441.5 19.2 L 444.4 12.9 Z M 446.1 16.9 L 444.7 13.7 L 443.2 16.9 L 446.1 16.9 Z M 449 12.6 L 449.7 12.6 L 449.7 19.2 L 449 19.2 L 449 12.6 Z M 451.3 12.6 L 452 12.6 L 452 19.2 L 451.3 19.2 L 451.3 12.6 Z M 453.1 17.8 C 453.1 17.8 453.1 17.8 453.1 17.8 C 453.1 16.9 453.9 16.3 455.1 16.3 C 455.7 16.3 456.1 16.4 456.5 16.5 C 456.5 16.5 456.5 16.4 456.5 16.4 C 456.5 15.5 456 15.1 455.2 15.1 C 454.6 15.1 454.2 15.2 453.7 15.4 C 453.7 15.4 453.5 14.9 453.5 14.9 C 454.1 14.6 454.6 14.5 455.2 14.5 C 455.9 14.5 456.4 14.7 456.7 15 C 457 15.3 457.2 15.8 457.2 16.4 C 457.21 16.36 457.2 19.2 457.2 19.2 L 456.5 19.2 C 456.5 19.2 456.55 18.5 456.5 18.5 C 456.2 18.9 455.7 19.3 454.9 19.3 C 454 19.3 453.1 18.8 453.1 17.8 Z M 456.6 17.5 C 456.6 17.5 456.6 17 456.6 17 C 456.2 16.9 455.8 16.8 455.2 16.8 C 454.3 16.8 453.8 17.2 453.8 17.8 C 453.8 17.8 453.8 17.8 453.8 17.8 C 453.8 18.4 454.4 18.8 455 18.8 C 455.9 18.8 456.6 18.2 456.6 17.5 Z M 458.6 12.8 L 459.4 12.8 L 459.4 13.5 L 458.6 13.5 L 458.6 12.8 Z M 458.7 14.5 L 459.4 14.5 L 459.4 19.2 L 458.7 19.2 L 458.7 14.5 Z M 460.9 14.5 L 461.6 14.5 C 461.6 14.5 461.57 15.36 461.6 15.4 C 461.9 14.9 462.4 14.4 463.2 14.4 C 464.3 14.4 464.9 15.2 464.9 16.3 C 464.94 16.31 464.9 19.2 464.9 19.2 L 464.2 19.2 C 464.2 19.2 464.25 16.48 464.2 16.5 C 464.2 15.6 463.8 15.1 463 15.1 C 462.2 15.1 461.6 15.7 461.6 16.5 C 461.57 16.54 461.6 19.2 461.6 19.2 L 460.9 19.2 L 460.9 14.5 Z M 468.8 16.1 C 468.8 16.1 468.8 16.1 468.8 16.1 C 468.8 14.3 470 12.8 471.9 12.8 C 473 12.8 473.7 13.1 474.3 13.6 C 474.3 13.6 473.8 14.2 473.8 14.2 C 473.3 13.7 472.8 13.4 471.9 13.4 C 470.5 13.4 469.5 14.6 469.5 16 C 469.5 16 469.5 16.1 469.5 16.1 C 469.5 17.6 470.5 18.7 472 18.7 C 472.7 18.7 473.4 18.4 473.8 18 C 473.83 18.04 473.8 16.5 473.8 16.5 L 471.9 16.5 L 471.9 15.8 L 474.5 15.8 C 474.5 15.8 474.51 18.35 474.5 18.3 C 473.9 18.9 473 19.3 472 19.3 C 470 19.3 468.8 17.9 468.8 16.1 Z M 475.6 17.8 C 475.6 17.8 475.6 17.8 475.6 17.8 C 475.6 16.9 476.5 16.3 477.6 16.3 C 478.2 16.3 478.6 16.4 479.1 16.5 C 479.1 16.5 479.1 16.4 479.1 16.4 C 479.1 15.5 478.6 15.1 477.7 15.1 C 477.1 15.1 476.7 15.2 476.3 15.4 C 476.3 15.4 476.1 14.9 476.1 14.9 C 476.6 14.6 477.1 14.5 477.7 14.5 C 478.4 14.5 478.9 14.7 479.3 15 C 479.6 15.3 479.7 15.8 479.7 16.4 C 479.73 16.36 479.7 19.2 479.7 19.2 L 479.1 19.2 C 479.1 19.2 479.06 18.5 479.1 18.5 C 478.7 18.9 478.2 19.3 477.4 19.3 C 476.5 19.3 475.6 18.8 475.6 17.8 Z M 479.1 17.5 C 479.1 17.5 479.1 17 479.1 17 C 478.7 16.9 478.3 16.8 477.7 16.8 C 476.8 16.8 476.3 17.2 476.3 17.8 C 476.3 17.8 476.3 17.8 476.3 17.8 C 476.3 18.4 476.9 18.8 477.5 18.8 C 478.4 18.8 479.1 18.2 479.1 17.5 Z M 481.1 14.5 L 481.8 14.5 C 481.8 14.5 481.81 15.36 481.8 15.4 C 482.1 14.9 482.6 14.4 483.4 14.4 C 484.5 14.4 485.2 15.2 485.2 16.3 C 485.18 16.31 485.2 19.2 485.2 19.2 L 484.5 19.2 C 484.5 19.2 484.49 16.48 484.5 16.5 C 484.5 15.6 484 15.1 483.2 15.1 C 482.4 15.1 481.8 15.7 481.8 16.5 C 481.81 16.54 481.8 19.2 481.8 19.2 L 481.1 19.2 L 481.1 14.5 Z M 486.2 17.8 C 486.2 17.8 486.2 17.8 486.2 17.8 C 486.2 16.9 487 16.3 488.2 16.3 C 488.8 16.3 489.2 16.4 489.6 16.5 C 489.6 16.5 489.6 16.4 489.6 16.4 C 489.6 15.5 489.1 15.1 488.3 15.1 C 487.7 15.1 487.3 15.2 486.8 15.4 C 486.8 15.4 486.6 14.9 486.6 14.9 C 487.1 14.6 487.6 14.5 488.3 14.5 C 489 14.5 489.5 14.7 489.8 15 C 490.1 15.3 490.3 15.8 490.3 16.4 C 490.3 16.36 490.3 19.2 490.3 19.2 L 489.6 19.2 C 489.6 19.2 489.64 18.5 489.6 18.5 C 489.3 18.9 488.8 19.3 488 19.3 C 487.1 19.3 486.2 18.8 486.2 17.8 Z M 489.6 17.5 C 489.6 17.5 489.6 17 489.6 17 C 489.3 16.9 488.8 16.8 488.3 16.8 C 487.4 16.8 486.9 17.2 486.9 17.8 C 486.9 17.8 486.9 17.8 486.9 17.8 C 486.9 18.4 487.5 18.8 488.1 18.8 C 488.9 18.8 489.6 18.2 489.6 17.5 Z M 491.7 14.5 L 492.4 14.5 C 492.4 14.5 492.38 15.48 492.4 15.5 C 492.8 14.9 493.3 14.4 494.2 14.4 C 495.3 14.4 496.4 15.3 496.4 16.9 C 496.4 16.9 496.4 16.9 496.4 16.9 C 496.4 18.4 495.3 19.3 494.2 19.3 C 493.3 19.3 492.7 18.8 492.4 18.3 C 492.38 18.31 492.4 20.6 492.4 20.6 L 491.7 20.6 L 491.7 14.5 Z M 495.7 16.9 C 495.7 16.9 495.7 16.9 495.7 16.9 C 495.7 15.8 494.9 15.1 494 15.1 C 493.2 15.1 492.4 15.8 492.4 16.9 C 492.4 16.9 492.4 16.9 492.4 16.9 C 492.4 18 493.2 18.7 494 18.7 C 494.9 18.7 495.7 18 495.7 16.9 Z M 497.6 12.8 L 498.4 12.8 L 498.4 13.5 L 497.6 13.5 L 497.6 12.8 Z M 497.6 14.5 L 498.3 14.5 L 498.3 19.2 L 497.6 19.2 L 497.6 14.5 Z M 499.9 14.5 L 500.5 14.5 C 500.5 14.5 500.54 15.36 500.5 15.4 C 500.9 14.9 501.3 14.4 502.1 14.4 C 503.3 14.4 503.9 15.2 503.9 16.3 C 503.92 16.31 503.9 19.2 503.9 19.2 L 503.2 19.2 C 503.2 19.2 503.23 16.48 503.2 16.5 C 503.2 15.6 502.8 15.1 501.9 15.1 C 501.1 15.1 500.5 15.7 500.5 16.5 C 500.54 16.54 500.5 19.2 500.5 19.2 L 499.9 19.2 L 499.9 14.5 Z M 505.2 18.3 L 506.1 18.3 L 506.1 19.2 L 505.2 19.2 L 505.2 18.3 Z " stroke="none" fill="#fff"/>
  </g>
  <g id="Polygon39068">
    <path d="M 2.6 1.6 L 0.4 1.6 L 0.4 0.9 L 5.4 0.9 L 5.4 1.6 L 3.3 1.6 L 3.3 7.2 L 2.6 7.2 L 2.6 1.6 Z M 6.5 4.6 C 6.53 4.56 6.5 0.9 6.5 0.9 L 7.2 0.9 C 7.2 0.9 7.24 4.52 7.2 4.5 C 7.2 5.9 8 6.6 9.2 6.6 C 10.3 6.6 11.1 5.9 11.1 4.6 C 11.07 4.56 11.1 0.9 11.1 0.9 L 11.8 0.9 C 11.8 0.9 11.78 4.51 11.8 4.5 C 11.8 6.3 10.7 7.3 9.2 7.3 C 7.6 7.3 6.5 6.3 6.5 4.6 Z M 13.4 0.9 L 14 0.9 L 18 5.9 L 18 0.9 L 18.7 0.9 L 18.7 7.2 L 18.1 7.2 L 14.1 2 L 14.1 7.2 L 13.4 7.2 L 13.4 0.9 Z M 20.1 4.1 C 20.1 4.1 20.1 4.1 20.1 4.1 C 20.1 2.3 21.4 0.8 23.3 0.8 C 24.3 0.8 25 1.1 25.6 1.6 C 25.6 1.6 25.2 2.2 25.2 2.2 C 24.7 1.7 24.1 1.4 23.2 1.4 C 21.9 1.4 20.9 2.6 20.9 4 C 20.9 4 20.9 4.1 20.9 4.1 C 20.9 5.6 21.8 6.7 23.3 6.7 C 24.1 6.7 24.7 6.4 25.2 6 C 25.16 6.04 25.2 4.5 25.2 4.5 L 23.2 4.5 L 23.2 3.8 L 25.8 3.8 C 25.8 3.8 25.85 6.35 25.8 6.3 C 25.3 6.9 24.4 7.3 23.3 7.3 C 21.3 7.3 20.1 5.9 20.1 4.1 Z M 27.4 0.9 L 28.1 0.9 L 28.1 3.7 L 31.7 3.7 L 31.7 0.9 L 32.4 0.9 L 32.4 7.2 L 31.7 7.2 L 31.7 4.4 L 28.1 4.4 L 28.1 7.2 L 27.4 7.2 L 27.4 0.9 Z M 36.4 0.9 L 37.1 0.9 L 40 7.2 L 39.2 7.2 L 38.5 5.5 L 35 5.5 L 34.3 7.2 L 33.6 7.2 L 36.4 0.9 Z M 38.2 4.9 L 36.8 1.7 L 35.3 4.9 L 38.2 4.9 Z M 42.1 4.7 L 39.5 0.9 L 40.4 0.9 L 42.5 4 L 44.6 0.9 L 45.4 0.9 L 42.8 4.7 L 42.8 7.2 L 42.1 7.2 L 42.1 4.7 Z M 47.8 0.9 L 48.5 0.9 L 51.4 7.2 L 50.6 7.2 L 49.9 5.5 L 46.4 5.5 L 45.7 7.2 L 45 7.2 L 47.8 0.9 Z M 49.6 4.9 L 48.2 1.7 L 46.7 4.9 L 49.6 4.9 Z M 52.5 0.9 L 53.2 0.9 L 57.2 5.9 L 57.2 0.9 L 57.9 0.9 L 57.9 7.2 L 57.3 7.2 L 53.2 2 L 53.2 7.2 L 52.5 7.2 L 52.5 0.9 Z M 61.2 5.8 C 61.2 5.8 61.2 5.8 61.2 5.8 C 61.2 4.9 62 4.3 63.2 4.3 C 63.8 4.3 64.2 4.4 64.6 4.5 C 64.6 4.5 64.6 4.4 64.6 4.4 C 64.6 3.5 64.1 3.1 63.2 3.1 C 62.7 3.1 62.3 3.2 61.8 3.4 C 61.8 3.4 61.6 2.9 61.6 2.9 C 62.1 2.6 62.6 2.5 63.3 2.5 C 64 2.5 64.5 2.7 64.8 3 C 65.1 3.3 65.3 3.8 65.3 4.4 C 65.3 4.36 65.3 7.2 65.3 7.2 L 64.6 7.2 C 64.6 7.2 64.64 6.5 64.6 6.5 C 64.3 6.9 63.8 7.3 63 7.3 C 62.1 7.3 61.2 6.8 61.2 5.8 Z M 64.6 5.5 C 64.6 5.5 64.6 5 64.6 5 C 64.3 4.9 63.8 4.8 63.3 4.8 C 62.4 4.8 61.9 5.2 61.9 5.8 C 61.9 5.8 61.9 5.8 61.9 5.8 C 61.9 6.4 62.5 6.8 63.1 6.8 C 63.9 6.8 64.6 6.2 64.6 5.5 Z M 66.7 2.5 L 67.4 2.5 C 67.4 2.5 67.38 3.36 67.4 3.4 C 67.7 2.9 68.2 2.4 69 2.4 C 70.1 2.4 70.8 3.2 70.8 4.3 C 70.75 4.31 70.8 7.2 70.8 7.2 L 70.1 7.2 C 70.1 7.2 70.06 4.48 70.1 4.5 C 70.1 3.6 69.6 3.1 68.8 3.1 C 68 3.1 67.4 3.7 67.4 4.5 C 67.38 4.54 67.4 7.2 67.4 7.2 L 66.7 7.2 L 66.7 2.5 Z M 72.1 8 C 72.1 8 72.4 7.5 72.4 7.5 C 72.9 7.9 73.5 8.1 74.2 8.1 C 75.2 8.1 75.9 7.5 75.9 6.4 C 75.9 6.4 75.9 5.9 75.9 5.9 C 75.5 6.4 74.9 6.8 74.1 6.8 C 72.9 6.8 71.9 6 71.9 4.7 C 71.9 4.7 71.9 4.6 71.9 4.6 C 71.9 3.3 73 2.4 74.1 2.4 C 74.9 2.4 75.5 2.9 75.9 3.4 C 75.88 3.38 75.9 2.5 75.9 2.5 L 76.6 2.5 C 76.6 2.5 76.57 6.39 76.6 6.4 C 76.6 7.1 76.4 7.7 76 8 C 75.6 8.5 74.9 8.7 74.2 8.7 C 73.4 8.7 72.7 8.4 72.1 8 Z M 75.9 4.7 C 75.9 4.7 75.9 4.6 75.9 4.6 C 75.9 3.7 75.1 3.1 74.2 3.1 C 73.3 3.1 72.6 3.7 72.6 4.6 C 72.6 4.6 72.6 4.6 72.6 4.6 C 72.6 5.6 73.3 6.2 74.2 6.2 C 75.1 6.2 75.9 5.6 75.9 4.7 Z M 81 1.6 L 79.8 2 L 79.6 1.4 L 81.2 0.9 L 81.7 0.9 L 81.7 7.2 L 81 7.2 L 81 1.6 Z M 86.6 1.5 L 83.1 1.5 L 83.1 0.9 L 87.4 0.9 L 87.4 1.4 L 84.5 7.2 L 83.8 7.2 L 86.6 1.5 Z M 90.4 5.8 C 90.4 5.8 90.4 5.8 90.4 5.8 C 90.4 4.9 91.2 4.3 92.3 4.3 C 92.9 4.3 93.4 4.4 93.8 4.5 C 93.8 4.5 93.8 4.4 93.8 4.4 C 93.8 3.5 93.3 3.1 92.4 3.1 C 91.8 3.1 91.4 3.2 91 3.4 C 91 3.4 90.8 2.9 90.8 2.9 C 91.3 2.6 91.8 2.5 92.5 2.5 C 93.1 2.5 93.6 2.7 94 3 C 94.3 3.3 94.4 3.8 94.4 4.4 C 94.45 4.36 94.4 7.2 94.4 7.2 L 93.8 7.2 C 93.8 7.2 93.78 6.5 93.8 6.5 C 93.5 6.9 92.9 7.3 92.1 7.3 C 91.2 7.3 90.4 6.8 90.4 5.8 Z M 93.8 5.5 C 93.8 5.5 93.8 5 93.8 5 C 93.4 4.9 93 4.8 92.4 4.8 C 91.5 4.8 91.1 5.2 91.1 5.8 C 91.1 5.8 91.1 5.8 91.1 5.8 C 91.1 6.4 91.6 6.8 92.2 6.8 C 93.1 6.8 93.8 6.2 93.8 5.5 Z M 96 6 C 96.03 5.97 96 3.2 96 3.2 L 95.4 3.2 L 95.4 2.5 L 96 2.5 L 96 1.1 L 96.7 1.1 L 96.7 2.5 L 98.2 2.5 L 98.2 3.2 L 96.7 3.2 C 96.7 3.2 96.72 5.88 96.7 5.9 C 96.7 6.4 97 6.7 97.5 6.7 C 97.7 6.7 97.9 6.6 98.2 6.5 C 98.2 6.5 98.2 7.1 98.2 7.1 C 97.9 7.2 97.7 7.3 97.3 7.3 C 96.6 7.3 96 6.9 96 6 Z M 99.4 0.6 L 100.1 0.6 L 100.1 7.2 L 99.4 7.2 L 99.4 0.6 Z M 101.3 4.9 C 101.3 4.9 101.3 4.9 101.3 4.9 C 101.3 3.5 102.3 2.4 103.6 2.4 C 104.9 2.4 105.7 3.5 105.7 4.9 C 105.7 5 105.7 5 105.7 5.1 C 105.7 5.1 102 5.1 102 5.1 C 102.1 6.1 102.8 6.7 103.7 6.7 C 104.3 6.7 104.8 6.4 105.1 6 C 105.1 6 105.6 6.4 105.6 6.4 C 105.1 7 104.5 7.3 103.6 7.3 C 102.4 7.3 101.3 6.3 101.3 4.9 Z M 105 4.6 C 104.9 3.8 104.5 3 103.5 3 C 102.7 3 102.1 3.7 102 4.6 C 102 4.6 105 4.6 105 4.6 Z M 107.1 6 C 107.09 5.97 107.1 3.2 107.1 3.2 L 106.4 3.2 L 106.4 2.5 L 107.1 2.5 L 107.1 1.1 L 107.8 1.1 L 107.8 2.5 L 109.3 2.5 L 109.3 3.2 L 107.8 3.2 C 107.8 3.2 107.78 5.88 107.8 5.9 C 107.8 6.4 108.1 6.7 108.6 6.7 C 108.8 6.7 109 6.6 109.2 6.5 C 109.2 6.5 109.2 7.1 109.2 7.1 C 109 7.2 108.7 7.3 108.4 7.3 C 107.7 7.3 107.1 6.9 107.1 6 Z M 110 5.8 C 110 5.8 110 5.8 110 5.8 C 110 4.9 110.9 4.3 112 4.3 C 112.6 4.3 113 4.4 113.5 4.5 C 113.5 4.5 113.5 4.4 113.5 4.4 C 113.5 3.5 112.9 3.1 112.1 3.1 C 111.5 3.1 111.1 3.2 110.7 3.4 C 110.7 3.4 110.5 2.9 110.5 2.9 C 111 2.6 111.5 2.5 112.1 2.5 C 112.8 2.5 113.3 2.7 113.7 3 C 114 3.3 114.1 3.8 114.1 4.4 C 114.13 4.36 114.1 7.2 114.1 7.2 L 113.5 7.2 C 113.5 7.2 113.46 6.5 113.5 6.5 C 113.1 6.9 112.6 7.3 111.8 7.3 C 110.9 7.3 110 6.8 110 5.8 Z M 113.5 5.5 C 113.5 5.5 113.5 5 113.5 5 C 113.1 4.9 112.7 4.8 112.1 4.8 C 111.2 4.8 110.7 5.2 110.7 5.8 C 110.7 5.8 110.7 5.8 110.7 5.8 C 110.7 6.4 111.3 6.8 111.9 6.8 C 112.8 6.8 113.5 6.2 113.5 5.5 Z M 115.5 2.5 L 116.2 2.5 C 116.2 2.5 116.21 3.36 116.2 3.4 C 116.5 2.9 117 2.4 117.8 2.4 C 118.9 2.4 119.6 3.2 119.6 4.3 C 119.58 4.31 119.6 7.2 119.6 7.2 L 118.9 7.2 C 118.9 7.2 118.89 4.48 118.9 4.5 C 118.9 3.6 118.4 3.1 117.6 3.1 C 116.8 3.1 116.2 3.7 116.2 4.5 C 116.21 4.54 116.2 7.2 116.2 7.2 L 115.5 7.2 L 115.5 2.5 Z M 120.9 8 C 120.9 8 121.2 7.5 121.2 7.5 C 121.8 7.9 122.4 8.1 123 8.1 C 124 8.1 124.7 7.5 124.7 6.4 C 124.7 6.4 124.7 5.9 124.7 5.9 C 124.3 6.4 123.7 6.8 122.9 6.8 C 121.8 6.8 120.7 6 120.7 4.7 C 120.7 4.7 120.7 4.6 120.7 4.6 C 120.7 3.3 121.8 2.4 122.9 2.4 C 123.8 2.4 124.3 2.9 124.7 3.4 C 124.7 3.38 124.7 2.5 124.7 2.5 L 125.4 2.5 C 125.4 2.5 125.4 6.39 125.4 6.4 C 125.4 7.1 125.2 7.7 124.8 8 C 124.4 8.5 123.8 8.7 123 8.7 C 122.3 8.7 121.5 8.4 120.9 8 Z M 124.7 4.7 C 124.7 4.7 124.7 4.6 124.7 4.6 C 124.7 3.7 123.9 3.1 123 3.1 C 122.1 3.1 121.4 3.7 121.4 4.6 C 121.4 4.6 121.4 4.6 121.4 4.6 C 121.4 5.6 122.2 6.2 123 6.2 C 123.9 6.2 124.7 5.6 124.7 4.7 Z M 129.1 0.9 C 129.1 0.9 131.47 0.9 131.5 0.9 C 132.9 0.9 133.8 1.7 133.8 2.9 C 133.8 2.9 133.8 2.9 133.8 2.9 C 133.8 4.3 132.7 5 131.4 5 C 131.35 4.98 129.8 5 129.8 5 L 129.8 7.2 L 129.1 7.2 L 129.1 0.9 Z M 131.4 4.3 C 132.4 4.3 133.1 3.8 133.1 2.9 C 133.1 2.9 133.1 2.9 133.1 2.9 C 133.1 2 132.4 1.6 131.4 1.6 C 131.41 1.56 129.8 1.6 129.8 1.6 L 129.8 4.3 C 129.8 4.3 131.38 4.33 131.4 4.3 Z M 134.9 0.8 L 135.7 0.8 L 135.7 1.5 L 134.9 1.5 L 134.9 0.8 Z M 135 2.5 L 135.7 2.5 L 135.7 7.2 L 135 7.2 L 135 2.5 Z M 137.3 0.6 L 137.9 0.6 L 137.9 7.2 L 137.3 7.2 L 137.3 0.6 Z M 139.5 0.8 L 140.3 0.8 L 140.3 1.5 L 139.5 1.5 L 139.5 0.8 Z M 139.5 2.5 L 140.2 2.5 L 140.2 7.2 L 139.5 7.2 L 139.5 2.5 Z M 141.7 2.5 L 142.4 2.5 C 142.4 2.5 142.44 3.48 142.4 3.5 C 142.8 2.9 143.4 2.4 144.2 2.4 C 145.3 2.4 146.4 3.3 146.4 4.9 C 146.4 4.9 146.4 4.9 146.4 4.9 C 146.4 6.4 145.3 7.3 144.2 7.3 C 143.4 7.3 142.8 6.8 142.4 6.3 C 142.44 6.31 142.4 8.6 142.4 8.6 L 141.7 8.6 L 141.7 2.5 Z M 145.7 4.9 C 145.7 4.9 145.7 4.9 145.7 4.9 C 145.7 3.8 145 3.1 144.1 3.1 C 143.2 3.1 142.4 3.8 142.4 4.9 C 142.4 4.9 142.4 4.9 142.4 4.9 C 142.4 6 143.2 6.7 144.1 6.7 C 145 6.7 145.7 6 145.7 4.9 Z M 147.7 0.8 L 148.4 0.8 L 148.4 1.5 L 147.7 1.5 L 147.7 0.8 Z M 147.7 2.5 L 148.4 2.5 L 148.4 7.2 L 147.7 7.2 L 147.7 2.5 Z M 149.9 2.5 L 150.6 2.5 C 150.6 2.5 150.6 3.36 150.6 3.4 C 150.9 2.9 151.4 2.4 152.2 2.4 C 153.3 2.4 154 3.2 154 4.3 C 153.98 4.31 154 7.2 154 7.2 L 153.3 7.2 C 153.3 7.2 153.28 4.48 153.3 4.5 C 153.3 3.6 152.8 3.1 152 3.1 C 151.2 3.1 150.6 3.7 150.6 4.5 C 150.6 4.54 150.6 7.2 150.6 7.2 L 149.9 7.2 L 149.9 2.5 Z M 155.1 4.9 C 155.1 4.9 155.1 4.9 155.1 4.9 C 155.1 3.6 156.1 2.4 157.5 2.4 C 158.9 2.4 159.9 3.5 159.9 4.9 C 159.9 4.9 159.9 4.9 159.9 4.9 C 159.9 6.2 158.9 7.3 157.5 7.3 C 156.1 7.3 155.1 6.2 155.1 4.9 Z M 159.2 4.9 C 159.2 4.9 159.2 4.9 159.2 4.9 C 159.2 3.9 158.5 3.1 157.5 3.1 C 156.5 3.1 155.8 3.9 155.8 4.9 C 155.8 4.9 155.8 4.9 155.8 4.9 C 155.8 5.9 156.5 6.7 157.5 6.7 C 158.5 6.7 159.2 5.9 159.2 4.9 Z M 163.2 2.5 L 163.9 2.5 C 163.9 2.5 163.92 3.36 163.9 3.4 C 164.2 2.9 164.7 2.4 165.5 2.4 C 166.6 2.4 167.3 3.2 167.3 4.3 C 167.29 4.31 167.3 7.2 167.3 7.2 L 166.6 7.2 C 166.6 7.2 166.6 4.48 166.6 4.5 C 166.6 3.6 166.1 3.1 165.3 3.1 C 164.5 3.1 163.9 3.7 163.9 4.5 C 163.92 4.54 163.9 7.2 163.9 7.2 L 163.2 7.2 L 163.2 2.5 Z M 168.3 5.8 C 168.3 5.8 168.3 5.8 168.3 5.8 C 168.3 4.9 169.1 4.3 170.3 4.3 C 170.9 4.3 171.3 4.4 171.7 4.5 C 171.7 4.5 171.7 4.4 171.7 4.4 C 171.7 3.5 171.2 3.1 170.4 3.1 C 169.8 3.1 169.4 3.2 168.9 3.4 C 168.9 3.4 168.7 2.9 168.7 2.9 C 169.3 2.6 169.8 2.5 170.4 2.5 C 171.1 2.5 171.6 2.7 171.9 3 C 172.3 3.3 172.4 3.8 172.4 4.4 C 172.41 4.36 172.4 7.2 172.4 7.2 L 171.7 7.2 C 171.7 7.2 171.75 6.5 171.7 6.5 C 171.4 6.9 170.9 7.3 170.1 7.3 C 169.2 7.3 168.3 6.8 168.3 5.8 Z M 171.8 5.5 C 171.8 5.5 171.8 5 171.8 5 C 171.4 4.9 171 4.8 170.4 4.8 C 169.5 4.8 169 5.2 169 5.8 C 169 5.8 169 5.8 169 5.8 C 169 6.4 169.6 6.8 170.2 6.8 C 171.1 6.8 171.8 6.2 171.8 5.5 Z M 176 0.6 L 176.7 0.6 L 176.7 7.2 L 176 7.2 L 176 0.6 Z M 177.9 5.8 C 177.9 5.8 177.9 5.8 177.9 5.8 C 177.9 4.9 178.7 4.3 179.9 4.3 C 180.4 4.3 180.9 4.4 181.3 4.5 C 181.3 4.5 181.3 4.4 181.3 4.4 C 181.3 3.5 180.8 3.1 179.9 3.1 C 179.4 3.1 178.9 3.2 178.5 3.4 C 178.5 3.4 178.3 2.9 178.3 2.9 C 178.8 2.6 179.3 2.5 180 2.5 C 180.6 2.5 181.1 2.7 181.5 3 C 181.8 3.3 182 3.8 182 4.4 C 181.95 4.36 182 7.2 182 7.2 L 181.3 7.2 C 181.3 7.2 181.29 6.5 181.3 6.5 C 181 6.9 180.4 7.3 179.6 7.3 C 178.7 7.3 177.9 6.8 177.9 5.8 Z M 181.3 5.5 C 181.3 5.5 181.3 5 181.3 5 C 181 4.9 180.5 4.8 179.9 4.8 C 179.1 4.8 178.6 5.2 178.6 5.8 C 178.6 5.8 178.6 5.8 178.6 5.8 C 178.6 6.4 179.1 6.8 179.7 6.8 C 180.6 6.8 181.3 6.2 181.3 5.5 Z M 183.4 0.6 L 184.1 0.6 L 184.1 7.2 L 183.4 7.2 L 183.4 0.6 Z M 185.3 5.8 C 185.3 5.8 185.3 5.8 185.3 5.8 C 185.3 4.9 186.1 4.3 187.3 4.3 C 187.8 4.3 188.3 4.4 188.7 4.5 C 188.7 4.5 188.7 4.4 188.7 4.4 C 188.7 3.5 188.2 3.1 187.3 3.1 C 186.7 3.1 186.3 3.2 185.9 3.4 C 185.9 3.4 185.7 2.9 185.7 2.9 C 186.2 2.6 186.7 2.5 187.4 2.5 C 188 2.5 188.5 2.7 188.9 3 C 189.2 3.3 189.3 3.8 189.3 4.4 C 189.35 4.36 189.3 7.2 189.3 7.2 L 188.7 7.2 C 188.7 7.2 188.68 6.5 188.7 6.5 C 188.4 6.9 187.8 7.3 187 7.3 C 186.1 7.3 185.3 6.8 185.3 5.8 Z M 188.7 5.5 C 188.7 5.5 188.7 5 188.7 5 C 188.4 4.9 187.9 4.8 187.3 4.8 C 186.5 4.8 186 5.2 186 5.8 C 186 5.8 186 5.8 186 5.8 C 186 6.4 186.5 6.8 187.1 6.8 C 188 6.8 188.7 6.2 188.7 5.5 Z M 190.7 0.6 L 191.4 0.6 C 191.4 0.6 191.43 3.36 191.4 3.4 C 191.7 2.9 192.2 2.4 193 2.4 C 194.1 2.4 194.8 3.2 194.8 4.3 C 194.8 4.31 194.8 7.2 194.8 7.2 L 194.1 7.2 C 194.1 7.2 194.11 4.48 194.1 4.5 C 194.1 3.6 193.6 3.1 192.8 3.1 C 192 3.1 191.4 3.7 191.4 4.5 C 191.43 4.54 191.4 7.2 191.4 7.2 L 190.7 7.2 L 190.7 0.6 Z M 195.9 4.9 C 195.9 4.9 195.9 4.9 195.9 4.9 C 195.9 3.6 196.9 2.4 198.3 2.4 C 199.7 2.4 200.8 3.5 200.8 4.9 C 200.8 4.9 200.8 4.9 200.8 4.9 C 200.8 6.2 199.7 7.3 198.3 7.3 C 196.9 7.3 195.9 6.2 195.9 4.9 Z M 200 4.9 C 200 4.9 200 4.9 200 4.9 C 200 3.9 199.3 3.1 198.3 3.1 C 197.3 3.1 196.6 3.9 196.6 4.9 C 196.6 4.9 196.6 4.9 196.6 4.9 C 196.6 5.9 197.4 6.7 198.3 6.7 C 199.3 6.7 200 5.9 200 4.9 Z M 201.9 0.6 L 202.6 0.6 L 202.6 5.2 L 205.1 2.5 L 206 2.5 L 204 4.5 L 206 7.2 L 205.2 7.2 L 203.6 5 L 202.6 6 L 202.6 7.2 L 201.9 7.2 L 201.9 0.6 Z M 208.7 6.6 C 208.7 6.6 209 6.1 209 6.1 C 209.6 6.5 210.1 6.7 210.7 6.7 C 211.2 6.7 211.6 6.4 211.6 6 C 211.6 6 211.6 5.9 211.6 5.9 C 211.6 5.5 211.1 5.3 210.5 5.1 C 209.7 4.9 208.9 4.7 208.9 3.8 C 208.9 3.8 208.9 3.8 208.9 3.8 C 208.9 3 209.6 2.5 210.5 2.5 C 211.1 2.5 211.7 2.7 212.2 3 C 212.2 3 211.9 3.5 211.9 3.5 C 211.4 3.2 210.9 3.1 210.5 3.1 C 209.9 3.1 209.6 3.3 209.6 3.7 C 209.6 3.7 209.6 3.7 209.6 3.7 C 209.6 4.2 210.2 4.4 210.8 4.5 C 211.5 4.8 212.3 5 212.3 5.9 C 212.3 5.9 212.3 5.9 212.3 5.9 C 212.3 6.8 211.6 7.3 210.6 7.3 C 210 7.3 209.2 7 208.7 6.6 Z M 213.1 5.8 C 213.1 5.8 213.1 5.8 213.1 5.8 C 213.1 4.9 213.9 4.3 215.1 4.3 C 215.7 4.3 216.1 4.4 216.5 4.5 C 216.5 4.5 216.5 4.4 216.5 4.4 C 216.5 3.5 216 3.1 215.2 3.1 C 214.6 3.1 214.2 3.2 213.7 3.4 C 213.7 3.4 213.5 2.9 213.5 2.9 C 214.1 2.6 214.6 2.5 215.2 2.5 C 215.9 2.5 216.4 2.7 216.7 3 C 217 3.3 217.2 3.8 217.2 4.4 C 217.21 4.36 217.2 7.2 217.2 7.2 L 216.5 7.2 C 216.5 7.2 216.55 6.5 216.5 6.5 C 216.2 6.9 215.7 7.3 214.9 7.3 C 214 7.3 213.1 6.8 213.1 5.8 Z M 216.6 5.5 C 216.6 5.5 216.6 5 216.6 5 C 216.2 4.9 215.8 4.8 215.2 4.8 C 214.3 4.8 213.8 5.2 213.8 5.8 C 213.8 5.8 213.8 5.8 213.8 5.8 C 213.8 6.4 214.4 6.8 215 6.8 C 215.9 6.8 216.6 6.2 216.6 5.5 Z M 220.4 6.7 C 220.4 6.7 222.68 4.64 222.7 4.6 C 223.6 3.8 224 3.3 224 2.7 C 224 1.9 223.4 1.4 222.7 1.4 C 222 1.4 221.5 1.8 221 2.5 C 221 2.5 220.5 2.2 220.5 2.2 C 221.1 1.3 221.7 0.8 222.8 0.8 C 223.9 0.8 224.7 1.6 224.7 2.6 C 224.7 2.6 224.7 2.6 224.7 2.6 C 224.7 3.5 224.2 4.1 223.1 5.1 C 223.14 5.06 221.5 6.6 221.5 6.6 L 224.8 6.6 L 224.8 7.2 L 220.4 7.2 L 220.4 6.7 Z M 225.8 4.1 C 225.8 4.1 225.8 4 225.8 4 C 225.8 2.3 226.9 0.8 228.5 0.8 C 230.1 0.8 231.1 2.3 231.1 4 C 231.1 4 231.1 4 231.1 4 C 231.1 5.8 230.1 7.3 228.5 7.3 C 226.8 7.3 225.8 5.8 225.8 4.1 Z M 230.4 4.1 C 230.4 4.1 230.4 4 230.4 4 C 230.4 2.7 229.6 1.4 228.5 1.4 C 227.3 1.4 226.6 2.6 226.6 4 C 226.6 4 226.6 4 226.6 4 C 226.6 5.4 227.3 6.7 228.5 6.7 C 229.7 6.7 230.4 5.4 230.4 4.1 Z M 232 6.7 C 232 6.7 234.24 4.64 234.2 4.6 C 235.2 3.8 235.6 3.3 235.6 2.7 C 235.6 1.9 235 1.4 234.3 1.4 C 233.6 1.4 233.1 1.8 232.6 2.5 C 232.6 2.5 232.1 2.2 232.1 2.2 C 232.6 1.3 233.2 0.8 234.3 0.8 C 235.5 0.8 236.3 1.6 236.3 2.6 C 236.3 2.6 236.3 2.6 236.3 2.6 C 236.3 3.5 235.8 4.1 234.7 5.1 C 234.7 5.06 233 6.6 233 6.6 L 236.4 6.6 L 236.4 7.2 L 232 7.2 L 232 6.7 Z M 237.4 4.1 C 237.4 4.1 237.4 4 237.4 4 C 237.4 2.3 238.4 0.8 240 0.8 C 241.7 0.8 242.7 2.3 242.7 4 C 242.7 4 242.7 4 242.7 4 C 242.7 5.8 241.7 7.3 240 7.3 C 238.4 7.3 237.4 5.8 237.4 4.1 Z M 242 4.1 C 242 4.1 242 4 242 4 C 242 2.7 241.2 1.4 240 1.4 C 238.9 1.4 238.1 2.6 238.1 4 C 238.1 4 238.1 4 238.1 4 C 238.1 5.4 238.9 6.7 240 6.7 C 241.2 6.7 242 5.4 242 4.1 Z M 245.8 6.3 C 245.8 6.3 246.2 5.8 246.2 5.8 C 246.9 6.4 247.5 6.7 248.4 6.7 C 249.2 6.7 249.8 6.2 249.8 5.6 C 249.8 5.6 249.8 5.6 249.8 5.6 C 249.8 5 249.5 4.6 248.1 4.4 C 246.7 4 246 3.6 246 2.5 C 246 2.5 246 2.5 246 2.5 C 246 1.5 246.9 0.8 248.1 0.8 C 249 0.8 249.7 1.1 250.3 1.6 C 250.3 1.6 249.9 2.1 249.9 2.1 C 249.3 1.7 248.7 1.4 248.1 1.4 C 247.3 1.4 246.7 1.9 246.7 2.5 C 246.7 2.5 246.7 2.5 246.7 2.5 C 246.7 3.1 247.1 3.4 248.5 3.7 C 249.9 4 250.5 4.5 250.5 5.5 C 250.5 5.5 250.5 5.5 250.5 5.5 C 250.5 6.6 249.6 7.3 248.4 7.3 C 247.4 7.3 246.5 7 245.8 6.3 Z M 251.7 5.4 C 251.68 5.44 251.7 2.5 251.7 2.5 L 252.4 2.5 C 252.4 2.5 252.37 5.27 252.4 5.3 C 252.4 6.1 252.8 6.7 253.7 6.7 C 254.4 6.7 255.1 6.1 255.1 5.2 C 255.05 5.21 255.1 2.5 255.1 2.5 L 255.7 2.5 L 255.7 7.2 L 255.1 7.2 C 255.1 7.2 255.05 6.39 255.1 6.4 C 254.7 6.9 254.3 7.3 253.5 7.3 C 252.3 7.3 251.7 6.5 251.7 5.4 Z M 257.2 2.5 L 257.9 2.5 C 257.9 2.5 257.89 3.33 257.9 3.3 C 258.2 2.9 258.6 2.4 259.4 2.4 C 260.2 2.4 260.6 2.9 260.9 3.4 C 261.2 2.9 261.7 2.4 262.5 2.4 C 263.6 2.4 264.3 3.2 264.3 4.3 C 264.26 4.32 264.3 7.2 264.3 7.2 L 263.6 7.2 C 263.6 7.2 263.56 4.48 263.6 4.5 C 263.6 3.6 263.1 3.1 262.4 3.1 C 261.7 3.1 261.1 3.6 261.1 4.5 C 261.08 4.52 261.1 7.2 261.1 7.2 L 260.4 7.2 C 260.4 7.2 260.39 4.46 260.4 4.5 C 260.4 3.6 259.9 3.1 259.2 3.1 C 258.5 3.1 257.9 3.7 257.9 4.5 C 257.89 4.54 257.9 7.2 257.9 7.2 L 257.2 7.2 L 257.2 2.5 Z M 265.7 2.5 L 266.4 2.5 C 266.4 2.5 266.36 3.33 266.4 3.3 C 266.7 2.9 267.1 2.4 267.9 2.4 C 268.6 2.4 269.1 2.9 269.4 3.4 C 269.7 2.9 270.2 2.4 271 2.4 C 272.1 2.4 272.7 3.2 272.7 4.3 C 272.73 4.32 272.7 7.2 272.7 7.2 L 272 7.2 C 272 7.2 272.03 4.48 272 4.5 C 272 3.6 271.6 3.1 270.8 3.1 C 270.1 3.1 269.5 3.6 269.5 4.5 C 269.55 4.52 269.5 7.2 269.5 7.2 L 268.9 7.2 C 268.9 7.2 268.86 4.46 268.9 4.5 C 268.9 3.6 268.4 3.1 267.7 3.1 C 266.9 3.1 266.4 3.7 266.4 4.5 C 266.36 4.54 266.4 7.2 266.4 7.2 L 265.7 7.2 L 265.7 2.5 Z M 273.9 4.9 C 273.9 4.9 273.9 4.9 273.9 4.9 C 273.9 3.5 274.8 2.4 276.1 2.4 C 277.5 2.4 278.3 3.5 278.3 4.9 C 278.3 5 278.3 5 278.2 5.1 C 278.2 5.1 274.6 5.1 274.6 5.1 C 274.7 6.1 275.4 6.7 276.2 6.7 C 276.8 6.7 277.3 6.4 277.7 6 C 277.7 6 278.1 6.4 278.1 6.4 C 277.6 7 277.1 7.3 276.2 7.3 C 274.9 7.3 273.9 6.3 273.9 4.9 Z M 277.6 4.6 C 277.5 3.8 277 3 276.1 3 C 275.3 3 274.6 3.7 274.6 4.6 C 274.6 4.6 277.6 4.6 277.6 4.6 Z M 279.4 2.5 L 280.1 2.5 C 280.1 2.5 280.07 3.76 280.1 3.8 C 280.4 3 281.1 2.4 282 2.5 C 281.97 2.47 282 3.2 282 3.2 C 282 3.2 281.91 3.21 281.9 3.2 C 280.9 3.2 280.1 3.9 280.1 5.3 C 280.07 5.35 280.1 7.2 280.1 7.2 L 279.4 7.2 L 279.4 2.5 Z M 285.2 0.9 C 285.2 0.9 287.55 0.9 287.5 0.9 C 289 0.9 289.9 1.7 289.9 2.9 C 289.9 2.9 289.9 2.9 289.9 2.9 C 289.9 4.3 288.8 5 287.4 5 C 287.43 4.98 285.9 5 285.9 5 L 285.9 7.2 L 285.2 7.2 L 285.2 0.9 Z M 287.5 4.3 C 288.5 4.3 289.2 3.8 289.2 2.9 C 289.2 2.9 289.2 2.9 289.2 2.9 C 289.2 2 288.5 1.6 287.5 1.6 C 287.49 1.56 285.9 1.6 285.9 1.6 L 285.9 4.3 C 285.9 4.3 287.46 4.33 287.5 4.3 Z M 290.6 5.8 C 290.6 5.8 290.6 5.8 290.6 5.8 C 290.6 4.9 291.4 4.3 292.5 4.3 C 293.1 4.3 293.6 4.4 294 4.5 C 294 4.5 294 4.4 294 4.4 C 294 3.5 293.5 3.1 292.6 3.1 C 292 3.1 291.6 3.2 291.2 3.4 C 291.2 3.4 291 2.9 291 2.9 C 291.5 2.6 292 2.5 292.7 2.5 C 293.3 2.5 293.8 2.7 294.2 3 C 294.5 3.3 294.6 3.8 294.6 4.4 C 294.64 4.36 294.6 7.2 294.6 7.2 L 294 7.2 C 294 7.2 293.97 6.5 294 6.5 C 293.6 6.9 293.1 7.3 292.3 7.3 C 291.4 7.3 290.6 6.8 290.6 5.8 Z M 294 5.5 C 294 5.5 294 5 294 5 C 293.6 4.9 293.2 4.8 292.6 4.8 C 291.7 4.8 291.3 5.2 291.3 5.8 C 291.3 5.8 291.3 5.8 291.3 5.8 C 291.3 6.4 291.8 6.8 292.4 6.8 C 293.3 6.8 294 6.2 294 5.5 Z M 296 2.5 L 296.7 2.5 C 296.7 2.5 296.72 3.76 296.7 3.8 C 297.1 3 297.7 2.4 298.6 2.5 C 298.62 2.47 298.6 3.2 298.6 3.2 C 298.6 3.2 298.56 3.21 298.6 3.2 C 297.5 3.2 296.7 3.9 296.7 5.3 C 296.72 5.35 296.7 7.2 296.7 7.2 L 296 7.2 L 296 2.5 Z M 299 5.8 C 299 5.8 299 5.8 299 5.8 C 299 4.9 299.8 4.3 301 4.3 C 301.6 4.3 302 4.4 302.4 4.5 C 302.4 4.5 302.4 4.4 302.4 4.4 C 302.4 3.5 301.9 3.1 301 3.1 C 300.5 3.1 300.1 3.2 299.6 3.4 C 299.6 3.4 299.4 2.9 299.4 2.9 C 299.9 2.6 300.4 2.5 301.1 2.5 C 301.8 2.5 302.3 2.7 302.6 3 C 302.9 3.3 303.1 3.8 303.1 4.4 C 303.09 4.36 303.1 7.2 303.1 7.2 L 302.4 7.2 C 302.4 7.2 302.42 6.5 302.4 6.5 C 302.1 6.9 301.6 7.3 300.7 7.3 C 299.9 7.3 299 6.8 299 5.8 Z M 302.4 5.5 C 302.4 5.5 302.4 5 302.4 5 C 302.1 4.9 301.6 4.8 301.1 4.8 C 300.2 4.8 299.7 5.2 299.7 5.8 C 299.7 5.8 299.7 5.8 299.7 5.8 C 299.7 6.4 300.2 6.8 300.9 6.8 C 301.7 6.8 302.4 6.2 302.4 5.5 Z M 304.5 0.6 L 305.2 0.6 L 305.2 7.2 L 304.5 7.2 L 304.5 0.6 Z M 310.2 2.5 L 311 2.5 C 311 2.5 309.02 7.35 309 7.4 C 308.6 8.3 308.2 8.7 307.5 8.7 C 307.1 8.7 306.8 8.6 306.5 8.4 C 306.5 8.4 306.7 7.9 306.7 7.9 C 306.9 8 307.1 8.1 307.4 8.1 C 307.9 8.1 308.1 7.8 308.4 7.2 C 308.4 7.18 306.3 2.5 306.3 2.5 L 307 2.5 L 308.7 6.4 L 310.2 2.5 Z M 312 2.5 L 312.7 2.5 C 312.7 2.5 312.67 3.33 312.7 3.3 C 313 2.9 313.4 2.4 314.2 2.4 C 314.9 2.4 315.4 2.9 315.7 3.4 C 316 2.9 316.5 2.4 317.3 2.4 C 318.4 2.4 319 3.2 319 4.3 C 319.04 4.32 319 7.2 319 7.2 L 318.3 7.2 C 318.3 7.2 318.34 4.48 318.3 4.5 C 318.3 3.6 317.9 3.1 317.1 3.1 C 316.4 3.1 315.9 3.6 315.9 4.5 C 315.86 4.52 315.9 7.2 315.9 7.2 L 315.2 7.2 C 315.2 7.2 315.17 4.46 315.2 4.5 C 315.2 3.6 314.7 3.1 314 3.1 C 313.2 3.1 312.7 3.7 312.7 4.5 C 312.67 4.54 312.7 7.2 312.7 7.2 L 312 7.2 L 312 2.5 Z M 320.5 2.5 L 321.1 2.5 C 321.1 2.5 321.14 3.48 321.1 3.5 C 321.5 2.9 322.1 2.4 322.9 2.4 C 324 2.4 325.1 3.3 325.1 4.9 C 325.1 4.9 325.1 4.9 325.1 4.9 C 325.1 6.4 324.1 7.3 322.9 7.3 C 322.1 7.3 321.5 6.8 321.1 6.3 C 321.14 6.31 321.1 8.6 321.1 8.6 L 320.5 8.6 L 320.5 2.5 Z M 324.4 4.9 C 324.4 4.9 324.4 4.9 324.4 4.9 C 324.4 3.8 323.7 3.1 322.8 3.1 C 321.9 3.1 321.1 3.8 321.1 4.9 C 321.1 4.9 321.1 4.9 321.1 4.9 C 321.1 6 321.9 6.7 322.8 6.7 C 323.7 6.7 324.4 6 324.4 4.9 Z M 326.4 0.8 L 327.1 0.8 L 327.1 1.5 L 326.4 1.5 L 326.4 0.8 Z M 326.4 2.5 L 327.1 2.5 L 327.1 7.2 L 326.4 7.2 L 326.4 2.5 Z M 328.3 4.9 C 328.3 4.9 328.3 4.9 328.3 4.9 C 328.3 3.6 329.3 2.4 330.7 2.4 C 331.6 2.4 332.1 2.8 332.6 3.3 C 332.6 3.3 332.1 3.8 332.1 3.8 C 331.7 3.4 331.3 3.1 330.7 3.1 C 329.8 3.1 329 3.9 329 4.9 C 329 4.9 329 4.9 329 4.9 C 329 5.9 329.8 6.7 330.7 6.7 C 331.3 6.7 331.8 6.4 332.2 6 C 332.2 6 332.6 6.4 332.6 6.4 C 332.1 6.9 331.6 7.3 330.7 7.3 C 329.3 7.3 328.3 6.2 328.3 4.9 Z M 333.3 6.6 C 333.3 6.6 333.6 6.1 333.6 6.1 C 334.1 6.5 334.7 6.7 335.2 6.7 C 335.8 6.7 336.2 6.4 336.2 6 C 336.2 6 336.2 5.9 336.2 5.9 C 336.2 5.5 335.7 5.3 335 5.1 C 334.3 4.9 333.5 4.7 333.5 3.8 C 333.5 3.8 333.5 3.8 333.5 3.8 C 333.5 3 334.2 2.5 335.1 2.5 C 335.7 2.5 336.3 2.7 336.8 3 C 336.8 3 336.4 3.5 336.4 3.5 C 336 3.2 335.5 3.1 335.1 3.1 C 334.5 3.1 334.2 3.3 334.2 3.7 C 334.2 3.7 334.2 3.7 334.2 3.7 C 334.2 4.2 334.7 4.4 335.4 4.5 C 336.1 4.8 336.9 5 336.9 5.9 C 336.9 5.9 336.9 5.9 336.9 5.9 C 336.9 6.8 336.1 7.3 335.2 7.3 C 334.5 7.3 333.8 7 333.3 6.6 Z M 339.8 6.6 C 339.8 6.6 340.2 6.1 340.2 6.1 C 340.7 6.5 341.2 6.7 341.8 6.7 C 342.3 6.7 342.7 6.4 342.7 6 C 342.7 6 342.7 5.9 342.7 5.9 C 342.7 5.5 342.2 5.3 341.6 5.1 C 340.8 4.9 340 4.7 340 3.8 C 340 3.8 340 3.8 340 3.8 C 340 3 340.7 2.5 341.6 2.5 C 342.2 2.5 342.8 2.7 343.3 3 C 343.3 3 343 3.5 343 3.5 C 342.5 3.2 342 3.1 341.6 3.1 C 341 3.1 340.7 3.3 340.7 3.7 C 340.7 3.7 340.7 3.7 340.7 3.7 C 340.7 4.2 341.3 4.4 341.9 4.5 C 342.6 4.8 343.4 5 343.4 5.9 C 343.4 5.9 343.4 5.9 343.4 5.9 C 343.4 6.8 342.7 7.3 341.7 7.3 C 341.1 7.3 340.3 7 339.8 6.6 Z M 344.2 5.8 C 344.2 5.8 344.2 5.8 344.2 5.8 C 344.2 4.9 345 4.3 346.2 4.3 C 346.8 4.3 347.2 4.4 347.7 4.5 C 347.7 4.5 347.7 4.4 347.7 4.4 C 347.7 3.5 347.1 3.1 346.3 3.1 C 345.7 3.1 345.3 3.2 344.9 3.4 C 344.9 3.4 344.6 2.9 344.6 2.9 C 345.2 2.6 345.7 2.5 346.3 2.5 C 347 2.5 347.5 2.7 347.8 3 C 348.2 3.3 348.3 3.8 348.3 4.4 C 348.32 4.36 348.3 7.2 348.3 7.2 L 347.7 7.2 C 347.7 7.2 347.65 6.5 347.7 6.5 C 347.3 6.9 346.8 7.3 346 7.3 C 345.1 7.3 344.2 6.8 344.2 5.8 Z M 347.7 5.5 C 347.7 5.5 347.7 5 347.7 5 C 347.3 4.9 346.9 4.8 346.3 4.8 C 345.4 4.8 344.9 5.2 344.9 5.8 C 344.9 5.8 344.9 5.8 344.9 5.8 C 344.9 6.4 345.5 6.8 346.1 6.8 C 347 6.8 347.7 6.2 347.7 5.5 Z M 351.6 4.9 C 351.6 4.9 351.6 4.9 351.6 4.9 C 351.6 3.3 352.7 2.4 353.8 2.4 C 354.7 2.4 355.2 2.9 355.6 3.4 C 355.58 3.44 355.6 0.6 355.6 0.6 L 356.3 0.6 L 356.3 7.2 L 355.6 7.2 C 355.6 7.2 355.58 6.26 355.6 6.3 C 355.2 6.8 354.7 7.3 353.8 7.3 C 352.7 7.3 351.6 6.4 351.6 4.9 Z M 355.6 4.9 C 355.6 4.9 355.6 4.9 355.6 4.9 C 355.6 3.8 354.8 3.1 353.9 3.1 C 353 3.1 352.3 3.7 352.3 4.9 C 352.3 4.9 352.3 4.9 352.3 4.9 C 352.3 6 353.1 6.7 353.9 6.7 C 354.8 6.7 355.6 5.9 355.6 4.9 Z M 357.4 5.8 C 357.4 5.8 357.4 5.8 357.4 5.8 C 357.4 4.9 358.2 4.3 359.4 4.3 C 360 4.3 360.4 4.4 360.8 4.5 C 360.8 4.5 360.8 4.4 360.8 4.4 C 360.8 3.5 360.3 3.1 359.4 3.1 C 358.9 3.1 358.4 3.2 358 3.4 C 358 3.4 357.8 2.9 357.8 2.9 C 358.3 2.6 358.8 2.5 359.5 2.5 C 360.1 2.5 360.6 2.7 361 3 C 361.3 3.3 361.5 3.8 361.5 4.4 C 361.46 4.36 361.5 7.2 361.5 7.2 L 360.8 7.2 C 360.8 7.2 360.8 6.5 360.8 6.5 C 360.5 6.9 359.9 7.3 359.1 7.3 C 358.3 7.3 357.4 6.8 357.4 5.8 Z M 360.8 5.5 C 360.8 5.5 360.8 5 360.8 5 C 360.5 4.9 360 4.8 359.4 4.8 C 358.6 4.8 358.1 5.2 358.1 5.8 C 358.1 5.8 358.1 5.8 358.1 5.8 C 358.1 6.4 358.6 6.8 359.3 6.8 C 360.1 6.8 360.8 6.2 360.8 5.5 Z M 362.9 2.5 L 363.5 2.5 C 363.5 2.5 363.54 3.76 363.5 3.8 C 363.9 3 364.6 2.4 365.4 2.5 C 365.44 2.47 365.4 3.2 365.4 3.2 C 365.4 3.2 365.39 3.21 365.4 3.2 C 364.4 3.2 363.5 3.9 363.5 5.3 C 363.54 5.35 363.5 7.2 363.5 7.2 L 362.9 7.2 L 362.9 2.5 Z M 365.8 5.8 C 365.8 5.8 365.8 5.8 365.8 5.8 C 365.8 4.9 366.6 4.3 367.8 4.3 C 368.4 4.3 368.8 4.4 369.3 4.5 C 369.3 4.5 369.3 4.4 369.3 4.4 C 369.3 3.5 368.7 3.1 367.9 3.1 C 367.3 3.1 366.9 3.2 366.5 3.4 C 366.5 3.4 366.2 2.9 366.2 2.9 C 366.8 2.6 367.3 2.5 367.9 2.5 C 368.6 2.5 369.1 2.7 369.4 3 C 369.8 3.3 369.9 3.8 369.9 4.4 C 369.92 4.36 369.9 7.2 369.9 7.2 L 369.3 7.2 C 369.3 7.2 369.25 6.5 369.3 6.5 C 368.9 6.9 368.4 7.3 367.6 7.3 C 366.7 7.3 365.8 6.8 365.8 5.8 Z M 369.3 5.5 C 369.3 5.5 369.3 5 369.3 5 C 368.9 4.9 368.5 4.8 367.9 4.8 C 367 4.8 366.5 5.2 366.5 5.8 C 366.5 5.8 366.5 5.8 366.5 5.8 C 366.5 6.4 367.1 6.8 367.7 6.8 C 368.6 6.8 369.3 6.2 369.3 5.5 Z M 371.5 6 C 371.5 5.97 371.5 3.2 371.5 3.2 L 370.9 3.2 L 370.9 2.5 L 371.5 2.5 L 371.5 1.1 L 372.2 1.1 L 372.2 2.5 L 373.7 2.5 L 373.7 3.2 L 372.2 3.2 C 372.2 3.2 372.19 5.88 372.2 5.9 C 372.2 6.4 372.5 6.7 373 6.7 C 373.2 6.7 373.4 6.6 373.7 6.5 C 373.7 6.5 373.7 7.1 373.7 7.1 C 373.4 7.2 373.1 7.3 372.8 7.3 C 372.1 7.3 371.5 6.9 371.5 6 Z M 374.8 0.8 L 375.6 0.8 L 375.6 1.5 L 374.8 1.5 L 374.8 0.8 Z M 374.9 2.5 L 375.6 2.5 L 375.6 7.2 L 374.9 7.2 L 374.9 2.5 Z M 377.1 2.5 L 377.8 2.5 C 377.8 2.5 377.77 3.36 377.8 3.4 C 378.1 2.9 378.6 2.4 379.4 2.4 C 380.5 2.4 381.1 3.2 381.1 4.3 C 381.15 4.31 381.1 7.2 381.1 7.2 L 380.5 7.2 C 380.5 7.2 380.46 4.48 380.5 4.5 C 380.5 3.6 380 3.1 379.2 3.1 C 378.4 3.1 377.8 3.7 377.8 4.5 C 377.77 4.54 377.8 7.2 377.8 7.2 L 377.1 7.2 L 377.1 2.5 Z M 382.5 8 C 382.5 8 382.8 7.5 382.8 7.5 C 383.3 7.9 383.9 8.1 384.6 8.1 C 385.6 8.1 386.3 7.5 386.3 6.4 C 386.3 6.4 386.3 5.9 386.3 5.9 C 385.9 6.4 385.3 6.8 384.5 6.8 C 383.3 6.8 382.3 6 382.3 4.7 C 382.3 4.7 382.3 4.6 382.3 4.6 C 382.3 3.3 383.3 2.4 384.5 2.4 C 385.3 2.4 385.9 2.9 386.3 3.4 C 386.27 3.38 386.3 2.5 386.3 2.5 L 387 2.5 C 387 2.5 386.96 6.39 387 6.4 C 387 7.1 386.7 7.7 386.4 8 C 386 8.5 385.3 8.7 384.6 8.7 C 383.8 8.7 383.1 8.4 382.5 8 Z M 386.3 4.7 C 386.3 4.7 386.3 4.6 386.3 4.6 C 386.3 3.7 385.5 3.1 384.6 3.1 C 383.7 3.1 383 3.7 383 4.6 C 383 4.6 383 4.6 383 4.6 C 383 5.6 383.7 6.2 384.6 6.2 C 385.5 6.2 386.3 5.6 386.3 4.7 Z M 390.6 2.5 L 391.3 2.5 C 391.3 2.5 391.25 3.36 391.3 3.4 C 391.6 2.9 392 2.4 392.8 2.4 C 394 2.4 394.6 3.2 394.6 4.3 C 394.63 4.31 394.6 7.2 394.6 7.2 L 393.9 7.2 C 393.9 7.2 393.93 4.48 393.9 4.5 C 393.9 3.6 393.5 3.1 392.6 3.1 C 391.8 3.1 391.3 3.7 391.3 4.5 C 391.25 4.54 391.3 7.2 391.3 7.2 L 390.6 7.2 L 390.6 2.5 Z M 395.7 5.8 C 395.7 5.8 395.7 5.8 395.7 5.8 C 395.7 4.9 396.5 4.3 397.7 4.3 C 398.2 4.3 398.7 4.4 399.1 4.5 C 399.1 4.5 399.1 4.4 399.1 4.4 C 399.1 3.5 398.6 3.1 397.7 3.1 C 397.1 3.1 396.7 3.2 396.3 3.4 C 396.3 3.4 396.1 2.9 396.1 2.9 C 396.6 2.6 397.1 2.5 397.8 2.5 C 398.4 2.5 398.9 2.7 399.3 3 C 399.6 3.3 399.7 3.8 399.7 4.4 C 399.75 4.36 399.7 7.2 399.7 7.2 L 399.1 7.2 C 399.1 7.2 399.08 6.5 399.1 6.5 C 398.8 6.9 398.2 7.3 397.4 7.3 C 396.5 7.3 395.7 6.8 395.7 5.8 Z M 399.1 5.5 C 399.1 5.5 399.1 5 399.1 5 C 398.7 4.9 398.3 4.8 397.7 4.8 C 396.8 4.8 396.4 5.2 396.4 5.8 C 396.4 5.8 396.4 5.8 396.4 5.8 C 396.4 6.4 396.9 6.8 397.5 6.8 C 398.4 6.8 399.1 6.2 399.1 5.5 Z M 405.7 0.9 L 406.4 0.9 L 409.3 7.2 L 408.5 7.2 L 407.8 5.5 L 404.3 5.5 L 403.6 7.2 L 402.9 7.2 L 405.7 0.9 Z M 407.5 4.9 L 406 1.7 L 404.6 4.9 L 407.5 4.9 Z M 410 8 C 410 8 410.3 7.5 410.3 7.5 C 410.9 7.9 411.5 8.1 412.1 8.1 C 413.1 8.1 413.8 7.5 413.8 6.4 C 413.8 6.4 413.8 5.9 413.8 5.9 C 413.4 6.4 412.8 6.8 412 6.8 C 410.9 6.8 409.8 6 409.8 4.7 C 409.8 4.7 409.8 4.6 409.8 4.6 C 409.8 3.3 410.9 2.4 412 2.4 C 412.9 2.4 413.4 2.9 413.8 3.4 C 413.8 3.38 413.8 2.5 413.8 2.5 L 414.5 2.5 C 414.5 2.5 414.5 6.39 414.5 6.4 C 414.5 7.1 414.3 7.7 413.9 8 C 413.5 8.5 412.9 8.7 412.1 8.7 C 411.4 8.7 410.6 8.4 410 8 Z M 413.8 4.7 C 413.8 4.7 413.8 4.6 413.8 4.6 C 413.8 3.7 413 3.1 412.1 3.1 C 411.2 3.1 410.5 3.7 410.5 4.6 C 410.5 4.6 410.5 4.6 410.5 4.6 C 410.5 5.6 411.3 6.2 412.1 6.2 C 413 6.2 413.8 5.6 413.8 4.7 Z M 415.7 4.9 C 415.7 4.9 415.7 4.9 415.7 4.9 C 415.7 3.6 416.7 2.4 418.1 2.4 C 419.5 2.4 420.5 3.5 420.5 4.9 C 420.5 4.9 420.5 4.9 420.5 4.9 C 420.5 6.2 419.5 7.3 418.1 7.3 C 416.7 7.3 415.7 6.2 415.7 4.9 Z M 419.8 4.9 C 419.8 4.9 419.8 4.9 419.8 4.9 C 419.8 3.9 419.1 3.1 418.1 3.1 C 417.1 3.1 416.4 3.9 416.4 4.9 C 416.4 4.9 416.4 4.9 416.4 4.9 C 416.4 5.9 417.1 6.7 418.1 6.7 C 419.1 6.7 419.8 5.9 419.8 4.9 Z M 421.3 6.6 C 421.3 6.6 421.6 6.1 421.6 6.1 C 422.1 6.5 422.7 6.7 423.3 6.7 C 423.8 6.7 424.2 6.4 424.2 6 C 424.2 6 424.2 5.9 424.2 5.9 C 424.2 5.5 423.7 5.3 423.1 5.1 C 422.3 4.9 421.5 4.7 421.5 3.8 C 421.5 3.8 421.5 3.8 421.5 3.8 C 421.5 3 422.2 2.5 423.1 2.5 C 423.7 2.5 424.3 2.7 424.8 3 C 424.8 3 424.5 3.5 424.5 3.5 C 424 3.2 423.5 3.1 423.1 3.1 C 422.5 3.1 422.2 3.3 422.2 3.7 C 422.2 3.7 422.2 3.7 422.2 3.7 C 422.2 4.2 422.8 4.4 423.4 4.5 C 424.1 4.8 424.9 5 424.9 5.9 C 424.9 5.9 424.9 5.9 424.9 5.9 C 424.9 6.8 424.1 7.3 423.2 7.3 C 422.6 7.3 421.8 7 421.3 6.6 Z M 426.2 6 C 426.22 5.97 426.2 3.2 426.2 3.2 L 425.6 3.2 L 425.6 2.5 L 426.2 2.5 L 426.2 1.1 L 426.9 1.1 L 426.9 2.5 L 428.4 2.5 L 428.4 3.2 L 426.9 3.2 C 426.9 3.2 426.92 5.88 426.9 5.9 C 426.9 6.4 427.2 6.7 427.7 6.7 C 427.9 6.7 428.1 6.6 428.4 6.5 C 428.4 6.5 428.4 7.1 428.4 7.1 C 428.1 7.2 427.9 7.3 427.5 7.3 C 426.8 7.3 426.2 6.9 426.2 6 Z M 429.1 4.9 C 429.1 4.9 429.1 4.9 429.1 4.9 C 429.1 3.6 430.1 2.4 431.5 2.4 C 432.9 2.4 434 3.5 434 4.9 C 434 4.9 434 4.9 434 4.9 C 434 6.2 432.9 7.3 431.5 7.3 C 430.1 7.3 429.1 6.2 429.1 4.9 Z M 433.2 4.9 C 433.2 4.9 433.2 4.9 433.2 4.9 C 433.2 3.9 432.5 3.1 431.5 3.1 C 430.5 3.1 429.8 3.9 429.8 4.9 C 429.8 4.9 429.8 4.9 429.8 4.9 C 429.8 5.9 430.6 6.7 431.5 6.7 C 432.5 6.7 433.2 5.9 433.2 4.9 Z M 436.9 6.7 C 436.9 6.7 439.2 4.64 439.2 4.6 C 440.2 3.8 440.5 3.3 440.5 2.7 C 440.5 1.9 439.9 1.4 439.2 1.4 C 438.5 1.4 438.1 1.8 437.6 2.5 C 437.6 2.5 437 2.2 437 2.2 C 437.6 1.3 438.2 0.8 439.3 0.8 C 440.4 0.8 441.2 1.6 441.2 2.6 C 441.2 2.6 441.2 2.6 441.2 2.6 C 441.2 3.5 440.8 4.1 439.7 5.1 C 439.66 5.06 438 6.6 438 6.6 L 441.3 6.6 L 441.3 7.2 L 436.9 7.2 L 436.9 6.7 Z M 445.4 5.7 L 442.1 5.7 L 441.9 5.2 L 445.5 0.9 L 446.1 0.9 L 446.1 5.1 L 447.1 5.1 L 447.1 5.7 L 446.1 5.7 L 446.1 7.2 L 445.4 7.2 L 445.4 5.7 Z M 445.4 5.1 L 445.4 1.9 L 442.8 5.1 L 445.4 5.1 Z M 447.9 8 C 448.4 7.8 448.5 7.6 448.5 7.2 C 448.51 7.2 448.2 7.2 448.2 7.2 L 448.2 6.3 L 449 6.3 C 449 6.3 449.02 7.06 449 7.1 C 449 7.8 448.7 8.1 448 8.3 C 448 8.3 447.9 8 447.9 8 Z M 452.2 6.7 C 452.2 6.7 454.47 4.64 454.5 4.6 C 455.4 3.8 455.8 3.3 455.8 2.7 C 455.8 1.9 455.2 1.4 454.5 1.4 C 453.8 1.4 453.3 1.8 452.8 2.5 C 452.8 2.5 452.3 2.2 452.3 2.2 C 452.9 1.3 453.5 0.8 454.6 0.8 C 455.7 0.8 456.5 1.6 456.5 2.6 C 456.5 2.6 456.5 2.6 456.5 2.6 C 456.5 3.5 456 4.1 454.9 5.1 C 454.93 5.06 453.2 6.6 453.2 6.6 L 456.6 6.6 L 456.6 7.2 L 452.2 7.2 L 452.2 6.7 Z M 457.6 4.1 C 457.6 4.1 457.6 4 457.6 4 C 457.6 2.3 458.7 0.8 460.3 0.8 C 461.9 0.8 462.9 2.3 462.9 4 C 462.9 4 462.9 4 462.9 4 C 462.9 5.8 461.9 7.3 460.3 7.3 C 458.6 7.3 457.6 5.8 457.6 4.1 Z M 462.2 4.1 C 462.2 4.1 462.2 4 462.2 4 C 462.2 2.7 461.4 1.4 460.3 1.4 C 459.1 1.4 458.3 2.6 458.3 4 C 458.3 4 458.3 4 458.3 4 C 458.3 5.4 459.1 6.7 460.3 6.7 C 461.5 6.7 462.2 5.4 462.2 4.1 Z M 463.7 6.7 C 463.7 6.7 466.02 4.64 466 4.6 C 467 3.8 467.3 3.3 467.3 2.7 C 467.3 1.9 466.8 1.4 466.1 1.4 C 465.3 1.4 464.9 1.8 464.4 2.5 C 464.4 2.5 463.9 2.2 463.9 2.2 C 464.4 1.3 465 0.8 466.1 0.8 C 467.3 0.8 468.1 1.6 468.1 2.6 C 468.1 2.6 468.1 2.6 468.1 2.6 C 468.1 3.5 467.6 4.1 466.5 5.1 C 466.48 5.06 464.8 6.6 464.8 6.6 L 468.1 6.6 L 468.1 7.2 L 463.7 7.2 L 463.7 6.7 Z M 470.2 1.6 L 469 2 L 468.9 1.4 L 470.4 0.9 L 470.9 0.9 L 470.9 7.2 L 470.2 7.2 L 470.2 1.6 Z M 474.3 6.6 C 474.3 6.6 474.6 6.1 474.6 6.1 C 475.1 6.5 475.7 6.7 476.2 6.7 C 476.8 6.7 477.2 6.4 477.2 6 C 477.2 6 477.2 5.9 477.2 5.9 C 477.2 5.5 476.6 5.3 476 5.1 C 475.3 4.9 474.5 4.7 474.5 3.8 C 474.5 3.8 474.5 3.8 474.5 3.8 C 474.5 3 475.2 2.5 476.1 2.5 C 476.6 2.5 477.3 2.7 477.7 3 C 477.7 3 477.4 3.5 477.4 3.5 C 477 3.2 476.5 3.1 476.1 3.1 C 475.5 3.1 475.2 3.3 475.2 3.7 C 475.2 3.7 475.2 3.7 475.2 3.7 C 475.2 4.2 475.7 4.4 476.4 4.5 C 477.1 4.8 477.8 5 477.8 5.9 C 477.8 5.9 477.8 5.9 477.8 5.9 C 477.8 6.8 477.1 7.3 476.2 7.3 C 475.5 7.3 474.8 7 474.3 6.6 Z M 478.7 5.8 C 478.7 5.8 478.7 5.8 478.7 5.8 C 478.7 4.9 479.5 4.3 480.7 4.3 C 481.3 4.3 481.7 4.4 482.1 4.5 C 482.1 4.5 482.1 4.4 482.1 4.4 C 482.1 3.5 481.6 3.1 480.7 3.1 C 480.2 3.1 479.7 3.2 479.3 3.4 C 479.3 3.4 479.1 2.9 479.1 2.9 C 479.6 2.6 480.1 2.5 480.8 2.5 C 481.5 2.5 482 2.7 482.3 3 C 482.6 3.3 482.8 3.8 482.8 4.4 C 482.78 4.36 482.8 7.2 482.8 7.2 L 482.1 7.2 C 482.1 7.2 482.11 6.5 482.1 6.5 C 481.8 6.9 481.2 7.3 480.4 7.3 C 479.6 7.3 478.7 6.8 478.7 5.8 Z M 482.1 5.5 C 482.1 5.5 482.1 5 482.1 5 C 481.8 4.9 481.3 4.8 480.8 4.8 C 479.9 4.8 479.4 5.2 479.4 5.8 C 479.4 5.8 479.4 5.8 479.4 5.8 C 479.4 6.4 479.9 6.8 480.6 6.8 C 481.4 6.8 482.1 6.2 482.1 5.5 Z M 488.1 1.6 L 486 1.6 L 486 0.9 L 490.9 0.9 L 490.9 1.6 L 488.8 1.6 L 488.8 7.2 L 488.1 7.2 L 488.1 1.6 Z M 490.6 4.9 C 490.6 4.9 490.6 4.9 490.6 4.9 C 490.6 3.6 491.6 2.4 493 2.4 C 494.4 2.4 495.5 3.5 495.5 4.9 C 495.5 4.9 495.5 4.9 495.5 4.9 C 495.5 6.2 494.4 7.3 493 7.3 C 491.6 7.3 490.6 6.2 490.6 4.9 Z M 494.8 4.9 C 494.8 4.9 494.8 4.9 494.8 4.9 C 494.8 3.9 494 3.1 493 3.1 C 492 3.1 491.3 3.9 491.3 4.9 C 491.3 4.9 491.3 4.9 491.3 4.9 C 491.3 5.9 492.1 6.7 493 6.7 C 494.1 6.7 494.8 5.9 494.8 4.9 Z M 496.6 0.6 L 497.3 0.6 L 497.3 5.2 L 499.8 2.5 L 500.7 2.5 L 498.7 4.5 L 500.8 7.2 L 499.9 7.2 L 498.3 5 L 497.3 6 L 497.3 7.2 L 496.6 7.2 L 496.6 0.6 Z M 505 2.5 L 505.7 2.5 C 505.7 2.5 503.79 7.35 503.8 7.4 C 503.4 8.3 502.9 8.7 502.2 8.7 C 501.9 8.7 501.6 8.6 501.3 8.4 C 501.3 8.4 501.5 7.9 501.5 7.9 C 501.7 8 501.9 8.1 502.2 8.1 C 502.6 8.1 502.9 7.8 503.2 7.2 C 503.17 7.18 501.1 2.5 501.1 2.5 L 501.8 2.5 L 503.5 6.4 L 505 2.5 Z M 506.2 4.9 C 506.2 4.9 506.2 4.9 506.2 4.9 C 506.2 3.6 507.2 2.4 508.6 2.4 C 510 2.4 511 3.5 511 4.9 C 511 4.9 511 4.9 511 4.9 C 511 6.2 510 7.3 508.6 7.3 C 507.2 7.3 506.2 6.2 506.2 4.9 Z M 510.3 4.9 C 510.3 4.9 510.3 4.9 510.3 4.9 C 510.3 3.9 509.6 3.1 508.6 3.1 C 507.6 3.1 506.9 3.9 506.9 4.9 C 506.9 4.9 506.9 4.9 506.9 4.9 C 506.9 5.9 507.6 6.7 508.6 6.7 C 509.6 6.7 510.3 5.9 510.3 4.9 Z M 511.7 8 C 512.1 7.8 512.3 7.6 512.3 7.2 C 512.27 7.2 511.9 7.2 511.9 7.2 L 511.9 6.3 L 512.8 6.3 C 512.8 6.3 512.77 7.06 512.8 7.1 C 512.8 7.8 512.5 8.1 511.8 8.3 C 511.8 8.3 511.7 8 511.7 8 Z M 515.8 6.2 C 515.8 6.2 516.3 5.7 516.3 5.7 C 516.7 6.3 517.1 6.6 517.7 6.6 C 518.4 6.6 519 6.1 519 5.1 C 518.97 5.12 519 0.9 519 0.9 L 519.7 0.9 C 519.7 0.9 519.69 5.11 519.7 5.1 C 519.7 5.9 519.5 6.4 519.1 6.8 C 518.8 7.1 518.3 7.3 517.7 7.3 C 516.8 7.3 516.2 6.8 515.8 6.2 Z M 520.8 5.8 C 520.8 5.8 520.8 5.8 520.8 5.8 C 520.8 4.9 521.6 4.3 522.8 4.3 C 523.4 4.3 523.8 4.4 524.2 4.5 C 524.2 4.5 524.2 4.4 524.2 4.4 C 524.2 3.5 523.7 3.1 522.9 3.1 C 522.3 3.1 521.9 3.2 521.4 3.4 C 521.4 3.4 521.2 2.9 521.2 2.9 C 521.7 2.6 522.2 2.5 522.9 2.5 C 523.6 2.5 524.1 2.7 524.4 3 C 524.7 3.3 524.9 3.8 524.9 4.4 C 524.9 4.36 524.9 7.2 524.9 7.2 L 524.2 7.2 C 524.2 7.2 524.24 6.5 524.2 6.5 C 523.9 6.9 523.4 7.3 522.6 7.3 C 521.7 7.3 520.8 6.8 520.8 5.8 Z M 524.2 5.5 C 524.2 5.5 524.2 5 524.2 5 C 523.9 4.9 523.4 4.8 522.9 4.8 C 522 4.8 521.5 5.2 521.5 5.8 C 521.5 5.8 521.5 5.8 521.5 5.8 C 521.5 6.4 522.1 6.8 522.7 6.8 C 523.5 6.8 524.2 6.2 524.2 5.5 Z M 526.3 2.5 L 527 2.5 C 527 2.5 526.98 3.48 527 3.5 C 527.4 2.9 527.9 2.4 528.8 2.4 C 529.9 2.4 531 3.3 531 4.9 C 531 4.9 531 4.9 531 4.9 C 531 6.4 529.9 7.3 528.8 7.3 C 527.9 7.3 527.3 6.8 527 6.3 C 526.98 6.31 527 8.6 527 8.6 L 526.3 8.6 L 526.3 2.5 Z M 530.3 4.9 C 530.3 4.9 530.3 4.9 530.3 4.9 C 530.3 3.8 529.5 3.1 528.6 3.1 C 527.8 3.1 527 3.8 527 4.9 C 527 4.9 527 4.9 527 4.9 C 527 6 527.8 6.7 528.6 6.7 C 529.5 6.7 530.3 6 530.3 4.9 Z M 531.8 5.8 C 531.8 5.8 531.8 5.8 531.8 5.8 C 531.8 4.9 532.6 4.3 533.8 4.3 C 534.4 4.3 534.8 4.4 535.2 4.5 C 535.2 4.5 535.2 4.4 535.2 4.4 C 535.2 3.5 534.7 3.1 533.9 3.1 C 533.3 3.1 532.9 3.2 532.4 3.4 C 532.4 3.4 532.2 2.9 532.2 2.9 C 532.7 2.6 533.3 2.5 533.9 2.5 C 534.6 2.5 535.1 2.7 535.4 3 C 535.7 3.3 535.9 3.8 535.9 4.4 C 535.91 4.36 535.9 7.2 535.9 7.2 L 535.2 7.2 C 535.2 7.2 535.24 6.5 535.2 6.5 C 534.9 6.9 534.4 7.3 533.6 7.3 C 532.7 7.3 531.8 6.8 531.8 5.8 Z M 535.3 5.5 C 535.3 5.5 535.3 5 535.3 5 C 534.9 4.9 534.5 4.8 533.9 4.8 C 533 4.8 532.5 5.2 532.5 5.8 C 532.5 5.8 532.5 5.8 532.5 5.8 C 532.5 6.4 533.1 6.8 533.7 6.8 C 534.6 6.8 535.3 6.2 535.3 5.5 Z M 537.3 2.5 L 538 2.5 C 538 2.5 537.99 3.36 538 3.4 C 538.3 2.9 538.8 2.4 539.6 2.4 C 540.7 2.4 541.4 3.2 541.4 4.3 C 541.36 4.31 541.4 7.2 541.4 7.2 L 540.7 7.2 C 540.7 7.2 540.67 4.48 540.7 4.5 C 540.7 3.6 540.2 3.1 539.4 3.1 C 538.6 3.1 538 3.7 538 4.5 C 537.99 4.54 538 7.2 538 7.2 L 537.3 7.2 L 537.3 2.5 Z M 542.7 6.3 L 543.5 6.3 L 543.5 7.2 L 542.7 7.2 L 542.7 6.3 Z M 547.1 0.9 L 547.8 0.9 L 547.8 4.7 L 551.4 0.9 L 552.4 0.9 L 549.7 3.7 L 552.5 7.2 L 551.6 7.2 L 549.2 4.1 L 547.8 5.5 L 547.8 7.2 L 547.1 7.2 L 547.1 0.9 Z M 552.9 5.8 C 552.9 5.8 552.9 5.8 552.9 5.8 C 552.9 4.9 553.8 4.3 554.9 4.3 C 555.5 4.3 555.9 4.4 556.4 4.5 C 556.4 4.5 556.4 4.4 556.4 4.4 C 556.4 3.5 555.9 3.1 555 3.1 C 554.4 3.1 554 3.2 553.6 3.4 C 553.6 3.4 553.4 2.9 553.4 2.9 C 553.9 2.6 554.4 2.5 555 2.5 C 555.7 2.5 556.2 2.7 556.6 3 C 556.9 3.3 557 3.8 557 4.4 C 557.03 4.36 557 7.2 557 7.2 L 556.4 7.2 C 556.4 7.2 556.36 6.5 556.4 6.5 C 556 6.9 555.5 7.3 554.7 7.3 C 553.8 7.3 552.9 6.8 552.9 5.8 Z M 556.4 5.5 C 556.4 5.5 556.4 5 556.4 5 C 556 4.9 555.6 4.8 555 4.8 C 554.1 4.8 553.6 5.2 553.6 5.8 C 553.6 5.8 553.6 5.8 553.6 5.8 C 553.6 6.4 554.2 6.8 554.8 6.8 C 555.7 6.8 556.4 6.2 556.4 5.5 Z M 559.1 6.3 C 559.11 6.31 559.1 7.2 559.1 7.2 L 558.4 7.2 L 558.4 0.6 L 559.1 0.6 C 559.1 0.6 559.11 3.48 559.1 3.5 C 559.5 2.9 560 2.4 560.9 2.4 C 562 2.4 563.1 3.3 563.1 4.9 C 563.1 4.9 563.1 4.9 563.1 4.9 C 563.1 6.4 562 7.3 560.9 7.3 C 560 7.3 559.5 6.8 559.1 6.3 Z M 562.4 4.9 C 562.4 4.9 562.4 4.9 562.4 4.9 C 562.4 3.8 561.6 3.1 560.8 3.1 C 559.9 3.1 559.1 3.8 559.1 4.9 C 559.1 4.9 559.1 4.9 559.1 4.9 C 559.1 6 559.9 6.7 560.8 6.7 C 561.7 6.7 562.4 6 562.4 4.9 Z M 564.3 0.8 L 565.1 0.8 L 565.1 1.5 L 564.3 1.5 L 564.3 0.8 Z M 564.4 2.5 L 565.1 2.5 L 565.1 7.2 L 564.4 7.2 L 564.4 2.5 Z M 566.6 0.6 L 567.3 0.6 L 567.3 7.2 L 566.6 7.2 L 566.6 0.6 Z M 568.5 5.8 C 568.5 5.8 568.5 5.8 568.5 5.8 C 568.5 4.9 569.3 4.3 570.5 4.3 C 571.1 4.3 571.5 4.4 571.9 4.5 C 571.9 4.5 571.9 4.4 571.9 4.4 C 571.9 3.5 571.4 3.1 570.5 3.1 C 570 3.1 569.6 3.2 569.1 3.4 C 569.1 3.4 568.9 2.9 568.9 2.9 C 569.4 2.6 569.9 2.5 570.6 2.5 C 571.3 2.5 571.8 2.7 572.1 3 C 572.4 3.3 572.6 3.8 572.6 4.4 C 572.59 4.36 572.6 7.2 572.6 7.2 L 571.9 7.2 C 571.9 7.2 571.92 6.5 571.9 6.5 C 571.6 6.9 571.1 7.3 570.2 7.3 C 569.4 7.3 568.5 6.8 568.5 5.8 Z M 571.9 5.5 C 571.9 5.5 571.9 5 571.9 5 C 571.6 4.9 571.1 4.8 570.6 4.8 C 569.7 4.8 569.2 5.2 569.2 5.8 C 569.2 5.8 569.2 5.8 569.2 5.8 C 569.2 6.4 569.7 6.8 570.4 6.8 C 571.2 6.8 571.9 6.2 571.9 5.5 Z M 574 2.5 L 574.7 2.5 C 574.7 2.5 574.67 3.36 574.7 3.4 C 575 2.9 575.5 2.4 576.3 2.4 C 577.4 2.4 578 3.2 578 4.3 C 578.04 4.31 578 7.2 578 7.2 L 577.4 7.2 C 577.4 7.2 577.35 4.48 577.4 4.5 C 577.4 3.6 576.9 3.1 576.1 3.1 C 575.3 3.1 574.7 3.7 574.7 4.5 C 574.67 4.54 574.7 7.2 574.7 7.2 L 574 7.2 L 574 2.5 Z M 579.4 8 C 579.4 8 579.7 7.5 579.7 7.5 C 580.2 7.9 580.8 8.1 581.5 8.1 C 582.5 8.1 583.2 7.5 583.2 6.4 C 583.2 6.4 583.2 5.9 583.2 5.9 C 582.8 6.4 582.2 6.8 581.3 6.8 C 580.2 6.8 579.2 6 579.2 4.7 C 579.2 4.7 579.2 4.6 579.2 4.6 C 579.2 3.3 580.2 2.4 581.3 2.4 C 582.2 2.4 582.8 2.9 583.2 3.4 C 583.17 3.38 583.2 2.5 583.2 2.5 L 583.9 2.5 C 583.9 2.5 583.86 6.39 583.9 6.4 C 583.9 7.1 583.6 7.7 583.3 8 C 582.9 8.5 582.2 8.7 581.5 8.7 C 580.7 8.7 580 8.4 579.4 8 Z M 583.2 4.7 C 583.2 4.7 583.2 4.6 583.2 4.6 C 583.2 3.7 582.4 3.1 581.5 3.1 C 580.6 3.1 579.9 3.7 579.9 4.6 C 579.9 4.6 579.9 4.6 579.9 4.6 C 579.9 5.6 580.6 6.2 581.5 6.2 C 582.4 6.2 583.2 5.6 583.2 4.7 Z M 587.1 6.6 C 587.1 6.6 587.4 6.1 587.4 6.1 C 587.9 6.5 588.5 6.7 589 6.7 C 589.6 6.7 590 6.4 590 6 C 590 6 590 5.9 590 5.9 C 590 5.5 589.4 5.3 588.8 5.1 C 588.1 4.9 587.3 4.7 587.3 3.8 C 587.3 3.8 587.3 3.8 587.3 3.8 C 587.3 3 588 2.5 588.9 2.5 C 589.4 2.5 590.1 2.7 590.6 3 C 590.6 3 590.2 3.5 590.2 3.5 C 589.8 3.2 589.3 3.1 588.9 3.1 C 588.3 3.1 588 3.3 588 3.7 C 588 3.7 588 3.7 588 3.7 C 588 4.2 588.5 4.4 589.2 4.5 C 589.9 4.8 590.6 5 590.6 5.9 C 590.6 5.9 590.6 5.9 590.6 5.9 C 590.6 6.8 589.9 7.3 589 7.3 C 588.3 7.3 587.6 7 587.1 6.6 Z M 591.5 5.8 C 591.5 5.8 591.5 5.8 591.5 5.8 C 591.5 4.9 592.3 4.3 593.5 4.3 C 594.1 4.3 594.5 4.4 594.9 4.5 C 594.9 4.5 594.9 4.4 594.9 4.4 C 594.9 3.5 594.4 3.1 593.5 3.1 C 593 3.1 592.5 3.2 592.1 3.4 C 592.1 3.4 591.9 2.9 591.9 2.9 C 592.4 2.6 592.9 2.5 593.6 2.5 C 594.3 2.5 594.8 2.7 595.1 3 C 595.4 3.3 595.6 3.8 595.6 4.4 C 595.58 4.36 595.6 7.2 595.6 7.2 L 594.9 7.2 C 594.9 7.2 594.92 6.5 594.9 6.5 C 594.6 6.9 594.1 7.3 593.2 7.3 C 592.4 7.3 591.5 6.8 591.5 5.8 Z M 594.9 5.5 C 594.9 5.5 594.9 5 594.9 5 C 594.6 4.9 594.1 4.8 593.6 4.8 C 592.7 4.8 592.2 5.2 592.2 5.8 C 592.2 5.8 592.2 5.8 592.2 5.8 C 592.2 6.4 592.7 6.8 593.4 6.8 C 594.2 6.8 594.9 6.2 594.9 5.5 Z M 599.1 2.5 L 599.8 2.5 C 599.8 2.5 599.8 3.33 599.8 3.3 C 600.1 2.9 600.5 2.4 601.3 2.4 C 602.1 2.4 602.5 2.9 602.8 3.4 C 603.1 2.9 603.6 2.4 604.4 2.4 C 605.5 2.4 606.2 3.2 606.2 4.3 C 606.16 4.32 606.2 7.2 606.2 7.2 L 605.5 7.2 C 605.5 7.2 605.47 4.48 605.5 4.5 C 605.5 3.6 605 3.1 604.3 3.1 C 603.6 3.1 603 3.6 603 4.5 C 602.99 4.52 603 7.2 603 7.2 L 602.3 7.2 C 602.3 7.2 602.29 4.46 602.3 4.5 C 602.3 3.6 601.8 3.1 601.1 3.1 C 600.4 3.1 599.8 3.7 599.8 4.5 C 599.8 4.54 599.8 7.2 599.8 7.2 L 599.1 7.2 L 599.1 2.5 Z M 607.5 8 C 607.5 8 607.8 7.5 607.8 7.5 C 608.4 7.9 609 8.1 609.6 8.1 C 610.7 8.1 611.3 7.5 611.3 6.4 C 611.3 6.4 611.3 5.9 611.3 5.9 C 610.9 6.4 610.3 6.8 609.5 6.8 C 608.4 6.8 607.3 6 607.3 4.7 C 607.3 4.7 607.3 4.6 607.3 4.6 C 607.3 3.3 608.4 2.4 609.5 2.4 C 610.4 2.4 610.9 2.9 611.3 3.4 C 611.31 3.38 611.3 2.5 611.3 2.5 L 612 2.5 C 612 2.5 612 6.39 612 6.4 C 612 7.1 611.8 7.7 611.4 8 C 611 8.5 610.4 8.7 609.6 8.7 C 608.9 8.7 608.1 8.4 607.5 8 Z M 611.3 4.7 C 611.3 4.7 611.3 4.6 611.3 4.6 C 611.3 3.7 610.5 3.1 609.6 3.1 C 608.7 3.1 608 3.7 608 4.6 C 608 4.6 608 4.6 608 4.6 C 608 5.6 608.8 6.2 609.6 6.2 C 610.5 6.2 611.3 5.6 611.3 4.7 Z M 613.1 5.8 C 613.1 5.8 613.1 5.8 613.1 5.8 C 613.1 4.9 613.9 4.3 615.1 4.3 C 615.7 4.3 616.1 4.4 616.5 4.5 C 616.5 4.5 616.5 4.4 616.5 4.4 C 616.5 3.5 616 3.1 615.1 3.1 C 614.6 3.1 614.2 3.2 613.7 3.4 C 613.7 3.4 613.5 2.9 613.5 2.9 C 614 2.6 614.5 2.5 615.2 2.5 C 615.9 2.5 616.4 2.7 616.7 3 C 617 3.3 617.2 3.8 617.2 4.4 C 617.2 4.36 617.2 7.2 617.2 7.2 L 616.5 7.2 C 616.5 7.2 616.53 6.5 616.5 6.5 C 616.2 6.9 615.7 7.3 614.8 7.3 C 614 7.3 613.1 6.8 613.1 5.8 Z M 616.5 5.5 C 616.5 5.5 616.5 5 616.5 5 C 616.2 4.9 615.7 4.8 615.2 4.8 C 614.3 4.8 613.8 5.2 613.8 5.8 C 613.8 5.8 613.8 5.8 613.8 5.8 C 613.8 6.4 614.4 6.8 615 6.8 C 615.8 6.8 616.5 6.2 616.5 5.5 Z M 620.4 5.8 C 620.4 5.8 620.4 5.8 620.4 5.8 C 620.4 4.9 621.2 4.3 622.4 4.3 C 623 4.3 623.4 4.4 623.8 4.5 C 623.8 4.5 623.8 4.4 623.8 4.4 C 623.8 3.5 623.3 3.1 622.4 3.1 C 621.9 3.1 621.4 3.2 621 3.4 C 621 3.4 620.8 2.9 620.8 2.9 C 621.3 2.6 621.8 2.5 622.5 2.5 C 623.1 2.5 623.6 2.7 624 3 C 624.3 3.3 624.5 3.8 624.5 4.4 C 624.46 4.36 624.5 7.2 624.5 7.2 L 623.8 7.2 C 623.8 7.2 623.79 6.5 623.8 6.5 C 623.5 6.9 622.9 7.3 622.1 7.3 C 621.2 7.3 620.4 6.8 620.4 5.8 Z M 623.8 5.5 C 623.8 5.5 623.8 5 623.8 5 C 623.5 4.9 623 4.8 622.4 4.8 C 621.6 4.8 621.1 5.2 621.1 5.8 C 621.1 5.8 621.1 5.8 621.1 5.8 C 621.1 6.4 621.6 6.8 622.2 6.8 C 623.1 6.8 623.8 6.2 623.8 5.5 Z M 626 6 C 626.04 5.97 626 3.2 626 3.2 L 625.4 3.2 L 625.4 2.5 L 626 2.5 L 626 1.1 L 626.7 1.1 L 626.7 2.5 L 628.2 2.5 L 628.2 3.2 L 626.7 3.2 C 626.7 3.2 626.73 5.88 626.7 5.9 C 626.7 6.4 627 6.7 627.5 6.7 C 627.8 6.7 627.9 6.6 628.2 6.5 C 628.2 6.5 628.2 7.1 628.2 7.1 C 627.9 7.2 627.7 7.3 627.4 7.3 C 626.6 7.3 626 6.9 626 6 Z M 629.4 0.6 L 630.1 0.6 L 630.1 7.2 L 629.4 7.2 L 629.4 0.6 Z M 631.3 4.9 C 631.3 4.9 631.3 4.9 631.3 4.9 C 631.3 3.5 632.3 2.4 633.6 2.4 C 634.9 2.4 635.7 3.5 635.7 4.9 C 635.7 5 635.7 5 635.7 5.1 C 635.7 5.1 632 5.1 632 5.1 C 632.1 6.1 632.8 6.7 633.7 6.7 C 634.3 6.7 634.8 6.4 635.1 6 C 635.1 6 635.6 6.4 635.6 6.4 C 635.1 7 634.5 7.3 633.7 7.3 C 632.4 7.3 631.3 6.3 631.3 4.9 Z M 635 4.6 C 635 3.8 634.5 3 633.5 3 C 632.7 3 632.1 3.7 632 4.6 C 632 4.6 635 4.6 635 4.6 Z M 637.1 6 C 637.1 5.97 637.1 3.2 637.1 3.2 L 636.5 3.2 L 636.5 2.5 L 637.1 2.5 L 637.1 1.1 L 637.8 1.1 L 637.8 2.5 L 639.3 2.5 L 639.3 3.2 L 637.8 3.2 C 637.8 3.2 637.79 5.88 637.8 5.9 C 637.8 6.4 638.1 6.7 638.6 6.7 C 638.8 6.7 639 6.6 639.3 6.5 C 639.3 6.5 639.3 7.1 639.3 7.1 C 639 7.2 638.7 7.3 638.4 7.3 C 637.7 7.3 637.1 6.9 637.1 6 Z M 640.1 5.8 C 640.1 5.8 640.1 5.8 640.1 5.8 C 640.1 4.9 640.9 4.3 642 4.3 C 642.6 4.3 643.1 4.4 643.5 4.5 C 643.5 4.5 643.5 4.4 643.5 4.4 C 643.5 3.5 643 3.1 642.1 3.1 C 641.5 3.1 641.1 3.2 640.7 3.4 C 640.7 3.4 640.5 2.9 640.5 2.9 C 641 2.6 641.5 2.5 642.2 2.5 C 642.8 2.5 643.3 2.7 643.7 3 C 644 3.3 644.1 3.8 644.1 4.4 C 644.14 4.36 644.1 7.2 644.1 7.2 L 643.5 7.2 C 643.5 7.2 643.47 6.5 643.5 6.5 C 643.1 6.9 642.6 7.3 641.8 7.3 C 640.9 7.3 640.1 6.8 640.1 5.8 Z M 643.5 5.5 C 643.5 5.5 643.5 5 643.5 5 C 643.1 4.9 642.7 4.8 642.1 4.8 C 641.2 4.8 640.8 5.2 640.8 5.8 C 640.8 5.8 640.8 5.8 640.8 5.8 C 640.8 6.4 641.3 6.8 641.9 6.8 C 642.8 6.8 643.5 6.2 643.5 5.5 Z M 645.5 2.5 L 646.2 2.5 C 646.2 2.5 646.22 3.36 646.2 3.4 C 646.5 2.9 647 2.4 647.8 2.4 C 648.9 2.4 649.6 3.2 649.6 4.3 C 649.59 4.31 649.6 7.2 649.6 7.2 L 648.9 7.2 C 648.9 7.2 648.9 4.48 648.9 4.5 C 648.9 3.6 648.4 3.1 647.6 3.1 C 646.8 3.1 646.2 3.7 646.2 4.5 C 646.22 4.54 646.2 7.2 646.2 7.2 L 645.5 7.2 L 645.5 2.5 Z M 650.9 8 C 650.9 8 651.2 7.5 651.2 7.5 C 651.8 7.9 652.4 8.1 653 8.1 C 654.1 8.1 654.7 7.5 654.7 6.4 C 654.7 6.4 654.7 5.9 654.7 5.9 C 654.3 6.4 653.8 6.8 652.9 6.8 C 651.8 6.8 650.7 6 650.7 4.7 C 650.7 4.7 650.7 4.6 650.7 4.6 C 650.7 3.3 651.8 2.4 652.9 2.4 C 653.8 2.4 654.3 2.9 654.7 3.4 C 654.71 3.38 654.7 2.5 654.7 2.5 L 655.4 2.5 C 655.4 2.5 655.41 6.39 655.4 6.4 C 655.4 7.1 655.2 7.7 654.8 8 C 654.4 8.5 653.8 8.7 653 8.7 C 652.3 8.7 651.5 8.4 650.9 8 Z M 654.7 4.7 C 654.7 4.7 654.7 4.6 654.7 4.6 C 654.7 3.7 653.9 3.1 653 3.1 C 652.1 3.1 651.4 3.7 651.4 4.6 C 651.4 4.6 651.4 4.6 651.4 4.6 C 651.4 5.6 652.2 6.2 653 6.2 C 653.9 6.2 654.7 5.6 654.7 4.7 Z M 659 2.5 L 659.7 2.5 C 659.7 2.5 659.7 3.33 659.7 3.3 C 660 2.9 660.4 2.4 661.2 2.4 C 662 2.4 662.4 2.9 662.7 3.4 C 663 2.9 663.5 2.4 664.3 2.4 C 665.4 2.4 666.1 3.2 666.1 4.3 C 666.06 4.32 666.1 7.2 666.1 7.2 L 665.4 7.2 C 665.4 7.2 665.37 4.48 665.4 4.5 C 665.4 3.6 664.9 3.1 664.2 3.1 C 663.5 3.1 662.9 3.6 662.9 4.5 C 662.88 4.52 662.9 7.2 662.9 7.2 L 662.2 7.2 C 662.2 7.2 662.19 4.46 662.2 4.5 C 662.2 3.6 661.7 3.1 661 3.1 C 660.3 3.1 659.7 3.7 659.7 4.5 C 659.7 4.54 659.7 7.2 659.7 7.2 L 659 7.2 L 659 2.5 Z M 667.1 5.8 C 667.1 5.8 667.1 5.8 667.1 5.8 C 667.1 4.9 667.9 4.3 669.1 4.3 C 669.7 4.3 670.1 4.4 670.5 4.5 C 670.5 4.5 670.5 4.4 670.5 4.4 C 670.5 3.5 670 3.1 669.2 3.1 C 668.6 3.1 668.2 3.2 667.7 3.4 C 667.7 3.4 667.5 2.9 667.5 2.9 C 668 2.6 668.6 2.5 669.2 2.5 C 669.9 2.5 670.4 2.7 670.7 3 C 671 3.3 671.2 3.8 671.2 4.4 C 671.21 4.36 671.2 7.2 671.2 7.2 L 670.5 7.2 C 670.5 7.2 670.54 6.5 670.5 6.5 C 670.2 6.9 669.7 7.3 668.9 7.3 C 668 7.3 667.1 6.8 667.1 5.8 Z M 670.6 5.5 C 670.6 5.5 670.6 5 670.6 5 C 670.2 4.9 669.8 4.8 669.2 4.8 C 668.3 4.8 667.8 5.2 667.8 5.8 C 667.8 5.8 667.8 5.8 667.8 5.8 C 667.8 6.4 668.4 6.8 669 6.8 C 669.8 6.8 670.6 6.2 670.6 5.5 Z M 672.5 8 C 672.5 8 672.9 7.5 672.9 7.5 C 673.4 7.9 674 8.1 674.6 8.1 C 675.7 8.1 676.3 7.5 676.3 6.4 C 676.3 6.4 676.3 5.9 676.3 5.9 C 675.9 6.4 675.4 6.8 674.5 6.8 C 673.4 6.8 672.3 6 672.3 4.7 C 672.3 4.7 672.3 4.6 672.3 4.6 C 672.3 3.3 673.4 2.4 674.5 2.4 C 675.4 2.4 676 2.9 676.3 3.4 C 676.33 3.38 676.3 2.5 676.3 2.5 L 677 2.5 C 677 2.5 677.02 6.39 677 6.4 C 677 7.1 676.8 7.7 676.4 8 C 676 8.5 675.4 8.7 674.7 8.7 C 673.9 8.7 673.2 8.4 672.5 8 Z M 676.4 4.7 C 676.4 4.7 676.4 4.6 676.4 4.6 C 676.4 3.7 675.5 3.1 674.6 3.1 C 673.8 3.1 673 3.7 673 4.6 C 673 4.6 673 4.6 673 4.6 C 673 5.6 673.8 6.2 674.6 6.2 C 675.5 6.2 676.4 5.6 676.4 4.7 Z M 679.2 6.3 C 679.17 6.31 679.2 7.2 679.2 7.2 L 678.5 7.2 L 678.5 0.6 L 679.2 0.6 C 679.2 0.6 679.17 3.48 679.2 3.5 C 679.6 2.9 680.1 2.4 681 2.4 C 682.1 2.4 683.2 3.3 683.2 4.9 C 683.2 4.9 683.2 4.9 683.2 4.9 C 683.2 6.4 682.1 7.3 681 7.3 C 680.1 7.3 679.5 6.8 679.2 6.3 Z M 682.5 4.9 C 682.5 4.9 682.5 4.9 682.5 4.9 C 682.5 3.8 681.7 3.1 680.8 3.1 C 680 3.1 679.1 3.8 679.1 4.9 C 679.1 4.9 679.1 4.9 679.1 4.9 C 679.1 6 680 6.7 680.8 6.7 C 681.7 6.7 682.5 6 682.5 4.9 Z M 684 5.8 C 684 5.8 684 5.8 684 5.8 C 684 4.9 684.8 4.3 686 4.3 C 686.6 4.3 687 4.4 687.4 4.5 C 687.4 4.5 687.4 4.4 687.4 4.4 C 687.4 3.5 686.9 3.1 686 3.1 C 685.5 3.1 685.1 3.2 684.6 3.4 C 684.6 3.4 684.4 2.9 684.4 2.9 C 684.9 2.6 685.4 2.5 686.1 2.5 C 686.8 2.5 687.3 2.7 687.6 3 C 687.9 3.3 688.1 3.8 688.1 4.4 C 688.1 4.36 688.1 7.2 688.1 7.2 L 687.4 7.2 C 687.4 7.2 687.44 6.5 687.4 6.5 C 687.1 6.9 686.6 7.3 685.8 7.3 C 684.9 7.3 684 6.8 684 5.8 Z M 687.4 5.5 C 687.4 5.5 687.4 5 687.4 5 C 687.1 4.9 686.6 4.8 686.1 4.8 C 685.2 4.8 684.7 5.2 684.7 5.8 C 684.7 5.8 684.7 5.8 684.7 5.8 C 684.7 6.4 685.3 6.8 685.9 6.8 C 686.7 6.8 687.4 6.2 687.4 5.5 Z M 690.2 6.3 C 690.18 6.31 690.2 7.2 690.2 7.2 L 689.5 7.2 L 689.5 0.6 L 690.2 0.6 C 690.2 0.6 690.18 3.48 690.2 3.5 C 690.6 2.9 691.1 2.4 692 2.4 C 693.1 2.4 694.2 3.3 694.2 4.9 C 694.2 4.9 694.2 4.9 694.2 4.9 C 694.2 6.4 693.1 7.3 692 7.3 C 691.1 7.3 690.5 6.8 690.2 6.3 Z M 693.5 4.9 C 693.5 4.9 693.5 4.9 693.5 4.9 C 693.5 3.8 692.7 3.1 691.8 3.1 C 691 3.1 690.2 3.8 690.2 4.9 C 690.2 4.9 690.2 4.9 690.2 4.9 C 690.2 6 691 6.7 691.8 6.7 C 692.7 6.7 693.5 6 693.5 4.9 Z M 695 5.8 C 695 5.8 695 5.8 695 5.8 C 695 4.9 695.8 4.3 697 4.3 C 697.6 4.3 698 4.4 698.4 4.5 C 698.4 4.5 698.4 4.4 698.4 4.4 C 698.4 3.5 697.9 3.1 697.1 3.1 C 696.5 3.1 696.1 3.2 695.6 3.4 C 695.6 3.4 695.4 2.9 695.4 2.9 C 695.9 2.6 696.5 2.5 697.1 2.5 C 697.8 2.5 698.3 2.7 698.6 3 C 698.9 3.3 699.1 3.8 699.1 4.4 C 699.11 4.36 699.1 7.2 699.1 7.2 L 698.4 7.2 C 698.4 7.2 698.44 6.5 698.4 6.5 C 698.1 6.9 697.6 7.3 696.8 7.3 C 695.9 7.3 695 6.8 695 5.8 Z M 698.5 5.5 C 698.5 5.5 698.5 5 698.5 5 C 698.1 4.9 697.7 4.8 697.1 4.8 C 696.2 4.8 695.7 5.2 695.7 5.8 C 695.7 5.8 695.7 5.8 695.7 5.8 C 695.7 6.4 696.3 6.8 696.9 6.8 C 697.7 6.8 698.5 6.2 698.5 5.5 Z M 700.5 2.5 L 701.2 2.5 C 701.2 2.5 701.19 3.36 701.2 3.4 C 701.5 2.9 702 2.4 702.8 2.4 C 703.9 2.4 704.6 3.2 704.6 4.3 C 704.56 4.31 704.6 7.2 704.6 7.2 L 703.9 7.2 C 703.9 7.2 703.87 4.48 703.9 4.5 C 703.9 3.6 703.4 3.1 702.6 3.1 C 701.8 3.1 701.2 3.7 701.2 4.5 C 701.19 4.54 701.2 7.2 701.2 7.2 L 700.5 7.2 L 700.5 2.5 Z M 705.7 4.9 C 705.7 4.9 705.7 4.9 705.7 4.9 C 705.7 3.3 706.8 2.4 707.9 2.4 C 708.8 2.4 709.3 2.9 709.7 3.4 C 709.68 3.44 709.7 0.6 709.7 0.6 L 710.4 0.6 L 710.4 7.2 L 709.7 7.2 C 709.7 7.2 709.68 6.26 709.7 6.3 C 709.3 6.8 708.8 7.3 707.9 7.3 C 706.8 7.3 705.7 6.4 705.7 4.9 Z M 709.7 4.9 C 709.7 4.9 709.7 4.9 709.7 4.9 C 709.7 3.8 708.9 3.1 708 3.1 C 707.1 3.1 706.4 3.7 706.4 4.9 C 706.4 4.9 706.4 4.9 706.4 4.9 C 706.4 6 707.2 6.7 708 6.7 C 708.9 6.7 709.7 5.9 709.7 4.9 Z M 711.5 4.9 C 711.5 4.9 711.5 4.9 711.5 4.9 C 711.5 3.5 712.5 2.4 713.8 2.4 C 715.2 2.4 715.9 3.5 715.9 4.9 C 715.9 5 715.9 5 715.9 5.1 C 715.9 5.1 712.2 5.1 712.2 5.1 C 712.3 6.1 713.1 6.7 713.9 6.7 C 714.5 6.7 715 6.4 715.4 6 C 715.4 6 715.8 6.4 715.8 6.4 C 715.3 7 714.8 7.3 713.9 7.3 C 712.6 7.3 711.5 6.3 711.5 4.9 Z M 715.2 4.6 C 715.2 3.8 714.7 3 713.8 3 C 712.9 3 712.3 3.7 712.2 4.6 C 712.2 4.6 715.2 4.6 715.2 4.6 Z M 717.1 2.5 L 717.8 2.5 C 717.8 2.5 717.76 3.76 717.8 3.8 C 718.1 3 718.8 2.4 719.7 2.5 C 719.66 2.47 719.7 3.2 719.7 3.2 C 719.7 3.2 719.61 3.21 719.6 3.2 C 718.6 3.2 717.8 3.9 717.8 5.3 C 717.76 5.35 717.8 7.2 717.8 7.2 L 717.1 7.2 L 717.1 2.5 Z M 720.1 5.8 C 720.1 5.8 720.1 5.8 720.1 5.8 C 720.1 4.9 720.9 4.3 722 4.3 C 722.6 4.3 723.1 4.4 723.5 4.5 C 723.5 4.5 723.5 4.4 723.5 4.4 C 723.5 3.5 723 3.1 722.1 3.1 C 721.5 3.1 721.1 3.2 720.7 3.4 C 720.7 3.4 720.5 2.9 720.5 2.9 C 721 2.6 721.5 2.5 722.2 2.5 C 722.8 2.5 723.3 2.7 723.7 3 C 724 3.3 724.1 3.8 724.1 4.4 C 724.14 4.36 724.1 7.2 724.1 7.2 L 723.5 7.2 C 723.5 7.2 723.47 6.5 723.5 6.5 C 723.1 6.9 722.6 7.3 721.8 7.3 C 720.9 7.3 720.1 6.8 720.1 5.8 Z M 723.5 5.5 C 723.5 5.5 723.5 5 723.5 5 C 723.1 4.9 722.7 4.8 722.1 4.8 C 721.2 4.8 720.8 5.2 720.8 5.8 C 720.8 5.8 720.8 5.8 720.8 5.8 C 720.8 6.4 721.3 6.8 721.9 6.8 C 722.8 6.8 723.5 6.2 723.5 5.5 Z M 727.7 2.5 L 728.4 2.5 C 728.4 2.5 728.35 3.36 728.4 3.4 C 728.7 2.9 729.1 2.4 729.9 2.4 C 731.1 2.4 731.7 3.2 731.7 4.3 C 731.73 4.31 731.7 7.2 731.7 7.2 L 731 7.2 C 731 7.2 731.04 4.48 731 4.5 C 731 3.6 730.6 3.1 729.7 3.1 C 728.9 3.1 728.4 3.7 728.4 4.5 C 728.35 4.54 728.4 7.2 728.4 7.2 L 727.7 7.2 L 727.7 2.5 Z M 733.1 8 C 733.1 8 733.4 7.5 733.4 7.5 C 733.9 7.9 734.5 8.1 735.2 8.1 C 736.2 8.1 736.9 7.5 736.9 6.4 C 736.9 6.4 736.9 5.9 736.9 5.9 C 736.5 6.4 735.9 6.8 735 6.8 C 733.9 6.8 732.8 6 732.8 4.7 C 732.8 4.7 732.8 4.6 732.8 4.6 C 732.8 3.3 733.9 2.4 735 2.4 C 735.9 2.4 736.5 2.9 736.9 3.4 C 736.85 3.38 736.9 2.5 736.9 2.5 L 737.5 2.5 C 737.5 2.5 737.54 6.39 737.5 6.4 C 737.5 7.1 737.3 7.7 737 8 C 736.5 8.5 735.9 8.7 735.2 8.7 C 734.4 8.7 733.7 8.4 733.1 8 Z M 736.9 4.7 C 736.9 4.7 736.9 4.6 736.9 4.6 C 736.9 3.7 736.1 3.1 735.2 3.1 C 734.3 3.1 733.6 3.7 733.6 4.6 C 733.6 4.6 733.6 4.6 733.6 4.6 C 733.6 5.6 734.3 6.2 735.2 6.2 C 736.1 6.2 736.9 5.6 736.9 4.7 Z M 740.7 2.5 L 741.5 2.5 L 742.7 6.3 L 744 2.5 L 744.5 2.5 L 745.8 6.3 L 747 2.5 L 747.7 2.5 L 746.1 7.2 L 745.5 7.2 L 744.2 3.6 L 743 7.2 L 742.4 7.2 L 740.7 2.5 Z M 748.3 5.8 C 748.3 5.8 748.3 5.8 748.3 5.8 C 748.3 4.9 749.1 4.3 750.3 4.3 C 750.9 4.3 751.3 4.4 751.7 4.5 C 751.7 4.5 751.7 4.4 751.7 4.4 C 751.7 3.5 751.2 3.1 750.3 3.1 C 749.8 3.1 749.3 3.2 748.9 3.4 C 748.9 3.4 748.7 2.9 748.7 2.9 C 749.2 2.6 749.7 2.5 750.4 2.5 C 751 2.5 751.5 2.7 751.9 3 C 752.2 3.3 752.4 3.8 752.4 4.4 C 752.35 4.36 752.4 7.2 752.4 7.2 L 751.7 7.2 C 751.7 7.2 751.69 6.5 751.7 6.5 C 751.4 6.9 750.8 7.3 750 7.3 C 749.1 7.3 748.3 6.8 748.3 5.8 Z M 751.7 5.5 C 751.7 5.5 751.7 5 751.7 5 C 751.4 4.9 750.9 4.8 750.3 4.8 C 749.5 4.8 749 5.2 749 5.8 C 749 5.8 749 5.8 749 5.8 C 749 6.4 749.5 6.8 750.1 6.8 C 751 6.8 751.7 6.2 751.7 5.5 Z M 753.9 6 C 753.94 5.97 753.9 3.2 753.9 3.2 L 753.3 3.2 L 753.3 2.5 L 753.9 2.5 L 753.9 1.1 L 754.6 1.1 L 754.6 2.5 L 756.1 2.5 L 756.1 3.2 L 754.6 3.2 C 754.6 3.2 754.63 5.88 754.6 5.9 C 754.6 6.4 754.9 6.7 755.4 6.7 C 755.6 6.7 755.8 6.6 756.1 6.5 C 756.1 6.5 756.1 7.1 756.1 7.1 C 755.8 7.2 755.6 7.3 755.3 7.3 C 754.5 7.3 753.9 6.9 753.9 6 Z M 756.9 5.8 C 756.9 5.8 756.9 5.8 756.9 5.8 C 756.9 4.9 757.7 4.3 758.9 4.3 C 759.5 4.3 759.9 4.4 760.3 4.5 C 760.3 4.5 760.3 4.4 760.3 4.4 C 760.3 3.5 759.8 3.1 758.9 3.1 C 758.4 3.1 757.9 3.2 757.5 3.4 C 757.5 3.4 757.3 2.9 757.3 2.9 C 757.8 2.6 758.3 2.5 759 2.5 C 759.7 2.5 760.2 2.7 760.5 3 C 760.8 3.3 761 3.8 761 4.4 C 760.98 4.36 761 7.2 761 7.2 L 760.3 7.2 C 760.3 7.2 760.31 6.5 760.3 6.5 C 760 6.9 759.4 7.3 758.6 7.3 C 757.8 7.3 756.9 6.8 756.9 5.8 Z M 760.3 5.5 C 760.3 5.5 760.3 5 760.3 5 C 760 4.9 759.5 4.8 759 4.8 C 758.1 4.8 757.6 5.2 757.6 5.8 C 757.6 5.8 757.6 5.8 757.6 5.8 C 757.6 6.4 758.1 6.8 758.8 6.8 C 759.6 6.8 760.3 6.2 760.3 5.5 Z M 761.8 2.5 L 762.5 2.5 L 763.7 6.3 L 765 2.5 L 765.6 2.5 L 766.8 6.3 L 768.1 2.5 L 768.8 2.5 L 767.1 7.2 L 766.5 7.2 L 765.3 3.6 L 764 7.2 L 763.4 7.2 L 761.8 2.5 Z M 769.3 5.8 C 769.3 5.8 769.3 5.8 769.3 5.8 C 769.3 4.9 770.1 4.3 771.3 4.3 C 771.9 4.3 772.3 4.4 772.7 4.5 C 772.7 4.5 772.7 4.4 772.7 4.4 C 772.7 3.5 772.2 3.1 771.3 3.1 C 770.8 3.1 770.4 3.2 769.9 3.4 C 769.9 3.4 769.7 2.9 769.7 2.9 C 770.2 2.6 770.7 2.5 771.4 2.5 C 772.1 2.5 772.6 2.7 772.9 3 C 773.2 3.3 773.4 3.8 773.4 4.4 C 773.4 4.36 773.4 7.2 773.4 7.2 L 772.7 7.2 C 772.7 7.2 772.73 6.5 772.7 6.5 C 772.4 6.9 771.9 7.3 771 7.3 C 770.2 7.3 769.3 6.8 769.3 5.8 Z M 772.7 5.5 C 772.7 5.5 772.7 5 772.7 5 C 772.4 4.9 771.9 4.8 771.4 4.8 C 770.5 4.8 770 5.2 770 5.8 C 770 5.8 770 5.8 770 5.8 C 770 6.4 770.6 6.8 771.2 6.8 C 772 6.8 772.7 6.2 772.7 5.5 Z M 775 6 C 774.98 5.97 775 3.2 775 3.2 L 774.3 3.2 L 774.3 2.5 L 775 2.5 L 775 1.1 L 775.7 1.1 L 775.7 2.5 L 777.1 2.5 L 777.1 3.2 L 775.7 3.2 C 775.7 3.2 775.67 5.88 775.7 5.9 C 775.7 6.4 776 6.7 776.5 6.7 C 776.7 6.7 776.9 6.6 777.1 6.5 C 777.1 6.5 777.1 7.1 777.1 7.1 C 776.9 7.2 776.6 7.3 776.3 7.3 C 775.5 7.3 775 6.9 775 6 Z " stroke="none" fill="#fff"/>
  </g>
</svg>