<?xml version="1.0" standalone="no"?>
<!DOCTYPE svg PUBLIC "-//W3C//DTD SVG 1.1//EN" "http://www.w3.org/Graphics/SVG/1.1/DTD/svg11.dtd">
<svg xmlns="http://www.w3.org/2000/svg" version="1.1" width="185.2px" height="53px" viewBox="0 -9 185.2 53" style="top:-9px">
  <desc>LAYUNIN</desc>
  <defs/>
  <g id="Polygon17073">
    <path d="M 31.3 14.9 C 31.3 19.6 31.5 21.6 32 22.2 C 32.6 22.7 33.4 22.9 35.9 22.9 C 37.6 22.9 39 22.9 39.8 22 C 40.2 21.5 40.5 20.7 40.6 20.1 C 40.6 19.8 40.7 19.6 40.9 19.6 C 41 19.6 41.1 19.8 41.1 20.1 C 41.1 20.5 40.8 22.4 40.6 23.3 C 40.4 24.1 40.3 24.2 38.6 24.2 C 36.3 24.2 34.6 24.1 33.3 24.1 C 31.9 24 30.9 24 30 24 C 29.9 24 29.3 24 28.7 24 C 28 24.1 27.3 24.1 26.9 24.1 C 26.5 24.1 26.3 24 26.3 23.8 C 26.3 23.7 26.4 23.6 26.6 23.6 C 26.9 23.6 27.3 23.6 27.6 23.5 C 28.2 23.4 28.4 22.7 28.5 21.8 C 28.6 20.4 28.6 17.9 28.6 14.8 C 28.6 14.8 28.6 9.2 28.6 9.2 C 28.6 4.2 28.6 3.3 28.6 2.3 C 28.5 1.2 28.3 0.7 27.2 0.4 C 27 0.4 26.4 0.4 26.1 0.4 C 26 0.4 25.9 0.3 25.9 0.2 C 25.9 0 26 -0.1 26.4 -0.1 C 27.8 -0.1 29.8 0 30 0 C 30.2 0 32.5 -0.1 33.4 -0.1 C 33.8 -0.1 34 0 34 0.2 C 34 0.3 33.8 0.4 33.7 0.4 C 33.5 0.4 33 0.4 32.6 0.4 C 31.7 0.6 31.5 1.2 31.4 2.3 C 31.3 3.3 31.3 4.2 31.3 9.2 C 31.3 9.2 31.3 14.9 31.3 14.9 Z M 52.5 0.7 C 52.9 -0.4 53 -0.5 53.2 -0.5 C 53.4 -0.5 53.5 -0.4 53.9 0.6 C 54.4 1.8 59.4 15 61.4 19.9 C 62.5 22.8 63.5 23.3 64.1 23.5 C 64.6 23.6 65.1 23.6 65.4 23.6 C 65.6 23.6 65.7 23.7 65.7 23.8 C 65.7 24 65.4 24.1 65.1 24.1 C 64.6 24.1 62.3 24.1 60.1 24 C 59.5 24 59.1 24 59.1 23.8 C 59.1 23.7 59.2 23.6 59.3 23.6 C 59.5 23.5 59.7 23.2 59.5 22.7 C 59.5 22.7 56.6 14.8 56.6 14.8 C 56.5 14.7 56.4 14.7 56.3 14.7 C 56.3 14.7 49.4 14.7 49.4 14.7 C 49.2 14.7 49.1 14.8 49.1 14.9 C 49.1 14.9 47.1 20.6 47.1 20.6 C 46.9 21.4 46.7 22.1 46.7 22.7 C 46.7 23.4 47.4 23.6 47.9 23.6 C 47.9 23.6 48.2 23.6 48.2 23.6 C 48.5 23.6 48.6 23.7 48.6 23.8 C 48.6 24 48.4 24.1 48.1 24.1 C 47.3 24.1 45.9 24 45.6 24 C 45.2 24 43.5 24.1 42 24.1 C 41.5 24.1 41.4 24 41.4 23.8 C 41.4 23.7 41.5 23.6 41.6 23.6 C 41.9 23.6 42.3 23.6 42.6 23.6 C 44 23.4 44.7 22.2 45.3 20.6 C 45.3 20.6 52.5 0.7 52.5 0.7 Z M 55.8 13.5 C 56 13.5 56 13.4 56 13.3 C 56 13.3 52.9 4.6 52.9 4.6 C 52.8 4.2 52.6 4.2 52.5 4.6 C 52.5 4.6 49.6 13.3 49.6 13.3 C 49.6 13.4 49.6 13.5 49.7 13.5 C 49.7 13.5 55.8 13.5 55.8 13.5 Z M 72.3 15.8 C 72.3 14.1 71.9 13.4 71.5 12.4 C 71.3 11.9 67 4.9 65.9 3.2 C 65.1 2 64.3 1.2 63.7 0.9 C 63.2 0.5 62.6 0.4 62.3 0.4 C 62.2 0.4 62 0.3 62 0.1 C 62 0 62.2 -0.1 62.4 -0.1 C 63 -0.1 65.4 0 65.6 0 C 65.8 0 67 -0.1 68.3 -0.1 C 68.6 -0.1 68.7 0 68.7 0.1 C 68.7 0.3 68.5 0.3 68.2 0.4 C 68 0.5 67.8 0.7 67.8 1 C 67.8 1.4 68 1.8 68.2 2.2 C 68.7 3.2 73.5 11.4 74.1 12.4 C 74.7 11 78.8 4 79.4 2.9 C 79.8 2.3 80 1.7 80 1.3 C 80 0.9 79.8 0.5 79.5 0.4 C 79.2 0.3 79 0.3 79 0.1 C 79 0 79.2 -0.1 79.5 -0.1 C 80.3 -0.1 81.4 0 81.6 0 C 81.8 0 84.1 -0.1 84.7 -0.1 C 84.9 -0.1 85.1 0 85.1 0.1 C 85.1 0.3 85 0.4 84.7 0.4 C 84.4 0.4 83.8 0.5 83.2 0.8 C 82.6 1.2 82.2 1.6 81.5 2.4 C 80.5 3.7 76 11.2 75.4 12.6 C 75 13.8 75 14.8 75 15.8 C 75 15.8 75 18.6 75 18.6 C 75 19.1 75 20.4 75 21.8 C 75.1 22.7 75.4 23.4 76.4 23.5 C 76.8 23.6 77.5 23.6 77.8 23.6 C 78 23.6 78.1 23.7 78.1 23.8 C 78.1 24 77.9 24.1 77.5 24.1 C 75.8 24.1 73.8 24 73.6 24 C 73.4 24 71.4 24.1 70.5 24.1 C 70.1 24.1 70 24 70 23.8 C 70 23.7 70 23.6 70.2 23.6 C 70.5 23.6 70.9 23.6 71.2 23.5 C 71.8 23.4 72.1 22.7 72.2 21.8 C 72.3 20.4 72.3 19.1 72.3 18.6 C 72.3 18.6 72.3 15.8 72.3 15.8 Z M 87.8 9.2 C 87.8 4.2 87.8 3.3 87.7 2.3 C 87.7 1.2 87.4 0.7 86.3 0.4 C 86.1 0.4 85.5 0.4 85.3 0.4 C 85.1 0.4 85 0.3 85 0.2 C 85 0 85.2 -0.1 85.5 -0.1 C 87 -0.1 88.9 0 89.2 0 C 89.5 0 91.4 -0.1 92.4 -0.1 C 92.7 -0.1 92.9 0 92.9 0.2 C 92.9 0.3 92.7 0.4 92.6 0.4 C 92.4 0.4 92.2 0.4 91.8 0.4 C 91 0.6 90.7 1.2 90.6 2.3 C 90.6 3.3 90.6 4.2 90.6 9.2 C 90.6 9.2 90.6 13.7 90.6 13.7 C 90.6 18.3 91.6 20.3 93 21.6 C 94.5 23 96 23.3 97.8 23.3 C 99.8 23.3 101.7 22.4 102.8 21 C 104.3 19.2 104.7 16.5 104.7 13.2 C 104.7 13.2 104.7 9.2 104.7 9.2 C 104.7 4.2 104.7 3.3 104.6 2.3 C 104.6 1.2 104.3 0.7 103.2 0.4 C 103 0.4 102.4 0.4 102.2 0.4 C 102 0.4 101.9 0.3 101.9 0.2 C 101.9 0 102.1 -0.1 102.4 -0.1 C 103.8 -0.1 105.6 0 105.8 0 C 106 0 107.5 -0.1 108.5 -0.1 C 108.8 -0.1 109 0 109 0.2 C 109 0.3 108.9 0.4 108.7 0.4 C 108.5 0.4 108.3 0.4 107.9 0.4 C 107.1 0.6 106.8 1.2 106.8 2.3 C 106.7 3.3 106.7 4.2 106.7 9.2 C 106.7 9.2 106.7 12.6 106.7 12.6 C 106.7 16.1 106.3 19.9 103.8 22.2 C 101.4 24.2 99 24.5 97.2 24.5 C 96.1 24.5 92.8 24.4 90.6 22.3 C 89 20.8 87.8 18.5 87.8 13.9 C 87.8 13.9 87.8 9.2 87.8 9.2 Z M 117.1 19.7 C 117.1 22.4 117.4 23.2 118.3 23.5 C 118.9 23.6 119.6 23.6 119.9 23.6 C 120.1 23.6 120.2 23.7 120.2 23.8 C 120.2 24 120 24.1 119.6 24.1 C 117.8 24.1 116.5 24 116.2 24 C 115.9 24 114.6 24.1 113.1 24.1 C 112.8 24.1 112.6 24.1 112.6 23.8 C 112.6 23.7 112.7 23.6 112.9 23.6 C 113.1 23.6 113.7 23.6 114.2 23.5 C 115 23.2 115.1 22.3 115.1 19.4 C 115.1 19.4 115.2 1.1 115.2 1.1 C 115.2 -0.2 115.3 -0.5 115.5 -0.5 C 115.8 -0.5 116.3 0.2 116.6 0.5 C 117.1 1 121.9 6.2 126.8 11.5 C 130 14.8 133.5 18.8 134.5 19.8 C 134.5 19.8 134.2 3.6 134.2 3.6 C 134.1 1.5 133.9 0.8 132.9 0.5 C 132.3 0.4 131.6 0.4 131.3 0.4 C 131.1 0.4 131.1 0.3 131.1 0.1 C 131.1 -0.1 131.3 -0.1 131.7 -0.1 C 133.2 -0.1 134.7 0 135 0 C 135.4 0 136.5 -0.1 137.8 -0.1 C 138.1 -0.1 138.3 -0.1 138.3 0.1 C 138.3 0.3 138.2 0.4 138 0.4 C 137.8 0.4 137.6 0.4 137.2 0.4 C 136.2 0.7 136 1.4 136 3.3 C 136 3.3 136 22 136 22 C 136 24.2 135.9 24.3 135.7 24.3 C 135.4 24.3 135 24 133.4 22.3 C 133 22 128.4 17.2 125 13.6 C 121.3 9.6 117.7 5.6 116.6 4.4 C 116.6 4.4 117.1 19.7 117.1 19.7 Z M 149.2 14.8 C 149.2 17.9 149.2 20.4 149.4 21.8 C 149.4 22.7 149.6 23.4 150.6 23.5 C 151 23.6 151.8 23.6 152 23.6 C 152.2 23.6 152.3 23.7 152.3 23.8 C 152.3 24 152.1 24.1 151.8 24.1 C 150 24.1 148 24 147.8 24 C 147.7 24 145.7 24.1 144.7 24.1 C 144.4 24.1 144.2 24 144.2 23.8 C 144.2 23.7 144.3 23.6 144.5 23.6 C 144.7 23.6 145.1 23.6 145.4 23.5 C 146.1 23.4 146.2 22.7 146.3 21.8 C 146.5 20.4 146.5 17.9 146.5 14.8 C 146.5 14.8 146.5 9.2 146.5 9.2 C 146.5 4.2 146.5 3.3 146.4 2.3 C 146.4 1.2 146.1 0.6 145.4 0.5 C 145 0.4 144.6 0.4 144.4 0.4 C 144.2 0.4 144.1 0.3 144.1 0.2 C 144.1 0 144.3 -0.1 144.6 -0.1 C 145.7 -0.1 147.7 0 147.8 0 C 148 0 150 -0.1 151 -0.1 C 151.3 -0.1 151.5 0 151.5 0.2 C 151.5 0.3 151.4 0.4 151.2 0.4 C 151 0.4 150.8 0.4 150.4 0.4 C 149.6 0.6 149.3 1.2 149.3 2.3 C 149.2 3.3 149.2 4.2 149.2 9.2 C 149.2 9.2 149.2 14.8 149.2 14.8 Z M 161.4 19.7 C 161.5 22.4 161.8 23.2 162.7 23.5 C 163.3 23.6 164 23.6 164.3 23.6 C 164.5 23.6 164.6 23.7 164.6 23.8 C 164.6 24 164.4 24.1 164 24.1 C 162.2 24.1 160.9 24 160.6 24 C 160.3 24 159 24.1 157.5 24.1 C 157.2 24.1 157 24.1 157 23.8 C 157 23.7 157.1 23.6 157.3 23.6 C 157.5 23.6 158.1 23.6 158.6 23.5 C 159.4 23.2 159.5 22.3 159.5 19.4 C 159.5 19.4 159.6 1.1 159.6 1.1 C 159.6 -0.2 159.7 -0.5 159.9 -0.5 C 160.2 -0.5 160.7 0.2 161 0.5 C 161.5 1 166.3 6.2 171.2 11.5 C 174.4 14.8 177.9 18.8 178.9 19.8 C 178.9 19.8 178.5 3.6 178.5 3.6 C 178.5 1.5 178.3 0.8 177.3 0.5 C 176.7 0.4 176 0.4 175.7 0.4 C 175.5 0.4 175.5 0.3 175.5 0.1 C 175.5 -0.1 175.7 -0.1 176.1 -0.1 C 177.5 -0.1 179.1 0 179.4 0 C 179.8 0 180.8 -0.1 182.2 -0.1 C 182.5 -0.1 182.7 -0.1 182.7 0.1 C 182.7 0.3 182.6 0.4 182.4 0.4 C 182.2 0.4 182 0.4 181.6 0.4 C 180.6 0.7 180.4 1.4 180.4 3.3 C 180.4 3.3 180.4 22 180.4 22 C 180.4 24.2 180.3 24.3 180.1 24.3 C 179.8 24.3 179.4 24 177.7 22.3 C 177.4 22 172.8 17.2 169.4 13.6 C 165.7 9.6 162.1 5.6 161 4.4 C 161 4.4 161.4 19.7 161.4 19.7 Z " stroke="none" fill="#000"/>
  </g>
</svg>