<?xml version="1.0" standalone="no"?>
<!DOCTYPE svg PUBLIC "-//W3C//DTD SVG 1.1//EN" "http://www.w3.org/Graphics/SVG/1.1/DTD/svg11.dtd">
<svg xmlns="http://www.w3.org/2000/svg" version="1.1" width="122px" height="21.3px" viewBox="0 -4 122 21.3" style="top:-4px">
  <desc>BAYAN</desc>
  <defs/>
  <g id="Polygon19754">
    <path d="M 4.5 4.5 C 5.7 4.7 6.6 5.2 6.6 6.4 C 6.6 7.2 6.1 7.8 5.4 8.2 C 4.8 8.6 4 8.7 3.1 8.7 C 3.08 8.72 0.4 8.7 0.4 8.7 C 0.4 8.7 0.43 8.39 0.4 8.4 C 1.5 8.3 1.5 8.2 1.5 7.2 C 1.5 7.2 1.5 2.4 1.5 2.4 C 1.5 1.4 1.5 1.3 0.5 1.3 C 0.53 1.26 0.5 0.9 0.5 0.9 C 0.5 0.9 3.61 0.92 3.6 0.9 C 4.5 0.9 5 1.1 5.4 1.3 C 5.8 1.6 6.1 2.1 6.1 2.7 C 6.1 3.8 5.1 4.3 4.5 4.5 C 4.5 4.5 4.5 4.5 4.5 4.5 Z M 3.1 4.4 C 4.4 4.4 5 3.9 5 2.8 C 5 2 4.5 1.3 3.4 1.3 C 3.1 1.3 2.8 1.4 2.7 1.4 C 2.6 1.5 2.5 1.6 2.5 2 C 2.54 2.03 2.5 4.4 2.5 4.4 C 2.5 4.4 3.11 4.38 3.1 4.4 Z M 2.5 7.2 C 2.5 8.1 2.8 8.3 3.5 8.3 C 4.5 8.3 5.4 7.8 5.4 6.6 C 5.4 5.3 4.6 4.8 3.1 4.8 C 3.1 4.78 2.5 4.8 2.5 4.8 C 2.5 4.8 2.54 7.22 2.5 7.2 Z M 11.9 8.7 C 11.9 8.7 11.9 8.39 11.9 8.4 C 12.7 8.3 12.8 8.2 12.6 7.7 C 12.5 7.3 12.2 6.6 12 5.9 C 12 5.9 9.4 5.9 9.4 5.9 C 9.2 6.4 9 6.9 8.9 7.4 C 8.6 8.2 8.7 8.3 9.6 8.4 C 9.61 8.39 9.6 8.7 9.6 8.7 L 7 8.7 C 7 8.7 7.01 8.39 7 8.4 C 7.8 8.3 7.9 8.2 8.4 7.2 C 8.35 7.15 10.8 0.9 10.8 0.9 C 10.8 0.9 11.21 0.74 11.2 0.7 C 12 2.8 12.8 5.1 13.5 7.2 C 13.9 8.2 14.1 8.3 14.8 8.4 C 14.84 8.39 14.8 8.7 14.8 8.7 L 11.9 8.7 Z M 10.7 2.3 C 10.7 2.3 10.7 2.3 10.7 2.3 C 10.3 3.3 9.9 4.4 9.6 5.4 C 9.58 5.36 11.8 5.4 11.8 5.4 L 10.7 2.3 Z M 21.6 1.3 C 20.7 1.4 20.6 1.5 20.1 2.2 C 19.6 3.1 19.2 3.8 18.6 4.8 C 18.4 5.1 18.4 5.3 18.4 5.6 C 18.4 5.6 18.4 7.2 18.4 7.2 C 18.4 8.2 18.5 8.3 19.6 8.4 C 19.61 8.39 19.6 8.7 19.6 8.7 L 16.2 8.7 C 16.2 8.7 16.21 8.39 16.2 8.4 C 17.3 8.3 17.4 8.2 17.4 7.2 C 17.4 7.2 17.4 5.6 17.4 5.6 C 17.4 5.4 17.3 5.3 17.1 4.9 C 16.7 4.2 16.3 3.4 15.6 2.3 C 15.1 1.5 15 1.3 14.3 1.3 C 14.29 1.26 14.3 0.9 14.3 0.9 L 17.2 0.9 C 17.2 0.9 17.16 1.26 17.2 1.3 C 16.3 1.4 16.3 1.5 16.6 1.9 C 17.1 2.9 17.7 3.9 18.2 4.8 C 18.6 4 19.3 2.8 19.6 2.1 C 19.9 1.5 19.8 1.4 18.9 1.3 C 18.9 1.26 18.9 0.9 18.9 0.9 L 21.6 0.9 C 21.6 0.9 21.55 1.26 21.6 1.3 Z M 25.6 8.7 C 25.6 8.7 25.61 8.39 25.6 8.4 C 26.4 8.3 26.5 8.2 26.3 7.7 C 26.2 7.3 25.9 6.6 25.7 5.9 C 25.7 5.9 23.1 5.9 23.1 5.9 C 22.9 6.4 22.7 6.9 22.6 7.4 C 22.3 8.2 22.4 8.3 23.3 8.4 C 23.32 8.39 23.3 8.7 23.3 8.7 L 20.7 8.7 C 20.7 8.7 20.71 8.39 20.7 8.4 C 21.5 8.3 21.6 8.2 22.1 7.2 C 22.06 7.15 24.5 0.9 24.5 0.9 C 24.5 0.9 24.91 0.74 24.9 0.7 C 25.7 2.8 26.5 5.1 27.2 7.2 C 27.6 8.2 27.8 8.3 28.5 8.4 C 28.55 8.39 28.5 8.7 28.5 8.7 L 25.6 8.7 Z M 24.4 2.3 C 24.4 2.3 24.41 2.3 24.4 2.3 C 24 3.3 23.6 4.4 23.3 5.4 C 23.28 5.36 25.5 5.4 25.5 5.4 L 24.4 2.3 Z M 37.4 1.3 C 36.7 1.3 36.4 1.5 36.4 2 C 36.3 2.3 36.3 2.9 36.3 4 C 36.31 4 36.3 8.8 36.3 8.8 L 35.9 8.8 L 30.8 2.5 L 30.8 2.5 C 30.8 2.5 30.8 5.56 30.8 5.6 C 30.8 6.7 30.8 7.2 30.9 7.6 C 30.9 8.2 31.2 8.3 32 8.4 C 32.03 8.39 32 8.7 32 8.7 L 29.2 8.7 C 29.2 8.7 29.18 8.39 29.2 8.4 C 29.9 8.4 30.2 8.2 30.2 7.6 C 30.3 7.2 30.3 6.7 30.3 5.6 C 30.3 5.6 30.3 2.9 30.3 2.9 C 30.3 2 30.3 2 30.1 1.7 C 29.8 1.4 29.6 1.3 29 1.3 C 29 1.26 29 0.9 29 0.9 L 30.8 0.9 L 35.8 6.9 L 35.8 6.9 C 35.8 6.9 35.82 4 35.8 4 C 35.8 2.9 35.8 2.3 35.7 2 C 35.7 1.5 35.4 1.3 34.6 1.3 C 34.56 1.26 34.6 0.9 34.6 0.9 L 37.4 0.9 C 37.4 0.9 37.39 1.26 37.4 1.3 Z " stroke="none" fill="#000"/>
  </g>
</svg>