<?xml version="1.0" standalone="no"?>
<!DOCTYPE svg PUBLIC "-//W3C//DTD SVG 1.1//EN" "http://www.w3.org/Graphics/SVG/1.1/DTD/svg11.dtd">
<svg xmlns="http://www.w3.org/2000/svg" version="1.1" width="149px" height="27.5px" viewBox="0 -3 149 27.5" style="top:-3px">
  <desc>Jose Silverio Sobremonte at Orville Andrei Tan</desc>
  <defs/>
  <g id="Polygon37260">
    <path d="M 2.5 16.7 C 1.8 16.7 1.3 16.4 0.9 15.9 C 0.5 15.3 0.3 14.7 0.3 13.9 C 0.3 13.1 0.5 12.5 0.9 12 C 1.3 11.4 1.8 11.2 2.6 11.2 C 3.3 11.2 3.9 11.5 4.3 12 C 4.6 12.6 4.8 13.2 4.8 13.9 C 4.8 14.7 4.6 15.4 4.2 15.9 C 3.9 16.4 3.3 16.7 2.5 16.7 Z M 3.5 13.9 C 3.5 12.8 3.2 12.2 2.6 12.2 C 1.9 12.2 1.6 12.8 1.6 13.9 C 1.6 15.1 1.9 15.7 2.6 15.7 C 3.2 15.7 3.5 15.1 3.5 13.9 C 3.5 13.9 3.5 13.9 3.5 13.9 Z M 7.2 14.5 L 7.2 16.6 L 6 16.6 L 6 11.3 C 6 11.3 8.31 11.27 8.3 11.3 C 8.7 11.3 9.1 11.3 9.4 11.4 C 9.6 11.5 9.8 11.7 10 12 C 10.2 12.2 10.3 12.5 10.3 12.9 C 10.3 13.5 10 14 9.3 14.2 C 9.34 14.24 10.3 16.6 10.3 16.6 L 8.9 16.6 L 8.1 14.5 L 7.2 14.5 Z M 7.2 12.2 L 7.2 13.6 C 7.2 13.6 7.99 13.58 8 13.6 C 8.2 13.6 8.4 13.6 8.5 13.5 C 8.7 13.5 8.8 13.4 8.8 13.3 C 8.9 13.2 9 13 9 12.9 C 9 12.7 8.9 12.6 8.8 12.5 C 8.8 12.4 8.7 12.3 8.6 12.3 C 8.4 12.2 8.3 12.2 8 12.2 C 7.96 12.22 7.2 12.2 7.2 12.2 Z M 15.4 11.3 L 13.8 16.6 L 12.5 16.6 L 10.9 11.3 L 12.2 11.3 L 13.3 15.1 L 14.4 11.3 L 15.4 11.3 Z M 17.5 11.3 L 17.5 16.6 L 16.2 16.6 L 16.2 11.3 L 17.5 11.3 Z M 20.1 15.5 L 22.2 15.5 L 22.2 16.6 L 18.9 16.6 L 18.9 11.3 L 20.1 11.3 L 20.1 15.5 Z M 24.5 15.5 L 26.6 15.5 L 26.6 16.6 L 23.2 16.6 L 23.2 11.3 L 24.5 11.3 L 24.5 15.5 Z M 31.4 12.3 L 28.8 12.3 L 28.8 13.4 L 30.8 13.4 L 30.8 14.4 L 28.8 14.4 L 28.8 15.5 L 31.4 15.5 L 31.4 16.6 L 27.5 16.6 L 27.5 11.3 L 31.4 11.3 L 31.4 12.3 Z M 37.4 11.3 L 39 16.6 L 37.7 16.6 L 37.4 15.5 L 35.6 15.5 L 35.3 16.6 L 34.2 16.6 L 35.9 11.3 L 37.4 11.3 Z M 35.9 14.5 L 37.1 14.5 L 36.5 12.6 L 35.9 14.5 Z M 44 11.3 L 44 16.6 L 43 16.6 C 43 16.6 40.88 13 40.9 13 C 40.9 13.1 40.9 13.2 40.9 13.2 C 40.9 13.3 40.9 13.3 40.9 13.4 C 40.9 13.41 40.9 16.6 40.9 16.6 L 39.9 16.6 L 39.9 11.3 L 41.3 11.3 C 41.3 11.3 43.09 14.41 43.1 14.4 C 43.1 14.3 43.1 14.1 43.1 14.1 C 43.06 14.06 43.1 11.3 43.1 11.3 L 44 11.3 Z M 45.4 11.3 C 45.4 11.3 47.05 11.27 47 11.3 C 47.7 11.3 48.2 11.4 48.5 11.5 C 48.9 11.7 49.1 12 49.4 12.4 C 49.7 12.8 49.8 13.3 49.8 13.9 C 49.8 14.7 49.6 15.3 49.1 15.8 C 48.7 16.3 48 16.6 47.3 16.6 C 47.25 16.6 45.4 16.6 45.4 16.6 L 45.4 11.3 Z M 46.6 12.3 L 46.6 15.6 C 46.6 15.6 47.16 15.6 47.2 15.6 C 47.6 15.6 48 15.4 48.2 15.1 C 48.4 14.7 48.5 14.3 48.5 13.9 C 48.5 13.6 48.4 13.3 48.3 13 C 48.2 12.7 48 12.5 47.8 12.4 C 47.7 12.3 47.4 12.3 47.2 12.3 C 47.17 12.25 46.6 12.3 46.6 12.3 Z M 52.2 14.5 L 52.2 16.6 L 50.9 16.6 L 50.9 11.3 C 50.9 11.3 53.27 11.27 53.3 11.3 C 53.7 11.3 54 11.3 54.3 11.4 C 54.6 11.5 54.8 11.7 55 12 C 55.1 12.2 55.2 12.5 55.2 12.9 C 55.2 13.5 54.9 14 54.3 14.2 C 54.29 14.24 55.3 16.6 55.3 16.6 L 53.9 16.6 L 53.1 14.5 L 52.2 14.5 Z M 52.2 12.2 L 52.2 13.6 C 52.2 13.6 52.95 13.58 52.9 13.6 C 53.2 13.6 53.4 13.6 53.5 13.5 C 53.6 13.5 53.7 13.4 53.8 13.3 C 53.9 13.2 53.9 13 53.9 12.9 C 53.9 12.7 53.9 12.6 53.8 12.5 C 53.7 12.4 53.6 12.3 53.5 12.3 C 53.4 12.2 53.2 12.2 52.9 12.2 C 52.92 12.22 52.2 12.2 52.2 12.2 Z M 60.3 12.3 L 57.8 12.3 L 57.8 13.4 L 59.8 13.4 L 59.8 14.4 L 57.8 14.4 L 57.8 15.5 L 60.3 15.5 L 60.3 16.6 L 56.5 16.6 L 56.5 11.3 L 60.3 11.3 L 60.3 12.3 Z M 62.6 11.3 L 62.6 16.6 L 61.4 16.6 L 61.4 11.3 L 62.6 11.3 Z M 69.7 11.3 L 69.7 12.3 L 68.4 12.3 L 68.4 16.6 L 67.1 16.6 L 67.1 12.3 L 65.8 12.3 L 65.8 11.3 L 69.7 11.3 Z M 72.8 11.3 L 74.5 16.6 L 73.1 16.6 L 72.8 15.5 L 71.1 15.5 L 70.8 16.6 L 69.7 16.6 L 71.4 11.3 L 72.8 11.3 Z M 71.4 14.5 L 72.5 14.5 L 72 12.6 L 71.4 14.5 Z M 79.5 11.3 L 79.5 16.6 L 78.4 16.6 C 78.4 16.6 76.33 13 76.3 13 C 76.3 13.1 76.3 13.2 76.3 13.2 C 76.3 13.3 76.4 13.3 76.4 13.4 C 76.35 13.41 76.4 16.6 76.4 16.6 L 75.4 16.6 L 75.4 11.3 L 76.7 11.3 C 76.7 11.3 78.54 14.41 78.5 14.4 C 78.5 14.3 78.5 14.1 78.5 14.1 C 78.52 14.06 78.5 11.3 78.5 11.3 L 79.5 11.3 Z " stroke="none" fill="#000"/>
  </g>
  <g id="Polygon37259">
    <path d="M 2.6 0.3 C 2.6 0.3 2.57 4.07 2.6 4.1 C 2.6 4.6 2.4 5 2.2 5.3 C 1.9 5.6 1.5 5.7 0.9 5.7 C 0.6 5.7 0.4 5.7 0.1 5.6 C 0.1 5.6 0.1 4.6 0.1 4.6 C 0.3 4.6 0.5 4.6 0.7 4.6 C 0.8 4.6 1 4.6 1.1 4.5 C 1.2 4.5 1.2 4.4 1.3 4.3 C 1.3 4.3 1.3 4.1 1.3 3.9 C 1.32 3.92 1.3 0.3 1.3 0.3 L 2.6 0.3 Z M 5.9 5.7 C 5.2 5.7 4.6 5.4 4.2 4.9 C 3.8 4.3 3.6 3.7 3.6 2.9 C 3.6 2.1 3.8 1.5 4.2 1 C 4.6 0.4 5.2 0.2 5.9 0.2 C 6.7 0.2 7.3 0.5 7.6 1 C 8 1.6 8.2 2.2 8.2 2.9 C 8.2 3.7 8 4.4 7.6 4.9 C 7.2 5.4 6.7 5.7 5.9 5.7 Z M 6.9 2.9 C 6.9 1.8 6.6 1.2 5.9 1.2 C 5.3 1.2 5 1.8 5 2.9 C 5 4.1 5.3 4.7 5.9 4.7 C 6.6 4.7 6.9 4.1 6.9 2.9 C 6.9 2.9 6.9 2.9 6.9 2.9 Z M 11 0.2 C 12 0.2 12.7 0.6 13 1.4 C 13 1.4 12 1.8 12 1.8 C 11.8 1.4 11.5 1.2 11 1.2 C 10.6 1.2 10.3 1.3 10.3 1.6 C 10.3 1.8 10.4 1.9 10.4 2 C 10.5 2.1 10.7 2.1 11.1 2.2 C 11.6 2.3 12 2.4 12.3 2.5 C 12.5 2.6 12.7 2.8 12.9 3.1 C 13.1 3.3 13.2 3.6 13.2 3.9 C 13.2 4.4 13 4.8 12.6 5.2 C 12.2 5.5 11.7 5.7 11 5.7 C 10.4 5.7 9.9 5.6 9.6 5.3 C 9.2 5.1 8.9 4.7 8.8 4.2 C 8.8 4.2 10 3.9 10 3.9 C 10.1 4.4 10.5 4.7 11 4.7 C 11.3 4.7 11.5 4.6 11.7 4.5 C 11.8 4.4 11.9 4.3 11.9 4.1 C 11.9 4 11.8 3.8 11.7 3.8 C 11.6 3.7 11.3 3.6 11 3.5 C 10.3 3.4 9.8 3.2 9.5 2.9 C 9.2 2.7 9.1 2.3 9.1 1.9 C 9.1 1.4 9.3 1 9.6 0.7 C 9.9 0.4 10.4 0.2 11 0.2 C 11 0.2 11 0.2 11 0.2 Z M 18.1 1.3 L 15.6 1.3 L 15.6 2.4 L 17.6 2.4 L 17.6 3.4 L 15.6 3.4 L 15.6 4.5 L 18.1 4.5 L 18.1 5.6 L 14.3 5.6 L 14.3 0.3 L 18.1 0.3 L 18.1 1.3 Z M 23.2 0.2 C 24.2 0.2 24.9 0.6 25.2 1.4 C 25.2 1.4 24.1 1.8 24.1 1.8 C 24 1.4 23.7 1.2 23.2 1.2 C 22.7 1.2 22.5 1.3 22.5 1.6 C 22.5 1.8 22.5 1.9 22.6 2 C 22.7 2.1 22.9 2.1 23.2 2.2 C 23.8 2.3 24.2 2.4 24.4 2.5 C 24.7 2.6 24.9 2.8 25.1 3.1 C 25.2 3.3 25.3 3.6 25.3 3.9 C 25.3 4.4 25.1 4.8 24.8 5.2 C 24.4 5.5 23.9 5.7 23.1 5.7 C 22.6 5.7 22.1 5.6 21.7 5.3 C 21.3 5.1 21.1 4.7 21 4.2 C 21 4.2 22.1 3.9 22.1 3.9 C 22.3 4.4 22.6 4.7 23.2 4.7 C 23.5 4.7 23.7 4.6 23.8 4.5 C 24 4.4 24.1 4.3 24.1 4.1 C 24.1 4 24 3.8 23.9 3.8 C 23.7 3.7 23.5 3.6 23.1 3.5 C 22.4 3.4 22 3.2 21.7 2.9 C 21.4 2.7 21.2 2.3 21.2 1.9 C 21.2 1.4 21.4 1 21.8 0.7 C 22.1 0.4 22.6 0.2 23.2 0.2 C 23.2 0.2 23.2 0.2 23.2 0.2 Z M 27.7 0.3 L 27.7 5.6 L 26.5 5.6 L 26.5 0.3 L 27.7 0.3 Z M 30.4 4.5 L 32.5 4.5 L 32.5 5.6 L 29.1 5.6 L 29.1 0.3 L 30.4 0.3 L 30.4 4.5 Z M 37 0.3 L 35.4 5.6 L 34.1 5.6 L 32.5 0.3 L 33.8 0.3 L 34.9 4.1 L 36 0.3 L 37 0.3 Z M 41.6 1.3 L 39.1 1.3 L 39.1 2.4 L 41.1 2.4 L 41.1 3.4 L 39.1 3.4 L 39.1 4.5 L 41.6 4.5 L 41.6 5.6 L 37.8 5.6 L 37.8 0.3 L 41.6 0.3 L 41.6 1.3 Z M 44 3.5 L 44 5.6 L 42.7 5.6 L 42.7 0.3 C 42.7 0.3 45.05 0.27 45.1 0.3 C 45.5 0.3 45.8 0.3 46.1 0.4 C 46.4 0.5 46.6 0.7 46.7 1 C 46.9 1.2 47 1.5 47 1.9 C 47 2.5 46.7 3 46.1 3.2 C 46.08 3.24 47.1 5.6 47.1 5.6 L 45.7 5.6 L 44.9 3.5 L 44 3.5 Z M 44 1.2 L 44 2.6 C 44 2.6 44.73 2.58 44.7 2.6 C 45 2.6 45.2 2.6 45.3 2.5 C 45.4 2.5 45.5 2.4 45.6 2.3 C 45.7 2.2 45.7 2 45.7 1.9 C 45.7 1.7 45.7 1.6 45.6 1.5 C 45.5 1.4 45.4 1.3 45.3 1.3 C 45.2 1.2 45 1.2 44.7 1.2 C 44.7 1.22 44 1.2 44 1.2 Z M 49.5 0.3 L 49.5 5.6 L 48.3 5.6 L 48.3 0.3 L 49.5 0.3 Z M 52.9 5.7 C 52.2 5.7 51.7 5.4 51.3 4.9 C 50.9 4.3 50.7 3.7 50.7 2.9 C 50.7 2.1 50.9 1.5 51.3 1 C 51.7 0.4 52.2 0.2 53 0.2 C 53.7 0.2 54.3 0.5 54.7 1 C 55 1.6 55.2 2.2 55.2 2.9 C 55.2 3.7 55 4.4 54.6 4.9 C 54.2 5.4 53.7 5.7 52.9 5.7 Z M 53.9 2.9 C 53.9 1.8 53.6 1.2 53 1.2 C 52.3 1.2 52 1.8 52 2.9 C 52 4.1 52.3 4.7 53 4.7 C 53.6 4.7 53.9 4.1 53.9 2.9 C 53.9 2.9 53.9 2.9 53.9 2.9 Z M 60.3 0.2 C 61.4 0.2 62.1 0.6 62.4 1.4 C 62.4 1.4 61.3 1.8 61.3 1.8 C 61.2 1.4 60.9 1.2 60.4 1.2 C 59.9 1.2 59.6 1.3 59.6 1.6 C 59.6 1.8 59.7 1.9 59.8 2 C 59.9 2.1 60.1 2.1 60.4 2.2 C 61 2.3 61.4 2.4 61.6 2.5 C 61.9 2.6 62.1 2.8 62.2 3.1 C 62.4 3.3 62.5 3.6 62.5 3.9 C 62.5 4.4 62.3 4.8 61.9 5.2 C 61.6 5.5 61 5.7 60.3 5.7 C 59.8 5.7 59.3 5.6 58.9 5.3 C 58.5 5.1 58.3 4.7 58.1 4.2 C 58.1 4.2 59.3 3.9 59.3 3.9 C 59.4 4.4 59.8 4.7 60.4 4.7 C 60.7 4.7 60.9 4.6 61 4.5 C 61.2 4.4 61.2 4.3 61.2 4.1 C 61.2 4 61.2 3.8 61 3.8 C 60.9 3.7 60.7 3.6 60.3 3.5 C 59.6 3.4 59.1 3.2 58.9 2.9 C 58.6 2.7 58.4 2.3 58.4 1.9 C 58.4 1.4 58.6 1 58.9 0.7 C 59.3 0.4 59.8 0.2 60.3 0.2 C 60.3 0.2 60.3 0.2 60.3 0.2 Z M 65.6 5.7 C 64.9 5.7 64.4 5.4 64 4.9 C 63.6 4.3 63.4 3.7 63.4 2.9 C 63.4 2.1 63.6 1.5 64 1 C 64.4 0.4 64.9 0.2 65.7 0.2 C 66.4 0.2 67 0.5 67.4 1 C 67.7 1.6 67.9 2.2 67.9 2.9 C 67.9 3.7 67.7 4.4 67.4 4.9 C 67 5.4 66.4 5.7 65.6 5.7 Z M 66.6 2.9 C 66.6 1.8 66.3 1.2 65.7 1.2 C 65 1.2 64.7 1.8 64.7 2.9 C 64.7 4.1 65 4.7 65.7 4.7 C 66.3 4.7 66.6 4.1 66.6 2.9 C 66.6 2.9 66.6 2.9 66.6 2.9 Z M 69.1 0.3 C 69.1 0.3 71.56 0.27 71.6 0.3 C 72 0.3 72.3 0.3 72.6 0.4 C 72.8 0.5 73 0.7 73.1 0.9 C 73.3 1.1 73.3 1.4 73.3 1.6 C 73.3 2.2 73 2.6 72.4 2.8 C 72.7 2.9 73 3.1 73.2 3.3 C 73.4 3.6 73.5 3.8 73.5 4.1 C 73.5 4.5 73.3 4.9 73 5.2 C 72.7 5.5 72.2 5.6 71.6 5.6 C 71.56 5.6 69.1 5.6 69.1 5.6 L 69.1 0.3 Z M 70.3 1.2 L 70.3 2.4 C 70.3 2.4 71.26 2.38 71.3 2.4 C 71.6 2.4 71.8 2.3 71.9 2.2 C 72 2 72.1 1.9 72.1 1.8 C 72.1 1.6 72 1.5 71.9 1.4 C 71.9 1.3 71.8 1.3 71.7 1.2 C 71.6 1.2 71.4 1.2 71.2 1.2 C 71.17 1.21 70.3 1.2 70.3 1.2 Z M 70.3 3.3 L 70.3 4.6 C 70.3 4.6 71.28 4.61 71.3 4.6 C 71.6 4.6 71.8 4.6 72 4.4 C 72.1 4.3 72.2 4.2 72.2 4 C 72.2 3.8 72.1 3.6 72 3.5 C 71.8 3.4 71.6 3.3 71.3 3.3 C 71.33 3.33 70.3 3.3 70.3 3.3 Z M 75.9 3.5 L 75.9 5.6 L 74.6 5.6 L 74.6 0.3 C 74.6 0.3 76.95 0.27 76.9 0.3 C 77.4 0.3 77.7 0.3 78 0.4 C 78.3 0.5 78.5 0.7 78.6 1 C 78.8 1.2 78.9 1.5 78.9 1.9 C 78.9 2.5 78.6 3 78 3.2 C 77.97 3.24 79 5.6 79 5.6 L 77.6 5.6 L 76.8 3.5 L 75.9 3.5 Z M 75.9 1.2 L 75.9 2.6 C 75.9 2.6 76.63 2.58 76.6 2.6 C 76.9 2.6 77.1 2.6 77.2 2.5 C 77.3 2.5 77.4 2.4 77.5 2.3 C 77.6 2.2 77.6 2 77.6 1.9 C 77.6 1.7 77.6 1.6 77.5 1.5 C 77.4 1.4 77.3 1.3 77.2 1.3 C 77.1 1.2 76.9 1.2 76.6 1.2 C 76.6 1.22 75.9 1.2 75.9 1.2 Z M 84 1.3 L 81.5 1.3 L 81.5 2.4 L 83.4 2.4 L 83.4 3.4 L 81.5 3.4 L 81.5 4.5 L 84 4.5 L 84 5.6 L 80.2 5.6 L 80.2 0.3 L 84 0.3 L 84 1.3 Z M 87.4 5.6 L 86.1 1.3 L 86.1 5.6 L 85.1 5.6 L 85.1 0.3 L 87 0.3 L 87.9 3.5 L 88.9 0.3 L 90.9 0.3 L 90.9 5.6 L 89.6 5.6 L 89.6 1.3 L 88.3 5.6 L 87.4 5.6 Z M 94.3 5.7 C 93.5 5.7 93 5.4 92.6 4.9 C 92.2 4.3 92 3.7 92 2.9 C 92 2.1 92.2 1.5 92.6 1 C 93 0.4 93.6 0.2 94.3 0.2 C 95 0.2 95.6 0.5 96 1 C 96.4 1.6 96.6 2.2 96.6 2.9 C 96.6 3.7 96.4 4.4 96 4.9 C 95.6 5.4 95 5.7 94.3 5.7 Z M 95.2 2.9 C 95.2 1.8 94.9 1.2 94.3 1.2 C 93.6 1.2 93.3 1.8 93.3 2.9 C 93.3 4.1 93.6 4.7 94.3 4.7 C 94.9 4.7 95.2 4.1 95.2 2.9 C 95.2 2.9 95.2 2.9 95.2 2.9 Z M 101.8 0.3 L 101.8 5.6 L 100.7 5.6 C 100.7 5.6 98.64 2 98.6 2 C 98.6 2.1 98.6 2.2 98.6 2.2 C 98.7 2.3 98.7 2.3 98.7 2.4 C 98.67 2.41 98.7 5.6 98.7 5.6 L 97.7 5.6 L 97.7 0.3 L 99 0.3 C 99 0.3 100.85 3.41 100.9 3.4 C 100.8 3.3 100.8 3.1 100.8 3.1 C 100.83 3.06 100.8 0.3 100.8 0.3 L 101.8 0.3 Z M 106.6 0.3 L 106.6 1.3 L 105.2 1.3 L 105.2 5.6 L 104 5.6 L 104 1.3 L 102.6 1.3 L 102.6 0.3 L 106.6 0.3 Z M 111.2 1.3 L 108.7 1.3 L 108.7 2.4 L 110.7 2.4 L 110.7 3.4 L 108.7 3.4 L 108.7 4.5 L 111.2 4.5 L 111.2 5.6 L 107.4 5.6 L 107.4 0.3 L 111.2 0.3 L 111.2 1.3 Z M 117.2 0.3 L 118.9 5.6 L 117.6 5.6 L 117.2 4.5 L 115.5 4.5 L 115.2 5.6 L 114.1 5.6 L 115.8 0.3 L 117.2 0.3 Z M 115.8 3.5 L 116.9 3.5 L 116.4 1.6 L 115.8 3.5 Z M 122.8 0.3 L 122.8 1.3 L 121.5 1.3 L 121.5 5.6 L 120.2 5.6 L 120.2 1.3 L 118.9 1.3 L 118.9 0.3 L 122.8 0.3 Z " stroke="none" fill="#000"/>
  </g>
</svg>