<?xml version="1.0" standalone="no"?>
<!DOCTYPE svg PUBLIC "-//W3C//DTD SVG 1.1//EN" "http://www.w3.org/Graphics/SVG/1.1/DTD/svg11.dtd">
<svg xmlns="http://www.w3.org/2000/svg" version="1.1" width="120px" height="13.9px" viewBox="0 -1 120 13.9" style="top:-1px">
  <desc>SEA ICON p 18</desc>
  <defs/>
  <g id="Polygon37669">
    <path d="M 49.9 1.9 C 49.9 1.9 49 2.7 49 2.7 C 48.7 2.3 48.3 2.1 48 2.1 C 47.8 2.1 47.7 2.1 47.6 2.2 C 47.5 2.3 47.5 2.4 47.5 2.5 C 47.5 2.6 47.5 2.7 47.6 2.8 C 47.7 2.9 48 3.2 48.5 3.6 C 48.9 4 49.2 4.3 49.3 4.4 C 49.6 4.6 49.7 4.8 49.8 5.1 C 50 5.3 50 5.6 50 5.8 C 50 6.4 49.8 6.8 49.5 7.1 C 49.1 7.5 48.6 7.7 48 7.7 C 47.6 7.7 47.2 7.6 46.8 7.3 C 46.5 7.1 46.2 6.7 45.9 6.3 C 45.9 6.3 47 5.6 47 5.6 C 47.3 6.2 47.6 6.5 48 6.5 C 48.3 6.5 48.4 6.4 48.6 6.3 C 48.7 6.2 48.8 6 48.8 5.9 C 48.8 5.7 48.7 5.6 48.6 5.4 C 48.5 5.3 48.3 5.1 47.9 4.8 C 47.2 4.2 46.8 3.8 46.6 3.4 C 46.3 3.1 46.2 2.8 46.2 2.5 C 46.2 2.1 46.4 1.7 46.8 1.4 C 47.1 1 47.5 0.9 48 0.9 C 48.3 0.9 48.7 1 48.9 1.1 C 49.2 1.2 49.6 1.5 49.9 1.9 Z M 51.2 1 L 54.7 1 L 54.7 2.2 L 52.4 2.2 L 52.4 3.4 L 54.7 3.4 L 54.7 4.6 L 52.4 4.6 L 52.4 6.3 L 54.7 6.3 L 54.7 7.5 L 51.2 7.5 L 51.2 1 Z M 57.8 1 L 59.1 1 L 61.6 7.5 L 60.3 7.5 L 59.8 6.2 L 57.1 6.2 L 56.6 7.5 L 55.3 7.5 L 57.8 1 Z M 58.5 2.8 L 57.6 5 L 59.3 5 L 58.5 2.8 Z M 64.9 1 L 66.2 1 L 66.2 7.5 L 64.9 7.5 L 64.9 1 Z M 73.5 2.2 C 73.5 2.2 72.6 3 72.6 3 C 72 2.4 71.4 2.1 70.7 2.1 C 70 2.1 69.5 2.3 69.1 2.7 C 68.7 3.1 68.5 3.6 68.5 4.3 C 68.5 4.7 68.6 5.1 68.7 5.4 C 68.9 5.7 69.2 6 69.5 6.2 C 69.9 6.4 70.3 6.5 70.7 6.5 C 71 6.5 71.4 6.4 71.7 6.3 C 72 6.1 72.3 5.9 72.6 5.6 C 72.6 5.6 73.5 6.4 73.5 6.4 C 73 6.9 72.5 7.2 72.1 7.4 C 71.7 7.6 71.2 7.7 70.7 7.7 C 69.7 7.7 68.8 7.3 68.2 6.7 C 67.6 6.1 67.2 5.3 67.2 4.3 C 67.2 3.6 67.4 3 67.7 2.5 C 68 2 68.4 1.6 68.9 1.3 C 69.5 1 70 0.9 70.7 0.9 C 71.2 0.9 71.7 1 72.2 1.2 C 72.7 1.4 73.1 1.8 73.5 2.2 Z M 77.6 0.9 C 78.5 0.9 79.3 1.2 80 1.9 C 80.6 2.5 81 3.3 81 4.3 C 81 5.2 80.6 6 80 6.7 C 79.3 7.3 78.6 7.7 77.6 7.7 C 76.7 7.7 75.9 7.3 75.2 6.7 C 74.6 6 74.2 5.2 74.2 4.3 C 74.2 3.7 74.4 3.1 74.7 2.6 C 75 2 75.4 1.6 75.9 1.3 C 76.5 1 77 0.9 77.6 0.9 Z M 77.6 2.1 C 77 2.1 76.5 2.3 76.1 2.7 C 75.7 3.1 75.5 3.6 75.5 4.3 C 75.5 5 75.7 5.6 76.3 6 C 76.7 6.3 77.1 6.5 77.6 6.5 C 78.2 6.5 78.7 6.3 79.1 5.8 C 79.5 5.4 79.7 4.9 79.7 4.3 C 79.7 3.7 79.5 3.1 79.1 2.7 C 78.7 2.3 78.2 2.1 77.6 2.1 Z M 82.1 1 L 83.3 1 L 86.1 5.3 L 86.1 1 L 87.3 1 L 87.3 7.5 L 86.1 7.5 L 83.4 3.3 L 83.4 7.5 L 82.1 7.5 L 82.1 1 Z M 88.6 2.6 L 88.6 1.6 L 92.9 3.8 L 92.9 4.8 L 88.6 7 L 88.6 5.9 L 91.7 4.3 L 88.6 2.6 Z M 94 2.6 L 94 1.6 L 98.3 3.8 L 98.3 4.8 L 94 7 L 94 5.9 L 97.1 4.3 L 94 2.6 Z M 103.2 2.7 C 103.2 2.7 103.17 3.25 103.2 3.2 C 103.4 3 103.6 2.9 103.9 2.8 C 104.1 2.7 104.4 2.6 104.7 2.6 C 105.3 2.6 105.8 2.8 106.3 3.3 C 106.7 3.8 106.9 4.4 106.9 5.1 C 106.9 5.8 106.7 6.4 106.2 6.9 C 105.8 7.4 105.3 7.6 104.6 7.6 C 104.4 7.6 104.1 7.6 103.9 7.5 C 103.6 7.4 103.4 7.2 103.2 7 C 103.17 7 103.2 9.3 103.2 9.3 L 102 9.3 L 102 2.7 L 103.2 2.7 Z M 104.4 3.7 C 104 3.7 103.7 3.8 103.5 4.1 C 103.2 4.4 103.1 4.7 103.1 5.1 C 103.1 5.5 103.2 5.9 103.5 6.1 C 103.7 6.4 104 6.5 104.4 6.5 C 104.8 6.5 105.1 6.4 105.4 6.1 C 105.6 5.9 105.7 5.5 105.7 5.1 C 105.7 4.7 105.6 4.4 105.4 4.1 C 105.1 3.8 104.8 3.7 104.4 3.7 Z M 108.6 6.3 C 108.8 6.3 108.9 6.3 109.1 6.5 C 109.2 6.6 109.3 6.7 109.3 6.9 C 109.3 7.1 109.2 7.3 109.1 7.4 C 108.9 7.6 108.8 7.6 108.6 7.6 C 108.4 7.6 108.2 7.6 108.1 7.4 C 107.9 7.3 107.9 7.1 107.9 6.9 C 107.9 6.7 107.9 6.6 108.1 6.5 C 108.2 6.3 108.4 6.3 108.6 6.3 Z M 111.3 1 L 113.1 1 L 113.1 7.5 L 111.9 7.5 L 111.9 2.2 L 110.6 2.2 L 111.3 1 Z M 118.7 4 C 119 4.2 119.2 4.4 119.4 4.7 C 119.6 5 119.6 5.3 119.6 5.7 C 119.6 6 119.5 6.4 119.4 6.7 C 119.2 7 118.9 7.3 118.6 7.4 C 118.3 7.6 117.9 7.7 117.4 7.7 C 116.9 7.7 116.5 7.6 116.2 7.4 C 115.9 7.3 115.6 7 115.4 6.7 C 115.2 6.4 115.1 6.1 115.1 5.7 C 115.1 5.3 115.2 5 115.4 4.7 C 115.5 4.5 115.7 4.2 116 4 C 115.8 3.8 115.7 3.6 115.6 3.4 C 115.5 3.2 115.4 2.9 115.4 2.7 C 115.4 2.3 115.5 2 115.7 1.8 C 115.9 1.5 116.1 1.3 116.4 1.1 C 116.7 1 117 0.9 117.4 0.9 C 117.8 0.9 118.1 1 118.4 1.1 C 118.7 1.3 118.9 1.5 119.1 1.8 C 119.2 2.1 119.3 2.4 119.3 2.7 C 119.3 2.9 119.3 3.1 119.2 3.3 C 119.1 3.5 118.9 3.8 118.7 4 Z M 117.4 2.1 C 117.1 2.1 117 2.1 116.9 2.3 C 116.7 2.4 116.7 2.6 116.7 2.8 C 116.7 3 116.7 3.2 116.9 3.3 C 117 3.4 117.2 3.5 117.4 3.5 C 117.6 3.5 117.8 3.4 117.9 3.3 C 118 3.2 118.1 3 118.1 2.8 C 118.1 2.6 118 2.4 117.9 2.3 C 117.7 2.1 117.6 2.1 117.4 2.1 Z M 117.4 4.7 C 117.1 4.7 116.9 4.7 116.7 4.9 C 116.4 5.1 116.3 5.3 116.3 5.6 C 116.3 5.8 116.4 6.1 116.6 6.2 C 116.8 6.4 117.1 6.5 117.4 6.5 C 117.7 6.5 117.9 6.4 118.1 6.2 C 118.3 6.1 118.4 5.9 118.4 5.6 C 118.4 5.3 118.3 5.1 118.1 4.9 C 117.9 4.7 117.7 4.7 117.4 4.7 Z " stroke="none" fill="#000"/>
  </g>
</svg>