<?xml version="1.0" standalone="no"?>
<!DOCTYPE svg PUBLIC "-//W3C//DTD SVG 1.1//EN" "http://www.w3.org/Graphics/SVG/1.1/DTD/svg11.dtd">
<svg xmlns="http://www.w3.org/2000/svg" version="1.1" width="472px" height="111.3px" viewBox="0 -10 472 111.3" style="top:-10px">
  <desc>Mataas na edukasyon tungo sa inobasyon at inklusibong kaunlaran, handog ng START Hub</desc>
  <defs/>
  <g id="Polygon13446">
    <path d="M 0.5 76 C 2.3 75.9 2.4 75.8 2.4 74.6 C 2.4 74.6 2.4 60.7 2.4 60.7 C 2.4 59.8 2.2 59.7 1.6 59.6 C 1.58 59.57 0.6 59.4 0.6 59.4 L 0.6 58.8 L 4.5 58.2 L 4.7 58.4 C 4.7 58.4 4.7 66.1 4.7 66.1 C 6.3 65.1 7.4 64.2 9.2 64.2 C 11.6 64.2 12.9 65.6 12.9 68.2 C 12.9 68.2 12.9 74.6 12.9 74.6 C 12.9 75.8 13.1 75.9 14.8 76 C 14.8 76.02 14.8 76.8 14.8 76.8 L 8.7 76.8 C 8.7 76.8 8.7 76.02 8.7 76 C 10.4 75.9 10.6 75.8 10.6 74.6 C 10.6 74.6 10.6 68.7 10.6 68.7 C 10.6 66.5 9.7 65.6 8 65.6 C 6.6 65.6 5.5 66.4 5 67.4 C 4.8 67.8 4.7 68.1 4.7 68.7 C 4.7 68.7 4.7 74.6 4.7 74.6 C 4.7 75.8 4.9 75.9 6.6 76 C 6.6 76.02 6.6 76.8 6.6 76.8 L 0.5 76.8 C 0.5 76.8 0.53 76.02 0.5 76 Z M 19 70.5 C 20.9 69.9 23.4 69.3 24 68.6 C 24 68.6 24 67.6 24 67.6 C 24 65.6 22.8 65.1 21.9 65.1 C 20.9 65.1 19.8 65.7 19.3 67.5 C 19.2 67.9 19 68.2 18.5 68.2 C 18 68.2 17.1 67.8 17.1 67.1 C 17.1 65.7 19.3 64.2 22.1 64.2 C 25.9 64.2 26.2 66.1 26.2 67.5 C 26.2 67.5 26.2 73.6 26.2 73.6 C 26.2 75.1 26.7 75.6 27.1 75.7 C 27.5 75.8 28 75.8 28.4 75.7 C 28.4 75.7 28.5 76.3 28.5 76.3 C 27.6 76.8 26.5 77.1 25.6 77.1 C 24.7 77.1 24.3 76.5 24 75.5 C 23.2 76.1 21.7 77.1 20.2 77.1 C 17.9 77.1 16.6 75.4 16.6 73.5 C 16.6 72.3 17.2 71.1 19 70.5 Z M 21.5 75.7 C 22.4 75.7 24 75.2 24 73.2 C 24 73.2 24 69.7 24 69.7 C 23.4 70 22.1 70.5 21.1 70.8 C 19.7 71.4 19.2 72 19.2 73.1 C 19.2 74.6 19.9 75.7 21.5 75.7 Z M 29.5 76 C 31.3 75.9 31.4 75.8 31.4 74.6 C 31.4 74.6 31.4 66.7 31.4 66.7 C 31.4 65.8 31.3 65.7 30.6 65.6 C 30.62 65.57 29.7 65.4 29.7 65.4 L 29.7 64.8 L 33.4 64.2 C 33.4 64.2 33.75 66.1 33.7 66.1 C 35.3 65.1 36.4 64.2 38.3 64.2 C 40.6 64.2 42 65.6 42 68.2 C 42 68.2 42 74.6 42 74.6 C 42 75.8 42.1 75.9 43.8 76 C 43.85 76.02 43.8 76.8 43.8 76.8 L 37.7 76.8 C 37.7 76.8 37.75 76.02 37.7 76 C 39.5 75.9 39.6 75.8 39.6 74.6 C 39.6 74.6 39.6 68.7 39.6 68.7 C 39.6 66.5 38.7 65.6 37 65.6 C 35.7 65.6 34.5 66.4 34 67.3 C 33.8 67.8 33.8 68.1 33.8 68.7 C 33.8 68.7 33.8 74.6 33.8 74.6 C 33.8 75.8 33.9 75.9 35.6 76 C 35.65 76.02 35.6 76.8 35.6 76.8 L 29.5 76.8 C 29.5 76.8 29.55 76.02 29.5 76 Z M 47.4 65.9 C 48.5 64.8 50 64.2 52 64.2 C 53.2 64.2 54.1 64.4 54.8 64.8 C 54.8 64.8 54.8 60.7 54.8 60.7 C 54.8 59.8 54.7 59.6 54 59.5 C 54.02 59.55 53.1 59.4 53.1 59.4 L 53.1 58.8 L 57 58.2 L 57.2 58.4 C 57.2 58.4 57.17 74.58 57.2 74.6 C 57.2 75.8 57.3 75.9 59 76 C 59.05 76.02 59 76.8 59 76.8 L 55 76.8 L 54.8 76.6 C 54.8 76.6 54.8 75.35 54.8 75.4 C 53.4 76.4 52.3 77.1 50.9 77.1 C 47.6 77.1 45.7 74.6 45.7 70.9 C 45.7 68.7 46.3 67.1 47.4 65.9 Z M 51.7 75.7 C 53 75.7 54.1 75.2 54.6 73.9 C 54.8 73.5 54.8 73 54.8 72.5 C 54.8 72.5 54.8 68.1 54.8 68.1 C 54.8 67.4 54.8 67.1 54.6 66.6 C 54.1 65.6 53.2 65.1 52 65.1 C 49.5 65.1 48.3 67.3 48.3 70.6 C 48.3 73.5 49.4 75.7 51.7 75.7 Z M 66.9 64.2 C 70.9 64.2 72.9 66.6 72.9 70.6 C 72.9 74.7 70.9 77.1 66.9 77.1 C 62.9 77.1 60.9 74.7 60.9 70.6 C 60.9 66.6 62.9 64.2 66.9 64.2 Z M 66.9 76.2 C 69.2 76.2 70.3 74.1 70.3 70.6 C 70.3 67.2 69.2 65.1 66.9 65.1 C 64.6 65.1 63.5 67.2 63.5 70.6 C 63.5 74.1 64.6 76.2 66.9 76.2 Z M 78.3 76.4 C 78.3 76.4 78.3 76.3 78.3 76.3 C 77.1 76.2 76.1 75.3 76.1 74.4 C 76.1 73.4 77 72.7 78.4 72.2 C 78.4 72.2 78.4 72.1 78.4 72.1 C 77.2 71.8 75.7 70.8 75.7 68.4 C 75.7 66.6 77 64.2 80.8 64.2 C 82 64.2 83.4 64.5 84.1 65 C 84.07 64.97 87.3 63.9 87.3 63.9 L 87.5 64.2 L 87 65.8 C 87 65.8 85 66.05 85 66.1 C 85.4 66.5 85.7 67.3 85.7 68.4 C 85.7 71.4 83.1 72.5 80.7 72.5 C 80.4 72.5 79.9 72.4 79.4 72.4 C 79.1 72.5 78.1 72.9 78.1 73.6 C 78.1 74.1 78.4 74.7 80.2 74.7 C 80.2 74.7 82.2 74.7 82.2 74.7 C 84.9 74.7 87 75.6 87 78.4 C 87 79.9 86.2 81.1 85.1 81.8 C 83.9 82.5 82.3 82.8 80.8 82.8 C 77.9 82.8 75.4 81.7 75.4 79.2 C 75.4 77.4 77.2 76.8 78.3 76.4 Z M 81.4 81.9 C 83.1 81.9 84.9 81 84.9 79 C 84.9 77.1 83.3 76.6 81.1 76.6 C 79.9 76.6 79.1 76.7 78.5 77.2 C 78 77.6 77.8 78.2 77.8 79 C 77.8 80.8 79.2 81.9 81.4 81.9 Z M 80.8 71.6 C 82.2 71.6 83.3 70.5 83.3 68.4 C 83.3 66 82.1 65.1 80.8 65.1 C 79.5 65.1 78.2 65.9 78.2 68.4 C 78.2 70.5 79.4 71.6 80.8 71.6 Z M 94.3 76 C 96.1 75.9 96.1 75.8 96.1 74.6 C 96.1 74.6 96.1 66.7 96.1 66.7 C 96.1 65.8 96 65.7 95.3 65.6 C 95.35 65.57 94.4 65.4 94.4 65.4 L 94.4 64.8 L 98.1 64.2 C 98.1 64.2 98.47 66.1 98.5 66.1 C 100 65.1 101.2 64.2 103 64.2 C 105.3 64.2 106.7 65.6 106.7 68.2 C 106.7 68.2 106.7 74.6 106.7 74.6 C 106.7 75.8 106.8 75.9 108.6 76 C 108.57 76.02 108.6 76.8 108.6 76.8 L 102.5 76.8 C 102.5 76.8 102.47 76.02 102.5 76 C 104.3 75.9 104.3 75.8 104.3 74.6 C 104.3 74.6 104.3 68.7 104.3 68.7 C 104.3 66.5 103.4 65.6 101.7 65.6 C 100.4 65.6 99.3 66.4 98.7 67.3 C 98.5 67.8 98.5 68.1 98.5 68.7 C 98.5 68.7 98.5 74.6 98.5 74.6 C 98.5 75.8 98.6 75.9 100.4 76 C 100.37 76.02 100.4 76.8 100.4 76.8 L 94.3 76.8 C 94.3 76.8 94.27 76.02 94.3 76 Z M 113.1 76.4 C 113.1 76.4 113.1 76.3 113.1 76.3 C 111.9 76.2 110.9 75.3 110.9 74.4 C 110.9 73.4 111.9 72.7 113.2 72.2 C 113.2 72.2 113.2 72.1 113.2 72.1 C 112.1 71.8 110.5 70.8 110.5 68.4 C 110.5 66.6 111.9 64.2 115.7 64.2 C 116.8 64.2 118.2 64.5 118.9 65 C 118.92 64.97 122.1 63.9 122.1 63.9 L 122.3 64.2 L 121.8 65.8 C 121.8 65.8 119.85 66.05 119.8 66.1 C 120.3 66.5 120.6 67.3 120.6 68.4 C 120.6 71.4 117.9 72.5 115.5 72.5 C 115.3 72.5 114.7 72.4 114.3 72.4 C 113.9 72.5 113 72.9 113 73.6 C 113 74.1 113.3 74.7 115.1 74.7 C 115.1 74.7 117.1 74.7 117.1 74.7 C 119.7 74.7 121.9 75.6 121.9 78.4 C 121.9 79.9 121.1 81.1 119.9 81.8 C 118.7 82.5 117.1 82.8 115.6 82.8 C 112.7 82.8 110.2 81.7 110.2 79.2 C 110.2 77.4 112 76.8 113.1 76.4 Z M 116.2 81.9 C 118 81.9 119.8 81 119.8 79 C 119.8 77.1 118.2 76.6 116 76.6 C 114.8 76.6 113.9 76.7 113.4 77.2 C 112.9 77.6 112.6 78.2 112.6 79 C 112.6 80.8 114.1 81.9 116.2 81.9 Z M 115.6 71.6 C 117.1 71.6 118.2 70.5 118.2 68.4 C 118.2 66 116.9 65.1 115.7 65.1 C 114.4 65.1 113.1 65.9 113.1 68.4 C 113.1 70.5 114.2 71.6 115.6 71.6 Z M 130.4 71.6 C 131 74.4 132.5 76.3 134.9 76.3 C 137.1 76.3 138.5 74.9 138.5 72.8 C 138.5 70.6 136.1 69.4 135 69 C 135 69 134.6 68.8 134.6 68.8 C 131.9 67.9 129.8 66.5 129.8 63.9 C 129.8 60.6 132.5 59.1 135.6 59.1 C 137.3 59.1 139 59.5 139.8 60.2 C 139.85 60.17 139.8 63.7 139.8 63.7 C 139.8 63.7 139.07 63.7 139.1 63.7 C 138.7 61.2 137.5 59.9 135.3 59.9 C 133.2 59.9 132.1 61.3 132.1 63.1 C 132.1 64.6 133.5 65.7 135.2 66.3 C 135.2 66.3 136 66.6 136 66.6 C 138.9 67.7 140.9 69.1 140.9 72 C 140.9 74.6 139.2 77.1 134.7 77.1 C 133 77.1 130.9 76.6 129.8 75.6 C 129.82 75.63 129.6 71.6 129.6 71.6 C 129.6 71.6 130.37 71.63 130.4 71.6 Z M 142.6 59.4 L 157.1 59.4 L 157.1 63.6 C 157.1 63.6 156.32 63.6 156.3 63.6 C 156 60.9 155.5 60.3 152.6 60.3 C 152.57 60.32 151.1 60.3 151.1 60.3 C 151.1 60.3 151.1 74.42 151.1 74.4 C 151.1 75.8 151.2 75.9 153.8 76 C 153.85 76.02 153.8 76.8 153.8 76.8 L 145.9 76.8 C 145.9 76.8 145.87 76.02 145.9 76 C 148.5 75.9 148.6 75.8 148.6 74.4 C 148.62 74.42 148.6 60.3 148.6 60.3 C 148.6 60.3 147.15 60.32 147.1 60.3 C 144.2 60.3 143.7 60.9 143.4 63.6 C 143.4 63.6 142.6 63.6 142.6 63.6 L 142.6 59.4 Z M 155.5 76 C 157.1 75.9 157.3 75.6 157.8 74.3 C 158.7 72 159.8 69 160.5 66.8 C 160.55 66.85 163.2 59.4 163.2 59.4 L 165 59.4 C 165 59.4 170.32 74.52 170.3 74.5 C 170.8 75.8 171 75.9 172.5 76 C 172.5 76.02 172.5 76.8 172.5 76.8 L 166.1 76.8 L 166.1 76 C 166.1 76 167.22 75.93 167.2 75.9 C 168 75.8 168.1 75.6 167.9 74.9 C 167.9 74.85 166.2 70.1 166.2 70.1 C 166.2 70.1 160.62 70.07 160.6 70.1 C 160 71.8 159.5 73.4 159.1 74.9 C 158.9 75.6 159 75.8 159.7 75.9 C 159.72 75.9 161 76 161 76 L 161 76.8 L 155.5 76.8 C 155.5 76.8 155.52 76.02 155.5 76 Z M 165.9 69.1 L 163.4 62 C 163.4 62 163.37 61.97 163.4 62 C 162.6 64.2 161.7 66.6 160.9 69.1 C 160.95 69.13 165.9 69.1 165.9 69.1 Z M 173.2 76 C 175.4 75.9 175.5 75.8 175.5 74.4 C 175.5 74.4 175.5 61.8 175.5 61.8 C 175.5 60.4 175.4 60.3 173.2 60.2 C 173.25 60.17 173.2 59.4 173.2 59.4 C 173.2 59.4 180.55 59.45 180.5 59.4 C 184.9 59.4 186.4 61.3 186.4 63.7 C 186.4 66.1 184.7 67.7 182.3 68.1 C 182.3 68.1 182.3 68.2 182.3 68.2 C 185 68.8 185.4 70.5 185.7 72.7 C 186 74.4 186.4 75.8 188.3 76 C 188.32 76.02 188.3 76.8 188.3 76.8 C 188.3 76.8 186.3 76.75 186.3 76.8 C 184.8 76.8 183.9 76.2 183.5 74.6 C 183.2 73.5 182.9 71.5 182.8 70.8 C 182.3 69.1 181.2 68.6 179.7 68.6 C 179.7 68.6 178 68.6 178 68.6 C 178 68.6 177.97 74.42 178 74.4 C 178 75.5 178 75.5 178 75.6 C 178.2 75.9 178.8 75.9 179.8 76 C 179.85 76.02 179.8 76.8 179.8 76.8 L 173.2 76.8 C 173.2 76.8 173.25 76.02 173.2 76 Z M 179.9 67.7 C 182.4 67.7 183.7 66.6 183.7 63.9 C 183.7 61 181.6 60.3 179.8 60.3 C 178.1 60.3 178 60.5 178 61.6 C 177.97 61.57 178 67.7 178 67.7 C 178 67.7 179.95 67.72 179.9 67.7 Z M 188.5 59.4 L 202.9 59.4 L 202.9 63.6 C 202.9 63.6 202.15 63.6 202.1 63.6 C 201.8 60.9 201.3 60.3 198.4 60.3 C 198.4 60.32 196.9 60.3 196.9 60.3 C 196.9 60.3 196.92 74.42 196.9 74.4 C 196.9 75.8 197 75.9 199.7 76 C 199.67 76.02 199.7 76.8 199.7 76.8 L 191.7 76.8 C 191.7 76.8 191.7 76.02 191.7 76 C 194.4 75.9 194.4 75.8 194.4 74.4 C 194.45 74.42 194.4 60.3 194.4 60.3 C 194.4 60.3 192.97 60.32 193 60.3 C 190 60.3 189.5 60.9 189.2 63.6 C 189.22 63.6 188.5 63.6 188.5 63.6 L 188.5 59.4 Z M 210.4 76 C 212.6 75.9 212.7 75.8 212.7 74.4 C 212.7 74.4 212.7 61.8 212.7 61.8 C 212.7 60.4 212.6 60.3 210.4 60.2 C 210.45 60.17 210.4 59.4 210.4 59.4 L 217.4 59.4 C 217.4 59.4 217.42 60.17 217.4 60.2 C 215.2 60.3 215.2 60.4 215.2 61.8 C 215.17 61.77 215.2 67.3 215.2 67.3 L 223.9 67.3 C 223.9 67.3 223.92 61.77 223.9 61.8 C 223.9 60.4 223.9 60.3 221.7 60.2 C 221.67 60.17 221.7 59.4 221.7 59.4 L 228.6 59.4 C 228.6 59.4 228.65 60.17 228.6 60.2 C 226.5 60.3 226.4 60.4 226.4 61.8 C 226.4 61.8 226.4 74.4 226.4 74.4 C 226.4 75.8 226.5 75.9 228.6 76 C 228.65 76.02 228.6 76.8 228.6 76.8 L 221.7 76.8 C 221.7 76.8 221.67 76.02 221.7 76 C 223.9 75.9 223.9 75.8 223.9 74.4 C 223.92 74.42 223.9 68.2 223.9 68.2 L 215.2 68.2 C 215.2 68.2 215.17 74.42 215.2 74.4 C 215.2 75.8 215.2 75.9 217.4 76 C 217.42 76.02 217.4 76.8 217.4 76.8 L 210.4 76.8 C 210.4 76.8 210.45 76.02 210.4 76 Z M 229.8 64.8 L 233.7 64.2 L 233.9 64.3 C 233.9 64.3 233.87 72.85 233.9 72.8 C 233.9 74.8 234.9 75.7 236.4 75.7 C 237.7 75.7 238.9 75 239.5 73.8 C 239.6 73.6 239.7 73 239.7 72.3 C 239.7 72.3 239.7 66.7 239.7 66.7 C 239.7 65.8 239.5 65.7 238.9 65.6 C 238.87 65.57 237.9 65.4 237.9 65.4 L 237.9 64.8 L 241.8 64.2 L 242 64.3 C 242 64.3 242.02 74.58 242 74.6 C 242 75.8 242.2 75.9 243.9 76 C 243.9 76.02 243.9 76.8 243.9 76.8 L 239.9 76.8 C 239.9 76.8 239.65 75.25 239.6 75.3 C 238.9 75.6 237.2 77.1 235.1 77.1 C 233.2 77.1 231.5 76.2 231.5 73.3 C 231.5 73.3 231.5 66.7 231.5 66.7 C 231.5 65.8 231.4 65.7 230.7 65.6 C 230.72 65.57 229.8 65.4 229.8 65.4 L 229.8 64.8 Z M 245 58.8 L 248.9 58.2 L 249.1 58.4 C 249.1 58.4 249.12 65.97 249.1 66 C 250 65.4 251.5 64.2 253.4 64.2 C 257.9 64.2 258.2 68.8 258.2 70.3 C 258.2 75.4 255.3 77.1 252 77.1 C 250.1 77.1 249.1 76.6 248.2 76.1 C 248.22 76.07 247.2 77.1 247.2 77.1 L 246.8 76.9 C 246.8 76.9 246.77 60.7 246.8 60.7 C 246.8 59.8 246.6 59.6 246 59.5 C 245.97 59.55 245 59.4 245 59.4 L 245 58.8 Z M 249.3 74.3 C 249.7 75.5 250.7 76.2 252 76.2 C 254.5 76.2 255.6 74.2 255.6 70.5 C 255.6 66.1 253.4 65.6 252.4 65.6 C 251 65.6 250 66.1 249.4 67.3 C 249.2 67.7 249.1 68.1 249.1 68.7 C 249.1 68.7 249.1 72.7 249.1 72.7 C 249.1 73.3 249.1 73.8 249.3 74.3 Z " stroke="none" fill="#000"/>
  </g>
  <g id="Polygon13445">
    <path d="M 3.8 29.9 C 4.7 29.9 5.3 30.5 5.3 31.4 C 5.3 32.3 4.7 32.9 3.8 32.9 C 2.9 32.9 2.3 32.3 2.3 31.4 C 2.3 30.5 2.9 29.9 3.8 29.9 Z M 0.8 47 C 2.6 46.9 2.7 46.8 2.7 45.6 C 2.7 45.6 2.7 37.7 2.7 37.7 C 2.7 36.8 2.5 36.7 1.9 36.6 C 1.88 36.57 0.9 36.4 0.9 36.4 L 0.9 35.8 L 4.8 35.2 L 5 35.3 C 5 35.3 5.03 45.58 5 45.6 C 5 46.8 5.1 46.9 6.9 47 C 6.9 47.02 6.9 47.8 6.9 47.8 L 0.8 47.8 C 0.8 47.8 0.8 47.02 0.8 47 Z M 8.3 47 C 10.1 46.9 10.2 46.8 10.2 45.6 C 10.2 45.6 10.2 37.7 10.2 37.7 C 10.2 36.8 10 36.7 9.4 36.6 C 9.4 36.57 8.4 36.4 8.4 36.4 L 8.4 35.8 L 12.2 35.2 C 12.2 35.2 12.52 37.1 12.5 37.1 C 14.1 36.1 15.2 35.2 17.1 35.2 C 19.4 35.2 20.7 36.6 20.7 39.2 C 20.7 39.2 20.7 45.6 20.7 45.6 C 20.7 46.8 20.8 46.9 22.6 47 C 22.62 47.02 22.6 47.8 22.6 47.8 L 16.5 47.8 C 16.5 47.8 16.52 47.02 16.5 47 C 18.3 46.9 18.4 46.8 18.4 45.6 C 18.4 45.6 18.4 39.7 18.4 39.7 C 18.4 37.5 17.5 36.6 15.8 36.6 C 14.4 36.6 13.3 37.4 12.8 38.3 C 12.6 38.8 12.5 39.1 12.5 39.7 C 12.5 39.7 12.5 45.6 12.5 45.6 C 12.5 46.8 12.6 46.9 14.4 47 C 14.42 47.02 14.4 47.8 14.4 47.8 L 8.3 47.8 C 8.3 47.8 8.32 47.02 8.3 47 Z M 30.5 35.2 C 34.5 35.2 36.5 37.6 36.5 41.6 C 36.5 45.7 34.5 48.1 30.5 48.1 C 26.4 48.1 24.5 45.7 24.5 41.6 C 24.5 37.6 26.4 35.2 30.5 35.2 Z M 30.5 47.2 C 32.8 47.2 33.9 45.1 33.9 41.6 C 33.9 38.2 32.8 36.1 30.5 36.1 C 28.2 36.1 27.1 38.2 27.1 41.6 C 27.1 45.1 28.2 47.2 30.5 47.2 Z M 38.4 29.8 L 42.3 29.2 L 42.5 29.4 C 42.5 29.4 42.52 36.97 42.5 37 C 43.4 36.4 44.9 35.2 46.8 35.2 C 51.3 35.2 51.6 39.8 51.6 41.3 C 51.6 46.4 48.7 48.1 45.4 48.1 C 43.5 48.1 42.5 47.6 41.6 47.1 C 41.62 47.07 40.6 48.1 40.6 48.1 L 40.2 47.9 C 40.2 47.9 40.17 31.7 40.2 31.7 C 40.2 30.8 40 30.6 39.4 30.5 C 39.37 30.55 38.4 30.4 38.4 30.4 L 38.4 29.8 Z M 42.7 45.3 C 43.1 46.5 44.1 47.2 45.4 47.2 C 47.9 47.2 49 45.2 49 41.5 C 49 37.1 46.8 36.6 45.8 36.6 C 44.4 36.6 43.4 37.1 42.8 38.3 C 42.6 38.7 42.5 39.1 42.5 39.7 C 42.5 39.7 42.5 43.7 42.5 43.7 C 42.5 44.3 42.5 44.8 42.7 45.3 Z M 56.7 41.5 C 58.6 40.9 61.1 40.3 61.7 39.6 C 61.7 39.6 61.7 38.6 61.7 38.6 C 61.7 36.6 60.5 36.1 59.6 36.1 C 58.6 36.1 57.5 36.7 57 38.5 C 56.9 38.9 56.7 39.2 56.2 39.2 C 55.7 39.2 54.8 38.8 54.8 38.1 C 54.8 36.7 57 35.2 59.8 35.2 C 63.6 35.2 63.9 37.1 63.9 38.5 C 63.9 38.5 63.9 44.6 63.9 44.6 C 63.9 46.1 64.4 46.6 64.8 46.7 C 65.2 46.8 65.7 46.8 66.1 46.7 C 66.1 46.7 66.2 47.3 66.2 47.3 C 65.3 47.8 64.2 48.1 63.3 48.1 C 62.4 48.1 62 47.5 61.7 46.5 C 60.9 47.1 59.4 48.1 57.9 48.1 C 55.6 48.1 54.3 46.4 54.3 44.5 C 54.3 43.3 54.9 42.1 56.7 41.5 Z M 59.2 46.7 C 60.1 46.7 61.7 46.2 61.7 44.2 C 61.7 44.2 61.7 40.7 61.7 40.7 C 61.1 41 59.8 41.5 58.8 41.8 C 57.4 42.4 56.9 43 56.9 44.1 C 56.9 45.6 57.6 46.7 59.2 46.7 Z M 68.3 43.6 C 68.8 45.7 70 47.2 72 47.2 C 73.3 47.2 74.3 46.4 74.3 45.1 C 74.3 43.4 72.7 42.8 71.6 42.5 C 69.5 41.8 67.8 40.9 67.8 38.8 C 67.8 36.5 69.7 35.2 72.4 35.2 C 73.5 35.2 74.8 35.4 75.6 36.1 C 75.62 36.05 75.6 39 75.6 39 C 75.6 39 74.9 38.97 74.9 39 C 74.7 37.4 73.9 36.1 72.1 36.1 C 70.8 36.1 69.8 36.8 69.8 38.1 C 69.8 39.5 71.5 40 72.5 40.3 C 75.1 41.2 76.4 42.2 76.4 44.3 C 76.4 46.5 74.7 48.1 71.8 48.1 C 70.3 48.1 68.8 47.6 67.9 46.8 C 67.87 46.85 67.6 43.6 67.6 43.6 C 67.6 43.6 68.35 43.57 68.3 43.6 Z M 77.5 35.5 L 83.2 35.5 L 83.2 36.2 C 83.2 36.2 82.12 36.32 82.1 36.3 C 81.5 36.4 81.6 36.6 81.7 37.1 C 82.7 39.7 83.7 42.4 84.8 45.5 C 84.8 45.5 84.9 45.5 84.9 45.5 C 86 42.5 87.3 38.7 87.6 37.2 C 87.8 36.7 87.7 36.4 87.3 36.3 C 87.3 36.35 86 36.2 86 36.2 L 86 35.5 L 90.8 35.5 C 90.8 35.5 90.8 36.22 90.8 36.2 C 89.5 36.3 89.4 36.5 88.9 37.5 C 88.2 39.3 85.9 45.3 84.3 49.8 C 83 53.5 81.8 53.8 80.8 53.8 C 79.7 53.8 79 53.1 79 52.5 C 79 51.8 79.6 51.1 80.1 51.1 C 80.4 51.1 80.6 51.2 80.9 51.5 C 81.3 51.9 81.5 52 81.8 52 C 82.1 52 82.5 51.8 82.9 50.9 C 83.3 50.1 83.5 49.4 83.5 48.8 C 83.5 48.4 83.4 48 83.3 47.6 C 82.7 45.9 80.6 40.5 79.4 37.5 C 78.9 36.4 78.7 36.3 77.5 36.2 C 77.47 36.22 77.5 35.5 77.5 35.5 Z M 97.6 35.2 C 101.6 35.2 103.6 37.6 103.6 41.6 C 103.6 45.7 101.6 48.1 97.6 48.1 C 93.5 48.1 91.6 45.7 91.6 41.6 C 91.6 37.6 93.5 35.2 97.6 35.2 Z M 97.6 47.2 C 99.9 47.2 101 45.1 101 41.6 C 101 38.2 99.9 36.1 97.6 36.1 C 95.3 36.1 94.2 38.2 94.2 41.6 C 94.2 45.1 95.3 47.2 97.6 47.2 Z M 105.8 47 C 107.6 46.9 107.7 46.8 107.7 45.6 C 107.7 45.6 107.7 37.7 107.7 37.7 C 107.7 36.8 107.5 36.7 106.9 36.6 C 106.9 36.57 105.9 36.4 105.9 36.4 L 105.9 35.8 L 109.7 35.2 C 109.7 35.2 110.02 37.1 110 37.1 C 111.6 36.1 112.7 35.2 114.6 35.2 C 116.9 35.2 118.2 36.6 118.2 39.2 C 118.2 39.2 118.2 45.6 118.2 45.6 C 118.2 46.8 118.3 46.9 120.1 47 C 120.12 47.02 120.1 47.8 120.1 47.8 L 114 47.8 C 114 47.8 114.02 47.02 114 47 C 115.8 46.9 115.9 46.8 115.9 45.6 C 115.9 45.6 115.9 39.7 115.9 39.7 C 115.9 37.5 115 36.6 113.3 36.6 C 111.9 36.6 110.8 37.4 110.3 38.3 C 110.1 38.8 110 39.1 110 39.7 C 110 39.7 110 45.6 110 45.6 C 110 46.8 110.1 46.9 111.9 47 C 111.92 47.02 111.9 47.8 111.9 47.8 L 105.8 47.8 C 105.8 47.8 105.82 47.02 105.8 47 Z M 130.2 41.5 C 132.1 40.9 134.6 40.3 135.2 39.6 C 135.2 39.6 135.2 38.6 135.2 38.6 C 135.2 36.6 134 36.1 133.1 36.1 C 132.1 36.1 131 36.7 130.5 38.5 C 130.4 38.9 130.2 39.2 129.7 39.2 C 129.2 39.2 128.3 38.8 128.3 38.1 C 128.3 36.7 130.5 35.2 133.3 35.2 C 137.1 35.2 137.4 37.1 137.4 38.5 C 137.4 38.5 137.4 44.6 137.4 44.6 C 137.4 46.1 137.9 46.6 138.3 46.7 C 138.7 46.8 139.2 46.8 139.6 46.7 C 139.6 46.7 139.7 47.3 139.7 47.3 C 138.8 47.8 137.7 48.1 136.8 48.1 C 135.9 48.1 135.5 47.5 135.2 46.5 C 134.4 47.1 132.9 48.1 131.4 48.1 C 129.1 48.1 127.8 46.4 127.8 44.5 C 127.8 43.3 128.4 42.1 130.2 41.5 Z M 132.7 46.7 C 133.6 46.7 135.2 46.2 135.2 44.2 C 135.2 44.2 135.2 40.7 135.2 40.7 C 134.6 41 133.3 41.5 132.3 41.8 C 130.9 42.4 130.4 43 130.4 44.1 C 130.4 45.6 131.1 46.7 132.7 46.7 Z M 140.7 35.5 L 142.6 35.5 L 144.1 32.3 L 144.9 32.3 L 144.9 35.5 L 148.1 35.5 L 148.1 36.5 L 144.9 36.5 C 144.9 36.5 144.87 44.25 144.9 44.3 C 144.9 46.1 145.7 46.8 146.5 46.8 C 147.1 46.8 147.7 46.7 148.3 46.4 C 148.3 46.4 148.5 46.9 148.5 46.9 C 147.8 47.4 146.6 48.1 145.3 48.1 C 144.4 48.1 142.5 47.8 142.5 45.2 C 142.52 45.2 142.5 36.5 142.5 36.5 L 140.7 36.5 L 140.7 35.5 Z M 158.5 29.9 C 159.4 29.9 160 30.5 160 31.4 C 160 32.3 159.4 32.9 158.5 32.9 C 157.6 32.9 157 32.3 157 31.4 C 157 30.5 157.6 29.9 158.5 29.9 Z M 155.5 47 C 157.3 46.9 157.3 46.8 157.3 45.6 C 157.3 45.6 157.3 37.7 157.3 37.7 C 157.3 36.8 157.2 36.7 156.5 36.6 C 156.55 36.57 155.6 36.4 155.6 36.4 L 155.6 35.8 L 159.5 35.2 L 159.7 35.3 C 159.7 35.3 159.7 45.58 159.7 45.6 C 159.7 46.8 159.8 46.9 161.6 47 C 161.57 47.02 161.6 47.8 161.6 47.8 L 155.5 47.8 C 155.5 47.8 155.47 47.02 155.5 47 Z M 163 47 C 164.8 46.9 164.9 46.8 164.9 45.6 C 164.9 45.6 164.9 37.7 164.9 37.7 C 164.9 36.8 164.7 36.7 164.1 36.6 C 164.07 36.57 163.1 36.4 163.1 36.4 L 163.1 35.8 L 166.8 35.2 C 166.8 35.2 167.2 37.1 167.2 37.1 C 168.7 36.1 169.9 35.2 171.7 35.2 C 174 35.2 175.4 36.6 175.4 39.2 C 175.4 39.2 175.4 45.6 175.4 45.6 C 175.4 46.8 175.5 46.9 177.3 47 C 177.3 47.02 177.3 47.8 177.3 47.8 L 171.2 47.8 C 171.2 47.8 171.2 47.02 171.2 47 C 173 46.9 173.1 46.8 173.1 45.6 C 173.1 45.6 173.1 39.7 173.1 39.7 C 173.1 37.5 172.1 36.6 170.4 36.6 C 169.1 36.6 168 37.4 167.5 38.3 C 167.3 38.8 167.2 39.1 167.2 39.7 C 167.2 39.7 167.2 45.6 167.2 45.6 C 167.2 46.8 167.3 46.9 169.1 47 C 169.1 47.02 169.1 47.8 169.1 47.8 L 163 47.8 C 163 47.8 163 47.02 163 47 Z M 178.4 47 C 180.2 46.9 180.3 46.8 180.3 45.6 C 180.3 45.6 180.3 31.7 180.3 31.7 C 180.3 30.8 180.1 30.6 179.5 30.5 C 179.5 30.55 178.5 30.4 178.5 30.4 L 178.5 29.8 L 182.5 29.2 L 182.6 29.4 L 182.6 41 C 182.6 41 182.7 41.05 182.7 41 C 183.3 40.2 185.7 37.1 186.5 36.2 C 187 35.6 187.2 35.5 188 35.5 C 188.05 35.5 190.6 35.5 190.6 35.5 C 190.6 35.5 190.62 36.2 190.6 36.2 C 189.2 36.3 188.5 36.6 187.7 37.3 C 186.8 37.9 186 38.6 184.8 40 C 184.6 40.3 184.6 40.4 184.8 40.6 C 185.7 41.9 187.7 44.3 189.2 45.8 C 190 46.6 190.6 47 191.4 47.2 C 191.37 47.18 191.4 47.9 191.4 47.9 C 191.4 47.9 189.5 47.8 189.5 47.8 C 188.7 47.8 187.7 47.4 186.8 46.5 C 185.5 45.2 183.7 43 182.7 41.4 C 182.7 41.4 182.6 41.4 182.6 41.4 C 182.6 41.4 182.65 45.58 182.6 45.6 C 182.6 46.8 182.7 46.9 184.5 47 C 184.52 47.02 184.5 47.8 184.5 47.8 L 178.4 47.8 C 178.4 47.8 178.42 47.02 178.4 47 Z M 191.8 47 C 193.6 46.9 193.6 46.8 193.6 45.6 C 193.6 45.6 193.6 31.7 193.6 31.7 C 193.6 30.8 193.5 30.6 192.8 30.5 C 192.85 30.55 191.9 30.4 191.9 30.4 L 191.9 29.8 L 195.8 29.2 L 196 29.4 C 196 29.4 196 45.58 196 45.6 C 196 46.8 196.1 46.9 197.9 47 C 197.87 47.02 197.9 47.8 197.9 47.8 L 191.8 47.8 C 191.8 47.8 191.77 47.02 191.8 47 Z M 199.1 35.8 L 203.1 35.2 L 203.2 35.3 C 203.2 35.3 203.25 43.85 203.2 43.8 C 203.2 45.8 204.3 46.7 205.8 46.7 C 207.1 46.7 208.3 46 208.8 44.8 C 209 44.6 209 44 209 43.3 C 209 43.3 209 37.7 209 37.7 C 209 36.8 208.9 36.7 208.2 36.6 C 208.25 36.57 207.3 36.4 207.3 36.4 L 207.3 35.8 L 211.2 35.2 L 211.4 35.3 C 211.4 35.3 211.4 45.58 211.4 45.6 C 211.4 46.8 211.5 46.9 213.3 47 C 213.27 47.02 213.3 47.8 213.3 47.8 L 209.3 47.8 C 209.3 47.8 209.02 46.25 209 46.3 C 208.3 46.6 206.6 48.1 204.4 48.1 C 202.6 48.1 200.9 47.2 200.9 44.3 C 200.9 44.3 200.9 37.7 200.9 37.7 C 200.9 36.8 200.7 36.7 200.1 36.6 C 200.1 36.57 199.1 36.4 199.1 36.4 L 199.1 35.8 Z M 215.8 43.6 C 216.3 45.7 217.4 47.2 219.4 47.2 C 220.8 47.2 221.8 46.4 221.8 45.1 C 221.8 43.4 220.2 42.8 219.1 42.5 C 217 41.8 215.3 40.9 215.3 38.8 C 215.3 36.5 217.1 35.2 219.8 35.2 C 221 35.2 222.2 35.4 223.1 36.1 C 223.07 36.05 223.1 39 223.1 39 C 223.1 39 222.35 38.97 222.3 39 C 222.2 37.4 221.3 36.1 219.5 36.1 C 218.3 36.1 217.3 36.8 217.3 38.1 C 217.3 39.5 218.9 40 220 40.3 C 222.5 41.2 223.9 42.2 223.9 44.3 C 223.9 46.5 222.2 48.1 219.2 48.1 C 217.7 48.1 216.2 47.6 215.3 46.8 C 215.32 46.85 215.1 43.6 215.1 43.6 C 215.1 43.6 215.8 43.57 215.8 43.6 Z M 228.9 29.9 C 229.8 29.9 230.4 30.5 230.4 31.4 C 230.4 32.3 229.8 32.9 228.9 32.9 C 228 32.9 227.3 32.3 227.3 31.4 C 227.3 30.5 228 29.9 228.9 29.9 Z M 225.8 47 C 227.6 46.9 227.7 46.8 227.7 45.6 C 227.7 45.6 227.7 37.7 227.7 37.7 C 227.7 36.8 227.6 36.7 226.9 36.6 C 226.92 36.57 226 36.4 226 36.4 L 226 35.8 L 229.9 35.2 L 230.1 35.3 C 230.1 35.3 230.07 45.58 230.1 45.6 C 230.1 46.8 230.2 46.9 231.9 47 C 231.95 47.02 231.9 47.8 231.9 47.8 L 225.8 47.8 C 225.8 47.8 225.85 47.02 225.8 47 Z M 233.1 29.8 L 237 29.2 L 237.2 29.4 C 237.2 29.4 237.17 36.97 237.2 37 C 238.1 36.4 239.6 35.2 241.5 35.2 C 246 35.2 246.3 39.8 246.3 41.3 C 246.3 46.4 243.4 48.1 240.1 48.1 C 238.2 48.1 237.1 47.6 236.3 47.1 C 236.27 47.07 235.3 48.1 235.3 48.1 L 234.8 47.9 C 234.8 47.9 234.82 31.7 234.8 31.7 C 234.8 30.8 234.7 30.6 234 30.5 C 234.02 30.55 233.1 30.4 233.1 30.4 L 233.1 29.8 Z M 237.3 45.3 C 237.8 46.5 238.8 47.2 240.1 47.2 C 242.6 47.2 243.7 45.2 243.7 41.5 C 243.7 37.1 241.5 36.6 240.5 36.6 C 239.1 36.6 238 37.1 237.4 38.3 C 237.2 38.7 237.2 39.1 237.2 39.7 C 237.2 39.7 237.2 43.7 237.2 43.7 C 237.2 44.3 237.2 44.8 237.3 45.3 Z M 255 35.2 C 259 35.2 261 37.6 261 41.6 C 261 45.7 259 48.1 255 48.1 C 251 48.1 249 45.7 249 41.6 C 249 37.6 251 35.2 255 35.2 Z M 255 47.2 C 257.3 47.2 258.4 45.1 258.4 41.6 C 258.4 38.2 257.3 36.1 255 36.1 C 252.7 36.1 251.6 38.2 251.6 41.6 C 251.6 45.1 252.7 47.2 255 47.2 Z M 263.2 47 C 265 46.9 265.1 46.8 265.1 45.6 C 265.1 45.6 265.1 37.7 265.1 37.7 C 265.1 36.8 265 36.7 264.3 36.6 C 264.32 36.57 263.4 36.4 263.4 36.4 L 263.4 35.8 L 267.1 35.2 C 267.1 35.2 267.45 37.1 267.4 37.1 C 269 36.1 270.1 35.2 272 35.2 C 274.3 35.2 275.7 36.6 275.7 39.2 C 275.7 39.2 275.7 45.6 275.7 45.6 C 275.7 46.8 275.8 46.9 277.5 47 C 277.55 47.02 277.5 47.8 277.5 47.8 L 271.4 47.8 C 271.4 47.8 271.45 47.02 271.4 47 C 273.2 46.9 273.3 46.8 273.3 45.6 C 273.3 45.6 273.3 39.7 273.3 39.7 C 273.3 37.5 272.4 36.6 270.7 36.6 C 269.4 36.6 268.2 37.4 267.7 38.3 C 267.5 38.8 267.5 39.1 267.5 39.7 C 267.5 39.7 267.5 45.6 267.5 45.6 C 267.5 46.8 267.6 46.9 269.3 47 C 269.35 47.02 269.3 47.8 269.3 47.8 L 263.2 47.8 C 263.2 47.8 263.25 47.02 263.2 47 Z M 282.1 47.4 C 282.1 47.4 282.1 47.3 282.1 47.3 C 280.9 47.2 279.9 46.3 279.9 45.4 C 279.9 44.4 280.8 43.7 282.2 43.2 C 282.2 43.2 282.2 43.1 282.2 43.1 C 281 42.8 279.5 41.8 279.5 39.4 C 279.5 37.6 280.8 35.2 284.7 35.2 C 285.8 35.2 287.2 35.5 287.9 36 C 287.89 35.97 291.1 34.9 291.1 34.9 L 291.3 35.2 L 290.8 36.8 C 290.8 36.8 288.82 37.05 288.8 37.1 C 289.2 37.5 289.6 38.3 289.6 39.4 C 289.6 42.4 286.9 43.5 284.5 43.5 C 284.2 43.5 283.7 43.4 283.2 43.4 C 282.9 43.5 282 43.9 282 44.6 C 282 45.1 282.2 45.7 284 45.7 C 284 45.7 286 45.7 286 45.7 C 288.7 45.7 290.9 46.6 290.9 49.4 C 290.9 50.9 290 52.1 288.9 52.8 C 287.7 53.5 286.1 53.8 284.6 53.8 C 281.7 53.8 279.2 52.7 279.2 50.2 C 279.2 48.4 281 47.8 282.1 47.4 Z M 285.2 52.9 C 287 52.9 288.8 52 288.8 50 C 288.8 48.1 287.1 47.6 284.9 47.6 C 283.7 47.6 282.9 47.7 282.4 48.2 C 281.8 48.6 281.6 49.2 281.6 50 C 281.6 51.8 283.1 52.9 285.2 52.9 Z M 284.6 42.6 C 286.1 42.6 287.2 41.5 287.2 39.4 C 287.2 37 285.9 36.1 284.7 36.1 C 283.3 36.1 282 36.9 282 39.4 C 282 41.5 283.2 42.6 284.6 42.6 Z M 297.8 47 C 299.6 46.9 299.7 46.8 299.7 45.6 C 299.7 45.6 299.7 31.7 299.7 31.7 C 299.7 30.8 299.5 30.6 298.9 30.5 C 298.87 30.55 297.9 30.4 297.9 30.4 L 297.9 29.8 L 301.8 29.2 L 302 29.4 L 302 41 C 302 41 302.07 41.05 302.1 41 C 302.6 40.2 305.1 37.1 305.8 36.2 C 306.3 35.6 306.6 35.5 307.4 35.5 C 307.42 35.5 310 35.5 310 35.5 C 310 35.5 309.99 36.2 310 36.2 C 308.5 36.3 307.9 36.6 307.1 37.3 C 306.2 37.9 305.4 38.6 304.2 40 C 304 40.3 304 40.4 304.1 40.6 C 305.1 41.9 307 44.3 308.6 45.8 C 309.4 46.6 310 47 310.7 47.2 C 310.74 47.18 310.7 47.9 310.7 47.9 C 310.7 47.9 308.87 47.8 308.9 47.8 C 308.1 47.8 307.1 47.4 306.2 46.5 C 304.9 45.2 303.1 43 302.1 41.4 C 302.07 41.4 302 41.4 302 41.4 C 302 41.4 302.02 45.58 302 45.6 C 302 46.8 302.1 46.9 303.9 47 C 303.89 47.02 303.9 47.8 303.9 47.8 L 297.8 47.8 C 297.8 47.8 297.79 47.02 297.8 47 Z M 314.2 41.5 C 316.2 40.9 318.6 40.3 319.2 39.6 C 319.2 39.6 319.2 38.6 319.2 38.6 C 319.2 36.6 318.1 36.1 317.1 36.1 C 316.1 36.1 315.1 36.7 314.5 38.5 C 314.4 38.9 314.2 39.2 313.7 39.2 C 313.2 39.2 312.3 38.8 312.3 38.1 C 312.3 36.7 314.5 35.2 317.4 35.2 C 321.1 35.2 321.5 37.1 321.5 38.5 C 321.5 38.5 321.5 44.6 321.5 44.6 C 321.5 46.1 321.9 46.6 322.3 46.7 C 322.7 46.8 323.3 46.8 323.6 46.7 C 323.6 46.7 323.8 47.3 323.8 47.3 C 322.8 47.8 321.7 48.1 320.8 48.1 C 319.9 48.1 319.5 47.5 319.2 46.5 C 318.4 47.1 316.9 48.1 315.5 48.1 C 313.1 48.1 311.9 46.4 311.9 44.5 C 311.9 43.3 312.4 42.1 314.2 41.5 Z M 316.7 46.7 C 317.7 46.7 319.2 46.2 319.2 44.2 C 319.2 44.2 319.2 40.7 319.2 40.7 C 318.7 41 317.3 41.5 316.3 41.8 C 314.9 42.4 314.4 43 314.4 44.1 C 314.4 45.6 315.1 46.7 316.7 46.7 Z M 324.6 35.8 L 328.5 35.2 L 328.7 35.3 C 328.7 35.3 328.72 43.85 328.7 43.8 C 328.7 45.8 329.8 46.7 331.2 46.7 C 332.5 46.7 333.7 46 334.3 44.8 C 334.4 44.6 334.5 44 334.5 43.3 C 334.5 43.3 334.5 37.7 334.5 37.7 C 334.5 36.8 334.4 36.7 333.7 36.6 C 333.72 36.57 332.8 36.4 332.8 36.4 L 332.8 35.8 L 336.7 35.2 L 336.9 35.3 C 336.9 35.3 336.87 45.58 336.9 45.6 C 336.9 46.8 337 46.9 338.7 47 C 338.74 47.02 338.7 47.8 338.7 47.8 L 334.7 47.8 C 334.7 47.8 334.49 46.25 334.5 46.3 C 333.8 46.6 332 48.1 329.9 48.1 C 328.1 48.1 326.4 47.2 326.4 44.3 C 326.4 44.3 326.4 37.7 326.4 37.7 C 326.4 36.8 326.2 36.7 325.6 36.6 C 325.57 36.57 324.6 36.4 324.6 36.4 L 324.6 35.8 Z M 340.2 47 C 342 46.9 342 46.8 342 45.6 C 342 45.6 342 37.7 342 37.7 C 342 36.8 341.9 36.7 341.2 36.6 C 341.24 36.57 340.3 36.4 340.3 36.4 L 340.3 35.8 L 344 35.2 C 344 35.2 344.37 37.1 344.4 37.1 C 345.9 36.1 347.1 35.2 348.9 35.2 C 351.2 35.2 352.6 36.6 352.6 39.2 C 352.6 39.2 352.6 45.6 352.6 45.6 C 352.6 46.8 352.7 46.9 354.5 47 C 354.47 47.02 354.5 47.8 354.5 47.8 L 348.4 47.8 C 348.4 47.8 348.37 47.02 348.4 47 C 350.2 46.9 350.2 46.8 350.2 45.6 C 350.2 45.6 350.2 39.7 350.2 39.7 C 350.2 37.5 349.3 36.6 347.6 36.6 C 346.3 36.6 345.2 37.4 344.6 38.3 C 344.4 38.8 344.4 39.1 344.4 39.7 C 344.4 39.7 344.4 45.6 344.4 45.6 C 344.4 46.8 344.5 46.9 346.3 47 C 346.27 47.02 346.3 47.8 346.3 47.8 L 340.2 47.8 C 340.2 47.8 340.17 47.02 340.2 47 Z M 355.6 47 C 357.4 46.9 357.5 46.8 357.5 45.6 C 357.5 45.6 357.5 31.7 357.5 31.7 C 357.5 30.8 357.3 30.6 356.7 30.5 C 356.67 30.55 355.7 30.4 355.7 30.4 L 355.7 29.8 L 359.6 29.2 L 359.8 29.4 C 359.8 29.4 359.82 45.58 359.8 45.6 C 359.8 46.8 359.9 46.9 361.7 47 C 361.69 47.02 361.7 47.8 361.7 47.8 L 355.6 47.8 C 355.6 47.8 355.59 47.02 355.6 47 Z M 365.9 41.5 C 367.8 40.9 370.3 40.3 370.9 39.6 C 370.9 39.6 370.9 38.6 370.9 38.6 C 370.9 36.6 369.7 36.1 368.8 36.1 C 367.8 36.1 366.7 36.7 366.2 38.5 C 366.1 38.9 365.9 39.2 365.4 39.2 C 364.9 39.2 364 38.8 364 38.1 C 364 36.7 366.2 35.2 369 35.2 C 372.8 35.2 373.1 37.1 373.1 38.5 C 373.1 38.5 373.1 44.6 373.1 44.6 C 373.1 46.1 373.6 46.6 374 46.7 C 374.4 46.8 374.9 46.8 375.3 46.7 C 375.3 46.7 375.4 47.3 375.4 47.3 C 374.5 47.8 373.4 48.1 372.5 48.1 C 371.6 48.1 371.2 47.5 370.9 46.5 C 370.1 47.1 368.6 48.1 367.1 48.1 C 364.8 48.1 363.5 46.4 363.5 44.5 C 363.5 43.3 364.1 42.1 365.9 41.5 Z M 368.4 46.7 C 369.3 46.7 370.9 46.2 370.9 44.2 C 370.9 44.2 370.9 40.7 370.9 40.7 C 370.3 41 369 41.5 368 41.8 C 366.6 42.4 366.1 43 366.1 44.1 C 366.1 45.6 366.8 46.7 368.4 46.7 Z M 376.4 47 C 378.2 46.9 378.3 46.8 378.3 45.6 C 378.3 45.6 378.3 37.7 378.3 37.7 C 378.3 36.8 378.2 36.7 377.5 36.6 C 377.52 36.57 376.6 36.4 376.6 36.4 L 376.6 35.8 L 380.4 35.2 C 380.4 35.2 380.67 37.2 380.7 37.2 C 382.3 35.8 383.1 35.2 384 35.2 C 384.9 35.2 385.3 35.9 385.3 36.4 C 385.3 37.2 384.7 37.8 384.1 37.8 C 384 37.8 383.8 37.8 383.6 37.7 C 382.9 37.3 382.5 37.1 382.1 37.1 C 381.5 37.1 380.7 37.8 380.7 39.7 C 380.7 39.7 380.7 45.6 380.7 45.6 C 380.7 46.8 380.8 46.9 383 47 C 383.04 47.02 383 47.8 383 47.8 L 376.4 47.8 C 376.4 47.8 376.44 47.02 376.4 47 Z M 388.9 41.5 C 390.9 40.9 393.3 40.3 393.9 39.6 C 393.9 39.6 393.9 38.6 393.9 38.6 C 393.9 36.6 392.8 36.1 391.8 36.1 C 390.8 36.1 389.8 36.7 389.2 38.5 C 389.1 38.9 389 39.2 388.4 39.2 C 388 39.2 387 38.8 387 38.1 C 387 36.7 389.3 35.2 392.1 35.2 C 395.9 35.2 396.2 37.1 396.2 38.5 C 396.2 38.5 396.2 44.6 396.2 44.6 C 396.2 46.1 396.6 46.6 397.1 46.7 C 397.4 46.8 398 46.8 398.3 46.7 C 398.3 46.7 398.5 47.3 398.5 47.3 C 397.5 47.8 396.5 48.1 395.5 48.1 C 394.7 48.1 394.3 47.5 393.9 46.5 C 393.1 47.1 391.6 48.1 390.2 48.1 C 387.8 48.1 386.6 46.4 386.6 44.5 C 386.6 43.3 387.1 42.1 388.9 41.5 Z M 391.4 46.7 C 392.4 46.7 393.9 46.2 393.9 44.2 C 393.9 44.2 393.9 40.7 393.9 40.7 C 393.4 41 392.1 41.5 391.1 41.8 C 389.7 42.4 389.1 43 389.1 44.1 C 389.1 45.6 389.9 46.7 391.4 46.7 Z M 399.5 47 C 401.3 46.9 401.4 46.8 401.4 45.6 C 401.4 45.6 401.4 37.7 401.4 37.7 C 401.4 36.8 401.2 36.7 400.6 36.6 C 400.57 36.57 399.6 36.4 399.6 36.4 L 399.6 35.8 L 403.3 35.2 C 403.3 35.2 403.69 37.1 403.7 37.1 C 405.2 36.1 406.4 35.2 408.2 35.2 C 410.5 35.2 411.9 36.6 411.9 39.2 C 411.9 39.2 411.9 45.6 411.9 45.6 C 411.9 46.8 412 46.9 413.8 47 C 413.79 47.02 413.8 47.8 413.8 47.8 L 407.7 47.8 C 407.7 47.8 407.69 47.02 407.7 47 C 409.5 46.9 409.6 46.8 409.6 45.6 C 409.6 45.6 409.6 39.7 409.6 39.7 C 409.6 37.5 408.6 36.6 406.9 36.6 C 405.6 36.6 404.5 37.4 404 38.3 C 403.8 38.8 403.7 39.1 403.7 39.7 C 403.7 39.7 403.7 45.6 403.7 45.6 C 403.7 46.8 403.8 46.9 405.6 47 C 405.59 47.02 405.6 47.8 405.6 47.8 L 399.5 47.8 C 399.5 47.8 399.49 47.02 399.5 47 Z M 417.1 47.9 C 417.1 46.8 416.3 46.4 416.3 45.5 C 416.3 44.8 416.8 44.2 417.5 44.2 C 418.5 44.2 419.2 45.1 419.2 46.5 C 419.2 48.4 417.4 50.1 416.2 51.3 C 416.2 51.3 415.7 50.8 415.7 50.8 C 416.5 49.9 417.1 48.9 417.1 47.9 Z " stroke="none" fill="#000"/>
  </g>
  <g id="Polygon13444">
    <path d="M 0.9 18 C 2.2 17.9 2.8 17.8 2.9 16.8 C 3 16 3.1 15 3.1 13.7 C 3.1 13.7 3.1 3.8 3.1 3.8 C 3.1 2.4 3 2.3 0.8 2.2 C 0.82 2.17 0.8 1.4 0.8 1.4 C 0.8 1.4 5.9 1.45 5.9 1.4 C 6.8 3.7 7.8 5.9 8.8 8.1 C 8.82 8.1 11.8 14.8 11.8 14.8 L 11.8 14.8 C 11.8 14.8 14.82 8.07 14.8 8.1 C 15.8 5.9 16.9 3.7 17.7 1.4 C 17.7 1.45 22.7 1.4 22.7 1.4 C 22.7 1.4 22.73 2.17 22.7 2.2 C 20.6 2.3 20.5 2.4 20.5 3.8 C 20.5 3.8 20.5 16.4 20.5 16.4 C 20.5 17.8 20.6 17.9 22.7 18 C 22.73 18.02 22.7 18.8 22.7 18.8 L 15.8 18.8 C 15.8 18.8 15.75 18.02 15.8 18 C 18 17.9 18 17.8 18 16.4 C 18 16.42 18 3.8 18 3.8 L 17.9 3.8 L 11.4 18.4 L 10.7 18.4 L 4.3 3.8 L 4.2 3.8 C 4.2 3.8 4.22 13.67 4.2 13.7 C 4.2 15 4.3 16 4.4 16.8 C 4.6 17.8 5.2 17.9 6.8 18 C 6.78 18.02 6.8 18.8 6.8 18.8 L 0.9 18.8 C 0.9 18.8 0.85 18.02 0.9 18 Z M 27.1 12.5 C 29.1 11.9 31.5 11.3 32.1 10.6 C 32.1 10.6 32.1 9.6 32.1 9.6 C 32.1 7.6 31 7.1 30 7.1 C 29 7.1 28 7.7 27.4 9.5 C 27.3 9.9 27.1 10.2 26.6 10.2 C 26.1 10.2 25.2 9.8 25.2 9.1 C 25.2 7.7 27.4 6.2 30.3 6.2 C 34 6.2 34.4 8.1 34.4 9.5 C 34.4 9.5 34.4 15.6 34.4 15.6 C 34.4 17.1 34.8 17.6 35.2 17.7 C 35.6 17.8 36.2 17.8 36.5 17.7 C 36.5 17.7 36.7 18.3 36.7 18.3 C 35.7 18.8 34.6 19.1 33.7 19.1 C 32.8 19.1 32.4 18.5 32.1 17.5 C 31.3 18.1 29.8 19.1 28.4 19.1 C 26 19.1 24.8 17.4 24.8 15.5 C 24.8 14.3 25.3 13.1 27.1 12.5 Z M 29.6 17.7 C 30.6 17.7 32.1 17.2 32.1 15.2 C 32.1 15.2 32.1 11.7 32.1 11.7 C 31.6 12 30.2 12.5 29.2 12.8 C 27.8 13.4 27.3 14 27.3 15.1 C 27.3 16.6 28 17.7 29.6 17.7 Z M 37.6 6.5 L 39.5 6.5 L 41.1 3.3 L 41.8 3.3 L 41.8 6.5 L 45 6.5 L 45 7.5 L 41.8 7.5 C 41.8 7.5 41.8 15.25 41.8 15.3 C 41.8 17.1 42.6 17.8 43.4 17.8 C 44.1 17.8 44.6 17.7 45.2 17.4 C 45.2 17.4 45.4 17.9 45.4 17.9 C 44.7 18.4 43.5 19.1 42.2 19.1 C 41.3 19.1 39.4 18.8 39.4 16.2 C 39.45 16.2 39.4 7.5 39.4 7.5 L 37.6 7.5 L 37.6 6.5 Z M 49.3 12.5 C 51.2 11.9 53.7 11.3 54.3 10.6 C 54.3 10.6 54.3 9.6 54.3 9.6 C 54.3 7.6 53.1 7.1 52.2 7.1 C 51.2 7.1 50.1 7.7 49.6 9.5 C 49.5 9.9 49.3 10.2 48.8 10.2 C 48.3 10.2 47.4 9.8 47.4 9.1 C 47.4 7.7 49.6 6.2 52.4 6.2 C 56.2 6.2 56.5 8.1 56.5 9.5 C 56.5 9.5 56.5 15.6 56.5 15.6 C 56.5 17.1 57 17.6 57.4 17.7 C 57.8 17.8 58.3 17.8 58.7 17.7 C 58.7 17.7 58.8 18.3 58.8 18.3 C 57.9 18.8 56.8 19.1 55.9 19.1 C 55 19.1 54.6 18.5 54.3 17.5 C 53.5 18.1 52 19.1 50.5 19.1 C 48.2 19.1 46.9 17.4 46.9 15.5 C 46.9 14.3 47.5 13.1 49.3 12.5 Z M 51.8 17.7 C 52.7 17.7 54.3 17.2 54.3 15.2 C 54.3 15.2 54.3 11.7 54.3 11.7 C 53.7 12 52.4 12.5 51.4 12.8 C 50 13.4 49.5 14 49.5 15.1 C 49.5 16.6 50.2 17.7 51.8 17.7 Z M 62.6 12.5 C 64.6 11.9 67 11.3 67.6 10.6 C 67.6 10.6 67.6 9.6 67.6 9.6 C 67.6 7.6 66.5 7.1 65.5 7.1 C 64.5 7.1 63.5 7.7 62.9 9.5 C 62.8 9.9 62.6 10.2 62.1 10.2 C 61.6 10.2 60.7 9.8 60.7 9.1 C 60.7 7.7 62.9 6.2 65.8 6.2 C 69.5 6.2 69.9 8.1 69.9 9.5 C 69.9 9.5 69.9 15.6 69.9 15.6 C 69.9 17.1 70.3 17.6 70.7 17.7 C 71.1 17.8 71.7 17.8 72 17.7 C 72 17.7 72.2 18.3 72.2 18.3 C 71.2 18.8 70.1 19.1 69.2 19.1 C 68.3 19.1 67.9 18.5 67.6 17.5 C 66.8 18.1 65.3 19.1 63.9 19.1 C 61.5 19.1 60.3 17.4 60.3 15.5 C 60.3 14.3 60.8 13.1 62.6 12.5 Z M 65.1 17.7 C 66.1 17.7 67.6 17.2 67.6 15.2 C 67.6 15.2 67.6 11.7 67.6 11.7 C 67.1 12 65.7 12.5 64.7 12.8 C 63.3 13.4 62.8 14 62.8 15.1 C 62.8 16.6 63.5 17.7 65.1 17.7 Z M 74.3 14.6 C 74.8 16.7 75.9 18.2 77.9 18.2 C 79.2 18.2 80.2 17.4 80.2 16.1 C 80.2 14.4 78.7 13.8 77.5 13.5 C 75.5 12.8 73.8 11.9 73.8 9.8 C 73.8 7.5 75.6 6.2 78.3 6.2 C 79.4 6.2 80.7 6.4 81.5 7.1 C 81.55 7.05 81.5 10 81.5 10 C 81.5 10 80.82 9.97 80.8 10 C 80.6 8.4 79.8 7.1 78 7.1 C 76.8 7.1 75.8 7.8 75.8 9.1 C 75.8 10.5 77.4 11 78.4 11.3 C 81 12.2 82.4 13.2 82.4 15.3 C 82.4 17.5 80.7 19.1 77.7 19.1 C 76.2 19.1 74.7 18.6 73.8 17.8 C 73.8 17.85 73.5 14.6 73.5 14.6 C 73.5 14.6 74.27 14.57 74.3 14.6 Z M 90.2 18 C 92 17.9 92.1 17.8 92.1 16.6 C 92.1 16.6 92.1 8.7 92.1 8.7 C 92.1 7.8 91.9 7.7 91.3 7.6 C 91.27 7.57 90.3 7.4 90.3 7.4 L 90.3 6.8 L 94 6.2 C 94 6.2 94.4 8.1 94.4 8.1 C 95.9 7.1 97.1 6.2 98.9 6.2 C 101.2 6.2 102.6 7.6 102.6 10.2 C 102.6 10.2 102.6 16.6 102.6 16.6 C 102.6 17.8 102.7 17.9 104.5 18 C 104.5 18.02 104.5 18.8 104.5 18.8 L 98.4 18.8 C 98.4 18.8 98.4 18.02 98.4 18 C 100.2 17.9 100.3 17.8 100.3 16.6 C 100.3 16.6 100.3 10.7 100.3 10.7 C 100.3 8.5 99.3 7.6 97.6 7.6 C 96.3 7.6 95.2 8.4 94.7 9.3 C 94.5 9.8 94.4 10.1 94.4 10.7 C 94.4 10.7 94.4 16.6 94.4 16.6 C 94.4 17.8 94.5 17.9 96.3 18 C 96.3 18.02 96.3 18.8 96.3 18.8 L 90.2 18.8 C 90.2 18.8 90.2 18.02 90.2 18 Z M 108.7 12.5 C 110.6 11.9 113.1 11.3 113.7 10.6 C 113.7 10.6 113.7 9.6 113.7 9.6 C 113.7 7.6 112.5 7.1 111.6 7.1 C 110.6 7.1 109.5 7.7 109 9.5 C 108.9 9.9 108.7 10.2 108.2 10.2 C 107.7 10.2 106.8 9.8 106.8 9.1 C 106.8 7.7 109 6.2 111.8 6.2 C 115.6 6.2 115.9 8.1 115.9 9.5 C 115.9 9.5 115.9 15.6 115.9 15.6 C 115.9 17.1 116.4 17.6 116.8 17.7 C 117.2 17.8 117.7 17.8 118.1 17.7 C 118.1 17.7 118.2 18.3 118.2 18.3 C 117.3 18.8 116.2 19.1 115.3 19.1 C 114.4 19.1 114 18.5 113.7 17.5 C 112.9 18.1 111.4 19.1 109.9 19.1 C 107.6 19.1 106.3 17.4 106.3 15.5 C 106.3 14.3 106.9 13.1 108.7 12.5 Z M 111.2 17.7 C 112.1 17.7 113.7 17.2 113.7 15.2 C 113.7 15.2 113.7 11.7 113.7 11.7 C 113.1 12 111.8 12.5 110.8 12.8 C 109.4 13.4 108.9 14 108.9 15.1 C 108.9 16.6 109.6 17.7 111.2 17.7 Z M 131.3 6.2 C 135.9 6.2 136.3 9.8 136.3 11.2 C 136.3 12 135.9 12.2 135.3 12.2 C 135.3 12.2 128.1 12.2 128.1 12.2 C 128.1 14.8 128.7 17.8 131.8 17.8 C 133.8 17.8 134.7 16.6 135.4 15.1 C 135.4 15.1 136.2 15.5 136.2 15.5 C 135.5 17.5 134.1 19.1 131.3 19.1 C 127.2 19.1 125.5 16.7 125.5 12.7 C 125.5 9 127.4 6.2 131.3 6.2 Z M 132.9 11.2 C 133.6 11.2 133.7 10.9 133.7 10.4 C 133.7 9.4 133.5 7.1 131.1 7.1 C 128.5 7.1 128.2 10.2 128.2 11.2 C 128.2 11.2 132.9 11.2 132.9 11.2 Z M 140.4 7.9 C 141.4 6.8 142.9 6.2 145 6.2 C 146.1 6.2 147.1 6.4 147.8 6.8 C 147.8 6.8 147.8 2.7 147.8 2.7 C 147.8 1.8 147.6 1.6 147 1.5 C 146.97 1.55 146 1.4 146 1.4 L 146 0.8 L 149.9 0.2 L 150.1 0.4 C 150.1 0.4 150.12 16.58 150.1 16.6 C 150.1 17.8 150.2 17.9 152 18 C 152 18.02 152 18.8 152 18.8 L 147.9 18.8 L 147.7 18.6 C 147.7 18.6 147.75 17.35 147.7 17.4 C 146.4 18.4 145.2 19.1 143.9 19.1 C 140.6 19.1 138.6 16.6 138.6 12.9 C 138.6 10.7 139.3 9.1 140.4 7.9 Z M 144.7 17.7 C 146 17.7 147.1 17.2 147.6 15.9 C 147.7 15.5 147.8 15 147.8 14.5 C 147.8 14.5 147.8 10.1 147.8 10.1 C 147.8 9.4 147.7 9.1 147.5 8.6 C 147.1 7.6 146.1 7.1 145 7.1 C 142.4 7.1 141.2 9.3 141.2 12.6 C 141.2 15.5 142.4 17.7 144.7 17.7 Z M 153.3 6.8 L 157.2 6.2 L 157.4 6.3 C 157.4 6.3 157.37 14.85 157.4 14.8 C 157.4 16.8 158.4 17.7 159.9 17.7 C 161.2 17.7 162.4 17 163 15.8 C 163.1 15.6 163.2 15 163.2 14.3 C 163.2 14.3 163.2 8.7 163.2 8.7 C 163.2 7.8 163 7.7 162.4 7.6 C 162.37 7.57 161.4 7.4 161.4 7.4 L 161.4 6.8 L 165.3 6.2 L 165.5 6.3 C 165.5 6.3 165.52 16.58 165.5 16.6 C 165.5 17.8 165.7 17.9 167.4 18 C 167.4 18.02 167.4 18.8 167.4 18.8 L 163.4 18.8 C 163.4 18.8 163.15 17.25 163.1 17.3 C 162.4 17.6 160.7 19.1 158.6 19.1 C 156.7 19.1 155 18.2 155 15.3 C 155 15.3 155 8.7 155 8.7 C 155 7.8 154.9 7.7 154.2 7.6 C 154.22 7.57 153.3 7.4 153.3 7.4 L 153.3 6.8 Z M 168.5 18 C 170.3 17.9 170.4 17.8 170.4 16.6 C 170.4 16.6 170.4 2.7 170.4 2.7 C 170.4 1.8 170.2 1.6 169.6 1.5 C 169.6 1.55 168.6 1.4 168.6 1.4 L 168.6 0.8 L 172.6 0.2 L 172.7 0.4 L 172.7 12 C 172.7 12 172.8 12.05 172.8 12 C 173.4 11.2 175.8 8.1 176.6 7.2 C 177.1 6.6 177.3 6.5 178.1 6.5 C 178.15 6.5 180.7 6.5 180.7 6.5 C 180.7 6.5 180.72 7.2 180.7 7.2 C 179.3 7.3 178.6 7.6 177.8 8.3 C 176.9 8.9 176.1 9.6 174.9 11 C 174.7 11.3 174.7 11.4 174.9 11.6 C 175.8 12.9 177.8 15.3 179.3 16.8 C 180.1 17.6 180.7 18 181.5 18.2 C 181.47 18.18 181.5 18.9 181.5 18.9 C 181.5 18.9 179.6 18.8 179.6 18.8 C 178.8 18.8 177.8 18.4 176.9 17.5 C 175.6 16.2 173.8 14 172.8 12.4 C 172.8 12.4 172.7 12.4 172.7 12.4 C 172.7 12.4 172.75 16.58 172.7 16.6 C 172.7 17.8 172.8 17.9 174.6 18 C 174.62 18.02 174.6 18.8 174.6 18.8 L 168.5 18.8 C 168.5 18.8 168.52 18.02 168.5 18 Z M 184.9 12.5 C 186.9 11.9 189.3 11.3 189.9 10.6 C 189.9 10.6 189.9 9.6 189.9 9.6 C 189.9 7.6 188.8 7.1 187.8 7.1 C 186.8 7.1 185.8 7.7 185.2 9.5 C 185.1 9.9 185 10.2 184.4 10.2 C 184 10.2 183 9.8 183 9.1 C 183 7.7 185.3 6.2 188.1 6.2 C 191.9 6.2 192.2 8.1 192.2 9.5 C 192.2 9.5 192.2 15.6 192.2 15.6 C 192.2 17.1 192.6 17.6 193.1 17.7 C 193.4 17.8 194 17.8 194.3 17.7 C 194.3 17.7 194.5 18.3 194.5 18.3 C 193.5 18.8 192.5 19.1 191.5 19.1 C 190.7 19.1 190.3 18.5 189.9 17.5 C 189.1 18.1 187.6 19.1 186.2 19.1 C 183.8 19.1 182.6 17.4 182.6 15.5 C 182.6 14.3 183.1 13.1 184.9 12.5 Z M 187.4 17.7 C 188.4 17.7 189.9 17.2 189.9 15.2 C 189.9 15.2 189.9 11.7 189.9 11.7 C 189.4 12 188.1 12.5 187.1 12.8 C 185.7 13.4 185.1 14 185.1 15.1 C 185.1 16.6 185.9 17.7 187.4 17.7 Z M 196.6 14.6 C 197.1 16.7 198.2 18.2 200.2 18.2 C 201.6 18.2 202.6 17.4 202.6 16.1 C 202.6 14.4 201 13.8 199.9 13.5 C 197.8 12.8 196.1 11.9 196.1 9.8 C 196.1 7.5 197.9 6.2 200.6 6.2 C 201.8 6.2 203 6.4 203.9 7.1 C 203.87 7.05 203.9 10 203.9 10 C 203.9 10 203.15 9.97 203.1 10 C 203 8.4 202.1 7.1 200.3 7.1 C 199.1 7.1 198.1 7.8 198.1 9.1 C 198.1 10.5 199.7 11 200.8 11.3 C 203.3 12.2 204.7 13.2 204.7 15.3 C 204.7 17.5 203 19.1 200 19.1 C 198.5 19.1 197 18.6 196.1 17.8 C 196.12 17.85 195.9 14.6 195.9 14.6 C 195.9 14.6 196.6 14.57 196.6 14.6 Z M 205.7 6.5 L 211.4 6.5 L 211.4 7.2 C 211.4 7.2 210.37 7.32 210.4 7.3 C 209.8 7.4 209.8 7.6 210 8.1 C 210.9 10.7 211.9 13.4 213.1 16.5 C 213.1 16.5 213.1 16.5 213.1 16.5 C 214.2 13.5 215.5 9.7 215.9 8.2 C 216 7.7 216 7.4 215.5 7.3 C 215.55 7.35 214.2 7.2 214.2 7.2 L 214.2 6.5 L 219 6.5 C 219 6.5 219.05 7.22 219 7.2 C 217.8 7.3 217.6 7.5 217.2 8.5 C 216.4 10.3 214.1 16.3 212.6 20.8 C 211.3 24.5 210 24.8 209 24.8 C 208 24.8 207.3 24.1 207.3 23.5 C 207.3 22.8 207.9 22.1 208.4 22.1 C 208.7 22.1 208.9 22.2 209.1 22.5 C 209.6 22.9 209.8 23 210 23 C 210.3 23 210.8 22.8 211.1 21.9 C 211.5 21.1 211.7 20.4 211.7 19.8 C 211.7 19.4 211.7 19 211.5 18.6 C 210.9 16.9 208.9 11.5 207.6 8.5 C 207.2 7.4 206.9 7.3 205.7 7.2 C 205.72 7.22 205.7 6.5 205.7 6.5 Z M 225.8 6.2 C 229.8 6.2 231.8 8.6 231.8 12.6 C 231.8 16.7 229.8 19.1 225.8 19.1 C 221.8 19.1 219.8 16.7 219.8 12.6 C 219.8 8.6 221.8 6.2 225.8 6.2 Z M 225.8 18.2 C 228.1 18.2 229.2 16.1 229.2 12.6 C 229.2 9.2 228.1 7.1 225.8 7.1 C 223.5 7.1 222.4 9.2 222.4 12.6 C 222.4 16.1 223.5 18.2 225.8 18.2 Z M 234.1 18 C 235.9 17.9 235.9 17.8 235.9 16.6 C 235.9 16.6 235.9 8.7 235.9 8.7 C 235.9 7.8 235.8 7.7 235.1 7.6 C 235.15 7.57 234.2 7.4 234.2 7.4 L 234.2 6.8 L 237.9 6.2 C 237.9 6.2 238.27 8.1 238.3 8.1 C 239.8 7.1 241 6.2 242.8 6.2 C 245.1 6.2 246.5 7.6 246.5 10.2 C 246.5 10.2 246.5 16.6 246.5 16.6 C 246.5 17.8 246.6 17.9 248.4 18 C 248.37 18.02 248.4 18.8 248.4 18.8 L 242.3 18.8 C 242.3 18.8 242.27 18.02 242.3 18 C 244.1 17.9 244.1 17.8 244.1 16.6 C 244.1 16.6 244.1 10.7 244.1 10.7 C 244.1 8.5 243.2 7.6 241.5 7.6 C 240.2 7.6 239.1 8.4 238.5 9.3 C 238.3 9.8 238.3 10.1 238.3 10.7 C 238.3 10.7 238.3 16.6 238.3 16.6 C 238.3 17.8 238.4 17.9 240.2 18 C 240.17 18.02 240.2 18.8 240.2 18.8 L 234.1 18.8 C 234.1 18.8 234.07 18.02 234.1 18 Z M 255.6 6.5 L 257.5 6.5 L 259.1 3.3 L 259.8 3.3 L 259.8 6.5 L 263 6.5 L 263 7.5 L 259.8 7.5 C 259.8 7.5 259.8 15.25 259.8 15.3 C 259.8 17.1 260.6 17.8 261.4 17.8 C 262.1 17.8 262.6 17.7 263.2 17.4 C 263.2 17.4 263.4 17.9 263.4 17.9 C 262.7 18.4 261.5 19.1 260.2 19.1 C 259.3 19.1 257.4 18.8 257.4 16.2 C 257.45 16.2 257.4 7.5 257.4 7.5 L 255.6 7.5 L 255.6 6.5 Z M 264.4 6.8 L 268.3 6.2 L 268.5 6.3 C 268.5 6.3 268.47 14.85 268.5 14.8 C 268.5 16.8 269.5 17.7 271 17.7 C 272.3 17.7 273.5 17 274.1 15.8 C 274.2 15.6 274.3 15 274.3 14.3 C 274.3 14.3 274.3 8.7 274.3 8.7 C 274.3 7.8 274.1 7.7 273.5 7.6 C 273.47 7.57 272.5 7.4 272.5 7.4 L 272.5 6.8 L 276.4 6.2 L 276.6 6.3 C 276.6 6.3 276.62 16.58 276.6 16.6 C 276.6 17.8 276.8 17.9 278.5 18 C 278.5 18.02 278.5 18.8 278.5 18.8 L 274.5 18.8 C 274.5 18.8 274.25 17.25 274.2 17.3 C 273.5 17.6 271.8 19.1 269.7 19.1 C 267.8 19.1 266.1 18.2 266.1 15.3 C 266.1 15.3 266.1 8.7 266.1 8.7 C 266.1 7.8 266 7.7 265.3 7.6 C 265.32 7.57 264.4 7.4 264.4 7.4 L 264.4 6.8 Z M 279.9 18 C 281.7 17.9 281.8 17.8 281.8 16.6 C 281.8 16.6 281.8 8.7 281.8 8.7 C 281.8 7.8 281.6 7.7 281 7.6 C 281 7.57 280 7.4 280 7.4 L 280 6.8 L 283.8 6.2 C 283.8 6.2 284.12 8.1 284.1 8.1 C 285.7 7.1 286.8 6.2 288.7 6.2 C 291 6.2 292.3 7.6 292.3 10.2 C 292.3 10.2 292.3 16.6 292.3 16.6 C 292.3 17.8 292.4 17.9 294.2 18 C 294.22 18.02 294.2 18.8 294.2 18.8 L 288.1 18.8 C 288.1 18.8 288.12 18.02 288.1 18 C 289.9 17.9 290 17.8 290 16.6 C 290 16.6 290 10.7 290 10.7 C 290 8.5 289.1 7.6 287.4 7.6 C 286 7.6 284.9 8.4 284.4 9.3 C 284.2 9.8 284.1 10.1 284.1 10.7 C 284.1 10.7 284.1 16.6 284.1 16.6 C 284.1 17.8 284.2 17.9 286 18 C 286.02 18.02 286 18.8 286 18.8 L 279.9 18.8 C 279.9 18.8 279.92 18.02 279.9 18 Z M 298.8 18.4 C 298.8 18.4 298.8 18.3 298.8 18.3 C 297.6 18.2 296.6 17.3 296.6 16.4 C 296.6 15.4 297.5 14.7 298.9 14.2 C 298.9 14.2 298.9 14.1 298.9 14.1 C 297.7 13.8 296.2 12.8 296.2 10.4 C 296.2 8.6 297.5 6.2 301.3 6.2 C 302.5 6.2 303.9 6.5 304.6 7 C 304.57 6.97 307.8 5.9 307.8 5.9 L 308 6.2 L 307.5 7.8 C 307.5 7.8 305.5 8.05 305.5 8.1 C 305.9 8.5 306.2 9.3 306.2 10.4 C 306.2 13.4 303.6 14.5 301.2 14.5 C 300.9 14.5 300.4 14.4 299.9 14.4 C 299.6 14.5 298.6 14.9 298.6 15.6 C 298.6 16.1 298.9 16.7 300.7 16.7 C 300.7 16.7 302.7 16.7 302.7 16.7 C 305.4 16.7 307.5 17.6 307.5 20.4 C 307.5 21.9 306.7 23.1 305.6 23.8 C 304.4 24.5 302.8 24.8 301.3 24.8 C 298.4 24.8 295.9 23.7 295.9 21.2 C 295.9 19.4 297.7 18.8 298.8 18.4 Z M 301.9 23.9 C 303.6 23.9 305.4 23 305.4 21 C 305.4 19.1 303.8 18.6 301.6 18.6 C 300.4 18.6 299.6 18.7 299 19.2 C 298.5 19.6 298.3 20.2 298.3 21 C 298.3 22.8 299.7 23.9 301.9 23.9 Z M 301.3 13.6 C 302.7 13.6 303.8 12.5 303.8 10.4 C 303.8 8 302.6 7.1 301.3 7.1 C 300 7.1 298.7 7.9 298.7 10.4 C 298.7 12.5 299.9 13.6 301.3 13.6 Z M 315.3 6.2 C 319.3 6.2 321.3 8.6 321.3 12.6 C 321.3 16.7 319.3 19.1 315.3 19.1 C 311.3 19.1 309.3 16.7 309.3 12.6 C 309.3 8.6 311.3 6.2 315.3 6.2 Z M 315.3 18.2 C 317.6 18.2 318.7 16.1 318.7 12.6 C 318.7 9.2 317.6 7.1 315.3 7.1 C 313 7.1 311.9 9.2 311.9 12.6 C 311.9 16.1 313 18.2 315.3 18.2 Z M 330.5 14.6 C 331 16.7 332.2 18.2 334.2 18.2 C 335.5 18.2 336.5 17.4 336.5 16.1 C 336.5 14.4 334.9 13.8 333.8 13.5 C 331.7 12.8 330 11.9 330 9.8 C 330 7.5 331.9 6.2 334.6 6.2 C 335.7 6.2 337 6.4 337.8 7.1 C 337.82 7.05 337.8 10 337.8 10 C 337.8 10 337.09 9.97 337.1 10 C 336.9 8.4 336.1 7.1 334.3 7.1 C 333 7.1 332 7.8 332 9.1 C 332 10.5 333.7 11 334.7 11.3 C 337.3 12.2 338.6 13.2 338.6 15.3 C 338.6 17.5 336.9 19.1 334 19.1 C 332.5 19.1 331 18.6 330.1 17.8 C 330.07 17.85 329.8 14.6 329.8 14.6 C 329.8 14.6 330.54 14.57 330.5 14.6 Z M 343.3 12.5 C 345.3 11.9 347.7 11.3 348.4 10.6 C 348.4 10.6 348.4 9.6 348.4 9.6 C 348.4 7.6 347.2 7.1 346.2 7.1 C 345.2 7.1 344.2 7.7 343.7 9.5 C 343.5 9.9 343.4 10.2 342.9 10.2 C 342.4 10.2 341.5 9.8 341.5 9.1 C 341.5 7.7 343.7 6.2 346.5 6.2 C 350.3 6.2 350.6 8.1 350.6 9.5 C 350.6 9.5 350.6 15.6 350.6 15.6 C 350.6 17.1 351 17.6 351.5 17.7 C 351.9 17.8 352.4 17.8 352.8 17.7 C 352.8 17.7 352.9 18.3 352.9 18.3 C 352 18.8 350.9 19.1 350 19.1 C 349.1 19.1 348.7 18.5 348.3 17.5 C 347.5 18.1 346.1 19.1 344.6 19.1 C 342.3 19.1 341 17.4 341 15.5 C 341 14.3 341.5 13.1 343.3 12.5 Z M 345.8 17.7 C 346.8 17.7 348.4 17.2 348.4 15.2 C 348.4 15.2 348.4 11.7 348.4 11.7 C 347.8 12 346.5 12.5 345.5 12.8 C 344.1 13.4 343.5 14 343.5 15.1 C 343.5 16.6 344.3 17.7 345.8 17.7 Z " stroke="none" fill="#000"/>
  </g>
</svg>