<?xml version="1.0" standalone="no"?>
<!DOCTYPE svg PUBLIC "-//W3C//DTD SVG 1.1//EN" "http://www.w3.org/Graphics/SVG/1.1/DTD/svg11.dtd">
<svg xmlns="http://www.w3.org/2000/svg" version="1.1" width="149px" height="18px" viewBox="0 -3 149 18" style="top:-3px">
  <desc>News Agency at Pinoy Bus Fanatic</desc>
  <defs/>
  <g id="Polygon24313">
    <path d="M 1.3 2.3 L 2.6 2.3 L 4.5 7.1 L 4.6 7.1 L 5.5 2.3 L 6.7 2.3 L 5.3 8.8 L 4.1 8.8 L 2.1 4 L 2.1 4 L 1.1 8.8 L 0 8.8 L 1.3 2.3 Z M 10.2 6 C 10.2 6 10.2 6 10.2 6 C 10.2 5.9 10.2 5.9 10.2 5.9 C 10.2 5.9 10.2 5.8 10.2 5.8 C 10.2 5.5 10.1 5.2 10 5.1 C 9.8 4.9 9.5 4.8 9.2 4.8 C 8.8 4.8 8.5 4.9 8.3 5.2 C 8.1 5.4 7.9 5.7 7.8 6 C 7.8 6 10.2 6 10.2 6 Z M 11 7.3 C 10.8 7.9 10.5 8.3 10.1 8.5 C 9.7 8.8 9.3 8.9 8.7 8.9 C 8.4 8.9 8.1 8.9 7.9 8.8 C 7.6 8.7 7.4 8.5 7.3 8.4 C 7.1 8.2 6.9 8 6.8 7.7 C 6.7 7.5 6.7 7.2 6.7 6.9 C 6.7 6.5 6.7 6.2 6.8 5.8 C 7 5.5 7.1 5.2 7.3 4.9 C 7.6 4.6 7.8 4.4 8.2 4.2 C 8.5 4.1 8.8 4 9.3 4 C 9.7 4 10 4.1 10.3 4.2 C 10.5 4.3 10.7 4.5 10.9 4.7 C 11 4.9 11.1 5.2 11.2 5.4 C 11.2 5.7 11.2 5.9 11.2 6.1 C 11.2 6.3 11.2 6.4 11.2 6.5 C 11.2 6.5 11.2 6.6 11.2 6.7 C 11.2 6.7 7.7 6.7 7.7 6.7 C 7.7 6.7 7.7 6.8 7.7 6.8 C 7.7 6.8 7.7 6.8 7.7 6.9 C 7.7 6.9 7.7 7 7.7 7 C 7.7 7.3 7.8 7.6 8 7.8 C 8.1 8 8.4 8.1 8.8 8.1 C 9.1 8.1 9.3 8 9.5 7.9 C 9.7 7.8 9.9 7.6 9.9 7.3 C 9.9 7.3 11 7.3 11 7.3 Z M 11.9 4.1 L 13 4.1 L 13.3 7.5 L 13.3 7.5 L 14.8 4.1 L 15.9 4.1 L 16.1 7.5 L 16.1 7.5 L 17.7 4.1 L 18.8 4.1 L 16.4 8.8 L 15.3 8.8 L 15.1 5.4 L 15.1 5.4 L 13.6 8.8 L 12.5 8.8 L 11.9 4.1 Z M 22 5.5 C 22 5.2 21.9 5.1 21.7 5 C 21.5 4.9 21.3 4.8 21 4.8 C 20.9 4.8 20.8 4.8 20.7 4.8 C 20.6 4.9 20.6 4.9 20.5 4.9 C 20.4 5 20.3 5 20.3 5.1 C 20.3 5.2 20.2 5.3 20.2 5.4 C 20.2 5.5 20.3 5.6 20.4 5.7 C 20.4 5.7 20.5 5.8 20.7 5.8 C 20.8 5.9 21 5.9 21.1 6 C 21.3 6 21.4 6.1 21.6 6.1 C 21.7 6.2 21.9 6.2 22 6.3 C 22.1 6.4 22.3 6.5 22.4 6.6 C 22.5 6.6 22.5 6.8 22.6 6.9 C 22.6 7 22.7 7.2 22.7 7.4 C 22.7 7.6 22.6 7.9 22.5 8.1 C 22.4 8.3 22.2 8.4 22 8.5 C 21.8 8.7 21.6 8.8 21.4 8.8 C 21.1 8.9 20.9 8.9 20.6 8.9 C 20.3 8.9 20.1 8.9 19.9 8.8 C 19.6 8.8 19.4 8.7 19.3 8.6 C 19.1 8.4 18.9 8.3 18.8 8.1 C 18.7 7.9 18.7 7.6 18.7 7.3 C 18.7 7.3 19.6 7.3 19.6 7.3 C 19.6 7.6 19.7 7.8 19.9 7.9 C 20.1 8 20.4 8.1 20.7 8.1 C 20.8 8.1 20.9 8.1 21 8.1 C 21.1 8 21.2 8 21.3 8 C 21.4 7.9 21.5 7.8 21.6 7.8 C 21.6 7.7 21.7 7.6 21.7 7.4 C 21.7 7.3 21.6 7.2 21.5 7.1 C 21.4 7.1 21.3 7 21.2 6.9 C 21.1 6.9 20.9 6.8 20.7 6.8 C 20.6 6.7 20.4 6.7 20.2 6.6 C 20.1 6.6 20 6.5 19.8 6.4 C 19.7 6.4 19.6 6.3 19.5 6.2 C 19.4 6.1 19.3 6 19.3 5.9 C 19.2 5.7 19.2 5.6 19.2 5.4 C 19.2 5.2 19.3 4.9 19.4 4.8 C 19.5 4.6 19.6 4.4 19.8 4.3 C 20 4.2 20.2 4.1 20.4 4.1 C 20.6 4 20.9 4 21.1 4 C 21.4 4 21.6 4 21.8 4.1 C 22.1 4.1 22.2 4.2 22.4 4.3 C 22.6 4.4 22.7 4.6 22.8 4.8 C 22.9 5 22.9 5.2 22.9 5.5 C 22.9 5.5 22 5.5 22 5.5 Z M 29.3 2.3 L 30.5 2.3 L 31.6 8.8 L 30.4 8.8 L 30.2 7.1 L 27.6 7.1 L 26.6 8.8 L 25.4 8.8 L 29.3 2.3 Z M 29.7 3.5 L 29.6 3.5 L 28.1 6.2 L 30.1 6.2 L 29.7 3.5 Z M 33.4 6.8 C 33.4 7 33.4 7.1 33.5 7.3 C 33.5 7.4 33.6 7.5 33.6 7.6 C 33.7 7.7 33.8 7.8 33.9 7.9 C 34.1 7.9 34.2 8 34.4 8 C 34.7 8 34.9 7.9 35.1 7.8 C 35.3 7.6 35.4 7.5 35.6 7.3 C 35.7 7.1 35.8 6.9 35.8 6.6 C 35.9 6.4 35.9 6.1 35.9 5.9 C 35.9 5.6 35.8 5.3 35.7 5.1 C 35.5 4.9 35.2 4.8 34.9 4.8 C 34.6 4.8 34.4 4.9 34.2 5 C 34 5.1 33.9 5.3 33.8 5.5 C 33.6 5.7 33.6 5.9 33.5 6.1 C 33.4 6.4 33.4 6.6 33.4 6.8 Z M 36.4 8.6 C 36.3 9 36.2 9.3 36.1 9.6 C 36 9.8 35.8 10 35.6 10.2 C 35.4 10.3 35.2 10.4 35 10.5 C 34.7 10.6 34.4 10.6 34 10.6 C 33.8 10.6 33.5 10.6 33.3 10.5 C 33 10.5 32.8 10.4 32.6 10.3 C 32.5 10.2 32.3 10 32.2 9.8 C 32.1 9.6 32 9.4 32 9.1 C 32 9.1 33 9.1 33 9.1 C 33.1 9.4 33.2 9.6 33.4 9.7 C 33.6 9.8 33.8 9.9 34.1 9.9 C 34.3 9.9 34.5 9.8 34.7 9.8 C 34.8 9.7 35 9.6 35.1 9.5 C 35.1 9.4 35.2 9.2 35.3 9.1 C 35.3 8.9 35.4 8.7 35.4 8.5 C 35.42 8.55 35.5 8.1 35.5 8.1 C 35.5 8.1 35.5 8.07 35.5 8.1 C 35.2 8.5 34.7 8.8 34.2 8.8 C 33.6 8.8 33.2 8.6 32.8 8.3 C 32.5 7.9 32.4 7.5 32.4 6.9 C 32.4 6.5 32.4 6.2 32.5 5.8 C 32.6 5.5 32.8 5.2 33 4.9 C 33.2 4.6 33.4 4.4 33.7 4.2 C 34 4.1 34.4 4 34.8 4 C 35.1 4 35.4 4.1 35.7 4.2 C 35.9 4.3 36.1 4.6 36.2 4.9 C 36.22 4.9 36.2 4.9 36.2 4.9 L 36.4 4.1 L 37.3 4.1 C 37.3 4.1 36.37 8.65 36.4 8.6 Z M 41.3 6 C 41.3 6 41.3 6 41.3 6 C 41.3 5.9 41.3 5.9 41.3 5.9 C 41.3 5.9 41.3 5.8 41.3 5.8 C 41.3 5.5 41.2 5.2 41 5.1 C 40.8 4.9 40.6 4.8 40.3 4.8 C 39.9 4.8 39.6 4.9 39.4 5.2 C 39.1 5.4 39 5.7 38.9 6 C 38.9 6 41.3 6 41.3 6 Z M 42 7.3 C 41.8 7.9 41.6 8.3 41.2 8.5 C 40.8 8.8 40.3 8.9 39.8 8.9 C 39.5 8.9 39.2 8.9 38.9 8.8 C 38.7 8.7 38.5 8.5 38.3 8.4 C 38.1 8.2 38 8 37.9 7.7 C 37.8 7.5 37.7 7.2 37.7 6.9 C 37.7 6.5 37.8 6.2 37.9 5.8 C 38 5.5 38.2 5.2 38.4 4.9 C 38.6 4.6 38.9 4.4 39.2 4.2 C 39.5 4.1 39.9 4 40.3 4 C 40.7 4 41.1 4.1 41.3 4.2 C 41.6 4.3 41.8 4.5 41.9 4.7 C 42.1 4.9 42.2 5.2 42.2 5.4 C 42.3 5.7 42.3 5.9 42.3 6.1 C 42.3 6.3 42.3 6.4 42.3 6.5 C 42.3 6.5 42.2 6.6 42.2 6.7 C 42.2 6.7 38.8 6.7 38.8 6.7 C 38.8 6.7 38.8 6.8 38.8 6.8 C 38.8 6.8 38.8 6.8 38.8 6.9 C 38.8 6.9 38.8 7 38.8 7 C 38.8 7.3 38.8 7.6 39 7.8 C 39.2 8 39.5 8.1 39.9 8.1 C 40.1 8.1 40.4 8 40.6 7.9 C 40.8 7.8 40.9 7.6 41 7.3 C 41 7.3 42 7.3 42 7.3 Z M 43.6 4.1 L 44.5 4.1 L 44.4 4.8 C 44.4 4.8 44.42 4.81 44.4 4.8 C 44.6 4.6 44.8 4.4 45.1 4.2 C 45.4 4.1 45.7 4 46 4 C 46.5 4 46.8 4.1 47.1 4.3 C 47.3 4.6 47.4 4.9 47.4 5.2 C 47.4 5.3 47.4 5.4 47.4 5.5 C 47.4 5.6 47.4 5.7 47.3 5.8 C 47.34 5.8 46.7 8.8 46.7 8.8 L 45.7 8.8 C 45.7 8.8 46.29 5.9 46.3 5.9 C 46.3 5.8 46.3 5.8 46.3 5.7 C 46.4 5.6 46.4 5.5 46.4 5.5 C 46.4 5.4 46.4 5.4 46.4 5.3 C 46.4 5.2 46.3 5.2 46.3 5.1 C 46.2 5 46.2 4.9 46.1 4.9 C 46 4.8 45.8 4.8 45.6 4.8 C 45.4 4.8 45.3 4.8 45.1 4.9 C 44.9 5 44.8 5.1 44.7 5.3 C 44.6 5.4 44.5 5.5 44.4 5.7 C 44.3 5.9 44.2 6.1 44.2 6.3 C 44.17 6.25 43.6 8.8 43.6 8.8 L 42.6 8.8 L 43.6 4.1 Z M 51.6 5.7 C 51.6 5.4 51.5 5.2 51.3 5 C 51.2 4.9 50.9 4.8 50.7 4.8 C 50.4 4.8 50.2 4.9 50 5 C 49.8 5.1 49.6 5.3 49.5 5.5 C 49.4 5.7 49.3 5.9 49.2 6.2 C 49.2 6.4 49.1 6.7 49.1 6.9 C 49.1 7.1 49.1 7.2 49.2 7.4 C 49.2 7.5 49.3 7.6 49.4 7.7 C 49.4 7.8 49.5 7.9 49.7 8 C 49.8 8.1 50 8.1 50.2 8.1 C 50.5 8.1 50.7 8 50.9 7.8 C 51.1 7.7 51.2 7.5 51.3 7.2 C 51.3 7.2 52.4 7.2 52.4 7.2 C 52.2 7.8 51.9 8.2 51.5 8.5 C 51.1 8.8 50.6 8.9 50 8.9 C 49.7 8.9 49.4 8.9 49.2 8.8 C 48.9 8.7 48.7 8.5 48.6 8.3 C 48.4 8.2 48.3 8 48.2 7.7 C 48.1 7.5 48.1 7.2 48.1 6.9 C 48.1 6.5 48.2 6.2 48.3 5.8 C 48.4 5.4 48.6 5.1 48.8 4.9 C 49 4.6 49.3 4.4 49.6 4.2 C 50 4.1 50.3 4 50.7 4 C 51 4 51.2 4 51.5 4.1 C 51.7 4.2 51.9 4.3 52.1 4.4 C 52.2 4.6 52.4 4.7 52.5 4.9 C 52.6 5.2 52.6 5.4 52.6 5.7 C 52.6 5.7 51.6 5.7 51.6 5.7 Z M 53.3 4.1 L 54.4 4.1 L 54.9 7.5 L 54.9 7.5 L 56.7 4.1 L 57.8 4.1 C 57.8 4.1 55.12 8.92 55.1 8.9 C 55 9.1 54.9 9.4 54.8 9.6 C 54.7 9.8 54.5 9.9 54.4 10.1 C 54.2 10.3 54.1 10.4 53.9 10.5 C 53.7 10.6 53.4 10.6 53.1 10.6 C 53 10.6 52.7 10.6 52.5 10.5 C 52.5 10.5 52.7 9.7 52.7 9.7 C 52.8 9.7 52.8 9.7 52.9 9.7 C 53 9.8 53 9.8 53.1 9.8 C 53.2 9.8 53.4 9.7 53.5 9.7 C 53.6 9.6 53.7 9.5 53.8 9.4 C 53.76 9.37 54.2 8.6 54.2 8.6 L 53.3 4.1 Z M 61.2 7.5 C 61.2 7.6 61.2 7.7 61.3 7.8 C 61.3 7.9 61.4 7.9 61.5 8 C 61.6 8 61.6 8 61.7 8.1 C 61.8 8.1 61.9 8.1 62 8.1 C 62.3 8.1 62.5 8 62.7 8 C 62.8 7.9 63 7.8 63.1 7.6 C 63.2 7.5 63.3 7.3 63.3 7.1 C 63.4 6.9 63.5 6.7 63.5 6.5 C 63.5 6.5 63.5 6.5 63.5 6.5 C 63.4 6.5 63.3 6.6 63.2 6.6 C 63.1 6.7 63 6.7 62.8 6.7 C 62.7 6.7 62.5 6.7 62.3 6.7 C 62.1 6.7 62 6.8 61.8 6.8 C 61.6 6.9 61.5 6.9 61.4 7.1 C 61.3 7.2 61.2 7.3 61.2 7.5 Z M 64.3 7.4 C 64.3 7.5 64.3 7.6 64.2 7.7 C 64.2 7.7 64.2 7.8 64.2 7.9 C 64.2 8 64.2 8 64.3 8 C 64.3 8.1 64.3 8.1 64.4 8.1 C 64.5 8.1 64.5 8.1 64.6 8.1 C 64.7 8.1 64.7 8 64.8 8 C 64.8 8 64.6 8.8 64.6 8.8 C 64.5 8.8 64.4 8.8 64.2 8.9 C 64.1 8.9 64 8.9 63.8 8.9 C 63.6 8.9 63.5 8.8 63.4 8.7 C 63.3 8.6 63.2 8.5 63.2 8.3 C 63 8.5 62.8 8.7 62.5 8.8 C 62.2 8.9 61.9 8.9 61.6 8.9 C 61.4 8.9 61.3 8.9 61.1 8.8 C 60.9 8.8 60.8 8.7 60.6 8.6 C 60.5 8.5 60.4 8.4 60.3 8.2 C 60.2 8 60.2 7.9 60.2 7.7 C 60.2 7.4 60.2 7.1 60.3 6.9 C 60.5 6.7 60.6 6.6 60.8 6.5 C 61 6.3 61.2 6.2 61.4 6.2 C 61.6 6.1 61.9 6.1 62.1 6.1 C 62.5 6 62.8 6 63.2 6 C 63.3 6 63.5 5.9 63.6 5.8 C 63.7 5.7 63.7 5.5 63.7 5.4 C 63.7 5.1 63.6 5 63.5 4.9 C 63.3 4.8 63.1 4.8 62.9 4.8 C 62.6 4.8 62.4 4.9 62.2 5 C 62 5.1 61.8 5.2 61.8 5.5 C 61.8 5.5 60.8 5.5 60.8 5.5 C 60.8 5.2 60.9 5 61.1 4.8 C 61.2 4.6 61.4 4.5 61.6 4.3 C 61.7 4.2 62 4.1 62.2 4.1 C 62.4 4 62.7 4 63 4 C 63.4 4 63.7 4 64 4.1 C 64.2 4.2 64.4 4.3 64.5 4.4 C 64.6 4.5 64.7 4.6 64.7 4.8 C 64.7 4.9 64.7 5 64.7 5.1 C 64.7 5.3 64.7 5.5 64.6 5.8 C 64.6 5.8 64.3 7.4 64.3 7.4 Z M 66.8 2.7 L 67.8 2.7 L 67.5 4.1 L 68.4 4.1 L 68.3 4.9 L 67.3 4.9 C 67.3 4.9 66.86 7.16 66.9 7.2 C 66.8 7.3 66.8 7.4 66.8 7.5 C 66.8 7.5 66.8 7.6 66.8 7.7 C 66.8 7.8 66.8 7.9 66.8 7.9 C 66.9 8 67 8 67.1 8 C 67.2 8 67.3 8 67.4 8 C 67.5 8 67.6 8 67.7 8 C 67.7 8 67.5 8.7 67.5 8.7 C 67.4 8.8 67.2 8.8 67.1 8.8 C 66.9 8.8 66.8 8.8 66.7 8.8 C 66.5 8.8 66.3 8.8 66.2 8.7 C 66.1 8.7 66 8.6 65.9 8.6 C 65.9 8.5 65.8 8.4 65.8 8.3 C 65.8 8.2 65.7 8.1 65.7 8 C 65.7 7.9 65.8 7.8 65.8 7.7 C 65.8 7.6 65.8 7.5 65.8 7.4 C 65.81 7.43 66.3 4.9 66.3 4.9 L 65.5 4.9 L 65.7 4.1 L 66.5 4.1 L 66.8 2.7 Z M 72.4 2.3 C 72.4 2.3 74.99 2.35 75 2.3 C 75.3 2.3 75.6 2.4 75.8 2.5 C 76.1 2.5 76.3 2.6 76.4 2.7 C 76.6 2.8 76.7 3 76.7 3.1 C 76.8 3.2 76.9 3.4 76.9 3.5 C 77 3.7 77 3.8 77 4 C 77 4.1 77 4.2 77 4.3 C 77 4.3 77 4.4 77 4.5 C 77 4.6 76.9 4.7 76.9 4.8 C 76.9 5 76.8 5.2 76.7 5.3 C 76.6 5.5 76.5 5.7 76.3 5.8 C 76.1 5.9 75.9 6.1 75.6 6.2 C 75.4 6.3 75 6.3 74.6 6.3 C 74.64 6.31 72.7 6.3 72.7 6.3 L 72.2 8.8 L 71.1 8.8 L 72.4 2.3 Z M 72.9 5.4 C 72.9 5.4 74.6 5.39 74.6 5.4 C 74.9 5.4 75.1 5.4 75.2 5.3 C 75.4 5.2 75.5 5.1 75.6 5 C 75.7 4.9 75.8 4.7 75.8 4.6 C 75.9 4.4 75.9 4.3 75.9 4.1 C 75.9 4.1 75.9 4 75.8 3.9 C 75.8 3.8 75.8 3.7 75.7 3.6 C 75.6 3.5 75.5 3.4 75.4 3.4 C 75.2 3.3 75 3.3 74.8 3.3 C 74.8 3.27 73.3 3.3 73.3 3.3 L 72.9 5.4 Z M 78.4 2.3 L 79.4 2.3 L 79.2 3.3 L 78.2 3.3 L 78.4 2.3 Z M 78 4.1 L 79 4.1 L 78 8.8 L 77 8.8 L 78 4.1 Z M 80.2 4.1 L 81.2 4.1 L 81.1 4.8 C 81.1 4.8 81.08 4.81 81.1 4.8 C 81.3 4.6 81.5 4.4 81.8 4.2 C 82.1 4.1 82.4 4 82.7 4 C 83.2 4 83.5 4.1 83.7 4.3 C 83.9 4.6 84 4.9 84 5.2 C 84 5.3 84 5.4 84 5.5 C 84 5.6 84 5.7 84 5.8 C 84 5.8 83.4 8.8 83.4 8.8 L 82.3 8.8 C 82.3 8.8 82.94 5.9 82.9 5.9 C 83 5.8 83 5.8 83 5.7 C 83 5.6 83 5.5 83 5.5 C 83 5.4 83 5.4 83 5.3 C 83 5.2 83 5.2 82.9 5.1 C 82.9 5 82.8 4.9 82.7 4.9 C 82.6 4.8 82.5 4.8 82.3 4.8 C 82.1 4.8 81.9 4.8 81.8 4.9 C 81.6 5 81.5 5.1 81.3 5.3 C 81.2 5.4 81.1 5.5 81 5.7 C 80.9 5.9 80.9 6.1 80.8 6.3 C 80.83 6.25 80.3 8.8 80.3 8.8 L 79.3 8.8 L 80.2 4.1 Z M 87.3 4.8 C 87.1 4.8 86.9 4.9 86.7 5 C 86.5 5.1 86.3 5.3 86.2 5.5 C 86 5.7 85.9 5.9 85.9 6.2 C 85.8 6.4 85.8 6.7 85.8 6.9 C 85.8 7.2 85.9 7.5 86 7.7 C 86.2 8 86.5 8.1 86.8 8.1 C 87.1 8.1 87.3 8 87.5 7.9 C 87.7 7.8 87.9 7.6 88 7.4 C 88.2 7.2 88.3 7 88.3 6.7 C 88.4 6.5 88.4 6.2 88.4 6 C 88.4 5.7 88.3 5.4 88.2 5.1 C 88 4.9 87.7 4.8 87.3 4.8 Z M 86.8 8.9 C 86.1 8.9 85.6 8.7 85.3 8.4 C 84.9 8 84.8 7.5 84.8 6.9 C 84.8 6.5 84.8 6.1 84.9 5.8 C 85.1 5.4 85.2 5.1 85.5 4.9 C 85.7 4.6 86 4.4 86.3 4.2 C 86.6 4.1 87 4 87.4 4 C 88.1 4 88.6 4.2 88.9 4.5 C 89.3 4.8 89.4 5.3 89.4 6 C 89.4 6.4 89.4 6.8 89.3 7.1 C 89.1 7.5 89 7.8 88.7 8.1 C 88.5 8.3 88.2 8.5 87.9 8.7 C 87.6 8.8 87.2 8.9 86.8 8.9 Z M 90.3 4.1 L 91.4 4.1 L 91.9 7.5 L 91.9 7.5 L 93.7 4.1 L 94.8 4.1 C 94.8 4.1 92.11 8.92 92.1 8.9 C 92 9.1 91.9 9.4 91.8 9.6 C 91.6 9.8 91.5 9.9 91.4 10.1 C 91.2 10.3 91 10.4 90.8 10.5 C 90.6 10.6 90.4 10.6 90.1 10.6 C 89.9 10.6 89.7 10.6 89.5 10.5 C 89.5 10.5 89.7 9.7 89.7 9.7 C 89.8 9.7 89.8 9.7 89.9 9.7 C 89.9 9.8 90 9.8 90.1 9.8 C 90.2 9.8 90.4 9.7 90.5 9.7 C 90.6 9.6 90.7 9.5 90.7 9.4 C 90.75 9.37 91.2 8.6 91.2 8.6 L 90.3 4.1 Z M 98.6 7.9 C 98.6 7.9 100.19 7.86 100.2 7.9 C 100.3 7.9 100.4 7.9 100.6 7.8 C 100.8 7.8 100.9 7.8 101.1 7.8 C 101.3 7.7 101.5 7.6 101.6 7.5 C 101.7 7.3 101.8 7.1 101.9 6.9 C 101.9 6.8 101.9 6.7 101.8 6.6 C 101.8 6.5 101.8 6.3 101.7 6.2 C 101.6 6.1 101.5 6 101.4 6 C 101.2 5.9 101 5.8 100.7 5.8 C 100.7 5.85 99 5.8 99 5.8 L 98.6 7.9 Z M 99.2 5 C 99.2 5 100.84 5.04 100.8 5 C 101.1 5 101.3 5 101.5 4.9 C 101.7 4.9 101.8 4.8 101.9 4.7 C 102 4.6 102 4.5 102.1 4.3 C 102.1 4.2 102.1 4.1 102.1 4 C 102.1 4 102.1 3.9 102.1 3.8 C 102.1 3.7 102 3.6 102 3.6 C 101.9 3.5 101.8 3.4 101.7 3.3 C 101.5 3.3 101.4 3.3 101.1 3.3 C 101.13 3.27 99.5 3.3 99.5 3.3 L 99.2 5 Z M 98.6 2.3 C 98.6 2.3 101.37 2.35 101.4 2.3 C 101.8 2.3 102.1 2.4 102.4 2.5 C 102.6 2.6 102.8 2.8 102.9 2.9 C 103.1 3.1 103.2 3.2 103.2 3.4 C 103.2 3.6 103.2 3.7 103.2 3.9 C 103.2 4 103.2 4.2 103.2 4.4 C 103.1 4.6 103 4.7 102.9 4.9 C 102.8 5 102.7 5.1 102.5 5.2 C 102.4 5.3 102.2 5.4 102 5.4 C 102 5.4 102 5.4 102 5.4 C 102.7 5.6 103 6.1 103 6.7 C 103 6.9 102.9 7.1 102.9 7.3 C 102.8 7.6 102.7 7.8 102.5 8 C 102.3 8.2 102.1 8.4 101.8 8.6 C 101.5 8.7 101.1 8.8 100.6 8.8 C 100.57 8.77 97.3 8.8 97.3 8.8 L 98.6 2.3 Z M 107.6 8.8 L 106.7 8.8 L 106.8 8.1 C 106.8 8.1 106.79 8.08 106.8 8.1 C 106.6 8.3 106.4 8.5 106.1 8.7 C 105.8 8.8 105.5 8.9 105.2 8.9 C 104.7 8.9 104.4 8.8 104.2 8.6 C 103.9 8.3 103.8 8 103.8 7.7 C 103.8 7.6 103.8 7.5 103.8 7.4 C 103.8 7.3 103.9 7.2 103.9 7.1 C 103.88 7.09 104.5 4.1 104.5 4.1 L 105.5 4.1 C 105.5 4.1 104.93 6.99 104.9 7 C 104.9 7.1 104.9 7.1 104.9 7.2 C 104.9 7.3 104.9 7.4 104.9 7.4 C 104.9 7.5 104.9 7.5 104.9 7.6 C 104.9 7.7 104.9 7.7 104.9 7.8 C 105 7.9 105 8 105.1 8 C 105.2 8.1 105.4 8.1 105.6 8.1 C 105.8 8.1 105.9 8 106.1 8 C 106.3 7.9 106.4 7.8 106.6 7.6 C 106.7 7.5 106.8 7.3 106.9 7.2 C 106.9 7 107 6.8 107 6.6 C 107.05 6.64 107.6 4.1 107.6 4.1 L 108.6 4.1 L 107.6 8.8 Z M 112.1 5.5 C 112.1 5.2 112 5.1 111.9 5 C 111.7 4.9 111.5 4.8 111.2 4.8 C 111.1 4.8 111 4.8 110.9 4.8 C 110.8 4.9 110.7 4.9 110.6 4.9 C 110.6 5 110.5 5 110.5 5.1 C 110.4 5.2 110.4 5.3 110.4 5.4 C 110.4 5.5 110.4 5.6 110.5 5.7 C 110.6 5.7 110.7 5.8 110.8 5.8 C 111 5.9 111.1 5.9 111.3 6 C 111.4 6 111.6 6.1 111.8 6.1 C 111.9 6.2 112 6.2 112.2 6.3 C 112.3 6.4 112.4 6.5 112.5 6.6 C 112.6 6.6 112.7 6.8 112.8 6.9 C 112.8 7 112.8 7.2 112.8 7.4 C 112.8 7.6 112.8 7.9 112.7 8.1 C 112.5 8.3 112.4 8.4 112.2 8.5 C 112 8.7 111.8 8.8 111.5 8.8 C 111.3 8.9 111 8.9 110.8 8.9 C 110.5 8.9 110.3 8.9 110 8.8 C 109.8 8.8 109.6 8.7 109.4 8.6 C 109.2 8.4 109.1 8.3 109 8.1 C 108.9 7.9 108.8 7.6 108.8 7.3 C 108.8 7.3 109.8 7.3 109.8 7.3 C 109.8 7.6 109.9 7.8 110.1 7.9 C 110.3 8 110.5 8.1 110.8 8.1 C 110.9 8.1 111.1 8.1 111.2 8.1 C 111.3 8 111.4 8 111.5 8 C 111.6 7.9 111.7 7.8 111.7 7.8 C 111.8 7.7 111.8 7.6 111.8 7.4 C 111.8 7.3 111.8 7.2 111.7 7.1 C 111.6 7.1 111.5 7 111.4 6.9 C 111.2 6.9 111.1 6.8 110.9 6.8 C 110.7 6.7 110.6 6.7 110.4 6.6 C 110.3 6.6 110.1 6.5 110 6.4 C 109.9 6.4 109.8 6.3 109.7 6.2 C 109.6 6.1 109.5 6 109.4 5.9 C 109.4 5.7 109.4 5.6 109.4 5.4 C 109.4 5.2 109.4 4.9 109.5 4.8 C 109.6 4.6 109.8 4.4 110 4.3 C 110.2 4.2 110.4 4.1 110.6 4.1 C 110.8 4 111 4 111.3 4 C 111.5 4 111.8 4 112 4.1 C 112.2 4.1 112.4 4.2 112.6 4.3 C 112.7 4.4 112.9 4.6 113 4.8 C 113.1 5 113.1 5.2 113.1 5.5 C 113.1 5.5 112.1 5.5 112.1 5.5 Z M 117.5 2.3 L 121.9 2.3 L 121.7 3.3 L 118.4 3.3 L 118 5 L 120.9 5 L 120.7 5.9 L 117.8 5.9 L 117.3 8.8 L 116.1 8.8 L 117.5 2.3 Z M 122.5 7.5 C 122.5 7.6 122.5 7.7 122.6 7.8 C 122.6 7.9 122.7 7.9 122.8 8 C 122.8 8 122.9 8 123 8.1 C 123.1 8.1 123.2 8.1 123.3 8.1 C 123.6 8.1 123.8 8 123.9 8 C 124.1 7.9 124.3 7.8 124.4 7.6 C 124.5 7.5 124.6 7.3 124.6 7.1 C 124.7 6.9 124.7 6.7 124.8 6.5 C 124.8 6.5 124.8 6.5 124.8 6.5 C 124.7 6.5 124.6 6.6 124.5 6.6 C 124.3 6.7 124.2 6.7 124.1 6.7 C 124 6.7 123.8 6.7 123.6 6.7 C 123.4 6.7 123.3 6.8 123.1 6.8 C 122.9 6.9 122.8 6.9 122.7 7.1 C 122.5 7.2 122.5 7.3 122.5 7.5 Z M 125.6 7.4 C 125.6 7.5 125.5 7.6 125.5 7.7 C 125.5 7.7 125.5 7.8 125.5 7.9 C 125.5 8 125.5 8 125.5 8 C 125.6 8.1 125.6 8.1 125.7 8.1 C 125.8 8.1 125.8 8.1 125.9 8.1 C 125.9 8.1 126 8 126.1 8 C 126.1 8 125.9 8.8 125.9 8.8 C 125.8 8.8 125.6 8.8 125.5 8.9 C 125.4 8.9 125.2 8.9 125.1 8.9 C 124.9 8.9 124.8 8.8 124.7 8.7 C 124.6 8.6 124.5 8.5 124.5 8.3 C 124.3 8.5 124 8.7 123.8 8.8 C 123.5 8.9 123.2 8.9 122.9 8.9 C 122.7 8.9 122.5 8.9 122.4 8.8 C 122.2 8.8 122 8.7 121.9 8.6 C 121.8 8.5 121.7 8.4 121.6 8.2 C 121.5 8 121.5 7.9 121.5 7.7 C 121.5 7.4 121.5 7.1 121.6 6.9 C 121.7 6.7 121.9 6.6 122.1 6.5 C 122.2 6.3 122.4 6.2 122.7 6.2 C 122.9 6.1 123.2 6.1 123.4 6.1 C 123.8 6 124.1 6 124.4 6 C 124.6 6 124.8 5.9 124.9 5.8 C 124.9 5.7 125 5.5 125 5.4 C 125 5.1 124.9 5 124.7 4.9 C 124.6 4.8 124.4 4.8 124.2 4.8 C 123.9 4.8 123.7 4.9 123.5 5 C 123.2 5.1 123.1 5.2 123 5.5 C 123 5.5 122.1 5.5 122.1 5.5 C 122.1 5.2 122.2 5 122.3 4.8 C 122.5 4.6 122.6 4.5 122.8 4.3 C 123 4.2 123.2 4.1 123.5 4.1 C 123.7 4 124 4 124.3 4 C 124.7 4 125 4 125.2 4.1 C 125.5 4.2 125.7 4.3 125.8 4.4 C 125.9 4.5 125.9 4.6 126 4.8 C 126 4.9 126 5 126 5.1 C 126 5.3 126 5.5 125.9 5.8 C 125.9 5.8 125.6 7.4 125.6 7.4 Z M 127.5 4.1 L 128.5 4.1 L 128.3 4.8 C 128.3 4.8 128.33 4.81 128.3 4.8 C 128.5 4.6 128.7 4.4 129 4.2 C 129.3 4.1 129.6 4 129.9 4 C 130.4 4 130.7 4.1 131 4.3 C 131.2 4.6 131.3 4.9 131.3 5.2 C 131.3 5.3 131.3 5.4 131.3 5.5 C 131.3 5.6 131.3 5.7 131.2 5.8 C 131.25 5.8 130.6 8.8 130.6 8.8 L 129.6 8.8 C 129.6 8.8 130.19 5.9 130.2 5.9 C 130.2 5.8 130.2 5.8 130.2 5.7 C 130.3 5.6 130.3 5.5 130.3 5.5 C 130.3 5.4 130.3 5.4 130.3 5.3 C 130.3 5.2 130.2 5.2 130.2 5.1 C 130.2 5 130.1 4.9 130 4.9 C 129.9 4.8 129.7 4.8 129.6 4.8 C 129.3 4.8 129.2 4.8 129 4.9 C 128.9 5 128.7 5.1 128.6 5.3 C 128.5 5.4 128.4 5.5 128.3 5.7 C 128.2 5.9 128.1 6.1 128.1 6.3 C 128.08 6.25 127.6 8.8 127.6 8.8 L 126.5 8.8 L 127.5 4.1 Z M 132.8 7.5 C 132.8 7.6 132.9 7.7 132.9 7.8 C 133 7.9 133 7.9 133.1 8 C 133.2 8 133.3 8 133.4 8.1 C 133.5 8.1 133.6 8.1 133.7 8.1 C 133.9 8.1 134.1 8 134.3 8 C 134.5 7.9 134.6 7.8 134.7 7.6 C 134.8 7.5 134.9 7.3 135 7.1 C 135 6.9 135.1 6.7 135.1 6.5 C 135.1 6.5 135.1 6.5 135.1 6.5 C 135 6.5 134.9 6.6 134.8 6.6 C 134.7 6.7 134.6 6.7 134.5 6.7 C 134.3 6.7 134.2 6.7 134 6.7 C 133.8 6.7 133.6 6.8 133.4 6.8 C 133.3 6.9 133.1 6.9 133 7.1 C 132.9 7.2 132.8 7.3 132.8 7.5 Z M 135.9 7.4 C 135.9 7.5 135.9 7.6 135.9 7.7 C 135.8 7.7 135.8 7.8 135.8 7.9 C 135.8 8 135.9 8 135.9 8 C 135.9 8.1 136 8.1 136.1 8.1 C 136.1 8.1 136.2 8.1 136.2 8.1 C 136.3 8.1 136.4 8 136.4 8 C 136.4 8 136.2 8.8 136.2 8.8 C 136.1 8.8 136 8.8 135.9 8.9 C 135.7 8.9 135.6 8.9 135.4 8.9 C 135.3 8.9 135.1 8.8 135 8.7 C 134.9 8.6 134.8 8.5 134.8 8.3 C 134.6 8.5 134.4 8.7 134.1 8.8 C 133.8 8.9 133.5 8.9 133.3 8.9 C 133.1 8.9 132.9 8.9 132.7 8.8 C 132.5 8.8 132.4 8.7 132.2 8.6 C 132.1 8.5 132 8.4 131.9 8.2 C 131.9 8 131.8 7.9 131.8 7.7 C 131.8 7.4 131.9 7.1 132 6.9 C 132.1 6.7 132.2 6.6 132.4 6.5 C 132.6 6.3 132.8 6.2 133 6.2 C 133.3 6.1 133.5 6.1 133.8 6.1 C 134.1 6 134.5 6 134.8 6 C 135 6 135.1 5.9 135.2 5.8 C 135.3 5.7 135.3 5.5 135.3 5.4 C 135.3 5.1 135.3 5 135.1 4.9 C 134.9 4.8 134.8 4.8 134.5 4.8 C 134.3 4.8 134 4.9 133.8 5 C 133.6 5.1 133.5 5.2 133.4 5.5 C 133.4 5.5 132.4 5.5 132.4 5.5 C 132.5 5.2 132.6 5 132.7 4.8 C 132.8 4.6 133 4.5 133.2 4.3 C 133.4 4.2 133.6 4.1 133.8 4.1 C 134.1 4 134.3 4 134.6 4 C 135 4 135.4 4 135.6 4.1 C 135.8 4.2 136 4.3 136.1 4.4 C 136.2 4.5 136.3 4.6 136.3 4.8 C 136.3 4.9 136.4 5 136.4 5.1 C 136.4 5.3 136.3 5.5 136.3 5.8 C 136.3 5.8 135.9 7.4 135.9 7.4 Z M 138.4 2.7 L 139.4 2.7 L 139.1 4.1 L 140.1 4.1 L 139.9 4.9 L 139 4.9 C 139 4.9 138.49 7.16 138.5 7.2 C 138.5 7.3 138.4 7.4 138.4 7.5 C 138.4 7.5 138.4 7.6 138.4 7.7 C 138.4 7.8 138.4 7.9 138.5 7.9 C 138.5 8 138.6 8 138.8 8 C 138.8 8 138.9 8 139 8 C 139.1 8 139.2 8 139.3 8 C 139.3 8 139.1 8.7 139.1 8.7 C 139 8.8 138.9 8.8 138.7 8.8 C 138.6 8.8 138.4 8.8 138.3 8.8 C 138.1 8.8 138 8.8 137.8 8.7 C 137.7 8.7 137.6 8.6 137.6 8.6 C 137.5 8.5 137.4 8.4 137.4 8.3 C 137.4 8.2 137.4 8.1 137.4 8 C 137.4 7.9 137.4 7.8 137.4 7.7 C 137.4 7.6 137.4 7.5 137.4 7.4 C 137.44 7.43 138 4.9 138 4.9 L 137.2 4.9 L 137.3 4.1 L 138.1 4.1 L 138.4 2.7 Z M 141.3 2.3 L 142.3 2.3 L 142.1 3.3 L 141.1 3.3 L 141.3 2.3 Z M 140.9 4.1 L 142 4.1 L 141 8.8 L 140 8.8 L 140.9 4.1 Z M 145.9 5.7 C 145.9 5.4 145.8 5.2 145.7 5 C 145.5 4.9 145.3 4.8 145 4.8 C 144.7 4.8 144.5 4.9 144.3 5 C 144.1 5.1 144 5.3 143.8 5.5 C 143.7 5.7 143.6 5.9 143.6 6.2 C 143.5 6.4 143.5 6.7 143.5 6.9 C 143.5 7.1 143.5 7.2 143.5 7.4 C 143.6 7.5 143.6 7.6 143.7 7.7 C 143.8 7.8 143.9 7.9 144 8 C 144.1 8.1 144.3 8.1 144.5 8.1 C 144.8 8.1 145.1 8 145.3 7.8 C 145.4 7.7 145.6 7.5 145.7 7.2 C 145.7 7.2 146.7 7.2 146.7 7.2 C 146.5 7.8 146.2 8.2 145.9 8.5 C 145.5 8.8 144.9 8.9 144.3 8.9 C 144 8.9 143.8 8.9 143.5 8.8 C 143.3 8.7 143.1 8.5 142.9 8.3 C 142.8 8.2 142.7 8 142.6 7.7 C 142.5 7.5 142.4 7.2 142.4 6.9 C 142.4 6.5 142.5 6.2 142.6 5.8 C 142.7 5.4 142.9 5.1 143.1 4.9 C 143.4 4.6 143.6 4.4 144 4.2 C 144.3 4.1 144.7 4 145.1 4 C 145.3 4 145.6 4 145.8 4.1 C 146 4.2 146.2 4.3 146.4 4.4 C 146.6 4.6 146.7 4.7 146.8 4.9 C 146.9 5.2 146.9 5.4 146.9 5.7 C 146.9 5.7 145.9 5.7 145.9 5.7 Z " stroke="none" fill="#fff"/>
  </g>
</svg>