<?xml version="1.0" standalone="no"?>
<!DOCTYPE svg PUBLIC "-//W3C//DTD SVG 1.1//EN" "http://www.w3.org/Graphics/SVG/1.1/DTD/svg11.dtd">
<svg xmlns="http://www.w3.org/2000/svg" version="1.1" width="149px" height="29.5px" viewBox="0 -3 149 29.5" style="top:-3px">
  <desc>Evan Phillip Mendoza at Allyana Dayne Tuazon</desc>
  <defs/>
  <g id="Polygon36724">
    <path d="M 0.5 11.3 C 0.5 11.3 2.16 11.27 2.2 11.3 C 2.8 11.3 3.3 11.4 3.6 11.5 C 4 11.7 4.3 12 4.5 12.4 C 4.8 12.8 4.9 13.3 4.9 13.9 C 4.9 14.7 4.7 15.3 4.2 15.8 C 3.8 16.3 3.2 16.6 2.4 16.6 C 2.37 16.6 0.5 16.6 0.5 16.6 L 0.5 11.3 Z M 1.8 12.3 L 1.8 15.6 C 1.8 15.6 2.28 15.6 2.3 15.6 C 2.7 15.6 3.1 15.4 3.3 15.1 C 3.5 14.7 3.6 14.3 3.6 13.9 C 3.6 13.6 3.6 13.3 3.4 13 C 3.3 12.7 3.1 12.5 3 12.4 C 2.8 12.3 2.6 12.3 2.3 12.3 C 2.29 12.25 1.8 12.3 1.8 12.3 Z M 8.5 11.3 L 10.1 16.6 L 8.8 16.6 L 8.5 15.5 L 6.8 15.5 L 6.4 16.6 L 5.3 16.6 L 7 11.3 L 8.5 11.3 Z M 7.1 14.5 L 8.2 14.5 L 7.6 12.6 L 7.1 14.5 Z M 14.5 11.3 L 12.8 14.4 L 12.8 16.6 L 11.6 16.6 L 11.6 14.4 L 9.9 11.3 L 11.4 11.3 L 12.4 13.3 L 13.4 11.3 L 14.5 11.3 Z M 19.3 11.3 L 19.3 16.6 L 18.2 16.6 C 18.2 16.6 16.11 13 16.1 13 C 16.1 13.1 16.1 13.2 16.1 13.2 C 16.1 13.3 16.1 13.3 16.1 13.4 C 16.13 13.41 16.1 16.6 16.1 16.6 L 15.2 16.6 L 15.2 11.3 L 16.5 11.3 C 16.5 11.3 18.32 14.41 18.3 14.4 C 18.3 14.3 18.3 14.1 18.3 14.1 C 18.3 14.06 18.3 11.3 18.3 11.3 L 19.3 11.3 Z M 24.5 12.3 L 21.9 12.3 L 21.9 13.4 L 23.9 13.4 L 23.9 14.4 L 21.9 14.4 L 21.9 15.5 L 24.5 15.5 L 24.5 16.6 L 20.7 16.6 L 20.7 11.3 L 24.5 11.3 L 24.5 12.3 Z M 31.2 11.3 L 31.2 12.3 L 29.9 12.3 L 29.9 16.6 L 28.6 16.6 L 28.6 12.3 L 27.3 12.3 L 27.3 11.3 L 31.2 11.3 Z M 36.3 11.3 C 36.3 11.3 36.29 14.59 36.3 14.6 C 36.3 15.1 36.2 15.5 36.1 15.8 C 36 16 35.8 16.3 35.4 16.4 C 35.1 16.6 34.7 16.7 34.2 16.7 C 33.6 16.7 33.2 16.6 32.9 16.5 C 32.6 16.3 32.4 16.1 32.3 15.8 C 32.1 15.5 32 15.1 32 14.6 C 32.03 14.59 32 11.3 32 11.3 L 33.4 11.3 C 33.4 11.3 33.38 14.59 33.4 14.6 C 33.4 14.9 33.4 15.1 33.5 15.2 C 33.5 15.4 33.6 15.5 33.7 15.5 C 33.9 15.6 34.1 15.7 34.3 15.7 C 34.5 15.7 34.7 15.6 34.9 15.5 C 35 15.5 35.1 15.4 35.1 15.2 C 35.2 15.1 35.2 14.9 35.2 14.6 C 35.22 14.59 35.2 11.3 35.2 11.3 L 36.3 11.3 Z M 40.1 11.3 L 41.8 16.6 L 40.4 16.6 L 40.1 15.5 L 38.4 15.5 L 38 16.6 L 36.9 16.6 L 38.7 11.3 L 40.1 11.3 Z M 38.7 14.5 L 39.8 14.5 L 39.2 12.6 L 38.7 14.5 Z M 46.5 12.2 L 43.8 15.6 L 46.6 15.6 L 46.6 16.6 L 42.3 16.6 L 42.3 15.7 L 45 12.3 L 42.5 12.3 L 42.5 11.3 L 46.5 11.3 L 46.5 12.2 Z M 49.6 16.7 C 48.9 16.7 48.3 16.4 47.9 15.9 C 47.5 15.3 47.4 14.7 47.4 13.9 C 47.4 13.1 47.6 12.5 47.9 12 C 48.3 11.4 48.9 11.2 49.7 11.2 C 50.4 11.2 51 11.5 51.3 12 C 51.7 12.6 51.9 13.2 51.9 13.9 C 51.9 14.7 51.7 15.4 51.3 15.9 C 50.9 16.4 50.4 16.7 49.6 16.7 Z M 50.6 13.9 C 50.6 12.8 50.3 12.2 49.6 12.2 C 49 12.2 48.7 12.8 48.7 13.9 C 48.7 15.1 49 15.7 49.6 15.7 C 50.3 15.7 50.6 15.1 50.6 13.9 C 50.6 13.9 50.6 13.9 50.6 13.9 Z M 57.1 11.3 L 57.1 16.6 L 56.1 16.6 C 56.1 16.6 53.99 13 54 13 C 54 13.1 54 13.2 54 13.2 C 54 13.3 54 13.3 54 13.4 C 54.01 13.41 54 16.6 54 16.6 L 53 16.6 L 53 11.3 L 54.4 11.3 C 54.4 11.3 56.2 14.41 56.2 14.4 C 56.2 14.3 56.2 14.1 56.2 14.1 C 56.18 14.06 56.2 11.3 56.2 11.3 L 57.1 11.3 Z " stroke="none" fill="#000"/>
  </g>
  <g id="Polygon36723">
    <path d="M 4.3 1.3 L 1.8 1.3 L 1.8 2.4 L 3.8 2.4 L 3.8 3.4 L 1.8 3.4 L 1.8 4.5 L 4.3 4.5 L 4.3 5.6 L 0.5 5.6 L 0.5 0.3 L 4.3 0.3 L 4.3 1.3 Z M 9.4 0.3 L 7.8 5.6 L 6.4 5.6 L 4.8 0.3 L 6.2 0.3 L 7.2 4.1 L 8.3 0.3 L 9.4 0.3 Z M 12.6 0.3 L 14.2 5.6 L 12.9 5.6 L 12.6 4.5 L 10.8 4.5 L 10.5 5.6 L 9.4 5.6 L 11.1 0.3 L 12.6 0.3 Z M 11.1 3.5 L 12.3 3.5 L 11.7 1.6 L 11.1 3.5 Z M 19.2 0.3 L 19.2 5.6 L 18.2 5.6 C 18.2 5.6 16.07 2 16.1 2 C 16.1 2.1 16.1 2.2 16.1 2.2 C 16.1 2.3 16.1 2.3 16.1 2.4 C 16.09 2.41 16.1 5.6 16.1 5.6 L 15.1 5.6 L 15.1 0.3 L 16.5 0.3 C 16.5 0.3 18.28 3.41 18.3 3.4 C 18.3 3.3 18.3 3.1 18.3 3.1 C 18.25 3.06 18.3 0.3 18.3 0.3 L 19.2 0.3 Z M 24.2 3.6 L 24.2 5.6 L 22.9 5.6 L 22.9 0.3 C 22.9 0.3 25.03 0.27 25 0.3 C 25.5 0.3 25.9 0.3 26.1 0.4 C 26.4 0.5 26.6 0.7 26.8 1 C 27 1.2 27.1 1.5 27.1 1.9 C 27.1 2.2 27 2.4 26.9 2.7 C 26.8 2.9 26.7 3.1 26.5 3.3 C 26.3 3.4 26.1 3.5 25.9 3.6 C 25.7 3.6 25.5 3.6 25.1 3.6 C 25.08 3.62 24.2 3.6 24.2 3.6 Z M 24.2 2.7 C 24.2 2.7 24.97 2.65 25 2.7 C 25.3 2.7 25.5 2.6 25.6 2.4 C 25.7 2.3 25.8 2.1 25.8 1.9 C 25.8 1.7 25.7 1.6 25.6 1.4 C 25.5 1.3 25.2 1.2 25 1.2 C 24.96 1.24 24.2 1.2 24.2 1.2 L 24.2 2.7 Z M 32.2 0.3 L 32.2 5.6 L 31 5.6 L 31 3.4 L 29.3 3.4 L 29.3 5.6 L 28.1 5.6 L 28.1 0.3 L 29.3 0.3 L 29.3 2.3 L 31 2.3 L 31 0.3 L 32.2 0.3 Z M 34.8 0.3 L 34.8 5.6 L 33.6 5.6 L 33.6 0.3 L 34.8 0.3 Z M 37.5 4.5 L 39.6 4.5 L 39.6 5.6 L 36.2 5.6 L 36.2 0.3 L 37.5 0.3 L 37.5 4.5 Z M 41.8 4.5 L 44 4.5 L 44 5.6 L 40.6 5.6 L 40.6 0.3 L 41.8 0.3 L 41.8 4.5 Z M 46.2 0.3 L 46.2 5.6 L 44.9 5.6 L 44.9 0.3 L 46.2 0.3 Z M 48.8 3.6 L 48.8 5.6 L 47.6 5.6 L 47.6 0.3 C 47.6 0.3 49.65 0.27 49.7 0.3 C 50.1 0.3 50.5 0.3 50.7 0.4 C 51 0.5 51.2 0.7 51.4 1 C 51.6 1.2 51.7 1.5 51.7 1.9 C 51.7 2.2 51.6 2.4 51.5 2.7 C 51.4 2.9 51.3 3.1 51.1 3.3 C 50.9 3.4 50.7 3.5 50.5 3.6 C 50.4 3.6 50.1 3.6 49.7 3.6 C 49.7 3.62 48.8 3.6 48.8 3.6 Z M 48.8 2.7 C 48.8 2.7 49.59 2.65 49.6 2.7 C 49.9 2.7 50.1 2.6 50.2 2.4 C 50.4 2.3 50.4 2.1 50.4 1.9 C 50.4 1.7 50.4 1.6 50.2 1.4 C 50.1 1.3 49.9 1.2 49.6 1.2 C 49.59 1.24 48.8 1.2 48.8 1.2 L 48.8 2.7 Z M 57.4 5.6 L 56.1 1.3 L 56.1 5.6 L 55 5.6 L 55 0.3 L 57 0.3 L 57.9 3.5 L 58.9 0.3 L 60.8 0.3 L 60.8 5.6 L 59.6 5.6 L 59.6 1.3 L 58.2 5.6 L 57.4 5.6 Z M 66 1.3 L 63.5 1.3 L 63.5 2.4 L 65.5 2.4 L 65.5 3.4 L 63.5 3.4 L 63.5 4.5 L 66 4.5 L 66 5.6 L 62.2 5.6 L 62.2 0.3 L 66 0.3 L 66 1.3 Z M 71.2 0.3 L 71.2 5.6 L 70.1 5.6 C 70.1 5.6 68.05 2 68 2 C 68 2.1 68.1 2.2 68.1 2.2 C 68.1 2.3 68.1 2.3 68.1 2.4 C 68.07 2.41 68.1 5.6 68.1 5.6 L 67.1 5.6 L 67.1 0.3 L 68.4 0.3 C 68.4 0.3 70.26 3.41 70.3 3.4 C 70.2 3.3 70.2 3.1 70.2 3.1 C 70.23 3.06 70.2 0.3 70.2 0.3 L 71.2 0.3 Z M 72.6 0.3 C 72.6 0.3 74.22 0.27 74.2 0.3 C 74.9 0.3 75.4 0.4 75.7 0.5 C 76 0.7 76.3 1 76.6 1.4 C 76.8 1.8 77 2.3 77 2.9 C 77 3.7 76.7 4.3 76.3 4.8 C 75.8 5.3 75.2 5.6 74.4 5.6 C 74.42 5.6 72.6 5.6 72.6 5.6 L 72.6 0.3 Z M 73.8 1.3 L 73.8 4.6 C 73.8 4.6 74.33 4.6 74.3 4.6 C 74.8 4.6 75.1 4.4 75.3 4.1 C 75.6 3.7 75.7 3.3 75.7 2.9 C 75.7 2.6 75.6 2.3 75.5 2 C 75.4 1.7 75.2 1.5 75 1.4 C 74.8 1.3 74.6 1.3 74.3 1.3 C 74.34 1.25 73.8 1.3 73.8 1.3 Z M 80.1 5.7 C 79.4 5.7 78.8 5.4 78.4 4.9 C 78 4.3 77.8 3.7 77.8 2.9 C 77.8 2.1 78 1.5 78.4 1 C 78.8 0.4 79.4 0.2 80.1 0.2 C 80.9 0.2 81.4 0.5 81.8 1 C 82.2 1.6 82.4 2.2 82.4 2.9 C 82.4 3.7 82.2 4.4 81.8 4.9 C 81.4 5.4 80.8 5.7 80.1 5.7 Z M 81.1 2.9 C 81.1 1.8 80.8 1.2 80.1 1.2 C 79.5 1.2 79.2 1.8 79.2 2.9 C 79.2 4.1 79.5 4.7 80.1 4.7 C 80.8 4.7 81.1 4.1 81.1 2.9 C 81.1 2.9 81.1 2.9 81.1 2.9 Z M 87.4 1.2 L 84.7 4.6 L 87.5 4.6 L 87.5 5.6 L 83.2 5.6 L 83.2 4.7 L 85.8 1.3 L 83.3 1.3 L 83.3 0.3 L 87.4 0.3 L 87.4 1.2 Z M 91.1 0.3 L 92.8 5.6 L 91.4 5.6 L 91.1 4.5 L 89.4 4.5 L 89 5.6 L 87.9 5.6 L 89.6 0.3 L 91.1 0.3 Z M 89.7 3.5 L 90.8 3.5 L 90.2 1.6 L 89.7 3.5 Z M 98.6 0.3 L 100.3 5.6 L 98.9 5.6 L 98.6 4.5 L 96.9 4.5 L 96.5 5.6 L 95.4 5.6 L 97.2 0.3 L 98.6 0.3 Z M 97.2 3.5 L 98.3 3.5 L 97.7 1.6 L 97.2 3.5 Z M 104.1 0.3 L 104.1 1.3 L 102.8 1.3 L 102.8 5.6 L 101.5 5.6 L 101.5 1.3 L 100.2 1.3 L 100.2 0.3 L 104.1 0.3 Z M 109.9 0.3 L 111.6 5.6 L 110.3 5.6 L 109.9 4.5 L 108.2 4.5 L 107.9 5.6 L 106.8 5.6 L 108.5 0.3 L 109.9 0.3 Z M 108.5 3.5 L 109.6 3.5 L 109.1 1.6 L 108.5 3.5 Z M 113.8 4.5 L 115.9 4.5 L 115.9 5.6 L 112.5 5.6 L 112.5 0.3 L 113.8 0.3 L 113.8 4.5 Z M 118.1 4.5 L 120.2 4.5 L 120.2 5.6 L 116.8 5.6 L 116.8 0.3 L 118.1 0.3 L 118.1 4.5 Z M 124.5 0.3 L 122.9 3.4 L 122.9 5.6 L 121.6 5.6 L 121.6 3.4 L 119.9 0.3 L 121.4 0.3 L 122.4 2.3 L 123.4 0.3 L 124.5 0.3 Z M 127.4 0.3 L 129.1 5.6 L 127.8 5.6 L 127.4 4.5 L 125.7 4.5 L 125.4 5.6 L 124.3 5.6 L 126 0.3 L 127.4 0.3 Z M 126 3.5 L 127.1 3.5 L 126.6 1.6 L 126 3.5 Z M 134.1 0.3 L 134.1 5.6 L 133 5.6 C 133 5.6 130.95 2 130.9 2 C 131 2.1 131 2.2 131 2.2 C 131 2.3 131 2.3 131 2.4 C 130.97 2.41 131 5.6 131 5.6 L 130 5.6 L 130 0.3 L 131.3 0.3 C 131.3 0.3 133.16 3.41 133.2 3.4 C 133.1 3.3 133.1 3.1 133.1 3.1 C 133.14 3.06 133.1 0.3 133.1 0.3 L 134.1 0.3 Z M 138.1 0.3 L 139.8 5.6 L 138.4 5.6 L 138.1 4.5 L 136.4 4.5 L 136.1 5.6 L 135 5.6 L 136.7 0.3 L 138.1 0.3 Z M 136.7 3.5 L 137.8 3.5 L 137.3 1.6 L 136.7 3.5 Z " stroke="none" fill="#000"/>
  </g>
</svg>