<?xml version="1.0" standalone="no"?>
<!DOCTYPE svg PUBLIC "-//W3C//DTD SVG 1.1//EN" "http://www.w3.org/Graphics/SVG/1.1/DTD/svg11.dtd">
<svg xmlns="http://www.w3.org/2000/svg" version="1.1" width="30px" height="24.8px" viewBox="0 -5 30 24.8" style="top:-5px">
  <desc>3</desc>
  <defs/>
  <g id="Polygon16564">
    <path d="M 1.1 11.1 C 0.9 11 0.9 10.9 0.9 10.7 C 0.9 10 0.9 9.2 1 8.9 C 1 8.7 1.1 8.6 1.1 8.6 C 1.2 8.6 1.3 8.7 1.3 8.8 C 1.3 9.7 2 10.8 3.5 10.8 C 5 10.8 6.2 10 6.2 8.2 C 6.2 6.2 4.4 5.5 3.7 5.4 C 3.3 5.3 3.2 5.2 3.2 5.1 C 3.2 5 3.3 4.9 3.5 4.9 C 4.2 4.8 5.8 4.1 5.8 2.3 C 5.8 1.7 5.4 0.5 3.8 0.5 C 2.6 0.5 1.7 1.2 1.7 2.1 C 1.7 2.2 1.7 2.3 1.6 2.3 C 1.5 2.3 1.5 2.2 1.5 2.1 C 1.4 1.6 1.4 0.9 1.4 0.6 C 1.4 0.4 1.4 0.4 1.6 0.3 C 2.1 0.1 3 -0.3 4.2 -0.3 C 7.1 -0.3 7.6 1.3 7.6 2 C 7.6 3.4 6.1 4.5 5.5 4.7 C 5.5 4.7 5.5 4.7 5.5 4.7 C 6.6 4.9 8.1 5.8 8.1 7.7 C 8.1 9.8 6.3 11.5 3.4 11.5 C 2.3 11.5 1.5 11.3 1.1 11.1 Z " stroke="none" fill="#000"/>
  </g>
</svg>