<?xml version="1.0" standalone="no"?>
<!DOCTYPE svg PUBLIC "-//W3C//DTD SVG 1.1//EN" "http://www.w3.org/Graphics/SVG/1.1/DTD/svg11.dtd">
<svg xmlns="http://www.w3.org/2000/svg" version="1.1" width="112.4px" height="18px" viewBox="0 -3 112.4 18" style="top:-3px">
  <desc>Pengeng bebe time</desc>
  <defs/>
  <g id="Polygon31763">
    <path d="M 2.1 3.6 C 2.1 3.6 3.54 3.64 3.5 3.6 C 4.2 3.6 4.7 3.3 4.7 2.5 C 4.7 1.9 4.2 1.7 3.7 1.7 C 3.7 1.71 2.5 1.7 2.5 1.7 L 2.1 3.6 Z M 1.3 0.6 C 1.3 0.6 3.88 0.61 3.9 0.6 C 5.2 0.6 6.1 1.1 6.1 2.5 C 6.1 3.9 4.9 4.7 3.6 4.7 C 3.61 4.73 1.9 4.7 1.9 4.7 L 1.4 7 L 0 7 L 1.3 0.6 Z M 7.4 5 C 7.4 5.1 7.4 5.2 7.4 5.3 C 7.4 5.8 7.7 6.2 8.4 6.2 C 8.9 6.2 9.2 5.9 9.4 5.6 C 9.4 5.6 10.7 5.6 10.7 5.6 C 10.3 6.6 9.6 7.2 8.3 7.2 C 7 7.2 6.2 6.5 6.2 5.1 C 6.2 3.6 7.2 2.3 8.7 2.3 C 10 2.3 10.9 2.9 10.9 4.3 C 10.9 4.5 10.9 4.8 10.8 5 C 10.8 5 7.4 5 7.4 5 Z M 9.7 4.2 C 9.7 3.7 9.6 3.2 8.8 3.2 C 8.1 3.2 7.7 3.7 7.6 4.2 C 7.6 4.2 9.7 4.2 9.7 4.2 Z M 12.2 2.4 L 13.4 2.4 L 13.3 3 C 13.3 3 13.31 3.03 13.3 3 C 13.7 2.5 14.3 2.3 14.9 2.3 C 15.8 2.3 16.3 2.7 16.3 3.5 C 16.3 3.7 16.2 4.1 16.2 4.3 C 16.16 4.31 15.6 7 15.6 7 L 14.3 7 C 14.3 7 14.88 4.31 14.9 4.3 C 14.9 4.2 15 3.9 15 3.7 C 15 3.5 14.6 3.3 14.3 3.3 C 13.6 3.3 13.2 3.9 13 4.6 C 13.04 4.56 12.5 7 12.5 7 L 11.2 7 L 12.2 2.4 Z M 18.4 5 C 18.4 5.5 18.6 6 19.2 6 C 20.2 6 20.6 5 20.6 4.2 C 20.6 3.6 20.3 3.2 19.7 3.2 C 18.8 3.2 18.4 4.2 18.4 5 Z M 21.3 6.8 C 21 8.2 20.3 8.8 18.8 8.8 C 17.8 8.8 16.8 8.4 16.8 7.3 C 16.8 7.3 18 7.3 18 7.3 C 18 7.7 18.5 7.9 18.9 7.9 C 19.7 7.9 19.9 7.2 20.2 6.3 C 20.2 6.3 20.2 6.3 20.2 6.3 C 19.8 6.7 19.4 7 18.9 7 C 17.8 7 17.1 6.2 17.1 5.1 C 17.1 3.7 17.9 2.3 19.4 2.3 C 20.1 2.3 20.6 2.5 20.9 3.1 C 20.86 3.1 20.9 3.1 20.9 3.1 L 21 2.4 L 22.2 2.4 C 22.2 2.4 21.32 6.8 21.3 6.8 Z M 23.8 5 C 23.8 5.1 23.8 5.2 23.8 5.3 C 23.8 5.8 24.2 6.2 24.9 6.2 C 25.4 6.2 25.6 5.9 25.8 5.6 C 25.8 5.6 27.1 5.6 27.1 5.6 C 26.7 6.6 26 7.2 24.7 7.2 C 23.4 7.2 22.6 6.5 22.6 5.1 C 22.6 3.6 23.6 2.3 25.2 2.3 C 26.5 2.3 27.4 2.9 27.4 4.3 C 27.4 4.5 27.3 4.8 27.3 5 C 27.3 5 23.8 5 23.8 5 Z M 26.1 4.2 C 26.1 3.7 26 3.2 25.3 3.2 C 24.5 3.2 24.2 3.7 24 4.2 C 24 4.2 26.1 4.2 26.1 4.2 Z M 28.6 2.4 L 29.9 2.4 L 29.7 3 C 29.7 3 29.75 3.03 29.7 3 C 30.2 2.5 30.7 2.3 31.4 2.3 C 32.3 2.3 32.7 2.7 32.7 3.5 C 32.7 3.7 32.6 4.1 32.6 4.3 C 32.6 4.31 32 7 32 7 L 30.7 7 C 30.7 7 31.31 4.31 31.3 4.3 C 31.3 4.2 31.4 3.9 31.4 3.7 C 31.4 3.5 31.1 3.3 30.8 3.3 C 30 3.3 29.6 3.9 29.5 4.6 C 29.48 4.56 29 7 29 7 L 27.7 7 L 28.6 2.4 Z M 34.8 5 C 34.8 5.5 35.1 6 35.7 6 C 36.6 6 37 5 37 4.2 C 37 3.6 36.7 3.2 36.1 3.2 C 35.3 3.2 34.8 4.2 34.8 5 Z M 37.8 6.8 C 37.4 8.2 36.7 8.8 35.2 8.8 C 34.2 8.8 33.2 8.4 33.2 7.3 C 33.2 7.3 34.5 7.3 34.5 7.3 C 34.5 7.7 34.9 7.9 35.3 7.9 C 36.1 7.9 36.4 7.2 36.6 6.3 C 36.6 6.3 36.6 6.3 36.6 6.3 C 36.3 6.7 35.8 7 35.3 7 C 34.2 7 33.5 6.2 33.5 5.1 C 33.5 3.7 34.4 2.3 35.9 2.3 C 36.5 2.3 37 2.5 37.3 3.1 C 37.29 3.1 37.3 3.1 37.3 3.1 L 37.5 2.4 L 38.7 2.4 C 38.7 2.4 37.75 6.8 37.8 6.8 Z M 43.1 5.2 C 43.1 5.8 43.4 6.2 44 6.2 C 45 6.2 45.4 5.1 45.4 4.3 C 45.4 3.7 45.1 3.2 44.5 3.2 C 43.5 3.2 43.1 4.4 43.1 5.2 Z M 42.8 0.6 L 44.1 0.6 L 43.6 2.9 C 43.6 2.9 43.61 2.88 43.6 2.9 C 44 2.4 44.4 2.3 45 2.3 C 46.2 2.3 46.7 3.2 46.7 4.2 C 46.7 5.7 45.8 7.2 44.3 7.2 C 43.6 7.2 43 7 42.8 6.3 C 42.8 6.31 42.8 6.3 42.8 6.3 L 42.6 7 L 41.4 7 L 42.8 0.6 Z M 48.5 5 C 48.5 5.1 48.5 5.2 48.5 5.3 C 48.5 5.8 48.8 6.2 49.5 6.2 C 50 6.2 50.2 5.9 50.4 5.6 C 50.4 5.6 51.7 5.6 51.7 5.6 C 51.3 6.6 50.6 7.2 49.3 7.2 C 48.1 7.2 47.2 6.5 47.2 5.1 C 47.2 3.6 48.2 2.3 49.8 2.3 C 51.1 2.3 52 2.9 52 4.3 C 52 4.5 51.9 4.8 51.9 5 C 51.9 5 48.5 5 48.5 5 Z M 50.7 4.2 C 50.7 3.7 50.6 3.2 49.9 3.2 C 49.1 3.2 48.8 3.7 48.6 4.2 C 48.6 4.2 50.7 4.2 50.7 4.2 Z M 53.9 5.2 C 53.9 5.8 54.3 6.2 54.9 6.2 C 55.8 6.2 56.2 5.1 56.2 4.3 C 56.2 3.7 56 3.2 55.3 3.2 C 54.3 3.2 53.9 4.4 53.9 5.2 Z M 53.6 0.6 L 54.9 0.6 L 54.4 2.9 C 54.4 2.9 54.46 2.88 54.5 2.9 C 54.9 2.4 55.2 2.3 55.8 2.3 C 57 2.3 57.5 3.2 57.5 4.2 C 57.5 5.7 56.7 7.2 55.1 7.2 C 54.5 7.2 53.9 7 53.6 6.3 C 53.64 6.31 53.6 6.3 53.6 6.3 L 53.5 7 L 52.3 7 L 53.6 0.6 Z M 59.3 5 C 59.3 5.1 59.3 5.2 59.3 5.3 C 59.3 5.8 59.6 6.2 60.3 6.2 C 60.8 6.2 61.1 5.9 61.3 5.6 C 61.3 5.6 62.6 5.6 62.6 5.6 C 62.2 6.6 61.5 7.2 60.1 7.2 C 58.9 7.2 58.1 6.5 58.1 5.1 C 58.1 3.6 59.1 2.3 60.6 2.3 C 61.9 2.3 62.8 2.9 62.8 4.3 C 62.8 4.5 62.8 4.8 62.7 5 C 62.7 5 59.3 5 59.3 5 Z M 61.6 4.2 C 61.6 3.7 61.5 3.2 60.7 3.2 C 60 3.2 59.6 3.7 59.4 4.2 C 59.4 4.2 61.6 4.2 61.6 4.2 Z M 68.3 2.4 L 69.3 2.4 L 69.1 3.2 L 68.1 3.2 C 68.1 3.2 67.67 5.55 67.7 5.6 C 67.7 5.7 67.6 5.7 67.6 5.8 C 67.6 6.1 67.9 6.1 68.1 6.1 C 68.2 6.1 68.4 6.1 68.5 6.1 C 68.5 6.1 68.3 7.1 68.3 7.1 C 68 7.1 67.8 7.1 67.5 7.1 C 66.9 7.1 66.3 6.9 66.3 6.2 C 66.3 6.1 66.3 5.9 66.4 5.7 C 66.36 5.73 66.9 3.2 66.9 3.2 L 66 3.2 L 66.2 2.4 L 67.1 2.4 L 67.3 1 L 68.6 1 L 68.3 2.4 Z M 70.1 2.4 L 71.4 2.4 L 70.4 7 L 69.1 7 L 70.1 2.4 Z M 71.6 1.7 L 70.3 1.7 L 70.5 0.6 L 71.8 0.6 L 71.6 1.7 Z M 72.5 2.4 L 73.8 2.4 L 73.6 3 C 73.6 3 73.64 3.04 73.6 3 C 74 2.5 74.6 2.3 75.3 2.3 C 75.8 2.3 76.3 2.5 76.4 3.1 C 76.7 2.6 77.4 2.3 78 2.3 C 78.7 2.3 79.4 2.6 79.4 3.4 C 79.4 3.7 79.3 4 79.2 4.3 C 79.24 4.3 78.7 7 78.7 7 L 77.4 7 C 77.4 7 78 4.09 78 4.1 C 78 4 78 3.9 78 3.8 C 78 3.5 77.8 3.3 77.5 3.3 C 76.8 3.3 76.4 4 76.3 4.5 C 76.28 4.54 75.8 7 75.8 7 L 74.5 7 C 74.5 7 75.09 4.09 75.1 4.1 C 75.1 4 75.1 3.9 75.1 3.8 C 75.1 3.5 74.9 3.3 74.6 3.3 C 73.9 3.3 73.5 4 73.4 4.5 C 73.37 4.54 72.8 7 72.8 7 L 71.6 7 L 72.5 2.4 Z M 81.3 5 C 81.2 5.1 81.2 5.2 81.2 5.3 C 81.2 5.8 81.6 6.2 82.3 6.2 C 82.8 6.2 83 5.9 83.2 5.6 C 83.2 5.6 84.5 5.6 84.5 5.6 C 84.1 6.6 83.4 7.2 82.1 7.2 C 80.8 7.2 80 6.5 80 5.1 C 80 3.6 81 2.3 82.6 2.3 C 83.9 2.3 84.8 2.9 84.8 4.3 C 84.8 4.5 84.7 4.8 84.7 5 C 84.7 5 81.3 5 81.3 5 Z M 83.5 4.2 C 83.5 3.7 83.4 3.2 82.7 3.2 C 81.9 3.2 81.6 3.7 81.4 4.2 C 81.4 4.2 83.5 4.2 83.5 4.2 Z M 85.4 5.7 L 86.9 5.7 L 86.6 7 L 85.1 7 L 85.4 5.7 Z M 87.5 2.4 L 86.6 5.1 L 85.9 5.1 L 86.2 2.4 L 86.5 0.6 L 87.9 0.6 L 87.5 2.4 Z " stroke="none" fill="#000"/>
  </g>
</svg>