<?xml version="1.0" standalone="no"?>
<!DOCTYPE svg PUBLIC "-//W3C//DTD SVG 1.1//EN" "http://www.w3.org/Graphics/SVG/1.1/DTD/svg11.dtd">
<svg xmlns="http://www.w3.org/2000/svg" version="1.1" width="120px" height="16.9px" viewBox="0 -1 120 16.9" style="top:-1px">
  <desc>INA p 14</desc>
  <defs/>
  <g id="Polygon28441">
    <path d="M 70.3 3.7 L 71.6 3.7 L 71.6 10.2 L 70.3 10.2 L 70.3 3.7 Z M 73 3.7 L 74.1 3.7 L 76.9 8 L 76.9 3.7 L 78.1 3.7 L 78.1 10.2 L 77 10.2 L 74.2 6 L 74.2 10.2 L 73 10.2 L 73 3.7 Z M 81.6 3.7 L 82.8 3.7 L 85.3 10.2 L 84 10.2 L 83.5 8.9 L 80.9 8.9 L 80.4 10.2 L 79.1 10.2 L 81.6 3.7 Z M 82.2 5.4 L 81.3 7.7 L 83.1 7.7 L 82.2 5.4 Z M 88.6 5.3 L 88.6 4.2 L 92.9 6.5 L 92.9 7.5 L 88.6 9.7 L 88.6 8.6 L 91.7 7 L 88.6 5.3 Z M 94 5.3 L 94 4.2 L 98.3 6.5 L 98.3 7.5 L 94 9.7 L 94 8.6 L 97.1 7 L 94 5.3 Z M 103.2 5.4 C 103.2 5.4 103.17 5.95 103.2 5.9 C 103.4 5.7 103.6 5.6 103.9 5.5 C 104.1 5.3 104.4 5.3 104.7 5.3 C 105.3 5.3 105.8 5.5 106.3 6 C 106.7 6.5 106.9 7.1 106.9 7.8 C 106.9 8.5 106.7 9.1 106.2 9.6 C 105.8 10.1 105.3 10.3 104.6 10.3 C 104.4 10.3 104.1 10.3 103.9 10.2 C 103.6 10.1 103.4 9.9 103.2 9.7 C 103.17 9.69 103.2 11.9 103.2 11.9 L 102 11.9 L 102 5.4 L 103.2 5.4 Z M 104.4 6.4 C 104 6.4 103.7 6.5 103.5 6.8 C 103.2 7 103.1 7.4 103.1 7.8 C 103.1 8.2 103.2 8.6 103.5 8.8 C 103.7 9.1 104 9.2 104.4 9.2 C 104.8 9.2 105.1 9.1 105.4 8.8 C 105.6 8.6 105.7 8.2 105.7 7.8 C 105.7 7.4 105.6 7.1 105.4 6.8 C 105.1 6.5 104.8 6.4 104.4 6.4 Z M 108.6 8.9 C 108.8 8.9 108.9 9 109.1 9.1 C 109.2 9.3 109.3 9.4 109.3 9.6 C 109.3 9.8 109.2 10 109.1 10.1 C 108.9 10.3 108.8 10.3 108.6 10.3 C 108.4 10.3 108.2 10.3 108.1 10.1 C 107.9 10 107.9 9.8 107.9 9.6 C 107.9 9.4 107.9 9.3 108.1 9.1 C 108.2 9 108.4 8.9 108.6 8.9 Z M 111.3 3.7 L 113.1 3.7 L 113.1 10.2 L 111.9 10.2 L 111.9 4.9 L 110.6 4.9 L 111.3 3.7 Z M 117.9 3.6 L 119.1 3.6 L 119.1 7.7 L 119.7 7.7 L 119.7 8.9 L 119.1 8.9 L 119.1 10.2 L 117.9 10.2 L 117.9 8.9 L 115.1 8.9 L 115.1 7.7 L 117.9 3.6 Z M 117.9 7.7 L 117.9 5.6 L 116.4 7.7 L 117.9 7.7 Z " stroke="none" fill="#000"/>
  </g>
</svg>