<?xml version="1.0" standalone="no"?>
<!DOCTYPE svg PUBLIC "-//W3C//DTD SVG 1.1//EN" "http://www.w3.org/Graphics/SVG/1.1/DTD/svg11.dtd">
<svg xmlns="http://www.w3.org/2000/svg" version="1.1" width="792px" height="31.8px" viewBox="0 -7 792 31.8" style="top:-7px">
  <desc>#LigtasNaBalikEskuwela:</desc>
  <defs/>
  <g id="Polygon16397">
    <path d="M 3.4 0.7 L 5.1 0.7 L 4.5 4.5 L 6.5 4.5 L 7.1 0.7 L 8.8 0.7 L 8.2 4.5 L 10 4.5 L 9.8 6.1 L 8 6.1 L 7.7 8.3 L 9.5 8.3 L 9.2 9.9 L 7.4 9.9 L 6.8 14 L 5.1 14 L 5.7 9.9 L 3.7 9.9 L 3.1 14 L 1.4 14 L 2 9.9 L 0.2 9.9 L 0.4 8.3 L 2.2 8.3 L 2.6 6.1 L 0.8 6.1 L 1 4.5 L 2.8 4.5 L 3.4 0.7 Z M 4.3 6.1 L 4 8.3 L 5.9 8.3 L 6.3 6.1 L 4.3 6.1 Z M 11.5 0.7 L 14.4 0.7 L 14.4 11.5 L 18.7 11.5 L 18.7 14 L 11.5 14 L 11.5 0.7 Z M 20 0.7 L 22.9 0.7 L 22.9 14 L 20 14 L 20 0.7 Z M 30.1 6.9 L 34.8 6.9 L 34.8 14 L 33.5 14 C 33.5 14 33.13 12.48 33.1 12.5 C 32.4 13.6 31.3 14.2 29.9 14.2 C 28.4 14.2 27.2 13.6 26.3 12.4 C 25.4 11.2 25 9.6 25 7.6 C 25 5.4 25.4 3.7 26.3 2.4 C 27.2 1.1 28.5 0.5 30.2 0.5 C 32.9 0.5 34.4 2 34.8 5 C 34.8 5 32.1 5.5 32.1 5.5 C 31.9 3.7 31.3 2.9 30.2 2.9 C 29.6 2.9 29 3.2 28.6 3.8 C 28.3 4.5 28.1 5.7 28.1 7.5 C 28.1 9.1 28.2 10.2 28.6 10.8 C 29 11.5 29.6 11.8 30.3 11.8 C 31.5 11.8 32.1 10.9 32.1 9.2 C 32.12 9.18 30.1 9.2 30.1 9.2 L 30.1 6.9 Z M 35.7 0.7 L 44.1 0.7 L 44.1 3.2 L 41.3 3.2 L 41.3 14 L 38.4 14 L 38.4 3.2 L 35.7 3.2 L 35.7 0.7 Z M 47.2 0.7 L 50.1 0.7 L 53.9 14 L 50.9 14 L 50.3 11.3 L 46.5 11.3 L 45.8 14 L 43.2 14 L 47.2 0.7 Z M 49.7 9 L 48.4 3.5 L 47.1 9 L 49.7 9 Z M 58.8 0.5 C 61.2 0.5 62.6 1.5 63.2 3.6 C 63.2 3.6 60.8 4.5 60.8 4.5 C 60.4 3.4 59.8 2.9 58.9 2.9 C 58.4 2.9 58.1 3 57.8 3.2 C 57.6 3.5 57.5 3.7 57.5 4.1 C 57.5 4.4 57.6 4.8 57.9 5 C 58.2 5.2 58.8 5.5 59.8 5.9 C 60.6 6.2 61.3 6.5 61.8 6.8 C 62.3 7.1 62.7 7.5 63 8.1 C 63.3 8.6 63.4 9.2 63.4 10 C 63.4 11.2 63 12.2 62.2 13 C 61.3 13.8 60.2 14.2 58.7 14.2 C 56.3 14.2 54.8 13 54.1 10.5 C 54.1 10.5 56.7 9.8 56.7 9.8 C 57 11.2 57.7 11.8 58.8 11.8 C 59.3 11.8 59.7 11.7 60 11.4 C 60.3 11.2 60.5 10.8 60.5 10.4 C 60.5 10.1 60.4 9.8 60.2 9.5 C 59.9 9.3 59.4 9 58.6 8.7 C 57.6 8.3 56.9 8 56.4 7.7 C 55.9 7.4 55.4 7 55.1 6.4 C 54.8 5.9 54.6 5.3 54.6 4.6 C 54.6 3.4 55 2.4 55.8 1.6 C 56.6 0.9 57.6 0.5 58.8 0.5 C 58.8 0.5 58.8 0.5 58.8 0.5 Z M 65.1 0.7 L 68.4 0.7 L 71.8 9 L 71.8 0.7 L 74.1 0.7 L 74.1 14 L 71.5 14 L 67.4 4.4 L 67.4 14 L 65.1 14 L 65.1 0.7 Z M 79.2 0.7 L 82.2 0.7 L 86 14 L 83 14 L 82.3 11.3 L 78.6 11.3 L 77.9 14 L 75.2 14 L 79.2 0.7 Z M 81.8 9 L 80.4 3.5 L 79.1 9 L 81.8 9 Z M 87.1 0.7 C 87.1 0.7 91.65 0.67 91.7 0.7 C 92.7 0.7 93.5 0.8 94.1 0.9 C 94.6 1.1 95.1 1.5 95.4 2 C 95.8 2.6 96 3.3 96 4.2 C 96 5.7 95.4 6.6 94.1 7.1 C 95.6 7.6 96.3 8.7 96.3 10.3 C 96.3 11.2 96.1 11.9 95.7 12.5 C 95.3 13.1 94.8 13.5 94.2 13.7 C 93.6 13.9 92.8 14 91.7 14 C 91.65 14 87.1 14 87.1 14 L 87.1 0.7 Z M 89.9 6.1 C 89.9 6.1 90.86 6.05 90.9 6.1 C 91.8 6.1 92.4 5.9 92.6 5.5 C 92.9 5.2 93 4.8 93 4.4 C 93 4 92.9 3.6 92.6 3.3 C 92.4 3 91.9 2.8 91.1 2.8 C 91.07 2.83 89.9 2.8 89.9 2.8 L 89.9 6.1 Z M 89.9 11.7 C 89.9 11.7 91.35 11.72 91.3 11.7 C 92.7 11.7 93.4 11.1 93.4 10 C 93.4 9.3 93.2 8.9 92.9 8.6 C 92.5 8.3 92 8.2 91.3 8.2 C 91.35 8.21 89.9 8.2 89.9 8.2 L 89.9 11.7 Z M 100.7 0.7 L 103.6 0.7 L 107.5 14 L 104.5 14 L 103.8 11.3 L 100 11.3 L 99.4 14 L 96.7 14 L 100.7 0.7 Z M 103.2 9 L 101.9 3.5 L 100.6 9 L 103.2 9 Z M 108.6 0.7 L 111.5 0.7 L 111.5 11.5 L 115.8 11.5 L 115.8 14 L 108.6 14 L 108.6 0.7 Z M 117.1 0.7 L 120 0.7 L 120 14 L 117.1 14 L 117.1 0.7 Z M 122.5 0.7 L 125.5 0.7 L 125.5 6.2 L 128.7 0.7 L 131.7 0.7 L 128.3 5.6 L 131.9 14 L 128.9 14 L 126.6 7.9 L 125.5 9.5 L 125.5 14 L 122.5 14 L 122.5 0.7 Z M 133.1 0.7 L 141.2 0.7 L 141.2 3 L 136 3 L 136 6.1 L 140 6.1 L 140 8.3 L 136 8.3 L 136 11.6 L 141.2 11.6 L 141.2 14 L 133.1 14 L 133.1 0.7 Z M 146.4 0.5 C 148.8 0.5 150.2 1.5 150.8 3.6 C 150.8 3.6 148.4 4.5 148.4 4.5 C 148 3.4 147.4 2.9 146.5 2.9 C 146 2.9 145.7 3 145.4 3.2 C 145.2 3.5 145.1 3.7 145.1 4.1 C 145.1 4.4 145.2 4.8 145.5 5 C 145.8 5.2 146.4 5.5 147.4 5.9 C 148.2 6.2 148.9 6.5 149.4 6.8 C 149.9 7.1 150.3 7.5 150.6 8.1 C 150.9 8.6 151 9.2 151 10 C 151 11.2 150.6 12.2 149.8 13 C 148.9 13.8 147.8 14.2 146.3 14.2 C 143.9 14.2 142.4 13 141.7 10.5 C 141.7 10.5 144.2 9.8 144.2 9.8 C 144.6 11.2 145.3 11.8 146.4 11.8 C 146.9 11.8 147.3 11.7 147.6 11.4 C 147.9 11.2 148.1 10.8 148.1 10.4 C 148.1 10.1 148 9.8 147.8 9.5 C 147.5 9.3 147 9 146.2 8.7 C 145.2 8.3 144.5 8 144 7.7 C 143.5 7.4 143 7 142.7 6.4 C 142.4 5.9 142.2 5.3 142.2 4.6 C 142.2 3.4 142.6 2.4 143.4 1.6 C 144.2 0.9 145.2 0.5 146.4 0.5 C 146.4 0.5 146.4 0.5 146.4 0.5 Z M 152.9 0.7 L 155.8 0.7 L 155.8 6.2 L 159 0.7 L 162 0.7 L 158.6 5.6 L 162.3 14 L 159.2 14 L 156.9 7.9 L 155.8 9.5 L 155.8 14 L 152.9 14 L 152.9 0.7 Z M 163.4 0.7 L 166.3 0.7 C 166.3 0.7 166.34 8.29 166.3 8.3 C 166.3 9.4 166.4 10.1 166.5 10.5 C 166.6 11 166.8 11.3 167.1 11.5 C 167.4 11.7 167.8 11.8 168.2 11.8 C 168.7 11.8 169.1 11.7 169.4 11.5 C 169.7 11.2 169.9 10.9 169.9 10.5 C 170 10.1 170 9.4 170 8.3 C 170.02 8.29 170 0.7 170 0.7 L 172.5 0.7 C 172.5 0.7 172.47 8.17 172.5 8.2 C 172.5 9.7 172.4 10.8 172.2 11.5 C 172 12.3 171.6 12.9 170.9 13.4 C 170.2 13.9 169.2 14.2 168 14.2 C 166.8 14.2 165.9 14 165.2 13.6 C 164.6 13.2 164.1 12.7 163.8 12 C 163.5 11.3 163.4 10.1 163.4 8.3 C 163.41 8.29 163.4 0.7 163.4 0.7 Z M 173.6 0.7 L 176.6 0.7 L 178 9.9 L 179.8 0.7 L 182.5 0.7 L 184.1 9.9 L 185.7 0.7 L 188.2 0.7 L 185.3 14.1 L 182.7 14.1 L 180.9 4.8 L 179.1 14.1 L 176.5 14.1 L 173.6 0.7 Z M 189.3 0.7 L 197.4 0.7 L 197.4 3 L 192.2 3 L 192.2 6.1 L 196.3 6.1 L 196.3 8.3 L 192.2 8.3 L 192.2 11.6 L 197.4 11.6 L 197.4 14 L 189.3 14 L 189.3 0.7 Z M 198.8 0.7 L 201.8 0.7 L 201.8 11.5 L 206.1 11.5 L 206.1 14 L 198.8 14 L 198.8 0.7 Z M 209.7 0.7 L 212.7 0.7 L 216.5 14 L 213.5 14 L 212.8 11.3 L 209 11.3 L 208.4 14 L 205.7 14 L 209.7 0.7 Z M 212.3 9 L 210.9 3.5 L 209.6 9 L 212.3 9 Z M 217.5 4.1 L 220.2 4.1 L 220.2 7.1 L 217.5 7.1 L 217.5 4.1 Z M 217.5 11.1 L 220.2 11.1 L 220.2 14 L 217.5 14 L 217.5 11.1 Z " stroke="none" fill="#000"/>
  </g>
</svg>