<?xml version="1.0" standalone="no"?>
<!DOCTYPE svg PUBLIC "-//W3C//DTD SVG 1.1//EN" "http://www.w3.org/Graphics/SVG/1.1/DTD/svg11.dtd">
<svg xmlns="http://www.w3.org/2000/svg" version="1.1" width="120px" height="13.9px" viewBox="0 -1 120 13.9" style="top:-1px">
  <desc>DUTERTE p 8</desc>
  <defs/>
  <g id="Polygon21665">
    <path d="M 57.1 3.2 C 57.1 3.2 58.57 3.17 58.6 3.2 C 59.5 3.2 60.2 3.3 60.7 3.5 C 61.1 3.8 61.5 4.1 61.8 4.7 C 62.1 5.2 62.2 5.8 62.2 6.5 C 62.2 7 62.2 7.5 62 7.9 C 61.8 8.3 61.6 8.6 61.3 8.9 C 61 9.2 60.7 9.4 60.4 9.5 C 60 9.6 59.4 9.6 58.6 9.6 C 58.59 9.64 57.1 9.6 57.1 9.6 L 57.1 3.2 Z M 58.3 4.4 L 58.3 8.4 C 58.3 8.4 58.9 8.44 58.9 8.4 C 59.5 8.4 59.9 8.4 60.1 8.2 C 60.4 8.1 60.6 7.9 60.7 7.6 C 60.9 7.3 61 6.9 61 6.5 C 61 5.8 60.8 5.3 60.4 4.9 C 60.1 4.5 59.5 4.4 58.7 4.4 C 58.75 4.36 58.3 4.4 58.3 4.4 Z M 63.4 3.2 L 64.6 3.2 C 64.6 3.2 64.6 7.36 64.6 7.4 C 64.6 7.7 64.6 8 64.7 8.1 C 64.8 8.3 64.9 8.4 65 8.5 C 65.2 8.6 65.3 8.6 65.5 8.6 C 65.7 8.6 65.9 8.6 66.1 8.5 C 66.2 8.4 66.4 8.2 66.4 8.1 C 66.5 7.9 66.5 7.6 66.5 7.2 C 66.51 7.2 66.5 3.2 66.5 3.2 L 67.7 3.2 C 67.7 3.2 67.74 7.03 67.7 7 C 67.7 7.7 67.7 8.1 67.6 8.4 C 67.6 8.6 67.4 8.9 67.2 9.1 C 67 9.3 66.8 9.5 66.5 9.6 C 66.2 9.7 65.9 9.8 65.6 9.8 C 65.1 9.8 64.7 9.7 64.3 9.5 C 64 9.3 63.7 9 63.6 8.7 C 63.4 8.3 63.4 7.8 63.4 7 C 63.36 7.03 63.4 3.2 63.4 3.2 Z M 68.5 3.2 L 72.1 3.2 L 72.1 4.4 L 70.9 4.4 L 70.9 9.6 L 69.7 9.6 L 69.7 4.4 L 68.5 4.4 L 68.5 3.2 Z M 73 3.2 L 76.5 3.2 L 76.5 4.4 L 74.2 4.4 L 74.2 5.5 L 76.5 5.5 L 76.5 6.7 L 74.2 6.7 L 74.2 8.4 L 76.5 8.4 L 76.5 9.6 L 73 9.6 L 73 3.2 Z M 77.7 3.2 C 77.7 3.2 79.02 3.17 79 3.2 C 79.7 3.2 80.2 3.2 80.5 3.4 C 80.8 3.5 81.1 3.7 81.3 4 C 81.5 4.3 81.5 4.6 81.5 5.1 C 81.5 5.5 81.4 5.8 81.2 6.1 C 81 6.4 80.7 6.6 80.3 6.8 C 80.32 6.77 81.9 9.6 81.9 9.6 L 80.5 9.6 L 79.1 6.9 L 78.9 6.9 L 78.9 9.6 L 77.7 9.6 L 77.7 3.2 Z M 78.9 5.7 C 78.9 5.7 79.33 5.7 79.3 5.7 C 79.7 5.7 80 5.7 80.1 5.5 C 80.3 5.4 80.4 5.3 80.4 5 C 80.4 4.9 80.3 4.8 80.2 4.7 C 80.2 4.6 80.1 4.5 80 4.4 C 79.8 4.4 79.6 4.4 79.3 4.4 C 79.28 4.37 78.9 4.4 78.9 4.4 L 78.9 5.7 Z M 82.2 3.2 L 85.8 3.2 L 85.8 4.4 L 84.6 4.4 L 84.6 9.6 L 83.4 9.6 L 83.4 4.4 L 82.2 4.4 L 82.2 3.2 Z M 86.6 3.2 L 90.2 3.2 L 90.2 4.4 L 87.9 4.4 L 87.9 5.5 L 90.2 5.5 L 90.2 6.7 L 87.9 6.7 L 87.9 8.4 L 90.2 8.4 L 90.2 9.6 L 86.6 9.6 L 86.6 3.2 Z M 93.6 4.8 L 93.6 3.7 L 98 5.9 L 98 6.9 L 93.6 9.1 L 93.6 8 L 96.7 6.4 L 93.6 4.8 Z M 99 4.8 L 99 3.7 L 103.4 5.9 L 103.4 6.9 L 99 9.1 L 99 8 L 102.1 6.4 L 99 4.8 Z M 108.2 4.9 C 108.2 4.9 108.21 5.39 108.2 5.4 C 108.4 5.2 108.7 5 108.9 4.9 C 109.2 4.8 109.4 4.7 109.7 4.7 C 110.3 4.7 110.9 5 111.3 5.4 C 111.7 5.9 112 6.5 112 7.3 C 112 8 111.7 8.6 111.3 9 C 110.8 9.5 110.3 9.8 109.7 9.8 C 109.4 9.8 109.2 9.7 108.9 9.6 C 108.7 9.5 108.4 9.4 108.2 9.1 C 108.21 9.13 108.2 11.4 108.2 11.4 L 107 11.4 L 107 4.9 L 108.2 4.9 Z M 109.5 5.8 C 109.1 5.8 108.8 6 108.5 6.2 C 108.3 6.5 108.2 6.8 108.2 7.2 C 108.2 7.7 108.3 8 108.5 8.3 C 108.8 8.5 109.1 8.7 109.5 8.7 C 109.8 8.7 110.1 8.5 110.4 8.3 C 110.6 8 110.8 7.7 110.8 7.2 C 110.8 6.8 110.6 6.5 110.4 6.2 C 110.2 6 109.8 5.8 109.5 5.8 Z M 113.6 8.4 C 113.8 8.4 114 8.5 114.1 8.6 C 114.2 8.7 114.3 8.9 114.3 9.1 C 114.3 9.3 114.2 9.4 114.1 9.6 C 114 9.7 113.8 9.8 113.6 9.8 C 113.4 9.8 113.3 9.7 113.1 9.6 C 113 9.4 112.9 9.3 112.9 9.1 C 112.9 8.9 113 8.7 113.1 8.6 C 113.3 8.5 113.4 8.4 113.6 8.4 Z M 118.7 6.1 C 119 6.3 119.2 6.6 119.4 6.9 C 119.6 7.2 119.6 7.5 119.6 7.8 C 119.6 8.2 119.5 8.5 119.4 8.8 C 119.2 9.2 118.9 9.4 118.6 9.6 C 118.3 9.7 117.9 9.8 117.4 9.8 C 116.9 9.8 116.5 9.7 116.2 9.6 C 115.9 9.4 115.6 9.2 115.4 8.9 C 115.2 8.6 115.1 8.2 115.1 7.8 C 115.1 7.5 115.2 7.2 115.4 6.9 C 115.5 6.6 115.7 6.4 116 6.1 C 115.8 5.9 115.7 5.7 115.6 5.5 C 115.5 5.3 115.4 5.1 115.4 4.8 C 115.4 4.5 115.5 4.2 115.7 3.9 C 115.9 3.6 116.1 3.4 116.4 3.2 C 116.7 3.1 117 3 117.4 3 C 117.8 3 118.1 3.1 118.4 3.2 C 118.7 3.4 118.9 3.6 119.1 3.9 C 119.2 4.2 119.3 4.5 119.3 4.8 C 119.3 5.1 119.3 5.3 119.2 5.5 C 119.1 5.7 118.9 5.9 118.7 6.1 Z M 117.4 4.2 C 117.1 4.2 117 4.3 116.9 4.4 C 116.7 4.5 116.7 4.7 116.7 4.9 C 116.7 5.1 116.7 5.3 116.9 5.4 C 117 5.6 117.2 5.6 117.4 5.6 C 117.6 5.6 117.8 5.6 117.9 5.4 C 118 5.3 118.1 5.1 118.1 4.9 C 118.1 4.7 118 4.5 117.9 4.4 C 117.7 4.3 117.6 4.2 117.4 4.2 Z M 117.4 6.8 C 117.1 6.8 116.9 6.9 116.7 7.1 C 116.4 7.2 116.3 7.5 116.3 7.7 C 116.3 8 116.4 8.2 116.6 8.4 C 116.8 8.5 117.1 8.6 117.4 8.6 C 117.7 8.6 117.9 8.6 118.1 8.4 C 118.3 8.2 118.4 8 118.4 7.7 C 118.4 7.5 118.3 7.2 118.1 7.1 C 117.9 6.9 117.7 6.8 117.4 6.8 Z " stroke="none" fill="#000"/>
  </g>
</svg>