<?xml version="1.0" standalone="no"?>
<!DOCTYPE svg PUBLIC "-//W3C//DTD SVG 1.1//EN" "http://www.w3.org/Graphics/SVG/1.1/DTD/svg11.dtd">
<svg xmlns="http://www.w3.org/2000/svg" version="1.1" width="310.4px" height="65.6px" viewBox="0 -9 310.4 65.6" style="top:-9px">
  <desc>#Tumindig</desc>
  <defs/>
  <g id="Polygon17251">
    <path d="M 91.8 18.8 L 95.2 18.8 L 94.6 22.9 L 91.3 22.9 L 91.8 18.8 Z M 85.1 26.8 L 87.6 26.8 L 86.8 32.7 L 90.1 32.7 L 90.9 26.8 L 94.2 26.8 L 93.4 32.7 L 96.7 32.7 L 97.5 26.8 L 100.4 26.8 L 100.4 22.9 L 97.9 22.9 L 98.5 18.8 L 101.4 18.8 L 101.4 15 L 98.9 15 L 99.7 9.1 L 96.4 9.1 L 95.6 15 L 92.3 15 L 93 9.1 L 89.8 9.1 L 89 15 L 86.1 15 L 86.1 18.8 L 88.6 18.8 L 88 22.9 L 85.1 22.9 L 85.1 26.8 Z M 101.8 8.4 L 101.8 12.4 L 107.1 12.4 L 107.1 32.7 L 112 32.7 L 112 12.4 L 117.3 12.4 L 117.3 8.4 L 101.8 8.4 Z M 126.1 32.7 L 130.6 32.7 L 130.6 14.4 L 125.9 14.4 C 125.9 14.4 125.94 26.52 125.9 26.5 C 125.9 28.5 125.1 29.5 123.5 29.5 C 122.8 29.5 122.2 29.4 121.9 29 C 121.6 28.6 121.5 27.9 121.5 27 C 121.45 27 121.5 14.4 121.5 14.4 L 116.8 14.4 C 116.8 14.4 116.76 27.95 116.8 27.9 C 116.8 29.8 117.2 31.1 118 31.9 C 118.8 32.7 119.9 33 121.4 33 C 122.4 33 123.3 32.9 124.1 32.5 C 124.9 32.1 125.6 31.4 126.1 30.5 C 126.08 30.53 126.1 30.5 126.1 30.5 L 126.1 32.7 Z M 133.8 32.7 L 138.5 32.7 C 138.5 32.7 138.45 20.64 138.5 20.6 C 138.5 19.5 138.7 18.8 139.1 18.3 C 139.6 17.8 140.2 17.5 140.9 17.5 C 141.6 17.5 142 17.7 142.3 18.1 C 142.6 18.5 142.7 19.1 142.7 19.9 C 142.74 19.89 142.7 32.7 142.7 32.7 L 147.4 32.7 C 147.4 32.7 147.43 20.64 147.4 20.6 C 147.4 19.5 147.6 18.8 148.1 18.3 C 148.5 17.8 149.1 17.5 149.9 17.5 C 150.5 17.5 151 17.7 151.3 18.1 C 151.6 18.5 151.7 19.1 151.7 19.9 C 151.71 19.89 151.7 32.7 151.7 32.7 L 156.4 32.7 C 156.4 32.7 156.4 19.38 156.4 19.4 C 156.4 17.6 156 16.3 155.3 15.3 C 154.6 14.4 153.4 13.9 151.8 13.9 C 150.7 13.9 149.8 14.1 149 14.6 C 148.2 15.1 147.6 15.9 147.2 16.8 C 147.2 16.8 147.2 16.8 147.2 16.8 C 146.9 15.9 146.4 15.2 145.7 14.7 C 144.9 14.2 144 13.9 142.9 13.9 C 141.9 13.9 141 14.1 140.3 14.4 C 139.6 14.8 138.9 15.4 138.3 16.3 C 138.32 16.25 138.2 16.3 138.2 16.3 L 138.2 14.4 L 133.8 14.4 L 133.8 32.7 Z M 159.7 12.1 L 164.4 12.1 L 164.4 8.1 L 159.7 8.1 L 159.7 12.1 Z M 159.7 32.7 L 164.4 32.7 L 164.4 14.4 L 159.7 14.4 L 159.7 32.7 Z M 167.7 32.7 L 172.4 32.7 C 172.4 32.7 172.38 20.54 172.4 20.5 C 172.4 18.5 173.2 17.5 174.9 17.5 C 175.6 17.5 176.1 17.7 176.4 18.1 C 176.7 18.4 176.9 19.1 176.9 20.1 C 176.87 20.06 176.9 32.7 176.9 32.7 L 181.6 32.7 C 181.6 32.7 181.56 19.11 181.6 19.1 C 181.6 17.3 181.2 15.9 180.4 15.1 C 179.6 14.3 178.4 13.9 176.9 13.9 C 175.9 13.9 175 14.1 174.2 14.5 C 173.4 15 172.7 15.6 172.2 16.5 C 172.25 16.52 172.2 16.5 172.2 16.5 L 172.2 14.4 L 167.7 14.4 L 167.7 32.7 Z M 194.1 32.7 L 198.6 32.7 L 198.6 8.4 L 193.9 8.4 L 193.9 16.1 C 193.9 16.1 193.8 16.08 193.8 16.1 C 193.3 15.4 192.7 14.8 192.1 14.4 C 191.5 14.1 190.7 13.9 189.9 13.9 C 187.9 13.9 186.5 14.7 185.6 16.2 C 184.7 17.7 184.2 20.1 184.2 23.5 C 184.2 26.9 184.7 29.4 185.6 30.8 C 186.5 32.3 187.9 33 189.9 33 C 190.8 33 191.6 32.9 192.3 32.5 C 192.9 32.2 193.5 31.6 194 30.7 C 194.01 30.74 194.1 30.7 194.1 30.7 L 194.1 32.7 Z M 189.4 19 C 189.7 18 190.4 17.5 191.4 17.5 C 192.4 17.5 193.1 18 193.4 19 C 193.7 20 193.9 21.5 193.9 23.5 C 193.9 25.5 193.7 27 193.4 28 C 193.1 29 192.4 29.5 191.4 29.5 C 190.4 29.5 189.7 29 189.4 28 C 189.1 27 188.9 25.5 188.9 23.5 C 188.9 21.5 189.1 20 189.4 19 Z M 201.9 12.1 L 206.6 12.1 L 206.6 8.1 L 201.9 8.1 L 201.9 12.1 Z M 201.9 32.7 L 206.6 32.7 L 206.6 14.4 L 201.9 14.4 L 201.9 32.7 Z M 214.3 21 C 214.3 20.1 214.4 19.5 214.6 19 C 214.8 18.4 215 18.1 215.4 17.8 C 215.7 17.6 216.1 17.5 216.6 17.5 C 217.5 17.5 218.2 18 218.5 18.9 C 218.9 19.8 219.1 21.4 219.1 23.6 C 219.1 24.4 219 25.1 218.9 25.8 C 218.9 26.4 218.7 27 218.5 27.4 C 218.3 27.9 218.1 28.2 217.8 28.5 C 217.4 28.7 217 28.9 216.5 28.9 C 216 28.9 215.6 28.7 215.3 28.5 C 215 28.2 214.8 27.9 214.6 27.4 C 214.4 27 214.3 26.5 214.3 25.9 C 214.2 25.3 214.2 24.7 214.2 24.1 C 214.2 22.9 214.2 21.8 214.3 21 Z M 219.1 14.4 L 219.1 16.4 C 219.1 16.4 219 16.42 219 16.4 C 218.5 15.5 218 14.8 217.3 14.4 C 216.6 14.1 215.9 13.9 215.2 13.9 C 214 13.9 212.9 14.2 212.2 14.8 C 211.4 15.3 210.8 16.1 210.4 16.9 C 210 17.8 209.8 18.8 209.7 20 C 209.5 21.1 209.5 22.2 209.5 23.2 C 209.5 26.6 209.9 28.9 210.9 30.3 C 211.8 31.8 213.2 32.5 215.1 32.5 C 215.8 32.5 216.6 32.3 217.2 31.9 C 217.9 31.4 218.5 30.9 219 30.2 C 219 30.23 219.1 30.2 219.1 30.2 C 219.1 30.2 219.07 32.64 219.1 32.6 C 219.1 33.5 218.9 34.3 218.5 34.9 C 218.1 35.5 217.4 35.8 216.5 35.8 C 216.2 35.8 215.9 35.8 215.6 35.7 C 215.4 35.6 215.1 35.5 214.9 35.3 C 214.4 35 214.2 34.5 214.2 33.9 C 214.2 33.9 209.7 33.9 209.7 33.9 C 209.7 35.5 210.3 36.7 211.3 37.6 C 212.4 38.4 213.9 38.8 215.9 38.8 C 218.7 38.8 220.6 38.2 221.8 37.1 C 223 35.9 223.6 34.1 223.6 31.8 C 223.55 31.76 223.6 14.4 223.6 14.4 L 219.1 14.4 Z " stroke="none" fill="#000"/>
  </g>
</svg>