<?xml version="1.0" standalone="no"?>
<!DOCTYPE svg PUBLIC "-//W3C//DTD SVG 1.1//EN" "http://www.w3.org/Graphics/SVG/1.1/DTD/svg11.dtd">
<svg xmlns="http://www.w3.org/2000/svg" version="1.1" width="116.4px" height="18px" viewBox="0 -3 116.4 18" style="top:-3px">
  <desc>Dibuho ni Karl Vincent Castro</desc>
  <defs/>
  <g id="Polygon15648">
    <path d="M 1.3 7.9 C 1.3 7.9 2.74 7.86 2.7 7.9 C 3.1 7.9 3.3 7.8 3.6 7.7 C 3.8 7.6 4 7.4 4.2 7.3 C 4.4 7.1 4.5 6.9 4.6 6.7 C 4.8 6.5 4.9 6.3 4.9 6.1 C 5 5.8 5 5.7 5.1 5.5 C 5.1 5.3 5.1 5.1 5.1 5 C 5.1 4.5 5 4 4.7 3.7 C 4.5 3.4 4.1 3.3 3.7 3.3 C 3.7 3.27 2.3 3.3 2.3 3.3 L 1.3 7.9 Z M 1.4 2.3 C 1.4 2.3 3.72 2.35 3.7 2.3 C 4.5 2.3 5.2 2.6 5.6 3 C 6 3.5 6.2 4.1 6.2 5 C 6.2 5.2 6.2 5.4 6.2 5.7 C 6.1 5.9 6.1 6.2 6 6.4 C 5.9 6.6 5.8 6.9 5.7 7.1 C 5.5 7.3 5.4 7.5 5.2 7.7 C 5 7.9 4.8 8 4.7 8.2 C 4.5 8.3 4.3 8.4 4.1 8.5 C 3.8 8.6 3.6 8.7 3.3 8.7 C 3 8.8 2.7 8.8 2.3 8.8 C 2.27 8.77 0 8.8 0 8.8 L 1.4 2.3 Z M 7.5 2.3 L 8.6 2.3 L 8.4 3.3 L 7.3 3.3 L 7.5 2.3 Z M 7.2 4.1 L 8.2 4.1 L 7.2 8.8 L 6.2 8.8 L 7.2 4.1 Z M 9.5 2.3 L 10.6 2.3 L 10.1 4.7 C 10.1 4.7 10.1 4.67 10.1 4.7 C 10.4 4.2 10.9 4 11.5 4 C 11.8 4 12 4 12.3 4.1 C 12.5 4.2 12.7 4.4 12.8 4.5 C 13 4.7 13.1 4.9 13.1 5.1 C 13.2 5.4 13.3 5.6 13.3 5.9 C 13.3 6.3 13.2 6.6 13.1 7 C 13 7.4 12.9 7.7 12.7 8 C 12.4 8.2 12.2 8.5 11.9 8.6 C 11.6 8.8 11.2 8.9 10.8 8.9 C 10.5 8.9 10.2 8.8 9.9 8.7 C 9.6 8.6 9.4 8.3 9.3 8 C 9.29 7.99 9.3 8 9.3 8 L 9.1 8.8 L 8.2 8.8 L 9.5 2.3 Z M 11.2 4.8 C 10.9 4.8 10.7 4.9 10.5 5 C 10.3 5.1 10.1 5.3 10 5.5 C 9.9 5.7 9.8 5.9 9.7 6.2 C 9.6 6.4 9.6 6.7 9.6 6.9 C 9.6 7.3 9.7 7.6 9.9 7.8 C 10 8 10.3 8.1 10.7 8.1 C 11 8.1 11.2 8 11.4 7.9 C 11.6 7.8 11.7 7.6 11.9 7.4 C 12 7.2 12.1 7 12.1 6.7 C 12.2 6.5 12.2 6.2 12.2 6 C 12.2 5.6 12.2 5.3 12 5.1 C 11.8 4.9 11.5 4.8 11.2 4.8 Z M 17.6 8.8 L 16.6 8.8 L 16.8 8.1 C 16.8 8.1 16.74 8.08 16.7 8.1 C 16.6 8.3 16.3 8.5 16 8.7 C 15.8 8.8 15.5 8.9 15.1 8.9 C 14.7 8.9 14.3 8.8 14.1 8.6 C 13.9 8.3 13.8 8 13.8 7.7 C 13.8 7.6 13.8 7.5 13.8 7.4 C 13.8 7.3 13.8 7.2 13.8 7.1 C 13.82 7.09 14.4 4.1 14.4 4.1 L 15.5 4.1 C 15.5 4.1 14.88 6.99 14.9 7 C 14.9 7.1 14.8 7.1 14.8 7.2 C 14.8 7.3 14.8 7.4 14.8 7.4 C 14.8 7.5 14.8 7.5 14.8 7.6 C 14.8 7.7 14.8 7.7 14.9 7.8 C 14.9 7.9 15 8 15.1 8 C 15.2 8.1 15.3 8.1 15.5 8.1 C 15.7 8.1 15.9 8 16.1 8 C 16.2 7.9 16.4 7.8 16.5 7.6 C 16.6 7.5 16.7 7.3 16.8 7.2 C 16.9 7 17 6.8 17 6.6 C 16.99 6.64 17.5 4.1 17.5 4.1 L 18.5 4.1 L 17.6 8.8 Z M 19.8 2.3 L 20.9 2.3 L 20.4 4.8 C 20.4 4.8 20.38 4.78 20.4 4.8 C 20.5 4.5 20.8 4.4 21.1 4.2 C 21.3 4.1 21.6 4 21.9 4 C 22.4 4 22.7 4.1 22.9 4.3 C 23.2 4.6 23.3 4.9 23.3 5.2 C 23.3 5.3 23.3 5.4 23.3 5.5 C 23.2 5.6 23.2 5.7 23.2 5.8 C 23.22 5.8 22.6 8.8 22.6 8.8 L 21.6 8.8 C 21.6 8.8 22.17 5.9 22.2 5.9 C 22.2 5.8 22.2 5.8 22.2 5.7 C 22.2 5.6 22.2 5.5 22.2 5.5 C 22.2 5.4 22.2 5.4 22.2 5.3 C 22.2 5.2 22.2 5.2 22.2 5.1 C 22.1 5 22.1 4.9 22 4.9 C 21.9 4.8 21.7 4.8 21.5 4.8 C 21.3 4.8 21.1 4.8 21 4.9 C 20.8 5 20.7 5.1 20.6 5.3 C 20.4 5.4 20.3 5.5 20.2 5.7 C 20.2 5.9 20.1 6.1 20.1 6.3 C 20.05 6.25 19.5 8.8 19.5 8.8 L 18.5 8.8 L 19.8 2.3 Z M 26.3 4.8 C 26 4.8 25.8 4.9 25.6 5 C 25.4 5.1 25.3 5.3 25.1 5.5 C 25 5.7 24.9 5.9 24.8 6.2 C 24.8 6.4 24.7 6.7 24.7 6.9 C 24.7 7.2 24.8 7.5 25 7.7 C 25.2 8 25.4 8.1 25.8 8.1 C 26.1 8.1 26.3 8 26.5 7.9 C 26.7 7.8 26.8 7.6 27 7.4 C 27.1 7.2 27.2 7 27.3 6.7 C 27.3 6.5 27.4 6.2 27.4 6 C 27.4 5.7 27.3 5.4 27.1 5.1 C 26.9 4.9 26.7 4.8 26.3 4.8 Z M 25.7 8.9 C 25.1 8.9 24.6 8.7 24.2 8.4 C 23.9 8 23.7 7.5 23.7 6.9 C 23.7 6.5 23.8 6.1 23.9 5.8 C 24 5.4 24.2 5.1 24.4 4.9 C 24.7 4.6 24.9 4.4 25.3 4.2 C 25.6 4.1 26 4 26.4 4 C 27 4 27.5 4.2 27.9 4.5 C 28.2 4.8 28.4 5.3 28.4 6 C 28.4 6.4 28.3 6.8 28.2 7.1 C 28.1 7.5 27.9 7.8 27.7 8.1 C 27.5 8.3 27.2 8.5 26.9 8.7 C 26.5 8.8 26.2 8.9 25.7 8.9 Z M 31.7 4.1 L 32.7 4.1 L 32.6 4.8 C 32.6 4.8 32.59 4.81 32.6 4.8 C 32.8 4.6 33 4.4 33.3 4.2 C 33.6 4.1 33.9 4 34.2 4 C 34.7 4 35 4.1 35.2 4.3 C 35.4 4.6 35.5 4.9 35.5 5.2 C 35.5 5.3 35.5 5.4 35.5 5.5 C 35.5 5.6 35.5 5.7 35.5 5.8 C 35.5 5.8 34.9 8.8 34.9 8.8 L 33.9 8.8 C 33.9 8.8 34.45 5.9 34.4 5.9 C 34.5 5.8 34.5 5.8 34.5 5.7 C 34.5 5.6 34.5 5.5 34.5 5.5 C 34.5 5.4 34.5 5.4 34.5 5.3 C 34.5 5.2 34.5 5.2 34.4 5.1 C 34.4 5 34.3 4.9 34.2 4.9 C 34.1 4.8 34 4.8 33.8 4.8 C 33.6 4.8 33.4 4.8 33.3 4.9 C 33.1 5 33 5.1 32.8 5.3 C 32.7 5.4 32.6 5.5 32.5 5.7 C 32.4 5.9 32.4 6.1 32.3 6.3 C 32.33 6.25 31.8 8.8 31.8 8.8 L 30.8 8.8 L 31.7 4.1 Z M 37.1 2.3 L 38.1 2.3 L 37.9 3.3 L 36.9 3.3 L 37.1 2.3 Z M 36.7 4.1 L 37.8 4.1 L 36.8 8.8 L 35.8 8.8 L 36.7 4.1 Z M 41.3 2.3 L 42.5 2.3 L 41.9 5.3 L 41.9 5.3 L 45.2 2.3 L 46.7 2.3 L 43.6 5 L 45.6 8.8 L 44.3 8.8 L 42.7 5.7 L 41.6 6.7 L 41.1 8.8 L 40 8.8 L 41.3 2.3 Z M 46.9 7.5 C 46.9 7.6 47 7.7 47 7.8 C 47.1 7.9 47.1 7.9 47.2 8 C 47.3 8 47.4 8 47.5 8.1 C 47.6 8.1 47.7 8.1 47.8 8.1 C 48 8.1 48.2 8 48.4 8 C 48.6 7.9 48.7 7.8 48.8 7.6 C 48.9 7.5 49 7.3 49.1 7.1 C 49.1 6.9 49.2 6.7 49.2 6.5 C 49.2 6.5 49.2 6.5 49.2 6.5 C 49.1 6.5 49 6.6 48.9 6.6 C 48.8 6.7 48.7 6.7 48.6 6.7 C 48.4 6.7 48.3 6.7 48.1 6.7 C 47.9 6.7 47.7 6.8 47.5 6.8 C 47.4 6.9 47.2 6.9 47.1 7.1 C 47 7.2 46.9 7.3 46.9 7.5 Z M 50 7.4 C 50 7.5 50 7.6 50 7.7 C 49.9 7.7 49.9 7.8 49.9 7.9 C 49.9 8 50 8 50 8 C 50 8.1 50.1 8.1 50.2 8.1 C 50.2 8.1 50.3 8.1 50.3 8.1 C 50.4 8.1 50.5 8 50.5 8 C 50.5 8 50.3 8.8 50.3 8.8 C 50.2 8.8 50.1 8.8 50 8.9 C 49.8 8.9 49.7 8.9 49.5 8.9 C 49.4 8.9 49.2 8.8 49.1 8.7 C 49 8.6 48.9 8.5 48.9 8.3 C 48.7 8.5 48.5 8.7 48.2 8.8 C 47.9 8.9 47.6 8.9 47.4 8.9 C 47.2 8.9 47 8.9 46.8 8.8 C 46.6 8.8 46.5 8.7 46.3 8.6 C 46.2 8.5 46.1 8.4 46 8.2 C 46 8 45.9 7.9 45.9 7.7 C 45.9 7.4 46 7.1 46.1 6.9 C 46.2 6.7 46.3 6.6 46.5 6.5 C 46.7 6.3 46.9 6.2 47.1 6.2 C 47.4 6.1 47.6 6.1 47.9 6.1 C 48.2 6 48.6 6 48.9 6 C 49.1 6 49.2 5.9 49.3 5.8 C 49.4 5.7 49.4 5.5 49.4 5.4 C 49.4 5.1 49.4 5 49.2 4.9 C 49 4.8 48.9 4.8 48.6 4.8 C 48.4 4.8 48.1 4.9 47.9 5 C 47.7 5.1 47.6 5.2 47.5 5.5 C 47.5 5.5 46.5 5.5 46.5 5.5 C 46.6 5.2 46.7 5 46.8 4.8 C 46.9 4.6 47.1 4.5 47.3 4.3 C 47.5 4.2 47.7 4.1 47.9 4.1 C 48.2 4 48.4 4 48.7 4 C 49.1 4 49.5 4 49.7 4.1 C 49.9 4.2 50.1 4.3 50.2 4.4 C 50.3 4.5 50.4 4.6 50.4 4.8 C 50.4 4.9 50.5 5 50.5 5.1 C 50.5 5.3 50.4 5.5 50.4 5.8 C 50.4 5.8 50 7.4 50 7.4 Z M 51.7 4.1 L 52.6 4.1 L 52.5 5 C 52.5 5 52.47 5.05 52.5 5 C 52.5 4.9 52.6 4.8 52.7 4.7 C 52.8 4.5 53 4.4 53.1 4.3 C 53.2 4.2 53.3 4.2 53.5 4.1 C 53.6 4 53.8 4 54 4 C 54 4 54.1 4 54.2 4 C 54.3 4 54.4 4 54.5 4 C 54.5 4 54.2 5 54.2 5 C 54.2 5 54.1 5 54.1 5 C 54 5 53.9 5 53.9 5 C 53.6 5 53.4 5 53.2 5.1 C 53 5.2 52.8 5.3 52.7 5.5 C 52.6 5.7 52.4 5.8 52.4 6 C 52.3 6.3 52.2 6.5 52.2 6.7 C 52.17 6.71 51.7 8.8 51.7 8.8 L 50.7 8.8 L 51.7 4.1 Z M 55.2 2.3 L 56.2 2.3 L 54.9 8.8 L 53.9 8.8 L 55.2 2.3 Z M 58.7 2.3 L 59.8 2.3 L 60.4 7.4 L 60.5 7.4 L 63.1 2.3 L 64.3 2.3 L 60.8 8.8 L 59.5 8.8 L 58.7 2.3 Z M 64.3 2.3 L 65.3 2.3 L 65.1 3.3 L 64.1 3.3 L 64.3 2.3 Z M 63.9 4.1 L 64.9 4.1 L 64 8.8 L 63 8.8 L 63.9 4.1 Z M 65.9 4.1 L 66.9 4.1 L 66.7 4.8 C 66.7 4.8 66.74 4.81 66.7 4.8 C 66.9 4.6 67.2 4.4 67.4 4.2 C 67.7 4.1 68 4 68.3 4 C 68.8 4 69.2 4.1 69.4 4.3 C 69.6 4.6 69.7 4.9 69.7 5.2 C 69.7 5.3 69.7 5.4 69.7 5.5 C 69.7 5.6 69.7 5.7 69.7 5.8 C 69.66 5.8 69 8.8 69 8.8 L 68 8.8 C 68 8.8 68.61 5.9 68.6 5.9 C 68.6 5.8 68.6 5.8 68.7 5.7 C 68.7 5.6 68.7 5.5 68.7 5.5 C 68.7 5.4 68.7 5.4 68.7 5.3 C 68.7 5.2 68.6 5.2 68.6 5.1 C 68.6 5 68.5 4.9 68.4 4.9 C 68.3 4.8 68.2 4.8 68 4.8 C 67.8 4.8 67.6 4.8 67.4 4.9 C 67.3 5 67.1 5.1 67 5.3 C 66.9 5.4 66.8 5.5 66.7 5.7 C 66.6 5.9 66.5 6.1 66.5 6.3 C 66.49 6.25 66 8.8 66 8.8 L 64.9 8.8 L 65.9 4.1 Z M 73.6 5.7 C 73.6 5.4 73.6 5.2 73.4 5 C 73.2 4.9 73 4.8 72.7 4.8 C 72.4 4.8 72.2 4.9 72 5 C 71.8 5.1 71.7 5.3 71.6 5.5 C 71.4 5.7 71.3 5.9 71.3 6.2 C 71.2 6.4 71.2 6.7 71.2 6.9 C 71.2 7.1 71.2 7.2 71.2 7.4 C 71.3 7.5 71.3 7.6 71.4 7.7 C 71.5 7.8 71.6 7.9 71.7 8 C 71.9 8.1 72 8.1 72.2 8.1 C 72.5 8.1 72.8 8 73 7.8 C 73.2 7.7 73.3 7.5 73.4 7.2 C 73.4 7.2 74.4 7.2 74.4 7.2 C 74.2 7.8 74 8.2 73.6 8.5 C 73.2 8.8 72.7 8.9 72 8.9 C 71.7 8.9 71.5 8.9 71.2 8.8 C 71 8.7 70.8 8.5 70.6 8.3 C 70.5 8.2 70.4 8 70.3 7.7 C 70.2 7.5 70.1 7.2 70.1 6.9 C 70.1 6.5 70.2 6.2 70.3 5.8 C 70.4 5.4 70.6 5.1 70.8 4.9 C 71.1 4.6 71.4 4.4 71.7 4.2 C 72 4.1 72.4 4 72.8 4 C 73.1 4 73.3 4 73.5 4.1 C 73.7 4.2 73.9 4.3 74.1 4.4 C 74.3 4.6 74.4 4.7 74.5 4.9 C 74.6 5.2 74.7 5.4 74.6 5.7 C 74.6 5.7 73.6 5.7 73.6 5.7 Z M 78.5 6 C 78.5 6 78.5 6 78.5 6 C 78.5 5.9 78.5 5.9 78.5 5.9 C 78.5 5.9 78.5 5.8 78.5 5.8 C 78.5 5.5 78.4 5.2 78.2 5.1 C 78.1 4.9 77.8 4.8 77.5 4.8 C 77.1 4.8 76.8 4.9 76.6 5.2 C 76.4 5.4 76.2 5.7 76.1 6 C 76.1 6 78.5 6 78.5 6 Z M 79.2 7.3 C 79.1 7.9 78.8 8.3 78.4 8.5 C 78 8.8 77.6 8.9 77 8.9 C 76.7 8.9 76.4 8.9 76.2 8.8 C 75.9 8.7 75.7 8.5 75.5 8.4 C 75.3 8.2 75.2 8 75.1 7.7 C 75 7.5 75 7.2 75 6.9 C 75 6.5 75 6.2 75.1 5.8 C 75.2 5.5 75.4 5.2 75.6 4.9 C 75.8 4.6 76.1 4.4 76.4 4.2 C 76.8 4.1 77.1 4 77.5 4 C 77.9 4 78.3 4.1 78.5 4.2 C 78.8 4.3 79 4.5 79.1 4.7 C 79.3 4.9 79.4 5.2 79.4 5.4 C 79.5 5.7 79.5 5.9 79.5 6.1 C 79.5 6.3 79.5 6.4 79.5 6.5 C 79.5 6.5 79.5 6.6 79.5 6.7 C 79.5 6.7 76 6.7 76 6.7 C 76 6.7 76 6.8 76 6.8 C 76 6.8 76 6.8 76 6.9 C 76 6.9 76 7 76 7 C 76 7.3 76.1 7.6 76.2 7.8 C 76.4 8 76.7 8.1 77.1 8.1 C 77.4 8.1 77.6 8 77.8 7.9 C 78 7.8 78.1 7.6 78.2 7.3 C 78.2 7.3 79.2 7.3 79.2 7.3 Z M 80.5 4.1 L 81.5 4.1 L 81.4 4.8 C 81.4 4.8 81.38 4.81 81.4 4.8 C 81.6 4.6 81.8 4.4 82.1 4.2 C 82.4 4.1 82.7 4 83 4 C 83.4 4 83.8 4.1 84 4.3 C 84.2 4.6 84.3 4.9 84.3 5.2 C 84.3 5.3 84.3 5.4 84.3 5.5 C 84.3 5.6 84.3 5.7 84.3 5.8 C 84.29 5.8 83.7 8.8 83.7 8.8 L 82.6 8.8 C 82.6 8.8 83.24 5.9 83.2 5.9 C 83.3 5.8 83.3 5.8 83.3 5.7 C 83.3 5.6 83.3 5.5 83.3 5.5 C 83.3 5.4 83.3 5.4 83.3 5.3 C 83.3 5.2 83.3 5.2 83.2 5.1 C 83.2 5 83.1 4.9 83 4.9 C 82.9 4.8 82.8 4.8 82.6 4.8 C 82.4 4.8 82.2 4.8 82.1 4.9 C 81.9 5 81.8 5.1 81.6 5.3 C 81.5 5.4 81.4 5.5 81.3 5.7 C 81.2 5.9 81.2 6.1 81.1 6.3 C 81.13 6.25 80.6 8.8 80.6 8.8 L 79.6 8.8 L 80.5 4.1 Z M 86.1 2.7 L 87.1 2.7 L 86.8 4.1 L 87.7 4.1 L 87.6 4.9 L 86.7 4.9 C 86.7 4.9 86.18 7.16 86.2 7.2 C 86.2 7.3 86.1 7.4 86.1 7.5 C 86.1 7.5 86.1 7.6 86.1 7.7 C 86.1 7.8 86.1 7.9 86.2 7.9 C 86.2 8 86.3 8 86.5 8 C 86.5 8 86.6 8 86.7 8 C 86.8 8 86.9 8 87 8 C 87 8 86.8 8.7 86.8 8.7 C 86.7 8.8 86.6 8.8 86.4 8.8 C 86.3 8.8 86.1 8.8 86 8.8 C 85.8 8.8 85.6 8.8 85.5 8.7 C 85.4 8.7 85.3 8.6 85.2 8.6 C 85.2 8.5 85.1 8.4 85.1 8.3 C 85.1 8.2 85.1 8.1 85.1 8 C 85.1 7.9 85.1 7.8 85.1 7.7 C 85.1 7.6 85.1 7.5 85.1 7.4 C 85.12 7.43 85.7 4.9 85.7 4.9 L 84.8 4.9 L 85 4.1 L 85.8 4.1 L 86.1 2.7 Z M 94.8 4.5 C 94.8 4 94.6 3.7 94.4 3.5 C 94.1 3.2 93.8 3.1 93.3 3.1 C 92.9 3.1 92.6 3.2 92.3 3.4 C 92 3.5 91.8 3.8 91.6 4.1 C 91.4 4.3 91.3 4.7 91.2 5 C 91.1 5.4 91 5.7 91 6.1 C 91 6.7 91.2 7.2 91.5 7.5 C 91.8 7.8 92.2 8 92.8 8 C 93.1 8 93.3 8 93.5 7.8 C 93.7 7.7 93.9 7.6 94 7.4 C 94.1 7.3 94.2 7.1 94.3 6.9 C 94.4 6.8 94.4 6.6 94.5 6.5 C 94.5 6.5 95.6 6.5 95.6 6.5 C 95.5 6.9 95.4 7.3 95.2 7.6 C 95 7.9 94.8 8.1 94.5 8.3 C 94.3 8.5 94 8.7 93.7 8.8 C 93.4 8.9 93.1 8.9 92.8 8.9 C 92.3 8.9 91.9 8.9 91.5 8.7 C 91.2 8.6 90.9 8.4 90.6 8.1 C 90.4 7.9 90.2 7.6 90.1 7.2 C 90 6.9 89.9 6.5 89.9 6.1 C 89.9 5.4 90 4.9 90.2 4.4 C 90.4 3.9 90.7 3.5 91 3.1 C 91.3 2.8 91.7 2.6 92.1 2.4 C 92.5 2.3 92.9 2.2 93.4 2.2 C 93.7 2.2 94.1 2.2 94.4 2.3 C 94.7 2.5 95 2.6 95.2 2.8 C 95.4 3 95.6 3.2 95.7 3.5 C 95.9 3.8 95.9 4.1 95.9 4.5 C 95.9 4.5 94.8 4.5 94.8 4.5 Z M 96.9 7.5 C 96.9 7.6 96.9 7.7 97 7.8 C 97 7.9 97.1 7.9 97.2 8 C 97.2 8 97.3 8 97.4 8.1 C 97.5 8.1 97.6 8.1 97.7 8.1 C 98 8.1 98.2 8 98.3 8 C 98.5 7.9 98.7 7.8 98.8 7.6 C 98.9 7.5 99 7.3 99 7.1 C 99.1 6.9 99.1 6.7 99.2 6.5 C 99.2 6.5 99.2 6.5 99.2 6.5 C 99.1 6.5 99 6.6 98.9 6.6 C 98.8 6.7 98.6 6.7 98.5 6.7 C 98.4 6.7 98.2 6.7 98 6.7 C 97.8 6.7 97.7 6.8 97.5 6.8 C 97.3 6.9 97.2 6.9 97.1 7.1 C 97 7.2 96.9 7.3 96.9 7.5 Z M 100 7.4 C 100 7.5 99.9 7.6 99.9 7.7 C 99.9 7.7 99.9 7.8 99.9 7.9 C 99.9 8 99.9 8 99.9 8 C 100 8.1 100 8.1 100.1 8.1 C 100.2 8.1 100.2 8.1 100.3 8.1 C 100.3 8.1 100.4 8 100.5 8 C 100.5 8 100.3 8.8 100.3 8.8 C 100.2 8.8 100 8.8 99.9 8.9 C 99.8 8.9 99.6 8.9 99.5 8.9 C 99.3 8.9 99.2 8.8 99.1 8.7 C 99 8.6 98.9 8.5 98.9 8.3 C 98.7 8.5 98.4 8.7 98.2 8.8 C 97.9 8.9 97.6 8.9 97.3 8.9 C 97.1 8.9 96.9 8.9 96.8 8.8 C 96.6 8.8 96.4 8.7 96.3 8.6 C 96.2 8.5 96.1 8.4 96 8.2 C 95.9 8 95.9 7.9 95.9 7.7 C 95.9 7.4 95.9 7.1 96 6.9 C 96.1 6.7 96.3 6.6 96.5 6.5 C 96.6 6.3 96.8 6.2 97.1 6.2 C 97.3 6.1 97.6 6.1 97.8 6.1 C 98.2 6 98.5 6 98.8 6 C 99 6 99.2 5.9 99.3 5.8 C 99.3 5.7 99.4 5.5 99.4 5.4 C 99.4 5.1 99.3 5 99.2 4.9 C 99 4.8 98.8 4.8 98.6 4.8 C 98.3 4.8 98.1 4.9 97.9 5 C 97.7 5.1 97.5 5.2 97.4 5.5 C 97.4 5.5 96.5 5.5 96.5 5.5 C 96.5 5.2 96.6 5 96.7 4.8 C 96.9 4.6 97 4.5 97.2 4.3 C 97.4 4.2 97.6 4.1 97.9 4.1 C 98.1 4 98.4 4 98.7 4 C 99.1 4 99.4 4 99.7 4.1 C 99.9 4.2 100.1 4.3 100.2 4.4 C 100.3 4.5 100.4 4.6 100.4 4.8 C 100.4 4.9 100.4 5 100.4 5.1 C 100.4 5.3 100.4 5.5 100.3 5.8 C 100.3 5.8 100 7.4 100 7.4 Z M 104 5.5 C 104 5.2 103.9 5.1 103.7 5 C 103.5 4.9 103.3 4.8 103 4.8 C 102.9 4.8 102.8 4.8 102.7 4.8 C 102.6 4.9 102.6 4.9 102.5 4.9 C 102.4 5 102.3 5 102.3 5.1 C 102.3 5.2 102.2 5.3 102.2 5.4 C 102.2 5.5 102.3 5.6 102.4 5.7 C 102.4 5.7 102.5 5.8 102.7 5.8 C 102.8 5.9 102.9 5.9 103.1 6 C 103.3 6 103.4 6.1 103.6 6.1 C 103.7 6.2 103.9 6.2 104 6.3 C 104.1 6.4 104.2 6.5 104.3 6.6 C 104.4 6.6 104.5 6.8 104.6 6.9 C 104.6 7 104.7 7.2 104.7 7.4 C 104.7 7.6 104.6 7.9 104.5 8.1 C 104.4 8.3 104.2 8.4 104 8.5 C 103.8 8.7 103.6 8.8 103.4 8.8 C 103.1 8.9 102.9 8.9 102.6 8.9 C 102.3 8.9 102.1 8.9 101.9 8.8 C 101.6 8.8 101.4 8.7 101.2 8.6 C 101.1 8.4 100.9 8.3 100.8 8.1 C 100.7 7.9 100.7 7.6 100.7 7.3 C 100.7 7.3 101.6 7.3 101.6 7.3 C 101.6 7.6 101.7 7.8 101.9 7.9 C 102.1 8 102.4 8.1 102.7 8.1 C 102.8 8.1 102.9 8.1 103 8.1 C 103.1 8 103.2 8 103.3 8 C 103.4 7.9 103.5 7.8 103.6 7.8 C 103.6 7.7 103.7 7.6 103.7 7.4 C 103.7 7.3 103.6 7.2 103.5 7.1 C 103.4 7.1 103.3 7 103.2 6.9 C 103.1 6.9 102.9 6.8 102.7 6.8 C 102.6 6.7 102.4 6.7 102.2 6.6 C 102.1 6.6 102 6.5 101.8 6.4 C 101.7 6.4 101.6 6.3 101.5 6.2 C 101.4 6.1 101.3 6 101.3 5.9 C 101.2 5.7 101.2 5.6 101.2 5.4 C 101.2 5.2 101.3 4.9 101.4 4.8 C 101.5 4.6 101.6 4.4 101.8 4.3 C 102 4.2 102.2 4.1 102.4 4.1 C 102.6 4 102.9 4 103.1 4 C 103.4 4 103.6 4 103.8 4.1 C 104.1 4.1 104.2 4.2 104.4 4.3 C 104.6 4.4 104.7 4.6 104.8 4.8 C 104.9 5 104.9 5.2 104.9 5.5 C 104.9 5.5 104 5.5 104 5.5 Z M 106.5 2.7 L 107.5 2.7 L 107.2 4.1 L 108.2 4.1 L 108 4.9 L 107.1 4.9 C 107.1 4.9 106.59 7.16 106.6 7.2 C 106.6 7.3 106.5 7.4 106.5 7.5 C 106.5 7.5 106.5 7.6 106.5 7.7 C 106.5 7.8 106.5 7.9 106.6 7.9 C 106.6 8 106.7 8 106.9 8 C 107 8 107 8 107.1 8 C 107.2 8 107.3 8 107.4 8 C 107.4 8 107.3 8.7 107.3 8.7 C 107.1 8.8 107 8.8 106.8 8.8 C 106.7 8.8 106.5 8.8 106.4 8.8 C 106.2 8.8 106.1 8.8 105.9 8.7 C 105.8 8.7 105.7 8.6 105.7 8.6 C 105.6 8.5 105.5 8.4 105.5 8.3 C 105.5 8.2 105.5 8.1 105.5 8 C 105.5 7.9 105.5 7.8 105.5 7.7 C 105.5 7.6 105.5 7.5 105.5 7.4 C 105.54 7.43 106.1 4.9 106.1 4.9 L 105.3 4.9 L 105.4 4.1 L 106.2 4.1 L 106.5 2.7 Z M 108.8 4.1 L 109.7 4.1 L 109.5 5 C 109.5 5 109.56 5.05 109.6 5 C 109.6 4.9 109.7 4.8 109.8 4.7 C 109.9 4.5 110 4.4 110.2 4.3 C 110.3 4.2 110.4 4.2 110.6 4.1 C 110.7 4 110.9 4 111 4 C 111.1 4 111.2 4 111.3 4 C 111.4 4 111.5 4 111.5 4 C 111.5 4 111.3 5 111.3 5 C 111.3 5 111.2 5 111.1 5 C 111.1 5 111 5 111 5 C 110.7 5 110.5 5 110.3 5.1 C 110.1 5.2 109.9 5.3 109.8 5.5 C 109.6 5.7 109.5 5.8 109.5 6 C 109.4 6.3 109.3 6.5 109.3 6.7 C 109.26 6.71 108.8 8.8 108.8 8.8 L 107.8 8.8 L 108.8 4.1 Z M 113.8 4.8 C 113.5 4.8 113.3 4.9 113.1 5 C 112.9 5.1 112.7 5.3 112.6 5.5 C 112.4 5.7 112.3 5.9 112.3 6.2 C 112.2 6.4 112.2 6.7 112.2 6.9 C 112.2 7.2 112.3 7.5 112.4 7.7 C 112.6 8 112.9 8.1 113.3 8.1 C 113.5 8.1 113.8 8 114 7.9 C 114.1 7.8 114.3 7.6 114.4 7.4 C 114.6 7.2 114.7 7 114.7 6.7 C 114.8 6.5 114.8 6.2 114.8 6 C 114.8 5.7 114.7 5.4 114.6 5.1 C 114.4 4.9 114.1 4.8 113.8 4.8 Z M 113.2 8.9 C 112.6 8.9 112.1 8.7 111.7 8.4 C 111.3 8 111.2 7.5 111.2 6.9 C 111.2 6.5 111.2 6.1 111.4 5.8 C 111.5 5.4 111.7 5.1 111.9 4.9 C 112.1 4.6 112.4 4.4 112.7 4.2 C 113.1 4.1 113.4 4 113.8 4 C 114.5 4 115 4.2 115.3 4.5 C 115.7 4.8 115.9 5.3 115.9 6 C 115.9 6.4 115.8 6.8 115.7 7.1 C 115.6 7.5 115.4 7.8 115.1 8.1 C 114.9 8.3 114.6 8.5 114.3 8.7 C 114 8.8 113.6 8.9 113.2 8.9 Z " stroke="none" fill="#fff"/>
  </g>
</svg>