<?xml version="1.0" standalone="no"?>
<!DOCTYPE svg PUBLIC "-//W3C//DTD SVG 1.1//EN" "http://www.w3.org/Graphics/SVG/1.1/DTD/svg11.dtd">
<svg xmlns="http://www.w3.org/2000/svg" version="1.1" width="458px" height="24.8px" viewBox="0 -1 458 24.8" style="top:-1px">
  <desc>UMAARIBA sa larangan ng table tennis ang De La Salle University Lady Paddler na si Janna Romero na</desc>
  <defs/>
  <g id="Polygon32219">
    <path d="M 0.8 7.2 C 0.79 7.16 0.8 3.5 0.8 3.5 L 1.5 3.5 C 1.5 3.5 1.5 7.12 1.5 7.1 C 1.5 8.5 2.2 9.2 3.4 9.2 C 4.6 9.2 5.3 8.5 5.3 7.2 C 5.33 7.16 5.3 3.5 5.3 3.5 L 6 3.5 C 6 3.5 6.04 7.11 6 7.1 C 6 8.9 5 9.9 3.4 9.9 C 1.9 9.9 0.8 8.9 0.8 7.2 Z M 7.6 3.5 L 8.4 3.5 L 10.6 6.9 L 12.9 3.5 L 13.7 3.5 L 13.7 9.8 L 13 9.8 L 13 4.7 L 10.7 8.1 L 10.6 8.1 L 8.3 4.7 L 8.3 9.8 L 7.6 9.8 L 7.6 3.5 Z M 17.7 3.5 L 18.4 3.5 L 21.2 9.8 L 20.5 9.8 L 19.7 8.1 L 16.3 8.1 L 15.5 9.8 L 14.8 9.8 L 17.7 3.5 Z M 19.4 7.5 L 18 4.3 L 16.6 7.5 L 19.4 7.5 Z M 24.7 3.5 L 25.3 3.5 L 28.2 9.8 L 27.4 9.8 L 26.7 8.1 L 23.3 8.1 L 22.5 9.8 L 21.8 9.8 L 24.7 3.5 Z M 26.4 7.5 L 25 4.3 L 23.5 7.5 L 26.4 7.5 Z M 29.3 3.5 C 29.3 3.5 32.06 3.5 32.1 3.5 C 32.8 3.5 33.5 3.7 33.8 4.1 C 34.2 4.4 34.3 4.9 34.3 5.4 C 34.3 5.4 34.3 5.4 34.3 5.4 C 34.3 6.4 33.6 7 32.6 7.2 C 32.63 7.22 34.6 9.8 34.6 9.8 L 33.7 9.8 L 31.9 7.3 L 30.1 7.3 L 30.1 9.8 L 29.3 9.8 L 29.3 3.5 Z M 32 6.7 C 32.9 6.7 33.6 6.2 33.6 5.4 C 33.6 5.4 33.6 5.4 33.6 5.4 C 33.6 4.6 33 4.2 32 4.2 C 32 4.15 30.1 4.2 30.1 4.2 L 30.1 6.7 C 30.1 6.7 31.99 6.71 32 6.7 Z M 35.8 3.5 L 36.5 3.5 L 36.5 9.8 L 35.8 9.8 L 35.8 3.5 Z M 38.3 3.5 C 38.3 3.5 40.98 3.5 41 3.5 C 41.7 3.5 42.3 3.7 42.6 4.1 C 42.9 4.3 43 4.7 43 5.1 C 43 5.1 43 5.1 43 5.1 C 43 5.9 42.5 6.3 42 6.5 C 42.8 6.8 43.4 7.2 43.4 8.1 C 43.4 8.1 43.4 8.1 43.4 8.1 C 43.4 9.2 42.5 9.8 41.1 9.8 C 41.09 9.8 38.3 9.8 38.3 9.8 L 38.3 3.5 Z M 42.3 5.2 C 42.3 4.5 41.8 4.1 40.9 4.1 C 40.91 4.14 39 4.1 39 4.1 L 39 6.3 C 39 6.3 40.86 6.31 40.9 6.3 C 41.7 6.3 42.3 5.9 42.3 5.2 C 42.3 5.2 42.3 5.2 42.3 5.2 Z M 41 6.9 C 40.99 6.94 39 6.9 39 6.9 L 39 9.2 C 39 9.2 41.11 9.16 41.1 9.2 C 42.1 9.2 42.7 8.7 42.7 8 C 42.7 8 42.7 8 42.7 8 C 42.7 7.3 42.1 6.9 41 6.9 Z M 47 3.5 L 47.7 3.5 L 50.6 9.8 L 49.8 9.8 L 49.1 8.1 L 45.6 8.1 L 44.9 9.8 L 44.2 9.8 L 47 3.5 Z M 48.8 7.5 L 47.4 4.3 L 45.9 7.5 L 48.8 7.5 Z M 63 9.2 C 63 9.2 63.3 8.7 63.3 8.7 C 63.8 9.1 64.4 9.3 64.9 9.3 C 65.5 9.3 65.9 9 65.9 8.6 C 65.9 8.6 65.9 8.5 65.9 8.5 C 65.9 8.1 65.4 7.9 64.7 7.7 C 64 7.5 63.2 7.3 63.2 6.4 C 63.2 6.4 63.2 6.4 63.2 6.4 C 63.2 5.6 63.9 5.1 64.8 5.1 C 65.4 5.1 66 5.3 66.5 5.6 C 66.5 5.6 66.1 6.1 66.1 6.1 C 65.7 5.8 65.2 5.6 64.8 5.6 C 64.2 5.6 63.9 5.9 63.9 6.3 C 63.9 6.3 63.9 6.3 63.9 6.3 C 63.9 6.8 64.4 7 65.1 7.1 C 65.8 7.4 66.6 7.6 66.6 8.5 C 66.6 8.5 66.6 8.5 66.6 8.5 C 66.6 9.4 65.8 9.9 64.9 9.9 C 64.2 9.9 63.5 9.6 63 9.2 Z M 67.4 8.4 C 67.4 8.4 67.4 8.4 67.4 8.4 C 67.4 7.4 68.2 6.9 69.4 6.9 C 70 6.9 70.4 7 70.8 7.1 C 70.8 7.1 70.8 7 70.8 7 C 70.8 6.1 70.3 5.7 69.4 5.7 C 68.9 5.7 68.5 5.8 68 6 C 68 6 67.8 5.5 67.8 5.5 C 68.3 5.2 68.8 5.1 69.5 5.1 C 70.2 5.1 70.7 5.3 71 5.6 C 71.3 5.9 71.5 6.4 71.5 7 C 71.49 6.95 71.5 9.8 71.5 9.8 L 70.8 9.8 C 70.8 9.8 70.83 9.1 70.8 9.1 C 70.5 9.5 70 9.9 69.1 9.9 C 68.3 9.9 67.4 9.4 67.4 8.4 Z M 70.8 8.1 C 70.8 8.1 70.8 7.6 70.8 7.6 C 70.5 7.5 70 7.4 69.5 7.4 C 68.6 7.4 68.1 7.8 68.1 8.4 C 68.1 8.4 68.1 8.4 68.1 8.4 C 68.1 9 68.7 9.3 69.3 9.3 C 70.1 9.3 70.8 8.8 70.8 8.1 Z M 84.7 3.2 L 85.4 3.2 L 85.4 9.8 L 84.7 9.8 L 84.7 3.2 Z M 86.6 8.4 C 86.6 8.4 86.6 8.4 86.6 8.4 C 86.6 7.4 87.4 6.9 88.6 6.9 C 89.2 6.9 89.6 7 90 7.1 C 90 7.1 90 7 90 7 C 90 6.1 89.5 5.7 88.6 5.7 C 88.1 5.7 87.6 5.8 87.2 6 C 87.2 6 87 5.5 87 5.5 C 87.5 5.2 88 5.1 88.7 5.1 C 89.3 5.1 89.8 5.3 90.2 5.6 C 90.5 5.9 90.7 6.4 90.7 7 C 90.65 6.95 90.7 9.8 90.7 9.8 L 90 9.8 C 90 9.8 89.99 9.1 90 9.1 C 89.7 9.5 89.1 9.9 88.3 9.9 C 87.4 9.9 86.6 9.4 86.6 8.4 Z M 90 8.1 C 90 8.1 90 7.6 90 7.6 C 89.7 7.5 89.2 7.4 88.6 7.4 C 87.8 7.4 87.3 7.8 87.3 8.4 C 87.3 8.4 87.3 8.4 87.3 8.4 C 87.3 9 87.8 9.3 88.4 9.3 C 89.3 9.3 90 8.8 90 8.1 Z M 92 5.1 L 92.7 5.1 C 92.7 5.1 92.73 6.36 92.7 6.4 C 93.1 5.6 93.8 5 94.6 5.1 C 94.63 5.06 94.6 5.8 94.6 5.8 C 94.6 5.8 94.58 5.81 94.6 5.8 C 93.6 5.8 92.7 6.5 92.7 7.9 C 92.73 7.94 92.7 9.8 92.7 9.8 L 92 9.8 L 92 5.1 Z M 95 8.4 C 95 8.4 95 8.4 95 8.4 C 95 7.4 95.8 6.9 97 6.9 C 97.6 6.9 98 7 98.4 7.1 C 98.4 7.1 98.4 7 98.4 7 C 98.4 6.1 97.9 5.7 97.1 5.7 C 96.5 5.7 96.1 5.8 95.6 6 C 95.6 6 95.4 5.5 95.4 5.5 C 95.9 5.2 96.5 5.1 97.1 5.1 C 97.8 5.1 98.3 5.3 98.6 5.6 C 98.9 5.9 99.1 6.4 99.1 7 C 99.11 6.95 99.1 9.8 99.1 9.8 L 98.4 9.8 C 98.4 9.8 98.44 9.1 98.4 9.1 C 98.1 9.5 97.6 9.9 96.8 9.9 C 95.9 9.9 95 9.4 95 8.4 Z M 98.4 8.1 C 98.4 8.1 98.4 7.6 98.4 7.6 C 98.1 7.5 97.6 7.4 97.1 7.4 C 96.2 7.4 95.7 7.8 95.7 8.4 C 95.7 8.4 95.7 8.4 95.7 8.4 C 95.7 9 96.3 9.3 96.9 9.3 C 97.7 9.3 98.4 8.8 98.4 8.1 Z M 100.5 5.1 L 101.2 5.1 C 101.2 5.1 101.18 5.95 101.2 6 C 101.5 5.5 102 5 102.8 5 C 103.9 5 104.6 5.8 104.6 6.9 C 104.56 6.91 104.6 9.8 104.6 9.8 L 103.9 9.8 C 103.9 9.8 103.87 7.08 103.9 7.1 C 103.9 6.2 103.4 5.7 102.6 5.7 C 101.8 5.7 101.2 6.3 101.2 7.1 C 101.18 7.13 101.2 9.8 101.2 9.8 L 100.5 9.8 L 100.5 5.1 Z M 105.9 10.6 C 105.9 10.6 106.2 10.1 106.2 10.1 C 106.7 10.5 107.3 10.7 108 10.7 C 109 10.7 109.7 10.1 109.7 9 C 109.7 9 109.7 8.5 109.7 8.5 C 109.3 9 108.7 9.4 107.9 9.4 C 106.7 9.4 105.7 8.6 105.7 7.3 C 105.7 7.3 105.7 7.2 105.7 7.2 C 105.7 5.9 106.8 5 107.9 5 C 108.7 5 109.3 5.5 109.7 6 C 109.68 5.98 109.7 5.1 109.7 5.1 L 110.4 5.1 C 110.4 5.1 110.37 8.99 110.4 9 C 110.4 9.7 110.2 10.3 109.8 10.6 C 109.4 11 108.7 11.3 108 11.3 C 107.2 11.3 106.5 11 105.9 10.6 Z M 109.7 7.3 C 109.7 7.3 109.7 7.2 109.7 7.2 C 109.7 6.3 108.9 5.7 108 5.7 C 107.1 5.7 106.4 6.3 106.4 7.2 C 106.4 7.2 106.4 7.2 106.4 7.2 C 106.4 8.2 107.1 8.8 108 8.8 C 108.9 8.8 109.7 8.2 109.7 7.3 Z M 111.5 8.4 C 111.5 8.4 111.5 8.4 111.5 8.4 C 111.5 7.4 112.3 6.9 113.5 6.9 C 114.1 6.9 114.5 7 114.9 7.1 C 114.9 7.1 114.9 7 114.9 7 C 114.9 6.1 114.4 5.7 113.5 5.7 C 113 5.7 112.5 5.8 112.1 6 C 112.1 6 111.9 5.5 111.9 5.5 C 112.4 5.2 112.9 5.1 113.6 5.1 C 114.2 5.1 114.7 5.3 115.1 5.6 C 115.4 5.9 115.6 6.4 115.6 7 C 115.57 6.95 115.6 9.8 115.6 9.8 L 114.9 9.8 C 114.9 9.8 114.9 9.1 114.9 9.1 C 114.6 9.5 114 9.9 113.2 9.9 C 112.4 9.9 111.5 9.4 111.5 8.4 Z M 114.9 8.1 C 114.9 8.1 114.9 7.6 114.9 7.6 C 114.6 7.5 114.1 7.4 113.5 7.4 C 112.7 7.4 112.2 7.8 112.2 8.4 C 112.2 8.4 112.2 8.4 112.2 8.4 C 112.2 9 112.7 9.3 113.4 9.3 C 114.2 9.3 114.9 8.8 114.9 8.1 Z M 117 5.1 L 117.6 5.1 C 117.6 5.1 117.65 5.95 117.6 6 C 118 5.5 118.4 5 119.2 5 C 120.4 5 121 5.8 121 6.9 C 121.02 6.91 121 9.8 121 9.8 L 120.3 9.8 C 120.3 9.8 120.33 7.08 120.3 7.1 C 120.3 6.2 119.9 5.7 119 5.7 C 118.2 5.7 117.6 6.3 117.6 7.1 C 117.65 7.13 117.6 9.8 117.6 9.8 L 117 9.8 L 117 5.1 Z M 134.2 5.1 L 134.9 5.1 C 134.9 5.1 134.86 5.95 134.9 6 C 135.2 5.5 135.7 5 136.5 5 C 137.6 5 138.2 5.8 138.2 6.9 C 138.24 6.91 138.2 9.8 138.2 9.8 L 137.5 9.8 C 137.5 9.8 137.55 7.08 137.5 7.1 C 137.5 6.2 137.1 5.7 136.3 5.7 C 135.5 5.7 134.9 6.3 134.9 7.1 C 134.86 7.13 134.9 9.8 134.9 9.8 L 134.2 9.8 L 134.2 5.1 Z M 139.6 10.6 C 139.6 10.6 139.9 10.1 139.9 10.1 C 140.4 10.5 141 10.7 141.7 10.7 C 142.7 10.7 143.4 10.1 143.4 9 C 143.4 9 143.4 8.5 143.4 8.5 C 143 9 142.4 9.4 141.5 9.4 C 140.4 9.4 139.4 8.6 139.4 7.3 C 139.4 7.3 139.4 7.2 139.4 7.2 C 139.4 5.9 140.4 5 141.5 5 C 142.4 5 143 5.5 143.4 6 C 143.36 5.98 143.4 5.1 143.4 5.1 L 144.1 5.1 C 144.1 5.1 144.05 8.99 144.1 9 C 144.1 9.7 143.8 10.3 143.5 10.6 C 143 11 142.4 11.3 141.7 11.3 C 140.9 11.3 140.2 11 139.6 10.6 Z M 143.4 7.3 C 143.4 7.3 143.4 7.2 143.4 7.2 C 143.4 6.3 142.6 5.7 141.7 5.7 C 140.8 5.7 140.1 6.3 140.1 7.2 C 140.1 7.2 140.1 7.2 140.1 7.2 C 140.1 8.2 140.8 8.8 141.7 8.8 C 142.6 8.8 143.4 8.2 143.4 7.3 Z M 157.5 8.6 C 157.52 8.57 157.5 5.8 157.5 5.8 L 156.9 5.8 L 156.9 5.1 L 157.5 5.1 L 157.5 3.7 L 158.2 3.7 L 158.2 5.1 L 159.7 5.1 L 159.7 5.8 L 158.2 5.8 C 158.2 5.8 158.21 8.48 158.2 8.5 C 158.2 9 158.5 9.2 159 9.2 C 159.2 9.2 159.4 9.2 159.7 9.1 C 159.7 9.1 159.7 9.7 159.7 9.7 C 159.4 9.8 159.2 9.9 158.8 9.9 C 158.1 9.9 157.5 9.5 157.5 8.6 Z M 160.5 8.4 C 160.5 8.4 160.5 8.4 160.5 8.4 C 160.5 7.4 161.3 6.9 162.5 6.9 C 163.1 6.9 163.5 7 163.9 7.1 C 163.9 7.1 163.9 7 163.9 7 C 163.9 6.1 163.4 5.7 162.5 5.7 C 162 5.7 161.5 5.8 161.1 6 C 161.1 6 160.9 5.5 160.9 5.5 C 161.4 5.2 161.9 5.1 162.6 5.1 C 163.2 5.1 163.7 5.3 164.1 5.6 C 164.4 5.9 164.6 6.4 164.6 7 C 164.55 6.95 164.6 9.8 164.6 9.8 L 163.9 9.8 C 163.9 9.8 163.89 9.1 163.9 9.1 C 163.6 9.5 163 9.9 162.2 9.9 C 161.3 9.9 160.5 9.4 160.5 8.4 Z M 163.9 8.1 C 163.9 8.1 163.9 7.6 163.9 7.6 C 163.6 7.5 163.1 7.4 162.5 7.4 C 161.7 7.4 161.2 7.8 161.2 8.4 C 161.2 8.4 161.2 8.4 161.2 8.4 C 161.2 9 161.7 9.3 162.3 9.3 C 163.2 9.3 163.9 8.8 163.9 8.1 Z M 166.6 8.9 C 166.63 8.91 166.6 9.8 166.6 9.8 L 165.9 9.8 L 165.9 3.2 L 166.6 3.2 C 166.6 3.2 166.63 6.08 166.6 6.1 C 167 5.5 167.6 5 168.4 5 C 169.5 5 170.6 5.9 170.6 7.5 C 170.6 7.5 170.6 7.5 170.6 7.5 C 170.6 9 169.5 9.9 168.4 9.9 C 167.5 9.9 167 9.4 166.6 8.9 Z M 169.9 7.5 C 169.9 7.5 169.9 7.5 169.9 7.5 C 169.9 6.4 169.2 5.7 168.3 5.7 C 167.4 5.7 166.6 6.4 166.6 7.5 C 166.6 7.5 166.6 7.5 166.6 7.5 C 166.6 8.6 167.4 9.3 168.3 9.3 C 169.2 9.3 169.9 8.6 169.9 7.5 Z M 171.9 3.2 L 172.6 3.2 L 172.6 9.8 L 171.9 9.8 L 171.9 3.2 Z M 173.8 7.5 C 173.8 7.5 173.8 7.5 173.8 7.5 C 173.8 6.1 174.8 5 176 5 C 177.4 5 178.2 6.1 178.2 7.5 C 178.2 7.6 178.2 7.6 178.2 7.7 C 178.2 7.7 174.5 7.7 174.5 7.7 C 174.6 8.7 175.3 9.3 176.2 9.3 C 176.8 9.3 177.2 9 177.6 8.6 C 177.6 8.6 178.1 9 178.1 9 C 177.6 9.6 177 9.9 176.1 9.9 C 174.9 9.9 173.8 8.9 173.8 7.5 Z M 177.5 7.2 C 177.4 6.4 177 5.6 176 5.6 C 175.2 5.6 174.6 6.3 174.5 7.2 C 174.5 7.2 177.5 7.2 177.5 7.2 Z M 191.3 8.6 C 191.35 8.57 191.3 5.8 191.3 5.8 L 190.7 5.8 L 190.7 5.1 L 191.3 5.1 L 191.3 3.7 L 192 3.7 L 192 5.1 L 193.5 5.1 L 193.5 5.8 L 192 5.8 C 192 5.8 192.04 8.48 192 8.5 C 192 9 192.4 9.2 192.8 9.2 C 193.1 9.2 193.3 9.2 193.5 9.1 C 193.5 9.1 193.5 9.7 193.5 9.7 C 193.3 9.8 193 9.9 192.7 9.9 C 191.9 9.9 191.3 9.5 191.3 8.6 Z M 194.2 7.5 C 194.2 7.5 194.2 7.5 194.2 7.5 C 194.2 6.1 195.2 5 196.5 5 C 197.8 5 198.6 6.1 198.6 7.5 C 198.6 7.6 198.6 7.6 198.6 7.7 C 198.6 7.7 194.9 7.7 194.9 7.7 C 195 8.7 195.7 9.3 196.6 9.3 C 197.2 9.3 197.7 9 198 8.6 C 198 8.6 198.5 9 198.5 9 C 198 9.6 197.4 9.9 196.5 9.9 C 195.3 9.9 194.2 8.9 194.2 7.5 Z M 197.9 7.2 C 197.9 6.4 197.4 5.6 196.4 5.6 C 195.6 5.6 195 6.3 194.9 7.2 C 194.9 7.2 197.9 7.2 197.9 7.2 Z M 199.8 5.1 L 200.4 5.1 C 200.4 5.1 200.44 5.95 200.4 6 C 200.7 5.5 201.2 5 202 5 C 203.2 5 203.8 5.8 203.8 6.9 C 203.82 6.91 203.8 9.8 203.8 9.8 L 203.1 9.8 C 203.1 9.8 203.13 7.08 203.1 7.1 C 203.1 6.2 202.7 5.7 201.8 5.7 C 201 5.7 200.4 6.3 200.4 7.1 C 200.44 7.13 200.4 9.8 200.4 9.8 L 199.8 9.8 L 199.8 5.1 Z M 205.2 5.1 L 205.9 5.1 C 205.9 5.1 205.9 5.95 205.9 6 C 206.2 5.5 206.7 5 207.5 5 C 208.6 5 209.3 5.8 209.3 6.9 C 209.27 6.91 209.3 9.8 209.3 9.8 L 208.6 9.8 C 208.6 9.8 208.58 7.08 208.6 7.1 C 208.6 6.2 208.1 5.7 207.3 5.7 C 206.5 5.7 205.9 6.3 205.9 7.1 C 205.9 7.13 205.9 9.8 205.9 9.8 L 205.2 9.8 L 205.2 5.1 Z M 210.7 3.4 L 211.5 3.4 L 211.5 4.1 L 210.7 4.1 L 210.7 3.4 Z M 210.7 5.1 L 211.4 5.1 L 211.4 9.8 L 210.7 9.8 L 210.7 5.1 Z M 212.5 9.2 C 212.5 9.2 212.9 8.7 212.9 8.7 C 213.4 9.1 214 9.3 214.5 9.3 C 215.1 9.3 215.5 9 215.5 8.6 C 215.5 8.6 215.5 8.5 215.5 8.5 C 215.5 8.1 214.9 7.9 214.3 7.7 C 213.6 7.5 212.8 7.3 212.8 6.4 C 212.8 6.4 212.8 6.4 212.8 6.4 C 212.8 5.6 213.4 5.1 214.4 5.1 C 214.9 5.1 215.6 5.3 216 5.6 C 216 5.6 215.7 6.1 215.7 6.1 C 215.3 5.8 214.8 5.6 214.3 5.6 C 213.8 5.6 213.4 5.9 213.4 6.3 C 213.4 6.3 213.4 6.3 213.4 6.3 C 213.4 6.8 214 7 214.6 7.1 C 215.4 7.4 216.1 7.6 216.1 8.5 C 216.1 8.5 216.1 8.5 216.1 8.5 C 216.1 9.4 215.4 9.9 214.5 9.9 C 213.8 9.9 213.1 9.6 212.5 9.2 Z M 228.7 8.4 C 228.7 8.4 228.7 8.4 228.7 8.4 C 228.7 7.4 229.5 6.9 230.7 6.9 C 231.3 6.9 231.7 7 232.2 7.1 C 232.2 7.1 232.2 7 232.2 7 C 232.2 6.1 231.6 5.7 230.8 5.7 C 230.2 5.7 229.8 5.8 229.4 6 C 229.4 6 229.2 5.5 229.2 5.5 C 229.7 5.2 230.2 5.1 230.8 5.1 C 231.5 5.1 232 5.3 232.3 5.6 C 232.7 5.9 232.8 6.4 232.8 7 C 232.82 6.95 232.8 9.8 232.8 9.8 L 232.2 9.8 C 232.2 9.8 232.16 9.1 232.2 9.1 C 231.8 9.5 231.3 9.9 230.5 9.9 C 229.6 9.9 228.7 9.4 228.7 8.4 Z M 232.2 8.1 C 232.2 8.1 232.2 7.6 232.2 7.6 C 231.8 7.5 231.4 7.4 230.8 7.4 C 229.9 7.4 229.4 7.8 229.4 8.4 C 229.4 8.4 229.4 8.4 229.4 8.4 C 229.4 9 230 9.3 230.6 9.3 C 231.5 9.3 232.2 8.8 232.2 8.1 Z M 234.2 5.1 L 234.9 5.1 C 234.9 5.1 234.9 5.95 234.9 6 C 235.2 5.5 235.7 5 236.5 5 C 237.6 5 238.3 5.8 238.3 6.9 C 238.28 6.91 238.3 9.8 238.3 9.8 L 237.6 9.8 C 237.6 9.8 237.59 7.08 237.6 7.1 C 237.6 6.2 237.1 5.7 236.3 5.7 C 235.5 5.7 234.9 6.3 234.9 7.1 C 234.9 7.13 234.9 9.8 234.9 9.8 L 234.2 9.8 L 234.2 5.1 Z M 239.6 10.6 C 239.6 10.6 239.9 10.1 239.9 10.1 C 240.5 10.5 241.1 10.7 241.7 10.7 C 242.7 10.7 243.4 10.1 243.4 9 C 243.4 9 243.4 8.5 243.4 8.5 C 243 9 242.4 9.4 241.6 9.4 C 240.5 9.4 239.4 8.6 239.4 7.3 C 239.4 7.3 239.4 7.2 239.4 7.2 C 239.4 5.9 240.5 5 241.6 5 C 242.5 5 243 5.5 243.4 6 C 243.4 5.98 243.4 5.1 243.4 5.1 L 244.1 5.1 C 244.1 5.1 244.09 8.99 244.1 9 C 244.1 9.7 243.9 10.3 243.5 10.6 C 243.1 11 242.5 11.3 241.7 11.3 C 241 11.3 240.2 11 239.6 10.6 Z M 243.4 7.3 C 243.4 7.3 243.4 7.2 243.4 7.2 C 243.4 6.3 242.6 5.7 241.7 5.7 C 240.8 5.7 240.1 6.3 240.1 7.2 C 240.1 7.2 240.1 7.2 240.1 7.2 C 240.1 8.2 240.9 8.8 241.7 8.8 C 242.6 8.8 243.4 8.2 243.4 7.3 Z M 257.4 3.5 C 257.4 3.5 259.62 3.5 259.6 3.5 C 261.6 3.5 263 4.9 263 6.6 C 263 6.6 263 6.6 263 6.6 C 263 8.4 261.6 9.8 259.6 9.8 C 259.62 9.8 257.4 9.8 257.4 9.8 L 257.4 3.5 Z M 258.1 4.2 L 258.1 9.1 C 258.1 9.1 259.62 9.14 259.6 9.1 C 261.2 9.1 262.2 8.1 262.2 6.7 C 262.2 6.7 262.2 6.6 262.2 6.6 C 262.2 5.3 261.2 4.2 259.6 4.2 C 259.62 4.15 258.1 4.2 258.1 4.2 Z M 264 7.5 C 264 7.5 264 7.5 264 7.5 C 264 6.1 264.9 5 266.2 5 C 267.6 5 268.4 6.1 268.4 7.5 C 268.4 7.6 268.4 7.6 268.4 7.7 C 268.4 7.7 264.7 7.7 264.7 7.7 C 264.8 8.7 265.5 9.3 266.3 9.3 C 267 9.3 267.4 9 267.8 8.6 C 267.8 8.6 268.2 9 268.2 9 C 267.7 9.6 267.2 9.9 266.3 9.9 C 265 9.9 264 8.9 264 7.5 Z M 267.7 7.2 C 267.6 6.4 267.1 5.6 266.2 5.6 C 265.4 5.6 264.8 6.3 264.7 7.2 C 264.7 7.2 267.7 7.2 267.7 7.2 Z M 281.4 3.5 L 282.1 3.5 L 282.1 9.1 L 285.6 9.1 L 285.6 9.8 L 281.4 9.8 L 281.4 3.5 Z M 286.4 8.4 C 286.4 8.4 286.4 8.4 286.4 8.4 C 286.4 7.4 287.2 6.9 288.4 6.9 C 289 6.9 289.4 7 289.8 7.1 C 289.8 7.1 289.8 7 289.8 7 C 289.8 6.1 289.3 5.7 288.4 5.7 C 287.9 5.7 287.4 5.8 287 6 C 287 6 286.8 5.5 286.8 5.5 C 287.3 5.2 287.8 5.1 288.5 5.1 C 289.2 5.1 289.7 5.3 290 5.6 C 290.3 5.9 290.5 6.4 290.5 7 C 290.48 6.95 290.5 9.8 290.5 9.8 L 289.8 9.8 C 289.8 9.8 289.81 9.1 289.8 9.1 C 289.5 9.5 288.9 9.9 288.1 9.9 C 287.3 9.9 286.4 9.4 286.4 8.4 Z M 289.8 8.1 C 289.8 8.1 289.8 7.6 289.8 7.6 C 289.5 7.5 289 7.4 288.5 7.4 C 287.6 7.4 287.1 7.8 287.1 8.4 C 287.1 8.4 287.1 8.4 287.1 8.4 C 287.1 9 287.6 9.3 288.3 9.3 C 289.1 9.3 289.8 8.8 289.8 8.1 Z M 303.3 8.9 C 303.3 8.9 303.8 8.4 303.8 8.4 C 304.4 9 305.1 9.2 305.9 9.2 C 306.8 9.2 307.3 8.8 307.3 8.2 C 307.3 8.2 307.3 8.2 307.3 8.2 C 307.3 7.6 307 7.2 305.7 7 C 304.2 6.6 303.6 6.2 303.6 5.1 C 303.6 5.1 303.6 5.1 303.6 5.1 C 303.6 4.1 304.5 3.4 305.7 3.4 C 306.6 3.4 307.2 3.7 307.9 4.2 C 307.9 4.2 307.5 4.7 307.5 4.7 C 306.9 4.3 306.3 4 305.6 4 C 304.8 4 304.3 4.5 304.3 5.1 C 304.3 5.1 304.3 5.1 304.3 5.1 C 304.3 5.7 304.6 6 306 6.3 C 307.4 6.6 308.1 7.1 308.1 8.1 C 308.1 8.1 308.1 8.1 308.1 8.1 C 308.1 9.2 307.2 9.9 305.9 9.9 C 304.9 9.9 304.1 9.6 303.3 8.9 Z M 308.9 8.4 C 308.9 8.4 308.9 8.4 308.9 8.4 C 308.9 7.4 309.8 6.9 310.9 6.9 C 311.5 6.9 312 7 312.4 7.1 C 312.4 7.1 312.4 7 312.4 7 C 312.4 6.1 311.9 5.7 311 5.7 C 310.4 5.7 310 5.8 309.6 6 C 309.6 6 309.4 5.5 309.4 5.5 C 309.9 5.2 310.4 5.1 311.1 5.1 C 311.7 5.1 312.2 5.3 312.6 5.6 C 312.9 5.9 313 6.4 313 7 C 313.03 6.95 313 9.8 313 9.8 L 312.4 9.8 C 312.4 9.8 312.37 9.1 312.4 9.1 C 312 9.5 311.5 9.9 310.7 9.9 C 309.8 9.9 308.9 9.4 308.9 8.4 Z M 312.4 8.1 C 312.4 8.1 312.4 7.6 312.4 7.6 C 312 7.5 311.6 7.4 311 7.4 C 310.1 7.4 309.6 7.8 309.6 8.4 C 309.6 8.4 309.6 8.4 309.6 8.4 C 309.6 9 310.2 9.3 310.8 9.3 C 311.7 9.3 312.4 8.8 312.4 8.1 Z M 314.5 3.2 L 315.2 3.2 L 315.2 9.8 L 314.5 9.8 L 314.5 3.2 Z M 316.8 3.2 L 317.5 3.2 L 317.5 9.8 L 316.8 9.8 L 316.8 3.2 Z M 318.7 7.5 C 318.7 7.5 318.7 7.5 318.7 7.5 C 318.7 6.1 319.6 5 320.9 5 C 322.3 5 323.1 6.1 323.1 7.5 C 323.1 7.6 323.1 7.6 323.1 7.7 C 323.1 7.7 319.4 7.7 319.4 7.7 C 319.5 8.7 320.2 9.3 321 9.3 C 321.7 9.3 322.1 9 322.5 8.6 C 322.5 8.6 322.9 9 322.9 9 C 322.5 9.6 321.9 9.9 321 9.9 C 319.7 9.9 318.7 8.9 318.7 7.5 Z M 322.4 7.2 C 322.3 6.4 321.8 5.6 320.9 5.6 C 320.1 5.6 319.5 6.3 319.4 7.2 C 319.4 7.2 322.4 7.2 322.4 7.2 Z M 336 7.2 C 335.99 7.16 336 3.5 336 3.5 L 336.7 3.5 C 336.7 3.5 336.7 7.12 336.7 7.1 C 336.7 8.5 337.4 9.2 338.6 9.2 C 339.8 9.2 340.5 8.5 340.5 7.2 C 340.53 7.16 340.5 3.5 340.5 3.5 L 341.2 3.5 C 341.2 3.5 341.24 7.11 341.2 7.1 C 341.2 8.9 340.2 9.9 338.6 9.9 C 337.1 9.9 336 8.9 336 7.2 Z M 342.7 5.1 L 343.4 5.1 C 343.4 5.1 343.41 5.95 343.4 6 C 343.7 5.5 344.2 5 345 5 C 346.1 5 346.8 5.8 346.8 6.9 C 346.78 6.91 346.8 9.8 346.8 9.8 L 346.1 9.8 C 346.1 9.8 346.09 7.08 346.1 7.1 C 346.1 6.2 345.6 5.7 344.8 5.7 C 344 5.7 343.4 6.3 343.4 7.1 C 343.41 7.13 343.4 9.8 343.4 9.8 L 342.7 9.8 L 342.7 5.1 Z M 348.2 3.4 L 349 3.4 L 349 4.1 L 348.2 4.1 L 348.2 3.4 Z M 348.2 5.1 L 348.9 5.1 L 348.9 9.8 L 348.2 9.8 L 348.2 5.1 Z M 350 5.1 L 350.8 5.1 L 352.3 9 L 353.9 5.1 L 354.6 5.1 L 352.6 9.8 L 352 9.8 L 350 5.1 Z M 355.1 7.5 C 355.1 7.5 355.1 7.5 355.1 7.5 C 355.1 6.1 356 5 357.3 5 C 358.7 5 359.5 6.1 359.5 7.5 C 359.5 7.6 359.5 7.6 359.5 7.7 C 359.5 7.7 355.8 7.7 355.8 7.7 C 355.9 8.7 356.6 9.3 357.4 9.3 C 358.1 9.3 358.5 9 358.9 8.6 C 358.9 8.6 359.3 9 359.3 9 C 358.9 9.6 358.3 9.9 357.4 9.9 C 356.1 9.9 355.1 8.9 355.1 7.5 Z M 358.8 7.2 C 358.7 6.4 358.2 5.6 357.3 5.6 C 356.5 5.6 355.9 6.3 355.8 7.2 C 355.8 7.2 358.8 7.2 358.8 7.2 Z M 360.6 5.1 L 361.3 5.1 C 361.3 5.1 361.3 6.36 361.3 6.4 C 361.6 5.6 362.3 5 363.2 5.1 C 363.2 5.06 363.2 5.8 363.2 5.8 C 363.2 5.8 363.14 5.81 363.1 5.8 C 362.1 5.8 361.3 6.5 361.3 7.9 C 361.3 7.94 361.3 9.8 361.3 9.8 L 360.6 9.8 L 360.6 5.1 Z M 363.8 9.2 C 363.8 9.2 364.1 8.7 364.1 8.7 C 364.6 9.1 365.2 9.3 365.7 9.3 C 366.3 9.3 366.7 9 366.7 8.6 C 366.7 8.6 366.7 8.5 366.7 8.5 C 366.7 8.1 366.1 7.9 365.5 7.7 C 364.8 7.5 364 7.3 364 6.4 C 364 6.4 364 6.4 364 6.4 C 364 5.6 364.7 5.1 365.6 5.1 C 366.1 5.1 366.8 5.3 367.3 5.6 C 367.3 5.6 366.9 6.1 366.9 6.1 C 366.5 5.8 366 5.6 365.6 5.6 C 365 5.6 364.7 5.9 364.7 6.3 C 364.7 6.3 364.7 6.3 364.7 6.3 C 364.7 6.8 365.2 7 365.9 7.1 C 366.6 7.4 367.4 7.6 367.4 8.5 C 367.4 8.5 367.4 8.5 367.4 8.5 C 367.4 9.4 366.6 9.9 365.7 9.9 C 365 9.9 364.3 9.6 363.8 9.2 Z M 368.6 3.4 L 369.4 3.4 L 369.4 4.1 L 368.6 4.1 L 368.6 3.4 Z M 368.6 5.1 L 369.3 5.1 L 369.3 9.8 L 368.6 9.8 L 368.6 5.1 Z M 371.1 8.6 C 371.07 8.57 371.1 5.8 371.1 5.8 L 370.4 5.8 L 370.4 5.1 L 371.1 5.1 L 371.1 3.7 L 371.8 3.7 L 371.8 5.1 L 373.2 5.1 L 373.2 5.8 L 371.8 5.8 C 371.8 5.8 371.76 8.48 371.8 8.5 C 371.8 9 372.1 9.2 372.5 9.2 C 372.8 9.2 373 9.2 373.2 9.1 C 373.2 9.1 373.2 9.7 373.2 9.7 C 373 9.8 372.7 9.9 372.4 9.9 C 371.6 9.9 371.1 9.5 371.1 8.6 Z M 377.9 5.1 L 378.6 5.1 C 378.6 5.1 376.64 9.95 376.6 10 C 376.2 10.9 375.8 11.3 375.1 11.3 C 374.7 11.3 374.4 11.2 374.1 11 C 374.1 11 374.3 10.5 374.3 10.5 C 374.6 10.6 374.8 10.7 375.1 10.7 C 375.5 10.7 375.7 10.4 376 9.8 C 376.02 9.78 373.9 5.1 373.9 5.1 L 374.7 5.1 L 376.4 9 L 377.9 5.1 Z M 391.5 3.5 L 392.2 3.5 L 392.2 9.1 L 395.7 9.1 L 395.7 9.8 L 391.5 9.8 L 391.5 3.5 Z M 396.5 8.4 C 396.5 8.4 396.5 8.4 396.5 8.4 C 396.5 7.4 397.3 6.9 398.5 6.9 C 399.1 6.9 399.5 7 399.9 7.1 C 399.9 7.1 399.9 7 399.9 7 C 399.9 6.1 399.4 5.7 398.5 5.7 C 398 5.7 397.5 5.8 397.1 6 C 397.1 6 396.9 5.5 396.9 5.5 C 397.4 5.2 397.9 5.1 398.6 5.1 C 399.3 5.1 399.8 5.3 400.1 5.6 C 400.4 5.9 400.6 6.4 400.6 7 C 400.58 6.95 400.6 9.8 400.6 9.8 L 399.9 9.8 C 399.9 9.8 399.92 9.1 399.9 9.1 C 399.6 9.5 399.1 9.9 398.2 9.9 C 397.4 9.9 396.5 9.4 396.5 8.4 Z M 399.9 8.1 C 399.9 8.1 399.9 7.6 399.9 7.6 C 399.6 7.5 399.1 7.4 398.6 7.4 C 397.7 7.4 397.2 7.8 397.2 8.4 C 397.2 8.4 397.2 8.4 397.2 8.4 C 397.2 9 397.7 9.3 398.4 9.3 C 399.2 9.3 399.9 8.8 399.9 8.1 Z M 401.7 7.5 C 401.7 7.5 401.7 7.5 401.7 7.5 C 401.7 5.9 402.8 5 403.9 5 C 404.8 5 405.3 5.5 405.7 6 C 405.7 6.04 405.7 3.2 405.7 3.2 L 406.4 3.2 L 406.4 9.8 L 405.7 9.8 C 405.7 9.8 405.7 8.86 405.7 8.9 C 405.3 9.4 404.8 9.9 403.9 9.9 C 402.8 9.9 401.7 9 401.7 7.5 Z M 405.7 7.5 C 405.7 7.5 405.7 7.5 405.7 7.5 C 405.7 6.4 404.9 5.7 404 5.7 C 403.1 5.7 402.4 6.3 402.4 7.5 C 402.4 7.5 402.4 7.5 402.4 7.5 C 402.4 8.6 403.2 9.3 404 9.3 C 404.9 9.3 405.7 8.5 405.7 7.5 Z M 411.3 5.1 L 412.1 5.1 C 412.1 5.1 410.12 9.95 410.1 10 C 409.7 10.9 409.3 11.3 408.6 11.3 C 408.2 11.3 407.9 11.2 407.6 11 C 407.6 11 407.8 10.5 407.8 10.5 C 408 10.6 408.3 10.7 408.5 10.7 C 409 10.7 409.2 10.4 409.5 9.8 C 409.5 9.78 407.4 5.1 407.4 5.1 L 408.2 5.1 L 409.8 9 L 411.3 5.1 Z M 425 3.5 C 425 3.5 427.32 3.5 427.3 3.5 C 428.7 3.5 429.7 4.3 429.7 5.5 C 429.7 5.5 429.7 5.5 429.7 5.5 C 429.7 6.9 428.5 7.6 427.2 7.6 C 427.2 7.57 425.7 7.6 425.7 7.6 L 425.7 9.8 L 425 9.8 L 425 3.5 Z M 427.2 6.9 C 428.3 6.9 429 6.4 429 5.5 C 429 5.5 429 5.5 429 5.5 C 429 4.6 428.3 4.2 427.3 4.2 C 427.27 4.15 425.7 4.2 425.7 4.2 L 425.7 6.9 C 425.7 6.9 427.23 6.93 427.2 6.9 Z M 430.3 8.4 C 430.3 8.4 430.3 8.4 430.3 8.4 C 430.3 7.4 431.1 6.9 432.3 6.9 C 432.9 6.9 433.3 7 433.7 7.1 C 433.7 7.1 433.7 7 433.7 7 C 433.7 6.1 433.2 5.7 432.4 5.7 C 431.8 5.7 431.4 5.8 430.9 6 C 430.9 6 430.7 5.5 430.7 5.5 C 431.3 5.2 431.8 5.1 432.4 5.1 C 433.1 5.1 433.6 5.3 433.9 5.6 C 434.3 5.9 434.4 6.4 434.4 7 C 434.41 6.95 434.4 9.8 434.4 9.8 L 433.7 9.8 C 433.7 9.8 433.75 9.1 433.7 9.1 C 433.4 9.5 432.9 9.9 432.1 9.9 C 431.2 9.9 430.3 9.4 430.3 8.4 Z M 433.8 8.1 C 433.8 8.1 433.8 7.6 433.8 7.6 C 433.4 7.5 433 7.4 432.4 7.4 C 431.5 7.4 431 7.8 431 8.4 C 431 8.4 431 8.4 431 8.4 C 431 9 431.6 9.3 432.2 9.3 C 433.1 9.3 433.8 8.8 433.8 8.1 Z M 435.5 7.5 C 435.5 7.5 435.5 7.5 435.5 7.5 C 435.5 5.9 436.6 5 437.8 5 C 438.6 5 439.2 5.5 439.5 6 C 439.53 6.04 439.5 3.2 439.5 3.2 L 440.2 3.2 L 440.2 9.8 L 439.5 9.8 C 439.5 9.8 439.53 8.86 439.5 8.9 C 439.2 9.4 438.6 9.9 437.8 9.9 C 436.6 9.9 435.5 9 435.5 7.5 Z M 439.6 7.5 C 439.6 7.5 439.6 7.5 439.6 7.5 C 439.6 6.4 438.7 5.7 437.9 5.7 C 437 5.7 436.2 6.3 436.2 7.5 C 436.2 7.5 436.2 7.5 436.2 7.5 C 436.2 8.6 437 9.3 437.9 9.3 C 438.7 9.3 439.6 8.5 439.6 7.5 Z M 441.4 7.5 C 441.4 7.5 441.4 7.5 441.4 7.5 C 441.4 5.9 442.5 5 443.6 5 C 444.5 5 445.1 5.5 445.4 6 C 445.42 6.04 445.4 3.2 445.4 3.2 L 446.1 3.2 L 446.1 9.8 L 445.4 9.8 C 445.4 9.8 445.42 8.86 445.4 8.9 C 445 9.4 444.5 9.9 443.6 9.9 C 442.5 9.9 441.4 9 441.4 7.5 Z M 445.4 7.5 C 445.4 7.5 445.4 7.5 445.4 7.5 C 445.4 6.4 444.6 5.7 443.8 5.7 C 442.9 5.7 442.1 6.3 442.1 7.5 C 442.1 7.5 442.1 7.5 442.1 7.5 C 442.1 8.6 442.9 9.3 443.8 9.3 C 444.6 9.3 445.4 8.5 445.4 7.5 Z M 447.6 3.2 L 448.3 3.2 L 448.3 9.8 L 447.6 9.8 L 447.6 3.2 Z M 449.6 7.5 C 449.6 7.5 449.6 7.5 449.6 7.5 C 449.6 6.1 450.5 5 451.8 5 C 453.2 5 454 6.1 454 7.5 C 454 7.6 454 7.6 454 7.7 C 454 7.7 450.3 7.7 450.3 7.7 C 450.4 8.7 451.1 9.3 451.9 9.3 C 452.5 9.3 453 9 453.4 8.6 C 453.4 8.6 453.8 9 453.8 9 C 453.3 9.6 452.8 9.9 451.9 9.9 C 450.6 9.9 449.6 8.9 449.6 7.5 Z M 453.3 7.2 C 453.2 6.4 452.7 5.6 451.8 5.6 C 451 5.6 450.4 6.3 450.3 7.2 C 450.3 7.2 453.3 7.2 453.3 7.2 Z M 455.1 5.1 L 455.8 5.1 C 455.8 5.1 455.78 6.36 455.8 6.4 C 456.1 5.6 456.8 5 457.7 5.1 C 457.68 5.06 457.7 5.8 457.7 5.8 C 457.7 5.8 457.62 5.81 457.6 5.8 C 456.6 5.8 455.8 6.5 455.8 7.9 C 455.78 7.94 455.8 9.8 455.8 9.8 L 455.1 9.8 L 455.1 5.1 Z " stroke="none" fill="#fff"/>
  </g>
</svg>