<?xml version="1.0" standalone="no"?>
<!DOCTYPE svg PUBLIC "-//W3C//DTD SVG 1.1//EN" "http://www.w3.org/Graphics/SVG/1.1/DTD/svg11.dtd">
<svg xmlns="http://www.w3.org/2000/svg" version="1.1" width="30px" height="24.8px" viewBox="0 -5 30 24.8" style="top:-5px">
  <desc>5</desc>
  <defs/>
  <g id="Polygon16651">
    <path d="M 1.5 11.2 C 1.2 11.1 1.2 11 1.2 10.7 C 1.2 10.2 1.2 9.3 1.2 8.8 C 1.3 8.6 1.3 8.5 1.4 8.5 C 1.5 8.5 1.5 8.6 1.5 8.7 C 1.5 10.4 2.5 10.8 3.6 10.8 C 4.8 10.8 6.1 10 6.1 8 C 6.1 5.6 3.4 4.6 2.3 4.5 C 2.1 4.4 2 4.3 2 4.2 C 2 4.2 2.3 0.2 2.3 0.2 C 2.4 0 2.5 0 2.6 0 C 2.6 0 6.3 0 6.3 0 C 6.7 0 7 0 7.1 -0.1 C 7.3 -0.1 7.4 -0.1 7.4 -0.1 C 7.6 -0.1 7.6 0 7.6 0.2 C 7.6 0.5 7.5 1.2 7.4 2.1 C 7.4 2.2 7.3 2.3 7.2 2.3 C 7.1 2.3 7.1 2.2 7.1 2.1 C 7.1 1.6 7 1.3 5.8 1.3 C 5.79 1.26 3.1 1.3 3.1 1.3 C 3.1 1.3 2.85 3.09 2.8 3.1 C 5.1 3.4 7.8 4.7 7.8 7.3 C 7.8 9.3 6.4 11.5 2.9 11.5 C 2.4 11.5 1.8 11.4 1.5 11.2 Z " stroke="none" fill="#000"/>
  </g>
</svg>