<?xml version="1.0" standalone="no"?>
<!DOCTYPE svg PUBLIC "-//W3C//DTD SVG 1.1//EN" "http://www.w3.org/Graphics/SVG/1.1/DTD/svg11.dtd">
<svg xmlns="http://www.w3.org/2000/svg" version="1.1" width="119.3px" height="14.9px" viewBox="0 -1 119.3 14.9" style="top:-1px">
  <desc>START p 3</desc>
  <defs/>
  <g id="Polygon13394">
    <path d="M 70 2.7 C 70 2.7 69.1 3.5 69.1 3.5 C 68.8 3.1 68.5 2.8 68.1 2.8 C 68 2.8 67.8 2.9 67.7 3 C 67.6 3.1 67.6 3.2 67.6 3.3 C 67.6 3.4 67.6 3.5 67.7 3.6 C 67.8 3.7 68.1 4 68.6 4.4 C 69.1 4.8 69.3 5 69.4 5.1 C 69.7 5.4 69.9 5.6 70 5.9 C 70.1 6.1 70.1 6.4 70.1 6.6 C 70.1 7.2 69.9 7.6 69.6 7.9 C 69.2 8.3 68.7 8.5 68.1 8.5 C 67.7 8.5 67.3 8.3 66.9 8.1 C 66.6 7.9 66.3 7.5 66.1 7.1 C 66.1 7.1 67.1 6.4 67.1 6.4 C 67.4 7 67.8 7.3 68.2 7.3 C 68.4 7.3 68.6 7.2 68.7 7.1 C 68.8 7 68.9 6.8 68.9 6.7 C 68.9 6.5 68.9 6.4 68.8 6.2 C 68.6 6.1 68.4 5.9 68 5.6 C 67.3 5 66.9 4.5 66.7 4.2 C 66.5 3.9 66.4 3.6 66.4 3.3 C 66.4 2.9 66.5 2.5 66.9 2.1 C 67.2 1.8 67.6 1.7 68.1 1.7 C 68.5 1.7 68.8 1.7 69.1 1.9 C 69.4 2 69.7 2.3 70 2.7 Z M 70.7 1.8 L 74.2 1.8 L 74.2 3 L 73.1 3 L 73.1 8.3 L 71.8 8.3 L 71.8 3 L 70.7 3 L 70.7 1.8 Z M 77 1.8 L 78.3 1.8 L 80.8 8.3 L 79.5 8.3 L 79 7 L 76.4 7 L 75.8 8.3 L 74.6 8.3 L 77 1.8 Z M 77.7 3.5 L 76.8 5.8 L 78.5 5.8 L 77.7 3.5 Z M 81.8 1.8 C 81.8 1.8 83.12 1.83 83.1 1.8 C 83.8 1.8 84.3 1.9 84.6 2 C 84.9 2.1 85.2 2.4 85.4 2.7 C 85.6 3 85.7 3.3 85.7 3.7 C 85.7 4.1 85.6 4.5 85.3 4.8 C 85.1 5.1 84.8 5.3 84.4 5.4 C 84.43 5.42 86 8.3 86 8.3 L 84.6 8.3 L 83.2 5.6 L 83 5.6 L 83 8.3 L 81.8 8.3 L 81.8 1.8 Z M 83 4.4 C 83 4.4 83.43 4.36 83.4 4.4 C 83.8 4.4 84.1 4.3 84.2 4.2 C 84.4 4.1 84.5 3.9 84.5 3.7 C 84.5 3.6 84.4 3.4 84.4 3.3 C 84.3 3.2 84.2 3.1 84.1 3.1 C 83.9 3.1 83.7 3 83.4 3 C 83.38 3.03 83 3 83 3 L 83 4.4 Z M 86.3 1.8 L 89.9 1.8 L 89.9 3 L 88.7 3 L 88.7 8.3 L 87.5 8.3 L 87.5 3 L 86.3 3 L 86.3 1.8 Z M 93 3.4 L 93 2.3 L 97.4 4.6 L 97.4 5.5 L 93 7.8 L 93 6.7 L 96.2 5.1 L 93 3.4 Z M 98.4 3.4 L 98.4 2.3 L 102.8 4.6 L 102.8 5.5 L 98.4 7.8 L 98.4 6.7 L 101.6 5.1 L 98.4 3.4 Z M 107.6 3.5 C 107.6 3.5 107.63 4.04 107.6 4 C 107.8 3.8 108.1 3.7 108.3 3.6 C 108.6 3.4 108.9 3.4 109.1 3.4 C 109.8 3.4 110.3 3.6 110.7 4.1 C 111.2 4.6 111.4 5.2 111.4 5.9 C 111.4 6.6 111.2 7.2 110.7 7.7 C 110.3 8.2 109.7 8.4 109.1 8.4 C 108.8 8.4 108.6 8.4 108.3 8.3 C 108.1 8.2 107.9 8 107.6 7.8 C 107.63 7.79 107.6 10 107.6 10 L 106.4 10 L 106.4 3.5 L 107.6 3.5 Z M 108.9 4.5 C 108.5 4.5 108.2 4.6 108 4.9 C 107.7 5.1 107.6 5.5 107.6 5.9 C 107.6 6.3 107.7 6.7 108 6.9 C 108.2 7.2 108.5 7.3 108.9 7.3 C 109.3 7.3 109.6 7.2 109.8 6.9 C 110.1 6.7 110.2 6.3 110.2 5.9 C 110.2 5.5 110.1 5.2 109.8 4.9 C 109.6 4.6 109.3 4.5 108.9 4.5 Z M 113 7 C 113.2 7 113.4 7.1 113.5 7.2 C 113.7 7.4 113.7 7.5 113.7 7.7 C 113.7 7.9 113.7 8.1 113.5 8.2 C 113.4 8.4 113.2 8.4 113 8.4 C 112.8 8.4 112.7 8.4 112.5 8.2 C 112.4 8.1 112.3 7.9 112.3 7.7 C 112.3 7.5 112.4 7.4 112.5 7.2 C 112.7 7.1 112.8 7 113 7 Z M 116 3.4 C 116 3.4 114.8 3.4 114.8 3.4 C 114.9 2.9 115.1 2.6 115.3 2.3 C 115.7 1.9 116.2 1.7 116.8 1.7 C 117.3 1.7 117.8 1.8 118.1 2.2 C 118.5 2.5 118.7 2.9 118.7 3.4 C 118.7 3.7 118.6 3.9 118.5 4.2 C 118.3 4.4 118.1 4.6 117.8 4.7 C 118.2 4.9 118.5 5.1 118.7 5.3 C 118.9 5.6 119 6 119 6.4 C 119 7 118.8 7.5 118.4 7.9 C 118 8.3 117.4 8.5 116.7 8.5 C 116.1 8.5 115.6 8.3 115.2 7.9 C 114.8 7.5 114.6 7 114.6 6.3 C 114.6 6.3 115.8 6.3 115.8 6.3 C 115.8 6.7 115.9 6.9 116.1 7.1 C 116.3 7.2 116.5 7.3 116.8 7.3 C 117.1 7.3 117.3 7.2 117.5 7.1 C 117.7 6.9 117.8 6.6 117.8 6.4 C 117.8 6.1 117.7 5.8 117.4 5.6 C 117.2 5.4 116.8 5.3 116.3 5.3 C 116.3 5.3 116.3 4.3 116.3 4.3 C 116.6 4.2 116.8 4.2 117 4.1 C 117.1 4.1 117.2 4 117.3 3.8 C 117.4 3.7 117.4 3.6 117.4 3.5 C 117.4 3.3 117.4 3.1 117.3 3 C 117.1 2.9 117 2.9 116.8 2.9 C 116.6 2.9 116.4 2.9 116.3 3 C 116.2 3.1 116.1 3.3 116 3.4 Z " stroke="none" fill="#000"/>
  </g>
</svg>