<?xml version="1.0" standalone="no"?>
<!DOCTYPE svg PUBLIC "-//W3C//DTD SVG 1.1//EN" "http://www.w3.org/Graphics/SVG/1.1/DTD/svg11.dtd">
<svg xmlns="http://www.w3.org/2000/svg" version="1.1" width="468px" height="14.5px" viewBox="0 -1 468 14.5" style="top:-1px">
  <desc>Jamela Beatrice Bautista, Alma Fe Garo, Sofia Gendive, at Jasmine Rose Martinez</desc>
  <defs/>
  <g id="Polygon20960">
    <path d="M 61 3.5 C 61 3.5 61.01 7.34 61 7.3 C 61 7.9 60.9 8.3 60.6 8.6 C 60.4 8.8 59.9 9 59.3 9 C 59.1 9 58.8 8.9 58.5 8.9 C 58.5 8.9 58.5 7.8 58.5 7.8 C 58.7 7.9 59 7.9 59.1 7.9 C 59.3 7.9 59.4 7.9 59.5 7.8 C 59.6 7.8 59.7 7.7 59.7 7.6 C 59.7 7.5 59.8 7.4 59.8 7.2 C 59.76 7.19 59.8 3.5 59.8 3.5 L 61 3.5 Z M 64.8 3.5 L 66.5 8.9 L 65.2 8.9 L 64.8 7.8 L 63.1 7.8 L 62.8 8.9 L 61.7 8.9 L 63.4 3.5 L 64.8 3.5 Z M 63.4 6.8 L 64.5 6.8 L 64 4.9 L 63.4 6.8 Z M 69.8 8.9 L 68.5 4.5 L 68.5 8.9 L 67.4 8.9 L 67.4 3.5 L 69.3 3.5 L 70.3 6.7 L 71.3 3.5 L 73.2 3.5 L 73.2 8.9 L 72 8.9 L 72 4.5 L 70.6 8.9 L 69.8 8.9 Z M 78.4 4.6 L 75.9 4.6 L 75.9 5.6 L 77.9 5.6 L 77.9 6.7 L 75.9 6.7 L 75.9 7.8 L 78.4 7.8 L 78.4 8.9 L 74.6 8.9 L 74.6 3.5 L 78.4 3.5 L 78.4 4.6 Z M 80.7 7.8 L 82.9 7.8 L 82.9 8.9 L 79.5 8.9 L 79.5 3.5 L 80.7 3.5 L 80.7 7.8 Z M 86.4 3.5 L 88.1 8.9 L 86.8 8.9 L 86.4 7.8 L 84.7 7.8 L 84.4 8.9 L 83.3 8.9 L 85 3.5 L 86.4 3.5 Z M 85 6.8 L 86.2 6.8 L 85.6 4.9 L 85 6.8 Z M 91.3 3.5 C 91.3 3.5 93.82 3.54 93.8 3.5 C 94.3 3.5 94.6 3.6 94.8 3.7 C 95 3.8 95.2 4 95.4 4.2 C 95.5 4.4 95.6 4.6 95.6 4.9 C 95.6 5.5 95.3 5.9 94.6 6.1 C 95 6.2 95.3 6.3 95.5 6.6 C 95.7 6.8 95.7 7.1 95.7 7.4 C 95.7 7.8 95.6 8.1 95.3 8.4 C 95 8.7 94.5 8.9 93.8 8.9 C 93.82 8.87 91.3 8.9 91.3 8.9 L 91.3 3.5 Z M 92.6 4.5 L 92.6 5.6 C 92.6 5.6 93.52 5.65 93.5 5.6 C 93.9 5.6 94.1 5.6 94.2 5.4 C 94.3 5.3 94.3 5.2 94.3 5 C 94.3 4.9 94.3 4.8 94.2 4.7 C 94.1 4.6 94 4.5 94 4.5 C 93.9 4.5 93.7 4.5 93.4 4.5 C 93.43 4.48 92.6 4.5 92.6 4.5 Z M 92.6 6.6 L 92.6 7.9 C 92.6 7.9 93.54 7.88 93.5 7.9 C 93.9 7.9 94.1 7.8 94.2 7.7 C 94.4 7.6 94.4 7.4 94.4 7.2 C 94.4 7.1 94.4 6.9 94.2 6.8 C 94.1 6.7 93.9 6.6 93.6 6.6 C 93.59 6.6 92.6 6.6 92.6 6.6 Z M 100.7 4.6 L 98.1 4.6 L 98.1 5.6 L 100.1 5.6 L 100.1 6.7 L 98.1 6.7 L 98.1 7.8 L 100.7 7.8 L 100.7 8.9 L 96.9 8.9 L 96.9 3.5 L 100.7 3.5 L 100.7 4.6 Z M 104.4 3.5 L 106 8.9 L 104.7 8.9 L 104.4 7.8 L 102.6 7.8 L 102.3 8.9 L 101.2 8.9 L 102.9 3.5 L 104.4 3.5 Z M 102.9 6.8 L 104.1 6.8 L 103.5 4.9 L 102.9 6.8 Z M 109.9 3.5 L 109.9 4.6 L 108.6 4.6 L 108.6 8.9 L 107.3 8.9 L 107.3 4.6 L 106 4.6 L 106 3.5 L 109.9 3.5 Z M 112 6.8 L 112 8.9 L 110.8 8.9 L 110.8 3.5 C 110.8 3.5 113.1 3.54 113.1 3.5 C 113.5 3.5 113.9 3.6 114.1 3.7 C 114.4 3.8 114.6 4 114.8 4.2 C 115 4.5 115 4.8 115 5.1 C 115 5.8 114.7 6.2 114.1 6.5 C 114.12 6.51 115.1 8.9 115.1 8.9 L 113.7 8.9 L 112.9 6.8 L 112 6.8 Z M 112 4.5 L 112 5.8 C 112 5.8 112.78 5.85 112.8 5.8 C 113 5.8 113.2 5.8 113.3 5.8 C 113.4 5.8 113.5 5.7 113.6 5.6 C 113.7 5.4 113.8 5.3 113.8 5.1 C 113.8 5 113.7 4.9 113.6 4.7 C 113.5 4.6 113.4 4.6 113.3 4.5 C 113.2 4.5 113 4.5 112.7 4.5 C 112.75 4.49 112 4.5 112 4.5 Z M 117.6 3.5 L 117.6 8.9 L 116.3 8.9 L 116.3 3.5 L 117.6 3.5 Z M 121.1 3.5 C 122.4 3.5 123.1 4.1 123.3 5.5 C 123.3 5.5 122 5.6 122 5.6 C 121.9 4.9 121.6 4.5 121.1 4.5 C 120.4 4.5 120.1 5.1 120.1 6.2 C 120.1 6.9 120.2 7.3 120.4 7.6 C 120.5 7.8 120.8 7.9 121.1 7.9 C 121.6 7.9 121.9 7.6 122.1 6.9 C 122.1 6.9 123.3 7 123.3 7 C 123.2 7.6 123 8.1 122.6 8.5 C 122.2 8.8 121.7 9 121.1 9 C 120.4 9 119.8 8.7 119.4 8.2 C 118.9 7.7 118.7 7.1 118.7 6.2 C 118.7 5.4 118.9 4.7 119.4 4.2 C 119.8 3.7 120.4 3.5 121.1 3.5 C 121.1 3.5 121.1 3.5 121.1 3.5 Z M 128.1 4.6 L 125.6 4.6 L 125.6 5.6 L 127.6 5.6 L 127.6 6.7 L 125.6 6.7 L 125.6 7.8 L 128.1 7.8 L 128.1 8.9 L 124.3 8.9 L 124.3 3.5 L 128.1 3.5 L 128.1 4.6 Z M 131.5 3.5 C 131.5 3.5 133.99 3.54 134 3.5 C 134.4 3.5 134.8 3.6 135 3.7 C 135.2 3.8 135.4 4 135.5 4.2 C 135.7 4.4 135.8 4.6 135.8 4.9 C 135.8 5.5 135.4 5.9 134.8 6.1 C 135.2 6.2 135.5 6.3 135.6 6.6 C 135.8 6.8 135.9 7.1 135.9 7.4 C 135.9 7.8 135.8 8.1 135.5 8.4 C 135.2 8.7 134.7 8.9 134 8.9 C 133.99 8.87 131.5 8.9 131.5 8.9 L 131.5 3.5 Z M 132.8 4.5 L 132.8 5.6 C 132.8 5.6 133.7 5.65 133.7 5.6 C 134 5.6 134.3 5.6 134.4 5.4 C 134.4 5.3 134.5 5.2 134.5 5 C 134.5 4.9 134.4 4.8 134.4 4.7 C 134.3 4.6 134.2 4.5 134.1 4.5 C 134 4.5 133.9 4.5 133.6 4.5 C 133.61 4.48 132.8 4.5 132.8 4.5 Z M 132.8 6.6 L 132.8 7.9 C 132.8 7.9 133.71 7.88 133.7 7.9 C 134 7.9 134.3 7.8 134.4 7.7 C 134.5 7.6 134.6 7.4 134.6 7.2 C 134.6 7.1 134.5 6.9 134.4 6.8 C 134.3 6.7 134.1 6.6 133.8 6.6 C 133.77 6.6 132.8 6.6 132.8 6.6 Z M 139.7 3.5 L 141.3 8.9 L 140 8.9 L 139.7 7.8 L 137.9 7.8 L 137.6 8.9 L 136.5 8.9 L 138.2 3.5 L 139.7 3.5 Z M 138.2 6.8 L 139.4 6.8 L 138.8 4.9 L 138.2 6.8 Z M 146.3 3.5 C 146.3 3.5 146.28 6.86 146.3 6.9 C 146.3 7.4 146.2 7.8 146.1 8.1 C 146 8.3 145.7 8.5 145.4 8.7 C 145.1 8.9 144.7 9 144.2 9 C 143.6 9 143.2 8.9 142.9 8.7 C 142.6 8.6 142.4 8.4 142.2 8.1 C 142.1 7.8 142 7.4 142 6.9 C 142.02 6.86 142 3.5 142 3.5 L 143.4 3.5 C 143.4 3.5 143.38 6.86 143.4 6.9 C 143.4 7.1 143.4 7.4 143.4 7.5 C 143.5 7.6 143.6 7.7 143.7 7.8 C 143.9 7.9 144.1 7.9 144.3 7.9 C 144.5 7.9 144.7 7.9 144.8 7.8 C 145 7.7 145.1 7.6 145.1 7.5 C 145.2 7.4 145.2 7.2 145.2 6.9 C 145.21 6.86 145.2 3.5 145.2 3.5 L 146.3 3.5 Z M 151 3.5 L 151 4.6 L 149.6 4.6 L 149.6 8.9 L 148.4 8.9 L 148.4 4.6 L 147.1 4.6 L 147.1 3.5 L 151 3.5 Z M 153.1 3.5 L 153.1 8.9 L 151.8 8.9 L 151.8 3.5 L 153.1 3.5 Z M 156.1 3.5 C 157.2 3.5 157.8 3.9 158.1 4.7 C 158.1 4.7 157.1 5.1 157.1 5.1 C 156.9 4.6 156.6 4.4 156.2 4.4 C 155.7 4.4 155.4 4.6 155.4 4.9 C 155.4 5 155.5 5.1 155.6 5.2 C 155.7 5.3 155.9 5.4 156.2 5.5 C 156.7 5.6 157.1 5.7 157.4 5.8 C 157.6 5.9 157.9 6.1 158 6.3 C 158.2 6.6 158.3 6.9 158.3 7.2 C 158.3 7.7 158.1 8.1 157.7 8.4 C 157.4 8.8 156.8 9 156.1 9 C 155.5 9 155.1 8.8 154.7 8.6 C 154.3 8.3 154.1 8 153.9 7.5 C 153.9 7.5 155.1 7.2 155.1 7.2 C 155.2 7.7 155.6 8 156.2 8 C 156.5 8 156.7 7.9 156.8 7.8 C 156.9 7.7 157 7.5 157 7.4 C 157 7.2 157 7.1 156.8 7 C 156.7 6.9 156.5 6.9 156.1 6.8 C 155.4 6.6 154.9 6.5 154.6 6.2 C 154.4 6 154.2 5.6 154.2 5.1 C 154.2 4.7 154.4 4.3 154.7 3.9 C 155.1 3.6 155.5 3.5 156.1 3.5 C 156.1 3.5 156.1 3.5 156.1 3.5 Z M 162.8 3.5 L 162.8 4.6 L 161.5 4.6 L 161.5 8.9 L 160.3 8.9 L 160.3 4.6 L 158.9 4.6 L 158.9 3.5 L 162.8 3.5 Z M 165.9 3.5 L 167.6 8.9 L 166.3 8.9 L 165.9 7.8 L 164.2 7.8 L 163.9 8.9 L 162.8 8.9 L 164.5 3.5 L 165.9 3.5 Z M 164.5 6.8 L 165.6 6.8 L 165.1 4.9 L 164.5 6.8 Z M 169.8 7.7 L 169.8 8.8 L 169 10.1 L 168.6 10.1 L 169.2 8.9 L 168.6 8.9 L 168.6 7.7 L 169.8 7.7 Z M 176 3.5 L 177.7 8.9 L 176.3 8.9 L 176 7.8 L 174.3 7.8 L 173.9 8.9 L 172.9 8.9 L 174.6 3.5 L 176 3.5 Z M 174.6 6.8 L 175.7 6.8 L 175.2 4.9 L 174.6 6.8 Z M 179.8 7.8 L 182 7.8 L 182 8.9 L 178.6 8.9 L 178.6 3.5 L 179.8 3.5 L 179.8 7.8 Z M 185.3 8.9 L 184 4.5 L 184 8.9 L 182.9 8.9 L 182.9 3.5 L 184.9 3.5 L 185.8 6.7 L 186.8 3.5 L 188.7 3.5 L 188.7 8.9 L 187.5 8.9 L 187.5 4.5 L 186.1 8.9 L 185.3 8.9 Z M 192.7 3.5 L 194.4 8.9 L 193.1 8.9 L 192.7 7.8 L 191 7.8 L 190.7 8.9 L 189.6 8.9 L 191.3 3.5 L 192.7 3.5 Z M 191.3 6.8 L 192.4 6.8 L 191.9 4.9 L 191.3 6.8 Z M 201.4 4.6 L 198.9 4.6 L 198.9 5.8 L 200.9 5.8 L 200.9 6.8 L 198.9 6.8 L 198.9 8.9 L 197.6 8.9 L 197.6 3.5 L 201.4 3.5 L 201.4 4.6 Z M 206.2 4.6 L 203.6 4.6 L 203.6 5.6 L 205.6 5.6 L 205.6 6.7 L 203.6 6.7 L 203.6 7.8 L 206.2 7.8 L 206.2 8.9 L 202.4 8.9 L 202.4 3.5 L 206.2 3.5 L 206.2 4.6 Z M 213.7 6 L 213.7 8.9 C 213.7 8.9 213.16 8.87 213.2 8.9 C 213.1 8.7 213.1 8.5 213 8.3 C 212.6 8.7 212.1 9 211.5 9 C 210.8 9 210.3 8.7 209.9 8.2 C 209.5 7.7 209.3 7.1 209.3 6.3 C 209.3 5.4 209.5 4.7 209.9 4.2 C 210.4 3.7 210.9 3.5 211.6 3.5 C 212.2 3.5 212.7 3.6 213.1 4 C 213.4 4.3 213.6 4.7 213.7 5.3 C 213.7 5.3 212.5 5.4 212.5 5.4 C 212.4 4.8 212.1 4.5 211.6 4.5 C 211.3 4.5 211 4.6 210.9 4.9 C 210.7 5.2 210.6 5.7 210.6 6.2 C 210.6 6.8 210.7 7.2 210.9 7.5 C 211.1 7.8 211.3 7.9 211.7 7.9 C 211.9 7.9 212.1 7.9 212.3 7.7 C 212.5 7.6 212.5 7.3 212.5 7 C 212.54 7.01 211.5 7 211.5 7 L 211.5 6 L 213.7 6 Z M 217.7 3.5 L 219.4 8.9 L 218 8.9 L 217.7 7.8 L 216 7.8 L 215.6 8.9 L 214.5 8.9 L 216.3 3.5 L 217.7 3.5 Z M 216.3 6.8 L 217.4 6.8 L 216.8 4.9 L 216.3 6.8 Z M 221.5 6.8 L 221.5 8.9 L 220.3 8.9 L 220.3 3.5 C 220.3 3.5 222.6 3.54 222.6 3.5 C 223 3.5 223.4 3.6 223.6 3.7 C 223.9 3.8 224.1 4 224.3 4.2 C 224.5 4.5 224.6 4.8 224.6 5.1 C 224.6 5.8 224.2 6.2 223.6 6.5 C 223.63 6.51 224.6 8.9 224.6 8.9 L 223.2 8.9 L 222.4 6.8 L 221.5 6.8 Z M 221.5 4.5 L 221.5 5.8 C 221.5 5.8 222.28 5.85 222.3 5.8 C 222.5 5.8 222.7 5.8 222.8 5.8 C 222.9 5.8 223 5.7 223.1 5.6 C 223.2 5.4 223.3 5.3 223.3 5.1 C 223.3 5 223.2 4.9 223.1 4.7 C 223 4.6 222.9 4.6 222.8 4.5 C 222.7 4.5 222.5 4.5 222.3 4.5 C 222.26 4.49 221.5 4.5 221.5 4.5 Z M 227.7 9 C 227 9 226.5 8.7 226.1 8.1 C 225.7 7.6 225.5 7 225.5 6.2 C 225.5 5.4 225.7 4.8 226.1 4.2 C 226.5 3.7 227 3.5 227.8 3.5 C 228.5 3.5 229.1 3.7 229.5 4.3 C 229.8 4.8 230 5.5 230 6.2 C 230 7 229.8 7.6 229.4 8.2 C 229.1 8.7 228.5 9 227.7 9 Z M 228.7 6.2 C 228.7 5.1 228.4 4.5 227.8 4.5 C 227.1 4.5 226.8 5.1 226.8 6.2 C 226.8 7.4 227.1 7.9 227.8 7.9 C 228.4 7.9 228.7 7.4 228.7 6.2 C 228.7 6.2 228.7 6.2 228.7 6.2 Z M 232.3 7.7 L 232.3 8.8 L 231.5 10.1 L 231.1 10.1 L 231.7 8.9 L 231.1 8.9 L 231.1 7.7 L 232.3 7.7 Z M 237.5 3.5 C 238.6 3.5 239.2 3.9 239.5 4.7 C 239.5 4.7 238.5 5.1 238.5 5.1 C 238.3 4.6 238 4.4 237.6 4.4 C 237.1 4.4 236.8 4.6 236.8 4.9 C 236.8 5 236.9 5.1 237 5.2 C 237.1 5.3 237.3 5.4 237.6 5.5 C 238.1 5.6 238.5 5.7 238.8 5.8 C 239 5.9 239.3 6.1 239.4 6.3 C 239.6 6.6 239.7 6.9 239.7 7.2 C 239.7 7.7 239.5 8.1 239.1 8.4 C 238.8 8.8 238.2 9 237.5 9 C 236.9 9 236.5 8.8 236.1 8.6 C 235.7 8.3 235.5 8 235.3 7.5 C 235.3 7.5 236.5 7.2 236.5 7.2 C 236.6 7.7 237 8 237.6 8 C 237.9 8 238.1 7.9 238.2 7.8 C 238.4 7.7 238.4 7.5 238.4 7.4 C 238.4 7.2 238.4 7.1 238.2 7 C 238.1 6.9 237.9 6.9 237.5 6.8 C 236.8 6.6 236.3 6.5 236 6.2 C 235.8 6 235.6 5.6 235.6 5.1 C 235.6 4.7 235.8 4.3 236.1 3.9 C 236.5 3.6 236.9 3.5 237.5 3.5 C 237.5 3.5 237.5 3.5 237.5 3.5 Z M 242.8 9 C 242.1 9 241.6 8.7 241.2 8.1 C 240.8 7.6 240.6 7 240.6 6.2 C 240.6 5.4 240.8 4.8 241.2 4.2 C 241.6 3.7 242.1 3.5 242.9 3.5 C 243.6 3.5 244.2 3.7 244.6 4.3 C 244.9 4.8 245.1 5.5 245.1 6.2 C 245.1 7 244.9 7.6 244.5 8.2 C 244.2 8.7 243.6 9 242.8 9 Z M 243.8 6.2 C 243.8 5.1 243.5 4.5 242.9 4.5 C 242.2 4.5 241.9 5.1 241.9 6.2 C 241.9 7.4 242.2 7.9 242.9 7.9 C 243.5 7.9 243.8 7.4 243.8 6.2 C 243.8 6.2 243.8 6.2 243.8 6.2 Z M 250.1 4.6 L 247.6 4.6 L 247.6 5.8 L 249.5 5.8 L 249.5 6.8 L 247.6 6.8 L 247.6 8.9 L 246.3 8.9 L 246.3 3.5 L 250.1 3.5 L 250.1 4.6 Z M 252.3 3.5 L 252.3 8.9 L 251 8.9 L 251 3.5 L 252.3 3.5 Z M 256.3 3.5 L 257.9 8.9 L 256.6 8.9 L 256.3 7.8 L 254.5 7.8 L 254.2 8.9 L 253.1 8.9 L 254.8 3.5 L 256.3 3.5 Z M 254.8 6.8 L 256 6.8 L 255.4 4.9 L 254.8 6.8 Z M 265.3 6 L 265.3 8.9 C 265.3 8.9 264.74 8.87 264.7 8.9 C 264.7 8.7 264.6 8.5 264.6 8.3 C 264.2 8.7 263.7 9 263.1 9 C 262.4 9 261.9 8.7 261.5 8.2 C 261.1 7.7 260.9 7.1 260.9 6.3 C 260.9 5.4 261.1 4.7 261.5 4.2 C 261.9 3.7 262.5 3.5 263.2 3.5 C 263.8 3.5 264.3 3.6 264.6 4 C 265 4.3 265.2 4.7 265.3 5.3 C 265.3 5.3 264.1 5.4 264.1 5.4 C 264 4.8 263.7 4.5 263.2 4.5 C 262.9 4.5 262.6 4.6 262.4 4.9 C 262.3 5.2 262.2 5.7 262.2 6.2 C 262.2 6.8 262.3 7.2 262.5 7.5 C 262.6 7.8 262.9 7.9 263.3 7.9 C 263.5 7.9 263.7 7.9 263.9 7.7 C 264 7.6 264.1 7.3 264.1 7 C 264.12 7.01 263.1 7 263.1 7 L 263.1 6 L 265.3 6 Z M 270.4 4.6 L 267.9 4.6 L 267.9 5.6 L 269.9 5.6 L 269.9 6.7 L 267.9 6.7 L 267.9 7.8 L 270.4 7.8 L 270.4 8.9 L 266.6 8.9 L 266.6 3.5 L 270.4 3.5 L 270.4 4.6 Z M 275.6 3.5 L 275.6 8.9 L 274.5 8.9 C 274.5 8.9 272.44 5.27 272.4 5.3 C 272.4 5.4 272.4 5.4 272.4 5.4 C 272.5 5.5 272.5 5.6 272.5 5.7 C 272.46 5.68 272.5 8.9 272.5 8.9 L 271.5 8.9 L 271.5 3.5 L 272.8 3.5 C 272.8 3.5 274.65 6.68 274.7 6.7 C 274.6 6.5 274.6 6.4 274.6 6.3 C 274.63 6.33 274.6 3.5 274.6 3.5 L 275.6 3.5 Z M 277 3.5 C 277 3.5 278.61 3.54 278.6 3.5 C 279.3 3.5 279.8 3.6 280.1 3.8 C 280.4 4 280.7 4.3 281 4.7 C 281.2 5.1 281.4 5.6 281.4 6.2 C 281.4 7 281.1 7.6 280.7 8.1 C 280.2 8.6 279.6 8.9 278.8 8.9 C 278.82 8.87 277 8.9 277 8.9 L 277 3.5 Z M 278.2 4.5 L 278.2 7.9 C 278.2 7.9 278.72 7.87 278.7 7.9 C 279.2 7.9 279.5 7.7 279.7 7.4 C 280 7 280.1 6.6 280.1 6.2 C 280.1 5.8 280 5.5 279.9 5.3 C 279.8 5 279.6 4.8 279.4 4.7 C 279.2 4.6 279 4.5 278.7 4.5 C 278.74 4.52 278.2 4.5 278.2 4.5 Z M 283.7 3.5 L 283.7 8.9 L 282.5 8.9 L 282.5 3.5 L 283.7 3.5 Z M 289.1 3.5 L 287.5 8.9 L 286.1 8.9 L 284.5 3.5 L 285.9 3.5 L 286.9 7.4 L 288 3.5 L 289.1 3.5 Z M 293.7 4.6 L 291.2 4.6 L 291.2 5.6 L 293.2 5.6 L 293.2 6.7 L 291.2 6.7 L 291.2 7.8 L 293.7 7.8 L 293.7 8.9 L 289.9 8.9 L 289.9 3.5 L 293.7 3.5 L 293.7 4.6 Z M 295.9 7.7 L 295.9 8.8 L 295.1 10.1 L 294.7 10.1 L 295.3 8.9 L 294.7 8.9 L 294.7 7.7 L 295.9 7.7 Z M 302.1 3.5 L 303.8 8.9 L 302.4 8.9 L 302.1 7.8 L 300.4 7.8 L 300 8.9 L 298.9 8.9 L 300.6 3.5 L 302.1 3.5 Z M 300.7 6.8 L 301.8 6.8 L 301.2 4.9 L 300.7 6.8 Z M 307.6 3.5 L 307.6 4.6 L 306.3 4.6 L 306.3 8.9 L 305 8.9 L 305 4.6 L 303.7 4.6 L 303.7 3.5 L 307.6 3.5 Z M 312.8 3.5 C 312.8 3.5 312.83 7.34 312.8 7.3 C 312.8 7.9 312.7 8.3 312.4 8.6 C 312.2 8.8 311.8 9 311.2 9 C 310.9 9 310.6 8.9 310.3 8.9 C 310.3 8.9 310.3 7.8 310.3 7.8 C 310.6 7.9 310.8 7.9 311 7.9 C 311.1 7.9 311.2 7.9 311.3 7.8 C 311.4 7.8 311.5 7.7 311.5 7.6 C 311.6 7.5 311.6 7.4 311.6 7.2 C 311.59 7.19 311.6 3.5 311.6 3.5 L 312.8 3.5 Z M 316.7 3.5 L 318.3 8.9 L 317 8.9 L 316.7 7.8 L 314.9 7.8 L 314.6 8.9 L 313.5 8.9 L 315.2 3.5 L 316.7 3.5 Z M 315.2 6.8 L 316.4 6.8 L 315.8 4.9 L 315.2 6.8 Z M 320.9 3.5 C 321.9 3.5 322.6 3.9 322.9 4.7 C 322.9 4.7 321.9 5.1 321.9 5.1 C 321.7 4.6 321.4 4.4 320.9 4.4 C 320.4 4.4 320.2 4.6 320.2 4.9 C 320.2 5 320.2 5.1 320.3 5.2 C 320.4 5.3 320.6 5.4 321 5.5 C 321.5 5.6 321.9 5.7 322.2 5.8 C 322.4 5.9 322.6 6.1 322.8 6.3 C 323 6.6 323.1 6.9 323.1 7.2 C 323.1 7.7 322.9 8.1 322.5 8.4 C 322.1 8.8 321.6 9 320.9 9 C 320.3 9 319.8 8.8 319.5 8.6 C 319.1 8.3 318.8 8 318.7 7.5 C 318.7 7.5 319.9 7.2 319.9 7.2 C 320 7.7 320.3 8 320.9 8 C 321.2 8 321.4 7.9 321.6 7.8 C 321.7 7.7 321.8 7.5 321.8 7.4 C 321.8 7.2 321.7 7.1 321.6 7 C 321.5 6.9 321.2 6.9 320.9 6.8 C 320.2 6.6 319.7 6.5 319.4 6.2 C 319.1 6 319 5.6 319 5.1 C 319 4.7 319.1 4.3 319.5 3.9 C 319.8 3.6 320.3 3.5 320.9 3.5 C 320.9 3.5 320.9 3.5 320.9 3.5 Z M 326.6 8.9 L 325.2 4.5 L 325.2 8.9 L 324.2 8.9 L 324.2 3.5 L 326.1 3.5 L 327.1 6.7 L 328.1 3.5 L 330 3.5 L 330 8.9 L 328.8 8.9 L 328.8 4.5 L 327.4 8.9 L 326.6 8.9 Z M 332.6 3.5 L 332.6 8.9 L 331.4 8.9 L 331.4 3.5 L 332.6 3.5 Z M 338.1 3.5 L 338.1 8.9 L 337.1 8.9 C 337.1 8.9 334.98 5.27 335 5.3 C 335 5.4 335 5.4 335 5.4 C 335 5.5 335 5.6 335 5.7 C 335 5.68 335 8.9 335 8.9 L 334 8.9 L 334 3.5 L 335.4 3.5 C 335.4 3.5 337.19 6.68 337.2 6.7 C 337.2 6.5 337.2 6.4 337.2 6.3 C 337.17 6.33 337.2 3.5 337.2 3.5 L 338.1 3.5 Z M 343.3 4.6 L 340.8 4.6 L 340.8 5.6 L 342.8 5.6 L 342.8 6.7 L 340.8 6.7 L 340.8 7.8 L 343.3 7.8 L 343.3 8.9 L 339.5 8.9 L 339.5 3.5 L 343.3 3.5 L 343.3 4.6 Z M 348 6.8 L 348 8.9 L 346.7 8.9 L 346.7 3.5 C 346.7 3.5 349.06 3.54 349.1 3.5 C 349.5 3.5 349.8 3.6 350.1 3.7 C 350.4 3.8 350.6 4 350.8 4.2 C 350.9 4.5 351 4.8 351 5.1 C 351 5.8 350.7 6.2 350.1 6.5 C 350.09 6.51 351.1 8.9 351.1 8.9 L 349.7 8.9 L 348.9 6.8 L 348 6.8 Z M 348 4.5 L 348 5.8 C 348 5.8 348.74 5.85 348.7 5.8 C 349 5.8 349.2 5.8 349.3 5.8 C 349.4 5.8 349.5 5.7 349.6 5.6 C 349.7 5.4 349.7 5.3 349.7 5.1 C 349.7 5 349.7 4.9 349.6 4.7 C 349.5 4.6 349.4 4.6 349.3 4.5 C 349.2 4.5 349 4.5 348.7 4.5 C 348.72 4.49 348 4.5 348 4.5 Z M 354.2 9 C 353.5 9 352.9 8.7 352.5 8.1 C 352.1 7.6 351.9 7 351.9 6.2 C 351.9 5.4 352.1 4.8 352.5 4.2 C 352.9 3.7 353.5 3.5 354.2 3.5 C 355 3.5 355.5 3.7 355.9 4.3 C 356.3 4.8 356.5 5.5 356.5 6.2 C 356.5 7 356.3 7.6 355.9 8.2 C 355.5 8.7 354.9 9 354.2 9 Z M 355.2 6.2 C 355.2 5.1 354.9 4.5 354.2 4.5 C 353.6 4.5 353.2 5.1 353.2 6.2 C 353.2 7.4 353.6 7.9 354.2 7.9 C 354.9 7.9 355.2 7.4 355.2 6.2 C 355.2 6.2 355.2 6.2 355.2 6.2 Z M 359.3 3.5 C 360.3 3.5 361 3.9 361.3 4.7 C 361.3 4.7 360.2 5.1 360.2 5.1 C 360.1 4.6 359.8 4.4 359.3 4.4 C 358.8 4.4 358.6 4.6 358.6 4.9 C 358.6 5 358.6 5.1 358.7 5.2 C 358.8 5.3 359 5.4 359.4 5.5 C 359.9 5.6 360.3 5.7 360.6 5.8 C 360.8 5.9 361 6.1 361.2 6.3 C 361.4 6.6 361.5 6.9 361.5 7.2 C 361.5 7.7 361.3 8.1 360.9 8.4 C 360.5 8.8 360 9 359.2 9 C 358.7 9 358.2 8.8 357.9 8.6 C 357.5 8.3 357.2 8 357.1 7.5 C 357.1 7.5 358.3 7.2 358.3 7.2 C 358.4 7.7 358.7 8 359.3 8 C 359.6 8 359.8 7.9 360 7.8 C 360.1 7.7 360.2 7.5 360.2 7.4 C 360.2 7.2 360.1 7.1 360 7 C 359.9 6.9 359.6 6.9 359.3 6.8 C 358.6 6.6 358.1 6.5 357.8 6.2 C 357.5 6 357.4 5.6 357.4 5.1 C 357.4 4.7 357.5 4.3 357.9 3.9 C 358.2 3.6 358.7 3.5 359.3 3.5 C 359.3 3.5 359.3 3.5 359.3 3.5 Z M 366.4 4.6 L 363.9 4.6 L 363.9 5.6 L 365.9 5.6 L 365.9 6.7 L 363.9 6.7 L 363.9 7.8 L 366.4 7.8 L 366.4 8.9 L 362.6 8.9 L 362.6 3.5 L 366.4 3.5 L 366.4 4.6 Z M 372.2 8.9 L 370.8 4.5 L 370.8 8.9 L 369.8 8.9 L 369.8 3.5 L 371.7 3.5 L 372.7 6.7 L 373.7 3.5 L 375.6 3.5 L 375.6 8.9 L 374.3 8.9 L 374.3 4.5 L 373 8.9 L 372.2 8.9 Z M 379.6 3.5 L 381.3 8.9 L 379.9 8.9 L 379.6 7.8 L 377.9 7.8 L 377.5 8.9 L 376.5 8.9 L 378.2 3.5 L 379.6 3.5 Z M 378.2 6.8 L 379.3 6.8 L 378.8 4.9 L 378.2 6.8 Z M 383.4 6.8 L 383.4 8.9 L 382.2 8.9 L 382.2 3.5 C 382.2 3.5 384.51 3.54 384.5 3.5 C 384.9 3.5 385.3 3.6 385.6 3.7 C 385.8 3.8 386 4 386.2 4.2 C 386.4 4.5 386.5 4.8 386.5 5.1 C 386.5 5.8 386.2 6.2 385.5 6.5 C 385.54 6.51 386.5 8.9 386.5 8.9 L 385.1 8.9 L 384.3 6.8 L 383.4 6.8 Z M 383.4 4.5 L 383.4 5.8 C 383.4 5.8 384.19 5.85 384.2 5.8 C 384.4 5.8 384.6 5.8 384.7 5.8 C 384.9 5.8 385 5.7 385 5.6 C 385.1 5.4 385.2 5.3 385.2 5.1 C 385.2 5 385.1 4.9 385 4.7 C 385 4.6 384.9 4.6 384.8 4.5 C 384.6 4.5 384.5 4.5 384.2 4.5 C 384.17 4.49 383.4 4.5 383.4 4.5 Z M 391.1 3.5 L 391.1 4.6 L 389.8 4.6 L 389.8 8.9 L 388.5 8.9 L 388.5 4.6 L 387.2 4.6 L 387.2 3.5 L 391.1 3.5 Z M 393.2 3.5 L 393.2 8.9 L 392 8.9 L 392 3.5 L 393.2 3.5 Z M 398.7 3.5 L 398.7 8.9 L 397.7 8.9 C 397.7 8.9 395.57 5.27 395.6 5.3 C 395.6 5.4 395.6 5.4 395.6 5.4 C 395.6 5.5 395.6 5.6 395.6 5.7 C 395.59 5.68 395.6 8.9 395.6 8.9 L 394.6 8.9 L 394.6 3.5 L 396 3.5 C 396 3.5 397.78 6.68 397.8 6.7 C 397.8 6.5 397.8 6.4 397.8 6.3 C 397.76 6.33 397.8 3.5 397.8 3.5 L 398.7 3.5 Z M 403.9 4.6 L 401.4 4.6 L 401.4 5.6 L 403.4 5.6 L 403.4 6.7 L 401.4 6.7 L 401.4 7.8 L 403.9 7.8 L 403.9 8.9 L 400.1 8.9 L 400.1 3.5 L 403.9 3.5 L 403.9 4.6 Z M 408.8 4.5 L 406.1 7.9 L 408.9 7.9 L 408.9 8.9 L 404.6 8.9 L 404.6 8 L 407.3 4.5 L 404.8 4.5 L 404.8 3.5 L 408.8 3.5 L 408.8 4.5 Z " stroke="none" fill="#000"/>
  </g>
</svg>