<?xml version="1.0" standalone="no"?>
<!DOCTYPE svg PUBLIC "-//W3C//DTD SVG 1.1//EN" "http://www.w3.org/Graphics/SVG/1.1/DTD/svg11.dtd">
<svg xmlns="http://www.w3.org/2000/svg" version="1.1" width="310px" height="101px" viewBox="0 -10 310 101" style="top:-10px">
  <desc>DLSU Eco Car Team, napabilang sa siyam na finalist ng Shell Eco-marathon</desc>
  <defs/>
  <g id="Polygon14291">
    <path d="M 0.7 62.2 L 2.6 62.2 C 2.6 62.2 2.57 61.81 2.6 61.8 C 2.6 60.2 3 58.8 3.9 57.8 C 4.8 56.8 6.2 56.2 8 56.2 C 10.8 56.2 12.2 57.3 12.2 58.4 C 12.2 59.2 11.4 59.5 10.9 59.5 C 10.5 59.5 10.3 59.3 10.2 59.1 C 9.8 57.8 8.9 57 7.8 57 C 6.4 57 4.8 57.6 4.8 61.1 C 4.82 61.14 4.8 62.2 4.8 62.2 C 4.8 62.2 8.33 62.24 8.3 62.2 C 10.2 62.2 11.7 62 12.5 62 C 12.5 62 12.5 71.9 12.5 71.9 C 12.5 73.1 12.6 73.2 14.3 73.3 C 14.28 73.3 14.3 74 14.3 74 L 8.4 74 C 8.4 74 8.42 73.3 8.4 73.3 C 10.2 73.2 10.2 73.1 10.2 71.9 C 10.2 71.9 10.2 64.3 10.2 64.3 C 10.2 63.5 10.1 63.2 9.5 63.2 C 9.46 63.2 4.8 63.2 4.8 63.2 C 4.8 63.2 4.82 71.94 4.8 71.9 C 4.8 73.2 4.9 73.2 6.9 73.3 C 6.86 73.3 6.9 74 6.9 74 L 0.8 74 C 0.8 74 0.77 73.3 0.8 73.3 C 2.5 73.2 2.6 73.1 2.6 71.9 C 2.57 71.91 2.6 63.2 2.6 63.2 L 0.7 63.2 L 0.7 62.2 Z M 14.7 73.3 C 16.4 73.2 16.5 73.1 16.5 71.9 C 16.5 71.9 16.5 64.4 16.5 64.4 C 16.5 63.5 16.3 63.4 15.7 63.3 C 15.72 63.27 14.8 63.2 14.8 63.2 L 14.8 62.6 L 18.4 62 C 18.4 62 18.72 63.78 18.7 63.8 C 20.2 62.8 21.3 62 23.1 62 C 25.3 62 26.6 63.3 26.6 65.8 C 26.6 65.8 26.6 71.9 26.6 71.9 C 26.6 73.1 26.7 73.2 28.4 73.3 C 28.42 73.3 28.4 74 28.4 74 L 22.6 74 C 22.6 74 22.56 73.3 22.6 73.3 C 24.3 73.2 24.4 73.1 24.4 71.9 C 24.4 71.9 24.4 66.2 24.4 66.2 C 24.4 64.2 23.5 63.2 21.8 63.2 C 20.6 63.2 19.5 64 19 65 C 18.8 65.4 18.7 65.7 18.7 66.3 C 18.7 66.3 18.7 71.9 18.7 71.9 C 18.7 73.1 18.8 73.2 20.5 73.3 C 20.54 73.3 20.5 74 20.5 74 L 14.7 74 C 14.7 74 14.69 73.3 14.7 73.3 Z M 31.5 68 C 33.4 67.4 35.7 66.8 36.3 66.2 C 36.3 66.2 36.3 65.2 36.3 65.2 C 36.3 63.3 35.2 62.8 34.2 62.8 C 33.3 62.8 32.3 63.4 31.8 65.1 C 31.7 65.6 31.5 65.8 31 65.8 C 30.6 65.8 29.7 65.5 29.7 64.7 C 29.7 63.4 31.8 62 34.5 62 C 38.1 62 38.4 63.8 38.4 65.1 C 38.4 65.1 38.4 71 38.4 71 C 38.4 72.5 38.9 72.9 39.3 73 C 39.6 73.1 40.2 73.1 40.5 73 C 40.5 73 40.7 73.6 40.7 73.6 C 39.7 74 38.7 74.3 37.8 74.3 C 37 74.3 36.6 73.7 36.3 72.8 C 35.5 73.4 34.1 74.3 32.7 74.3 C 30.4 74.3 29.2 72.7 29.2 70.9 C 29.2 69.8 29.7 68.6 31.5 68 Z M 33.9 73 C 34.8 73 36.3 72.5 36.3 70.6 C 36.3 70.6 36.3 67.2 36.3 67.2 C 35.8 67.5 34.5 68 33.5 68.3 C 32.2 68.8 31.7 69.4 31.7 70.5 C 31.7 72 32.4 73 33.9 73 Z M 40.4 73.3 C 42.1 73.2 42.2 73.1 42.2 71.9 C 42.2 71.9 42.2 58.6 42.2 58.6 C 42.2 57.7 42 57.6 41.4 57.5 C 41.4 57.49 40.5 57.4 40.5 57.4 L 40.5 56.8 L 44.3 56.2 L 44.4 56.3 C 44.4 56.3 44.42 71.91 44.4 71.9 C 44.4 73.1 44.5 73.2 46.2 73.3 C 46.22 73.3 46.2 74 46.2 74 L 40.4 74 C 40.4 74 40.37 73.3 40.4 73.3 Z M 49.5 56.8 C 50.4 56.8 51 57.4 51 58.3 C 51 59.2 50.4 59.8 49.5 59.8 C 48.7 59.8 48.1 59.2 48.1 58.3 C 48.1 57.4 48.7 56.8 49.5 56.8 Z M 46.6 73.3 C 48.4 73.2 48.4 73.1 48.4 71.9 C 48.4 71.9 48.4 64.4 48.4 64.4 C 48.4 63.5 48.3 63.4 47.7 63.3 C 47.66 63.27 46.8 63.2 46.8 63.2 L 46.8 62.6 L 50.5 62 L 50.7 62.1 C 50.7 62.1 50.69 71.91 50.7 71.9 C 50.7 73.1 50.8 73.2 52.5 73.3 C 52.49 73.3 52.5 74 52.5 74 L 46.6 74 C 46.6 74 46.63 73.3 46.6 73.3 Z M 54 70 C 54.4 72 55.5 73.4 57.5 73.4 C 58.7 73.4 59.7 72.7 59.7 71.5 C 59.7 69.8 58.2 69.3 57.1 68.9 C 55.1 68.3 53.5 67.4 53.5 65.5 C 53.5 63.2 55.2 62 57.8 62 C 58.9 62 60.1 62.2 60.9 62.8 C 60.93 62.77 60.9 65.6 60.9 65.6 C 60.9 65.6 60.24 65.58 60.2 65.6 C 60.1 64.1 59.3 62.8 57.6 62.8 C 56.4 62.8 55.4 63.5 55.4 64.7 C 55.4 66.1 57 66.6 58 66.9 C 60.4 67.7 61.7 68.6 61.7 70.7 C 61.7 72.8 60.1 74.3 57.2 74.3 C 55.8 74.3 54.4 73.9 53.5 73.1 C 53.49 73.14 53.3 70 53.3 70 C 53.3 70 53.95 69.99 54 70 Z M 62.6 62.2 L 64.4 62.2 L 65.9 59.2 L 66.6 59.2 L 66.6 62.2 L 69.7 62.2 L 69.7 63.2 L 66.6 63.2 C 66.6 63.2 66.6 70.64 66.6 70.6 C 66.6 72.5 67.4 73 68.2 73 C 68.8 73 69.3 73 69.9 72.7 C 69.9 72.7 70.1 73.2 70.1 73.2 C 69.4 73.7 68.2 74.3 67 74.3 C 66.2 74.3 64.3 74 64.3 71.6 C 64.34 71.55 64.3 63.2 64.3 63.2 L 62.6 63.2 L 62.6 62.2 Z M 74.9 73.3 C 76.6 73.2 76.7 73.1 76.7 71.9 C 76.7 71.9 76.7 64.4 76.7 64.4 C 76.7 63.5 76.5 63.4 75.9 63.3 C 75.89 63.27 75 63.2 75 63.2 L 75 62.6 L 78.6 62 C 78.6 62 78.89 63.78 78.9 63.8 C 80.4 62.8 81.5 62 83.3 62 C 85.5 62 86.8 63.3 86.8 65.8 C 86.8 65.8 86.8 71.9 86.8 71.9 C 86.8 73.1 86.9 73.2 88.6 73.3 C 88.58 73.3 88.6 74 88.6 74 L 82.7 74 C 82.7 74 82.73 73.3 82.7 73.3 C 84.5 73.2 84.5 73.1 84.5 71.9 C 84.5 71.9 84.5 66.2 84.5 66.2 C 84.5 64.2 83.6 63.2 82 63.2 C 80.7 63.2 79.7 64 79.2 65 C 79 65.4 78.9 65.7 78.9 66.3 C 78.9 66.3 78.9 71.9 78.9 71.9 C 78.9 73.1 79 73.2 80.7 73.3 C 80.71 73.3 80.7 74 80.7 74 L 74.9 74 C 74.9 74 74.85 73.3 74.9 73.3 Z M 92 73.7 C 92 73.7 92 73.6 92 73.6 C 90.8 73.5 89.9 72.6 89.9 71.7 C 89.9 70.8 90.8 70.1 92.1 69.6 C 92.1 69.6 92.1 69.6 92.1 69.6 C 91 69.3 89.5 68.2 89.5 66 C 89.5 64.2 90.8 62 94.5 62 C 95.6 62 96.9 62.2 97.6 62.7 C 97.56 62.7 100.6 61.7 100.6 61.7 L 100.8 61.9 L 100.3 63.4 C 100.3 63.4 98.45 63.73 98.4 63.7 C 98.9 64.1 99.2 65 99.2 66 C 99.2 68.9 96.6 69.9 94.3 69.9 C 94.1 69.9 93.5 69.9 93.1 69.8 C 92.8 69.9 91.9 70.3 91.9 71 C 91.9 71.5 92.1 72 93.9 72 C 93.9 72 95.8 72 95.8 72 C 98.3 72 100.4 72.9 100.4 75.5 C 100.4 77 99.6 78.2 98.5 78.8 C 97.4 79.5 95.9 79.8 94.4 79.8 C 91.6 79.8 89.2 78.7 89.2 76.3 C 89.2 74.6 91 74 92 73.7 Z M 95 79 C 96.7 79 98.4 78.1 98.4 76.1 C 98.4 74.3 96.8 73.8 94.7 73.8 C 93.6 73.8 92.8 74 92.3 74.4 C 91.7 74.8 91.5 75.4 91.5 76.2 C 91.5 77.9 92.9 79 95 79 Z M 94.4 69.1 C 95.8 69.1 96.9 68 96.9 66 C 96.9 63.7 95.6 62.8 94.5 62.8 C 93.2 62.8 91.9 63.6 91.9 66 C 91.9 68 93.1 69.1 94.4 69.1 Z M 106.6 69.1 C 107.2 71.8 108.7 73.5 111 73.5 C 113.1 73.5 114.4 72.3 114.4 70.2 C 114.4 68.1 112.1 67 111.1 66.6 C 111.1 66.6 110.7 66.4 110.7 66.4 C 108.1 65.5 106.1 64.2 106.1 61.7 C 106.1 58.5 108.7 57 111.6 57 C 113.3 57 114.9 57.4 115.7 58.1 C 115.73 58.09 115.7 61.5 115.7 61.5 C 115.7 61.5 114.98 61.47 115 61.5 C 114.6 59 113.4 57.9 111.4 57.9 C 109.4 57.9 108.3 59.2 108.3 60.9 C 108.3 62.4 109.7 63.4 111.3 64 C 111.3 64 112 64.3 112 64.3 C 114.8 65.3 116.8 66.7 116.8 69.5 C 116.8 71.9 115.1 74.4 110.8 74.4 C 109.1 74.4 107.2 73.9 106.1 72.9 C 106.1 72.92 105.9 69.1 105.9 69.1 C 105.9 69.1 106.63 69.08 106.6 69.1 Z M 117.1 73.3 C 118.8 73.2 118.9 73.1 118.9 71.9 C 118.9 71.9 118.9 58.6 118.9 58.6 C 118.9 57.7 118.8 57.6 118.1 57.5 C 118.15 57.51 117.2 57.4 117.2 57.4 L 117.2 56.8 L 121 56.2 L 121.1 56.3 C 121.1 56.3 121.15 63.78 121.1 63.8 C 122.7 62.8 123.7 62 125.5 62 C 127.7 62 129 63.3 129 65.8 C 129 65.8 129 71.9 129 71.9 C 129 73.1 129.2 73.2 130.8 73.3 C 130.85 73.3 130.8 74 130.8 74 L 125 74 C 125 74 124.99 73.3 125 73.3 C 126.7 73.2 126.8 73.1 126.8 71.9 C 126.8 71.9 126.8 66.2 126.8 66.2 C 126.8 64.2 125.9 63.2 124.3 63.2 C 123 63.2 121.9 64 121.4 65 C 121.2 65.4 121.2 65.7 121.2 66.3 C 121.2 66.3 121.2 71.9 121.2 71.9 C 121.2 73.1 121.3 73.2 123 73.3 C 122.97 73.3 123 74 123 74 L 117.1 74 C 117.1 74 117.14 73.3 117.1 73.3 Z M 137.2 62 C 141.6 62 142 65.4 142 66.8 C 142 67.6 141.6 67.7 141.1 67.7 C 141.1 67.7 134.2 67.7 134.2 67.7 C 134.1 70.2 134.7 73.1 137.7 73.1 C 139.6 73.1 140.5 71.9 141.2 70.5 C 141.2 70.5 141.9 70.9 141.9 70.9 C 141.2 72.8 139.9 74.3 137.2 74.3 C 133.3 74.3 131.7 72 131.7 68.2 C 131.7 64.6 133.4 62 137.2 62 Z M 138.7 66.8 C 139.4 66.8 139.5 66.5 139.5 66 C 139.5 65.1 139.3 62.8 137 62.8 C 134.5 62.8 134.2 65.8 134.2 66.8 C 134.2 66.8 138.7 66.8 138.7 66.8 Z M 142.6 73.3 C 144.3 73.2 144.4 73.1 144.4 71.9 C 144.4 71.9 144.4 58.6 144.4 58.6 C 144.4 57.7 144.2 57.6 143.6 57.5 C 143.61 57.49 142.7 57.4 142.7 57.4 L 142.7 56.8 L 146.5 56.2 L 146.6 56.3 C 146.6 56.3 146.64 71.91 146.6 71.9 C 146.6 73.1 146.7 73.2 148.4 73.3 C 148.44 73.3 148.4 74 148.4 74 L 142.6 74 C 142.6 74 142.58 73.3 142.6 73.3 Z M 148.6 73.3 C 150.3 73.2 150.4 73.1 150.4 71.9 C 150.4 71.9 150.4 58.6 150.4 58.6 C 150.4 57.7 150.2 57.6 149.6 57.5 C 149.59 57.49 148.7 57.4 148.7 57.4 L 148.7 56.8 L 152.4 56.2 L 152.6 56.3 C 152.6 56.3 152.61 71.91 152.6 71.9 C 152.6 73.1 152.7 73.2 154.4 73.3 C 154.41 73.3 154.4 74 154.4 74 L 148.6 74 C 148.6 74 148.56 73.3 148.6 73.3 Z M 159.6 73.3 C 161.7 73.2 161.7 73.1 161.7 71.8 C 161.7 71.8 161.7 59.6 161.7 59.6 C 161.7 58.3 161.7 58.2 159.6 58.1 C 159.57 58.09 159.6 57.4 159.6 57.4 L 171.7 57.4 L 171.7 61.3 C 171.7 61.3 170.97 61.33 171 61.3 C 170.6 58.8 170.1 58.2 167.3 58.2 C 167.3 58.2 165 58.2 165 58.2 C 164.2 58.2 164.1 58.3 164.1 59.1 C 164.11 59.1 164.1 64.9 164.1 64.9 C 164.1 64.9 167.47 64.9 167.5 64.9 C 169.5 64.9 169.6 64.3 169.8 62.8 C 169.82 62.84 170.5 62.8 170.5 62.8 L 170.5 67.9 C 170.5 67.9 169.82 67.9 169.8 67.9 C 169.6 66.4 169.5 65.8 167.5 65.8 C 167.47 65.82 164.1 65.8 164.1 65.8 C 164.1 65.8 164.11 71.12 164.1 71.1 C 164.1 72.3 164.2 72.7 164.7 72.9 C 165.2 73.1 166.1 73.2 167.2 73.2 C 170.2 73.2 171.3 72.8 171.9 69.8 C 171.86 69.85 172.6 69.8 172.6 69.8 L 172.3 74 L 159.6 74 C 159.6 74 159.57 73.3 159.6 73.3 Z M 179.4 62 C 182 62 183.6 63.2 183.6 64.3 C 183.6 65.2 182.7 65.5 182.2 65.5 C 181.7 65.5 181.6 65.3 181.4 64.9 C 181 63.6 180.3 62.8 179.2 62.8 C 177.5 62.8 176.1 64.2 176.1 67.8 C 176.1 70.1 176.8 73 179.6 73 C 181.4 73 182.3 72.2 183.1 70.5 C 183.1 70.5 183.8 70.8 183.8 70.8 C 183.1 73.4 180.8 74.3 179.2 74.3 C 175.6 74.3 173.6 72.2 173.6 68.2 C 173.6 65 175.1 62 179.4 62 Z M 190.5 62 C 194.4 62 196.3 64.2 196.3 68.1 C 196.3 72 194.4 74.3 190.5 74.3 C 186.7 74.3 184.8 72 184.8 68.1 C 184.8 64.2 186.7 62 190.5 62 Z M 190.5 73.4 C 192.7 73.4 193.8 71.4 193.8 68.1 C 193.8 64.8 192.7 62.8 190.5 62.8 C 188.3 62.8 187.3 64.8 187.3 68.1 C 187.3 71.4 188.3 73.4 190.5 73.4 Z M 198.5 67.1 L 204.4 67.1 L 204.4 68.8 L 198.5 68.8 L 198.5 67.1 Z M 206.2 73.3 C 207.9 73.2 208 73.1 208 71.9 C 208 71.9 208 64.4 208 64.4 C 208 63.5 207.8 63.4 207.2 63.3 C 207.21 63.27 206.3 63.2 206.3 63.2 L 206.3 62.6 L 210 62 C 210 62 210.24 63.78 210.2 63.8 C 211.1 63.2 212.6 62 214.4 62 C 216.1 62 217 62.7 217.6 63.8 C 218.4 63.3 219.9 62 221.8 62 C 224.1 62 225.4 63.3 225.4 65.8 C 225.4 65.8 225.4 71.9 225.4 71.9 C 225.4 73.1 225.5 73.2 227.2 73.3 C 227.2 73.3 227.2 74 227.2 74 L 221.3 74 C 221.3 74 221.35 73.3 221.3 73.3 C 223.1 73.2 223.1 73.1 223.1 71.9 C 223.1 71.9 223.1 66.2 223.1 66.2 C 223.1 64.1 222.2 63.2 220.7 63.2 C 219.4 63.2 218.3 64 218 65 C 217.8 65.4 217.8 65.7 217.8 66.3 C 217.8 66.3 217.8 71.9 217.8 71.9 C 217.8 73.1 217.9 73.2 219.6 73.3 C 219.62 73.3 219.6 74 219.6 74 L 213.8 74 C 213.8 74 213.76 73.3 213.8 73.3 C 215.5 73.2 215.6 73.1 215.6 71.9 C 215.6 71.9 215.6 66.2 215.6 66.2 C 215.6 64.8 215.3 63.2 213.3 63.2 C 211.9 63.2 210.9 64.1 210.4 65 C 210.3 65.4 210.2 65.7 210.2 66.3 C 210.2 66.3 210.2 71.9 210.2 71.9 C 210.2 73.1 210.3 73.2 212 73.3 C 212.04 73.3 212 74 212 74 L 206.2 74 C 206.2 74 206.18 73.3 206.2 73.3 Z M 230.3 68 C 232.1 67.4 234.5 66.8 235.1 66.2 C 235.1 66.2 235.1 65.2 235.1 65.2 C 235.1 63.3 234 62.8 233 62.8 C 232.1 62.8 231.1 63.4 230.6 65.1 C 230.4 65.6 230.3 65.8 229.8 65.8 C 229.3 65.8 228.5 65.5 228.5 64.7 C 228.5 63.4 230.6 62 233.3 62 C 236.9 62 237.2 63.8 237.2 65.1 C 237.2 65.1 237.2 71 237.2 71 C 237.2 72.5 237.6 72.9 238.1 73 C 238.4 73.1 239 73.1 239.3 73 C 239.3 73 239.4 73.6 239.4 73.6 C 238.5 74 237.5 74.3 236.6 74.3 C 235.8 74.3 235.4 73.7 235.1 72.8 C 234.3 73.4 232.9 74.3 231.5 74.3 C 229.2 74.3 228 72.7 228 70.9 C 228 69.8 228.5 68.6 230.3 68 Z M 232.7 73 C 233.6 73 235.1 72.5 235.1 70.6 C 235.1 70.6 235.1 67.2 235.1 67.2 C 234.5 67.5 233.3 68 232.3 68.3 C 231 68.8 230.4 69.4 230.4 70.5 C 230.4 72 231.2 73 232.7 73 Z M 239.4 73.3 C 241.1 73.2 241.2 73.1 241.2 71.9 C 241.2 71.9 241.2 64.4 241.2 64.4 C 241.2 63.5 241.1 63.4 240.5 63.3 C 240.48 63.27 239.6 63.2 239.6 63.2 L 239.6 62.6 L 243.2 62 C 243.2 62 243.5 63.87 243.5 63.9 C 245.1 62.5 245.8 62 246.7 62 C 247.6 62 247.9 62.6 247.9 63.1 C 247.9 63.9 247.4 64.5 246.8 64.5 C 246.7 64.5 246.5 64.4 246.4 64.4 C 245.7 64 245.3 63.8 244.9 63.8 C 244.3 63.8 243.5 64.4 243.5 66.3 C 243.5 66.3 243.5 71.9 243.5 71.9 C 243.5 73.1 243.6 73.2 245.8 73.3 C 245.78 73.3 245.8 74 245.8 74 L 239.4 74 C 239.4 74 239.44 73.3 239.4 73.3 Z M 250.5 68 C 252.4 67.4 254.7 66.8 255.3 66.2 C 255.3 66.2 255.3 65.2 255.3 65.2 C 255.3 63.3 254.2 62.8 253.2 62.8 C 252.3 62.8 251.3 63.4 250.8 65.1 C 250.7 65.6 250.5 65.8 250 65.8 C 249.5 65.8 248.7 65.5 248.7 64.7 C 248.7 63.4 250.8 62 253.5 62 C 257.1 62 257.4 63.8 257.4 65.1 C 257.4 65.1 257.4 71 257.4 71 C 257.4 72.5 257.9 72.9 258.3 73 C 258.6 73.1 259.2 73.1 259.5 73 C 259.5 73 259.7 73.6 259.7 73.6 C 258.7 74 257.7 74.3 256.8 74.3 C 256 74.3 255.6 73.7 255.3 72.8 C 254.5 73.4 253.1 74.3 251.7 74.3 C 249.4 74.3 248.2 72.7 248.2 70.9 C 248.2 69.8 248.7 68.6 250.5 68 Z M 252.9 73 C 253.8 73 255.3 72.5 255.3 70.6 C 255.3 70.6 255.3 67.2 255.3 67.2 C 254.8 67.5 253.5 68 252.5 68.3 C 251.2 68.8 250.7 69.4 250.7 70.5 C 250.7 72 251.4 73 252.9 73 Z M 259.6 62.2 L 261.5 62.2 L 262.9 59.2 L 263.6 59.2 L 263.6 62.2 L 266.7 62.2 L 266.7 63.2 L 263.6 63.2 C 263.6 63.2 263.61 70.64 263.6 70.6 C 263.6 72.5 264.4 73 265.2 73 C 265.8 73 266.3 73 266.9 72.7 C 266.9 72.7 267.1 73.2 267.1 73.2 C 266.4 73.7 265.2 74.3 264 74.3 C 263.2 74.3 261.4 74 261.4 71.6 C 261.35 71.55 261.4 63.2 261.4 63.2 L 259.6 63.2 L 259.6 62.2 Z M 266.9 73.3 C 268.6 73.2 268.7 73.1 268.7 71.9 C 268.7 71.9 268.7 58.6 268.7 58.6 C 268.7 57.7 268.6 57.6 267.9 57.5 C 267.93 57.51 267 57.4 267 57.4 L 267 56.8 L 270.8 56.2 L 270.9 56.3 C 270.9 56.3 270.93 63.78 270.9 63.8 C 272.4 62.8 273.5 62 275.3 62 C 277.5 62 278.8 63.3 278.8 65.8 C 278.8 65.8 278.8 71.9 278.8 71.9 C 278.8 73.1 279 73.2 280.6 73.3 C 280.63 73.3 280.6 74 280.6 74 L 274.8 74 C 274.8 74 274.77 73.3 274.8 73.3 C 276.5 73.2 276.6 73.1 276.6 71.9 C 276.6 71.9 276.6 66.2 276.6 66.2 C 276.6 64.2 275.7 63.2 274.1 63.2 C 272.8 63.2 271.7 64 271.2 65 C 271 65.4 271 65.7 271 66.3 C 271 66.3 271 71.9 271 71.9 C 271 73.1 271.1 73.2 272.8 73.3 C 272.75 73.3 272.8 74 272.8 74 L 266.9 74 C 266.9 74 266.92 73.3 266.9 73.3 Z M 287.2 62 C 291.1 62 293 64.2 293 68.1 C 293 72 291.1 74.3 287.2 74.3 C 283.3 74.3 281.4 72 281.4 68.1 C 281.4 64.2 283.3 62 287.2 62 Z M 287.2 73.4 C 289.4 73.4 290.5 71.4 290.5 68.1 C 290.5 64.8 289.4 62.8 287.2 62.8 C 285 62.8 283.9 64.8 283.9 68.1 C 283.9 71.4 285 73.4 287.2 73.4 Z M 294.2 73.3 C 295.9 73.2 296 73.1 296 71.9 C 296 71.9 296 64.4 296 64.4 C 296 63.5 295.8 63.4 295.2 63.3 C 295.19 63.27 294.3 63.2 294.3 63.2 L 294.3 62.6 L 297.9 62 C 297.9 62 298.19 63.78 298.2 63.8 C 299.7 62.8 300.8 62 302.6 62 C 304.8 62 306.1 63.3 306.1 65.8 C 306.1 65.8 306.1 71.9 306.1 71.9 C 306.1 73.1 306.2 73.2 307.9 73.3 C 307.89 73.3 307.9 74 307.9 74 L 302 74 C 302 74 302.03 73.3 302 73.3 C 303.8 73.2 303.8 73.1 303.8 71.9 C 303.8 71.9 303.8 66.2 303.8 66.2 C 303.8 64.2 302.9 63.2 301.3 63.2 C 300 63.2 299 64 298.5 65 C 298.3 65.4 298.2 65.7 298.2 66.3 C 298.2 66.3 298.2 71.9 298.2 71.9 C 298.2 73.1 298.3 73.2 300 73.3 C 300.02 73.3 300 74 300 74 L 294.2 74 C 294.2 74 294.16 73.3 294.2 73.3 Z " stroke="none" fill="#000"/>
  </g>
  <g id="Polygon14290">
    <path d="M 0.8 45.3 C 2.5 45.2 2.6 45.1 2.6 43.9 C 2.6 43.9 2.6 36.4 2.6 36.4 C 2.6 35.5 2.4 35.4 1.8 35.3 C 1.8 35.27 0.9 35.2 0.9 35.2 L 0.9 34.6 L 4.5 34 C 4.5 34 4.8 35.78 4.8 35.8 C 6.3 34.8 7.4 34 9.2 34 C 11.4 34 12.7 35.3 12.7 37.8 C 12.7 37.8 12.7 43.9 12.7 43.9 C 12.7 45.1 12.8 45.2 14.5 45.3 C 14.5 45.3 14.5 46 14.5 46 L 8.6 46 C 8.6 46 8.64 45.3 8.6 45.3 C 10.4 45.2 10.4 45.1 10.4 43.9 C 10.4 43.9 10.4 38.2 10.4 38.2 C 10.4 36.2 9.6 35.2 7.9 35.2 C 6.6 35.2 5.6 36 5.1 37 C 4.9 37.4 4.8 37.7 4.8 38.3 C 4.8 38.3 4.8 43.9 4.8 43.9 C 4.8 45.1 4.9 45.2 6.6 45.3 C 6.62 45.3 6.6 46 6.6 46 L 0.8 46 C 0.8 46 0.77 45.3 0.8 45.3 Z M 17.5 40 C 19.4 39.4 21.8 38.8 22.4 38.2 C 22.4 38.2 22.4 37.2 22.4 37.2 C 22.4 35.3 21.3 34.8 20.3 34.8 C 19.4 34.8 18.4 35.4 17.9 37.1 C 17.7 37.6 17.6 37.8 17.1 37.8 C 16.6 37.8 15.7 37.5 15.7 36.7 C 15.7 35.4 17.9 34 20.6 34 C 24.2 34 24.5 35.8 24.5 37.1 C 24.5 37.1 24.5 43 24.5 43 C 24.5 44.5 24.9 44.9 25.4 45 C 25.7 45.1 26.3 45.1 26.6 45 C 26.6 45 26.7 45.6 26.7 45.6 C 25.8 46 24.8 46.3 23.9 46.3 C 23.1 46.3 22.7 45.7 22.3 44.8 C 21.6 45.4 20.2 46.3 18.8 46.3 C 16.5 46.3 15.3 44.7 15.3 42.9 C 15.3 41.8 15.8 40.6 17.5 40 Z M 19.9 45 C 20.9 45 22.4 44.5 22.4 42.6 C 22.4 42.6 22.4 39.2 22.4 39.2 C 21.8 39.5 20.6 40 19.6 40.3 C 18.3 40.8 17.7 41.4 17.7 42.5 C 17.7 44 18.5 45 19.9 45 Z M 28.4 49.4 C 28.4 49.4 28.4 36.4 28.4 36.4 C 28.4 35.5 28.2 35.4 27.6 35.3 C 27.6 35.27 26.7 35.2 26.7 35.2 L 26.7 34.6 L 30.3 34 C 30.3 34 30.62 35.73 30.6 35.7 C 31.6 35.1 33 34 34.7 34 C 39.1 34 39.4 38.2 39.4 39.9 C 39.4 44.8 36.6 46.3 33.4 46.3 C 32.3 46.3 31.1 46 30.6 45.7 C 30.6 45.7 30.6 49.4 30.6 49.4 C 30.6 50.7 30.8 50.7 32.8 50.8 C 32.78 50.82 32.8 51.5 32.8 51.5 L 26.6 51.5 C 26.6 51.5 26.57 50.82 26.6 50.8 C 28.2 50.7 28.4 50.7 28.4 49.4 Z M 30.8 43.7 C 31.2 44.8 32.1 45.4 33.4 45.4 C 35.8 45.4 36.9 43.5 36.9 40 C 36.9 35.9 34.8 35.2 33.8 35.2 C 32.5 35.2 31.5 35.8 30.9 36.9 C 30.7 37.4 30.6 37.7 30.6 38.3 C 30.6 38.3 30.6 42.2 30.6 42.2 C 30.6 42.8 30.6 43.3 30.8 43.7 Z M 43.2 40 C 45.1 39.4 47.5 38.8 48.1 38.2 C 48.1 38.2 48.1 37.2 48.1 37.2 C 48.1 35.3 47 34.8 46 34.8 C 45.1 34.8 44.1 35.4 43.6 37.1 C 43.4 37.6 43.3 37.8 42.8 37.8 C 42.3 37.8 41.4 37.5 41.4 36.7 C 41.4 35.4 43.6 34 46.3 34 C 49.9 34 50.2 35.8 50.2 37.1 C 50.2 37.1 50.2 43 50.2 43 C 50.2 44.5 50.6 44.9 51.1 45 C 51.4 45.1 52 45.1 52.3 45 C 52.3 45 52.4 45.6 52.4 45.6 C 51.5 46 50.5 46.3 49.6 46.3 C 48.8 46.3 48.4 45.7 48 44.8 C 47.3 45.4 45.9 46.3 44.5 46.3 C 42.2 46.3 41 44.7 41 42.9 C 41 41.8 41.5 40.6 43.2 40 Z M 45.6 45 C 46.6 45 48.1 44.5 48.1 42.6 C 48.1 42.6 48.1 39.2 48.1 39.2 C 47.5 39.5 46.3 40 45.3 40.3 C 44 40.8 43.4 41.4 43.4 42.5 C 43.4 44 44.2 45 45.6 45 Z M 52.2 28.8 L 55.9 28.2 L 56.1 28.3 C 56.1 28.3 56.09 35.66 56.1 35.7 C 57 35.1 58.4 34 60.2 34 C 64.5 34 64.8 38.4 64.8 39.9 C 64.8 44.8 62.1 46.3 58.9 46.3 C 57.1 46.3 56.1 45.8 55.2 45.4 C 55.22 45.35 54.3 46.3 54.3 46.3 L 53.8 46.1 C 53.8 46.1 53.83 30.59 53.8 30.6 C 53.8 29.7 53.7 29.6 53.1 29.5 C 53.06 29.49 52.2 29.4 52.2 29.4 L 52.2 28.8 Z M 56.3 43.6 C 56.7 44.8 57.6 45.4 58.9 45.4 C 61.3 45.4 62.4 43.5 62.4 40 C 62.4 35.8 60.2 35.2 59.3 35.2 C 57.9 35.2 56.9 35.8 56.3 36.9 C 56.1 37.3 56.1 37.7 56.1 38.3 C 56.1 38.3 56.1 42.1 56.1 42.1 C 56.1 42.7 56.1 43.2 56.3 43.6 Z M 69 28.8 C 69.8 28.8 70.4 29.4 70.4 30.3 C 70.4 31.2 69.8 31.8 69 31.8 C 68.1 31.8 67.5 31.2 67.5 30.3 C 67.5 29.4 68.1 28.8 69 28.8 Z M 66.1 45.3 C 67.8 45.2 67.9 45.1 67.9 43.9 C 67.9 43.9 67.9 36.4 67.9 36.4 C 67.9 35.5 67.7 35.4 67.1 35.3 C 67.1 35.27 66.2 35.2 66.2 35.2 L 66.2 34.6 L 70 34 L 70.1 34.1 C 70.1 34.1 70.13 43.91 70.1 43.9 C 70.1 45.1 70.2 45.2 71.9 45.3 C 71.93 45.3 71.9 46 71.9 46 L 66.1 46 C 66.1 46 66.07 45.3 66.1 45.3 Z M 72 45.3 C 73.8 45.2 73.8 45.1 73.8 43.9 C 73.8 43.9 73.8 30.6 73.8 30.6 C 73.8 29.7 73.7 29.6 73.1 29.5 C 73.08 29.49 72.2 29.4 72.2 29.4 L 72.2 28.8 L 75.9 28.2 L 76.1 28.3 C 76.1 28.3 76.1 43.91 76.1 43.9 C 76.1 45.1 76.2 45.2 77.9 45.3 C 77.9 45.3 77.9 46 77.9 46 L 72 46 C 72 46 72.05 45.3 72 45.3 Z M 81 40 C 82.8 39.4 85.2 38.8 85.8 38.2 C 85.8 38.2 85.8 37.2 85.8 37.2 C 85.8 35.3 84.7 34.8 83.7 34.8 C 82.8 34.8 81.8 35.4 81.3 37.1 C 81.1 37.6 81 37.8 80.5 37.8 C 80 37.8 79.2 37.5 79.2 36.7 C 79.2 35.4 81.3 34 84 34 C 87.6 34 87.9 35.8 87.9 37.1 C 87.9 37.1 87.9 43 87.9 43 C 87.9 44.5 88.3 44.9 88.8 45 C 89.1 45.1 89.7 45.1 90 45 C 90 45 90.1 45.6 90.1 45.6 C 89.2 46 88.2 46.3 87.3 46.3 C 86.5 46.3 86.1 45.7 85.8 44.8 C 85 45.4 83.6 46.3 82.2 46.3 C 79.9 46.3 78.7 44.7 78.7 42.9 C 78.7 41.8 79.2 40.6 81 40 Z M 83.4 45 C 84.3 45 85.8 44.5 85.8 42.6 C 85.8 42.6 85.8 39.2 85.8 39.2 C 85.2 39.5 84 40 83 40.3 C 81.7 40.8 81.1 41.4 81.1 42.5 C 81.1 44 81.9 45 83.4 45 Z M 90.1 45.3 C 91.9 45.2 91.9 45.1 91.9 43.9 C 91.9 43.9 91.9 36.4 91.9 36.4 C 91.9 35.5 91.8 35.4 91.2 35.3 C 91.17 35.27 90.3 35.2 90.3 35.2 L 90.3 34.6 L 93.8 34 C 93.8 34 94.17 35.78 94.2 35.8 C 95.7 34.8 96.8 34 98.5 34 C 100.8 34 102.1 35.3 102.1 37.8 C 102.1 37.8 102.1 43.9 102.1 43.9 C 102.1 45.1 102.2 45.2 103.9 45.3 C 103.87 45.3 103.9 46 103.9 46 L 98 46 C 98 46 98.01 45.3 98 45.3 C 99.7 45.2 99.8 45.1 99.8 43.9 C 99.8 43.9 99.8 38.2 99.8 38.2 C 99.8 36.2 98.9 35.2 97.3 35.2 C 96 35.2 94.9 36 94.4 37 C 94.2 37.4 94.2 37.7 94.2 38.3 C 94.2 38.3 94.2 43.9 94.2 43.9 C 94.2 45.1 94.3 45.2 96 45.3 C 96 45.3 96 46 96 46 L 90.1 46 C 90.1 46 90.14 45.3 90.1 45.3 Z M 107.3 45.7 C 107.3 45.7 107.3 45.6 107.3 45.6 C 106.1 45.5 105.2 44.6 105.2 43.7 C 105.2 42.8 106.1 42.1 107.4 41.6 C 107.4 41.6 107.4 41.6 107.4 41.6 C 106.3 41.3 104.8 40.2 104.8 38 C 104.8 36.2 106.1 34 109.7 34 C 110.9 34 112.2 34.2 112.8 34.7 C 112.85 34.7 115.9 33.7 115.9 33.7 L 116.1 33.9 L 115.6 35.4 C 115.6 35.4 113.73 35.73 113.7 35.7 C 114.1 36.1 114.5 37 114.5 38 C 114.5 40.9 111.9 41.9 109.6 41.9 C 109.3 41.9 108.8 41.9 108.4 41.8 C 108.1 41.9 107.2 42.3 107.2 43 C 107.2 43.5 107.4 44 109.1 44 C 109.1 44 111.1 44 111.1 44 C 113.6 44 115.7 44.9 115.7 47.5 C 115.7 49 114.9 50.2 113.8 50.8 C 112.7 51.5 111.1 51.8 109.7 51.8 C 106.9 51.8 104.5 50.7 104.5 48.3 C 104.5 46.6 106.2 46 107.3 45.7 Z M 110.3 51 C 112 51 113.7 50.1 113.7 48.1 C 113.7 46.3 112.1 45.8 110 45.8 C 108.9 45.8 108.1 46 107.5 46.4 C 107 46.8 106.8 47.4 106.8 48.2 C 106.8 49.9 108.2 51 110.3 51 Z M 109.7 41.1 C 111.1 41.1 112.1 40 112.1 38 C 112.1 35.7 110.9 34.8 109.7 34.8 C 108.5 34.8 107.2 35.6 107.2 38 C 107.2 40 108.4 41.1 109.7 41.1 Z M 121.8 42 C 122.3 44 123.3 45.4 125.3 45.4 C 126.5 45.4 127.5 44.7 127.5 43.5 C 127.5 41.8 126 41.3 124.9 40.9 C 122.9 40.3 121.3 39.4 121.3 37.5 C 121.3 35.2 123.1 34 125.7 34 C 126.7 34 128 34.2 128.8 34.8 C 128.76 34.77 128.8 37.6 128.8 37.6 C 128.8 37.6 128.06 37.58 128.1 37.6 C 127.9 36.1 127.1 34.8 125.4 34.8 C 124.2 34.8 123.2 35.5 123.2 36.7 C 123.2 38.1 124.8 38.6 125.8 38.9 C 128.3 39.7 129.5 40.6 129.5 42.7 C 129.5 44.8 127.9 46.3 125.1 46.3 C 123.6 46.3 122.2 45.9 121.3 45.1 C 121.32 45.14 121.1 42 121.1 42 C 121.1 42 121.77 41.99 121.8 42 Z M 133.1 40 C 135 39.4 137.3 38.8 137.9 38.2 C 137.9 38.2 137.9 37.2 137.9 37.2 C 137.9 35.3 136.8 34.8 135.9 34.8 C 134.9 34.8 133.9 35.4 133.4 37.1 C 133.3 37.6 133.1 37.8 132.6 37.8 C 132.2 37.8 131.3 37.5 131.3 36.7 C 131.3 35.4 133.4 34 136.1 34 C 139.8 34 140.1 35.8 140.1 37.1 C 140.1 37.1 140.1 43 140.1 43 C 140.1 44.5 140.5 44.9 140.9 45 C 141.3 45.1 141.8 45.1 142.1 45 C 142.1 45 142.3 45.6 142.3 45.6 C 141.4 46 140.3 46.3 139.5 46.3 C 138.6 46.3 138.2 45.7 137.9 44.8 C 137.1 45.4 135.7 46.3 134.3 46.3 C 132.1 46.3 130.9 44.7 130.9 42.9 C 130.9 41.8 131.4 40.6 133.1 40 Z M 135.5 45 C 136.4 45 137.9 44.5 137.9 42.6 C 137.9 42.6 137.9 39.2 137.9 39.2 C 137.4 39.5 136.1 40 135.2 40.3 C 133.8 40.8 133.3 41.4 133.3 42.5 C 133.3 44 134 45 135.5 45 Z M 148 42 C 148.5 44 149.6 45.4 151.5 45.4 C 152.8 45.4 153.8 44.7 153.8 43.5 C 153.8 41.8 152.3 41.3 151.2 40.9 C 149.2 40.3 147.5 39.4 147.5 37.5 C 147.5 35.2 149.3 34 151.9 34 C 153 34 154.2 34.2 155 34.8 C 155.01 34.77 155 37.6 155 37.6 C 155 37.6 154.32 37.58 154.3 37.6 C 154.1 36.1 153.3 34.8 151.6 34.8 C 150.4 34.8 149.5 35.5 149.5 36.7 C 149.5 38.1 151.1 38.6 152 38.9 C 154.5 39.7 155.8 40.6 155.8 42.7 C 155.8 44.8 154.2 46.3 151.3 46.3 C 149.9 46.3 148.4 45.9 147.6 45.1 C 147.57 45.14 147.3 42 147.3 42 C 147.3 42 148.03 41.99 148 42 Z M 159.6 28.8 C 160.5 28.8 161.1 29.4 161.1 30.3 C 161.1 31.2 160.5 31.8 159.6 31.8 C 158.8 31.8 158.2 31.2 158.2 30.3 C 158.2 29.4 158.8 28.8 159.6 28.8 Z M 156.7 45.3 C 158.4 45.2 158.5 45.1 158.5 43.9 C 158.5 43.9 158.5 36.4 158.5 36.4 C 158.5 35.5 158.4 35.4 157.7 35.3 C 157.75 35.27 156.8 35.2 156.8 35.2 L 156.8 34.6 L 160.6 34 L 160.8 34.1 C 160.8 34.1 160.77 43.91 160.8 43.9 C 160.8 45.1 160.9 45.2 162.6 45.3 C 162.57 45.3 162.6 46 162.6 46 L 156.7 46 C 156.7 46 156.72 45.3 156.7 45.3 Z M 162.1 34.2 L 167.6 34.2 L 167.6 34.9 C 167.6 34.9 166.56 35.03 166.6 35 C 166 35.1 166.1 35.3 166.2 35.8 C 167.1 38.3 168 40.9 169.1 43.8 C 169.1 43.8 169.2 43.8 169.2 43.8 C 170.3 40.9 171.5 37.3 171.9 35.9 C 172 35.4 171.9 35.1 171.5 35.1 C 171.52 35.06 170.3 34.9 170.3 34.9 L 170.3 34.2 L 174.9 34.2 C 174.9 34.2 174.88 34.94 174.9 34.9 C 173.7 35 173.5 35.2 173.1 36.2 C 172.4 37.8 170.2 43.7 168.7 48 C 167.4 51.5 166.2 51.8 165.3 51.8 C 164.3 51.8 163.6 51.1 163.6 50.6 C 163.6 49.9 164.2 49.2 164.6 49.2 C 164.9 49.2 165.1 49.3 165.4 49.6 C 165.8 50 166 50.1 166.2 50.1 C 166.5 50.1 166.9 49.8 167.3 49 C 167.7 48.3 167.9 47.6 167.9 47 C 167.9 46.6 167.8 46.2 167.7 45.8 C 167.1 44.2 165.1 39.1 163.9 36.2 C 163.5 35.1 163.2 35 162.1 34.9 C 162.09 34.94 162.1 34.2 162.1 34.2 Z M 177 40 C 178.9 39.4 181.3 38.8 181.9 38.2 C 181.9 38.2 181.9 37.2 181.9 37.2 C 181.9 35.3 180.8 34.8 179.8 34.8 C 178.9 34.8 177.9 35.4 177.4 37.1 C 177.2 37.6 177.1 37.8 176.6 37.8 C 176.1 37.8 175.2 37.5 175.2 36.7 C 175.2 35.4 177.4 34 180.1 34 C 183.7 34 184 35.8 184 37.1 C 184 37.1 184 43 184 43 C 184 44.5 184.4 44.9 184.9 45 C 185.2 45.1 185.8 45.1 186.1 45 C 186.1 45 186.2 45.6 186.2 45.6 C 185.3 46 184.3 46.3 183.4 46.3 C 182.6 46.3 182.2 45.7 181.8 44.8 C 181.1 45.4 179.7 46.3 178.3 46.3 C 176 46.3 174.8 44.7 174.8 42.9 C 174.8 41.8 175.3 40.6 177 40 Z M 179.4 45 C 180.4 45 181.9 44.5 181.9 42.6 C 181.9 42.6 181.9 39.2 181.9 39.2 C 181.3 39.5 180.1 40 179.1 40.3 C 177.8 40.8 177.2 41.4 177.2 42.5 C 177.2 44 178 45 179.4 45 Z M 186.2 45.3 C 188 45.2 188 45.1 188 43.9 C 188 43.9 188 36.4 188 36.4 C 188 35.5 187.9 35.4 187.3 35.3 C 187.27 35.27 186.4 35.2 186.4 35.2 L 186.4 34.6 L 190.1 34 C 190.1 34 190.29 35.78 190.3 35.8 C 191.1 35.2 192.6 34 194.5 34 C 196.2 34 197.1 34.7 197.7 35.8 C 198.5 35.3 199.9 34 201.9 34 C 204.2 34 205.5 35.3 205.5 37.8 C 205.5 37.8 205.5 43.9 205.5 43.9 C 205.5 45.1 205.6 45.2 207.3 45.3 C 207.26 45.3 207.3 46 207.3 46 L 201.4 46 C 201.4 46 201.4 45.3 201.4 45.3 C 203.1 45.2 203.2 45.1 203.2 43.9 C 203.2 43.9 203.2 38.2 203.2 38.2 C 203.2 36.1 202.3 35.2 200.8 35.2 C 199.4 35.2 198.4 36 198 37 C 197.9 37.4 197.9 37.7 197.9 38.3 C 197.9 38.3 197.9 43.9 197.9 43.9 C 197.9 45.1 198 45.2 199.7 45.3 C 199.68 45.3 199.7 46 199.7 46 L 193.8 46 C 193.8 46 193.82 45.3 193.8 45.3 C 195.5 45.2 195.6 45.1 195.6 43.9 C 195.6 43.9 195.6 38.2 195.6 38.2 C 195.6 36.8 195.4 35.2 193.3 35.2 C 192 35.2 190.9 36.1 190.5 37 C 190.3 37.4 190.3 37.7 190.3 38.3 C 190.3 38.3 190.3 43.9 190.3 43.9 C 190.3 45.1 190.4 45.2 192.1 45.3 C 192.09 45.3 192.1 46 192.1 46 L 186.2 46 C 186.2 46 186.24 45.3 186.2 45.3 Z M 212.3 45.3 C 214.1 45.2 214.1 45.1 214.1 43.9 C 214.1 43.9 214.1 36.4 214.1 36.4 C 214.1 35.5 214 35.4 213.4 35.3 C 213.38 35.27 212.5 35.2 212.5 35.2 L 212.5 34.6 L 216 34 C 216 34 216.38 35.78 216.4 35.8 C 217.9 34.8 219 34 220.7 34 C 223 34 224.3 35.3 224.3 37.8 C 224.3 37.8 224.3 43.9 224.3 43.9 C 224.3 45.1 224.4 45.2 226.1 45.3 C 226.08 45.3 226.1 46 226.1 46 L 220.2 46 C 220.2 46 220.22 45.3 220.2 45.3 C 221.9 45.2 222 45.1 222 43.9 C 222 43.9 222 38.2 222 38.2 C 222 36.2 221.1 35.2 219.5 35.2 C 218.2 35.2 217.1 36 216.6 37 C 216.5 37.4 216.4 37.7 216.4 38.3 C 216.4 38.3 216.4 43.9 216.4 43.9 C 216.4 45.1 216.5 45.2 218.2 45.3 C 218.2 45.3 218.2 46 218.2 46 L 212.3 46 C 212.3 46 212.35 45.3 212.3 45.3 Z M 229.1 40 C 231 39.4 233.3 38.8 233.9 38.2 C 233.9 38.2 233.9 37.2 233.9 37.2 C 233.9 35.3 232.8 34.8 231.9 34.8 C 230.9 34.8 230 35.4 229.4 37.1 C 229.3 37.6 229.2 37.8 228.7 37.8 C 228.2 37.8 227.3 37.5 227.3 36.7 C 227.3 35.4 229.5 34 232.2 34 C 235.8 34 236.1 35.8 236.1 37.1 C 236.1 37.1 236.1 43 236.1 43 C 236.1 44.5 236.5 44.9 236.9 45 C 237.3 45.1 237.8 45.1 238.2 45 C 238.2 45 238.3 45.6 238.3 45.6 C 237.4 46 236.4 46.3 235.5 46.3 C 234.6 46.3 234.3 45.7 233.9 44.8 C 233.2 45.4 231.7 46.3 230.3 46.3 C 228.1 46.3 226.9 44.7 226.9 42.9 C 226.9 41.8 227.4 40.6 229.1 40 Z M 231.5 45 C 232.5 45 233.9 44.5 233.9 42.6 C 233.9 42.6 233.9 39.2 233.9 39.2 C 233.4 39.5 232.1 40 231.2 40.3 C 229.8 40.8 229.3 41.4 229.3 42.5 C 229.3 44 230 45 231.5 45 Z " stroke="none" fill="#000"/>
  </g>
  <g id="Polygon14289">
    <path d="M 0.8 17.3 C 3 17.2 3 17.1 3 15.8 C 3 15.8 3 3.6 3 3.6 C 3 2.3 3 2.2 0.8 2.1 C 0.84 2.09 0.8 1.4 0.8 1.4 C 0.8 1.4 8.81 1.39 8.8 1.4 C 15.8 1.4 17.5 5.5 17.5 9.4 C 17.5 13.7 15.7 18 8.3 18 C 8.33 18 0.8 18 0.8 18 C 0.8 18 0.84 17.3 0.8 17.3 Z M 7.9 17.2 C 11.9 17.2 14.9 15.6 14.9 9.5 C 14.9 5.4 13.2 2.2 8.2 2.2 C 5.6 2.2 5.4 2.4 5.4 3.6 C 5.4 3.6 5.4 15 5.4 15 C 5.4 16.9 5.8 17.2 7.9 17.2 Z M 18.8 17.3 C 20.9 17.2 21 17.1 21 15.8 C 21 15.8 21 3.6 21 3.6 C 21 2.3 20.9 2.2 18.8 2.1 C 18.82 2.09 18.8 1.4 18.8 1.4 L 25.7 1.4 C 25.7 1.4 25.66 2.09 25.7 2.1 C 23.4 2.2 23.4 2.3 23.4 3.6 C 23.4 3.6 23.4 15.1 23.4 15.1 C 23.4 16.3 23.4 16.7 24 16.9 C 24.5 17.1 25.3 17.2 26.5 17.2 C 29 17.2 30.4 16.8 30.8 13.7 C 30.84 13.7 31.6 13.7 31.6 13.7 L 31.3 18 L 18.8 18 C 18.8 18 18.82 17.3 18.8 17.3 Z M 32.9 13.1 C 33.5 15.8 34.9 17.5 37.2 17.5 C 39.3 17.5 40.7 16.3 40.7 14.2 C 40.7 12.1 38.4 11 37.3 10.6 C 37.3 10.6 36.9 10.4 36.9 10.4 C 34.4 9.5 32.4 8.2 32.4 5.7 C 32.4 2.5 34.9 1 37.9 1 C 39.5 1 41.1 1.4 42 2.1 C 41.95 2.09 42 5.5 42 5.5 C 42 5.5 41.21 5.47 41.2 5.5 C 40.8 3 39.7 1.9 37.6 1.9 C 35.6 1.9 34.5 3.2 34.5 4.9 C 34.5 6.4 35.9 7.4 37.5 8 C 37.5 8 38.3 8.3 38.3 8.3 C 41.1 9.3 43 10.7 43 13.5 C 43 15.9 41.3 18.4 37.1 18.4 C 35.4 18.4 33.4 17.9 32.3 16.9 C 32.33 16.92 32.1 13.1 32.1 13.1 C 32.1 13.1 32.86 13.08 32.9 13.1 Z M 43.8 1.4 L 50.5 1.4 C 50.5 1.4 50.54 2.09 50.5 2.1 C 48.5 2.2 48.4 2.3 48.4 3.6 C 48.4 3.6 48.4 11.4 48.4 11.4 C 48.4 13.7 48.7 15.1 49.5 16.1 C 50.2 17 51.3 17.5 52.6 17.5 C 54 17.5 55.1 17 55.8 16.1 C 56.5 15.1 56.9 13.7 56.9 11.4 C 56.9 11.4 56.9 3.6 56.9 3.6 C 56.9 2.3 56.9 2.2 54.7 2.1 C 54.74 2.09 54.7 1.4 54.7 1.4 L 61.4 1.4 C 61.4 1.4 61.44 2.09 61.4 2.1 C 59.4 2.2 59.3 2.3 59.3 3.6 C 59.3 3.6 59.3 11.9 59.3 11.9 C 59.3 13.3 59 14.6 58.6 15.4 C 57.5 17.8 55 18.4 52.6 18.4 C 50.3 18.4 47.8 17.8 46.7 15.4 C 46.2 14.6 46 13.3 46 11.9 C 46 11.9 46 3.6 46 3.6 C 46 2.3 46 2.2 43.8 2.1 C 43.85 2.09 43.8 1.4 43.8 1.4 Z M 66.9 17.3 C 69 17.2 69.1 17.1 69.1 15.8 C 69.1 15.8 69.1 3.6 69.1 3.6 C 69.1 2.3 69 2.2 66.9 2.1 C 66.93 2.09 66.9 1.4 66.9 1.4 L 79.1 1.4 L 79.1 5.3 C 79.1 5.3 78.33 5.33 78.3 5.3 C 78 2.8 77.4 2.2 74.7 2.2 C 74.7 2.2 72.4 2.2 72.4 2.2 C 71.6 2.2 71.5 2.3 71.5 3.1 C 71.47 3.1 71.5 8.9 71.5 8.9 C 71.5 8.9 74.83 8.9 74.8 8.9 C 76.9 8.9 77 8.3 77.2 6.8 C 77.18 6.84 77.9 6.8 77.9 6.8 L 77.9 11.9 C 77.9 11.9 77.18 11.9 77.2 11.9 C 77 10.4 76.9 9.8 74.8 9.8 C 74.83 9.82 71.5 9.8 71.5 9.8 C 71.5 9.8 71.47 15.12 71.5 15.1 C 71.5 16.3 71.6 16.7 72.1 16.9 C 72.6 17.1 73.4 17.2 74.6 17.2 C 77.6 17.2 78.7 16.8 79.2 13.8 C 79.22 13.85 79.9 13.8 79.9 13.8 L 79.7 18 L 66.9 18 C 66.9 18 66.93 17.3 66.9 17.3 Z M 86.8 6 C 89.4 6 91 7.2 91 8.3 C 91 9.2 90 9.5 89.5 9.5 C 89.1 9.5 88.9 9.3 88.8 8.9 C 88.3 7.6 87.6 6.8 86.5 6.8 C 84.9 6.8 83.4 8.2 83.4 11.8 C 83.4 14.1 84.1 17 87 17 C 88.7 17 89.7 16.2 90.4 14.5 C 90.4 14.5 91.1 14.8 91.1 14.8 C 90.5 17.4 88.2 18.3 86.5 18.3 C 82.9 18.3 81 16.2 81 12.2 C 81 9 82.4 6 86.8 6 Z M 97.9 6 C 101.8 6 103.7 8.2 103.7 12.1 C 103.7 16 101.8 18.3 97.9 18.3 C 94 18.3 92.1 16 92.1 12.1 C 92.1 8.2 94 6 97.9 6 Z M 97.9 17.4 C 100.1 17.4 101.2 15.4 101.2 12.1 C 101.2 8.8 100.1 6.8 97.9 6.8 C 95.7 6.8 94.6 8.8 94.6 12.1 C 94.6 15.4 95.7 17.4 97.9 17.4 Z M 112.1 3.5 C 113.5 1.9 115.9 1 118.9 1 C 121.1 1 122.9 1.5 124 2 C 123.96 1.97 124 5.7 124 5.7 C 124 5.7 123.24 5.71 123.2 5.7 C 122.8 2.9 121.1 1.9 118.6 1.9 C 114.2 1.9 112.6 5.8 112.6 9.7 C 112.6 12.6 113.6 17.5 118.6 17.5 C 121.7 17.5 122.9 15.7 123.6 13.2 C 123.62 13.2 124.3 13.2 124.3 13.2 C 124.3 13.2 124.01 17.21 124 17.2 C 122.9 17.8 120.6 18.4 118.7 18.4 C 116 18.4 113.7 17.8 112.2 16.3 C 110.8 14.9 109.9 12.6 109.9 9.8 C 109.9 7.1 110.7 5 112.1 3.5 Z M 127.6 12 C 129.5 11.4 131.8 10.8 132.4 10.2 C 132.4 10.2 132.4 9.2 132.4 9.2 C 132.4 7.3 131.3 6.8 130.4 6.8 C 129.4 6.8 128.4 7.4 127.9 9.1 C 127.8 9.6 127.6 9.8 127.1 9.8 C 126.7 9.8 125.8 9.5 125.8 8.7 C 125.8 7.4 127.9 6 130.6 6 C 134.3 6 134.6 7.8 134.6 9.1 C 134.6 9.1 134.6 15 134.6 15 C 134.6 16.5 135 16.9 135.4 17 C 135.8 17.1 136.3 17.1 136.6 17 C 136.6 17 136.8 17.6 136.8 17.6 C 135.9 18 134.8 18.3 133.9 18.3 C 133.1 18.3 132.7 17.7 132.4 16.8 C 131.6 17.4 130.2 18.3 128.8 18.3 C 126.5 18.3 125.3 16.7 125.3 14.9 C 125.3 13.8 125.9 12.6 127.6 12 Z M 130 17 C 130.9 17 132.4 16.5 132.4 14.6 C 132.4 14.6 132.4 11.2 132.4 11.2 C 131.9 11.5 130.6 12 129.6 12.3 C 128.3 12.8 127.8 13.4 127.8 14.5 C 127.8 16 128.5 17 130 17 Z M 136.8 17.3 C 138.5 17.2 138.6 17.1 138.6 15.9 C 138.6 15.9 138.6 8.4 138.6 8.4 C 138.6 7.5 138.4 7.4 137.8 7.3 C 137.81 7.27 136.9 7.2 136.9 7.2 L 136.9 6.6 L 140.5 6 C 140.5 6 140.83 7.87 140.8 7.9 C 142.4 6.5 143.1 6 144 6 C 144.9 6 145.3 6.6 145.3 7.1 C 145.3 7.9 144.7 8.5 144.2 8.5 C 144 8.5 143.9 8.4 143.7 8.4 C 143 8 142.6 7.8 142.2 7.8 C 141.6 7.8 140.8 8.4 140.8 10.3 C 140.8 10.3 140.8 15.9 140.8 15.9 C 140.8 17.1 141 17.2 143.1 17.3 C 143.11 17.3 143.1 18 143.1 18 L 136.8 18 C 136.8 18 136.77 17.3 136.8 17.3 Z M 149 1.4 L 162.8 1.4 L 162.8 5.4 C 162.8 5.4 162.09 5.38 162.1 5.4 C 161.8 2.8 161.3 2.2 158.5 2.2 C 158.49 2.23 157.1 2.2 157.1 2.2 C 157.1 2.2 157.08 15.77 157.1 15.8 C 157.1 17.1 157.1 17.2 159.7 17.3 C 159.72 17.3 159.7 18 159.7 18 L 152.1 18 C 152.1 18 152.06 17.3 152.1 17.3 C 154.6 17.2 154.7 17.1 154.7 15.8 C 154.7 15.77 154.7 2.2 154.7 2.2 C 154.7 2.2 153.29 2.23 153.3 2.2 C 150.5 2.2 150 2.8 149.7 5.4 C 149.69 5.38 149 5.4 149 5.4 L 149 1.4 Z M 166.9 6 C 171.3 6 171.8 9.4 171.8 10.8 C 171.8 11.6 171.3 11.7 170.8 11.7 C 170.8 11.7 163.9 11.7 163.9 11.7 C 163.8 14.2 164.4 17.1 167.4 17.1 C 169.3 17.1 170.2 15.9 170.9 14.5 C 170.9 14.5 171.6 14.9 171.6 14.9 C 171 16.8 169.6 18.3 166.9 18.3 C 163 18.3 161.4 16 161.4 12.2 C 161.4 8.6 163.2 6 166.9 6 Z M 168.5 10.8 C 169.1 10.8 169.3 10.5 169.3 10 C 169.3 9.1 169 6.8 166.8 6.8 C 164.3 6.8 163.9 9.8 163.9 10.8 C 163.9 10.8 168.5 10.8 168.5 10.8 Z M 175.2 12 C 177.1 11.4 179.5 10.8 180.1 10.2 C 180.1 10.2 180.1 9.2 180.1 9.2 C 180.1 7.3 179 6.8 178 6.8 C 177.1 6.8 176.1 7.4 175.6 9.1 C 175.4 9.6 175.3 9.8 174.8 9.8 C 174.3 9.8 173.4 9.5 173.4 8.7 C 173.4 7.4 175.6 6 178.3 6 C 181.9 6 182.2 7.8 182.2 9.1 C 182.2 9.1 182.2 15 182.2 15 C 182.2 16.5 182.6 16.9 183.1 17 C 183.4 17.1 184 17.1 184.3 17 C 184.3 17 184.4 17.6 184.4 17.6 C 183.5 18 182.5 18.3 181.6 18.3 C 180.8 18.3 180.4 17.7 180 16.8 C 179.3 17.4 177.9 18.3 176.5 18.3 C 174.2 18.3 173 16.7 173 14.9 C 173 13.8 173.5 12.6 175.2 12 Z M 177.6 17 C 178.6 17 180.1 16.5 180.1 14.6 C 180.1 14.6 180.1 11.2 180.1 11.2 C 179.5 11.5 178.3 12 177.3 12.3 C 176 12.8 175.4 13.4 175.4 14.5 C 175.4 16 176.2 17 177.6 17 Z M 184.4 17.3 C 186.2 17.2 186.2 17.1 186.2 15.9 C 186.2 15.9 186.2 8.4 186.2 8.4 C 186.2 7.5 186.1 7.4 185.5 7.3 C 185.47 7.27 184.6 7.2 184.6 7.2 L 184.6 6.6 L 188.3 6 C 188.3 6 188.49 7.78 188.5 7.8 C 189.3 7.2 190.8 6 192.7 6 C 194.4 6 195.3 6.7 195.9 7.8 C 196.7 7.3 198.1 6 200.1 6 C 202.4 6 203.7 7.3 203.7 9.8 C 203.7 9.8 203.7 15.9 203.7 15.9 C 203.7 17.1 203.8 17.2 205.5 17.3 C 205.46 17.3 205.5 18 205.5 18 L 199.6 18 C 199.6 18 199.6 17.3 199.6 17.3 C 201.3 17.2 201.4 17.1 201.4 15.9 C 201.4 15.9 201.4 10.2 201.4 10.2 C 201.4 8.1 200.5 7.2 199 7.2 C 197.6 7.2 196.6 8 196.2 9 C 196.1 9.4 196.1 9.7 196.1 10.3 C 196.1 10.3 196.1 15.9 196.1 15.9 C 196.1 17.1 196.2 17.2 197.9 17.3 C 197.88 17.3 197.9 18 197.9 18 L 192 18 C 192 18 192.02 17.3 192 17.3 C 193.7 17.2 193.8 17.1 193.8 15.9 C 193.8 15.9 193.8 10.2 193.8 10.2 C 193.8 8.8 193.6 7.2 191.5 7.2 C 190.2 7.2 189.1 8.1 188.7 9 C 188.5 9.4 188.5 9.7 188.5 10.3 C 188.5 10.3 188.5 15.9 188.5 15.9 C 188.5 17.1 188.6 17.2 190.3 17.3 C 190.29 17.3 190.3 18 190.3 18 L 184.4 18 C 184.4 18 184.44 17.3 184.4 17.3 Z M 207.7 18.1 C 207.7 17.1 206.9 16.7 206.9 15.8 C 206.9 15.2 207.4 14.6 208.1 14.6 C 209 14.6 209.7 15.5 209.7 16.8 C 209.7 18.7 208 20.3 206.8 21.4 C 206.8 21.4 206.3 20.9 206.3 20.9 C 207.1 20.1 207.7 19.1 207.7 18.1 Z " stroke="none" fill="#000"/>
  </g>
</svg>