<?xml version="1.0" standalone="no"?>
<!DOCTYPE svg PUBLIC "-//W3C//DTD SVG 1.1//EN" "http://www.w3.org/Graphics/SVG/1.1/DTD/svg11.dtd">
<svg xmlns="http://www.w3.org/2000/svg" version="1.1" width="77px" height="12.7px" viewBox="0 -3 77 12.7" style="top:-3px">
  <desc>BUHAY AT KULTURA</desc>
  <defs/>
  <g id="Polygon13801">
    <path d="M 0.7 0.4 C 0.7 0.4 2.14 0.36 2.1 0.4 C 2.8 0.4 3.3 0.5 3.6 0.7 C 3.9 0.9 4.1 1.2 4.1 1.6 C 4.1 1.9 4 2.1 3.9 2.3 C 3.7 2.5 3.5 2.7 3.2 2.7 C 3.2 2.7 3.2 2.7 3.2 2.7 C 3.6 2.8 3.8 2.9 4 3.1 C 4.2 3.3 4.2 3.6 4.2 3.9 C 4.2 4.4 4.1 4.7 3.8 5 C 3.5 5.2 3 5.4 2.5 5.4 C 2.46 5.36 0.7 5.4 0.7 5.4 L 0.7 0.4 Z M 1.5 2.4 C 1.5 2.4 2.26 2.42 2.3 2.4 C 2.6 2.4 2.9 2.4 3 2.3 C 3.2 2.2 3.2 2 3.2 1.7 C 3.2 1.5 3.2 1.3 3 1.2 C 2.8 1.1 2.6 1 2.2 1 C 2.18 1.04 1.5 1 1.5 1 L 1.5 2.4 Z M 1.5 3.1 L 1.5 4.7 C 1.5 4.7 2.34 4.67 2.3 4.7 C 2.7 4.7 2.9 4.6 3.1 4.5 C 3.3 4.3 3.4 4.1 3.4 3.9 C 3.4 3.6 3.3 3.4 3.1 3.3 C 2.9 3.1 2.7 3.1 2.3 3.1 C 2.3 3.09 1.5 3.1 1.5 3.1 Z M 9.2 0.4 C 9.2 0.4 9.16 3.59 9.2 3.6 C 9.2 4 9.1 4.3 8.9 4.6 C 8.8 4.8 8.5 5.1 8.2 5.2 C 7.9 5.3 7.6 5.4 7.2 5.4 C 6.5 5.4 6.1 5.3 5.7 4.9 C 5.4 4.6 5.2 4.2 5.2 3.6 C 5.2 3.58 5.2 0.4 5.2 0.4 L 6 0.4 C 6 0.4 6.02 3.52 6 3.5 C 6 3.9 6.1 4.2 6.3 4.4 C 6.5 4.6 6.8 4.7 7.2 4.7 C 8 4.7 8.3 4.3 8.3 3.5 C 8.34 3.51 8.3 0.4 8.3 0.4 L 9.2 0.4 Z M 14.3 5.4 L 13.5 5.4 L 13.5 3.1 L 11.2 3.1 L 11.2 5.4 L 10.4 5.4 L 10.4 0.4 L 11.2 0.4 L 11.2 2.4 L 13.5 2.4 L 13.5 0.4 L 14.3 0.4 L 14.3 5.4 Z M 18.8 5.4 L 18.3 4 L 16.4 4 L 15.9 5.4 L 15 5.4 L 16.9 0.3 L 17.8 0.3 L 19.6 5.4 L 18.8 5.4 Z M 18.1 3.3 C 18.1 3.3 17.59 1.9 17.6 1.9 C 17.6 1.8 17.5 1.7 17.5 1.5 C 17.4 1.3 17.4 1.1 17.3 1 C 17.3 1.3 17.2 1.6 17.1 2 C 17.06 1.96 16.6 3.3 16.6 3.3 L 18.1 3.3 Z M 21.3 2.6 L 22.5 0.4 L 23.4 0.4 L 21.7 3.4 L 21.7 5.4 L 20.9 5.4 L 20.9 3.4 L 19.3 0.4 L 20.1 0.4 L 21.3 2.6 Z M 28.6 5.4 L 28.1 4 L 26.1 4 L 25.7 5.4 L 24.8 5.4 L 26.7 0.3 L 27.6 0.3 L 29.4 5.4 L 28.6 5.4 Z M 27.8 3.3 C 27.8 3.3 27.37 1.9 27.4 1.9 C 27.3 1.8 27.3 1.7 27.2 1.5 C 27.2 1.3 27.1 1.1 27.1 1 C 27 1.3 27 1.6 26.8 2 C 26.83 1.96 26.4 3.3 26.4 3.3 L 27.8 3.3 Z M 31.4 5.4 L 30.6 5.4 L 30.6 1.1 L 29.1 1.1 L 29.1 0.4 L 32.9 0.4 L 32.9 1.1 L 31.4 1.1 L 31.4 5.4 Z M 38.9 5.4 L 37.9 5.4 L 36.4 3.1 L 35.9 3.5 L 35.9 5.4 L 35.1 5.4 L 35.1 0.4 L 35.9 0.4 C 35.9 0.4 35.88 2.74 35.9 2.7 C 36.1 2.5 36.3 2.2 36.5 2 C 36.55 1.96 37.9 0.4 37.9 0.4 C 37.9 0.4 38.83 0.36 38.8 0.4 C 38 1.4 37.3 2.1 37 2.5 C 36.95 2.55 38.9 5.4 38.9 5.4 Z M 43.5 0.4 C 43.5 0.4 43.49 3.59 43.5 3.6 C 43.5 4 43.4 4.3 43.3 4.6 C 43.1 4.8 42.9 5.1 42.6 5.2 C 42.3 5.3 41.9 5.4 41.5 5.4 C 40.9 5.4 40.4 5.3 40 4.9 C 39.7 4.6 39.5 4.2 39.5 3.6 C 39.53 3.58 39.5 0.4 39.5 0.4 L 40.4 0.4 C 40.4 0.4 40.35 3.52 40.4 3.5 C 40.4 3.9 40.4 4.2 40.6 4.4 C 40.8 4.6 41.1 4.7 41.5 4.7 C 42.3 4.7 42.7 4.3 42.7 3.5 C 42.68 3.51 42.7 0.4 42.7 0.4 L 43.5 0.4 Z M 44.7 5.4 L 44.7 0.4 L 45.5 0.4 L 45.5 4.7 L 47.6 4.7 L 47.6 5.4 L 44.7 5.4 Z M 49.8 5.4 L 49 5.4 L 49 1.1 L 47.5 1.1 L 47.5 0.4 L 51.2 0.4 L 51.2 1.1 L 49.8 1.1 L 49.8 5.4 Z M 55.9 0.4 C 55.9 0.4 55.93 3.59 55.9 3.6 C 55.9 4 55.9 4.3 55.7 4.6 C 55.5 4.8 55.3 5.1 55 5.2 C 54.7 5.3 54.3 5.4 53.9 5.4 C 53.3 5.4 52.8 5.3 52.5 4.9 C 52.1 4.6 52 4.2 52 3.6 C 51.97 3.58 52 0.4 52 0.4 L 52.8 0.4 C 52.8 0.4 52.79 3.52 52.8 3.5 C 52.8 3.9 52.9 4.2 53.1 4.4 C 53.3 4.6 53.6 4.7 54 4.7 C 54.7 4.7 55.1 4.3 55.1 3.5 C 55.12 3.51 55.1 0.4 55.1 0.4 L 55.9 0.4 Z M 58 2.7 C 58 2.7 58.54 2.68 58.5 2.7 C 58.9 2.7 59.2 2.6 59.4 2.5 C 59.5 2.3 59.6 2.1 59.6 1.8 C 59.6 1.6 59.5 1.4 59.3 1.2 C 59.2 1.1 58.9 1 58.5 1 C 58.51 1.05 58 1 58 1 L 58 2.7 Z M 58 3.4 L 58 5.4 L 57.2 5.4 L 57.2 0.4 C 57.2 0.4 58.57 0.36 58.6 0.4 C 59.2 0.4 59.7 0.5 60 0.7 C 60.3 1 60.5 1.3 60.5 1.8 C 60.5 2.4 60.1 2.9 59.5 3.1 C 59.49 3.14 60.9 5.4 60.9 5.4 L 60 5.4 L 58.8 3.4 L 58 3.4 Z M 65 5.4 L 64.5 4 L 62.6 4 L 62.1 5.4 L 61.3 5.4 L 63.1 0.3 L 64 0.3 L 65.9 5.4 L 65 5.4 Z M 64.3 3.3 C 64.3 3.3 63.86 1.9 63.9 1.9 C 63.8 1.8 63.8 1.7 63.7 1.5 C 63.7 1.3 63.6 1.1 63.6 1 C 63.5 1.3 63.4 1.6 63.3 2 C 63.32 1.96 62.9 3.3 62.9 3.3 L 64.3 3.3 Z " stroke="none" fill="#fff"/>
  </g>
</svg>