<?xml version="1.0" standalone="no"?>
<!DOCTYPE svg PUBLIC "-//W3C//DTD SVG 1.1//EN" "http://www.w3.org/Graphics/SVG/1.1/DTD/svg11.dtd">
<svg xmlns="http://www.w3.org/2000/svg" version="1.1" width="201px" height="37.4px" viewBox="0 -3 201 37.4" style="top:-3px">
  <desc>Tagapayo: Dr Dolores Taylan Direktor, Student Media Office: Franz Louise Santos Koordineytor, Student Media Office:</desc>
  <defs/>
  <g id="Polygon17727">
    <path d="M 3.1 24.4 C 3.1 24.8 2.9 25.1 2.6 25.3 C 2.4 25.5 2 25.6 1.5 25.6 C 1 25.6 0.6 25.6 0.3 25.4 C 0.3 25.4 0.3 24.5 0.3 24.5 C 0.6 24.7 0.8 24.8 1 24.8 C 1.2 24.9 1.4 24.9 1.6 24.9 C 1.8 24.9 1.9 24.9 2 24.8 C 2.1 24.7 2.2 24.6 2.2 24.4 C 2.2 24.4 2.2 24.3 2.1 24.2 C 2.1 24.2 2 24.1 1.9 24 C 1.8 24 1.6 23.9 1.3 23.7 C 1.1 23.6 0.9 23.5 0.8 23.4 C 0.6 23.3 0.5 23.1 0.4 23 C 0.4 22.8 0.3 22.7 0.3 22.5 C 0.3 22.1 0.5 21.8 0.7 21.6 C 1 21.4 1.3 21.2 1.8 21.2 C 2 21.2 2.2 21.3 2.4 21.3 C 2.6 21.4 2.8 21.5 3 21.5 C 3 21.5 2.8 22.3 2.8 22.3 C 2.5 22.2 2.3 22.1 2.2 22.1 C 2 22 1.9 22 1.7 22 C 1.6 22 1.4 22 1.4 22.1 C 1.3 22.2 1.2 22.3 1.2 22.4 C 1.2 22.5 1.2 22.6 1.3 22.6 C 1.3 22.7 1.4 22.8 1.4 22.8 C 1.5 22.9 1.7 23 2 23.1 C 2.4 23.3 2.7 23.5 2.8 23.7 C 3 23.9 3.1 24.1 3.1 24.4 Z M 5.1 22.9 C 4.9 22.9 4.7 22.9 4.6 23.1 C 4.5 23.2 4.5 23.4 4.4 23.6 C 4.4 23.6 5.7 23.6 5.7 23.6 C 5.7 23.4 5.6 23.2 5.5 23.1 C 5.4 22.9 5.3 22.9 5.1 22.9 Z M 5.2 25.6 C 4.7 25.6 4.3 25.5 4 25.2 C 3.7 24.9 3.5 24.5 3.5 24 C 3.5 23.4 3.7 23 3.9 22.7 C 4.2 22.4 4.6 22.3 5.1 22.3 C 5.5 22.3 5.9 22.4 6.1 22.6 C 6.4 22.9 6.5 23.3 6.5 23.7 C 6.53 23.74 6.5 24.2 6.5 24.2 C 6.5 24.2 4.42 24.18 4.4 24.2 C 4.4 24.4 4.5 24.6 4.6 24.8 C 4.8 24.9 5 25 5.2 25 C 5.4 25 5.6 25 5.8 24.9 C 6 24.9 6.2 24.8 6.3 24.7 C 6.3 24.7 6.3 25.4 6.3 25.4 C 6.2 25.5 6 25.6 5.8 25.6 C 5.7 25.6 5.5 25.6 5.2 25.6 Z M 8.1 23.8 L 8.4 23.3 L 9.4 22.3 L 10.4 22.3 L 9.1 23.7 L 10.5 25.6 L 9.4 25.6 L 8.5 24.3 L 8.1 24.6 L 8.1 25.6 L 7.2 25.6 L 7.2 21 L 8.1 21 L 8.1 23.1 L 8 23.8 L 8.1 23.8 Z M 12.7 22.3 C 12.8 22.3 12.9 22.3 13 22.3 C 13 22.3 12.9 23.1 12.9 23.1 C 12.8 23.1 12.8 23.1 12.7 23.1 C 12.4 23.1 12.2 23.2 12 23.3 C 11.8 23.5 11.8 23.7 11.8 23.9 C 11.75 23.92 11.8 25.6 11.8 25.6 L 10.9 25.6 L 10.9 22.3 L 11.5 22.3 L 11.7 22.9 C 11.7 22.9 11.71 22.87 11.7 22.9 C 11.8 22.7 12 22.5 12.1 22.4 C 12.3 22.3 12.5 22.3 12.7 22.3 Z M 14.9 22.9 C 14.7 22.9 14.5 22.9 14.4 23.1 C 14.3 23.2 14.3 23.4 14.3 23.6 C 14.3 23.6 15.5 23.6 15.5 23.6 C 15.5 23.4 15.4 23.2 15.3 23.1 C 15.2 22.9 15.1 22.9 14.9 22.9 Z M 15 25.6 C 14.5 25.6 14.1 25.5 13.8 25.2 C 13.5 24.9 13.3 24.5 13.3 24 C 13.3 23.4 13.5 23 13.7 22.7 C 14 22.4 14.4 22.3 14.9 22.3 C 15.3 22.3 15.7 22.4 16 22.6 C 16.2 22.9 16.3 23.3 16.3 23.7 C 16.34 23.74 16.3 24.2 16.3 24.2 C 16.3 24.2 14.23 24.18 14.2 24.2 C 14.2 24.4 14.3 24.6 14.5 24.8 C 14.6 24.9 14.8 25 15 25 C 15.2 25 15.4 25 15.6 24.9 C 15.8 24.9 16 24.8 16.2 24.7 C 16.2 24.7 16.2 25.4 16.2 25.4 C 16 25.5 15.8 25.6 15.7 25.6 C 15.5 25.6 15.3 25.6 15 25.6 Z M 18.4 24.9 C 18.5 24.9 18.7 24.9 19 24.8 C 19 24.8 19 25.5 19 25.5 C 18.7 25.6 18.5 25.6 18.1 25.6 C 17.8 25.6 17.5 25.6 17.3 25.4 C 17.2 25.2 17.1 24.9 17.1 24.6 C 17.11 24.57 17.1 23 17.1 23 L 16.7 23 L 16.7 22.6 L 17.2 22.3 L 17.4 21.6 L 18 21.6 L 18 22.3 L 18.9 22.3 L 18.9 23 L 18 23 C 18 23 18 24.57 18 24.6 C 18 24.7 18 24.8 18.1 24.8 C 18.2 24.9 18.3 24.9 18.4 24.9 Z M 21.6 25.6 L 21.5 25.1 C 21.5 25.1 21.44 25.15 21.4 25.1 C 21.3 25.3 21.1 25.5 21 25.5 C 20.8 25.6 20.6 25.6 20.3 25.6 C 20 25.6 19.8 25.6 19.6 25.4 C 19.4 25.2 19.3 24.9 19.3 24.6 C 19.3 24.3 19.5 24 19.7 23.8 C 19.9 23.7 20.3 23.6 20.8 23.6 C 20.8 23.57 21.4 23.6 21.4 23.6 C 21.4 23.6 21.37 23.41 21.4 23.4 C 21.4 23.1 21.2 22.9 20.9 22.9 C 20.6 22.9 20.3 23 19.9 23.1 C 19.9 23.1 19.6 22.5 19.6 22.5 C 20 22.3 20.4 22.2 20.9 22.2 C 21.3 22.2 21.7 22.3 21.9 22.5 C 22.1 22.7 22.3 23 22.3 23.4 C 22.26 23.41 22.3 25.6 22.3 25.6 L 21.6 25.6 Z M 21.4 24.1 C 21.4 24.1 21.02 24.08 21 24.1 C 20.8 24.1 20.6 24.1 20.4 24.2 C 20.3 24.3 20.3 24.4 20.3 24.6 C 20.3 24.9 20.4 25 20.7 25 C 20.9 25 21.1 24.9 21.2 24.8 C 21.3 24.7 21.4 24.5 21.4 24.3 C 21.37 24.34 21.4 24.1 21.4 24.1 Z M 24.9 22.3 C 25.1 22.3 25.2 22.3 25.2 22.3 C 25.2 22.3 25.2 23.1 25.2 23.1 C 25.1 23.1 25 23.1 24.9 23.1 C 24.6 23.1 24.4 23.2 24.2 23.3 C 24.1 23.5 24 23.7 24 23.9 C 24.01 23.92 24 25.6 24 25.6 L 23.1 25.6 L 23.1 22.3 L 23.8 22.3 L 23.9 22.9 C 23.9 22.9 23.97 22.87 24 22.9 C 24.1 22.7 24.2 22.5 24.4 22.4 C 24.6 22.3 24.7 22.3 24.9 22.3 Z M 25.3 22.3 L 26.3 22.3 C 26.3 22.3 26.91 24.16 26.9 24.2 C 27 24.3 27 24.5 27 24.7 C 27 24.7 27 24.7 27 24.7 C 27.1 24.5 27.1 24.3 27.2 24.2 C 27.16 24.16 27.8 22.3 27.8 22.3 L 28.7 22.3 C 28.7 22.3 27.34 26.01 27.3 26 C 27.2 26.4 27 26.6 26.8 26.8 C 26.6 26.9 26.3 27 26 27 C 25.8 27 25.7 27 25.5 27 C 25.5 27 25.5 26.3 25.5 26.3 C 25.6 26.3 25.7 26.3 25.9 26.3 C 26 26.3 26.2 26.3 26.3 26.2 C 26.4 26.1 26.5 25.9 26.6 25.7 C 26.56 25.73 26.6 25.6 26.6 25.6 L 25.3 22.3 Z M 31.2 25.6 L 31 25.1 C 31 25.1 31.02 25.15 31 25.1 C 30.9 25.3 30.7 25.5 30.6 25.5 C 30.4 25.6 30.2 25.6 29.9 25.6 C 29.6 25.6 29.4 25.6 29.2 25.4 C 29 25.2 28.9 24.9 28.9 24.6 C 28.9 24.3 29 24 29.3 23.8 C 29.5 23.7 29.9 23.6 30.4 23.6 C 30.38 23.57 31 23.6 31 23.6 C 31 23.6 30.95 23.41 31 23.4 C 31 23.1 30.8 22.9 30.4 22.9 C 30.2 22.9 29.9 23 29.5 23.1 C 29.5 23.1 29.2 22.5 29.2 22.5 C 29.6 22.3 30 22.2 30.5 22.2 C 30.9 22.2 31.3 22.3 31.5 22.5 C 31.7 22.7 31.8 23 31.8 23.4 C 31.84 23.41 31.8 25.6 31.8 25.6 L 31.2 25.6 Z M 31 24.1 C 31 24.1 30.61 24.08 30.6 24.1 C 30.3 24.1 30.2 24.1 30 24.2 C 29.9 24.3 29.8 24.4 29.8 24.6 C 29.8 24.9 30 25 30.3 25 C 30.5 25 30.6 24.9 30.8 24.8 C 30.9 24.7 31 24.5 31 24.3 C 30.95 24.34 31 24.1 31 24.1 Z M 33.6 25 C 33.5 25.4 33.3 25.8 33.1 26.4 C 33.1 26.4 32.4 26.4 32.4 26.4 C 32.5 25.8 32.6 25.4 32.7 24.9 C 32.71 24.89 33.5 24.9 33.5 24.9 C 33.5 24.9 33.57 24.96 33.6 25 Z M 38.5 24.4 C 38.5 24.8 38.3 25.1 38.1 25.3 C 37.8 25.5 37.4 25.6 36.9 25.6 C 36.4 25.6 36 25.6 35.7 25.4 C 35.7 25.4 35.7 24.5 35.7 24.5 C 36 24.7 36.2 24.8 36.4 24.8 C 36.6 24.9 36.8 24.9 37 24.9 C 37.2 24.9 37.3 24.9 37.4 24.8 C 37.5 24.7 37.6 24.6 37.6 24.4 C 37.6 24.4 37.6 24.3 37.5 24.2 C 37.5 24.2 37.4 24.1 37.3 24 C 37.2 24 37 23.9 36.8 23.7 C 36.5 23.6 36.3 23.5 36.2 23.4 C 36 23.3 35.9 23.1 35.9 23 C 35.8 22.8 35.7 22.7 35.7 22.5 C 35.7 22.1 35.9 21.8 36.1 21.6 C 36.4 21.4 36.7 21.2 37.2 21.2 C 37.4 21.2 37.6 21.3 37.8 21.3 C 38 21.4 38.2 21.5 38.5 21.5 C 38.5 21.5 38.2 22.3 38.2 22.3 C 37.9 22.2 37.7 22.1 37.6 22.1 C 37.4 22 37.3 22 37.2 22 C 37 22 36.9 22 36.8 22.1 C 36.7 22.2 36.6 22.3 36.6 22.4 C 36.6 22.5 36.6 22.6 36.7 22.6 C 36.7 22.7 36.8 22.8 36.9 22.8 C 36.9 22.9 37.1 23 37.4 23.1 C 37.8 23.3 38.1 23.5 38.3 23.7 C 38.4 23.9 38.5 24.1 38.5 24.4 Z M 40.5 24.9 C 40.7 24.9 40.8 24.9 41.1 24.8 C 41.1 24.8 41.1 25.5 41.1 25.5 C 40.8 25.6 40.6 25.6 40.2 25.6 C 39.9 25.6 39.6 25.6 39.5 25.4 C 39.3 25.2 39.2 24.9 39.2 24.6 C 39.22 24.57 39.2 23 39.2 23 L 38.8 23 L 38.8 22.6 L 39.3 22.3 L 39.5 21.6 L 40.1 21.6 L 40.1 22.3 L 41 22.3 L 41 23 L 40.1 23 C 40.1 23 40.11 24.57 40.1 24.6 C 40.1 24.7 40.1 24.8 40.2 24.8 C 40.3 24.9 40.4 24.9 40.5 24.9 Z M 44 25.6 L 43.9 25.2 C 43.9 25.2 43.82 25.17 43.8 25.2 C 43.7 25.3 43.6 25.4 43.4 25.5 C 43.2 25.6 43 25.6 42.8 25.6 C 42.4 25.6 42.1 25.5 41.9 25.3 C 41.7 25.1 41.6 24.8 41.6 24.5 C 41.65 24.45 41.6 22.3 41.6 22.3 L 42.5 22.3 C 42.5 22.3 42.54 24.23 42.5 24.2 C 42.5 24.5 42.6 24.6 42.7 24.8 C 42.8 24.9 42.9 24.9 43.1 24.9 C 43.3 24.9 43.5 24.9 43.6 24.7 C 43.7 24.5 43.8 24.2 43.8 23.9 C 43.78 23.86 43.8 22.3 43.8 22.3 L 44.7 22.3 L 44.7 25.6 L 44 25.6 Z M 47.5 25.2 C 47.3 25.5 47 25.6 46.6 25.6 C 46.2 25.6 45.9 25.5 45.7 25.2 C 45.5 24.9 45.4 24.5 45.4 24 C 45.4 23.4 45.5 23 45.7 22.7 C 45.9 22.4 46.2 22.3 46.6 22.3 C 47 22.3 47.3 22.4 47.6 22.7 C 47.6 22.7 47.6 22.7 47.6 22.7 C 47.5 22.5 47.5 22.3 47.5 22.1 C 47.52 22.08 47.5 21 47.5 21 L 48.4 21 L 48.4 25.6 L 47.7 25.6 L 47.6 25.2 L 47.5 25.2 C 47.5 25.2 47.52 25.17 47.5 25.2 Z M 46.9 24.9 C 47.1 24.9 47.3 24.9 47.4 24.7 C 47.5 24.6 47.6 24.4 47.6 24.1 C 47.6 24.1 47.6 24 47.6 24 C 47.6 23.6 47.5 23.4 47.4 23.2 C 47.3 23.1 47.1 23 46.9 23 C 46.7 23 46.5 23.1 46.4 23.2 C 46.3 23.4 46.3 23.6 46.3 24 C 46.3 24.3 46.3 24.5 46.4 24.7 C 46.5 24.9 46.7 24.9 46.9 24.9 Z M 50.6 22.9 C 50.5 22.9 50.3 22.9 50.2 23.1 C 50.1 23.2 50 23.4 50 23.6 C 50 23.6 51.3 23.6 51.3 23.6 C 51.3 23.4 51.2 23.2 51.1 23.1 C 51 22.9 50.8 22.9 50.6 22.9 Z M 50.8 25.6 C 50.2 25.6 49.8 25.5 49.5 25.2 C 49.2 24.9 49.1 24.5 49.1 24 C 49.1 23.4 49.2 23 49.5 22.7 C 49.8 22.4 50.2 22.3 50.6 22.3 C 51.1 22.3 51.5 22.4 51.7 22.6 C 52 22.9 52.1 23.3 52.1 23.7 C 52.11 23.74 52.1 24.2 52.1 24.2 C 52.1 24.2 49.99 24.18 50 24.2 C 50 24.4 50.1 24.6 50.2 24.8 C 50.4 24.9 50.6 25 50.8 25 C 51 25 51.2 25 51.4 24.9 C 51.5 24.9 51.7 24.8 51.9 24.7 C 51.9 24.7 51.9 25.4 51.9 25.4 C 51.8 25.5 51.6 25.6 51.4 25.6 C 51.2 25.6 51 25.6 50.8 25.6 Z M 55.8 25.6 L 54.9 25.6 C 54.9 25.6 54.9 23.68 54.9 23.7 C 54.9 23.4 54.9 23.3 54.8 23.1 C 54.7 23 54.6 23 54.4 23 C 54.1 23 53.9 23.1 53.8 23.2 C 53.7 23.4 53.7 23.7 53.7 24 C 53.67 24.05 53.7 25.6 53.7 25.6 L 52.8 25.6 L 52.8 22.3 L 53.5 22.3 L 53.6 22.7 C 53.6 22.7 53.62 22.73 53.6 22.7 C 53.7 22.6 53.9 22.5 54 22.4 C 54.2 22.3 54.4 22.3 54.6 22.3 C 55 22.3 55.3 22.4 55.5 22.6 C 55.7 22.8 55.8 23.1 55.8 23.5 C 55.8 23.46 55.8 25.6 55.8 25.6 Z M 58 24.9 C 58.2 24.9 58.4 24.9 58.6 24.8 C 58.6 24.8 58.6 25.5 58.6 25.5 C 58.4 25.6 58.1 25.6 57.8 25.6 C 57.4 25.6 57.2 25.6 57 25.4 C 56.8 25.2 56.8 24.9 56.8 24.6 C 56.75 24.57 56.8 23 56.8 23 L 56.3 23 L 56.3 22.6 L 56.8 22.3 L 57.1 21.6 L 57.6 21.6 L 57.6 22.3 L 58.6 22.3 L 58.6 23 L 57.6 23 C 57.6 23 57.65 24.57 57.6 24.6 C 57.6 24.7 57.7 24.8 57.8 24.8 C 57.8 24.9 57.9 24.9 58 24.9 Z M 62.6 25.6 L 61.6 22.2 C 61.6 22.2 61.52 22.23 61.5 22.2 C 61.6 22.9 61.6 23.4 61.6 23.6 C 61.58 23.6 61.6 25.6 61.6 25.6 L 60.8 25.6 L 60.8 21.3 L 62 21.3 L 63 24.6 L 63 24.6 L 64.1 21.3 L 65.3 21.3 L 65.3 25.6 L 64.5 25.6 C 64.5 25.6 64.5 23.56 64.5 23.6 C 64.5 23.5 64.5 23.4 64.5 23.2 C 64.5 23.1 64.5 22.8 64.5 22.2 C 64.55 22.24 64.5 22.2 64.5 22.2 L 63.4 25.6 L 62.6 25.6 Z M 67.7 22.9 C 67.5 22.9 67.3 22.9 67.2 23.1 C 67.1 23.2 67 23.4 67 23.6 C 67 23.6 68.3 23.6 68.3 23.6 C 68.3 23.4 68.2 23.2 68.1 23.1 C 68 22.9 67.8 22.9 67.7 22.9 Z M 67.8 25.6 C 67.3 25.6 66.8 25.5 66.5 25.2 C 66.2 24.9 66.1 24.5 66.1 24 C 66.1 23.4 66.2 23 66.5 22.7 C 66.8 22.4 67.2 22.3 67.6 22.3 C 68.1 22.3 68.5 22.4 68.7 22.6 C 69 22.9 69.1 23.3 69.1 23.7 C 69.11 23.74 69.1 24.2 69.1 24.2 C 69.1 24.2 67 24.18 67 24.2 C 67 24.4 67.1 24.6 67.2 24.8 C 67.4 24.9 67.6 25 67.8 25 C 68 25 68.2 25 68.4 24.9 C 68.6 24.9 68.7 24.8 68.9 24.7 C 68.9 24.7 68.9 25.4 68.9 25.4 C 68.8 25.5 68.6 25.6 68.4 25.6 C 68.3 25.6 68 25.6 67.8 25.6 Z M 71.7 25.2 C 71.5 25.5 71.2 25.6 70.8 25.6 C 70.4 25.6 70.1 25.5 69.9 25.2 C 69.7 24.9 69.6 24.5 69.6 24 C 69.6 23.4 69.7 23 69.9 22.7 C 70.1 22.4 70.4 22.3 70.8 22.3 C 71.3 22.3 71.6 22.4 71.8 22.7 C 71.8 22.7 71.8 22.7 71.8 22.7 C 71.8 22.5 71.7 22.3 71.7 22.1 C 71.75 22.08 71.7 21 71.7 21 L 72.6 21 L 72.6 25.6 L 72 25.6 L 71.8 25.2 L 71.7 25.2 C 71.7 25.2 71.75 25.17 71.7 25.2 Z M 71.1 24.9 C 71.4 24.9 71.5 24.9 71.6 24.7 C 71.7 24.6 71.8 24.4 71.8 24.1 C 71.8 24.1 71.8 24 71.8 24 C 71.8 23.6 71.8 23.4 71.6 23.2 C 71.5 23.1 71.4 23 71.1 23 C 70.9 23 70.8 23.1 70.7 23.2 C 70.5 23.4 70.5 23.6 70.5 24 C 70.5 24.3 70.5 24.5 70.7 24.7 C 70.8 24.9 70.9 24.9 71.1 24.9 Z M 74 21.9 C 73.6 21.9 73.5 21.8 73.5 21.5 C 73.5 21.2 73.6 21 74 21 C 74.3 21 74.5 21.2 74.5 21.5 C 74.5 21.6 74.4 21.7 74.3 21.8 C 74.2 21.9 74.1 21.9 74 21.9 C 74 21.9 74 21.9 74 21.9 Z M 74.4 25.6 L 73.5 25.6 L 73.5 22.3 L 74.4 22.3 L 74.4 25.6 Z M 77.4 25.6 L 77.2 25.1 C 77.2 25.1 77.17 25.15 77.2 25.1 C 77 25.3 76.9 25.5 76.7 25.5 C 76.5 25.6 76.3 25.6 76.1 25.6 C 75.8 25.6 75.5 25.6 75.3 25.4 C 75.2 25.2 75.1 24.9 75.1 24.6 C 75.1 24.3 75.2 24 75.4 23.8 C 75.7 23.7 76 23.6 76.5 23.6 C 76.54 23.57 77.1 23.6 77.1 23.6 C 77.1 23.6 77.1 23.41 77.1 23.4 C 77.1 23.1 76.9 22.9 76.6 22.9 C 76.3 22.9 76 23 75.7 23.1 C 75.7 23.1 75.4 22.5 75.4 22.5 C 75.8 22.3 76.2 22.2 76.6 22.2 C 77.1 22.2 77.4 22.3 77.6 22.5 C 77.9 22.7 78 23 78 23.4 C 77.99 23.41 78 25.6 78 25.6 L 77.4 25.6 Z M 77.1 24.1 C 77.1 24.1 76.76 24.08 76.8 24.1 C 76.5 24.1 76.3 24.1 76.2 24.2 C 76.1 24.3 76 24.4 76 24.6 C 76 24.9 76.1 25 76.4 25 C 76.6 25 76.8 24.9 76.9 24.8 C 77 24.7 77.1 24.5 77.1 24.3 C 77.1 24.34 77.1 24.1 77.1 24.1 Z M 84.3 23.4 C 84.3 24.2 84.1 24.7 83.8 25.1 C 83.4 25.5 82.9 25.6 82.3 25.6 C 81.6 25.6 81.1 25.5 80.8 25.1 C 80.4 24.7 80.2 24.2 80.2 23.4 C 80.2 22.7 80.4 22.2 80.8 21.8 C 81.1 21.4 81.6 21.2 82.3 21.2 C 82.9 21.2 83.4 21.4 83.8 21.8 C 84.1 22.2 84.3 22.7 84.3 23.4 Z M 81.2 23.4 C 81.2 23.9 81.3 24.3 81.5 24.5 C 81.6 24.8 81.9 24.9 82.3 24.9 C 83 24.9 83.4 24.4 83.4 23.4 C 83.4 22.5 83 22 82.3 22 C 81.9 22 81.6 22.1 81.5 22.4 C 81.3 22.6 81.2 23 81.2 23.4 Z M 86.9 23 L 86.1 23 L 86.1 25.6 L 85.2 25.6 L 85.2 23 L 84.7 23 L 84.7 22.6 L 85.2 22.3 C 85.2 22.3 85.21 22.08 85.2 22.1 C 85.2 21.7 85.3 21.4 85.5 21.3 C 85.7 21.1 86 21 86.4 21 C 86.7 21 87 21 87.2 21.1 C 87.2 21.1 87 21.8 87 21.8 C 86.8 21.7 86.6 21.7 86.5 21.7 C 86.3 21.7 86.2 21.7 86.2 21.8 C 86.1 21.9 86.1 22 86.1 22.1 C 86.1 22.11 86.1 22.3 86.1 22.3 L 86.9 22.3 L 86.9 23 Z M 89.2 23 L 88.4 23 L 88.4 25.6 L 87.5 25.6 L 87.5 23 L 87 23 L 87 22.6 L 87.5 22.3 C 87.5 22.3 87.53 22.08 87.5 22.1 C 87.5 21.7 87.6 21.4 87.8 21.3 C 88 21.1 88.3 21 88.7 21 C 89 21 89.3 21 89.5 21.1 C 89.5 21.1 89.3 21.8 89.3 21.8 C 89.1 21.7 88.9 21.7 88.8 21.7 C 88.7 21.7 88.6 21.7 88.5 21.8 C 88.5 21.9 88.4 22 88.4 22.1 C 88.43 22.11 88.4 22.3 88.4 22.3 L 89.2 22.3 L 89.2 23 Z M 90.2 21.9 C 89.8 21.9 89.7 21.8 89.7 21.5 C 89.7 21.2 89.8 21 90.2 21 C 90.5 21 90.6 21.2 90.6 21.5 C 90.6 21.6 90.6 21.7 90.5 21.8 C 90.4 21.9 90.3 21.9 90.2 21.9 C 90.2 21.9 90.2 21.9 90.2 21.9 Z M 90.6 25.6 L 89.7 25.6 L 89.7 22.3 L 90.6 22.3 L 90.6 25.6 Z M 92.8 25.6 C 91.8 25.6 91.3 25.1 91.3 24 C 91.3 23.4 91.4 23 91.7 22.7 C 92 22.4 92.4 22.3 92.9 22.3 C 93.3 22.3 93.6 22.3 93.9 22.5 C 93.9 22.5 93.6 23.2 93.6 23.2 C 93.5 23.1 93.4 23.1 93.2 23 C 93.1 23 93 23 92.9 23 C 92.4 23 92.2 23.3 92.2 24 C 92.2 24.6 92.4 24.9 92.9 24.9 C 93.1 24.9 93.2 24.9 93.4 24.9 C 93.5 24.8 93.7 24.7 93.8 24.6 C 93.8 24.6 93.8 25.4 93.8 25.4 C 93.7 25.5 93.5 25.6 93.4 25.6 C 93.2 25.6 93 25.6 92.8 25.6 Z M 95.9 22.9 C 95.7 22.9 95.5 22.9 95.4 23.1 C 95.3 23.2 95.2 23.4 95.2 23.6 C 95.2 23.6 96.5 23.6 96.5 23.6 C 96.5 23.4 96.4 23.2 96.3 23.1 C 96.2 22.9 96 22.9 95.9 22.9 Z M 96 25.6 C 95.5 25.6 95 25.5 94.7 25.2 C 94.4 24.9 94.3 24.5 94.3 24 C 94.3 23.4 94.4 23 94.7 22.7 C 95 22.4 95.4 22.3 95.9 22.3 C 96.3 22.3 96.7 22.4 96.9 22.6 C 97.2 22.9 97.3 23.3 97.3 23.7 C 97.32 23.74 97.3 24.2 97.3 24.2 C 97.3 24.2 95.21 24.18 95.2 24.2 C 95.2 24.4 95.3 24.6 95.4 24.8 C 95.6 24.9 95.8 25 96 25 C 96.2 25 96.4 25 96.6 24.9 C 96.8 24.9 96.9 24.8 97.1 24.7 C 97.1 24.7 97.1 25.4 97.1 25.4 C 97 25.5 96.8 25.6 96.6 25.6 C 96.5 25.6 96.2 25.6 96 25.6 Z M 97.9 25.2 C 97.9 25 97.9 24.9 98 24.8 C 98.1 24.7 98.2 24.7 98.4 24.7 C 98.5 24.7 98.7 24.7 98.8 24.8 C 98.8 24.9 98.9 25 98.9 25.2 C 98.9 25.3 98.8 25.4 98.7 25.5 C 98.7 25.6 98.5 25.7 98.4 25.7 C 98.2 25.7 98.1 25.6 98 25.5 C 97.9 25.5 97.9 25.3 97.9 25.2 Z M 97.9 22.8 C 97.9 22.6 97.9 22.5 98 22.4 C 98.1 22.3 98.2 22.3 98.4 22.3 C 98.5 22.3 98.7 22.3 98.8 22.4 C 98.8 22.5 98.9 22.6 98.9 22.8 C 98.9 22.9 98.8 23 98.7 23.1 C 98.7 23.2 98.5 23.2 98.4 23.2 C 98.2 23.2 98.1 23.2 98 23.1 C 97.9 23 97.9 22.9 97.9 22.8 Z M 103.2 25.6 L 101.7 21.8 C 101.7 21.8 101.67 21.79 101.7 21.8 C 101.7 22.1 101.7 22.5 101.7 22.9 C 101.71 22.87 101.7 25.6 101.7 25.6 L 101.3 25.6 L 101.3 21.3 L 102 21.3 L 103.4 24.8 L 103.4 24.8 L 104.8 21.3 L 105.5 21.3 L 105.5 25.6 L 105 25.6 C 105 25.6 105 22.83 105 22.8 C 105 22.5 105 22.2 105 21.8 C 105.04 21.8 105 21.8 105 21.8 L 103.6 25.6 L 103.2 25.6 Z M 108.5 25.6 L 108.4 25.1 C 108.4 25.1 108.39 25.13 108.4 25.1 C 108.2 25.3 108.1 25.5 107.9 25.5 C 107.8 25.6 107.6 25.6 107.3 25.6 C 107 25.6 106.7 25.6 106.6 25.4 C 106.4 25.2 106.3 25 106.3 24.7 C 106.3 24.1 106.8 23.7 107.9 23.7 C 107.85 23.68 108.4 23.7 108.4 23.7 C 108.4 23.7 108.4 23.47 108.4 23.5 C 108.4 23.2 108.3 23 108.2 22.9 C 108.1 22.8 108 22.7 107.7 22.7 C 107.4 22.7 107.1 22.8 106.8 23 C 106.8 23 106.7 22.6 106.7 22.6 C 106.8 22.5 107 22.4 107.2 22.4 C 107.4 22.4 107.6 22.3 107.7 22.3 C 108.1 22.3 108.4 22.4 108.6 22.6 C 108.8 22.8 108.9 23 108.9 23.4 C 108.87 23.4 108.9 25.6 108.9 25.6 L 108.5 25.6 Z M 107.4 25.2 C 107.7 25.2 108 25.2 108.1 25 C 108.3 24.8 108.4 24.6 108.4 24.3 C 108.39 24.3 108.4 24 108.4 24 C 108.4 24 107.9 24.03 107.9 24 C 107.5 24 107.2 24.1 107.1 24.2 C 106.9 24.3 106.8 24.5 106.8 24.7 C 106.8 24.9 106.9 25 107 25.1 C 107.1 25.2 107.2 25.2 107.4 25.2 Z M 109.7 25.3 C 109.7 25.1 109.8 25.1 109.8 25 C 109.9 24.9 110 24.9 110.1 24.9 C 110.2 24.9 110.3 24.9 110.4 25 C 110.4 25.1 110.5 25.1 110.5 25.3 C 110.5 25.4 110.4 25.5 110.4 25.6 C 110.3 25.6 110.2 25.7 110.1 25.7 C 110 25.7 109.9 25.6 109.8 25.6 C 109.8 25.5 109.7 25.4 109.7 25.3 Z M 114.8 25.6 L 113.4 21.8 C 113.4 21.8 113.34 21.79 113.3 21.8 C 113.4 22.1 113.4 22.5 113.4 22.9 C 113.38 22.87 113.4 25.6 113.4 25.6 L 112.9 25.6 L 112.9 21.3 L 113.7 21.3 L 115 24.8 L 115.1 24.8 L 116.4 21.3 L 117.2 21.3 L 117.2 25.6 L 116.7 25.6 C 116.7 25.6 116.67 22.83 116.7 22.8 C 116.7 22.5 116.7 22.2 116.7 21.8 C 116.71 21.8 116.7 21.8 116.7 21.8 L 115.2 25.6 L 114.8 25.6 Z M 120.2 25.6 L 120.1 25.1 C 120.1 25.1 120.06 25.13 120.1 25.1 C 119.9 25.3 119.7 25.5 119.6 25.5 C 119.4 25.6 119.2 25.6 119 25.6 C 118.7 25.6 118.4 25.6 118.2 25.4 C 118.1 25.2 118 25 118 24.7 C 118 24.1 118.5 23.7 119.5 23.7 C 119.52 23.68 120.1 23.7 120.1 23.7 C 120.1 23.7 120.07 23.47 120.1 23.5 C 120.1 23.2 120 23 119.9 22.9 C 119.8 22.8 119.6 22.7 119.4 22.7 C 119.1 22.7 118.8 22.8 118.5 23 C 118.5 23 118.3 22.6 118.3 22.6 C 118.5 22.5 118.7 22.4 118.8 22.4 C 119 22.4 119.2 22.3 119.4 22.3 C 119.8 22.3 120.1 22.4 120.3 22.6 C 120.5 22.8 120.5 23 120.5 23.4 C 120.54 23.4 120.5 25.6 120.5 25.6 L 120.2 25.6 Z M 119.1 25.2 C 119.4 25.2 119.6 25.2 119.8 25 C 120 24.8 120.1 24.6 120.1 24.3 C 120.06 24.3 120.1 24 120.1 24 C 120.1 24 119.57 24.03 119.6 24 C 119.2 24 118.9 24.1 118.7 24.2 C 118.6 24.3 118.5 24.5 118.5 24.7 C 118.5 24.9 118.5 25 118.6 25.1 C 118.7 25.2 118.9 25.2 119.1 25.2 Z M 123.7 25.6 C 123.7 25.6 123.68 23.51 123.7 23.5 C 123.7 23.3 123.6 23.1 123.5 22.9 C 123.4 22.8 123.2 22.7 122.9 22.7 C 122.6 22.7 122.4 22.8 122.2 23 C 122 23.2 122 23.5 122 23.9 C 121.97 23.91 122 25.6 122 25.6 L 121.5 25.6 L 121.5 22.4 L 121.9 22.4 L 122 22.8 C 122 22.8 121.98 22.82 122 22.8 C 122.1 22.7 122.2 22.5 122.4 22.5 C 122.6 22.4 122.8 22.3 123 22.3 C 123.4 22.3 123.7 22.4 123.9 22.6 C 124.1 22.8 124.2 23.1 124.2 23.5 C 124.17 23.5 124.2 25.6 124.2 25.6 L 123.7 25.6 Z M 125.6 22.4 C 125.6 22.4 125.56 24.46 125.6 24.5 C 125.6 24.7 125.6 24.9 125.7 25 C 125.9 25.2 126 25.2 126.3 25.2 C 126.6 25.2 126.9 25.2 127 25 C 127.2 24.8 127.3 24.5 127.3 24.1 C 127.27 24.07 127.3 22.4 127.3 22.4 L 127.8 22.4 L 127.8 25.6 L 127.4 25.6 L 127.3 25.2 C 127.3 25.2 127.26 25.16 127.3 25.2 C 127.2 25.3 127 25.4 126.8 25.5 C 126.7 25.6 126.5 25.6 126.2 25.6 C 125.9 25.6 125.6 25.6 125.4 25.4 C 125.2 25.2 125.1 24.9 125.1 24.5 C 125.07 24.48 125.1 22.4 125.1 22.4 L 125.6 22.4 Z M 130.1 25.6 C 129.6 25.6 129.2 25.5 129 25.2 C 128.7 24.9 128.6 24.5 128.6 24 C 128.6 23.5 128.7 23.1 128.9 22.8 C 129.2 22.5 129.5 22.3 130 22.3 C 130.4 22.3 130.7 22.5 130.9 22.7 C 131.1 23 131.3 23.3 131.3 23.8 C 131.27 23.77 131.3 24.1 131.3 24.1 C 131.3 24.1 129.06 24.07 129.1 24.1 C 129.1 24.5 129.2 24.7 129.3 24.9 C 129.5 25.1 129.8 25.2 130.1 25.2 C 130.4 25.2 130.8 25.2 131.1 25 C 131.1 25 131.1 25.4 131.1 25.4 C 131 25.5 130.8 25.6 130.6 25.6 C 130.5 25.6 130.3 25.6 130.1 25.6 Z M 130 22.7 C 129.7 22.7 129.5 22.8 129.3 23 C 129.2 23.1 129.1 23.4 129.1 23.7 C 129.1 23.7 130.7 23.7 130.7 23.7 C 130.7 23.4 130.7 23.1 130.5 23 C 130.4 22.8 130.2 22.7 130 22.7 Z M 132.5 25.6 L 132 25.6 L 132 21 L 132.5 21 L 132.5 25.6 Z M 135.5 25.6 L 135.4 25.1 C 135.4 25.1 135.35 25.13 135.3 25.1 C 135.2 25.3 135 25.5 134.9 25.5 C 134.7 25.6 134.5 25.6 134.3 25.6 C 134 25.6 133.7 25.6 133.5 25.4 C 133.3 25.2 133.3 25 133.3 24.7 C 133.3 24.1 133.8 23.7 134.8 23.7 C 134.81 23.68 135.4 23.7 135.4 23.7 C 135.4 23.7 135.35 23.47 135.4 23.5 C 135.4 23.2 135.3 23 135.2 22.9 C 135.1 22.8 134.9 22.7 134.7 22.7 C 134.4 22.7 134.1 22.8 133.8 23 C 133.8 23 133.6 22.6 133.6 22.6 C 133.8 22.5 133.9 22.4 134.1 22.4 C 134.3 22.4 134.5 22.3 134.7 22.3 C 135.1 22.3 135.4 22.4 135.6 22.6 C 135.7 22.8 135.8 23 135.8 23.4 C 135.83 23.4 135.8 25.6 135.8 25.6 L 135.5 25.6 Z M 134.4 25.2 C 134.7 25.2 134.9 25.2 135.1 25 C 135.3 24.8 135.3 24.6 135.3 24.3 C 135.34 24.3 135.3 24 135.3 24 C 135.3 24 134.86 24.03 134.9 24 C 134.5 24 134.2 24.1 134 24.2 C 133.8 24.3 133.8 24.5 133.8 24.7 C 133.8 24.9 133.8 25 133.9 25.1 C 134 25.2 134.2 25.2 134.4 25.2 Z M 140.8 24.5 C 140.8 24.8 140.6 25.1 140.3 25.3 C 140.1 25.5 139.7 25.6 139.2 25.6 C 138.7 25.6 138.3 25.6 138.1 25.5 C 138.1 25.5 138.1 25 138.1 25 C 138.2 25 138.4 25.1 138.6 25.1 C 138.8 25.2 139.1 25.2 139.3 25.2 C 139.6 25.2 139.8 25.1 140 25 C 140.2 24.9 140.3 24.7 140.3 24.5 C 140.3 24.3 140.2 24.2 140.2 24.1 C 140.1 24 140 24 139.9 23.9 C 139.7 23.8 139.5 23.7 139.2 23.6 C 138.8 23.5 138.5 23.3 138.4 23.1 C 138.2 22.9 138.1 22.6 138.1 22.3 C 138.1 22 138.2 21.7 138.5 21.5 C 138.7 21.3 139.1 21.2 139.5 21.2 C 139.9 21.2 140.3 21.3 140.7 21.5 C 140.7 21.5 140.5 21.9 140.5 21.9 C 140.1 21.8 139.8 21.7 139.5 21.7 C 139.2 21.7 139 21.7 138.8 21.9 C 138.7 22 138.6 22.1 138.6 22.3 C 138.6 22.5 138.7 22.6 138.7 22.7 C 138.8 22.8 138.9 22.9 139 23 C 139.1 23 139.3 23.1 139.6 23.2 C 140 23.4 140.3 23.6 140.5 23.7 C 140.7 23.9 140.8 24.2 140.8 24.5 Z M 144.3 24 C 144.3 24.5 144.1 24.9 143.9 25.2 C 143.6 25.5 143.3 25.6 142.8 25.6 C 142.5 25.6 142.2 25.6 142 25.4 C 141.8 25.3 141.6 25.1 141.5 24.9 C 141.4 24.6 141.3 24.3 141.3 24 C 141.3 23.5 141.5 23.1 141.7 22.8 C 142 22.5 142.3 22.3 142.8 22.3 C 143.3 22.3 143.6 22.5 143.9 22.8 C 144.1 23.1 144.3 23.5 144.3 24 Z M 141.8 24 C 141.8 24.4 141.9 24.7 142.1 24.9 C 142.2 25.1 142.5 25.2 142.8 25.2 C 143.1 25.2 143.4 25.1 143.5 24.9 C 143.7 24.7 143.8 24.4 143.8 24 C 143.8 23.6 143.7 23.3 143.5 23.1 C 143.4 22.8 143.1 22.7 142.8 22.7 C 142.5 22.7 142.2 22.8 142.1 23 C 141.9 23.3 141.8 23.6 141.8 24 Z M 146.5 22.3 C 146.7 22.3 146.8 22.3 146.9 22.4 C 146.9 22.4 146.8 22.8 146.8 22.8 C 146.7 22.8 146.6 22.8 146.5 22.8 C 146.2 22.8 146 22.9 145.8 23.1 C 145.6 23.3 145.6 23.6 145.6 23.9 C 145.55 23.87 145.6 25.6 145.6 25.6 L 145.1 25.6 L 145.1 22.4 L 145.5 22.4 L 145.5 23 C 145.5 23 145.55 22.97 145.5 23 C 145.7 22.8 145.8 22.6 146 22.5 C 146.1 22.4 146.3 22.3 146.5 22.3 Z M 147.9 25.6 L 147.5 25.6 L 147.5 22.4 L 147.9 22.4 L 147.9 25.6 Z M 147.4 21.5 C 147.4 21.4 147.4 21.3 147.5 21.3 C 147.6 21.2 147.6 21.2 147.7 21.2 C 147.8 21.2 147.8 21.2 147.9 21.3 C 148 21.3 148 21.4 148 21.5 C 148 21.6 148 21.7 147.9 21.8 C 147.8 21.8 147.8 21.8 147.7 21.8 C 147.6 21.8 147.6 21.8 147.5 21.8 C 147.4 21.7 147.4 21.6 147.4 21.5 Z M 150.9 25.6 L 150.8 25.1 C 150.8 25.1 150.77 25.13 150.8 25.1 C 150.6 25.3 150.4 25.5 150.3 25.5 C 150.1 25.6 149.9 25.6 149.7 25.6 C 149.4 25.6 149.1 25.6 148.9 25.4 C 148.8 25.2 148.7 25 148.7 24.7 C 148.7 24.1 149.2 23.7 150.2 23.7 C 150.23 23.68 150.8 23.7 150.8 23.7 C 150.8 23.7 150.77 23.47 150.8 23.5 C 150.8 23.2 150.7 23 150.6 22.9 C 150.5 22.8 150.3 22.7 150.1 22.7 C 149.8 22.7 149.5 22.8 149.2 23 C 149.2 23 149 22.6 149 22.6 C 149.2 22.5 149.4 22.4 149.6 22.4 C 149.7 22.4 149.9 22.3 150.1 22.3 C 150.5 22.3 150.8 22.4 151 22.6 C 151.2 22.8 151.2 23 151.2 23.4 C 151.25 23.4 151.2 25.6 151.2 25.6 L 150.9 25.6 Z M 149.8 25.2 C 150.1 25.2 150.3 25.2 150.5 25 C 150.7 24.8 150.8 24.6 150.8 24.3 C 150.76 24.3 150.8 24 150.8 24 C 150.8 24 150.28 24.03 150.3 24 C 149.9 24 149.6 24.1 149.4 24.2 C 149.3 24.3 149.2 24.5 149.2 24.7 C 149.2 24.9 149.2 25 149.3 25.1 C 149.4 25.2 149.6 25.2 149.8 25.2 Z M 154.4 25.6 C 154.4 25.6 154.39 23.51 154.4 23.5 C 154.4 23.3 154.3 23.1 154.2 22.9 C 154.1 22.8 153.9 22.7 153.6 22.7 C 153.3 22.7 153.1 22.8 152.9 23 C 152.8 23.2 152.7 23.5 152.7 23.9 C 152.68 23.91 152.7 25.6 152.7 25.6 L 152.2 25.6 L 152.2 22.4 L 152.6 22.4 L 152.7 22.8 C 152.7 22.8 152.69 22.82 152.7 22.8 C 152.8 22.7 152.9 22.5 153.1 22.5 C 153.3 22.4 153.5 22.3 153.7 22.3 C 154.1 22.3 154.4 22.4 154.6 22.6 C 154.8 22.8 154.9 23.1 154.9 23.5 C 154.87 23.5 154.9 25.6 154.9 25.6 L 154.4 25.6 Z M 158.6 24 C 158.6 24.5 158.5 24.9 158.2 25.2 C 157.9 25.5 157.6 25.6 157.1 25.6 C 156.8 25.6 156.6 25.6 156.3 25.4 C 156.1 25.3 155.9 25.1 155.8 24.9 C 155.7 24.6 155.6 24.3 155.6 24 C 155.6 23.5 155.8 23.1 156 22.8 C 156.3 22.5 156.7 22.3 157.1 22.3 C 157.6 22.3 157.9 22.5 158.2 22.8 C 158.5 23.1 158.6 23.5 158.6 24 Z M 156.1 24 C 156.1 24.4 156.2 24.7 156.4 24.9 C 156.5 25.1 156.8 25.2 157.1 25.2 C 157.4 25.2 157.7 25.1 157.8 24.9 C 158 24.7 158.1 24.4 158.1 24 C 158.1 23.6 158 23.3 157.8 23.1 C 157.7 22.8 157.4 22.7 157.1 22.7 C 156.8 22.7 156.5 22.8 156.4 23 C 156.2 23.3 156.1 23.6 156.1 24 Z M 159.1 24.2 L 159.1 23.8 L 160.5 23.8 L 160.5 24.2 L 159.1 24.2 Z M 164 25.6 L 163.5 24.2 L 161.8 24.2 L 161.2 25.6 L 160.7 25.6 L 162.4 21.3 L 162.8 21.3 L 164.5 25.6 L 164 25.6 Z M 163.3 23.8 C 163.3 23.8 162.83 22.45 162.8 22.5 C 162.8 22.3 162.7 22.1 162.6 21.8 C 162.6 22 162.5 22.2 162.4 22.5 C 162.44 22.45 161.9 23.8 161.9 23.8 L 163.3 23.8 Z M 167.6 22.4 L 167.6 22.7 C 167.6 22.7 167.02 22.76 167 22.8 C 167.1 22.8 167.1 22.9 167.2 23 C 167.2 23.1 167.2 23.3 167.2 23.4 C 167.2 23.7 167.1 24 166.9 24.2 C 166.7 24.3 166.4 24.4 166 24.4 C 165.9 24.4 165.8 24.4 165.8 24.4 C 165.5 24.5 165.4 24.7 165.4 24.8 C 165.4 24.9 165.5 25 165.5 25 C 165.6 25.1 165.7 25.1 165.9 25.1 C 165.9 25.1 166.5 25.1 166.5 25.1 C 166.8 25.1 167.1 25.2 167.3 25.3 C 167.5 25.4 167.6 25.7 167.6 25.9 C 167.6 26.3 167.4 26.6 167.1 26.8 C 166.9 26.9 166.4 27 165.9 27 C 165.5 27 165.2 27 164.9 26.8 C 164.7 26.6 164.6 26.4 164.6 26.1 C 164.6 25.9 164.6 25.8 164.8 25.6 C 164.9 25.5 165.1 25.4 165.3 25.3 C 165.2 25.3 165.1 25.2 165.1 25.2 C 165 25.1 165 25 165 24.9 C 165 24.8 165 24.7 165.1 24.6 C 165.2 24.5 165.3 24.4 165.4 24.3 C 165.2 24.3 165.1 24.1 165 24 C 164.9 23.8 164.8 23.6 164.8 23.4 C 164.8 23.1 164.9 22.8 165.2 22.6 C 165.4 22.4 165.7 22.3 166 22.3 C 166.2 22.3 166.4 22.3 166.5 22.4 C 166.5 22.38 167.6 22.4 167.6 22.4 Z M 165.1 26.1 C 165.1 26.3 165.1 26.4 165.3 26.5 C 165.4 26.6 165.6 26.7 165.9 26.7 C 166.3 26.7 166.6 26.6 166.8 26.5 C 167 26.4 167.1 26.2 167.1 26 C 167.1 25.8 167 25.7 166.9 25.6 C 166.8 25.6 166.6 25.5 166.3 25.5 C 166.3 25.5 165.8 25.5 165.8 25.5 C 165.5 25.5 165.4 25.6 165.2 25.7 C 165.1 25.8 165.1 25.9 165.1 26.1 Z M 165.3 23.4 C 165.3 23.6 165.4 23.8 165.5 23.9 C 165.6 24 165.8 24.1 166 24.1 C 166.5 24.1 166.7 23.9 166.7 23.4 C 166.7 22.9 166.5 22.7 166 22.7 C 165.8 22.7 165.6 22.7 165.5 22.9 C 165.4 23 165.3 23.2 165.3 23.4 Z M 170.4 25.2 C 170.4 25.2 170.37 25.16 170.4 25.2 C 170.1 25.5 169.8 25.6 169.4 25.6 C 168.9 25.6 168.6 25.5 168.4 25.2 C 168.1 24.9 168 24.5 168 24 C 168 23.5 168.1 23.1 168.4 22.8 C 168.6 22.5 168.9 22.3 169.4 22.3 C 169.8 22.3 170.1 22.5 170.4 22.8 C 170.36 22.8 170.4 22.8 170.4 22.8 L 170.4 22.6 L 170.4 22.3 L 170.4 21 L 170.9 21 L 170.9 25.6 L 170.5 25.6 L 170.4 25.2 Z M 169.4 25.2 C 169.8 25.2 170 25.2 170.1 25 C 170.3 24.8 170.4 24.5 170.4 24.1 C 170.4 24.1 170.4 24 170.4 24 C 170.4 23.5 170.3 23.2 170.1 23 C 170 22.8 169.8 22.7 169.4 22.7 C 169.1 22.7 168.9 22.8 168.8 23.1 C 168.6 23.3 168.5 23.6 168.5 24 C 168.5 24.4 168.6 24.7 168.8 24.9 C 168.9 25.1 169.1 25.2 169.4 25.2 Z M 173.2 25.6 C 172.7 25.6 172.3 25.5 172.1 25.2 C 171.8 24.9 171.6 24.5 171.6 24 C 171.6 23.5 171.8 23.1 172 22.8 C 172.3 22.5 172.6 22.3 173.1 22.3 C 173.5 22.3 173.8 22.5 174 22.7 C 174.2 23 174.4 23.3 174.4 23.8 C 174.37 23.77 174.4 24.1 174.4 24.1 C 174.4 24.1 172.15 24.07 172.2 24.1 C 172.2 24.5 172.3 24.7 172.4 24.9 C 172.6 25.1 172.9 25.2 173.2 25.2 C 173.5 25.2 173.9 25.2 174.2 25 C 174.2 25 174.2 25.4 174.2 25.4 C 174.1 25.5 173.9 25.6 173.7 25.6 C 173.6 25.6 173.4 25.6 173.2 25.6 Z M 173.1 22.7 C 172.8 22.7 172.6 22.8 172.4 23 C 172.3 23.1 172.2 23.4 172.2 23.7 C 172.2 23.7 173.8 23.7 173.8 23.7 C 173.8 23.4 173.8 23.1 173.6 23 C 173.5 22.8 173.3 22.7 173.1 22.7 Z M 176.6 25.6 C 176.4 25.6 176.2 25.6 176.1 25.5 C 175.9 25.5 175.7 25.3 175.6 25.2 C 175.6 25.2 175.6 25.2 175.6 25.2 C 175.6 25.4 175.6 25.5 175.6 25.7 C 175.62 25.71 175.6 27 175.6 27 L 175.1 27 L 175.1 22.4 L 175.5 22.4 L 175.6 22.8 C 175.6 22.8 175.62 22.82 175.6 22.8 C 175.7 22.6 175.9 22.5 176.1 22.4 C 176.2 22.4 176.4 22.3 176.6 22.3 C 177.1 22.3 177.4 22.5 177.6 22.8 C 177.8 23 178 23.5 178 24 C 178 24.5 177.8 24.9 177.6 25.2 C 177.4 25.5 177 25.6 176.6 25.6 Z M 176.6 22.7 C 176.2 22.7 176 22.8 175.8 23 C 175.7 23.2 175.6 23.5 175.6 23.9 C 175.6 23.9 175.6 24 175.6 24 C 175.6 24.4 175.7 24.8 175.8 25 C 176 25.1 176.2 25.2 176.6 25.2 C 176.8 25.2 177.1 25.1 177.2 24.9 C 177.4 24.7 177.5 24.4 177.5 24 C 177.5 23.6 177.4 23.3 177.2 23.1 C 177.1 22.8 176.8 22.7 176.6 22.7 Z M 180.2 25.6 C 180 25.6 179.8 25.6 179.7 25.5 C 179.5 25.5 179.4 25.3 179.2 25.2 C 179.2 25.2 179.2 25.2 179.2 25.2 C 179.2 25.4 179.2 25.5 179.2 25.7 C 179.24 25.71 179.2 27 179.2 27 L 178.8 27 L 178.8 22.4 L 179.1 22.4 L 179.2 22.8 C 179.2 22.8 179.24 22.82 179.2 22.8 C 179.4 22.6 179.5 22.5 179.7 22.4 C 179.8 22.4 180 22.3 180.2 22.3 C 180.7 22.3 181 22.5 181.2 22.8 C 181.5 23 181.6 23.5 181.6 24 C 181.6 24.5 181.5 24.9 181.2 25.2 C 181 25.5 180.7 25.6 180.2 25.6 Z M 180.2 22.7 C 179.8 22.7 179.6 22.8 179.5 23 C 179.3 23.2 179.2 23.5 179.2 23.9 C 179.2 23.9 179.2 24 179.2 24 C 179.2 24.4 179.3 24.8 179.5 25 C 179.6 25.1 179.9 25.2 180.2 25.2 C 180.5 25.2 180.7 25.1 180.8 24.9 C 181 24.7 181.1 24.4 181.1 24 C 181.1 23.6 181 23.3 180.8 23.1 C 180.7 22.8 180.5 22.7 180.2 22.7 Z M 184.3 25.6 L 184.2 25.1 C 184.2 25.1 184.22 25.13 184.2 25.1 C 184.1 25.3 183.9 25.5 183.7 25.5 C 183.6 25.6 183.4 25.6 183.1 25.6 C 182.8 25.6 182.6 25.6 182.4 25.4 C 182.2 25.2 182.1 25 182.1 24.7 C 182.1 24.1 182.6 23.7 183.7 23.7 C 183.68 23.68 184.2 23.7 184.2 23.7 C 184.2 23.7 184.23 23.47 184.2 23.5 C 184.2 23.2 184.2 23 184.1 22.9 C 184 22.8 183.8 22.7 183.5 22.7 C 183.3 22.7 183 22.8 182.6 23 C 182.6 23 182.5 22.6 182.5 22.6 C 182.6 22.5 182.8 22.4 183 22.4 C 183.2 22.4 183.4 22.3 183.6 22.3 C 184 22.3 184.2 22.4 184.4 22.6 C 184.6 22.8 184.7 23 184.7 23.4 C 184.7 23.4 184.7 25.6 184.7 25.6 L 184.3 25.6 Z M 183.2 25.2 C 183.5 25.2 183.8 25.2 184 25 C 184.1 24.8 184.2 24.6 184.2 24.3 C 184.22 24.3 184.2 24 184.2 24 C 184.2 24 183.73 24.03 183.7 24 C 183.3 24 183.1 24.1 182.9 24.2 C 182.7 24.3 182.6 24.5 182.6 24.7 C 182.6 24.9 182.7 25 182.8 25.1 C 182.9 25.2 183.1 25.2 183.2 25.2 Z " stroke="none" fill="#000"/>
  </g>
  <g id="Polygon17726">
    <path d="M 4 18.6 L 3 18.6 L 1.8 16.8 L 1.4 17.1 L 1.4 18.6 L 0.5 18.6 L 0.5 14.3 L 1.4 14.3 L 1.4 16.3 L 1.8 15.8 L 3 14.3 L 4 14.3 L 2.5 16.2 L 4 18.6 Z M 5.1 16.9 C 5.1 17.3 5.2 17.5 5.3 17.7 C 5.4 17.8 5.5 17.9 5.8 17.9 C 6 17.9 6.2 17.8 6.3 17.7 C 6.4 17.5 6.5 17.3 6.5 16.9 C 6.5 16.6 6.4 16.4 6.3 16.2 C 6.2 16.1 6 16 5.8 16 C 5.5 16 5.4 16.1 5.3 16.2 C 5.2 16.4 5.1 16.6 5.1 16.9 Z M 7.4 16.9 C 7.4 17.5 7.2 17.9 6.9 18.2 C 6.7 18.5 6.3 18.6 5.8 18.6 C 5.5 18.6 5.2 18.6 4.9 18.4 C 4.7 18.3 4.5 18.1 4.4 17.8 C 4.3 17.6 4.2 17.3 4.2 16.9 C 4.2 16.4 4.3 16 4.6 15.7 C 4.9 15.4 5.3 15.3 5.8 15.3 C 6.1 15.3 6.4 15.3 6.6 15.5 C 6.9 15.6 7 15.8 7.2 16 C 7.3 16.3 7.4 16.6 7.4 16.9 Z M 8.8 16.9 C 8.8 17.3 8.8 17.5 8.9 17.7 C 9 17.8 9.2 17.9 9.4 17.9 C 9.7 17.9 9.8 17.8 10 17.7 C 10.1 17.5 10.1 17.3 10.1 16.9 C 10.1 16.6 10.1 16.4 10 16.2 C 9.8 16.1 9.7 16 9.4 16 C 9.2 16 9 16.1 8.9 16.2 C 8.8 16.4 8.8 16.6 8.8 16.9 Z M 11 16.9 C 11 17.5 10.9 17.9 10.6 18.2 C 10.3 18.5 9.9 18.6 9.4 18.6 C 9.1 18.6 8.8 18.6 8.6 18.4 C 8.4 18.3 8.2 18.1 8 17.8 C 7.9 17.6 7.8 17.3 7.8 16.9 C 7.8 16.4 8 16 8.3 15.7 C 8.5 15.4 8.9 15.3 9.4 15.3 C 9.8 15.3 10 15.3 10.3 15.5 C 10.5 15.6 10.7 15.8 10.8 16 C 11 16.3 11 16.6 11 16.9 Z M 13.5 15.3 C 13.7 15.3 13.8 15.3 13.8 15.3 C 13.8 15.3 13.8 16.1 13.8 16.1 C 13.7 16.1 13.6 16.1 13.5 16.1 C 13.2 16.1 13 16.2 12.8 16.3 C 12.7 16.5 12.6 16.7 12.6 16.9 C 12.6 16.92 12.6 18.6 12.6 18.6 L 11.7 18.6 L 11.7 15.3 L 12.4 15.3 L 12.5 15.9 C 12.5 15.9 12.56 15.87 12.6 15.9 C 12.7 15.7 12.8 15.5 13 15.4 C 13.1 15.3 13.3 15.3 13.5 15.3 Z M 16.3 18.2 C 16.1 18.5 15.8 18.6 15.4 18.6 C 15 18.6 14.7 18.5 14.5 18.2 C 14.3 17.9 14.2 17.5 14.2 17 C 14.2 16.4 14.3 16 14.5 15.7 C 14.7 15.4 15 15.3 15.4 15.3 C 15.8 15.3 16.2 15.4 16.4 15.7 C 16.4 15.7 16.4 15.7 16.4 15.7 C 16.4 15.5 16.3 15.3 16.3 15.1 C 16.33 15.08 16.3 14 16.3 14 L 17.2 14 L 17.2 18.6 L 16.5 18.6 L 16.4 18.2 L 16.3 18.2 C 16.3 18.2 16.33 18.17 16.3 18.2 Z M 15.7 17.9 C 15.9 17.9 16.1 17.9 16.2 17.7 C 16.3 17.6 16.4 17.4 16.4 17.1 C 16.4 17.1 16.4 17 16.4 17 C 16.4 16.6 16.3 16.4 16.2 16.2 C 16.1 16.1 15.9 16 15.7 16 C 15.5 16 15.3 16.1 15.2 16.2 C 15.1 16.4 15.1 16.6 15.1 17 C 15.1 17.3 15.1 17.5 15.2 17.7 C 15.4 17.9 15.5 17.9 15.7 17.9 Z M 18.6 14.9 C 18.2 14.9 18.1 14.8 18.1 14.5 C 18.1 14.2 18.2 14 18.6 14 C 18.9 14 19 14.2 19 14.5 C 19 14.6 19 14.7 18.9 14.8 C 18.8 14.9 18.7 14.9 18.6 14.9 C 18.6 14.9 18.6 14.9 18.6 14.9 Z M 19 18.6 L 18.1 18.6 L 18.1 15.3 L 19 15.3 L 19 18.6 Z M 22.9 18.6 L 22 18.6 C 22 18.6 22.01 16.68 22 16.7 C 22 16.4 22 16.3 21.9 16.1 C 21.8 16 21.7 16 21.5 16 C 21.2 16 21 16.1 20.9 16.2 C 20.8 16.4 20.8 16.7 20.8 17 C 20.77 17.05 20.8 18.6 20.8 18.6 L 19.9 18.6 L 19.9 15.3 L 20.6 15.3 L 20.7 15.7 C 20.7 15.7 20.73 15.73 20.7 15.7 C 20.8 15.6 21 15.5 21.1 15.4 C 21.3 15.3 21.5 15.3 21.7 15.3 C 22.1 15.3 22.4 15.4 22.6 15.6 C 22.8 15.8 22.9 16.1 22.9 16.5 C 22.9 16.46 22.9 18.6 22.9 18.6 Z M 25.1 15.9 C 24.9 15.9 24.8 15.9 24.7 16.1 C 24.6 16.2 24.5 16.4 24.5 16.6 C 24.5 16.6 25.7 16.6 25.7 16.6 C 25.7 16.4 25.7 16.2 25.6 16.1 C 25.5 15.9 25.3 15.9 25.1 15.9 Z M 25.2 18.6 C 24.7 18.6 24.3 18.5 24 18.2 C 23.7 17.9 23.6 17.5 23.6 17 C 23.6 16.4 23.7 16 24 15.7 C 24.2 15.4 24.6 15.3 25.1 15.3 C 25.6 15.3 25.9 15.4 26.2 15.6 C 26.4 15.9 26.6 16.3 26.6 16.7 C 26.58 16.74 26.6 17.2 26.6 17.2 C 26.6 17.2 24.46 17.18 24.5 17.2 C 24.5 17.4 24.5 17.6 24.7 17.8 C 24.8 17.9 25 18 25.3 18 C 25.5 18 25.7 18 25.8 17.9 C 26 17.9 26.2 17.8 26.4 17.7 C 26.4 17.7 26.4 18.4 26.4 18.4 C 26.2 18.5 26.1 18.6 25.9 18.6 C 25.7 18.6 25.5 18.6 25.2 18.6 Z M 26.8 15.3 L 27.8 15.3 C 27.8 15.3 28.37 17.16 28.4 17.2 C 28.4 17.3 28.5 17.5 28.5 17.7 C 28.5 17.7 28.5 17.7 28.5 17.7 C 28.5 17.5 28.6 17.3 28.6 17.2 C 28.62 17.16 29.2 15.3 29.2 15.3 L 30.2 15.3 C 30.2 15.3 28.8 19.01 28.8 19 C 28.7 19.4 28.5 19.6 28.3 19.8 C 28 19.9 27.7 20 27.4 20 C 27.3 20 27.1 20 27 20 C 27 20 27 19.3 27 19.3 C 27.1 19.3 27.2 19.3 27.3 19.3 C 27.5 19.3 27.6 19.3 27.7 19.2 C 27.9 19.1 28 18.9 28 18.7 C 28.02 18.73 28.1 18.6 28.1 18.6 L 26.8 15.3 Z M 32 17.9 C 32.1 17.9 32.3 17.9 32.5 17.8 C 32.5 17.8 32.5 18.5 32.5 18.5 C 32.3 18.6 32 18.6 31.7 18.6 C 31.4 18.6 31.1 18.6 30.9 18.4 C 30.8 18.2 30.7 17.9 30.7 17.6 C 30.69 17.57 30.7 16 30.7 16 L 30.3 16 L 30.3 15.6 L 30.8 15.3 L 31 14.6 L 31.6 14.6 L 31.6 15.3 L 32.5 15.3 L 32.5 16 L 31.6 16 C 31.6 16 31.59 17.57 31.6 17.6 C 31.6 17.7 31.6 17.8 31.7 17.8 C 31.8 17.9 31.9 17.9 32 17.9 Z M 33.9 16.9 C 33.9 17.3 33.9 17.5 34 17.7 C 34.1 17.8 34.3 17.9 34.5 17.9 C 34.8 17.9 34.9 17.8 35 17.7 C 35.2 17.5 35.2 17.3 35.2 16.9 C 35.2 16.6 35.2 16.4 35 16.2 C 34.9 16.1 34.8 16 34.5 16 C 34.3 16 34.1 16.1 34 16.2 C 33.9 16.4 33.9 16.6 33.9 16.9 Z M 36.1 16.9 C 36.1 17.5 36 17.9 35.7 18.2 C 35.4 18.5 35 18.6 34.5 18.6 C 34.2 18.6 33.9 18.6 33.7 18.4 C 33.4 18.3 33.3 18.1 33.1 17.8 C 33 17.6 32.9 17.3 32.9 16.9 C 32.9 16.4 33.1 16 33.4 15.7 C 33.6 15.4 34 15.3 34.5 15.3 C 34.9 15.3 35.1 15.3 35.4 15.5 C 35.6 15.6 35.8 15.8 35.9 16 C 36.1 16.3 36.1 16.6 36.1 16.9 Z M 38.6 15.3 C 38.7 15.3 38.8 15.3 38.9 15.3 C 38.9 15.3 38.9 16.1 38.9 16.1 C 38.8 16.1 38.7 16.1 38.6 16.1 C 38.3 16.1 38.1 16.2 37.9 16.3 C 37.8 16.5 37.7 16.7 37.7 16.9 C 37.69 16.92 37.7 18.6 37.7 18.6 L 36.8 18.6 L 36.8 15.3 L 37.5 15.3 L 37.6 15.9 C 37.6 15.9 37.65 15.87 37.6 15.9 C 37.8 15.7 37.9 15.5 38.1 15.4 C 38.2 15.3 38.4 15.3 38.6 15.3 Z M 40.3 18 C 40.2 18.4 40.1 18.8 39.8 19.4 C 39.8 19.4 39.2 19.4 39.2 19.4 C 39.3 18.8 39.4 18.4 39.5 17.9 C 39.47 17.89 40.3 17.9 40.3 17.9 C 40.3 17.9 40.34 17.96 40.3 18 Z M 45.2 17.4 C 45.2 17.8 45.1 18.1 44.8 18.3 C 44.5 18.5 44.2 18.6 43.7 18.6 C 43.2 18.6 42.8 18.6 42.4 18.4 C 42.4 18.4 42.4 17.5 42.4 17.5 C 42.7 17.7 43 17.8 43.2 17.8 C 43.4 17.9 43.6 17.9 43.7 17.9 C 43.9 17.9 44.1 17.9 44.2 17.8 C 44.3 17.7 44.3 17.6 44.3 17.4 C 44.3 17.4 44.3 17.3 44.3 17.2 C 44.2 17.2 44.2 17.1 44.1 17 C 44 17 43.8 16.9 43.5 16.7 C 43.3 16.6 43.1 16.5 42.9 16.4 C 42.8 16.3 42.7 16.1 42.6 16 C 42.5 15.8 42.5 15.7 42.5 15.5 C 42.5 15.1 42.6 14.8 42.9 14.6 C 43.1 14.4 43.5 14.2 43.9 14.2 C 44.2 14.2 44.4 14.3 44.6 14.3 C 44.8 14.4 45 14.5 45.2 14.5 C 45.2 14.5 44.9 15.3 44.9 15.3 C 44.7 15.2 44.5 15.1 44.4 15.1 C 44.2 15 44.1 15 43.9 15 C 43.7 15 43.6 15 43.5 15.1 C 43.4 15.2 43.4 15.3 43.4 15.4 C 43.4 15.5 43.4 15.6 43.4 15.6 C 43.5 15.7 43.5 15.8 43.6 15.8 C 43.7 15.9 43.9 16 44.2 16.1 C 44.6 16.3 44.9 16.5 45 16.7 C 45.2 16.9 45.2 17.1 45.2 17.4 Z M 47.3 17.9 C 47.4 17.9 47.6 17.9 47.8 17.8 C 47.8 17.8 47.8 18.5 47.8 18.5 C 47.6 18.6 47.3 18.6 47 18.6 C 46.6 18.6 46.4 18.6 46.2 18.4 C 46.1 18.2 46 17.9 46 17.6 C 45.98 17.57 46 16 46 16 L 45.6 16 L 45.6 15.6 L 46 15.3 L 46.3 14.6 L 46.9 14.6 L 46.9 15.3 L 47.8 15.3 L 47.8 16 L 46.9 16 C 46.9 16 46.87 17.57 46.9 17.6 C 46.9 17.7 46.9 17.8 47 17.8 C 47.1 17.9 47.1 17.9 47.3 17.9 Z M 50.7 18.6 L 50.6 18.2 C 50.6 18.2 50.58 18.17 50.6 18.2 C 50.5 18.3 50.4 18.4 50.2 18.5 C 50 18.6 49.8 18.6 49.6 18.6 C 49.2 18.6 48.9 18.5 48.7 18.3 C 48.5 18.1 48.4 17.8 48.4 17.5 C 48.41 17.45 48.4 15.3 48.4 15.3 L 49.3 15.3 C 49.3 15.3 49.3 17.23 49.3 17.2 C 49.3 17.5 49.3 17.6 49.4 17.8 C 49.5 17.9 49.6 17.9 49.8 17.9 C 50.1 17.9 50.3 17.9 50.4 17.7 C 50.5 17.5 50.5 17.2 50.5 16.9 C 50.54 16.86 50.5 15.3 50.5 15.3 L 51.4 15.3 L 51.4 18.6 L 50.7 18.6 Z M 54.3 18.2 C 54.1 18.5 53.8 18.6 53.3 18.6 C 53 18.6 52.7 18.5 52.4 18.2 C 52.2 17.9 52.1 17.5 52.1 17 C 52.1 16.4 52.2 16 52.4 15.7 C 52.7 15.4 53 15.3 53.4 15.3 C 53.8 15.3 54.1 15.4 54.3 15.7 C 54.3 15.7 54.3 15.7 54.3 15.7 C 54.3 15.5 54.3 15.3 54.3 15.1 C 54.28 15.08 54.3 14 54.3 14 L 55.2 14 L 55.2 18.6 L 54.5 18.6 L 54.3 18.2 L 54.3 18.2 C 54.3 18.2 54.28 18.17 54.3 18.2 Z M 53.7 17.9 C 53.9 17.9 54.1 17.9 54.2 17.7 C 54.3 17.6 54.3 17.4 54.3 17.1 C 54.3 17.1 54.3 17 54.3 17 C 54.3 16.6 54.3 16.4 54.2 16.2 C 54.1 16.1 53.9 16 53.6 16 C 53.4 16 53.3 16.1 53.2 16.2 C 53.1 16.4 53 16.6 53 17 C 53 17.3 53.1 17.5 53.2 17.7 C 53.3 17.9 53.5 17.9 53.7 17.9 Z M 57.4 15.9 C 57.2 15.9 57.1 15.9 57 16.1 C 56.9 16.2 56.8 16.4 56.8 16.6 C 56.8 16.6 58 16.6 58 16.6 C 58 16.4 58 16.2 57.9 16.1 C 57.7 15.9 57.6 15.9 57.4 15.9 Z M 57.5 18.6 C 57 18.6 56.6 18.5 56.3 18.2 C 56 17.9 55.8 17.5 55.8 17 C 55.8 16.4 56 16 56.3 15.7 C 56.5 15.4 56.9 15.3 57.4 15.3 C 57.9 15.3 58.2 15.4 58.5 15.6 C 58.7 15.9 58.9 16.3 58.9 16.7 C 58.87 16.74 58.9 17.2 58.9 17.2 C 58.9 17.2 56.75 17.18 56.8 17.2 C 56.8 17.4 56.8 17.6 57 17.8 C 57.1 17.9 57.3 18 57.6 18 C 57.8 18 58 18 58.1 17.9 C 58.3 17.9 58.5 17.8 58.7 17.7 C 58.7 17.7 58.7 18.4 58.7 18.4 C 58.5 18.5 58.4 18.6 58.2 18.6 C 58 18.6 57.8 18.6 57.5 18.6 Z M 62.6 18.6 L 61.7 18.6 C 61.7 18.6 61.66 16.68 61.7 16.7 C 61.7 16.4 61.6 16.3 61.5 16.1 C 61.5 16 61.3 16 61.1 16 C 60.9 16 60.7 16.1 60.6 16.2 C 60.5 16.4 60.4 16.7 60.4 17 C 60.43 17.05 60.4 18.6 60.4 18.6 L 59.5 18.6 L 59.5 15.3 L 60.2 15.3 L 60.3 15.7 C 60.3 15.7 60.39 15.73 60.4 15.7 C 60.5 15.6 60.6 15.5 60.8 15.4 C 61 15.3 61.2 15.3 61.4 15.3 C 61.8 15.3 62.1 15.4 62.3 15.6 C 62.5 15.8 62.6 16.1 62.6 16.5 C 62.56 16.46 62.6 18.6 62.6 18.6 Z M 64.8 17.9 C 65 17.9 65.1 17.9 65.4 17.8 C 65.4 17.8 65.4 18.5 65.4 18.5 C 65.1 18.6 64.9 18.6 64.5 18.6 C 64.2 18.6 63.9 18.6 63.8 18.4 C 63.6 18.2 63.5 17.9 63.5 17.6 C 63.51 17.57 63.5 16 63.5 16 L 63.1 16 L 63.1 15.6 L 63.6 15.3 L 63.8 14.6 L 64.4 14.6 L 64.4 15.3 L 65.3 15.3 L 65.3 16 L 64.4 16 C 64.4 16 64.41 17.57 64.4 17.6 C 64.4 17.7 64.4 17.8 64.5 17.8 C 64.6 17.9 64.7 17.9 64.8 17.9 Z M 69.3 18.6 L 68.3 15.2 C 68.3 15.2 68.29 15.23 68.3 15.2 C 68.3 15.9 68.3 16.4 68.3 16.6 C 68.34 16.6 68.3 18.6 68.3 18.6 L 67.5 18.6 L 67.5 14.3 L 68.8 14.3 L 69.8 17.6 L 69.8 17.6 L 70.9 14.3 L 72.1 14.3 L 72.1 18.6 L 71.3 18.6 C 71.3 18.6 71.26 16.56 71.3 16.6 C 71.3 16.5 71.3 16.4 71.3 16.2 C 71.3 16.1 71.3 15.8 71.3 15.2 C 71.31 15.24 71.3 15.2 71.3 15.2 L 70.2 18.6 L 69.3 18.6 Z M 74.4 15.9 C 74.2 15.9 74.1 15.9 74 16.1 C 73.9 16.2 73.8 16.4 73.8 16.6 C 73.8 16.6 75 16.6 75 16.6 C 75 16.4 75 16.2 74.9 16.1 C 74.8 15.9 74.6 15.9 74.4 15.9 Z M 74.5 18.6 C 74 18.6 73.6 18.5 73.3 18.2 C 73 17.9 72.9 17.5 72.9 17 C 72.9 16.4 73 16 73.3 15.7 C 73.5 15.4 73.9 15.3 74.4 15.3 C 74.9 15.3 75.2 15.4 75.5 15.6 C 75.7 15.9 75.9 16.3 75.9 16.7 C 75.88 16.74 75.9 17.2 75.9 17.2 C 75.9 17.2 73.76 17.18 73.8 17.2 C 73.8 17.4 73.8 17.6 74 17.8 C 74.1 17.9 74.3 18 74.6 18 C 74.8 18 75 18 75.1 17.9 C 75.3 17.9 75.5 17.8 75.7 17.7 C 75.7 17.7 75.7 18.4 75.7 18.4 C 75.5 18.5 75.4 18.6 75.2 18.6 C 75 18.6 74.8 18.6 74.5 18.6 Z M 78.5 18.2 C 78.3 18.5 78 18.6 77.6 18.6 C 77.2 18.6 76.9 18.5 76.7 18.2 C 76.5 17.9 76.3 17.5 76.3 17 C 76.3 16.4 76.5 16 76.7 15.7 C 76.9 15.4 77.2 15.3 77.6 15.3 C 78 15.3 78.3 15.4 78.5 15.7 C 78.5 15.7 78.6 15.7 78.6 15.7 C 78.5 15.5 78.5 15.3 78.5 15.1 C 78.51 15.08 78.5 14 78.5 14 L 79.4 14 L 79.4 18.6 L 78.7 18.6 L 78.5 18.2 L 78.5 18.2 C 78.5 18.2 78.51 18.17 78.5 18.2 Z M 77.9 17.9 C 78.1 17.9 78.3 17.9 78.4 17.7 C 78.5 17.6 78.6 17.4 78.6 17.1 C 78.6 17.1 78.6 17 78.6 17 C 78.6 16.6 78.5 16.4 78.4 16.2 C 78.3 16.1 78.1 16 77.9 16 C 77.7 16 77.5 16.1 77.4 16.2 C 77.3 16.4 77.2 16.6 77.2 17 C 77.2 17.3 77.3 17.5 77.4 17.7 C 77.5 17.9 77.7 17.9 77.9 17.9 Z M 80.7 14.9 C 80.4 14.9 80.2 14.8 80.2 14.5 C 80.2 14.2 80.4 14 80.7 14 C 81.1 14 81.2 14.2 81.2 14.5 C 81.2 14.6 81.2 14.7 81.1 14.8 C 81 14.9 80.9 14.9 80.7 14.9 C 80.7 14.9 80.7 14.9 80.7 14.9 Z M 81.2 18.6 L 80.3 18.6 L 80.3 15.3 L 81.2 15.3 L 81.2 18.6 Z M 84.1 18.6 L 84 18.1 C 84 18.1 83.93 18.15 83.9 18.1 C 83.8 18.3 83.6 18.5 83.5 18.5 C 83.3 18.6 83.1 18.6 82.8 18.6 C 82.5 18.6 82.3 18.6 82.1 18.4 C 81.9 18.2 81.8 17.9 81.8 17.6 C 81.8 17.3 82 17 82.2 16.8 C 82.4 16.7 82.8 16.6 83.3 16.6 C 83.3 16.57 83.9 16.6 83.9 16.6 C 83.9 16.6 83.87 16.41 83.9 16.4 C 83.9 16.1 83.7 15.9 83.4 15.9 C 83.1 15.9 82.8 16 82.4 16.1 C 82.4 16.1 82.1 15.5 82.1 15.5 C 82.5 15.3 82.9 15.2 83.4 15.2 C 83.8 15.2 84.2 15.3 84.4 15.5 C 84.6 15.7 84.8 16 84.8 16.4 C 84.75 16.41 84.8 18.6 84.8 18.6 L 84.1 18.6 Z M 83.9 17.1 C 83.9 17.1 83.52 17.08 83.5 17.1 C 83.3 17.1 83.1 17.1 82.9 17.2 C 82.8 17.3 82.8 17.4 82.8 17.6 C 82.8 17.9 82.9 18 83.2 18 C 83.4 18 83.6 17.9 83.7 17.8 C 83.8 17.7 83.9 17.5 83.9 17.3 C 83.87 17.34 83.9 17.1 83.9 17.1 Z M 91.1 16.4 C 91.1 17.2 90.9 17.7 90.5 18.1 C 90.2 18.5 89.7 18.6 89 18.6 C 88.4 18.6 87.9 18.5 87.5 18.1 C 87.2 17.7 87 17.2 87 16.4 C 87 15.7 87.2 15.2 87.5 14.8 C 87.9 14.4 88.4 14.2 89 14.2 C 89.7 14.2 90.2 14.4 90.5 14.8 C 90.9 15.2 91.1 15.7 91.1 16.4 Z M 87.9 16.4 C 87.9 16.9 88 17.3 88.2 17.5 C 88.4 17.8 88.7 17.9 89 17.9 C 89.8 17.9 90.1 17.4 90.1 16.4 C 90.1 15.5 89.8 15 89 15 C 88.7 15 88.4 15.1 88.2 15.4 C 88 15.6 87.9 16 87.9 16.4 Z M 93.6 16 L 92.9 16 L 92.9 18.6 L 92 18.6 L 92 16 L 91.5 16 L 91.5 15.6 L 92 15.3 C 92 15.3 91.97 15.08 92 15.1 C 92 14.7 92.1 14.4 92.2 14.3 C 92.4 14.1 92.7 14 93.1 14 C 93.4 14 93.7 14 94 14.1 C 94 14.1 93.7 14.8 93.7 14.8 C 93.5 14.7 93.4 14.7 93.2 14.7 C 93.1 14.7 93 14.7 93 14.8 C 92.9 14.9 92.9 15 92.9 15.1 C 92.87 15.11 92.9 15.3 92.9 15.3 L 93.6 15.3 L 93.6 16 Z M 96 16 L 95.2 16 L 95.2 18.6 L 94.3 18.6 L 94.3 16 L 93.8 16 L 93.8 15.6 L 94.3 15.3 C 94.3 15.3 94.3 15.08 94.3 15.1 C 94.3 14.7 94.4 14.4 94.6 14.3 C 94.8 14.1 95 14 95.5 14 C 95.8 14 96 14 96.3 14.1 C 96.3 14.1 96 14.8 96 14.8 C 95.9 14.7 95.7 14.7 95.5 14.7 C 95.4 14.7 95.3 14.7 95.3 14.8 C 95.2 14.9 95.2 15 95.2 15.1 C 95.19 15.11 95.2 15.3 95.2 15.3 L 96 15.3 L 96 16 Z M 96.9 14.9 C 96.6 14.9 96.4 14.8 96.4 14.5 C 96.4 14.2 96.6 14 96.9 14 C 97.2 14 97.4 14.2 97.4 14.5 C 97.4 14.6 97.4 14.7 97.3 14.8 C 97.2 14.9 97.1 14.9 96.9 14.9 C 96.9 14.9 96.9 14.9 96.9 14.9 Z M 97.4 18.6 L 96.5 18.6 L 96.5 15.3 L 97.4 15.3 L 97.4 18.6 Z M 99.6 18.6 C 98.5 18.6 98 18.1 98 17 C 98 16.4 98.2 16 98.5 15.7 C 98.7 15.4 99.1 15.3 99.6 15.3 C 100 15.3 100.4 15.3 100.7 15.5 C 100.7 15.5 100.4 16.2 100.4 16.2 C 100.3 16.1 100.1 16.1 100 16 C 99.9 16 99.8 16 99.6 16 C 99.2 16 98.9 16.3 98.9 17 C 98.9 17.6 99.2 17.9 99.6 17.9 C 99.8 17.9 100 17.9 100.1 17.9 C 100.3 17.8 100.4 17.7 100.6 17.6 C 100.6 17.6 100.6 18.4 100.6 18.4 C 100.4 18.5 100.3 18.6 100.1 18.6 C 100 18.6 99.8 18.6 99.6 18.6 Z M 102.6 15.9 C 102.4 15.9 102.3 15.9 102.2 16.1 C 102.1 16.2 102 16.4 102 16.6 C 102 16.6 103.2 16.6 103.2 16.6 C 103.2 16.4 103.2 16.2 103.1 16.1 C 103 15.9 102.8 15.9 102.6 15.9 Z M 102.7 18.6 C 102.2 18.6 101.8 18.5 101.5 18.2 C 101.2 17.9 101.1 17.5 101.1 17 C 101.1 16.4 101.2 16 101.5 15.7 C 101.7 15.4 102.1 15.3 102.6 15.3 C 103.1 15.3 103.4 15.4 103.7 15.6 C 104 15.9 104.1 16.3 104.1 16.7 C 104.08 16.74 104.1 17.2 104.1 17.2 C 104.1 17.2 101.97 17.18 102 17.2 C 102 17.4 102.1 17.6 102.2 17.8 C 102.3 17.9 102.5 18 102.8 18 C 103 18 103.2 18 103.3 17.9 C 103.5 17.9 103.7 17.8 103.9 17.7 C 103.9 17.7 103.9 18.4 103.9 18.4 C 103.7 18.5 103.6 18.6 103.4 18.6 C 103.2 18.6 103 18.6 102.7 18.6 Z M 104.6 18.2 C 104.6 18 104.7 17.9 104.8 17.8 C 104.8 17.7 105 17.7 105.1 17.7 C 105.3 17.7 105.4 17.7 105.5 17.8 C 105.6 17.9 105.6 18 105.6 18.2 C 105.6 18.3 105.6 18.4 105.5 18.5 C 105.4 18.6 105.3 18.7 105.1 18.7 C 105 18.7 104.8 18.6 104.8 18.5 C 104.7 18.5 104.6 18.3 104.6 18.2 Z M 104.6 15.8 C 104.6 15.6 104.7 15.5 104.8 15.4 C 104.8 15.3 105 15.3 105.1 15.3 C 105.3 15.3 105.4 15.3 105.5 15.4 C 105.6 15.5 105.6 15.6 105.6 15.8 C 105.6 15.9 105.6 16 105.5 16.1 C 105.4 16.2 105.3 16.2 105.1 16.2 C 105 16.2 104.8 16.2 104.8 16.1 C 104.7 16 104.6 15.9 104.6 15.8 Z M 107.4 19.7 C 107.2 19.7 107.1 19.7 107 19.6 C 107 19.6 107 19.2 107 19.2 C 107.1 19.3 107.2 19.3 107.4 19.3 C 107.6 19.3 107.7 19.2 107.8 19.1 C 107.9 19 108 18.8 108 18.6 C 107.98 18.59 108 14.3 108 14.3 L 108.5 14.3 C 108.5 14.3 108.48 18.55 108.5 18.5 C 108.5 18.9 108.4 19.2 108.2 19.4 C 108 19.6 107.7 19.7 107.4 19.7 Z M 110.8 18.6 C 110.4 18.6 110 18.5 109.7 18.2 C 109.4 17.9 109.3 17.5 109.3 17 C 109.3 16.5 109.4 16.1 109.7 15.8 C 109.9 15.5 110.3 15.3 110.7 15.3 C 111.1 15.3 111.4 15.5 111.7 15.7 C 111.9 16 112 16.3 112 16.8 C 112.02 16.77 112 17.1 112 17.1 C 112 17.1 109.81 17.07 109.8 17.1 C 109.8 17.5 109.9 17.7 110.1 17.9 C 110.3 18.1 110.5 18.2 110.9 18.2 C 111.2 18.2 111.5 18.2 111.9 18 C 111.9 18 111.9 18.4 111.9 18.4 C 111.7 18.5 111.6 18.6 111.4 18.6 C 111.2 18.6 111.1 18.6 110.8 18.6 Z M 110.7 15.7 C 110.5 15.7 110.2 15.8 110.1 16 C 109.9 16.1 109.9 16.4 109.8 16.7 C 109.8 16.7 111.5 16.7 111.5 16.7 C 111.5 16.4 111.4 16.1 111.3 16 C 111.2 15.8 111 15.7 110.7 15.7 Z M 114.8 18.6 L 114.7 18.1 C 114.7 18.1 114.65 18.13 114.6 18.1 C 114.5 18.3 114.3 18.5 114.2 18.5 C 114 18.6 113.8 18.6 113.6 18.6 C 113.3 18.6 113 18.6 112.8 18.4 C 112.6 18.2 112.6 18 112.6 17.7 C 112.6 17.1 113.1 16.7 114.1 16.7 C 114.11 16.68 114.7 16.7 114.7 16.7 C 114.7 16.7 114.65 16.47 114.7 16.5 C 114.7 16.2 114.6 16 114.5 15.9 C 114.4 15.8 114.2 15.7 114 15.7 C 113.7 15.7 113.4 15.8 113.1 16 C 113.1 16 112.9 15.6 112.9 15.6 C 113.1 15.5 113.2 15.4 113.4 15.4 C 113.6 15.4 113.8 15.3 114 15.3 C 114.4 15.3 114.7 15.4 114.9 15.6 C 115 15.8 115.1 16 115.1 16.4 C 115.13 16.4 115.1 18.6 115.1 18.6 L 114.8 18.6 Z M 113.7 18.2 C 114 18.2 114.2 18.2 114.4 18 C 114.6 17.8 114.6 17.6 114.6 17.3 C 114.64 17.3 114.6 17 114.6 17 C 114.6 17 114.15 17.03 114.2 17 C 113.8 17 113.5 17.1 113.3 17.2 C 113.1 17.3 113.1 17.5 113.1 17.7 C 113.1 17.9 113.1 18 113.2 18.1 C 113.3 18.2 113.5 18.2 113.7 18.2 Z M 118.3 18.6 C 118.3 18.6 118.27 16.51 118.3 16.5 C 118.3 16.3 118.2 16.1 118.1 15.9 C 118 15.8 117.8 15.7 117.5 15.7 C 117.2 15.7 116.9 15.8 116.8 16 C 116.6 16.2 116.6 16.5 116.6 16.9 C 116.56 16.91 116.6 18.6 116.6 18.6 L 116.1 18.6 L 116.1 15.4 L 116.5 15.4 L 116.5 15.8 C 116.5 15.8 116.57 15.82 116.6 15.8 C 116.7 15.7 116.8 15.5 117 15.5 C 117.2 15.4 117.4 15.3 117.6 15.3 C 118 15.3 118.3 15.4 118.5 15.6 C 118.7 15.8 118.8 16.1 118.8 16.5 C 118.75 16.5 118.8 18.6 118.8 18.6 L 118.3 18.6 Z M 121.9 18.6 C 121.9 18.6 121.89 16.51 121.9 16.5 C 121.9 16.3 121.8 16.1 121.7 15.9 C 121.6 15.8 121.4 15.7 121.2 15.7 C 120.8 15.7 120.6 15.8 120.4 16 C 120.3 16.2 120.2 16.5 120.2 16.9 C 120.18 16.91 120.2 18.6 120.2 18.6 L 119.7 18.6 L 119.7 15.4 L 120.1 15.4 L 120.2 15.8 C 120.2 15.8 120.19 15.82 120.2 15.8 C 120.3 15.7 120.4 15.5 120.6 15.5 C 120.8 15.4 121 15.3 121.2 15.3 C 121.6 15.3 121.9 15.4 122.1 15.6 C 122.3 15.8 122.4 16.1 122.4 16.5 C 122.38 16.5 122.4 18.6 122.4 18.6 L 121.9 18.6 Z M 124.7 18.6 C 124.2 18.6 123.8 18.5 123.5 18.2 C 123.3 17.9 123.1 17.5 123.1 17 C 123.1 16.5 123.3 16.1 123.5 15.8 C 123.8 15.5 124.1 15.3 124.5 15.3 C 124.9 15.3 125.3 15.5 125.5 15.7 C 125.7 16 125.9 16.3 125.9 16.8 C 125.85 16.77 125.9 17.1 125.9 17.1 C 125.9 17.1 123.64 17.07 123.6 17.1 C 123.6 17.5 123.7 17.7 123.9 17.9 C 124.1 18.1 124.4 18.2 124.7 18.2 C 125 18.2 125.4 18.2 125.7 18 C 125.7 18 125.7 18.4 125.7 18.4 C 125.5 18.5 125.4 18.6 125.2 18.6 C 125.1 18.6 124.9 18.6 124.7 18.6 Z M 124.5 15.7 C 124.3 15.7 124.1 15.8 123.9 16 C 123.8 16.1 123.7 16.4 123.7 16.7 C 123.7 16.7 125.3 16.7 125.3 16.7 C 125.3 16.4 125.3 16.1 125.1 16 C 125 15.8 124.8 15.7 124.5 15.7 Z M 130.1 18.6 L 128.6 14.8 C 128.6 14.8 128.61 14.79 128.6 14.8 C 128.6 15.1 128.7 15.5 128.7 15.9 C 128.65 15.87 128.7 18.6 128.7 18.6 L 128.2 18.6 L 128.2 14.3 L 128.9 14.3 L 130.3 17.8 L 130.3 17.8 L 131.7 14.3 L 132.4 14.3 L 132.4 18.6 L 131.9 18.6 C 131.9 18.6 131.94 15.83 131.9 15.8 C 131.9 15.5 132 15.2 132 14.8 C 131.98 14.8 132 14.8 132 14.8 L 130.5 18.6 L 130.1 18.6 Z M 135.5 18.6 L 135.4 18.1 C 135.4 18.1 135.33 18.13 135.3 18.1 C 135.2 18.3 135 18.5 134.9 18.5 C 134.7 18.6 134.5 18.6 134.3 18.6 C 133.9 18.6 133.7 18.6 133.5 18.4 C 133.3 18.2 133.2 18 133.2 17.7 C 133.2 17.1 133.8 16.7 134.8 16.7 C 134.79 16.68 135.3 16.7 135.3 16.7 C 135.3 16.7 135.34 16.47 135.3 16.5 C 135.3 16.2 135.3 16 135.2 15.9 C 135.1 15.8 134.9 15.7 134.7 15.7 C 134.4 15.7 134.1 15.8 133.7 16 C 133.7 16 133.6 15.6 133.6 15.6 C 133.8 15.5 133.9 15.4 134.1 15.4 C 134.3 15.4 134.5 15.3 134.7 15.3 C 135.1 15.3 135.3 15.4 135.5 15.6 C 135.7 15.8 135.8 16 135.8 16.4 C 135.81 16.4 135.8 18.6 135.8 18.6 L 135.5 18.6 Z M 134.4 18.2 C 134.7 18.2 134.9 18.2 135.1 18 C 135.2 17.8 135.3 17.6 135.3 17.3 C 135.32 17.3 135.3 17 135.3 17 C 135.3 17 134.84 17.03 134.8 17 C 134.5 17 134.2 17.1 134 17.2 C 133.8 17.3 133.7 17.5 133.7 17.7 C 133.7 17.9 133.8 18 133.9 18.1 C 134 18.2 134.2 18.2 134.4 18.2 Z M 138.2 15.3 C 138.4 15.3 138.5 15.3 138.6 15.4 C 138.6 15.4 138.5 15.8 138.5 15.8 C 138.4 15.8 138.3 15.8 138.2 15.8 C 137.9 15.8 137.7 15.9 137.5 16.1 C 137.3 16.3 137.2 16.6 137.2 16.9 C 137.24 16.87 137.2 18.6 137.2 18.6 L 136.8 18.6 L 136.8 15.4 L 137.2 15.4 L 137.2 16 C 137.2 16 137.23 15.97 137.2 16 C 137.4 15.8 137.5 15.6 137.7 15.5 C 137.8 15.4 138 15.3 138.2 15.3 Z M 139.6 18.6 L 139.1 18.6 L 139.1 15.4 L 139.6 15.4 L 139.6 18.6 Z M 139.1 14.5 C 139.1 14.4 139.1 14.3 139.2 14.3 C 139.2 14.2 139.3 14.2 139.4 14.2 C 139.5 14.2 139.5 14.2 139.6 14.3 C 139.6 14.3 139.7 14.4 139.7 14.5 C 139.7 14.6 139.6 14.7 139.6 14.8 C 139.5 14.8 139.5 14.8 139.4 14.8 C 139.3 14.8 139.2 14.8 139.2 14.8 C 139.1 14.7 139.1 14.6 139.1 14.5 Z M 142 18.6 C 141.5 18.6 141.1 18.5 140.8 18.2 C 140.6 17.9 140.4 17.5 140.4 17 C 140.4 16.5 140.5 16.1 140.8 15.8 C 141.1 15.5 141.4 15.3 141.8 15.3 C 142.2 15.3 142.6 15.5 142.8 15.7 C 143 16 143.1 16.3 143.1 16.8 C 143.14 16.77 143.1 17.1 143.1 17.1 C 143.1 17.1 140.92 17.07 140.9 17.1 C 140.9 17.5 141 17.7 141.2 17.9 C 141.4 18.1 141.6 18.2 142 18.2 C 142.3 18.2 142.7 18.2 143 18 C 143 18 143 18.4 143 18.4 C 142.8 18.5 142.7 18.6 142.5 18.6 C 142.4 18.6 142.2 18.6 142 18.6 Z M 141.8 15.7 C 141.6 15.7 141.4 15.8 141.2 16 C 141.1 16.1 141 16.4 140.9 16.7 C 140.9 16.7 142.6 16.7 142.6 16.7 C 142.6 16.4 142.5 16.1 142.4 16 C 142.3 15.8 142.1 15.7 141.8 15.7 Z M 146.6 14.3 C 147.7 14.3 148.2 14.7 148.2 15.6 C 148.2 16 148 16.3 147.7 16.6 C 147.5 16.8 147 16.9 146.5 16.9 C 146.48 16.91 146 16.9 146 16.9 L 146 18.6 L 145.5 18.6 L 145.5 14.3 L 146.6 14.3 C 146.6 14.3 146.59 14.31 146.6 14.3 Z M 146 16.5 C 146 16.5 146.42 16.48 146.4 16.5 C 146.9 16.5 147.2 16.4 147.4 16.3 C 147.6 16.1 147.7 15.9 147.7 15.6 C 147.7 15.3 147.6 15.1 147.4 14.9 C 147.2 14.8 146.9 14.7 146.5 14.7 C 146.53 14.74 146 14.7 146 14.7 L 146 16.5 Z M 151.2 18.6 C 151.2 18.6 151.15 16.51 151.2 16.5 C 151.2 16.3 151.1 16.1 151 15.9 C 150.9 15.8 150.7 15.7 150.4 15.7 C 150.1 15.7 149.8 15.8 149.7 16 C 149.5 16.2 149.4 16.5 149.4 16.9 C 149.44 16.91 149.4 18.6 149.4 18.6 L 149 18.6 L 149 14 L 149.4 14 C 149.4 14 149.44 15.41 149.4 15.4 C 149.4 15.6 149.4 15.7 149.4 15.8 C 149.4 15.8 149.4 15.8 149.4 15.8 C 149.5 15.7 149.7 15.5 149.9 15.5 C 150 15.4 150.2 15.3 150.5 15.3 C 150.9 15.3 151.1 15.4 151.3 15.6 C 151.5 15.8 151.6 16.1 151.6 16.5 C 151.64 16.5 151.6 18.6 151.6 18.6 L 151.2 18.6 Z M 152.1 15.4 L 152.6 15.4 C 152.6 15.4 153.29 17.21 153.3 17.2 C 153.4 17.6 153.5 17.9 153.6 18.1 C 153.6 18.1 153.6 18.1 153.6 18.1 C 153.6 18 153.7 17.8 153.8 17.6 C 153.8 17.4 154.1 16.6 154.6 15.4 C 154.56 15.38 155.1 15.4 155.1 15.4 C 155.1 15.4 153.7 19.04 153.7 19 C 153.6 19.4 153.4 19.7 153.2 19.8 C 153 20 152.8 20 152.6 20 C 152.4 20 152.3 20 152.1 20 C 152.1 20 152.1 19.6 152.1 19.6 C 152.2 19.6 152.3 19.6 152.5 19.6 C 152.8 19.6 153 19.4 153.2 19.1 C 153.19 19.07 153.4 18.6 153.4 18.6 L 152.1 15.4 Z M 156 18.6 L 155.5 18.6 L 155.5 14 L 156 14 L 156 18.6 Z M 157.5 18.6 L 157 18.6 L 157 14 L 157.5 14 L 157.5 18.6 Z M 158.9 18.6 L 158.5 18.6 L 158.5 15.4 L 158.9 15.4 L 158.9 18.6 Z M 158.4 14.5 C 158.4 14.4 158.4 14.3 158.5 14.3 C 158.6 14.2 158.6 14.2 158.7 14.2 C 158.8 14.2 158.8 14.2 158.9 14.3 C 159 14.3 159 14.4 159 14.5 C 159 14.6 159 14.7 158.9 14.8 C 158.8 14.8 158.8 14.8 158.7 14.8 C 158.6 14.8 158.6 14.8 158.5 14.8 C 158.4 14.7 158.4 14.6 158.4 14.5 Z M 162 17.7 C 162 18 161.9 18.2 161.7 18.4 C 161.4 18.6 161.1 18.6 160.7 18.6 C 160.3 18.6 160 18.6 159.7 18.4 C 159.7 18.4 159.7 18 159.7 18 C 159.9 18.1 160 18.1 160.2 18.2 C 160.4 18.2 160.6 18.2 160.7 18.2 C 161 18.2 161.2 18.2 161.3 18.1 C 161.4 18 161.5 17.9 161.5 17.8 C 161.5 17.6 161.5 17.5 161.4 17.4 C 161.2 17.3 161 17.2 160.7 17.1 C 160.4 17 160.2 16.9 160.1 16.8 C 160 16.7 159.9 16.7 159.8 16.5 C 159.7 16.4 159.7 16.3 159.7 16.2 C 159.7 15.9 159.8 15.7 160 15.5 C 160.2 15.4 160.5 15.3 160.9 15.3 C 161.3 15.3 161.6 15.4 161.9 15.5 C 161.9 15.5 161.7 15.9 161.7 15.9 C 161.4 15.8 161.1 15.7 160.9 15.7 C 160.6 15.7 160.5 15.8 160.3 15.8 C 160.2 15.9 160.2 16 160.2 16.1 C 160.2 16.2 160.2 16.3 160.2 16.4 C 160.3 16.4 160.4 16.5 160.5 16.5 C 160.5 16.6 160.7 16.7 161 16.8 C 161.4 16.9 161.7 17 161.8 17.2 C 161.9 17.3 162 17.5 162 17.7 Z M 165.6 18.6 L 165.1 18.6 L 165.1 14.7 L 163.8 14.7 L 163.8 14.3 L 167 14.3 L 167 14.7 L 165.6 14.7 L 165.6 18.6 Z M 169.5 18.6 L 169.4 18.1 C 169.4 18.1 169.33 18.13 169.3 18.1 C 169.2 18.3 169 18.5 168.9 18.5 C 168.7 18.6 168.5 18.6 168.3 18.6 C 167.9 18.6 167.7 18.6 167.5 18.4 C 167.3 18.2 167.2 18 167.2 17.7 C 167.2 17.1 167.8 16.7 168.8 16.7 C 168.79 16.68 169.3 16.7 169.3 16.7 C 169.3 16.7 169.34 16.47 169.3 16.5 C 169.3 16.2 169.3 16 169.2 15.9 C 169.1 15.8 168.9 15.7 168.7 15.7 C 168.4 15.7 168.1 15.8 167.7 16 C 167.7 16 167.6 15.6 167.6 15.6 C 167.8 15.5 167.9 15.4 168.1 15.4 C 168.3 15.4 168.5 15.3 168.7 15.3 C 169.1 15.3 169.3 15.4 169.5 15.6 C 169.7 15.8 169.8 16 169.8 16.4 C 169.81 16.4 169.8 18.6 169.8 18.6 L 169.5 18.6 Z M 168.4 18.2 C 168.7 18.2 168.9 18.2 169.1 18 C 169.2 17.8 169.3 17.6 169.3 17.3 C 169.32 17.3 169.3 17 169.3 17 C 169.3 17 168.84 17.03 168.8 17 C 168.5 17 168.2 17.1 168 17.2 C 167.8 17.3 167.7 17.5 167.7 17.7 C 167.7 17.9 167.8 18 167.9 18.1 C 168 18.2 168.2 18.2 168.4 18.2 Z M 173 18.6 C 173 18.6 172.95 16.51 173 16.5 C 173 16.3 172.9 16.1 172.8 15.9 C 172.7 15.8 172.5 15.7 172.2 15.7 C 171.9 15.7 171.6 15.8 171.5 16 C 171.3 16.2 171.2 16.5 171.2 16.9 C 171.24 16.91 171.2 18.6 171.2 18.6 L 170.8 18.6 L 170.8 15.4 L 171.1 15.4 L 171.2 15.8 C 171.2 15.8 171.25 15.82 171.3 15.8 C 171.4 15.7 171.5 15.5 171.7 15.5 C 171.8 15.4 172 15.3 172.3 15.3 C 172.7 15.3 172.9 15.4 173.1 15.6 C 173.3 15.8 173.4 16.1 173.4 16.5 C 173.44 16.5 173.4 18.6 173.4 18.6 L 173 18.6 Z " stroke="none" fill="#000"/>
  </g>
  <g id="Polygon17725">
    <path d="M 4.1 9.4 C 4.1 10.1 3.9 10.7 3.5 11 C 3.1 11.4 2.5 11.6 1.8 11.6 C 1.75 11.59 0.5 11.6 0.5 11.6 L 0.5 7.3 C 0.5 7.3 1.88 7.31 1.9 7.3 C 2.6 7.3 3.1 7.5 3.5 7.9 C 3.9 8.2 4.1 8.7 4.1 9.4 Z M 1.8 10.8 C 2.7 10.8 3.1 10.4 3.1 9.4 C 3.1 8.5 2.7 8.1 1.9 8.1 C 1.93 8.05 1.4 8.1 1.4 8.1 L 1.4 10.8 L 1.8 10.8 C 1.8 10.8 1.84 10.84 1.8 10.8 Z M 5.3 7.9 C 5 7.9 4.8 7.8 4.8 7.5 C 4.8 7.2 5 7 5.3 7 C 5.6 7 5.8 7.2 5.8 7.5 C 5.8 7.6 5.7 7.7 5.7 7.8 C 5.6 7.9 5.5 7.9 5.3 7.9 C 5.3 7.9 5.3 7.9 5.3 7.9 Z M 5.7 11.6 L 4.9 11.6 L 4.9 8.3 L 5.7 8.3 L 5.7 11.6 Z M 8.4 8.3 C 8.6 8.3 8.7 8.3 8.8 8.3 C 8.8 8.3 8.7 9.1 8.7 9.1 C 8.6 9.1 8.5 9.1 8.4 9.1 C 8.1 9.1 7.9 9.2 7.8 9.3 C 7.6 9.5 7.5 9.7 7.5 9.9 C 7.51 9.92 7.5 11.6 7.5 11.6 L 6.6 11.6 L 6.6 8.3 L 7.3 8.3 L 7.4 8.9 C 7.4 8.9 7.47 8.87 7.5 8.9 C 7.6 8.7 7.7 8.5 7.9 8.4 C 8.1 8.3 8.2 8.3 8.4 8.3 Z M 10.6 8.9 C 10.5 8.9 10.3 8.9 10.2 9.1 C 10.1 9.2 10 9.4 10 9.6 C 10 9.6 11.3 9.6 11.3 9.6 C 11.3 9.4 11.2 9.2 11.1 9.1 C 11 8.9 10.8 8.9 10.6 8.9 Z M 10.8 11.6 C 10.2 11.6 9.8 11.5 9.5 11.2 C 9.2 10.9 9.1 10.5 9.1 10 C 9.1 9.4 9.2 9 9.5 8.7 C 9.8 8.4 10.2 8.3 10.6 8.3 C 11.1 8.3 11.5 8.4 11.7 8.6 C 12 8.9 12.1 9.3 12.1 9.7 C 12.1 9.74 12.1 10.2 12.1 10.2 C 12.1 10.2 9.99 10.18 10 10.2 C 10 10.4 10.1 10.6 10.2 10.8 C 10.4 10.9 10.6 11 10.8 11 C 11 11 11.2 11 11.4 10.9 C 11.5 10.9 11.7 10.8 11.9 10.7 C 11.9 10.7 11.9 11.4 11.9 11.4 C 11.8 11.5 11.6 11.6 11.4 11.6 C 11.2 11.6 11 11.6 10.8 11.6 Z M 13.6 9.8 L 14 9.3 L 14.9 8.3 L 15.9 8.3 L 14.6 9.7 L 16 11.6 L 15 11.6 L 14 10.3 L 13.7 10.6 L 13.7 11.6 L 12.8 11.6 L 12.8 7 L 13.7 7 L 13.7 9.1 L 13.6 9.8 L 13.6 9.8 Z M 17.8 10.9 C 18 10.9 18.2 10.9 18.4 10.8 C 18.4 10.8 18.4 11.5 18.4 11.5 C 18.2 11.6 17.9 11.6 17.6 11.6 C 17.2 11.6 16.9 11.6 16.8 11.4 C 16.6 11.2 16.5 10.9 16.5 10.6 C 16.53 10.57 16.5 9 16.5 9 L 16.1 9 L 16.1 8.6 L 16.6 8.3 L 16.9 7.6 L 17.4 7.6 L 17.4 8.3 L 18.3 8.3 L 18.3 9 L 17.4 9 C 17.4 9 17.42 10.57 17.4 10.6 C 17.4 10.7 17.5 10.8 17.5 10.8 C 17.6 10.9 17.7 10.9 17.8 10.9 Z M 19.7 9.9 C 19.7 10.3 19.7 10.5 19.8 10.7 C 20 10.8 20.1 10.9 20.4 10.9 C 20.6 10.9 20.8 10.8 20.9 10.7 C 21 10.5 21 10.3 21 9.9 C 21 9.6 21 9.4 20.9 9.2 C 20.8 9.1 20.6 9 20.4 9 C 20.1 9 20 9.1 19.8 9.2 C 19.7 9.4 19.7 9.6 19.7 9.9 Z M 22 9.9 C 22 10.5 21.8 10.9 21.5 11.2 C 21.2 11.5 20.9 11.6 20.4 11.6 C 20 11.6 19.8 11.6 19.5 11.4 C 19.3 11.3 19.1 11.1 19 10.8 C 18.8 10.6 18.8 10.3 18.8 9.9 C 18.8 9.4 18.9 9 19.2 8.7 C 19.5 8.4 19.9 8.3 20.4 8.3 C 20.7 8.3 21 8.3 21.2 8.5 C 21.4 8.6 21.6 8.8 21.8 9 C 21.9 9.3 22 9.6 22 9.9 Z M 24.5 8.3 C 24.6 8.3 24.7 8.3 24.8 8.3 C 24.8 8.3 24.7 9.1 24.7 9.1 C 24.6 9.1 24.5 9.1 24.4 9.1 C 24.1 9.1 23.9 9.2 23.8 9.3 C 23.6 9.5 23.5 9.7 23.5 9.9 C 23.52 9.92 23.5 11.6 23.5 11.6 L 22.6 11.6 L 22.6 8.3 L 23.3 8.3 L 23.4 8.9 C 23.4 8.9 23.48 8.87 23.5 8.9 C 23.6 8.7 23.7 8.5 23.9 8.4 C 24.1 8.3 24.3 8.3 24.5 8.3 Z M 26.2 11 C 26.1 11.4 25.9 11.8 25.7 12.4 C 25.7 12.4 25 12.4 25 12.4 C 25.1 11.8 25.2 11.4 25.3 10.9 C 25.31 10.89 26.1 10.9 26.1 10.9 C 26.1 10.9 26.17 10.96 26.2 11 Z M 31.1 10.4 C 31.1 10.8 30.9 11.1 30.7 11.3 C 30.4 11.5 30 11.6 29.5 11.6 C 29 11.6 28.6 11.6 28.3 11.4 C 28.3 11.4 28.3 10.5 28.3 10.5 C 28.6 10.7 28.8 10.8 29 10.8 C 29.2 10.9 29.4 10.9 29.6 10.9 C 29.8 10.9 29.9 10.9 30 10.8 C 30.1 10.7 30.2 10.6 30.2 10.4 C 30.2 10.4 30.2 10.3 30.1 10.2 C 30.1 10.2 30 10.1 29.9 10 C 29.8 10 29.6 9.9 29.4 9.7 C 29.1 9.6 28.9 9.5 28.8 9.4 C 28.6 9.3 28.5 9.1 28.4 9 C 28.4 8.8 28.3 8.7 28.3 8.5 C 28.3 8.1 28.5 7.8 28.7 7.6 C 29 7.4 29.3 7.2 29.8 7.2 C 30 7.2 30.2 7.3 30.4 7.3 C 30.6 7.4 30.8 7.5 31.1 7.5 C 31.1 7.5 30.8 8.3 30.8 8.3 C 30.5 8.2 30.3 8.1 30.2 8.1 C 30 8 29.9 8 29.8 8 C 29.6 8 29.4 8 29.4 8.1 C 29.3 8.2 29.2 8.3 29.2 8.4 C 29.2 8.5 29.2 8.6 29.3 8.6 C 29.3 8.7 29.4 8.8 29.5 8.8 C 29.5 8.9 29.7 9 30 9.1 C 30.4 9.3 30.7 9.5 30.9 9.7 C 31 9.9 31.1 10.1 31.1 10.4 Z M 33.1 10.9 C 33.3 10.9 33.4 10.9 33.7 10.8 C 33.7 10.8 33.7 11.5 33.7 11.5 C 33.4 11.6 33.2 11.6 32.8 11.6 C 32.5 11.6 32.2 11.6 32.1 11.4 C 31.9 11.2 31.8 10.9 31.8 10.6 C 31.82 10.57 31.8 9 31.8 9 L 31.4 9 L 31.4 8.6 L 31.9 8.3 L 32.1 7.6 L 32.7 7.6 L 32.7 8.3 L 33.6 8.3 L 33.6 9 L 32.7 9 C 32.7 9 32.71 10.57 32.7 10.6 C 32.7 10.7 32.7 10.8 32.8 10.8 C 32.9 10.9 33 10.9 33.1 10.9 Z M 36.6 11.6 L 36.5 11.2 C 36.5 11.2 36.42 11.17 36.4 11.2 C 36.3 11.3 36.2 11.4 36 11.5 C 35.8 11.6 35.6 11.6 35.4 11.6 C 35 11.6 34.7 11.5 34.5 11.3 C 34.3 11.1 34.2 10.8 34.2 10.5 C 34.25 10.45 34.2 8.3 34.2 8.3 L 35.1 8.3 C 35.1 8.3 35.14 10.23 35.1 10.2 C 35.1 10.5 35.2 10.6 35.3 10.8 C 35.3 10.9 35.5 10.9 35.7 10.9 C 35.9 10.9 36.1 10.9 36.2 10.7 C 36.3 10.5 36.4 10.2 36.4 9.9 C 36.38 9.86 36.4 8.3 36.4 8.3 L 37.3 8.3 L 37.3 11.6 L 36.6 11.6 Z M 40.1 11.2 C 39.9 11.5 39.6 11.6 39.2 11.6 C 38.8 11.6 38.5 11.5 38.3 11.2 C 38.1 10.9 37.9 10.5 37.9 10 C 37.9 9.4 38.1 9 38.3 8.7 C 38.5 8.4 38.8 8.3 39.2 8.3 C 39.6 8.3 39.9 8.4 40.2 8.7 C 40.2 8.7 40.2 8.7 40.2 8.7 C 40.1 8.5 40.1 8.3 40.1 8.1 C 40.11 8.08 40.1 7 40.1 7 L 41 7 L 41 11.6 L 40.3 11.6 L 40.2 11.2 L 40.1 11.2 C 40.1 11.2 40.11 11.17 40.1 11.2 Z M 39.5 10.9 C 39.7 10.9 39.9 10.9 40 10.7 C 40.1 10.6 40.2 10.4 40.2 10.1 C 40.2 10.1 40.2 10 40.2 10 C 40.2 9.6 40.1 9.4 40 9.2 C 39.9 9.1 39.7 9 39.5 9 C 39.3 9 39.1 9.1 39 9.2 C 38.9 9.4 38.9 9.6 38.9 10 C 38.9 10.3 38.9 10.5 39 10.7 C 39.1 10.9 39.3 10.9 39.5 10.9 Z M 43.2 8.9 C 43.1 8.9 42.9 8.9 42.8 9.1 C 42.7 9.2 42.6 9.4 42.6 9.6 C 42.6 9.6 43.9 9.6 43.9 9.6 C 43.9 9.4 43.8 9.2 43.7 9.1 C 43.6 8.9 43.4 8.9 43.2 8.9 Z M 43.4 11.6 C 42.8 11.6 42.4 11.5 42.1 11.2 C 41.8 10.9 41.7 10.5 41.7 10 C 41.7 9.4 41.8 9 42.1 8.7 C 42.4 8.4 42.7 8.3 43.2 8.3 C 43.7 8.3 44.1 8.4 44.3 8.6 C 44.6 8.9 44.7 9.3 44.7 9.7 C 44.7 9.74 44.7 10.2 44.7 10.2 C 44.7 10.2 42.59 10.18 42.6 10.2 C 42.6 10.4 42.7 10.6 42.8 10.8 C 43 10.9 43.2 11 43.4 11 C 43.6 11 43.8 11 44 10.9 C 44.1 10.9 44.3 10.8 44.5 10.7 C 44.5 10.7 44.5 11.4 44.5 11.4 C 44.4 11.5 44.2 11.6 44 11.6 C 43.8 11.6 43.6 11.6 43.4 11.6 Z M 48.4 11.6 L 47.5 11.6 C 47.5 11.6 47.5 9.68 47.5 9.7 C 47.5 9.4 47.5 9.3 47.4 9.1 C 47.3 9 47.2 9 47 9 C 46.7 9 46.5 9.1 46.4 9.2 C 46.3 9.4 46.3 9.7 46.3 10 C 46.26 10.05 46.3 11.6 46.3 11.6 L 45.4 11.6 L 45.4 8.3 L 46.1 8.3 L 46.2 8.7 C 46.2 8.7 46.22 8.73 46.2 8.7 C 46.3 8.6 46.5 8.5 46.6 8.4 C 46.8 8.3 47 8.3 47.2 8.3 C 47.6 8.3 47.9 8.4 48.1 8.6 C 48.3 8.8 48.4 9.1 48.4 9.5 C 48.39 9.46 48.4 11.6 48.4 11.6 Z M 50.6 10.9 C 50.8 10.9 51 10.9 51.2 10.8 C 51.2 10.8 51.2 11.5 51.2 11.5 C 51 11.6 50.7 11.6 50.4 11.6 C 50 11.6 49.8 11.6 49.6 11.4 C 49.4 11.2 49.3 10.9 49.3 10.6 C 49.35 10.57 49.3 9 49.3 9 L 48.9 9 L 48.9 8.6 L 49.4 8.3 L 49.7 7.6 L 50.2 7.6 L 50.2 8.3 L 51.2 8.3 L 51.2 9 L 50.2 9 C 50.2 9 50.24 10.57 50.2 10.6 C 50.2 10.7 50.3 10.8 50.3 10.8 C 50.4 10.9 50.5 10.9 50.6 10.9 Z M 55.2 11.6 L 54.1 8.2 C 54.1 8.2 54.12 8.23 54.1 8.2 C 54.2 8.9 54.2 9.4 54.2 9.6 C 54.18 9.6 54.2 11.6 54.2 11.6 L 53.4 11.6 L 53.4 7.3 L 54.6 7.3 L 55.6 10.6 L 55.6 10.6 L 56.7 7.3 L 57.9 7.3 L 57.9 11.6 L 57.1 11.6 C 57.1 11.6 57.1 9.56 57.1 9.6 C 57.1 9.5 57.1 9.4 57.1 9.2 C 57.1 9.1 57.1 8.8 57.1 8.2 C 57.14 8.24 57.1 8.2 57.1 8.2 L 56 11.6 L 55.2 11.6 Z M 60.2 8.9 C 60.1 8.9 59.9 8.9 59.8 9.1 C 59.7 9.2 59.6 9.4 59.6 9.6 C 59.6 9.6 60.9 9.6 60.9 9.6 C 60.9 9.4 60.8 9.2 60.7 9.1 C 60.6 8.9 60.4 8.9 60.2 8.9 Z M 60.4 11.6 C 59.8 11.6 59.4 11.5 59.1 11.2 C 58.8 10.9 58.7 10.5 58.7 10 C 58.7 9.4 58.8 9 59.1 8.7 C 59.4 8.4 59.8 8.3 60.2 8.3 C 60.7 8.3 61.1 8.4 61.3 8.6 C 61.6 8.9 61.7 9.3 61.7 9.7 C 61.71 9.74 61.7 10.2 61.7 10.2 C 61.7 10.2 59.6 10.18 59.6 10.2 C 59.6 10.4 59.7 10.6 59.8 10.8 C 60 10.9 60.2 11 60.4 11 C 60.6 11 60.8 11 61 10.9 C 61.2 10.9 61.3 10.8 61.5 10.7 C 61.5 10.7 61.5 11.4 61.5 11.4 C 61.4 11.5 61.2 11.6 61 11.6 C 60.8 11.6 60.6 11.6 60.4 11.6 Z M 64.3 11.2 C 64.1 11.5 63.8 11.6 63.4 11.6 C 63 11.6 62.7 11.5 62.5 11.2 C 62.3 10.9 62.2 10.5 62.2 10 C 62.2 9.4 62.3 9 62.5 8.7 C 62.7 8.4 63 8.3 63.4 8.3 C 63.8 8.3 64.2 8.4 64.4 8.7 C 64.4 8.7 64.4 8.7 64.4 8.7 C 64.4 8.5 64.3 8.3 64.3 8.1 C 64.34 8.08 64.3 7 64.3 7 L 65.2 7 L 65.2 11.6 L 64.6 11.6 L 64.4 11.2 L 64.3 11.2 C 64.3 11.2 64.34 11.17 64.3 11.2 Z M 63.7 10.9 C 64 10.9 64.1 10.9 64.2 10.7 C 64.3 10.6 64.4 10.4 64.4 10.1 C 64.4 10.1 64.4 10 64.4 10 C 64.4 9.6 64.4 9.4 64.2 9.2 C 64.1 9.1 64 9 63.7 9 C 63.5 9 63.4 9.1 63.2 9.2 C 63.1 9.4 63.1 9.6 63.1 10 C 63.1 10.3 63.1 10.5 63.3 10.7 C 63.4 10.9 63.5 10.9 63.7 10.9 Z M 66.6 7.9 C 66.2 7.9 66.1 7.8 66.1 7.5 C 66.1 7.2 66.2 7 66.6 7 C 66.9 7 67 7.2 67 7.5 C 67 7.6 67 7.7 66.9 7.8 C 66.8 7.9 66.7 7.9 66.6 7.9 C 66.6 7.9 66.6 7.9 66.6 7.9 Z M 67 11.6 L 66.1 11.6 L 66.1 8.3 L 67 8.3 L 67 11.6 Z M 70 11.6 L 69.8 11.1 C 69.8 11.1 69.77 11.15 69.8 11.1 C 69.6 11.3 69.5 11.5 69.3 11.5 C 69.1 11.6 68.9 11.6 68.7 11.6 C 68.4 11.6 68.1 11.6 67.9 11.4 C 67.8 11.2 67.7 10.9 67.7 10.6 C 67.7 10.3 67.8 10 68 9.8 C 68.3 9.7 68.6 9.6 69.1 9.6 C 69.13 9.57 69.7 9.6 69.7 9.6 C 69.7 9.6 69.7 9.41 69.7 9.4 C 69.7 9.1 69.5 8.9 69.2 8.9 C 68.9 8.9 68.6 9 68.3 9.1 C 68.3 9.1 68 8.5 68 8.5 C 68.3 8.3 68.8 8.2 69.2 8.2 C 69.7 8.2 70 8.3 70.2 8.5 C 70.5 8.7 70.6 9 70.6 9.4 C 70.59 9.41 70.6 11.6 70.6 11.6 L 70 11.6 Z M 69.7 10.1 C 69.7 10.1 69.36 10.08 69.4 10.1 C 69.1 10.1 68.9 10.1 68.8 10.2 C 68.6 10.3 68.6 10.4 68.6 10.6 C 68.6 10.9 68.7 11 69 11 C 69.2 11 69.4 10.9 69.5 10.8 C 69.6 10.7 69.7 10.5 69.7 10.3 C 69.7 10.34 69.7 10.1 69.7 10.1 Z M 76.9 9.4 C 76.9 10.2 76.7 10.7 76.4 11.1 C 76 11.5 75.5 11.6 74.9 11.6 C 74.2 11.6 73.7 11.5 73.4 11.1 C 73 10.7 72.8 10.2 72.8 9.4 C 72.8 8.7 73 8.2 73.4 7.8 C 73.7 7.4 74.2 7.2 74.9 7.2 C 75.5 7.2 76 7.4 76.4 7.8 C 76.7 8.2 76.9 8.7 76.9 9.4 Z M 73.8 9.4 C 73.8 9.9 73.9 10.3 74.1 10.5 C 74.2 10.8 74.5 10.9 74.9 10.9 C 75.6 10.9 76 10.4 76 9.4 C 76 8.5 75.6 8 74.9 8 C 74.5 8 74.2 8.1 74.1 8.4 C 73.9 8.6 73.8 9 73.8 9.4 Z M 79.5 9 L 78.7 9 L 78.7 11.6 L 77.8 11.6 L 77.8 9 L 77.3 9 L 77.3 8.6 L 77.8 8.3 C 77.8 8.3 77.81 8.08 77.8 8.1 C 77.8 7.7 77.9 7.4 78.1 7.3 C 78.3 7.1 78.6 7 79 7 C 79.3 7 79.5 7 79.8 7.1 C 79.8 7.1 79.6 7.8 79.6 7.8 C 79.4 7.7 79.2 7.7 79.1 7.7 C 78.9 7.7 78.8 7.7 78.8 7.8 C 78.7 7.9 78.7 8 78.7 8.1 C 78.7 8.11 78.7 8.3 78.7 8.3 L 79.5 8.3 L 79.5 9 Z M 81.8 9 L 81 9 L 81 11.6 L 80.1 11.6 L 80.1 9 L 79.6 9 L 79.6 8.6 L 80.1 8.3 C 80.1 8.3 80.13 8.08 80.1 8.1 C 80.1 7.7 80.2 7.4 80.4 7.3 C 80.6 7.1 80.9 7 81.3 7 C 81.6 7 81.9 7 82.1 7.1 C 82.1 7.1 81.9 7.8 81.9 7.8 C 81.7 7.7 81.5 7.7 81.4 7.7 C 81.3 7.7 81.2 7.7 81.1 7.8 C 81.1 7.9 81 8 81 8.1 C 81.02 8.11 81 8.3 81 8.3 L 81.8 8.3 L 81.8 9 Z M 82.7 7.9 C 82.4 7.9 82.3 7.8 82.3 7.5 C 82.3 7.2 82.4 7 82.7 7 C 83.1 7 83.2 7.2 83.2 7.5 C 83.2 7.6 83.2 7.7 83.1 7.8 C 83 7.9 82.9 7.9 82.7 7.9 C 82.7 7.9 82.7 7.9 82.7 7.9 Z M 83.2 11.6 L 82.3 11.6 L 82.3 8.3 L 83.2 8.3 L 83.2 11.6 Z M 85.4 11.6 C 84.4 11.6 83.9 11.1 83.9 10 C 83.9 9.4 84 9 84.3 8.7 C 84.6 8.4 85 8.3 85.5 8.3 C 85.9 8.3 86.2 8.3 86.5 8.5 C 86.5 8.5 86.2 9.2 86.2 9.2 C 86.1 9.1 86 9.1 85.8 9 C 85.7 9 85.6 9 85.5 9 C 85 9 84.8 9.3 84.8 10 C 84.8 10.6 85 10.9 85.5 10.9 C 85.7 10.9 85.8 10.9 86 10.9 C 86.1 10.8 86.3 10.7 86.4 10.6 C 86.4 10.6 86.4 11.4 86.4 11.4 C 86.3 11.5 86.1 11.6 86 11.6 C 85.8 11.6 85.6 11.6 85.4 11.6 Z M 88.5 8.9 C 88.3 8.9 88.1 8.9 88 9.1 C 87.9 9.2 87.8 9.4 87.8 9.6 C 87.8 9.6 89.1 9.6 89.1 9.6 C 89.1 9.4 89 9.2 88.9 9.1 C 88.8 8.9 88.6 8.9 88.5 8.9 Z M 88.6 11.6 C 88.1 11.6 87.6 11.5 87.3 11.2 C 87 10.9 86.9 10.5 86.9 10 C 86.9 9.4 87 9 87.3 8.7 C 87.6 8.4 88 8.3 88.4 8.3 C 88.9 8.3 89.3 8.4 89.5 8.6 C 89.8 8.9 89.9 9.3 89.9 9.7 C 89.92 9.74 89.9 10.2 89.9 10.2 C 89.9 10.2 87.8 10.18 87.8 10.2 C 87.8 10.4 87.9 10.6 88 10.8 C 88.2 10.9 88.4 11 88.6 11 C 88.8 11 89 11 89.2 10.9 C 89.4 10.9 89.5 10.8 89.7 10.7 C 89.7 10.7 89.7 11.4 89.7 11.4 C 89.6 11.5 89.4 11.6 89.2 11.6 C 89.1 11.6 88.8 11.6 88.6 11.6 Z M 90.5 11.2 C 90.5 11 90.5 10.9 90.6 10.8 C 90.7 10.7 90.8 10.7 91 10.7 C 91.1 10.7 91.3 10.7 91.3 10.8 C 91.4 10.9 91.5 11 91.5 11.2 C 91.5 11.3 91.4 11.4 91.3 11.5 C 91.3 11.6 91.1 11.7 91 11.7 C 90.8 11.7 90.7 11.6 90.6 11.5 C 90.5 11.5 90.5 11.3 90.5 11.2 Z M 90.5 8.8 C 90.5 8.6 90.5 8.5 90.6 8.4 C 90.7 8.3 90.8 8.3 91 8.3 C 91.1 8.3 91.3 8.3 91.3 8.4 C 91.4 8.5 91.5 8.6 91.5 8.8 C 91.5 8.9 91.4 9 91.3 9.1 C 91.3 9.2 91.1 9.2 91 9.2 C 90.8 9.2 90.7 9.2 90.6 9.1 C 90.5 9 90.5 8.9 90.5 8.8 Z M 94.3 11.6 L 93.9 11.6 L 93.9 7.3 L 96.2 7.3 L 96.2 7.7 L 94.3 7.7 L 94.3 9.3 L 96.1 9.3 L 96.1 9.8 L 94.3 9.8 L 94.3 11.6 Z M 98.3 8.3 C 98.4 8.3 98.6 8.3 98.7 8.4 C 98.7 8.4 98.6 8.8 98.6 8.8 C 98.5 8.8 98.3 8.8 98.2 8.8 C 98 8.8 97.8 8.9 97.6 9.1 C 97.4 9.3 97.3 9.6 97.3 9.9 C 97.3 9.87 97.3 11.6 97.3 11.6 L 96.8 11.6 L 96.8 8.4 L 97.2 8.4 L 97.3 9 C 97.3 9 97.3 8.97 97.3 9 C 97.4 8.8 97.6 8.6 97.7 8.5 C 97.9 8.4 98.1 8.3 98.3 8.3 Z M 101.2 11.6 L 101.1 11.1 C 101.1 11.1 101.06 11.13 101.1 11.1 C 100.9 11.3 100.7 11.5 100.6 11.5 C 100.4 11.6 100.2 11.6 100 11.6 C 99.7 11.6 99.4 11.6 99.2 11.4 C 99.1 11.2 99 11 99 10.7 C 99 10.1 99.5 9.7 100.5 9.7 C 100.52 9.68 101.1 9.7 101.1 9.7 C 101.1 9.7 101.06 9.47 101.1 9.5 C 101.1 9.2 101 9 100.9 8.9 C 100.8 8.8 100.6 8.7 100.4 8.7 C 100.1 8.7 99.8 8.8 99.5 9 C 99.5 9 99.3 8.6 99.3 8.6 C 99.5 8.5 99.7 8.4 99.8 8.4 C 100 8.4 100.2 8.3 100.4 8.3 C 100.8 8.3 101.1 8.4 101.3 8.6 C 101.4 8.8 101.5 9 101.5 9.4 C 101.54 9.4 101.5 11.6 101.5 11.6 L 101.2 11.6 Z M 100.1 11.2 C 100.4 11.2 100.6 11.2 100.8 11 C 101 10.8 101.1 10.6 101.1 10.3 C 101.05 10.3 101.1 10 101.1 10 C 101.1 10 100.57 10.03 100.6 10 C 100.2 10 99.9 10.1 99.7 10.2 C 99.6 10.3 99.5 10.5 99.5 10.7 C 99.5 10.9 99.5 11 99.6 11.1 C 99.7 11.2 99.9 11.2 100.1 11.2 Z M 104.7 11.6 C 104.7 11.6 104.68 9.51 104.7 9.5 C 104.7 9.3 104.6 9.1 104.5 8.9 C 104.4 8.8 104.2 8.7 103.9 8.7 C 103.6 8.7 103.4 8.8 103.2 9 C 103 9.2 103 9.5 103 9.9 C 102.97 9.91 103 11.6 103 11.6 L 102.5 11.6 L 102.5 8.4 L 102.9 8.4 L 103 8.8 C 103 8.8 102.98 8.82 103 8.8 C 103.1 8.7 103.2 8.5 103.4 8.5 C 103.6 8.4 103.8 8.3 104 8.3 C 104.4 8.3 104.7 8.4 104.9 8.6 C 105.1 8.8 105.2 9.1 105.2 9.5 C 105.16 9.5 105.2 11.6 105.2 11.6 L 104.7 11.6 Z M 108.2 11.6 L 105.8 11.6 L 105.8 11.3 L 107.6 8.8 L 105.9 8.8 L 105.9 8.4 L 108.1 8.4 L 108.1 8.8 L 106.4 11.2 L 108.2 11.2 L 108.2 11.6 Z M 110.4 11.6 L 110.4 7.3 L 110.9 7.3 L 110.9 11.1 L 112.8 11.1 L 112.8 11.6 L 110.4 11.6 Z M 116.2 10 C 116.2 10.5 116 10.9 115.8 11.2 C 115.5 11.5 115.2 11.6 114.7 11.6 C 114.4 11.6 114.1 11.6 113.9 11.4 C 113.7 11.3 113.5 11.1 113.4 10.9 C 113.3 10.6 113.2 10.3 113.2 10 C 113.2 9.5 113.4 9.1 113.6 8.8 C 113.9 8.5 114.2 8.3 114.7 8.3 C 115.2 8.3 115.5 8.5 115.8 8.8 C 116 9.1 116.2 9.5 116.2 10 Z M 113.7 10 C 113.7 10.4 113.8 10.7 114 10.9 C 114.1 11.1 114.4 11.2 114.7 11.2 C 115 11.2 115.3 11.1 115.4 10.9 C 115.6 10.7 115.7 10.4 115.7 10 C 115.7 9.6 115.6 9.3 115.4 9.1 C 115.3 8.8 115 8.7 114.7 8.7 C 114.4 8.7 114.1 8.8 114 9 C 113.8 9.3 113.7 9.6 113.7 10 Z M 117.4 8.4 C 117.4 8.4 117.42 10.46 117.4 10.5 C 117.4 10.7 117.5 10.9 117.6 11 C 117.7 11.2 117.9 11.2 118.2 11.2 C 118.5 11.2 118.7 11.2 118.9 11 C 119.1 10.8 119.1 10.5 119.1 10.1 C 119.13 10.07 119.1 8.4 119.1 8.4 L 119.6 8.4 L 119.6 11.6 L 119.2 11.6 L 119.1 11.2 C 119.1 11.2 119.12 11.16 119.1 11.2 C 119 11.3 118.9 11.4 118.7 11.5 C 118.5 11.6 118.3 11.6 118.1 11.6 C 117.7 11.6 117.4 11.6 117.2 11.4 C 117 11.2 116.9 10.9 116.9 10.5 C 116.93 10.48 116.9 8.4 116.9 8.4 L 117.4 8.4 Z M 121.1 11.6 L 120.6 11.6 L 120.6 8.4 L 121.1 8.4 L 121.1 11.6 Z M 120.5 7.5 C 120.5 7.4 120.6 7.3 120.6 7.3 C 120.7 7.2 120.8 7.2 120.8 7.2 C 120.9 7.2 121 7.2 121 7.3 C 121.1 7.3 121.1 7.4 121.1 7.5 C 121.1 7.6 121.1 7.7 121 7.8 C 121 7.8 120.9 7.8 120.8 7.8 C 120.8 7.8 120.7 7.8 120.6 7.8 C 120.6 7.7 120.5 7.6 120.5 7.5 Z M 124.1 10.7 C 124.1 11 124 11.2 123.8 11.4 C 123.6 11.6 123.2 11.6 122.8 11.6 C 122.4 11.6 122.1 11.6 121.9 11.4 C 121.9 11.4 121.9 11 121.9 11 C 122 11.1 122.2 11.1 122.3 11.2 C 122.5 11.2 122.7 11.2 122.9 11.2 C 123.1 11.2 123.3 11.2 123.4 11.1 C 123.6 11 123.6 10.9 123.6 10.8 C 123.6 10.6 123.6 10.5 123.5 10.4 C 123.4 10.3 123.2 10.2 122.9 10.1 C 122.6 10 122.3 9.9 122.2 9.8 C 122.1 9.7 122 9.7 121.9 9.5 C 121.9 9.4 121.8 9.3 121.8 9.2 C 121.8 8.9 121.9 8.7 122.2 8.5 C 122.4 8.4 122.7 8.3 123 8.3 C 123.4 8.3 123.7 8.4 124.1 8.5 C 124.1 8.5 123.9 8.9 123.9 8.9 C 123.6 8.8 123.3 8.7 123 8.7 C 122.8 8.7 122.6 8.8 122.5 8.8 C 122.4 8.9 122.3 9 122.3 9.1 C 122.3 9.2 122.3 9.3 122.4 9.4 C 122.4 9.4 122.5 9.5 122.6 9.5 C 122.7 9.6 122.9 9.7 123.1 9.8 C 123.5 9.9 123.8 10 123.9 10.2 C 124.1 10.3 124.1 10.5 124.1 10.7 Z M 126.2 11.6 C 125.7 11.6 125.4 11.5 125.1 11.2 C 124.8 10.9 124.7 10.5 124.7 10 C 124.7 9.5 124.8 9.1 125.1 8.8 C 125.3 8.5 125.7 8.3 126.1 8.3 C 126.5 8.3 126.8 8.5 127 8.7 C 127.3 9 127.4 9.3 127.4 9.8 C 127.39 9.77 127.4 10.1 127.4 10.1 C 127.4 10.1 125.17 10.07 125.2 10.1 C 125.2 10.5 125.3 10.7 125.5 10.9 C 125.6 11.1 125.9 11.2 126.2 11.2 C 126.6 11.2 126.9 11.2 127.2 11 C 127.2 11 127.2 11.4 127.2 11.4 C 127.1 11.5 126.9 11.6 126.8 11.6 C 126.6 11.6 126.4 11.6 126.2 11.6 Z M 126.1 8.7 C 125.8 8.7 125.6 8.8 125.5 9 C 125.3 9.1 125.2 9.4 125.2 9.7 C 125.2 9.7 126.9 9.7 126.9 9.7 C 126.9 9.4 126.8 9.1 126.7 9 C 126.5 8.8 126.3 8.7 126.1 8.7 Z M 132.1 10.5 C 132.1 10.8 132 11.1 131.7 11.3 C 131.5 11.5 131.1 11.6 130.6 11.6 C 130.1 11.6 129.7 11.6 129.4 11.5 C 129.4 11.5 129.4 11 129.4 11 C 129.6 11 129.8 11.1 130 11.1 C 130.2 11.2 130.4 11.2 130.6 11.2 C 131 11.2 131.2 11.1 131.4 11 C 131.6 10.9 131.6 10.7 131.6 10.5 C 131.6 10.3 131.6 10.2 131.6 10.1 C 131.5 10 131.4 10 131.3 9.9 C 131.1 9.8 130.9 9.7 130.6 9.6 C 130.2 9.5 129.9 9.3 129.8 9.1 C 129.6 8.9 129.5 8.6 129.5 8.3 C 129.5 8 129.6 7.7 129.9 7.5 C 130.1 7.3 130.5 7.2 130.9 7.2 C 131.3 7.2 131.7 7.3 132 7.5 C 132 7.5 131.9 7.9 131.9 7.9 C 131.5 7.8 131.2 7.7 130.8 7.7 C 130.6 7.7 130.4 7.7 130.2 7.9 C 130.1 8 130 8.1 130 8.3 C 130 8.5 130 8.6 130.1 8.7 C 130.1 8.8 130.2 8.9 130.4 9 C 130.5 9 130.7 9.1 131 9.2 C 131.4 9.4 131.7 9.6 131.9 9.7 C 132.1 9.9 132.1 10.2 132.1 10.5 Z M 134.9 11.6 L 134.8 11.1 C 134.8 11.1 134.74 11.13 134.7 11.1 C 134.6 11.3 134.4 11.5 134.3 11.5 C 134.1 11.6 133.9 11.6 133.7 11.6 C 133.3 11.6 133.1 11.6 132.9 11.4 C 132.7 11.2 132.6 11 132.6 10.7 C 132.6 10.1 133.2 9.7 134.2 9.7 C 134.2 9.68 134.7 9.7 134.7 9.7 C 134.7 9.7 134.75 9.47 134.7 9.5 C 134.7 9.2 134.7 9 134.6 8.9 C 134.5 8.8 134.3 8.7 134.1 8.7 C 133.8 8.7 133.5 8.8 133.2 9 C 133.2 9 133 8.6 133 8.6 C 133.2 8.5 133.3 8.4 133.5 8.4 C 133.7 8.4 133.9 8.3 134.1 8.3 C 134.5 8.3 134.8 8.4 134.9 8.6 C 135.1 8.8 135.2 9 135.2 9.4 C 135.22 9.4 135.2 11.6 135.2 11.6 L 134.9 11.6 Z M 133.8 11.2 C 134.1 11.2 134.3 11.2 134.5 11 C 134.6 10.8 134.7 10.6 134.7 10.3 C 134.74 10.3 134.7 10 134.7 10 C 134.7 10 134.25 10.03 134.2 10 C 133.9 10 133.6 10.1 133.4 10.2 C 133.2 10.3 133.2 10.5 133.2 10.7 C 133.2 10.9 133.2 11 133.3 11.1 C 133.4 11.2 133.6 11.2 133.8 11.2 Z M 138.4 11.6 C 138.4 11.6 138.36 9.51 138.4 9.5 C 138.4 9.3 138.3 9.1 138.2 8.9 C 138.1 8.8 137.9 8.7 137.6 8.7 C 137.3 8.7 137 8.8 136.9 9 C 136.7 9.2 136.7 9.5 136.7 9.9 C 136.65 9.91 136.7 11.6 136.7 11.6 L 136.2 11.6 L 136.2 8.4 L 136.6 8.4 L 136.6 8.8 C 136.6 8.8 136.66 8.82 136.7 8.8 C 136.8 8.7 136.9 8.5 137.1 8.5 C 137.3 8.4 137.5 8.3 137.7 8.3 C 138.1 8.3 138.4 8.4 138.6 8.6 C 138.8 8.8 138.8 9.1 138.8 9.5 C 138.85 9.5 138.8 11.6 138.8 11.6 L 138.4 11.6 Z M 140.8 11.2 C 140.9 11.2 141 11.2 141.1 11.2 C 141.2 11.2 141.2 11.2 141.3 11.2 C 141.3 11.2 141.3 11.6 141.3 11.6 C 141.2 11.6 141.1 11.6 141 11.6 C 140.9 11.6 140.8 11.6 140.8 11.6 C 140.1 11.6 139.8 11.3 139.8 10.7 C 139.82 10.67 139.8 8.8 139.8 8.8 L 139.4 8.8 L 139.4 8.5 L 139.8 8.3 L 140 7.6 L 140.3 7.6 L 140.3 8.4 L 141.2 8.4 L 141.2 8.8 L 140.3 8.8 C 140.3 8.8 140.31 10.65 140.3 10.6 C 140.3 10.8 140.4 11 140.4 11.1 C 140.5 11.2 140.7 11.2 140.8 11.2 Z M 144.6 10 C 144.6 10.5 144.5 10.9 144.2 11.2 C 144 11.5 143.6 11.6 143.1 11.6 C 142.8 11.6 142.6 11.6 142.4 11.4 C 142.1 11.3 142 11.1 141.8 10.9 C 141.7 10.6 141.7 10.3 141.7 10 C 141.7 9.5 141.8 9.1 142.1 8.8 C 142.3 8.5 142.7 8.3 143.1 8.3 C 143.6 8.3 144 8.5 144.2 8.8 C 144.5 9.1 144.6 9.5 144.6 10 Z M 142.2 10 C 142.2 10.4 142.3 10.7 142.4 10.9 C 142.6 11.1 142.8 11.2 143.1 11.2 C 143.5 11.2 143.7 11.1 143.9 10.9 C 144 10.7 144.1 10.4 144.1 10 C 144.1 9.6 144 9.3 143.9 9.1 C 143.7 8.8 143.5 8.7 143.1 8.7 C 142.8 8.7 142.6 8.8 142.4 9 C 142.3 9.3 142.2 9.6 142.2 10 Z M 147.5 10.7 C 147.5 11 147.4 11.2 147.1 11.4 C 146.9 11.6 146.6 11.6 146.2 11.6 C 145.8 11.6 145.5 11.6 145.2 11.4 C 145.2 11.4 145.2 11 145.2 11 C 145.4 11.1 145.5 11.1 145.7 11.2 C 145.9 11.2 146.1 11.2 146.2 11.2 C 146.5 11.2 146.7 11.2 146.8 11.1 C 146.9 11 147 10.9 147 10.8 C 147 10.6 147 10.5 146.8 10.4 C 146.7 10.3 146.5 10.2 146.2 10.1 C 145.9 10 145.7 9.9 145.6 9.8 C 145.5 9.7 145.4 9.7 145.3 9.5 C 145.2 9.4 145.2 9.3 145.2 9.2 C 145.2 8.9 145.3 8.7 145.5 8.5 C 145.7 8.4 146 8.3 146.4 8.3 C 146.7 8.3 147.1 8.4 147.4 8.5 C 147.4 8.5 147.2 8.9 147.2 8.9 C 146.9 8.8 146.6 8.7 146.4 8.7 C 146.1 8.7 146 8.8 145.8 8.8 C 145.7 8.9 145.7 9 145.7 9.1 C 145.7 9.2 145.7 9.3 145.7 9.4 C 145.8 9.4 145.8 9.5 145.9 9.5 C 146 9.6 146.2 9.7 146.5 9.8 C 146.9 9.9 147.1 10 147.3 10.2 C 147.4 10.3 147.5 10.5 147.5 10.7 Z " stroke="none" fill="#000"/>
  </g>
  <g id="Polygon17724">
    <path d="M 2.2 4.6 L 1.3 4.6 L 1.3 1.1 L 0.1 1.1 L 0.1 0.3 L 3.4 0.3 L 3.4 1.1 L 2.2 1.1 L 2.2 4.6 Z M 6 4.6 L 5.8 4.1 C 5.8 4.1 5.77 4.15 5.8 4.1 C 5.6 4.3 5.5 4.5 5.3 4.5 C 5.1 4.6 4.9 4.6 4.7 4.6 C 4.4 4.6 4.1 4.6 3.9 4.4 C 3.8 4.2 3.7 3.9 3.7 3.6 C 3.7 3.3 3.8 3 4 2.8 C 4.3 2.7 4.6 2.6 5.1 2.6 C 5.13 2.57 5.7 2.6 5.7 2.6 C 5.7 2.6 5.7 2.41 5.7 2.4 C 5.7 2.1 5.5 1.9 5.2 1.9 C 4.9 1.9 4.6 2 4.3 2.1 C 4.3 2.1 4 1.5 4 1.5 C 4.3 1.3 4.8 1.2 5.2 1.2 C 5.7 1.2 6 1.3 6.2 1.5 C 6.5 1.7 6.6 2 6.6 2.4 C 6.59 2.41 6.6 4.6 6.6 4.6 L 6 4.6 Z M 5.7 3.1 C 5.7 3.1 5.35 3.08 5.4 3.1 C 5.1 3.1 4.9 3.1 4.8 3.2 C 4.6 3.3 4.6 3.4 4.6 3.6 C 4.6 3.9 4.7 4 5 4 C 5.2 4 5.4 3.9 5.5 3.8 C 5.6 3.7 5.7 3.5 5.7 3.3 C 5.7 3.34 5.7 3.1 5.7 3.1 Z M 10.3 1.3 L 10.3 1.8 C 10.3 1.8 9.79 1.9 9.8 1.9 C 9.9 2 9.9 2.2 9.9 2.4 C 9.9 2.7 9.8 3 9.6 3.2 C 9.3 3.4 9 3.5 8.5 3.5 C 8.54 3.51 8.4 3.5 8.4 3.5 C 8.4 3.5 8.24 3.49 8.2 3.5 C 8.2 3.6 8.1 3.6 8.1 3.7 C 8.1 3.8 8.3 3.9 8.6 3.9 C 8.6 3.9 9.2 3.9 9.2 3.9 C 9.5 3.9 9.8 4 10 4.1 C 10.2 4.3 10.3 4.5 10.3 4.8 C 10.3 5.2 10.1 5.5 9.8 5.7 C 9.5 5.9 9 6 8.4 6 C 7.9 6 7.6 6 7.4 5.8 C 7.1 5.6 7 5.4 7 5.1 C 7 4.9 7.1 4.8 7.2 4.6 C 7.3 4.5 7.5 4.4 7.7 4.3 C 7.6 4.3 7.6 4.2 7.5 4.2 C 7.4 4.1 7.4 4 7.4 3.9 C 7.4 3.7 7.4 3.6 7.5 3.6 C 7.6 3.5 7.7 3.4 7.8 3.3 C 7.6 3.2 7.5 3.1 7.4 3 C 7.3 2.8 7.2 2.6 7.2 2.4 C 7.2 2 7.4 1.7 7.6 1.5 C 7.8 1.4 8.2 1.3 8.6 1.3 C 8.7 1.3 8.8 1.3 8.9 1.3 C 9 1.3 9.1 1.3 9.2 1.3 C 9.16 1.32 10.3 1.3 10.3 1.3 Z M 7.8 5.1 C 7.8 5.2 7.8 5.3 7.9 5.3 C 8.1 5.4 8.2 5.4 8.4 5.4 C 8.8 5.4 9 5.4 9.2 5.3 C 9.4 5.2 9.5 5.1 9.5 5 C 9.5 4.8 9.4 4.7 9.3 4.7 C 9.2 4.7 9 4.6 8.8 4.6 C 8.8 4.6 8.3 4.6 8.3 4.6 C 8.2 4.6 8 4.7 7.9 4.7 C 7.8 4.8 7.8 4.9 7.8 5.1 Z M 8.6 1.8 C 8.3 1.8 8.1 2 8.1 2.4 C 8.1 2.6 8.1 2.7 8.2 2.8 C 8.3 2.9 8.4 3 8.6 3 C 8.8 3 8.9 2.9 9 2.8 C 9 2.7 9.1 2.6 9.1 2.4 C 9.1 2 8.9 1.8 8.6 1.8 C 8.6 1.8 8.6 1.8 8.6 1.8 Z M 12.9 4.6 L 12.7 4.1 C 12.7 4.1 12.66 4.15 12.7 4.1 C 12.5 4.3 12.4 4.5 12.2 4.5 C 12 4.6 11.8 4.6 11.6 4.6 C 11.3 4.6 11 4.6 10.8 4.4 C 10.7 4.2 10.6 3.9 10.6 3.6 C 10.6 3.3 10.7 3 10.9 2.8 C 11.2 2.7 11.5 2.6 12 2.6 C 12.03 2.57 12.6 2.6 12.6 2.6 C 12.6 2.6 12.59 2.41 12.6 2.4 C 12.6 2.1 12.4 1.9 12.1 1.9 C 11.8 1.9 11.5 2 11.2 2.1 C 11.2 2.1 10.9 1.5 10.9 1.5 C 11.2 1.3 11.7 1.2 12.1 1.2 C 12.6 1.2 12.9 1.3 13.1 1.5 C 13.4 1.7 13.5 2 13.5 2.4 C 13.48 2.41 13.5 4.6 13.5 4.6 L 12.9 4.6 Z M 12.6 3.1 C 12.6 3.1 12.25 3.08 12.2 3.1 C 12 3.1 11.8 3.1 11.7 3.2 C 11.5 3.3 11.5 3.4 11.5 3.6 C 11.5 3.9 11.6 4 11.9 4 C 12.1 4 12.3 3.9 12.4 3.8 C 12.5 3.7 12.6 3.5 12.6 3.3 C 12.59 3.34 12.6 3.1 12.6 3.1 Z M 16.1 4.6 C 15.8 4.6 15.5 4.5 15.2 4.2 C 15.2 4.2 15.2 4.2 15.2 4.2 C 15.2 4.5 15.2 4.7 15.2 4.7 C 15.23 4.71 15.2 6 15.2 6 L 14.3 6 L 14.3 1.3 L 15.1 1.3 L 15.2 1.7 C 15.2 1.7 15.23 1.74 15.2 1.7 C 15.4 1.4 15.8 1.3 16.2 1.3 C 16.6 1.3 16.9 1.4 17.1 1.7 C 17.3 2 17.4 2.4 17.4 2.9 C 17.4 3.3 17.3 3.6 17.2 3.9 C 17.1 4.1 17 4.3 16.8 4.4 C 16.6 4.6 16.4 4.6 16.1 4.6 Z M 15.9 2 C 15.7 2 15.5 2 15.4 2.2 C 15.3 2.3 15.2 2.5 15.2 2.8 C 15.2 2.8 15.2 2.9 15.2 2.9 C 15.2 3.3 15.3 3.5 15.4 3.7 C 15.5 3.8 15.7 3.9 15.9 3.9 C 16.3 3.9 16.5 3.6 16.5 2.9 C 16.5 2.6 16.4 2.4 16.3 2.2 C 16.2 2 16.1 2 15.9 2 Z M 20.2 4.6 L 20 4.1 C 20 4.1 19.96 4.15 20 4.1 C 19.8 4.3 19.7 4.5 19.5 4.5 C 19.3 4.6 19.1 4.6 18.9 4.6 C 18.6 4.6 18.3 4.6 18.1 4.4 C 18 4.2 17.9 3.9 17.9 3.6 C 17.9 3.3 18 3 18.2 2.8 C 18.5 2.7 18.8 2.6 19.3 2.6 C 19.33 2.57 19.9 2.6 19.9 2.6 C 19.9 2.6 19.89 2.41 19.9 2.4 C 19.9 2.1 19.7 1.9 19.4 1.9 C 19.1 1.9 18.8 2 18.5 2.1 C 18.5 2.1 18.2 1.5 18.2 1.5 C 18.5 1.3 19 1.2 19.4 1.2 C 19.9 1.2 20.2 1.3 20.4 1.5 C 20.7 1.7 20.8 2 20.8 2.4 C 20.78 2.41 20.8 4.6 20.8 4.6 L 20.2 4.6 Z M 19.9 3.1 C 19.9 3.1 19.55 3.08 19.5 3.1 C 19.3 3.1 19.1 3.1 19 3.2 C 18.8 3.3 18.8 3.4 18.8 3.6 C 18.8 3.9 18.9 4 19.2 4 C 19.4 4 19.6 3.9 19.7 3.8 C 19.8 3.7 19.9 3.5 19.9 3.3 C 19.89 3.34 19.9 3.1 19.9 3.1 Z M 21.2 1.3 L 22.2 1.3 C 22.2 1.3 22.77 3.16 22.8 3.2 C 22.8 3.3 22.9 3.5 22.9 3.7 C 22.9 3.7 22.9 3.7 22.9 3.7 C 22.9 3.5 23 3.3 23 3.2 C 23.02 3.16 23.6 1.3 23.6 1.3 L 24.6 1.3 C 24.6 1.3 23.2 5.01 23.2 5 C 23.1 5.4 22.9 5.6 22.7 5.8 C 22.4 5.9 22.1 6 21.8 6 C 21.7 6 21.5 6 21.4 6 C 21.4 6 21.4 5.3 21.4 5.3 C 21.5 5.3 21.6 5.3 21.7 5.3 C 21.9 5.3 22 5.3 22.1 5.2 C 22.3 5.1 22.4 4.9 22.4 4.7 C 22.42 4.73 22.5 4.6 22.5 4.6 L 21.2 1.3 Z M 25.7 2.9 C 25.7 3.3 25.8 3.5 25.9 3.7 C 26 3.8 26.1 3.9 26.4 3.9 C 26.6 3.9 26.8 3.8 26.9 3.7 C 27 3.5 27.1 3.3 27.1 2.9 C 27.1 2.6 27 2.4 26.9 2.2 C 26.8 2.1 26.6 2 26.4 2 C 26.1 2 26 2.1 25.9 2.2 C 25.8 2.4 25.7 2.6 25.7 2.9 Z M 28 2.9 C 28 3.5 27.8 3.9 27.5 4.2 C 27.3 4.5 26.9 4.6 26.4 4.6 C 26.1 4.6 25.8 4.6 25.5 4.4 C 25.3 4.3 25.1 4.1 25 3.8 C 24.9 3.6 24.8 3.3 24.8 2.9 C 24.8 2.4 24.9 2 25.2 1.7 C 25.5 1.4 25.9 1.3 26.4 1.3 C 26.7 1.3 27 1.3 27.2 1.5 C 27.5 1.6 27.6 1.8 27.8 2 C 27.9 2.3 28 2.6 28 2.9 Z M 28.5 4.2 C 28.5 4 28.6 3.9 28.7 3.8 C 28.7 3.7 28.9 3.7 29 3.7 C 29.2 3.7 29.3 3.7 29.4 3.8 C 29.5 3.9 29.5 4 29.5 4.2 C 29.5 4.3 29.5 4.4 29.4 4.5 C 29.3 4.6 29.2 4.7 29 4.7 C 28.9 4.7 28.7 4.6 28.7 4.5 C 28.6 4.5 28.5 4.3 28.5 4.2 Z M 28.5 1.8 C 28.5 1.6 28.6 1.5 28.7 1.4 C 28.7 1.3 28.9 1.3 29 1.3 C 29.2 1.3 29.3 1.3 29.4 1.4 C 29.5 1.5 29.5 1.6 29.5 1.8 C 29.5 1.9 29.5 2 29.4 2.1 C 29.3 2.2 29.2 2.2 29 2.2 C 28.9 2.2 28.7 2.2 28.7 2.1 C 28.6 2 28.5 1.9 28.5 1.8 Z M 35.3 2.4 C 35.3 3.1 35.1 3.7 34.8 4 C 34.4 4.4 33.8 4.6 33.1 4.6 C 33.11 4.59 31.9 4.6 31.9 4.6 L 31.9 0.3 C 31.9 0.3 33.23 0.31 33.2 0.3 C 33.9 0.3 34.4 0.5 34.8 0.9 C 35.2 1.2 35.3 1.7 35.3 2.4 Z M 34.8 2.4 C 34.8 1.9 34.7 1.4 34.4 1.2 C 34.1 0.9 33.7 0.7 33.1 0.7 C 33.14 0.74 32.4 0.7 32.4 0.7 L 32.4 4.2 C 32.4 4.2 33.02 4.16 33 4.2 C 33.6 4.2 34.1 4 34.4 3.7 C 34.7 3.4 34.8 3 34.8 2.4 Z M 37.6 1.3 C 37.8 1.3 37.9 1.3 38 1.4 C 38 1.4 37.9 1.8 37.9 1.8 C 37.8 1.8 37.7 1.8 37.6 1.8 C 37.3 1.8 37.1 1.9 36.9 2.1 C 36.7 2.3 36.6 2.6 36.6 2.9 C 36.65 2.87 36.6 4.6 36.6 4.6 L 36.2 4.6 L 36.2 1.4 L 36.6 1.4 L 36.6 2 C 36.6 2 36.64 1.97 36.6 2 C 36.8 1.8 36.9 1.6 37.1 1.5 C 37.2 1.4 37.4 1.3 37.6 1.3 Z M 38.5 4.3 C 38.5 4.1 38.5 4.1 38.6 4 C 38.6 3.9 38.7 3.9 38.8 3.9 C 38.9 3.9 39 3.9 39.1 4 C 39.2 4.1 39.2 4.1 39.2 4.3 C 39.2 4.4 39.2 4.5 39.1 4.6 C 39 4.6 38.9 4.7 38.8 4.7 C 38.7 4.7 38.6 4.6 38.6 4.6 C 38.5 4.5 38.5 4.4 38.5 4.3 Z M 45.1 2.4 C 45.1 3.1 44.9 3.7 44.5 4 C 44.1 4.4 43.6 4.6 42.8 4.6 C 42.84 4.59 41.7 4.6 41.7 4.6 L 41.7 0.3 C 41.7 0.3 42.97 0.31 43 0.3 C 43.6 0.3 44.2 0.5 44.5 0.9 C 44.9 1.2 45.1 1.7 45.1 2.4 Z M 44.5 2.4 C 44.5 1.9 44.4 1.4 44.1 1.2 C 43.8 0.9 43.4 0.7 42.9 0.7 C 42.88 0.74 42.2 0.7 42.2 0.7 L 42.2 4.2 C 42.2 4.2 42.76 4.16 42.8 4.2 C 43.4 4.2 43.8 4 44.1 3.7 C 44.4 3.4 44.5 3 44.5 2.4 Z M 48.7 3 C 48.7 3.5 48.5 3.9 48.3 4.2 C 48 4.5 47.6 4.6 47.2 4.6 C 46.9 4.6 46.6 4.6 46.4 4.4 C 46.2 4.3 46 4.1 45.9 3.9 C 45.8 3.6 45.7 3.3 45.7 3 C 45.7 2.5 45.9 2.1 46.1 1.8 C 46.4 1.5 46.7 1.3 47.2 1.3 C 47.7 1.3 48 1.5 48.3 1.8 C 48.5 2.1 48.7 2.5 48.7 3 Z M 46.2 3 C 46.2 3.4 46.3 3.7 46.5 3.9 C 46.6 4.1 46.9 4.2 47.2 4.2 C 47.5 4.2 47.8 4.1 47.9 3.9 C 48.1 3.7 48.2 3.4 48.2 3 C 48.2 2.6 48.1 2.3 47.9 2.1 C 47.8 1.8 47.5 1.7 47.2 1.7 C 46.9 1.7 46.6 1.8 46.5 2 C 46.3 2.3 46.2 2.6 46.2 3 Z M 49.9 4.6 L 49.5 4.6 L 49.5 0 L 49.9 0 L 49.9 4.6 Z M 53.7 3 C 53.7 3.5 53.6 3.9 53.3 4.2 C 53 4.5 52.7 4.6 52.2 4.6 C 51.9 4.6 51.7 4.6 51.4 4.4 C 51.2 4.3 51 4.1 50.9 3.9 C 50.8 3.6 50.7 3.3 50.7 3 C 50.7 2.5 50.9 2.1 51.1 1.8 C 51.4 1.5 51.8 1.3 52.2 1.3 C 52.7 1.3 53 1.5 53.3 1.8 C 53.6 2.1 53.7 2.5 53.7 3 Z M 51.2 3 C 51.2 3.4 51.3 3.7 51.5 3.9 C 51.7 4.1 51.9 4.2 52.2 4.2 C 52.5 4.2 52.8 4.1 52.9 3.9 C 53.1 3.7 53.2 3.4 53.2 3 C 53.2 2.6 53.1 2.3 52.9 2.1 C 52.8 1.8 52.5 1.7 52.2 1.7 C 51.9 1.7 51.7 1.8 51.5 2 C 51.3 2.3 51.2 2.6 51.2 3 Z M 55.9 1.3 C 56.1 1.3 56.2 1.3 56.3 1.4 C 56.3 1.4 56.3 1.8 56.3 1.8 C 56.1 1.8 56 1.8 55.9 1.8 C 55.7 1.8 55.4 1.9 55.2 2.1 C 55.1 2.3 55 2.6 55 2.9 C 54.97 2.87 55 4.6 55 4.6 L 54.5 4.6 L 54.5 1.4 L 54.9 1.4 L 54.9 2 C 54.9 2 54.96 1.97 55 2 C 55.1 1.8 55.2 1.6 55.4 1.5 C 55.6 1.4 55.7 1.3 55.9 1.3 Z M 58.2 4.6 C 57.8 4.6 57.4 4.5 57.1 4.2 C 56.8 3.9 56.7 3.5 56.7 3 C 56.7 2.5 56.8 2.1 57.1 1.8 C 57.3 1.5 57.7 1.3 58.1 1.3 C 58.5 1.3 58.8 1.5 59.1 1.7 C 59.3 2 59.4 2.3 59.4 2.8 C 59.41 2.77 59.4 3.1 59.4 3.1 C 59.4 3.1 57.2 3.07 57.2 3.1 C 57.2 3.5 57.3 3.7 57.5 3.9 C 57.7 4.1 57.9 4.2 58.2 4.2 C 58.6 4.2 58.9 4.2 59.3 4 C 59.3 4 59.3 4.4 59.3 4.4 C 59.1 4.5 58.9 4.6 58.8 4.6 C 58.6 4.6 58.4 4.6 58.2 4.6 Z M 58.1 1.7 C 57.8 1.7 57.6 1.8 57.5 2 C 57.3 2.1 57.2 2.4 57.2 2.7 C 57.2 2.7 58.9 2.7 58.9 2.7 C 58.9 2.4 58.8 2.1 58.7 2 C 58.5 1.8 58.4 1.7 58.1 1.7 Z M 62.3 3.7 C 62.3 4 62.1 4.2 61.9 4.4 C 61.7 4.6 61.4 4.6 61 4.6 C 60.6 4.6 60.2 4.6 60 4.4 C 60 4.4 60 4 60 4 C 60.1 4.1 60.3 4.1 60.5 4.2 C 60.7 4.2 60.8 4.2 61 4.2 C 61.2 4.2 61.4 4.2 61.6 4.1 C 61.7 4 61.8 3.9 61.8 3.8 C 61.8 3.6 61.7 3.5 61.6 3.4 C 61.5 3.3 61.3 3.2 61 3.1 C 60.7 3 60.5 2.9 60.3 2.8 C 60.2 2.7 60.1 2.7 60.1 2.5 C 60 2.4 60 2.3 60 2.2 C 60 1.9 60.1 1.7 60.3 1.5 C 60.5 1.4 60.8 1.3 61.2 1.3 C 61.5 1.3 61.9 1.4 62.2 1.5 C 62.2 1.5 62 1.9 62 1.9 C 61.7 1.8 61.4 1.7 61.1 1.7 C 60.9 1.7 60.7 1.8 60.6 1.8 C 60.5 1.9 60.4 2 60.4 2.1 C 60.4 2.2 60.5 2.3 60.5 2.4 C 60.5 2.4 60.6 2.5 60.7 2.5 C 60.8 2.6 61 2.7 61.3 2.8 C 61.7 2.9 61.9 3 62.1 3.2 C 62.2 3.3 62.3 3.5 62.3 3.7 Z M 65.9 4.6 L 65.4 4.6 L 65.4 0.7 L 64 0.7 L 64 0.3 L 67.2 0.3 L 67.2 0.7 L 65.9 0.7 L 65.9 4.6 Z M 69.7 4.6 L 69.6 4.1 C 69.6 4.1 69.59 4.13 69.6 4.1 C 69.4 4.3 69.3 4.5 69.1 4.5 C 69 4.6 68.8 4.6 68.5 4.6 C 68.2 4.6 68 4.6 67.8 4.4 C 67.6 4.2 67.5 4 67.5 3.7 C 67.5 3.1 68 2.7 69.1 2.7 C 69.06 2.68 69.6 2.7 69.6 2.7 C 69.6 2.7 69.6 2.47 69.6 2.5 C 69.6 2.2 69.5 2 69.4 1.9 C 69.3 1.8 69.2 1.7 68.9 1.7 C 68.7 1.7 68.3 1.8 68 2 C 68 2 67.9 1.6 67.9 1.6 C 68 1.5 68.2 1.4 68.4 1.4 C 68.6 1.4 68.8 1.3 68.9 1.3 C 69.3 1.3 69.6 1.4 69.8 1.6 C 70 1.8 70.1 2 70.1 2.4 C 70.08 2.4 70.1 4.6 70.1 4.6 L 69.7 4.6 Z M 68.6 4.2 C 68.9 4.2 69.2 4.2 69.3 4 C 69.5 3.8 69.6 3.6 69.6 3.3 C 69.59 3.3 69.6 3 69.6 3 C 69.6 3 69.1 3.03 69.1 3 C 68.7 3 68.4 3.1 68.3 3.2 C 68.1 3.3 68 3.5 68 3.7 C 68 3.9 68.1 4 68.2 4.1 C 68.3 4.2 68.4 4.2 68.6 4.2 Z M 70.5 1.4 L 71 1.4 C 71 1.4 71.73 3.21 71.7 3.2 C 71.9 3.6 72 3.9 72 4.1 C 72 4.1 72 4.1 72 4.1 C 72.1 4 72.1 3.8 72.2 3.6 C 72.3 3.4 72.5 2.6 73 1.4 C 73 1.38 73.5 1.4 73.5 1.4 C 73.5 1.4 72.14 5.04 72.1 5 C 72 5.4 71.8 5.7 71.7 5.8 C 71.5 6 71.3 6 71 6 C 70.8 6 70.7 6 70.5 6 C 70.5 6 70.5 5.6 70.5 5.6 C 70.7 5.6 70.8 5.6 70.9 5.6 C 71.2 5.6 71.5 5.4 71.6 5.1 C 71.62 5.07 71.8 4.6 71.8 4.6 L 70.5 1.4 Z M 74.5 4.6 L 74 4.6 L 74 0 L 74.5 0 L 74.5 4.6 Z M 77.4 4.6 L 77.3 4.1 C 77.3 4.1 77.29 4.13 77.3 4.1 C 77.1 4.3 77 4.5 76.8 4.5 C 76.7 4.6 76.5 4.6 76.2 4.6 C 75.9 4.6 75.6 4.6 75.5 4.4 C 75.3 4.2 75.2 4 75.2 3.7 C 75.2 3.1 75.7 2.7 76.8 2.7 C 76.75 2.68 77.3 2.7 77.3 2.7 C 77.3 2.7 77.3 2.47 77.3 2.5 C 77.3 2.2 77.2 2 77.1 1.9 C 77 1.8 76.9 1.7 76.6 1.7 C 76.3 1.7 76 1.8 75.7 2 C 75.7 2 75.6 1.6 75.6 1.6 C 75.7 1.5 75.9 1.4 76.1 1.4 C 76.3 1.4 76.5 1.3 76.6 1.3 C 77 1.3 77.3 1.4 77.5 1.6 C 77.7 1.8 77.8 2 77.8 2.4 C 77.77 2.4 77.8 4.6 77.8 4.6 L 77.4 4.6 Z M 76.3 4.2 C 76.6 4.2 76.9 4.2 77 4 C 77.2 3.8 77.3 3.6 77.3 3.3 C 77.29 3.3 77.3 3 77.3 3 C 77.3 3 76.8 3.03 76.8 3 C 76.4 3 76.1 3.1 76 3.2 C 75.8 3.3 75.7 3.5 75.7 3.7 C 75.7 3.9 75.8 4 75.9 4.1 C 76 4.2 76.1 4.2 76.3 4.2 Z M 80.9 4.6 C 80.9 4.6 80.91 2.51 80.9 2.5 C 80.9 2.3 80.9 2.1 80.7 1.9 C 80.6 1.8 80.4 1.7 80.2 1.7 C 79.8 1.7 79.6 1.8 79.4 2 C 79.3 2.2 79.2 2.5 79.2 2.9 C 79.2 2.91 79.2 4.6 79.2 4.6 L 78.7 4.6 L 78.7 1.4 L 79.1 1.4 L 79.2 1.8 C 79.2 1.8 79.21 1.82 79.2 1.8 C 79.3 1.7 79.5 1.5 79.6 1.5 C 79.8 1.4 80 1.3 80.2 1.3 C 80.6 1.3 80.9 1.4 81.1 1.6 C 81.3 1.8 81.4 2.1 81.4 2.5 C 81.4 2.5 81.4 4.6 81.4 4.6 L 80.9 4.6 Z " stroke="none" fill="#000"/>
  </g>
</svg>