<?xml version="1.0" standalone="no"?>
<!DOCTYPE svg PUBLIC "-//W3C//DTD SVG 1.1//EN" "http://www.w3.org/Graphics/SVG/1.1/DTD/svg11.dtd">
<svg xmlns="http://www.w3.org/2000/svg" version="1.1" width="339px" height="18.5px" viewBox="0 -3 339 18.5" style="top:-3px">
  <desc>Miguel Joshua Calayan, Christine Lacsa, AT Carlos Miguel Libosada</desc>
  <defs/>
  <g id="Polygon29260">
    <path d="M 26.3 5.6 L 25 1.3 L 25 5.6 L 23.9 5.6 L 23.9 0.3 L 25.9 0.3 L 26.8 3.5 L 27.8 0.3 L 29.8 0.3 L 29.8 5.6 L 28.5 5.6 L 28.5 1.3 L 27.2 5.6 L 26.3 5.6 Z M 32.4 0.3 L 32.4 5.6 L 31.1 5.6 L 31.1 0.3 L 32.4 0.3 Z M 37.9 2.8 L 37.9 5.6 C 37.9 5.6 37.36 5.6 37.4 5.6 C 37.3 5.4 37.3 5.2 37.2 5 C 36.8 5.5 36.3 5.7 35.7 5.7 C 35 5.7 34.5 5.4 34.1 4.9 C 33.7 4.4 33.5 3.8 33.5 3 C 33.5 2.2 33.7 1.5 34.1 1 C 34.6 0.4 35.1 0.2 35.8 0.2 C 36.4 0.2 36.9 0.4 37.3 0.7 C 37.6 1 37.8 1.5 37.9 2 C 37.9 2 36.7 2.2 36.7 2.2 C 36.6 1.5 36.3 1.2 35.8 1.2 C 35.5 1.2 35.2 1.4 35.1 1.7 C 34.9 2 34.8 2.4 34.8 3 C 34.8 3.5 34.9 3.9 35.1 4.2 C 35.3 4.5 35.5 4.7 35.9 4.7 C 36.1 4.7 36.3 4.6 36.5 4.4 C 36.7 4.3 36.7 4.1 36.7 3.7 C 36.74 3.75 35.7 3.7 35.7 3.7 L 35.7 2.8 L 37.9 2.8 Z M 43.4 0.3 C 43.4 0.3 43.44 3.59 43.4 3.6 C 43.4 4.1 43.4 4.5 43.3 4.8 C 43.1 5 42.9 5.3 42.6 5.4 C 42.2 5.6 41.8 5.7 41.3 5.7 C 40.8 5.7 40.4 5.6 40.1 5.5 C 39.8 5.3 39.6 5.1 39.4 4.8 C 39.3 4.5 39.2 4.1 39.2 3.6 C 39.18 3.59 39.2 0.3 39.2 0.3 L 40.5 0.3 C 40.5 0.3 40.54 3.59 40.5 3.6 C 40.5 3.9 40.6 4.1 40.6 4.2 C 40.7 4.4 40.8 4.5 40.9 4.5 C 41 4.6 41.2 4.7 41.4 4.7 C 41.7 4.7 41.9 4.6 42 4.5 C 42.1 4.5 42.2 4.4 42.3 4.2 C 42.3 4.1 42.4 3.9 42.4 3.6 C 42.37 3.59 42.4 0.3 42.4 0.3 L 43.4 0.3 Z M 48.6 1.3 L 46 1.3 L 46 2.4 L 48 2.4 L 48 3.4 L 46 3.4 L 46 4.5 L 48.6 4.5 L 48.6 5.6 L 44.7 5.6 L 44.7 0.3 L 48.6 0.3 L 48.6 1.3 Z M 50.9 4.5 L 53 4.5 L 53 5.6 L 49.6 5.6 L 49.6 0.3 L 50.9 0.3 L 50.9 4.5 Z M 58.3 0.3 C 58.3 0.3 58.33 4.07 58.3 4.1 C 58.3 4.6 58.2 5 57.9 5.3 C 57.7 5.6 57.3 5.7 56.7 5.7 C 56.4 5.7 56.1 5.7 55.8 5.6 C 55.8 5.6 55.8 4.6 55.8 4.6 C 56.1 4.6 56.3 4.6 56.5 4.6 C 56.6 4.6 56.7 4.6 56.8 4.5 C 56.9 4.5 57 4.4 57 4.3 C 57.1 4.3 57.1 4.1 57.1 3.9 C 57.08 3.92 57.1 0.3 57.1 0.3 L 58.3 0.3 Z M 61.7 5.7 C 60.9 5.7 60.4 5.4 60 4.9 C 59.6 4.3 59.4 3.7 59.4 2.9 C 59.4 2.1 59.6 1.5 60 1 C 60.4 0.4 61 0.2 61.7 0.2 C 62.5 0.2 63 0.5 63.4 1 C 63.8 1.6 64 2.2 64 2.9 C 64 3.7 63.8 4.4 63.4 4.9 C 63 5.4 62.4 5.7 61.7 5.7 Z M 62.7 2.9 C 62.7 1.8 62.3 1.2 61.7 1.2 C 61 1.2 60.7 1.8 60.7 2.9 C 60.7 4.1 61 4.7 61.7 4.7 C 62.3 4.7 62.7 4.1 62.7 2.9 C 62.7 2.9 62.7 2.9 62.7 2.9 Z M 66.8 0.2 C 67.8 0.2 68.5 0.6 68.8 1.4 C 68.8 1.4 67.7 1.8 67.7 1.8 C 67.6 1.4 67.3 1.2 66.8 1.2 C 66.3 1.2 66.1 1.3 66.1 1.6 C 66.1 1.8 66.1 1.9 66.2 2 C 66.3 2.1 66.5 2.1 66.8 2.2 C 67.4 2.3 67.8 2.4 68 2.5 C 68.3 2.6 68.5 2.8 68.7 3.1 C 68.8 3.3 68.9 3.6 68.9 3.9 C 68.9 4.4 68.7 4.8 68.4 5.2 C 68 5.5 67.4 5.7 66.7 5.7 C 66.2 5.7 65.7 5.6 65.3 5.3 C 64.9 5.1 64.7 4.7 64.6 4.2 C 64.6 4.2 65.7 3.9 65.7 3.9 C 65.9 4.4 66.2 4.7 66.8 4.7 C 67.1 4.7 67.3 4.6 67.4 4.5 C 67.6 4.4 67.7 4.3 67.7 4.1 C 67.7 4 67.6 3.8 67.5 3.8 C 67.3 3.7 67.1 3.6 66.7 3.5 C 66 3.4 65.6 3.2 65.3 2.9 C 65 2.7 64.8 2.3 64.8 1.9 C 64.8 1.4 65 1 65.4 0.7 C 65.7 0.4 66.2 0.2 66.8 0.2 C 66.8 0.2 66.8 0.2 66.8 0.2 Z M 74.2 0.3 L 74.2 5.6 L 73 5.6 L 73 3.4 L 71.3 3.4 L 71.3 5.6 L 70.1 5.6 L 70.1 0.3 L 71.3 0.3 L 71.3 2.3 L 73 2.3 L 73 0.3 L 74.2 0.3 Z M 79.8 0.3 C 79.8 0.3 79.77 3.59 79.8 3.6 C 79.8 4.1 79.7 4.5 79.6 4.8 C 79.5 5 79.2 5.3 78.9 5.4 C 78.6 5.6 78.2 5.7 77.6 5.7 C 77.1 5.7 76.7 5.6 76.4 5.5 C 76.1 5.3 75.9 5.1 75.7 4.8 C 75.6 4.5 75.5 4.1 75.5 3.6 C 75.51 3.59 75.5 0.3 75.5 0.3 L 76.9 0.3 C 76.9 0.3 76.87 3.59 76.9 3.6 C 76.9 3.9 76.9 4.1 76.9 4.2 C 77 4.4 77.1 4.5 77.2 4.5 C 77.4 4.6 77.6 4.7 77.8 4.7 C 78 4.7 78.2 4.6 78.3 4.5 C 78.5 4.5 78.6 4.4 78.6 4.2 C 78.7 4.1 78.7 3.9 78.7 3.6 C 78.7 3.59 78.7 0.3 78.7 0.3 L 79.8 0.3 Z M 83.6 0.3 L 85.3 5.6 L 83.9 5.6 L 83.6 4.5 L 81.9 4.5 L 81.5 5.6 L 80.4 5.6 L 82.1 0.3 L 83.6 0.3 Z M 82.2 3.5 L 83.3 3.5 L 82.7 1.6 L 82.2 3.5 Z M 90.6 0.2 C 91.9 0.2 92.6 0.9 92.8 2.3 C 92.8 2.3 91.5 2.3 91.5 2.3 C 91.4 1.6 91.1 1.2 90.6 1.2 C 89.9 1.2 89.6 1.8 89.6 2.9 C 89.6 3.6 89.7 4.1 89.9 4.3 C 90 4.5 90.3 4.7 90.6 4.7 C 91.1 4.7 91.4 4.3 91.6 3.7 C 91.6 3.7 92.8 3.7 92.8 3.7 C 92.7 4.4 92.5 4.9 92.1 5.2 C 91.7 5.5 91.2 5.7 90.6 5.7 C 89.9 5.7 89.3 5.4 88.9 5 C 88.4 4.5 88.2 3.8 88.2 2.9 C 88.2 2.1 88.4 1.5 88.9 1 C 89.3 0.4 89.9 0.2 90.6 0.2 C 90.6 0.2 90.6 0.2 90.6 0.2 Z M 96.4 0.3 L 98 5.6 L 96.7 5.6 L 96.4 4.5 L 94.6 4.5 L 94.3 5.6 L 93.2 5.6 L 94.9 0.3 L 96.4 0.3 Z M 94.9 3.5 L 96.1 3.5 L 95.5 1.6 L 94.9 3.5 Z M 100.2 4.5 L 102.3 4.5 L 102.3 5.6 L 98.9 5.6 L 98.9 0.3 L 100.2 0.3 L 100.2 4.5 Z M 105.9 0.3 L 107.6 5.6 L 106.2 5.6 L 105.9 4.5 L 104.2 4.5 L 103.8 5.6 L 102.7 5.6 L 104.5 0.3 L 105.9 0.3 Z M 104.5 3.5 L 105.6 3.5 L 105 1.6 L 104.5 3.5 Z M 111.9 0.3 L 110.3 3.4 L 110.3 5.6 L 109 5.6 L 109 3.4 L 107.3 0.3 L 108.8 0.3 L 109.8 2.3 L 110.8 0.3 L 111.9 0.3 Z M 114.8 0.3 L 116.5 5.6 L 115.2 5.6 L 114.8 4.5 L 113.1 4.5 L 112.8 5.6 L 111.7 5.6 L 113.4 0.3 L 114.8 0.3 Z M 113.4 3.5 L 114.5 3.5 L 114 1.6 L 113.4 3.5 Z M 121.5 0.3 L 121.5 5.6 L 120.4 5.6 C 120.4 5.6 118.35 2 118.4 2 C 118.4 2.1 118.4 2.2 118.4 2.2 C 118.4 2.3 118.4 2.3 118.4 2.4 C 118.38 2.41 118.4 5.6 118.4 5.6 L 117.4 5.6 L 117.4 0.3 L 118.8 0.3 C 118.8 0.3 120.57 3.41 120.6 3.4 C 120.5 3.3 120.5 3.1 120.5 3.1 C 120.54 3.06 120.5 0.3 120.5 0.3 L 121.5 0.3 Z M 124.1 4.4 L 124.1 5.5 L 123.3 6.8 L 122.8 6.8 L 123.5 5.6 L 122.8 5.6 L 122.8 4.4 L 124.1 4.4 Z M 129.8 0.2 C 131.1 0.2 131.8 0.9 132 2.3 C 132 2.3 130.7 2.3 130.7 2.3 C 130.6 1.6 130.3 1.2 129.8 1.2 C 129.1 1.2 128.8 1.8 128.8 2.9 C 128.8 3.6 128.9 4.1 129.1 4.3 C 129.2 4.5 129.5 4.7 129.8 4.7 C 130.3 4.7 130.6 4.3 130.7 3.7 C 130.7 3.7 132 3.7 132 3.7 C 131.9 4.4 131.6 4.9 131.2 5.2 C 130.8 5.5 130.4 5.7 129.8 5.7 C 129.1 5.7 128.5 5.4 128.1 5 C 127.6 4.5 127.4 3.8 127.4 2.9 C 127.4 2.1 127.6 1.5 128 1 C 128.5 0.4 129.1 0.2 129.8 0.2 C 129.8 0.2 129.8 0.2 129.8 0.2 Z M 137.1 0.3 L 137.1 5.6 L 135.9 5.6 L 135.9 3.4 L 134.2 3.4 L 134.2 5.6 L 133 5.6 L 133 0.3 L 134.2 0.3 L 134.2 2.3 L 135.9 2.3 L 135.9 0.3 L 137.1 0.3 Z M 139.8 3.5 L 139.8 5.6 L 138.5 5.6 L 138.5 0.3 C 138.5 0.3 140.85 0.27 140.8 0.3 C 141.3 0.3 141.6 0.3 141.9 0.4 C 142.2 0.5 142.4 0.7 142.5 1 C 142.7 1.2 142.8 1.5 142.8 1.9 C 142.8 2.5 142.5 3 141.9 3.2 C 141.87 3.24 142.9 5.6 142.9 5.6 L 141.5 5.6 L 140.7 3.5 L 139.8 3.5 Z M 139.8 1.2 L 139.8 2.6 C 139.8 2.6 140.53 2.58 140.5 2.6 C 140.8 2.6 141 2.6 141.1 2.5 C 141.2 2.5 141.3 2.4 141.4 2.3 C 141.5 2.2 141.5 2 141.5 1.9 C 141.5 1.7 141.5 1.6 141.4 1.5 C 141.3 1.4 141.2 1.3 141.1 1.3 C 141 1.2 140.8 1.2 140.5 1.2 C 140.5 1.22 139.8 1.2 139.8 1.2 Z M 145.3 0.3 L 145.3 5.6 L 144.1 5.6 L 144.1 0.3 L 145.3 0.3 Z M 148.4 0.2 C 149.4 0.2 150.1 0.6 150.4 1.4 C 150.4 1.4 149.3 1.8 149.3 1.8 C 149.2 1.4 148.9 1.2 148.4 1.2 C 147.9 1.2 147.7 1.3 147.7 1.6 C 147.7 1.8 147.7 1.9 147.8 2 C 147.9 2.1 148.1 2.1 148.5 2.2 C 149 2.3 149.4 2.4 149.7 2.5 C 149.9 2.6 150.1 2.8 150.3 3.1 C 150.5 3.3 150.5 3.6 150.5 3.9 C 150.5 4.4 150.4 4.8 150 5.2 C 149.6 5.5 149.1 5.7 148.3 5.7 C 147.8 5.7 147.3 5.6 146.9 5.3 C 146.6 5.1 146.3 4.7 146.2 4.2 C 146.2 4.2 147.3 3.9 147.3 3.9 C 147.5 4.4 147.8 4.7 148.4 4.7 C 148.7 4.7 148.9 4.6 149.1 4.5 C 149.2 4.4 149.3 4.3 149.3 4.1 C 149.3 4 149.2 3.8 149.1 3.8 C 149 3.7 148.7 3.6 148.3 3.5 C 147.7 3.4 147.2 3.2 146.9 2.9 C 146.6 2.7 146.5 2.3 146.5 1.9 C 146.5 1.4 146.6 1 147 0.7 C 147.3 0.4 147.8 0.2 148.4 0.2 C 148.4 0.2 148.4 0.2 148.4 0.2 Z M 155.1 0.3 L 155.1 1.3 L 153.8 1.3 L 153.8 5.6 L 152.5 5.6 L 152.5 1.3 L 151.2 1.3 L 151.2 0.3 L 155.1 0.3 Z M 157.2 0.3 L 157.2 5.6 L 156 5.6 L 156 0.3 L 157.2 0.3 Z M 162.7 0.3 L 162.7 5.6 L 161.6 5.6 C 161.6 5.6 159.54 2 159.5 2 C 159.5 2.1 159.5 2.2 159.6 2.2 C 159.6 2.3 159.6 2.3 159.6 2.4 C 159.57 2.41 159.6 5.6 159.6 5.6 L 158.6 5.6 L 158.6 0.3 L 159.9 0.3 C 159.9 0.3 161.75 3.41 161.8 3.4 C 161.7 3.3 161.7 3.1 161.7 3.1 C 161.73 3.06 161.7 0.3 161.7 0.3 L 162.7 0.3 Z M 167.9 1.3 L 165.4 1.3 L 165.4 2.4 L 167.4 2.4 L 167.4 3.4 L 165.4 3.4 L 165.4 4.5 L 167.9 4.5 L 167.9 5.6 L 164.1 5.6 L 164.1 0.3 L 167.9 0.3 L 167.9 1.3 Z M 172.5 4.5 L 174.7 4.5 L 174.7 5.6 L 171.3 5.6 L 171.3 0.3 L 172.5 0.3 L 172.5 4.5 Z M 178.3 0.3 L 179.9 5.6 L 178.6 5.6 L 178.2 4.5 L 176.5 4.5 L 176.2 5.6 L 175.1 5.6 L 176.8 0.3 L 178.3 0.3 Z M 176.8 3.5 L 178 3.5 L 177.4 1.6 L 176.8 3.5 Z M 182.8 0.2 C 184.1 0.2 184.8 0.9 184.9 2.3 C 184.9 2.3 183.6 2.3 183.6 2.3 C 183.6 1.6 183.3 1.2 182.8 1.2 C 182.1 1.2 181.8 1.8 181.8 2.9 C 181.8 3.6 181.9 4.1 182 4.3 C 182.2 4.5 182.5 4.7 182.8 4.7 C 183.3 4.7 183.6 4.3 183.7 3.7 C 183.7 3.7 184.9 3.7 184.9 3.7 C 184.9 4.4 184.6 4.9 184.2 5.2 C 183.8 5.5 183.3 5.7 182.8 5.7 C 182.1 5.7 181.5 5.4 181 5 C 180.6 4.5 180.4 3.8 180.4 2.9 C 180.4 2.1 180.6 1.5 181 1 C 181.5 0.4 182 0.2 182.8 0.2 C 182.8 0.2 182.8 0.2 182.8 0.2 Z M 187.6 0.2 C 188.7 0.2 189.4 0.6 189.7 1.4 C 189.7 1.4 188.6 1.8 188.6 1.8 C 188.5 1.4 188.2 1.2 187.7 1.2 C 187.2 1.2 187 1.3 187 1.6 C 187 1.8 187 1.9 187.1 2 C 187.2 2.1 187.4 2.1 187.7 2.2 C 188.3 2.3 188.7 2.4 188.9 2.5 C 189.2 2.6 189.4 2.8 189.5 3.1 C 189.7 3.3 189.8 3.6 189.8 3.9 C 189.8 4.4 189.6 4.8 189.3 5.2 C 188.9 5.5 188.3 5.7 187.6 5.7 C 187.1 5.7 186.6 5.6 186.2 5.3 C 185.8 5.1 185.6 4.7 185.4 4.2 C 185.4 4.2 186.6 3.9 186.6 3.9 C 186.7 4.4 187.1 4.7 187.7 4.7 C 188 4.7 188.2 4.6 188.3 4.5 C 188.5 4.4 188.5 4.3 188.5 4.1 C 188.5 4 188.5 3.8 188.3 3.8 C 188.2 3.7 188 3.6 187.6 3.5 C 186.9 3.4 186.4 3.2 186.2 2.9 C 185.9 2.7 185.7 2.3 185.7 1.9 C 185.7 1.4 185.9 1 186.2 0.7 C 186.6 0.4 187.1 0.2 187.6 0.2 C 187.6 0.2 187.6 0.2 187.6 0.2 Z M 193.5 0.3 L 195.2 5.6 L 193.8 5.6 L 193.5 4.5 L 191.8 4.5 L 191.4 5.6 L 190.3 5.6 L 192 0.3 L 193.5 0.3 Z M 192.1 3.5 L 193.2 3.5 L 192.6 1.6 L 192.1 3.5 Z M 197.3 4.4 L 197.3 5.5 L 196.6 6.8 L 196.1 6.8 L 196.7 5.6 L 196.1 5.6 L 196.1 4.4 L 197.3 4.4 Z M 203.6 0.3 L 205.2 5.6 L 203.9 5.6 L 203.6 4.5 L 201.8 4.5 L 201.5 5.6 L 200.4 5.6 L 202.1 0.3 L 203.6 0.3 Z M 202.1 3.5 L 203.3 3.5 L 202.7 1.6 L 202.1 3.5 Z M 209.1 0.3 L 209.1 1.3 L 207.8 1.3 L 207.8 5.6 L 206.5 5.6 L 206.5 1.3 L 205.2 1.3 L 205.2 0.3 L 209.1 0.3 Z M 214.4 0.2 C 215.7 0.2 216.4 0.9 216.6 2.3 C 216.6 2.3 215.3 2.3 215.3 2.3 C 215.2 1.6 214.9 1.2 214.4 1.2 C 213.7 1.2 213.4 1.8 213.4 2.9 C 213.4 3.6 213.5 4.1 213.7 4.3 C 213.8 4.5 214.1 4.7 214.4 4.7 C 214.9 4.7 215.2 4.3 215.4 3.7 C 215.4 3.7 216.6 3.7 216.6 3.7 C 216.5 4.4 216.3 4.9 215.9 5.2 C 215.5 5.5 215 5.7 214.4 5.7 C 213.7 5.7 213.1 5.4 212.7 5 C 212.2 4.5 212 3.8 212 2.9 C 212 2.1 212.2 1.5 212.7 1 C 213.1 0.4 213.7 0.2 214.4 0.2 C 214.4 0.2 214.4 0.2 214.4 0.2 Z M 220.2 0.3 L 221.8 5.6 L 220.5 5.6 L 220.2 4.5 L 218.4 4.5 L 218.1 5.6 L 217 5.6 L 218.7 0.3 L 220.2 0.3 Z M 218.7 3.5 L 219.9 3.5 L 219.3 1.6 L 218.7 3.5 Z M 224 3.5 L 224 5.6 L 222.7 5.6 L 222.7 0.3 C 222.7 0.3 225.08 0.27 225.1 0.3 C 225.5 0.3 225.9 0.3 226.1 0.4 C 226.4 0.5 226.6 0.7 226.8 1 C 226.9 1.2 227 1.5 227 1.9 C 227 2.5 226.7 3 226.1 3.2 C 226.1 3.24 227.1 5.6 227.1 5.6 L 225.7 5.6 L 224.9 3.5 L 224 3.5 Z M 224 1.2 L 224 2.6 C 224 2.6 224.76 2.58 224.8 2.6 C 225 2.6 225.2 2.6 225.3 2.5 C 225.4 2.5 225.5 2.4 225.6 2.3 C 225.7 2.2 225.7 2 225.7 1.9 C 225.7 1.7 225.7 1.6 225.6 1.5 C 225.5 1.4 225.4 1.3 225.3 1.3 C 225.2 1.2 225 1.2 224.7 1.2 C 224.73 1.22 224 1.2 224 1.2 Z M 229.6 4.5 L 231.7 4.5 L 231.7 5.6 L 228.3 5.6 L 228.3 0.3 L 229.6 0.3 L 229.6 4.5 Z M 234.6 5.7 C 233.9 5.7 233.3 5.4 232.9 4.9 C 232.5 4.3 232.3 3.7 232.3 2.9 C 232.3 2.1 232.5 1.5 232.9 1 C 233.3 0.4 233.9 0.2 234.6 0.2 C 235.4 0.2 235.9 0.5 236.3 1 C 236.7 1.6 236.9 2.2 236.9 2.9 C 236.9 3.7 236.7 4.4 236.3 4.9 C 235.9 5.4 235.3 5.7 234.6 5.7 Z M 235.6 2.9 C 235.6 1.8 235.3 1.2 234.6 1.2 C 234 1.2 233.6 1.8 233.6 2.9 C 233.6 4.1 234 4.7 234.6 4.7 C 235.3 4.7 235.6 4.1 235.6 2.9 C 235.6 2.9 235.6 2.9 235.6 2.9 Z M 239.7 0.2 C 240.7 0.2 241.4 0.6 241.7 1.4 C 241.7 1.4 240.6 1.8 240.6 1.8 C 240.5 1.4 240.2 1.2 239.7 1.2 C 239.2 1.2 239 1.3 239 1.6 C 239 1.8 239 1.9 239.1 2 C 239.2 2.1 239.4 2.1 239.8 2.2 C 240.3 2.3 240.7 2.4 240.9 2.5 C 241.2 2.6 241.4 2.8 241.6 3.1 C 241.8 3.3 241.8 3.6 241.8 3.9 C 241.8 4.4 241.7 4.8 241.3 5.2 C 240.9 5.5 240.4 5.7 239.6 5.7 C 239.1 5.7 238.6 5.6 238.2 5.3 C 237.9 5.1 237.6 4.7 237.5 4.2 C 237.5 4.2 238.6 3.9 238.6 3.9 C 238.8 4.4 239.1 4.7 239.7 4.7 C 240 4.7 240.2 4.6 240.4 4.5 C 240.5 4.4 240.6 4.3 240.6 4.1 C 240.6 4 240.5 3.8 240.4 3.8 C 240.3 3.7 240 3.6 239.6 3.5 C 239 3.4 238.5 3.2 238.2 2.9 C 237.9 2.7 237.8 2.3 237.8 1.9 C 237.8 1.4 237.9 1 238.3 0.7 C 238.6 0.4 239.1 0.2 239.7 0.2 C 239.7 0.2 239.7 0.2 239.7 0.2 Z M 247.7 5.6 L 246.3 1.3 L 246.3 5.6 L 245.3 5.6 L 245.3 0.3 L 247.2 0.3 L 248.2 3.5 L 249.2 0.3 L 251.1 0.3 L 251.1 5.6 L 249.9 5.6 L 249.9 1.3 L 248.5 5.6 L 247.7 5.6 Z M 253.7 0.3 L 253.7 5.6 L 252.5 5.6 L 252.5 0.3 L 253.7 0.3 Z M 259.3 2.8 L 259.3 5.6 C 259.3 5.6 258.72 5.6 258.7 5.6 C 258.7 5.4 258.6 5.2 258.5 5 C 258.2 5.5 257.7 5.7 257.1 5.7 C 256.4 5.7 255.9 5.4 255.5 4.9 C 255.1 4.4 254.9 3.8 254.9 3 C 254.9 2.2 255.1 1.5 255.5 1 C 255.9 0.4 256.5 0.2 257.2 0.2 C 257.8 0.2 258.3 0.4 258.6 0.7 C 259 1 259.2 1.5 259.3 2 C 259.3 2 258.1 2.2 258.1 2.2 C 258 1.5 257.7 1.2 257.2 1.2 C 256.8 1.2 256.6 1.4 256.4 1.7 C 256.2 2 256.2 2.4 256.2 3 C 256.2 3.5 256.3 3.9 256.4 4.2 C 256.6 4.5 256.9 4.7 257.2 4.7 C 257.5 4.7 257.7 4.6 257.8 4.4 C 258 4.3 258.1 4.1 258.1 3.7 C 258.1 3.75 257.1 3.7 257.1 3.7 L 257.1 2.8 L 259.3 2.8 Z M 264.8 0.3 C 264.8 0.3 264.8 3.59 264.8 3.6 C 264.8 4.1 264.7 4.5 264.6 4.8 C 264.5 5 264.3 5.3 263.9 5.4 C 263.6 5.6 263.2 5.7 262.7 5.7 C 262.2 5.7 261.8 5.6 261.4 5.5 C 261.1 5.3 260.9 5.1 260.8 4.8 C 260.6 4.5 260.5 4.1 260.5 3.6 C 260.54 3.59 260.5 0.3 260.5 0.3 L 261.9 0.3 C 261.9 0.3 261.89 3.59 261.9 3.6 C 261.9 3.9 261.9 4.1 262 4.2 C 262 4.4 262.1 4.5 262.3 4.5 C 262.4 4.6 262.6 4.7 262.8 4.7 C 263 4.7 263.2 4.6 263.4 4.5 C 263.5 4.5 263.6 4.4 263.7 4.2 C 263.7 4.1 263.7 3.9 263.7 3.6 C 263.73 3.59 263.7 0.3 263.7 0.3 L 264.8 0.3 Z M 269.9 1.3 L 267.4 1.3 L 267.4 2.4 L 269.4 2.4 L 269.4 3.4 L 267.4 3.4 L 267.4 4.5 L 269.9 4.5 L 269.9 5.6 L 266.1 5.6 L 266.1 0.3 L 269.9 0.3 L 269.9 1.3 Z M 272.3 4.5 L 274.4 4.5 L 274.4 5.6 L 271 5.6 L 271 0.3 L 272.3 0.3 L 272.3 4.5 Z M 278.9 4.5 L 281 4.5 L 281 5.6 L 277.7 5.6 L 277.7 0.3 L 278.9 0.3 L 278.9 4.5 Z M 283.2 0.3 L 283.2 5.6 L 282 5.6 L 282 0.3 L 283.2 0.3 Z M 284.6 0.3 C 284.6 0.3 287.12 0.27 287.1 0.3 C 287.6 0.3 287.9 0.3 288.1 0.4 C 288.4 0.5 288.5 0.7 288.7 0.9 C 288.8 1.1 288.9 1.4 288.9 1.6 C 288.9 2.2 288.6 2.6 287.9 2.8 C 288.3 2.9 288.6 3.1 288.8 3.3 C 289 3.6 289 3.8 289 4.1 C 289 4.5 288.9 4.9 288.6 5.2 C 288.3 5.5 287.8 5.6 287.1 5.6 C 287.12 5.6 284.6 5.6 284.6 5.6 L 284.6 0.3 Z M 285.9 1.2 L 285.9 2.4 C 285.9 2.4 286.83 2.38 286.8 2.4 C 287.2 2.4 287.4 2.3 287.5 2.2 C 287.6 2 287.6 1.9 287.6 1.8 C 287.6 1.6 287.6 1.5 287.5 1.4 C 287.4 1.3 287.4 1.3 287.3 1.2 C 287.2 1.2 287 1.2 286.7 1.2 C 286.74 1.21 285.9 1.2 285.9 1.2 Z M 285.9 3.3 L 285.9 4.6 C 285.9 4.6 286.84 4.61 286.8 4.6 C 287.2 4.6 287.4 4.6 287.5 4.4 C 287.7 4.3 287.7 4.2 287.7 4 C 287.7 3.8 287.7 3.6 287.5 3.5 C 287.4 3.4 287.2 3.3 286.9 3.3 C 286.9 3.33 285.9 3.3 285.9 3.3 Z M 292.2 5.7 C 291.5 5.7 290.9 5.4 290.5 4.9 C 290.1 4.3 289.9 3.7 289.9 2.9 C 289.9 2.1 290.1 1.5 290.5 1 C 290.9 0.4 291.5 0.2 292.2 0.2 C 293 0.2 293.5 0.5 293.9 1 C 294.3 1.6 294.5 2.2 294.5 2.9 C 294.5 3.7 294.3 4.4 293.9 4.9 C 293.5 5.4 292.9 5.7 292.2 5.7 Z M 293.2 2.9 C 293.2 1.8 292.8 1.2 292.2 1.2 C 291.6 1.2 291.2 1.8 291.2 2.9 C 291.2 4.1 291.6 4.7 292.2 4.7 C 292.8 4.7 293.2 4.1 293.2 2.9 C 293.2 2.9 293.2 2.9 293.2 2.9 Z M 297.3 0.2 C 298.3 0.2 299 0.6 299.3 1.4 C 299.3 1.4 298.2 1.8 298.2 1.8 C 298.1 1.4 297.8 1.2 297.3 1.2 C 296.8 1.2 296.6 1.3 296.6 1.6 C 296.6 1.8 296.6 1.9 296.7 2 C 296.8 2.1 297 2.1 297.3 2.2 C 297.9 2.3 298.3 2.4 298.5 2.5 C 298.8 2.6 299 2.8 299.2 3.1 C 299.3 3.3 299.4 3.6 299.4 3.9 C 299.4 4.4 299.2 4.8 298.9 5.2 C 298.5 5.5 298 5.7 297.2 5.7 C 296.7 5.7 296.2 5.6 295.8 5.3 C 295.4 5.1 295.2 4.7 295.1 4.2 C 295.1 4.2 296.2 3.9 296.2 3.9 C 296.4 4.4 296.7 4.7 297.3 4.7 C 297.6 4.7 297.8 4.6 298 4.5 C 298.1 4.4 298.2 4.3 298.2 4.1 C 298.2 4 298.1 3.8 298 3.8 C 297.8 3.7 297.6 3.6 297.2 3.5 C 296.6 3.4 296.1 3.2 295.8 2.9 C 295.5 2.7 295.3 2.3 295.3 1.9 C 295.3 1.4 295.5 1 295.9 0.7 C 296.2 0.4 296.7 0.2 297.3 0.2 C 297.3 0.2 297.3 0.2 297.3 0.2 Z M 303.1 0.3 L 304.8 5.6 L 303.4 5.6 L 303.1 4.5 L 301.4 4.5 L 301.1 5.6 L 300 5.6 L 301.7 0.3 L 303.1 0.3 Z M 301.7 3.5 L 302.8 3.5 L 302.3 1.6 L 301.7 3.5 Z M 305.7 0.3 C 305.7 0.3 307.31 0.27 307.3 0.3 C 308 0.3 308.5 0.4 308.8 0.5 C 309.1 0.7 309.4 1 309.7 1.4 C 309.9 1.8 310.1 2.3 310.1 2.9 C 310.1 3.7 309.8 4.3 309.4 4.8 C 308.9 5.3 308.3 5.6 307.5 5.6 C 307.51 5.6 305.7 5.6 305.7 5.6 L 305.7 0.3 Z M 306.9 1.3 L 306.9 4.6 C 306.9 4.6 307.42 4.6 307.4 4.6 C 307.9 4.6 308.2 4.4 308.4 4.1 C 308.7 3.7 308.8 3.3 308.8 2.9 C 308.8 2.6 308.7 2.3 308.6 2 C 308.5 1.7 308.3 1.5 308.1 1.4 C 307.9 1.3 307.7 1.3 307.4 1.3 C 307.43 1.25 306.9 1.3 306.9 1.3 Z M 313.6 0.3 L 315.3 5.6 L 314 5.6 L 313.6 4.5 L 311.9 4.5 L 311.6 5.6 L 310.5 5.6 L 312.2 0.3 L 313.6 0.3 Z M 312.2 3.5 L 313.3 3.5 L 312.8 1.6 L 312.2 3.5 Z " stroke="none" fill="#000"/>
  </g>
</svg>