<?xml version="1.0" standalone="no"?>
<!DOCTYPE svg PUBLIC "-//W3C//DTD SVG 1.1//EN" "http://www.w3.org/Graphics/SVG/1.1/DTD/svg11.dtd">
<svg xmlns="http://www.w3.org/2000/svg" version="1.1" width="470.4px" height="63.1px" viewBox="0 -11 470.4 63.1" style="top:-11px">
  <desc>Pangambang dulot ng Lambda variant ng COVID-19, binigyang-tuon</desc>
  <defs/>
  <g id="Polygon20905">
    <path d="M 116.9 25.6 C 116.86 25.56 117.6 24.1 117.6 24.1 L 118.2 24.1 L 118.5 30.2 C 118.5 30.2 117.8 30.19 117.8 30.2 C 117.3 28.5 116.8 27.2 116.1 26.4 C 115.2 25.4 114.2 24.9 113.1 24.9 C 111.8 24.9 110.8 25.4 110 26.6 C 109.2 27.7 108.8 29.6 108.8 32.3 C 108.8 34.6 109.2 36.3 110.1 37.5 C 110.9 38.6 112 39.1 113.4 39.1 C 114.6 39.1 115.7 38.7 116.5 37.9 C 117.3 37.1 117.9 35.9 118.1 34.3 C 118.1 34.3 118.9 34.3 118.9 34.3 C 118.7 36.1 118 37.5 117 38.5 C 116 39.4 114.7 39.9 113.1 39.9 C 111.9 39.9 110.7 39.6 109.7 39 C 108.6 38.3 107.8 37.4 107.1 36.2 C 106.5 35 106.2 33.7 106.2 32.3 C 106.2 30.8 106.5 29.4 107.1 28.1 C 107.8 26.7 108.6 25.7 109.7 25.1 C 110.7 24.4 111.8 24.1 112.9 24.1 C 113.6 24.1 114.2 24.2 114.9 24.4 C 115.5 24.6 116.1 25 116.9 25.6 Z M 127.9 24.1 C 129.2 24.1 130.4 24.4 131.5 25.1 C 132.6 25.7 133.5 26.7 134.1 27.9 C 134.8 29.1 135.1 30.5 135.1 32 C 135.1 33.5 134.8 34.8 134.1 36.1 C 133.5 37.3 132.6 38.2 131.5 38.9 C 130.4 39.6 129.2 39.9 128 39.9 C 126.8 39.9 125.6 39.6 124.6 38.9 C 123.5 38.3 122.6 37.3 122 36.1 C 121.3 34.8 121 33.4 121 31.9 C 121 30.4 121.3 29.1 122 27.9 C 122.6 26.7 123.4 25.8 124.5 25.1 C 125.6 24.4 126.7 24.1 127.9 24.1 Z M 128.1 24.9 C 126.7 24.9 125.7 25.4 124.8 26.5 C 124 27.6 123.6 29.4 123.6 31.9 C 123.6 34.6 124 36.5 124.9 37.6 C 125.7 38.6 126.8 39.1 128 39.1 C 128.9 39.1 129.7 38.9 130.3 38.4 C 131 37.9 131.5 37.2 131.9 36.2 C 132.3 35.1 132.5 33.8 132.5 32.1 C 132.5 30.3 132.3 28.9 131.9 27.9 C 131.6 26.8 131.1 26.1 130.4 25.6 C 129.7 25.1 128.9 24.9 128.1 24.9 Z M 136.1 24.4 L 142.5 24.4 L 142.5 25.1 C 142.5 25.1 141.4 25.15 141.4 25.1 C 140.9 25.1 140.6 25.2 140.5 25.3 C 140.3 25.4 140.2 25.6 140.2 25.8 C 140.2 25.9 140.3 26.1 140.4 26.4 C 140.41 26.38 140.5 26.6 140.5 26.6 L 144.5 36.8 C 144.5 36.8 148.02 27.06 148 27.1 C 148.1 26.9 148.1 26.6 148.1 26.4 C 148.1 26 148 25.7 147.8 25.5 C 147.6 25.3 147.3 25.1 146.9 25.1 C 146.87 25.15 145.8 25.1 145.8 25.1 L 145.8 24.4 L 151.4 24.4 L 151.4 25.1 C 151.4 25.1 150.98 25.15 151 25.1 C 150.6 25.1 150.3 25.3 150 25.6 C 149.6 26 149.3 26.5 149 27.2 C 149.04 27.22 144.4 39.9 144.4 39.9 L 143.6 39.9 C 143.6 39.9 138.25 26.35 138.2 26.3 C 138.1 25.9 137.8 25.6 137.6 25.4 C 137.4 25.2 137 25.1 136.6 25.1 C 136.61 25.15 136.1 25.1 136.1 25.1 L 136.1 24.4 Z M 152.2 24.4 L 159.2 24.4 L 159.2 25.1 C 159.2 25.1 157.95 25.15 158 25.1 C 157.4 25.1 157.1 25.2 156.9 25.3 C 156.8 25.5 156.7 25.8 156.7 26.2 C 156.7 26.2 156.7 37.7 156.7 37.7 C 156.7 38.1 156.8 38.4 156.9 38.5 C 157.1 38.7 157.4 38.8 157.8 38.8 C 157.81 38.78 159.2 38.8 159.2 38.8 L 159.2 39.5 L 152.2 39.5 L 152.2 38.8 C 152.2 38.8 153.48 38.78 153.5 38.8 C 153.9 38.8 154.2 38.7 154.4 38.6 C 154.5 38.4 154.6 38.1 154.6 37.7 C 154.6 37.7 154.6 26.2 154.6 26.2 C 154.6 25.8 154.5 25.5 154.4 25.4 C 154.2 25.2 153.9 25.1 153.3 25.1 C 153.35 25.15 152.2 25.1 152.2 25.1 L 152.2 24.4 Z M 160.6 24.4 C 160.6 24.4 168.48 24.38 168.5 24.4 C 169.6 24.4 170.6 24.6 171.4 25 C 172.5 25.5 173.3 26.4 174 27.6 C 174.7 28.8 175.1 30.2 175.1 31.9 C 175.1 33.3 174.9 34.5 174.5 35.6 C 174.1 36.4 173.6 37.2 173 37.8 C 172.3 38.4 171.5 38.9 170.5 39.2 C 169.8 39.4 168.9 39.5 167.7 39.5 C 167.66 39.54 160.6 39.5 160.6 39.5 L 160.6 38.8 C 160.6 38.8 162.08 38.78 162.1 38.8 C 162.4 38.8 162.7 38.7 162.8 38.6 C 163 38.5 163 38.3 163 38.1 C 163 38.1 163 25.8 163 25.8 C 163 25.6 163 25.5 162.8 25.3 C 162.7 25.2 162.5 25.1 162.2 25.1 C 162.2 25.15 160.6 25.1 160.6 25.1 L 160.6 24.4 Z M 166.1 25.1 C 165.8 25.1 165.6 25.2 165.5 25.3 C 165.3 25.5 165.2 25.7 165.2 25.9 C 165.2 25.9 165.2 38 165.2 38 C 165.2 38.3 165.3 38.5 165.5 38.6 C 165.7 38.7 166 38.8 166.4 38.8 C 166.4 38.8 167.7 38.8 167.7 38.8 C 168.8 38.8 169.8 38.5 170.7 37.9 C 171.3 37.5 171.7 36.9 172 36.2 C 172.4 35.2 172.6 33.9 172.6 32.2 C 172.6 29.7 172.2 27.8 171.3 26.6 C 170.5 25.6 169.4 25.1 167.9 25.1 C 167.9 25.1 166.1 25.1 166.1 25.1 Z M 177.7 30.7 L 181.8 30.7 L 181.8 32.2 L 177.7 32.2 L 177.7 30.7 Z M 190.4 25.3 C 190.4 25.3 190.4 38.12 190.4 38.1 C 190.4 38.3 190.5 38.5 190.6 38.6 C 190.8 38.7 191 38.8 191.3 38.8 C 191.33 38.78 193.3 38.8 193.3 38.8 L 193.3 39.5 L 185.9 39.5 L 185.9 38.8 C 185.9 38.8 187.64 38.78 187.6 38.8 C 188 38.8 188.3 38.7 188.4 38.5 C 188.6 38.4 188.7 38.1 188.7 37.9 C 188.7 37.9 188.7 28.2 188.7 28.2 C 188.7 28 188.6 27.8 188.4 27.7 C 188.3 27.5 188.1 27.5 187.8 27.5 C 187.84 27.48 185.6 27.5 185.6 27.5 C 185.6 27.5 185.57 26.77 185.6 26.8 C 186.6 26.6 187.5 26.4 188.2 26.2 C 188.8 26 189.4 25.7 189.9 25.3 C 189.92 25.32 190.4 25.3 190.4 25.3 Z M 203.8 32.2 C 203.3 32.9 202.8 33.4 202.2 33.7 C 201.6 34 200.9 34.2 200.2 34.2 C 199.2 34.2 198.2 33.8 197.4 33.1 C 196.6 32.4 196.1 31.4 196.1 30 C 196.1 28.6 196.6 27.4 197.5 26.5 C 198.5 25.5 199.6 25.1 200.9 25.1 C 202.3 25.1 203.4 25.6 204.4 26.8 C 205.3 28 205.8 29.6 205.8 31.8 C 205.8 33.5 205.5 35 205 36.2 C 204.5 37.5 203.8 38.4 202.9 38.9 C 202.1 39.5 201.1 39.8 200 39.8 C 199 39.8 198.2 39.6 197.6 39.1 C 197 38.7 196.7 38.1 196.7 37.5 C 196.7 37.1 196.8 36.7 197.1 36.5 C 197.3 36.2 197.6 36.1 198 36.1 C 198.3 36.1 198.6 36.2 198.8 36.4 C 199.1 36.6 199.2 36.9 199.2 37.2 C 199.2 37.4 199.1 37.7 198.9 38 C 198.7 38.1 198.7 38.3 198.7 38.4 C 198.7 38.6 198.8 38.8 199 38.9 C 199.2 39 199.6 39.1 200.1 39.1 C 200.8 39.1 201.4 38.9 202 38.5 C 202.5 38.1 202.9 37.5 203.3 36.6 C 203.6 35.7 203.8 34.5 203.8 33.1 C 203.8 33.1 203.8 32.2 203.8 32.2 Z M 200.9 25.8 C 200.1 25.8 199.5 26.1 199 26.8 C 198.5 27.4 198.3 28.4 198.3 29.6 C 198.3 30.8 198.5 31.7 199 32.3 C 199.5 32.8 200.1 33.1 200.9 33.1 C 201.7 33.1 202.4 32.8 202.9 32.2 C 203.4 31.6 203.7 30.7 203.7 29.6 C 203.7 28.4 203.4 27.5 202.9 26.8 C 202.3 26.1 201.7 25.8 200.9 25.8 Z M 210.9 39.3 C 210.9 40.6 210 41.9 208.3 43.1 C 208.3 43.1 208 42.6 208 42.6 C 209.3 41.6 209.9 40.7 209.9 40 C 209.9 39.9 209.9 39.8 209.9 39.7 C 209.9 39.7 209.8 39.7 209.7 39.7 C 209.7 39.7 209.5 39.7 209.5 39.7 C 209.4 39.7 209.3 39.7 209.2 39.7 C 208.9 39.7 208.6 39.6 208.4 39.4 C 208.1 39.1 208 38.8 208 38.5 C 208 38.2 208.1 37.9 208.4 37.6 C 208.6 37.4 208.9 37.3 209.3 37.3 C 209.7 37.3 210.1 37.5 210.4 37.8 C 210.7 38.2 210.9 38.7 210.9 39.3 C 210.9 39.3 210.9 39.3 210.9 39.3 Z M 221.9 24.2 C 221.9 24.2 221.95 31.35 221.9 31.4 C 222.4 30.8 222.8 30.4 223.3 30.1 C 223.8 29.8 224.3 29.6 224.9 29.6 C 226 29.6 227 30.1 227.8 31 C 228.5 31.9 228.9 33 228.9 34.5 C 228.9 36 228.5 37.3 227.7 38.2 C 226.8 39.2 225.8 39.7 224.6 39.7 C 224 39.7 223.4 39.6 223 39.3 C 222.5 39.1 222 38.7 221.5 38.2 C 221.1 38.8 220.7 39.3 220.4 39.7 C 220.4 39.7 219.9 39.5 219.9 39.5 C 220.1 38.8 220.2 37.9 220.2 37.1 C 220.2 37.1 220.2 26.2 220.2 26.2 C 220.2 25.9 220.1 25.6 219.9 25.4 C 219.6 25.2 219.3 25.1 218.9 25.1 C 218.88 25.15 218.5 25.1 218.5 25.1 L 218.5 24.4 L 221.9 24.2 Z M 224.5 30.6 C 223.8 30.6 223.1 30.9 222.6 31.6 C 222.2 32.2 221.9 33.4 221.9 34.9 C 221.9 36.4 222.2 37.4 222.6 38.1 C 223.1 38.7 223.7 39 224.5 39 C 225.2 39 225.8 38.7 226.2 38.1 C 226.7 37.3 227 36.2 227 34.7 C 227 33.2 226.8 32.2 226.3 31.5 C 225.8 30.9 225.2 30.6 224.5 30.6 Z M 233.1 24.2 C 233.4 24.2 233.7 24.3 233.9 24.6 C 234.2 24.8 234.3 25.1 234.3 25.4 C 234.3 25.7 234.2 25.9 234 26.2 C 233.7 26.4 233.5 26.5 233.1 26.5 C 232.8 26.5 232.6 26.4 232.3 26.2 C 232.1 25.9 232 25.7 232 25.4 C 232 25.1 232.1 24.8 232.3 24.6 C 232.6 24.3 232.8 24.2 233.1 24.2 Z M 230.5 29.9 L 234.3 29.8 C 234.3 29.8 234.29 38.09 234.3 38.1 C 234.3 38.3 234.3 38.5 234.5 38.6 C 234.6 38.7 234.8 38.8 235.1 38.8 C 235.05 38.78 236.1 38.8 236.1 38.8 L 236.1 39.5 L 230.7 39.5 L 230.7 38.8 C 230.7 38.8 231.69 38.78 231.7 38.8 C 232 38.8 232.2 38.7 232.3 38.6 C 232.5 38.4 232.6 38.2 232.6 37.9 C 232.6 37.9 232.6 31.9 232.6 31.9 C 232.6 31.5 232.5 31.2 232.2 31 C 232 30.8 231.7 30.7 231.3 30.7 C 231.26 30.71 230.5 30.7 230.5 30.7 L 230.5 29.9 Z M 237.3 29.9 C 237.3 29.9 240.46 29.74 240.5 29.7 C 240.6 30.3 240.7 31 240.7 31.9 C 241.2 31.2 241.7 30.6 242.3 30.3 C 242.8 29.9 243.5 29.8 244.2 29.8 C 244.9 29.8 245.4 29.9 245.8 30.1 C 246.3 30.4 246.6 30.8 246.9 31.3 C 247.1 31.9 247.3 32.5 247.3 33.1 C 247.3 33.1 247.3 37.8 247.3 37.8 C 247.3 38.2 247.4 38.4 247.5 38.6 C 247.7 38.7 247.9 38.8 248.3 38.8 C 248.3 38.78 249 38.8 249 38.8 L 249 39.5 L 243.9 39.5 L 243.9 38.8 C 243.9 38.8 244.39 38.78 244.4 38.8 C 244.8 38.8 245.2 38.7 245.3 38.6 C 245.5 38.4 245.6 38.2 245.6 37.9 C 245.6 37.9 245.6 33.8 245.6 33.8 C 245.6 32.9 245.5 32.2 245.2 31.8 C 244.8 31.2 244.2 30.9 243.4 30.9 C 242.7 30.9 242 31.2 241.5 31.8 C 241 32.4 240.7 33.3 240.7 34.3 C 240.7 34.3 240.7 37.8 240.7 37.8 C 240.7 38.2 240.8 38.4 241 38.6 C 241.1 38.7 241.4 38.8 241.8 38.8 C 241.78 38.78 242.4 38.8 242.4 38.8 L 242.4 39.5 L 237.4 39.5 L 237.4 38.8 C 237.4 38.8 238.02 38.78 238 38.8 C 238.4 38.8 238.6 38.7 238.8 38.6 C 239 38.4 239.1 38.3 239.1 38.1 C 239.1 38.1 239.1 31.9 239.1 31.9 C 239.1 31.4 238.9 31.1 238.7 30.9 C 238.5 30.7 238.2 30.6 237.8 30.6 C 237.76 30.6 237.3 30.6 237.3 30.6 L 237.3 29.9 Z M 252.6 24.2 C 252.9 24.2 253.2 24.3 253.4 24.6 C 253.6 24.8 253.7 25.1 253.7 25.4 C 253.7 25.7 253.6 25.9 253.4 26.2 C 253.2 26.4 252.9 26.5 252.6 26.5 C 252.3 26.5 252 26.4 251.8 26.2 C 251.5 25.9 251.4 25.7 251.4 25.4 C 251.4 25.1 251.5 24.8 251.8 24.6 C 252 24.3 252.3 24.2 252.6 24.2 Z M 249.9 29.9 L 253.7 29.8 C 253.7 29.8 253.73 38.09 253.7 38.1 C 253.7 38.3 253.8 38.5 253.9 38.6 C 254.1 38.7 254.3 38.8 254.5 38.8 C 254.49 38.78 255.6 38.8 255.6 38.8 L 255.6 39.5 L 250.1 39.5 L 250.1 38.8 C 250.1 38.8 251.13 38.78 251.1 38.8 C 251.4 38.8 251.7 38.7 251.8 38.6 C 251.9 38.4 252 38.2 252 37.9 C 252 37.9 252 31.9 252 31.9 C 252 31.5 251.9 31.2 251.7 31 C 251.5 30.8 251.1 30.7 250.7 30.7 C 250.7 30.71 249.9 30.7 249.9 30.7 L 249.9 29.9 Z M 264.1 30.5 C 264.8 29.8 265.4 29.4 266 29.4 C 266.3 29.4 266.6 29.6 266.8 29.8 C 267 30 267.1 30.3 267.1 30.6 C 267.1 30.8 267.1 31 266.9 31.2 C 266.8 31.4 266.6 31.5 266.4 31.5 C 266 31.5 265.7 31.2 265.6 30.7 C 265.5 30.5 265.4 30.4 265.3 30.4 C 265.1 30.4 264.8 30.6 264.6 30.9 C 264.8 31.3 265 31.6 265.2 31.9 C 265.3 32.2 265.3 32.6 265.3 32.9 C 265.3 33.5 265.2 34 264.9 34.5 C 264.6 34.9 264.1 35.3 263.5 35.7 C 262.8 36 262.2 36.2 261.5 36.2 C 261.5 36.2 260.4 36.2 260.4 36.2 C 259.6 36.2 259.1 36.3 258.9 36.4 C 258.6 36.6 258.5 36.9 258.5 37.2 C 258.5 37.5 258.6 37.7 258.8 37.8 C 259 38 259.4 38 260 38 C 260 38 262.5 38 262.5 38 C 263.8 38 264.7 38.2 265.3 38.6 C 265.8 39 266.1 39.6 266.1 40.4 C 266.1 41.2 265.8 41.9 265.2 42.4 C 264.3 43.2 262.9 43.6 261.1 43.6 C 259.7 43.6 258.6 43.4 257.9 42.8 C 257.3 42.4 257 41.9 257 41.4 C 257 41 257.2 40.6 257.6 40.3 C 257.9 40 258.5 39.7 259.4 39.5 C 258.7 39.4 258.2 39.1 257.9 38.8 C 257.5 38.5 257.3 38.1 257.3 37.6 C 257.3 37.2 257.5 36.8 257.8 36.5 C 258 36.2 258.5 35.9 259.2 35.7 C 258.6 35.3 258.2 34.9 257.9 34.5 C 257.6 34 257.4 33.5 257.4 32.9 C 257.4 32 257.8 31.2 258.5 30.6 C 259.3 30 260.2 29.6 261.4 29.6 C 261.9 29.6 262.3 29.7 262.8 29.9 C 263.2 30 263.7 30.2 264.1 30.5 Z M 261.4 30.3 C 260.8 30.3 260.3 30.5 259.9 31 C 259.5 31.4 259.3 32.1 259.3 32.9 C 259.3 33.7 259.5 34.4 259.9 34.9 C 260.3 35.3 260.8 35.6 261.4 35.6 C 262 35.6 262.5 35.3 262.9 34.9 C 263.3 34.4 263.5 33.8 263.5 32.9 C 263.5 32.1 263.3 31.5 262.9 31 C 262.5 30.5 262 30.3 261.4 30.3 Z M 262 39.6 C 260.7 39.6 259.8 39.7 259.3 40.1 C 258.7 40.4 258.5 40.8 258.5 41.3 C 258.5 41.8 258.7 42.2 259.1 42.4 C 259.6 42.8 260.4 43 261.4 43 C 262.5 43 263.4 42.8 264 42.4 C 264.6 42 264.9 41.6 264.9 41.1 C 264.9 40.8 264.8 40.5 264.6 40.3 C 264.4 40.1 264.2 39.9 263.8 39.7 C 263.3 39.6 262.8 39.6 262 39.6 Z M 267.8 29.9 L 272.4 29.9 L 272.4 30.6 C 272.4 30.6 271.94 30.63 271.9 30.6 C 271.5 30.6 271.3 30.7 271.1 30.8 C 271 30.9 270.9 31.1 270.9 31.2 C 270.9 31.3 270.9 31.4 271 31.5 C 270.96 31.52 273.6 37.3 273.6 37.3 C 273.6 37.3 275.63 32.5 275.6 32.5 C 275.8 32.2 275.8 31.8 275.8 31.5 C 275.8 31.2 275.7 31 275.5 30.9 C 275.3 30.8 274.9 30.7 274.4 30.6 C 274.35 30.63 274.4 29.9 274.4 29.9 L 278.4 29.9 C 278.4 29.9 278.35 30.63 278.4 30.6 C 277.6 30.7 277.1 31.1 276.8 31.7 C 276.8 31.7 273.2 39.9 273.2 39.9 C 272.6 41.3 272 42.3 271.4 42.8 C 270.8 43.4 270.1 43.6 269.4 43.6 C 268.9 43.6 268.5 43.5 268.2 43.2 C 267.9 42.9 267.7 42.6 267.7 42.2 C 267.7 41.9 267.8 41.6 268 41.4 C 268.2 41.2 268.5 41.1 268.7 41.1 C 269 41.1 269.2 41.2 269.4 41.4 C 269.6 41.6 269.7 41.8 269.7 42 C 269.7 42.1 269.7 42.2 269.6 42.3 C 269.6 42.4 269.6 42.5 269.6 42.5 C 269.6 42.7 269.7 42.8 269.9 42.8 C 270.1 42.8 270.4 42.7 270.7 42.5 C 271 42.4 271.2 42.1 271.5 41.7 C 271.7 41.4 272.1 40.6 272.8 39.3 C 272.8 39.3 269.1 31.5 269.1 31.5 C 269 31.2 268.8 31 268.6 30.9 C 268.4 30.8 268.1 30.7 267.8 30.6 C 267.77 30.63 267.8 29.9 267.8 29.9 Z M 288.6 38.8 C 288.8 38.8 289.1 38.7 289.4 38.5 C 289.4 38.5 289.8 39.1 289.8 39.1 C 289.3 39.6 288.7 39.8 288.1 39.8 C 287.7 39.8 287.3 39.7 287 39.5 C 286.6 39.2 286.4 38.8 286.1 38.1 C 285.5 38.8 284.9 39.3 284.4 39.5 C 283.9 39.7 283.3 39.8 282.6 39.8 C 281.6 39.8 280.9 39.6 280.4 39.2 C 279.9 38.8 279.6 38.2 279.6 37.6 C 279.6 36.6 280.2 35.7 281.4 35.1 C 282.5 34.4 284.1 34 286.1 33.8 C 286.1 33.8 286.1 32.3 286.1 32.3 C 286.1 31.8 285.8 31.3 285.4 31 C 285 30.6 284.5 30.4 283.8 30.4 C 283.2 30.4 282.7 30.5 282.3 30.8 C 282 31 281.8 31.2 281.8 31.3 C 281.8 31.4 281.9 31.6 282.1 31.8 C 282.3 32.1 282.4 32.3 282.4 32.5 C 282.4 32.8 282.3 33.1 282.1 33.3 C 281.9 33.5 281.6 33.6 281.3 33.6 C 281 33.6 280.7 33.5 280.5 33.2 C 280.2 33 280.1 32.7 280.1 32.3 C 280.1 31.7 280.5 31.1 281.3 30.5 C 282 29.9 283 29.6 284.2 29.6 C 285.4 29.6 286.3 29.9 286.9 30.4 C 287.5 30.9 287.8 31.5 287.8 32.2 C 287.8 32.2 287.8 37.5 287.8 37.5 C 287.8 37.9 287.8 38.3 288 38.5 C 288.1 38.7 288.3 38.8 288.6 38.8 C 288.6 38.8 288.6 38.8 288.6 38.8 Z M 286.1 34.4 C 284.3 34.7 283.1 35.1 282.4 35.6 C 281.8 36 281.6 36.6 281.6 37.4 C 281.6 37.9 281.7 38.3 282 38.6 C 282.3 38.9 282.6 39 283.1 39 C 283.9 39 284.6 38.7 285.2 38.1 C 285.8 37.5 286.1 36.7 286.1 35.8 C 286.1 35.8 286.1 34.4 286.1 34.4 Z M 290.9 29.9 C 290.9 29.9 294.13 29.74 294.1 29.7 C 294.3 30.3 294.4 31 294.4 31.9 C 294.9 31.2 295.4 30.6 295.9 30.3 C 296.5 29.9 297.2 29.8 297.9 29.8 C 298.6 29.8 299.1 29.9 299.5 30.1 C 300 30.4 300.3 30.8 300.6 31.3 C 300.8 31.9 301 32.5 301 33.1 C 301 33.1 301 37.8 301 37.8 C 301 38.2 301 38.4 301.2 38.6 C 301.3 38.7 301.6 38.8 302 38.8 C 301.98 38.78 302.7 38.8 302.7 38.8 L 302.7 39.5 L 297.6 39.5 L 297.6 38.8 C 297.6 38.8 298.07 38.78 298.1 38.8 C 298.5 38.8 298.8 38.7 299 38.6 C 299.2 38.4 299.3 38.2 299.3 37.9 C 299.3 37.9 299.3 33.8 299.3 33.8 C 299.3 32.9 299.1 32.2 298.9 31.8 C 298.5 31.2 297.9 30.9 297.1 30.9 C 296.4 30.9 295.7 31.2 295.2 31.8 C 294.7 32.4 294.4 33.3 294.4 34.3 C 294.4 34.3 294.4 37.8 294.4 37.8 C 294.4 38.2 294.5 38.4 294.7 38.6 C 294.8 38.7 295.1 38.8 295.5 38.8 C 295.46 38.78 296.1 38.8 296.1 38.8 L 296.1 39.5 L 291 39.5 L 291 38.8 C 291 38.8 291.7 38.78 291.7 38.8 C 292 38.8 292.3 38.7 292.5 38.6 C 292.6 38.4 292.7 38.3 292.7 38.1 C 292.7 38.1 292.7 31.9 292.7 31.9 C 292.7 31.4 292.6 31.1 292.4 30.9 C 292.2 30.7 291.9 30.6 291.4 30.6 C 291.44 30.6 290.9 30.6 290.9 30.6 L 290.9 29.9 Z M 311.1 30.5 C 311.8 29.8 312.4 29.4 313 29.4 C 313.4 29.4 313.6 29.6 313.9 29.8 C 314.1 30 314.2 30.3 314.2 30.6 C 314.2 30.8 314.1 31 314 31.2 C 313.8 31.4 313.6 31.5 313.4 31.5 C 313.1 31.5 312.8 31.2 312.7 30.7 C 312.6 30.5 312.5 30.4 312.4 30.4 C 312.1 30.4 311.9 30.6 311.6 30.9 C 311.9 31.3 312.1 31.6 312.2 31.9 C 312.3 32.2 312.4 32.6 312.4 32.9 C 312.4 33.5 312.2 34 312 34.5 C 311.7 34.9 311.2 35.3 310.5 35.7 C 309.9 36 309.2 36.2 308.6 36.2 C 308.6 36.2 307.5 36.2 307.5 36.2 C 306.7 36.2 306.2 36.3 305.9 36.4 C 305.7 36.6 305.5 36.9 305.5 37.2 C 305.5 37.5 305.6 37.7 305.8 37.8 C 306.1 38 306.5 38 307 38 C 307 38 309.6 38 309.6 38 C 310.9 38 311.8 38.2 312.3 38.6 C 312.9 39 313.2 39.6 313.2 40.4 C 313.2 41.2 312.9 41.9 312.2 42.4 C 311.3 43.2 310 43.6 308.2 43.6 C 306.7 43.6 305.7 43.4 304.9 42.8 C 304.4 42.4 304.1 41.9 304.1 41.4 C 304.1 41 304.3 40.6 304.6 40.3 C 305 40 305.6 39.7 306.4 39.5 C 305.8 39.4 305.3 39.1 304.9 38.8 C 304.6 38.5 304.4 38.1 304.4 37.6 C 304.4 37.2 304.5 36.8 304.8 36.5 C 305.1 36.2 305.6 35.9 306.3 35.7 C 305.7 35.3 305.2 34.9 305 34.5 C 304.7 34 304.5 33.5 304.5 32.9 C 304.5 32 304.9 31.2 305.6 30.6 C 306.3 30 307.3 29.6 308.5 29.6 C 308.9 29.6 309.4 29.7 309.8 29.9 C 310.3 30 310.7 30.2 311.1 30.5 Z M 308.4 30.3 C 307.8 30.3 307.3 30.5 306.9 31 C 306.5 31.4 306.3 32.1 306.3 32.9 C 306.3 33.7 306.5 34.4 306.9 34.9 C 307.3 35.3 307.8 35.6 308.4 35.6 C 309.1 35.6 309.6 35.3 310 34.9 C 310.4 34.4 310.6 33.8 310.6 32.9 C 310.6 32.1 310.4 31.5 310 31 C 309.6 30.5 309 30.3 308.4 30.3 Z M 309 39.6 C 307.8 39.6 306.9 39.7 306.4 40.1 C 305.8 40.4 305.5 40.8 305.5 41.3 C 305.5 41.8 305.7 42.2 306.2 42.4 C 306.7 42.8 307.4 43 308.4 43 C 309.6 43 310.5 42.8 311.1 42.4 C 311.7 42 312 41.6 312 41.1 C 312 40.8 311.9 40.5 311.7 40.3 C 311.5 40.1 311.2 39.9 310.8 39.7 C 310.4 39.6 309.8 39.6 309 39.6 Z M 315.8 30.7 L 319.9 30.7 L 319.9 32.2 L 315.8 32.2 L 315.8 30.7 Z M 323.6 29.2 C 324.2 28.5 324.5 27.4 324.6 26 C 324.58 26.02 325.3 26 325.3 26 L 325.3 29.9 L 328.4 29.9 L 328.4 30.9 L 325.3 30.9 C 325.3 30.9 325.27 37.04 325.3 37 C 325.3 37.6 325.4 38 325.6 38.3 C 325.9 38.6 326.2 38.7 326.6 38.7 C 327.1 38.7 327.5 38.5 327.8 38 C 328.1 37.6 328.3 36.9 328.4 35.9 C 328.4 35.9 329.1 35.9 329.1 35.9 C 329 37.2 328.7 38.1 328.2 38.8 C 327.6 39.4 326.9 39.7 326.1 39.7 C 325.3 39.7 324.7 39.5 324.2 39 C 323.8 38.6 323.6 38 323.6 37.3 C 323.55 37.33 323.6 30.9 323.6 30.9 L 321.9 30.9 C 321.9 30.9 321.88 30.16 321.9 30.2 C 322.6 30 323.2 29.7 323.6 29.2 C 323.6 29.2 323.6 29.2 323.6 29.2 Z M 333.5 29.8 C 333.5 29.8 333.51 36.13 333.5 36.1 C 333.5 36.9 333.7 37.5 334.1 37.9 C 334.5 38.4 335 38.6 335.6 38.6 C 336.4 38.6 337 38.3 337.6 37.6 C 338.1 37 338.4 36.3 338.4 35.3 C 338.4 35.3 338.4 31.7 338.4 31.7 C 338.4 31.4 338.3 31.1 338 31 C 337.8 30.8 337.3 30.7 336.7 30.7 C 336.66 30.65 336.7 29.9 336.7 29.9 L 340 29.8 C 340 29.8 340.03 37.65 340 37.6 C 340 38 340.1 38.3 340.3 38.5 C 340.5 38.7 340.8 38.8 341.2 38.8 C 341.2 38.78 341.8 38.8 341.8 38.8 L 341.8 39.5 L 338.6 39.5 C 338.6 39.5 338.37 37.65 338.4 37.6 C 337.8 38.3 337.2 38.8 336.6 39.2 C 336.1 39.5 335.5 39.7 334.9 39.7 C 334 39.7 333.3 39.4 332.7 38.8 C 332.1 38.2 331.8 37.3 331.8 35.9 C 331.8 35.9 331.8 31.7 331.8 31.7 C 331.8 31.4 331.7 31.1 331.4 30.9 C 331.2 30.7 330.7 30.7 330.1 30.7 C 330.11 30.65 330.1 29.9 330.1 29.9 L 333.5 29.8 Z M 347.6 29.6 C 348.9 29.6 350 30.1 350.8 31 C 351.7 32 352.2 33.2 352.2 34.7 C 352.2 35.8 352 36.7 351.6 37.4 C 351.2 38.2 350.6 38.8 349.9 39.2 C 349.2 39.6 348.4 39.8 347.5 39.8 C 346.3 39.8 345.2 39.4 344.4 38.4 C 343.5 37.5 343.1 36.3 343.1 34.7 C 343.1 33.2 343.5 32 344.4 31.1 C 345.2 30.1 346.3 29.6 347.6 29.6 Z M 347.6 30.4 C 346.8 30.4 346.2 30.7 345.7 31.4 C 345.2 32.1 345 33.2 345 34.7 C 345 36.2 345.2 37.3 345.7 38 C 346.2 38.8 346.8 39.1 347.6 39.1 C 348.4 39.1 349 38.8 349.5 38 C 350 37.3 350.3 36.2 350.3 34.6 C 350.3 33.1 350 32 349.5 31.4 C 349 30.7 348.4 30.4 347.6 30.4 Z M 353.5 29.9 C 353.5 29.9 356.73 29.74 356.7 29.7 C 356.9 30.3 357 31 357 31.9 C 357.5 31.2 358 30.6 358.5 30.3 C 359.1 29.9 359.8 29.8 360.5 29.8 C 361.2 29.8 361.7 29.9 362.1 30.1 C 362.6 30.4 362.9 30.8 363.2 31.3 C 363.4 31.9 363.6 32.5 363.6 33.1 C 363.6 33.1 363.6 37.8 363.6 37.8 C 363.6 38.2 363.6 38.4 363.8 38.6 C 363.9 38.7 364.2 38.8 364.6 38.8 C 364.58 38.78 365.3 38.8 365.3 38.8 L 365.3 39.5 L 360.2 39.5 L 360.2 38.8 C 360.2 38.8 360.67 38.78 360.7 38.8 C 361.1 38.8 361.4 38.7 361.6 38.6 C 361.8 38.4 361.9 38.2 361.9 37.9 C 361.9 37.9 361.9 33.8 361.9 33.8 C 361.9 32.9 361.7 32.2 361.5 31.8 C 361.1 31.2 360.5 30.9 359.7 30.9 C 359 30.9 358.3 31.2 357.8 31.8 C 357.3 32.4 357 33.3 357 34.3 C 357 34.3 357 37.8 357 37.8 C 357 38.2 357.1 38.4 357.3 38.6 C 357.4 38.7 357.7 38.8 358.1 38.8 C 358.06 38.78 358.7 38.8 358.7 38.8 L 358.7 39.5 L 353.6 39.5 L 353.6 38.8 C 353.6 38.8 354.3 38.78 354.3 38.8 C 354.6 38.8 354.9 38.7 355.1 38.6 C 355.2 38.4 355.3 38.3 355.3 38.1 C 355.3 38.1 355.3 31.9 355.3 31.9 C 355.3 31.4 355.2 31.1 355 30.9 C 354.8 30.7 354.5 30.6 354 30.6 C 354.04 30.6 353.5 30.6 353.5 30.6 L 353.5 29.9 Z " stroke="none" fill="#000"/>
  </g>
  <g id="Polygon20904">
    <path d="M 32.8 0.4 C 32.8 0.4 40.23 0.38 40.2 0.4 C 41.9 0.4 43.2 0.8 44.1 1.5 C 45 2.3 45.4 3.3 45.4 4.5 C 45.4 5.8 45 6.7 44.2 7.4 C 43.1 8.3 41.7 8.7 40 8.7 C 40.04 8.71 37.3 8.7 37.3 8.7 C 37.3 8.7 37.34 13.88 37.3 13.9 C 37.3 14.2 37.4 14.4 37.6 14.5 C 37.7 14.7 38 14.8 38.3 14.8 C 38.32 14.78 40 14.8 40 14.8 L 40 15.5 L 32.8 15.5 L 32.8 14.8 C 32.8 14.8 34.28 14.78 34.3 14.8 C 34.6 14.8 34.8 14.7 34.9 14.6 C 35.1 14.5 35.2 14.3 35.2 14.1 C 35.2 14.1 35.2 2 35.2 2 C 35.2 1.7 35.1 1.5 34.9 1.4 C 34.7 1.2 34.4 1.1 33.9 1.1 C 33.87 1.15 32.8 1.1 32.8 1.1 L 32.8 0.4 Z M 37.3 8 C 37.3 8 39.39 7.96 39.4 8 C 40.7 8 41.6 7.7 42.2 7.1 C 42.8 6.6 43.1 5.7 43.1 4.5 C 43.1 3.6 42.9 2.9 42.7 2.4 C 42.4 2 42 1.6 41.5 1.4 C 41 1.2 40.2 1.1 39.1 1.1 C 38.3 1.1 37.8 1.1 37.6 1.3 C 37.4 1.4 37.3 1.7 37.3 2 C 37.34 2.02 37.3 8 37.3 8 Z M 55.9 14.8 C 56.2 14.8 56.5 14.7 56.8 14.5 C 56.8 14.5 57.2 15.1 57.2 15.1 C 56.7 15.6 56.1 15.8 55.5 15.8 C 55 15.8 54.6 15.7 54.3 15.5 C 54 15.2 53.7 14.8 53.5 14.1 C 52.8 14.8 52.3 15.3 51.8 15.5 C 51.3 15.7 50.7 15.8 50 15.8 C 49 15.8 48.3 15.6 47.8 15.2 C 47.2 14.8 47 14.2 47 13.6 C 47 12.6 47.6 11.7 48.7 11.1 C 49.9 10.4 51.5 10 53.4 9.8 C 53.4 9.8 53.4 8.3 53.4 8.3 C 53.4 7.8 53.2 7.3 52.8 7 C 52.4 6.6 51.9 6.4 51.2 6.4 C 50.6 6.4 50.1 6.5 49.7 6.8 C 49.4 7 49.2 7.2 49.2 7.3 C 49.2 7.4 49.3 7.6 49.5 7.8 C 49.7 8.1 49.8 8.3 49.8 8.5 C 49.8 8.8 49.7 9.1 49.5 9.3 C 49.3 9.5 49 9.6 48.7 9.6 C 48.3 9.6 48 9.5 47.8 9.2 C 47.6 9 47.5 8.7 47.5 8.3 C 47.5 7.7 47.9 7.1 48.6 6.5 C 49.4 5.9 50.4 5.6 51.6 5.6 C 52.8 5.6 53.6 5.9 54.2 6.4 C 54.8 6.9 55.1 7.5 55.1 8.2 C 55.1 8.2 55.1 13.5 55.1 13.5 C 55.1 13.9 55.2 14.3 55.4 14.5 C 55.5 14.7 55.7 14.8 55.9 14.8 C 55.9 14.8 55.9 14.8 55.9 14.8 Z M 53.4 10.4 C 51.7 10.7 50.5 11.1 49.7 11.6 C 49.2 12 48.9 12.6 48.9 13.4 C 48.9 13.9 49.1 14.3 49.3 14.6 C 49.6 14.9 50 15 50.4 15 C 51.2 15 51.9 14.7 52.5 14.1 C 53.1 13.5 53.4 12.7 53.4 11.8 C 53.4 11.8 53.4 10.4 53.4 10.4 Z M 58.3 5.9 C 58.3 5.9 61.5 5.74 61.5 5.7 C 61.6 6.3 61.7 7 61.8 7.9 C 62.2 7.2 62.7 6.6 63.3 6.3 C 63.9 5.9 64.6 5.8 65.3 5.8 C 65.9 5.8 66.5 5.9 66.9 6.1 C 67.3 6.4 67.7 6.8 67.9 7.3 C 68.2 7.9 68.3 8.5 68.3 9.1 C 68.3 9.1 68.3 13.8 68.3 13.8 C 68.3 14.2 68.4 14.4 68.6 14.6 C 68.7 14.7 69 14.8 69.3 14.8 C 69.35 14.78 70 14.8 70 14.8 L 70 15.5 L 65 15.5 L 65 14.8 C 65 14.8 65.44 14.78 65.4 14.8 C 65.9 14.8 66.2 14.7 66.4 14.6 C 66.6 14.4 66.7 14.2 66.7 13.9 C 66.7 13.9 66.7 9.8 66.7 9.8 C 66.7 8.9 66.5 8.2 66.2 7.8 C 65.9 7.2 65.3 6.9 64.5 6.9 C 63.7 6.9 63.1 7.2 62.6 7.8 C 62 8.4 61.8 9.3 61.8 10.3 C 61.8 10.3 61.8 13.8 61.8 13.8 C 61.8 14.2 61.9 14.4 62 14.6 C 62.2 14.7 62.5 14.8 62.8 14.8 C 62.83 14.78 63.5 14.8 63.5 14.8 L 63.5 15.5 L 58.4 15.5 L 58.4 14.8 C 58.4 14.8 59.07 14.78 59.1 14.8 C 59.4 14.8 59.7 14.7 59.8 14.6 C 60 14.4 60.1 14.3 60.1 14.1 C 60.1 14.1 60.1 7.9 60.1 7.9 C 60.1 7.4 60 7.1 59.8 6.9 C 59.5 6.7 59.2 6.6 58.8 6.6 C 58.81 6.6 58.3 6.6 58.3 6.6 L 58.3 5.9 Z M 78.5 6.5 C 79.2 5.8 79.8 5.4 80.4 5.4 C 80.7 5.4 81 5.6 81.2 5.8 C 81.5 6 81.6 6.3 81.6 6.6 C 81.6 6.8 81.5 7 81.4 7.2 C 81.2 7.4 81 7.5 80.8 7.5 C 80.4 7.5 80.2 7.2 80 6.7 C 80 6.5 79.9 6.4 79.7 6.4 C 79.5 6.4 79.3 6.6 79 6.9 C 79.3 7.3 79.5 7.6 79.6 7.9 C 79.7 8.2 79.8 8.6 79.8 8.9 C 79.8 9.5 79.6 10 79.3 10.5 C 79 10.9 78.6 11.3 77.9 11.7 C 77.2 12 76.6 12.2 76 12.2 C 76 12.2 74.9 12.2 74.9 12.2 C 74.1 12.2 73.5 12.3 73.3 12.4 C 73 12.6 72.9 12.9 72.9 13.2 C 72.9 13.5 73 13.7 73.2 13.8 C 73.4 14 73.8 14 74.4 14 C 74.4 14 76.9 14 76.9 14 C 78.2 14 79.1 14.2 79.7 14.6 C 80.3 15 80.6 15.6 80.6 16.4 C 80.6 17.2 80.2 17.9 79.6 18.4 C 78.7 19.2 77.4 19.6 75.6 19.6 C 74.1 19.6 73 19.4 72.3 18.8 C 71.8 18.4 71.5 17.9 71.5 17.4 C 71.5 17 71.7 16.6 72 16.3 C 72.4 16 73 15.7 73.8 15.5 C 73.1 15.4 72.6 15.1 72.3 14.8 C 71.9 14.5 71.8 14.1 71.8 13.6 C 71.8 13.2 71.9 12.8 72.2 12.5 C 72.5 12.2 73 11.9 73.6 11.7 C 73.1 11.3 72.6 10.9 72.3 10.5 C 72 10 71.9 9.5 71.9 8.9 C 71.9 8 72.2 7.2 73 6.6 C 73.7 6 74.7 5.6 75.8 5.6 C 76.3 5.6 76.8 5.7 77.2 5.9 C 77.7 6 78.1 6.2 78.5 6.5 Z M 75.8 6.3 C 75.2 6.3 74.7 6.5 74.3 7 C 73.9 7.4 73.7 8.1 73.7 8.9 C 73.7 9.7 73.9 10.4 74.3 10.9 C 74.7 11.3 75.2 11.6 75.8 11.6 C 76.4 11.6 76.9 11.3 77.3 10.9 C 77.7 10.4 77.9 9.8 77.9 8.9 C 77.9 8.1 77.7 7.5 77.3 7 C 76.9 6.5 76.4 6.3 75.8 6.3 Z M 76.4 15.6 C 75.2 15.6 74.3 15.7 73.7 16.1 C 73.2 16.4 72.9 16.8 72.9 17.3 C 72.9 17.8 73.1 18.2 73.5 18.4 C 74.1 18.8 74.8 19 75.8 19 C 77 19 77.9 18.8 78.5 18.4 C 79 18 79.3 17.6 79.3 17.1 C 79.3 16.8 79.3 16.5 79.1 16.3 C 78.9 16.1 78.6 15.9 78.2 15.7 C 77.8 15.6 77.2 15.6 76.4 15.6 Z M 91.7 14.8 C 92 14.8 92.3 14.7 92.6 14.5 C 92.6 14.5 92.9 15.1 92.9 15.1 C 92.4 15.6 91.9 15.8 91.3 15.8 C 90.8 15.8 90.4 15.7 90.1 15.5 C 89.8 15.2 89.5 14.8 89.3 14.1 C 88.6 14.8 88.1 15.3 87.6 15.5 C 87.1 15.7 86.5 15.8 85.8 15.8 C 84.8 15.8 84.1 15.6 83.5 15.2 C 83 14.8 82.8 14.2 82.8 13.6 C 82.8 12.6 83.4 11.7 84.5 11.1 C 85.7 10.4 87.3 10 89.2 9.8 C 89.2 9.8 89.2 8.3 89.2 8.3 C 89.2 7.8 89 7.3 88.6 7 C 88.2 6.6 87.6 6.4 87 6.4 C 86.4 6.4 85.9 6.5 85.5 6.8 C 85.1 7 85 7.2 85 7.3 C 85 7.4 85.1 7.6 85.2 7.8 C 85.4 8.1 85.5 8.3 85.5 8.5 C 85.5 8.8 85.4 9.1 85.2 9.3 C 85 9.5 84.8 9.6 84.5 9.6 C 84.1 9.6 83.8 9.5 83.6 9.2 C 83.4 9 83.3 8.7 83.3 8.3 C 83.3 7.7 83.6 7.1 84.4 6.5 C 85.2 5.9 86.2 5.6 87.4 5.6 C 88.5 5.6 89.4 5.9 90 6.4 C 90.6 6.9 90.9 7.5 90.9 8.2 C 90.9 8.2 90.9 13.5 90.9 13.5 C 90.9 13.9 91 14.3 91.1 14.5 C 91.3 14.7 91.5 14.8 91.7 14.8 C 91.7 14.8 91.7 14.8 91.7 14.8 Z M 89.2 10.4 C 87.5 10.7 86.2 11.1 85.5 11.6 C 85 12 84.7 12.6 84.7 13.4 C 84.7 13.9 84.8 14.3 85.1 14.6 C 85.4 14.9 85.8 15 86.2 15 C 87 15 87.7 14.7 88.3 14.1 C 88.9 13.5 89.2 12.7 89.2 11.8 C 89.2 11.8 89.2 10.4 89.2 10.4 Z M 94.7 5.9 C 94.7 5.9 97.44 5.76 97.4 5.8 C 97.6 6.5 97.7 7.2 97.7 7.8 C 98.3 7.1 98.8 6.5 99.3 6.2 C 99.8 5.9 100.4 5.8 101 5.8 C 101.7 5.8 102.2 5.9 102.7 6.3 C 103.1 6.6 103.4 7.2 103.7 8 C 104.1 7.2 104.6 6.7 105.2 6.3 C 105.7 5.9 106.4 5.8 107 5.8 C 107.9 5.8 108.5 6 109 6.5 C 109.5 7.2 109.8 8.1 109.8 9.2 C 109.8 9.2 109.8 14 109.8 14 C 109.8 14.2 109.9 14.4 110 14.5 C 110.2 14.7 110.5 14.8 110.9 14.8 C 110.89 14.78 111.4 14.8 111.4 14.8 L 111.4 15.5 L 106.5 15.5 L 106.5 14.8 C 106.5 14.8 107.02 14.78 107 14.8 C 107.4 14.8 107.7 14.7 107.9 14.6 C 108 14.4 108.1 14.2 108.1 14 C 108.1 14 108.1 9.2 108.1 9.2 C 108.1 8.5 108 7.9 107.6 7.5 C 107.3 7.1 106.8 6.9 106.2 6.9 C 105.8 6.9 105.4 7.1 105.1 7.3 C 104.7 7.5 104.4 7.8 104.3 8.3 C 104 8.9 103.8 9.4 103.8 9.8 C 103.8 9.8 103.8 14 103.8 14 C 103.8 14.2 103.9 14.4 104 14.6 C 104.2 14.7 104.4 14.8 104.7 14.8 C 104.73 14.78 105.4 14.8 105.4 14.8 L 105.4 15.5 L 100.5 15.5 L 100.5 14.8 C 100.5 14.8 101.04 14.78 101 14.8 C 101.4 14.8 101.7 14.7 101.8 14.6 C 102 14.4 102.1 14.3 102.1 14 C 102.1 14 102.1 9.6 102.1 9.6 C 102.1 8.7 101.9 8 101.6 7.6 C 101.2 7.2 100.8 6.9 100.2 6.9 C 99.5 6.9 99 7.2 98.6 7.7 C 98 8.4 97.7 9.2 97.7 10.1 C 97.7 10.1 97.7 14 97.7 14 C 97.7 14.2 97.8 14.5 97.9 14.6 C 98.1 14.7 98.4 14.8 98.8 14.8 C 98.8 14.78 99.3 14.8 99.3 14.8 L 99.3 15.5 L 94.4 15.5 L 94.4 14.8 C 94.4 14.8 95.18 14.78 95.2 14.8 C 95.5 14.8 95.7 14.7 95.8 14.6 C 96 14.4 96 14.3 96 14 C 96 14 96 7.8 96 7.8 C 96 7.4 95.9 7.1 95.8 7 C 95.6 6.8 95.2 6.7 94.7 6.6 C 94.7 6.64 94.7 5.9 94.7 5.9 Z M 115.7 0.2 C 115.7 0.2 115.75 7.35 115.7 7.4 C 116.2 6.8 116.6 6.4 117.1 6.1 C 117.6 5.8 118.1 5.6 118.7 5.6 C 119.8 5.6 120.8 6.1 121.6 7 C 122.3 7.9 122.7 9 122.7 10.5 C 122.7 12 122.3 13.3 121.5 14.2 C 120.6 15.2 119.6 15.7 118.4 15.7 C 117.8 15.7 117.2 15.6 116.8 15.3 C 116.3 15.1 115.8 14.7 115.3 14.2 C 114.9 14.8 114.5 15.3 114.2 15.7 C 114.2 15.7 113.7 15.5 113.7 15.5 C 113.9 14.8 114 13.9 114 13.1 C 114 13.1 114 2.2 114 2.2 C 114 1.9 113.9 1.6 113.7 1.4 C 113.4 1.2 113.1 1.1 112.7 1.1 C 112.68 1.15 112.3 1.1 112.3 1.1 L 112.3 0.4 L 115.7 0.2 Z M 118.3 6.6 C 117.6 6.6 116.9 6.9 116.4 7.6 C 116 8.2 115.7 9.4 115.7 10.9 C 115.7 12.4 116 13.4 116.4 14.1 C 116.9 14.7 117.5 15 118.3 15 C 119 15 119.6 14.7 120 14.1 C 120.5 13.3 120.8 12.2 120.8 10.7 C 120.8 9.2 120.6 8.2 120.1 7.5 C 119.6 6.9 119 6.6 118.3 6.6 Z M 133.8 14.8 C 134 14.8 134.3 14.7 134.6 14.5 C 134.6 14.5 135 15.1 135 15.1 C 134.5 15.6 133.9 15.8 133.3 15.8 C 132.8 15.8 132.5 15.7 132.1 15.5 C 131.8 15.2 131.5 14.8 131.3 14.1 C 130.7 14.8 130.1 15.3 129.6 15.5 C 129.1 15.7 128.5 15.8 127.8 15.8 C 126.8 15.8 126.1 15.6 125.6 15.2 C 125.1 14.8 124.8 14.2 124.8 13.6 C 124.8 12.6 125.4 11.7 126.6 11.1 C 127.7 10.4 129.3 10 131.2 9.8 C 131.2 9.8 131.2 8.3 131.2 8.3 C 131.2 7.8 131 7.3 130.6 7 C 130.2 6.6 129.7 6.4 129 6.4 C 128.4 6.4 127.9 6.5 127.5 6.8 C 127.2 7 127 7.2 127 7.3 C 127 7.4 127.1 7.6 127.3 7.8 C 127.5 8.1 127.6 8.3 127.6 8.5 C 127.6 8.8 127.5 9.1 127.3 9.3 C 127.1 9.5 126.8 9.6 126.5 9.6 C 126.2 9.6 125.9 9.5 125.6 9.2 C 125.4 9 125.3 8.7 125.3 8.3 C 125.3 7.7 125.7 7.1 126.4 6.5 C 127.2 5.9 128.2 5.6 129.4 5.6 C 130.6 5.6 131.4 5.9 132.1 6.4 C 132.7 6.9 133 7.5 133 8.2 C 133 8.2 133 13.5 133 13.5 C 133 13.9 133 14.3 133.2 14.5 C 133.3 14.7 133.5 14.8 133.8 14.8 C 133.8 14.8 133.8 14.8 133.8 14.8 Z M 131.2 10.4 C 129.5 10.7 128.3 11.1 127.5 11.6 C 127 12 126.7 12.6 126.7 13.4 C 126.7 13.9 126.9 14.3 127.2 14.6 C 127.4 14.9 127.8 15 128.3 15 C 129.1 15 129.8 14.7 130.4 14.1 C 130.9 13.5 131.2 12.7 131.2 11.8 C 131.2 11.8 131.2 10.4 131.2 10.4 Z M 136.1 5.9 C 136.1 5.9 139.32 5.74 139.3 5.7 C 139.5 6.3 139.5 7 139.6 7.9 C 140 7.2 140.5 6.6 141.1 6.3 C 141.7 5.9 142.4 5.8 143.1 5.8 C 143.8 5.8 144.3 5.9 144.7 6.1 C 145.1 6.4 145.5 6.8 145.8 7.3 C 146 7.9 146.1 8.5 146.1 9.1 C 146.1 9.1 146.1 13.8 146.1 13.8 C 146.1 14.2 146.2 14.4 146.4 14.6 C 146.5 14.7 146.8 14.8 147.2 14.8 C 147.17 14.78 147.8 14.8 147.8 14.8 L 147.8 15.5 L 142.8 15.5 L 142.8 14.8 C 142.8 14.8 143.26 14.78 143.3 14.8 C 143.7 14.8 144 14.7 144.2 14.6 C 144.4 14.4 144.5 14.2 144.5 13.9 C 144.5 13.9 144.5 9.8 144.5 9.8 C 144.5 8.9 144.3 8.2 144.1 7.8 C 143.7 7.2 143.1 6.9 142.3 6.9 C 141.5 6.9 140.9 7.2 140.4 7.8 C 139.9 8.4 139.6 9.3 139.6 10.3 C 139.6 10.3 139.6 13.8 139.6 13.8 C 139.6 14.2 139.7 14.4 139.8 14.6 C 140 14.7 140.3 14.8 140.6 14.8 C 140.64 14.78 141.3 14.8 141.3 14.8 L 141.3 15.5 L 136.2 15.5 L 136.2 14.8 C 136.2 14.8 136.89 14.78 136.9 14.8 C 137.2 14.8 137.5 14.7 137.7 14.6 C 137.8 14.4 137.9 14.3 137.9 14.1 C 137.9 14.1 137.9 7.9 137.9 7.9 C 137.9 7.4 137.8 7.1 137.6 6.9 C 137.4 6.7 137 6.6 136.6 6.6 C 136.62 6.6 136.1 6.6 136.1 6.6 L 136.1 5.9 Z M 156.3 6.5 C 157 5.8 157.6 5.4 158.2 5.4 C 158.6 5.4 158.8 5.6 159.1 5.8 C 159.3 6 159.4 6.3 159.4 6.6 C 159.4 6.8 159.3 7 159.2 7.2 C 159 7.4 158.8 7.5 158.6 7.5 C 158.2 7.5 158 7.2 157.8 6.7 C 157.8 6.5 157.7 6.4 157.6 6.4 C 157.3 6.4 157.1 6.6 156.8 6.9 C 157.1 7.3 157.3 7.6 157.4 7.9 C 157.5 8.2 157.6 8.6 157.6 8.9 C 157.6 9.5 157.4 10 157.1 10.5 C 156.9 10.9 156.4 11.3 155.7 11.7 C 155 12 154.4 12.2 153.8 12.2 C 153.8 12.2 152.7 12.2 152.7 12.2 C 151.9 12.2 151.4 12.3 151.1 12.4 C 150.8 12.6 150.7 12.9 150.7 13.2 C 150.7 13.5 150.8 13.7 151 13.8 C 151.2 14 151.6 14 152.2 14 C 152.2 14 154.8 14 154.8 14 C 156 14 157 14.2 157.5 14.6 C 158.1 15 158.4 15.6 158.4 16.4 C 158.4 17.2 158.1 17.9 157.4 18.4 C 156.5 19.2 155.2 19.6 153.4 19.6 C 151.9 19.6 150.8 19.4 150.1 18.8 C 149.6 18.4 149.3 17.9 149.3 17.4 C 149.3 17 149.5 16.6 149.8 16.3 C 150.2 16 150.8 15.7 151.6 15.5 C 151 15.4 150.4 15.1 150.1 14.8 C 149.8 14.5 149.6 14.1 149.6 13.6 C 149.6 13.2 149.7 12.8 150 12.5 C 150.3 12.2 150.8 11.9 151.5 11.7 C 150.9 11.3 150.4 10.9 150.1 10.5 C 149.8 10 149.7 9.5 149.7 8.9 C 149.7 8 150.1 7.2 150.8 6.6 C 151.5 6 152.5 5.6 153.6 5.6 C 154.1 5.6 154.6 5.7 155 5.9 C 155.5 6 155.9 6.2 156.3 6.5 Z M 153.6 6.3 C 153 6.3 152.5 6.5 152.1 7 C 151.7 7.4 151.5 8.1 151.5 8.9 C 151.5 9.7 151.7 10.4 152.1 10.9 C 152.5 11.3 153 11.6 153.6 11.6 C 154.3 11.6 154.8 11.3 155.1 10.9 C 155.5 10.4 155.7 9.8 155.7 8.9 C 155.7 8.1 155.5 7.5 155.1 7 C 154.7 6.5 154.2 6.3 153.6 6.3 Z M 154.2 15.6 C 153 15.6 152.1 15.7 151.5 16.1 C 151 16.4 150.7 16.8 150.7 17.3 C 150.7 17.8 150.9 18.2 151.3 18.4 C 151.9 18.8 152.6 19 153.6 19 C 154.8 19 155.7 18.8 156.3 18.4 C 156.9 18 157.2 17.6 157.2 17.1 C 157.2 16.8 157.1 16.5 156.9 16.3 C 156.7 16.1 156.4 15.9 156 15.7 C 155.6 15.6 155 15.6 154.2 15.6 Z M 171.5 0.4 L 175.3 0.2 C 175.3 0.2 175.27 13.35 175.3 13.4 C 175.3 13.9 175.4 14.2 175.6 14.4 C 175.8 14.7 176.1 14.8 176.4 14.8 C 176.44 14.78 177.1 14.8 177.1 14.8 L 177.1 15.5 L 173.8 15.5 C 173.8 15.5 173.58 13.59 173.6 13.6 C 173.2 14.3 172.7 14.8 172.2 15.2 C 171.7 15.5 171.1 15.7 170.5 15.7 C 169.4 15.7 168.4 15.2 167.7 14.3 C 166.9 13.4 166.5 12.2 166.5 10.7 C 166.5 9.1 167 7.8 168 6.8 C 168.8 6 169.6 5.6 170.6 5.6 C 171.3 5.6 171.8 5.8 172.3 6.1 C 172.8 6.4 173.2 6.9 173.6 7.5 C 173.6 7.5 173.6 2.1 173.6 2.1 C 173.6 1.8 173.5 1.6 173.2 1.4 C 173 1.2 172.7 1.1 172.2 1.1 C 172.21 1.15 171.5 1.1 171.5 1.1 L 171.5 0.4 Z M 172.7 7.5 C 172.3 6.8 171.6 6.5 170.9 6.5 C 170.2 6.5 169.6 6.8 169.2 7.4 C 168.7 8 168.5 9 168.5 10.5 C 168.5 12.1 168.7 13.2 169.2 13.8 C 169.6 14.4 170.2 14.8 170.9 14.8 C 171.6 14.8 172.3 14.4 172.8 13.7 C 173.3 13 173.6 11.9 173.6 10.6 C 173.6 9.3 173.3 8.2 172.7 7.5 C 172.7 7.5 172.7 7.5 172.7 7.5 Z M 181.4 5.8 C 181.4 5.8 181.42 12.13 181.4 12.1 C 181.4 12.9 181.6 13.5 182 13.9 C 182.4 14.4 182.9 14.6 183.5 14.6 C 184.3 14.6 184.9 14.3 185.5 13.6 C 186 13 186.3 12.3 186.3 11.3 C 186.3 11.3 186.3 7.7 186.3 7.7 C 186.3 7.4 186.2 7.1 185.9 7 C 185.7 6.8 185.2 6.7 184.6 6.7 C 184.57 6.65 184.6 5.9 184.6 5.9 L 187.9 5.8 C 187.9 5.8 187.94 13.65 187.9 13.6 C 187.9 14 188 14.3 188.3 14.5 C 188.5 14.7 188.7 14.8 189.1 14.8 C 189.11 14.78 189.7 14.8 189.7 14.8 L 189.7 15.5 L 186.5 15.5 C 186.5 15.5 186.28 13.65 186.3 13.6 C 185.7 14.3 185.1 14.8 184.6 15.2 C 184 15.5 183.4 15.7 182.8 15.7 C 181.9 15.7 181.2 15.4 180.6 14.8 C 180 14.2 179.7 13.3 179.7 11.9 C 179.7 11.9 179.7 7.7 179.7 7.7 C 179.7 7.4 179.6 7.1 179.3 6.9 C 179.1 6.7 178.7 6.7 178 6.7 C 178.02 6.65 178 5.9 178 5.9 L 181.4 5.8 Z M 194.6 0.2 C 194.6 0.2 194.59 14.13 194.6 14.1 C 194.6 14.3 194.6 14.5 194.8 14.6 C 194.9 14.7 195.1 14.8 195.4 14.8 C 195.39 14.78 196.4 14.8 196.4 14.8 L 196.4 15.5 L 191 15.5 L 191 14.8 C 191 14.8 191.92 14.78 191.9 14.8 C 192.2 14.8 192.5 14.7 192.6 14.6 C 192.8 14.4 192.9 14.2 192.9 13.9 C 192.9 13.9 192.9 2.2 192.9 2.2 C 192.9 1.9 192.8 1.6 192.6 1.5 C 192.3 1.3 192 1.1 191.6 1.1 C 191.65 1.15 190.8 1.1 190.8 1.1 L 190.8 0.4 L 194.6 0.2 Z M 202.1 5.6 C 203.4 5.6 204.5 6.1 205.4 7 C 206.2 8 206.7 9.2 206.7 10.7 C 206.7 11.8 206.5 12.7 206.1 13.4 C 205.7 14.2 205.1 14.8 204.4 15.2 C 203.7 15.6 202.9 15.8 202.1 15.8 C 200.8 15.8 199.8 15.4 198.9 14.4 C 198 13.5 197.6 12.3 197.6 10.7 C 197.6 9.2 198 8 198.9 7.1 C 199.8 6.1 200.8 5.6 202.1 5.6 Z M 202.1 6.4 C 201.3 6.4 200.7 6.7 200.2 7.4 C 199.7 8.1 199.5 9.2 199.5 10.7 C 199.5 12.2 199.7 13.3 200.2 14 C 200.7 14.8 201.3 15.1 202.1 15.1 C 202.9 15.1 203.6 14.8 204 14 C 204.5 13.3 204.8 12.2 204.8 10.6 C 204.8 9.1 204.5 8 204.1 7.4 C 203.6 6.7 202.9 6.4 202.1 6.4 Z M 209.6 5.2 C 210.2 4.5 210.6 3.4 210.6 2 C 210.61 2.02 211.3 2 211.3 2 L 211.3 5.9 L 214.4 5.9 L 214.4 6.9 L 211.3 6.9 C 211.3 6.9 211.29 13.04 211.3 13 C 211.3 13.6 211.4 14 211.7 14.3 C 211.9 14.6 212.2 14.7 212.6 14.7 C 213.1 14.7 213.5 14.5 213.8 14 C 214.2 13.6 214.3 12.9 214.4 11.9 C 214.4 11.9 215.1 11.9 215.1 11.9 C 215 13.2 214.8 14.1 214.2 14.8 C 213.7 15.4 213 15.7 212.1 15.7 C 211.3 15.7 210.7 15.5 210.3 15 C 209.8 14.6 209.6 14 209.6 13.3 C 209.58 13.33 209.6 6.9 209.6 6.9 L 207.9 6.9 C 207.9 6.9 207.91 6.16 207.9 6.2 C 208.7 6 209.3 5.7 209.6 5.2 C 209.6 5.2 209.6 5.2 209.6 5.2 Z M 222.1 5.9 C 222.1 5.9 225.27 5.74 225.3 5.7 C 225.4 6.3 225.5 7 225.6 7.9 C 226 7.2 226.5 6.6 227.1 6.3 C 227.7 5.9 228.3 5.8 229.1 5.8 C 229.7 5.8 230.2 5.9 230.7 6.1 C 231.1 6.4 231.4 6.8 231.7 7.3 C 232 7.9 232.1 8.5 232.1 9.1 C 232.1 9.1 232.1 13.8 232.1 13.8 C 232.1 14.2 232.2 14.4 232.3 14.6 C 232.5 14.7 232.7 14.8 233.1 14.8 C 233.11 14.78 233.8 14.8 233.8 14.8 L 233.8 15.5 L 228.7 15.5 L 228.7 14.8 C 228.7 14.8 229.21 14.78 229.2 14.8 C 229.7 14.8 230 14.7 230.1 14.6 C 230.3 14.4 230.4 14.2 230.4 13.9 C 230.4 13.9 230.4 9.8 230.4 9.8 C 230.4 8.9 230.3 8.2 230 7.8 C 229.6 7.2 229 6.9 228.3 6.9 C 227.5 6.9 226.8 7.2 226.3 7.8 C 225.8 8.4 225.6 9.3 225.6 10.3 C 225.6 10.3 225.6 13.8 225.6 13.8 C 225.6 14.2 225.6 14.4 225.8 14.6 C 226 14.7 226.2 14.8 226.6 14.8 C 226.59 14.78 227.3 14.8 227.3 14.8 L 227.3 15.5 L 222.2 15.5 L 222.2 14.8 C 222.2 14.8 222.84 14.78 222.8 14.8 C 223.2 14.8 223.4 14.7 223.6 14.6 C 223.8 14.4 223.9 14.3 223.9 14.1 C 223.9 14.1 223.9 7.9 223.9 7.9 C 223.9 7.4 223.8 7.1 223.5 6.9 C 223.3 6.7 223 6.6 222.6 6.6 C 222.57 6.6 222.1 6.6 222.1 6.6 L 222.1 5.9 Z M 242.3 6.5 C 243 5.8 243.6 5.4 244.2 5.4 C 244.5 5.4 244.8 5.6 245 5.8 C 245.2 6 245.3 6.3 245.3 6.6 C 245.3 6.8 245.3 7 245.1 7.2 C 245 7.4 244.8 7.5 244.6 7.5 C 244.2 7.5 243.9 7.2 243.8 6.7 C 243.7 6.5 243.6 6.4 243.5 6.4 C 243.3 6.4 243 6.6 242.8 6.9 C 243 7.3 243.2 7.6 243.4 7.9 C 243.5 8.2 243.5 8.6 243.5 8.9 C 243.5 9.5 243.4 10 243.1 10.5 C 242.8 10.9 242.3 11.3 241.7 11.7 C 241 12 240.4 12.2 239.7 12.2 C 239.7 12.2 238.6 12.2 238.6 12.2 C 237.8 12.2 237.3 12.3 237.1 12.4 C 236.8 12.6 236.7 12.9 236.7 13.2 C 236.7 13.5 236.8 13.7 237 13.8 C 237.2 14 237.6 14 238.2 14 C 238.2 14 240.7 14 240.7 14 C 242 14 242.9 14.2 243.5 14.6 C 244 15 244.3 15.6 244.3 16.4 C 244.3 17.2 244 17.9 243.4 18.4 C 242.5 19.2 241.1 19.6 239.3 19.6 C 237.9 19.6 236.8 19.4 236.1 18.8 C 235.5 18.4 235.2 17.9 235.2 17.4 C 235.2 17 235.4 16.6 235.8 16.3 C 236.1 16 236.7 15.7 237.6 15.5 C 236.9 15.4 236.4 15.1 236.1 14.8 C 235.7 14.5 235.5 14.1 235.5 13.6 C 235.5 13.2 235.7 12.8 236 12.5 C 236.2 12.2 236.7 11.9 237.4 11.7 C 236.8 11.3 236.4 10.9 236.1 10.5 C 235.8 10 235.6 9.5 235.6 8.9 C 235.6 8 236 7.2 236.7 6.6 C 237.5 6 238.4 5.6 239.6 5.6 C 240.1 5.6 240.5 5.7 241 5.9 C 241.4 6 241.9 6.2 242.3 6.5 Z M 239.6 6.3 C 239 6.3 238.5 6.5 238.1 7 C 237.7 7.4 237.5 8.1 237.5 8.9 C 237.5 9.7 237.7 10.4 238.1 10.9 C 238.5 11.3 239 11.6 239.6 11.6 C 240.2 11.6 240.7 11.3 241.1 10.9 C 241.5 10.4 241.7 9.8 241.7 8.9 C 241.7 8.1 241.5 7.5 241.1 7 C 240.7 6.5 240.2 6.3 239.6 6.3 Z M 240.2 15.6 C 238.9 15.6 238 15.7 237.5 16.1 C 236.9 16.4 236.7 16.8 236.7 17.3 C 236.7 17.8 236.9 18.2 237.3 18.4 C 237.8 18.8 238.6 19 239.6 19 C 240.7 19 241.6 18.8 242.2 18.4 C 242.8 18 243.1 17.6 243.1 17.1 C 243.1 16.8 243 16.5 242.8 16.3 C 242.6 16.1 242.4 15.9 242 15.7 C 241.5 15.6 241 15.6 240.2 15.6 Z M 252 0.4 L 259 0.4 L 259 1.1 C 259 1.1 257.34 1.15 257.3 1.1 C 257.1 1.1 256.9 1.2 256.8 1.4 C 256.6 1.5 256.6 1.7 256.6 2 C 256.6 2 256.6 14 256.6 14 C 256.6 14.3 256.6 14.5 256.8 14.6 C 257 14.7 257.3 14.8 257.8 14.8 C 257.8 14.8 259.9 14.8 259.9 14.8 C 261 14.8 262 14.4 262.7 13.6 C 263.4 12.9 263.9 11.6 264.3 9.7 C 264.25 9.71 265 9.7 265 9.7 L 264.6 15.5 L 252 15.5 L 252 14.8 C 252 14.8 253.23 14.78 253.2 14.8 C 253.7 14.8 254 14.7 254.1 14.5 C 254.3 14.4 254.4 14.1 254.4 13.8 C 254.4 13.8 254.4 1.9 254.4 1.9 C 254.4 1.7 254.3 1.5 254.2 1.3 C 254 1.2 253.8 1.1 253.5 1.1 C 253.53 1.15 252 1.1 252 1.1 L 252 0.4 Z M 275.3 14.8 C 275.6 14.8 275.9 14.7 276.2 14.5 C 276.2 14.5 276.5 15.1 276.5 15.1 C 276 15.6 275.5 15.8 274.9 15.8 C 274.4 15.8 274 15.7 273.7 15.5 C 273.4 15.2 273.1 14.8 272.9 14.1 C 272.2 14.8 271.7 15.3 271.2 15.5 C 270.7 15.7 270.1 15.8 269.4 15.8 C 268.4 15.8 267.7 15.6 267.1 15.2 C 266.6 14.8 266.4 14.2 266.4 13.6 C 266.4 12.6 267 11.7 268.1 11.1 C 269.3 10.4 270.9 10 272.8 9.8 C 272.8 9.8 272.8 8.3 272.8 8.3 C 272.8 7.8 272.6 7.3 272.2 7 C 271.8 6.6 271.2 6.4 270.6 6.4 C 270 6.4 269.5 6.5 269.1 6.8 C 268.8 7 268.6 7.2 268.6 7.3 C 268.6 7.4 268.7 7.6 268.8 7.8 C 269 8.1 269.1 8.3 269.1 8.5 C 269.1 8.8 269 9.1 268.8 9.3 C 268.6 9.5 268.4 9.6 268.1 9.6 C 267.7 9.6 267.4 9.5 267.2 9.2 C 267 9 266.9 8.7 266.9 8.3 C 266.9 7.7 267.3 7.1 268 6.5 C 268.8 5.9 269.8 5.6 271 5.6 C 272.2 5.6 273 5.9 273.6 6.4 C 274.2 6.9 274.5 7.5 274.5 8.2 C 274.5 8.2 274.5 13.5 274.5 13.5 C 274.5 13.9 274.6 14.3 274.8 14.5 C 274.9 14.7 275.1 14.8 275.3 14.8 C 275.3 14.8 275.3 14.8 275.3 14.8 Z M 272.8 10.4 C 271.1 10.7 269.8 11.1 269.1 11.6 C 268.6 12 268.3 12.6 268.3 13.4 C 268.3 13.9 268.5 14.3 268.7 14.6 C 269 14.9 269.4 15 269.8 15 C 270.6 15 271.3 14.7 271.9 14.1 C 272.5 13.5 272.8 12.7 272.8 11.8 C 272.8 11.8 272.8 10.4 272.8 10.4 Z M 278.3 5.9 C 278.3 5.9 281.05 5.76 281.1 5.8 C 281.2 6.5 281.3 7.2 281.3 7.8 C 281.9 7.1 282.4 6.5 282.9 6.2 C 283.4 5.9 284 5.8 284.6 5.8 C 285.3 5.8 285.8 5.9 286.3 6.3 C 286.7 6.6 287 7.2 287.3 8 C 287.7 7.2 288.2 6.7 288.8 6.3 C 289.3 5.9 290 5.8 290.6 5.8 C 291.5 5.8 292.2 6 292.6 6.5 C 293.1 7.2 293.4 8.1 293.4 9.2 C 293.4 9.2 293.4 14 293.4 14 C 293.4 14.2 293.5 14.4 293.6 14.5 C 293.8 14.7 294.1 14.8 294.5 14.8 C 294.49 14.78 295 14.8 295 14.8 L 295 15.5 L 290.1 15.5 L 290.1 14.8 C 290.1 14.8 290.63 14.78 290.6 14.8 C 291 14.8 291.3 14.7 291.5 14.6 C 291.7 14.4 291.7 14.2 291.7 14 C 291.7 14 291.7 9.2 291.7 9.2 C 291.7 8.5 291.6 7.9 291.2 7.5 C 290.9 7.1 290.4 6.9 289.8 6.9 C 289.4 6.9 289 7.1 288.7 7.3 C 288.3 7.5 288.1 7.8 287.9 8.3 C 287.6 8.9 287.4 9.4 287.4 9.8 C 287.4 9.8 287.4 14 287.4 14 C 287.4 14.2 287.5 14.4 287.6 14.6 C 287.8 14.7 288 14.8 288.3 14.8 C 288.34 14.78 289 14.8 289 14.8 L 289 15.5 L 284.1 15.5 L 284.1 14.8 C 284.1 14.8 284.65 14.78 284.6 14.8 C 285 14.8 285.3 14.7 285.4 14.6 C 285.6 14.4 285.7 14.3 285.7 14 C 285.7 14 285.7 9.6 285.7 9.6 C 285.7 8.7 285.5 8 285.2 7.6 C 284.9 7.2 284.4 6.9 283.8 6.9 C 283.1 6.9 282.6 7.2 282.2 7.7 C 281.6 8.4 281.3 9.2 281.3 10.1 C 281.3 10.1 281.3 14 281.3 14 C 281.3 14.2 281.4 14.5 281.5 14.6 C 281.7 14.7 282 14.8 282.4 14.8 C 282.4 14.78 282.9 14.8 282.9 14.8 L 282.9 15.5 L 278.1 15.5 L 278.1 14.8 C 278.1 14.8 278.78 14.78 278.8 14.8 C 279.1 14.8 279.3 14.7 279.4 14.6 C 279.6 14.4 279.6 14.3 279.6 14 C 279.6 14 279.6 7.8 279.6 7.8 C 279.6 7.4 279.5 7.1 279.4 7 C 279.2 6.8 278.8 6.7 278.3 6.6 C 278.3 6.64 278.3 5.9 278.3 5.9 Z M 299.4 0.2 C 299.4 0.2 299.35 7.35 299.4 7.4 C 299.8 6.8 300.2 6.4 300.7 6.1 C 301.2 5.8 301.7 5.6 302.3 5.6 C 303.4 5.6 304.4 6.1 305.2 7 C 305.9 7.9 306.3 9 306.3 10.5 C 306.3 12 305.9 13.3 305.1 14.2 C 304.2 15.2 303.2 15.7 302 15.7 C 301.4 15.7 300.8 15.6 300.4 15.3 C 299.9 15.1 299.4 14.7 298.9 14.2 C 298.5 14.8 298.1 15.3 297.8 15.7 C 297.8 15.7 297.4 15.5 297.4 15.5 C 297.5 14.8 297.6 13.9 297.6 13.1 C 297.6 13.1 297.6 2.2 297.6 2.2 C 297.6 1.9 297.5 1.6 297.3 1.4 C 297.1 1.2 296.7 1.1 296.3 1.1 C 296.29 1.15 295.9 1.1 295.9 1.1 L 295.9 0.4 L 299.4 0.2 Z M 301.9 6.6 C 301.2 6.6 300.5 6.9 300.1 7.6 C 299.6 8.2 299.3 9.4 299.3 10.9 C 299.3 12.4 299.6 13.4 300 14.1 C 300.5 14.7 301.1 15 301.9 15 C 302.6 15 303.2 14.7 303.6 14.1 C 304.1 13.3 304.4 12.2 304.4 10.7 C 304.4 9.2 304.2 8.2 303.7 7.5 C 303.2 6.9 302.6 6.6 301.9 6.6 Z M 313.5 0.4 L 317.3 0.2 C 317.3 0.2 317.26 13.35 317.3 13.4 C 317.3 13.9 317.4 14.2 317.5 14.4 C 317.7 14.7 318 14.8 318.4 14.8 C 318.43 14.78 319.1 14.8 319.1 14.8 L 319.1 15.5 L 315.8 15.5 C 315.8 15.5 315.56 13.59 315.6 13.6 C 315.2 14.3 314.7 14.8 314.2 15.2 C 313.7 15.5 313.1 15.7 312.4 15.7 C 311.3 15.7 310.4 15.2 309.6 14.3 C 308.9 13.4 308.5 12.2 308.5 10.7 C 308.5 9.1 309 7.8 310 6.8 C 310.7 6 311.6 5.6 312.6 5.6 C 313.2 5.6 313.8 5.8 314.3 6.1 C 314.8 6.4 315.2 6.9 315.6 7.5 C 315.6 7.5 315.6 2.1 315.6 2.1 C 315.6 1.8 315.5 1.6 315.2 1.4 C 315 1.2 314.7 1.1 314.2 1.1 C 314.19 1.15 313.5 1.1 313.5 1.1 L 313.5 0.4 Z M 314.7 7.5 C 314.2 6.8 313.6 6.5 312.9 6.5 C 312.2 6.5 311.6 6.8 311.2 7.4 C 310.7 8 310.5 9 310.5 10.5 C 310.5 12.1 310.7 13.2 311.2 13.8 C 311.6 14.4 312.2 14.8 312.9 14.8 C 313.6 14.8 314.3 14.4 314.8 13.7 C 315.3 13 315.6 11.9 315.6 10.6 C 315.6 9.3 315.3 8.2 314.7 7.5 C 314.7 7.5 314.7 7.5 314.7 7.5 Z M 329.4 14.8 C 329.7 14.8 330 14.7 330.3 14.5 C 330.3 14.5 330.6 15.1 330.6 15.1 C 330.1 15.6 329.6 15.8 329 15.8 C 328.5 15.8 328.1 15.7 327.8 15.5 C 327.5 15.2 327.2 14.8 327 14.1 C 326.3 14.8 325.7 15.3 325.3 15.5 C 324.8 15.7 324.2 15.8 323.5 15.8 C 322.5 15.8 321.7 15.6 321.2 15.2 C 320.7 14.8 320.5 14.2 320.5 13.6 C 320.5 12.6 321.1 11.7 322.2 11.1 C 323.4 10.4 325 10 326.9 9.8 C 326.9 9.8 326.9 8.3 326.9 8.3 C 326.9 7.8 326.7 7.3 326.3 7 C 325.9 6.6 325.3 6.4 324.7 6.4 C 324.1 6.4 323.6 6.5 323.2 6.8 C 322.8 7 322.7 7.2 322.7 7.3 C 322.7 7.4 322.8 7.6 322.9 7.8 C 323.1 8.1 323.2 8.3 323.2 8.5 C 323.2 8.8 323.1 9.1 322.9 9.3 C 322.7 9.5 322.5 9.6 322.2 9.6 C 321.8 9.6 321.5 9.5 321.3 9.2 C 321.1 9 321 8.7 321 8.3 C 321 7.7 321.3 7.1 322.1 6.5 C 322.9 5.9 323.9 5.6 325.1 5.6 C 326.2 5.6 327.1 5.9 327.7 6.4 C 328.3 6.9 328.6 7.5 328.6 8.2 C 328.6 8.2 328.6 13.5 328.6 13.5 C 328.6 13.9 328.7 14.3 328.8 14.5 C 329 14.7 329.2 14.8 329.4 14.8 C 329.4 14.8 329.4 14.8 329.4 14.8 Z M 326.9 10.4 C 325.2 10.7 323.9 11.1 323.2 11.6 C 322.7 12 322.4 12.6 322.4 13.4 C 322.4 13.9 322.5 14.3 322.8 14.6 C 323.1 14.9 323.5 15 323.9 15 C 324.7 15 325.4 14.7 326 14.1 C 326.6 13.5 326.9 12.7 326.9 11.8 C 326.9 11.8 326.9 10.4 326.9 10.4 Z M 337.2 5.9 L 341.9 5.9 C 341.9 5.9 341.94 6.63 341.9 6.6 C 341.3 6.6 340.9 6.7 340.7 6.8 C 340.6 6.9 340.5 7 340.5 7.2 C 340.5 7.4 340.5 7.5 340.6 7.7 C 340.57 7.68 343.1 13.4 343.1 13.4 C 343.1 13.4 345.44 7.85 345.4 7.9 C 345.5 7.8 345.5 7.7 345.5 7.6 C 345.5 7.1 345 6.8 344 6.6 C 344.02 6.63 344 5.9 344 5.9 L 348 5.9 C 348 5.9 348 6.63 348 6.6 C 347.6 6.7 347.3 6.8 347 7 C 346.8 7.1 346.6 7.4 346.5 7.7 C 346.48 7.68 343 15.8 343 15.8 L 342.4 15.8 C 342.4 15.8 338.63 7.45 338.6 7.5 C 338.5 7.2 338.3 6.9 338.1 6.8 C 337.9 6.7 337.6 6.6 337.2 6.6 C 337.21 6.63 337.2 5.9 337.2 5.9 Z M 358.2 14.8 C 358.5 14.8 358.8 14.7 359.1 14.5 C 359.1 14.5 359.4 15.1 359.4 15.1 C 358.9 15.6 358.4 15.8 357.8 15.8 C 357.3 15.8 356.9 15.7 356.6 15.5 C 356.3 15.2 356 14.8 355.8 14.1 C 355.1 14.8 354.5 15.3 354 15.5 C 353.6 15.7 353 15.8 352.3 15.8 C 351.3 15.8 350.5 15.6 350 15.2 C 349.5 14.8 349.3 14.2 349.3 13.6 C 349.3 12.6 349.8 11.7 351 11.1 C 352.2 10.4 353.8 10 355.7 9.8 C 355.7 9.8 355.7 8.3 355.7 8.3 C 355.7 7.8 355.5 7.3 355.1 7 C 354.7 6.6 354.1 6.4 353.5 6.4 C 352.9 6.4 352.4 6.5 351.9 6.8 C 351.6 7 351.5 7.2 351.5 7.3 C 351.5 7.4 351.6 7.6 351.7 7.8 C 351.9 8.1 352 8.3 352 8.5 C 352 8.8 351.9 9.1 351.7 9.3 C 351.5 9.5 351.3 9.6 351 9.6 C 350.6 9.6 350.3 9.5 350.1 9.2 C 349.9 9 349.8 8.7 349.8 8.3 C 349.8 7.7 350.1 7.1 350.9 6.5 C 351.7 5.9 352.7 5.6 353.9 5.6 C 355 5.6 355.9 5.9 356.5 6.4 C 357.1 6.9 357.4 7.5 357.4 8.2 C 357.4 8.2 357.4 13.5 357.4 13.5 C 357.4 13.9 357.5 14.3 357.6 14.5 C 357.8 14.7 358 14.8 358.2 14.8 C 358.2 14.8 358.2 14.8 358.2 14.8 Z M 355.7 10.4 C 354 10.7 352.7 11.1 352 11.6 C 351.5 12 351.2 12.6 351.2 13.4 C 351.2 13.9 351.3 14.3 351.6 14.6 C 351.9 14.9 352.3 15 352.7 15 C 353.5 15 354.2 14.7 354.8 14.1 C 355.4 13.5 355.7 12.7 355.7 11.8 C 355.7 11.8 355.7 10.4 355.7 10.4 Z M 360.4 5.9 L 363.9 5.8 C 363.9 5.8 363.89 9.65 363.9 9.6 C 364.3 8.4 364.7 7.4 365.2 6.7 C 365.7 6.1 366.4 5.8 367.2 5.8 C 367.7 5.8 368.1 5.9 368.4 6.2 C 368.7 6.6 368.9 7 368.9 7.5 C 368.9 7.9 368.8 8.3 368.6 8.5 C 368.3 8.8 368.1 8.9 367.8 8.9 C 367.5 8.9 367.2 8.8 367 8.6 C 366.8 8.4 366.7 8.1 366.7 7.7 C 366.7 7.5 366.8 7.3 366.9 7.1 C 367 6.9 367.1 6.8 367.1 6.8 C 367.1 6.7 367 6.6 366.9 6.6 C 366.6 6.6 366.3 6.8 365.9 7.1 C 365.4 7.6 365 8.2 364.8 9 C 364.4 10.3 364.2 11.3 364.2 12 C 364.2 12 364.2 14.1 364.2 14.1 C 364.2 14.3 364.2 14.5 364.4 14.6 C 364.6 14.7 364.8 14.8 365.2 14.8 C 365.25 14.78 366.5 14.8 366.5 14.8 L 366.5 15.5 L 360.5 15.5 L 360.5 14.8 C 360.5 14.8 361.45 14.78 361.5 14.8 C 361.8 14.8 362 14.7 362.2 14.6 C 362.3 14.5 362.4 14.3 362.4 14.1 C 362.4 14.1 362.4 8 362.4 8 C 362.4 7.5 362.3 7.2 362.1 7 C 361.9 6.8 361.6 6.7 361.3 6.7 C 361.28 6.67 360.4 6.7 360.4 6.7 L 360.4 5.9 Z M 372.4 0.2 C 372.7 0.2 373 0.3 373.2 0.6 C 373.4 0.8 373.6 1.1 373.6 1.4 C 373.6 1.7 373.4 1.9 373.2 2.2 C 373 2.4 372.7 2.5 372.4 2.5 C 372.1 2.5 371.8 2.4 371.6 2.2 C 371.4 1.9 371.2 1.7 371.2 1.4 C 371.2 1.1 371.4 0.8 371.6 0.6 C 371.8 0.3 372.1 0.2 372.4 0.2 Z M 369.7 5.9 L 373.6 5.8 C 373.6 5.8 373.55 14.09 373.6 14.1 C 373.6 14.3 373.6 14.5 373.7 14.6 C 373.9 14.7 374.1 14.8 374.3 14.8 C 374.31 14.78 375.4 14.8 375.4 14.8 L 375.4 15.5 L 369.9 15.5 L 369.9 14.8 C 369.9 14.8 370.95 14.78 370.9 14.8 C 371.2 14.8 371.5 14.7 371.6 14.6 C 371.7 14.4 371.8 14.2 371.8 13.9 C 371.8 13.9 371.8 7.9 371.8 7.9 C 371.8 7.5 371.7 7.2 371.5 7 C 371.3 6.8 370.9 6.7 370.5 6.7 C 370.52 6.71 369.7 6.7 369.7 6.7 L 369.7 5.9 Z M 385.8 14.8 C 386.1 14.8 386.4 14.7 386.7 14.5 C 386.7 14.5 387 15.1 387 15.1 C 386.5 15.6 386 15.8 385.4 15.8 C 384.9 15.8 384.5 15.7 384.2 15.5 C 383.9 15.2 383.6 14.8 383.4 14.1 C 382.7 14.8 382.2 15.3 381.7 15.5 C 381.2 15.7 380.6 15.8 379.9 15.8 C 378.9 15.8 378.2 15.6 377.6 15.2 C 377.1 14.8 376.9 14.2 376.9 13.6 C 376.9 12.6 377.5 11.7 378.6 11.1 C 379.8 10.4 381.4 10 383.3 9.8 C 383.3 9.8 383.3 8.3 383.3 8.3 C 383.3 7.8 383.1 7.3 382.7 7 C 382.3 6.6 381.7 6.4 381.1 6.4 C 380.5 6.4 380 6.5 379.6 6.8 C 379.3 7 379.1 7.2 379.1 7.3 C 379.1 7.4 379.2 7.6 379.3 7.8 C 379.5 8.1 379.6 8.3 379.6 8.5 C 379.6 8.8 379.5 9.1 379.3 9.3 C 379.1 9.5 378.9 9.6 378.6 9.6 C 378.2 9.6 377.9 9.5 377.7 9.2 C 377.5 9 377.4 8.7 377.4 8.3 C 377.4 7.7 377.7 7.1 378.5 6.5 C 379.3 5.9 380.3 5.6 381.5 5.6 C 382.6 5.6 383.5 5.9 384.1 6.4 C 384.7 6.9 385 7.5 385 8.2 C 385 8.2 385 13.5 385 13.5 C 385 13.9 385.1 14.3 385.3 14.5 C 385.4 14.7 385.6 14.8 385.8 14.8 C 385.8 14.8 385.8 14.8 385.8 14.8 Z M 383.3 10.4 C 381.6 10.7 380.3 11.1 379.6 11.6 C 379.1 12 378.8 12.6 378.8 13.4 C 378.8 13.9 379 14.3 379.2 14.6 C 379.5 14.9 379.9 15 380.3 15 C 381.1 15 381.8 14.7 382.4 14.1 C 383 13.5 383.3 12.7 383.3 11.8 C 383.3 11.8 383.3 10.4 383.3 10.4 Z M 388.2 5.9 C 388.2 5.9 391.39 5.74 391.4 5.7 C 391.5 6.3 391.6 7 391.7 7.9 C 392.1 7.2 392.6 6.6 393.2 6.3 C 393.8 5.9 394.4 5.8 395.2 5.8 C 395.8 5.8 396.4 5.9 396.8 6.1 C 397.2 6.4 397.6 6.8 397.8 7.3 C 398.1 7.9 398.2 8.5 398.2 9.1 C 398.2 9.1 398.2 13.8 398.2 13.8 C 398.2 14.2 398.3 14.4 398.4 14.6 C 398.6 14.7 398.9 14.8 399.2 14.8 C 399.24 14.78 399.9 14.8 399.9 14.8 L 399.9 15.5 L 394.8 15.5 L 394.8 14.8 C 394.8 14.8 395.33 14.78 395.3 14.8 C 395.8 14.8 396.1 14.7 396.3 14.6 C 396.5 14.4 396.5 14.2 396.5 13.9 C 396.5 13.9 396.5 9.8 396.5 9.8 C 396.5 8.9 396.4 8.2 396.1 7.8 C 395.7 7.2 395.2 6.9 394.4 6.9 C 393.6 6.9 393 7.2 392.5 7.8 C 391.9 8.4 391.7 9.3 391.7 10.3 C 391.7 10.3 391.7 13.8 391.7 13.8 C 391.7 14.2 391.8 14.4 391.9 14.6 C 392.1 14.7 392.3 14.8 392.7 14.8 C 392.72 14.78 393.4 14.8 393.4 14.8 L 393.4 15.5 L 388.3 15.5 L 388.3 14.8 C 388.3 14.8 388.96 14.78 389 14.8 C 389.3 14.8 389.6 14.7 389.7 14.6 C 389.9 14.4 390 14.3 390 14.1 C 390 14.1 390 7.9 390 7.9 C 390 7.4 389.9 7.1 389.7 6.9 C 389.4 6.7 389.1 6.6 388.7 6.6 C 388.7 6.6 388.2 6.6 388.2 6.6 L 388.2 5.9 Z M 402.6 5.2 C 403.2 4.5 403.5 3.4 403.6 2 C 403.56 2.02 404.3 2 404.3 2 L 404.3 5.9 L 407.4 5.9 L 407.4 6.9 L 404.3 6.9 C 404.3 6.9 404.25 13.04 404.3 13 C 404.3 13.6 404.4 14 404.6 14.3 C 404.9 14.6 405.2 14.7 405.6 14.7 C 406.1 14.7 406.5 14.5 406.8 14 C 407.1 13.6 407.3 12.9 407.4 11.9 C 407.4 11.9 408 11.9 408 11.9 C 408 13.2 407.7 14.1 407.2 14.8 C 406.6 15.4 405.9 15.7 405.1 15.7 C 404.3 15.7 403.7 15.5 403.2 15 C 402.8 14.6 402.5 14 402.5 13.3 C 402.54 13.33 402.5 6.9 402.5 6.9 L 400.9 6.9 C 400.9 6.9 400.87 6.16 400.9 6.2 C 401.6 6 402.2 5.7 402.6 5.2 C 402.6 5.2 402.6 5.2 402.6 5.2 Z M 415 5.9 C 415 5.9 418.23 5.74 418.2 5.7 C 418.4 6.3 418.5 7 418.5 7.9 C 418.9 7.2 419.5 6.6 420 6.3 C 420.6 5.9 421.3 5.8 422 5.8 C 422.7 5.8 423.2 5.9 423.6 6.1 C 424.1 6.4 424.4 6.8 424.7 7.3 C 424.9 7.9 425 8.5 425 9.1 C 425 9.1 425 13.8 425 13.8 C 425 14.2 425.1 14.4 425.3 14.6 C 425.4 14.7 425.7 14.8 426.1 14.8 C 426.07 14.78 426.7 14.8 426.7 14.8 L 426.7 15.5 L 421.7 15.5 L 421.7 14.8 C 421.7 14.8 422.16 14.78 422.2 14.8 C 422.6 14.8 422.9 14.7 423.1 14.6 C 423.3 14.4 423.4 14.2 423.4 13.9 C 423.4 13.9 423.4 9.8 423.4 9.8 C 423.4 8.9 423.2 8.2 423 7.8 C 422.6 7.2 422 6.9 421.2 6.9 C 420.4 6.9 419.8 7.2 419.3 7.8 C 418.8 8.4 418.5 9.3 418.5 10.3 C 418.5 10.3 418.5 13.8 418.5 13.8 C 418.5 14.2 418.6 14.4 418.8 14.6 C 418.9 14.7 419.2 14.8 419.5 14.8 C 419.55 14.78 420.2 14.8 420.2 14.8 L 420.2 15.5 L 415.1 15.5 L 415.1 14.8 C 415.1 14.8 415.8 14.78 415.8 14.8 C 416.1 14.8 416.4 14.7 416.6 14.6 C 416.7 14.4 416.8 14.3 416.8 14.1 C 416.8 14.1 416.8 7.9 416.8 7.9 C 416.8 7.4 416.7 7.1 416.5 6.9 C 416.3 6.7 415.9 6.6 415.5 6.6 C 415.53 6.6 415 6.6 415 6.6 L 415 5.9 Z M 435.2 6.5 C 435.9 5.8 436.5 5.4 437.1 5.4 C 437.5 5.4 437.7 5.6 438 5.8 C 438.2 6 438.3 6.3 438.3 6.6 C 438.3 6.8 438.2 7 438.1 7.2 C 437.9 7.4 437.7 7.5 437.5 7.5 C 437.1 7.5 436.9 7.2 436.7 6.7 C 436.7 6.5 436.6 6.4 436.5 6.4 C 436.2 6.4 436 6.6 435.7 6.9 C 436 7.3 436.2 7.6 436.3 7.9 C 436.4 8.2 436.5 8.6 436.5 8.9 C 436.5 9.5 436.3 10 436 10.5 C 435.8 10.9 435.3 11.3 434.6 11.7 C 434 12 433.3 12.2 432.7 12.2 C 432.7 12.2 431.6 12.2 431.6 12.2 C 430.8 12.2 430.3 12.3 430 12.4 C 429.7 12.6 429.6 12.9 429.6 13.2 C 429.6 13.5 429.7 13.7 429.9 13.8 C 430.1 14 430.5 14 431.1 14 C 431.1 14 433.7 14 433.7 14 C 434.9 14 435.9 14.2 436.4 14.6 C 437 15 437.3 15.6 437.3 16.4 C 437.3 17.2 437 17.9 436.3 18.4 C 435.4 19.2 434.1 19.6 432.3 19.6 C 430.8 19.6 429.7 19.4 429 18.8 C 428.5 18.4 428.2 17.9 428.2 17.4 C 428.2 17 428.4 16.6 428.7 16.3 C 429.1 16 429.7 15.7 430.5 15.5 C 429.9 15.4 429.4 15.1 429 14.8 C 428.7 14.5 428.5 14.1 428.5 13.6 C 428.5 13.2 428.6 12.8 428.9 12.5 C 429.2 12.2 429.7 11.9 430.4 11.7 C 429.8 11.3 429.3 10.9 429 10.5 C 428.8 10 428.6 9.5 428.6 8.9 C 428.6 8 429 7.2 429.7 6.6 C 430.4 6 431.4 5.6 432.6 5.6 C 433 5.6 433.5 5.7 433.9 5.9 C 434.4 6 434.8 6.2 435.2 6.5 Z M 432.5 6.3 C 431.9 6.3 431.4 6.5 431 7 C 430.6 7.4 430.4 8.1 430.4 8.9 C 430.4 9.7 430.6 10.4 431 10.9 C 431.4 11.3 431.9 11.6 432.5 11.6 C 433.2 11.6 433.7 11.3 434.1 10.9 C 434.4 10.4 434.6 9.8 434.6 8.9 C 434.6 8.1 434.4 7.5 434 7 C 433.6 6.5 433.1 6.3 432.5 6.3 Z M 433.1 15.6 C 431.9 15.6 431 15.7 430.4 16.1 C 429.9 16.4 429.6 16.8 429.6 17.3 C 429.6 17.8 429.8 18.2 430.2 18.4 C 430.8 18.8 431.5 19 432.5 19 C 433.7 19 434.6 18.8 435.2 18.4 C 435.8 18 436.1 17.6 436.1 17.1 C 436.1 16.8 436 16.5 435.8 16.3 C 435.6 16.1 435.3 15.9 434.9 15.7 C 434.5 15.6 433.9 15.6 433.1 15.6 Z " stroke="none" fill="#000"/>
  </g>
</svg>