<?xml version="1.0" standalone="no"?>
<!DOCTYPE svg PUBLIC "-//W3C//DTD SVG 1.1//EN" "http://www.w3.org/Graphics/SVG/1.1/DTD/svg11.dtd">
<svg xmlns="http://www.w3.org/2000/svg" version="1.1" width="149px" height="24.5px" viewBox="0 -1 149 24.5" style="top:-1px">
  <desc>Ysabel Garcia, Naiza Rica Magaspac, at Allen Tatualla</desc>
  <defs/>
  <g id="Polygon16452">
    <path d="M 2.9 16.6 L 1.6 12.3 L 1.6 16.6 L 0.5 16.6 L 0.5 11.3 L 2.5 11.3 L 3.4 14.5 L 4.4 11.3 L 6.4 11.3 L 6.4 16.6 L 5.1 16.6 L 5.1 12.3 L 3.8 16.6 L 2.9 16.6 Z M 10.4 11.3 L 12 16.6 L 10.7 16.6 L 10.4 15.5 L 8.6 15.5 L 8.3 16.6 L 7.2 16.6 L 8.9 11.3 L 10.4 11.3 Z M 8.9 14.5 L 10.1 14.5 L 9.5 12.6 L 8.9 14.5 Z M 16.9 13.8 L 16.9 16.6 C 16.9 16.6 16.33 16.6 16.3 16.6 C 16.3 16.4 16.2 16.2 16.2 16 C 15.8 16.5 15.3 16.7 14.7 16.7 C 14 16.7 13.5 16.4 13.1 15.9 C 12.7 15.4 12.5 14.8 12.5 14 C 12.5 13.2 12.7 12.5 13.1 12 C 13.5 11.4 14.1 11.2 14.8 11.2 C 15.4 11.2 15.9 11.4 16.2 11.7 C 16.6 12 16.8 12.5 16.9 13 C 16.9 13 15.7 13.2 15.7 13.2 C 15.6 12.5 15.3 12.2 14.8 12.2 C 14.5 12.2 14.2 12.4 14 12.7 C 13.9 13 13.8 13.4 13.8 14 C 13.8 14.5 13.9 14.9 14.1 15.2 C 14.2 15.5 14.5 15.7 14.9 15.7 C 15.1 15.7 15.3 15.6 15.5 15.4 C 15.6 15.3 15.7 15.1 15.7 14.7 C 15.71 14.75 14.7 14.7 14.7 14.7 L 14.7 13.8 L 16.9 13.8 Z M 20.9 11.3 L 22.5 16.6 L 21.2 16.6 L 20.9 15.5 L 19.1 15.5 L 18.8 16.6 L 17.7 16.6 L 19.4 11.3 L 20.9 11.3 Z M 19.4 14.5 L 20.6 14.5 L 20 12.6 L 19.4 14.5 Z M 25.1 11.2 C 26.1 11.2 26.8 11.6 27.1 12.4 C 27.1 12.4 26.1 12.8 26.1 12.8 C 25.9 12.4 25.6 12.2 25.1 12.2 C 24.7 12.2 24.4 12.3 24.4 12.6 C 24.4 12.8 24.5 12.9 24.5 13 C 24.6 13.1 24.8 13.1 25.2 13.2 C 25.7 13.3 26.1 13.4 26.4 13.5 C 26.6 13.6 26.8 13.8 27 14.1 C 27.2 14.3 27.3 14.6 27.3 14.9 C 27.3 15.4 27.1 15.8 26.7 16.2 C 26.3 16.5 25.8 16.7 25.1 16.7 C 24.5 16.7 24 16.6 23.7 16.3 C 23.3 16.1 23 15.7 22.9 15.2 C 22.9 15.2 24.1 14.9 24.1 14.9 C 24.2 15.4 24.6 15.7 25.1 15.7 C 25.4 15.7 25.6 15.6 25.8 15.5 C 25.9 15.4 26 15.3 26 15.1 C 26 15 25.9 14.8 25.8 14.8 C 25.7 14.7 25.4 14.6 25.1 14.5 C 24.4 14.4 23.9 14.2 23.6 13.9 C 23.3 13.7 23.2 13.3 23.2 12.9 C 23.2 12.4 23.4 12 23.7 11.7 C 24 11.4 24.5 11.2 25.1 11.2 C 25.1 11.2 25.1 11.2 25.1 11.2 Z M 29.7 14.6 L 29.7 16.6 L 28.4 16.6 L 28.4 11.3 C 28.4 11.3 30.5 11.27 30.5 11.3 C 31 11.3 31.3 11.3 31.6 11.4 C 31.8 11.5 32 11.7 32.2 12 C 32.4 12.2 32.5 12.5 32.5 12.9 C 32.5 13.2 32.5 13.4 32.4 13.7 C 32.3 13.9 32.1 14.1 31.9 14.3 C 31.7 14.4 31.6 14.5 31.4 14.6 C 31.2 14.6 30.9 14.6 30.5 14.6 C 30.55 14.62 29.7 14.6 29.7 14.6 Z M 29.6 13.7 C 29.6 13.7 30.44 13.65 30.4 13.7 C 30.7 13.7 31 13.6 31.1 13.4 C 31.2 13.3 31.3 13.1 31.3 12.9 C 31.3 12.7 31.2 12.6 31.1 12.4 C 30.9 12.3 30.7 12.2 30.4 12.2 C 30.44 12.24 29.6 12.2 29.6 12.2 L 29.6 13.7 Z M 35.8 11.3 L 37.5 16.6 L 36.2 16.6 L 35.8 15.5 L 34.1 15.5 L 33.8 16.6 L 32.7 16.6 L 34.4 11.3 L 35.8 11.3 Z M 34.4 14.5 L 35.6 14.5 L 35 12.6 L 34.4 14.5 Z M 40.4 11.2 C 41.7 11.2 42.4 11.9 42.5 13.3 C 42.5 13.3 41.2 13.3 41.2 13.3 C 41.2 12.6 40.9 12.2 40.3 12.2 C 39.7 12.2 39.4 12.8 39.4 13.9 C 39.4 14.6 39.5 15.1 39.6 15.3 C 39.8 15.5 40.1 15.7 40.4 15.7 C 40.9 15.7 41.2 15.3 41.3 14.7 C 41.3 14.7 42.5 14.7 42.5 14.7 C 42.5 15.4 42.2 15.9 41.8 16.2 C 41.4 16.5 40.9 16.7 40.4 16.7 C 39.7 16.7 39.1 16.4 38.6 16 C 38.2 15.5 38 14.8 38 13.9 C 38 13.1 38.2 12.5 38.6 12 C 39 11.4 39.6 11.2 40.4 11.2 C 40.4 11.2 40.4 11.2 40.4 11.2 Z M 44.7 15.4 L 44.7 16.5 L 43.9 17.8 L 43.5 17.8 L 44.1 16.6 L 43.5 16.6 L 43.5 15.4 L 44.7 15.4 Z M 50.9 11.3 L 52.6 16.6 L 51.2 16.6 L 50.9 15.5 L 49.2 15.5 L 48.8 16.6 L 47.7 16.6 L 49.4 11.3 L 50.9 11.3 Z M 49.5 14.5 L 50.6 14.5 L 50 12.6 L 49.5 14.5 Z M 56.4 11.3 L 56.4 12.3 L 55.1 12.3 L 55.1 16.6 L 53.8 16.6 L 53.8 12.3 L 52.5 12.3 L 52.5 11.3 L 56.4 11.3 Z M 62.2 11.3 L 63.9 16.6 L 62.6 16.6 L 62.2 15.5 L 60.5 15.5 L 60.2 16.6 L 59.1 16.6 L 60.8 11.3 L 62.2 11.3 Z M 60.8 14.5 L 61.9 14.5 L 61.4 12.6 L 60.8 14.5 Z M 66.1 15.5 L 68.2 15.5 L 68.2 16.6 L 64.8 16.6 L 64.8 11.3 L 66.1 11.3 L 66.1 15.5 Z M 70.4 15.5 L 72.5 15.5 L 72.5 16.6 L 69.1 16.6 L 69.1 11.3 L 70.4 11.3 L 70.4 15.5 Z M 77.3 12.3 L 74.8 12.3 L 74.8 13.4 L 76.7 13.4 L 76.7 14.4 L 74.8 14.4 L 74.8 15.5 L 77.3 15.5 L 77.3 16.6 L 73.5 16.6 L 73.5 11.3 L 77.3 11.3 L 77.3 12.3 Z M 82.5 11.3 L 82.5 16.6 L 81.4 16.6 C 81.4 16.6 79.31 13 79.3 13 C 79.3 13.1 79.3 13.2 79.3 13.2 C 79.3 13.3 79.3 13.3 79.3 13.4 C 79.33 13.41 79.3 16.6 79.3 16.6 L 78.4 16.6 L 78.4 11.3 L 79.7 11.3 C 79.7 11.3 81.52 14.41 81.5 14.4 C 81.5 14.3 81.5 14.1 81.5 14.1 C 81.5 14.06 81.5 11.3 81.5 11.3 L 82.5 11.3 Z M 89.6 11.3 L 89.6 12.3 L 88.2 12.3 L 88.2 16.6 L 87 16.6 L 87 12.3 L 85.6 12.3 L 85.6 11.3 L 89.6 11.3 Z M 92.7 11.3 L 94.3 16.6 L 93 16.6 L 92.7 15.5 L 90.9 15.5 L 90.6 16.6 L 89.5 16.6 L 91.2 11.3 L 92.7 11.3 Z M 91.2 14.5 L 92.4 14.5 L 91.8 12.6 L 91.2 14.5 Z M 98.2 11.3 L 98.2 12.3 L 96.9 12.3 L 96.9 16.6 L 95.6 16.6 L 95.6 12.3 L 94.3 12.3 L 94.3 11.3 L 98.2 11.3 Z M 103.2 11.3 C 103.2 11.3 103.25 14.59 103.2 14.6 C 103.2 15.1 103.2 15.5 103.1 15.8 C 102.9 16 102.7 16.3 102.4 16.4 C 102.1 16.6 101.6 16.7 101.1 16.7 C 100.6 16.7 100.2 16.6 99.9 16.5 C 99.6 16.3 99.4 16.1 99.2 15.8 C 99.1 15.5 99 15.1 99 14.6 C 98.99 14.59 99 11.3 99 11.3 L 100.3 11.3 C 100.3 11.3 100.34 14.59 100.3 14.6 C 100.3 14.9 100.4 15.1 100.4 15.2 C 100.5 15.4 100.6 15.5 100.7 15.5 C 100.9 15.6 101 15.7 101.2 15.7 C 101.5 15.7 101.7 15.6 101.8 15.5 C 102 15.5 102.1 15.4 102.1 15.2 C 102.2 15.1 102.2 14.9 102.2 14.6 C 102.18 14.59 102.2 11.3 102.2 11.3 L 103.2 11.3 Z M 107.1 11.3 L 108.7 16.6 L 107.4 16.6 L 107.1 15.5 L 105.3 15.5 L 105 16.6 L 103.9 16.6 L 105.6 11.3 L 107.1 11.3 Z M 105.6 14.5 L 106.8 14.5 L 106.2 12.6 L 105.6 14.5 Z M 110.9 15.5 L 113 15.5 L 113 16.6 L 109.6 16.6 L 109.6 11.3 L 110.9 11.3 L 110.9 15.5 Z M 115.2 15.5 L 117.4 15.5 L 117.4 16.6 L 114 16.6 L 114 11.3 L 115.2 11.3 L 115.2 15.5 Z M 120.9 11.3 L 122.6 16.6 L 121.3 16.6 L 120.9 15.5 L 119.2 15.5 L 118.9 16.6 L 117.8 16.6 L 119.5 11.3 L 120.9 11.3 Z M 119.5 14.5 L 120.6 14.5 L 120.1 12.6 L 119.5 14.5 Z " stroke="none" fill="#000"/>
  </g>
  <g id="Polygon16451">
    <path d="M 4.4 0.3 L 2.7 3.4 L 2.7 5.6 L 1.5 5.6 L 1.5 3.4 L -0.2 0.3 L 1.2 0.3 L 2.3 2.3 L 3.3 0.3 L 4.4 0.3 Z M 6.7 0.2 C 7.7 0.2 8.4 0.6 8.7 1.4 C 8.7 1.4 7.6 1.8 7.6 1.8 C 7.5 1.4 7.2 1.2 6.7 1.2 C 6.2 1.2 6 1.3 6 1.6 C 6 1.8 6 1.9 6.1 2 C 6.2 2.1 6.4 2.1 6.7 2.2 C 7.3 2.3 7.7 2.4 7.9 2.5 C 8.2 2.6 8.4 2.8 8.6 3.1 C 8.7 3.3 8.8 3.6 8.8 3.9 C 8.8 4.4 8.6 4.8 8.3 5.2 C 7.9 5.5 7.3 5.7 6.6 5.7 C 6.1 5.7 5.6 5.6 5.2 5.3 C 4.8 5.1 4.6 4.7 4.5 4.2 C 4.5 4.2 5.6 3.9 5.6 3.9 C 5.7 4.4 6.1 4.7 6.7 4.7 C 7 4.7 7.2 4.6 7.3 4.5 C 7.5 4.4 7.5 4.3 7.5 4.1 C 7.5 4 7.5 3.8 7.4 3.8 C 7.2 3.7 7 3.6 6.6 3.5 C 5.9 3.4 5.5 3.2 5.2 2.9 C 4.9 2.7 4.7 2.3 4.7 1.9 C 4.7 1.4 4.9 1 5.3 0.7 C 5.6 0.4 6.1 0.2 6.7 0.2 C 6.7 0.2 6.7 0.2 6.7 0.2 Z M 12.5 0.3 L 14.2 5.6 L 12.8 5.6 L 12.5 4.5 L 10.8 4.5 L 10.4 5.6 L 9.3 5.6 L 11.1 0.3 L 12.5 0.3 Z M 11.1 3.5 L 12.2 3.5 L 11.6 1.6 L 11.1 3.5 Z M 15.1 0.3 C 15.1 0.3 17.55 0.27 17.5 0.3 C 18 0.3 18.3 0.3 18.6 0.4 C 18.8 0.5 19 0.7 19.1 0.9 C 19.3 1.1 19.3 1.4 19.3 1.6 C 19.3 2.2 19 2.6 18.4 2.8 C 18.7 2.9 19 3.1 19.2 3.3 C 19.4 3.6 19.5 3.8 19.5 4.1 C 19.5 4.5 19.3 4.9 19 5.2 C 18.7 5.5 18.2 5.6 17.5 5.6 C 17.55 5.6 15.1 5.6 15.1 5.6 L 15.1 0.3 Z M 16.3 1.2 L 16.3 2.4 C 16.3 2.4 17.26 2.38 17.3 2.4 C 17.6 2.4 17.8 2.3 17.9 2.2 C 18 2 18 1.9 18 1.8 C 18 1.6 18 1.5 17.9 1.4 C 17.9 1.3 17.8 1.3 17.7 1.2 C 17.6 1.2 17.4 1.2 17.2 1.2 C 17.17 1.21 16.3 1.2 16.3 1.2 Z M 16.3 3.3 L 16.3 4.6 C 16.3 4.6 17.27 4.61 17.3 4.6 C 17.6 4.6 17.8 4.6 18 4.4 C 18.1 4.3 18.2 4.2 18.2 4 C 18.2 3.8 18.1 3.6 18 3.5 C 17.8 3.4 17.6 3.3 17.3 3.3 C 17.33 3.33 16.3 3.3 16.3 3.3 Z M 24.4 1.3 L 21.9 1.3 L 21.9 2.4 L 23.9 2.4 L 23.9 3.4 L 21.9 3.4 L 21.9 4.5 L 24.4 4.5 L 24.4 5.6 L 20.6 5.6 L 20.6 0.3 L 24.4 0.3 L 24.4 1.3 Z M 26.7 4.5 L 28.9 4.5 L 28.9 5.6 L 25.5 5.6 L 25.5 0.3 L 26.7 0.3 L 26.7 4.5 Z M 36.3 2.8 L 36.3 5.6 C 36.3 5.6 35.72 5.6 35.7 5.6 C 35.7 5.4 35.6 5.2 35.5 5 C 35.2 5.5 34.7 5.7 34.1 5.7 C 33.4 5.7 32.9 5.4 32.5 4.9 C 32.1 4.4 31.9 3.8 31.9 3 C 31.9 2.2 32.1 1.5 32.5 1 C 32.9 0.4 33.5 0.2 34.2 0.2 C 34.8 0.2 35.3 0.4 35.6 0.7 C 36 1 36.2 1.5 36.3 2 C 36.3 2 35.1 2.2 35.1 2.2 C 35 1.5 34.7 1.2 34.2 1.2 C 33.9 1.2 33.6 1.4 33.4 1.7 C 33.2 2 33.2 2.4 33.2 3 C 33.2 3.5 33.3 3.9 33.4 4.2 C 33.6 4.5 33.9 4.7 34.2 4.7 C 34.5 4.7 34.7 4.6 34.8 4.4 C 35 4.3 35.1 4.1 35.1 3.7 C 35.11 3.75 34.1 3.7 34.1 3.7 L 34.1 2.8 L 36.3 2.8 Z M 40.3 0.3 L 41.9 5.6 L 40.6 5.6 L 40.3 4.5 L 38.5 4.5 L 38.2 5.6 L 37.1 5.6 L 38.8 0.3 L 40.3 0.3 Z M 38.8 3.5 L 40 3.5 L 39.4 1.6 L 38.8 3.5 Z M 44.1 3.5 L 44.1 5.6 L 42.8 5.6 L 42.8 0.3 C 42.8 0.3 45.17 0.27 45.2 0.3 C 45.6 0.3 46 0.3 46.2 0.4 C 46.5 0.5 46.7 0.7 46.9 1 C 47 1.2 47.1 1.5 47.1 1.9 C 47.1 2.5 46.8 3 46.2 3.2 C 46.2 3.24 47.2 5.6 47.2 5.6 L 45.8 5.6 L 45 3.5 L 44.1 3.5 Z M 44.1 1.2 L 44.1 2.6 C 44.1 2.6 44.85 2.58 44.9 2.6 C 45.1 2.6 45.3 2.6 45.4 2.5 C 45.5 2.5 45.6 2.4 45.7 2.3 C 45.8 2.2 45.8 2 45.8 1.9 C 45.8 1.7 45.8 1.6 45.7 1.5 C 45.6 1.4 45.5 1.3 45.4 1.3 C 45.3 1.2 45.1 1.2 44.8 1.2 C 44.83 1.22 44.1 1.2 44.1 1.2 Z M 50.4 0.2 C 51.7 0.2 52.4 0.9 52.6 2.3 C 52.6 2.3 51.3 2.3 51.3 2.3 C 51.3 1.6 51 1.2 50.4 1.2 C 49.8 1.2 49.4 1.8 49.4 2.9 C 49.4 3.6 49.5 4.1 49.7 4.3 C 49.9 4.5 50.1 4.7 50.4 4.7 C 51 4.7 51.3 4.3 51.4 3.7 C 51.4 3.7 52.6 3.7 52.6 3.7 C 52.5 4.4 52.3 4.9 51.9 5.2 C 51.5 5.5 51 5.7 50.4 5.7 C 49.7 5.7 49.2 5.4 48.7 5 C 48.3 4.5 48 3.8 48 2.9 C 48 2.1 48.3 1.5 48.7 1 C 49.1 0.4 49.7 0.2 50.4 0.2 C 50.4 0.2 50.4 0.2 50.4 0.2 Z M 54.9 0.3 L 54.9 5.6 L 53.6 5.6 L 53.6 0.3 L 54.9 0.3 Z M 58.9 0.3 L 60.6 5.6 L 59.2 5.6 L 58.9 4.5 L 57.2 4.5 L 56.8 5.6 L 55.7 5.6 L 57.5 0.3 L 58.9 0.3 Z M 57.5 3.5 L 58.6 3.5 L 58 1.6 L 57.5 3.5 Z M 62.7 4.4 L 62.7 5.5 L 62 6.8 L 61.5 6.8 L 62.1 5.6 L 61.5 5.6 L 61.5 4.4 L 62.7 4.4 Z M 70.4 0.3 L 70.4 5.6 L 69.4 5.6 C 69.4 5.6 67.29 2 67.3 2 C 67.3 2.1 67.3 2.2 67.3 2.2 C 67.3 2.3 67.3 2.3 67.3 2.4 C 67.32 2.41 67.3 5.6 67.3 5.6 L 66.3 5.6 L 66.3 0.3 L 67.7 0.3 C 67.7 0.3 69.5 3.41 69.5 3.4 C 69.5 3.3 69.5 3.1 69.5 3.1 C 69.48 3.06 69.5 0.3 69.5 0.3 L 70.4 0.3 Z M 74.5 0.3 L 76.1 5.6 L 74.8 5.6 L 74.5 4.5 L 72.7 4.5 L 72.4 5.6 L 71.3 5.6 L 73 0.3 L 74.5 0.3 Z M 73 3.5 L 74.2 3.5 L 73.6 1.6 L 73 3.5 Z M 78.3 0.3 L 78.3 5.6 L 77 5.6 L 77 0.3 L 78.3 0.3 Z M 83.5 1.2 L 80.8 4.6 L 83.6 4.6 L 83.6 5.6 L 79.3 5.6 L 79.3 4.7 L 82 1.3 L 79.5 1.3 L 79.5 0.3 L 83.5 0.3 L 83.5 1.2 Z M 87.2 0.3 L 88.9 5.6 L 87.5 5.6 L 87.2 4.5 L 85.5 4.5 L 85.2 5.6 L 84.1 5.6 L 85.8 0.3 L 87.2 0.3 Z M 85.8 3.5 L 86.9 3.5 L 86.4 1.6 L 85.8 3.5 Z M 93.4 3.5 L 93.4 5.6 L 92.1 5.6 L 92.1 0.3 C 92.1 0.3 94.45 0.27 94.4 0.3 C 94.9 0.3 95.2 0.3 95.5 0.4 C 95.7 0.5 96 0.7 96.1 1 C 96.3 1.2 96.4 1.5 96.4 1.9 C 96.4 2.5 96.1 3 95.5 3.2 C 95.47 3.24 96.5 5.6 96.5 5.6 L 95.1 5.6 L 94.3 3.5 L 93.4 3.5 Z M 93.4 1.2 L 93.4 2.6 C 93.4 2.6 94.13 2.58 94.1 2.6 C 94.4 2.6 94.6 2.6 94.7 2.5 C 94.8 2.5 94.9 2.4 95 2.3 C 95.1 2.2 95.1 2 95.1 1.9 C 95.1 1.7 95.1 1.6 95 1.5 C 94.9 1.4 94.8 1.3 94.7 1.3 C 94.6 1.2 94.4 1.2 94.1 1.2 C 94.1 1.22 93.4 1.2 93.4 1.2 Z M 98.9 0.3 L 98.9 5.6 L 97.7 5.6 L 97.7 0.3 L 98.9 0.3 Z M 102.5 0.2 C 103.7 0.2 104.5 0.9 104.6 2.3 C 104.6 2.3 103.3 2.3 103.3 2.3 C 103.3 1.6 103 1.2 102.4 1.2 C 101.8 1.2 101.4 1.8 101.4 2.9 C 101.4 3.6 101.5 4.1 101.7 4.3 C 101.9 4.5 102.1 4.7 102.5 4.7 C 103 4.7 103.3 4.3 103.4 3.7 C 103.4 3.7 104.6 3.7 104.6 3.7 C 104.5 4.4 104.3 4.9 103.9 5.2 C 103.5 5.5 103 5.7 102.4 5.7 C 101.7 5.7 101.2 5.4 100.7 5 C 100.3 4.5 100.1 3.8 100.1 2.9 C 100.1 2.1 100.3 1.5 100.7 1 C 101.1 0.4 101.7 0.2 102.5 0.2 C 102.5 0.2 102.5 0.2 102.5 0.2 Z M 108.2 0.3 L 109.9 5.6 L 108.5 5.6 L 108.2 4.5 L 106.5 4.5 L 106.2 5.6 L 105.1 5.6 L 106.8 0.3 L 108.2 0.3 Z M 106.8 3.5 L 107.9 3.5 L 107.4 1.6 L 106.8 3.5 Z " stroke="none" fill="#000"/>
  </g>
</svg>