<?xml version="1.0" standalone="no"?>
<!DOCTYPE svg PUBLIC "-//W3C//DTD SVG 1.1//EN" "http://www.w3.org/Graphics/SVG/1.1/DTD/svg11.dtd">
<svg xmlns="http://www.w3.org/2000/svg" version="1.1" width="470.4px" height="71.6px" viewBox="0 -10 470.4 71.6" style="top:-10px">
  <desc>Pagsiyasat sa estado ng pampublikong transportasyon sa gitna ng pandemya</desc>
  <defs/>
  <g id="Polygon23456">
    <path d="M 18.9 33.6 C 19.6 32.7 20 31.4 20 29.8 C 20.01 29.81 20.8 29.8 20.8 29.8 L 20.8 34.5 L 24.5 34.5 L 24.5 35.6 L 20.8 35.6 C 20.8 35.6 20.83 42.93 20.8 42.9 C 20.8 43.6 21 44 21.3 44.4 C 21.6 44.7 22 44.9 22.4 44.9 C 23 44.9 23.5 44.6 23.8 44.1 C 24.2 43.6 24.5 42.8 24.5 41.6 C 24.5 41.6 25.3 41.6 25.3 41.6 C 25.3 43.1 25 44.2 24.3 45 C 23.7 45.7 22.8 46.1 21.8 46.1 C 20.9 46.1 20.1 45.8 19.6 45.3 C 19.1 44.8 18.8 44.1 18.8 43.3 C 18.79 43.27 18.8 35.6 18.8 35.6 L 16.8 35.6 C 16.8 35.6 16.8 34.74 16.8 34.7 C 17.7 34.6 18.4 34.2 18.9 33.6 C 18.9 33.6 18.9 33.6 18.9 33.6 Z M 26.5 34.5 L 30.7 34.3 C 30.7 34.3 30.66 38.89 30.7 38.9 C 31.1 37.4 31.6 36.2 32.2 35.4 C 32.9 34.7 33.6 34.3 34.5 34.3 C 35.2 34.3 35.7 34.5 36 34.8 C 36.4 35.2 36.6 35.7 36.6 36.3 C 36.6 36.9 36.5 37.3 36.2 37.5 C 36 37.8 35.6 38 35.3 38 C 34.9 38 34.6 37.9 34.4 37.6 C 34.2 37.4 34.1 37 34.1 36.6 C 34.1 36.3 34.1 36.1 34.2 35.9 C 34.4 35.6 34.4 35.5 34.4 35.5 C 34.4 35.4 34.4 35.3 34.2 35.3 C 33.9 35.3 33.5 35.5 33.1 35.9 C 32.5 36.4 32 37.2 31.7 38.1 C 31.2 39.6 31 40.8 31 41.7 C 31 41.7 31 44.1 31 44.1 C 31 44.4 31.1 44.6 31.3 44.8 C 31.5 44.9 31.8 45 32.3 45 C 32.27 44.99 33.7 45 33.7 45 L 33.7 45.9 L 26.6 45.9 L 26.6 45 C 26.6 45 27.75 44.99 27.8 45 C 28.1 45 28.4 44.9 28.6 44.8 C 28.8 44.6 28.9 44.4 28.9 44.2 C 28.9 44.2 28.9 36.9 28.9 36.9 C 28.9 36.4 28.8 36 28.6 35.7 C 28.3 35.5 28 35.3 27.5 35.3 C 27.55 35.34 26.5 35.3 26.5 35.3 L 26.5 34.5 Z M 48.9 45 C 49.2 45 49.6 44.9 49.9 44.6 C 49.9 44.6 50.3 45.3 50.3 45.3 C 49.8 45.9 49.1 46.2 48.4 46.2 C 47.8 46.2 47.4 46.1 47 45.8 C 46.6 45.5 46.3 45 46 44.2 C 45.2 45 44.5 45.6 43.9 45.8 C 43.4 46.1 42.7 46.2 41.8 46.2 C 40.7 46.2 39.8 46 39.2 45.5 C 38.5 45 38.2 44.3 38.2 43.6 C 38.2 42.4 38.9 41.4 40.3 40.6 C 41.7 39.8 43.6 39.3 45.9 39 C 45.9 39 45.9 37.3 45.9 37.3 C 45.9 36.7 45.7 36.1 45.2 35.7 C 44.7 35.3 44 35 43.3 35 C 42.6 35 42 35.2 41.4 35.5 C 41.1 35.7 40.9 35.9 40.9 36.1 C 40.9 36.3 41 36.4 41.2 36.7 C 41.4 37 41.5 37.3 41.5 37.6 C 41.5 37.9 41.4 38.2 41.2 38.5 C 40.9 38.7 40.6 38.8 40.3 38.8 C 39.8 38.8 39.5 38.7 39.2 38.4 C 39 38.1 38.8 37.8 38.8 37.3 C 38.8 36.5 39.3 35.8 40.2 35.1 C 41.1 34.5 42.3 34.1 43.8 34.1 C 45.1 34.1 46.2 34.4 46.9 35 C 47.6 35.6 47.9 36.3 47.9 37.2 C 47.9 37.2 47.9 43.4 47.9 43.4 C 47.9 44 48 44.4 48.2 44.6 C 48.4 44.9 48.6 45 48.9 45 C 48.9 45 48.9 45 48.9 45 Z M 45.9 39.8 C 43.8 40.1 42.4 40.6 41.5 41.2 C 40.9 41.7 40.5 42.4 40.5 43.3 C 40.5 43.9 40.7 44.4 41 44.8 C 41.4 45.1 41.8 45.3 42.4 45.3 C 43.3 45.3 44.1 44.9 44.8 44.2 C 45.6 43.5 45.9 42.6 45.9 41.5 C 45.9 41.5 45.9 39.8 45.9 39.8 Z M 51.7 34.5 C 51.7 34.5 55.52 34.24 55.5 34.2 C 55.7 35 55.8 35.8 55.9 36.8 C 56.4 35.9 57 35.3 57.7 34.9 C 58.4 34.5 59.2 34.3 60 34.3 C 60.8 34.3 61.4 34.4 61.9 34.7 C 62.5 35 62.9 35.5 63.2 36.1 C 63.5 36.8 63.6 37.5 63.6 38.3 C 63.6 38.3 63.6 43.8 63.6 43.8 C 63.6 44.3 63.7 44.6 63.9 44.7 C 64.1 44.9 64.4 45 64.9 45 C 64.86 44.99 65.7 45 65.7 45 L 65.7 45.9 L 59.6 45.9 L 59.6 45 C 59.6 45 60.21 44.99 60.2 45 C 60.7 45 61.1 44.9 61.3 44.7 C 61.5 44.6 61.7 44.3 61.7 44 C 61.7 44 61.7 39.1 61.7 39.1 C 61.7 38 61.5 37.2 61.2 36.7 C 60.7 36 60 35.6 59.1 35.6 C 58.2 35.6 57.4 36 56.8 36.7 C 56.2 37.5 55.9 38.4 55.9 39.6 C 55.9 39.6 55.9 43.8 55.9 43.8 C 55.9 44.3 56 44.6 56.2 44.7 C 56.3 44.9 56.7 45 57.1 45 C 57.1 44.99 57.9 45 57.9 45 L 57.9 45.9 L 51.8 45.9 L 51.8 45 C 51.8 45 52.63 44.99 52.6 45 C 53 45 53.3 44.9 53.5 44.7 C 53.7 44.6 53.9 44.4 53.9 44.1 C 53.9 44.1 53.9 36.8 53.9 36.8 C 53.9 36.3 53.7 35.9 53.5 35.6 C 53.2 35.4 52.8 35.3 52.3 35.3 C 52.31 35.26 51.7 35.3 51.7 35.3 L 51.7 34.5 Z M 68.4 41.6 C 68.9 43 69.5 44 70.1 44.5 C 70.8 45.1 71.6 45.3 72.5 45.3 C 73.4 45.3 74.1 45.1 74.6 44.8 C 75.1 44.4 75.3 43.9 75.3 43.3 C 75.3 42.9 75.2 42.6 75 42.4 C 74.9 42.1 74.6 41.9 74.3 41.8 C 74 41.7 73.2 41.5 71.9 41.3 C 70.7 41 69.8 40.8 69.3 40.5 C 68.8 40.2 68.4 39.8 68.2 39.4 C 67.9 38.9 67.8 38.4 67.8 37.8 C 67.8 37 68 36.2 68.6 35.6 C 69.3 34.7 70.3 34.2 71.6 34.2 C 72.6 34.2 73.6 34.6 74.4 35.2 C 74.41 35.19 75.2 34.3 75.2 34.3 L 75.7 34.3 L 76 38.4 C 76 38.4 75.21 38.41 75.2 38.4 C 74.9 37.3 74.4 36.4 73.8 35.9 C 73.1 35.4 72.4 35.2 71.5 35.2 C 70.7 35.2 70.1 35.3 69.7 35.7 C 69.2 36.1 69 36.6 69 37.1 C 69 37.6 69.2 38 69.6 38.3 C 70 38.6 70.8 38.9 72 39.1 C 73.3 39.3 74.2 39.5 74.6 39.6 C 75.3 39.9 75.8 40.3 76.2 40.8 C 76.5 41.3 76.7 41.9 76.7 42.6 C 76.7 43.6 76.3 44.5 75.5 45.2 C 74.7 45.9 73.7 46.2 72.5 46.2 C 71.4 46.2 70.3 45.9 69.3 45.1 C 69.35 45.13 68.5 46.2 68.5 46.2 L 67.8 46.2 L 67.6 41.6 C 67.6 41.6 68.38 41.6 68.4 41.6 Z M 82.2 34.3 C 82.4 35.1 82.5 35.9 82.5 36.7 C 83.1 35.8 83.7 35.2 84.3 34.8 C 84.9 34.4 85.6 34.3 86.3 34.3 C 87.1 34.3 87.8 34.5 88.5 35 C 89.3 35.5 89.8 36.2 90.3 37.1 C 90.7 38 90.9 39.1 90.9 40.2 C 90.9 42.1 90.4 43.6 89.3 44.8 C 88.4 45.8 87.3 46.2 86.1 46.2 C 85.4 46.2 84.7 46.1 84.1 45.7 C 83.6 45.3 83 44.8 82.6 44.1 C 82.6 44.1 82.6 48.7 82.6 48.7 C 82.6 49 82.7 49.3 82.9 49.4 C 83.1 49.6 83.4 49.7 83.8 49.7 C 83.77 49.74 84.6 49.7 84.6 49.7 L 84.6 50.6 L 78.5 50.6 L 78.5 49.7 C 78.5 49.7 79.34 49.74 79.3 49.7 C 79.7 49.7 80 49.7 80.2 49.5 C 80.4 49.4 80.5 49.2 80.5 48.9 C 80.5 48.9 80.5 36.9 80.5 36.9 C 80.5 36.3 80.4 35.9 80.1 35.7 C 79.8 35.4 79.3 35.3 78.5 35.3 C 78.5 35.29 78.5 34.5 78.5 34.5 C 78.5 34.5 82.2 34.26 82.2 34.3 Z M 85.7 35.4 C 84.9 35.4 84.1 35.8 83.5 36.7 C 82.9 37.5 82.6 38.7 82.6 40.4 C 82.6 42 82.9 43.2 83.5 44 C 84.1 44.8 84.8 45.2 85.7 45.2 C 86.6 45.2 87.3 44.8 87.7 44.2 C 88.3 43.3 88.6 42 88.6 40.3 C 88.6 38.5 88.3 37.3 87.8 36.5 C 87.3 35.8 86.6 35.4 85.7 35.4 Z M 98.3 34.1 C 99.9 34.1 101.2 34.7 102.2 35.8 C 103.2 36.9 103.8 38.4 103.8 40.2 C 103.8 41.4 103.5 42.5 103.1 43.4 C 102.6 44.3 101.9 45 101.1 45.5 C 100.2 46 99.3 46.2 98.3 46.2 C 96.8 46.2 95.5 45.7 94.5 44.6 C 93.5 43.4 93 42 93 40.2 C 93 38.4 93.5 36.9 94.5 35.8 C 95.5 34.7 96.8 34.1 98.3 34.1 Z M 98.3 35 C 97.4 35 96.7 35.4 96.1 36.2 C 95.5 37.1 95.2 38.4 95.2 40.1 C 95.2 42 95.5 43.3 96.1 44.1 C 96.7 45 97.4 45.4 98.3 45.4 C 99.3 45.4 100 45 100.6 44.1 C 101.2 43.3 101.5 41.9 101.5 40 C 101.5 38.2 101.2 37 100.6 36.2 C 100.1 35.4 99.3 35 98.3 35 Z M 105.2 34.5 L 109.4 34.3 C 109.4 34.3 109.36 38.89 109.4 38.9 C 109.8 37.4 110.3 36.2 110.9 35.4 C 111.6 34.7 112.3 34.3 113.2 34.3 C 113.9 34.3 114.4 34.5 114.7 34.8 C 115.1 35.2 115.3 35.7 115.3 36.3 C 115.3 36.9 115.2 37.3 114.9 37.5 C 114.7 37.8 114.3 38 114 38 C 113.6 38 113.3 37.9 113.1 37.6 C 112.9 37.4 112.8 37 112.8 36.6 C 112.8 36.3 112.8 36.1 112.9 35.9 C 113.1 35.6 113.1 35.5 113.1 35.5 C 113.1 35.4 113.1 35.3 112.9 35.3 C 112.6 35.3 112.2 35.5 111.8 35.9 C 111.2 36.4 110.7 37.2 110.4 38.1 C 109.9 39.6 109.7 40.8 109.7 41.7 C 109.7 41.7 109.7 44.1 109.7 44.1 C 109.7 44.4 109.8 44.6 110 44.8 C 110.2 44.9 110.5 45 111 45 C 110.97 44.99 112.4 45 112.4 45 L 112.4 45.9 L 105.3 45.9 L 105.3 45 C 105.3 45 106.45 44.99 106.5 45 C 106.8 45 107.1 44.9 107.3 44.8 C 107.5 44.6 107.6 44.4 107.6 44.2 C 107.6 44.2 107.6 36.9 107.6 36.9 C 107.6 36.4 107.5 36 107.3 35.7 C 107 35.5 106.7 35.3 106.2 35.3 C 106.24 35.34 105.2 35.3 105.2 35.3 L 105.2 34.5 Z M 118.4 33.6 C 119.1 32.7 119.5 31.4 119.5 29.8 C 119.54 29.81 120.4 29.8 120.4 29.8 L 120.4 34.5 L 124.1 34.5 L 124.1 35.6 L 120.4 35.6 C 120.4 35.6 120.36 42.93 120.4 42.9 C 120.4 43.6 120.5 44 120.8 44.4 C 121.1 44.7 121.5 44.9 122 44.9 C 122.5 44.9 123 44.6 123.4 44.1 C 123.8 43.6 124 42.8 124.1 41.6 C 124.1 41.6 124.9 41.6 124.9 41.6 C 124.8 43.1 124.5 44.2 123.8 45 C 123.2 45.7 122.4 46.1 121.3 46.1 C 120.4 46.1 119.7 45.8 119.1 45.3 C 118.6 44.8 118.3 44.1 118.3 43.3 C 118.32 43.27 118.3 35.6 118.3 35.6 L 116.3 35.6 C 116.3 35.6 116.33 34.74 116.3 34.7 C 117.2 34.6 117.9 34.2 118.4 33.6 C 118.4 33.6 118.4 33.6 118.4 33.6 Z M 137.3 45 C 137.7 45 138 44.9 138.3 44.6 C 138.3 44.6 138.8 45.3 138.8 45.3 C 138.2 45.9 137.5 46.2 136.8 46.2 C 136.2 46.2 135.8 46.1 135.4 45.8 C 135 45.5 134.7 45 134.4 44.2 C 133.6 45 133 45.6 132.4 45.8 C 131.8 46.1 131.1 46.2 130.3 46.2 C 129.1 46.2 128.2 46 127.6 45.5 C 127 45 126.7 44.3 126.7 43.6 C 126.7 42.4 127.4 41.4 128.8 40.6 C 130.2 39.8 132 39.3 134.3 39 C 134.3 39 134.3 37.3 134.3 37.3 C 134.3 36.7 134.1 36.1 133.6 35.7 C 133.1 35.3 132.5 35 131.7 35 C 131 35 130.4 35.2 129.9 35.5 C 129.5 35.7 129.3 35.9 129.3 36.1 C 129.3 36.3 129.4 36.4 129.6 36.7 C 129.8 37 130 37.3 130 37.6 C 130 37.9 129.8 38.2 129.6 38.5 C 129.4 38.7 129.1 38.8 128.7 38.8 C 128.3 38.8 127.9 38.7 127.7 38.4 C 127.4 38.1 127.3 37.8 127.3 37.3 C 127.3 36.5 127.7 35.8 128.6 35.1 C 129.5 34.5 130.7 34.1 132.2 34.1 C 133.5 34.1 134.6 34.4 135.3 35 C 136 35.6 136.4 36.3 136.4 37.2 C 136.4 37.2 136.4 43.4 136.4 43.4 C 136.4 44 136.5 44.4 136.6 44.6 C 136.8 44.9 137.1 45 137.3 45 C 137.3 45 137.3 45 137.3 45 Z M 134.3 39.8 C 132.3 40.1 130.8 40.6 129.9 41.2 C 129.3 41.7 129 42.4 129 43.3 C 129 43.9 129.1 44.4 129.5 44.8 C 129.8 45.1 130.2 45.3 130.8 45.3 C 131.7 45.3 132.6 44.9 133.3 44.2 C 134 43.5 134.3 42.6 134.3 41.5 C 134.3 41.5 134.3 39.8 134.3 39.8 Z M 141.5 41.6 C 142 43 142.6 44 143.3 44.5 C 143.9 45.1 144.7 45.3 145.7 45.3 C 146.6 45.3 147.3 45.1 147.7 44.8 C 148.2 44.4 148.5 43.9 148.5 43.3 C 148.5 42.9 148.4 42.6 148.2 42.4 C 148 42.1 147.8 41.9 147.5 41.8 C 147.2 41.7 146.4 41.5 145.1 41.3 C 143.8 41 143 40.8 142.5 40.5 C 142 40.2 141.6 39.8 141.3 39.4 C 141 38.9 140.9 38.4 140.9 37.8 C 140.9 37 141.2 36.2 141.8 35.6 C 142.5 34.7 143.5 34.2 144.8 34.2 C 145.8 34.2 146.7 34.6 147.6 35.2 C 147.56 35.19 148.4 34.3 148.4 34.3 L 148.9 34.3 L 149.2 38.4 C 149.2 38.4 148.37 38.41 148.4 38.4 C 148 37.3 147.5 36.4 146.9 35.9 C 146.3 35.4 145.6 35.2 144.7 35.2 C 143.9 35.2 143.3 35.3 142.8 35.7 C 142.4 36.1 142.2 36.6 142.2 37.1 C 142.2 37.6 142.4 38 142.8 38.3 C 143.2 38.6 144 38.9 145.1 39.1 C 146.5 39.3 147.4 39.5 147.8 39.6 C 148.4 39.9 149 40.3 149.3 40.8 C 149.7 41.3 149.9 41.9 149.9 42.6 C 149.9 43.6 149.5 44.5 148.7 45.2 C 147.9 45.9 146.9 46.2 145.7 46.2 C 144.5 46.2 143.5 45.9 142.5 45.1 C 142.5 45.13 141.6 46.2 141.6 46.2 L 141 46.2 L 140.7 41.6 C 140.7 41.6 141.54 41.6 141.5 41.6 Z M 151.5 34.5 L 157 34.5 L 157 35.3 C 157 35.3 156.44 35.3 156.4 35.3 C 156 35.3 155.6 35.4 155.5 35.5 C 155.3 35.6 155.2 35.8 155.2 36 C 155.2 36.1 155.2 36.2 155.3 36.3 C 155.27 36.35 158.5 43.2 158.5 43.2 C 158.5 43.2 160.82 37.52 160.8 37.5 C 161 37.1 161.1 36.7 161.1 36.3 C 161.1 36 161 35.8 160.7 35.6 C 160.5 35.5 160 35.3 159.3 35.3 C 159.31 35.3 159.3 34.5 159.3 34.5 L 164.1 34.5 C 164.1 34.5 164.07 35.3 164.1 35.3 C 163.1 35.4 162.5 35.8 162.2 36.5 C 162.2 36.5 158 46.4 158 46.4 C 157.3 48 156.5 49.2 155.8 49.8 C 155.1 50.5 154.3 50.8 153.5 50.8 C 152.9 50.8 152.4 50.6 152 50.3 C 151.6 49.9 151.4 49.5 151.4 49 C 151.4 48.7 151.5 48.4 151.8 48.1 C 152 47.9 152.3 47.8 152.6 47.8 C 152.9 47.8 153.2 47.9 153.4 48.1 C 153.6 48.3 153.7 48.5 153.7 48.8 C 153.7 48.9 153.7 49 153.7 49.2 C 153.6 49.3 153.6 49.4 153.6 49.5 C 153.6 49.7 153.8 49.8 154 49.8 C 154.3 49.8 154.6 49.7 154.9 49.5 C 155.3 49.3 155.6 49 155.9 48.5 C 156.2 48.1 156.7 47.1 157.4 45.7 C 157.4 45.7 153.1 36.3 153.1 36.3 C 152.9 36 152.7 35.8 152.5 35.6 C 152.3 35.5 151.9 35.4 151.5 35.3 C 151.47 35.3 151.5 34.5 151.5 34.5 Z M 170.6 34.1 C 172.1 34.1 173.4 34.7 174.4 35.8 C 175.5 36.9 176 38.4 176 40.2 C 176 41.4 175.8 42.5 175.3 43.4 C 174.8 44.3 174.2 45 173.3 45.5 C 172.4 46 171.5 46.2 170.5 46.2 C 169 46.2 167.8 45.7 166.7 44.6 C 165.7 43.4 165.2 42 165.2 40.2 C 165.2 38.4 165.7 36.9 166.7 35.8 C 167.8 34.7 169 34.1 170.6 34.1 Z M 170.6 35 C 169.6 35 168.9 35.4 168.3 36.2 C 167.7 37.1 167.4 38.4 167.4 40.1 C 167.4 42 167.7 43.3 168.3 44.1 C 168.9 45 169.6 45.4 170.6 45.4 C 171.5 45.4 172.3 45 172.9 44.1 C 173.5 43.3 173.7 41.9 173.7 40 C 173.7 38.2 173.5 37 172.9 36.2 C 172.3 35.4 171.5 35 170.6 35 Z M 177.7 34.5 C 177.7 34.5 181.45 34.24 181.5 34.2 C 181.6 35 181.7 35.8 181.8 36.8 C 182.3 35.9 182.9 35.3 183.6 34.9 C 184.3 34.5 185.1 34.3 186 34.3 C 186.7 34.3 187.4 34.4 187.9 34.7 C 188.4 35 188.8 35.5 189.1 36.1 C 189.4 36.8 189.6 37.5 189.6 38.3 C 189.6 38.3 189.6 43.8 189.6 43.8 C 189.6 44.3 189.7 44.6 189.9 44.7 C 190 44.9 190.4 45 190.8 45 C 190.79 44.99 191.6 45 191.6 45 L 191.6 45.9 L 185.6 45.9 L 185.6 45 C 185.6 45 186.14 44.99 186.1 45 C 186.7 45 187.1 44.9 187.3 44.7 C 187.5 44.6 187.6 44.3 187.6 44 C 187.6 44 187.6 39.1 187.6 39.1 C 187.6 38 187.4 37.2 187.1 36.7 C 186.6 36 185.9 35.6 185 35.6 C 184.1 35.6 183.3 36 182.7 36.7 C 182.1 37.5 181.8 38.4 181.8 39.6 C 181.8 39.6 181.8 43.8 181.8 43.8 C 181.8 44.3 181.9 44.6 182.1 44.7 C 182.3 44.9 182.6 45 183 45 C 183.03 44.99 183.8 45 183.8 45 L 183.8 45.9 L 177.8 45.9 L 177.8 45 C 177.8 45 178.56 44.99 178.6 45 C 179 45 179.3 44.9 179.5 44.7 C 179.7 44.6 179.8 44.4 179.8 44.1 C 179.8 44.1 179.8 36.8 179.8 36.8 C 179.8 36.3 179.6 35.9 179.4 35.6 C 179.1 35.4 178.7 35.3 178.2 35.3 C 178.24 35.26 177.7 35.3 177.7 35.3 L 177.7 34.5 Z M 201.3 41.6 C 201.8 43 202.3 44 203 44.5 C 203.6 45.1 204.5 45.3 205.4 45.3 C 206.3 45.3 207 45.1 207.5 44.8 C 207.9 44.4 208.2 43.9 208.2 43.3 C 208.2 42.9 208.1 42.6 207.9 42.4 C 207.7 42.1 207.5 41.9 207.2 41.8 C 206.9 41.7 206.1 41.5 204.8 41.3 C 203.5 41 202.7 40.8 202.2 40.5 C 201.7 40.2 201.3 39.8 201 39.4 C 200.8 38.9 200.6 38.4 200.6 37.8 C 200.6 37 200.9 36.2 201.5 35.6 C 202.2 34.7 203.2 34.2 204.5 34.2 C 205.5 34.2 206.4 34.6 207.3 35.2 C 207.28 35.19 208.1 34.3 208.1 34.3 L 208.6 34.3 L 208.9 38.4 C 208.9 38.4 208.09 38.41 208.1 38.4 C 207.7 37.3 207.2 36.4 206.6 35.9 C 206 35.4 205.3 35.2 204.4 35.2 C 203.6 35.2 203 35.3 202.5 35.7 C 202.1 36.1 201.9 36.6 201.9 37.1 C 201.9 37.6 202.1 38 202.5 38.3 C 202.9 38.6 203.7 38.9 204.8 39.1 C 206.2 39.3 207.1 39.5 207.5 39.6 C 208.2 39.9 208.7 40.3 209 40.8 C 209.4 41.3 209.6 41.9 209.6 42.6 C 209.6 43.6 209.2 44.5 208.4 45.2 C 207.6 45.9 206.6 46.2 205.4 46.2 C 204.2 46.2 203.2 45.9 202.2 45.1 C 202.22 45.13 201.3 46.2 201.3 46.2 L 200.7 46.2 L 200.4 41.6 C 200.4 41.6 201.25 41.6 201.3 41.6 Z M 222.5 45 C 222.8 45 223.2 44.9 223.5 44.6 C 223.5 44.6 224 45.3 224 45.3 C 223.4 45.9 222.7 46.2 222 46.2 C 221.4 46.2 221 46.1 220.6 45.8 C 220.2 45.5 219.9 45 219.6 44.2 C 218.8 45 218.1 45.6 217.6 45.8 C 217 46.1 216.3 46.2 215.4 46.2 C 214.3 46.2 213.4 46 212.8 45.5 C 212.2 45 211.9 44.3 211.9 43.6 C 211.9 42.4 212.6 41.4 214 40.6 C 215.3 39.8 217.2 39.3 219.5 39 C 219.5 39 219.5 37.3 219.5 37.3 C 219.5 36.7 219.3 36.1 218.8 35.7 C 218.3 35.3 217.7 35 216.9 35 C 216.2 35 215.6 35.2 215.1 35.5 C 214.7 35.7 214.5 35.9 214.5 36.1 C 214.5 36.3 214.6 36.4 214.8 36.7 C 215 37 215.2 37.3 215.2 37.6 C 215.2 37.9 215 38.2 214.8 38.5 C 214.6 38.7 214.3 38.8 213.9 38.8 C 213.5 38.8 213.1 38.7 212.9 38.4 C 212.6 38.1 212.4 37.8 212.4 37.3 C 212.4 36.5 212.9 35.8 213.8 35.1 C 214.7 34.5 215.9 34.1 217.4 34.1 C 218.7 34.1 219.8 34.4 220.5 35 C 221.2 35.6 221.6 36.3 221.6 37.2 C 221.6 37.2 221.6 43.4 221.6 43.4 C 221.6 44 221.7 44.4 221.8 44.6 C 222 44.9 222.2 45 222.5 45 C 222.5 45 222.5 45 222.5 45 Z M 219.5 39.8 C 217.5 40.1 216 40.6 215.1 41.2 C 214.5 41.7 214.2 42.4 214.2 43.3 C 214.2 43.9 214.3 44.4 214.7 44.8 C 215 45.1 215.4 45.3 216 45.3 C 216.9 45.3 217.8 44.9 218.5 44.2 C 219.2 43.5 219.5 42.6 219.5 41.5 C 219.5 41.5 219.5 39.8 219.5 39.8 Z M 241.1 35.1 C 241.9 34.3 242.6 33.9 243.3 33.9 C 243.7 33.9 244.1 34 244.3 34.3 C 244.6 34.5 244.7 34.9 244.7 35.2 C 244.7 35.5 244.6 35.8 244.4 36 C 244.3 36.2 244.1 36.3 243.8 36.3 C 243.3 36.3 243 36 242.9 35.4 C 242.8 35.2 242.7 35.1 242.5 35.1 C 242.3 35.1 242 35.2 241.6 35.6 C 242 36.1 242.2 36.5 242.4 36.9 C 242.5 37.2 242.5 37.6 242.5 38 C 242.5 38.7 242.4 39.3 242 39.9 C 241.7 40.4 241.1 40.9 240.3 41.3 C 239.5 41.7 238.8 41.9 238.1 41.9 C 238.1 41.9 236.7 41.9 236.7 41.9 C 235.8 41.9 235.2 42 234.8 42.2 C 234.5 42.4 234.4 42.7 234.4 43.1 C 234.4 43.4 234.5 43.7 234.8 43.8 C 235 44 235.5 44.1 236.2 44.1 C 236.2 44.1 239.2 44 239.2 44 C 240.7 44 241.8 44.3 242.5 44.8 C 243.2 45.3 243.5 46 243.5 46.9 C 243.5 47.9 243.1 48.7 242.4 49.4 C 241.3 50.3 239.7 50.8 237.6 50.8 C 235.8 50.8 234.5 50.5 233.7 49.8 C 233 49.3 232.7 48.7 232.7 48.1 C 232.7 47.6 232.9 47.2 233.3 46.8 C 233.8 46.4 234.5 46.1 235.5 45.9 C 234.7 45.7 234.1 45.4 233.7 45 C 233.3 44.7 233.1 44.2 233.1 43.6 C 233.1 43.1 233.2 42.7 233.5 42.3 C 233.9 41.9 234.4 41.6 235.3 41.3 C 234.6 40.9 234 40.4 233.7 39.9 C 233.3 39.4 233.2 38.7 233.2 38 C 233.2 36.9 233.6 36 234.5 35.3 C 235.4 34.5 236.5 34.1 237.9 34.1 C 238.4 34.1 239 34.2 239.5 34.4 C 240.1 34.5 240.6 34.8 241.1 35.1 Z M 237.8 34.9 C 237.1 34.9 236.5 35.2 236.1 35.7 C 235.6 36.2 235.3 37 235.3 37.9 C 235.3 39 235.6 39.8 236.1 40.3 C 236.5 40.9 237.1 41.2 237.9 41.2 C 238.6 41.2 239.2 40.9 239.7 40.4 C 240.1 39.8 240.4 39 240.4 38 C 240.4 37 240.1 36.3 239.6 35.7 C 239.2 35.2 238.6 34.9 237.8 34.9 Z M 238.6 45.9 C 237.1 45.9 236 46.1 235.4 46.5 C 234.7 47 234.4 47.5 234.4 48 C 234.4 48.6 234.6 49 235.1 49.3 C 235.8 49.8 236.7 50 237.8 50 C 239.2 50 240.3 49.8 241 49.3 C 241.7 48.8 242.1 48.3 242.1 47.7 C 242.1 47.4 242 47.1 241.7 46.8 C 241.5 46.5 241.2 46.3 240.7 46.1 C 240.2 46 239.5 45.9 238.6 45.9 Z M 248.7 27.6 C 249 27.6 249.4 27.8 249.6 28.1 C 249.9 28.3 250.1 28.7 250.1 29 C 250.1 29.4 249.9 29.7 249.7 30 C 249.4 30.3 249.1 30.4 248.7 30.4 C 248.3 30.4 248 30.3 247.7 30 C 247.4 29.7 247.3 29.4 247.3 29 C 247.3 28.7 247.4 28.3 247.7 28.1 C 248 27.8 248.3 27.6 248.7 27.6 Z M 245.5 34.5 L 250.1 34.3 C 250.1 34.3 250.06 44.17 250.1 44.2 C 250.1 44.4 250.1 44.6 250.3 44.7 C 250.4 44.9 250.7 45 251 45 C 250.96 44.99 252.3 45 252.3 45 L 252.3 45.9 L 245.7 45.9 L 245.7 45 C 245.7 45 246.96 44.99 247 45 C 247.3 45 247.6 44.9 247.7 44.7 C 247.9 44.6 248 44.3 248 44 C 248 44 248 36.8 248 36.8 C 248 36.3 247.9 36 247.6 35.7 C 247.3 35.5 247 35.4 246.4 35.4 C 246.44 35.38 245.5 35.4 245.5 35.4 L 245.5 34.5 Z M 255.5 33.6 C 256.2 32.7 256.6 31.4 256.6 29.8 C 256.61 29.81 257.4 29.8 257.4 29.8 L 257.4 34.5 L 261.1 34.5 L 261.1 35.6 L 257.4 35.6 C 257.4 35.6 257.43 42.93 257.4 42.9 C 257.4 43.6 257.6 44 257.9 44.4 C 258.2 44.7 258.6 44.9 259 44.9 C 259.6 44.9 260.1 44.6 260.4 44.1 C 260.8 43.6 261.1 42.8 261.1 41.6 C 261.1 41.6 261.9 41.6 261.9 41.6 C 261.9 43.1 261.6 44.2 260.9 45 C 260.3 45.7 259.4 46.1 258.4 46.1 C 257.5 46.1 256.7 45.8 256.2 45.3 C 255.7 44.8 255.4 44.1 255.4 43.3 C 255.39 43.27 255.4 35.6 255.4 35.6 L 253.4 35.6 C 253.4 35.6 253.4 34.74 253.4 34.7 C 254.3 34.6 255 34.2 255.5 33.6 C 255.5 33.6 255.5 33.6 255.5 33.6 Z M 263.3 34.5 C 263.3 34.5 267.12 34.24 267.1 34.2 C 267.3 35 267.4 35.8 267.5 36.8 C 268 35.9 268.6 35.3 269.3 34.9 C 270 34.5 270.8 34.3 271.6 34.3 C 272.4 34.3 273 34.4 273.5 34.7 C 274.1 35 274.5 35.5 274.8 36.1 C 275.1 36.8 275.2 37.5 275.2 38.3 C 275.2 38.3 275.2 43.8 275.2 43.8 C 275.2 44.3 275.3 44.6 275.5 44.7 C 275.7 44.9 276 45 276.5 45 C 276.46 44.99 277.3 45 277.3 45 L 277.3 45.9 L 271.2 45.9 L 271.2 45 C 271.2 45 271.81 44.99 271.8 45 C 272.3 45 272.7 44.9 272.9 44.7 C 273.1 44.6 273.2 44.3 273.2 44 C 273.2 44 273.2 39.1 273.2 39.1 C 273.2 38 273.1 37.2 272.8 36.7 C 272.3 36 271.6 35.6 270.7 35.6 C 269.8 35.6 269 36 268.4 36.7 C 267.8 37.5 267.5 38.4 267.5 39.6 C 267.5 39.6 267.5 43.8 267.5 43.8 C 267.5 44.3 267.6 44.6 267.8 44.7 C 267.9 44.9 268.3 45 268.7 45 C 268.7 44.99 269.5 45 269.5 45 L 269.5 45.9 L 263.4 45.9 L 263.4 45 C 263.4 45 264.23 44.99 264.2 45 C 264.6 45 264.9 44.9 265.1 44.7 C 265.3 44.6 265.4 44.4 265.4 44.1 C 265.4 44.1 265.4 36.8 265.4 36.8 C 265.4 36.3 265.3 35.9 265.1 35.6 C 264.8 35.4 264.4 35.3 263.9 35.3 C 263.91 35.26 263.3 35.3 263.3 35.3 L 263.3 34.5 Z M 289.7 45 C 290 45 290.3 44.9 290.7 44.6 C 290.7 44.6 291.1 45.3 291.1 45.3 C 290.5 45.9 289.9 46.2 289.1 46.2 C 288.6 46.2 288.1 46.1 287.7 45.8 C 287.4 45.5 287 45 286.8 44.2 C 286 45 285.3 45.6 284.7 45.8 C 284.1 46.1 283.4 46.2 282.6 46.2 C 281.4 46.2 280.5 46 279.9 45.5 C 279.3 45 279 44.3 279 43.6 C 279 42.4 279.7 41.4 281.1 40.6 C 282.5 39.8 284.4 39.3 286.7 39 C 286.7 39 286.7 37.3 286.7 37.3 C 286.7 36.7 286.4 36.1 285.9 35.7 C 285.4 35.3 284.8 35 284 35 C 283.3 35 282.7 35.2 282.2 35.5 C 281.8 35.7 281.7 35.9 281.7 36.1 C 281.7 36.3 281.8 36.4 282 36.7 C 282.2 37 282.3 37.3 282.3 37.6 C 282.3 37.9 282.2 38.2 282 38.5 C 281.7 38.7 281.4 38.8 281 38.8 C 280.6 38.8 280.3 38.7 280 38.4 C 279.7 38.1 279.6 37.8 279.6 37.3 C 279.6 36.5 280.1 35.8 281 35.1 C 281.9 34.5 283.1 34.1 284.5 34.1 C 285.9 34.1 286.9 34.4 287.6 35 C 288.4 35.6 288.7 36.3 288.7 37.2 C 288.7 37.2 288.7 43.4 288.7 43.4 C 288.7 44 288.8 44.4 289 44.6 C 289.2 44.9 289.4 45 289.7 45 C 289.7 45 289.7 45 289.7 45 Z M 286.7 39.8 C 284.6 40.1 283.1 40.6 282.3 41.2 C 281.6 41.7 281.3 42.4 281.3 43.3 C 281.3 43.9 281.5 44.4 281.8 44.8 C 282.2 45.1 282.6 45.3 283.1 45.3 C 284.1 45.3 284.9 44.9 285.6 44.2 C 286.3 43.5 286.7 42.6 286.7 41.5 C 286.7 41.5 286.7 39.8 286.7 39.8 Z M 299.4 34.5 C 299.4 34.5 303.24 34.24 303.2 34.2 C 303.4 35 303.5 35.8 303.6 36.8 C 304.1 35.9 304.7 35.3 305.4 34.9 C 306.1 34.5 306.9 34.3 307.8 34.3 C 308.5 34.3 309.2 34.4 309.7 34.7 C 310.2 35 310.6 35.5 310.9 36.1 C 311.2 36.8 311.4 37.5 311.4 38.3 C 311.4 38.3 311.4 43.8 311.4 43.8 C 311.4 44.3 311.5 44.6 311.6 44.7 C 311.8 44.9 312.1 45 312.6 45 C 312.58 44.99 313.4 45 313.4 45 L 313.4 45.9 L 307.4 45.9 L 307.4 45 C 307.4 45 307.93 44.99 307.9 45 C 308.5 45 308.8 44.9 309.1 44.7 C 309.3 44.6 309.4 44.3 309.4 44 C 309.4 44 309.4 39.1 309.4 39.1 C 309.4 38 309.2 37.2 308.9 36.7 C 308.4 36 307.7 35.6 306.8 35.6 C 305.9 35.6 305.1 36 304.5 36.7 C 303.9 37.5 303.6 38.4 303.6 39.6 C 303.6 39.6 303.6 43.8 303.6 43.8 C 303.6 44.3 303.7 44.6 303.9 44.7 C 304.1 44.9 304.4 45 304.8 45 C 304.82 44.99 305.6 45 305.6 45 L 305.6 45.9 L 299.6 45.9 L 299.6 45 C 299.6 45 300.35 44.99 300.3 45 C 300.7 45 301.1 44.9 301.3 44.7 C 301.5 44.6 301.6 44.4 301.6 44.1 C 301.6 44.1 301.6 36.8 301.6 36.8 C 301.6 36.3 301.4 35.9 301.2 35.6 C 300.9 35.4 300.5 35.3 300 35.3 C 300.03 35.26 299.4 35.3 299.4 35.3 L 299.4 34.5 Z M 323.5 35.1 C 324.3 34.3 325 33.9 325.7 33.9 C 326.1 33.9 326.5 34 326.7 34.3 C 327 34.5 327.1 34.9 327.1 35.2 C 327.1 35.5 327.1 35.8 326.9 36 C 326.7 36.2 326.5 36.3 326.2 36.3 C 325.8 36.3 325.5 36 325.3 35.4 C 325.2 35.2 325.1 35.1 325 35.1 C 324.7 35.1 324.4 35.2 324.1 35.6 C 324.4 36.1 324.6 36.5 324.8 36.9 C 324.9 37.2 325 37.6 325 38 C 325 38.7 324.8 39.3 324.5 39.9 C 324.1 40.4 323.5 40.9 322.8 41.3 C 322 41.7 321.2 41.9 320.5 41.9 C 320.5 41.9 319.1 41.9 319.1 41.9 C 318.2 41.9 317.6 42 317.3 42.2 C 317 42.4 316.8 42.7 316.8 43.1 C 316.8 43.4 316.9 43.7 317.2 43.8 C 317.4 44 317.9 44.1 318.6 44.1 C 318.6 44.1 321.6 44 321.6 44 C 323.1 44 324.2 44.3 324.9 44.8 C 325.6 45.3 325.9 46 325.9 46.9 C 325.9 47.9 325.5 48.7 324.8 49.4 C 323.7 50.3 322.1 50.8 320 50.8 C 318.3 50.8 317 50.5 316.1 49.8 C 315.4 49.3 315.1 48.7 315.1 48.1 C 315.1 47.6 315.3 47.2 315.7 46.8 C 316.2 46.4 316.9 46.1 317.9 45.9 C 317.1 45.7 316.5 45.4 316.1 45 C 315.7 44.7 315.5 44.2 315.5 43.6 C 315.5 43.1 315.6 42.7 316 42.3 C 316.3 41.9 316.9 41.6 317.7 41.3 C 317 40.9 316.5 40.4 316.1 39.9 C 315.8 39.4 315.6 38.7 315.6 38 C 315.6 36.9 316 36 316.9 35.3 C 317.8 34.5 318.9 34.1 320.3 34.1 C 320.9 34.1 321.4 34.2 321.9 34.4 C 322.5 34.5 323 34.8 323.5 35.1 Z M 320.3 34.9 C 319.5 34.9 318.9 35.2 318.5 35.7 C 318 36.2 317.8 37 317.8 37.9 C 317.8 39 318 39.8 318.5 40.3 C 318.9 40.9 319.6 41.2 320.3 41.2 C 321 41.2 321.6 40.9 322.1 40.4 C 322.6 39.8 322.8 39 322.8 38 C 322.8 37 322.5 36.3 322.1 35.7 C 321.6 35.2 321 34.9 320.3 34.9 Z M 321 45.9 C 319.5 45.9 318.4 46.1 317.8 46.5 C 317.1 47 316.8 47.5 316.8 48 C 316.8 48.6 317.1 49 317.5 49.3 C 318.2 49.8 319.1 50 320.3 50 C 321.7 50 322.7 49.8 323.4 49.3 C 324.1 48.8 324.5 48.3 324.5 47.7 C 324.5 47.4 324.4 47.1 324.2 46.8 C 323.9 46.5 323.6 46.3 323.1 46.1 C 322.6 46 321.9 45.9 321 45.9 Z M 338.7 34.3 C 338.9 35.1 339 35.9 339 36.7 C 339.6 35.8 340.2 35.2 340.8 34.8 C 341.4 34.4 342.1 34.3 342.8 34.3 C 343.6 34.3 344.3 34.5 345.1 35 C 345.8 35.5 346.3 36.2 346.8 37.1 C 347.2 38 347.5 39.1 347.5 40.2 C 347.5 42.1 346.9 43.6 345.8 44.8 C 344.9 45.8 343.8 46.2 342.6 46.2 C 341.9 46.2 341.2 46.1 340.7 45.7 C 340.1 45.3 339.6 44.8 339.1 44.1 C 339.1 44.1 339.1 48.7 339.1 48.7 C 339.1 49 339.2 49.3 339.4 49.4 C 339.6 49.6 339.9 49.7 340.3 49.7 C 340.29 49.74 341.1 49.7 341.1 49.7 L 341.1 50.6 L 335 50.6 L 335 49.7 C 335 49.7 335.86 49.74 335.9 49.7 C 336.2 49.7 336.5 49.7 336.7 49.5 C 336.9 49.4 337 49.2 337 48.9 C 337 48.9 337 36.9 337 36.9 C 337 36.3 336.9 35.9 336.6 35.7 C 336.4 35.4 335.8 35.3 335 35.3 C 335.02 35.29 335 34.5 335 34.5 C 335 34.5 338.71 34.26 338.7 34.3 Z M 342.3 35.4 C 341.4 35.4 340.6 35.8 340 36.7 C 339.4 37.5 339.1 38.7 339.1 40.4 C 339.1 42 339.4 43.2 340 44 C 340.6 44.8 341.3 45.2 342.2 45.2 C 343.1 45.2 343.8 44.8 344.2 44.2 C 344.8 43.3 345.1 42 345.1 40.3 C 345.1 38.5 344.9 37.3 344.3 36.5 C 343.8 35.8 343.1 35.4 342.3 35.4 Z M 360.5 45 C 360.8 45 361.2 44.9 361.5 44.6 C 361.5 44.6 362 45.3 362 45.3 C 361.4 45.9 360.7 46.2 360 46.2 C 359.4 46.2 359 46.1 358.6 45.8 C 358.2 45.5 357.9 45 357.6 44.2 C 356.8 45 356.1 45.6 355.6 45.8 C 355 46.1 354.3 46.2 353.4 46.2 C 352.3 46.2 351.4 46 350.8 45.5 C 350.2 45 349.9 44.3 349.9 43.6 C 349.9 42.4 350.6 41.4 352 40.6 C 353.3 39.8 355.2 39.3 357.5 39 C 357.5 39 357.5 37.3 357.5 37.3 C 357.5 36.7 357.3 36.1 356.8 35.7 C 356.3 35.3 355.7 35 354.9 35 C 354.2 35 353.6 35.2 353.1 35.5 C 352.7 35.7 352.5 35.9 352.5 36.1 C 352.5 36.3 352.6 36.4 352.8 36.7 C 353 37 353.2 37.3 353.2 37.6 C 353.2 37.9 353 38.2 352.8 38.5 C 352.6 38.7 352.3 38.8 351.9 38.8 C 351.5 38.8 351.1 38.7 350.9 38.4 C 350.6 38.1 350.4 37.8 350.4 37.3 C 350.4 36.5 350.9 35.8 351.8 35.1 C 352.7 34.5 353.9 34.1 355.4 34.1 C 356.7 34.1 357.8 34.4 358.5 35 C 359.2 35.6 359.6 36.3 359.6 37.2 C 359.6 37.2 359.6 43.4 359.6 43.4 C 359.6 44 359.7 44.4 359.8 44.6 C 360 44.9 360.2 45 360.5 45 C 360.5 45 360.5 45 360.5 45 Z M 357.5 39.8 C 355.5 40.1 354 40.6 353.1 41.2 C 352.5 41.7 352.2 42.4 352.2 43.3 C 352.2 43.9 352.3 44.4 352.7 44.8 C 353 45.1 353.4 45.3 354 45.3 C 354.9 45.3 355.8 44.9 356.5 44.2 C 357.2 43.5 357.5 42.6 357.5 41.5 C 357.5 41.5 357.5 39.8 357.5 39.8 Z M 363.3 34.5 C 363.3 34.5 367.15 34.24 367.1 34.2 C 367.3 35 367.4 35.8 367.5 36.8 C 368 35.9 368.6 35.3 369.3 34.9 C 370 34.5 370.8 34.3 371.7 34.3 C 372.4 34.3 373.1 34.4 373.6 34.7 C 374.1 35 374.5 35.5 374.8 36.1 C 375.1 36.8 375.3 37.5 375.3 38.3 C 375.3 38.3 375.3 43.8 375.3 43.8 C 375.3 44.3 375.4 44.6 375.5 44.7 C 375.7 44.9 376 45 376.5 45 C 376.48 44.99 377.3 45 377.3 45 L 377.3 45.9 L 371.3 45.9 L 371.3 45 C 371.3 45 371.83 44.99 371.8 45 C 372.4 45 372.7 44.9 373 44.7 C 373.2 44.6 373.3 44.3 373.3 44 C 373.3 44 373.3 39.1 373.3 39.1 C 373.3 38 373.1 37.2 372.8 36.7 C 372.3 36 371.6 35.6 370.7 35.6 C 369.8 35.6 369 36 368.4 36.7 C 367.8 37.5 367.5 38.4 367.5 39.6 C 367.5 39.6 367.5 43.8 367.5 43.8 C 367.5 44.3 367.6 44.6 367.8 44.7 C 368 44.9 368.3 45 368.7 45 C 368.72 44.99 369.5 45 369.5 45 L 369.5 45.9 L 363.5 45.9 L 363.5 45 C 363.5 45 364.25 44.99 364.3 45 C 364.7 45 365 44.9 365.2 44.7 C 365.4 44.6 365.5 44.4 365.5 44.1 C 365.5 44.1 365.5 36.8 365.5 36.8 C 365.5 36.3 365.3 35.9 365.1 35.6 C 364.8 35.4 364.4 35.3 363.9 35.3 C 363.94 35.26 363.3 35.3 363.3 35.3 L 363.3 34.5 Z M 385.1 27.9 L 389.6 27.6 C 389.6 27.6 389.57 43.3 389.6 43.3 C 389.6 43.9 389.7 44.3 389.9 44.6 C 390.1 44.9 390.5 45 391 45 C 390.96 44.99 391.8 45 391.8 45 L 391.8 45.9 L 387.8 45.9 C 387.8 45.9 387.56 43.58 387.6 43.6 C 387.1 44.4 386.5 45 385.9 45.4 C 385.3 45.9 384.6 46.1 383.8 46.1 C 382.5 46.1 381.4 45.5 380.5 44.4 C 379.6 43.4 379.1 41.9 379.1 40.1 C 379.1 38.2 379.7 36.6 380.9 35.5 C 381.8 34.6 382.9 34.1 384.1 34.1 C 384.8 34.1 385.5 34.3 386 34.7 C 386.6 35 387.1 35.6 387.6 36.3 C 387.6 36.3 387.6 29.9 387.6 29.9 C 387.6 29.5 387.4 29.3 387.2 29.1 C 386.9 28.9 386.5 28.8 385.9 28.8 C 385.92 28.77 385.1 28.8 385.1 28.8 L 385.1 27.9 Z M 386.6 36.3 C 386 35.5 385.3 35.1 384.4 35.1 C 383.5 35.1 382.8 35.5 382.3 36.2 C 381.8 37 381.5 38.2 381.5 39.9 C 381.5 41.8 381.8 43.1 382.3 43.8 C 382.8 44.6 383.5 45 384.4 45 C 385.2 45 386 44.5 386.6 43.7 C 387.3 42.8 387.6 41.6 387.6 40 C 387.6 38.4 387.2 37.2 386.6 36.3 C 386.6 36.3 386.6 36.3 386.6 36.3 Z M 403.3 37.4 C 403.5 38.2 403.7 39.1 403.7 40.3 C 403.7 40.3 395.5 40.3 395.5 40.3 C 395.6 42 395.9 43.2 396.5 44 C 397.2 44.8 398.1 45.2 399.2 45.2 C 400.8 45.2 402 44.3 403 42.4 C 403 42.4 403.8 42.8 403.8 42.8 C 402.6 45.1 400.9 46.2 398.7 46.2 C 397.1 46.2 395.8 45.7 394.8 44.6 C 393.7 43.5 393.2 42.1 393.2 40.3 C 393.2 38.5 393.7 37 394.8 35.8 C 395.8 34.7 397.1 34.1 398.6 34.1 C 399.7 34.1 400.6 34.4 401.4 35 C 402.2 35.6 402.8 36.4 403.3 37.4 C 403.3 37.4 403.3 37.4 403.3 37.4 Z M 395.5 39.4 C 395.5 39.4 400.5 39.4 400.5 39.4 C 400.8 39.4 401 39.3 401.2 39.1 C 401.3 38.9 401.4 38.6 401.4 38.1 C 401.4 37.2 401.1 36.4 400.6 35.8 C 400 35.2 399.3 34.9 398.6 34.9 C 397.7 34.9 397 35.2 396.4 36 C 395.8 36.8 395.5 37.9 395.5 39.4 Z M 406.2 34.5 C 406.2 34.5 409.46 34.26 409.5 34.3 C 409.6 35.1 409.8 35.9 409.8 36.7 C 410.4 35.8 411 35.2 411.7 34.8 C 412.3 34.4 413 34.3 413.7 34.3 C 414.5 34.3 415.2 34.5 415.7 34.9 C 416.2 35.3 416.6 36 416.9 36.9 C 417.4 36 418 35.4 418.7 34.9 C 419.3 34.5 420.1 34.3 420.8 34.3 C 421.9 34.3 422.7 34.6 423.2 35.2 C 423.9 36 424.2 37.1 424.2 38.3 C 424.2 38.3 424.2 44 424.2 44 C 424.2 44.4 424.3 44.6 424.4 44.7 C 424.7 44.9 425 45 425.5 45 C 425.46 44.99 426 45 426 45 L 426 45.9 L 420.3 45.9 L 420.3 45 C 420.3 45 420.86 44.99 420.9 45 C 421.3 45 421.7 44.9 421.9 44.7 C 422.1 44.6 422.2 44.3 422.2 44 C 422.2 44 422.2 38.3 422.2 38.3 C 422.2 37.5 422 36.8 421.6 36.4 C 421.1 35.9 420.6 35.7 419.9 35.7 C 419.4 35.7 418.9 35.8 418.5 36.1 C 418.1 36.3 417.8 36.7 417.6 37.2 C 417.2 38 417 38.6 417 39.1 C 417 39.1 417 44 417 44 C 417 44.3 417.1 44.6 417.3 44.8 C 417.5 44.9 417.8 45 418.1 45 C 418.13 44.99 418.9 45 418.9 45 L 418.9 45.9 L 413.1 45.9 L 413.1 45 C 413.1 45 413.74 44.99 413.7 45 C 414.2 45 414.5 44.9 414.7 44.7 C 414.9 44.6 415 44.4 415 44.1 C 415 44.1 415 38.9 415 38.9 C 415 37.7 414.8 36.9 414.4 36.4 C 414 35.9 413.5 35.7 412.8 35.7 C 411.9 35.7 411.3 36 410.8 36.5 C 410.1 37.4 409.8 38.3 409.8 39.4 C 409.8 39.4 409.8 44 409.8 44 C 409.8 44.4 409.9 44.6 410 44.7 C 410.3 44.9 410.6 45 411.1 45 C 411.07 44.99 411.7 45 411.7 45 L 411.7 45.9 L 405.9 45.9 L 405.9 45 C 405.9 45 406.76 44.99 406.8 45 C 407.1 45 407.3 44.9 407.5 44.7 C 407.7 44.6 407.8 44.4 407.8 44.1 C 407.8 44.1 407.8 36.6 407.8 36.6 C 407.8 36.2 407.7 35.9 407.5 35.7 C 407.2 35.5 406.8 35.4 406.2 35.3 C 406.18 35.31 406.2 34.5 406.2 34.5 Z M 427.4 34.5 L 432.9 34.5 L 432.9 35.3 C 432.9 35.3 432.42 35.3 432.4 35.3 C 431.9 35.3 431.6 35.4 431.4 35.5 C 431.3 35.6 431.2 35.8 431.2 36 C 431.2 36.1 431.2 36.2 431.2 36.3 C 431.24 36.35 434.4 43.2 434.4 43.2 C 434.4 43.2 436.8 37.52 436.8 37.5 C 437 37.1 437.1 36.7 437.1 36.3 C 437.1 36 436.9 35.8 436.7 35.6 C 436.5 35.5 436 35.3 435.3 35.3 C 435.29 35.3 435.3 34.5 435.3 34.5 L 440 34.5 C 440 34.5 440.05 35.3 440 35.3 C 439.1 35.4 438.5 35.8 438.2 36.5 C 438.2 36.5 434 46.4 434 46.4 C 433.2 48 432.5 49.2 431.8 49.8 C 431.1 50.5 430.3 50.8 429.4 50.8 C 428.8 50.8 428.3 50.6 428 50.3 C 427.6 49.9 427.4 49.5 427.4 49 C 427.4 48.7 427.5 48.4 427.8 48.1 C 428 47.9 428.3 47.8 428.6 47.8 C 428.9 47.8 429.2 47.9 429.4 48.1 C 429.6 48.3 429.7 48.5 429.7 48.8 C 429.7 48.9 429.7 49 429.7 49.2 C 429.6 49.3 429.6 49.4 429.6 49.5 C 429.6 49.7 429.7 49.8 430 49.8 C 430.3 49.8 430.6 49.7 430.9 49.5 C 431.2 49.3 431.6 49 431.8 48.5 C 432.1 48.1 432.6 47.1 433.4 45.7 C 433.4 45.7 429 36.3 429 36.3 C 428.9 36 428.7 35.8 428.5 35.6 C 428.2 35.5 427.9 35.4 427.4 35.3 C 427.45 35.3 427.4 34.5 427.4 34.5 Z M 452.2 45 C 452.5 45 452.9 44.9 453.2 44.6 C 453.2 44.6 453.7 45.3 453.7 45.3 C 453.1 45.9 452.4 46.2 451.7 46.2 C 451.1 46.2 450.7 46.1 450.3 45.8 C 449.9 45.5 449.6 45 449.3 44.2 C 448.5 45 447.8 45.6 447.2 45.8 C 446.7 46.1 446 46.2 445.1 46.2 C 444 46.2 443.1 46 442.5 45.5 C 441.9 45 441.5 44.3 441.5 43.6 C 441.5 42.4 442.2 41.4 443.6 40.6 C 445 39.8 446.9 39.3 449.2 39 C 449.2 39 449.2 37.3 449.2 37.3 C 449.2 36.7 449 36.1 448.5 35.7 C 448 35.3 447.3 35 446.6 35 C 445.9 35 445.3 35.2 444.7 35.5 C 444.4 35.7 444.2 35.9 444.2 36.1 C 444.2 36.3 444.3 36.4 444.5 36.7 C 444.7 37 444.8 37.3 444.8 37.6 C 444.8 37.9 444.7 38.2 444.5 38.5 C 444.3 38.7 443.9 38.8 443.6 38.8 C 443.2 38.8 442.8 38.7 442.5 38.4 C 442.3 38.1 442.1 37.8 442.1 37.3 C 442.1 36.5 442.6 35.8 443.5 35.1 C 444.4 34.5 445.6 34.1 447.1 34.1 C 448.4 34.1 449.5 34.4 450.2 35 C 450.9 35.6 451.3 36.3 451.3 37.2 C 451.3 37.2 451.3 43.4 451.3 43.4 C 451.3 44 451.3 44.4 451.5 44.6 C 451.7 44.9 451.9 45 452.2 45 C 452.2 45 452.2 45 452.2 45 Z M 449.2 39.8 C 447.1 40.1 445.7 40.6 444.8 41.2 C 444.2 41.7 443.9 42.4 443.9 43.3 C 443.9 43.9 444 44.4 444.4 44.8 C 444.7 45.1 445.1 45.3 445.7 45.3 C 446.6 45.3 447.5 44.9 448.2 44.2 C 448.9 43.5 449.2 42.6 449.2 41.5 C 449.2 41.5 449.2 39.8 449.2 39.8 Z " stroke="none" fill="#000"/>
  </g>
  <g id="Polygon23455">
    <path d="M 12 2.7 C 12 2.7 20.93 2.65 20.9 2.7 C 22.9 2.7 24.5 3.1 25.5 4 C 26.6 4.9 27.1 6.1 27.1 7.6 C 27.1 9.1 26.6 10.2 25.7 11 C 24.3 12 22.7 12.6 20.7 12.6 C 20.69 12.57 17.5 12.6 17.5 12.6 C 17.5 12.6 17.48 18.73 17.5 18.7 C 17.5 19.1 17.6 19.3 17.7 19.5 C 18 19.7 18.3 19.8 18.6 19.8 C 18.65 19.79 20.7 19.8 20.7 19.8 L 20.7 20.7 L 12 20.7 L 12 19.8 C 12 19.8 13.83 19.79 13.8 19.8 C 14.2 19.8 14.5 19.7 14.6 19.6 C 14.8 19.4 14.9 19.2 14.9 19 C 14.9 19 14.9 4.6 14.9 4.6 C 14.9 4.2 14.8 4 14.6 3.8 C 14.3 3.7 13.9 3.6 13.4 3.6 C 13.36 3.57 12 3.6 12 3.6 L 12 2.7 Z M 17.5 11.7 C 17.5 11.7 19.92 11.67 19.9 11.7 C 21.5 11.7 22.6 11.4 23.3 10.7 C 24 10.1 24.3 9 24.3 7.5 C 24.3 6.5 24.2 5.7 23.8 5.1 C 23.5 4.5 23.1 4.1 22.5 3.9 C 21.9 3.6 20.9 3.5 19.5 3.5 C 18.6 3.5 18.1 3.5 17.8 3.7 C 17.6 3.9 17.5 4.2 17.5 4.6 C 17.48 4.61 17.5 11.7 17.5 11.7 Z M 39.6 19.8 C 39.9 19.8 40.3 19.7 40.6 19.4 C 40.6 19.4 41.1 20.1 41.1 20.1 C 40.5 20.7 39.8 21 39.1 21 C 38.5 21 38.1 20.9 37.7 20.6 C 37.3 20.3 37 19.8 36.7 19 C 35.9 19.8 35.2 20.4 34.7 20.6 C 34.1 20.9 33.4 21 32.6 21 C 31.4 21 30.5 20.8 29.9 20.3 C 29.3 19.8 29 19.1 29 18.4 C 29 17.2 29.7 16.2 31.1 15.4 C 32.5 14.6 34.3 14.1 36.6 13.8 C 36.6 13.8 36.6 12.1 36.6 12.1 C 36.6 11.5 36.4 10.9 35.9 10.5 C 35.4 10.1 34.8 9.8 34 9.8 C 33.3 9.8 32.7 10 32.2 10.3 C 31.8 10.5 31.6 10.7 31.6 10.9 C 31.6 11.1 31.7 11.2 31.9 11.5 C 32.1 11.8 32.3 12.1 32.3 12.4 C 32.3 12.7 32.1 13 31.9 13.3 C 31.7 13.5 31.4 13.6 31 13.6 C 30.6 13.6 30.2 13.5 30 13.2 C 29.7 12.9 29.5 12.6 29.5 12.1 C 29.5 11.3 30 10.6 30.9 9.9 C 31.8 9.3 33 8.9 34.5 8.9 C 35.8 8.9 36.9 9.2 37.6 9.8 C 38.3 10.4 38.7 11.1 38.7 12 C 38.7 12 38.7 18.2 38.7 18.2 C 38.7 18.8 38.8 19.2 38.9 19.4 C 39.1 19.7 39.3 19.8 39.6 19.8 C 39.6 19.8 39.6 19.8 39.6 19.8 Z M 36.6 14.6 C 34.6 14.9 33.1 15.4 32.2 16 C 31.6 16.5 31.3 17.2 31.3 18.1 C 31.3 18.7 31.4 19.2 31.8 19.6 C 32.1 19.9 32.5 20.1 33.1 20.1 C 34 20.1 34.9 19.7 35.6 19 C 36.3 18.3 36.6 17.4 36.6 16.3 C 36.6 16.3 36.6 14.6 36.6 14.6 Z M 51.2 9.9 C 52 9.1 52.8 8.7 53.5 8.7 C 53.9 8.7 54.2 8.8 54.5 9.1 C 54.7 9.3 54.9 9.7 54.9 10 C 54.9 10.3 54.8 10.6 54.6 10.8 C 54.4 11 54.2 11.1 54 11.1 C 53.5 11.1 53.2 10.8 53 10.2 C 53 10 52.8 9.9 52.7 9.9 C 52.4 9.9 52.1 10 51.8 10.4 C 52.1 10.9 52.4 11.3 52.5 11.7 C 52.6 12 52.7 12.4 52.7 12.8 C 52.7 13.5 52.5 14.1 52.2 14.7 C 51.9 15.2 51.3 15.7 50.5 16.1 C 49.7 16.5 48.9 16.7 48.2 16.7 C 48.2 16.7 46.9 16.7 46.9 16.7 C 45.9 16.7 45.3 16.8 45 17 C 44.7 17.2 44.5 17.5 44.5 17.9 C 44.5 18.2 44.7 18.5 44.9 18.6 C 45.2 18.8 45.6 18.9 46.3 18.9 C 46.3 18.9 49.4 18.8 49.4 18.8 C 50.9 18.8 52 19.1 52.6 19.6 C 53.3 20.1 53.7 20.8 53.7 21.7 C 53.7 22.7 53.3 23.5 52.5 24.2 C 51.4 25.1 49.9 25.6 47.7 25.6 C 46 25.6 44.7 25.3 43.8 24.6 C 43.2 24.1 42.8 23.5 42.8 22.9 C 42.8 22.4 43.1 22 43.5 21.6 C 43.9 21.2 44.6 20.9 45.6 20.7 C 44.8 20.5 44.2 20.2 43.8 19.8 C 43.4 19.5 43.2 19 43.2 18.4 C 43.2 17.9 43.4 17.5 43.7 17.1 C 44 16.7 44.6 16.4 45.4 16.1 C 44.7 15.7 44.2 15.2 43.9 14.7 C 43.5 14.2 43.3 13.5 43.3 12.8 C 43.3 11.7 43.8 10.8 44.6 10.1 C 45.5 9.3 46.6 8.9 48 8.9 C 48.6 8.9 49.1 9 49.7 9.2 C 50.2 9.3 50.7 9.6 51.2 9.9 Z M 48 9.7 C 47.3 9.7 46.7 10 46.2 10.5 C 45.7 11 45.5 11.8 45.5 12.7 C 45.5 13.8 45.7 14.6 46.2 15.1 C 46.7 15.7 47.3 16 48 16 C 48.7 16 49.3 15.7 49.8 15.2 C 50.3 14.6 50.5 13.8 50.5 12.8 C 50.5 11.8 50.3 11.1 49.8 10.5 C 49.3 10 48.7 9.7 48 9.7 Z M 48.7 20.7 C 47.2 20.7 46.2 20.9 45.5 21.3 C 44.9 21.8 44.6 22.3 44.6 22.8 C 44.6 23.4 44.8 23.8 45.3 24.1 C 45.9 24.6 46.8 24.8 48 24.8 C 49.4 24.8 50.4 24.6 51.2 24.1 C 51.9 23.6 52.2 23.1 52.2 22.5 C 52.2 22.2 52.1 21.9 51.9 21.6 C 51.7 21.3 51.3 21.1 50.8 20.9 C 50.4 20.8 49.7 20.7 48.7 20.7 Z M 57.3 16.4 C 57.8 17.8 58.3 18.8 59 19.3 C 59.7 19.9 60.5 20.1 61.4 20.1 C 62.3 20.1 63 19.9 63.5 19.6 C 63.9 19.2 64.2 18.7 64.2 18.1 C 64.2 17.7 64.1 17.4 63.9 17.2 C 63.7 16.9 63.5 16.7 63.2 16.6 C 62.9 16.5 62.1 16.3 60.8 16.1 C 59.5 15.8 58.7 15.6 58.2 15.3 C 57.7 15 57.3 14.6 57 14.2 C 56.8 13.7 56.6 13.2 56.6 12.6 C 56.6 11.8 56.9 11 57.5 10.4 C 58.2 9.5 59.2 9 60.5 9 C 61.5 9 62.4 9.4 63.3 10 C 63.29 9.99 64.1 9.1 64.1 9.1 L 64.6 9.1 L 64.9 13.2 C 64.9 13.2 64.09 13.21 64.1 13.2 C 63.7 12.1 63.3 11.2 62.6 10.7 C 62 10.2 61.3 10 60.4 10 C 59.6 10 59 10.1 58.6 10.5 C 58.1 10.9 57.9 11.4 57.9 11.9 C 57.9 12.4 58.1 12.8 58.5 13.1 C 58.9 13.4 59.7 13.7 60.9 13.9 C 62.2 14.1 63.1 14.3 63.5 14.4 C 64.2 14.7 64.7 15.1 65 15.6 C 65.4 16.1 65.6 16.7 65.6 17.4 C 65.6 18.4 65.2 19.3 64.4 20 C 63.6 20.7 62.6 21 61.4 21 C 60.2 21 59.2 20.7 58.2 19.9 C 58.22 19.93 57.3 21 57.3 21 L 56.7 21 L 56.4 16.4 C 56.4 16.4 57.26 16.4 57.3 16.4 Z M 70.4 2.4 C 70.8 2.4 71.1 2.6 71.4 2.9 C 71.6 3.1 71.8 3.5 71.8 3.8 C 71.8 4.2 71.7 4.5 71.4 4.8 C 71.1 5.1 70.8 5.2 70.4 5.2 C 70 5.2 69.7 5.1 69.4 4.8 C 69.2 4.5 69 4.2 69 3.8 C 69 3.5 69.2 3.1 69.5 2.9 C 69.7 2.6 70 2.4 70.4 2.4 Z M 67.2 9.3 L 71.8 9.1 C 71.8 9.1 71.78 18.97 71.8 19 C 71.8 19.2 71.8 19.4 72 19.5 C 72.2 19.7 72.4 19.8 72.7 19.8 C 72.69 19.79 74 19.8 74 19.8 L 74 20.7 L 67.5 20.7 L 67.5 19.8 C 67.5 19.8 68.68 19.79 68.7 19.8 C 69 19.8 69.3 19.7 69.5 19.5 C 69.6 19.4 69.7 19.1 69.7 18.8 C 69.7 18.8 69.7 11.6 69.7 11.6 C 69.7 11.1 69.6 10.8 69.3 10.5 C 69.1 10.3 68.7 10.2 68.2 10.2 C 68.17 10.18 67.2 10.2 67.2 10.2 L 67.2 9.3 Z M 75.1 9.3 L 80.5 9.3 L 80.5 10.1 C 80.5 10.1 80.04 10.1 80 10.1 C 79.6 10.1 79.2 10.2 79.1 10.3 C 78.9 10.4 78.8 10.6 78.8 10.8 C 78.8 10.9 78.8 11 78.9 11.1 C 78.86 11.15 82.1 18 82.1 18 C 82.1 18 84.42 12.32 84.4 12.3 C 84.6 11.9 84.7 11.5 84.7 11.1 C 84.7 10.8 84.6 10.6 84.3 10.4 C 84.1 10.3 83.6 10.1 82.9 10.1 C 82.91 10.1 82.9 9.3 82.9 9.3 L 87.7 9.3 C 87.7 9.3 87.67 10.1 87.7 10.1 C 86.7 10.2 86.1 10.6 85.8 11.3 C 85.8 11.3 81.6 21.2 81.6 21.2 C 80.9 22.8 80.1 24 79.4 24.6 C 78.7 25.3 77.9 25.6 77.1 25.6 C 76.4 25.6 76 25.4 75.6 25.1 C 75.2 24.7 75 24.3 75 23.8 C 75 23.5 75.1 23.2 75.4 22.9 C 75.6 22.7 75.9 22.6 76.2 22.6 C 76.5 22.6 76.8 22.7 77 22.9 C 77.2 23.1 77.3 23.3 77.3 23.6 C 77.3 23.7 77.3 23.8 77.3 24 C 77.2 24.1 77.2 24.2 77.2 24.3 C 77.2 24.5 77.4 24.6 77.6 24.6 C 77.9 24.6 78.2 24.5 78.5 24.3 C 78.9 24.1 79.2 23.8 79.5 23.3 C 79.8 22.9 80.3 21.9 81 20.5 C 81 20.5 76.7 11.1 76.7 11.1 C 76.5 10.8 76.3 10.6 76.1 10.4 C 75.9 10.3 75.5 10.2 75.1 10.1 C 75.07 10.1 75.1 9.3 75.1 9.3 Z M 99.8 19.8 C 100.2 19.8 100.5 19.7 100.8 19.4 C 100.8 19.4 101.3 20.1 101.3 20.1 C 100.7 20.7 100 21 99.3 21 C 98.7 21 98.3 20.9 97.9 20.6 C 97.5 20.3 97.2 19.8 96.9 19 C 96.1 19.8 95.5 20.4 94.9 20.6 C 94.3 20.9 93.6 21 92.8 21 C 91.6 21 90.7 20.8 90.1 20.3 C 89.5 19.8 89.2 19.1 89.2 18.4 C 89.2 17.2 89.9 16.2 91.3 15.4 C 92.7 14.6 94.5 14.1 96.8 13.8 C 96.8 13.8 96.8 12.1 96.8 12.1 C 96.8 11.5 96.6 10.9 96.1 10.5 C 95.6 10.1 95 9.8 94.2 9.8 C 93.5 9.8 92.9 10 92.4 10.3 C 92 10.5 91.8 10.7 91.8 10.9 C 91.8 11.1 91.9 11.2 92.1 11.5 C 92.3 11.8 92.5 12.1 92.5 12.4 C 92.5 12.7 92.3 13 92.1 13.3 C 91.9 13.5 91.6 13.6 91.2 13.6 C 90.8 13.6 90.4 13.5 90.2 13.2 C 89.9 12.9 89.8 12.6 89.8 12.1 C 89.8 11.3 90.2 10.6 91.1 9.9 C 92 9.3 93.2 8.9 94.7 8.9 C 96 8.9 97.1 9.2 97.8 9.8 C 98.5 10.4 98.9 11.1 98.9 12 C 98.9 12 98.9 18.2 98.9 18.2 C 98.9 18.8 99 19.2 99.1 19.4 C 99.3 19.7 99.6 19.8 99.8 19.8 C 99.8 19.8 99.8 19.8 99.8 19.8 Z M 96.8 14.6 C 94.8 14.9 93.3 15.4 92.4 16 C 91.8 16.5 91.5 17.2 91.5 18.1 C 91.5 18.7 91.6 19.2 92 19.6 C 92.3 19.9 92.7 20.1 93.3 20.1 C 94.2 20.1 95.1 19.7 95.8 19 C 96.5 18.3 96.8 17.4 96.8 16.3 C 96.8 16.3 96.8 14.6 96.8 14.6 Z M 104 16.4 C 104.5 17.8 105.1 18.8 105.8 19.3 C 106.4 19.9 107.2 20.1 108.2 20.1 C 109.1 20.1 109.8 19.9 110.2 19.6 C 110.7 19.2 111 18.7 111 18.1 C 111 17.7 110.9 17.4 110.7 17.2 C 110.5 16.9 110.3 16.7 110 16.6 C 109.7 16.5 108.9 16.3 107.6 16.1 C 106.3 15.8 105.5 15.6 105 15.3 C 104.5 15 104.1 14.6 103.8 14.2 C 103.5 13.7 103.4 13.2 103.4 12.6 C 103.4 11.8 103.7 11 104.3 10.4 C 105 9.5 106 9 107.3 9 C 108.3 9 109.2 9.4 110.1 10 C 110.06 9.99 110.9 9.1 110.9 9.1 L 111.4 9.1 L 111.7 13.2 C 111.7 13.2 110.87 13.21 110.9 13.2 C 110.5 12.1 110 11.2 109.4 10.7 C 108.8 10.2 108.1 10 107.2 10 C 106.4 10 105.8 10.1 105.3 10.5 C 104.9 10.9 104.7 11.4 104.7 11.9 C 104.7 12.4 104.9 12.8 105.3 13.1 C 105.7 13.4 106.5 13.7 107.6 13.9 C 109 14.1 109.9 14.3 110.3 14.4 C 110.9 14.7 111.5 15.1 111.8 15.6 C 112.2 16.1 112.4 16.7 112.4 17.4 C 112.4 18.4 112 19.3 111.2 20 C 110.4 20.7 109.4 21 108.2 21 C 107 21 106 20.7 105 19.9 C 105 19.93 104.1 21 104.1 21 L 103.5 21 L 103.2 16.4 C 103.2 16.4 104.04 16.4 104 16.4 Z M 125.3 19.8 C 125.6 19.8 126 19.7 126.3 19.4 C 126.3 19.4 126.8 20.1 126.8 20.1 C 126.2 20.7 125.5 21 124.8 21 C 124.2 21 123.8 20.9 123.4 20.6 C 123 20.3 122.7 19.8 122.4 19 C 121.6 19.8 120.9 20.4 120.3 20.6 C 119.8 20.9 119.1 21 118.2 21 C 117.1 21 116.2 20.8 115.6 20.3 C 114.9 19.8 114.6 19.1 114.6 18.4 C 114.6 17.2 115.3 16.2 116.7 15.4 C 118.1 14.6 120 14.1 122.3 13.8 C 122.3 13.8 122.3 12.1 122.3 12.1 C 122.3 11.5 122.1 10.9 121.6 10.5 C 121.1 10.1 120.4 9.8 119.7 9.8 C 119 9.8 118.4 10 117.8 10.3 C 117.5 10.5 117.3 10.7 117.3 10.9 C 117.3 11.1 117.4 11.2 117.6 11.5 C 117.8 11.8 117.9 12.1 117.9 12.4 C 117.9 12.7 117.8 13 117.6 13.3 C 117.3 13.5 117 13.6 116.7 13.6 C 116.3 13.6 115.9 13.5 115.6 13.2 C 115.4 12.9 115.2 12.6 115.2 12.1 C 115.2 11.3 115.7 10.6 116.6 9.9 C 117.5 9.3 118.7 8.9 120.2 8.9 C 121.5 8.9 122.6 9.2 123.3 9.8 C 124 10.4 124.3 11.1 124.3 12 C 124.3 12 124.3 18.2 124.3 18.2 C 124.3 18.8 124.4 19.2 124.6 19.4 C 124.8 19.7 125 19.8 125.3 19.8 C 125.3 19.8 125.3 19.8 125.3 19.8 Z M 122.3 14.6 C 120.2 14.9 118.8 15.4 117.9 16 C 117.3 16.5 117 17.2 117 18.1 C 117 18.7 117.1 19.2 117.5 19.6 C 117.8 19.9 118.2 20.1 118.8 20.1 C 119.7 20.1 120.5 19.7 121.3 19 C 122 18.3 122.3 17.4 122.3 16.3 C 122.3 16.3 122.3 14.6 122.3 14.6 Z M 130 8.4 C 130.7 7.5 131.1 6.2 131.1 4.6 C 131.15 4.61 132 4.6 132 4.6 L 132 9.3 L 135.7 9.3 L 135.7 10.4 L 132 10.4 C 132 10.4 131.97 17.73 132 17.7 C 132 18.4 132.1 18.8 132.4 19.2 C 132.7 19.5 133.1 19.7 133.6 19.7 C 134.1 19.7 134.6 19.4 135 18.9 C 135.4 18.4 135.6 17.6 135.7 16.4 C 135.7 16.4 136.5 16.4 136.5 16.4 C 136.4 17.9 136.1 19 135.4 19.8 C 134.8 20.5 134 20.9 132.9 20.9 C 132 20.9 131.3 20.6 130.7 20.1 C 130.2 19.6 129.9 18.9 129.9 18.1 C 129.93 18.07 129.9 10.4 129.9 10.4 L 127.9 10.4 C 127.9 10.4 127.94 9.54 127.9 9.5 C 128.8 9.4 129.5 9 130 8.4 C 130 8.4 130 8.4 130 8.4 Z M 146.2 16.4 C 146.7 17.8 147.3 18.8 147.9 19.3 C 148.6 19.9 149.4 20.1 150.3 20.1 C 151.2 20.1 151.9 19.9 152.4 19.6 C 152.9 19.2 153.1 18.7 153.1 18.1 C 153.1 17.7 153 17.4 152.8 17.2 C 152.7 16.9 152.4 16.7 152.1 16.6 C 151.8 16.5 151 16.3 149.7 16.1 C 148.5 15.8 147.6 15.6 147.1 15.3 C 146.6 15 146.2 14.6 146 14.2 C 145.7 13.7 145.6 13.2 145.6 12.6 C 145.6 11.8 145.8 11 146.4 10.4 C 147.1 9.5 148.1 9 149.5 9 C 150.4 9 151.4 9.4 152.2 10 C 152.21 9.99 153 9.1 153 9.1 L 153.5 9.1 L 153.8 13.2 C 153.8 13.2 153.02 13.21 153 13.2 C 152.7 12.1 152.2 11.2 151.6 10.7 C 151 10.2 150.2 10 149.3 10 C 148.5 10 147.9 10.1 147.5 10.5 C 147 10.9 146.8 11.4 146.8 11.9 C 146.8 12.4 147 12.8 147.4 13.1 C 147.8 13.4 148.6 13.7 149.8 13.9 C 151.1 14.1 152 14.3 152.4 14.4 C 153.1 14.7 153.6 15.1 154 15.6 C 154.3 16.1 154.5 16.7 154.5 17.4 C 154.5 18.4 154.1 19.3 153.3 20 C 152.5 20.7 151.5 21 150.3 21 C 149.2 21 148.1 20.7 147.2 19.9 C 147.15 19.93 146.3 21 146.3 21 L 145.6 21 L 145.4 16.4 C 145.4 16.4 146.19 16.4 146.2 16.4 Z M 167.5 19.8 C 167.8 19.8 168.1 19.7 168.5 19.4 C 168.5 19.4 168.9 20.1 168.9 20.1 C 168.3 20.7 167.7 21 166.9 21 C 166.4 21 165.9 20.9 165.5 20.6 C 165.1 20.3 164.8 19.8 164.5 19 C 163.8 19.8 163.1 20.4 162.5 20.6 C 161.9 20.9 161.2 21 160.4 21 C 159.2 21 158.3 20.8 157.7 20.3 C 157.1 19.8 156.8 19.1 156.8 18.4 C 156.8 17.2 157.5 16.2 158.9 15.4 C 160.3 14.6 162.1 14.1 164.5 13.8 C 164.5 13.8 164.5 12.1 164.5 12.1 C 164.5 11.5 164.2 10.9 163.7 10.5 C 163.2 10.1 162.6 9.8 161.8 9.8 C 161.1 9.8 160.5 10 160 10.3 C 159.6 10.5 159.4 10.7 159.4 10.9 C 159.4 11.1 159.5 11.2 159.7 11.5 C 160 11.8 160.1 12.1 160.1 12.4 C 160.1 12.7 160 13 159.7 13.3 C 159.5 13.5 159.2 13.6 158.8 13.6 C 158.4 13.6 158.1 13.5 157.8 13.2 C 157.5 12.9 157.4 12.6 157.4 12.1 C 157.4 11.3 157.8 10.6 158.7 9.9 C 159.6 9.3 160.8 8.9 162.3 8.9 C 163.7 8.9 164.7 9.2 165.4 9.8 C 166.1 10.4 166.5 11.1 166.5 12 C 166.5 12 166.5 18.2 166.5 18.2 C 166.5 18.8 166.6 19.2 166.8 19.4 C 166.9 19.7 167.2 19.8 167.5 19.8 C 167.5 19.8 167.5 19.8 167.5 19.8 Z M 164.5 14.6 C 162.4 14.9 160.9 15.4 160.1 16 C 159.4 16.5 159.1 17.2 159.1 18.1 C 159.1 18.7 159.3 19.2 159.6 19.6 C 159.9 19.9 160.4 20.1 160.9 20.1 C 161.9 20.1 162.7 19.7 163.4 19 C 164.1 18.3 164.5 17.4 164.5 16.3 C 164.5 16.3 164.5 14.6 164.5 14.6 Z M 187.5 12.2 C 187.8 13 187.9 13.9 188 15.1 C 188 15.1 179.8 15.1 179.8 15.1 C 179.8 16.8 180.1 18 180.7 18.8 C 181.4 19.6 182.3 20 183.4 20 C 185 20 186.3 19.1 187.3 17.2 C 187.3 17.2 188.1 17.6 188.1 17.6 C 186.9 19.9 185.2 21 182.9 21 C 181.4 21 180.1 20.5 179 19.4 C 178 18.3 177.5 16.9 177.5 15.1 C 177.5 13.3 178 11.8 179 10.6 C 180 9.5 181.3 8.9 182.8 8.9 C 183.9 8.9 184.9 9.2 185.7 9.8 C 186.5 10.4 187.1 11.2 187.5 12.2 C 187.5 12.2 187.5 12.2 187.5 12.2 Z M 179.8 14.2 C 179.8 14.2 184.7 14.2 184.7 14.2 C 185 14.2 185.2 14.1 185.4 13.9 C 185.6 13.7 185.7 13.4 185.7 12.9 C 185.7 12 185.4 11.2 184.8 10.6 C 184.3 10 183.6 9.7 182.8 9.7 C 182 9.7 181.3 10 180.7 10.8 C 180.1 11.6 179.8 12.7 179.8 14.2 Z M 191.1 16.4 C 191.6 17.8 192.2 18.8 192.8 19.3 C 193.5 19.9 194.3 20.1 195.3 20.1 C 196.2 20.1 196.8 19.9 197.3 19.6 C 197.8 19.2 198 18.7 198 18.1 C 198 17.7 197.9 17.4 197.8 17.2 C 197.6 16.9 197.3 16.7 197 16.6 C 196.7 16.5 195.9 16.3 194.6 16.1 C 193.4 15.8 192.5 15.6 192 15.3 C 191.5 15 191.2 14.6 190.9 14.2 C 190.6 13.7 190.5 13.2 190.5 12.6 C 190.5 11.8 190.8 11 191.3 10.4 C 192.1 9.5 193.1 9 194.4 9 C 195.4 9 196.3 9.4 197.1 10 C 197.14 9.99 197.9 9.1 197.9 9.1 L 198.4 9.1 L 198.8 13.2 C 198.8 13.2 197.94 13.21 197.9 13.2 C 197.6 12.1 197.1 11.2 196.5 10.7 C 195.9 10.2 195.1 10 194.2 10 C 193.5 10 192.8 10.1 192.4 10.5 C 192 10.9 191.7 11.4 191.7 11.9 C 191.7 12.4 191.9 12.8 192.4 13.1 C 192.8 13.4 193.5 13.7 194.7 13.9 C 196.1 14.1 196.9 14.3 197.3 14.4 C 198 14.7 198.5 15.1 198.9 15.6 C 199.3 16.1 199.4 16.7 199.4 17.4 C 199.4 18.4 199 19.3 198.3 20 C 197.5 20.7 196.5 21 195.2 21 C 194.1 21 193 20.7 192.1 19.9 C 192.07 19.93 191.2 21 191.2 21 L 190.5 21 L 190.3 16.4 C 190.3 16.4 191.11 16.4 191.1 16.4 Z M 203.2 8.4 C 203.9 7.5 204.3 6.2 204.3 4.6 C 204.32 4.61 205.1 4.6 205.1 4.6 L 205.1 9.3 L 208.8 9.3 L 208.8 10.4 L 205.1 10.4 C 205.1 10.4 205.13 17.73 205.1 17.7 C 205.1 18.4 205.3 18.8 205.6 19.2 C 205.9 19.5 206.3 19.7 206.7 19.7 C 207.3 19.7 207.8 19.4 208.1 18.9 C 208.5 18.4 208.8 17.6 208.8 16.4 C 208.8 16.4 209.7 16.4 209.7 16.4 C 209.6 17.9 209.3 19 208.6 19.8 C 208 20.5 207.1 20.9 206.1 20.9 C 205.2 20.9 204.4 20.6 203.9 20.1 C 203.4 19.6 203.1 18.9 203.1 18.1 C 203.1 18.07 203.1 10.4 203.1 10.4 L 201.1 10.4 C 201.1 10.4 201.11 9.54 201.1 9.5 C 202 9.4 202.7 9 203.2 8.4 C 203.2 8.4 203.2 8.4 203.2 8.4 Z M 222.1 19.8 C 222.4 19.8 222.8 19.7 223.1 19.4 C 223.1 19.4 223.6 20.1 223.6 20.1 C 223 20.7 222.3 21 221.6 21 C 221 21 220.6 20.9 220.2 20.6 C 219.8 20.3 219.5 19.8 219.2 19 C 218.4 19.8 217.7 20.4 217.1 20.6 C 216.6 20.9 215.9 21 215 21 C 213.9 21 213 20.8 212.4 20.3 C 211.8 19.8 211.4 19.1 211.4 18.4 C 211.4 17.2 212.1 16.2 213.5 15.4 C 214.9 14.6 216.8 14.1 219.1 13.8 C 219.1 13.8 219.1 12.1 219.1 12.1 C 219.1 11.5 218.9 10.9 218.4 10.5 C 217.9 10.1 217.2 9.8 216.5 9.8 C 215.8 9.8 215.2 10 214.6 10.3 C 214.3 10.5 214.1 10.7 214.1 10.9 C 214.1 11.1 214.2 11.2 214.4 11.5 C 214.6 11.8 214.7 12.1 214.7 12.4 C 214.7 12.7 214.6 13 214.4 13.3 C 214.2 13.5 213.8 13.6 213.5 13.6 C 213.1 13.6 212.7 13.5 212.4 13.2 C 212.2 12.9 212 12.6 212 12.1 C 212 11.3 212.5 10.6 213.4 9.9 C 214.3 9.3 215.5 8.9 217 8.9 C 218.3 8.9 219.4 9.2 220.1 9.8 C 220.8 10.4 221.1 11.1 221.1 12 C 221.1 12 221.1 18.2 221.1 18.2 C 221.1 18.8 221.2 19.2 221.4 19.4 C 221.6 19.7 221.8 19.8 222.1 19.8 C 222.1 19.8 222.1 19.8 222.1 19.8 Z M 219.1 14.6 C 217 14.9 215.6 15.4 214.7 16 C 214.1 16.5 213.8 17.2 213.8 18.1 C 213.8 18.7 213.9 19.2 214.3 19.6 C 214.6 19.9 215 20.1 215.6 20.1 C 216.5 20.1 217.4 19.7 218.1 19 C 218.8 18.3 219.1 17.4 219.1 16.3 C 219.1 16.3 219.1 14.6 219.1 14.6 Z M 231.4 2.7 L 235.9 2.4 C 235.9 2.4 235.88 18.1 235.9 18.1 C 235.9 18.7 236 19.1 236.2 19.4 C 236.5 19.7 236.8 19.8 237.3 19.8 C 237.28 19.79 238.1 19.8 238.1 19.8 L 238.1 20.7 L 234.2 20.7 C 234.2 20.7 233.87 18.38 233.9 18.4 C 233.4 19.2 232.9 19.8 232.2 20.2 C 231.6 20.7 230.9 20.9 230.1 20.9 C 228.8 20.9 227.7 20.3 226.8 19.2 C 225.9 18.2 225.4 16.7 225.4 14.9 C 225.4 13 226 11.4 227.2 10.3 C 228.1 9.4 229.2 8.9 230.4 8.9 C 231.1 8.9 231.8 9.1 232.3 9.5 C 232.9 9.8 233.4 10.4 233.9 11.1 C 233.9 11.1 233.9 4.7 233.9 4.7 C 233.9 4.3 233.7 4.1 233.5 3.9 C 233.2 3.7 232.8 3.6 232.2 3.6 C 232.23 3.57 231.4 3.6 231.4 3.6 L 231.4 2.7 Z M 232.9 11.1 C 232.3 10.3 231.6 9.9 230.7 9.9 C 229.8 9.9 229.1 10.3 228.6 11 C 228.1 11.8 227.8 13 227.8 14.7 C 227.8 16.6 228.1 17.9 228.6 18.6 C 229.2 19.4 229.8 19.8 230.7 19.8 C 231.6 19.8 232.3 19.3 232.9 18.5 C 233.6 17.6 233.9 16.4 233.9 14.8 C 233.9 13.2 233.6 12 232.9 11.1 C 232.9 11.1 232.9 11.1 232.9 11.1 Z M 244.7 8.9 C 246.2 8.9 247.5 9.5 248.6 10.6 C 249.6 11.7 250.1 13.2 250.1 15 C 250.1 16.2 249.9 17.3 249.4 18.2 C 249 19.1 248.3 19.8 247.4 20.3 C 246.6 20.8 245.6 21 244.6 21 C 243.1 21 241.9 20.5 240.9 19.4 C 239.8 18.2 239.3 16.8 239.3 15 C 239.3 13.2 239.8 11.7 240.9 10.6 C 241.9 9.5 243.2 8.9 244.7 8.9 Z M 244.7 9.8 C 243.8 9.8 243 10.2 242.4 11 C 241.9 11.9 241.6 13.2 241.6 14.9 C 241.6 16.8 241.9 18.1 242.4 18.9 C 243 19.8 243.8 20.2 244.7 20.2 C 245.6 20.2 246.4 19.8 247 18.9 C 247.6 18.1 247.9 16.7 247.9 14.8 C 247.9 13 247.6 11.8 247 11 C 246.4 10.2 245.7 9.8 244.7 9.8 Z M 258.7 9.3 C 258.7 9.3 262.53 9.04 262.5 9 C 262.7 9.8 262.8 10.6 262.9 11.6 C 263.4 10.7 264 10.1 264.7 9.7 C 265.4 9.3 266.2 9.1 267 9.1 C 267.8 9.1 268.4 9.2 269 9.5 C 269.5 9.8 269.9 10.3 270.2 10.9 C 270.5 11.6 270.6 12.3 270.6 13.1 C 270.6 13.1 270.6 18.6 270.6 18.6 C 270.6 19.1 270.7 19.4 270.9 19.5 C 271.1 19.7 271.4 19.8 271.9 19.8 C 271.87 19.79 272.7 19.8 272.7 19.8 L 272.7 20.7 L 266.6 20.7 L 266.6 19.8 C 266.6 19.8 267.22 19.79 267.2 19.8 C 267.8 19.8 268.1 19.7 268.3 19.5 C 268.6 19.4 268.7 19.1 268.7 18.8 C 268.7 18.8 268.7 13.9 268.7 13.9 C 268.7 12.8 268.5 12 268.2 11.5 C 267.7 10.8 267 10.4 266.1 10.4 C 265.2 10.4 264.4 10.8 263.8 11.5 C 263.2 12.3 262.9 13.2 262.9 14.4 C 262.9 14.4 262.9 18.6 262.9 18.6 C 262.9 19.1 263 19.4 263.2 19.5 C 263.4 19.7 263.7 19.8 264.1 19.8 C 264.11 19.79 264.9 19.8 264.9 19.8 L 264.9 20.7 L 258.8 20.7 L 258.8 19.8 C 258.8 19.8 259.64 19.79 259.6 19.8 C 260 19.8 260.3 19.7 260.5 19.5 C 260.8 19.4 260.9 19.2 260.9 18.9 C 260.9 18.9 260.9 11.6 260.9 11.6 C 260.9 11.1 260.7 10.7 260.5 10.4 C 260.2 10.2 259.8 10.1 259.3 10.1 C 259.32 10.06 258.7 10.1 258.7 10.1 L 258.7 9.3 Z M 282.8 9.9 C 283.6 9.1 284.3 8.7 285 8.7 C 285.4 8.7 285.8 8.8 286 9.1 C 286.3 9.3 286.4 9.7 286.4 10 C 286.4 10.3 286.3 10.6 286.2 10.8 C 286 11 285.8 11.1 285.5 11.1 C 285.1 11.1 284.7 10.8 284.6 10.2 C 284.5 10 284.4 9.9 284.2 9.9 C 284 9.9 283.7 10 283.3 10.4 C 283.7 10.9 283.9 11.3 284.1 11.7 C 284.2 12 284.3 12.4 284.3 12.8 C 284.3 13.5 284.1 14.1 283.7 14.7 C 283.4 15.2 282.8 15.7 282 16.1 C 281.3 16.5 280.5 16.7 279.8 16.7 C 279.8 16.7 278.4 16.7 278.4 16.7 C 277.5 16.7 276.9 16.8 276.6 17 C 276.2 17.2 276.1 17.5 276.1 17.9 C 276.1 18.2 276.2 18.5 276.5 18.6 C 276.7 18.8 277.2 18.9 277.9 18.9 C 277.9 18.9 280.9 18.8 280.9 18.8 C 282.4 18.8 283.5 19.1 284.2 19.6 C 284.9 20.1 285.2 20.8 285.2 21.7 C 285.2 22.7 284.8 23.5 284.1 24.2 C 283 25.1 281.4 25.6 279.3 25.6 C 277.5 25.6 276.2 25.3 275.4 24.6 C 274.7 24.1 274.4 23.5 274.4 22.9 C 274.4 22.4 274.6 22 275 21.6 C 275.5 21.2 276.2 20.9 277.2 20.7 C 276.4 20.5 275.8 20.2 275.4 19.8 C 275 19.5 274.8 19 274.8 18.4 C 274.8 17.9 274.9 17.5 275.3 17.1 C 275.6 16.7 276.2 16.4 277 16.1 C 276.3 15.7 275.8 15.2 275.4 14.7 C 275.1 14.2 274.9 13.5 274.9 12.8 C 274.9 11.7 275.3 10.8 276.2 10.1 C 277.1 9.3 278.2 8.9 279.6 8.9 C 280.2 8.9 280.7 9 281.2 9.2 C 281.8 9.3 282.3 9.6 282.8 9.9 Z M 279.6 9.7 C 278.8 9.7 278.2 10 277.8 10.5 C 277.3 11 277.1 11.8 277.1 12.7 C 277.1 13.8 277.3 14.6 277.8 15.1 C 278.2 15.7 278.8 16 279.6 16 C 280.3 16 280.9 15.7 281.4 15.2 C 281.8 14.6 282.1 13.8 282.1 12.8 C 282.1 11.8 281.8 11.1 281.4 10.5 C 280.9 10 280.3 9.7 279.6 9.7 Z M 280.3 20.7 C 278.8 20.7 277.7 20.9 277.1 21.3 C 276.4 21.8 276.1 22.3 276.1 22.8 C 276.1 23.4 276.4 23.8 276.8 24.1 C 277.5 24.6 278.4 24.8 279.5 24.8 C 280.9 24.8 282 24.6 282.7 24.1 C 283.4 23.6 283.8 23.1 283.8 22.5 C 283.8 22.2 283.7 21.9 283.4 21.6 C 283.2 21.3 282.9 21.1 282.4 20.9 C 281.9 20.8 281.2 20.7 280.3 20.7 Z M 298 9.1 C 298.2 9.9 298.3 10.7 298.3 11.5 C 298.9 10.6 299.5 10 300.1 9.6 C 300.7 9.2 301.4 9.1 302.1 9.1 C 302.9 9.1 303.6 9.3 304.4 9.8 C 305.1 10.3 305.6 11 306.1 11.9 C 306.5 12.8 306.7 13.9 306.7 15 C 306.7 16.9 306.2 18.4 305.1 19.6 C 304.2 20.6 303.1 21 301.9 21 C 301.2 21 300.5 20.9 299.9 20.5 C 299.4 20.1 298.9 19.6 298.4 18.9 C 298.4 18.9 298.4 23.5 298.4 23.5 C 298.4 23.8 298.5 24.1 298.7 24.2 C 298.9 24.4 299.2 24.5 299.6 24.5 C 299.58 24.54 300.4 24.5 300.4 24.5 L 300.4 25.4 L 294.3 25.4 L 294.3 24.5 C 294.3 24.5 295.15 24.54 295.1 24.5 C 295.5 24.5 295.8 24.5 296 24.3 C 296.2 24.2 296.3 24 296.3 23.7 C 296.3 23.7 296.3 11.7 296.3 11.7 C 296.3 11.1 296.2 10.7 295.9 10.5 C 295.6 10.2 295.1 10.1 294.3 10.1 C 294.31 10.09 294.3 9.3 294.3 9.3 C 294.3 9.3 298 9.06 298 9.1 Z M 301.6 10.2 C 300.7 10.2 299.9 10.6 299.3 11.5 C 298.7 12.3 298.4 13.5 298.4 15.2 C 298.4 16.8 298.7 18 299.3 18.8 C 299.9 19.6 300.6 20 301.5 20 C 302.4 20 303.1 19.6 303.5 19 C 304.1 18.1 304.4 16.8 304.4 15.1 C 304.4 13.3 304.1 12.1 303.6 11.3 C 303.1 10.6 302.4 10.2 301.6 10.2 Z M 319.8 19.8 C 320.1 19.8 320.5 19.7 320.8 19.4 C 320.8 19.4 321.3 20.1 321.3 20.1 C 320.7 20.7 320 21 319.3 21 C 318.7 21 318.3 20.9 317.9 20.6 C 317.5 20.3 317.2 19.8 316.9 19 C 316.1 19.8 315.4 20.4 314.9 20.6 C 314.3 20.9 313.6 21 312.7 21 C 311.6 21 310.7 20.8 310.1 20.3 C 309.5 19.8 309.2 19.1 309.2 18.4 C 309.2 17.2 309.8 16.2 311.2 15.4 C 312.6 14.6 314.5 14.1 316.8 13.8 C 316.8 13.8 316.8 12.1 316.8 12.1 C 316.8 11.5 316.6 10.9 316.1 10.5 C 315.6 10.1 314.9 9.8 314.2 9.8 C 313.5 9.8 312.9 10 312.3 10.3 C 312 10.5 311.8 10.7 311.8 10.9 C 311.8 11.1 311.9 11.2 312.1 11.5 C 312.3 11.8 312.4 12.1 312.4 12.4 C 312.4 12.7 312.3 13 312.1 13.3 C 311.9 13.5 311.5 13.6 311.2 13.6 C 310.8 13.6 310.4 13.5 310.1 13.2 C 309.9 12.9 309.7 12.6 309.7 12.1 C 309.7 11.3 310.2 10.6 311.1 9.9 C 312 9.3 313.2 8.9 314.7 8.9 C 316 8.9 317.1 9.2 317.8 9.8 C 318.5 10.4 318.9 11.1 318.9 12 C 318.9 12 318.9 18.2 318.9 18.2 C 318.9 18.8 318.9 19.2 319.1 19.4 C 319.3 19.7 319.5 19.8 319.8 19.8 C 319.8 19.8 319.8 19.8 319.8 19.8 Z M 316.8 14.6 C 314.7 14.9 313.3 15.4 312.4 16 C 311.8 16.5 311.5 17.2 311.5 18.1 C 311.5 18.7 311.6 19.2 312 19.6 C 312.3 19.9 312.7 20.1 313.3 20.1 C 314.2 20.1 315.1 19.7 315.8 19 C 316.5 18.3 316.8 17.4 316.8 16.3 C 316.8 16.3 316.8 14.6 316.8 14.6 Z M 323.3 9.3 C 323.3 9.3 326.62 9.06 326.6 9.1 C 326.8 9.9 326.9 10.7 327 11.5 C 327.6 10.6 328.2 10 328.8 9.6 C 329.5 9.2 330.1 9.1 330.9 9.1 C 331.7 9.1 332.3 9.3 332.8 9.7 C 333.3 10.1 333.7 10.8 334 11.7 C 334.6 10.8 335.2 10.2 335.8 9.7 C 336.5 9.3 337.2 9.1 338 9.1 C 339.1 9.1 339.8 9.4 340.4 10 C 341 10.8 341.4 11.9 341.4 13.1 C 341.4 13.1 341.4 18.8 341.4 18.8 C 341.4 19.2 341.4 19.4 341.6 19.5 C 341.8 19.7 342.2 19.8 342.6 19.8 C 342.62 19.79 343.2 19.8 343.2 19.8 L 343.2 20.7 L 337.4 20.7 L 337.4 19.8 C 337.4 19.8 338.02 19.79 338 19.8 C 338.5 19.8 338.8 19.7 339 19.5 C 339.2 19.4 339.3 19.1 339.3 18.8 C 339.3 18.8 339.3 13.1 339.3 13.1 C 339.3 12.3 339.1 11.6 338.7 11.2 C 338.3 10.7 337.8 10.5 337.1 10.5 C 336.6 10.5 336.1 10.6 335.7 10.9 C 335.3 11.1 335 11.5 334.7 12 C 334.4 12.8 334.2 13.4 334.2 13.9 C 334.2 13.9 334.2 18.8 334.2 18.8 C 334.2 19.1 334.3 19.4 334.5 19.6 C 334.6 19.7 334.9 19.8 335.3 19.8 C 335.3 19.79 336.1 19.8 336.1 19.8 L 336.1 20.7 L 330.2 20.7 L 330.2 19.8 C 330.2 19.8 330.9 19.79 330.9 19.8 C 331.3 19.8 331.6 19.7 331.8 19.5 C 332 19.4 332.1 19.2 332.1 18.9 C 332.1 18.9 332.1 13.7 332.1 13.7 C 332.1 12.5 331.9 11.7 331.5 11.2 C 331.1 10.7 330.6 10.5 330 10.5 C 329.1 10.5 328.4 10.8 328 11.3 C 327.3 12.2 327 13.1 327 14.2 C 327 14.2 327 18.8 327 18.8 C 327 19.2 327 19.4 327.2 19.5 C 327.4 19.7 327.8 19.8 328.2 19.8 C 328.23 19.79 328.8 19.8 328.8 19.8 L 328.8 20.7 L 323.1 20.7 L 323.1 19.8 C 323.1 19.8 323.92 19.79 323.9 19.8 C 324.2 19.8 324.5 19.7 324.7 19.5 C 324.8 19.4 324.9 19.2 324.9 18.9 C 324.9 18.9 324.9 11.4 324.9 11.4 C 324.9 11 324.8 10.7 324.6 10.5 C 324.4 10.3 324 10.2 323.3 10.1 C 323.35 10.11 323.3 9.3 323.3 9.3 Z M 348.5 9.1 C 348.7 9.9 348.8 10.7 348.8 11.5 C 349.4 10.6 350 10 350.6 9.6 C 351.2 9.2 351.9 9.1 352.6 9.1 C 353.4 9.1 354.1 9.3 354.8 9.8 C 355.5 10.3 356.1 11 356.6 11.9 C 357 12.8 357.2 13.9 357.2 15 C 357.2 16.9 356.7 18.4 355.6 19.6 C 354.7 20.6 353.6 21 352.4 21 C 351.7 21 351 20.9 350.4 20.5 C 349.9 20.1 349.3 19.6 348.9 18.9 C 348.9 18.9 348.9 23.5 348.9 23.5 C 348.9 23.8 349 24.1 349.2 24.2 C 349.4 24.4 349.7 24.5 350.1 24.5 C 350.07 24.54 350.9 24.5 350.9 24.5 L 350.9 25.4 L 344.8 25.4 L 344.8 24.5 C 344.8 24.5 345.64 24.54 345.6 24.5 C 346 24.5 346.3 24.5 346.5 24.3 C 346.7 24.2 346.8 24 346.8 23.7 C 346.8 23.7 346.8 11.7 346.8 11.7 C 346.8 11.1 346.7 10.7 346.4 10.5 C 346.1 10.2 345.6 10.1 344.8 10.1 C 344.79 10.09 344.8 9.3 344.8 9.3 C 344.8 9.3 348.49 9.06 348.5 9.1 Z M 352 10.2 C 351.2 10.2 350.4 10.6 349.8 11.5 C 349.2 12.3 348.9 13.5 348.9 15.2 C 348.9 16.8 349.2 18 349.8 18.8 C 350.4 19.6 351.1 20 352 20 C 352.9 20 353.5 19.6 354 19 C 354.6 18.1 354.9 16.8 354.9 15.1 C 354.9 13.3 354.6 12.1 354.1 11.3 C 353.6 10.6 352.9 10.2 352 10.2 Z M 363.1 9.1 C 363.1 9.1 363.14 16.64 363.1 16.6 C 363.1 17.6 363.4 18.3 363.8 18.8 C 364.3 19.3 364.9 19.5 365.7 19.5 C 366.6 19.5 367.3 19.2 368 18.4 C 368.6 17.7 368.9 16.8 368.9 15.7 C 368.9 15.7 368.9 11.4 368.9 11.4 C 368.9 11 368.8 10.7 368.5 10.5 C 368.2 10.3 367.7 10.1 366.9 10.1 C 366.89 10.12 366.9 9.3 366.9 9.3 L 370.9 9.1 C 370.9 9.1 370.91 18.45 370.9 18.4 C 370.9 18.9 371 19.2 371.3 19.4 C 371.5 19.7 371.9 19.8 372.3 19.8 C 372.3 19.79 373 19.8 373 19.8 L 373 20.6 L 369.2 20.7 C 369.2 20.7 368.93 18.45 368.9 18.4 C 368.2 19.3 367.6 19.9 366.9 20.3 C 366.2 20.7 365.5 20.9 364.8 20.9 C 363.7 20.9 362.9 20.5 362.2 19.8 C 361.5 19.2 361.1 18 361.1 16.4 C 361.1 16.4 361.1 11.4 361.1 11.4 C 361.1 11 360.9 10.6 360.6 10.4 C 360.3 10.2 359.8 10.1 359.1 10.1 C 359.09 10.12 359.1 9.3 359.1 9.3 L 363.1 9.1 Z M 378 2.4 C 378 2.4 378.03 10.95 378 11 C 378.5 10.3 379 9.8 379.6 9.4 C 380.2 9.1 380.9 8.9 381.6 8.9 C 382.9 8.9 384 9.5 385 10.5 C 385.9 11.6 386.3 12.9 386.3 14.7 C 386.3 16.5 385.8 18 384.9 19.2 C 383.9 20.3 382.6 20.9 381.1 20.9 C 380.4 20.9 379.8 20.7 379.2 20.5 C 378.7 20.2 378.1 19.7 377.5 19.1 C 377 19.8 376.6 20.4 376.1 20.9 C 376.1 20.9 375.7 20.7 375.7 20.7 C 375.9 19.8 376 18.8 376 17.8 C 376 17.8 376 4.9 376 4.9 C 376 4.5 375.9 4.1 375.6 3.9 C 375.3 3.7 374.9 3.6 374.4 3.6 C 374.38 3.57 373.9 3.6 373.9 3.6 L 373.9 2.7 L 378 2.4 Z M 381.1 10 C 380.2 10 379.4 10.4 378.9 11.2 C 378.3 12 378 13.3 378 15.2 C 378 16.9 378.3 18.2 378.9 19 C 379.4 19.7 380.2 20.1 381.1 20.1 C 381.9 20.1 382.6 19.7 383.1 19 C 383.7 18 384 16.7 384 14.9 C 384 13.2 383.8 12 383.2 11.2 C 382.6 10.4 381.9 10 381.1 10 Z M 392.7 2.4 C 392.7 2.4 392.72 19.02 392.7 19 C 392.7 19.3 392.8 19.4 392.9 19.5 C 393.1 19.7 393.4 19.8 393.7 19.8 C 393.67 19.79 394.9 19.8 394.9 19.8 L 394.9 20.7 L 388.4 20.7 L 388.4 19.8 C 388.4 19.8 389.55 19.79 389.5 19.8 C 389.9 19.8 390.2 19.7 390.4 19.5 C 390.6 19.3 390.7 19.1 390.7 18.8 C 390.7 18.8 390.7 4.9 390.7 4.9 C 390.7 4.4 390.5 4.1 390.3 4 C 390 3.7 389.7 3.6 389.2 3.6 C 389.22 3.57 388.2 3.6 388.2 3.6 L 388.2 2.7 L 392.7 2.4 Z M 399.2 2.4 C 399.6 2.4 399.9 2.6 400.2 2.9 C 400.5 3.1 400.6 3.5 400.6 3.8 C 400.6 4.2 400.5 4.5 400.2 4.8 C 399.9 5.1 399.6 5.2 399.2 5.2 C 398.9 5.2 398.5 5.1 398.3 4.8 C 398 4.5 397.9 4.2 397.9 3.8 C 397.9 3.5 398 3.1 398.3 2.9 C 398.6 2.6 398.9 2.4 399.2 2.4 Z M 396.1 9.3 L 400.6 9.1 C 400.6 9.1 400.61 18.97 400.6 19 C 400.6 19.2 400.7 19.4 400.8 19.5 C 401 19.7 401.2 19.8 401.5 19.8 C 401.51 19.79 402.8 19.8 402.8 19.8 L 402.8 20.7 L 396.3 20.7 L 396.3 19.8 C 396.3 19.8 397.5 19.79 397.5 19.8 C 397.9 19.8 398.1 19.7 398.3 19.5 C 398.5 19.4 398.5 19.1 398.5 18.8 C 398.5 18.8 398.5 11.6 398.5 11.6 C 398.5 11.1 398.4 10.8 398.2 10.5 C 397.9 10.3 397.5 10.2 397 10.2 C 396.99 10.18 396.1 10.2 396.1 10.2 L 396.1 9.3 Z M 404 2.7 L 408.3 2.4 L 408.3 14.9 C 408.3 14.9 412.04 11.69 412 11.7 C 412.4 11.4 412.6 11.1 412.6 10.9 C 412.6 10.7 412.5 10.5 412.3 10.4 C 411.9 10.2 411.4 10.1 410.7 10.1 C 410.71 10.12 410.7 9.3 410.7 9.3 L 416.8 9.3 C 416.8 9.3 416.8 10.12 416.8 10.1 C 415.6 10.2 414.7 10.5 414 11.1 C 414.05 11.08 411.4 13.4 411.4 13.4 C 411.4 13.4 415.68 19.27 415.7 19.3 C 415.9 19.6 416.4 19.8 417 19.8 C 417.04 19.79 417.7 19.8 417.7 19.8 L 417.7 20.7 L 411.4 20.7 L 411.4 19.8 C 411.4 19.8 412.04 19.79 412 19.8 C 412.5 19.8 412.8 19.8 413 19.7 C 413.1 19.6 413.2 19.5 413.2 19.4 C 413.2 19.3 413.2 19.1 413.1 19 C 413.09 19.04 410 14.7 410 14.7 L 408.3 16.1 C 408.3 16.1 408.32 19.03 408.3 19 C 408.3 19.3 408.4 19.4 408.6 19.6 C 408.8 19.7 409.1 19.8 409.5 19.8 C 409.47 19.79 410.3 19.8 410.3 19.8 L 410.3 20.7 L 404.1 20.7 L 404.1 19.8 C 404.1 19.8 405.11 19.79 405.1 19.8 C 405.5 19.8 405.8 19.7 406 19.5 C 406.2 19.4 406.3 19.1 406.3 18.9 C 406.3 18.9 406.3 4.7 406.3 4.7 C 406.3 4.4 406.2 4.1 406 3.9 C 405.6 3.7 405.2 3.6 404.6 3.6 C 404.57 3.57 404 3.6 404 3.6 L 404 2.7 Z M 424.4 8.9 C 425.9 8.9 427.2 9.5 428.2 10.6 C 429.3 11.7 429.8 13.2 429.8 15 C 429.8 16.2 429.6 17.3 429.1 18.2 C 428.6 19.1 428 19.8 427.1 20.3 C 426.2 20.8 425.3 21 424.3 21 C 422.8 21 421.6 20.5 420.5 19.4 C 419.5 18.2 419 16.8 419 15 C 419 13.2 419.5 11.7 420.5 10.6 C 421.6 9.5 422.8 8.9 424.4 8.9 Z M 424.4 9.8 C 423.4 9.8 422.7 10.2 422.1 11 C 421.5 11.9 421.2 13.2 421.2 14.9 C 421.2 16.8 421.5 18.1 422.1 18.9 C 422.7 19.8 423.4 20.2 424.4 20.2 C 425.3 20.2 426.1 19.8 426.7 18.9 C 427.3 18.1 427.6 16.7 427.6 14.8 C 427.6 13 427.3 11.8 426.7 11 C 426.1 10.2 425.3 9.8 424.4 9.8 Z M 431.5 9.3 C 431.5 9.3 435.26 9.04 435.3 9 C 435.4 9.8 435.5 10.6 435.6 11.6 C 436.1 10.7 436.7 10.1 437.4 9.7 C 438.1 9.3 438.9 9.1 439.8 9.1 C 440.5 9.1 441.2 9.2 441.7 9.5 C 442.2 9.8 442.6 10.3 442.9 10.9 C 443.2 11.6 443.4 12.3 443.4 13.1 C 443.4 13.1 443.4 18.6 443.4 18.6 C 443.4 19.1 443.5 19.4 443.7 19.5 C 443.8 19.7 444.2 19.8 444.6 19.8 C 444.6 19.79 445.4 19.8 445.4 19.8 L 445.4 20.7 L 439.4 20.7 L 439.4 19.8 C 439.4 19.8 439.95 19.79 439.9 19.8 C 440.5 19.8 440.9 19.7 441.1 19.5 C 441.3 19.4 441.4 19.1 441.4 18.8 C 441.4 18.8 441.4 13.9 441.4 13.9 C 441.4 12.8 441.2 12 440.9 11.5 C 440.4 10.8 439.8 10.4 438.8 10.4 C 437.9 10.4 437.1 10.8 436.5 11.5 C 435.9 12.3 435.6 13.2 435.6 14.4 C 435.6 14.4 435.6 18.6 435.6 18.6 C 435.6 19.1 435.7 19.4 435.9 19.5 C 436.1 19.7 436.4 19.8 436.8 19.8 C 436.84 19.79 437.6 19.8 437.6 19.8 L 437.6 20.7 L 431.6 20.7 L 431.6 19.8 C 431.6 19.8 432.37 19.79 432.4 19.8 C 432.8 19.8 433.1 19.7 433.3 19.5 C 433.5 19.4 433.6 19.2 433.6 18.9 C 433.6 18.9 433.6 11.6 433.6 11.6 C 433.6 11.1 433.5 10.7 433.2 10.4 C 432.9 10.2 432.5 10.1 432.1 10.1 C 432.05 10.06 431.5 10.1 431.5 10.1 L 431.5 9.3 Z M 455.5 9.9 C 456.3 9.1 457.1 8.7 457.7 8.7 C 458.2 8.7 458.5 8.8 458.8 9.1 C 459 9.3 459.2 9.7 459.2 10 C 459.2 10.3 459.1 10.6 458.9 10.8 C 458.7 11 458.5 11.1 458.2 11.1 C 457.8 11.1 457.5 10.8 457.3 10.2 C 457.2 10 457.1 9.9 457 9.9 C 456.7 9.9 456.4 10 456.1 10.4 C 456.4 10.9 456.7 11.3 456.8 11.7 C 456.9 12 457 12.4 457 12.8 C 457 13.5 456.8 14.1 456.5 14.7 C 456.1 15.2 455.6 15.7 454.8 16.1 C 454 16.5 453.2 16.7 452.5 16.7 C 452.5 16.7 451.2 16.7 451.2 16.7 C 450.2 16.7 449.6 16.8 449.3 17 C 449 17.2 448.8 17.5 448.8 17.9 C 448.8 18.2 448.9 18.5 449.2 18.6 C 449.5 18.8 449.9 18.9 450.6 18.9 C 450.6 18.9 453.6 18.8 453.6 18.8 C 455.2 18.8 456.3 19.1 456.9 19.6 C 457.6 20.1 457.9 20.8 457.9 21.7 C 457.9 22.7 457.6 23.5 456.8 24.2 C 455.7 25.1 454.1 25.6 452 25.6 C 450.3 25.6 449 25.3 448.1 24.6 C 447.5 24.1 447.1 23.5 447.1 22.9 C 447.1 22.4 447.3 22 447.8 21.6 C 448.2 21.2 448.9 20.9 449.9 20.7 C 449.1 20.5 448.5 20.2 448.1 19.8 C 447.7 19.5 447.5 19 447.5 18.4 C 447.5 17.9 447.7 17.5 448 17.1 C 448.3 16.7 448.9 16.4 449.7 16.1 C 449 15.7 448.5 15.2 448.1 14.7 C 447.8 14.2 447.6 13.5 447.6 12.8 C 447.6 11.7 448 10.8 448.9 10.1 C 449.8 9.3 450.9 8.9 452.3 8.9 C 452.9 8.9 453.4 9 454 9.2 C 454.5 9.3 455 9.6 455.5 9.9 Z M 452.3 9.7 C 451.6 9.7 451 10 450.5 10.5 C 450 11 449.8 11.8 449.8 12.7 C 449.8 13.8 450 14.6 450.5 15.1 C 451 15.7 451.6 16 452.3 16 C 453 16 453.6 15.7 454.1 15.2 C 454.6 14.6 454.8 13.8 454.8 12.8 C 454.8 11.8 454.6 11.1 454.1 10.5 C 453.6 10 453 9.7 452.3 9.7 Z M 453 20.7 C 451.5 20.7 450.4 20.9 449.8 21.3 C 449.2 21.8 448.8 22.3 448.8 22.8 C 448.8 23.4 449.1 23.8 449.6 24.1 C 450.2 24.6 451.1 24.8 452.3 24.8 C 453.7 24.8 454.7 24.6 455.4 24.1 C 456.1 23.6 456.5 23.1 456.5 22.5 C 456.5 22.2 456.4 21.9 456.2 21.6 C 456 21.3 455.6 21.1 455.1 20.9 C 454.6 20.8 453.9 20.7 453 20.7 Z " stroke="none" fill="#000"/>
  </g>
</svg>