<?xml version="1.0" standalone="no"?>
<!DOCTYPE svg PUBLIC "-//W3C//DTD SVG 1.1//EN" "http://www.w3.org/Graphics/SVG/1.1/DTD/svg11.dtd">
<svg xmlns="http://www.w3.org/2000/svg" version="1.1" width="30px" height="24.8px" viewBox="0 -5 30 24.8" style="top:-5px">
  <desc>7</desc>
  <defs/>
  <g id="Polygon19698">
    <path d="M 8.2 0 C 8.5 0 8.6 0 8.6 0.1 C 8.6 0.2 8.5 0.3 8.5 0.4 C 7.3 2.2 4.9 8.1 4.7 10 C 4.7 10.3 4.7 10.4 4.7 10.6 C 4.7 10.9 3.5 11.5 2.8 11.5 C 2.6 11.5 2.6 11.5 2.6 11.3 C 2.6 11.2 2.6 10.9 2.7 10.7 C 3.1 9.3 5 4.8 7.1 1.4 C 7.1 1.4 3.2 1.4 3.2 1.4 C 2.8 1.4 2.2 1.4 1.8 1.6 C 1.5 1.8 1.4 2.3 1.3 2.5 C 1.3 2.7 1.3 2.7 1.2 2.7 C 1.1 2.7 1.1 2.7 1.1 2.5 C 1.1 2 1.3 0.2 1.3 0.1 C 1.3 -0.1 1.3 -0.1 1.4 -0.1 C 1.5 -0.1 1.9 0 3.5 0 C 3.5 0 8.2 0 8.2 0 Z " stroke="none" fill="#000"/>
  </g>
</svg>