<?xml version="1.0" standalone="no"?>
<!DOCTYPE svg PUBLIC "-//W3C//DTD SVG 1.1//EN" "http://www.w3.org/Graphics/SVG/1.1/DTD/svg11.dtd">
<svg xmlns="http://www.w3.org/2000/svg" version="1.1" width="27px" height="24.8px" viewBox="0 -5 27 24.8" style="top:-5px">
  <desc>6</desc>
  <defs/>
  <g id="Polygon19868">
    <path d="M 0.6 7.2 C 0.6 4.3 2.9 1.1 6.2 -0.2 C 6.3 -0.2 6.4 -0.3 6.5 -0.3 C 6.6 -0.3 6.7 -0.2 6.7 -0.1 C 6.7 0 6.5 0.1 6.3 0.2 C 4.6 1.2 2.5 3.6 2.5 7.2 C 2.5 9 3.3 10.8 4.8 10.8 C 5.8 10.8 6.7 10.1 6.7 8.3 C 6.7 6.2 5.5 5.3 4.5 5.3 C 4.2 5.3 4 5.4 3.8 5.4 C 3.6 5.5 3.5 5.5 3.4 5.5 C 3.4 5.5 3.3 5.5 3.3 5.4 C 3.3 5.3 3.4 5.2 3.5 5.1 C 3.9 4.8 4.6 4.6 5.4 4.6 C 7.5 4.6 8.5 6.3 8.5 7.6 C 8.5 10 6.8 11.5 4.6 11.5 C 2.3 11.5 0.6 9.9 0.6 7.2 Z " stroke="none" fill="#000"/>
  </g>
</svg>