<?xml version="1.0" standalone="no"?>
<!DOCTYPE svg PUBLIC "-//W3C//DTD SVG 1.1//EN" "http://www.w3.org/Graphics/SVG/1.1/DTD/svg11.dtd">
<svg xmlns="http://www.w3.org/2000/svg" version="1.1" width="77px" height="12.7px" viewBox="0 -3 77 12.7" style="top:-3px">
  <desc>BAYAN</desc>
  <defs/>
  <g id="Polygon13597">
    <path d="M 0.7 0.4 C 0.7 0.4 2.14 0.36 2.1 0.4 C 2.8 0.4 3.3 0.5 3.6 0.7 C 3.9 0.9 4.1 1.2 4.1 1.6 C 4.1 1.9 4 2.1 3.9 2.3 C 3.7 2.5 3.5 2.7 3.2 2.7 C 3.2 2.7 3.2 2.7 3.2 2.7 C 3.6 2.8 3.8 2.9 4 3.1 C 4.2 3.3 4.2 3.6 4.2 3.9 C 4.2 4.4 4.1 4.7 3.8 5 C 3.5 5.2 3 5.4 2.5 5.4 C 2.46 5.36 0.7 5.4 0.7 5.4 L 0.7 0.4 Z M 1.5 2.4 C 1.5 2.4 2.26 2.42 2.3 2.4 C 2.6 2.4 2.9 2.4 3 2.3 C 3.2 2.2 3.2 2 3.2 1.7 C 3.2 1.5 3.2 1.3 3 1.2 C 2.8 1.1 2.6 1 2.2 1 C 2.18 1.04 1.5 1 1.5 1 L 1.5 2.4 Z M 1.5 3.1 L 1.5 4.7 C 1.5 4.7 2.34 4.67 2.3 4.7 C 2.7 4.7 2.9 4.6 3.1 4.5 C 3.3 4.3 3.4 4.1 3.4 3.9 C 3.4 3.6 3.3 3.4 3.1 3.3 C 2.9 3.1 2.7 3.1 2.3 3.1 C 2.3 3.09 1.5 3.1 1.5 3.1 Z M 8.4 5.4 L 7.9 4 L 6 4 L 5.5 5.4 L 4.6 5.4 L 6.5 0.3 L 7.4 0.3 L 9.2 5.4 L 8.4 5.4 Z M 7.7 3.3 C 7.7 3.3 7.2 1.9 7.2 1.9 C 7.2 1.8 7.1 1.7 7.1 1.5 C 7 1.3 7 1.1 6.9 1 C 6.9 1.3 6.8 1.6 6.7 2 C 6.66 1.96 6.2 3.3 6.2 3.3 L 7.7 3.3 Z M 10.9 2.6 L 12.1 0.4 L 13 0.4 L 11.3 3.4 L 11.3 5.4 L 10.5 5.4 L 10.5 3.4 L 8.9 0.4 L 9.7 0.4 L 10.9 2.6 Z M 16.4 5.4 L 15.9 4 L 14 4 L 13.5 5.4 L 12.6 5.4 L 14.5 0.3 L 15.4 0.3 L 17.2 5.4 L 16.4 5.4 Z M 15.6 3.3 C 15.6 3.3 15.18 1.9 15.2 1.9 C 15.1 1.8 15.1 1.7 15 1.5 C 15 1.3 14.9 1.1 14.9 1 C 14.9 1.3 14.8 1.6 14.6 2 C 14.64 1.96 14.2 3.3 14.2 3.3 L 15.6 3.3 Z M 22.1 5.4 L 21.1 5.4 L 18.6 1.4 L 18.6 1.4 C 18.6 1.4 18.63 1.6 18.6 1.6 C 18.7 2 18.7 2.4 18.7 2.8 C 18.67 2.76 18.7 5.4 18.7 5.4 L 17.9 5.4 L 17.9 0.4 L 18.9 0.4 L 21.4 4.3 C 21.4 4.3 21.39 4.32 21.4 4.3 C 21.4 4.3 21.4 4.1 21.4 3.7 C 21.4 3.4 21.3 3.2 21.3 3 C 21.35 2.98 21.3 0.4 21.3 0.4 L 22.1 0.4 L 22.1 5.4 Z " stroke="none" fill="#fff"/>
  </g>
</svg>