<?xml version="1.0" standalone="no"?>
<!DOCTYPE svg PUBLIC "-//W3C//DTD SVG 1.1//EN" "http://www.w3.org/Graphics/SVG/1.1/DTD/svg11.dtd">
<svg xmlns="http://www.w3.org/2000/svg" version="1.1" width="268px" height="25.5px" viewBox="0 -3 268 25.5" style="top:-3px">
  <desc>Mary Joyce Bicalan, Cholo Yrrge Famucol, at Kairo warren roldan</desc>
  <defs/>
  <g id="Polygon21856">
    <path d="M 2.9 5.6 L 1.6 1.3 L 1.6 5.6 L 0.5 5.6 L 0.5 0.3 L 2.5 0.3 L 3.4 3.5 L 4.4 0.3 L 6.4 0.3 L 6.4 5.6 L 5.1 5.6 L 5.1 1.3 L 3.8 5.6 L 2.9 5.6 Z M 10 0.3 L 11.7 5.6 L 10.4 5.6 L 10 4.5 L 8.3 4.5 L 8 5.6 L 6.9 5.6 L 8.6 0.3 L 10 0.3 Z M 8.6 3.5 L 9.7 3.5 L 9.2 1.6 L 8.6 3.5 Z M 13.5 3.5 L 13.5 5.6 L 12.3 5.6 L 12.3 0.3 C 12.3 0.3 14.62 0.27 14.6 0.3 C 15.1 0.3 15.4 0.3 15.7 0.4 C 15.9 0.5 16.1 0.7 16.3 1 C 16.5 1.2 16.6 1.5 16.6 1.9 C 16.6 2.5 16.3 3 15.6 3.2 C 15.64 3.24 16.6 5.6 16.6 5.6 L 15.2 5.6 L 14.4 3.5 L 13.5 3.5 Z M 13.5 1.2 L 13.5 2.6 C 13.5 2.6 14.3 2.58 14.3 2.6 C 14.6 2.6 14.7 2.6 14.8 2.5 C 15 2.5 15.1 2.4 15.1 2.3 C 15.2 2.2 15.3 2 15.3 1.9 C 15.3 1.7 15.2 1.6 15.1 1.5 C 15.1 1.4 15 1.3 14.9 1.3 C 14.8 1.2 14.6 1.2 14.3 1.2 C 14.27 1.22 13.5 1.2 13.5 1.2 Z M 21.3 0.3 L 19.6 3.4 L 19.6 5.6 L 18.3 5.6 L 18.3 3.4 L 16.7 0.3 L 18.1 0.3 L 19.1 2.3 L 20.1 0.3 L 21.3 0.3 Z M 25.1 0.3 C 25.1 0.3 25.13 4.07 25.1 4.1 C 25.1 4.6 25 5 24.7 5.3 C 24.5 5.6 24.1 5.7 23.5 5.7 C 23.2 5.7 22.9 5.7 22.6 5.6 C 22.6 5.6 22.6 4.6 22.6 4.6 C 22.9 4.6 23.1 4.6 23.3 4.6 C 23.4 4.6 23.5 4.6 23.6 4.5 C 23.7 4.5 23.8 4.4 23.8 4.3 C 23.9 4.3 23.9 4.1 23.9 3.9 C 23.88 3.92 23.9 0.3 23.9 0.3 L 25.1 0.3 Z M 28.1 5.7 C 27.4 5.7 26.9 5.4 26.5 4.9 C 26.1 4.3 25.9 3.7 25.9 2.9 C 25.9 2.1 26.1 1.5 26.5 1 C 26.9 0.4 27.5 0.2 28.2 0.2 C 28.9 0.2 29.5 0.5 29.9 1 C 30.3 1.6 30.4 2.2 30.4 2.9 C 30.4 3.7 30.2 4.4 29.9 4.9 C 29.5 5.4 28.9 5.7 28.1 5.7 Z M 29.1 2.9 C 29.1 1.8 28.8 1.2 28.2 1.2 C 27.5 1.2 27.2 1.8 27.2 2.9 C 27.2 4.1 27.5 4.7 28.2 4.7 C 28.8 4.7 29.1 4.1 29.1 2.9 C 29.1 2.9 29.1 2.9 29.1 2.9 Z M 34.9 0.3 L 33.2 3.4 L 33.2 5.6 L 32 5.6 L 32 3.4 L 30.3 0.3 L 31.8 0.3 L 32.8 2.3 L 33.8 0.3 L 34.9 0.3 Z M 37.2 0.2 C 38.5 0.2 39.2 0.9 39.3 2.3 C 39.3 2.3 38 2.3 38 2.3 C 38 1.6 37.7 1.2 37.2 1.2 C 36.5 1.2 36.2 1.8 36.2 2.9 C 36.2 3.6 36.3 4.1 36.4 4.3 C 36.6 4.5 36.9 4.7 37.2 4.7 C 37.7 4.7 38 4.3 38.1 3.7 C 38.1 3.7 39.3 3.7 39.3 3.7 C 39.3 4.4 39 4.9 38.6 5.2 C 38.2 5.5 37.8 5.7 37.2 5.7 C 36.5 5.7 35.9 5.4 35.5 5 C 35 4.5 34.8 3.8 34.8 2.9 C 34.8 2.1 35 1.5 35.4 1 C 35.9 0.4 36.4 0.2 37.2 0.2 C 37.2 0.2 37.2 0.2 37.2 0.2 Z M 43.9 1.3 L 41.3 1.3 L 41.3 2.4 L 43.3 2.4 L 43.3 3.4 L 41.3 3.4 L 41.3 4.5 L 43.9 4.5 L 43.9 5.6 L 40.1 5.6 L 40.1 0.3 L 43.9 0.3 L 43.9 1.3 Z M 46.1 0.3 C 46.1 0.3 48.62 0.27 48.6 0.3 C 49.1 0.3 49.4 0.3 49.6 0.4 C 49.8 0.5 50 0.7 50.2 0.9 C 50.3 1.1 50.4 1.4 50.4 1.6 C 50.4 2.2 50.1 2.6 49.4 2.8 C 49.8 2.9 50.1 3.1 50.3 3.3 C 50.5 3.6 50.5 3.8 50.5 4.1 C 50.5 4.5 50.4 4.9 50.1 5.2 C 49.8 5.5 49.3 5.6 48.6 5.6 C 48.62 5.6 46.1 5.6 46.1 5.6 L 46.1 0.3 Z M 47.4 1.2 L 47.4 2.4 C 47.4 2.4 48.33 2.38 48.3 2.4 C 48.7 2.4 48.9 2.3 49 2.2 C 49.1 2 49.1 1.9 49.1 1.8 C 49.1 1.6 49.1 1.5 49 1.4 C 48.9 1.3 48.8 1.3 48.8 1.2 C 48.7 1.2 48.5 1.2 48.2 1.2 C 48.24 1.21 47.4 1.2 47.4 1.2 Z M 47.4 3.3 L 47.4 4.6 C 47.4 4.6 48.34 4.61 48.3 4.6 C 48.7 4.6 48.9 4.6 49 4.4 C 49.2 4.3 49.2 4.2 49.2 4 C 49.2 3.8 49.2 3.6 49 3.5 C 48.9 3.4 48.7 3.3 48.4 3.3 C 48.39 3.33 47.4 3.3 47.4 3.3 Z M 52.6 0.3 L 52.6 5.6 L 51.3 5.6 L 51.3 0.3 L 52.6 0.3 Z M 55.8 0.2 C 57.1 0.2 57.8 0.9 58 2.3 C 58 2.3 56.7 2.3 56.7 2.3 C 56.6 1.6 56.3 1.2 55.8 1.2 C 55.1 1.2 54.8 1.8 54.8 2.9 C 54.8 3.6 54.9 4.1 55.1 4.3 C 55.2 4.5 55.5 4.7 55.8 4.7 C 56.3 4.7 56.6 4.3 56.8 3.7 C 56.8 3.7 58 3.7 58 3.7 C 57.9 4.4 57.6 4.9 57.3 5.2 C 56.9 5.5 56.4 5.7 55.8 5.7 C 55.1 5.7 54.5 5.4 54.1 5 C 53.6 4.5 53.4 3.8 53.4 2.9 C 53.4 2.1 53.6 1.5 54 1 C 54.5 0.4 55.1 0.2 55.8 0.2 C 55.8 0.2 55.8 0.2 55.8 0.2 Z M 61.2 0.3 L 62.9 5.6 L 61.6 5.6 L 61.2 4.5 L 59.5 4.5 L 59.2 5.6 L 58.1 5.6 L 59.8 0.3 L 61.2 0.3 Z M 59.8 3.5 L 61 3.5 L 60.4 1.6 L 59.8 3.5 Z M 64.8 4.5 L 66.9 4.5 L 66.9 5.6 L 63.5 5.6 L 63.5 0.3 L 64.8 0.3 L 64.8 4.5 Z M 70.1 0.3 L 71.8 5.6 L 70.5 5.6 L 70.1 4.5 L 68.4 4.5 L 68.1 5.6 L 67 5.6 L 68.7 0.3 L 70.1 0.3 Z M 68.7 3.5 L 69.8 3.5 L 69.3 1.6 L 68.7 3.5 Z M 76.5 0.3 L 76.5 5.6 L 75.4 5.6 C 75.4 5.6 73.33 2 73.3 2 C 73.3 2.1 73.3 2.2 73.3 2.2 C 73.3 2.3 73.4 2.3 73.4 2.4 C 73.35 2.41 73.4 5.6 73.4 5.6 L 72.4 5.6 L 72.4 0.3 L 73.7 0.3 C 73.7 0.3 75.54 3.41 75.5 3.4 C 75.5 3.3 75.5 3.1 75.5 3.1 C 75.52 3.06 75.5 0.3 75.5 0.3 L 76.5 0.3 Z M 78.7 4.4 L 78.7 5.5 L 77.9 6.8 L 77.5 6.8 L 78.1 5.6 L 77.5 5.6 L 77.5 4.4 L 78.7 4.4 Z M 83.3 0.2 C 84.6 0.2 85.3 0.9 85.5 2.3 C 85.5 2.3 84.2 2.3 84.2 2.3 C 84.2 1.6 83.9 1.2 83.3 1.2 C 82.6 1.2 82.3 1.8 82.3 2.9 C 82.3 3.6 82.4 4.1 82.6 4.3 C 82.8 4.5 83 4.7 83.3 4.7 C 83.8 4.7 84.2 4.3 84.3 3.7 C 84.3 3.7 85.5 3.7 85.5 3.7 C 85.4 4.4 85.2 4.9 84.8 5.2 C 84.4 5.5 83.9 5.7 83.3 5.7 C 82.6 5.7 82 5.4 81.6 5 C 81.2 4.5 80.9 3.8 80.9 2.9 C 80.9 2.1 81.1 1.5 81.6 1 C 82 0.4 82.6 0.2 83.3 0.2 C 83.3 0.2 83.3 0.2 83.3 0.2 Z M 90.3 0.3 L 90.3 5.6 L 89.1 5.6 L 89.1 3.4 L 87.4 3.4 L 87.4 5.6 L 86.2 5.6 L 86.2 0.3 L 87.4 0.3 L 87.4 2.3 L 89.1 2.3 L 89.1 0.3 L 90.3 0.3 Z M 93.4 5.7 C 92.7 5.7 92.1 5.4 91.7 4.9 C 91.3 4.3 91.1 3.7 91.1 2.9 C 91.1 2.1 91.3 1.5 91.7 1 C 92.1 0.4 92.7 0.2 93.4 0.2 C 94.2 0.2 94.7 0.5 95.1 1 C 95.5 1.6 95.7 2.2 95.7 2.9 C 95.7 3.7 95.5 4.4 95.1 4.9 C 94.7 5.4 94.1 5.7 93.4 5.7 Z M 94.4 2.9 C 94.4 1.8 94.1 1.2 93.4 1.2 C 92.8 1.2 92.4 1.8 92.4 2.9 C 92.4 4.1 92.8 4.7 93.4 4.7 C 94.1 4.7 94.4 4.1 94.4 2.9 C 94.4 2.9 94.4 2.9 94.4 2.9 Z M 97.8 4.5 L 99.9 4.5 L 99.9 5.6 L 96.5 5.6 L 96.5 0.3 L 97.8 0.3 L 97.8 4.5 Z M 102.5 5.7 C 101.7 5.7 101.2 5.4 100.8 4.9 C 100.4 4.3 100.2 3.7 100.2 2.9 C 100.2 2.1 100.4 1.5 100.8 1 C 101.2 0.4 101.8 0.2 102.5 0.2 C 103.2 0.2 103.8 0.5 104.2 1 C 104.6 1.6 104.8 2.2 104.8 2.9 C 104.8 3.7 104.6 4.4 104.2 4.9 C 103.8 5.4 103.2 5.7 102.5 5.7 Z M 103.4 2.9 C 103.4 1.8 103.1 1.2 102.5 1.2 C 101.8 1.2 101.5 1.8 101.5 2.9 C 101.5 4.1 101.8 4.7 102.5 4.7 C 103.1 4.7 103.4 4.1 103.4 2.9 C 103.4 2.9 103.4 2.9 103.4 2.9 Z M 110.9 0.3 L 109.3 3.4 L 109.3 5.6 L 108 5.6 L 108 3.4 L 106.3 0.3 L 107.8 0.3 L 108.8 2.3 L 109.8 0.3 L 110.9 0.3 Z M 112.5 3.5 L 112.5 5.6 L 111.3 5.6 L 111.3 0.3 C 111.3 0.3 113.59 0.27 113.6 0.3 C 114 0.3 114.4 0.3 114.6 0.4 C 114.9 0.5 115.1 0.7 115.3 1 C 115.5 1.2 115.5 1.5 115.5 1.9 C 115.5 2.5 115.2 3 114.6 3.2 C 114.62 3.24 115.6 5.6 115.6 5.6 L 114.2 5.6 L 113.4 3.5 L 112.5 3.5 Z M 112.5 1.2 L 112.5 2.6 C 112.5 2.6 113.27 2.58 113.3 2.6 C 113.5 2.6 113.7 2.6 113.8 2.5 C 113.9 2.5 114 2.4 114.1 2.3 C 114.2 2.2 114.3 2 114.3 1.9 C 114.3 1.7 114.2 1.6 114.1 1.5 C 114 1.4 113.9 1.3 113.8 1.3 C 113.7 1.2 113.5 1.2 113.2 1.2 C 113.25 1.22 112.5 1.2 112.5 1.2 Z M 117.8 3.5 L 117.8 5.6 L 116.5 5.6 L 116.5 0.3 C 116.5 0.3 118.85 0.27 118.9 0.3 C 119.3 0.3 119.6 0.3 119.9 0.4 C 120.2 0.5 120.4 0.7 120.5 1 C 120.7 1.2 120.8 1.5 120.8 1.9 C 120.8 2.5 120.5 3 119.9 3.2 C 119.88 3.24 120.9 5.6 120.9 5.6 L 119.5 5.6 L 118.7 3.5 L 117.8 3.5 Z M 117.8 1.2 L 117.8 2.6 C 117.8 2.6 118.53 2.58 118.5 2.6 C 118.8 2.6 119 2.6 119.1 2.5 C 119.2 2.5 119.3 2.4 119.4 2.3 C 119.5 2.2 119.5 2 119.5 1.9 C 119.5 1.7 119.5 1.6 119.4 1.5 C 119.3 1.4 119.2 1.3 119.1 1.3 C 119 1.2 118.8 1.2 118.5 1.2 C 118.5 1.22 117.8 1.2 117.8 1.2 Z M 125.8 2.8 L 125.8 5.6 C 125.8 5.6 125.24 5.6 125.2 5.6 C 125.2 5.4 125.1 5.2 125.1 5 C 124.7 5.5 124.2 5.7 123.6 5.7 C 122.9 5.7 122.4 5.4 122 4.9 C 121.6 4.4 121.4 3.8 121.4 3 C 121.4 2.2 121.6 1.5 122 1 C 122.4 0.4 123 0.2 123.7 0.2 C 124.3 0.2 124.8 0.4 125.1 0.7 C 125.5 1 125.7 1.5 125.8 2 C 125.8 2 124.6 2.2 124.6 2.2 C 124.5 1.5 124.2 1.2 123.7 1.2 C 123.4 1.2 123.1 1.4 122.9 1.7 C 122.8 2 122.7 2.4 122.7 3 C 122.7 3.5 122.8 3.9 123 4.2 C 123.1 4.5 123.4 4.7 123.8 4.7 C 124 4.7 124.2 4.6 124.4 4.4 C 124.5 4.3 124.6 4.1 124.6 3.7 C 124.63 3.75 123.6 3.7 123.6 3.7 L 123.6 2.8 L 125.8 2.8 Z M 130.6 1.3 L 128.1 1.3 L 128.1 2.4 L 130.1 2.4 L 130.1 3.4 L 128.1 3.4 L 128.1 4.5 L 130.6 4.5 L 130.6 5.6 L 126.8 5.6 L 126.8 0.3 L 130.6 0.3 L 130.6 1.3 Z M 136.7 1.3 L 134.2 1.3 L 134.2 2.5 L 136.1 2.5 L 136.1 3.5 L 134.2 3.5 L 134.2 5.6 L 132.9 5.6 L 132.9 0.3 L 136.7 0.3 L 136.7 1.3 Z M 139.6 0.3 L 141.3 5.6 L 139.9 5.6 L 139.6 4.5 L 137.9 4.5 L 137.5 5.6 L 136.4 5.6 L 138.2 0.3 L 139.6 0.3 Z M 138.2 3.5 L 139.3 3.5 L 138.7 1.6 L 138.2 3.5 Z M 144.2 5.6 L 142.9 1.3 L 142.9 5.6 L 141.8 5.6 L 141.8 0.3 L 143.8 0.3 L 144.7 3.5 L 145.7 0.3 L 147.7 0.3 L 147.7 5.6 L 146.4 5.6 L 146.4 1.3 L 145.1 5.6 L 144.2 5.6 Z M 152.9 0.3 C 152.9 0.3 152.93 3.59 152.9 3.6 C 152.9 4.1 152.9 4.5 152.7 4.8 C 152.6 5 152.4 5.3 152.1 5.4 C 151.7 5.6 151.3 5.7 150.8 5.7 C 150.3 5.7 149.9 5.6 149.6 5.5 C 149.3 5.3 149 5.1 148.9 4.8 C 148.7 4.5 148.7 4.1 148.7 3.6 C 148.67 3.59 148.7 0.3 148.7 0.3 L 150 0.3 C 150 0.3 150.02 3.59 150 3.6 C 150 3.9 150 4.1 150.1 4.2 C 150.1 4.4 150.2 4.5 150.4 4.5 C 150.5 4.6 150.7 4.7 150.9 4.7 C 151.2 4.7 151.3 4.6 151.5 4.5 C 151.6 4.5 151.7 4.4 151.8 4.2 C 151.8 4.1 151.9 3.9 151.9 3.6 C 151.86 3.59 151.9 0.3 151.9 0.3 L 152.9 0.3 Z M 156.1 0.2 C 157.3 0.2 158.1 0.9 158.2 2.3 C 158.2 2.3 156.9 2.3 156.9 2.3 C 156.9 1.6 156.6 1.2 156 1.2 C 155.4 1.2 155.1 1.8 155.1 2.9 C 155.1 3.6 155.1 4.1 155.3 4.3 C 155.5 4.5 155.7 4.7 156.1 4.7 C 156.6 4.7 156.9 4.3 157 3.7 C 157 3.7 158.2 3.7 158.2 3.7 C 158.1 4.4 157.9 4.9 157.5 5.2 C 157.1 5.5 156.6 5.7 156 5.7 C 155.3 5.7 154.8 5.4 154.3 5 C 153.9 4.5 153.7 3.8 153.7 2.9 C 153.7 2.1 153.9 1.5 154.3 1 C 154.7 0.4 155.3 0.2 156.1 0.2 C 156.1 0.2 156.1 0.2 156.1 0.2 Z M 160.9 5.7 C 160.2 5.7 159.7 5.4 159.3 4.9 C 158.9 4.3 158.7 3.7 158.7 2.9 C 158.7 2.1 158.9 1.5 159.3 1 C 159.7 0.4 160.2 0.2 161 0.2 C 161.7 0.2 162.3 0.5 162.7 1 C 163 1.6 163.2 2.2 163.2 2.9 C 163.2 3.7 163 4.4 162.6 4.9 C 162.3 5.4 161.7 5.7 160.9 5.7 Z M 161.9 2.9 C 161.9 1.8 161.6 1.2 161 1.2 C 160.3 1.2 160 1.8 160 2.9 C 160 4.1 160.3 4.7 161 4.7 C 161.6 4.7 161.9 4.1 161.9 2.9 C 161.9 2.9 161.9 2.9 161.9 2.9 Z M 165.3 4.5 L 167.4 4.5 L 167.4 5.6 L 164.1 5.6 L 164.1 0.3 L 165.3 0.3 L 165.3 4.5 Z M 169.2 4.4 L 169.2 5.5 L 168.4 6.8 L 168 6.8 L 168.6 5.6 L 168 5.6 L 168 4.4 L 169.2 4.4 Z M 174.3 0.3 L 175.9 5.6 L 174.6 5.6 L 174.3 4.5 L 172.5 4.5 L 172.2 5.6 L 171.1 5.6 L 172.8 0.3 L 174.3 0.3 Z M 172.8 3.5 L 174 3.5 L 173.4 1.6 L 172.8 3.5 Z M 179.5 0.3 L 179.5 1.3 L 178.2 1.3 L 178.2 5.6 L 176.9 5.6 L 176.9 1.3 L 175.6 1.3 L 175.6 0.3 L 179.5 0.3 Z M 182.8 0.3 L 182.8 2.8 L 184.4 0.3 L 185.6 0.3 L 184.3 2.2 L 185.9 5.6 L 184.6 5.6 L 183.5 3.3 L 182.8 4.4 L 182.8 5.6 L 181.5 5.6 L 181.5 0.3 L 182.8 0.3 Z M 189.2 0.3 L 190.9 5.6 L 189.5 5.6 L 189.2 4.5 L 187.5 4.5 L 187.1 5.6 L 186 5.6 L 187.7 0.3 L 189.2 0.3 Z M 187.8 3.5 L 188.9 3.5 L 188.3 1.6 L 187.8 3.5 Z M 192.7 0.3 L 192.7 5.6 L 191.4 5.6 L 191.4 0.3 L 192.7 0.3 Z M 195 3.5 L 195 5.6 L 193.8 5.6 L 193.8 0.3 C 193.8 0.3 196.1 0.27 196.1 0.3 C 196.5 0.3 196.9 0.3 197.1 0.4 C 197.4 0.5 197.6 0.7 197.8 1 C 198 1.2 198 1.5 198 1.9 C 198 2.5 197.7 3 197.1 3.2 C 197.12 3.24 198.1 5.6 198.1 5.6 L 196.7 5.6 L 195.9 3.5 L 195 3.5 Z M 195 1.2 L 195 2.6 C 195 2.6 195.78 2.58 195.8 2.6 C 196 2.6 196.2 2.6 196.3 2.5 C 196.4 2.5 196.5 2.4 196.6 2.3 C 196.7 2.2 196.8 2 196.8 1.9 C 196.8 1.7 196.7 1.6 196.6 1.5 C 196.5 1.4 196.4 1.3 196.3 1.3 C 196.2 1.2 196 1.2 195.7 1.2 C 195.75 1.22 195 1.2 195 1.2 Z M 200.9 5.7 C 200.2 5.7 199.6 5.4 199.2 4.9 C 198.8 4.3 198.7 3.7 198.7 2.9 C 198.7 2.1 198.8 1.5 199.2 1 C 199.6 0.4 200.2 0.2 200.9 0.2 C 201.7 0.2 202.3 0.5 202.6 1 C 203 1.6 203.2 2.2 203.2 2.9 C 203.2 3.7 203 4.4 202.6 4.9 C 202.2 5.4 201.7 5.7 200.9 5.7 Z M 201.9 2.9 C 201.9 1.8 201.6 1.2 200.9 1.2 C 200.3 1.2 200 1.8 200 2.9 C 200 4.1 200.3 4.7 200.9 4.7 C 201.6 4.7 201.9 4.1 201.9 2.9 C 201.9 2.9 201.9 2.9 201.9 2.9 Z M 211.9 0.3 L 210.6 5.6 L 209.4 5.6 L 208.5 2.1 L 207.6 5.6 L 206.4 5.6 L 205 0.3 L 206.3 0.3 C 206.3 0.3 207.06 3.52 207.1 3.5 C 207.1 3.5 207.1 3.6 207.1 3.7 C 207.1 3.7 207.1 3.8 207.1 3.9 C 207.14 3.86 208 0.3 208 0.3 L 209.2 0.3 C 209.2 0.3 210.07 3.86 210.1 3.9 C 210.1 3.8 210.1 3.7 210.1 3.5 C 210.14 3.52 210.9 0.3 210.9 0.3 L 211.9 0.3 Z M 214.9 0.3 L 216.6 5.6 L 215.2 5.6 L 214.9 4.5 L 213.2 4.5 L 212.8 5.6 L 211.7 5.6 L 213.5 0.3 L 214.9 0.3 Z M 213.5 3.5 L 214.6 3.5 L 214 1.6 L 213.5 3.5 Z M 218.4 3.5 L 218.4 5.6 L 217.1 5.6 L 217.1 0.3 C 217.1 0.3 219.49 0.27 219.5 0.3 C 219.9 0.3 220.3 0.3 220.5 0.4 C 220.8 0.5 221 0.7 221.2 1 C 221.4 1.2 221.4 1.5 221.4 1.9 C 221.4 2.5 221.1 3 220.5 3.2 C 220.51 3.24 221.5 5.6 221.5 5.6 L 220.1 5.6 L 219.3 3.5 L 218.4 3.5 Z M 218.4 1.2 L 218.4 2.6 C 218.4 2.6 219.17 2.58 219.2 2.6 C 219.4 2.6 219.6 2.6 219.7 2.5 C 219.8 2.5 219.9 2.4 220 2.3 C 220.1 2.2 220.1 2 220.1 1.9 C 220.1 1.7 220.1 1.6 220 1.5 C 219.9 1.4 219.8 1.3 219.7 1.3 C 219.6 1.2 219.4 1.2 219.1 1.2 C 219.14 1.22 218.4 1.2 218.4 1.2 Z M 223.7 3.5 L 223.7 5.6 L 222.4 5.6 L 222.4 0.3 C 222.4 0.3 224.75 0.27 224.7 0.3 C 225.2 0.3 225.5 0.3 225.8 0.4 C 226.1 0.5 226.3 0.7 226.4 1 C 226.6 1.2 226.7 1.5 226.7 1.9 C 226.7 2.5 226.4 3 225.8 3.2 C 225.77 3.24 226.8 5.6 226.8 5.6 L 225.4 5.6 L 224.6 3.5 L 223.7 3.5 Z M 223.7 1.2 L 223.7 2.6 C 223.7 2.6 224.43 2.58 224.4 2.6 C 224.7 2.6 224.9 2.6 225 2.5 C 225.1 2.5 225.2 2.4 225.3 2.3 C 225.4 2.2 225.4 2 225.4 1.9 C 225.4 1.7 225.4 1.6 225.3 1.5 C 225.2 1.4 225.1 1.3 225 1.3 C 224.9 1.2 224.7 1.2 224.4 1.2 C 224.4 1.22 223.7 1.2 223.7 1.2 Z M 231.5 1.3 L 228.9 1.3 L 228.9 2.4 L 230.9 2.4 L 230.9 3.4 L 228.9 3.4 L 228.9 4.5 L 231.5 4.5 L 231.5 5.6 L 227.7 5.6 L 227.7 0.3 L 231.5 0.3 L 231.5 1.3 Z M 236.3 0.3 L 236.3 5.6 L 235.3 5.6 C 235.3 5.6 233.17 2 233.2 2 C 233.2 2.1 233.2 2.2 233.2 2.2 C 233.2 2.3 233.2 2.3 233.2 2.4 C 233.19 2.41 233.2 5.6 233.2 5.6 L 232.2 5.6 L 232.2 0.3 L 233.6 0.3 C 233.6 0.3 235.38 3.41 235.4 3.4 C 235.4 3.3 235.4 3.1 235.4 3.1 C 235.36 3.06 235.4 0.3 235.4 0.3 L 236.3 0.3 Z M 240.2 3.5 L 240.2 5.6 L 238.9 5.6 L 238.9 0.3 C 238.9 0.3 241.25 0.27 241.2 0.3 C 241.7 0.3 242 0.3 242.3 0.4 C 242.5 0.5 242.8 0.7 242.9 1 C 243.1 1.2 243.2 1.5 243.2 1.9 C 243.2 2.5 242.9 3 242.3 3.2 C 242.27 3.24 243.3 5.6 243.3 5.6 L 241.9 5.6 L 241.1 3.5 L 240.2 3.5 Z M 240.2 1.2 L 240.2 2.6 C 240.2 2.6 240.93 2.58 240.9 2.6 C 241.2 2.6 241.4 2.6 241.5 2.5 C 241.6 2.5 241.7 2.4 241.8 2.3 C 241.9 2.2 241.9 2 241.9 1.9 C 241.9 1.7 241.9 1.6 241.8 1.5 C 241.7 1.4 241.6 1.3 241.5 1.3 C 241.4 1.2 241.2 1.2 240.9 1.2 C 240.9 1.22 240.2 1.2 240.2 1.2 Z M 246.1 5.7 C 245.3 5.7 244.8 5.4 244.4 4.9 C 244 4.3 243.8 3.7 243.8 2.9 C 243.8 2.1 244 1.5 244.4 1 C 244.8 0.4 245.4 0.2 246.1 0.2 C 246.8 0.2 247.4 0.5 247.8 1 C 248.2 1.6 248.4 2.2 248.4 2.9 C 248.4 3.7 248.2 4.4 247.8 4.9 C 247.4 5.4 246.8 5.7 246.1 5.7 Z M 247 2.9 C 247 1.8 246.7 1.2 246.1 1.2 C 245.4 1.2 245.1 1.8 245.1 2.9 C 245.1 4.1 245.4 4.7 246.1 4.7 C 246.7 4.7 247 4.1 247 2.9 C 247 2.9 247 2.9 247 2.9 Z M 250.4 4.5 L 252.6 4.5 L 252.6 5.6 L 249.2 5.6 L 249.2 0.3 L 250.4 0.3 L 250.4 4.5 Z M 253.2 0.3 C 253.2 0.3 254.82 0.27 254.8 0.3 C 255.5 0.3 256 0.4 256.3 0.5 C 256.6 0.7 256.9 1 257.2 1.4 C 257.4 1.8 257.6 2.3 257.6 2.9 C 257.6 3.7 257.3 4.3 256.9 4.8 C 256.4 5.3 255.8 5.6 255 5.6 C 255.03 5.6 253.2 5.6 253.2 5.6 L 253.2 0.3 Z M 254.4 1.3 L 254.4 4.6 C 254.4 4.6 254.94 4.6 254.9 4.6 C 255.4 4.6 255.7 4.4 256 4.1 C 256.2 3.7 256.3 3.3 256.3 2.9 C 256.3 2.6 256.2 2.3 256.1 2 C 256 1.7 255.8 1.5 255.6 1.4 C 255.4 1.3 255.2 1.3 254.9 1.3 C 254.95 1.25 254.4 1.3 254.4 1.3 Z M 260.8 0.3 L 262.5 5.6 L 261.1 5.6 L 260.8 4.5 L 259.1 4.5 L 258.8 5.6 L 257.7 5.6 L 259.4 0.3 L 260.8 0.3 Z M 259.4 3.5 L 260.5 3.5 L 260 1.6 L 259.4 3.5 Z M 267.2 0.3 L 267.2 5.6 L 266.1 5.6 C 266.1 5.6 264.01 2 264 2 C 264 2.1 264 2.2 264 2.2 C 264 2.3 264 2.3 264 2.4 C 264.04 2.41 264 5.6 264 5.6 L 263.1 5.6 L 263.1 0.3 L 264.4 0.3 C 264.4 0.3 266.22 3.41 266.2 3.4 C 266.2 3.3 266.2 3.1 266.2 3.1 C 266.2 3.06 266.2 0.3 266.2 0.3 L 267.2 0.3 Z " stroke="none" fill="#000"/>
  </g>
</svg>