<?xml version="1.0" standalone="no"?>
<!DOCTYPE svg PUBLIC "-//W3C//DTD SVG 1.1//EN" "http://www.w3.org/Graphics/SVG/1.1/DTD/svg11.dtd">
<svg xmlns="http://www.w3.org/2000/svg" version="1.1" width="145.2px" height="24.5px" viewBox="0 -3 145.2 24.5" style="top:-3px">
  <desc>Chrishna Dela Peña, Ian Najera, at Alyssa Gaile Vicente</desc>
  <defs/>
  <g id="Polygon38672">
    <path d="M 3.2 11.3 L 4.8 16.6 L 3.5 16.6 L 3.2 15.5 L 1.4 15.5 L 1.1 16.6 L 0 16.6 L 1.7 11.3 L 3.2 11.3 Z M 1.7 14.5 L 2.9 14.5 L 2.3 12.6 L 1.7 14.5 Z M 8.7 11.3 L 8.7 12.3 L 7.4 12.3 L 7.4 16.6 L 6.1 16.6 L 6.1 12.3 L 4.8 12.3 L 4.8 11.3 L 8.7 11.3 Z M 14.5 11.3 L 16.2 16.6 L 14.8 16.6 L 14.5 15.5 L 12.8 15.5 L 12.4 16.6 L 11.3 16.6 L 13 11.3 L 14.5 11.3 Z M 13.1 14.5 L 14.2 14.5 L 13.6 12.6 L 13.1 14.5 Z M 18.3 15.5 L 20.4 15.5 L 20.4 16.6 L 17 16.6 L 17 11.3 L 18.3 11.3 L 18.3 15.5 Z M 24.7 11.3 L 23.1 14.4 L 23.1 16.6 L 21.8 16.6 L 21.8 14.4 L 20.1 11.3 L 21.6 11.3 L 22.6 13.3 L 23.6 11.3 L 24.7 11.3 Z M 27 11.2 C 28.1 11.2 28.7 11.6 29 12.4 C 29 12.4 28 12.8 28 12.8 C 27.8 12.4 27.5 12.2 27.1 12.2 C 26.6 12.2 26.3 12.3 26.3 12.6 C 26.3 12.8 26.4 12.9 26.5 13 C 26.5 13.1 26.8 13.1 27.1 13.2 C 27.6 13.3 28 13.4 28.3 13.5 C 28.5 13.6 28.7 13.8 28.9 14.1 C 29.1 14.3 29.2 14.6 29.2 14.9 C 29.2 15.4 29 15.8 28.6 16.2 C 28.2 16.5 27.7 16.7 27 16.7 C 26.4 16.7 26 16.6 25.6 16.3 C 25.2 16.1 24.9 15.7 24.8 15.2 C 24.8 15.2 26 14.9 26 14.9 C 26.1 15.4 26.5 15.7 27.1 15.7 C 27.3 15.7 27.6 15.6 27.7 15.5 C 27.8 15.4 27.9 15.3 27.9 15.1 C 27.9 15 27.8 14.8 27.7 14.8 C 27.6 14.7 27.3 14.6 27 14.5 C 26.3 14.4 25.8 14.2 25.5 13.9 C 25.2 13.7 25.1 13.3 25.1 12.9 C 25.1 12.4 25.3 12 25.6 11.7 C 26 11.4 26.4 11.2 27 11.2 C 27 11.2 27 11.2 27 11.2 Z M 32 11.2 C 33 11.2 33.7 11.6 34 12.4 C 34 12.4 32.9 12.8 32.9 12.8 C 32.8 12.4 32.5 12.2 32 12.2 C 31.5 12.2 31.3 12.3 31.3 12.6 C 31.3 12.8 31.3 12.9 31.4 13 C 31.5 13.1 31.7 13.1 32 13.2 C 32.6 13.3 33 13.4 33.2 13.5 C 33.5 13.6 33.7 13.8 33.9 14.1 C 34.1 14.3 34.1 14.6 34.1 14.9 C 34.1 15.4 34 15.8 33.6 16.2 C 33.2 16.5 32.7 16.7 31.9 16.7 C 31.4 16.7 30.9 16.6 30.5 16.3 C 30.2 16.1 29.9 15.7 29.8 15.2 C 29.8 15.2 30.9 14.9 30.9 14.9 C 31.1 15.4 31.4 15.7 32 15.7 C 32.3 15.7 32.5 15.6 32.7 15.5 C 32.8 15.4 32.9 15.3 32.9 15.1 C 32.9 15 32.8 14.8 32.7 14.8 C 32.6 14.7 32.3 14.6 31.9 14.5 C 31.3 14.4 30.8 14.2 30.5 13.9 C 30.2 13.7 30.1 13.3 30.1 12.9 C 30.1 12.4 30.2 12 30.6 11.7 C 30.9 11.4 31.4 11.2 32 11.2 C 32 11.2 32 11.2 32 11.2 Z M 37.8 11.3 L 39.5 16.6 L 38.2 16.6 L 37.8 15.5 L 36.1 15.5 L 35.8 16.6 L 34.7 16.6 L 36.4 11.3 L 37.8 11.3 Z M 36.4 14.5 L 37.5 14.5 L 37 12.6 L 36.4 14.5 Z M 46.9 13.8 L 46.9 16.6 C 46.9 16.6 46.29 16.6 46.3 16.6 C 46.2 16.4 46.2 16.2 46.1 16 C 45.7 16.5 45.2 16.7 44.7 16.7 C 44 16.7 43.4 16.4 43 15.9 C 42.6 15.4 42.5 14.8 42.5 14 C 42.5 13.2 42.7 12.5 43.1 12 C 43.5 11.4 44 11.2 44.8 11.2 C 45.3 11.2 45.8 11.4 46.2 11.7 C 46.6 12 46.8 12.5 46.9 13 C 46.9 13 45.7 13.2 45.7 13.2 C 45.6 12.5 45.3 12.2 44.8 12.2 C 44.4 12.2 44.2 12.4 44 12.7 C 43.8 13 43.7 13.4 43.7 14 C 43.7 14.5 43.8 14.9 44 15.2 C 44.2 15.5 44.5 15.7 44.8 15.7 C 45 15.7 45.2 15.6 45.4 15.4 C 45.6 15.3 45.7 15.1 45.7 14.7 C 45.67 14.75 44.7 14.7 44.7 14.7 L 44.7 13.8 L 46.9 13.8 Z M 50.8 11.3 L 52.5 16.6 L 51.2 16.6 L 50.8 15.5 L 49.1 15.5 L 48.8 16.6 L 47.7 16.6 L 49.4 11.3 L 50.8 11.3 Z M 49.4 14.5 L 50.5 14.5 L 50 12.6 L 49.4 14.5 Z M 54.6 11.3 L 54.6 16.6 L 53.4 16.6 L 53.4 11.3 L 54.6 11.3 Z M 57.3 15.5 L 59.4 15.5 L 59.4 16.6 L 56 16.6 L 56 11.3 L 57.3 11.3 L 57.3 15.5 Z M 64.2 12.3 L 61.6 12.3 L 61.6 13.4 L 63.6 13.4 L 63.6 14.4 L 61.6 14.4 L 61.6 15.5 L 64.2 15.5 L 64.2 16.6 L 60.4 16.6 L 60.4 11.3 L 64.2 11.3 L 64.2 12.3 Z M 71.5 11.3 L 69.9 16.6 L 68.6 16.6 L 67 11.3 L 68.3 11.3 L 69.4 15.1 L 70.5 11.3 L 71.5 11.3 Z M 73.6 11.3 L 73.6 16.6 L 72.3 16.6 L 72.3 11.3 L 73.6 11.3 Z M 77.1 11.2 C 78.4 11.2 79.1 11.9 79.3 13.3 C 79.3 13.3 78 13.3 78 13.3 C 78 12.6 77.7 12.2 77.1 12.2 C 76.4 12.2 76.1 12.8 76.1 13.9 C 76.1 14.6 76.2 15.1 76.4 15.3 C 76.6 15.5 76.8 15.7 77.1 15.7 C 77.6 15.7 78 15.3 78.1 14.7 C 78.1 14.7 79.3 14.7 79.3 14.7 C 79.2 15.4 79 15.9 78.6 16.2 C 78.2 16.5 77.7 16.7 77.1 16.7 C 76.4 16.7 75.8 16.4 75.4 16 C 74.9 15.5 74.7 14.8 74.7 13.9 C 74.7 13.1 74.9 12.5 75.4 12 C 75.8 11.4 76.4 11.2 77.1 11.2 C 77.1 11.2 77.1 11.2 77.1 11.2 Z M 84.1 12.3 L 81.6 12.3 L 81.6 13.4 L 83.6 13.4 L 83.6 14.4 L 81.6 14.4 L 81.6 15.5 L 84.1 15.5 L 84.1 16.6 L 80.3 16.6 L 80.3 11.3 L 84.1 11.3 L 84.1 12.3 Z M 89.3 11.3 L 89.3 16.6 L 88.2 16.6 C 88.2 16.6 86.15 13 86.1 13 C 86.1 13.1 86.2 13.2 86.2 13.2 C 86.2 13.3 86.2 13.3 86.2 13.4 C 86.17 13.41 86.2 16.6 86.2 16.6 L 85.2 16.6 L 85.2 11.3 L 86.5 11.3 C 86.5 11.3 88.36 14.41 88.4 14.4 C 88.3 14.3 88.3 14.1 88.3 14.1 C 88.33 14.06 88.3 11.3 88.3 11.3 L 89.3 11.3 Z M 94.1 11.3 L 94.1 12.3 L 92.7 12.3 L 92.7 16.6 L 91.5 16.6 L 91.5 12.3 L 90.2 12.3 L 90.2 11.3 L 94.1 11.3 Z M 98.7 12.3 L 96.2 12.3 L 96.2 13.4 L 98.2 13.4 L 98.2 14.4 L 96.2 14.4 L 96.2 15.5 L 98.7 15.5 L 98.7 16.6 L 94.9 16.6 L 94.9 11.3 L 98.7 11.3 L 98.7 12.3 Z " stroke="none" fill="#000"/>
  </g>
  <g id="Polygon38671">
    <path d="M 2.7 0.2 C 4 0.2 4.7 0.9 4.8 2.3 C 4.8 2.3 3.5 2.3 3.5 2.3 C 3.5 1.6 3.2 1.2 2.6 1.2 C 2 1.2 1.7 1.8 1.7 2.9 C 1.7 3.6 1.8 4.1 1.9 4.3 C 2.1 4.5 2.4 4.7 2.7 4.7 C 3.2 4.7 3.5 4.3 3.6 3.7 C 3.6 3.7 4.8 3.7 4.8 3.7 C 4.8 4.4 4.5 4.9 4.1 5.2 C 3.7 5.5 3.2 5.7 2.7 5.7 C 2 5.7 1.4 5.4 0.9 5 C 0.5 4.5 0.3 3.8 0.3 2.9 C 0.3 2.1 0.5 1.5 0.9 1 C 1.3 0.4 1.9 0.2 2.7 0.2 C 2.7 0.2 2.7 0.2 2.7 0.2 Z M 10 0.3 L 10 5.6 L 8.8 5.6 L 8.8 3.4 L 7.1 3.4 L 7.1 5.6 L 5.9 5.6 L 5.9 0.3 L 7.1 0.3 L 7.1 2.3 L 8.8 2.3 L 8.8 0.3 L 10 0.3 Z M 12.6 3.5 L 12.6 5.6 L 11.4 5.6 L 11.4 0.3 C 11.4 0.3 13.73 0.27 13.7 0.3 C 14.2 0.3 14.5 0.3 14.8 0.4 C 15 0.5 15.2 0.7 15.4 1 C 15.6 1.2 15.7 1.5 15.7 1.9 C 15.7 2.5 15.4 3 14.7 3.2 C 14.75 3.24 15.7 5.6 15.7 5.6 L 14.4 5.6 L 13.5 3.5 L 12.6 3.5 Z M 12.6 1.2 L 12.6 2.6 C 12.6 2.6 13.41 2.58 13.4 2.6 C 13.7 2.6 13.8 2.6 14 2.5 C 14.1 2.5 14.2 2.4 14.3 2.3 C 14.3 2.2 14.4 2 14.4 1.9 C 14.4 1.7 14.3 1.6 14.3 1.5 C 14.2 1.4 14.1 1.3 14 1.3 C 13.9 1.2 13.7 1.2 13.4 1.2 C 13.38 1.22 12.6 1.2 12.6 1.2 Z M 18.2 0.3 L 18.2 5.6 L 17 5.6 L 17 0.3 L 18.2 0.3 Z M 21.3 0.2 C 22.3 0.2 23 0.6 23.3 1.4 C 23.3 1.4 22.2 1.8 22.2 1.8 C 22.1 1.4 21.8 1.2 21.3 1.2 C 20.8 1.2 20.6 1.3 20.6 1.6 C 20.6 1.8 20.6 1.9 20.7 2 C 20.8 2.1 21 2.1 21.3 2.2 C 21.9 2.3 22.3 2.4 22.5 2.5 C 22.8 2.6 23 2.8 23.2 3.1 C 23.3 3.3 23.4 3.6 23.4 3.9 C 23.4 4.4 23.2 4.8 22.9 5.2 C 22.5 5.5 21.9 5.7 21.2 5.7 C 20.7 5.7 20.2 5.6 19.8 5.3 C 19.4 5.1 19.2 4.7 19.1 4.2 C 19.1 4.2 20.2 3.9 20.2 3.9 C 20.4 4.4 20.7 4.7 21.3 4.7 C 21.6 4.7 21.8 4.6 21.9 4.5 C 22.1 4.4 22.2 4.3 22.2 4.1 C 22.2 4 22.1 3.8 22 3.8 C 21.8 3.7 21.6 3.6 21.2 3.5 C 20.5 3.4 20.1 3.2 19.8 2.9 C 19.5 2.7 19.3 2.3 19.3 1.9 C 19.3 1.4 19.5 1 19.9 0.7 C 20.2 0.4 20.7 0.2 21.3 0.2 C 21.3 0.2 21.3 0.2 21.3 0.2 Z M 28.7 0.3 L 28.7 5.6 L 27.5 5.6 L 27.5 3.4 L 25.8 3.4 L 25.8 5.6 L 24.6 5.6 L 24.6 0.3 L 25.8 0.3 L 25.8 2.3 L 27.5 2.3 L 27.5 0.3 L 28.7 0.3 Z M 34.2 0.3 L 34.2 5.6 L 33.1 5.6 C 33.1 5.6 31.02 2 31 2 C 31 2.1 31 2.2 31 2.2 C 31 2.3 31 2.3 31 2.4 C 31.04 2.41 31 5.6 31 5.6 L 30.1 5.6 L 30.1 0.3 L 31.4 0.3 C 31.4 0.3 33.23 3.41 33.2 3.4 C 33.2 3.3 33.2 3.1 33.2 3.1 C 33.21 3.06 33.2 0.3 33.2 0.3 L 34.2 0.3 Z M 38.2 0.3 L 39.8 5.6 L 38.5 5.6 L 38.2 4.5 L 36.5 4.5 L 36.1 5.6 L 35 5.6 L 36.7 0.3 L 38.2 0.3 Z M 36.8 3.5 L 37.9 3.5 L 37.3 1.6 L 36.8 3.5 Z M 43.1 0.3 C 43.1 0.3 44.69 0.27 44.7 0.3 C 45.4 0.3 45.8 0.4 46.2 0.5 C 46.5 0.7 46.8 1 47 1.4 C 47.3 1.8 47.4 2.3 47.4 2.9 C 47.4 3.7 47.2 4.3 46.8 4.8 C 46.3 5.3 45.7 5.6 44.9 5.6 C 44.9 5.6 43.1 5.6 43.1 5.6 L 43.1 0.3 Z M 44.3 1.3 L 44.3 4.6 C 44.3 4.6 44.8 4.6 44.8 4.6 C 45.3 4.6 45.6 4.4 45.8 4.1 C 46 3.7 46.1 3.3 46.1 2.9 C 46.1 2.6 46.1 2.3 46 2 C 45.8 1.7 45.7 1.5 45.5 1.4 C 45.3 1.3 45.1 1.3 44.8 1.3 C 44.82 1.25 44.3 1.3 44.3 1.3 Z M 52.4 1.3 L 49.8 1.3 L 49.8 2.4 L 51.8 2.4 L 51.8 3.4 L 49.8 3.4 L 49.8 4.5 L 52.4 4.5 L 52.4 5.6 L 48.6 5.6 L 48.6 0.3 L 52.4 0.3 L 52.4 1.3 Z M 54.7 4.5 L 56.8 4.5 L 56.8 5.6 L 53.4 5.6 L 53.4 0.3 L 54.7 0.3 L 54.7 4.5 Z M 60.4 0.3 L 62.1 5.6 L 60.7 5.6 L 60.4 4.5 L 58.7 4.5 L 58.4 5.6 L 57.3 5.6 L 59 0.3 L 60.4 0.3 Z M 59 3.5 L 60.1 3.5 L 59.6 1.6 L 59 3.5 Z M 66.6 3.6 L 66.6 5.6 L 65.3 5.6 L 65.3 0.3 C 65.3 0.3 67.4 0.27 67.4 0.3 C 67.9 0.3 68.2 0.3 68.5 0.4 C 68.7 0.5 68.9 0.7 69.1 1 C 69.3 1.2 69.4 1.5 69.4 1.9 C 69.4 2.2 69.4 2.4 69.3 2.7 C 69.2 2.9 69 3.1 68.8 3.3 C 68.6 3.4 68.5 3.5 68.3 3.6 C 68.1 3.6 67.8 3.6 67.4 3.6 C 67.45 3.62 66.6 3.6 66.6 3.6 Z M 66.5 2.7 C 66.5 2.7 67.34 2.65 67.3 2.7 C 67.6 2.7 67.9 2.6 68 2.4 C 68.1 2.3 68.2 2.1 68.2 1.9 C 68.2 1.7 68.1 1.6 68 1.4 C 67.8 1.3 67.6 1.2 67.3 1.2 C 67.34 1.24 66.5 1.2 66.5 1.2 L 66.5 2.7 Z M 74.3 1.3 L 71.7 1.3 L 71.7 2.4 L 73.7 2.4 L 73.7 3.4 L 71.7 3.4 L 71.7 4.5 L 74.3 4.5 L 74.3 5.6 L 70.4 5.6 L 70.4 0.3 L 74.3 0.3 L 74.3 1.3 Z M 79.4 0.3 L 79.4 5.6 L 78.4 5.6 C 78.4 5.6 76.28 2 76.3 2 C 76.3 2.1 76.3 2.2 76.3 2.2 C 76.3 2.3 76.3 2.3 76.3 2.4 C 76.3 2.41 76.3 5.6 76.3 5.6 L 75.3 5.6 L 75.3 0.3 L 76.7 0.3 C 76.7 0.3 78.49 3.41 78.5 3.4 C 78.5 3.3 78.5 3.1 78.5 3.1 C 78.46 3.06 78.5 0.3 78.5 0.3 L 79.4 0.3 Z M 78.8 -0.8 C 78.5 -0.5 78.2 -0.3 77.9 -0.3 C 77.7 -0.3 77.5 -0.4 77.3 -0.5 C 77.1 -0.6 77 -0.6 77 -0.6 C 76.8 -0.6 76.6 -0.5 76.5 -0.3 C 76.5 -0.3 76.1 -0.8 76.1 -0.8 C 76.4 -1.1 76.7 -1.2 77 -1.2 C 77.1 -1.2 77.3 -1.2 77.5 -1 C 77.7 -1 77.8 -0.9 77.9 -0.9 C 78.1 -0.9 78.2 -1 78.4 -1.3 C 78.4 -1.3 78.8 -0.8 78.8 -0.8 Z M 83.4 0.3 L 85.1 5.6 L 83.8 5.6 L 83.4 4.5 L 81.7 4.5 L 81.4 5.6 L 80.3 5.6 L 82 0.3 L 83.4 0.3 Z M 82 3.5 L 83.1 3.5 L 82.6 1.6 L 82 3.5 Z M 87.3 4.4 L 87.3 5.5 L 86.5 6.8 L 86.1 6.8 L 86.7 5.6 L 86.1 5.6 L 86.1 4.4 L 87.3 4.4 Z M 92.1 0.3 L 92.1 5.6 L 90.9 5.6 L 90.9 0.3 L 92.1 0.3 Z M 96.1 0.3 L 97.8 5.6 L 96.5 5.6 L 96.1 4.5 L 94.4 4.5 L 94.1 5.6 L 93 5.6 L 94.7 0.3 L 96.1 0.3 Z M 94.7 3.5 L 95.8 3.5 L 95.3 1.6 L 94.7 3.5 Z M 102.8 0.3 L 102.8 5.6 L 101.7 5.6 C 101.7 5.6 99.65 2 99.7 2 C 99.7 2.1 99.7 2.2 99.7 2.2 C 99.7 2.3 99.7 2.3 99.7 2.4 C 99.68 2.41 99.7 5.6 99.7 5.6 L 98.7 5.6 L 98.7 0.3 L 100.1 0.3 C 100.1 0.3 101.86 3.41 101.9 3.4 C 101.8 3.3 101.8 3.1 101.8 3.1 C 101.84 3.06 101.8 0.3 101.8 0.3 L 102.8 0.3 Z M 110.6 0.3 L 110.6 5.6 L 109.6 5.6 C 109.6 5.6 107.47 2 107.5 2 C 107.5 2.1 107.5 2.2 107.5 2.2 C 107.5 2.3 107.5 2.3 107.5 2.4 C 107.49 2.41 107.5 5.6 107.5 5.6 L 106.5 5.6 L 106.5 0.3 L 107.9 0.3 C 107.9 0.3 109.68 3.41 109.7 3.4 C 109.7 3.3 109.7 3.1 109.7 3.1 C 109.65 3.06 109.7 0.3 109.7 0.3 L 110.6 0.3 Z M 114.6 0.3 L 116.3 5.6 L 115 5.6 L 114.6 4.5 L 112.9 4.5 L 112.6 5.6 L 111.5 5.6 L 113.2 0.3 L 114.6 0.3 Z M 113.2 3.5 L 114.3 3.5 L 113.8 1.6 L 113.2 3.5 Z M 119.2 0.3 C 119.2 0.3 119.22 4.07 119.2 4.1 C 119.2 4.6 119.1 5 118.8 5.3 C 118.6 5.6 118.1 5.7 117.6 5.7 C 117.3 5.7 117 5.7 116.7 5.6 C 116.7 5.6 116.7 4.6 116.7 4.6 C 117 4.6 117.2 4.6 117.3 4.6 C 117.5 4.6 117.6 4.6 117.7 4.5 C 117.8 4.5 117.9 4.4 117.9 4.3 C 118 4.3 118 4.1 118 3.9 C 117.98 3.92 118 0.3 118 0.3 L 119.2 0.3 Z M 124.4 1.3 L 121.8 1.3 L 121.8 2.4 L 123.8 2.4 L 123.8 3.4 L 121.8 3.4 L 121.8 4.5 L 124.4 4.5 L 124.4 5.6 L 120.6 5.6 L 120.6 0.3 L 124.4 0.3 L 124.4 1.3 Z M 126.7 3.5 L 126.7 5.6 L 125.4 5.6 L 125.4 0.3 C 125.4 0.3 127.78 0.27 127.8 0.3 C 128.2 0.3 128.6 0.3 128.8 0.4 C 129.1 0.5 129.3 0.7 129.5 1 C 129.6 1.2 129.7 1.5 129.7 1.9 C 129.7 2.5 129.4 3 128.8 3.2 C 128.8 3.24 129.8 5.6 129.8 5.6 L 128.4 5.6 L 127.6 3.5 L 126.7 3.5 Z M 126.7 1.2 L 126.7 2.6 C 126.7 2.6 127.46 2.58 127.5 2.6 C 127.7 2.6 127.9 2.6 128 2.5 C 128.1 2.5 128.2 2.4 128.3 2.3 C 128.4 2.2 128.4 2 128.4 1.9 C 128.4 1.7 128.4 1.6 128.3 1.5 C 128.2 1.4 128.1 1.3 128 1.3 C 127.9 1.2 127.7 1.2 127.4 1.2 C 127.43 1.22 126.7 1.2 126.7 1.2 Z M 133.6 0.3 L 135.3 5.6 L 134 5.6 L 133.6 4.5 L 131.9 4.5 L 131.6 5.6 L 130.5 5.6 L 132.2 0.3 L 133.6 0.3 Z M 132.2 3.5 L 133.3 3.5 L 132.8 1.6 L 132.2 3.5 Z M 137.5 4.4 L 137.5 5.5 L 136.7 6.8 L 136.3 6.8 L 136.9 5.6 L 136.3 5.6 L 136.3 4.4 L 137.5 4.4 Z " stroke="none" fill="#000"/>
  </g>
</svg>