<?xml version="1.0" standalone="no"?>
<!DOCTYPE svg PUBLIC "-//W3C//DTD SVG 1.1//EN" "http://www.w3.org/Graphics/SVG/1.1/DTD/svg11.dtd">
<svg xmlns="http://www.w3.org/2000/svg" version="1.1" width="268.4px" height="18px" viewBox="0 -3 268.4 18" style="top:-3px">
  <desc>Likha ni John Mauricio Mga kuha mula sa World Taekwondo</desc>
  <defs/>
  <g id="Polygon39119">
    <path d="M 0.5 1.7 L 1.5 1.7 L 1.5 10.7 L 0.5 10.7 L 0.5 1.7 Z M 6.6 2.3 L 7.7 2.3 L 6.5 7.8 L 9.8 7.8 L 9.6 8.8 L 5.2 8.8 L 6.6 2.3 Z M 11.7 2.3 L 12.7 2.3 L 12.5 3.3 L 11.5 3.3 L 11.7 2.3 Z M 11.3 4.1 L 12.3 4.1 L 11.4 8.8 L 10.3 8.8 L 11.3 4.1 Z M 13.9 2.3 L 15 2.3 L 14.2 6 L 14.2 6 L 16.3 4.1 L 17.6 4.1 L 15.6 5.8 L 16.7 8.8 L 15.6 8.8 L 14.7 6.5 L 14 7.2 L 13.6 8.8 L 12.6 8.8 L 13.9 2.3 Z M 18.7 2.3 L 19.7 2.3 L 19.2 4.8 C 19.2 4.8 19.23 4.78 19.2 4.8 C 19.4 4.5 19.6 4.4 19.9 4.2 C 20.2 4.1 20.5 4 20.8 4 C 21.2 4 21.6 4.1 21.8 4.3 C 22 4.6 22.1 4.9 22.1 5.2 C 22.1 5.3 22.1 5.4 22.1 5.5 C 22.1 5.6 22.1 5.7 22.1 5.8 C 22.07 5.8 21.5 8.8 21.5 8.8 L 20.4 8.8 C 20.4 8.8 21.02 5.9 21 5.9 C 21 5.8 21.1 5.8 21.1 5.7 C 21.1 5.6 21.1 5.5 21.1 5.5 C 21.1 5.4 21.1 5.4 21.1 5.3 C 21.1 5.2 21.1 5.2 21 5.1 C 21 5 20.9 4.9 20.8 4.9 C 20.7 4.8 20.6 4.8 20.4 4.8 C 20.2 4.8 20 4.8 19.8 4.9 C 19.7 5 19.5 5.1 19.4 5.3 C 19.3 5.4 19.2 5.5 19.1 5.7 C 19 5.9 18.9 6.1 18.9 6.3 C 18.91 6.25 18.4 8.8 18.4 8.8 L 17.4 8.8 L 18.7 2.3 Z M 23.7 7.5 C 23.7 7.6 23.7 7.7 23.7 7.8 C 23.8 7.9 23.9 7.9 23.9 8 C 24 8 24.1 8 24.2 8.1 C 24.3 8.1 24.4 8.1 24.5 8.1 C 24.7 8.1 25 8 25.1 8 C 25.3 7.9 25.4 7.8 25.5 7.6 C 25.7 7.5 25.7 7.3 25.8 7.1 C 25.9 6.9 25.9 6.7 26 6.5 C 26 6.5 25.9 6.5 25.9 6.5 C 25.9 6.5 25.8 6.6 25.6 6.6 C 25.5 6.7 25.4 6.7 25.3 6.7 C 25.2 6.7 25 6.7 24.8 6.7 C 24.6 6.7 24.4 6.8 24.3 6.8 C 24.1 6.9 24 6.9 23.8 7.1 C 23.7 7.2 23.7 7.3 23.7 7.5 Z M 26.8 7.4 C 26.7 7.5 26.7 7.6 26.7 7.7 C 26.7 7.7 26.7 7.8 26.7 7.9 C 26.7 8 26.7 8 26.7 8 C 26.7 8.1 26.8 8.1 26.9 8.1 C 26.9 8.1 27 8.1 27.1 8.1 C 27.1 8.1 27.2 8 27.2 8 C 27.2 8 27.1 8.8 27.1 8.8 C 26.9 8.8 26.8 8.8 26.7 8.9 C 26.6 8.9 26.4 8.9 26.3 8.9 C 26.1 8.9 26 8.8 25.8 8.7 C 25.7 8.6 25.7 8.5 25.7 8.3 C 25.5 8.5 25.2 8.7 24.9 8.8 C 24.7 8.9 24.4 8.9 24.1 8.9 C 23.9 8.9 23.7 8.9 23.5 8.8 C 23.4 8.8 23.2 8.7 23.1 8.6 C 22.9 8.5 22.8 8.4 22.8 8.2 C 22.7 8 22.6 7.9 22.6 7.7 C 22.6 7.4 22.7 7.1 22.8 6.9 C 22.9 6.7 23.1 6.6 23.2 6.5 C 23.4 6.3 23.6 6.2 23.9 6.2 C 24.1 6.1 24.3 6.1 24.6 6.1 C 24.9 6 25.3 6 25.6 6 C 25.8 6 25.9 5.9 26 5.8 C 26.1 5.7 26.2 5.5 26.2 5.4 C 26.2 5.1 26.1 5 25.9 4.9 C 25.8 4.8 25.6 4.8 25.4 4.8 C 25.1 4.8 24.8 4.9 24.6 5 C 24.4 5.1 24.3 5.2 24.2 5.5 C 24.2 5.5 23.2 5.5 23.2 5.5 C 23.3 5.2 23.4 5 23.5 4.8 C 23.7 4.6 23.8 4.5 24 4.3 C 24.2 4.2 24.4 4.1 24.7 4.1 C 24.9 4 25.2 4 25.4 4 C 25.9 4 26.2 4 26.4 4.1 C 26.7 4.2 26.8 4.3 26.9 4.4 C 27.1 4.5 27.1 4.6 27.2 4.8 C 27.2 4.9 27.2 5 27.2 5.1 C 27.2 5.3 27.2 5.5 27.1 5.8 C 27.1 5.8 26.8 7.4 26.8 7.4 Z M 31.8 4.1 L 32.7 4.1 L 32.6 4.8 C 32.6 4.8 32.61 4.81 32.6 4.8 C 32.8 4.6 33 4.4 33.3 4.2 C 33.6 4.1 33.9 4 34.2 4 C 34.7 4 35 4.1 35.2 4.3 C 35.5 4.6 35.6 4.9 35.6 5.2 C 35.6 5.3 35.6 5.4 35.6 5.5 C 35.6 5.6 35.5 5.7 35.5 5.8 C 35.53 5.8 34.9 8.8 34.9 8.8 L 33.9 8.8 C 33.9 8.8 34.47 5.9 34.5 5.9 C 34.5 5.8 34.5 5.8 34.5 5.7 C 34.5 5.6 34.5 5.5 34.5 5.5 C 34.5 5.4 34.5 5.4 34.5 5.3 C 34.5 5.2 34.5 5.2 34.5 5.1 C 34.4 5 34.4 4.9 34.3 4.9 C 34.2 4.8 34 4.8 33.8 4.8 C 33.6 4.8 33.5 4.8 33.3 4.9 C 33.1 5 33 5.1 32.9 5.3 C 32.7 5.4 32.6 5.5 32.6 5.7 C 32.5 5.9 32.4 6.1 32.4 6.3 C 32.36 6.25 31.8 8.8 31.8 8.8 L 30.8 8.8 L 31.8 4.1 Z M 37.4 2.3 L 38.4 2.3 L 38.2 3.3 L 37.2 3.3 L 37.4 2.3 Z M 37 4.1 L 38.1 4.1 L 37.1 8.8 L 36.1 8.8 L 37 4.1 Z M 45.4 2.3 L 46.6 2.3 C 46.6 2.3 45.82 5.94 45.8 5.9 C 45.8 6 45.8 6.2 45.7 6.4 C 45.7 6.5 45.6 6.7 45.6 6.9 C 45.5 7.1 45.5 7.3 45.4 7.5 C 45.3 7.7 45.3 7.9 45.2 8 C 45.1 8.2 45 8.3 44.8 8.5 C 44.7 8.6 44.5 8.7 44.4 8.7 C 44.2 8.8 44 8.9 43.9 8.9 C 43.7 8.9 43.5 8.9 43.4 8.9 C 43 8.9 42.7 8.9 42.4 8.8 C 42.2 8.6 42 8.5 41.9 8.4 C 41.7 8.2 41.7 8 41.6 7.9 C 41.6 7.7 41.6 7.5 41.6 7.4 C 41.6 7.3 41.6 7.1 41.6 7 C 41.6 6.8 41.6 6.7 41.7 6.5 C 41.7 6.5 42.7 6.5 42.7 6.5 C 42.6 6.8 42.6 7 42.6 7.2 C 42.6 7.7 42.9 8 43.4 8 C 43.6 8 43.8 8 43.9 7.9 C 44 7.8 44.2 7.7 44.2 7.6 C 44.3 7.4 44.4 7.3 44.4 7.1 C 44.5 6.9 44.5 6.6 44.6 6.4 C 44.6 6.4 45.4 2.3 45.4 2.3 Z M 49.2 4.8 C 48.9 4.8 48.7 4.9 48.5 5 C 48.3 5.1 48.1 5.3 48 5.5 C 47.8 5.7 47.8 5.9 47.7 6.2 C 47.6 6.4 47.6 6.7 47.6 6.9 C 47.6 7.2 47.7 7.5 47.9 7.7 C 48 8 48.3 8.1 48.7 8.1 C 48.9 8.1 49.2 8 49.4 7.9 C 49.5 7.8 49.7 7.6 49.8 7.4 C 50 7.2 50.1 7 50.1 6.7 C 50.2 6.5 50.2 6.2 50.2 6 C 50.2 5.7 50.1 5.4 50 5.1 C 49.8 4.9 49.5 4.8 49.2 4.8 Z M 48.6 8.9 C 48 8.9 47.5 8.7 47.1 8.4 C 46.7 8 46.6 7.5 46.6 6.9 C 46.6 6.5 46.6 6.1 46.8 5.8 C 46.9 5.4 47.1 5.1 47.3 4.9 C 47.5 4.6 47.8 4.4 48.1 4.2 C 48.5 4.1 48.8 4 49.2 4 C 49.9 4 50.4 4.2 50.7 4.5 C 51.1 4.8 51.3 5.3 51.3 6 C 51.3 6.4 51.2 6.8 51.1 7.1 C 51 7.5 50.8 7.8 50.6 8.1 C 50.3 8.3 50 8.5 49.7 8.7 C 49.4 8.8 49 8.9 48.6 8.9 Z M 53.1 2.3 L 54.1 2.3 L 53.6 4.8 C 53.6 4.8 53.65 4.78 53.7 4.8 C 53.8 4.5 54.1 4.4 54.3 4.2 C 54.6 4.1 54.9 4 55.2 4 C 55.6 4 56 4.1 56.2 4.3 C 56.4 4.6 56.5 4.9 56.5 5.2 C 56.5 5.3 56.5 5.4 56.5 5.5 C 56.5 5.6 56.5 5.7 56.5 5.8 C 56.5 5.8 55.9 8.8 55.9 8.8 L 54.8 8.8 C 54.8 8.8 55.44 5.9 55.4 5.9 C 55.5 5.8 55.5 5.8 55.5 5.7 C 55.5 5.6 55.5 5.5 55.5 5.5 C 55.5 5.4 55.5 5.4 55.5 5.3 C 55.5 5.2 55.5 5.2 55.4 5.1 C 55.4 5 55.3 4.9 55.2 4.9 C 55.1 4.8 55 4.8 54.8 4.8 C 54.6 4.8 54.4 4.8 54.3 4.9 C 54.1 5 54 5.1 53.8 5.3 C 53.7 5.4 53.6 5.5 53.5 5.7 C 53.4 5.9 53.4 6.1 53.3 6.3 C 53.33 6.25 52.8 8.8 52.8 8.8 L 51.8 8.8 L 53.1 2.3 Z M 58 4.1 L 59 4.1 L 58.8 4.8 C 58.8 4.8 58.84 4.81 58.8 4.8 C 59 4.6 59.3 4.4 59.5 4.2 C 59.8 4.1 60.1 4 60.4 4 C 60.9 4 61.2 4.1 61.5 4.3 C 61.7 4.6 61.8 4.9 61.8 5.2 C 61.8 5.3 61.8 5.4 61.8 5.5 C 61.8 5.6 61.8 5.7 61.8 5.8 C 61.75 5.8 61.1 8.8 61.1 8.8 L 60.1 8.8 C 60.1 8.8 60.7 5.9 60.7 5.9 C 60.7 5.8 60.7 5.8 60.7 5.7 C 60.8 5.6 60.8 5.5 60.8 5.5 C 60.8 5.4 60.8 5.4 60.8 5.3 C 60.8 5.2 60.7 5.2 60.7 5.1 C 60.7 5 60.6 4.9 60.5 4.9 C 60.4 4.8 60.2 4.8 60.1 4.8 C 59.9 4.8 59.7 4.8 59.5 4.9 C 59.4 5 59.2 5.1 59.1 5.3 C 59 5.4 58.9 5.5 58.8 5.7 C 58.7 5.9 58.6 6.1 58.6 6.3 C 58.58 6.25 58.1 8.8 58.1 8.8 L 57 8.8 L 58 4.1 Z M 66.9 2.3 L 68.4 2.3 L 69.1 7.2 L 69.1 7.2 L 71.9 2.3 L 73.5 2.3 L 72.2 8.8 L 71.1 8.8 L 72.2 3.6 L 72.2 3.6 L 69.3 8.8 L 68.4 8.8 L 67.6 3.6 L 67.6 3.6 L 66.6 8.8 L 65.5 8.8 L 66.9 2.3 Z M 74.5 7.5 C 74.5 7.6 74.6 7.7 74.6 7.8 C 74.7 7.9 74.7 7.9 74.8 8 C 74.9 8 75 8 75.1 8.1 C 75.2 8.1 75.3 8.1 75.4 8.1 C 75.6 8.1 75.8 8 76 8 C 76.2 7.9 76.3 7.8 76.4 7.6 C 76.5 7.5 76.6 7.3 76.7 7.1 C 76.7 6.9 76.8 6.7 76.8 6.5 C 76.8 6.5 76.8 6.5 76.8 6.5 C 76.7 6.5 76.6 6.6 76.5 6.6 C 76.4 6.7 76.3 6.7 76.2 6.7 C 76 6.7 75.9 6.7 75.7 6.7 C 75.5 6.7 75.3 6.8 75.1 6.8 C 75 6.9 74.8 6.9 74.7 7.1 C 74.6 7.2 74.5 7.3 74.5 7.5 Z M 77.6 7.4 C 77.6 7.5 77.6 7.6 77.6 7.7 C 77.5 7.7 77.5 7.8 77.5 7.9 C 77.5 8 77.6 8 77.6 8 C 77.6 8.1 77.7 8.1 77.8 8.1 C 77.8 8.1 77.9 8.1 77.9 8.1 C 78 8.1 78.1 8 78.1 8 C 78.1 8 77.9 8.8 77.9 8.8 C 77.8 8.8 77.7 8.8 77.6 8.9 C 77.4 8.9 77.3 8.9 77.1 8.9 C 77 8.9 76.8 8.8 76.7 8.7 C 76.6 8.6 76.5 8.5 76.5 8.3 C 76.3 8.5 76.1 8.7 75.8 8.8 C 75.5 8.9 75.2 8.9 75 8.9 C 74.8 8.9 74.6 8.9 74.4 8.8 C 74.2 8.8 74.1 8.7 73.9 8.6 C 73.8 8.5 73.7 8.4 73.6 8.2 C 73.6 8 73.5 7.9 73.5 7.7 C 73.5 7.4 73.6 7.1 73.7 6.9 C 73.8 6.7 73.9 6.6 74.1 6.5 C 74.3 6.3 74.5 6.2 74.7 6.2 C 75 6.1 75.2 6.1 75.5 6.1 C 75.8 6 76.2 6 76.5 6 C 76.7 6 76.8 5.9 76.9 5.8 C 77 5.7 77 5.5 77 5.4 C 77 5.1 77 5 76.8 4.9 C 76.6 4.8 76.5 4.8 76.2 4.8 C 76 4.8 75.7 4.9 75.5 5 C 75.3 5.1 75.2 5.2 75.1 5.5 C 75.1 5.5 74.1 5.5 74.1 5.5 C 74.2 5.2 74.3 5 74.4 4.8 C 74.5 4.6 74.7 4.5 74.9 4.3 C 75.1 4.2 75.3 4.1 75.5 4.1 C 75.8 4 76 4 76.3 4 C 76.7 4 77.1 4 77.3 4.1 C 77.5 4.2 77.7 4.3 77.8 4.4 C 77.9 4.5 78 4.6 78 4.8 C 78 4.9 78.1 5 78.1 5.1 C 78.1 5.3 78 5.5 78 5.8 C 78 5.8 77.6 7.4 77.6 7.4 Z M 82.6 8.8 L 81.7 8.8 L 81.8 8.1 C 81.8 8.1 81.8 8.08 81.8 8.1 C 81.6 8.3 81.4 8.5 81.1 8.7 C 80.8 8.8 80.5 8.9 80.2 8.9 C 79.7 8.9 79.4 8.8 79.2 8.6 C 78.9 8.3 78.8 8 78.8 7.7 C 78.8 7.6 78.8 7.5 78.8 7.4 C 78.9 7.3 78.9 7.2 78.9 7.1 C 78.89 7.09 79.5 4.1 79.5 4.1 L 80.5 4.1 C 80.5 4.1 79.94 6.99 79.9 7 C 79.9 7.1 79.9 7.1 79.9 7.2 C 79.9 7.3 79.9 7.4 79.9 7.4 C 79.9 7.5 79.9 7.5 79.9 7.6 C 79.9 7.7 79.9 7.7 79.9 7.8 C 80 7.9 80 8 80.1 8 C 80.2 8.1 80.4 8.1 80.6 8.1 C 80.8 8.1 81 8 81.1 8 C 81.3 7.9 81.4 7.8 81.6 7.6 C 81.7 7.5 81.8 7.3 81.9 7.2 C 82 7 82 6.8 82.1 6.6 C 82.05 6.64 82.6 4.1 82.6 4.1 L 83.6 4.1 L 82.6 8.8 Z M 84.8 4.1 L 85.8 4.1 L 85.6 5 C 85.6 5 85.6 5.05 85.6 5 C 85.7 4.9 85.8 4.8 85.9 4.7 C 86 4.5 86.1 4.4 86.2 4.3 C 86.3 4.2 86.5 4.2 86.6 4.1 C 86.8 4 86.9 4 87.1 4 C 87.2 4 87.3 4 87.3 4 C 87.4 4 87.5 4 87.6 4 C 87.6 4 87.4 5 87.4 5 C 87.3 5 87.2 5 87.2 5 C 87.1 5 87.1 5 87 5 C 86.7 5 86.5 5 86.3 5.1 C 86.1 5.2 86 5.3 85.8 5.5 C 85.7 5.7 85.6 5.8 85.5 6 C 85.4 6.3 85.3 6.5 85.3 6.7 C 85.29 6.71 84.9 8.8 84.9 8.8 L 83.8 8.8 L 84.8 4.1 Z M 88.6 2.3 L 89.6 2.3 L 89.4 3.3 L 88.4 3.3 L 88.6 2.3 Z M 88.2 4.1 L 89.2 4.1 L 88.3 8.8 L 87.3 8.8 L 88.2 4.1 Z M 93.2 5.7 C 93.2 5.4 93.1 5.2 93 5 C 92.8 4.9 92.6 4.8 92.3 4.8 C 92 4.8 91.8 4.9 91.6 5 C 91.4 5.1 91.3 5.3 91.1 5.5 C 91 5.7 90.9 5.9 90.9 6.2 C 90.8 6.4 90.8 6.7 90.8 6.9 C 90.8 7.1 90.8 7.2 90.8 7.4 C 90.8 7.5 90.9 7.6 91 7.7 C 91.1 7.8 91.2 7.9 91.3 8 C 91.4 8.1 91.6 8.1 91.8 8.1 C 92.1 8.1 92.3 8 92.5 7.8 C 92.7 7.7 92.9 7.5 93 7.2 C 93 7.2 94 7.2 94 7.2 C 93.8 7.8 93.5 8.2 93.1 8.5 C 92.7 8.8 92.2 8.9 91.6 8.9 C 91.3 8.9 91 8.9 90.8 8.8 C 90.6 8.7 90.4 8.5 90.2 8.3 C 90.1 8.2 89.9 8 89.9 7.7 C 89.8 7.5 89.7 7.2 89.7 6.9 C 89.7 6.5 89.8 6.2 89.9 5.8 C 90 5.4 90.2 5.1 90.4 4.9 C 90.7 4.6 90.9 4.4 91.3 4.2 C 91.6 4.1 92 4 92.4 4 C 92.6 4 92.9 4 93.1 4.1 C 93.3 4.2 93.5 4.3 93.7 4.4 C 93.9 4.6 94 4.7 94.1 4.9 C 94.2 5.2 94.2 5.4 94.2 5.7 C 94.2 5.7 93.2 5.7 93.2 5.7 Z M 95.9 2.3 L 97 2.3 L 96.8 3.3 L 95.7 3.3 L 95.9 2.3 Z M 95.6 4.1 L 96.6 4.1 L 95.6 8.8 L 94.6 8.8 L 95.6 4.1 Z M 99.7 4.8 C 99.4 4.8 99.2 4.9 99 5 C 98.8 5.1 98.6 5.3 98.5 5.5 C 98.4 5.7 98.3 5.9 98.2 6.2 C 98.1 6.4 98.1 6.7 98.1 6.9 C 98.1 7.2 98.2 7.5 98.4 7.7 C 98.5 8 98.8 8.1 99.2 8.1 C 99.4 8.1 99.7 8 99.9 7.9 C 100.1 7.8 100.2 7.6 100.4 7.4 C 100.5 7.2 100.6 7 100.7 6.7 C 100.7 6.5 100.7 6.2 100.7 6 C 100.7 5.7 100.7 5.4 100.5 5.1 C 100.3 4.9 100 4.8 99.7 4.8 Z M 99.1 8.9 C 98.5 8.9 98 8.7 97.6 8.4 C 97.3 8 97.1 7.5 97.1 6.9 C 97.1 6.5 97.1 6.1 97.3 5.8 C 97.4 5.4 97.6 5.1 97.8 4.9 C 98 4.6 98.3 4.4 98.6 4.2 C 99 4.1 99.3 4 99.7 4 C 100.4 4 100.9 4.2 101.2 4.5 C 101.6 4.8 101.8 5.3 101.8 6 C 101.8 6.4 101.7 6.8 101.6 7.1 C 101.5 7.5 101.3 7.8 101.1 8.1 C 100.8 8.3 100.6 8.5 100.2 8.7 C 99.9 8.8 99.5 8.9 99.1 8.9 Z M 106 1.7 L 107 1.7 L 107 10.7 L 106 10.7 L 106 1.7 Z M 112.1 2.3 L 113.6 2.3 L 114.3 7.2 L 114.3 7.2 L 117.1 2.3 L 118.7 2.3 L 117.4 8.8 L 116.3 8.8 L 117.4 3.6 L 117.4 3.6 L 114.5 8.8 L 113.6 8.8 L 112.8 3.6 L 112.8 3.6 L 111.8 8.8 L 110.7 8.8 L 112.1 2.3 Z M 120 6.8 C 120 7 120 7.1 120 7.3 C 120.1 7.4 120.1 7.5 120.2 7.6 C 120.3 7.7 120.4 7.8 120.5 7.9 C 120.6 7.9 120.8 8 121 8 C 121.2 8 121.5 7.9 121.7 7.8 C 121.9 7.6 122 7.5 122.1 7.3 C 122.3 7.1 122.4 6.9 122.4 6.6 C 122.5 6.4 122.5 6.1 122.5 5.9 C 122.5 5.6 122.4 5.3 122.2 5.1 C 122.1 4.9 121.8 4.8 121.5 4.8 C 121.2 4.8 121 4.9 120.8 5 C 120.6 5.1 120.5 5.3 120.3 5.5 C 120.2 5.7 120.1 5.9 120.1 6.1 C 120 6.4 120 6.6 120 6.8 Z M 122.9 8.6 C 122.9 9 122.8 9.3 122.7 9.6 C 122.5 9.8 122.4 10 122.2 10.2 C 122 10.3 121.8 10.4 121.5 10.5 C 121.3 10.6 121 10.6 120.6 10.6 C 120.3 10.6 120.1 10.6 119.8 10.5 C 119.6 10.5 119.4 10.4 119.2 10.3 C 119 10.2 118.9 10 118.8 9.8 C 118.7 9.6 118.6 9.4 118.6 9.1 C 118.6 9.1 119.6 9.1 119.6 9.1 C 119.6 9.4 119.7 9.6 119.9 9.7 C 120.1 9.8 120.4 9.9 120.7 9.9 C 120.9 9.9 121.1 9.8 121.3 9.8 C 121.4 9.7 121.5 9.6 121.6 9.5 C 121.7 9.4 121.8 9.2 121.9 9.1 C 121.9 8.9 122 8.7 122 8.5 C 122 8.55 122.1 8.1 122.1 8.1 C 122.1 8.1 122.08 8.07 122.1 8.1 C 121.8 8.5 121.3 8.8 120.8 8.8 C 120.2 8.8 119.7 8.6 119.4 8.3 C 119.1 7.9 119 7.5 119 6.9 C 119 6.5 119 6.2 119.1 5.8 C 119.2 5.5 119.4 5.2 119.6 4.9 C 119.8 4.6 120 4.4 120.3 4.2 C 120.6 4.1 121 4 121.4 4 C 121.7 4 122 4.1 122.2 4.2 C 122.5 4.3 122.7 4.6 122.8 4.9 C 122.8 4.9 122.8 4.9 122.8 4.9 L 123 4.1 L 123.9 4.1 C 123.9 4.1 122.94 8.65 122.9 8.6 Z M 125.2 7.5 C 125.2 7.6 125.2 7.7 125.2 7.8 C 125.3 7.9 125.4 7.9 125.4 8 C 125.5 8 125.6 8 125.7 8.1 C 125.8 8.1 125.9 8.1 126 8.1 C 126.2 8.1 126.4 8 126.6 8 C 126.8 7.9 126.9 7.8 127 7.6 C 127.1 7.5 127.2 7.3 127.3 7.1 C 127.4 6.9 127.4 6.7 127.4 6.5 C 127.4 6.5 127.4 6.5 127.4 6.5 C 127.4 6.5 127.3 6.6 127.1 6.6 C 127 6.7 126.9 6.7 126.8 6.7 C 126.6 6.7 126.5 6.7 126.3 6.7 C 126.1 6.7 125.9 6.8 125.8 6.8 C 125.6 6.9 125.5 6.9 125.3 7.1 C 125.2 7.2 125.2 7.3 125.2 7.5 Z M 128.2 7.4 C 128.2 7.5 128.2 7.6 128.2 7.7 C 128.2 7.7 128.2 7.8 128.2 7.9 C 128.2 8 128.2 8 128.2 8 C 128.2 8.1 128.3 8.1 128.4 8.1 C 128.4 8.1 128.5 8.1 128.6 8.1 C 128.6 8.1 128.7 8 128.7 8 C 128.7 8 128.6 8.8 128.6 8.8 C 128.4 8.8 128.3 8.8 128.2 8.9 C 128 8.9 127.9 8.9 127.8 8.9 C 127.6 8.9 127.5 8.8 127.3 8.7 C 127.2 8.6 127.2 8.5 127.1 8.3 C 126.9 8.5 126.7 8.7 126.4 8.8 C 126.2 8.9 125.9 8.9 125.6 8.9 C 125.4 8.9 125.2 8.9 125 8.8 C 124.9 8.8 124.7 8.7 124.6 8.6 C 124.4 8.5 124.3 8.4 124.2 8.2 C 124.2 8 124.1 7.9 124.1 7.7 C 124.1 7.4 124.2 7.1 124.3 6.9 C 124.4 6.7 124.5 6.6 124.7 6.5 C 124.9 6.3 125.1 6.2 125.3 6.2 C 125.6 6.1 125.8 6.1 126.1 6.1 C 126.4 6 126.8 6 127.1 6 C 127.3 6 127.4 5.9 127.5 5.8 C 127.6 5.7 127.7 5.5 127.7 5.4 C 127.7 5.1 127.6 5 127.4 4.9 C 127.3 4.8 127.1 4.8 126.9 4.8 C 126.6 4.8 126.3 4.9 126.1 5 C 125.9 5.1 125.8 5.2 125.7 5.5 C 125.7 5.5 124.7 5.5 124.7 5.5 C 124.8 5.2 124.9 5 125 4.8 C 125.1 4.6 125.3 4.5 125.5 4.3 C 125.7 4.2 125.9 4.1 126.2 4.1 C 126.4 4 126.7 4 126.9 4 C 127.4 4 127.7 4 127.9 4.1 C 128.2 4.2 128.3 4.3 128.4 4.4 C 128.6 4.5 128.6 4.6 128.6 4.8 C 128.7 4.9 128.7 5 128.7 5.1 C 128.7 5.3 128.6 5.5 128.6 5.8 C 128.6 5.8 128.2 7.4 128.2 7.4 Z M 133.6 2.3 L 134.7 2.3 L 133.9 6 L 133.9 6 L 136 4.1 L 137.3 4.1 L 135.3 5.8 L 136.4 8.8 L 135.3 8.8 L 134.5 6.5 L 133.7 7.2 L 133.3 8.8 L 132.3 8.8 L 133.6 2.3 Z M 141.1 8.8 L 140.2 8.8 L 140.3 8.1 C 140.3 8.1 140.29 8.08 140.3 8.1 C 140.1 8.3 139.9 8.5 139.6 8.7 C 139.3 8.8 139 8.9 138.7 8.9 C 138.2 8.9 137.9 8.8 137.7 8.6 C 137.4 8.3 137.3 8 137.3 7.7 C 137.3 7.6 137.3 7.5 137.3 7.4 C 137.3 7.3 137.4 7.2 137.4 7.1 C 137.37 7.09 138 4.1 138 4.1 L 139 4.1 C 139 4.1 138.42 6.99 138.4 7 C 138.4 7.1 138.4 7.1 138.4 7.2 C 138.4 7.3 138.4 7.4 138.4 7.4 C 138.4 7.5 138.4 7.5 138.4 7.6 C 138.4 7.7 138.4 7.7 138.4 7.8 C 138.5 7.9 138.5 8 138.6 8 C 138.7 8.1 138.9 8.1 139.1 8.1 C 139.3 8.1 139.4 8 139.6 8 C 139.8 7.9 139.9 7.8 140 7.6 C 140.2 7.5 140.3 7.3 140.4 7.2 C 140.4 7 140.5 6.8 140.5 6.6 C 140.54 6.64 141.1 4.1 141.1 4.1 L 142.1 4.1 L 141.1 8.8 Z M 143.7 2.3 L 144.7 2.3 L 144.2 4.8 C 144.2 4.8 144.19 4.78 144.2 4.8 C 144.4 4.5 144.6 4.4 144.9 4.2 C 145.1 4.1 145.4 4 145.7 4 C 146.2 4 146.5 4.1 146.8 4.3 C 147 4.6 147.1 4.9 147.1 5.2 C 147.1 5.3 147.1 5.4 147.1 5.5 C 147.1 5.6 147.1 5.7 147 5.8 C 147.04 5.8 146.4 8.8 146.4 8.8 L 145.4 8.8 C 145.4 8.8 145.98 5.9 146 5.9 C 146 5.8 146 5.8 146 5.7 C 146 5.6 146.1 5.5 146.1 5.5 C 146.1 5.4 146.1 5.4 146.1 5.3 C 146 5.2 146 5.2 146 5.1 C 145.9 5 145.9 4.9 145.8 4.9 C 145.7 4.8 145.5 4.8 145.3 4.8 C 145.1 4.8 145 4.8 144.8 4.9 C 144.6 5 144.5 5.1 144.4 5.3 C 144.3 5.4 144.1 5.5 144.1 5.7 C 144 5.9 143.9 6.1 143.9 6.3 C 143.87 6.25 143.3 8.8 143.3 8.8 L 142.3 8.8 L 143.7 2.3 Z M 148.6 7.5 C 148.6 7.6 148.7 7.7 148.7 7.8 C 148.8 7.9 148.8 7.9 148.9 8 C 149 8 149.1 8 149.2 8.1 C 149.3 8.1 149.4 8.1 149.4 8.1 C 149.7 8.1 149.9 8 150.1 8 C 150.3 7.9 150.4 7.8 150.5 7.6 C 150.6 7.5 150.7 7.3 150.8 7.1 C 150.8 6.9 150.9 6.7 150.9 6.5 C 150.9 6.5 150.9 6.5 150.9 6.5 C 150.8 6.5 150.7 6.6 150.6 6.6 C 150.5 6.7 150.4 6.7 150.3 6.7 C 150.1 6.7 149.9 6.7 149.8 6.7 C 149.6 6.7 149.4 6.8 149.2 6.8 C 149.1 6.9 148.9 6.9 148.8 7.1 C 148.7 7.2 148.6 7.3 148.6 7.5 Z M 151.7 7.4 C 151.7 7.5 151.7 7.6 151.7 7.7 C 151.6 7.7 151.6 7.8 151.6 7.9 C 151.6 8 151.6 8 151.7 8 C 151.7 8.1 151.8 8.1 151.8 8.1 C 151.9 8.1 152 8.1 152 8.1 C 152.1 8.1 152.1 8 152.2 8 C 152.2 8 152 8.8 152 8.8 C 151.9 8.8 151.8 8.8 151.6 8.9 C 151.5 8.9 151.4 8.9 151.2 8.9 C 151.1 8.9 150.9 8.8 150.8 8.7 C 150.7 8.6 150.6 8.5 150.6 8.3 C 150.4 8.5 150.2 8.7 149.9 8.8 C 149.6 8.9 149.3 8.9 149.1 8.9 C 148.9 8.9 148.7 8.9 148.5 8.8 C 148.3 8.8 148.2 8.7 148 8.6 C 147.9 8.5 147.8 8.4 147.7 8.2 C 147.6 8 147.6 7.9 147.6 7.7 C 147.6 7.4 147.7 7.1 147.8 6.9 C 147.9 6.7 148 6.6 148.2 6.5 C 148.4 6.3 148.6 6.2 148.8 6.2 C 149.1 6.1 149.3 6.1 149.6 6.1 C 149.9 6 150.2 6 150.6 6 C 150.8 6 150.9 5.9 151 5.8 C 151.1 5.7 151.1 5.5 151.1 5.4 C 151.1 5.1 151 5 150.9 4.9 C 150.7 4.8 150.5 4.8 150.3 4.8 C 150.1 4.8 149.8 4.9 149.6 5 C 149.4 5.1 149.2 5.2 149.2 5.5 C 149.2 5.5 148.2 5.5 148.2 5.5 C 148.3 5.2 148.4 5 148.5 4.8 C 148.6 4.6 148.8 4.5 149 4.3 C 149.2 4.2 149.4 4.1 149.6 4.1 C 149.9 4 150.1 4 150.4 4 C 150.8 4 151.1 4 151.4 4.1 C 151.6 4.2 151.8 4.3 151.9 4.4 C 152 4.5 152.1 4.6 152.1 4.8 C 152.1 4.9 152.1 5 152.1 5.1 C 152.1 5.3 152.1 5.5 152.1 5.8 C 152.1 5.8 151.7 7.4 151.7 7.4 Z M 156.8 4.1 L 157.8 4.1 L 157.6 4.8 C 157.6 4.8 157.64 4.8 157.6 4.8 C 157.8 4.5 158.1 4.3 158.3 4.2 C 158.6 4.1 158.9 4 159.2 4 C 159.5 4 159.8 4.1 160 4.2 C 160.2 4.3 160.4 4.5 160.4 4.8 C 160.6 4.6 160.9 4.4 161.1 4.2 C 161.4 4.1 161.7 4 162 4 C 162.4 4 162.8 4.1 163 4.3 C 163.2 4.6 163.3 4.9 163.3 5.2 C 163.3 5.3 163.3 5.4 163.3 5.5 C 163.3 5.6 163.3 5.7 163.2 5.8 C 163.24 5.8 162.6 8.8 162.6 8.8 L 161.6 8.8 C 161.6 8.8 162.2 6.02 162.2 6 C 162.2 6 162.2 5.9 162.2 5.8 C 162.3 5.7 162.3 5.6 162.3 5.5 C 162.3 5.4 162.3 5.3 162.3 5.2 C 162.3 5.2 162.2 5.1 162.2 5 C 162.1 5 162.1 4.9 162 4.9 C 161.9 4.8 161.8 4.8 161.6 4.8 C 161.5 4.8 161.3 4.8 161.1 4.9 C 161 5 160.8 5.1 160.7 5.2 C 160.6 5.4 160.5 5.5 160.5 5.6 C 160.4 5.8 160.3 5.9 160.3 6.1 C 160.32 6.06 159.8 8.8 159.8 8.8 L 158.7 8.8 C 158.7 8.8 159.26 6.22 159.3 6.2 C 159.3 6.1 159.3 6 159.3 5.8 C 159.4 5.7 159.4 5.5 159.4 5.4 C 159.4 5.2 159.4 5.1 159.3 5 C 159.2 4.9 159 4.8 158.8 4.8 C 158.6 4.8 158.5 4.8 158.3 4.9 C 158.2 5 158.1 5.1 158 5.2 C 157.8 5.3 157.7 5.4 157.6 5.6 C 157.5 5.7 157.5 5.9 157.4 6.1 C 157.41 6.08 156.9 8.8 156.9 8.8 L 155.8 8.8 L 156.8 4.1 Z M 167.9 8.8 L 167 8.8 L 167.1 8.1 C 167.1 8.1 167.09 8.08 167.1 8.1 C 166.9 8.3 166.7 8.5 166.4 8.7 C 166.1 8.8 165.8 8.9 165.5 8.9 C 165 8.9 164.7 8.8 164.5 8.6 C 164.2 8.3 164.1 8 164.1 7.7 C 164.1 7.6 164.1 7.5 164.1 7.4 C 164.1 7.3 164.2 7.2 164.2 7.1 C 164.17 7.09 164.8 4.1 164.8 4.1 L 165.8 4.1 C 165.8 4.1 165.22 6.99 165.2 7 C 165.2 7.1 165.2 7.1 165.2 7.2 C 165.2 7.3 165.2 7.4 165.2 7.4 C 165.2 7.5 165.2 7.5 165.2 7.6 C 165.2 7.7 165.2 7.7 165.2 7.8 C 165.3 7.9 165.3 8 165.4 8 C 165.5 8.1 165.7 8.1 165.9 8.1 C 166.1 8.1 166.2 8 166.4 8 C 166.6 7.9 166.7 7.8 166.8 7.6 C 167 7.5 167.1 7.3 167.2 7.2 C 167.2 7 167.3 6.8 167.3 6.6 C 167.34 6.64 167.9 4.1 167.9 4.1 L 168.9 4.1 L 167.9 8.8 Z M 170.5 2.3 L 171.5 2.3 L 170.1 8.8 L 169.1 8.8 L 170.5 2.3 Z M 172.4 7.5 C 172.4 7.6 172.5 7.7 172.5 7.8 C 172.6 7.9 172.6 7.9 172.7 8 C 172.8 8 172.9 8 173 8.1 C 173.1 8.1 173.2 8.1 173.3 8.1 C 173.5 8.1 173.7 8 173.9 8 C 174.1 7.9 174.2 7.8 174.3 7.6 C 174.4 7.5 174.5 7.3 174.6 7.1 C 174.6 6.9 174.7 6.7 174.7 6.5 C 174.7 6.5 174.7 6.5 174.7 6.5 C 174.6 6.5 174.5 6.6 174.4 6.6 C 174.3 6.7 174.2 6.7 174.1 6.7 C 173.9 6.7 173.7 6.7 173.6 6.7 C 173.4 6.7 173.2 6.8 173 6.8 C 172.9 6.9 172.7 6.9 172.6 7.1 C 172.5 7.2 172.4 7.3 172.4 7.5 Z M 175.5 7.4 C 175.5 7.5 175.5 7.6 175.5 7.7 C 175.4 7.7 175.4 7.8 175.4 7.9 C 175.4 8 175.4 8 175.5 8 C 175.5 8.1 175.6 8.1 175.6 8.1 C 175.7 8.1 175.8 8.1 175.8 8.1 C 175.9 8.1 175.9 8 176 8 C 176 8 175.8 8.8 175.8 8.8 C 175.7 8.8 175.6 8.8 175.4 8.9 C 175.3 8.9 175.2 8.9 175 8.9 C 174.9 8.9 174.7 8.8 174.6 8.7 C 174.5 8.6 174.4 8.5 174.4 8.3 C 174.2 8.5 174 8.7 173.7 8.8 C 173.4 8.9 173.1 8.9 172.9 8.9 C 172.7 8.9 172.5 8.9 172.3 8.8 C 172.1 8.8 172 8.7 171.8 8.6 C 171.7 8.5 171.6 8.4 171.5 8.2 C 171.4 8 171.4 7.9 171.4 7.7 C 171.4 7.4 171.5 7.1 171.6 6.9 C 171.7 6.7 171.8 6.6 172 6.5 C 172.2 6.3 172.4 6.2 172.6 6.2 C 172.9 6.1 173.1 6.1 173.4 6.1 C 173.7 6 174 6 174.4 6 C 174.6 6 174.7 5.9 174.8 5.8 C 174.9 5.7 174.9 5.5 174.9 5.4 C 174.9 5.1 174.8 5 174.7 4.9 C 174.5 4.8 174.4 4.8 174.1 4.8 C 173.9 4.8 173.6 4.9 173.4 5 C 173.2 5.1 173.1 5.2 173 5.5 C 173 5.5 172 5.5 172 5.5 C 172.1 5.2 172.2 5 172.3 4.8 C 172.4 4.6 172.6 4.5 172.8 4.3 C 173 4.2 173.2 4.1 173.4 4.1 C 173.7 4 173.9 4 174.2 4 C 174.6 4 175 4 175.2 4.1 C 175.4 4.2 175.6 4.3 175.7 4.4 C 175.8 4.5 175.9 4.6 175.9 4.8 C 175.9 4.9 176 5 176 5.1 C 176 5.3 175.9 5.5 175.9 5.8 C 175.9 5.8 175.5 7.4 175.5 7.4 Z M 182.9 5.5 C 182.9 5.2 182.8 5.1 182.6 5 C 182.4 4.9 182.2 4.8 181.9 4.8 C 181.8 4.8 181.7 4.8 181.6 4.8 C 181.5 4.9 181.5 4.9 181.4 4.9 C 181.3 5 181.3 5 181.2 5.1 C 181.2 5.2 181.1 5.3 181.1 5.4 C 181.1 5.5 181.2 5.6 181.3 5.7 C 181.3 5.7 181.5 5.8 181.6 5.8 C 181.7 5.9 181.9 5.9 182 6 C 182.2 6 182.3 6.1 182.5 6.1 C 182.6 6.2 182.8 6.2 182.9 6.3 C 183 6.4 183.2 6.5 183.3 6.6 C 183.4 6.6 183.4 6.8 183.5 6.9 C 183.6 7 183.6 7.2 183.6 7.4 C 183.6 7.6 183.5 7.9 183.4 8.1 C 183.3 8.3 183.1 8.4 182.9 8.5 C 182.7 8.7 182.5 8.8 182.3 8.8 C 182 8.9 181.8 8.9 181.5 8.9 C 181.3 8.9 181 8.9 180.8 8.8 C 180.5 8.8 180.3 8.7 180.2 8.6 C 180 8.4 179.8 8.3 179.7 8.1 C 179.6 7.9 179.6 7.6 179.6 7.3 C 179.6 7.3 180.6 7.3 180.6 7.3 C 180.5 7.6 180.6 7.8 180.8 7.9 C 181 8 181.3 8.1 181.6 8.1 C 181.7 8.1 181.8 8.1 181.9 8.1 C 182 8 182.1 8 182.2 8 C 182.3 7.9 182.4 7.8 182.5 7.8 C 182.5 7.7 182.6 7.6 182.6 7.4 C 182.6 7.3 182.5 7.2 182.4 7.1 C 182.3 7.1 182.2 7 182.1 6.9 C 182 6.9 181.8 6.8 181.6 6.8 C 181.5 6.7 181.3 6.7 181.1 6.6 C 181 6.6 180.9 6.5 180.7 6.4 C 180.6 6.4 180.5 6.3 180.4 6.2 C 180.3 6.1 180.3 6 180.2 5.9 C 180.1 5.7 180.1 5.6 180.1 5.4 C 180.1 5.2 180.2 4.9 180.3 4.8 C 180.4 4.6 180.5 4.4 180.7 4.3 C 180.9 4.2 181.1 4.1 181.3 4.1 C 181.6 4 181.8 4 182 4 C 182.3 4 182.5 4 182.7 4.1 C 183 4.1 183.2 4.2 183.3 4.3 C 183.5 4.4 183.6 4.6 183.7 4.8 C 183.8 5 183.8 5.2 183.8 5.5 C 183.8 5.5 182.9 5.5 182.9 5.5 Z M 185.2 7.5 C 185.2 7.6 185.2 7.7 185.3 7.8 C 185.3 7.9 185.4 7.9 185.5 8 C 185.6 8 185.7 8 185.7 8.1 C 185.8 8.1 185.9 8.1 186 8.1 C 186.3 8.1 186.5 8 186.7 8 C 186.8 7.9 187 7.8 187.1 7.6 C 187.2 7.5 187.3 7.3 187.4 7.1 C 187.4 6.9 187.5 6.7 187.5 6.5 C 187.5 6.5 187.5 6.5 187.5 6.5 C 187.4 6.5 187.3 6.6 187.2 6.6 C 187.1 6.7 187 6.7 186.8 6.7 C 186.7 6.7 186.5 6.7 186.3 6.7 C 186.2 6.7 186 6.8 185.8 6.8 C 185.7 6.9 185.5 6.9 185.4 7.1 C 185.3 7.2 185.2 7.3 185.2 7.5 Z M 188.3 7.4 C 188.3 7.5 188.3 7.6 188.2 7.7 C 188.2 7.7 188.2 7.8 188.2 7.9 C 188.2 8 188.2 8 188.3 8 C 188.3 8.1 188.3 8.1 188.4 8.1 C 188.5 8.1 188.6 8.1 188.6 8.1 C 188.7 8.1 188.7 8 188.8 8 C 188.8 8 188.6 8.8 188.6 8.8 C 188.5 8.8 188.4 8.8 188.2 8.9 C 188.1 8.9 188 8.9 187.8 8.9 C 187.7 8.9 187.5 8.8 187.4 8.7 C 187.3 8.6 187.2 8.5 187.2 8.3 C 187 8.5 186.8 8.7 186.5 8.8 C 186.2 8.9 185.9 8.9 185.6 8.9 C 185.4 8.9 185.3 8.9 185.1 8.8 C 184.9 8.8 184.8 8.7 184.6 8.6 C 184.5 8.5 184.4 8.4 184.3 8.2 C 184.2 8 184.2 7.9 184.2 7.7 C 184.2 7.4 184.2 7.1 184.4 6.9 C 184.5 6.7 184.6 6.6 184.8 6.5 C 185 6.3 185.2 6.2 185.4 6.2 C 185.6 6.1 185.9 6.1 186.1 6.1 C 186.5 6 186.8 6 187.2 6 C 187.4 6 187.5 5.9 187.6 5.8 C 187.7 5.7 187.7 5.5 187.7 5.4 C 187.7 5.1 187.6 5 187.5 4.9 C 187.3 4.8 187.1 4.8 186.9 4.8 C 186.6 4.8 186.4 4.9 186.2 5 C 186 5.1 185.8 5.2 185.8 5.5 C 185.8 5.5 184.8 5.5 184.8 5.5 C 184.8 5.2 184.9 5 185.1 4.8 C 185.2 4.6 185.4 4.5 185.6 4.3 C 185.8 4.2 186 4.1 186.2 4.1 C 186.5 4 186.7 4 187 4 C 187.4 4 187.7 4 188 4.1 C 188.2 4.2 188.4 4.3 188.5 4.4 C 188.6 4.5 188.7 4.6 188.7 4.8 C 188.7 4.9 188.7 5 188.7 5.1 C 188.7 5.3 188.7 5.5 188.6 5.8 C 188.6 5.8 188.3 7.4 188.3 7.4 Z M 193.1 2.3 L 194.3 2.3 L 194.5 7.3 L 194.5 7.3 L 196.7 2.3 L 197.8 2.3 L 198.1 7.3 L 198.2 7.3 L 200.3 2.3 L 201.4 2.3 L 198.4 8.8 L 197.3 8.8 L 197 3.9 L 197 3.9 L 194.7 8.8 L 193.6 8.8 L 193.1 2.3 Z M 203.2 4.8 C 202.9 4.8 202.7 4.9 202.5 5 C 202.3 5.1 202.1 5.3 202 5.5 C 201.8 5.7 201.7 5.9 201.7 6.2 C 201.6 6.4 201.6 6.7 201.6 6.9 C 201.6 7.2 201.7 7.5 201.8 7.7 C 202 8 202.3 8.1 202.7 8.1 C 202.9 8.1 203.2 8 203.3 7.9 C 203.5 7.8 203.7 7.6 203.8 7.4 C 204 7.2 204.1 7 204.1 6.7 C 204.2 6.5 204.2 6.2 204.2 6 C 204.2 5.7 204.1 5.4 204 5.1 C 203.8 4.9 203.5 4.8 203.2 4.8 Z M 202.6 8.9 C 201.9 8.9 201.4 8.7 201.1 8.4 C 200.7 8 200.6 7.5 200.6 6.9 C 200.6 6.5 200.6 6.1 200.8 5.8 C 200.9 5.4 201.1 5.1 201.3 4.9 C 201.5 4.6 201.8 4.4 202.1 4.2 C 202.4 4.1 202.8 4 203.2 4 C 203.9 4 204.4 4.2 204.7 4.5 C 205.1 4.8 205.3 5.3 205.3 6 C 205.3 6.4 205.2 6.8 205.1 7.1 C 205 7.5 204.8 7.8 204.5 8.1 C 204.3 8.3 204 8.5 203.7 8.7 C 203.4 8.8 203 8.9 202.6 8.9 Z M 206.7 4.1 L 207.7 4.1 L 207.5 5 C 207.5 5 207.54 5.05 207.5 5 C 207.6 4.9 207.7 4.8 207.8 4.7 C 207.9 4.5 208 4.4 208.1 4.3 C 208.3 4.2 208.4 4.2 208.6 4.1 C 208.7 4 208.9 4 209 4 C 209.1 4 209.2 4 209.3 4 C 209.3 4 209.4 4 209.5 4 C 209.5 4 209.3 5 209.3 5 C 209.2 5 209.2 5 209.1 5 C 209.1 5 209 5 208.9 5 C 208.7 5 208.4 5 208.3 5.1 C 208.1 5.2 207.9 5.3 207.8 5.5 C 207.6 5.7 207.5 5.8 207.4 6 C 207.3 6.3 207.3 6.5 207.2 6.7 C 207.23 6.71 206.8 8.8 206.8 8.8 L 205.8 8.8 L 206.7 4.1 Z M 210.5 2.3 L 211.6 2.3 L 210.2 8.8 L 209.2 8.8 L 210.5 2.3 Z M 215.8 8.8 L 214.8 8.8 L 214.9 8.1 C 214.9 8.1 214.92 8.13 214.9 8.1 C 214.7 8.4 214.5 8.6 214.2 8.7 C 214 8.8 213.7 8.9 213.5 8.9 C 213.3 8.9 213.2 8.9 213 8.8 C 212.8 8.8 212.6 8.7 212.4 8.6 C 212.2 8.5 212 8.3 211.9 8 C 211.7 7.8 211.6 7.4 211.6 7 C 211.6 6.6 211.7 6.2 211.8 5.9 C 211.9 5.5 212.1 5.2 212.3 4.9 C 212.5 4.6 212.8 4.4 213.1 4.3 C 213.4 4.1 213.8 4 214.2 4 C 214.5 4 214.8 4.1 215 4.2 C 215.3 4.3 215.5 4.5 215.6 4.8 C 215.58 4.76 215.6 4.8 215.6 4.8 L 216.1 2.3 L 217.1 2.3 L 215.8 8.8 Z M 215.3 5.9 C 215.3 5.8 215.3 5.6 215.3 5.5 C 215.2 5.4 215.2 5.2 215.1 5.1 C 215 5 214.9 5 214.8 4.9 C 214.6 4.8 214.5 4.8 214.3 4.8 C 214 4.8 213.8 4.9 213.6 5 C 213.4 5.1 213.2 5.3 213.1 5.5 C 212.9 5.7 212.8 6 212.8 6.2 C 212.7 6.5 212.7 6.7 212.7 7 C 212.7 7.3 212.8 7.6 212.9 7.8 C 213.1 8 213.4 8.1 213.7 8.1 C 214 8.1 214.2 8 214.4 7.9 C 214.6 7.7 214.8 7.6 214.9 7.4 C 215.1 7.1 215.2 6.9 215.2 6.7 C 215.3 6.4 215.3 6.2 215.3 5.9 Z M 221 2.3 L 226.3 2.3 L 226 3.3 L 224 3.3 L 222.9 8.8 L 221.7 8.8 L 222.9 3.3 L 220.8 3.3 L 221 2.3 Z M 225.7 7.5 C 225.7 7.6 225.7 7.7 225.8 7.8 C 225.8 7.9 225.9 7.9 225.9 8 C 226 8 226.1 8 226.2 8.1 C 226.3 8.1 226.4 8.1 226.5 8.1 C 226.7 8.1 227 8 227.1 8 C 227.3 7.9 227.4 7.8 227.6 7.6 C 227.7 7.5 227.8 7.3 227.8 7.1 C 227.9 6.9 227.9 6.7 228 6.5 C 228 6.5 227.9 6.5 227.9 6.5 C 227.9 6.5 227.8 6.6 227.7 6.6 C 227.5 6.7 227.4 6.7 227.3 6.7 C 227.2 6.7 227 6.7 226.8 6.7 C 226.6 6.7 226.4 6.8 226.3 6.8 C 226.1 6.9 226 6.9 225.9 7.1 C 225.7 7.2 225.7 7.3 225.7 7.5 Z M 228.8 7.4 C 228.7 7.5 228.7 7.6 228.7 7.7 C 228.7 7.7 228.7 7.8 228.7 7.9 C 228.7 8 228.7 8 228.7 8 C 228.8 8.1 228.8 8.1 228.9 8.1 C 229 8.1 229 8.1 229.1 8.1 C 229.1 8.1 229.2 8 229.3 8 C 229.3 8 229.1 8.8 229.1 8.8 C 229 8.8 228.8 8.8 228.7 8.9 C 228.6 8.9 228.4 8.9 228.3 8.9 C 228.1 8.9 228 8.8 227.9 8.7 C 227.7 8.6 227.7 8.5 227.7 8.3 C 227.5 8.5 227.2 8.7 226.9 8.8 C 226.7 8.9 226.4 8.9 226.1 8.9 C 225.9 8.9 225.7 8.9 225.6 8.8 C 225.4 8.8 225.2 8.7 225.1 8.6 C 225 8.5 224.8 8.4 224.8 8.2 C 224.7 8 224.7 7.9 224.7 7.7 C 224.7 7.4 224.7 7.1 224.8 6.9 C 224.9 6.7 225.1 6.6 225.2 6.5 C 225.4 6.3 225.6 6.2 225.9 6.2 C 226.1 6.1 226.3 6.1 226.6 6.1 C 227 6 227.3 6 227.6 6 C 227.8 6 228 5.9 228 5.8 C 228.1 5.7 228.2 5.5 228.2 5.4 C 228.2 5.1 228.1 5 227.9 4.9 C 227.8 4.8 227.6 4.8 227.4 4.8 C 227.1 4.8 226.9 4.9 226.6 5 C 226.4 5.1 226.3 5.2 226.2 5.5 C 226.2 5.5 225.3 5.5 225.3 5.5 C 225.3 5.2 225.4 5 225.5 4.8 C 225.7 4.6 225.8 4.5 226 4.3 C 226.2 4.2 226.4 4.1 226.7 4.1 C 226.9 4 227.2 4 227.5 4 C 227.9 4 228.2 4 228.4 4.1 C 228.7 4.2 228.8 4.3 229 4.4 C 229.1 4.5 229.1 4.6 229.2 4.8 C 229.2 4.9 229.2 5 229.2 5.1 C 229.2 5.3 229.2 5.5 229.1 5.8 C 229.1 5.8 228.8 7.4 228.8 7.4 Z M 233.4 6 C 233.5 6 233.5 6 233.5 6 C 233.5 5.9 233.5 5.9 233.5 5.9 C 233.5 5.9 233.5 5.8 233.5 5.8 C 233.5 5.5 233.4 5.2 233.2 5.1 C 233 4.9 232.8 4.8 232.5 4.8 C 232.1 4.8 231.8 4.9 231.6 5.2 C 231.3 5.4 231.2 5.7 231.1 6 C 231.1 6 233.4 6 233.4 6 Z M 234.2 7.3 C 234 7.9 233.8 8.3 233.4 8.5 C 233 8.8 232.5 8.9 232 8.9 C 231.7 8.9 231.4 8.9 231.1 8.8 C 230.9 8.7 230.7 8.5 230.5 8.4 C 230.3 8.2 230.2 8 230.1 7.7 C 230 7.5 229.9 7.2 229.9 6.9 C 229.9 6.5 230 6.2 230.1 5.8 C 230.2 5.5 230.4 5.2 230.6 4.9 C 230.8 4.6 231.1 4.4 231.4 4.2 C 231.7 4.1 232.1 4 232.5 4 C 232.9 4 233.3 4.1 233.5 4.2 C 233.8 4.3 234 4.5 234.1 4.7 C 234.3 4.9 234.4 5.2 234.4 5.4 C 234.5 5.7 234.5 5.9 234.5 6.1 C 234.5 6.3 234.5 6.4 234.5 6.5 C 234.5 6.5 234.4 6.6 234.4 6.7 C 234.4 6.7 231 6.7 231 6.7 C 231 6.7 231 6.8 230.9 6.8 C 230.9 6.8 230.9 6.8 230.9 6.9 C 230.9 6.9 230.9 7 230.9 7 C 230.9 7.3 231 7.6 231.2 7.8 C 231.4 8 231.7 8.1 232.1 8.1 C 232.3 8.1 232.6 8 232.8 7.9 C 233 7.8 233.1 7.6 233.2 7.3 C 233.2 7.3 234.2 7.3 234.2 7.3 Z M 236.1 2.3 L 237.2 2.3 L 236.4 6 L 236.4 6 L 238.5 4.1 L 239.8 4.1 L 237.8 5.8 L 238.9 8.8 L 237.8 8.8 L 237 6.5 L 236.2 7.2 L 235.8 8.8 L 234.8 8.8 L 236.1 2.3 Z M 239.9 4.1 L 241 4.1 L 241.3 7.5 L 241.3 7.5 L 242.8 4.1 L 243.9 4.1 L 244.1 7.5 L 244.1 7.5 L 245.7 4.1 L 246.8 4.1 L 244.4 8.8 L 243.3 8.8 L 243.1 5.4 L 243.1 5.4 L 241.6 8.8 L 240.5 8.8 L 239.9 4.1 Z M 249.5 4.8 C 249.2 4.8 249 4.9 248.8 5 C 248.6 5.1 248.4 5.3 248.3 5.5 C 248.2 5.7 248.1 5.9 248 6.2 C 247.9 6.4 247.9 6.7 247.9 6.9 C 247.9 7.2 248 7.5 248.2 7.7 C 248.3 8 248.6 8.1 249 8.1 C 249.2 8.1 249.5 8 249.7 7.9 C 249.9 7.8 250 7.6 250.2 7.4 C 250.3 7.2 250.4 7 250.5 6.7 C 250.5 6.5 250.5 6.2 250.5 6 C 250.5 5.7 250.5 5.4 250.3 5.1 C 250.1 4.9 249.8 4.8 249.5 4.8 Z M 248.9 8.9 C 248.3 8.9 247.8 8.7 247.4 8.4 C 247.1 8 246.9 7.5 246.9 6.9 C 246.9 6.5 246.9 6.1 247.1 5.8 C 247.2 5.4 247.4 5.1 247.6 4.9 C 247.8 4.6 248.1 4.4 248.4 4.2 C 248.8 4.1 249.1 4 249.5 4 C 250.2 4 250.7 4.2 251 4.5 C 251.4 4.8 251.6 5.3 251.6 6 C 251.6 6.4 251.5 6.8 251.4 7.1 C 251.3 7.5 251.1 7.8 250.9 8.1 C 250.6 8.3 250.4 8.5 250 8.7 C 249.7 8.8 249.3 8.9 248.9 8.9 Z M 253.1 4.1 L 254 4.1 L 253.9 4.8 C 253.9 4.8 253.89 4.81 253.9 4.8 C 254.1 4.6 254.3 4.4 254.6 4.2 C 254.9 4.1 255.2 4 255.5 4 C 256 4 256.3 4.1 256.5 4.3 C 256.7 4.6 256.9 4.9 256.9 5.2 C 256.9 5.3 256.9 5.4 256.8 5.5 C 256.8 5.6 256.8 5.7 256.8 5.8 C 256.81 5.8 256.2 8.8 256.2 8.8 L 255.2 8.8 C 255.2 8.8 255.76 5.9 255.8 5.9 C 255.8 5.8 255.8 5.8 255.8 5.7 C 255.8 5.6 255.8 5.5 255.8 5.5 C 255.8 5.4 255.8 5.4 255.8 5.3 C 255.8 5.2 255.8 5.2 255.8 5.1 C 255.7 5 255.6 4.9 255.5 4.9 C 255.4 4.8 255.3 4.8 255.1 4.8 C 254.9 4.8 254.7 4.8 254.6 4.9 C 254.4 5 254.3 5.1 254.1 5.3 C 254 5.4 253.9 5.5 253.8 5.7 C 253.7 5.9 253.7 6.1 253.6 6.3 C 253.64 6.25 253.1 8.8 253.1 8.8 L 252.1 8.8 L 253.1 4.1 Z M 261.7 8.8 L 260.7 8.8 L 260.8 8.1 C 260.8 8.1 260.81 8.13 260.8 8.1 C 260.6 8.4 260.4 8.6 260.1 8.7 C 259.9 8.8 259.6 8.9 259.4 8.9 C 259.2 8.9 259.1 8.9 258.9 8.8 C 258.6 8.8 258.4 8.7 258.3 8.6 C 258.1 8.5 257.9 8.3 257.8 8 C 257.6 7.8 257.5 7.4 257.5 7 C 257.5 6.6 257.6 6.2 257.7 5.9 C 257.8 5.5 258 5.2 258.2 4.9 C 258.4 4.6 258.7 4.4 259 4.3 C 259.3 4.1 259.7 4 260.1 4 C 260.4 4 260.7 4.1 260.9 4.2 C 261.2 4.3 261.4 4.5 261.5 4.8 C 261.48 4.76 261.5 4.8 261.5 4.8 L 262 2.3 L 263 2.3 L 261.7 8.8 Z M 261.2 5.9 C 261.2 5.8 261.2 5.6 261.2 5.5 C 261.1 5.4 261.1 5.2 261 5.1 C 260.9 5 260.8 5 260.7 4.9 C 260.5 4.8 260.4 4.8 260.2 4.8 C 259.9 4.8 259.7 4.9 259.5 5 C 259.3 5.1 259.1 5.3 259 5.5 C 258.8 5.7 258.7 6 258.7 6.2 C 258.6 6.5 258.6 6.7 258.6 7 C 258.6 7.3 258.7 7.6 258.8 7.8 C 259 8 259.3 8.1 259.6 8.1 C 259.9 8.1 260.1 8 260.3 7.9 C 260.5 7.7 260.7 7.6 260.8 7.4 C 261 7.1 261.1 6.9 261.1 6.7 C 261.2 6.4 261.2 6.2 261.2 5.9 Z M 265.7 4.8 C 265.5 4.8 265.3 4.9 265.1 5 C 264.9 5.1 264.7 5.3 264.6 5.5 C 264.4 5.7 264.3 5.9 264.3 6.2 C 264.2 6.4 264.2 6.7 264.2 6.9 C 264.2 7.2 264.3 7.5 264.4 7.7 C 264.6 8 264.9 8.1 265.3 8.1 C 265.5 8.1 265.7 8 265.9 7.9 C 266.1 7.8 266.3 7.6 266.4 7.4 C 266.6 7.2 266.7 7 266.7 6.7 C 266.8 6.5 266.8 6.2 266.8 6 C 266.8 5.7 266.7 5.4 266.6 5.1 C 266.4 4.9 266.1 4.8 265.7 4.8 Z M 265.2 8.9 C 264.5 8.9 264 8.7 263.7 8.4 C 263.3 8 263.2 7.5 263.2 6.9 C 263.2 6.5 263.2 6.1 263.3 5.8 C 263.5 5.4 263.6 5.1 263.9 4.9 C 264.1 4.6 264.4 4.4 264.7 4.2 C 265 4.1 265.4 4 265.8 4 C 266.5 4 267 4.2 267.3 4.5 C 267.7 4.8 267.8 5.3 267.8 6 C 267.8 6.4 267.8 6.8 267.7 7.1 C 267.5 7.5 267.4 7.8 267.1 8.1 C 266.9 8.3 266.6 8.5 266.3 8.7 C 266 8.8 265.6 8.9 265.2 8.9 Z " stroke="none" fill="#fff"/>
  </g>
</svg>