<?xml version="1.0" standalone="no"?>
<!DOCTYPE svg PUBLIC "-//W3C//DTD SVG 1.1//EN" "http://www.w3.org/Graphics/SVG/1.1/DTD/svg11.dtd">
<svg xmlns="http://www.w3.org/2000/svg" version="1.1" width="792px" height="31.8px" viewBox="0 -7 792 31.8" style="top:-7px">
  <desc>Pagtaliwas sa kinagisnang landas:</desc>
  <defs/>
  <g id="Polygon28136">
    <path d="M 235.7 0.7 C 235.7 0.7 239.57 0.67 239.6 0.7 C 240.7 0.7 241.6 0.8 242.3 1 C 242.9 1.2 243.5 1.6 243.9 2.3 C 244.3 3 244.6 3.8 244.6 4.8 C 244.6 5.8 244.4 6.6 244 7.3 C 243.7 7.9 243.2 8.4 242.6 8.6 C 241.9 8.9 241 9.1 239.7 9.1 C 239.7 9.07 238.7 9.1 238.7 9.1 L 238.7 14 L 235.7 14 L 235.7 0.7 Z M 238.7 2.8 L 238.7 6.8 C 238.7 6.8 239.57 6.79 239.6 6.8 C 240.4 6.8 240.9 6.6 241.1 6.2 C 241.4 5.9 241.5 5.4 241.5 4.8 C 241.5 4.3 241.4 3.9 241.2 3.6 C 241 3.3 240.8 3.1 240.6 3 C 240.3 2.9 240 2.8 239.6 2.8 C 239.57 2.83 238.7 2.8 238.7 2.8 Z M 248 0.7 L 250.9 0.7 L 254.7 14 L 251.8 14 L 251.1 11.3 L 247.3 11.3 L 246.7 14 L 244 14 L 248 0.7 Z M 250.5 9 L 249.2 3.5 L 247.9 9 L 250.5 9 Z M 260.3 6.9 L 265 6.9 L 265 14 L 263.7 14 C 263.7 14 263.35 12.48 263.4 12.5 C 262.6 13.6 261.6 14.2 260.1 14.2 C 258.6 14.2 257.4 13.6 256.5 12.4 C 255.6 11.2 255.2 9.6 255.2 7.6 C 255.2 5.4 255.6 3.7 256.5 2.4 C 257.4 1.1 258.7 0.5 260.4 0.5 C 263.1 0.5 264.6 2 265 5 C 265 5 262.3 5.5 262.3 5.5 C 262.2 3.7 261.5 2.9 260.4 2.9 C 259.8 2.9 259.3 3.2 258.9 3.8 C 258.5 4.5 258.3 5.7 258.3 7.5 C 258.3 9.1 258.5 10.2 258.9 10.8 C 259.2 11.5 259.8 11.8 260.5 11.8 C 261.7 11.8 262.3 10.9 262.3 9.2 C 262.34 9.18 260.3 9.2 260.3 9.2 L 260.3 6.9 Z M 266 0.7 L 274.3 0.7 L 274.3 3.2 L 271.5 3.2 L 271.5 14 L 268.6 14 L 268.6 3.2 L 266 3.2 L 266 0.7 Z M 277.4 0.7 L 280.3 0.7 L 284.1 14 L 281.1 14 L 280.5 11.3 L 276.7 11.3 L 276.1 14 L 273.4 14 L 277.4 0.7 Z M 279.9 9 L 278.6 3.5 L 277.3 9 L 279.9 9 Z M 285.2 0.7 L 288.2 0.7 L 288.2 11.5 L 292.5 11.5 L 292.5 14 L 285.2 14 L 285.2 0.7 Z M 293.8 0.7 L 296.7 0.7 L 296.7 14 L 293.8 14 L 293.8 0.7 Z M 297.8 0.7 L 300.8 0.7 L 302.2 9.9 L 304 0.7 L 306.7 0.7 L 308.3 9.9 L 309.9 0.7 L 312.4 0.7 L 309.6 14.1 L 306.9 14.1 L 305.2 4.8 L 303.3 14.1 L 300.7 14.1 L 297.8 0.7 Z M 315.8 0.7 L 318.7 0.7 L 322.5 14 L 319.5 14 L 318.9 11.3 L 315.1 11.3 L 314.4 14 L 311.8 14 L 315.8 0.7 Z M 318.3 9 L 317 3.5 L 315.7 9 L 318.3 9 Z M 327.4 0.5 C 329.8 0.5 331.2 1.5 331.8 3.6 C 331.8 3.6 329.4 4.5 329.4 4.5 C 329 3.4 328.4 2.9 327.5 2.9 C 327 2.9 326.7 3 326.4 3.2 C 326.2 3.5 326.1 3.7 326.1 4.1 C 326.1 4.4 326.2 4.8 326.5 5 C 326.8 5.2 327.4 5.5 328.4 5.9 C 329.2 6.2 329.9 6.5 330.4 6.8 C 330.9 7.1 331.3 7.5 331.6 8.1 C 331.9 8.6 332 9.2 332 10 C 332 11.2 331.6 12.2 330.8 13 C 329.9 13.8 328.8 14.2 327.3 14.2 C 324.9 14.2 323.4 13 322.7 10.5 C 322.7 10.5 325.2 9.8 325.2 9.8 C 325.6 11.2 326.3 11.8 327.4 11.8 C 327.9 11.8 328.3 11.7 328.6 11.4 C 328.9 11.2 329.1 10.8 329.1 10.4 C 329.1 10.1 329 9.8 328.8 9.5 C 328.5 9.3 328 9 327.2 8.7 C 326.2 8.3 325.5 8 325 7.7 C 324.5 7.4 324 7 323.7 6.4 C 323.4 5.9 323.2 5.3 323.2 4.6 C 323.2 3.4 323.6 2.4 324.4 1.6 C 325.2 0.9 326.2 0.5 327.4 0.5 C 327.4 0.5 327.4 0.5 327.4 0.5 Z M 347 0.5 C 349.3 0.5 350.8 1.5 351.3 3.6 C 351.3 3.6 348.9 4.5 348.9 4.5 C 348.6 3.4 347.9 2.9 347 2.9 C 346.6 2.9 346.2 3 346 3.2 C 345.7 3.5 345.6 3.7 345.6 4.1 C 345.6 4.4 345.8 4.8 346.1 5 C 346.4 5.2 347 5.5 347.9 5.9 C 348.8 6.2 349.5 6.5 350 6.8 C 350.4 7.1 350.8 7.5 351.1 8.1 C 351.4 8.6 351.6 9.2 351.6 10 C 351.6 11.2 351.2 12.2 350.3 13 C 349.5 13.8 348.3 14.2 346.9 14.2 C 344.5 14.2 342.9 13 342.2 10.5 C 342.2 10.5 344.8 9.8 344.8 9.8 C 345.1 11.2 345.8 11.8 346.9 11.8 C 347.4 11.8 347.9 11.7 348.2 11.4 C 348.5 11.2 348.6 10.8 348.6 10.4 C 348.6 10.1 348.5 9.8 348.3 9.5 C 348.1 9.3 347.6 9 346.8 8.7 C 345.8 8.3 345 8 344.5 7.7 C 344 7.4 343.6 7 343.3 6.4 C 342.9 5.9 342.8 5.3 342.8 4.6 C 342.8 3.4 343.2 2.4 343.9 1.6 C 344.7 0.9 345.7 0.5 347 0.5 C 347 0.5 347 0.5 347 0.5 Z M 356 0.7 L 358.9 0.7 L 362.7 14 L 359.7 14 L 359.1 11.3 L 355.3 11.3 L 354.7 14 L 352 14 L 356 0.7 Z M 358.5 9 L 357.2 3.5 L 355.9 9 L 358.5 9 Z M 373.2 0.7 L 376.1 0.7 L 376.1 6.2 L 379.3 0.7 L 382.3 0.7 L 379 5.6 L 382.6 14 L 379.6 14 L 377.2 7.9 L 376.1 9.5 L 376.1 14 L 373.2 14 L 373.2 0.7 Z M 383.7 0.7 L 386.7 0.7 L 386.7 14 L 383.7 14 L 383.7 0.7 Z M 389.1 0.7 L 392.3 0.7 L 395.8 9 L 395.8 0.7 L 398 0.7 L 398 14 L 395.4 14 L 391.3 4.4 L 391.3 14 L 389.1 14 L 389.1 0.7 Z M 403.2 0.7 L 406.1 0.7 L 409.9 14 L 406.9 14 L 406.3 11.3 L 402.5 11.3 L 401.8 14 L 399.2 14 L 403.2 0.7 Z M 405.7 9 L 404.4 3.5 L 403.1 9 L 405.7 9 Z M 415.5 6.9 L 420.1 6.9 L 420.1 14 L 418.9 14 C 418.9 14 418.52 12.48 418.5 12.5 C 417.8 13.6 416.7 14.2 415.3 14.2 C 413.8 14.2 412.6 13.6 411.7 12.4 C 410.8 11.2 410.4 9.6 410.4 7.6 C 410.4 5.4 410.8 3.7 411.7 2.4 C 412.5 1.1 413.8 0.5 415.6 0.5 C 418.3 0.5 419.8 2 420.1 5 C 420.1 5 417.5 5.5 417.5 5.5 C 417.3 3.7 416.7 2.9 415.6 2.9 C 415 2.9 414.4 3.2 414 3.8 C 413.6 4.5 413.4 5.7 413.4 7.5 C 413.4 9.1 413.6 10.2 414 10.8 C 414.4 11.5 415 11.8 415.7 11.8 C 416.9 11.8 417.5 10.9 417.5 9.2 C 417.5 9.18 415.5 9.2 415.5 9.2 L 415.5 6.9 Z M 422.4 0.7 L 425.4 0.7 L 425.4 14 L 422.4 14 L 422.4 0.7 Z M 431.7 0.5 C 434 0.5 435.5 1.5 436 3.6 C 436 3.6 433.6 4.5 433.6 4.5 C 433.3 3.4 432.6 2.9 431.7 2.9 C 431.3 2.9 430.9 3 430.7 3.2 C 430.4 3.5 430.3 3.7 430.3 4.1 C 430.3 4.4 430.5 4.8 430.8 5 C 431.1 5.2 431.7 5.5 432.6 5.9 C 433.5 6.2 434.2 6.5 434.6 6.8 C 435.1 7.1 435.5 7.5 435.8 8.1 C 436.1 8.6 436.3 9.2 436.3 10 C 436.3 11.2 435.9 12.2 435 13 C 434.2 13.8 433 14.2 431.6 14.2 C 429.2 14.2 427.6 13 426.9 10.5 C 426.9 10.5 429.5 9.8 429.5 9.8 C 429.8 11.2 430.5 11.8 431.6 11.8 C 432.1 11.8 432.6 11.7 432.9 11.4 C 433.2 11.2 433.3 10.8 433.3 10.4 C 433.3 10.1 433.2 9.8 433 9.5 C 432.8 9.3 432.3 9 431.5 8.7 C 430.5 8.3 429.7 8 429.2 7.7 C 428.7 7.4 428.3 7 428 6.4 C 427.6 5.9 427.5 5.3 427.5 4.6 C 427.5 3.4 427.9 2.4 428.6 1.6 C 429.4 0.9 430.4 0.5 431.7 0.5 C 431.7 0.5 431.7 0.5 431.7 0.5 Z M 438 0.7 L 441.2 0.7 L 444.7 9 L 444.7 0.7 L 446.9 0.7 L 446.9 14 L 444.3 14 L 440.3 4.4 L 440.3 14 L 438 14 L 438 0.7 Z M 452.1 0.7 L 455 0.7 L 458.8 14 L 455.8 14 L 455.2 11.3 L 451.4 11.3 L 450.8 14 L 448.1 14 L 452.1 0.7 Z M 454.6 9 L 453.3 3.5 L 452 9 L 454.6 9 Z M 459.8 0.7 L 463.1 0.7 L 466.5 9 L 466.5 0.7 L 468.8 0.7 L 468.8 14 L 466.2 14 L 462.1 4.4 L 462.1 14 L 459.8 14 L 459.8 0.7 Z M 475.9 6.9 L 480.5 6.9 L 480.5 14 L 479.3 14 C 479.3 14 478.87 12.48 478.9 12.5 C 478.2 13.6 477.1 14.2 475.6 14.2 C 474.1 14.2 472.9 13.6 472 12.4 C 471.2 11.2 470.7 9.6 470.7 7.6 C 470.7 5.4 471.1 3.7 472 2.4 C 472.9 1.1 474.2 0.5 475.9 0.5 C 478.6 0.5 480.2 2 480.5 5 C 480.5 5 477.9 5.5 477.9 5.5 C 477.7 3.7 477 2.9 476 2.9 C 475.3 2.9 474.8 3.2 474.4 3.8 C 474 4.5 473.8 5.7 473.8 7.5 C 473.8 9.1 474 10.2 474.4 10.8 C 474.8 11.5 475.3 11.8 476.1 11.8 C 477.2 11.8 477.8 10.9 477.9 9.2 C 477.86 9.18 475.9 9.2 475.9 9.2 L 475.9 6.9 Z M 492.1 0.7 L 495 0.7 L 495 11.5 L 499.3 11.5 L 499.3 14 L 492.1 14 L 492.1 0.7 Z M 503 0.7 L 505.9 0.7 L 509.7 14 L 506.7 14 L 506.1 11.3 L 502.3 11.3 L 501.7 14 L 499 14 L 503 0.7 Z M 505.5 9 L 504.2 3.5 L 502.9 9 L 505.5 9 Z M 510.7 0.7 L 514 0.7 L 517.4 9 L 517.4 0.7 L 519.7 0.7 L 519.7 14 L 517.1 14 L 513 4.4 L 513 14 L 510.7 14 L 510.7 0.7 Z M 522.1 0.7 C 522.1 0.7 525.24 0.67 525.2 0.7 C 526.6 0.7 527.7 0.9 528.6 1.2 C 529.4 1.6 530.1 2.3 530.6 3.3 C 531.1 4.3 531.4 5.6 531.4 7.3 C 531.4 8.5 531.2 9.5 530.9 10.5 C 530.6 11.4 530.2 12.1 529.7 12.7 C 529.2 13.2 528.6 13.5 528 13.7 C 527.3 13.9 526.5 14 525.6 14 C 525.59 14 522.1 14 522.1 14 L 522.1 0.7 Z M 525 3 L 525 11.7 C 525 11.7 525.51 11.72 525.5 11.7 C 526.2 11.7 526.7 11.6 527.1 11.3 C 527.5 11.1 527.8 10.6 528 10 C 528.2 9.3 528.3 8.4 528.3 7.2 C 528.3 6 528.2 5.1 527.9 4.5 C 527.7 3.9 527.4 3.5 527 3.3 C 526.7 3.1 526.2 3 525.5 3 C 525.51 2.96 525 3 525 3 Z M 535.6 0.7 L 538.5 0.7 L 542.3 14 L 539.3 14 L 538.7 11.3 L 534.9 11.3 L 534.3 14 L 531.6 14 L 535.6 0.7 Z M 538.1 9 L 536.8 3.5 L 535.5 9 L 538.1 9 Z M 547.3 0.5 C 549.6 0.5 551 1.5 551.6 3.6 C 551.6 3.6 549.2 4.5 549.2 4.5 C 548.8 3.4 548.2 2.9 547.3 2.9 C 546.9 2.9 546.5 3 546.3 3.2 C 546 3.5 545.9 3.7 545.9 4.1 C 545.9 4.4 546 4.8 546.3 5 C 546.6 5.2 547.3 5.5 548.2 5.9 C 549.1 6.2 549.7 6.5 550.2 6.8 C 550.7 7.1 551.1 7.5 551.4 8.1 C 551.7 8.6 551.9 9.2 551.9 10 C 551.9 11.2 551.4 12.2 550.6 13 C 549.7 13.8 548.6 14.2 547.1 14.2 C 544.7 14.2 543.2 13 542.5 10.5 C 542.5 10.5 545.1 9.8 545.1 9.8 C 545.4 11.2 546.1 11.8 547.2 11.8 C 547.7 11.8 548.1 11.7 548.4 11.4 C 548.8 11.2 548.9 10.8 548.9 10.4 C 548.9 10.1 548.8 9.8 548.6 9.5 C 548.4 9.3 547.9 9 547.1 8.7 C 546 8.3 545.3 8 544.8 7.7 C 544.3 7.4 543.9 7 543.5 6.4 C 543.2 5.9 543.1 5.3 543.1 4.6 C 543.1 3.4 543.4 2.4 544.2 1.6 C 545 0.9 546 0.5 547.3 0.5 C 547.3 0.5 547.3 0.5 547.3 0.5 Z M 553.6 4.1 L 556.3 4.1 L 556.3 7.1 L 553.6 7.1 L 553.6 4.1 Z M 553.6 11.1 L 556.3 11.1 L 556.3 14 L 553.6 14 L 553.6 11.1 Z " stroke="none" fill="#000"/>
  </g>
</svg>