<?xml version="1.0" standalone="no"?>
<!DOCTYPE svg PUBLIC "-//W3C//DTD SVG 1.1//EN" "http://www.w3.org/Graphics/SVG/1.1/DTD/svg11.dtd">
<svg xmlns="http://www.w3.org/2000/svg" version="1.1" width="310px" height="128.8px" viewBox="0 -12 310 128.8" style="top:-12px">
  <desc>Pagsilip sa proyektong Boto Lasalyano, Sulong Pilipino ng DLSP</desc>
  <defs/>
  <g id="Polygon14847">
    <path d="M 1.1 92.4 C 3.8 92.2 3.9 92.1 3.9 90.4 C 3.9 90.4 3.9 74.7 3.9 74.7 C 3.9 72.9 3.8 72.9 1.1 72.7 C 1.09 72.7 1.1 71.8 1.1 71.8 C 1.1 71.8 9.73 71.8 9.7 71.8 C 11.9 71.8 13.9 72.1 15.4 73 C 16.8 73.9 17.8 75.5 17.8 77.9 C 17.8 81.7 15.1 83.4 12.7 84 C 11.5 84.3 10.1 84.4 8.7 84.4 C 8.71 84.45 6.9 84.4 6.9 84.4 C 6.9 84.4 6.94 90.37 6.9 90.4 C 6.9 92.1 7 92.2 10.2 92.4 C 10.23 92.35 10.2 93.3 10.2 93.3 L 1.1 93.3 C 1.1 93.3 1.09 92.35 1.1 92.4 Z M 9.2 83.4 C 11.9 83.4 14.4 82 14.4 78.1 C 14.4 74.7 12.5 72.9 9.3 72.9 C 7.3 72.9 6.9 73.2 6.9 74 C 6.9 74 6.9 82.2 6.9 82.2 C 6.9 83.3 7.4 83.4 9.2 83.4 Z M 22.4 71.1 C 23.5 71.1 24.3 71.9 24.3 73 C 24.3 74.1 23.5 74.9 22.4 74.9 C 21.3 74.9 20.5 74.1 20.5 73 C 20.5 71.9 21.3 71.1 22.4 71.1 Z M 18.7 92.4 C 20.9 92.2 21 92.1 21 90.6 C 21 90.6 21 80.8 21 80.8 C 21 79.7 20.8 79.5 20 79.4 C 19.99 79.39 18.8 79.2 18.8 79.2 L 18.8 78.5 L 23.7 77.7 L 23.9 77.9 C 23.9 77.9 23.9 90.55 23.9 90.6 C 23.9 92.1 24 92.2 26.2 92.4 C 26.23 92.35 26.2 93.3 26.2 93.3 L 18.7 93.3 C 18.7 93.3 18.66 92.35 18.7 92.4 Z M 26.4 92.4 C 28.6 92.2 28.7 92.1 28.7 90.6 C 28.7 90.6 28.7 73.3 28.7 73.3 C 28.7 72.2 28.5 72 27.7 71.9 C 27.71 71.92 26.5 71.8 26.5 71.8 L 26.5 71 L 31.4 70.2 L 31.6 70.4 C 31.6 70.4 31.62 90.55 31.6 90.6 C 31.6 92.1 31.7 92.2 33.9 92.4 C 33.94 92.35 33.9 93.3 33.9 93.3 L 26.4 93.3 C 26.4 93.3 26.38 92.35 26.4 92.4 Z M 38.2 71.1 C 39.3 71.1 40.1 71.9 40.1 73 C 40.1 74.1 39.3 74.9 38.2 74.9 C 37.1 74.9 36.3 74.1 36.3 73 C 36.3 71.9 37.1 71.1 38.2 71.1 Z M 34.5 92.4 C 36.7 92.2 36.8 92.1 36.8 90.6 C 36.8 90.6 36.8 80.8 36.8 80.8 C 36.8 79.7 36.6 79.5 35.8 79.4 C 35.8 79.39 34.6 79.2 34.6 79.2 L 34.6 78.5 L 39.5 77.7 L 39.7 77.9 C 39.7 77.9 39.71 90.55 39.7 90.6 C 39.7 92.1 39.8 92.2 42 92.4 C 42.03 92.35 42 93.3 42 93.3 L 34.5 93.3 C 34.5 93.3 34.47 92.35 34.5 92.4 Z M 44.7 97.7 C 44.7 97.7 44.7 80.8 44.7 80.8 C 44.7 79.7 44.5 79.5 43.7 79.4 C 43.68 79.39 42.5 79.2 42.5 79.2 L 42.5 78.5 L 47.2 77.7 C 47.2 77.7 47.58 79.98 47.6 80 C 48.8 79.2 50.6 77.7 52.9 77.7 C 58.5 77.7 58.9 83.1 58.9 85.3 C 58.9 91.7 55.3 93.6 51.1 93.6 C 49.7 93.6 48.2 93.3 47.6 92.9 C 47.6 92.9 47.6 97.7 47.6 97.7 C 47.6 99.3 47.8 99.3 50.4 99.5 C 50.37 99.48 50.4 100.4 50.4 100.4 L 42.3 100.4 C 42.3 100.4 42.34 99.48 42.3 99.5 C 44.5 99.3 44.7 99.3 44.7 97.7 Z M 47.8 90.3 C 48.3 91.7 49.5 92.5 51.1 92.5 C 54.2 92.5 55.7 90.1 55.7 85.5 C 55.7 80.2 52.9 79.4 51.7 79.4 C 50 79.4 48.7 80.1 48 81.5 C 47.7 82.1 47.6 82.5 47.6 83.3 C 47.6 83.3 47.6 88.4 47.6 88.4 C 47.6 89.1 47.6 89.7 47.8 90.3 Z M 64.2 71.1 C 65.3 71.1 66.1 71.9 66.1 73 C 66.1 74.1 65.3 74.9 64.2 74.9 C 63.1 74.9 62.3 74.1 62.3 73 C 62.3 71.9 63.1 71.1 64.2 71.1 Z M 60.5 92.4 C 62.7 92.2 62.8 92.1 62.8 90.6 C 62.8 90.6 62.8 80.8 62.8 80.8 C 62.8 79.7 62.6 79.5 61.8 79.4 C 61.81 79.39 60.6 79.2 60.6 79.2 L 60.6 78.5 L 65.5 77.7 L 65.7 77.9 C 65.7 77.9 65.72 90.55 65.7 90.6 C 65.7 92.1 65.8 92.2 68 92.4 C 68.04 92.35 68 93.3 68 93.3 L 60.5 93.3 C 60.5 93.3 60.48 92.35 60.5 92.4 Z M 68.6 92.4 C 70.8 92.2 70.9 92.1 70.9 90.6 C 70.9 90.6 70.9 80.8 70.9 80.8 C 70.9 79.7 70.7 79.5 69.9 79.4 C 69.9 79.39 68.7 79.2 68.7 79.2 L 68.7 78.5 L 73.3 77.7 C 73.3 77.7 73.78 80.04 73.8 80 C 75.7 78.8 77.1 77.7 79.4 77.7 C 82.3 77.7 84 79.5 84 82.6 C 84 82.6 84 90.6 84 90.6 C 84 92.1 84.1 92.2 86.3 92.4 C 86.3 92.35 86.3 93.3 86.3 93.3 L 78.7 93.3 C 78.7 93.3 78.74 92.35 78.7 92.4 C 81 92.2 81.1 92.1 81.1 90.6 C 81.1 90.6 81.1 83.2 81.1 83.2 C 81.1 80.5 79.9 79.4 77.8 79.4 C 76.2 79.4 74.8 80.4 74.1 81.6 C 73.9 82.1 73.8 82.5 73.8 83.3 C 73.8 83.3 73.8 90.6 73.8 90.6 C 73.8 92.1 73.9 92.2 76.1 92.4 C 76.13 92.35 76.1 93.3 76.1 93.3 L 68.6 93.3 C 68.6 93.3 68.57 92.35 68.6 92.4 Z M 94.8 77.7 C 99.8 77.7 102.2 80.6 102.2 85.7 C 102.2 90.7 99.8 93.6 94.8 93.6 C 89.8 93.6 87.4 90.7 87.4 85.7 C 87.4 80.6 89.8 77.7 94.8 77.7 Z M 94.8 92.5 C 97.6 92.5 99 89.9 99 85.7 C 99 81.4 97.6 78.8 94.8 78.8 C 91.9 78.8 90.6 81.4 90.6 85.7 C 90.6 89.9 91.9 92.5 94.8 92.5 Z M 109.8 92.4 C 112.1 92.2 112.2 92.1 112.2 90.6 C 112.2 90.6 112.2 80.8 112.2 80.8 C 112.2 79.7 112 79.5 111.2 79.4 C 111.16 79.39 110 79.2 110 79.2 L 110 78.5 L 114.6 77.7 C 114.6 77.7 115.04 80.04 115 80 C 117 78.8 118.4 77.7 120.7 77.7 C 123.5 77.7 125.2 79.5 125.2 82.6 C 125.2 82.6 125.2 90.6 125.2 90.6 C 125.2 92.1 125.4 92.2 127.6 92.4 C 127.56 92.35 127.6 93.3 127.6 93.3 L 120 93.3 C 120 93.3 120 92.35 120 92.4 C 122.2 92.2 122.3 92.1 122.3 90.6 C 122.3 90.6 122.3 83.2 122.3 83.2 C 122.3 80.5 121.2 79.4 119.1 79.4 C 117.4 79.4 116 80.4 115.4 81.6 C 115.1 82.1 115.1 82.5 115.1 83.3 C 115.1 83.3 115.1 90.6 115.1 90.6 C 115.1 92.1 115.2 92.2 117.4 92.4 C 117.39 92.35 117.4 93.3 117.4 93.3 L 109.8 93.3 C 109.8 93.3 109.83 92.35 109.8 92.4 Z M 132 92.8 C 132 92.8 132 92.8 132 92.8 C 130.5 92.6 129.2 91.4 129.2 90.3 C 129.2 89.1 130.4 88.2 132.1 87.6 C 132.1 87.6 132.1 87.5 132.1 87.5 C 130.7 87.1 128.7 85.8 128.7 82.9 C 128.7 80.6 130.4 77.7 135.2 77.7 C 136.6 77.7 138.3 78.1 139.2 78.6 C 139.16 78.65 143.1 77.4 143.1 77.4 L 143.4 77.7 L 142.8 79.6 C 142.8 79.6 140.3 79.98 140.3 80 C 140.8 80.5 141.2 81.6 141.2 82.9 C 141.2 86.6 137.9 87.9 135 87.9 C 134.6 87.9 134 87.9 133.4 87.9 C 133 88 131.8 88.5 131.8 89.4 C 131.8 90 132.1 90.7 134.4 90.7 C 134.4 90.7 136.9 90.7 136.9 90.7 C 140.2 90.7 142.8 91.9 142.8 95.2 C 142.8 97.2 141.8 98.6 140.4 99.5 C 138.9 100.4 137 100.8 135.1 100.8 C 131.5 100.8 128.4 99.4 128.4 96.2 C 128.4 94 130.6 93.3 132 92.8 Z M 135.8 99.7 C 138 99.7 140.2 98.5 140.2 96 C 140.2 93.7 138.2 93 135.5 93 C 134 93 133 93.2 132.3 93.7 C 131.7 94.2 131.3 95 131.3 96.1 C 131.3 98.3 133.2 99.7 135.8 99.7 Z M 135.1 86.9 C 136.9 86.9 138.3 85.5 138.3 82.9 C 138.3 79.9 136.7 78.8 135.2 78.8 C 133.5 78.8 131.9 79.8 131.9 82.9 C 131.9 85.5 133.4 86.9 135.1 86.9 Z M 149.4 92.4 C 152.1 92.2 152.2 92.1 152.2 90.4 C 152.2 90.4 152.2 74.7 152.2 74.7 C 152.2 72.9 152.1 72.9 149.4 72.7 C 149.42 72.7 149.4 71.8 149.4 71.8 C 149.4 71.8 159.71 71.8 159.7 71.8 C 168.7 71.8 171 77.1 171 82.2 C 171 87.7 168.6 93.3 159.1 93.3 C 159.09 93.25 149.4 93.3 149.4 93.3 C 149.4 93.3 149.42 92.35 149.4 92.4 Z M 158.5 92.2 C 163.7 92.2 167.5 90.1 167.5 82.3 C 167.5 77 165.4 72.9 158.9 72.9 C 155.6 72.9 155.3 73 155.3 74.6 C 155.3 74.6 155.3 89.4 155.3 89.4 C 155.3 91.8 155.8 92.2 158.5 92.2 Z M 172.6 92.4 C 175.4 92.2 175.4 92.1 175.4 90.4 C 175.4 90.4 175.4 74.7 175.4 74.7 C 175.4 72.9 175.4 72.9 172.6 72.7 C 172.63 72.7 172.6 71.8 172.6 71.8 L 181.5 71.8 C 181.5 71.8 181.47 72.7 181.5 72.7 C 178.6 72.9 178.5 72.9 178.5 74.7 C 178.5 74.7 178.5 89.5 178.5 89.5 C 178.5 91 178.6 91.6 179.3 91.9 C 179.9 92.1 181 92.2 182.6 92.2 C 185.8 92.2 187.5 91.8 188.2 87.7 C 188.17 87.7 189.1 87.7 189.1 87.7 L 188.7 93.3 L 172.6 93.3 C 172.6 93.3 172.63 92.35 172.6 92.4 Z M 190.8 86.9 C 191.5 90.4 193.5 92.6 196.4 92.6 C 199.1 92.6 200.8 91 200.8 88.4 C 200.8 85.6 197.9 84.2 196.5 83.6 C 196.5 83.6 196 83.4 196 83.4 C 192.7 82.3 190.1 80.6 190.1 77.3 C 190.1 73.2 193.5 71.3 197.2 71.3 C 199.4 71.3 201.5 71.9 202.5 72.7 C 202.52 72.7 202.5 77.1 202.5 77.1 C 202.5 77.1 201.56 77.07 201.6 77.1 C 201.1 73.9 199.6 72.4 196.9 72.4 C 194.3 72.4 192.9 74.1 192.9 76.4 C 192.9 78.2 194.7 79.5 196.8 80.3 C 196.8 80.3 197.7 80.7 197.7 80.7 C 201.4 82 203.9 83.8 203.9 87.4 C 203.9 90.6 201.7 93.7 196.2 93.7 C 194 93.7 191.5 93.1 190.1 91.9 C 190.09 91.86 189.8 86.9 189.8 86.9 C 189.8 86.9 190.77 86.89 190.8 86.9 Z M 205.2 92.4 C 207.9 92.2 207.9 92.1 207.9 90.4 C 207.9 90.4 207.9 74.7 207.9 74.7 C 207.9 72.9 207.9 72.9 205.2 72.7 C 205.15 72.7 205.2 71.8 205.2 71.8 C 205.2 71.8 213.8 71.8 213.8 71.8 C 216 71.8 218 72.1 219.4 73 C 220.8 73.9 221.9 75.5 221.9 77.9 C 221.9 81.7 219.1 83.4 216.7 84 C 215.6 84.3 214.2 84.4 212.8 84.4 C 212.78 84.45 211 84.4 211 84.4 C 211 84.4 211.01 90.37 211 90.4 C 211 92.1 211.1 92.2 214.3 92.4 C 214.3 92.35 214.3 93.3 214.3 93.3 L 205.2 93.3 C 205.2 93.3 205.15 92.35 205.2 92.4 Z M 213.3 83.4 C 216 83.4 218.5 82 218.5 78.1 C 218.5 74.7 216.6 72.9 213.4 72.9 C 211.4 72.9 211 73.2 211 74 C 211 74 211 82.2 211 82.2 C 211 83.3 211.5 83.4 213.3 83.4 Z " stroke="none" fill="#000"/>
  </g>
  <g id="Polygon14846">
    <path d="M 1.1 57.4 C 3.8 57.2 3.9 57.1 3.9 55.4 C 3.9 55.4 3.9 39.7 3.9 39.7 C 3.9 37.9 3.8 37.9 1.1 37.7 C 1.09 37.7 1.1 36.8 1.1 36.8 C 1.1 36.8 10.04 36.8 10 36.8 C 12.5 36.8 14.3 37.1 15.5 37.9 C 16.8 38.8 17.5 40 17.5 41.7 C 17.5 44.1 15.7 45.9 12.8 46.5 C 12.8 46.5 12.8 46.6 12.8 46.6 C 15.8 47 18.4 48.6 18.4 52.2 C 18.4 56.5 15.4 58.3 10.7 58.3 C 10.69 58.25 1.1 58.3 1.1 58.3 C 1.1 58.3 1.09 57.35 1.1 57.4 Z M 9.9 57.2 C 12.6 57.2 15.1 56.2 15.1 52.5 C 15.1 49.2 13 47.2 9.2 47.2 C 9.18 47.24 6.9 47.2 6.9 47.2 C 6.9 47.2 6.94 54.78 6.9 54.8 C 6.9 56.7 7.4 57.2 9.9 57.2 Z M 9 46.2 C 12.2 46.2 14.2 45 14.2 41.9 C 14.2 38.7 11.7 37.9 9.5 37.9 C 7 37.9 6.9 38.1 6.9 39.4 C 6.94 39.43 6.9 46.2 6.9 46.2 C 6.9 46.2 9.02 46.16 9 46.2 Z M 27.9 42.7 C 32.9 42.7 35.3 45.6 35.3 50.7 C 35.3 55.7 32.9 58.6 27.9 58.6 C 22.9 58.6 20.4 55.7 20.4 50.7 C 20.4 45.6 22.9 42.7 27.9 42.7 Z M 27.9 57.5 C 30.7 57.5 32.1 54.9 32.1 50.7 C 32.1 46.4 30.7 43.8 27.9 43.8 C 25 43.8 23.7 46.4 23.7 50.7 C 23.7 54.9 25 57.5 27.9 57.5 Z M 36.8 43.1 L 39.2 43.1 L 41.1 39.2 L 42 39.2 L 42 43.1 L 46 43.1 L 46 44.3 L 42 44.3 C 42 44.3 41.97 53.91 42 53.9 C 42 56.3 43 57 44 57 C 44.8 57 45.5 56.9 46.2 56.6 C 46.2 56.6 46.5 57.3 46.5 57.3 C 45.6 57.8 44.1 58.6 42.5 58.6 C 41.4 58.6 39.1 58.3 39.1 55.1 C 39.06 55.09 39.1 44.3 39.1 44.3 L 36.8 44.3 L 36.8 43.1 Z M 54.6 42.7 C 59.6 42.7 62 45.6 62 50.7 C 62 55.7 59.6 58.6 54.6 58.6 C 49.6 58.6 47.1 55.7 47.1 50.7 C 47.1 45.6 49.6 42.7 54.6 42.7 Z M 54.6 57.5 C 57.4 57.5 58.8 54.9 58.8 50.7 C 58.8 46.4 57.4 43.8 54.6 43.8 C 51.7 43.8 50.3 46.4 50.3 50.7 C 50.3 54.9 51.7 57.5 54.6 57.5 Z M 69.7 57.4 C 72.4 57.2 72.5 57.1 72.5 55.4 C 72.5 55.4 72.5 39.7 72.5 39.7 C 72.5 37.9 72.4 37.9 69.7 37.7 C 69.69 37.7 69.7 36.8 69.7 36.8 L 78.5 36.8 C 78.5 36.8 78.52 37.7 78.5 37.7 C 75.6 37.9 75.5 37.9 75.5 39.7 C 75.5 39.7 75.5 54.5 75.5 54.5 C 75.5 56 75.7 56.6 76.3 56.9 C 77 57.1 78.1 57.2 79.6 57.2 C 82.9 57.2 84.6 56.8 85.2 52.7 C 85.22 52.7 86.1 52.7 86.1 52.7 L 85.8 58.3 L 69.7 58.3 C 69.7 58.3 69.69 57.35 69.7 57.4 Z M 89.7 50.5 C 92.1 49.8 95.1 49 95.9 48.2 C 95.9 48.2 95.9 46.9 95.9 46.9 C 95.9 44.4 94.5 43.8 93.3 43.8 C 92 43.8 90.8 44.5 90.1 46.8 C 89.9 47.3 89.7 47.7 89.1 47.7 C 88.5 47.7 87.4 47.2 87.4 46.2 C 87.4 44.5 90.1 42.7 93.6 42.7 C 98.3 42.7 98.7 45 98.7 46.8 C 98.7 46.8 98.7 54.3 98.7 54.3 C 98.7 56.3 99.2 56.9 99.8 57 C 100.3 57.1 100.9 57 101.4 56.9 C 101.4 56.9 101.6 57.7 101.6 57.7 C 100.4 58.3 99 58.6 97.9 58.6 C 96.8 58.6 96.3 57.9 95.9 56.8 C 94.9 57.4 93.1 58.6 91.3 58.6 C 88.3 58.6 86.8 56.5 86.8 54.2 C 86.8 52.8 87.5 51.2 89.7 50.5 Z M 92.8 57 C 94 57 95.9 56.3 95.9 53.8 C 95.9 53.8 95.9 49.4 95.9 49.4 C 95.2 49.9 93.6 50.5 92.3 50.9 C 90.6 51.6 89.9 52.3 89.9 53.8 C 89.9 55.6 90.9 57 92.8 57 Z M 102.9 53.1 C 103.5 55.7 104.9 57.5 107.4 57.5 C 109.1 57.5 110.3 56.5 110.3 55 C 110.3 52.9 108.4 52.1 107 51.7 C 104.4 50.9 102.3 49.8 102.3 47.2 C 102.3 44.3 104.6 42.7 107.9 42.7 C 109.3 42.7 110.9 43 111.9 43.7 C 111.94 43.74 111.9 47.4 111.9 47.4 C 111.9 47.4 111.04 47.37 111 47.4 C 110.8 45.5 109.8 43.8 107.6 43.8 C 106 43.8 104.8 44.7 104.8 46.3 C 104.8 48 106.8 48.7 108.1 49.1 C 111.3 50.1 113 51.3 113 54 C 113 56.7 110.9 58.6 107.2 58.6 C 105.3 58.6 103.4 58.1 102.3 57.1 C 102.33 57.13 102 53.1 102 53.1 C 102 53.1 102.92 53.07 102.9 53.1 Z M 117.6 50.5 C 120 49.8 123 49 123.8 48.2 C 123.8 48.2 123.8 46.9 123.8 46.9 C 123.8 44.4 122.4 43.8 121.1 43.8 C 119.9 43.8 118.6 44.5 118 46.8 C 117.8 47.3 117.6 47.7 117 47.7 C 116.4 47.7 115.2 47.2 115.2 46.2 C 115.2 44.5 118 42.7 121.5 42.7 C 126.2 42.7 126.6 45 126.6 46.8 C 126.6 46.8 126.6 54.3 126.6 54.3 C 126.6 56.3 127.1 56.9 127.7 57 C 128.1 57.1 128.8 57 129.2 56.9 C 129.2 56.9 129.4 57.7 129.4 57.7 C 128.2 58.3 126.9 58.6 125.8 58.6 C 124.7 58.6 124.2 57.9 123.8 56.8 C 122.8 57.4 120.9 58.6 119.1 58.6 C 116.2 58.6 114.7 56.5 114.7 54.2 C 114.7 52.8 115.3 51.2 117.6 50.5 Z M 120.7 57 C 121.9 57 123.8 56.3 123.8 53.8 C 123.8 53.8 123.8 49.4 123.8 49.4 C 123.1 49.9 121.5 50.5 120.2 50.9 C 118.5 51.6 117.8 52.3 117.8 53.8 C 117.8 55.6 118.7 57 120.7 57 Z M 129.1 57.4 C 131.3 57.2 131.4 57.1 131.4 55.6 C 131.4 55.6 131.4 38.3 131.4 38.3 C 131.4 37.2 131.2 37 130.4 36.9 C 130.38 36.92 129.2 36.8 129.2 36.8 L 129.2 36 L 134.1 35.2 L 134.3 35.4 C 134.3 35.4 134.29 55.55 134.3 55.6 C 134.3 57.1 134.4 57.2 136.6 57.4 C 136.62 57.35 136.6 58.3 136.6 58.3 L 129.1 58.3 C 129.1 58.3 129.05 57.35 129.1 57.4 Z M 136 43.1 L 143.1 43.1 L 143.1 44 C 143.1 44 141.76 44.08 141.8 44.1 C 141 44.1 141.1 44.5 141.3 45 C 142.4 48.3 143.7 51.7 145.1 55.4 C 145.1 55.4 145.2 55.4 145.2 55.4 C 146.5 51.7 148.1 47 148.6 45.2 C 148.8 44.5 148.7 44.2 148.2 44.1 C 148.18 44.11 146.6 44 146.6 44 L 146.6 43.1 L 152.5 43.1 C 152.5 43.1 152.52 43.96 152.5 44 C 151 44.1 150.8 44.3 150.2 45.5 C 149.3 47.7 146.4 55.3 144.5 60.8 C 142.9 65.4 141.3 65.8 140.1 65.8 C 138.8 65.8 137.9 64.9 137.9 64.1 C 137.9 63.2 138.7 62.4 139.3 62.4 C 139.7 62.4 139.9 62.6 140.2 62.8 C 140.8 63.4 141 63.5 141.4 63.5 C 141.7 63.5 142.3 63.2 142.7 62.2 C 143.2 61.2 143.5 60.3 143.5 59.6 C 143.5 59 143.4 58.6 143.2 58 C 142.5 55.9 139.9 49.3 138.4 45.6 C 137.8 44.2 137.5 44 136 44 C 136 43.96 136 43.1 136 43.1 Z M 155.3 50.5 C 157.8 49.8 160.8 49 161.5 48.2 C 161.5 48.2 161.5 46.9 161.5 46.9 C 161.5 44.4 160.1 43.8 158.9 43.8 C 157.7 43.8 156.4 44.5 155.7 46.8 C 155.6 47.3 155.4 47.7 154.7 47.7 C 154.1 47.7 153 47.2 153 46.2 C 153 44.5 155.7 42.7 159.2 42.7 C 163.9 42.7 164.3 45 164.3 46.8 C 164.3 46.8 164.3 54.3 164.3 54.3 C 164.3 56.3 164.9 56.9 165.4 57 C 165.9 57.1 166.6 57 167 56.9 C 167 56.9 167.2 57.7 167.2 57.7 C 166 58.3 164.7 58.6 163.5 58.6 C 162.4 58.6 161.9 57.9 161.5 56.8 C 160.5 57.4 158.7 58.6 156.9 58.6 C 154 58.6 152.4 56.5 152.4 54.2 C 152.4 52.8 153.1 51.2 155.3 50.5 Z M 158.4 57 C 159.6 57 161.5 56.3 161.5 53.8 C 161.5 53.8 161.5 49.4 161.5 49.4 C 160.9 49.9 159.2 50.5 158 50.9 C 156.2 51.6 155.6 52.3 155.6 53.8 C 155.6 55.6 156.5 57 158.4 57 Z M 167.2 57.4 C 169.4 57.2 169.5 57.1 169.5 55.6 C 169.5 55.6 169.5 45.8 169.5 45.8 C 169.5 44.7 169.3 44.5 168.5 44.4 C 168.51 44.39 167.3 44.2 167.3 44.2 L 167.3 43.5 L 172 42.7 C 172 42.7 172.39 45.04 172.4 45 C 174.3 43.8 175.7 42.7 178 42.7 C 180.9 42.7 182.6 44.5 182.6 47.6 C 182.6 47.6 182.6 55.6 182.6 55.6 C 182.6 57.1 182.7 57.2 184.9 57.4 C 184.91 57.35 184.9 58.3 184.9 58.3 L 177.3 58.3 C 177.3 58.3 177.35 57.35 177.3 57.4 C 179.6 57.2 179.7 57.1 179.7 55.6 C 179.7 55.6 179.7 48.2 179.7 48.2 C 179.7 45.5 178.5 44.4 176.4 44.4 C 174.8 44.4 173.4 45.4 172.7 46.6 C 172.5 47.1 172.4 47.5 172.4 48.3 C 172.4 48.3 172.4 55.6 172.4 55.6 C 172.4 57.1 172.5 57.2 174.7 57.4 C 174.74 57.35 174.7 58.3 174.7 58.3 L 167.2 58.3 C 167.2 58.3 167.18 57.35 167.2 57.4 Z M 193.4 42.7 C 198.4 42.7 200.8 45.6 200.8 50.7 C 200.8 55.7 198.4 58.6 193.4 58.6 C 188.4 58.6 186 55.7 186 50.7 C 186 45.6 188.4 42.7 193.4 42.7 Z M 193.4 57.5 C 196.3 57.5 197.6 54.9 197.6 50.7 C 197.6 46.4 196.3 43.8 193.4 43.8 C 190.6 43.8 189.2 46.4 189.2 50.7 C 189.2 54.9 190.6 57.5 193.4 57.5 Z M 203.5 58.4 C 203.5 57.1 202.5 56.5 202.5 55.4 C 202.5 54.6 203.1 53.9 204 53.9 C 205.2 53.9 206.1 55 206.1 56.7 C 206.1 59.1 203.9 61.2 202.3 62.6 C 202.3 62.6 201.7 62 201.7 62 C 202.7 60.9 203.5 59.7 203.5 58.4 Z M 216 51.9 C 216.8 55.4 218.7 57.6 221.6 57.6 C 224.4 57.6 226.1 56 226.1 53.4 C 226.1 50.6 223.2 49.2 221.8 48.6 C 221.8 48.6 221.2 48.4 221.2 48.4 C 218 47.3 215.4 45.6 215.4 42.3 C 215.4 38.2 218.7 36.3 222.5 36.3 C 224.6 36.3 226.7 36.9 227.8 37.7 C 227.79 37.7 227.8 42.1 227.8 42.1 C 227.8 42.1 226.82 42.07 226.8 42.1 C 226.3 38.9 224.8 37.4 222.2 37.4 C 219.6 37.4 218.2 39.1 218.2 41.4 C 218.2 43.2 219.9 44.5 222 45.3 C 222 45.3 223 45.7 223 45.7 C 226.6 47 229.1 48.8 229.1 52.4 C 229.1 55.6 226.9 58.7 221.5 58.7 C 219.3 58.7 216.7 58.1 215.4 56.9 C 215.35 56.86 215 51.9 215 51.9 C 215 51.9 216.04 51.89 216 51.9 Z M 229.4 43.5 L 234.3 42.7 L 234.5 42.9 C 234.5 42.9 234.48 53.41 234.5 53.4 C 234.5 55.8 235.8 56.9 237.6 56.9 C 239.2 56.9 240.7 56 241.4 54.6 C 241.6 54.3 241.7 53.6 241.7 52.8 C 241.7 52.8 241.7 45.8 241.7 45.8 C 241.7 44.7 241.5 44.5 240.7 44.4 C 240.68 44.39 239.5 44.2 239.5 44.2 L 239.5 43.5 L 244.4 42.7 L 244.6 42.9 C 244.6 42.9 244.59 55.55 244.6 55.6 C 244.6 57.1 244.8 57.2 246.9 57.4 C 246.91 57.35 246.9 58.3 246.9 58.3 L 242 58.3 C 242 58.3 241.64 56.39 241.6 56.4 C 240.7 56.8 238.6 58.6 236 58.6 C 233.7 58.6 231.6 57.5 231.6 54 C 231.6 54 231.6 45.8 231.6 45.8 C 231.6 44.7 231.4 44.5 230.6 44.4 C 230.58 44.39 229.4 44.2 229.4 44.2 L 229.4 43.5 Z M 247.1 57.4 C 249.3 57.2 249.4 57.1 249.4 55.6 C 249.4 55.6 249.4 38.3 249.4 38.3 C 249.4 37.2 249.2 37 248.4 36.9 C 248.4 36.92 247.2 36.8 247.2 36.8 L 247.2 36 L 252.1 35.2 L 252.3 35.4 C 252.3 35.4 252.31 55.55 252.3 55.6 C 252.3 57.1 252.4 57.2 254.6 57.4 C 254.63 57.35 254.6 58.3 254.6 58.3 L 247.1 58.3 C 247.1 58.3 247.07 57.35 247.1 57.4 Z M 263.1 42.7 C 268.1 42.7 270.6 45.6 270.6 50.7 C 270.6 55.7 268.1 58.6 263.1 58.6 C 258.1 58.6 255.7 55.7 255.7 50.7 C 255.7 45.6 258.1 42.7 263.1 42.7 Z M 263.1 57.5 C 266 57.5 267.3 54.9 267.3 50.7 C 267.3 46.4 266 43.8 263.1 43.8 C 260.3 43.8 258.9 46.4 258.9 50.7 C 258.9 54.9 260.3 57.5 263.1 57.5 Z M 272.1 57.4 C 274.3 57.2 274.4 57.1 274.4 55.6 C 274.4 55.6 274.4 45.8 274.4 45.8 C 274.4 44.7 274.3 44.5 273.4 44.4 C 273.45 44.39 272.3 44.2 272.3 44.2 L 272.3 43.5 L 276.9 42.7 C 276.9 42.7 277.32 45.04 277.3 45 C 279.2 43.8 280.7 42.7 283 42.7 C 285.8 42.7 287.5 44.5 287.5 47.6 C 287.5 47.6 287.5 55.6 287.5 55.6 C 287.5 57.1 287.6 57.2 289.8 57.4 C 289.85 57.35 289.8 58.3 289.8 58.3 L 282.3 58.3 C 282.3 58.3 282.28 57.35 282.3 57.4 C 284.5 57.2 284.6 57.1 284.6 55.6 C 284.6 55.6 284.6 48.2 284.6 48.2 C 284.6 45.5 283.5 44.4 281.4 44.4 C 279.7 44.4 278.3 45.4 277.7 46.6 C 277.4 47.1 277.4 47.5 277.4 48.3 C 277.4 48.3 277.4 55.6 277.4 55.6 C 277.4 57.1 277.5 57.2 279.7 57.4 C 279.68 57.35 279.7 58.3 279.7 58.3 L 272.1 58.3 C 272.1 58.3 272.11 57.35 272.1 57.4 Z M 294.2 57.8 C 294.2 57.8 294.2 57.8 294.2 57.8 C 292.8 57.6 291.5 56.4 291.5 55.3 C 291.5 54.1 292.7 53.2 294.4 52.6 C 294.4 52.6 294.4 52.5 294.4 52.5 C 292.9 52.1 291 50.8 291 47.9 C 291 45.6 292.7 42.7 297.4 42.7 C 298.9 42.7 300.6 43.1 301.4 43.6 C 301.44 43.65 305.4 42.4 305.4 42.4 L 305.7 42.7 L 305 44.6 C 305 44.6 302.59 44.98 302.6 45 C 303.1 45.5 303.5 46.6 303.5 47.9 C 303.5 51.6 300.2 52.9 297.3 52.9 C 296.9 52.9 296.3 52.9 295.7 52.9 C 295.3 53 294.1 53.5 294.1 54.4 C 294.1 55 294.4 55.7 296.7 55.7 C 296.7 55.7 299.1 55.7 299.1 55.7 C 302.5 55.7 305.1 56.9 305.1 60.2 C 305.1 62.2 304.1 63.6 302.7 64.5 C 301.2 65.4 299.2 65.8 297.4 65.8 C 293.8 65.8 290.7 64.4 290.7 61.2 C 290.7 59 292.9 58.3 294.2 57.8 Z M 298.1 64.7 C 300.3 64.7 302.5 63.5 302.5 61 C 302.5 58.7 300.5 58 297.8 58 C 296.3 58 295.3 58.2 294.6 58.7 C 293.9 59.2 293.6 60 293.6 61.1 C 293.6 63.3 295.5 64.7 298.1 64.7 Z M 297.4 51.9 C 299.2 51.9 300.5 50.5 300.5 47.9 C 300.5 44.9 299 43.8 297.4 43.8 C 295.8 43.8 294.2 44.8 294.2 47.9 C 294.2 50.5 295.6 51.9 297.4 51.9 Z " stroke="none" fill="#000"/>
  </g>
  <g id="Polygon14845">
    <path d="M 1.1 22.4 C 3.8 22.2 3.9 22.1 3.9 20.4 C 3.9 20.4 3.9 4.7 3.9 4.7 C 3.9 2.9 3.8 2.9 1.1 2.7 C 1.09 2.7 1.1 1.8 1.1 1.8 C 1.1 1.8 9.73 1.8 9.7 1.8 C 11.9 1.8 13.9 2.1 15.4 3 C 16.8 3.9 17.8 5.5 17.8 7.9 C 17.8 11.7 15.1 13.4 12.7 14 C 11.5 14.3 10.1 14.4 8.7 14.4 C 8.71 14.45 6.9 14.4 6.9 14.4 C 6.9 14.4 6.94 20.37 6.9 20.4 C 6.9 22.1 7 22.2 10.2 22.4 C 10.23 22.35 10.2 23.3 10.2 23.3 L 1.1 23.3 C 1.1 23.3 1.09 22.35 1.1 22.4 Z M 9.2 13.4 C 11.9 13.4 14.4 12 14.4 8.1 C 14.4 4.7 12.5 2.9 9.3 2.9 C 7.3 2.9 6.9 3.2 6.9 4 C 6.9 4 6.9 12.2 6.9 12.2 C 6.9 13.3 7.4 13.4 9.2 13.4 Z M 21 15.5 C 23.4 14.8 26.4 14 27.2 13.2 C 27.2 13.2 27.2 11.9 27.2 11.9 C 27.2 9.4 25.8 8.8 24.6 8.8 C 23.3 8.8 22 9.5 21.4 11.8 C 21.2 12.3 21 12.7 20.4 12.7 C 19.8 12.7 18.6 12.2 18.6 11.2 C 18.6 9.5 21.4 7.7 24.9 7.7 C 29.6 7.7 30 10 30 11.8 C 30 11.8 30 19.3 30 19.3 C 30 21.3 30.5 21.9 31.1 22 C 31.5 22.1 32.2 22 32.6 21.9 C 32.6 21.9 32.8 22.7 32.8 22.7 C 31.7 23.3 30.3 23.6 29.2 23.6 C 28.1 23.6 27.6 22.9 27.2 21.8 C 26.2 22.4 24.3 23.6 22.5 23.6 C 19.6 23.6 18.1 21.5 18.1 19.2 C 18.1 17.8 18.7 16.2 21 15.5 Z M 24.1 22 C 25.3 22 27.2 21.3 27.2 18.8 C 27.2 18.8 27.2 14.4 27.2 14.4 C 26.5 14.9 24.9 15.5 23.6 15.9 C 21.9 16.6 21.2 17.3 21.2 18.8 C 21.2 20.6 22.1 22 24.1 22 Z M 36.7 22.8 C 36.7 22.8 36.7 22.8 36.7 22.8 C 35.2 22.6 34 21.4 34 20.3 C 34 19.1 35.2 18.2 36.8 17.6 C 36.8 17.6 36.8 17.5 36.8 17.5 C 35.4 17.1 33.5 15.8 33.5 12.9 C 33.5 10.6 35.2 7.7 39.9 7.7 C 41.3 7.7 43 8.1 43.9 8.6 C 43.9 8.65 47.9 7.4 47.9 7.4 L 48.1 7.7 L 47.5 9.6 C 47.5 9.6 45.04 9.98 45 10 C 45.6 10.5 46 11.6 46 12.9 C 46 16.6 42.7 17.9 39.7 17.9 C 39.4 17.9 38.7 17.9 38.1 17.9 C 37.7 18 36.5 18.5 36.5 19.4 C 36.5 20 36.9 20.7 39.1 20.7 C 39.1 20.7 41.6 20.7 41.6 20.7 C 44.9 20.7 47.6 21.9 47.6 25.2 C 47.6 27.2 46.6 28.6 45.1 29.5 C 43.6 30.4 41.7 30.8 39.8 30.8 C 36.2 30.8 33.1 29.4 33.1 26.2 C 33.1 24 35.4 23.3 36.7 22.8 Z M 40.5 29.7 C 42.7 29.7 45 28.5 45 26 C 45 23.7 43 23 40.2 23 C 38.7 23 37.7 23.2 37 23.7 C 36.4 24.2 36.1 25 36.1 26.1 C 36.1 28.3 37.9 29.7 40.5 29.7 Z M 39.8 16.9 C 41.6 16.9 43 15.5 43 12.9 C 43 9.9 41.4 8.8 39.9 8.8 C 38.3 8.8 36.6 9.8 36.6 12.9 C 36.6 15.5 38.1 16.9 39.8 16.9 Z M 49.4 18.1 C 50 20.7 51.4 22.5 53.9 22.5 C 55.6 22.5 56.8 21.5 56.8 20 C 56.8 17.9 54.8 17.1 53.4 16.7 C 50.9 15.9 48.8 14.8 48.8 12.2 C 48.8 9.3 51.1 7.7 54.4 7.7 C 55.8 7.7 57.4 8 58.4 8.7 C 58.4 8.74 58.4 12.4 58.4 12.4 C 58.4 12.4 57.5 12.37 57.5 12.4 C 57.3 10.5 56.2 8.8 54 8.8 C 52.5 8.8 51.2 9.7 51.2 11.3 C 51.2 13 53.3 13.7 54.6 14.1 C 57.8 15.1 59.4 16.3 59.4 19 C 59.4 21.7 57.3 23.6 53.6 23.6 C 51.8 23.6 49.9 23.1 48.8 22.1 C 48.79 22.13 48.5 18.1 48.5 18.1 C 48.5 18.1 49.38 18.07 49.4 18.1 Z M 64.4 1.1 C 65.5 1.1 66.2 1.9 66.2 3 C 66.2 4.1 65.5 4.9 64.4 4.9 C 63.2 4.9 62.5 4.1 62.5 3 C 62.5 1.9 63.2 1.1 64.4 1.1 Z M 60.6 22.4 C 62.8 22.2 62.9 22.1 62.9 20.6 C 62.9 20.6 62.9 10.8 62.9 10.8 C 62.9 9.7 62.7 9.5 61.9 9.4 C 61.94 9.39 60.8 9.2 60.8 9.2 L 60.8 8.5 L 65.6 7.7 L 65.8 7.9 C 65.8 7.9 65.84 20.55 65.8 20.6 C 65.8 22.1 66 22.2 68.2 22.4 C 68.17 22.35 68.2 23.3 68.2 23.3 L 60.6 23.3 C 60.6 23.3 60.6 22.35 60.6 22.4 Z M 68.3 22.4 C 70.6 22.2 70.6 22.1 70.6 20.6 C 70.6 20.6 70.6 3.3 70.6 3.3 C 70.6 2.2 70.5 2 69.7 1.9 C 69.66 1.92 68.5 1.8 68.5 1.8 L 68.5 1 L 73.3 0.2 L 73.6 0.4 C 73.6 0.4 73.56 20.55 73.6 20.6 C 73.6 22.1 73.7 22.2 75.9 22.4 C 75.89 22.35 75.9 23.3 75.9 23.3 L 68.3 23.3 C 68.3 23.3 68.32 22.35 68.3 22.4 Z M 80.2 1.1 C 81.3 1.1 82.1 1.9 82.1 3 C 82.1 4.1 81.3 4.9 80.2 4.9 C 79 4.9 78.3 4.1 78.3 3 C 78.3 1.9 79 1.1 80.2 1.1 Z M 76.4 22.4 C 78.6 22.2 78.7 22.1 78.7 20.6 C 78.7 20.6 78.7 10.8 78.7 10.8 C 78.7 9.7 78.6 9.5 77.7 9.4 C 77.75 9.39 76.6 9.2 76.6 9.2 L 76.6 8.5 L 81.4 7.7 L 81.7 7.9 C 81.7 7.9 81.65 20.55 81.7 20.6 C 81.7 22.1 81.8 22.2 84 22.4 C 83.98 22.35 84 23.3 84 23.3 L 76.4 23.3 C 76.4 23.3 76.41 22.35 76.4 22.4 Z M 86.6 27.7 C 86.6 27.7 86.6 10.8 86.6 10.8 C 86.6 9.7 86.4 9.5 85.6 9.4 C 85.62 9.39 84.4 9.2 84.4 9.2 L 84.4 8.5 L 89.1 7.7 C 89.1 7.7 89.53 9.98 89.5 10 C 90.7 9.2 92.5 7.7 94.8 7.7 C 100.4 7.7 100.8 13.1 100.8 15.3 C 100.8 21.7 97.2 23.6 93.1 23.6 C 91.6 23.6 90.2 23.3 89.5 22.9 C 89.5 22.9 89.5 27.7 89.5 27.7 C 89.5 29.3 89.7 29.3 92.3 29.5 C 92.32 29.48 92.3 30.4 92.3 30.4 L 84.3 30.4 C 84.3 30.4 84.29 29.48 84.3 29.5 C 86.5 29.3 86.6 29.3 86.6 27.7 Z M 89.7 20.3 C 90.2 21.7 91.5 22.5 93.1 22.5 C 96.2 22.5 97.6 20.1 97.6 15.5 C 97.6 10.2 94.9 9.4 93.6 9.4 C 92 9.4 90.6 10.1 89.9 11.5 C 89.6 12.1 89.5 12.5 89.5 13.3 C 89.5 13.3 89.5 18.4 89.5 18.4 C 89.5 19.1 89.6 19.7 89.7 20.3 Z M 109.8 18.1 C 110.5 20.7 111.8 22.5 114.4 22.5 C 116 22.5 117.2 21.5 117.2 20 C 117.2 17.9 115.3 17.1 113.9 16.7 C 111.3 15.9 109.2 14.8 109.2 12.2 C 109.2 9.3 111.5 7.7 114.9 7.7 C 116.2 7.7 117.8 8 118.9 8.7 C 118.85 8.74 118.9 12.4 118.9 12.4 C 118.9 12.4 117.95 12.37 118 12.4 C 117.7 10.5 116.7 8.8 114.5 8.8 C 112.9 8.8 111.7 9.7 111.7 11.3 C 111.7 13 113.7 13.7 115 14.1 C 118.2 15.1 119.9 16.3 119.9 19 C 119.9 21.7 117.8 23.6 114.1 23.6 C 112.2 23.6 110.4 23.1 109.2 22.1 C 109.24 22.13 108.9 18.1 108.9 18.1 C 108.9 18.1 109.83 18.07 109.8 18.1 Z M 124.5 15.5 C 126.9 14.8 129.9 14 130.7 13.2 C 130.7 13.2 130.7 11.9 130.7 11.9 C 130.7 9.4 129.3 8.8 128.1 8.8 C 126.8 8.8 125.5 9.5 124.9 11.8 C 124.7 12.3 124.5 12.7 123.9 12.7 C 123.3 12.7 122.1 12.2 122.1 11.2 C 122.1 9.5 124.9 7.7 128.4 7.7 C 133.1 7.7 133.5 10 133.5 11.8 C 133.5 11.8 133.5 19.3 133.5 19.3 C 133.5 21.3 134 21.9 134.6 22 C 135 22.1 135.7 22 136.1 21.9 C 136.1 21.9 136.3 22.7 136.3 22.7 C 135.2 23.3 133.8 23.6 132.7 23.6 C 131.6 23.6 131.1 22.9 130.7 21.8 C 129.7 22.4 127.8 23.6 126 23.6 C 123.1 23.6 121.6 21.5 121.6 19.2 C 121.6 17.8 122.2 16.2 124.5 15.5 Z M 127.6 22 C 128.8 22 130.7 21.3 130.7 18.8 C 130.7 18.8 130.7 14.4 130.7 14.4 C 130 14.9 128.4 15.5 127.1 15.9 C 125.4 16.6 124.7 17.3 124.7 18.8 C 124.7 20.6 125.6 22 127.6 22 Z M 144.5 27.7 C 144.5 27.7 144.5 10.8 144.5 10.8 C 144.5 9.7 144.3 9.5 143.5 9.4 C 143.5 9.39 142.3 9.2 142.3 9.2 L 142.3 8.5 L 147 7.7 C 147 7.7 147.4 9.98 147.4 10 C 148.6 9.2 150.4 7.7 152.7 7.7 C 158.3 7.7 158.7 13.1 158.7 15.3 C 158.7 21.7 155.1 23.6 150.9 23.6 C 149.5 23.6 148.1 23.3 147.4 22.9 C 147.4 22.9 147.4 27.7 147.4 27.7 C 147.4 29.3 147.6 29.3 150.2 29.5 C 150.19 29.48 150.2 30.4 150.2 30.4 L 142.2 30.4 C 142.2 30.4 142.16 29.48 142.2 29.5 C 144.3 29.3 144.5 29.3 144.5 27.7 Z M 147.6 20.3 C 148.1 21.7 149.4 22.5 151 22.5 C 154.1 22.5 155.5 20.1 155.5 15.5 C 155.5 10.2 152.7 9.4 151.5 9.4 C 149.9 9.4 148.5 10.1 147.8 11.5 C 147.5 12.1 147.4 12.5 147.4 13.3 C 147.4 13.3 147.4 18.4 147.4 18.4 C 147.4 19.1 147.4 19.7 147.6 20.3 Z M 160.3 22.4 C 162.5 22.2 162.6 22.1 162.6 20.6 C 162.6 20.6 162.6 10.8 162.6 10.8 C 162.6 9.7 162.4 9.5 161.6 9.4 C 161.63 9.39 160.5 9.2 160.5 9.2 L 160.5 8.5 L 165.2 7.7 C 165.2 7.7 165.54 10.17 165.5 10.2 C 167.6 8.4 168.5 7.7 169.6 7.7 C 170.8 7.7 171.3 8.5 171.3 9.2 C 171.3 10.2 170.6 10.9 169.8 10.9 C 169.7 10.9 169.4 10.9 169.2 10.8 C 168.3 10.3 167.8 10.1 167.3 10.1 C 166.6 10.1 165.5 10.9 165.5 13.3 C 165.5 13.3 165.5 20.6 165.5 20.6 C 165.5 22.1 165.7 22.2 168.5 22.4 C 168.48 22.35 168.5 23.3 168.5 23.3 L 160.3 23.3 C 160.3 23.3 160.3 22.35 160.3 22.4 Z M 179.2 7.7 C 184.2 7.7 186.6 10.6 186.6 15.7 C 186.6 20.7 184.2 23.6 179.2 23.6 C 174.2 23.6 171.8 20.7 171.8 15.7 C 171.8 10.6 174.2 7.7 179.2 7.7 Z M 179.2 22.5 C 182.1 22.5 183.4 19.9 183.4 15.7 C 183.4 11.4 182.1 8.8 179.2 8.8 C 176.4 8.8 175 11.4 175 15.7 C 175 19.9 176.4 22.5 179.2 22.5 Z M 186.1 8.1 L 193.2 8.1 L 193.2 9 C 193.2 9 191.89 9.08 191.9 9.1 C 191.2 9.1 191.2 9.5 191.4 10 C 192.6 13.3 193.8 16.7 195.2 20.4 C 195.2 20.4 195.3 20.4 195.3 20.4 C 196.7 16.7 198.3 12 198.7 10.2 C 198.9 9.5 198.8 9.2 198.3 9.1 C 198.3 9.11 196.7 9 196.7 9 L 196.7 8.1 L 202.6 8.1 C 202.6 8.1 202.64 8.96 202.6 9 C 201.1 9.1 200.9 9.3 200.3 10.5 C 199.4 12.7 196.5 20.3 194.6 25.8 C 193 30.4 191.5 30.8 190.2 30.8 C 188.9 30.8 188 29.9 188 29.1 C 188 28.2 188.8 27.4 189.4 27.4 C 189.8 27.4 190 27.6 190.3 27.8 C 190.9 28.4 191.2 28.5 191.5 28.5 C 191.8 28.5 192.4 28.2 192.8 27.2 C 193.3 26.2 193.6 25.3 193.6 24.6 C 193.6 24 193.5 23.6 193.3 23 C 192.6 20.9 190 14.3 188.5 10.6 C 187.9 9.2 187.6 9 186.1 9 C 186.12 8.96 186.1 8.1 186.1 8.1 Z M 209.5 7.7 C 215.2 7.7 215.8 12.1 215.8 13.9 C 215.8 14.9 215.2 15.1 214.5 15.1 C 214.5 15.1 205.6 15.1 205.6 15.1 C 205.5 18.3 206.3 22 210.1 22 C 212.6 22 213.8 20.6 214.6 18.8 C 214.6 18.8 215.6 19.3 215.6 19.3 C 214.7 21.7 213 23.6 209.5 23.6 C 204.5 23.6 202.4 20.7 202.4 15.8 C 202.4 11.1 204.7 7.7 209.5 7.7 Z M 211.5 13.9 C 212.3 13.9 212.5 13.5 212.5 12.9 C 212.5 11.7 212.2 8.8 209.3 8.8 C 206.1 8.8 205.6 12.6 205.6 13.9 C 205.6 13.9 211.5 13.9 211.5 13.9 Z M 216.5 22.4 C 218.7 22.2 218.8 22.1 218.8 20.6 C 218.8 20.6 218.8 3.3 218.8 3.3 C 218.8 2.2 218.6 2 217.8 1.9 C 217.8 1.92 216.6 1.8 216.6 1.8 L 216.6 1 L 221.5 0.2 L 221.7 0.4 L 221.7 14.9 C 221.7 14.9 221.77 14.94 221.8 14.9 C 222.5 13.9 225.6 10 226.5 9 C 227.1 8.2 227.3 8.1 228.4 8.1 C 228.4 8.06 231.6 8.1 231.6 8.1 C 231.6 8.1 231.6 8.93 231.6 8.9 C 229.8 9.1 229 9.5 228 10.3 C 226.9 11 225.9 11.9 224.4 13.6 C 224.1 14 224.2 14.1 224.3 14.4 C 225.5 16 227.9 19 229.9 20.9 C 230.8 21.8 231.6 22.3 232.5 22.5 C 232.53 22.54 232.5 23.4 232.5 23.4 C 232.5 23.4 230.2 23.31 230.2 23.3 C 229.2 23.3 228 22.9 226.9 21.7 C 225.2 20.1 223 17.4 221.8 15.4 C 221.77 15.38 221.7 15.4 221.7 15.4 C 221.7 15.4 221.71 20.55 221.7 20.6 C 221.7 22.1 221.8 22.2 224 22.4 C 224.03 22.35 224 23.3 224 23.3 L 216.5 23.3 C 216.5 23.3 216.47 22.35 216.5 22.4 Z M 232.1 8.1 L 234.5 8.1 L 236.4 4.2 L 237.3 4.2 L 237.3 8.1 L 241.3 8.1 L 241.3 9.3 L 237.3 9.3 C 237.3 9.3 237.27 18.91 237.3 18.9 C 237.3 21.3 238.3 22 239.3 22 C 240.1 22 240.8 21.9 241.5 21.6 C 241.5 21.6 241.8 22.3 241.8 22.3 C 240.9 22.8 239.4 23.6 237.8 23.6 C 236.7 23.6 234.4 23.3 234.4 20.1 C 234.36 20.09 234.4 9.3 234.4 9.3 L 232.1 9.3 L 232.1 8.1 Z M 249.9 7.7 C 254.8 7.7 257.3 10.6 257.3 15.7 C 257.3 20.7 254.8 23.6 249.9 23.6 C 244.9 23.6 242.4 20.7 242.4 15.7 C 242.4 10.6 244.9 7.7 249.9 7.7 Z M 249.9 22.5 C 252.7 22.5 254.1 19.9 254.1 15.7 C 254.1 11.4 252.7 8.8 249.9 8.8 C 247 8.8 245.6 11.4 245.6 15.7 C 245.6 19.9 247 22.5 249.9 22.5 Z M 258.8 22.4 C 261.1 22.2 261.2 22.1 261.2 20.6 C 261.2 20.6 261.2 10.8 261.2 10.8 C 261.2 9.7 261 9.5 260.2 9.4 C 260.18 9.39 259 9.2 259 9.2 L 259 8.5 L 263.6 7.7 C 263.6 7.7 264.05 10.04 264.1 10 C 266 8.8 267.4 7.7 269.7 7.7 C 272.5 7.7 274.3 9.5 274.3 12.6 C 274.3 12.6 274.3 20.6 274.3 20.6 C 274.3 22.1 274.4 22.2 276.6 22.4 C 276.58 22.35 276.6 23.3 276.6 23.3 L 269 23.3 C 269 23.3 269.01 22.35 269 22.4 C 271.2 22.2 271.3 22.1 271.3 20.6 C 271.3 20.6 271.3 13.2 271.3 13.2 C 271.3 10.5 270.2 9.4 268.1 9.4 C 266.4 9.4 265 10.4 264.4 11.6 C 264.1 12.1 264.1 12.5 264.1 13.3 C 264.1 13.3 264.1 20.6 264.1 20.6 C 264.1 22.1 264.2 22.2 266.4 22.4 C 266.41 22.35 266.4 23.3 266.4 23.3 L 258.8 23.3 C 258.8 23.3 258.84 22.35 258.8 22.4 Z M 281 22.8 C 281 22.8 281 22.8 281 22.8 C 279.5 22.6 278.3 21.4 278.3 20.3 C 278.3 19.1 279.4 18.2 281.1 17.6 C 281.1 17.6 281.1 17.5 281.1 17.5 C 279.7 17.1 277.8 15.8 277.8 12.9 C 277.8 10.6 279.4 7.7 284.2 7.7 C 285.6 7.7 287.3 8.1 288.2 8.6 C 288.17 8.65 292.1 7.4 292.1 7.4 L 292.4 7.7 L 291.8 9.6 C 291.8 9.6 289.32 9.98 289.3 10 C 289.8 10.5 290.2 11.6 290.2 12.9 C 290.2 16.6 286.9 17.9 284 17.9 C 283.6 17.9 283 17.9 282.4 17.9 C 282 18 280.8 18.5 280.8 19.4 C 280.8 20 281.2 20.7 283.4 20.7 C 283.4 20.7 285.9 20.7 285.9 20.7 C 289.2 20.7 291.9 21.9 291.9 25.2 C 291.9 27.2 290.8 28.6 289.4 29.5 C 287.9 30.4 286 30.8 284.1 30.8 C 280.5 30.8 277.4 29.4 277.4 26.2 C 277.4 24 279.6 23.3 281 22.8 Z M 284.8 29.7 C 287 29.7 289.3 28.5 289.3 26 C 289.3 23.7 287.2 23 284.5 23 C 283 23 282 23.2 281.3 23.7 C 280.7 24.2 280.4 25 280.4 26.1 C 280.4 28.3 282.2 29.7 284.8 29.7 Z M 284.1 16.9 C 285.9 16.9 287.3 15.5 287.3 12.9 C 287.3 9.9 285.7 8.8 284.2 8.8 C 282.5 8.8 280.9 9.8 280.9 12.9 C 280.9 15.5 282.4 16.9 284.1 16.9 Z " stroke="none" fill="#000"/>
  </g>
</svg>