<?xml version="1.0" standalone="no"?>
<!DOCTYPE svg PUBLIC "-//W3C//DTD SVG 1.1//EN" "http://www.w3.org/Graphics/SVG/1.1/DTD/svg11.dtd">
<svg xmlns="http://www.w3.org/2000/svg" version="1.1" width="792px" height="31.8px" viewBox="0 -7 792 31.8" style="top:-7px">
  <desc>Bring the boys out:</desc>
  <defs/>
  <g id="Polygon29146">
    <path d="M 305.4 0.7 C 305.4 0.7 309.92 0.67 309.9 0.7 C 311 0.7 311.8 0.8 312.3 0.9 C 312.9 1.1 313.3 1.5 313.7 2 C 314.1 2.6 314.3 3.3 314.3 4.2 C 314.3 5.7 313.6 6.6 312.4 7.1 C 313.9 7.6 314.6 8.7 314.6 10.3 C 314.6 11.2 314.4 11.9 314 12.5 C 313.6 13.1 313.1 13.5 312.5 13.7 C 311.9 13.9 311 14 309.9 14 C 309.92 14 305.4 14 305.4 14 L 305.4 0.7 Z M 308.2 6.1 C 308.2 6.1 309.13 6.05 309.1 6.1 C 310.1 6.1 310.7 5.9 310.9 5.5 C 311.2 5.2 311.3 4.8 311.3 4.4 C 311.3 4 311.2 3.6 310.9 3.3 C 310.7 3 310.1 2.8 309.3 2.8 C 309.34 2.83 308.2 2.8 308.2 2.8 L 308.2 6.1 Z M 308.2 11.7 C 308.2 11.7 309.62 11.72 309.6 11.7 C 311 11.7 311.6 11.1 311.6 10 C 311.6 9.3 311.5 8.9 311.1 8.6 C 310.8 8.3 310.3 8.2 309.6 8.2 C 309.62 8.21 308.2 8.2 308.2 8.2 L 308.2 11.7 Z M 316.6 0.7 C 316.6 0.7 320.8 0.67 320.8 0.7 C 321.6 0.7 322.2 0.7 322.7 0.8 C 323.1 0.9 323.5 1.1 324 1.4 C 324.4 1.7 324.8 2.2 325 2.7 C 325.3 3.3 325.4 3.9 325.4 4.7 C 325.4 6.3 324.8 7.5 323.5 8.2 C 323.52 8.17 326 14 326 14 L 322.8 14 L 321 8.7 L 319.5 8.7 L 319.5 14 L 316.6 14 L 316.6 0.7 Z M 319.5 2.8 L 319.5 6.6 C 319.5 6.6 320.83 6.57 320.8 6.6 C 322 6.6 322.5 5.9 322.5 4.6 C 322.5 4.2 322.5 3.8 322.3 3.6 C 322.1 3.3 321.9 3.1 321.7 3 C 321.5 2.9 321.1 2.8 320.7 2.8 C 320.71 2.83 319.5 2.8 319.5 2.8 Z M 327.5 0.7 L 330.4 0.7 L 330.4 14 L 327.5 14 L 327.5 0.7 Z M 332.9 0.7 L 336.1 0.7 L 339.5 9 L 339.5 0.7 L 341.8 0.7 L 341.8 14 L 339.2 14 L 335.1 4.4 L 335.1 14 L 332.9 14 L 332.9 0.7 Z M 348.9 6.9 L 353.5 6.9 L 353.5 14 L 352.3 14 C 352.3 14 351.88 12.48 351.9 12.5 C 351.2 13.6 350.1 14.2 348.7 14.2 C 347.1 14.2 345.9 13.6 345.1 12.4 C 344.2 11.2 343.7 9.6 343.7 7.6 C 343.7 5.4 344.2 3.7 345 2.4 C 345.9 1.1 347.2 0.5 348.9 0.5 C 351.6 0.5 353.2 2 353.5 5 C 353.5 5 350.9 5.5 350.9 5.5 C 350.7 3.7 350.1 2.9 349 2.9 C 348.3 2.9 347.8 3.2 347.4 3.8 C 347 4.5 346.8 5.7 346.8 7.5 C 346.8 9.1 347 10.2 347.4 10.8 C 347.8 11.5 348.3 11.8 349.1 11.8 C 350.3 11.8 350.9 10.9 350.9 9.2 C 350.87 9.18 348.9 9.2 348.9 9.2 L 348.9 6.9 Z M 363.6 0.7 L 371.9 0.7 L 371.9 3.2 L 369.2 3.2 L 369.2 14 L 366.3 14 L 366.3 3.2 L 363.6 3.2 L 363.6 0.7 Z M 372.9 0.7 L 375.9 0.7 L 375.9 6.1 L 379.1 6.1 L 379.1 0.7 L 382 0.7 L 382 14 L 379.1 14 L 379.1 8.6 L 375.9 8.6 L 375.9 14 L 372.9 14 L 372.9 0.7 Z M 384.5 0.7 L 392.6 0.7 L 392.6 3 L 387.5 3 L 387.5 6.1 L 391.5 6.1 L 391.5 8.3 L 387.5 8.3 L 387.5 11.6 L 392.6 11.6 L 392.6 14 L 384.5 14 L 384.5 0.7 Z M 403.4 0.7 C 403.4 0.7 407.95 0.67 407.9 0.7 C 409 0.7 409.8 0.8 410.4 0.9 C 410.9 1.1 411.4 1.5 411.7 2 C 412.1 2.6 412.3 3.3 412.3 4.2 C 412.3 5.7 411.6 6.6 410.4 7.1 C 411.9 7.6 412.6 8.7 412.6 10.3 C 412.6 11.2 412.4 11.9 412 12.5 C 411.6 13.1 411.1 13.5 410.5 13.7 C 409.9 13.9 409.1 14 407.9 14 C 407.95 14 403.4 14 403.4 14 L 403.4 0.7 Z M 406.2 6.1 C 406.2 6.1 407.16 6.05 407.2 6.1 C 408.1 6.1 408.7 5.9 408.9 5.5 C 409.2 5.2 409.3 4.8 409.3 4.4 C 409.3 4 409.2 3.6 408.9 3.3 C 408.7 3 408.2 2.8 407.4 2.8 C 407.37 2.83 406.2 2.8 406.2 2.8 L 406.2 6.1 Z M 406.2 11.7 C 406.2 11.7 407.65 11.72 407.6 11.7 C 409 11.7 409.7 11.1 409.7 10 C 409.7 9.3 409.5 8.9 409.2 8.6 C 408.8 8.3 408.3 8.2 407.6 8.2 C 407.65 8.21 406.2 8.2 406.2 8.2 L 406.2 11.7 Z M 423.8 7.3 C 423.8 11.9 422.2 14.2 418.9 14.2 C 417.3 14.2 416.1 13.6 415.3 12.5 C 414.5 11.3 414.1 9.6 414.1 7.3 C 414.1 2.8 415.7 0.5 418.9 0.5 C 420.5 0.5 421.7 1 422.5 2.2 C 423.4 3.3 423.8 5 423.8 7.3 Z M 420.7 7.3 C 420.7 5.5 420.6 4.3 420.3 3.7 C 420 3.1 419.5 2.9 418.9 2.9 C 418.3 2.9 417.9 3.2 417.6 3.8 C 417.3 4.3 417.2 5.5 417.2 7.3 C 417.2 9.1 417.3 10.3 417.6 10.9 C 417.9 11.5 418.3 11.8 418.9 11.8 C 419.5 11.8 420 11.5 420.3 10.9 C 420.6 10.3 420.7 9.1 420.7 7.3 Z M 423.8 0.7 L 427.1 0.7 L 428.9 5.5 L 431 0.7 L 433.8 0.7 L 430.1 8.4 L 430.1 14 L 427.2 14 L 427.2 8.4 L 423.8 0.7 Z M 438.3 0.5 C 440.7 0.5 442.1 1.5 442.7 3.6 C 442.7 3.6 440.3 4.5 440.3 4.5 C 439.9 3.4 439.3 2.9 438.4 2.9 C 437.9 2.9 437.6 3 437.3 3.2 C 437.1 3.5 437 3.7 437 4.1 C 437 4.4 437.1 4.8 437.4 5 C 437.7 5.2 438.3 5.5 439.3 5.9 C 440.1 6.2 440.8 6.5 441.3 6.8 C 441.8 7.1 442.2 7.5 442.5 8.1 C 442.8 8.6 442.9 9.2 442.9 10 C 442.9 11.2 442.5 12.2 441.7 13 C 440.8 13.8 439.7 14.2 438.2 14.2 C 435.8 14.2 434.3 13 433.6 10.5 C 433.6 10.5 436.1 9.8 436.1 9.8 C 436.5 11.2 437.2 11.8 438.3 11.8 C 438.8 11.8 439.2 11.7 439.5 11.4 C 439.8 11.2 440 10.8 440 10.4 C 440 10.1 439.9 9.8 439.7 9.5 C 439.4 9.3 438.9 9 438.1 8.7 C 437.1 8.3 436.3 8 435.8 7.7 C 435.3 7.4 434.9 7 434.6 6.4 C 434.3 5.9 434.1 5.3 434.1 4.6 C 434.1 3.4 434.5 2.4 435.3 1.6 C 436 0.9 437.1 0.5 438.3 0.5 C 438.3 0.5 438.3 0.5 438.3 0.5 Z M 463.3 7.3 C 463.3 11.9 461.7 14.2 458.4 14.2 C 456.8 14.2 455.6 13.6 454.8 12.5 C 454 11.3 453.6 9.6 453.6 7.3 C 453.6 2.8 455.2 0.5 458.4 0.5 C 460 0.5 461.2 1 462 2.2 C 462.9 3.3 463.3 5 463.3 7.3 Z M 460.2 7.3 C 460.2 5.5 460 4.3 459.8 3.7 C 459.5 3.1 459 2.9 458.4 2.9 C 457.8 2.9 457.4 3.2 457.1 3.8 C 456.8 4.3 456.7 5.5 456.7 7.3 C 456.7 9.1 456.8 10.3 457.1 10.9 C 457.4 11.5 457.8 11.8 458.4 11.8 C 459 11.8 459.5 11.5 459.8 10.9 C 460 10.3 460.2 9.1 460.2 7.3 Z M 465.3 0.7 L 468.2 0.7 C 468.2 0.7 468.24 8.29 468.2 8.3 C 468.2 9.4 468.3 10.1 468.4 10.5 C 468.5 11 468.7 11.3 469 11.5 C 469.3 11.7 469.7 11.8 470.1 11.8 C 470.6 11.8 471 11.7 471.3 11.5 C 471.6 11.2 471.8 10.9 471.8 10.5 C 471.9 10.1 471.9 9.4 471.9 8.3 C 471.92 8.29 471.9 0.7 471.9 0.7 L 474.4 0.7 C 474.4 0.7 474.37 8.17 474.4 8.2 C 474.4 9.7 474.3 10.8 474.1 11.5 C 473.9 12.3 473.5 12.9 472.8 13.4 C 472.1 13.9 471.1 14.2 469.9 14.2 C 468.7 14.2 467.8 14 467.1 13.6 C 466.5 13.2 466 12.7 465.7 12 C 465.5 11.3 465.3 10.1 465.3 8.3 C 465.31 8.29 465.3 0.7 465.3 0.7 Z M 475.4 0.7 L 483.7 0.7 L 483.7 3.2 L 481 3.2 L 481 14 L 478.1 14 L 478.1 3.2 L 475.4 3.2 L 475.4 0.7 Z M 484 4.1 L 486.7 4.1 L 486.7 7.1 L 484 7.1 L 484 4.1 Z M 484 11.1 L 486.7 11.1 L 486.7 14 L 484 14 L 484 11.1 Z " stroke="none" fill="#000"/>
  </g>
</svg>