<?xml version="1.0" standalone="no"?>
<!DOCTYPE svg PUBLIC "-//W3C//DTD SVG 1.1//EN" "http://www.w3.org/Graphics/SVG/1.1/DTD/svg11.dtd">
<svg xmlns="http://www.w3.org/2000/svg" version="1.1" width="312px" height="13.7px" viewBox="0 -3 312 13.7" style="top:-3px">
  <desc>Layout artist: GERLIE ANN GONZALES</desc>
  <defs/>
  <g id="Polygon16956">
    <path d="M 0.6 5.4 L 0.6 0.4 L 1.7 0.4 L 1.7 4.5 L 3.7 4.5 L 3.7 5.4 L 0.6 5.4 Z M 7.5 5.4 L 7.1 4.2 L 5.3 4.2 L 5 5.4 L 3.8 5.4 L 5.6 0.3 L 6.9 0.3 L 8.6 5.4 L 7.5 5.4 Z M 6.9 3.3 C 6.6 2.2 6.4 1.6 6.3 1.4 C 6.3 1.3 6.2 1.2 6.2 1.1 C 6.2 1.4 5.9 2.1 5.6 3.3 C 5.6 3.3 6.9 3.3 6.9 3.3 Z M 10.7 2.4 L 11.7 0.4 L 12.9 0.4 L 11.2 3.4 L 11.2 5.4 L 10.2 5.4 L 10.2 3.4 L 8.5 0.4 L 9.7 0.4 L 10.7 2.4 Z M 17.9 2.9 C 17.9 3.7 17.7 4.3 17.3 4.8 C 16.9 5.2 16.3 5.4 15.5 5.4 C 14.8 5.4 14.2 5.2 13.8 4.8 C 13.3 4.3 13.1 3.7 13.1 2.8 C 13.1 2 13.3 1.4 13.8 0.9 C 14.2 0.5 14.8 0.3 15.5 0.3 C 16.3 0.3 16.9 0.5 17.3 0.9 C 17.7 1.4 17.9 2 17.9 2.9 Z M 14.2 2.9 C 14.2 3.4 14.4 3.8 14.6 4.1 C 14.8 4.4 15.1 4.5 15.5 4.5 C 16.4 4.5 16.8 4 16.8 2.9 C 16.8 1.7 16.4 1.2 15.5 1.2 C 15.1 1.2 14.8 1.3 14.6 1.6 C 14.4 1.9 14.2 2.3 14.2 2.9 Z M 22.9 0.4 C 22.9 0.4 22.86 3.59 22.9 3.6 C 22.9 4 22.8 4.3 22.6 4.6 C 22.4 4.8 22.2 5.1 21.9 5.2 C 21.6 5.4 21.2 5.4 20.8 5.4 C 20.1 5.4 19.6 5.3 19.3 4.9 C 18.9 4.6 18.8 4.2 18.8 3.6 C 18.76 3.58 18.8 0.4 18.8 0.4 L 19.8 0.4 C 19.8 0.4 19.81 3.42 19.8 3.4 C 19.8 3.8 19.9 4.1 20 4.3 C 20.2 4.4 20.5 4.5 20.8 4.5 C 21.2 4.5 21.4 4.4 21.6 4.3 C 21.7 4.1 21.8 3.8 21.8 3.4 C 21.8 3.41 21.8 0.4 21.8 0.4 L 22.9 0.4 Z M 25.9 5.4 L 24.8 5.4 L 24.8 1.2 L 23.5 1.2 L 23.5 0.4 L 27.2 0.4 L 27.2 1.2 L 25.9 1.2 L 25.9 5.4 Z M 32.6 5.4 L 32.2 4.2 L 30.4 4.2 L 30 5.4 L 28.9 5.4 L 30.7 0.3 L 32 0.3 L 33.7 5.4 L 32.6 5.4 Z M 32 3.3 C 31.6 2.2 31.5 1.6 31.4 1.4 C 31.4 1.3 31.3 1.2 31.3 1.1 C 31.2 1.4 31 2.1 30.7 3.3 C 30.7 3.3 32 3.3 32 3.3 Z M 35.3 2.6 C 35.3 2.6 35.63 2.58 35.6 2.6 C 36 2.6 36.2 2.5 36.4 2.4 C 36.5 2.3 36.6 2.1 36.6 1.9 C 36.6 1.6 36.5 1.5 36.4 1.4 C 36.2 1.3 35.9 1.2 35.6 1.2 C 35.61 1.23 35.3 1.2 35.3 1.2 L 35.3 2.6 Z M 35.3 3.4 L 35.3 5.4 L 34.2 5.4 L 34.2 0.4 C 34.2 0.4 35.68 0.36 35.7 0.4 C 36.4 0.4 36.9 0.5 37.2 0.7 C 37.5 1 37.7 1.4 37.7 1.9 C 37.7 2.1 37.6 2.4 37.4 2.6 C 37.3 2.9 37 3 36.7 3.2 C 37.5 4.3 38 5 38.2 5.4 C 38.22 5.36 37 5.4 37 5.4 L 35.8 3.4 L 35.3 3.4 Z M 40.6 5.4 L 39.6 5.4 L 39.6 1.2 L 38.2 1.2 L 38.2 0.4 L 42 0.4 L 42 1.2 L 40.6 1.2 L 40.6 5.4 Z M 42.6 5.4 L 42.6 0.4 L 43.7 0.4 L 43.7 5.4 L 42.6 5.4 Z M 47.7 4 C 47.7 4.4 47.6 4.8 47.3 5 C 46.9 5.3 46.5 5.4 45.9 5.4 C 45.4 5.4 44.9 5.3 44.5 5.1 C 44.5 5.1 44.5 4.1 44.5 4.1 C 44.8 4.3 45.1 4.4 45.3 4.5 C 45.6 4.5 45.8 4.5 46 4.5 C 46.2 4.5 46.4 4.5 46.5 4.4 C 46.6 4.3 46.7 4.2 46.7 4 C 46.7 3.9 46.7 3.8 46.6 3.8 C 46.6 3.7 46.5 3.6 46.4 3.5 C 46.3 3.5 46.1 3.4 45.7 3.2 C 45.4 3.1 45.2 2.9 45.1 2.8 C 44.9 2.7 44.8 2.5 44.7 2.3 C 44.6 2.1 44.5 1.9 44.5 1.7 C 44.5 1.3 44.7 0.9 45 0.7 C 45.3 0.4 45.7 0.3 46.2 0.3 C 46.5 0.3 46.7 0.3 47 0.4 C 47.2 0.4 47.5 0.5 47.7 0.6 C 47.7 0.6 47.4 1.5 47.4 1.5 C 47.1 1.4 46.9 1.3 46.7 1.2 C 46.5 1.2 46.4 1.2 46.2 1.2 C 46 1.2 45.9 1.2 45.7 1.3 C 45.6 1.4 45.6 1.5 45.6 1.7 C 45.6 1.8 45.6 1.8 45.6 1.9 C 45.7 2 45.8 2.1 45.9 2.1 C 45.9 2.2 46.2 2.3 46.5 2.5 C 47 2.7 47.3 2.9 47.5 3.1 C 47.7 3.4 47.7 3.6 47.7 4 Z M 50.4 5.4 L 49.4 5.4 L 49.4 1.2 L 48 1.2 L 48 0.4 L 51.8 0.4 L 51.8 1.2 L 50.4 1.2 L 50.4 5.4 Z M 52.2 4.9 C 52.2 4.7 52.2 4.5 52.4 4.4 C 52.5 4.3 52.6 4.3 52.8 4.3 C 53 4.3 53.1 4.3 53.2 4.4 C 53.3 4.5 53.4 4.7 53.4 4.9 C 53.4 5 53.3 5.2 53.2 5.3 C 53.1 5.4 53 5.4 52.8 5.4 C 52.6 5.4 52.5 5.4 52.4 5.3 C 52.2 5.2 52.2 5.1 52.2 4.9 Z M 52.2 2 C 52.2 1.9 52.2 1.7 52.4 1.6 C 52.5 1.5 52.6 1.5 52.8 1.5 C 53 1.5 53.1 1.5 53.2 1.6 C 53.3 1.7 53.4 1.9 53.4 2 C 53.4 2.2 53.3 2.4 53.2 2.5 C 53.1 2.6 53 2.6 52.8 2.6 C 52.6 2.6 52.5 2.6 52.4 2.5 C 52.2 2.4 52.2 2.2 52.2 2 Z M 61.4 2.8 L 63.2 2.8 C 63.2 2.8 63.2 5.12 63.2 5.1 C 62.7 5.3 62.2 5.4 61.6 5.4 C 60.8 5.4 60.2 5.2 59.8 4.8 C 59.3 4.3 59.1 3.7 59.1 2.9 C 59.1 2.4 59.2 1.9 59.4 1.5 C 59.7 1.1 59.9 0.8 60.3 0.6 C 60.7 0.4 61.2 0.3 61.7 0.3 C 62.2 0.3 62.7 0.4 63.1 0.6 C 63.1 0.6 63 0.9 63 0.9 C 62.6 0.7 62.1 0.6 61.7 0.6 C 61 0.6 60.5 0.8 60.1 1.2 C 59.7 1.6 59.5 2.2 59.5 2.9 C 59.5 3.6 59.7 4.2 60.1 4.5 C 60.4 4.9 61 5.1 61.7 5.1 C 62.1 5.1 62.5 5.1 62.8 4.9 C 62.85 4.92 62.8 3.2 62.8 3.2 L 61.4 3.2 L 61.4 2.8 Z M 67.3 5.4 L 64.6 5.4 L 64.6 0.4 L 67.3 0.4 L 67.3 0.7 L 64.9 0.7 L 64.9 2.6 L 67.2 2.6 L 67.2 2.9 L 64.9 2.9 L 64.9 5 L 67.3 5 L 67.3 5.4 Z M 68.9 3.2 L 68.9 5.4 L 68.6 5.4 L 68.6 0.4 C 68.6 0.4 69.79 0.36 69.8 0.4 C 70.4 0.4 70.9 0.5 71.2 0.7 C 71.5 0.9 71.6 1.3 71.6 1.7 C 71.6 2.1 71.5 2.4 71.3 2.6 C 71.2 2.8 70.9 3 70.5 3.1 C 70.54 3.08 71.9 5.4 71.9 5.4 L 71.5 5.4 L 70.2 3.2 L 68.9 3.2 Z M 68.9 2.9 C 68.9 2.9 69.9 2.88 69.9 2.9 C 70.3 2.9 70.7 2.8 70.9 2.6 C 71.1 2.4 71.2 2.1 71.2 1.8 C 71.2 1.4 71.1 1.1 70.9 0.9 C 70.7 0.8 70.3 0.7 69.8 0.7 C 69.78 0.67 68.9 0.7 68.9 0.7 L 68.9 2.9 Z M 72.9 5.4 L 72.9 0.4 L 73.2 0.4 L 73.2 5 L 75.6 5 L 75.6 5.4 L 72.9 5.4 Z M 76.6 5.4 L 76.6 0.4 L 77 0.4 L 77 5.4 L 76.6 5.4 Z M 81.3 5.4 L 78.5 5.4 L 78.5 0.4 L 81.3 0.4 L 81.3 0.7 L 78.9 0.7 L 78.9 2.6 L 81.1 2.6 L 81.1 2.9 L 78.9 2.9 L 78.9 5 L 81.3 5 L 81.3 5.4 Z M 86.9 3.6 L 84.9 3.6 L 84.2 5.4 L 83.8 5.4 L 85.8 0.3 L 86 0.3 L 88 5.4 L 87.6 5.4 L 86.9 3.6 Z M 85 3.3 L 86.8 3.3 C 86.8 3.3 86.11 1.48 86.1 1.5 C 86 1.3 86 1.1 85.9 0.9 C 85.8 1.1 85.8 1.3 85.7 1.5 C 85.7 1.48 85 3.3 85 3.3 Z M 92.5 5.4 L 92.1 5.4 L 89.2 0.9 C 89.2 0.9 89.13 0.92 89.1 0.9 C 89.2 1.4 89.2 1.8 89.2 2.1 C 89.17 2.12 89.2 5.4 89.2 5.4 L 88.8 5.4 L 88.8 0.4 L 89.2 0.4 L 92.1 4.8 C 92.1 4.8 92.16 4.79 92.2 4.8 C 92.1 4.4 92.1 4 92.1 3.6 C 92.13 3.62 92.1 0.4 92.1 0.4 L 92.5 0.4 L 92.5 5.4 Z M 97.7 5.4 L 97.3 5.4 L 94.3 0.9 C 94.3 0.9 94.32 0.92 94.3 0.9 C 94.3 1.4 94.4 1.8 94.4 2.1 C 94.36 2.12 94.4 5.4 94.4 5.4 L 94 5.4 L 94 0.4 L 94.4 0.4 L 97.3 4.8 C 97.3 4.8 97.35 4.79 97.4 4.8 C 97.3 4.4 97.3 4 97.3 3.6 C 97.32 3.62 97.3 0.4 97.3 0.4 L 97.7 0.4 L 97.7 5.4 Z M 103.1 2.8 L 105 2.8 C 105 2.8 104.98 5.12 105 5.1 C 104.5 5.3 104 5.4 103.3 5.4 C 102.6 5.4 102 5.2 101.5 4.8 C 101.1 4.3 100.9 3.7 100.9 2.9 C 100.9 2.4 101 1.9 101.2 1.5 C 101.4 1.1 101.7 0.8 102.1 0.6 C 102.5 0.4 102.9 0.3 103.5 0.3 C 104 0.3 104.5 0.4 104.9 0.6 C 104.9 0.6 104.8 0.9 104.8 0.9 C 104.3 0.7 103.9 0.6 103.4 0.6 C 102.8 0.6 102.3 0.8 101.9 1.2 C 101.5 1.6 101.3 2.2 101.3 2.9 C 101.3 3.6 101.5 4.2 101.8 4.5 C 102.2 4.9 102.7 5.1 103.5 5.1 C 103.9 5.1 104.3 5.1 104.6 4.9 C 104.62 4.92 104.6 3.2 104.6 3.2 L 103.1 3.2 L 103.1 2.8 Z M 110.6 2.9 C 110.6 3.6 110.4 4.3 110 4.7 C 109.6 5.2 109 5.4 108.3 5.4 C 107.6 5.4 107.1 5.2 106.7 4.7 C 106.3 4.3 106.1 3.6 106.1 2.8 C 106.1 2 106.3 1.4 106.7 1 C 107.1 0.5 107.7 0.3 108.3 0.3 C 109 0.3 109.6 0.5 110 1 C 110.4 1.4 110.6 2.1 110.6 2.9 Z M 106.5 2.9 C 106.5 3.6 106.6 4.1 107 4.5 C 107.3 4.9 107.7 5.1 108.3 5.1 C 108.9 5.1 109.4 4.9 109.7 4.5 C 110 4.1 110.2 3.6 110.2 2.9 C 110.2 2.1 110 1.6 109.7 1.2 C 109.4 0.8 108.9 0.6 108.3 0.6 C 107.8 0.6 107.3 0.8 107 1.2 C 106.6 1.6 106.5 2.1 106.5 2.9 Z M 115.5 5.4 L 115.1 5.4 L 112.2 0.9 C 112.2 0.9 112.16 0.92 112.2 0.9 C 112.2 1.4 112.2 1.8 112.2 2.1 C 112.2 2.12 112.2 5.4 112.2 5.4 L 111.9 5.4 L 111.9 0.4 L 112.2 0.4 L 115.2 4.8 C 115.2 4.8 115.19 4.79 115.2 4.8 C 115.2 4.4 115.2 4 115.2 3.6 C 115.16 3.62 115.2 0.4 115.2 0.4 L 115.5 0.4 L 115.5 5.4 Z M 120.1 5.4 L 116.6 5.4 L 116.6 5.1 L 119.6 0.7 L 116.8 0.7 L 116.8 0.4 L 120 0.4 L 120 0.6 L 117.1 5 L 120.1 5 L 120.1 5.4 Z M 123.6 3.6 L 121.6 3.6 L 120.9 5.4 L 120.5 5.4 L 122.5 0.3 L 122.7 0.3 L 124.7 5.4 L 124.3 5.4 L 123.6 3.6 Z M 121.7 3.3 L 123.5 3.3 C 123.5 3.3 122.84 1.48 122.8 1.5 C 122.8 1.3 122.7 1.1 122.6 0.9 C 122.6 1.1 122.5 1.3 122.4 1.5 C 122.43 1.48 121.7 3.3 121.7 3.3 Z M 125.6 5.4 L 125.6 0.4 L 125.9 0.4 L 125.9 5 L 128.3 5 L 128.3 5.4 L 125.6 5.4 Z M 132 5.4 L 129.3 5.4 L 129.3 0.4 L 132 0.4 L 132 0.7 L 129.6 0.7 L 129.6 2.6 L 131.9 2.6 L 131.9 2.9 L 129.6 2.9 L 129.6 5 L 132 5 L 132 5.4 Z M 136.1 4.1 C 136.1 4.5 135.9 4.8 135.6 5.1 C 135.3 5.3 134.9 5.4 134.4 5.4 C 133.8 5.4 133.3 5.4 133 5.2 C 133 5.2 133 4.9 133 4.9 C 133.3 5 133.8 5.1 134.3 5.1 C 134.8 5.1 135.1 5 135.3 4.8 C 135.6 4.6 135.7 4.4 135.7 4.1 C 135.7 3.9 135.6 3.7 135.6 3.6 C 135.5 3.5 135.4 3.4 135.2 3.3 C 135 3.2 134.7 3.1 134.4 2.9 C 133.9 2.8 133.5 2.6 133.3 2.4 C 133.1 2.2 133 1.9 133 1.6 C 133 1.2 133.2 0.9 133.5 0.6 C 133.8 0.4 134.1 0.3 134.6 0.3 C 135.1 0.3 135.5 0.4 135.9 0.6 C 135.9 0.6 135.8 0.9 135.8 0.9 C 135.4 0.7 135 0.6 134.6 0.6 C 134.2 0.6 133.9 0.7 133.7 0.9 C 133.5 1 133.4 1.3 133.4 1.5 C 133.4 1.7 133.4 1.9 133.5 2 C 133.6 2.1 133.7 2.2 133.8 2.3 C 134 2.4 134.2 2.5 134.6 2.7 C 135 2.8 135.3 2.9 135.5 3.1 C 135.7 3.2 135.8 3.3 135.9 3.5 C 136 3.6 136.1 3.8 136.1 4.1 Z " stroke="none" fill="#000"/>
  </g>
</svg>