<?xml version="1.0" standalone="no"?>
<!DOCTYPE svg PUBLIC "-//W3C//DTD SVG 1.1//EN" "http://www.w3.org/Graphics/SVG/1.1/DTD/svg11.dtd">
<svg xmlns="http://www.w3.org/2000/svg" version="1.1" width="30px" height="24.8px" viewBox="0 -5 30 24.8" style="top:-5px">
  <desc>13</desc>
  <defs/>
  <g id="Polygon26255">
    <path d="M 3.9 4.4 C 3.9 3.5 3.9 2.9 3.9 2.4 C 3.9 2 3.9 1.8 3.6 1.8 C 3.3 1.8 2.2 2.4 1.9 2.6 C 1.8 2.6 1.7 2.6 1.7 2.6 C 1.6 2.6 1.6 2.6 1.6 2.5 C 1.6 2.4 1.6 2.3 1.7 2.3 C 1.8 2.2 4.7 0.3 5.2 -0.1 C 5.3 -0.1 5.4 -0.3 5.6 -0.3 C 5.7 -0.3 5.7 -0.1 5.7 0.1 C 5.7 0.2 5.7 1.7 5.7 4 C 5.7 4 5.7 6.7 5.7 6.7 C 5.7 8.2 5.7 9.5 5.7 10.1 C 5.8 10.6 5.8 10.8 6.3 10.9 C 6.5 11 7.2 11 7.3 11 C 7.4 11 7.4 11.1 7.4 11.2 C 7.4 11.3 7.4 11.3 7.2 11.3 C 6.1 11.3 5.1 11.3 4.7 11.3 C 4.4 11.3 3.1 11.3 2.1 11.3 C 2 11.3 1.9 11.3 1.9 11.2 C 1.9 11.1 1.9 11 2 11 C 2.2 11 2.9 11 3.2 10.9 C 3.7 10.8 3.8 10.6 3.8 10.1 C 3.9 9.5 3.9 8.2 3.9 6.7 C 3.9 6.7 3.9 4.4 3.9 4.4 Z M 10.1 11.1 C 9.9 11 9.9 10.9 9.9 10.7 C 9.9 10 9.9 9.2 10 8.9 C 10 8.7 10 8.6 10.1 8.6 C 10.2 8.6 10.3 8.7 10.3 8.8 C 10.3 9.7 11 10.8 12.5 10.8 C 14 10.8 15.2 10 15.2 8.2 C 15.2 6.2 13.4 5.5 12.7 5.4 C 12.3 5.3 12.2 5.2 12.2 5.1 C 12.2 5 12.3 4.9 12.5 4.9 C 13.2 4.8 14.8 4.1 14.8 2.3 C 14.8 1.7 14.4 0.5 12.8 0.5 C 11.6 0.5 10.7 1.2 10.7 2.1 C 10.7 2.2 10.7 2.3 10.6 2.3 C 10.5 2.3 10.5 2.2 10.5 2.1 C 10.4 1.6 10.4 0.9 10.4 0.6 C 10.4 0.4 10.4 0.4 10.6 0.3 C 11.1 0.1 12 -0.3 13.2 -0.3 C 16.1 -0.3 16.6 1.3 16.6 2 C 16.6 3.4 15.1 4.5 14.5 4.7 C 14.5 4.7 14.5 4.7 14.5 4.7 C 15.6 4.9 17.1 5.8 17.1 7.7 C 17.1 9.8 15.3 11.5 12.4 11.5 C 11.3 11.5 10.5 11.3 10.1 11.1 Z " stroke="none" fill="#000"/>
  </g>
</svg>