<?xml version="1.0" standalone="no"?>
<!DOCTYPE svg PUBLIC "-//W3C//DTD SVG 1.1//EN" "http://www.w3.org/Graphics/SVG/1.1/DTD/svg11.dtd">
<svg xmlns="http://www.w3.org/2000/svg" version="1.1" width="296.1px" height="50.8px" viewBox="0 -1 296.1 50.8" style="top:-1px">
  <desc>SURIIN ang kalagayan ng Mobile Legends: Bang Bang bilang alternatibong klase para sa GETEAMS at GESPORT, isang taon</desc>
  <defs/>
  <g id="Polygon35541">
    <path d="M 1.5 40.4 C 1.47 40.37 1.5 41.3 1.5 41.3 L 0.8 41.3 L 0.8 34.7 L 1.5 34.7 C 1.5 34.7 1.47 37.55 1.5 37.5 C 1.8 37 2.4 36.5 3.2 36.5 C 4.4 36.5 5.5 37.4 5.5 38.9 C 5.5 38.9 5.5 38.9 5.5 38.9 C 5.5 40.5 4.4 41.4 3.2 41.4 C 2.4 41.4 1.8 40.9 1.5 40.4 Z M 4.8 39 C 4.8 39 4.8 38.9 4.8 38.9 C 4.8 37.8 4 37.1 3.1 37.1 C 2.3 37.1 1.4 37.9 1.4 38.9 C 1.4 38.9 1.4 38.9 1.4 38.9 C 1.4 40 2.3 40.7 3.1 40.7 C 4 40.7 4.8 40.1 4.8 39 Z M 6.7 34.8 L 7.5 34.8 L 7.5 35.6 L 6.7 35.6 L 6.7 34.8 Z M 6.7 36.6 L 7.4 36.6 L 7.4 41.3 L 6.7 41.3 L 6.7 36.6 Z M 9 34.7 L 9.7 34.7 L 9.7 41.3 L 9 41.3 L 9 34.7 Z M 10.9 39.9 C 10.9 39.9 10.9 39.9 10.9 39.9 C 10.9 38.9 11.7 38.4 12.9 38.4 C 13.4 38.4 13.9 38.5 14.3 38.6 C 14.3 38.6 14.3 38.4 14.3 38.4 C 14.3 37.6 13.8 37.2 12.9 37.2 C 12.3 37.2 11.9 37.3 11.5 37.5 C 11.5 37.5 11.3 36.9 11.3 36.9 C 11.8 36.7 12.3 36.5 13 36.5 C 13.6 36.5 14.1 36.7 14.5 37.1 C 14.8 37.4 14.9 37.8 14.9 38.4 C 14.95 38.42 14.9 41.3 14.9 41.3 L 14.3 41.3 C 14.3 41.3 14.28 40.56 14.3 40.6 C 14 41 13.4 41.4 12.6 41.4 C 11.7 41.4 10.9 40.9 10.9 39.9 Z M 14.3 39.6 C 14.3 39.6 14.3 39.1 14.3 39.1 C 14 39 13.5 38.9 12.9 38.9 C 12.1 38.9 11.6 39.3 11.6 39.9 C 11.6 39.9 11.6 39.9 11.6 39.9 C 11.6 40.5 12.1 40.8 12.7 40.8 C 13.6 40.8 14.3 40.3 14.3 39.6 Z M 16.3 36.6 L 17 36.6 C 17 36.6 17.03 37.42 17 37.4 C 17.3 36.9 17.8 36.5 18.6 36.5 C 19.7 36.5 20.4 37.3 20.4 38.4 C 20.4 38.38 20.4 41.3 20.4 41.3 L 19.7 41.3 C 19.7 41.3 19.71 38.55 19.7 38.5 C 19.7 37.7 19.2 37.1 18.4 37.1 C 17.6 37.1 17 37.7 17 38.6 C 17.03 38.6 17 41.3 17 41.3 L 16.3 41.3 L 16.3 36.6 Z M 21.7 42.1 C 21.7 42.1 22 41.5 22 41.5 C 22.6 41.9 23.2 42.1 23.8 42.1 C 24.9 42.1 25.5 41.6 25.5 40.5 C 25.5 40.5 25.5 39.9 25.5 39.9 C 25.1 40.5 24.6 40.9 23.7 40.9 C 22.6 40.9 21.5 40.1 21.5 38.7 C 21.5 38.7 21.5 38.7 21.5 38.7 C 21.5 37.3 22.6 36.5 23.7 36.5 C 24.6 36.5 25.1 36.9 25.5 37.4 C 25.52 37.45 25.5 36.6 25.5 36.6 L 26.2 36.6 C 26.2 36.6 26.22 40.46 26.2 40.5 C 26.2 41.2 26 41.7 25.6 42.1 C 25.2 42.5 24.6 42.7 23.8 42.7 C 23.1 42.7 22.4 42.5 21.7 42.1 Z M 25.6 38.7 C 25.6 38.7 25.6 38.7 25.6 38.7 C 25.6 37.7 24.7 37.1 23.8 37.1 C 23 37.1 22.2 37.7 22.2 38.7 C 22.2 38.7 22.2 38.7 22.2 38.7 C 22.2 39.6 23 40.3 23.8 40.3 C 24.7 40.3 25.6 39.7 25.6 38.7 Z M 35.9 39.9 C 35.9 39.9 35.9 39.9 35.9 39.9 C 35.9 38.9 36.7 38.4 37.9 38.4 C 38.5 38.4 38.9 38.5 39.3 38.6 C 39.3 38.6 39.3 38.4 39.3 38.4 C 39.3 37.6 38.8 37.2 37.9 37.2 C 37.4 37.2 37 37.3 36.5 37.5 C 36.5 37.5 36.3 36.9 36.3 36.9 C 36.8 36.7 37.3 36.5 38 36.5 C 38.7 36.5 39.2 36.7 39.5 37.1 C 39.8 37.4 40 37.8 40 38.4 C 40 38.42 40 41.3 40 41.3 L 39.3 41.3 C 39.3 41.3 39.34 40.56 39.3 40.6 C 39 41 38.5 41.4 37.7 41.4 C 36.8 41.4 35.9 40.9 35.9 39.9 Z M 39.3 39.6 C 39.3 39.6 39.3 39.1 39.3 39.1 C 39 39 38.5 38.9 38 38.9 C 37.1 38.9 36.6 39.3 36.6 39.9 C 36.6 39.9 36.6 39.9 36.6 39.9 C 36.6 40.5 37.2 40.8 37.8 40.8 C 38.6 40.8 39.3 40.3 39.3 39.6 Z M 41.5 34.7 L 42.1 34.7 L 42.1 41.3 L 41.5 41.3 L 41.5 34.7 Z M 43.9 40 C 43.91 40.03 43.9 37.2 43.9 37.2 L 43.3 37.2 L 43.3 36.6 L 43.9 36.6 L 43.9 35.2 L 44.6 35.2 L 44.6 36.6 L 46.1 36.6 L 46.1 37.2 L 44.6 37.2 C 44.6 37.2 44.6 39.94 44.6 39.9 C 44.6 40.5 44.9 40.7 45.4 40.7 C 45.6 40.7 45.8 40.7 46.1 40.6 C 46.1 40.6 46.1 41.1 46.1 41.1 C 45.8 41.3 45.6 41.3 45.2 41.3 C 44.5 41.3 43.9 41 43.9 40 Z M 46.8 39 C 46.8 39 46.8 38.9 46.8 38.9 C 46.8 37.6 47.7 36.5 49 36.5 C 50.4 36.5 51.2 37.6 51.2 39 C 51.2 39.1 51.2 39.1 51.2 39.2 C 51.2 39.2 47.5 39.2 47.5 39.2 C 47.6 40.2 48.3 40.8 49.1 40.8 C 49.8 40.8 50.2 40.5 50.6 40.1 C 50.6 40.1 51 40.5 51 40.5 C 50.6 41 50 41.4 49.1 41.4 C 47.8 41.4 46.8 40.4 46.8 39 Z M 50.5 38.7 C 50.4 37.8 49.9 37.1 49 37.1 C 48.2 37.1 47.6 37.8 47.5 38.7 C 47.5 38.7 50.5 38.7 50.5 38.7 Z M 52.3 36.6 L 53 36.6 C 53 36.6 53 37.83 53 37.8 C 53.3 37.1 54 36.5 54.9 36.5 C 54.9 36.53 54.9 37.3 54.9 37.3 C 54.9 37.3 54.85 37.28 54.8 37.3 C 53.8 37.3 53 38 53 39.4 C 53 39.41 53 41.3 53 41.3 L 52.3 41.3 L 52.3 36.6 Z M 55.9 36.6 L 56.6 36.6 C 56.6 36.6 56.56 37.42 56.6 37.4 C 56.9 36.9 57.4 36.5 58.2 36.5 C 59.3 36.5 59.9 37.3 59.9 38.4 C 59.93 38.38 59.9 41.3 59.9 41.3 L 59.2 41.3 C 59.2 41.3 59.24 38.55 59.2 38.5 C 59.2 37.7 58.8 37.1 58 37.1 C 57.2 37.1 56.6 37.7 56.6 38.6 C 56.56 38.6 56.6 41.3 56.6 41.3 L 55.9 41.3 L 55.9 36.6 Z M 61 39.9 C 61 39.9 61 39.9 61 39.9 C 61 38.9 61.8 38.4 63 38.4 C 63.6 38.4 64 38.5 64.4 38.6 C 64.4 38.6 64.4 38.4 64.4 38.4 C 64.4 37.6 63.9 37.2 63 37.2 C 62.5 37.2 62 37.3 61.6 37.5 C 61.6 37.5 61.4 36.9 61.4 36.9 C 61.9 36.7 62.4 36.5 63.1 36.5 C 63.7 36.5 64.2 36.7 64.6 37.1 C 64.9 37.4 65.1 37.8 65.1 38.4 C 65.06 38.42 65.1 41.3 65.1 41.3 L 64.4 41.3 C 64.4 41.3 64.39 40.56 64.4 40.6 C 64.1 41 63.5 41.4 62.7 41.4 C 61.8 41.4 61 40.9 61 39.9 Z M 64.4 39.6 C 64.4 39.6 64.4 39.1 64.4 39.1 C 64.1 39 63.6 38.9 63 38.9 C 62.2 38.9 61.7 39.3 61.7 39.9 C 61.7 39.9 61.7 39.9 61.7 39.9 C 61.7 40.5 62.2 40.8 62.8 40.8 C 63.7 40.8 64.4 40.3 64.4 39.6 Z M 66.6 40 C 66.64 40.03 66.6 37.2 66.6 37.2 L 66 37.2 L 66 36.6 L 66.6 36.6 L 66.6 35.2 L 67.3 35.2 L 67.3 36.6 L 68.8 36.6 L 68.8 37.2 L 67.3 37.2 C 67.3 37.2 67.33 39.94 67.3 39.9 C 67.3 40.5 67.6 40.7 68.1 40.7 C 68.3 40.7 68.5 40.7 68.8 40.6 C 68.8 40.6 68.8 41.1 68.8 41.1 C 68.5 41.3 68.3 41.3 68 41.3 C 67.2 41.3 66.6 41 66.6 40 Z M 70 34.8 L 70.8 34.8 L 70.8 35.6 L 70 35.6 L 70 34.8 Z M 70 36.6 L 70.7 36.6 L 70.7 41.3 L 70 41.3 L 70 36.6 Z M 72.9 40.4 C 72.91 40.37 72.9 41.3 72.9 41.3 L 72.2 41.3 L 72.2 34.7 L 72.9 34.7 C 72.9 34.7 72.91 37.55 72.9 37.5 C 73.3 37 73.8 36.5 74.7 36.5 C 75.8 36.5 76.9 37.4 76.9 38.9 C 76.9 38.9 76.9 38.9 76.9 38.9 C 76.9 40.5 75.8 41.4 74.7 41.4 C 73.8 41.4 73.3 40.9 72.9 40.4 Z M 76.2 39 C 76.2 39 76.2 38.9 76.2 38.9 C 76.2 37.8 75.5 37.1 74.6 37.1 C 73.7 37.1 72.9 37.9 72.9 38.9 C 72.9 38.9 72.9 38.9 72.9 38.9 C 72.9 40 73.7 40.7 74.6 40.7 C 75.5 40.7 76.2 40.1 76.2 39 Z M 77.8 39 C 77.8 39 77.8 38.9 77.8 38.9 C 77.8 37.6 78.8 36.5 80.2 36.5 C 81.6 36.5 82.7 37.6 82.7 38.9 C 82.7 38.9 82.7 38.9 82.7 38.9 C 82.7 40.3 81.6 41.4 80.2 41.4 C 78.8 41.4 77.8 40.3 77.8 39 Z M 82 39 C 82 39 82 38.9 82 38.9 C 82 37.9 81.2 37.1 80.2 37.1 C 79.2 37.1 78.5 37.9 78.5 38.9 C 78.5 38.9 78.5 38.9 78.5 38.9 C 78.5 39.9 79.3 40.8 80.2 40.8 C 81.3 40.8 82 39.9 82 39 Z M 83.8 36.6 L 84.5 36.6 C 84.5 36.6 84.52 37.42 84.5 37.4 C 84.8 36.9 85.3 36.5 86.1 36.5 C 87.2 36.5 87.9 37.3 87.9 38.4 C 87.9 38.38 87.9 41.3 87.9 41.3 L 87.2 41.3 C 87.2 41.3 87.21 38.55 87.2 38.5 C 87.2 37.7 86.7 37.1 85.9 37.1 C 85.1 37.1 84.5 37.7 84.5 38.6 C 84.52 38.6 84.5 41.3 84.5 41.3 L 83.8 41.3 L 83.8 36.6 Z M 89.2 42.1 C 89.2 42.1 89.5 41.5 89.5 41.5 C 90.1 41.9 90.7 42.1 91.3 42.1 C 92.4 42.1 93 41.6 93 40.5 C 93 40.5 93 39.9 93 39.9 C 92.6 40.5 92.1 40.9 91.2 40.9 C 90.1 40.9 89 40.1 89 38.7 C 89 38.7 89 38.7 89 38.7 C 89 37.3 90.1 36.5 91.2 36.5 C 92.1 36.5 92.6 36.9 93 37.4 C 93.02 37.45 93 36.6 93 36.6 L 93.7 36.6 C 93.7 36.6 93.71 40.46 93.7 40.5 C 93.7 41.2 93.5 41.7 93.1 42.1 C 92.7 42.5 92.1 42.7 91.3 42.7 C 90.6 42.7 89.9 42.5 89.2 42.1 Z M 93 38.7 C 93 38.7 93 38.7 93 38.7 C 93 37.7 92.2 37.1 91.3 37.1 C 90.5 37.1 89.7 37.7 89.7 38.7 C 89.7 38.7 89.7 38.7 89.7 38.7 C 89.7 39.6 90.5 40.3 91.3 40.3 C 92.2 40.3 93 39.7 93 38.7 Z M 103.8 34.7 L 104.5 34.7 L 104.5 39.2 L 107 36.6 L 107.8 36.6 L 105.9 38.6 L 107.9 41.3 L 107.1 41.3 L 105.4 39.1 L 104.5 40 L 104.5 41.3 L 103.8 41.3 L 103.8 34.7 Z M 108.9 34.7 L 109.5 34.7 L 109.5 41.3 L 108.9 41.3 L 108.9 34.7 Z M 110.7 39.9 C 110.7 39.9 110.7 39.9 110.7 39.9 C 110.7 38.9 111.5 38.4 112.7 38.4 C 113.3 38.4 113.7 38.5 114.1 38.6 C 114.1 38.6 114.1 38.4 114.1 38.4 C 114.1 37.6 113.6 37.2 112.8 37.2 C 112.2 37.2 111.8 37.3 111.3 37.5 C 111.3 37.5 111.1 36.9 111.1 36.9 C 111.6 36.7 112.1 36.5 112.8 36.5 C 113.5 36.5 114 36.7 114.3 37.1 C 114.6 37.4 114.8 37.8 114.8 38.4 C 114.8 38.42 114.8 41.3 114.8 41.3 L 114.1 41.3 C 114.1 41.3 114.14 40.56 114.1 40.6 C 113.8 41 113.3 41.4 112.5 41.4 C 111.6 41.4 110.7 40.9 110.7 39.9 Z M 114.1 39.6 C 114.1 39.6 114.1 39.1 114.1 39.1 C 113.8 39 113.3 38.9 112.8 38.9 C 111.9 38.9 111.4 39.3 111.4 39.9 C 111.4 39.9 111.4 39.9 111.4 39.9 C 111.4 40.5 112 40.8 112.6 40.8 C 113.4 40.8 114.1 40.3 114.1 39.6 Z M 115.8 40.7 C 115.8 40.7 116.2 40.2 116.2 40.2 C 116.7 40.6 117.2 40.8 117.8 40.8 C 118.3 40.8 118.7 40.5 118.7 40 C 118.7 40 118.7 40 118.7 40 C 118.7 39.5 118.2 39.4 117.6 39.2 C 116.8 39 116 38.7 116 37.9 C 116 37.9 116 37.9 116 37.9 C 116 37.1 116.7 36.5 117.6 36.5 C 118.2 36.5 118.8 36.7 119.3 37 C 119.3 37 119 37.6 119 37.6 C 118.5 37.3 118 37.1 117.6 37.1 C 117 37.1 116.7 37.4 116.7 37.8 C 116.7 37.8 116.7 37.8 116.7 37.8 C 116.7 38.2 117.3 38.4 117.9 38.6 C 118.6 38.8 119.4 39.1 119.4 39.9 C 119.4 39.9 119.4 40 119.4 40 C 119.4 40.8 118.7 41.4 117.7 41.4 C 117.1 41.4 116.3 41.1 115.8 40.7 Z M 120.3 39 C 120.3 39 120.3 38.9 120.3 38.9 C 120.3 37.6 121.2 36.5 122.5 36.5 C 123.9 36.5 124.7 37.6 124.7 39 C 124.7 39.1 124.7 39.1 124.7 39.2 C 124.7 39.2 121 39.2 121 39.2 C 121.1 40.2 121.8 40.8 122.6 40.8 C 123.3 40.8 123.7 40.5 124.1 40.1 C 124.1 40.1 124.5 40.5 124.5 40.5 C 124.1 41 123.5 41.4 122.6 41.4 C 121.3 41.4 120.3 40.4 120.3 39 Z M 124 38.7 C 123.9 37.8 123.4 37.1 122.5 37.1 C 121.7 37.1 121.1 37.8 121 38.7 C 121 38.7 124 38.7 124 38.7 Z M 134.4 36.6 L 135.1 36.6 C 135.1 36.6 135.1 37.55 135.1 37.5 C 135.5 37 136 36.5 136.9 36.5 C 138 36.5 139.1 37.4 139.1 38.9 C 139.1 38.9 139.1 38.9 139.1 38.9 C 139.1 40.5 138 41.4 136.9 41.4 C 136 41.4 135.5 40.9 135.1 40.4 C 135.1 40.37 135.1 42.7 135.1 42.7 L 134.4 42.7 L 134.4 36.6 Z M 138.4 39 C 138.4 39 138.4 38.9 138.4 38.9 C 138.4 37.8 137.6 37.1 136.8 37.1 C 135.9 37.1 135.1 37.9 135.1 38.9 C 135.1 38.9 135.1 38.9 135.1 38.9 C 135.1 40 135.9 40.7 136.8 40.7 C 137.7 40.7 138.4 40.1 138.4 39 Z M 139.9 39.9 C 139.9 39.9 139.9 39.9 139.9 39.9 C 139.9 38.9 140.8 38.4 141.9 38.4 C 142.5 38.4 143 38.5 143.4 38.6 C 143.4 38.6 143.4 38.4 143.4 38.4 C 143.4 37.6 142.9 37.2 142 37.2 C 141.4 37.2 141 37.3 140.6 37.5 C 140.6 37.5 140.4 36.9 140.4 36.9 C 140.9 36.7 141.4 36.5 142.1 36.5 C 142.7 36.5 143.2 36.7 143.6 37.1 C 143.9 37.4 144 37.8 144 38.4 C 144.03 38.42 144 41.3 144 41.3 L 143.4 41.3 C 143.4 41.3 143.37 40.56 143.4 40.6 C 143 41 142.5 41.4 141.7 41.4 C 140.8 41.4 139.9 40.9 139.9 39.9 Z M 143.4 39.6 C 143.4 39.6 143.4 39.1 143.4 39.1 C 143 39 142.6 38.9 142 38.9 C 141.1 38.9 140.6 39.3 140.6 39.9 C 140.6 39.9 140.6 39.9 140.6 39.9 C 140.6 40.5 141.2 40.8 141.8 40.8 C 142.7 40.8 143.4 40.3 143.4 39.6 Z M 145.4 36.6 L 146.1 36.6 C 146.1 36.6 146.11 37.83 146.1 37.8 C 146.5 37.1 147.1 36.5 148 36.5 C 148.01 36.53 148 37.3 148 37.3 C 148 37.3 147.96 37.28 148 37.3 C 146.9 37.3 146.1 38 146.1 39.4 C 146.11 39.41 146.1 41.3 146.1 41.3 L 145.4 41.3 L 145.4 36.6 Z M 148.4 39.9 C 148.4 39.9 148.4 39.9 148.4 39.9 C 148.4 38.9 149.2 38.4 150.4 38.4 C 151 38.4 151.4 38.5 151.8 38.6 C 151.8 38.6 151.8 38.4 151.8 38.4 C 151.8 37.6 151.3 37.2 150.4 37.2 C 149.9 37.2 149.4 37.3 149 37.5 C 149 37.5 148.8 36.9 148.8 36.9 C 149.3 36.7 149.8 36.5 150.5 36.5 C 151.2 36.5 151.7 36.7 152 37.1 C 152.3 37.4 152.5 37.8 152.5 38.4 C 152.48 38.42 152.5 41.3 152.5 41.3 L 151.8 41.3 C 151.8 41.3 151.82 40.56 151.8 40.6 C 151.5 41 151 41.4 150.1 41.4 C 149.3 41.4 148.4 40.9 148.4 39.9 Z M 151.8 39.6 C 151.8 39.6 151.8 39.1 151.8 39.1 C 151.5 39 151 38.9 150.5 38.9 C 149.6 38.9 149.1 39.3 149.1 39.9 C 149.1 39.9 149.1 39.9 149.1 39.9 C 149.1 40.5 149.6 40.8 150.3 40.8 C 151.1 40.8 151.8 40.3 151.8 39.6 Z M 162.1 40.7 C 162.1 40.7 162.4 40.2 162.4 40.2 C 162.9 40.6 163.5 40.8 164 40.8 C 164.6 40.8 165 40.5 165 40 C 165 40 165 40 165 40 C 165 39.5 164.4 39.4 163.8 39.2 C 163.1 39 162.3 38.7 162.3 37.9 C 162.3 37.9 162.3 37.9 162.3 37.9 C 162.3 37.1 163 36.5 163.9 36.5 C 164.4 36.5 165.1 36.7 165.6 37 C 165.6 37 165.2 37.6 165.2 37.6 C 164.8 37.3 164.3 37.1 163.9 37.1 C 163.3 37.1 163 37.4 163 37.8 C 163 37.8 163 37.8 163 37.8 C 163 38.2 163.5 38.4 164.2 38.6 C 164.9 38.8 165.7 39.1 165.7 39.9 C 165.7 39.9 165.7 40 165.7 40 C 165.7 40.8 164.9 41.4 164 41.4 C 163.3 41.4 162.6 41.1 162.1 40.7 Z M 166.5 39.9 C 166.5 39.9 166.5 39.9 166.5 39.9 C 166.5 38.9 167.3 38.4 168.5 38.4 C 169.1 38.4 169.5 38.5 169.9 38.6 C 169.9 38.6 169.9 38.4 169.9 38.4 C 169.9 37.6 169.4 37.2 168.5 37.2 C 168 37.2 167.6 37.3 167.1 37.5 C 167.1 37.5 166.9 36.9 166.9 36.9 C 167.4 36.7 167.9 36.5 168.6 36.5 C 169.3 36.5 169.8 36.7 170.1 37.1 C 170.4 37.4 170.6 37.8 170.6 38.4 C 170.59 38.42 170.6 41.3 170.6 41.3 L 169.9 41.3 C 169.9 41.3 169.92 40.56 169.9 40.6 C 169.6 41 169.1 41.4 168.2 41.4 C 167.4 41.4 166.5 40.9 166.5 39.9 Z M 169.9 39.6 C 169.9 39.6 169.9 39.1 169.9 39.1 C 169.6 39 169.1 38.9 168.6 38.9 C 167.7 38.9 167.2 39.3 167.2 39.9 C 167.2 39.9 167.2 39.9 167.2 39.9 C 167.2 40.5 167.7 40.8 168.4 40.8 C 169.2 40.8 169.9 40.3 169.9 39.6 Z M 180.4 38.1 C 180.4 38.1 180.4 38.1 180.4 38.1 C 180.4 36.4 181.7 34.9 183.6 34.9 C 184.6 34.9 185.3 35.2 185.9 35.7 C 185.9 35.7 185.5 36.2 185.5 36.2 C 185 35.8 184.4 35.5 183.5 35.5 C 182.1 35.5 181.1 36.7 181.1 38.1 C 181.1 38.1 181.1 38.1 181.1 38.1 C 181.1 39.6 182.1 40.7 183.6 40.7 C 184.4 40.7 185 40.5 185.5 40.1 C 185.45 40.1 185.5 38.5 185.5 38.5 L 183.5 38.5 L 183.5 37.9 L 186.1 37.9 C 186.1 37.9 186.13 40.41 186.1 40.4 C 185.6 40.9 184.7 41.4 183.6 41.4 C 181.6 41.4 180.4 39.9 180.4 38.1 Z M 187.6 35 L 192.2 35 L 192.2 35.6 L 188.4 35.6 L 188.4 37.8 L 191.8 37.8 L 191.8 38.4 L 188.4 38.4 L 188.4 40.6 L 192.2 40.6 L 192.2 41.3 L 187.6 41.3 L 187.6 35 Z M 195.3 35.6 L 193.1 35.6 L 193.1 35 L 198.1 35 L 198.1 35.6 L 196 35.6 L 196 41.3 L 195.3 41.3 L 195.3 35.6 Z M 199.3 35 L 203.9 35 L 203.9 35.6 L 200 35.6 L 200 37.8 L 203.5 37.8 L 203.5 38.4 L 200 38.4 L 200 40.6 L 203.9 40.6 L 203.9 41.3 L 199.3 41.3 L 199.3 35 Z M 207.6 34.9 L 208.3 34.9 L 211.1 41.3 L 210.4 41.3 L 209.6 39.6 L 206.2 39.6 L 205.5 41.3 L 204.7 41.3 L 207.6 34.9 Z M 209.4 39 L 207.9 35.7 L 206.5 39 L 209.4 39 Z M 212.3 35 L 213 35 L 215.3 38.4 L 217.6 35 L 218.3 35 L 218.3 41.3 L 217.6 41.3 L 217.6 36.2 L 215.3 39.5 L 215.3 39.5 L 213 36.2 L 213 41.3 L 212.3 41.3 L 212.3 35 Z M 219.6 40.3 C 219.6 40.3 220 39.8 220 39.8 C 220.7 40.4 221.3 40.7 222.2 40.7 C 223 40.7 223.6 40.3 223.6 39.6 C 223.6 39.6 223.6 39.6 223.6 39.6 C 223.6 39 223.3 38.7 222 38.4 C 220.5 38.1 219.8 37.6 219.8 36.6 C 219.8 36.6 219.8 36.6 219.8 36.6 C 219.8 35.6 220.7 34.9 221.9 34.9 C 222.8 34.9 223.5 35.1 224.1 35.6 C 224.1 35.6 223.7 36.2 223.7 36.2 C 223.1 35.7 222.5 35.5 221.9 35.5 C 221.1 35.5 220.6 36 220.6 36.5 C 220.6 36.5 220.6 36.5 220.6 36.5 C 220.6 37.1 220.9 37.5 222.3 37.8 C 223.7 38.1 224.3 38.6 224.3 39.6 C 224.3 39.6 224.3 39.6 224.3 39.6 C 224.3 40.7 223.4 41.4 222.2 41.4 C 221.2 41.4 220.4 41 219.6 40.3 Z M 233.8 39.9 C 233.8 39.9 233.8 39.9 233.8 39.9 C 233.8 38.9 234.6 38.4 235.8 38.4 C 236.4 38.4 236.8 38.5 237.2 38.6 C 237.2 38.6 237.2 38.4 237.2 38.4 C 237.2 37.6 236.7 37.2 235.8 37.2 C 235.3 37.2 234.9 37.3 234.4 37.5 C 234.4 37.5 234.2 36.9 234.2 36.9 C 234.7 36.7 235.2 36.5 235.9 36.5 C 236.6 36.5 237.1 36.7 237.4 37.1 C 237.7 37.4 237.9 37.8 237.9 38.4 C 237.89 38.42 237.9 41.3 237.9 41.3 L 237.2 41.3 C 237.2 41.3 237.22 40.56 237.2 40.6 C 236.9 41 236.4 41.4 235.5 41.4 C 234.7 41.4 233.8 40.9 233.8 39.9 Z M 237.2 39.6 C 237.2 39.6 237.2 39.1 237.2 39.1 C 236.9 39 236.4 38.9 235.9 38.9 C 235 38.9 234.5 39.3 234.5 39.9 C 234.5 39.9 234.5 39.9 234.5 39.9 C 234.5 40.5 235 40.8 235.7 40.8 C 236.5 40.8 237.2 40.3 237.2 39.6 Z M 239.5 40 C 239.48 40.03 239.5 37.2 239.5 37.2 L 238.8 37.2 L 238.8 36.6 L 239.5 36.6 L 239.5 35.2 L 240.2 35.2 L 240.2 36.6 L 241.6 36.6 L 241.6 37.2 L 240.2 37.2 C 240.2 37.2 240.17 39.94 240.2 39.9 C 240.2 40.5 240.5 40.7 240.9 40.7 C 241.2 40.7 241.4 40.7 241.6 40.6 C 241.6 40.6 241.6 41.1 241.6 41.1 C 241.4 41.3 241.1 41.3 240.8 41.3 C 240 41.3 239.5 41 239.5 40 Z M 251.2 38.1 C 251.2 38.1 251.2 38.1 251.2 38.1 C 251.2 36.4 252.5 34.9 254.4 34.9 C 255.4 34.9 256.1 35.2 256.7 35.7 C 256.7 35.7 256.3 36.2 256.3 36.2 C 255.8 35.8 255.2 35.5 254.3 35.5 C 252.9 35.5 251.9 36.7 251.9 38.1 C 251.9 38.1 251.9 38.1 251.9 38.1 C 251.9 39.6 252.9 40.7 254.4 40.7 C 255.2 40.7 255.8 40.5 256.3 40.1 C 256.26 40.1 256.3 38.5 256.3 38.5 L 254.3 38.5 L 254.3 37.9 L 256.9 37.9 C 256.9 37.9 256.94 40.41 256.9 40.4 C 256.4 40.9 255.5 41.4 254.4 41.4 C 252.4 41.4 251.2 39.9 251.2 38.1 Z M 258.5 35 L 263 35 L 263 35.6 L 259.2 35.6 L 259.2 37.8 L 262.6 37.8 L 262.6 38.4 L 259.2 38.4 L 259.2 40.6 L 263.1 40.6 L 263.1 41.3 L 258.5 41.3 L 258.5 35 Z M 264 40.3 C 264 40.3 264.4 39.8 264.4 39.8 C 265.1 40.4 265.7 40.7 266.6 40.7 C 267.4 40.7 268 40.3 268 39.6 C 268 39.6 268 39.6 268 39.6 C 268 39 267.7 38.7 266.3 38.4 C 264.9 38.1 264.2 37.6 264.2 36.6 C 264.2 36.6 264.2 36.6 264.2 36.6 C 264.2 35.6 265.1 34.9 266.3 34.9 C 267.2 34.9 267.9 35.1 268.5 35.6 C 268.5 35.6 268.1 36.2 268.1 36.2 C 267.5 35.7 266.9 35.5 266.3 35.5 C 265.5 35.5 264.9 36 264.9 36.5 C 264.9 36.5 264.9 36.5 264.9 36.5 C 264.9 37.1 265.3 37.5 266.7 37.8 C 268.1 38.1 268.7 38.6 268.7 39.6 C 268.7 39.6 268.7 39.6 268.7 39.6 C 268.7 40.7 267.8 41.4 266.6 41.4 C 265.6 41.4 264.7 41 264 40.3 Z M 270.1 35 C 270.1 35 272.42 34.97 272.4 35 C 273.8 35 274.8 35.7 274.8 37 C 274.8 37 274.8 37 274.8 37 C 274.8 38.3 273.6 39 272.3 39 C 272.3 39.04 270.8 39 270.8 39 L 270.8 41.3 L 270.1 41.3 L 270.1 35 Z M 272.3 38.4 C 273.4 38.4 274.1 37.8 274.1 37 C 274.1 37 274.1 37 274.1 37 C 274.1 36.1 273.4 35.6 272.4 35.6 C 272.37 35.62 270.8 35.6 270.8 35.6 L 270.8 38.4 C 270.8 38.4 272.33 38.39 272.3 38.4 Z M 275.7 38.1 C 275.7 38.1 275.7 38.1 275.7 38.1 C 275.7 36.4 277 34.9 278.9 34.9 C 280.8 34.9 282.1 36.4 282.1 38.1 C 282.1 38.1 282.1 38.1 282.1 38.1 C 282.1 39.9 280.8 41.4 278.9 41.4 C 277 41.4 275.7 39.9 275.7 38.1 Z M 281.4 38.1 C 281.4 38.1 281.4 38.1 281.4 38.1 C 281.4 36.7 280.3 35.5 278.9 35.5 C 277.5 35.5 276.4 36.7 276.4 38.1 C 276.4 38.1 276.4 38.1 276.4 38.1 C 276.4 39.5 277.5 40.7 278.9 40.7 C 280.4 40.7 281.4 39.6 281.4 38.1 Z M 283.5 35 C 283.5 35 286.25 34.97 286.3 35 C 287 35 287.6 35.2 288 35.6 C 288.3 35.9 288.5 36.3 288.5 36.8 C 288.5 36.8 288.5 36.9 288.5 36.9 C 288.5 37.9 287.8 38.5 286.8 38.7 C 286.82 38.69 288.8 41.3 288.8 41.3 L 287.9 41.3 L 286.1 38.8 L 284.3 38.8 L 284.3 41.3 L 283.5 41.3 L 283.5 35 Z M 286.2 38.2 C 287.1 38.2 287.8 37.7 287.8 36.9 C 287.8 36.9 287.8 36.9 287.8 36.9 C 287.8 36.1 287.2 35.6 286.2 35.6 C 286.2 35.62 284.3 35.6 284.3 35.6 L 284.3 38.2 C 284.3 38.2 286.19 38.18 286.2 38.2 Z M 291.6 35.6 L 289.4 35.6 L 289.4 35 L 294.4 35 L 294.4 35.6 L 292.3 35.6 L 292.3 41.3 L 291.6 41.3 L 291.6 35.6 Z M 294.3 42 C 294.7 41.9 294.9 41.7 294.9 41.3 C 294.87 41.26 294.5 41.3 294.5 41.3 L 294.5 40.3 L 295.4 40.3 C 295.4 40.3 295.37 41.13 295.4 41.1 C 295.4 41.9 295.1 42.2 294.4 42.4 C 294.4 42.4 294.3 42 294.3 42 Z " stroke="none" fill="#fff"/>
  </g>
  <g id="Polygon35540">
    <path d="M 0.5 28.3 C 0.5 28.3 0.9 27.8 0.9 27.8 C 1.6 28.4 2.2 28.7 3.1 28.7 C 3.9 28.7 4.5 28.3 4.5 27.6 C 4.5 27.6 4.5 27.6 4.5 27.6 C 4.5 27 4.2 26.7 2.8 26.4 C 1.4 26.1 0.7 25.6 0.7 24.6 C 0.7 24.6 0.7 24.6 0.7 24.6 C 0.7 23.6 1.6 22.9 2.8 22.9 C 3.7 22.9 4.4 23.1 5 23.6 C 5 23.6 4.6 24.2 4.6 24.2 C 4 23.7 3.4 23.5 2.8 23.5 C 2 23.5 1.4 24 1.4 24.5 C 1.4 24.5 1.4 24.5 1.4 24.5 C 1.4 25.1 1.8 25.5 3.2 25.8 C 4.6 26.1 5.2 26.6 5.2 27.6 C 5.2 27.6 5.2 27.6 5.2 27.6 C 5.2 28.7 4.3 29.4 3.1 29.4 C 2.1 29.4 1.2 29 0.5 28.3 Z M 6.5 26.6 C 6.46 26.63 6.5 23 6.5 23 L 7.2 23 C 7.2 23 7.17 26.58 7.2 26.6 C 7.2 27.9 7.9 28.7 9.1 28.7 C 10.3 28.7 11 28 11 26.6 C 11 26.63 11 23 11 23 L 11.7 23 C 11.7 23 11.71 26.57 11.7 26.6 C 11.7 28.4 10.7 29.4 9.1 29.4 C 7.5 29.4 6.5 28.4 6.5 26.6 Z M 13.3 23 C 13.3 23 16.01 22.97 16 23 C 16.8 23 17.4 23.2 17.8 23.6 C 18.1 23.9 18.3 24.3 18.3 24.8 C 18.3 24.8 18.3 24.9 18.3 24.9 C 18.3 25.9 17.6 26.5 16.6 26.7 C 16.58 26.69 18.5 29.3 18.5 29.3 L 17.6 29.3 L 15.8 26.8 L 14 26.8 L 14 29.3 L 13.3 29.3 L 13.3 23 Z M 15.9 26.2 C 16.9 26.2 17.6 25.7 17.6 24.9 C 17.6 24.9 17.6 24.9 17.6 24.9 C 17.6 24.1 17 23.6 16 23.6 C 15.96 23.62 14 23.6 14 23.6 L 14 26.2 C 14 26.2 15.95 26.18 15.9 26.2 Z M 19.8 23 L 20.5 23 L 20.5 29.3 L 19.8 29.3 L 19.8 23 Z M 22.3 23 L 23 23 L 23 29.3 L 22.3 29.3 L 22.3 23 Z M 24.8 23 L 25.4 23 L 29.4 28 L 29.4 23 L 30.1 23 L 30.1 29.3 L 29.5 29.3 L 25.5 24.1 L 25.5 29.3 L 24.8 29.3 L 24.8 23 Z M 42.6 27.9 C 42.6 27.9 42.6 27.9 42.6 27.9 C 42.6 26.9 43.4 26.4 44.6 26.4 C 45.2 26.4 45.6 26.5 46 26.6 C 46 26.6 46 26.4 46 26.4 C 46 25.6 45.5 25.2 44.6 25.2 C 44.1 25.2 43.6 25.3 43.2 25.5 C 43.2 25.5 43 24.9 43 24.9 C 43.5 24.7 44 24.5 44.7 24.5 C 45.4 24.5 45.9 24.7 46.2 25.1 C 46.5 25.4 46.7 25.8 46.7 26.4 C 46.68 26.42 46.7 29.3 46.7 29.3 L 46 29.3 C 46 29.3 46.01 28.56 46 28.6 C 45.7 29 45.1 29.4 44.3 29.4 C 43.5 29.4 42.6 28.9 42.6 27.9 Z M 46 27.6 C 46 27.6 46 27.1 46 27.1 C 45.7 27 45.2 26.9 44.7 26.9 C 43.8 26.9 43.3 27.3 43.3 27.9 C 43.3 27.9 43.3 27.9 43.3 27.9 C 43.3 28.5 43.8 28.8 44.5 28.8 C 45.3 28.8 46 28.3 46 27.6 Z M 48.1 24.6 L 48.8 24.6 C 48.8 24.6 48.76 25.42 48.8 25.4 C 49.1 24.9 49.5 24.5 50.3 24.5 C 51.5 24.5 52.1 25.3 52.1 26.4 C 52.13 26.38 52.1 29.3 52.1 29.3 L 51.4 29.3 C 51.4 29.3 51.44 26.55 51.4 26.5 C 51.4 25.7 51 25.1 50.2 25.1 C 49.4 25.1 48.8 25.7 48.8 26.6 C 48.76 26.6 48.8 29.3 48.8 29.3 L 48.1 29.3 L 48.1 24.6 Z M 53.5 30.1 C 53.5 30.1 53.8 29.5 53.8 29.5 C 54.3 29.9 54.9 30.1 55.6 30.1 C 56.6 30.1 57.3 29.6 57.3 28.5 C 57.3 28.5 57.3 27.9 57.3 27.9 C 56.9 28.5 56.3 28.9 55.4 28.9 C 54.3 28.9 53.2 28.1 53.2 26.7 C 53.2 26.7 53.2 26.7 53.2 26.7 C 53.2 25.3 54.3 24.5 55.4 24.5 C 56.3 24.5 56.9 24.9 57.3 25.4 C 57.25 25.45 57.3 24.6 57.3 24.6 L 57.9 24.6 C 57.9 24.6 57.94 28.46 57.9 28.5 C 57.9 29.2 57.7 29.7 57.4 30.1 C 56.9 30.5 56.3 30.7 55.6 30.7 C 54.8 30.7 54.1 30.5 53.5 30.1 Z M 57.3 26.7 C 57.3 26.7 57.3 26.7 57.3 26.7 C 57.3 25.7 56.5 25.1 55.6 25.1 C 54.7 25.1 54 25.7 54 26.7 C 54 26.7 54 26.7 54 26.7 C 54 27.6 54.7 28.3 55.6 28.3 C 56.5 28.3 57.3 27.7 57.3 26.7 Z M 70.7 22.7 L 71.4 22.7 L 71.4 27.2 L 73.9 24.6 L 74.7 24.6 L 72.8 26.6 L 74.8 29.3 L 74 29.3 L 72.3 27.1 L 71.4 28 L 71.4 29.3 L 70.7 29.3 L 70.7 22.7 Z M 75.3 27.9 C 75.3 27.9 75.3 27.9 75.3 27.9 C 75.3 26.9 76.1 26.4 77.2 26.4 C 77.8 26.4 78.3 26.5 78.7 26.6 C 78.7 26.6 78.7 26.4 78.7 26.4 C 78.7 25.6 78.2 25.2 77.3 25.2 C 76.7 25.2 76.3 25.3 75.9 25.5 C 75.9 25.5 75.7 24.9 75.7 24.9 C 76.2 24.7 76.7 24.5 77.4 24.5 C 78 24.5 78.5 24.7 78.9 25.1 C 79.2 25.4 79.3 25.8 79.3 26.4 C 79.34 26.42 79.3 29.3 79.3 29.3 L 78.7 29.3 C 78.7 29.3 78.68 28.56 78.7 28.6 C 78.4 29 77.8 29.4 77 29.4 C 76.1 29.4 75.3 28.9 75.3 27.9 Z M 78.7 27.6 C 78.7 27.6 78.7 27.1 78.7 27.1 C 78.3 27 77.9 26.9 77.3 26.9 C 76.4 26.9 76 27.3 76 27.9 C 76 27.9 76 27.9 76 27.9 C 76 28.5 76.5 28.8 77.1 28.8 C 78 28.8 78.7 28.3 78.7 27.6 Z M 80.8 22.7 L 81.5 22.7 L 81.5 29.3 L 80.8 29.3 L 80.8 22.7 Z M 82.7 27.9 C 82.7 27.9 82.7 27.9 82.7 27.9 C 82.7 26.9 83.5 26.4 84.6 26.4 C 85.2 26.4 85.7 26.5 86.1 26.6 C 86.1 26.6 86.1 26.4 86.1 26.4 C 86.1 25.6 85.6 25.2 84.7 25.2 C 84.1 25.2 83.7 25.3 83.3 25.5 C 83.3 25.5 83.1 24.9 83.1 24.9 C 83.6 24.7 84.1 24.5 84.8 24.5 C 85.4 24.5 85.9 24.7 86.3 25.1 C 86.6 25.4 86.7 25.8 86.7 26.4 C 86.74 26.42 86.7 29.3 86.7 29.3 L 86.1 29.3 C 86.1 29.3 86.07 28.56 86.1 28.6 C 85.8 29 85.2 29.4 84.4 29.4 C 83.5 29.4 82.7 28.9 82.7 27.9 Z M 86.1 27.6 C 86.1 27.6 86.1 27.1 86.1 27.1 C 85.7 27 85.3 26.9 84.7 26.9 C 83.8 26.9 83.4 27.3 83.4 27.9 C 83.4 27.9 83.4 27.9 83.4 27.9 C 83.4 28.5 83.9 28.8 84.5 28.8 C 85.4 28.8 86.1 28.3 86.1 27.6 Z M 88.1 30.1 C 88.1 30.1 88.4 29.5 88.4 29.5 C 88.9 29.9 89.5 30.1 90.2 30.1 C 91.2 30.1 91.9 29.6 91.9 28.5 C 91.9 28.5 91.9 27.9 91.9 27.9 C 91.5 28.5 90.9 28.9 90 28.9 C 88.9 28.9 87.9 28.1 87.9 26.7 C 87.9 26.7 87.9 26.7 87.9 26.7 C 87.9 25.3 88.9 24.5 90 24.5 C 90.9 24.5 91.5 24.9 91.9 25.4 C 91.86 25.45 91.9 24.6 91.9 24.6 L 92.6 24.6 C 92.6 24.6 92.55 28.46 92.6 28.5 C 92.6 29.2 92.3 29.7 92 30.1 C 91.5 30.5 90.9 30.7 90.2 30.7 C 89.4 30.7 88.7 30.5 88.1 30.1 Z M 91.9 26.7 C 91.9 26.7 91.9 26.7 91.9 26.7 C 91.9 25.7 91.1 25.1 90.2 25.1 C 89.3 25.1 88.6 25.7 88.6 26.7 C 88.6 26.7 88.6 26.7 88.6 26.7 C 88.6 27.6 89.3 28.3 90.2 28.3 C 91.1 28.3 91.9 27.7 91.9 26.7 Z M 93.7 27.9 C 93.7 27.9 93.7 27.9 93.7 27.9 C 93.7 26.9 94.5 26.4 95.7 26.4 C 96.2 26.4 96.7 26.5 97.1 26.6 C 97.1 26.6 97.1 26.4 97.1 26.4 C 97.1 25.6 96.6 25.2 95.7 25.2 C 95.1 25.2 94.7 25.3 94.3 25.5 C 94.3 25.5 94.1 24.9 94.1 24.9 C 94.6 24.7 95.1 24.5 95.8 24.5 C 96.4 24.5 96.9 24.7 97.3 25.1 C 97.6 25.4 97.7 25.8 97.7 26.4 C 97.75 26.42 97.7 29.3 97.7 29.3 L 97.1 29.3 C 97.1 29.3 97.08 28.56 97.1 28.6 C 96.8 29 96.2 29.4 95.4 29.4 C 94.5 29.4 93.7 28.9 93.7 27.9 Z M 97.1 27.6 C 97.1 27.6 97.1 27.1 97.1 27.1 C 96.7 27 96.3 26.9 95.7 26.9 C 94.8 26.9 94.4 27.3 94.4 27.9 C 94.4 27.9 94.4 27.9 94.4 27.9 C 94.4 28.5 94.9 28.8 95.5 28.8 C 96.4 28.8 97.1 28.3 97.1 27.6 Z M 102.4 24.6 L 103.2 24.6 C 103.2 24.6 101.22 29.42 101.2 29.4 C 100.8 30.4 100.4 30.7 99.7 30.7 C 99.3 30.7 99 30.7 98.7 30.5 C 98.7 30.5 98.9 29.9 98.9 29.9 C 99.1 30.1 99.3 30.1 99.6 30.1 C 100.1 30.1 100.3 29.9 100.6 29.2 C 100.6 29.25 98.5 24.6 98.5 24.6 L 99.3 24.6 L 100.9 28.5 L 102.4 24.6 Z M 103.6 27.9 C 103.6 27.9 103.6 27.9 103.6 27.9 C 103.6 26.9 104.4 26.4 105.6 26.4 C 106.2 26.4 106.6 26.5 107 26.6 C 107 26.6 107 26.4 107 26.4 C 107 25.6 106.5 25.2 105.6 25.2 C 105.1 25.2 104.7 25.3 104.2 25.5 C 104.2 25.5 104 24.9 104 24.9 C 104.5 24.7 105 24.5 105.7 24.5 C 106.4 24.5 106.9 24.7 107.2 25.1 C 107.5 25.4 107.7 25.8 107.7 26.4 C 107.69 26.42 107.7 29.3 107.7 29.3 L 107 29.3 C 107 29.3 107.03 28.56 107 28.6 C 106.7 29 106.2 29.4 105.3 29.4 C 104.5 29.4 103.6 28.9 103.6 27.9 Z M 107 27.6 C 107 27.6 107 27.1 107 27.1 C 106.7 27 106.2 26.9 105.7 26.9 C 104.8 26.9 104.3 27.3 104.3 27.9 C 104.3 27.9 104.3 27.9 104.3 27.9 C 104.3 28.5 104.8 28.8 105.5 28.8 C 106.3 28.8 107 28.3 107 27.6 Z M 109.1 24.6 L 109.8 24.6 C 109.8 24.6 109.77 25.42 109.8 25.4 C 110.1 24.9 110.6 24.5 111.4 24.5 C 112.5 24.5 113.1 25.3 113.1 26.4 C 113.15 26.38 113.1 29.3 113.1 29.3 L 112.5 29.3 C 112.5 29.3 112.45 26.55 112.5 26.5 C 112.5 25.7 112 25.1 111.2 25.1 C 110.4 25.1 109.8 25.7 109.8 26.6 C 109.77 26.6 109.8 29.3 109.8 29.3 L 109.1 29.3 L 109.1 24.6 Z M 125.8 24.6 L 126.5 24.6 C 126.5 24.6 126.49 25.42 126.5 25.4 C 126.8 24.9 127.3 24.5 128.1 24.5 C 129.2 24.5 129.9 25.3 129.9 26.4 C 129.86 26.38 129.9 29.3 129.9 29.3 L 129.2 29.3 C 129.2 29.3 129.17 26.55 129.2 26.5 C 129.2 25.7 128.7 25.1 127.9 25.1 C 127.1 25.1 126.5 25.7 126.5 26.6 C 126.49 26.6 126.5 29.3 126.5 29.3 L 125.8 29.3 L 125.8 24.6 Z M 131.2 30.1 C 131.2 30.1 131.5 29.5 131.5 29.5 C 132 29.9 132.6 30.1 133.3 30.1 C 134.3 30.1 135 29.6 135 28.5 C 135 28.5 135 27.9 135 27.9 C 134.6 28.5 134 28.9 133.2 28.9 C 132 28.9 131 28.1 131 26.7 C 131 26.7 131 26.7 131 26.7 C 131 25.3 132.1 24.5 133.2 24.5 C 134 24.5 134.6 24.9 135 25.4 C 134.98 25.45 135 24.6 135 24.6 L 135.7 24.6 C 135.7 24.6 135.68 28.46 135.7 28.5 C 135.7 29.2 135.5 29.7 135.1 30.1 C 134.7 30.5 134 30.7 133.3 30.7 C 132.5 30.7 131.8 30.5 131.2 30.1 Z M 135 26.7 C 135 26.7 135 26.7 135 26.7 C 135 25.7 134.2 25.1 133.3 25.1 C 132.4 25.1 131.7 25.7 131.7 26.7 C 131.7 26.7 131.7 26.7 131.7 26.7 C 131.7 27.6 132.4 28.3 133.3 28.3 C 134.2 28.3 135 27.7 135 26.7 Z M 148.5 23 L 149.2 23 L 151.5 26.4 L 153.8 23 L 154.5 23 L 154.5 29.3 L 153.8 29.3 L 153.8 24.2 L 151.5 27.5 L 151.5 27.5 L 149.2 24.2 L 149.2 29.3 L 148.5 29.3 L 148.5 23 Z M 155.8 27 C 155.8 27 155.8 26.9 155.8 26.9 C 155.8 25.6 156.9 24.5 158.3 24.5 C 159.7 24.5 160.7 25.6 160.7 26.9 C 160.7 26.9 160.7 26.9 160.7 26.9 C 160.7 28.3 159.6 29.4 158.2 29.4 C 156.8 29.4 155.8 28.3 155.8 27 Z M 160 27 C 160 27 160 26.9 160 26.9 C 160 25.9 159.2 25.1 158.2 25.1 C 157.2 25.1 156.5 25.9 156.5 26.9 C 156.5 26.9 156.5 26.9 156.5 26.9 C 156.5 27.9 157.3 28.8 158.3 28.8 C 159.3 28.8 160 27.9 160 27 Z M 162.5 28.4 C 162.54 28.37 162.5 29.3 162.5 29.3 L 161.8 29.3 L 161.8 22.7 L 162.5 22.7 C 162.5 22.7 162.54 25.55 162.5 25.5 C 162.9 25 163.5 24.5 164.3 24.5 C 165.4 24.5 166.5 25.4 166.5 26.9 C 166.5 26.9 166.5 26.9 166.5 26.9 C 166.5 28.5 165.4 29.4 164.3 29.4 C 163.5 29.4 162.9 28.9 162.5 28.4 Z M 165.8 27 C 165.8 27 165.8 26.9 165.8 26.9 C 165.8 25.8 165.1 25.1 164.2 25.1 C 163.3 25.1 162.5 25.9 162.5 26.9 C 162.5 26.9 162.5 26.9 162.5 26.9 C 162.5 28 163.3 28.7 164.2 28.7 C 165.1 28.7 165.8 28.1 165.8 27 Z M 167.7 22.8 L 168.5 22.8 L 168.5 23.6 L 167.7 23.6 L 167.7 22.8 Z M 167.8 24.6 L 168.5 24.6 L 168.5 29.3 L 167.8 29.3 L 167.8 24.6 Z M 170.1 22.7 L 170.8 22.7 L 170.8 29.3 L 170.1 29.3 L 170.1 22.7 Z M 172 27 C 172 27 172 26.9 172 26.9 C 172 25.6 172.9 24.5 174.2 24.5 C 175.6 24.5 176.4 25.6 176.4 27 C 176.4 27.1 176.4 27.1 176.4 27.2 C 176.4 27.2 172.7 27.2 172.7 27.2 C 172.8 28.2 173.5 28.8 174.3 28.8 C 175 28.8 175.4 28.5 175.8 28.1 C 175.8 28.1 176.2 28.5 176.2 28.5 C 175.8 29 175.2 29.4 174.3 29.4 C 173 29.4 172 28.4 172 27 Z M 175.7 26.7 C 175.6 25.8 175.1 25.1 174.2 25.1 C 173.4 25.1 172.8 25.8 172.7 26.7 C 172.7 26.7 175.7 26.7 175.7 26.7 Z M 188.9 23 L 189.6 23 L 189.6 28.6 L 193.2 28.6 L 193.2 29.3 L 188.9 29.3 L 188.9 23 Z M 193.9 27 C 193.9 27 193.9 26.9 193.9 26.9 C 193.9 25.6 194.8 24.5 196.1 24.5 C 197.5 24.5 198.3 25.6 198.3 27 C 198.3 27.1 198.3 27.1 198.3 27.2 C 198.3 27.2 194.6 27.2 194.6 27.2 C 194.7 28.2 195.4 28.8 196.2 28.8 C 196.9 28.8 197.3 28.5 197.7 28.1 C 197.7 28.1 198.1 28.5 198.1 28.5 C 197.7 29 197.1 29.4 196.2 29.4 C 194.9 29.4 193.9 28.4 193.9 27 Z M 197.6 26.7 C 197.5 25.8 197 25.1 196.1 25.1 C 195.3 25.1 194.7 25.8 194.6 26.7 C 194.6 26.7 197.6 26.7 197.6 26.7 Z M 199.4 30.1 C 199.4 30.1 199.7 29.5 199.7 29.5 C 200.2 29.9 200.8 30.1 201.5 30.1 C 202.5 30.1 203.2 29.6 203.2 28.5 C 203.2 28.5 203.2 27.9 203.2 27.9 C 202.8 28.5 202.2 28.9 201.3 28.9 C 200.2 28.9 199.1 28.1 199.1 26.7 C 199.1 26.7 199.1 26.7 199.1 26.7 C 199.1 25.3 200.2 24.5 201.3 24.5 C 202.2 24.5 202.8 24.9 203.1 25.4 C 203.15 25.45 203.1 24.6 203.1 24.6 L 203.8 24.6 C 203.8 24.6 203.84 28.46 203.8 28.5 C 203.8 29.2 203.6 29.7 203.2 30.1 C 202.8 30.5 202.2 30.7 201.5 30.7 C 200.7 30.7 200 30.5 199.4 30.1 Z M 203.2 26.7 C 203.2 26.7 203.2 26.7 203.2 26.7 C 203.2 25.7 202.3 25.1 201.5 25.1 C 200.6 25.1 199.9 25.7 199.9 26.7 C 199.9 26.7 199.9 26.7 199.9 26.7 C 199.9 27.6 200.6 28.3 201.5 28.3 C 202.3 28.3 203.2 27.7 203.2 26.7 Z M 205 27 C 205 27 205 26.9 205 26.9 C 205 25.6 206 24.5 207.2 24.5 C 208.6 24.5 209.4 25.6 209.4 27 C 209.4 27.1 209.4 27.1 209.4 27.2 C 209.4 27.2 205.7 27.2 205.7 27.2 C 205.8 28.2 206.5 28.8 207.4 28.8 C 208 28.8 208.4 28.5 208.8 28.1 C 208.8 28.1 209.3 28.5 209.3 28.5 C 208.8 29 208.2 29.4 207.3 29.4 C 206.1 29.4 205 28.4 205 27 Z M 208.7 26.7 C 208.6 25.8 208.2 25.1 207.2 25.1 C 206.4 25.1 205.8 25.8 205.7 26.7 C 205.7 26.7 208.7 26.7 208.7 26.7 Z M 210.5 24.6 L 211.2 24.6 C 211.2 24.6 211.23 25.42 211.2 25.4 C 211.5 24.9 212 24.5 212.8 24.5 C 213.9 24.5 214.6 25.3 214.6 26.4 C 214.6 26.38 214.6 29.3 214.6 29.3 L 213.9 29.3 C 213.9 29.3 213.91 26.55 213.9 26.5 C 213.9 25.7 213.4 25.1 212.6 25.1 C 211.8 25.1 211.2 25.7 211.2 26.6 C 211.23 26.6 211.2 29.3 211.2 29.3 L 210.5 29.3 L 210.5 24.6 Z M 215.7 27 C 215.7 27 215.7 26.9 215.7 26.9 C 215.7 25.4 216.8 24.5 217.9 24.5 C 218.8 24.5 219.4 25 219.7 25.5 C 219.73 25.5 219.7 22.7 219.7 22.7 L 220.4 22.7 L 220.4 29.3 L 219.7 29.3 C 219.7 29.3 219.73 28.33 219.7 28.3 C 219.3 28.9 218.8 29.4 217.9 29.4 C 216.8 29.4 215.7 28.5 215.7 27 Z M 219.8 26.9 C 219.8 26.9 219.8 26.9 219.8 26.9 C 219.8 25.9 218.9 25.1 218.1 25.1 C 217.2 25.1 216.4 25.8 216.4 26.9 C 216.4 26.9 216.4 26.9 216.4 26.9 C 216.4 28 217.2 28.7 218.1 28.7 C 218.9 28.7 219.8 28 219.8 26.9 Z M 221.5 28.7 C 221.5 28.7 221.8 28.2 221.8 28.2 C 222.3 28.6 222.9 28.8 223.5 28.8 C 224 28.8 224.4 28.5 224.4 28 C 224.4 28 224.4 28 224.4 28 C 224.4 27.5 223.9 27.4 223.3 27.2 C 222.5 27 221.7 26.7 221.7 25.9 C 221.7 25.9 221.7 25.9 221.7 25.9 C 221.7 25.1 222.4 24.5 223.3 24.5 C 223.9 24.5 224.5 24.7 225 25 C 225 25 224.7 25.6 224.7 25.6 C 224.2 25.3 223.7 25.1 223.3 25.1 C 222.7 25.1 222.4 25.4 222.4 25.8 C 222.4 25.8 222.4 25.8 222.4 25.8 C 222.4 26.2 223 26.4 223.6 26.6 C 224.3 26.8 225.1 27.1 225.1 27.9 C 225.1 27.9 225.1 28 225.1 28 C 225.1 28.8 224.3 29.4 223.4 29.4 C 222.7 29.4 222 29.1 221.5 28.7 Z M 226.2 24.6 L 227.1 24.6 L 227.1 25.6 L 226.2 25.6 L 226.2 24.6 Z M 226.2 28.3 L 227.1 28.3 L 227.1 29.3 L 226.2 29.3 L 226.2 28.3 Z M 239.9 23 C 239.9 23 242.54 22.97 242.5 23 C 243.3 23 243.8 23.2 244.2 23.5 C 244.4 23.8 244.6 24.1 244.6 24.5 C 244.6 24.5 244.6 24.5 244.6 24.5 C 244.6 25.4 244.1 25.8 243.6 26 C 244.3 26.2 244.9 26.7 244.9 27.5 C 244.9 27.5 244.9 27.5 244.9 27.5 C 244.9 28.6 244 29.3 242.7 29.3 C 242.65 29.26 239.9 29.3 239.9 29.3 L 239.9 23 Z M 243.9 24.6 C 243.9 24 243.4 23.6 242.5 23.6 C 242.47 23.6 240.6 23.6 240.6 23.6 L 240.6 25.8 C 240.6 25.8 242.42 25.77 242.4 25.8 C 243.3 25.8 243.9 25.4 243.9 24.6 C 243.9 24.6 243.9 24.6 243.9 24.6 Z M 242.5 26.4 C 242.55 26.4 240.6 26.4 240.6 26.4 L 240.6 28.6 C 240.6 28.6 242.67 28.63 242.7 28.6 C 243.6 28.6 244.2 28.2 244.2 27.5 C 244.2 27.5 244.2 27.5 244.2 27.5 C 244.2 26.8 243.6 26.4 242.5 26.4 Z M 245.8 27.9 C 245.8 27.9 245.8 27.9 245.8 27.9 C 245.8 26.9 246.6 26.4 247.8 26.4 C 248.4 26.4 248.8 26.5 249.2 26.6 C 249.2 26.6 249.2 26.4 249.2 26.4 C 249.2 25.6 248.7 25.2 247.8 25.2 C 247.3 25.2 246.8 25.3 246.4 25.5 C 246.4 25.5 246.2 24.9 246.2 24.9 C 246.7 24.7 247.2 24.5 247.9 24.5 C 248.6 24.5 249.1 24.7 249.4 25.1 C 249.7 25.4 249.9 25.8 249.9 26.4 C 249.88 26.42 249.9 29.3 249.9 29.3 L 249.2 29.3 C 249.2 29.3 249.21 28.56 249.2 28.6 C 248.9 29 248.4 29.4 247.5 29.4 C 246.7 29.4 245.8 28.9 245.8 27.9 Z M 249.2 27.6 C 249.2 27.6 249.2 27.1 249.2 27.1 C 248.9 27 248.4 26.9 247.9 26.9 C 247 26.9 246.5 27.3 246.5 27.9 C 246.5 27.9 246.5 27.9 246.5 27.9 C 246.5 28.5 247 28.8 247.7 28.8 C 248.5 28.8 249.2 28.3 249.2 27.6 Z M 251.3 24.6 L 252 24.6 C 252 24.6 251.96 25.42 252 25.4 C 252.3 24.9 252.8 24.5 253.6 24.5 C 254.7 24.5 255.3 25.3 255.3 26.4 C 255.33 26.38 255.3 29.3 255.3 29.3 L 254.6 29.3 C 254.6 29.3 254.64 26.55 254.6 26.5 C 254.6 25.7 254.2 25.1 253.4 25.1 C 252.6 25.1 252 25.7 252 26.6 C 251.96 26.6 252 29.3 252 29.3 L 251.3 29.3 L 251.3 24.6 Z M 256.7 30.1 C 256.7 30.1 257 29.5 257 29.5 C 257.5 29.9 258.1 30.1 258.8 30.1 C 259.8 30.1 260.5 29.6 260.5 28.5 C 260.5 28.5 260.5 27.9 260.5 27.9 C 260.1 28.5 259.5 28.9 258.6 28.9 C 257.5 28.9 256.5 28.1 256.5 26.7 C 256.5 26.7 256.5 26.7 256.5 26.7 C 256.5 25.3 257.5 24.5 258.6 24.5 C 259.5 24.5 260.1 24.9 260.5 25.4 C 260.46 25.45 260.5 24.6 260.5 24.6 L 261.1 24.6 C 261.1 24.6 261.15 28.46 261.1 28.5 C 261.1 29.2 260.9 29.7 260.6 30.1 C 260.1 30.5 259.5 30.7 258.8 30.7 C 258 30.7 257.3 30.5 256.7 30.1 Z M 260.5 26.7 C 260.5 26.7 260.5 26.7 260.5 26.7 C 260.5 25.7 259.7 25.1 258.8 25.1 C 257.9 25.1 257.2 25.7 257.2 26.7 C 257.2 26.7 257.2 26.7 257.2 26.7 C 257.2 27.6 257.9 28.3 258.8 28.3 C 259.7 28.3 260.5 27.7 260.5 26.7 Z M 274 23 C 274 23 276.67 22.97 276.7 23 C 277.4 23 278 23.2 278.3 23.5 C 278.6 23.8 278.7 24.1 278.7 24.5 C 278.7 24.5 278.7 24.5 278.7 24.5 C 278.7 25.4 278.2 25.8 277.7 26 C 278.5 26.2 279.1 26.7 279.1 27.5 C 279.1 27.5 279.1 27.5 279.1 27.5 C 279.1 28.6 278.2 29.3 276.8 29.3 C 276.78 29.26 274 29.3 274 29.3 L 274 23 Z M 278 24.6 C 278 24 277.5 23.6 276.6 23.6 C 276.6 23.6 274.7 23.6 274.7 23.6 L 274.7 25.8 C 274.7 25.8 276.55 25.77 276.6 25.8 C 277.4 25.8 278 25.4 278 24.6 C 278 24.6 278 24.6 278 24.6 Z M 276.7 26.4 C 276.68 26.4 274.7 26.4 274.7 26.4 L 274.7 28.6 C 274.7 28.6 276.8 28.63 276.8 28.6 C 277.8 28.6 278.4 28.2 278.4 27.5 C 278.4 27.5 278.4 27.5 278.4 27.5 C 278.4 26.8 277.8 26.4 276.7 26.4 Z M 279.9 27.9 C 279.9 27.9 279.9 27.9 279.9 27.9 C 279.9 26.9 280.7 26.4 281.9 26.4 C 282.5 26.4 282.9 26.5 283.3 26.6 C 283.3 26.6 283.3 26.4 283.3 26.4 C 283.3 25.6 282.8 25.2 282 25.2 C 281.4 25.2 281 25.3 280.5 25.5 C 280.5 25.5 280.3 24.9 280.3 24.9 C 280.9 24.7 281.4 24.5 282 24.5 C 282.7 24.5 283.2 24.7 283.5 25.1 C 283.8 25.4 284 25.8 284 26.4 C 284.01 26.42 284 29.3 284 29.3 L 283.3 29.3 C 283.3 29.3 283.35 28.56 283.3 28.6 C 283 29 282.5 29.4 281.7 29.4 C 280.8 29.4 279.9 28.9 279.9 27.9 Z M 283.4 27.6 C 283.4 27.6 283.4 27.1 283.4 27.1 C 283 27 282.6 26.9 282 26.9 C 281.1 26.9 280.6 27.3 280.6 27.9 C 280.6 27.9 280.6 27.9 280.6 27.9 C 280.6 28.5 281.2 28.8 281.8 28.8 C 282.7 28.8 283.4 28.3 283.4 27.6 Z M 285.4 24.6 L 286.1 24.6 C 286.1 24.6 286.09 25.42 286.1 25.4 C 286.4 24.9 286.9 24.5 287.7 24.5 C 288.8 24.5 289.5 25.3 289.5 26.4 C 289.47 26.38 289.5 29.3 289.5 29.3 L 288.8 29.3 C 288.8 29.3 288.77 26.55 288.8 26.5 C 288.8 25.7 288.3 25.1 287.5 25.1 C 286.7 25.1 286.1 25.7 286.1 26.6 C 286.09 26.6 286.1 29.3 286.1 29.3 L 285.4 29.3 L 285.4 24.6 Z M 290.8 30.1 C 290.8 30.1 291.1 29.5 291.1 29.5 C 291.6 29.9 292.2 30.1 292.9 30.1 C 293.9 30.1 294.6 29.6 294.6 28.5 C 294.6 28.5 294.6 27.9 294.6 27.9 C 294.2 28.5 293.6 28.9 292.8 28.9 C 291.7 28.9 290.6 28.1 290.6 26.7 C 290.6 26.7 290.6 26.7 290.6 26.7 C 290.6 25.3 291.7 24.5 292.8 24.5 C 293.6 24.5 294.2 24.9 294.6 25.4 C 294.59 25.45 294.6 24.6 294.6 24.6 L 295.3 24.6 C 295.3 24.6 295.28 28.46 295.3 28.5 C 295.3 29.2 295.1 29.7 294.7 30.1 C 294.3 30.5 293.7 30.7 292.9 30.7 C 292.1 30.7 291.4 30.5 290.8 30.1 Z M 294.6 26.7 C 294.6 26.7 294.6 26.7 294.6 26.7 C 294.6 25.7 293.8 25.1 292.9 25.1 C 292 25.1 291.3 25.7 291.3 26.7 C 291.3 26.7 291.3 26.7 291.3 26.7 C 291.3 27.6 292 28.3 292.9 28.3 C 293.8 28.3 294.6 27.7 294.6 26.7 Z " stroke="none" fill="#fff"/>
  </g>
</svg>