<?xml version="1.0" standalone="no"?>
<!DOCTYPE svg PUBLIC "-//W3C//DTD SVG 1.1//EN" "http://www.w3.org/Graphics/SVG/1.1/DTD/svg11.dtd">
<svg xmlns="http://www.w3.org/2000/svg" version="1.1" width="30px" height="24.8px" viewBox="0 -5 30 24.8" style="top:-5px">
  <desc>9</desc>
  <defs/>
  <g id="Polygon22253">
    <path d="M 8.2 3.8 C 8.2 8 4.6 10.7 2.7 11.5 C 2.6 11.6 2.6 11.6 2.4 11.6 C 2.4 11.6 2.3 11.5 2.3 11.4 C 2.3 11.3 2.4 11.2 2.5 11.2 C 4 10.2 6.4 7.8 6.4 4.2 C 6.4 1.6 5.3 0.4 4.1 0.4 C 3 0.4 2.3 1.4 2.3 2.7 C 2.3 5 3.8 5.5 4.3 5.5 C 4.8 5.5 5.1 5.4 5.3 5.3 C 5.5 5.2 5.6 5.1 5.6 5.1 C 5.7 5.1 5.7 5.2 5.7 5.3 C 5.7 5.3 5.7 5.4 5.7 5.4 C 5.2 5.9 4.5 6.1 3.7 6.1 C 1.5 6.1 0.6 4.5 0.6 3.2 C 0.6 1.2 2.2 -0.3 4.5 -0.3 C 6.9 -0.3 8.2 1.5 8.2 3.8 Z " stroke="none" fill="#000"/>
  </g>
</svg>