<?xml version="1.0" standalone="no"?>
<!DOCTYPE svg PUBLIC "-//W3C//DTD SVG 1.1//EN" "http://www.w3.org/Graphics/SVG/1.1/DTD/svg11.dtd">
<svg xmlns="http://www.w3.org/2000/svg" version="1.1" width="218px" height="18px" viewBox="0 -3 218 18" style="top:-3px">
  <desc>at The Straits Times</desc>
  <defs/>
  <g id="Polygon39168">
    <path d="M 0.9 7.5 C 0.9 7.6 1 7.7 1 7.8 C 1.1 7.9 1.1 7.9 1.2 8 C 1.3 8 1.4 8 1.5 8.1 C 1.6 8.1 1.7 8.1 1.8 8.1 C 2 8.1 2.2 8 2.4 8 C 2.6 7.9 2.7 7.8 2.8 7.6 C 2.9 7.5 3 7.3 3.1 7.1 C 3.1 6.9 3.2 6.7 3.2 6.5 C 3.2 6.5 3.2 6.5 3.2 6.5 C 3.1 6.5 3 6.6 2.9 6.6 C 2.8 6.7 2.7 6.7 2.6 6.7 C 2.4 6.7 2.3 6.7 2.1 6.7 C 1.9 6.7 1.7 6.8 1.5 6.8 C 1.4 6.9 1.2 6.9 1.1 7.1 C 1 7.2 0.9 7.3 0.9 7.5 Z M 4 7.4 C 4 7.5 4 7.6 4 7.7 C 4 7.7 3.9 7.8 3.9 7.9 C 3.9 8 4 8 4 8 C 4 8.1 4.1 8.1 4.2 8.1 C 4.2 8.1 4.3 8.1 4.3 8.1 C 4.4 8.1 4.5 8 4.5 8 C 4.5 8 4.4 8.8 4.4 8.8 C 4.2 8.8 4.1 8.8 4 8.9 C 3.8 8.9 3.7 8.9 3.6 8.9 C 3.4 8.9 3.2 8.8 3.1 8.7 C 3 8.6 2.9 8.5 2.9 8.3 C 2.7 8.5 2.5 8.7 2.2 8.8 C 1.9 8.9 1.7 8.9 1.4 8.9 C 1.2 8.9 1 8.9 0.8 8.8 C 0.6 8.8 0.5 8.7 0.4 8.6 C 0.2 8.5 0.1 8.4 0 8.2 C 0 8 -0.1 7.9 -0.1 7.7 C -0.1 7.4 0 7.1 0.1 6.9 C 0.2 6.7 0.3 6.6 0.5 6.5 C 0.7 6.3 0.9 6.2 1.1 6.2 C 1.4 6.1 1.6 6.1 1.9 6.1 C 2.2 6 2.6 6 2.9 6 C 3.1 6 3.2 5.9 3.3 5.8 C 3.4 5.7 3.4 5.5 3.4 5.4 C 3.4 5.1 3.4 5 3.2 4.9 C 3 4.8 2.9 4.8 2.7 4.8 C 2.4 4.8 2.1 4.9 1.9 5 C 1.7 5.1 1.6 5.2 1.5 5.5 C 1.5 5.5 0.5 5.5 0.5 5.5 C 0.6 5.2 0.7 5 0.8 4.8 C 0.9 4.6 1.1 4.5 1.3 4.3 C 1.5 4.2 1.7 4.1 1.9 4.1 C 2.2 4 2.4 4 2.7 4 C 3.1 4 3.5 4 3.7 4.1 C 3.9 4.2 4.1 4.3 4.2 4.4 C 4.3 4.5 4.4 4.6 4.4 4.8 C 4.5 4.9 4.5 5 4.5 5.1 C 4.5 5.3 4.4 5.5 4.4 5.8 C 4.4 5.8 4 7.4 4 7.4 Z M 6.5 2.7 L 7.5 2.7 L 7.2 4.1 L 8.2 4.1 L 8 4.9 L 7.1 4.9 C 7.1 4.9 6.6 7.16 6.6 7.2 C 6.6 7.3 6.6 7.4 6.5 7.5 C 6.5 7.5 6.5 7.6 6.5 7.7 C 6.5 7.8 6.5 7.9 6.6 7.9 C 6.6 8 6.7 8 6.9 8 C 7 8 7 8 7.1 8 C 7.2 8 7.3 8 7.4 8 C 7.4 8 7.3 8.7 7.3 8.7 C 7.1 8.8 7 8.8 6.8 8.8 C 6.7 8.8 6.5 8.8 6.4 8.8 C 6.2 8.8 6.1 8.8 5.9 8.7 C 5.8 8.7 5.7 8.6 5.7 8.6 C 5.6 8.5 5.5 8.4 5.5 8.3 C 5.5 8.2 5.5 8.1 5.5 8 C 5.5 7.9 5.5 7.8 5.5 7.7 C 5.5 7.6 5.5 7.5 5.5 7.4 C 5.54 7.43 6.1 4.9 6.1 4.9 L 5.3 4.9 L 5.4 4.1 L 6.2 4.1 L 6.5 2.7 Z M 11.5 2.3 L 16.8 2.3 L 16.6 3.3 L 14.5 3.3 L 13.4 8.8 L 12.3 8.8 L 13.4 3.3 L 11.3 3.3 L 11.5 2.3 Z M 17.4 2.3 L 18.4 2.3 L 17.9 4.8 C 17.9 4.8 17.96 4.78 18 4.8 C 18.1 4.5 18.4 4.4 18.6 4.2 C 18.9 4.1 19.2 4 19.5 4 C 20 4 20.3 4.1 20.5 4.3 C 20.7 4.6 20.9 4.9 20.9 5.2 C 20.9 5.3 20.8 5.4 20.8 5.5 C 20.8 5.6 20.8 5.7 20.8 5.8 C 20.81 5.8 20.2 8.8 20.2 8.8 L 19.2 8.8 C 19.2 8.8 19.75 5.9 19.8 5.9 C 19.8 5.8 19.8 5.8 19.8 5.7 C 19.8 5.6 19.8 5.5 19.8 5.5 C 19.8 5.4 19.8 5.4 19.8 5.3 C 19.8 5.2 19.8 5.2 19.8 5.1 C 19.7 5 19.6 4.9 19.5 4.9 C 19.4 4.8 19.3 4.8 19.1 4.8 C 18.9 4.8 18.7 4.8 18.6 4.9 C 18.4 5 18.3 5.1 18.1 5.3 C 18 5.4 17.9 5.5 17.8 5.7 C 17.7 5.9 17.7 6.1 17.6 6.3 C 17.64 6.25 17.1 8.8 17.1 8.8 L 16.1 8.8 L 17.4 2.3 Z M 25.1 6 C 25.1 6 25.1 6 25.1 6 C 25.1 5.9 25.1 5.9 25.1 5.9 C 25.1 5.9 25.1 5.8 25.1 5.8 C 25.1 5.5 25 5.2 24.8 5.1 C 24.6 4.9 24.4 4.8 24.1 4.8 C 23.7 4.8 23.4 4.9 23.2 5.2 C 23 5.4 22.8 5.7 22.7 6 C 22.7 6 25.1 6 25.1 6 Z M 25.8 7.3 C 25.7 7.9 25.4 8.3 25 8.5 C 24.6 8.8 24.1 8.9 23.6 8.9 C 23.3 8.9 23 8.9 22.8 8.8 C 22.5 8.7 22.3 8.5 22.1 8.4 C 21.9 8.2 21.8 8 21.7 7.7 C 21.6 7.5 21.5 7.2 21.5 6.9 C 21.5 6.5 21.6 6.2 21.7 5.8 C 21.8 5.5 22 5.2 22.2 4.9 C 22.4 4.6 22.7 4.4 23 4.2 C 23.3 4.1 23.7 4 24.1 4 C 24.5 4 24.9 4.1 25.1 4.2 C 25.4 4.3 25.6 4.5 25.7 4.7 C 25.9 4.9 26 5.2 26 5.4 C 26.1 5.7 26.1 5.9 26.1 6.1 C 26.1 6.3 26.1 6.4 26.1 6.5 C 26.1 6.5 26.1 6.6 26.1 6.7 C 26.1 6.7 22.6 6.7 22.6 6.7 C 22.6 6.7 22.6 6.8 22.6 6.8 C 22.6 6.8 22.6 6.8 22.6 6.9 C 22.6 6.9 22.6 7 22.6 7 C 22.6 7.3 22.7 7.6 22.8 7.8 C 23 8 23.3 8.1 23.7 8.1 C 24 8.1 24.2 8 24.4 7.9 C 24.6 7.8 24.7 7.6 24.8 7.3 C 24.8 7.3 25.8 7.3 25.8 7.3 Z M 30.3 6.7 C 30.3 7.1 30.4 7.5 30.7 7.7 C 31 7.9 31.3 8 31.8 8 C 32 8 32.1 8 32.3 8 C 32.5 7.9 32.6 7.9 32.8 7.8 C 32.9 7.7 33 7.6 33.1 7.5 C 33.2 7.3 33.2 7.2 33.2 7 C 33.2 6.8 33.2 6.7 33.1 6.5 C 33 6.4 32.9 6.3 32.8 6.2 C 32.6 6.2 32.5 6.1 32.3 6 C 32.1 6 31.9 5.9 31.7 5.9 C 31.6 5.8 31.4 5.8 31.2 5.7 C 31 5.6 30.8 5.6 30.6 5.4 C 30.4 5.3 30.3 5.1 30.1 4.9 C 30 4.8 30 4.5 30 4.2 C 30 3.9 30 3.6 30.1 3.4 C 30.2 3.1 30.4 2.9 30.6 2.8 C 30.8 2.6 31 2.4 31.3 2.3 C 31.6 2.2 32 2.2 32.3 2.2 C 32.7 2.2 33 2.2 33.3 2.3 C 33.6 2.4 33.8 2.5 34.1 2.7 C 34.3 2.8 34.4 3 34.6 3.3 C 34.7 3.6 34.7 3.9 34.7 4.2 C 34.7 4.2 33.6 4.2 33.6 4.2 C 33.6 3.8 33.5 3.6 33.3 3.4 C 33.1 3.2 32.8 3.1 32.3 3.1 C 32.2 3.1 32.1 3.1 32 3.1 C 31.9 3.2 31.7 3.2 31.6 3.3 C 31.5 3.3 31.3 3.4 31.2 3.6 C 31.1 3.7 31.1 3.8 31.1 4.1 C 31.1 4.2 31.1 4.3 31.2 4.4 C 31.3 4.5 31.4 4.6 31.5 4.7 C 31.6 4.8 31.7 4.8 31.9 4.9 C 32.1 4.9 32.2 5 32.4 5 C 32.6 5.1 32.9 5.1 33.1 5.2 C 33.3 5.3 33.5 5.4 33.7 5.5 C 33.9 5.7 34.1 5.8 34.2 6 C 34.3 6.2 34.4 6.5 34.4 6.8 C 34.4 7.1 34.3 7.3 34.2 7.6 C 34.1 7.8 34 8.1 33.8 8.3 C 33.6 8.5 33.3 8.6 32.9 8.7 C 32.6 8.9 32.2 8.9 31.7 8.9 C 31.3 8.9 31 8.9 30.7 8.8 C 30.4 8.7 30.1 8.6 29.9 8.4 C 29.7 8.2 29.5 8 29.4 7.7 C 29.3 7.4 29.2 7.1 29.3 6.7 C 29.3 6.7 30.3 6.7 30.3 6.7 Z M 36.5 2.7 L 37.5 2.7 L 37.2 4.1 L 38.1 4.1 L 38 4.9 L 37 4.9 C 37 4.9 36.57 7.16 36.6 7.2 C 36.5 7.3 36.5 7.4 36.5 7.5 C 36.5 7.5 36.5 7.6 36.5 7.7 C 36.5 7.8 36.5 7.9 36.5 7.9 C 36.6 8 36.7 8 36.8 8 C 36.9 8 37 8 37.1 8 C 37.2 8 37.3 8 37.4 8 C 37.4 8 37.2 8.7 37.2 8.7 C 37.1 8.8 37 8.8 36.8 8.8 C 36.7 8.8 36.5 8.8 36.4 8.8 C 36.2 8.8 36 8.8 35.9 8.7 C 35.8 8.7 35.7 8.6 35.6 8.6 C 35.6 8.5 35.5 8.4 35.5 8.3 C 35.5 8.2 35.5 8.1 35.5 8 C 35.5 7.9 35.5 7.8 35.5 7.7 C 35.5 7.6 35.5 7.5 35.5 7.4 C 35.51 7.43 36 4.9 36 4.9 L 35.2 4.9 L 35.4 4.1 L 36.2 4.1 L 36.5 2.7 Z M 39 4.1 L 40 4.1 L 39.8 5 C 39.8 5 39.81 5.05 39.8 5 C 39.9 4.9 40 4.8 40.1 4.7 C 40.2 4.5 40.3 4.4 40.4 4.3 C 40.5 4.2 40.7 4.2 40.8 4.1 C 41 4 41.1 4 41.3 4 C 41.4 4 41.5 4 41.5 4 C 41.6 4 41.7 4 41.8 4 C 41.8 4 41.6 5 41.6 5 C 41.5 5 41.5 5 41.4 5 C 41.3 5 41.3 5 41.2 5 C 40.9 5 40.7 5 40.5 5.1 C 40.3 5.2 40.2 5.3 40 5.5 C 39.9 5.7 39.8 5.8 39.7 6 C 39.6 6.3 39.5 6.5 39.5 6.7 C 39.5 6.71 39.1 8.8 39.1 8.8 L 38 8.8 L 39 4.1 Z M 42.5 7.5 C 42.5 7.6 42.5 7.7 42.6 7.8 C 42.6 7.9 42.7 7.9 42.8 8 C 42.9 8 43 8 43 8.1 C 43.1 8.1 43.2 8.1 43.3 8.1 C 43.6 8.1 43.8 8 44 8 C 44.1 7.9 44.3 7.8 44.4 7.6 C 44.5 7.5 44.6 7.3 44.7 7.1 C 44.7 6.9 44.8 6.7 44.8 6.5 C 44.8 6.5 44.8 6.5 44.8 6.5 C 44.7 6.5 44.6 6.6 44.5 6.6 C 44.4 6.7 44.3 6.7 44.1 6.7 C 44 6.7 43.8 6.7 43.6 6.7 C 43.5 6.7 43.3 6.8 43.1 6.8 C 42.9 6.9 42.8 6.9 42.7 7.1 C 42.6 7.2 42.5 7.3 42.5 7.5 Z M 45.6 7.4 C 45.6 7.5 45.6 7.6 45.5 7.7 C 45.5 7.7 45.5 7.8 45.5 7.9 C 45.5 8 45.5 8 45.6 8 C 45.6 8.1 45.6 8.1 45.7 8.1 C 45.8 8.1 45.8 8.1 45.9 8.1 C 46 8.1 46 8 46.1 8 C 46.1 8 45.9 8.8 45.9 8.8 C 45.8 8.8 45.7 8.8 45.5 8.9 C 45.4 8.9 45.3 8.9 45.1 8.9 C 45 8.9 44.8 8.8 44.7 8.7 C 44.6 8.6 44.5 8.5 44.5 8.3 C 44.3 8.5 44.1 8.7 43.8 8.8 C 43.5 8.9 43.2 8.9 42.9 8.9 C 42.7 8.9 42.6 8.9 42.4 8.8 C 42.2 8.8 42.1 8.7 41.9 8.6 C 41.8 8.5 41.7 8.4 41.6 8.2 C 41.5 8 41.5 7.9 41.5 7.7 C 41.5 7.4 41.5 7.1 41.7 6.9 C 41.8 6.7 41.9 6.6 42.1 6.5 C 42.3 6.3 42.5 6.2 42.7 6.2 C 42.9 6.1 43.2 6.1 43.4 6.1 C 43.8 6 44.1 6 44.5 6 C 44.7 6 44.8 5.9 44.9 5.8 C 45 5.7 45 5.5 45 5.4 C 45 5.1 44.9 5 44.8 4.9 C 44.6 4.8 44.4 4.8 44.2 4.8 C 43.9 4.8 43.7 4.9 43.5 5 C 43.3 5.1 43.1 5.2 43.1 5.5 C 43.1 5.5 42.1 5.5 42.1 5.5 C 42.1 5.2 42.2 5 42.4 4.8 C 42.5 4.6 42.7 4.5 42.9 4.3 C 43 4.2 43.3 4.1 43.5 4.1 C 43.8 4 44 4 44.3 4 C 44.7 4 45 4 45.3 4.1 C 45.5 4.2 45.7 4.3 45.8 4.4 C 45.9 4.5 46 4.6 46 4.8 C 46 4.9 46 5 46 5.1 C 46 5.3 46 5.5 45.9 5.8 C 45.9 5.8 45.6 7.4 45.6 7.4 Z M 47.9 2.3 L 48.9 2.3 L 48.7 3.3 L 47.7 3.3 L 47.9 2.3 Z M 47.5 4.1 L 48.5 4.1 L 47.6 8.8 L 46.6 8.8 L 47.5 4.1 Z M 50.4 2.7 L 51.4 2.7 L 51.1 4.1 L 52 4.1 L 51.8 4.9 L 50.9 4.9 C 50.9 4.9 50.43 7.16 50.4 7.2 C 50.4 7.3 50.4 7.4 50.4 7.5 C 50.3 7.5 50.3 7.6 50.3 7.7 C 50.3 7.8 50.4 7.9 50.4 7.9 C 50.4 8 50.5 8 50.7 8 C 50.8 8 50.9 8 51 8 C 51.1 8 51.2 8 51.3 8 C 51.3 8 51.1 8.7 51.1 8.7 C 51 8.8 50.8 8.8 50.7 8.8 C 50.5 8.8 50.4 8.8 50.2 8.8 C 50.1 8.8 49.9 8.8 49.8 8.7 C 49.7 8.7 49.6 8.6 49.5 8.6 C 49.4 8.5 49.4 8.4 49.4 8.3 C 49.3 8.2 49.3 8.1 49.3 8 C 49.3 7.9 49.3 7.8 49.3 7.7 C 49.3 7.6 49.4 7.5 49.4 7.4 C 49.37 7.43 49.9 4.9 49.9 4.9 L 49.1 4.9 L 49.3 4.1 L 50.1 4.1 L 50.4 2.7 Z M 55.2 5.5 C 55.2 5.2 55.1 5.1 54.9 5 C 54.8 4.9 54.5 4.8 54.3 4.8 C 54.2 4.8 54.1 4.8 54 4.8 C 53.9 4.9 53.8 4.9 53.7 4.9 C 53.6 5 53.6 5 53.5 5.1 C 53.5 5.2 53.5 5.3 53.5 5.4 C 53.5 5.5 53.5 5.6 53.6 5.7 C 53.7 5.7 53.8 5.8 53.9 5.8 C 54 5.9 54.2 5.9 54.4 6 C 54.5 6 54.7 6.1 54.8 6.1 C 55 6.2 55.1 6.2 55.2 6.3 C 55.4 6.4 55.5 6.5 55.6 6.6 C 55.7 6.6 55.8 6.8 55.8 6.9 C 55.9 7 55.9 7.2 55.9 7.4 C 55.9 7.6 55.9 7.9 55.7 8.1 C 55.6 8.3 55.5 8.4 55.3 8.5 C 55.1 8.7 54.9 8.8 54.6 8.8 C 54.4 8.9 54.1 8.9 53.9 8.9 C 53.6 8.9 53.3 8.9 53.1 8.8 C 52.9 8.8 52.7 8.7 52.5 8.6 C 52.3 8.4 52.2 8.3 52.1 8.1 C 52 7.9 51.9 7.6 51.9 7.3 C 51.9 7.3 52.9 7.3 52.9 7.3 C 52.9 7.6 53 7.8 53.2 7.9 C 53.4 8 53.6 8.1 53.9 8.1 C 54 8.1 54.1 8.1 54.2 8.1 C 54.4 8 54.5 8 54.6 8 C 54.7 7.9 54.7 7.8 54.8 7.8 C 54.9 7.7 54.9 7.6 54.9 7.4 C 54.9 7.3 54.8 7.2 54.8 7.1 C 54.7 7.1 54.6 7 54.4 6.9 C 54.3 6.9 54.1 6.8 54 6.8 C 53.8 6.7 53.6 6.7 53.5 6.6 C 53.3 6.6 53.2 6.5 53.1 6.4 C 53 6.4 52.8 6.3 52.7 6.2 C 52.7 6.1 52.6 6 52.5 5.9 C 52.5 5.7 52.4 5.6 52.4 5.4 C 52.4 5.2 52.5 4.9 52.6 4.8 C 52.7 4.6 52.9 4.4 53 4.3 C 53.2 4.2 53.4 4.1 53.7 4.1 C 53.9 4 54.1 4 54.4 4 C 54.6 4 54.8 4 55.1 4.1 C 55.3 4.1 55.5 4.2 55.7 4.3 C 55.8 4.4 55.9 4.6 56 4.8 C 56.1 5 56.2 5.2 56.2 5.5 C 56.2 5.5 55.2 5.5 55.2 5.5 Z M 59.9 2.3 L 65.2 2.3 L 65 3.3 L 62.9 3.3 L 61.8 8.8 L 60.7 8.8 L 61.8 3.3 L 59.7 3.3 L 59.9 2.3 Z M 65.2 2.3 L 66.2 2.3 L 66 3.3 L 65 3.3 L 65.2 2.3 Z M 64.8 4.1 L 65.8 4.1 L 64.9 8.8 L 63.8 8.8 L 64.8 4.1 Z M 67.1 4.1 L 68.1 4.1 L 68 4.8 C 68 4.8 67.98 4.8 68 4.8 C 68.2 4.5 68.4 4.3 68.7 4.2 C 68.9 4.1 69.2 4 69.6 4 C 69.9 4 70.1 4.1 70.3 4.2 C 70.5 4.3 70.7 4.5 70.7 4.8 C 71 4.6 71.2 4.4 71.5 4.2 C 71.7 4.1 72 4 72.3 4 C 72.8 4 73.1 4.1 73.3 4.3 C 73.5 4.6 73.6 4.9 73.6 5.2 C 73.6 5.3 73.6 5.4 73.6 5.5 C 73.6 5.6 73.6 5.7 73.6 5.8 C 73.57 5.8 73 8.8 73 8.8 L 72 8.8 C 72 8.8 72.53 6.02 72.5 6 C 72.5 6 72.6 5.9 72.6 5.8 C 72.6 5.7 72.6 5.6 72.6 5.5 C 72.6 5.4 72.6 5.3 72.6 5.2 C 72.6 5.2 72.6 5.1 72.5 5 C 72.5 5 72.4 4.9 72.3 4.9 C 72.2 4.8 72.1 4.8 72 4.8 C 71.8 4.8 71.6 4.8 71.5 4.9 C 71.3 5 71.2 5.1 71.1 5.2 C 70.9 5.4 70.9 5.5 70.8 5.6 C 70.7 5.8 70.7 5.9 70.6 6.1 C 70.65 6.06 70.1 8.8 70.1 8.8 L 69.1 8.8 C 69.1 8.8 69.59 6.22 69.6 6.2 C 69.6 6.1 69.6 6 69.7 5.8 C 69.7 5.7 69.7 5.5 69.7 5.4 C 69.7 5.2 69.7 5.1 69.6 5 C 69.5 4.9 69.4 4.8 69.2 4.8 C 69 4.8 68.8 4.8 68.6 4.9 C 68.5 5 68.4 5.1 68.3 5.2 C 68.2 5.3 68.1 5.4 68 5.6 C 67.9 5.7 67.8 5.9 67.7 6.1 C 67.74 6.08 67.2 8.8 67.2 8.8 L 66.2 8.8 L 67.1 4.1 Z M 77.9 6 C 77.9 6 77.9 6 77.9 6 C 77.9 5.9 77.9 5.9 77.9 5.9 C 77.9 5.9 77.9 5.8 77.9 5.8 C 77.9 5.5 77.8 5.2 77.7 5.1 C 77.5 4.9 77.3 4.8 76.9 4.8 C 76.6 4.8 76.3 4.9 76 5.2 C 75.8 5.4 75.6 5.7 75.5 6 C 75.5 6 77.9 6 77.9 6 Z M 78.7 7.3 C 78.5 7.9 78.2 8.3 77.8 8.5 C 77.5 8.8 77 8.9 76.4 8.9 C 76.1 8.9 75.9 8.9 75.6 8.8 C 75.4 8.7 75.1 8.5 75 8.4 C 74.8 8.2 74.6 8 74.5 7.7 C 74.4 7.5 74.4 7.2 74.4 6.9 C 74.4 6.5 74.5 6.2 74.6 5.8 C 74.7 5.5 74.8 5.2 75.1 4.9 C 75.3 4.6 75.6 4.4 75.9 4.2 C 76.2 4.1 76.6 4 77 4 C 77.4 4 77.7 4.1 78 4.2 C 78.2 4.3 78.4 4.5 78.6 4.7 C 78.7 4.9 78.8 5.2 78.9 5.4 C 78.9 5.7 79 5.9 79 6.1 C 79 6.3 79 6.4 78.9 6.5 C 78.9 6.5 78.9 6.6 78.9 6.7 C 78.9 6.7 75.4 6.7 75.4 6.7 C 75.4 6.7 75.4 6.8 75.4 6.8 C 75.4 6.8 75.4 6.8 75.4 6.9 C 75.4 6.9 75.4 7 75.4 7 C 75.4 7.3 75.5 7.6 75.7 7.8 C 75.8 8 76.1 8.1 76.5 8.1 C 76.8 8.1 77 8 77.2 7.9 C 77.4 7.8 77.6 7.6 77.6 7.3 C 77.6 7.3 78.7 7.3 78.7 7.3 Z M 82.6 5.5 C 82.6 5.2 82.5 5.1 82.3 5 C 82.1 4.9 81.9 4.8 81.6 4.8 C 81.5 4.8 81.4 4.8 81.4 4.8 C 81.3 4.9 81.2 4.9 81.1 4.9 C 81 5 81 5 80.9 5.1 C 80.9 5.2 80.9 5.3 80.9 5.4 C 80.9 5.5 80.9 5.6 81 5.7 C 81.1 5.7 81.2 5.8 81.3 5.8 C 81.4 5.9 81.6 5.9 81.7 6 C 81.9 6 82.1 6.1 82.2 6.1 C 82.4 6.2 82.5 6.2 82.6 6.3 C 82.8 6.4 82.9 6.5 83 6.6 C 83.1 6.6 83.2 6.8 83.2 6.9 C 83.3 7 83.3 7.2 83.3 7.4 C 83.3 7.6 83.2 7.9 83.1 8.1 C 83 8.3 82.8 8.4 82.7 8.5 C 82.5 8.7 82.2 8.8 82 8.8 C 81.7 8.9 81.5 8.9 81.2 8.9 C 81 8.9 80.7 8.9 80.5 8.8 C 80.3 8.8 80 8.7 79.9 8.6 C 79.7 8.4 79.6 8.3 79.5 8.1 C 79.4 7.9 79.3 7.6 79.3 7.3 C 79.3 7.3 80.3 7.3 80.3 7.3 C 80.3 7.6 80.4 7.8 80.5 7.9 C 80.7 8 81 8.1 81.3 8.1 C 81.4 8.1 81.5 8.1 81.6 8.1 C 81.7 8 81.8 8 81.9 8 C 82 7.9 82.1 7.8 82.2 7.8 C 82.2 7.7 82.3 7.6 82.3 7.4 C 82.3 7.3 82.2 7.2 82.1 7.1 C 82.1 7.1 81.9 7 81.8 6.9 C 81.7 6.9 81.5 6.8 81.4 6.8 C 81.2 6.7 81 6.7 80.9 6.6 C 80.7 6.6 80.6 6.5 80.5 6.4 C 80.3 6.4 80.2 6.3 80.1 6.2 C 80 6.1 80 6 79.9 5.9 C 79.9 5.7 79.8 5.6 79.8 5.4 C 79.8 5.2 79.9 4.9 80 4.8 C 80.1 4.6 80.3 4.4 80.4 4.3 C 80.6 4.2 80.8 4.1 81 4.1 C 81.3 4 81.5 4 81.7 4 C 82 4 82.2 4 82.5 4.1 C 82.7 4.1 82.9 4.2 83 4.3 C 83.2 4.4 83.3 4.6 83.4 4.8 C 83.5 5 83.6 5.2 83.6 5.5 C 83.6 5.5 82.6 5.5 82.6 5.5 Z " stroke="none" fill="#fff"/>
  </g>
</svg>