<?xml version="1.0" standalone="no"?>
<!DOCTYPE svg PUBLIC "-//W3C//DTD SVG 1.1//EN" "http://www.w3.org/Graphics/SVG/1.1/DTD/svg11.dtd">
<svg xmlns="http://www.w3.org/2000/svg" version="1.1" width="310px" height="31.8px" viewBox="0 -7 310 31.8" style="top:-7px">
  <desc>Pag-arangkada tungo sa tagumpay:</desc>
  <defs/>
  <g id="Polygon14341">
    <path d="M 1.3 0.7 C 1.3 0.7 5.1 0.67 5.1 0.7 C 6.3 0.7 7.2 0.8 7.8 1 C 8.4 1.2 9 1.6 9.4 2.3 C 9.9 3 10.1 3.8 10.1 4.8 C 10.1 5.8 9.9 6.6 9.6 7.3 C 9.2 7.9 8.7 8.4 8.1 8.6 C 7.5 8.9 6.5 9.1 5.2 9.1 C 5.22 9.07 4.2 9.1 4.2 9.1 L 4.2 14 L 1.3 14 L 1.3 0.7 Z M 4.2 2.8 L 4.2 6.8 C 4.2 6.8 5.1 6.79 5.1 6.8 C 5.9 6.8 6.4 6.6 6.6 6.2 C 6.9 5.9 7 5.4 7 4.8 C 7 4.3 6.9 3.9 6.7 3.6 C 6.5 3.3 6.3 3.1 6.1 3 C 5.9 2.9 5.5 2.8 5.1 2.8 C 5.1 2.83 4.2 2.8 4.2 2.8 Z M 12.9 0.7 L 15.9 0.7 L 19.7 14 L 16.7 14 L 16 11.3 L 12.3 11.3 L 11.6 14 L 8.9 14 L 12.9 0.7 Z M 15.5 9 L 14.1 3.5 L 12.8 9 L 15.5 9 Z M 24.7 6.9 L 29.3 6.9 L 29.3 14 L 28.1 14 C 28.1 14 27.68 12.48 27.7 12.5 C 27 13.6 25.9 14.2 24.5 14.2 C 22.9 14.2 21.7 13.6 20.8 12.4 C 20 11.2 19.5 9.6 19.5 7.6 C 19.5 5.4 20 3.7 20.8 2.4 C 21.7 1.1 23 0.5 24.7 0.5 C 27.4 0.5 29 2 29.3 5 C 29.3 5 26.7 5.5 26.7 5.5 C 26.5 3.7 25.8 2.9 24.8 2.9 C 24.1 2.9 23.6 3.2 23.2 3.8 C 22.8 4.5 22.6 5.7 22.6 7.5 C 22.6 9.1 22.8 10.2 23.2 10.8 C 23.6 11.5 24.1 11.8 24.9 11.8 C 26.1 11.8 26.7 10.9 26.7 9.2 C 26.66 9.18 24.7 9.2 24.7 9.2 L 24.7 6.9 Z M 30.5 7.9 L 34.4 7.9 L 34.4 10 L 30.5 10 L 30.5 7.9 Z M 38.5 0.7 L 41.5 0.7 L 45.3 14 L 42.3 14 L 41.6 11.3 L 37.9 11.3 L 37.2 14 L 34.5 14 L 38.5 0.7 Z M 41.1 9 L 39.7 3.5 L 38.4 9 L 41.1 9 Z M 45.8 0.7 C 45.8 0.7 49.97 0.67 50 0.7 C 50.8 0.7 51.4 0.7 51.8 0.8 C 52.3 0.9 52.7 1.1 53.2 1.4 C 53.6 1.7 53.9 2.2 54.2 2.7 C 54.4 3.3 54.6 3.9 54.6 4.7 C 54.6 6.3 53.9 7.5 52.7 8.2 C 52.69 8.17 55.1 14 55.1 14 L 52 14 L 50.2 8.7 L 48.7 8.7 L 48.7 14 L 45.8 14 L 45.8 0.7 Z M 48.7 2.8 L 48.7 6.6 C 48.7 6.6 50 6.57 50 6.6 C 51.1 6.6 51.7 5.9 51.7 4.6 C 51.7 4.2 51.6 3.8 51.5 3.6 C 51.3 3.3 51.1 3.1 50.9 3 C 50.6 2.9 50.3 2.8 49.9 2.8 C 49.88 2.83 48.7 2.8 48.7 2.8 Z M 58.4 0.7 L 61.4 0.7 L 65.2 14 L 62.2 14 L 61.5 11.3 L 57.8 11.3 L 57.1 14 L 54.4 14 L 58.4 0.7 Z M 61 9 L 59.6 3.5 L 58.3 9 L 61 9 Z M 65.6 0.7 L 68.8 0.7 L 72.3 9 L 72.3 0.7 L 74.5 0.7 L 74.5 14 L 71.9 14 L 67.9 4.4 L 67.9 14 L 65.6 14 L 65.6 0.7 Z M 81 6.9 L 85.6 6.9 L 85.6 14 L 84.4 14 C 84.4 14 84.03 12.48 84 12.5 C 83.3 13.6 82.2 14.2 80.8 14.2 C 79.3 14.2 78.1 13.6 77.2 12.4 C 76.3 11.2 75.9 9.6 75.9 7.6 C 75.9 5.4 76.3 3.7 77.2 2.4 C 78.1 1.1 79.3 0.5 81.1 0.5 C 83.8 0.5 85.3 2 85.6 5 C 85.6 5 83 5.5 83 5.5 C 82.8 3.7 82.2 2.9 81.1 2.9 C 80.5 2.9 79.9 3.2 79.5 3.8 C 79.1 4.5 78.9 5.7 78.9 7.5 C 78.9 9.1 79.1 10.2 79.5 10.8 C 79.9 11.5 80.5 11.8 81.2 11.8 C 82.4 11.8 83 10.9 83 9.2 C 83.01 9.18 81 9.2 81 9.2 L 81 6.9 Z M 87.3 0.7 L 90.3 0.7 L 90.3 6.2 L 93.5 0.7 L 96.5 0.7 L 93.1 5.6 L 96.7 14 L 93.7 14 L 91.4 7.9 L 90.3 9.5 L 90.3 14 L 87.3 14 L 87.3 0.7 Z M 99.6 0.7 L 102.6 0.7 L 106.4 14 L 103.4 14 L 102.7 11.3 L 99 11.3 L 98.3 14 L 95.6 14 L 99.6 0.7 Z M 102.2 9 L 100.8 3.5 L 99.6 9 L 102.2 9 Z M 106.9 0.7 C 106.9 0.7 110.07 0.67 110.1 0.7 C 111.4 0.7 112.5 0.9 113.4 1.2 C 114.3 1.6 114.9 2.3 115.5 3.3 C 116 4.3 116.2 5.6 116.2 7.3 C 116.2 8.5 116.1 9.5 115.8 10.5 C 115.5 11.4 115 12.1 114.5 12.7 C 114 13.2 113.5 13.5 112.8 13.7 C 112.2 13.9 111.4 14 110.4 14 C 110.42 14 106.9 14 106.9 14 L 106.9 0.7 Z M 109.8 3 L 109.8 11.7 C 109.8 11.7 110.34 11.72 110.3 11.7 C 111 11.7 111.5 11.6 111.9 11.3 C 112.3 11.1 112.6 10.6 112.8 10 C 113 9.3 113.1 8.4 113.1 7.2 C 113.1 6 113 5.1 112.8 4.5 C 112.5 3.9 112.2 3.5 111.9 3.3 C 111.5 3.1 111 3 110.3 3 C 110.34 2.96 109.8 3 109.8 3 Z M 119.8 0.7 L 122.8 0.7 L 126.6 14 L 123.6 14 L 122.9 11.3 L 119.2 11.3 L 118.5 14 L 115.8 14 L 119.8 0.7 Z M 122.4 9 L 121 3.5 L 119.7 9 L 122.4 9 Z M 134.3 0.7 L 142.6 0.7 L 142.6 3.2 L 139.9 3.2 L 139.9 14 L 137 14 L 137 3.2 L 134.3 3.2 L 134.3 0.7 Z M 143 0.7 L 146 0.7 C 146 0.7 145.97 8.29 146 8.3 C 146 9.4 146 10.1 146.1 10.5 C 146.2 11 146.4 11.3 146.7 11.5 C 147 11.7 147.4 11.8 147.9 11.8 C 148.4 11.8 148.7 11.7 149 11.5 C 149.3 11.2 149.5 10.9 149.6 10.5 C 149.6 10.1 149.7 9.4 149.7 8.3 C 149.65 8.29 149.7 0.7 149.7 0.7 L 152.1 0.7 C 152.1 0.7 152.1 8.17 152.1 8.2 C 152.1 9.7 152 10.8 151.8 11.5 C 151.7 12.3 151.2 12.9 150.5 13.4 C 149.8 13.9 148.8 14.2 147.6 14.2 C 146.5 14.2 145.5 14 144.9 13.6 C 144.2 13.2 143.7 12.7 143.5 12 C 143.2 11.3 143 10.1 143 8.3 C 143.04 8.29 143 0.7 143 0.7 Z M 153.9 0.7 L 157.2 0.7 L 160.6 9 L 160.6 0.7 L 162.9 0.7 L 162.9 14 L 160.2 14 L 156.2 4.4 L 156.2 14 L 153.9 14 L 153.9 0.7 Z M 169.3 6.9 L 174 6.9 L 174 14 L 172.7 14 C 172.7 14 172.35 12.48 172.3 12.5 C 171.6 13.6 170.6 14.2 169.1 14.2 C 167.6 14.2 166.4 13.6 165.5 12.4 C 164.6 11.2 164.2 9.6 164.2 7.6 C 164.2 5.4 164.6 3.7 165.5 2.4 C 166.4 1.1 167.7 0.5 169.4 0.5 C 172.1 0.5 173.6 2 174 5 C 174 5 171.3 5.5 171.3 5.5 C 171.2 3.7 170.5 2.9 169.4 2.9 C 168.8 2.9 168.3 3.2 167.9 3.8 C 167.5 4.5 167.3 5.7 167.3 7.5 C 167.3 9.1 167.5 10.2 167.8 10.8 C 168.2 11.5 168.8 11.8 169.5 11.8 C 170.7 11.8 171.3 10.9 171.3 9.2 C 171.33 9.18 169.3 9.2 169.3 9.2 L 169.3 6.9 Z M 184.9 7.3 C 184.9 11.9 183.2 14.2 180 14.2 C 178.4 14.2 177.2 13.6 176.4 12.5 C 175.6 11.3 175.2 9.6 175.2 7.3 C 175.2 2.8 176.8 0.5 180 0.5 C 181.6 0.5 182.8 1 183.6 2.2 C 184.4 3.3 184.9 5 184.9 7.3 Z M 181.8 7.3 C 181.8 5.5 181.6 4.3 181.3 3.7 C 181.1 3.1 180.6 2.9 180 2.9 C 179.4 2.9 179 3.2 178.7 3.8 C 178.4 4.3 178.3 5.5 178.3 7.3 C 178.3 9.1 178.4 10.3 178.7 10.9 C 179 11.5 179.4 11.8 180 11.8 C 180.6 11.8 181.1 11.5 181.3 10.9 C 181.6 10.3 181.8 9.1 181.8 7.3 Z M 198.8 0.5 C 201.2 0.5 202.6 1.5 203.2 3.6 C 203.2 3.6 200.8 4.5 200.8 4.5 C 200.4 3.4 199.8 2.9 198.9 2.9 C 198.4 2.9 198.1 3 197.8 3.2 C 197.6 3.5 197.5 3.7 197.5 4.1 C 197.5 4.4 197.6 4.8 197.9 5 C 198.2 5.2 198.8 5.5 199.8 5.9 C 200.6 6.2 201.3 6.5 201.8 6.8 C 202.3 7.1 202.7 7.5 203 8.1 C 203.3 8.6 203.4 9.2 203.4 10 C 203.4 11.2 203 12.2 202.2 13 C 201.3 13.8 200.2 14.2 198.7 14.2 C 196.3 14.2 194.8 13 194.1 10.5 C 194.1 10.5 196.6 9.8 196.6 9.8 C 197 11.2 197.7 11.8 198.8 11.8 C 199.3 11.8 199.7 11.7 200 11.4 C 200.3 11.2 200.5 10.8 200.5 10.4 C 200.5 10.1 200.4 9.8 200.2 9.5 C 199.9 9.3 199.4 9 198.6 8.7 C 197.6 8.3 196.9 8 196.3 7.7 C 195.8 7.4 195.4 7 195.1 6.4 C 194.8 5.9 194.6 5.3 194.6 4.6 C 194.6 3.4 195 2.4 195.8 1.6 C 196.5 0.9 197.6 0.5 198.8 0.5 C 198.8 0.5 198.8 0.5 198.8 0.5 Z M 207.2 0.7 L 210.2 0.7 L 214 14 L 211 14 L 210.3 11.3 L 206.6 11.3 L 205.9 14 L 203.2 14 L 207.2 0.7 Z M 209.8 9 L 208.4 3.5 L 207.1 9 L 209.8 9 Z M 221.7 0.7 L 230 0.7 L 230 3.2 L 227.3 3.2 L 227.3 14 L 224.4 14 L 224.4 3.2 L 221.7 3.2 L 221.7 0.7 Z M 232.5 0.7 L 235.5 0.7 L 239.3 14 L 236.3 14 L 235.6 11.3 L 231.9 11.3 L 231.2 14 L 228.5 14 L 232.5 0.7 Z M 235.1 9 L 233.7 3.5 L 232.4 9 L 235.1 9 Z M 244.3 6.9 L 248.9 6.9 L 248.9 14 L 247.7 14 C 247.7 14 247.3 12.48 247.3 12.5 C 246.6 13.6 245.5 14.2 244.1 14.2 C 242.6 14.2 241.4 13.6 240.5 12.4 C 239.6 11.2 239.1 9.6 239.1 7.6 C 239.1 5.4 239.6 3.7 240.5 2.4 C 241.3 1.1 242.6 0.5 244.3 0.5 C 247.1 0.5 248.6 2 248.9 5 C 248.9 5 246.3 5.5 246.3 5.5 C 246.1 3.7 245.5 2.9 244.4 2.9 C 243.7 2.9 243.2 3.2 242.8 3.8 C 242.4 4.5 242.2 5.7 242.2 7.5 C 242.2 9.1 242.4 10.2 242.8 10.8 C 243.2 11.5 243.8 11.8 244.5 11.8 C 245.7 11.8 246.3 10.9 246.3 9.2 C 246.29 9.18 244.3 9.2 244.3 9.2 L 244.3 6.9 Z M 250.6 0.7 L 253.5 0.7 C 253.5 0.7 253.54 8.29 253.5 8.3 C 253.5 9.4 253.6 10.1 253.7 10.5 C 253.8 11 254 11.3 254.3 11.5 C 254.6 11.7 255 11.8 255.4 11.8 C 255.9 11.8 256.3 11.7 256.6 11.5 C 256.9 11.2 257.1 10.9 257.1 10.5 C 257.2 10.1 257.2 9.4 257.2 8.3 C 257.22 8.29 257.2 0.7 257.2 0.7 L 259.7 0.7 C 259.7 0.7 259.67 8.17 259.7 8.2 C 259.7 9.7 259.6 10.8 259.4 11.5 C 259.2 12.3 258.8 12.9 258.1 13.4 C 257.4 13.9 256.4 14.2 255.2 14.2 C 254 14.2 253.1 14 252.4 13.6 C 251.8 13.2 251.3 12.7 251 12 C 250.8 11.3 250.6 10.1 250.6 8.3 C 250.61 8.29 250.6 0.7 250.6 0.7 Z M 261.6 0.7 L 265.9 0.7 L 267.8 8.9 L 269.9 0.7 L 274.1 0.7 L 274.1 14 L 271.3 14 L 271.3 2.8 L 268.6 14 L 266.5 14 L 264 2.8 L 264 14 L 261.6 14 L 261.6 0.7 Z M 276 0.7 C 276 0.7 279.82 0.67 279.8 0.7 C 281 0.7 281.9 0.8 282.5 1 C 283.2 1.2 283.7 1.6 284.1 2.3 C 284.6 3 284.8 3.8 284.8 4.8 C 284.8 5.8 284.6 6.6 284.3 7.3 C 283.9 7.9 283.4 8.4 282.8 8.6 C 282.2 8.9 281.2 9.1 279.9 9.1 C 279.95 9.07 278.9 9.1 278.9 9.1 L 278.9 14 L 276 14 L 276 0.7 Z M 278.9 2.8 L 278.9 6.8 C 278.9 6.8 279.82 6.79 279.8 6.8 C 280.6 6.8 281.1 6.6 281.4 6.2 C 281.6 5.9 281.7 5.4 281.7 4.8 C 281.7 4.3 281.6 3.9 281.4 3.6 C 281.3 3.3 281.1 3.1 280.8 3 C 280.6 2.9 280.3 2.8 279.8 2.8 C 279.82 2.83 278.9 2.8 278.9 2.8 Z M 287.6 0.7 L 290.6 0.7 L 294.4 14 L 291.4 14 L 290.7 11.3 L 287 11.3 L 286.3 14 L 283.6 14 L 287.6 0.7 Z M 290.2 9 L 288.8 3.5 L 287.5 9 L 290.2 9 Z M 292.6 0.7 L 295.8 0.7 L 297.7 5.5 L 299.7 0.7 L 302.6 0.7 L 298.9 8.4 L 298.9 14 L 295.9 14 L 295.9 8.4 L 292.6 0.7 Z M 302.2 4.1 L 304.9 4.1 L 304.9 7.1 L 302.2 7.1 L 302.2 4.1 Z M 302.2 11.1 L 304.9 11.1 L 304.9 14 L 302.2 14 L 302.2 11.1 Z " stroke="none" fill="#000"/>
  </g>
</svg>