<?xml version="1.0" standalone="no"?>
<!DOCTYPE svg PUBLIC "-//W3C//DTD SVG 1.1//EN" "http://www.w3.org/Graphics/SVG/1.1/DTD/svg11.dtd">
<svg xmlns="http://www.w3.org/2000/svg" version="1.1" width="149px" height="807.6px" viewBox="0 -11 149 807.6" style="top:-11px">
  <desc> </desc>
  <defs/>
  <g id="Polygon21576">
    <path d="M -204.7 -6.3 C -204.74 -6.34 -204 -7.8 -204 -7.8 L -203.4 -7.8 L -203.1 -1.7 C -203.1 -1.7 -203.8 -1.71 -203.8 -1.7 C -204.3 -3.4 -204.8 -4.7 -205.5 -5.5 C -206.4 -6.5 -207.4 -7 -208.5 -7 C -209.8 -7 -210.8 -6.5 -211.6 -5.3 C -212.4 -4.2 -212.8 -2.3 -212.8 0.4 C -212.8 2.7 -212.4 4.4 -211.5 5.6 C -210.7 6.7 -209.6 7.2 -208.2 7.2 C -207 7.2 -205.9 6.8 -205.1 6 C -204.3 5.2 -203.7 4 -203.5 2.4 C -203.5 2.4 -202.7 2.4 -202.7 2.4 C -202.9 4.2 -203.6 5.6 -204.6 6.6 C -205.6 7.5 -206.9 8 -208.5 8 C -209.7 8 -210.9 7.7 -211.9 7.1 C -213 6.4 -213.8 5.5 -214.5 4.3 C -215.1 3.1 -215.4 1.8 -215.4 0.4 C -215.4 -1.1 -215.1 -2.5 -214.5 -3.8 C -213.8 -5.2 -213 -6.2 -211.9 -6.8 C -210.9 -7.5 -209.8 -7.8 -208.7 -7.8 C -208 -7.8 -207.4 -7.7 -206.7 -7.5 C -206.1 -7.3 -205.5 -6.9 -204.7 -6.3 Z M -193.7 -7.8 C -192.4 -7.8 -191.2 -7.5 -190.1 -6.8 C -189 -6.2 -188.1 -5.2 -187.5 -4 C -186.8 -2.8 -186.5 -1.4 -186.5 0.1 C -186.5 1.6 -186.8 2.9 -187.5 4.2 C -188.1 5.4 -189 6.3 -190.1 7 C -191.2 7.7 -192.4 8 -193.6 8 C -194.8 8 -196 7.7 -197 7 C -198.1 6.4 -199 5.4 -199.6 4.2 C -200.3 2.9 -200.6 1.5 -200.6 0 C -200.6 -1.5 -200.3 -2.8 -199.6 -4 C -199 -5.2 -198.2 -6.1 -197.1 -6.8 C -196 -7.5 -194.9 -7.8 -193.7 -7.8 Z M -193.5 -7 C -194.9 -7 -195.9 -6.5 -196.8 -5.4 C -197.6 -4.3 -198 -2.5 -198 0 C -198 2.7 -197.6 4.6 -196.7 5.7 C -195.9 6.7 -194.8 7.2 -193.6 7.2 C -192.7 7.2 -191.9 7 -191.3 6.5 C -190.6 6 -190.1 5.3 -189.7 4.3 C -189.3 3.2 -189.1 1.9 -189.1 0.2 C -189.1 -1.6 -189.3 -3 -189.7 -4 C -190 -5.1 -190.5 -5.8 -191.2 -6.3 C -191.9 -6.8 -192.7 -7 -193.5 -7 Z M -185.5 -7.5 L -179.1 -7.5 L -179.1 -6.8 C -179.1 -6.8 -180.2 -6.75 -180.2 -6.8 C -180.7 -6.8 -181 -6.7 -181.1 -6.6 C -181.3 -6.5 -181.4 -6.3 -181.4 -6.1 C -181.4 -6 -181.3 -5.8 -181.2 -5.5 C -181.19 -5.52 -181.1 -5.3 -181.1 -5.3 L -177.1 4.9 C -177.1 4.9 -173.58 -4.84 -173.6 -4.8 C -173.5 -5 -173.5 -5.3 -173.5 -5.5 C -173.5 -5.9 -173.6 -6.2 -173.8 -6.4 C -174 -6.6 -174.3 -6.8 -174.7 -6.8 C -174.73 -6.75 -175.8 -6.8 -175.8 -6.8 L -175.8 -7.5 L -170.2 -7.5 L -170.2 -6.8 C -170.2 -6.8 -170.62 -6.75 -170.6 -6.8 C -171 -6.8 -171.3 -6.6 -171.6 -6.3 C -172 -5.9 -172.3 -5.4 -172.6 -4.7 C -172.56 -4.68 -177.2 8 -177.2 8 L -178 8 C -178 8 -183.35 -5.55 -183.4 -5.6 C -183.5 -6 -183.8 -6.3 -184 -6.5 C -184.2 -6.7 -184.6 -6.8 -185 -6.8 C -184.99 -6.75 -185.5 -6.8 -185.5 -6.8 L -185.5 -7.5 Z M -169.4 -7.5 L -162.4 -7.5 L -162.4 -6.8 C -162.4 -6.8 -163.65 -6.75 -163.6 -6.8 C -164.2 -6.8 -164.5 -6.7 -164.7 -6.6 C -164.8 -6.4 -164.9 -6.1 -164.9 -5.7 C -164.9 -5.7 -164.9 5.8 -164.9 5.8 C -164.9 6.2 -164.8 6.5 -164.7 6.6 C -164.5 6.8 -164.2 6.9 -163.8 6.9 C -163.79 6.88 -162.4 6.9 -162.4 6.9 L -162.4 7.6 L -169.4 7.6 L -169.4 6.9 C -169.4 6.9 -168.12 6.88 -168.1 6.9 C -167.7 6.9 -167.4 6.8 -167.2 6.7 C -167.1 6.5 -167 6.2 -167 5.8 C -167 5.8 -167 -5.7 -167 -5.7 C -167 -6.1 -167.1 -6.4 -167.2 -6.5 C -167.4 -6.7 -167.7 -6.8 -168.3 -6.8 C -168.25 -6.75 -169.4 -6.8 -169.4 -6.8 L -169.4 -7.5 Z M -161 -7.5 C -161 -7.5 -153.12 -7.52 -153.1 -7.5 C -152 -7.5 -151 -7.3 -150.2 -6.9 C -149.1 -6.4 -148.3 -5.5 -147.6 -4.3 C -146.9 -3.1 -146.5 -1.7 -146.5 0 C -146.5 1.4 -146.7 2.6 -147.1 3.7 C -147.5 4.5 -148 5.3 -148.6 5.9 C -149.3 6.5 -150.1 7 -151.1 7.3 C -151.8 7.5 -152.7 7.6 -153.9 7.6 C -153.94 7.64 -161 7.6 -161 7.6 L -161 6.9 C -161 6.9 -159.52 6.88 -159.5 6.9 C -159.2 6.9 -158.9 6.8 -158.8 6.7 C -158.6 6.6 -158.6 6.4 -158.6 6.2 C -158.6 6.2 -158.6 -6.1 -158.6 -6.1 C -158.6 -6.3 -158.6 -6.4 -158.8 -6.6 C -158.9 -6.7 -159.1 -6.8 -159.4 -6.8 C -159.4 -6.75 -161 -6.8 -161 -6.8 L -161 -7.5 Z M -155.5 -6.8 C -155.8 -6.8 -156 -6.7 -156.1 -6.6 C -156.3 -6.4 -156.4 -6.2 -156.4 -6 C -156.4 -6 -156.4 6.1 -156.4 6.1 C -156.4 6.4 -156.3 6.6 -156.1 6.7 C -155.9 6.8 -155.6 6.9 -155.2 6.9 C -155.2 6.9 -153.9 6.9 -153.9 6.9 C -152.8 6.9 -151.8 6.6 -150.9 6 C -150.3 5.6 -149.9 5 -149.6 4.3 C -149.2 3.3 -149 2 -149 0.3 C -149 -2.2 -149.4 -4.1 -150.3 -5.3 C -151.1 -6.3 -152.2 -6.8 -153.7 -6.8 C -153.7 -6.8 -155.5 -6.8 -155.5 -6.8 Z M -143.9 -1.2 L -139.8 -1.2 L -139.8 0.3 L -143.9 0.3 L -143.9 -1.2 Z M -131.2 -6.6 C -131.2 -6.6 -131.2 6.22 -131.2 6.2 C -131.2 6.4 -131.1 6.6 -131 6.7 C -130.8 6.8 -130.6 6.9 -130.3 6.9 C -130.27 6.88 -128.3 6.9 -128.3 6.9 L -128.3 7.6 L -135.7 7.6 L -135.7 6.9 C -135.7 6.9 -133.96 6.88 -134 6.9 C -133.6 6.9 -133.3 6.8 -133.2 6.6 C -133 6.5 -132.9 6.2 -132.9 6 C -132.9 6 -132.9 -3.7 -132.9 -3.7 C -132.9 -3.9 -133 -4.1 -133.2 -4.2 C -133.3 -4.4 -133.5 -4.4 -133.8 -4.4 C -133.76 -4.42 -136 -4.4 -136 -4.4 C -136 -4.4 -136.03 -5.13 -136 -5.1 C -135 -5.3 -134.1 -5.5 -133.4 -5.7 C -132.8 -5.9 -132.2 -6.2 -131.7 -6.6 C -131.68 -6.58 -131.2 -6.6 -131.2 -6.6 Z M -117.8 0.3 C -118.3 1 -118.8 1.5 -119.4 1.8 C -120 2.1 -120.7 2.3 -121.4 2.3 C -122.4 2.3 -123.4 1.9 -124.2 1.2 C -125 0.5 -125.5 -0.5 -125.5 -1.9 C -125.5 -3.3 -125 -4.5 -124.1 -5.4 C -123.1 -6.4 -122 -6.8 -120.7 -6.8 C -119.3 -6.8 -118.2 -6.3 -117.2 -5.1 C -116.3 -3.9 -115.8 -2.3 -115.8 -0.1 C -115.8 1.6 -116.1 3.1 -116.6 4.3 C -117.1 5.6 -117.8 6.5 -118.7 7 C -119.5 7.6 -120.5 7.9 -121.6 7.9 C -122.6 7.9 -123.4 7.7 -124 7.2 C -124.6 6.8 -124.9 6.2 -124.9 5.6 C -124.9 5.2 -124.8 4.8 -124.5 4.6 C -124.3 4.3 -124 4.2 -123.6 4.2 C -123.3 4.2 -123 4.3 -122.8 4.5 C -122.5 4.7 -122.4 5 -122.4 5.3 C -122.4 5.5 -122.5 5.8 -122.7 6.1 C -122.9 6.2 -122.9 6.4 -122.9 6.5 C -122.9 6.7 -122.8 6.9 -122.6 7 C -122.4 7.1 -122 7.2 -121.5 7.2 C -120.8 7.2 -120.2 7 -119.6 6.6 C -119.1 6.2 -118.7 5.6 -118.3 4.7 C -118 3.8 -117.8 2.6 -117.8 1.2 C -117.8 1.2 -117.8 0.3 -117.8 0.3 Z M -120.7 -6.1 C -121.5 -6.1 -122.1 -5.8 -122.6 -5.1 C -123.1 -4.5 -123.3 -3.5 -123.3 -2.3 C -123.3 -1.1 -123.1 -0.2 -122.6 0.4 C -122.1 0.9 -121.5 1.2 -120.7 1.2 C -119.9 1.2 -119.2 0.9 -118.7 0.3 C -118.2 -0.3 -117.9 -1.2 -117.9 -2.3 C -117.9 -3.5 -118.2 -4.4 -118.7 -5.1 C -119.3 -5.8 -119.9 -6.1 -120.7 -6.1 Z M -110.7 7.4 C -110.7 8.7 -111.6 10 -113.3 11.2 C -113.3 11.2 -113.6 10.7 -113.6 10.7 C -112.3 9.7 -111.7 8.8 -111.7 8.1 C -111.7 8 -111.7 7.9 -111.7 7.8 C -111.7 7.8 -111.8 7.8 -111.9 7.8 C -111.9 7.8 -112.1 7.8 -112.1 7.8 C -112.2 7.8 -112.3 7.8 -112.4 7.8 C -112.7 7.8 -113 7.7 -113.2 7.5 C -113.5 7.2 -113.6 6.9 -113.6 6.6 C -113.6 6.3 -113.5 6 -113.2 5.7 C -113 5.5 -112.7 5.4 -112.3 5.4 C -111.9 5.4 -111.5 5.6 -111.2 5.9 C -110.9 6.3 -110.7 6.8 -110.7 7.4 C -110.7 7.4 -110.7 7.4 -110.7 7.4 Z M -99.7 -7.7 C -99.7 -7.7 -99.65 -0.55 -99.7 -0.5 C -99.2 -1.1 -98.8 -1.5 -98.3 -1.8 C -97.8 -2.1 -97.3 -2.3 -96.7 -2.3 C -95.6 -2.3 -94.6 -1.8 -93.8 -0.9 C -93.1 0 -92.7 1.1 -92.7 2.6 C -92.7 4.1 -93.1 5.4 -93.9 6.3 C -94.8 7.3 -95.8 7.8 -97 7.8 C -97.6 7.8 -98.2 7.7 -98.6 7.4 C -99.1 7.2 -99.6 6.8 -100.1 6.3 C -100.5 6.9 -100.9 7.4 -101.2 7.8 C -101.2 7.8 -101.7 7.6 -101.7 7.6 C -101.5 6.9 -101.4 6 -101.4 5.2 C -101.4 5.2 -101.4 -5.7 -101.4 -5.7 C -101.4 -6 -101.5 -6.3 -101.7 -6.5 C -102 -6.7 -102.3 -6.8 -102.7 -6.8 C -102.72 -6.75 -103.1 -6.8 -103.1 -6.8 L -103.1 -7.5 L -99.7 -7.7 Z M -97.1 -1.3 C -97.8 -1.3 -98.5 -1 -99 -0.3 C -99.4 0.3 -99.7 1.5 -99.7 3 C -99.7 4.5 -99.4 5.5 -99 6.2 C -98.5 6.8 -97.9 7.1 -97.1 7.1 C -96.4 7.1 -95.8 6.8 -95.4 6.2 C -94.9 5.4 -94.6 4.3 -94.6 2.8 C -94.6 1.3 -94.8 0.3 -95.3 -0.4 C -95.8 -1 -96.4 -1.3 -97.1 -1.3 Z M -88.5 -7.7 C -88.2 -7.7 -87.9 -7.6 -87.7 -7.3 C -87.4 -7.1 -87.3 -6.8 -87.3 -6.5 C -87.3 -6.2 -87.4 -6 -87.6 -5.7 C -87.9 -5.5 -88.1 -5.4 -88.5 -5.4 C -88.8 -5.4 -89 -5.5 -89.3 -5.7 C -89.5 -6 -89.6 -6.2 -89.6 -6.5 C -89.6 -6.8 -89.5 -7.1 -89.3 -7.3 C -89 -7.6 -88.8 -7.7 -88.5 -7.7 Z M -91.1 -2 L -87.3 -2.1 C -87.3 -2.1 -87.31 6.19 -87.3 6.2 C -87.3 6.4 -87.3 6.6 -87.1 6.7 C -87 6.8 -86.8 6.9 -86.5 6.9 C -86.55 6.88 -85.5 6.9 -85.5 6.9 L -85.5 7.6 L -90.9 7.6 L -90.9 6.9 C -90.9 6.9 -89.91 6.88 -89.9 6.9 C -89.6 6.9 -89.4 6.8 -89.3 6.7 C -89.1 6.5 -89 6.3 -89 6 C -89 6 -89 0 -89 0 C -89 -0.4 -89.1 -0.7 -89.4 -0.9 C -89.6 -1.1 -89.9 -1.2 -90.3 -1.2 C -90.34 -1.19 -91.1 -1.2 -91.1 -1.2 L -91.1 -2 Z M -84.3 -2 C -84.3 -2 -81.14 -2.16 -81.1 -2.2 C -81 -1.6 -80.9 -0.9 -80.9 0 C -80.4 -0.7 -79.9 -1.3 -79.3 -1.6 C -78.8 -2 -78.1 -2.1 -77.4 -2.1 C -76.7 -2.1 -76.2 -2 -75.8 -1.8 C -75.3 -1.5 -75 -1.1 -74.7 -0.6 C -74.5 0 -74.3 0.6 -74.3 1.2 C -74.3 1.2 -74.3 5.9 -74.3 5.9 C -74.3 6.3 -74.2 6.5 -74.1 6.7 C -73.9 6.8 -73.7 6.9 -73.3 6.9 C -73.3 6.88 -72.6 6.9 -72.6 6.9 L -72.6 7.6 L -77.7 7.6 L -77.7 6.9 C -77.7 6.9 -77.21 6.88 -77.2 6.9 C -76.8 6.9 -76.4 6.8 -76.3 6.7 C -76.1 6.5 -76 6.3 -76 6 C -76 6 -76 1.9 -76 1.9 C -76 1 -76.1 0.3 -76.4 -0.1 C -76.8 -0.7 -77.4 -1 -78.2 -1 C -78.9 -1 -79.6 -0.7 -80.1 -0.1 C -80.6 0.5 -80.9 1.4 -80.9 2.4 C -80.9 2.4 -80.9 5.9 -80.9 5.9 C -80.9 6.3 -80.8 6.5 -80.6 6.7 C -80.5 6.8 -80.2 6.9 -79.8 6.9 C -79.82 6.88 -79.2 6.9 -79.2 6.9 L -79.2 7.6 L -84.2 7.6 L -84.2 6.9 C -84.2 6.9 -83.58 6.88 -83.6 6.9 C -83.2 6.9 -83 6.8 -82.8 6.7 C -82.6 6.5 -82.5 6.4 -82.5 6.2 C -82.5 6.2 -82.5 0 -82.5 0 C -82.5 -0.5 -82.7 -0.8 -82.9 -1 C -83.1 -1.2 -83.4 -1.3 -83.8 -1.3 C -83.84 -1.3 -84.3 -1.3 -84.3 -1.3 L -84.3 -2 Z M -69 -7.7 C -68.7 -7.7 -68.4 -7.6 -68.2 -7.3 C -68 -7.1 -67.9 -6.8 -67.9 -6.5 C -67.9 -6.2 -68 -6 -68.2 -5.7 C -68.4 -5.5 -68.7 -5.4 -69 -5.4 C -69.3 -5.4 -69.6 -5.5 -69.8 -5.7 C -70.1 -6 -70.2 -6.2 -70.2 -6.5 C -70.2 -6.8 -70.1 -7.1 -69.8 -7.3 C -69.6 -7.6 -69.3 -7.7 -69 -7.7 Z M -71.7 -2 L -67.9 -2.1 C -67.9 -2.1 -67.87 6.19 -67.9 6.2 C -67.9 6.4 -67.8 6.6 -67.7 6.7 C -67.5 6.8 -67.3 6.9 -67.1 6.9 C -67.11 6.88 -66 6.9 -66 6.9 L -66 7.6 L -71.5 7.6 L -71.5 6.9 C -71.5 6.9 -70.47 6.88 -70.5 6.9 C -70.2 6.9 -69.9 6.8 -69.8 6.7 C -69.7 6.5 -69.6 6.3 -69.6 6 C -69.6 6 -69.6 0 -69.6 0 C -69.6 -0.4 -69.7 -0.7 -69.9 -0.9 C -70.1 -1.1 -70.5 -1.2 -70.9 -1.2 C -70.9 -1.19 -71.7 -1.2 -71.7 -1.2 L -71.7 -2 Z M -57.5 -1.4 C -56.8 -2.1 -56.2 -2.5 -55.6 -2.5 C -55.3 -2.5 -55 -2.3 -54.8 -2.1 C -54.6 -1.9 -54.5 -1.6 -54.5 -1.3 C -54.5 -1.1 -54.5 -0.9 -54.7 -0.7 C -54.8 -0.5 -55 -0.4 -55.2 -0.4 C -55.6 -0.4 -55.9 -0.7 -56 -1.2 C -56.1 -1.4 -56.2 -1.5 -56.3 -1.5 C -56.5 -1.5 -56.8 -1.3 -57 -1 C -56.8 -0.6 -56.6 -0.3 -56.4 0 C -56.3 0.3 -56.3 0.7 -56.3 1 C -56.3 1.6 -56.4 2.1 -56.7 2.6 C -57 3 -57.5 3.4 -58.1 3.8 C -58.8 4.1 -59.4 4.3 -60.1 4.3 C -60.1 4.3 -61.2 4.3 -61.2 4.3 C -62 4.3 -62.5 4.4 -62.7 4.5 C -63 4.7 -63.1 5 -63.1 5.3 C -63.1 5.6 -63 5.8 -62.8 5.9 C -62.6 6.1 -62.2 6.1 -61.6 6.1 C -61.6 6.1 -59.1 6.1 -59.1 6.1 C -57.8 6.1 -56.9 6.3 -56.3 6.7 C -55.8 7.1 -55.5 7.7 -55.5 8.5 C -55.5 9.3 -55.8 10 -56.4 10.5 C -57.3 11.3 -58.7 11.7 -60.5 11.7 C -61.9 11.7 -63 11.5 -63.7 10.9 C -64.3 10.5 -64.6 10 -64.6 9.5 C -64.6 9.1 -64.4 8.7 -64 8.4 C -63.7 8.1 -63.1 7.8 -62.2 7.6 C -62.9 7.5 -63.4 7.2 -63.7 6.9 C -64.1 6.6 -64.3 6.2 -64.3 5.7 C -64.3 5.3 -64.1 4.9 -63.8 4.6 C -63.6 4.3 -63.1 4 -62.4 3.8 C -63 3.4 -63.4 3 -63.7 2.6 C -64 2.1 -64.2 1.6 -64.2 1 C -64.2 0.1 -63.8 -0.7 -63.1 -1.3 C -62.3 -1.9 -61.4 -2.3 -60.2 -2.3 C -59.7 -2.3 -59.3 -2.2 -58.8 -2 C -58.4 -1.9 -57.9 -1.7 -57.5 -1.4 Z M -60.2 -1.6 C -60.8 -1.6 -61.3 -1.4 -61.7 -0.9 C -62.1 -0.5 -62.3 0.2 -62.3 1 C -62.3 1.8 -62.1 2.5 -61.7 3 C -61.3 3.4 -60.8 3.7 -60.2 3.7 C -59.6 3.7 -59.1 3.4 -58.7 3 C -58.3 2.5 -58.1 1.9 -58.1 1 C -58.1 0.2 -58.3 -0.4 -58.7 -0.9 C -59.1 -1.4 -59.6 -1.6 -60.2 -1.6 Z M -59.6 7.7 C -60.9 7.7 -61.8 7.8 -62.3 8.2 C -62.9 8.5 -63.1 8.9 -63.1 9.4 C -63.1 9.9 -62.9 10.3 -62.5 10.5 C -62 10.9 -61.2 11.1 -60.2 11.1 C -59.1 11.1 -58.2 10.9 -57.6 10.5 C -57 10.1 -56.7 9.7 -56.7 9.2 C -56.7 8.9 -56.8 8.6 -57 8.4 C -57.2 8.2 -57.4 8 -57.8 7.8 C -58.3 7.7 -58.8 7.7 -59.6 7.7 Z M -53.8 -2 L -49.2 -2 L -49.2 -1.3 C -49.2 -1.3 -49.66 -1.27 -49.7 -1.3 C -50.1 -1.3 -50.3 -1.2 -50.5 -1.1 C -50.6 -1 -50.7 -0.8 -50.7 -0.7 C -50.7 -0.6 -50.7 -0.5 -50.6 -0.4 C -50.64 -0.38 -48 5.4 -48 5.4 C -48 5.4 -45.97 0.6 -46 0.6 C -45.8 0.3 -45.8 -0.1 -45.8 -0.4 C -45.8 -0.7 -45.9 -0.9 -46.1 -1 C -46.3 -1.1 -46.7 -1.2 -47.2 -1.3 C -47.25 -1.27 -47.2 -2 -47.2 -2 L -43.2 -2 C -43.2 -2 -43.25 -1.27 -43.2 -1.3 C -44 -1.2 -44.5 -0.8 -44.8 -0.2 C -44.8 -0.2 -48.4 8 -48.4 8 C -49 9.4 -49.6 10.4 -50.2 10.9 C -50.8 11.5 -51.5 11.7 -52.2 11.7 C -52.7 11.7 -53.1 11.6 -53.4 11.3 C -53.7 11 -53.9 10.7 -53.9 10.3 C -53.9 10 -53.8 9.7 -53.6 9.5 C -53.4 9.3 -53.1 9.2 -52.9 9.2 C -52.6 9.2 -52.4 9.3 -52.2 9.5 C -52 9.7 -51.9 9.9 -51.9 10.1 C -51.9 10.2 -51.9 10.3 -52 10.4 C -52 10.5 -52 10.6 -52 10.6 C -52 10.8 -51.9 10.9 -51.7 10.9 C -51.5 10.9 -51.2 10.8 -50.9 10.6 C -50.6 10.5 -50.4 10.2 -50.1 9.8 C -49.9 9.5 -49.5 8.7 -48.8 7.4 C -48.8 7.4 -52.5 -0.4 -52.5 -0.4 C -52.6 -0.7 -52.8 -0.9 -53 -1 C -53.2 -1.1 -53.5 -1.2 -53.8 -1.3 C -53.83 -1.27 -53.8 -2 -53.8 -2 Z M -33 6.9 C -32.8 6.9 -32.5 6.8 -32.2 6.6 C -32.2 6.6 -31.8 7.2 -31.8 7.2 C -32.3 7.7 -32.9 7.9 -33.5 7.9 C -33.9 7.9 -34.3 7.8 -34.6 7.6 C -35 7.3 -35.2 6.9 -35.5 6.2 C -36.1 6.9 -36.7 7.4 -37.2 7.6 C -37.7 7.8 -38.3 7.9 -39 7.9 C -40 7.9 -40.7 7.7 -41.2 7.3 C -41.7 6.9 -42 6.3 -42 5.7 C -42 4.7 -41.4 3.8 -40.2 3.2 C -39.1 2.5 -37.5 2.1 -35.5 1.9 C -35.5 1.9 -35.5 0.4 -35.5 0.4 C -35.5 -0.1 -35.8 -0.6 -36.2 -0.9 C -36.6 -1.3 -37.1 -1.5 -37.8 -1.5 C -38.4 -1.5 -38.9 -1.4 -39.3 -1.1 C -39.6 -0.9 -39.8 -0.7 -39.8 -0.6 C -39.8 -0.5 -39.7 -0.3 -39.5 -0.1 C -39.3 0.2 -39.2 0.4 -39.2 0.6 C -39.2 0.9 -39.3 1.2 -39.5 1.4 C -39.7 1.6 -40 1.7 -40.3 1.7 C -40.6 1.7 -40.9 1.6 -41.1 1.3 C -41.4 1.1 -41.5 0.8 -41.5 0.4 C -41.5 -0.2 -41.1 -0.8 -40.3 -1.4 C -39.6 -2 -38.6 -2.3 -37.4 -2.3 C -36.2 -2.3 -35.3 -2 -34.7 -1.5 C -34.1 -1 -33.8 -0.4 -33.8 0.3 C -33.8 0.3 -33.8 5.6 -33.8 5.6 C -33.8 6 -33.8 6.4 -33.6 6.6 C -33.5 6.8 -33.3 6.9 -33 6.9 C -33 6.9 -33 6.9 -33 6.9 Z M -35.5 2.5 C -37.3 2.8 -38.5 3.2 -39.2 3.7 C -39.8 4.1 -40 4.7 -40 5.5 C -40 6 -39.9 6.4 -39.6 6.7 C -39.3 7 -39 7.1 -38.5 7.1 C -37.7 7.1 -37 6.8 -36.4 6.2 C -35.8 5.6 -35.5 4.8 -35.5 3.9 C -35.5 3.9 -35.5 2.5 -35.5 2.5 Z M -30.7 -2 C -30.7 -2 -27.47 -2.16 -27.5 -2.2 C -27.3 -1.6 -27.2 -0.9 -27.2 0 C -26.7 -0.7 -26.2 -1.3 -25.7 -1.6 C -25.1 -2 -24.4 -2.1 -23.7 -2.1 C -23 -2.1 -22.5 -2 -22.1 -1.8 C -21.6 -1.5 -21.3 -1.1 -21 -0.6 C -20.8 0 -20.6 0.6 -20.6 1.2 C -20.6 1.2 -20.6 5.9 -20.6 5.9 C -20.6 6.3 -20.6 6.5 -20.4 6.7 C -20.3 6.8 -20 6.9 -19.6 6.9 C -19.62 6.88 -18.9 6.9 -18.9 6.9 L -18.9 7.6 L -24 7.6 L -24 6.9 C -24 6.9 -23.53 6.88 -23.5 6.9 C -23.1 6.9 -22.8 6.8 -22.6 6.7 C -22.4 6.5 -22.3 6.3 -22.3 6 C -22.3 6 -22.3 1.9 -22.3 1.9 C -22.3 1 -22.5 0.3 -22.7 -0.1 C -23.1 -0.7 -23.7 -1 -24.5 -1 C -25.2 -1 -25.9 -0.7 -26.4 -0.1 C -26.9 0.5 -27.2 1.4 -27.2 2.4 C -27.2 2.4 -27.2 5.9 -27.2 5.9 C -27.2 6.3 -27.1 6.5 -26.9 6.7 C -26.8 6.8 -26.5 6.9 -26.1 6.9 C -26.14 6.88 -25.5 6.9 -25.5 6.9 L -25.5 7.6 L -30.6 7.6 L -30.6 6.9 C -30.6 6.9 -29.9 6.88 -29.9 6.9 C -29.6 6.9 -29.3 6.8 -29.1 6.7 C -29 6.5 -28.9 6.4 -28.9 6.2 C -28.9 6.2 -28.9 0 -28.9 0 C -28.9 -0.5 -29 -0.8 -29.2 -1 C -29.4 -1.2 -29.7 -1.3 -30.2 -1.3 C -30.16 -1.3 -30.7 -1.3 -30.7 -1.3 L -30.7 -2 Z M -10.5 -1.4 C -9.8 -2.1 -9.2 -2.5 -8.6 -2.5 C -8.2 -2.5 -8 -2.3 -7.7 -2.1 C -7.5 -1.9 -7.4 -1.6 -7.4 -1.3 C -7.4 -1.1 -7.5 -0.9 -7.6 -0.7 C -7.8 -0.5 -8 -0.4 -8.2 -0.4 C -8.5 -0.4 -8.8 -0.7 -8.9 -1.2 C -9 -1.4 -9.1 -1.5 -9.2 -1.5 C -9.5 -1.5 -9.7 -1.3 -10 -1 C -9.7 -0.6 -9.5 -0.3 -9.4 0 C -9.3 0.3 -9.2 0.7 -9.2 1 C -9.2 1.6 -9.4 2.1 -9.6 2.6 C -9.9 3 -10.4 3.4 -11.1 3.8 C -11.7 4.1 -12.4 4.3 -13 4.3 C -13 4.3 -14.1 4.3 -14.1 4.3 C -14.9 4.3 -15.4 4.4 -15.7 4.5 C -15.9 4.7 -16.1 5 -16.1 5.3 C -16.1 5.6 -16 5.8 -15.8 5.9 C -15.5 6.1 -15.1 6.1 -14.6 6.1 C -14.6 6.1 -12 6.1 -12 6.1 C -10.7 6.1 -9.8 6.3 -9.3 6.7 C -8.7 7.1 -8.4 7.7 -8.4 8.5 C -8.4 9.3 -8.7 10 -9.4 10.5 C -10.3 11.3 -11.6 11.7 -13.4 11.7 C -14.9 11.7 -15.9 11.5 -16.7 10.9 C -17.2 10.5 -17.5 10 -17.5 9.5 C -17.5 9.1 -17.3 8.7 -17 8.4 C -16.6 8.1 -16 7.8 -15.2 7.6 C -15.8 7.5 -16.3 7.2 -16.7 6.9 C -17 6.6 -17.2 6.2 -17.2 5.7 C -17.2 5.3 -17.1 4.9 -16.8 4.6 C -16.5 4.3 -16 4 -15.3 3.8 C -15.9 3.4 -16.4 3 -16.6 2.6 C -16.9 2.1 -17.1 1.6 -17.1 1 C -17.1 0.1 -16.7 -0.7 -16 -1.3 C -15.3 -1.9 -14.3 -2.3 -13.1 -2.3 C -12.7 -2.3 -12.2 -2.2 -11.8 -2 C -11.3 -1.9 -10.9 -1.7 -10.5 -1.4 Z M -13.2 -1.6 C -13.8 -1.6 -14.3 -1.4 -14.7 -0.9 C -15.1 -0.5 -15.3 0.2 -15.3 1 C -15.3 1.8 -15.1 2.5 -14.7 3 C -14.3 3.4 -13.8 3.7 -13.2 3.7 C -12.5 3.7 -12 3.4 -11.6 3 C -11.2 2.5 -11 1.9 -11 1 C -11 0.2 -11.2 -0.4 -11.6 -0.9 C -12 -1.4 -12.6 -1.6 -13.2 -1.6 Z M -12.6 7.7 C -13.8 7.7 -14.7 7.8 -15.2 8.2 C -15.8 8.5 -16.1 8.9 -16.1 9.4 C -16.1 9.9 -15.9 10.3 -15.4 10.5 C -14.9 10.9 -14.2 11.1 -13.2 11.1 C -12 11.1 -11.1 10.9 -10.5 10.5 C -9.9 10.1 -9.6 9.7 -9.6 9.2 C -9.6 8.9 -9.7 8.6 -9.9 8.4 C -10.1 8.2 -10.4 8 -10.8 7.8 C -11.2 7.7 -11.8 7.7 -12.6 7.7 Z M -5.8 -1.2 L -1.7 -1.2 L -1.7 0.3 L -5.8 0.3 L -5.8 -1.2 Z M 2 -2.7 C 2.6 -3.4 2.9 -4.5 3 -5.9 C 2.98 -5.88 3.7 -5.9 3.7 -5.9 L 3.7 -2 L 6.8 -2 L 6.8 -1 L 3.7 -1 C 3.7 -1 3.67 5.14 3.7 5.1 C 3.7 5.7 3.8 6.1 4 6.4 C 4.3 6.7 4.6 6.8 5 6.8 C 5.5 6.8 5.9 6.6 6.2 6.1 C 6.5 5.7 6.7 5 6.8 4 C 6.8 4 7.5 4 7.5 4 C 7.4 5.3 7.1 6.2 6.6 6.9 C 6 7.5 5.3 7.8 4.5 7.8 C 3.7 7.8 3.1 7.6 2.6 7.1 C 2.2 6.7 2 6.1 2 5.4 C 1.95 5.43 2 -1 2 -1 L 0.3 -1 C 0.3 -1 0.28 -1.74 0.3 -1.7 C 1 -1.9 1.6 -2.2 2 -2.7 C 2 -2.7 2 -2.7 2 -2.7 Z M 11.9 -2.1 C 11.9 -2.1 11.91 4.23 11.9 4.2 C 11.9 5 12.1 5.6 12.5 6 C 12.9 6.5 13.4 6.7 14 6.7 C 14.8 6.7 15.4 6.4 16 5.7 C 16.5 5.1 16.8 4.4 16.8 3.4 C 16.8 3.4 16.8 -0.2 16.8 -0.2 C 16.8 -0.5 16.7 -0.8 16.4 -0.9 C 16.2 -1.1 15.7 -1.2 15.1 -1.2 C 15.06 -1.25 15.1 -2 15.1 -2 L 18.4 -2.1 C 18.4 -2.1 18.43 5.75 18.4 5.7 C 18.4 6.1 18.5 6.4 18.7 6.6 C 18.9 6.8 19.2 6.9 19.6 6.9 C 19.6 6.88 20.2 6.9 20.2 6.9 L 20.2 7.6 L 17 7.6 C 17 7.6 16.77 5.75 16.8 5.7 C 16.2 6.4 15.6 6.9 15 7.3 C 14.5 7.6 13.9 7.8 13.3 7.8 C 12.4 7.8 11.7 7.5 11.1 6.9 C 10.5 6.3 10.2 5.4 10.2 4 C 10.2 4 10.2 -0.2 10.2 -0.2 C 10.2 -0.5 10.1 -0.8 9.8 -1 C 9.6 -1.2 9.1 -1.2 8.5 -1.2 C 8.51 -1.25 8.5 -2 8.5 -2 L 11.9 -2.1 Z M 26 -2.3 C 27.3 -2.3 28.4 -1.8 29.2 -0.9 C 30.1 0.1 30.6 1.3 30.6 2.8 C 30.6 3.9 30.4 4.8 30 5.5 C 29.6 6.3 29 6.9 28.3 7.3 C 27.6 7.7 26.8 7.9 25.9 7.9 C 24.7 7.9 23.6 7.5 22.8 6.5 C 21.9 5.6 21.5 4.4 21.5 2.8 C 21.5 1.3 21.9 0.1 22.8 -0.8 C 23.6 -1.8 24.7 -2.3 26 -2.3 Z M 26 -1.5 C 25.2 -1.5 24.6 -1.2 24.1 -0.5 C 23.6 0.2 23.4 1.3 23.4 2.8 C 23.4 4.3 23.6 5.4 24.1 6.1 C 24.6 6.9 25.2 7.2 26 7.2 C 26.8 7.2 27.4 6.9 27.9 6.1 C 28.4 5.4 28.7 4.3 28.7 2.7 C 28.7 1.2 28.4 0.1 27.9 -0.5 C 27.4 -1.2 26.8 -1.5 26 -1.5 Z M 31.9 -2 C 31.9 -2 35.13 -2.16 35.1 -2.2 C 35.3 -1.6 35.4 -0.9 35.4 0 C 35.9 -0.7 36.4 -1.3 36.9 -1.6 C 37.5 -2 38.2 -2.1 38.9 -2.1 C 39.6 -2.1 40.1 -2 40.5 -1.8 C 41 -1.5 41.3 -1.1 41.6 -0.6 C 41.8 0 42 0.6 42 1.2 C 42 1.2 42 5.9 42 5.9 C 42 6.3 42 6.5 42.2 6.7 C 42.3 6.8 42.6 6.9 43 6.9 C 42.98 6.88 43.7 6.9 43.7 6.9 L 43.7 7.6 L 38.6 7.6 L 38.6 6.9 C 38.6 6.9 39.07 6.88 39.1 6.9 C 39.5 6.9 39.8 6.8 40 6.7 C 40.2 6.5 40.3 6.3 40.3 6 C 40.3 6 40.3 1.9 40.3 1.9 C 40.3 1 40.1 0.3 39.9 -0.1 C 39.5 -0.7 38.9 -1 38.1 -1 C 37.4 -1 36.7 -0.7 36.2 -0.1 C 35.7 0.5 35.4 1.4 35.4 2.4 C 35.4 2.4 35.4 5.9 35.4 5.9 C 35.4 6.3 35.5 6.5 35.7 6.7 C 35.8 6.8 36.1 6.9 36.5 6.9 C 36.46 6.88 37.1 6.9 37.1 6.9 L 37.1 7.6 L 32 7.6 L 32 6.9 C 32 6.9 32.7 6.88 32.7 6.9 C 33 6.9 33.3 6.8 33.5 6.7 C 33.6 6.5 33.7 6.4 33.7 6.2 C 33.7 6.2 33.7 0 33.7 0 C 33.7 -0.5 33.6 -0.8 33.4 -1 C 33.2 -1.2 32.9 -1.3 32.4 -1.3 C 32.44 -1.3 31.9 -1.3 31.9 -1.3 L 31.9 -2 Z " stroke="none" fill="#000"/>
  </g>
  <g id="Polygon21575">
    <path d="M -288.8 -31.5 C -288.8 -31.5 -281.37 -31.52 -281.4 -31.5 C -279.7 -31.5 -278.4 -31.1 -277.5 -30.4 C -276.6 -29.6 -276.2 -28.6 -276.2 -27.4 C -276.2 -26.1 -276.6 -25.2 -277.4 -24.5 C -278.5 -23.6 -279.9 -23.2 -281.6 -23.2 C -281.56 -23.19 -284.3 -23.2 -284.3 -23.2 C -284.3 -23.2 -284.26 -18.02 -284.3 -18 C -284.3 -17.7 -284.2 -17.5 -284 -17.4 C -283.9 -17.2 -283.6 -17.1 -283.3 -17.1 C -283.28 -17.12 -281.6 -17.1 -281.6 -17.1 L -281.6 -16.4 L -288.8 -16.4 L -288.8 -17.1 C -288.8 -17.1 -287.32 -17.12 -287.3 -17.1 C -287 -17.1 -286.8 -17.2 -286.7 -17.3 C -286.5 -17.4 -286.4 -17.6 -286.4 -17.8 C -286.4 -17.8 -286.4 -29.9 -286.4 -29.9 C -286.4 -30.2 -286.5 -30.4 -286.7 -30.5 C -286.9 -30.7 -287.2 -30.8 -287.7 -30.8 C -287.73 -30.75 -288.8 -30.8 -288.8 -30.8 L -288.8 -31.5 Z M -284.3 -23.9 C -284.3 -23.9 -282.21 -23.94 -282.2 -23.9 C -280.9 -23.9 -280 -24.2 -279.4 -24.8 C -278.8 -25.3 -278.5 -26.2 -278.5 -27.4 C -278.5 -28.3 -278.7 -29 -278.9 -29.5 C -279.2 -29.9 -279.6 -30.3 -280.1 -30.5 C -280.6 -30.7 -281.4 -30.8 -282.5 -30.8 C -283.3 -30.8 -283.8 -30.8 -284 -30.6 C -284.2 -30.5 -284.3 -30.2 -284.3 -29.9 C -284.26 -29.88 -284.3 -23.9 -284.3 -23.9 Z M -265.7 -17.1 C -265.4 -17.1 -265.1 -17.2 -264.8 -17.4 C -264.8 -17.4 -264.4 -16.8 -264.4 -16.8 C -264.9 -16.3 -265.5 -16.1 -266.1 -16.1 C -266.6 -16.1 -267 -16.2 -267.3 -16.4 C -267.6 -16.7 -267.9 -17.1 -268.1 -17.8 C -268.8 -17.1 -269.3 -16.6 -269.8 -16.4 C -270.3 -16.2 -270.9 -16.1 -271.6 -16.1 C -272.6 -16.1 -273.3 -16.3 -273.8 -16.7 C -274.4 -17.1 -274.6 -17.7 -274.6 -18.3 C -274.6 -19.3 -274 -20.2 -272.9 -20.8 C -271.7 -21.5 -270.1 -21.9 -268.2 -22.1 C -268.2 -22.1 -268.2 -23.6 -268.2 -23.6 C -268.2 -24.1 -268.4 -24.6 -268.8 -24.9 C -269.2 -25.3 -269.7 -25.5 -270.4 -25.5 C -271 -25.5 -271.5 -25.4 -271.9 -25.1 C -272.2 -24.9 -272.4 -24.7 -272.4 -24.6 C -272.4 -24.5 -272.3 -24.3 -272.1 -24.1 C -271.9 -23.8 -271.8 -23.6 -271.8 -23.4 C -271.8 -23.1 -271.9 -22.8 -272.1 -22.6 C -272.3 -22.4 -272.6 -22.3 -272.9 -22.3 C -273.3 -22.3 -273.6 -22.4 -273.8 -22.7 C -274 -22.9 -274.1 -23.2 -274.1 -23.6 C -274.1 -24.2 -273.7 -24.8 -273 -25.4 C -272.2 -26 -271.2 -26.3 -270 -26.3 C -268.8 -26.3 -268 -26 -267.4 -25.5 C -266.8 -25 -266.5 -24.4 -266.5 -23.7 C -266.5 -23.7 -266.5 -18.4 -266.5 -18.4 C -266.5 -18 -266.4 -17.6 -266.2 -17.4 C -266.1 -17.2 -265.9 -17.1 -265.7 -17.1 C -265.7 -17.1 -265.7 -17.1 -265.7 -17.1 Z M -268.2 -21.5 C -269.9 -21.2 -271.1 -20.8 -271.9 -20.3 C -272.4 -19.9 -272.7 -19.3 -272.7 -18.5 C -272.7 -18 -272.5 -17.6 -272.3 -17.3 C -272 -17 -271.6 -16.9 -271.2 -16.9 C -270.4 -16.9 -269.7 -17.2 -269.1 -17.8 C -268.5 -18.4 -268.2 -19.2 -268.2 -20.1 C -268.2 -20.1 -268.2 -21.5 -268.2 -21.5 Z M -263.3 -26 C -263.3 -26 -260.1 -26.16 -260.1 -26.2 C -260 -25.6 -259.9 -24.9 -259.8 -24 C -259.4 -24.7 -258.9 -25.3 -258.3 -25.6 C -257.7 -26 -257 -26.1 -256.3 -26.1 C -255.7 -26.1 -255.1 -26 -254.7 -25.8 C -254.3 -25.5 -253.9 -25.1 -253.7 -24.6 C -253.4 -24 -253.3 -23.4 -253.3 -22.8 C -253.3 -22.8 -253.3 -18.1 -253.3 -18.1 C -253.3 -17.7 -253.2 -17.5 -253 -17.3 C -252.9 -17.2 -252.6 -17.1 -252.3 -17.1 C -252.25 -17.12 -251.6 -17.1 -251.6 -17.1 L -251.6 -16.4 L -256.6 -16.4 L -256.6 -17.1 C -256.6 -17.1 -256.16 -17.12 -256.2 -17.1 C -255.7 -17.1 -255.4 -17.2 -255.2 -17.3 C -255 -17.5 -254.9 -17.7 -254.9 -18 C -254.9 -18 -254.9 -22.1 -254.9 -22.1 C -254.9 -23 -255.1 -23.7 -255.4 -24.1 C -255.7 -24.7 -256.3 -25 -257.1 -25 C -257.9 -25 -258.5 -24.7 -259 -24.1 C -259.6 -23.5 -259.8 -22.6 -259.8 -21.6 C -259.8 -21.6 -259.8 -18.1 -259.8 -18.1 C -259.8 -17.7 -259.7 -17.5 -259.6 -17.3 C -259.4 -17.2 -259.1 -17.1 -258.8 -17.1 C -258.77 -17.12 -258.1 -17.1 -258.1 -17.1 L -258.1 -16.4 L -263.2 -16.4 L -263.2 -17.1 C -263.2 -17.1 -262.53 -17.12 -262.5 -17.1 C -262.2 -17.1 -261.9 -17.2 -261.8 -17.3 C -261.6 -17.5 -261.5 -17.6 -261.5 -17.8 C -261.5 -17.8 -261.5 -24 -261.5 -24 C -261.5 -24.5 -261.6 -24.8 -261.8 -25 C -262.1 -25.2 -262.4 -25.3 -262.8 -25.3 C -262.79 -25.3 -263.3 -25.3 -263.3 -25.3 L -263.3 -26 Z M -243.1 -25.4 C -242.4 -26.1 -241.8 -26.5 -241.2 -26.5 C -240.9 -26.5 -240.6 -26.3 -240.4 -26.1 C -240.1 -25.9 -240 -25.6 -240 -25.3 C -240 -25.1 -240.1 -24.9 -240.2 -24.7 C -240.4 -24.5 -240.6 -24.4 -240.8 -24.4 C -241.2 -24.4 -241.4 -24.7 -241.6 -25.2 C -241.6 -25.4 -241.7 -25.5 -241.9 -25.5 C -242.1 -25.5 -242.3 -25.3 -242.6 -25 C -242.3 -24.6 -242.1 -24.3 -242 -24 C -241.9 -23.7 -241.8 -23.3 -241.8 -23 C -241.8 -22.4 -242 -21.9 -242.3 -21.4 C -242.6 -21 -243 -20.6 -243.7 -20.2 C -244.4 -19.9 -245 -19.7 -245.6 -19.7 C -245.6 -19.7 -246.7 -19.7 -246.7 -19.7 C -247.5 -19.7 -248.1 -19.6 -248.3 -19.5 C -248.6 -19.3 -248.7 -19 -248.7 -18.7 C -248.7 -18.4 -248.6 -18.2 -248.4 -18.1 C -248.2 -17.9 -247.8 -17.9 -247.2 -17.9 C -247.2 -17.9 -244.7 -17.9 -244.7 -17.9 C -243.4 -17.9 -242.5 -17.7 -241.9 -17.3 C -241.3 -16.9 -241 -16.3 -241 -15.5 C -241 -14.7 -241.4 -14 -242 -13.5 C -242.9 -12.7 -244.2 -12.3 -246 -12.3 C -247.5 -12.3 -248.6 -12.5 -249.3 -13.1 C -249.8 -13.5 -250.1 -14 -250.1 -14.5 C -250.1 -14.9 -249.9 -15.3 -249.6 -15.6 C -249.2 -15.9 -248.6 -16.2 -247.8 -16.4 C -248.5 -16.5 -249 -16.8 -249.3 -17.1 C -249.7 -17.4 -249.8 -17.8 -249.8 -18.3 C -249.8 -18.7 -249.7 -19.1 -249.4 -19.4 C -249.1 -19.7 -248.6 -20 -248 -20.2 C -248.5 -20.6 -249 -21 -249.3 -21.4 C -249.6 -21.9 -249.7 -22.4 -249.7 -23 C -249.7 -23.9 -249.4 -24.7 -248.6 -25.3 C -247.9 -25.9 -246.9 -26.3 -245.8 -26.3 C -245.3 -26.3 -244.8 -26.2 -244.4 -26 C -243.9 -25.9 -243.5 -25.7 -243.1 -25.4 Z M -245.8 -25.6 C -246.4 -25.6 -246.9 -25.4 -247.3 -24.9 C -247.7 -24.5 -247.9 -23.8 -247.9 -23 C -247.9 -22.2 -247.7 -21.5 -247.3 -21 C -246.9 -20.6 -246.4 -20.3 -245.8 -20.3 C -245.2 -20.3 -244.7 -20.6 -244.3 -21 C -243.9 -21.5 -243.7 -22.1 -243.7 -23 C -243.7 -23.8 -243.9 -24.4 -244.3 -24.9 C -244.7 -25.4 -245.2 -25.6 -245.8 -25.6 Z M -245.2 -16.3 C -246.4 -16.3 -247.3 -16.2 -247.9 -15.8 C -248.4 -15.5 -248.7 -15.1 -248.7 -14.6 C -248.7 -14.1 -248.5 -13.7 -248.1 -13.5 C -247.5 -13.1 -246.8 -12.9 -245.8 -12.9 C -244.6 -12.9 -243.7 -13.1 -243.1 -13.5 C -242.6 -13.9 -242.3 -14.3 -242.3 -14.8 C -242.3 -15.1 -242.3 -15.4 -242.5 -15.6 C -242.7 -15.8 -243 -16 -243.4 -16.2 C -243.8 -16.3 -244.4 -16.3 -245.2 -16.3 Z M -229.9 -17.1 C -229.6 -17.1 -229.3 -17.2 -229 -17.4 C -229 -17.4 -228.7 -16.8 -228.7 -16.8 C -229.2 -16.3 -229.7 -16.1 -230.3 -16.1 C -230.8 -16.1 -231.2 -16.2 -231.5 -16.4 C -231.8 -16.7 -232.1 -17.1 -232.3 -17.8 C -233 -17.1 -233.5 -16.6 -234 -16.4 C -234.5 -16.2 -235.1 -16.1 -235.8 -16.1 C -236.8 -16.1 -237.5 -16.3 -238.1 -16.7 C -238.6 -17.1 -238.8 -17.7 -238.8 -18.3 C -238.8 -19.3 -238.2 -20.2 -237.1 -20.8 C -235.9 -21.5 -234.3 -21.9 -232.4 -22.1 C -232.4 -22.1 -232.4 -23.6 -232.4 -23.6 C -232.4 -24.1 -232.6 -24.6 -233 -24.9 C -233.4 -25.3 -234 -25.5 -234.6 -25.5 C -235.2 -25.5 -235.7 -25.4 -236.1 -25.1 C -236.5 -24.9 -236.6 -24.7 -236.6 -24.6 C -236.6 -24.5 -236.5 -24.3 -236.4 -24.1 C -236.2 -23.8 -236.1 -23.6 -236.1 -23.4 C -236.1 -23.1 -236.2 -22.8 -236.4 -22.6 C -236.6 -22.4 -236.8 -22.3 -237.1 -22.3 C -237.5 -22.3 -237.8 -22.4 -238 -22.7 C -238.2 -22.9 -238.3 -23.2 -238.3 -23.6 C -238.3 -24.2 -238 -24.8 -237.2 -25.4 C -236.4 -26 -235.4 -26.3 -234.2 -26.3 C -233.1 -26.3 -232.2 -26 -231.6 -25.5 C -231 -25 -230.7 -24.4 -230.7 -23.7 C -230.7 -23.7 -230.7 -18.4 -230.7 -18.4 C -230.7 -18 -230.6 -17.6 -230.5 -17.4 C -230.3 -17.2 -230.1 -17.1 -229.9 -17.1 C -229.9 -17.1 -229.9 -17.1 -229.9 -17.1 Z M -232.4 -21.5 C -234.1 -21.2 -235.4 -20.8 -236.1 -20.3 C -236.6 -19.9 -236.9 -19.3 -236.9 -18.5 C -236.9 -18 -236.8 -17.6 -236.5 -17.3 C -236.2 -17 -235.8 -16.9 -235.4 -16.9 C -234.6 -16.9 -233.9 -17.2 -233.3 -17.8 C -232.7 -18.4 -232.4 -19.2 -232.4 -20.1 C -232.4 -20.1 -232.4 -21.5 -232.4 -21.5 Z M -226.9 -26 C -226.9 -26 -224.16 -26.14 -224.2 -26.1 C -224 -25.4 -223.9 -24.7 -223.9 -24.1 C -223.3 -24.8 -222.8 -25.4 -222.3 -25.7 C -221.8 -26 -221.2 -26.1 -220.6 -26.1 C -219.9 -26.1 -219.4 -26 -218.9 -25.6 C -218.5 -25.3 -218.2 -24.7 -217.9 -23.9 C -217.5 -24.7 -217 -25.2 -216.4 -25.6 C -215.9 -26 -215.2 -26.1 -214.6 -26.1 C -213.7 -26.1 -213.1 -25.9 -212.6 -25.4 C -212.1 -24.7 -211.8 -23.8 -211.8 -22.7 C -211.8 -22.7 -211.8 -17.9 -211.8 -17.9 C -211.8 -17.7 -211.7 -17.5 -211.6 -17.4 C -211.4 -17.2 -211.1 -17.1 -210.7 -17.1 C -210.71 -17.12 -210.2 -17.1 -210.2 -17.1 L -210.2 -16.4 L -215.1 -16.4 L -215.1 -17.1 C -215.1 -17.1 -214.58 -17.12 -214.6 -17.1 C -214.2 -17.1 -213.9 -17.2 -213.7 -17.3 C -213.6 -17.5 -213.5 -17.7 -213.5 -17.9 C -213.5 -17.9 -213.5 -22.7 -213.5 -22.7 C -213.5 -23.4 -213.6 -24 -214 -24.4 C -214.3 -24.8 -214.8 -25 -215.4 -25 C -215.8 -25 -216.2 -24.8 -216.5 -24.6 C -216.9 -24.4 -217.2 -24.1 -217.3 -23.6 C -217.6 -23 -217.8 -22.5 -217.8 -22.1 C -217.8 -22.1 -217.8 -17.9 -217.8 -17.9 C -217.8 -17.7 -217.7 -17.5 -217.6 -17.3 C -217.4 -17.2 -217.2 -17.1 -216.9 -17.1 C -216.87 -17.12 -216.2 -17.1 -216.2 -17.1 L -216.2 -16.4 L -221.1 -16.4 L -221.1 -17.1 C -221.1 -17.1 -220.56 -17.12 -220.6 -17.1 C -220.2 -17.1 -219.9 -17.2 -219.8 -17.3 C -219.6 -17.5 -219.5 -17.6 -219.5 -17.9 C -219.5 -17.9 -219.5 -22.3 -219.5 -22.3 C -219.5 -23.2 -219.7 -23.9 -220 -24.3 C -220.4 -24.7 -220.8 -25 -221.4 -25 C -222.1 -25 -222.6 -24.7 -223 -24.2 C -223.6 -23.5 -223.9 -22.7 -223.9 -21.8 C -223.9 -21.8 -223.9 -17.9 -223.9 -17.9 C -223.9 -17.7 -223.8 -17.4 -223.7 -17.3 C -223.5 -17.2 -223.2 -17.1 -222.8 -17.1 C -222.8 -17.12 -222.3 -17.1 -222.3 -17.1 L -222.3 -16.4 L -227.2 -16.4 L -227.2 -17.1 C -227.2 -17.1 -226.42 -17.12 -226.4 -17.1 C -226.1 -17.1 -225.9 -17.2 -225.8 -17.3 C -225.6 -17.5 -225.6 -17.6 -225.6 -17.9 C -225.6 -17.9 -225.6 -24.1 -225.6 -24.1 C -225.6 -24.5 -225.7 -24.8 -225.8 -24.9 C -226 -25.1 -226.4 -25.2 -226.9 -25.3 C -226.9 -25.26 -226.9 -26 -226.9 -26 Z M -205.9 -31.7 C -205.9 -31.7 -205.85 -24.55 -205.9 -24.5 C -205.4 -25.1 -205 -25.5 -204.5 -25.8 C -204 -26.1 -203.5 -26.3 -202.9 -26.3 C -201.8 -26.3 -200.8 -25.8 -200 -24.9 C -199.3 -24 -198.9 -22.9 -198.9 -21.4 C -198.9 -19.9 -199.3 -18.6 -200.1 -17.7 C -201 -16.7 -202 -16.2 -203.2 -16.2 C -203.8 -16.2 -204.4 -16.3 -204.8 -16.6 C -205.3 -16.8 -205.8 -17.2 -206.3 -17.7 C -206.7 -17.1 -207.1 -16.6 -207.4 -16.2 C -207.4 -16.2 -207.9 -16.4 -207.9 -16.4 C -207.7 -17.1 -207.6 -18 -207.6 -18.8 C -207.6 -18.8 -207.6 -29.7 -207.6 -29.7 C -207.6 -30 -207.7 -30.3 -207.9 -30.5 C -208.2 -30.7 -208.5 -30.8 -208.9 -30.8 C -208.92 -30.75 -209.3 -30.8 -209.3 -30.8 L -209.3 -31.5 L -205.9 -31.7 Z M -203.3 -25.3 C -204 -25.3 -204.7 -25 -205.2 -24.3 C -205.6 -23.7 -205.9 -22.5 -205.9 -21 C -205.9 -19.5 -205.6 -18.5 -205.2 -17.8 C -204.7 -17.2 -204.1 -16.9 -203.3 -16.9 C -202.6 -16.9 -202 -17.2 -201.6 -17.8 C -201.1 -18.6 -200.8 -19.7 -200.8 -21.2 C -200.8 -22.7 -201 -23.7 -201.5 -24.4 C -202 -25 -202.6 -25.3 -203.3 -25.3 Z M -187.8 -17.1 C -187.6 -17.1 -187.3 -17.2 -187 -17.4 C -187 -17.4 -186.6 -16.8 -186.6 -16.8 C -187.1 -16.3 -187.7 -16.1 -188.3 -16.1 C -188.8 -16.1 -189.1 -16.2 -189.5 -16.4 C -189.8 -16.7 -190.1 -17.1 -190.3 -17.8 C -190.9 -17.1 -191.5 -16.6 -192 -16.4 C -192.5 -16.2 -193.1 -16.1 -193.8 -16.1 C -194.8 -16.1 -195.5 -16.3 -196 -16.7 C -196.5 -17.1 -196.8 -17.7 -196.8 -18.3 C -196.8 -19.3 -196.2 -20.2 -195 -20.8 C -193.9 -21.5 -192.3 -21.9 -190.4 -22.1 C -190.4 -22.1 -190.4 -23.6 -190.4 -23.6 C -190.4 -24.1 -190.6 -24.6 -191 -24.9 C -191.4 -25.3 -191.9 -25.5 -192.6 -25.5 C -193.2 -25.5 -193.7 -25.4 -194.1 -25.1 C -194.4 -24.9 -194.6 -24.7 -194.6 -24.6 C -194.6 -24.5 -194.5 -24.3 -194.3 -24.1 C -194.1 -23.8 -194 -23.6 -194 -23.4 C -194 -23.1 -194.1 -22.8 -194.3 -22.6 C -194.5 -22.4 -194.8 -22.3 -195.1 -22.3 C -195.4 -22.3 -195.7 -22.4 -196 -22.7 C -196.2 -22.9 -196.3 -23.2 -196.3 -23.6 C -196.3 -24.2 -195.9 -24.8 -195.2 -25.4 C -194.4 -26 -193.4 -26.3 -192.2 -26.3 C -191 -26.3 -190.2 -26 -189.5 -25.5 C -188.9 -25 -188.6 -24.4 -188.6 -23.7 C -188.6 -23.7 -188.6 -18.4 -188.6 -18.4 C -188.6 -18 -188.6 -17.6 -188.4 -17.4 C -188.3 -17.2 -188.1 -17.1 -187.8 -17.1 C -187.8 -17.1 -187.8 -17.1 -187.8 -17.1 Z M -190.4 -21.5 C -192.1 -21.2 -193.3 -20.8 -194.1 -20.3 C -194.6 -19.9 -194.9 -19.3 -194.9 -18.5 C -194.9 -18 -194.7 -17.6 -194.4 -17.3 C -194.2 -17 -193.8 -16.9 -193.3 -16.9 C -192.5 -16.9 -191.8 -17.2 -191.2 -17.8 C -190.7 -18.4 -190.4 -19.2 -190.4 -20.1 C -190.4 -20.1 -190.4 -21.5 -190.4 -21.5 Z M -185.5 -26 C -185.5 -26 -182.28 -26.16 -182.3 -26.2 C -182.1 -25.6 -182.1 -24.9 -182 -24 C -181.6 -24.7 -181.1 -25.3 -180.5 -25.6 C -179.9 -26 -179.2 -26.1 -178.5 -26.1 C -177.8 -26.1 -177.3 -26 -176.9 -25.8 C -176.5 -25.5 -176.1 -25.1 -175.8 -24.6 C -175.6 -24 -175.5 -23.4 -175.5 -22.8 C -175.5 -22.8 -175.5 -18.1 -175.5 -18.1 C -175.5 -17.7 -175.4 -17.5 -175.2 -17.3 C -175.1 -17.2 -174.8 -17.1 -174.4 -17.1 C -174.43 -17.12 -173.8 -17.1 -173.8 -17.1 L -173.8 -16.4 L -178.8 -16.4 L -178.8 -17.1 C -178.8 -17.1 -178.34 -17.12 -178.3 -17.1 C -177.9 -17.1 -177.6 -17.2 -177.4 -17.3 C -177.2 -17.5 -177.1 -17.7 -177.1 -18 C -177.1 -18 -177.1 -22.1 -177.1 -22.1 C -177.1 -23 -177.3 -23.7 -177.5 -24.1 C -177.9 -24.7 -178.5 -25 -179.3 -25 C -180.1 -25 -180.7 -24.7 -181.2 -24.1 C -181.7 -23.5 -182 -22.6 -182 -21.6 C -182 -21.6 -182 -18.1 -182 -18.1 C -182 -17.7 -181.9 -17.5 -181.8 -17.3 C -181.6 -17.2 -181.3 -17.1 -181 -17.1 C -180.96 -17.12 -180.3 -17.1 -180.3 -17.1 L -180.3 -16.4 L -185.4 -16.4 L -185.4 -17.1 C -185.4 -17.1 -184.71 -17.12 -184.7 -17.1 C -184.4 -17.1 -184.1 -17.2 -183.9 -17.3 C -183.8 -17.5 -183.7 -17.6 -183.7 -17.8 C -183.7 -17.8 -183.7 -24 -183.7 -24 C -183.7 -24.5 -183.8 -24.8 -184 -25 C -184.2 -25.2 -184.6 -25.3 -185 -25.3 C -184.98 -25.3 -185.5 -25.3 -185.5 -25.3 L -185.5 -26 Z M -165.3 -25.4 C -164.6 -26.1 -164 -26.5 -163.4 -26.5 C -163 -26.5 -162.8 -26.3 -162.5 -26.1 C -162.3 -25.9 -162.2 -25.6 -162.2 -25.3 C -162.2 -25.1 -162.3 -24.9 -162.4 -24.7 C -162.6 -24.5 -162.8 -24.4 -163 -24.4 C -163.4 -24.4 -163.6 -24.7 -163.8 -25.2 C -163.8 -25.4 -163.9 -25.5 -164 -25.5 C -164.3 -25.5 -164.5 -25.3 -164.8 -25 C -164.5 -24.6 -164.3 -24.3 -164.2 -24 C -164.1 -23.7 -164 -23.3 -164 -23 C -164 -22.4 -164.2 -21.9 -164.5 -21.4 C -164.7 -21 -165.2 -20.6 -165.9 -20.2 C -166.6 -19.9 -167.2 -19.7 -167.8 -19.7 C -167.8 -19.7 -168.9 -19.7 -168.9 -19.7 C -169.7 -19.7 -170.2 -19.6 -170.5 -19.5 C -170.8 -19.3 -170.9 -19 -170.9 -18.7 C -170.9 -18.4 -170.8 -18.2 -170.6 -18.1 C -170.4 -17.9 -170 -17.9 -169.4 -17.9 C -169.4 -17.9 -166.8 -17.9 -166.8 -17.9 C -165.6 -17.9 -164.6 -17.7 -164.1 -17.3 C -163.5 -16.9 -163.2 -16.3 -163.2 -15.5 C -163.2 -14.7 -163.5 -14 -164.2 -13.5 C -165.1 -12.7 -166.4 -12.3 -168.2 -12.3 C -169.7 -12.3 -170.8 -12.5 -171.5 -13.1 C -172 -13.5 -172.3 -14 -172.3 -14.5 C -172.3 -14.9 -172.1 -15.3 -171.8 -15.6 C -171.4 -15.9 -170.8 -16.2 -170 -16.4 C -170.6 -16.5 -171.2 -16.8 -171.5 -17.1 C -171.8 -17.4 -172 -17.8 -172 -18.3 C -172 -18.7 -171.9 -19.1 -171.6 -19.4 C -171.3 -19.7 -170.8 -20 -170.1 -20.2 C -170.7 -20.6 -171.2 -21 -171.5 -21.4 C -171.8 -21.9 -171.9 -22.4 -171.9 -23 C -171.9 -23.9 -171.5 -24.7 -170.8 -25.3 C -170.1 -25.9 -169.1 -26.3 -168 -26.3 C -167.5 -26.3 -167 -26.2 -166.6 -26 C -166.1 -25.9 -165.7 -25.7 -165.3 -25.4 Z M -168 -25.6 C -168.6 -25.6 -169.1 -25.4 -169.5 -24.9 C -169.9 -24.5 -170.1 -23.8 -170.1 -23 C -170.1 -22.2 -169.9 -21.5 -169.5 -21 C -169.1 -20.6 -168.6 -20.3 -168 -20.3 C -167.3 -20.3 -166.8 -20.6 -166.5 -21 C -166.1 -21.5 -165.9 -22.1 -165.9 -23 C -165.9 -23.8 -166.1 -24.4 -166.5 -24.9 C -166.9 -25.4 -167.4 -25.6 -168 -25.6 Z M -167.4 -16.3 C -168.6 -16.3 -169.5 -16.2 -170.1 -15.8 C -170.6 -15.5 -170.9 -15.1 -170.9 -14.6 C -170.9 -14.1 -170.7 -13.7 -170.3 -13.5 C -169.7 -13.1 -169 -12.9 -168 -12.9 C -166.8 -12.9 -165.9 -13.1 -165.3 -13.5 C -164.7 -13.9 -164.4 -14.3 -164.4 -14.8 C -164.4 -15.1 -164.5 -15.4 -164.7 -15.6 C -164.9 -15.8 -165.2 -16 -165.6 -16.2 C -166 -16.3 -166.6 -16.3 -167.4 -16.3 Z M -150.1 -31.5 L -146.3 -31.7 C -146.3 -31.7 -146.33 -18.55 -146.3 -18.5 C -146.3 -18 -146.2 -17.7 -146 -17.5 C -145.8 -17.2 -145.5 -17.1 -145.2 -17.1 C -145.16 -17.12 -144.5 -17.1 -144.5 -17.1 L -144.5 -16.4 L -147.8 -16.4 C -147.8 -16.4 -148.02 -18.31 -148 -18.3 C -148.4 -17.6 -148.9 -17.1 -149.4 -16.7 C -149.9 -16.4 -150.5 -16.2 -151.1 -16.2 C -152.2 -16.2 -153.2 -16.7 -153.9 -17.6 C -154.7 -18.5 -155.1 -19.7 -155.1 -21.2 C -155.1 -22.8 -154.6 -24.1 -153.6 -25.1 C -152.8 -25.9 -152 -26.3 -151 -26.3 C -150.3 -26.3 -149.8 -26.1 -149.3 -25.8 C -148.8 -25.5 -148.4 -25 -148 -24.4 C -148 -24.4 -148 -29.8 -148 -29.8 C -148 -30.1 -148.1 -30.3 -148.4 -30.5 C -148.6 -30.7 -148.9 -30.8 -149.4 -30.8 C -149.39 -30.75 -150.1 -30.8 -150.1 -30.8 L -150.1 -31.5 Z M -148.9 -24.4 C -149.3 -25.1 -150 -25.4 -150.7 -25.4 C -151.4 -25.4 -152 -25.1 -152.4 -24.5 C -152.9 -23.9 -153.1 -22.9 -153.1 -21.4 C -153.1 -19.8 -152.9 -18.7 -152.4 -18.1 C -152 -17.5 -151.4 -17.1 -150.7 -17.1 C -150 -17.1 -149.3 -17.5 -148.8 -18.2 C -148.3 -18.9 -148 -20 -148 -21.3 C -148 -22.6 -148.3 -23.7 -148.9 -24.4 C -148.9 -24.4 -148.9 -24.4 -148.9 -24.4 Z M -140.2 -26.1 C -140.2 -26.1 -140.18 -19.77 -140.2 -19.8 C -140.2 -19 -140 -18.4 -139.6 -18 C -139.2 -17.5 -138.7 -17.3 -138.1 -17.3 C -137.3 -17.3 -136.7 -17.6 -136.1 -18.3 C -135.6 -18.9 -135.3 -19.6 -135.3 -20.6 C -135.3 -20.6 -135.3 -24.2 -135.3 -24.2 C -135.3 -24.5 -135.4 -24.8 -135.7 -24.9 C -135.9 -25.1 -136.4 -25.2 -137 -25.2 C -137.03 -25.25 -137 -26 -137 -26 L -133.7 -26.1 C -133.7 -26.1 -133.66 -18.25 -133.7 -18.3 C -133.7 -17.9 -133.6 -17.6 -133.3 -17.4 C -133.1 -17.2 -132.9 -17.1 -132.5 -17.1 C -132.49 -17.12 -131.9 -17.1 -131.9 -17.1 L -131.9 -16.4 L -135.1 -16.4 C -135.1 -16.4 -135.32 -18.25 -135.3 -18.3 C -135.9 -17.6 -136.5 -17.1 -137 -16.7 C -137.6 -16.4 -138.2 -16.2 -138.8 -16.2 C -139.7 -16.2 -140.4 -16.5 -141 -17.1 C -141.6 -17.7 -141.9 -18.6 -141.9 -20 C -141.9 -20 -141.9 -24.2 -141.9 -24.2 C -141.9 -24.5 -142 -24.8 -142.3 -25 C -142.5 -25.2 -142.9 -25.2 -143.6 -25.2 C -143.58 -25.25 -143.6 -26 -143.6 -26 L -140.2 -26.1 Z M -127 -31.7 C -127 -31.7 -127.01 -17.77 -127 -17.8 C -127 -17.6 -127 -17.4 -126.8 -17.3 C -126.7 -17.2 -126.5 -17.1 -126.2 -17.1 C -126.21 -17.12 -125.2 -17.1 -125.2 -17.1 L -125.2 -16.4 L -130.6 -16.4 L -130.6 -17.1 C -130.6 -17.1 -129.68 -17.12 -129.7 -17.1 C -129.4 -17.1 -129.1 -17.2 -129 -17.3 C -128.8 -17.5 -128.7 -17.7 -128.7 -18 C -128.7 -18 -128.7 -29.7 -128.7 -29.7 C -128.7 -30 -128.8 -30.3 -129 -30.4 C -129.3 -30.6 -129.6 -30.8 -130 -30.8 C -129.95 -30.75 -130.8 -30.8 -130.8 -30.8 L -130.8 -31.5 L -127 -31.7 Z M -119.5 -26.3 C -118.2 -26.3 -117.1 -25.8 -116.2 -24.9 C -115.4 -23.9 -114.9 -22.7 -114.9 -21.2 C -114.9 -20.1 -115.1 -19.2 -115.5 -18.5 C -115.9 -17.7 -116.5 -17.1 -117.2 -16.7 C -117.9 -16.3 -118.7 -16.1 -119.5 -16.1 C -120.8 -16.1 -121.8 -16.5 -122.7 -17.5 C -123.6 -18.4 -124 -19.6 -124 -21.2 C -124 -22.7 -123.6 -23.9 -122.7 -24.8 C -121.8 -25.8 -120.8 -26.3 -119.5 -26.3 Z M -119.5 -25.5 C -120.3 -25.5 -120.9 -25.2 -121.4 -24.5 C -121.9 -23.8 -122.1 -22.7 -122.1 -21.2 C -122.1 -19.7 -121.9 -18.6 -121.4 -17.9 C -120.9 -17.1 -120.3 -16.8 -119.5 -16.8 C -118.7 -16.8 -118 -17.1 -117.6 -17.9 C -117.1 -18.6 -116.8 -19.7 -116.8 -21.3 C -116.8 -22.8 -117.1 -23.9 -117.5 -24.5 C -118 -25.2 -118.7 -25.5 -119.5 -25.5 Z M -112 -26.7 C -111.4 -27.4 -111 -28.5 -111 -29.9 C -110.99 -29.88 -110.3 -29.9 -110.3 -29.9 L -110.3 -26 L -107.2 -26 L -107.2 -25 L -110.3 -25 C -110.3 -25 -110.31 -18.86 -110.3 -18.9 C -110.3 -18.3 -110.2 -17.9 -109.9 -17.6 C -109.7 -17.3 -109.4 -17.2 -109 -17.2 C -108.5 -17.2 -108.1 -17.4 -107.8 -17.9 C -107.4 -18.3 -107.3 -19 -107.2 -20 C -107.2 -20 -106.5 -20 -106.5 -20 C -106.6 -18.7 -106.8 -17.8 -107.4 -17.1 C -107.9 -16.5 -108.6 -16.2 -109.5 -16.2 C -110.3 -16.2 -110.9 -16.4 -111.3 -16.9 C -111.8 -17.3 -112 -17.9 -112 -18.6 C -112.02 -18.57 -112 -25 -112 -25 L -113.7 -25 C -113.7 -25 -113.69 -25.74 -113.7 -25.7 C -112.9 -25.9 -112.3 -26.2 -112 -26.7 C -112 -26.7 -112 -26.7 -112 -26.7 Z M -99.5 -26 C -99.5 -26 -96.33 -26.16 -96.3 -26.2 C -96.2 -25.6 -96.1 -24.9 -96 -24 C -95.6 -24.7 -95.1 -25.3 -94.5 -25.6 C -93.9 -26 -93.3 -26.1 -92.5 -26.1 C -91.9 -26.1 -91.4 -26 -90.9 -25.8 C -90.5 -25.5 -90.2 -25.1 -89.9 -24.6 C -89.6 -24 -89.5 -23.4 -89.5 -22.8 C -89.5 -22.8 -89.5 -18.1 -89.5 -18.1 C -89.5 -17.7 -89.4 -17.5 -89.3 -17.3 C -89.1 -17.2 -88.9 -17.1 -88.5 -17.1 C -88.49 -17.12 -87.8 -17.1 -87.8 -17.1 L -87.8 -16.4 L -92.9 -16.4 L -92.9 -17.1 C -92.9 -17.1 -92.39 -17.12 -92.4 -17.1 C -91.9 -17.1 -91.6 -17.2 -91.5 -17.3 C -91.3 -17.5 -91.2 -17.7 -91.2 -18 C -91.2 -18 -91.2 -22.1 -91.2 -22.1 C -91.2 -23 -91.3 -23.7 -91.6 -24.1 C -92 -24.7 -92.6 -25 -93.3 -25 C -94.1 -25 -94.8 -24.7 -95.3 -24.1 C -95.8 -23.5 -96 -22.6 -96 -21.6 C -96 -21.6 -96 -18.1 -96 -18.1 C -96 -17.7 -96 -17.5 -95.8 -17.3 C -95.6 -17.2 -95.4 -17.1 -95 -17.1 C -95.01 -17.12 -94.3 -17.1 -94.3 -17.1 L -94.3 -16.4 L -99.4 -16.4 L -99.4 -17.1 C -99.4 -17.1 -98.76 -17.12 -98.8 -17.1 C -98.4 -17.1 -98.2 -17.2 -98 -17.3 C -97.8 -17.5 -97.7 -17.6 -97.7 -17.8 C -97.7 -17.8 -97.7 -24 -97.7 -24 C -97.7 -24.5 -97.8 -24.8 -98.1 -25 C -98.3 -25.2 -98.6 -25.3 -99 -25.3 C -99.03 -25.3 -99.5 -25.3 -99.5 -25.3 L -99.5 -26 Z M -79.3 -25.4 C -78.6 -26.1 -78 -26.5 -77.4 -26.5 C -77.1 -26.5 -76.8 -26.3 -76.6 -26.1 C -76.4 -25.9 -76.3 -25.6 -76.3 -25.3 C -76.3 -25.1 -76.3 -24.9 -76.5 -24.7 C -76.6 -24.5 -76.8 -24.4 -77 -24.4 C -77.4 -24.4 -77.7 -24.7 -77.8 -25.2 C -77.9 -25.4 -78 -25.5 -78.1 -25.5 C -78.3 -25.5 -78.6 -25.3 -78.8 -25 C -78.6 -24.6 -78.4 -24.3 -78.2 -24 C -78.1 -23.7 -78.1 -23.3 -78.1 -23 C -78.1 -22.4 -78.2 -21.9 -78.5 -21.4 C -78.8 -21 -79.3 -20.6 -79.9 -20.2 C -80.6 -19.9 -81.2 -19.7 -81.9 -19.7 C -81.9 -19.7 -83 -19.7 -83 -19.7 C -83.8 -19.7 -84.3 -19.6 -84.5 -19.5 C -84.8 -19.3 -84.9 -19 -84.9 -18.7 C -84.9 -18.4 -84.8 -18.2 -84.6 -18.1 C -84.4 -17.9 -84 -17.9 -83.4 -17.9 C -83.4 -17.9 -80.9 -17.9 -80.9 -17.9 C -79.6 -17.9 -78.7 -17.7 -78.1 -17.3 C -77.6 -16.9 -77.3 -16.3 -77.3 -15.5 C -77.3 -14.7 -77.6 -14 -78.2 -13.5 C -79.1 -12.7 -80.5 -12.3 -82.3 -12.3 C -83.7 -12.3 -84.8 -12.5 -85.5 -13.1 C -86.1 -13.5 -86.4 -14 -86.4 -14.5 C -86.4 -14.9 -86.2 -15.3 -85.8 -15.6 C -85.5 -15.9 -84.9 -16.2 -84 -16.4 C -84.7 -16.5 -85.2 -16.8 -85.5 -17.1 C -85.9 -17.4 -86.1 -17.8 -86.1 -18.3 C -86.1 -18.7 -85.9 -19.1 -85.6 -19.4 C -85.4 -19.7 -84.9 -20 -84.2 -20.2 C -84.8 -20.6 -85.2 -21 -85.5 -21.4 C -85.8 -21.9 -86 -22.4 -86 -23 C -86 -23.9 -85.6 -24.7 -84.9 -25.3 C -84.1 -25.9 -83.2 -26.3 -82 -26.3 C -81.5 -26.3 -81.1 -26.2 -80.6 -26 C -80.2 -25.9 -79.7 -25.7 -79.3 -25.4 Z M -82 -25.6 C -82.6 -25.6 -83.1 -25.4 -83.5 -24.9 C -83.9 -24.5 -84.1 -23.8 -84.1 -23 C -84.1 -22.2 -83.9 -21.5 -83.5 -21 C -83.1 -20.6 -82.6 -20.3 -82 -20.3 C -81.4 -20.3 -80.9 -20.6 -80.5 -21 C -80.1 -21.5 -79.9 -22.1 -79.9 -23 C -79.9 -23.8 -80.1 -24.4 -80.5 -24.9 C -80.9 -25.4 -81.4 -25.6 -82 -25.6 Z M -81.4 -16.3 C -82.7 -16.3 -83.6 -16.2 -84.1 -15.8 C -84.7 -15.5 -84.9 -15.1 -84.9 -14.6 C -84.9 -14.1 -84.7 -13.7 -84.3 -13.5 C -83.8 -13.1 -83 -12.9 -82 -12.9 C -80.9 -12.9 -80 -13.1 -79.4 -13.5 C -78.8 -13.9 -78.5 -14.3 -78.5 -14.8 C -78.5 -15.1 -78.6 -15.4 -78.8 -15.6 C -79 -15.8 -79.2 -16 -79.6 -16.2 C -80.1 -16.3 -80.6 -16.3 -81.4 -16.3 Z M -69.6 -31.5 L -62.6 -31.5 L -62.6 -30.8 C -62.6 -30.8 -64.26 -30.75 -64.3 -30.8 C -64.5 -30.8 -64.7 -30.7 -64.8 -30.5 C -65 -30.4 -65 -30.2 -65 -29.9 C -65 -29.9 -65 -17.9 -65 -17.9 C -65 -17.6 -65 -17.4 -64.8 -17.3 C -64.6 -17.2 -64.3 -17.1 -63.8 -17.1 C -63.8 -17.1 -61.7 -17.1 -61.7 -17.1 C -60.6 -17.1 -59.6 -17.5 -58.9 -18.3 C -58.2 -19 -57.7 -20.3 -57.3 -22.2 C -57.35 -22.19 -56.6 -22.2 -56.6 -22.2 L -57 -16.4 L -69.6 -16.4 L -69.6 -17.1 C -69.6 -17.1 -68.37 -17.12 -68.4 -17.1 C -67.9 -17.1 -67.6 -17.2 -67.5 -17.4 C -67.3 -17.5 -67.2 -17.8 -67.2 -18.1 C -67.2 -18.1 -67.2 -30 -67.2 -30 C -67.2 -30.2 -67.3 -30.4 -67.4 -30.6 C -67.6 -30.7 -67.8 -30.8 -68.1 -30.8 C -68.07 -30.75 -69.6 -30.8 -69.6 -30.8 L -69.6 -31.5 Z M -46.3 -17.1 C -46 -17.1 -45.7 -17.2 -45.4 -17.4 C -45.4 -17.4 -45.1 -16.8 -45.1 -16.8 C -45.6 -16.3 -46.1 -16.1 -46.7 -16.1 C -47.2 -16.1 -47.6 -16.2 -47.9 -16.4 C -48.2 -16.7 -48.5 -17.1 -48.7 -17.8 C -49.4 -17.1 -49.9 -16.6 -50.4 -16.4 C -50.9 -16.2 -51.5 -16.1 -52.2 -16.1 C -53.2 -16.1 -53.9 -16.3 -54.5 -16.7 C -55 -17.1 -55.2 -17.7 -55.2 -18.3 C -55.2 -19.3 -54.6 -20.2 -53.5 -20.8 C -52.3 -21.5 -50.7 -21.9 -48.8 -22.1 C -48.8 -22.1 -48.8 -23.6 -48.8 -23.6 C -48.8 -24.1 -49 -24.6 -49.4 -24.9 C -49.8 -25.3 -50.4 -25.5 -51 -25.5 C -51.6 -25.5 -52.1 -25.4 -52.5 -25.1 C -52.8 -24.9 -53 -24.7 -53 -24.6 C -53 -24.5 -52.9 -24.3 -52.8 -24.1 C -52.6 -23.8 -52.5 -23.6 -52.5 -23.4 C -52.5 -23.1 -52.6 -22.8 -52.8 -22.6 C -53 -22.4 -53.2 -22.3 -53.5 -22.3 C -53.9 -22.3 -54.2 -22.4 -54.4 -22.7 C -54.6 -22.9 -54.7 -23.2 -54.7 -23.6 C -54.7 -24.2 -54.3 -24.8 -53.6 -25.4 C -52.8 -26 -51.8 -26.3 -50.6 -26.3 C -49.4 -26.3 -48.6 -26 -48 -25.5 C -47.4 -25 -47.1 -24.4 -47.1 -23.7 C -47.1 -23.7 -47.1 -18.4 -47.1 -18.4 C -47.1 -18 -47 -17.6 -46.8 -17.4 C -46.7 -17.2 -46.5 -17.1 -46.3 -17.1 C -46.3 -17.1 -46.3 -17.1 -46.3 -17.1 Z M -48.8 -21.5 C -50.5 -21.2 -51.8 -20.8 -52.5 -20.3 C -53 -19.9 -53.3 -19.3 -53.3 -18.5 C -53.3 -18 -53.1 -17.6 -52.9 -17.3 C -52.6 -17 -52.2 -16.9 -51.8 -16.9 C -51 -16.9 -50.3 -17.2 -49.7 -17.8 C -49.1 -18.4 -48.8 -19.2 -48.8 -20.1 C -48.8 -20.1 -48.8 -21.5 -48.8 -21.5 Z M -43.3 -26 C -43.3 -26 -40.55 -26.14 -40.5 -26.1 C -40.4 -25.4 -40.3 -24.7 -40.3 -24.1 C -39.7 -24.8 -39.2 -25.4 -38.7 -25.7 C -38.2 -26 -37.6 -26.1 -37 -26.1 C -36.3 -26.1 -35.8 -26 -35.3 -25.6 C -34.9 -25.3 -34.6 -24.7 -34.3 -23.9 C -33.9 -24.7 -33.4 -25.2 -32.8 -25.6 C -32.3 -26 -31.6 -26.1 -31 -26.1 C -30.1 -26.1 -29.4 -25.9 -29 -25.4 C -28.5 -24.7 -28.2 -23.8 -28.2 -22.7 C -28.2 -22.7 -28.2 -17.9 -28.2 -17.9 C -28.2 -17.7 -28.1 -17.5 -28 -17.4 C -27.8 -17.2 -27.5 -17.1 -27.1 -17.1 C -27.11 -17.12 -26.6 -17.1 -26.6 -17.1 L -26.6 -16.4 L -31.5 -16.4 L -31.5 -17.1 C -31.5 -17.1 -30.97 -17.12 -31 -17.1 C -30.6 -17.1 -30.3 -17.2 -30.1 -17.3 C -29.9 -17.5 -29.9 -17.7 -29.9 -17.9 C -29.9 -17.9 -29.9 -22.7 -29.9 -22.7 C -29.9 -23.4 -30 -24 -30.4 -24.4 C -30.7 -24.8 -31.2 -25 -31.8 -25 C -32.2 -25 -32.6 -24.8 -32.9 -24.6 C -33.3 -24.4 -33.5 -24.1 -33.7 -23.6 C -34 -23 -34.2 -22.5 -34.2 -22.1 C -34.2 -22.1 -34.2 -17.9 -34.2 -17.9 C -34.2 -17.7 -34.1 -17.5 -34 -17.3 C -33.8 -17.2 -33.6 -17.1 -33.3 -17.1 C -33.26 -17.12 -32.6 -17.1 -32.6 -17.1 L -32.6 -16.4 L -37.5 -16.4 L -37.5 -17.1 C -37.5 -17.1 -36.95 -17.12 -37 -17.1 C -36.6 -17.1 -36.3 -17.2 -36.2 -17.3 C -36 -17.5 -35.9 -17.6 -35.9 -17.9 C -35.9 -17.9 -35.9 -22.3 -35.9 -22.3 C -35.9 -23.2 -36.1 -23.9 -36.4 -24.3 C -36.7 -24.7 -37.2 -25 -37.8 -25 C -38.5 -25 -39 -24.7 -39.4 -24.2 C -40 -23.5 -40.3 -22.7 -40.3 -21.8 C -40.3 -21.8 -40.3 -17.9 -40.3 -17.9 C -40.3 -17.7 -40.2 -17.4 -40.1 -17.3 C -39.9 -17.2 -39.6 -17.1 -39.2 -17.1 C -39.2 -17.12 -38.7 -17.1 -38.7 -17.1 L -38.7 -16.4 L -43.5 -16.4 L -43.5 -17.1 C -43.5 -17.1 -42.82 -17.12 -42.8 -17.1 C -42.5 -17.1 -42.3 -17.2 -42.2 -17.3 C -42 -17.5 -42 -17.6 -42 -17.9 C -42 -17.9 -42 -24.1 -42 -24.1 C -42 -24.5 -42.1 -24.8 -42.2 -24.9 C -42.4 -25.1 -42.8 -25.2 -43.3 -25.3 C -43.3 -25.26 -43.3 -26 -43.3 -26 Z M -22.2 -31.7 C -22.2 -31.7 -22.25 -24.55 -22.2 -24.5 C -21.8 -25.1 -21.4 -25.5 -20.9 -25.8 C -20.4 -26.1 -19.9 -26.3 -19.3 -26.3 C -18.2 -26.3 -17.2 -25.8 -16.4 -24.9 C -15.7 -24 -15.3 -22.9 -15.3 -21.4 C -15.3 -19.9 -15.7 -18.6 -16.5 -17.7 C -17.4 -16.7 -18.4 -16.2 -19.6 -16.2 C -20.2 -16.2 -20.8 -16.3 -21.2 -16.6 C -21.7 -16.8 -22.2 -17.2 -22.7 -17.7 C -23.1 -17.1 -23.5 -16.6 -23.8 -16.2 C -23.8 -16.2 -24.2 -16.4 -24.2 -16.4 C -24.1 -17.1 -24 -18 -24 -18.8 C -24 -18.8 -24 -29.7 -24 -29.7 C -24 -30 -24.1 -30.3 -24.3 -30.5 C -24.5 -30.7 -24.9 -30.8 -25.3 -30.8 C -25.31 -30.75 -25.7 -30.8 -25.7 -30.8 L -25.7 -31.5 L -22.2 -31.7 Z M -19.7 -25.3 C -20.4 -25.3 -21.1 -25 -21.5 -24.3 C -22 -23.7 -22.3 -22.5 -22.3 -21 C -22.3 -19.5 -22 -18.5 -21.6 -17.8 C -21.1 -17.2 -20.5 -16.9 -19.7 -16.9 C -19 -16.9 -18.4 -17.2 -18 -17.8 C -17.5 -18.6 -17.2 -19.7 -17.2 -21.2 C -17.2 -22.7 -17.4 -23.7 -17.9 -24.4 C -18.4 -25 -19 -25.3 -19.7 -25.3 Z M -8.1 -31.5 L -4.3 -31.7 C -4.3 -31.7 -4.34 -18.55 -4.3 -18.5 C -4.3 -18 -4.2 -17.7 -4.1 -17.5 C -3.9 -17.2 -3.6 -17.1 -3.2 -17.1 C -3.17 -17.12 -2.5 -17.1 -2.5 -17.1 L -2.5 -16.4 L -5.8 -16.4 C -5.8 -16.4 -6.04 -18.31 -6 -18.3 C -6.4 -17.6 -6.9 -17.1 -7.4 -16.7 C -7.9 -16.4 -8.5 -16.2 -9.2 -16.2 C -10.3 -16.2 -11.2 -16.7 -12 -17.6 C -12.7 -18.5 -13.1 -19.7 -13.1 -21.2 C -13.1 -22.8 -12.6 -24.1 -11.6 -25.1 C -10.9 -25.9 -10 -26.3 -9 -26.3 C -8.4 -26.3 -7.8 -26.1 -7.3 -25.8 C -6.8 -25.5 -6.4 -25 -6 -24.4 C -6 -24.4 -6 -29.8 -6 -29.8 C -6 -30.1 -6.1 -30.3 -6.4 -30.5 C -6.6 -30.7 -6.9 -30.8 -7.4 -30.8 C -7.41 -30.75 -8.1 -30.8 -8.1 -30.8 L -8.1 -31.5 Z M -6.9 -24.4 C -7.4 -25.1 -8 -25.4 -8.7 -25.4 C -9.4 -25.4 -10 -25.1 -10.4 -24.5 C -10.9 -23.9 -11.1 -22.9 -11.1 -21.4 C -11.1 -19.8 -10.9 -18.7 -10.4 -18.1 C -10 -17.5 -9.4 -17.1 -8.7 -17.1 C -8 -17.1 -7.3 -17.5 -6.8 -18.2 C -6.3 -18.9 -6 -20 -6 -21.3 C -6 -22.6 -6.3 -23.7 -6.9 -24.4 C -6.9 -24.4 -6.9 -24.4 -6.9 -24.4 Z M 7.8 -17.1 C 8.1 -17.1 8.4 -17.2 8.7 -17.4 C 8.7 -17.4 9 -16.8 9 -16.8 C 8.5 -16.3 8 -16.1 7.4 -16.1 C 6.9 -16.1 6.5 -16.2 6.2 -16.4 C 5.9 -16.7 5.6 -17.1 5.4 -17.8 C 4.7 -17.1 4.1 -16.6 3.7 -16.4 C 3.2 -16.2 2.6 -16.1 1.9 -16.1 C 0.9 -16.1 0.1 -16.3 -0.4 -16.7 C -0.9 -17.1 -1.1 -17.7 -1.1 -18.3 C -1.1 -19.3 -0.5 -20.2 0.6 -20.8 C 1.8 -21.5 3.4 -21.9 5.3 -22.1 C 5.3 -22.1 5.3 -23.6 5.3 -23.6 C 5.3 -24.1 5.1 -24.6 4.7 -24.9 C 4.3 -25.3 3.7 -25.5 3.1 -25.5 C 2.5 -25.5 2 -25.4 1.6 -25.1 C 1.2 -24.9 1.1 -24.7 1.1 -24.6 C 1.1 -24.5 1.2 -24.3 1.3 -24.1 C 1.5 -23.8 1.6 -23.6 1.6 -23.4 C 1.6 -23.1 1.5 -22.8 1.3 -22.6 C 1.1 -22.4 0.9 -22.3 0.6 -22.3 C 0.2 -22.3 -0.1 -22.4 -0.3 -22.7 C -0.5 -22.9 -0.6 -23.2 -0.6 -23.6 C -0.6 -24.2 -0.3 -24.8 0.5 -25.4 C 1.3 -26 2.3 -26.3 3.5 -26.3 C 4.6 -26.3 5.5 -26 6.1 -25.5 C 6.7 -25 7 -24.4 7 -23.7 C 7 -23.7 7 -18.4 7 -18.4 C 7 -18 7.1 -17.6 7.2 -17.4 C 7.4 -17.2 7.6 -17.1 7.8 -17.1 C 7.8 -17.1 7.8 -17.1 7.8 -17.1 Z M 5.3 -21.5 C 3.6 -21.2 2.3 -20.8 1.6 -20.3 C 1.1 -19.9 0.8 -19.3 0.8 -18.5 C 0.8 -18 0.9 -17.6 1.2 -17.3 C 1.5 -17 1.9 -16.9 2.3 -16.9 C 3.1 -16.9 3.8 -17.2 4.4 -17.8 C 5 -18.4 5.3 -19.2 5.3 -20.1 C 5.3 -20.1 5.3 -21.5 5.3 -21.5 Z M 15.6 -26 L 20.3 -26 C 20.3 -26 20.34 -25.27 20.3 -25.3 C 19.7 -25.3 19.3 -25.2 19.1 -25.1 C 19 -25 18.9 -24.9 18.9 -24.7 C 18.9 -24.5 18.9 -24.4 19 -24.2 C 18.97 -24.22 21.5 -18.5 21.5 -18.5 C 21.5 -18.5 23.84 -24.05 23.8 -24 C 23.9 -24.1 23.9 -24.2 23.9 -24.3 C 23.9 -24.8 23.4 -25.1 22.4 -25.3 C 22.42 -25.27 22.4 -26 22.4 -26 L 26.4 -26 C 26.4 -26 26.4 -25.27 26.4 -25.3 C 26 -25.2 25.7 -25.1 25.4 -24.9 C 25.2 -24.8 25 -24.5 24.9 -24.2 C 24.88 -24.22 21.4 -16.1 21.4 -16.1 L 20.8 -16.1 C 20.8 -16.1 17.03 -24.45 17 -24.4 C 16.9 -24.7 16.7 -25 16.5 -25.1 C 16.3 -25.2 16 -25.3 15.6 -25.3 C 15.61 -25.27 15.6 -26 15.6 -26 Z M 36.6 -17.1 C 36.9 -17.1 37.2 -17.2 37.5 -17.4 C 37.5 -17.4 37.8 -16.8 37.8 -16.8 C 37.3 -16.3 36.8 -16.1 36.2 -16.1 C 35.7 -16.1 35.3 -16.2 35 -16.4 C 34.7 -16.7 34.4 -17.1 34.2 -17.8 C 33.5 -17.1 32.9 -16.6 32.4 -16.4 C 32 -16.2 31.4 -16.1 30.7 -16.1 C 29.7 -16.1 28.9 -16.3 28.4 -16.7 C 27.9 -17.1 27.7 -17.7 27.7 -18.3 C 27.7 -19.3 28.2 -20.2 29.4 -20.8 C 30.6 -21.5 32.2 -21.9 34.1 -22.1 C 34.1 -22.1 34.1 -23.6 34.1 -23.6 C 34.1 -24.1 33.9 -24.6 33.5 -24.9 C 33.1 -25.3 32.5 -25.5 31.9 -25.5 C 31.3 -25.5 30.8 -25.4 30.3 -25.1 C 30 -24.9 29.9 -24.7 29.9 -24.6 C 29.9 -24.5 30 -24.3 30.1 -24.1 C 30.3 -23.8 30.4 -23.6 30.4 -23.4 C 30.4 -23.1 30.3 -22.8 30.1 -22.6 C 29.9 -22.4 29.7 -22.3 29.4 -22.3 C 29 -22.3 28.7 -22.4 28.5 -22.7 C 28.3 -22.9 28.2 -23.2 28.2 -23.6 C 28.2 -24.2 28.5 -24.8 29.3 -25.4 C 30.1 -26 31.1 -26.3 32.3 -26.3 C 33.4 -26.3 34.3 -26 34.9 -25.5 C 35.5 -25 35.8 -24.4 35.8 -23.7 C 35.8 -23.7 35.8 -18.4 35.8 -18.4 C 35.8 -18 35.9 -17.6 36 -17.4 C 36.2 -17.2 36.4 -17.1 36.6 -17.1 C 36.6 -17.1 36.6 -17.1 36.6 -17.1 Z M 34.1 -21.5 C 32.4 -21.2 31.1 -20.8 30.4 -20.3 C 29.9 -19.9 29.6 -19.3 29.6 -18.5 C 29.6 -18 29.7 -17.6 30 -17.3 C 30.3 -17 30.7 -16.9 31.1 -16.9 C 31.9 -16.9 32.6 -17.2 33.2 -17.8 C 33.8 -18.4 34.1 -19.2 34.1 -20.1 C 34.1 -20.1 34.1 -21.5 34.1 -21.5 Z M 38.8 -26 L 42.3 -26.1 C 42.3 -26.1 42.29 -22.25 42.3 -22.3 C 42.7 -23.5 43.1 -24.5 43.6 -25.2 C 44.1 -25.8 44.8 -26.1 45.6 -26.1 C 46.1 -26.1 46.5 -26 46.8 -25.7 C 47.1 -25.3 47.3 -24.9 47.3 -24.4 C 47.3 -24 47.2 -23.6 47 -23.4 C 46.7 -23.1 46.5 -23 46.2 -23 C 45.9 -23 45.6 -23.1 45.4 -23.3 C 45.2 -23.5 45.1 -23.8 45.1 -24.2 C 45.1 -24.4 45.2 -24.6 45.3 -24.8 C 45.4 -25 45.5 -25.1 45.5 -25.1 C 45.5 -25.2 45.4 -25.3 45.3 -25.3 C 45 -25.3 44.7 -25.1 44.3 -24.8 C 43.8 -24.3 43.4 -23.7 43.2 -22.9 C 42.8 -21.6 42.6 -20.6 42.6 -19.9 C 42.6 -19.9 42.6 -17.8 42.6 -17.8 C 42.6 -17.6 42.6 -17.4 42.8 -17.3 C 43 -17.2 43.2 -17.1 43.6 -17.1 C 43.65 -17.12 44.9 -17.1 44.9 -17.1 L 44.9 -16.4 L 38.9 -16.4 L 38.9 -17.1 C 38.9 -17.1 39.85 -17.12 39.9 -17.1 C 40.2 -17.1 40.4 -17.2 40.6 -17.3 C 40.7 -17.4 40.8 -17.6 40.8 -17.8 C 40.8 -17.8 40.8 -23.9 40.8 -23.9 C 40.8 -24.4 40.7 -24.7 40.5 -24.9 C 40.3 -25.1 40 -25.2 39.7 -25.2 C 39.68 -25.23 38.8 -25.2 38.8 -25.2 L 38.8 -26 Z M 50.8 -31.7 C 51.1 -31.7 51.4 -31.6 51.6 -31.3 C 51.8 -31.1 52 -30.8 52 -30.5 C 52 -30.2 51.8 -30 51.6 -29.7 C 51.4 -29.5 51.1 -29.4 50.8 -29.4 C 50.5 -29.4 50.2 -29.5 50 -29.7 C 49.8 -30 49.6 -30.2 49.6 -30.5 C 49.6 -30.8 49.8 -31.1 50 -31.3 C 50.2 -31.6 50.5 -31.7 50.8 -31.7 Z M 48.1 -26 L 52 -26.1 C 52 -26.1 51.95 -17.81 52 -17.8 C 52 -17.6 52 -17.4 52.1 -17.3 C 52.3 -17.2 52.5 -17.1 52.7 -17.1 C 52.71 -17.12 53.8 -17.1 53.8 -17.1 L 53.8 -16.4 L 48.3 -16.4 L 48.3 -17.1 C 48.3 -17.1 49.35 -17.12 49.3 -17.1 C 49.6 -17.1 49.9 -17.2 50 -17.3 C 50.1 -17.5 50.2 -17.7 50.2 -18 C 50.2 -18 50.2 -24 50.2 -24 C 50.2 -24.4 50.1 -24.7 49.9 -24.9 C 49.7 -25.1 49.3 -25.2 48.9 -25.2 C 48.92 -25.19 48.1 -25.2 48.1 -25.2 L 48.1 -26 Z M 64.2 -17.1 C 64.5 -17.1 64.8 -17.2 65.1 -17.4 C 65.1 -17.4 65.4 -16.8 65.4 -16.8 C 64.9 -16.3 64.4 -16.1 63.8 -16.1 C 63.3 -16.1 62.9 -16.2 62.6 -16.4 C 62.3 -16.7 62 -17.1 61.8 -17.8 C 61.1 -17.1 60.6 -16.6 60.1 -16.4 C 59.6 -16.2 59 -16.1 58.3 -16.1 C 57.3 -16.1 56.6 -16.3 56 -16.7 C 55.5 -17.1 55.3 -17.7 55.3 -18.3 C 55.3 -19.3 55.9 -20.2 57 -20.8 C 58.2 -21.5 59.8 -21.9 61.7 -22.1 C 61.7 -22.1 61.7 -23.6 61.7 -23.6 C 61.7 -24.1 61.5 -24.6 61.1 -24.9 C 60.7 -25.3 60.1 -25.5 59.5 -25.5 C 58.9 -25.5 58.4 -25.4 58 -25.1 C 57.7 -24.9 57.5 -24.7 57.5 -24.6 C 57.5 -24.5 57.6 -24.3 57.7 -24.1 C 57.9 -23.8 58 -23.6 58 -23.4 C 58 -23.1 57.9 -22.8 57.7 -22.6 C 57.5 -22.4 57.3 -22.3 57 -22.3 C 56.6 -22.3 56.3 -22.4 56.1 -22.7 C 55.9 -22.9 55.8 -23.2 55.8 -23.6 C 55.8 -24.2 56.1 -24.8 56.9 -25.4 C 57.7 -26 58.7 -26.3 59.9 -26.3 C 61 -26.3 61.9 -26 62.5 -25.5 C 63.1 -25 63.4 -24.4 63.4 -23.7 C 63.4 -23.7 63.4 -18.4 63.4 -18.4 C 63.4 -18 63.5 -17.6 63.7 -17.4 C 63.8 -17.2 64 -17.1 64.2 -17.1 C 64.2 -17.1 64.2 -17.1 64.2 -17.1 Z M 61.7 -21.5 C 60 -21.2 58.7 -20.8 58 -20.3 C 57.5 -19.9 57.2 -19.3 57.2 -18.5 C 57.2 -18 57.4 -17.6 57.6 -17.3 C 57.9 -17 58.3 -16.9 58.7 -16.9 C 59.5 -16.9 60.2 -17.2 60.8 -17.8 C 61.4 -18.4 61.7 -19.2 61.7 -20.1 C 61.7 -20.1 61.7 -21.5 61.7 -21.5 Z M 66.6 -26 C 66.6 -26 69.79 -26.16 69.8 -26.2 C 69.9 -25.6 70 -24.9 70.1 -24 C 70.5 -24.7 71 -25.3 71.6 -25.6 C 72.2 -26 72.8 -26.1 73.6 -26.1 C 74.2 -26.1 74.8 -26 75.2 -25.8 C 75.6 -25.5 76 -25.1 76.2 -24.6 C 76.5 -24 76.6 -23.4 76.6 -22.8 C 76.6 -22.8 76.6 -18.1 76.6 -18.1 C 76.6 -17.7 76.7 -17.5 76.8 -17.3 C 77 -17.2 77.3 -17.1 77.6 -17.1 C 77.64 -17.12 78.3 -17.1 78.3 -17.1 L 78.3 -16.4 L 73.2 -16.4 L 73.2 -17.1 C 73.2 -17.1 73.73 -17.12 73.7 -17.1 C 74.2 -17.1 74.5 -17.2 74.7 -17.3 C 74.9 -17.5 74.9 -17.7 74.9 -18 C 74.9 -18 74.9 -22.1 74.9 -22.1 C 74.9 -23 74.8 -23.7 74.5 -24.1 C 74.1 -24.7 73.6 -25 72.8 -25 C 72 -25 71.4 -24.7 70.9 -24.1 C 70.3 -23.5 70.1 -22.6 70.1 -21.6 C 70.1 -21.6 70.1 -18.1 70.1 -18.1 C 70.1 -17.7 70.2 -17.5 70.3 -17.3 C 70.5 -17.2 70.7 -17.1 71.1 -17.1 C 71.12 -17.12 71.8 -17.1 71.8 -17.1 L 71.8 -16.4 L 66.7 -16.4 L 66.7 -17.1 C 66.7 -17.1 67.36 -17.12 67.4 -17.1 C 67.7 -17.1 68 -17.2 68.1 -17.3 C 68.3 -17.5 68.4 -17.6 68.4 -17.8 C 68.4 -17.8 68.4 -24 68.4 -24 C 68.4 -24.5 68.3 -24.8 68.1 -25 C 67.8 -25.2 67.5 -25.3 67.1 -25.3 C 67.1 -25.3 66.6 -25.3 66.6 -25.3 L 66.6 -26 Z M 81 -26.7 C 81.6 -27.4 81.9 -28.5 82 -29.9 C 81.96 -29.88 82.7 -29.9 82.7 -29.9 L 82.7 -26 L 85.8 -26 L 85.8 -25 L 82.7 -25 C 82.7 -25 82.65 -18.86 82.7 -18.9 C 82.7 -18.3 82.8 -17.9 83 -17.6 C 83.3 -17.3 83.6 -17.2 84 -17.2 C 84.5 -17.2 84.9 -17.4 85.2 -17.9 C 85.5 -18.3 85.7 -19 85.8 -20 C 85.8 -20 86.4 -20 86.4 -20 C 86.4 -18.7 86.1 -17.8 85.6 -17.1 C 85 -16.5 84.3 -16.2 83.5 -16.2 C 82.7 -16.2 82.1 -16.4 81.6 -16.9 C 81.2 -17.3 80.9 -17.9 80.9 -18.6 C 80.94 -18.57 80.9 -25 80.9 -25 L 79.3 -25 C 79.3 -25 79.27 -25.74 79.3 -25.7 C 80 -25.9 80.6 -26.2 81 -26.7 C 81 -26.7 81 -26.7 81 -26.7 Z M 93.4 -26 C 93.4 -26 96.63 -26.16 96.6 -26.2 C 96.8 -25.6 96.9 -24.9 96.9 -24 C 97.3 -24.7 97.9 -25.3 98.4 -25.6 C 99 -26 99.7 -26.1 100.4 -26.1 C 101.1 -26.1 101.6 -26 102 -25.8 C 102.5 -25.5 102.8 -25.1 103.1 -24.6 C 103.3 -24 103.4 -23.4 103.4 -22.8 C 103.4 -22.8 103.4 -18.1 103.4 -18.1 C 103.4 -17.7 103.5 -17.5 103.7 -17.3 C 103.8 -17.2 104.1 -17.1 104.5 -17.1 C 104.47 -17.12 105.1 -17.1 105.1 -17.1 L 105.1 -16.4 L 100.1 -16.4 L 100.1 -17.1 C 100.1 -17.1 100.56 -17.12 100.6 -17.1 C 101 -17.1 101.3 -17.2 101.5 -17.3 C 101.7 -17.5 101.8 -17.7 101.8 -18 C 101.8 -18 101.8 -22.1 101.8 -22.1 C 101.8 -23 101.6 -23.7 101.4 -24.1 C 101 -24.7 100.4 -25 99.6 -25 C 98.8 -25 98.2 -24.7 97.7 -24.1 C 97.2 -23.5 96.9 -22.6 96.9 -21.6 C 96.9 -21.6 96.9 -18.1 96.9 -18.1 C 96.9 -17.7 97 -17.5 97.2 -17.3 C 97.3 -17.2 97.6 -17.1 97.9 -17.1 C 97.95 -17.12 98.6 -17.1 98.6 -17.1 L 98.6 -16.4 L 93.5 -16.4 L 93.5 -17.1 C 93.5 -17.1 94.2 -17.12 94.2 -17.1 C 94.5 -17.1 94.8 -17.2 95 -17.3 C 95.1 -17.5 95.2 -17.6 95.2 -17.8 C 95.2 -17.8 95.2 -24 95.2 -24 C 95.2 -24.5 95.1 -24.8 94.9 -25 C 94.7 -25.2 94.3 -25.3 93.9 -25.3 C 93.93 -25.3 93.4 -25.3 93.4 -25.3 L 93.4 -26 Z M 113.6 -25.4 C 114.3 -26.1 114.9 -26.5 115.5 -26.5 C 115.9 -26.5 116.1 -26.3 116.4 -26.1 C 116.6 -25.9 116.7 -25.6 116.7 -25.3 C 116.7 -25.1 116.6 -24.9 116.5 -24.7 C 116.3 -24.5 116.1 -24.4 115.9 -24.4 C 115.5 -24.4 115.3 -24.7 115.1 -25.2 C 115.1 -25.4 115 -25.5 114.9 -25.5 C 114.6 -25.5 114.4 -25.3 114.1 -25 C 114.4 -24.6 114.6 -24.3 114.7 -24 C 114.8 -23.7 114.9 -23.3 114.9 -23 C 114.9 -22.4 114.7 -21.9 114.4 -21.4 C 114.2 -21 113.7 -20.6 113 -20.2 C 112.4 -19.9 111.7 -19.7 111.1 -19.7 C 111.1 -19.7 110 -19.7 110 -19.7 C 109.2 -19.7 108.7 -19.6 108.4 -19.5 C 108.1 -19.3 108 -19 108 -18.7 C 108 -18.4 108.1 -18.2 108.3 -18.1 C 108.5 -17.9 108.9 -17.9 109.5 -17.9 C 109.5 -17.9 112.1 -17.9 112.1 -17.9 C 113.3 -17.9 114.3 -17.7 114.8 -17.3 C 115.4 -16.9 115.7 -16.3 115.7 -15.5 C 115.7 -14.7 115.4 -14 114.7 -13.5 C 113.8 -12.7 112.5 -12.3 110.7 -12.3 C 109.2 -12.3 108.1 -12.5 107.4 -13.1 C 106.9 -13.5 106.6 -14 106.6 -14.5 C 106.6 -14.9 106.8 -15.3 107.1 -15.6 C 107.5 -15.9 108.1 -16.2 108.9 -16.4 C 108.3 -16.5 107.8 -16.8 107.4 -17.1 C 107.1 -17.4 106.9 -17.8 106.9 -18.3 C 106.9 -18.7 107 -19.1 107.3 -19.4 C 107.6 -19.7 108.1 -20 108.8 -20.2 C 108.2 -20.6 107.7 -21 107.4 -21.4 C 107.2 -21.9 107 -22.4 107 -23 C 107 -23.9 107.4 -24.7 108.1 -25.3 C 108.8 -25.9 109.8 -26.3 111 -26.3 C 111.4 -26.3 111.9 -26.2 112.3 -26 C 112.8 -25.9 113.2 -25.7 113.6 -25.4 Z M 110.9 -25.6 C 110.3 -25.6 109.8 -25.4 109.4 -24.9 C 109 -24.5 108.8 -23.8 108.8 -23 C 108.8 -22.2 109 -21.5 109.4 -21 C 109.8 -20.6 110.3 -20.3 110.9 -20.3 C 111.6 -20.3 112.1 -20.6 112.5 -21 C 112.8 -21.5 113 -22.1 113 -23 C 113 -23.8 112.8 -24.4 112.4 -24.9 C 112 -25.4 111.5 -25.6 110.9 -25.6 Z M 111.5 -16.3 C 110.3 -16.3 109.4 -16.2 108.8 -15.8 C 108.3 -15.5 108 -15.1 108 -14.6 C 108 -14.1 108.2 -13.7 108.6 -13.5 C 109.2 -13.1 109.9 -12.9 110.9 -12.9 C 112.1 -12.9 113 -13.1 113.6 -13.5 C 114.2 -13.9 114.5 -14.3 114.5 -14.8 C 114.5 -15.1 114.4 -15.4 114.2 -15.6 C 114 -15.8 113.7 -16 113.3 -16.2 C 112.9 -16.3 112.3 -16.3 111.5 -16.3 Z " stroke="none" fill="#000"/>
  </g>
</svg>