<?xml version="1.0" standalone="no"?>
<!DOCTYPE svg PUBLIC "-//W3C//DTD SVG 1.1//EN" "http://www.w3.org/Graphics/SVG/1.1/DTD/svg11.dtd">
<svg xmlns="http://www.w3.org/2000/svg" version="1.1" width="470.4px" height="92.8px" viewBox="0 -12 470.4 92.8" style="top:-12px">
  <desc>Pagkilatis sa bisa ng polisiya ng staggering GE courses sa enlistment</desc>
  <defs/>
  <g id="Polygon15258">
    <path d="M 2.4 53.1 C 3 55.7 4.4 57.5 6.9 57.5 C 8.5 57.5 9.8 56.5 9.8 55 C 9.8 52.9 7.8 52.1 6.4 51.7 C 3.8 50.9 1.7 49.8 1.7 47.2 C 1.7 44.3 4 42.7 7.4 42.7 C 8.8 42.7 10.4 43 11.4 43.7 C 11.38 43.74 11.4 47.4 11.4 47.4 C 11.4 47.4 10.48 47.37 10.5 47.4 C 10.3 45.5 9.2 43.8 7 43.8 C 5.5 43.8 4.2 44.7 4.2 46.3 C 4.2 48 6.3 48.7 7.5 49.1 C 10.7 50.1 12.4 51.3 12.4 54 C 12.4 56.7 10.3 58.6 6.6 58.6 C 4.8 58.6 2.9 58.1 1.8 57.1 C 1.77 57.13 1.5 53.1 1.5 53.1 C 1.5 53.1 2.36 53.07 2.4 53.1 Z M 13.5 43.1 L 15.9 43.1 L 17.8 39.2 L 18.7 39.2 L 18.7 43.1 L 22.7 43.1 L 22.7 44.3 L 18.7 44.3 C 18.7 44.3 18.69 53.91 18.7 53.9 C 18.7 56.3 19.7 57 20.7 57 C 21.5 57 22.2 56.9 22.9 56.6 C 22.9 56.6 23.2 57.3 23.2 57.3 C 22.3 57.8 20.8 58.6 19.2 58.6 C 18.1 58.6 15.8 58.3 15.8 55.1 C 15.78 55.09 15.8 44.3 15.8 44.3 L 13.5 44.3 L 13.5 43.1 Z M 26.7 50.5 C 29.2 49.8 32.2 49 33 48.2 C 33 48.2 33 46.9 33 46.9 C 33 44.4 31.5 43.8 30.3 43.8 C 29.1 43.8 27.8 44.5 27.1 46.8 C 27 47.3 26.8 47.7 26.1 47.7 C 25.5 47.7 24.4 47.2 24.4 46.2 C 24.4 44.5 27.2 42.7 30.7 42.7 C 35.3 42.7 35.7 45 35.7 46.8 C 35.7 46.8 35.7 54.3 35.7 54.3 C 35.7 56.3 36.3 56.9 36.8 57 C 37.3 57.1 38 57 38.4 56.9 C 38.4 56.9 38.6 57.7 38.6 57.7 C 37.4 58.3 36.1 58.6 34.9 58.6 C 33.9 58.6 33.4 57.9 32.9 56.8 C 31.9 57.4 30.1 58.6 28.3 58.6 C 25.4 58.6 23.8 56.5 23.8 54.2 C 23.8 52.8 24.5 51.2 26.7 50.5 Z M 29.8 57 C 31 57 33 56.3 33 53.8 C 33 53.8 33 49.4 33 49.4 C 32.3 49.9 30.6 50.5 29.4 50.9 C 27.7 51.6 27 52.3 27 53.8 C 27 55.6 27.9 57 29.8 57 Z M 42.5 57.8 C 42.5 57.8 42.5 57.8 42.5 57.8 C 41 57.6 39.7 56.4 39.7 55.3 C 39.7 54.1 40.9 53.2 42.6 52.6 C 42.6 52.6 42.6 52.5 42.6 52.5 C 41.2 52.1 39.2 50.8 39.2 47.9 C 39.2 45.6 40.9 42.7 45.7 42.7 C 47.1 42.7 48.8 43.1 49.7 43.6 C 49.66 43.65 53.6 42.4 53.6 42.4 L 53.9 42.7 L 53.3 44.6 C 53.3 44.6 50.81 44.98 50.8 45 C 51.3 45.5 51.7 46.6 51.7 47.9 C 51.7 51.6 48.4 52.9 45.5 52.9 C 45.1 52.9 44.5 52.9 43.9 52.9 C 43.5 53 42.3 53.5 42.3 54.4 C 42.3 55 42.7 55.7 44.9 55.7 C 44.9 55.7 47.4 55.7 47.4 55.7 C 50.7 55.7 53.4 56.9 53.4 60.2 C 53.4 62.2 52.3 63.6 50.9 64.5 C 49.4 65.4 47.5 65.8 45.6 65.8 C 42 65.8 38.9 64.4 38.9 61.2 C 38.9 59 41.1 58.3 42.5 57.8 Z M 46.3 64.7 C 48.5 64.7 50.7 63.5 50.7 61 C 50.7 58.7 48.7 58 46 58 C 44.5 58 43.5 58.2 42.8 58.7 C 42.2 59.2 41.8 60 41.8 61.1 C 41.8 63.3 43.7 64.7 46.3 64.7 Z M 45.6 51.9 C 47.4 51.9 48.8 50.5 48.8 47.9 C 48.8 44.9 47.2 43.8 45.7 43.8 C 44 43.8 42.4 44.8 42.4 47.9 C 42.4 50.5 43.9 51.9 45.6 51.9 Z M 57.7 57.8 C 57.7 57.8 57.7 57.8 57.7 57.8 C 56.2 57.6 54.9 56.4 54.9 55.3 C 54.9 54.1 56.1 53.2 57.8 52.6 C 57.8 52.6 57.8 52.5 57.8 52.5 C 56.4 52.1 54.4 50.8 54.4 47.9 C 54.4 45.6 56.1 42.7 60.9 42.7 C 62.3 42.7 64 43.1 64.9 43.6 C 64.85 43.65 68.8 42.4 68.8 42.4 L 69.1 42.7 L 68.4 44.6 C 68.4 44.6 66 44.98 66 45 C 66.5 45.5 66.9 46.6 66.9 47.9 C 66.9 51.6 63.6 52.9 60.7 52.9 C 60.3 52.9 59.7 52.9 59.1 52.9 C 58.7 53 57.5 53.5 57.5 54.4 C 57.5 55 57.8 55.7 60.1 55.7 C 60.1 55.7 62.6 55.7 62.6 55.7 C 65.9 55.7 68.5 56.9 68.5 60.2 C 68.5 62.2 67.5 63.6 66.1 64.5 C 64.6 65.4 62.6 65.8 60.8 65.8 C 57.2 65.8 54.1 64.4 54.1 61.2 C 54.1 59 56.3 58.3 57.7 57.8 Z M 61.5 64.7 C 63.7 64.7 65.9 63.5 65.9 61 C 65.9 58.7 63.9 58 61.2 58 C 59.7 58 58.7 58.2 58 58.7 C 57.3 59.2 57 60 57 61.1 C 57 63.3 58.9 64.7 61.5 64.7 Z M 60.8 51.9 C 62.6 51.9 64 50.5 64 47.9 C 64 44.9 62.4 43.8 60.9 43.8 C 59.2 43.8 57.6 44.8 57.6 47.9 C 57.6 50.5 59.1 51.9 60.8 51.9 Z M 76.6 42.7 C 82.3 42.7 82.9 47.1 82.9 48.9 C 82.9 49.9 82.3 50.1 81.7 50.1 C 81.7 50.1 72.7 50.1 72.7 50.1 C 72.7 53.3 73.4 57 77.3 57 C 79.7 57 80.9 55.6 81.8 53.8 C 81.8 53.8 82.7 54.3 82.7 54.3 C 81.9 56.7 80.1 58.6 76.7 58.6 C 71.6 58.6 69.5 55.7 69.5 50.8 C 69.5 46.1 71.8 42.7 76.6 42.7 Z M 78.6 48.9 C 79.5 48.9 79.7 48.5 79.7 47.9 C 79.7 46.7 79.3 43.8 76.4 43.8 C 73.2 43.8 72.8 47.6 72.8 48.9 C 72.8 48.9 78.6 48.9 78.6 48.9 Z M 84 57.4 C 86.1 57.2 86.3 57.1 86.3 55.6 C 86.3 55.6 86.3 45.8 86.3 45.8 C 86.3 44.7 86.1 44.5 85.3 44.4 C 85.31 44.39 84.1 44.2 84.1 44.2 L 84.1 43.5 L 88.8 42.7 C 88.8 42.7 89.22 45.17 89.2 45.2 C 91.3 43.4 92.2 42.7 93.3 42.7 C 94.5 42.7 95 43.5 95 44.2 C 95 45.2 94.3 45.9 93.5 45.9 C 93.4 45.9 93.1 45.9 92.9 45.8 C 92 45.3 91.5 45.1 91 45.1 C 90.3 45.1 89.2 45.9 89.2 48.3 C 89.2 48.3 89.2 55.6 89.2 55.6 C 89.2 57.1 89.4 57.2 92.2 57.4 C 92.16 57.35 92.2 58.3 92.2 58.3 L 84 58.3 C 84 58.3 83.98 57.35 84 57.4 Z M 99.1 36.1 C 100.2 36.1 101 36.9 101 38 C 101 39.1 100.2 39.9 99.1 39.9 C 98 39.9 97.2 39.1 97.2 38 C 97.2 36.9 98 36.1 99.1 36.1 Z M 95.4 57.4 C 97.6 57.2 97.7 57.1 97.7 55.6 C 97.7 55.6 97.7 45.8 97.7 45.8 C 97.7 44.7 97.5 44.5 96.7 44.4 C 96.69 44.39 95.5 44.2 95.5 44.2 L 95.5 43.5 L 100.4 42.7 L 100.6 42.9 C 100.6 42.9 100.59 55.55 100.6 55.6 C 100.6 57.1 100.7 57.2 102.9 57.4 C 102.92 57.35 102.9 58.3 102.9 58.3 L 95.4 58.3 C 95.4 58.3 95.35 57.35 95.4 57.4 Z M 103.4 57.4 C 105.7 57.2 105.8 57.1 105.8 55.6 C 105.8 55.6 105.8 45.8 105.8 45.8 C 105.8 44.7 105.6 44.5 104.8 44.4 C 104.78 44.39 103.6 44.2 103.6 44.2 L 103.6 43.5 L 108.2 42.7 C 108.2 42.7 108.65 45.04 108.7 45 C 110.6 43.8 112 42.7 114.3 42.7 C 117.1 42.7 118.9 44.5 118.9 47.6 C 118.9 47.6 118.9 55.6 118.9 55.6 C 118.9 57.1 119 57.2 121.2 57.4 C 121.18 57.35 121.2 58.3 121.2 58.3 L 113.6 58.3 C 113.6 58.3 113.61 57.35 113.6 57.4 C 115.8 57.2 115.9 57.1 115.9 55.6 C 115.9 55.6 115.9 48.2 115.9 48.2 C 115.9 45.5 114.8 44.4 112.7 44.4 C 111 44.4 109.6 45.4 109 46.6 C 108.7 47.1 108.7 47.5 108.7 48.3 C 108.7 48.3 108.7 55.6 108.7 55.6 C 108.7 57.1 108.8 57.2 111 57.4 C 111.01 57.35 111 58.3 111 58.3 L 103.4 58.3 C 103.4 58.3 103.44 57.35 103.4 57.4 Z M 125.6 57.8 C 125.6 57.8 125.6 57.8 125.6 57.8 C 124.1 57.6 122.9 56.4 122.9 55.3 C 122.9 54.1 124 53.2 125.7 52.6 C 125.7 52.6 125.7 52.5 125.7 52.5 C 124.3 52.1 122.4 50.8 122.4 47.9 C 122.4 45.6 124 42.7 128.8 42.7 C 130.2 42.7 131.9 43.1 132.8 43.6 C 132.77 43.65 136.7 42.4 136.7 42.4 L 137 42.7 L 136.4 44.6 C 136.4 44.6 133.92 44.98 133.9 45 C 134.4 45.5 134.8 46.6 134.8 47.9 C 134.8 51.6 131.5 52.9 128.6 52.9 C 128.2 52.9 127.6 52.9 127 52.9 C 126.6 53 125.4 53.5 125.4 54.4 C 125.4 55 125.8 55.7 128 55.7 C 128 55.7 130.5 55.7 130.5 55.7 C 133.8 55.7 136.5 56.9 136.5 60.2 C 136.5 62.2 135.4 63.6 134 64.5 C 132.5 65.4 130.6 65.8 128.7 65.8 C 125.1 65.8 122 64.4 122 61.2 C 122 59 124.2 58.3 125.6 57.8 Z M 129.4 64.7 C 131.6 64.7 133.9 63.5 133.9 61 C 133.9 58.7 131.8 58 129.1 58 C 127.6 58 126.6 58.2 125.9 58.7 C 125.3 59.2 125 60 125 61.1 C 125 63.3 126.8 64.7 129.4 64.7 Z M 128.7 51.9 C 130.5 51.9 131.9 50.5 131.9 47.9 C 131.9 44.9 130.3 43.8 128.8 43.8 C 127.1 43.8 125.5 44.8 125.5 47.9 C 125.5 50.5 127 51.9 128.7 51.9 Z M 145.6 40.1 C 147.3 37.9 150.4 36.3 155.1 36.3 C 157.6 36.3 160.2 36.9 161.7 37.6 C 161.74 37.6 161.7 42.5 161.7 42.5 C 161.7 42.5 160.81 42.47 160.8 42.5 C 160.2 39 158.2 37.4 154.8 37.4 C 148.7 37.4 146.7 42.5 146.7 47.4 C 146.7 51.3 148 57.6 155.2 57.6 C 156.2 57.6 157.1 57.5 157.9 57.2 C 158.6 56.9 159 56.6 159 55.5 C 159 55.5 159 51.3 159 51.3 C 159 49.8 158.8 49.6 155.7 49.4 C 155.67 49.38 155.7 48.5 155.7 48.5 L 164.2 48.5 C 164.2 48.5 164.22 49.38 164.2 49.4 C 162.2 49.6 162 49.8 162 51.3 C 162 51.3 162 57.4 162 57.4 C 160.1 58 157.1 58.7 154.9 58.7 C 152.2 58.7 149.4 58.4 147.1 56.7 C 144.8 55.1 143.2 51.9 143.2 47.9 C 143.2 44.7 144 42.2 145.6 40.1 Z M 164.7 57.4 C 167.4 57.2 167.4 57.1 167.4 55.4 C 167.4 55.4 167.4 39.7 167.4 39.7 C 167.4 37.9 167.4 37.9 164.7 37.7 C 164.66 37.7 164.7 36.8 164.7 36.8 L 180.3 36.8 L 180.3 41.9 C 180.3 41.9 179.38 41.88 179.4 41.9 C 178.9 38.7 178.2 37.9 174.7 37.9 C 174.7 37.9 171.7 37.9 171.7 37.9 C 170.7 37.9 170.5 38 170.5 39 C 170.52 39 170.5 46.5 170.5 46.5 C 170.5 46.5 174.86 46.5 174.9 46.5 C 177.5 46.5 177.6 45.8 177.9 43.8 C 177.89 43.84 178.8 43.8 178.8 43.8 L 178.8 50.4 C 178.8 50.4 177.89 50.38 177.9 50.4 C 177.6 48.4 177.5 47.7 174.9 47.7 C 174.86 47.68 170.5 47.7 170.5 47.7 C 170.5 47.7 170.52 54.53 170.5 54.5 C 170.5 56 170.6 56.6 171.3 56.9 C 171.9 57.1 173.1 57.2 174.5 57.2 C 178.4 57.2 179.8 56.7 180.5 52.9 C 180.53 52.89 181.5 52.9 181.5 52.9 L 181.1 58.3 L 164.7 58.3 C 164.7 58.3 164.66 57.35 164.7 57.4 Z M 196.3 42.7 C 199.7 42.7 201.7 44.3 201.7 45.7 C 201.7 46.9 200.5 47.3 199.9 47.3 C 199.3 47.3 199.1 47 198.9 46.5 C 198.3 44.8 197.4 43.8 196 43.8 C 193.8 43.8 192 45.6 192 50.3 C 192 53.2 192.9 57 196.6 57 C 198.8 57 200.1 55.9 201 53.7 C 201 53.7 201.9 54.2 201.9 54.2 C 201.1 57.5 198.2 58.6 196 58.6 C 191.3 58.6 188.8 56 188.8 50.8 C 188.8 46.7 190.7 42.7 196.3 42.7 Z M 210.7 42.7 C 215.7 42.7 218.1 45.6 218.1 50.7 C 218.1 55.7 215.7 58.6 210.7 58.6 C 205.7 58.6 203.2 55.7 203.2 50.7 C 203.2 45.6 205.7 42.7 210.7 42.7 Z M 210.7 57.5 C 213.5 57.5 214.9 54.9 214.9 50.7 C 214.9 46.4 213.5 43.8 210.7 43.8 C 207.8 43.8 206.5 46.4 206.5 50.7 C 206.5 54.9 207.8 57.5 210.7 57.5 Z M 219.5 43.5 L 224.4 42.7 L 224.6 42.9 C 224.6 42.9 224.57 53.41 224.6 53.4 C 224.6 55.8 225.9 56.9 227.7 56.9 C 229.3 56.9 230.8 56 231.5 54.6 C 231.7 54.3 231.8 53.6 231.8 52.8 C 231.8 52.8 231.8 45.8 231.8 45.8 C 231.8 44.7 231.6 44.5 230.8 44.4 C 230.77 44.39 229.6 44.2 229.6 44.2 L 229.6 43.5 L 234.5 42.7 L 234.7 42.9 C 234.7 42.9 234.67 55.55 234.7 55.6 C 234.7 57.1 234.9 57.2 237 57.4 C 237 57.35 237 58.3 237 58.3 L 232 58.3 C 232 58.3 231.73 56.39 231.7 56.4 C 230.8 56.8 228.7 58.6 226.1 58.6 C 223.8 58.6 221.7 57.5 221.7 54 C 221.7 54 221.7 45.8 221.7 45.8 C 221.7 44.7 221.5 44.5 220.7 44.4 C 220.66 44.39 219.5 44.2 219.5 44.2 L 219.5 43.5 Z M 237.5 57.4 C 239.7 57.2 239.8 57.1 239.8 55.6 C 239.8 55.6 239.8 45.8 239.8 45.8 C 239.8 44.7 239.7 44.5 238.9 44.4 C 238.86 44.39 237.7 44.2 237.7 44.2 L 237.7 43.5 L 242.4 42.7 C 242.4 42.7 242.76 45.17 242.8 45.2 C 244.8 43.4 245.7 42.7 246.9 42.7 C 248.1 42.7 248.5 43.5 248.5 44.2 C 248.5 45.2 247.8 45.9 247.1 45.9 C 246.9 45.9 246.7 45.9 246.5 45.8 C 245.6 45.3 245 45.1 244.5 45.1 C 243.8 45.1 242.8 45.9 242.8 48.3 C 242.8 48.3 242.8 55.6 242.8 55.6 C 242.8 57.1 242.9 57.2 245.7 57.4 C 245.71 57.35 245.7 58.3 245.7 58.3 L 237.5 58.3 C 237.5 58.3 237.52 57.35 237.5 57.4 Z M 250 53.1 C 250.6 55.7 252 57.5 254.5 57.5 C 256.2 57.5 257.4 56.5 257.4 55 C 257.4 52.9 255.5 52.1 254.1 51.7 C 251.5 50.9 249.4 49.8 249.4 47.2 C 249.4 44.3 251.7 42.7 255 42.7 C 256.4 42.7 258 43 259 43.7 C 259.04 43.74 259 47.4 259 47.4 C 259 47.4 258.14 47.37 258.1 47.4 C 257.9 45.5 256.9 43.8 254.7 43.8 C 253.1 43.8 251.9 44.7 251.9 46.3 C 251.9 48 253.9 48.7 255.2 49.1 C 258.4 50.1 260.1 51.3 260.1 54 C 260.1 56.7 258 58.6 254.3 58.6 C 252.4 58.6 250.5 58.1 249.4 57.1 C 249.43 57.13 249.1 53.1 249.1 53.1 C 249.1 53.1 250.02 53.07 250 53.1 Z M 268.9 42.7 C 274.6 42.7 275.2 47.1 275.2 48.9 C 275.2 49.9 274.6 50.1 273.9 50.1 C 273.9 50.1 265 50.1 265 50.1 C 264.9 53.3 265.7 57 269.5 57 C 272 57 273.2 55.6 274 53.8 C 274 53.8 275 54.3 275 54.3 C 274.1 56.7 272.4 58.6 268.9 58.6 C 263.9 58.6 261.8 55.7 261.8 50.8 C 261.8 46.1 264.1 42.7 268.9 42.7 Z M 270.9 48.9 C 271.7 48.9 271.9 48.5 271.9 47.9 C 271.9 46.7 271.6 43.8 268.7 43.8 C 265.5 43.8 265 47.6 265 48.9 C 265 48.9 270.9 48.9 270.9 48.9 Z M 277.6 53.1 C 278.2 55.7 279.6 57.5 282.1 57.5 C 283.8 57.5 285 56.5 285 55 C 285 52.9 283.1 52.1 281.7 51.7 C 279.1 50.9 277 49.8 277 47.2 C 277 44.3 279.3 42.7 282.6 42.7 C 284 42.7 285.6 43 286.6 43.7 C 286.63 43.74 286.6 47.4 286.6 47.4 C 286.6 47.4 285.73 47.37 285.7 47.4 C 285.5 45.5 284.5 43.8 282.3 43.8 C 280.7 43.8 279.5 44.7 279.5 46.3 C 279.5 48 281.5 48.7 282.8 49.1 C 286 50.1 287.7 51.3 287.7 54 C 287.7 56.7 285.5 58.6 281.9 58.6 C 280 58.6 278.1 58.1 277 57.1 C 277.02 57.13 276.7 53.1 276.7 53.1 C 276.7 53.1 277.61 53.07 277.6 53.1 Z M 296 53.1 C 296.7 55.7 298.1 57.5 300.6 57.5 C 302.2 57.5 303.4 56.5 303.4 55 C 303.4 52.9 301.5 52.1 300.1 51.7 C 297.5 50.9 295.4 49.8 295.4 47.2 C 295.4 44.3 297.7 42.7 301.1 42.7 C 302.5 42.7 304 43 305.1 43.7 C 305.06 43.74 305.1 47.4 305.1 47.4 C 305.1 47.4 304.16 47.37 304.2 47.4 C 303.9 45.5 302.9 43.8 300.7 43.8 C 299.1 43.8 297.9 44.7 297.9 46.3 C 297.9 48 299.9 48.7 301.2 49.1 C 304.4 50.1 306.1 51.3 306.1 54 C 306.1 56.7 304 58.6 300.3 58.6 C 298.5 58.6 296.6 58.1 295.5 57.1 C 295.45 57.13 295.1 53.1 295.1 53.1 C 295.1 53.1 296.04 53.07 296 53.1 Z M 310.7 50.5 C 313.1 49.8 316.1 49 316.9 48.2 C 316.9 48.2 316.9 46.9 316.9 46.9 C 316.9 44.4 315.5 43.8 314.3 43.8 C 313 43.8 311.8 44.5 311.1 46.8 C 310.9 47.3 310.7 47.7 310.1 47.7 C 309.5 47.7 308.3 47.2 308.3 46.2 C 308.3 44.5 311.1 42.7 314.6 42.7 C 319.3 42.7 319.7 45 319.7 46.8 C 319.7 46.8 319.7 54.3 319.7 54.3 C 319.7 56.3 320.2 56.9 320.8 57 C 321.2 57.1 321.9 57 322.4 56.9 C 322.4 56.9 322.5 57.7 322.5 57.7 C 321.4 58.3 320 58.6 318.9 58.6 C 317.8 58.6 317.3 57.9 316.9 56.8 C 315.9 57.4 314.1 58.6 312.3 58.6 C 309.3 58.6 307.8 56.5 307.8 54.2 C 307.8 52.8 308.4 51.2 310.7 50.5 Z M 313.8 57 C 315 57 316.9 56.3 316.9 53.8 C 316.9 53.8 316.9 49.4 316.9 49.4 C 316.2 49.9 314.6 50.5 313.3 50.9 C 311.6 51.6 310.9 52.3 310.9 53.8 C 310.9 55.6 311.8 57 313.8 57 Z M 336 42.7 C 341.7 42.7 342.3 47.1 342.3 48.9 C 342.3 49.9 341.7 50.1 341.1 50.1 C 341.1 50.1 332.1 50.1 332.1 50.1 C 332.1 53.3 332.9 57 336.7 57 C 339.1 57 340.3 55.6 341.2 53.8 C 341.2 53.8 342.1 54.3 342.1 54.3 C 341.3 56.7 339.5 58.6 336.1 58.6 C 331 58.6 328.9 55.7 328.9 50.8 C 328.9 46.1 331.2 42.7 336 42.7 Z M 338 48.9 C 338.9 48.9 339.1 48.5 339.1 47.9 C 339.1 46.7 338.7 43.8 335.9 43.8 C 332.6 43.8 332.2 47.6 332.2 48.9 C 332.2 48.9 338 48.9 338 48.9 Z M 343.4 57.4 C 345.6 57.2 345.7 57.1 345.7 55.6 C 345.7 55.6 345.7 45.8 345.7 45.8 C 345.7 44.7 345.5 44.5 344.7 44.4 C 344.73 44.39 343.6 44.2 343.6 44.2 L 343.6 43.5 L 348.2 42.7 C 348.2 42.7 348.6 45.04 348.6 45 C 350.5 43.8 352 42.7 354.2 42.7 C 357.1 42.7 358.8 44.5 358.8 47.6 C 358.8 47.6 358.8 55.6 358.8 55.6 C 358.8 57.1 358.9 57.2 361.1 57.4 C 361.13 57.35 361.1 58.3 361.1 58.3 L 353.6 58.3 C 353.6 58.3 353.56 57.35 353.6 57.4 C 355.8 57.2 355.9 57.1 355.9 55.6 C 355.9 55.6 355.9 48.2 355.9 48.2 C 355.9 45.5 354.7 44.4 352.6 44.4 C 351 44.4 349.6 45.4 348.9 46.6 C 348.7 47.1 348.6 47.5 348.6 48.3 C 348.6 48.3 348.6 55.6 348.6 55.6 C 348.6 57.1 348.8 57.2 351 57.4 C 350.96 57.35 351 58.3 351 58.3 L 343.4 58.3 C 343.4 58.3 343.4 57.35 343.4 57.4 Z M 361.3 57.4 C 363.5 57.2 363.6 57.1 363.6 55.6 C 363.6 55.6 363.6 38.3 363.6 38.3 C 363.6 37.2 363.4 37 362.6 36.9 C 362.62 36.92 361.4 36.8 361.4 36.8 L 361.4 36 L 366.3 35.2 L 366.5 35.4 C 366.5 35.4 366.52 55.55 366.5 55.6 C 366.5 57.1 366.6 57.2 368.8 57.4 C 368.85 57.35 368.8 58.3 368.8 58.3 L 361.3 58.3 C 361.3 58.3 361.28 57.35 361.3 57.4 Z M 373.1 36.1 C 374.2 36.1 375 36.9 375 38 C 375 39.1 374.2 39.9 373.1 39.9 C 372 39.9 371.2 39.1 371.2 38 C 371.2 36.9 372 36.1 373.1 36.1 Z M 369.4 57.4 C 371.6 57.2 371.7 57.1 371.7 55.6 C 371.7 55.6 371.7 45.8 371.7 45.8 C 371.7 44.7 371.5 44.5 370.7 44.4 C 370.71 44.39 369.5 44.2 369.5 44.2 L 369.5 43.5 L 374.4 42.7 L 374.6 42.9 C 374.6 42.9 374.61 55.55 374.6 55.6 C 374.6 57.1 374.7 57.2 376.9 57.4 C 376.94 57.35 376.9 58.3 376.9 58.3 L 369.4 58.3 C 369.4 58.3 369.37 57.35 369.4 57.4 Z M 378.8 53.1 C 379.4 55.7 380.8 57.5 383.4 57.5 C 385 57.5 386.2 56.5 386.2 55 C 386.2 52.9 384.3 52.1 382.9 51.7 C 380.3 50.9 378.2 49.8 378.2 47.2 C 378.2 44.3 380.5 42.7 383.8 42.7 C 385.2 42.7 386.8 43 387.8 43.7 C 387.85 43.74 387.8 47.4 387.8 47.4 C 387.8 47.4 386.95 47.37 386.9 47.4 C 386.7 45.5 385.7 43.8 383.5 43.8 C 381.9 43.8 380.7 44.7 380.7 46.3 C 380.7 48 382.7 48.7 384 49.1 C 387.2 50.1 388.9 51.3 388.9 54 C 388.9 56.7 386.8 58.6 383.1 58.6 C 381.2 58.6 379.4 58.1 378.2 57.1 C 378.24 57.13 377.9 53.1 377.9 53.1 C 377.9 53.1 378.83 53.07 378.8 53.1 Z M 390 43.1 L 392.4 43.1 L 394.3 39.2 L 395.2 39.2 L 395.2 43.1 L 399.2 43.1 L 399.2 44.3 L 395.2 44.3 C 395.2 44.3 395.16 53.91 395.2 53.9 C 395.2 56.3 396.2 57 397.2 57 C 398 57 398.7 56.9 399.4 56.6 C 399.4 56.6 399.7 57.3 399.7 57.3 C 398.8 57.8 397.3 58.6 395.7 58.6 C 394.6 58.6 392.3 58.3 392.3 55.1 C 392.25 55.09 392.3 44.3 392.3 44.3 L 390 44.3 L 390 43.1 Z M 399.8 57.4 C 402 57.2 402.1 57.1 402.1 55.6 C 402.1 55.6 402.1 45.8 402.1 45.8 C 402.1 44.7 401.9 44.5 401.1 44.4 C 401.12 44.39 399.9 44.2 399.9 44.2 L 399.9 43.5 L 404.7 42.7 C 404.7 42.7 405.02 45.04 405 45 C 406.1 44.2 408.1 42.7 410.4 42.7 C 412.6 42.7 413.8 43.6 414.5 45.1 C 415.6 44.4 417.5 42.7 420 42.7 C 422.9 42.7 424.6 44.5 424.6 47.6 C 424.6 47.6 424.6 55.6 424.6 55.6 C 424.6 57.1 424.7 57.2 426.9 57.4 C 426.94 57.35 426.9 58.3 426.9 58.3 L 419.4 58.3 C 419.4 58.3 419.38 57.35 419.4 57.4 C 421.6 57.2 421.7 57.1 421.7 55.6 C 421.7 55.6 421.7 48.2 421.7 48.2 C 421.7 45.5 420.5 44.4 418.6 44.4 C 416.8 44.4 415.5 45.4 415 46.6 C 414.8 47.1 414.8 47.5 414.8 48.3 C 414.8 48.3 414.8 55.6 414.8 55.6 C 414.8 57.1 414.9 57.2 417.1 57.4 C 417.14 57.35 417.1 58.3 417.1 58.3 L 409.6 58.3 C 409.6 58.3 409.58 57.35 409.6 57.4 C 411.8 57.2 411.9 57.1 411.9 55.6 C 411.9 55.6 411.9 48.2 411.9 48.2 C 411.9 46.3 411.6 44.4 408.9 44.4 C 407.2 44.4 405.9 45.4 405.3 46.7 C 405.1 47.1 405 47.5 405 48.3 C 405 48.3 405 55.6 405 55.6 C 405 57.1 405.1 57.2 407.3 57.4 C 407.35 57.35 407.3 58.3 407.3 58.3 L 399.8 58.3 C 399.8 58.3 399.78 57.35 399.8 57.4 Z M 435.1 42.7 C 440.8 42.7 441.4 47.1 441.4 48.9 C 441.4 49.9 440.8 50.1 440.1 50.1 C 440.1 50.1 431.2 50.1 431.2 50.1 C 431.2 53.3 431.9 57 435.8 57 C 438.2 57 439.4 55.6 440.3 53.8 C 440.3 53.8 441.2 54.3 441.2 54.3 C 440.4 56.7 438.6 58.6 435.2 58.6 C 430.1 58.6 428 55.7 428 50.8 C 428 46.1 430.3 42.7 435.1 42.7 Z M 437.1 48.9 C 438 48.9 438.2 48.5 438.2 47.9 C 438.2 46.7 437.8 43.8 434.9 43.8 C 431.7 43.8 431.2 47.6 431.2 48.9 C 431.2 48.9 437.1 48.9 437.1 48.9 Z M 442.5 57.4 C 444.7 57.2 444.8 57.1 444.8 55.6 C 444.8 55.6 444.8 45.8 444.8 45.8 C 444.8 44.7 444.6 44.5 443.8 44.4 C 443.8 44.39 442.6 44.2 442.6 44.2 L 442.6 43.5 L 447.2 42.7 C 447.2 42.7 447.68 45.04 447.7 45 C 449.6 43.8 451 42.7 453.3 42.7 C 456.2 42.7 457.9 44.5 457.9 47.6 C 457.9 47.6 457.9 55.6 457.9 55.6 C 457.9 57.1 458 57.2 460.2 57.4 C 460.2 57.35 460.2 58.3 460.2 58.3 L 452.6 58.3 C 452.6 58.3 452.64 57.35 452.6 57.4 C 454.9 57.2 455 57.1 455 55.6 C 455 55.6 455 48.2 455 48.2 C 455 45.5 453.8 44.4 451.7 44.4 C 450.1 44.4 448.7 45.4 448 46.6 C 447.8 47.1 447.7 47.5 447.7 48.3 C 447.7 48.3 447.7 55.6 447.7 55.6 C 447.7 57.1 447.8 57.2 450 57.4 C 450.03 57.35 450 58.3 450 58.3 L 442.5 58.3 C 442.5 58.3 442.47 57.35 442.5 57.4 Z M 460.7 43.1 L 463.1 43.1 L 464.9 39.2 L 465.8 39.2 L 465.8 43.1 L 469.8 43.1 L 469.8 44.3 L 465.8 44.3 C 465.8 44.3 465.84 53.91 465.8 53.9 C 465.8 56.3 466.8 57 467.9 57 C 468.7 57 469.3 56.9 470.1 56.6 C 470.1 56.6 470.3 57.3 470.3 57.3 C 469.4 57.8 468 58.6 466.4 58.6 C 465.3 58.6 462.9 58.3 462.9 55.1 C 462.93 55.09 462.9 44.3 462.9 44.3 L 460.7 44.3 L 460.7 43.1 Z " stroke="none" fill="#000"/>
  </g>
  <g id="Polygon15257">
    <path d="M 1.1 22.4 C 3.8 22.2 3.9 22.1 3.9 20.4 C 3.9 20.4 3.9 4.7 3.9 4.7 C 3.9 2.9 3.8 2.9 1.1 2.7 C 1.09 2.7 1.1 1.8 1.1 1.8 C 1.1 1.8 9.73 1.8 9.7 1.8 C 11.9 1.8 13.9 2.1 15.4 3 C 16.8 3.9 17.8 5.5 17.8 7.9 C 17.8 11.7 15.1 13.4 12.7 14 C 11.5 14.3 10.1 14.4 8.7 14.4 C 8.71 14.45 6.9 14.4 6.9 14.4 C 6.9 14.4 6.94 20.37 6.9 20.4 C 6.9 22.1 7 22.2 10.2 22.4 C 10.23 22.35 10.2 23.3 10.2 23.3 L 1.1 23.3 C 1.1 23.3 1.09 22.35 1.1 22.4 Z M 9.2 13.4 C 11.9 13.4 14.4 12 14.4 8.1 C 14.4 4.7 12.5 2.9 9.3 2.9 C 7.3 2.9 6.9 3.2 6.9 4 C 6.9 4 6.9 12.2 6.9 12.2 C 6.9 13.3 7.4 13.4 9.2 13.4 Z M 21 15.5 C 23.4 14.8 26.4 14 27.2 13.2 C 27.2 13.2 27.2 11.9 27.2 11.9 C 27.2 9.4 25.8 8.8 24.6 8.8 C 23.3 8.8 22 9.5 21.4 11.8 C 21.2 12.3 21 12.7 20.4 12.7 C 19.8 12.7 18.6 12.2 18.6 11.2 C 18.6 9.5 21.4 7.7 24.9 7.7 C 29.6 7.7 30 10 30 11.8 C 30 11.8 30 19.3 30 19.3 C 30 21.3 30.5 21.9 31.1 22 C 31.5 22.1 32.2 22 32.6 21.9 C 32.6 21.9 32.8 22.7 32.8 22.7 C 31.7 23.3 30.3 23.6 29.2 23.6 C 28.1 23.6 27.6 22.9 27.2 21.8 C 26.2 22.4 24.3 23.6 22.5 23.6 C 19.6 23.6 18.1 21.5 18.1 19.2 C 18.1 17.8 18.7 16.2 21 15.5 Z M 24.1 22 C 25.3 22 27.2 21.3 27.2 18.8 C 27.2 18.8 27.2 14.4 27.2 14.4 C 26.5 14.9 24.9 15.5 23.6 15.9 C 21.9 16.6 21.2 17.3 21.2 18.8 C 21.2 20.6 22.1 22 24.1 22 Z M 36.7 22.8 C 36.7 22.8 36.7 22.8 36.7 22.8 C 35.2 22.6 34 21.4 34 20.3 C 34 19.1 35.2 18.2 36.8 17.6 C 36.8 17.6 36.8 17.5 36.8 17.5 C 35.4 17.1 33.5 15.8 33.5 12.9 C 33.5 10.6 35.2 7.7 39.9 7.7 C 41.3 7.7 43 8.1 43.9 8.6 C 43.9 8.65 47.9 7.4 47.9 7.4 L 48.1 7.7 L 47.5 9.6 C 47.5 9.6 45.04 9.98 45 10 C 45.6 10.5 46 11.6 46 12.9 C 46 16.6 42.7 17.9 39.7 17.9 C 39.4 17.9 38.7 17.9 38.1 17.9 C 37.7 18 36.5 18.5 36.5 19.4 C 36.5 20 36.9 20.7 39.1 20.7 C 39.1 20.7 41.6 20.7 41.6 20.7 C 44.9 20.7 47.6 21.9 47.6 25.2 C 47.6 27.2 46.6 28.6 45.1 29.5 C 43.6 30.4 41.7 30.8 39.8 30.8 C 36.2 30.8 33.1 29.4 33.1 26.2 C 33.1 24 35.4 23.3 36.7 22.8 Z M 40.5 29.7 C 42.7 29.7 45 28.5 45 26 C 45 23.7 43 23 40.2 23 C 38.7 23 37.7 23.2 37 23.7 C 36.4 24.2 36.1 25 36.1 26.1 C 36.1 28.3 37.9 29.7 40.5 29.7 Z M 39.8 16.9 C 41.6 16.9 43 15.5 43 12.9 C 43 9.9 41.4 8.8 39.9 8.8 C 38.3 8.8 36.6 9.8 36.6 12.9 C 36.6 15.5 38.1 16.9 39.8 16.9 Z M 47.6 22.4 C 49.9 22.2 50 22.1 50 20.6 C 50 20.6 50 3.3 50 3.3 C 50 2.2 49.8 2 49 1.9 C 48.98 1.92 47.8 1.8 47.8 1.8 L 47.8 1 L 52.7 0.2 L 52.9 0.4 L 52.9 14.9 C 52.9 14.9 52.95 14.94 52.9 14.9 C 53.7 13.9 56.7 10 57.6 9 C 58.2 8.2 58.5 8.1 59.6 8.1 C 59.58 8.06 62.8 8.1 62.8 8.1 C 62.8 8.1 62.77 8.93 62.8 8.9 C 61 9.1 60.2 9.5 59.1 10.3 C 58.1 11 57.1 11.9 55.6 13.6 C 55.3 14 55.4 14.1 55.5 14.4 C 56.7 16 59.1 19 61 20.9 C 62 21.8 62.8 22.3 63.7 22.5 C 63.7 22.54 63.7 23.4 63.7 23.4 C 63.7 23.4 61.38 23.31 61.4 23.3 C 60.4 23.3 59.2 22.9 58 21.7 C 56.4 20.1 54.2 17.4 52.9 15.4 C 52.95 15.38 52.9 15.4 52.9 15.4 C 52.9 15.4 52.89 20.55 52.9 20.6 C 52.9 22.1 53 22.2 55.2 22.4 C 55.21 22.35 55.2 23.3 55.2 23.3 L 47.6 23.3 C 47.6 23.3 47.65 22.35 47.6 22.4 Z M 67.1 1.1 C 68.2 1.1 69 1.9 69 3 C 69 4.1 68.2 4.9 67.1 4.9 C 66 4.9 65.2 4.1 65.2 3 C 65.2 1.9 66 1.1 67.1 1.1 Z M 63.3 22.4 C 65.6 22.2 65.7 22.1 65.7 20.6 C 65.7 20.6 65.7 10.8 65.7 10.8 C 65.7 9.7 65.5 9.5 64.7 9.4 C 64.66 9.39 63.5 9.2 63.5 9.2 L 63.5 8.5 L 68.4 7.7 L 68.6 7.9 C 68.6 7.9 68.57 20.55 68.6 20.6 C 68.6 22.1 68.7 22.2 70.9 22.4 C 70.9 22.35 70.9 23.3 70.9 23.3 L 63.3 23.3 C 63.3 23.3 63.33 22.35 63.3 22.4 Z M 71.1 22.4 C 73.3 22.2 73.4 22.1 73.4 20.6 C 73.4 20.6 73.4 3.3 73.4 3.3 C 73.4 2.2 73.2 2 72.4 1.9 C 72.38 1.92 71.2 1.8 71.2 1.8 L 71.2 1 L 76.1 0.2 L 76.3 0.4 C 76.3 0.4 76.29 20.55 76.3 20.6 C 76.3 22.1 76.4 22.2 78.6 22.4 C 78.61 22.35 78.6 23.3 78.6 23.3 L 71.1 23.3 C 71.1 23.3 71.05 22.35 71.1 22.4 Z M 82.6 15.5 C 85 14.8 88 14 88.8 13.2 C 88.8 13.2 88.8 11.9 88.8 11.9 C 88.8 9.4 87.4 8.8 86.1 8.8 C 84.9 8.8 83.6 9.5 83 11.8 C 82.8 12.3 82.6 12.7 82 12.7 C 81.4 12.7 80.2 12.2 80.2 11.2 C 80.2 9.5 83 7.7 86.5 7.7 C 91.2 7.7 91.6 10 91.6 11.8 C 91.6 11.8 91.6 19.3 91.6 19.3 C 91.6 21.3 92.1 21.9 92.7 22 C 93.1 22.1 93.8 22 94.2 21.9 C 94.2 21.9 94.4 22.7 94.4 22.7 C 93.2 23.3 91.9 23.6 90.8 23.6 C 89.7 23.6 89.2 22.9 88.8 21.8 C 87.8 22.4 85.9 23.6 84.1 23.6 C 81.2 23.6 79.7 21.5 79.7 19.2 C 79.7 17.8 80.3 16.2 82.6 15.5 Z M 85.7 22 C 86.9 22 88.8 21.3 88.8 18.8 C 88.8 18.8 88.8 14.4 88.8 14.4 C 88.1 14.9 86.5 15.5 85.2 15.9 C 83.5 16.6 82.8 17.3 82.8 18.8 C 82.8 20.6 83.7 22 85.7 22 Z M 94.4 8.1 L 96.7 8.1 L 98.6 4.2 L 99.5 4.2 L 99.5 8.1 L 103.5 8.1 L 103.5 9.3 L 99.5 9.3 C 99.5 9.3 99.54 18.91 99.5 18.9 C 99.5 21.3 100.5 22 101.6 22 C 102.4 22 103 21.9 103.8 21.6 C 103.8 21.6 104 22.3 104 22.3 C 103.1 22.8 101.6 23.6 100.1 23.6 C 99 23.6 96.6 23.3 96.6 20.1 C 96.63 20.09 96.6 9.3 96.6 9.3 L 94.4 9.3 L 94.4 8.1 Z M 107.9 1.1 C 109 1.1 109.8 1.9 109.8 3 C 109.8 4.1 109 4.9 107.9 4.9 C 106.8 4.9 106 4.1 106 3 C 106 1.9 106.8 1.1 107.9 1.1 Z M 104.2 22.4 C 106.4 22.2 106.5 22.1 106.5 20.6 C 106.5 20.6 106.5 10.8 106.5 10.8 C 106.5 9.7 106.3 9.5 105.5 9.4 C 105.49 9.39 104.3 9.2 104.3 9.2 L 104.3 8.5 L 109.2 7.7 L 109.4 7.9 C 109.4 7.9 109.4 20.55 109.4 20.6 C 109.4 22.1 109.5 22.2 111.7 22.4 C 111.72 22.35 111.7 23.3 111.7 23.3 L 104.2 23.3 C 104.2 23.3 104.16 22.35 104.2 22.4 Z M 113.6 18.1 C 114.2 20.7 115.6 22.5 118.1 22.5 C 119.8 22.5 121 21.5 121 20 C 121 17.9 119.1 17.1 117.7 16.7 C 115.1 15.9 113 14.8 113 12.2 C 113 9.3 115.3 7.7 118.6 7.7 C 120 7.7 121.6 8 122.6 8.7 C 122.63 8.74 122.6 12.4 122.6 12.4 C 122.6 12.4 121.73 12.37 121.7 12.4 C 121.5 10.5 120.5 8.8 118.3 8.8 C 116.7 8.8 115.5 9.7 115.5 11.3 C 115.5 13 117.5 13.7 118.8 14.1 C 122 15.1 123.7 16.3 123.7 19 C 123.7 21.7 121.5 23.6 117.9 23.6 C 116 23.6 114.1 23.1 113 22.1 C 113.02 22.13 112.7 18.1 112.7 18.1 C 112.7 18.1 113.61 18.07 113.6 18.1 Z M 132.2 18.1 C 132.9 20.7 134.3 22.5 136.8 22.5 C 138.4 22.5 139.7 21.5 139.7 20 C 139.7 17.9 137.7 17.1 136.3 16.7 C 133.7 15.9 131.6 14.8 131.6 12.2 C 131.6 9.3 133.9 7.7 137.3 7.7 C 138.7 7.7 140.2 8 141.3 8.7 C 141.26 8.74 141.3 12.4 141.3 12.4 C 141.3 12.4 140.36 12.37 140.4 12.4 C 140.1 10.5 139.1 8.8 136.9 8.8 C 135.3 8.8 134.1 9.7 134.1 11.3 C 134.1 13 136.1 13.7 137.4 14.1 C 140.6 15.1 142.3 16.3 142.3 19 C 142.3 21.7 140.2 23.6 136.5 23.6 C 134.7 23.6 132.8 23.1 131.7 22.1 C 131.65 22.13 131.3 18.1 131.3 18.1 C 131.3 18.1 132.24 18.07 132.2 18.1 Z M 146.9 15.5 C 149.3 14.8 152.3 14 153.1 13.2 C 153.1 13.2 153.1 11.9 153.1 11.9 C 153.1 9.4 151.7 8.8 150.5 8.8 C 149.2 8.8 148 9.5 147.3 11.8 C 147.1 12.3 146.9 12.7 146.3 12.7 C 145.7 12.7 144.5 12.2 144.5 11.2 C 144.5 9.5 147.3 7.7 150.8 7.7 C 155.5 7.7 155.9 10 155.9 11.8 C 155.9 11.8 155.9 19.3 155.9 19.3 C 155.9 21.3 156.4 21.9 157 22 C 157.4 22.1 158.1 22 158.6 21.9 C 158.6 21.9 158.7 22.7 158.7 22.7 C 157.6 23.3 156.2 23.6 155.1 23.6 C 154 23.6 153.5 22.9 153.1 21.8 C 152.1 22.4 150.3 23.6 148.5 23.6 C 145.5 23.6 144 21.5 144 19.2 C 144 17.8 144.6 16.2 146.9 15.5 Z M 150 22 C 151.2 22 153.1 21.3 153.1 18.8 C 153.1 18.8 153.1 14.4 153.1 14.4 C 152.4 14.9 150.8 15.5 149.5 15.9 C 147.8 16.6 147.1 17.3 147.1 18.8 C 147.1 20.6 148.1 22 150 22 Z M 164.4 1 L 169.3 0.2 L 169.5 0.4 C 169.5 0.4 169.5 9.89 169.5 9.9 C 170.7 9.2 172.5 7.7 174.8 7.7 C 180.4 7.7 180.8 13.4 180.8 15.3 C 180.8 21.6 177.2 23.6 173.1 23.6 C 170.8 23.6 169.5 23 168.4 22.4 C 168.39 22.41 167.1 23.6 167.1 23.6 L 166.6 23.4 C 166.6 23.4 166.59 3.35 166.6 3.3 C 166.6 2.2 166.4 2 165.6 1.9 C 165.6 1.92 164.4 1.8 164.4 1.8 L 164.4 1 Z M 169.7 20.2 C 170.3 21.7 171.5 22.5 173.1 22.5 C 176.2 22.5 177.6 20.1 177.6 15.5 C 177.6 10.1 174.9 9.4 173.6 9.4 C 171.9 9.4 170.6 10 169.8 11.5 C 169.6 12 169.5 12.5 169.5 13.3 C 169.5 13.3 169.5 18.2 169.5 18.2 C 169.5 18.9 169.5 19.6 169.7 20.2 Z M 186.2 1.1 C 187.3 1.1 188 1.9 188 3 C 188 4.1 187.3 4.9 186.2 4.9 C 185 4.9 184.3 4.1 184.3 3 C 184.3 1.9 185 1.1 186.2 1.1 Z M 182.4 22.4 C 184.6 22.2 184.7 22.1 184.7 20.6 C 184.7 20.6 184.7 10.8 184.7 10.8 C 184.7 9.7 184.5 9.5 183.7 9.4 C 183.73 9.39 182.6 9.2 182.6 9.2 L 182.6 8.5 L 187.4 7.7 L 187.6 7.9 C 187.6 7.9 187.64 20.55 187.6 20.6 C 187.6 22.1 187.8 22.2 190 22.4 C 189.96 22.35 190 23.3 190 23.3 L 182.4 23.3 C 182.4 23.3 182.4 22.35 182.4 22.4 Z M 191.9 18.1 C 192.5 20.7 193.9 22.5 196.4 22.5 C 198 22.5 199.3 21.5 199.3 20 C 199.3 17.9 197.3 17.1 195.9 16.7 C 193.3 15.9 191.2 14.8 191.2 12.2 C 191.2 9.3 193.5 7.7 196.9 7.7 C 198.3 7.7 199.9 8 200.9 8.7 C 200.88 8.74 200.9 12.4 200.9 12.4 C 200.9 12.4 199.98 12.37 200 12.4 C 199.8 10.5 198.7 8.8 196.5 8.8 C 195 8.8 193.7 9.7 193.7 11.3 C 193.7 13 195.8 13.7 197 14.1 C 200.2 15.1 201.9 16.3 201.9 19 C 201.9 21.7 199.8 23.6 196.1 23.6 C 194.3 23.6 192.4 23.1 191.3 22.1 C 191.27 22.13 191 18.1 191 18.1 C 191 18.1 191.85 18.07 191.9 18.1 Z M 206.5 15.5 C 208.9 14.8 211.9 14 212.7 13.2 C 212.7 13.2 212.7 11.9 212.7 11.9 C 212.7 9.4 211.3 8.8 210.1 8.8 C 208.8 8.8 207.6 9.5 206.9 11.8 C 206.7 12.3 206.5 12.7 205.9 12.7 C 205.3 12.7 204.2 12.2 204.2 11.2 C 204.2 9.5 206.9 7.7 210.4 7.7 C 215.1 7.7 215.5 10 215.5 11.8 C 215.5 11.8 215.5 19.3 215.5 19.3 C 215.5 21.3 216 21.9 216.6 22 C 217.1 22.1 217.7 22 218.2 21.9 C 218.2 21.9 218.4 22.7 218.4 22.7 C 217.2 23.3 215.8 23.6 214.7 23.6 C 213.6 23.6 213.1 22.9 212.7 21.8 C 211.7 22.4 209.9 23.6 208.1 23.6 C 205.2 23.6 203.6 21.5 203.6 19.2 C 203.6 17.8 204.3 16.2 206.5 15.5 Z M 209.6 22 C 210.8 22 212.7 21.3 212.7 18.8 C 212.7 18.8 212.7 14.4 212.7 14.4 C 212 14.9 210.4 15.5 209.2 15.9 C 207.4 16.6 206.7 17.3 206.7 18.8 C 206.7 20.6 207.7 22 209.6 22 Z M 224.4 22.4 C 226.6 22.2 226.7 22.1 226.7 20.6 C 226.7 20.6 226.7 10.8 226.7 10.8 C 226.7 9.7 226.5 9.5 225.7 9.4 C 225.74 9.39 224.6 9.2 224.6 9.2 L 224.6 8.5 L 229.2 7.7 C 229.2 7.7 229.61 10.04 229.6 10 C 231.5 8.8 233 7.7 235.3 7.7 C 238.1 7.7 239.8 9.5 239.8 12.6 C 239.8 12.6 239.8 20.6 239.8 20.6 C 239.8 22.1 239.9 22.2 242.1 22.4 C 242.14 22.35 242.1 23.3 242.1 23.3 L 234.6 23.3 C 234.6 23.3 234.57 22.35 234.6 22.4 C 236.8 22.2 236.9 22.1 236.9 20.6 C 236.9 20.6 236.9 13.2 236.9 13.2 C 236.9 10.5 235.7 9.4 233.6 9.4 C 232 9.4 230.6 10.4 230 11.6 C 229.7 12.1 229.6 12.5 229.6 13.3 C 229.6 13.3 229.6 20.6 229.6 20.6 C 229.6 22.1 229.8 22.2 232 22.4 C 231.97 22.35 232 23.3 232 23.3 L 224.4 23.3 C 224.4 23.3 224.4 22.35 224.4 22.4 Z M 246.5 22.8 C 246.5 22.8 246.5 22.8 246.5 22.8 C 245 22.6 243.8 21.4 243.8 20.3 C 243.8 19.1 245 18.2 246.7 17.6 C 246.7 17.6 246.7 17.5 246.7 17.5 C 245.2 17.1 243.3 15.8 243.3 12.9 C 243.3 10.6 245 7.7 249.7 7.7 C 251.2 7.7 252.9 8.1 253.7 8.6 C 253.73 8.65 257.7 7.4 257.7 7.4 L 257.9 7.7 L 257.3 9.6 C 257.3 9.6 254.88 9.98 254.9 10 C 255.4 10.5 255.8 11.6 255.8 12.9 C 255.8 16.6 252.5 17.9 249.5 17.9 C 249.2 17.9 248.6 17.9 248 17.9 C 247.6 18 246.4 18.5 246.4 19.4 C 246.4 20 246.7 20.7 249 20.7 C 249 20.7 251.4 20.7 251.4 20.7 C 254.8 20.7 257.4 21.9 257.4 25.2 C 257.4 27.2 256.4 28.6 255 29.5 C 253.5 30.4 251.5 30.8 249.7 30.8 C 246.1 30.8 243 29.4 243 26.2 C 243 24 245.2 23.3 246.5 22.8 Z M 250.4 29.7 C 252.6 29.7 254.8 28.5 254.8 26 C 254.8 23.7 252.8 23 250.1 23 C 248.6 23 247.6 23.2 246.9 23.7 C 246.2 24.2 245.9 25 245.9 26.1 C 245.9 28.3 247.7 29.7 250.4 29.7 Z M 249.7 16.9 C 251.5 16.9 252.8 15.5 252.8 12.9 C 252.8 9.9 251.2 8.8 249.7 8.8 C 248.1 8.8 246.5 9.8 246.5 12.9 C 246.5 15.5 247.9 16.9 249.7 16.9 Z M 266 27.7 C 266 27.7 266 10.8 266 10.8 C 266 9.7 265.8 9.5 265 9.4 C 265.01 9.39 263.8 9.2 263.8 9.2 L 263.8 8.5 L 268.5 7.7 C 268.5 7.7 268.92 9.98 268.9 10 C 270.1 9.2 271.9 7.7 274.2 7.7 C 279.8 7.7 280.2 13.1 280.2 15.3 C 280.2 21.7 276.6 23.6 272.5 23.6 C 271 23.6 269.6 23.3 268.9 22.9 C 268.9 22.9 268.9 27.7 268.9 27.7 C 268.9 29.3 269.1 29.3 271.7 29.5 C 271.71 29.48 271.7 30.4 271.7 30.4 L 263.7 30.4 C 263.7 30.4 263.68 29.48 263.7 29.5 C 265.8 29.3 266 29.3 266 27.7 Z M 269.1 20.3 C 269.6 21.7 270.9 22.5 272.5 22.5 C 275.6 22.5 277 20.1 277 15.5 C 277 10.2 274.3 9.4 273 9.4 C 271.4 9.4 270 10.1 269.3 11.5 C 269 12.1 268.9 12.5 268.9 13.3 C 268.9 13.3 268.9 18.4 268.9 18.4 C 268.9 19.1 268.9 19.7 269.1 20.3 Z M 289.8 7.7 C 294.8 7.7 297.2 10.6 297.2 15.7 C 297.2 20.7 294.8 23.6 289.8 23.6 C 284.8 23.6 282.3 20.7 282.3 15.7 C 282.3 10.6 284.8 7.7 289.8 7.7 Z M 289.8 22.5 C 292.6 22.5 294 19.9 294 15.7 C 294 11.4 292.6 8.8 289.8 8.8 C 286.9 8.8 285.6 11.4 285.6 15.7 C 285.6 19.9 286.9 22.5 289.8 22.5 Z M 298.4 22.4 C 300.6 22.2 300.7 22.1 300.7 20.6 C 300.7 20.6 300.7 3.3 300.7 3.3 C 300.7 2.2 300.5 2 299.7 1.9 C 299.73 1.92 298.6 1.8 298.6 1.8 L 298.6 1 L 303.4 0.2 L 303.6 0.4 C 303.6 0.4 303.64 20.55 303.6 20.6 C 303.6 22.1 303.8 22.2 306 22.4 C 305.96 22.35 306 23.3 306 23.3 L 298.4 23.3 C 298.4 23.3 298.4 22.35 298.4 22.4 Z M 310.2 1.1 C 311.4 1.1 312.1 1.9 312.1 3 C 312.1 4.1 311.4 4.9 310.2 4.9 C 309.1 4.9 308.3 4.1 308.3 3 C 308.3 1.9 309.1 1.1 310.2 1.1 Z M 306.5 22.4 C 308.7 22.2 308.8 22.1 308.8 20.6 C 308.8 20.6 308.8 10.8 308.8 10.8 C 308.8 9.7 308.6 9.5 307.8 9.4 C 307.82 9.39 306.6 9.2 306.6 9.2 L 306.6 8.5 L 311.5 7.7 L 311.7 7.9 C 311.7 7.9 311.73 20.55 311.7 20.6 C 311.7 22.1 311.9 22.2 314.1 22.4 C 314.05 22.35 314.1 23.3 314.1 23.3 L 306.5 23.3 C 306.5 23.3 306.49 22.35 306.5 22.4 Z M 315.9 18.1 C 316.6 20.7 318 22.5 320.5 22.5 C 322.1 22.5 323.4 21.5 323.4 20 C 323.4 17.9 321.4 17.1 320 16.7 C 317.4 15.9 315.3 14.8 315.3 12.2 C 315.3 9.3 317.6 7.7 321 7.7 C 322.4 7.7 323.9 8 325 8.7 C 324.97 8.74 325 12.4 325 12.4 C 325 12.4 324.07 12.37 324.1 12.4 C 323.8 10.5 322.8 8.8 320.6 8.8 C 319 8.8 317.8 9.7 317.8 11.3 C 317.8 13 319.9 13.7 321.1 14.1 C 324.3 15.1 326 16.3 326 19 C 326 21.7 323.9 23.6 320.2 23.6 C 318.4 23.6 316.5 23.1 315.4 22.1 C 315.36 22.13 315 18.1 315 18.1 C 315 18.1 315.94 18.07 315.9 18.1 Z M 330.9 1.1 C 332 1.1 332.8 1.9 332.8 3 C 332.8 4.1 332 4.9 330.9 4.9 C 329.8 4.9 329 4.1 329 3 C 329 1.9 329.8 1.1 330.9 1.1 Z M 327.2 22.4 C 329.4 22.2 329.5 22.1 329.5 20.6 C 329.5 20.6 329.5 10.8 329.5 10.8 C 329.5 9.7 329.3 9.5 328.5 9.4 C 328.5 9.39 327.3 9.2 327.3 9.2 L 327.3 8.5 L 332.2 7.7 L 332.4 7.9 C 332.4 7.9 332.4 20.55 332.4 20.6 C 332.4 22.1 332.5 22.2 334.7 22.4 C 334.73 22.35 334.7 23.3 334.7 23.3 L 327.2 23.3 C 327.2 23.3 327.17 22.35 327.2 22.4 Z M 334.1 8.1 L 341.2 8.1 L 341.2 9 C 341.2 9 339.88 9.08 339.9 9.1 C 339.2 9.1 339.2 9.5 339.4 10 C 340.6 13.3 341.8 16.7 343.2 20.4 C 343.2 20.4 343.3 20.4 343.3 20.4 C 344.6 16.7 346.3 12 346.7 10.2 C 346.9 9.5 346.8 9.2 346.3 9.1 C 346.29 9.11 344.7 9 344.7 9 L 344.7 8.1 L 350.6 8.1 C 350.6 8.1 350.63 8.96 350.6 9 C 349.1 9.1 348.9 9.3 348.3 10.5 C 347.4 12.7 344.5 20.3 342.6 25.8 C 341 30.4 339.4 30.8 338.2 30.8 C 336.9 30.8 336 29.9 336 29.1 C 336 28.2 336.8 27.4 337.4 27.4 C 337.8 27.4 338 27.6 338.3 27.8 C 338.9 28.4 339.2 28.5 339.5 28.5 C 339.8 28.5 340.4 28.2 340.8 27.2 C 341.3 26.2 341.6 25.3 341.6 24.6 C 341.6 24 341.5 23.6 341.3 23 C 340.6 20.9 338 14.3 336.5 10.6 C 335.9 9.2 335.6 9 334.1 9 C 334.11 8.96 334.1 8.1 334.1 8.1 Z M 353.4 15.5 C 355.9 14.8 358.9 14 359.7 13.2 C 359.7 13.2 359.7 11.9 359.7 11.9 C 359.7 9.4 358.2 8.8 357 8.8 C 355.8 8.8 354.5 9.5 353.8 11.8 C 353.7 12.3 353.5 12.7 352.8 12.7 C 352.2 12.7 351.1 12.2 351.1 11.2 C 351.1 9.5 353.9 7.7 357.4 7.7 C 362 7.7 362.4 10 362.4 11.8 C 362.4 11.8 362.4 19.3 362.4 19.3 C 362.4 21.3 363 21.9 363.5 22 C 364 22.1 364.7 22 365.1 21.9 C 365.1 21.9 365.3 22.7 365.3 22.7 C 364.1 23.3 362.8 23.6 361.6 23.6 C 360.6 23.6 360.1 22.9 359.6 21.8 C 358.6 22.4 356.8 23.6 355 23.6 C 352.1 23.6 350.5 21.5 350.5 19.2 C 350.5 17.8 351.2 16.2 353.4 15.5 Z M 356.5 22 C 357.7 22 359.7 21.3 359.7 18.8 C 359.7 18.8 359.7 14.4 359.7 14.4 C 359 14.9 357.3 15.5 356.1 15.9 C 354.4 16.6 353.7 17.3 353.7 18.8 C 353.7 20.6 354.6 22 356.5 22 Z M 371.3 22.4 C 373.6 22.2 373.7 22.1 373.7 20.6 C 373.7 20.6 373.7 10.8 373.7 10.8 C 373.7 9.7 373.5 9.5 372.7 9.4 C 372.67 9.39 371.5 9.2 371.5 9.2 L 371.5 8.5 L 376.1 7.7 C 376.1 7.7 376.55 10.04 376.5 10 C 378.5 8.8 379.9 7.7 382.2 7.7 C 385 7.7 386.7 9.5 386.7 12.6 C 386.7 12.6 386.7 20.6 386.7 20.6 C 386.7 22.1 386.9 22.2 389.1 22.4 C 389.07 22.35 389.1 23.3 389.1 23.3 L 381.5 23.3 C 381.5 23.3 381.51 22.35 381.5 22.4 C 383.7 22.2 383.8 22.1 383.8 20.6 C 383.8 20.6 383.8 13.2 383.8 13.2 C 383.8 10.5 382.7 9.4 380.6 9.4 C 378.9 9.4 377.5 10.4 376.9 11.6 C 376.6 12.1 376.6 12.5 376.6 13.3 C 376.6 13.3 376.6 20.6 376.6 20.6 C 376.6 22.1 376.7 22.2 378.9 22.4 C 378.9 22.35 378.9 23.3 378.9 23.3 L 371.3 23.3 C 371.3 23.3 371.34 22.35 371.3 22.4 Z M 393.5 22.8 C 393.5 22.8 393.5 22.8 393.5 22.8 C 392 22.6 390.7 21.4 390.7 20.3 C 390.7 19.1 391.9 18.2 393.6 17.6 C 393.6 17.6 393.6 17.5 393.6 17.5 C 392.2 17.1 390.2 15.8 390.2 12.9 C 390.2 10.6 391.9 7.7 396.7 7.7 C 398.1 7.7 399.8 8.1 400.7 8.6 C 400.67 8.65 404.6 7.4 404.6 7.4 L 404.9 7.7 L 404.3 9.6 C 404.3 9.6 401.81 9.98 401.8 10 C 402.3 10.5 402.7 11.6 402.7 12.9 C 402.7 16.6 399.4 17.9 396.5 17.9 C 396.1 17.9 395.5 17.9 394.9 17.9 C 394.5 18 393.3 18.5 393.3 19.4 C 393.3 20 393.7 20.7 395.9 20.7 C 395.9 20.7 398.4 20.7 398.4 20.7 C 401.7 20.7 404.4 21.9 404.4 25.2 C 404.4 27.2 403.3 28.6 401.9 29.5 C 400.4 30.4 398.5 30.8 396.6 30.8 C 393 30.8 389.9 29.4 389.9 26.2 C 389.9 24 392.1 23.3 393.5 22.8 Z M 397.3 29.7 C 399.5 29.7 401.8 28.5 401.8 26 C 401.8 23.7 399.7 23 397 23 C 395.5 23 394.5 23.2 393.8 23.7 C 393.2 24.2 392.9 25 392.9 26.1 C 392.9 28.3 394.7 29.7 397.3 29.7 Z M 396.6 16.9 C 398.4 16.9 399.8 15.5 399.8 12.9 C 399.8 9.9 398.2 8.8 396.7 8.8 C 395 8.8 393.4 9.8 393.4 12.9 C 393.4 15.5 394.9 16.9 396.6 16.9 Z " stroke="none" fill="#000"/>
  </g>
</svg>