<?xml version="1.0" standalone="no"?>
<!DOCTYPE svg PUBLIC "-//W3C//DTD SVG 1.1//EN" "http://www.w3.org/Graphics/SVG/1.1/DTD/svg11.dtd">
<svg xmlns="http://www.w3.org/2000/svg" version="1.1" width="791.5px" height="31.8px" viewBox="0 -7 791.5 31.8" style="top:-7px">
  <desc>Agawan ng trono:</desc>
  <defs/>
  <g id="Polygon37210">
    <path d="M 3.6 0.7 L 6.6 0.7 L 10.4 14 L 7.4 14 L 6.7 11.3 L 3 11.3 L 2.3 14 L -0.4 14 L 3.6 0.7 Z M 6.2 9 L 4.8 3.5 L 3.5 9 L 6.2 9 Z M 16 6.9 L 20.6 6.9 L 20.6 14 L 19.4 14 C 19.4 14 18.97 12.48 19 12.5 C 18.3 13.6 17.2 14.2 15.8 14.2 C 14.2 14.2 13 13.6 12.1 12.4 C 11.3 11.2 10.8 9.6 10.8 7.6 C 10.8 5.4 11.2 3.7 12.1 2.4 C 13 1.1 14.3 0.5 16 0.5 C 18.7 0.5 20.3 2 20.6 5 C 20.6 5 18 5.5 18 5.5 C 17.8 3.7 17.1 2.9 16.1 2.9 C 15.4 2.9 14.9 3.2 14.5 3.8 C 14.1 4.5 13.9 5.7 13.9 7.5 C 13.9 9.1 14.1 10.2 14.5 10.8 C 14.9 11.5 15.4 11.8 16.2 11.8 C 17.4 11.8 18 10.9 18 9.2 C 17.96 9.18 16 9.2 16 9.2 L 16 6.9 Z M 25.7 0.7 L 28.6 0.7 L 32.5 14 L 29.5 14 L 28.8 11.3 L 25 11.3 L 24.4 14 L 21.7 14 L 25.7 0.7 Z M 28.2 9 L 26.9 3.5 L 25.6 9 L 28.2 9 Z M 32 0.7 L 35 0.7 L 36.3 9.9 L 38.1 0.7 L 40.8 0.7 L 42.4 9.9 L 44.1 0.7 L 46.5 0.7 L 43.7 14.1 L 41 14.1 L 39.3 4.8 L 37.4 14.1 L 34.8 14.1 L 32 0.7 Z M 49.9 0.7 L 52.8 0.7 L 56.6 14 L 53.6 14 L 53 11.3 L 49.2 11.3 L 48.6 14 L 45.9 14 L 49.9 0.7 Z M 52.4 9 L 51.1 3.5 L 49.8 9 L 52.4 9 Z M 57.6 0.7 L 60.9 0.7 L 64.3 9 L 64.3 0.7 L 66.6 0.7 L 66.6 14 L 64 14 L 59.9 4.4 L 59.9 14 L 57.6 14 L 57.6 0.7 Z M 78.2 0.7 L 81.4 0.7 L 84.9 9 L 84.9 0.7 L 87.1 0.7 L 87.1 14 L 84.5 14 L 80.5 4.4 L 80.5 14 L 78.2 14 L 78.2 0.7 Z M 94.2 6.9 L 98.8 6.9 L 98.8 14 L 97.6 14 C 97.6 14 97.23 12.48 97.2 12.5 C 96.5 13.6 95.4 14.2 94 14.2 C 92.5 14.2 91.3 13.6 90.4 12.4 C 89.5 11.2 89.1 9.6 89.1 7.6 C 89.1 5.4 89.5 3.7 90.4 2.4 C 91.3 1.1 92.5 0.5 94.3 0.5 C 97 0.5 98.5 2 98.8 5 C 98.8 5 96.2 5.5 96.2 5.5 C 96 3.7 95.4 2.9 94.3 2.9 C 93.7 2.9 93.1 3.2 92.7 3.8 C 92.3 4.5 92.1 5.7 92.1 7.5 C 92.1 9.1 92.3 10.2 92.7 10.8 C 93.1 11.5 93.7 11.8 94.4 11.8 C 95.6 11.8 96.2 10.9 96.2 9.2 C 96.21 9.18 94.2 9.2 94.2 9.2 L 94.2 6.9 Z M 109 0.7 L 117.3 0.7 L 117.3 3.2 L 114.6 3.2 L 114.6 14 L 111.6 14 L 111.6 3.2 L 109 3.2 L 109 0.7 Z M 118.3 0.7 C 118.3 0.7 122.48 0.67 122.5 0.7 C 123.3 0.7 123.9 0.7 124.4 0.8 C 124.8 0.9 125.2 1.1 125.7 1.4 C 126.1 1.7 126.5 2.2 126.7 2.7 C 127 3.3 127.1 3.9 127.1 4.7 C 127.1 6.3 126.5 7.5 125.2 8.2 C 125.21 8.17 127.7 14 127.7 14 L 124.5 14 L 122.7 8.7 L 121.2 8.7 L 121.2 14 L 118.3 14 L 118.3 0.7 Z M 121.2 2.8 L 121.2 6.6 C 121.2 6.6 122.51 6.57 122.5 6.6 C 123.7 6.6 124.2 5.9 124.2 4.6 C 124.2 4.2 124.1 3.8 124 3.6 C 123.8 3.3 123.6 3.1 123.4 3 C 123.2 2.9 122.8 2.8 122.4 2.8 C 122.39 2.83 121.2 2.8 121.2 2.8 Z M 138.3 7.3 C 138.3 11.9 136.7 14.2 133.5 14.2 C 131.9 14.2 130.7 13.6 129.9 12.5 C 129 11.3 128.6 9.6 128.6 7.3 C 128.6 2.8 130.2 0.5 133.5 0.5 C 135 0.5 136.2 1 137.1 2.2 C 137.9 3.3 138.3 5 138.3 7.3 Z M 135.2 7.3 C 135.2 5.5 135.1 4.3 134.8 3.7 C 134.5 3.1 134.1 2.9 133.5 2.9 C 132.9 2.9 132.4 3.2 132.1 3.8 C 131.9 4.3 131.7 5.5 131.7 7.3 C 131.7 9.1 131.9 10.3 132.1 10.9 C 132.4 11.5 132.9 11.8 133.5 11.8 C 134.1 11.8 134.5 11.5 134.8 10.9 C 135.1 10.3 135.2 9.1 135.2 7.3 Z M 140.2 0.7 L 143.5 0.7 L 146.9 9 L 146.9 0.7 L 149.2 0.7 L 149.2 14 L 146.6 14 L 142.5 4.4 L 142.5 14 L 140.2 14 L 140.2 0.7 Z M 160.8 7.3 C 160.8 11.9 159.2 14.2 156 14.2 C 154.4 14.2 153.1 13.6 152.3 12.5 C 151.5 11.3 151.1 9.6 151.1 7.3 C 151.1 2.8 152.7 0.5 155.9 0.5 C 157.5 0.5 158.7 1 159.6 2.2 C 160.4 3.3 160.8 5 160.8 7.3 Z M 157.7 7.3 C 157.7 5.5 157.6 4.3 157.3 3.7 C 157 3.1 156.6 2.9 155.9 2.9 C 155.3 2.9 154.9 3.2 154.6 3.8 C 154.3 4.3 154.2 5.5 154.2 7.3 C 154.2 9.1 154.3 10.3 154.6 10.9 C 154.9 11.5 155.3 11.8 155.9 11.8 C 156.6 11.8 157 11.5 157.3 10.9 C 157.6 10.3 157.7 9.1 157.7 7.3 Z M 162.8 4.1 L 165.5 4.1 L 165.5 7.1 L 162.8 7.1 L 162.8 4.1 Z M 162.8 11.1 L 165.5 11.1 L 165.5 14 L 162.8 14 L 162.8 11.1 Z " stroke="none" fill="#000"/>
  </g>
</svg>