<?xml version="1.0" standalone="no"?>
<!DOCTYPE svg PUBLIC "-//W3C//DTD SVG 1.1//EN" "http://www.w3.org/Graphics/SVG/1.1/DTD/svg11.dtd">
<svg xmlns="http://www.w3.org/2000/svg" version="1.1" width="294px" height="32.9px" viewBox="0 -6 294 32.9" style="top:-6px">
  <desc>PARALYMPICS Mula sa p 20</desc>
  <defs/>
  <g id="Polygon34903">
    <path d="M 1.6 -0.3 C 1.6 -0.3 6.34 -0.31 6.3 -0.3 C 9.1 -0.3 11.6 0.7 11.6 4.2 C 11.6 8 8.9 8.7 5.9 8.7 C 5.9 8.73 4.1 8.7 4.1 8.7 L 4.1 15.1 L 1.6 15.1 L 1.6 -0.3 Z M 5.6 6.4 C 7.1 6.4 8.9 6.3 8.9 4.2 C 8.9 2.3 7.3 2 5.9 2 C 5.9 2.04 4.1 2 4.1 2 L 4.1 6.4 C 4.1 6.4 5.62 6.38 5.6 6.4 Z M 17.5 -0.3 L 19.7 -0.3 L 25.8 15.1 L 22.9 15.1 L 21.6 11.6 L 15.4 11.6 L 14.2 15.1 L 11.3 15.1 L 17.5 -0.3 Z M 20.7 9.2 L 18.5 3 L 16.3 9.2 L 20.7 9.2 Z M 27.9 -0.3 C 27.9 -0.3 32.86 -0.31 32.9 -0.3 C 35.6 -0.3 38.1 0.6 38.1 4.1 C 38.1 6.3 37 8 34.9 8.3 C 34.86 8.3 38.6 15.1 38.6 15.1 L 35.6 15.1 L 32.3 8.6 L 30.5 8.6 L 30.5 15.1 L 27.9 15.1 L 27.9 -0.3 Z M 32.4 6.2 C 33.8 6.2 35.5 6.1 35.5 4.1 C 35.5 2.3 33.9 2 32.6 2 C 32.64 2.04 30.5 2 30.5 2 L 30.5 6.2 C 30.5 6.2 32.42 6.23 32.4 6.2 Z M 45.7 -0.3 L 47.9 -0.3 L 54 15.1 L 51.1 15.1 L 49.8 11.6 L 43.7 11.6 L 42.4 15.1 L 39.6 15.1 L 45.7 -0.3 Z M 48.9 9.2 L 46.7 3 L 44.5 9.2 L 48.9 9.2 Z M 56.2 -0.3 L 58.7 -0.3 L 58.7 12.6 L 64.7 12.6 L 64.7 15.1 L 56.2 15.1 L 56.2 -0.3 Z M 68.4 8.5 L 63.1 -0.3 L 66.2 -0.3 L 69.7 5.8 L 73.2 -0.3 L 76.2 -0.3 L 70.9 8.5 L 70.9 15.1 L 68.4 15.1 L 68.4 8.5 Z M 78.2 -0.3 L 82 -0.3 L 85.8 10.5 L 89.6 -0.3 L 93.4 -0.3 L 93.4 15.1 L 91 15.1 L 91 2.3 L 91 2.3 L 86.7 15.1 L 84.9 15.1 L 80.6 2.3 L 80.6 2.3 L 80.6 15.1 L 78.2 15.1 L 78.2 -0.3 Z M 97.2 -0.3 C 97.2 -0.3 101.98 -0.31 102 -0.3 C 104.7 -0.3 107.2 0.7 107.2 4.2 C 107.2 8 104.5 8.7 101.5 8.7 C 101.54 8.73 99.7 8.7 99.7 8.7 L 99.7 15.1 L 97.2 15.1 L 97.2 -0.3 Z M 101.3 6.4 C 102.7 6.4 104.6 6.3 104.6 4.2 C 104.6 2.3 102.9 2 101.5 2 C 101.54 2.04 99.7 2 99.7 2 L 99.7 6.4 C 99.7 6.4 101.26 6.38 101.3 6.4 Z M 110 -0.3 L 112.5 -0.3 L 112.5 15.1 L 110 15.1 L 110 -0.3 Z M 125.9 3.3 C 124.9 2.1 123.9 1.8 122.9 1.8 C 120 1.8 118.1 4.2 118.1 7.3 C 118.1 10.6 120 13 122.9 13 C 124.1 13 125.2 12.5 126.1 11.2 C 126.1 11.2 128.2 12.8 128.2 12.8 C 126.9 14.7 125 15.5 122.9 15.5 C 118.5 15.5 115.4 12.3 115.4 7.5 C 115.4 2.5 118.5 -0.7 122.9 -0.7 C 124.8 -0.7 126.5 0 127.9 1.7 C 127.9 1.7 125.9 3.3 125.9 3.3 Z M 137.4 3 C 136.9 2.2 135.9 1.8 134.9 1.8 C 133.8 1.8 132.6 2.3 132.6 3.8 C 132.6 6.9 139.3 5.1 139.3 10.6 C 139.3 13.9 136.9 15.5 134.2 15.5 C 132.4 15.5 130.7 14.9 129.5 13.4 C 129.5 13.4 131.4 11.4 131.4 11.4 C 132 12.4 133.1 13 134.2 13 C 135.4 13 136.7 12.3 136.7 10.9 C 136.7 7.5 130 9.5 130 4 C 130 0.8 132.6 -0.7 135.2 -0.7 C 136.7 -0.7 138.2 -0.2 139.3 0.9 C 139.3 0.9 137.4 3 137.4 3 Z M 150.7 -1.2 L 150.7 20.6 L 148.7 20.6 L 148.7 -1.2 L 150.7 -1.2 Z M 160.7 -0.3 L 164.5 -0.3 L 168.3 10.5 L 172.1 -0.3 L 175.9 -0.3 L 175.9 15.1 L 173.5 15.1 L 173.5 2.3 L 173.5 2.3 L 169.2 15.1 L 167.4 15.1 L 163.1 2.3 L 163.1 2.3 L 163.1 15.1 L 160.7 15.1 L 160.7 -0.3 Z M 188.3 15.1 L 186 15.1 L 186 13.4 C 186 13.4 185.94 13.44 185.9 13.4 C 185.5 14.5 184.6 15.4 183 15.4 C 180.4 15.4 179.5 13.4 179.5 11.3 C 179.5 11.26 179.5 4.7 179.5 4.7 L 181.9 4.7 C 181.9 4.7 181.9 9.95 181.9 10 C 181.9 11.1 182 13 183.7 13 C 185.2 13 185.9 11.8 185.9 10.4 C 185.86 10.37 185.9 4.7 185.9 4.7 L 188.3 4.7 L 188.3 15.1 Z M 191.6 -1.4 L 194 -1.4 L 194 15.1 L 191.6 15.1 L 191.6 -1.4 Z M 203.4 13.7 C 203.4 13.7 203.3 13.68 203.3 13.7 C 202.6 14.9 201.5 15.4 200.2 15.4 C 198.4 15.4 196.7 14.3 196.7 12.2 C 196.7 8.8 200.4 8.6 202.8 8.6 C 202.76 8.6 203.4 8.6 203.4 8.6 C 203.4 8.6 203.36 8.32 203.4 8.3 C 203.4 7 202.4 6.4 201.2 6.4 C 200.2 6.4 199.2 6.8 198.6 7.4 C 198.6 7.4 197.3 6.1 197.3 6.1 C 198.4 4.9 199.9 4.4 201.4 4.4 C 205.5 4.4 205.5 7.6 205.5 9.1 C 205.52 9.1 205.5 15.1 205.5 15.1 L 203.4 15.1 L 203.4 13.7 Z M 203.2 10.4 C 203.2 10.4 202.72 10.43 202.7 10.4 C 201.4 10.4 199.1 10.5 199.1 12 C 199.1 13 200 13.4 200.8 13.4 C 202.4 13.4 203.2 12.5 203.2 11 C 203.22 11.02 203.2 10.4 203.2 10.4 Z M 220.3 7.6 C 219.9 6.9 219.3 6.5 218.4 6.5 C 217.8 6.5 217 6.8 217 7.6 C 217 9.5 222.2 7.9 222.2 12 C 222.2 14.5 220 15.4 218.1 15.4 C 216.6 15.4 215.3 15 214.3 13.8 C 214.3 13.8 215.9 12.1 215.9 12.1 C 216.6 12.9 217.2 13.4 218.2 13.4 C 218.9 13.4 219.8 13 219.8 12.2 C 219.8 10.1 214.6 11.8 214.6 7.8 C 214.6 5.4 216.6 4.4 218.5 4.4 C 219.8 4.4 221.1 4.8 221.9 6 C 221.9 6 220.3 7.6 220.3 7.6 Z M 230.7 13.7 C 230.7 13.7 230.62 13.68 230.6 13.7 C 229.9 14.9 228.8 15.4 227.5 15.4 C 225.8 15.4 224 14.3 224 12.2 C 224 8.8 227.7 8.6 230.1 8.6 C 230.08 8.6 230.7 8.6 230.7 8.6 C 230.7 8.6 230.68 8.32 230.7 8.3 C 230.7 7 229.8 6.4 228.5 6.4 C 227.5 6.4 226.6 6.8 225.9 7.4 C 225.9 7.4 224.7 6.1 224.7 6.1 C 225.7 4.9 227.2 4.4 228.7 4.4 C 232.8 4.4 232.8 7.6 232.8 9.1 C 232.84 9.1 232.8 15.1 232.8 15.1 L 230.7 15.1 L 230.7 13.7 Z M 230.5 10.4 C 230.5 10.4 230.04 10.43 230 10.4 C 228.7 10.4 226.4 10.5 226.4 12 C 226.4 13 227.3 13.4 228.1 13.4 C 229.8 13.4 230.5 12.5 230.5 11 C 230.54 11.02 230.5 10.4 230.5 10.4 Z M 242.5 4.7 L 244.8 4.7 L 244.8 6.2 C 244.8 6.2 244.84 6.23 244.8 6.2 C 245.5 5 246.8 4.4 248.1 4.4 C 251.1 4.4 252.9 6.8 252.9 9.9 C 252.9 13 251 15.4 248.2 15.4 C 246.4 15.4 245.5 14.5 245 13.8 C 244.98 13.79 244.9 13.8 244.9 13.8 L 244.9 20.1 L 242.5 20.1 L 242.5 4.7 Z M 247.7 6.7 C 245.9 6.7 244.8 8.3 244.8 9.9 C 244.8 11.5 245.9 13 247.7 13 C 249.4 13 250.5 11.5 250.5 9.9 C 250.5 8.3 249.4 6.7 247.7 6.7 Z M 257.3 11.9 C 258.2 11.9 258.9 12.6 258.9 13.6 C 258.9 14.5 258.2 15.3 257.3 15.3 C 256.5 15.3 255.7 14.5 255.7 13.6 C 255.7 12.7 256.4 11.9 257.3 11.9 Z M 262 12.4 C 262 12.4 267.54 6.55 267.5 6.6 C 268.2 5.9 269 5 269 3.9 C 269 2.7 268 1.9 266.9 1.9 C 265.8 1.9 264.9 2.7 264.8 4 C 264.8 4 262.2 3.8 262.2 3.8 C 262.5 0.9 264.4 -0.6 266.9 -0.6 C 269.5 -0.6 271.5 0.8 271.5 3.8 C 271.5 5.7 270.6 7.1 269.3 8.3 C 269.34 8.34 265 12.8 265 12.8 L 271.5 12.8 L 271.5 15.1 L 262 15.1 L 262 12.4 Z M 279.2 -0.6 C 280.8 -0.6 284.3 0.1 284.3 7.4 C 284.3 14.7 280.8 15.4 279.2 15.4 C 277.6 15.4 274.1 14.7 274.1 7.4 C 274.1 0.1 277.6 -0.6 279.2 -0.6 Z M 279.2 12.9 C 281.6 12.9 281.9 9.3 281.9 7.4 C 281.9 5.5 281.6 1.9 279.2 1.9 C 276.8 1.9 276.5 5.5 276.5 7.4 C 276.5 9.3 276.8 12.9 279.2 12.9 Z " stroke="none" fill="#fff"/>
  </g>
</svg>