<?xml version="1.0" standalone="no"?>
<!DOCTYPE svg PUBLIC "-//W3C//DTD SVG 1.1//EN" "http://www.w3.org/Graphics/SVG/1.1/DTD/svg11.dtd">
<svg xmlns="http://www.w3.org/2000/svg" version="1.1" width="279.5px" height="33.9px" viewBox="0 -6 279.5 33.9" style="top:-6px">
  <desc>INA Mula sa p 13</desc>
  <defs/>
  <g id="Polygon30867">
    <path d="M 1.5 -0.3 L 4 -0.3 L 4 15.1 L 1.5 15.1 L 1.5 -0.3 Z M 7.7 -0.3 L 11.1 -0.3 L 17.9 11.2 L 18 11.2 L 18 -0.3 L 20.5 -0.3 L 20.5 15.1 L 17.3 15.1 L 10.3 3.3 L 10.3 3.3 L 10.3 15.1 L 7.7 15.1 L 7.7 -0.3 Z M 28.8 -0.3 L 31 -0.3 L 37.1 15.1 L 34.2 15.1 L 32.9 11.6 L 26.8 11.6 L 25.5 15.1 L 22.7 15.1 L 28.8 -0.3 Z M 32 9.2 L 29.8 3 L 27.6 9.2 L 32 9.2 Z M 47.4 -1.2 L 47.4 20.6 L 45.4 20.6 L 45.4 -1.2 L 47.4 -1.2 Z M 57.4 -0.3 L 61.2 -0.3 L 65 10.5 L 68.8 -0.3 L 72.6 -0.3 L 72.6 15.1 L 70.2 15.1 L 70.2 2.3 L 70.2 2.3 L 65.9 15.1 L 64.1 15.1 L 59.8 2.3 L 59.8 2.3 L 59.8 15.1 L 57.4 15.1 L 57.4 -0.3 Z M 85 15.1 L 82.7 15.1 L 82.7 13.4 C 82.7 13.4 82.66 13.44 82.7 13.4 C 82.2 14.5 81.3 15.4 79.7 15.4 C 77.1 15.4 76.2 13.4 76.2 11.3 C 76.22 11.26 76.2 4.7 76.2 4.7 L 78.6 4.7 C 78.6 4.7 78.62 9.95 78.6 10 C 78.6 11.1 78.7 13 80.4 13 C 82 13 82.6 11.8 82.6 10.4 C 82.58 10.37 82.6 4.7 82.6 4.7 L 85 4.7 L 85 15.1 Z M 88.3 -1.4 L 90.7 -1.4 L 90.7 15.1 L 88.3 15.1 L 88.3 -1.4 Z M 100.1 13.7 C 100.1 13.7 100.03 13.68 100 13.7 C 99.3 14.9 98.2 15.4 96.9 15.4 C 95.2 15.4 93.4 14.3 93.4 12.2 C 93.4 8.8 97.1 8.6 99.5 8.6 C 99.49 8.6 100.1 8.6 100.1 8.6 C 100.1 8.6 100.09 8.32 100.1 8.3 C 100.1 7 99.2 6.4 97.9 6.4 C 96.9 6.4 96 6.8 95.3 7.4 C 95.3 7.4 94.1 6.1 94.1 6.1 C 95.1 4.9 96.6 4.4 98.1 4.4 C 102.2 4.4 102.2 7.6 102.2 9.1 C 102.25 9.1 102.2 15.1 102.2 15.1 L 100.1 15.1 L 100.1 13.7 Z M 99.9 10.4 C 99.9 10.4 99.45 10.43 99.4 10.4 C 98.1 10.4 95.8 10.5 95.8 12 C 95.8 13 96.7 13.4 97.5 13.4 C 99.2 13.4 99.9 12.5 99.9 11 C 99.95 11.02 99.9 10.4 99.9 10.4 Z M 117 7.6 C 116.6 6.9 116 6.5 115.2 6.5 C 114.5 6.5 113.8 6.8 113.8 7.6 C 113.8 9.5 118.9 7.9 118.9 12 C 118.9 14.5 116.8 15.4 114.8 15.4 C 113.3 15.4 112 15 111.1 13.8 C 111.1 13.8 112.7 12.1 112.7 12.1 C 113.3 12.9 113.9 13.4 114.9 13.4 C 115.6 13.4 116.5 13 116.5 12.2 C 116.5 10.1 111.4 11.8 111.4 7.8 C 111.4 5.4 113.3 4.4 115.2 4.4 C 116.5 4.4 117.9 4.8 118.6 6 C 118.6 6 117 7.6 117 7.6 Z M 127.4 13.7 C 127.4 13.7 127.34 13.68 127.3 13.7 C 126.7 14.9 125.5 15.4 124.3 15.4 C 122.5 15.4 120.8 14.3 120.8 12.2 C 120.8 8.8 124.4 8.6 126.8 8.6 C 126.8 8.6 127.4 8.6 127.4 8.6 C 127.4 8.6 127.4 8.32 127.4 8.3 C 127.4 7 126.5 6.4 125.2 6.4 C 124.2 6.4 123.3 6.8 122.6 7.4 C 122.6 7.4 121.4 6.1 121.4 6.1 C 122.4 4.9 123.9 4.4 125.5 4.4 C 129.6 4.4 129.6 7.6 129.6 9.1 C 129.56 9.1 129.6 15.1 129.6 15.1 L 127.4 15.1 L 127.4 13.7 Z M 127.3 10.4 C 127.3 10.4 126.76 10.43 126.8 10.4 C 125.4 10.4 123.2 10.5 123.2 12 C 123.2 13 124.1 13.4 124.8 13.4 C 126.5 13.4 127.3 12.5 127.3 11 C 127.26 11.02 127.3 10.4 127.3 10.4 Z M 139.2 4.7 L 141.5 4.7 L 141.5 6.2 C 141.5 6.2 141.56 6.23 141.6 6.2 C 142.3 5 143.5 4.4 144.9 4.4 C 147.8 4.4 149.6 6.8 149.6 9.9 C 149.6 13 147.7 15.4 145 15.4 C 143.2 15.4 142.2 14.5 141.7 13.8 C 141.7 13.79 141.6 13.8 141.6 13.8 L 141.6 20.1 L 139.2 20.1 L 139.2 4.7 Z M 144.4 6.7 C 142.6 6.7 141.6 8.3 141.6 9.9 C 141.6 11.5 142.6 13 144.4 13 C 146.1 13 147.2 11.5 147.2 9.9 C 147.2 8.3 146.1 6.7 144.4 6.7 Z M 154 11.9 C 154.9 11.9 155.6 12.6 155.6 13.6 C 155.6 14.5 154.9 15.3 154 15.3 C 153.2 15.3 152.4 14.5 152.4 13.6 C 152.4 12.7 153.2 11.9 154 11.9 Z M 162.9 2.7 L 160.3 5.4 L 158.9 3.6 L 163.2 -0.3 L 165.3 -0.3 L 165.3 15.1 L 162.9 15.1 L 162.9 2.7 Z M 174.5 5.9 C 174.5 5.9 175.08 5.9 175.1 5.9 C 176.5 5.9 177.8 5.7 177.8 3.8 C 177.8 2.6 177 1.8 175.8 1.8 C 174.9 1.8 174 2.4 173.7 3.5 C 173.7 3.5 171.2 2.7 171.2 2.7 C 171.8 0.4 173.6 -0.6 175.7 -0.6 C 178.1 -0.6 180.2 0.8 180.2 3.5 C 180.2 5.2 179.3 6.6 177.8 7 C 177.8 7 177.8 7.1 177.8 7.1 C 179.6 7.4 180.6 8.9 180.6 10.8 C 180.6 13.8 178.3 15.4 175.8 15.4 C 173.5 15.4 171.6 14.3 170.9 11.8 C 170.9 11.8 173.5 11 173.5 11 C 173.8 12.3 174.5 13 175.8 13 C 177.1 13 178.2 12 178.2 10.6 C 178.2 8.6 176.5 8.3 175 8.3 C 175.04 8.25 174.5 8.3 174.5 8.3 L 174.5 5.9 Z " stroke="none" fill="#fff"/>
  </g>
</svg>