<?xml version="1.0" standalone="no"?>
<!DOCTYPE svg PUBLIC "-//W3C//DTD SVG 1.1//EN" "http://www.w3.org/Graphics/SVG/1.1/DTD/svg11.dtd">
<svg xmlns="http://www.w3.org/2000/svg" version="1.1" width="312px" height="13.7px" viewBox="0 -3 312 13.7" style="top:-3px">
  <desc>Patnugot ng BAYAN: IZEL PRAISE FERNANDEZ Layout artist: SOFIA MARIE TRAJANO</desc>
  <defs/>
  <g id="Polygon19925">
    <path d="M 1.7 2.7 C 1.7 2.7 2.04 2.71 2 2.7 C 2.4 2.7 2.6 2.6 2.8 2.5 C 2.9 2.4 3 2.2 3 2 C 3 1.7 2.9 1.5 2.8 1.4 C 2.7 1.3 2.5 1.2 2.2 1.2 C 2.17 1.23 1.7 1.2 1.7 1.2 L 1.7 2.7 Z M 4.1 1.9 C 4.1 2.5 3.9 2.9 3.6 3.2 C 3.2 3.4 2.8 3.6 2.1 3.6 C 2.14 3.58 1.7 3.6 1.7 3.6 L 1.7 5.4 L 0.6 5.4 L 0.6 0.4 C 0.6 0.4 2.23 0.36 2.2 0.4 C 2.8 0.4 3.3 0.5 3.6 0.8 C 3.9 1 4.1 1.4 4.1 1.9 Z M 7.9 5.4 L 7.6 4.2 L 5.8 4.2 L 5.4 5.4 L 4.3 5.4 L 6 0.3 L 7.3 0.3 L 9.1 5.4 L 7.9 5.4 Z M 7.3 3.3 C 7 2.2 6.8 1.6 6.8 1.4 C 6.7 1.3 6.7 1.2 6.7 1.1 C 6.6 1.4 6.4 2.1 6 3.3 C 6 3.3 7.3 3.3 7.3 3.3 Z M 11.5 5.4 L 10.4 5.4 L 10.4 1.2 L 9.1 1.2 L 9.1 0.4 L 12.9 0.4 L 12.9 1.2 L 11.5 1.2 L 11.5 5.4 Z M 17.9 5.4 L 16.6 5.4 L 14.4 1.6 C 14.4 1.6 14.37 1.58 14.4 1.6 C 14.4 2.2 14.4 2.7 14.4 3 C 14.43 3 14.4 5.4 14.4 5.4 L 13.5 5.4 L 13.5 0.4 L 14.8 0.4 L 17 4.1 C 17 4.1 17.02 4.1 17 4.1 C 17 3.5 17 3 17 2.7 C 16.97 2.72 17 0.4 17 0.4 L 17.9 0.4 L 17.9 5.4 Z M 23.1 0.4 C 23.1 0.4 23.11 3.59 23.1 3.6 C 23.1 4 23 4.3 22.9 4.6 C 22.7 4.8 22.5 5.1 22.1 5.2 C 21.8 5.4 21.5 5.4 21 5.4 C 20.4 5.4 19.9 5.3 19.5 4.9 C 19.2 4.6 19 4.2 19 3.6 C 19 3.58 19 0.4 19 0.4 L 20.1 0.4 C 20.1 0.4 20.06 3.42 20.1 3.4 C 20.1 3.8 20.1 4.1 20.3 4.3 C 20.4 4.4 20.7 4.5 21.1 4.5 C 21.4 4.5 21.7 4.4 21.8 4.3 C 22 4.1 22 3.8 22 3.4 C 22.05 3.41 22 0.4 22 0.4 L 23.1 0.4 Z M 26.1 2.5 L 28.1 2.5 C 28.1 2.5 28.07 5.14 28.1 5.1 C 27.7 5.2 27.4 5.3 27.2 5.4 C 26.9 5.4 26.6 5.4 26.3 5.4 C 25.5 5.4 25 5.2 24.6 4.8 C 24.2 4.3 24 3.7 24 2.9 C 24 2 24.2 1.4 24.7 1 C 25.1 0.5 25.8 0.3 26.6 0.3 C 27.1 0.3 27.6 0.4 28.1 0.6 C 28.1 0.6 27.7 1.4 27.7 1.4 C 27.3 1.3 27 1.2 26.6 1.2 C 26.1 1.2 25.7 1.3 25.5 1.6 C 25.2 1.9 25.1 2.4 25.1 2.9 C 25.1 3.4 25.2 3.8 25.4 4.1 C 25.6 4.4 25.9 4.5 26.4 4.5 C 26.6 4.5 26.8 4.5 27 4.5 C 27.03 4.47 27 3.4 27 3.4 L 26.1 3.4 L 26.1 2.5 Z M 33.7 2.9 C 33.7 3.7 33.4 4.3 33 4.8 C 32.6 5.2 32 5.4 31.3 5.4 C 30.5 5.4 29.9 5.2 29.5 4.8 C 29.1 4.3 28.9 3.7 28.9 2.8 C 28.9 2 29.1 1.4 29.5 0.9 C 29.9 0.5 30.5 0.3 31.3 0.3 C 32 0.3 32.6 0.5 33 0.9 C 33.5 1.4 33.7 2 33.7 2.9 Z M 30 2.9 C 30 3.4 30.1 3.8 30.3 4.1 C 30.5 4.4 30.9 4.5 31.3 4.5 C 32.1 4.5 32.5 4 32.5 2.9 C 32.5 1.7 32.1 1.2 31.3 1.2 C 30.9 1.2 30.5 1.3 30.3 1.6 C 30.1 1.9 30 2.3 30 2.9 Z M 36.5 5.4 L 35.4 5.4 L 35.4 1.2 L 34.1 1.2 L 34.1 0.4 L 37.8 0.4 L 37.8 1.2 L 36.5 1.2 L 36.5 5.4 Z M 44.6 5.4 L 43.2 5.4 L 41.1 1.6 C 41.1 1.6 41.02 1.58 41 1.6 C 41.1 2.2 41.1 2.7 41.1 3 C 41.09 3 41.1 5.4 41.1 5.4 L 40.1 5.4 L 40.1 0.4 L 41.5 0.4 L 43.6 4.1 C 43.6 4.1 43.67 4.1 43.7 4.1 C 43.6 3.5 43.6 3 43.6 2.7 C 43.62 2.72 43.6 0.4 43.6 0.4 L 44.6 0.4 L 44.6 5.4 Z M 47.6 2.5 L 49.6 2.5 C 49.6 2.5 49.57 5.14 49.6 5.1 C 49.3 5.2 48.9 5.3 48.7 5.4 C 48.4 5.4 48.1 5.4 47.8 5.4 C 47 5.4 46.5 5.2 46.1 4.8 C 45.7 4.3 45.5 3.7 45.5 2.9 C 45.5 2 45.7 1.4 46.2 1 C 46.6 0.5 47.3 0.3 48.1 0.3 C 48.6 0.3 49.1 0.4 49.6 0.6 C 49.6 0.6 49.2 1.4 49.2 1.4 C 48.8 1.3 48.5 1.2 48.1 1.2 C 47.6 1.2 47.3 1.3 47 1.6 C 46.7 1.9 46.6 2.4 46.6 2.9 C 46.6 3.4 46.7 3.8 46.9 4.1 C 47.1 4.4 47.4 4.5 47.9 4.5 C 48.1 4.5 48.3 4.5 48.5 4.5 C 48.54 4.47 48.5 3.4 48.5 3.4 L 47.6 3.4 L 47.6 2.5 Z M 52.3 0.4 C 52.3 0.4 53.86 0.36 53.9 0.4 C 54.6 0.4 55.1 0.5 55.4 0.7 C 55.7 0.9 55.9 1.2 55.9 1.6 C 55.9 1.9 55.8 2.2 55.7 2.4 C 55.5 2.5 55.3 2.7 55.1 2.7 C 55.1 2.7 55.1 2.7 55.1 2.7 C 55.4 2.8 55.7 2.9 55.8 3.1 C 55.9 3.3 56 3.6 56 3.9 C 56 4.4 55.8 4.7 55.5 5 C 55.2 5.2 54.7 5.4 54.2 5.4 C 54.17 5.36 52.3 5.4 52.3 5.4 L 52.3 0.4 Z M 53.4 2.3 C 53.4 2.3 53.97 2.34 54 2.3 C 54.3 2.3 54.5 2.3 54.6 2.2 C 54.7 2.1 54.8 2 54.8 1.8 C 54.8 1.6 54.7 1.4 54.6 1.4 C 54.4 1.3 54.2 1.2 53.9 1.2 C 53.92 1.23 53.4 1.2 53.4 1.2 L 53.4 2.3 Z M 53.4 3.2 L 53.4 4.5 C 53.4 4.5 54.05 4.48 54 4.5 C 54.3 4.5 54.6 4.4 54.7 4.3 C 54.8 4.2 54.9 4 54.9 3.8 C 54.9 3.4 54.6 3.2 54 3.2 C 54.02 3.18 53.4 3.2 53.4 3.2 Z M 59.9 5.4 L 59.6 4.2 L 57.7 4.2 L 57.4 5.4 L 56.2 5.4 L 58 0.3 L 59.3 0.3 L 61.1 5.4 L 59.9 5.4 Z M 59.3 3.3 C 59 2.2 58.8 1.6 58.7 1.4 C 58.7 1.3 58.7 1.2 58.7 1.1 C 58.6 1.4 58.4 2.1 58 3.3 C 58 3.3 59.3 3.3 59.3 3.3 Z M 63.1 2.4 L 64.2 0.4 L 65.3 0.4 L 63.6 3.4 L 63.6 5.4 L 62.6 5.4 L 62.6 3.4 L 60.9 0.4 L 62.1 0.4 L 63.1 2.4 Z M 68.8 5.4 L 68.5 4.2 L 66.7 4.2 L 66.3 5.4 L 65.2 5.4 L 66.9 0.3 L 68.2 0.3 L 70 5.4 L 68.8 5.4 Z M 68.2 3.3 C 67.9 2.2 67.7 1.6 67.7 1.4 C 67.6 1.3 67.6 1.2 67.6 1.1 C 67.5 1.4 67.3 2.1 66.9 3.3 C 66.9 3.3 68.2 3.3 68.2 3.3 Z M 74.9 5.4 L 73.6 5.4 L 71.4 1.6 C 71.4 1.6 71.35 1.58 71.4 1.6 C 71.4 2.2 71.4 2.7 71.4 3 C 71.42 3 71.4 5.4 71.4 5.4 L 70.5 5.4 L 70.5 0.4 L 71.8 0.4 L 74 4.1 C 74 4.1 74 4.1 74 4.1 C 74 3.5 73.9 3 73.9 2.7 C 73.95 2.72 73.9 0.4 73.9 0.4 L 74.9 0.4 L 74.9 5.4 Z M 75.8 4.9 C 75.8 4.7 75.8 4.5 75.9 4.4 C 76 4.3 76.2 4.3 76.4 4.3 C 76.6 4.3 76.7 4.3 76.8 4.4 C 76.9 4.5 77 4.7 77 4.9 C 77 5 76.9 5.2 76.8 5.3 C 76.7 5.4 76.6 5.4 76.4 5.4 C 76.2 5.4 76.1 5.4 75.9 5.3 C 75.8 5.2 75.8 5.1 75.8 4.9 Z M 75.8 2 C 75.8 1.9 75.8 1.7 75.9 1.6 C 76 1.5 76.2 1.5 76.4 1.5 C 76.6 1.5 76.7 1.5 76.8 1.6 C 76.9 1.7 77 1.9 77 2 C 77 2.2 76.9 2.4 76.8 2.5 C 76.7 2.6 76.6 2.6 76.4 2.6 C 76.2 2.6 76.1 2.6 75.9 2.5 C 75.8 2.4 75.8 2.2 75.8 2 Z M 83 5.4 L 83 0.4 L 83.3 0.4 L 83.3 5.4 L 83 5.4 Z M 87.9 5.4 L 84.5 5.4 L 84.5 5.1 L 87.4 0.7 L 84.6 0.7 L 84.6 0.4 L 87.9 0.4 L 87.9 0.6 L 84.9 5 L 87.9 5 L 87.9 5.4 Z M 91.8 5.4 L 89.1 5.4 L 89.1 0.4 L 91.8 0.4 L 91.8 0.7 L 89.4 0.7 L 89.4 2.6 L 91.7 2.6 L 91.7 2.9 L 89.4 2.9 L 89.4 5 L 91.8 5 L 91.8 5.4 Z M 93.1 5.4 L 93.1 0.4 L 93.4 0.4 L 93.4 5 L 95.8 5 L 95.8 5.4 L 93.1 5.4 Z M 100 0.4 C 101.2 0.4 101.8 0.8 101.8 1.8 C 101.8 2.3 101.6 2.6 101.3 2.9 C 100.9 3.2 100.5 3.3 99.9 3.3 C 99.88 3.29 99.1 3.3 99.1 3.3 L 99.1 5.4 L 98.8 5.4 L 98.8 0.4 L 100 0.4 C 100 0.4 99.98 0.36 100 0.4 Z M 99.1 3 C 99.1 3 99.8 2.99 99.8 3 C 100.4 3 100.8 2.9 101 2.7 C 101.3 2.5 101.4 2.2 101.4 1.8 C 101.4 1.4 101.3 1.1 101 1 C 100.8 0.8 100.4 0.7 99.9 0.7 C 99.94 0.67 99.1 0.7 99.1 0.7 L 99.1 3 Z M 103.3 3.2 L 103.3 5.4 L 103 5.4 L 103 0.4 C 103 0.4 104.19 0.36 104.2 0.4 C 104.8 0.4 105.3 0.5 105.6 0.7 C 105.9 0.9 106 1.3 106 1.7 C 106 2.1 105.9 2.4 105.7 2.6 C 105.6 2.8 105.3 3 104.9 3.1 C 104.93 3.08 106.3 5.4 106.3 5.4 L 105.9 5.4 L 104.6 3.2 L 103.3 3.2 Z M 103.3 2.9 C 103.3 2.9 104.3 2.88 104.3 2.9 C 104.7 2.9 105 2.8 105.3 2.6 C 105.5 2.4 105.6 2.1 105.6 1.8 C 105.6 1.4 105.5 1.1 105.3 0.9 C 105.1 0.8 104.7 0.7 104.2 0.7 C 104.17 0.67 103.3 0.7 103.3 0.7 L 103.3 2.9 Z M 109.7 3.6 L 107.7 3.6 L 107 5.4 L 106.6 5.4 L 108.6 0.3 L 108.8 0.3 L 110.8 5.4 L 110.4 5.4 L 109.7 3.6 Z M 107.8 3.3 L 109.6 3.3 C 109.6 3.3 108.91 1.48 108.9 1.5 C 108.8 1.3 108.8 1.1 108.7 0.9 C 108.6 1.1 108.6 1.3 108.5 1.5 C 108.5 1.48 107.8 3.3 107.8 3.3 Z M 111.6 5.4 L 111.6 0.4 L 112 0.4 L 112 5.4 L 111.6 5.4 Z M 116.3 4.1 C 116.3 4.5 116.1 4.8 115.8 5.1 C 115.5 5.3 115.1 5.4 114.6 5.4 C 114 5.4 113.5 5.4 113.2 5.2 C 113.2 5.2 113.2 4.9 113.2 4.9 C 113.6 5 114 5.1 114.6 5.1 C 115 5.1 115.3 5 115.6 4.8 C 115.8 4.6 115.9 4.4 115.9 4.1 C 115.9 3.9 115.9 3.7 115.8 3.6 C 115.7 3.5 115.6 3.4 115.4 3.3 C 115.2 3.2 115 3.1 114.6 2.9 C 114.1 2.8 113.8 2.6 113.6 2.4 C 113.4 2.2 113.3 1.9 113.3 1.6 C 113.3 1.2 113.4 0.9 113.7 0.6 C 114 0.4 114.4 0.3 114.8 0.3 C 115.3 0.3 115.8 0.4 116.2 0.6 C 116.2 0.6 116 0.9 116 0.9 C 115.6 0.7 115.2 0.6 114.8 0.6 C 114.5 0.6 114.2 0.7 114 0.9 C 113.7 1 113.6 1.3 113.6 1.5 C 113.6 1.7 113.7 1.9 113.7 2 C 113.8 2.1 113.9 2.2 114.1 2.3 C 114.2 2.4 114.5 2.5 114.9 2.7 C 115.2 2.8 115.5 2.9 115.7 3.1 C 115.9 3.2 116.1 3.3 116.2 3.5 C 116.3 3.6 116.3 3.8 116.3 4.1 Z M 120.2 5.4 L 117.5 5.4 L 117.5 0.4 L 120.2 0.4 L 120.2 0.7 L 117.8 0.7 L 117.8 2.6 L 120.1 2.6 L 120.1 2.9 L 117.8 2.9 L 117.8 5 L 120.2 5 L 120.2 5.4 Z M 123.8 5.4 L 123.5 5.4 L 123.5 0.4 L 126.2 0.4 L 126.2 0.7 L 123.8 0.7 L 123.8 2.8 L 126.1 2.8 L 126.1 3.1 L 123.8 3.1 L 123.8 5.4 Z M 129.8 5.4 L 127.1 5.4 L 127.1 0.4 L 129.8 0.4 L 129.8 0.7 L 127.5 0.7 L 127.5 2.6 L 129.7 2.6 L 129.7 2.9 L 127.5 2.9 L 127.5 5 L 129.8 5 L 129.8 5.4 Z M 131.5 3.2 L 131.5 5.4 L 131.1 5.4 L 131.1 0.4 C 131.1 0.4 132.3 0.36 132.3 0.4 C 132.9 0.4 133.4 0.5 133.7 0.7 C 134 0.9 134.1 1.3 134.1 1.7 C 134.1 2.1 134 2.4 133.9 2.6 C 133.7 2.8 133.4 3 133 3.1 C 133.05 3.08 134.4 5.4 134.4 5.4 L 134 5.4 L 132.7 3.2 L 131.5 3.2 Z M 131.5 2.9 C 131.5 2.9 132.41 2.88 132.4 2.9 C 132.8 2.9 133.2 2.8 133.4 2.6 C 133.6 2.4 133.7 2.1 133.7 1.8 C 133.7 1.4 133.6 1.1 133.4 0.9 C 133.2 0.8 132.8 0.7 132.3 0.7 C 132.29 0.67 131.5 0.7 131.5 0.7 L 131.5 2.9 Z M 139 5.4 L 138.7 5.4 L 135.7 0.9 C 135.7 0.9 135.7 0.92 135.7 0.9 C 135.7 1.4 135.7 1.8 135.7 2.1 C 135.75 2.12 135.7 5.4 135.7 5.4 L 135.4 5.4 L 135.4 0.4 L 135.8 0.4 L 138.7 4.8 C 138.7 4.8 138.74 4.79 138.7 4.8 C 138.7 4.4 138.7 4 138.7 3.6 C 138.71 3.62 138.7 0.4 138.7 0.4 L 139 0.4 L 139 5.4 Z M 143 3.6 L 141 3.6 L 140.3 5.4 L 139.9 5.4 L 141.9 0.3 L 142.1 0.3 L 144.1 5.4 L 143.7 5.4 L 143 3.6 Z M 141.1 3.3 L 142.9 3.3 C 142.9 3.3 142.21 1.48 142.2 1.5 C 142.2 1.3 142.1 1.1 142 0.9 C 141.9 1.1 141.9 1.3 141.8 1.5 C 141.8 1.48 141.1 3.3 141.1 3.3 Z M 148.6 5.4 L 148.2 5.4 L 145.3 0.9 C 145.3 0.9 145.23 0.92 145.2 0.9 C 145.3 1.4 145.3 1.8 145.3 2.1 C 145.27 2.12 145.3 5.4 145.3 5.4 L 144.9 5.4 L 144.9 0.4 L 145.3 0.4 L 148.2 4.8 C 148.2 4.8 148.27 4.79 148.3 4.8 C 148.2 4.4 148.2 4 148.2 3.6 C 148.23 3.62 148.2 0.4 148.2 0.4 L 148.6 0.4 L 148.6 5.4 Z M 153.9 2.8 C 153.9 3.6 153.7 4.3 153.3 4.7 C 152.8 5.1 152.2 5.4 151.3 5.4 C 151.32 5.36 150.1 5.4 150.1 5.4 L 150.1 0.4 C 150.1 0.4 151.48 0.36 151.5 0.4 C 152.3 0.4 152.9 0.6 153.3 1 C 153.7 1.4 153.9 2 153.9 2.8 Z M 151.3 5 C 152.8 5 153.5 4.3 153.5 2.8 C 153.5 2.1 153.4 1.6 153 1.2 C 152.6 0.8 152.1 0.7 151.4 0.7 C 151.4 0.67 150.5 0.7 150.5 0.7 L 150.5 5 L 151.3 5 C 151.3 5 151.3 5.05 151.3 5 Z M 157.9 5.4 L 155.2 5.4 L 155.2 0.4 L 157.9 0.4 L 157.9 0.7 L 155.6 0.7 L 155.6 2.6 L 157.8 2.6 L 157.8 2.9 L 155.6 2.9 L 155.6 5 L 157.9 5 L 157.9 5.4 Z M 162.3 5.4 L 158.8 5.4 L 158.8 5.1 L 161.7 0.7 L 158.9 0.7 L 158.9 0.4 L 162.2 0.4 L 162.2 0.6 L 159.2 5 L 162.3 5 L 162.3 5.4 Z M 169.4 5.4 L 169.4 0.4 L 170.5 0.4 L 170.5 4.5 L 172.5 4.5 L 172.5 5.4 L 169.4 5.4 Z M 176.3 5.4 L 175.9 4.2 L 174.1 4.2 L 173.7 5.4 L 172.6 5.4 L 174.3 0.3 L 175.6 0.3 L 177.4 5.4 L 176.3 5.4 Z M 175.7 3.3 C 175.3 2.2 175.1 1.6 175.1 1.4 C 175 1.3 175 1.2 175 1.1 C 174.9 1.4 174.7 2.1 174.4 3.3 C 174.4 3.3 175.7 3.3 175.7 3.3 Z M 179.5 2.4 L 180.5 0.4 L 181.6 0.4 L 180 3.4 L 180 5.4 L 178.9 5.4 L 178.9 3.4 L 177.3 0.4 L 178.4 0.4 L 179.5 2.4 Z M 186.7 2.9 C 186.7 3.7 186.5 4.3 186 4.8 C 185.6 5.2 185.1 5.4 184.3 5.4 C 183.5 5.4 182.9 5.2 182.5 4.8 C 182.1 4.3 181.9 3.7 181.9 2.8 C 181.9 2 182.1 1.4 182.5 0.9 C 182.9 0.5 183.5 0.3 184.3 0.3 C 185.1 0.3 185.6 0.5 186.1 0.9 C 186.5 1.4 186.7 2 186.7 2.9 Z M 183 2.9 C 183 3.4 183.1 3.8 183.3 4.1 C 183.5 4.4 183.9 4.5 184.3 4.5 C 185.1 4.5 185.6 4 185.6 2.9 C 185.6 1.7 185.1 1.2 184.3 1.2 C 183.9 1.2 183.6 1.3 183.3 1.6 C 183.1 1.9 183 2.3 183 2.9 Z M 191.6 0.4 C 191.6 0.4 191.63 3.59 191.6 3.6 C 191.6 4 191.5 4.3 191.4 4.6 C 191.2 4.8 191 5.1 190.7 5.2 C 190.4 5.4 190 5.4 189.6 5.4 C 188.9 5.4 188.4 5.3 188.1 4.9 C 187.7 4.6 187.5 4.2 187.5 3.6 C 187.53 3.58 187.5 0.4 187.5 0.4 L 188.6 0.4 C 188.6 0.4 188.58 3.42 188.6 3.4 C 188.6 3.8 188.7 4.1 188.8 4.3 C 189 4.4 189.2 4.5 189.6 4.5 C 189.9 4.5 190.2 4.4 190.3 4.3 C 190.5 4.1 190.6 3.8 190.6 3.4 C 190.57 3.41 190.6 0.4 190.6 0.4 L 191.6 0.4 Z M 194.6 5.4 L 193.6 5.4 L 193.6 1.2 L 192.2 1.2 L 192.2 0.4 L 196 0.4 L 196 1.2 L 194.6 1.2 L 194.6 5.4 Z M 201.4 5.4 L 201 4.2 L 199.2 4.2 L 198.8 5.4 L 197.7 5.4 L 199.4 0.3 L 200.7 0.3 L 202.5 5.4 L 201.4 5.4 Z M 200.7 3.3 C 200.4 2.2 200.2 1.6 200.2 1.4 C 200.1 1.3 200.1 1.2 200.1 1.1 C 200 1.4 199.8 2.1 199.4 3.3 C 199.4 3.3 200.7 3.3 200.7 3.3 Z M 204.1 2.6 C 204.1 2.6 204.39 2.58 204.4 2.6 C 204.7 2.6 205 2.5 205.1 2.4 C 205.3 2.3 205.4 2.1 205.4 1.9 C 205.4 1.6 205.3 1.5 205.1 1.4 C 205 1.3 204.7 1.2 204.4 1.2 C 204.37 1.23 204.1 1.2 204.1 1.2 L 204.1 2.6 Z M 204.1 3.4 L 204.1 5.4 L 203 5.4 L 203 0.4 C 203 0.4 204.45 0.36 204.4 0.4 C 205.1 0.4 205.6 0.5 206 0.7 C 206.3 1 206.4 1.4 206.4 1.9 C 206.4 2.1 206.4 2.4 206.2 2.6 C 206 2.9 205.8 3 205.5 3.2 C 206.3 4.3 206.8 5 207 5.4 C 206.98 5.36 205.8 5.4 205.8 5.4 L 204.6 3.4 L 204.1 3.4 Z M 209.4 5.4 L 208.3 5.4 L 208.3 1.2 L 207 1.2 L 207 0.4 L 210.8 0.4 L 210.8 1.2 L 209.4 1.2 L 209.4 5.4 Z M 211.4 5.4 L 211.4 0.4 L 212.4 0.4 L 212.4 5.4 L 211.4 5.4 Z M 216.5 4 C 216.5 4.4 216.4 4.8 216 5 C 215.7 5.3 215.3 5.4 214.7 5.4 C 214.1 5.4 213.7 5.3 213.3 5.1 C 213.3 5.1 213.3 4.1 213.3 4.1 C 213.6 4.3 213.9 4.4 214.1 4.5 C 214.3 4.5 214.6 4.5 214.8 4.5 C 215 4.5 215.2 4.5 215.3 4.4 C 215.4 4.3 215.5 4.2 215.5 4 C 215.5 3.9 215.4 3.8 215.4 3.8 C 215.3 3.7 215.3 3.6 215.2 3.5 C 215 3.5 214.8 3.4 214.5 3.2 C 214.2 3.1 214 2.9 213.8 2.8 C 213.7 2.7 213.5 2.5 213.5 2.3 C 213.4 2.1 213.3 1.9 213.3 1.7 C 213.3 1.3 213.5 0.9 213.8 0.7 C 214.1 0.4 214.5 0.3 215 0.3 C 215.3 0.3 215.5 0.3 215.7 0.4 C 216 0.4 216.2 0.5 216.5 0.6 C 216.5 0.6 216.1 1.5 216.1 1.5 C 215.9 1.4 215.7 1.3 215.5 1.2 C 215.3 1.2 215.1 1.2 215 1.2 C 214.8 1.2 214.6 1.2 214.5 1.3 C 214.4 1.4 214.4 1.5 214.4 1.7 C 214.4 1.8 214.4 1.8 214.4 1.9 C 214.5 2 214.5 2.1 214.6 2.1 C 214.7 2.2 214.9 2.3 215.3 2.5 C 215.8 2.7 216.1 2.9 216.3 3.1 C 216.4 3.4 216.5 3.6 216.5 4 Z M 219.2 5.4 L 218.1 5.4 L 218.1 1.2 L 216.8 1.2 L 216.8 0.4 L 220.6 0.4 L 220.6 1.2 L 219.2 1.2 L 219.2 5.4 Z M 221 4.9 C 221 4.7 221 4.5 221.1 4.4 C 221.2 4.3 221.4 4.3 221.6 4.3 C 221.8 4.3 221.9 4.3 222 4.4 C 222.1 4.5 222.2 4.7 222.2 4.9 C 222.2 5 222.1 5.2 222 5.3 C 221.9 5.4 221.8 5.4 221.6 5.4 C 221.4 5.4 221.2 5.4 221.1 5.3 C 221 5.2 221 5.1 221 4.9 Z M 221 2 C 221 1.9 221 1.7 221.1 1.6 C 221.2 1.5 221.4 1.5 221.6 1.5 C 221.8 1.5 221.9 1.5 222 1.6 C 222.1 1.7 222.2 1.9 222.2 2 C 222.2 2.2 222.1 2.4 222 2.5 C 221.9 2.6 221.8 2.6 221.6 2.6 C 221.4 2.6 221.2 2.6 221.1 2.5 C 221 2.4 221 2.2 221 2 Z M 230.9 4.1 C 230.9 4.5 230.8 4.8 230.5 5.1 C 230.2 5.3 229.7 5.4 229.2 5.4 C 228.6 5.4 228.2 5.4 227.8 5.2 C 227.8 5.2 227.8 4.9 227.8 4.9 C 228.2 5 228.7 5.1 229.2 5.1 C 229.6 5.1 229.9 5 230.2 4.8 C 230.4 4.6 230.5 4.4 230.5 4.1 C 230.5 3.9 230.5 3.7 230.4 3.6 C 230.3 3.5 230.2 3.4 230 3.3 C 229.9 3.2 229.6 3.1 229.2 2.9 C 228.7 2.8 228.4 2.6 228.2 2.4 C 228 2.2 227.9 1.9 227.9 1.6 C 227.9 1.2 228 0.9 228.3 0.6 C 228.6 0.4 229 0.3 229.5 0.3 C 229.9 0.3 230.4 0.4 230.8 0.6 C 230.8 0.6 230.7 0.9 230.7 0.9 C 230.2 0.7 229.9 0.6 229.5 0.6 C 229.1 0.6 228.8 0.7 228.6 0.9 C 228.4 1 228.3 1.3 228.3 1.5 C 228.3 1.7 228.3 1.9 228.4 2 C 228.4 2.1 228.5 2.2 228.7 2.3 C 228.8 2.4 229.1 2.5 229.5 2.7 C 229.9 2.8 230.2 2.9 230.4 3.1 C 230.6 3.2 230.7 3.3 230.8 3.5 C 230.9 3.6 230.9 3.8 230.9 4.1 Z M 236.3 2.9 C 236.3 3.6 236.1 4.3 235.7 4.7 C 235.3 5.2 234.8 5.4 234.1 5.4 C 233.4 5.4 232.8 5.2 232.4 4.7 C 232 4.3 231.9 3.6 231.9 2.8 C 231.9 2 232.1 1.4 232.5 1 C 232.9 0.5 233.4 0.3 234.1 0.3 C 234.8 0.3 235.3 0.5 235.7 1 C 236.1 1.4 236.3 2.1 236.3 2.9 Z M 232.2 2.9 C 232.2 3.6 232.4 4.1 232.7 4.5 C 233 4.9 233.5 5.1 234.1 5.1 C 234.7 5.1 235.1 4.9 235.5 4.5 C 235.8 4.1 235.9 3.6 235.9 2.9 C 235.9 2.1 235.8 1.6 235.5 1.2 C 235.1 0.8 234.7 0.6 234.1 0.6 C 233.5 0.6 233 0.8 232.7 1.2 C 232.4 1.6 232.2 2.1 232.2 2.9 Z M 238 5.4 L 237.6 5.4 L 237.6 0.4 L 240.3 0.4 L 240.3 0.7 L 238 0.7 L 238 2.8 L 240.2 2.8 L 240.2 3.1 L 238 3.1 L 238 5.4 Z M 241.3 5.4 L 241.3 0.4 L 241.6 0.4 L 241.6 5.4 L 241.3 5.4 Z M 245.6 3.6 L 243.5 3.6 L 242.8 5.4 L 242.5 5.4 L 244.5 0.3 L 244.7 0.3 L 246.7 5.4 L 246.3 5.4 L 245.6 3.6 Z M 243.7 3.3 L 245.5 3.3 C 245.5 3.3 244.77 1.48 244.8 1.5 C 244.7 1.3 244.6 1.1 244.6 0.9 C 244.5 1.1 244.4 1.3 244.4 1.5 C 244.37 1.48 243.7 3.3 243.7 3.3 Z M 251.7 5.4 L 249.8 0.7 C 249.8 0.7 249.77 0.74 249.8 0.7 C 249.8 1 249.8 1.3 249.8 1.6 C 249.8 1.61 249.8 5.4 249.8 5.4 L 249.5 5.4 L 249.5 0.4 L 250 0.4 L 251.8 4.8 L 251.8 4.8 L 253.6 0.4 L 254.1 0.4 L 254.1 5.4 L 253.7 5.4 C 253.7 5.4 253.74 1.57 253.7 1.6 C 253.7 1.3 253.8 1 253.8 0.7 C 253.78 0.75 253.8 0.7 253.8 0.7 L 251.9 5.4 L 251.7 5.4 Z M 258 3.6 L 256 3.6 L 255.3 5.4 L 254.9 5.4 L 256.9 0.3 L 257.2 0.3 L 259.1 5.4 L 258.7 5.4 L 258 3.6 Z M 256.1 3.3 L 257.9 3.3 C 257.9 3.3 257.25 1.48 257.3 1.5 C 257.2 1.3 257.1 1.1 257 0.9 C 257 1.1 256.9 1.3 256.8 1.5 C 256.85 1.48 256.1 3.3 256.1 3.3 Z M 260.3 3.2 L 260.3 5.4 L 260 5.4 L 260 0.4 C 260 0.4 261.17 0.36 261.2 0.4 C 261.8 0.4 262.3 0.5 262.5 0.7 C 262.8 0.9 263 1.3 263 1.7 C 263 2.1 262.9 2.4 262.7 2.6 C 262.5 2.8 262.3 3 261.9 3.1 C 261.92 3.08 263.3 5.4 263.3 5.4 L 262.9 5.4 L 261.6 3.2 L 260.3 3.2 Z M 260.3 2.9 C 260.3 2.9 261.29 2.88 261.3 2.9 C 261.7 2.9 262 2.8 262.3 2.6 C 262.5 2.4 262.6 2.1 262.6 1.8 C 262.6 1.4 262.5 1.1 262.3 0.9 C 262 0.8 261.7 0.7 261.2 0.7 C 261.16 0.67 260.3 0.7 260.3 0.7 L 260.3 2.9 Z M 264.3 5.4 L 264.3 0.4 L 264.6 0.4 L 264.6 5.4 L 264.3 5.4 Z M 268.9 5.4 L 266.2 5.4 L 266.2 0.4 L 268.9 0.4 L 268.9 0.7 L 266.5 0.7 L 266.5 2.6 L 268.8 2.6 L 268.8 2.9 L 266.5 2.9 L 266.5 5 L 268.9 5 L 268.9 5.4 Z M 273.4 5.4 L 273.1 5.4 L 273.1 0.7 L 271.5 0.7 L 271.5 0.4 L 275.1 0.4 L 275.1 0.7 L 273.4 0.7 L 273.4 5.4 Z M 276.3 3.2 L 276.3 5.4 L 276 5.4 L 276 0.4 C 276 0.4 277.14 0.36 277.1 0.4 C 277.8 0.4 278.2 0.5 278.5 0.7 C 278.8 0.9 279 1.3 279 1.7 C 279 2.1 278.9 2.4 278.7 2.6 C 278.5 2.8 278.3 3 277.9 3.1 C 277.89 3.08 279.2 5.4 279.2 5.4 L 278.8 5.4 L 277.5 3.2 L 276.3 3.2 Z M 276.3 2.9 C 276.3 2.9 277.26 2.88 277.3 2.9 C 277.7 2.9 278 2.8 278.2 2.6 C 278.5 2.4 278.6 2.1 278.6 1.8 C 278.6 1.4 278.5 1.1 278.2 0.9 C 278 0.8 277.6 0.7 277.1 0.7 C 277.13 0.67 276.3 0.7 276.3 0.7 L 276.3 2.9 Z M 282.7 3.6 L 280.6 3.6 L 279.9 5.4 L 279.5 5.4 L 281.6 0.3 L 281.8 0.3 L 283.7 5.4 L 283.4 5.4 L 282.7 3.6 Z M 280.8 3.3 L 282.5 3.3 C 282.5 3.3 281.86 1.48 281.9 1.5 C 281.8 1.3 281.7 1.1 281.7 0.9 C 281.6 1.1 281.5 1.3 281.5 1.5 C 281.46 1.48 280.8 3.3 280.8 3.3 Z M 284.9 5.4 C 284.9 6.2 284.6 6.6 283.8 6.6 C 283.6 6.6 283.4 6.6 283.3 6.5 C 283.3 6.5 283.3 6.2 283.3 6.2 C 283.4 6.3 283.6 6.3 283.8 6.3 C 284.3 6.3 284.6 6 284.6 5.4 C 284.6 5.39 284.6 0.4 284.6 0.4 L 284.9 0.4 L 284.9 5.4 C 284.9 5.4 284.94 5.36 284.9 5.4 Z M 288.9 3.6 L 286.8 3.6 L 286.1 5.4 L 285.8 5.4 L 287.8 0.3 L 288 0.3 L 290 5.4 L 289.6 5.4 L 288.9 3.6 Z M 287 3.3 L 288.8 3.3 C 288.8 3.3 288.07 1.48 288.1 1.5 C 288 1.3 287.9 1.1 287.9 0.9 C 287.8 1.1 287.7 1.3 287.7 1.5 C 287.67 1.48 287 3.3 287 3.3 Z M 294.4 5.4 L 294.1 5.4 L 291.1 0.9 C 291.1 0.9 291.1 0.92 291.1 0.9 C 291.1 1.4 291.1 1.8 291.1 2.1 C 291.14 2.12 291.1 5.4 291.1 5.4 L 290.8 5.4 L 290.8 0.4 L 291.2 0.4 L 294.1 4.8 C 294.1 4.8 294.13 4.79 294.1 4.8 C 294.1 4.4 294.1 4 294.1 3.6 C 294.1 3.62 294.1 0.4 294.1 0.4 L 294.4 0.4 L 294.4 5.4 Z M 300.2 2.9 C 300.2 3.6 300 4.3 299.6 4.7 C 299.2 5.2 298.7 5.4 298 5.4 C 297.3 5.4 296.7 5.2 296.3 4.7 C 295.9 4.3 295.7 3.6 295.7 2.8 C 295.7 2 295.9 1.4 296.3 1 C 296.7 0.5 297.3 0.3 298 0.3 C 298.7 0.3 299.2 0.5 299.6 1 C 300 1.4 300.2 2.1 300.2 2.9 Z M 296.1 2.9 C 296.1 3.6 296.3 4.1 296.6 4.5 C 296.9 4.9 297.4 5.1 298 5.1 C 298.6 5.1 299 4.9 299.3 4.5 C 299.7 4.1 299.8 3.6 299.8 2.9 C 299.8 2.1 299.7 1.6 299.3 1.2 C 299 0.8 298.6 0.6 298 0.6 C 297.4 0.6 296.9 0.8 296.6 1.2 C 296.3 1.6 296.1 2.1 296.1 2.9 Z " stroke="none" fill="#000"/>
  </g>
</svg>