<?xml version="1.0" standalone="no"?>
<!DOCTYPE svg PUBLIC "-//W3C//DTD SVG 1.1//EN" "http://www.w3.org/Graphics/SVG/1.1/DTD/svg11.dtd">
<svg xmlns="http://www.w3.org/2000/svg" version="1.1" width="470.4px" height="30.6px" viewBox="0 -7 470.4 30.6" style="top:-7px">
  <desc>Panibagong kalaban sa bansang nanghihina:</desc>
  <defs/>
  <g id="Polygon20850">
    <path d="M 38.9 0.6 C 38.9 0.6 42.51 0.64 42.5 0.6 C 43.6 0.6 44.5 0.7 45.1 0.9 C 45.7 1.1 46.2 1.5 46.6 2.2 C 47 2.8 47.2 3.6 47.2 4.6 C 47.2 5.5 47.1 6.3 46.7 6.9 C 46.4 7.5 45.9 7.9 45.4 8.2 C 44.8 8.5 43.9 8.6 42.6 8.6 C 42.63 8.62 41.6 8.6 41.6 8.6 L 41.6 13.3 L 38.9 13.3 L 38.9 0.6 Z M 41.6 2.7 L 41.6 6.4 C 41.6 6.4 42.51 6.45 42.5 6.4 C 43.3 6.4 43.8 6.3 44 5.9 C 44.2 5.6 44.3 5.1 44.3 4.5 C 44.3 4.1 44.2 3.7 44.1 3.4 C 43.9 3.1 43.7 2.9 43.5 2.8 C 43.2 2.7 42.9 2.7 42.5 2.7 C 42.51 2.69 41.6 2.7 41.6 2.7 Z M 50.5 0.6 L 53.3 0.6 L 56.9 13.3 L 54.1 13.3 L 53.4 10.7 L 49.9 10.7 L 49.3 13.3 L 46.7 13.3 L 50.5 0.6 Z M 52.9 8.5 L 51.6 3.3 L 50.4 8.5 L 52.9 8.5 Z M 57.9 0.6 L 61 0.6 L 64.2 8.5 L 64.2 0.6 L 66.4 0.6 L 66.4 13.3 L 63.9 13.3 L 60 4.1 L 60 13.3 L 57.9 13.3 L 57.9 0.6 Z M 68.7 0.6 L 71.4 0.6 L 71.4 13.3 L 68.7 13.3 L 68.7 0.6 Z M 73.8 0.6 C 73.8 0.6 78.16 0.64 78.2 0.6 C 79.2 0.6 79.9 0.7 80.5 0.9 C 81 1 81.4 1.4 81.8 1.9 C 82.1 2.5 82.3 3.2 82.3 4 C 82.3 5.4 81.7 6.3 80.5 6.7 C 81.9 7.2 82.6 8.2 82.6 9.8 C 82.6 10.6 82.4 11.3 82 11.9 C 81.7 12.5 81.2 12.8 80.6 13 C 80 13.2 79.2 13.3 78.2 13.3 C 78.16 13.3 73.8 13.3 73.8 13.3 L 73.8 0.6 Z M 76.5 5.8 C 76.5 5.8 77.41 5.75 77.4 5.8 C 78.3 5.8 78.9 5.6 79.1 5.3 C 79.3 4.9 79.5 4.6 79.5 4.2 C 79.5 3.8 79.3 3.4 79.1 3.1 C 78.9 2.8 78.4 2.7 77.6 2.7 C 77.62 2.69 76.5 2.7 76.5 2.7 L 76.5 5.8 Z M 76.5 11.1 C 76.5 11.1 77.87 11.13 77.9 11.1 C 79.2 11.1 79.8 10.6 79.8 9.5 C 79.8 8.9 79.6 8.4 79.3 8.2 C 79 7.9 78.5 7.8 77.9 7.8 C 77.87 7.8 76.5 7.8 76.5 7.8 L 76.5 11.1 Z M 86.8 0.6 L 89.6 0.6 L 93.2 13.3 L 90.3 13.3 L 89.7 10.7 L 86.1 10.7 L 85.5 13.3 L 82.9 13.3 L 86.8 0.6 Z M 89.2 8.5 L 87.9 3.3 L 86.7 8.5 L 89.2 8.5 Z M 98.5 6.5 L 102.9 6.5 L 102.9 13.3 L 101.7 13.3 C 101.7 13.3 101.35 11.86 101.3 11.9 C 100.7 13 99.6 13.5 98.3 13.5 C 96.8 13.5 95.7 12.9 94.9 11.8 C 94 10.7 93.6 9.1 93.6 7.2 C 93.6 5.1 94 3.5 94.8 2.3 C 95.7 1.1 96.9 0.4 98.5 0.4 C 101.1 0.4 102.6 1.9 102.9 4.8 C 102.9 4.8 100.4 5.2 100.4 5.2 C 100.2 3.5 99.6 2.7 98.6 2.7 C 98 2.7 97.5 3 97.1 3.6 C 96.7 4.2 96.5 5.4 96.5 7.1 C 96.5 8.6 96.7 9.7 97.1 10.3 C 97.4 10.9 98 11.2 98.7 11.2 C 99.8 11.2 100.4 10.4 100.4 8.7 C 100.38 8.72 98.5 8.7 98.5 8.7 L 98.5 6.5 Z M 113.8 7 C 113.8 11.3 112.3 13.5 109.2 13.5 C 107.7 13.5 106.5 12.9 105.8 11.8 C 105 10.7 104.6 9.1 104.6 7 C 104.6 2.6 106.1 0.4 109.2 0.4 C 110.7 0.4 111.8 1 112.6 2.1 C 113.4 3.2 113.8 4.8 113.8 7 Z M 110.9 7 C 110.9 5.3 110.7 4.1 110.5 3.6 C 110.2 3 109.8 2.7 109.2 2.7 C 108.6 2.7 108.2 3 107.9 3.6 C 107.7 4.1 107.5 5.3 107.5 7 C 107.5 8.6 107.7 9.8 107.9 10.4 C 108.2 10.9 108.6 11.2 109.2 11.2 C 109.8 11.2 110.2 11 110.5 10.4 C 110.7 9.8 110.9 8.7 110.9 7 Z M 115.6 0.6 L 118.7 0.6 L 122 8.5 L 122 0.6 L 124.1 0.6 L 124.1 13.3 L 121.6 13.3 L 117.8 4.1 L 117.8 13.3 L 115.6 13.3 L 115.6 0.6 Z M 130.9 6.5 L 135.3 6.5 L 135.3 13.3 L 134.1 13.3 C 134.1 13.3 133.72 11.86 133.7 11.9 C 133 13 132 13.5 130.7 13.5 C 129.2 13.5 128.1 12.9 127.2 11.8 C 126.4 10.7 126 9.1 126 7.2 C 126 5.1 126.4 3.5 127.2 2.3 C 128 1.1 129.3 0.4 130.9 0.4 C 133.5 0.4 134.9 1.9 135.3 4.8 C 135.3 4.8 132.8 5.2 132.8 5.2 C 132.6 3.5 132 2.7 131 2.7 C 130.3 2.7 129.8 3 129.5 3.6 C 129.1 4.2 128.9 5.4 128.9 7.1 C 128.9 8.6 129.1 9.7 129.4 10.3 C 129.8 10.9 130.3 11.2 131 11.2 C 132.2 11.2 132.7 10.4 132.8 8.7 C 132.75 8.72 130.9 8.7 130.9 8.7 L 130.9 6.5 Z M 146.3 0.6 L 149.1 0.6 L 149.1 5.9 L 152.1 0.6 L 155 0.6 L 151.8 5.3 L 155.2 13.3 L 152.4 13.3 L 150.1 7.5 L 149.1 9 L 149.1 13.3 L 146.3 13.3 L 146.3 0.6 Z M 158.6 0.6 L 161.4 0.6 L 165 13.3 L 162.1 13.3 L 161.5 10.7 L 157.9 10.7 L 157.3 13.3 L 154.7 13.3 L 158.6 0.6 Z M 161 8.5 L 159.7 3.3 L 158.5 8.5 L 161 8.5 Z M 166 0.6 L 168.8 0.6 L 168.8 10.9 L 172.9 10.9 L 172.9 13.3 L 166 13.3 L 166 0.6 Z M 176.4 0.6 L 179.2 0.6 L 182.8 13.3 L 179.9 13.3 L 179.3 10.7 L 175.7 10.7 L 175.1 13.3 L 172.6 13.3 L 176.4 0.6 Z M 178.8 8.5 L 177.5 3.3 L 176.3 8.5 L 178.8 8.5 Z M 183.8 0.6 C 183.8 0.6 188.15 0.64 188.2 0.6 C 189.2 0.6 189.9 0.7 190.5 0.9 C 191 1 191.4 1.4 191.7 1.9 C 192.1 2.5 192.3 3.2 192.3 4 C 192.3 5.4 191.7 6.3 190.5 6.7 C 191.9 7.2 192.6 8.2 192.6 9.8 C 192.6 10.6 192.4 11.3 192 11.9 C 191.6 12.5 191.2 12.8 190.6 13 C 190 13.2 189.2 13.3 188.2 13.3 C 188.15 13.3 183.8 13.3 183.8 13.3 L 183.8 0.6 Z M 186.5 5.8 C 186.5 5.8 187.4 5.75 187.4 5.8 C 188.3 5.8 188.9 5.6 189.1 5.3 C 189.3 4.9 189.4 4.6 189.4 4.2 C 189.4 3.8 189.3 3.4 189.1 3.1 C 188.9 2.8 188.4 2.7 187.6 2.7 C 187.61 2.69 186.5 2.7 186.5 2.7 L 186.5 5.8 Z M 186.5 11.1 C 186.5 11.1 187.87 11.13 187.9 11.1 C 189.1 11.1 189.8 10.6 189.8 9.5 C 189.8 8.9 189.6 8.4 189.3 8.2 C 189 7.9 188.5 7.8 187.9 7.8 C 187.87 7.8 186.5 7.8 186.5 7.8 L 186.5 11.1 Z M 196.7 0.6 L 199.5 0.6 L 203.2 13.3 L 200.3 13.3 L 199.7 10.7 L 196.1 10.7 L 195.5 13.3 L 192.9 13.3 L 196.7 0.6 Z M 199.2 8.5 L 197.9 3.3 L 196.7 8.5 L 199.2 8.5 Z M 204.1 0.6 L 207.2 0.6 L 210.5 8.5 L 210.5 0.6 L 212.6 0.6 L 212.6 13.3 L 210.1 13.3 L 206.3 4.1 L 206.3 13.3 L 204.1 13.3 L 204.1 0.6 Z M 227.4 0.4 C 229.6 0.4 231 1.4 231.5 3.4 C 231.5 3.4 229.2 4.3 229.2 4.3 C 228.9 3.2 228.3 2.7 227.4 2.7 C 227 2.7 226.7 2.8 226.4 3.1 C 226.2 3.3 226.1 3.6 226.1 3.9 C 226.1 4.2 226.2 4.5 226.5 4.7 C 226.8 4.9 227.4 5.2 228.3 5.6 C 229.1 5.9 229.7 6.2 230.2 6.5 C 230.7 6.8 231 7.2 231.3 7.7 C 231.6 8.2 231.8 8.8 231.8 9.5 C 231.8 10.6 231.4 11.6 230.5 12.4 C 229.7 13.1 228.6 13.5 227.3 13.5 C 225 13.5 223.5 12.3 222.9 10 C 222.9 10 225.3 9.3 225.3 9.3 C 225.6 10.6 226.3 11.2 227.3 11.2 C 227.8 11.2 228.2 11.1 228.5 10.9 C 228.8 10.6 229 10.3 229 9.9 C 229 9.6 228.9 9.3 228.6 9 C 228.4 8.8 227.9 8.5 227.2 8.3 C 226.2 7.9 225.5 7.6 225 7.3 C 224.5 7 224.2 6.6 223.8 6.1 C 223.5 5.6 223.4 5 223.4 4.3 C 223.4 3.2 223.7 2.3 224.5 1.5 C 225.2 0.8 226.2 0.4 227.4 0.4 C 227.4 0.4 227.4 0.4 227.4 0.4 Z M 235.9 0.6 L 238.7 0.6 L 242.3 13.3 L 239.5 13.3 L 238.9 10.7 L 235.3 10.7 L 234.7 13.3 L 232.1 13.3 L 235.9 0.6 Z M 238.3 8.5 L 237.1 3.3 L 235.8 8.5 L 238.3 8.5 Z M 252.3 0.6 C 252.3 0.6 256.58 0.64 256.6 0.6 C 257.6 0.6 258.4 0.7 258.9 0.9 C 259.4 1 259.8 1.4 260.2 1.9 C 260.5 2.5 260.7 3.2 260.7 4 C 260.7 5.4 260.1 6.3 258.9 6.7 C 260.3 7.2 261 8.2 261 9.8 C 261 10.6 260.9 11.3 260.5 11.9 C 260.1 12.5 259.6 12.8 259 13 C 258.4 13.2 257.6 13.3 256.6 13.3 C 256.58 13.3 252.3 13.3 252.3 13.3 L 252.3 0.6 Z M 254.9 5.8 C 254.9 5.8 255.83 5.75 255.8 5.8 C 256.7 5.8 257.3 5.6 257.5 5.3 C 257.8 4.9 257.9 4.6 257.9 4.2 C 257.9 3.8 257.8 3.4 257.5 3.1 C 257.3 2.8 256.8 2.7 256 2.7 C 256.04 2.69 254.9 2.7 254.9 2.7 L 254.9 5.8 Z M 254.9 11.1 C 254.9 11.1 256.3 11.13 256.3 11.1 C 257.6 11.1 258.2 10.6 258.2 9.5 C 258.2 8.9 258.1 8.4 257.7 8.2 C 257.4 7.9 256.9 7.8 256.3 7.8 C 256.3 7.8 254.9 7.8 254.9 7.8 L 254.9 11.1 Z M 265.2 0.6 L 268 0.6 L 271.6 13.3 L 268.7 13.3 L 268.1 10.7 L 264.5 10.7 L 263.9 13.3 L 261.4 13.3 L 265.2 0.6 Z M 267.6 8.5 L 266.3 3.3 L 265.1 8.5 L 267.6 8.5 Z M 272.6 0.6 L 275.6 0.6 L 278.9 8.5 L 278.9 0.6 L 281 0.6 L 281 13.3 L 278.6 13.3 L 274.7 4.1 L 274.7 13.3 L 272.6 13.3 L 272.6 0.6 Z M 287 0.4 C 289.2 0.4 290.5 1.4 291.1 3.4 C 291.1 3.4 288.8 4.3 288.8 4.3 C 288.4 3.2 287.8 2.7 287 2.7 C 286.6 2.7 286.2 2.8 286 3.1 C 285.8 3.3 285.7 3.6 285.7 3.9 C 285.7 4.2 285.8 4.5 286.1 4.7 C 286.4 4.9 286.9 5.2 287.8 5.6 C 288.7 5.9 289.3 6.2 289.8 6.5 C 290.2 6.8 290.6 7.2 290.9 7.7 C 291.2 8.2 291.3 8.8 291.3 9.5 C 291.3 10.6 290.9 11.6 290.1 12.4 C 289.3 13.1 288.2 13.5 286.8 13.5 C 284.5 13.5 283.1 12.3 282.4 10 C 282.4 10 284.9 9.3 284.9 9.3 C 285.2 10.6 285.8 11.2 286.9 11.2 C 287.4 11.2 287.8 11.1 288.1 10.9 C 288.4 10.6 288.5 10.3 288.5 9.9 C 288.5 9.6 288.4 9.3 288.2 9 C 288 8.8 287.5 8.5 286.8 8.3 C 285.8 7.9 285.1 7.6 284.6 7.3 C 284.1 7 283.7 6.6 283.4 6.1 C 283.1 5.6 283 5 283 4.3 C 283 3.2 283.3 2.3 284 1.5 C 284.8 0.8 285.8 0.4 287 0.4 C 287 0.4 287 0.4 287 0.4 Z M 295.5 0.6 L 298.3 0.6 L 301.9 13.3 L 299.1 13.3 L 298.4 10.7 L 294.9 10.7 L 294.2 13.3 L 291.7 13.3 L 295.5 0.6 Z M 297.9 8.5 L 296.6 3.3 L 295.4 8.5 L 297.9 8.5 Z M 302.9 0.6 L 306 0.6 L 309.2 8.5 L 309.2 0.6 L 311.4 0.6 L 311.4 13.3 L 308.9 13.3 L 305 4.1 L 305 13.3 L 302.9 13.3 L 302.9 0.6 Z M 318.1 6.5 L 322.5 6.5 L 322.5 13.3 L 321.3 13.3 C 321.3 13.3 320.95 11.86 321 11.9 C 320.3 13 319.2 13.5 317.9 13.5 C 316.4 13.5 315.3 12.9 314.5 11.8 C 313.6 10.7 313.2 9.1 313.2 7.2 C 313.2 5.1 313.6 3.5 314.4 2.3 C 315.3 1.1 316.5 0.4 318.1 0.4 C 320.7 0.4 322.2 1.9 322.5 4.8 C 322.5 4.8 320 5.2 320 5.2 C 319.8 3.5 319.2 2.7 318.2 2.7 C 317.6 2.7 317.1 3 316.7 3.6 C 316.3 4.2 316.1 5.4 316.1 7.1 C 316.1 8.6 316.3 9.7 316.7 10.3 C 317 10.9 317.6 11.2 318.3 11.2 C 319.4 11.2 320 10.4 320 8.7 C 319.99 8.72 318.1 8.7 318.1 8.7 L 318.1 6.5 Z M 333.4 0.6 L 336.5 0.6 L 339.8 8.5 L 339.8 0.6 L 341.9 0.6 L 341.9 13.3 L 339.4 13.3 L 335.6 4.1 L 335.6 13.3 L 333.4 13.3 L 333.4 0.6 Z M 346.8 0.6 L 349.6 0.6 L 353.2 13.3 L 350.4 13.3 L 349.7 10.7 L 346.2 10.7 L 345.6 13.3 L 343 13.3 L 346.8 0.6 Z M 349.2 8.5 L 347.9 3.3 L 346.7 8.5 L 349.2 8.5 Z M 354.2 0.6 L 357.3 0.6 L 360.5 8.5 L 360.5 0.6 L 362.7 0.6 L 362.7 13.3 L 360.2 13.3 L 356.3 4.1 L 356.3 13.3 L 354.2 13.3 L 354.2 0.6 Z M 369.4 6.5 L 373.8 6.5 L 373.8 13.3 L 372.6 13.3 C 372.6 13.3 372.25 11.86 372.3 11.9 C 371.6 13 370.6 13.5 369.2 13.5 C 367.8 13.5 366.6 12.9 365.8 11.8 C 364.9 10.7 364.5 9.1 364.5 7.2 C 364.5 5.1 364.9 3.5 365.7 2.3 C 366.6 1.1 367.8 0.4 369.4 0.4 C 372 0.4 373.5 1.9 373.8 4.8 C 373.8 4.8 371.3 5.2 371.3 5.2 C 371.1 3.5 370.5 2.7 369.5 2.7 C 368.9 2.7 368.4 3 368 3.6 C 367.6 4.2 367.4 5.4 367.4 7.1 C 367.4 8.6 367.6 9.7 368 10.3 C 368.3 10.9 368.9 11.2 369.6 11.2 C 370.7 11.2 371.3 10.4 371.3 8.7 C 371.29 8.72 369.4 8.7 369.4 8.7 L 369.4 6.5 Z M 376 0.6 L 378.7 0.6 L 378.7 5.8 L 381.8 5.8 L 381.8 0.6 L 384.6 0.6 L 384.6 13.3 L 381.8 13.3 L 381.8 8.1 L 378.7 8.1 L 378.7 13.3 L 376 13.3 L 376 0.6 Z M 387 0.6 L 389.8 0.6 L 389.8 13.3 L 387 13.3 L 387 0.6 Z M 392.1 0.6 L 394.9 0.6 L 394.9 5.8 L 398 5.8 L 398 0.6 L 400.8 0.6 L 400.8 13.3 L 398 13.3 L 398 8.1 L 394.9 8.1 L 394.9 13.3 L 392.1 13.3 L 392.1 0.6 Z M 403.1 0.6 L 405.9 0.6 L 405.9 13.3 L 403.1 13.3 L 403.1 0.6 Z M 408.2 0.6 L 411.3 0.6 L 414.6 8.5 L 414.6 0.6 L 416.7 0.6 L 416.7 13.3 L 414.2 13.3 L 410.4 4.1 L 410.4 13.3 L 408.2 13.3 L 408.2 0.6 Z M 421.6 0.6 L 424.4 0.6 L 428 13.3 L 425.2 13.3 L 424.5 10.7 L 421 10.7 L 420.4 13.3 L 417.8 13.3 L 421.6 0.6 Z M 424 8.5 L 422.7 3.3 L 421.5 8.5 L 424 8.5 Z M 429 3.9 L 431.6 3.9 L 431.6 6.7 L 429 6.7 L 429 3.9 Z M 429 10.5 L 431.6 10.5 L 431.6 13.3 L 429 13.3 L 429 10.5 Z " stroke="none" fill="#000"/>
  </g>
</svg>