<?xml version="1.0" standalone="no"?>
<!DOCTYPE svg PUBLIC "-//W3C//DTD SVG 1.1//EN" "http://www.w3.org/Graphics/SVG/1.1/DTD/svg11.dtd">
<svg xmlns="http://www.w3.org/2000/svg" version="1.1" width="470.4px" height="124.8px" viewBox="0 -12 470.4 124.8" style="top:-12px">
  <desc>Patuloy na pamamayagpag ng mga atletang Lasalyano kasangga ang mga karakter sa sports anime</desc>
  <defs/>
  <g id="Polygon33395">
    <path d="M 1 88.4 C 3.2 88.2 3.3 88.1 3.3 86.6 C 3.3 86.6 3.3 76.8 3.3 76.8 C 3.3 75.7 3.1 75.5 2.3 75.4 C 2.33 75.39 1.1 75.2 1.1 75.2 L 1.1 74.5 L 6 73.7 C 6 73.7 6.23 76.04 6.2 76 C 7.3 75.2 9.3 73.7 11.7 73.7 C 13.8 73.7 15 74.6 15.7 76.1 C 16.8 75.4 18.7 73.7 21.2 73.7 C 24.1 73.7 25.8 75.5 25.8 78.6 C 25.8 78.6 25.8 86.6 25.8 86.6 C 25.8 88.1 25.9 88.2 28.1 88.4 C 28.15 88.35 28.1 89.2 28.1 89.2 L 20.6 89.2 C 20.6 89.2 20.58 88.35 20.6 88.4 C 22.8 88.2 22.9 88.1 22.9 86.6 C 22.9 86.6 22.9 79.2 22.9 79.2 C 22.9 76.5 21.7 75.4 19.8 75.4 C 18 75.4 16.7 76.4 16.2 77.6 C 16.1 78.1 16 78.5 16 79.3 C 16 79.3 16 86.6 16 86.6 C 16 88.1 16.2 88.2 18.4 88.4 C 18.35 88.35 18.4 89.2 18.4 89.2 L 10.8 89.2 C 10.8 89.2 10.79 88.35 10.8 88.4 C 13 88.2 13.1 88.1 13.1 86.6 C 13.1 86.6 13.1 79.2 13.1 79.2 C 13.1 77.3 12.8 75.4 10.1 75.4 C 8.4 75.4 7.1 76.4 6.5 77.7 C 6.3 78.1 6.2 78.5 6.2 79.3 C 6.2 79.3 6.2 86.6 6.2 86.6 C 6.2 88.1 6.4 88.2 8.6 88.4 C 8.56 88.35 8.6 89.2 8.6 89.2 L 1 89.2 C 1 89.2 0.99 88.35 1 88.4 Z M 32.9 88.8 C 32.9 88.8 32.9 88.8 32.9 88.8 C 31.4 88.6 30.1 87.4 30.1 86.3 C 30.1 85.1 31.3 84.2 33 83.6 C 33 83.6 33 83.5 33 83.5 C 31.6 83.1 29.6 81.8 29.6 78.9 C 29.6 76.6 31.3 73.7 36.1 73.7 C 37.5 73.7 39.2 74.1 40.1 74.6 C 40.05 74.65 44 73.4 44 73.4 L 44.3 73.7 L 43.6 75.6 C 43.6 75.6 41.2 75.98 41.2 76 C 41.7 76.5 42.1 77.6 42.1 78.9 C 42.1 82.6 38.8 83.9 35.9 83.9 C 35.5 83.9 34.9 83.9 34.3 83.9 C 33.9 84 32.7 84.5 32.7 85.4 C 32.7 86 33 86.7 35.3 86.7 C 35.3 86.7 37.8 86.7 37.8 86.7 C 41.1 86.7 43.7 87.9 43.7 91.2 C 43.7 93.2 42.7 94.6 41.3 95.5 C 39.8 96.4 37.9 96.8 36 96.8 C 32.4 96.8 29.3 95.4 29.3 92.2 C 29.3 90 31.5 89.2 32.9 88.8 Z M 36.7 95.7 C 38.9 95.7 41.1 94.5 41.1 92 C 41.1 89.7 39.1 89 36.4 89 C 34.9 89 33.9 89.2 33.2 89.7 C 32.5 90.2 32.2 91 32.2 92.1 C 32.2 94.3 34.1 95.7 36.7 95.7 Z M 36 82.9 C 37.8 82.9 39.2 81.5 39.2 78.9 C 39.2 75.9 37.6 74.8 36.1 74.8 C 34.4 74.8 32.8 75.8 32.8 78.9 C 32.8 81.5 34.3 82.9 36 82.9 Z M 47.9 81.5 C 50.3 80.8 53.4 80 54.1 79.2 C 54.1 79.2 54.1 77.9 54.1 77.9 C 54.1 75.4 52.7 74.8 51.5 74.8 C 50.3 74.8 49 75.5 48.3 77.8 C 48.1 78.3 48 78.7 47.3 78.7 C 46.7 78.7 45.6 78.2 45.6 77.2 C 45.6 75.5 48.3 73.7 51.8 73.7 C 56.5 73.7 56.9 76 56.9 77.8 C 56.9 77.8 56.9 85.3 56.9 85.3 C 56.9 87.3 57.4 87.9 58 88 C 58.5 88.1 59.1 88 59.6 87.9 C 59.6 87.9 59.8 88.7 59.8 88.7 C 58.6 89.3 57.3 89.6 56.1 89.6 C 55 89.6 54.5 88.9 54.1 87.8 C 53.1 88.4 51.3 89.6 49.5 89.6 C 46.6 89.6 45 87.5 45 85.2 C 45 83.8 45.7 82.2 47.9 81.5 Z M 51 88 C 52.2 88 54.1 87.3 54.1 84.8 C 54.1 84.8 54.1 80.4 54.1 80.4 C 53.4 80.9 51.8 81.5 50.6 81.9 C 48.8 82.6 48.1 83.3 48.1 84.8 C 48.1 86.6 49.1 88 51 88 Z M 66.1 88.4 C 68.3 88.2 68.4 88.1 68.4 86.6 C 68.4 86.6 68.4 69.3 68.4 69.3 C 68.4 68.2 68.2 68 67.4 67.9 C 67.39 67.92 66.2 67.8 66.2 67.8 L 66.2 67 L 71.1 66.2 L 71.3 66.4 L 71.3 80.9 C 71.3 80.9 71.36 80.94 71.4 80.9 C 72.1 79.9 75.1 76 76 75 C 76.7 74.2 76.9 74.1 78 74.1 C 77.99 74.06 81.2 74.1 81.2 74.1 C 81.2 74.1 81.19 74.93 81.2 74.9 C 79.4 75.1 78.6 75.5 77.6 76.3 C 76.5 77 75.5 77.9 74 79.6 C 73.7 80 73.8 80.1 73.9 80.4 C 75.1 82 77.5 85 79.5 86.9 C 80.4 87.8 81.2 88.3 82.1 88.5 C 82.12 88.54 82.1 89.4 82.1 89.4 C 82.1 89.4 79.79 89.31 79.8 89.3 C 78.8 89.2 77.6 88.9 76.4 87.7 C 74.8 86.1 72.6 83.4 71.4 81.4 C 71.36 81.38 71.3 81.4 71.3 81.4 C 71.3 81.4 71.3 86.55 71.3 86.6 C 71.3 88.1 71.4 88.2 73.6 88.4 C 73.62 88.35 73.6 89.2 73.6 89.2 L 66.1 89.2 C 66.1 89.2 66.06 88.35 66.1 88.4 Z M 85.5 81.5 C 87.9 80.8 90.9 80 91.7 79.2 C 91.7 79.2 91.7 77.9 91.7 77.9 C 91.7 75.4 90.3 74.8 89.1 74.8 C 87.8 74.8 86.6 75.5 85.9 77.8 C 85.7 78.3 85.5 78.7 84.9 78.7 C 84.3 78.7 83.1 78.2 83.1 77.2 C 83.1 75.5 85.9 73.7 89.4 73.7 C 94.1 73.7 94.5 76 94.5 77.8 C 94.5 77.8 94.5 85.3 94.5 85.3 C 94.5 87.3 95 87.9 95.6 88 C 96 88.1 96.7 88 97.2 87.9 C 97.2 87.9 97.3 88.7 97.3 88.7 C 96.2 89.3 94.8 89.6 93.7 89.6 C 92.6 89.6 92.1 88.9 91.7 87.8 C 90.7 88.4 88.8 89.6 87 89.6 C 84.1 89.6 82.6 87.5 82.6 85.2 C 82.6 83.8 83.2 82.2 85.5 81.5 Z M 88.6 88 C 89.8 88 91.7 87.3 91.7 84.8 C 91.7 84.8 91.7 80.4 91.7 80.4 C 91 80.9 89.4 81.5 88.1 81.9 C 86.4 82.6 85.7 83.3 85.7 84.8 C 85.7 86.6 86.6 88 88.6 88 Z M 97.6 88.4 C 99.8 88.2 100 88.1 100 86.6 C 100 86.6 100 76.8 100 76.8 C 100 75.7 99.8 75.5 99 75.4 C 98.98 75.39 97.8 75.2 97.8 75.2 L 97.8 74.5 L 102.5 73.7 C 102.5 73.7 102.89 76.17 102.9 76.2 C 104.9 74.4 105.9 73.7 107 73.7 C 108.2 73.7 108.6 74.5 108.6 75.2 C 108.6 76.2 107.9 76.9 107.2 76.9 C 107 76.9 106.8 76.9 106.6 76.8 C 105.7 76.3 105.2 76.1 104.7 76.1 C 103.9 76.1 102.9 76.9 102.9 79.3 C 102.9 79.3 102.9 86.6 102.9 86.6 C 102.9 88.1 103.1 88.2 105.8 88.4 C 105.83 88.35 105.8 89.2 105.8 89.2 L 97.6 89.2 C 97.6 89.2 97.65 88.35 97.6 88.4 Z M 112.2 81.5 C 114.6 80.8 117.6 80 118.4 79.2 C 118.4 79.2 118.4 77.9 118.4 77.9 C 118.4 75.4 117 74.8 115.8 74.8 C 114.5 74.8 113.3 75.5 112.6 77.8 C 112.4 78.3 112.2 78.7 111.6 78.7 C 111 78.7 109.9 78.2 109.9 77.2 C 109.9 75.5 112.6 73.7 116.1 73.7 C 120.8 73.7 121.2 76 121.2 77.8 C 121.2 77.8 121.2 85.3 121.2 85.3 C 121.2 87.3 121.7 87.9 122.3 88 C 122.8 88.1 123.4 88 123.9 87.9 C 123.9 87.9 124.1 88.7 124.1 88.7 C 122.9 89.3 121.5 89.6 120.4 89.6 C 119.3 89.6 118.8 88.9 118.4 87.8 C 117.4 88.4 115.6 89.6 113.8 89.6 C 110.9 89.6 109.3 87.5 109.3 85.2 C 109.3 83.8 110 82.2 112.2 81.5 Z M 115.3 88 C 116.5 88 118.4 87.3 118.4 84.8 C 118.4 84.8 118.4 80.4 118.4 80.4 C 117.7 80.9 116.1 81.5 114.9 81.9 C 113.1 82.6 112.4 83.3 112.4 84.8 C 112.4 86.6 113.4 88 115.3 88 Z M 124 88.4 C 126.2 88.2 126.3 88.1 126.3 86.6 C 126.3 86.6 126.3 69.3 126.3 69.3 C 126.3 68.2 126.1 68 125.3 67.9 C 125.33 67.92 124.2 67.8 124.2 67.8 L 124.2 67 L 129 66.2 L 129.2 66.4 L 129.2 80.9 C 129.2 80.9 129.3 80.94 129.3 80.9 C 130 79.9 133.1 76 134 75 C 134.6 74.2 134.9 74.1 135.9 74.1 C 135.93 74.06 139.1 74.1 139.1 74.1 C 139.1 74.1 139.13 74.93 139.1 74.9 C 137.3 75.1 136.6 75.5 135.5 76.3 C 134.4 77 133.5 77.9 132 79.6 C 131.7 80 131.7 80.1 131.9 80.4 C 133.1 82 135.5 85 137.4 86.9 C 138.4 87.8 139.1 88.3 140.1 88.5 C 140.06 88.54 140.1 89.4 140.1 89.4 C 140.1 89.4 137.73 89.31 137.7 89.3 C 136.7 89.2 135.5 88.9 134.4 87.7 C 132.8 86.1 130.6 83.4 129.3 81.4 C 129.3 81.38 129.2 81.4 129.2 81.4 C 129.2 81.4 129.24 86.55 129.2 86.6 C 129.2 88.1 129.4 88.2 131.6 88.4 C 131.56 88.35 131.6 89.2 131.6 89.2 L 124 89.2 C 124 89.2 124 88.35 124 88.4 Z M 140 74.1 L 142.3 74.1 L 144.2 70.2 L 145.1 70.2 L 145.1 74.1 L 149.1 74.1 L 149.1 75.3 L 145.1 75.3 C 145.1 75.3 145.11 84.91 145.1 84.9 C 145.1 87.3 146.1 88 147.2 88 C 147.9 88 148.6 87.9 149.4 87.6 C 149.4 87.6 149.6 88.3 149.6 88.3 C 148.7 88.8 147.2 89.6 145.6 89.6 C 144.6 89.6 142.2 89.2 142.2 86.1 C 142.19 86.09 142.2 75.3 142.2 75.3 L 140 75.3 L 140 74.1 Z M 157.7 73.7 C 163.4 73.7 164 78.1 164 79.9 C 164 80.9 163.4 81.1 162.7 81.1 C 162.7 81.1 153.8 81.1 153.8 81.1 C 153.7 84.3 154.5 88 158.3 88 C 160.8 88 162 86.6 162.8 84.8 C 162.8 84.8 163.8 85.3 163.8 85.3 C 162.9 87.7 161.2 89.6 157.7 89.6 C 152.7 89.6 150.6 86.7 150.6 81.8 C 150.6 77.1 152.9 73.7 157.7 73.7 Z M 159.7 79.9 C 160.5 79.9 160.7 79.5 160.7 78.9 C 160.7 77.7 160.4 74.8 157.5 74.8 C 154.3 74.8 153.8 78.6 153.8 79.9 C 153.8 79.9 159.7 79.9 159.7 79.9 Z M 165.4 88.4 C 167.5 88.2 167.7 88.1 167.7 86.6 C 167.7 86.6 167.7 76.8 167.7 76.8 C 167.7 75.7 167.5 75.5 166.7 75.4 C 166.68 75.39 165.5 75.2 165.5 75.2 L 165.5 74.5 L 170.2 73.7 C 170.2 73.7 170.59 76.17 170.6 76.2 C 172.6 74.4 173.6 73.7 174.7 73.7 C 175.9 73.7 176.3 74.5 176.3 75.2 C 176.3 76.2 175.6 76.9 174.9 76.9 C 174.7 76.9 174.5 76.9 174.3 76.8 C 173.4 76.3 172.9 76.1 172.4 76.1 C 171.6 76.1 170.6 76.9 170.6 79.3 C 170.6 79.3 170.6 86.6 170.6 86.6 C 170.6 88.1 170.8 88.2 173.5 88.4 C 173.54 88.35 173.5 89.2 173.5 89.2 L 165.4 89.2 C 165.4 89.2 165.35 88.35 165.4 88.4 Z M 184.5 84.1 C 185.1 86.7 186.5 88.5 189 88.5 C 190.7 88.5 191.9 87.5 191.9 86 C 191.9 83.9 190 83.1 188.6 82.7 C 186 81.9 183.9 80.8 183.9 78.2 C 183.9 75.3 186.2 73.7 189.5 73.7 C 190.9 73.7 192.5 74 193.5 74.7 C 193.53 74.74 193.5 78.4 193.5 78.4 C 193.5 78.4 192.63 78.37 192.6 78.4 C 192.4 76.5 191.4 74.8 189.2 74.8 C 187.6 74.8 186.4 75.7 186.4 77.3 C 186.4 79 188.4 79.7 189.7 80.1 C 192.9 81.1 194.6 82.3 194.6 85 C 194.6 87.7 192.4 89.6 188.8 89.6 C 186.9 89.6 185 89.1 183.9 88.1 C 183.92 88.13 183.6 84.1 183.6 84.1 C 183.6 84.1 184.51 84.07 184.5 84.1 Z M 199.5 81.5 C 201.9 80.8 204.9 80 205.7 79.2 C 205.7 79.2 205.7 77.9 205.7 77.9 C 205.7 75.4 204.3 74.8 203 74.8 C 201.8 74.8 200.5 75.5 199.9 77.8 C 199.7 78.3 199.5 78.7 198.9 78.7 C 198.3 78.7 197.1 78.2 197.1 77.2 C 197.1 75.5 199.9 73.7 203.4 73.7 C 208.1 73.7 208.5 76 208.5 77.8 C 208.5 77.8 208.5 85.3 208.5 85.3 C 208.5 87.3 209 87.9 209.6 88 C 210 88.1 210.7 88 211.1 87.9 C 211.1 87.9 211.3 88.7 211.3 88.7 C 210.1 89.3 208.8 89.6 207.7 89.6 C 206.6 89.6 206.1 88.9 205.7 87.8 C 204.7 88.4 202.8 89.6 201 89.6 C 198.1 89.6 196.6 87.5 196.6 85.2 C 196.6 83.8 197.2 82.2 199.5 81.5 Z M 202.6 88 C 203.8 88 205.7 87.3 205.7 84.8 C 205.7 84.8 205.7 80.4 205.7 80.4 C 205 80.9 203.4 81.5 202.1 81.9 C 200.4 82.6 199.7 83.3 199.7 84.8 C 199.7 86.6 200.6 88 202.6 88 Z M 219.4 84.1 C 220 86.7 221.4 88.5 223.9 88.5 C 225.5 88.5 226.8 87.5 226.8 86 C 226.8 83.9 224.8 83.1 223.4 82.7 C 220.8 81.9 218.7 80.8 218.7 78.2 C 218.7 75.3 221 73.7 224.4 73.7 C 225.8 73.7 227.3 74 228.4 74.7 C 228.37 74.74 228.4 78.4 228.4 78.4 C 228.4 78.4 227.47 78.37 227.5 78.4 C 227.3 76.5 226.2 74.8 224 74.8 C 222.5 74.8 221.2 75.7 221.2 77.3 C 221.2 79 223.3 79.7 224.5 80.1 C 227.7 81.1 229.4 82.3 229.4 85 C 229.4 87.7 227.3 89.6 223.6 89.6 C 221.8 89.6 219.9 89.1 218.8 88.1 C 218.76 88.13 218.5 84.1 218.5 84.1 C 218.5 84.1 219.35 84.07 219.4 84.1 Z M 233 93.7 C 233 93.7 233 76.8 233 76.8 C 233 75.7 232.8 75.5 232 75.4 C 232 75.39 230.8 75.2 230.8 75.2 L 230.8 74.5 L 235.5 73.7 C 235.5 73.7 235.91 75.98 235.9 76 C 237.1 75.2 238.9 73.7 241.2 73.7 C 246.8 73.7 247.2 79.1 247.2 81.3 C 247.2 87.7 243.6 89.6 239.4 89.6 C 238 89.6 236.6 89.3 235.9 88.9 C 235.9 88.9 235.9 93.7 235.9 93.7 C 235.9 95.3 236.1 95.3 238.7 95.5 C 238.7 95.48 238.7 96.4 238.7 96.4 L 230.7 96.4 C 230.7 96.4 230.67 95.48 230.7 95.5 C 232.8 95.3 233 95.3 233 93.7 Z M 236.1 86.3 C 236.6 87.7 237.9 88.5 239.5 88.5 C 242.6 88.5 244 86.1 244 81.5 C 244 76.2 241.2 75.4 240 75.4 C 238.4 75.4 237 76.1 236.3 77.5 C 236 78.1 235.9 78.5 235.9 79.3 C 235.9 79.3 235.9 84.4 235.9 84.4 C 235.9 85.1 235.9 85.7 236.1 86.3 Z M 257.1 73.7 C 262.1 73.7 264.5 76.6 264.5 81.7 C 264.5 86.7 262.1 89.6 257.1 89.6 C 252.1 89.6 249.6 86.7 249.6 81.7 C 249.6 76.6 252.1 73.7 257.1 73.7 Z M 257.1 88.5 C 259.9 88.5 261.3 85.9 261.3 81.7 C 261.3 77.4 259.9 74.8 257.1 74.8 C 254.2 74.8 252.9 77.4 252.9 81.7 C 252.9 85.9 254.2 88.5 257.1 88.5 Z M 266.4 88.4 C 268.5 88.2 268.7 88.1 268.7 86.6 C 268.7 86.6 268.7 76.8 268.7 76.8 C 268.7 75.7 268.5 75.5 267.7 75.4 C 267.71 75.39 266.5 75.2 266.5 75.2 L 266.5 74.5 L 271.2 73.7 C 271.2 73.7 271.62 76.17 271.6 76.2 C 273.7 74.4 274.6 73.7 275.7 73.7 C 276.9 73.7 277.4 74.5 277.4 75.2 C 277.4 76.2 276.7 76.9 275.9 76.9 C 275.8 76.9 275.5 76.9 275.3 76.8 C 274.4 76.3 273.9 76.1 273.4 76.1 C 272.7 76.1 271.6 76.9 271.6 79.3 C 271.6 79.3 271.6 86.6 271.6 86.6 C 271.6 88.1 271.8 88.2 274.6 88.4 C 274.56 88.35 274.6 89.2 274.6 89.2 L 266.4 89.2 C 266.4 89.2 266.38 88.35 266.4 88.4 Z M 278 74.1 L 280.4 74.1 L 282.3 70.2 L 283.2 70.2 L 283.2 74.1 L 287.2 74.1 L 287.2 75.3 L 283.2 75.3 C 283.2 75.3 283.18 84.91 283.2 84.9 C 283.2 87.3 284.2 88 285.2 88 C 286 88 286.7 87.9 287.4 87.6 C 287.4 87.6 287.7 88.3 287.7 88.3 C 286.8 88.8 285.3 89.6 283.7 89.6 C 282.6 89.6 280.3 89.2 280.3 86.1 C 280.27 86.09 280.3 75.3 280.3 75.3 L 278 75.3 L 278 74.1 Z M 289.5 84.1 C 290.1 86.7 291.5 88.5 294 88.5 C 295.6 88.5 296.9 87.5 296.9 86 C 296.9 83.9 294.9 83.1 293.5 82.7 C 291 81.9 288.9 80.8 288.9 78.2 C 288.9 75.3 291.1 73.7 294.5 73.7 C 295.9 73.7 297.5 74 298.5 74.7 C 298.49 74.74 298.5 78.4 298.5 78.4 C 298.5 78.4 297.59 78.37 297.6 78.4 C 297.4 76.5 296.3 74.8 294.1 74.8 C 292.6 74.8 291.3 75.7 291.3 77.3 C 291.3 79 293.4 79.7 294.6 80.1 C 297.8 81.1 299.5 82.3 299.5 85 C 299.5 87.7 297.4 89.6 293.7 89.6 C 291.9 89.6 290 89.1 288.9 88.1 C 288.88 88.13 288.6 84.1 288.6 84.1 C 288.6 84.1 289.47 84.07 289.5 84.1 Z M 310.8 81.5 C 313.2 80.8 316.2 80 317 79.2 C 317 79.2 317 77.9 317 77.9 C 317 75.4 315.6 74.8 314.4 74.8 C 313.1 74.8 311.9 75.5 311.2 77.8 C 311 78.3 310.8 78.7 310.2 78.7 C 309.6 78.7 308.4 78.2 308.4 77.2 C 308.4 75.5 311.2 73.7 314.7 73.7 C 319.4 73.7 319.8 76 319.8 77.8 C 319.8 77.8 319.8 85.3 319.8 85.3 C 319.8 87.3 320.3 87.9 320.9 88 C 321.3 88.1 322 88 322.5 87.9 C 322.5 87.9 322.6 88.7 322.6 88.7 C 321.5 89.3 320.1 89.6 319 89.6 C 317.9 89.6 317.4 88.9 317 87.8 C 316 88.4 314.1 89.6 312.3 89.6 C 309.4 89.6 307.9 87.5 307.9 85.2 C 307.9 83.8 308.5 82.2 310.8 81.5 Z M 313.9 88 C 315.1 88 317 87.3 317 84.8 C 317 84.8 317 80.4 317 80.4 C 316.3 80.9 314.7 81.5 313.4 81.9 C 311.7 82.6 311 83.3 311 84.8 C 311 86.6 311.9 88 313.9 88 Z M 323 88.4 C 325.2 88.2 325.3 88.1 325.3 86.6 C 325.3 86.6 325.3 76.8 325.3 76.8 C 325.3 75.7 325.1 75.5 324.3 75.4 C 324.28 75.39 323.1 75.2 323.1 75.2 L 323.1 74.5 L 327.7 73.7 C 327.7 73.7 328.16 76.04 328.2 76 C 330.1 74.8 331.5 73.7 333.8 73.7 C 336.7 73.7 338.4 75.5 338.4 78.6 C 338.4 78.6 338.4 86.6 338.4 86.6 C 338.4 88.1 338.5 88.2 340.7 88.4 C 340.68 88.35 340.7 89.2 340.7 89.2 L 333.1 89.2 C 333.1 89.2 333.12 88.35 333.1 88.4 C 335.4 88.2 335.4 88.1 335.4 86.6 C 335.4 86.6 335.4 79.2 335.4 79.2 C 335.4 76.5 334.3 75.4 332.2 75.4 C 330.5 75.4 329.2 76.4 328.5 77.6 C 328.3 78.1 328.2 78.5 328.2 79.3 C 328.2 79.3 328.2 86.6 328.2 86.6 C 328.2 88.1 328.3 88.2 330.5 88.4 C 330.52 88.35 330.5 89.2 330.5 89.2 L 323 89.2 C 323 89.2 322.95 88.35 323 88.4 Z M 345.3 67.1 C 346.4 67.1 347.2 67.9 347.2 69 C 347.2 70.1 346.4 70.9 345.3 70.9 C 344.2 70.9 343.4 70.1 343.4 69 C 343.4 67.9 344.2 67.1 345.3 67.1 Z M 341.5 88.4 C 343.8 88.2 343.8 88.1 343.8 86.6 C 343.8 86.6 343.8 76.8 343.8 76.8 C 343.8 75.7 343.7 75.5 342.9 75.4 C 342.85 75.39 341.7 75.2 341.7 75.2 L 341.7 74.5 L 346.5 73.7 L 346.8 73.9 C 346.8 73.9 346.76 86.55 346.8 86.6 C 346.8 88.1 346.9 88.2 349.1 88.4 C 349.08 88.35 349.1 89.2 349.1 89.2 L 341.5 89.2 C 341.5 89.2 341.52 88.35 341.5 88.4 Z M 349.9 88.4 C 352.2 88.2 352.2 88.1 352.2 86.6 C 352.2 86.6 352.2 76.8 352.2 76.8 C 352.2 75.7 352.1 75.5 351.3 75.4 C 351.25 75.39 350.1 75.2 350.1 75.2 L 350.1 74.5 L 354.9 73.7 C 354.9 73.7 355.16 76.04 355.2 76 C 356.2 75.2 358.2 73.7 360.6 73.7 C 362.8 73.7 363.9 74.6 364.7 76.1 C 365.8 75.4 367.6 73.7 370.1 73.7 C 373.1 73.7 374.8 75.5 374.8 78.6 C 374.8 78.6 374.8 86.6 374.8 86.6 C 374.8 88.1 374.9 88.2 377.1 88.4 C 377.08 88.35 377.1 89.2 377.1 89.2 L 369.5 89.2 C 369.5 89.2 369.51 88.35 369.5 88.4 C 371.7 88.2 371.8 88.1 371.8 86.6 C 371.8 86.6 371.8 79.2 371.8 79.2 C 371.8 76.5 370.7 75.4 368.7 75.4 C 367 75.4 365.6 76.4 365.2 77.6 C 365 78.1 365 78.5 365 79.3 C 365 79.3 365 86.6 365 86.6 C 365 88.1 365.1 88.2 367.3 88.4 C 367.28 88.35 367.3 89.2 367.3 89.2 L 359.7 89.2 C 359.7 89.2 359.72 88.35 359.7 88.4 C 361.9 88.2 362 88.1 362 86.6 C 362 86.6 362 79.2 362 79.2 C 362 77.3 361.7 75.4 359.1 75.4 C 357.4 75.4 356 76.4 355.4 77.7 C 355.2 78.1 355.2 78.5 355.2 79.3 C 355.2 79.3 355.2 86.6 355.2 86.6 C 355.2 88.1 355.3 88.2 357.5 88.4 C 357.48 88.35 357.5 89.2 357.5 89.2 L 349.9 89.2 C 349.9 89.2 349.92 88.35 349.9 88.4 Z M 385.6 73.7 C 391.2 73.7 391.8 78.1 391.8 79.9 C 391.8 80.9 391.2 81.1 390.6 81.1 C 390.6 81.1 381.7 81.1 381.7 81.1 C 381.6 84.3 382.4 88 386.2 88 C 388.7 88 389.8 86.6 390.7 84.8 C 390.7 84.8 391.6 85.3 391.6 85.3 C 390.8 87.7 389 89.6 385.6 89.6 C 380.5 89.6 378.4 86.7 378.4 81.8 C 378.4 77.1 380.7 73.7 385.6 73.7 Z M 387.6 79.9 C 388.4 79.9 388.6 79.5 388.6 78.9 C 388.6 77.7 388.3 74.8 385.4 74.8 C 382.2 74.8 381.7 78.6 381.7 79.9 C 381.7 79.9 387.6 79.9 387.6 79.9 Z " stroke="none" fill="#000"/>
  </g>
  <g id="Polygon33394">
    <path d="M 4.4 48.5 C 6.9 47.8 9.9 47 10.6 46.2 C 10.6 46.2 10.6 44.9 10.6 44.9 C 10.6 42.4 9.2 41.8 8 41.8 C 6.8 41.8 5.5 42.5 4.8 44.8 C 4.7 45.3 4.5 45.7 3.8 45.7 C 3.2 45.7 2.1 45.2 2.1 44.2 C 2.1 42.5 4.8 40.7 8.3 40.7 C 13 40.7 13.4 43 13.4 44.8 C 13.4 44.8 13.4 52.3 13.4 52.3 C 13.4 54.3 13.9 54.9 14.5 55 C 15 55.1 15.7 55 16.1 54.9 C 16.1 54.9 16.3 55.7 16.3 55.7 C 15.1 56.3 13.8 56.6 12.6 56.6 C 11.5 56.6 11 55.9 10.6 54.8 C 9.6 55.4 7.8 56.6 6 56.6 C 3.1 56.6 1.5 54.5 1.5 52.2 C 1.5 50.8 2.2 49.2 4.4 48.5 Z M 7.5 55 C 8.7 55 10.6 54.3 10.6 51.8 C 10.6 51.8 10.6 47.4 10.6 47.4 C 10 47.9 8.3 48.5 7.1 48.9 C 5.3 49.6 4.7 50.3 4.7 51.8 C 4.7 53.6 5.6 55 7.5 55 Z M 16.6 41.1 L 18.9 41.1 L 20.8 37.2 L 21.7 37.2 L 21.7 41.1 L 25.7 41.1 L 25.7 42.3 L 21.7 42.3 C 21.7 42.3 21.7 51.91 21.7 51.9 C 21.7 54.3 22.7 55 23.7 55 C 24.5 55 25.2 54.9 25.9 54.6 C 25.9 54.6 26.2 55.3 26.2 55.3 C 25.3 55.8 23.8 56.6 22.2 56.6 C 21.1 56.6 18.8 56.2 18.8 53.1 C 18.79 53.09 18.8 42.3 18.8 42.3 L 16.6 42.3 L 16.6 41.1 Z M 26.3 55.4 C 28.5 55.2 28.6 55.1 28.6 53.6 C 28.6 53.6 28.6 36.3 28.6 36.3 C 28.6 35.2 28.4 35 27.6 34.9 C 27.59 34.92 26.4 34.8 26.4 34.8 L 26.4 34 L 31.3 33.2 L 31.5 33.4 C 31.5 33.4 31.5 53.55 31.5 53.6 C 31.5 55.1 31.6 55.2 33.8 55.4 C 33.82 55.35 33.8 56.2 33.8 56.2 L 26.3 56.2 C 26.3 56.2 26.26 55.35 26.3 55.4 Z M 42.3 40.7 C 48 40.7 48.6 45.1 48.6 46.9 C 48.6 47.9 48 48.1 47.3 48.1 C 47.3 48.1 38.4 48.1 38.4 48.1 C 38.3 51.3 39.1 55 43 55 C 45.4 55 46.6 53.6 47.5 51.8 C 47.5 51.8 48.4 52.3 48.4 52.3 C 47.6 54.7 45.8 56.6 42.3 56.6 C 37.3 56.6 35.2 53.7 35.2 48.8 C 35.2 44.1 37.5 40.7 42.3 40.7 Z M 44.3 46.9 C 45.2 46.9 45.4 46.5 45.4 45.9 C 45.4 44.7 45 41.8 42.1 41.8 C 38.9 41.8 38.4 45.6 38.4 46.9 C 38.4 46.9 44.3 46.9 44.3 46.9 Z M 49.9 41.1 L 52.3 41.1 L 54.2 37.2 L 55.1 37.2 L 55.1 41.1 L 59.1 41.1 L 59.1 42.3 L 55.1 42.3 C 55.1 42.3 55.09 51.91 55.1 51.9 C 55.1 54.3 56.1 55 57.1 55 C 57.9 55 58.6 54.9 59.3 54.6 C 59.3 54.6 59.6 55.3 59.6 55.3 C 58.7 55.8 57.2 56.6 55.6 56.6 C 54.5 56.6 52.2 56.2 52.2 53.1 C 52.17 53.09 52.2 42.3 52.2 42.3 L 49.9 42.3 L 49.9 41.1 Z M 63.4 48.5 C 65.9 47.8 68.9 47 69.7 46.2 C 69.7 46.2 69.7 44.9 69.7 44.9 C 69.7 42.4 68.2 41.8 67 41.8 C 65.8 41.8 64.5 42.5 63.8 44.8 C 63.7 45.3 63.5 45.7 62.8 45.7 C 62.2 45.7 61.1 45.2 61.1 44.2 C 61.1 42.5 63.9 40.7 67.4 40.7 C 72 40.7 72.4 43 72.4 44.8 C 72.4 44.8 72.4 52.3 72.4 52.3 C 72.4 54.3 73 54.9 73.5 55 C 74 55.1 74.7 55 75.1 54.9 C 75.1 54.9 75.3 55.7 75.3 55.7 C 74.1 56.3 72.8 56.6 71.6 56.6 C 70.6 56.6 70.1 55.9 69.6 54.8 C 68.6 55.4 66.8 56.6 65 56.6 C 62.1 56.6 60.5 54.5 60.5 52.2 C 60.5 50.8 61.2 49.2 63.4 48.5 Z M 66.5 55 C 67.7 55 69.7 54.3 69.7 51.8 C 69.7 51.8 69.7 47.4 69.7 47.4 C 69 47.9 67.3 48.5 66.1 48.9 C 64.4 49.6 63.7 50.3 63.7 51.8 C 63.7 53.6 64.6 55 66.5 55 Z M 75.6 55.4 C 77.8 55.2 77.9 55.1 77.9 53.6 C 77.9 53.6 77.9 43.8 77.9 43.8 C 77.9 42.7 77.7 42.5 76.9 42.4 C 76.94 42.39 75.8 42.2 75.8 42.2 L 75.8 41.5 L 80.4 40.7 C 80.4 40.7 80.82 43.04 80.8 43 C 82.7 41.8 84.2 40.7 86.5 40.7 C 89.3 40.7 91 42.5 91 45.6 C 91 45.6 91 53.6 91 53.6 C 91 55.1 91.1 55.2 93.3 55.4 C 93.34 55.35 93.3 56.2 93.3 56.2 L 85.8 56.2 C 85.8 56.2 85.78 55.35 85.8 55.4 C 88 55.2 88.1 55.1 88.1 53.6 C 88.1 53.6 88.1 46.2 88.1 46.2 C 88.1 43.5 87 42.4 84.8 42.4 C 83.2 42.4 81.8 43.4 81.2 44.6 C 80.9 45.1 80.8 45.5 80.8 46.3 C 80.8 46.3 80.8 53.6 80.8 53.6 C 80.8 55.1 81 55.2 83.2 55.4 C 83.17 55.35 83.2 56.2 83.2 56.2 L 75.6 56.2 C 75.6 56.2 75.61 55.35 75.6 55.4 Z M 98.1 55.8 C 98.1 55.8 98.1 55.8 98.1 55.8 C 96.6 55.6 95.3 54.4 95.3 53.3 C 95.3 52.1 96.5 51.2 98.2 50.6 C 98.2 50.6 98.2 50.5 98.2 50.5 C 96.7 50.1 94.8 48.8 94.8 45.9 C 94.8 43.6 96.5 40.7 101.2 40.7 C 102.7 40.7 104.4 41.1 105.2 41.6 C 105.24 41.65 109.2 40.4 109.2 40.4 L 109.5 40.7 L 108.8 42.6 C 108.8 42.6 106.39 42.98 106.4 43 C 106.9 43.5 107.3 44.6 107.3 45.9 C 107.3 49.6 104 50.9 101.1 50.9 C 100.7 50.9 100.1 50.9 99.5 50.9 C 99.1 51 97.9 51.5 97.9 52.4 C 97.9 53 98.2 53.7 100.5 53.7 C 100.5 53.7 102.9 53.7 102.9 53.7 C 106.3 53.7 108.9 54.9 108.9 58.2 C 108.9 60.2 107.9 61.6 106.5 62.5 C 105 63.4 103 63.8 101.2 63.8 C 97.6 63.8 94.5 62.4 94.5 59.2 C 94.5 57 96.7 56.2 98.1 55.8 Z M 101.9 62.7 C 104.1 62.7 106.3 61.5 106.3 59 C 106.3 56.7 104.3 56 101.6 56 C 100.1 56 99.1 56.2 98.4 56.7 C 97.7 57.2 97.4 58 97.4 59.1 C 97.4 61.3 99.3 62.7 101.9 62.7 Z M 101.2 49.9 C 103 49.9 104.3 48.5 104.3 45.9 C 104.3 42.9 102.8 41.8 101.2 41.8 C 99.6 41.8 98 42.8 98 45.9 C 98 48.5 99.4 49.9 101.2 49.9 Z M 116.1 55.4 C 118.9 55.2 118.9 55.1 118.9 53.4 C 118.9 53.4 118.9 37.7 118.9 37.7 C 118.9 35.9 118.9 35.9 116.1 35.7 C 116.12 35.7 116.1 34.8 116.1 34.8 L 125 34.8 C 125 34.8 124.96 35.7 125 35.7 C 122.1 35.9 122 35.9 122 37.7 C 122 37.7 122 52.5 122 52.5 C 122 54 122.1 54.6 122.8 54.9 C 123.4 55.1 124.5 55.2 126.1 55.2 C 129.3 55.2 131 54.8 131.7 50.7 C 131.65 50.7 132.6 50.7 132.6 50.7 L 132.2 56.2 L 116.1 56.2 C 116.1 56.2 116.12 55.35 116.1 55.4 Z M 136.4 48.5 C 138.9 47.8 141.9 47 142.7 46.2 C 142.7 46.2 142.7 44.9 142.7 44.9 C 142.7 42.4 141.2 41.8 140 41.8 C 138.8 41.8 137.5 42.5 136.8 44.8 C 136.7 45.3 136.5 45.7 135.8 45.7 C 135.3 45.7 134.1 45.2 134.1 44.2 C 134.1 42.5 136.9 40.7 140.4 40.7 C 145 40.7 145.4 43 145.4 44.8 C 145.4 44.8 145.4 52.3 145.4 52.3 C 145.4 54.3 146 54.9 146.5 55 C 147 55.1 147.7 55 148.1 54.9 C 148.1 54.9 148.3 55.7 148.3 55.7 C 147.1 56.3 145.8 56.6 144.6 56.6 C 143.6 56.6 143.1 55.9 142.6 54.8 C 141.6 55.4 139.8 56.6 138 56.6 C 135.1 56.6 133.5 54.5 133.5 52.2 C 133.5 50.8 134.2 49.2 136.4 48.5 Z M 139.5 55 C 140.7 55 142.7 54.3 142.7 51.8 C 142.7 51.8 142.7 47.4 142.7 47.4 C 142 47.9 140.3 48.5 139.1 48.9 C 137.4 49.6 136.7 50.3 136.7 51.8 C 136.7 53.6 137.6 55 139.5 55 Z M 150 51.1 C 150.6 53.7 152 55.5 154.5 55.5 C 156.1 55.5 157.4 54.5 157.4 53 C 157.4 50.9 155.4 50.1 154 49.7 C 151.5 48.9 149.4 47.8 149.4 45.2 C 149.4 42.3 151.6 40.7 155 40.7 C 156.4 40.7 158 41 159 41.7 C 159 41.74 159 45.4 159 45.4 C 159 45.4 158.1 45.37 158.1 45.4 C 157.9 43.5 156.8 41.8 154.6 41.8 C 153.1 41.8 151.8 42.7 151.8 44.3 C 151.8 46 153.9 46.7 155.2 47.1 C 158.3 48.1 160 49.3 160 52 C 160 54.7 157.9 56.6 154.2 56.6 C 152.4 56.6 150.5 56.1 149.4 55.1 C 149.39 55.13 149.1 51.1 149.1 51.1 C 149.1 51.1 149.98 51.07 150 51.1 Z M 164.9 48.5 C 167.4 47.8 170.4 47 171.1 46.2 C 171.1 46.2 171.1 44.9 171.1 44.9 C 171.1 42.4 169.7 41.8 168.5 41.8 C 167.3 41.8 166 42.5 165.3 44.8 C 165.2 45.3 165 45.7 164.3 45.7 C 163.7 45.7 162.6 45.2 162.6 44.2 C 162.6 42.5 165.4 40.7 168.9 40.7 C 173.5 40.7 173.9 43 173.9 44.8 C 173.9 44.8 173.9 52.3 173.9 52.3 C 173.9 54.3 174.5 54.9 175 55 C 175.5 55.1 176.2 55 176.6 54.9 C 176.6 54.9 176.8 55.7 176.8 55.7 C 175.6 56.3 174.3 56.6 173.1 56.6 C 172 56.6 171.6 55.9 171.1 54.8 C 170.1 55.4 168.3 56.6 166.5 56.6 C 163.6 56.6 162 54.5 162 52.2 C 162 50.8 162.7 49.2 164.9 48.5 Z M 168 55 C 169.2 55 171.1 54.3 171.1 51.8 C 171.1 51.8 171.1 47.4 171.1 47.4 C 170.5 47.9 168.8 48.5 167.6 48.9 C 165.8 49.6 165.2 50.3 165.2 51.8 C 165.2 53.6 166.1 55 168 55 Z M 176.7 55.4 C 179 55.2 179.1 55.1 179.1 53.6 C 179.1 53.6 179.1 36.3 179.1 36.3 C 179.1 35.2 178.9 35 178.1 34.9 C 178.06 34.92 176.9 34.8 176.9 34.8 L 176.9 34 L 181.7 33.2 L 182 33.4 C 182 33.4 181.97 53.55 182 53.6 C 182 55.1 182.1 55.2 184.3 55.4 C 184.29 55.35 184.3 56.2 184.3 56.2 L 176.7 56.2 C 176.7 56.2 176.73 55.35 176.7 55.4 Z M 184 41.1 L 191.1 41.1 L 191.1 42 C 191.1 42 189.75 42.08 189.7 42.1 C 189 42.1 189.1 42.5 189.3 43 C 190.4 46.3 191.7 49.7 193.1 53.4 C 193.1 53.4 193.2 53.4 193.2 53.4 C 194.5 49.7 196.1 45 196.6 43.2 C 196.8 42.5 196.7 42.2 196.2 42.1 C 196.16 42.11 194.6 42 194.6 42 L 194.6 41.1 L 200.5 41.1 C 200.5 41.1 200.5 41.96 200.5 42 C 199 42.1 198.8 42.3 198.2 43.5 C 197.2 45.7 194.4 53.3 192.5 58.8 C 190.9 63.4 189.3 63.8 188.1 63.8 C 186.8 63.8 185.9 62.9 185.9 62.1 C 185.9 61.2 186.7 60.4 187.3 60.4 C 187.6 60.4 187.9 60.6 188.2 60.8 C 188.8 61.4 189 61.5 189.3 61.5 C 189.7 61.5 190.2 61.2 190.7 60.2 C 191.2 59.2 191.5 58.3 191.5 57.6 C 191.5 57 191.4 56.6 191.2 56 C 190.5 53.9 187.9 47.3 186.3 43.6 C 185.8 42.2 185.5 42 184 42 C 183.98 41.96 184 41.1 184 41.1 Z M 203.6 48.5 C 206.1 47.8 209.1 47 209.8 46.2 C 209.8 46.2 209.8 44.9 209.8 44.9 C 209.8 42.4 208.4 41.8 207.2 41.8 C 206 41.8 204.7 42.5 204 44.8 C 203.9 45.3 203.7 45.7 203 45.7 C 202.4 45.7 201.3 45.2 201.3 44.2 C 201.3 42.5 204 40.7 207.5 40.7 C 212.2 40.7 212.6 43 212.6 44.8 C 212.6 44.8 212.6 52.3 212.6 52.3 C 212.6 54.3 213.2 54.9 213.7 55 C 214.2 55.1 214.9 55 215.3 54.9 C 215.3 54.9 215.5 55.7 215.5 55.7 C 214.3 56.3 213 56.6 211.8 56.6 C 210.7 56.6 210.2 55.9 209.8 54.8 C 208.8 55.4 207 56.6 205.2 56.6 C 202.3 56.6 200.7 54.5 200.7 52.2 C 200.7 50.8 201.4 49.2 203.6 48.5 Z M 206.7 55 C 207.9 55 209.8 54.3 209.8 51.8 C 209.8 51.8 209.8 47.4 209.8 47.4 C 209.2 47.9 207.5 48.5 206.3 48.9 C 204.5 49.6 203.9 50.3 203.9 51.8 C 203.9 53.6 204.8 55 206.7 55 Z M 215.8 55.4 C 218 55.2 218.1 55.1 218.1 53.6 C 218.1 53.6 218.1 43.8 218.1 43.8 C 218.1 42.7 217.9 42.5 217.1 42.4 C 217.12 42.39 215.9 42.2 215.9 42.2 L 215.9 41.5 L 220.6 40.7 C 220.6 40.7 221 43.04 221 43 C 222.9 41.8 224.3 40.7 226.6 40.7 C 229.5 40.7 231.2 42.5 231.2 45.6 C 231.2 45.6 231.2 53.6 231.2 53.6 C 231.2 55.1 231.3 55.2 233.5 55.4 C 233.52 55.35 233.5 56.2 233.5 56.2 L 226 56.2 C 226 56.2 225.96 55.35 226 55.4 C 228.2 55.2 228.3 55.1 228.3 53.6 C 228.3 53.6 228.3 46.2 228.3 46.2 C 228.3 43.5 227.1 42.4 225 42.4 C 223.4 42.4 222 43.4 221.3 44.6 C 221.1 45.1 221 45.5 221 46.3 C 221 46.3 221 53.6 221 53.6 C 221 55.1 221.2 55.2 223.4 55.4 C 223.35 55.35 223.4 56.2 223.4 56.2 L 215.8 56.2 C 215.8 56.2 215.79 55.35 215.8 55.4 Z M 242.3 40.7 C 247.3 40.7 249.8 43.6 249.8 48.7 C 249.8 53.7 247.3 56.6 242.3 56.6 C 237.3 56.6 234.9 53.7 234.9 48.7 C 234.9 43.6 237.3 40.7 242.3 40.7 Z M 242.3 55.5 C 245.2 55.5 246.5 52.9 246.5 48.7 C 246.5 44.4 245.2 41.8 242.3 41.8 C 239.5 41.8 238.1 44.4 238.1 48.7 C 238.1 52.9 239.5 55.5 242.3 55.5 Z M 257.6 55.4 C 259.8 55.2 259.9 55.1 259.9 53.6 C 259.9 53.6 259.9 36.3 259.9 36.3 C 259.9 35.2 259.7 35 258.9 34.9 C 258.94 34.92 257.8 34.8 257.8 34.8 L 257.8 34 L 262.6 33.2 L 262.8 33.4 L 262.8 47.9 C 262.8 47.9 262.91 47.94 262.9 47.9 C 263.6 46.9 266.7 43 267.6 42 C 268.2 41.2 268.5 41.1 269.5 41.1 C 269.54 41.06 272.7 41.1 272.7 41.1 C 272.7 41.1 272.73 41.93 272.7 41.9 C 270.9 42.1 270.2 42.5 269.1 43.3 C 268.1 44 267.1 44.9 265.6 46.6 C 265.3 47 265.3 47.1 265.5 47.4 C 266.7 49 269.1 52 271 53.9 C 272 54.8 272.7 55.3 273.7 55.5 C 273.66 55.54 273.7 56.4 273.7 56.4 C 273.7 56.4 271.34 56.31 271.3 56.3 C 270.3 56.2 269.1 55.9 268 54.7 C 266.4 53.1 264.2 50.4 262.9 48.4 C 262.91 48.38 262.8 48.4 262.8 48.4 C 262.8 48.4 262.84 53.55 262.8 53.6 C 262.8 55.1 263 55.2 265.2 55.4 C 265.17 55.35 265.2 56.2 265.2 56.2 L 257.6 56.2 C 257.6 56.2 257.61 55.35 257.6 55.4 Z M 277 48.5 C 279.5 47.8 282.5 47 283.2 46.2 C 283.2 46.2 283.2 44.9 283.2 44.9 C 283.2 42.4 281.8 41.8 280.6 41.8 C 279.4 41.8 278.1 42.5 277.4 44.8 C 277.3 45.3 277.1 45.7 276.4 45.7 C 275.8 45.7 274.7 45.2 274.7 44.2 C 274.7 42.5 277.4 40.7 280.9 40.7 C 285.6 40.7 286 43 286 44.8 C 286 44.8 286 52.3 286 52.3 C 286 54.3 286.6 54.9 287.1 55 C 287.6 55.1 288.3 55 288.7 54.9 C 288.7 54.9 288.9 55.7 288.9 55.7 C 287.7 56.3 286.4 56.6 285.2 56.6 C 284.1 56.6 283.6 55.9 283.2 54.8 C 282.2 55.4 280.4 56.6 278.6 56.6 C 275.7 56.6 274.1 54.5 274.1 52.2 C 274.1 50.8 274.8 49.2 277 48.5 Z M 280.1 55 C 281.3 55 283.2 54.3 283.2 51.8 C 283.2 51.8 283.2 47.4 283.2 47.4 C 282.6 47.9 280.9 48.5 279.7 48.9 C 277.9 49.6 277.3 50.3 277.3 51.8 C 277.3 53.6 278.2 55 280.1 55 Z M 290.6 51.1 C 291.2 53.7 292.6 55.5 295.1 55.5 C 296.7 55.5 298 54.5 298 53 C 298 50.9 296 50.1 294.6 49.7 C 292 48.9 289.9 47.8 289.9 45.2 C 289.9 42.3 292.2 40.7 295.6 40.7 C 297 40.7 298.6 41 299.6 41.7 C 299.58 41.74 299.6 45.4 299.6 45.4 C 299.6 45.4 298.68 45.37 298.7 45.4 C 298.5 43.5 297.4 41.8 295.2 41.8 C 293.7 41.8 292.4 42.7 292.4 44.3 C 292.4 46 294.5 46.7 295.7 47.1 C 298.9 48.1 300.6 49.3 300.6 52 C 300.6 54.7 298.5 56.6 294.8 56.6 C 293 56.6 291.1 56.1 290 55.1 C 289.97 55.13 289.7 51.1 289.7 51.1 C 289.7 51.1 290.56 51.07 290.6 51.1 Z M 305.5 48.5 C 307.9 47.8 311 47 311.7 46.2 C 311.7 46.2 311.7 44.9 311.7 44.9 C 311.7 42.4 310.3 41.8 309.1 41.8 C 307.9 41.8 306.6 42.5 305.9 44.8 C 305.7 45.3 305.6 45.7 304.9 45.7 C 304.3 45.7 303.2 45.2 303.2 44.2 C 303.2 42.5 305.9 40.7 309.4 40.7 C 314.1 40.7 314.5 43 314.5 44.8 C 314.5 44.8 314.5 52.3 314.5 52.3 C 314.5 54.3 315 54.9 315.6 55 C 316.1 55.1 316.8 55 317.2 54.9 C 317.2 54.9 317.4 55.7 317.4 55.7 C 316.2 56.3 314.9 56.6 313.7 56.6 C 312.6 56.6 312.1 55.9 311.7 54.8 C 310.7 55.4 308.9 56.6 307.1 56.6 C 304.2 56.6 302.6 54.5 302.6 52.2 C 302.6 50.8 303.3 49.2 305.5 48.5 Z M 308.6 55 C 309.8 55 311.7 54.3 311.7 51.8 C 311.7 51.8 311.7 47.4 311.7 47.4 C 311 47.9 309.4 48.5 308.2 48.9 C 306.4 49.6 305.7 50.3 305.7 51.8 C 305.7 53.6 306.7 55 308.6 55 Z M 317.7 55.4 C 319.9 55.2 320 55.1 320 53.6 C 320 53.6 320 43.8 320 43.8 C 320 42.7 319.8 42.5 319 42.4 C 319.02 42.39 317.8 42.2 317.8 42.2 L 317.8 41.5 L 322.5 40.7 C 322.5 40.7 322.89 43.04 322.9 43 C 324.8 41.8 326.2 40.7 328.5 40.7 C 331.4 40.7 333.1 42.5 333.1 45.6 C 333.1 45.6 333.1 53.6 333.1 53.6 C 333.1 55.1 333.2 55.2 335.4 55.4 C 335.41 55.35 335.4 56.2 335.4 56.2 L 327.9 56.2 C 327.9 56.2 327.85 55.35 327.9 55.4 C 330.1 55.2 330.2 55.1 330.2 53.6 C 330.2 53.6 330.2 46.2 330.2 46.2 C 330.2 43.5 329 42.4 326.9 42.4 C 325.3 42.4 323.9 43.4 323.2 44.6 C 323 45.1 322.9 45.5 322.9 46.3 C 322.9 46.3 322.9 53.6 322.9 53.6 C 322.9 55.1 323 55.2 325.2 55.4 C 325.25 55.35 325.2 56.2 325.2 56.2 L 317.7 56.2 C 317.7 56.2 317.68 55.35 317.7 55.4 Z M 340.1 55.8 C 340.1 55.8 340.1 55.8 340.1 55.8 C 338.6 55.6 337.4 54.4 337.4 53.3 C 337.4 52.1 338.6 51.2 340.3 50.6 C 340.3 50.6 340.3 50.5 340.3 50.5 C 338.8 50.1 336.9 48.8 336.9 45.9 C 336.9 43.6 338.6 40.7 343.3 40.7 C 344.7 40.7 346.5 41.1 347.3 41.6 C 347.32 41.65 351.3 40.4 351.3 40.4 L 351.5 40.7 L 350.9 42.6 C 350.9 42.6 348.47 42.98 348.5 43 C 349 43.5 349.4 44.6 349.4 45.9 C 349.4 49.6 346.1 50.9 343.1 50.9 C 342.8 50.9 342.1 50.9 341.6 50.9 C 341.1 51 340 51.5 340 52.4 C 340 53 340.3 53.7 342.5 53.7 C 342.5 53.7 345 53.7 345 53.7 C 348.3 53.7 351 54.9 351 58.2 C 351 60.2 350 61.6 348.6 62.5 C 347.1 63.4 345.1 63.8 343.3 63.8 C 339.7 63.8 336.6 62.4 336.6 59.2 C 336.6 57 338.8 56.2 340.1 55.8 Z M 344 62.7 C 346.2 62.7 348.4 61.5 348.4 59 C 348.4 56.7 346.4 56 343.7 56 C 342.2 56 341.1 56.2 340.5 56.7 C 339.8 57.2 339.5 58 339.5 59.1 C 339.5 61.3 341.3 62.7 344 62.7 Z M 343.3 49.9 C 345.1 49.9 346.4 48.5 346.4 45.9 C 346.4 42.9 344.8 41.8 343.3 41.8 C 341.7 41.8 340.1 42.8 340.1 45.9 C 340.1 48.5 341.5 49.9 343.3 49.9 Z M 355.6 55.8 C 355.6 55.8 355.6 55.8 355.6 55.8 C 354.1 55.6 352.9 54.4 352.9 53.3 C 352.9 52.1 354.1 51.2 355.7 50.6 C 355.7 50.6 355.7 50.5 355.7 50.5 C 354.3 50.1 352.4 48.8 352.4 45.9 C 352.4 43.6 354.1 40.7 358.8 40.7 C 360.2 40.7 361.9 41.1 362.8 41.6 C 362.82 41.65 366.8 40.4 366.8 40.4 L 367 40.7 L 366.4 42.6 C 366.4 42.6 363.96 42.98 364 43 C 364.5 43.5 364.9 44.6 364.9 45.9 C 364.9 49.6 361.6 50.9 358.6 50.9 C 358.3 50.9 357.6 50.9 357.1 50.9 C 356.6 51 355.5 51.5 355.5 52.4 C 355.5 53 355.8 53.7 358 53.7 C 358 53.7 360.5 53.7 360.5 53.7 C 363.8 53.7 366.5 54.9 366.5 58.2 C 366.5 60.2 365.5 61.6 364.1 62.5 C 362.6 63.4 360.6 63.8 358.8 63.8 C 355.2 63.8 352.1 62.4 352.1 59.2 C 352.1 57 354.3 56.2 355.6 55.8 Z M 359.5 62.7 C 361.7 62.7 363.9 61.5 363.9 59 C 363.9 56.7 361.9 56 359.2 56 C 357.7 56 356.6 56.2 356 56.7 C 355.3 57.2 355 58 355 59.1 C 355 61.3 356.8 62.7 359.5 62.7 Z M 358.8 49.9 C 360.6 49.9 361.9 48.5 361.9 45.9 C 361.9 42.9 360.3 41.8 358.8 41.8 C 357.2 41.8 355.6 42.8 355.6 45.9 C 355.6 48.5 357 49.9 358.8 49.9 Z M 370.7 48.5 C 373.1 47.8 376.1 47 376.9 46.2 C 376.9 46.2 376.9 44.9 376.9 44.9 C 376.9 42.4 375.5 41.8 374.3 41.8 C 373 41.8 371.7 42.5 371.1 44.8 C 370.9 45.3 370.7 45.7 370.1 45.7 C 369.5 45.7 368.3 45.2 368.3 44.2 C 368.3 42.5 371.1 40.7 374.6 40.7 C 379.3 40.7 379.7 43 379.7 44.8 C 379.7 44.8 379.7 52.3 379.7 52.3 C 379.7 54.3 380.2 54.9 380.8 55 C 381.2 55.1 381.9 55 382.3 54.9 C 382.3 54.9 382.5 55.7 382.5 55.7 C 381.4 56.3 380 56.6 378.9 56.6 C 377.8 56.6 377.3 55.9 376.9 54.8 C 375.9 55.4 374 56.6 372.2 56.6 C 369.3 56.6 367.8 54.5 367.8 52.2 C 367.8 50.8 368.4 49.2 370.7 48.5 Z M 373.8 55 C 375 55 376.9 54.3 376.9 51.8 C 376.9 51.8 376.9 47.4 376.9 47.4 C 376.2 47.9 374.6 48.5 373.3 48.9 C 371.6 49.6 370.9 50.3 370.9 51.8 C 370.9 53.6 371.8 55 373.8 55 Z M 392.6 48.5 C 395.1 47.8 398.1 47 398.8 46.2 C 398.8 46.2 398.8 44.9 398.8 44.9 C 398.8 42.4 397.4 41.8 396.2 41.8 C 395 41.8 393.7 42.5 393 44.8 C 392.9 45.3 392.7 45.7 392 45.7 C 391.4 45.7 390.3 45.2 390.3 44.2 C 390.3 42.5 393 40.7 396.5 40.7 C 401.2 40.7 401.6 43 401.6 44.8 C 401.6 44.8 401.6 52.3 401.6 52.3 C 401.6 54.3 402.2 54.9 402.7 55 C 403.2 55.1 403.9 55 404.3 54.9 C 404.3 54.9 404.5 55.7 404.5 55.7 C 403.3 56.3 402 56.6 400.8 56.6 C 399.7 56.6 399.2 55.9 398.8 54.8 C 397.8 55.4 396 56.6 394.2 56.6 C 391.3 56.6 389.7 54.5 389.7 52.2 C 389.7 50.8 390.4 49.2 392.6 48.5 Z M 395.7 55 C 396.9 55 398.8 54.3 398.8 51.8 C 398.8 51.8 398.8 47.4 398.8 47.4 C 398.2 47.9 396.5 48.5 395.3 48.9 C 393.5 49.6 392.9 50.3 392.9 51.8 C 392.9 53.6 393.8 55 395.7 55 Z M 404.8 55.4 C 407 55.2 407.1 55.1 407.1 53.6 C 407.1 53.6 407.1 43.8 407.1 43.8 C 407.1 42.7 406.9 42.5 406.1 42.4 C 406.12 42.39 404.9 42.2 404.9 42.2 L 404.9 41.5 L 409.6 40.7 C 409.6 40.7 410 43.04 410 43 C 411.9 41.8 413.3 40.7 415.6 40.7 C 418.5 40.7 420.2 42.5 420.2 45.6 C 420.2 45.6 420.2 53.6 420.2 53.6 C 420.2 55.1 420.3 55.2 422.5 55.4 C 422.52 55.35 422.5 56.2 422.5 56.2 L 415 56.2 C 415 56.2 414.96 55.35 415 55.4 C 417.2 55.2 417.3 55.1 417.3 53.6 C 417.3 53.6 417.3 46.2 417.3 46.2 C 417.3 43.5 416.1 42.4 414 42.4 C 412.4 42.4 411 43.4 410.3 44.6 C 410.1 45.1 410 45.5 410 46.3 C 410 46.3 410 53.6 410 53.6 C 410 55.1 410.2 55.2 412.4 55.4 C 412.35 55.35 412.4 56.2 412.4 56.2 L 404.8 56.2 C 404.8 56.2 404.79 55.35 404.8 55.4 Z M 427.2 55.8 C 427.2 55.8 427.2 55.8 427.2 55.8 C 425.7 55.6 424.5 54.4 424.5 53.3 C 424.5 52.1 425.7 51.2 427.4 50.6 C 427.4 50.6 427.4 50.5 427.4 50.5 C 425.9 50.1 424 48.8 424 45.9 C 424 43.6 425.7 40.7 430.4 40.7 C 431.9 40.7 433.6 41.1 434.4 41.6 C 434.43 41.65 438.4 40.4 438.4 40.4 L 438.6 40.7 L 438 42.6 C 438 42.6 435.57 42.98 435.6 43 C 436.1 43.5 436.5 44.6 436.5 45.9 C 436.5 49.6 433.2 50.9 430.2 50.9 C 429.9 50.9 429.2 50.9 428.7 50.9 C 428.3 51 427.1 51.5 427.1 52.4 C 427.1 53 427.4 53.7 429.7 53.7 C 429.7 53.7 432.1 53.7 432.1 53.7 C 435.4 53.7 438.1 54.9 438.1 58.2 C 438.1 60.2 437.1 61.6 435.7 62.5 C 434.2 63.4 432.2 63.8 430.4 63.8 C 426.8 63.8 423.7 62.4 423.7 59.2 C 423.7 57 425.9 56.2 427.2 55.8 Z M 431.1 62.7 C 433.3 62.7 435.5 61.5 435.5 59 C 435.5 56.7 433.5 56 430.8 56 C 429.3 56 428.3 56.2 427.6 56.7 C 426.9 57.2 426.6 58 426.6 59.1 C 426.6 61.3 428.4 62.7 431.1 62.7 Z M 430.4 49.9 C 432.2 49.9 433.5 48.5 433.5 45.9 C 433.5 42.9 431.9 41.8 430.4 41.8 C 428.8 41.8 427.2 42.8 427.2 45.9 C 427.2 48.5 428.6 49.9 430.4 49.9 Z " stroke="none" fill="#000"/>
  </g>
  <g id="Polygon33393">
    <path d="M 1.1 22.4 C 3.8 22.2 3.9 22.1 3.9 20.4 C 3.9 20.4 3.9 4.7 3.9 4.7 C 3.9 2.9 3.8 2.9 1.1 2.7 C 1.09 2.7 1.1 1.8 1.1 1.8 C 1.1 1.8 9.73 1.8 9.7 1.8 C 11.9 1.8 13.9 2.1 15.4 3 C 16.8 3.9 17.8 5.5 17.8 7.9 C 17.8 11.7 15.1 13.4 12.7 14 C 11.5 14.3 10.1 14.4 8.7 14.4 C 8.71 14.45 6.9 14.4 6.9 14.4 C 6.9 14.4 6.94 20.37 6.9 20.4 C 6.9 22.1 7 22.2 10.2 22.4 C 10.23 22.35 10.2 23.2 10.2 23.2 L 1.1 23.2 C 1.1 23.2 1.09 22.35 1.1 22.4 Z M 9.2 13.4 C 11.9 13.4 14.4 12 14.4 8.1 C 14.4 4.7 12.5 2.9 9.3 2.9 C 7.3 2.9 6.9 3.2 6.9 4 C 6.9 4 6.9 12.2 6.9 12.2 C 6.9 13.3 7.4 13.4 9.2 13.4 Z M 21.3 15.5 C 23.7 14.8 26.7 14 27.5 13.2 C 27.5 13.2 27.5 11.9 27.5 11.9 C 27.5 9.4 26.1 8.8 24.9 8.8 C 23.6 8.8 22.4 9.5 21.7 11.8 C 21.5 12.3 21.3 12.7 20.7 12.7 C 20.1 12.7 18.9 12.2 18.9 11.2 C 18.9 9.5 21.7 7.7 25.2 7.7 C 29.9 7.7 30.3 10 30.3 11.8 C 30.3 11.8 30.3 19.3 30.3 19.3 C 30.3 21.3 30.8 21.9 31.4 22 C 31.8 22.1 32.5 22 33 21.9 C 33 21.9 33.1 22.7 33.1 22.7 C 32 23.3 30.6 23.6 29.5 23.6 C 28.4 23.6 27.9 22.9 27.5 21.8 C 26.5 22.4 24.6 23.6 22.8 23.6 C 19.9 23.6 18.4 21.5 18.4 19.2 C 18.4 17.8 19 16.2 21.3 15.5 Z M 24.4 22 C 25.6 22 27.5 21.3 27.5 18.8 C 27.5 18.8 27.5 14.4 27.5 14.4 C 26.8 14.9 25.2 15.5 23.9 15.9 C 22.2 16.6 21.5 17.3 21.5 18.8 C 21.5 20.6 22.4 22 24.4 22 Z M 33.4 8.1 L 35.8 8.1 L 37.7 4.2 L 38.6 4.2 L 38.6 8.1 L 42.6 8.1 L 42.6 9.3 L 38.6 9.3 C 38.6 9.3 38.56 18.91 38.6 18.9 C 38.6 21.3 39.6 22 40.6 22 C 41.4 22 42.1 21.9 42.8 21.6 C 42.8 21.6 43.1 22.3 43.1 22.3 C 42.2 22.8 40.7 23.6 39.1 23.6 C 38 23.6 35.6 23.2 35.6 20.1 C 35.65 20.09 35.6 9.3 35.6 9.3 L 33.4 9.3 L 33.4 8.1 Z M 43.3 8.5 L 48.2 7.7 L 48.4 7.9 C 48.4 7.9 48.39 18.41 48.4 18.4 C 48.4 20.8 49.7 21.9 51.5 21.9 C 53.1 21.9 54.6 21 55.3 19.6 C 55.5 19.3 55.6 18.6 55.6 17.8 C 55.6 17.8 55.6 10.8 55.6 10.8 C 55.6 9.7 55.4 9.5 54.6 9.4 C 54.59 9.39 53.4 9.2 53.4 9.2 L 53.4 8.5 L 58.3 7.7 L 58.5 7.9 C 58.5 7.9 58.5 20.55 58.5 20.6 C 58.5 22.1 58.7 22.2 60.8 22.4 C 60.82 22.35 60.8 23.2 60.8 23.2 L 55.9 23.2 C 55.9 23.2 55.55 21.39 55.6 21.4 C 54.7 21.8 52.5 23.6 49.9 23.6 C 47.6 23.6 45.5 22.5 45.5 19 C 45.5 19 45.5 10.8 45.5 10.8 C 45.5 9.7 45.3 9.5 44.5 9.4 C 44.48 9.39 43.3 9.2 43.3 9.2 L 43.3 8.5 Z M 61.3 22.4 C 63.5 22.2 63.6 22.1 63.6 20.6 C 63.6 20.6 63.6 3.3 63.6 3.3 C 63.6 2.2 63.4 2 62.6 1.9 C 62.62 1.92 61.4 1.8 61.4 1.8 L 61.4 1 L 66.3 0.2 L 66.5 0.4 C 66.5 0.4 66.53 20.55 66.5 20.6 C 66.5 22.1 66.6 22.2 68.9 22.4 C 68.85 22.35 68.9 23.2 68.9 23.2 L 61.3 23.2 C 61.3 23.2 61.29 22.35 61.3 22.4 Z M 77.7 7.7 C 82.6 7.7 85.1 10.6 85.1 15.7 C 85.1 20.7 82.6 23.6 77.7 23.6 C 72.7 23.6 70.2 20.7 70.2 15.7 C 70.2 10.6 72.7 7.7 77.7 7.7 Z M 77.7 22.5 C 80.5 22.5 81.9 19.9 81.9 15.7 C 81.9 11.4 80.5 8.8 77.7 8.8 C 74.8 8.8 73.4 11.4 73.4 15.7 C 73.4 19.9 74.8 22.5 77.7 22.5 Z M 84.9 8.1 L 92 8.1 L 92 9 C 92 9 90.64 9.08 90.6 9.1 C 89.9 9.1 90 9.5 90.2 10 C 91.3 13.3 92.6 16.7 94 20.4 C 94 20.4 94.1 20.4 94.1 20.4 C 95.4 16.7 97 12 97.5 10.2 C 97.6 9.5 97.6 9.2 97.1 9.1 C 97.06 9.11 95.4 9 95.4 9 L 95.4 8.1 L 101.4 8.1 C 101.4 8.1 101.4 8.96 101.4 9 C 99.8 9.1 99.7 9.3 99.1 10.5 C 98.1 12.7 95.3 20.3 93.4 25.8 C 91.8 30.4 90.2 30.8 89 30.8 C 87.7 30.8 86.8 29.9 86.8 29.1 C 86.8 28.2 87.6 27.4 88.2 27.4 C 88.5 27.4 88.8 27.6 89.1 27.8 C 89.7 28.4 89.9 28.5 90.2 28.5 C 90.6 28.5 91.1 28.2 91.6 27.2 C 92.1 26.2 92.3 25.3 92.3 24.6 C 92.3 24 92.3 23.6 92.1 23 C 91.4 20.9 88.8 14.3 87.2 10.6 C 86.7 9.2 86.4 9 84.9 9 C 84.88 8.96 84.9 8.1 84.9 8.1 Z M 107.4 22.4 C 109.7 22.2 109.8 22.1 109.8 20.6 C 109.8 20.6 109.8 10.8 109.8 10.8 C 109.8 9.7 109.6 9.5 108.8 9.4 C 108.78 9.39 107.6 9.2 107.6 9.2 L 107.6 8.5 L 112.2 7.7 C 112.2 7.7 112.65 10.04 112.7 10 C 114.6 8.8 116 7.7 118.3 7.7 C 121.1 7.7 122.9 9.5 122.9 12.6 C 122.9 12.6 122.9 20.6 122.9 20.6 C 122.9 22.1 123 22.2 125.2 22.4 C 125.18 22.35 125.2 23.2 125.2 23.2 L 117.6 23.2 C 117.6 23.2 117.61 22.35 117.6 22.4 C 119.8 22.2 119.9 22.1 119.9 20.6 C 119.9 20.6 119.9 13.2 119.9 13.2 C 119.9 10.5 118.8 9.4 116.7 9.4 C 115 9.4 113.6 10.4 113 11.6 C 112.7 12.1 112.7 12.5 112.7 13.3 C 112.7 13.3 112.7 20.6 112.7 20.6 C 112.7 22.1 112.8 22.2 115 22.4 C 115.01 22.35 115 23.2 115 23.2 L 107.4 23.2 C 107.4 23.2 107.44 22.35 107.4 22.4 Z M 129.4 15.5 C 131.9 14.8 134.9 14 135.7 13.2 C 135.7 13.2 135.7 11.9 135.7 11.9 C 135.7 9.4 134.2 8.8 133 8.8 C 131.8 8.8 130.5 9.5 129.8 11.8 C 129.7 12.3 129.5 12.7 128.8 12.7 C 128.2 12.7 127.1 12.2 127.1 11.2 C 127.1 9.5 129.9 7.7 133.4 7.7 C 138 7.7 138.4 10 138.4 11.8 C 138.4 11.8 138.4 19.3 138.4 19.3 C 138.4 21.3 139 21.9 139.5 22 C 140 22.1 140.7 22 141.1 21.9 C 141.1 21.9 141.3 22.7 141.3 22.7 C 140.1 23.3 138.8 23.6 137.6 23.6 C 136.6 23.6 136.1 22.9 135.6 21.8 C 134.6 22.4 132.8 23.6 131 23.6 C 128.1 23.6 126.5 21.5 126.5 19.2 C 126.5 17.8 127.2 16.2 129.4 15.5 Z M 132.5 22 C 133.7 22 135.7 21.3 135.7 18.8 C 135.7 18.8 135.7 14.4 135.7 14.4 C 135 14.9 133.3 15.5 132.1 15.9 C 130.4 16.6 129.7 17.3 129.7 18.8 C 129.7 20.6 130.6 22 132.5 22 Z M 150.1 27.7 C 150.1 27.7 150.1 10.8 150.1 10.8 C 150.1 9.7 149.9 9.5 149.1 9.4 C 149.08 9.39 147.9 9.2 147.9 9.2 L 147.9 8.5 L 152.6 7.7 C 152.6 7.7 152.98 9.98 153 10 C 154.2 9.2 156 7.7 158.3 7.7 C 163.9 7.7 164.3 13.1 164.3 15.3 C 164.3 21.7 160.7 23.6 156.5 23.6 C 155.1 23.6 153.6 23.3 153 22.9 C 153 22.9 153 27.7 153 27.7 C 153 29.3 153.2 29.3 155.8 29.5 C 155.77 29.48 155.8 30.4 155.8 30.4 L 147.7 30.4 C 147.7 30.4 147.74 29.48 147.7 29.5 C 149.9 29.3 150.1 29.3 150.1 27.7 Z M 153.2 20.3 C 153.7 21.7 154.9 22.5 156.5 22.5 C 159.6 22.5 161.1 20.1 161.1 15.5 C 161.1 10.2 158.3 9.4 157.1 9.4 C 155.4 9.4 154.1 10.1 153.4 11.5 C 153.1 12.1 153 12.5 153 13.3 C 153 13.3 153 18.4 153 18.4 C 153 19.1 153 19.7 153.2 20.3 Z M 169.6 15.5 C 172 14.8 175.1 14 175.8 13.2 C 175.8 13.2 175.8 11.9 175.8 11.9 C 175.8 9.4 174.4 8.8 173.2 8.8 C 172 8.8 170.7 9.5 170 11.8 C 169.8 12.3 169.7 12.7 169 12.7 C 168.4 12.7 167.3 12.2 167.3 11.2 C 167.3 9.5 170 7.7 173.5 7.7 C 178.2 7.7 178.6 10 178.6 11.8 C 178.6 11.8 178.6 19.3 178.6 19.3 C 178.6 21.3 179.1 21.9 179.7 22 C 180.2 22.1 180.9 22 181.3 21.9 C 181.3 21.9 181.5 22.7 181.5 22.7 C 180.3 23.3 179 23.6 177.8 23.6 C 176.7 23.6 176.2 22.9 175.8 21.8 C 174.8 22.4 173 23.6 171.2 23.6 C 168.3 23.6 166.7 21.5 166.7 19.2 C 166.7 17.8 167.4 16.2 169.6 15.5 Z M 172.7 22 C 173.9 22 175.8 21.3 175.8 18.8 C 175.8 18.8 175.8 14.4 175.8 14.4 C 175.1 14.9 173.5 15.5 172.3 15.9 C 170.5 16.6 169.8 17.3 169.8 18.8 C 169.8 20.6 170.8 22 172.7 22 Z M 181.8 22.4 C 184 22.2 184.1 22.1 184.1 20.6 C 184.1 20.6 184.1 10.8 184.1 10.8 C 184.1 9.7 183.9 9.5 183.1 9.4 C 183.11 9.39 181.9 9.2 181.9 9.2 L 181.9 8.5 L 186.7 7.7 C 186.7 7.7 187.02 10.04 187 10 C 188.1 9.2 190.1 7.7 192.4 7.7 C 194.6 7.7 195.8 8.6 196.5 10.1 C 197.6 9.4 199.5 7.7 202 7.7 C 204.9 7.7 206.6 9.5 206.6 12.6 C 206.6 12.6 206.6 20.6 206.6 20.6 C 206.6 22.1 206.7 22.2 208.9 22.4 C 208.94 22.35 208.9 23.2 208.9 23.2 L 201.4 23.2 C 201.4 23.2 201.37 22.35 201.4 22.4 C 203.6 22.2 203.7 22.1 203.7 20.6 C 203.7 20.6 203.7 13.2 203.7 13.2 C 203.7 10.5 202.5 9.4 200.6 9.4 C 198.8 9.4 197.5 10.4 197 11.6 C 196.8 12.1 196.8 12.5 196.8 13.3 C 196.8 13.3 196.8 20.6 196.8 20.6 C 196.8 22.1 196.9 22.2 199.1 22.4 C 199.14 22.35 199.1 23.2 199.1 23.2 L 191.6 23.2 C 191.6 23.2 191.58 22.35 191.6 22.4 C 193.8 22.2 193.9 22.1 193.9 20.6 C 193.9 20.6 193.9 13.2 193.9 13.2 C 193.9 11.3 193.6 9.4 190.9 9.4 C 189.2 9.4 187.9 10.4 187.3 11.7 C 187.1 12.1 187 12.5 187 13.3 C 187 13.3 187 20.6 187 20.6 C 187 22.1 187.1 22.2 189.3 22.4 C 189.35 22.35 189.3 23.2 189.3 23.2 L 181.8 23.2 C 181.8 23.2 181.78 22.35 181.8 22.4 Z M 213.2 15.5 C 215.6 14.8 218.6 14 219.4 13.2 C 219.4 13.2 219.4 11.9 219.4 11.9 C 219.4 9.4 218 8.8 216.8 8.8 C 215.5 8.8 214.3 9.5 213.6 11.8 C 213.4 12.3 213.2 12.7 212.6 12.7 C 212 12.7 210.9 12.2 210.9 11.2 C 210.9 9.5 213.6 7.7 217.1 7.7 C 221.8 7.7 222.2 10 222.2 11.8 C 222.2 11.8 222.2 19.3 222.2 19.3 C 222.2 21.3 222.7 21.9 223.3 22 C 223.8 22.1 224.4 22 224.9 21.9 C 224.9 21.9 225.1 22.7 225.1 22.7 C 223.9 23.3 222.5 23.6 221.4 23.6 C 220.3 23.6 219.8 22.9 219.4 21.8 C 218.4 22.4 216.6 23.6 214.8 23.6 C 211.9 23.6 210.3 21.5 210.3 19.2 C 210.3 17.8 211 16.2 213.2 15.5 Z M 216.3 22 C 217.5 22 219.4 21.3 219.4 18.8 C 219.4 18.8 219.4 14.4 219.4 14.4 C 218.7 14.9 217.1 15.5 215.8 15.9 C 214.1 16.6 213.4 17.3 213.4 18.8 C 213.4 20.6 214.4 22 216.3 22 Z M 225.4 22.4 C 227.6 22.2 227.7 22.1 227.7 20.6 C 227.7 20.6 227.7 10.8 227.7 10.8 C 227.7 9.7 227.5 9.5 226.7 9.4 C 226.7 9.39 225.5 9.2 225.5 9.2 L 225.5 8.5 L 230.3 7.7 C 230.3 7.7 230.61 10.04 230.6 10 C 231.7 9.2 233.6 7.7 236 7.7 C 238.2 7.7 239.4 8.6 240.1 10.1 C 241.2 9.4 243 7.7 245.6 7.7 C 248.5 7.7 250.2 9.5 250.2 12.6 C 250.2 12.6 250.2 20.6 250.2 20.6 C 250.2 22.1 250.3 22.2 252.5 22.4 C 252.52 22.35 252.5 23.2 252.5 23.2 L 245 23.2 C 245 23.2 244.96 22.35 245 22.4 C 247.2 22.2 247.3 22.1 247.3 20.6 C 247.3 20.6 247.3 13.2 247.3 13.2 C 247.3 10.5 246.1 9.4 244.2 9.4 C 242.4 9.4 241.1 10.4 240.6 11.6 C 240.4 12.1 240.4 12.5 240.4 13.3 C 240.4 13.3 240.4 20.6 240.4 20.6 C 240.4 22.1 240.5 22.2 242.7 22.4 C 242.73 22.35 242.7 23.2 242.7 23.2 L 235.2 23.2 C 235.2 23.2 235.16 22.35 235.2 22.4 C 237.4 22.2 237.5 22.1 237.5 20.6 C 237.5 20.6 237.5 13.2 237.5 13.2 C 237.5 11.3 237.2 9.4 234.5 9.4 C 232.8 9.4 231.4 10.4 230.9 11.7 C 230.6 12.1 230.6 12.5 230.6 13.3 C 230.6 13.3 230.6 20.6 230.6 20.6 C 230.6 22.1 230.7 22.2 232.9 22.4 C 232.93 22.35 232.9 23.2 232.9 23.2 L 225.4 23.2 C 225.4 23.2 225.37 22.35 225.4 22.4 Z M 256.8 15.5 C 259.2 14.8 262.2 14 263 13.2 C 263 13.2 263 11.9 263 11.9 C 263 9.4 261.6 8.8 260.4 8.8 C 259.1 8.8 257.9 9.5 257.2 11.8 C 257 12.3 256.8 12.7 256.2 12.7 C 255.6 12.7 254.4 12.2 254.4 11.2 C 254.4 9.5 257.2 7.7 260.7 7.7 C 265.4 7.7 265.8 10 265.8 11.8 C 265.8 11.8 265.8 19.3 265.8 19.3 C 265.8 21.3 266.3 21.9 266.9 22 C 267.3 22.1 268 22 268.5 21.9 C 268.5 21.9 268.6 22.7 268.6 22.7 C 267.5 23.3 266.1 23.6 265 23.6 C 263.9 23.6 263.4 22.9 263 21.8 C 262 22.4 260.1 23.6 258.4 23.6 C 255.4 23.6 253.9 21.5 253.9 19.2 C 253.9 17.8 254.5 16.2 256.8 15.5 Z M 259.9 22 C 261.1 22 263 21.3 263 18.8 C 263 18.8 263 14.4 263 14.4 C 262.3 14.9 260.7 15.5 259.4 15.9 C 257.7 16.6 257 17.3 257 18.8 C 257 20.6 257.9 22 259.9 22 Z M 267.8 8.1 L 274.9 8.1 L 274.9 9 C 274.9 9 273.57 9.08 273.6 9.1 C 272.9 9.1 272.9 9.5 273.1 10 C 274.3 13.3 275.5 16.7 276.9 20.4 C 276.9 20.4 277 20.4 277 20.4 C 278.3 16.7 280 12 280.4 10.2 C 280.6 9.5 280.5 9.2 280 9.1 C 279.99 9.11 278.4 9 278.4 9 L 278.4 8.1 L 284.3 8.1 C 284.3 8.1 284.33 8.96 284.3 9 C 282.8 9.1 282.6 9.3 282 10.5 C 281.1 12.7 278.2 20.3 276.3 25.8 C 274.7 30.4 273.1 30.8 271.9 30.8 C 270.6 30.8 269.7 29.9 269.7 29.1 C 269.7 28.2 270.5 27.4 271.1 27.4 C 271.5 27.4 271.7 27.6 272 27.8 C 272.6 28.4 272.9 28.5 273.2 28.5 C 273.5 28.5 274.1 28.2 274.5 27.2 C 275 26.2 275.3 25.3 275.3 24.6 C 275.3 24 275.2 23.6 275 23 C 274.3 20.9 271.7 14.3 270.2 10.6 C 269.6 9.2 269.3 9 267.8 9 C 267.81 8.96 267.8 8.1 267.8 8.1 Z M 287.4 15.5 C 289.9 14.8 292.9 14 293.7 13.2 C 293.7 13.2 293.7 11.9 293.7 11.9 C 293.7 9.4 292.2 8.8 291 8.8 C 289.8 8.8 288.5 9.5 287.8 11.8 C 287.7 12.3 287.5 12.7 286.8 12.7 C 286.2 12.7 285.1 12.2 285.1 11.2 C 285.1 9.5 287.9 7.7 291.4 7.7 C 296 7.7 296.4 10 296.4 11.8 C 296.4 11.8 296.4 19.3 296.4 19.3 C 296.4 21.3 297 21.9 297.5 22 C 298 22.1 298.7 22 299.1 21.9 C 299.1 21.9 299.3 22.7 299.3 22.7 C 298.1 23.3 296.8 23.6 295.6 23.6 C 294.6 23.6 294.1 22.9 293.6 21.8 C 292.6 22.4 290.8 23.6 289 23.6 C 286.1 23.6 284.5 21.5 284.5 19.2 C 284.5 17.8 285.2 16.2 287.4 15.5 Z M 290.5 22 C 291.7 22 293.7 21.3 293.7 18.8 C 293.7 18.8 293.7 14.4 293.7 14.4 C 293 14.9 291.3 15.5 290.1 15.9 C 288.4 16.6 287.7 17.3 287.7 18.8 C 287.7 20.6 288.6 22 290.5 22 Z M 303.5 22.8 C 303.5 22.8 303.5 22.8 303.5 22.8 C 302 22.6 300.8 21.4 300.8 20.3 C 300.8 19.1 301.9 18.2 303.6 17.6 C 303.6 17.6 303.6 17.5 303.6 17.5 C 302.2 17.1 300.3 15.8 300.3 12.9 C 300.3 10.6 301.9 7.7 306.7 7.7 C 308.1 7.7 309.8 8.1 310.7 8.6 C 310.68 8.65 314.6 7.4 314.6 7.4 L 314.9 7.7 L 314.3 9.6 C 314.3 9.6 311.82 9.98 311.8 10 C 312.4 10.5 312.8 11.6 312.8 12.9 C 312.8 16.6 309.4 17.9 306.5 17.9 C 306.2 17.9 305.5 17.9 304.9 17.9 C 304.5 18 303.3 18.5 303.3 19.4 C 303.3 20 303.7 20.7 305.9 20.7 C 305.9 20.7 308.4 20.7 308.4 20.7 C 311.7 20.7 314.4 21.9 314.4 25.2 C 314.4 27.2 313.3 28.6 311.9 29.5 C 310.4 30.4 308.5 30.8 306.6 30.8 C 303 30.8 299.9 29.4 299.9 26.2 C 299.9 24 302.2 23.2 303.5 22.8 Z M 307.3 29.7 C 309.5 29.7 311.8 28.5 311.8 26 C 311.8 23.7 309.7 23 307 23 C 305.5 23 304.5 23.2 303.8 23.7 C 303.2 24.2 302.9 25 302.9 26.1 C 302.9 28.3 304.7 29.7 307.3 29.7 Z M 306.6 16.9 C 308.4 16.9 309.8 15.5 309.8 12.9 C 309.8 9.9 308.2 8.8 306.7 8.8 C 305 8.8 303.4 9.8 303.4 12.9 C 303.4 15.5 304.9 16.9 306.6 16.9 Z M 317.2 27.7 C 317.2 27.7 317.2 10.8 317.2 10.8 C 317.2 9.7 317 9.5 316.2 9.4 C 316.23 9.39 315 9.2 315 9.2 L 315 8.5 L 319.7 7.7 C 319.7 7.7 320.13 9.98 320.1 10 C 321.3 9.2 323.1 7.7 325.4 7.7 C 331 7.7 331.4 13.1 331.4 15.3 C 331.4 21.7 327.9 23.6 323.7 23.6 C 322.2 23.6 320.8 23.3 320.1 22.9 C 320.1 22.9 320.1 27.7 320.1 27.7 C 320.1 29.3 320.3 29.3 322.9 29.5 C 322.92 29.48 322.9 30.4 322.9 30.4 L 314.9 30.4 C 314.9 30.4 314.89 29.48 314.9 29.5 C 317.1 29.3 317.2 29.3 317.2 27.7 Z M 320.3 20.3 C 320.8 21.7 322.1 22.5 323.7 22.5 C 326.8 22.5 328.2 20.1 328.2 15.5 C 328.2 10.2 325.5 9.4 324.2 9.4 C 322.6 9.4 321.2 10.1 320.5 11.5 C 320.3 12.1 320.1 12.5 320.1 13.3 C 320.1 13.3 320.1 18.4 320.1 18.4 C 320.1 19.1 320.2 19.7 320.3 20.3 Z M 336.7 15.5 C 339.2 14.8 342.2 14 343 13.2 C 343 13.2 343 11.9 343 11.9 C 343 9.4 341.6 8.8 340.3 8.8 C 339.1 8.8 337.8 9.5 337.2 11.8 C 337 12.3 336.8 12.7 336.2 12.7 C 335.6 12.7 334.4 12.2 334.4 11.2 C 334.4 9.5 337.2 7.7 340.7 7.7 C 345.4 7.7 345.8 10 345.8 11.8 C 345.8 11.8 345.8 19.3 345.8 19.3 C 345.8 21.3 346.3 21.9 346.9 22 C 347.3 22.1 348 22 348.4 21.9 C 348.4 21.9 348.6 22.7 348.6 22.7 C 347.4 23.3 346.1 23.6 345 23.6 C 343.9 23.6 343.4 22.9 342.9 21.8 C 342 22.4 340.1 23.6 338.3 23.6 C 335.4 23.6 333.9 21.5 333.9 19.2 C 333.9 17.8 334.5 16.2 336.7 15.5 Z M 339.8 22 C 341.1 22 343 21.3 343 18.8 C 343 18.8 343 14.4 343 14.4 C 342.3 14.9 340.7 15.5 339.4 15.9 C 337.7 16.6 337 17.3 337 18.8 C 337 20.6 337.9 22 339.8 22 Z M 352.8 22.8 C 352.8 22.8 352.8 22.8 352.8 22.8 C 351.3 22.6 350.1 21.4 350.1 20.3 C 350.1 19.1 351.3 18.2 352.9 17.6 C 352.9 17.6 352.9 17.5 352.9 17.5 C 351.5 17.1 349.6 15.8 349.6 12.9 C 349.6 10.6 351.3 7.7 356 7.7 C 357.4 7.7 359.1 8.1 360 8.6 C 360 8.65 364 7.4 364 7.4 L 364.2 7.7 L 363.6 9.6 C 363.6 9.6 361.14 9.98 361.1 10 C 361.7 10.5 362.1 11.6 362.1 12.9 C 362.1 16.6 358.8 17.9 355.8 17.9 C 355.5 17.9 354.8 17.9 354.2 17.9 C 353.8 18 352.7 18.5 352.7 19.4 C 352.7 20 353 20.7 355.2 20.7 C 355.2 20.7 357.7 20.7 357.7 20.7 C 361 20.7 363.7 21.9 363.7 25.2 C 363.7 27.2 362.7 28.6 361.2 29.5 C 359.7 30.4 357.8 30.8 355.9 30.8 C 352.3 30.8 349.2 29.4 349.2 26.2 C 349.2 24 351.5 23.2 352.8 22.8 Z M 356.6 29.7 C 358.9 29.7 361.1 28.5 361.1 26 C 361.1 23.7 359.1 23 356.3 23 C 354.9 23 353.8 23.2 353.1 23.7 C 352.5 24.2 352.2 25 352.2 26.1 C 352.2 28.3 354 29.7 356.6 29.7 Z M 355.9 16.9 C 357.7 16.9 359.1 15.5 359.1 12.9 C 359.1 9.9 357.5 8.8 356 8.8 C 354.4 8.8 352.7 9.8 352.7 12.9 C 352.7 15.5 354.2 16.9 355.9 16.9 Z M 370.8 22.4 C 373 22.2 373.1 22.1 373.1 20.6 C 373.1 20.6 373.1 10.8 373.1 10.8 C 373.1 9.7 372.9 9.5 372.1 9.4 C 372.12 9.39 370.9 9.2 370.9 9.2 L 370.9 8.5 L 375.6 7.7 C 375.6 7.7 375.99 10.04 376 10 C 377.9 8.8 379.3 7.7 381.6 7.7 C 384.5 7.7 386.2 9.5 386.2 12.6 C 386.2 12.6 386.2 20.6 386.2 20.6 C 386.2 22.1 386.3 22.2 388.5 22.4 C 388.52 22.35 388.5 23.2 388.5 23.2 L 381 23.2 C 381 23.2 380.95 22.35 381 22.4 C 383.2 22.2 383.3 22.1 383.3 20.6 C 383.3 20.6 383.3 13.2 383.3 13.2 C 383.3 10.5 382.1 9.4 380 9.4 C 378.4 9.4 377 10.4 376.3 11.6 C 376.1 12.1 376 12.5 376 13.3 C 376 13.3 376 20.6 376 20.6 C 376 22.1 376.1 22.2 378.3 22.4 C 378.35 22.35 378.3 23.2 378.3 23.2 L 370.8 23.2 C 370.8 23.2 370.79 22.35 370.8 22.4 Z M 393.2 22.8 C 393.2 22.8 393.2 22.8 393.2 22.8 C 391.7 22.6 390.5 21.4 390.5 20.3 C 390.5 19.1 391.7 18.2 393.4 17.6 C 393.4 17.6 393.4 17.5 393.4 17.5 C 391.9 17.1 390 15.8 390 12.9 C 390 10.6 391.7 7.7 396.4 7.7 C 397.8 7.7 399.6 8.1 400.4 8.6 C 400.42 8.65 404.4 7.4 404.4 7.4 L 404.6 7.7 L 404 9.6 C 404 9.6 401.57 9.98 401.6 10 C 402.1 10.5 402.5 11.6 402.5 12.9 C 402.5 16.6 399.2 17.9 396.2 17.9 C 395.9 17.9 395.2 17.9 394.7 17.9 C 394.3 18 393.1 18.5 393.1 19.4 C 393.1 20 393.4 20.7 395.6 20.7 C 395.6 20.7 398.1 20.7 398.1 20.7 C 401.4 20.7 404.1 21.9 404.1 25.2 C 404.1 27.2 403.1 28.6 401.7 29.5 C 400.2 30.4 398.2 30.8 396.4 30.8 C 392.8 30.8 389.7 29.4 389.7 26.2 C 389.7 24 391.9 23.2 393.2 22.8 Z M 397.1 29.7 C 399.3 29.7 401.5 28.5 401.5 26 C 401.5 23.7 399.5 23 396.8 23 C 395.3 23 394.3 23.2 393.6 23.7 C 392.9 24.2 392.6 25 392.6 26.1 C 392.6 28.3 394.4 29.7 397.1 29.7 Z M 396.4 16.9 C 398.2 16.9 399.5 15.5 399.5 12.9 C 399.5 9.9 397.9 8.8 396.4 8.8 C 394.8 8.8 393.2 9.8 393.2 12.9 C 393.2 15.5 394.6 16.9 396.4 16.9 Z M 411.2 22.4 C 413.4 22.2 413.5 22.1 413.5 20.6 C 413.5 20.6 413.5 10.8 413.5 10.8 C 413.5 9.7 413.3 9.5 412.5 9.4 C 412.54 9.39 411.4 9.2 411.4 9.2 L 411.4 8.5 L 416.2 7.7 C 416.2 7.7 416.45 10.04 416.4 10 C 417.5 9.2 419.5 7.7 421.9 7.7 C 424 7.7 425.2 8.6 426 10.1 C 427 9.4 428.9 7.7 431.4 7.7 C 434.4 7.7 436 9.5 436 12.6 C 436 12.6 436 20.6 436 20.6 C 436 22.1 436.2 22.2 438.4 22.4 C 438.36 22.35 438.4 23.2 438.4 23.2 L 430.8 23.2 C 430.8 23.2 430.8 22.35 430.8 22.4 C 433 22.2 433.1 22.1 433.1 20.6 C 433.1 20.6 433.1 13.2 433.1 13.2 C 433.1 10.5 431.9 9.4 430 9.4 C 428.3 9.4 426.9 10.4 426.5 11.6 C 426.3 12.1 426.2 12.5 426.2 13.3 C 426.2 13.3 426.2 20.6 426.2 20.6 C 426.2 22.1 426.4 22.2 428.6 22.4 C 428.57 22.35 428.6 23.2 428.6 23.2 L 421 23.2 C 421 23.2 421 22.35 421 22.4 C 423.2 22.2 423.3 22.1 423.3 20.6 C 423.3 20.6 423.3 13.2 423.3 13.2 C 423.3 11.3 423 9.4 420.4 9.4 C 418.6 9.4 417.3 10.4 416.7 11.7 C 416.5 12.1 416.4 12.5 416.4 13.3 C 416.4 13.3 416.4 20.6 416.4 20.6 C 416.4 22.1 416.6 22.2 418.8 22.4 C 418.77 22.35 418.8 23.2 418.8 23.2 L 411.2 23.2 C 411.2 23.2 411.21 22.35 411.2 22.4 Z M 443.1 22.8 C 443.1 22.8 443.1 22.8 443.1 22.8 C 441.6 22.6 440.3 21.4 440.3 20.3 C 440.3 19.1 441.5 18.2 443.2 17.6 C 443.2 17.6 443.2 17.5 443.2 17.5 C 441.8 17.1 439.9 15.8 439.9 12.9 C 439.9 10.6 441.5 7.7 446.3 7.7 C 447.7 7.7 449.4 8.1 450.3 8.6 C 450.27 8.65 454.2 7.4 454.2 7.4 L 454.5 7.7 L 453.9 9.6 C 453.9 9.6 451.41 9.98 451.4 10 C 451.9 10.5 452.3 11.6 452.3 12.9 C 452.3 16.6 449 17.9 446.1 17.9 C 445.7 17.9 445.1 17.9 444.5 17.9 C 444.1 18 442.9 18.5 442.9 19.4 C 442.9 20 443.3 20.7 445.5 20.7 C 445.5 20.7 448 20.7 448 20.7 C 451.3 20.7 454 21.9 454 25.2 C 454 27.2 452.9 28.6 451.5 29.5 C 450 30.4 448.1 30.8 446.2 30.8 C 442.6 30.8 439.5 29.4 439.5 26.2 C 439.5 24 441.7 23.2 443.1 22.8 Z M 446.9 29.7 C 449.1 29.7 451.4 28.5 451.4 26 C 451.4 23.7 449.3 23 446.6 23 C 445.1 23 444.1 23.2 443.4 23.7 C 442.8 24.2 442.5 25 442.5 26.1 C 442.5 28.3 444.3 29.7 446.9 29.7 Z M 446.2 16.9 C 448 16.9 449.4 15.5 449.4 12.9 C 449.4 9.9 447.8 8.8 446.3 8.8 C 444.6 8.8 443 9.8 443 12.9 C 443 15.5 444.5 16.9 446.2 16.9 Z M 458.1 15.5 C 460.6 14.8 463.6 14 464.3 13.2 C 464.3 13.2 464.3 11.9 464.3 11.9 C 464.3 9.4 462.9 8.8 461.7 8.8 C 460.5 8.8 459.2 9.5 458.5 11.8 C 458.4 12.3 458.2 12.7 457.5 12.7 C 456.9 12.7 455.8 12.2 455.8 11.2 C 455.8 9.5 458.5 7.7 462 7.7 C 466.7 7.7 467.1 10 467.1 11.8 C 467.1 11.8 467.1 19.3 467.1 19.3 C 467.1 21.3 467.7 21.9 468.2 22 C 468.7 22.1 469.4 22 469.8 21.9 C 469.8 21.9 470 22.7 470 22.7 C 468.8 23.3 467.5 23.6 466.3 23.6 C 465.2 23.6 464.7 22.9 464.3 21.8 C 463.3 22.4 461.5 23.6 459.7 23.6 C 456.8 23.6 455.2 21.5 455.2 19.2 C 455.2 17.8 455.9 16.2 458.1 15.5 Z M 461.2 22 C 462.4 22 464.3 21.3 464.3 18.8 C 464.3 18.8 464.3 14.4 464.3 14.4 C 463.7 14.9 462 15.5 460.8 15.9 C 459 16.6 458.4 17.3 458.4 18.8 C 458.4 20.6 459.3 22 461.2 22 Z " stroke="none" fill="#000"/>
  </g>
</svg>