<?xml version="1.0" standalone="no"?>
<!DOCTYPE svg PUBLIC "-//W3C//DTD SVG 1.1//EN" "http://www.w3.org/Graphics/SVG/1.1/DTD/svg11.dtd">
<svg xmlns="http://www.w3.org/2000/svg" version="1.1" width="290px" height="19px" viewBox="0 -3 290 19" style="top:-3px">
  <desc>Likha nina Charisse Oliver at Angela De Castro</desc>
  <defs/>
  <g id="Polygon26983">
    <path d="M 0.5 1.7 L 1.5 1.7 L 1.5 10.7 L 0.5 10.7 L 0.5 1.7 Z M 6 2.3 L 7.2 2.3 L 6 7.8 L 9.3 7.8 L 9.1 8.8 L 4.7 8.8 L 6 2.3 Z M 11.2 2.3 L 12.2 2.3 L 12 3.3 L 11 3.3 L 11.2 2.3 Z M 10.8 4.1 L 11.8 4.1 L 10.9 8.8 L 9.8 8.8 L 10.8 4.1 Z M 13.4 2.3 L 14.4 2.3 L 13.7 6 L 13.7 6 L 15.8 4.1 L 17.1 4.1 L 15.1 5.8 L 16.2 8.8 L 15.1 8.8 L 14.2 6.5 L 13.4 7.2 L 13.1 8.8 L 12.1 8.8 L 13.4 2.3 Z M 18.2 2.3 L 19.2 2.3 L 18.7 4.8 C 18.7 4.8 18.72 4.78 18.7 4.8 C 18.9 4.5 19.1 4.4 19.4 4.2 C 19.7 4.1 20 4 20.2 4 C 20.7 4 21.1 4.1 21.3 4.3 C 21.5 4.6 21.6 4.9 21.6 5.2 C 21.6 5.3 21.6 5.4 21.6 5.5 C 21.6 5.6 21.6 5.7 21.6 5.8 C 21.56 5.8 20.9 8.8 20.9 8.8 L 19.9 8.8 C 19.9 8.8 20.51 5.9 20.5 5.9 C 20.5 5.8 20.5 5.8 20.6 5.7 C 20.6 5.6 20.6 5.5 20.6 5.5 C 20.6 5.4 20.6 5.4 20.6 5.3 C 20.6 5.2 20.6 5.2 20.5 5.1 C 20.5 5 20.4 4.9 20.3 4.9 C 20.2 4.8 20.1 4.8 19.9 4.8 C 19.7 4.8 19.5 4.8 19.3 4.9 C 19.2 5 19 5.1 18.9 5.3 C 18.8 5.4 18.7 5.5 18.6 5.7 C 18.5 5.9 18.4 6.1 18.4 6.3 C 18.4 6.25 17.9 8.8 17.9 8.8 L 16.8 8.8 L 18.2 2.3 Z M 23.2 7.5 C 23.2 7.6 23.2 7.7 23.2 7.8 C 23.3 7.9 23.3 7.9 23.4 8 C 23.5 8 23.6 8 23.7 8.1 C 23.8 8.1 23.9 8.1 24 8.1 C 24.2 8.1 24.4 8 24.6 8 C 24.8 7.9 24.9 7.8 25 7.6 C 25.1 7.5 25.2 7.3 25.3 7.1 C 25.4 6.9 25.4 6.7 25.4 6.5 C 25.4 6.5 25.4 6.5 25.4 6.5 C 25.4 6.5 25.3 6.6 25.1 6.6 C 25 6.7 24.9 6.7 24.8 6.7 C 24.6 6.7 24.5 6.7 24.3 6.7 C 24.1 6.7 23.9 6.8 23.8 6.8 C 23.6 6.9 23.4 6.9 23.3 7.1 C 23.2 7.2 23.2 7.3 23.2 7.5 Z M 26.2 7.4 C 26.2 7.5 26.2 7.6 26.2 7.7 C 26.2 7.7 26.2 7.8 26.2 7.9 C 26.2 8 26.2 8 26.2 8 C 26.2 8.1 26.3 8.1 26.4 8.1 C 26.4 8.1 26.5 8.1 26.5 8.1 C 26.6 8.1 26.7 8 26.7 8 C 26.7 8 26.6 8.8 26.6 8.8 C 26.4 8.8 26.3 8.8 26.2 8.9 C 26 8.9 25.9 8.9 25.8 8.9 C 25.6 8.9 25.4 8.8 25.3 8.7 C 25.2 8.6 25.2 8.5 25.1 8.3 C 24.9 8.5 24.7 8.7 24.4 8.8 C 24.1 8.9 23.9 8.9 23.6 8.9 C 23.4 8.9 23.2 8.9 23 8.8 C 22.9 8.8 22.7 8.7 22.6 8.6 C 22.4 8.5 22.3 8.4 22.2 8.2 C 22.2 8 22.1 7.9 22.1 7.7 C 22.1 7.4 22.2 7.1 22.3 6.9 C 22.4 6.7 22.5 6.6 22.7 6.5 C 22.9 6.3 23.1 6.2 23.3 6.2 C 23.6 6.1 23.8 6.1 24.1 6.1 C 24.4 6 24.8 6 25.1 6 C 25.3 6 25.4 5.9 25.5 5.8 C 25.6 5.7 25.6 5.5 25.6 5.4 C 25.6 5.1 25.6 5 25.4 4.9 C 25.3 4.8 25.1 4.8 24.9 4.8 C 24.6 4.8 24.3 4.9 24.1 5 C 23.9 5.1 23.8 5.2 23.7 5.5 C 23.7 5.5 22.7 5.5 22.7 5.5 C 22.8 5.2 22.9 5 23 4.8 C 23.1 4.6 23.3 4.5 23.5 4.3 C 23.7 4.2 23.9 4.1 24.2 4.1 C 24.4 4 24.7 4 24.9 4 C 25.3 4 25.7 4 25.9 4.1 C 26.2 4.2 26.3 4.3 26.4 4.4 C 26.5 4.5 26.6 4.6 26.6 4.8 C 26.7 4.9 26.7 5 26.7 5.1 C 26.7 5.3 26.6 5.5 26.6 5.8 C 26.6 5.8 26.2 7.4 26.2 7.4 Z M 30.8 4.1 L 31.7 4.1 L 31.6 4.8 C 31.6 4.8 31.59 4.81 31.6 4.8 C 31.8 4.6 32 4.4 32.3 4.2 C 32.6 4.1 32.9 4 33.2 4 C 33.7 4 34 4.1 34.2 4.3 C 34.4 4.6 34.6 4.9 34.6 5.2 C 34.6 5.3 34.5 5.4 34.5 5.5 C 34.5 5.6 34.5 5.7 34.5 5.8 C 34.51 5.8 33.9 8.8 33.9 8.8 L 32.9 8.8 C 32.9 8.8 33.45 5.9 33.5 5.9 C 33.5 5.8 33.5 5.8 33.5 5.7 C 33.5 5.6 33.5 5.5 33.5 5.5 C 33.5 5.4 33.5 5.4 33.5 5.3 C 33.5 5.2 33.5 5.2 33.5 5.1 C 33.4 5 33.3 4.9 33.2 4.9 C 33.1 4.8 33 4.8 32.8 4.8 C 32.6 4.8 32.4 4.8 32.3 4.9 C 32.1 5 32 5.1 31.8 5.3 C 31.7 5.4 31.6 5.5 31.5 5.7 C 31.4 5.9 31.4 6.1 31.3 6.3 C 31.34 6.25 30.8 8.8 30.8 8.8 L 29.8 8.8 L 30.8 4.1 Z M 36.4 2.3 L 37.4 2.3 L 37.2 3.3 L 36.2 3.3 L 36.4 2.3 Z M 36 4.1 L 37 4.1 L 36.1 8.8 L 35 8.8 L 36 4.1 Z M 38.3 4.1 L 39.2 4.1 L 39.1 4.8 C 39.1 4.8 39.1 4.81 39.1 4.8 C 39.3 4.6 39.5 4.4 39.8 4.2 C 40.1 4.1 40.4 4 40.7 4 C 41.2 4 41.5 4.1 41.7 4.3 C 42 4.6 42.1 4.9 42.1 5.2 C 42.1 5.3 42.1 5.4 42.1 5.5 C 42.1 5.6 42 5.7 42 5.8 C 42.02 5.8 41.4 8.8 41.4 8.8 L 40.4 8.8 C 40.4 8.8 40.97 5.9 41 5.9 C 41 5.8 41 5.8 41 5.7 C 41 5.6 41 5.5 41 5.5 C 41 5.4 41 5.4 41 5.3 C 41 5.2 41 5.2 41 5.1 C 40.9 5 40.9 4.9 40.8 4.9 C 40.7 4.8 40.5 4.8 40.3 4.8 C 40.1 4.8 39.9 4.8 39.8 4.9 C 39.6 5 39.5 5.1 39.4 5.3 C 39.2 5.4 39.1 5.5 39 5.7 C 39 5.9 38.9 6.1 38.9 6.3 C 38.85 6.25 38.3 8.8 38.3 8.8 L 37.3 8.8 L 38.3 4.1 Z M 43.6 7.5 C 43.6 7.6 43.6 7.7 43.7 7.8 C 43.7 7.9 43.8 7.9 43.9 8 C 44 8 44 8 44.1 8.1 C 44.2 8.1 44.3 8.1 44.4 8.1 C 44.7 8.1 44.9 8 45.1 8 C 45.2 7.9 45.4 7.8 45.5 7.6 C 45.6 7.5 45.7 7.3 45.8 7.1 C 45.8 6.9 45.9 6.7 45.9 6.5 C 45.9 6.5 45.9 6.5 45.9 6.5 C 45.8 6.5 45.7 6.6 45.6 6.6 C 45.5 6.7 45.4 6.7 45.2 6.7 C 45.1 6.7 44.9 6.7 44.7 6.7 C 44.6 6.7 44.4 6.8 44.2 6.8 C 44 6.9 43.9 6.9 43.8 7.1 C 43.7 7.2 43.6 7.3 43.6 7.5 Z M 46.7 7.4 C 46.7 7.5 46.7 7.6 46.6 7.7 C 46.6 7.7 46.6 7.8 46.6 7.9 C 46.6 8 46.6 8 46.7 8 C 46.7 8.1 46.7 8.1 46.8 8.1 C 46.9 8.1 46.9 8.1 47 8.1 C 47.1 8.1 47.1 8 47.2 8 C 47.2 8 47 8.8 47 8.8 C 46.9 8.8 46.8 8.8 46.6 8.9 C 46.5 8.9 46.4 8.9 46.2 8.9 C 46 8.9 45.9 8.8 45.8 8.7 C 45.7 8.6 45.6 8.5 45.6 8.3 C 45.4 8.5 45.2 8.7 44.9 8.8 C 44.6 8.9 44.3 8.9 44 8.9 C 43.8 8.9 43.7 8.9 43.5 8.8 C 43.3 8.8 43.2 8.7 43 8.6 C 42.9 8.5 42.8 8.4 42.7 8.2 C 42.6 8 42.6 7.9 42.6 7.7 C 42.6 7.4 42.6 7.1 42.7 6.9 C 42.9 6.7 43 6.6 43.2 6.5 C 43.4 6.3 43.6 6.2 43.8 6.2 C 44 6.1 44.3 6.1 44.5 6.1 C 44.9 6 45.2 6 45.6 6 C 45.8 6 45.9 5.9 46 5.8 C 46.1 5.7 46.1 5.5 46.1 5.4 C 46.1 5.1 46 5 45.9 4.9 C 45.7 4.8 45.5 4.8 45.3 4.8 C 45 4.8 44.8 4.9 44.6 5 C 44.4 5.1 44.2 5.2 44.2 5.5 C 44.2 5.5 43.2 5.5 43.2 5.5 C 43.2 5.2 43.3 5 43.5 4.8 C 43.6 4.6 43.8 4.5 44 4.3 C 44.1 4.2 44.4 4.1 44.6 4.1 C 44.9 4 45.1 4 45.4 4 C 45.8 4 46.1 4 46.4 4.1 C 46.6 4.2 46.8 4.3 46.9 4.4 C 47 4.5 47.1 4.6 47.1 4.8 C 47.1 4.9 47.1 5 47.1 5.1 C 47.1 5.3 47.1 5.5 47 5.8 C 47 5.8 46.7 7.4 46.7 7.4 Z M 55.5 4.5 C 55.5 4 55.4 3.7 55.1 3.5 C 54.9 3.2 54.5 3.1 54 3.1 C 53.7 3.1 53.3 3.2 53 3.4 C 52.8 3.5 52.5 3.8 52.3 4.1 C 52.1 4.3 52 4.7 51.9 5 C 51.8 5.4 51.8 5.7 51.8 6.1 C 51.8 6.7 51.9 7.2 52.2 7.5 C 52.5 7.8 53 8 53.5 8 C 53.8 8 54.1 8 54.3 7.8 C 54.4 7.7 54.6 7.6 54.7 7.4 C 54.9 7.3 55 7.1 55 6.9 C 55.1 6.8 55.2 6.6 55.2 6.5 C 55.2 6.5 56.3 6.5 56.3 6.5 C 56.2 6.9 56.1 7.3 55.9 7.6 C 55.7 7.9 55.5 8.1 55.3 8.3 C 55 8.5 54.7 8.7 54.4 8.8 C 54.1 8.9 53.8 8.9 53.5 8.9 C 53 8.9 52.6 8.9 52.3 8.7 C 51.9 8.6 51.6 8.4 51.4 8.1 C 51.1 7.9 50.9 7.6 50.8 7.2 C 50.7 6.9 50.6 6.5 50.6 6.1 C 50.6 5.4 50.7 4.9 50.9 4.4 C 51.1 3.9 51.4 3.5 51.7 3.1 C 52.1 2.8 52.4 2.6 52.8 2.4 C 53.2 2.3 53.7 2.2 54.1 2.2 C 54.5 2.2 54.8 2.2 55.1 2.3 C 55.4 2.5 55.7 2.6 55.9 2.8 C 56.2 3 56.3 3.2 56.5 3.5 C 56.6 3.8 56.6 4.1 56.6 4.5 C 56.6 4.5 55.5 4.5 55.5 4.5 Z M 58.2 2.3 L 59.2 2.3 L 58.7 4.8 C 58.7 4.8 58.71 4.78 58.7 4.8 C 58.9 4.5 59.1 4.4 59.4 4.2 C 59.7 4.1 59.9 4 60.2 4 C 60.7 4 61 4.1 61.3 4.3 C 61.5 4.6 61.6 4.9 61.6 5.2 C 61.6 5.3 61.6 5.4 61.6 5.5 C 61.6 5.6 61.6 5.7 61.6 5.8 C 61.55 5.8 60.9 8.8 60.9 8.8 L 59.9 8.8 C 59.9 8.8 60.5 5.9 60.5 5.9 C 60.5 5.8 60.5 5.8 60.5 5.7 C 60.6 5.6 60.6 5.5 60.6 5.5 C 60.6 5.4 60.6 5.4 60.6 5.3 C 60.6 5.2 60.5 5.2 60.5 5.1 C 60.5 5 60.4 4.9 60.3 4.9 C 60.2 4.8 60 4.8 59.9 4.8 C 59.7 4.8 59.5 4.8 59.3 4.9 C 59.2 5 59 5.1 58.9 5.3 C 58.8 5.4 58.7 5.5 58.6 5.7 C 58.5 5.9 58.4 6.1 58.4 6.3 C 58.38 6.25 57.9 8.8 57.9 8.8 L 56.8 8.8 L 58.2 2.3 Z M 63.1 7.5 C 63.1 7.6 63.2 7.7 63.2 7.8 C 63.3 7.9 63.3 7.9 63.4 8 C 63.5 8 63.6 8 63.7 8.1 C 63.8 8.1 63.9 8.1 64 8.1 C 64.2 8.1 64.4 8 64.6 8 C 64.8 7.9 64.9 7.8 65 7.6 C 65.1 7.5 65.2 7.3 65.3 7.1 C 65.3 6.9 65.4 6.7 65.4 6.5 C 65.4 6.5 65.4 6.5 65.4 6.5 C 65.3 6.5 65.2 6.6 65.1 6.6 C 65 6.7 64.9 6.7 64.8 6.7 C 64.6 6.7 64.5 6.7 64.3 6.7 C 64.1 6.7 63.9 6.8 63.7 6.8 C 63.6 6.9 63.4 6.9 63.3 7.1 C 63.2 7.2 63.1 7.3 63.1 7.5 Z M 66.2 7.4 C 66.2 7.5 66.2 7.6 66.2 7.7 C 66.2 7.7 66.1 7.8 66.1 7.9 C 66.1 8 66.2 8 66.2 8 C 66.2 8.1 66.3 8.1 66.4 8.1 C 66.4 8.1 66.5 8.1 66.5 8.1 C 66.6 8.1 66.7 8 66.7 8 C 66.7 8 66.6 8.8 66.6 8.8 C 66.4 8.8 66.3 8.8 66.2 8.9 C 66 8.9 65.9 8.9 65.8 8.9 C 65.6 8.9 65.4 8.8 65.3 8.7 C 65.2 8.6 65.1 8.5 65.1 8.3 C 64.9 8.5 64.7 8.7 64.4 8.8 C 64.1 8.9 63.9 8.9 63.6 8.9 C 63.4 8.9 63.2 8.9 63 8.8 C 62.8 8.8 62.7 8.7 62.6 8.6 C 62.4 8.5 62.3 8.4 62.2 8.2 C 62.2 8 62.1 7.9 62.1 7.7 C 62.1 7.4 62.2 7.1 62.3 6.9 C 62.4 6.7 62.5 6.6 62.7 6.5 C 62.9 6.3 63.1 6.2 63.3 6.2 C 63.6 6.1 63.8 6.1 64.1 6.1 C 64.4 6 64.8 6 65.1 6 C 65.3 6 65.4 5.9 65.5 5.8 C 65.6 5.7 65.6 5.5 65.6 5.4 C 65.6 5.1 65.6 5 65.4 4.9 C 65.2 4.8 65.1 4.8 64.9 4.8 C 64.6 4.8 64.3 4.9 64.1 5 C 63.9 5.1 63.8 5.2 63.7 5.5 C 63.7 5.5 62.7 5.5 62.7 5.5 C 62.8 5.2 62.9 5 63 4.8 C 63.1 4.6 63.3 4.5 63.5 4.3 C 63.7 4.2 63.9 4.1 64.1 4.1 C 64.4 4 64.6 4 64.9 4 C 65.3 4 65.7 4 65.9 4.1 C 66.1 4.2 66.3 4.3 66.4 4.4 C 66.5 4.5 66.6 4.6 66.6 4.8 C 66.7 4.9 66.7 5 66.7 5.1 C 66.7 5.3 66.6 5.5 66.6 5.8 C 66.6 5.8 66.2 7.4 66.2 7.4 Z M 68.1 4.1 L 69.1 4.1 L 68.9 5 C 68.9 5 68.95 5.05 68.9 5 C 69 4.9 69.1 4.8 69.2 4.7 C 69.3 4.5 69.4 4.4 69.6 4.3 C 69.7 4.2 69.8 4.2 70 4.1 C 70.1 4 70.3 4 70.4 4 C 70.5 4 70.6 4 70.7 4 C 70.8 4 70.8 4 70.9 4 C 70.9 4 70.7 5 70.7 5 C 70.7 5 70.6 5 70.5 5 C 70.5 5 70.4 5 70.4 5 C 70.1 5 69.9 5 69.7 5.1 C 69.5 5.2 69.3 5.3 69.2 5.5 C 69 5.7 68.9 5.8 68.8 6 C 68.8 6.3 68.7 6.5 68.6 6.7 C 68.64 6.71 68.2 8.8 68.2 8.8 L 67.2 8.8 L 68.1 4.1 Z M 71.9 2.3 L 73 2.3 L 72.8 3.3 L 71.7 3.3 L 71.9 2.3 Z M 71.6 4.1 L 72.6 4.1 L 71.6 8.8 L 70.6 8.8 L 71.6 4.1 Z M 76.2 5.5 C 76.2 5.2 76.1 5.1 75.9 5 C 75.7 4.9 75.5 4.8 75.2 4.8 C 75.1 4.8 75 4.8 74.9 4.8 C 74.8 4.9 74.8 4.9 74.7 4.9 C 74.6 5 74.5 5 74.5 5.1 C 74.5 5.2 74.4 5.3 74.4 5.4 C 74.4 5.5 74.5 5.6 74.6 5.7 C 74.6 5.7 74.7 5.8 74.9 5.8 C 75 5.9 75.1 5.9 75.3 6 C 75.5 6 75.6 6.1 75.8 6.1 C 75.9 6.2 76.1 6.2 76.2 6.3 C 76.3 6.4 76.4 6.5 76.5 6.6 C 76.6 6.6 76.7 6.8 76.8 6.9 C 76.8 7 76.9 7.2 76.9 7.4 C 76.9 7.6 76.8 7.9 76.7 8.1 C 76.6 8.3 76.4 8.4 76.2 8.5 C 76 8.7 75.8 8.8 75.6 8.8 C 75.3 8.9 75.1 8.9 74.8 8.9 C 74.5 8.9 74.3 8.9 74.1 8.8 C 73.8 8.8 73.6 8.7 73.4 8.6 C 73.3 8.4 73.1 8.3 73 8.1 C 72.9 7.9 72.9 7.6 72.9 7.3 C 72.9 7.3 73.8 7.3 73.8 7.3 C 73.8 7.6 73.9 7.8 74.1 7.9 C 74.3 8 74.6 8.1 74.9 8.1 C 75 8.1 75.1 8.1 75.2 8.1 C 75.3 8 75.4 8 75.5 8 C 75.6 7.9 75.7 7.8 75.8 7.8 C 75.8 7.7 75.9 7.6 75.9 7.4 C 75.9 7.3 75.8 7.2 75.7 7.1 C 75.6 7.1 75.5 7 75.4 6.9 C 75.3 6.9 75.1 6.8 74.9 6.8 C 74.8 6.7 74.6 6.7 74.4 6.6 C 74.3 6.6 74.2 6.5 74 6.4 C 73.9 6.4 73.8 6.3 73.7 6.2 C 73.6 6.1 73.5 6 73.5 5.9 C 73.4 5.7 73.4 5.6 73.4 5.4 C 73.4 5.2 73.5 4.9 73.6 4.8 C 73.7 4.6 73.8 4.4 74 4.3 C 74.2 4.2 74.4 4.1 74.6 4.1 C 74.8 4 75.1 4 75.3 4 C 75.6 4 75.8 4 76 4.1 C 76.3 4.1 76.4 4.2 76.6 4.3 C 76.8 4.4 76.9 4.6 77 4.8 C 77.1 5 77.1 5.2 77.1 5.5 C 77.1 5.5 76.2 5.5 76.2 5.5 Z M 80.7 5.5 C 80.7 5.2 80.7 5.1 80.5 5 C 80.3 4.9 80.1 4.8 79.8 4.8 C 79.7 4.8 79.6 4.8 79.5 4.8 C 79.4 4.9 79.3 4.9 79.3 4.9 C 79.2 5 79.1 5 79.1 5.1 C 79 5.2 79 5.3 79 5.4 C 79 5.5 79.1 5.6 79.1 5.7 C 79.2 5.7 79.3 5.8 79.5 5.8 C 79.6 5.9 79.7 5.9 79.9 6 C 80.1 6 80.2 6.1 80.4 6.1 C 80.5 6.2 80.7 6.2 80.8 6.3 C 80.9 6.4 81 6.5 81.1 6.6 C 81.2 6.6 81.3 6.8 81.4 6.9 C 81.4 7 81.5 7.2 81.5 7.4 C 81.5 7.6 81.4 7.9 81.3 8.1 C 81.2 8.3 81 8.4 80.8 8.5 C 80.6 8.7 80.4 8.8 80.2 8.8 C 79.9 8.9 79.7 8.9 79.4 8.9 C 79.1 8.9 78.9 8.9 78.7 8.8 C 78.4 8.8 78.2 8.7 78 8.6 C 77.9 8.4 77.7 8.3 77.6 8.1 C 77.5 7.9 77.5 7.6 77.5 7.3 C 77.5 7.3 78.4 7.3 78.4 7.3 C 78.4 7.6 78.5 7.8 78.7 7.9 C 78.9 8 79.2 8.1 79.5 8.1 C 79.6 8.1 79.7 8.1 79.8 8.1 C 79.9 8 80 8 80.1 8 C 80.2 7.9 80.3 7.8 80.3 7.8 C 80.4 7.7 80.4 7.6 80.4 7.4 C 80.4 7.3 80.4 7.2 80.3 7.1 C 80.2 7.1 80.1 7 80 6.9 C 79.8 6.9 79.7 6.8 79.5 6.8 C 79.3 6.7 79.2 6.7 79 6.6 C 78.9 6.6 78.8 6.5 78.6 6.4 C 78.5 6.4 78.4 6.3 78.3 6.2 C 78.2 6.1 78.1 6 78.1 5.9 C 78 5.7 78 5.6 78 5.4 C 78 5.2 78 4.9 78.2 4.8 C 78.3 4.6 78.4 4.4 78.6 4.3 C 78.8 4.2 79 4.1 79.2 4.1 C 79.4 4 79.7 4 79.9 4 C 80.2 4 80.4 4 80.6 4.1 C 80.8 4.1 81 4.2 81.2 4.3 C 81.4 4.4 81.5 4.6 81.6 4.8 C 81.7 5 81.7 5.2 81.7 5.5 C 81.7 5.5 80.7 5.5 80.7 5.5 Z M 85.8 6 C 85.8 6 85.8 6 85.8 6 C 85.8 5.9 85.8 5.9 85.8 5.9 C 85.8 5.9 85.8 5.8 85.8 5.8 C 85.8 5.5 85.7 5.2 85.5 5.1 C 85.3 4.9 85.1 4.8 84.8 4.8 C 84.4 4.8 84.1 4.9 83.9 5.2 C 83.7 5.4 83.5 5.7 83.4 6 C 83.4 6 85.8 6 85.8 6 Z M 86.5 7.3 C 86.4 7.9 86.1 8.3 85.7 8.5 C 85.3 8.8 84.8 8.9 84.3 8.9 C 84 8.9 83.7 8.9 83.5 8.8 C 83.2 8.7 83 8.5 82.8 8.4 C 82.6 8.2 82.5 8 82.4 7.7 C 82.3 7.5 82.2 7.2 82.2 6.9 C 82.2 6.5 82.3 6.2 82.4 5.8 C 82.5 5.5 82.7 5.2 82.9 4.9 C 83.1 4.6 83.4 4.4 83.7 4.2 C 84 4.1 84.4 4 84.8 4 C 85.2 4 85.6 4.1 85.8 4.2 C 86.1 4.3 86.3 4.5 86.4 4.7 C 86.6 4.9 86.7 5.2 86.7 5.4 C 86.8 5.7 86.8 5.9 86.8 6.1 C 86.8 6.3 86.8 6.4 86.8 6.5 C 86.8 6.5 86.8 6.6 86.8 6.7 C 86.8 6.7 83.3 6.7 83.3 6.7 C 83.3 6.7 83.3 6.8 83.3 6.8 C 83.3 6.8 83.3 6.8 83.3 6.9 C 83.3 6.9 83.3 7 83.3 7 C 83.3 7.3 83.4 7.6 83.5 7.8 C 83.7 8 84 8.1 84.4 8.1 C 84.7 8.1 84.9 8 85.1 7.9 C 85.3 7.8 85.4 7.6 85.5 7.3 C 85.5 7.3 86.5 7.3 86.5 7.3 Z M 91.2 6.1 C 91.2 6.7 91.4 7.2 91.7 7.5 C 92 7.8 92.4 8 93 8 C 93.4 8 93.7 7.9 94 7.7 C 94.3 7.6 94.5 7.3 94.7 7.1 C 94.9 6.8 95 6.5 95.1 6.1 C 95.2 5.8 95.2 5.4 95.2 5 C 95.2 4.4 95.1 4 94.8 3.6 C 94.5 3.3 94.1 3.1 93.5 3.1 C 93.1 3.1 92.8 3.2 92.5 3.4 C 92.2 3.5 92 3.8 91.8 4.1 C 91.6 4.3 91.5 4.7 91.4 5 C 91.3 5.4 91.2 5.7 91.2 6.1 Z M 90.1 6.1 C 90.1 5.4 90.2 4.9 90.4 4.4 C 90.6 3.9 90.9 3.5 91.2 3.1 C 91.5 2.8 91.9 2.6 92.3 2.4 C 92.7 2.3 93.1 2.2 93.6 2.2 C 94 2.2 94.4 2.3 94.7 2.4 C 95.1 2.5 95.4 2.7 95.6 3 C 95.8 3.2 96 3.5 96.2 3.9 C 96.3 4.2 96.4 4.6 96.4 5 C 96.4 5.7 96.3 6.3 96.1 6.8 C 95.9 7.3 95.6 7.7 95.3 8 C 95 8.3 94.6 8.5 94.2 8.7 C 93.8 8.8 93.4 8.9 93 8.9 C 92.5 8.9 92.1 8.9 91.7 8.7 C 91.4 8.6 91.1 8.4 90.9 8.1 C 90.6 7.9 90.4 7.6 90.3 7.2 C 90.2 6.9 90.1 6.5 90.1 6.1 Z M 98 2.3 L 99 2.3 L 97.7 8.8 L 96.7 8.8 L 98 2.3 Z M 100.2 2.3 L 101.3 2.3 L 101.1 3.3 L 100 3.3 L 100.2 2.3 Z M 99.9 4.1 L 100.9 4.1 L 99.9 8.8 L 98.9 8.8 L 99.9 4.1 Z M 101.6 4.1 L 102.6 4.1 L 103 7.5 L 103 7.5 L 104.8 4.1 L 105.9 4.1 L 103.4 8.8 L 102.2 8.8 L 101.6 4.1 Z M 109.5 6 C 109.5 6 109.5 6 109.5 6 C 109.5 5.9 109.5 5.9 109.5 5.9 C 109.5 5.9 109.5 5.8 109.5 5.8 C 109.5 5.5 109.4 5.2 109.2 5.1 C 109.1 4.9 108.8 4.8 108.5 4.8 C 108.1 4.8 107.8 4.9 107.6 5.2 C 107.4 5.4 107.2 5.7 107.1 6 C 107.1 6 109.5 6 109.5 6 Z M 110.2 7.3 C 110.1 7.9 109.8 8.3 109.4 8.5 C 109 8.8 108.6 8.9 108 8.9 C 107.7 8.9 107.4 8.9 107.2 8.8 C 106.9 8.7 106.7 8.5 106.5 8.4 C 106.4 8.2 106.2 8 106.1 7.7 C 106 7.5 106 7.2 106 6.9 C 106 6.5 106 6.2 106.1 5.8 C 106.2 5.5 106.4 5.2 106.6 4.9 C 106.8 4.6 107.1 4.4 107.4 4.2 C 107.8 4.1 108.1 4 108.5 4 C 109 4 109.3 4.1 109.5 4.2 C 109.8 4.3 110 4.5 110.1 4.7 C 110.3 4.9 110.4 5.2 110.4 5.4 C 110.5 5.7 110.5 5.9 110.5 6.1 C 110.5 6.3 110.5 6.4 110.5 6.5 C 110.5 6.5 110.5 6.6 110.5 6.7 C 110.5 6.7 107 6.7 107 6.7 C 107 6.7 107 6.8 107 6.8 C 107 6.8 107 6.8 107 6.9 C 107 6.9 107 7 107 7 C 107 7.3 107.1 7.6 107.2 7.8 C 107.4 8 107.7 8.1 108.1 8.1 C 108.4 8.1 108.6 8 108.8 7.9 C 109 7.8 109.1 7.6 109.2 7.3 C 109.2 7.3 110.2 7.3 110.2 7.3 Z M 111.8 4.1 L 112.8 4.1 L 112.6 5 C 112.6 5 112.62 5.05 112.6 5 C 112.7 4.9 112.8 4.8 112.9 4.7 C 113 4.5 113.1 4.4 113.2 4.3 C 113.4 4.2 113.5 4.2 113.6 4.1 C 113.8 4 113.9 4 114.1 4 C 114.2 4 114.3 4 114.3 4 C 114.4 4 114.5 4 114.6 4 C 114.6 4 114.4 5 114.4 5 C 114.3 5 114.3 5 114.2 5 C 114.1 5 114.1 5 114 5 C 113.8 5 113.5 5 113.3 5.1 C 113.1 5.2 113 5.3 112.8 5.5 C 112.7 5.7 112.6 5.8 112.5 6 C 112.4 6.3 112.4 6.5 112.3 6.7 C 112.31 6.71 111.9 8.8 111.9 8.8 L 110.9 8.8 L 111.8 4.1 Z M 117.9 7.5 C 117.9 7.6 117.9 7.7 118 7.8 C 118 7.9 118.1 7.9 118.2 8 C 118.3 8 118.4 8 118.4 8.1 C 118.5 8.1 118.6 8.1 118.7 8.1 C 119 8.1 119.2 8 119.4 8 C 119.5 7.9 119.7 7.8 119.8 7.6 C 119.9 7.5 120 7.3 120.1 7.1 C 120.1 6.9 120.2 6.7 120.2 6.5 C 120.2 6.5 120.2 6.5 120.2 6.5 C 120.1 6.5 120 6.6 119.9 6.6 C 119.8 6.7 119.7 6.7 119.5 6.7 C 119.4 6.7 119.2 6.7 119 6.7 C 118.9 6.7 118.7 6.8 118.5 6.8 C 118.4 6.9 118.2 6.9 118.1 7.1 C 118 7.2 117.9 7.3 117.9 7.5 Z M 121 7.4 C 121 7.5 121 7.6 120.9 7.7 C 120.9 7.7 120.9 7.8 120.9 7.9 C 120.9 8 120.9 8 121 8 C 121 8.1 121 8.1 121.1 8.1 C 121.2 8.1 121.2 8.1 121.3 8.1 C 121.4 8.1 121.4 8 121.5 8 C 121.5 8 121.3 8.8 121.3 8.8 C 121.2 8.8 121.1 8.8 120.9 8.9 C 120.8 8.9 120.7 8.9 120.5 8.9 C 120.4 8.9 120.2 8.8 120.1 8.7 C 120 8.6 119.9 8.5 119.9 8.3 C 119.7 8.5 119.5 8.7 119.2 8.8 C 118.9 8.9 118.6 8.9 118.3 8.9 C 118.1 8.9 118 8.9 117.8 8.8 C 117.6 8.8 117.5 8.7 117.3 8.6 C 117.2 8.5 117.1 8.4 117 8.2 C 116.9 8 116.9 7.9 116.9 7.7 C 116.9 7.4 116.9 7.1 117.1 6.9 C 117.2 6.7 117.3 6.6 117.5 6.5 C 117.7 6.3 117.9 6.2 118.1 6.2 C 118.3 6.1 118.6 6.1 118.8 6.1 C 119.2 6 119.5 6 119.9 6 C 120.1 6 120.2 5.9 120.3 5.8 C 120.4 5.7 120.4 5.5 120.4 5.4 C 120.4 5.1 120.3 5 120.2 4.9 C 120 4.8 119.8 4.8 119.6 4.8 C 119.3 4.8 119.1 4.9 118.9 5 C 118.7 5.1 118.5 5.2 118.5 5.5 C 118.5 5.5 117.5 5.5 117.5 5.5 C 117.5 5.2 117.6 5 117.8 4.8 C 117.9 4.6 118.1 4.5 118.3 4.3 C 118.5 4.2 118.7 4.1 118.9 4.1 C 119.2 4 119.4 4 119.7 4 C 120.1 4 120.4 4 120.7 4.1 C 120.9 4.2 121.1 4.3 121.2 4.4 C 121.3 4.5 121.4 4.6 121.4 4.8 C 121.4 4.9 121.4 5 121.4 5.1 C 121.4 5.3 121.4 5.5 121.3 5.8 C 121.3 5.8 121 7.4 121 7.4 Z M 123.5 2.7 L 124.5 2.7 L 124.2 4.1 L 125.1 4.1 L 125 4.9 L 124 4.9 C 124 4.9 123.57 7.16 123.6 7.2 C 123.5 7.3 123.5 7.4 123.5 7.5 C 123.5 7.5 123.5 7.6 123.5 7.7 C 123.5 7.8 123.5 7.9 123.5 7.9 C 123.6 8 123.7 8 123.8 8 C 123.9 8 124 8 124.1 8 C 124.2 8 124.3 8 124.4 8 C 124.4 8 124.2 8.7 124.2 8.7 C 124.1 8.8 124 8.8 123.8 8.8 C 123.7 8.8 123.5 8.8 123.4 8.8 C 123.2 8.8 123 8.8 122.9 8.7 C 122.8 8.7 122.7 8.6 122.6 8.6 C 122.6 8.5 122.5 8.4 122.5 8.3 C 122.5 8.2 122.5 8.1 122.5 8 C 122.5 7.9 122.5 7.8 122.5 7.7 C 122.5 7.6 122.5 7.5 122.5 7.4 C 122.52 7.43 123 4.9 123 4.9 L 122.2 4.9 L 122.4 4.1 L 123.2 4.1 L 123.5 2.7 Z M 131.1 2.3 L 132.2 2.3 L 133.4 8.8 L 132.2 8.8 L 132 7.1 L 129.4 7.1 L 128.4 8.8 L 127.2 8.8 L 131.1 2.3 Z M 131.4 3.5 L 131.4 3.5 L 129.9 6.2 L 131.8 6.2 L 131.4 3.5 Z M 134.9 4.1 L 135.8 4.1 L 135.7 4.8 C 135.7 4.8 135.69 4.81 135.7 4.8 C 135.9 4.6 136.1 4.4 136.4 4.2 C 136.7 4.1 137 4 137.3 4 C 137.8 4 138.1 4.1 138.3 4.3 C 138.5 4.6 138.7 4.9 138.7 5.2 C 138.7 5.3 138.6 5.4 138.6 5.5 C 138.6 5.6 138.6 5.7 138.6 5.8 C 138.61 5.8 138 8.8 138 8.8 L 137 8.8 C 137 8.8 137.55 5.9 137.6 5.9 C 137.6 5.8 137.6 5.8 137.6 5.7 C 137.6 5.6 137.6 5.5 137.6 5.5 C 137.6 5.4 137.6 5.4 137.6 5.3 C 137.6 5.2 137.6 5.2 137.6 5.1 C 137.5 5 137.4 4.9 137.3 4.9 C 137.2 4.8 137.1 4.8 136.9 4.8 C 136.7 4.8 136.5 4.8 136.4 4.9 C 136.2 5 136.1 5.1 135.9 5.3 C 135.8 5.4 135.7 5.5 135.6 5.7 C 135.5 5.9 135.5 6.1 135.4 6.3 C 135.44 6.25 134.9 8.8 134.9 8.8 L 133.9 8.8 L 134.9 4.1 Z M 140.5 6.8 C 140.5 7 140.5 7.1 140.5 7.3 C 140.5 7.4 140.6 7.5 140.7 7.6 C 140.8 7.7 140.9 7.8 141 7.9 C 141.1 7.9 141.3 8 141.4 8 C 141.7 8 141.9 7.9 142.1 7.8 C 142.3 7.6 142.5 7.5 142.6 7.3 C 142.7 7.1 142.8 6.9 142.9 6.6 C 142.9 6.4 143 6.1 143 5.9 C 143 5.6 142.9 5.3 142.7 5.1 C 142.5 4.9 142.3 4.8 141.9 4.8 C 141.7 4.8 141.5 4.9 141.3 5 C 141.1 5.1 140.9 5.3 140.8 5.5 C 140.7 5.7 140.6 5.9 140.5 6.1 C 140.5 6.4 140.5 6.6 140.5 6.8 Z M 143.4 8.6 C 143.3 9 143.2 9.3 143.1 9.6 C 143 9.8 142.9 10 142.7 10.2 C 142.5 10.3 142.3 10.4 142 10.5 C 141.7 10.6 141.4 10.6 141.1 10.6 C 140.8 10.6 140.6 10.6 140.3 10.5 C 140.1 10.5 139.9 10.4 139.7 10.3 C 139.5 10.2 139.4 10 139.2 9.8 C 139.1 9.6 139.1 9.4 139.1 9.1 C 139.1 9.1 140.1 9.1 140.1 9.1 C 140.1 9.4 140.2 9.6 140.4 9.7 C 140.6 9.8 140.9 9.9 141.2 9.9 C 141.4 9.9 141.6 9.8 141.7 9.8 C 141.9 9.7 142 9.6 142.1 9.5 C 142.2 9.4 142.3 9.2 142.3 9.1 C 142.4 8.9 142.4 8.7 142.5 8.5 C 142.47 8.55 142.6 8.1 142.6 8.1 C 142.6 8.1 142.55 8.07 142.5 8.1 C 142.2 8.5 141.8 8.8 141.2 8.8 C 140.7 8.8 140.2 8.6 139.9 8.3 C 139.6 7.9 139.4 7.5 139.4 6.9 C 139.4 6.5 139.5 6.2 139.6 5.8 C 139.7 5.5 139.8 5.2 140 4.9 C 140.2 4.6 140.5 4.4 140.8 4.2 C 141.1 4.1 141.4 4 141.8 4 C 142.2 4 142.5 4.1 142.7 4.2 C 143 4.3 143.1 4.6 143.3 4.9 C 143.27 4.9 143.3 4.9 143.3 4.9 L 143.4 4.1 L 144.4 4.1 C 144.4 4.1 143.41 8.65 143.4 8.6 Z M 148.3 6 C 148.3 6 148.3 6 148.3 6 C 148.3 5.9 148.3 5.9 148.3 5.9 C 148.3 5.9 148.3 5.8 148.3 5.8 C 148.3 5.5 148.2 5.2 148 5.1 C 147.9 4.9 147.6 4.8 147.3 4.8 C 146.9 4.8 146.6 4.9 146.4 5.2 C 146.2 5.4 146 5.7 145.9 6 C 145.9 6 148.3 6 148.3 6 Z M 149 7.3 C 148.9 7.9 148.6 8.3 148.2 8.5 C 147.8 8.8 147.4 8.9 146.8 8.9 C 146.5 8.9 146.2 8.9 146 8.8 C 145.7 8.7 145.5 8.5 145.3 8.4 C 145.2 8.2 145 8 144.9 7.7 C 144.8 7.5 144.8 7.2 144.8 6.9 C 144.8 6.5 144.8 6.2 144.9 5.8 C 145.1 5.5 145.2 5.2 145.4 4.9 C 145.7 4.6 145.9 4.4 146.3 4.2 C 146.6 4.1 146.9 4 147.4 4 C 147.8 4 148.1 4.1 148.4 4.2 C 148.6 4.3 148.8 4.5 149 4.7 C 149.1 4.9 149.2 5.2 149.3 5.4 C 149.3 5.7 149.3 5.9 149.3 6.1 C 149.3 6.3 149.3 6.4 149.3 6.5 C 149.3 6.5 149.3 6.6 149.3 6.7 C 149.3 6.7 145.8 6.7 145.8 6.7 C 145.8 6.7 145.8 6.8 145.8 6.8 C 145.8 6.8 145.8 6.8 145.8 6.9 C 145.8 6.9 145.8 7 145.8 7 C 145.8 7.3 145.9 7.6 146.1 7.8 C 146.2 8 146.5 8.1 146.9 8.1 C 147.2 8.1 147.4 8 147.6 7.9 C 147.8 7.8 147.9 7.6 148 7.3 C 148 7.3 149 7.3 149 7.3 Z M 151 2.3 L 152 2.3 L 150.7 8.8 L 149.7 8.8 L 151 2.3 Z M 153 7.5 C 153 7.6 153 7.7 153.1 7.8 C 153.1 7.9 153.2 7.9 153.3 8 C 153.3 8 153.4 8 153.5 8.1 C 153.6 8.1 153.7 8.1 153.8 8.1 C 154.1 8.1 154.3 8 154.4 8 C 154.6 7.9 154.7 7.8 154.9 7.6 C 155 7.5 155.1 7.3 155.1 7.1 C 155.2 6.9 155.2 6.7 155.3 6.5 C 155.3 6.5 155.2 6.5 155.2 6.5 C 155.2 6.5 155.1 6.6 155 6.6 C 154.8 6.7 154.7 6.7 154.6 6.7 C 154.5 6.7 154.3 6.7 154.1 6.7 C 153.9 6.7 153.7 6.8 153.6 6.8 C 153.4 6.9 153.3 6.9 153.2 7.1 C 153 7.2 153 7.3 153 7.5 Z M 156.1 7.4 C 156 7.5 156 7.6 156 7.7 C 156 7.7 156 7.8 156 7.9 C 156 8 156 8 156 8 C 156.1 8.1 156.1 8.1 156.2 8.1 C 156.3 8.1 156.3 8.1 156.4 8.1 C 156.4 8.1 156.5 8 156.6 8 C 156.6 8 156.4 8.8 156.4 8.8 C 156.3 8.8 156.1 8.8 156 8.9 C 155.9 8.9 155.7 8.9 155.6 8.9 C 155.4 8.9 155.3 8.8 155.2 8.7 C 155 8.6 155 8.5 155 8.3 C 154.8 8.5 154.5 8.7 154.2 8.8 C 154 8.9 153.7 8.9 153.4 8.9 C 153.2 8.9 153 8.9 152.9 8.8 C 152.7 8.8 152.5 8.7 152.4 8.6 C 152.3 8.5 152.1 8.4 152.1 8.2 C 152 8 152 7.9 152 7.7 C 152 7.4 152 7.1 152.1 6.9 C 152.2 6.7 152.4 6.6 152.5 6.5 C 152.7 6.3 152.9 6.2 153.2 6.2 C 153.4 6.1 153.6 6.1 153.9 6.1 C 154.3 6 154.6 6 154.9 6 C 155.1 6 155.3 5.9 155.3 5.8 C 155.4 5.7 155.5 5.5 155.5 5.4 C 155.5 5.1 155.4 5 155.2 4.9 C 155.1 4.8 154.9 4.8 154.7 4.8 C 154.4 4.8 154.2 4.9 153.9 5 C 153.7 5.1 153.6 5.2 153.5 5.5 C 153.5 5.5 152.6 5.5 152.6 5.5 C 152.6 5.2 152.7 5 152.8 4.8 C 153 4.6 153.1 4.5 153.3 4.3 C 153.5 4.2 153.7 4.1 154 4.1 C 154.2 4 154.5 4 154.8 4 C 155.2 4 155.5 4 155.7 4.1 C 156 4.2 156.1 4.3 156.3 4.4 C 156.4 4.5 156.4 4.6 156.5 4.8 C 156.5 4.9 156.5 5 156.5 5.1 C 156.5 5.3 156.5 5.5 156.4 5.8 C 156.4 5.8 156.1 7.4 156.1 7.4 Z M 161.1 7.9 C 161.1 7.9 162.46 7.86 162.5 7.9 C 162.8 7.9 163.1 7.8 163.3 7.7 C 163.6 7.6 163.8 7.4 163.9 7.3 C 164.1 7.1 164.3 6.9 164.4 6.7 C 164.5 6.5 164.6 6.3 164.6 6.1 C 164.7 5.8 164.8 5.7 164.8 5.5 C 164.8 5.3 164.8 5.1 164.8 5 C 164.8 4.5 164.7 4 164.5 3.7 C 164.2 3.4 163.9 3.3 163.4 3.3 C 163.42 3.27 162 3.3 162 3.3 L 161.1 7.9 Z M 161.1 2.3 C 161.1 2.3 163.44 2.35 163.4 2.3 C 164.3 2.3 164.9 2.6 165.3 3 C 165.7 3.5 166 4.1 166 5 C 166 5.2 165.9 5.4 165.9 5.7 C 165.9 5.9 165.8 6.2 165.7 6.4 C 165.6 6.6 165.5 6.9 165.4 7.1 C 165.3 7.3 165.1 7.5 164.9 7.7 C 164.7 7.9 164.6 8 164.4 8.2 C 164.2 8.3 164 8.4 163.8 8.5 C 163.6 8.6 163.3 8.7 163 8.7 C 162.7 8.8 162.4 8.8 162 8.8 C 161.99 8.77 159.7 8.8 159.7 8.8 L 161.1 2.3 Z M 169.9 6 C 169.9 6 169.9 6 169.9 6 C 169.9 5.9 169.9 5.9 169.9 5.9 C 169.9 5.9 169.9 5.8 169.9 5.8 C 169.9 5.5 169.8 5.2 169.7 5.1 C 169.5 4.9 169.3 4.8 169 4.8 C 168.6 4.8 168.3 4.9 168 5.2 C 167.8 5.4 167.6 5.7 167.5 6 C 167.5 6 169.9 6 169.9 6 Z M 170.7 7.3 C 170.5 7.9 170.2 8.3 169.9 8.5 C 169.5 8.8 169 8.9 168.4 8.9 C 168.1 8.9 167.9 8.9 167.6 8.8 C 167.4 8.7 167.2 8.5 167 8.4 C 166.8 8.2 166.7 8 166.6 7.7 C 166.5 7.5 166.4 7.2 166.4 6.9 C 166.4 6.5 166.5 6.2 166.6 5.8 C 166.7 5.5 166.9 5.2 167.1 4.9 C 167.3 4.6 167.6 4.4 167.9 4.2 C 168.2 4.1 168.6 4 169 4 C 169.4 4 169.7 4.1 170 4.2 C 170.2 4.3 170.4 4.5 170.6 4.7 C 170.7 4.9 170.8 5.2 170.9 5.4 C 170.9 5.7 171 5.9 171 6.1 C 171 6.3 171 6.4 170.9 6.5 C 170.9 6.5 170.9 6.6 170.9 6.7 C 170.9 6.7 167.4 6.7 167.4 6.7 C 167.4 6.7 167.4 6.8 167.4 6.8 C 167.4 6.8 167.4 6.8 167.4 6.9 C 167.4 6.9 167.4 7 167.4 7 C 167.4 7.3 167.5 7.6 167.7 7.8 C 167.9 8 168.1 8.1 168.5 8.1 C 168.8 8.1 169 8 169.2 7.9 C 169.4 7.8 169.6 7.6 169.6 7.3 C 169.6 7.3 170.7 7.3 170.7 7.3 Z M 179.1 4.5 C 179.1 4 179 3.7 178.8 3.5 C 178.5 3.2 178.2 3.1 177.7 3.1 C 177.3 3.1 177 3.2 176.7 3.4 C 176.4 3.5 176.2 3.8 176 4.1 C 175.8 4.3 175.6 4.7 175.5 5 C 175.4 5.4 175.4 5.7 175.4 6.1 C 175.4 6.7 175.6 7.2 175.9 7.5 C 176.2 7.8 176.6 8 177.2 8 C 177.5 8 177.7 8 177.9 7.8 C 178.1 7.7 178.3 7.6 178.4 7.4 C 178.5 7.3 178.6 7.1 178.7 6.9 C 178.7 6.8 178.8 6.6 178.8 6.5 C 178.8 6.5 180 6.5 180 6.5 C 179.9 6.9 179.7 7.3 179.5 7.6 C 179.4 7.9 179.2 8.1 178.9 8.3 C 178.7 8.5 178.4 8.7 178.1 8.8 C 177.8 8.9 177.5 8.9 177.1 8.9 C 176.7 8.9 176.3 8.9 175.9 8.7 C 175.5 8.6 175.3 8.4 175 8.1 C 174.8 7.9 174.6 7.6 174.5 7.2 C 174.3 6.9 174.3 6.5 174.3 6.1 C 174.3 5.4 174.4 4.9 174.6 4.4 C 174.8 3.9 175 3.5 175.4 3.1 C 175.7 2.8 176.1 2.6 176.5 2.4 C 176.9 2.3 177.3 2.2 177.7 2.2 C 178.1 2.2 178.4 2.2 178.8 2.3 C 179.1 2.5 179.4 2.6 179.6 2.8 C 179.8 3 180 3.2 180.1 3.5 C 180.2 3.8 180.3 4.1 180.3 4.5 C 180.3 4.5 179.1 4.5 179.1 4.5 Z M 181.5 7.5 C 181.5 7.6 181.6 7.7 181.6 7.8 C 181.7 7.9 181.7 7.9 181.8 8 C 181.9 8 182 8 182.1 8.1 C 182.2 8.1 182.3 8.1 182.3 8.1 C 182.6 8.1 182.8 8 183 8 C 183.2 7.9 183.3 7.8 183.4 7.6 C 183.5 7.5 183.6 7.3 183.7 7.1 C 183.7 6.9 183.8 6.7 183.8 6.5 C 183.8 6.5 183.8 6.5 183.8 6.5 C 183.7 6.5 183.6 6.6 183.5 6.6 C 183.4 6.7 183.3 6.7 183.2 6.7 C 183 6.7 182.8 6.7 182.7 6.7 C 182.5 6.7 182.3 6.8 182.1 6.8 C 182 6.9 181.8 6.9 181.7 7.1 C 181.6 7.2 181.5 7.3 181.5 7.5 Z M 184.6 7.4 C 184.6 7.5 184.6 7.6 184.6 7.7 C 184.5 7.7 184.5 7.8 184.5 7.9 C 184.5 8 184.5 8 184.6 8 C 184.6 8.1 184.7 8.1 184.7 8.1 C 184.8 8.1 184.9 8.1 184.9 8.1 C 185 8.1 185 8 185.1 8 C 185.1 8 184.9 8.8 184.9 8.8 C 184.8 8.8 184.7 8.8 184.5 8.9 C 184.4 8.9 184.3 8.9 184.1 8.9 C 184 8.9 183.8 8.8 183.7 8.7 C 183.6 8.6 183.5 8.5 183.5 8.3 C 183.3 8.5 183.1 8.7 182.8 8.8 C 182.5 8.9 182.2 8.9 182 8.9 C 181.8 8.9 181.6 8.9 181.4 8.8 C 181.2 8.8 181.1 8.7 180.9 8.6 C 180.8 8.5 180.7 8.4 180.6 8.2 C 180.5 8 180.5 7.9 180.5 7.7 C 180.5 7.4 180.6 7.1 180.7 6.9 C 180.8 6.7 180.9 6.6 181.1 6.5 C 181.3 6.3 181.5 6.2 181.7 6.2 C 182 6.1 182.2 6.1 182.5 6.1 C 182.8 6 183.1 6 183.5 6 C 183.7 6 183.8 5.9 183.9 5.8 C 184 5.7 184 5.5 184 5.4 C 184 5.1 183.9 5 183.8 4.9 C 183.6 4.8 183.4 4.8 183.2 4.8 C 183 4.8 182.7 4.9 182.5 5 C 182.3 5.1 182.1 5.2 182.1 5.5 C 182.1 5.5 181.1 5.5 181.1 5.5 C 181.2 5.2 181.3 5 181.4 4.8 C 181.5 4.6 181.7 4.5 181.9 4.3 C 182.1 4.2 182.3 4.1 182.5 4.1 C 182.8 4 183 4 183.3 4 C 183.7 4 184 4 184.3 4.1 C 184.5 4.2 184.7 4.3 184.8 4.4 C 184.9 4.5 185 4.6 185 4.8 C 185 4.9 185 5 185 5.1 C 185 5.3 185 5.5 185 5.8 C 185 5.8 184.6 7.4 184.6 7.4 Z M 188.9 5.5 C 188.9 5.2 188.8 5.1 188.6 5 C 188.4 4.9 188.2 4.8 187.9 4.8 C 187.8 4.8 187.7 4.8 187.6 4.8 C 187.5 4.9 187.5 4.9 187.4 4.9 C 187.3 5 187.2 5 187.2 5.1 C 187.2 5.2 187.1 5.3 187.1 5.4 C 187.1 5.5 187.2 5.6 187.3 5.7 C 187.3 5.7 187.4 5.8 187.6 5.8 C 187.7 5.9 187.9 5.9 188 6 C 188.2 6 188.3 6.1 188.5 6.1 C 188.6 6.2 188.8 6.2 188.9 6.3 C 189 6.4 189.2 6.5 189.3 6.6 C 189.4 6.6 189.4 6.8 189.5 6.9 C 189.6 7 189.6 7.2 189.6 7.4 C 189.6 7.6 189.5 7.9 189.4 8.1 C 189.3 8.3 189.1 8.4 188.9 8.5 C 188.7 8.7 188.5 8.8 188.3 8.8 C 188 8.9 187.8 8.9 187.5 8.9 C 187.3 8.9 187 8.9 186.8 8.8 C 186.5 8.8 186.3 8.7 186.2 8.6 C 186 8.4 185.8 8.3 185.7 8.1 C 185.6 7.9 185.6 7.6 185.6 7.3 C 185.6 7.3 186.6 7.3 186.6 7.3 C 186.5 7.6 186.6 7.8 186.8 7.9 C 187 8 187.3 8.1 187.6 8.1 C 187.7 8.1 187.8 8.1 187.9 8.1 C 188 8 188.1 8 188.2 8 C 188.3 7.9 188.4 7.8 188.5 7.8 C 188.5 7.7 188.6 7.6 188.6 7.4 C 188.6 7.3 188.5 7.2 188.4 7.1 C 188.3 7.1 188.2 7 188.1 6.9 C 188 6.9 187.8 6.8 187.6 6.8 C 187.5 6.7 187.3 6.7 187.1 6.6 C 187 6.6 186.9 6.5 186.7 6.4 C 186.6 6.4 186.5 6.3 186.4 6.2 C 186.3 6.1 186.2 6 186.2 5.9 C 186.1 5.7 186.1 5.6 186.1 5.4 C 186.1 5.2 186.2 4.9 186.3 4.8 C 186.4 4.6 186.5 4.4 186.7 4.3 C 186.9 4.2 187.1 4.1 187.3 4.1 C 187.6 4 187.8 4 188 4 C 188.3 4 188.5 4 188.7 4.1 C 189 4.1 189.2 4.2 189.3 4.3 C 189.5 4.4 189.6 4.6 189.7 4.8 C 189.8 5 189.8 5.2 189.8 5.5 C 189.8 5.5 188.9 5.5 188.9 5.5 Z M 191.7 2.7 L 192.7 2.7 L 192.4 4.1 L 193.3 4.1 L 193.2 4.9 L 192.2 4.9 C 192.2 4.9 191.77 7.16 191.8 7.2 C 191.7 7.3 191.7 7.4 191.7 7.5 C 191.7 7.5 191.7 7.6 191.7 7.7 C 191.7 7.8 191.7 7.9 191.7 7.9 C 191.8 8 191.9 8 192 8 C 192.1 8 192.2 8 192.3 8 C 192.4 8 192.5 8 192.6 8 C 192.6 8 192.4 8.7 192.4 8.7 C 192.3 8.8 192.2 8.8 192 8.8 C 191.9 8.8 191.7 8.8 191.6 8.8 C 191.4 8.8 191.2 8.8 191.1 8.7 C 191 8.7 190.9 8.6 190.8 8.6 C 190.8 8.5 190.7 8.4 190.7 8.3 C 190.7 8.2 190.7 8.1 190.7 8 C 190.7 7.9 190.7 7.8 190.7 7.7 C 190.7 7.6 190.7 7.5 190.7 7.4 C 190.72 7.43 191.2 4.9 191.2 4.9 L 190.4 4.9 L 190.6 4.1 L 191.4 4.1 L 191.7 2.7 Z M 194.2 4.1 L 195.2 4.1 L 195 5 C 195 5 195.01 5.05 195 5 C 195.1 4.9 195.2 4.8 195.3 4.7 C 195.4 4.5 195.5 4.4 195.6 4.3 C 195.7 4.2 195.9 4.2 196 4.1 C 196.2 4 196.3 4 196.5 4 C 196.6 4 196.7 4 196.7 4 C 196.8 4 196.9 4 197 4 C 197 4 196.8 5 196.8 5 C 196.7 5 196.7 5 196.6 5 C 196.5 5 196.5 5 196.4 5 C 196.2 5 195.9 5 195.7 5.1 C 195.5 5.2 195.4 5.3 195.2 5.5 C 195.1 5.7 195 5.8 194.9 6 C 194.8 6.3 194.8 6.5 194.7 6.7 C 194.7 6.71 194.3 8.8 194.3 8.8 L 193.2 8.8 L 194.2 4.1 Z M 199.5 4.8 C 199.2 4.8 199 4.9 198.8 5 C 198.6 5.1 198.4 5.3 198.3 5.5 C 198.2 5.7 198.1 5.9 198 6.2 C 197.9 6.4 197.9 6.7 197.9 6.9 C 197.9 7.2 198 7.5 198.2 7.7 C 198.3 8 198.6 8.1 199 8.1 C 199.2 8.1 199.5 8 199.7 7.9 C 199.9 7.8 200 7.6 200.2 7.4 C 200.3 7.2 200.4 7 200.5 6.7 C 200.5 6.5 200.5 6.2 200.5 6 C 200.5 5.7 200.5 5.4 200.3 5.1 C 200.1 4.9 199.8 4.8 199.5 4.8 Z M 198.9 8.9 C 198.3 8.9 197.8 8.7 197.4 8.4 C 197.1 8 196.9 7.5 196.9 6.9 C 196.9 6.5 196.9 6.1 197.1 5.8 C 197.2 5.4 197.4 5.1 197.6 4.9 C 197.8 4.6 198.1 4.4 198.4 4.2 C 198.8 4.1 199.1 4 199.5 4 C 200.2 4 200.7 4.2 201 4.5 C 201.4 4.8 201.6 5.3 201.6 6 C 201.6 6.4 201.5 6.8 201.4 7.1 C 201.3 7.5 201.1 7.8 200.9 8.1 C 200.6 8.3 200.4 8.5 200 8.7 C 199.7 8.8 199.3 8.9 198.9 8.9 Z " stroke="none" fill="#fff"/>
  </g>
</svg>