<?xml version="1.0" standalone="no"?>
<!DOCTYPE svg PUBLIC "-//W3C//DTD SVG 1.1//EN" "http://www.w3.org/Graphics/SVG/1.1/DTD/svg11.dtd">
<svg xmlns="http://www.w3.org/2000/svg" version="1.1" width="458px" height="38.8px" viewBox="0 -3 458 38.8" style="top:-3px">
  <desc>TINITINGNAN na ang posibilidad ng muling pagbubukas ng Pamantasang De La Salle upang maisagawa ang mga klaseng pangla</desc>
  <defs/>
  <g id="Polygon25157">
    <path d="M 0.9 24.9 L 5.4 24.9 L 5.4 25.5 L 1.6 25.5 L 1.6 27.7 L 5 27.7 L 5 28.3 L 1.6 28.3 L 1.6 30.6 L 5.5 30.6 L 5.5 31.2 L 0.9 31.2 L 0.9 24.9 Z M 7 26.5 L 7.7 26.5 C 7.7 26.5 7.68 27.36 7.7 27.4 C 8 26.9 8.5 26.4 9.3 26.4 C 10.4 26.4 11.1 27.2 11.1 28.3 C 11.05 28.31 11.1 31.2 11.1 31.2 L 10.4 31.2 C 10.4 31.2 10.36 28.48 10.4 28.5 C 10.4 27.6 9.9 27.1 9.1 27.1 C 8.3 27.1 7.7 27.7 7.7 28.5 C 7.68 28.54 7.7 31.2 7.7 31.2 L 7 31.2 L 7 26.5 Z M 12.7 32 C 12.7 32 13 31.5 13 31.5 C 13.5 31.9 14.1 32.1 14.8 32.1 C 15.8 32.1 16.5 31.5 16.5 30.4 C 16.5 30.4 16.5 29.9 16.5 29.9 C 16 30.4 15.5 30.8 14.6 30.8 C 13.5 30.8 12.4 30 12.4 28.7 C 12.4 28.7 12.4 28.6 12.4 28.6 C 12.4 27.3 13.5 26.4 14.6 26.4 C 15.5 26.4 16.1 26.9 16.4 27.4 C 16.44 27.38 16.4 26.5 16.4 26.5 L 17.1 26.5 C 17.1 26.5 17.14 30.39 17.1 30.4 C 17.1 31.1 16.9 31.7 16.5 32 C 16.1 32.5 15.5 32.7 14.8 32.7 C 14 32.7 13.3 32.4 12.7 32 Z M 16.5 28.7 C 16.5 28.7 16.5 28.6 16.5 28.6 C 16.5 27.7 15.6 27.1 14.8 27.1 C 13.9 27.1 13.1 27.7 13.1 28.6 C 13.1 28.6 13.1 28.6 13.1 28.6 C 13.1 29.6 13.9 30.2 14.8 30.2 C 15.6 30.2 16.5 29.6 16.5 28.7 Z M 18.9 24.8 L 19.7 24.8 L 19.7 25.5 L 18.9 25.5 L 18.9 24.8 Z M 18.9 26.5 L 19.6 26.5 L 19.6 31.2 L 18.9 31.2 L 18.9 26.5 Z M 21.4 26.5 L 22.1 26.5 C 22.1 26.5 22.1 27.36 22.1 27.4 C 22.4 26.9 22.9 26.4 23.7 26.4 C 24.8 26.4 25.5 27.2 25.5 28.3 C 25.48 28.31 25.5 31.2 25.5 31.2 L 24.8 31.2 C 24.8 31.2 24.79 28.48 24.8 28.5 C 24.8 27.6 24.3 27.1 23.5 27.1 C 22.7 27.1 22.1 27.7 22.1 28.5 C 22.1 28.54 22.1 31.2 22.1 31.2 L 21.4 31.2 L 21.4 26.5 Z M 26.8 28.9 C 26.8 28.9 26.8 28.9 26.8 28.9 C 26.8 27.5 27.8 26.4 29.1 26.4 C 30.5 26.4 31.2 27.5 31.2 28.9 C 31.2 29 31.2 29 31.2 29.1 C 31.2 29.1 27.5 29.1 27.5 29.1 C 27.6 30.1 28.4 30.7 29.2 30.7 C 29.8 30.7 30.3 30.4 30.7 30 C 30.7 30 31.1 30.4 31.1 30.4 C 30.6 31 30.1 31.3 29.2 31.3 C 27.9 31.3 26.8 30.3 26.8 28.9 Z M 30.5 28.6 C 30.5 27.8 30 27 29.1 27 C 28.3 27 27.6 27.7 27.5 28.6 C 27.5 28.6 30.5 28.6 30.5 28.6 Z M 32.4 28.9 C 32.4 28.9 32.4 28.9 32.4 28.9 C 32.4 27.5 33.3 26.4 34.6 26.4 C 36 26.4 36.8 27.5 36.8 28.9 C 36.8 29 36.8 29 36.7 29.1 C 36.7 29.1 33.1 29.1 33.1 29.1 C 33.2 30.1 33.9 30.7 34.7 30.7 C 35.3 30.7 35.8 30.4 36.2 30 C 36.2 30 36.6 30.4 36.6 30.4 C 36.1 31 35.6 31.3 34.7 31.3 C 33.4 31.3 32.4 30.3 32.4 28.9 Z M 36.1 28.6 C 36 27.8 35.5 27 34.6 27 C 33.8 27 33.1 27.7 33.1 28.6 C 33.1 28.6 36.1 28.6 36.1 28.6 Z M 38.2 26.5 L 38.8 26.5 C 38.8 26.5 38.84 27.76 38.8 27.8 C 39.2 27 39.9 26.4 40.7 26.5 C 40.74 26.47 40.7 27.2 40.7 27.2 C 40.7 27.2 40.69 27.21 40.7 27.2 C 39.7 27.2 38.8 27.9 38.8 29.3 C 38.84 29.35 38.8 31.2 38.8 31.2 L 38.2 31.2 L 38.2 26.5 Z M 42 24.8 L 42.8 24.8 L 42.8 25.5 L 42 25.5 L 42 24.8 Z M 42 26.5 L 42.7 26.5 L 42.7 31.2 L 42 31.2 L 42 26.5 Z M 44.5 26.5 L 45.2 26.5 C 45.2 26.5 45.21 27.36 45.2 27.4 C 45.5 26.9 46 26.4 46.8 26.4 C 47.9 26.4 48.6 27.2 48.6 28.3 C 48.59 28.31 48.6 31.2 48.6 31.2 L 47.9 31.2 C 47.9 31.2 47.9 28.48 47.9 28.5 C 47.9 27.6 47.4 27.1 46.6 27.1 C 45.8 27.1 45.2 27.7 45.2 28.5 C 45.21 28.54 45.2 31.2 45.2 31.2 L 44.5 31.2 L 44.5 26.5 Z M 50.2 32 C 50.2 32 50.5 31.5 50.5 31.5 C 51 31.9 51.6 32.1 52.3 32.1 C 53.3 32.1 54 31.5 54 30.4 C 54 30.4 54 29.9 54 29.9 C 53.6 30.4 53 30.8 52.2 30.8 C 51 30.8 50 30 50 28.7 C 50 28.7 50 28.6 50 28.6 C 50 27.3 51.1 26.4 52.2 26.4 C 53 26.4 53.6 26.9 54 27.4 C 53.98 27.38 54 26.5 54 26.5 L 54.7 26.5 C 54.7 26.5 54.67 30.39 54.7 30.4 C 54.7 31.1 54.5 31.7 54.1 32 C 53.7 32.5 53 32.7 52.3 32.7 C 51.5 32.7 50.8 32.4 50.2 32 Z M 54 28.7 C 54 28.7 54 28.6 54 28.6 C 54 27.7 53.2 27.1 52.3 27.1 C 51.4 27.1 50.7 27.7 50.7 28.6 C 50.7 28.6 50.7 28.6 50.7 28.6 C 50.7 29.6 51.4 30.2 52.3 30.2 C 53.2 30.2 54 29.6 54 28.7 Z M 56 32 C 56.5 31.8 56.7 31.6 56.6 31.2 C 56.65 31.2 56.3 31.2 56.3 31.2 L 56.3 30.3 L 57.1 30.3 C 57.1 30.3 57.15 31.06 57.1 31.1 C 57.1 31.8 56.8 32.1 56.2 32.3 C 56.2 32.3 56 32 56 32 Z M 61.5 28.1 C 61.5 28.1 61.5 28 61.5 28 C 61.5 26.3 62.8 24.8 64.7 24.8 C 65.8 24.8 66.5 25.2 67.1 25.8 C 67.1 25.8 66.7 26.3 66.7 26.3 C 66.1 25.8 65.5 25.4 64.7 25.4 C 63.3 25.4 62.2 26.6 62.2 28 C 62.2 28 62.2 28 62.2 28 C 62.2 29.5 63.3 30.7 64.7 30.7 C 65.5 30.7 66.1 30.3 66.7 29.7 C 66.7 29.7 67.2 30.2 67.2 30.2 C 66.5 30.9 65.8 31.3 64.7 31.3 C 62.8 31.3 61.5 29.9 61.5 28.1 Z M 68.1 28.9 C 68.1 28.9 68.1 28.9 68.1 28.9 C 68.1 27.6 69.1 26.4 70.5 26.4 C 71.9 26.4 73 27.5 73 28.9 C 73 28.9 73 28.9 73 28.9 C 73 30.2 71.9 31.3 70.5 31.3 C 69.1 31.3 68.1 30.2 68.1 28.9 Z M 72.3 28.9 C 72.3 28.9 72.3 28.9 72.3 28.9 C 72.3 27.9 71.5 27.1 70.5 27.1 C 69.5 27.1 68.8 27.9 68.8 28.9 C 68.8 28.9 68.8 28.9 68.8 28.9 C 68.8 29.9 69.6 30.7 70.5 30.7 C 71.5 30.7 72.3 29.9 72.3 28.9 Z M 74.5 24.6 L 75.1 24.6 L 75.1 31.2 L 74.5 31.2 L 74.5 24.6 Z M 77 24.6 L 77.7 24.6 L 77.7 31.2 L 77 31.2 L 77 24.6 Z M 79.2 28.9 C 79.2 28.9 79.2 28.9 79.2 28.9 C 79.2 27.5 80.1 26.4 81.4 26.4 C 82.8 26.4 83.6 27.5 83.6 28.9 C 83.6 29 83.6 29 83.6 29.1 C 83.6 29.1 79.9 29.1 79.9 29.1 C 80 30.1 80.7 30.7 81.5 30.7 C 82.2 30.7 82.6 30.4 83 30 C 83 30 83.4 30.4 83.4 30.4 C 83 31 82.4 31.3 81.5 31.3 C 80.2 31.3 79.2 30.3 79.2 28.9 Z M 82.9 28.6 C 82.8 27.8 82.3 27 81.4 27 C 80.6 27 80 27.7 79.9 28.6 C 79.9 28.6 82.9 28.6 82.9 28.6 Z M 84.9 32 C 84.9 32 85.3 31.5 85.3 31.5 C 85.8 31.9 86.4 32.1 87 32.1 C 88.1 32.1 88.7 31.5 88.7 30.4 C 88.7 30.4 88.7 29.9 88.7 29.9 C 88.3 30.4 87.8 30.8 86.9 30.8 C 85.8 30.8 84.7 30 84.7 28.7 C 84.7 28.7 84.7 28.6 84.7 28.6 C 84.7 27.3 85.8 26.4 86.9 26.4 C 87.8 26.4 88.4 26.9 88.7 27.4 C 88.73 27.38 88.7 26.5 88.7 26.5 L 89.4 26.5 C 89.4 26.5 89.42 30.39 89.4 30.4 C 89.4 31.1 89.2 31.7 88.8 32 C 88.4 32.5 87.8 32.7 87.1 32.7 C 86.3 32.7 85.6 32.4 84.9 32 Z M 88.8 28.7 C 88.8 28.7 88.8 28.6 88.8 28.6 C 88.8 27.7 87.9 27.1 87 27.1 C 86.2 27.1 85.4 27.7 85.4 28.6 C 85.4 28.6 85.4 28.6 85.4 28.6 C 85.4 29.6 86.2 30.2 87 30.2 C 87.9 30.2 88.8 29.6 88.8 28.7 Z M 90.9 28.9 C 90.9 28.9 90.9 28.9 90.9 28.9 C 90.9 27.5 91.8 26.4 93.1 26.4 C 94.5 26.4 95.3 27.5 95.3 28.9 C 95.3 29 95.3 29 95.3 29.1 C 95.3 29.1 91.6 29.1 91.6 29.1 C 91.7 30.1 92.4 30.7 93.2 30.7 C 93.8 30.7 94.3 30.4 94.7 30 C 94.7 30 95.1 30.4 95.1 30.4 C 94.6 31 94.1 31.3 93.2 31.3 C 91.9 31.3 90.9 30.3 90.9 28.9 Z M 94.6 28.6 C 94.5 27.8 94 27 93.1 27 C 92.3 27 91.7 27.7 91.6 28.6 C 91.6 28.6 94.6 28.6 94.6 28.6 Z M 99.3 28.9 C 99.3 28.9 99.3 28.9 99.3 28.9 C 99.3 27.6 100.3 26.4 101.7 26.4 C 103.1 26.4 104.1 27.5 104.1 28.9 C 104.1 28.9 104.1 28.9 104.1 28.9 C 104.1 30.2 103.1 31.3 101.7 31.3 C 100.3 31.3 99.3 30.2 99.3 28.9 Z M 103.4 28.9 C 103.4 28.9 103.4 28.9 103.4 28.9 C 103.4 27.9 102.6 27.1 101.7 27.1 C 100.7 27.1 100 27.9 100 28.9 C 100 28.9 100 28.9 100 28.9 C 100 29.9 100.7 30.7 101.7 30.7 C 102.7 30.7 103.4 29.9 103.4 28.9 Z M 105.8 27.1 L 105.2 27.1 L 105.2 26.5 L 105.8 26.5 C 105.8 26.5 105.79 26.14 105.8 26.1 C 105.8 25.6 105.9 25.2 106.2 25 C 106.4 24.7 106.8 24.6 107.2 24.6 C 107.5 24.6 107.7 24.6 108 24.7 C 108 24.7 108 25.3 108 25.3 C 107.7 25.2 107.5 25.2 107.3 25.2 C 106.7 25.2 106.5 25.5 106.5 26.2 C 106.48 26.19 106.5 26.6 106.5 26.6 L 108 26.6 L 108 27.1 L 106.5 27.1 L 106.5 31.2 L 105.8 31.2 L 105.8 27.1 Z M 111.6 30.3 C 111.6 30.3 112 29.8 112 29.8 C 112.7 30.4 113.3 30.7 114.2 30.7 C 115 30.7 115.6 30.2 115.6 29.6 C 115.6 29.6 115.6 29.6 115.6 29.6 C 115.6 29 115.3 28.6 114 28.4 C 112.5 28 111.9 27.6 111.9 26.5 C 111.9 26.5 111.9 26.5 111.9 26.5 C 111.9 25.5 112.7 24.8 113.9 24.8 C 114.8 24.8 115.5 25.1 116.1 25.6 C 116.1 25.6 115.7 26.1 115.7 26.1 C 115.1 25.7 114.6 25.4 113.9 25.4 C 113.1 25.4 112.6 25.9 112.6 26.5 C 112.6 26.5 112.6 26.5 112.6 26.5 C 112.6 27.1 112.9 27.4 114.3 27.7 C 115.7 28 116.3 28.5 116.3 29.5 C 116.3 29.5 116.3 29.5 116.3 29.5 C 116.3 30.6 115.4 31.3 114.2 31.3 C 113.2 31.3 112.4 31 111.6 30.3 Z M 117.5 28.9 C 117.5 28.9 117.5 28.9 117.5 28.9 C 117.5 27.6 118.6 26.4 119.9 26.4 C 120.8 26.4 121.4 26.8 121.8 27.3 C 121.8 27.3 121.3 27.8 121.3 27.8 C 121 27.4 120.6 27.1 119.9 27.1 C 119 27.1 118.3 27.9 118.3 28.9 C 118.3 28.9 118.3 28.9 118.3 28.9 C 118.3 29.9 119 30.7 120 30.7 C 120.6 30.7 121 30.4 121.4 30 C 121.4 30 121.8 30.4 121.8 30.4 C 121.4 30.9 120.8 31.3 119.9 31.3 C 118.6 31.3 117.5 30.2 117.5 28.9 Z M 123.2 24.8 L 124 24.8 L 124 25.5 L 123.2 25.5 L 123.2 24.8 Z M 123.2 26.5 L 123.9 26.5 L 123.9 31.2 L 123.2 31.2 L 123.2 26.5 Z M 125.4 28.9 C 125.4 28.9 125.4 28.9 125.4 28.9 C 125.4 27.5 126.4 26.4 127.6 26.4 C 129 26.4 129.8 27.5 129.8 28.9 C 129.8 29 129.8 29 129.8 29.1 C 129.8 29.1 126.1 29.1 126.1 29.1 C 126.2 30.1 126.9 30.7 127.8 30.7 C 128.4 30.7 128.8 30.4 129.2 30 C 129.2 30 129.7 30.4 129.7 30.4 C 129.2 31 128.6 31.3 127.7 31.3 C 126.5 31.3 125.4 30.3 125.4 28.9 Z M 129.1 28.6 C 129 27.8 128.6 27 127.6 27 C 126.8 27 126.2 27.7 126.1 28.6 C 126.1 28.6 129.1 28.6 129.1 28.6 Z M 131.2 26.5 L 131.9 26.5 C 131.9 26.5 131.9 27.36 131.9 27.4 C 132.2 26.9 132.7 26.4 133.5 26.4 C 134.6 26.4 135.3 27.2 135.3 28.3 C 135.28 28.31 135.3 31.2 135.3 31.2 L 134.6 31.2 C 134.6 31.2 134.58 28.48 134.6 28.5 C 134.6 27.6 134.1 27.1 133.3 27.1 C 132.5 27.1 131.9 27.7 131.9 28.5 C 131.9 28.54 131.9 31.2 131.9 31.2 L 131.2 31.2 L 131.2 26.5 Z M 136.6 28.9 C 136.6 28.9 136.6 28.9 136.6 28.9 C 136.6 27.6 137.7 26.4 139 26.4 C 139.9 26.4 140.5 26.8 140.9 27.3 C 140.9 27.3 140.4 27.8 140.4 27.8 C 140.1 27.4 139.7 27.1 139 27.1 C 138.1 27.1 137.4 27.9 137.4 28.9 C 137.4 28.9 137.4 28.9 137.4 28.9 C 137.4 29.9 138.1 30.7 139.1 30.7 C 139.7 30.7 140.1 30.4 140.5 30 C 140.5 30 140.9 30.4 140.9 30.4 C 140.5 30.9 139.9 31.3 139 31.3 C 137.7 31.3 136.6 30.2 136.6 28.9 Z M 141.8 28.9 C 141.8 28.9 141.8 28.9 141.8 28.9 C 141.8 27.5 142.8 26.4 144.1 26.4 C 145.4 26.4 146.2 27.5 146.2 28.9 C 146.2 29 146.2 29 146.2 29.1 C 146.2 29.1 142.5 29.1 142.5 29.1 C 142.6 30.1 143.3 30.7 144.2 30.7 C 144.8 30.7 145.3 30.4 145.6 30 C 145.6 30 146.1 30.4 146.1 30.4 C 145.6 31 145 31.3 144.2 31.3 C 142.9 31.3 141.8 30.3 141.8 28.9 Z M 145.5 28.6 C 145.5 27.8 145 27 144 27 C 143.2 27 142.6 27.7 142.5 28.6 C 142.5 28.6 145.5 28.6 145.5 28.6 Z M 147.2 32 C 147.6 31.8 147.8 31.6 147.8 31.2 C 147.78 31.2 147.5 31.2 147.5 31.2 L 147.5 30.3 L 148.3 30.3 C 148.3 30.3 148.28 31.06 148.3 31.1 C 148.3 31.8 148 32.1 147.3 32.3 C 147.3 32.3 147.2 32 147.2 32 Z M 152.4 29.8 C 152.4 29.8 152.4 29.8 152.4 29.8 C 152.4 28.9 153.3 28.3 154.4 28.3 C 155 28.3 155.5 28.4 155.9 28.5 C 155.9 28.5 155.9 28.4 155.9 28.4 C 155.9 27.5 155.4 27.1 154.5 27.1 C 153.9 27.1 153.5 27.2 153.1 27.4 C 153.1 27.4 152.9 26.9 152.9 26.9 C 153.4 26.6 153.9 26.5 154.6 26.5 C 155.2 26.5 155.7 26.7 156.1 27 C 156.4 27.3 156.5 27.8 156.5 28.4 C 156.53 28.36 156.5 31.2 156.5 31.2 L 155.9 31.2 C 155.9 31.2 155.87 30.5 155.9 30.5 C 155.5 30.9 155 31.3 154.2 31.3 C 153.3 31.3 152.4 30.8 152.4 29.8 Z M 155.9 29.5 C 155.9 29.5 155.9 29 155.9 29 C 155.5 28.9 155.1 28.8 154.5 28.8 C 153.6 28.8 153.2 29.2 153.2 29.8 C 153.2 29.8 153.2 29.8 153.2 29.8 C 153.2 30.4 153.7 30.8 154.3 30.8 C 155.2 30.8 155.9 30.2 155.9 29.5 Z M 158.4 30 C 158.39 29.97 158.4 27.2 158.4 27.2 L 157.7 27.2 L 157.7 26.5 L 158.4 26.5 L 158.4 25.1 L 159.1 25.1 L 159.1 26.5 L 160.6 26.5 L 160.6 27.2 L 159.1 27.2 C 159.1 27.2 159.08 29.88 159.1 29.9 C 159.1 30.4 159.4 30.7 159.9 30.7 C 160.1 30.7 160.3 30.6 160.5 30.5 C 160.5 30.5 160.5 31.1 160.5 31.1 C 160.3 31.2 160 31.3 159.7 31.3 C 159 31.3 158.4 30.9 158.4 30 Z M 164.7 28.1 C 164.7 28.1 164.7 28 164.7 28 C 164.7 26.3 166 24.8 167.9 24.8 C 169 24.8 169.7 25.2 170.3 25.8 C 170.3 25.8 169.8 26.3 169.8 26.3 C 169.3 25.8 168.7 25.4 167.9 25.4 C 166.5 25.4 165.4 26.6 165.4 28 C 165.4 28 165.4 28 165.4 28 C 165.4 29.5 166.5 30.7 167.9 30.7 C 168.7 30.7 169.3 30.3 169.9 29.7 C 169.9 29.7 170.4 30.2 170.4 30.2 C 169.7 30.9 169 31.3 167.8 31.3 C 166 31.3 164.7 29.9 164.7 28.1 Z M 171.3 28.9 C 171.3 28.9 171.3 28.9 171.3 28.9 C 171.3 27.6 172.3 26.4 173.7 26.4 C 175.1 26.4 176.1 27.5 176.1 28.9 C 176.1 28.9 176.1 28.9 176.1 28.9 C 176.1 30.2 175.1 31.3 173.7 31.3 C 172.3 31.3 171.3 30.2 171.3 28.9 Z M 175.4 28.9 C 175.4 28.9 175.4 28.9 175.4 28.9 C 175.4 27.9 174.7 27.1 173.7 27.1 C 172.7 27.1 172 27.9 172 28.9 C 172 28.9 172 28.9 172 28.9 C 172 29.9 172.7 30.7 173.7 30.7 C 174.7 30.7 175.4 29.9 175.4 28.9 Z M 177.6 24.6 L 178.3 24.6 L 178.3 31.2 L 177.6 31.2 L 177.6 24.6 Z M 180.2 24.6 L 180.9 24.6 L 180.9 31.2 L 180.2 31.2 L 180.2 24.6 Z M 182.4 28.9 C 182.4 28.9 182.4 28.9 182.4 28.9 C 182.4 27.5 183.3 26.4 184.6 26.4 C 186 26.4 186.8 27.5 186.8 28.9 C 186.8 29 186.8 29 186.8 29.1 C 186.8 29.1 183.1 29.1 183.1 29.1 C 183.2 30.1 183.9 30.7 184.7 30.7 C 185.4 30.7 185.8 30.4 186.2 30 C 186.2 30 186.6 30.4 186.6 30.4 C 186.1 31 185.6 31.3 184.7 31.3 C 183.4 31.3 182.4 30.3 182.4 28.9 Z M 186.1 28.6 C 186 27.8 185.5 27 184.6 27 C 183.8 27 183.2 27.7 183.1 28.6 C 183.1 28.6 186.1 28.6 186.1 28.6 Z M 188.1 32 C 188.1 32 188.4 31.5 188.4 31.5 C 189 31.9 189.6 32.1 190.2 32.1 C 191.2 32.1 191.9 31.5 191.9 30.4 C 191.9 30.4 191.9 29.9 191.9 29.9 C 191.5 30.4 190.9 30.8 190.1 30.8 C 189 30.8 187.9 30 187.9 28.7 C 187.9 28.7 187.9 28.6 187.9 28.6 C 187.9 27.3 189 26.4 190.1 26.4 C 191 26.4 191.5 26.9 191.9 27.4 C 191.9 27.38 191.9 26.5 191.9 26.5 L 192.6 26.5 C 192.6 26.5 192.6 30.39 192.6 30.4 C 192.6 31.1 192.4 31.7 192 32 C 191.6 32.5 191 32.7 190.2 32.7 C 189.5 32.7 188.7 32.4 188.1 32 Z M 191.9 28.7 C 191.9 28.7 191.9 28.6 191.9 28.6 C 191.9 27.7 191.1 27.1 190.2 27.1 C 189.3 27.1 188.6 27.7 188.6 28.6 C 188.6 28.6 188.6 28.6 188.6 28.6 C 188.6 29.6 189.4 30.2 190.2 30.2 C 191.1 30.2 191.9 29.6 191.9 28.7 Z M 194 28.9 C 194 28.9 194 28.9 194 28.9 C 194 27.5 195 26.4 196.3 26.4 C 197.6 26.4 198.4 27.5 198.4 28.9 C 198.4 29 198.4 29 198.4 29.1 C 198.4 29.1 194.7 29.1 194.7 29.1 C 194.8 30.1 195.5 30.7 196.4 30.7 C 197 30.7 197.5 30.4 197.8 30 C 197.8 30 198.3 30.4 198.3 30.4 C 197.8 31 197.2 31.3 196.4 31.3 C 195.1 31.3 194 30.3 194 28.9 Z M 197.7 28.6 C 197.7 27.8 197.2 27 196.3 27 C 195.4 27 194.8 27.7 194.7 28.6 C 194.7 28.6 197.7 28.6 197.7 28.6 Z M 202.4 28.9 C 202.4 28.9 202.4 28.9 202.4 28.9 C 202.4 27.6 203.5 26.4 204.9 26.4 C 206.3 26.4 207.3 27.5 207.3 28.9 C 207.3 28.9 207.3 28.9 207.3 28.9 C 207.3 30.2 206.2 31.3 204.8 31.3 C 203.4 31.3 202.4 30.2 202.4 28.9 Z M 206.6 28.9 C 206.6 28.9 206.6 28.9 206.6 28.9 C 206.6 27.9 205.8 27.1 204.8 27.1 C 203.8 27.1 203.1 27.9 203.1 28.9 C 203.1 28.9 203.1 28.9 203.1 28.9 C 203.1 29.9 203.9 30.7 204.9 30.7 C 205.9 30.7 206.6 29.9 206.6 28.9 Z M 209 27.1 L 208.3 27.1 L 208.3 26.5 L 209 26.5 C 209 26.5 208.97 26.14 209 26.1 C 209 25.6 209.1 25.2 209.4 25 C 209.6 24.7 209.9 24.6 210.4 24.6 C 210.7 24.6 210.9 24.6 211.1 24.7 C 211.1 24.7 211.1 25.3 211.1 25.3 C 210.9 25.2 210.7 25.2 210.5 25.2 C 209.9 25.2 209.7 25.5 209.7 26.2 C 209.65 26.19 209.7 26.6 209.7 26.6 L 211.1 26.6 L 211.1 27.1 L 209.7 27.1 L 209.7 31.2 L 209 31.2 L 209 27.1 Z M 215.2 24.9 L 215.9 24.9 L 215.9 30.5 L 219.4 30.5 L 219.4 31.2 L 215.2 31.2 L 215.2 24.9 Z M 220.8 24.8 L 221.6 24.8 L 221.6 25.5 L 220.8 25.5 L 220.8 24.8 Z M 220.9 26.5 L 221.6 26.5 L 221.6 31.2 L 220.9 31.2 L 220.9 26.5 Z M 224.1 30.3 C 224.06 30.31 224.1 31.2 224.1 31.2 L 223.4 31.2 L 223.4 24.6 L 224.1 24.6 C 224.1 24.6 224.06 27.48 224.1 27.5 C 224.4 26.9 225 26.4 225.8 26.4 C 227 26.4 228.1 27.3 228.1 28.9 C 228.1 28.9 228.1 28.9 228.1 28.9 C 228.1 30.4 227 31.3 225.8 31.3 C 225 31.3 224.4 30.8 224.1 30.3 Z M 227.4 28.9 C 227.4 28.9 227.4 28.9 227.4 28.9 C 227.4 27.8 226.6 27.1 225.7 27.1 C 224.9 27.1 224 27.8 224 28.9 C 224 28.9 224 28.9 224 28.9 C 224 30 224.9 30.7 225.7 30.7 C 226.6 30.7 227.4 30 227.4 28.9 Z M 229.2 28.9 C 229.2 28.9 229.2 28.9 229.2 28.9 C 229.2 27.5 230.2 26.4 231.5 26.4 C 232.8 26.4 233.6 27.5 233.6 28.9 C 233.6 29 233.6 29 233.6 29.1 C 233.6 29.1 229.9 29.1 229.9 29.1 C 230 30.1 230.7 30.7 231.6 30.7 C 232.2 30.7 232.7 30.4 233 30 C 233 30 233.5 30.4 233.5 30.4 C 233 31 232.4 31.3 231.6 31.3 C 230.3 31.3 229.2 30.3 229.2 28.9 Z M 232.9 28.6 C 232.9 27.8 232.4 27 231.4 27 C 230.6 27 230 27.7 229.9 28.6 C 229.9 28.6 232.9 28.6 232.9 28.6 Z M 235 26.5 L 235.7 26.5 C 235.7 26.5 235.72 27.76 235.7 27.8 C 236.1 27 236.7 26.4 237.6 26.5 C 237.62 26.47 237.6 27.2 237.6 27.2 C 237.6 27.2 237.57 27.21 237.6 27.2 C 236.6 27.2 235.7 27.9 235.7 29.3 C 235.72 29.35 235.7 31.2 235.7 31.2 L 235 31.2 L 235 26.5 Z M 238.3 29.8 C 238.3 29.8 238.3 29.8 238.3 29.8 C 238.3 28.9 239.1 28.3 240.3 28.3 C 240.9 28.3 241.3 28.4 241.7 28.5 C 241.7 28.5 241.7 28.4 241.7 28.4 C 241.7 27.5 241.2 27.1 240.3 27.1 C 239.8 27.1 239.3 27.2 238.9 27.4 C 238.9 27.4 238.7 26.9 238.7 26.9 C 239.2 26.6 239.7 26.5 240.4 26.5 C 241 26.5 241.5 26.7 241.9 27 C 242.2 27.3 242.4 27.8 242.4 28.4 C 242.37 28.36 242.4 31.2 242.4 31.2 L 241.7 31.2 C 241.7 31.2 241.7 30.5 241.7 30.5 C 241.4 30.9 240.8 31.3 240 31.3 C 239.2 31.3 238.3 30.8 238.3 29.8 Z M 241.7 29.5 C 241.7 29.5 241.7 29 241.7 29 C 241.4 28.9 240.9 28.8 240.3 28.8 C 239.5 28.8 239 29.2 239 29.8 C 239 29.8 239 29.8 239 29.8 C 239 30.4 239.5 30.8 240.2 30.8 C 241 30.8 241.7 30.2 241.7 29.5 Z M 244.1 24.6 L 244.8 24.6 L 244.8 31.2 L 244.1 31.2 L 244.1 24.6 Z M 251.9 24.9 L 252.6 24.9 L 255.4 31.2 L 254.7 31.2 L 253.9 29.5 L 250.5 29.5 L 249.8 31.2 L 249 31.2 L 251.9 24.9 Z M 253.7 28.9 L 252.2 25.7 L 250.8 28.9 L 253.7 28.9 Z M 256.7 26.5 L 257.4 26.5 C 257.4 26.5 257.43 27.76 257.4 27.8 C 257.8 27 258.4 26.4 259.3 26.5 C 259.33 26.47 259.3 27.2 259.3 27.2 C 259.3 27.2 259.28 27.21 259.3 27.2 C 258.3 27.2 257.4 27.9 257.4 29.3 C 257.43 29.35 257.4 31.2 257.4 31.2 L 256.7 31.2 L 256.7 26.5 Z M 260.8 30 C 260.81 29.97 260.8 27.2 260.8 27.2 L 260.2 27.2 L 260.2 26.5 L 260.8 26.5 L 260.8 25.1 L 261.5 25.1 L 261.5 26.5 L 263 26.5 L 263 27.2 L 261.5 27.2 C 261.5 27.2 261.5 29.88 261.5 29.9 C 261.5 30.4 261.8 30.7 262.3 30.7 C 262.5 30.7 262.7 30.6 263 30.5 C 263 30.5 263 31.1 263 31.1 C 262.7 31.2 262.5 31.3 262.1 31.3 C 261.4 31.3 260.8 30.9 260.8 30 Z M 264 30.6 C 264 30.6 264.3 30.1 264.3 30.1 C 264.8 30.5 265.4 30.7 266 30.7 C 266.5 30.7 266.9 30.4 266.9 30 C 266.9 30 266.9 29.9 266.9 29.9 C 266.9 29.5 266.4 29.3 265.8 29.1 C 265 28.9 264.2 28.7 264.2 27.8 C 264.2 27.8 264.2 27.8 264.2 27.8 C 264.2 27 264.9 26.5 265.8 26.5 C 266.4 26.5 267 26.7 267.5 27 C 267.5 27 267.2 27.5 267.2 27.5 C 266.7 27.2 266.2 27.1 265.8 27.1 C 265.2 27.1 264.9 27.3 264.9 27.7 C 264.9 27.7 264.9 27.7 264.9 27.7 C 264.9 28.2 265.5 28.4 266.1 28.5 C 266.8 28.8 267.6 29 267.6 29.9 C 267.6 29.9 267.6 29.9 267.6 29.9 C 267.6 30.8 266.8 31.3 265.9 31.3 C 265.3 31.3 264.5 31 264 30.6 Z M 269 30.3 L 269.8 30.3 L 269.8 31.2 L 269 31.2 L 269 30.3 Z " stroke="none" fill="#fff"/>
  </g>
  <g id="Polygon25156">
    <path d="M 0.8 14.5 L 1.5 14.5 C 1.5 14.5 1.47 15.33 1.5 15.3 C 1.8 14.9 2.2 14.4 3 14.4 C 3.7 14.4 4.2 14.9 4.5 15.4 C 4.8 14.9 5.3 14.4 6.1 14.4 C 7.2 14.4 7.8 15.2 7.8 16.3 C 7.83 16.32 7.8 19.2 7.8 19.2 L 7.1 19.2 C 7.1 19.2 7.14 16.48 7.1 16.5 C 7.1 15.6 6.7 15.1 5.9 15.1 C 5.2 15.1 4.7 15.6 4.7 16.5 C 4.65 16.52 4.7 19.2 4.7 19.2 L 4 19.2 C 4 19.2 3.96 16.46 4 16.5 C 4 15.6 3.5 15.1 2.8 15.1 C 2 15.1 1.5 15.7 1.5 16.5 C 1.47 16.54 1.5 19.2 1.5 19.2 L 0.8 19.2 L 0.8 14.5 Z M 9.2 17.8 C 9.2 17.8 9.2 17.8 9.2 17.8 C 9.2 16.9 10 16.3 11.2 16.3 C 11.7 16.3 12.2 16.4 12.6 16.5 C 12.6 16.5 12.6 16.4 12.6 16.4 C 12.6 15.5 12.1 15.1 11.2 15.1 C 10.6 15.1 10.2 15.2 9.8 15.4 C 9.8 15.4 9.6 14.9 9.6 14.9 C 10.1 14.6 10.6 14.5 11.3 14.5 C 11.9 14.5 12.4 14.7 12.8 15 C 13.1 15.3 13.2 15.8 13.2 16.4 C 13.25 16.36 13.2 19.2 13.2 19.2 L 12.6 19.2 C 12.6 19.2 12.58 18.5 12.6 18.5 C 12.3 18.9 11.7 19.3 10.9 19.3 C 10 19.3 9.2 18.8 9.2 17.8 Z M 12.6 17.5 C 12.6 17.5 12.6 17 12.6 17 C 12.2 16.9 11.8 16.8 11.2 16.8 C 10.3 16.8 9.9 17.2 9.9 17.8 C 9.9 17.8 9.9 17.8 9.9 17.8 C 9.9 18.4 10.4 18.8 11 18.8 C 11.9 18.8 12.6 18.2 12.6 17.5 Z M 14.9 12.8 L 15.7 12.8 L 15.7 13.5 L 14.9 13.5 L 14.9 12.8 Z M 15 14.5 L 15.7 14.5 L 15.7 19.2 L 15 19.2 L 15 14.5 Z M 17.1 18.6 C 17.1 18.6 17.4 18.1 17.4 18.1 C 17.9 18.5 18.5 18.7 19 18.7 C 19.6 18.7 20 18.4 20 18 C 20 18 20 17.9 20 17.9 C 20 17.5 19.4 17.3 18.8 17.1 C 18.1 16.9 17.3 16.7 17.3 15.8 C 17.3 15.8 17.3 15.8 17.3 15.8 C 17.3 15 18 14.5 18.9 14.5 C 19.4 14.5 20.1 14.7 20.5 15 C 20.5 15 20.2 15.5 20.2 15.5 C 19.8 15.2 19.3 15.1 18.9 15.1 C 18.3 15.1 18 15.3 18 15.7 C 18 15.7 18 15.7 18 15.7 C 18 16.2 18.5 16.4 19.2 16.5 C 19.9 16.8 20.6 17 20.6 17.9 C 20.6 17.9 20.6 17.9 20.6 17.9 C 20.6 18.8 19.9 19.3 19 19.3 C 18.3 19.3 17.6 19 17.1 18.6 Z M 21.8 17.8 C 21.8 17.8 21.8 17.8 21.8 17.8 C 21.8 16.9 22.6 16.3 23.8 16.3 C 24.3 16.3 24.8 16.4 25.2 16.5 C 25.2 16.5 25.2 16.4 25.2 16.4 C 25.2 15.5 24.7 15.1 23.8 15.1 C 23.2 15.1 22.8 15.2 22.4 15.4 C 22.4 15.4 22.2 14.9 22.2 14.9 C 22.7 14.6 23.2 14.5 23.9 14.5 C 24.5 14.5 25 14.7 25.4 15 C 25.7 15.3 25.8 15.8 25.8 16.4 C 25.85 16.36 25.8 19.2 25.8 19.2 L 25.2 19.2 C 25.2 19.2 25.18 18.5 25.2 18.5 C 24.9 18.9 24.3 19.3 23.5 19.3 C 22.6 19.3 21.8 18.8 21.8 17.8 Z M 25.2 17.5 C 25.2 17.5 25.2 17 25.2 17 C 24.8 16.9 24.4 16.8 23.8 16.8 C 22.9 16.8 22.5 17.2 22.5 17.8 C 22.5 17.8 22.5 17.8 22.5 17.8 C 22.5 18.4 23 18.8 23.6 18.8 C 24.5 18.8 25.2 18.2 25.2 17.5 Z M 27.4 20 C 27.4 20 27.8 19.5 27.8 19.5 C 28.3 19.9 28.9 20.1 29.6 20.1 C 30.6 20.1 31.2 19.5 31.2 18.4 C 31.2 18.4 31.2 17.9 31.2 17.9 C 30.8 18.4 30.3 18.8 29.4 18.8 C 28.3 18.8 27.2 18 27.2 16.7 C 27.2 16.7 27.2 16.6 27.2 16.6 C 27.2 15.3 28.3 14.4 29.4 14.4 C 30.3 14.4 30.9 14.9 31.2 15.4 C 31.24 15.38 31.2 14.5 31.2 14.5 L 31.9 14.5 C 31.9 14.5 31.93 18.39 31.9 18.4 C 31.9 19.1 31.7 19.7 31.3 20 C 30.9 20.5 30.3 20.7 29.6 20.7 C 28.8 20.7 28.1 20.4 27.4 20 Z M 31.3 16.7 C 31.3 16.7 31.3 16.6 31.3 16.6 C 31.3 15.7 30.4 15.1 29.6 15.1 C 28.7 15.1 27.9 15.7 27.9 16.6 C 27.9 16.6 27.9 16.6 27.9 16.6 C 27.9 17.6 28.7 18.2 29.6 18.2 C 30.4 18.2 31.3 17.6 31.3 16.7 Z M 33.3 17.8 C 33.3 17.8 33.3 17.8 33.3 17.8 C 33.3 16.9 34.1 16.3 35.3 16.3 C 35.9 16.3 36.3 16.4 36.7 16.5 C 36.7 16.5 36.7 16.4 36.7 16.4 C 36.7 15.5 36.2 15.1 35.3 15.1 C 34.8 15.1 34.4 15.2 33.9 15.4 C 33.9 15.4 33.7 14.9 33.7 14.9 C 34.2 14.6 34.7 14.5 35.4 14.5 C 36.1 14.5 36.6 14.7 36.9 15 C 37.2 15.3 37.4 15.8 37.4 16.4 C 37.39 16.36 37.4 19.2 37.4 19.2 L 36.7 19.2 C 36.7 19.2 36.73 18.5 36.7 18.5 C 36.4 18.9 35.9 19.3 35 19.3 C 34.2 19.3 33.3 18.8 33.3 17.8 Z M 36.7 17.5 C 36.7 17.5 36.7 17 36.7 17 C 36.4 16.9 35.9 16.8 35.4 16.8 C 34.5 16.8 34 17.2 34 17.8 C 34 17.8 34 17.8 34 17.8 C 34 18.4 34.6 18.8 35.2 18.8 C 36 18.8 36.7 18.2 36.7 17.5 Z M 38.5 14.5 L 39.2 14.5 L 40.4 18.3 L 41.7 14.5 L 42.3 14.5 L 43.5 18.3 L 44.7 14.5 L 45.5 14.5 L 43.8 19.2 L 43.2 19.2 L 42 15.6 L 40.7 19.2 L 40.1 19.2 L 38.5 14.5 Z M 46.3 17.8 C 46.3 17.8 46.3 17.8 46.3 17.8 C 46.3 16.9 47.1 16.3 48.3 16.3 C 48.9 16.3 49.3 16.4 49.7 16.5 C 49.7 16.5 49.7 16.4 49.7 16.4 C 49.7 15.5 49.2 15.1 48.3 15.1 C 47.8 15.1 47.3 15.2 46.9 15.4 C 46.9 15.4 46.7 14.9 46.7 14.9 C 47.2 14.6 47.7 14.5 48.4 14.5 C 49 14.5 49.5 14.7 49.9 15 C 50.2 15.3 50.4 15.8 50.4 16.4 C 50.35 16.36 50.4 19.2 50.4 19.2 L 49.7 19.2 C 49.7 19.2 49.69 18.5 49.7 18.5 C 49.4 18.9 48.8 19.3 48 19.3 C 47.1 19.3 46.3 18.8 46.3 17.8 Z M 49.7 17.5 C 49.7 17.5 49.7 17 49.7 17 C 49.4 16.9 48.9 16.8 48.3 16.8 C 47.5 16.8 47 17.2 47 17.8 C 47 17.8 47 17.8 47 17.8 C 47 18.4 47.5 18.8 48.1 18.8 C 49 18.8 49.7 18.2 49.7 17.5 Z M 55.8 17.8 C 55.8 17.8 55.8 17.8 55.8 17.8 C 55.8 16.9 56.6 16.3 57.8 16.3 C 58.4 16.3 58.8 16.4 59.2 16.5 C 59.2 16.5 59.2 16.4 59.2 16.4 C 59.2 15.5 58.7 15.1 57.8 15.1 C 57.3 15.1 56.8 15.2 56.4 15.4 C 56.4 15.4 56.2 14.9 56.2 14.9 C 56.7 14.6 57.2 14.5 57.9 14.5 C 58.5 14.5 59 14.7 59.4 15 C 59.7 15.3 59.9 15.8 59.9 16.4 C 59.86 16.36 59.9 19.2 59.9 19.2 L 59.2 19.2 C 59.2 19.2 59.19 18.5 59.2 18.5 C 58.9 18.9 58.3 19.3 57.5 19.3 C 56.6 19.3 55.8 18.8 55.8 17.8 Z M 59.2 17.5 C 59.2 17.5 59.2 17 59.2 17 C 58.9 16.9 58.4 16.8 57.8 16.8 C 57 16.8 56.5 17.2 56.5 17.8 C 56.5 17.8 56.5 17.8 56.5 17.8 C 56.5 18.4 57 18.8 57.6 18.8 C 58.5 18.8 59.2 18.2 59.2 17.5 Z M 61.5 14.5 L 62.2 14.5 C 62.2 14.5 62.21 15.36 62.2 15.4 C 62.5 14.9 63 14.4 63.8 14.4 C 64.9 14.4 65.6 15.2 65.6 16.3 C 65.58 16.31 65.6 19.2 65.6 19.2 L 64.9 19.2 C 64.9 19.2 64.89 16.48 64.9 16.5 C 64.9 15.6 64.4 15.1 63.6 15.1 C 62.8 15.1 62.2 15.7 62.2 16.5 C 62.21 16.54 62.2 19.2 62.2 19.2 L 61.5 19.2 L 61.5 14.5 Z M 67.2 20 C 67.2 20 67.5 19.5 67.5 19.5 C 68 19.9 68.6 20.1 69.3 20.1 C 70.3 20.1 71 19.5 71 18.4 C 71 18.4 71 17.9 71 17.9 C 70.6 18.4 70 18.8 69.2 18.8 C 68 18.8 67 18 67 16.7 C 67 16.7 67 16.6 67 16.6 C 67 15.3 68 14.4 69.2 14.4 C 70 14.4 70.6 14.9 71 15.4 C 70.97 15.38 71 14.5 71 14.5 L 71.7 14.5 C 71.7 14.5 71.67 18.39 71.7 18.4 C 71.7 19.1 71.4 19.7 71.1 20 C 70.7 20.5 70 20.7 69.3 20.7 C 68.5 20.7 67.8 20.4 67.2 20 Z M 71 16.7 C 71 16.7 71 16.6 71 16.6 C 71 15.7 70.2 15.1 69.3 15.1 C 68.4 15.1 67.7 15.7 67.7 16.6 C 67.7 16.6 67.7 16.6 67.7 16.6 C 67.7 17.6 68.4 18.2 69.3 18.2 C 70.2 18.2 71 17.6 71 16.7 Z M 77.5 14.5 L 78.2 14.5 C 78.2 14.5 78.2 15.33 78.2 15.3 C 78.5 14.9 78.9 14.4 79.7 14.4 C 80.5 14.4 80.9 14.9 81.2 15.4 C 81.5 14.9 82 14.4 82.8 14.4 C 83.9 14.4 84.6 15.2 84.6 16.3 C 84.56 16.32 84.6 19.2 84.6 19.2 L 83.9 19.2 C 83.9 19.2 83.87 16.48 83.9 16.5 C 83.9 15.6 83.4 15.1 82.7 15.1 C 82 15.1 81.4 15.6 81.4 16.5 C 81.39 16.52 81.4 19.2 81.4 19.2 L 80.7 19.2 C 80.7 19.2 80.69 16.46 80.7 16.5 C 80.7 15.6 80.2 15.1 79.5 15.1 C 78.8 15.1 78.2 15.7 78.2 16.5 C 78.2 16.54 78.2 19.2 78.2 19.2 L 77.5 19.2 L 77.5 14.5 Z M 86.2 20 C 86.2 20 86.5 19.5 86.5 19.5 C 87 19.9 87.6 20.1 88.3 20.1 C 89.3 20.1 90 19.5 90 18.4 C 90 18.4 90 17.9 90 17.9 C 89.6 18.4 89 18.8 88.2 18.8 C 87 18.8 86 18 86 16.7 C 86 16.7 86 16.6 86 16.6 C 86 15.3 87.1 14.4 88.2 14.4 C 89 14.4 89.6 14.9 90 15.4 C 89.98 15.38 90 14.5 90 14.5 L 90.7 14.5 C 90.7 14.5 90.67 18.39 90.7 18.4 C 90.7 19.1 90.5 19.7 90.1 20 C 89.7 20.5 89 20.7 88.3 20.7 C 87.5 20.7 86.8 20.4 86.2 20 Z M 90 16.7 C 90 16.7 90 16.6 90 16.6 C 90 15.7 89.2 15.1 88.3 15.1 C 87.4 15.1 86.7 15.7 86.7 16.6 C 86.7 16.6 86.7 16.6 86.7 16.6 C 86.7 17.6 87.4 18.2 88.3 18.2 C 89.2 18.2 90 17.6 90 16.7 Z M 92.1 17.8 C 92.1 17.8 92.1 17.8 92.1 17.8 C 92.1 16.9 92.9 16.3 94 16.3 C 94.6 16.3 95.1 16.4 95.5 16.5 C 95.5 16.5 95.5 16.4 95.5 16.4 C 95.5 15.5 95 15.1 94.1 15.1 C 93.5 15.1 93.1 15.2 92.7 15.4 C 92.7 15.4 92.5 14.9 92.5 14.9 C 93 14.6 93.5 14.5 94.2 14.5 C 94.8 14.5 95.3 14.7 95.7 15 C 96 15.3 96.1 15.8 96.1 16.4 C 96.14 16.36 96.1 19.2 96.1 19.2 L 95.5 19.2 C 95.5 19.2 95.47 18.5 95.5 18.5 C 95.1 18.9 94.6 19.3 93.8 19.3 C 92.9 19.3 92.1 18.8 92.1 17.8 Z M 95.5 17.5 C 95.5 17.5 95.5 17 95.5 17 C 95.1 16.9 94.7 16.8 94.1 16.8 C 93.2 16.8 92.8 17.2 92.8 17.8 C 92.8 17.8 92.8 17.8 92.8 17.8 C 92.8 18.4 93.3 18.8 93.9 18.8 C 94.8 18.8 95.5 18.2 95.5 17.5 Z M 101.9 12.6 L 102.6 12.6 L 102.6 17.2 L 105.1 14.5 L 106 14.5 L 104 16.5 L 106 19.2 L 105.2 19.2 L 103.5 17 L 102.6 18 L 102.6 19.2 L 101.9 19.2 L 101.9 12.6 Z M 107.3 12.6 L 108 12.6 L 108 19.2 L 107.3 19.2 L 107.3 12.6 Z M 109.4 17.8 C 109.4 17.8 109.4 17.8 109.4 17.8 C 109.4 16.9 110.2 16.3 111.4 16.3 C 112 16.3 112.4 16.4 112.8 16.5 C 112.8 16.5 112.8 16.4 112.8 16.4 C 112.8 15.5 112.3 15.1 111.4 15.1 C 110.9 15.1 110.5 15.2 110 15.4 C 110 15.4 109.8 14.9 109.8 14.9 C 110.3 14.6 110.8 14.5 111.5 14.5 C 112.2 14.5 112.7 14.7 113 15 C 113.3 15.3 113.5 15.8 113.5 16.4 C 113.49 16.36 113.5 19.2 113.5 19.2 L 112.8 19.2 C 112.8 19.2 112.82 18.5 112.8 18.5 C 112.5 18.9 112 19.3 111.1 19.3 C 110.3 19.3 109.4 18.8 109.4 17.8 Z M 112.8 17.5 C 112.8 17.5 112.8 17 112.8 17 C 112.5 16.9 112 16.8 111.5 16.8 C 110.6 16.8 110.1 17.2 110.1 17.8 C 110.1 17.8 110.1 17.8 110.1 17.8 C 110.1 18.4 110.6 18.8 111.3 18.8 C 112.1 18.8 112.8 18.2 112.8 17.5 Z M 114.8 18.6 C 114.8 18.6 115.1 18.1 115.1 18.1 C 115.6 18.5 116.2 18.7 116.7 18.7 C 117.3 18.7 117.7 18.4 117.7 18 C 117.7 18 117.7 17.9 117.7 17.9 C 117.7 17.5 117.1 17.3 116.5 17.1 C 115.8 16.9 115 16.7 115 15.8 C 115 15.8 115 15.8 115 15.8 C 115 15 115.6 14.5 116.6 14.5 C 117.1 14.5 117.8 14.7 118.2 15 C 118.2 15 117.9 15.5 117.9 15.5 C 117.5 15.2 117 15.1 116.5 15.1 C 116 15.1 115.6 15.3 115.6 15.7 C 115.6 15.7 115.6 15.7 115.6 15.7 C 115.6 16.2 116.2 16.4 116.8 16.5 C 117.6 16.8 118.3 17 118.3 17.9 C 118.3 17.9 118.3 17.9 118.3 17.9 C 118.3 18.8 117.6 19.3 116.7 19.3 C 116 19.3 115.3 19 114.8 18.6 Z M 119.5 16.9 C 119.5 16.9 119.5 16.9 119.5 16.9 C 119.5 15.5 120.5 14.4 121.7 14.4 C 123.1 14.4 123.9 15.5 123.9 16.9 C 123.9 17 123.9 17 123.9 17.1 C 123.9 17.1 120.2 17.1 120.2 17.1 C 120.3 18.1 121 18.7 121.9 18.7 C 122.5 18.7 122.9 18.4 123.3 18 C 123.3 18 123.8 18.4 123.8 18.4 C 123.3 19 122.7 19.3 121.8 19.3 C 120.6 19.3 119.5 18.3 119.5 16.9 Z M 123.2 16.6 C 123.1 15.8 122.7 15 121.7 15 C 120.9 15 120.3 15.7 120.2 16.6 C 120.2 16.6 123.2 16.6 123.2 16.6 Z M 125.3 14.5 L 126 14.5 C 126 14.5 126.01 15.36 126 15.4 C 126.3 14.9 126.8 14.4 127.6 14.4 C 128.7 14.4 129.4 15.2 129.4 16.3 C 129.38 16.31 129.4 19.2 129.4 19.2 L 128.7 19.2 C 128.7 19.2 128.69 16.48 128.7 16.5 C 128.7 15.6 128.2 15.1 127.4 15.1 C 126.6 15.1 126 15.7 126 16.5 C 126.01 16.54 126 19.2 126 19.2 L 125.3 19.2 L 125.3 14.5 Z M 131 20 C 131 20 131.3 19.5 131.3 19.5 C 131.8 19.9 132.4 20.1 133.1 20.1 C 134.1 20.1 134.8 19.5 134.8 18.4 C 134.8 18.4 134.8 17.9 134.8 17.9 C 134.4 18.4 133.8 18.8 133 18.8 C 131.8 18.8 130.8 18 130.8 16.7 C 130.8 16.7 130.8 16.6 130.8 16.6 C 130.8 15.3 131.8 14.4 133 14.4 C 133.8 14.4 134.4 14.9 134.8 15.4 C 134.77 15.38 134.8 14.5 134.8 14.5 L 135.5 14.5 C 135.5 14.5 135.46 18.39 135.5 18.4 C 135.5 19.1 135.2 19.7 134.9 20 C 134.5 20.5 133.8 20.7 133.1 20.7 C 132.3 20.7 131.6 20.4 131 20 Z M 134.8 16.7 C 134.8 16.7 134.8 16.6 134.8 16.6 C 134.8 15.7 134 15.1 133.1 15.1 C 132.2 15.1 131.5 15.7 131.5 16.6 C 131.5 16.6 131.5 16.6 131.5 16.6 C 131.5 17.6 132.2 18.2 133.1 18.2 C 134 18.2 134.8 17.6 134.8 16.7 Z M 141.3 14.5 L 142 14.5 C 142 14.5 142 15.48 142 15.5 C 142.4 14.9 142.9 14.4 143.8 14.4 C 144.9 14.4 146 15.3 146 16.9 C 146 16.9 146 16.9 146 16.9 C 146 18.4 144.9 19.3 143.8 19.3 C 142.9 19.3 142.4 18.8 142 18.3 C 142 18.31 142 20.6 142 20.6 L 141.3 20.6 L 141.3 14.5 Z M 145.3 16.9 C 145.3 16.9 145.3 16.9 145.3 16.9 C 145.3 15.8 144.5 15.1 143.7 15.1 C 142.8 15.1 142 15.8 142 16.9 C 142 16.9 142 16.9 142 16.9 C 142 18 142.8 18.7 143.7 18.7 C 144.6 18.7 145.3 18 145.3 16.9 Z M 147.1 17.8 C 147.1 17.8 147.1 17.8 147.1 17.8 C 147.1 16.9 147.9 16.3 149.1 16.3 C 149.7 16.3 150.1 16.4 150.5 16.5 C 150.5 16.5 150.5 16.4 150.5 16.4 C 150.5 15.5 150 15.1 149.1 15.1 C 148.6 15.1 148.2 15.2 147.7 15.4 C 147.7 15.4 147.5 14.9 147.5 14.9 C 148 14.6 148.5 14.5 149.2 14.5 C 149.9 14.5 150.4 14.7 150.7 15 C 151 15.3 151.2 15.8 151.2 16.4 C 151.2 16.36 151.2 19.2 151.2 19.2 L 150.5 19.2 C 150.5 19.2 150.53 18.5 150.5 18.5 C 150.2 18.9 149.7 19.3 148.8 19.3 C 148 19.3 147.1 18.8 147.1 17.8 Z M 150.5 17.5 C 150.5 17.5 150.5 17 150.5 17 C 150.2 16.9 149.7 16.8 149.2 16.8 C 148.3 16.8 147.8 17.2 147.8 17.8 C 147.8 17.8 147.8 17.8 147.8 17.8 C 147.8 18.4 148.4 18.8 149 18.8 C 149.8 18.8 150.5 18.2 150.5 17.5 Z M 152.9 14.5 L 153.5 14.5 C 153.5 14.5 153.55 15.36 153.5 15.4 C 153.9 14.9 154.3 14.4 155.1 14.4 C 156.3 14.4 156.9 15.2 156.9 16.3 C 156.92 16.31 156.9 19.2 156.9 19.2 L 156.2 19.2 C 156.2 19.2 156.23 16.48 156.2 16.5 C 156.2 15.6 155.8 15.1 154.9 15.1 C 154.1 15.1 153.5 15.7 153.5 16.5 C 153.55 16.54 153.5 19.2 153.5 19.2 L 152.9 19.2 L 152.9 14.5 Z M 158.5 20 C 158.5 20 158.8 19.5 158.8 19.5 C 159.4 19.9 160 20.1 160.6 20.1 C 161.7 20.1 162.3 19.5 162.3 18.4 C 162.3 18.4 162.3 17.9 162.3 17.9 C 161.9 18.4 161.3 18.8 160.5 18.8 C 159.4 18.8 158.3 18 158.3 16.7 C 158.3 16.7 158.3 16.6 158.3 16.6 C 158.3 15.3 159.4 14.4 160.5 14.4 C 161.4 14.4 161.9 14.9 162.3 15.4 C 162.31 15.38 162.3 14.5 162.3 14.5 L 163 14.5 C 163 14.5 163 18.39 163 18.4 C 163 19.1 162.8 19.7 162.4 20 C 162 20.5 161.4 20.7 160.6 20.7 C 159.9 20.7 159.1 20.4 158.5 20 Z M 162.3 16.7 C 162.3 16.7 162.3 16.6 162.3 16.6 C 162.3 15.7 161.5 15.1 160.6 15.1 C 159.7 15.1 159 15.7 159 16.6 C 159 16.6 159 16.6 159 16.6 C 159 17.6 159.8 18.2 160.6 18.2 C 161.5 18.2 162.3 17.6 162.3 16.7 Z M 164.8 12.6 L 165.5 12.6 L 165.5 19.2 L 164.8 19.2 L 164.8 12.6 Z M 166.9 17.8 C 166.9 17.8 166.9 17.8 166.9 17.8 C 166.9 16.9 167.7 16.3 168.9 16.3 C 169.5 16.3 169.9 16.4 170.3 16.5 C 170.3 16.5 170.3 16.4 170.3 16.4 C 170.3 15.5 169.8 15.1 169 15.1 C 168.4 15.1 168 15.2 167.5 15.4 C 167.5 15.4 167.3 14.9 167.3 14.9 C 167.9 14.6 168.4 14.5 169 14.5 C 169.7 14.5 170.2 14.7 170.5 15 C 170.9 15.3 171 15.8 171 16.4 C 171.01 16.36 171 19.2 171 19.2 L 170.3 19.2 C 170.3 19.2 170.35 18.5 170.3 18.5 C 170 18.9 169.5 19.3 168.7 19.3 C 167.8 19.3 166.9 18.8 166.9 17.8 Z M 170.4 17.5 C 170.4 17.5 170.4 17 170.4 17 C 170 16.9 169.6 16.8 169 16.8 C 168.1 16.8 167.6 17.2 167.6 17.8 C 167.6 17.8 167.6 17.8 167.6 17.8 C 167.6 18.4 168.2 18.8 168.8 18.8 C 169.7 18.8 170.4 18.2 170.4 17.5 Z M 173.4 18.3 C 173.36 18.31 173.4 19.2 173.4 19.2 L 172.7 19.2 L 172.7 12.6 L 173.4 12.6 C 173.4 12.6 173.36 15.48 173.4 15.5 C 173.7 14.9 174.3 14.4 175.1 14.4 C 176.3 14.4 177.4 15.3 177.4 16.9 C 177.4 16.9 177.4 16.9 177.4 16.9 C 177.4 18.4 176.3 19.3 175.1 19.3 C 174.3 19.3 173.7 18.8 173.4 18.3 Z M 176.7 16.9 C 176.7 16.9 176.7 16.9 176.7 16.9 C 176.7 15.8 175.9 15.1 175 15.1 C 174.2 15.1 173.3 15.8 173.3 16.9 C 173.3 16.9 173.3 16.9 173.3 16.9 C 173.3 18 174.2 18.7 175 18.7 C 175.9 18.7 176.7 18 176.7 16.9 Z M 178.5 16.9 C 178.5 16.9 178.5 16.9 178.5 16.9 C 178.5 15.6 179.6 14.4 181 14.4 C 182.4 14.4 183.4 15.5 183.4 16.9 C 183.4 16.9 183.4 16.9 183.4 16.9 C 183.4 18.2 182.4 19.3 181 19.3 C 179.6 19.3 178.5 18.2 178.5 16.9 Z M 182.7 16.9 C 182.7 16.9 182.7 16.9 182.7 16.9 C 182.7 15.9 181.9 15.1 181 15.1 C 179.9 15.1 179.2 15.9 179.2 16.9 C 179.2 16.9 179.2 16.9 179.2 16.9 C 179.2 17.9 180 18.7 181 18.7 C 182 18.7 182.7 17.9 182.7 16.9 Z M 184.8 14.5 L 185.5 14.5 C 185.5 14.5 185.51 15.76 185.5 15.8 C 185.9 15 186.5 14.4 187.4 14.5 C 187.41 14.47 187.4 15.2 187.4 15.2 C 187.4 15.2 187.36 15.21 187.4 15.2 C 186.3 15.2 185.5 15.9 185.5 17.3 C 185.51 17.35 185.5 19.2 185.5 19.2 L 184.8 19.2 L 184.8 14.5 Z M 188.1 17.8 C 188.1 17.8 188.1 17.8 188.1 17.8 C 188.1 16.9 188.9 16.3 190.1 16.3 C 190.7 16.3 191.1 16.4 191.5 16.5 C 191.5 16.5 191.5 16.4 191.5 16.4 C 191.5 15.5 191 15.1 190.1 15.1 C 189.6 15.1 189.1 15.2 188.7 15.4 C 188.7 15.4 188.5 14.9 188.5 14.9 C 189 14.6 189.5 14.5 190.2 14.5 C 190.8 14.5 191.3 14.7 191.7 15 C 192 15.3 192.2 15.8 192.2 16.4 C 192.15 16.36 192.2 19.2 192.2 19.2 L 191.5 19.2 C 191.5 19.2 191.49 18.5 191.5 18.5 C 191.2 18.9 190.6 19.3 189.8 19.3 C 188.9 19.3 188.1 18.8 188.1 17.8 Z M 191.5 17.5 C 191.5 17.5 191.5 17 191.5 17 C 191.2 16.9 190.7 16.8 190.1 16.8 C 189.3 16.8 188.8 17.2 188.8 17.8 C 188.8 17.8 188.8 17.8 188.8 17.8 C 188.8 18.4 189.3 18.8 189.9 18.8 C 190.8 18.8 191.5 18.2 191.5 17.5 Z M 194 18 C 194.01 17.97 194 15.2 194 15.2 L 193.4 15.2 L 193.4 14.5 L 194 14.5 L 194 13.1 L 194.7 13.1 L 194.7 14.5 L 196.2 14.5 L 196.2 15.2 L 194.7 15.2 C 194.7 15.2 194.7 17.88 194.7 17.9 C 194.7 18.4 195 18.7 195.5 18.7 C 195.7 18.7 195.9 18.6 196.2 18.5 C 196.2 18.5 196.2 19.1 196.2 19.1 C 195.9 19.2 195.7 19.3 195.3 19.3 C 194.6 19.3 194 18.9 194 18 Z M 197.2 16.9 C 197.2 16.9 197.2 16.9 197.2 16.9 C 197.2 15.6 198.2 14.4 199.6 14.4 C 201 14.4 202 15.5 202 16.9 C 202 16.9 202 16.9 202 16.9 C 202 18.2 201 19.3 199.6 19.3 C 198.2 19.3 197.2 18.2 197.2 16.9 Z M 201.3 16.9 C 201.3 16.9 201.3 16.9 201.3 16.9 C 201.3 15.9 200.6 15.1 199.6 15.1 C 198.6 15.1 197.9 15.9 197.9 16.9 C 197.9 16.9 197.9 16.9 197.9 16.9 C 197.9 17.9 198.6 18.7 199.6 18.7 C 200.6 18.7 201.3 17.9 201.3 16.9 Z M 203.4 14.5 L 204.1 14.5 C 204.1 14.5 204.13 15.76 204.1 15.8 C 204.5 15 205.2 14.4 206 14.5 C 206.03 14.47 206 15.2 206 15.2 C 206 15.2 205.98 15.21 206 15.2 C 205 15.2 204.1 15.9 204.1 17.3 C 204.13 17.35 204.1 19.2 204.1 19.2 L 203.4 19.2 L 203.4 14.5 Z M 210.7 14.5 L 211.5 14.5 C 211.5 14.5 209.53 19.35 209.5 19.4 C 209.1 20.3 208.7 20.7 208 20.7 C 207.6 20.7 207.3 20.6 207 20.4 C 207 20.4 207.2 19.9 207.2 19.9 C 207.5 20 207.7 20.1 208 20.1 C 208.4 20.1 208.6 19.8 208.9 19.2 C 208.91 19.18 206.8 14.5 206.8 14.5 L 207.6 14.5 L 209.3 18.4 L 210.7 14.5 Z M 212.2 16.9 C 212.2 16.9 212.2 16.9 212.2 16.9 C 212.2 15.6 213.2 14.4 214.6 14.4 C 216 14.4 217.1 15.5 217.1 16.9 C 217.1 16.9 217.1 16.9 217.1 16.9 C 217.1 18.2 216 19.3 214.6 19.3 C 213.2 19.3 212.2 18.2 212.2 16.9 Z M 216.3 16.9 C 216.3 16.9 216.3 16.9 216.3 16.9 C 216.3 15.9 215.6 15.1 214.6 15.1 C 213.6 15.1 212.9 15.9 212.9 16.9 C 212.9 16.9 212.9 16.9 212.9 16.9 C 212.9 17.9 213.7 18.7 214.6 18.7 C 215.6 18.7 216.3 17.9 216.3 16.9 Z M 222.6 14.5 L 223.3 14.5 C 223.3 14.5 223.29 15.36 223.3 15.4 C 223.6 14.9 224.1 14.4 224.9 14.4 C 226 14.4 226.7 15.2 226.7 16.3 C 226.67 16.31 226.7 19.2 226.7 19.2 L 226 19.2 C 226 19.2 225.98 16.48 226 16.5 C 226 15.6 225.5 15.1 224.7 15.1 C 223.9 15.1 223.3 15.7 223.3 16.5 C 223.29 16.54 223.3 19.2 223.3 19.2 L 222.6 19.2 L 222.6 14.5 Z M 228.3 20 C 228.3 20 228.6 19.5 228.6 19.5 C 229.1 19.9 229.7 20.1 230.4 20.1 C 231.4 20.1 232.1 19.5 232.1 18.4 C 232.1 18.4 232.1 17.9 232.1 17.9 C 231.7 18.4 231.1 18.8 230.2 18.8 C 229.1 18.8 228.1 18 228.1 16.7 C 228.1 16.7 228.1 16.6 228.1 16.6 C 228.1 15.3 229.1 14.4 230.2 14.4 C 231.1 14.4 231.7 14.9 232.1 15.4 C 232.06 15.38 232.1 14.5 232.1 14.5 L 232.8 14.5 C 232.8 14.5 232.75 18.39 232.8 18.4 C 232.8 19.1 232.5 19.7 232.2 20 C 231.7 20.5 231.1 20.7 230.4 20.7 C 229.6 20.7 228.9 20.4 228.3 20 Z M 232.1 16.7 C 232.1 16.7 232.1 16.6 232.1 16.6 C 232.1 15.7 231.3 15.1 230.4 15.1 C 229.5 15.1 228.8 15.7 228.8 16.6 C 228.8 16.6 228.8 16.6 228.8 16.6 C 228.8 17.6 229.5 18.2 230.4 18.2 C 231.3 18.2 232.1 17.6 232.1 16.7 Z M 238.6 14.5 L 239.3 14.5 C 239.3 14.5 239.29 15.33 239.3 15.3 C 239.6 14.9 240 14.4 240.8 14.4 C 241.5 14.4 242 14.9 242.3 15.4 C 242.6 14.9 243.1 14.4 243.9 14.4 C 245 14.4 245.6 15.2 245.6 16.3 C 245.65 16.32 245.6 19.2 245.6 19.2 L 245 19.2 C 245 19.2 244.96 16.48 245 16.5 C 245 15.6 244.5 15.1 243.8 15.1 C 243 15.1 242.5 15.6 242.5 16.5 C 242.47 16.52 242.5 19.2 242.5 19.2 L 241.8 19.2 C 241.8 19.2 241.78 16.46 241.8 16.5 C 241.8 15.6 241.3 15.1 240.6 15.1 C 239.8 15.1 239.3 15.7 239.3 16.5 C 239.29 16.54 239.3 19.2 239.3 19.2 L 238.6 19.2 L 238.6 14.5 Z M 247.3 20 C 247.3 20 247.6 19.5 247.6 19.5 C 248.1 19.9 248.7 20.1 249.4 20.1 C 250.4 20.1 251.1 19.5 251.1 18.4 C 251.1 18.4 251.1 17.9 251.1 17.9 C 250.7 18.4 250.1 18.8 249.3 18.8 C 248.1 18.8 247.1 18 247.1 16.7 C 247.1 16.7 247.1 16.6 247.1 16.6 C 247.1 15.3 248.1 14.4 249.3 14.4 C 250.1 14.4 250.7 14.9 251.1 15.4 C 251.07 15.38 251.1 14.5 251.1 14.5 L 251.8 14.5 C 251.8 14.5 251.76 18.39 251.8 18.4 C 251.8 19.1 251.5 19.7 251.2 20 C 250.8 20.5 250.1 20.7 249.4 20.7 C 248.6 20.7 247.9 20.4 247.3 20 Z M 251.1 16.7 C 251.1 16.7 251.1 16.6 251.1 16.6 C 251.1 15.7 250.3 15.1 249.4 15.1 C 248.5 15.1 247.8 15.7 247.8 16.6 C 247.8 16.6 247.8 16.6 247.8 16.6 C 247.8 17.6 248.5 18.2 249.4 18.2 C 250.3 18.2 251.1 17.6 251.1 16.7 Z M 253.1 17.8 C 253.1 17.8 253.1 17.8 253.1 17.8 C 253.1 16.9 253.9 16.3 255.1 16.3 C 255.7 16.3 256.1 16.4 256.6 16.5 C 256.6 16.5 256.6 16.4 256.6 16.4 C 256.6 15.5 256 15.1 255.2 15.1 C 254.6 15.1 254.2 15.2 253.8 15.4 C 253.8 15.4 253.6 14.9 253.6 14.9 C 254.1 14.6 254.6 14.5 255.2 14.5 C 255.9 14.5 256.4 14.7 256.7 15 C 257.1 15.3 257.2 15.8 257.2 16.4 C 257.22 16.36 257.2 19.2 257.2 19.2 L 256.6 19.2 C 256.6 19.2 256.56 18.5 256.6 18.5 C 256.2 18.9 255.7 19.3 254.9 19.3 C 254 19.3 253.1 18.8 253.1 17.8 Z M 256.6 17.5 C 256.6 17.5 256.6 17 256.6 17 C 256.2 16.9 255.8 16.8 255.2 16.8 C 254.3 16.8 253.8 17.2 253.8 17.8 C 253.8 17.8 253.8 17.8 253.8 17.8 C 253.8 18.4 254.4 18.8 255 18.8 C 255.9 18.8 256.6 18.2 256.6 17.5 Z M 263 14.5 L 263.7 14.5 C 263.7 14.5 263.69 15.33 263.7 15.3 C 264 14.9 264.4 14.4 265.2 14.4 C 265.9 14.4 266.4 14.9 266.7 15.4 C 267 14.9 267.5 14.4 268.3 14.4 C 269.4 14.4 270 15.2 270 16.3 C 270.05 16.32 270 19.2 270 19.2 L 269.4 19.2 C 269.4 19.2 269.36 16.48 269.4 16.5 C 269.4 15.6 268.9 15.1 268.1 15.1 C 267.4 15.1 266.9 15.6 266.9 16.5 C 266.87 16.52 266.9 19.2 266.9 19.2 L 266.2 19.2 C 266.2 19.2 266.18 16.46 266.2 16.5 C 266.2 15.6 265.7 15.1 265 15.1 C 264.2 15.1 263.7 15.7 263.7 16.5 C 263.69 16.54 263.7 19.2 263.7 19.2 L 263 19.2 L 263 14.5 Z M 271.4 17.8 C 271.4 17.8 271.4 17.8 271.4 17.8 C 271.4 16.9 272.2 16.3 273.4 16.3 C 274 16.3 274.4 16.4 274.8 16.5 C 274.8 16.5 274.8 16.4 274.8 16.4 C 274.8 15.5 274.3 15.1 273.4 15.1 C 272.9 15.1 272.4 15.2 272 15.4 C 272 15.4 271.8 14.9 271.8 14.9 C 272.3 14.6 272.8 14.5 273.5 14.5 C 274.1 14.5 274.6 14.7 275 15 C 275.3 15.3 275.5 15.8 275.5 16.4 C 275.47 16.36 275.5 19.2 275.5 19.2 L 274.8 19.2 C 274.8 19.2 274.8 18.5 274.8 18.5 C 274.5 18.9 273.9 19.3 273.1 19.3 C 272.3 19.3 271.4 18.8 271.4 17.8 Z M 274.8 17.5 C 274.8 17.5 274.8 17 274.8 17 C 274.5 16.9 274 16.8 273.4 16.8 C 272.6 16.8 272.1 17.2 272.1 17.8 C 272.1 17.8 272.1 17.8 272.1 17.8 C 272.1 18.4 272.6 18.8 273.3 18.8 C 274.1 18.8 274.8 18.2 274.8 17.5 Z M 277.1 20 C 277.1 20 277.4 19.5 277.4 19.5 C 277.9 19.9 278.5 20.1 279.2 20.1 C 280.2 20.1 280.9 19.5 280.9 18.4 C 280.9 18.4 280.9 17.9 280.9 17.9 C 280.5 18.4 279.9 18.8 279 18.8 C 277.9 18.8 276.9 18 276.9 16.7 C 276.9 16.7 276.9 16.6 276.9 16.6 C 276.9 15.3 277.9 14.4 279 14.4 C 279.9 14.4 280.5 14.9 280.9 15.4 C 280.86 15.38 280.9 14.5 280.9 14.5 L 281.6 14.5 C 281.6 14.5 281.55 18.39 281.6 18.4 C 281.6 19.1 281.3 19.7 281 20 C 280.5 20.5 279.9 20.7 279.2 20.7 C 278.4 20.7 277.7 20.4 277.1 20 Z M 280.9 16.7 C 280.9 16.7 280.9 16.6 280.9 16.6 C 280.9 15.7 280.1 15.1 279.2 15.1 C 278.3 15.1 277.6 15.7 277.6 16.6 C 277.6 16.6 277.6 16.6 277.6 16.6 C 277.6 17.6 278.3 18.2 279.2 18.2 C 280.1 18.2 280.9 17.6 280.9 16.7 Z M 283.1 16.1 L 285.6 16.1 L 285.6 16.9 L 283.1 16.9 L 283.1 16.1 Z M 286.8 17.8 C 286.8 17.8 286.8 17.8 286.8 17.8 C 286.8 16.9 287.6 16.3 288.8 16.3 C 289.4 16.3 289.8 16.4 290.2 16.5 C 290.2 16.5 290.2 16.4 290.2 16.4 C 290.2 15.5 289.7 15.1 288.8 15.1 C 288.3 15.1 287.8 15.2 287.4 15.4 C 287.4 15.4 287.2 14.9 287.2 14.9 C 287.7 14.6 288.2 14.5 288.9 14.5 C 289.5 14.5 290 14.7 290.4 15 C 290.7 15.3 290.9 15.8 290.9 16.4 C 290.86 16.36 290.9 19.2 290.9 19.2 L 290.2 19.2 C 290.2 19.2 290.2 18.5 290.2 18.5 C 289.9 18.9 289.3 19.3 288.5 19.3 C 287.7 19.3 286.8 18.8 286.8 17.8 Z M 290.2 17.5 C 290.2 17.5 290.2 17 290.2 17 C 289.9 16.9 289.4 16.8 288.8 16.8 C 288 16.8 287.5 17.2 287.5 17.8 C 287.5 17.8 287.5 17.8 287.5 17.8 C 287.5 18.4 288 18.8 288.7 18.8 C 289.5 18.8 290.2 18.2 290.2 17.5 Z M 292.2 17.8 C 292.2 17.8 292.2 17.8 292.2 17.8 C 292.2 16.9 293 16.3 294.2 16.3 C 294.8 16.3 295.2 16.4 295.6 16.5 C 295.6 16.5 295.6 16.4 295.6 16.4 C 295.6 15.5 295.1 15.1 294.2 15.1 C 293.7 15.1 293.2 15.2 292.8 15.4 C 292.8 15.4 292.6 14.9 292.6 14.9 C 293.1 14.6 293.6 14.5 294.3 14.5 C 294.9 14.5 295.4 14.7 295.8 15 C 296.1 15.3 296.3 15.8 296.3 16.4 C 296.26 16.36 296.3 19.2 296.3 19.2 L 295.6 19.2 C 295.6 19.2 295.59 18.5 295.6 18.5 C 295.3 18.9 294.7 19.3 293.9 19.3 C 293 19.3 292.2 18.8 292.2 17.8 Z M 295.6 17.5 C 295.6 17.5 295.6 17 295.6 17 C 295.3 16.9 294.8 16.8 294.2 16.8 C 293.4 16.8 292.9 17.2 292.9 17.8 C 292.9 17.8 292.9 17.8 292.9 17.8 C 292.9 18.4 293.4 18.8 294 18.8 C 294.9 18.8 295.6 18.2 295.6 17.5 Z M 297.9 14.5 L 298.6 14.5 C 298.6 14.5 298.6 15.76 298.6 15.8 C 298.9 15 299.6 14.4 300.5 14.5 C 300.5 14.47 300.5 15.2 300.5 15.2 C 300.5 15.2 300.45 15.21 300.4 15.2 C 299.4 15.2 298.6 15.9 298.6 17.3 C 298.6 17.35 298.6 19.2 298.6 19.2 L 297.9 19.2 L 297.9 14.5 Z M 301.2 17.8 C 301.2 17.8 301.2 17.8 301.2 17.8 C 301.2 16.9 302 16.3 303.2 16.3 C 303.7 16.3 304.2 16.4 304.6 16.5 C 304.6 16.5 304.6 16.4 304.6 16.4 C 304.6 15.5 304.1 15.1 303.2 15.1 C 302.6 15.1 302.2 15.2 301.8 15.4 C 301.8 15.4 301.6 14.9 301.6 14.9 C 302.1 14.6 302.6 14.5 303.3 14.5 C 303.9 14.5 304.4 14.7 304.8 15 C 305.1 15.3 305.2 15.8 305.2 16.4 C 305.25 16.36 305.2 19.2 305.2 19.2 L 304.6 19.2 C 304.6 19.2 304.58 18.5 304.6 18.5 C 304.3 18.9 303.7 19.3 302.9 19.3 C 302 19.3 301.2 18.8 301.2 17.8 Z M 304.6 17.5 C 304.6 17.5 304.6 17 304.6 17 C 304.2 16.9 303.8 16.8 303.2 16.8 C 302.3 16.8 301.9 17.2 301.9 17.8 C 301.9 17.8 301.9 17.8 301.9 17.8 C 301.9 18.4 302.4 18.8 303 18.8 C 303.9 18.8 304.6 18.2 304.6 17.5 Z M 307 12.6 L 307.7 12.6 L 307.7 19.2 L 307 19.2 L 307 12.6 Z M 313.6 14.5 L 314.3 14.5 C 314.3 14.5 314.26 15.33 314.3 15.3 C 314.6 14.9 315 14.4 315.8 14.4 C 316.5 14.4 317 14.9 317.3 15.4 C 317.6 14.9 318.1 14.4 318.9 14.4 C 320 14.4 320.6 15.2 320.6 16.3 C 320.62 16.32 320.6 19.2 320.6 19.2 L 319.9 19.2 C 319.9 19.2 319.93 16.48 319.9 16.5 C 319.9 15.6 319.5 15.1 318.7 15.1 C 318 15.1 317.4 15.6 317.4 16.5 C 317.44 16.52 317.4 19.2 317.4 19.2 L 316.7 19.2 C 316.7 19.2 316.75 16.46 316.7 16.5 C 316.7 15.6 316.3 15.1 315.6 15.1 C 314.8 15.1 314.3 15.7 314.3 16.5 C 314.26 16.54 314.3 19.2 314.3 19.2 L 313.6 19.2 L 313.6 14.5 Z M 322.2 17.4 C 322.23 17.44 322.2 14.5 322.2 14.5 L 322.9 14.5 C 322.9 14.5 322.92 17.27 322.9 17.3 C 322.9 18.1 323.4 18.7 324.2 18.7 C 325 18.7 325.6 18.1 325.6 17.2 C 325.61 17.21 325.6 14.5 325.6 14.5 L 326.3 14.5 L 326.3 19.2 L 325.6 19.2 C 325.6 19.2 325.61 18.39 325.6 18.4 C 325.3 18.9 324.8 19.3 324 19.3 C 322.9 19.3 322.2 18.5 322.2 17.4 Z M 328.1 12.6 L 328.8 12.6 L 328.8 19.2 L 328.1 19.2 L 328.1 12.6 Z M 330.2 17.8 C 330.2 17.8 330.2 17.8 330.2 17.8 C 330.2 16.9 331 16.3 332.2 16.3 C 332.8 16.3 333.2 16.4 333.6 16.5 C 333.6 16.5 333.6 16.4 333.6 16.4 C 333.6 15.5 333.1 15.1 332.3 15.1 C 331.7 15.1 331.3 15.2 330.8 15.4 C 330.8 15.4 330.6 14.9 330.6 14.9 C 331.1 14.6 331.7 14.5 332.3 14.5 C 333 14.5 333.5 14.7 333.8 15 C 334.1 15.3 334.3 15.8 334.3 16.4 C 334.31 16.36 334.3 19.2 334.3 19.2 L 333.6 19.2 C 333.6 19.2 333.64 18.5 333.6 18.5 C 333.3 18.9 332.8 19.3 332 19.3 C 331.1 19.3 330.2 18.8 330.2 17.8 Z M 333.7 17.5 C 333.7 17.5 333.7 17 333.7 17 C 333.3 16.9 332.8 16.8 332.3 16.8 C 331.4 16.8 330.9 17.2 330.9 17.8 C 330.9 17.8 330.9 17.8 330.9 17.8 C 330.9 18.4 331.5 18.8 332.1 18.8 C 332.9 18.8 333.7 18.2 333.7 17.5 Z M 339.7 18.6 C 339.7 18.6 340 18.1 340 18.1 C 340.5 18.5 341.1 18.7 341.7 18.7 C 342.2 18.7 342.6 18.4 342.6 18 C 342.6 18 342.6 17.9 342.6 17.9 C 342.6 17.5 342.1 17.3 341.5 17.1 C 340.7 16.9 339.9 16.7 339.9 15.8 C 339.9 15.8 339.9 15.8 339.9 15.8 C 339.9 15 340.6 14.5 341.5 14.5 C 342.1 14.5 342.7 14.7 343.2 15 C 343.2 15 342.9 15.5 342.9 15.5 C 342.4 15.2 341.9 15.1 341.5 15.1 C 340.9 15.1 340.6 15.3 340.6 15.7 C 340.6 15.7 340.6 15.7 340.6 15.7 C 340.6 16.2 341.2 16.4 341.8 16.5 C 342.5 16.8 343.3 17 343.3 17.9 C 343.3 17.9 343.3 17.9 343.3 17.9 C 343.3 18.8 342.5 19.3 341.6 19.3 C 340.9 19.3 340.2 19 339.7 18.6 Z M 344.4 17.8 C 344.4 17.8 344.4 17.8 344.4 17.8 C 344.4 16.9 345.2 16.3 346.4 16.3 C 347 16.3 347.4 16.4 347.8 16.5 C 347.8 16.5 347.8 16.4 347.8 16.4 C 347.8 15.5 347.3 15.1 346.4 15.1 C 345.9 15.1 345.4 15.2 345 15.4 C 345 15.4 344.8 14.9 344.8 14.9 C 345.3 14.6 345.8 14.5 346.5 14.5 C 347.2 14.5 347.7 14.7 348 15 C 348.3 15.3 348.5 15.8 348.5 16.4 C 348.47 16.36 348.5 19.2 348.5 19.2 L 347.8 19.2 C 347.8 19.2 347.81 18.5 347.8 18.5 C 347.5 18.9 346.9 19.3 346.1 19.3 C 345.3 19.3 344.4 18.8 344.4 17.8 Z M 347.8 17.5 C 347.8 17.5 347.8 17 347.8 17 C 347.5 16.9 347 16.8 346.4 16.8 C 345.6 16.8 345.1 17.2 345.1 17.8 C 345.1 17.8 345.1 17.8 345.1 17.8 C 345.1 18.4 345.6 18.8 346.3 18.8 C 347.1 18.8 347.8 18.2 347.8 17.5 Z M 354.1 16.1 C 354.1 16.1 354.1 16.1 354.1 16.1 C 354.1 14.3 355.3 12.8 357.2 12.8 C 358.3 12.8 359 13.1 359.6 13.6 C 359.6 13.6 359.1 14.2 359.1 14.2 C 358.6 13.7 358.1 13.4 357.2 13.4 C 355.8 13.4 354.8 14.6 354.8 16 C 354.8 16 354.8 16.1 354.8 16.1 C 354.8 17.6 355.8 18.7 357.3 18.7 C 358 18.7 358.7 18.4 359.1 18 C 359.13 18.04 359.1 16.5 359.1 16.5 L 357.2 16.5 L 357.2 15.8 L 359.8 15.8 C 359.8 15.8 359.81 18.35 359.8 18.3 C 359.2 18.9 358.3 19.3 357.3 19.3 C 355.3 19.3 354.1 17.9 354.1 16.1 Z M 361.2 16.9 C 361.2 16.9 361.2 16.9 361.2 16.9 C 361.2 15.6 362.2 14.4 363.6 14.4 C 365 14.4 366 15.5 366 16.9 C 366 16.9 366 16.9 366 16.9 C 366 18.2 365 19.3 363.6 19.3 C 362.2 19.3 361.2 18.2 361.2 16.9 Z M 365.3 16.9 C 365.3 16.9 365.3 16.9 365.3 16.9 C 365.3 15.9 364.6 15.1 363.6 15.1 C 362.6 15.1 361.9 15.9 361.9 16.9 C 361.9 16.9 361.9 16.9 361.9 16.9 C 361.9 17.9 362.6 18.7 363.6 18.7 C 364.6 18.7 365.3 17.9 365.3 16.9 Z M 367.5 12.6 L 368.2 12.6 L 368.2 17.2 L 370.7 14.5 L 371.5 14.5 L 369.6 16.5 L 371.6 19.2 L 370.8 19.2 L 369.1 17 L 368.2 18 L 368.2 19.2 L 367.5 19.2 L 367.5 12.6 Z M 372.3 16.9 C 372.3 16.9 372.3 16.9 372.3 16.9 C 372.3 15.6 373.3 14.4 374.7 14.4 C 376.1 14.4 377.1 15.5 377.1 16.9 C 377.1 16.9 377.1 16.9 377.1 16.9 C 377.1 18.2 376.1 19.3 374.7 19.3 C 373.3 19.3 372.3 18.2 372.3 16.9 Z M 376.4 16.9 C 376.4 16.9 376.4 16.9 376.4 16.9 C 376.4 15.9 375.7 15.1 374.7 15.1 C 373.7 15.1 373 15.9 373 16.9 C 373 16.9 373 16.9 373 16.9 C 373 17.9 373.7 18.7 374.7 18.7 C 375.7 18.7 376.4 17.9 376.4 16.9 Z M 378.5 14.5 L 379.2 14.5 C 379.2 14.5 379.23 15.36 379.2 15.4 C 379.5 14.9 380 14.4 380.8 14.4 C 382 14.4 382.6 15.2 382.6 16.3 C 382.61 16.31 382.6 19.2 382.6 19.2 L 381.9 19.2 C 381.9 19.2 381.92 16.48 381.9 16.5 C 381.9 15.6 381.4 15.1 380.6 15.1 C 379.8 15.1 379.2 15.7 379.2 16.5 C 379.23 16.54 379.2 19.2 379.2 19.2 L 378.5 19.2 L 378.5 14.5 Z M 384.2 20 C 384.2 20 384.5 19.5 384.5 19.5 C 385.1 19.9 385.7 20.1 386.3 20.1 C 387.3 20.1 388 19.5 388 18.4 C 388 18.4 388 17.9 388 17.9 C 387.6 18.4 387 18.8 386.2 18.8 C 385.1 18.8 384 18 384 16.7 C 384 16.7 384 16.6 384 16.6 C 384 15.3 385.1 14.4 386.2 14.4 C 387.1 14.4 387.6 14.9 388 15.4 C 388 15.38 388 14.5 388 14.5 L 388.7 14.5 C 388.7 14.5 388.69 18.39 388.7 18.4 C 388.7 19.1 388.5 19.7 388.1 20 C 387.7 20.5 387.1 20.7 386.3 20.7 C 385.6 20.7 384.8 20.4 384.2 20 Z M 388 16.7 C 388 16.7 388 16.6 388 16.6 C 388 15.7 387.2 15.1 386.3 15.1 C 385.4 15.1 384.7 15.7 384.7 16.6 C 384.7 16.6 384.7 16.6 384.7 16.6 C 384.7 17.6 385.5 18.2 386.3 18.2 C 387.2 18.2 388 17.6 388 16.7 Z M 390 14.5 L 390.8 14.5 L 392 18.3 L 393.2 14.5 L 393.8 14.5 L 395.1 18.3 L 396.3 14.5 L 397 14.5 L 395.4 19.2 L 394.8 19.2 L 393.5 15.6 L 392.3 19.2 L 391.7 19.2 L 390 14.5 Z M 397.8 16.9 C 397.8 16.9 397.8 16.9 397.8 16.9 C 397.8 15.5 398.8 14.4 400.1 14.4 C 401.4 14.4 402.2 15.5 402.2 16.9 C 402.2 17 402.2 17 402.2 17.1 C 402.2 17.1 398.5 17.1 398.5 17.1 C 398.6 18.1 399.3 18.7 400.2 18.7 C 400.8 18.7 401.3 18.4 401.6 18 C 401.6 18 402.1 18.4 402.1 18.4 C 401.6 19 401 19.3 400.2 19.3 C 398.9 19.3 397.8 18.3 397.8 16.9 Z M 401.5 16.6 C 401.5 15.8 401 15 400.1 15 C 399.2 15 398.6 15.7 398.5 16.6 C 398.5 16.6 401.5 16.6 401.5 16.6 Z M 403.7 12.8 L 404.4 12.8 L 404.4 13.5 L 403.7 13.5 L 403.7 12.8 Z M 403.7 14.5 L 404.4 14.5 L 404.4 19.2 L 403.7 19.2 L 403.7 14.5 Z M 410.1 16.1 C 410.1 16.1 410.1 16 410.1 16 C 410.1 14.3 411.5 12.8 413.3 12.8 C 414.5 12.8 415.1 13.2 415.8 13.8 C 415.8 13.8 415.3 14.3 415.3 14.3 C 414.8 13.8 414.2 13.4 413.3 13.4 C 411.9 13.4 410.9 14.6 410.9 16 C 410.9 16 410.9 16 410.9 16 C 410.9 17.5 411.9 18.7 413.3 18.7 C 414.2 18.7 414.7 18.3 415.3 17.7 C 415.3 17.7 415.8 18.2 415.8 18.2 C 415.2 18.9 414.4 19.3 413.3 19.3 C 411.5 19.3 410.1 17.9 410.1 16.1 Z M 416.7 16.9 C 416.7 16.9 416.7 16.9 416.7 16.9 C 416.7 15.6 417.8 14.4 419.2 14.4 C 420.6 14.4 421.6 15.5 421.6 16.9 C 421.6 16.9 421.6 16.9 421.6 16.9 C 421.6 18.2 420.6 19.3 419.1 19.3 C 417.8 19.3 416.7 18.2 416.7 16.9 Z M 420.9 16.9 C 420.9 16.9 420.9 16.9 420.9 16.9 C 420.9 15.9 420.1 15.1 419.1 15.1 C 418.1 15.1 417.4 15.9 417.4 16.9 C 417.4 16.9 417.4 16.9 417.4 16.9 C 417.4 17.9 418.2 18.7 419.2 18.7 C 420.2 18.7 420.9 17.9 420.9 16.9 Z M 423.1 12.6 L 423.8 12.6 L 423.8 19.2 L 423.1 19.2 L 423.1 12.6 Z M 425.6 12.6 L 426.3 12.6 L 426.3 19.2 L 425.6 19.2 L 425.6 12.6 Z M 427.8 16.9 C 427.8 16.9 427.8 16.9 427.8 16.9 C 427.8 15.5 428.8 14.4 430.1 14.4 C 431.4 14.4 432.2 15.5 432.2 16.9 C 432.2 17 432.2 17 432.2 17.1 C 432.2 17.1 428.5 17.1 428.5 17.1 C 428.6 18.1 429.3 18.7 430.2 18.7 C 430.8 18.7 431.3 18.4 431.6 18 C 431.6 18 432.1 18.4 432.1 18.4 C 431.6 19 431 19.3 430.1 19.3 C 428.9 19.3 427.8 18.3 427.8 16.9 Z M 431.5 16.6 C 431.5 15.8 431 15 430 15 C 429.2 15 428.6 15.7 428.5 16.6 C 428.5 16.6 431.5 16.6 431.5 16.6 Z M 433.6 20 C 433.6 20 433.9 19.5 433.9 19.5 C 434.4 19.9 435 20.1 435.7 20.1 C 436.7 20.1 437.4 19.5 437.4 18.4 C 437.4 18.4 437.4 17.9 437.4 17.9 C 437 18.4 436.4 18.8 435.5 18.8 C 434.4 18.8 433.4 18 433.4 16.7 C 433.4 16.7 433.4 16.6 433.4 16.6 C 433.4 15.3 434.4 14.4 435.5 14.4 C 436.4 14.4 437 14.9 437.4 15.4 C 437.36 15.38 437.4 14.5 437.4 14.5 L 438 14.5 C 438 14.5 438.05 18.39 438 18.4 C 438 19.1 437.8 19.7 437.5 20 C 437 20.5 436.4 20.7 435.7 20.7 C 434.9 20.7 434.2 20.4 433.6 20 Z M 437.4 16.7 C 437.4 16.7 437.4 16.6 437.4 16.6 C 437.4 15.7 436.6 15.1 435.7 15.1 C 434.8 15.1 434.1 15.7 434.1 16.6 C 434.1 16.6 434.1 16.6 434.1 16.6 C 434.1 17.6 434.8 18.2 435.7 18.2 C 436.6 18.2 437.4 17.6 437.4 16.7 Z M 439.5 16.9 C 439.5 16.9 439.5 16.9 439.5 16.9 C 439.5 15.5 440.4 14.4 441.7 14.4 C 443.1 14.4 443.9 15.5 443.9 16.9 C 443.9 17 443.9 17 443.9 17.1 C 443.9 17.1 440.2 17.1 440.2 17.1 C 440.3 18.1 441 18.7 441.8 18.7 C 442.5 18.7 442.9 18.4 443.3 18 C 443.3 18 443.7 18.4 443.7 18.4 C 443.3 19 442.7 19.3 441.8 19.3 C 440.5 19.3 439.5 18.3 439.5 16.9 Z M 443.2 16.6 C 443.1 15.8 442.6 15 441.7 15 C 440.9 15 440.3 15.7 440.2 16.6 C 440.2 16.6 443.2 16.6 443.2 16.6 Z M 449.1 16.9 C 449.1 16.9 449.1 16.9 449.1 16.9 C 449.1 15.6 450.1 14.4 451.5 14.4 C 452.9 14.4 454 15.5 454 16.9 C 454 16.9 454 16.9 454 16.9 C 454 18.2 452.9 19.3 451.5 19.3 C 450.1 19.3 449.1 18.2 449.1 16.9 Z M 453.2 16.9 C 453.2 16.9 453.2 16.9 453.2 16.9 C 453.2 15.9 452.5 15.1 451.5 15.1 C 450.5 15.1 449.8 15.9 449.8 16.9 C 449.8 16.9 449.8 16.9 449.8 16.9 C 449.8 17.9 450.6 18.7 451.5 18.7 C 452.5 18.7 453.2 17.9 453.2 16.9 Z M 455.7 15.1 L 455 15.1 L 455 14.5 L 455.7 14.5 C 455.7 14.5 455.65 14.14 455.7 14.1 C 455.7 13.6 455.8 13.2 456.1 13 C 456.3 12.7 456.6 12.6 457.1 12.6 C 457.4 12.6 457.6 12.6 457.8 12.7 C 457.8 12.7 457.8 13.3 457.8 13.3 C 457.6 13.2 457.4 13.2 457.1 13.2 C 456.6 13.2 456.3 13.5 456.3 14.2 C 456.34 14.19 456.3 14.6 456.3 14.6 L 457.8 14.6 L 457.8 15.1 L 456.3 15.1 L 456.3 19.2 L 455.7 19.2 L 455.7 15.1 Z " stroke="none" fill="#fff"/>
  </g>
  <g id="Polygon25155">
    <path d="M 2.6 1.6 L 0.4 1.6 L 0.4 0.9 L 5.4 0.9 L 5.4 1.6 L 3.3 1.6 L 3.3 7.2 L 2.6 7.2 L 2.6 1.6 Z M 7 0.9 L 7.7 0.9 L 7.7 7.2 L 7 7.2 L 7 0.9 Z M 9.7 0.9 L 10.4 0.9 L 14.3 5.9 L 14.3 0.9 L 15 0.9 L 15 7.2 L 14.5 7.2 L 10.4 2 L 10.4 7.2 L 9.7 7.2 L 9.7 0.9 Z M 17.1 0.9 L 17.8 0.9 L 17.8 7.2 L 17.1 7.2 L 17.1 0.9 Z M 21.5 1.6 L 19.3 1.6 L 19.3 0.9 L 24.3 0.9 L 24.3 1.6 L 22.2 1.6 L 22.2 7.2 L 21.5 7.2 L 21.5 1.6 Z M 25.9 0.9 L 26.6 0.9 L 26.6 7.2 L 25.9 7.2 L 25.9 0.9 Z M 28.6 0.9 L 29.3 0.9 L 33.2 5.9 L 33.2 0.9 L 33.9 0.9 L 33.9 7.2 L 33.4 7.2 L 29.3 2 L 29.3 7.2 L 28.6 7.2 L 28.6 0.9 Z M 35.6 4.1 C 35.6 4.1 35.6 4.1 35.6 4.1 C 35.6 2.3 36.9 0.8 38.8 0.8 C 39.8 0.8 40.5 1.1 41.1 1.6 C 41.1 1.6 40.7 2.2 40.7 2.2 C 40.2 1.7 39.6 1.4 38.7 1.4 C 37.3 1.4 36.3 2.6 36.3 4 C 36.3 4 36.3 4.1 36.3 4.1 C 36.3 5.6 37.3 6.7 38.8 6.7 C 39.6 6.7 40.2 6.4 40.7 6 C 40.66 6.04 40.7 4.5 40.7 4.5 L 38.7 4.5 L 38.7 3.8 L 41.3 3.8 C 41.3 3.8 41.34 6.35 41.3 6.3 C 40.8 6.9 39.9 7.3 38.8 7.3 C 36.8 7.3 35.6 5.9 35.6 4.1 Z M 43.1 0.9 L 43.8 0.9 L 47.8 5.9 L 47.8 0.9 L 48.5 0.9 L 48.5 7.2 L 47.9 7.2 L 43.8 2 L 43.8 7.2 L 43.1 7.2 L 43.1 0.9 Z M 52.7 0.9 L 53.4 0.9 L 56.3 7.2 L 55.5 7.2 L 54.8 5.5 L 51.4 5.5 L 50.6 7.2 L 49.9 7.2 L 52.7 0.9 Z M 54.5 4.9 L 53.1 1.7 L 51.6 4.9 L 54.5 4.9 Z M 57.7 0.9 L 58.4 0.9 L 62.3 5.9 L 62.3 0.9 L 63 0.9 L 63 7.2 L 62.5 7.2 L 58.4 2 L 58.4 7.2 L 57.7 7.2 L 57.7 0.9 Z M 70.3 2.5 L 71 2.5 C 71 2.5 71.02 3.36 71 3.4 C 71.3 2.9 71.8 2.4 72.6 2.4 C 73.7 2.4 74.4 3.2 74.4 4.3 C 74.4 4.31 74.4 7.2 74.4 7.2 L 73.7 7.2 C 73.7 7.2 73.7 4.48 73.7 4.5 C 73.7 3.6 73.2 3.1 72.4 3.1 C 71.6 3.1 71 3.7 71 4.5 C 71.02 4.54 71 7.2 71 7.2 L 70.3 7.2 L 70.3 2.5 Z M 75.7 5.8 C 75.7 5.8 75.7 5.8 75.7 5.8 C 75.7 4.9 76.5 4.3 77.7 4.3 C 78.3 4.3 78.7 4.4 79.1 4.5 C 79.1 4.5 79.1 4.4 79.1 4.4 C 79.1 3.5 78.6 3.1 77.7 3.1 C 77.2 3.1 76.8 3.2 76.3 3.4 C 76.3 3.4 76.1 2.9 76.1 2.9 C 76.6 2.6 77.1 2.5 77.8 2.5 C 78.5 2.5 79 2.7 79.3 3 C 79.6 3.3 79.8 3.8 79.8 4.4 C 79.79 4.36 79.8 7.2 79.8 7.2 L 79.1 7.2 C 79.1 7.2 79.12 6.5 79.1 6.5 C 78.8 6.9 78.3 7.3 77.4 7.3 C 76.6 7.3 75.7 6.8 75.7 5.8 Z M 79.1 5.5 C 79.1 5.5 79.1 5 79.1 5 C 78.8 4.9 78.3 4.8 77.8 4.8 C 76.9 4.8 76.4 5.2 76.4 5.8 C 76.4 5.8 76.4 5.8 76.4 5.8 C 76.4 6.4 76.9 6.8 77.6 6.8 C 78.4 6.8 79.1 6.2 79.1 5.5 Z M 86.5 5.8 C 86.5 5.8 86.5 5.8 86.5 5.8 C 86.5 4.9 87.4 4.3 88.5 4.3 C 89.1 4.3 89.5 4.4 90 4.5 C 90 4.5 90 4.4 90 4.4 C 90 3.5 89.4 3.1 88.6 3.1 C 88 3.1 87.6 3.2 87.2 3.4 C 87.2 3.4 87 2.9 87 2.9 C 87.5 2.6 88 2.5 88.6 2.5 C 89.3 2.5 89.8 2.7 90.2 3 C 90.5 3.3 90.6 3.8 90.6 4.4 C 90.63 4.36 90.6 7.2 90.6 7.2 L 90 7.2 C 90 7.2 89.96 6.5 90 6.5 C 89.6 6.9 89.1 7.3 88.3 7.3 C 87.4 7.3 86.5 6.8 86.5 5.8 Z M 90 5.5 C 90 5.5 90 5 90 5 C 89.6 4.9 89.2 4.8 88.6 4.8 C 87.7 4.8 87.2 5.2 87.2 5.8 C 87.2 5.8 87.2 5.8 87.2 5.8 C 87.2 6.4 87.8 6.8 88.4 6.8 C 89.3 6.8 90 6.2 90 5.5 Z M 92.3 2.5 L 93 2.5 C 93 2.5 92.98 3.36 93 3.4 C 93.3 2.9 93.8 2.4 94.6 2.4 C 95.7 2.4 96.4 3.2 96.4 4.3 C 96.35 4.31 96.4 7.2 96.4 7.2 L 95.7 7.2 C 95.7 7.2 95.66 4.48 95.7 4.5 C 95.7 3.6 95.2 3.1 94.4 3.1 C 93.6 3.1 93 3.7 93 4.5 C 92.98 4.54 93 7.2 93 7.2 L 92.3 7.2 L 92.3 2.5 Z M 98 8 C 98 8 98.3 7.5 98.3 7.5 C 98.8 7.9 99.4 8.1 100.1 8.1 C 101.1 8.1 101.8 7.5 101.8 6.4 C 101.8 6.4 101.8 5.9 101.8 5.9 C 101.3 6.4 100.8 6.8 99.9 6.8 C 98.8 6.8 97.7 6 97.7 4.7 C 97.7 4.7 97.7 4.6 97.7 4.6 C 97.7 3.3 98.8 2.4 99.9 2.4 C 100.8 2.4 101.4 2.9 101.7 3.4 C 101.74 3.38 101.7 2.5 101.7 2.5 L 102.4 2.5 C 102.4 2.5 102.44 6.39 102.4 6.4 C 102.4 7.1 102.2 7.7 101.8 8 C 101.4 8.5 100.8 8.7 100.1 8.7 C 99.3 8.7 98.6 8.4 98 8 Z M 101.8 4.7 C 101.8 4.7 101.8 4.6 101.8 4.6 C 101.8 3.7 100.9 3.1 100.1 3.1 C 99.2 3.1 98.4 3.7 98.4 4.6 C 98.4 4.6 98.4 4.6 98.4 4.6 C 98.4 5.6 99.2 6.2 100.1 6.2 C 100.9 6.2 101.8 5.6 101.8 4.7 Z M 109.6 2.5 L 110.3 2.5 C 110.3 2.5 110.31 3.48 110.3 3.5 C 110.7 2.9 111.2 2.4 112.1 2.4 C 113.2 2.4 114.3 3.3 114.3 4.9 C 114.3 4.9 114.3 4.9 114.3 4.9 C 114.3 6.4 113.2 7.3 112.1 7.3 C 111.2 7.3 110.7 6.8 110.3 6.3 C 110.31 6.31 110.3 8.6 110.3 8.6 L 109.6 8.6 L 109.6 2.5 Z M 113.6 4.9 C 113.6 4.9 113.6 4.9 113.6 4.9 C 113.6 3.8 112.8 3.1 112 3.1 C 111.1 3.1 110.3 3.8 110.3 4.9 C 110.3 4.9 110.3 4.9 110.3 4.9 C 110.3 6 111.1 6.7 112 6.7 C 112.9 6.7 113.6 6 113.6 4.9 Z M 115.5 4.9 C 115.5 4.9 115.5 4.9 115.5 4.9 C 115.5 3.6 116.5 2.4 117.9 2.4 C 119.3 2.4 120.3 3.5 120.3 4.9 C 120.3 4.9 120.3 4.9 120.3 4.9 C 120.3 6.2 119.3 7.3 117.9 7.3 C 116.5 7.3 115.5 6.2 115.5 4.9 Z M 119.6 4.9 C 119.6 4.9 119.6 4.9 119.6 4.9 C 119.6 3.9 118.9 3.1 117.9 3.1 C 116.9 3.1 116.2 3.9 116.2 4.9 C 116.2 4.9 116.2 4.9 116.2 4.9 C 116.2 5.9 116.9 6.7 117.9 6.7 C 118.9 6.7 119.6 5.9 119.6 4.9 Z M 121.4 6.6 C 121.4 6.6 121.7 6.1 121.7 6.1 C 122.2 6.5 122.8 6.7 123.3 6.7 C 123.9 6.7 124.3 6.4 124.3 6 C 124.3 6 124.3 5.9 124.3 5.9 C 124.3 5.5 123.8 5.3 123.1 5.1 C 122.4 4.9 121.6 4.7 121.6 3.8 C 121.6 3.8 121.6 3.8 121.6 3.8 C 121.6 3 122.3 2.5 123.2 2.5 C 123.8 2.5 124.4 2.7 124.9 3 C 124.9 3 124.5 3.5 124.5 3.5 C 124.1 3.2 123.6 3.1 123.2 3.1 C 122.6 3.1 122.3 3.3 122.3 3.7 C 122.3 3.7 122.3 3.7 122.3 3.7 C 122.3 4.2 122.8 4.4 123.5 4.5 C 124.2 4.8 125 5 125 5.9 C 125 5.9 125 5.9 125 5.9 C 125 6.8 124.2 7.3 123.3 7.3 C 122.6 7.3 121.9 7 121.4 6.6 Z M 126.4 0.8 L 127.2 0.8 L 127.2 1.5 L 126.4 1.5 L 126.4 0.8 Z M 126.5 2.5 L 127.2 2.5 L 127.2 7.2 L 126.5 7.2 L 126.5 2.5 Z M 129.7 6.3 C 129.66 6.31 129.7 7.2 129.7 7.2 L 129 7.2 L 129 0.6 L 129.7 0.6 C 129.7 0.6 129.66 3.48 129.7 3.5 C 130 2.9 130.6 2.4 131.4 2.4 C 132.6 2.4 133.7 3.3 133.7 4.9 C 133.7 4.9 133.7 4.9 133.7 4.9 C 133.7 6.4 132.6 7.3 131.4 7.3 C 130.6 7.3 130 6.8 129.7 6.3 Z M 133 4.9 C 133 4.9 133 4.9 133 4.9 C 133 3.8 132.2 3.1 131.3 3.1 C 130.5 3.1 129.6 3.8 129.6 4.9 C 129.6 4.9 129.6 4.9 129.6 4.9 C 129.6 6 130.5 6.7 131.3 6.7 C 132.2 6.7 133 6 133 4.9 Z M 135.1 0.8 L 135.9 0.8 L 135.9 1.5 L 135.1 1.5 L 135.1 0.8 Z M 135.2 2.5 L 135.9 2.5 L 135.9 7.2 L 135.2 7.2 L 135.2 2.5 Z M 137.7 0.6 L 138.4 0.6 L 138.4 7.2 L 137.7 7.2 L 137.7 0.6 Z M 140.2 0.8 L 141 0.8 L 141 1.5 L 140.2 1.5 L 140.2 0.8 Z M 140.3 2.5 L 141 2.5 L 141 7.2 L 140.3 7.2 L 140.3 2.5 Z M 142.5 4.9 C 142.5 4.9 142.5 4.9 142.5 4.9 C 142.5 3.3 143.6 2.4 144.7 2.4 C 145.6 2.4 146.1 2.9 146.5 3.4 C 146.5 3.44 146.5 0.6 146.5 0.6 L 147.2 0.6 L 147.2 7.2 L 146.5 7.2 C 146.5 7.2 146.5 6.26 146.5 6.3 C 146.1 6.8 145.6 7.3 144.7 7.3 C 143.6 7.3 142.5 6.4 142.5 4.9 Z M 146.5 4.9 C 146.5 4.9 146.5 4.9 146.5 4.9 C 146.5 3.8 145.7 3.1 144.8 3.1 C 143.9 3.1 143.2 3.7 143.2 4.9 C 143.2 4.9 143.2 4.9 143.2 4.9 C 143.2 6 144 6.7 144.8 6.7 C 145.7 6.7 146.5 5.9 146.5 4.9 Z M 148.6 5.8 C 148.6 5.8 148.6 5.8 148.6 5.8 C 148.6 4.9 149.4 4.3 150.6 4.3 C 151.2 4.3 151.6 4.4 152 4.5 C 152 4.5 152 4.4 152 4.4 C 152 3.5 151.5 3.1 150.6 3.1 C 150.1 3.1 149.6 3.2 149.2 3.4 C 149.2 3.4 149 2.9 149 2.9 C 149.5 2.6 150 2.5 150.7 2.5 C 151.3 2.5 151.8 2.7 152.2 3 C 152.5 3.3 152.7 3.8 152.7 4.4 C 152.66 4.36 152.7 7.2 152.7 7.2 L 152 7.2 C 152 7.2 151.99 6.5 152 6.5 C 151.7 6.9 151.1 7.3 150.3 7.3 C 149.4 7.3 148.6 6.8 148.6 5.8 Z M 152 5.5 C 152 5.5 152 5 152 5 C 151.7 4.9 151.2 4.8 150.6 4.8 C 149.8 4.8 149.3 5.2 149.3 5.8 C 149.3 5.8 149.3 5.8 149.3 5.8 C 149.3 6.4 149.8 6.8 150.4 6.8 C 151.3 6.8 152 6.2 152 5.5 Z M 154 4.9 C 154 4.9 154 4.9 154 4.9 C 154 3.3 155.2 2.4 156.3 2.4 C 157.1 2.4 157.7 2.9 158.1 3.4 C 158.05 3.44 158.1 0.6 158.1 0.6 L 158.7 0.6 L 158.7 7.2 L 158.1 7.2 C 158.1 7.2 158.05 6.26 158.1 6.3 C 157.7 6.8 157.1 7.3 156.3 7.3 C 155.2 7.3 154 6.4 154 4.9 Z M 158.1 4.9 C 158.1 4.9 158.1 4.9 158.1 4.9 C 158.1 3.8 157.3 3.1 156.4 3.1 C 155.5 3.1 154.8 3.7 154.8 4.9 C 154.8 4.9 154.8 4.9 154.8 4.9 C 154.8 6 155.5 6.7 156.4 6.7 C 157.3 6.7 158.1 5.9 158.1 4.9 Z M 165.9 2.5 L 166.6 2.5 C 166.6 2.5 166.61 3.36 166.6 3.4 C 166.9 2.9 167.4 2.4 168.2 2.4 C 169.3 2.4 170 3.2 170 4.3 C 169.99 4.31 170 7.2 170 7.2 L 169.3 7.2 C 169.3 7.2 169.3 4.48 169.3 4.5 C 169.3 3.6 168.8 3.1 168 3.1 C 167.2 3.1 166.6 3.7 166.6 4.5 C 166.61 4.54 166.6 7.2 166.6 7.2 L 165.9 7.2 L 165.9 2.5 Z M 171.6 8 C 171.6 8 171.9 7.5 171.9 7.5 C 172.4 7.9 173 8.1 173.7 8.1 C 174.7 8.1 175.4 7.5 175.4 6.4 C 175.4 6.4 175.4 5.9 175.4 5.9 C 175 6.4 174.4 6.8 173.6 6.8 C 172.4 6.8 171.4 6 171.4 4.7 C 171.4 4.7 171.4 4.6 171.4 4.6 C 171.4 3.3 172.5 2.4 173.6 2.4 C 174.4 2.4 175 2.9 175.4 3.4 C 175.38 3.38 175.4 2.5 175.4 2.5 L 176.1 2.5 C 176.1 2.5 176.07 6.39 176.1 6.4 C 176.1 7.1 175.9 7.7 175.5 8 C 175.1 8.5 174.4 8.7 173.7 8.7 C 172.9 8.7 172.2 8.4 171.6 8 Z M 175.4 4.7 C 175.4 4.7 175.4 4.6 175.4 4.6 C 175.4 3.7 174.6 3.1 173.7 3.1 C 172.8 3.1 172.1 3.7 172.1 4.6 C 172.1 4.6 172.1 4.6 172.1 4.6 C 172.1 5.6 172.8 6.2 173.7 6.2 C 174.6 6.2 175.4 5.6 175.4 4.7 Z M 183.3 2.5 L 183.9 2.5 C 183.9 2.5 183.94 3.33 183.9 3.3 C 184.2 2.9 184.7 2.4 185.4 2.4 C 186.2 2.4 186.7 2.9 186.9 3.4 C 187.3 2.9 187.8 2.4 188.6 2.4 C 189.6 2.4 190.3 3.2 190.3 4.3 C 190.31 4.32 190.3 7.2 190.3 7.2 L 189.6 7.2 C 189.6 7.2 189.61 4.48 189.6 4.5 C 189.6 3.6 189.2 3.1 188.4 3.1 C 187.7 3.1 187.1 3.6 187.1 4.5 C 187.13 4.52 187.1 7.2 187.1 7.2 L 186.4 7.2 C 186.4 7.2 186.44 4.46 186.4 4.5 C 186.4 3.6 186 3.1 185.2 3.1 C 184.5 3.1 183.9 3.7 183.9 4.5 C 183.94 4.54 183.9 7.2 183.9 7.2 L 183.3 7.2 L 183.3 2.5 Z M 191.9 5.4 C 191.92 5.44 191.9 2.5 191.9 2.5 L 192.6 2.5 C 192.6 2.5 192.61 5.27 192.6 5.3 C 192.6 6.1 193.1 6.7 193.9 6.7 C 194.7 6.7 195.3 6.1 195.3 5.2 C 195.29 5.21 195.3 2.5 195.3 2.5 L 196 2.5 L 196 7.2 L 195.3 7.2 C 195.3 7.2 195.29 6.39 195.3 6.4 C 195 6.9 194.5 7.3 193.7 7.3 C 192.6 7.3 191.9 6.5 191.9 5.4 Z M 197.8 0.6 L 198.5 0.6 L 198.5 7.2 L 197.8 7.2 L 197.8 0.6 Z M 200.3 0.8 L 201.1 0.8 L 201.1 1.5 L 200.3 1.5 L 200.3 0.8 Z M 200.3 2.5 L 201 2.5 L 201 7.2 L 200.3 7.2 L 200.3 2.5 Z M 202.8 2.5 L 203.5 2.5 C 203.5 2.5 203.5 3.36 203.5 3.4 C 203.8 2.9 204.3 2.4 205.1 2.4 C 206.2 2.4 206.9 3.2 206.9 4.3 C 206.87 4.31 206.9 7.2 206.9 7.2 L 206.2 7.2 C 206.2 7.2 206.18 4.48 206.2 4.5 C 206.2 3.6 205.7 3.1 204.9 3.1 C 204.1 3.1 203.5 3.7 203.5 4.5 C 203.5 4.54 203.5 7.2 203.5 7.2 L 202.8 7.2 L 202.8 2.5 Z M 208.5 8 C 208.5 8 208.8 7.5 208.8 7.5 C 209.3 7.9 209.9 8.1 210.6 8.1 C 211.6 8.1 212.3 7.5 212.3 6.4 C 212.3 6.4 212.3 5.9 212.3 5.9 C 211.9 6.4 211.3 6.8 210.4 6.8 C 209.3 6.8 208.3 6 208.3 4.7 C 208.3 4.7 208.3 4.6 208.3 4.6 C 208.3 3.3 209.3 2.4 210.4 2.4 C 211.3 2.4 211.9 2.9 212.3 3.4 C 212.27 3.38 212.3 2.5 212.3 2.5 L 213 2.5 C 213 2.5 212.96 6.39 213 6.4 C 213 7.1 212.7 7.7 212.4 8 C 212 8.5 211.3 8.7 210.6 8.7 C 209.8 8.7 209.1 8.4 208.5 8 Z M 212.3 4.7 C 212.3 4.7 212.3 4.6 212.3 4.6 C 212.3 3.7 211.5 3.1 210.6 3.1 C 209.7 3.1 209 3.7 209 4.6 C 209 4.6 209 4.6 209 4.6 C 209 5.6 209.7 6.2 210.6 6.2 C 211.5 6.2 212.3 5.6 212.3 4.7 Z M 220.1 2.5 L 220.8 2.5 C 220.8 2.5 220.83 3.48 220.8 3.5 C 221.2 2.9 221.8 2.4 222.6 2.4 C 223.7 2.4 224.8 3.3 224.8 4.9 C 224.8 4.9 224.8 4.9 224.8 4.9 C 224.8 6.4 223.7 7.3 222.6 7.3 C 221.7 7.3 221.2 6.8 220.8 6.3 C 220.83 6.31 220.8 8.6 220.8 8.6 L 220.1 8.6 L 220.1 2.5 Z M 224.1 4.9 C 224.1 4.9 224.1 4.9 224.1 4.9 C 224.1 3.8 223.4 3.1 222.5 3.1 C 221.6 3.1 220.8 3.8 220.8 4.9 C 220.8 4.9 220.8 4.9 220.8 4.9 C 220.8 6 221.6 6.7 222.5 6.7 C 223.4 6.7 224.1 6 224.1 4.9 Z M 225.9 5.8 C 225.9 5.8 225.9 5.8 225.9 5.8 C 225.9 4.9 226.7 4.3 227.9 4.3 C 228.5 4.3 228.9 4.4 229.4 4.5 C 229.4 4.5 229.4 4.4 229.4 4.4 C 229.4 3.5 228.8 3.1 228 3.1 C 227.4 3.1 227 3.2 226.6 3.4 C 226.6 3.4 226.4 2.9 226.4 2.9 C 226.9 2.6 227.4 2.5 228 2.5 C 228.7 2.5 229.2 2.7 229.5 3 C 229.9 3.3 230 3.8 230 4.4 C 230.03 4.36 230 7.2 230 7.2 L 229.4 7.2 C 229.4 7.2 229.36 6.5 229.4 6.5 C 229 6.9 228.5 7.3 227.7 7.3 C 226.8 7.3 225.9 6.8 225.9 5.8 Z M 229.4 5.5 C 229.4 5.5 229.4 5 229.4 5 C 229 4.9 228.6 4.8 228 4.8 C 227.1 4.8 226.6 5.2 226.6 5.8 C 226.6 5.8 226.6 5.8 226.6 5.8 C 226.6 6.4 227.2 6.8 227.8 6.8 C 228.7 6.8 229.4 6.2 229.4 5.5 Z M 231.6 8 C 231.6 8 231.9 7.5 231.9 7.5 C 232.5 7.9 233.1 8.1 233.7 8.1 C 234.8 8.1 235.4 7.5 235.4 6.4 C 235.4 6.4 235.4 5.9 235.4 5.9 C 235 6.4 234.5 6.8 233.6 6.8 C 232.5 6.8 231.4 6 231.4 4.7 C 231.4 4.7 231.4 4.6 231.4 4.6 C 231.4 3.3 232.5 2.4 233.6 2.4 C 234.5 2.4 235 2.9 235.4 3.4 C 235.42 3.38 235.4 2.5 235.4 2.5 L 236.1 2.5 C 236.1 2.5 236.11 6.39 236.1 6.4 C 236.1 7.1 235.9 7.7 235.5 8 C 235.1 8.5 234.5 8.7 233.7 8.7 C 233 8.7 232.2 8.4 231.6 8 Z M 235.4 4.7 C 235.4 4.7 235.4 4.6 235.4 4.6 C 235.4 3.7 234.6 3.1 233.7 3.1 C 232.9 3.1 232.1 3.7 232.1 4.6 C 232.1 4.6 232.1 4.6 232.1 4.6 C 232.1 5.6 232.9 6.2 233.7 6.2 C 234.6 6.2 235.4 5.6 235.4 4.7 Z M 238.5 6.3 C 238.53 6.31 238.5 7.2 238.5 7.2 L 237.8 7.2 L 237.8 0.6 L 238.5 0.6 C 238.5 0.6 238.53 3.48 238.5 3.5 C 238.9 2.9 239.5 2.4 240.3 2.4 C 241.4 2.4 242.5 3.3 242.5 4.9 C 242.5 4.9 242.5 4.9 242.5 4.9 C 242.5 6.4 241.4 7.3 240.3 7.3 C 239.4 7.3 238.9 6.8 238.5 6.3 Z M 241.8 4.9 C 241.8 4.9 241.8 4.9 241.8 4.9 C 241.8 3.8 241.1 3.1 240.2 3.1 C 239.3 3.1 238.5 3.8 238.5 4.9 C 238.5 4.9 238.5 4.9 238.5 4.9 C 238.5 6 239.3 6.7 240.2 6.7 C 241.1 6.7 241.8 6 241.8 4.9 Z M 243.9 5.4 C 243.92 5.44 243.9 2.5 243.9 2.5 L 244.6 2.5 C 244.6 2.5 244.61 5.27 244.6 5.3 C 244.6 6.1 245.1 6.7 245.9 6.7 C 246.7 6.7 247.3 6.1 247.3 5.2 C 247.3 5.21 247.3 2.5 247.3 2.5 L 248 2.5 L 248 7.2 L 247.3 7.2 C 247.3 7.2 247.3 6.39 247.3 6.4 C 247 6.9 246.5 7.3 245.7 7.3 C 244.6 7.3 243.9 6.5 243.9 5.4 Z M 250.4 6.3 C 250.41 6.31 250.4 7.2 250.4 7.2 L 249.7 7.2 L 249.7 0.6 L 250.4 0.6 C 250.4 0.6 250.41 3.48 250.4 3.5 C 250.8 2.9 251.3 2.4 252.2 2.4 C 253.3 2.4 254.4 3.3 254.4 4.9 C 254.4 4.9 254.4 4.9 254.4 4.9 C 254.4 6.4 253.3 7.3 252.2 7.3 C 251.3 7.3 250.8 6.8 250.4 6.3 Z M 253.7 4.9 C 253.7 4.9 253.7 4.9 253.7 4.9 C 253.7 3.8 252.9 3.1 252.1 3.1 C 251.2 3.1 250.4 3.8 250.4 4.9 C 250.4 4.9 250.4 4.9 250.4 4.9 C 250.4 6 251.2 6.7 252.1 6.7 C 253 6.7 253.7 6 253.7 4.9 Z M 255.8 5.4 C 255.8 5.44 255.8 2.5 255.8 2.5 L 256.5 2.5 C 256.5 2.5 256.49 5.27 256.5 5.3 C 256.5 6.1 257 6.7 257.8 6.7 C 258.6 6.7 259.2 6.1 259.2 5.2 C 259.18 5.21 259.2 2.5 259.2 2.5 L 259.9 2.5 L 259.9 7.2 L 259.2 7.2 C 259.2 7.2 259.18 6.39 259.2 6.4 C 258.9 6.9 258.4 7.3 257.6 7.3 C 256.5 7.3 255.8 6.5 255.8 5.4 Z M 261.6 0.6 L 262.3 0.6 L 262.3 5.2 L 264.8 2.5 L 265.7 2.5 L 263.7 4.5 L 265.7 7.2 L 264.9 7.2 L 263.2 5 L 262.3 6 L 262.3 7.2 L 261.6 7.2 L 261.6 0.6 Z M 266.5 5.8 C 266.5 5.8 266.5 5.8 266.5 5.8 C 266.5 4.9 267.3 4.3 268.4 4.3 C 269 4.3 269.5 4.4 269.9 4.5 C 269.9 4.5 269.9 4.4 269.9 4.4 C 269.9 3.5 269.4 3.1 268.5 3.1 C 267.9 3.1 267.5 3.2 267.1 3.4 C 267.1 3.4 266.9 2.9 266.9 2.9 C 267.4 2.6 267.9 2.5 268.6 2.5 C 269.2 2.5 269.7 2.7 270.1 3 C 270.4 3.3 270.5 3.8 270.5 4.4 C 270.54 4.36 270.5 7.2 270.5 7.2 L 269.9 7.2 C 269.9 7.2 269.88 6.5 269.9 6.5 C 269.6 6.9 269 7.3 268.2 7.3 C 267.3 7.3 266.5 6.8 266.5 5.8 Z M 269.9 5.5 C 269.9 5.5 269.9 5 269.9 5 C 269.5 4.9 269.1 4.8 268.5 4.8 C 267.6 4.8 267.2 5.2 267.2 5.8 C 267.2 5.8 267.2 5.8 267.2 5.8 C 267.2 6.4 267.7 6.8 268.3 6.8 C 269.2 6.8 269.9 6.2 269.9 5.5 Z M 271.8 6.6 C 271.8 6.6 272.2 6.1 272.2 6.1 C 272.7 6.5 273.2 6.7 273.8 6.7 C 274.3 6.7 274.7 6.4 274.7 6 C 274.7 6 274.7 5.9 274.7 5.9 C 274.7 5.5 274.2 5.3 273.6 5.1 C 272.8 4.9 272 4.7 272 3.8 C 272 3.8 272 3.8 272 3.8 C 272 3 272.7 2.5 273.6 2.5 C 274.2 2.5 274.8 2.7 275.3 3 C 275.3 3 275 3.5 275 3.5 C 274.5 3.2 274.1 3.1 273.6 3.1 C 273.1 3.1 272.7 3.3 272.7 3.7 C 272.7 3.7 272.7 3.7 272.7 3.7 C 272.7 4.2 273.3 4.4 273.9 4.5 C 274.6 4.8 275.4 5 275.4 5.9 C 275.4 5.9 275.4 5.9 275.4 5.9 C 275.4 6.8 274.7 7.3 273.7 7.3 C 273.1 7.3 272.3 7 271.8 6.6 Z M 282.3 2.5 L 283 2.5 C 283 2.5 283 3.36 283 3.4 C 283.3 2.9 283.8 2.4 284.6 2.4 C 285.7 2.4 286.4 3.2 286.4 4.3 C 286.38 4.31 286.4 7.2 286.4 7.2 L 285.7 7.2 C 285.7 7.2 285.69 4.48 285.7 4.5 C 285.7 3.6 285.2 3.1 284.4 3.1 C 283.6 3.1 283 3.7 283 4.5 C 283 4.54 283 7.2 283 7.2 L 282.3 7.2 L 282.3 2.5 Z M 288 8 C 288 8 288.3 7.5 288.3 7.5 C 288.8 7.9 289.4 8.1 290.1 8.1 C 291.1 8.1 291.8 7.5 291.8 6.4 C 291.8 6.4 291.8 5.9 291.8 5.9 C 291.4 6.4 290.8 6.8 290 6.8 C 288.8 6.8 287.8 6 287.8 4.7 C 287.8 4.7 287.8 4.6 287.8 4.6 C 287.8 3.3 288.8 2.4 290 2.4 C 290.8 2.4 291.4 2.9 291.8 3.4 C 291.77 3.38 291.8 2.5 291.8 2.5 L 292.5 2.5 C 292.5 2.5 292.46 6.39 292.5 6.4 C 292.5 7.1 292.2 7.7 291.9 8 C 291.5 8.5 290.8 8.7 290.1 8.7 C 289.3 8.7 288.6 8.4 288 8 Z M 291.8 4.7 C 291.8 4.7 291.8 4.6 291.8 4.6 C 291.8 3.7 291 3.1 290.1 3.1 C 289.2 3.1 288.5 3.7 288.5 4.6 C 288.5 4.6 288.5 4.6 288.5 4.6 C 288.5 5.6 289.2 6.2 290.1 6.2 C 291 6.2 291.8 5.6 291.8 4.7 Z M 299.8 0.9 C 299.8 0.9 302.11 0.9 302.1 0.9 C 303.5 0.9 304.5 1.7 304.5 2.9 C 304.5 2.9 304.5 2.9 304.5 2.9 C 304.5 4.3 303.3 5 302 5 C 302 4.98 300.5 5 300.5 5 L 300.5 7.2 L 299.8 7.2 L 299.8 0.9 Z M 302 4.3 C 303.1 4.3 303.8 3.8 303.8 2.9 C 303.8 2.9 303.8 2.9 303.8 2.9 C 303.8 2 303.1 1.6 302.1 1.6 C 302.06 1.56 300.5 1.6 300.5 1.6 L 300.5 4.3 C 300.5 4.3 302.02 4.33 302 4.3 Z M 305.4 5.8 C 305.4 5.8 305.4 5.8 305.4 5.8 C 305.4 4.9 306.2 4.3 307.4 4.3 C 308 4.3 308.4 4.4 308.8 4.5 C 308.8 4.5 308.8 4.4 308.8 4.4 C 308.8 3.5 308.3 3.1 307.4 3.1 C 306.9 3.1 306.4 3.2 306 3.4 C 306 3.4 305.8 2.9 305.8 2.9 C 306.3 2.6 306.8 2.5 307.5 2.5 C 308.2 2.5 308.7 2.7 309 3 C 309.3 3.3 309.5 3.8 309.5 4.4 C 309.48 4.36 309.5 7.2 309.5 7.2 L 308.8 7.2 C 308.8 7.2 308.81 6.5 308.8 6.5 C 308.5 6.9 307.9 7.3 307.1 7.3 C 306.3 7.3 305.4 6.8 305.4 5.8 Z M 308.8 5.5 C 308.8 5.5 308.8 5 308.8 5 C 308.5 4.9 308 4.8 307.5 4.8 C 306.6 4.8 306.1 5.2 306.1 5.8 C 306.1 5.8 306.1 5.8 306.1 5.8 C 306.1 6.4 306.6 6.8 307.3 6.8 C 308.1 6.8 308.8 6.2 308.8 5.5 Z M 311.1 2.5 L 311.8 2.5 C 311.8 2.5 311.83 3.33 311.8 3.3 C 312.1 2.9 312.5 2.4 313.3 2.4 C 314.1 2.4 314.6 2.9 314.8 3.4 C 315.2 2.9 315.7 2.4 316.5 2.4 C 317.5 2.4 318.2 3.2 318.2 4.3 C 318.19 4.32 318.2 7.2 318.2 7.2 L 317.5 7.2 C 317.5 7.2 317.5 4.48 317.5 4.5 C 317.5 3.6 317 3.1 316.3 3.1 C 315.6 3.1 315 3.6 315 4.5 C 315.01 4.52 315 7.2 315 7.2 L 314.3 7.2 C 314.3 7.2 314.32 4.46 314.3 4.5 C 314.3 3.6 313.9 3.1 313.1 3.1 C 312.4 3.1 311.8 3.7 311.8 4.5 C 311.83 4.54 311.8 7.2 311.8 7.2 L 311.1 7.2 L 311.1 2.5 Z M 319.5 5.8 C 319.5 5.8 319.5 5.8 319.5 5.8 C 319.5 4.9 320.3 4.3 321.5 4.3 C 322.1 4.3 322.5 4.4 322.9 4.5 C 322.9 4.5 322.9 4.4 322.9 4.4 C 322.9 3.5 322.4 3.1 321.6 3.1 C 321 3.1 320.6 3.2 320.1 3.4 C 320.1 3.4 319.9 2.9 319.9 2.9 C 320.4 2.6 321 2.5 321.6 2.5 C 322.3 2.5 322.8 2.7 323.1 3 C 323.4 3.3 323.6 3.8 323.6 4.4 C 323.61 4.36 323.6 7.2 323.6 7.2 L 322.9 7.2 C 322.9 7.2 322.94 6.5 322.9 6.5 C 322.6 6.9 322.1 7.3 321.3 7.3 C 320.4 7.3 319.5 6.8 319.5 5.8 Z M 323 5.5 C 323 5.5 323 5 323 5 C 322.6 4.9 322.1 4.8 321.6 4.8 C 320.7 4.8 320.2 5.2 320.2 5.8 C 320.2 5.8 320.2 5.8 320.2 5.8 C 320.2 6.4 320.8 6.8 321.4 6.8 C 322.2 6.8 323 6.2 323 5.5 Z M 325.3 2.5 L 326 2.5 C 326 2.5 325.95 3.36 326 3.4 C 326.3 2.9 326.7 2.4 327.5 2.4 C 328.7 2.4 329.3 3.2 329.3 4.3 C 329.33 4.31 329.3 7.2 329.3 7.2 L 328.6 7.2 C 328.6 7.2 328.64 4.48 328.6 4.5 C 328.6 3.6 328.2 3.1 327.4 3.1 C 326.5 3.1 326 3.7 326 4.5 C 325.95 4.54 326 7.2 326 7.2 L 325.3 7.2 L 325.3 2.5 Z M 331.2 6 C 331.23 5.97 331.2 3.2 331.2 3.2 L 330.6 3.2 L 330.6 2.5 L 331.2 2.5 L 331.2 1.1 L 331.9 1.1 L 331.9 2.5 L 333.4 2.5 L 333.4 3.2 L 331.9 3.2 C 331.9 3.2 331.92 5.88 331.9 5.9 C 331.9 6.4 332.2 6.7 332.7 6.7 C 332.9 6.7 333.1 6.6 333.4 6.5 C 333.4 6.5 333.4 7.1 333.4 7.1 C 333.1 7.2 332.9 7.3 332.5 7.3 C 331.8 7.3 331.2 6.9 331.2 6 Z M 334.5 5.8 C 334.5 5.8 334.5 5.8 334.5 5.8 C 334.5 4.9 335.3 4.3 336.4 4.3 C 337 4.3 337.5 4.4 337.9 4.5 C 337.9 4.5 337.9 4.4 337.9 4.4 C 337.9 3.5 337.4 3.1 336.5 3.1 C 335.9 3.1 335.5 3.2 335.1 3.4 C 335.1 3.4 334.9 2.9 334.9 2.9 C 335.4 2.6 335.9 2.5 336.6 2.5 C 337.2 2.5 337.7 2.7 338.1 3 C 338.4 3.3 338.5 3.8 338.5 4.4 C 338.54 4.36 338.5 7.2 338.5 7.2 L 337.9 7.2 C 337.9 7.2 337.87 6.5 337.9 6.5 C 337.5 6.9 337 7.3 336.2 7.3 C 335.3 7.3 334.5 6.8 334.5 5.8 Z M 337.9 5.5 C 337.9 5.5 337.9 5 337.9 5 C 337.5 4.9 337.1 4.8 336.5 4.8 C 335.6 4.8 335.2 5.2 335.2 5.8 C 335.2 5.8 335.2 5.8 335.2 5.8 C 335.2 6.4 335.7 6.8 336.3 6.8 C 337.2 6.8 337.9 6.2 337.9 5.5 Z M 339.8 6.6 C 339.8 6.6 340.2 6.1 340.2 6.1 C 340.7 6.5 341.2 6.7 341.8 6.7 C 342.3 6.7 342.7 6.4 342.7 6 C 342.7 6 342.7 5.9 342.7 5.9 C 342.7 5.5 342.2 5.3 341.6 5.1 C 340.8 4.9 340 4.7 340 3.8 C 340 3.8 340 3.8 340 3.8 C 340 3 340.7 2.5 341.6 2.5 C 342.2 2.5 342.8 2.7 343.3 3 C 343.3 3 343 3.5 343 3.5 C 342.5 3.2 342 3.1 341.6 3.1 C 341 3.1 340.7 3.3 340.7 3.7 C 340.7 3.7 340.7 3.7 340.7 3.7 C 340.7 4.2 341.3 4.4 341.9 4.5 C 342.6 4.8 343.4 5 343.4 5.9 C 343.4 5.9 343.4 5.9 343.4 5.9 C 343.4 6.8 342.7 7.3 341.7 7.3 C 341.1 7.3 340.3 7 339.8 6.6 Z M 344.5 5.8 C 344.5 5.8 344.5 5.8 344.5 5.8 C 344.5 4.9 345.3 4.3 346.5 4.3 C 347.1 4.3 347.5 4.4 347.9 4.5 C 347.9 4.5 347.9 4.4 347.9 4.4 C 347.9 3.5 347.4 3.1 346.5 3.1 C 346 3.1 345.6 3.2 345.1 3.4 C 345.1 3.4 344.9 2.9 344.9 2.9 C 345.4 2.6 345.9 2.5 346.6 2.5 C 347.3 2.5 347.8 2.7 348.1 3 C 348.4 3.3 348.6 3.8 348.6 4.4 C 348.59 4.36 348.6 7.2 348.6 7.2 L 347.9 7.2 C 347.9 7.2 347.92 6.5 347.9 6.5 C 347.6 6.9 347.1 7.3 346.2 7.3 C 345.4 7.3 344.5 6.8 344.5 5.8 Z M 347.9 5.5 C 347.9 5.5 347.9 5 347.9 5 C 347.6 4.9 347.1 4.8 346.6 4.8 C 345.7 4.8 345.2 5.2 345.2 5.8 C 345.2 5.8 345.2 5.8 345.2 5.8 C 345.2 6.4 345.7 6.8 346.4 6.8 C 347.2 6.8 347.9 6.2 347.9 5.5 Z M 350.2 2.5 L 350.9 2.5 C 350.9 2.5 350.94 3.36 350.9 3.4 C 351.2 2.9 351.7 2.4 352.5 2.4 C 353.7 2.4 354.3 3.2 354.3 4.3 C 354.31 4.31 354.3 7.2 354.3 7.2 L 353.6 7.2 C 353.6 7.2 353.62 4.48 353.6 4.5 C 353.6 3.6 353.2 3.1 352.3 3.1 C 351.5 3.1 350.9 3.7 350.9 4.5 C 350.94 4.54 350.9 7.2 350.9 7.2 L 350.2 7.2 L 350.2 2.5 Z M 355.9 8 C 355.9 8 356.2 7.5 356.2 7.5 C 356.8 7.9 357.4 8.1 358 8.1 C 359 8.1 359.7 7.5 359.7 6.4 C 359.7 6.4 359.7 5.9 359.7 5.9 C 359.3 6.4 358.7 6.8 357.9 6.8 C 356.8 6.8 355.7 6 355.7 4.7 C 355.7 4.7 355.7 4.6 355.7 4.6 C 355.7 3.3 356.8 2.4 357.9 2.4 C 358.8 2.4 359.3 2.9 359.7 3.4 C 359.71 3.38 359.7 2.5 359.7 2.5 L 360.4 2.5 C 360.4 2.5 360.4 6.39 360.4 6.4 C 360.4 7.1 360.2 7.7 359.8 8 C 359.4 8.5 358.8 8.7 358 8.7 C 357.3 8.7 356.5 8.4 355.9 8 Z M 359.7 4.7 C 359.7 4.7 359.7 4.6 359.7 4.6 C 359.7 3.7 358.9 3.1 358 3.1 C 357.1 3.1 356.4 3.7 356.4 4.6 C 356.4 4.6 356.4 4.6 356.4 4.6 C 356.4 5.6 357.2 6.2 358 6.2 C 358.9 6.2 359.7 5.6 359.7 4.7 Z M 367.7 0.9 C 367.7 0.9 369.88 0.9 369.9 0.9 C 371.9 0.9 373.2 2.3 373.2 4 C 373.2 4 373.2 4 373.2 4 C 373.2 5.8 371.9 7.2 369.9 7.2 C 369.88 7.2 367.7 7.2 367.7 7.2 L 367.7 0.9 Z M 368.4 1.6 L 368.4 6.5 C 368.4 6.5 369.88 6.54 369.9 6.5 C 371.5 6.5 372.5 5.5 372.5 4.1 C 372.5 4.1 372.5 4 372.5 4 C 372.5 2.7 371.5 1.6 369.9 1.6 C 369.88 1.56 368.4 1.6 368.4 1.6 Z M 374.5 4.9 C 374.5 4.9 374.5 4.9 374.5 4.9 C 374.5 3.5 375.4 2.4 376.7 2.4 C 378.1 2.4 378.9 3.5 378.9 4.9 C 378.9 5 378.9 5 378.9 5.1 C 378.9 5.1 375.2 5.1 375.2 5.1 C 375.3 6.1 376 6.7 376.8 6.7 C 377.5 6.7 377.9 6.4 378.3 6 C 378.3 6 378.7 6.4 378.7 6.4 C 378.3 7 377.7 7.3 376.8 7.3 C 375.5 7.3 374.5 6.3 374.5 4.9 Z M 378.2 4.6 C 378.1 3.8 377.6 3 376.7 3 C 375.9 3 375.3 3.7 375.2 4.6 C 375.2 4.6 378.2 4.6 378.2 4.6 Z M 385.9 0.9 L 386.6 0.9 L 386.6 6.5 L 390.1 6.5 L 390.1 7.2 L 385.9 7.2 L 385.9 0.9 Z M 391.2 5.8 C 391.2 5.8 391.2 5.8 391.2 5.8 C 391.2 4.9 392 4.3 393.1 4.3 C 393.7 4.3 394.2 4.4 394.6 4.5 C 394.6 4.5 394.6 4.4 394.6 4.4 C 394.6 3.5 394.1 3.1 393.2 3.1 C 392.6 3.1 392.2 3.2 391.8 3.4 C 391.8 3.4 391.6 2.9 391.6 2.9 C 392.1 2.6 392.6 2.5 393.3 2.5 C 393.9 2.5 394.4 2.7 394.8 3 C 395.1 3.3 395.2 3.8 395.2 4.4 C 395.24 4.36 395.2 7.2 395.2 7.2 L 394.6 7.2 C 394.6 7.2 394.57 6.5 394.6 6.5 C 394.2 6.9 393.7 7.3 392.9 7.3 C 392 7.3 391.2 6.8 391.2 5.8 Z M 394.6 5.5 C 394.6 5.5 394.6 5 394.6 5 C 394.2 4.9 393.8 4.8 393.2 4.8 C 392.3 4.8 391.9 5.2 391.9 5.8 C 391.9 5.8 391.9 5.8 391.9 5.8 C 391.9 6.4 392.4 6.8 393 6.8 C 393.9 6.8 394.6 6.2 394.6 5.5 Z M 402 6.3 C 402 6.3 402.5 5.8 402.5 5.8 C 403.1 6.4 403.8 6.7 404.6 6.7 C 405.5 6.7 406.1 6.2 406.1 5.6 C 406.1 5.6 406.1 5.6 406.1 5.6 C 406.1 5 405.7 4.6 404.4 4.4 C 403 4 402.3 3.6 402.3 2.5 C 402.3 2.5 402.3 2.5 402.3 2.5 C 402.3 1.5 403.2 0.8 404.4 0.8 C 405.3 0.8 405.9 1.1 406.6 1.6 C 406.6 1.6 406.2 2.1 406.2 2.1 C 405.6 1.7 405 1.4 404.3 1.4 C 403.5 1.4 403 1.9 403 2.5 C 403 2.5 403 2.5 403 2.5 C 403 3.1 403.3 3.4 404.7 3.7 C 406.1 4 406.8 4.5 406.8 5.5 C 406.8 5.5 406.8 5.5 406.8 5.5 C 406.8 6.6 405.9 7.3 404.6 7.3 C 403.6 7.3 402.8 7 402 6.3 Z M 407.9 5.8 C 407.9 5.8 407.9 5.8 407.9 5.8 C 407.9 4.9 408.7 4.3 409.9 4.3 C 410.5 4.3 410.9 4.4 411.4 4.5 C 411.4 4.5 411.4 4.4 411.4 4.4 C 411.4 3.5 410.8 3.1 410 3.1 C 409.4 3.1 409 3.2 408.6 3.4 C 408.6 3.4 408.3 2.9 408.3 2.9 C 408.9 2.6 409.4 2.5 410 2.5 C 410.7 2.5 411.2 2.7 411.5 3 C 411.9 3.3 412 3.8 412 4.4 C 412.02 4.36 412 7.2 412 7.2 L 411.4 7.2 C 411.4 7.2 411.35 6.5 411.4 6.5 C 411 6.9 410.5 7.3 409.7 7.3 C 408.8 7.3 407.9 6.8 407.9 5.8 Z M 411.4 5.5 C 411.4 5.5 411.4 5 411.4 5 C 411 4.9 410.6 4.8 410 4.8 C 409.1 4.8 408.6 5.2 408.6 5.8 C 408.6 5.8 408.6 5.8 408.6 5.8 C 408.6 6.4 409.2 6.8 409.8 6.8 C 410.7 6.8 411.4 6.2 411.4 5.5 Z M 413.7 0.6 L 414.4 0.6 L 414.4 7.2 L 413.7 7.2 L 413.7 0.6 Z M 416.3 0.6 L 417 0.6 L 417 7.2 L 416.3 7.2 L 416.3 0.6 Z M 418.5 4.9 C 418.5 4.9 418.5 4.9 418.5 4.9 C 418.5 3.5 419.4 2.4 420.7 2.4 C 422.1 2.4 422.9 3.5 422.9 4.9 C 422.9 5 422.9 5 422.9 5.1 C 422.9 5.1 419.2 5.1 419.2 5.1 C 419.3 6.1 420 6.7 420.8 6.7 C 421.5 6.7 421.9 6.4 422.3 6 C 422.3 6 422.7 6.4 422.7 6.4 C 422.2 7 421.7 7.3 420.8 7.3 C 419.5 7.3 418.5 6.3 418.5 4.9 Z M 422.2 4.6 C 422.1 3.8 421.6 3 420.7 3 C 419.9 3 419.3 3.7 419.2 4.6 C 419.2 4.6 422.2 4.6 422.2 4.6 Z M 429.7 5.4 C 429.65 5.44 429.7 2.5 429.7 2.5 L 430.3 2.5 C 430.3 2.5 430.34 5.27 430.3 5.3 C 430.3 6.1 430.8 6.7 431.6 6.7 C 432.4 6.7 433 6.1 433 5.2 C 433.03 5.21 433 2.5 433 2.5 L 433.7 2.5 L 433.7 7.2 L 433 7.2 C 433 7.2 433.03 6.39 433 6.4 C 432.7 6.9 432.2 7.3 431.4 7.3 C 430.3 7.3 429.7 6.5 429.7 5.4 Z M 435.4 2.5 L 436.1 2.5 C 436.1 2.5 436.14 3.48 436.1 3.5 C 436.5 2.9 437.1 2.4 437.9 2.4 C 439 2.4 440.1 3.3 440.1 4.9 C 440.1 4.9 440.1 4.9 440.1 4.9 C 440.1 6.4 439 7.3 437.9 7.3 C 437.1 7.3 436.5 6.8 436.1 6.3 C 436.14 6.31 436.1 8.6 436.1 8.6 L 435.4 8.6 L 435.4 2.5 Z M 439.4 4.9 C 439.4 4.9 439.4 4.9 439.4 4.9 C 439.4 3.8 438.7 3.1 437.8 3.1 C 436.9 3.1 436.1 3.8 436.1 4.9 C 436.1 4.9 436.1 4.9 436.1 4.9 C 436.1 6 436.9 6.7 437.8 6.7 C 438.7 6.7 439.4 6 439.4 4.9 Z M 441.3 5.8 C 441.3 5.8 441.3 5.8 441.3 5.8 C 441.3 4.9 442.1 4.3 443.2 4.3 C 443.8 4.3 444.3 4.4 444.7 4.5 C 444.7 4.5 444.7 4.4 444.7 4.4 C 444.7 3.5 444.2 3.1 443.3 3.1 C 442.7 3.1 442.3 3.2 441.9 3.4 C 441.9 3.4 441.7 2.9 441.7 2.9 C 442.2 2.6 442.7 2.5 443.4 2.5 C 444 2.5 444.5 2.7 444.9 3 C 445.2 3.3 445.3 3.8 445.3 4.4 C 445.34 4.36 445.3 7.2 445.3 7.2 L 444.7 7.2 C 444.7 7.2 444.67 6.5 444.7 6.5 C 444.3 6.9 443.8 7.3 443 7.3 C 442.1 7.3 441.3 6.8 441.3 5.8 Z M 444.7 5.5 C 444.7 5.5 444.7 5 444.7 5 C 444.3 4.9 443.9 4.8 443.3 4.8 C 442.4 4.8 442 5.2 442 5.8 C 442 5.8 442 5.8 442 5.8 C 442 6.4 442.5 6.8 443.1 6.8 C 444 6.8 444.7 6.2 444.7 5.5 Z M 447 2.5 L 447.7 2.5 C 447.7 2.5 447.69 3.36 447.7 3.4 C 448 2.9 448.5 2.4 449.3 2.4 C 450.4 2.4 451.1 3.2 451.1 4.3 C 451.06 4.31 451.1 7.2 451.1 7.2 L 450.4 7.2 C 450.4 7.2 450.37 4.48 450.4 4.5 C 450.4 3.6 449.9 3.1 449.1 3.1 C 448.3 3.1 447.7 3.7 447.7 4.5 C 447.69 4.54 447.7 7.2 447.7 7.2 L 447 7.2 L 447 2.5 Z M 452.7 8 C 452.7 8 453 7.5 453 7.5 C 453.5 7.9 454.1 8.1 454.8 8.1 C 455.8 8.1 456.5 7.5 456.5 6.4 C 456.5 6.4 456.5 5.9 456.5 5.9 C 456.1 6.4 455.5 6.8 454.6 6.8 C 453.5 6.8 452.4 6 452.4 4.7 C 452.4 4.7 452.4 4.6 452.4 4.6 C 452.4 3.3 453.5 2.4 454.6 2.4 C 455.5 2.4 456.1 2.9 456.5 3.4 C 456.45 3.38 456.5 2.5 456.5 2.5 L 457.1 2.5 C 457.1 2.5 457.15 6.39 457.1 6.4 C 457.1 7.1 456.9 7.7 456.6 8 C 456.1 8.5 455.5 8.7 454.8 8.7 C 454 8.7 453.3 8.4 452.7 8 Z M 456.5 4.7 C 456.5 4.7 456.5 4.6 456.5 4.6 C 456.5 3.7 455.7 3.1 454.8 3.1 C 453.9 3.1 453.2 3.7 453.2 4.6 C 453.2 4.6 453.2 4.6 453.2 4.6 C 453.2 5.6 453.9 6.2 454.8 6.2 C 455.7 6.2 456.5 5.6 456.5 4.7 Z " stroke="none" fill="#fff"/>
  </g>
</svg>