<?xml version="1.0" standalone="no"?>
<!DOCTYPE svg PUBLIC "-//W3C//DTD SVG 1.1//EN" "http://www.w3.org/Graphics/SVG/1.1/DTD/svg11.dtd">
<svg xmlns="http://www.w3.org/2000/svg" version="1.1" width="148.1px" height="18px" viewBox="0 -3 148.1 18" style="top:-3px">
  <desc>Table Tennis Federation</desc>
  <defs/>
  <g id="Polygon34830">
    <path d="M 0.7 2.3 L 6 2.3 L 5.8 3.3 L 3.8 3.3 L 2.6 8.8 L 1.5 8.8 L 2.6 3.3 L 0.5 3.3 L 0.7 2.3 Z M 5.4 7.5 C 5.4 7.6 5.5 7.7 5.5 7.8 C 5.6 7.9 5.6 7.9 5.7 8 C 5.8 8 5.9 8 6 8.1 C 6.1 8.1 6.1 8.1 6.2 8.1 C 6.5 8.1 6.7 8 6.9 8 C 7.1 7.9 7.2 7.8 7.3 7.6 C 7.4 7.5 7.5 7.3 7.6 7.1 C 7.6 6.9 7.7 6.7 7.7 6.5 C 7.7 6.5 7.7 6.5 7.7 6.5 C 7.6 6.5 7.5 6.6 7.4 6.6 C 7.3 6.7 7.2 6.7 7.1 6.7 C 6.9 6.7 6.7 6.7 6.6 6.7 C 6.4 6.7 6.2 6.8 6 6.8 C 5.9 6.9 5.7 6.9 5.6 7.1 C 5.5 7.2 5.4 7.3 5.4 7.5 Z M 8.5 7.4 C 8.5 7.5 8.5 7.6 8.5 7.7 C 8.4 7.7 8.4 7.8 8.4 7.9 C 8.4 8 8.4 8 8.5 8 C 8.5 8.1 8.6 8.1 8.6 8.1 C 8.7 8.1 8.8 8.1 8.8 8.1 C 8.9 8.1 8.9 8 9 8 C 9 8 8.8 8.8 8.8 8.8 C 8.7 8.8 8.6 8.8 8.4 8.9 C 8.3 8.9 8.2 8.9 8 8.9 C 7.9 8.9 7.7 8.8 7.6 8.7 C 7.5 8.6 7.4 8.5 7.4 8.3 C 7.2 8.5 7 8.7 6.7 8.8 C 6.4 8.9 6.1 8.9 5.8 8.9 C 5.7 8.9 5.5 8.9 5.3 8.8 C 5.1 8.8 5 8.7 4.8 8.6 C 4.7 8.5 4.6 8.4 4.5 8.2 C 4.4 8 4.4 7.9 4.4 7.7 C 4.4 7.4 4.5 7.1 4.6 6.9 C 4.7 6.7 4.8 6.6 5 6.5 C 5.2 6.3 5.4 6.2 5.6 6.2 C 5.8 6.1 6.1 6.1 6.4 6.1 C 6.7 6 7 6 7.4 6 C 7.6 6 7.7 5.9 7.8 5.8 C 7.9 5.7 7.9 5.5 7.9 5.4 C 7.9 5.1 7.8 5 7.7 4.9 C 7.5 4.8 7.3 4.8 7.1 4.8 C 6.8 4.8 6.6 4.9 6.4 5 C 6.2 5.1 6 5.2 6 5.5 C 6 5.5 5 5.5 5 5.5 C 5.1 5.2 5.2 5 5.3 4.8 C 5.4 4.6 5.6 4.5 5.8 4.3 C 6 4.2 6.2 4.1 6.4 4.1 C 6.7 4 6.9 4 7.2 4 C 7.6 4 7.9 4 8.2 4.1 C 8.4 4.2 8.6 4.3 8.7 4.4 C 8.8 4.5 8.9 4.6 8.9 4.8 C 8.9 4.9 8.9 5 8.9 5.1 C 8.9 5.3 8.9 5.5 8.9 5.8 C 8.9 5.8 8.5 7.4 8.5 7.4 Z M 10.8 2.3 L 11.8 2.3 L 11.3 4.7 C 11.3 4.7 11.37 4.67 11.4 4.7 C 11.7 4.2 12.2 4 12.8 4 C 13.1 4 13.3 4 13.5 4.1 C 13.7 4.2 13.9 4.4 14.1 4.5 C 14.2 4.7 14.3 4.9 14.4 5.1 C 14.5 5.4 14.5 5.6 14.5 5.9 C 14.5 6.3 14.5 6.6 14.4 7 C 14.3 7.4 14.1 7.7 13.9 8 C 13.7 8.2 13.5 8.5 13.2 8.6 C 12.9 8.8 12.5 8.9 12.1 8.9 C 11.7 8.9 11.4 8.8 11.2 8.7 C 10.9 8.6 10.7 8.3 10.6 8 C 10.56 7.99 10.5 8 10.5 8 L 10.4 8.8 L 9.5 8.8 L 10.8 2.3 Z M 12.4 4.8 C 12.2 4.8 11.9 4.9 11.7 5 C 11.6 5.1 11.4 5.3 11.3 5.5 C 11.1 5.7 11 5.9 11 6.2 C 10.9 6.4 10.9 6.7 10.9 6.9 C 10.9 7.3 11 7.6 11.1 7.8 C 11.3 8 11.6 8.1 12 8.1 C 12.2 8.1 12.5 8 12.6 7.9 C 12.8 7.8 13 7.6 13.1 7.4 C 13.3 7.2 13.4 7 13.4 6.7 C 13.5 6.5 13.5 6.2 13.5 6 C 13.5 5.6 13.4 5.3 13.2 5.1 C 13.1 4.9 12.8 4.8 12.4 4.8 Z M 16.4 2.3 L 17.4 2.3 L 16.1 8.8 L 15.1 8.8 L 16.4 2.3 Z M 21 6 C 21 6 21.1 6 21.1 6 C 21.1 5.9 21.1 5.9 21.1 5.9 C 21.1 5.9 21.1 5.8 21.1 5.8 C 21.1 5.5 21 5.2 20.8 5.1 C 20.6 4.9 20.4 4.8 20.1 4.8 C 19.7 4.8 19.4 4.9 19.2 5.2 C 18.9 5.4 18.8 5.7 18.7 6 C 18.7 6 21 6 21 6 Z M 21.8 7.3 C 21.6 7.9 21.4 8.3 21 8.5 C 20.6 8.8 20.1 8.9 19.5 8.9 C 19.3 8.9 19 8.9 18.7 8.8 C 18.5 8.7 18.3 8.5 18.1 8.4 C 17.9 8.2 17.8 8 17.7 7.7 C 17.6 7.5 17.5 7.2 17.5 6.9 C 17.5 6.5 17.6 6.2 17.7 5.8 C 17.8 5.5 18 5.2 18.2 4.9 C 18.4 4.6 18.7 4.4 19 4.2 C 19.3 4.1 19.7 4 20.1 4 C 20.5 4 20.8 4.1 21.1 4.2 C 21.4 4.3 21.6 4.5 21.7 4.7 C 21.9 4.9 21.9 5.2 22 5.4 C 22.1 5.7 22.1 5.9 22.1 6.1 C 22.1 6.3 22.1 6.4 22.1 6.5 C 22 6.5 22 6.6 22 6.7 C 22 6.7 18.6 6.7 18.6 6.7 C 18.6 6.7 18.5 6.8 18.5 6.8 C 18.5 6.8 18.5 6.8 18.5 6.9 C 18.5 6.9 18.5 7 18.5 7 C 18.5 7.3 18.6 7.6 18.8 7.8 C 19 8 19.3 8.1 19.6 8.1 C 19.9 8.1 20.2 8 20.4 7.9 C 20.6 7.8 20.7 7.6 20.8 7.3 C 20.8 7.3 21.8 7.3 21.8 7.3 Z M 25.8 2.3 L 31.1 2.3 L 30.9 3.3 L 28.9 3.3 L 27.7 8.8 L 26.6 8.8 L 27.7 3.3 L 25.6 3.3 L 25.8 2.3 Z M 33.2 6 C 33.2 6 33.2 6 33.2 6 C 33.2 5.9 33.2 5.9 33.2 5.9 C 33.2 5.9 33.2 5.8 33.2 5.8 C 33.2 5.5 33.1 5.2 32.9 5.1 C 32.7 4.9 32.5 4.8 32.2 4.8 C 31.8 4.8 31.5 4.9 31.3 5.2 C 31 5.4 30.9 5.7 30.8 6 C 30.8 6 33.2 6 33.2 6 Z M 33.9 7.3 C 33.7 7.9 33.5 8.3 33.1 8.5 C 32.7 8.8 32.2 8.9 31.7 8.9 C 31.4 8.9 31.1 8.9 30.8 8.8 C 30.6 8.7 30.4 8.5 30.2 8.4 C 30 8.2 29.9 8 29.8 7.7 C 29.7 7.5 29.6 7.2 29.6 6.9 C 29.6 6.5 29.7 6.2 29.8 5.8 C 29.9 5.5 30.1 5.2 30.3 4.9 C 30.5 4.6 30.8 4.4 31.1 4.2 C 31.4 4.1 31.8 4 32.2 4 C 32.6 4 33 4.1 33.2 4.2 C 33.5 4.3 33.7 4.5 33.8 4.7 C 34 4.9 34.1 5.2 34.1 5.4 C 34.2 5.7 34.2 5.9 34.2 6.1 C 34.2 6.3 34.2 6.4 34.2 6.5 C 34.2 6.5 34.1 6.6 34.1 6.7 C 34.1 6.7 30.7 6.7 30.7 6.7 C 30.7 6.7 30.7 6.8 30.7 6.8 C 30.7 6.8 30.7 6.8 30.7 6.9 C 30.7 6.9 30.7 7 30.7 7 C 30.7 7.3 30.7 7.6 30.9 7.8 C 31.1 8 31.4 8.1 31.8 8.1 C 32 8.1 32.3 8 32.5 7.9 C 32.7 7.8 32.8 7.6 32.9 7.3 C 32.9 7.3 33.9 7.3 33.9 7.3 Z M 35.5 4.1 L 36.4 4.1 L 36.3 4.8 C 36.3 4.8 36.32 4.81 36.3 4.8 C 36.5 4.6 36.7 4.4 37 4.2 C 37.3 4.1 37.6 4 37.9 4 C 38.4 4 38.7 4.1 39 4.3 C 39.2 4.6 39.3 4.9 39.3 5.2 C 39.3 5.3 39.3 5.4 39.3 5.5 C 39.3 5.6 39.3 5.7 39.2 5.8 C 39.24 5.8 38.6 8.8 38.6 8.8 L 37.6 8.8 C 37.6 8.8 38.19 5.9 38.2 5.9 C 38.2 5.8 38.2 5.8 38.2 5.7 C 38.3 5.6 38.3 5.5 38.3 5.5 C 38.3 5.4 38.3 5.4 38.3 5.3 C 38.3 5.2 38.2 5.2 38.2 5.1 C 38.1 5 38.1 4.9 38 4.9 C 37.9 4.8 37.7 4.8 37.5 4.8 C 37.3 4.8 37.2 4.8 37 4.9 C 36.8 5 36.7 5.1 36.6 5.3 C 36.5 5.4 36.4 5.5 36.3 5.7 C 36.2 5.9 36.1 6.1 36.1 6.3 C 36.07 6.25 35.5 8.8 35.5 8.8 L 34.5 8.8 L 35.5 4.1 Z M 40.7 4.1 L 41.7 4.1 L 41.6 4.8 C 41.6 4.8 41.58 4.81 41.6 4.8 C 41.8 4.6 42 4.4 42.3 4.2 C 42.6 4.1 42.9 4 43.2 4 C 43.6 4 44 4.1 44.2 4.3 C 44.4 4.6 44.5 4.9 44.5 5.2 C 44.5 5.3 44.5 5.4 44.5 5.5 C 44.5 5.6 44.5 5.7 44.5 5.8 C 44.5 5.8 43.9 8.8 43.9 8.8 L 42.8 8.8 C 42.8 8.8 43.44 5.9 43.4 5.9 C 43.5 5.8 43.5 5.8 43.5 5.7 C 43.5 5.6 43.5 5.5 43.5 5.5 C 43.5 5.4 43.5 5.4 43.5 5.3 C 43.5 5.2 43.5 5.2 43.4 5.1 C 43.4 5 43.3 4.9 43.2 4.9 C 43.1 4.8 43 4.8 42.8 4.8 C 42.6 4.8 42.4 4.8 42.3 4.9 C 42.1 5 42 5.1 41.8 5.3 C 41.7 5.4 41.6 5.5 41.5 5.7 C 41.4 5.9 41.4 6.1 41.3 6.3 C 41.33 6.25 40.8 8.8 40.8 8.8 L 39.8 8.8 L 40.7 4.1 Z M 46.4 2.3 L 47.4 2.3 L 47.2 3.3 L 46.2 3.3 L 46.4 2.3 Z M 46 4.1 L 47 4.1 L 46.1 8.8 L 45 8.8 L 46 4.1 Z M 50.6 5.5 C 50.6 5.2 50.5 5.1 50.3 5 C 50.2 4.9 49.9 4.8 49.7 4.8 C 49.6 4.8 49.5 4.8 49.4 4.8 C 49.3 4.9 49.2 4.9 49.1 4.9 C 49 5 49 5 48.9 5.1 C 48.9 5.2 48.9 5.3 48.9 5.4 C 48.9 5.5 48.9 5.6 49 5.7 C 49.1 5.7 49.2 5.8 49.3 5.8 C 49.4 5.9 49.6 5.9 49.7 6 C 49.9 6 50.1 6.1 50.2 6.1 C 50.4 6.2 50.5 6.2 50.6 6.3 C 50.8 6.4 50.9 6.5 51 6.6 C 51.1 6.6 51.2 6.8 51.2 6.9 C 51.3 7 51.3 7.2 51.3 7.4 C 51.3 7.6 51.2 7.9 51.1 8.1 C 51 8.3 50.9 8.4 50.7 8.5 C 50.5 8.7 50.2 8.8 50 8.8 C 49.8 8.9 49.5 8.9 49.2 8.9 C 49 8.9 48.7 8.9 48.5 8.8 C 48.3 8.8 48.1 8.7 47.9 8.6 C 47.7 8.4 47.6 8.3 47.5 8.1 C 47.4 7.9 47.3 7.6 47.3 7.3 C 47.3 7.3 48.3 7.3 48.3 7.3 C 48.3 7.6 48.4 7.8 48.6 7.9 C 48.8 8 49 8.1 49.3 8.1 C 49.4 8.1 49.5 8.1 49.6 8.1 C 49.7 8 49.9 8 49.9 8 C 50 7.9 50.1 7.8 50.2 7.8 C 50.3 7.7 50.3 7.6 50.3 7.4 C 50.3 7.3 50.2 7.2 50.2 7.1 C 50.1 7.1 50 7 49.8 6.9 C 49.7 6.9 49.5 6.8 49.4 6.8 C 49.2 6.7 49 6.7 48.9 6.6 C 48.7 6.6 48.6 6.5 48.5 6.4 C 48.3 6.4 48.2 6.3 48.1 6.2 C 48 6.1 48 6 47.9 5.9 C 47.9 5.7 47.8 5.6 47.8 5.4 C 47.8 5.2 47.9 4.9 48 4.8 C 48.1 4.6 48.3 4.4 48.4 4.3 C 48.6 4.2 48.8 4.1 49 4.1 C 49.3 4 49.5 4 49.8 4 C 50 4 50.2 4 50.5 4.1 C 50.7 4.1 50.9 4.2 51 4.3 C 51.2 4.4 51.3 4.6 51.4 4.8 C 51.5 5 51.6 5.2 51.6 5.5 C 51.6 5.5 50.6 5.5 50.6 5.5 Z M 55.9 2.3 L 60.3 2.3 L 60.1 3.3 L 56.9 3.3 L 56.5 5 L 59.3 5 L 59.1 5.9 L 56.3 5.9 L 55.7 8.8 L 54.6 8.8 L 55.9 2.3 Z M 63.6 6 C 63.6 6 63.6 6 63.6 6 C 63.6 5.9 63.6 5.9 63.6 5.9 C 63.6 5.9 63.6 5.8 63.6 5.8 C 63.6 5.5 63.6 5.2 63.4 5.1 C 63.2 4.9 63 4.8 62.7 4.8 C 62.3 4.8 62 4.9 61.7 5.2 C 61.5 5.4 61.3 5.7 61.2 6 C 61.2 6 63.6 6 63.6 6 Z M 64.4 7.3 C 64.2 7.9 63.9 8.3 63.6 8.5 C 63.2 8.8 62.7 8.9 62.1 8.9 C 61.8 8.9 61.6 8.9 61.3 8.8 C 61.1 8.7 60.9 8.5 60.7 8.4 C 60.5 8.2 60.4 8 60.3 7.7 C 60.2 7.5 60.1 7.2 60.1 6.9 C 60.1 6.5 60.2 6.2 60.3 5.8 C 60.4 5.5 60.6 5.2 60.8 4.9 C 61 4.6 61.3 4.4 61.6 4.2 C 61.9 4.1 62.3 4 62.7 4 C 63.1 4 63.4 4.1 63.7 4.2 C 64 4.3 64.2 4.5 64.3 4.7 C 64.4 4.9 64.5 5.2 64.6 5.4 C 64.6 5.7 64.7 5.9 64.7 6.1 C 64.7 6.3 64.7 6.4 64.6 6.5 C 64.6 6.5 64.6 6.6 64.6 6.7 C 64.6 6.7 61.1 6.7 61.1 6.7 C 61.1 6.7 61.1 6.8 61.1 6.8 C 61.1 6.8 61.1 6.8 61.1 6.9 C 61.1 6.9 61.1 7 61.1 7 C 61.1 7.3 61.2 7.6 61.4 7.8 C 61.6 8 61.8 8.1 62.2 8.1 C 62.5 8.1 62.7 8 62.9 7.9 C 63.1 7.8 63.3 7.6 63.4 7.3 C 63.4 7.3 64.4 7.3 64.4 7.3 Z M 69.3 8.8 L 68.3 8.8 L 68.5 8.1 C 68.5 8.1 68.46 8.13 68.5 8.1 C 68.3 8.4 68 8.6 67.8 8.7 C 67.5 8.8 67.3 8.9 67 8.9 C 66.9 8.9 66.7 8.9 66.5 8.8 C 66.3 8.8 66.1 8.7 65.9 8.6 C 65.7 8.5 65.5 8.3 65.4 8 C 65.3 7.8 65.2 7.4 65.2 7 C 65.2 6.6 65.3 6.2 65.4 5.9 C 65.5 5.5 65.6 5.2 65.9 4.9 C 66.1 4.6 66.3 4.4 66.7 4.3 C 67 4.1 67.3 4 67.7 4 C 68 4 68.3 4.1 68.6 4.2 C 68.8 4.3 69 4.5 69.1 4.8 C 69.13 4.76 69.1 4.8 69.1 4.8 L 69.7 2.3 L 70.7 2.3 L 69.3 8.8 Z M 68.9 5.9 C 68.9 5.8 68.9 5.6 68.8 5.5 C 68.8 5.4 68.7 5.2 68.6 5.1 C 68.6 5 68.5 5 68.3 4.9 C 68.2 4.8 68 4.8 67.9 4.8 C 67.6 4.8 67.3 4.9 67.1 5 C 66.9 5.1 66.7 5.3 66.6 5.5 C 66.5 5.7 66.4 6 66.3 6.2 C 66.3 6.5 66.2 6.7 66.2 7 C 66.2 7.3 66.3 7.6 66.5 7.8 C 66.7 8 66.9 8.1 67.3 8.1 C 67.5 8.1 67.8 8 68 7.9 C 68.2 7.7 68.3 7.6 68.5 7.4 C 68.6 7.1 68.7 6.9 68.8 6.7 C 68.8 6.4 68.9 6.2 68.9 5.9 Z M 74.3 6 C 74.3 6 74.3 6 74.3 6 C 74.3 5.9 74.3 5.9 74.3 5.9 C 74.3 5.9 74.3 5.8 74.3 5.8 C 74.3 5.5 74.2 5.2 74.1 5.1 C 73.9 4.9 73.6 4.8 73.3 4.8 C 73 4.8 72.7 4.9 72.4 5.2 C 72.2 5.4 72 5.7 71.9 6 C 71.9 6 74.3 6 74.3 6 Z M 75.1 7.3 C 74.9 7.9 74.6 8.3 74.2 8.5 C 73.9 8.8 73.4 8.9 72.8 8.9 C 72.5 8.9 72.3 8.9 72 8.8 C 71.8 8.7 71.5 8.5 71.4 8.4 C 71.2 8.2 71 8 70.9 7.7 C 70.8 7.5 70.8 7.2 70.8 6.9 C 70.8 6.5 70.8 6.2 71 5.8 C 71.1 5.5 71.2 5.2 71.5 4.9 C 71.7 4.6 71.9 4.4 72.3 4.2 C 72.6 4.1 73 4 73.4 4 C 73.8 4 74.1 4.1 74.4 4.2 C 74.6 4.3 74.8 4.5 75 4.7 C 75.1 4.9 75.2 5.2 75.3 5.4 C 75.3 5.7 75.3 5.9 75.3 6.1 C 75.3 6.3 75.3 6.4 75.3 6.5 C 75.3 6.5 75.3 6.6 75.3 6.7 C 75.3 6.7 71.8 6.7 71.8 6.7 C 71.8 6.7 71.8 6.8 71.8 6.8 C 71.8 6.8 71.8 6.8 71.8 6.9 C 71.8 6.9 71.8 7 71.8 7 C 71.8 7.3 71.9 7.6 72.1 7.8 C 72.2 8 72.5 8.1 72.9 8.1 C 73.2 8.1 73.4 8 73.6 7.9 C 73.8 7.8 74 7.6 74 7.3 C 74 7.3 75.1 7.3 75.1 7.3 Z M 76.6 4.1 L 77.6 4.1 L 77.4 5 C 77.4 5 77.44 5.05 77.4 5 C 77.5 4.9 77.6 4.8 77.7 4.7 C 77.8 4.5 77.9 4.4 78.1 4.3 C 78.2 4.2 78.3 4.2 78.5 4.1 C 78.6 4 78.8 4 78.9 4 C 79 4 79.1 4 79.2 4 C 79.3 4 79.3 4 79.4 4 C 79.4 4 79.2 5 79.2 5 C 79.1 5 79.1 5 79 5 C 79 5 78.9 5 78.8 5 C 78.6 5 78.4 5 78.2 5.1 C 78 5.2 77.8 5.3 77.7 5.5 C 77.5 5.7 77.4 5.8 77.3 6 C 77.3 6.3 77.2 6.5 77.1 6.7 C 77.14 6.71 76.7 8.8 76.7 8.8 L 75.7 8.8 L 76.6 4.1 Z M 80.2 7.5 C 80.2 7.6 80.2 7.7 80.2 7.8 C 80.3 7.9 80.3 7.9 80.4 8 C 80.5 8 80.6 8 80.7 8.1 C 80.8 8.1 80.9 8.1 81 8.1 C 81.2 8.1 81.4 8 81.6 8 C 81.8 7.9 81.9 7.8 82 7.6 C 82.1 7.5 82.2 7.3 82.3 7.1 C 82.4 6.9 82.4 6.7 82.4 6.5 C 82.4 6.5 82.4 6.5 82.4 6.5 C 82.3 6.5 82.3 6.6 82.1 6.6 C 82 6.7 81.9 6.7 81.8 6.7 C 81.6 6.7 81.5 6.7 81.3 6.7 C 81.1 6.7 80.9 6.8 80.8 6.8 C 80.6 6.9 80.4 6.9 80.3 7.1 C 80.2 7.2 80.2 7.3 80.2 7.5 Z M 83.2 7.4 C 83.2 7.5 83.2 7.6 83.2 7.7 C 83.2 7.7 83.2 7.8 83.2 7.9 C 83.2 8 83.2 8 83.2 8 C 83.2 8.1 83.3 8.1 83.4 8.1 C 83.4 8.1 83.5 8.1 83.5 8.1 C 83.6 8.1 83.7 8 83.7 8 C 83.7 8 83.6 8.8 83.6 8.8 C 83.4 8.8 83.3 8.8 83.2 8.9 C 83 8.9 82.9 8.9 82.8 8.9 C 82.6 8.9 82.4 8.8 82.3 8.7 C 82.2 8.6 82.2 8.5 82.1 8.3 C 81.9 8.5 81.7 8.7 81.4 8.8 C 81.1 8.9 80.9 8.9 80.6 8.9 C 80.4 8.9 80.2 8.9 80 8.8 C 79.9 8.8 79.7 8.7 79.6 8.6 C 79.4 8.5 79.3 8.4 79.2 8.2 C 79.2 8 79.1 7.9 79.1 7.7 C 79.1 7.4 79.2 7.1 79.3 6.9 C 79.4 6.7 79.5 6.6 79.7 6.5 C 79.9 6.3 80.1 6.2 80.3 6.2 C 80.6 6.1 80.8 6.1 81.1 6.1 C 81.4 6 81.8 6 82.1 6 C 82.3 6 82.4 5.9 82.5 5.8 C 82.6 5.7 82.6 5.5 82.6 5.4 C 82.6 5.1 82.6 5 82.4 4.9 C 82.3 4.8 82.1 4.8 81.9 4.8 C 81.6 4.8 81.3 4.9 81.1 5 C 80.9 5.1 80.8 5.2 80.7 5.5 C 80.7 5.5 79.7 5.5 79.7 5.5 C 79.8 5.2 79.9 5 80 4.8 C 80.1 4.6 80.3 4.5 80.5 4.3 C 80.7 4.2 80.9 4.1 81.1 4.1 C 81.4 4 81.7 4 81.9 4 C 82.3 4 82.7 4 82.9 4.1 C 83.1 4.2 83.3 4.3 83.4 4.4 C 83.5 4.5 83.6 4.6 83.6 4.8 C 83.7 4.9 83.7 5 83.7 5.1 C 83.7 5.3 83.6 5.5 83.6 5.8 C 83.6 5.8 83.2 7.4 83.2 7.4 Z M 85.7 2.7 L 86.7 2.7 L 86.4 4.1 L 87.4 4.1 L 87.2 4.9 L 86.3 4.9 C 86.3 4.9 85.81 7.16 85.8 7.2 C 85.8 7.3 85.8 7.4 85.7 7.5 C 85.7 7.5 85.7 7.6 85.7 7.7 C 85.7 7.8 85.7 7.9 85.8 7.9 C 85.8 8 85.9 8 86.1 8 C 86.2 8 86.2 8 86.3 8 C 86.4 8 86.5 8 86.6 8 C 86.6 8 86.5 8.7 86.5 8.7 C 86.3 8.8 86.2 8.8 86 8.8 C 85.9 8.8 85.7 8.8 85.6 8.8 C 85.4 8.8 85.3 8.8 85.2 8.7 C 85 8.7 84.9 8.6 84.9 8.6 C 84.8 8.5 84.8 8.4 84.7 8.3 C 84.7 8.2 84.7 8.1 84.7 8 C 84.7 7.9 84.7 7.8 84.7 7.7 C 84.7 7.6 84.7 7.5 84.8 7.4 C 84.75 7.43 85.3 4.9 85.3 4.9 L 84.5 4.9 L 84.6 4.1 L 85.4 4.1 L 85.7 2.7 Z M 88.6 2.3 L 89.6 2.3 L 89.4 3.3 L 88.4 3.3 L 88.6 2.3 Z M 88.2 4.1 L 89.3 4.1 L 88.3 8.8 L 87.3 8.8 L 88.2 4.1 Z M 92.3 4.8 C 92.1 4.8 91.9 4.9 91.7 5 C 91.5 5.1 91.3 5.3 91.2 5.5 C 91 5.7 90.9 5.9 90.9 6.2 C 90.8 6.4 90.8 6.7 90.8 6.9 C 90.8 7.2 90.9 7.5 91 7.7 C 91.2 8 91.5 8.1 91.9 8.1 C 92.1 8.1 92.3 8 92.5 7.9 C 92.7 7.8 92.9 7.6 93 7.4 C 93.2 7.2 93.3 7 93.3 6.7 C 93.4 6.5 93.4 6.2 93.4 6 C 93.4 5.7 93.3 5.4 93.2 5.1 C 93 4.9 92.7 4.8 92.3 4.8 Z M 91.8 8.9 C 91.1 8.9 90.6 8.7 90.3 8.4 C 89.9 8 89.8 7.5 89.8 6.9 C 89.8 6.5 89.8 6.1 89.9 5.8 C 90.1 5.4 90.2 5.1 90.5 4.9 C 90.7 4.6 91 4.4 91.3 4.2 C 91.6 4.1 92 4 92.4 4 C 93.1 4 93.6 4.2 93.9 4.5 C 94.3 4.8 94.4 5.3 94.4 6 C 94.4 6.4 94.4 6.8 94.3 7.1 C 94.1 7.5 94 7.8 93.7 8.1 C 93.5 8.3 93.2 8.5 92.9 8.7 C 92.6 8.8 92.2 8.9 91.8 8.9 Z M 95.9 4.1 L 96.9 4.1 L 96.7 4.8 C 96.7 4.8 96.77 4.81 96.8 4.8 C 97 4.6 97.2 4.4 97.5 4.2 C 97.7 4.1 98 4 98.4 4 C 98.8 4 99.2 4.1 99.4 4.3 C 99.6 4.6 99.7 4.9 99.7 5.2 C 99.7 5.3 99.7 5.4 99.7 5.5 C 99.7 5.6 99.7 5.7 99.7 5.8 C 99.68 5.8 99.1 8.8 99.1 8.8 L 98 8.8 C 98 8.8 98.63 5.9 98.6 5.9 C 98.6 5.8 98.7 5.8 98.7 5.7 C 98.7 5.6 98.7 5.5 98.7 5.5 C 98.7 5.4 98.7 5.4 98.7 5.3 C 98.7 5.2 98.7 5.2 98.6 5.1 C 98.6 5 98.5 4.9 98.4 4.9 C 98.3 4.8 98.2 4.8 98 4.8 C 97.8 4.8 97.6 4.8 97.4 4.9 C 97.3 5 97.1 5.1 97 5.3 C 96.9 5.4 96.8 5.5 96.7 5.7 C 96.6 5.9 96.6 6.1 96.5 6.3 C 96.52 6.25 96 8.8 96 8.8 L 95 8.8 L 95.9 4.1 Z " stroke="none" fill="#fff"/>
  </g>
</svg>