<?xml version="1.0" standalone="no"?>
<!DOCTYPE svg PUBLIC "-//W3C//DTD SVG 1.1//EN" "http://www.w3.org/Graphics/SVG/1.1/DTD/svg11.dtd">
<svg xmlns="http://www.w3.org/2000/svg" version="1.1" width="459px" height="27.8px" viewBox="0 -3 459 27.8" style="top:-3px">
  <desc>SULYAPAN ang kuwento ng pagsisimula ng koponang Viridis Arcus at ang kanilang mga karanasan sa mundo ng Esports, part</desc>
  <defs/>
  <g id="Polygon38322">
    <path d="M 0.8 14.5 L 1.5 14.5 C 1.5 14.5 1.47 15.33 1.5 15.3 C 1.8 14.9 2.2 14.4 3 14.4 C 3.7 14.4 4.2 14.9 4.5 15.4 C 4.8 14.9 5.3 14.4 6.1 14.4 C 7.2 14.4 7.8 15.2 7.8 16.3 C 7.83 16.32 7.8 19.2 7.8 19.2 L 7.1 19.2 C 7.1 19.2 7.14 16.48 7.1 16.5 C 7.1 15.6 6.7 15.1 5.9 15.1 C 5.2 15.1 4.7 15.6 4.7 16.5 C 4.65 16.52 4.7 19.2 4.7 19.2 L 4 19.2 C 4 19.2 3.96 16.46 4 16.5 C 4 15.6 3.5 15.1 2.8 15.1 C 2 15.1 1.5 15.7 1.5 16.5 C 1.47 16.54 1.5 19.2 1.5 19.2 L 0.8 19.2 L 0.8 14.5 Z M 9.2 17.4 C 9.17 17.44 9.2 14.5 9.2 14.5 L 9.9 14.5 C 9.9 14.5 9.86 17.27 9.9 17.3 C 9.9 18.1 10.3 18.7 11.2 18.7 C 11.9 18.7 12.5 18.1 12.5 17.2 C 12.55 17.21 12.5 14.5 12.5 14.5 L 13.2 14.5 L 13.2 19.2 L 12.5 19.2 C 12.5 19.2 12.55 18.39 12.5 18.4 C 12.2 18.9 11.8 19.3 11 19.3 C 9.8 19.3 9.2 18.5 9.2 17.4 Z M 14.7 14.5 L 15.4 14.5 C 15.4 14.5 15.39 15.36 15.4 15.4 C 15.7 14.9 16.2 14.4 17 14.4 C 18.1 14.4 18.8 15.2 18.8 16.3 C 18.76 16.31 18.8 19.2 18.8 19.2 L 18.1 19.2 C 18.1 19.2 18.07 16.48 18.1 16.5 C 18.1 15.6 17.6 15.1 16.8 15.1 C 16 15.1 15.4 15.7 15.4 16.5 C 15.39 16.54 15.4 19.2 15.4 19.2 L 14.7 19.2 L 14.7 14.5 Z M 19.9 16.9 C 19.9 16.9 19.9 16.9 19.9 16.9 C 19.9 15.3 21 14.4 22.1 14.4 C 23 14.4 23.5 14.9 23.9 15.4 C 23.89 15.44 23.9 12.6 23.9 12.6 L 24.6 12.6 L 24.6 19.2 L 23.9 19.2 C 23.9 19.2 23.89 18.26 23.9 18.3 C 23.5 18.8 23 19.3 22.1 19.3 C 21 19.3 19.9 18.4 19.9 16.9 Z M 23.9 16.9 C 23.9 16.9 23.9 16.9 23.9 16.9 C 23.9 15.8 23.1 15.1 22.2 15.1 C 21.3 15.1 20.6 15.7 20.6 16.9 C 20.6 16.9 20.6 16.9 20.6 16.9 C 20.6 18 21.4 18.7 22.2 18.7 C 23.1 18.7 23.9 17.9 23.9 16.9 Z M 25.7 16.9 C 25.7 16.9 25.7 16.9 25.7 16.9 C 25.7 15.6 26.8 14.4 28.2 14.4 C 29.6 14.4 30.6 15.5 30.6 16.9 C 30.6 16.9 30.6 16.9 30.6 16.9 C 30.6 18.2 29.6 19.3 28.2 19.3 C 26.8 19.3 25.7 18.2 25.7 16.9 Z M 29.9 16.9 C 29.9 16.9 29.9 16.9 29.9 16.9 C 29.9 15.9 29.1 15.1 28.2 15.1 C 27.2 15.1 26.5 15.9 26.5 16.9 C 26.5 16.9 26.5 16.9 26.5 16.9 C 26.5 17.9 27.2 18.7 28.2 18.7 C 29.2 18.7 29.9 17.9 29.9 16.9 Z M 34.4 14.5 L 35.1 14.5 C 35.1 14.5 35.06 15.36 35.1 15.4 C 35.4 14.9 35.9 14.4 36.7 14.4 C 37.8 14.4 38.4 15.2 38.4 16.3 C 38.44 16.31 38.4 19.2 38.4 19.2 L 37.7 19.2 C 37.7 19.2 37.75 16.48 37.7 16.5 C 37.7 15.6 37.3 15.1 36.5 15.1 C 35.7 15.1 35.1 15.7 35.1 16.5 C 35.06 16.54 35.1 19.2 35.1 19.2 L 34.4 19.2 L 34.4 14.5 Z M 39.8 20 C 39.8 20 40.1 19.5 40.1 19.5 C 40.6 19.9 41.2 20.1 41.9 20.1 C 42.9 20.1 43.6 19.5 43.6 18.4 C 43.6 18.4 43.6 17.9 43.6 17.9 C 43.2 18.4 42.6 18.8 41.7 18.8 C 40.6 18.8 39.6 18 39.6 16.7 C 39.6 16.7 39.6 16.6 39.6 16.6 C 39.6 15.3 40.6 14.4 41.7 14.4 C 42.6 14.4 43.2 14.9 43.6 15.4 C 43.56 15.38 43.6 14.5 43.6 14.5 L 44.3 14.5 C 44.3 14.5 44.25 18.39 44.3 18.4 C 44.3 19.1 44 19.7 43.7 20 C 43.2 20.5 42.6 20.7 41.9 20.7 C 41.1 20.7 40.4 20.4 39.8 20 Z M 43.6 16.7 C 43.6 16.7 43.6 16.6 43.6 16.6 C 43.6 15.7 42.8 15.1 41.9 15.1 C 41 15.1 40.3 15.7 40.3 16.6 C 40.3 16.6 40.3 16.6 40.3 16.6 C 40.3 17.6 41 18.2 41.9 18.2 C 42.8 18.2 43.6 17.6 43.6 16.7 Z M 48.4 12.9 L 53 12.9 L 53 13.5 L 49.1 13.5 L 49.1 15.7 L 52.6 15.7 L 52.6 16.3 L 49.1 16.3 L 49.1 18.6 L 53 18.6 L 53 19.2 L 48.4 19.2 L 48.4 12.9 Z M 53.9 18.6 C 53.9 18.6 54.2 18.1 54.2 18.1 C 54.7 18.5 55.3 18.7 55.8 18.7 C 56.4 18.7 56.8 18.4 56.8 18 C 56.8 18 56.8 17.9 56.8 17.9 C 56.8 17.5 56.2 17.3 55.6 17.1 C 54.9 16.9 54.1 16.7 54.1 15.8 C 54.1 15.8 54.1 15.8 54.1 15.8 C 54.1 15 54.8 14.5 55.7 14.5 C 56.2 14.5 56.9 14.7 57.4 15 C 57.4 15 57 15.5 57 15.5 C 56.6 15.2 56.1 15.1 55.7 15.1 C 55.1 15.1 54.8 15.3 54.8 15.7 C 54.8 15.7 54.8 15.7 54.8 15.7 C 54.8 16.2 55.3 16.4 56 16.5 C 56.7 16.8 57.5 17 57.5 17.9 C 57.5 17.9 57.5 17.9 57.5 17.9 C 57.5 18.8 56.7 19.3 55.8 19.3 C 55.1 19.3 54.4 19 53.9 18.6 Z M 58.7 14.5 L 59.3 14.5 C 59.3 14.5 59.34 15.48 59.3 15.5 C 59.7 14.9 60.3 14.4 61.1 14.4 C 62.2 14.4 63.3 15.3 63.3 16.9 C 63.3 16.9 63.3 16.9 63.3 16.9 C 63.3 18.4 62.3 19.3 61.1 19.3 C 60.3 19.3 59.7 18.8 59.3 18.3 C 59.34 18.31 59.3 20.6 59.3 20.6 L 58.7 20.6 L 58.7 14.5 Z M 62.6 16.9 C 62.6 16.9 62.6 16.9 62.6 16.9 C 62.6 15.8 61.9 15.1 61 15.1 C 60.1 15.1 59.3 15.8 59.3 16.9 C 59.3 16.9 59.3 16.9 59.3 16.9 C 59.3 18 60.1 18.7 61 18.7 C 61.9 18.7 62.6 18 62.6 16.9 Z M 64.3 16.9 C 64.3 16.9 64.3 16.9 64.3 16.9 C 64.3 15.6 65.3 14.4 66.7 14.4 C 68.1 14.4 69.1 15.5 69.1 16.9 C 69.1 16.9 69.1 16.9 69.1 16.9 C 69.1 18.2 68.1 19.3 66.7 19.3 C 65.3 19.3 64.3 18.2 64.3 16.9 Z M 68.4 16.9 C 68.4 16.9 68.4 16.9 68.4 16.9 C 68.4 15.9 67.6 15.1 66.7 15.1 C 65.7 15.1 65 15.9 65 16.9 C 65 16.9 65 16.9 65 16.9 C 65 17.9 65.7 18.7 66.7 18.7 C 67.7 18.7 68.4 17.9 68.4 16.9 Z M 70.3 14.5 L 71 14.5 C 71 14.5 70.95 15.76 71 15.8 C 71.3 15 72 14.4 72.9 14.5 C 72.85 14.47 72.9 15.2 72.9 15.2 C 72.9 15.2 72.8 15.21 72.8 15.2 C 71.8 15.2 71 15.9 71 17.3 C 70.95 17.35 71 19.2 71 19.2 L 70.3 19.2 L 70.3 14.5 Z M 74.1 18 C 74.06 17.97 74.1 15.2 74.1 15.2 L 73.4 15.2 L 73.4 14.5 L 74.1 14.5 L 74.1 13.1 L 74.8 13.1 L 74.8 14.5 L 76.2 14.5 L 76.2 15.2 L 74.8 15.2 C 74.8 15.2 74.75 17.88 74.8 17.9 C 74.8 18.4 75.1 18.7 75.5 18.7 C 75.8 18.7 76 18.6 76.2 18.5 C 76.2 18.5 76.2 19.1 76.2 19.1 C 76 19.2 75.7 19.3 75.4 19.3 C 74.6 19.3 74.1 18.9 74.1 18 Z M 77 18.6 C 77 18.6 77.3 18.1 77.3 18.1 C 77.8 18.5 78.4 18.7 78.9 18.7 C 79.5 18.7 79.9 18.4 79.9 18 C 79.9 18 79.9 17.9 79.9 17.9 C 79.9 17.5 79.4 17.3 78.7 17.1 C 78 16.9 77.2 16.7 77.2 15.8 C 77.2 15.8 77.2 15.8 77.2 15.8 C 77.2 15 77.9 14.5 78.8 14.5 C 79.4 14.5 80 14.7 80.5 15 C 80.5 15 80.1 15.5 80.1 15.5 C 79.7 15.2 79.2 15.1 78.8 15.1 C 78.2 15.1 77.9 15.3 77.9 15.7 C 77.9 15.7 77.9 15.7 77.9 15.7 C 77.9 16.2 78.4 16.4 79.1 16.5 C 79.8 16.8 80.6 17 80.6 17.9 C 80.6 17.9 80.6 17.9 80.6 17.9 C 80.6 18.8 79.8 19.3 78.9 19.3 C 78.2 19.3 77.5 19 77 18.6 Z M 81.4 20 C 81.8 19.8 82 19.6 82 19.2 C 82 19.2 81.7 19.2 81.7 19.2 L 81.7 18.3 L 82.5 18.3 C 82.5 18.3 82.5 19.06 82.5 19.1 C 82.5 19.8 82.2 20.1 81.5 20.3 C 81.5 20.3 81.4 20 81.4 20 Z M 86.5 14.5 L 87.2 14.5 C 87.2 14.5 87.17 15.48 87.2 15.5 C 87.6 14.9 88.1 14.4 89 14.4 C 90.1 14.4 91.2 15.3 91.2 16.9 C 91.2 16.9 91.2 16.9 91.2 16.9 C 91.2 18.4 90.1 19.3 89 19.3 C 88.1 19.3 87.5 18.8 87.2 18.3 C 87.17 18.31 87.2 20.6 87.2 20.6 L 86.5 20.6 L 86.5 14.5 Z M 90.5 16.9 C 90.5 16.9 90.5 16.9 90.5 16.9 C 90.5 15.8 89.7 15.1 88.8 15.1 C 88 15.1 87.1 15.8 87.1 16.9 C 87.1 16.9 87.1 16.9 87.1 16.9 C 87.1 18 88 18.7 88.8 18.7 C 89.7 18.7 90.5 18 90.5 16.9 Z M 92 17.8 C 92 17.8 92 17.8 92 17.8 C 92 16.9 92.8 16.3 94 16.3 C 94.6 16.3 95 16.4 95.4 16.5 C 95.4 16.5 95.4 16.4 95.4 16.4 C 95.4 15.5 94.9 15.1 94 15.1 C 93.5 15.1 93.1 15.2 92.6 15.4 C 92.6 15.4 92.4 14.9 92.4 14.9 C 92.9 14.6 93.4 14.5 94.1 14.5 C 94.8 14.5 95.3 14.7 95.6 15 C 95.9 15.3 96.1 15.8 96.1 16.4 C 96.1 16.36 96.1 19.2 96.1 19.2 L 95.4 19.2 C 95.4 19.2 95.44 18.5 95.4 18.5 C 95.1 18.9 94.6 19.3 93.8 19.3 C 92.9 19.3 92 18.8 92 17.8 Z M 95.4 17.5 C 95.4 17.5 95.4 17 95.4 17 C 95.1 16.9 94.6 16.8 94.1 16.8 C 93.2 16.8 92.7 17.2 92.7 17.8 C 92.7 17.8 92.7 17.8 92.7 17.8 C 92.7 18.4 93.3 18.8 93.9 18.8 C 94.7 18.8 95.4 18.2 95.4 17.5 Z M 97.5 14.5 L 98.2 14.5 C 98.2 14.5 98.18 15.76 98.2 15.8 C 98.5 15 99.2 14.4 100.1 14.5 C 100.08 14.47 100.1 15.2 100.1 15.2 C 100.1 15.2 100.02 15.21 100 15.2 C 99 15.2 98.2 15.9 98.2 17.3 C 98.18 17.35 98.2 19.2 98.2 19.2 L 97.5 19.2 L 97.5 14.5 Z M 101.3 18 C 101.29 17.97 101.3 15.2 101.3 15.2 L 100.6 15.2 L 100.6 14.5 L 101.3 14.5 L 101.3 13.1 L 102 13.1 L 102 14.5 L 103.5 14.5 L 103.5 15.2 L 102 15.2 C 102 15.2 101.98 17.88 102 17.9 C 102 18.4 102.3 18.7 102.8 18.7 C 103 18.7 103.2 18.6 103.4 18.5 C 103.4 18.5 103.4 19.1 103.4 19.1 C 103.2 19.2 102.9 19.3 102.6 19.3 C 101.9 19.3 101.3 18.9 101.3 18 Z M 104.6 12.8 L 105.4 12.8 L 105.4 13.5 L 104.6 13.5 L 104.6 12.8 Z M 104.7 14.5 L 105.3 14.5 L 105.3 19.2 L 104.7 19.2 L 104.7 14.5 Z M 106.9 12.6 L 107.6 12.6 L 107.6 17.2 L 110.1 14.5 L 110.9 14.5 L 109 16.5 L 111 19.2 L 110.2 19.2 L 108.5 17 L 107.6 18 L 107.6 19.2 L 106.9 19.2 L 106.9 12.6 Z M 111.7 17.4 C 111.73 17.44 111.7 14.5 111.7 14.5 L 112.4 14.5 C 112.4 14.5 112.43 17.27 112.4 17.3 C 112.4 18.1 112.9 18.7 113.7 18.7 C 114.5 18.7 115.1 18.1 115.1 17.2 C 115.11 17.21 115.1 14.5 115.1 14.5 L 115.8 14.5 L 115.8 19.2 L 115.1 19.2 C 115.1 19.2 115.11 18.39 115.1 18.4 C 114.8 18.9 114.3 19.3 113.5 19.3 C 112.4 19.3 111.7 18.5 111.7 17.4 Z M 117.3 12.6 L 118 12.6 L 118 19.2 L 117.3 19.2 L 117.3 12.6 Z M 119.2 17.8 C 119.2 17.8 119.2 17.8 119.2 17.8 C 119.2 16.9 120 16.3 121.2 16.3 C 121.8 16.3 122.2 16.4 122.6 16.5 C 122.6 16.5 122.6 16.4 122.6 16.4 C 122.6 15.5 122.1 15.1 121.2 15.1 C 120.7 15.1 120.2 15.2 119.8 15.4 C 119.8 15.4 119.6 14.9 119.6 14.9 C 120.1 14.6 120.6 14.5 121.3 14.5 C 121.9 14.5 122.5 14.7 122.8 15 C 123.1 15.3 123.3 15.8 123.3 16.4 C 123.27 16.36 123.3 19.2 123.3 19.2 L 122.6 19.2 C 122.6 19.2 122.61 18.5 122.6 18.5 C 122.3 18.9 121.7 19.3 120.9 19.3 C 120.1 19.3 119.2 18.8 119.2 17.8 Z M 122.6 17.5 C 122.6 17.5 122.6 17 122.6 17 C 122.3 16.9 121.8 16.8 121.2 16.8 C 120.4 16.8 119.9 17.2 119.9 17.8 C 119.9 17.8 119.9 17.8 119.9 17.8 C 119.9 18.4 120.4 18.8 121.1 18.8 C 121.9 18.8 122.6 18.2 122.6 17.5 Z M 124.7 14.5 L 125.3 14.5 C 125.3 14.5 125.35 15.76 125.3 15.8 C 125.7 15 126.4 14.4 127.2 14.5 C 127.25 14.47 127.2 15.2 127.2 15.2 C 127.2 15.2 127.19 15.21 127.2 15.2 C 126.2 15.2 125.3 15.9 125.3 17.3 C 125.35 17.35 125.3 19.2 125.3 19.2 L 124.7 19.2 L 124.7 14.5 Z M 130.8 14.5 L 131.5 14.5 C 131.5 14.5 131.51 15.36 131.5 15.4 C 131.8 14.9 132.3 14.4 133.1 14.4 C 134.2 14.4 134.9 15.2 134.9 16.3 C 134.89 16.31 134.9 19.2 134.9 19.2 L 134.2 19.2 C 134.2 19.2 134.2 16.48 134.2 16.5 C 134.2 15.6 133.7 15.1 132.9 15.1 C 132.1 15.1 131.5 15.7 131.5 16.5 C 131.51 16.54 131.5 19.2 131.5 19.2 L 130.8 19.2 L 130.8 14.5 Z M 135.9 17.8 C 135.9 17.8 135.9 17.8 135.9 17.8 C 135.9 16.9 136.7 16.3 137.9 16.3 C 138.5 16.3 138.9 16.4 139.3 16.5 C 139.3 16.5 139.3 16.4 139.3 16.4 C 139.3 15.5 138.8 15.1 138 15.1 C 137.4 15.1 137 15.2 136.5 15.4 C 136.5 15.4 136.3 14.9 136.3 14.9 C 136.9 14.6 137.4 14.5 138 14.5 C 138.7 14.5 139.2 14.7 139.5 15 C 139.8 15.3 140 15.8 140 16.4 C 140.01 16.36 140 19.2 140 19.2 L 139.3 19.2 C 139.3 19.2 139.35 18.5 139.3 18.5 C 139 18.9 138.5 19.3 137.7 19.3 C 136.8 19.3 135.9 18.8 135.9 17.8 Z M 139.4 17.5 C 139.4 17.5 139.4 17 139.4 17 C 139 16.9 138.6 16.8 138 16.8 C 137.1 16.8 136.6 17.2 136.6 17.8 C 136.6 17.8 136.6 17.8 136.6 17.8 C 136.6 18.4 137.2 18.8 137.8 18.8 C 138.7 18.8 139.4 18.2 139.4 17.5 Z M 143.6 18.6 C 143.6 18.6 144 18.1 144 18.1 C 144.5 18.5 145 18.7 145.6 18.7 C 146.1 18.7 146.5 18.4 146.5 18 C 146.5 18 146.5 17.9 146.5 17.9 C 146.5 17.5 146 17.3 145.4 17.1 C 144.7 16.9 143.8 16.7 143.8 15.8 C 143.8 15.8 143.8 15.8 143.8 15.8 C 143.8 15 144.5 14.5 145.4 14.5 C 146 14.5 146.6 14.7 147.1 15 C 147.1 15 146.8 15.5 146.8 15.5 C 146.4 15.2 145.9 15.1 145.4 15.1 C 144.9 15.1 144.5 15.3 144.5 15.7 C 144.5 15.7 144.5 15.7 144.5 15.7 C 144.5 16.2 145.1 16.4 145.7 16.5 C 146.4 16.8 147.2 17 147.2 17.9 C 147.2 17.9 147.2 17.9 147.2 17.9 C 147.2 18.8 146.5 19.3 145.5 19.3 C 144.9 19.3 144.1 19 143.6 18.6 Z M 148 17.8 C 148 17.8 148 17.8 148 17.8 C 148 16.9 148.9 16.3 150 16.3 C 150.6 16.3 151.1 16.4 151.5 16.5 C 151.5 16.5 151.5 16.4 151.5 16.4 C 151.5 15.5 151 15.1 150.1 15.1 C 149.5 15.1 149.1 15.2 148.7 15.4 C 148.7 15.4 148.5 14.9 148.5 14.9 C 149 14.6 149.5 14.5 150.2 14.5 C 150.8 14.5 151.3 14.7 151.7 15 C 152 15.3 152.1 15.8 152.1 16.4 C 152.13 16.36 152.1 19.2 152.1 19.2 L 151.5 19.2 C 151.5 19.2 151.47 18.5 151.5 18.5 C 151.1 18.9 150.6 19.3 149.8 19.3 C 148.9 19.3 148 18.8 148 17.8 Z M 151.5 17.5 C 151.5 17.5 151.5 17 151.5 17 C 151.1 16.9 150.7 16.8 150.1 16.8 C 149.2 16.8 148.7 17.2 148.7 17.8 C 148.7 17.8 148.7 17.8 148.7 17.8 C 148.7 18.4 149.3 18.8 149.9 18.8 C 150.8 18.8 151.5 18.2 151.5 17.5 Z M 156.2 12.6 L 156.9 12.6 L 156.9 19.2 L 156.2 19.2 L 156.2 12.6 Z M 158.1 17.8 C 158.1 17.8 158.1 17.8 158.1 17.8 C 158.1 16.9 158.9 16.3 160 16.3 C 160.6 16.3 161.1 16.4 161.5 16.5 C 161.5 16.5 161.5 16.4 161.5 16.4 C 161.5 15.5 161 15.1 160.1 15.1 C 159.5 15.1 159.1 15.2 158.7 15.4 C 158.7 15.4 158.5 14.9 158.5 14.9 C 159 14.6 159.5 14.5 160.2 14.5 C 160.8 14.5 161.3 14.7 161.7 15 C 162 15.3 162.1 15.8 162.1 16.4 C 162.14 16.36 162.1 19.2 162.1 19.2 L 161.5 19.2 C 161.5 19.2 161.48 18.5 161.5 18.5 C 161.2 18.9 160.6 19.3 159.8 19.3 C 158.9 19.3 158.1 18.8 158.1 17.8 Z M 161.5 17.5 C 161.5 17.5 161.5 17 161.5 17 C 161.1 16.9 160.7 16.8 160.1 16.8 C 159.2 16.8 158.8 17.2 158.8 17.8 C 158.8 17.8 158.8 17.8 158.8 17.8 C 158.8 18.4 159.3 18.8 159.9 18.8 C 160.8 18.8 161.5 18.2 161.5 17.5 Z M 163.5 14.5 L 164.2 14.5 C 164.2 14.5 164.22 15.76 164.2 15.8 C 164.6 15 165.2 14.4 166.1 14.5 C 166.12 14.47 166.1 15.2 166.1 15.2 C 166.1 15.2 166.06 15.21 166.1 15.2 C 165 15.2 164.2 15.9 164.2 17.3 C 164.22 17.35 164.2 19.2 164.2 19.2 L 163.5 19.2 L 163.5 14.5 Z M 166.6 16.9 C 166.6 16.9 166.6 16.9 166.6 16.9 C 166.6 15.6 167.6 14.4 169 14.4 C 170.4 14.4 171.4 15.5 171.4 16.9 C 171.4 16.9 171.4 16.9 171.4 16.9 C 171.4 18.2 170.4 19.3 169 19.3 C 167.6 19.3 166.6 18.2 166.6 16.9 Z M 170.7 16.9 C 170.7 16.9 170.7 16.9 170.7 16.9 C 170.7 15.9 170 15.1 169 15.1 C 168 15.1 167.3 15.9 167.3 16.9 C 167.3 16.9 167.3 16.9 167.3 16.9 C 167.3 17.9 168 18.7 169 18.7 C 170 18.7 170.7 17.9 170.7 16.9 Z M 172.6 14.5 L 173.3 14.5 C 173.3 14.5 173.3 15.36 173.3 15.4 C 173.6 14.9 174.1 14.4 174.9 14.4 C 176 14.4 176.7 15.2 176.7 16.3 C 176.68 16.31 176.7 19.2 176.7 19.2 L 176 19.2 C 176 19.2 175.98 16.48 176 16.5 C 176 15.6 175.5 15.1 174.7 15.1 C 173.9 15.1 173.3 15.7 173.3 16.5 C 173.3 16.54 173.3 19.2 173.3 19.2 L 172.6 19.2 L 172.6 14.5 Z M 178 20 C 178 20 178.3 19.5 178.3 19.5 C 178.9 19.9 179.4 20.1 180.1 20.1 C 181.1 20.1 181.8 19.5 181.8 18.4 C 181.8 18.4 181.8 17.9 181.8 17.9 C 181.4 18.4 180.8 18.8 180 18.8 C 178.9 18.8 177.8 18 177.8 16.7 C 177.8 16.7 177.8 16.6 177.8 16.6 C 177.8 15.3 178.9 14.4 180 14.4 C 180.9 14.4 181.4 14.9 181.8 15.4 C 181.8 15.38 181.8 14.5 181.8 14.5 L 182.5 14.5 C 182.5 14.5 182.49 18.39 182.5 18.4 C 182.5 19.1 182.3 19.7 181.9 20 C 181.5 20.5 180.9 20.7 180.1 20.7 C 179.3 20.7 178.6 20.4 178 20 Z M 181.8 16.7 C 181.8 16.7 181.8 16.6 181.8 16.6 C 181.8 15.7 181 15.1 180.1 15.1 C 179.2 15.1 178.5 15.7 178.5 16.6 C 178.5 16.6 178.5 16.6 178.5 16.6 C 178.5 17.6 179.2 18.2 180.1 18.2 C 181 18.2 181.8 17.6 181.8 16.7 Z M 186.7 12.9 L 187.4 12.9 L 187.4 18.5 L 190.9 18.5 L 190.9 19.2 L 186.7 19.2 L 186.7 12.9 Z M 191.7 16.9 C 191.7 16.9 191.7 16.9 191.7 16.9 C 191.7 15.5 192.6 14.4 193.9 14.4 C 195.3 14.4 196.1 15.5 196.1 16.9 C 196.1 17 196.1 17 196.1 17.1 C 196.1 17.1 192.4 17.1 192.4 17.1 C 192.5 18.1 193.2 18.7 194 18.7 C 194.6 18.7 195.1 18.4 195.5 18 C 195.5 18 195.9 18.4 195.9 18.4 C 195.4 19 194.9 19.3 194 19.3 C 192.7 19.3 191.7 18.3 191.7 16.9 Z M 195.4 16.6 C 195.3 15.8 194.8 15 193.9 15 C 193.1 15 192.5 15.7 192.4 16.6 C 192.4 16.6 195.4 16.6 195.4 16.6 Z M 196.8 17.8 C 196.8 17.8 196.8 17.8 196.8 17.8 C 196.8 16.9 197.6 16.3 198.8 16.3 C 199.4 16.3 199.8 16.4 200.3 16.5 C 200.3 16.5 200.3 16.4 200.3 16.4 C 200.3 15.5 199.7 15.1 198.9 15.1 C 198.3 15.1 197.9 15.2 197.5 15.4 C 197.5 15.4 197.2 14.9 197.2 14.9 C 197.8 14.6 198.3 14.5 198.9 14.5 C 199.6 14.5 200.1 14.7 200.4 15 C 200.8 15.3 200.9 15.8 200.9 16.4 C 200.92 16.36 200.9 19.2 200.9 19.2 L 200.3 19.2 C 200.3 19.2 200.26 18.5 200.3 18.5 C 199.9 18.9 199.4 19.3 198.6 19.3 C 197.7 19.3 196.8 18.8 196.8 17.8 Z M 200.3 17.5 C 200.3 17.5 200.3 17 200.3 17 C 199.9 16.9 199.5 16.8 198.9 16.8 C 198 16.8 197.5 17.2 197.5 17.8 C 197.5 17.8 197.5 17.8 197.5 17.8 C 197.5 18.4 198.1 18.8 198.7 18.8 C 199.6 18.8 200.3 18.2 200.3 17.5 Z M 202.3 20 C 202.3 20 202.6 19.5 202.6 19.5 C 203.1 19.9 203.7 20.1 204.4 20.1 C 205.4 20.1 206.1 19.5 206.1 18.4 C 206.1 18.4 206.1 17.9 206.1 17.9 C 205.6 18.4 205.1 18.8 204.2 18.8 C 203.1 18.8 202 18 202 16.7 C 202 16.7 202 16.6 202 16.6 C 202 15.3 203.1 14.4 204.2 14.4 C 205.1 14.4 205.7 14.9 206 15.4 C 206.04 15.38 206 14.5 206 14.5 L 206.7 14.5 C 206.7 14.5 206.74 18.39 206.7 18.4 C 206.7 19.1 206.5 19.7 206.1 20 C 205.7 20.5 205.1 20.7 204.4 20.7 C 203.6 20.7 202.9 20.4 202.3 20 Z M 206.1 16.7 C 206.1 16.7 206.1 16.6 206.1 16.6 C 206.1 15.7 205.2 15.1 204.4 15.1 C 203.5 15.1 202.7 15.7 202.7 16.6 C 202.7 16.6 202.7 16.6 202.7 16.6 C 202.7 17.6 203.5 18.2 204.4 18.2 C 205.2 18.2 206.1 17.6 206.1 16.7 Z M 208.1 17.4 C 208.12 17.44 208.1 14.5 208.1 14.5 L 208.8 14.5 C 208.8 14.5 208.81 17.27 208.8 17.3 C 208.8 18.1 209.3 18.7 210.1 18.7 C 210.9 18.7 211.5 18.1 211.5 17.2 C 211.5 17.21 211.5 14.5 211.5 14.5 L 212.2 14.5 L 212.2 19.2 L 211.5 19.2 C 211.5 19.2 211.5 18.39 211.5 18.4 C 211.2 18.9 210.7 19.3 209.9 19.3 C 208.8 19.3 208.1 18.5 208.1 17.4 Z M 213.4 16.9 C 213.4 16.9 213.4 16.9 213.4 16.9 C 213.4 15.5 214.3 14.4 215.6 14.4 C 217 14.4 217.8 15.5 217.8 16.9 C 217.8 17 217.8 17 217.8 17.1 C 217.8 17.1 214.1 17.1 214.1 17.1 C 214.2 18.1 214.9 18.7 215.7 18.7 C 216.3 18.7 216.8 18.4 217.2 18 C 217.2 18 217.6 18.4 217.6 18.4 C 217.1 19 216.6 19.3 215.7 19.3 C 214.4 19.3 213.4 18.3 213.4 16.9 Z M 217.1 16.6 C 217 15.8 216.5 15 215.6 15 C 214.8 15 214.2 15.7 214.1 16.6 C 214.1 16.6 217.1 16.6 217.1 16.6 Z M 221.2 16.9 C 221.2 16.9 221.2 16.9 221.2 16.9 C 221.2 15.6 222.2 14.4 223.6 14.4 C 225 14.4 226.1 15.5 226.1 16.9 C 226.1 16.9 226.1 16.9 226.1 16.9 C 226.1 18.2 225 19.3 223.6 19.3 C 222.2 19.3 221.2 18.2 221.2 16.9 Z M 225.3 16.9 C 225.3 16.9 225.3 16.9 225.3 16.9 C 225.3 15.9 224.6 15.1 223.6 15.1 C 222.6 15.1 221.9 15.9 221.9 16.9 C 221.9 16.9 221.9 16.9 221.9 16.9 C 221.9 17.9 222.7 18.7 223.6 18.7 C 224.6 18.7 225.3 17.9 225.3 16.9 Z M 227.5 15.1 L 226.8 15.1 L 226.8 14.5 L 227.5 14.5 C 227.5 14.5 227.48 14.14 227.5 14.1 C 227.5 13.6 227.6 13.2 227.9 13 C 228.1 12.7 228.5 12.6 228.9 12.6 C 229.2 12.6 229.4 12.6 229.6 12.7 C 229.6 12.7 229.6 13.3 229.6 13.3 C 229.4 13.2 229.2 13.2 229 13.2 C 228.4 13.2 228.2 13.5 228.2 14.2 C 228.16 14.19 228.2 14.6 228.2 14.6 L 229.6 14.6 L 229.6 15.1 L 228.2 15.1 L 228.2 19.2 L 227.5 19.2 L 227.5 15.1 Z M 233.2 12.9 L 233.9 12.9 L 233.9 18.5 L 237.4 18.5 L 237.4 19.2 L 233.2 19.2 L 233.2 12.9 Z M 238.1 16.9 C 238.1 16.9 238.1 16.9 238.1 16.9 C 238.1 15.5 239.1 14.4 240.4 14.4 C 241.8 14.4 242.5 15.5 242.5 16.9 C 242.5 17 242.5 17 242.5 17.1 C 242.5 17.1 238.8 17.1 238.8 17.1 C 238.9 18.1 239.7 18.7 240.5 18.7 C 241.1 18.7 241.6 18.4 242 18 C 242 18 242.4 18.4 242.4 18.4 C 241.9 19 241.3 19.3 240.5 19.3 C 239.2 19.3 238.1 18.3 238.1 16.9 Z M 241.8 16.6 C 241.8 15.8 241.3 15 240.4 15 C 239.5 15 238.9 15.7 238.8 16.6 C 238.8 16.6 241.8 16.6 241.8 16.6 Z M 243.6 20 C 243.6 20 243.9 19.5 243.9 19.5 C 244.5 19.9 245.1 20.1 245.7 20.1 C 246.7 20.1 247.4 19.5 247.4 18.4 C 247.4 18.4 247.4 17.9 247.4 17.9 C 247 18.4 246.4 18.8 245.6 18.8 C 244.5 18.8 243.4 18 243.4 16.7 C 243.4 16.7 243.4 16.6 243.4 16.6 C 243.4 15.3 244.5 14.4 245.6 14.4 C 246.5 14.4 247 14.9 247.4 15.4 C 247.41 15.38 247.4 14.5 247.4 14.5 L 248.1 14.5 C 248.1 14.5 248.1 18.39 248.1 18.4 C 248.1 19.1 247.9 19.7 247.5 20 C 247.1 20.5 246.5 20.7 245.7 20.7 C 245 20.7 244.2 20.4 243.6 20 Z M 247.4 16.7 C 247.4 16.7 247.4 16.6 247.4 16.6 C 247.4 15.7 246.6 15.1 245.7 15.1 C 244.8 15.1 244.1 15.7 244.1 16.6 C 244.1 16.6 244.1 16.6 244.1 16.6 C 244.1 17.6 244.9 18.2 245.7 18.2 C 246.6 18.2 247.4 17.6 247.4 16.7 Z M 249.3 16.9 C 249.3 16.9 249.3 16.9 249.3 16.9 C 249.3 15.5 250.2 14.4 251.5 14.4 C 252.9 14.4 253.7 15.5 253.7 16.9 C 253.7 17 253.7 17 253.7 17.1 C 253.7 17.1 250 17.1 250 17.1 C 250.1 18.1 250.8 18.7 251.6 18.7 C 252.2 18.7 252.7 18.4 253.1 18 C 253.1 18 253.5 18.4 253.5 18.4 C 253 19 252.5 19.3 251.6 19.3 C 250.3 19.3 249.3 18.3 249.3 16.9 Z M 253 16.6 C 252.9 15.8 252.4 15 251.5 15 C 250.7 15 250.1 15.7 250 16.6 C 250 16.6 253 16.6 253 16.6 Z M 254.8 14.5 L 255.5 14.5 C 255.5 14.5 255.49 15.36 255.5 15.4 C 255.8 14.9 256.3 14.4 257.1 14.4 C 258.2 14.4 258.9 15.2 258.9 16.3 C 258.86 16.31 258.9 19.2 258.9 19.2 L 258.2 19.2 C 258.2 19.2 258.17 16.48 258.2 16.5 C 258.2 15.6 257.7 15.1 256.9 15.1 C 256.1 15.1 255.5 15.7 255.5 16.5 C 255.49 16.54 255.5 19.2 255.5 19.2 L 254.8 19.2 L 254.8 14.5 Z M 260 16.9 C 260 16.9 260 16.9 260 16.9 C 260 15.3 261.1 14.4 262.2 14.4 C 263.1 14.4 263.6 14.9 264 15.4 C 263.98 15.44 264 12.6 264 12.6 L 264.7 12.6 L 264.7 19.2 L 264 19.2 C 264 19.2 263.98 18.26 264 18.3 C 263.6 18.8 263.1 19.3 262.2 19.3 C 261.1 19.3 260 18.4 260 16.9 Z M 264 16.9 C 264 16.9 264 16.9 264 16.9 C 264 15.8 263.2 15.1 262.3 15.1 C 261.4 15.1 260.7 15.7 260.7 16.9 C 260.7 16.9 260.7 16.9 260.7 16.9 C 260.7 18 261.5 18.7 262.3 18.7 C 263.2 18.7 264 17.9 264 16.9 Z M 265.7 18.6 C 265.7 18.6 266.1 18.1 266.1 18.1 C 266.6 18.5 267.2 18.7 267.7 18.7 C 268.3 18.7 268.7 18.4 268.7 18 C 268.7 18 268.7 17.9 268.7 17.9 C 268.7 17.5 268.1 17.3 267.5 17.1 C 266.8 16.9 266 16.7 266 15.8 C 266 15.8 266 15.8 266 15.8 C 266 15 266.6 14.5 267.6 14.5 C 268.1 14.5 268.8 14.7 269.2 15 C 269.2 15 268.9 15.5 268.9 15.5 C 268.5 15.2 268 15.1 267.5 15.1 C 267 15.1 266.6 15.3 266.6 15.7 C 266.6 15.7 266.6 15.7 266.6 15.7 C 266.6 16.2 267.2 16.4 267.8 16.5 C 268.6 16.8 269.3 17 269.3 17.9 C 269.3 17.9 269.3 17.9 269.3 17.9 C 269.3 18.8 268.6 19.3 267.7 19.3 C 267 19.3 266.3 19 265.7 18.6 Z M 270.5 14.5 L 271.3 14.5 L 271.3 15.5 L 270.5 15.5 L 270.5 14.5 Z M 270.5 18.3 L 271.3 18.3 L 271.3 19.2 L 270.5 19.2 L 270.5 18.3 Z M 275 12.9 L 275.7 12.9 L 277.5 18.1 L 279.3 12.9 L 279.9 12.9 L 281.6 18.1 L 283.4 12.9 L 284.1 12.9 L 281.9 19.2 L 281.3 19.2 L 279.6 14.1 L 277.8 19.2 L 277.2 19.2 L 275 12.9 Z M 285.1 12.8 L 285.9 12.8 L 285.9 13.5 L 285.1 13.5 L 285.1 12.8 Z M 285.1 14.5 L 285.8 14.5 L 285.8 19.2 L 285.1 19.2 L 285.1 14.5 Z M 287.4 12.6 L 288.1 12.6 L 288.1 19.2 L 287.4 19.2 L 287.4 12.6 Z M 289.4 16.9 C 289.4 16.9 289.4 16.9 289.4 16.9 C 289.4 15.3 290.5 14.4 291.6 14.4 C 292.5 14.4 293 14.9 293.4 15.4 C 293.37 15.44 293.4 12.6 293.4 12.6 L 294.1 12.6 L 294.1 19.2 L 293.4 19.2 C 293.4 19.2 293.37 18.26 293.4 18.3 C 293 18.8 292.4 19.3 291.6 19.3 C 290.5 19.3 289.4 18.4 289.4 16.9 Z M 293.4 16.9 C 293.4 16.9 293.4 16.9 293.4 16.9 C 293.4 15.8 292.6 15.1 291.7 15.1 C 290.8 15.1 290.1 15.7 290.1 16.9 C 290.1 16.9 290.1 16.9 290.1 16.9 C 290.1 18 290.8 18.7 291.7 18.7 C 292.6 18.7 293.4 17.9 293.4 16.9 Z M 298.2 12.9 C 298.2 12.9 300.96 12.9 301 12.9 C 301.7 12.9 302.4 13.1 302.7 13.5 C 303.1 13.8 303.2 14.3 303.2 14.8 C 303.2 14.8 303.2 14.8 303.2 14.8 C 303.2 15.8 302.5 16.4 301.5 16.6 C 301.52 16.63 303.5 19.2 303.5 19.2 L 302.6 19.2 L 300.8 16.8 L 299 16.8 L 299 19.2 L 298.2 19.2 L 298.2 12.9 Z M 300.9 16.1 C 301.8 16.1 302.5 15.6 302.5 14.8 C 302.5 14.8 302.5 14.8 302.5 14.8 C 302.5 14 301.9 13.6 300.9 13.6 C 300.9 13.56 299 13.6 299 13.6 L 299 16.1 C 299 16.1 300.89 16.11 300.9 16.1 Z M 304.6 12.8 L 305.4 12.8 L 305.4 13.5 L 304.6 13.5 L 304.6 12.8 Z M 304.6 14.5 L 305.3 14.5 L 305.3 19.2 L 304.6 19.2 L 304.6 14.5 Z M 307.1 15.1 L 306.4 15.1 L 306.4 14.5 L 307.1 14.5 C 307.1 14.5 307.08 14.14 307.1 14.1 C 307.1 13.6 307.2 13.2 307.5 13 C 307.7 12.7 308.1 12.6 308.5 12.6 C 308.8 12.6 309 12.6 309.3 12.7 C 309.3 12.7 309.3 13.3 309.3 13.3 C 309 13.2 308.8 13.2 308.6 13.2 C 308 13.2 307.8 13.5 307.8 14.2 C 307.77 14.19 307.8 14.6 307.8 14.6 L 309.2 14.6 L 309.2 15.1 L 307.8 15.1 L 307.8 19.2 L 307.1 19.2 L 307.1 15.1 Z M 310.3 18 C 310.28 17.97 310.3 15.2 310.3 15.2 L 309.6 15.2 L 309.6 14.5 L 310.3 14.5 L 310.3 13.1 L 311 13.1 L 311 14.5 L 312.4 14.5 L 312.4 15.2 L 311 15.2 C 311 15.2 310.97 17.88 311 17.9 C 311 18.4 311.3 18.7 311.8 18.7 C 312 18.7 312.2 18.6 312.4 18.5 C 312.4 18.5 312.4 19.1 312.4 19.1 C 312.2 19.2 311.9 19.3 311.6 19.3 C 310.8 19.3 310.3 18.9 310.3 18 Z M 313.5 18.3 L 314.3 18.3 L 314.3 19.2 L 313.5 19.2 L 313.5 18.3 Z " stroke="none" fill="#fff"/>
  </g>
  <g id="Polygon38321">
    <path d="M 0.5 6.3 C 0.5 6.3 0.9 5.8 0.9 5.8 C 1.6 6.4 2.2 6.7 3.1 6.7 C 3.9 6.7 4.5 6.2 4.5 5.6 C 4.5 5.6 4.5 5.6 4.5 5.6 C 4.5 5 4.2 4.6 2.8 4.4 C 1.4 4 0.7 3.6 0.7 2.5 C 0.7 2.5 0.7 2.5 0.7 2.5 C 0.7 1.5 1.6 0.8 2.8 0.8 C 3.7 0.8 4.4 1.1 5 1.6 C 5 1.6 4.6 2.1 4.6 2.1 C 4 1.7 3.4 1.4 2.8 1.4 C 2 1.4 1.4 1.9 1.4 2.5 C 1.4 2.5 1.4 2.5 1.4 2.5 C 1.4 3.1 1.8 3.4 3.2 3.7 C 4.6 4 5.2 4.5 5.2 5.5 C 5.2 5.5 5.2 5.5 5.2 5.5 C 5.2 6.6 4.3 7.3 3.1 7.3 C 2.1 7.3 1.2 7 0.5 6.3 Z M 6.5 4.6 C 6.46 4.56 6.5 0.9 6.5 0.9 L 7.2 0.9 C 7.2 0.9 7.17 4.52 7.2 4.5 C 7.2 5.9 7.9 6.6 9.1 6.6 C 10.3 6.6 11 5.9 11 4.6 C 11 4.56 11 0.9 11 0.9 L 11.7 0.9 C 11.7 0.9 11.71 4.51 11.7 4.5 C 11.7 6.3 10.7 7.3 9.1 7.3 C 7.5 7.3 6.5 6.3 6.5 4.6 Z M 13.3 0.9 L 14 0.9 L 14 6.5 L 17.6 6.5 L 17.6 7.2 L 13.3 7.2 L 13.3 0.9 Z M 19.6 4.7 L 17 0.9 L 17.8 0.9 L 20 4 L 22.1 0.9 L 22.9 0.9 L 20.3 4.7 L 20.3 7.2 L 19.6 7.2 L 19.6 4.7 Z M 25.3 0.9 L 26 0.9 L 28.8 7.2 L 28.1 7.2 L 27.3 5.5 L 23.9 5.5 L 23.2 7.2 L 22.4 7.2 L 25.3 0.9 Z M 27.1 4.9 L 25.6 1.7 L 24.2 4.9 L 27.1 4.9 Z M 30 0.9 C 30 0.9 32.35 0.9 32.4 0.9 C 33.8 0.9 34.7 1.7 34.7 2.9 C 34.7 2.9 34.7 2.9 34.7 2.9 C 34.7 4.3 33.6 5 32.2 5 C 32.24 4.98 30.7 5 30.7 5 L 30.7 7.2 L 30 7.2 L 30 0.9 Z M 32.3 4.3 C 33.3 4.3 34 3.8 34 2.9 C 34 2.9 34 2.9 34 2.9 C 34 2 33.3 1.6 32.3 1.6 C 32.3 1.56 30.7 1.6 30.7 1.6 L 30.7 4.3 C 30.7 4.3 32.26 4.33 32.3 4.3 Z M 37.6 0.9 L 38.3 0.9 L 41.2 7.2 L 40.4 7.2 L 39.7 5.5 L 36.2 5.5 L 35.5 7.2 L 34.7 7.2 L 37.6 0.9 Z M 39.4 4.9 L 37.9 1.7 L 36.5 4.9 L 39.4 4.9 Z M 42.3 0.9 L 43 0.9 L 46.9 5.9 L 46.9 0.9 L 47.6 0.9 L 47.6 7.2 L 47.1 7.2 L 43 2 L 43 7.2 L 42.3 7.2 L 42.3 0.9 Z M 52.5 5.8 C 52.5 5.8 52.5 5.8 52.5 5.8 C 52.5 4.9 53.3 4.3 54.5 4.3 C 55.1 4.3 55.5 4.4 55.9 4.5 C 55.9 4.5 55.9 4.4 55.9 4.4 C 55.9 3.5 55.4 3.1 54.5 3.1 C 54 3.1 53.5 3.2 53.1 3.4 C 53.1 3.4 52.9 2.9 52.9 2.9 C 53.4 2.6 53.9 2.5 54.6 2.5 C 55.2 2.5 55.8 2.7 56.1 3 C 56.4 3.3 56.6 3.8 56.6 4.4 C 56.57 4.36 56.6 7.2 56.6 7.2 L 55.9 7.2 C 55.9 7.2 55.9 6.5 55.9 6.5 C 55.6 6.9 55 7.3 54.2 7.3 C 53.4 7.3 52.5 6.8 52.5 5.8 Z M 55.9 5.5 C 55.9 5.5 55.9 5 55.9 5 C 55.6 4.9 55.1 4.8 54.5 4.8 C 53.7 4.8 53.2 5.2 53.2 5.8 C 53.2 5.8 53.2 5.8 53.2 5.8 C 53.2 6.4 53.7 6.8 54.4 6.8 C 55.2 6.8 55.9 6.2 55.9 5.5 Z M 58 2.5 L 58.6 2.5 C 58.6 2.5 58.65 3.36 58.6 3.4 C 59 2.9 59.4 2.4 60.2 2.4 C 61.4 2.4 62 3.2 62 4.3 C 62.02 4.31 62 7.2 62 7.2 L 61.3 7.2 C 61.3 7.2 61.33 4.48 61.3 4.5 C 61.3 3.6 60.9 3.1 60 3.1 C 59.2 3.1 58.6 3.7 58.6 4.5 C 58.65 4.54 58.6 7.2 58.6 7.2 L 58 7.2 L 58 2.5 Z M 63.4 8 C 63.4 8 63.7 7.5 63.7 7.5 C 64.2 7.9 64.8 8.1 65.5 8.1 C 66.5 8.1 67.2 7.5 67.2 6.4 C 67.2 6.4 67.2 5.9 67.2 5.9 C 66.7 6.4 66.2 6.8 65.3 6.8 C 64.2 6.8 63.1 6 63.1 4.7 C 63.1 4.7 63.1 4.6 63.1 4.6 C 63.1 3.3 64.2 2.4 65.3 2.4 C 66.2 2.4 66.8 2.9 67.1 3.4 C 67.15 3.38 67.1 2.5 67.1 2.5 L 67.8 2.5 C 67.8 2.5 67.84 6.39 67.8 6.4 C 67.8 7.1 67.6 7.7 67.2 8 C 66.8 8.5 66.2 8.7 65.5 8.7 C 64.7 8.7 64 8.4 63.4 8 Z M 67.2 4.7 C 67.2 4.7 67.2 4.6 67.2 4.6 C 67.2 3.7 66.3 3.1 65.5 3.1 C 64.6 3.1 63.9 3.7 63.9 4.6 C 63.9 4.6 63.9 4.6 63.9 4.6 C 63.9 5.6 64.6 6.2 65.5 6.2 C 66.3 6.2 67.2 5.6 67.2 4.7 Z M 72.9 0.6 L 73.6 0.6 L 73.6 5.2 L 76.1 2.5 L 77 2.5 L 75 4.5 L 77 7.2 L 76.2 7.2 L 74.6 5 L 73.6 6 L 73.6 7.2 L 72.9 7.2 L 72.9 0.6 Z M 77.8 5.4 C 77.79 5.44 77.8 2.5 77.8 2.5 L 78.5 2.5 C 78.5 2.5 78.48 5.27 78.5 5.3 C 78.5 6.1 78.9 6.7 79.8 6.7 C 80.6 6.7 81.2 6.1 81.2 5.2 C 81.16 5.21 81.2 2.5 81.2 2.5 L 81.8 2.5 L 81.8 7.2 L 81.2 7.2 C 81.2 7.2 81.16 6.39 81.2 6.4 C 80.8 6.9 80.4 7.3 79.6 7.3 C 78.4 7.3 77.8 6.5 77.8 5.4 Z M 82.9 2.5 L 83.7 2.5 L 84.9 6.3 L 86.1 2.5 L 86.7 2.5 L 88 6.3 L 89.2 2.5 L 89.9 2.5 L 88.3 7.2 L 87.7 7.2 L 86.4 3.6 L 85.2 7.2 L 84.5 7.2 L 82.9 2.5 Z M 90.5 4.9 C 90.5 4.9 90.5 4.9 90.5 4.9 C 90.5 3.5 91.4 2.4 92.7 2.4 C 94.1 2.4 94.9 3.5 94.9 4.9 C 94.9 5 94.9 5 94.9 5.1 C 94.9 5.1 91.2 5.1 91.2 5.1 C 91.3 6.1 92 6.7 92.8 6.7 C 93.4 6.7 93.9 6.4 94.3 6 C 94.3 6 94.7 6.4 94.7 6.4 C 94.2 7 93.7 7.3 92.8 7.3 C 91.5 7.3 90.5 6.3 90.5 4.9 Z M 94.2 4.6 C 94.1 3.8 93.6 3 92.7 3 C 91.9 3 91.3 3.7 91.2 4.6 C 91.2 4.6 94.2 4.6 94.2 4.6 Z M 96 2.5 L 96.7 2.5 C 96.7 2.5 96.68 3.36 96.7 3.4 C 97 2.9 97.5 2.4 98.3 2.4 C 99.4 2.4 100.1 3.2 100.1 4.3 C 100.05 4.31 100.1 7.2 100.1 7.2 L 99.4 7.2 C 99.4 7.2 99.36 4.48 99.4 4.5 C 99.4 3.6 98.9 3.1 98.1 3.1 C 97.3 3.1 96.7 3.7 96.7 4.5 C 96.68 4.54 96.7 7.2 96.7 7.2 L 96 7.2 L 96 2.5 Z M 101.7 6 C 101.68 5.97 101.7 3.2 101.7 3.2 L 101 3.2 L 101 2.5 L 101.7 2.5 L 101.7 1.1 L 102.4 1.1 L 102.4 2.5 L 103.9 2.5 L 103.9 3.2 L 102.4 3.2 C 102.4 3.2 102.38 5.88 102.4 5.9 C 102.4 6.4 102.7 6.7 103.2 6.7 C 103.4 6.7 103.6 6.6 103.8 6.5 C 103.8 6.5 103.8 7.1 103.8 7.1 C 103.6 7.2 103.3 7.3 103 7.3 C 102.2 7.3 101.7 6.9 101.7 6 Z M 104.6 4.9 C 104.6 4.9 104.6 4.9 104.6 4.9 C 104.6 3.6 105.6 2.4 107 2.4 C 108.4 2.4 109.4 3.5 109.4 4.9 C 109.4 4.9 109.4 4.9 109.4 4.9 C 109.4 6.2 108.4 7.3 107 7.3 C 105.6 7.3 104.6 6.2 104.6 4.9 Z M 108.7 4.9 C 108.7 4.9 108.7 4.9 108.7 4.9 C 108.7 3.9 108 3.1 107 3.1 C 106 3.1 105.3 3.9 105.3 4.9 C 105.3 4.9 105.3 4.9 105.3 4.9 C 105.3 5.9 106 6.7 107 6.7 C 108 6.7 108.7 5.9 108.7 4.9 Z M 114.2 2.5 L 114.9 2.5 C 114.9 2.5 114.89 3.36 114.9 3.4 C 115.2 2.9 115.7 2.4 116.5 2.4 C 117.6 2.4 118.3 3.2 118.3 4.3 C 118.27 4.31 118.3 7.2 118.3 7.2 L 117.6 7.2 C 117.6 7.2 117.57 4.48 117.6 4.5 C 117.6 3.6 117.1 3.1 116.3 3.1 C 115.5 3.1 114.9 3.7 114.9 4.5 C 114.89 4.54 114.9 7.2 114.9 7.2 L 114.2 7.2 L 114.2 2.5 Z M 119.6 8 C 119.6 8 119.9 7.5 119.9 7.5 C 120.4 7.9 121 8.1 121.7 8.1 C 122.7 8.1 123.4 7.5 123.4 6.4 C 123.4 6.4 123.4 5.9 123.4 5.9 C 123 6.4 122.4 6.8 121.6 6.8 C 120.5 6.8 119.4 6 119.4 4.7 C 119.4 4.7 119.4 4.6 119.4 4.6 C 119.4 3.3 120.5 2.4 121.6 2.4 C 122.4 2.4 123 2.9 123.4 3.4 C 123.39 3.38 123.4 2.5 123.4 2.5 L 124.1 2.5 C 124.1 2.5 124.08 6.39 124.1 6.4 C 124.1 7.1 123.9 7.7 123.5 8 C 123.1 8.5 122.5 8.7 121.7 8.7 C 120.9 8.7 120.2 8.4 119.6 8 Z M 123.4 4.7 C 123.4 4.7 123.4 4.6 123.4 4.6 C 123.4 3.7 122.6 3.1 121.7 3.1 C 120.8 3.1 120.1 3.7 120.1 4.6 C 120.1 4.6 120.1 4.6 120.1 4.6 C 120.1 5.6 120.8 6.2 121.7 6.2 C 122.6 6.2 123.4 5.6 123.4 4.7 Z M 129.2 2.5 L 129.9 2.5 C 129.9 2.5 129.85 3.48 129.9 3.5 C 130.2 2.9 130.8 2.4 131.6 2.4 C 132.8 2.4 133.9 3.3 133.9 4.9 C 133.9 4.9 133.9 4.9 133.9 4.9 C 133.9 6.4 132.8 7.3 131.6 7.3 C 130.8 7.3 130.2 6.8 129.9 6.3 C 129.85 6.31 129.9 8.6 129.9 8.6 L 129.2 8.6 L 129.2 2.5 Z M 133.1 4.9 C 133.1 4.9 133.1 4.9 133.1 4.9 C 133.1 3.8 132.4 3.1 131.5 3.1 C 130.6 3.1 129.8 3.8 129.8 4.9 C 129.8 4.9 129.8 4.9 129.8 4.9 C 129.8 6 130.6 6.7 131.5 6.7 C 132.4 6.7 133.1 6 133.1 4.9 Z M 134.7 5.8 C 134.7 5.8 134.7 5.8 134.7 5.8 C 134.7 4.9 135.5 4.3 136.7 4.3 C 137.3 4.3 137.7 4.4 138.1 4.5 C 138.1 4.5 138.1 4.4 138.1 4.4 C 138.1 3.5 137.6 3.1 136.7 3.1 C 136.2 3.1 135.7 3.2 135.3 3.4 C 135.3 3.4 135.1 2.9 135.1 2.9 C 135.6 2.6 136.1 2.5 136.8 2.5 C 137.5 2.5 138 2.7 138.3 3 C 138.6 3.3 138.8 3.8 138.8 4.4 C 138.78 4.36 138.8 7.2 138.8 7.2 L 138.1 7.2 C 138.1 7.2 138.12 6.5 138.1 6.5 C 137.8 6.9 137.3 7.3 136.4 7.3 C 135.6 7.3 134.7 6.8 134.7 5.8 Z M 138.1 5.5 C 138.1 5.5 138.1 5 138.1 5 C 137.8 4.9 137.3 4.8 136.8 4.8 C 135.9 4.8 135.4 5.2 135.4 5.8 C 135.4 5.8 135.4 5.8 135.4 5.8 C 135.4 6.4 135.9 6.8 136.6 6.8 C 137.4 6.8 138.1 6.2 138.1 5.5 Z M 140.1 8 C 140.1 8 140.4 7.5 140.4 7.5 C 141 7.9 141.6 8.1 142.2 8.1 C 143.2 8.1 143.9 7.5 143.9 6.4 C 143.9 6.4 143.9 5.9 143.9 5.9 C 143.5 6.4 142.9 6.8 142.1 6.8 C 141 6.8 139.9 6 139.9 4.7 C 139.9 4.7 139.9 4.6 139.9 4.6 C 139.9 3.3 141 2.4 142.1 2.4 C 143 2.4 143.5 2.9 143.9 3.4 C 143.9 3.38 143.9 2.5 143.9 2.5 L 144.6 2.5 C 144.6 2.5 144.6 6.39 144.6 6.4 C 144.6 7.1 144.4 7.7 144 8 C 143.6 8.5 143 8.7 142.2 8.7 C 141.5 8.7 140.7 8.4 140.1 8 Z M 143.9 4.7 C 143.9 4.7 143.9 4.6 143.9 4.6 C 143.9 3.7 143.1 3.1 142.2 3.1 C 141.3 3.1 140.6 3.7 140.6 4.6 C 140.6 4.6 140.6 4.6 140.6 4.6 C 140.6 5.6 141.4 6.2 142.2 6.2 C 143.1 6.2 143.9 5.6 143.9 4.7 Z M 145.7 6.6 C 145.7 6.6 146 6.1 146 6.1 C 146.5 6.5 147.1 6.7 147.6 6.7 C 148.2 6.7 148.6 6.4 148.6 6 C 148.6 6 148.6 5.9 148.6 5.9 C 148.6 5.5 148 5.3 147.4 5.1 C 146.7 4.9 145.9 4.7 145.9 3.8 C 145.9 3.8 145.9 3.8 145.9 3.8 C 145.9 3 146.6 2.5 147.5 2.5 C 148 2.5 148.7 2.7 149.2 3 C 149.2 3 148.8 3.5 148.8 3.5 C 148.4 3.2 147.9 3.1 147.5 3.1 C 146.9 3.1 146.6 3.3 146.6 3.7 C 146.6 3.7 146.6 3.7 146.6 3.7 C 146.6 4.2 147.1 4.4 147.8 4.5 C 148.5 4.8 149.2 5 149.2 5.9 C 149.2 5.9 149.2 5.9 149.2 5.9 C 149.2 6.8 148.5 7.3 147.6 7.3 C 146.9 7.3 146.2 7 145.7 6.6 Z M 150.5 0.8 L 151.3 0.8 L 151.3 1.5 L 150.5 1.5 L 150.5 0.8 Z M 150.5 2.5 L 151.2 2.5 L 151.2 7.2 L 150.5 7.2 L 150.5 2.5 Z M 152.3 6.6 C 152.3 6.6 152.7 6.1 152.7 6.1 C 153.2 6.5 153.7 6.7 154.3 6.7 C 154.9 6.7 155.3 6.4 155.3 6 C 155.3 6 155.3 5.9 155.3 5.9 C 155.3 5.5 154.7 5.3 154.1 5.1 C 153.4 4.9 152.6 4.7 152.6 3.8 C 152.6 3.8 152.6 3.8 152.6 3.8 C 152.6 3 153.2 2.5 154.1 2.5 C 154.7 2.5 155.3 2.7 155.8 3 C 155.8 3 155.5 3.5 155.5 3.5 C 155.1 3.2 154.6 3.1 154.1 3.1 C 153.6 3.1 153.2 3.3 153.2 3.7 C 153.2 3.7 153.2 3.7 153.2 3.7 C 153.2 4.2 153.8 4.4 154.4 4.5 C 155.1 4.8 155.9 5 155.9 5.9 C 155.9 5.9 155.9 5.9 155.9 5.9 C 155.9 6.8 155.2 7.3 154.3 7.3 C 153.6 7.3 152.9 7 152.3 6.6 Z M 157.1 0.8 L 157.9 0.8 L 157.9 1.5 L 157.1 1.5 L 157.1 0.8 Z M 157.2 2.5 L 157.9 2.5 L 157.9 7.2 L 157.2 7.2 L 157.2 2.5 Z M 159.4 2.5 L 160.1 2.5 C 160.1 2.5 160.08 3.33 160.1 3.3 C 160.4 2.9 160.8 2.4 161.6 2.4 C 162.3 2.4 162.8 2.9 163.1 3.4 C 163.4 2.9 163.9 2.4 164.7 2.4 C 165.8 2.4 166.4 3.2 166.4 4.3 C 166.45 4.32 166.4 7.2 166.4 7.2 L 165.8 7.2 C 165.8 7.2 165.76 4.48 165.8 4.5 C 165.8 3.6 165.3 3.1 164.5 3.1 C 163.8 3.1 163.3 3.6 163.3 4.5 C 163.27 4.52 163.3 7.2 163.3 7.2 L 162.6 7.2 C 162.6 7.2 162.58 4.46 162.6 4.5 C 162.6 3.6 162.1 3.1 161.4 3.1 C 160.6 3.1 160.1 3.7 160.1 4.5 C 160.08 4.54 160.1 7.2 160.1 7.2 L 159.4 7.2 L 159.4 2.5 Z M 167.8 5.4 C 167.79 5.44 167.8 2.5 167.8 2.5 L 168.5 2.5 C 168.5 2.5 168.48 5.27 168.5 5.3 C 168.5 6.1 168.9 6.7 169.8 6.7 C 170.6 6.7 171.2 6.1 171.2 5.2 C 171.16 5.21 171.2 2.5 171.2 2.5 L 171.8 2.5 L 171.8 7.2 L 171.2 7.2 C 171.2 7.2 171.16 6.39 171.2 6.4 C 170.8 6.9 170.4 7.3 169.6 7.3 C 168.4 7.3 167.8 6.5 167.8 5.4 Z M 173.4 0.6 L 174.1 0.6 L 174.1 7.2 L 173.4 7.2 L 173.4 0.6 Z M 175.2 5.8 C 175.2 5.8 175.2 5.8 175.2 5.8 C 175.2 4.9 176.1 4.3 177.2 4.3 C 177.8 4.3 178.2 4.4 178.7 4.5 C 178.7 4.5 178.7 4.4 178.7 4.4 C 178.7 3.5 178.1 3.1 177.3 3.1 C 176.7 3.1 176.3 3.2 175.9 3.4 C 175.9 3.4 175.7 2.9 175.7 2.9 C 176.2 2.6 176.7 2.5 177.3 2.5 C 178 2.5 178.5 2.7 178.9 3 C 179.2 3.3 179.3 3.8 179.3 4.4 C 179.33 4.36 179.3 7.2 179.3 7.2 L 178.7 7.2 C 178.7 7.2 178.66 6.5 178.7 6.5 C 178.3 6.9 177.8 7.3 177 7.3 C 176.1 7.3 175.2 6.8 175.2 5.8 Z M 178.7 5.5 C 178.7 5.5 178.7 5 178.7 5 C 178.3 4.9 177.9 4.8 177.3 4.8 C 176.4 4.8 175.9 5.2 175.9 5.8 C 175.9 5.8 175.9 5.8 175.9 5.8 C 175.9 6.4 176.5 6.8 177.1 6.8 C 178 6.8 178.7 6.2 178.7 5.5 Z M 184.3 2.5 L 185 2.5 C 185 2.5 185.03 3.36 185 3.4 C 185.3 2.9 185.8 2.4 186.6 2.4 C 187.7 2.4 188.4 3.2 188.4 4.3 C 188.4 4.31 188.4 7.2 188.4 7.2 L 187.7 7.2 C 187.7 7.2 187.71 4.48 187.7 4.5 C 187.7 3.6 187.2 3.1 186.4 3.1 C 185.6 3.1 185 3.7 185 4.5 C 185.03 4.54 185 7.2 185 7.2 L 184.3 7.2 L 184.3 2.5 Z M 189.7 8 C 189.7 8 190.1 7.5 190.1 7.5 C 190.6 7.9 191.2 8.1 191.8 8.1 C 192.9 8.1 193.5 7.5 193.5 6.4 C 193.5 6.4 193.5 5.9 193.5 5.9 C 193.1 6.4 192.6 6.8 191.7 6.8 C 190.6 6.8 189.5 6 189.5 4.7 C 189.5 4.7 189.5 4.6 189.5 4.6 C 189.5 3.3 190.6 2.4 191.7 2.4 C 192.6 2.4 193.1 2.9 193.5 3.4 C 193.53 3.38 193.5 2.5 193.5 2.5 L 194.2 2.5 C 194.2 2.5 194.22 6.39 194.2 6.4 C 194.2 7.1 194 7.7 193.6 8 C 193.2 8.5 192.6 8.7 191.9 8.7 C 191.1 8.7 190.4 8.4 189.7 8 Z M 193.6 4.7 C 193.6 4.7 193.6 4.6 193.6 4.6 C 193.6 3.7 192.7 3.1 191.8 3.1 C 191 3.1 190.2 3.7 190.2 4.6 C 190.2 4.6 190.2 4.6 190.2 4.6 C 190.2 5.6 191 6.2 191.8 6.2 C 192.7 6.2 193.6 5.6 193.6 4.7 Z M 199.3 0.6 L 200 0.6 L 200 5.2 L 202.5 2.5 L 203.4 2.5 L 201.4 4.5 L 203.4 7.2 L 202.6 7.2 L 200.9 5 L 200 6 L 200 7.2 L 199.3 7.2 L 199.3 0.6 Z M 203.8 4.9 C 203.8 4.9 203.8 4.9 203.8 4.9 C 203.8 3.6 204.8 2.4 206.2 2.4 C 207.6 2.4 208.7 3.5 208.7 4.9 C 208.7 4.9 208.7 4.9 208.7 4.9 C 208.7 6.2 207.6 7.3 206.2 7.3 C 204.8 7.3 203.8 6.2 203.8 4.9 Z M 208 4.9 C 208 4.9 208 4.9 208 4.9 C 208 3.9 207.2 3.1 206.2 3.1 C 205.2 3.1 204.5 3.9 204.5 4.9 C 204.5 4.9 204.5 4.9 204.5 4.9 C 204.5 5.9 205.3 6.7 206.2 6.7 C 207.3 6.7 208 5.9 208 4.9 Z M 209.8 2.5 L 210.5 2.5 C 210.5 2.5 210.52 3.48 210.5 3.5 C 210.9 2.9 211.4 2.4 212.3 2.4 C 213.4 2.4 214.5 3.3 214.5 4.9 C 214.5 4.9 214.5 4.9 214.5 4.9 C 214.5 6.4 213.4 7.3 212.3 7.3 C 211.4 7.3 210.9 6.8 210.5 6.3 C 210.52 6.31 210.5 8.6 210.5 8.6 L 209.8 8.6 L 209.8 2.5 Z M 213.8 4.9 C 213.8 4.9 213.8 4.9 213.8 4.9 C 213.8 3.8 213.1 3.1 212.2 3.1 C 211.3 3.1 210.5 3.8 210.5 4.9 C 210.5 4.9 210.5 4.9 210.5 4.9 C 210.5 6 211.3 6.7 212.2 6.7 C 213.1 6.7 213.8 6 213.8 4.9 Z M 215.4 4.9 C 215.4 4.9 215.4 4.9 215.4 4.9 C 215.4 3.6 216.5 2.4 217.9 2.4 C 219.3 2.4 220.3 3.5 220.3 4.9 C 220.3 4.9 220.3 4.9 220.3 4.9 C 220.3 6.2 219.2 7.3 217.8 7.3 C 216.4 7.3 215.4 6.2 215.4 4.9 Z M 219.6 4.9 C 219.6 4.9 219.6 4.9 219.6 4.9 C 219.6 3.9 218.8 3.1 217.8 3.1 C 216.8 3.1 216.1 3.9 216.1 4.9 C 216.1 4.9 216.1 4.9 216.1 4.9 C 216.1 5.9 216.9 6.7 217.9 6.7 C 218.9 6.7 219.6 5.9 219.6 4.9 Z M 221.4 2.5 L 222.1 2.5 C 222.1 2.5 222.13 3.36 222.1 3.4 C 222.4 2.9 222.9 2.4 223.7 2.4 C 224.9 2.4 225.5 3.2 225.5 4.3 C 225.51 4.31 225.5 7.2 225.5 7.2 L 224.8 7.2 C 224.8 7.2 224.81 4.48 224.8 4.5 C 224.8 3.6 224.3 3.1 223.5 3.1 C 222.7 3.1 222.1 3.7 222.1 4.5 C 222.13 4.54 222.1 7.2 222.1 7.2 L 221.4 7.2 L 221.4 2.5 Z M 226.5 5.8 C 226.5 5.8 226.5 5.8 226.5 5.8 C 226.5 4.9 227.4 4.3 228.5 4.3 C 229.1 4.3 229.5 4.4 230 4.5 C 230 4.5 230 4.4 230 4.4 C 230 3.5 229.4 3.1 228.6 3.1 C 228 3.1 227.6 3.2 227.2 3.4 C 227.2 3.4 227 2.9 227 2.9 C 227.5 2.6 228 2.5 228.6 2.5 C 229.3 2.5 229.8 2.7 230.2 3 C 230.5 3.3 230.6 3.8 230.6 4.4 C 230.63 4.36 230.6 7.2 230.6 7.2 L 230 7.2 C 230 7.2 229.96 6.5 230 6.5 C 229.6 6.9 229.1 7.3 228.3 7.3 C 227.4 7.3 226.5 6.8 226.5 5.8 Z M 230 5.5 C 230 5.5 230 5 230 5 C 229.6 4.9 229.2 4.8 228.6 4.8 C 227.7 4.8 227.2 5.2 227.2 5.8 C 227.2 5.8 227.2 5.8 227.2 5.8 C 227.2 6.4 227.8 6.8 228.4 6.8 C 229.3 6.8 230 6.2 230 5.5 Z M 232 2.5 L 232.7 2.5 C 232.7 2.5 232.71 3.36 232.7 3.4 C 233 2.9 233.5 2.4 234.3 2.4 C 235.4 2.4 236.1 3.2 236.1 4.3 C 236.08 4.31 236.1 7.2 236.1 7.2 L 235.4 7.2 C 235.4 7.2 235.39 4.48 235.4 4.5 C 235.4 3.6 234.9 3.1 234.1 3.1 C 233.3 3.1 232.7 3.7 232.7 4.5 C 232.71 4.54 232.7 7.2 232.7 7.2 L 232 7.2 L 232 2.5 Z M 237.4 8 C 237.4 8 237.7 7.5 237.7 7.5 C 238.3 7.9 238.9 8.1 239.5 8.1 C 240.5 8.1 241.2 7.5 241.2 6.4 C 241.2 6.4 241.2 5.9 241.2 5.9 C 240.8 6.4 240.2 6.8 239.4 6.8 C 238.3 6.8 237.2 6 237.2 4.7 C 237.2 4.7 237.2 4.6 237.2 4.6 C 237.2 3.3 238.3 2.4 239.4 2.4 C 240.3 2.4 240.8 2.9 241.2 3.4 C 241.2 3.38 241.2 2.5 241.2 2.5 L 241.9 2.5 C 241.9 2.5 241.9 6.39 241.9 6.4 C 241.9 7.1 241.7 7.7 241.3 8 C 240.9 8.5 240.3 8.7 239.5 8.7 C 238.8 8.7 238 8.4 237.4 8 Z M 241.2 4.7 C 241.2 4.7 241.2 4.6 241.2 4.6 C 241.2 3.7 240.4 3.1 239.5 3.1 C 238.6 3.1 237.9 3.7 237.9 4.6 C 237.9 4.6 237.9 4.6 237.9 4.6 C 237.9 5.6 238.7 6.2 239.5 6.2 C 240.4 6.2 241.2 5.6 241.2 4.7 Z M 246.6 0.9 L 247.3 0.9 L 249.6 6.3 L 251.8 0.9 L 252.6 0.9 L 249.9 7.2 L 249.3 7.2 L 246.6 0.9 Z M 253.5 0.8 L 254.3 0.8 L 254.3 1.5 L 253.5 1.5 L 253.5 0.8 Z M 253.5 2.5 L 254.2 2.5 L 254.2 7.2 L 253.5 7.2 L 253.5 2.5 Z M 255.7 2.5 L 256.4 2.5 C 256.4 2.5 256.43 3.76 256.4 3.8 C 256.8 3 257.4 2.4 258.3 2.5 C 258.33 2.47 258.3 3.2 258.3 3.2 C 258.3 3.2 258.27 3.21 258.3 3.2 C 257.3 3.2 256.4 3.9 256.4 5.3 C 256.43 5.35 256.4 7.2 256.4 7.2 L 255.7 7.2 L 255.7 2.5 Z M 259.3 0.8 L 260.1 0.8 L 260.1 1.5 L 259.3 1.5 L 259.3 0.8 Z M 259.4 2.5 L 260 2.5 L 260 7.2 L 259.4 7.2 L 259.4 2.5 Z M 261.3 4.9 C 261.3 4.9 261.3 4.9 261.3 4.9 C 261.3 3.3 262.4 2.4 263.5 2.4 C 264.4 2.4 264.9 2.9 265.3 3.4 C 265.3 3.44 265.3 0.6 265.3 0.6 L 266 0.6 L 266 7.2 L 265.3 7.2 C 265.3 7.2 265.3 6.26 265.3 6.3 C 264.9 6.8 264.4 7.3 263.5 7.3 C 262.4 7.3 261.3 6.4 261.3 4.9 Z M 265.3 4.9 C 265.3 4.9 265.3 4.9 265.3 4.9 C 265.3 3.8 264.5 3.1 263.6 3.1 C 262.7 3.1 262 3.7 262 4.9 C 262 4.9 262 4.9 262 4.9 C 262 6 262.8 6.7 263.6 6.7 C 264.5 6.7 265.3 5.9 265.3 4.9 Z M 267.5 0.8 L 268.3 0.8 L 268.3 1.5 L 267.5 1.5 L 267.5 0.8 Z M 267.5 2.5 L 268.2 2.5 L 268.2 7.2 L 267.5 7.2 L 267.5 2.5 Z M 269.3 6.6 C 269.3 6.6 269.7 6.1 269.7 6.1 C 270.2 6.5 270.8 6.7 271.3 6.7 C 271.9 6.7 272.3 6.4 272.3 6 C 272.3 6 272.3 5.9 272.3 5.9 C 272.3 5.5 271.7 5.3 271.1 5.1 C 270.4 4.9 269.6 4.7 269.6 3.8 C 269.6 3.8 269.6 3.8 269.6 3.8 C 269.6 3 270.2 2.5 271.2 2.5 C 271.7 2.5 272.3 2.7 272.8 3 C 272.8 3 272.5 3.5 272.5 3.5 C 272.1 3.2 271.6 3.1 271.1 3.1 C 270.6 3.1 270.2 3.3 270.2 3.7 C 270.2 3.7 270.2 3.7 270.2 3.7 C 270.2 4.2 270.8 4.4 271.4 4.5 C 272.2 4.8 272.9 5 272.9 5.9 C 272.9 5.9 272.9 5.9 272.9 5.9 C 272.9 6.8 272.2 7.3 271.3 7.3 C 270.6 7.3 269.9 7 269.3 6.6 Z M 280.2 0.9 L 280.9 0.9 L 283.7 7.2 L 283 7.2 L 282.2 5.5 L 278.8 5.5 L 278.1 7.2 L 277.3 7.2 L 280.2 0.9 Z M 281.9 4.9 L 280.5 1.7 L 279.1 4.9 L 281.9 4.9 Z M 284.8 2.5 L 285.5 2.5 C 285.5 2.5 285.46 3.76 285.5 3.8 C 285.8 3 286.5 2.4 287.4 2.5 C 287.36 2.47 287.4 3.2 287.4 3.2 C 287.4 3.2 287.3 3.21 287.3 3.2 C 286.3 3.2 285.5 3.9 285.5 5.3 C 285.46 5.35 285.5 7.2 285.5 7.2 L 284.8 7.2 L 284.8 2.5 Z M 287.8 4.9 C 287.8 4.9 287.8 4.9 287.8 4.9 C 287.8 3.6 288.9 2.4 290.2 2.4 C 291.1 2.4 291.6 2.8 292.1 3.3 C 292.1 3.3 291.6 3.8 291.6 3.8 C 291.3 3.4 290.8 3.1 290.2 3.1 C 289.3 3.1 288.5 3.9 288.5 4.9 C 288.5 4.9 288.5 4.9 288.5 4.9 C 288.5 5.9 289.3 6.7 290.3 6.7 C 290.8 6.7 291.3 6.4 291.7 6 C 291.7 6 292.1 6.4 292.1 6.4 C 291.6 6.9 291.1 7.3 290.2 7.3 C 288.9 7.3 287.8 6.2 287.8 4.9 Z M 293.1 5.4 C 293.1 5.44 293.1 2.5 293.1 2.5 L 293.8 2.5 C 293.8 2.5 293.79 5.27 293.8 5.3 C 293.8 6.1 294.3 6.7 295.1 6.7 C 295.9 6.7 296.5 6.1 296.5 5.2 C 296.47 5.21 296.5 2.5 296.5 2.5 L 297.2 2.5 L 297.2 7.2 L 296.5 7.2 C 296.5 7.2 296.47 6.39 296.5 6.4 C 296.2 6.9 295.7 7.3 294.9 7.3 C 293.8 7.3 293.1 6.5 293.1 5.4 Z M 298.2 6.6 C 298.2 6.6 298.6 6.1 298.6 6.1 C 299.1 6.5 299.6 6.7 300.2 6.7 C 300.8 6.7 301.2 6.4 301.2 6 C 301.2 6 301.2 5.9 301.2 5.9 C 301.2 5.5 300.6 5.3 300 5.1 C 299.3 4.9 298.5 4.7 298.5 3.8 C 298.5 3.8 298.5 3.8 298.5 3.8 C 298.5 3 299.1 2.5 300 2.5 C 300.6 2.5 301.2 2.7 301.7 3 C 301.7 3 301.4 3.5 301.4 3.5 C 301 3.2 300.5 3.1 300 3.1 C 299.5 3.1 299.1 3.3 299.1 3.7 C 299.1 3.7 299.1 3.7 299.1 3.7 C 299.1 4.2 299.7 4.4 300.3 4.5 C 301 4.8 301.8 5 301.8 5.9 C 301.8 5.9 301.8 5.9 301.8 5.9 C 301.8 6.8 301.1 7.3 300.2 7.3 C 299.5 7.3 298.8 7 298.2 6.6 Z M 306.3 5.8 C 306.3 5.8 306.3 5.8 306.3 5.8 C 306.3 4.9 307.1 4.3 308.3 4.3 C 308.9 4.3 309.3 4.4 309.7 4.5 C 309.7 4.5 309.7 4.4 309.7 4.4 C 309.7 3.5 309.2 3.1 308.3 3.1 C 307.8 3.1 307.3 3.2 306.9 3.4 C 306.9 3.4 306.7 2.9 306.7 2.9 C 307.2 2.6 307.7 2.5 308.4 2.5 C 309.1 2.5 309.6 2.7 309.9 3 C 310.2 3.3 310.4 3.8 310.4 4.4 C 310.37 4.36 310.4 7.2 310.4 7.2 L 309.7 7.2 C 309.7 7.2 309.71 6.5 309.7 6.5 C 309.4 6.9 308.8 7.3 308 7.3 C 307.2 7.3 306.3 6.8 306.3 5.8 Z M 309.7 5.5 C 309.7 5.5 309.7 5 309.7 5 C 309.4 4.9 308.9 4.8 308.3 4.8 C 307.5 4.8 307 5.2 307 5.8 C 307 5.8 307 5.8 307 5.8 C 307 6.4 307.5 6.8 308.2 6.8 C 309 6.8 309.7 6.2 309.7 5.5 Z M 312 6 C 311.96 5.97 312 3.2 312 3.2 L 311.3 3.2 L 311.3 2.5 L 312 2.5 L 312 1.1 L 312.7 1.1 L 312.7 2.5 L 314.1 2.5 L 314.1 3.2 L 312.7 3.2 C 312.7 3.2 312.65 5.88 312.7 5.9 C 312.7 6.4 313 6.7 313.4 6.7 C 313.7 6.7 313.9 6.6 314.1 6.5 C 314.1 6.5 314.1 7.1 314.1 7.1 C 313.9 7.2 313.6 7.3 313.3 7.3 C 312.5 7.3 312 6.9 312 6 Z M 318.5 5.8 C 318.5 5.8 318.5 5.8 318.5 5.8 C 318.5 4.9 319.3 4.3 320.5 4.3 C 321.1 4.3 321.5 4.4 322 4.5 C 322 4.5 322 4.4 322 4.4 C 322 3.5 321.4 3.1 320.6 3.1 C 320 3.1 319.6 3.2 319.2 3.4 C 319.2 3.4 318.9 2.9 318.9 2.9 C 319.5 2.6 320 2.5 320.6 2.5 C 321.3 2.5 321.8 2.7 322.1 3 C 322.5 3.3 322.6 3.8 322.6 4.4 C 322.62 4.36 322.6 7.2 322.6 7.2 L 322 7.2 C 322 7.2 321.95 6.5 322 6.5 C 321.6 6.9 321.1 7.3 320.3 7.3 C 319.4 7.3 318.5 6.8 318.5 5.8 Z M 322 5.5 C 322 5.5 322 5 322 5 C 321.6 4.9 321.2 4.8 320.6 4.8 C 319.7 4.8 319.2 5.2 319.2 5.8 C 319.2 5.8 319.2 5.8 319.2 5.8 C 319.2 6.4 319.8 6.8 320.4 6.8 C 321.3 6.8 322 6.2 322 5.5 Z M 324 2.5 L 324.7 2.5 C 324.7 2.5 324.7 3.36 324.7 3.4 C 325 2.9 325.5 2.4 326.3 2.4 C 327.4 2.4 328.1 3.2 328.1 4.3 C 328.07 4.31 328.1 7.2 328.1 7.2 L 327.4 7.2 C 327.4 7.2 327.38 4.48 327.4 4.5 C 327.4 3.6 326.9 3.1 326.1 3.1 C 325.3 3.1 324.7 3.7 324.7 4.5 C 324.7 4.54 324.7 7.2 324.7 7.2 L 324 7.2 L 324 2.5 Z M 329.4 8 C 329.4 8 329.7 7.5 329.7 7.5 C 330.3 7.9 330.8 8.1 331.5 8.1 C 332.5 8.1 333.2 7.5 333.2 6.4 C 333.2 6.4 333.2 5.9 333.2 5.9 C 332.8 6.4 332.2 6.8 331.4 6.8 C 330.3 6.8 329.2 6 329.2 4.7 C 329.2 4.7 329.2 4.6 329.2 4.6 C 329.2 3.3 330.3 2.4 331.4 2.4 C 332.3 2.4 332.8 2.9 333.2 3.4 C 333.2 3.38 333.2 2.5 333.2 2.5 L 333.9 2.5 C 333.9 2.5 333.89 6.39 333.9 6.4 C 333.9 7.1 333.7 7.7 333.3 8 C 332.9 8.5 332.3 8.7 331.5 8.7 C 330.7 8.7 330 8.4 329.4 8 Z M 333.2 4.7 C 333.2 4.7 333.2 4.6 333.2 4.6 C 333.2 3.7 332.4 3.1 331.5 3.1 C 330.6 3.1 329.9 3.7 329.9 4.6 C 329.9 4.6 329.9 4.6 329.9 4.6 C 329.9 5.6 330.6 6.2 331.5 6.2 C 332.4 6.2 333.2 5.6 333.2 4.7 Z M 339 0.6 L 339.7 0.6 L 339.7 5.2 L 342.2 2.5 L 343 2.5 L 341.1 4.5 L 343.1 7.2 L 342.3 7.2 L 340.6 5 L 339.7 6 L 339.7 7.2 L 339 7.2 L 339 0.6 Z M 343.6 5.8 C 343.6 5.8 343.6 5.8 343.6 5.8 C 343.6 4.9 344.4 4.3 345.5 4.3 C 346.1 4.3 346.6 4.4 347 4.5 C 347 4.5 347 4.4 347 4.4 C 347 3.5 346.5 3.1 345.6 3.1 C 345 3.1 344.6 3.2 344.2 3.4 C 344.2 3.4 344 2.9 344 2.9 C 344.5 2.6 345 2.5 345.7 2.5 C 346.3 2.5 346.8 2.7 347.2 3 C 347.5 3.3 347.6 3.8 347.6 4.4 C 347.64 4.36 347.6 7.2 347.6 7.2 L 347 7.2 C 347 7.2 346.98 6.5 347 6.5 C 346.7 6.9 346.1 7.3 345.3 7.3 C 344.4 7.3 343.6 6.8 343.6 5.8 Z M 347 5.5 C 347 5.5 347 5 347 5 C 346.6 4.9 346.2 4.8 345.6 4.8 C 344.7 4.8 344.3 5.2 344.3 5.8 C 344.3 5.8 344.3 5.8 344.3 5.8 C 344.3 6.4 344.8 6.8 345.4 6.8 C 346.3 6.8 347 6.2 347 5.5 Z M 349 2.5 L 349.7 2.5 C 349.7 2.5 349.72 3.36 349.7 3.4 C 350 2.9 350.5 2.4 351.3 2.4 C 352.4 2.4 353.1 3.2 353.1 4.3 C 353.1 4.31 353.1 7.2 353.1 7.2 L 352.4 7.2 C 352.4 7.2 352.41 4.48 352.4 4.5 C 352.4 3.6 351.9 3.1 351.1 3.1 C 350.3 3.1 349.7 3.7 349.7 4.5 C 349.72 4.54 349.7 7.2 349.7 7.2 L 349 7.2 L 349 2.5 Z M 354.5 0.8 L 355.3 0.8 L 355.3 1.5 L 354.5 1.5 L 354.5 0.8 Z M 354.5 2.5 L 355.2 2.5 L 355.2 7.2 L 354.5 7.2 L 354.5 2.5 Z M 356.8 0.6 L 357.5 0.6 L 357.5 7.2 L 356.8 7.2 L 356.8 0.6 Z M 358.7 5.8 C 358.7 5.8 358.7 5.8 358.7 5.8 C 358.7 4.9 359.5 4.3 360.7 4.3 C 361.3 4.3 361.7 4.4 362.1 4.5 C 362.1 4.5 362.1 4.4 362.1 4.4 C 362.1 3.5 361.6 3.1 360.7 3.1 C 360.2 3.1 359.7 3.2 359.3 3.4 C 359.3 3.4 359.1 2.9 359.1 2.9 C 359.6 2.6 360.1 2.5 360.8 2.5 C 361.5 2.5 362 2.7 362.3 3 C 362.6 3.3 362.8 3.8 362.8 4.4 C 362.77 4.36 362.8 7.2 362.8 7.2 L 362.1 7.2 C 362.1 7.2 362.11 6.5 362.1 6.5 C 361.8 6.9 361.2 7.3 360.4 7.3 C 359.6 7.3 358.7 6.8 358.7 5.8 Z M 362.1 5.5 C 362.1 5.5 362.1 5 362.1 5 C 361.8 4.9 361.3 4.8 360.7 4.8 C 359.9 4.8 359.4 5.2 359.4 5.8 C 359.4 5.8 359.4 5.8 359.4 5.8 C 359.4 6.4 359.9 6.8 360.6 6.8 C 361.4 6.8 362.1 6.2 362.1 5.5 Z M 364.2 2.5 L 364.9 2.5 C 364.9 2.5 364.85 3.36 364.9 3.4 C 365.2 2.9 365.6 2.4 366.4 2.4 C 367.6 2.4 368.2 3.2 368.2 4.3 C 368.23 4.31 368.2 7.2 368.2 7.2 L 367.5 7.2 C 367.5 7.2 367.54 4.48 367.5 4.5 C 367.5 3.6 367.1 3.1 366.2 3.1 C 365.4 3.1 364.9 3.7 364.9 4.5 C 364.85 4.54 364.9 7.2 364.9 7.2 L 364.2 7.2 L 364.2 2.5 Z M 369.6 8 C 369.6 8 369.9 7.5 369.9 7.5 C 370.4 7.9 371 8.1 371.7 8.1 C 372.7 8.1 373.4 7.5 373.4 6.4 C 373.4 6.4 373.4 5.9 373.4 5.9 C 373 6.4 372.4 6.8 371.5 6.8 C 370.4 6.8 369.3 6 369.3 4.7 C 369.3 4.7 369.3 4.6 369.3 4.6 C 369.3 3.3 370.4 2.4 371.5 2.4 C 372.4 2.4 373 2.9 373.3 3.4 C 373.35 3.38 373.3 2.5 373.3 2.5 L 374 2.5 C 374 2.5 374.04 6.39 374 6.4 C 374 7.1 373.8 7.7 373.4 8 C 373 8.5 372.4 8.7 371.7 8.7 C 370.9 8.7 370.2 8.4 369.6 8 Z M 373.4 4.7 C 373.4 4.7 373.4 4.6 373.4 4.6 C 373.4 3.7 372.5 3.1 371.7 3.1 C 370.8 3.1 370.1 3.7 370.1 4.6 C 370.1 4.6 370.1 4.6 370.1 4.6 C 370.1 5.6 370.8 6.2 371.7 6.2 C 372.5 6.2 373.4 5.6 373.4 4.7 Z M 379.1 2.5 L 379.8 2.5 C 379.8 2.5 379.82 3.33 379.8 3.3 C 380.1 2.9 380.5 2.4 381.3 2.4 C 382.1 2.4 382.6 2.9 382.8 3.4 C 383.1 2.9 383.6 2.4 384.5 2.4 C 385.5 2.4 386.2 3.2 386.2 4.3 C 386.18 4.32 386.2 7.2 386.2 7.2 L 385.5 7.2 C 385.5 7.2 385.49 4.48 385.5 4.5 C 385.5 3.6 385 3.1 384.3 3.1 C 383.6 3.1 383 3.6 383 4.5 C 383 4.52 383 7.2 383 7.2 L 382.3 7.2 C 382.3 7.2 382.31 4.46 382.3 4.5 C 382.3 3.6 381.9 3.1 381.1 3.1 C 380.4 3.1 379.8 3.7 379.8 4.5 C 379.82 4.54 379.8 7.2 379.8 7.2 L 379.1 7.2 L 379.1 2.5 Z M 387.5 8 C 387.5 8 387.9 7.5 387.9 7.5 C 388.4 7.9 389 8.1 389.6 8.1 C 390.7 8.1 391.3 7.5 391.3 6.4 C 391.3 6.4 391.3 5.9 391.3 5.9 C 390.9 6.4 390.4 6.8 389.5 6.8 C 388.4 6.8 387.3 6 387.3 4.7 C 387.3 4.7 387.3 4.6 387.3 4.6 C 387.3 3.3 388.4 2.4 389.5 2.4 C 390.4 2.4 390.9 2.9 391.3 3.4 C 391.33 3.38 391.3 2.5 391.3 2.5 L 392 2.5 C 392 2.5 392.02 6.39 392 6.4 C 392 7.1 391.8 7.7 391.4 8 C 391 8.5 390.4 8.7 389.7 8.7 C 388.9 8.7 388.2 8.4 387.5 8 Z M 391.4 4.7 C 391.4 4.7 391.4 4.6 391.4 4.6 C 391.4 3.7 390.5 3.1 389.6 3.1 C 388.8 3.1 388 3.7 388 4.6 C 388 4.6 388 4.6 388 4.6 C 388 5.6 388.8 6.2 389.6 6.2 C 390.5 6.2 391.4 5.6 391.4 4.7 Z M 393.1 5.8 C 393.1 5.8 393.1 5.8 393.1 5.8 C 393.1 4.9 393.9 4.3 395.1 4.3 C 395.7 4.3 396.1 4.4 396.5 4.5 C 396.5 4.5 396.5 4.4 396.5 4.4 C 396.5 3.5 396 3.1 395.2 3.1 C 394.6 3.1 394.2 3.2 393.7 3.4 C 393.7 3.4 393.5 2.9 393.5 2.9 C 394.1 2.6 394.6 2.5 395.2 2.5 C 395.9 2.5 396.4 2.7 396.7 3 C 397.1 3.3 397.2 3.8 397.2 4.4 C 397.21 4.36 397.2 7.2 397.2 7.2 L 396.5 7.2 C 396.5 7.2 396.55 6.5 396.5 6.5 C 396.2 6.9 395.7 7.3 394.9 7.3 C 394 7.3 393.1 6.8 393.1 5.8 Z M 396.6 5.5 C 396.6 5.5 396.6 5 396.6 5 C 396.2 4.9 395.8 4.8 395.2 4.8 C 394.3 4.8 393.8 5.2 393.8 5.8 C 393.8 5.8 393.8 5.8 393.8 5.8 C 393.8 6.4 394.4 6.8 395 6.8 C 395.9 6.8 396.6 6.2 396.6 5.5 Z M 402.2 0.6 L 402.9 0.6 L 402.9 5.2 L 405.4 2.5 L 406.3 2.5 L 404.3 4.5 L 406.4 7.2 L 405.5 7.2 L 403.9 5 L 402.9 6 L 402.9 7.2 L 402.2 7.2 L 402.2 0.6 Z M 406.8 5.8 C 406.8 5.8 406.8 5.8 406.8 5.8 C 406.8 4.9 407.6 4.3 408.8 4.3 C 409.4 4.3 409.8 4.4 410.2 4.5 C 410.2 4.5 410.2 4.4 410.2 4.4 C 410.2 3.5 409.7 3.1 408.8 3.1 C 408.3 3.1 407.9 3.2 407.4 3.4 C 407.4 3.4 407.2 2.9 407.2 2.9 C 407.7 2.6 408.2 2.5 408.9 2.5 C 409.6 2.5 410.1 2.7 410.4 3 C 410.7 3.3 410.9 3.8 410.9 4.4 C 410.9 4.36 410.9 7.2 410.9 7.2 L 410.2 7.2 C 410.2 7.2 410.23 6.5 410.2 6.5 C 409.9 6.9 409.4 7.3 408.5 7.3 C 407.7 7.3 406.8 6.8 406.8 5.8 Z M 410.2 5.5 C 410.2 5.5 410.2 5 410.2 5 C 409.9 4.9 409.4 4.8 408.9 4.8 C 408 4.8 407.5 5.2 407.5 5.8 C 407.5 5.8 407.5 5.8 407.5 5.8 C 407.5 6.4 408.1 6.8 408.7 6.8 C 409.5 6.8 410.2 6.2 410.2 5.5 Z M 412.3 2.5 L 413 2.5 C 413 2.5 412.98 3.76 413 3.8 C 413.3 3 414 2.4 414.9 2.5 C 414.88 2.47 414.9 3.2 414.9 3.2 C 414.9 3.2 414.82 3.21 414.8 3.2 C 413.8 3.2 413 3.9 413 5.3 C 412.98 5.35 413 7.2 413 7.2 L 412.3 7.2 L 412.3 2.5 Z M 415.3 5.8 C 415.3 5.8 415.3 5.8 415.3 5.8 C 415.3 4.9 416.1 4.3 417.3 4.3 C 417.8 4.3 418.3 4.4 418.7 4.5 C 418.7 4.5 418.7 4.4 418.7 4.4 C 418.7 3.5 418.2 3.1 417.3 3.1 C 416.7 3.1 416.3 3.2 415.9 3.4 C 415.9 3.4 415.7 2.9 415.7 2.9 C 416.2 2.6 416.7 2.5 417.4 2.5 C 418 2.5 418.5 2.7 418.9 3 C 419.2 3.3 419.3 3.8 419.3 4.4 C 419.35 4.36 419.3 7.2 419.3 7.2 L 418.7 7.2 C 418.7 7.2 418.68 6.5 418.7 6.5 C 418.4 6.9 417.8 7.3 417 7.3 C 416.1 7.3 415.3 6.8 415.3 5.8 Z M 418.7 5.5 C 418.7 5.5 418.7 5 418.7 5 C 418.4 4.9 417.9 4.8 417.3 4.8 C 416.5 4.8 416 5.2 416 5.8 C 416 5.8 416 5.8 416 5.8 C 416 6.4 416.5 6.8 417.1 6.8 C 418 6.8 418.7 6.2 418.7 5.5 Z M 420.7 2.5 L 421.4 2.5 C 421.4 2.5 421.43 3.36 421.4 3.4 C 421.7 2.9 422.2 2.4 423 2.4 C 424.1 2.4 424.8 3.2 424.8 4.3 C 424.8 4.31 424.8 7.2 424.8 7.2 L 424.1 7.2 C 424.1 7.2 424.11 4.48 424.1 4.5 C 424.1 3.6 423.6 3.1 422.8 3.1 C 422 3.1 421.4 3.7 421.4 4.5 C 421.43 4.54 421.4 7.2 421.4 7.2 L 420.7 7.2 L 420.7 2.5 Z M 425.8 5.8 C 425.8 5.8 425.8 5.8 425.8 5.8 C 425.8 4.9 426.6 4.3 427.8 4.3 C 428.4 4.3 428.8 4.4 429.3 4.5 C 429.3 4.5 429.3 4.4 429.3 4.4 C 429.3 3.5 428.7 3.1 427.9 3.1 C 427.3 3.1 426.9 3.2 426.5 3.4 C 426.5 3.4 426.3 2.9 426.3 2.9 C 426.8 2.6 427.3 2.5 427.9 2.5 C 428.6 2.5 429.1 2.7 429.4 3 C 429.8 3.3 429.9 3.8 429.9 4.4 C 429.92 4.36 429.9 7.2 429.9 7.2 L 429.3 7.2 C 429.3 7.2 429.26 6.5 429.3 6.5 C 428.9 6.9 428.4 7.3 427.6 7.3 C 426.7 7.3 425.8 6.8 425.8 5.8 Z M 429.3 5.5 C 429.3 5.5 429.3 5 429.3 5 C 428.9 4.9 428.5 4.8 427.9 4.8 C 427 4.8 426.5 5.2 426.5 5.8 C 426.5 5.8 426.5 5.8 426.5 5.8 C 426.5 6.4 427.1 6.8 427.7 6.8 C 428.6 6.8 429.3 6.2 429.3 5.5 Z M 430.9 6.6 C 430.9 6.6 431.3 6.1 431.3 6.1 C 431.8 6.5 432.3 6.7 432.9 6.7 C 433.4 6.7 433.8 6.4 433.8 6 C 433.8 6 433.8 5.9 433.8 5.9 C 433.8 5.5 433.3 5.3 432.7 5.1 C 432 4.9 431.1 4.7 431.1 3.8 C 431.1 3.8 431.1 3.8 431.1 3.8 C 431.1 3 431.8 2.5 432.7 2.5 C 433.3 2.5 433.9 2.7 434.4 3 C 434.4 3 434.1 3.5 434.1 3.5 C 433.7 3.2 433.2 3.1 432.7 3.1 C 432.2 3.1 431.8 3.3 431.8 3.7 C 431.8 3.7 431.8 3.7 431.8 3.7 C 431.8 4.2 432.4 4.4 433 4.5 C 433.7 4.8 434.5 5 434.5 5.9 C 434.5 5.9 434.5 5.9 434.5 5.9 C 434.5 6.8 433.8 7.3 432.8 7.3 C 432.2 7.3 431.4 7 430.9 6.6 Z M 435.4 5.8 C 435.4 5.8 435.4 5.8 435.4 5.8 C 435.4 4.9 436.2 4.3 437.3 4.3 C 437.9 4.3 438.4 4.4 438.8 4.5 C 438.8 4.5 438.8 4.4 438.8 4.4 C 438.8 3.5 438.3 3.1 437.4 3.1 C 436.8 3.1 436.4 3.2 436 3.4 C 436 3.4 435.8 2.9 435.8 2.9 C 436.3 2.6 436.8 2.5 437.5 2.5 C 438.1 2.5 438.6 2.7 439 3 C 439.3 3.3 439.4 3.8 439.4 4.4 C 439.44 4.36 439.4 7.2 439.4 7.2 L 438.8 7.2 C 438.8 7.2 438.77 6.5 438.8 6.5 C 438.4 6.9 437.9 7.3 437.1 7.3 C 436.2 7.3 435.4 6.8 435.4 5.8 Z M 438.8 5.5 C 438.8 5.5 438.8 5 438.8 5 C 438.4 4.9 438 4.8 437.4 4.8 C 436.5 4.8 436.1 5.2 436.1 5.8 C 436.1 5.8 436.1 5.8 436.1 5.8 C 436.1 6.4 436.6 6.8 437.2 6.8 C 438.1 6.8 438.8 6.2 438.8 5.5 Z M 440.8 2.5 L 441.5 2.5 C 441.5 2.5 441.52 3.36 441.5 3.4 C 441.8 2.9 442.3 2.4 443.1 2.4 C 444.2 2.4 444.9 3.2 444.9 4.3 C 444.89 4.31 444.9 7.2 444.9 7.2 L 444.2 7.2 C 444.2 7.2 444.2 4.48 444.2 4.5 C 444.2 3.6 443.7 3.1 442.9 3.1 C 442.1 3.1 441.5 3.7 441.5 4.5 C 441.52 4.54 441.5 7.2 441.5 7.2 L 440.8 7.2 L 440.8 2.5 Z M 449.5 6.6 C 449.5 6.6 449.9 6.1 449.9 6.1 C 450.4 6.5 450.9 6.7 451.5 6.7 C 452 6.7 452.4 6.4 452.4 6 C 452.4 6 452.4 5.9 452.4 5.9 C 452.4 5.5 451.9 5.3 451.3 5.1 C 450.5 4.9 449.7 4.7 449.7 3.8 C 449.7 3.8 449.7 3.8 449.7 3.8 C 449.7 3 450.4 2.5 451.3 2.5 C 451.9 2.5 452.5 2.7 453 3 C 453 3 452.7 3.5 452.7 3.5 C 452.2 3.2 451.8 3.1 451.3 3.1 C 450.8 3.1 450.4 3.3 450.4 3.7 C 450.4 3.7 450.4 3.7 450.4 3.7 C 450.4 4.2 451 4.4 451.6 4.5 C 452.3 4.8 453.1 5 453.1 5.9 C 453.1 5.9 453.1 5.9 453.1 5.9 C 453.1 6.8 452.4 7.3 451.4 7.3 C 450.8 7.3 450 7 449.5 6.6 Z M 453.9 5.8 C 453.9 5.8 453.9 5.8 453.9 5.8 C 453.9 4.9 454.8 4.3 455.9 4.3 C 456.5 4.3 456.9 4.4 457.4 4.5 C 457.4 4.5 457.4 4.4 457.4 4.4 C 457.4 3.5 456.8 3.1 456 3.1 C 455.4 3.1 455 3.2 454.6 3.4 C 454.6 3.4 454.4 2.9 454.4 2.9 C 454.9 2.6 455.4 2.5 456 2.5 C 456.7 2.5 457.2 2.7 457.6 3 C 457.9 3.3 458 3.8 458 4.4 C 458.03 4.36 458 7.2 458 7.2 L 457.4 7.2 C 457.4 7.2 457.36 6.5 457.4 6.5 C 457 6.9 456.5 7.3 455.7 7.3 C 454.8 7.3 453.9 6.8 453.9 5.8 Z M 457.4 5.5 C 457.4 5.5 457.4 5 457.4 5 C 457 4.9 456.6 4.8 456 4.8 C 455.1 4.8 454.6 5.2 454.6 5.8 C 454.6 5.8 454.6 5.8 454.6 5.8 C 454.6 6.4 455.2 6.8 455.8 6.8 C 456.7 6.8 457.4 6.2 457.4 5.5 Z " stroke="none" fill="#fff"/>
  </g>
</svg>