<?xml version="1.0" standalone="no"?>
<!DOCTYPE svg PUBLIC "-//W3C//DTD SVG 1.1//EN" "http://www.w3.org/Graphics/SVG/1.1/DTD/svg11.dtd">
<svg xmlns="http://www.w3.org/2000/svg" version="1.1" width="149px" height="24.5px" viewBox="0 -1 149 24.5" style="top:-1px">
  <desc>Blessie Gamuzaran at Christian Paculanan</desc>
  <defs/>
  <g id="Polygon14947">
    <path d="M 2.7 11.2 C 4 11.2 4.7 11.9 4.8 13.3 C 4.8 13.3 3.5 13.3 3.5 13.3 C 3.5 12.6 3.2 12.2 2.6 12.2 C 2 12.2 1.7 12.8 1.7 13.9 C 1.7 14.6 1.8 15.1 1.9 15.3 C 2.1 15.5 2.4 15.7 2.7 15.7 C 3.2 15.7 3.5 15.3 3.6 14.7 C 3.6 14.7 4.8 14.7 4.8 14.7 C 4.8 15.4 4.5 15.9 4.1 16.2 C 3.7 16.5 3.2 16.7 2.7 16.7 C 2 16.7 1.4 16.4 0.9 16 C 0.5 15.5 0.3 14.8 0.3 13.9 C 0.3 13.1 0.5 12.5 0.9 12 C 1.3 11.4 1.9 11.2 2.7 11.2 C 2.7 11.2 2.7 11.2 2.7 11.2 Z M 10 11.3 L 10 16.6 L 8.8 16.6 L 8.8 14.4 L 7.1 14.4 L 7.1 16.6 L 5.9 16.6 L 5.9 11.3 L 7.1 11.3 L 7.1 13.3 L 8.8 13.3 L 8.8 11.3 L 10 11.3 Z M 12.6 14.5 L 12.6 16.6 L 11.4 16.6 L 11.4 11.3 C 11.4 11.3 13.73 11.27 13.7 11.3 C 14.2 11.3 14.5 11.3 14.8 11.4 C 15 11.5 15.2 11.7 15.4 12 C 15.6 12.2 15.7 12.5 15.7 12.9 C 15.7 13.5 15.4 14 14.7 14.2 C 14.75 14.24 15.7 16.6 15.7 16.6 L 14.4 16.6 L 13.5 14.5 L 12.6 14.5 Z M 12.6 12.2 L 12.6 13.6 C 12.6 13.6 13.41 13.58 13.4 13.6 C 13.7 13.6 13.8 13.6 14 13.5 C 14.1 13.5 14.2 13.4 14.3 13.3 C 14.3 13.2 14.4 13 14.4 12.9 C 14.4 12.7 14.3 12.6 14.3 12.5 C 14.2 12.4 14.1 12.3 14 12.3 C 13.9 12.2 13.7 12.2 13.4 12.2 C 13.38 12.22 12.6 12.2 12.6 12.2 Z M 18.2 11.3 L 18.2 16.6 L 17 16.6 L 17 11.3 L 18.2 11.3 Z M 21.3 11.2 C 22.3 11.2 23 11.6 23.3 12.4 C 23.3 12.4 22.2 12.8 22.2 12.8 C 22.1 12.4 21.8 12.2 21.3 12.2 C 20.8 12.2 20.6 12.3 20.6 12.6 C 20.6 12.8 20.6 12.9 20.7 13 C 20.8 13.1 21 13.1 21.3 13.2 C 21.9 13.3 22.3 13.4 22.5 13.5 C 22.8 13.6 23 13.8 23.2 14.1 C 23.3 14.3 23.4 14.6 23.4 14.9 C 23.4 15.4 23.2 15.8 22.9 16.2 C 22.5 16.5 21.9 16.7 21.2 16.7 C 20.7 16.7 20.2 16.6 19.8 16.3 C 19.4 16.1 19.2 15.7 19.1 15.2 C 19.1 15.2 20.2 14.9 20.2 14.9 C 20.4 15.4 20.7 15.7 21.3 15.7 C 21.6 15.7 21.8 15.6 21.9 15.5 C 22.1 15.4 22.2 15.3 22.2 15.1 C 22.2 15 22.1 14.8 22 14.8 C 21.8 14.7 21.6 14.6 21.2 14.5 C 20.5 14.4 20.1 14.2 19.8 13.9 C 19.5 13.7 19.3 13.3 19.3 12.9 C 19.3 12.4 19.5 12 19.9 11.7 C 20.2 11.4 20.7 11.2 21.3 11.2 C 21.3 11.2 21.3 11.2 21.3 11.2 Z M 28 11.3 L 28 12.3 L 26.7 12.3 L 26.7 16.6 L 25.4 16.6 L 25.4 12.3 L 24.1 12.3 L 24.1 11.3 L 28 11.3 Z M 30.1 11.3 L 30.1 16.6 L 28.8 16.6 L 28.8 11.3 L 30.1 11.3 Z M 34.1 11.3 L 35.8 16.6 L 34.4 16.6 L 34.1 15.5 L 32.4 15.5 L 32 16.6 L 30.9 16.6 L 32.6 11.3 L 34.1 11.3 Z M 32.7 14.5 L 33.8 14.5 L 33.2 12.6 L 32.7 14.5 Z M 40.8 11.3 L 40.8 16.6 L 39.7 16.6 C 39.7 16.6 37.6 13 37.6 13 C 37.6 13.1 37.6 13.2 37.6 13.2 C 37.6 13.3 37.6 13.3 37.6 13.4 C 37.63 13.41 37.6 16.6 37.6 16.6 L 36.7 16.6 L 36.7 11.3 L 38 11.3 C 38 11.3 39.81 14.41 39.8 14.4 C 39.8 14.3 39.8 14.1 39.8 14.1 C 39.79 14.06 39.8 11.3 39.8 11.3 L 40.8 11.3 Z M 45.7 14.6 L 45.7 16.6 L 44.5 16.6 L 44.5 11.3 C 44.5 11.3 46.57 11.27 46.6 11.3 C 47 11.3 47.4 11.3 47.6 11.4 C 47.9 11.5 48.1 11.7 48.3 12 C 48.5 12.2 48.6 12.5 48.6 12.9 C 48.6 13.2 48.6 13.4 48.4 13.7 C 48.3 13.9 48.2 14.1 48 14.3 C 47.8 14.4 47.6 14.5 47.5 14.6 C 47.3 14.6 47 14.6 46.6 14.6 C 46.61 14.62 45.7 14.6 45.7 14.6 Z M 45.7 13.7 C 45.7 13.7 46.5 13.65 46.5 13.7 C 46.8 13.7 47 13.6 47.2 13.4 C 47.3 13.3 47.3 13.1 47.3 12.9 C 47.3 12.7 47.3 12.6 47.1 12.4 C 47 12.3 46.8 12.2 46.5 12.2 C 46.5 12.24 45.7 12.2 45.7 12.2 L 45.7 13.7 Z M 51.9 11.3 L 53.6 16.6 L 52.2 16.6 L 51.9 15.5 L 50.2 15.5 L 49.9 16.6 L 48.8 16.6 L 50.5 11.3 L 51.9 11.3 Z M 50.5 14.5 L 51.6 14.5 L 51.1 12.6 L 50.5 14.5 Z M 56.4 11.2 C 57.7 11.2 58.4 11.9 58.6 13.3 C 58.6 13.3 57.3 13.3 57.3 13.3 C 57.3 12.6 57 12.2 56.4 12.2 C 55.8 12.2 55.4 12.8 55.4 13.9 C 55.4 14.6 55.5 15.1 55.7 15.3 C 55.9 15.5 56.1 15.7 56.4 15.7 C 57 15.7 57.3 15.3 57.4 14.7 C 57.4 14.7 58.6 14.7 58.6 14.7 C 58.5 15.4 58.3 15.9 57.9 16.2 C 57.5 16.5 57 16.7 56.4 16.7 C 55.7 16.7 55.2 16.4 54.7 16 C 54.3 15.5 54 14.8 54 13.9 C 54 13.1 54.3 12.5 54.7 12 C 55.1 11.4 55.7 11.2 56.4 11.2 C 56.4 11.2 56.4 11.2 56.4 11.2 Z M 63.8 11.3 C 63.8 11.3 63.84 14.59 63.8 14.6 C 63.8 15.1 63.8 15.5 63.7 15.8 C 63.5 16 63.3 16.3 63 16.4 C 62.7 16.6 62.2 16.7 61.7 16.7 C 61.2 16.7 60.8 16.6 60.5 16.5 C 60.2 16.3 60 16.1 59.8 15.8 C 59.7 15.5 59.6 15.1 59.6 14.6 C 59.59 14.59 59.6 11.3 59.6 11.3 L 60.9 11.3 C 60.9 11.3 60.94 14.59 60.9 14.6 C 60.9 14.9 61 15.1 61 15.2 C 61.1 15.4 61.2 15.5 61.3 15.5 C 61.4 15.6 61.6 15.7 61.8 15.7 C 62.1 15.7 62.3 15.6 62.4 15.5 C 62.6 15.5 62.7 15.4 62.7 15.2 C 62.7 15.1 62.8 14.9 62.8 14.6 C 62.77 14.59 62.8 11.3 62.8 11.3 L 63.8 11.3 Z M 66.4 15.5 L 68.5 15.5 L 68.5 16.6 L 65.2 16.6 L 65.2 11.3 L 66.4 11.3 L 66.4 15.5 Z M 72.1 11.3 L 73.8 16.6 L 72.4 16.6 L 72.1 15.5 L 70.4 15.5 L 70.1 16.6 L 69 16.6 L 70.7 11.3 L 72.1 11.3 Z M 70.7 14.5 L 71.8 14.5 L 71.3 12.6 L 70.7 14.5 Z M 78.8 11.3 L 78.8 16.6 L 77.7 16.6 C 77.7 16.6 75.64 13 75.6 13 C 75.6 13.1 75.6 13.2 75.6 13.2 C 75.7 13.3 75.7 13.3 75.7 13.4 C 75.66 13.41 75.7 16.6 75.7 16.6 L 74.7 16.6 L 74.7 11.3 L 76 11.3 C 76 11.3 77.85 14.41 77.8 14.4 C 77.8 14.3 77.8 14.1 77.8 14.1 C 77.82 14.06 77.8 11.3 77.8 11.3 L 78.8 11.3 Z M 82.8 11.3 L 84.5 16.6 L 83.1 16.6 L 82.8 15.5 L 81.1 15.5 L 80.7 16.6 L 79.6 16.6 L 81.4 11.3 L 82.8 11.3 Z M 81.4 14.5 L 82.5 14.5 L 81.9 12.6 L 81.4 14.5 Z M 89.5 11.3 L 89.5 16.6 L 88.4 16.6 C 88.4 16.6 86.31 13 86.3 13 C 86.3 13.1 86.3 13.2 86.3 13.2 C 86.3 13.3 86.3 13.3 86.3 13.4 C 86.33 13.41 86.3 16.6 86.3 16.6 L 85.4 16.6 L 85.4 11.3 L 86.7 11.3 C 86.7 11.3 88.52 14.41 88.5 14.4 C 88.5 14.3 88.5 14.1 88.5 14.1 C 88.5 14.06 88.5 11.3 88.5 11.3 L 89.5 11.3 Z " stroke="none" fill="#000"/>
  </g>
  <g id="Polygon14946">
    <path d="M 0.5 0.3 C 0.5 0.3 3.02 0.27 3 0.3 C 3.5 0.3 3.8 0.3 4 0.4 C 4.2 0.5 4.4 0.7 4.6 0.9 C 4.7 1.1 4.8 1.4 4.8 1.6 C 4.8 2.2 4.5 2.6 3.8 2.8 C 4.2 2.9 4.5 3.1 4.7 3.3 C 4.9 3.6 4.9 3.8 4.9 4.1 C 4.9 4.5 4.8 4.9 4.5 5.2 C 4.2 5.5 3.7 5.6 3 5.6 C 3.02 5.6 0.5 5.6 0.5 5.6 L 0.5 0.3 Z M 1.8 1.2 L 1.8 2.4 C 1.8 2.4 2.73 2.38 2.7 2.4 C 3.1 2.4 3.3 2.3 3.4 2.2 C 3.5 2 3.5 1.9 3.5 1.8 C 3.5 1.6 3.5 1.5 3.4 1.4 C 3.3 1.3 3.2 1.3 3.2 1.2 C 3.1 1.2 2.9 1.2 2.6 1.2 C 2.64 1.21 1.8 1.2 1.8 1.2 Z M 1.8 3.3 L 1.8 4.6 C 1.8 4.6 2.74 4.61 2.7 4.6 C 3.1 4.6 3.3 4.6 3.4 4.4 C 3.6 4.3 3.6 4.2 3.6 4 C 3.6 3.8 3.6 3.6 3.4 3.5 C 3.3 3.4 3.1 3.3 2.8 3.3 C 2.79 3.33 1.8 3.3 1.8 3.3 Z M 7.3 4.5 L 9.5 4.5 L 9.5 5.6 L 6.1 5.6 L 6.1 0.3 L 7.3 0.3 L 7.3 4.5 Z M 14.2 1.3 L 11.7 1.3 L 11.7 2.4 L 13.7 2.4 L 13.7 3.4 L 11.7 3.4 L 11.7 4.5 L 14.2 4.5 L 14.2 5.6 L 10.4 5.6 L 10.4 0.3 L 14.2 0.3 L 14.2 1.3 Z M 17 0.2 C 18 0.2 18.7 0.6 19 1.4 C 19 1.4 17.9 1.8 17.9 1.8 C 17.8 1.4 17.5 1.2 17 1.2 C 16.5 1.2 16.3 1.3 16.3 1.6 C 16.3 1.8 16.3 1.9 16.4 2 C 16.5 2.1 16.7 2.1 17 2.2 C 17.6 2.3 18 2.4 18.2 2.5 C 18.5 2.6 18.7 2.8 18.9 3.1 C 19 3.3 19.1 3.6 19.1 3.9 C 19.1 4.4 18.9 4.8 18.6 5.2 C 18.2 5.5 17.6 5.7 16.9 5.7 C 16.4 5.7 15.9 5.6 15.5 5.3 C 15.1 5.1 14.9 4.7 14.8 4.2 C 14.8 4.2 15.9 3.9 15.9 3.9 C 16 4.4 16.4 4.7 17 4.7 C 17.3 4.7 17.5 4.6 17.6 4.5 C 17.8 4.4 17.9 4.3 17.9 4.1 C 17.9 4 17.8 3.8 17.7 3.8 C 17.5 3.7 17.3 3.6 16.9 3.5 C 16.2 3.4 15.8 3.2 15.5 2.9 C 15.2 2.7 15 2.3 15 1.9 C 15 1.4 15.2 1 15.6 0.7 C 15.9 0.4 16.4 0.2 17 0.2 C 17 0.2 17 0.2 17 0.2 Z M 21.9 0.2 C 23 0.2 23.6 0.6 23.9 1.4 C 23.9 1.4 22.9 1.8 22.9 1.8 C 22.7 1.4 22.4 1.2 22 1.2 C 21.5 1.2 21.2 1.3 21.2 1.6 C 21.2 1.8 21.3 1.9 21.4 2 C 21.5 2.1 21.7 2.1 22 2.2 C 22.5 2.3 22.9 2.4 23.2 2.5 C 23.4 2.6 23.7 2.8 23.8 3.1 C 24 3.3 24.1 3.6 24.1 3.9 C 24.1 4.4 23.9 4.8 23.5 5.2 C 23.2 5.5 22.6 5.7 21.9 5.7 C 21.3 5.7 20.9 5.6 20.5 5.3 C 20.1 5.1 19.8 4.7 19.7 4.2 C 19.7 4.2 20.9 3.9 20.9 3.9 C 21 4.4 21.4 4.7 22 4.7 C 22.3 4.7 22.5 4.6 22.6 4.5 C 22.7 4.4 22.8 4.3 22.8 4.1 C 22.8 4 22.8 3.8 22.6 3.8 C 22.5 3.7 22.3 3.6 21.9 3.5 C 21.2 3.4 20.7 3.2 20.4 2.9 C 20.1 2.7 20 2.3 20 1.9 C 20 1.4 20.2 1 20.5 0.7 C 20.9 0.4 21.3 0.2 21.9 0.2 C 21.9 0.2 21.9 0.2 21.9 0.2 Z M 26.5 0.3 L 26.5 5.6 L 25.2 5.6 L 25.2 0.3 L 26.5 0.3 Z M 31.7 1.3 L 29.1 1.3 L 29.1 2.4 L 31.1 2.4 L 31.1 3.4 L 29.1 3.4 L 29.1 4.5 L 31.7 4.5 L 31.7 5.6 L 27.9 5.6 L 27.9 0.3 L 31.7 0.3 L 31.7 1.3 Z M 39.2 2.7 L 39.2 5.6 C 39.2 5.6 38.64 5.6 38.6 5.6 C 38.6 5.4 38.5 5.2 38.5 5 C 38.1 5.5 37.6 5.7 37 5.7 C 36.3 5.7 35.8 5.4 35.4 4.9 C 35 4.4 34.8 3.8 34.8 3 C 34.8 2.2 35 1.5 35.4 1 C 35.8 0.4 36.4 0.2 37.1 0.2 C 37.7 0.2 38.2 0.4 38.5 0.7 C 38.9 1 39.1 1.5 39.2 2 C 39.2 2 38 2.2 38 2.2 C 37.9 1.5 37.6 1.2 37.1 1.2 C 36.8 1.2 36.5 1.4 36.3 1.7 C 36.2 2 36.1 2.4 36.1 3 C 36.1 3.5 36.2 3.9 36.4 4.2 C 36.5 4.5 36.8 4.7 37.2 4.7 C 37.4 4.7 37.6 4.6 37.8 4.4 C 37.9 4.3 38 4.1 38 3.7 C 38.02 3.75 37 3.7 37 3.7 L 37 2.7 L 39.2 2.7 Z M 43.2 0.3 L 44.8 5.6 L 43.5 5.6 L 43.2 4.5 L 41.5 4.5 L 41.1 5.6 L 40 5.6 L 41.7 0.3 L 43.2 0.3 Z M 41.8 3.5 L 42.9 3.5 L 42.3 1.6 L 41.8 3.5 Z M 48.1 5.6 L 46.8 1.3 L 46.8 5.6 L 45.7 5.6 L 45.7 0.3 L 47.7 0.3 L 48.6 3.5 L 49.6 0.3 L 51.6 0.3 L 51.6 5.6 L 50.3 5.6 L 50.3 1.3 L 49 5.6 L 48.1 5.6 Z M 57.1 0.3 C 57.1 0.3 57.15 3.59 57.1 3.6 C 57.1 4.1 57.1 4.5 57 4.8 C 56.8 5 56.6 5.3 56.3 5.4 C 56 5.6 55.5 5.7 55 5.7 C 54.5 5.7 54.1 5.6 53.8 5.5 C 53.5 5.3 53.3 5.1 53.1 4.8 C 53 4.5 52.9 4.1 52.9 3.6 C 52.89 3.59 52.9 0.3 52.9 0.3 L 54.2 0.3 C 54.2 0.3 54.24 3.59 54.2 3.6 C 54.2 3.9 54.3 4.1 54.3 4.2 C 54.4 4.4 54.5 4.5 54.6 4.5 C 54.7 4.6 54.9 4.7 55.1 4.7 C 55.4 4.7 55.6 4.6 55.7 4.5 C 55.9 4.5 56 4.4 56 4.2 C 56.1 4.1 56.1 3.9 56.1 3.6 C 56.07 3.59 56.1 0.3 56.1 0.3 L 57.1 0.3 Z M 62.3 1.2 L 59.6 4.6 L 62.4 4.6 L 62.4 5.6 L 58.1 5.6 L 58.1 4.7 L 60.8 1.3 L 58.3 1.3 L 58.3 0.3 L 62.3 0.3 L 62.3 1.2 Z M 66 0.3 L 67.7 5.6 L 66.3 5.6 L 66 4.5 L 64.3 4.5 L 64 5.6 L 62.9 5.6 L 64.6 0.3 L 66 0.3 Z M 64.6 3.5 L 65.7 3.5 L 65.2 1.6 L 64.6 3.5 Z M 69.8 3.5 L 69.8 5.6 L 68.6 5.6 L 68.6 0.3 C 68.6 0.3 70.93 0.27 70.9 0.3 C 71.4 0.3 71.7 0.3 72 0.4 C 72.2 0.5 72.4 0.7 72.6 1 C 72.8 1.2 72.9 1.5 72.9 1.9 C 72.9 2.5 72.6 3 72 3.2 C 71.95 3.24 72.9 5.6 72.9 5.6 L 71.6 5.6 L 70.7 3.5 L 69.8 3.5 Z M 69.8 1.2 L 69.8 2.6 C 69.8 2.6 70.61 2.58 70.6 2.6 C 70.9 2.6 71 2.6 71.2 2.5 C 71.3 2.5 71.4 2.4 71.5 2.3 C 71.5 2.2 71.6 2 71.6 1.9 C 71.6 1.7 71.5 1.6 71.5 1.5 C 71.4 1.4 71.3 1.3 71.2 1.3 C 71.1 1.2 70.9 1.2 70.6 1.2 C 70.58 1.22 69.8 1.2 69.8 1.2 Z M 76.8 0.3 L 78.5 5.6 L 77.1 5.6 L 76.8 4.5 L 75.1 4.5 L 74.7 5.6 L 73.6 5.6 L 75.3 0.3 L 76.8 0.3 Z M 75.4 3.5 L 76.5 3.5 L 75.9 1.6 L 75.4 3.5 Z M 83.4 0.3 L 83.4 5.6 L 82.4 5.6 C 82.4 5.6 80.3 2 80.3 2 C 80.3 2.1 80.3 2.2 80.3 2.2 C 80.3 2.3 80.3 2.3 80.3 2.4 C 80.32 2.41 80.3 5.6 80.3 5.6 L 79.3 5.6 L 79.3 0.3 L 80.7 0.3 C 80.7 0.3 82.51 3.41 82.5 3.4 C 82.5 3.3 82.5 3.1 82.5 3.1 C 82.48 3.06 82.5 0.3 82.5 0.3 L 83.4 0.3 Z M 89.8 0.3 L 91.4 5.6 L 90.1 5.6 L 89.8 4.5 L 88.1 4.5 L 87.7 5.6 L 86.6 5.6 L 88.3 0.3 L 89.8 0.3 Z M 88.4 3.5 L 89.5 3.5 L 88.9 1.6 L 88.4 3.5 Z M 95.3 0.3 L 95.3 1.3 L 94 1.3 L 94 5.6 L 92.7 5.6 L 92.7 1.3 L 91.4 1.3 L 91.4 0.3 L 95.3 0.3 Z " stroke="none" fill="#000"/>
  </g>
</svg>