<?xml version="1.0" standalone="no"?>
<!DOCTYPE svg PUBLIC "-//W3C//DTD SVG 1.1//EN" "http://www.w3.org/Graphics/SVG/1.1/DTD/svg11.dtd">
<svg xmlns="http://www.w3.org/2000/svg" version="1.1" width="788px" height="95px" viewBox="0 -13 788 95" style="top:-13px">
  <desc>Vaccination program ng DLSU, salik na isinasaalang-alang sa pagbabalik-Pamantasan</desc>
  <defs/>
  <g id="Polygon16342">
    <path d="M 4.5 51 C 7.1 50.2 10.2 49.4 11 48.6 C 11 48.6 11 47.3 11 47.3 C 11 44.7 9.5 44.1 8.3 44.1 C 7 44.1 5.7 44.8 5 47.2 C 4.8 47.7 4.6 48.1 3.9 48.1 C 3.3 48.1 2.1 47.6 2.1 46.6 C 2.1 44.8 5 42.9 8.6 42.9 C 13.4 42.9 13.9 45.3 13.9 47.2 C 13.9 47.2 13.9 54.9 13.9 54.9 C 13.9 57 14.4 57.6 15 57.7 C 15.5 57.8 16.2 57.8 16.6 57.7 C 16.6 57.7 16.8 58.4 16.8 58.4 C 15.6 59 14.2 59.4 13 59.4 C 11.9 59.4 11.4 58.6 10.9 57.5 C 9.9 58.1 8 59.4 6.2 59.4 C 3.2 59.4 1.6 57.2 1.6 54.8 C 1.6 53.3 2.2 51.7 4.5 51 Z M 7.7 57.7 C 9 57.7 11 57 11 54.4 C 11 54.4 11 49.9 11 49.9 C 10.3 50.4 8.6 51 7.3 51.4 C 5.5 52.1 4.8 52.9 4.8 54.4 C 4.8 56.3 5.8 57.7 7.7 57.7 Z M 17.7 58.1 C 20 57.9 20.1 57.8 20.1 56.2 C 20.1 56.2 20.1 38.5 20.1 38.5 C 20.1 37.2 19.9 37.1 19.1 37 C 19.07 36.98 17.9 36.9 17.9 36.9 L 17.9 36.1 L 22.9 35.3 L 23.1 35.4 C 23.1 35.4 23.1 56.22 23.1 56.2 C 23.1 57.8 23.2 57.9 25.5 58.1 C 25.5 58.07 25.5 59 25.5 59 L 17.7 59 C 17.7 59 17.7 58.07 17.7 58.1 Z M 30.8 51 C 33.4 50.2 36.5 49.4 37.3 48.6 C 37.3 48.6 37.3 47.3 37.3 47.3 C 37.3 44.7 35.8 44.1 34.6 44.1 C 33.3 44.1 32 44.8 31.3 47.2 C 31.1 47.7 30.9 48.1 30.2 48.1 C 29.6 48.1 28.4 47.6 28.4 46.6 C 28.4 44.8 31.3 42.9 34.9 42.9 C 39.7 42.9 40.2 45.3 40.2 47.2 C 40.2 47.2 40.2 54.9 40.2 54.9 C 40.2 57 40.7 57.6 41.3 57.7 C 41.8 57.8 42.5 57.8 42.9 57.7 C 42.9 57.7 43.1 58.4 43.1 58.4 C 41.9 59 40.5 59.4 39.3 59.4 C 38.2 59.4 37.7 58.6 37.2 57.5 C 36.2 58.1 34.3 59.4 32.5 59.4 C 29.5 59.4 27.9 57.2 27.9 54.8 C 27.9 53.3 28.5 51.7 30.8 51 Z M 34 57.7 C 35.3 57.7 37.3 57 37.3 54.4 C 37.3 54.4 37.3 49.9 37.3 49.9 C 36.6 50.4 34.9 51 33.6 51.4 C 31.8 52.1 31.1 52.9 31.1 54.4 C 31.1 56.3 32.1 57.7 34 57.7 Z M 44.4 58.1 C 46.7 57.9 46.8 57.8 46.8 56.2 C 46.8 56.2 46.8 46.1 46.8 46.1 C 46.8 45 46.6 44.8 45.8 44.7 C 45.76 44.7 44.5 44.5 44.5 44.5 L 44.5 43.7 L 49.3 42.9 C 49.3 42.9 49.76 45.37 49.8 45.4 C 51.7 44.1 53.2 42.9 55.6 42.9 C 58.5 42.9 60.3 44.8 60.3 48 C 60.3 48 60.3 56.2 60.3 56.2 C 60.3 57.8 60.4 57.9 62.7 58.1 C 62.69 58.07 62.7 59 62.7 59 L 54.9 59 C 54.9 59 54.88 58.07 54.9 58.1 C 57.2 57.9 57.3 57.8 57.3 56.2 C 57.3 56.2 57.3 48.7 57.3 48.7 C 57.3 45.9 56.1 44.7 53.9 44.7 C 52.2 44.7 50.8 45.7 50.1 47 C 49.9 47.5 49.8 47.9 49.8 48.7 C 49.8 48.7 49.8 56.2 49.8 56.2 C 49.8 57.8 49.9 57.9 52.2 58.1 C 52.19 58.07 52.2 59 52.2 59 L 44.4 59 C 44.4 59 44.38 58.07 44.4 58.1 Z M 68.5 58.6 C 68.5 58.6 68.5 58.5 68.5 58.5 C 67 58.3 65.7 57.1 65.7 56 C 65.7 54.7 66.9 53.8 68.6 53.1 C 68.6 53.1 68.6 53.1 68.6 53.1 C 67.2 52.7 65.2 51.3 65.2 48.3 C 65.2 45.9 66.9 42.9 71.8 42.9 C 73.3 42.9 75 43.3 75.9 43.9 C 75.94 43.93 80 42.6 80 42.6 L 80.3 42.9 L 79.6 44.9 C 79.6 44.9 77.12 45.3 77.1 45.3 C 77.7 45.8 78.1 47 78.1 48.3 C 78.1 52.2 74.7 53.5 71.6 53.5 C 71.3 53.5 70.6 53.5 70 53.4 C 69.6 53.6 68.4 54.1 68.4 55 C 68.4 55.6 68.7 56.4 71 56.4 C 71 56.4 73.6 56.4 73.6 56.4 C 77 56.4 79.7 57.6 79.7 61 C 79.7 63 78.7 64.5 77.2 65.4 C 75.7 66.4 73.7 66.7 71.7 66.7 C 68 66.7 64.8 65.3 64.8 62.1 C 64.8 59.8 67.1 59 68.5 58.6 Z M 72.5 65.6 C 74.8 65.6 77.1 64.4 77.1 61.8 C 77.1 59.4 75 58.8 72.2 58.8 C 70.6 58.8 69.6 59 68.9 59.5 C 68.2 60 67.9 60.8 67.9 61.9 C 67.9 64.2 69.8 65.6 72.5 65.6 Z M 71.7 52.4 C 73.6 52.4 75 51 75 48.3 C 75 45.2 73.4 44.1 71.8 44.1 C 70.1 44.1 68.4 45.1 68.4 48.3 C 68.4 51 70 52.4 71.7 52.4 Z M 90.4 53.7 C 91 56.4 92.5 58.3 95.1 58.3 C 96.8 58.3 98 57.2 98 55.6 C 98 53.4 96 52.7 94.6 52.2 C 91.9 51.4 89.8 50.3 89.8 47.6 C 89.8 44.6 92.1 42.9 95.6 42.9 C 97 42.9 98.7 43.3 99.7 44 C 99.71 44.02 99.7 47.8 99.7 47.8 C 99.7 47.8 98.78 47.77 98.8 47.8 C 98.6 45.8 97.5 44.1 95.2 44.1 C 93.6 44.1 92.3 45 92.3 46.6 C 92.3 48.4 94.4 49.1 95.7 49.5 C 99 50.6 100.8 51.8 100.8 54.6 C 100.8 57.4 98.6 59.4 94.8 59.4 C 92.9 59.4 90.9 58.9 89.8 57.8 C 89.79 57.85 89.5 53.7 89.5 53.7 C 89.5 53.7 90.4 53.66 90.4 53.7 Z M 106.8 51 C 109.3 50.2 112.4 49.4 113.2 48.6 C 113.2 48.6 113.2 47.3 113.2 47.3 C 113.2 44.7 111.7 44.1 110.5 44.1 C 109.2 44.1 107.9 44.8 107.2 47.2 C 107 47.7 106.8 48.1 106.2 48.1 C 105.6 48.1 104.4 47.6 104.4 46.6 C 104.4 44.8 107.2 42.9 110.8 42.9 C 115.7 42.9 116.1 45.3 116.1 47.2 C 116.1 47.2 116.1 54.9 116.1 54.9 C 116.1 57 116.6 57.6 117.2 57.7 C 117.7 57.8 118.4 57.8 118.8 57.7 C 118.8 57.7 119 58.4 119 58.4 C 117.8 59 116.4 59.4 115.3 59.4 C 114.1 59.4 113.6 58.6 113.2 57.5 C 112.2 58.1 110.3 59.4 108.4 59.4 C 105.4 59.4 103.8 57.2 103.8 54.8 C 103.8 53.3 104.5 51.7 106.8 51 Z M 110 57.7 C 111.2 57.7 113.2 57 113.2 54.4 C 113.2 54.4 113.2 49.9 113.2 49.9 C 112.5 50.4 110.8 51 109.5 51.4 C 107.7 52.1 107 52.9 107 54.4 C 107 56.3 108 57.7 110 57.7 Z M 130 63.6 C 130 63.6 130 46.1 130 46.1 C 130 45 129.8 44.8 129 44.7 C 128.99 44.7 127.8 44.5 127.8 44.5 L 127.8 43.7 L 132.6 42.9 C 132.6 42.9 133.02 45.3 133 45.3 C 134.3 44.5 136.1 42.9 138.5 42.9 C 144.3 42.9 144.7 48.5 144.7 50.8 C 144.7 57.4 141 59.4 136.7 59.4 C 135.2 59.4 133.7 59 133 58.6 C 133 58.6 133 63.6 133 63.6 C 133 65.2 133.2 65.3 135.9 65.4 C 135.9 65.43 135.9 66.4 135.9 66.4 L 127.6 66.4 C 127.6 66.4 127.61 65.43 127.6 65.4 C 129.9 65.3 130 65.2 130 63.6 Z M 133.2 55.9 C 133.8 57.4 135 58.3 136.7 58.3 C 139.9 58.3 141.4 55.7 141.4 51 C 141.4 45.5 138.5 44.7 137.2 44.7 C 135.5 44.7 134.2 45.4 133.4 46.9 C 133.1 47.5 133 47.9 133 48.7 C 133 48.7 133 54 133 54 C 133 54.7 133.1 55.4 133.2 55.9 Z M 151.1 51 C 153.7 50.2 156.8 49.4 157.6 48.6 C 157.6 48.6 157.6 47.3 157.6 47.3 C 157.6 44.7 156.1 44.1 154.8 44.1 C 153.6 44.1 152.3 44.8 151.5 47.2 C 151.4 47.7 151.2 48.1 150.5 48.1 C 149.9 48.1 148.7 47.6 148.7 46.6 C 148.7 44.8 151.6 42.9 155.2 42.9 C 160 42.9 160.4 45.3 160.4 47.2 C 160.4 47.2 160.4 54.9 160.4 54.9 C 160.4 57 161 57.6 161.6 57.7 C 162 57.8 162.7 57.8 163.2 57.7 C 163.2 57.7 163.4 58.4 163.4 58.4 C 162.2 59 160.8 59.4 159.6 59.4 C 158.5 59.4 158 58.6 157.5 57.5 C 156.5 58.1 154.6 59.4 152.8 59.4 C 149.8 59.4 148.2 57.2 148.2 54.8 C 148.2 53.3 148.8 51.7 151.1 51 Z M 154.3 57.7 C 155.6 57.7 157.6 57 157.6 54.4 C 157.6 54.4 157.6 49.9 157.6 49.9 C 156.9 50.4 155.2 51 153.9 51.4 C 152.1 52.1 151.4 52.9 151.4 54.4 C 151.4 56.3 152.3 57.7 154.3 57.7 Z M 168.7 58.6 C 168.7 58.6 168.7 58.5 168.7 58.5 C 167.1 58.3 165.9 57.1 165.9 56 C 165.9 54.7 167.1 53.8 168.8 53.1 C 168.8 53.1 168.8 53.1 168.8 53.1 C 167.3 52.7 165.3 51.3 165.3 48.3 C 165.3 45.9 167.1 42.9 172 42.9 C 173.4 42.9 175.2 43.3 176.1 43.9 C 176.09 43.93 180.2 42.6 180.2 42.6 L 180.4 42.9 L 179.8 44.9 C 179.8 44.9 177.28 45.3 177.3 45.3 C 177.8 45.8 178.2 47 178.2 48.3 C 178.2 52.2 174.8 53.5 171.8 53.5 C 171.4 53.5 170.7 53.5 170.1 53.4 C 169.7 53.6 168.5 54.1 168.5 55 C 168.5 55.6 168.9 56.4 171.2 56.4 C 171.2 56.4 173.7 56.4 173.7 56.4 C 177.1 56.4 179.9 57.6 179.9 61 C 179.9 63 178.8 64.5 177.4 65.4 C 175.8 66.4 173.8 66.7 171.9 66.7 C 168.2 66.7 165 65.3 165 62.1 C 165 59.8 167.3 59 168.7 58.6 Z M 172.6 65.6 C 174.9 65.6 177.2 64.4 177.2 61.8 C 177.2 59.4 175.1 58.8 172.3 58.8 C 170.8 58.8 169.7 59 169 59.5 C 168.3 60 168 60.8 168 61.9 C 168 64.2 169.9 65.6 172.6 65.6 Z M 171.9 52.4 C 173.8 52.4 175.2 51 175.2 48.3 C 175.2 45.2 173.5 44.1 172 44.1 C 170.3 44.1 168.6 45.1 168.6 48.3 C 168.6 51 170.1 52.4 171.9 52.4 Z M 181.2 36.1 L 186.3 35.3 L 186.5 35.4 C 186.5 35.4 186.49 45.21 186.5 45.2 C 187.7 44.5 189.6 42.9 192 42.9 C 197.8 42.9 198.2 48.8 198.2 50.8 C 198.2 57.3 194.5 59.4 190.2 59.4 C 187.8 59.4 186.5 58.8 185.3 58.1 C 185.34 58.14 184.1 59.4 184.1 59.4 L 183.5 59.1 C 183.5 59.1 183.48 38.46 183.5 38.5 C 183.5 37.2 183.3 37.1 182.5 37 C 182.46 36.98 181.2 36.9 181.2 36.9 L 181.2 36.1 Z M 186.7 55.8 C 187.3 57.4 188.5 58.3 190.2 58.3 C 193.4 58.3 194.8 55.7 194.8 51 C 194.8 45.4 192 44.7 190.7 44.7 C 188.9 44.7 187.6 45.4 186.8 46.9 C 186.6 47.4 186.5 47.9 186.5 48.7 C 186.5 48.7 186.5 53.8 186.5 53.8 C 186.5 54.6 186.5 55.2 186.7 55.8 Z M 204.6 51 C 207.1 50.2 210.2 49.4 211 48.6 C 211 48.6 211 47.3 211 47.3 C 211 44.7 209.6 44.1 208.3 44.1 C 207 44.1 205.7 44.8 205 47.2 C 204.9 47.7 204.7 48.1 204 48.1 C 203.4 48.1 202.2 47.6 202.2 46.6 C 202.2 44.8 205.1 42.9 208.7 42.9 C 213.5 42.9 213.9 45.3 213.9 47.2 C 213.9 47.2 213.9 54.9 213.9 54.9 C 213.9 57 214.5 57.6 215 57.7 C 215.5 57.8 216.2 57.8 216.7 57.7 C 216.7 57.7 216.9 58.4 216.9 58.4 C 215.6 59 214.3 59.4 213.1 59.4 C 212 59.4 211.5 58.6 211 57.5 C 210 58.1 208.1 59.4 206.2 59.4 C 203.2 59.4 201.6 57.2 201.6 54.8 C 201.6 53.3 202.3 51.7 204.6 51 Z M 207.8 57.7 C 209.1 57.7 211 57 211 54.4 C 211 54.4 211 49.9 211 49.9 C 210.3 50.4 208.6 51 207.4 51.4 C 205.6 52.1 204.9 52.9 204.9 54.4 C 204.9 56.3 205.8 57.7 207.8 57.7 Z M 217.8 36.1 L 222.8 35.3 L 223 35.4 C 223 35.4 223 45.21 223 45.2 C 224.2 44.5 226.1 42.9 228.5 42.9 C 234.3 42.9 234.7 48.8 234.7 50.8 C 234.7 57.3 231 59.4 226.7 59.4 C 224.3 59.4 223 58.8 221.9 58.1 C 221.85 58.14 220.6 59.4 220.6 59.4 L 220 59.1 C 220 59.1 220 38.46 220 38.5 C 220 37.2 219.8 37.1 219 37 C 218.97 36.98 217.8 36.9 217.8 36.9 L 217.8 36.1 Z M 223.2 55.8 C 223.8 57.4 225.1 58.3 226.7 58.3 C 229.9 58.3 231.4 55.7 231.4 51 C 231.4 45.4 228.5 44.7 227.2 44.7 C 225.4 44.7 224.1 45.4 223.3 46.9 C 223.1 47.4 223 47.9 223 48.7 C 223 48.7 223 53.8 223 53.8 C 223 54.6 223 55.2 223.2 55.8 Z M 241.1 51 C 243.6 50.2 246.7 49.4 247.5 48.6 C 247.5 48.6 247.5 47.3 247.5 47.3 C 247.5 44.7 246.1 44.1 244.8 44.1 C 243.5 44.1 242.2 44.8 241.5 47.2 C 241.4 47.7 241.2 48.1 240.5 48.1 C 239.9 48.1 238.7 47.6 238.7 46.6 C 238.7 44.8 241.6 42.9 245.2 42.9 C 250 42.9 250.4 45.3 250.4 47.2 C 250.4 47.2 250.4 54.9 250.4 54.9 C 250.4 57 251 57.6 251.5 57.7 C 252 57.8 252.7 57.8 253.2 57.7 C 253.2 57.7 253.4 58.4 253.4 58.4 C 252.2 59 250.8 59.4 249.6 59.4 C 248.5 59.4 248 58.6 247.5 57.5 C 246.5 58.1 244.6 59.4 242.7 59.4 C 239.7 59.4 238.1 57.2 238.1 54.8 C 238.1 53.3 238.8 51.7 241.1 51 Z M 244.3 57.7 C 245.6 57.7 247.5 57 247.5 54.4 C 247.5 54.4 247.5 49.9 247.5 49.9 C 246.8 50.4 245.1 51 243.9 51.4 C 242.1 52.1 241.4 52.9 241.4 54.4 C 241.4 56.3 242.3 57.7 244.3 57.7 Z M 254.3 58.1 C 256.6 57.9 256.7 57.8 256.7 56.2 C 256.7 56.2 256.7 38.5 256.7 38.5 C 256.7 37.2 256.5 37.1 255.6 37 C 255.64 36.98 254.4 36.9 254.4 36.9 L 254.4 36.1 L 259.5 35.3 L 259.7 35.4 C 259.7 35.4 259.68 56.22 259.7 56.2 C 259.7 57.8 259.8 57.9 262.1 58.1 C 262.08 58.07 262.1 59 262.1 59 L 254.3 59 C 254.3 59 254.27 58.07 254.3 58.1 Z M 267.8 36.1 C 268.9 36.1 269.7 36.9 269.7 38.1 C 269.7 39.2 268.9 40 267.8 40 C 266.6 40 265.8 39.2 265.8 38.1 C 265.8 36.9 266.6 36.1 267.8 36.1 Z M 263.9 58.1 C 266.2 57.9 266.3 57.8 266.3 56.2 C 266.3 56.2 266.3 46.1 266.3 46.1 C 266.3 45 266.1 44.8 265.3 44.7 C 265.28 44.7 264.1 44.5 264.1 44.5 L 264.1 43.7 L 269.1 42.9 L 269.3 43.1 C 269.3 43.1 269.31 56.22 269.3 56.2 C 269.3 57.8 269.4 57.9 271.7 58.1 C 271.71 58.07 271.7 59 271.7 59 L 263.9 59 C 263.9 59 263.9 58.07 263.9 58.1 Z M 273.1 58.1 C 275.5 57.9 275.5 57.8 275.5 56.2 C 275.5 56.2 275.5 38.5 275.5 38.5 C 275.5 37.2 275.4 37.1 274.5 37 C 274.52 36.98 273.3 36.9 273.3 36.9 L 273.3 36.1 L 278.3 35.3 L 278.6 35.4 L 278.6 50.4 C 278.6 50.4 278.62 50.42 278.6 50.4 C 279.4 49.3 282.5 45.4 283.5 44.2 C 284.1 43.5 284.4 43.3 285.5 43.3 C 285.47 43.32 288.8 43.3 288.8 43.3 C 288.8 43.3 288.76 44.22 288.8 44.2 C 286.9 44.4 286.1 44.8 285 45.6 C 283.9 46.4 282.9 47.3 281.4 49.1 C 281.1 49.4 281.1 49.6 281.3 49.8 C 282.5 51.5 285 54.6 287 56.5 C 288 57.5 288.8 58 289.7 58.3 C 289.72 58.26 289.7 59.2 289.7 59.2 C 289.7 59.2 287.32 59.06 287.3 59.1 C 286.3 59 285.1 58.6 283.9 57.4 C 282.2 55.7 279.9 53 278.6 50.9 C 278.62 50.87 278.6 50.9 278.6 50.9 C 278.6 50.9 278.56 56.22 278.6 56.2 C 278.6 57.8 278.7 57.9 281 58.1 C 280.96 58.07 281 59 281 59 L 273.1 59 C 273.1 59 273.15 58.07 273.1 58.1 Z M 292 49.8 L 299.8 49.8 L 299.8 52.1 L 292 52.1 L 292 49.8 Z M 303.6 58.1 C 306.4 57.9 306.5 57.8 306.5 56 C 306.5 56 306.5 39.8 306.5 39.8 C 306.5 38 306.4 38 303.6 37.8 C 303.58 37.78 303.6 36.9 303.6 36.9 C 303.6 36.9 312.51 36.86 312.5 36.9 C 314.7 36.9 316.8 37.2 318.3 38.1 C 319.8 39 320.8 40.7 320.8 43.1 C 320.8 47.1 318 48.9 315.5 49.5 C 314.4 49.8 312.9 49.9 311.5 49.9 C 311.45 49.91 309.6 49.9 309.6 49.9 C 309.6 49.9 309.63 56.02 309.6 56 C 309.6 57.8 309.7 57.9 313 58.1 C 313.02 58.07 313 59 313 59 L 303.6 59 C 303.6 59 303.58 58.07 303.6 58.1 Z M 312 48.8 C 314.7 48.8 317.4 47.4 317.4 43.4 C 317.4 39.9 315.4 38 312.1 38 C 310 38 309.6 38.3 309.6 39.2 C 309.6 39.2 309.6 47.5 309.6 47.5 C 309.6 48.7 310.1 48.8 312 48.8 Z M 325.4 51 C 327.9 50.2 331 49.4 331.8 48.6 C 331.8 48.6 331.8 47.3 331.8 47.3 C 331.8 44.7 330.3 44.1 329.1 44.1 C 327.8 44.1 326.5 44.8 325.8 47.2 C 325.6 47.7 325.4 48.1 324.8 48.1 C 324.2 48.1 323 47.6 323 46.6 C 323 44.8 325.8 42.9 329.4 42.9 C 334.3 42.9 334.7 45.3 334.7 47.2 C 334.7 47.2 334.7 54.9 334.7 54.9 C 334.7 57 335.2 57.6 335.8 57.7 C 336.3 57.8 337 57.8 337.4 57.7 C 337.4 57.7 337.6 58.4 337.6 58.4 C 336.4 59 335 59.4 333.9 59.4 C 332.7 59.4 332.2 58.6 331.8 57.5 C 330.7 58.1 328.9 59.4 327 59.4 C 324 59.4 322.4 57.2 322.4 54.8 C 322.4 53.3 323.1 51.7 325.4 51 Z M 328.6 57.7 C 329.8 57.7 331.8 57 331.8 54.4 C 331.8 54.4 331.8 49.9 331.8 49.9 C 331.1 50.4 329.4 51 328.1 51.4 C 326.3 52.1 325.6 52.9 325.6 54.4 C 325.6 56.3 326.6 57.7 328.6 57.7 Z M 338.9 58.1 C 341.2 57.9 341.3 57.8 341.3 56.2 C 341.3 56.2 341.3 46.1 341.3 46.1 C 341.3 45 341.1 44.8 340.3 44.7 C 340.28 44.7 339.1 44.5 339.1 44.5 L 339.1 43.7 L 344 42.9 C 344 42.9 344.31 45.37 344.3 45.4 C 345.4 44.5 347.5 42.9 349.9 42.9 C 352.2 42.9 353.4 43.9 354.1 45.4 C 355.3 44.7 357.1 42.9 359.8 42.9 C 362.8 42.9 364.5 44.8 364.5 48 C 364.5 48 364.5 56.2 364.5 56.2 C 364.5 57.8 364.7 57.9 366.9 58.1 C 366.94 58.07 366.9 59 366.9 59 L 359.1 59 C 359.1 59 359.13 58.07 359.1 58.1 C 361.4 57.9 361.5 57.8 361.5 56.2 C 361.5 56.2 361.5 48.7 361.5 48.7 C 361.5 45.8 360.3 44.7 358.3 44.7 C 356.5 44.7 355.1 45.7 354.7 47 C 354.5 47.5 354.4 47.9 354.4 48.7 C 354.4 48.7 354.4 56.2 354.4 56.2 C 354.4 57.8 354.6 57.9 356.8 58.1 C 356.83 58.07 356.8 59 356.8 59 L 349 59 C 349 59 349.02 58.07 349 58.1 C 351.3 57.9 351.4 57.8 351.4 56.2 C 351.4 56.2 351.4 48.7 351.4 48.7 C 351.4 46.7 351.1 44.7 348.3 44.7 C 346.6 44.7 345.2 45.8 344.6 47 C 344.3 47.5 344.3 47.9 344.3 48.7 C 344.3 48.7 344.3 56.2 344.3 56.2 C 344.3 57.8 344.4 57.9 346.7 58.1 C 346.71 58.07 346.7 59 346.7 59 L 338.9 59 C 338.9 59 338.91 58.07 338.9 58.1 Z M 372.3 51 C 374.8 50.2 377.9 49.4 378.7 48.6 C 378.7 48.6 378.7 47.3 378.7 47.3 C 378.7 44.7 377.2 44.1 376 44.1 C 374.7 44.1 373.4 44.8 372.7 47.2 C 372.5 47.7 372.3 48.1 371.7 48.1 C 371.1 48.1 369.9 47.6 369.9 46.6 C 369.9 44.8 372.7 42.9 376.3 42.9 C 381.2 42.9 381.6 45.3 381.6 47.2 C 381.6 47.2 381.6 54.9 381.6 54.9 C 381.6 57 382.1 57.6 382.7 57.7 C 383.2 57.8 383.9 57.8 384.3 57.7 C 384.3 57.7 384.5 58.4 384.5 58.4 C 383.3 59 381.9 59.4 380.8 59.4 C 379.6 59.4 379.1 58.6 378.7 57.5 C 377.7 58.1 375.8 59.4 373.9 59.4 C 370.9 59.4 369.3 57.2 369.3 54.8 C 369.3 53.3 370 51.7 372.3 51 Z M 375.5 57.7 C 376.7 57.7 378.7 57 378.7 54.4 C 378.7 54.4 378.7 49.9 378.7 49.9 C 378 50.4 376.3 51 375 51.4 C 373.2 52.1 372.5 52.9 372.5 54.4 C 372.5 56.3 373.5 57.7 375.5 57.7 Z M 385.8 58.1 C 388.1 57.9 388.2 57.8 388.2 56.2 C 388.2 56.2 388.2 46.1 388.2 46.1 C 388.2 45 388 44.8 387.2 44.7 C 387.19 44.7 386 44.5 386 44.5 L 386 43.7 L 390.7 42.9 C 390.7 42.9 391.19 45.37 391.2 45.4 C 393.2 44.1 394.6 42.9 397 42.9 C 400 42.9 401.7 44.8 401.7 48 C 401.7 48 401.7 56.2 401.7 56.2 C 401.7 57.8 401.8 57.9 404.1 58.1 C 404.12 58.07 404.1 59 404.1 59 L 396.3 59 C 396.3 59 396.31 58.07 396.3 58.1 C 398.6 57.9 398.7 57.8 398.7 56.2 C 398.7 56.2 398.7 48.7 398.7 48.7 C 398.7 45.9 397.5 44.7 395.4 44.7 C 393.7 44.7 392.2 45.7 391.5 47 C 391.3 47.5 391.2 47.9 391.2 48.7 C 391.2 48.7 391.2 56.2 391.2 56.2 C 391.2 57.8 391.4 57.9 393.6 58.1 C 393.63 58.07 393.6 59 393.6 59 L 385.8 59 C 385.8 59 385.82 58.07 385.8 58.1 Z M 405.9 43.3 L 408.3 43.3 L 410.3 39.3 L 411.2 39.3 L 411.2 43.3 L 415.4 43.3 L 415.4 44.6 L 411.2 44.6 C 411.2 44.6 411.23 54.52 411.2 54.5 C 411.2 57 412.2 57.7 413.3 57.7 C 414.1 57.7 414.8 57.6 415.6 57.3 C 415.6 57.3 415.9 58 415.9 58 C 414.9 58.6 413.4 59.4 411.8 59.4 C 410.6 59.4 408.2 59 408.2 55.7 C 408.22 55.74 408.2 44.6 408.2 44.6 L 405.9 44.6 L 405.9 43.3 Z M 420.8 51 C 423.3 50.2 426.4 49.4 427.2 48.6 C 427.2 48.6 427.2 47.3 427.2 47.3 C 427.2 44.7 425.8 44.1 424.5 44.1 C 423.2 44.1 421.9 44.8 421.2 47.2 C 421 47.7 420.9 48.1 420.2 48.1 C 419.6 48.1 418.4 47.6 418.4 46.6 C 418.4 44.8 421.2 42.9 424.9 42.9 C 429.7 42.9 430.1 45.3 430.1 47.2 C 430.1 47.2 430.1 54.9 430.1 54.9 C 430.1 57 430.6 57.6 431.2 57.7 C 431.7 57.8 432.4 57.8 432.9 57.7 C 432.9 57.7 433 58.4 433 58.4 C 431.8 59 430.5 59.4 429.3 59.4 C 428.2 59.4 427.6 58.6 427.2 57.5 C 426.2 58.1 424.3 59.4 422.4 59.4 C 419.4 59.4 417.8 57.2 417.8 54.8 C 417.8 53.3 418.5 51.7 420.8 51 Z M 424 57.7 C 425.2 57.7 427.2 57 427.2 54.4 C 427.2 54.4 427.2 49.9 427.2 49.9 C 426.5 50.4 424.8 51 423.5 51.4 C 421.8 52.1 421 52.9 421 54.4 C 421 56.3 422 57.7 424 57.7 Z M 435.7 53.7 C 436.4 56.4 437.8 58.3 440.4 58.3 C 442.1 58.3 443.4 57.2 443.4 55.6 C 443.4 53.4 441.4 52.7 439.9 52.2 C 437.3 51.4 435.1 50.3 435.1 47.6 C 435.1 44.6 437.5 42.9 440.9 42.9 C 442.4 42.9 444 43.3 445 44 C 445.05 44.02 445 47.8 445 47.8 C 445 47.8 444.12 47.77 444.1 47.8 C 443.9 45.8 442.8 44.1 440.5 44.1 C 438.9 44.1 437.7 45 437.7 46.6 C 437.7 48.4 439.8 49.1 441.1 49.5 C 444.4 50.6 446.1 51.8 446.1 54.6 C 446.1 57.4 443.9 59.4 440.1 59.4 C 438.2 59.4 436.3 58.9 435.1 57.8 C 435.13 57.85 434.8 53.7 434.8 53.7 C 434.8 53.7 435.74 53.66 435.7 53.7 Z M 452.1 51 C 454.6 50.2 457.8 49.4 458.6 48.6 C 458.6 48.6 458.6 47.3 458.6 47.3 C 458.6 44.7 457.1 44.1 455.8 44.1 C 454.6 44.1 453.2 44.8 452.5 47.2 C 452.4 47.7 452.2 48.1 451.5 48.1 C 450.9 48.1 449.7 47.6 449.7 46.6 C 449.7 44.8 452.6 42.9 456.2 42.9 C 461 42.9 461.4 45.3 461.4 47.2 C 461.4 47.2 461.4 54.9 461.4 54.9 C 461.4 57 462 57.6 462.6 57.7 C 463 57.8 463.7 57.8 464.2 57.7 C 464.2 57.7 464.4 58.4 464.4 58.4 C 463.2 59 461.8 59.4 460.6 59.4 C 459.5 59.4 459 58.6 458.5 57.5 C 457.5 58.1 455.6 59.4 453.8 59.4 C 450.7 59.4 449.1 57.2 449.1 54.8 C 449.1 53.3 449.8 51.7 452.1 51 Z M 455.3 57.7 C 456.6 57.7 458.6 57 458.6 54.4 C 458.6 54.4 458.6 49.9 458.6 49.9 C 457.8 50.4 456.2 51 454.9 51.4 C 453.1 52.1 452.4 52.9 452.4 54.4 C 452.4 56.3 453.3 57.7 455.3 57.7 Z M 465.7 58.1 C 468 57.9 468.1 57.8 468.1 56.2 C 468.1 56.2 468.1 46.1 468.1 46.1 C 468.1 45 467.9 44.8 467 44.7 C 467.03 44.7 465.8 44.5 465.8 44.5 L 465.8 43.7 L 470.6 42.9 C 470.6 42.9 471.03 45.37 471 45.4 C 473 44.1 474.5 42.9 476.9 42.9 C 479.8 42.9 481.6 44.8 481.6 48 C 481.6 48 481.6 56.2 481.6 56.2 C 481.6 57.8 481.7 57.9 484 58.1 C 483.96 58.07 484 59 484 59 L 476.2 59 C 476.2 59 476.15 58.07 476.2 58.1 C 478.5 57.9 478.6 57.8 478.6 56.2 C 478.6 56.2 478.6 48.7 478.6 48.7 C 478.6 45.9 477.4 44.7 475.2 44.7 C 473.5 44.7 472.1 45.7 471.4 47 C 471.1 47.5 471.1 47.9 471.1 48.7 C 471.1 48.7 471.1 56.2 471.1 56.2 C 471.1 57.8 471.2 57.9 473.5 58.1 C 473.46 58.07 473.5 59 473.5 59 L 465.7 59 C 465.7 59 465.66 58.07 465.7 58.1 Z " stroke="none" fill="#000"/>
  </g>
  <g id="Polygon16341">
    <path d="M -0.6 1.9 L 7.7 1.9 L 7.7 2.8 C 7.7 2.8 6.02 2.94 6 2.9 C 5.2 3 5.2 3.3 5.4 4.1 C 6.2 6.7 7.2 9.5 8.2 12.3 C 8.22 12.26 11.2 20.5 11.2 20.5 L 11.3 20.5 C 11.3 20.5 14.59 11.36 14.6 11.4 C 15.7 8.2 16.7 5.3 17.1 3.9 C 17.2 3.3 17.2 3 16.4 2.9 C 16.38 2.94 14.6 2.8 14.6 2.8 L 14.6 1.9 L 21.7 1.9 C 21.7 1.9 21.7 2.78 21.7 2.8 C 20 2.9 19.6 2.9 18.9 4.4 C 18.1 6.1 16.9 9.4 15.6 13 C 15.55 12.96 11.5 24 11.5 24 L 9.2 24 C 9.2 24 5.57 13.76 5.6 13.8 C 4.4 10.6 3.3 7.4 2.2 4.7 C 1.6 3 1.2 2.8 -0.6 2.8 C -0.58 2.78 -0.6 1.9 -0.6 1.9 Z M 23.2 16 C 25.8 15.2 28.9 14.4 29.7 13.6 C 29.7 13.6 29.7 12.3 29.7 12.3 C 29.7 9.7 28.2 9.1 26.9 9.1 C 25.7 9.1 24.4 9.8 23.6 12.2 C 23.5 12.7 23.3 13.1 22.6 13.1 C 22 13.1 20.8 12.6 20.8 11.6 C 20.8 9.8 23.7 7.9 27.3 7.9 C 32.1 7.9 32.5 10.3 32.5 12.2 C 32.5 12.2 32.5 19.9 32.5 19.9 C 32.5 22 33.1 22.6 33.7 22.7 C 34.1 22.8 34.8 22.8 35.3 22.7 C 35.3 22.7 35.5 23.4 35.5 23.4 C 34.3 24 32.9 24.4 31.7 24.4 C 30.6 24.4 30.1 23.6 29.6 22.5 C 28.6 23.1 26.7 24.4 24.9 24.4 C 21.9 24.4 20.3 22.2 20.3 19.8 C 20.3 18.3 20.9 16.7 23.2 16 Z M 26.4 22.7 C 27.7 22.7 29.7 22 29.7 19.4 C 29.7 19.4 29.7 14.9 29.7 14.9 C 29 15.4 27.3 16 26 16.4 C 24.2 17.1 23.5 17.9 23.5 19.4 C 23.5 21.3 24.4 22.7 26.4 22.7 Z M 45.1 7.9 C 48.5 7.9 50.7 9.6 50.7 11 C 50.7 12.3 49.4 12.7 48.8 12.7 C 48.2 12.7 48 12.4 47.8 11.8 C 47.1 10.1 46.2 9.1 44.7 9.1 C 42.5 9.1 40.6 11 40.6 15.7 C 40.6 18.8 41.5 22.7 45.3 22.7 C 47.7 22.7 49 21.6 50 19.3 C 50 19.3 50.9 19.8 50.9 19.8 C 50 23.2 47 24.4 44.7 24.4 C 39.9 24.4 37.3 21.7 37.3 16.3 C 37.3 12.1 39.3 7.9 45.1 7.9 Z M 61.3 7.9 C 64.7 7.9 66.8 9.6 66.8 11 C 66.8 12.3 65.6 12.7 65 12.7 C 64.4 12.7 64.2 12.4 64 11.8 C 63.3 10.1 62.4 9.1 60.9 9.1 C 58.7 9.1 56.8 11 56.8 15.7 C 56.8 18.8 57.7 22.7 61.5 22.7 C 63.9 22.7 65.2 21.6 66.1 19.3 C 66.1 19.3 67.1 19.8 67.1 19.8 C 66.2 23.2 63.2 24.4 60.9 24.4 C 56.1 24.4 53.5 21.7 53.5 16.3 C 53.5 12.1 55.5 7.9 61.3 7.9 Z M 73 1.1 C 74.2 1.1 75 1.9 75 3.1 C 75 4.2 74.2 5 73 5 C 71.9 5 71.1 4.2 71.1 3.1 C 71.1 1.9 71.9 1.1 73 1.1 Z M 69.2 23.1 C 71.5 22.9 71.6 22.8 71.6 21.2 C 71.6 21.2 71.6 11.1 71.6 11.1 C 71.6 10 71.4 9.8 70.5 9.7 C 70.53 9.7 69.3 9.5 69.3 9.5 L 69.3 8.7 L 74.3 7.9 L 74.6 8.1 C 74.6 8.1 74.56 21.22 74.6 21.2 C 74.6 22.8 74.7 22.9 77 23.1 C 76.96 23.07 77 24 77 24 L 69.2 24 C 69.2 24 69.15 23.07 69.2 23.1 Z M 78.8 23.1 C 81.1 22.9 81.2 22.8 81.2 21.2 C 81.2 21.2 81.2 11.1 81.2 11.1 C 81.2 10 81 9.8 80.2 9.7 C 80.16 9.7 78.9 9.5 78.9 9.5 L 78.9 8.7 L 83.7 7.9 C 83.7 7.9 84.16 10.37 84.2 10.4 C 86.1 9.1 87.6 7.9 90 7.9 C 92.9 7.9 94.7 9.8 94.7 13 C 94.7 13 94.7 21.2 94.7 21.2 C 94.7 22.8 94.8 22.9 97.1 23.1 C 97.09 23.07 97.1 24 97.1 24 L 89.3 24 C 89.3 24 89.28 23.07 89.3 23.1 C 91.6 22.9 91.7 22.8 91.7 21.2 C 91.7 21.2 91.7 13.7 91.7 13.7 C 91.7 10.9 90.5 9.7 88.3 9.7 C 86.6 9.7 85.2 10.7 84.5 12 C 84.3 12.5 84.2 12.9 84.2 13.7 C 84.2 13.7 84.2 21.2 84.2 21.2 C 84.2 22.8 84.3 22.9 86.6 23.1 C 86.59 23.07 86.6 24 86.6 24 L 78.8 24 C 78.8 24 78.78 23.07 78.8 23.1 Z M 102.4 16 C 105 15.2 108.1 14.4 108.9 13.6 C 108.9 13.6 108.9 12.3 108.9 12.3 C 108.9 9.7 107.4 9.1 106.1 9.1 C 104.9 9.1 103.5 9.8 102.8 12.2 C 102.7 12.7 102.5 13.1 101.8 13.1 C 101.2 13.1 100 12.6 100 11.6 C 100 9.8 102.9 7.9 106.5 7.9 C 111.3 7.9 111.7 10.3 111.7 12.2 C 111.7 12.2 111.7 19.9 111.7 19.9 C 111.7 22 112.3 22.6 112.9 22.7 C 113.3 22.8 114 22.8 114.5 22.7 C 114.5 22.7 114.7 23.4 114.7 23.4 C 113.5 24 112.1 24.4 110.9 24.4 C 109.8 24.4 109.3 23.6 108.8 22.5 C 107.8 23.1 105.9 24.4 104.1 24.4 C 101.1 24.4 99.5 22.2 99.5 19.8 C 99.5 18.3 100.1 16.7 102.4 16 Z M 105.6 22.7 C 106.9 22.7 108.9 22 108.9 19.4 C 108.9 19.4 108.9 14.9 108.9 14.9 C 108.2 15.4 106.5 16 105.2 16.4 C 103.4 17.1 102.7 17.9 102.7 19.4 C 102.7 21.3 103.6 22.7 105.6 22.7 Z M 115.9 8.3 L 118.4 8.3 L 120.3 4.3 L 121.2 4.3 L 121.2 8.3 L 125.4 8.3 L 125.4 9.6 L 121.2 9.6 C 121.2 9.6 121.25 19.52 121.2 19.5 C 121.2 22 122.3 22.7 123.4 22.7 C 124.2 22.7 124.9 22.6 125.6 22.3 C 125.6 22.3 125.9 23 125.9 23 C 125 23.6 123.4 24.4 121.8 24.4 C 120.7 24.4 118.2 24 118.2 20.7 C 118.24 20.74 118.2 9.6 118.2 9.6 L 115.9 9.6 L 115.9 8.3 Z M 131.2 1.1 C 132.3 1.1 133.1 1.9 133.1 3.1 C 133.1 4.2 132.3 5 131.2 5 C 130 5 129.2 4.2 129.2 3.1 C 129.2 1.9 130 1.1 131.2 1.1 Z M 127.3 23.1 C 129.6 22.9 129.7 22.8 129.7 21.2 C 129.7 21.2 129.7 11.1 129.7 11.1 C 129.7 10 129.5 9.8 128.7 9.7 C 128.67 9.7 127.5 9.5 127.5 9.5 L 127.5 8.7 L 132.5 7.9 L 132.7 8.1 C 132.7 8.1 132.7 21.22 132.7 21.2 C 132.7 22.8 132.8 22.9 135.1 23.1 C 135.1 23.07 135.1 24 135.1 24 L 127.3 24 C 127.3 24 127.29 23.07 127.3 23.1 Z M 145.1 7.9 C 150.3 7.9 152.8 11 152.8 16.2 C 152.8 21.3 150.3 24.4 145.1 24.4 C 140 24.4 137.5 21.3 137.5 16.2 C 137.5 11 140 7.9 145.1 7.9 Z M 145.1 23.3 C 148.1 23.3 149.5 20.6 149.5 16.2 C 149.5 11.7 148.1 9.1 145.1 9.1 C 142.2 9.1 140.8 11.7 140.8 16.2 C 140.8 20.6 142.2 23.3 145.1 23.3 Z M 155.7 23.1 C 158 22.9 158.1 22.8 158.1 21.2 C 158.1 21.2 158.1 11.1 158.1 11.1 C 158.1 10 157.9 9.8 157.1 9.7 C 157.08 9.7 155.9 9.5 155.9 9.5 L 155.9 8.7 L 160.6 7.9 C 160.6 7.9 161.08 10.37 161.1 10.4 C 163.1 9.1 164.5 7.9 166.9 7.9 C 169.9 7.9 171.6 9.8 171.6 13 C 171.6 13 171.6 21.2 171.6 21.2 C 171.6 22.8 171.7 22.9 174 23.1 C 174.01 23.07 174 24 174 24 L 166.2 24 C 166.2 24 166.2 23.07 166.2 23.1 C 168.5 22.9 168.6 22.8 168.6 21.2 C 168.6 21.2 168.6 13.7 168.6 13.7 C 168.6 10.9 167.4 9.7 165.2 9.7 C 163.5 9.7 162.1 10.7 161.4 12 C 161.2 12.5 161.1 12.9 161.1 13.7 C 161.1 13.7 161.1 21.2 161.1 21.2 C 161.1 22.8 161.2 22.9 163.5 23.1 C 163.52 23.07 163.5 24 163.5 24 L 155.7 24 C 155.7 24 155.71 23.07 155.7 23.1 Z M 185.5 28.6 C 185.5 28.6 185.5 11.1 185.5 11.1 C 185.5 10 185.3 9.8 184.5 9.7 C 184.51 9.7 183.3 9.5 183.3 9.5 L 183.3 8.7 L 188.1 7.9 C 188.1 7.9 188.54 10.3 188.5 10.3 C 189.8 9.5 191.6 7.9 194 7.9 C 199.8 7.9 200.2 13.5 200.2 15.8 C 200.2 22.4 196.5 24.4 192.2 24.4 C 190.7 24.4 189.2 24 188.5 23.6 C 188.5 23.6 188.5 28.6 188.5 28.6 C 188.5 30.2 188.7 30.3 191.4 30.4 C 191.42 30.43 191.4 31.4 191.4 31.4 L 183.1 31.4 C 183.1 31.4 183.13 30.43 183.1 30.4 C 185.4 30.3 185.5 30.2 185.5 28.6 Z M 188.8 20.9 C 189.3 22.4 190.6 23.3 192.2 23.3 C 195.4 23.3 196.9 20.7 196.9 16 C 196.9 10.5 194 9.7 192.8 9.7 C 191.1 9.7 189.7 10.4 189 11.9 C 188.7 12.5 188.5 12.9 188.5 13.7 C 188.5 13.7 188.5 19 188.5 19 C 188.5 19.7 188.6 20.4 188.8 20.9 Z M 203.1 23.1 C 205.4 22.9 205.5 22.8 205.5 21.2 C 205.5 21.2 205.5 11.1 205.5 11.1 C 205.5 10 205.3 9.8 204.5 9.7 C 204.51 9.7 203.3 9.5 203.3 9.5 L 203.3 8.7 L 208.2 7.9 C 208.2 7.9 208.54 10.5 208.5 10.5 C 210.7 8.6 211.6 7.9 212.8 7.9 C 214 7.9 214.5 8.8 214.5 9.5 C 214.5 10.5 213.8 11.3 213 11.3 C 212.8 11.3 212.6 11.3 212.3 11.1 C 211.4 10.6 210.9 10.4 210.4 10.4 C 209.6 10.4 208.5 11.3 208.5 13.7 C 208.5 13.7 208.5 21.2 208.5 21.2 C 208.5 22.8 208.7 22.9 211.6 23.1 C 211.58 23.07 211.6 24 211.6 24 L 203.1 24 C 203.1 24 203.13 23.07 203.1 23.1 Z M 223.9 7.9 C 229.1 7.9 231.6 11 231.6 16.2 C 231.6 21.3 229.1 24.4 223.9 24.4 C 218.8 24.4 216.3 21.3 216.3 16.2 C 216.3 11 218.8 7.9 223.9 7.9 Z M 223.9 23.3 C 226.9 23.3 228.3 20.6 228.3 16.2 C 228.3 11.7 226.9 9.1 223.9 9.1 C 221 9.1 219.6 11.7 219.6 16.2 C 219.6 20.6 221 23.3 223.9 23.3 Z M 238.5 23.6 C 238.5 23.6 238.5 23.5 238.5 23.5 C 237 23.3 235.7 22.1 235.7 21 C 235.7 19.7 236.9 18.8 238.6 18.1 C 238.6 18.1 238.6 18.1 238.6 18.1 C 237.1 17.7 235.2 16.3 235.2 13.3 C 235.2 10.9 236.9 7.9 241.8 7.9 C 243.3 7.9 245 8.3 245.9 8.9 C 245.92 8.93 250 7.6 250 7.6 L 250.3 7.9 L 249.6 9.9 C 249.6 9.9 247.1 10.3 247.1 10.3 C 247.6 10.8 248.1 12 248.1 13.3 C 248.1 17.2 244.6 18.5 241.6 18.5 C 241.2 18.5 240.6 18.5 240 18.4 C 239.5 18.6 238.3 19.1 238.3 20 C 238.3 20.6 238.7 21.4 241 21.4 C 241 21.4 243.5 21.4 243.5 21.4 C 247 21.4 249.7 22.6 249.7 26 C 249.7 28 248.7 29.5 247.2 30.4 C 245.7 31.4 243.6 31.7 241.7 31.7 C 238 31.7 234.8 30.3 234.8 27.1 C 234.8 24.8 237.1 24 238.5 23.6 Z M 242.5 30.6 C 244.7 30.6 247 29.4 247 26.8 C 247 24.4 245 23.8 242.1 23.8 C 240.6 23.8 239.5 24 238.8 24.5 C 238.2 25 237.9 25.8 237.9 26.9 C 237.9 29.2 239.7 30.6 242.5 30.6 Z M 241.7 17.4 C 243.6 17.4 245 16 245 13.3 C 245 10.2 243.4 9.1 241.8 9.1 C 240.1 9.1 238.4 10.1 238.4 13.3 C 238.4 16 239.9 17.4 241.7 17.4 Z M 251.5 23.1 C 253.7 22.9 253.9 22.8 253.9 21.2 C 253.9 21.2 253.9 11.1 253.9 11.1 C 253.9 10 253.7 9.8 252.8 9.7 C 252.83 9.7 251.6 9.5 251.6 9.5 L 251.6 8.7 L 256.5 7.9 C 256.5 7.9 256.86 10.5 256.9 10.5 C 259 8.6 259.9 7.9 261.1 7.9 C 262.3 7.9 262.8 8.8 262.8 9.5 C 262.8 10.5 262.1 11.3 261.3 11.3 C 261.1 11.3 260.9 11.3 260.7 11.1 C 259.7 10.6 259.2 10.4 258.7 10.4 C 257.9 10.4 256.9 11.3 256.9 13.7 C 256.9 13.7 256.9 21.2 256.9 21.2 C 256.9 22.8 257.1 22.9 259.9 23.1 C 259.9 23.07 259.9 24 259.9 24 L 251.5 24 C 251.5 24 251.45 23.07 251.5 23.1 Z M 267.4 16 C 269.9 15.2 273.1 14.4 273.9 13.6 C 273.9 13.6 273.9 12.3 273.9 12.3 C 273.9 9.7 272.4 9.1 271.1 9.1 C 269.9 9.1 268.5 9.8 267.8 12.2 C 267.7 12.7 267.5 13.1 266.8 13.1 C 266.2 13.1 265 12.6 265 11.6 C 265 9.8 267.9 7.9 271.5 7.9 C 276.3 7.9 276.7 10.3 276.7 12.2 C 276.7 12.2 276.7 19.9 276.7 19.9 C 276.7 22 277.3 22.6 277.9 22.7 C 278.3 22.8 279 22.8 279.5 22.7 C 279.5 22.7 279.7 23.4 279.7 23.4 C 278.5 24 277.1 24.4 275.9 24.4 C 274.8 24.4 274.3 23.6 273.8 22.5 C 272.8 23.1 270.9 24.4 269.1 24.4 C 266 24.4 264.4 22.2 264.4 19.8 C 264.4 18.3 265.1 16.7 267.4 16 Z M 270.6 22.7 C 271.9 22.7 273.9 22 273.9 19.4 C 273.9 19.4 273.9 14.9 273.9 14.9 C 273.1 15.4 271.5 16 270.2 16.4 C 268.4 17.1 267.7 17.9 267.7 19.4 C 267.7 21.3 268.6 22.7 270.6 22.7 Z M 281 23.1 C 283.3 22.9 283.4 22.8 283.4 21.2 C 283.4 21.2 283.4 11.1 283.4 11.1 C 283.4 10 283.2 9.8 282.3 9.7 C 282.33 9.7 281.1 9.5 281.1 9.5 L 281.1 8.7 L 286.1 7.9 C 286.1 7.9 286.36 10.37 286.4 10.4 C 287.5 9.5 289.5 7.9 292 7.9 C 294.2 7.9 295.4 8.9 296.2 10.4 C 297.3 9.7 299.2 7.9 301.8 7.9 C 304.9 7.9 306.6 9.8 306.6 13 C 306.6 13 306.6 21.2 306.6 21.2 C 306.6 22.8 306.7 22.9 309 23.1 C 308.99 23.07 309 24 309 24 L 301.2 24 C 301.2 24 301.18 23.07 301.2 23.1 C 303.5 22.9 303.6 22.8 303.6 21.2 C 303.6 21.2 303.6 13.7 303.6 13.7 C 303.6 10.8 302.4 9.7 300.3 9.7 C 298.6 9.7 297.2 10.7 296.7 12 C 296.5 12.5 296.5 12.9 296.5 13.7 C 296.5 13.7 296.5 21.2 296.5 21.2 C 296.5 22.8 296.6 22.9 298.9 23.1 C 298.87 23.07 298.9 24 298.9 24 L 291.1 24 C 291.1 24 291.07 23.07 291.1 23.1 C 293.4 22.9 293.5 22.8 293.5 21.2 C 293.5 21.2 293.5 13.7 293.5 13.7 C 293.5 11.7 293.1 9.7 290.4 9.7 C 288.6 9.7 287.2 10.8 286.6 12 C 286.4 12.5 286.4 12.9 286.4 13.7 C 286.4 13.7 286.4 21.2 286.4 21.2 C 286.4 22.8 286.5 22.9 288.8 23.1 C 288.76 23.07 288.8 24 288.8 24 L 281 24 C 281 24 280.95 23.07 281 23.1 Z M 318.3 23.1 C 320.6 22.9 320.7 22.8 320.7 21.2 C 320.7 21.2 320.7 11.1 320.7 11.1 C 320.7 10 320.5 9.8 319.7 9.7 C 319.71 9.7 318.5 9.5 318.5 9.5 L 318.5 8.7 L 323.3 7.9 C 323.3 7.9 323.71 10.37 323.7 10.4 C 325.7 9.1 327.2 7.9 329.5 7.9 C 332.5 7.9 334.2 9.8 334.2 13 C 334.2 13 334.2 21.2 334.2 21.2 C 334.2 22.8 334.4 22.9 336.6 23.1 C 336.63 23.07 336.6 24 336.6 24 L 328.8 24 C 328.8 24 328.83 23.07 328.8 23.1 C 331.1 22.9 331.2 22.8 331.2 21.2 C 331.2 21.2 331.2 13.7 331.2 13.7 C 331.2 10.9 330 9.7 327.9 9.7 C 326.2 9.7 324.7 10.7 324.1 12 C 323.8 12.5 323.7 12.9 323.7 13.7 C 323.7 13.7 323.7 21.2 323.7 21.2 C 323.7 22.8 323.9 22.9 326.1 23.1 C 326.14 23.07 326.1 24 326.1 24 L 318.3 24 C 318.3 24 318.33 23.07 318.3 23.1 Z M 342.5 23.6 C 342.5 23.6 342.5 23.5 342.5 23.5 C 340.9 23.3 339.6 22.1 339.6 21 C 339.6 19.7 340.9 18.8 342.6 18.1 C 342.6 18.1 342.6 18.1 342.6 18.1 C 341.1 17.7 339.1 16.3 339.1 13.3 C 339.1 10.9 340.9 7.9 345.8 7.9 C 347.2 7.9 349 8.3 349.9 8.9 C 349.88 8.93 354 7.6 354 7.6 L 354.2 7.9 L 353.6 9.9 C 353.6 9.9 351.07 10.3 351.1 10.3 C 351.6 10.8 352 12 352 13.3 C 352 17.2 348.6 18.5 345.6 18.5 C 345.2 18.5 344.5 18.5 343.9 18.4 C 343.5 18.6 342.3 19.1 342.3 20 C 342.3 20.6 342.6 21.4 345 21.4 C 345 21.4 347.5 21.4 347.5 21.4 C 350.9 21.4 353.7 22.6 353.7 26 C 353.7 28 352.6 29.5 351.2 30.4 C 349.6 31.4 347.6 31.7 345.7 31.7 C 342 31.7 338.8 30.3 338.8 27.1 C 338.8 24.8 341.1 24 342.5 23.6 Z M 346.4 30.6 C 348.7 30.6 351 29.4 351 26.8 C 351 24.4 348.9 23.8 346.1 23.8 C 344.6 23.8 343.5 24 342.8 24.5 C 342.1 25 341.8 25.8 341.8 26.9 C 341.8 29.2 343.7 30.6 346.4 30.6 Z M 345.7 17.4 C 347.5 17.4 349 16 349 13.3 C 349 10.2 347.3 9.1 345.8 9.1 C 344.1 9.1 342.4 10.1 342.4 13.3 C 342.4 16 343.9 17.4 345.7 17.4 Z M 363 23.1 C 365.8 22.9 365.9 22.8 365.9 21 C 365.9 21 365.9 4.8 365.9 4.8 C 365.9 3 365.8 3 363 2.8 C 363.03 2.78 363 1.9 363 1.9 C 363 1.9 373.66 1.86 373.7 1.9 C 383 1.9 385.3 7.3 385.3 12.5 C 385.3 18.3 382.8 24 373 24 C 373.02 24 363 24 363 24 C 363 24 363.03 23.07 363 23.1 Z M 372.4 22.9 C 377.8 22.9 381.7 20.7 381.7 12.7 C 381.7 7.3 379.6 3 372.8 3 C 369.4 3 369.1 3.1 369.1 4.8 C 369.1 4.8 369.1 20 369.1 20 C 369.1 22.5 369.6 22.9 372.4 22.9 Z M 388.3 23.1 C 391.1 22.9 391.2 22.8 391.2 21 C 391.2 21 391.2 4.8 391.2 4.8 C 391.2 3 391.1 3 388.3 2.8 C 388.28 2.78 388.3 1.9 388.3 1.9 L 397.4 1.9 C 397.4 1.9 397.4 2.78 397.4 2.8 C 394.4 3 394.3 3 394.3 4.8 C 394.3 4.8 394.3 20.2 394.3 20.2 C 394.3 21.7 394.5 22.3 395.1 22.6 C 395.8 22.8 397 22.9 398.6 22.9 C 401.9 22.9 403.7 22.5 404.3 18.3 C 404.31 18.27 405.3 18.3 405.3 18.3 L 404.9 24 L 388.3 24 C 388.3 24 388.28 23.07 388.3 23.1 Z M 408.3 17.4 C 409.1 21 411.1 23.4 414.1 23.4 C 416.9 23.4 418.7 21.7 418.7 18.9 C 418.7 16.1 415.6 14.6 414.2 14.1 C 414.2 14.1 413.7 13.9 413.7 13.9 C 410.3 12.7 407.6 10.9 407.6 7.6 C 407.6 3.3 411.1 1.4 415 1.4 C 417.1 1.4 419.3 1.9 420.4 2.8 C 420.41 2.78 420.4 7.3 420.4 7.3 C 420.4 7.3 419.42 7.3 419.4 7.3 C 418.9 4.1 417.4 2.5 414.6 2.5 C 411.9 2.5 410.5 4.2 410.5 6.6 C 410.5 8.5 412.3 9.9 414.5 10.7 C 414.5 10.7 415.5 11 415.5 11 C 419.2 12.4 421.8 14.2 421.8 18 C 421.8 21.2 419.5 24.5 413.9 24.5 C 411.6 24.5 409 23.9 407.6 22.6 C 407.58 22.56 407.3 17.4 407.3 17.4 C 407.3 17.4 408.28 17.44 408.3 17.4 Z M 424.2 1.9 L 433.1 1.9 C 433.1 1.9 433.14 2.78 433.1 2.8 C 430.4 3 430.3 3 430.3 4.8 C 430.3 4.8 430.3 15.2 430.3 15.2 C 430.3 18.2 430.7 20.2 431.7 21.4 C 432.7 22.7 434.1 23.4 435.9 23.4 C 437.8 23.4 439.2 22.7 440.2 21.4 C 441.1 20.2 441.6 18.2 441.6 15.2 C 441.6 15.2 441.6 4.8 441.6 4.8 C 441.6 3 441.6 3 438.7 2.8 C 438.74 2.78 438.7 1.9 438.7 1.9 L 447.7 1.9 C 447.7 1.9 447.67 2.78 447.7 2.8 C 444.9 3 444.8 3 444.8 4.8 C 444.8 4.8 444.8 15.8 444.8 15.8 C 444.8 17.8 444.5 19.5 443.9 20.6 C 442.5 23.7 439.1 24.5 435.9 24.5 C 432.8 24.5 429.4 23.7 428 20.6 C 427.4 19.5 427.1 17.8 427.1 15.9 C 427.1 15.9 427.1 4.8 427.1 4.8 C 427.1 3 427 3 424.2 2.8 C 424.22 2.78 424.2 1.9 424.2 1.9 Z M 452.4 24.2 C 452.4 22.8 451.4 22.2 451.4 21.1 C 451.4 20.3 451.9 19.5 452.9 19.5 C 454.1 19.5 455.1 20.7 455.1 22.4 C 455.1 24.9 452.8 27 451.2 28.5 C 451.2 28.5 450.6 27.9 450.6 27.9 C 451.6 26.8 452.4 25.5 452.4 24.2 Z M 467.7 18.7 C 468.3 21.4 469.8 23.3 472.3 23.3 C 474 23.3 475.3 22.2 475.3 20.6 C 475.3 18.4 473.3 17.7 471.9 17.2 C 469.2 16.4 467 15.3 467 12.6 C 467 9.6 469.4 7.9 472.9 7.9 C 474.3 7.9 475.9 8.3 477 9 C 476.98 9.02 477 12.8 477 12.8 C 477 12.8 476.06 12.77 476.1 12.8 C 475.8 10.8 474.7 9.1 472.5 9.1 C 470.9 9.1 469.6 10 469.6 11.6 C 469.6 13.4 471.7 14.1 473 14.5 C 476.3 15.6 478 16.8 478 19.6 C 478 22.4 475.9 24.4 472.1 24.4 C 470.2 24.4 468.2 23.9 467.1 22.8 C 467.06 22.85 466.7 18.7 466.7 18.7 C 466.7 18.7 467.67 18.66 467.7 18.7 Z M 484.1 16 C 486.6 15.2 489.7 14.4 490.5 13.6 C 490.5 13.6 490.5 12.3 490.5 12.3 C 490.5 9.7 489 9.1 487.8 9.1 C 486.5 9.1 485.2 9.8 484.5 12.2 C 484.3 12.7 484.1 13.1 483.4 13.1 C 482.8 13.1 481.7 12.6 481.7 11.6 C 481.7 9.8 484.5 7.9 488.1 7.9 C 493 7.9 493.4 10.3 493.4 12.2 C 493.4 12.2 493.4 19.9 493.4 19.9 C 493.4 22 493.9 22.6 494.5 22.7 C 495 22.8 495.7 22.8 496.1 22.7 C 496.1 22.7 496.3 23.4 496.3 23.4 C 495.1 24 493.7 24.4 492.5 24.4 C 491.4 24.4 490.9 23.6 490.5 22.5 C 489.4 23.1 487.5 24.4 485.7 24.4 C 482.7 24.4 481.1 22.2 481.1 19.8 C 481.1 18.3 481.8 16.7 484.1 16 Z M 487.3 22.7 C 488.5 22.7 490.5 22 490.5 19.4 C 490.5 19.4 490.5 14.9 490.5 14.9 C 489.8 15.4 488.1 16 486.8 16.4 C 485 17.1 484.3 17.9 484.3 19.4 C 484.3 21.3 485.3 22.7 487.3 22.7 Z M 497.2 23.1 C 499.5 22.9 499.6 22.8 499.6 21.2 C 499.6 21.2 499.6 3.5 499.6 3.5 C 499.6 2.2 499.4 2.1 498.6 2 C 498.58 1.98 497.4 1.9 497.4 1.9 L 497.4 1.1 L 502.4 0.3 L 502.6 0.4 C 502.6 0.4 502.61 21.22 502.6 21.2 C 502.6 22.8 502.7 22.9 505 23.1 C 505.01 23.07 505 24 505 24 L 497.2 24 C 497.2 24 497.21 23.07 497.2 23.1 Z M 510.7 1.1 C 511.9 1.1 512.7 1.9 512.7 3.1 C 512.7 4.2 511.9 5 510.7 5 C 509.6 5 508.8 4.2 508.8 3.1 C 508.8 1.9 509.6 1.1 510.7 1.1 Z M 506.8 23.1 C 509.1 22.9 509.2 22.8 509.2 21.2 C 509.2 21.2 509.2 11.1 509.2 11.1 C 509.2 10 509 9.8 508.2 9.7 C 508.21 9.7 507 9.5 507 9.5 L 507 8.7 L 512 7.9 L 512.2 8.1 C 512.2 8.1 512.25 21.22 512.2 21.2 C 512.2 22.8 512.4 22.9 514.6 23.1 C 514.65 23.07 514.6 24 514.6 24 L 506.8 24 C 506.8 24 506.84 23.07 506.8 23.1 Z M 516.1 23.1 C 518.4 22.9 518.5 22.8 518.5 21.2 C 518.5 21.2 518.5 3.5 518.5 3.5 C 518.5 2.2 518.3 2.1 517.5 2 C 517.46 1.98 516.2 1.9 516.2 1.9 L 516.2 1.1 L 521.3 0.3 L 521.5 0.4 L 521.5 15.4 C 521.5 15.4 521.56 15.42 521.6 15.4 C 522.3 14.3 525.5 10.4 526.4 9.2 C 527 8.5 527.3 8.3 528.4 8.3 C 528.41 8.32 531.7 8.3 531.7 8.3 C 531.7 8.3 531.7 9.22 531.7 9.2 C 529.8 9.4 529 9.8 528 10.6 C 526.9 11.4 525.8 12.3 524.3 14.1 C 524 14.4 524.1 14.6 524.2 14.8 C 525.4 16.5 527.9 19.6 529.9 21.5 C 530.9 22.5 531.7 23 532.7 23.3 C 532.66 23.26 532.7 24.2 532.7 24.2 C 532.7 24.2 530.26 24.06 530.3 24.1 C 529.2 24 528 23.6 526.8 22.4 C 525.1 20.7 522.9 18 521.6 15.9 C 521.56 15.87 521.5 15.9 521.5 15.9 C 521.5 15.9 521.49 21.22 521.5 21.2 C 521.5 22.8 521.6 22.9 523.9 23.1 C 523.89 23.07 523.9 24 523.9 24 L 516.1 24 C 516.1 24 516.09 23.07 516.1 23.1 Z M 541.1 23.1 C 543.4 22.9 543.5 22.8 543.5 21.2 C 543.5 21.2 543.5 11.1 543.5 11.1 C 543.5 10 543.3 9.8 542.5 9.7 C 542.45 9.7 541.2 9.5 541.2 9.5 L 541.2 8.7 L 546 7.9 C 546 7.9 546.45 10.37 546.5 10.4 C 548.4 9.1 549.9 7.9 552.3 7.9 C 555.2 7.9 557 9.8 557 13 C 557 13 557 21.2 557 21.2 C 557 22.8 557.1 22.9 559.4 23.1 C 559.38 23.07 559.4 24 559.4 24 L 551.6 24 C 551.6 24 551.57 23.07 551.6 23.1 C 553.9 22.9 554 22.8 554 21.2 C 554 21.2 554 13.7 554 13.7 C 554 10.9 552.8 9.7 550.6 9.7 C 548.9 9.7 547.5 10.7 546.8 12 C 546.5 12.5 546.5 12.9 546.5 13.7 C 546.5 13.7 546.5 21.2 546.5 21.2 C 546.5 22.8 546.6 22.9 548.9 23.1 C 548.89 23.07 548.9 24 548.9 24 L 541.1 24 C 541.1 24 541.08 23.07 541.1 23.1 Z M 564.7 16 C 567.3 15.2 570.4 14.4 571.2 13.6 C 571.2 13.6 571.2 12.3 571.2 12.3 C 571.2 9.7 569.7 9.1 568.4 9.1 C 567.2 9.1 565.8 9.8 565.1 12.2 C 565 12.7 564.8 13.1 564.1 13.1 C 563.5 13.1 562.3 12.6 562.3 11.6 C 562.3 9.8 565.2 7.9 568.8 7.9 C 573.6 7.9 574 10.3 574 12.2 C 574 12.2 574 19.9 574 19.9 C 574 22 574.6 22.6 575.2 22.7 C 575.6 22.8 576.3 22.8 576.8 22.7 C 576.8 22.7 577 23.4 577 23.4 C 575.8 24 574.4 24.4 573.2 24.4 C 572.1 24.4 571.6 23.6 571.1 22.5 C 570.1 23.1 568.2 24.4 566.4 24.4 C 563.3 24.4 561.7 22.2 561.7 19.8 C 561.7 18.3 562.4 16.7 564.7 16 Z M 567.9 22.7 C 569.2 22.7 571.2 22 571.2 19.4 C 571.2 19.4 571.2 14.9 571.2 14.9 C 570.5 15.4 568.8 16 567.5 16.4 C 565.7 17.1 565 17.9 565 19.4 C 565 21.3 565.9 22.7 567.9 22.7 Z M 589.7 1.1 C 590.8 1.1 591.6 1.9 591.6 3.1 C 591.6 4.2 590.8 5 589.7 5 C 588.5 5 587.7 4.2 587.7 3.1 C 587.7 1.9 588.5 1.1 589.7 1.1 Z M 585.8 23.1 C 588.1 22.9 588.2 22.8 588.2 21.2 C 588.2 21.2 588.2 11.1 588.2 11.1 C 588.2 10 588 9.8 587.2 9.7 C 587.16 9.7 585.9 9.5 585.9 9.5 L 585.9 8.7 L 591 7.9 L 591.2 8.1 C 591.2 8.1 591.19 21.22 591.2 21.2 C 591.2 22.8 591.3 22.9 593.6 23.1 C 593.59 23.07 593.6 24 593.6 24 L 585.8 24 C 585.8 24 585.78 23.07 585.8 23.1 Z M 596.8 18.7 C 597.5 21.4 598.9 23.3 601.5 23.3 C 603.2 23.3 604.5 22.2 604.5 20.6 C 604.5 18.4 602.5 17.7 601 17.2 C 598.4 16.4 596.2 15.3 596.2 12.6 C 596.2 9.6 598.5 7.9 602 7.9 C 603.4 7.9 605.1 8.3 606.1 9 C 606.13 9.02 606.1 12.8 606.1 12.8 C 606.1 12.8 605.2 12.77 605.2 12.8 C 605 10.8 603.9 9.1 601.6 9.1 C 600 9.1 598.7 10 598.7 11.6 C 598.7 13.4 600.9 14.1 602.2 14.5 C 605.5 15.6 607.2 16.8 607.2 19.6 C 607.2 22.4 605 24.4 601.2 24.4 C 599.3 24.4 597.4 23.9 596.2 22.8 C 596.21 22.85 595.9 18.7 595.9 18.7 C 595.9 18.7 596.82 18.66 596.8 18.7 Z M 613.6 1.1 C 614.7 1.1 615.5 1.9 615.5 3.1 C 615.5 4.2 614.7 5 613.6 5 C 612.4 5 611.6 4.2 611.6 3.1 C 611.6 1.9 612.4 1.1 613.6 1.1 Z M 609.7 23.1 C 612 22.9 612.1 22.8 612.1 21.2 C 612.1 21.2 612.1 11.1 612.1 11.1 C 612.1 10 611.9 9.8 611.1 9.7 C 611.06 9.7 609.8 9.5 609.8 9.5 L 609.8 8.7 L 614.9 7.9 L 615.1 8.1 C 615.1 8.1 615.09 21.22 615.1 21.2 C 615.1 22.8 615.2 22.9 617.5 23.1 C 617.49 23.07 617.5 24 617.5 24 L 609.7 24 C 609.7 24 609.68 23.07 609.7 23.1 Z M 619.3 23.1 C 621.6 22.9 621.7 22.8 621.7 21.2 C 621.7 21.2 621.7 11.1 621.7 11.1 C 621.7 10 621.5 9.8 620.7 9.7 C 620.69 9.7 619.5 9.5 619.5 9.5 L 619.5 8.7 L 624.2 7.9 C 624.2 7.9 624.69 10.37 624.7 10.4 C 626.7 9.1 628.1 7.9 630.5 7.9 C 633.5 7.9 635.2 9.8 635.2 13 C 635.2 13 635.2 21.2 635.2 21.2 C 635.2 22.8 635.3 22.9 637.6 23.1 C 637.62 23.07 637.6 24 637.6 24 L 629.8 24 C 629.8 24 629.81 23.07 629.8 23.1 C 632.1 22.9 632.2 22.8 632.2 21.2 C 632.2 21.2 632.2 13.7 632.2 13.7 C 632.2 10.9 631 9.7 628.9 9.7 C 627.2 9.7 625.7 10.7 625 12 C 624.8 12.5 624.7 12.9 624.7 13.7 C 624.7 13.7 624.7 21.2 624.7 21.2 C 624.7 22.8 624.9 22.9 627.1 23.1 C 627.12 23.07 627.1 24 627.1 24 L 619.3 24 C 619.3 24 619.32 23.07 619.3 23.1 Z M 643 16 C 645.5 15.2 648.6 14.4 649.4 13.6 C 649.4 13.6 649.4 12.3 649.4 12.3 C 649.4 9.7 647.9 9.1 646.7 9.1 C 645.4 9.1 644.1 9.8 643.4 12.2 C 643.2 12.7 643 13.1 642.4 13.1 C 641.7 13.1 640.6 12.6 640.6 11.6 C 640.6 9.8 643.4 7.9 647 7.9 C 651.9 7.9 652.3 10.3 652.3 12.2 C 652.3 12.2 652.3 19.9 652.3 19.9 C 652.3 22 652.8 22.6 653.4 22.7 C 653.9 22.8 654.6 22.8 655 22.7 C 655 22.7 655.2 23.4 655.2 23.4 C 654 24 652.6 24.4 651.4 24.4 C 650.3 24.4 649.8 23.6 649.4 22.5 C 648.3 23.1 646.5 24.4 644.6 24.4 C 641.6 24.4 640 22.2 640 19.8 C 640 18.3 640.7 16.7 643 16 Z M 646.2 22.7 C 647.4 22.7 649.4 22 649.4 19.4 C 649.4 19.4 649.4 14.9 649.4 14.9 C 648.7 15.4 647 16 645.7 16.4 C 643.9 17.1 643.2 17.9 643.2 19.4 C 643.2 21.3 644.2 22.7 646.2 22.7 Z M 657.9 18.7 C 658.5 21.4 660 23.3 662.6 23.3 C 664.3 23.3 665.6 22.2 665.6 20.6 C 665.6 18.4 663.5 17.7 662.1 17.2 C 659.4 16.4 657.3 15.3 657.3 12.6 C 657.3 9.6 659.6 7.9 663.1 7.9 C 664.5 7.9 666.2 8.3 667.2 9 C 667.22 9.02 667.2 12.8 667.2 12.8 C 667.2 12.8 666.29 12.77 666.3 12.8 C 666.1 10.8 665 9.1 662.7 9.1 C 661.1 9.1 659.8 10 659.8 11.6 C 659.8 13.4 661.9 14.1 663.3 14.5 C 666.5 15.6 668.3 16.8 668.3 19.6 C 668.3 22.4 666.1 24.4 662.3 24.4 C 660.4 24.4 658.5 23.9 657.3 22.8 C 657.3 22.85 657 18.7 657 18.7 C 657 18.7 657.91 18.66 657.9 18.7 Z M 674.3 16 C 676.8 15.2 679.9 14.4 680.7 13.6 C 680.7 13.6 680.7 12.3 680.7 12.3 C 680.7 9.7 679.3 9.1 678 9.1 C 676.7 9.1 675.4 9.8 674.7 12.2 C 674.5 12.7 674.4 13.1 673.7 13.1 C 673.1 13.1 671.9 12.6 671.9 11.6 C 671.9 9.8 674.7 7.9 678.4 7.9 C 683.2 7.9 683.6 10.3 683.6 12.2 C 683.6 12.2 683.6 19.9 683.6 19.9 C 683.6 22 684.1 22.6 684.7 22.7 C 685.2 22.8 685.9 22.8 686.4 22.7 C 686.4 22.7 686.5 23.4 686.5 23.4 C 685.3 24 684 24.4 682.8 24.4 C 681.7 24.4 681.1 23.6 680.7 22.5 C 679.7 23.1 677.8 24.4 675.9 24.4 C 672.9 24.4 671.3 22.2 671.3 19.8 C 671.3 18.3 672 16.7 674.3 16 Z M 677.5 22.7 C 678.7 22.7 680.7 22 680.7 19.4 C 680.7 19.4 680.7 14.9 680.7 14.9 C 680 15.4 678.3 16 677 16.4 C 675.3 17.1 674.5 17.9 674.5 19.4 C 674.5 21.3 675.5 22.7 677.5 22.7 Z M 691.3 16 C 693.9 15.2 697 14.4 697.8 13.6 C 697.8 13.6 697.8 12.3 697.8 12.3 C 697.8 9.7 696.3 9.1 695.1 9.1 C 693.8 9.1 692.5 9.8 691.8 12.2 C 691.6 12.7 691.4 13.1 690.7 13.1 C 690.1 13.1 688.9 12.6 688.9 11.6 C 688.9 9.8 691.8 7.9 695.4 7.9 C 700.2 7.9 700.7 10.3 700.7 12.2 C 700.7 12.2 700.7 19.9 700.7 19.9 C 700.7 22 701.2 22.6 701.8 22.7 C 702.3 22.8 703 22.8 703.4 22.7 C 703.4 22.7 703.6 23.4 703.6 23.4 C 702.4 24 701 24.4 699.8 24.4 C 698.7 24.4 698.2 23.6 697.7 22.5 C 696.7 23.1 694.8 24.4 693 24.4 C 690 24.4 688.4 22.2 688.4 19.8 C 688.4 18.3 689 16.7 691.3 16 Z M 694.5 22.7 C 695.8 22.7 697.8 22 697.8 19.4 C 697.8 19.4 697.8 14.9 697.8 14.9 C 697.1 15.4 695.4 16 694.1 16.4 C 692.3 17.1 691.6 17.9 691.6 19.4 C 691.6 21.3 692.6 22.7 694.5 22.7 Z M 704.5 23.1 C 706.8 22.9 706.9 22.8 706.9 21.2 C 706.9 21.2 706.9 3.5 706.9 3.5 C 706.9 2.2 706.7 2.1 705.9 2 C 705.87 1.98 704.7 1.9 704.7 1.9 L 704.7 1.1 L 709.7 0.3 L 709.9 0.4 C 709.9 0.4 709.91 21.22 709.9 21.2 C 709.9 22.8 710 22.9 712.3 23.1 C 712.31 23.07 712.3 24 712.3 24 L 704.5 24 C 704.5 24 704.5 23.07 704.5 23.1 Z M 717.6 16 C 720.2 15.2 723.3 14.4 724.1 13.6 C 724.1 13.6 724.1 12.3 724.1 12.3 C 724.1 9.7 722.6 9.1 721.4 9.1 C 720.1 9.1 718.8 9.8 718.1 12.2 C 717.9 12.7 717.7 13.1 717 13.1 C 716.4 13.1 715.2 12.6 715.2 11.6 C 715.2 9.8 718.1 7.9 721.7 7.9 C 726.5 7.9 727 10.3 727 12.2 C 727 12.2 727 19.9 727 19.9 C 727 22 727.5 22.6 728.1 22.7 C 728.6 22.8 729.3 22.8 729.7 22.7 C 729.7 22.7 729.9 23.4 729.9 23.4 C 728.7 24 727.3 24.4 726.1 24.4 C 725 24.4 724.5 23.6 724 22.5 C 723 23.1 721.1 24.4 719.3 24.4 C 716.3 24.4 714.7 22.2 714.7 19.8 C 714.7 18.3 715.3 16.7 717.6 16 Z M 720.8 22.7 C 722.1 22.7 724.1 22 724.1 19.4 C 724.1 19.4 724.1 14.9 724.1 14.9 C 723.4 15.4 721.7 16 720.4 16.4 C 718.6 17.1 717.9 17.9 717.9 19.4 C 717.9 21.3 718.9 22.7 720.8 22.7 Z M 731.2 23.1 C 733.5 22.9 733.6 22.8 733.6 21.2 C 733.6 21.2 733.6 11.1 733.6 11.1 C 733.6 10 733.4 9.8 732.6 9.7 C 732.56 9.7 731.3 9.5 731.3 9.5 L 731.3 8.7 L 736.1 7.9 C 736.1 7.9 736.56 10.37 736.6 10.4 C 738.5 9.1 740 7.9 742.4 7.9 C 745.3 7.9 747.1 9.8 747.1 13 C 747.1 13 747.1 21.2 747.1 21.2 C 747.1 22.8 747.2 22.9 749.5 23.1 C 749.49 23.07 749.5 24 749.5 24 L 741.7 24 C 741.7 24 741.68 23.07 741.7 23.1 C 744 22.9 744.1 22.8 744.1 21.2 C 744.1 21.2 744.1 13.7 744.1 13.7 C 744.1 10.9 742.9 9.7 740.7 9.7 C 739 9.7 737.6 10.7 736.9 12 C 736.7 12.5 736.6 12.9 736.6 13.7 C 736.6 13.7 736.6 21.2 736.6 21.2 C 736.6 22.8 736.7 22.9 739 23.1 C 738.99 23.07 739 24 739 24 L 731.2 24 C 731.2 24 731.19 23.07 731.2 23.1 Z M 755.3 23.6 C 755.3 23.6 755.3 23.5 755.3 23.5 C 753.8 23.3 752.5 22.1 752.5 21 C 752.5 19.7 753.7 18.8 755.4 18.1 C 755.4 18.1 755.4 18.1 755.4 18.1 C 754 17.7 752 16.3 752 13.3 C 752 10.9 753.7 7.9 758.6 7.9 C 760.1 7.9 761.8 8.3 762.7 8.9 C 762.74 8.93 766.8 7.6 766.8 7.6 L 767.1 7.9 L 766.4 9.9 C 766.4 9.9 763.92 10.3 763.9 10.3 C 764.5 10.8 764.9 12 764.9 13.3 C 764.9 17.2 761.5 18.5 758.4 18.5 C 758.1 18.5 757.4 18.5 756.8 18.4 C 756.4 18.6 755.2 19.1 755.2 20 C 755.2 20.6 755.5 21.4 757.8 21.4 C 757.8 21.4 760.4 21.4 760.4 21.4 C 763.8 21.4 766.5 22.6 766.5 26 C 766.5 28 765.5 29.5 764 30.4 C 762.5 31.4 760.5 31.7 758.5 31.7 C 754.8 31.7 751.6 30.3 751.6 27.1 C 751.6 24.8 753.9 24 755.3 23.6 Z M 759.3 30.6 C 761.6 30.6 763.9 29.4 763.9 26.8 C 763.9 24.4 761.8 23.8 759 23.8 C 757.4 23.8 756.4 24 755.7 24.5 C 755 25 754.7 25.8 754.7 26.9 C 754.7 29.2 756.6 30.6 759.3 30.6 Z M 758.5 17.4 C 760.4 17.4 761.8 16 761.8 13.3 C 761.8 10.2 760.2 9.1 758.6 9.1 C 756.9 9.1 755.2 10.1 755.2 13.3 C 755.2 16 756.8 17.4 758.5 17.4 Z M 769.6 14.8 L 777.5 14.8 L 777.5 17.1 L 769.6 17.1 L 769.6 14.8 Z " stroke="none" fill="#000"/>
  </g>
</svg>