<?xml version="1.0" standalone="no"?>
<!DOCTYPE svg PUBLIC "-//W3C//DTD SVG 1.1//EN" "http://www.w3.org/Graphics/SVG/1.1/DTD/svg11.dtd">
<svg xmlns="http://www.w3.org/2000/svg" version="1.1" width="27px" height="24.8px" viewBox="0 -5 27 24.8" style="top:-5px">
  <desc>8</desc>
  <defs/>
  <g id="Polygon22423">
    <path d="M 0.6 8.6 C 0.6 6.9 1.9 5.8 3.4 5.2 C 2.1 4.6 1.2 3.7 1.2 2.5 C 1.2 1.3 2.2 -0.3 4.8 -0.3 C 6.6 -0.3 7.8 0.6 7.8 2 C 7.8 3.6 6.5 4.5 5.6 4.8 C 6.7 5.4 8.4 6.3 8.4 8.2 C 8.4 9.9 6.9 11.5 4.4 11.5 C 2.2 11.5 0.6 10.4 0.6 8.6 Z M 4.5 10.8 C 5.7 10.8 6.6 9.9 6.6 8.6 C 6.6 7.1 5.4 6.3 4.1 5.6 C 3.3 6 2.3 6.9 2.3 8.5 C 2.3 9.8 3.3 10.8 4.5 10.8 Z M 4.6 0.4 C 3.3 0.4 2.8 1.3 2.8 2.2 C 2.8 3.1 3.4 3.7 4.8 4.5 C 5.2 4.3 6.3 3.7 6.3 2.2 C 6.3 1 5.5 0.4 4.6 0.4 Z " stroke="none" fill="#000"/>
  </g>
</svg>