<?xml version="1.0" standalone="no"?>
<!DOCTYPE svg PUBLIC "-//W3C//DTD SVG 1.1//EN" "http://www.w3.org/Graphics/SVG/1.1/DTD/svg11.dtd">
<svg xmlns="http://www.w3.org/2000/svg" version="1.1" width="792px" height="111px" viewBox="0 -18 792 111" style="top:-18px">
  <desc>KARTUNAN</desc>
  <defs/>
  <g id="Polygon29910">
    <path d="M 186.2 23.8 C 186.2 23.8 186.52 23.83 186.5 23.8 C 189 21.2 199.5 10.4 201.6 8 C 203.6 5.6 205.2 3.8 205.2 2.6 C 205.2 1.8 204.9 1.3 204.2 1.2 C 203.5 1 203.2 0.9 203.2 0.4 C 203.2 -0.1 203.6 -0.2 204.4 -0.2 C 205.9 -0.2 209.8 0 211.8 0 C 214 0 218 -0.2 220.2 -0.2 C 220.9 -0.2 221.4 -0.1 221.4 0.4 C 221.4 0.9 221.1 1.1 220.4 1.1 C 219.4 1.1 217.6 1.4 216.2 1.9 C 214 2.7 211.5 4.2 208.4 7.3 C 206.2 9.4 195.3 20.2 192.9 22.8 C 195.4 26.2 209.6 41.4 212.4 44.1 C 215.5 47.1 218.8 50.3 222.7 51.8 C 224.8 52.7 226.3 52.9 227.1 52.9 C 227.6 52.9 228.1 53.1 228.1 53.5 C 228.1 54 227.7 54.2 226.3 54.2 C 226.3 54.2 220.1 54.2 220.1 54.2 C 217.9 54.2 216.6 54.2 215.1 54.1 C 211.2 53.7 209.3 52.1 206.2 49.4 C 203 46.6 188.8 30 187.3 27.9 C 187.31 27.86 186.5 26.8 186.5 26.8 L 186.2 26.8 C 186.2 26.8 186.16 33.34 186.2 33.3 C 186.2 40 186.2 45.6 186.4 48.7 C 186.5 50.8 187.2 52.3 189 52.6 C 190 52.8 191.6 52.9 192.5 52.9 C 193.1 52.9 193.4 53.1 193.4 53.5 C 193.4 54 192.9 54.2 192.1 54.2 C 188 54.2 183.5 54 181.7 54 C 180 54 175.5 54.2 172.6 54.2 C 171.7 54.2 171.2 54 171.2 53.5 C 171.2 53.1 171.5 52.9 172.3 52.9 C 173.4 52.9 174.3 52.8 174.9 52.6 C 176.4 52.3 176.7 50.8 177 48.7 C 177.4 45.6 177.4 40 177.4 33.3 C 177.4 33.3 177.4 20.7 177.4 20.7 C 177.4 9.7 177.4 7.7 177.2 5.4 C 177.1 3 176.5 1.8 174.1 1.3 C 173.6 1.2 172.3 1.1 171.3 1.1 C 170.5 1.1 170.1 0.9 170.1 0.4 C 170.1 -0.1 170.6 -0.2 171.7 -0.2 C 175.5 -0.2 180 0 181.8 0 C 183.5 0 188 -0.2 190.5 -0.2 C 191.5 -0.2 192 -0.1 192 0.4 C 192 0.9 191.6 1.1 191 1.1 C 190.3 1.1 189.8 1.2 189 1.3 C 187 1.7 186.4 2.9 186.3 5.4 C 186.2 7.7 186.2 9.7 186.2 20.7 C 186.16 20.66 186.2 23.8 186.2 23.8 Z M 235.5 35.4 C 235.2 35.4 235 35.6 234.9 36 C 234.9 36 231 46.3 231 46.3 C 230.3 48.1 229.9 49.8 229.9 50.7 C 229.9 52 230.6 52.9 232.8 52.9 C 232.8 52.9 233.9 52.9 233.9 52.9 C 234.8 52.9 235 53.1 235 53.5 C 235 54.1 234.5 54.2 233.7 54.2 C 231.4 54.2 228.3 54 226.1 54 C 225.3 54 221.4 54.2 217.6 54.2 C 216.7 54.2 216.3 54.1 216.3 53.5 C 216.3 53.1 216.5 52.9 217.1 52.9 C 217.8 52.9 218.8 52.8 219.3 52.8 C 222.7 52.3 224 49.9 225.5 46.3 C 225.5 46.3 243.5 1.1 243.5 1.1 C 244.4 -1 244.8 -1.8 245.6 -1.8 C 246.2 -1.8 246.6 -1.2 247.4 0.5 C 249.1 4.5 260.6 33.8 265.2 44.8 C 267.9 51.3 270 52.3 271.5 52.6 C 272.6 52.8 273.7 52.9 274.6 52.9 C 275.1 52.9 275.5 53 275.5 53.5 C 275.5 54.1 274.9 54.2 272.2 54.2 C 269.6 54.2 264.3 54.2 258.6 54.1 C 257.3 54 256.4 54 256.4 53.5 C 256.4 53.1 256.7 52.9 257.4 52.8 C 257.9 52.7 258.4 52.1 258.1 51.2 C 258.1 51.2 252.3 35.9 252.3 35.9 C 252.2 35.6 252 35.4 251.6 35.4 C 251.6 35.4 235.5 35.4 235.5 35.4 Z M 250.2 31.8 C 250.6 31.8 250.7 31.6 250.6 31.4 C 250.6 31.4 244.1 13.6 244.1 13.6 C 244 13.3 244 13 243.8 13 C 243.5 13 243.4 13.3 243.3 13.6 C 243.3 13.6 236.7 31.3 236.7 31.3 C 236.6 31.6 236.7 31.8 237 31.8 C 237 31.8 250.2 31.8 250.2 31.8 Z M 283.8 20.7 C 283.8 9.7 283.8 7.7 283.6 5.4 C 283.5 3 282.9 1.8 280.5 1.3 C 280 1.2 278.7 1.1 277.7 1.1 C 276.9 1.1 276.5 0.9 276.5 0.4 C 276.5 -0.1 277 -0.2 278.1 -0.2 C 281.9 -0.2 286.5 0 288 0 C 290.4 0 295.9 -0.2 298.1 -0.2 C 302.7 -0.2 307.5 0.2 311.4 2.9 C 313.4 4.2 316.3 7.9 316.3 12.7 C 316.3 18.1 314 23 306.8 28.9 C 313.2 36.9 318.1 43.3 322.4 47.8 C 326.4 52 329.4 52.5 330.4 52.7 C 331.2 52.8 331.9 52.9 332.5 52.9 C 333 52.9 333.3 53.1 333.3 53.5 C 333.3 54.1 332.8 54.2 332 54.2 C 332 54.2 325.1 54.2 325.1 54.2 C 321.1 54.2 319.3 53.9 317.4 52.8 C 314.3 51.2 311.6 47.8 307.5 42.3 C 304.7 38.3 301.4 33.4 300.4 32.3 C 300.1 31.9 299.6 31.8 299.1 31.8 C 299.1 31.8 292.9 31.7 292.9 31.7 C 292.5 31.7 292.3 31.8 292.3 32.3 C 292.3 32.3 292.3 33.3 292.3 33.3 C 292.3 40 292.3 45.6 292.6 48.7 C 292.9 50.8 293.3 52.3 295.5 52.6 C 296.5 52.8 298.1 52.9 299 52.9 C 299.6 52.9 299.8 53.1 299.8 53.5 C 299.8 54 299.3 54.2 298.4 54.2 C 294.2 54.2 288.9 54 287.8 54 C 286.5 54 281.9 54.2 279 54.2 C 278.1 54.2 277.6 54 277.6 53.5 C 277.6 53.1 277.9 52.9 278.7 52.9 C 279.8 52.9 280.7 52.8 281.3 52.6 C 282.8 52.3 283.1 50.8 283.4 48.7 C 283.8 45.6 283.8 40 283.8 33.3 C 283.8 33.3 283.8 20.7 283.8 20.7 Z M 292.3 26.4 C 292.3 27.1 292.4 27.4 292.9 27.6 C 294.4 28.2 296.6 28.4 298.4 28.4 C 301.3 28.4 302.2 28.1 303.5 27.1 C 305.7 25.6 307.8 22.2 307.8 16.3 C 307.8 6.1 301 3.2 296.7 3.2 C 294.9 3.2 293.7 3.2 292.9 3.5 C 292.4 3.6 292.3 3.9 292.3 4.5 C 292.3 4.5 292.3 26.4 292.3 26.4 Z M 345.7 3.8 C 345.7 3.8 334.98 4.1 335 4.1 C 330.8 4.2 329.1 4.6 328 6.2 C 327.3 7.3 326.9 8.1 326.8 8.7 C 326.6 9.3 326.4 9.6 326 9.6 C 325.5 9.6 325.3 9.2 325.3 8.4 C 325.3 7.3 326.7 0.7 326.8 0.1 C 327.1 -0.8 327.3 -1.2 327.7 -1.2 C 328.3 -1.2 329 -0.5 330.8 -0.4 C 332.9 -0.1 335.6 0 338 0 C 338 0 366.5 0 366.5 0 C 368.8 0 370.4 -0.2 371.5 -0.4 C 372.6 -0.6 373.1 -0.7 373.4 -0.7 C 373.9 -0.7 374 -0.3 374 0.8 C 374 2.3 373.8 7.3 373.8 9.1 C 373.7 9.9 373.6 10.3 373.1 10.3 C 372.6 10.3 372.4 9.9 372.3 8.9 C 372.3 8.9 372.3 8.1 372.3 8.1 C 372.1 6.2 370.2 4.2 363.8 4 C 363.78 4.03 354.7 3.8 354.7 3.8 C 354.7 3.8 354.71 33.34 354.7 33.3 C 354.7 40 354.7 45.6 355.1 48.7 C 355.3 50.8 355.7 52.3 357.9 52.6 C 358.9 52.8 360.5 52.9 361.5 52.9 C 362.3 52.9 362.7 53.1 362.7 53.5 C 362.7 54 362.1 54.2 361.3 54.2 C 356.6 54.2 352 54 350 54 C 348.4 54 343.8 54.2 341 54.2 C 340 54.2 339.5 54 339.5 53.5 C 339.5 53.1 339.8 52.9 340.7 52.9 C 341.7 52.9 342.6 52.8 343.3 52.6 C 344.7 52.3 345.1 50.8 345.3 48.7 C 345.7 45.6 345.7 40 345.7 33.3 C 345.71 33.34 345.7 3.8 345.7 3.8 Z M 384.9 20.7 C 384.9 9.7 384.9 7.7 384.7 5.4 C 384.6 3 384 1.8 381.6 1.3 C 381.1 1.2 379.8 1.1 378.8 1.1 C 378 1.1 377.6 0.9 377.6 0.4 C 377.6 -0.1 378.1 -0.2 379.2 -0.2 C 383 -0.2 387.5 0 389.7 0 C 391.4 0 396 -0.2 398.6 -0.2 C 399.6 -0.2 400.1 -0.1 400.1 0.4 C 400.1 0.9 399.7 1.1 399 1.1 C 398.2 1.1 397.8 1.2 396.9 1.3 C 395 1.7 394.4 2.9 394.2 5.4 C 394.1 7.7 394.1 9.7 394.1 20.7 C 394.1 20.7 394.1 30.7 394.1 30.7 C 394.1 41.2 396.2 45.6 399.7 48.5 C 402.9 51.1 406.3 51.4 408.7 51.4 C 411.9 51.4 415.8 50.4 418.6 47.5 C 422.6 43.6 422.8 37.1 422.8 29.7 C 422.8 29.7 422.8 20.7 422.8 20.7 C 422.8 9.7 422.8 7.7 422.7 5.4 C 422.5 3 422 1.8 419.6 1.3 C 419 1.2 417.8 1.1 417 1.1 C 416.2 1.1 415.8 0.9 415.8 0.4 C 415.8 -0.1 416.3 -0.2 417.3 -0.2 C 420.9 -0.2 425.5 0 425.6 0 C 426.4 0 431 -0.2 433.8 -0.2 C 434.8 -0.2 435.3 -0.1 435.3 0.4 C 435.3 0.9 434.8 1.1 434 1.1 C 433.2 1.1 432.8 1.2 431.9 1.3 C 429.9 1.7 429.4 2.9 429.2 5.4 C 429.1 7.7 429.1 9.7 429.1 20.7 C 429.1 20.7 429.1 28.4 429.1 28.4 C 429.1 36.4 428.3 44.9 422.2 50 C 417.1 54.4 411.9 55.2 407.3 55.2 C 403.5 55.2 396.5 55 391.3 50.3 C 387.6 46.9 384.9 41.6 384.9 31.2 C 384.9 31.2 384.9 20.7 384.9 20.7 Z M 454.1 44.4 C 454.2 50 455.1 51.9 456.6 52.4 C 457.8 52.8 459.2 52.9 460.3 52.9 C 461.1 52.9 461.6 53.1 461.6 53.5 C 461.6 54.1 460.9 54.2 459.9 54.2 C 455.2 54.2 452.3 54 451 54 C 450.3 54 446.9 54.2 443.2 54.2 C 442.3 54.2 441.6 54.1 441.6 53.5 C 441.6 53.1 442 52.9 442.8 52.9 C 443.7 52.9 445 52.8 446 52.6 C 447.9 52 448.2 49.9 448.2 43.6 C 448.2 43.6 448.9 1 448.9 1 C 448.9 -0.4 449.1 -1.4 449.8 -1.4 C 450.6 -1.4 451.3 -0.5 452.5 0.8 C 453.3 1.7 464.3 13.5 474.8 23.9 C 479.7 28.8 489.4 39.2 490.6 40.3 C 490.64 40.32 491 40.3 491 40.3 C 491 40.3 490.28 7.99 490.3 8 C 490.2 3.6 489.6 2.2 487.8 1.5 C 486.8 1.1 485 1.1 484 1.1 C 483.2 1.1 482.9 0.9 482.9 0.4 C 482.9 -0.1 483.7 -0.2 484.7 -0.2 C 488.5 -0.2 491.9 0 493.5 0 C 494.2 0 497 -0.2 500.5 -0.2 C 501.4 -0.2 502.2 -0.1 502.2 0.4 C 502.2 0.9 501.7 1.1 500.9 1.1 C 500.1 1.1 499.6 1.1 498.7 1.3 C 496.7 1.9 496.1 3.4 496 7.4 C 496 7.4 495.3 52.8 495.3 52.8 C 495.3 54.4 495 55.1 494.3 55.1 C 493.5 55.1 492.7 54.3 491.9 53.5 C 487.3 49.2 478.1 39.7 470.6 32.3 C 462.8 24.6 454.8 15.6 453.5 14.2 C 453.49 14.18 453.3 14.2 453.3 14.2 C 453.3 14.2 454.07 44.42 454.1 44.4 Z M 521.8 35.4 C 521.5 35.4 521.3 35.6 521.2 36 C 521.2 36 517.3 46.3 517.3 46.3 C 516.6 48.1 516.2 49.8 516.2 50.7 C 516.2 52 516.9 52.9 519.1 52.9 C 519.1 52.9 520.2 52.9 520.2 52.9 C 521 52.9 521.2 53.1 521.2 53.5 C 521.2 54.1 520.8 54.2 520 54.2 C 517.7 54.2 514.6 54 512.4 54 C 511.6 54 507.6 54.2 503.9 54.2 C 503 54.2 502.5 54.1 502.5 53.5 C 502.5 53.1 502.8 52.9 503.4 52.9 C 504 52.9 505 52.8 505.6 52.8 C 508.9 52.3 510.3 49.9 511.7 46.3 C 511.7 46.3 529.8 1.1 529.8 1.1 C 530.7 -1 531.1 -1.8 531.8 -1.8 C 532.5 -1.8 532.9 -1.2 533.6 0.5 C 535.4 4.5 546.9 33.8 551.5 44.8 C 554.2 51.3 556.3 52.3 557.8 52.6 C 558.9 52.8 560 52.9 560.8 52.9 C 561.4 52.9 561.8 53 561.8 53.5 C 561.8 54.1 561.1 54.2 558.5 54.2 C 555.9 54.2 550.6 54.2 544.9 54.1 C 543.6 54 542.7 54 542.7 53.5 C 542.7 53.1 543 52.9 543.7 52.8 C 544.2 52.7 544.7 52.1 544.4 51.2 C 544.4 51.2 538.6 35.9 538.6 35.9 C 538.5 35.6 538.2 35.4 537.9 35.4 C 537.9 35.4 521.8 35.4 521.8 35.4 Z M 536.5 31.8 C 536.9 31.8 536.9 31.6 536.9 31.4 C 536.9 31.4 530.4 13.6 530.4 13.6 C 530.3 13.3 530.2 13 530 13 C 529.8 13 529.7 13.3 529.6 13.6 C 529.6 13.6 523 31.3 523 31.3 C 522.9 31.6 523 31.8 523.3 31.8 C 523.3 31.8 536.5 31.8 536.5 31.8 Z M 574.1 44.4 C 574.2 50 575.2 51.9 576.6 52.4 C 577.8 52.8 579.2 52.9 580.4 52.9 C 581.1 52.9 581.6 53.1 581.6 53.5 C 581.6 54.1 580.9 54.2 579.9 54.2 C 575.2 54.2 572.4 54 571 54 C 570.3 54 567 54.2 563.2 54.2 C 562.3 54.2 561.6 54.1 561.6 53.5 C 561.6 53.1 562.1 52.9 562.8 52.9 C 563.7 52.9 565 52.8 566 52.6 C 567.9 52 568.2 49.9 568.3 43.6 C 568.3 43.6 568.9 1 568.9 1 C 568.9 -0.4 569.1 -1.4 569.8 -1.4 C 570.6 -1.4 571.3 -0.5 572.5 0.8 C 573.4 1.7 584.3 13.5 594.8 23.9 C 599.7 28.8 609.4 39.2 610.7 40.3 C 610.67 40.32 611 40.3 611 40.3 C 611 40.3 610.31 7.99 610.3 8 C 610.2 3.6 609.6 2.2 607.9 1.5 C 606.8 1.1 605.1 1.1 604 1.1 C 603.2 1.1 602.9 0.9 602.9 0.4 C 602.9 -0.1 603.7 -0.2 604.8 -0.2 C 608.5 -0.2 612 0 613.5 0 C 614.3 0 617 -0.2 620.5 -0.2 C 621.5 -0.2 622.2 -0.1 622.2 0.4 C 622.2 0.9 621.8 1.1 620.9 1.1 C 620.2 1.1 619.6 1.1 618.7 1.3 C 616.7 1.9 616.1 3.4 616.1 7.4 C 616.1 7.4 615.3 52.8 615.3 52.8 C 615.3 54.4 615 55.1 614.3 55.1 C 613.5 55.1 612.7 54.3 611.9 53.5 C 607.4 49.2 598.1 39.7 590.7 32.3 C 582.8 24.6 574.8 15.6 573.5 14.2 C 573.51 14.18 573.3 14.2 573.3 14.2 C 573.3 14.2 574.09 44.42 574.1 44.4 Z " stroke="none" fill="#000"/>
  </g>
</svg>