<?xml version="1.0" standalone="no"?>
<!DOCTYPE svg PUBLIC "-//W3C//DTD SVG 1.1//EN" "http://www.w3.org/Graphics/SVG/1.1/DTD/svg11.dtd">
<svg xmlns="http://www.w3.org/2000/svg" version="1.1" width="354.3px" height="18.5px" viewBox="0 -3 354.3 18.5" style="top:-3px">
  <desc>JOHN David Avellaneda, Margarita Cortez, Maui Magat, at MARK Lyndon Mengote</desc>
  <defs/>
  <g id="Polygon27208">
    <path d="M 6.9 0.3 C 6.9 0.3 6.93 4.07 6.9 4.1 C 6.9 4.6 6.8 5 6.5 5.3 C 6.3 5.6 5.9 5.7 5.3 5.7 C 5 5.7 4.7 5.7 4.4 5.6 C 4.4 5.6 4.4 4.6 4.4 4.6 C 4.7 4.6 4.9 4.6 5.1 4.6 C 5.2 4.6 5.3 4.6 5.4 4.5 C 5.5 4.5 5.6 4.4 5.6 4.3 C 5.7 4.3 5.7 4.1 5.7 3.9 C 5.69 3.92 5.7 0.3 5.7 0.3 L 6.9 0.3 Z M 10.3 5.7 C 9.6 5.7 9 5.4 8.6 4.9 C 8.2 4.3 8 3.7 8 2.9 C 8 2.1 8.2 1.5 8.6 1 C 9 0.4 9.6 0.2 10.3 0.2 C 11.1 0.2 11.6 0.5 12 1 C 12.4 1.6 12.6 2.2 12.6 2.9 C 12.6 3.7 12.4 4.4 12 4.9 C 11.6 5.4 11 5.7 10.3 5.7 Z M 11.3 2.9 C 11.3 1.8 10.9 1.2 10.3 1.2 C 9.7 1.2 9.3 1.8 9.3 2.9 C 9.3 4.1 9.7 4.7 10.3 4.7 C 10.9 4.7 11.3 4.1 11.3 2.9 C 11.3 2.9 11.3 2.9 11.3 2.9 Z M 17.8 0.3 L 17.8 5.6 L 16.6 5.6 L 16.6 3.4 L 14.9 3.4 L 14.9 5.6 L 13.7 5.6 L 13.7 0.3 L 14.9 0.3 L 14.9 2.3 L 16.6 2.3 L 16.6 0.3 L 17.8 0.3 Z M 23.3 0.3 L 23.3 5.6 L 22.2 5.6 C 22.2 5.6 20.16 2 20.2 2 C 20.2 2.1 20.2 2.2 20.2 2.2 C 20.2 2.3 20.2 2.3 20.2 2.4 C 20.18 2.41 20.2 5.6 20.2 5.6 L 19.2 5.6 L 19.2 0.3 L 20.6 0.3 C 20.6 0.3 22.37 3.41 22.4 3.4 C 22.4 3.3 22.3 3.1 22.3 3.1 C 22.35 3.06 22.3 0.3 22.3 0.3 L 23.3 0.3 Z M 27 0.3 C 27 0.3 28.65 0.27 28.6 0.3 C 29.3 0.3 29.8 0.4 30.1 0.5 C 30.5 0.7 30.7 1 31 1.4 C 31.3 1.8 31.4 2.3 31.4 2.9 C 31.4 3.7 31.2 4.3 30.7 4.8 C 30.3 5.3 29.6 5.6 28.9 5.6 C 28.86 5.6 27 5.6 27 5.6 L 27 0.3 Z M 28.2 1.3 L 28.2 4.6 C 28.2 4.6 28.76 4.6 28.8 4.6 C 29.2 4.6 29.6 4.4 29.8 4.1 C 30 3.7 30.1 3.3 30.1 2.9 C 30.1 2.6 30 2.3 29.9 2 C 29.8 1.7 29.6 1.5 29.4 1.4 C 29.3 1.3 29 1.3 28.8 1.3 C 28.77 1.25 28.2 1.3 28.2 1.3 Z M 35 0.3 L 36.6 5.6 L 35.3 5.6 L 35 4.5 L 33.2 4.5 L 32.9 5.6 L 31.8 5.6 L 33.5 0.3 L 35 0.3 Z M 33.5 3.5 L 34.7 3.5 L 34.1 1.6 L 33.5 3.5 Z M 41.2 0.3 L 39.6 5.6 L 38.3 5.6 L 36.7 0.3 L 38 0.3 L 39.1 4.1 L 40.2 0.3 L 41.2 0.3 Z M 43.3 0.3 L 43.3 5.6 L 42 5.6 L 42 0.3 L 43.3 0.3 Z M 44.7 0.3 C 44.7 0.3 46.3 0.27 46.3 0.3 C 47 0.3 47.5 0.4 47.8 0.5 C 48.1 0.7 48.4 1 48.7 1.4 C 48.9 1.8 49 2.3 49 2.9 C 49 3.7 48.8 4.3 48.4 4.8 C 47.9 5.3 47.3 5.6 46.5 5.6 C 46.51 5.6 44.7 5.6 44.7 5.6 L 44.7 0.3 Z M 45.9 1.3 L 45.9 4.6 C 45.9 4.6 46.41 4.6 46.4 4.6 C 46.9 4.6 47.2 4.4 47.4 4.1 C 47.6 3.7 47.8 3.3 47.8 2.9 C 47.8 2.6 47.7 2.3 47.6 2 C 47.4 1.7 47.3 1.5 47.1 1.4 C 46.9 1.3 46.7 1.3 46.4 1.3 C 46.43 1.25 45.9 1.3 45.9 1.3 Z M 55.1 0.3 L 56.8 5.6 L 55.4 5.6 L 55.1 4.5 L 53.4 4.5 L 53.1 5.6 L 52 5.6 L 53.7 0.3 L 55.1 0.3 Z M 53.7 3.5 L 54.8 3.5 L 54.3 1.6 L 53.7 3.5 Z M 61.4 0.3 L 59.8 5.6 L 58.4 5.6 L 56.8 0.3 L 58.2 0.3 L 59.2 4.1 L 60.3 0.3 L 61.4 0.3 Z M 66 1.3 L 63.5 1.3 L 63.5 2.4 L 65.5 2.4 L 65.5 3.4 L 63.5 3.4 L 63.5 4.5 L 66 4.5 L 66 5.6 L 62.2 5.6 L 62.2 0.3 L 66 0.3 L 66 1.3 Z M 68.3 4.5 L 70.5 4.5 L 70.5 5.6 L 67.1 5.6 L 67.1 0.3 L 68.3 0.3 L 68.3 4.5 Z M 72.7 4.5 L 74.8 4.5 L 74.8 5.6 L 71.4 5.6 L 71.4 0.3 L 72.7 0.3 L 72.7 4.5 Z M 78.4 0.3 L 80.1 5.6 L 78.7 5.6 L 78.4 4.5 L 76.7 4.5 L 76.3 5.6 L 75.2 5.6 L 76.9 0.3 L 78.4 0.3 Z M 77 3.5 L 78.1 3.5 L 77.5 1.6 L 77 3.5 Z M 85 0.3 L 85 5.6 L 84 5.6 C 84 5.6 81.9 2 81.9 2 C 81.9 2.1 81.9 2.2 81.9 2.2 C 81.9 2.3 81.9 2.3 81.9 2.4 C 81.92 2.41 81.9 5.6 81.9 5.6 L 80.9 5.6 L 80.9 0.3 L 82.3 0.3 C 82.3 0.3 84.11 3.41 84.1 3.4 C 84.1 3.3 84.1 3.1 84.1 3.1 C 84.08 3.06 84.1 0.3 84.1 0.3 L 85 0.3 Z M 90.2 1.3 L 87.7 1.3 L 87.7 2.4 L 89.7 2.4 L 89.7 3.4 L 87.7 3.4 L 87.7 4.5 L 90.2 4.5 L 90.2 5.6 L 86.4 5.6 L 86.4 0.3 L 90.2 0.3 L 90.2 1.3 Z M 91.3 0.3 C 91.3 0.3 92.95 0.27 92.9 0.3 C 93.6 0.3 94.1 0.4 94.4 0.5 C 94.8 0.7 95 1 95.3 1.4 C 95.6 1.8 95.7 2.3 95.7 2.9 C 95.7 3.7 95.5 4.3 95 4.8 C 94.6 5.3 93.9 5.6 93.2 5.6 C 93.15 5.6 91.3 5.6 91.3 5.6 L 91.3 0.3 Z M 92.5 1.3 L 92.5 4.6 C 92.5 4.6 93.06 4.6 93.1 4.6 C 93.5 4.6 93.9 4.4 94.1 4.1 C 94.3 3.7 94.4 3.3 94.4 2.9 C 94.4 2.6 94.3 2.3 94.2 2 C 94.1 1.7 93.9 1.5 93.7 1.4 C 93.6 1.3 93.3 1.3 93.1 1.3 C 93.07 1.25 92.5 1.3 92.5 1.3 Z M 99.3 0.3 L 100.9 5.6 L 99.6 5.6 L 99.3 4.5 L 97.5 4.5 L 97.2 5.6 L 96.1 5.6 L 97.8 0.3 L 99.3 0.3 Z M 97.8 3.5 L 99 3.5 L 98.4 1.6 L 97.8 3.5 Z M 103.1 4.4 L 103.1 5.5 L 102.3 6.8 L 101.9 6.8 L 102.5 5.6 L 101.9 5.6 L 101.9 4.4 L 103.1 4.4 Z M 109.1 5.6 L 107.8 1.3 L 107.8 5.6 L 106.7 5.6 L 106.7 0.3 L 108.7 0.3 L 109.6 3.5 L 110.6 0.3 L 112.5 0.3 L 112.5 5.6 L 111.3 5.6 L 111.3 1.3 L 109.9 5.6 L 109.1 5.6 Z M 116.5 0.3 L 118.2 5.6 L 116.9 5.6 L 116.5 4.5 L 114.8 4.5 L 114.5 5.6 L 113.4 5.6 L 115.1 0.3 L 116.5 0.3 Z M 115.1 3.5 L 116.2 3.5 L 115.7 1.6 L 115.1 3.5 Z M 120.3 3.5 L 120.3 5.6 L 119.1 5.6 L 119.1 0.3 C 119.1 0.3 121.43 0.27 121.4 0.3 C 121.9 0.3 122.2 0.3 122.5 0.4 C 122.7 0.5 123 0.7 123.1 1 C 123.3 1.2 123.4 1.5 123.4 1.9 C 123.4 2.5 123.1 3 122.5 3.2 C 122.46 3.24 123.4 5.6 123.4 5.6 L 122.1 5.6 L 121.2 3.5 L 120.3 3.5 Z M 120.3 1.2 L 120.3 2.6 C 120.3 2.6 121.11 2.58 121.1 2.6 C 121.4 2.6 121.5 2.6 121.7 2.5 C 121.8 2.5 121.9 2.4 122 2.3 C 122 2.2 122.1 2 122.1 1.9 C 122.1 1.7 122 1.6 122 1.5 C 121.9 1.4 121.8 1.3 121.7 1.3 C 121.6 1.2 121.4 1.2 121.1 1.2 C 121.09 1.22 120.3 1.2 120.3 1.2 Z M 128.7 2.8 L 128.7 5.6 C 128.7 5.6 128.14 5.6 128.1 5.6 C 128.1 5.4 128 5.2 128 5 C 127.6 5.5 127.1 5.7 126.5 5.7 C 125.8 5.7 125.3 5.4 124.9 4.9 C 124.5 4.4 124.3 3.8 124.3 3 C 124.3 2.2 124.5 1.5 124.9 1 C 125.3 0.4 125.9 0.2 126.6 0.2 C 127.2 0.2 127.7 0.4 128 0.7 C 128.4 1 128.6 1.5 128.7 2 C 128.7 2 127.5 2.2 127.5 2.2 C 127.4 1.5 127.1 1.2 126.6 1.2 C 126.3 1.2 126 1.4 125.8 1.7 C 125.7 2 125.6 2.4 125.6 3 C 125.6 3.5 125.7 3.9 125.9 4.2 C 126.1 4.5 126.3 4.7 126.7 4.7 C 126.9 4.7 127.1 4.6 127.3 4.4 C 127.4 4.3 127.5 4.1 127.5 3.7 C 127.53 3.75 126.5 3.7 126.5 3.7 L 126.5 2.8 L 128.7 2.8 Z M 132.7 0.3 L 134.4 5.6 L 133 5.6 L 132.7 4.5 L 131 4.5 L 130.6 5.6 L 129.5 5.6 L 131.2 0.3 L 132.7 0.3 Z M 131.3 3.5 L 132.4 3.5 L 131.8 1.6 L 131.3 3.5 Z M 136.5 3.5 L 136.5 5.6 L 135.2 5.6 L 135.2 0.3 C 135.2 0.3 137.59 0.27 137.6 0.3 C 138 0.3 138.4 0.3 138.6 0.4 C 138.9 0.5 139.1 0.7 139.3 1 C 139.5 1.2 139.5 1.5 139.5 1.9 C 139.5 2.5 139.2 3 138.6 3.2 C 138.62 3.24 139.6 5.6 139.6 5.6 L 138.2 5.6 L 137.4 3.5 L 136.5 3.5 Z M 136.5 1.2 L 136.5 2.6 C 136.5 2.6 137.27 2.58 137.3 2.6 C 137.5 2.6 137.7 2.6 137.8 2.5 C 137.9 2.5 138 2.4 138.1 2.3 C 138.2 2.2 138.3 2 138.3 1.9 C 138.3 1.7 138.2 1.6 138.1 1.5 C 138 1.4 137.9 1.3 137.8 1.3 C 137.7 1.2 137.5 1.2 137.2 1.2 C 137.25 1.22 136.5 1.2 136.5 1.2 Z M 142.1 0.3 L 142.1 5.6 L 140.8 5.6 L 140.8 0.3 L 142.1 0.3 Z M 146.8 0.3 L 146.8 1.3 L 145.5 1.3 L 145.5 5.6 L 144.3 5.6 L 144.3 1.3 L 142.9 1.3 L 142.9 0.3 L 146.8 0.3 Z M 149.9 0.3 L 151.6 5.6 L 150.3 5.6 L 149.9 4.5 L 148.2 4.5 L 147.9 5.6 L 146.8 5.6 L 148.5 0.3 L 149.9 0.3 Z M 148.5 3.5 L 149.6 3.5 L 149.1 1.6 L 148.5 3.5 Z M 157 0.2 C 158.2 0.2 159 0.9 159.1 2.3 C 159.1 2.3 157.8 2.3 157.8 2.3 C 157.8 1.6 157.5 1.2 156.9 1.2 C 156.3 1.2 156 1.8 156 2.9 C 156 3.6 156 4.1 156.2 4.3 C 156.4 4.5 156.6 4.7 157 4.7 C 157.5 4.7 157.8 4.3 157.9 3.7 C 157.9 3.7 159.1 3.7 159.1 3.7 C 159 4.4 158.8 4.9 158.4 5.2 C 158 5.5 157.5 5.7 157 5.7 C 156.2 5.7 155.7 5.4 155.2 5 C 154.8 4.5 154.6 3.8 154.6 2.9 C 154.6 2.1 154.8 1.5 155.2 1 C 155.6 0.4 156.2 0.2 157 0.2 C 157 0.2 157 0.2 157 0.2 Z M 162.2 5.7 C 161.4 5.7 160.9 5.4 160.5 4.9 C 160.1 4.3 159.9 3.7 159.9 2.9 C 159.9 2.1 160.1 1.5 160.5 1 C 160.9 0.4 161.5 0.2 162.2 0.2 C 163 0.2 163.5 0.5 163.9 1 C 164.3 1.6 164.5 2.2 164.5 2.9 C 164.5 3.7 164.3 4.4 163.9 4.9 C 163.5 5.4 162.9 5.7 162.2 5.7 Z M 163.2 2.9 C 163.2 1.8 162.8 1.2 162.2 1.2 C 161.5 1.2 161.2 1.8 161.2 2.9 C 161.2 4.1 161.5 4.7 162.2 4.7 C 162.8 4.7 163.2 4.1 163.2 2.9 C 163.2 2.9 163.2 2.9 163.2 2.9 Z M 166.9 3.5 L 166.9 5.6 L 165.6 5.6 L 165.6 0.3 C 165.6 0.3 167.94 0.27 167.9 0.3 C 168.4 0.3 168.7 0.3 169 0.4 C 169.2 0.5 169.5 0.7 169.6 1 C 169.8 1.2 169.9 1.5 169.9 1.9 C 169.9 2.5 169.6 3 169 3.2 C 168.97 3.24 169.9 5.6 169.9 5.6 L 168.6 5.6 L 167.8 3.5 L 166.9 3.5 Z M 166.9 1.2 L 166.9 2.6 C 166.9 2.6 167.62 2.58 167.6 2.6 C 167.9 2.6 168.1 2.6 168.2 2.5 C 168.3 2.5 168.4 2.4 168.5 2.3 C 168.6 2.2 168.6 2 168.6 1.9 C 168.6 1.7 168.6 1.6 168.5 1.5 C 168.4 1.4 168.3 1.3 168.2 1.3 C 168.1 1.2 167.9 1.2 167.6 1.2 C 167.59 1.22 166.9 1.2 166.9 1.2 Z M 174.6 0.3 L 174.6 1.3 L 173.2 1.3 L 173.2 5.6 L 172 5.6 L 172 1.3 L 170.6 1.3 L 170.6 0.3 L 174.6 0.3 Z M 179.2 1.3 L 176.7 1.3 L 176.7 2.4 L 178.7 2.4 L 178.7 3.4 L 176.7 3.4 L 176.7 4.5 L 179.2 4.5 L 179.2 5.6 L 175.4 5.6 L 175.4 0.3 L 179.2 0.3 L 179.2 1.3 Z M 184.1 1.2 L 181.4 4.6 L 184.2 4.6 L 184.2 5.6 L 179.9 5.6 L 179.9 4.7 L 182.6 1.3 L 180.1 1.3 L 180.1 0.3 L 184.1 0.3 L 184.1 1.2 Z M 186.3 4.4 L 186.3 5.5 L 185.6 6.8 L 185.1 6.8 L 185.7 5.6 L 185.1 5.6 L 185.1 4.4 L 186.3 4.4 Z M 192.3 5.6 L 191 1.3 L 191 5.6 L 189.9 5.6 L 189.9 0.3 L 191.9 0.3 L 192.8 3.5 L 193.8 0.3 L 195.7 0.3 L 195.7 5.6 L 194.5 5.6 L 194.5 1.3 L 193.1 5.6 L 192.3 5.6 Z M 199.8 0.3 L 201.4 5.6 L 200.1 5.6 L 199.7 4.5 L 198 4.5 L 197.7 5.6 L 196.6 5.6 L 198.3 0.3 L 199.8 0.3 Z M 198.3 3.5 L 199.5 3.5 L 198.9 1.6 L 198.3 3.5 Z M 206.4 0.3 C 206.4 0.3 206.37 3.59 206.4 3.6 C 206.4 4.1 206.3 4.5 206.2 4.8 C 206.1 5 205.8 5.3 205.5 5.4 C 205.2 5.6 204.8 5.7 204.2 5.7 C 203.7 5.7 203.3 5.6 203 5.5 C 202.7 5.3 202.5 5.1 202.3 4.8 C 202.2 4.5 202.1 4.1 202.1 3.6 C 202.12 3.59 202.1 0.3 202.1 0.3 L 203.5 0.3 C 203.5 0.3 203.47 3.59 203.5 3.6 C 203.5 3.9 203.5 4.1 203.5 4.2 C 203.6 4.4 203.7 4.5 203.8 4.5 C 204 4.6 204.2 4.7 204.4 4.7 C 204.6 4.7 204.8 4.6 204.9 4.5 C 205.1 4.5 205.2 4.4 205.2 4.2 C 205.3 4.1 205.3 3.9 205.3 3.6 C 205.3 3.59 205.3 0.3 205.3 0.3 L 206.4 0.3 Z M 208.9 0.3 L 208.9 5.6 L 207.7 5.6 L 207.7 0.3 L 208.9 0.3 Z M 215 5.6 L 213.7 1.3 L 213.7 5.6 L 212.6 5.6 L 212.6 0.3 L 214.6 0.3 L 215.5 3.5 L 216.5 0.3 L 218.5 0.3 L 218.5 5.6 L 217.2 5.6 L 217.2 1.3 L 215.9 5.6 L 215 5.6 Z M 222.5 0.3 L 224.1 5.6 L 222.8 5.6 L 222.5 4.5 L 220.7 4.5 L 220.4 5.6 L 219.3 5.6 L 221 0.3 L 222.5 0.3 Z M 221 3.5 L 222.2 3.5 L 221.6 1.6 L 221 3.5 Z M 229 2.8 L 229 5.6 C 229 5.6 228.44 5.6 228.4 5.6 C 228.4 5.4 228.3 5.2 228.3 5 C 227.9 5.5 227.4 5.7 226.8 5.7 C 226.1 5.7 225.6 5.4 225.2 4.9 C 224.8 4.4 224.6 3.8 224.6 3 C 224.6 2.2 224.8 1.5 225.2 1 C 225.6 0.4 226.2 0.2 226.9 0.2 C 227.5 0.2 228 0.4 228.3 0.7 C 228.7 1 228.9 1.5 229 2 C 229 2 227.8 2.2 227.8 2.2 C 227.7 1.5 227.4 1.2 226.9 1.2 C 226.6 1.2 226.3 1.4 226.1 1.7 C 226 2 225.9 2.4 225.9 3 C 225.9 3.5 226 3.9 226.2 4.2 C 226.3 4.5 226.6 4.7 227 4.7 C 227.2 4.7 227.4 4.6 227.6 4.4 C 227.7 4.3 227.8 4.1 227.8 3.7 C 227.82 3.75 226.8 3.7 226.8 3.7 L 226.8 2.8 L 229 2.8 Z M 233 0.3 L 234.6 5.6 L 233.3 5.6 L 233 4.5 L 231.3 4.5 L 230.9 5.6 L 229.8 5.6 L 231.5 0.3 L 233 0.3 Z M 231.6 3.5 L 232.7 3.5 L 232.1 1.6 L 231.6 3.5 Z M 238.5 0.3 L 238.5 1.3 L 237.2 1.3 L 237.2 5.6 L 235.9 5.6 L 235.9 1.3 L 234.6 1.3 L 234.6 0.3 L 238.5 0.3 Z M 240.1 4.4 L 240.1 5.5 L 239.4 6.8 L 238.9 6.8 L 239.5 5.6 L 238.9 5.6 L 238.9 4.4 L 240.1 4.4 Z M 246.4 0.3 L 248 5.6 L 246.7 5.6 L 246.4 4.5 L 244.6 4.5 L 244.3 5.6 L 243.2 5.6 L 244.9 0.3 L 246.4 0.3 Z M 244.9 3.5 L 246.1 3.5 L 245.5 1.6 L 244.9 3.5 Z M 251.9 0.3 L 251.9 1.3 L 250.6 1.3 L 250.6 5.6 L 249.3 5.6 L 249.3 1.3 L 248 1.3 L 248 0.3 L 251.9 0.3 Z M 257.4 5.6 L 256.1 1.3 L 256.1 5.6 L 255.1 5.6 L 255.1 0.3 L 257 0.3 L 257.9 3.5 L 258.9 0.3 L 260.9 0.3 L 260.9 5.6 L 259.6 5.6 L 259.6 1.3 L 258.3 5.6 L 257.4 5.6 Z M 264.9 0.3 L 266.6 5.6 L 265.2 5.6 L 264.9 4.5 L 263.2 4.5 L 262.8 5.6 L 261.7 5.6 L 263.4 0.3 L 264.9 0.3 Z M 263.5 3.5 L 264.6 3.5 L 264 1.6 L 263.5 3.5 Z M 268.7 3.5 L 268.7 5.6 L 267.4 5.6 L 267.4 0.3 C 267.4 0.3 269.79 0.27 269.8 0.3 C 270.2 0.3 270.6 0.3 270.8 0.4 C 271.1 0.5 271.3 0.7 271.5 1 C 271.7 1.2 271.7 1.5 271.7 1.9 C 271.7 2.5 271.4 3 270.8 3.2 C 270.81 3.24 271.8 5.6 271.8 5.6 L 270.4 5.6 L 269.6 3.5 L 268.7 3.5 Z M 268.7 1.2 L 268.7 2.6 C 268.7 2.6 269.47 2.58 269.5 2.6 C 269.7 2.6 269.9 2.6 270 2.5 C 270.1 2.5 270.2 2.4 270.3 2.3 C 270.4 2.2 270.5 2 270.5 1.9 C 270.5 1.7 270.4 1.6 270.3 1.5 C 270.2 1.4 270.1 1.3 270 1.3 C 269.9 1.2 269.7 1.2 269.4 1.2 C 269.44 1.22 268.7 1.2 268.7 1.2 Z M 274.3 0.3 L 274.3 2.8 L 275.9 0.3 L 277.1 0.3 L 275.8 2.2 L 277.4 5.6 L 276.1 5.6 L 275 3.3 L 274.3 4.4 L 274.3 5.6 L 273 5.6 L 273 0.3 L 274.3 0.3 Z M 282 4.5 L 284.1 4.5 L 284.1 5.6 L 280.7 5.6 L 280.7 0.3 L 282 0.3 L 282 4.5 Z M 288.4 0.3 L 286.7 3.4 L 286.7 5.6 L 285.5 5.6 L 285.5 3.4 L 283.8 0.3 L 285.2 0.3 L 286.3 2.3 L 287.3 0.3 L 288.4 0.3 Z M 293.1 0.3 L 293.1 5.6 L 292.1 5.6 C 292.1 5.6 289.99 2 290 2 C 290 2.1 290 2.2 290 2.2 C 290 2.3 290 2.3 290 2.4 C 290.02 2.41 290 5.6 290 5.6 L 289 5.6 L 289 0.3 L 290.4 0.3 C 290.4 0.3 292.2 3.41 292.2 3.4 C 292.2 3.3 292.2 3.1 292.2 3.1 C 292.18 3.06 292.2 0.3 292.2 0.3 L 293.1 0.3 Z M 294.5 0.3 C 294.5 0.3 296.16 0.27 296.2 0.3 C 296.8 0.3 297.3 0.4 297.6 0.5 C 298 0.7 298.3 1 298.5 1.4 C 298.8 1.8 298.9 2.3 298.9 2.9 C 298.9 3.7 298.7 4.3 298.2 4.8 C 297.8 5.3 297.2 5.6 296.4 5.6 C 296.37 5.6 294.5 5.6 294.5 5.6 L 294.5 0.3 Z M 295.8 1.3 L 295.8 4.6 C 295.8 4.6 296.28 4.6 296.3 4.6 C 296.7 4.6 297.1 4.4 297.3 4.1 C 297.5 3.7 297.6 3.3 297.6 2.9 C 297.6 2.6 297.6 2.3 297.4 2 C 297.3 1.7 297.1 1.5 297 1.4 C 296.8 1.3 296.5 1.3 296.3 1.3 C 296.29 1.25 295.8 1.3 295.8 1.3 Z M 302 5.7 C 301.3 5.7 300.8 5.4 300.4 4.9 C 300 4.3 299.8 3.7 299.8 2.9 C 299.8 2.1 300 1.5 300.4 1 C 300.8 0.4 301.4 0.2 302.1 0.2 C 302.8 0.2 303.4 0.5 303.8 1 C 304.1 1.6 304.3 2.2 304.3 2.9 C 304.3 3.7 304.1 4.4 303.8 4.9 C 303.4 5.4 302.8 5.7 302 5.7 Z M 303 2.9 C 303 1.8 302.7 1.2 302.1 1.2 C 301.4 1.2 301.1 1.8 301.1 2.9 C 301.1 4.1 301.4 4.7 302.1 4.7 C 302.7 4.7 303 4.1 303 2.9 C 303 2.9 303 2.9 303 2.9 Z M 309.6 0.3 L 309.6 5.6 L 308.5 5.6 C 308.5 5.6 306.42 2 306.4 2 C 306.4 2.1 306.4 2.2 306.4 2.2 C 306.4 2.3 306.4 2.3 306.4 2.4 C 306.45 2.41 306.4 5.6 306.4 5.6 L 305.5 5.6 L 305.5 0.3 L 306.8 0.3 C 306.8 0.3 308.64 3.41 308.6 3.4 C 308.6 3.3 308.6 3.1 308.6 3.1 C 308.61 3.06 308.6 0.3 308.6 0.3 L 309.6 0.3 Z M 315.6 5.6 L 314.3 1.3 L 314.3 5.6 L 313.3 5.6 L 313.3 0.3 L 315.2 0.3 L 316.2 3.5 L 317.2 0.3 L 319.1 0.3 L 319.1 5.6 L 317.8 5.6 L 317.8 1.3 L 316.5 5.6 L 315.6 5.6 Z M 324.3 1.3 L 321.8 1.3 L 321.8 2.4 L 323.8 2.4 L 323.8 3.4 L 321.8 3.4 L 321.8 4.5 L 324.3 4.5 L 324.3 5.6 L 320.5 5.6 L 320.5 0.3 L 324.3 0.3 L 324.3 1.3 Z M 329.5 0.3 L 329.5 5.6 L 328.4 5.6 C 328.4 5.6 326.31 2 326.3 2 C 326.3 2.1 326.3 2.2 326.3 2.2 C 326.3 2.3 326.3 2.3 326.3 2.4 C 326.34 2.41 326.3 5.6 326.3 5.6 L 325.4 5.6 L 325.4 0.3 L 326.7 0.3 C 326.7 0.3 328.52 3.41 328.5 3.4 C 328.5 3.3 328.5 3.1 328.5 3.1 C 328.5 3.06 328.5 0.3 328.5 0.3 L 329.5 0.3 Z M 335 2.8 L 335 5.6 C 335 5.6 334.44 5.6 334.4 5.6 C 334.4 5.4 334.3 5.2 334.3 5 C 333.9 5.5 333.4 5.7 332.8 5.7 C 332.1 5.7 331.6 5.4 331.2 4.9 C 330.8 4.4 330.6 3.8 330.6 3 C 330.6 2.2 330.8 1.5 331.2 1 C 331.6 0.4 332.2 0.2 332.9 0.2 C 333.5 0.2 334 0.4 334.3 0.7 C 334.7 1 334.9 1.5 335 2 C 335 2 333.8 2.2 333.8 2.2 C 333.7 1.5 333.4 1.2 332.9 1.2 C 332.6 1.2 332.3 1.4 332.1 1.7 C 332 2 331.9 2.4 331.9 3 C 331.9 3.5 332 3.9 332.2 4.2 C 332.3 4.5 332.6 4.7 333 4.7 C 333.2 4.7 333.4 4.6 333.6 4.4 C 333.7 4.3 333.8 4.1 333.8 3.7 C 333.82 3.75 332.8 3.7 332.8 3.7 L 332.8 2.8 L 335 2.8 Z M 338.3 5.7 C 337.6 5.7 337 5.4 336.6 4.9 C 336.3 4.3 336.1 3.7 336.1 2.9 C 336.1 2.1 336.3 1.5 336.7 1 C 337.1 0.4 337.6 0.2 338.4 0.2 C 339.1 0.2 339.7 0.5 340 1 C 340.4 1.6 340.6 2.2 340.6 2.9 C 340.6 3.7 340.4 4.4 340 4.9 C 339.6 5.4 339.1 5.7 338.3 5.7 Z M 339.3 2.9 C 339.3 1.8 339 1.2 338.4 1.2 C 337.7 1.2 337.4 1.8 337.4 2.9 C 337.4 4.1 337.7 4.7 338.4 4.7 C 339 4.7 339.3 4.1 339.3 2.9 C 339.3 2.9 339.3 2.9 339.3 2.9 Z M 345.1 0.3 L 345.1 1.3 L 343.8 1.3 L 343.8 5.6 L 342.5 5.6 L 342.5 1.3 L 341.2 1.3 L 341.2 0.3 L 345.1 0.3 Z M 349.8 1.3 L 347.2 1.3 L 347.2 2.4 L 349.2 2.4 L 349.2 3.4 L 347.2 3.4 L 347.2 4.5 L 349.8 4.5 L 349.8 5.6 L 345.9 5.6 L 345.9 0.3 L 349.8 0.3 L 349.8 1.3 Z " stroke="none" fill="#000"/>
  </g>
</svg>