<?xml version="1.0" standalone="no"?>
<!DOCTYPE svg PUBLIC "-//W3C//DTD SVG 1.1//EN" "http://www.w3.org/Graphics/SVG/1.1/DTD/svg11.dtd">
<svg xmlns="http://www.w3.org/2000/svg" version="1.1" width="310px" height="73px" viewBox="0 -7 310 73" style="top:-7px">
  <desc>Para saan, hanggang kailan, sinong gagampan</desc>
  <defs/>
  <g id="Polygon18870">
    <path d="M 53.1 45.2 C 53.1 45.2 53.05 45.71 53.1 45.7 C 53.1 46.4 53.1 47 53.3 47.6 C 53.5 48.2 53.7 48.7 54.1 49.1 C 54.5 49.5 55.1 49.7 55.8 49.9 C 56.5 50.1 57.4 50.2 58.4 50.2 C 59.2 50.2 59.9 50.2 60.6 50 C 61.2 49.8 61.8 49.6 62.3 49.2 C 62.7 48.8 63.1 48.3 63.4 47.8 C 63.7 47.2 63.8 46.5 63.8 45.8 C 63.8 44.7 63.6 43.8 63.1 43.2 C 62.6 42.5 61.8 42 60.6 41.6 C 60.6 41.6 58.3 40.8 58.3 40.8 C 57.7 40.6 57.3 40.4 57.1 40.1 C 56.8 39.8 56.7 39.5 56.7 39.1 C 56.7 38.6 56.9 38.2 57.2 38 C 57.6 37.7 58 37.6 58.5 37.6 C 59.1 37.6 59.5 37.8 59.8 38.1 C 60 38.5 60.1 39 60.1 39.8 C 60.12 39.77 63.5 39.8 63.5 39.8 C 63.5 39.8 63.47 39.17 63.5 39.2 C 63.5 37.9 63.1 36.8 62.3 36.1 C 61.4 35.4 60.2 35 58.5 35 C 57.6 35 56.7 35.2 56.1 35.4 C 55.4 35.6 54.8 35.9 54.4 36.3 C 54 36.7 53.7 37.2 53.5 37.7 C 53.3 38.3 53.2 38.8 53.2 39.4 C 53.2 40.4 53.4 41.3 53.9 41.9 C 54.5 42.6 55.2 43.1 56.3 43.5 C 56.3 43.5 58.9 44.4 58.9 44.4 C 59.2 44.6 59.6 44.7 59.8 45 C 60.1 45.2 60.2 45.6 60.2 46.1 C 60.2 46.6 60.1 47.1 59.7 47.4 C 59.4 47.6 58.9 47.8 58.3 47.8 C 57.7 47.8 57.2 47.6 56.9 47.2 C 56.6 46.8 56.4 46.3 56.4 45.7 C 56.4 45.68 56.4 45.2 56.4 45.2 L 53.1 45.2 Z M 65.8 33.6 L 69.5 33.6 L 69.5 30.5 L 65.8 30.5 L 65.8 33.6 Z M 65.8 49.9 L 69.5 49.9 L 69.5 35.4 L 65.8 35.4 L 65.8 49.9 Z M 72.1 49.9 L 75.9 49.9 C 75.9 49.9 75.86 40.31 75.9 40.3 C 75.9 38.7 76.5 37.9 77.8 37.9 C 78.4 37.9 78.8 38.1 79.1 38.4 C 79.3 38.6 79.4 39.2 79.4 39.9 C 79.43 39.93 79.4 49.9 79.4 49.9 L 83.2 49.9 C 83.2 49.9 83.15 39.17 83.2 39.2 C 83.2 37.7 82.8 36.7 82.2 36 C 81.6 35.4 80.6 35 79.5 35 C 78.6 35 77.9 35.2 77.3 35.5 C 76.7 35.9 76.2 36.4 75.8 37.1 C 75.76 37.12 75.7 37.1 75.7 37.1 L 75.7 35.4 L 72.1 35.4 L 72.1 49.9 Z M 88.9 40.6 C 89 40 89.1 39.5 89.2 39 C 89.3 38.6 89.5 38.2 89.8 38 C 90.1 37.7 90.4 37.6 90.9 37.6 C 91.6 37.6 92.2 38 92.4 38.8 C 92.7 39.6 92.9 40.9 92.9 42.7 C 92.9 44.5 92.7 45.8 92.4 46.6 C 92.2 47.4 91.6 47.8 90.9 47.8 C 90.4 47.8 90.1 47.7 89.8 47.4 C 89.5 47.2 89.3 46.8 89.2 46.4 C 89.1 45.9 89 45.4 88.9 44.7 C 88.9 44.1 88.9 43.4 88.9 42.7 C 88.9 41.9 88.9 41.3 88.9 40.6 Z M 85.4 46 C 85.6 47 85.9 47.8 86.3 48.4 C 86.8 49.1 87.4 49.5 88.1 49.8 C 88.8 50.1 89.8 50.3 90.9 50.2 C 91.9 50.2 92.8 50.1 93.6 49.8 C 94.3 49.5 94.9 49 95.3 48.4 C 95.8 47.7 96.1 46.9 96.3 46 C 96.5 45 96.6 43.9 96.6 42.7 C 96.6 41.4 96.5 40.3 96.3 39.3 C 96.2 38.4 95.8 37.6 95.4 36.9 C 95 36.3 94.4 35.8 93.7 35.5 C 92.9 35.2 92 35 90.9 35 C 89.8 35 88.9 35.2 88.2 35.5 C 87.5 35.9 86.9 36.4 86.4 37 C 86 37.6 85.6 38.4 85.4 39.4 C 85.3 40.3 85.2 41.4 85.2 42.7 C 85.2 43.9 85.2 45.1 85.4 46 Z M 98.6 49.9 L 102.3 49.9 C 102.3 49.9 102.32 40.31 102.3 40.3 C 102.3 38.7 103 37.9 104.3 37.9 C 104.9 37.9 105.3 38.1 105.5 38.4 C 105.8 38.6 105.9 39.2 105.9 39.9 C 105.89 39.93 105.9 49.9 105.9 49.9 L 109.6 49.9 C 109.6 49.9 109.61 39.17 109.6 39.2 C 109.6 37.7 109.3 36.7 108.7 36 C 108 35.4 107.1 35 105.9 35 C 105.1 35 104.4 35.2 103.8 35.5 C 103.1 35.9 102.6 36.4 102.2 37.1 C 102.22 37.12 102.2 37.1 102.2 37.1 L 102.2 35.4 L 98.6 35.4 L 98.6 49.9 Z M 115.6 40.7 C 115.6 40 115.7 39.5 115.9 39.1 C 116 38.6 116.2 38.4 116.5 38.2 C 116.7 38 117.1 37.9 117.5 37.9 C 118.2 37.9 118.7 38.3 119 39 C 119.3 39.7 119.4 41 119.4 42.8 C 119.4 43.4 119.4 43.9 119.3 44.5 C 119.3 45 119.2 45.4 119 45.8 C 118.8 46.1 118.6 46.4 118.4 46.6 C 118.1 46.8 117.8 46.9 117.4 46.9 C 117 46.9 116.7 46.8 116.4 46.6 C 116.2 46.4 116 46.1 115.9 45.8 C 115.7 45.4 115.6 45 115.6 44.6 C 115.6 44.1 115.5 43.6 115.5 43.1 C 115.5 42.2 115.6 41.3 115.6 40.7 Z M 119.4 35.4 L 119.4 37 C 119.4 37 119.36 37.04 119.4 37 C 119 36.3 118.5 35.8 118 35.5 C 117.4 35.2 116.9 35 116.4 35 C 115.4 35 114.6 35.3 113.9 35.7 C 113.3 36.2 112.9 36.7 112.6 37.5 C 112.3 38.2 112 39 112 39.8 C 111.9 40.7 111.8 41.6 111.8 42.4 C 111.8 45.1 112.2 47 112.9 48.1 C 113.7 49.2 114.8 49.8 116.3 49.8 C 116.9 49.8 117.4 49.6 118 49.3 C 118.5 49 119 48.5 119.4 48 C 119.36 48 119.4 48 119.4 48 C 119.4 48 119.42 49.92 119.4 49.9 C 119.4 50.6 119.3 51.2 119 51.7 C 118.7 52.2 118.1 52.5 117.4 52.5 C 117.1 52.5 116.9 52.4 116.7 52.3 C 116.5 52.3 116.3 52.2 116.1 52.1 C 115.7 51.8 115.6 51.4 115.6 50.9 C 115.6 50.9 112 50.9 112 50.9 C 112 52.2 112.4 53.1 113.3 53.8 C 114.1 54.5 115.3 54.8 116.9 54.8 C 119.1 54.8 120.7 54.4 121.6 53.4 C 122.5 52.5 123 51.1 123 49.2 C 122.98 49.22 123 35.4 123 35.4 L 119.4 35.4 Z M 135.6 40.7 C 135.6 40 135.7 39.5 135.9 39.1 C 136 38.6 136.2 38.4 136.5 38.2 C 136.7 38 137 37.9 137.5 37.9 C 138.2 37.9 138.7 38.3 139 39 C 139.3 39.7 139.4 41 139.4 42.8 C 139.4 43.4 139.4 43.9 139.3 44.5 C 139.2 45 139.1 45.4 139 45.8 C 138.8 46.1 138.6 46.4 138.4 46.6 C 138.1 46.8 137.8 46.9 137.4 46.9 C 137 46.9 136.7 46.8 136.4 46.6 C 136.2 46.4 136 46.1 135.8 45.8 C 135.7 45.4 135.6 45 135.6 44.6 C 135.5 44.1 135.5 43.6 135.5 43.1 C 135.5 42.2 135.5 41.3 135.6 40.7 Z M 139.4 35.4 L 139.4 37 C 139.4 37 139.34 37.04 139.3 37 C 139 36.3 138.5 35.8 138 35.5 C 137.4 35.2 136.9 35 136.3 35 C 135.3 35 134.5 35.3 133.9 35.7 C 133.3 36.2 132.9 36.7 132.6 37.5 C 132.2 38.2 132 39 131.9 39.8 C 131.8 40.7 131.8 41.6 131.8 42.4 C 131.8 45.1 132.2 47 132.9 48.1 C 133.6 49.2 134.8 49.8 136.2 49.8 C 136.8 49.8 137.4 49.6 138 49.3 C 138.5 49 139 48.5 139.3 48 C 139.34 48 139.4 48 139.4 48 C 139.4 48 139.4 49.92 139.4 49.9 C 139.4 50.6 139.2 51.2 138.9 51.7 C 138.6 52.2 138.1 52.5 137.3 52.5 C 137.1 52.5 136.9 52.4 136.7 52.3 C 136.5 52.3 136.3 52.2 136.1 52.1 C 135.7 51.8 135.5 51.4 135.5 50.9 C 135.5 50.9 132 50.9 132 50.9 C 132 52.2 132.4 53.1 133.3 53.8 C 134.1 54.5 135.3 54.8 136.9 54.8 C 139.1 54.8 140.6 54.4 141.6 53.4 C 142.5 52.5 143 51.1 143 49.2 C 142.96 49.22 143 35.4 143 35.4 L 139.4 35.4 Z M 152.4 45.5 C 152.4 45.9 152.3 46.3 152.1 46.6 C 152 46.9 151.8 47.1 151.6 47.3 C 151.4 47.5 151.1 47.6 150.8 47.7 C 150.6 47.7 150.3 47.8 150.1 47.8 C 149.6 47.8 149.2 47.6 149 47.2 C 148.8 46.8 148.7 46.3 148.7 45.8 C 148.7 45.1 148.8 44.6 149.1 44.2 C 149.5 43.8 150 43.6 150.8 43.4 C 151 43.4 151.3 43.3 151.5 43.2 C 151.8 43 152.1 42.9 152.4 42.7 C 152.4 42.7 152.4 45.5 152.4 45.5 Z M 148.9 39.9 C 148.9 39.9 148.9 39.47 148.9 39.5 C 148.9 38.9 149 38.4 149.3 38.1 C 149.6 37.8 150.1 37.6 150.6 37.6 C 151.3 37.6 151.7 37.7 152 38.1 C 152.2 38.4 152.4 38.8 152.4 39.4 C 152.4 39.8 152.2 40.2 152 40.5 C 151.8 40.7 151.4 40.9 150.9 41.1 C 150.9 41.1 148.8 41.6 148.8 41.6 C 148.1 41.8 147.6 42 147.1 42.3 C 146.6 42.5 146.3 42.8 146 43.1 C 145.7 43.5 145.5 43.9 145.3 44.4 C 145.2 44.9 145.1 45.5 145.1 46.2 C 145.1 46.7 145.2 47.1 145.3 47.6 C 145.4 48.1 145.6 48.6 145.9 49 C 146.1 49.4 146.5 49.7 147 49.9 C 147.4 50.1 148 50.2 148.6 50.2 C 149.5 50.2 150.2 50.1 150.8 49.9 C 151.4 49.7 151.9 49.2 152.3 48.4 C 152.3 48.4 152.4 48.4 152.4 48.4 C 152.4 48.7 152.5 48.9 152.5 49.2 C 152.6 49.5 152.7 49.7 152.8 49.9 C 152.8 49.9 156.4 49.9 156.4 49.9 C 156.2 49.5 156.1 49.1 156 48.7 C 156 48.4 155.9 47.8 155.9 47.1 C 155.9 47.1 155.9 39.5 155.9 39.5 C 155.9 38.8 155.9 38.3 155.7 37.7 C 155.6 37.2 155.3 36.7 154.9 36.3 C 154.6 35.9 154 35.6 153.4 35.4 C 152.7 35.2 151.8 35 150.7 35 C 150 35 149.3 35.1 148.7 35.3 C 148 35.4 147.5 35.7 147 36 C 146.6 36.4 146.2 36.8 146 37.4 C 145.7 38 145.6 38.7 145.6 39.5 C 145.55 39.52 145.6 39.9 145.6 39.9 L 148.9 39.9 Z M 162.1 40.7 C 162.1 40 162.2 39.5 162.3 39.1 C 162.5 38.6 162.7 38.4 162.9 38.2 C 163.2 38 163.5 37.9 163.9 37.9 C 164.7 37.9 165.2 38.3 165.5 39 C 165.7 39.7 165.9 41 165.9 42.8 C 165.9 43.4 165.9 43.9 165.8 44.5 C 165.7 45 165.6 45.4 165.5 45.8 C 165.3 46.1 165.1 46.4 164.8 46.6 C 164.6 46.8 164.3 46.9 163.9 46.9 C 163.5 46.9 163.1 46.8 162.9 46.6 C 162.7 46.4 162.5 46.1 162.3 45.8 C 162.2 45.4 162.1 45 162.1 44.6 C 162 44.1 162 43.6 162 43.1 C 162 42.2 162 41.3 162.1 40.7 Z M 165.9 35.4 L 165.9 37 C 165.9 37 165.83 37.04 165.8 37 C 165.5 36.3 165 35.8 164.5 35.5 C 163.9 35.2 163.4 35 162.8 35 C 161.8 35 161 35.3 160.4 35.7 C 159.8 36.2 159.4 36.7 159 37.5 C 158.7 38.2 158.5 39 158.4 39.8 C 158.3 40.7 158.3 41.6 158.3 42.4 C 158.3 45.1 158.6 47 159.4 48.1 C 160.1 49.2 161.2 49.8 162.7 49.8 C 163.3 49.8 163.9 49.6 164.4 49.3 C 165 49 165.5 48.5 165.8 48 C 165.83 48 165.9 48 165.9 48 C 165.9 48 165.88 49.92 165.9 49.9 C 165.9 50.6 165.7 51.2 165.4 51.7 C 165.1 52.2 164.6 52.5 163.8 52.5 C 163.6 52.5 163.4 52.4 163.2 52.3 C 163 52.3 162.8 52.2 162.6 52.1 C 162.2 51.8 162 51.4 162 50.9 C 162 50.9 158.5 50.9 158.5 50.9 C 158.5 52.2 158.9 53.1 159.7 53.8 C 160.6 54.5 161.8 54.8 163.4 54.8 C 165.6 54.8 167.1 54.4 168.1 53.4 C 169 52.5 169.4 51.1 169.4 49.2 C 169.45 49.22 169.4 35.4 169.4 35.4 L 165.9 35.4 Z M 178.8 45.5 C 178.8 45.9 178.8 46.3 178.6 46.6 C 178.5 46.9 178.3 47.1 178.1 47.3 C 177.8 47.5 177.6 47.6 177.3 47.7 C 177.1 47.7 176.8 47.8 176.5 47.8 C 176 47.8 175.7 47.6 175.5 47.2 C 175.3 46.8 175.1 46.3 175.1 45.8 C 175.1 45.1 175.3 44.6 175.6 44.2 C 176 43.8 176.5 43.6 177.2 43.4 C 177.5 43.4 177.7 43.3 178 43.2 C 178.3 43 178.6 42.9 178.8 42.7 C 178.8 42.7 178.8 45.5 178.8 45.5 Z M 175.4 39.9 C 175.4 39.9 175.39 39.47 175.4 39.5 C 175.4 38.9 175.5 38.4 175.8 38.1 C 176.1 37.8 176.5 37.6 177.1 37.6 C 177.7 37.6 178.2 37.7 178.5 38.1 C 178.7 38.4 178.8 38.8 178.8 39.4 C 178.8 39.8 178.7 40.2 178.5 40.5 C 178.3 40.7 177.9 40.9 177.4 41.1 C 177.4 41.1 175.3 41.6 175.3 41.6 C 174.6 41.8 174 42 173.6 42.3 C 173.1 42.5 172.8 42.8 172.5 43.1 C 172.2 43.5 171.9 43.9 171.8 44.4 C 171.7 44.9 171.6 45.5 171.6 46.2 C 171.6 46.7 171.6 47.1 171.8 47.6 C 171.9 48.1 172.1 48.6 172.4 49 C 172.6 49.4 173 49.7 173.4 49.9 C 173.9 50.1 174.4 50.2 175.1 50.2 C 176 50.2 176.7 50.1 177.3 49.9 C 177.9 49.7 178.4 49.2 178.8 48.4 C 178.8 48.4 178.8 48.4 178.8 48.4 C 178.9 48.7 179 48.9 179 49.2 C 179.1 49.5 179.2 49.7 179.3 49.9 C 179.3 49.9 182.9 49.9 182.9 49.9 C 182.7 49.5 182.6 49.1 182.5 48.7 C 182.4 48.4 182.4 47.8 182.4 47.1 C 182.4 47.1 182.4 39.5 182.4 39.5 C 182.4 38.8 182.3 38.3 182.2 37.7 C 182.1 37.2 181.8 36.7 181.4 36.3 C 181.1 35.9 180.5 35.6 179.8 35.4 C 179.2 35.2 178.3 35 177.1 35 C 176.4 35 175.8 35.1 175.2 35.3 C 174.5 35.4 174 35.7 173.5 36 C 173.1 36.4 172.7 36.8 172.4 37.4 C 172.2 38 172 38.7 172 39.5 C 172.04 39.52 172 39.9 172 39.9 L 175.4 39.9 Z M 185.1 49.9 L 188.8 49.9 C 188.8 49.9 188.78 40.39 188.8 40.4 C 188.8 39.5 189 38.9 189.3 38.5 C 189.7 38.1 190.1 37.9 190.7 37.9 C 191.2 37.9 191.6 38.1 191.8 38.4 C 192.1 38.7 192.2 39.2 192.2 39.8 C 192.18 39.79 192.2 49.9 192.2 49.9 L 195.9 49.9 C 195.9 49.9 195.91 40.39 195.9 40.4 C 195.9 39.5 196.1 38.9 196.4 38.5 C 196.8 38.1 197.3 37.9 197.8 37.9 C 198.4 37.9 198.7 38.1 199 38.4 C 199.2 38.7 199.3 39.2 199.3 39.8 C 199.31 39.79 199.3 49.9 199.3 49.9 L 203 49.9 C 203 49.9 203.03 39.39 203 39.4 C 203 38 202.7 36.9 202.2 36.2 C 201.6 35.4 200.7 35 199.4 35 C 198.5 35 197.8 35.2 197.1 35.6 C 196.5 36 196 36.6 195.7 37.4 C 195.7 37.4 195.7 37.4 195.7 37.4 C 195.5 36.6 195.1 36 194.5 35.6 C 193.9 35.2 193.2 35 192.3 35 C 191.5 35 190.8 35.2 190.2 35.5 C 189.7 35.8 189.1 36.2 188.7 36.9 C 188.67 36.91 188.6 36.9 188.6 36.9 L 188.6 35.4 L 185.1 35.4 L 185.1 49.9 Z M 205.5 54.6 L 209.2 54.6 L 209.2 48.6 C 209.2 48.6 209.3 48.6 209.3 48.6 C 209.7 49.2 210.1 49.6 210.6 49.9 C 211.1 50.1 211.7 50.2 212.4 50.2 C 214 50.2 215.1 49.7 215.8 48.5 C 216.5 47.3 216.9 45.4 216.9 42.7 C 216.9 40 216.5 38 215.8 36.8 C 215.1 35.6 214 35 212.4 35 C 211.7 35 211 35.2 210.5 35.5 C 210 35.8 209.5 36.3 209.1 37 C 209.14 36.96 209.1 37 209.1 37 L 209.1 35.4 L 205.5 35.4 L 205.5 54.6 Z M 209.6 39.1 C 209.9 38.3 210.4 37.9 211.2 37.9 C 212 37.9 212.6 38.3 212.8 39.1 C 213 39.9 213.2 41.1 213.2 42.7 C 213.2 44.3 213 45.5 212.8 46.3 C 212.6 47.1 212 47.5 211.2 47.5 C 210.4 47.5 209.9 47.1 209.6 46.3 C 209.4 45.5 209.2 44.3 209.2 42.7 C 209.2 41.1 209.4 39.9 209.6 39.1 Z M 225.8 45.5 C 225.8 45.9 225.7 46.3 225.6 46.6 C 225.4 46.9 225.3 47.1 225 47.3 C 224.8 47.5 224.6 47.6 224.3 47.7 C 224 47.7 223.8 47.8 223.5 47.8 C 223 47.8 222.6 47.6 222.4 47.2 C 222.2 46.8 222.1 46.3 222.1 45.8 C 222.1 45.1 222.3 44.6 222.6 44.2 C 222.9 43.8 223.4 43.6 224.2 43.4 C 224.4 43.4 224.7 43.3 225 43.2 C 225.3 43 225.5 42.9 225.8 42.7 C 225.8 42.7 225.8 45.5 225.8 45.5 Z M 222.3 39.9 C 222.3 39.9 222.34 39.47 222.3 39.5 C 222.3 38.9 222.5 38.4 222.8 38.1 C 223.1 37.8 223.5 37.6 224.1 37.6 C 224.7 37.6 225.1 37.7 225.4 38.1 C 225.7 38.4 225.8 38.8 225.8 39.4 C 225.8 39.8 225.7 40.2 225.5 40.5 C 225.3 40.7 224.9 40.9 224.3 41.1 C 224.3 41.1 222.2 41.6 222.2 41.6 C 221.6 41.8 221 42 220.5 42.3 C 220.1 42.5 219.7 42.8 219.4 43.1 C 219.1 43.5 218.9 43.9 218.7 44.4 C 218.6 44.9 218.5 45.5 218.5 46.2 C 218.5 46.7 218.6 47.1 218.7 47.6 C 218.8 48.1 219 48.6 219.3 49 C 219.6 49.4 219.9 49.7 220.4 49.9 C 220.8 50.1 221.4 50.2 222 50.2 C 222.9 50.2 223.7 50.1 224.2 49.9 C 224.8 49.7 225.3 49.2 225.7 48.4 C 225.7 48.4 225.8 48.4 225.8 48.4 C 225.8 48.7 225.9 48.9 226 49.2 C 226 49.5 226.1 49.7 226.3 49.9 C 226.3 49.9 229.8 49.9 229.8 49.9 C 229.6 49.5 229.5 49.1 229.5 48.7 C 229.4 48.4 229.4 47.8 229.4 47.1 C 229.4 47.1 229.4 39.5 229.4 39.5 C 229.4 38.8 229.3 38.3 229.2 37.7 C 229 37.2 228.8 36.7 228.4 36.3 C 228 35.9 227.5 35.6 226.8 35.4 C 226.1 35.2 225.2 35 224.1 35 C 223.4 35 222.7 35.1 222.1 35.3 C 221.5 35.4 220.9 35.7 220.5 36 C 220 36.4 219.7 36.8 219.4 37.4 C 219.1 38 219 38.7 219 39.5 C 218.99 39.52 219 39.9 219 39.9 L 222.3 39.9 Z M 232 49.9 L 235.7 49.9 C 235.7 49.9 235.73 40.31 235.7 40.3 C 235.7 38.7 236.4 37.9 237.7 37.9 C 238.3 37.9 238.7 38.1 238.9 38.4 C 239.2 38.6 239.3 39.2 239.3 39.9 C 239.29 39.93 239.3 49.9 239.3 49.9 L 243 49.9 C 243 49.9 243.02 39.17 243 39.2 C 243 37.7 242.7 36.7 242.1 36 C 241.4 35.4 240.5 35 239.3 35 C 238.5 35 237.8 35.2 237.2 35.5 C 236.5 35.9 236 36.4 235.6 37.1 C 235.62 37.12 235.6 37.1 235.6 37.1 L 235.6 35.4 L 232 35.4 L 232 49.9 Z M 248.6 46.4 L 248.6 49.9 L 252.4 49.9 L 252.4 46.4 L 248.6 46.4 Z M 248.8 36.6 C 248.8 36.6 248.8 35.96 248.8 36 C 248.8 35.1 248.9 34.4 249.2 33.8 C 249.5 33.3 250 33 250.7 33 C 251.3 33 251.8 33.2 252.1 33.6 C 252.4 34 252.6 34.6 252.6 35.3 C 252.6 35.8 252.5 36.3 252.3 36.8 C 252.2 37.3 251.9 37.7 251.5 38.1 C 251.5 38.1 250.5 39.3 250.5 39.3 C 249.9 40 249.5 40.6 249.2 41.3 C 249 41.9 248.8 42.6 248.8 43.5 C 248.83 43.55 248.8 44.6 248.8 44.6 L 252.2 44.6 C 252.2 44.6 252.17 44.2 252.2 44.2 C 252.2 43.5 252.3 43 252.5 42.5 C 252.7 42.1 253 41.6 253.5 41.1 C 253.5 41.1 254.6 39.9 254.6 39.9 C 255.2 39.1 255.7 38.4 255.9 37.8 C 256.2 37.1 256.3 36.4 256.3 35.7 C 256.3 34.1 255.8 32.8 254.9 31.9 C 253.9 30.9 252.5 30.5 250.6 30.5 C 249.7 30.5 248.9 30.6 248.2 30.9 C 247.6 31.2 247 31.5 246.6 32 C 246.1 32.5 245.8 33.1 245.6 33.8 C 245.3 34.5 245.2 35.2 245.2 36 C 245.23 36.01 245.2 36.6 245.2 36.6 L 248.8 36.6 Z " stroke="none" fill="#000"/>
  </g>
  <g id="Polygon18869">
    <path d="M 8.4 9.5 C 8.4 9.5 10.07 9.53 10.1 9.5 C 11 9.5 11.7 9.8 12.1 10.3 C 12.6 10.8 12.8 11.5 12.8 12.5 C 12.8 13.5 12.5 14.2 12.1 14.7 C 11.6 15.2 10.9 15.4 10.2 15.4 C 10.18 15.39 8.4 15.4 8.4 15.4 L 8.4 9.5 Z M 4.6 25.9 L 8.4 25.9 L 8.4 18.3 C 8.4 18.3 10.53 18.25 10.5 18.3 C 11.4 18.3 12.3 18.1 13 17.9 C 13.8 17.7 14.4 17.3 15 16.8 C 15.5 16.4 15.9 15.8 16.2 15 C 16.5 14.3 16.7 13.4 16.7 12.4 C 16.7 11.7 16.6 11 16.4 10.3 C 16.2 9.6 15.9 9 15.5 8.5 C 15.1 7.9 14.5 7.5 13.9 7.2 C 13.2 6.8 12.4 6.7 11.4 6.7 C 11.36 6.67 4.6 6.7 4.6 6.7 L 4.6 25.9 Z M 24.8 21.5 C 24.8 21.9 24.7 22.3 24.5 22.6 C 24.4 22.9 24.2 23.1 24 23.3 C 23.8 23.5 23.5 23.6 23.2 23.7 C 23 23.7 22.7 23.8 22.5 23.8 C 22 23.8 21.6 23.6 21.4 23.2 C 21.2 22.8 21.1 22.3 21.1 21.8 C 21.1 21.1 21.2 20.6 21.5 20.2 C 21.9 19.8 22.4 19.6 23.2 19.4 C 23.4 19.4 23.7 19.3 23.9 19.2 C 24.2 19 24.5 18.9 24.8 18.7 C 24.8 18.7 24.8 21.5 24.8 21.5 Z M 21.3 15.9 C 21.3 15.9 21.3 15.47 21.3 15.5 C 21.3 14.9 21.4 14.4 21.7 14.1 C 22 13.8 22.5 13.6 23 13.6 C 23.7 13.6 24.1 13.7 24.4 14.1 C 24.6 14.4 24.8 14.8 24.8 15.4 C 24.8 15.8 24.6 16.2 24.4 16.5 C 24.2 16.7 23.8 16.9 23.3 17.1 C 23.3 17.1 21.2 17.6 21.2 17.6 C 20.5 17.8 20 18 19.5 18.3 C 19 18.5 18.7 18.8 18.4 19.1 C 18.1 19.5 17.9 19.9 17.7 20.4 C 17.6 20.9 17.5 21.5 17.5 22.2 C 17.5 22.7 17.6 23.1 17.7 23.6 C 17.8 24.1 18 24.6 18.3 25 C 18.5 25.4 18.9 25.7 19.4 25.9 C 19.8 26.1 20.4 26.2 21 26.2 C 21.9 26.2 22.6 26.1 23.2 25.9 C 23.8 25.7 24.3 25.2 24.7 24.4 C 24.7 24.4 24.8 24.4 24.8 24.4 C 24.8 24.7 24.9 24.9 24.9 25.2 C 25 25.5 25.1 25.7 25.2 25.9 C 25.2 25.9 28.8 25.9 28.8 25.9 C 28.6 25.5 28.5 25.1 28.4 24.7 C 28.4 24.4 28.3 23.8 28.3 23.1 C 28.3 23.1 28.3 15.5 28.3 15.5 C 28.3 14.8 28.3 14.3 28.1 13.7 C 28 13.2 27.7 12.7 27.3 12.3 C 27 11.9 26.4 11.6 25.8 11.4 C 25.1 11.2 24.2 11 23.1 11 C 22.4 11 21.7 11.1 21.1 11.3 C 20.4 11.4 19.9 11.7 19.4 12 C 19 12.4 18.6 12.8 18.4 13.4 C 18.1 14 18 14.7 18 15.5 C 17.95 15.52 18 15.9 18 15.9 L 21.3 15.9 Z M 31 25.9 L 34.7 25.9 C 34.7 25.9 34.69 17.23 34.7 17.2 C 34.7 16.7 34.8 16.3 34.9 16 C 35.1 15.7 35.3 15.4 35.6 15.2 C 35.9 15 36.1 14.8 36.5 14.7 C 36.8 14.7 37.1 14.6 37.4 14.6 C 37.6 14.6 37.8 14.6 38 14.6 C 38.2 14.6 38.4 14.6 38.6 14.7 C 38.6 14.7 38.6 11.1 38.6 11.1 C 38.5 11.1 38.4 11.1 38.3 11.1 C 38.2 11 38 11 37.9 11 C 37.2 11 36.5 11.3 36 11.7 C 35.4 12.1 35 12.7 34.6 13.4 C 34.58 13.36 34.5 13.4 34.5 13.4 L 34.5 11.4 L 31 11.4 L 31 25.9 Z M 46.7 21.5 C 46.7 21.9 46.7 22.3 46.5 22.6 C 46.4 22.9 46.2 23.1 46 23.3 C 45.7 23.5 45.5 23.6 45.2 23.7 C 45 23.7 44.7 23.8 44.4 23.8 C 43.9 23.8 43.6 23.6 43.4 23.2 C 43.1 22.8 43 22.3 43 21.8 C 43 21.1 43.2 20.6 43.5 20.2 C 43.8 19.8 44.4 19.6 45.1 19.4 C 45.4 19.4 45.6 19.3 45.9 19.2 C 46.2 19 46.5 18.9 46.7 18.7 C 46.7 18.7 46.7 21.5 46.7 21.5 Z M 43.3 15.9 C 43.3 15.9 43.28 15.47 43.3 15.5 C 43.3 14.9 43.4 14.4 43.7 14.1 C 44 13.8 44.4 13.6 45 13.6 C 45.6 13.6 46.1 13.7 46.3 14.1 C 46.6 14.4 46.7 14.8 46.7 15.4 C 46.7 15.8 46.6 16.2 46.4 16.5 C 46.2 16.7 45.8 16.9 45.2 17.1 C 45.2 17.1 43.1 17.6 43.1 17.6 C 42.5 17.8 41.9 18 41.5 18.3 C 41 18.5 40.6 18.8 40.3 19.1 C 40.1 19.5 39.8 19.9 39.7 20.4 C 39.5 20.9 39.5 21.5 39.5 22.2 C 39.5 22.7 39.5 23.1 39.7 23.6 C 39.8 24.1 40 24.6 40.3 25 C 40.5 25.4 40.9 25.7 41.3 25.9 C 41.8 26.1 42.3 26.2 43 26.2 C 43.9 26.2 44.6 26.1 45.2 25.9 C 45.7 25.7 46.2 25.2 46.7 24.4 C 46.7 24.4 46.7 24.4 46.7 24.4 C 46.8 24.7 46.8 24.9 46.9 25.2 C 47 25.5 47.1 25.7 47.2 25.9 C 47.2 25.9 50.8 25.9 50.8 25.9 C 50.6 25.5 50.5 25.1 50.4 24.7 C 50.3 24.4 50.3 23.8 50.3 23.1 C 50.3 23.1 50.3 15.5 50.3 15.5 C 50.3 14.8 50.2 14.3 50.1 13.7 C 50 13.2 49.7 12.7 49.3 12.3 C 48.9 11.9 48.4 11.6 47.7 11.4 C 47 11.2 46.1 11 45 11 C 44.3 11 43.7 11.1 43 11.3 C 42.4 11.4 41.9 11.7 41.4 12 C 41 12.4 40.6 12.8 40.3 13.4 C 40.1 14 39.9 14.7 39.9 15.5 C 39.93 15.52 39.9 15.9 39.9 15.9 L 43.3 15.9 Z M 58.8 21.2 C 58.8 21.2 58.8 21.71 58.8 21.7 C 58.8 22.4 58.9 23 59 23.6 C 59.2 24.2 59.5 24.7 59.9 25.1 C 60.3 25.5 60.8 25.7 61.5 25.9 C 62.2 26.1 63.1 26.2 64.1 26.2 C 64.9 26.2 65.7 26.2 66.3 26 C 67 25.8 67.5 25.6 68 25.2 C 68.5 24.8 68.9 24.3 69.1 23.8 C 69.4 23.2 69.5 22.5 69.5 21.8 C 69.5 20.7 69.3 19.8 68.8 19.2 C 68.3 18.5 67.5 18 66.3 17.6 C 66.3 17.6 64.1 16.8 64.1 16.8 C 63.5 16.6 63 16.4 62.8 16.1 C 62.6 15.8 62.5 15.5 62.5 15.1 C 62.5 14.6 62.6 14.2 63 14 C 63.4 13.7 63.8 13.6 64.2 13.6 C 64.8 13.6 65.3 13.8 65.5 14.1 C 65.8 14.5 65.9 15 65.9 15.8 C 65.88 15.77 69.2 15.8 69.2 15.8 C 69.2 15.8 69.22 15.17 69.2 15.2 C 69.2 13.9 68.8 12.8 68 12.1 C 67.2 11.4 65.9 11 64.3 11 C 63.3 11 62.5 11.2 61.8 11.4 C 61.1 11.6 60.6 11.9 60.2 12.3 C 59.7 12.7 59.4 13.2 59.2 13.7 C 59 14.3 58.9 14.8 58.9 15.4 C 58.9 16.4 59.2 17.3 59.7 17.9 C 60.2 18.6 61 19.1 62 19.5 C 62 19.5 64.6 20.4 64.6 20.4 C 65 20.6 65.3 20.7 65.6 21 C 65.8 21.2 66 21.6 66 22.1 C 66 22.6 65.8 23.1 65.5 23.4 C 65.1 23.6 64.7 23.8 64.1 23.8 C 63.5 23.8 63 23.6 62.6 23.2 C 62.3 22.8 62.1 22.3 62.1 21.7 C 62.15 21.68 62.1 21.2 62.1 21.2 L 58.8 21.2 Z M 78.2 21.5 C 78.2 21.9 78.1 22.3 78 22.6 C 77.8 22.9 77.6 23.1 77.4 23.3 C 77.2 23.5 76.9 23.6 76.7 23.7 C 76.4 23.7 76.1 23.8 75.9 23.8 C 75.4 23.8 75 23.6 74.8 23.2 C 74.6 22.8 74.5 22.3 74.5 21.8 C 74.5 21.1 74.6 20.6 75 20.2 C 75.3 19.8 75.8 19.6 76.6 19.4 C 76.8 19.4 77.1 19.3 77.4 19.2 C 77.7 19 77.9 18.9 78.2 18.7 C 78.2 18.7 78.2 21.5 78.2 21.5 Z M 74.7 15.9 C 74.7 15.9 74.73 15.47 74.7 15.5 C 74.7 14.9 74.9 14.4 75.2 14.1 C 75.5 13.8 75.9 13.6 76.5 13.6 C 77.1 13.6 77.5 13.7 77.8 14.1 C 78.1 14.4 78.2 14.8 78.2 15.4 C 78.2 15.8 78.1 16.2 77.9 16.5 C 77.6 16.7 77.3 16.9 76.7 17.1 C 76.7 17.1 74.6 17.6 74.6 17.6 C 73.9 17.8 73.4 18 72.9 18.3 C 72.5 18.5 72.1 18.8 71.8 19.1 C 71.5 19.5 71.3 19.9 71.1 20.4 C 71 20.9 70.9 21.5 70.9 22.2 C 70.9 22.7 71 23.1 71.1 23.6 C 71.2 24.1 71.4 24.6 71.7 25 C 72 25.4 72.3 25.7 72.8 25.9 C 73.2 26.1 73.8 26.2 74.4 26.2 C 75.3 26.2 76.1 26.1 76.6 25.9 C 77.2 25.7 77.7 25.2 78.1 24.4 C 78.1 24.4 78.2 24.4 78.2 24.4 C 78.2 24.7 78.3 24.9 78.4 25.2 C 78.4 25.5 78.5 25.7 78.6 25.9 C 78.6 25.9 82.2 25.9 82.2 25.9 C 82 25.5 81.9 25.1 81.8 24.7 C 81.8 24.4 81.8 23.8 81.8 23.1 C 81.8 23.1 81.8 15.5 81.8 15.5 C 81.8 14.8 81.7 14.3 81.5 13.7 C 81.4 13.2 81.2 12.7 80.8 12.3 C 80.4 11.9 79.9 11.6 79.2 11.4 C 78.5 11.2 77.6 11 76.5 11 C 75.8 11 75.1 11.1 74.5 11.3 C 73.9 11.4 73.3 11.7 72.9 12 C 72.4 12.4 72.1 12.8 71.8 13.4 C 71.5 14 71.4 14.7 71.4 15.5 C 71.38 15.52 71.4 15.9 71.4 15.9 L 74.7 15.9 Z M 91.2 21.5 C 91.2 21.9 91.1 22.3 91 22.6 C 90.8 22.9 90.6 23.1 90.4 23.3 C 90.2 23.5 89.9 23.6 89.7 23.7 C 89.4 23.7 89.1 23.8 88.9 23.8 C 88.4 23.8 88 23.6 87.8 23.2 C 87.6 22.8 87.5 22.3 87.5 21.8 C 87.5 21.1 87.6 20.6 88 20.2 C 88.3 19.8 88.8 19.6 89.6 19.4 C 89.8 19.4 90.1 19.3 90.4 19.2 C 90.7 19 90.9 18.9 91.2 18.7 C 91.2 18.7 91.2 21.5 91.2 21.5 Z M 87.7 15.9 C 87.7 15.9 87.72 15.47 87.7 15.5 C 87.7 14.9 87.9 14.4 88.1 14.1 C 88.4 13.8 88.9 13.6 89.4 13.6 C 90.1 13.6 90.5 13.7 90.8 14.1 C 91 14.4 91.2 14.8 91.2 15.4 C 91.2 15.8 91.1 16.2 90.8 16.5 C 90.6 16.7 90.2 16.9 89.7 17.1 C 89.7 17.1 87.6 17.6 87.6 17.6 C 86.9 17.8 86.4 18 85.9 18.3 C 85.5 18.5 85.1 18.8 84.8 19.1 C 84.5 19.5 84.3 19.9 84.1 20.4 C 84 20.9 83.9 21.5 83.9 22.2 C 83.9 22.7 84 23.1 84.1 23.6 C 84.2 24.1 84.4 24.6 84.7 25 C 85 25.4 85.3 25.7 85.8 25.9 C 86.2 26.1 86.8 26.2 87.4 26.2 C 88.3 26.2 89.1 26.1 89.6 25.9 C 90.2 25.7 90.7 25.2 91.1 24.4 C 91.1 24.4 91.2 24.4 91.2 24.4 C 91.2 24.7 91.3 24.9 91.3 25.2 C 91.4 25.5 91.5 25.7 91.6 25.9 C 91.6 25.9 95.2 25.9 95.2 25.9 C 95 25.5 94.9 25.1 94.8 24.7 C 94.8 24.4 94.7 23.8 94.7 23.1 C 94.7 23.1 94.7 15.5 94.7 15.5 C 94.7 14.8 94.7 14.3 94.5 13.7 C 94.4 13.2 94.1 12.7 93.8 12.3 C 93.4 11.9 92.9 11.6 92.2 11.4 C 91.5 11.2 90.6 11 89.5 11 C 88.8 11 88.1 11.1 87.5 11.3 C 86.9 11.4 86.3 11.7 85.9 12 C 85.4 12.4 85 12.8 84.8 13.4 C 84.5 14 84.4 14.7 84.4 15.5 C 84.37 15.52 84.4 15.9 84.4 15.9 L 87.7 15.9 Z M 97.4 25.9 L 101.1 25.9 C 101.1 25.9 101.11 16.31 101.1 16.3 C 101.1 14.7 101.8 13.9 103.1 13.9 C 103.6 13.9 104 14.1 104.3 14.4 C 104.5 14.6 104.7 15.2 104.7 15.9 C 104.67 15.93 104.7 25.9 104.7 25.9 L 108.4 25.9 C 108.4 25.9 108.4 15.17 108.4 15.2 C 108.4 13.7 108.1 12.7 107.4 12 C 106.8 11.4 105.9 11 104.7 11 C 103.9 11 103.2 11.2 102.5 11.5 C 101.9 11.9 101.4 12.4 101 13.1 C 101 13.12 100.9 13.1 100.9 13.1 L 100.9 11.4 L 97.4 11.4 L 97.4 25.9 Z M 111.1 21.7 L 111.1 25.9 L 112.5 25.9 C 112.5 25.9 112.5 26.3 112.5 26.3 C 112.5 26.8 112.4 27.3 112.2 27.7 C 111.9 28.1 111.6 28.3 111.1 28.4 C 111.1 28.4 111.1 30.3 111.1 30.3 C 111.8 30.2 112.4 30.1 112.9 29.8 C 113.3 29.5 113.7 29.2 114 28.7 C 114.2 28.3 114.4 27.8 114.5 27.1 C 114.6 26.5 114.7 25.9 114.7 25.2 C 114.66 25.24 114.7 21.7 114.7 21.7 L 111.1 21.7 Z M 122.8 25.9 L 126.6 25.9 C 126.6 25.9 126.57 16.31 126.6 16.3 C 126.6 14.7 127.2 13.9 128.5 13.9 C 129.1 13.9 129.5 14.1 129.8 14.4 C 130 14.6 130.1 15.2 130.1 15.9 C 130.13 15.93 130.1 25.9 130.1 25.9 L 133.9 25.9 C 133.9 25.9 133.86 15.17 133.9 15.2 C 133.9 13.7 133.5 12.7 132.9 12 C 132.3 11.4 131.3 11 130.2 11 C 128.5 11 127.3 11.7 126.6 12.9 C 126.62 12.91 126.6 12.9 126.6 12.9 L 126.6 6.7 L 122.8 6.7 L 122.8 25.9 Z M 143.1 21.5 C 143.1 21.9 143 22.3 142.9 22.6 C 142.8 22.9 142.6 23.1 142.4 23.3 C 142.1 23.5 141.9 23.6 141.6 23.7 C 141.3 23.7 141.1 23.8 140.8 23.8 C 140.3 23.8 140 23.6 139.7 23.2 C 139.5 22.8 139.4 22.3 139.4 21.8 C 139.4 21.1 139.6 20.6 139.9 20.2 C 140.2 19.8 140.8 19.6 141.5 19.4 C 141.8 19.4 142 19.3 142.3 19.2 C 142.6 19 142.9 18.9 143.1 18.7 C 143.1 18.7 143.1 21.5 143.1 21.5 Z M 139.7 15.9 C 139.7 15.9 139.67 15.47 139.7 15.5 C 139.7 14.9 139.8 14.4 140.1 14.1 C 140.4 13.8 140.8 13.6 141.4 13.6 C 142 13.6 142.5 13.7 142.7 14.1 C 143 14.4 143.1 14.8 143.1 15.4 C 143.1 15.8 143 16.2 142.8 16.5 C 142.6 16.7 142.2 16.9 141.6 17.1 C 141.6 17.1 139.5 17.6 139.5 17.6 C 138.9 17.8 138.3 18 137.9 18.3 C 137.4 18.5 137 18.8 136.7 19.1 C 136.4 19.5 136.2 19.9 136.1 20.4 C 135.9 20.9 135.9 21.5 135.9 22.2 C 135.9 22.7 135.9 23.1 136 23.6 C 136.2 24.1 136.4 24.6 136.6 25 C 136.9 25.4 137.3 25.7 137.7 25.9 C 138.2 26.1 138.7 26.2 139.4 26.2 C 140.3 26.2 141 26.1 141.6 25.9 C 142.1 25.7 142.6 25.2 143.1 24.4 C 143.1 24.4 143.1 24.4 143.1 24.4 C 143.2 24.7 143.2 24.9 143.3 25.2 C 143.4 25.5 143.5 25.7 143.6 25.9 C 143.6 25.9 147.1 25.9 147.1 25.9 C 147 25.5 146.8 25.1 146.8 24.7 C 146.7 24.4 146.7 23.8 146.7 23.1 C 146.7 23.1 146.7 15.5 146.7 15.5 C 146.7 14.8 146.6 14.3 146.5 13.7 C 146.3 13.2 146.1 12.7 145.7 12.3 C 145.3 11.9 144.8 11.6 144.1 11.4 C 143.4 11.2 142.5 11 141.4 11 C 140.7 11 140.1 11.1 139.4 11.3 C 138.8 11.4 138.3 11.7 137.8 12 C 137.4 12.4 137 12.8 136.7 13.4 C 136.5 14 136.3 14.7 136.3 15.5 C 136.32 15.52 136.3 15.9 136.3 15.9 L 139.7 15.9 Z M 149.3 25.9 L 153.1 25.9 C 153.1 25.9 153.06 16.31 153.1 16.3 C 153.1 14.7 153.7 13.9 155 13.9 C 155.6 13.9 156 14.1 156.2 14.4 C 156.5 14.6 156.6 15.2 156.6 15.9 C 156.62 15.93 156.6 25.9 156.6 25.9 L 160.3 25.9 C 160.3 25.9 160.35 15.17 160.3 15.2 C 160.3 13.7 160 12.7 159.4 12 C 158.7 11.4 157.8 11 156.6 11 C 155.8 11 155.1 11.2 154.5 11.5 C 153.9 11.9 153.3 12.4 152.9 13.1 C 152.95 13.12 152.9 13.1 152.9 13.1 L 152.9 11.4 L 149.3 11.4 L 149.3 25.9 Z M 166.3 16.7 C 166.4 16 166.5 15.5 166.6 15.1 C 166.8 14.6 167 14.4 167.2 14.2 C 167.5 14 167.8 13.9 168.2 13.9 C 168.9 13.9 169.5 14.3 169.7 15 C 170 15.7 170.1 17 170.1 18.8 C 170.1 19.4 170.1 19.9 170.1 20.5 C 170 21 169.9 21.4 169.7 21.8 C 169.6 22.1 169.4 22.4 169.1 22.6 C 168.8 22.8 168.5 22.9 168.1 22.9 C 167.7 22.9 167.4 22.8 167.2 22.6 C 166.9 22.4 166.7 22.1 166.6 21.8 C 166.5 21.4 166.4 21 166.3 20.6 C 166.3 20.1 166.3 19.6 166.3 19.1 C 166.3 18.2 166.3 17.3 166.3 16.7 Z M 170.1 11.4 L 170.1 13 C 170.1 13 170.09 13.04 170.1 13 C 169.7 12.3 169.3 11.8 168.7 11.5 C 168.2 11.2 167.6 11 167.1 11 C 166.1 11 165.3 11.3 164.7 11.7 C 164.1 12.2 163.6 12.7 163.3 13.5 C 163 14.2 162.8 15 162.7 15.8 C 162.6 16.7 162.5 17.6 162.5 18.4 C 162.5 21.1 162.9 23 163.7 24.1 C 164.4 25.2 165.5 25.8 167 25.8 C 167.6 25.8 168.2 25.6 168.7 25.3 C 169.3 25 169.7 24.5 170.1 24 C 170.09 24 170.1 24 170.1 24 C 170.1 24 170.15 25.92 170.1 25.9 C 170.1 26.6 170 27.2 169.7 27.7 C 169.4 28.2 168.9 28.5 168.1 28.5 C 167.9 28.5 167.6 28.4 167.4 28.3 C 167.2 28.3 167 28.2 166.9 28.1 C 166.5 27.8 166.3 27.4 166.3 26.9 C 166.3 26.9 162.7 26.9 162.7 26.9 C 162.7 28.2 163.2 29.1 164 29.8 C 164.9 30.5 166.1 30.8 167.7 30.8 C 169.8 30.8 171.4 30.4 172.3 29.4 C 173.2 28.5 173.7 27.1 173.7 25.2 C 173.71 25.22 173.7 11.4 173.7 11.4 L 170.1 11.4 Z M 179.8 16.7 C 179.9 16 180 15.5 180.1 15.1 C 180.3 14.6 180.5 14.4 180.7 14.2 C 181 14 181.3 13.9 181.7 13.9 C 182.4 13.9 183 14.3 183.2 15 C 183.5 15.7 183.6 17 183.6 18.8 C 183.6 19.4 183.6 19.9 183.6 20.5 C 183.5 21 183.4 21.4 183.2 21.8 C 183.1 22.1 182.9 22.4 182.6 22.6 C 182.3 22.8 182 22.9 181.6 22.9 C 181.2 22.9 180.9 22.8 180.7 22.6 C 180.4 22.4 180.2 22.1 180.1 21.8 C 180 21.4 179.9 21 179.8 20.6 C 179.8 20.1 179.8 19.6 179.8 19.1 C 179.8 18.2 179.8 17.3 179.8 16.7 Z M 183.6 11.4 L 183.6 13 C 183.6 13 183.59 13.04 183.6 13 C 183.2 12.3 182.8 11.8 182.2 11.5 C 181.7 11.2 181.1 11 180.6 11 C 179.6 11 178.8 11.3 178.2 11.7 C 177.6 12.2 177.1 12.7 176.8 13.5 C 176.5 14.2 176.3 15 176.2 15.8 C 176.1 16.7 176 17.6 176 18.4 C 176 21.1 176.4 23 177.2 24.1 C 177.9 25.2 179 25.8 180.5 25.8 C 181.1 25.8 181.7 25.6 182.2 25.3 C 182.8 25 183.2 24.5 183.6 24 C 183.59 24 183.6 24 183.6 24 C 183.6 24 183.65 25.92 183.6 25.9 C 183.6 26.6 183.5 27.2 183.2 27.7 C 182.9 28.2 182.4 28.5 181.6 28.5 C 181.4 28.5 181.1 28.4 180.9 28.3 C 180.7 28.3 180.5 28.2 180.4 28.1 C 180 27.8 179.8 27.4 179.8 26.9 C 179.8 26.9 176.2 26.9 176.2 26.9 C 176.2 28.2 176.7 29.1 177.5 29.8 C 178.4 30.5 179.6 30.8 181.2 30.8 C 183.3 30.8 184.9 30.4 185.8 29.4 C 186.7 28.5 187.2 27.1 187.2 25.2 C 187.21 25.22 187.2 11.4 187.2 11.4 L 183.6 11.4 Z M 196.6 21.5 C 196.6 21.9 196.5 22.3 196.4 22.6 C 196.2 22.9 196.1 23.1 195.8 23.3 C 195.6 23.5 195.4 23.6 195.1 23.7 C 194.8 23.7 194.6 23.8 194.3 23.8 C 193.8 23.8 193.4 23.6 193.2 23.2 C 193 22.8 192.9 22.3 192.9 21.8 C 192.9 21.1 193.1 20.6 193.4 20.2 C 193.7 19.8 194.3 19.6 195 19.4 C 195.2 19.4 195.5 19.3 195.8 19.2 C 196.1 19 196.4 18.9 196.6 18.7 C 196.6 18.7 196.6 21.5 196.6 21.5 Z M 193.2 15.9 C 193.2 15.9 193.15 15.47 193.2 15.5 C 193.2 14.9 193.3 14.4 193.6 14.1 C 193.9 13.8 194.3 13.6 194.9 13.6 C 195.5 13.6 196 13.7 196.2 14.1 C 196.5 14.4 196.6 14.8 196.6 15.4 C 196.6 15.8 196.5 16.2 196.3 16.5 C 196.1 16.7 195.7 16.9 195.1 17.1 C 195.1 17.1 193 17.6 193 17.6 C 192.4 17.8 191.8 18 191.4 18.3 C 190.9 18.5 190.5 18.8 190.2 19.1 C 189.9 19.5 189.7 19.9 189.6 20.4 C 189.4 20.9 189.3 21.5 189.3 22.2 C 189.3 22.7 189.4 23.1 189.5 23.6 C 189.7 24.1 189.9 24.6 190.1 25 C 190.4 25.4 190.8 25.7 191.2 25.9 C 191.7 26.1 192.2 26.2 192.9 26.2 C 193.8 26.2 194.5 26.1 195.1 25.9 C 195.6 25.7 196.1 25.2 196.6 24.4 C 196.6 24.4 196.6 24.4 196.6 24.4 C 196.7 24.7 196.7 24.9 196.8 25.2 C 196.8 25.5 196.9 25.7 197.1 25.9 C 197.1 25.9 200.6 25.9 200.6 25.9 C 200.5 25.5 200.3 25.1 200.3 24.7 C 200.2 24.4 200.2 23.8 200.2 23.1 C 200.2 23.1 200.2 15.5 200.2 15.5 C 200.2 14.8 200.1 14.3 200 13.7 C 199.8 13.2 199.6 12.7 199.2 12.3 C 198.8 11.9 198.3 11.6 197.6 11.4 C 196.9 11.2 196 11 194.9 11 C 194.2 11 193.5 11.1 192.9 11.3 C 192.3 11.4 191.8 11.7 191.3 12 C 190.8 12.4 190.5 12.8 190.2 13.4 C 189.9 14 189.8 14.7 189.8 15.5 C 189.8 15.52 189.8 15.9 189.8 15.9 L 193.2 15.9 Z M 202.8 25.9 L 206.5 25.9 C 206.5 25.9 206.54 16.31 206.5 16.3 C 206.5 14.7 207.2 13.9 208.5 13.9 C 209.1 13.9 209.5 14.1 209.7 14.4 C 210 14.6 210.1 15.2 210.1 15.9 C 210.11 15.93 210.1 25.9 210.1 25.9 L 213.8 25.9 C 213.8 25.9 213.83 15.17 213.8 15.2 C 213.8 13.7 213.5 12.7 212.9 12 C 212.2 11.4 211.3 11 210.1 11 C 209.3 11 208.6 11.2 208 11.5 C 207.3 11.9 206.8 12.4 206.4 13.1 C 206.44 13.12 206.4 13.1 206.4 13.1 L 206.4 11.4 L 202.8 11.4 L 202.8 25.9 Z M 219.8 16.7 C 219.9 16 220 15.5 220.1 15.1 C 220.2 14.6 220.4 14.4 220.7 14.2 C 220.9 14 221.3 13.9 221.7 13.9 C 222.4 13.9 222.9 14.3 223.2 15 C 223.5 15.7 223.6 17 223.6 18.8 C 223.6 19.4 223.6 19.9 223.5 20.5 C 223.5 21 223.4 21.4 223.2 21.8 C 223.1 22.1 222.9 22.4 222.6 22.6 C 222.3 22.8 222 22.9 221.6 22.9 C 221.2 22.9 220.9 22.8 220.7 22.6 C 220.4 22.4 220.2 22.1 220.1 21.8 C 219.9 21.4 219.9 21 219.8 20.6 C 219.8 20.1 219.7 19.6 219.7 19.1 C 219.7 18.2 219.8 17.3 219.8 16.7 Z M 223.6 11.4 L 223.6 13 C 223.6 13 223.58 13.04 223.6 13 C 223.2 12.3 222.8 11.8 222.2 11.5 C 221.6 11.2 221.1 11 220.6 11 C 219.6 11 218.8 11.3 218.2 11.7 C 217.6 12.2 217.1 12.7 216.8 13.5 C 216.5 14.2 216.3 15 216.2 15.8 C 216.1 16.7 216 17.6 216 18.4 C 216 21.1 216.4 23 217.1 24.1 C 217.9 25.2 219 25.8 220.5 25.8 C 221.1 25.8 221.6 25.6 222.2 25.3 C 222.7 25 223.2 24.5 223.6 24 C 223.58 24 223.6 24 223.6 24 C 223.6 24 223.63 25.92 223.6 25.9 C 223.6 26.6 223.5 27.2 223.2 27.7 C 222.9 28.2 222.3 28.5 221.6 28.5 C 221.3 28.5 221.1 28.4 220.9 28.3 C 220.7 28.3 220.5 28.2 220.3 28.1 C 220 27.8 219.8 27.4 219.8 26.9 C 219.8 26.9 216.2 26.9 216.2 26.9 C 216.2 28.2 216.6 29.1 217.5 29.8 C 218.3 30.5 219.6 30.8 221.2 30.8 C 223.3 30.8 224.9 30.4 225.8 29.4 C 226.7 28.5 227.2 27.1 227.2 25.2 C 227.2 25.22 227.2 11.4 227.2 11.4 L 223.6 11.4 Z M 236.4 6.7 L 236.4 25.9 L 240.2 25.9 L 240.2 21.7 L 241.5 20 L 244.6 25.9 L 248.7 25.9 L 243.9 17.1 L 248.1 11.4 L 244 11.4 L 240.2 16.8 L 240.2 16.8 L 240.2 6.7 L 236.4 6.7 Z M 256.6 21.5 C 256.6 21.9 256.5 22.3 256.4 22.6 C 256.2 22.9 256 23.1 255.8 23.3 C 255.6 23.5 255.3 23.6 255.1 23.7 C 254.8 23.7 254.5 23.8 254.3 23.8 C 253.8 23.8 253.4 23.6 253.2 23.2 C 253 22.8 252.9 22.3 252.9 21.8 C 252.9 21.1 253 20.6 253.4 20.2 C 253.7 19.8 254.2 19.6 255 19.4 C 255.2 19.4 255.5 19.3 255.8 19.2 C 256.1 19 256.3 18.9 256.6 18.7 C 256.6 18.7 256.6 21.5 256.6 21.5 Z M 253.1 15.9 C 253.1 15.9 253.12 15.47 253.1 15.5 C 253.1 14.9 253.3 14.4 253.6 14.1 C 253.8 13.8 254.3 13.6 254.8 13.6 C 255.5 13.6 255.9 13.7 256.2 14.1 C 256.4 14.4 256.6 14.8 256.6 15.4 C 256.6 15.8 256.5 16.2 256.3 16.5 C 256 16.7 255.6 16.9 255.1 17.1 C 255.1 17.1 253 17.6 253 17.6 C 252.3 17.8 251.8 18 251.3 18.3 C 250.9 18.5 250.5 18.8 250.2 19.1 C 249.9 19.5 249.7 19.9 249.5 20.4 C 249.4 20.9 249.3 21.5 249.3 22.2 C 249.3 22.7 249.4 23.1 249.5 23.6 C 249.6 24.1 249.8 24.6 250.1 25 C 250.4 25.4 250.7 25.7 251.2 25.9 C 251.6 26.1 252.2 26.2 252.8 26.2 C 253.7 26.2 254.5 26.1 255 25.9 C 255.6 25.7 256.1 25.2 256.5 24.4 C 256.5 24.4 256.6 24.4 256.6 24.4 C 256.6 24.7 256.7 24.9 256.7 25.2 C 256.8 25.5 256.9 25.7 257 25.9 C 257 25.9 260.6 25.9 260.6 25.9 C 260.4 25.5 260.3 25.1 260.2 24.7 C 260.2 24.4 260.1 23.8 260.1 23.1 C 260.1 23.1 260.1 15.5 260.1 15.5 C 260.1 14.8 260.1 14.3 259.9 13.7 C 259.8 13.2 259.5 12.7 259.2 12.3 C 258.8 11.9 258.3 11.6 257.6 11.4 C 256.9 11.2 256 11 254.9 11 C 254.2 11 253.5 11.1 252.9 11.3 C 252.3 11.4 251.7 11.7 251.3 12 C 250.8 12.4 250.4 12.8 250.2 13.4 C 249.9 14 249.8 14.7 249.8 15.5 C 249.77 15.52 249.8 15.9 249.8 15.9 L 253.1 15.9 Z M 262.9 9.6 L 266.6 9.6 L 266.6 6.5 L 262.9 6.5 L 262.9 9.6 Z M 262.9 25.9 L 266.6 25.9 L 266.6 11.4 L 262.9 11.4 L 262.9 25.9 Z M 269.4 25.9 L 273.1 25.9 L 273.1 6.7 L 269.4 6.7 L 269.4 25.9 Z M 282.5 21.5 C 282.5 21.9 282.4 22.3 282.3 22.6 C 282.2 22.9 282 23.1 281.8 23.3 C 281.5 23.5 281.3 23.6 281 23.7 C 280.7 23.7 280.5 23.8 280.2 23.8 C 279.7 23.8 279.4 23.6 279.1 23.2 C 278.9 22.8 278.8 22.3 278.8 21.8 C 278.8 21.1 279 20.6 279.3 20.2 C 279.6 19.8 280.2 19.6 280.9 19.4 C 281.2 19.4 281.4 19.3 281.7 19.2 C 282 19 282.3 18.9 282.5 18.7 C 282.5 18.7 282.5 21.5 282.5 21.5 Z M 279.1 15.9 C 279.1 15.9 279.06 15.47 279.1 15.5 C 279.1 14.9 279.2 14.4 279.5 14.1 C 279.8 13.8 280.2 13.6 280.8 13.6 C 281.4 13.6 281.9 13.7 282.1 14.1 C 282.4 14.4 282.5 14.8 282.5 15.4 C 282.5 15.8 282.4 16.2 282.2 16.5 C 282 16.7 281.6 16.9 281 17.1 C 281 17.1 278.9 17.6 278.9 17.6 C 278.3 17.8 277.7 18 277.3 18.3 C 276.8 18.5 276.4 18.8 276.1 19.1 C 275.8 19.5 275.6 19.9 275.5 20.4 C 275.3 20.9 275.3 21.5 275.3 22.2 C 275.3 22.7 275.3 23.1 275.4 23.6 C 275.6 24.1 275.8 24.6 276 25 C 276.3 25.4 276.7 25.7 277.1 25.9 C 277.6 26.1 278.1 26.2 278.8 26.2 C 279.7 26.2 280.4 26.1 281 25.9 C 281.5 25.7 282 25.2 282.5 24.4 C 282.5 24.4 282.5 24.4 282.5 24.4 C 282.6 24.7 282.6 24.9 282.7 25.2 C 282.8 25.5 282.9 25.7 283 25.9 C 283 25.9 286.5 25.9 286.5 25.9 C 286.4 25.5 286.2 25.1 286.2 24.7 C 286.1 24.4 286.1 23.8 286.1 23.1 C 286.1 23.1 286.1 15.5 286.1 15.5 C 286.1 14.8 286 14.3 285.9 13.7 C 285.7 13.2 285.5 12.7 285.1 12.3 C 284.7 11.9 284.2 11.6 283.5 11.4 C 282.8 11.2 281.9 11 280.8 11 C 280.1 11 279.5 11.1 278.8 11.3 C 278.2 11.4 277.7 11.7 277.2 12 C 276.8 12.4 276.4 12.8 276.1 13.4 C 275.9 14 275.7 14.7 275.7 15.5 C 275.72 15.52 275.7 15.9 275.7 15.9 L 279.1 15.9 Z M 288.7 25.9 L 292.5 25.9 C 292.5 25.9 292.46 16.31 292.5 16.3 C 292.5 14.7 293.1 13.9 294.4 13.9 C 295 13.9 295.4 14.1 295.6 14.4 C 295.9 14.6 296 15.2 296 15.9 C 296.02 15.93 296 25.9 296 25.9 L 299.7 25.9 C 299.7 25.9 299.75 15.17 299.7 15.2 C 299.7 13.7 299.4 12.7 298.8 12 C 298.1 11.4 297.2 11 296 11 C 295.2 11 294.5 11.2 293.9 11.5 C 293.3 11.9 292.7 12.4 292.3 13.1 C 292.35 13.12 292.3 13.1 292.3 13.1 L 292.3 11.4 L 288.7 11.4 L 288.7 25.9 Z M 302.4 21.7 L 302.4 25.9 L 303.8 25.9 C 303.8 25.9 303.85 26.3 303.8 26.3 C 303.8 26.8 303.7 27.3 303.5 27.7 C 303.3 28.1 302.9 28.3 302.4 28.4 C 302.4 28.4 302.4 30.3 302.4 30.3 C 303.2 30.2 303.8 30.1 304.2 29.8 C 304.7 29.5 305 29.2 305.3 28.7 C 305.6 28.3 305.8 27.8 305.9 27.1 C 306 26.5 306 25.9 306 25.2 C 306.01 25.24 306 21.7 306 21.7 L 302.4 21.7 Z " stroke="none" fill="#000"/>
  </g>
</svg>