<?xml version="1.0" standalone="no"?>
<!DOCTYPE svg PUBLIC "-//W3C//DTD SVG 1.1//EN" "http://www.w3.org/Graphics/SVG/1.1/DTD/svg11.dtd">
<svg xmlns="http://www.w3.org/2000/svg" version="1.1" width="114px" height="15.9px" viewBox="0 -1 114 15.9" style="top:-1px">
  <desc>Gerlie Ann Gonzales</desc>
  <defs/>
  <g id="Polygon32106">
    <path d="M 35.7 8 C 35.69 7.97 35.7 8.6 35.7 8.6 L 36.3 8.6 L 37 5.2 L 34.2 5.2 L 34 5.9 C 34 5.9 36.1 5.95 36.1 5.9 C 36 6.3 35.9 6.5 35.8 6.8 C 35.7 7.1 35.5 7.3 35.3 7.5 C 35.1 7.6 34.9 7.8 34.7 7.9 C 34.4 8 34.1 8 33.8 8 C 33.5 8 33.2 8 32.9 7.9 C 32.7 7.8 32.5 7.6 32.3 7.5 C 32.2 7.3 32.1 7.1 32 6.8 C 31.9 6.5 31.9 6.3 31.9 5.9 C 31.9 5.6 31.9 5.2 32 4.8 C 32.2 4.4 32.3 4.1 32.5 3.8 C 32.8 3.5 33 3.2 33.4 3 C 33.7 2.8 34.1 2.8 34.5 2.8 C 34.8 2.8 35 2.8 35.2 2.8 C 35.4 2.9 35.6 3 35.8 3.1 C 35.9 3.2 36 3.4 36.1 3.5 C 36.2 3.7 36.3 3.9 36.3 4.2 C 36.3 4.2 37.1 4.2 37.1 4.2 C 37.1 3.8 37.1 3.5 36.9 3.2 C 36.8 3 36.6 2.7 36.4 2.6 C 36.1 2.4 35.9 2.2 35.6 2.2 C 35.2 2.1 34.9 2 34.5 2 C 34 2 33.5 2.1 33.1 2.4 C 32.6 2.6 32.3 2.9 32 3.2 C 31.7 3.6 31.4 4 31.3 4.5 C 31.1 4.9 31 5.4 31 5.9 C 31 6.8 31.3 7.5 31.7 8 C 32.2 8.5 32.9 8.8 33.8 8.8 C 34.1 8.8 34.5 8.7 34.8 8.6 C 35.1 8.4 35.4 8.2 35.7 8 Z M 38.5 6.9 C 38.5 6.8 38.5 6.6 38.5 6.5 C 38.5 6.5 42 6.5 42 6.5 C 42 6.4 42 6.4 42 6.3 C 42 6.1 42.1 6 42.1 5.9 C 42.1 5.3 41.9 4.8 41.6 4.4 C 41.3 4 40.8 3.9 40.1 3.9 C 39.8 3.9 39.5 3.9 39.2 4.1 C 38.9 4.2 38.6 4.4 38.4 4.7 C 38.2 4.9 38 5.3 37.9 5.6 C 37.8 6 37.7 6.4 37.7 6.8 C 37.7 7.1 37.7 7.3 37.8 7.5 C 37.8 7.7 37.9 7.9 38.1 8.1 C 38.2 8.3 38.4 8.4 38.7 8.5 C 39 8.7 39.3 8.7 39.7 8.7 C 39.9 8.7 40.2 8.7 40.4 8.6 C 40.6 8.5 40.8 8.4 41 8.3 C 41.2 8.2 41.3 8 41.5 7.8 C 41.6 7.6 41.7 7.4 41.8 7.2 C 41.8 7.2 41 7.2 41 7.2 C 40.9 7.4 40.7 7.7 40.5 7.8 C 40.3 8 40 8 39.7 8 C 39.5 8 39.4 8 39.2 8 C 39.1 7.9 38.9 7.8 38.8 7.8 C 38.7 7.7 38.6 7.5 38.6 7.4 C 38.5 7.3 38.5 7.1 38.5 6.9 C 38.5 6.9 38.5 6.9 38.5 6.9 Z M 41.3 5.8 C 41.3 5.8 38.6 5.8 38.6 5.8 C 38.6 5.7 38.7 5.5 38.8 5.3 C 38.9 5.2 39 5 39.1 4.9 C 39.3 4.8 39.4 4.7 39.6 4.6 C 39.8 4.6 40 4.5 40.2 4.5 C 40.4 4.5 40.6 4.6 40.7 4.6 C 40.9 4.7 41 4.8 41.1 4.9 C 41.2 5.1 41.2 5.2 41.3 5.4 C 41.3 5.5 41.3 5.7 41.3 5.8 Z M 43.4 4 L 42.5 8.6 L 43.2 8.6 C 43.2 8.6 43.68 6.55 43.7 6.6 C 43.7 6.4 43.8 6.2 43.8 6 C 43.9 5.8 44 5.6 44.1 5.5 C 44.2 5.3 44.3 5.1 44.5 5 C 44.7 4.9 44.9 4.8 45.1 4.7 C 45.2 4.7 45.2 4.7 45.3 4.7 C 45.3 4.7 45.4 4.7 45.5 4.7 C 45.5 4.7 45.6 4.7 45.6 4.7 C 45.7 4.7 45.7 4.7 45.7 4.7 C 45.7 4.7 45.9 3.9 45.9 3.9 C 45.9 3.8 45.8 3.8 45.8 3.8 C 45.7 3.8 45.7 3.9 45.7 3.9 C 45.3 3.9 44.9 4 44.7 4.2 C 44.4 4.4 44.1 4.6 44 5 C 43.96 4.96 43.9 5 43.9 5 L 44.2 4 L 43.4 4 Z M 46.9 2.2 L 45.6 8.6 L 46.3 8.6 L 47.7 2.2 L 46.9 2.2 Z M 49.6 3.1 L 49.8 2.2 L 49 2.2 L 48.8 3.1 L 49.6 3.1 Z M 48.6 4 L 47.7 8.6 L 48.4 8.6 L 49.4 4 L 48.6 4 Z M 50.6 6.9 C 50.6 6.8 50.6 6.6 50.7 6.5 C 50.7 6.5 54.2 6.5 54.2 6.5 C 54.2 6.4 54.2 6.4 54.2 6.3 C 54.2 6.1 54.2 6 54.2 5.9 C 54.2 5.3 54.1 4.8 53.8 4.4 C 53.5 4 53 3.9 52.3 3.9 C 52 3.9 51.6 3.9 51.4 4.1 C 51.1 4.2 50.8 4.4 50.6 4.7 C 50.4 4.9 50.2 5.3 50.1 5.6 C 49.9 6 49.9 6.4 49.9 6.8 C 49.9 7.1 49.9 7.3 50 7.5 C 50 7.7 50.1 7.9 50.3 8.1 C 50.4 8.3 50.6 8.4 50.9 8.5 C 51.1 8.7 51.5 8.7 51.8 8.7 C 52.1 8.7 52.3 8.7 52.6 8.6 C 52.8 8.5 53 8.4 53.2 8.3 C 53.4 8.2 53.5 8 53.7 7.8 C 53.8 7.6 53.9 7.4 54 7.2 C 54 7.2 53.2 7.2 53.2 7.2 C 53.1 7.4 52.9 7.7 52.7 7.8 C 52.5 8 52.2 8 51.8 8 C 51.7 8 51.5 8 51.4 8 C 51.3 7.9 51.1 7.8 51 7.8 C 50.9 7.7 50.8 7.5 50.7 7.4 C 50.7 7.3 50.6 7.1 50.6 6.9 C 50.6 6.9 50.6 6.9 50.6 6.9 Z M 53.5 5.8 C 53.5 5.8 50.8 5.8 50.8 5.8 C 50.8 5.7 50.9 5.5 51 5.3 C 51.1 5.2 51.2 5 51.3 4.9 C 51.5 4.8 51.6 4.7 51.8 4.6 C 52 4.6 52.2 4.5 52.4 4.5 C 52.6 4.5 52.8 4.6 52.9 4.6 C 53.1 4.7 53.2 4.8 53.3 4.9 C 53.4 5.1 53.4 5.2 53.4 5.4 C 53.5 5.5 53.5 5.7 53.5 5.8 Z M 60.7 2.2 L 56.8 8.6 L 57.8 8.6 L 58.9 6.7 L 61.6 6.7 L 61.9 8.6 L 62.8 8.6 L 61.6 2.2 L 60.7 2.2 Z M 59.3 6 L 61 2.9 L 61 2.9 L 61.5 6 L 59.3 6 Z M 64.3 4 L 63.4 8.6 L 64.1 8.6 C 64.1 8.6 64.65 6.04 64.7 6 C 64.7 5.9 64.8 5.7 64.8 5.5 C 64.9 5.3 65 5.2 65.2 5.1 C 65.3 4.9 65.5 4.8 65.7 4.7 C 65.9 4.6 66.1 4.5 66.3 4.5 C 66.5 4.5 66.7 4.6 66.9 4.7 C 67 4.8 67.1 5 67.1 5.2 C 67.1 5.2 67.1 5.3 67.1 5.3 C 67.1 5.4 67.1 5.5 67.1 5.5 C 67.1 5.6 67.1 5.7 67 5.7 C 67 5.8 67 5.8 67 5.9 C 67.02 5.89 66.4 8.6 66.4 8.6 L 67.2 8.6 C 67.2 8.6 67.76 5.96 67.8 6 C 67.8 5.8 67.8 5.6 67.9 5.4 C 67.9 5.3 67.9 5.2 67.9 5 C 67.9 4.6 67.8 4.3 67.6 4.1 C 67.4 3.9 67 3.9 66.6 3.9 C 66.3 3.9 66 3.9 65.7 4.1 C 65.4 4.2 65.1 4.4 64.9 4.7 C 64.94 4.66 64.9 4.7 64.9 4.7 L 65.1 4 L 64.3 4 Z M 69.4 4 L 68.5 8.6 L 69.2 8.6 C 69.2 8.6 69.75 6.04 69.7 6 C 69.8 5.9 69.9 5.7 69.9 5.5 C 70 5.3 70.1 5.2 70.3 5.1 C 70.4 4.9 70.6 4.8 70.8 4.7 C 71 4.6 71.2 4.5 71.4 4.5 C 71.6 4.5 71.8 4.6 72 4.7 C 72.1 4.8 72.2 5 72.2 5.2 C 72.2 5.2 72.2 5.3 72.2 5.3 C 72.2 5.4 72.2 5.5 72.2 5.5 C 72.2 5.6 72.2 5.7 72.1 5.7 C 72.1 5.8 72.1 5.8 72.1 5.9 C 72.11 5.89 71.5 8.6 71.5 8.6 L 72.3 8.6 C 72.3 8.6 72.85 5.96 72.9 6 C 72.9 5.8 72.9 5.6 73 5.4 C 73 5.3 73 5.2 73 5 C 73 4.6 72.9 4.3 72.7 4.1 C 72.5 3.9 72.1 3.9 71.7 3.9 C 71.4 3.9 71.1 3.9 70.8 4.1 C 70.5 4.2 70.2 4.4 70 4.7 C 70.03 4.66 70 4.7 70 4.7 L 70.2 4 L 69.4 4 Z M 81.2 8 C 81.19 7.97 81.2 8.6 81.2 8.6 L 81.8 8.6 L 82.5 5.2 L 79.7 5.2 L 79.5 5.9 C 79.5 5.9 81.59 5.95 81.6 5.9 C 81.5 6.3 81.4 6.5 81.3 6.8 C 81.2 7.1 81 7.3 80.8 7.5 C 80.6 7.6 80.4 7.8 80.2 7.9 C 79.9 8 79.6 8 79.3 8 C 78.9 8 78.7 8 78.4 7.9 C 78.2 7.8 78 7.6 77.8 7.5 C 77.7 7.3 77.6 7.1 77.5 6.8 C 77.4 6.5 77.4 6.3 77.4 5.9 C 77.4 5.6 77.4 5.2 77.5 4.8 C 77.6 4.4 77.8 4.1 78 3.8 C 78.3 3.5 78.5 3.2 78.9 3 C 79.2 2.8 79.6 2.8 80 2.8 C 80.3 2.8 80.5 2.8 80.7 2.8 C 80.9 2.9 81.1 3 81.3 3.1 C 81.4 3.2 81.5 3.4 81.6 3.5 C 81.7 3.7 81.8 3.9 81.8 4.2 C 81.8 4.2 82.6 4.2 82.6 4.2 C 82.6 3.8 82.6 3.5 82.4 3.2 C 82.3 3 82.1 2.7 81.9 2.6 C 81.6 2.4 81.4 2.2 81 2.2 C 80.7 2.1 80.4 2 80 2 C 79.5 2 79 2.1 78.6 2.4 C 78.1 2.6 77.8 2.9 77.5 3.2 C 77.2 3.6 76.9 4 76.8 4.5 C 76.6 4.9 76.5 5.4 76.5 5.9 C 76.5 6.8 76.8 7.5 77.2 8 C 77.7 8.5 78.4 8.8 79.3 8.8 C 79.6 8.8 80 8.7 80.3 8.6 C 80.6 8.4 80.9 8.2 81.2 8 Z M 83.2 6.8 C 83.2 7.1 83.3 7.3 83.4 7.6 C 83.5 7.8 83.6 8 83.8 8.2 C 83.9 8.3 84.1 8.5 84.4 8.6 C 84.6 8.7 84.9 8.7 85.2 8.7 C 85.6 8.7 86 8.6 86.3 8.5 C 86.6 8.3 86.9 8.1 87.1 7.8 C 87.3 7.5 87.5 7.2 87.6 6.9 C 87.7 6.5 87.8 6.2 87.8 5.8 C 87.8 5.1 87.6 4.7 87.3 4.3 C 87 4 86.5 3.9 85.8 3.9 C 85.4 3.9 85.1 3.9 84.8 4.1 C 84.4 4.3 84.2 4.5 83.9 4.7 C 83.7 5 83.5 5.3 83.4 5.7 C 83.3 6 83.2 6.4 83.2 6.8 Z M 84 6.8 C 84 6.5 84 6.3 84.1 6 C 84.2 5.7 84.3 5.5 84.5 5.3 C 84.6 5.1 84.8 4.9 85 4.7 C 85.2 4.6 85.5 4.5 85.8 4.5 C 86 4.5 86.2 4.6 86.3 4.6 C 86.5 4.7 86.6 4.8 86.7 4.9 C 86.8 5 86.9 5.2 86.9 5.3 C 87 5.5 87 5.7 87 5.8 C 87 6.1 87 6.3 86.9 6.6 C 86.8 6.8 86.7 7.1 86.6 7.3 C 86.4 7.5 86.2 7.7 86 7.8 C 85.8 8 85.6 8 85.3 8 C 84.9 8 84.6 7.9 84.3 7.7 C 84.1 7.5 84 7.2 84 6.8 Z M 89.3 4 L 88.3 8.6 L 89.1 8.6 C 89.1 8.6 89.61 6.04 89.6 6 C 89.7 5.9 89.7 5.7 89.8 5.5 C 89.9 5.3 90 5.2 90.1 5.1 C 90.3 4.9 90.4 4.8 90.6 4.7 C 90.9 4.6 91.1 4.5 91.3 4.5 C 91.5 4.5 91.7 4.6 91.9 4.7 C 92 4.8 92.1 5 92.1 5.2 C 92.1 5.2 92.1 5.3 92.1 5.3 C 92.1 5.4 92.1 5.5 92 5.5 C 92 5.6 92 5.7 92 5.7 C 92 5.8 92 5.8 92 5.9 C 91.98 5.89 91.4 8.6 91.4 8.6 L 92.1 8.6 C 92.1 8.6 92.71 5.96 92.7 6 C 92.8 5.8 92.8 5.6 92.8 5.4 C 92.8 5.3 92.8 5.2 92.8 5 C 92.8 4.6 92.7 4.3 92.5 4.1 C 92.3 3.9 92 3.9 91.6 3.9 C 91.2 3.9 90.9 3.9 90.6 4.1 C 90.3 4.2 90.1 4.4 89.9 4.7 C 89.9 4.66 89.9 4.7 89.9 4.7 L 90 4 L 89.3 4 Z M 93.1 8 L 93 8.6 L 96.8 8.6 L 96.9 7.9 L 94.1 7.9 L 97.4 4.5 L 97.5 4 L 93.9 4 L 93.8 4.6 L 96.3 4.6 L 93.1 8 Z M 98 5.4 C 98 5.4 98.8 5.4 98.8 5.4 C 98.8 5.2 98.8 5.1 98.9 5 C 99 4.9 99.1 4.8 99.2 4.7 C 99.3 4.7 99.5 4.6 99.6 4.6 C 99.7 4.5 99.9 4.5 100 4.5 C 100.1 4.5 100.2 4.5 100.3 4.6 C 100.5 4.6 100.6 4.6 100.6 4.6 C 100.7 4.7 100.8 4.8 100.9 4.8 C 100.9 4.9 101 5 101 5.1 C 101 5.3 100.9 5.4 100.9 5.5 C 100.8 5.6 100.8 5.7 100.7 5.7 C 100.6 5.8 100.5 5.8 100.3 5.8 C 100.2 5.8 100 5.9 99.8 5.9 C 99.5 5.9 99.3 5.9 99 6 C 98.7 6 98.5 6.1 98.2 6.2 C 98 6.3 97.8 6.4 97.7 6.6 C 97.5 6.8 97.4 7.1 97.4 7.4 C 97.4 7.6 97.5 7.8 97.6 8 C 97.6 8.2 97.7 8.3 97.9 8.4 C 98 8.5 98.1 8.6 98.3 8.6 C 98.5 8.7 98.7 8.7 98.9 8.7 C 99.3 8.7 99.6 8.7 99.8 8.5 C 100.1 8.4 100.3 8.3 100.4 8 C 100.4 8 100.4 8.1 100.4 8.1 C 100.4 8.3 100.5 8.4 100.6 8.5 C 100.7 8.7 100.8 8.7 101 8.7 C 101.1 8.7 101.2 8.7 101.3 8.7 C 101.4 8.7 101.4 8.6 101.5 8.6 C 101.5 8.6 101.6 8 101.6 8 C 101.6 8.1 101.5 8.1 101.5 8.1 C 101.5 8.1 101.4 8.1 101.4 8.1 C 101.3 8.1 101.3 8.1 101.2 8 C 101.2 8 101.2 7.9 101.2 7.8 C 101.2 7.7 101.2 7.6 101.2 7.5 C 101.2 7.4 101.3 7.3 101.3 7.2 C 101.3 7.2 101.6 5.9 101.6 5.9 C 101.6 5.8 101.6 5.6 101.7 5.5 C 101.7 5.3 101.7 5.2 101.7 5 C 101.7 4.8 101.7 4.6 101.6 4.5 C 101.5 4.3 101.4 4.2 101.2 4.1 C 101.1 4 100.9 3.9 100.7 3.9 C 100.5 3.9 100.3 3.9 100 3.9 C 99.8 3.9 99.5 3.9 99.3 3.9 C 99.1 4 98.9 4.1 98.7 4.2 C 98.5 4.3 98.4 4.5 98.2 4.7 C 98.1 4.9 98 5.1 98 5.4 Z M 98.2 7.4 C 98.2 7.2 98.3 7 98.4 6.9 C 98.5 6.8 98.6 6.7 98.7 6.7 C 98.9 6.6 99 6.6 99.2 6.5 C 99.4 6.5 99.6 6.5 99.8 6.5 C 100 6.5 100.2 6.4 100.3 6.4 C 100.5 6.4 100.6 6.3 100.7 6.2 C 100.7 6.2 100.8 6.2 100.8 6.2 C 100.7 6.5 100.6 6.7 100.6 6.9 C 100.6 7.1 100.5 7.3 100.3 7.4 C 100.1 7.8 99.6 8 99 8 C 98.8 8 98.6 8 98.5 7.9 C 98.3 7.8 98.2 7.6 98.2 7.4 Z M 103.6 2.2 L 102.3 8.6 L 103 8.6 L 104.4 2.2 L 103.6 2.2 Z M 105.2 6.9 C 105.2 6.8 105.2 6.6 105.3 6.5 C 105.3 6.5 108.8 6.5 108.8 6.5 C 108.8 6.4 108.8 6.4 108.8 6.3 C 108.8 6.1 108.8 6 108.8 5.9 C 108.8 5.3 108.7 4.8 108.4 4.4 C 108 4 107.5 3.9 106.9 3.9 C 106.5 3.9 106.2 3.9 105.9 4.1 C 105.7 4.2 105.4 4.4 105.2 4.7 C 105 4.9 104.8 5.3 104.7 5.6 C 104.5 6 104.5 6.4 104.5 6.8 C 104.5 7.1 104.5 7.3 104.6 7.5 C 104.6 7.7 104.7 7.9 104.9 8.1 C 105 8.3 105.2 8.4 105.5 8.5 C 105.7 8.7 106.1 8.7 106.4 8.7 C 106.7 8.7 106.9 8.7 107.2 8.6 C 107.4 8.5 107.6 8.4 107.8 8.3 C 108 8.2 108.1 8 108.3 7.8 C 108.4 7.6 108.5 7.4 108.5 7.2 C 108.5 7.2 107.8 7.2 107.8 7.2 C 107.7 7.4 107.5 7.7 107.3 7.8 C 107.1 8 106.8 8 106.4 8 C 106.3 8 106.1 8 106 8 C 105.8 7.9 105.7 7.8 105.6 7.8 C 105.5 7.7 105.4 7.5 105.3 7.4 C 105.3 7.3 105.2 7.1 105.2 6.9 C 105.2 6.9 105.2 6.9 105.2 6.9 Z M 108.1 5.8 C 108.1 5.8 105.4 5.8 105.4 5.8 C 105.4 5.7 105.5 5.5 105.6 5.3 C 105.7 5.2 105.8 5 105.9 4.9 C 106 4.8 106.2 4.7 106.4 4.6 C 106.6 4.6 106.8 4.5 107 4.5 C 107.2 4.5 107.4 4.6 107.5 4.6 C 107.7 4.7 107.8 4.8 107.9 4.9 C 107.9 5.1 108 5.2 108 5.4 C 108.1 5.5 108.1 5.7 108.1 5.8 Z M 112.5 5.3 C 112.5 5.3 113.3 5.3 113.3 5.3 C 113.3 5.1 113.2 4.8 113.1 4.6 C 113 4.5 112.9 4.3 112.7 4.2 C 112.5 4.1 112.4 4 112.1 3.9 C 111.9 3.9 111.7 3.9 111.5 3.9 C 111.3 3.9 111.1 3.9 110.9 3.9 C 110.7 4 110.5 4.1 110.3 4.2 C 110.2 4.3 110 4.4 109.9 4.6 C 109.8 4.8 109.8 5 109.8 5.2 C 109.8 5.4 109.8 5.5 109.9 5.7 C 110 5.8 110 5.9 110.2 6 C 110.3 6.1 110.4 6.2 110.6 6.3 C 110.7 6.3 110.9 6.4 111 6.5 C 111.2 6.5 111.3 6.6 111.5 6.6 C 111.6 6.7 111.7 6.8 111.8 6.8 C 112 6.9 112.1 7 112.1 7 C 112.2 7.1 112.2 7.2 112.2 7.3 C 112.2 7.5 112.2 7.6 112.1 7.7 C 112.1 7.8 112 7.8 111.9 7.9 C 111.8 7.9 111.7 8 111.6 8 C 111.4 8 111.3 8 111.2 8 C 111 8 110.9 8 110.7 8 C 110.6 8 110.4 7.9 110.3 7.9 C 110.2 7.8 110.1 7.7 110.1 7.6 C 110 7.5 110 7.3 110 7.1 C 110 7.1 109.2 7.1 109.2 7.1 C 109.2 7.4 109.3 7.7 109.4 7.9 C 109.5 8.1 109.6 8.3 109.8 8.4 C 109.9 8.5 110.1 8.6 110.4 8.6 C 110.6 8.7 110.8 8.7 111.1 8.7 C 111.3 8.7 111.6 8.7 111.8 8.6 C 112 8.6 112.2 8.5 112.4 8.4 C 112.6 8.3 112.7 8.1 112.8 7.9 C 112.9 7.8 113 7.5 113 7.3 C 113 7.1 113 6.9 112.9 6.8 C 112.8 6.7 112.7 6.6 112.6 6.5 C 112.5 6.4 112.4 6.3 112.2 6.2 C 112.1 6.1 111.9 6 111.8 6 C 111.6 5.9 111.5 5.9 111.3 5.8 C 111.2 5.7 111 5.7 110.9 5.6 C 110.8 5.5 110.7 5.5 110.6 5.4 C 110.6 5.3 110.5 5.2 110.5 5.1 C 110.5 5 110.6 4.9 110.6 4.8 C 110.7 4.8 110.8 4.7 110.9 4.6 C 111 4.6 111.1 4.6 111.2 4.6 C 111.3 4.5 111.4 4.5 111.5 4.5 C 111.8 4.5 112 4.6 112.2 4.7 C 112.4 4.9 112.5 5.1 112.5 5.3 Z " stroke="none" fill="#000"/>
  </g>
</svg>