<?xml version="1.0" standalone="no"?>
<!DOCTYPE svg PUBLIC "-//W3C//DTD SVG 1.1//EN" "http://www.w3.org/Graphics/SVG/1.1/DTD/svg11.dtd">
<svg xmlns="http://www.w3.org/2000/svg" version="1.1" width="470.4px" height="31.8px" viewBox="0 -7 470.4 31.8" style="top:-7px">
  <desc>FLY HIGH:</desc>
  <defs/>
  <g id="Polygon33961">
    <path d="M 1.3 0.7 L 9.2 0.7 L 9.2 3 L 4.2 3 L 4.2 6.4 L 8 6.4 L 8 8.7 L 4.2 8.7 L 4.2 14 L 1.3 14 L 1.3 0.7 Z M 10.1 0.7 L 13 0.7 L 13 11.5 L 17.3 11.5 L 17.3 14 L 10.1 14 L 10.1 0.7 Z M 16.2 0.7 L 19.4 0.7 L 21.3 5.5 L 23.3 0.7 L 26.2 0.7 L 22.5 8.4 L 22.5 14 L 19.5 14 L 19.5 8.4 L 16.2 0.7 Z M 36.2 0.7 L 39.1 0.7 L 39.1 6.1 L 42.3 6.1 L 42.3 0.7 L 45.3 0.7 L 45.3 14 L 42.3 14 L 42.3 8.6 L 39.1 8.6 L 39.1 14 L 36.2 14 L 36.2 0.7 Z M 47.8 0.7 L 50.7 0.7 L 50.7 14 L 47.8 14 L 47.8 0.7 Z M 57.9 6.9 L 62.5 6.9 L 62.5 14 L 61.3 14 C 61.3 14 60.92 12.48 60.9 12.5 C 60.2 13.6 59.1 14.2 57.7 14.2 C 56.2 14.2 55 13.6 54.1 12.4 C 53.2 11.2 52.8 9.6 52.8 7.6 C 52.8 5.4 53.2 3.7 54.1 2.4 C 54.9 1.1 56.2 0.5 57.9 0.5 C 60.7 0.5 62.2 2 62.5 5 C 62.5 5 59.9 5.5 59.9 5.5 C 59.7 3.7 59.1 2.9 58 2.9 C 57.4 2.9 56.8 3.2 56.4 3.8 C 56 4.5 55.8 5.7 55.8 7.5 C 55.8 9.1 56 10.2 56.4 10.8 C 56.8 11.5 57.4 11.8 58.1 11.8 C 59.3 11.8 59.9 10.9 59.9 9.2 C 59.9 9.18 57.9 9.2 57.9 9.2 L 57.9 6.9 Z M 64.8 0.7 L 67.8 0.7 L 67.8 6.1 L 71 6.1 L 71 0.7 L 73.9 0.7 L 73.9 14 L 71 14 L 71 8.6 L 67.8 8.6 L 67.8 14 L 64.8 14 L 64.8 0.7 Z M 76.3 4.1 L 79.1 4.1 L 79.1 7.1 L 76.3 7.1 L 76.3 4.1 Z M 76.3 11.1 L 79.1 11.1 L 79.1 14 L 76.3 14 L 76.3 11.1 Z " stroke="none" fill="#000"/>
  </g>
</svg>