<?xml version="1.0" standalone="no"?>
<!DOCTYPE svg PUBLIC "-//W3C//DTD SVG 1.1//EN" "http://www.w3.org/Graphics/SVG/1.1/DTD/svg11.dtd">
<svg xmlns="http://www.w3.org/2000/svg" version="1.1" width="106px" height="20px" viewBox="0 -3 106 20" style="top:-3px">
  <desc>Kuha ni Monica Hernaez</desc>
  <defs/>
  <g id="Polygon24801">
    <path d="M 0.5 1.7 L 1.5 1.7 L 1.5 10.7 L 0.5 10.7 L 0.5 1.7 Z M 5.4 2.3 L 6.6 2.3 L 6 5.3 L 6 5.3 L 9.2 2.3 L 10.7 2.3 L 7.7 5 L 9.7 8.8 L 8.4 8.8 L 6.8 5.7 L 5.7 6.7 L 5.2 8.8 L 4.1 8.8 L 5.4 2.3 Z M 14.3 8.8 L 13.3 8.8 L 13.5 8.1 C 13.5 8.1 13.46 8.08 13.5 8.1 C 13.3 8.3 13 8.5 12.8 8.7 C 12.5 8.8 12.2 8.9 11.9 8.9 C 11.4 8.9 11 8.8 10.8 8.6 C 10.6 8.3 10.5 8 10.5 7.7 C 10.5 7.6 10.5 7.5 10.5 7.4 C 10.5 7.3 10.5 7.2 10.5 7.1 C 10.54 7.09 11.2 4.1 11.2 4.1 L 12.2 4.1 C 12.2 4.1 11.59 6.99 11.6 7 C 11.6 7.1 11.6 7.1 11.5 7.2 C 11.5 7.3 11.5 7.4 11.5 7.4 C 11.5 7.5 11.5 7.5 11.5 7.6 C 11.5 7.7 11.6 7.7 11.6 7.8 C 11.6 7.9 11.7 8 11.8 8 C 11.9 8.1 12 8.1 12.2 8.1 C 12.4 8.1 12.6 8 12.8 8 C 12.9 7.9 13.1 7.8 13.2 7.6 C 13.3 7.5 13.4 7.3 13.5 7.2 C 13.6 7 13.7 6.8 13.7 6.6 C 13.71 6.64 14.2 4.1 14.2 4.1 L 15.3 4.1 L 14.3 8.8 Z M 16.8 2.3 L 17.8 2.3 L 17.3 4.8 C 17.3 4.8 17.36 4.78 17.4 4.8 C 17.5 4.5 17.8 4.4 18 4.2 C 18.3 4.1 18.6 4 18.9 4 C 19.4 4 19.7 4.1 19.9 4.3 C 20.1 4.6 20.3 4.9 20.3 5.2 C 20.3 5.3 20.2 5.4 20.2 5.5 C 20.2 5.6 20.2 5.7 20.2 5.8 C 20.21 5.8 19.6 8.8 19.6 8.8 L 18.6 8.8 C 18.6 8.8 19.15 5.9 19.2 5.9 C 19.2 5.8 19.2 5.8 19.2 5.7 C 19.2 5.6 19.2 5.5 19.2 5.5 C 19.2 5.4 19.2 5.4 19.2 5.3 C 19.2 5.2 19.2 5.2 19.2 5.1 C 19.1 5 19 4.9 18.9 4.9 C 18.8 4.8 18.7 4.8 18.5 4.8 C 18.3 4.8 18.1 4.8 18 4.9 C 17.8 5 17.7 5.1 17.5 5.3 C 17.4 5.4 17.3 5.5 17.2 5.7 C 17.1 5.9 17.1 6.1 17 6.3 C 17.04 6.25 16.5 8.8 16.5 8.8 L 15.5 8.8 L 16.8 2.3 Z M 21.8 7.5 C 21.8 7.6 21.8 7.7 21.9 7.8 C 21.9 7.9 22 7.9 22.1 8 C 22.1 8 22.2 8 22.3 8.1 C 22.4 8.1 22.5 8.1 22.6 8.1 C 22.9 8.1 23.1 8 23.3 8 C 23.4 7.9 23.6 7.8 23.7 7.6 C 23.8 7.5 23.9 7.3 23.9 7.1 C 24 6.9 24 6.7 24.1 6.5 C 24.1 6.5 24.1 6.5 24.1 6.5 C 24 6.5 23.9 6.6 23.8 6.6 C 23.7 6.7 23.5 6.7 23.4 6.7 C 23.3 6.7 23.1 6.7 22.9 6.7 C 22.7 6.7 22.6 6.8 22.4 6.8 C 22.2 6.9 22.1 6.9 22 7.1 C 21.9 7.2 21.8 7.3 21.8 7.5 Z M 24.9 7.4 C 24.9 7.5 24.8 7.6 24.8 7.7 C 24.8 7.7 24.8 7.8 24.8 7.9 C 24.8 8 24.8 8 24.8 8 C 24.9 8.1 24.9 8.1 25 8.1 C 25.1 8.1 25.1 8.1 25.2 8.1 C 25.3 8.1 25.3 8 25.4 8 C 25.4 8 25.2 8.8 25.2 8.8 C 25.1 8.8 24.9 8.8 24.8 8.9 C 24.7 8.9 24.5 8.9 24.4 8.9 C 24.2 8.9 24.1 8.8 24 8.7 C 23.9 8.6 23.8 8.5 23.8 8.3 C 23.6 8.5 23.3 8.7 23.1 8.8 C 22.8 8.9 22.5 8.9 22.2 8.9 C 22 8.9 21.8 8.9 21.7 8.8 C 21.5 8.8 21.3 8.7 21.2 8.6 C 21.1 8.5 21 8.4 20.9 8.2 C 20.8 8 20.8 7.9 20.8 7.7 C 20.8 7.4 20.8 7.1 20.9 6.9 C 21 6.7 21.2 6.6 21.4 6.5 C 21.5 6.3 21.8 6.2 22 6.2 C 22.2 6.1 22.5 6.1 22.7 6.1 C 23.1 6 23.4 6 23.8 6 C 23.9 6 24.1 5.9 24.2 5.8 C 24.2 5.7 24.3 5.5 24.3 5.4 C 24.3 5.1 24.2 5 24.1 4.9 C 23.9 4.8 23.7 4.8 23.5 4.8 C 23.2 4.8 23 4.9 22.8 5 C 22.6 5.1 22.4 5.2 22.3 5.5 C 22.3 5.5 21.4 5.5 21.4 5.5 C 21.4 5.2 21.5 5 21.7 4.8 C 21.8 4.6 21.9 4.5 22.1 4.3 C 22.3 4.2 22.6 4.1 22.8 4.1 C 23 4 23.3 4 23.6 4 C 24 4 24.3 4 24.6 4.1 C 24.8 4.2 25 4.3 25.1 4.4 C 25.2 4.5 25.3 4.6 25.3 4.8 C 25.3 4.9 25.3 5 25.3 5.1 C 25.3 5.3 25.3 5.5 25.2 5.8 C 25.2 5.8 24.9 7.4 24.9 7.4 Z M 28.8 4.1 L 29.8 4.1 L 29.6 4.8 C 29.6 4.8 29.64 4.81 29.6 4.8 C 29.8 4.6 30.1 4.4 30.3 4.2 C 30.6 4.1 30.9 4 31.2 4 C 31.7 4 32.1 4.1 32.3 4.3 C 32.5 4.6 32.6 4.9 32.6 5.2 C 32.6 5.3 32.6 5.4 32.6 5.5 C 32.6 5.6 32.6 5.7 32.6 5.8 C 32.56 5.8 31.9 8.8 31.9 8.8 L 30.9 8.8 C 30.9 8.8 31.5 5.9 31.5 5.9 C 31.5 5.8 31.5 5.8 31.6 5.7 C 31.6 5.6 31.6 5.5 31.6 5.5 C 31.6 5.4 31.6 5.4 31.6 5.3 C 31.6 5.2 31.5 5.2 31.5 5.1 C 31.5 5 31.4 4.9 31.3 4.9 C 31.2 4.8 31.1 4.8 30.9 4.8 C 30.7 4.8 30.5 4.8 30.3 4.9 C 30.2 5 30 5.1 29.9 5.3 C 29.8 5.4 29.7 5.5 29.6 5.7 C 29.5 5.9 29.4 6.1 29.4 6.3 C 29.39 6.25 28.9 8.8 28.9 8.8 L 27.8 8.8 L 28.8 4.1 Z M 34.4 2.3 L 35.4 2.3 L 35.2 3.3 L 34.2 3.3 L 34.4 2.3 Z M 34.1 4.1 L 35.1 4.1 L 34.1 8.8 L 33.1 8.8 L 34.1 4.1 Z M 38.8 2.3 L 40.4 2.3 L 41.1 7.2 L 41.1 7.2 L 43.9 2.3 L 45.5 2.3 L 44.2 8.8 L 43.1 8.8 L 44.2 3.6 L 44.2 3.6 L 41.3 8.8 L 40.4 8.8 L 39.6 3.6 L 39.6 3.6 L 38.6 8.8 L 37.5 8.8 L 38.8 2.3 Z M 48.3 4.8 C 48 4.8 47.8 4.9 47.6 5 C 47.4 5.1 47.2 5.3 47.1 5.5 C 46.9 5.7 46.8 5.9 46.8 6.2 C 46.7 6.4 46.7 6.7 46.7 6.9 C 46.7 7.2 46.8 7.5 46.9 7.7 C 47.1 8 47.4 8.1 47.8 8.1 C 48 8.1 48.3 8 48.4 7.9 C 48.6 7.8 48.8 7.6 48.9 7.4 C 49.1 7.2 49.2 7 49.2 6.7 C 49.3 6.5 49.3 6.2 49.3 6 C 49.3 5.7 49.2 5.4 49.1 5.1 C 48.9 4.9 48.6 4.8 48.3 4.8 Z M 47.7 8.9 C 47 8.9 46.5 8.7 46.2 8.4 C 45.8 8 45.7 7.5 45.7 6.9 C 45.7 6.5 45.7 6.1 45.9 5.8 C 46 5.4 46.2 5.1 46.4 4.9 C 46.6 4.6 46.9 4.4 47.2 4.2 C 47.6 4.1 47.9 4 48.3 4 C 49 4 49.5 4.2 49.8 4.5 C 50.2 4.8 50.4 5.3 50.4 6 C 50.4 6.4 50.3 6.8 50.2 7.1 C 50.1 7.5 49.9 7.8 49.6 8.1 C 49.4 8.3 49.1 8.5 48.8 8.7 C 48.5 8.8 48.1 8.9 47.7 8.9 Z M 51.8 4.1 L 52.8 4.1 L 52.7 4.8 C 52.7 4.8 52.67 4.81 52.7 4.8 C 52.9 4.6 53.1 4.4 53.4 4.2 C 53.7 4.1 54 4 54.3 4 C 54.7 4 55.1 4.1 55.3 4.3 C 55.5 4.6 55.6 4.9 55.6 5.2 C 55.6 5.3 55.6 5.4 55.6 5.5 C 55.6 5.6 55.6 5.7 55.6 5.8 C 55.59 5.8 55 8.8 55 8.8 L 53.9 8.8 C 53.9 8.8 54.54 5.9 54.5 5.9 C 54.6 5.8 54.6 5.8 54.6 5.7 C 54.6 5.6 54.6 5.5 54.6 5.5 C 54.6 5.4 54.6 5.4 54.6 5.3 C 54.6 5.2 54.6 5.2 54.5 5.1 C 54.5 5 54.4 4.9 54.3 4.9 C 54.2 4.8 54.1 4.8 53.9 4.8 C 53.7 4.8 53.5 4.8 53.4 4.9 C 53.2 5 53.1 5.1 52.9 5.3 C 52.8 5.4 52.7 5.5 52.6 5.7 C 52.5 5.9 52.5 6.1 52.4 6.3 C 52.42 6.25 51.9 8.8 51.9 8.8 L 50.9 8.8 L 51.8 4.1 Z M 57.5 2.3 L 58.5 2.3 L 58.3 3.3 L 57.3 3.3 L 57.5 2.3 Z M 57.1 4.1 L 58.1 4.1 L 57.2 8.8 L 56.1 8.8 L 57.1 4.1 Z M 62.1 5.7 C 62.1 5.4 62 5.2 61.8 5 C 61.7 4.9 61.4 4.8 61.2 4.8 C 60.9 4.8 60.7 4.9 60.5 5 C 60.3 5.1 60.1 5.3 60 5.5 C 59.9 5.7 59.8 5.9 59.7 6.2 C 59.7 6.4 59.6 6.7 59.6 6.9 C 59.6 7.1 59.6 7.2 59.7 7.4 C 59.7 7.5 59.8 7.6 59.9 7.7 C 59.9 7.8 60 7.9 60.2 8 C 60.3 8.1 60.5 8.1 60.7 8.1 C 61 8.1 61.2 8 61.4 7.8 C 61.6 7.7 61.8 7.5 61.8 7.2 C 61.8 7.2 62.9 7.2 62.9 7.2 C 62.7 7.8 62.4 8.2 62 8.5 C 61.6 8.8 61.1 8.9 60.5 8.9 C 60.2 8.9 59.9 8.9 59.7 8.8 C 59.5 8.7 59.3 8.5 59.1 8.3 C 58.9 8.2 58.8 8 58.7 7.7 C 58.6 7.5 58.6 7.2 58.6 6.9 C 58.6 6.5 58.7 6.2 58.8 5.8 C 58.9 5.4 59.1 5.1 59.3 4.9 C 59.5 4.6 59.8 4.4 60.1 4.2 C 60.5 4.1 60.8 4 61.3 4 C 61.5 4 61.8 4 62 4.1 C 62.2 4.2 62.4 4.3 62.6 4.4 C 62.7 4.6 62.9 4.7 63 4.9 C 63.1 5.2 63.1 5.4 63.1 5.7 C 63.1 5.7 62.1 5.7 62.1 5.7 Z M 64.5 7.5 C 64.5 7.6 64.6 7.7 64.6 7.8 C 64.7 7.9 64.7 7.9 64.8 8 C 64.9 8 65 8 65.1 8.1 C 65.2 8.1 65.3 8.1 65.4 8.1 C 65.6 8.1 65.8 8 66 8 C 66.2 7.9 66.3 7.8 66.4 7.6 C 66.5 7.5 66.6 7.3 66.7 7.1 C 66.7 6.9 66.8 6.7 66.8 6.5 C 66.8 6.5 66.8 6.5 66.8 6.5 C 66.7 6.5 66.6 6.6 66.5 6.6 C 66.4 6.7 66.3 6.7 66.2 6.7 C 66 6.7 65.9 6.7 65.7 6.7 C 65.5 6.7 65.3 6.8 65.1 6.8 C 65 6.9 64.8 6.9 64.7 7.1 C 64.6 7.2 64.5 7.3 64.5 7.5 Z M 67.6 7.4 C 67.6 7.5 67.6 7.6 67.6 7.7 C 67.5 7.7 67.5 7.8 67.5 7.9 C 67.5 8 67.5 8 67.6 8 C 67.6 8.1 67.7 8.1 67.7 8.1 C 67.8 8.1 67.9 8.1 67.9 8.1 C 68 8.1 68 8 68.1 8 C 68.1 8 67.9 8.8 67.9 8.8 C 67.8 8.8 67.7 8.8 67.6 8.9 C 67.4 8.9 67.3 8.9 67.1 8.9 C 67 8.9 66.8 8.8 66.7 8.7 C 66.6 8.6 66.5 8.5 66.5 8.3 C 66.3 8.5 66.1 8.7 65.8 8.8 C 65.5 8.9 65.2 8.9 65 8.9 C 64.8 8.9 64.6 8.9 64.4 8.8 C 64.2 8.8 64.1 8.7 63.9 8.6 C 63.8 8.5 63.7 8.4 63.6 8.2 C 63.5 8 63.5 7.9 63.5 7.7 C 63.5 7.4 63.6 7.1 63.7 6.9 C 63.8 6.7 63.9 6.6 64.1 6.5 C 64.3 6.3 64.5 6.2 64.7 6.2 C 65 6.1 65.2 6.1 65.5 6.1 C 65.8 6 66.2 6 66.5 6 C 66.7 6 66.8 5.9 66.9 5.8 C 67 5.7 67 5.5 67 5.4 C 67 5.1 67 5 66.8 4.9 C 66.6 4.8 66.5 4.8 66.2 4.8 C 66 4.8 65.7 4.9 65.5 5 C 65.3 5.1 65.2 5.2 65.1 5.5 C 65.1 5.5 64.1 5.5 64.1 5.5 C 64.2 5.2 64.3 5 64.4 4.8 C 64.5 4.6 64.7 4.5 64.9 4.3 C 65.1 4.2 65.3 4.1 65.5 4.1 C 65.8 4 66 4 66.3 4 C 66.7 4 67.1 4 67.3 4.1 C 67.5 4.2 67.7 4.3 67.8 4.4 C 67.9 4.5 68 4.6 68 4.8 C 68 4.9 68.1 5 68.1 5.1 C 68.1 5.3 68 5.5 68 5.8 C 68 5.8 67.6 7.4 67.6 7.4 Z M 72 2.3 L 73.1 2.3 L 72.6 4.9 L 75.6 4.9 L 76.1 2.3 L 77.2 2.3 L 75.9 8.8 L 74.8 8.8 L 75.4 5.9 L 72.4 5.9 L 71.8 8.8 L 70.6 8.8 L 72 2.3 Z M 80.9 6 C 80.9 6 80.9 6 80.9 6 C 80.9 5.9 80.9 5.9 80.9 5.9 C 80.9 5.9 80.9 5.8 80.9 5.8 C 80.9 5.5 80.8 5.2 80.6 5.1 C 80.5 4.9 80.2 4.8 79.9 4.8 C 79.5 4.8 79.2 4.9 79 5.2 C 78.8 5.4 78.6 5.7 78.5 6 C 78.5 6 80.9 6 80.9 6 Z M 81.6 7.3 C 81.5 7.9 81.2 8.3 80.8 8.5 C 80.4 8.8 80 8.9 79.4 8.9 C 79.1 8.9 78.8 8.9 78.6 8.8 C 78.3 8.7 78.1 8.5 77.9 8.4 C 77.8 8.2 77.6 8 77.5 7.7 C 77.4 7.5 77.4 7.2 77.4 6.9 C 77.4 6.5 77.4 6.2 77.5 5.8 C 77.6 5.5 77.8 5.2 78 4.9 C 78.3 4.6 78.5 4.4 78.8 4.2 C 79.2 4.1 79.5 4 79.9 4 C 80.4 4 80.7 4.1 81 4.2 C 81.2 4.3 81.4 4.5 81.6 4.7 C 81.7 4.9 81.8 5.2 81.8 5.4 C 81.9 5.7 81.9 5.9 81.9 6.1 C 81.9 6.3 81.9 6.4 81.9 6.5 C 81.9 6.5 81.9 6.6 81.9 6.7 C 81.9 6.7 78.4 6.7 78.4 6.7 C 78.4 6.7 78.4 6.8 78.4 6.8 C 78.4 6.8 78.4 6.8 78.4 6.9 C 78.4 6.9 78.4 7 78.4 7 C 78.4 7.3 78.5 7.6 78.6 7.8 C 78.8 8 79.1 8.1 79.5 8.1 C 79.8 8.1 80 8 80.2 7.9 C 80.4 7.8 80.5 7.6 80.6 7.3 C 80.6 7.3 81.6 7.3 81.6 7.3 Z M 83.2 4.1 L 84.2 4.1 L 84 5 C 84 5 84.02 5.05 84 5 C 84.1 4.9 84.2 4.8 84.3 4.7 C 84.4 4.5 84.5 4.4 84.6 4.3 C 84.8 4.2 84.9 4.2 85 4.1 C 85.2 4 85.3 4 85.5 4 C 85.6 4 85.7 4 85.8 4 C 85.8 4 85.9 4 86 4 C 86 4 85.8 5 85.8 5 C 85.7 5 85.7 5 85.6 5 C 85.5 5 85.5 5 85.4 5 C 85.2 5 84.9 5 84.7 5.1 C 84.5 5.2 84.4 5.3 84.2 5.5 C 84.1 5.7 84 5.8 83.9 6 C 83.8 6.3 83.8 6.5 83.7 6.7 C 83.72 6.71 83.3 8.8 83.3 8.8 L 82.3 8.8 L 83.2 4.1 Z M 86.6 4.1 L 87.6 4.1 L 87.5 4.8 C 87.5 4.8 87.48 4.81 87.5 4.8 C 87.7 4.6 87.9 4.4 88.2 4.2 C 88.5 4.1 88.8 4 89.1 4 C 89.5 4 89.9 4.1 90.1 4.3 C 90.3 4.6 90.4 4.9 90.4 5.2 C 90.4 5.3 90.4 5.4 90.4 5.5 C 90.4 5.6 90.4 5.7 90.4 5.8 C 90.4 5.8 89.8 8.8 89.8 8.8 L 88.7 8.8 C 88.7 8.8 89.34 5.9 89.3 5.9 C 89.4 5.8 89.4 5.8 89.4 5.7 C 89.4 5.6 89.4 5.5 89.4 5.5 C 89.4 5.4 89.4 5.4 89.4 5.3 C 89.4 5.2 89.4 5.2 89.3 5.1 C 89.3 5 89.2 4.9 89.1 4.9 C 89 4.8 88.9 4.8 88.7 4.8 C 88.5 4.8 88.3 4.8 88.2 4.9 C 88 5 87.9 5.1 87.7 5.3 C 87.6 5.4 87.5 5.5 87.4 5.7 C 87.3 5.9 87.3 6.1 87.2 6.3 C 87.23 6.25 86.7 8.8 86.7 8.8 L 85.7 8.8 L 86.6 4.1 Z M 92 7.5 C 92 7.6 92 7.7 92.1 7.8 C 92.1 7.9 92.2 7.9 92.3 8 C 92.3 8 92.4 8 92.5 8.1 C 92.6 8.1 92.7 8.1 92.8 8.1 C 93.1 8.1 93.3 8 93.4 8 C 93.6 7.9 93.8 7.8 93.9 7.6 C 94 7.5 94.1 7.3 94.1 7.1 C 94.2 6.9 94.2 6.7 94.3 6.5 C 94.3 6.5 94.3 6.5 94.3 6.5 C 94.2 6.5 94.1 6.6 94 6.6 C 93.8 6.7 93.7 6.7 93.6 6.7 C 93.5 6.7 93.3 6.7 93.1 6.7 C 92.9 6.7 92.8 6.8 92.6 6.8 C 92.4 6.9 92.3 6.9 92.2 7.1 C 92 7.2 92 7.3 92 7.5 Z M 95.1 7.4 C 95.1 7.5 95 7.6 95 7.7 C 95 7.7 95 7.8 95 7.9 C 95 8 95 8 95 8 C 95.1 8.1 95.1 8.1 95.2 8.1 C 95.3 8.1 95.3 8.1 95.4 8.1 C 95.4 8.1 95.5 8 95.6 8 C 95.6 8 95.4 8.8 95.4 8.8 C 95.3 8.8 95.1 8.8 95 8.9 C 94.9 8.9 94.7 8.9 94.6 8.9 C 94.4 8.9 94.3 8.8 94.2 8.7 C 94.1 8.6 94 8.5 94 8.3 C 93.8 8.5 93.5 8.7 93.3 8.8 C 93 8.9 92.7 8.9 92.4 8.9 C 92.2 8.9 92 8.9 91.9 8.8 C 91.7 8.8 91.5 8.7 91.4 8.6 C 91.3 8.5 91.2 8.4 91.1 8.2 C 91 8 91 7.9 91 7.7 C 91 7.4 91 7.1 91.1 6.9 C 91.2 6.7 91.4 6.6 91.6 6.5 C 91.7 6.3 91.9 6.2 92.2 6.2 C 92.4 6.1 92.7 6.1 92.9 6.1 C 93.3 6 93.6 6 93.9 6 C 94.1 6 94.3 5.9 94.4 5.8 C 94.4 5.7 94.5 5.5 94.5 5.4 C 94.5 5.1 94.4 5 94.2 4.9 C 94.1 4.8 93.9 4.8 93.7 4.8 C 93.4 4.8 93.2 4.9 93 5 C 92.7 5.1 92.6 5.2 92.5 5.5 C 92.5 5.5 91.6 5.5 91.6 5.5 C 91.6 5.2 91.7 5 91.8 4.8 C 92 4.6 92.1 4.5 92.3 4.3 C 92.5 4.2 92.7 4.1 93 4.1 C 93.2 4 93.5 4 93.8 4 C 94.2 4 94.5 4 94.7 4.1 C 95 4.2 95.2 4.3 95.3 4.4 C 95.4 4.5 95.4 4.6 95.5 4.8 C 95.5 4.9 95.5 5 95.5 5.1 C 95.5 5.3 95.5 5.5 95.4 5.8 C 95.4 5.8 95.1 7.4 95.1 7.4 Z M 99.8 6 C 99.8 6 99.8 6 99.8 6 C 99.8 5.9 99.8 5.9 99.8 5.9 C 99.8 5.9 99.8 5.8 99.8 5.8 C 99.8 5.5 99.7 5.2 99.5 5.1 C 99.3 4.9 99.1 4.8 98.8 4.8 C 98.4 4.8 98.1 4.9 97.9 5.2 C 97.6 5.4 97.5 5.7 97.4 6 C 97.4 6 99.8 6 99.8 6 Z M 100.5 7.3 C 100.3 7.9 100.1 8.3 99.7 8.5 C 99.3 8.8 98.8 8.9 98.3 8.9 C 98 8.9 97.7 8.9 97.4 8.8 C 97.2 8.7 97 8.5 96.8 8.4 C 96.6 8.2 96.5 8 96.4 7.7 C 96.3 7.5 96.2 7.2 96.2 6.9 C 96.2 6.5 96.3 6.2 96.4 5.8 C 96.5 5.5 96.7 5.2 96.9 4.9 C 97.1 4.6 97.4 4.4 97.7 4.2 C 98 4.1 98.4 4 98.8 4 C 99.2 4 99.6 4.1 99.8 4.2 C 100.1 4.3 100.3 4.5 100.4 4.7 C 100.6 4.9 100.7 5.2 100.7 5.4 C 100.8 5.7 100.8 5.9 100.8 6.1 C 100.8 6.3 100.8 6.4 100.8 6.5 C 100.8 6.5 100.7 6.6 100.7 6.7 C 100.7 6.7 97.3 6.7 97.3 6.7 C 97.3 6.7 97.3 6.8 97.3 6.8 C 97.3 6.8 97.3 6.8 97.3 6.9 C 97.3 6.9 97.3 7 97.3 7 C 97.3 7.3 97.3 7.6 97.5 7.8 C 97.7 8 98 8.1 98.4 8.1 C 98.6 8.1 98.9 8 99.1 7.9 C 99.3 7.8 99.4 7.6 99.5 7.3 C 99.5 7.3 100.5 7.3 100.5 7.3 Z M 101.9 4.1 L 105.6 4.1 L 105.4 4.9 L 102.3 8 L 105 8 L 104.8 8.8 L 100.8 8.8 L 101 8 L 104 4.9 L 101.7 4.9 L 101.9 4.1 Z " stroke="none" fill="#fff"/>
  </g>
</svg>