<?xml version="1.0" standalone="no"?>
<!DOCTYPE svg PUBLIC "-//W3C//DTD SVG 1.1//EN" "http://www.w3.org/Graphics/SVG/1.1/DTD/svg11.dtd">
<svg xmlns="http://www.w3.org/2000/svg" version="1.1" width="470.4px" height="31.8px" viewBox="0 -7 470.4 31.8" style="top:-7px">
  <desc>Sa pag-ikot ng manibela:</desc>
  <defs/>
  <g id="Polygon30199">
    <path d="M 125.3 0.5 C 127.6 0.5 129.1 1.5 129.7 3.6 C 129.7 3.6 127.2 4.5 127.2 4.5 C 126.9 3.4 126.3 2.9 125.3 2.9 C 124.9 2.9 124.6 3 124.3 3.2 C 124.1 3.5 123.9 3.7 123.9 4.1 C 123.9 4.4 124.1 4.8 124.4 5 C 124.7 5.2 125.3 5.5 126.3 5.9 C 127.1 6.2 127.8 6.5 128.3 6.8 C 128.8 7.1 129.2 7.5 129.5 8.1 C 129.8 8.6 129.9 9.2 129.9 10 C 129.9 11.2 129.5 12.2 128.6 13 C 127.8 13.8 126.6 14.2 125.2 14.2 C 122.8 14.2 121.2 13 120.6 10.5 C 120.6 10.5 123.1 9.8 123.1 9.8 C 123.4 11.2 124.2 11.8 125.3 11.8 C 125.8 11.8 126.2 11.7 126.5 11.4 C 126.8 11.2 127 10.8 127 10.4 C 127 10.1 126.9 9.8 126.6 9.5 C 126.4 9.3 125.9 9 125.1 8.7 C 124.1 8.3 123.3 8 122.8 7.7 C 122.3 7.4 121.9 7 121.6 6.4 C 121.3 5.9 121.1 5.3 121.1 4.6 C 121.1 3.4 121.5 2.4 122.3 1.6 C 123 0.9 124.1 0.5 125.3 0.5 C 125.3 0.5 125.3 0.5 125.3 0.5 Z M 134.3 0.7 L 137.3 0.7 L 141.1 14 L 138.1 14 L 137.4 11.3 L 133.7 11.3 L 133 14 L 130.3 14 L 134.3 0.7 Z M 136.9 9 L 135.5 3.5 L 134.2 9 L 136.9 9 Z M 151.5 0.7 C 151.5 0.7 155.34 0.67 155.3 0.7 C 156.5 0.7 157.4 0.8 158.1 1 C 158.7 1.2 159.2 1.6 159.7 2.3 C 160.1 3 160.3 3.8 160.3 4.8 C 160.3 5.8 160.1 6.6 159.8 7.3 C 159.4 7.9 159 8.4 158.3 8.6 C 157.7 8.9 156.8 9.1 155.5 9.1 C 155.47 9.07 154.4 9.1 154.4 9.1 L 154.4 14 L 151.5 14 L 151.5 0.7 Z M 154.4 2.8 L 154.4 6.8 C 154.4 6.8 155.34 6.79 155.3 6.8 C 156.1 6.8 156.7 6.6 156.9 6.2 C 157.1 5.9 157.2 5.4 157.2 4.8 C 157.2 4.3 157.1 3.9 157 3.6 C 156.8 3.3 156.6 3.1 156.3 3 C 156.1 2.9 155.8 2.8 155.3 2.8 C 155.34 2.83 154.4 2.8 154.4 2.8 Z M 163.8 0.7 L 166.7 0.7 L 170.5 14 L 167.5 14 L 166.9 11.3 L 163.1 11.3 L 162.5 14 L 159.8 14 L 163.8 0.7 Z M 166.3 9 L 165 3.5 L 163.7 9 L 166.3 9 Z M 176.1 6.9 L 180.7 6.9 L 180.7 14 L 179.5 14 C 179.5 14 179.12 12.48 179.1 12.5 C 178.4 13.6 177.3 14.2 175.9 14.2 C 174.4 14.2 173.2 13.6 172.3 12.4 C 171.4 11.2 171 9.6 171 7.6 C 171 5.4 171.4 3.7 172.3 2.4 C 173.1 1.1 174.4 0.5 176.2 0.5 C 178.9 0.5 180.4 2 180.7 5 C 180.7 5 178.1 5.5 178.1 5.5 C 177.9 3.7 177.3 2.9 176.2 2.9 C 175.6 2.9 175 3.2 174.6 3.8 C 174.2 4.5 174 5.7 174 7.5 C 174 9.1 174.2 10.2 174.6 10.8 C 175 11.5 175.6 11.8 176.3 11.8 C 177.5 11.8 178.1 10.9 178.1 9.2 C 178.11 9.18 176.1 9.2 176.1 9.2 L 176.1 6.9 Z M 182.5 7.9 L 186.5 7.9 L 186.5 10 L 182.5 10 L 182.5 7.9 Z M 188.5 0.7 L 191.4 0.7 L 191.4 14 L 188.5 14 L 188.5 0.7 Z M 193.9 0.7 L 196.9 0.7 L 196.9 6.2 L 200.1 0.7 L 203.1 0.7 L 199.7 5.6 L 203.3 14 L 200.3 14 L 198 7.9 L 196.9 9.5 L 196.9 14 L 193.9 14 L 193.9 0.7 Z M 213.4 7.3 C 213.4 11.9 211.8 14.2 208.5 14.2 C 206.9 14.2 205.7 13.6 204.9 12.5 C 204.1 11.3 203.7 9.6 203.7 7.3 C 203.7 2.8 205.3 0.5 208.5 0.5 C 210.1 0.5 211.3 1 212.1 2.2 C 213 3.3 213.4 5 213.4 7.3 Z M 210.3 7.3 C 210.3 5.5 210.2 4.3 209.9 3.7 C 209.6 3.1 209.1 2.9 208.5 2.9 C 207.9 2.9 207.5 3.2 207.2 3.8 C 206.9 4.3 206.8 5.5 206.8 7.3 C 206.8 9.1 206.9 10.3 207.2 10.9 C 207.5 11.5 207.9 11.8 208.5 11.8 C 209.1 11.8 209.6 11.5 209.9 10.9 C 210.2 10.3 210.3 9.1 210.3 7.3 Z M 214.1 0.7 L 222.4 0.7 L 222.4 3.2 L 219.7 3.2 L 219.7 14 L 216.8 14 L 216.8 3.2 L 214.1 3.2 L 214.1 0.7 Z M 232.6 0.7 L 235.9 0.7 L 239.3 9 L 239.3 0.7 L 241.6 0.7 L 241.6 14 L 239 14 L 234.9 4.4 L 234.9 14 L 232.6 14 L 232.6 0.7 Z M 248.7 6.9 L 253.3 6.9 L 253.3 14 L 252.1 14 C 252.1 14 251.68 12.48 251.7 12.5 C 251 13.6 249.9 14.2 248.5 14.2 C 246.9 14.2 245.7 13.6 244.9 12.4 C 244 11.2 243.5 9.6 243.5 7.6 C 243.5 5.4 244 3.7 244.8 2.4 C 245.7 1.1 247 0.5 248.7 0.5 C 251.4 0.5 253 2 253.3 5 C 253.3 5 250.7 5.5 250.7 5.5 C 250.5 3.7 249.9 2.9 248.8 2.9 C 248.1 2.9 247.6 3.2 247.2 3.8 C 246.8 4.5 246.6 5.7 246.6 7.5 C 246.6 9.1 246.8 10.2 247.2 10.8 C 247.6 11.5 248.1 11.8 248.9 11.8 C 250.1 11.8 250.7 10.9 250.7 9.2 C 250.67 9.18 248.7 9.2 248.7 9.2 L 248.7 6.9 Z M 264.9 0.7 L 269.2 0.7 L 271.1 8.9 L 273.2 0.7 L 277.4 0.7 L 277.4 14 L 274.6 14 L 274.6 2.8 L 271.9 14 L 269.8 14 L 267.3 2.8 L 267.3 14 L 264.9 14 L 264.9 0.7 Z M 282.3 0.7 L 285.2 0.7 L 289 14 L 286 14 L 285.4 11.3 L 281.6 11.3 L 280.9 14 L 278.3 14 L 282.3 0.7 Z M 284.8 9 L 283.5 3.5 L 282.2 9 L 284.8 9 Z M 290 0.7 L 293.3 0.7 L 296.7 9 L 296.7 0.7 L 299 0.7 L 299 14 L 296.4 14 L 292.3 4.4 L 292.3 14 L 290 14 L 290 0.7 Z M 301.4 0.7 L 304.3 0.7 L 304.3 14 L 301.4 14 L 301.4 0.7 Z M 306.8 0.7 C 306.8 0.7 311.37 0.67 311.4 0.7 C 312.4 0.7 313.2 0.8 313.8 0.9 C 314.3 1.1 314.8 1.5 315.2 2 C 315.5 2.6 315.7 3.3 315.7 4.2 C 315.7 5.7 315.1 6.6 313.8 7.1 C 315.3 7.6 316.1 8.7 316.1 10.3 C 316.1 11.2 315.9 11.9 315.5 12.5 C 315 13.1 314.5 13.5 313.9 13.7 C 313.3 13.9 312.5 14 311.4 14 C 311.37 14 306.8 14 306.8 14 L 306.8 0.7 Z M 309.6 6.1 C 309.6 6.1 310.58 6.05 310.6 6.1 C 311.5 6.1 312.1 5.9 312.4 5.5 C 312.6 5.2 312.7 4.8 312.7 4.4 C 312.7 4 312.6 3.6 312.4 3.3 C 312.1 3 311.6 2.8 310.8 2.8 C 310.79 2.83 309.6 2.8 309.6 2.8 L 309.6 6.1 Z M 309.6 11.7 C 309.6 11.7 311.07 11.72 311.1 11.7 C 312.4 11.7 313.1 11.1 313.1 10 C 313.1 9.3 312.9 8.9 312.6 8.6 C 312.3 8.3 311.7 8.2 311.1 8.2 C 311.07 8.21 309.6 8.2 309.6 8.2 L 309.6 11.7 Z M 318.1 0.7 L 326.2 0.7 L 326.2 3 L 321 3 L 321 6.1 L 325 6.1 L 325 8.3 L 321 8.3 L 321 11.6 L 326.2 11.6 L 326.2 14 L 318.1 14 L 318.1 0.7 Z M 327.6 0.7 L 330.5 0.7 L 330.5 11.5 L 334.8 11.5 L 334.8 14 L 327.6 14 L 327.6 0.7 Z M 338.5 0.7 L 341.4 0.7 L 345.2 14 L 342.2 14 L 341.6 11.3 L 337.8 11.3 L 337.2 14 L 334.5 14 L 338.5 0.7 Z M 341 9 L 339.7 3.5 L 338.4 9 L 341 9 Z M 346.3 4.1 L 349 4.1 L 349 7.1 L 346.3 7.1 L 346.3 4.1 Z M 346.3 11.1 L 349 11.1 L 349 14 L 346.3 14 L 346.3 11.1 Z " stroke="none" fill="#000"/>
  </g>
</svg>