<?xml version="1.0" standalone="no"?>
<!DOCTYPE svg PUBLIC "-//W3C//DTD SVG 1.1//EN" "http://www.w3.org/Graphics/SVG/1.1/DTD/svg11.dtd">
<svg xmlns="http://www.w3.org/2000/svg" version="1.1" width="279.5px" height="33.9px" viewBox="0 -6 279.5 33.9" style="top:-6px">
  <desc>START Mula sa p 1</desc>
  <defs/>
  <g id="Polygon15868">
    <path d="M 8.5 3 C 8 2.2 7 1.8 6 1.8 C 4.9 1.8 3.7 2.3 3.7 3.8 C 3.7 6.9 10.4 5.1 10.4 10.6 C 10.4 13.9 8 15.5 5.3 15.5 C 3.5 15.5 1.8 14.9 0.6 13.4 C 0.6 13.4 2.5 11.4 2.5 11.4 C 3.1 12.4 4.2 13 5.3 13 C 6.5 13 7.8 12.3 7.8 10.9 C 7.8 7.5 1.1 9.5 1.1 4 C 1.1 0.8 3.7 -0.7 6.3 -0.7 C 7.8 -0.7 9.3 -0.2 10.4 0.9 C 10.4 0.9 8.5 3 8.5 3 Z M 16.6 2.2 L 12.2 2.2 L 12.2 -0.3 L 23.4 -0.3 L 23.4 2.2 L 19.1 2.2 L 19.1 15.1 L 16.6 15.1 L 16.6 2.2 Z M 28.5 -0.3 L 30.6 -0.3 L 36.7 15.1 L 33.9 15.1 L 32.5 11.6 L 26.4 11.6 L 25.1 15.1 L 22.3 15.1 L 28.5 -0.3 Z M 31.7 9.2 L 29.5 3 L 27.3 9.2 L 31.7 9.2 Z M 38.9 -0.3 C 38.9 -0.3 43.84 -0.31 43.8 -0.3 C 46.6 -0.3 49.1 0.6 49.1 4.1 C 49.1 6.3 47.9 8 45.8 8.3 C 45.84 8.3 49.6 15.1 49.6 15.1 L 46.6 15.1 L 43.3 8.6 L 41.4 8.6 L 41.4 15.1 L 38.9 15.1 L 38.9 -0.3 Z M 43.4 6.2 C 44.8 6.2 46.5 6.1 46.5 4.1 C 46.5 2.3 44.9 2 43.6 2 C 43.62 2.04 41.4 2 41.4 2 L 41.4 6.2 C 41.4 6.2 43.4 6.23 43.4 6.2 Z M 54.6 2.2 L 50.3 2.2 L 50.3 -0.3 L 61.5 -0.3 L 61.5 2.2 L 57.2 2.2 L 57.2 15.1 L 54.6 15.1 L 54.6 2.2 Z M 72 -1.2 L 72 20.6 L 70 20.6 L 70 -1.2 L 72 -1.2 Z M 81.9 -0.3 L 85.8 -0.3 L 89.6 10.5 L 93.4 -0.3 L 97.2 -0.3 L 97.2 15.1 L 94.8 15.1 L 94.8 2.3 L 94.7 2.3 L 90.4 15.1 L 88.7 15.1 L 84.4 2.3 L 84.3 2.3 L 84.3 15.1 L 81.9 15.1 L 81.9 -0.3 Z M 109.5 15.1 L 107.2 15.1 L 107.2 13.4 C 107.2 13.4 107.21 13.44 107.2 13.4 C 106.8 14.5 105.9 15.4 104.3 15.4 C 101.7 15.4 100.8 13.4 100.8 11.3 C 100.77 11.26 100.8 4.7 100.8 4.7 L 103.2 4.7 C 103.2 4.7 103.17 9.95 103.2 10 C 103.2 11.1 103.2 13 104.9 13 C 106.5 13 107.1 11.8 107.1 10.4 C 107.13 10.37 107.1 4.7 107.1 4.7 L 109.5 4.7 L 109.5 15.1 Z M 112.9 -1.4 L 115.3 -1.4 L 115.3 15.1 L 112.9 15.1 L 112.9 -1.4 Z M 124.6 13.7 C 124.6 13.7 124.57 13.68 124.6 13.7 C 123.9 14.9 122.8 15.4 121.5 15.4 C 119.7 15.4 118 14.3 118 12.2 C 118 8.8 121.6 8.6 124 8.6 C 124.03 8.6 124.6 8.6 124.6 8.6 C 124.6 8.6 124.63 8.32 124.6 8.3 C 124.6 7 123.7 6.4 122.4 6.4 C 121.4 6.4 120.5 6.8 119.9 7.4 C 119.9 7.4 118.6 6.1 118.6 6.1 C 119.7 4.9 121.2 4.4 122.7 4.4 C 126.8 4.4 126.8 7.6 126.8 9.1 C 126.79 9.1 126.8 15.1 126.8 15.1 L 124.6 15.1 L 124.6 13.7 Z M 124.5 10.4 C 124.5 10.4 123.99 10.43 124 10.4 C 122.7 10.4 120.4 10.5 120.4 12 C 120.4 13 121.3 13.4 122.1 13.4 C 123.7 13.4 124.5 12.5 124.5 11 C 124.49 11.02 124.5 10.4 124.5 10.4 Z M 141.6 7.6 C 141.1 6.9 140.5 6.5 139.7 6.5 C 139.1 6.5 138.3 6.8 138.3 7.6 C 138.3 9.5 143.5 7.9 143.5 12 C 143.5 14.5 141.3 15.4 139.4 15.4 C 137.9 15.4 136.6 15 135.6 13.8 C 135.6 13.8 137.2 12.1 137.2 12.1 C 137.8 12.9 138.5 13.4 139.5 13.4 C 140.2 13.4 141.1 13 141.1 12.2 C 141.1 10.1 135.9 11.8 135.9 7.8 C 135.9 5.4 137.8 4.4 139.8 4.4 C 141.1 4.4 142.4 4.8 143.2 6 C 143.2 6 141.6 7.6 141.6 7.6 Z M 151.9 13.7 C 151.9 13.7 151.89 13.68 151.9 13.7 C 151.2 14.9 150.1 15.4 148.8 15.4 C 147 15.4 145.3 14.3 145.3 12.2 C 145.3 8.8 148.9 8.6 151.3 8.6 C 151.35 8.6 151.9 8.6 151.9 8.6 C 151.9 8.6 151.95 8.32 151.9 8.3 C 151.9 7 151 6.4 149.7 6.4 C 148.7 6.4 147.8 6.8 147.2 7.4 C 147.2 7.4 145.9 6.1 145.9 6.1 C 147 4.9 148.5 4.4 150 4.4 C 154.1 4.4 154.1 7.6 154.1 9.1 C 154.11 9.1 154.1 15.1 154.1 15.1 L 151.9 15.1 L 151.9 13.7 Z M 151.8 10.4 C 151.8 10.4 151.31 10.43 151.3 10.4 C 150 10.4 147.7 10.5 147.7 12 C 147.7 13 148.6 13.4 149.4 13.4 C 151 13.4 151.8 12.5 151.8 11 C 151.81 11.02 151.8 10.4 151.8 10.4 Z M 163.8 4.7 L 166.1 4.7 L 166.1 6.2 C 166.1 6.2 166.11 6.23 166.1 6.2 C 166.8 5 168.1 4.4 169.4 4.4 C 172.4 4.4 174.1 6.8 174.1 9.9 C 174.1 13 172.2 15.4 169.5 15.4 C 167.7 15.4 166.7 14.5 166.2 13.8 C 166.25 13.79 166.2 13.8 166.2 13.8 L 166.2 20.1 L 163.8 20.1 L 163.8 4.7 Z M 168.9 6.7 C 167.2 6.7 166.1 8.3 166.1 9.9 C 166.1 11.5 167.2 13 168.9 13 C 170.7 13 171.7 11.5 171.7 9.9 C 171.7 8.3 170.7 6.7 168.9 6.7 Z M 178.6 11.9 C 179.4 11.9 180.2 12.6 180.2 13.6 C 180.2 14.5 179.5 15.3 178.6 15.3 C 177.7 15.3 177 14.5 177 13.6 C 177 12.7 177.7 11.9 178.6 11.9 Z M 187.5 2.7 L 184.8 5.4 L 183.4 3.6 L 187.7 -0.3 L 189.9 -0.3 L 189.9 15.1 L 187.5 15.1 L 187.5 2.7 Z " stroke="none" fill="#fff"/>
  </g>
</svg>