<?xml version="1.0" standalone="no"?>
<!DOCTYPE svg PUBLIC "-//W3C//DTD SVG 1.1//EN" "http://www.w3.org/Graphics/SVG/1.1/DTD/svg11.dtd">
<svg xmlns="http://www.w3.org/2000/svg" version="1.1" width="351px" height="33.9px" viewBox="0 -6 351 33.9" style="top:-6px">
  <desc>PADDLER Mula sa p 20</desc>
  <defs/>
  <g id="Polygon34097">
    <path d="M 1.6 -0.3 C 1.6 -0.3 6.34 -0.31 6.3 -0.3 C 9.1 -0.3 11.6 0.7 11.6 4.2 C 11.6 8 8.9 8.7 5.9 8.7 C 5.9 8.73 4.1 8.7 4.1 8.7 L 4.1 15.1 L 1.6 15.1 L 1.6 -0.3 Z M 5.6 6.4 C 7.1 6.4 8.9 6.3 8.9 4.2 C 8.9 2.3 7.3 2 5.9 2 C 5.9 2.04 4.1 2 4.1 2 L 4.1 6.4 C 4.1 6.4 5.62 6.38 5.6 6.4 Z M 17.5 -0.3 L 19.7 -0.3 L 25.8 15.1 L 22.9 15.1 L 21.6 11.6 L 15.4 11.6 L 14.2 15.1 L 11.3 15.1 L 17.5 -0.3 Z M 20.7 9.2 L 18.5 3 L 16.3 9.2 L 20.7 9.2 Z M 27.9 -0.3 C 27.9 -0.3 33.52 -0.31 33.5 -0.3 C 37.2 -0.3 40.7 2.2 40.7 7.4 C 40.7 12.7 36.6 15.1 33.2 15.1 C 33.22 15.12 27.9 15.1 27.9 15.1 L 27.9 -0.3 Z M 32.3 12.6 C 35.5 12.6 38.1 11.2 38.1 7.4 C 38.1 3.7 35.8 2.2 32.8 2.2 C 32.76 2.17 30.5 2.2 30.5 2.2 L 30.5 12.6 C 30.5 12.6 32.34 12.63 32.3 12.6 Z M 43.7 -0.3 C 43.7 -0.3 49.3 -0.31 49.3 -0.3 C 53 -0.3 56.5 2.2 56.5 7.4 C 56.5 12.7 52.4 15.1 49 15.1 C 49 15.12 43.7 15.1 43.7 15.1 L 43.7 -0.3 Z M 48.1 12.6 C 51.3 12.6 53.9 11.2 53.9 7.4 C 53.9 3.7 51.6 2.2 48.5 2.2 C 48.54 2.17 46.2 2.2 46.2 2.2 L 46.2 12.6 C 46.2 12.6 48.12 12.63 48.1 12.6 Z M 59.5 -0.3 L 62 -0.3 L 62 12.6 L 68 12.6 L 68 15.1 L 59.5 15.1 L 59.5 -0.3 Z M 70.5 -0.3 L 79.8 -0.3 L 79.8 2.2 L 73 2.2 L 73 6 L 79.5 6 L 79.5 8.4 L 73 8.4 L 73 12.6 L 80.2 12.6 L 80.2 15.1 L 70.5 15.1 L 70.5 -0.3 Z M 83.3 -0.3 C 83.3 -0.3 88.19 -0.31 88.2 -0.3 C 90.9 -0.3 93.5 0.6 93.5 4.1 C 93.5 6.3 92.3 8 90.2 8.3 C 90.19 8.3 94 15.1 94 15.1 L 90.9 15.1 L 87.6 8.6 L 85.8 8.6 L 85.8 15.1 L 83.3 15.1 L 83.3 -0.3 Z M 87.8 6.2 C 89.2 6.2 90.8 6.1 90.8 4.1 C 90.8 2.3 89.3 2 88 2 C 87.97 2.04 85.8 2 85.8 2 L 85.8 6.2 C 85.8 6.2 87.75 6.23 87.8 6.2 Z M 104.6 -1.2 L 104.6 20.6 L 102.6 20.6 L 102.6 -1.2 L 104.6 -1.2 Z M 114.6 -0.3 L 118.4 -0.3 L 122.2 10.5 L 126 -0.3 L 129.8 -0.3 L 129.8 15.1 L 127.4 15.1 L 127.4 2.3 L 127.4 2.3 L 123.1 15.1 L 121.3 15.1 L 117 2.3 L 117 2.3 L 117 15.1 L 114.6 15.1 L 114.6 -0.3 Z M 142.2 15.1 L 139.9 15.1 L 139.9 13.4 C 139.9 13.4 139.85 13.44 139.8 13.4 C 139.4 14.5 138.5 15.4 136.9 15.4 C 134.3 15.4 133.4 13.4 133.4 11.3 C 133.41 11.26 133.4 4.7 133.4 4.7 L 135.8 4.7 C 135.8 4.7 135.81 9.95 135.8 10 C 135.8 11.1 135.9 13 137.6 13 C 139.1 13 139.8 11.8 139.8 10.4 C 139.77 10.37 139.8 4.7 139.8 4.7 L 142.2 4.7 L 142.2 15.1 Z M 145.5 -1.4 L 147.9 -1.4 L 147.9 15.1 L 145.5 15.1 L 145.5 -1.4 Z M 157.3 13.7 C 157.3 13.7 157.21 13.68 157.2 13.7 C 156.5 14.9 155.4 15.4 154.1 15.4 C 152.4 15.4 150.6 14.3 150.6 12.2 C 150.6 8.8 154.3 8.6 156.7 8.6 C 156.67 8.6 157.3 8.6 157.3 8.6 C 157.3 8.6 157.27 8.32 157.3 8.3 C 157.3 7 156.4 6.4 155.1 6.4 C 154.1 6.4 153.2 6.8 152.5 7.4 C 152.5 7.4 151.3 6.1 151.3 6.1 C 152.3 4.9 153.8 4.4 155.3 4.4 C 159.4 4.4 159.4 7.6 159.4 9.1 C 159.43 9.1 159.4 15.1 159.4 15.1 L 157.3 15.1 L 157.3 13.7 Z M 157.1 10.4 C 157.1 10.4 156.63 10.43 156.6 10.4 C 155.3 10.4 153 10.5 153 12 C 153 13 153.9 13.4 154.7 13.4 C 156.4 13.4 157.1 12.5 157.1 11 C 157.13 11.02 157.1 10.4 157.1 10.4 Z M 174.2 7.6 C 173.8 6.9 173.2 6.5 172.4 6.5 C 171.7 6.5 171 6.8 171 7.6 C 171 9.5 176.1 7.9 176.1 12 C 176.1 14.5 174 15.4 172 15.4 C 170.5 15.4 169.2 15 168.3 13.8 C 168.3 13.8 169.9 12.1 169.9 12.1 C 170.5 12.9 171.1 13.4 172.1 13.4 C 172.8 13.4 173.7 13 173.7 12.2 C 173.7 10.1 168.6 11.8 168.6 7.8 C 168.6 5.4 170.5 4.4 172.4 4.4 C 173.7 4.4 175.1 4.8 175.8 6 C 175.8 6 174.2 7.6 174.2 7.6 Z M 184.6 13.7 C 184.6 13.7 184.53 13.68 184.5 13.7 C 183.8 14.9 182.7 15.4 181.4 15.4 C 179.7 15.4 177.9 14.3 177.9 12.2 C 177.9 8.8 181.6 8.6 184 8.6 C 183.99 8.6 184.6 8.6 184.6 8.6 C 184.6 8.6 184.59 8.32 184.6 8.3 C 184.6 7 183.7 6.4 182.4 6.4 C 181.4 6.4 180.5 6.8 179.8 7.4 C 179.8 7.4 178.6 6.1 178.6 6.1 C 179.6 4.9 181.1 4.4 182.6 4.4 C 186.7 4.4 186.7 7.6 186.7 9.1 C 186.75 9.1 186.7 15.1 186.7 15.1 L 184.6 15.1 L 184.6 13.7 Z M 184.4 10.4 C 184.4 10.4 183.95 10.43 183.9 10.4 C 182.6 10.4 180.3 10.5 180.3 12 C 180.3 13 181.2 13.4 182 13.4 C 183.7 13.4 184.4 12.5 184.4 11 C 184.45 11.02 184.4 10.4 184.4 10.4 Z M 196.4 4.7 L 198.7 4.7 L 198.7 6.2 C 198.7 6.2 198.75 6.23 198.8 6.2 C 199.5 5 200.7 4.4 202.1 4.4 C 205 4.4 206.8 6.8 206.8 9.9 C 206.8 13 204.9 15.4 202.2 15.4 C 200.4 15.4 199.4 14.5 198.9 13.8 C 198.89 13.79 198.8 13.8 198.8 13.8 L 198.8 20.1 L 196.4 20.1 L 196.4 4.7 Z M 201.6 6.7 C 199.8 6.7 198.8 8.3 198.8 9.9 C 198.8 11.5 199.8 13 201.6 13 C 203.3 13 204.4 11.5 204.4 9.9 C 204.4 8.3 203.3 6.7 201.6 6.7 Z M 211.2 11.9 C 212.1 11.9 212.8 12.6 212.8 13.6 C 212.8 14.5 212.1 15.3 211.2 15.3 C 210.4 15.3 209.6 14.5 209.6 13.6 C 209.6 12.7 210.3 11.9 211.2 11.9 Z M 216 12.4 C 216 12.4 221.46 6.55 221.5 6.6 C 222.1 5.9 222.9 5 222.9 3.9 C 222.9 2.7 222 1.9 220.9 1.9 C 219.7 1.9 218.8 2.7 218.7 4 C 218.7 4 216.2 3.8 216.2 3.8 C 216.4 0.9 218.3 -0.6 220.9 -0.6 C 223.4 -0.6 225.4 0.8 225.4 3.8 C 225.4 5.7 224.5 7.1 223.3 8.3 C 223.26 8.34 218.9 12.8 218.9 12.8 L 225.4 12.8 L 225.4 15.1 L 216 15.1 L 216 12.4 Z M 233.1 -0.6 C 234.7 -0.6 238.2 0.1 238.2 7.4 C 238.2 14.7 234.7 15.4 233.1 15.4 C 231.5 15.4 228 14.7 228 7.4 C 228 0.1 231.5 -0.6 233.1 -0.6 Z M 233.1 12.9 C 235.5 12.9 235.8 9.3 235.8 7.4 C 235.8 5.5 235.5 1.9 233.1 1.9 C 230.7 1.9 230.4 5.5 230.4 7.4 C 230.4 9.3 230.7 12.9 233.1 12.9 Z " stroke="none" fill="#fff"/>
  </g>
</svg>