<?xml version="1.0" standalone="no"?>
<!DOCTYPE svg PUBLIC "-//W3C//DTD SVG 1.1//EN" "http://www.w3.org/Graphics/SVG/1.1/DTD/svg11.dtd">
<svg xmlns="http://www.w3.org/2000/svg" version="1.1" width="248.4px" height="18px" viewBox="0 -3 248.4 18" style="top:-3px">
  <desc>Likha ni Monique Arevalo Mga kuha mula sa Philippine</desc>
  <defs/>
  <g id="Polygon23511">
    <path d="M 0.5 1.7 L 1.5 1.7 L 1.5 10.7 L 0.5 10.7 L 0.5 1.7 Z M 6.8 2.3 L 8 2.3 L 6.8 7.8 L 10.1 7.8 L 9.9 8.8 L 5.5 8.8 L 6.8 2.3 Z M 11.9 2.3 L 13 2.3 L 12.8 3.3 L 11.7 3.3 L 11.9 2.3 Z M 11.6 4.1 L 12.6 4.1 L 11.6 8.8 L 10.6 8.8 L 11.6 4.1 Z M 14.2 2.3 L 15.2 2.3 L 14.5 6 L 14.5 6 L 16.6 4.1 L 17.9 4.1 L 15.8 5.8 L 17 8.8 L 15.8 8.8 L 15 6.5 L 14.2 7.2 L 13.9 8.8 L 12.9 8.8 L 14.2 2.3 Z M 19 2.3 L 20 2.3 L 19.5 4.8 C 19.5 4.8 19.51 4.78 19.5 4.8 C 19.7 4.5 19.9 4.4 20.2 4.2 C 20.5 4.1 20.7 4 21 4 C 21.5 4 21.8 4.1 22.1 4.3 C 22.3 4.6 22.4 4.9 22.4 5.2 C 22.4 5.3 22.4 5.4 22.4 5.5 C 22.4 5.6 22.4 5.7 22.4 5.8 C 22.35 5.8 21.7 8.8 21.7 8.8 L 20.7 8.8 C 20.7 8.8 21.3 5.9 21.3 5.9 C 21.3 5.8 21.3 5.8 21.3 5.7 C 21.4 5.6 21.4 5.5 21.4 5.5 C 21.4 5.4 21.4 5.4 21.4 5.3 C 21.4 5.2 21.3 5.2 21.3 5.1 C 21.3 5 21.2 4.9 21.1 4.9 C 21 4.8 20.8 4.8 20.7 4.8 C 20.5 4.8 20.3 4.8 20.1 4.9 C 20 5 19.8 5.1 19.7 5.3 C 19.6 5.4 19.5 5.5 19.4 5.7 C 19.3 5.9 19.2 6.1 19.2 6.3 C 19.18 6.25 18.7 8.8 18.7 8.8 L 17.6 8.8 L 19 2.3 Z M 23.9 7.5 C 23.9 7.6 24 7.7 24 7.8 C 24.1 7.9 24.1 7.9 24.2 8 C 24.3 8 24.4 8 24.5 8.1 C 24.6 8.1 24.7 8.1 24.8 8.1 C 25 8.1 25.2 8 25.4 8 C 25.6 7.9 25.7 7.8 25.8 7.6 C 25.9 7.5 26 7.3 26.1 7.1 C 26.1 6.9 26.2 6.7 26.2 6.5 C 26.2 6.5 26.2 6.5 26.2 6.5 C 26.1 6.5 26 6.6 25.9 6.6 C 25.8 6.7 25.7 6.7 25.6 6.7 C 25.4 6.7 25.3 6.7 25.1 6.7 C 24.9 6.7 24.7 6.8 24.5 6.8 C 24.4 6.9 24.2 6.9 24.1 7.1 C 24 7.2 23.9 7.3 23.9 7.5 Z M 27 7.4 C 27 7.5 27 7.6 27 7.7 C 27 7.7 26.9 7.8 26.9 7.9 C 26.9 8 27 8 27 8 C 27 8.1 27.1 8.1 27.2 8.1 C 27.2 8.1 27.3 8.1 27.3 8.1 C 27.4 8.1 27.5 8 27.5 8 C 27.5 8 27.4 8.8 27.4 8.8 C 27.2 8.8 27.1 8.8 27 8.9 C 26.8 8.9 26.7 8.9 26.6 8.9 C 26.4 8.9 26.2 8.8 26.1 8.7 C 26 8.6 25.9 8.5 25.9 8.3 C 25.7 8.5 25.5 8.7 25.2 8.8 C 24.9 8.9 24.7 8.9 24.4 8.9 C 24.2 8.9 24 8.9 23.8 8.8 C 23.6 8.8 23.5 8.7 23.4 8.6 C 23.2 8.5 23.1 8.4 23 8.2 C 23 8 22.9 7.9 22.9 7.7 C 22.9 7.4 23 7.1 23.1 6.9 C 23.2 6.7 23.3 6.6 23.5 6.5 C 23.7 6.3 23.9 6.2 24.1 6.2 C 24.4 6.1 24.6 6.1 24.9 6.1 C 25.2 6 25.6 6 25.9 6 C 26.1 6 26.2 5.9 26.3 5.8 C 26.4 5.7 26.4 5.5 26.4 5.4 C 26.4 5.1 26.4 5 26.2 4.9 C 26 4.8 25.9 4.8 25.7 4.8 C 25.4 4.8 25.1 4.9 24.9 5 C 24.7 5.1 24.6 5.2 24.5 5.5 C 24.5 5.5 23.5 5.5 23.5 5.5 C 23.6 5.2 23.7 5 23.8 4.8 C 23.9 4.6 24.1 4.5 24.3 4.3 C 24.5 4.2 24.7 4.1 24.9 4.1 C 25.2 4 25.4 4 25.7 4 C 26.1 4 26.5 4 26.7 4.1 C 26.9 4.2 27.1 4.3 27.2 4.4 C 27.3 4.5 27.4 4.6 27.4 4.8 C 27.5 4.9 27.5 5 27.5 5.1 C 27.5 5.3 27.4 5.5 27.4 5.8 C 27.4 5.8 27 7.4 27 7.4 Z M 32.3 4.1 L 33.3 4.1 L 33.1 4.8 C 33.1 4.8 33.16 4.81 33.2 4.8 C 33.3 4.6 33.6 4.4 33.9 4.2 C 34.1 4.1 34.4 4 34.8 4 C 35.2 4 35.6 4.1 35.8 4.3 C 36 4.6 36.1 4.9 36.1 5.2 C 36.1 5.3 36.1 5.4 36.1 5.5 C 36.1 5.6 36.1 5.7 36.1 5.8 C 36.08 5.8 35.5 8.8 35.5 8.8 L 34.4 8.8 C 34.4 8.8 35.03 5.9 35 5.9 C 35 5.8 35.1 5.8 35.1 5.7 C 35.1 5.6 35.1 5.5 35.1 5.5 C 35.1 5.4 35.1 5.4 35.1 5.3 C 35.1 5.2 35.1 5.2 35 5.1 C 35 5 34.9 4.9 34.8 4.9 C 34.7 4.8 34.6 4.8 34.4 4.8 C 34.2 4.8 34 4.8 33.8 4.9 C 33.7 5 33.5 5.1 33.4 5.3 C 33.3 5.4 33.2 5.5 33.1 5.7 C 33 5.9 33 6.1 32.9 6.3 C 32.91 6.25 32.4 8.8 32.4 8.8 L 31.4 8.8 L 32.3 4.1 Z M 38 2.3 L 39 2.3 L 38.8 3.3 L 37.8 3.3 L 38 2.3 Z M 37.6 4.1 L 38.6 4.1 L 37.6 8.8 L 36.6 8.8 L 37.6 4.1 Z M 43.7 2.3 L 45.3 2.3 L 46 7.2 L 46 7.2 L 48.8 2.3 L 50.4 2.3 L 49.1 8.8 L 48 8.8 L 49.1 3.6 L 49.1 3.6 L 46.2 8.8 L 45.3 8.8 L 44.5 3.6 L 44.5 3.6 L 43.5 8.8 L 42.4 8.8 L 43.7 2.3 Z M 53.2 4.8 C 52.9 4.8 52.7 4.9 52.5 5 C 52.3 5.1 52.1 5.3 52 5.5 C 51.8 5.7 51.7 5.9 51.7 6.2 C 51.6 6.4 51.6 6.7 51.6 6.9 C 51.6 7.2 51.7 7.5 51.8 7.7 C 52 8 52.3 8.1 52.7 8.1 C 52.9 8.1 53.2 8 53.3 7.9 C 53.5 7.8 53.7 7.6 53.8 7.4 C 54 7.2 54.1 7 54.1 6.7 C 54.2 6.5 54.2 6.2 54.2 6 C 54.2 5.7 54.1 5.4 54 5.1 C 53.8 4.9 53.5 4.8 53.2 4.8 Z M 52.6 8.9 C 51.9 8.9 51.4 8.7 51.1 8.4 C 50.7 8 50.6 7.5 50.6 6.9 C 50.6 6.5 50.6 6.1 50.8 5.8 C 50.9 5.4 51.1 5.1 51.3 4.9 C 51.5 4.6 51.8 4.4 52.1 4.2 C 52.5 4.1 52.8 4 53.2 4 C 53.9 4 54.4 4.2 54.7 4.5 C 55.1 4.8 55.3 5.3 55.3 6 C 55.3 6.4 55.2 6.8 55.1 7.1 C 55 7.5 54.8 7.8 54.5 8.1 C 54.3 8.3 54 8.5 53.7 8.7 C 53.4 8.8 53 8.9 52.6 8.9 Z M 56.7 4.1 L 57.7 4.1 L 57.6 4.8 C 57.6 4.8 57.57 4.81 57.6 4.8 C 57.8 4.6 58 4.4 58.3 4.2 C 58.6 4.1 58.9 4 59.2 4 C 59.6 4 60 4.1 60.2 4.3 C 60.4 4.6 60.5 4.9 60.5 5.2 C 60.5 5.3 60.5 5.4 60.5 5.5 C 60.5 5.6 60.5 5.7 60.5 5.8 C 60.49 5.8 59.9 8.8 59.9 8.8 L 58.8 8.8 C 58.8 8.8 59.44 5.9 59.4 5.9 C 59.5 5.8 59.5 5.8 59.5 5.7 C 59.5 5.6 59.5 5.5 59.5 5.5 C 59.5 5.4 59.5 5.4 59.5 5.3 C 59.5 5.2 59.5 5.2 59.4 5.1 C 59.4 5 59.3 4.9 59.2 4.9 C 59.1 4.8 59 4.8 58.8 4.8 C 58.6 4.8 58.4 4.8 58.3 4.9 C 58.1 5 58 5.1 57.8 5.3 C 57.7 5.4 57.6 5.5 57.5 5.7 C 57.4 5.9 57.4 6.1 57.3 6.3 C 57.32 6.25 56.8 8.8 56.8 8.8 L 55.8 8.8 L 56.7 4.1 Z M 62.4 2.3 L 63.4 2.3 L 63.2 3.3 L 62.2 3.3 L 62.4 2.3 Z M 62 4.1 L 63 4.1 L 62.1 8.8 L 61 8.8 L 62 4.1 Z M 64.5 6.9 C 64.5 7.1 64.5 7.2 64.6 7.4 C 64.6 7.5 64.7 7.6 64.8 7.7 C 64.8 7.8 65 7.9 65.1 8 C 65.2 8.1 65.4 8.1 65.6 8.1 C 65.9 8.1 66.1 8 66.3 7.9 C 66.5 7.8 66.7 7.6 66.8 7.4 C 66.9 7.2 67 6.9 67.1 6.7 C 67.1 6.4 67.2 6.2 67.2 5.9 C 67.2 5.6 67.1 5.3 66.9 5.1 C 66.7 4.9 66.5 4.8 66.1 4.8 C 65.9 4.8 65.6 4.9 65.4 5 C 65.2 5.1 65 5.3 64.9 5.5 C 64.8 5.7 64.7 5.9 64.6 6.2 C 64.5 6.4 64.5 6.7 64.5 6.9 Z M 67.3 10.5 L 66.2 10.5 L 66.7 8.2 C 66.7 8.2 66.69 8.2 66.7 8.2 C 66.5 8.5 66.3 8.6 66 8.7 C 65.7 8.8 65.5 8.9 65.2 8.9 C 64.9 8.9 64.6 8.9 64.4 8.8 C 64.2 8.7 64 8.5 63.9 8.4 C 63.8 8.2 63.7 8 63.6 7.8 C 63.5 7.6 63.5 7.3 63.5 7 C 63.5 6.7 63.5 6.3 63.7 5.9 C 63.8 5.6 63.9 5.2 64.1 4.9 C 64.4 4.7 64.6 4.4 65 4.3 C 65.3 4.1 65.6 4 66.1 4 C 66.4 4 66.7 4.1 66.9 4.2 C 67.2 4.3 67.3 4.5 67.5 4.8 C 67.47 4.82 67.5 4.8 67.5 4.8 L 67.6 4.1 L 68.6 4.1 L 67.3 10.5 Z M 72.9 8.8 L 72 8.8 L 72.1 8.1 C 72.1 8.1 72.1 8.08 72.1 8.1 C 71.9 8.3 71.7 8.5 71.4 8.7 C 71.1 8.8 70.8 8.9 70.5 8.9 C 70 8.9 69.7 8.8 69.5 8.6 C 69.2 8.3 69.1 8 69.1 7.7 C 69.1 7.6 69.1 7.5 69.1 7.4 C 69.2 7.3 69.2 7.2 69.2 7.1 C 69.18 7.09 69.8 4.1 69.8 4.1 L 70.8 4.1 C 70.8 4.1 70.24 6.99 70.2 7 C 70.2 7.1 70.2 7.1 70.2 7.2 C 70.2 7.3 70.2 7.4 70.2 7.4 C 70.2 7.5 70.2 7.5 70.2 7.6 C 70.2 7.7 70.2 7.7 70.2 7.8 C 70.3 7.9 70.3 8 70.4 8 C 70.5 8.1 70.7 8.1 70.9 8.1 C 71.1 8.1 71.3 8 71.4 8 C 71.6 7.9 71.7 7.8 71.9 7.6 C 72 7.5 72.1 7.3 72.2 7.2 C 72.3 7 72.3 6.8 72.4 6.6 C 72.35 6.64 72.9 4.1 72.9 4.1 L 73.9 4.1 L 72.9 8.8 Z M 77.9 6 C 77.9 6 77.9 6 77.9 6 C 77.9 5.9 77.9 5.9 77.9 5.9 C 77.9 5.9 77.9 5.8 77.9 5.8 C 77.9 5.5 77.8 5.2 77.6 5.1 C 77.4 4.9 77.2 4.8 76.9 4.8 C 76.5 4.8 76.2 4.9 76 5.2 C 75.7 5.4 75.6 5.7 75.5 6 C 75.5 6 77.9 6 77.9 6 Z M 78.6 7.3 C 78.4 7.9 78.2 8.3 77.8 8.5 C 77.4 8.8 76.9 8.9 76.4 8.9 C 76.1 8.9 75.8 8.9 75.6 8.8 C 75.3 8.7 75.1 8.5 74.9 8.4 C 74.7 8.2 74.6 8 74.5 7.7 C 74.4 7.5 74.3 7.2 74.3 6.9 C 74.3 6.5 74.4 6.2 74.5 5.8 C 74.6 5.5 74.8 5.2 75 4.9 C 75.2 4.6 75.5 4.4 75.8 4.2 C 76.1 4.1 76.5 4 76.9 4 C 77.3 4 77.7 4.1 77.9 4.2 C 78.2 4.3 78.4 4.5 78.5 4.7 C 78.7 4.9 78.8 5.2 78.8 5.4 C 78.9 5.7 78.9 5.9 78.9 6.1 C 78.9 6.3 78.9 6.4 78.9 6.5 C 78.9 6.5 78.9 6.6 78.8 6.7 C 78.8 6.7 75.4 6.7 75.4 6.7 C 75.4 6.7 75.4 6.8 75.4 6.8 C 75.4 6.8 75.4 6.8 75.4 6.9 C 75.4 6.9 75.4 7 75.4 7 C 75.4 7.3 75.4 7.6 75.6 7.8 C 75.8 8 76.1 8.1 76.5 8.1 C 76.7 8.1 77 8 77.2 7.9 C 77.4 7.8 77.5 7.6 77.6 7.3 C 77.6 7.3 78.6 7.3 78.6 7.3 Z M 86 2.3 L 87.2 2.3 L 88.3 8.8 L 87.2 8.8 L 86.9 7.1 L 84.4 7.1 L 83.4 8.8 L 82.2 8.8 L 86 2.3 Z M 86.4 3.5 L 86.4 3.5 L 84.8 6.2 L 86.8 6.2 L 86.4 3.5 Z M 89.8 4.1 L 90.8 4.1 L 90.6 5 C 90.6 5 90.63 5.05 90.6 5 C 90.7 4.9 90.8 4.8 90.9 4.7 C 91 4.5 91.1 4.4 91.2 4.3 C 91.4 4.2 91.5 4.2 91.6 4.1 C 91.8 4 91.9 4 92.1 4 C 92.2 4 92.3 4 92.4 4 C 92.4 4 92.5 4 92.6 4 C 92.6 4 92.4 5 92.4 5 C 92.3 5 92.3 5 92.2 5 C 92.2 5 92.1 5 92 5 C 91.8 5 91.5 5 91.3 5.1 C 91.1 5.2 91 5.3 90.8 5.5 C 90.7 5.7 90.6 5.8 90.5 6 C 90.4 6.3 90.4 6.5 90.3 6.7 C 90.32 6.71 89.9 8.8 89.9 8.8 L 88.9 8.8 L 89.8 4.1 Z M 96 6 C 96 6 96 6 96 6 C 96 5.9 96 5.9 96 5.9 C 96 5.9 96 5.8 96 5.8 C 96 5.5 95.9 5.2 95.8 5.1 C 95.6 4.9 95.3 4.8 95 4.8 C 94.7 4.8 94.3 4.9 94.1 5.2 C 93.9 5.4 93.7 5.7 93.6 6 C 93.6 6 96 6 96 6 Z M 96.8 7.3 C 96.6 7.9 96.3 8.3 95.9 8.5 C 95.6 8.8 95.1 8.9 94.5 8.9 C 94.2 8.9 93.9 8.9 93.7 8.8 C 93.5 8.7 93.2 8.5 93.1 8.4 C 92.9 8.2 92.7 8 92.6 7.7 C 92.5 7.5 92.5 7.2 92.5 6.9 C 92.5 6.5 92.5 6.2 92.7 5.8 C 92.8 5.5 92.9 5.2 93.2 4.9 C 93.4 4.6 93.6 4.4 94 4.2 C 94.3 4.1 94.6 4 95.1 4 C 95.5 4 95.8 4.1 96.1 4.2 C 96.3 4.3 96.5 4.5 96.7 4.7 C 96.8 4.9 96.9 5.2 97 5.4 C 97 5.7 97 5.9 97 6.1 C 97 6.3 97 6.4 97 6.5 C 97 6.5 97 6.6 97 6.7 C 97 6.7 93.5 6.7 93.5 6.7 C 93.5 6.7 93.5 6.8 93.5 6.8 C 93.5 6.8 93.5 6.8 93.5 6.9 C 93.5 6.9 93.5 7 93.5 7 C 93.5 7.3 93.6 7.6 93.8 7.8 C 93.9 8 94.2 8.1 94.6 8.1 C 94.9 8.1 95.1 8 95.3 7.9 C 95.5 7.8 95.7 7.6 95.7 7.3 C 95.7 7.3 96.8 7.3 96.8 7.3 Z M 97.8 4.1 L 98.9 4.1 L 99.2 7.5 L 99.3 7.5 L 101.1 4.1 L 102.1 4.1 L 99.6 8.8 L 98.4 8.8 L 97.8 4.1 Z M 103 7.5 C 103 7.6 103 7.7 103.1 7.8 C 103.1 7.9 103.2 7.9 103.3 8 C 103.4 8 103.5 8 103.6 8.1 C 103.6 8.1 103.7 8.1 103.8 8.1 C 104.1 8.1 104.3 8 104.5 8 C 104.6 7.9 104.8 7.8 104.9 7.6 C 105 7.5 105.1 7.3 105.2 7.1 C 105.2 6.9 105.3 6.7 105.3 6.5 C 105.3 6.5 105.3 6.5 105.3 6.5 C 105.2 6.5 105.1 6.6 105 6.6 C 104.9 6.7 104.8 6.7 104.6 6.7 C 104.5 6.7 104.3 6.7 104.1 6.7 C 104 6.7 103.8 6.8 103.6 6.8 C 103.5 6.9 103.3 6.9 103.2 7.1 C 103.1 7.2 103 7.3 103 7.5 Z M 106.1 7.4 C 106.1 7.5 106.1 7.6 106 7.7 C 106 7.7 106 7.8 106 7.9 C 106 8 106 8 106.1 8 C 106.1 8.1 106.1 8.1 106.2 8.1 C 106.3 8.1 106.4 8.1 106.4 8.1 C 106.5 8.1 106.5 8 106.6 8 C 106.6 8 106.4 8.8 106.4 8.8 C 106.3 8.8 106.2 8.8 106 8.9 C 105.9 8.9 105.8 8.9 105.6 8.9 C 105.5 8.9 105.3 8.8 105.2 8.7 C 105.1 8.6 105 8.5 105 8.3 C 104.8 8.5 104.6 8.7 104.3 8.8 C 104 8.9 103.7 8.9 103.4 8.9 C 103.3 8.9 103.1 8.9 102.9 8.8 C 102.7 8.8 102.6 8.7 102.4 8.6 C 102.3 8.5 102.2 8.4 102.1 8.2 C 102 8 102 7.9 102 7.7 C 102 7.4 102 7.1 102.2 6.9 C 102.3 6.7 102.4 6.6 102.6 6.5 C 102.8 6.3 103 6.2 103.2 6.2 C 103.4 6.1 103.7 6.1 103.9 6.1 C 104.3 6 104.6 6 105 6 C 105.2 6 105.3 5.9 105.4 5.8 C 105.5 5.7 105.5 5.5 105.5 5.4 C 105.5 5.1 105.4 5 105.3 4.9 C 105.1 4.8 104.9 4.8 104.7 4.8 C 104.4 4.8 104.2 4.9 104 5 C 103.8 5.1 103.6 5.2 103.6 5.5 C 103.6 5.5 102.6 5.5 102.6 5.5 C 102.7 5.2 102.7 5 102.9 4.8 C 103 4.6 103.2 4.5 103.4 4.3 C 103.6 4.2 103.8 4.1 104 4.1 C 104.3 4 104.5 4 104.8 4 C 105.2 4 105.5 4 105.8 4.1 C 106 4.2 106.2 4.3 106.3 4.4 C 106.4 4.5 106.5 4.6 106.5 4.8 C 106.5 4.9 106.5 5 106.5 5.1 C 106.5 5.3 106.5 5.5 106.4 5.8 C 106.4 5.8 106.1 7.4 106.1 7.4 Z M 108.4 2.3 L 109.4 2.3 L 108.1 8.8 L 107.1 8.8 L 108.4 2.3 Z M 112.1 4.8 C 111.9 4.8 111.6 4.9 111.4 5 C 111.2 5.1 111.1 5.3 110.9 5.5 C 110.8 5.7 110.7 5.9 110.7 6.2 C 110.6 6.4 110.6 6.7 110.6 6.9 C 110.6 7.2 110.6 7.5 110.8 7.7 C 111 8 111.3 8.1 111.6 8.1 C 111.9 8.1 112.1 8 112.3 7.9 C 112.5 7.8 112.7 7.6 112.8 7.4 C 112.9 7.2 113 7 113.1 6.7 C 113.2 6.5 113.2 6.2 113.2 6 C 113.2 5.7 113.1 5.4 112.9 5.1 C 112.8 4.9 112.5 4.8 112.1 4.8 Z M 111.6 8.9 C 110.9 8.9 110.4 8.7 110.1 8.4 C 109.7 8 109.5 7.5 109.5 6.9 C 109.5 6.5 109.6 6.1 109.7 5.8 C 109.9 5.4 110 5.1 110.3 4.9 C 110.5 4.6 110.8 4.4 111.1 4.2 C 111.4 4.1 111.8 4 112.2 4 C 112.8 4 113.3 4.2 113.7 4.5 C 114 4.8 114.2 5.3 114.2 6 C 114.2 6.4 114.2 6.8 114 7.1 C 113.9 7.5 113.7 7.8 113.5 8.1 C 113.3 8.3 113 8.5 112.7 8.7 C 112.4 8.8 112 8.9 111.6 8.9 Z M 118.8 1.7 L 119.7 1.7 L 119.7 10.7 L 118.8 10.7 L 118.8 1.7 Z M 125.1 2.3 L 126.6 2.3 L 127.3 7.2 L 127.3 7.2 L 130.1 2.3 L 131.7 2.3 L 130.4 8.8 L 129.3 8.8 L 130.4 3.6 L 130.4 3.6 L 127.5 8.8 L 126.6 8.8 L 125.8 3.6 L 125.8 3.6 L 124.8 8.8 L 123.7 8.8 L 125.1 2.3 Z M 133 6.8 C 133 7 133 7.1 133 7.3 C 133.1 7.4 133.1 7.5 133.2 7.6 C 133.3 7.7 133.4 7.8 133.5 7.9 C 133.6 7.9 133.8 8 134 8 C 134.2 8 134.5 7.9 134.7 7.8 C 134.9 7.6 135 7.5 135.1 7.3 C 135.3 7.1 135.4 6.9 135.4 6.6 C 135.5 6.4 135.5 6.1 135.5 5.9 C 135.5 5.6 135.4 5.3 135.2 5.1 C 135.1 4.9 134.8 4.8 134.5 4.8 C 134.2 4.8 134 4.9 133.8 5 C 133.6 5.1 133.5 5.3 133.4 5.5 C 133.2 5.7 133.1 5.9 133.1 6.1 C 133 6.4 133 6.6 133 6.8 Z M 135.9 8.6 C 135.9 9 135.8 9.3 135.7 9.6 C 135.5 9.8 135.4 10 135.2 10.2 C 135 10.3 134.8 10.4 134.5 10.5 C 134.3 10.6 134 10.6 133.6 10.6 C 133.3 10.6 133.1 10.6 132.8 10.5 C 132.6 10.5 132.4 10.4 132.2 10.3 C 132 10.2 131.9 10 131.8 9.8 C 131.7 9.6 131.6 9.4 131.6 9.1 C 131.6 9.1 132.6 9.1 132.6 9.1 C 132.6 9.4 132.7 9.6 132.9 9.7 C 133.1 9.8 133.4 9.9 133.7 9.9 C 133.9 9.9 134.1 9.8 134.3 9.8 C 134.4 9.7 134.5 9.6 134.6 9.5 C 134.7 9.4 134.8 9.2 134.9 9.1 C 134.9 8.9 135 8.7 135 8.5 C 135 8.55 135.1 8.1 135.1 8.1 C 135.1 8.1 135.08 8.07 135.1 8.1 C 134.8 8.5 134.3 8.8 133.8 8.8 C 133.2 8.8 132.7 8.6 132.4 8.3 C 132.1 7.9 132 7.5 132 6.9 C 132 6.5 132 6.2 132.1 5.8 C 132.2 5.5 132.4 5.2 132.6 4.9 C 132.8 4.6 133 4.4 133.3 4.2 C 133.6 4.1 134 4 134.4 4 C 134.7 4 135 4.1 135.2 4.2 C 135.5 4.3 135.7 4.6 135.8 4.9 C 135.8 4.9 135.8 4.9 135.8 4.9 L 136 4.1 L 136.9 4.1 C 136.9 4.1 135.95 8.65 135.9 8.6 Z M 138.2 7.5 C 138.2 7.6 138.2 7.7 138.2 7.8 C 138.3 7.9 138.4 7.9 138.4 8 C 138.5 8 138.6 8 138.7 8.1 C 138.8 8.1 138.9 8.1 139 8.1 C 139.2 8.1 139.4 8 139.6 8 C 139.8 7.9 139.9 7.8 140 7.6 C 140.1 7.5 140.2 7.3 140.3 7.1 C 140.4 6.9 140.4 6.7 140.4 6.5 C 140.4 6.5 140.4 6.5 140.4 6.5 C 140.4 6.5 140.3 6.6 140.1 6.6 C 140 6.7 139.9 6.7 139.8 6.7 C 139.6 6.7 139.5 6.7 139.3 6.7 C 139.1 6.7 138.9 6.8 138.8 6.8 C 138.6 6.9 138.5 6.9 138.3 7.1 C 138.2 7.2 138.2 7.3 138.2 7.5 Z M 141.2 7.4 C 141.2 7.5 141.2 7.6 141.2 7.7 C 141.2 7.7 141.2 7.8 141.2 7.9 C 141.2 8 141.2 8 141.2 8 C 141.2 8.1 141.3 8.1 141.4 8.1 C 141.4 8.1 141.5 8.1 141.6 8.1 C 141.6 8.1 141.7 8 141.7 8 C 141.7 8 141.6 8.8 141.6 8.8 C 141.4 8.8 141.3 8.8 141.2 8.9 C 141 8.9 140.9 8.9 140.8 8.9 C 140.6 8.9 140.5 8.8 140.3 8.7 C 140.2 8.6 140.2 8.5 140.2 8.3 C 139.9 8.5 139.7 8.7 139.4 8.8 C 139.2 8.9 138.9 8.9 138.6 8.9 C 138.4 8.9 138.2 8.9 138 8.8 C 137.9 8.8 137.7 8.7 137.6 8.6 C 137.4 8.5 137.3 8.4 137.3 8.2 C 137.2 8 137.1 7.9 137.1 7.7 C 137.1 7.4 137.2 7.1 137.3 6.9 C 137.4 6.7 137.6 6.6 137.7 6.5 C 137.9 6.3 138.1 6.2 138.4 6.2 C 138.6 6.1 138.8 6.1 139.1 6.1 C 139.4 6 139.8 6 140.1 6 C 140.3 6 140.4 5.9 140.5 5.8 C 140.6 5.7 140.7 5.5 140.7 5.4 C 140.7 5.1 140.6 5 140.4 4.9 C 140.3 4.8 140.1 4.8 139.9 4.8 C 139.6 4.8 139.3 4.9 139.1 5 C 138.9 5.1 138.8 5.2 138.7 5.5 C 138.7 5.5 137.7 5.5 137.7 5.5 C 137.8 5.2 137.9 5 138 4.8 C 138.2 4.6 138.3 4.5 138.5 4.3 C 138.7 4.2 138.9 4.1 139.2 4.1 C 139.4 4 139.7 4 139.9 4 C 140.4 4 140.7 4 140.9 4.1 C 141.2 4.2 141.3 4.3 141.4 4.4 C 141.6 4.5 141.6 4.6 141.6 4.8 C 141.7 4.9 141.7 5 141.7 5.1 C 141.7 5.3 141.7 5.5 141.6 5.8 C 141.6 5.8 141.2 7.4 141.2 7.4 Z M 146.9 2.3 L 147.9 2.3 L 147.2 6 L 147.2 6 L 149.3 4.1 L 150.6 4.1 L 148.6 5.8 L 149.7 8.8 L 148.6 8.8 L 147.7 6.5 L 146.9 7.2 L 146.6 8.8 L 145.6 8.8 L 146.9 2.3 Z M 154.4 8.8 L 153.4 8.8 L 153.6 8.1 C 153.6 8.1 153.57 8.08 153.6 8.1 C 153.4 8.3 153.1 8.5 152.9 8.7 C 152.6 8.8 152.3 8.9 152 8.9 C 151.5 8.9 151.2 8.8 150.9 8.6 C 150.7 8.3 150.6 8 150.6 7.7 C 150.6 7.6 150.6 7.5 150.6 7.4 C 150.6 7.3 150.6 7.2 150.6 7.1 C 150.65 7.09 151.3 4.1 151.3 4.1 L 152.3 4.1 C 152.3 4.1 151.7 6.99 151.7 7 C 151.7 7.1 151.7 7.1 151.7 7.2 C 151.6 7.3 151.6 7.4 151.6 7.4 C 151.6 7.5 151.6 7.5 151.6 7.6 C 151.6 7.7 151.7 7.7 151.7 7.8 C 151.7 7.9 151.8 8 151.9 8 C 152 8.1 152.1 8.1 152.3 8.1 C 152.5 8.1 152.7 8 152.9 8 C 153.1 7.9 153.2 7.8 153.3 7.6 C 153.4 7.5 153.6 7.3 153.6 7.2 C 153.7 7 153.8 6.8 153.8 6.6 C 153.82 6.64 154.3 4.1 154.3 4.1 L 155.4 4.1 L 154.4 8.8 Z M 156.9 2.3 L 158 2.3 L 157.5 4.8 C 157.5 4.8 157.47 4.78 157.5 4.8 C 157.6 4.5 157.9 4.4 158.1 4.2 C 158.4 4.1 158.7 4 159 4 C 159.5 4 159.8 4.1 160 4.3 C 160.3 4.6 160.4 4.9 160.4 5.2 C 160.4 5.3 160.4 5.4 160.4 5.5 C 160.3 5.6 160.3 5.7 160.3 5.8 C 160.32 5.8 159.7 8.8 159.7 8.8 L 158.7 8.8 C 158.7 8.8 159.26 5.9 159.3 5.9 C 159.3 5.8 159.3 5.8 159.3 5.7 C 159.3 5.6 159.3 5.5 159.3 5.5 C 159.3 5.4 159.3 5.4 159.3 5.3 C 159.3 5.2 159.3 5.2 159.3 5.1 C 159.2 5 159.1 4.9 159.1 4.9 C 159 4.8 158.8 4.8 158.6 4.8 C 158.4 4.8 158.2 4.8 158.1 4.9 C 157.9 5 157.8 5.1 157.7 5.3 C 157.5 5.4 157.4 5.5 157.3 5.7 C 157.3 5.9 157.2 6.1 157.1 6.3 C 157.15 6.25 156.6 8.8 156.6 8.8 L 155.6 8.8 L 156.9 2.3 Z M 161.9 7.5 C 161.9 7.6 161.9 7.7 162 7.8 C 162 7.9 162.1 7.9 162.2 8 C 162.3 8 162.3 8 162.4 8.1 C 162.5 8.1 162.6 8.1 162.7 8.1 C 163 8.1 163.2 8 163.4 8 C 163.5 7.9 163.7 7.8 163.8 7.6 C 163.9 7.5 164 7.3 164 7.1 C 164.1 6.9 164.2 6.7 164.2 6.5 C 164.2 6.5 164.2 6.5 164.2 6.5 C 164.1 6.5 164 6.6 163.9 6.6 C 163.8 6.7 163.7 6.7 163.5 6.7 C 163.4 6.7 163.2 6.7 163 6.7 C 162.8 6.7 162.7 6.8 162.5 6.8 C 162.3 6.9 162.2 6.9 162.1 7.1 C 162 7.2 161.9 7.3 161.9 7.5 Z M 165 7.4 C 165 7.5 165 7.6 164.9 7.7 C 164.9 7.7 164.9 7.8 164.9 7.9 C 164.9 8 164.9 8 165 8 C 165 8.1 165 8.1 165.1 8.1 C 165.2 8.1 165.2 8.1 165.3 8.1 C 165.4 8.1 165.4 8 165.5 8 C 165.5 8 165.3 8.8 165.3 8.8 C 165.2 8.8 165.1 8.8 164.9 8.9 C 164.8 8.9 164.7 8.9 164.5 8.9 C 164.3 8.9 164.2 8.8 164.1 8.7 C 164 8.6 163.9 8.5 163.9 8.3 C 163.7 8.5 163.5 8.7 163.2 8.8 C 162.9 8.9 162.6 8.9 162.3 8.9 C 162.1 8.9 162 8.9 161.8 8.8 C 161.6 8.8 161.5 8.7 161.3 8.6 C 161.2 8.5 161.1 8.4 161 8.2 C 160.9 8 160.9 7.9 160.9 7.7 C 160.9 7.4 160.9 7.1 161 6.9 C 161.2 6.7 161.3 6.6 161.5 6.5 C 161.7 6.3 161.9 6.2 162.1 6.2 C 162.3 6.1 162.6 6.1 162.8 6.1 C 163.2 6 163.5 6 163.9 6 C 164 6 164.2 5.9 164.3 5.8 C 164.4 5.7 164.4 5.5 164.4 5.4 C 164.4 5.1 164.3 5 164.2 4.9 C 164 4.8 163.8 4.8 163.6 4.8 C 163.3 4.8 163.1 4.9 162.9 5 C 162.7 5.1 162.5 5.2 162.5 5.5 C 162.5 5.5 161.5 5.5 161.5 5.5 C 161.5 5.2 161.6 5 161.8 4.8 C 161.9 4.6 162.1 4.5 162.3 4.3 C 162.4 4.2 162.7 4.1 162.9 4.1 C 163.1 4 163.4 4 163.7 4 C 164.1 4 164.4 4 164.7 4.1 C 164.9 4.2 165.1 4.3 165.2 4.4 C 165.3 4.5 165.4 4.6 165.4 4.8 C 165.4 4.9 165.4 5 165.4 5.1 C 165.4 5.3 165.4 5.5 165.3 5.8 C 165.3 5.8 165 7.4 165 7.4 Z M 170.3 4.1 L 171.3 4.1 L 171.2 4.8 C 171.2 4.8 171.2 4.8 171.2 4.8 C 171.4 4.5 171.6 4.3 171.9 4.2 C 172.2 4.1 172.5 4 172.8 4 C 173.1 4 173.3 4.1 173.5 4.2 C 173.8 4.3 173.9 4.5 174 4.8 C 174.2 4.6 174.4 4.4 174.7 4.2 C 174.9 4.1 175.2 4 175.5 4 C 176 4 176.3 4.1 176.5 4.3 C 176.8 4.6 176.9 4.9 176.9 5.2 C 176.9 5.3 176.9 5.4 176.8 5.5 C 176.8 5.6 176.8 5.7 176.8 5.8 C 176.8 5.8 176.2 8.8 176.2 8.8 L 175.2 8.8 C 175.2 8.8 175.75 6.02 175.8 6 C 175.8 6 175.8 5.9 175.8 5.8 C 175.8 5.7 175.8 5.6 175.8 5.5 C 175.8 5.4 175.8 5.3 175.8 5.2 C 175.8 5.2 175.8 5.1 175.7 5 C 175.7 5 175.6 4.9 175.5 4.9 C 175.4 4.8 175.3 4.8 175.2 4.8 C 175 4.8 174.8 4.8 174.7 4.9 C 174.5 5 174.4 5.1 174.3 5.2 C 174.2 5.4 174.1 5.5 174 5.6 C 173.9 5.8 173.9 5.9 173.9 6.1 C 173.87 6.06 173.3 8.8 173.3 8.8 L 172.3 8.8 C 172.3 8.8 172.81 6.22 172.8 6.2 C 172.8 6.1 172.9 6 172.9 5.8 C 172.9 5.7 172.9 5.5 172.9 5.4 C 172.9 5.2 172.9 5.1 172.8 5 C 172.7 4.9 172.6 4.8 172.4 4.8 C 172.2 4.8 172 4.8 171.9 4.9 C 171.7 5 171.6 5.1 171.5 5.2 C 171.4 5.3 171.3 5.4 171.2 5.6 C 171.1 5.7 171 5.9 171 6.1 C 170.97 6.08 170.4 8.8 170.4 8.8 L 169.4 8.8 L 170.3 4.1 Z M 181.5 8.8 L 180.5 8.8 L 180.7 8.1 C 180.7 8.1 180.64 8.08 180.6 8.1 C 180.5 8.3 180.2 8.5 179.9 8.7 C 179.7 8.8 179.4 8.9 179 8.9 C 178.6 8.9 178.2 8.8 178 8.6 C 177.8 8.3 177.7 8 177.7 7.7 C 177.7 7.6 177.7 7.5 177.7 7.4 C 177.7 7.3 177.7 7.2 177.7 7.1 C 177.72 7.09 178.3 4.1 178.3 4.1 L 179.4 4.1 C 179.4 4.1 178.78 6.99 178.8 7 C 178.8 7.1 178.7 7.1 178.7 7.2 C 178.7 7.3 178.7 7.4 178.7 7.4 C 178.7 7.5 178.7 7.5 178.7 7.6 C 178.7 7.7 178.7 7.7 178.8 7.8 C 178.8 7.9 178.9 8 179 8 C 179.1 8.1 179.2 8.1 179.4 8.1 C 179.6 8.1 179.8 8 180 8 C 180.1 7.9 180.3 7.8 180.4 7.6 C 180.5 7.5 180.6 7.3 180.7 7.2 C 180.8 7 180.9 6.8 180.9 6.6 C 180.89 6.64 181.4 4.1 181.4 4.1 L 182.4 4.1 L 181.5 8.8 Z M 184 2.3 L 185 2.3 L 183.7 8.8 L 182.7 8.8 L 184 2.3 Z M 186 7.5 C 186 7.6 186 7.7 186.1 7.8 C 186.1 7.9 186.2 7.9 186.3 8 C 186.3 8 186.4 8 186.5 8.1 C 186.6 8.1 186.7 8.1 186.8 8.1 C 187.1 8.1 187.3 8 187.4 8 C 187.6 7.9 187.8 7.8 187.9 7.6 C 188 7.5 188.1 7.3 188.1 7.1 C 188.2 6.9 188.2 6.7 188.3 6.5 C 188.3 6.5 188.3 6.5 188.3 6.5 C 188.2 6.5 188.1 6.6 188 6.6 C 187.8 6.7 187.7 6.7 187.6 6.7 C 187.5 6.7 187.3 6.7 187.1 6.7 C 186.9 6.7 186.8 6.8 186.6 6.8 C 186.4 6.9 186.3 6.9 186.2 7.1 C 186 7.2 186 7.3 186 7.5 Z M 189.1 7.4 C 189.1 7.5 189 7.6 189 7.7 C 189 7.7 189 7.8 189 7.9 C 189 8 189 8 189 8 C 189.1 8.1 189.1 8.1 189.2 8.1 C 189.3 8.1 189.3 8.1 189.4 8.1 C 189.4 8.1 189.5 8 189.6 8 C 189.6 8 189.4 8.8 189.4 8.8 C 189.3 8.8 189.1 8.8 189 8.9 C 188.9 8.9 188.7 8.9 188.6 8.9 C 188.4 8.9 188.3 8.8 188.2 8.7 C 188.1 8.6 188 8.5 188 8.3 C 187.8 8.5 187.5 8.7 187.3 8.8 C 187 8.9 186.7 8.9 186.4 8.9 C 186.2 8.9 186 8.9 185.9 8.8 C 185.7 8.8 185.5 8.7 185.4 8.6 C 185.3 8.5 185.2 8.4 185.1 8.2 C 185 8 185 7.9 185 7.7 C 185 7.4 185 7.1 185.1 6.9 C 185.2 6.7 185.4 6.6 185.6 6.5 C 185.7 6.3 185.9 6.2 186.2 6.2 C 186.4 6.1 186.7 6.1 186.9 6.1 C 187.3 6 187.6 6 187.9 6 C 188.1 6 188.3 5.9 188.3 5.8 C 188.4 5.7 188.5 5.5 188.5 5.4 C 188.5 5.1 188.4 5 188.2 4.9 C 188.1 4.8 187.9 4.8 187.7 4.8 C 187.4 4.8 187.2 4.9 187 5 C 186.7 5.1 186.6 5.2 186.5 5.5 C 186.5 5.5 185.6 5.5 185.6 5.5 C 185.6 5.2 185.7 5 185.8 4.8 C 186 4.6 186.1 4.5 186.3 4.3 C 186.5 4.2 186.7 4.1 187 4.1 C 187.2 4 187.5 4 187.8 4 C 188.2 4 188.5 4 188.7 4.1 C 189 4.2 189.2 4.3 189.3 4.4 C 189.4 4.5 189.4 4.6 189.5 4.8 C 189.5 4.9 189.5 5 189.5 5.1 C 189.5 5.3 189.5 5.5 189.4 5.8 C 189.4 5.8 189.1 7.4 189.1 7.4 Z M 196.7 5.5 C 196.7 5.2 196.6 5.1 196.4 5 C 196.3 4.9 196 4.8 195.8 4.8 C 195.7 4.8 195.6 4.8 195.5 4.8 C 195.4 4.9 195.3 4.9 195.2 4.9 C 195.1 5 195.1 5 195 5.1 C 195 5.2 195 5.3 195 5.4 C 195 5.5 195 5.6 195.1 5.7 C 195.2 5.7 195.3 5.8 195.4 5.8 C 195.5 5.9 195.7 5.9 195.9 6 C 196 6 196.2 6.1 196.3 6.1 C 196.5 6.2 196.6 6.2 196.7 6.3 C 196.9 6.4 197 6.5 197.1 6.6 C 197.2 6.6 197.3 6.8 197.3 6.9 C 197.4 7 197.4 7.2 197.4 7.4 C 197.4 7.6 197.4 7.9 197.2 8.1 C 197.1 8.3 197 8.4 196.8 8.5 C 196.6 8.7 196.4 8.8 196.1 8.8 C 195.9 8.9 195.6 8.9 195.4 8.9 C 195.1 8.9 194.8 8.9 194.6 8.8 C 194.4 8.8 194.2 8.7 194 8.6 C 193.8 8.4 193.7 8.3 193.6 8.1 C 193.5 7.9 193.4 7.6 193.4 7.3 C 193.4 7.3 194.4 7.3 194.4 7.3 C 194.4 7.6 194.5 7.8 194.7 7.9 C 194.9 8 195.1 8.1 195.4 8.1 C 195.5 8.1 195.6 8.1 195.7 8.1 C 195.9 8 196 8 196.1 8 C 196.2 7.9 196.2 7.8 196.3 7.8 C 196.4 7.7 196.4 7.6 196.4 7.4 C 196.4 7.3 196.4 7.2 196.3 7.1 C 196.2 7.1 196.1 7 195.9 6.9 C 195.8 6.9 195.6 6.8 195.5 6.8 C 195.3 6.7 195.1 6.7 195 6.6 C 194.8 6.6 194.7 6.5 194.6 6.4 C 194.5 6.4 194.3 6.3 194.3 6.2 C 194.2 6.1 194.1 6 194 5.9 C 194 5.7 193.9 5.6 193.9 5.4 C 193.9 5.2 194 4.9 194.1 4.8 C 194.2 4.6 194.4 4.4 194.5 4.3 C 194.7 4.2 194.9 4.1 195.2 4.1 C 195.4 4 195.6 4 195.9 4 C 196.1 4 196.4 4 196.6 4.1 C 196.8 4.1 197 4.2 197.2 4.3 C 197.3 4.4 197.4 4.6 197.5 4.8 C 197.6 5 197.7 5.2 197.7 5.5 C 197.7 5.5 196.7 5.5 196.7 5.5 Z M 199 7.5 C 199 7.6 199.1 7.7 199.1 7.8 C 199.2 7.9 199.2 7.9 199.3 8 C 199.4 8 199.5 8 199.6 8.1 C 199.7 8.1 199.8 8.1 199.9 8.1 C 200.1 8.1 200.3 8 200.5 8 C 200.7 7.9 200.8 7.8 200.9 7.6 C 201 7.5 201.1 7.3 201.2 7.1 C 201.3 6.9 201.3 6.7 201.3 6.5 C 201.3 6.5 201.3 6.5 201.3 6.5 C 201.2 6.5 201.1 6.6 201 6.6 C 200.9 6.7 200.8 6.7 200.7 6.7 C 200.5 6.7 200.4 6.7 200.2 6.7 C 200 6.7 199.8 6.8 199.6 6.8 C 199.5 6.9 199.3 6.9 199.2 7.1 C 199.1 7.2 199 7.3 199 7.5 Z M 202.1 7.4 C 202.1 7.5 202.1 7.6 202.1 7.7 C 202.1 7.7 202 7.8 202 7.9 C 202 8 202.1 8 202.1 8 C 202.1 8.1 202.2 8.1 202.3 8.1 C 202.3 8.1 202.4 8.1 202.4 8.1 C 202.5 8.1 202.6 8 202.6 8 C 202.6 8 202.5 8.8 202.5 8.8 C 202.3 8.8 202.2 8.8 202.1 8.9 C 201.9 8.9 201.8 8.9 201.7 8.9 C 201.5 8.9 201.3 8.8 201.2 8.7 C 201.1 8.6 201.1 8.5 201 8.3 C 200.8 8.5 200.6 8.7 200.3 8.8 C 200 8.9 199.8 8.9 199.5 8.9 C 199.3 8.9 199.1 8.9 198.9 8.8 C 198.7 8.8 198.6 8.7 198.5 8.6 C 198.3 8.5 198.2 8.4 198.1 8.2 C 198.1 8 198 7.9 198 7.7 C 198 7.4 198.1 7.1 198.2 6.9 C 198.3 6.7 198.4 6.6 198.6 6.5 C 198.8 6.3 199 6.2 199.2 6.2 C 199.5 6.1 199.7 6.1 200 6.1 C 200.3 6 200.7 6 201 6 C 201.2 6 201.3 5.9 201.4 5.8 C 201.5 5.7 201.5 5.5 201.5 5.4 C 201.5 5.1 201.5 5 201.3 4.9 C 201.2 4.8 201 4.8 200.8 4.8 C 200.5 4.8 200.2 4.9 200 5 C 199.8 5.1 199.7 5.2 199.6 5.5 C 199.6 5.5 198.6 5.5 198.6 5.5 C 198.7 5.2 198.8 5 198.9 4.8 C 199 4.6 199.2 4.5 199.4 4.3 C 199.6 4.2 199.8 4.1 200 4.1 C 200.3 4 200.5 4 200.8 4 C 201.2 4 201.6 4 201.8 4.1 C 202 4.2 202.2 4.3 202.3 4.4 C 202.4 4.5 202.5 4.6 202.5 4.8 C 202.6 4.9 202.6 5 202.6 5.1 C 202.6 5.3 202.5 5.5 202.5 5.8 C 202.5 5.8 202.1 7.4 202.1 7.4 Z M 207.9 2.3 C 207.9 2.3 210.53 2.35 210.5 2.3 C 210.9 2.3 211.1 2.4 211.4 2.5 C 211.6 2.5 211.8 2.6 211.9 2.7 C 212.1 2.8 212.2 3 212.3 3.1 C 212.4 3.2 212.4 3.4 212.5 3.5 C 212.5 3.7 212.5 3.8 212.5 4 C 212.5 4.1 212.5 4.2 212.5 4.3 C 212.5 4.3 212.5 4.4 212.5 4.5 C 212.5 4.6 212.5 4.7 212.4 4.8 C 212.4 5 212.3 5.2 212.2 5.3 C 212.1 5.5 212 5.7 211.8 5.8 C 211.7 5.9 211.4 6.1 211.2 6.2 C 210.9 6.3 210.6 6.3 210.2 6.3 C 210.18 6.31 208.3 6.3 208.3 6.3 L 207.7 8.8 L 206.6 8.8 L 207.9 2.3 Z M 208.4 5.4 C 208.4 5.4 210.14 5.39 210.1 5.4 C 210.4 5.4 210.6 5.4 210.8 5.3 C 210.9 5.2 211.1 5.1 211.2 5 C 211.2 4.9 211.3 4.7 211.4 4.6 C 211.4 4.4 211.4 4.3 211.4 4.1 C 211.4 4.1 211.4 4 211.4 3.9 C 211.3 3.8 211.3 3.7 211.2 3.6 C 211.1 3.5 211 3.4 210.9 3.4 C 210.8 3.3 210.6 3.3 210.3 3.3 C 210.34 3.27 208.9 3.3 208.9 3.3 L 208.4 5.4 Z M 213.9 2.3 L 214.9 2.3 L 214.4 4.8 C 214.4 4.8 214.43 4.78 214.4 4.8 C 214.6 4.5 214.8 4.4 215.1 4.2 C 215.4 4.1 215.7 4 216 4 C 216.4 4 216.8 4.1 217 4.3 C 217.2 4.6 217.3 4.9 217.3 5.2 C 217.3 5.3 217.3 5.4 217.3 5.5 C 217.3 5.6 217.3 5.7 217.3 5.8 C 217.28 5.8 216.7 8.8 216.7 8.8 L 215.6 8.8 C 215.6 8.8 216.23 5.9 216.2 5.9 C 216.2 5.8 216.3 5.8 216.3 5.7 C 216.3 5.6 216.3 5.5 216.3 5.5 C 216.3 5.4 216.3 5.4 216.3 5.3 C 216.3 5.2 216.3 5.2 216.2 5.1 C 216.2 5 216.1 4.9 216 4.9 C 215.9 4.8 215.8 4.8 215.6 4.8 C 215.4 4.8 215.2 4.8 215 4.9 C 214.9 5 214.7 5.1 214.6 5.3 C 214.5 5.4 214.4 5.5 214.3 5.7 C 214.2 5.9 214.2 6.1 214.1 6.3 C 214.11 6.25 213.6 8.8 213.6 8.8 L 212.6 8.8 L 213.9 2.3 Z M 219.2 2.3 L 220.2 2.3 L 220 3.3 L 219 3.3 L 219.2 2.3 Z M 218.8 4.1 L 219.8 4.1 L 218.8 8.8 L 217.8 8.8 L 218.8 4.1 Z M 221.4 2.3 L 222.4 2.3 L 221.1 8.8 L 220.1 8.8 L 221.4 2.3 Z M 223.7 2.3 L 224.7 2.3 L 224.5 3.3 L 223.5 3.3 L 223.7 2.3 Z M 223.3 4.1 L 224.3 4.1 L 223.4 8.8 L 222.3 8.8 L 223.3 4.1 Z M 226.1 6.9 C 226.1 7.1 226.1 7.2 226.1 7.4 C 226.2 7.5 226.2 7.6 226.3 7.7 C 226.4 7.8 226.5 7.9 226.6 8 C 226.8 8.1 226.9 8.1 227.1 8.1 C 227.4 8.1 227.6 8 227.8 7.9 C 228 7.8 228.2 7.6 228.3 7.4 C 228.4 7.2 228.5 7 228.6 6.8 C 228.6 6.5 228.7 6.3 228.7 6 C 228.7 5.9 228.7 5.7 228.6 5.5 C 228.6 5.4 228.5 5.3 228.4 5.2 C 228.4 5.1 228.2 5 228.1 4.9 C 228 4.8 227.8 4.8 227.7 4.8 C 227.4 4.8 227.1 4.9 226.9 5 C 226.7 5.1 226.6 5.3 226.4 5.5 C 226.3 5.7 226.2 5.9 226.2 6.2 C 226.1 6.4 226.1 6.7 226.1 6.9 Z M 225.6 4.1 L 226.6 4.1 L 226.5 4.7 C 226.5 4.7 226.48 4.73 226.5 4.7 C 226.6 4.5 226.9 4.3 227.1 4.2 C 227.4 4.1 227.7 4 227.9 4 C 228.2 4 228.5 4 228.7 4.1 C 228.9 4.2 229.1 4.4 229.3 4.5 C 229.4 4.7 229.5 4.9 229.6 5.2 C 229.7 5.4 229.7 5.6 229.7 5.9 C 229.7 6.3 229.7 6.6 229.6 7 C 229.5 7.3 229.3 7.7 229.1 7.9 C 228.9 8.2 228.7 8.5 228.4 8.6 C 228.1 8.8 227.7 8.9 227.3 8.9 C 227 8.9 226.7 8.8 226.4 8.7 C 226.1 8.6 225.9 8.4 225.8 8.1 C 225.8 8.05 225.8 8.1 225.8 8.1 L 225.3 10.5 L 224.3 10.5 L 225.6 4.1 Z M 231.7 6.9 C 231.7 7.1 231.7 7.2 231.7 7.4 C 231.7 7.5 231.8 7.6 231.9 7.7 C 232 7.8 232.1 7.9 232.2 8 C 232.3 8.1 232.5 8.1 232.7 8.1 C 233 8.1 233.2 8 233.4 7.9 C 233.6 7.8 233.8 7.6 233.9 7.4 C 234 7.2 234.1 7 234.2 6.8 C 234.2 6.5 234.3 6.3 234.3 6 C 234.3 5.9 234.3 5.7 234.2 5.5 C 234.2 5.4 234.1 5.3 234 5.2 C 233.9 5.1 233.8 5 233.7 4.9 C 233.6 4.8 233.4 4.8 233.2 4.8 C 233 4.8 232.7 4.9 232.5 5 C 232.3 5.1 232.2 5.3 232 5.5 C 231.9 5.7 231.8 5.9 231.7 6.2 C 231.7 6.4 231.7 6.7 231.7 6.9 Z M 231.2 4.1 L 232.2 4.1 L 232 4.7 C 232 4.7 232.07 4.73 232.1 4.7 C 232.2 4.5 232.4 4.3 232.7 4.2 C 233 4.1 233.2 4 233.5 4 C 233.8 4 234.1 4 234.3 4.1 C 234.5 4.2 234.7 4.4 234.9 4.5 C 235 4.7 235.1 4.9 235.2 5.2 C 235.3 5.4 235.3 5.6 235.3 5.9 C 235.3 6.3 235.2 6.6 235.2 7 C 235.1 7.3 234.9 7.7 234.7 7.9 C 234.5 8.2 234.3 8.5 234 8.6 C 233.7 8.8 233.3 8.9 232.9 8.9 C 232.6 8.9 232.3 8.8 232 8.7 C 231.7 8.6 231.5 8.4 231.4 8.1 C 231.39 8.05 231.4 8.1 231.4 8.1 L 230.9 10.5 L 229.8 10.5 L 231.2 4.1 Z M 237.1 2.3 L 238.1 2.3 L 237.9 3.3 L 236.9 3.3 L 237.1 2.3 Z M 236.7 4.1 L 237.8 4.1 L 236.8 8.8 L 235.8 8.8 L 236.7 4.1 Z M 239 4.1 L 240 4.1 L 239.8 4.8 C 239.8 4.8 239.83 4.81 239.8 4.8 C 240 4.6 240.3 4.4 240.5 4.2 C 240.8 4.1 241.1 4 241.4 4 C 241.9 4 242.2 4.1 242.5 4.3 C 242.7 4.6 242.8 4.9 242.8 5.2 C 242.8 5.3 242.8 5.4 242.8 5.5 C 242.8 5.6 242.8 5.7 242.7 5.8 C 242.75 5.8 242.1 8.8 242.1 8.8 L 241.1 8.8 C 241.1 8.8 241.7 5.9 241.7 5.9 C 241.7 5.8 241.7 5.8 241.7 5.7 C 241.8 5.6 241.8 5.5 241.8 5.5 C 241.8 5.4 241.8 5.4 241.8 5.3 C 241.8 5.2 241.7 5.2 241.7 5.1 C 241.7 5 241.6 4.9 241.5 4.9 C 241.4 4.8 241.2 4.8 241.1 4.8 C 240.9 4.8 240.7 4.8 240.5 4.9 C 240.4 5 240.2 5.1 240.1 5.3 C 240 5.4 239.9 5.5 239.8 5.7 C 239.7 5.9 239.6 6.1 239.6 6.3 C 239.58 6.25 239.1 8.8 239.1 8.8 L 238 8.8 L 239 4.1 Z M 247 6 C 247 6 247 6 247 6 C 247 5.9 247 5.9 247 5.9 C 247 5.9 247 5.8 247 5.8 C 247 5.5 246.9 5.2 246.8 5.1 C 246.6 4.9 246.3 4.8 246 4.8 C 245.7 4.8 245.4 4.9 245.1 5.2 C 244.9 5.4 244.7 5.7 244.6 6 C 244.6 6 247 6 247 6 Z M 247.8 7.3 C 247.6 7.9 247.3 8.3 246.9 8.5 C 246.6 8.8 246.1 8.9 245.5 8.9 C 245.2 8.9 245 8.9 244.7 8.8 C 244.5 8.7 244.2 8.5 244.1 8.4 C 243.9 8.2 243.7 8 243.6 7.7 C 243.5 7.5 243.5 7.2 243.5 6.9 C 243.5 6.5 243.5 6.2 243.7 5.8 C 243.8 5.5 243.9 5.2 244.2 4.9 C 244.4 4.6 244.6 4.4 245 4.2 C 245.3 4.1 245.7 4 246.1 4 C 246.5 4 246.8 4.1 247.1 4.2 C 247.3 4.3 247.5 4.5 247.7 4.7 C 247.8 4.9 247.9 5.2 248 5.4 C 248 5.7 248 5.9 248 6.1 C 248 6.3 248 6.4 248 6.5 C 248 6.5 248 6.6 248 6.7 C 248 6.7 244.5 6.7 244.5 6.7 C 244.5 6.7 244.5 6.8 244.5 6.8 C 244.5 6.8 244.5 6.8 244.5 6.9 C 244.5 6.9 244.5 7 244.5 7 C 244.5 7.3 244.6 7.6 244.8 7.8 C 244.9 8 245.2 8.1 245.6 8.1 C 245.9 8.1 246.1 8 246.3 7.9 C 246.5 7.8 246.7 7.6 246.7 7.3 C 246.7 7.3 247.8 7.3 247.8 7.3 Z " stroke="none" fill="#fff"/>
  </g>
</svg>