<?xml version="1.0" standalone="no"?>
<!DOCTYPE svg PUBLIC "-//W3C//DTD SVG 1.1//EN" "http://www.w3.org/Graphics/SVG/1.1/DTD/svg11.dtd">
<svg xmlns="http://www.w3.org/2000/svg" version="1.1" width="27px" height="24.8px" viewBox="0 -5 27 24.8" style="top:-5px">
  <desc>4</desc>
  <defs/>
  <g id="Polygon16899">
    <path d="M 0.6 8.3 C 0.4 8.3 0.2 8.2 0.2 8.1 C 0.2 7.9 0.4 7.8 0.4 7.7 C 0.5 7.6 6.1 0.2 6.2 0 C 6.4 -0.1 6.5 -0.3 6.6 -0.3 C 6.8 -0.3 6.8 -0.1 6.8 0 C 6.8 0.2 6.8 1.3 6.8 2.3 C 6.79 2.25 6.8 7.1 6.8 7.1 C 6.8 7.1 7.95 7.13 7.9 7.1 C 8.4 7.1 8.5 7 8.6 7 C 8.7 7 8.8 7 8.8 7.2 C 8.8 7.3 8.6 7.9 8.5 8.1 C 8.4 8.2 8.4 8.3 8.1 8.3 C 8.1 8.3 6.8 8.3 6.8 8.3 C 6.8 8.8 6.8 9.4 6.8 10.1 C 6.9 10.6 7 10.8 7.5 11 C 7.7 11 8 11 8.1 11 C 8.2 11 8.3 11.1 8.3 11.2 C 8.3 11.3 8.2 11.3 8 11.3 C 7.2 11.3 6.2 11.3 5.9 11.3 C 5.5 11.3 4.7 11.3 3.9 11.3 C 3.7 11.3 3.6 11.3 3.6 11.2 C 3.6 11.1 3.7 11 3.8 11 C 3.9 11 4.2 11 4.5 11 C 5 10.9 5.1 10.6 5.2 10.1 C 5.2 9.4 5.2 8.8 5.2 8.3 C 5.2 8.3 0.6 8.3 0.6 8.3 Z M 5.2 2.5 C 5.2 2.5 5.16 2.49 5.2 2.5 C 4.8 3 2.3 6.5 1.8 7.1 C 1.82 7.13 5.2 7.1 5.2 7.1 L 5.2 2.5 Z " stroke="none" fill="#000"/>
  </g>
</svg>