<?xml version="1.0" standalone="no"?>
<!DOCTYPE svg PUBLIC "-//W3C//DTD SVG 1.1//EN" "http://www.w3.org/Graphics/SVG/1.1/DTD/svg11.dtd">
<svg xmlns="http://www.w3.org/2000/svg" version="1.1" width="309.2px" height="41.5px" viewBox="0 -6 309.2 41.5" style="top:-6px">
  <desc>Hindi rin tayo makakalimot—huwag tayong makalimot kailanman</desc>
  <defs/>
  <g id="Polygon18926">
    <path d="M 87 20.9 C 87.1 20.5 87.1 20.3 86.8 20.3 C 86.79 20.27 85.9 20.2 85.9 20.2 L 86 19.9 L 88.6 19.5 L 88.6 19.5 L 87.7 22.4 C 87.7 22.4 87.79 22.44 87.8 22.4 C 88.8 20.7 90.1 19.5 91.3 19.5 C 92.3 19.5 92.6 20.2 92.2 21.6 C 92.18 21.56 91.9 22.4 91.9 22.4 C 91.9 22.4 91.96 22.44 92 22.4 C 93 20.6 94.2 19.5 95.5 19.5 C 96.7 19.5 96.8 20.4 96.5 21.5 C 96.5 21.5 95.4 25.2 95.4 25.2 C 95.3 25.6 95.3 25.9 95.6 25.9 C 96 25.9 96.6 24.9 96.8 24.5 C 96.8 24.5 97.2 24.7 97.2 24.7 C 96.7 25.7 95.9 26.7 94.9 26.7 C 94.2 26.7 93.9 26.2 94.2 25.3 C 94.2 25.3 95.4 21.2 95.4 21.2 C 95.6 20.6 95.4 20.2 94.9 20.2 C 93.7 20.2 92.4 22.2 91.9 23.4 C 91.6 24.3 91.3 25.1 90.9 26.5 C 90.94 26.5 89.7 26.7 89.7 26.7 L 90.1 25.3 C 90.1 25.3 91.12 21.38 91.1 21.4 C 91.3 20.5 91.1 20.2 90.7 20.2 C 89.5 20.2 88.2 22.3 87.7 23.5 C 87.4 24.3 87.2 25.1 86.8 26.5 C 86.76 26.5 85.5 26.7 85.5 26.7 C 85.5 26.7 86.99 20.94 87 20.9 Z M 102.5 19.5 C 102.9 19.5 103.3 19.6 103.5 19.8 C 103.54 19.77 103.6 19.6 103.6 19.6 L 104.8 19.6 C 104.8 19.6 103.3 25.17 103.3 25.2 C 103.2 25.6 103.2 25.9 103.4 25.9 C 103.8 25.9 104.4 24.9 104.7 24.5 C 104.7 24.5 105 24.7 105 24.7 C 104.6 25.7 103.8 26.7 102.7 26.7 C 102 26.7 101.8 26.1 102.1 25.1 C 102.09 25.1 102.6 23.5 102.6 23.5 C 102.6 23.5 102.54 23.5 102.5 23.5 C 101.7 24.9 100.4 26.7 98.9 26.7 C 98 26.7 97.6 25.8 97.6 25 C 97.6 23.2 99.2 19.5 102.5 19.5 Z M 99.6 25.9 C 100.3 25.9 101.1 25 101.9 23.8 C 102.6 22.7 103.1 21.3 103.4 20.3 C 103.2 20.1 102.9 20 102.5 20 C 100.3 20 99 23.4 99 25 C 99 25.5 99.1 25.9 99.6 25.9 Z M 107.7 17.6 C 107.8 17 107.8 16.9 107.4 16.9 C 107.41 16.87 106.6 16.8 106.6 16.8 L 106.7 16.4 L 109.2 16.1 L 109.3 16.2 L 106.8 26.5 L 105.5 26.7 C 105.5 26.7 107.69 17.55 107.7 17.6 Z M 110 20.5 C 110.7 19.9 111.4 19.5 111.9 19.5 C 112.5 19.5 112.7 19.8 112.7 20.2 C 112.7 20.5 112.4 20.9 112 20.9 C 111.8 20.9 111.7 20.9 111.6 20.8 C 111.3 20.6 111.1 20.5 110.9 20.5 C 110.4 20.5 109.3 21.7 108.9 22.2 C 109.2 23.1 109.5 24 110 24.9 C 110.3 25.6 110.5 25.9 110.7 25.9 C 111.1 25.9 111.5 25.4 111.9 24.5 C 111.9 24.5 112.2 24.7 112.2 24.7 C 111.8 25.9 111.2 26.7 110.3 26.7 C 109.6 26.7 109.2 26.2 108.8 25.3 C 108.4 24.5 108.1 23.7 107.8 22.8 C 108.5 22 109.2 21.2 110 20.5 Z M 117.4 19.5 C 117.8 19.5 118.2 19.6 118.5 19.8 C 118.46 19.77 118.5 19.6 118.5 19.6 L 119.7 19.6 C 119.7 19.6 118.22 25.17 118.2 25.2 C 118.1 25.6 118.1 25.9 118.4 25.9 C 118.8 25.9 119.4 24.9 119.6 24.5 C 119.6 24.5 120 24.7 120 24.7 C 119.5 25.7 118.7 26.7 117.6 26.7 C 116.9 26.7 116.7 26.1 117 25.1 C 117.02 25.1 117.5 23.5 117.5 23.5 C 117.5 23.5 117.47 23.5 117.5 23.5 C 116.7 24.9 115.4 26.7 113.9 26.7 C 112.9 26.7 112.5 25.8 112.5 25 C 112.5 23.2 114.1 19.5 117.4 19.5 Z M 114.5 25.9 C 115.2 25.9 116 25 116.8 23.8 C 117.6 22.7 118.1 21.3 118.3 20.3 C 118.1 20.1 117.8 20 117.5 20 C 115.3 20 113.9 23.4 113.9 25 C 113.9 25.5 114 25.9 114.5 25.9 Z M 122.7 17.6 C 122.8 17 122.8 16.9 122.4 16.9 C 122.42 16.87 121.6 16.8 121.6 16.8 L 121.7 16.4 L 124.2 16.1 L 124.3 16.2 C 124.3 16.2 122.03 25.18 122 25.2 C 121.9 25.6 121.9 25.9 122.2 25.9 C 122.5 25.9 123.1 25.1 123.5 24.5 C 123.5 24.5 123.8 24.7 123.8 24.7 C 123.3 25.7 122.5 26.7 121.5 26.7 C 120.8 26.7 120.6 26.1 120.8 25.3 C 120.8 25.3 122.7 17.6 122.7 17.6 Z M 127.5 16.5 C 127.9 16.5 128.2 16.7 128.2 17.3 C 128.2 17.8 127.9 18.2 127.3 18.2 C 126.9 18.2 126.6 17.9 126.6 17.4 C 126.6 17 126.9 16.5 127.5 16.5 Z M 126 20.9 C 126.1 20.4 126.1 20.3 125.7 20.3 C 125.72 20.27 124.9 20.2 124.9 20.2 L 125 19.9 L 127.6 19.5 L 127.6 19.5 C 127.6 19.5 126.1 25.17 126.1 25.2 C 126 25.6 126 25.9 126.2 25.9 C 126.6 25.9 127.3 24.9 127.5 24.5 C 127.5 24.5 127.8 24.7 127.8 24.7 C 127.4 25.7 126.6 26.7 125.6 26.7 C 124.8 26.7 124.6 26.1 124.8 25.3 C 124.8 25.3 126 20.9 126 20.9 Z M 130.1 20.9 C 130.2 20.5 130.3 20.3 129.9 20.3 C 129.94 20.27 129.1 20.2 129.1 20.2 L 129.2 19.9 L 131.7 19.5 L 131.8 19.5 L 130.9 22.4 C 130.9 22.4 130.93 22.44 130.9 22.4 C 131.9 20.7 133.2 19.5 134.5 19.5 C 135.5 19.5 135.7 20.2 135.3 21.6 C 135.33 21.56 135 22.4 135 22.4 C 135 22.4 135.1 22.44 135.1 22.4 C 136.1 20.6 137.4 19.5 138.6 19.5 C 139.8 19.5 140 20.4 139.7 21.5 C 139.7 21.5 138.6 25.2 138.6 25.2 C 138.5 25.6 138.5 25.9 138.7 25.9 C 139.1 25.9 139.7 24.9 140 24.5 C 140 24.5 140.3 24.7 140.3 24.7 C 139.9 25.7 139.1 26.7 138 26.7 C 137.3 26.7 137.1 26.2 137.3 25.3 C 137.3 25.3 138.5 21.2 138.5 21.2 C 138.7 20.6 138.5 20.2 138 20.2 C 136.9 20.2 135.6 22.2 135.1 23.4 C 134.7 24.3 134.5 25.1 134.1 26.5 C 134.08 26.5 132.9 26.7 132.9 26.7 L 133.2 25.3 C 133.2 25.3 134.26 21.38 134.3 21.4 C 134.5 20.5 134.3 20.2 133.8 20.2 C 132.7 20.2 131.3 22.3 130.8 23.5 C 130.5 24.3 130.3 25.1 129.9 26.5 C 129.91 26.5 128.7 26.7 128.7 26.7 C 128.7 26.7 130.13 20.94 130.1 20.9 Z M 145.1 19.5 C 146.2 19.5 147.6 20 147.6 21.9 C 147.6 22.7 147.4 23.9 146.7 24.9 C 146.1 25.9 145.1 26.7 143.6 26.7 C 141.8 26.7 141 25.6 141 24.1 C 141 22.9 141.8 19.5 145.1 19.5 Z M 143.6 26.2 C 145.5 26.2 146.2 22.4 146.2 21.4 C 146.2 20.6 145.9 20 145.1 20 C 143.2 20 142.3 23.2 142.3 24.7 C 142.3 25.7 142.8 26.2 143.6 26.2 Z M 150.1 20.2 L 148.9 20.2 L 149 19.6 L 150.2 19.6 L 150.4 19 L 151.7 17.9 L 151.9 18 L 151.4 19.6 L 153.2 19.6 L 153 20.2 L 151.3 20.2 C 151.3 20.2 150.04 25.27 150 25.3 C 150 25.6 150 25.9 150.3 25.9 C 150.7 25.9 151.4 25 151.7 24.5 C 151.7 24.5 152 24.7 152 24.7 C 151.5 25.7 150.6 26.7 149.5 26.7 C 148.8 26.7 148.6 26.1 148.8 25.3 C 148.8 25.3 150.1 20.2 150.1 20.2 Z M 157.9 17.6 C 158 17 157.9 16.9 157.6 16.9 C 157.59 16.87 156.8 16.8 156.8 16.8 L 156.9 16.4 L 159.4 16.1 L 159.5 16.2 L 157 26.5 L 155.7 26.7 C 155.7 26.7 157.87 17.55 157.9 17.6 Z M 160.2 20.5 C 160.9 19.9 161.6 19.5 162.1 19.5 C 162.7 19.5 162.8 19.8 162.8 20.2 C 162.8 20.5 162.5 20.9 162.2 20.9 C 162 20.9 161.9 20.9 161.8 20.8 C 161.4 20.6 161.3 20.5 161.1 20.5 C 160.6 20.5 159.5 21.7 159.1 22.2 C 159.4 23.1 159.7 24 160.1 24.9 C 160.5 25.6 160.7 25.9 160.9 25.9 C 161.3 25.9 161.6 25.4 162 24.5 C 162 24.5 162.4 24.7 162.4 24.7 C 162 25.9 161.4 26.7 160.5 26.7 C 159.8 26.7 159.4 26.2 159 25.3 C 158.6 24.5 158.2 23.7 158 22.8 C 158.6 22 159.4 21.2 160.2 20.5 Z M 167.6 19.5 C 168 19.5 168.4 19.6 168.6 19.8 C 168.63 19.77 168.7 19.6 168.7 19.6 L 169.9 19.6 C 169.9 19.6 168.4 25.17 168.4 25.2 C 168.3 25.6 168.3 25.9 168.5 25.9 C 168.9 25.9 169.5 24.9 169.8 24.5 C 169.8 24.5 170.1 24.7 170.1 24.7 C 169.7 25.7 168.9 26.7 167.8 26.7 C 167.1 26.7 166.9 26.1 167.2 25.1 C 167.19 25.1 167.7 23.5 167.7 23.5 C 167.7 23.5 167.64 23.5 167.6 23.5 C 166.8 24.9 165.5 26.7 164 26.7 C 163.1 26.7 162.7 25.8 162.7 25 C 162.7 23.2 164.3 19.5 167.6 19.5 Z M 164.7 25.9 C 165.4 25.9 166.2 25 167 23.8 C 167.7 22.7 168.2 21.3 168.5 20.3 C 168.3 20.1 168 20 167.6 20 C 165.4 20 164.1 23.4 164.1 25 C 164.1 25.5 164.2 25.9 164.7 25.9 Z M 173.7 16.5 C 174.1 16.5 174.4 16.7 174.4 17.3 C 174.4 17.8 174.1 18.2 173.5 18.2 C 173.1 18.2 172.7 17.9 172.7 17.4 C 172.7 17 173.1 16.5 173.7 16.5 Z M 172.2 20.9 C 172.3 20.4 172.3 20.3 171.9 20.3 C 171.9 20.27 171.1 20.2 171.1 20.2 L 171.2 19.9 L 173.7 19.5 L 173.8 19.5 C 173.8 19.5 172.27 25.17 172.3 25.2 C 172.1 25.6 172.1 25.9 172.4 25.9 C 172.8 25.9 173.4 24.9 173.7 24.5 C 173.7 24.5 174 24.7 174 24.7 C 173.5 25.7 172.7 26.7 171.7 26.7 C 171 26.7 170.8 26.1 171 25.3 C 171 25.3 172.2 20.9 172.2 20.9 Z M 177 17.6 C 177.2 17 177.1 16.9 176.8 16.9 C 176.75 16.87 176 16.8 176 16.8 L 176 16.4 L 178.5 16.1 L 178.6 16.2 C 178.6 16.2 176.36 25.18 176.4 25.2 C 176.2 25.6 176.2 25.9 176.5 25.9 C 176.8 25.9 177.5 25.1 177.8 24.5 C 177.8 24.5 178.1 24.7 178.1 24.7 C 177.7 25.7 176.8 26.7 175.8 26.7 C 175.1 26.7 174.9 26.1 175.1 25.3 C 175.1 25.3 177 17.6 177 17.6 Z M 183.3 19.5 C 183.7 19.5 184.1 19.6 184.4 19.8 C 184.37 19.77 184.4 19.6 184.4 19.6 L 185.6 19.6 C 185.6 19.6 184.13 25.17 184.1 25.2 C 184 25.6 184 25.9 184.3 25.9 C 184.7 25.9 185.3 24.9 185.5 24.5 C 185.5 24.5 185.9 24.7 185.9 24.7 C 185.4 25.7 184.6 26.7 183.5 26.7 C 182.8 26.7 182.6 26.1 182.9 25.1 C 182.93 25.1 183.4 23.5 183.4 23.5 C 183.4 23.5 183.38 23.5 183.4 23.5 C 182.6 24.9 181.3 26.7 179.8 26.7 C 178.8 26.7 178.4 25.8 178.4 25 C 178.4 23.2 180 19.5 183.3 19.5 Z M 180.4 25.9 C 181.1 25.9 181.9 25 182.7 23.8 C 183.5 22.7 184 21.3 184.2 20.3 C 184 20.1 183.7 20 183.4 20 C 181.2 20 179.8 23.4 179.8 25 C 179.8 25.5 180 25.9 180.4 25.9 Z M 187.9 20.9 C 188 20.5 188 20.3 187.7 20.3 C 187.7 20.27 186.8 20.2 186.8 20.2 L 186.9 19.9 L 189.5 19.5 L 189.5 19.5 L 188.6 22.6 C 188.6 22.6 188.68 22.59 188.7 22.6 C 189.5 21 191 19.5 192.3 19.5 C 193.5 19.5 193.6 20.4 193.3 21.5 C 193.3 21.5 192.2 25.2 192.2 25.2 C 192.1 25.6 192.1 25.9 192.4 25.9 C 192.8 25.9 193.4 24.9 193.6 24.5 C 193.6 24.5 194 24.7 194 24.7 C 193.5 25.7 192.7 26.7 191.6 26.7 C 190.9 26.7 190.7 26.1 190.9 25.3 C 190.9 25.3 192.1 21.2 192.1 21.2 C 192.3 20.6 192.2 20.2 191.7 20.2 C 190.5 20.2 189.2 22.2 188.7 23.4 C 188.3 24.3 188.1 25.1 187.7 26.5 C 187.67 26.5 186.4 26.7 186.4 26.7 C 186.4 26.7 187.91 20.94 187.9 20.9 Z M 196.3 20.9 C 196.4 20.5 196.4 20.3 196.1 20.3 C 196.06 20.27 195.2 20.2 195.2 20.2 L 195.3 19.9 L 197.8 19.5 L 197.9 19.5 L 197 22.4 C 197 22.4 197.05 22.44 197.1 22.4 C 198 20.7 199.3 19.5 200.6 19.5 C 201.6 19.5 201.9 20.2 201.4 21.6 C 201.45 21.56 201.2 22.4 201.2 22.4 C 201.2 22.4 201.23 22.44 201.2 22.4 C 202.2 20.6 203.5 19.5 204.8 19.5 C 205.9 19.5 206.1 20.4 205.8 21.5 C 205.8 21.5 204.7 25.2 204.7 25.2 C 204.6 25.6 204.6 25.9 204.9 25.9 C 205.2 25.9 205.9 24.9 206.1 24.5 C 206.1 24.5 206.4 24.7 206.4 24.7 C 206 25.7 205.2 26.7 204.2 26.7 C 203.5 26.7 203.2 26.2 203.4 25.3 C 203.4 25.3 204.6 21.2 204.6 21.2 C 204.8 20.6 204.6 20.2 204.2 20.2 C 203 20.2 201.7 22.2 201.2 23.4 C 200.8 24.3 200.6 25.1 200.2 26.5 C 200.2 26.5 199 26.7 199 26.7 L 199.3 25.3 C 199.3 25.3 200.39 21.38 200.4 21.4 C 200.6 20.5 200.4 20.2 200 20.2 C 198.8 20.2 197.4 22.3 197 23.5 C 196.7 24.3 196.4 25.1 196 26.5 C 196.03 26.5 194.8 26.7 194.8 26.7 C 194.8 26.7 196.26 20.94 196.3 20.9 Z M 211.8 19.5 C 212.2 19.5 212.6 19.6 212.8 19.8 C 212.8 19.77 212.9 19.6 212.9 19.6 L 214 19.6 C 214 19.6 212.57 25.17 212.6 25.2 C 212.4 25.6 212.4 25.9 212.7 25.9 C 213.1 25.9 213.7 24.9 214 24.5 C 214 24.5 214.3 24.7 214.3 24.7 C 213.8 25.7 213 26.7 212 26.7 C 211.2 26.7 211.1 26.1 211.4 25.1 C 211.36 25.1 211.8 23.5 211.8 23.5 C 211.8 23.5 211.81 23.5 211.8 23.5 C 211 24.9 209.7 26.7 208.2 26.7 C 207.2 26.7 206.9 25.8 206.9 25 C 206.9 23.2 208.4 19.5 211.8 19.5 Z M 208.9 25.9 C 209.5 25.9 210.4 25 211.2 23.8 C 211.9 22.7 212.4 21.3 212.7 20.3 C 212.5 20.1 212.1 20 211.8 20 C 209.6 20 208.2 23.4 208.2 25 C 208.2 25.5 208.4 25.9 208.9 25.9 Z M 216.3 20.9 C 216.5 20.5 216.5 20.3 216.1 20.3 C 216.14 20.27 215.3 20.2 215.3 20.2 L 215.4 19.9 L 217.9 19.5 L 218 19.5 L 217.1 22.6 C 217.1 22.6 217.12 22.59 217.1 22.6 C 218 21 219.4 19.5 220.8 19.5 C 221.9 19.5 222.1 20.4 221.7 21.5 C 221.7 21.5 220.7 25.2 220.7 25.2 C 220.5 25.6 220.5 25.9 220.8 25.9 C 221.2 25.9 221.8 24.9 222.1 24.5 C 222.1 24.5 222.4 24.7 222.4 24.7 C 221.9 25.7 221.1 26.7 220.1 26.7 C 219.3 26.7 219.1 26.1 219.4 25.3 C 219.4 25.3 220.6 21.2 220.6 21.2 C 220.7 20.6 220.6 20.2 220.1 20.2 C 219 20.2 217.6 22.2 217.1 23.4 C 216.8 24.3 216.5 25.1 216.1 26.5 C 216.11 26.5 214.9 26.7 214.9 26.7 C 214.9 26.7 216.35 20.94 216.3 20.9 Z M 223.9 24.9 C 224.4 24.9 224.7 25.3 224.7 25.7 C 224.7 26.3 224.4 26.7 223.8 26.7 C 223.3 26.7 223 26.3 223 25.9 C 223 25.3 223.4 24.9 223.9 24.9 Z " stroke="none" fill="#000"/>
  </g>
  <g id="Polygon18925">
    <path d="M 21 10.1 C 21 10.1 21.77 10.01 21.8 10 C 22.1 10 22.2 9.8 22.4 9.3 C 22.4 9.3 24 2 24 2 C 24.1 1.5 24.1 1.3 23.7 1.3 C 23.73 1.27 22.9 1.2 22.9 1.2 L 23 0.8 L 26.8 0.8 L 26.7 1.2 C 26.7 1.2 25.97 1.29 26 1.3 C 25.6 1.3 25.5 1.5 25.4 2 C 25.38 1.97 24.6 5.2 24.6 5.2 L 29.3 5.2 C 29.3 5.2 30.04 1.97 30 2 C 30.1 1.5 30.1 1.3 29.7 1.3 C 29.74 1.27 28.9 1.2 28.9 1.2 L 29 0.8 L 32.8 0.8 L 32.7 1.2 C 32.7 1.2 31.98 1.29 32 1.3 C 31.6 1.3 31.5 1.5 31.4 2 C 31.4 2 29.7 9.3 29.7 9.3 C 29.6 9.8 29.7 10 30 10 C 30.02 10.04 30.8 10.1 30.8 10.1 L 30.8 10.5 L 26.9 10.5 L 27 10.1 C 27 10.1 27.78 10.01 27.8 10 C 28.1 10 28.3 9.8 28.4 9.3 C 28.36 9.34 29.2 5.7 29.2 5.7 L 24.5 5.7 C 24.5 5.7 23.7 9.34 23.7 9.3 C 23.6 9.8 23.7 10 24 10 C 24.01 10.04 24.8 10.1 24.8 10.1 L 24.8 10.5 L 20.9 10.5 L 21 10.1 Z M 35.1 0.5 C 35.5 0.5 35.8 0.7 35.8 1.3 C 35.8 1.8 35.5 2.2 34.9 2.2 C 34.5 2.2 34.2 1.9 34.2 1.4 C 34.2 1 34.5 0.5 35.1 0.5 Z M 33.6 4.9 C 33.7 4.4 33.7 4.3 33.3 4.3 C 33.32 4.27 32.5 4.2 32.5 4.2 L 32.6 3.9 L 35.2 3.5 L 35.2 3.5 C 35.2 3.5 33.7 9.17 33.7 9.2 C 33.6 9.6 33.6 9.9 33.8 9.9 C 34.2 9.9 34.8 8.9 35.1 8.5 C 35.1 8.5 35.4 8.7 35.4 8.7 C 35 9.7 34.2 10.7 33.2 10.7 C 32.4 10.7 32.2 10.1 32.4 9.3 C 32.4 9.3 33.6 4.9 33.6 4.9 Z M 37.8 4.9 C 37.9 4.5 37.9 4.3 37.5 4.3 C 37.55 4.27 36.7 4.2 36.7 4.2 L 36.8 3.9 L 39.3 3.5 L 39.4 3.5 L 38.5 6.6 C 38.5 6.6 38.53 6.59 38.5 6.6 C 39.4 5 40.8 3.5 42.2 3.5 C 43.3 3.5 43.5 4.4 43.2 5.5 C 43.2 5.5 42.1 9.2 42.1 9.2 C 41.9 9.6 41.9 9.9 42.2 9.9 C 42.6 9.9 43.2 8.9 43.5 8.5 C 43.5 8.5 43.8 8.7 43.8 8.7 C 43.3 9.7 42.5 10.7 41.5 10.7 C 40.7 10.7 40.6 10.1 40.8 9.3 C 40.8 9.3 42 5.2 42 5.2 C 42.1 4.6 42 4.2 41.5 4.2 C 40.4 4.2 39 6.2 38.5 7.4 C 38.2 8.3 37.9 9.1 37.5 10.5 C 37.52 10.5 36.3 10.7 36.3 10.7 C 36.3 10.7 37.76 4.94 37.8 4.9 Z M 49.1 3.5 C 49.5 3.5 50 3.6 50.2 3.7 C 50.23 3.71 50.3 3.7 50.3 3.7 C 50.3 3.7 50.79 1.43 50.8 1.4 C 50.9 1 50.9 0.9 50.5 0.9 C 50.54 0.85 49.7 0.8 49.7 0.8 L 49.8 0.4 L 52.3 0.1 L 52.3 0.2 C 52.3 0.2 50.13 9.17 50.1 9.2 C 50 9.6 50 9.9 50.3 9.9 C 50.7 9.9 51.3 8.9 51.5 8.5 C 51.5 8.5 51.9 8.7 51.9 8.7 C 51.4 9.7 50.6 10.7 49.6 10.7 C 48.9 10.7 48.7 10.1 48.9 9.1 C 48.94 9.11 49.4 7.4 49.4 7.4 C 49.4 7.4 49.38 7.45 49.4 7.4 C 48.6 8.9 47.3 10.7 45.7 10.7 C 44.6 10.7 44.3 9.7 44.3 8.8 C 44.3 7.1 45.8 3.5 49.1 3.5 Z M 46.4 9.9 C 47.1 9.9 48 8.9 48.7 7.8 C 49.4 6.6 49.9 5.3 50.1 4.2 C 49.9 4.1 49.6 4 49.1 4 C 46.9 4 45.7 7.4 45.7 8.9 C 45.7 9.6 45.9 9.9 46.4 9.9 Z M 55.6 0.5 C 55.9 0.5 56.3 0.7 56.3 1.3 C 56.3 1.8 56 2.2 55.4 2.2 C 55 2.2 54.6 1.9 54.6 1.4 C 54.6 1 54.9 0.5 55.6 0.5 Z M 54.1 4.9 C 54.2 4.4 54.2 4.3 53.8 4.3 C 53.79 4.27 53 4.2 53 4.2 L 53.1 3.9 L 55.6 3.5 L 55.7 3.5 C 55.7 3.5 54.17 9.17 54.2 9.2 C 54 9.6 54 9.9 54.3 9.9 C 54.7 9.9 55.3 8.9 55.6 8.5 C 55.6 8.5 55.9 8.7 55.9 8.7 C 55.4 9.7 54.6 10.7 53.6 10.7 C 52.9 10.7 52.7 10.1 52.9 9.3 C 52.9 9.3 54.1 4.9 54.1 4.9 Z M 61 4.9 C 61.1 4.5 61.1 4.3 60.8 4.3 C 60.79 4.27 59.9 4.2 59.9 4.2 L 60 3.9 L 62.4 3.5 L 62.5 3.5 L 61.9 5.9 C 61.9 5.9 61.88 5.87 61.9 5.9 C 62.6 4.4 63.6 3.5 64.4 3.5 C 64.8 3.5 65 3.7 65 4.1 C 65 4.5 64.7 5 64.4 5 C 63.9 5 63.8 4.6 63.4 4.6 C 62.8 4.6 62.1 5.8 61.6 7.6 C 61.4 8.5 61.2 9.6 60.9 10.5 C 60.91 10.5 59.7 10.7 59.7 10.7 C 59.7 10.7 61 4.94 61 4.9 Z M 67.9 0.5 C 68.3 0.5 68.7 0.7 68.7 1.3 C 68.7 1.8 68.3 2.2 67.8 2.2 C 67.4 2.2 67 1.9 67 1.4 C 67 1 67.3 0.5 67.9 0.5 Z M 66.5 4.9 C 66.6 4.4 66.5 4.3 66.2 4.3 C 66.16 4.27 65.4 4.2 65.4 4.2 L 65.4 3.9 L 68 3.5 L 68.1 3.5 C 68.1 3.5 66.54 9.17 66.5 9.2 C 66.4 9.6 66.4 9.9 66.7 9.9 C 67.1 9.9 67.7 8.9 67.9 8.5 C 67.9 8.5 68.3 8.7 68.3 8.7 C 67.8 9.7 67 10.7 66 10.7 C 65.3 10.7 65.1 10.1 65.3 9.3 C 65.3 9.3 66.5 4.9 66.5 4.9 Z M 70.6 4.9 C 70.7 4.5 70.7 4.3 70.4 4.3 C 70.39 4.27 69.5 4.2 69.5 4.2 L 69.6 3.9 L 72.2 3.5 L 72.2 3.5 L 71.3 6.6 C 71.3 6.6 71.37 6.59 71.4 6.6 C 72.2 5 73.7 3.5 75 3.5 C 76.2 3.5 76.3 4.4 76 5.5 C 76 5.5 74.9 9.2 74.9 9.2 C 74.8 9.6 74.8 9.9 75.1 9.9 C 75.4 9.9 76.1 8.9 76.3 8.5 C 76.3 8.5 76.6 8.7 76.6 8.7 C 76.2 9.7 75.4 10.7 74.3 10.7 C 73.6 10.7 73.4 10.1 73.6 9.3 C 73.6 9.3 74.8 5.2 74.8 5.2 C 75 4.6 74.9 4.2 74.4 4.2 C 73.2 4.2 71.9 6.2 71.4 7.4 C 71 8.3 70.8 9.1 70.4 10.5 C 70.36 10.5 69.1 10.7 69.1 10.7 C 69.1 10.7 70.6 4.94 70.6 4.9 Z M 82 4.2 L 80.8 4.2 L 81 3.6 L 82.1 3.6 L 82.3 3 L 83.7 1.9 L 83.8 2 L 83.4 3.6 L 85.1 3.6 L 85 4.2 L 83.2 4.2 C 83.2 4.2 82 9.27 82 9.3 C 81.9 9.6 81.9 9.9 82.2 9.9 C 82.6 9.9 83.4 9 83.7 8.5 C 83.7 8.5 84 8.7 84 8.7 C 83.4 9.7 82.5 10.7 81.4 10.7 C 80.7 10.7 80.5 10.1 80.8 9.3 C 80.75 9.3 82 4.2 82 4.2 Z M 89.3 3.5 C 89.7 3.5 90.1 3.6 90.4 3.8 C 90.37 3.77 90.4 3.6 90.4 3.6 L 91.6 3.6 C 91.6 3.6 90.13 9.17 90.1 9.2 C 90 9.6 90 9.9 90.3 9.9 C 90.7 9.9 91.3 8.9 91.5 8.5 C 91.5 8.5 91.9 8.7 91.9 8.7 C 91.4 9.7 90.6 10.7 89.5 10.7 C 88.8 10.7 88.6 10.1 88.9 9.1 C 88.93 9.1 89.4 7.5 89.4 7.5 C 89.4 7.5 89.37 7.5 89.4 7.5 C 88.6 8.9 87.3 10.7 85.8 10.7 C 84.8 10.7 84.4 9.8 84.4 9 C 84.4 7.2 86 3.5 89.3 3.5 Z M 86.4 9.9 C 87.1 9.9 87.9 9 88.7 7.8 C 89.5 6.7 90 5.3 90.2 4.3 C 90 4.1 89.7 4 89.4 4 C 87.2 4 85.8 7.4 85.8 9 C 85.8 9.5 86 9.9 86.4 9.9 Z M 91.7 12.3 C 91.9 12.3 92 12.4 92.2 12.6 C 92.4 12.9 92.6 13 92.8 13 C 93.1 13 93.4 12.6 93.7 12.1 C 94 11.3 94 10.7 94 10.3 C 94 9.2 93.7 6.5 93.5 5.4 C 93.4 4.7 93.4 4.5 93.1 4.5 C 93.06 4.47 92.1 4.5 92.1 4.5 L 92.1 4.1 L 94.4 3.5 C 94.4 3.5 94.53 3.53 94.5 3.5 C 94.7 4.5 95 7.5 95.1 9.6 C 95.1 9.6 95.1 9.6 95.1 9.6 C 96.1 8 96.9 6.5 97.1 5.8 C 97.3 5.2 97.3 4.3 97.3 3.8 C 97.6 3.6 98.1 3.5 98.4 3.5 C 98.5 3.5 98.6 3.8 98.6 4.3 C 98.6 4.8 97.7 6.2 96.9 7.5 C 96.1 8.9 95.2 10.4 95 10.9 C 93.7 13 93.2 13.9 92 13.9 C 91.4 13.9 91 13.5 91 13.1 C 91 12.7 91.3 12.3 91.7 12.3 Z M 102.6 3.5 C 103.8 3.5 105.1 4 105.1 5.9 C 105.1 6.7 104.9 7.9 104.3 8.9 C 103.6 9.9 102.6 10.7 101.1 10.7 C 99.3 10.7 98.5 9.6 98.5 8.1 C 98.5 6.9 99.3 3.5 102.6 3.5 Z M 101.1 10.2 C 103.1 10.2 103.8 6.4 103.8 5.4 C 103.8 4.6 103.5 4 102.6 4 C 100.8 4 99.9 7.2 99.9 8.7 C 99.9 9.7 100.3 10.2 101.1 10.2 Z M 110.3 4.9 C 110.4 4.5 110.4 4.3 110.1 4.3 C 110.07 4.27 109.2 4.2 109.2 4.2 L 109.3 3.9 L 111.8 3.5 L 111.9 3.5 L 111 6.4 C 111 6.4 111.06 6.44 111.1 6.4 C 112 4.7 113.3 3.5 114.6 3.5 C 115.6 3.5 115.9 4.2 115.5 5.6 C 115.46 5.56 115.2 6.4 115.2 6.4 C 115.2 6.4 115.23 6.44 115.2 6.4 C 116.2 4.6 117.5 3.5 118.8 3.5 C 119.9 3.5 120.1 4.4 119.8 5.5 C 119.8 5.5 118.7 9.2 118.7 9.2 C 118.6 9.6 118.6 9.9 118.9 9.9 C 119.2 9.9 119.9 8.9 120.1 8.5 C 120.1 8.5 120.5 8.7 120.5 8.7 C 120 9.7 119.2 10.7 118.2 10.7 C 117.5 10.7 117.2 10.2 117.4 9.3 C 117.4 9.3 118.6 5.2 118.6 5.2 C 118.8 4.6 118.6 4.2 118.2 4.2 C 117 4.2 115.7 6.2 115.2 7.4 C 114.8 8.3 114.6 9.1 114.2 10.5 C 114.21 10.5 113 10.7 113 10.7 L 113.4 9.3 C 113.4 9.3 114.39 5.38 114.4 5.4 C 114.6 4.5 114.4 4.2 114 4.2 C 112.8 4.2 111.4 6.3 111 7.5 C 110.7 8.3 110.4 9.1 110 10.5 C 110.04 10.5 108.8 10.7 108.8 10.7 C 108.8 10.7 110.26 4.94 110.3 4.9 Z M 125.8 3.5 C 126.2 3.5 126.6 3.6 126.8 3.8 C 126.81 3.77 126.9 3.6 126.9 3.6 L 128.1 3.6 C 128.1 3.6 126.57 9.17 126.6 9.2 C 126.4 9.6 126.4 9.9 126.7 9.9 C 127.1 9.9 127.7 8.9 128 8.5 C 128 8.5 128.3 8.7 128.3 8.7 C 127.8 9.7 127 10.7 126 10.7 C 125.2 10.7 125.1 10.1 125.4 9.1 C 125.37 9.1 125.8 7.5 125.8 7.5 C 125.8 7.5 125.82 7.5 125.8 7.5 C 125 8.9 123.7 10.7 122.2 10.7 C 121.3 10.7 120.9 9.8 120.9 9 C 120.9 7.2 122.5 3.5 125.8 3.5 Z M 122.9 9.9 C 123.5 9.9 124.4 9 125.2 7.8 C 125.9 6.7 126.4 5.3 126.7 4.3 C 126.5 4.1 126.2 4 125.8 4 C 123.6 4 122.2 7.4 122.2 9 C 122.2 9.5 122.4 9.9 122.9 9.9 Z M 131 1.6 C 131.1 1 131 0.9 130.7 0.9 C 130.69 0.87 129.9 0.8 129.9 0.8 L 130 0.4 L 132.5 0.1 L 132.5 0.2 L 130.1 10.5 L 128.8 10.7 C 128.8 10.7 130.97 1.55 131 1.6 Z M 133.2 4.5 C 134 3.9 134.6 3.5 135.2 3.5 C 135.8 3.5 135.9 3.8 135.9 4.2 C 135.9 4.5 135.6 4.9 135.3 4.9 C 135.1 4.9 135 4.9 134.9 4.8 C 134.5 4.6 134.4 4.5 134.2 4.5 C 133.7 4.5 132.6 5.7 132.2 6.2 C 132.5 7.1 132.8 8 133.2 8.9 C 133.6 9.6 133.8 9.9 134 9.9 C 134.4 9.9 134.7 9.4 135.1 8.5 C 135.1 8.5 135.5 8.7 135.5 8.7 C 135.1 9.9 134.5 10.7 133.6 10.7 C 132.9 10.7 132.5 10.2 132.1 9.3 C 131.7 8.5 131.3 7.7 131.1 6.8 C 131.7 6 132.5 5.2 133.2 4.5 Z M 140.7 3.5 C 141.1 3.5 141.5 3.6 141.7 3.8 C 141.73 3.77 141.8 3.6 141.8 3.6 L 143 3.6 C 143 3.6 141.5 9.17 141.5 9.2 C 141.4 9.6 141.4 9.9 141.6 9.9 C 142 9.9 142.6 8.9 142.9 8.5 C 142.9 8.5 143.2 8.7 143.2 8.7 C 142.8 9.7 142 10.7 140.9 10.7 C 140.2 10.7 140 10.1 140.3 9.1 C 140.29 9.1 140.8 7.5 140.8 7.5 C 140.8 7.5 140.74 7.5 140.7 7.5 C 139.9 8.9 138.6 10.7 137.1 10.7 C 136.2 10.7 135.8 9.8 135.8 9 C 135.8 7.2 137.4 3.5 140.7 3.5 Z M 137.8 9.9 C 138.5 9.9 139.3 9 140.1 7.8 C 140.8 6.7 141.3 5.3 141.6 4.3 C 141.4 4.1 141.1 4 140.7 4 C 138.5 4 137.2 7.4 137.2 9 C 137.2 9.5 137.3 9.9 137.8 9.9 Z M 145.9 1.6 C 146 1 146 0.9 145.6 0.9 C 145.61 0.87 144.8 0.8 144.8 0.8 L 144.9 0.4 L 147.4 0.1 L 147.5 0.2 L 145 10.5 L 143.7 10.7 C 143.7 10.7 145.89 1.55 145.9 1.6 Z M 148.2 4.5 C 148.9 3.9 149.6 3.5 150.1 3.5 C 150.7 3.5 150.9 3.8 150.9 4.2 C 150.9 4.5 150.6 4.9 150.2 4.9 C 150 4.9 149.9 4.9 149.8 4.8 C 149.5 4.6 149.3 4.5 149.1 4.5 C 148.6 4.5 147.5 5.7 147.1 6.2 C 147.4 7.1 147.7 8 148.2 8.9 C 148.5 9.6 148.7 9.9 148.9 9.9 C 149.3 9.9 149.7 9.4 150.1 8.5 C 150.1 8.5 150.4 8.7 150.4 8.7 C 150 9.9 149.4 10.7 148.5 10.7 C 147.8 10.7 147.4 10.2 147 9.3 C 146.6 8.5 146.3 7.7 146 6.8 C 146.7 6 147.4 5.2 148.2 4.5 Z M 155.6 3.5 C 156 3.5 156.4 3.6 156.7 3.8 C 156.66 3.77 156.7 3.6 156.7 3.6 L 157.9 3.6 C 157.9 3.6 156.42 9.17 156.4 9.2 C 156.3 9.6 156.3 9.9 156.6 9.9 C 157 9.9 157.6 8.9 157.8 8.5 C 157.8 8.5 158.2 8.7 158.2 8.7 C 157.7 9.7 156.9 10.7 155.8 10.7 C 155.1 10.7 154.9 10.1 155.2 9.1 C 155.22 9.1 155.7 7.5 155.7 7.5 C 155.7 7.5 155.66 7.5 155.7 7.5 C 154.9 8.9 153.5 10.7 152.1 10.7 C 151.1 10.7 150.7 9.8 150.7 9 C 150.7 7.2 152.3 3.5 155.6 3.5 Z M 152.7 9.9 C 153.4 9.9 154.2 9 155 7.8 C 155.8 6.7 156.3 5.3 156.5 4.3 C 156.3 4.1 156 4 155.7 4 C 153.5 4 152.1 7.4 152.1 9 C 152.1 9.5 152.2 9.9 152.7 9.9 Z M 160.9 1.6 C 161 1 161 0.9 160.6 0.9 C 160.62 0.87 159.8 0.8 159.8 0.8 L 159.9 0.4 L 162.4 0.1 L 162.5 0.2 C 162.5 0.2 160.23 9.18 160.2 9.2 C 160.1 9.6 160.1 9.9 160.4 9.9 C 160.7 9.9 161.3 9.1 161.7 8.5 C 161.7 8.5 162 8.7 162 8.7 C 161.5 9.7 160.7 10.7 159.7 10.7 C 159 10.7 158.8 10.1 159 9.3 C 159 9.3 160.9 1.6 160.9 1.6 Z M 165.7 0.5 C 166.1 0.5 166.4 0.7 166.4 1.3 C 166.4 1.8 166.1 2.2 165.5 2.2 C 165.1 2.2 164.8 1.9 164.8 1.4 C 164.8 1 165.1 0.5 165.7 0.5 Z M 164.2 4.9 C 164.3 4.4 164.3 4.3 163.9 4.3 C 163.92 4.27 163.1 4.2 163.1 4.2 L 163.2 3.9 L 165.8 3.5 L 165.8 3.5 C 165.8 3.5 164.3 9.17 164.3 9.2 C 164.2 9.6 164.2 9.9 164.4 9.9 C 164.8 9.9 165.4 8.9 165.7 8.5 C 165.7 8.5 166 8.7 166 8.7 C 165.6 9.7 164.8 10.7 163.8 10.7 C 163 10.7 162.8 10.1 163 9.3 C 163 9.3 164.2 4.9 164.2 4.9 Z M 168.3 4.9 C 168.4 4.5 168.5 4.3 168.1 4.3 C 168.14 4.27 167.3 4.2 167.3 4.2 L 167.4 3.9 L 169.9 3.5 L 170 3.5 L 169.1 6.4 C 169.1 6.4 169.13 6.44 169.1 6.4 C 170.1 4.7 171.4 3.5 172.7 3.5 C 173.7 3.5 173.9 4.2 173.5 5.6 C 173.53 5.56 173.2 6.4 173.2 6.4 C 173.2 6.4 173.3 6.44 173.3 6.4 C 174.3 4.6 175.6 3.5 176.8 3.5 C 178 3.5 178.2 4.4 177.9 5.5 C 177.9 5.5 176.8 9.2 176.8 9.2 C 176.7 9.6 176.6 9.9 176.9 9.9 C 177.3 9.9 177.9 8.9 178.2 8.5 C 178.2 8.5 178.5 8.7 178.5 8.7 C 178 9.7 177.3 10.7 176.2 10.7 C 175.5 10.7 175.3 10.2 175.5 9.3 C 175.5 9.3 176.7 5.2 176.7 5.2 C 176.9 4.6 176.7 4.2 176.2 4.2 C 175.1 4.2 173.8 6.2 173.3 7.4 C 172.9 8.3 172.7 9.1 172.3 10.5 C 172.28 10.5 171.1 10.7 171.1 10.7 L 171.4 9.3 C 171.4 9.3 172.46 5.38 172.5 5.4 C 172.7 4.5 172.5 4.2 172 4.2 C 170.9 4.2 169.5 6.3 169 7.5 C 168.7 8.3 168.5 9.1 168.1 10.5 C 168.11 10.5 166.9 10.7 166.9 10.7 C 166.9 10.7 168.33 4.94 168.3 4.9 Z M 183.3 3.5 C 184.4 3.5 185.8 4 185.8 5.9 C 185.8 6.7 185.6 7.9 184.9 8.9 C 184.3 9.9 183.3 10.7 181.8 10.7 C 180 10.7 179.2 9.6 179.2 8.1 C 179.2 6.9 180 3.5 183.3 3.5 Z M 181.8 10.2 C 183.7 10.2 184.4 6.4 184.4 5.4 C 184.4 4.6 184.1 4 183.3 4 C 181.4 4 180.5 7.2 180.5 8.7 C 180.5 9.7 181 10.2 181.8 10.2 Z M 188.3 4.2 L 187.1 4.2 L 187.2 3.6 L 188.4 3.6 L 188.6 3 L 189.9 1.9 L 190.1 2 L 189.6 3.6 L 191.4 3.6 L 191.2 4.2 L 189.5 4.2 C 189.5 4.2 188.24 9.27 188.2 9.3 C 188.2 9.6 188.2 9.9 188.5 9.9 C 188.9 9.9 189.6 9 189.9 8.5 C 189.9 8.5 190.2 8.7 190.2 8.7 C 189.7 9.7 188.8 10.7 187.7 10.7 C 187 10.7 186.8 10.1 187 9.3 C 186.99 9.3 188.3 4.2 188.3 4.2 Z M 190.6 6.6 L 204.6 6.6 L 204.4 7.4 L 190.4 7.4 L 190.6 6.6 Z M 206.8 1.6 C 206.9 1 206.9 0.9 206.5 0.9 C 206.51 0.87 205.7 0.8 205.7 0.8 L 205.8 0.4 L 208.3 0.1 L 208.4 0.2 L 206.8 6.6 C 206.8 6.6 206.86 6.59 206.9 6.6 C 207.8 4.9 209.2 3.5 210.6 3.5 C 211.7 3.5 211.9 4.4 211.6 5.5 C 211.6 5.5 210.4 9.2 210.4 9.2 C 210.3 9.6 210.3 9.9 210.6 9.9 C 211 9.9 211.6 8.9 211.8 8.5 C 211.8 8.5 212.2 8.7 212.2 8.7 C 211.7 9.7 210.9 10.7 210 10.7 C 209.2 10.7 209 10.1 209.2 9.2 C 209.2 9.2 210.4 5.2 210.4 5.2 C 210.5 4.6 210.4 4.2 209.9 4.2 C 208.7 4.2 207.3 6.3 206.9 7.4 C 206.6 8.3 206.3 9.1 206 10.5 C 205.96 10.5 204.7 10.7 204.7 10.7 C 204.7 10.7 206.79 1.55 206.8 1.6 Z M 213.5 3.9 L 216.1 3.5 L 216.1 3.5 C 216.1 3.5 214.8 8.71 214.8 8.7 C 214.6 9.5 214.7 9.9 215.1 9.9 C 216.3 9.9 217.5 8.1 218.1 6.7 C 218.5 5.8 218.7 5.1 219.1 3.6 C 219.14 3.64 220.4 3.5 220.4 3.5 C 220.4 3.5 218.89 9.18 218.9 9.2 C 218.8 9.6 218.8 9.9 219.1 9.9 C 219.5 9.9 220.1 8.9 220.4 8.5 C 220.4 8.5 220.7 8.7 220.7 8.7 C 220.2 9.7 219.4 10.7 218.4 10.7 C 217.6 10.7 217.4 10.1 217.7 9.2 C 217.71 9.16 218.2 7.6 218.2 7.6 C 218.2 7.6 218.14 7.56 218.1 7.6 C 217.3 9.2 215.8 10.7 214.5 10.7 C 213.4 10.7 213.3 9.8 213.6 8.6 C 213.6 8.6 214.5 4.9 214.5 4.9 C 214.6 4.5 214.6 4.3 214.3 4.3 C 214.31 4.27 213.4 4.2 213.4 4.2 L 213.5 3.9 Z M 221.8 3.9 L 224.3 3.5 L 224.4 3.5 C 224.4 3.5 223.17 8.81 223.2 8.8 C 223 9.6 223.2 9.9 223.6 9.9 C 224.2 9.9 224.8 9.2 225.4 8.4 C 226.2 7.1 226.6 5.4 227.1 3.7 C 227.08 3.68 228.3 3.6 228.3 3.6 C 228.3 3.6 227.3 8.01 227.3 8 C 227 9.3 227.1 9.9 227.8 9.9 C 228.9 9.9 230.6 7.3 230.6 5.4 C 230.6 4.8 230.5 4.3 230.4 3.8 C 230.7 3.6 231.1 3.5 231.4 3.5 C 231.5 3.5 231.9 4 231.9 4.6 C 231.8 5.4 231.2 6.9 230.3 8.3 C 229.4 9.6 228.3 10.7 227.2 10.7 C 226.3 10.7 226 10.1 226 9.3 C 226 8.9 226.1 8.3 226.2 7.8 C 226.2 7.8 226.2 7.8 226.2 7.8 C 225.3 9.5 224.1 10.7 222.9 10.7 C 222.1 10.7 221.6 10.1 221.9 8.8 C 221.9 8.8 222.8 4.9 222.8 4.9 C 222.9 4.5 222.9 4.3 222.6 4.3 C 222.61 4.27 221.8 4.2 221.8 4.2 L 221.8 3.9 Z M 236.6 3.5 C 237 3.5 237.4 3.6 237.6 3.8 C 237.63 3.77 237.7 3.6 237.7 3.6 L 238.9 3.6 C 238.9 3.6 237.39 9.17 237.4 9.2 C 237.3 9.6 237.3 9.9 237.5 9.9 C 237.9 9.9 238.5 8.9 238.8 8.5 C 238.8 8.5 239.1 8.7 239.1 8.7 C 238.7 9.7 237.9 10.7 236.8 10.7 C 236.1 10.7 235.9 10.1 236.2 9.1 C 236.19 9.1 236.7 7.5 236.7 7.5 C 236.7 7.5 236.64 7.5 236.6 7.5 C 235.8 8.9 234.5 10.7 233 10.7 C 232.1 10.7 231.7 9.8 231.7 9 C 231.7 7.2 233.3 3.5 236.6 3.5 Z M 233.7 9.9 C 234.4 9.9 235.2 9 236 7.8 C 236.7 6.7 237.2 5.3 237.5 4.3 C 237.3 4.1 237 4 236.6 4 C 234.4 4 233.1 7.4 233.1 9 C 233.1 9.5 233.2 9.9 233.7 9.9 Z M 240.9 9.9 C 240.9 9.9 240.9 9.9 240.9 9.9 C 240.3 9.6 239.9 9.3 239.9 8.8 C 239.9 8.3 240.8 8 241.2 7.8 C 241.2 7.8 241.2 7.8 241.2 7.8 C 240.8 7.6 240 7.1 240 6 C 240 5.1 240.7 3.5 243 3.5 C 243.7 3.5 244.4 3.7 244.7 3.9 C 244.73 3.89 246.8 3.3 246.8 3.3 L 246.8 3.5 L 246.4 4.3 C 246.4 4.3 245.21 4.51 245.2 4.5 C 245.4 4.7 245.5 5.1 245.5 5.5 C 245.5 6.9 244.4 8 242.5 8 C 242.3 8 242 8 241.7 7.9 C 241.4 8 241.1 8.2 241.1 8.5 C 241.1 8.9 241.6 9.1 242.8 9.4 C 244.5 9.7 245.2 10.5 245.2 11.6 C 245.2 13.1 243.7 13.9 241.8 13.9 C 240.1 13.9 238.8 13.1 238.8 11.8 C 238.8 10.7 240 10.1 240.9 9.9 Z M 242.1 13.4 C 243.2 13.4 244.1 12.9 244.1 11.8 C 244.1 10.6 242.4 10.3 241.5 10.1 C 241 10.2 240 10.7 240 11.7 C 240 12.7 240.9 13.4 242.1 13.4 Z M 242.5 7.5 C 243.5 7.5 244.2 6.4 244.2 5.1 C 244.2 4.2 243.5 4 243.1 4 C 241.8 4 241.3 5.4 241.3 6.3 C 241.3 7 241.7 7.5 242.5 7.5 Z M 250.9 4.2 L 249.8 4.2 L 249.9 3.6 L 251 3.6 L 251.2 3 L 252.6 1.9 L 252.8 2 L 252.3 3.6 L 254.1 3.6 L 253.9 4.2 L 252.1 4.2 C 252.1 4.2 250.9 9.27 250.9 9.3 C 250.8 9.6 250.8 9.9 251.1 9.9 C 251.5 9.9 252.3 9 252.6 8.5 C 252.6 8.5 252.9 8.7 252.9 8.7 C 252.3 9.7 251.4 10.7 250.3 10.7 C 249.6 10.7 249.4 10.1 249.7 9.3 C 249.66 9.3 250.9 4.2 250.9 4.2 Z M 258.3 3.5 C 258.6 3.5 259 3.6 259.3 3.8 C 259.28 3.77 259.3 3.6 259.3 3.6 L 260.5 3.6 C 260.5 3.6 259.04 9.17 259 9.2 C 258.9 9.6 258.9 9.9 259.2 9.9 C 259.6 9.9 260.2 8.9 260.4 8.5 C 260.4 8.5 260.8 8.7 260.8 8.7 C 260.3 9.7 259.5 10.7 258.4 10.7 C 257.7 10.7 257.5 10.1 257.8 9.1 C 257.83 9.1 258.3 7.5 258.3 7.5 C 258.3 7.5 258.28 7.5 258.3 7.5 C 257.5 8.9 256.2 10.7 254.7 10.7 C 253.7 10.7 253.3 9.8 253.3 9 C 253.3 7.2 254.9 3.5 258.3 3.5 Z M 255.3 9.9 C 256 9.9 256.9 9 257.6 7.8 C 258.4 6.7 258.9 5.3 259.1 4.3 C 258.9 4.1 258.6 4 258.3 4 C 256.1 4 254.7 7.4 254.7 9 C 254.7 9.5 254.9 9.9 255.3 9.9 Z M 260.6 12.3 C 260.8 12.3 260.9 12.4 261.1 12.6 C 261.3 12.9 261.5 13 261.7 13 C 262 13 262.3 12.6 262.6 12.1 C 262.9 11.3 262.9 10.7 262.9 10.3 C 262.9 9.2 262.6 6.5 262.5 5.4 C 262.3 4.7 262.3 4.5 262 4.5 C 261.96 4.47 261 4.5 261 4.5 L 261 4.1 L 263.3 3.5 C 263.3 3.5 263.43 3.53 263.4 3.5 C 263.6 4.5 263.9 7.5 264 9.6 C 264 9.6 264 9.6 264 9.6 C 265 8 265.8 6.5 266 5.8 C 266.2 5.2 266.2 4.3 266.2 3.8 C 266.5 3.6 267 3.5 267.3 3.5 C 267.4 3.5 267.5 3.8 267.5 4.3 C 267.5 4.8 266.7 6.2 265.9 7.5 C 265 8.9 264.1 10.4 263.9 10.9 C 262.6 13 262.1 13.9 260.9 13.9 C 260.3 13.9 259.9 13.5 259.9 13.1 C 259.9 12.7 260.3 12.3 260.6 12.3 Z M 271.5 3.5 C 272.7 3.5 274 4 274 5.9 C 274 6.7 273.8 7.9 273.2 8.9 C 272.5 9.9 271.5 10.7 270 10.7 C 268.2 10.7 267.4 9.6 267.4 8.1 C 267.4 6.9 268.2 3.5 271.5 3.5 Z M 270 10.2 C 272 10.2 272.7 6.4 272.7 5.4 C 272.7 4.6 272.4 4 271.5 4 C 269.7 4 268.8 7.2 268.8 8.7 C 268.8 9.7 269.2 10.2 270 10.2 Z M 276.3 4.9 C 276.5 4.5 276.5 4.3 276.1 4.3 C 276.12 4.27 275.2 4.2 275.2 4.2 L 275.3 3.9 L 277.9 3.5 L 278 3.5 L 277.1 6.6 C 277.1 6.6 277.1 6.59 277.1 6.6 C 277.9 5 279.4 3.5 280.7 3.5 C 281.9 3.5 282.1 4.4 281.7 5.5 C 281.7 5.5 280.6 9.2 280.6 9.2 C 280.5 9.6 280.5 9.9 280.8 9.9 C 281.2 9.9 281.8 8.9 282 8.5 C 282 8.5 282.4 8.7 282.4 8.7 C 281.9 9.7 281.1 10.7 280.1 10.7 C 279.3 10.7 279.1 10.1 279.4 9.3 C 279.4 9.3 280.6 5.2 280.6 5.2 C 280.7 4.6 280.6 4.2 280.1 4.2 C 279 4.2 277.6 6.2 277.1 7.4 C 276.7 8.3 276.5 9.1 276.1 10.5 C 276.09 10.5 274.9 10.7 274.9 10.7 C 274.9 10.7 276.33 4.94 276.3 4.9 Z M 284.4 9.9 C 284.4 9.9 284.4 9.9 284.4 9.9 C 283.9 9.6 283.4 9.3 283.4 8.8 C 283.4 8.3 284.3 8 284.7 7.8 C 284.7 7.8 284.7 7.8 284.7 7.8 C 284.3 7.6 283.5 7.1 283.5 6 C 283.5 5.1 284.2 3.5 286.5 3.5 C 287.2 3.5 287.9 3.7 288.3 3.9 C 288.26 3.89 290.3 3.3 290.3 3.3 L 290.4 3.5 L 289.9 4.3 C 289.9 4.3 288.73 4.51 288.7 4.5 C 288.9 4.7 289 5.1 289 5.5 C 289 6.9 287.9 8 286 8 C 285.8 8 285.5 8 285.2 7.9 C 284.9 8 284.6 8.2 284.6 8.5 C 284.6 8.9 285.1 9.1 286.3 9.4 C 288 9.7 288.8 10.5 288.8 11.6 C 288.8 13.1 287.2 13.9 285.4 13.9 C 283.6 13.9 282.3 13.1 282.3 11.8 C 282.3 10.7 283.5 10.1 284.4 9.9 Z M 285.7 13.4 C 286.7 13.4 287.6 12.9 287.6 11.8 C 287.6 10.6 285.9 10.3 285 10.1 C 284.5 10.2 283.6 10.7 283.6 11.7 C 283.6 12.7 284.4 13.4 285.7 13.4 Z M 286 7.5 C 287.1 7.5 287.7 6.4 287.7 5.1 C 287.7 4.2 287 4 286.6 4 C 285.3 4 284.9 5.4 284.9 6.3 C 284.9 7 285.3 7.5 286 7.5 Z " stroke="none" fill="#000"/>
  </g>
</svg>