<?xml version="1.0" standalone="no"?>
<!DOCTYPE svg PUBLIC "-//W3C//DTD SVG 1.1//EN" "http://www.w3.org/Graphics/SVG/1.1/DTD/svg11.dtd">
<svg xmlns="http://www.w3.org/2000/svg" version="1.1" width="326.2px" height="17.7px" viewBox="0 -3 326.2 17.7" style="top:-3px">
  <desc>Patnugot ng SINING: rona hannah amparo</desc>
  <defs/>
  <g id="Polygon29850">
    <path d="M 1.7 2.7 C 1.7 2.7 2.04 2.71 2 2.7 C 2.4 2.7 2.6 2.6 2.8 2.5 C 2.9 2.4 3 2.2 3 2 C 3 1.7 2.9 1.5 2.8 1.4 C 2.7 1.3 2.5 1.2 2.2 1.2 C 2.17 1.23 1.7 1.2 1.7 1.2 L 1.7 2.7 Z M 4.1 1.9 C 4.1 2.5 3.9 2.9 3.6 3.2 C 3.2 3.4 2.8 3.6 2.1 3.6 C 2.14 3.58 1.7 3.6 1.7 3.6 L 1.7 5.4 L 0.6 5.4 L 0.6 0.4 C 0.6 0.4 2.23 0.36 2.2 0.4 C 2.8 0.4 3.3 0.5 3.6 0.8 C 3.9 1 4.1 1.4 4.1 1.9 Z M 7.9 5.4 L 7.6 4.2 L 5.8 4.2 L 5.4 5.4 L 4.3 5.4 L 6 0.3 L 7.3 0.3 L 9.1 5.4 L 7.9 5.4 Z M 7.3 3.3 C 7 2.2 6.8 1.6 6.8 1.4 C 6.7 1.3 6.7 1.2 6.7 1.1 C 6.6 1.4 6.4 2.1 6 3.3 C 6 3.3 7.3 3.3 7.3 3.3 Z M 11.5 5.4 L 10.4 5.4 L 10.4 1.2 L 9.1 1.2 L 9.1 0.4 L 12.9 0.4 L 12.9 1.2 L 11.5 1.2 L 11.5 5.4 Z M 17.9 5.4 L 16.6 5.4 L 14.4 1.6 C 14.4 1.6 14.37 1.58 14.4 1.6 C 14.4 2.2 14.4 2.7 14.4 3 C 14.43 3 14.4 5.4 14.4 5.4 L 13.5 5.4 L 13.5 0.4 L 14.8 0.4 L 17 4.1 C 17 4.1 17.02 4.1 17 4.1 C 17 3.5 17 3 17 2.7 C 16.97 2.72 17 0.4 17 0.4 L 17.9 0.4 L 17.9 5.4 Z M 23.1 0.4 C 23.1 0.4 23.11 3.59 23.1 3.6 C 23.1 4 23 4.3 22.9 4.6 C 22.7 4.8 22.5 5.1 22.1 5.2 C 21.8 5.4 21.5 5.4 21 5.4 C 20.4 5.4 19.9 5.3 19.5 4.9 C 19.2 4.6 19 4.2 19 3.6 C 19 3.58 19 0.4 19 0.4 L 20.1 0.4 C 20.1 0.4 20.06 3.42 20.1 3.4 C 20.1 3.8 20.1 4.1 20.3 4.3 C 20.4 4.4 20.7 4.5 21.1 4.5 C 21.4 4.5 21.7 4.4 21.8 4.3 C 22 4.1 22 3.8 22 3.4 C 22.05 3.41 22 0.4 22 0.4 L 23.1 0.4 Z M 26.1 2.5 L 28.1 2.5 C 28.1 2.5 28.07 5.14 28.1 5.1 C 27.7 5.2 27.4 5.3 27.2 5.4 C 26.9 5.4 26.6 5.4 26.3 5.4 C 25.5 5.4 25 5.2 24.6 4.8 C 24.2 4.3 24 3.7 24 2.9 C 24 2 24.2 1.4 24.7 1 C 25.1 0.5 25.8 0.3 26.6 0.3 C 27.1 0.3 27.6 0.4 28.1 0.6 C 28.1 0.6 27.7 1.4 27.7 1.4 C 27.3 1.3 27 1.2 26.6 1.2 C 26.1 1.2 25.7 1.3 25.5 1.6 C 25.2 1.9 25.1 2.4 25.1 2.9 C 25.1 3.4 25.2 3.8 25.4 4.1 C 25.6 4.4 25.9 4.5 26.4 4.5 C 26.6 4.5 26.8 4.5 27 4.5 C 27.03 4.47 27 3.4 27 3.4 L 26.1 3.4 L 26.1 2.5 Z M 33.7 2.9 C 33.7 3.7 33.4 4.3 33 4.8 C 32.6 5.2 32 5.4 31.3 5.4 C 30.5 5.4 29.9 5.2 29.5 4.8 C 29.1 4.3 28.9 3.7 28.9 2.8 C 28.9 2 29.1 1.4 29.5 0.9 C 29.9 0.5 30.5 0.3 31.3 0.3 C 32 0.3 32.6 0.5 33 0.9 C 33.5 1.4 33.7 2 33.7 2.9 Z M 30 2.9 C 30 3.4 30.1 3.8 30.3 4.1 C 30.5 4.4 30.9 4.5 31.3 4.5 C 32.1 4.5 32.5 4 32.5 2.9 C 32.5 1.7 32.1 1.2 31.3 1.2 C 30.9 1.2 30.5 1.3 30.3 1.6 C 30.1 1.9 30 2.3 30 2.9 Z M 36.5 5.4 L 35.4 5.4 L 35.4 1.2 L 34.1 1.2 L 34.1 0.4 L 37.8 0.4 L 37.8 1.2 L 36.5 1.2 L 36.5 5.4 Z M 44.6 5.4 L 43.2 5.4 L 41.1 1.6 C 41.1 1.6 41.02 1.58 41 1.6 C 41.1 2.2 41.1 2.7 41.1 3 C 41.09 3 41.1 5.4 41.1 5.4 L 40.1 5.4 L 40.1 0.4 L 41.5 0.4 L 43.6 4.1 C 43.6 4.1 43.67 4.1 43.7 4.1 C 43.6 3.5 43.6 3 43.6 2.7 C 43.62 2.72 43.6 0.4 43.6 0.4 L 44.6 0.4 L 44.6 5.4 Z M 47.6 2.5 L 49.6 2.5 C 49.6 2.5 49.57 5.14 49.6 5.1 C 49.3 5.2 48.9 5.3 48.7 5.4 C 48.4 5.4 48.1 5.4 47.8 5.4 C 47 5.4 46.5 5.2 46.1 4.8 C 45.7 4.3 45.5 3.7 45.5 2.9 C 45.5 2 45.7 1.4 46.2 1 C 46.6 0.5 47.3 0.3 48.1 0.3 C 48.6 0.3 49.1 0.4 49.6 0.6 C 49.6 0.6 49.2 1.4 49.2 1.4 C 48.8 1.3 48.5 1.2 48.1 1.2 C 47.6 1.2 47.3 1.3 47 1.6 C 46.7 1.9 46.6 2.4 46.6 2.9 C 46.6 3.4 46.7 3.8 46.9 4.1 C 47.1 4.4 47.4 4.5 47.9 4.5 C 48.1 4.5 48.3 4.5 48.5 4.5 C 48.54 4.47 48.5 3.4 48.5 3.4 L 47.6 3.4 L 47.6 2.5 Z M 55.2 4 C 55.2 4.4 55.1 4.8 54.8 5 C 54.4 5.3 54 5.4 53.4 5.4 C 52.9 5.4 52.4 5.3 52 5.1 C 52 5.1 52 4.1 52 4.1 C 52.3 4.3 52.6 4.4 52.8 4.5 C 53.1 4.5 53.3 4.5 53.5 4.5 C 53.7 4.5 53.9 4.5 54 4.4 C 54.1 4.3 54.2 4.2 54.2 4 C 54.2 3.9 54.2 3.8 54.1 3.8 C 54.1 3.7 54 3.6 53.9 3.5 C 53.8 3.5 53.6 3.4 53.2 3.2 C 52.9 3.1 52.7 2.9 52.6 2.8 C 52.4 2.7 52.3 2.5 52.2 2.3 C 52.1 2.1 52.1 1.9 52.1 1.7 C 52.1 1.3 52.2 0.9 52.5 0.7 C 52.8 0.4 53.2 0.3 53.7 0.3 C 54 0.3 54.2 0.3 54.5 0.4 C 54.7 0.4 55 0.5 55.2 0.6 C 55.2 0.6 54.9 1.5 54.9 1.5 C 54.6 1.4 54.4 1.3 54.2 1.2 C 54 1.2 53.9 1.2 53.7 1.2 C 53.5 1.2 53.4 1.2 53.2 1.3 C 53.1 1.4 53.1 1.5 53.1 1.7 C 53.1 1.8 53.1 1.8 53.2 1.9 C 53.2 2 53.3 2.1 53.4 2.1 C 53.5 2.2 53.7 2.3 54 2.5 C 54.5 2.7 54.8 2.9 55 3.1 C 55.2 3.4 55.2 3.6 55.2 4 Z M 56 5.4 L 56 0.4 L 57.1 0.4 L 57.1 5.4 L 56 5.4 Z M 62.6 5.4 L 61.3 5.4 L 59.1 1.6 C 59.1 1.6 59.07 1.58 59.1 1.6 C 59.1 2.2 59.1 2.7 59.1 3 C 59.14 3 59.1 5.4 59.1 5.4 L 58.2 5.4 L 58.2 0.4 L 59.5 0.4 L 61.7 4.1 C 61.7 4.1 61.72 4.1 61.7 4.1 C 61.7 3.5 61.7 3 61.7 2.7 C 61.67 2.72 61.7 0.4 61.7 0.4 L 62.6 0.4 L 62.6 5.4 Z M 63.7 5.4 L 63.7 0.4 L 64.8 0.4 L 64.8 5.4 L 63.7 5.4 Z M 70.4 5.4 L 69 5.4 L 66.8 1.6 C 66.8 1.6 66.8 1.58 66.8 1.6 C 66.8 2.2 66.9 2.7 66.9 3 C 66.87 3 66.9 5.4 66.9 5.4 L 65.9 5.4 L 65.9 0.4 L 67.3 0.4 L 69.4 4.1 C 69.4 4.1 69.45 4.1 69.5 4.1 C 69.4 3.5 69.4 3 69.4 2.7 C 69.4 2.72 69.4 0.4 69.4 0.4 L 70.4 0.4 L 70.4 5.4 Z M 73.4 2.5 L 75.4 2.5 C 75.4 2.5 75.35 5.14 75.4 5.1 C 75 5.2 74.7 5.3 74.4 5.4 C 74.2 5.4 73.9 5.4 73.6 5.4 C 72.8 5.4 72.2 5.2 71.8 4.8 C 71.4 4.3 71.2 3.7 71.2 2.9 C 71.2 2 71.5 1.4 71.9 1 C 72.4 0.5 73 0.3 73.9 0.3 C 74.4 0.3 74.9 0.4 75.3 0.6 C 75.3 0.6 75 1.4 75 1.4 C 74.6 1.3 74.2 1.2 73.9 1.2 C 73.4 1.2 73 1.3 72.8 1.6 C 72.5 1.9 72.3 2.4 72.3 2.9 C 72.3 3.4 72.5 3.8 72.7 4.1 C 72.9 4.4 73.2 4.5 73.6 4.5 C 73.9 4.5 74.1 4.5 74.3 4.5 C 74.32 4.47 74.3 3.4 74.3 3.4 L 73.4 3.4 L 73.4 2.5 Z M 76.2 4.9 C 76.2 4.7 76.2 4.5 76.3 4.4 C 76.4 4.3 76.6 4.3 76.8 4.3 C 77 4.3 77.1 4.3 77.2 4.4 C 77.3 4.5 77.4 4.7 77.4 4.9 C 77.4 5 77.3 5.2 77.2 5.3 C 77.1 5.4 77 5.4 76.8 5.4 C 76.6 5.4 76.4 5.4 76.3 5.3 C 76.2 5.2 76.2 5.1 76.2 4.9 Z M 76.2 2 C 76.2 1.9 76.2 1.7 76.3 1.6 C 76.4 1.5 76.6 1.5 76.8 1.5 C 77 1.5 77.1 1.5 77.2 1.6 C 77.3 1.7 77.4 1.9 77.4 2 C 77.4 2.2 77.3 2.4 77.2 2.5 C 77.1 2.6 77 2.6 76.8 2.6 C 76.6 2.6 76.4 2.6 76.3 2.5 C 76.2 2.4 76.2 2.2 76.2 2 Z M 83.7 3.2 L 83.7 5.4 L 83.4 5.4 L 83.4 0.4 C 83.4 0.4 84.56 0.36 84.6 0.4 C 85.2 0.4 85.6 0.5 85.9 0.7 C 86.2 0.9 86.4 1.3 86.4 1.7 C 86.4 2.1 86.3 2.4 86.1 2.6 C 85.9 2.8 85.7 3 85.3 3.1 C 85.31 3.08 86.7 5.4 86.7 5.4 L 86.2 5.4 L 85 3.2 L 83.7 3.2 Z M 83.7 2.9 C 83.7 2.9 84.67 2.88 84.7 2.9 C 85.1 2.9 85.4 2.8 85.7 2.6 C 85.9 2.4 86 2.1 86 1.8 C 86 1.4 85.9 1.1 85.7 0.9 C 85.4 0.8 85.1 0.7 84.5 0.7 C 84.55 0.67 83.7 0.7 83.7 0.7 L 83.7 2.9 Z M 91.9 2.9 C 91.9 3.6 91.7 4.3 91.3 4.7 C 90.9 5.2 90.3 5.4 89.6 5.4 C 88.9 5.4 88.4 5.2 88 4.7 C 87.6 4.3 87.4 3.6 87.4 2.8 C 87.4 2 87.6 1.4 88 1 C 88.4 0.5 88.9 0.3 89.6 0.3 C 90.3 0.3 90.9 0.5 91.3 1 C 91.7 1.4 91.9 2.1 91.9 2.9 Z M 87.8 2.9 C 87.8 3.6 87.9 4.1 88.3 4.5 C 88.6 4.9 89 5.1 89.6 5.1 C 90.2 5.1 90.7 4.9 91 4.5 C 91.3 4.1 91.5 3.6 91.5 2.9 C 91.5 2.1 91.3 1.6 91 1.2 C 90.7 0.8 90.2 0.6 89.6 0.6 C 89 0.6 88.6 0.8 88.3 1.2 C 87.9 1.6 87.8 2.1 87.8 2.9 Z M 96.8 5.4 L 96.4 5.4 L 93.5 0.9 C 93.5 0.9 93.45 0.92 93.5 0.9 C 93.5 1.4 93.5 1.8 93.5 2.1 C 93.49 2.12 93.5 5.4 93.5 5.4 L 93.2 5.4 L 93.2 0.4 L 93.5 0.4 L 96.5 4.8 C 96.5 4.8 96.49 4.79 96.5 4.8 C 96.5 4.4 96.5 4 96.5 3.6 C 96.45 3.62 96.5 0.4 96.5 0.4 L 96.8 0.4 L 96.8 5.4 Z M 100.8 3.6 L 98.7 3.6 L 98 5.4 L 97.6 5.4 L 99.7 0.3 L 99.9 0.3 L 101.8 5.4 L 101.4 5.4 L 100.8 3.6 Z M 98.9 3.3 L 100.6 3.3 C 100.6 3.3 99.96 1.48 100 1.5 C 99.9 1.3 99.8 1.1 99.8 0.9 C 99.7 1.1 99.6 1.3 99.6 1.5 C 99.55 1.48 98.9 3.3 98.9 3.3 Z M 108.3 5.4 L 107.9 5.4 L 107.9 2.9 L 105 2.9 L 105 5.4 L 104.6 5.4 L 104.6 0.4 L 105 0.4 L 105 2.6 L 107.9 2.6 L 107.9 0.4 L 108.3 0.4 L 108.3 5.4 Z M 112.2 3.6 L 110.2 3.6 L 109.5 5.4 L 109.1 5.4 L 111.1 0.3 L 111.3 0.3 L 113.3 5.4 L 112.9 5.4 L 112.2 3.6 Z M 110.3 3.3 L 112.1 3.3 C 112.1 3.3 111.43 1.48 111.4 1.5 C 111.4 1.3 111.3 1.1 111.2 0.9 C 111.2 1.1 111.1 1.3 111 1.5 C 111.02 1.48 110.3 3.3 110.3 3.3 Z M 117.8 5.4 L 117.4 5.4 L 114.5 0.9 C 114.5 0.9 114.46 0.92 114.5 0.9 C 114.5 1.4 114.5 1.8 114.5 2.1 C 114.5 2.12 114.5 5.4 114.5 5.4 L 114.2 5.4 L 114.2 0.4 L 114.5 0.4 L 117.5 4.8 C 117.5 4.8 117.49 4.79 117.5 4.8 C 117.5 4.4 117.5 4 117.5 3.6 C 117.46 3.62 117.5 0.4 117.5 0.4 L 117.8 0.4 L 117.8 5.4 Z M 123 5.4 L 122.6 5.4 L 119.7 0.9 C 119.7 0.9 119.64 0.92 119.6 0.9 C 119.7 1.4 119.7 1.8 119.7 2.1 C 119.69 2.12 119.7 5.4 119.7 5.4 L 119.4 5.4 L 119.4 0.4 L 119.7 0.4 L 122.7 4.8 C 122.7 4.8 122.68 4.79 122.7 4.8 C 122.7 4.4 122.6 4 122.6 3.6 C 122.65 3.62 122.6 0.4 122.6 0.4 L 123 0.4 L 123 5.4 Z M 126.9 3.6 L 124.9 3.6 L 124.2 5.4 L 123.8 5.4 L 125.8 0.3 L 126.1 0.3 L 128 5.4 L 127.6 5.4 L 126.9 3.6 Z M 125 3.3 L 126.8 3.3 C 126.8 3.3 126.15 1.48 126.1 1.5 C 126.1 1.3 126 1.1 125.9 0.9 C 125.9 1.1 125.8 1.3 125.7 1.5 C 125.74 1.48 125 3.3 125 3.3 Z M 132.5 5.4 L 132.1 5.4 L 132.1 2.9 L 129.2 2.9 L 129.2 5.4 L 128.9 5.4 L 128.9 0.4 L 129.2 0.4 L 129.2 2.6 L 132.1 2.6 L 132.1 0.4 L 132.5 0.4 L 132.5 5.4 Z M 138.4 3.6 L 136.4 3.6 L 135.7 5.4 L 135.3 5.4 L 137.3 0.3 L 137.5 0.3 L 139.5 5.4 L 139.1 5.4 L 138.4 3.6 Z M 136.5 3.3 L 138.3 3.3 C 138.3 3.3 137.62 1.48 137.6 1.5 C 137.6 1.3 137.5 1.1 137.4 0.9 C 137.4 1.1 137.3 1.3 137.2 1.5 C 137.22 1.48 136.5 3.3 136.5 3.3 Z M 142.6 5.4 L 140.7 0.7 C 140.7 0.7 140.66 0.74 140.7 0.7 C 140.7 1 140.7 1.3 140.7 1.6 C 140.69 1.61 140.7 5.4 140.7 5.4 L 140.4 5.4 L 140.4 0.4 L 140.9 0.4 L 142.7 4.8 L 142.7 4.8 L 144.5 0.4 L 145 0.4 L 145 5.4 L 144.6 5.4 C 144.6 5.4 144.63 1.57 144.6 1.6 C 144.6 1.3 144.6 1 144.7 0.7 C 144.67 0.75 144.6 0.7 144.6 0.7 L 142.8 5.4 L 142.6 5.4 Z M 147.8 0.4 C 148.9 0.4 149.5 0.8 149.5 1.8 C 149.5 2.3 149.4 2.6 149 2.9 C 148.7 3.2 148.3 3.3 147.7 3.3 C 147.65 3.29 146.9 3.3 146.9 3.3 L 146.9 5.4 L 146.5 5.4 L 146.5 0.4 L 147.8 0.4 C 147.8 0.4 147.76 0.36 147.8 0.4 Z M 146.9 3 C 146.9 3 147.57 2.99 147.6 3 C 148.1 3 148.5 2.9 148.8 2.7 C 149 2.5 149.2 2.2 149.2 1.8 C 149.2 1.4 149 1.1 148.8 1 C 148.6 0.8 148.2 0.7 147.7 0.7 C 147.71 0.67 146.9 0.7 146.9 0.7 L 146.9 3 Z M 153.2 3.6 L 151.1 3.6 L 150.4 5.4 L 150.1 5.4 L 152.1 0.3 L 152.3 0.3 L 154.3 5.4 L 153.9 5.4 L 153.2 3.6 Z M 151.3 3.3 L 153.1 3.3 C 153.1 3.3 152.38 1.48 152.4 1.5 C 152.3 1.3 152.3 1.1 152.2 0.9 C 152.1 1.1 152 1.3 152 1.5 C 151.97 1.48 151.3 3.3 151.3 3.3 Z M 155.5 3.2 L 155.5 5.4 L 155.1 5.4 L 155.1 0.4 C 155.1 0.4 156.3 0.36 156.3 0.4 C 156.9 0.4 157.4 0.5 157.7 0.7 C 158 0.9 158.1 1.3 158.1 1.7 C 158.1 2.1 158 2.4 157.9 2.6 C 157.7 2.8 157.4 3 157 3.1 C 157.05 3.08 158.4 5.4 158.4 5.4 L 158 5.4 L 156.7 3.2 L 155.5 3.2 Z M 155.5 2.9 C 155.5 2.9 156.41 2.88 156.4 2.9 C 156.8 2.9 157.2 2.8 157.4 2.6 C 157.6 2.4 157.7 2.1 157.7 1.8 C 157.7 1.4 157.6 1.1 157.4 0.9 C 157.2 0.8 156.8 0.7 156.3 0.7 C 156.28 0.67 155.5 0.7 155.5 0.7 L 155.5 2.9 Z M 163.6 2.9 C 163.6 3.6 163.4 4.3 163 4.7 C 162.6 5.2 162.1 5.4 161.4 5.4 C 160.7 5.4 160.1 5.2 159.7 4.7 C 159.3 4.3 159.1 3.6 159.1 2.8 C 159.1 2 159.3 1.4 159.7 1 C 160.1 0.5 160.7 0.3 161.4 0.3 C 162.1 0.3 162.6 0.5 163 1 C 163.4 1.4 163.6 2.1 163.6 2.9 Z M 159.5 2.9 C 159.5 3.6 159.7 4.1 160 4.5 C 160.3 4.9 160.8 5.1 161.4 5.1 C 162 5.1 162.4 4.9 162.8 4.5 C 163.1 4.1 163.2 3.6 163.2 2.9 C 163.2 2.1 163.1 1.6 162.8 1.2 C 162.4 0.8 162 0.6 161.4 0.6 C 160.8 0.6 160.3 0.8 160 1.2 C 159.7 1.6 159.5 2.1 159.5 2.9 Z " stroke="none" fill="#000"/>
  </g>
</svg>