<?xml version="1.0" standalone="no"?>
<!DOCTYPE svg PUBLIC "-//W3C//DTD SVG 1.1//EN" "http://www.w3.org/Graphics/SVG/1.1/DTD/svg11.dtd">
<svg xmlns="http://www.w3.org/2000/svg" version="1.1" width="116.3px" height="19px" viewBox="0 -3 116.3 19" style="top:-3px">
  <desc>Kuha ni Lyndon Mengote</desc>
  <defs/>
  <g id="Polygon14548">
    <path d="M 0.5 1.7 L 1.5 1.7 L 1.5 10.7 L 0.5 10.7 L 0.5 1.7 Z M 6 2.3 L 7.1 2.3 L 6.5 5.3 L 6.6 5.3 L 9.8 2.3 L 11.3 2.3 L 8.3 5 L 10.3 8.8 L 9 8.8 L 7.4 5.7 L 6.2 6.7 L 5.8 8.8 L 4.7 8.8 L 6 2.3 Z M 14.9 8.8 L 13.9 8.8 L 14.1 8.1 C 14.1 8.1 14.05 8.08 14 8.1 C 13.9 8.3 13.6 8.5 13.4 8.7 C 13.1 8.8 12.8 8.9 12.4 8.9 C 12 8.9 11.6 8.8 11.4 8.6 C 11.2 8.3 11.1 8 11.1 7.7 C 11.1 7.6 11.1 7.5 11.1 7.4 C 11.1 7.3 11.1 7.2 11.1 7.1 C 11.13 7.09 11.8 4.1 11.8 4.1 L 12.8 4.1 C 12.8 4.1 12.19 6.99 12.2 7 C 12.2 7.1 12.2 7.1 12.1 7.2 C 12.1 7.3 12.1 7.4 12.1 7.4 C 12.1 7.5 12.1 7.5 12.1 7.6 C 12.1 7.7 12.1 7.7 12.2 7.8 C 12.2 7.9 12.3 8 12.4 8 C 12.5 8.1 12.6 8.1 12.8 8.1 C 13 8.1 13.2 8 13.4 8 C 13.5 7.9 13.7 7.8 13.8 7.6 C 13.9 7.5 14 7.3 14.1 7.2 C 14.2 7 14.3 6.8 14.3 6.6 C 14.3 6.64 14.8 4.1 14.8 4.1 L 15.8 4.1 L 14.9 8.8 Z M 17.4 2.3 L 18.4 2.3 L 17.9 4.8 C 17.9 4.8 17.95 4.78 18 4.8 C 18.1 4.5 18.4 4.4 18.6 4.2 C 18.9 4.1 19.2 4 19.5 4 C 20 4 20.3 4.1 20.5 4.3 C 20.7 4.6 20.8 4.9 20.8 5.2 C 20.8 5.3 20.8 5.4 20.8 5.5 C 20.8 5.6 20.8 5.7 20.8 5.8 C 20.8 5.8 20.2 8.8 20.2 8.8 L 19.2 8.8 C 19.2 8.8 19.75 5.9 19.7 5.9 C 19.8 5.8 19.8 5.8 19.8 5.7 C 19.8 5.6 19.8 5.5 19.8 5.5 C 19.8 5.4 19.8 5.4 19.8 5.3 C 19.8 5.2 19.8 5.2 19.7 5.1 C 19.7 5 19.6 4.9 19.5 4.9 C 19.4 4.8 19.3 4.8 19.1 4.8 C 18.9 4.8 18.7 4.8 18.6 4.9 C 18.4 5 18.3 5.1 18.1 5.3 C 18 5.4 17.9 5.5 17.8 5.7 C 17.7 5.9 17.7 6.1 17.6 6.3 C 17.63 6.25 17.1 8.8 17.1 8.8 L 16.1 8.8 L 17.4 2.3 Z M 22.4 7.5 C 22.4 7.6 22.4 7.7 22.5 7.8 C 22.5 7.9 22.6 7.9 22.7 8 C 22.7 8 22.8 8 22.9 8.1 C 23 8.1 23.1 8.1 23.2 8.1 C 23.5 8.1 23.7 8 23.8 8 C 24 7.9 24.2 7.8 24.3 7.6 C 24.4 7.5 24.5 7.3 24.5 7.1 C 24.6 6.9 24.6 6.7 24.7 6.5 C 24.7 6.5 24.7 6.5 24.7 6.5 C 24.6 6.5 24.5 6.6 24.4 6.6 C 24.3 6.7 24.1 6.7 24 6.7 C 23.9 6.7 23.7 6.7 23.5 6.7 C 23.3 6.7 23.2 6.8 23 6.8 C 22.8 6.9 22.7 6.9 22.6 7.1 C 22.5 7.2 22.4 7.3 22.4 7.5 Z M 25.5 7.4 C 25.5 7.5 25.4 7.6 25.4 7.7 C 25.4 7.7 25.4 7.8 25.4 7.9 C 25.4 8 25.4 8 25.4 8 C 25.5 8.1 25.5 8.1 25.6 8.1 C 25.7 8.1 25.7 8.1 25.8 8.1 C 25.8 8.1 25.9 8 26 8 C 26 8 25.8 8.8 25.8 8.8 C 25.7 8.8 25.5 8.8 25.4 8.9 C 25.3 8.9 25.1 8.9 25 8.9 C 24.8 8.9 24.7 8.8 24.6 8.7 C 24.5 8.6 24.4 8.5 24.4 8.3 C 24.2 8.5 23.9 8.7 23.7 8.8 C 23.4 8.9 23.1 8.9 22.8 8.9 C 22.6 8.9 22.4 8.9 22.3 8.8 C 22.1 8.8 21.9 8.7 21.8 8.6 C 21.7 8.5 21.6 8.4 21.5 8.2 C 21.4 8 21.4 7.9 21.4 7.7 C 21.4 7.4 21.4 7.1 21.5 6.9 C 21.6 6.7 21.8 6.6 22 6.5 C 22.1 6.3 22.3 6.2 22.6 6.2 C 22.8 6.1 23.1 6.1 23.3 6.1 C 23.7 6 24 6 24.3 6 C 24.5 6 24.7 5.9 24.8 5.8 C 24.8 5.7 24.9 5.5 24.9 5.4 C 24.9 5.1 24.8 5 24.7 4.9 C 24.5 4.8 24.3 4.8 24.1 4.8 C 23.8 4.8 23.6 4.9 23.4 5 C 23.2 5.1 23 5.2 22.9 5.5 C 22.9 5.5 22 5.5 22 5.5 C 22 5.2 22.1 5 22.2 4.8 C 22.4 4.6 22.5 4.5 22.7 4.3 C 22.9 4.2 23.1 4.1 23.4 4.1 C 23.6 4 23.9 4 24.2 4 C 24.6 4 24.9 4 25.2 4.1 C 25.4 4.2 25.6 4.3 25.7 4.4 C 25.8 4.5 25.9 4.6 25.9 4.8 C 25.9 4.9 25.9 5 25.9 5.1 C 25.9 5.3 25.9 5.5 25.8 5.8 C 25.8 5.8 25.5 7.4 25.5 7.4 Z M 30 4.1 L 31 4.1 L 30.8 4.8 C 30.8 4.8 30.82 4.81 30.8 4.8 C 31 4.6 31.2 4.4 31.5 4.2 C 31.8 4.1 32.1 4 32.4 4 C 32.9 4 33.2 4.1 33.5 4.3 C 33.7 4.6 33.8 4.9 33.8 5.2 C 33.8 5.3 33.8 5.4 33.8 5.5 C 33.8 5.6 33.8 5.7 33.7 5.8 C 33.74 5.8 33.1 8.8 33.1 8.8 L 32.1 8.8 C 32.1 8.8 32.69 5.9 32.7 5.9 C 32.7 5.8 32.7 5.8 32.7 5.7 C 32.8 5.6 32.8 5.5 32.8 5.5 C 32.8 5.4 32.8 5.4 32.8 5.3 C 32.8 5.2 32.7 5.2 32.7 5.1 C 32.6 5 32.6 4.9 32.5 4.9 C 32.4 4.8 32.2 4.8 32 4.8 C 31.8 4.8 31.7 4.8 31.5 4.9 C 31.3 5 31.2 5.1 31.1 5.3 C 31 5.4 30.9 5.5 30.8 5.7 C 30.7 5.9 30.6 6.1 30.6 6.3 C 30.57 6.25 30.1 8.8 30.1 8.8 L 29 8.8 L 30 4.1 Z M 35.6 2.3 L 36.6 2.3 L 36.4 3.3 L 35.4 3.3 L 35.6 2.3 Z M 35.2 4.1 L 36.3 4.1 L 35.3 8.8 L 34.3 8.8 L 35.2 4.1 Z M 40.6 2.3 L 41.7 2.3 L 40.6 7.8 L 43.8 7.8 L 43.6 8.8 L 39.3 8.8 L 40.6 2.3 Z M 44.6 4.1 L 45.7 4.1 L 46.2 7.5 L 46.2 7.5 L 47.9 4.1 L 49 4.1 C 49 4.1 46.37 8.92 46.4 8.9 C 46.2 9.1 46.1 9.4 46 9.6 C 45.9 9.8 45.8 9.9 45.6 10.1 C 45.5 10.3 45.3 10.4 45.1 10.5 C 44.9 10.6 44.7 10.6 44.4 10.6 C 44.2 10.6 44 10.6 43.8 10.5 C 43.8 10.5 43.9 9.7 43.9 9.7 C 44 9.7 44.1 9.7 44.1 9.7 C 44.2 9.8 44.3 9.8 44.3 9.8 C 44.5 9.8 44.6 9.7 44.7 9.7 C 44.9 9.6 44.9 9.5 45 9.4 C 45.01 9.37 45.4 8.6 45.4 8.6 L 44.6 4.1 Z M 49.8 4.1 L 50.7 4.1 L 50.6 4.8 C 50.6 4.8 50.62 4.81 50.6 4.8 C 50.8 4.6 51 4.4 51.3 4.2 C 51.6 4.1 51.9 4 52.2 4 C 52.7 4 53 4.1 53.2 4.3 C 53.5 4.6 53.6 4.9 53.6 5.2 C 53.6 5.3 53.6 5.4 53.6 5.5 C 53.6 5.6 53.5 5.7 53.5 5.8 C 53.53 5.8 52.9 8.8 52.9 8.8 L 51.9 8.8 C 51.9 8.8 52.48 5.9 52.5 5.9 C 52.5 5.8 52.5 5.8 52.5 5.7 C 52.5 5.6 52.6 5.5 52.6 5.5 C 52.6 5.4 52.5 5.4 52.5 5.3 C 52.5 5.2 52.5 5.2 52.5 5.1 C 52.4 5 52.4 4.9 52.3 4.9 C 52.2 4.8 52 4.8 51.8 4.8 C 51.6 4.8 51.5 4.8 51.3 4.9 C 51.1 5 51 5.1 50.9 5.3 C 50.7 5.4 50.6 5.5 50.6 5.7 C 50.5 5.9 50.4 6.1 50.4 6.3 C 50.36 6.25 49.8 8.8 49.8 8.8 L 48.8 8.8 L 49.8 4.1 Z M 58.4 8.8 L 57.4 8.8 L 57.6 8.1 C 57.6 8.1 57.54 8.13 57.5 8.1 C 57.3 8.4 57.1 8.6 56.9 8.7 C 56.6 8.8 56.4 8.9 56.1 8.9 C 55.9 8.9 55.8 8.9 55.6 8.8 C 55.4 8.8 55.2 8.7 55 8.6 C 54.8 8.5 54.6 8.3 54.5 8 C 54.3 7.8 54.3 7.4 54.3 7 C 54.3 6.6 54.3 6.2 54.4 5.9 C 54.6 5.5 54.7 5.2 54.9 4.9 C 55.2 4.6 55.4 4.4 55.7 4.3 C 56 4.1 56.4 4 56.8 4 C 57.1 4 57.4 4.1 57.6 4.2 C 57.9 4.3 58.1 4.5 58.2 4.8 C 58.2 4.76 58.2 4.8 58.2 4.8 L 58.7 2.3 L 59.8 2.3 L 58.4 8.8 Z M 58 5.9 C 58 5.8 57.9 5.6 57.9 5.5 C 57.9 5.4 57.8 5.2 57.7 5.1 C 57.6 5 57.5 5 57.4 4.9 C 57.3 4.8 57.1 4.8 56.9 4.8 C 56.6 4.8 56.4 4.9 56.2 5 C 56 5.1 55.8 5.3 55.7 5.5 C 55.6 5.7 55.5 6 55.4 6.2 C 55.3 6.5 55.3 6.7 55.3 7 C 55.3 7.3 55.4 7.6 55.6 7.8 C 55.7 8 56 8.1 56.4 8.1 C 56.6 8.1 56.9 8 57.1 7.9 C 57.2 7.7 57.4 7.6 57.5 7.4 C 57.7 7.1 57.8 6.9 57.9 6.7 C 57.9 6.4 58 6.2 58 5.9 Z M 62.5 4.8 C 62.2 4.8 62 4.9 61.8 5 C 61.6 5.1 61.4 5.3 61.3 5.5 C 61.2 5.7 61.1 5.9 61 6.2 C 60.9 6.4 60.9 6.7 60.9 6.9 C 60.9 7.2 61 7.5 61.2 7.7 C 61.3 8 61.6 8.1 62 8.1 C 62.2 8.1 62.5 8 62.7 7.9 C 62.9 7.8 63 7.6 63.2 7.4 C 63.3 7.2 63.4 7 63.4 6.7 C 63.5 6.5 63.5 6.2 63.5 6 C 63.5 5.7 63.5 5.4 63.3 5.1 C 63.1 4.9 62.8 4.8 62.5 4.8 Z M 61.9 8.9 C 61.3 8.9 60.8 8.7 60.4 8.4 C 60.1 8 59.9 7.5 59.9 6.9 C 59.9 6.5 59.9 6.1 60.1 5.8 C 60.2 5.4 60.4 5.1 60.6 4.9 C 60.8 4.6 61.1 4.4 61.4 4.2 C 61.8 4.1 62.1 4 62.5 4 C 63.2 4 63.7 4.2 64 4.5 C 64.4 4.8 64.6 5.3 64.6 6 C 64.6 6.4 64.5 6.8 64.4 7.1 C 64.3 7.5 64.1 7.8 63.9 8.1 C 63.6 8.3 63.3 8.5 63 8.7 C 62.7 8.8 62.3 8.9 61.9 8.9 Z M 66.1 4.1 L 67 4.1 L 66.9 4.8 C 66.9 4.8 66.89 4.81 66.9 4.8 C 67.1 4.6 67.3 4.4 67.6 4.2 C 67.9 4.1 68.2 4 68.5 4 C 69 4 69.3 4.1 69.5 4.3 C 69.7 4.6 69.8 4.9 69.8 5.2 C 69.8 5.3 69.8 5.4 69.8 5.5 C 69.8 5.6 69.8 5.7 69.8 5.8 C 69.8 5.8 69.2 8.8 69.2 8.8 L 68.2 8.8 C 68.2 8.8 68.75 5.9 68.8 5.9 C 68.8 5.8 68.8 5.8 68.8 5.7 C 68.8 5.6 68.8 5.5 68.8 5.5 C 68.8 5.4 68.8 5.4 68.8 5.3 C 68.8 5.2 68.8 5.2 68.8 5.1 C 68.7 5 68.6 4.9 68.5 4.9 C 68.4 4.8 68.3 4.8 68.1 4.8 C 67.9 4.8 67.7 4.8 67.6 4.9 C 67.4 5 67.3 5.1 67.1 5.3 C 67 5.4 66.9 5.5 66.8 5.7 C 66.7 5.9 66.7 6.1 66.6 6.3 C 66.64 6.25 66.1 8.8 66.1 8.8 L 65.1 8.8 L 66.1 4.1 Z M 74.4 2.3 L 76 2.3 L 76.7 7.2 L 76.7 7.2 L 79.5 2.3 L 81.1 2.3 L 79.7 8.8 L 78.7 8.8 L 79.8 3.6 L 79.8 3.6 L 76.9 8.8 L 76 8.8 L 75.2 3.6 L 75.1 3.6 L 74.2 8.8 L 73.1 8.8 L 74.4 2.3 Z M 84.8 6 C 84.8 6 84.8 6 84.8 6 C 84.8 5.9 84.8 5.9 84.8 5.9 C 84.8 5.9 84.8 5.8 84.8 5.8 C 84.8 5.5 84.7 5.2 84.5 5.1 C 84.3 4.9 84.1 4.8 83.8 4.8 C 83.4 4.8 83.1 4.9 82.9 5.2 C 82.6 5.4 82.5 5.7 82.4 6 C 82.4 6 84.8 6 84.8 6 Z M 85.5 7.3 C 85.3 7.9 85.1 8.3 84.7 8.5 C 84.3 8.8 83.8 8.9 83.3 8.9 C 83 8.9 82.7 8.9 82.4 8.8 C 82.2 8.7 82 8.5 81.8 8.4 C 81.6 8.2 81.5 8 81.4 7.7 C 81.3 7.5 81.2 7.2 81.2 6.9 C 81.2 6.5 81.3 6.2 81.4 5.8 C 81.5 5.5 81.7 5.2 81.9 4.9 C 82.1 4.6 82.4 4.4 82.7 4.2 C 83 4.1 83.4 4 83.8 4 C 84.2 4 84.6 4.1 84.8 4.2 C 85.1 4.3 85.3 4.5 85.4 4.7 C 85.6 4.9 85.7 5.2 85.7 5.4 C 85.8 5.7 85.8 5.9 85.8 6.1 C 85.8 6.3 85.8 6.4 85.8 6.5 C 85.8 6.5 85.7 6.6 85.7 6.7 C 85.7 6.7 82.3 6.7 82.3 6.7 C 82.3 6.7 82.3 6.8 82.3 6.8 C 82.3 6.8 82.3 6.8 82.3 6.9 C 82.3 6.9 82.3 7 82.3 7 C 82.3 7.3 82.3 7.6 82.5 7.8 C 82.7 8 83 8.1 83.4 8.1 C 83.6 8.1 83.9 8 84.1 7.9 C 84.3 7.8 84.4 7.6 84.5 7.3 C 84.5 7.3 85.5 7.3 85.5 7.3 Z M 87.1 4.1 L 88 4.1 L 87.9 4.8 C 87.9 4.8 87.92 4.81 87.9 4.8 C 88.1 4.6 88.3 4.4 88.6 4.2 C 88.9 4.1 89.2 4 89.5 4 C 90 4 90.3 4.1 90.6 4.3 C 90.8 4.6 90.9 4.9 90.9 5.2 C 90.9 5.3 90.9 5.4 90.9 5.5 C 90.9 5.6 90.9 5.7 90.8 5.8 C 90.84 5.8 90.2 8.8 90.2 8.8 L 89.2 8.8 C 89.2 8.8 89.78 5.9 89.8 5.9 C 89.8 5.8 89.8 5.8 89.8 5.7 C 89.8 5.6 89.9 5.5 89.9 5.5 C 89.9 5.4 89.9 5.4 89.9 5.3 C 89.8 5.2 89.8 5.2 89.8 5.1 C 89.7 5 89.7 4.9 89.6 4.9 C 89.5 4.8 89.3 4.8 89.1 4.8 C 88.9 4.8 88.8 4.8 88.6 4.9 C 88.4 5 88.3 5.1 88.2 5.3 C 88.1 5.4 87.9 5.5 87.9 5.7 C 87.8 5.9 87.7 6.1 87.7 6.3 C 87.67 6.25 87.1 8.8 87.1 8.8 L 86.1 8.8 L 87.1 4.1 Z M 92.7 6.8 C 92.7 7 92.7 7.1 92.7 7.3 C 92.8 7.4 92.8 7.5 92.9 7.6 C 93 7.7 93.1 7.8 93.2 7.9 C 93.3 7.9 93.5 8 93.7 8 C 93.9 8 94.2 7.9 94.4 7.8 C 94.6 7.6 94.7 7.5 94.8 7.3 C 95 7.1 95.1 6.9 95.1 6.6 C 95.2 6.4 95.2 6.1 95.2 5.9 C 95.2 5.6 95.1 5.3 94.9 5.1 C 94.8 4.9 94.5 4.8 94.2 4.8 C 93.9 4.8 93.7 4.9 93.5 5 C 93.3 5.1 93.2 5.3 93 5.5 C 92.9 5.7 92.8 5.9 92.8 6.1 C 92.7 6.4 92.7 6.6 92.7 6.8 Z M 95.6 8.6 C 95.6 9 95.5 9.3 95.3 9.6 C 95.2 9.8 95.1 10 94.9 10.2 C 94.7 10.3 94.5 10.4 94.2 10.5 C 94 10.6 93.7 10.6 93.3 10.6 C 93 10.6 92.8 10.6 92.5 10.5 C 92.3 10.5 92.1 10.4 91.9 10.3 C 91.7 10.2 91.6 10 91.5 9.8 C 91.4 9.6 91.3 9.4 91.3 9.1 C 91.3 9.1 92.3 9.1 92.3 9.1 C 92.3 9.4 92.4 9.6 92.6 9.7 C 92.8 9.8 93.1 9.9 93.4 9.9 C 93.6 9.9 93.8 9.8 94 9.8 C 94.1 9.7 94.2 9.6 94.3 9.5 C 94.4 9.4 94.5 9.2 94.6 9.1 C 94.6 8.9 94.7 8.7 94.7 8.5 C 94.7 8.55 94.8 8.1 94.8 8.1 C 94.8 8.1 94.78 8.07 94.8 8.1 C 94.5 8.5 94 8.8 93.5 8.8 C 92.9 8.8 92.4 8.6 92.1 8.3 C 91.8 7.9 91.7 7.5 91.7 6.9 C 91.7 6.5 91.7 6.2 91.8 5.8 C 91.9 5.5 92.1 5.2 92.3 4.9 C 92.5 4.6 92.7 4.4 93 4.2 C 93.3 4.1 93.7 4 94.1 4 C 94.4 4 94.7 4.1 94.9 4.2 C 95.2 4.3 95.4 4.6 95.5 4.9 C 95.5 4.9 95.5 4.9 95.5 4.9 L 95.7 4.1 L 96.6 4.1 C 96.6 4.1 95.64 8.65 95.6 8.6 Z M 99.6 4.8 C 99.3 4.8 99.1 4.9 98.9 5 C 98.7 5.1 98.6 5.3 98.4 5.5 C 98.3 5.7 98.2 5.9 98.1 6.2 C 98.1 6.4 98 6.7 98 6.9 C 98 7.2 98.1 7.5 98.3 7.7 C 98.5 8 98.7 8.1 99.1 8.1 C 99.4 8.1 99.6 8 99.8 7.9 C 100 7.8 100.2 7.6 100.3 7.4 C 100.4 7.2 100.5 7 100.6 6.7 C 100.7 6.5 100.7 6.2 100.7 6 C 100.7 5.7 100.6 5.4 100.4 5.1 C 100.3 4.9 100 4.8 99.6 4.8 Z M 99.1 8.9 C 98.4 8.9 97.9 8.7 97.5 8.4 C 97.2 8 97 7.5 97 6.9 C 97 6.5 97.1 6.1 97.2 5.8 C 97.3 5.4 97.5 5.1 97.7 4.9 C 98 4.6 98.3 4.4 98.6 4.2 C 98.9 4.1 99.3 4 99.7 4 C 100.3 4 100.8 4.2 101.2 4.5 C 101.5 4.8 101.7 5.3 101.7 6 C 101.7 6.4 101.6 6.8 101.5 7.1 C 101.4 7.5 101.2 7.8 101 8.1 C 100.8 8.3 100.5 8.5 100.2 8.7 C 99.8 8.8 99.5 8.9 99.1 8.9 Z M 103.8 2.7 L 104.8 2.7 L 104.5 4.1 L 105.4 4.1 L 105.2 4.9 L 104.3 4.9 C 104.3 4.9 103.84 7.16 103.8 7.2 C 103.8 7.3 103.8 7.4 103.8 7.5 C 103.8 7.5 103.8 7.6 103.8 7.7 C 103.8 7.8 103.8 7.9 103.8 7.9 C 103.9 8 104 8 104.1 8 C 104.2 8 104.3 8 104.4 8 C 104.5 8 104.6 8 104.7 8 C 104.7 8 104.5 8.7 104.5 8.7 C 104.4 8.8 104.2 8.8 104.1 8.8 C 103.9 8.8 103.8 8.8 103.7 8.8 C 103.5 8.8 103.3 8.8 103.2 8.7 C 103.1 8.7 103 8.6 102.9 8.6 C 102.8 8.5 102.8 8.4 102.8 8.3 C 102.7 8.2 102.7 8.1 102.7 8 C 102.7 7.9 102.7 7.8 102.7 7.7 C 102.8 7.6 102.8 7.5 102.8 7.4 C 102.79 7.43 103.3 4.9 103.3 4.9 L 102.5 4.9 L 102.7 4.1 L 103.5 4.1 L 103.8 2.7 Z M 109 6 C 109 6 109.1 6 109.1 6 C 109.1 5.9 109.1 5.9 109.1 5.9 C 109.1 5.9 109.1 5.8 109.1 5.8 C 109.1 5.5 109 5.2 108.8 5.1 C 108.6 4.9 108.4 4.8 108.1 4.8 C 107.7 4.8 107.4 4.9 107.2 5.2 C 106.9 5.4 106.8 5.7 106.7 6 C 106.7 6 109 6 109 6 Z M 109.8 7.3 C 109.6 7.9 109.4 8.3 109 8.5 C 108.6 8.8 108.1 8.9 107.5 8.9 C 107.3 8.9 107 8.9 106.7 8.8 C 106.5 8.7 106.3 8.5 106.1 8.4 C 105.9 8.2 105.8 8 105.7 7.7 C 105.6 7.5 105.5 7.2 105.5 6.9 C 105.5 6.5 105.6 6.2 105.7 5.8 C 105.8 5.5 106 5.2 106.2 4.9 C 106.4 4.6 106.7 4.4 107 4.2 C 107.3 4.1 107.7 4 108.1 4 C 108.5 4 108.8 4.1 109.1 4.2 C 109.4 4.3 109.6 4.5 109.7 4.7 C 109.9 4.9 110 5.2 110 5.4 C 110.1 5.7 110.1 5.9 110.1 6.1 C 110.1 6.3 110.1 6.4 110.1 6.5 C 110 6.5 110 6.6 110 6.7 C 110 6.7 106.6 6.7 106.6 6.7 C 106.6 6.7 106.5 6.8 106.5 6.8 C 106.5 6.8 106.5 6.8 106.5 6.9 C 106.5 6.9 106.5 7 106.5 7 C 106.5 7.3 106.6 7.6 106.8 7.8 C 107 8 107.3 8.1 107.6 8.1 C 107.9 8.1 108.2 8 108.4 7.9 C 108.6 7.8 108.7 7.6 108.8 7.3 C 108.8 7.3 109.8 7.3 109.8 7.3 Z " stroke="none" fill="#fff"/>
  </g>
</svg>