<?xml version="1.0" standalone="no"?>
<!DOCTYPE svg PUBLIC "-//W3C//DTD SVG 1.1//EN" "http://www.w3.org/Graphics/SVG/1.1/DTD/svg11.dtd">
<svg xmlns="http://www.w3.org/2000/svg" version="1.1" width="792px" height="91.6px" viewBox="0 -17 792 91.6" style="top:-17px">
  <desc>Naudlot na edukasyon sa gitna ng pandemya, kumusta kaya silang mga nag-LOA</desc>
  <defs/>
  <g id="Polygon27096">
    <path d="M 109.7 32.6 L 115.6 32.3 L 115.6 49.3 C 115.6 49.3 120.67 44.91 120.7 44.9 C 121.2 44.5 121.4 44.1 121.4 43.8 C 121.4 43.5 121.3 43.3 121 43.1 C 120.5 42.9 119.8 42.8 118.9 42.8 C 118.87 42.77 118.9 41.6 118.9 41.6 L 127.2 41.6 C 127.2 41.6 127.15 42.77 127.2 42.8 C 125.5 42.9 124.3 43.3 123.4 44.1 C 123.4 44.07 119.8 47.2 119.8 47.2 C 119.8 47.2 125.63 55.21 125.6 55.2 C 126 55.7 126.6 55.9 127.5 55.9 C 127.47 55.92 128.3 55.9 128.3 55.9 L 128.3 57.2 L 119.8 57.2 L 119.8 55.9 C 119.8 55.9 120.68 55.92 120.7 55.9 C 121.3 55.9 121.7 55.9 121.9 55.8 C 122.2 55.6 122.3 55.5 122.3 55.4 C 122.3 55.2 122.2 55 122.1 54.9 C 122.11 54.89 117.9 49 117.9 49 L 115.6 51 C 115.6 51 115.62 54.89 115.6 54.9 C 115.6 55.2 115.7 55.5 115.9 55.6 C 116.2 55.8 116.6 55.9 117.2 55.9 C 117.18 55.92 118.3 55.9 118.3 55.9 L 118.3 57.2 L 109.9 57.2 L 109.9 55.9 C 109.9 55.9 111.25 55.92 111.3 55.9 C 111.8 55.9 112.2 55.8 112.5 55.6 C 112.7 55.3 112.9 55 112.9 54.6 C 112.9 54.6 112.9 35.5 112.9 35.5 C 112.9 35 112.7 34.6 112.4 34.4 C 111.9 34 111.3 33.9 110.5 33.9 C 110.52 33.86 109.7 33.9 109.7 33.9 L 109.7 32.6 Z M 135.4 41.3 C 135.4 41.3 135.42 51.64 135.4 51.6 C 135.4 52.9 135.7 53.9 136.4 54.6 C 137 55.2 137.8 55.6 138.8 55.6 C 140.1 55.6 141.1 55.1 142 54.1 C 142.9 53.1 143.3 51.8 143.3 50.3 C 143.3 50.3 143.3 44.5 143.3 44.5 C 143.3 44 143.1 43.6 142.7 43.3 C 142.3 43 141.6 42.8 140.5 42.8 C 140.52 42.77 140.5 41.6 140.5 41.6 L 146 41.3 C 146 41.3 145.98 54.1 146 54.1 C 146 54.7 146.1 55.1 146.5 55.4 C 146.8 55.8 147.3 55.9 147.9 55.9 C 147.87 55.92 148.9 55.9 148.9 55.9 L 148.9 57 L 143.6 57.2 C 143.6 57.2 143.29 54.1 143.3 54.1 C 142.4 55.2 141.4 56 140.5 56.6 C 139.6 57.1 138.6 57.4 137.6 57.4 C 136.2 57.4 135.1 56.9 134.1 56 C 133.1 55.1 132.7 53.5 132.7 51.3 C 132.7 51.3 132.7 44.5 132.7 44.5 C 132.7 43.9 132.4 43.4 132 43.1 C 131.6 42.9 130.9 42.8 129.9 42.8 C 129.91 42.77 129.9 41.6 129.9 41.6 L 135.4 41.3 Z M 151.8 41.6 C 151.8 41.6 156.27 41.33 156.3 41.3 C 156.5 42.5 156.7 43.6 156.8 44.6 C 157.6 43.4 158.4 42.6 159.3 42.1 C 160.1 41.6 161.1 41.3 162.1 41.3 C 163.1 41.3 164 41.6 164.7 42.2 C 165.4 42.7 166 43.7 166.3 44.9 C 167.1 43.7 167.9 42.8 168.8 42.2 C 169.7 41.6 170.7 41.3 171.8 41.3 C 173.2 41.3 174.2 41.8 175 42.6 C 175.9 43.7 176.3 45.1 176.3 46.9 C 176.3 46.9 176.3 54.6 176.3 54.6 C 176.3 55.1 176.4 55.4 176.7 55.5 C 177 55.8 177.4 55.9 178 55.9 C 178.04 55.92 178.8 55.9 178.8 55.9 L 178.8 57.2 L 171 57.2 L 171 55.9 C 171 55.9 171.78 55.92 171.8 55.9 C 172.4 55.9 172.9 55.8 173.2 55.6 C 173.4 55.4 173.6 55 173.6 54.6 C 173.6 54.6 173.6 46.9 173.6 46.9 C 173.6 45.7 173.3 44.8 172.7 44.2 C 172.2 43.6 171.4 43.2 170.5 43.2 C 169.8 43.2 169.2 43.4 168.6 43.8 C 168.1 44.2 167.6 44.7 167.3 45.4 C 166.8 46.4 166.6 47.2 166.6 47.9 C 166.6 47.9 166.6 54.6 166.6 54.6 C 166.6 55 166.7 55.4 166.9 55.6 C 167.2 55.8 167.6 55.9 168.1 55.9 C 168.08 55.92 169.1 55.9 169.1 55.9 L 169.1 57.2 L 161.2 57.2 L 161.2 55.9 C 161.2 55.9 162.1 55.92 162.1 55.9 C 162.7 55.9 163.1 55.8 163.4 55.6 C 163.6 55.4 163.8 55.1 163.8 54.7 C 163.8 54.7 163.8 47.6 163.8 47.6 C 163.8 46.1 163.5 45 163 44.3 C 162.4 43.6 161.7 43.2 160.8 43.2 C 159.6 43.2 158.7 43.6 158.1 44.4 C 157.2 45.6 156.8 46.9 156.8 48.4 C 156.8 48.4 156.8 54.6 156.8 54.6 C 156.8 55.1 156.9 55.4 157.1 55.6 C 157.4 55.8 157.8 55.9 158.5 55.9 C 158.46 55.92 159.3 55.9 159.3 55.9 L 159.3 57.2 L 151.4 57.2 L 151.4 55.9 C 151.4 55.9 152.6 55.92 152.6 55.9 C 153 55.9 153.4 55.8 153.6 55.6 C 153.9 55.4 154 55.1 154 54.7 C 154 54.7 154 44.6 154 44.6 C 154 44 153.8 43.6 153.6 43.3 C 153.3 43 152.7 42.8 151.8 42.8 C 151.82 42.76 151.8 41.6 151.8 41.6 Z M 186.4 41.3 C 186.4 41.3 186.42 51.64 186.4 51.6 C 186.4 52.9 186.7 53.9 187.4 54.6 C 188 55.2 188.8 55.6 189.8 55.6 C 191.1 55.6 192.1 55.1 193 54.1 C 193.9 53.1 194.3 51.8 194.3 50.3 C 194.3 50.3 194.3 44.5 194.3 44.5 C 194.3 44 194.1 43.6 193.7 43.3 C 193.3 43 192.6 42.8 191.5 42.8 C 191.52 42.77 191.5 41.6 191.5 41.6 L 197 41.3 C 197 41.3 196.98 54.1 197 54.1 C 197 54.7 197.1 55.1 197.5 55.4 C 197.8 55.8 198.3 55.9 198.9 55.9 C 198.87 55.92 199.9 55.9 199.9 55.9 L 199.9 57 L 194.6 57.2 C 194.6 57.2 194.29 54.1 194.3 54.1 C 193.4 55.2 192.4 56 191.5 56.6 C 190.6 57.1 189.6 57.4 188.6 57.4 C 187.2 57.4 186.1 56.9 185.1 56 C 184.1 55.1 183.7 53.5 183.7 51.3 C 183.7 51.3 183.7 44.5 183.7 44.5 C 183.7 43.9 183.4 43.4 183 43.1 C 182.6 42.9 181.9 42.8 180.9 42.8 C 180.91 42.77 180.9 41.6 180.9 41.6 L 186.4 41.3 Z M 203.7 51.3 C 204.4 53.2 205.2 54.5 206.1 55.3 C 207 56 208.1 56.4 209.4 56.4 C 210.6 56.4 211.5 56.1 212.2 55.6 C 212.8 55.1 213.2 54.4 213.2 53.6 C 213.2 53.1 213 52.7 212.8 52.4 C 212.6 52 212.2 51.8 211.8 51.6 C 211.4 51.4 210.3 51.2 208.5 50.8 C 206.8 50.5 205.7 50.2 205 49.8 C 204.3 49.4 203.8 48.9 203.4 48.3 C 203.1 47.6 202.9 46.9 202.9 46.2 C 202.9 45.1 203.3 44 204 43.1 C 205 41.9 206.4 41.3 208.2 41.3 C 209.5 41.3 210.8 41.7 211.9 42.6 C 211.94 42.59 213 41.4 213 41.4 L 213.7 41.4 L 214.1 47 C 214.1 47 213.03 46.97 213 47 C 212.5 45.4 211.9 44.3 211.1 43.6 C 210.2 42.9 209.2 42.5 208 42.5 C 206.9 42.5 206.1 42.8 205.5 43.3 C 204.9 43.8 204.6 44.5 204.6 45.2 C 204.6 45.9 204.9 46.4 205.4 46.8 C 206 47.3 207 47.6 208.6 47.9 C 210.5 48.2 211.7 48.4 212.2 48.7 C 213.1 49 213.8 49.5 214.3 50.2 C 214.8 50.9 215.1 51.7 215.1 52.7 C 215.1 54.1 214.5 55.3 213.5 56.2 C 212.4 57.2 211 57.6 209.3 57.6 C 207.8 57.6 206.4 57.1 205.1 56.1 C 205.05 56.11 203.8 57.5 203.8 57.5 L 203 57.5 L 202.6 51.3 C 202.6 51.3 203.74 51.31 203.7 51.3 Z M 220.2 40.4 C 221.1 39.2 221.6 37.5 221.7 35.3 C 221.7 35.27 222.8 35.3 222.8 35.3 L 222.8 41.6 L 227.8 41.6 L 227.8 43.1 L 222.8 43.1 C 222.8 43.1 222.81 53.12 222.8 53.1 C 222.8 54 223 54.6 223.4 55.1 C 223.8 55.6 224.4 55.8 225 55.8 C 225.7 55.8 226.4 55.4 226.9 54.7 C 227.4 54 227.8 52.9 227.8 51.3 C 227.8 51.3 229 51.3 229 51.3 C 228.9 53.4 228.4 54.9 227.5 55.9 C 226.7 56.9 225.5 57.4 224.1 57.4 C 222.9 57.4 221.9 57 221.1 56.3 C 220.4 55.6 220 54.7 220 53.6 C 220.04 53.58 220 43.1 220 43.1 L 217.3 43.1 C 217.3 43.1 217.33 41.98 217.3 42 C 218.6 41.8 219.5 41.3 220.2 40.4 C 220.2 40.4 220.2 40.4 220.2 40.4 Z M 245.9 56 C 246.3 56 246.8 55.8 247.3 55.5 C 247.3 55.5 247.9 56.4 247.9 56.4 C 247.1 57.2 246.2 57.6 245.2 57.6 C 244.4 57.6 243.8 57.4 243.3 57 C 242.8 56.6 242.3 55.9 241.9 54.9 C 240.9 56 239.9 56.7 239.1 57.1 C 238.4 57.4 237.4 57.6 236.3 57.6 C 234.7 57.6 233.5 57.3 232.6 56.6 C 231.8 55.9 231.4 55 231.4 54 C 231.4 52.3 232.3 51 234.2 49.9 C 236.1 48.9 238.7 48.2 241.8 47.8 C 241.8 47.8 241.8 45.4 241.8 45.4 C 241.8 44.6 241.5 43.9 240.8 43.3 C 240.1 42.7 239.3 42.4 238.2 42.4 C 237.3 42.4 236.4 42.6 235.7 43 C 235.2 43.3 235 43.6 235 43.9 C 235 44 235.1 44.3 235.4 44.7 C 235.7 45.1 235.9 45.5 235.9 45.8 C 235.9 46.3 235.7 46.7 235.4 47 C 235.1 47.4 234.7 47.5 234.1 47.5 C 233.6 47.5 233.1 47.3 232.7 47 C 232.4 46.6 232.2 46.1 232.2 45.5 C 232.2 44.4 232.8 43.4 234 42.5 C 235.3 41.6 236.9 41.1 238.9 41.1 C 240.7 41.1 242.2 41.5 243.1 42.3 C 244.1 43.2 244.6 44.1 244.6 45.3 C 244.6 45.3 244.6 53.8 244.6 53.8 C 244.6 54.5 244.7 55.1 245 55.4 C 245.2 55.8 245.5 56 245.9 56 C 245.9 56 245.9 56 245.9 56 Z M 241.8 48.9 C 239 49.3 237 49.9 235.8 50.8 C 235 51.5 234.5 52.4 234.5 53.6 C 234.5 54.5 234.8 55.1 235.2 55.6 C 235.7 56.1 236.3 56.3 237 56.3 C 238.3 56.3 239.4 55.8 240.4 54.9 C 241.3 53.9 241.8 52.6 241.8 51.1 C 241.8 51.1 241.8 48.9 241.8 48.9 Z M 258.9 32.6 L 264.9 32.3 L 264.9 49.3 C 264.9 49.3 269.92 44.91 269.9 44.9 C 270.4 44.5 270.7 44.1 270.7 43.8 C 270.7 43.5 270.5 43.3 270.2 43.1 C 269.8 42.9 269.1 42.8 268.1 42.8 C 268.12 42.77 268.1 41.6 268.1 41.6 L 276.4 41.6 C 276.4 41.6 276.4 42.77 276.4 42.8 C 274.8 42.9 273.5 43.3 272.7 44.1 C 272.65 44.07 269.1 47.2 269.1 47.2 C 269.1 47.2 274.88 55.21 274.9 55.2 C 275.2 55.7 275.8 55.9 276.7 55.9 C 276.72 55.92 277.6 55.9 277.6 55.9 L 277.6 57.2 L 269.1 57.2 L 269.1 55.9 C 269.1 55.9 269.93 55.92 269.9 55.9 C 270.6 55.9 271 55.9 271.2 55.8 C 271.4 55.6 271.5 55.5 271.5 55.4 C 271.5 55.2 271.5 55 271.4 54.9 C 271.35 54.89 267.1 49 267.1 49 L 264.9 51 C 264.9 51 264.86 54.89 264.9 54.9 C 264.9 55.2 265 55.5 265.2 55.6 C 265.5 55.8 265.9 55.9 266.4 55.9 C 266.42 55.92 267.5 55.9 267.5 55.9 L 267.5 57.2 L 259.2 57.2 L 259.2 55.9 C 259.2 55.9 260.5 55.92 260.5 55.9 C 261.1 55.9 261.5 55.8 261.7 55.6 C 262 55.3 262.1 55 262.1 54.6 C 262.1 54.6 262.1 35.5 262.1 35.5 C 262.1 35 262 34.6 261.6 34.4 C 261.2 34 260.6 33.9 259.8 33.9 C 259.77 33.86 258.9 33.9 258.9 33.9 L 258.9 32.6 Z M 294.4 56 C 294.8 56 295.3 55.8 295.8 55.5 C 295.8 55.5 296.4 56.4 296.4 56.4 C 295.6 57.2 294.7 57.6 293.7 57.6 C 292.9 57.6 292.3 57.4 291.8 57 C 291.3 56.6 290.8 55.9 290.4 54.9 C 289.4 56 288.5 56.7 287.7 57.1 C 286.9 57.4 285.9 57.6 284.8 57.6 C 283.2 57.6 282 57.3 281.2 56.6 C 280.3 55.9 279.9 55 279.9 54 C 279.9 52.3 280.9 51 282.8 49.9 C 284.7 48.9 287.2 48.2 290.3 47.8 C 290.3 47.8 290.3 45.4 290.3 45.4 C 290.3 44.6 290 43.9 289.3 43.3 C 288.6 42.7 287.8 42.4 286.7 42.4 C 285.8 42.4 285 42.6 284.3 43 C 283.8 43.3 283.5 43.6 283.5 43.9 C 283.5 44 283.6 44.3 283.9 44.7 C 284.2 45.1 284.4 45.5 284.4 45.8 C 284.4 46.3 284.2 46.7 283.9 47 C 283.6 47.4 283.2 47.5 282.6 47.5 C 282.1 47.5 281.6 47.3 281.3 47 C 280.9 46.6 280.7 46.1 280.7 45.5 C 280.7 44.4 281.3 43.4 282.6 42.5 C 283.8 41.6 285.4 41.1 287.4 41.1 C 289.3 41.1 290.7 41.5 291.6 42.3 C 292.6 43.2 293.1 44.1 293.1 45.3 C 293.1 45.3 293.1 53.8 293.1 53.8 C 293.1 54.5 293.2 55.1 293.5 55.4 C 293.7 55.8 294 56 294.4 56 C 294.4 56 294.4 56 294.4 56 Z M 290.3 48.9 C 287.5 49.3 285.5 49.9 284.4 50.8 C 283.5 51.5 283 52.4 283 53.6 C 283 54.5 283.3 55.1 283.7 55.6 C 284.2 56.1 284.8 56.3 285.5 56.3 C 286.8 56.3 287.9 55.8 288.9 54.9 C 289.9 53.9 290.3 52.6 290.3 51.1 C 290.3 51.1 290.3 48.9 290.3 48.9 Z M 297.9 41.6 L 305.4 41.6 L 305.4 42.7 C 305.4 42.7 304.66 42.74 304.7 42.7 C 304 42.7 303.6 42.8 303.3 43 C 303.1 43.2 303 43.4 303 43.7 C 303 43.9 303 44 303.1 44.2 C 303.06 44.17 307.4 53.5 307.4 53.5 C 307.4 53.5 310.62 45.76 310.6 45.8 C 310.9 45.2 311 44.7 311 44.1 C 311 43.7 310.8 43.4 310.5 43.2 C 310.2 43 309.5 42.8 308.6 42.7 C 308.56 42.74 308.6 41.6 308.6 41.6 L 315 41.6 C 315 41.6 315.03 42.74 315 42.7 C 313.8 42.9 312.9 43.4 312.5 44.4 C 312.5 44.4 306.8 57.8 306.8 57.8 C 305.8 60.1 304.8 61.6 303.8 62.5 C 302.8 63.4 301.7 63.8 300.6 63.8 C 299.8 63.8 299.1 63.6 298.6 63.1 C 298.1 62.7 297.9 62.1 297.9 61.4 C 297.9 60.9 298 60.5 298.3 60.2 C 298.6 59.9 299 59.7 299.5 59.7 C 299.9 59.7 300.3 59.9 300.5 60.1 C 300.8 60.4 301 60.7 301 61.1 C 301 61.3 301 61.4 300.9 61.6 C 300.9 61.8 300.8 61.9 300.8 62 C 300.8 62.3 301 62.4 301.4 62.4 C 301.7 62.4 302.1 62.3 302.6 62 C 303.1 61.7 303.5 61.3 303.9 60.7 C 304.3 60.1 305 58.8 306 56.8 C 306 56.8 300.1 44.2 300.1 44.2 C 299.9 43.7 299.6 43.4 299.3 43.2 C 299 43 298.5 42.8 297.9 42.7 C 297.9 42.74 297.9 41.6 297.9 41.6 Z M 331.6 56 C 332 56 332.5 55.8 332.9 55.5 C 332.9 55.5 333.5 56.4 333.5 56.4 C 332.7 57.2 331.8 57.6 330.9 57.6 C 330.1 57.6 329.5 57.4 329 57 C 328.4 56.6 328 55.9 327.6 54.9 C 326.5 56 325.6 56.7 324.8 57.1 C 324 57.4 323.1 57.6 322 57.6 C 320.4 57.6 319.2 57.3 318.3 56.6 C 317.5 55.9 317.1 55 317.1 54 C 317.1 52.3 318 51 319.9 49.9 C 321.8 48.9 324.3 48.2 327.5 47.8 C 327.5 47.8 327.5 45.4 327.5 45.4 C 327.5 44.6 327.2 43.9 326.5 43.3 C 325.8 42.7 325 42.4 323.9 42.4 C 323 42.4 322.1 42.6 321.4 43 C 320.9 43.3 320.7 43.6 320.7 43.9 C 320.7 44 320.8 44.3 321.1 44.7 C 321.4 45.1 321.6 45.5 321.6 45.8 C 321.6 46.3 321.4 46.7 321.1 47 C 320.8 47.4 320.3 47.5 319.8 47.5 C 319.3 47.5 318.8 47.3 318.4 47 C 318.1 46.6 317.9 46.1 317.9 45.5 C 317.9 44.4 318.5 43.4 319.7 42.5 C 321 41.6 322.6 41.1 324.6 41.1 C 326.4 41.1 327.8 41.5 328.8 42.3 C 329.8 43.2 330.3 44.1 330.3 45.3 C 330.3 45.3 330.3 53.8 330.3 53.8 C 330.3 54.5 330.4 55.1 330.6 55.4 C 330.9 55.8 331.2 56 331.6 56 C 331.6 56 331.6 56 331.6 56 Z M 327.5 48.9 C 324.7 49.3 322.7 49.9 321.5 50.8 C 320.7 51.5 320.2 52.4 320.2 53.6 C 320.2 54.5 320.4 55.1 320.9 55.6 C 321.3 56.1 321.9 56.3 322.7 56.3 C 324 56.3 325.1 55.8 326.1 54.9 C 327 53.9 327.5 52.6 327.5 51.1 C 327.5 51.1 327.5 48.9 327.5 48.9 Z M 346.7 51.3 C 347.4 53.2 348.2 54.5 349.1 55.3 C 350 56 351.1 56.4 352.4 56.4 C 353.6 56.4 354.5 56.1 355.2 55.6 C 355.8 55.1 356.2 54.4 356.2 53.6 C 356.2 53.1 356 52.7 355.8 52.4 C 355.6 52 355.2 51.8 354.8 51.6 C 354.4 51.4 353.3 51.2 351.5 50.8 C 349.8 50.5 348.7 50.2 348 49.8 C 347.3 49.4 346.8 48.9 346.5 48.3 C 346.1 47.6 345.9 46.9 345.9 46.2 C 345.9 45.1 346.3 44 347 43.1 C 348 41.9 349.4 41.3 351.2 41.3 C 352.5 41.3 353.8 41.7 354.9 42.6 C 354.94 42.59 356 41.4 356 41.4 L 356.7 41.4 L 357.2 47 C 357.2 47 356.04 46.97 356 47 C 355.6 45.4 354.9 44.3 354.1 43.6 C 353.2 42.9 352.2 42.5 351 42.5 C 349.9 42.5 349.1 42.8 348.5 43.3 C 347.9 43.8 347.6 44.5 347.6 45.2 C 347.6 45.9 347.9 46.4 348.4 46.8 C 349 47.3 350 47.6 351.6 47.9 C 353.5 48.2 354.7 48.4 355.2 48.7 C 356.1 49 356.8 49.5 357.3 50.2 C 357.8 50.9 358.1 51.7 358.1 52.7 C 358.1 54.1 357.5 55.3 356.5 56.2 C 355.4 57.2 354 57.6 352.3 57.6 C 350.8 57.6 349.4 57.1 348.1 56.1 C 348.06 56.11 346.8 57.5 346.8 57.5 L 346 57.5 L 345.6 51.3 C 345.6 51.3 346.74 51.31 346.7 51.3 Z M 364.6 32.3 C 365.1 32.3 365.6 32.5 365.9 32.9 C 366.3 33.3 366.5 33.7 366.5 34.2 C 366.5 34.7 366.3 35.2 366 35.5 C 365.6 35.9 365.1 36.1 364.6 36.1 C 364.1 36.1 363.7 35.9 363.3 35.5 C 362.9 35.1 362.8 34.7 362.8 34.2 C 362.8 33.7 363 33.3 363.3 32.9 C 363.7 32.5 364.1 32.3 364.6 32.3 Z M 360.3 41.6 L 366.5 41.4 C 366.5 41.4 366.5 54.81 366.5 54.8 C 366.5 55.2 366.6 55.4 366.8 55.6 C 367 55.8 367.3 55.9 367.7 55.9 C 367.73 55.92 369.5 55.9 369.5 55.9 L 369.5 57.2 L 360.6 57.2 L 360.6 55.9 C 360.6 55.9 362.28 55.92 362.3 55.9 C 362.8 55.9 363.1 55.8 363.4 55.6 C 363.6 55.3 363.7 55 363.7 54.5 C 363.7 54.5 363.7 44.7 363.7 44.7 C 363.7 44.1 363.5 43.6 363.2 43.3 C 362.8 43 362.3 42.9 361.6 42.9 C 361.58 42.86 360.3 42.9 360.3 42.9 L 360.3 41.6 Z M 377.2 32.3 C 377.2 32.3 377.19 54.88 377.2 54.9 C 377.2 55.2 377.3 55.4 377.5 55.6 C 377.7 55.8 378.1 55.9 378.5 55.9 C 378.49 55.92 380.1 55.9 380.1 55.9 L 380.1 57.2 L 371.3 57.2 L 371.3 55.9 C 371.3 55.9 372.87 55.92 372.9 55.9 C 373.4 55.9 373.8 55.8 374 55.6 C 374.3 55.3 374.4 55 374.4 54.5 C 374.4 54.5 374.4 35.6 374.4 35.6 C 374.4 35 374.2 34.6 373.9 34.4 C 373.5 34 373 33.9 372.4 33.9 C 372.43 33.86 371 33.9 371 33.9 L 371 32.6 L 377.2 32.3 Z M 397.1 56 C 397.5 56 398 55.8 398.5 55.5 C 398.5 55.5 399.1 56.4 399.1 56.4 C 398.2 57.2 397.4 57.6 396.4 57.6 C 395.6 57.6 395 57.4 394.5 57 C 393.9 56.6 393.5 55.9 393.1 54.9 C 392.1 56 391.1 56.7 390.3 57.1 C 389.5 57.4 388.6 57.6 387.5 57.6 C 385.9 57.6 384.7 57.3 383.8 56.6 C 383 55.9 382.6 55 382.6 54 C 382.6 52.3 383.5 51 385.4 49.9 C 387.3 48.9 389.9 48.2 393 47.8 C 393 47.8 393 45.4 393 45.4 C 393 44.6 392.7 43.9 392 43.3 C 391.3 42.7 390.5 42.4 389.4 42.4 C 388.5 42.4 387.6 42.6 386.9 43 C 386.4 43.3 386.2 43.6 386.2 43.9 C 386.2 44 386.3 44.3 386.6 44.7 C 386.9 45.1 387.1 45.5 387.1 45.8 C 387.1 46.3 386.9 46.7 386.6 47 C 386.3 47.4 385.8 47.5 385.3 47.5 C 384.8 47.5 384.3 47.3 383.9 47 C 383.6 46.6 383.4 46.1 383.4 45.5 C 383.4 44.4 384 43.4 385.2 42.5 C 386.5 41.6 388.1 41.1 390.1 41.1 C 391.9 41.1 393.3 41.5 394.3 42.3 C 395.3 43.2 395.8 44.1 395.8 45.3 C 395.8 45.3 395.8 53.8 395.8 53.8 C 395.8 54.5 395.9 55.1 396.1 55.4 C 396.4 55.8 396.7 56 397.1 56 C 397.1 56 397.1 56 397.1 56 Z M 393 48.9 C 390.2 49.3 388.2 49.9 387 50.8 C 386.2 51.5 385.7 52.4 385.7 53.6 C 385.7 54.5 386 55.1 386.4 55.6 C 386.9 56.1 387.5 56.3 388.2 56.3 C 389.5 56.3 390.6 55.8 391.6 54.9 C 392.5 53.9 393 52.6 393 51.1 C 393 51.1 393 48.9 393 48.9 Z M 400.9 41.6 C 400.9 41.6 406.09 41.3 406.1 41.3 C 406.3 42.3 406.5 43.4 406.6 44.7 C 407.3 43.6 408.1 42.7 409 42.2 C 410 41.6 411 41.3 412.2 41.3 C 413.3 41.3 414.1 41.5 414.8 41.9 C 415.5 42.3 416.1 43 416.5 43.9 C 416.9 44.7 417.1 45.7 417.1 46.8 C 417.1 46.8 417.1 54.4 417.1 54.4 C 417.1 54.9 417.3 55.3 417.5 55.6 C 417.8 55.8 418.2 55.9 418.8 55.9 C 418.79 55.92 419.9 55.9 419.9 55.9 L 419.9 57.2 L 411.7 57.2 L 411.7 55.9 C 411.7 55.9 412.47 55.92 412.5 55.9 C 413.2 55.9 413.7 55.8 414 55.6 C 414.3 55.3 414.4 55 414.4 54.5 C 414.4 54.5 414.4 47.9 414.4 47.9 C 414.4 46.4 414.2 45.3 413.8 44.7 C 413.1 43.7 412.2 43.2 410.9 43.2 C 409.7 43.2 408.6 43.7 407.8 44.7 C 407 45.7 406.6 47 406.6 48.6 C 406.6 48.6 406.6 54.4 406.6 54.4 C 406.6 54.9 406.7 55.3 406.9 55.6 C 407.2 55.8 407.6 55.9 408.2 55.9 C 408.24 55.92 409.3 55.9 409.3 55.9 L 409.3 57.2 L 401.1 57.2 L 401.1 55.9 C 401.1 55.9 402.16 55.92 402.2 55.9 C 402.7 55.9 403.1 55.8 403.4 55.6 C 403.7 55.4 403.8 55.1 403.8 54.8 C 403.8 54.8 403.8 44.7 403.8 44.7 C 403.8 44.1 403.6 43.5 403.3 43.2 C 402.9 42.9 402.4 42.7 401.7 42.7 C 401.73 42.69 400.9 42.7 400.9 42.7 L 400.9 41.6 Z M 433.6 42.5 C 434.7 41.4 435.7 40.8 436.7 40.8 C 437.2 40.8 437.7 41 438.1 41.3 C 438.4 41.7 438.6 42.1 438.6 42.6 C 438.6 43.1 438.5 43.4 438.2 43.7 C 438 43.9 437.7 44.1 437.4 44.1 C 436.7 44.1 436.3 43.7 436.1 42.9 C 436 42.6 435.8 42.4 435.6 42.4 C 435.3 42.4 434.8 42.7 434.4 43.2 C 434.9 43.8 435.2 44.4 435.4 44.9 C 435.6 45.3 435.6 45.9 435.6 46.4 C 435.6 47.4 435.4 48.2 434.9 49 C 434.5 49.7 433.7 50.3 432.6 50.9 C 431.6 51.5 430.5 51.8 429.5 51.8 C 429.5 51.8 427.7 51.8 427.7 51.8 C 426.4 51.8 425.6 51.9 425.2 52.2 C 424.7 52.4 424.5 52.8 424.5 53.4 C 424.5 53.8 424.7 54.1 425.1 54.4 C 425.4 54.6 426 54.7 427 54.7 C 427 54.7 431.1 54.6 431.1 54.6 C 433.2 54.6 434.7 55 435.6 55.7 C 436.5 56.4 436.9 57.3 436.9 58.5 C 436.9 59.8 436.4 61 435.4 61.9 C 433.9 63.1 431.8 63.8 428.9 63.8 C 426.5 63.8 424.7 63.4 423.6 62.5 C 422.7 61.8 422.2 61 422.2 60.2 C 422.2 59.5 422.5 58.9 423.1 58.4 C 423.7 57.8 424.7 57.4 426 57.2 C 424.9 56.9 424.1 56.5 423.6 56 C 423 55.5 422.7 54.8 422.7 54.1 C 422.7 53.4 423 52.8 423.4 52.2 C 423.8 51.7 424.6 51.3 425.7 50.9 C 424.8 50.4 424.1 49.7 423.6 49 C 423.1 48.3 422.9 47.4 422.9 46.5 C 422.9 45 423.5 43.7 424.7 42.7 C 425.9 41.7 427.4 41.1 429.3 41.1 C 430.1 41.1 430.8 41.3 431.5 41.5 C 432.2 41.7 432.9 42 433.6 42.5 Z M 429.3 42.2 C 428.3 42.2 427.5 42.6 426.8 43.3 C 426.2 44 425.8 45 425.8 46.3 C 425.8 47.7 426.2 48.8 426.8 49.6 C 427.5 50.4 428.3 50.7 429.3 50.7 C 430.3 50.7 431.1 50.4 431.7 49.6 C 432.4 48.9 432.7 47.8 432.7 46.4 C 432.7 45.1 432.3 44.1 431.7 43.3 C 431.1 42.6 430.2 42.2 429.3 42.2 Z M 430.2 57.2 C 428.2 57.2 426.7 57.5 425.9 58 C 425 58.6 424.6 59.3 424.6 60.1 C 424.6 60.8 424.9 61.4 425.6 61.8 C 426.4 62.4 427.6 62.7 429.2 62.7 C 431.1 62.7 432.6 62.4 433.5 61.8 C 434.5 61.1 435 60.4 435 59.7 C 435 59.2 434.8 58.8 434.5 58.4 C 434.2 58 433.8 57.7 433.1 57.5 C 432.5 57.3 431.5 57.2 430.2 57.2 Z M 450.4 41.6 C 450.4 41.6 454.82 41.33 454.8 41.3 C 455.1 42.5 455.2 43.6 455.3 44.6 C 456.1 43.4 457 42.6 457.8 42.1 C 458.7 41.6 459.6 41.3 460.6 41.3 C 461.7 41.3 462.6 41.6 463.3 42.2 C 464 42.7 464.5 43.7 464.9 44.9 C 465.6 43.7 466.4 42.8 467.3 42.2 C 468.3 41.6 469.2 41.3 470.3 41.3 C 471.7 41.3 472.8 41.8 473.5 42.6 C 474.4 43.7 474.9 45.1 474.9 46.9 C 474.9 46.9 474.9 54.6 474.9 54.6 C 474.9 55.1 475 55.4 475.2 55.5 C 475.5 55.8 476 55.9 476.6 55.9 C 476.58 55.92 477.4 55.9 477.4 55.9 L 477.4 57.2 L 469.5 57.2 L 469.5 55.9 C 469.5 55.9 470.33 55.92 470.3 55.9 C 471 55.9 471.5 55.8 471.7 55.6 C 472 55.4 472.1 55 472.1 54.6 C 472.1 54.6 472.1 46.9 472.1 46.9 C 472.1 45.7 471.8 44.8 471.3 44.2 C 470.7 43.6 470 43.2 469.1 43.2 C 468.4 43.2 467.7 43.4 467.2 43.8 C 466.6 44.2 466.2 44.7 465.8 45.4 C 465.4 46.4 465.1 47.2 465.1 47.9 C 465.1 47.9 465.1 54.6 465.1 54.6 C 465.1 55 465.3 55.4 465.5 55.6 C 465.7 55.8 466.1 55.9 466.6 55.9 C 466.62 55.92 467.7 55.9 467.7 55.9 L 467.7 57.2 L 459.8 57.2 L 459.8 55.9 C 459.8 55.9 460.65 55.92 460.6 55.9 C 461.2 55.9 461.6 55.8 461.9 55.6 C 462.2 55.4 462.3 55.1 462.3 54.7 C 462.3 54.7 462.3 47.6 462.3 47.6 C 462.3 46.1 462.1 45 461.5 44.3 C 461 43.6 460.3 43.2 459.4 43.2 C 458.2 43.2 457.3 43.6 456.6 44.4 C 455.7 45.6 455.3 46.9 455.3 48.4 C 455.3 48.4 455.3 54.6 455.3 54.6 C 455.3 55.1 455.4 55.4 455.6 55.6 C 455.9 55.8 456.4 55.9 457 55.9 C 457.01 55.92 457.8 55.9 457.8 55.9 L 457.8 57.2 L 450 57.2 L 450 55.9 C 450 55.9 451.15 55.92 451.2 55.9 C 451.6 55.9 451.9 55.8 452.2 55.6 C 452.4 55.4 452.5 55.1 452.5 54.7 C 452.5 54.7 452.5 44.6 452.5 44.6 C 452.5 44 452.4 43.6 452.1 43.3 C 451.8 43 451.2 42.8 450.4 42.8 C 450.37 42.76 450.4 41.6 450.4 41.6 Z M 491.6 42.5 C 492.7 41.4 493.7 40.8 494.6 40.8 C 495.2 40.8 495.6 41 496 41.3 C 496.4 41.7 496.5 42.1 496.5 42.6 C 496.5 43.1 496.4 43.4 496.2 43.7 C 495.9 43.9 495.6 44.1 495.3 44.1 C 494.7 44.1 494.2 43.7 494 42.9 C 493.9 42.6 493.8 42.4 493.6 42.4 C 493.2 42.4 492.8 42.7 492.3 43.2 C 492.8 43.8 493.1 44.4 493.3 44.9 C 493.5 45.3 493.6 45.9 493.6 46.4 C 493.6 47.4 493.4 48.2 492.9 49 C 492.4 49.7 491.6 50.3 490.6 50.9 C 489.5 51.5 488.5 51.8 487.5 51.8 C 487.5 51.8 485.7 51.8 485.7 51.8 C 484.4 51.8 483.5 51.9 483.1 52.2 C 482.7 52.4 482.5 52.8 482.5 53.4 C 482.5 53.8 482.6 54.1 483 54.4 C 483.3 54.6 484 54.7 484.9 54.7 C 484.9 54.7 489 54.6 489 54.6 C 491.1 54.6 492.6 55 493.5 55.7 C 494.4 56.4 494.9 57.3 494.9 58.5 C 494.9 59.8 494.4 61 493.3 61.9 C 491.9 63.1 489.7 63.8 486.8 63.8 C 484.4 63.8 482.7 63.4 481.5 62.5 C 480.6 61.8 480.2 61 480.2 60.2 C 480.2 59.5 480.5 58.9 481 58.4 C 481.6 57.8 482.6 57.4 484 57.2 C 482.9 56.9 482.1 56.5 481.5 56 C 480.9 55.5 480.7 54.8 480.7 54.1 C 480.7 53.4 480.9 52.8 481.3 52.2 C 481.8 51.7 482.6 51.3 483.7 50.9 C 482.7 50.4 482 49.7 481.5 49 C 481.1 48.3 480.8 47.4 480.8 46.5 C 480.8 45 481.4 43.7 482.6 42.7 C 483.8 41.7 485.3 41.1 487.2 41.1 C 488 41.1 488.7 41.3 489.5 41.5 C 490.2 41.7 490.9 42 491.6 42.5 Z M 487.2 42.2 C 486.2 42.2 485.4 42.6 484.8 43.3 C 484.1 44 483.8 45 483.8 46.3 C 483.8 47.7 484.1 48.8 484.8 49.6 C 485.4 50.4 486.2 50.7 487.2 50.7 C 488.2 50.7 489 50.4 489.7 49.6 C 490.3 48.9 490.6 47.8 490.6 46.4 C 490.6 45.1 490.3 44.1 489.6 43.3 C 489 42.6 488.2 42.2 487.2 42.2 Z M 488.2 57.2 C 486.1 57.2 484.7 57.5 483.8 58 C 482.9 58.6 482.5 59.3 482.5 60.1 C 482.5 60.8 482.8 61.4 483.5 61.8 C 484.4 62.4 485.6 62.7 487.2 62.7 C 489.1 62.7 490.5 62.4 491.5 61.8 C 492.4 61.1 492.9 60.4 492.9 59.7 C 492.9 59.2 492.8 58.8 492.5 58.4 C 492.2 58 491.7 57.7 491 57.5 C 490.4 57.3 489.4 57.2 488.2 57.2 Z M 513 56 C 513.4 56 513.9 55.8 514.3 55.5 C 514.3 55.5 514.9 56.4 514.9 56.4 C 514.1 57.2 513.2 57.6 512.2 57.6 C 511.5 57.6 510.9 57.4 510.3 57 C 509.8 56.6 509.4 55.9 509 54.9 C 507.9 56 507 56.7 506.2 57.1 C 505.4 57.4 504.5 57.6 503.3 57.6 C 501.8 57.6 500.5 57.3 499.7 56.6 C 498.9 55.9 498.5 55 498.5 54 C 498.5 52.3 499.4 51 501.3 49.9 C 503.2 48.9 505.7 48.2 508.9 47.8 C 508.9 47.8 508.9 45.4 508.9 45.4 C 508.9 44.6 508.6 43.9 507.9 43.3 C 507.2 42.7 506.3 42.4 505.3 42.4 C 504.3 42.4 503.5 42.6 502.8 43 C 502.3 43.3 502.1 43.6 502.1 43.9 C 502.1 44 502.2 44.3 502.5 44.7 C 502.8 45.1 502.9 45.5 502.9 45.8 C 502.9 46.3 502.8 46.7 502.5 47 C 502.1 47.4 501.7 47.5 501.2 47.5 C 500.7 47.5 500.2 47.3 499.8 47 C 499.4 46.6 499.3 46.1 499.3 45.5 C 499.3 44.4 499.9 43.4 501.1 42.5 C 502.3 41.6 504 41.1 506 41.1 C 507.8 41.1 509.2 41.5 510.2 42.3 C 511.2 43.2 511.7 44.1 511.7 45.3 C 511.7 45.3 511.7 53.8 511.7 53.8 C 511.7 54.5 511.8 55.1 512 55.4 C 512.3 55.8 512.6 56 513 56 C 513 56 513 56 513 56 Z M 508.9 48.9 C 506.1 49.3 504.1 49.9 502.9 50.8 C 502 51.5 501.6 52.4 501.6 53.6 C 501.6 54.5 501.8 55.1 502.3 55.6 C 502.7 56.1 503.3 56.3 504.1 56.3 C 505.4 56.3 506.5 55.8 507.5 54.9 C 508.4 53.9 508.9 52.6 508.9 51.1 C 508.9 51.1 508.9 48.9 508.9 48.9 Z M 526.3 41.6 C 526.3 41.6 531.42 41.3 531.4 41.3 C 531.6 42.3 531.8 43.4 531.9 44.7 C 532.6 43.6 533.4 42.7 534.3 42.2 C 535.3 41.6 536.4 41.3 537.6 41.3 C 538.6 41.3 539.5 41.5 540.2 41.9 C 540.8 42.3 541.4 43 541.8 43.9 C 542.2 44.7 542.5 45.7 542.5 46.8 C 542.5 46.8 542.5 54.4 542.5 54.4 C 542.5 54.9 542.6 55.3 542.8 55.6 C 543.1 55.8 543.5 55.9 544.1 55.9 C 544.12 55.92 545.2 55.9 545.2 55.9 L 545.2 57.2 L 537 57.2 L 537 55.9 C 537 55.9 537.79 55.92 537.8 55.9 C 538.5 55.9 539 55.8 539.3 55.6 C 539.6 55.3 539.8 55 539.8 54.5 C 539.8 54.5 539.8 47.9 539.8 47.9 C 539.8 46.4 539.5 45.3 539.1 44.7 C 538.5 43.7 537.5 43.2 536.3 43.2 C 535 43.2 534 43.7 533.1 44.7 C 532.3 45.7 531.9 47 531.9 48.6 C 531.9 48.6 531.9 54.4 531.9 54.4 C 531.9 54.9 532 55.3 532.3 55.6 C 532.5 55.8 533 55.9 533.6 55.9 C 533.56 55.92 534.6 55.9 534.6 55.9 L 534.6 57.2 L 526.4 57.2 L 526.4 55.9 C 526.4 55.9 527.48 55.92 527.5 55.9 C 528 55.9 528.4 55.8 528.7 55.6 C 529 55.4 529.1 55.1 529.1 54.8 C 529.1 54.8 529.1 44.7 529.1 44.7 C 529.1 44.1 529 43.5 528.6 43.2 C 528.2 42.9 527.7 42.7 527.1 42.7 C 527.05 42.69 526.3 42.7 526.3 42.7 L 526.3 41.6 Z M 562.1 56 C 562.5 56 563 55.8 563.5 55.5 C 563.5 55.5 564.1 56.4 564.1 56.4 C 563.2 57.2 562.4 57.6 561.4 57.6 C 560.6 57.6 560 57.4 559.5 57 C 559 56.6 558.5 55.9 558.1 54.9 C 557.1 56 556.1 56.7 555.3 57.1 C 554.5 57.4 553.6 57.6 552.5 57.6 C 550.9 57.6 549.7 57.3 548.8 56.6 C 548 55.9 547.6 55 547.6 54 C 547.6 52.3 548.5 51 550.4 49.9 C 552.3 48.9 554.9 48.2 558 47.8 C 558 47.8 558 45.4 558 45.4 C 558 44.6 557.7 43.9 557 43.3 C 556.3 42.7 555.5 42.4 554.4 42.4 C 553.5 42.4 552.6 42.6 551.9 43 C 551.4 43.3 551.2 43.6 551.2 43.9 C 551.2 44 551.3 44.3 551.6 44.7 C 551.9 45.1 552.1 45.5 552.1 45.8 C 552.1 46.3 551.9 46.7 551.6 47 C 551.3 47.4 550.8 47.5 550.3 47.5 C 549.8 47.5 549.3 47.3 548.9 47 C 548.6 46.6 548.4 46.1 548.4 45.5 C 548.4 44.4 549 43.4 550.2 42.5 C 551.5 41.6 553.1 41.1 555.1 41.1 C 556.9 41.1 558.4 41.5 559.3 42.3 C 560.3 43.2 560.8 44.1 560.8 45.3 C 560.8 45.3 560.8 53.8 560.8 53.8 C 560.8 54.5 560.9 55.1 561.2 55.4 C 561.4 55.8 561.7 56 562.1 56 C 562.1 56 562.1 56 562.1 56 Z M 558 48.9 C 555.2 49.3 553.2 49.9 552 50.8 C 551.2 51.5 550.7 52.4 550.7 53.6 C 550.7 54.5 551 55.1 551.4 55.6 C 551.9 56.1 552.5 56.3 553.2 56.3 C 554.5 56.3 555.6 55.8 556.6 54.9 C 557.5 53.9 558 52.6 558 51.1 C 558 51.1 558 48.9 558 48.9 Z M 577.9 42.5 C 579 41.4 580 40.8 580.9 40.8 C 581.5 40.8 581.9 41 582.3 41.3 C 582.7 41.7 582.8 42.1 582.8 42.6 C 582.8 43.1 582.7 43.4 582.5 43.7 C 582.2 43.9 581.9 44.1 581.6 44.1 C 581 44.1 580.5 43.7 580.3 42.9 C 580.2 42.6 580.1 42.4 579.9 42.4 C 579.5 42.4 579.1 42.7 578.6 43.2 C 579.1 43.8 579.4 44.4 579.6 44.9 C 579.8 45.3 579.9 45.9 579.9 46.4 C 579.9 47.4 579.6 48.2 579.2 49 C 578.7 49.7 577.9 50.3 576.9 50.9 C 575.8 51.5 574.8 51.8 573.8 51.8 C 573.8 51.8 572 51.8 572 51.8 C 570.7 51.8 569.8 51.9 569.4 52.2 C 569 52.4 568.8 52.8 568.8 53.4 C 568.8 53.8 568.9 54.1 569.3 54.4 C 569.6 54.6 570.3 54.7 571.2 54.7 C 571.2 54.7 575.3 54.6 575.3 54.6 C 577.4 54.6 578.9 55 579.8 55.7 C 580.7 56.4 581.2 57.3 581.2 58.5 C 581.2 59.8 580.7 61 579.6 61.9 C 578.2 63.1 576 63.8 573.1 63.8 C 570.7 63.8 569 63.4 567.8 62.5 C 566.9 61.8 566.5 61 566.5 60.2 C 566.5 59.5 566.8 58.9 567.3 58.4 C 567.9 57.8 568.9 57.4 570.3 57.2 C 569.2 56.9 568.3 56.5 567.8 56 C 567.2 55.5 567 54.8 567 54.1 C 567 53.4 567.2 52.8 567.6 52.2 C 568.1 51.7 568.9 51.3 570 50.9 C 569 50.4 568.3 49.7 567.8 49 C 567.4 48.3 567.1 47.4 567.1 46.5 C 567.1 45 567.7 43.7 568.9 42.7 C 570.1 41.7 571.6 41.1 573.5 41.1 C 574.3 41.1 575 41.3 575.8 41.5 C 576.5 41.7 577.2 42 577.9 42.5 Z M 573.5 42.2 C 572.5 42.2 571.7 42.6 571 43.3 C 570.4 44 570.1 45 570.1 46.3 C 570.1 47.7 570.4 48.8 571 49.6 C 571.7 50.4 572.5 50.7 573.5 50.7 C 574.5 50.7 575.3 50.4 576 49.6 C 576.6 48.9 576.9 47.8 576.9 46.4 C 576.9 45.1 576.6 44.1 575.9 43.3 C 575.3 42.6 574.5 42.2 573.5 42.2 Z M 574.5 57.2 C 572.4 57.2 571 57.5 570.1 58 C 569.2 58.6 568.8 59.3 568.8 60.1 C 568.8 60.8 569.1 61.4 569.8 61.8 C 570.6 62.4 571.9 62.7 573.5 62.7 C 575.4 62.7 576.8 62.4 577.8 61.8 C 578.7 61.1 579.2 60.4 579.2 59.7 C 579.2 59.2 579.1 58.8 578.8 58.4 C 578.5 58 578 57.7 577.3 57.5 C 576.7 57.3 575.7 57.2 574.5 57.2 Z M 585.4 42.8 L 592.1 42.8 L 592.1 45.3 L 585.4 45.3 L 585.4 42.8 Z M 595.5 32.6 L 606.9 32.6 L 606.9 33.9 C 606.9 33.9 604.13 33.86 604.1 33.9 C 603.7 33.9 603.4 34 603.2 34.2 C 603 34.4 602.9 34.8 602.9 35.3 C 602.9 35.3 602.9 54.6 602.9 54.6 C 602.9 55.1 603 55.4 603.3 55.6 C 603.5 55.8 604 55.9 604.8 55.9 C 604.8 55.9 608.3 55.9 608.3 55.9 C 610.1 55.9 611.6 55.3 612.8 54.1 C 613.9 52.9 614.8 50.7 615.3 47.7 C 615.32 47.72 616.5 47.7 616.5 47.7 L 615.9 57.2 L 595.5 57.2 L 595.5 55.9 C 595.5 55.9 597.48 55.92 597.5 55.9 C 598.2 55.9 598.6 55.8 598.9 55.5 C 599.2 55.3 599.3 54.9 599.3 54.3 C 599.3 54.3 599.3 35.1 599.3 35.1 C 599.3 34.7 599.2 34.4 599 34.2 C 598.8 34 598.4 33.9 598 33.9 C 597.96 33.86 595.5 33.9 595.5 33.9 L 595.5 32.6 Z M 630.1 32.1 C 632.2 32.1 634.1 32.6 635.9 33.7 C 637.7 34.8 639.1 36.3 640.2 38.3 C 641.2 40.3 641.7 42.5 641.7 44.9 C 641.7 47.3 641.2 49.6 640.2 51.5 C 639.1 53.5 637.7 55 635.9 56.1 C 634.1 57.2 632.2 57.8 630.2 57.8 C 628.2 57.8 626.4 57.2 624.7 56.2 C 622.9 55.1 621.5 53.5 620.5 51.5 C 619.4 49.5 618.9 47.3 618.9 44.8 C 618.9 42.4 619.4 40.3 620.4 38.3 C 621.5 36.4 622.8 34.9 624.6 33.8 C 626.4 32.7 628.2 32.1 630.1 32.1 Z M 630.4 33.4 C 628.2 33.4 626.5 34.3 625.1 36.1 C 623.8 37.9 623.1 40.8 623.1 44.8 C 623.1 49.2 623.8 52.3 625.2 53.9 C 626.5 55.6 628.2 56.5 630.3 56.5 C 631.7 56.5 632.9 56.1 634 55.3 C 635.1 54.6 635.9 53.3 636.6 51.7 C 637.2 50 637.5 47.8 637.5 45.1 C 637.5 42.2 637.2 39.9 636.6 38.3 C 636 36.6 635.2 35.4 634.1 34.6 C 633 33.8 631.7 33.4 630.4 33.4 Z M 655.4 32.1 L 656.5 32.1 C 656.5 32.1 665.33 54.56 665.3 54.6 C 665.7 55.5 666.4 55.9 667.5 55.9 C 667.5 55.92 668.3 55.9 668.3 55.9 L 668.3 57.2 L 658.5 57.2 L 658.5 55.9 C 658.5 55.9 659.25 55.92 659.3 55.9 C 660.3 55.9 661 55.8 661.4 55.6 C 661.7 55.4 661.8 55.2 661.8 54.9 C 661.8 54.7 661.8 54.5 661.7 54.3 C 661.72 54.28 659.7 49.1 659.7 49.1 L 650 49.1 C 650 49.1 648.84 52.05 648.8 52.1 C 648.5 52.9 648.4 53.5 648.4 53.9 C 648.4 54.5 648.6 55 649.1 55.3 C 649.7 55.7 650.4 55.9 651.3 55.9 C 651.35 55.92 652.2 55.9 652.2 55.9 L 652.2 57.2 L 643.3 57.2 C 643.3 57.2 643.28 55.92 643.3 55.9 C 644.2 55.9 645 55.7 645.5 55.3 C 646.1 54.9 646.6 54.1 647.1 52.9 C 647.06 52.93 655.4 32.1 655.4 32.1 Z M 654.9 36.8 L 650.5 47.8 L 659.2 47.8 L 654.9 36.8 Z M 675.4 50 C 675.4 50 674.6 50 674.6 50 C 674.6 48.7 674.6 47.7 674.8 46.9 C 674.9 46.2 675.1 45.6 675.3 45.1 C 675.5 44.7 676.1 43.9 676.9 42.7 C 677.6 41.8 678.1 41 678.4 40.2 C 678.7 39.4 678.8 38.5 678.8 37.5 C 678.8 36.2 678.5 35.2 677.7 34.4 C 677 33.6 676.1 33.2 675 33.2 C 674.1 33.2 673.4 33.4 672.8 33.9 C 672.1 34.3 671.8 34.8 671.8 35.2 C 671.8 35.5 672.1 35.8 672.5 36.1 C 673.1 36.7 673.5 37.2 673.5 37.8 C 673.5 38.3 673.3 38.8 672.9 39.1 C 672.6 39.5 672.2 39.7 671.6 39.7 C 671 39.7 670.5 39.4 670.1 38.9 C 669.6 38.4 669.4 37.8 669.4 36.9 C 669.4 35.7 670 34.5 671.2 33.5 C 672.4 32.5 673.8 32 675.6 32 C 677.4 32 679 32.6 680.1 33.7 C 681.3 34.8 681.9 36.2 681.9 37.8 C 681.9 38.9 681.7 39.8 681.3 40.6 C 681 41.3 680.2 42.2 679 43.3 C 677.3 44.8 676.4 45.8 676 46.5 C 675.7 47.2 675.5 48.4 675.4 50 Z M 675 53.6 C 675.6 53.6 676.1 53.8 676.5 54.2 C 676.8 54.6 677 55 677 55.6 C 677 56.1 676.8 56.6 676.5 57 C 676.1 57.4 675.6 57.6 675 57.6 C 674.5 57.6 674 57.4 673.6 57 C 673.2 56.6 673 56.1 673 55.6 C 673 55 673.2 54.5 673.6 54.2 C 674 53.8 674.5 53.6 675 53.6 Z " stroke="none" fill="#000"/>
  </g>
  <g id="Polygon27095">
    <path d="M 37.2 0.6 L 43 0.6 L 57.8 19.9 C 57.8 19.9 57.83 5.94 57.8 5.9 C 57.8 4.5 57.5 3.5 56.9 2.8 C 56.3 2.2 55.4 1.9 54.2 1.9 C 54.25 1.86 54.2 0.6 54.2 0.6 L 62.8 0.6 C 62.8 0.6 62.85 1.86 62.8 1.9 C 62 1.9 61.3 2 60.9 2.2 C 60.4 2.5 60.1 2.9 59.7 3.6 C 59.4 4.2 59.3 4.9 59.3 5.7 C 59.26 5.66 59.3 25.2 59.3 25.2 L 57.7 25.2 L 42.4 5.1 C 42.4 5.1 42.38 19.9 42.4 19.9 C 42.4 21.2 42.7 22.2 43.4 22.9 C 44.1 23.6 45.1 23.9 46.5 23.9 C 46.53 23.92 46.5 25.2 46.5 25.2 L 37.2 25.2 C 37.2 25.2 37.17 23.92 37.2 23.9 C 38.3 23.9 39.3 23.5 40 22.8 C 40.6 22 41 21.2 41 20.1 C 40.98 20.11 41 3.5 41 3.5 C 41 3.5 40.69 3.16 40.7 3.2 C 40.1 2.6 39.7 2.2 39.5 2.1 C 39.2 1.9 38.8 1.9 38.3 1.9 C 38.27 1.86 37.2 1.9 37.2 1.9 L 37.2 0.6 Z M 79.7 24 C 80.1 24 80.6 23.8 81 23.5 C 81 23.5 81.6 24.4 81.6 24.4 C 80.8 25.2 79.9 25.6 78.9 25.6 C 78.2 25.6 77.5 25.4 77 25 C 76.5 24.6 76.1 23.9 75.7 22.9 C 74.6 24 73.7 24.7 72.9 25.1 C 72.1 25.4 71.2 25.6 70 25.6 C 68.4 25.6 67.2 25.3 66.4 24.6 C 65.6 23.9 65.2 23 65.2 22 C 65.2 20.3 66.1 19 68 17.9 C 69.9 16.9 72.4 16.2 75.6 15.8 C 75.6 15.8 75.6 13.4 75.6 13.4 C 75.6 12.6 75.2 11.9 74.6 11.3 C 73.9 10.7 73 10.4 72 10.4 C 71 10.4 70.2 10.6 69.5 11 C 69 11.3 68.8 11.6 68.8 11.9 C 68.8 12 68.9 12.3 69.2 12.7 C 69.5 13.1 69.6 13.5 69.6 13.8 C 69.6 14.3 69.5 14.7 69.2 15 C 68.8 15.4 68.4 15.5 67.9 15.5 C 67.3 15.5 66.9 15.3 66.5 15 C 66.1 14.6 66 14.1 66 13.5 C 66 12.4 66.6 11.4 67.8 10.5 C 69 9.6 70.7 9.1 72.7 9.1 C 74.5 9.1 75.9 9.5 76.9 10.3 C 77.9 11.2 78.4 12.1 78.4 13.3 C 78.4 13.3 78.4 21.8 78.4 21.8 C 78.4 22.5 78.5 23.1 78.7 23.4 C 79 23.8 79.3 24 79.7 24 C 79.7 24 79.7 24 79.7 24 Z M 75.6 16.9 C 72.8 17.3 70.8 17.9 69.6 18.8 C 68.7 19.5 68.3 20.4 68.3 21.6 C 68.3 22.5 68.5 23.1 69 23.6 C 69.4 24.1 70 24.3 70.8 24.3 C 72.1 24.3 73.2 23.8 74.1 22.9 C 75.1 21.9 75.6 20.6 75.6 19.1 C 75.6 19.1 75.6 16.9 75.6 16.9 Z M 88.8 9.3 C 88.8 9.3 88.83 19.64 88.8 19.6 C 88.8 20.9 89.1 21.9 89.8 22.6 C 90.4 23.2 91.2 23.6 92.2 23.6 C 93.5 23.6 94.5 23.1 95.4 22.1 C 96.3 21.1 96.7 19.8 96.7 18.3 C 96.7 18.3 96.7 12.5 96.7 12.5 C 96.7 12 96.5 11.6 96.1 11.3 C 95.7 11 95 10.8 93.9 10.8 C 93.93 10.77 93.9 9.6 93.9 9.6 L 99.4 9.3 C 99.4 9.3 99.39 22.1 99.4 22.1 C 99.4 22.7 99.6 23.1 99.9 23.4 C 100.2 23.8 100.7 23.9 101.3 23.9 C 101.28 23.92 102.3 23.9 102.3 23.9 L 102.3 25 L 97 25.2 C 97 25.2 96.7 22.1 96.7 22.1 C 95.8 23.2 94.8 24 93.9 24.6 C 93 25.1 92 25.4 91 25.4 C 89.6 25.4 88.5 24.9 87.5 24 C 86.6 23.1 86.1 21.5 86.1 19.3 C 86.1 19.3 86.1 12.5 86.1 12.5 C 86.1 11.9 85.8 11.4 85.4 11.1 C 85 10.9 84.3 10.8 83.3 10.8 C 83.32 10.77 83.3 9.6 83.3 9.6 L 88.8 9.3 Z M 113.1 0.6 L 119.2 0.3 C 119.2 0.3 119.16 21.62 119.2 21.6 C 119.2 22.4 119.3 23 119.6 23.4 C 119.9 23.7 120.4 23.9 121.1 23.9 C 121.05 23.92 122.1 23.9 122.1 23.9 L 122.1 25.2 L 116.8 25.2 C 116.8 25.2 116.42 22 116.4 22 C 115.8 23.1 115.1 24 114.2 24.5 C 113.4 25.1 112.4 25.4 111.4 25.4 C 109.6 25.4 108.1 24.7 106.8 23.2 C 105.6 21.7 105 19.7 105 17.3 C 105 14.7 105.8 12.6 107.4 11 C 108.6 9.8 110 9.1 111.7 9.1 C 112.7 9.1 113.6 9.4 114.4 9.9 C 115.1 10.4 115.8 11.1 116.4 12.2 C 116.4 12.2 116.4 3.4 116.4 3.4 C 116.4 2.9 116.2 2.5 115.9 2.3 C 115.5 2 115 1.9 114.2 1.9 C 114.2 1.86 113.1 1.9 113.1 1.9 L 113.1 0.6 Z M 115.1 12.1 C 114.3 11.1 113.3 10.5 112.1 10.5 C 110.9 10.5 110 11 109.3 12 C 108.6 13 108.2 14.6 108.2 17 C 108.2 19.5 108.6 21.3 109.3 22.3 C 110 23.4 110.9 23.9 112.1 23.9 C 113.3 23.9 114.3 23.3 115.2 22.2 C 116 21 116.5 19.3 116.5 17.1 C 116.5 15 116 13.3 115.1 12.1 C 115.1 12.1 115.1 12.1 115.1 12.1 Z M 129.7 0.3 C 129.7 0.3 129.67 22.88 129.7 22.9 C 129.7 23.2 129.8 23.4 130 23.6 C 130.2 23.8 130.6 23.9 131 23.9 C 130.96 23.92 132.6 23.9 132.6 23.9 L 132.6 25.2 L 123.8 25.2 L 123.8 23.9 C 123.8 23.9 125.35 23.92 125.4 23.9 C 125.9 23.9 126.2 23.8 126.5 23.6 C 126.7 23.3 126.9 23 126.9 22.5 C 126.9 22.5 126.9 3.6 126.9 3.6 C 126.9 3 126.7 2.6 126.4 2.4 C 126 2 125.5 1.9 124.9 1.9 C 124.9 1.86 123.5 1.9 123.5 1.9 L 123.5 0.6 L 129.7 0.3 Z M 141.8 9.1 C 143.9 9.1 145.7 9.9 147.1 11.4 C 148.5 12.9 149.2 14.9 149.2 17.4 C 149.2 19.1 148.9 20.5 148.3 21.7 C 147.7 22.9 146.7 23.9 145.6 24.6 C 144.4 25.3 143.1 25.6 141.8 25.6 C 139.7 25.6 138 24.9 136.6 23.3 C 135.2 21.8 134.5 19.8 134.5 17.4 C 134.5 15 135.2 13 136.6 11.4 C 138 9.9 139.8 9.1 141.8 9.1 Z M 141.8 10.3 C 140.6 10.3 139.6 10.9 138.8 12 C 138 13.1 137.6 14.9 137.6 17.3 C 137.6 19.8 138 21.6 138.8 22.7 C 139.6 23.9 140.6 24.5 141.8 24.5 C 143.1 24.5 144.2 23.9 145 22.7 C 145.8 21.6 146.2 19.7 146.2 17.1 C 146.2 14.7 145.8 13 145 11.9 C 144.2 10.9 143.2 10.3 141.8 10.3 Z M 154.1 8.4 C 155 7.2 155.5 5.5 155.6 3.3 C 155.6 3.27 156.7 3.3 156.7 3.3 L 156.7 9.6 L 161.7 9.6 L 161.7 11.1 L 156.7 11.1 C 156.7 11.1 156.71 21.12 156.7 21.1 C 156.7 22 156.9 22.6 157.3 23.1 C 157.7 23.6 158.3 23.8 158.9 23.8 C 159.6 23.8 160.3 23.4 160.8 22.7 C 161.3 22 161.7 20.9 161.7 19.3 C 161.7 19.3 162.9 19.3 162.9 19.3 C 162.8 21.4 162.3 22.9 161.4 23.9 C 160.6 24.9 159.4 25.4 158 25.4 C 156.8 25.4 155.8 25 155 24.3 C 154.3 23.6 153.9 22.7 153.9 21.6 C 153.94 21.58 153.9 11.1 153.9 11.1 L 151.2 11.1 C 151.2 11.1 151.23 9.98 151.2 10 C 152.5 9.8 153.4 9.3 154.1 8.4 C 154.1 8.4 154.1 8.4 154.1 8.4 Z M 174.2 9.6 C 174.2 9.6 179.34 9.3 179.3 9.3 C 179.6 10.3 179.7 11.4 179.8 12.7 C 180.5 11.6 181.3 10.7 182.3 10.2 C 183.2 9.6 184.3 9.3 185.5 9.3 C 186.5 9.3 187.4 9.5 188.1 9.9 C 188.8 10.3 189.3 11 189.8 11.9 C 190.2 12.7 190.4 13.7 190.4 14.8 C 190.4 14.8 190.4 22.4 190.4 22.4 C 190.4 22.9 190.5 23.3 190.8 23.6 C 191 23.8 191.4 23.9 192 23.9 C 192.04 23.92 193.1 23.9 193.1 23.9 L 193.1 25.2 L 184.9 25.2 L 184.9 23.9 C 184.9 23.9 185.72 23.92 185.7 23.9 C 186.4 23.9 187 23.8 187.2 23.6 C 187.5 23.3 187.7 23 187.7 22.5 C 187.7 22.5 187.7 15.9 187.7 15.9 C 187.7 14.4 187.5 13.3 187 12.7 C 186.4 11.7 185.5 11.2 184.2 11.2 C 182.9 11.2 181.9 11.7 181.1 12.7 C 180.2 13.7 179.8 15 179.8 16.6 C 179.8 16.6 179.8 22.4 179.8 22.4 C 179.8 22.9 179.9 23.3 180.2 23.6 C 180.5 23.8 180.9 23.9 181.5 23.9 C 181.48 23.92 182.6 23.9 182.6 23.9 L 182.6 25.2 L 174.3 25.2 L 174.3 23.9 C 174.3 23.9 175.41 23.92 175.4 23.9 C 175.9 23.9 176.4 23.8 176.6 23.6 C 176.9 23.4 177.1 23.1 177.1 22.8 C 177.1 22.8 177.1 12.7 177.1 12.7 C 177.1 12.1 176.9 11.5 176.5 11.2 C 176.2 10.9 175.7 10.7 175 10.7 C 174.98 10.69 174.2 10.7 174.2 10.7 L 174.2 9.6 Z M 210 24 C 210.5 24 210.9 23.8 211.4 23.5 C 211.4 23.5 212 24.4 212 24.4 C 211.2 25.2 210.3 25.6 209.3 25.6 C 208.5 25.6 207.9 25.4 207.4 25 C 206.9 24.6 206.4 23.9 206 22.9 C 205 24 204.1 24.7 203.3 25.1 C 202.5 25.4 201.5 25.6 200.4 25.6 C 198.8 25.6 197.6 25.3 196.8 24.6 C 195.9 23.9 195.5 23 195.5 22 C 195.5 20.3 196.5 19 198.4 17.9 C 200.3 16.9 202.8 16.2 205.9 15.8 C 205.9 15.8 205.9 13.4 205.9 13.4 C 205.9 12.6 205.6 11.9 204.9 11.3 C 204.2 10.7 203.4 10.4 202.4 10.4 C 201.4 10.4 200.6 10.6 199.9 11 C 199.4 11.3 199.1 11.6 199.1 11.9 C 199.1 12 199.2 12.3 199.5 12.7 C 199.8 13.1 200 13.5 200 13.8 C 200 14.3 199.8 14.7 199.5 15 C 199.2 15.4 198.8 15.5 198.3 15.5 C 197.7 15.5 197.2 15.3 196.9 15 C 196.5 14.6 196.3 14.1 196.3 13.5 C 196.3 12.4 196.9 11.4 198.2 10.5 C 199.4 9.6 201 9.1 203 9.1 C 204.9 9.1 206.3 9.5 207.2 10.3 C 208.2 11.2 208.7 12.1 208.7 13.3 C 208.7 13.3 208.7 21.8 208.7 21.8 C 208.7 22.5 208.8 23.1 209.1 23.4 C 209.3 23.8 209.6 24 210 24 C 210 24 210 24 210 24 Z M 205.9 16.9 C 203.1 17.3 201.1 17.9 200 18.8 C 199.1 19.5 198.6 20.4 198.6 21.6 C 198.6 22.5 198.9 23.1 199.3 23.6 C 199.8 24.1 200.4 24.3 201.1 24.3 C 202.4 24.3 203.5 23.8 204.5 22.9 C 205.5 21.9 205.9 20.6 205.9 19.1 C 205.9 19.1 205.9 16.9 205.9 16.9 Z M 237.3 13.6 C 237.7 14.7 237.9 15.9 237.9 17.5 C 237.9 17.5 226.8 17.5 226.8 17.5 C 226.8 19.9 227.3 21.5 228.1 22.5 C 229 23.6 230.2 24.2 231.7 24.2 C 233.9 24.2 235.6 22.9 236.9 20.5 C 236.9 20.5 238 20.9 238 20.9 C 236.4 24.1 234.1 25.6 231 25.6 C 228.9 25.6 227.2 24.9 225.8 23.4 C 224.3 21.9 223.6 19.9 223.6 17.6 C 223.6 15.1 224.3 13 225.7 11.5 C 227.1 9.9 228.9 9.1 230.9 9.1 C 232.4 9.1 233.7 9.5 234.8 10.3 C 235.9 11.1 236.7 12.2 237.3 13.6 C 237.3 13.6 237.3 13.6 237.3 13.6 Z M 226.8 16.3 C 226.8 16.3 233.5 16.3 233.5 16.3 C 233.9 16.3 234.2 16.2 234.4 15.9 C 234.6 15.6 234.8 15.2 234.8 14.5 C 234.8 13.3 234.4 12.3 233.6 11.4 C 232.9 10.6 232 10.1 230.9 10.1 C 229.8 10.1 228.8 10.7 228 11.7 C 227.2 12.7 226.8 14.3 226.8 16.3 Z M 249.1 0.6 L 255.2 0.3 C 255.2 0.3 255.19 21.62 255.2 21.6 C 255.2 22.4 255.4 23 255.7 23.4 C 256 23.7 256.5 23.9 257.1 23.9 C 257.09 23.92 258.2 23.9 258.2 23.9 L 258.2 25.2 L 252.9 25.2 C 252.9 25.2 252.45 22 252.5 22 C 251.8 23.1 251.1 24 250.2 24.5 C 249.4 25.1 248.4 25.4 247.4 25.4 C 245.6 25.4 244.1 24.7 242.9 23.2 C 241.6 21.7 241 19.7 241 17.3 C 241 14.7 241.8 12.6 243.4 11 C 244.6 9.8 246.1 9.1 247.7 9.1 C 248.7 9.1 249.6 9.4 250.4 9.9 C 251.2 10.4 251.9 11.1 252.5 12.2 C 252.5 12.2 252.5 3.4 252.5 3.4 C 252.5 2.9 252.3 2.5 251.9 2.3 C 251.6 2 251 1.9 250.2 1.9 C 250.23 1.86 249.1 1.9 249.1 1.9 L 249.1 0.6 Z M 251.1 12.1 C 250.3 11.1 249.3 10.5 248.2 10.5 C 247 10.5 246 11 245.3 12 C 244.6 13 244.3 14.6 244.3 17 C 244.3 19.5 244.6 21.3 245.3 22.3 C 246.1 23.4 247 23.9 248.1 23.9 C 249.3 23.9 250.3 23.3 251.2 22.2 C 252.1 21 252.5 19.3 252.5 17.1 C 252.5 15 252 13.3 251.1 12.1 C 251.1 12.1 251.1 12.1 251.1 12.1 Z M 265.2 9.3 C 265.2 9.3 265.15 19.64 265.2 19.6 C 265.2 20.9 265.5 21.9 266.1 22.6 C 266.7 23.2 267.6 23.6 268.6 23.6 C 269.8 23.6 270.9 23.1 271.7 22.1 C 272.6 21.1 273 19.8 273 18.3 C 273 18.3 273 12.5 273 12.5 C 273 12 272.8 11.6 272.5 11.3 C 272.1 11 271.3 10.8 270.3 10.8 C 270.25 10.77 270.3 9.6 270.3 9.6 L 275.7 9.3 C 275.7 9.3 275.71 22.1 275.7 22.1 C 275.7 22.7 275.9 23.1 276.2 23.4 C 276.5 23.8 277 23.9 277.6 23.9 C 277.61 23.92 278.6 23.9 278.6 23.9 L 278.6 25 L 273.4 25.2 C 273.4 25.2 273.02 22.1 273 22.1 C 272.1 23.2 271.2 24 270.2 24.6 C 269.3 25.1 268.3 25.4 267.4 25.4 C 266 25.4 264.8 24.9 263.8 24 C 262.9 23.1 262.4 21.5 262.4 19.3 C 262.4 19.3 262.4 12.5 262.4 12.5 C 262.4 11.9 262.2 11.4 261.7 11.1 C 261.4 10.9 260.7 10.8 259.6 10.8 C 259.64 10.77 259.6 9.6 259.6 9.6 L 265.2 9.3 Z M 280.3 0.6 L 286.3 0.3 L 286.3 17.3 C 286.3 17.3 291.33 12.91 291.3 12.9 C 291.8 12.5 292.1 12.1 292.1 11.8 C 292.1 11.5 291.9 11.3 291.6 11.1 C 291.2 10.9 290.5 10.8 289.5 10.8 C 289.53 10.77 289.5 9.6 289.5 9.6 L 297.8 9.6 C 297.8 9.6 297.81 10.77 297.8 10.8 C 296.2 10.9 294.9 11.3 294.1 12.1 C 294.06 12.07 290.5 15.2 290.5 15.2 C 290.5 15.2 296.28 23.21 296.3 23.2 C 296.6 23.7 297.3 23.9 298.1 23.9 C 298.13 23.92 299 23.9 299 23.9 L 299 25.2 L 290.5 25.2 L 290.5 23.9 C 290.5 23.9 291.34 23.92 291.3 23.9 C 292 23.9 292.4 23.9 292.6 23.8 C 292.8 23.6 292.9 23.5 292.9 23.4 C 292.9 23.2 292.9 23 292.8 22.9 C 292.76 22.89 288.5 17 288.5 17 L 286.3 19 C 286.3 19 286.27 22.89 286.3 22.9 C 286.3 23.2 286.4 23.5 286.6 23.6 C 286.9 23.8 287.3 23.9 287.8 23.9 C 287.83 23.92 288.9 23.9 288.9 23.9 L 288.9 25.2 L 280.6 25.2 L 280.6 23.9 C 280.6 23.9 281.91 23.92 281.9 23.9 C 282.5 23.9 282.9 23.8 283.1 23.6 C 283.4 23.3 283.5 23 283.5 22.6 C 283.5 22.6 283.5 3.5 283.5 3.5 C 283.5 3 283.4 2.6 283.1 2.4 C 282.6 2 282 1.9 281.2 1.9 C 281.18 1.86 280.3 1.9 280.3 1.9 L 280.3 0.6 Z M 315.8 24 C 316.3 24 316.7 23.8 317.2 23.5 C 317.2 23.5 317.8 24.4 317.8 24.4 C 317 25.2 316.1 25.6 315.1 25.6 C 314.3 25.6 313.7 25.4 313.2 25 C 312.7 24.6 312.2 23.9 311.8 22.9 C 310.8 24 309.9 24.7 309.1 25.1 C 308.3 25.4 307.3 25.6 306.2 25.6 C 304.6 25.6 303.4 25.3 302.6 24.6 C 301.7 23.9 301.3 23 301.3 22 C 301.3 20.3 302.3 19 304.2 17.9 C 306.1 16.9 308.6 16.2 311.7 15.8 C 311.7 15.8 311.7 13.4 311.7 13.4 C 311.7 12.6 311.4 11.9 310.7 11.3 C 310.1 10.7 309.2 10.4 308.2 10.4 C 307.2 10.4 306.4 10.6 305.7 11 C 305.2 11.3 304.9 11.6 304.9 11.9 C 304.9 12 305 12.3 305.3 12.7 C 305.6 13.1 305.8 13.5 305.8 13.8 C 305.8 14.3 305.6 14.7 305.3 15 C 305 15.4 304.6 15.5 304.1 15.5 C 303.5 15.5 303 15.3 302.7 15 C 302.3 14.6 302.1 14.1 302.1 13.5 C 302.1 12.4 302.7 11.4 304 10.5 C 305.2 9.6 306.8 9.1 308.8 9.1 C 310.7 9.1 312.1 9.5 313.1 10.3 C 314 11.2 314.5 12.1 314.5 13.3 C 314.5 13.3 314.5 21.8 314.5 21.8 C 314.5 22.5 314.6 23.1 314.9 23.4 C 315.1 23.8 315.4 24 315.8 24 C 315.8 24 315.8 24 315.8 24 Z M 311.7 16.9 C 308.9 17.3 306.9 17.9 305.8 18.8 C 304.9 19.5 304.5 20.4 304.5 21.6 C 304.5 22.5 304.7 23.1 305.1 23.6 C 305.6 24.1 306.2 24.3 306.9 24.3 C 308.2 24.3 309.3 23.8 310.3 22.9 C 311.3 21.9 311.7 20.6 311.7 19.1 C 311.7 19.1 311.7 16.9 311.7 16.9 Z M 321.5 19.3 C 322.2 21.2 323 22.5 323.9 23.3 C 324.8 24 325.9 24.4 327.2 24.4 C 328.4 24.4 329.3 24.1 330 23.6 C 330.6 23.1 330.9 22.4 330.9 21.6 C 330.9 21.1 330.8 20.7 330.6 20.4 C 330.4 20 330 19.8 329.6 19.6 C 329.2 19.4 328.1 19.2 326.3 18.8 C 324.6 18.5 323.5 18.2 322.8 17.8 C 322.1 17.4 321.6 16.9 321.2 16.3 C 320.9 15.6 320.7 14.9 320.7 14.2 C 320.7 13.1 321.1 12 321.8 11.1 C 322.8 9.9 324.2 9.3 326 9.3 C 327.3 9.3 328.6 9.7 329.7 10.6 C 329.73 10.59 330.8 9.4 330.8 9.4 L 331.5 9.4 L 331.9 15 C 331.9 15 330.83 14.97 330.8 15 C 330.3 13.4 329.7 12.3 328.9 11.6 C 328 10.9 327 10.5 325.8 10.5 C 324.7 10.5 323.9 10.8 323.3 11.3 C 322.7 11.8 322.4 12.5 322.4 13.2 C 322.4 13.9 322.7 14.4 323.2 14.8 C 323.8 15.3 324.8 15.6 326.4 15.9 C 328.3 16.2 329.5 16.4 330 16.7 C 330.9 17 331.6 17.5 332.1 18.2 C 332.6 18.9 332.9 19.7 332.9 20.7 C 332.9 22.1 332.3 23.3 331.3 24.2 C 330.2 25.2 328.8 25.6 327.1 25.6 C 325.6 25.6 324.2 25.1 322.8 24.1 C 322.85 24.11 321.6 25.5 321.6 25.5 L 320.8 25.5 L 320.4 19.3 C 320.4 19.3 321.53 19.31 321.5 19.3 Z M 335 9.6 L 342.5 9.6 L 342.5 10.7 C 342.5 10.7 341.8 10.74 341.8 10.7 C 341.2 10.7 340.7 10.8 340.5 11 C 340.2 11.2 340.1 11.4 340.1 11.7 C 340.1 11.9 340.1 12 340.2 12.2 C 340.21 12.17 344.5 21.5 344.5 21.5 C 344.5 21.5 347.76 13.76 347.8 13.8 C 348 13.2 348.1 12.7 348.1 12.1 C 348.1 11.7 348 11.4 347.6 11.2 C 347.3 11 346.7 10.8 345.7 10.7 C 345.71 10.74 345.7 9.6 345.7 9.6 L 352.2 9.6 C 352.2 9.6 352.18 10.74 352.2 10.7 C 350.9 10.9 350.1 11.4 349.7 12.4 C 349.7 12.4 343.9 25.8 343.9 25.8 C 342.9 28.1 341.9 29.6 341 30.5 C 340 31.4 338.9 31.8 337.8 31.8 C 336.9 31.8 336.3 31.6 335.8 31.1 C 335.2 30.7 335 30.1 335 29.4 C 335 28.9 335.2 28.5 335.5 28.2 C 335.8 27.9 336.2 27.7 336.6 27.7 C 337 27.7 337.4 27.9 337.7 28.1 C 338 28.4 338.1 28.7 338.1 29.1 C 338.1 29.3 338.1 29.4 338.1 29.6 C 338 29.8 338 29.9 338 30 C 338 30.3 338.2 30.4 338.5 30.4 C 338.9 30.4 339.3 30.3 339.7 30 C 340.2 29.7 340.6 29.3 341 28.7 C 341.4 28.1 342.1 26.8 343.1 24.8 C 343.1 24.8 337.2 12.2 337.2 12.2 C 337 11.7 336.7 11.4 336.4 11.2 C 336.1 11 335.7 10.8 335 10.7 C 335.05 10.74 335 9.6 335 9.6 Z M 361 9.1 C 363.1 9.1 364.8 9.9 366.3 11.4 C 367.7 12.9 368.4 14.9 368.4 17.4 C 368.4 19.1 368.1 20.5 367.4 21.7 C 366.8 22.9 365.9 23.9 364.7 24.6 C 363.5 25.3 362.3 25.6 360.9 25.6 C 358.9 25.6 357.2 24.9 355.8 23.3 C 354.4 21.8 353.7 19.8 353.7 17.4 C 353.7 15 354.4 13 355.8 11.4 C 357.2 9.9 358.9 9.1 361 9.1 Z M 361 10.3 C 359.8 10.3 358.7 10.9 357.9 12 C 357.1 13.1 356.7 14.9 356.7 17.3 C 356.7 19.8 357.1 21.6 357.9 22.7 C 358.7 23.9 359.7 24.5 361 24.5 C 362.3 24.5 363.3 23.9 364.1 22.7 C 364.9 21.6 365.3 19.7 365.3 17.1 C 365.3 14.7 364.9 13 364.2 11.9 C 363.4 10.9 362.3 10.3 361 10.3 Z M 370.7 9.6 C 370.7 9.6 375.82 9.3 375.8 9.3 C 376 10.3 376.2 11.4 376.3 12.7 C 377 11.6 377.8 10.7 378.8 10.2 C 379.7 9.6 380.8 9.3 382 9.3 C 383 9.3 383.9 9.5 384.6 9.9 C 385.3 10.3 385.8 11 386.2 11.9 C 386.7 12.7 386.9 13.7 386.9 14.8 C 386.9 14.8 386.9 22.4 386.9 22.4 C 386.9 22.9 387 23.3 387.2 23.6 C 387.5 23.8 387.9 23.9 388.5 23.9 C 388.52 23.92 389.6 23.9 389.6 23.9 L 389.6 25.2 L 381.4 25.2 L 381.4 23.9 C 381.4 23.9 382.2 23.92 382.2 23.9 C 382.9 23.9 383.4 23.8 383.7 23.6 C 384 23.3 384.2 23 384.2 22.5 C 384.2 22.5 384.2 15.9 384.2 15.9 C 384.2 14.4 383.9 13.3 383.5 12.7 C 382.9 11.7 381.9 11.2 380.7 11.2 C 379.4 11.2 378.4 11.7 377.5 12.7 C 376.7 13.7 376.3 15 376.3 16.6 C 376.3 16.6 376.3 22.4 376.3 22.4 C 376.3 22.9 376.4 23.3 376.7 23.6 C 376.9 23.8 377.4 23.9 378 23.9 C 377.96 23.92 379 23.9 379 23.9 L 379 25.2 L 370.8 25.2 L 370.8 23.9 C 370.8 23.9 371.89 23.92 371.9 23.9 C 372.4 23.9 372.8 23.8 373.1 23.6 C 373.4 23.4 373.5 23.1 373.5 22.8 C 373.5 22.8 373.5 12.7 373.5 12.7 C 373.5 12.1 373.4 11.5 373 11.2 C 372.6 10.9 372.1 10.7 371.5 10.7 C 371.45 10.69 370.7 10.7 370.7 10.7 L 370.7 9.6 Z M 402.7 19.3 C 403.4 21.2 404.2 22.5 405.1 23.3 C 406 24 407.1 24.4 408.4 24.4 C 409.6 24.4 410.5 24.1 411.2 23.6 C 411.8 23.1 412.2 22.4 412.2 21.6 C 412.2 21.1 412 20.7 411.8 20.4 C 411.6 20 411.2 19.8 410.8 19.6 C 410.4 19.4 409.3 19.2 407.5 18.8 C 405.9 18.5 404.7 18.2 404 17.8 C 403.3 17.4 402.8 16.9 402.5 16.3 C 402.1 15.6 401.9 14.9 401.9 14.2 C 401.9 13.1 402.3 12 403 11.1 C 404 9.9 405.4 9.3 407.2 9.3 C 408.5 9.3 409.8 9.7 410.9 10.6 C 410.95 10.59 412 9.4 412 9.4 L 412.7 9.4 L 413.2 15 C 413.2 15 412.05 14.97 412 15 C 411.6 13.4 410.9 12.3 410.1 11.6 C 409.2 10.9 408.2 10.5 407 10.5 C 405.9 10.5 405.1 10.8 404.5 11.3 C 403.9 11.8 403.6 12.5 403.6 13.2 C 403.6 13.9 403.9 14.4 404.4 14.8 C 405 15.3 406.1 15.6 407.6 15.9 C 409.5 16.2 410.7 16.4 411.2 16.7 C 412.1 17 412.8 17.5 413.3 18.2 C 413.8 18.9 414.1 19.7 414.1 20.7 C 414.1 22.1 413.5 23.3 412.5 24.2 C 411.4 25.2 410 25.6 408.4 25.6 C 406.8 25.6 405.4 25.1 404.1 24.1 C 404.06 24.11 402.8 25.5 402.8 25.5 L 402 25.5 L 401.6 19.3 C 401.6 19.3 402.75 19.31 402.7 19.3 Z M 431.7 24 C 432.1 24 432.6 23.8 433 23.5 C 433 23.5 433.6 24.4 433.6 24.4 C 432.8 25.2 431.9 25.6 431 25.6 C 430.2 25.6 429.6 25.4 429.1 25 C 428.5 24.6 428.1 23.9 427.7 22.9 C 426.6 24 425.7 24.7 424.9 25.1 C 424.1 25.4 423.2 25.6 422.1 25.6 C 420.5 25.6 419.3 25.3 418.4 24.6 C 417.6 23.9 417.2 23 417.2 22 C 417.2 20.3 418.1 19 420 17.9 C 421.9 16.9 424.4 16.2 427.6 15.8 C 427.6 15.8 427.6 13.4 427.6 13.4 C 427.6 12.6 427.3 11.9 426.6 11.3 C 425.9 10.7 425.1 10.4 424 10.4 C 423.1 10.4 422.2 10.6 421.5 11 C 421 11.3 420.8 11.6 420.8 11.9 C 420.8 12 420.9 12.3 421.2 12.7 C 421.5 13.1 421.7 13.5 421.7 13.8 C 421.7 14.3 421.5 14.7 421.2 15 C 420.9 15.4 420.4 15.5 419.9 15.5 C 419.4 15.5 418.9 15.3 418.5 15 C 418.2 14.6 418 14.1 418 13.5 C 418 12.4 418.6 11.4 419.8 10.5 C 421.1 9.6 422.7 9.1 424.7 9.1 C 426.5 9.1 427.9 9.5 428.9 10.3 C 429.9 11.2 430.4 12.1 430.4 13.3 C 430.4 13.3 430.4 21.8 430.4 21.8 C 430.4 22.5 430.5 23.1 430.7 23.4 C 431 23.8 431.3 24 431.7 24 C 431.7 24 431.7 24 431.7 24 Z M 427.6 16.9 C 424.8 17.3 422.8 17.9 421.6 18.8 C 420.8 19.5 420.3 20.4 420.3 21.6 C 420.3 22.5 420.5 23.1 421 23.6 C 421.4 24.1 422 24.3 422.8 24.3 C 424.1 24.3 425.2 23.8 426.2 22.9 C 427.1 21.9 427.6 20.6 427.6 19.1 C 427.6 19.1 427.6 16.9 427.6 16.9 Z M 456.9 10.5 C 458 9.4 459 8.8 459.9 8.8 C 460.5 8.8 461 9 461.3 9.3 C 461.7 9.7 461.9 10.1 461.9 10.6 C 461.9 11.1 461.7 11.4 461.5 11.7 C 461.2 11.9 461 12.1 460.6 12.1 C 460 12.1 459.6 11.7 459.3 10.9 C 459.3 10.6 459.1 10.4 458.9 10.4 C 458.5 10.4 458.1 10.7 457.7 11.2 C 458.1 11.8 458.5 12.4 458.6 12.9 C 458.8 13.3 458.9 13.9 458.9 14.4 C 458.9 15.4 458.7 16.2 458.2 17 C 457.7 17.7 457 18.3 455.9 18.9 C 454.8 19.5 453.8 19.8 452.8 19.8 C 452.8 19.8 451 19.8 451 19.8 C 449.7 19.8 448.9 19.9 448.4 20.2 C 448 20.4 447.8 20.8 447.8 21.4 C 447.8 21.8 448 22.1 448.3 22.4 C 448.7 22.6 449.3 22.7 450.3 22.7 C 450.3 22.7 454.4 22.6 454.4 22.6 C 456.4 22.6 457.9 23 458.8 23.7 C 459.8 24.4 460.2 25.3 460.2 26.5 C 460.2 27.8 459.7 29 458.6 29.9 C 457.2 31.1 455 31.8 452.2 31.8 C 449.8 31.8 448 31.4 446.9 30.5 C 446 29.8 445.5 29 445.5 28.2 C 445.5 27.5 445.8 26.9 446.4 26.4 C 447 25.8 447.9 25.4 449.3 25.2 C 448.2 24.9 447.4 24.5 446.8 24 C 446.3 23.5 446 22.8 446 22.1 C 446 21.4 446.2 20.8 446.7 20.2 C 447.1 19.7 447.9 19.3 449 18.9 C 448.1 18.4 447.4 17.7 446.9 17 C 446.4 16.3 446.2 15.4 446.2 14.5 C 446.2 13 446.8 11.7 447.9 10.7 C 449.1 9.7 450.7 9.1 452.6 9.1 C 453.3 9.1 454.1 9.3 454.8 9.5 C 455.5 9.7 456.2 10 456.9 10.5 Z M 452.5 10.2 C 451.5 10.2 450.7 10.6 450.1 11.3 C 449.4 12 449.1 13 449.1 14.3 C 449.1 15.7 449.4 16.8 450.1 17.6 C 450.7 18.4 451.5 18.7 452.5 18.7 C 453.5 18.7 454.3 18.4 455 17.6 C 455.6 16.9 455.9 15.8 455.9 14.4 C 455.9 13.1 455.6 12.1 455 11.3 C 454.3 10.6 453.5 10.2 452.5 10.2 Z M 453.5 25.2 C 451.5 25.2 450 25.5 449.1 26 C 448.3 26.6 447.8 27.3 447.8 28.1 C 447.8 28.8 448.2 29.4 448.8 29.8 C 449.7 30.4 450.9 30.7 452.5 30.7 C 454.4 30.7 455.8 30.4 456.8 29.8 C 457.8 29.1 458.2 28.4 458.2 27.7 C 458.2 27.2 458.1 26.8 457.8 26.4 C 457.5 26 457 25.7 456.4 25.5 C 455.7 25.3 454.8 25.2 453.5 25.2 Z M 467.2 0.3 C 467.7 0.3 468.2 0.5 468.6 0.9 C 468.9 1.3 469.1 1.7 469.1 2.2 C 469.1 2.7 468.9 3.2 468.6 3.5 C 468.2 3.9 467.8 4.1 467.3 4.1 C 466.8 4.1 466.3 3.9 465.9 3.5 C 465.6 3.1 465.4 2.7 465.4 2.2 C 465.4 1.7 465.6 1.3 466 0.9 C 466.3 0.5 466.8 0.3 467.2 0.3 Z M 462.9 9.6 L 469.1 9.4 C 469.1 9.4 469.12 22.81 469.1 22.8 C 469.1 23.2 469.2 23.4 469.4 23.6 C 469.6 23.8 470 23.9 470.4 23.9 C 470.35 23.92 472.1 23.9 472.1 23.9 L 472.1 25.2 L 463.3 25.2 L 463.3 23.9 C 463.3 23.9 464.9 23.92 464.9 23.9 C 465.4 23.9 465.7 23.8 466 23.6 C 466.2 23.3 466.3 23 466.3 22.5 C 466.3 22.5 466.3 12.7 466.3 12.7 C 466.3 12.1 466.1 11.6 465.8 11.3 C 465.4 11 464.9 10.9 464.2 10.9 C 464.21 10.86 462.9 10.9 462.9 10.9 L 462.9 9.6 Z M 476.5 8.4 C 477.4 7.2 478 5.5 478 3.3 C 478.04 3.27 479.1 3.3 479.1 3.3 L 479.1 9.6 L 484.2 9.6 L 484.2 11.1 L 479.1 11.1 C 479.1 11.1 479.15 21.12 479.1 21.1 C 479.1 22 479.4 22.6 479.8 23.1 C 480.2 23.6 480.7 23.8 481.3 23.8 C 482.1 23.8 482.7 23.4 483.2 22.7 C 483.8 22 484.1 20.9 484.2 19.3 C 484.2 19.3 485.3 19.3 485.3 19.3 C 485.2 21.4 484.8 22.9 483.9 23.9 C 483 24.9 481.9 25.4 480.5 25.4 C 479.2 25.4 478.2 25 477.5 24.3 C 476.7 23.6 476.4 22.7 476.4 21.6 C 476.38 21.58 476.4 11.1 476.4 11.1 L 473.7 11.1 C 473.7 11.1 473.67 9.98 473.7 10 C 474.9 9.8 475.8 9.3 476.5 8.4 C 476.5 8.4 476.5 8.4 476.5 8.4 Z M 487.2 9.6 C 487.2 9.6 492.33 9.3 492.3 9.3 C 492.5 10.3 492.7 11.4 492.8 12.7 C 493.5 11.6 494.3 10.7 495.3 10.2 C 496.2 9.6 497.3 9.3 498.5 9.3 C 499.5 9.3 500.4 9.5 501.1 9.9 C 501.8 10.3 502.3 11 502.7 11.9 C 503.2 12.7 503.4 13.7 503.4 14.8 C 503.4 14.8 503.4 22.4 503.4 22.4 C 503.4 22.9 503.5 23.3 503.8 23.6 C 504 23.8 504.4 23.9 505 23.9 C 505.03 23.92 506.1 23.9 506.1 23.9 L 506.1 25.2 L 497.9 25.2 L 497.9 23.9 C 497.9 23.9 498.71 23.92 498.7 23.9 C 499.4 23.9 499.9 23.8 500.2 23.6 C 500.5 23.3 500.7 23 500.7 22.5 C 500.7 22.5 500.7 15.9 500.7 15.9 C 500.7 14.4 500.4 13.3 500 12.7 C 499.4 11.7 498.4 11.2 497.2 11.2 C 495.9 11.2 494.9 11.7 494 12.7 C 493.2 13.7 492.8 15 492.8 16.6 C 492.8 16.6 492.8 22.4 492.8 22.4 C 492.8 22.9 492.9 23.3 493.2 23.6 C 493.4 23.8 493.9 23.9 494.5 23.9 C 494.47 23.92 495.6 23.9 495.6 23.9 L 495.6 25.2 L 487.3 25.2 L 487.3 23.9 C 487.3 23.9 488.4 23.92 488.4 23.9 C 488.9 23.9 489.4 23.8 489.6 23.6 C 489.9 23.4 490.1 23.1 490.1 22.8 C 490.1 22.8 490.1 12.7 490.1 12.7 C 490.1 12.1 489.9 11.5 489.5 11.2 C 489.2 10.9 488.6 10.7 488 10.7 C 487.96 10.69 487.2 10.7 487.2 10.7 L 487.2 9.6 Z M 523 24 C 523.4 24 523.9 23.8 524.4 23.5 C 524.4 23.5 525 24.4 525 24.4 C 524.2 25.2 523.3 25.6 522.3 25.6 C 521.5 25.6 520.9 25.4 520.4 25 C 519.9 24.6 519.4 23.9 519 22.9 C 518 24 517.1 24.7 516.3 25.1 C 515.5 25.4 514.5 25.6 513.4 25.6 C 511.8 25.6 510.6 25.3 509.7 24.6 C 508.9 23.9 508.5 23 508.5 22 C 508.5 20.3 509.4 19 511.3 17.9 C 513.2 16.9 515.8 16.2 518.9 15.8 C 518.9 15.8 518.9 13.4 518.9 13.4 C 518.9 12.6 518.6 11.9 517.9 11.3 C 517.2 10.7 516.4 10.4 515.3 10.4 C 514.4 10.4 513.5 10.6 512.9 11 C 512.4 11.3 512.1 11.6 512.1 11.9 C 512.1 12 512.2 12.3 512.5 12.7 C 512.8 13.1 513 13.5 513 13.8 C 513 14.3 512.8 14.7 512.5 15 C 512.2 15.4 511.8 15.5 511.2 15.5 C 510.7 15.5 510.2 15.3 509.9 15 C 509.5 14.6 509.3 14.1 509.3 13.5 C 509.3 12.4 509.9 11.4 511.1 10.5 C 512.4 9.6 514 9.1 516 9.1 C 517.9 9.1 519.3 9.5 520.2 10.3 C 521.2 11.2 521.7 12.1 521.7 13.3 C 521.7 13.3 521.7 21.8 521.7 21.8 C 521.7 22.5 521.8 23.1 522.1 23.4 C 522.3 23.8 522.6 24 523 24 C 523 24 523 24 523 24 Z M 518.9 16.9 C 516.1 17.3 514.1 17.9 512.9 18.8 C 512.1 19.5 511.6 20.4 511.6 21.6 C 511.6 22.5 511.9 23.1 512.3 23.6 C 512.8 24.1 513.4 24.3 514.1 24.3 C 515.4 24.3 516.5 23.8 517.5 22.9 C 518.4 21.9 518.9 20.6 518.9 19.1 C 518.9 19.1 518.9 16.9 518.9 16.9 Z M 536.3 9.6 C 536.3 9.6 541.45 9.3 541.5 9.3 C 541.7 10.3 541.8 11.4 541.9 12.7 C 542.6 11.6 543.4 10.7 544.4 10.2 C 545.3 9.6 546.4 9.3 547.6 9.3 C 548.6 9.3 549.5 9.5 550.2 9.9 C 550.9 10.3 551.4 11 551.9 11.9 C 552.3 12.7 552.5 13.7 552.5 14.8 C 552.5 14.8 552.5 22.4 552.5 22.4 C 552.5 22.9 552.6 23.3 552.9 23.6 C 553.1 23.8 553.6 23.9 554.2 23.9 C 554.15 23.92 555.3 23.9 555.3 23.9 L 555.3 25.2 L 547 25.2 L 547 23.9 C 547 23.9 547.83 23.92 547.8 23.9 C 548.6 23.9 549.1 23.8 549.4 23.6 C 549.6 23.3 549.8 23 549.8 22.5 C 549.8 22.5 549.8 15.9 549.8 15.9 C 549.8 14.4 549.6 13.3 549.1 12.7 C 548.5 11.7 547.6 11.2 546.3 11.2 C 545.1 11.2 544 11.7 543.2 12.7 C 542.3 13.7 541.9 15 541.9 16.6 C 541.9 16.6 541.9 22.4 541.9 22.4 C 541.9 22.9 542 23.3 542.3 23.6 C 542.6 23.8 543 23.9 543.6 23.9 C 543.6 23.92 544.7 23.9 544.7 23.9 L 544.7 25.2 L 536.4 25.2 L 536.4 23.9 C 536.4 23.9 537.52 23.92 537.5 23.9 C 538.1 23.9 538.5 23.8 538.8 23.6 C 539 23.4 539.2 23.1 539.2 22.8 C 539.2 22.8 539.2 12.7 539.2 12.7 C 539.2 12.1 539 11.5 538.6 11.2 C 538.3 10.9 537.8 10.7 537.1 10.7 C 537.09 10.69 536.3 10.7 536.3 10.7 L 536.3 9.6 Z M 569 10.5 C 570.1 9.4 571.1 8.8 572 8.8 C 572.6 8.8 573 9 573.4 9.3 C 573.8 9.7 574 10.1 574 10.6 C 574 11.1 573.8 11.4 573.6 11.7 C 573.3 11.9 573 12.1 572.7 12.1 C 572.1 12.1 571.7 11.7 571.4 10.9 C 571.3 10.6 571.2 10.4 571 10.4 C 570.6 10.4 570.2 10.7 569.8 11.2 C 570.2 11.8 570.6 12.4 570.7 12.9 C 570.9 13.3 571 13.9 571 14.4 C 571 15.4 570.8 16.2 570.3 17 C 569.8 17.7 569.1 18.3 568 18.9 C 566.9 19.5 565.9 19.8 564.9 19.8 C 564.9 19.8 563.1 19.8 563.1 19.8 C 561.8 19.8 561 19.9 560.5 20.2 C 560.1 20.4 559.9 20.8 559.9 21.4 C 559.9 21.8 560.1 22.1 560.4 22.4 C 560.8 22.6 561.4 22.7 562.4 22.7 C 562.4 22.7 566.5 22.6 566.5 22.6 C 568.5 22.6 570 23 570.9 23.7 C 571.8 24.4 572.3 25.3 572.3 26.5 C 572.3 27.8 571.8 29 570.7 29.9 C 569.3 31.1 567.1 31.8 564.2 31.8 C 561.9 31.8 560.1 31.4 559 30.5 C 558 29.8 557.6 29 557.6 28.2 C 557.6 27.5 557.9 26.9 558.5 26.4 C 559 25.8 560 25.4 561.4 25.2 C 560.3 24.9 559.5 24.5 558.9 24 C 558.4 23.5 558.1 22.8 558.1 22.1 C 558.1 21.4 558.3 20.8 558.8 20.2 C 559.2 19.7 560 19.3 561.1 18.9 C 560.2 18.4 559.4 17.7 559 17 C 558.5 16.3 558.3 15.4 558.3 14.5 C 558.3 13 558.8 11.7 560 10.7 C 561.2 9.7 562.8 9.1 564.6 9.1 C 565.4 9.1 566.2 9.3 566.9 9.5 C 567.6 9.7 568.3 10 569 10.5 Z M 564.6 10.2 C 563.6 10.2 562.8 10.6 562.2 11.3 C 561.5 12 561.2 13 561.2 14.3 C 561.2 15.7 561.5 16.8 562.2 17.6 C 562.8 18.4 563.6 18.7 564.6 18.7 C 565.6 18.7 566.4 18.4 567.1 17.6 C 567.7 16.9 568 15.8 568 14.4 C 568 13.1 567.7 12.1 567.1 11.3 C 566.4 10.6 565.6 10.2 564.6 10.2 Z M 565.6 25.2 C 563.6 25.2 562.1 25.5 561.2 26 C 560.4 26.6 559.9 27.3 559.9 28.1 C 559.9 28.8 560.3 29.4 560.9 29.8 C 561.8 30.4 563 30.7 564.6 30.7 C 566.5 30.7 567.9 30.4 568.9 29.8 C 569.9 29.1 570.3 28.4 570.3 27.7 C 570.3 27.2 570.2 26.8 569.9 26.4 C 569.6 26 569.1 25.7 568.5 25.5 C 567.8 25.3 566.9 25.2 565.6 25.2 Z M 589.7 9.3 C 589.9 10.5 590.1 11.6 590.1 12.7 C 590.9 11.5 591.7 10.6 592.5 10.1 C 593.4 9.6 594.3 9.3 595.3 9.3 C 596.3 9.3 597.4 9.7 598.3 10.3 C 599.3 11 600.1 11.9 600.7 13.2 C 601.3 14.4 601.6 15.9 601.6 17.4 C 601.6 20 600.8 22 599.4 23.6 C 598.1 25 596.7 25.6 595 25.6 C 594 25.6 593.1 25.4 592.3 24.9 C 591.5 24.4 590.9 23.6 590.2 22.7 C 590.2 22.7 590.2 29 590.2 29 C 590.2 29.4 590.4 29.8 590.6 30 C 590.9 30.2 591.3 30.4 591.8 30.4 C 591.84 30.38 593 30.4 593 30.4 L 593 31.6 L 584.7 31.6 L 584.7 30.4 C 584.7 30.4 585.81 30.38 585.8 30.4 C 586.3 30.4 586.7 30.3 587 30.1 C 587.3 29.9 587.4 29.6 587.4 29.2 C 587.4 29.2 587.4 12.9 587.4 12.9 C 587.4 12.1 587.2 11.6 586.9 11.2 C 586.5 10.9 585.8 10.8 584.7 10.7 C 584.67 10.72 584.7 9.6 584.7 9.6 C 584.7 9.6 589.7 9.33 589.7 9.3 Z M 594.5 10.8 C 593.3 10.8 592.3 11.4 591.5 12.6 C 590.6 13.7 590.2 15.4 590.2 17.6 C 590.2 19.9 590.6 21.5 591.4 22.6 C 592.2 23.6 593.3 24.2 594.5 24.2 C 595.7 24.2 596.6 23.7 597.2 22.8 C 598 21.6 598.4 19.9 598.4 17.5 C 598.4 15.1 598 13.4 597.3 12.4 C 596.6 11.4 595.7 10.8 594.5 10.8 Z M 619.4 24 C 619.8 24 620.3 23.8 620.7 23.5 C 620.7 23.5 621.3 24.4 621.3 24.4 C 620.5 25.2 619.6 25.6 618.6 25.6 C 617.9 25.6 617.2 25.4 616.7 25 C 616.2 24.6 615.8 23.9 615.4 22.9 C 614.3 24 613.4 24.7 612.6 25.1 C 611.8 25.4 610.9 25.6 609.7 25.6 C 608.1 25.6 606.9 25.3 606.1 24.6 C 605.3 23.9 604.9 23 604.9 22 C 604.9 20.3 605.8 19 607.7 17.9 C 609.6 16.9 612.1 16.2 615.3 15.8 C 615.3 15.8 615.3 13.4 615.3 13.4 C 615.3 12.6 614.9 11.9 614.3 11.3 C 613.6 10.7 612.7 10.4 611.7 10.4 C 610.7 10.4 609.9 10.6 609.2 11 C 608.7 11.3 608.5 11.6 608.5 11.9 C 608.5 12 608.6 12.3 608.9 12.7 C 609.2 13.1 609.3 13.5 609.3 13.8 C 609.3 14.3 609.2 14.7 608.9 15 C 608.5 15.4 608.1 15.5 607.6 15.5 C 607 15.5 606.6 15.3 606.2 15 C 605.8 14.6 605.7 14.1 605.7 13.5 C 605.7 12.4 606.3 11.4 607.5 10.5 C 608.7 9.6 610.4 9.1 612.4 9.1 C 614.2 9.1 615.6 9.5 616.6 10.3 C 617.6 11.2 618.1 12.1 618.1 13.3 C 618.1 13.3 618.1 21.8 618.1 21.8 C 618.1 22.5 618.2 23.1 618.4 23.4 C 618.7 23.8 619 24 619.4 24 C 619.4 24 619.4 24 619.4 24 Z M 615.3 16.9 C 612.5 17.3 610.5 17.9 609.3 18.8 C 608.4 19.5 608 20.4 608 21.6 C 608 22.5 608.2 23.1 608.7 23.6 C 609.1 24.1 609.7 24.3 610.5 24.3 C 611.8 24.3 612.9 23.8 613.8 22.9 C 614.8 21.9 615.3 20.6 615.3 19.1 C 615.3 19.1 615.3 16.9 615.3 16.9 Z M 623.2 9.6 C 623.2 9.6 628.36 9.3 628.4 9.3 C 628.6 10.3 628.7 11.4 628.8 12.7 C 629.5 11.6 630.3 10.7 631.3 10.2 C 632.2 9.6 633.3 9.3 634.5 9.3 C 635.5 9.3 636.4 9.5 637.1 9.9 C 637.8 10.3 638.4 11 638.8 11.9 C 639.2 12.7 639.4 13.7 639.4 14.8 C 639.4 14.8 639.4 22.4 639.4 22.4 C 639.4 22.9 639.5 23.3 639.8 23.6 C 640 23.8 640.5 23.9 641.1 23.9 C 641.06 23.92 642.2 23.9 642.2 23.9 L 642.2 25.2 L 634 25.2 L 634 23.9 C 634 23.9 634.74 23.92 634.7 23.9 C 635.5 23.9 636 23.8 636.3 23.6 C 636.6 23.3 636.7 23 636.7 22.5 C 636.7 22.5 636.7 15.9 636.7 15.9 C 636.7 14.4 636.5 13.3 636 12.7 C 635.4 11.7 634.5 11.2 633.2 11.2 C 632 11.2 630.9 11.7 630.1 12.7 C 629.2 13.7 628.8 15 628.8 16.6 C 628.8 16.6 628.8 22.4 628.8 22.4 C 628.8 22.9 629 23.3 629.2 23.6 C 629.5 23.8 629.9 23.9 630.5 23.9 C 630.51 23.92 631.6 23.9 631.6 23.9 L 631.6 25.2 L 623.4 25.2 L 623.4 23.9 C 623.4 23.9 624.43 23.92 624.4 23.9 C 625 23.9 625.4 23.8 625.7 23.6 C 625.9 23.4 626.1 23.1 626.1 22.8 C 626.1 22.8 626.1 12.7 626.1 12.7 C 626.1 12.1 625.9 11.5 625.5 11.2 C 625.2 10.9 624.7 10.7 624 10.7 C 624 10.69 623.2 10.7 623.2 10.7 L 623.2 9.6 Z M 652.8 0.6 L 658.9 0.3 C 658.9 0.3 658.86 21.62 658.9 21.6 C 658.9 22.4 659 23 659.3 23.4 C 659.6 23.7 660.1 23.9 660.8 23.9 C 660.75 23.92 661.8 23.9 661.8 23.9 L 661.8 25.2 L 656.5 25.2 C 656.5 25.2 656.12 22 656.1 22 C 655.5 23.1 654.8 24 653.9 24.5 C 653.1 25.1 652.1 25.4 651.1 25.4 C 649.3 25.4 647.8 24.7 646.5 23.2 C 645.3 21.7 644.7 19.7 644.7 17.3 C 644.7 14.7 645.5 12.6 647.1 11 C 648.3 9.8 649.7 9.1 651.4 9.1 C 652.4 9.1 653.3 9.4 654.1 9.9 C 654.8 10.4 655.5 11.1 656.1 12.2 C 656.1 12.2 656.1 3.4 656.1 3.4 C 656.1 2.9 655.9 2.5 655.6 2.3 C 655.2 2 654.7 1.9 653.9 1.9 C 653.9 1.86 652.8 1.9 652.8 1.9 L 652.8 0.6 Z M 654.8 12.1 C 654 11.1 653 10.5 651.8 10.5 C 650.6 10.5 649.7 11 649 12 C 648.3 13 647.9 14.6 647.9 17 C 647.9 19.5 648.3 21.3 649 22.3 C 649.7 23.4 650.6 23.9 651.8 23.9 C 653 23.9 654 23.3 654.9 22.2 C 655.7 21 656.2 19.3 656.2 17.1 C 656.2 15 655.7 13.3 654.8 12.1 C 654.8 12.1 654.8 12.1 654.8 12.1 Z M 677.5 13.6 C 677.9 14.7 678.1 15.9 678.1 17.5 C 678.1 17.5 666.9 17.5 666.9 17.5 C 667 19.9 667.4 21.5 668.3 22.5 C 669.2 23.6 670.4 24.2 671.9 24.2 C 674.1 24.2 675.8 22.9 677.1 20.5 C 677.1 20.5 678.2 20.9 678.2 20.9 C 676.6 24.1 674.3 25.6 671.2 25.6 C 669.1 25.6 667.4 24.9 666 23.4 C 664.5 21.9 663.8 19.9 663.8 17.6 C 663.8 15.1 664.5 13 665.9 11.5 C 667.3 9.9 669 9.1 671.1 9.1 C 672.6 9.1 673.9 9.5 675 10.3 C 676.1 11.1 676.9 12.2 677.5 13.6 C 677.5 13.6 677.5 13.6 677.5 13.6 Z M 666.9 16.3 C 666.9 16.3 673.7 16.3 673.7 16.3 C 674.1 16.3 674.4 16.2 674.6 15.9 C 674.8 15.6 674.9 15.2 674.9 14.5 C 674.9 13.3 674.6 12.3 673.8 11.4 C 673.1 10.6 672.2 10.1 671.1 10.1 C 670 10.1 669 10.7 668.2 11.7 C 667.4 12.7 667 14.3 666.9 16.3 Z M 681.5 9.6 C 681.5 9.6 685.9 9.33 685.9 9.3 C 686.1 10.5 686.3 11.6 686.4 12.6 C 687.2 11.4 688.1 10.6 688.9 10.1 C 689.8 9.6 690.7 9.3 691.7 9.3 C 692.8 9.3 693.7 9.6 694.4 10.2 C 695 10.7 695.6 11.7 696 12.9 C 696.7 11.7 697.5 10.8 698.4 10.2 C 699.3 9.6 700.3 9.3 701.4 9.3 C 702.8 9.3 703.9 9.8 704.6 10.6 C 705.5 11.7 705.9 13.1 705.9 14.9 C 705.9 14.9 705.9 22.6 705.9 22.6 C 705.9 23.1 706.1 23.4 706.3 23.5 C 706.6 23.8 707.1 23.9 707.7 23.9 C 707.67 23.92 708.4 23.9 708.4 23.9 L 708.4 25.2 L 700.6 25.2 L 700.6 23.9 C 700.6 23.9 701.41 23.92 701.4 23.9 C 702.1 23.9 702.5 23.8 702.8 23.6 C 703.1 23.4 703.2 23 703.2 22.6 C 703.2 22.6 703.2 14.9 703.2 14.9 C 703.2 13.7 702.9 12.8 702.4 12.2 C 701.8 11.6 701.1 11.2 700.1 11.2 C 699.4 11.2 698.8 11.4 698.3 11.8 C 697.7 12.2 697.2 12.7 696.9 13.4 C 696.5 14.4 696.2 15.2 696.2 15.9 C 696.2 15.9 696.2 22.6 696.2 22.6 C 696.2 23 696.3 23.4 696.6 23.6 C 696.8 23.8 697.2 23.9 697.7 23.9 C 697.71 23.92 698.8 23.9 698.8 23.9 L 698.8 25.2 L 690.8 25.2 L 690.8 23.9 C 690.8 23.9 691.73 23.92 691.7 23.9 C 692.3 23.9 692.7 23.8 693 23.6 C 693.3 23.4 693.4 23.1 693.4 22.7 C 693.4 22.7 693.4 15.6 693.4 15.6 C 693.4 14.1 693.1 13 692.6 12.3 C 692.1 11.6 691.3 11.2 690.4 11.2 C 689.3 11.2 688.4 11.6 687.7 12.4 C 686.8 13.6 686.4 14.9 686.4 16.4 C 686.4 16.4 686.4 22.6 686.4 22.6 C 686.4 23.1 686.5 23.4 686.7 23.6 C 687 23.8 687.5 23.9 688.1 23.9 C 688.1 23.92 688.9 23.9 688.9 23.9 L 688.9 25.2 L 681.1 25.2 L 681.1 23.9 C 681.1 23.9 682.24 23.92 682.2 23.9 C 682.7 23.9 683 23.8 683.3 23.6 C 683.5 23.4 683.6 23.1 683.6 22.7 C 683.6 22.7 683.6 12.6 683.6 12.6 C 683.6 12 683.5 11.6 683.2 11.3 C 682.9 11 682.3 10.8 681.5 10.8 C 681.46 10.76 681.5 9.6 681.5 9.6 Z M 710.4 9.6 L 717.8 9.6 L 717.8 10.7 C 717.8 10.7 717.13 10.74 717.1 10.7 C 716.5 10.7 716 10.8 715.8 11 C 715.6 11.2 715.4 11.4 715.4 11.7 C 715.4 11.9 715.5 12 715.5 12.2 C 715.54 12.17 719.9 21.5 719.9 21.5 C 719.9 21.5 723.09 13.76 723.1 13.8 C 723.3 13.2 723.4 12.7 723.4 12.1 C 723.4 11.7 723.3 11.4 723 11.2 C 722.6 11 722 10.8 721 10.7 C 721.03 10.74 721 9.6 721 9.6 L 727.5 9.6 C 727.5 9.6 727.51 10.74 727.5 10.7 C 726.3 10.9 725.4 11.4 725 12.4 C 725 12.4 719.2 25.8 719.2 25.8 C 718.3 28.1 717.3 29.6 716.3 30.5 C 715.3 31.4 714.2 31.8 713.1 31.8 C 712.3 31.8 711.6 31.6 711.1 31.1 C 710.6 30.7 710.3 30.1 710.3 29.4 C 710.3 28.9 710.5 28.5 710.8 28.2 C 711.1 27.9 711.5 27.7 712 27.7 C 712.4 27.7 712.7 27.9 713 28.1 C 713.3 28.4 713.4 28.7 713.4 29.1 C 713.4 29.3 713.4 29.4 713.4 29.6 C 713.3 29.8 713.3 29.9 713.3 30 C 713.3 30.3 713.5 30.4 713.8 30.4 C 714.2 30.4 714.6 30.3 715.1 30 C 715.5 29.7 716 29.3 716.4 28.7 C 716.8 28.1 717.4 26.8 718.4 24.8 C 718.4 24.8 712.5 12.2 712.5 12.2 C 712.3 11.7 712.1 11.4 711.8 11.2 C 711.4 11 711 10.8 710.4 10.7 C 710.38 10.74 710.4 9.6 710.4 9.6 Z M 744.1 24 C 744.5 24 744.9 23.8 745.4 23.5 C 745.4 23.5 746 24.4 746 24.4 C 745.2 25.2 744.3 25.6 743.3 25.6 C 742.6 25.6 741.9 25.4 741.4 25 C 740.9 24.6 740.5 23.9 740.1 22.9 C 739 24 738.1 24.7 737.3 25.1 C 736.5 25.4 735.5 25.6 734.4 25.6 C 732.8 25.6 731.6 25.3 730.8 24.6 C 730 23.9 729.6 23 729.6 22 C 729.6 20.3 730.5 19 732.4 17.9 C 734.3 16.9 736.8 16.2 740 15.8 C 740 15.8 740 13.4 740 13.4 C 740 12.6 739.6 11.9 739 11.3 C 738.3 10.7 737.4 10.4 736.4 10.4 C 735.4 10.4 734.6 10.6 733.9 11 C 733.4 11.3 733.2 11.6 733.2 11.9 C 733.2 12 733.3 12.3 733.6 12.7 C 733.9 13.1 734 13.5 734 13.8 C 734 14.3 733.9 14.7 733.6 15 C 733.2 15.4 732.8 15.5 732.3 15.5 C 731.7 15.5 731.3 15.3 730.9 15 C 730.5 14.6 730.3 14.1 730.3 13.5 C 730.3 12.4 731 11.4 732.2 10.5 C 733.4 9.6 735.1 9.1 737.1 9.1 C 738.9 9.1 740.3 9.5 741.3 10.3 C 742.3 11.2 742.7 12.1 742.7 13.3 C 742.7 13.3 742.7 21.8 742.7 21.8 C 742.7 22.5 742.9 23.1 743.1 23.4 C 743.4 23.8 743.7 24 744.1 24 C 744.1 24 744.1 24 744.1 24 Z M 740 16.9 C 737.2 17.3 735.2 17.9 734 18.8 C 733.1 19.5 732.7 20.4 732.7 21.6 C 732.7 22.5 732.9 23.1 733.4 23.6 C 733.8 24.1 734.4 24.3 735.1 24.3 C 736.5 24.3 737.6 23.8 738.5 22.9 C 739.5 21.9 740 20.6 740 19.1 C 740 19.1 740 16.9 740 16.9 Z M 753.6 24.7 C 753.6 26.9 752.3 29 749.6 30.9 C 749.6 30.9 749 30.1 749 30.1 C 751.1 28.5 752.2 27.1 752.2 25.9 C 752.2 25.7 752.1 25.6 752.1 25.5 C 752 25.4 751.9 25.4 751.8 25.4 C 751.8 25.4 751.4 25.4 751.4 25.4 C 751.2 25.5 751.1 25.5 750.9 25.5 C 750.4 25.5 750 25.3 749.6 24.9 C 749.3 24.5 749.1 24 749.1 23.5 C 749.1 22.9 749.3 22.5 749.6 22.1 C 750 21.7 750.5 21.5 751.1 21.5 C 751.8 21.5 752.4 21.8 752.9 22.4 C 753.4 23 753.6 23.7 753.6 24.7 C 753.6 24.7 753.6 24.7 753.6 24.7 Z " stroke="none" fill="#000"/>
  </g>
</svg>