<?xml version="1.0" standalone="no"?>
<!DOCTYPE svg PUBLIC "-//W3C//DTD SVG 1.1//EN" "http://www.w3.org/Graphics/SVG/1.1/DTD/svg11.dtd">
<svg xmlns="http://www.w3.org/2000/svg" version="1.1" width="122px" height="16.9px" viewBox="0 -4 122 16.9" style="top:-4px">
  <desc>K-POP FAN p 14</desc>
  <defs/>
  <g id="Polygon29373">
    <path d="M 38.9 0.3 L 40.2 0.3 L 40.2 2.5 L 41.9 0.3 L 43.4 0.3 L 41.1 3.2 L 43.6 6.8 L 42.2 6.8 L 40.2 3.9 L 40.2 6.8 L 38.9 6.8 L 38.9 0.3 Z M 44.3 3.8 L 46.6 3.8 L 46.6 4.9 L 44.3 4.9 L 44.3 3.8 Z M 47.9 0.3 C 47.9 0.3 49.21 0.29 49.2 0.3 C 49.9 0.3 50.4 0.4 50.7 0.5 C 51.1 0.6 51.3 0.8 51.5 1.1 C 51.7 1.4 51.7 1.8 51.7 2.2 C 51.7 2.6 51.6 3 51.4 3.3 C 51.2 3.6 50.8 3.8 50.4 3.9 C 50.2 4 49.8 4 49.1 4 C 49.14 4.01 49.1 6.8 49.1 6.8 L 47.9 6.8 L 47.9 0.3 Z M 49.1 2.8 C 49.1 2.8 49.53 2.81 49.5 2.8 C 49.8 2.8 50 2.8 50.2 2.7 C 50.3 2.7 50.4 2.6 50.5 2.5 C 50.5 2.4 50.6 2.3 50.6 2.2 C 50.6 1.9 50.5 1.7 50.3 1.6 C 50.1 1.5 49.9 1.5 49.5 1.5 C 49.48 1.49 49.1 1.5 49.1 1.5 L 49.1 2.8 Z M 55.8 0.1 C 56.7 0.1 57.5 0.5 58.2 1.1 C 58.8 1.8 59.2 2.6 59.2 3.5 C 59.2 4.5 58.8 5.3 58.2 5.9 C 57.5 6.6 56.8 6.9 55.8 6.9 C 54.9 6.9 54.1 6.6 53.4 5.9 C 52.8 5.2 52.5 4.4 52.5 3.5 C 52.5 2.9 52.6 2.3 52.9 1.8 C 53.2 1.3 53.6 0.9 54.1 0.6 C 54.7 0.3 55.2 0.1 55.8 0.1 Z M 55.8 1.3 C 55.2 1.3 54.7 1.5 54.3 2 C 53.9 2.4 53.7 2.9 53.7 3.5 C 53.7 4.3 53.9 4.8 54.5 5.2 C 54.9 5.6 55.3 5.7 55.8 5.7 C 56.4 5.7 56.9 5.5 57.3 5.1 C 57.7 4.7 57.9 4.1 57.9 3.5 C 57.9 2.9 57.7 2.4 57.3 2 C 56.9 1.5 56.4 1.3 55.8 1.3 Z M 60.1 0.3 C 60.1 0.3 61.45 0.29 61.5 0.3 C 62.2 0.3 62.7 0.4 63 0.5 C 63.3 0.6 63.5 0.8 63.7 1.1 C 63.9 1.4 64 1.8 64 2.2 C 64 2.6 63.9 3 63.6 3.3 C 63.4 3.6 63.1 3.8 62.7 3.9 C 62.4 4 62 4 61.4 4 C 61.38 4.01 61.4 6.8 61.4 6.8 L 60.1 6.8 L 60.1 0.3 Z M 61.4 2.8 C 61.4 2.8 61.77 2.81 61.8 2.8 C 62.1 2.8 62.3 2.8 62.4 2.7 C 62.5 2.7 62.6 2.6 62.7 2.5 C 62.8 2.4 62.8 2.3 62.8 2.2 C 62.8 1.9 62.7 1.7 62.5 1.6 C 62.4 1.5 62.1 1.5 61.7 1.5 C 61.72 1.49 61.4 1.5 61.4 1.5 L 61.4 2.8 Z M 67.4 0.3 L 70.6 0.3 L 70.6 1.5 L 68.6 1.5 L 68.6 2.7 L 70.6 2.7 L 70.6 3.8 L 68.6 3.8 L 68.6 6.8 L 67.4 6.8 L 67.4 0.3 Z M 73.5 0.3 L 74.7 0.3 L 77.2 6.8 L 75.9 6.8 L 75.4 5.4 L 72.8 5.4 L 72.2 6.8 L 71 6.8 L 73.5 0.3 Z M 74.1 2 L 73.2 4.2 L 75 4.2 L 74.1 2 Z M 78 0.3 L 79.2 0.3 L 81.9 4.5 L 81.9 0.3 L 83.1 0.3 L 83.1 6.8 L 82 6.8 L 79.2 2.5 L 79.2 6.8 L 78 6.8 L 78 0.3 Z M 88.9 1.9 L 88.9 0.8 L 93.3 3 L 93.3 4 L 88.9 6.2 L 88.9 5.1 L 92 3.5 L 88.9 1.9 Z M 94.1 1.9 L 94.1 0.8 L 98.5 3 L 98.5 4 L 94.1 6.2 L 94.1 5.1 L 97.2 3.5 L 94.1 1.9 Z M 103 2 C 103 2 102.96 2.5 103 2.5 C 103.2 2.3 103.4 2.1 103.7 2 C 103.9 1.9 104.2 1.8 104.5 1.8 C 105.1 1.8 105.6 2.1 106.1 2.6 C 106.5 3 106.7 3.6 106.7 4.4 C 106.7 5.1 106.5 5.7 106 6.2 C 105.6 6.6 105.1 6.9 104.4 6.9 C 104.2 6.9 103.9 6.8 103.7 6.7 C 103.4 6.6 103.2 6.5 103 6.2 C 102.96 6.24 103 8.5 103 8.5 L 101.8 8.5 L 101.8 2 L 103 2 Z M 104.2 3 C 103.8 3 103.5 3.1 103.3 3.3 C 103 3.6 102.9 3.9 102.9 4.4 C 102.9 4.8 103 5.1 103.3 5.4 C 103.5 5.6 103.8 5.8 104.2 5.8 C 104.6 5.8 104.9 5.6 105.1 5.4 C 105.4 5.1 105.5 4.8 105.5 4.4 C 105.5 3.9 105.4 3.6 105.2 3.3 C 104.9 3.1 104.6 3 104.2 3 Z M 108.2 5.5 C 108.4 5.5 108.5 5.6 108.7 5.7 C 108.8 5.8 108.9 6 108.9 6.2 C 108.9 6.4 108.8 6.5 108.7 6.7 C 108.5 6.8 108.4 6.9 108.2 6.9 C 108 6.9 107.8 6.8 107.7 6.7 C 107.6 6.5 107.5 6.4 107.5 6.2 C 107.5 6 107.6 5.8 107.7 5.7 C 107.8 5.6 108 5.5 108.2 5.5 Z M 113.1 0.3 L 114.9 0.3 L 114.9 6.8 L 113.7 6.8 L 113.7 1.4 L 112.4 1.4 L 113.1 0.3 Z M 119.4 0.1 L 120.7 0.1 L 120.7 4.3 L 121.2 4.3 L 121.2 5.4 L 120.7 5.4 L 120.7 6.8 L 119.5 6.8 L 119.5 5.4 L 116.6 5.4 L 116.6 4.3 L 119.4 0.1 Z M 119.5 4.3 L 119.5 2.1 L 118 4.3 L 119.5 4.3 Z " stroke="none" fill="#000"/>
  </g>
</svg>