<?xml version="1.0" standalone="no"?>
<!DOCTYPE svg PUBLIC "-//W3C//DTD SVG 1.1//EN" "http://www.w3.org/Graphics/SVG/1.1/DTD/svg11.dtd">
<svg xmlns="http://www.w3.org/2000/svg" version="1.1" width="288.4px" height="73.3px" viewBox="0 -6 288.4 73.3" style="top:-6px">
  <desc>Ito ang malagim na katotohanan sa kultura ng Pilipinas—kailangan munang mag-uwi ng mataas na parangal upang mabigyan</desc>
  <defs/>
  <g id="Polygon18579">
    <path d="M 112 48.2 C 112.3 48.2 112.7 48.3 112.9 48.5 C 112.93 48.5 113 48.3 113 48.3 L 114.1 48.3 C 114.1 48.3 112.71 53.51 112.7 53.5 C 112.6 53.9 112.6 54.2 112.8 54.2 C 113.2 54.2 113.8 53.3 114 52.9 C 114 52.9 114.3 53 114.3 53 C 113.9 54 113.1 54.9 112.2 54.9 C 111.5 54.9 111.3 54.4 111.6 53.4 C 111.59 53.45 112 52 112 52 C 112 52 112.01 51.97 112 52 C 111.3 53.3 110 54.9 108.7 54.9 C 107.8 54.9 107.4 54.1 107.4 53.4 C 107.4 51.6 108.9 48.2 112 48.2 Z M 109.3 54.2 C 109.9 54.2 110.7 53.4 111.4 52.3 C 112.1 51.2 112.6 49.9 112.8 49 C 112.6 48.8 112.3 48.7 112 48.7 C 110 48.7 108.7 51.9 108.7 53.3 C 108.7 53.8 108.8 54.2 109.3 54.2 Z M 116.5 48.9 L 115.4 48.9 L 115.6 48.4 L 116.6 48.4 L 116.8 47.7 L 118.1 46.7 L 118.2 46.8 L 117.8 48.4 L 119.4 48.4 L 119.3 48.9 L 117.6 48.9 C 117.6 48.9 116.49 53.61 116.5 53.6 C 116.4 53.9 116.4 54.2 116.7 54.2 C 117.1 54.2 117.8 53.4 118.1 52.9 C 118.1 52.9 118.3 53.1 118.3 53.1 C 117.8 54 117 54.9 115.9 54.9 C 115.3 54.9 115.1 54.4 115.3 53.6 C 115.33 53.63 116.5 48.9 116.5 48.9 Z M 123.4 49.6 C 123.5 49.2 123.5 49 123.2 49 C 123.17 48.96 122.4 48.9 122.4 48.9 L 122.4 48.6 L 124.8 48.2 L 124.9 48.3 L 124.1 51 C 124.1 51 124.16 51.03 124.2 51 C 125.1 49.2 126.4 48.2 127.4 48.2 C 128.4 48.2 128.9 48.8 128.9 50 C 128.9 51 128 54.9 124.8 54.9 C 124.1 54.9 123.7 54.8 123.4 54.6 C 123.42 54.62 122.7 57.7 122.7 57.7 L 121.5 57.9 C 121.5 57.9 123.37 49.59 123.4 49.6 Z M 124.7 54.5 C 126.8 54.5 127.6 51 127.6 50 C 127.6 49.3 127.4 48.9 126.9 48.9 C 126.1 48.9 125.2 49.9 124.6 51 C 124.1 51.9 123.7 53.2 123.5 54.1 C 123.8 54.3 124.2 54.5 124.7 54.5 Z M 133.8 48.2 C 134.1 48.2 134.5 48.3 134.7 48.5 C 134.73 48.5 134.8 48.3 134.8 48.3 L 135.9 48.3 C 135.9 48.3 134.51 53.51 134.5 53.5 C 134.4 53.9 134.4 54.2 134.6 54.2 C 135 54.2 135.6 53.3 135.8 52.9 C 135.8 52.9 136.1 53 136.1 53 C 135.7 54 135 54.9 134 54.9 C 133.3 54.9 133.1 54.4 133.4 53.4 C 133.39 53.45 133.8 52 133.8 52 C 133.8 52 133.81 51.97 133.8 52 C 133.1 53.3 131.8 54.9 130.5 54.9 C 129.6 54.9 129.2 54.1 129.2 53.4 C 129.2 51.6 130.7 48.2 133.8 48.2 Z M 131.1 54.2 C 131.7 54.2 132.5 53.4 133.2 52.3 C 133.9 51.2 134.4 49.9 134.6 49 C 134.4 48.8 134.1 48.7 133.8 48.7 C 131.8 48.7 130.5 51.9 130.5 53.3 C 130.5 53.8 130.6 54.2 131.1 54.2 Z M 137.9 54.2 C 137.9 54.2 137.9 54.2 137.9 54.2 C 137.4 53.9 137 53.6 137 53.2 C 137 52.7 137.8 52.4 138.2 52.2 C 138.2 52.2 138.2 52.2 138.2 52.2 C 137.8 52.1 137.1 51.6 137.1 50.6 C 137.1 49.7 137.7 48.2 139.8 48.2 C 140.5 48.2 141.1 48.4 141.4 48.6 C 141.45 48.61 143.3 48.1 143.3 48.1 L 143.4 48.2 L 143 49 C 143 49 141.89 49.19 141.9 49.2 C 142.1 49.4 142.2 49.7 142.2 50.1 C 142.2 51.4 141.2 52.4 139.4 52.4 C 139.2 52.4 138.9 52.4 138.7 52.4 C 138.3 52.4 138.1 52.6 138.1 52.9 C 138.1 53.2 138.6 53.4 139.7 53.7 C 141.2 54 141.9 54.8 141.9 55.7 C 141.9 57.2 140.5 57.9 138.8 57.9 C 137.1 57.9 135.9 57.2 135.9 56 C 135.9 54.9 137 54.4 137.9 54.2 Z M 139 57.4 C 140 57.4 140.8 57 140.8 56 C 140.8 54.9 139.3 54.5 138.5 54.4 C 137.9 54.5 137.1 54.9 137.1 55.9 C 137.1 56.8 137.9 57.4 139 57.4 Z M 139.4 52 C 140.3 52 141 51 141 49.8 C 141 48.9 140.3 48.7 139.9 48.7 C 138.7 48.7 138.3 50 138.3 50.8 C 138.3 51.5 138.7 52 139.4 52 Z M 145.1 46.4 C 145.2 45.9 145.1 45.8 144.8 45.8 C 144.82 45.81 144.1 45.7 144.1 45.7 L 144.2 45.4 L 146.5 45.1 L 146.5 45.2 L 144.3 54.8 L 143.1 54.9 C 143.1 54.9 145.08 46.44 145.1 46.4 Z M 147.2 49.2 C 147.9 48.6 148.5 48.2 149 48.2 C 149.5 48.2 149.7 48.5 149.7 48.9 C 149.7 49.2 149.4 49.6 149.1 49.6 C 148.9 49.6 148.8 49.5 148.7 49.5 C 148.4 49.3 148.2 49.2 148.1 49.2 C 147.6 49.2 146.6 50.3 146.2 50.7 C 146.5 51.6 146.8 52.4 147.2 53.3 C 147.5 53.9 147.7 54.2 147.9 54.2 C 148.3 54.2 148.6 53.7 149 52.9 C 149 52.9 149.3 53.1 149.3 53.1 C 148.9 54.2 148.3 54.9 147.5 54.9 C 146.9 54.9 146.5 54.5 146.1 53.7 C 145.7 52.9 145.4 52.1 145.2 51.3 C 145.8 50.5 146.5 49.8 147.2 49.2 Z M 152.8 45.5 C 153.2 45.5 153.5 45.7 153.5 46.2 C 153.5 46.7 153.2 47 152.7 47 C 152.3 47 152 46.8 152 46.3 C 152 45.9 152.3 45.5 152.8 45.5 Z M 151.5 49.6 C 151.6 49.1 151.6 49 151.2 49 C 151.2 48.96 150.5 48.9 150.5 48.9 L 150.5 48.6 L 152.9 48.2 L 153 48.3 C 153 48.3 151.55 53.51 151.6 53.5 C 151.4 53.9 151.4 54.2 151.7 54.2 C 152 54.2 152.6 53.3 152.9 52.9 C 152.9 52.9 153.2 53 153.2 53 C 152.7 54 152 54.9 151.1 54.9 C 150.4 54.9 150.2 54.4 150.4 53.6 C 150.4 53.6 151.5 49.6 151.5 49.6 Z M 156.1 46.4 C 156.2 45.9 156.2 45.8 155.8 45.8 C 155.84 45.81 155.1 45.7 155.1 45.7 L 155.2 45.4 L 157.5 45.1 L 157.6 45.2 C 157.6 45.2 155.48 53.53 155.5 53.5 C 155.4 54 155.4 54.2 155.6 54.2 C 155.9 54.2 156.5 53.4 156.8 52.9 C 156.8 52.9 157.1 53 157.1 53 C 156.7 54 155.9 54.9 155 54.9 C 154.3 54.9 154.1 54.4 154.3 53.6 C 154.3 53.6 156.1 46.4 156.1 46.4 Z M 162.1 48.2 C 162.4 48.2 162.8 48.3 163 48.5 C 163.04 48.5 163.1 48.3 163.1 48.3 L 164.2 48.3 C 164.2 48.3 162.82 53.51 162.8 53.5 C 162.7 53.9 162.7 54.2 163 54.2 C 163.3 54.2 163.9 53.3 164.1 52.9 C 164.1 52.9 164.4 53 164.4 53 C 164 54 163.3 54.9 162.3 54.9 C 161.6 54.9 161.4 54.4 161.7 53.4 C 161.7 53.45 162.1 52 162.1 52 C 162.1 52 162.12 51.97 162.1 52 C 161.4 53.3 160.2 54.9 158.8 54.9 C 157.9 54.9 157.5 54.1 157.5 53.4 C 157.5 51.6 159 48.2 162.1 48.2 Z M 159.4 54.2 C 160 54.2 160.8 53.4 161.5 52.3 C 162.2 51.2 162.7 49.9 162.9 49 C 162.7 48.8 162.4 48.7 162.1 48.7 C 160.1 48.7 158.8 51.9 158.8 53.3 C 158.8 53.8 158.9 54.2 159.4 54.2 Z M 167.1 46.4 C 167.2 45.9 167.2 45.8 166.9 45.8 C 166.85 45.81 166.1 45.7 166.1 45.7 L 166.2 45.4 L 168.5 45.1 L 168.6 45.2 C 168.6 45.2 166.49 53.53 166.5 53.5 C 166.4 54 166.4 54.2 166.6 54.2 C 166.9 54.2 167.5 53.4 167.8 52.9 C 167.8 52.9 168.1 53 168.1 53 C 167.7 54 166.9 54.9 166 54.9 C 165.3 54.9 165.1 54.4 165.3 53.6 C 165.3 53.6 167.1 46.4 167.1 46.4 Z M 173.1 48.2 C 173.5 48.2 173.8 48.3 174.1 48.5 C 174.05 48.5 174.1 48.3 174.1 48.3 L 175.2 48.3 C 175.2 48.3 173.83 53.51 173.8 53.5 C 173.7 53.9 173.7 54.2 174 54.2 C 174.3 54.2 174.9 53.3 175.1 52.9 C 175.1 52.9 175.4 53 175.4 53 C 175 54 174.3 54.9 173.3 54.9 C 172.6 54.9 172.4 54.4 172.7 53.4 C 172.71 53.45 173.2 52 173.2 52 C 173.2 52 173.13 51.97 173.1 52 C 172.4 53.3 171.2 54.9 169.8 54.9 C 168.9 54.9 168.5 54.1 168.5 53.4 C 168.5 51.6 170 48.2 173.1 48.2 Z M 170.4 54.2 C 171 54.2 171.8 53.4 172.5 52.3 C 173.2 51.2 173.7 49.9 173.9 49 C 173.7 48.8 173.4 48.7 173.1 48.7 C 171.1 48.7 169.8 51.9 169.8 53.3 C 169.8 53.8 170 54.2 170.4 54.2 Z M 176.7 53.3 C 177.2 53.3 177.5 53.6 177.5 54 C 177.5 54.6 177.1 54.9 176.6 54.9 C 176.2 54.9 175.9 54.6 175.9 54.2 C 175.9 53.6 176.3 53.3 176.7 53.3 Z M 182.2 46.8 C 182.3 46.6 182.2 46.4 182.1 46.2 C 182 46.1 182 45.9 182 45.7 C 182 45.4 182.3 45.1 182.6 45.1 C 183.1 45.1 183.4 45.5 183.4 45.9 C 183.4 47 182.3 47.8 181.6 48.5 C 181.6 48.5 181.4 48.2 181.4 48.2 C 181.8 47.8 182.2 47.3 182.2 46.8 Z M 179.8 46.8 C 179.9 46.6 179.8 46.4 179.7 46.2 C 179.6 46.1 179.5 45.9 179.5 45.7 C 179.5 45.4 179.8 45.1 180.2 45.1 C 180.7 45.1 180.9 45.5 180.9 45.9 C 180.9 47 179.9 47.8 179.2 48.5 C 179.2 48.5 179 48.2 179 48.2 C 179.4 47.8 179.8 47.3 179.8 46.8 Z " stroke="none" fill="#000"/>
  </g>
  <g id="Polygon18578">
    <path d="M 9.2 34.6 C 9.3 34.2 9.3 34 9 34 C 9.01 33.96 8.2 33.9 8.2 33.9 L 8.3 33.6 L 10.7 33.2 L 10.7 33.3 L 9.9 36 C 9.9 36 9.94 35.98 9.9 36 C 10.8 34.3 12 33.2 13.2 33.2 C 14.1 33.2 14.4 33.9 14 35.2 C 14.02 35.16 13.8 36 13.8 36 C 13.8 36 13.81 35.98 13.8 36 C 14.7 34.3 15.9 33.2 17.1 33.2 C 18.2 33.2 18.3 34.1 18 35.1 C 18 35.1 17 38.5 17 38.5 C 16.9 38.9 16.9 39.2 17.2 39.2 C 17.5 39.2 18.1 38.3 18.3 37.9 C 18.3 37.9 18.7 38 18.7 38 C 18.2 39 17.5 39.9 16.5 39.9 C 15.9 39.9 15.6 39.4 15.9 38.6 C 15.9 38.6 17 34.8 17 34.8 C 17.2 34.3 17 33.9 16.5 33.9 C 15.4 33.9 14.3 35.8 13.8 36.9 C 13.4 37.7 13.2 38.4 12.9 39.8 C 12.86 39.75 11.7 39.9 11.7 39.9 L 12.1 38.6 C 12.1 38.6 13.03 34.99 13 35 C 13.2 34.2 13 33.9 12.6 33.9 C 11.6 33.9 10.3 35.8 9.8 37 C 9.6 37.7 9.4 38.4 9 39.8 C 8.99 39.75 7.9 39.9 7.9 39.9 C 7.9 39.9 9.2 34.59 9.2 34.6 Z M 23.7 33.2 C 24.1 33.2 24.5 33.3 24.7 33.5 C 24.69 33.5 24.8 33.3 24.8 33.3 L 25.8 33.3 C 25.8 33.3 24.47 38.51 24.5 38.5 C 24.4 38.9 24.3 39.2 24.6 39.2 C 25 39.2 25.5 38.3 25.8 37.9 C 25.8 37.9 26.1 38 26.1 38 C 25.6 39 24.9 39.9 23.9 39.9 C 23.2 39.9 23.1 39.4 23.4 38.4 C 23.35 38.45 23.8 37 23.8 37 C 23.8 37 23.77 36.97 23.8 37 C 23 38.3 21.8 39.9 20.4 39.9 C 19.5 39.9 19.2 39.1 19.2 38.4 C 19.2 36.6 20.6 33.2 23.7 33.2 Z M 21 39.2 C 21.7 39.2 22.4 38.4 23.2 37.3 C 23.9 36.2 24.3 34.9 24.6 34 C 24.4 33.8 24.1 33.7 23.8 33.7 C 21.7 33.7 20.5 36.9 20.5 38.3 C 20.5 38.8 20.6 39.2 21 39.2 Z M 28.3 33.9 L 27.2 33.9 L 27.3 33.4 L 28.4 33.4 L 28.6 32.7 L 29.8 31.7 L 30 31.8 L 29.5 33.4 L 31.2 33.4 L 31 33.9 L 29.4 33.9 C 29.4 33.9 28.25 38.61 28.3 38.6 C 28.2 38.9 28.2 39.2 28.4 39.2 C 28.9 39.2 29.5 38.4 29.8 37.9 C 29.8 37.9 30.1 38.1 30.1 38.1 C 29.6 39 28.7 39.9 27.7 39.9 C 27.1 39.9 26.9 39.4 27.1 38.6 C 27.1 38.63 28.3 33.9 28.3 33.9 Z M 35.2 33.2 C 35.6 33.2 35.9 33.3 36.2 33.5 C 36.16 33.5 36.2 33.3 36.2 33.3 L 37.3 33.3 C 37.3 33.3 35.94 38.51 35.9 38.5 C 35.8 38.9 35.8 39.2 36.1 39.2 C 36.4 39.2 37 38.3 37.2 37.9 C 37.2 37.9 37.5 38 37.5 38 C 37.1 39 36.4 39.9 35.4 39.9 C 34.7 39.9 34.5 39.4 34.8 38.4 C 34.82 38.45 35.3 37 35.3 37 C 35.3 37 35.24 36.97 35.2 37 C 34.5 38.3 33.3 39.9 31.9 39.9 C 31 39.9 30.6 39.1 30.6 38.4 C 30.6 36.6 32.1 33.2 35.2 33.2 Z M 32.5 39.2 C 33.1 39.2 33.9 38.4 34.6 37.3 C 35.3 36.2 35.8 34.9 36 34 C 35.8 33.8 35.5 33.7 35.2 33.7 C 33.2 33.7 31.9 36.9 31.9 38.3 C 31.9 38.8 32.1 39.2 32.5 39.2 Z M 42.4 33.2 C 42.7 33.2 43.1 33.3 43.3 33.5 C 43.32 33.5 43.4 33.3 43.4 33.3 L 44.5 33.3 C 44.5 33.3 43.1 38.51 43.1 38.5 C 43 38.9 43 39.2 43.2 39.2 C 43.6 39.2 44.2 38.3 44.4 37.9 C 44.4 37.9 44.7 38 44.7 38 C 44.3 39 43.5 39.9 42.6 39.9 C 41.9 39.9 41.7 39.4 42 38.4 C 41.98 38.45 42.4 37 42.4 37 C 42.4 37 42.4 36.97 42.4 37 C 41.6 38.3 40.4 39.9 39 39.9 C 38.2 39.9 37.8 39.1 37.8 38.4 C 37.8 36.6 39.3 33.2 42.4 33.2 Z M 39.7 39.2 C 40.3 39.2 41.1 38.4 41.8 37.3 C 42.5 36.2 43 34.9 43.2 34 C 43 33.8 42.7 33.7 42.4 33.7 C 40.4 33.7 39.1 36.9 39.1 38.3 C 39.1 38.8 39.2 39.2 39.7 39.2 Z M 45.5 38 C 45.7 38 45.8 38.1 45.9 38.4 C 46.1 39 46.6 39.5 47.1 39.5 C 47.6 39.5 48 39.1 48 38.5 C 48 38 47.7 37.4 47.1 37 C 46.4 36.4 46 35.8 46 35.1 C 46 34.1 46.7 33.2 48.1 33.2 C 49.2 33.2 49.7 33.8 49.7 34.2 C 49.7 34.6 49.4 34.8 49.1 34.8 C 48.9 34.8 48.8 34.7 48.7 34.6 C 48.5 34 48.1 33.7 47.7 33.7 C 47.2 33.7 46.9 34.1 46.9 34.5 C 46.9 34.9 47 35.3 47.8 36 C 48.7 36.7 49 37.2 49 37.9 C 49 39 48.2 39.9 46.8 39.9 C 45.5 39.9 44.8 39.2 44.8 38.7 C 44.8 38.3 45.1 38 45.5 38 Z M 54.5 34.6 C 54.6 34.2 54.6 34 54.3 34 C 54.27 33.96 53.5 33.9 53.5 33.9 L 53.5 33.6 L 55.9 33.2 L 56 33.3 L 55.1 36.1 C 55.1 36.1 55.18 36.12 55.2 36.1 C 56 34.6 57.3 33.2 58.6 33.2 C 59.6 33.2 59.8 34.1 59.5 35.1 C 59.5 35.1 58.5 38.5 58.5 38.5 C 58.3 38.9 58.3 39.2 58.6 39.2 C 59 39.2 59.5 38.3 59.8 37.9 C 59.8 37.9 60.1 38 60.1 38 C 59.6 39 58.9 39.9 57.9 39.9 C 57.2 39.9 57.1 39.4 57.3 38.6 C 57.3 38.6 58.4 34.8 58.4 34.8 C 58.5 34.3 58.4 33.9 58 33.9 C 56.9 33.9 55.7 35.8 55.2 36.9 C 54.8 37.7 54.6 38.4 54.2 39.8 C 54.24 39.75 53.1 39.9 53.1 39.9 C 53.1 39.9 54.46 34.59 54.5 34.6 Z M 65.2 33.2 C 65.5 33.2 65.9 33.3 66.1 33.5 C 66.11 33.5 66.2 33.3 66.2 33.3 L 67.3 33.3 C 67.3 33.3 65.89 38.51 65.9 38.5 C 65.8 38.9 65.8 39.2 66 39.2 C 66.4 39.2 67 38.3 67.2 37.9 C 67.2 37.9 67.5 38 67.5 38 C 67.1 39 66.3 39.9 65.3 39.9 C 64.6 39.9 64.5 39.4 64.8 38.4 C 64.77 38.45 65.2 37 65.2 37 C 65.2 37 65.19 36.97 65.2 37 C 64.4 38.3 63.2 39.9 61.8 39.9 C 60.9 39.9 60.6 39.1 60.6 38.4 C 60.6 36.6 62.1 33.2 65.2 33.2 Z M 62.4 39.2 C 63.1 39.2 63.9 38.4 64.6 37.3 C 65.3 36.2 65.7 34.9 66 34 C 65.8 33.8 65.5 33.7 65.2 33.7 C 63.1 33.7 61.9 36.9 61.9 38.3 C 61.9 38.8 62 39.2 62.4 39.2 Z M 72.2 34.6 C 72.3 34.2 72.4 34 72.1 34 C 72.05 33.96 71.2 33.9 71.2 33.9 L 71.3 33.6 L 73.7 33.2 L 73.7 33.3 L 73 36 C 73 36 73.04 36.03 73 36 C 74 34.2 75.3 33.2 76.3 33.2 C 77.3 33.2 77.8 33.8 77.8 35 C 77.8 36 76.9 39.9 73.7 39.9 C 73 39.9 72.6 39.8 72.3 39.6 C 72.3 39.62 71.6 42.7 71.6 42.7 L 70.4 42.9 C 70.4 42.9 72.25 34.59 72.2 34.6 Z M 73.6 39.5 C 75.7 39.5 76.5 36 76.5 35 C 76.5 34.3 76.2 33.9 75.8 33.9 C 75 33.9 74.1 34.9 73.5 36 C 73 36.9 72.6 38.2 72.4 39.1 C 72.7 39.3 73.1 39.5 73.6 39.5 Z M 82.7 33.2 C 83 33.2 83.4 33.3 83.6 33.5 C 83.61 33.5 83.7 33.3 83.7 33.3 L 84.8 33.3 C 84.8 33.3 83.39 38.51 83.4 38.5 C 83.3 38.9 83.3 39.2 83.5 39.2 C 83.9 39.2 84.5 38.3 84.7 37.9 C 84.7 37.9 85 38 85 38 C 84.6 39 83.8 39.9 82.8 39.9 C 82.1 39.9 82 39.4 82.3 38.4 C 82.27 38.45 82.7 37 82.7 37 C 82.7 37 82.68 36.97 82.7 37 C 81.9 38.3 80.7 39.9 79.3 39.9 C 78.4 39.9 78.1 39.1 78.1 38.4 C 78.1 36.6 79.6 33.2 82.7 33.2 Z M 79.9 39.2 C 80.6 39.2 81.4 38.4 82.1 37.3 C 82.8 36.2 83.2 34.9 83.5 34 C 83.3 33.8 83 33.7 82.7 33.7 C 80.6 33.7 79.4 36.9 79.4 38.3 C 79.4 38.8 79.5 39.2 79.9 39.2 Z M 86.9 34.6 C 87 34.2 87.1 34 86.7 34 C 86.74 33.96 85.9 33.9 85.9 33.9 L 86 33.6 L 88.2 33.2 L 88.3 33.3 L 87.7 35.4 C 87.7 35.4 87.75 35.45 87.8 35.4 C 88.5 34 89.4 33.2 90.1 33.2 C 90.5 33.2 90.7 33.4 90.7 33.8 C 90.7 34.2 90.4 34.6 90.1 34.6 C 89.6 34.6 89.5 34.3 89.1 34.3 C 88.7 34.3 88 35.4 87.5 37.1 C 87.3 37.9 87.1 38.9 86.9 39.8 C 86.86 39.75 85.7 39.9 85.7 39.9 C 85.7 39.9 86.94 34.59 86.9 34.6 Z M 94.7 33.2 C 95 33.2 95.4 33.3 95.6 33.5 C 95.61 33.5 95.7 33.3 95.7 33.3 L 96.8 33.3 C 96.8 33.3 95.39 38.51 95.4 38.5 C 95.3 38.9 95.3 39.2 95.5 39.2 C 95.9 39.2 96.5 38.3 96.7 37.9 C 96.7 37.9 97 38 97 38 C 96.6 39 95.8 39.9 94.8 39.9 C 94.1 39.9 94 39.4 94.3 38.4 C 94.27 38.45 94.7 37 94.7 37 C 94.7 37 94.68 36.97 94.7 37 C 93.9 38.3 92.7 39.9 91.3 39.9 C 90.4 39.9 90.1 39.1 90.1 38.4 C 90.1 36.6 91.6 33.2 94.7 33.2 Z M 91.9 39.2 C 92.6 39.2 93.4 38.4 94.1 37.3 C 94.8 36.2 95.2 34.9 95.5 34 C 95.3 33.8 95 33.7 94.7 33.7 C 92.6 33.7 91.4 36.9 91.4 38.3 C 91.4 38.8 91.5 39.2 91.9 39.2 Z M 99 34.6 C 99.1 34.2 99.1 34 98.8 34 C 98.83 33.96 98 33.9 98 33.9 L 98.1 33.6 L 100.5 33.2 L 100.5 33.3 L 99.7 36.1 C 99.7 36.1 99.74 36.12 99.7 36.1 C 100.5 34.6 101.9 33.2 103.1 33.2 C 104.2 33.2 104.3 34.1 104 35.1 C 104 35.1 103 38.5 103 38.5 C 102.9 38.9 102.9 39.2 103.2 39.2 C 103.5 39.2 104.1 38.3 104.3 37.9 C 104.3 37.9 104.6 38 104.6 38 C 104.2 39 103.5 39.9 102.5 39.9 C 101.8 39.9 101.6 39.4 101.8 38.6 C 101.8 38.6 103 34.8 103 34.8 C 103.1 34.3 103 33.9 102.5 33.9 C 101.5 33.9 100.2 35.8 99.7 36.9 C 99.4 37.7 99.2 38.4 98.8 39.8 C 98.8 39.75 97.7 39.9 97.7 39.9 C 97.7 39.9 99.03 34.59 99 34.6 Z M 106.7 39.2 C 106.7 39.2 106.7 39.2 106.7 39.2 C 106.1 38.9 105.8 38.6 105.8 38.2 C 105.8 37.7 106.5 37.4 106.9 37.2 C 106.9 37.2 106.9 37.2 106.9 37.2 C 106.6 37.1 105.9 36.6 105.9 35.6 C 105.9 34.7 106.5 33.2 108.6 33.2 C 109.3 33.2 109.9 33.4 110.2 33.6 C 110.23 33.61 112.1 33.1 112.1 33.1 L 112.2 33.2 L 111.8 34 C 111.8 34 110.67 34.19 110.7 34.2 C 110.8 34.4 110.9 34.7 110.9 35.1 C 110.9 36.4 109.9 37.4 108.1 37.4 C 107.9 37.4 107.7 37.4 107.4 37.4 C 107.1 37.4 106.9 37.6 106.9 37.9 C 106.9 38.2 107.3 38.4 108.4 38.7 C 110 39 110.7 39.8 110.7 40.7 C 110.7 42.2 109.3 42.9 107.5 42.9 C 105.9 42.9 104.7 42.2 104.7 41 C 104.7 39.9 105.8 39.4 106.7 39.2 Z M 107.8 42.4 C 108.8 42.4 109.6 42 109.6 41 C 109.6 39.9 108.1 39.5 107.3 39.4 C 106.7 39.5 105.9 39.9 105.9 40.9 C 105.9 41.8 106.7 42.4 107.8 42.4 Z M 108.2 37 C 109.1 37 109.8 36 109.8 34.8 C 109.8 33.9 109.1 33.7 108.7 33.7 C 107.5 33.7 107.1 35 107.1 35.8 C 107.1 36.5 107.5 37 108.2 37 Z M 116.1 33.2 C 116.4 33.2 116.8 33.3 117 33.5 C 117.03 33.5 117.1 33.3 117.1 33.3 L 118.2 33.3 C 118.2 33.3 116.81 38.51 116.8 38.5 C 116.7 38.9 116.7 39.2 116.9 39.2 C 117.3 39.2 117.9 38.3 118.1 37.9 C 118.1 37.9 118.4 38 118.4 38 C 118 39 117.3 39.9 116.3 39.9 C 115.6 39.9 115.4 39.4 115.7 38.4 C 115.69 38.45 116.1 37 116.1 37 C 116.1 37 116.11 36.97 116.1 37 C 115.4 38.3 114.1 39.9 112.8 39.9 C 111.9 39.9 111.5 39.1 111.5 38.4 C 111.5 36.6 113 33.2 116.1 33.2 Z M 113.4 39.2 C 114 39.2 114.8 38.4 115.5 37.3 C 116.2 36.2 116.7 34.9 116.9 34 C 116.7 33.8 116.4 33.7 116.1 33.7 C 114.1 33.7 112.8 36.9 112.8 38.3 C 112.8 38.8 112.9 39.2 113.4 39.2 Z M 121.1 31.4 C 121.2 30.9 121.2 30.8 120.8 30.8 C 120.84 30.81 120.1 30.7 120.1 30.7 L 120.2 30.4 L 122.5 30.1 L 122.6 30.2 C 122.6 30.2 120.47 38.53 120.5 38.5 C 120.4 39 120.4 39.2 120.6 39.2 C 120.9 39.2 121.5 38.4 121.8 37.9 C 121.8 37.9 122.1 38 122.1 38 C 121.7 39 120.9 39.9 120 39.9 C 119.3 39.9 119.1 39.4 119.3 38.6 C 119.3 38.6 121.1 31.4 121.1 31.4 Z M 126.2 33.6 L 128.5 33.2 L 128.6 33.3 C 128.6 33.3 127.35 38.09 127.4 38.1 C 127.2 38.8 127.3 39.2 127.7 39.2 C 128.8 39.2 129.9 37.5 130.5 36.2 C 130.8 35.4 131 34.7 131.4 33.4 C 131.38 33.38 132.5 33.2 132.5 33.2 C 132.5 33.2 131.15 38.53 131.1 38.5 C 131 38.9 131 39.2 131.3 39.2 C 131.7 39.2 132.3 38.3 132.5 37.9 C 132.5 37.9 132.8 38 132.8 38 C 132.4 39 131.6 39.9 130.7 39.9 C 130 39.9 129.8 39.4 130.1 38.5 C 130.06 38.5 130.5 37 130.5 37 C 130.5 37 130.46 37.02 130.5 37 C 129.7 38.5 128.3 39.9 127.1 39.9 C 126 39.9 125.9 39.1 126.2 38 C 126.2 38 127.1 34.6 127.1 34.6 C 127.2 34.2 127.2 34 126.9 34 C 126.9 33.96 126.1 33.9 126.1 33.9 L 126.2 33.6 Z M 134.9 34.6 C 135 34.2 135 34 134.7 34 C 134.72 33.96 133.9 33.9 133.9 33.9 L 134 33.6 L 136.3 33.2 L 136.4 33.3 L 135.7 36 C 135.7 36 135.71 36.03 135.7 36 C 136.7 34.2 138 33.2 139 33.2 C 139.9 33.2 140.4 33.8 140.4 35 C 140.4 36 139.6 39.9 136.4 39.9 C 135.7 39.9 135.2 39.8 135 39.6 C 134.97 39.62 134.3 42.7 134.3 42.7 L 133.1 42.9 C 133.1 42.9 134.92 34.59 134.9 34.6 Z M 136.2 39.5 C 138.4 39.5 139.1 36 139.1 35 C 139.1 34.3 138.9 33.9 138.4 33.9 C 137.7 33.9 136.8 34.9 136.1 36 C 135.6 36.9 135.3 38.2 135.1 39.1 C 135.4 39.3 135.7 39.5 136.2 39.5 Z M 145.3 33.2 C 145.7 33.2 146.1 33.3 146.3 33.5 C 146.28 33.5 146.3 33.3 146.3 33.3 L 147.4 33.3 C 147.4 33.3 146.06 38.51 146.1 38.5 C 145.9 38.9 145.9 39.2 146.2 39.2 C 146.6 39.2 147.1 38.3 147.4 37.9 C 147.4 37.9 147.7 38 147.7 38 C 147.2 39 146.5 39.9 145.5 39.9 C 144.8 39.9 144.7 39.4 144.9 38.4 C 144.94 38.45 145.4 37 145.4 37 C 145.4 37 145.36 36.97 145.4 37 C 144.6 38.3 143.4 39.9 142 39.9 C 141.1 39.9 140.8 39.1 140.8 38.4 C 140.8 36.6 142.2 33.2 145.3 33.2 Z M 142.6 39.2 C 143.2 39.2 144 38.4 144.8 37.3 C 145.4 36.2 145.9 34.9 146.1 34 C 146 33.8 145.7 33.7 145.4 33.7 C 143.3 33.7 142 36.9 142 38.3 C 142 38.8 142.2 39.2 142.6 39.2 Z M 149.7 34.6 C 149.8 34.2 149.8 34 149.5 34 C 149.5 33.96 148.7 33.9 148.7 33.9 L 148.8 33.6 L 151.2 33.2 L 151.2 33.3 L 150.4 36.1 C 150.4 36.1 150.41 36.12 150.4 36.1 C 151.2 34.6 152.5 33.2 153.8 33.2 C 154.9 33.2 155 34.1 154.7 35.1 C 154.7 35.1 153.7 38.5 153.7 38.5 C 153.6 38.9 153.6 39.2 153.8 39.2 C 154.2 39.2 154.8 38.3 155 37.9 C 155 37.9 155.3 38 155.3 38 C 154.9 39 154.1 39.9 153.2 39.9 C 152.5 39.9 152.3 39.4 152.5 38.6 C 152.5 38.6 153.6 34.8 153.6 34.8 C 153.8 34.3 153.7 33.9 153.2 33.9 C 152.1 33.9 150.9 35.8 150.4 36.9 C 150.1 37.7 149.9 38.4 149.5 39.8 C 149.48 39.75 148.3 39.9 148.3 39.9 C 148.3 39.9 149.7 34.59 149.7 34.6 Z M 157.4 39.2 C 157.4 39.2 157.4 39.2 157.4 39.2 C 156.8 38.9 156.4 38.6 156.4 38.2 C 156.4 37.7 157.2 37.4 157.6 37.2 C 157.6 37.2 157.6 37.2 157.6 37.2 C 157.2 37.1 156.5 36.6 156.5 35.6 C 156.5 34.7 157.2 33.2 159.3 33.2 C 159.9 33.2 160.6 33.4 160.9 33.6 C 160.9 33.61 162.8 33.1 162.8 33.1 L 162.9 33.2 L 162.4 34 C 162.4 34 161.35 34.19 161.3 34.2 C 161.5 34.4 161.6 34.7 161.6 35.1 C 161.6 36.4 160.6 37.4 158.8 37.4 C 158.6 37.4 158.4 37.4 158.1 37.4 C 157.8 37.4 157.5 37.6 157.5 37.9 C 157.5 38.2 158 38.4 159.1 38.7 C 160.6 39 161.4 39.8 161.4 40.7 C 161.4 42.2 160 42.9 158.2 42.9 C 156.6 42.9 155.4 42.2 155.4 41 C 155.4 39.9 156.5 39.4 157.4 39.2 Z M 158.5 42.4 C 159.5 42.4 160.3 42 160.3 41 C 160.3 39.9 158.7 39.5 157.9 39.4 C 157.4 39.5 156.5 39.9 156.5 40.9 C 156.5 41.8 157.4 42.4 158.5 42.4 Z M 158.8 37 C 159.8 37 160.4 36 160.4 34.8 C 160.4 33.9 159.8 33.7 159.4 33.7 C 158.1 33.7 157.7 35 157.7 35.8 C 157.7 36.5 158.1 37 158.8 37 Z M 166.7 34.6 C 166.8 34.2 166.9 34 166.5 34 C 166.55 33.96 165.8 33.9 165.8 33.9 L 165.8 33.6 L 168.2 33.2 L 168.2 33.3 L 167.4 36 C 167.4 36 167.47 35.98 167.5 36 C 168.4 34.3 169.6 33.2 170.8 33.2 C 171.7 33.2 171.9 33.9 171.6 35.2 C 171.55 35.16 171.3 36 171.3 36 C 171.3 36 171.34 35.98 171.3 36 C 172.3 34.3 173.5 33.2 174.6 33.2 C 175.7 33.2 175.9 34.1 175.6 35.1 C 175.6 35.1 174.6 38.5 174.6 38.5 C 174.5 38.9 174.5 39.2 174.7 39.2 C 175.1 39.2 175.6 38.3 175.9 37.9 C 175.9 37.9 176.2 38 176.2 38 C 175.8 39 175 39.9 174.1 39.9 C 173.4 39.9 173.2 39.4 173.4 38.6 C 173.4 38.6 174.5 34.8 174.5 34.8 C 174.7 34.3 174.5 33.9 174.1 33.9 C 173 33.9 171.8 35.8 171.3 36.9 C 171 37.7 170.8 38.4 170.4 39.8 C 170.39 39.75 169.3 39.9 169.3 39.9 L 169.6 38.6 C 169.6 38.6 170.56 34.99 170.6 35 C 170.8 34.2 170.6 33.9 170.2 33.9 C 169.1 33.9 167.8 35.8 167.4 37 C 167.1 37.7 166.9 38.4 166.5 39.8 C 166.52 39.75 165.4 39.9 165.4 39.9 C 165.4 39.9 166.73 34.59 166.7 34.6 Z M 181.3 33.2 C 181.6 33.2 182 33.3 182.2 33.5 C 182.22 33.5 182.3 33.3 182.3 33.3 L 183.4 33.3 C 183.4 33.3 182 38.51 182 38.5 C 181.9 38.9 181.9 39.2 182.1 39.2 C 182.5 39.2 183.1 38.3 183.3 37.9 C 183.3 37.9 183.6 38 183.6 38 C 183.2 39 182.4 39.9 181.5 39.9 C 180.8 39.9 180.6 39.4 180.9 38.4 C 180.89 38.45 181.3 37 181.3 37 C 181.3 37 181.3 36.97 181.3 37 C 180.5 38.3 179.3 39.9 177.9 39.9 C 177.1 39.9 176.7 39.1 176.7 38.4 C 176.7 36.6 178.2 33.2 181.3 33.2 Z M 178.6 39.2 C 179.2 39.2 180 38.4 180.7 37.3 C 181.4 36.2 181.9 34.9 182.1 34 C 181.9 33.8 181.6 33.7 181.3 33.7 C 179.3 33.7 178 36.9 178 38.3 C 178 38.8 178.1 39.2 178.6 39.2 Z M 186 31.4 C 186.1 30.9 186 30.8 185.7 30.8 C 185.72 30.81 185 30.7 185 30.7 L 185.1 30.4 L 187.4 30.1 L 187.5 30.2 L 186 35.9 C 186 35.9 186.03 35.9 186 35.9 C 187 34.1 188.3 33.2 189.3 33.2 C 190.3 33.2 190.7 33.9 190.7 34.9 C 190.7 35.4 190.5 36.6 189.8 37.7 C 189.2 38.9 188.1 39.9 186.6 39.9 C 185.8 39.9 185.2 39.5 184.9 39 C 184.94 39 184.5 39.8 184.5 39.8 L 184.1 39.8 C 184.1 39.8 185.98 31.44 186 31.4 Z M 186.7 39.5 C 188.6 39.5 189.4 35.9 189.4 35 C 189.4 34.2 189.2 33.9 188.7 33.9 C 187.9 33.9 186.9 35 186.4 36.1 C 185.9 36.8 185.7 37.7 185.7 38.3 C 185.7 39 186.1 39.5 186.7 39.5 Z M 194.2 30.5 C 194.5 30.5 194.9 30.7 194.9 31.2 C 194.9 31.7 194.5 32 194 32 C 193.6 32 193.3 31.8 193.3 31.3 C 193.3 30.9 193.6 30.5 194.2 30.5 Z M 192.8 34.6 C 192.9 34.1 192.9 34 192.5 34 C 192.52 33.96 191.8 33.9 191.8 33.9 L 191.9 33.6 L 194.2 33.2 L 194.3 33.3 C 194.3 33.3 192.87 38.51 192.9 38.5 C 192.8 38.9 192.7 39.2 193 39.2 C 193.4 39.2 193.9 38.3 194.2 37.9 C 194.2 37.9 194.5 38 194.5 38 C 194 39 193.3 39.9 192.4 39.9 C 191.7 39.9 191.5 39.4 191.7 38.6 C 191.7 38.6 192.8 34.6 192.8 34.6 Z M 196.5 39.2 C 196.5 39.2 196.5 39.2 196.5 39.2 C 196 38.9 195.6 38.6 195.6 38.2 C 195.6 37.7 196.4 37.4 196.8 37.2 C 196.8 37.2 196.8 37.2 196.8 37.2 C 196.4 37.1 195.7 36.6 195.7 35.6 C 195.7 34.7 196.3 33.2 198.5 33.2 C 199.1 33.2 199.7 33.4 200.1 33.6 C 200.07 33.61 202 33.1 202 33.1 L 202 33.2 L 201.6 34 C 201.6 34 200.51 34.19 200.5 34.2 C 200.7 34.4 200.8 34.7 200.8 35.1 C 200.8 36.4 199.8 37.4 198 37.4 C 197.8 37.4 197.5 37.4 197.3 37.4 C 197 37.4 196.7 37.6 196.7 37.9 C 196.7 38.2 197.2 38.4 198.3 38.7 C 199.8 39 200.6 39.8 200.6 40.7 C 200.6 42.2 199.1 42.9 197.4 42.9 C 195.7 42.9 194.5 42.2 194.5 41 C 194.5 39.9 195.6 39.4 196.5 39.2 Z M 197.7 42.4 C 198.6 42.4 199.4 42 199.4 41 C 199.4 39.9 197.9 39.5 197.1 39.4 C 196.6 39.5 195.7 39.9 195.7 40.9 C 195.7 41.8 196.5 42.4 197.7 42.4 Z M 198 37 C 199 37 199.6 36 199.6 34.8 C 199.6 33.9 198.9 33.7 198.6 33.7 C 197.3 33.7 196.9 35 196.9 35.8 C 196.9 36.5 197.3 37 198 37 Z M 201.5 41.4 C 201.7 41.4 201.8 41.5 201.9 41.7 C 202.1 42 202.3 42.1 202.5 42.1 C 202.7 42.1 203.1 41.7 203.3 41.2 C 203.6 40.5 203.6 40 203.6 39.6 C 203.6 38.5 203.3 36 203.2 35 C 203.1 34.4 203 34.1 202.7 34.1 C 202.72 34.15 201.8 34.2 201.8 34.2 L 201.8 33.8 L 204 33.2 C 204 33.2 204.09 33.28 204.1 33.3 C 204.3 34.2 204.5 37 204.6 39 C 204.6 39 204.6 39 204.6 39 C 205.5 37.5 206.3 36.1 206.5 35.3 C 206.6 34.8 206.7 34 206.7 33.5 C 207 33.3 207.4 33.2 207.7 33.2 C 207.8 33.2 207.9 33.5 207.9 34 C 207.9 34.5 207.1 35.7 206.3 37 C 205.5 38.3 204.8 39.7 204.5 40.1 C 203.3 42.1 202.9 42.9 201.8 42.9 C 201.2 42.9 200.8 42.5 200.8 42.2 C 200.8 41.8 201.1 41.4 201.5 41.4 Z M 212.3 33.2 C 212.6 33.2 213 33.3 213.2 33.5 C 213.22 33.5 213.3 33.3 213.3 33.3 L 214.4 33.3 C 214.4 33.3 212.99 38.51 213 38.5 C 212.9 38.9 212.9 39.2 213.1 39.2 C 213.5 39.2 214.1 38.3 214.3 37.9 C 214.3 37.9 214.6 38 214.6 38 C 214.2 39 213.4 39.9 212.4 39.9 C 211.7 39.9 211.6 39.4 211.9 38.4 C 211.88 38.45 212.3 37 212.3 37 C 212.3 37 212.29 36.97 212.3 37 C 211.5 38.3 210.3 39.9 208.9 39.9 C 208.1 39.9 207.7 39.1 207.7 38.4 C 207.7 36.6 209.2 33.2 212.3 33.2 Z M 209.5 39.2 C 210.2 39.2 211 38.4 211.7 37.3 C 212.4 36.2 212.9 34.9 213.1 34 C 212.9 33.8 212.6 33.7 212.3 33.7 C 210.3 33.7 209 36.9 209 38.3 C 209 38.8 209.1 39.2 209.5 39.2 Z M 216.6 34.6 C 216.8 34.2 216.8 34 216.4 34 C 216.44 33.96 215.6 33.9 215.6 33.9 L 215.7 33.6 L 218.1 33.2 L 218.2 33.3 L 217.3 36.1 C 217.3 36.1 217.35 36.12 217.3 36.1 C 218.1 34.6 219.5 33.2 220.7 33.2 C 221.8 33.2 222 34.1 221.7 35.1 C 221.7 35.1 220.6 38.5 220.6 38.5 C 220.5 38.9 220.5 39.2 220.8 39.2 C 221.1 39.2 221.7 38.3 221.9 37.9 C 221.9 37.9 222.3 38 222.3 38 C 221.8 39 221.1 39.9 220.1 39.9 C 219.4 39.9 219.2 39.4 219.4 38.6 C 219.4 38.6 220.6 34.8 220.6 34.8 C 220.7 34.3 220.6 33.9 220.1 33.9 C 219.1 33.9 217.8 35.8 217.3 36.9 C 217 37.7 216.8 38.4 216.4 39.8 C 216.41 39.75 215.3 39.9 215.3 39.9 C 215.3 39.9 216.63 34.59 216.6 34.6 Z M 227.3 34.6 C 227.5 34.2 227.5 34 227.1 34 C 227.14 33.96 226.3 33.9 226.3 33.9 L 226.4 33.6 L 228.8 33.2 L 228.9 33.3 L 228 36.1 C 228 36.1 228.05 36.12 228 36.1 C 228.8 34.6 230.2 33.2 231.4 33.2 C 232.5 33.2 232.7 34.1 232.4 35.1 C 232.4 35.1 231.3 38.5 231.3 38.5 C 231.2 38.9 231.2 39.2 231.5 39.2 C 231.8 39.2 232.4 38.3 232.6 37.9 C 232.6 37.9 232.9 38 232.9 38 C 232.5 39 231.8 39.9 230.8 39.9 C 230.1 39.9 229.9 39.4 230.1 38.6 C 230.1 38.6 231.3 34.8 231.3 34.8 C 231.4 34.3 231.3 33.9 230.8 33.9 C 229.8 33.9 228.5 35.8 228 36.9 C 227.7 37.7 227.5 38.4 227.1 39.8 C 227.11 39.75 226 39.9 226 39.9 C 226 39.9 227.33 34.59 227.3 34.6 Z M 235 39.2 C 235 39.2 235 39.2 235 39.2 C 234.5 38.9 234.1 38.6 234.1 38.2 C 234.1 37.7 234.8 37.4 235.3 37.2 C 235.3 37.2 235.3 37.2 235.3 37.2 C 234.9 37.1 234.2 36.6 234.2 35.6 C 234.2 34.7 234.8 33.2 236.9 33.2 C 237.6 33.2 238.2 33.4 238.5 33.6 C 238.54 33.61 240.4 33.1 240.4 33.1 L 240.5 33.2 L 240.1 34 C 240.1 34 238.98 34.19 239 34.2 C 239.2 34.4 239.3 34.7 239.3 35.1 C 239.3 36.4 238.3 37.4 236.4 37.4 C 236.3 37.4 236 37.4 235.7 37.4 C 235.4 37.4 235.2 37.6 235.2 37.9 C 235.2 38.2 235.7 38.4 236.7 38.7 C 238.3 39 239 39.8 239 40.7 C 239 42.2 237.6 42.9 235.8 42.9 C 234.2 42.9 233 42.2 233 41 C 233 39.9 234.1 39.4 235 39.2 Z M 236.1 42.4 C 237.1 42.4 237.9 42 237.9 41 C 237.9 39.9 236.4 39.5 235.6 39.4 C 235 39.5 234.2 39.9 234.2 40.9 C 234.2 41.8 235 42.4 236.1 42.4 Z M 236.5 37 C 237.4 37 238.1 36 238.1 34.8 C 238.1 33.9 237.4 33.7 237 33.7 C 235.8 33.7 235.4 35 235.4 35.8 C 235.4 36.5 235.8 37 236.5 37 Z M 244.3 34.6 C 244.4 34.2 244.4 34 244.1 34 C 244.1 33.96 243.3 33.9 243.3 33.9 L 243.4 33.6 L 245.6 33.2 L 245.7 33.3 L 245.1 35.4 C 245.1 35.4 245.12 35.45 245.1 35.4 C 245.8 34 246.7 33.2 247.4 33.2 C 247.9 33.2 248 33.4 248 33.8 C 248 34.2 247.7 34.6 247.4 34.6 C 247 34.6 246.9 34.3 246.5 34.3 C 246 34.3 245.4 35.4 244.9 37.1 C 244.7 37.9 244.4 38.9 244.2 39.8 C 244.22 39.75 243.1 39.9 243.1 39.9 C 243.1 39.9 244.3 34.59 244.3 34.6 Z M 248.6 34.7 C 249.3 33.8 250.3 33.2 251.5 33.2 C 252.5 33.2 253.1 33.8 253.1 34.5 C 253.1 34.9 253 35.3 252.5 35.8 C 252 36.3 251 36.8 248.8 37.3 C 248.8 37.3 248.8 37.4 248.8 37.5 C 248.8 38.5 249.1 39.3 250 39.3 C 251 39.3 251.7 38.4 252.2 37.8 C 252.2 37.8 252.5 38 252.5 38 C 251.6 39.5 250.4 39.9 249.5 39.9 C 248.7 39.9 247.5 39.6 247.5 37.8 C 247.5 36.7 247.9 35.6 248.6 34.7 Z M 251.9 34.4 C 251.9 34 251.6 33.7 251.1 33.7 C 250.1 33.7 249.1 35.2 248.9 36.8 C 251.1 36.3 251.9 35.4 251.9 34.4 Z M 253.6 38 C 253.9 38 254 38.1 254.1 38.4 C 254.3 39 254.7 39.5 255.2 39.5 C 255.8 39.5 256.2 39.1 256.2 38.5 C 256.2 38 255.8 37.4 255.3 37 C 254.6 36.4 254.1 35.8 254.1 35.1 C 254.1 34.1 254.9 33.2 256.2 33.2 C 257.4 33.2 257.9 33.8 257.9 34.2 C 257.9 34.6 257.5 34.8 257.3 34.8 C 257.1 34.8 257 34.7 256.9 34.6 C 256.6 34 256.3 33.7 255.9 33.7 C 255.4 33.7 255 34.1 255 34.5 C 255 34.9 255.2 35.3 256 36 C 256.8 36.7 257.2 37.2 257.2 37.9 C 257.2 39 256.3 39.9 254.9 39.9 C 253.7 39.9 253 39.2 253 38.7 C 253 38.3 253.3 38 253.6 38 Z M 259.8 34.6 C 259.8 34.2 259.9 34 259.6 34 C 259.56 33.96 258.8 33.9 258.8 33.9 L 258.8 33.6 L 261.2 33.2 L 261.2 33.3 L 260.5 36 C 260.5 36 260.55 36.03 260.5 36 C 261.5 34.2 262.8 33.2 263.8 33.2 C 264.8 33.2 265.3 33.8 265.3 35 C 265.3 36 264.4 39.9 261.2 39.9 C 260.5 39.9 260.1 39.8 259.8 39.6 C 259.81 39.62 259.1 42.7 259.1 42.7 L 257.9 42.9 C 257.9 42.9 259.75 34.59 259.8 34.6 Z M 261.1 39.5 C 263.2 39.5 264 36 264 35 C 264 34.3 263.7 33.9 263.3 33.9 C 262.5 33.9 261.6 34.9 261 36 C 260.5 36.9 260.1 38.2 259.9 39.1 C 260.2 39.3 260.6 39.5 261.1 39.5 Z M 266.9 34.7 C 267.6 33.8 268.5 33.2 269.7 33.2 C 270.8 33.2 271.3 33.8 271.3 34.5 C 271.3 34.9 271.2 35.3 270.8 35.8 C 270.2 36.3 269.3 36.8 267.1 37.3 C 267.1 37.3 267.1 37.4 267.1 37.5 C 267.1 38.5 267.3 39.3 268.2 39.3 C 269.2 39.3 269.9 38.4 270.4 37.8 C 270.4 37.8 270.7 38 270.7 38 C 269.8 39.5 268.7 39.9 267.7 39.9 C 267 39.9 265.8 39.6 265.8 37.8 C 265.8 36.7 266.2 35.6 266.9 34.7 Z M 270.1 34.4 C 270.1 34 269.8 33.7 269.3 33.7 C 268.3 33.7 267.3 35.2 267.1 36.8 C 269.3 36.3 270.1 35.4 270.1 34.4 Z M 273.3 33.9 L 272.2 33.9 L 272.4 33.4 L 273.4 33.4 L 273.6 32.7 L 274.8 31.7 L 275 31.8 L 274.5 33.4 L 276.2 33.4 L 276.1 33.9 L 274.4 33.9 C 274.4 33.9 273.27 38.61 273.3 38.6 C 273.2 38.9 273.2 39.2 273.5 39.2 C 273.9 39.2 274.5 38.4 274.8 37.9 C 274.8 37.9 275.1 38.1 275.1 38.1 C 274.6 39 273.8 39.9 272.7 39.9 C 272.1 39.9 271.9 39.4 272.1 38.6 C 272.12 38.63 273.3 33.9 273.3 33.9 Z M 279.7 33.2 C 280.8 33.2 282 33.7 282 35.5 C 282 36.2 281.8 37.3 281.2 38.2 C 280.6 39.2 279.7 39.9 278.3 39.9 C 276.6 39.9 275.9 38.9 275.9 37.6 C 275.9 36.4 276.6 33.2 279.7 33.2 Z M 278.3 39.5 C 280.1 39.5 280.8 36 280.8 35 C 280.8 34.2 280.5 33.7 279.7 33.7 C 278 33.7 277.1 36.7 277.1 38.1 C 277.1 39 277.6 39.5 278.3 39.5 Z " stroke="none" fill="#000"/>
  </g>
  <g id="Polygon18577">
    <path d="M 15.1 19.6 C 15.2 19.2 15.2 19 14.9 19 C 14.88 18.96 14.1 18.9 14.1 18.9 L 14.1 18.6 L 16.5 18.2 L 16.6 18.3 L 15.7 21.1 C 15.7 21.1 15.79 21.12 15.8 21.1 C 16.6 19.6 17.9 18.2 19.2 18.2 C 20.2 18.2 20.4 19.1 20.1 20.1 C 20.1 20.1 19.1 23.5 19.1 23.5 C 19 23.9 18.9 24.2 19.2 24.2 C 19.6 24.2 20.1 23.3 20.4 22.9 C 20.4 22.9 20.7 23 20.7 23 C 20.2 24 19.5 24.9 18.5 24.9 C 17.8 24.9 17.7 24.4 17.9 23.6 C 17.9 23.6 19 19.8 19 19.8 C 19.1 19.3 19 18.9 18.6 18.9 C 17.5 18.9 16.3 20.8 15.8 21.9 C 15.4 22.7 15.2 23.4 14.9 24.8 C 14.85 24.75 13.7 24.9 13.7 24.9 C 13.7 24.9 15.07 19.59 15.1 19.6 Z M 22.7 24.2 C 22.7 24.2 22.7 24.2 22.7 24.2 C 22.2 23.9 21.8 23.6 21.8 23.2 C 21.8 22.7 22.6 22.4 23 22.2 C 23 22.2 23 22.2 23 22.2 C 22.6 22.1 21.9 21.6 21.9 20.6 C 21.9 19.7 22.5 18.2 24.7 18.2 C 25.3 18.2 25.9 18.4 26.3 18.6 C 26.28 18.61 28.2 18.1 28.2 18.1 L 28.2 18.2 L 27.8 19 C 27.8 19 26.72 19.19 26.7 19.2 C 26.9 19.4 27 19.7 27 20.1 C 27 21.4 26 22.4 24.2 22.4 C 24 22.4 23.7 22.4 23.5 22.4 C 23.2 22.4 22.9 22.6 22.9 22.9 C 22.9 23.2 23.4 23.4 24.5 23.7 C 26 24 26.8 24.8 26.8 25.7 C 26.8 27.2 25.3 27.9 23.6 27.9 C 21.9 27.9 20.7 27.2 20.7 26 C 20.7 24.9 21.8 24.4 22.7 24.2 Z M 23.9 27.4 C 24.8 27.4 25.7 27 25.7 26 C 25.7 24.9 24.1 24.5 23.3 24.4 C 22.8 24.5 21.9 24.9 21.9 25.9 C 21.9 26.8 22.7 27.4 23.9 27.4 Z M 24.2 22 C 25.2 22 25.8 21 25.8 19.8 C 25.8 18.9 25.1 18.7 24.8 18.7 C 23.5 18.7 23.1 20 23.1 20.8 C 23.1 21.5 23.5 22 24.2 22 Z M 30.1 24.4 C 30.1 24.4 30.8 24.29 30.8 24.3 C 31.1 24.3 31.2 24.1 31.3 23.7 C 31.3 23.7 32.9 16.8 32.9 16.8 C 33 16.4 32.9 16.2 32.6 16.2 C 32.62 16.2 31.9 16.1 31.9 16.1 L 31.9 15.8 C 31.9 15.8 34.99 15.75 35 15.8 C 35.8 15.8 36.7 15.9 37.3 16.2 C 37.9 16.6 38.3 17.3 38.3 18.1 C 38.3 19.1 37.9 20 37 20.5 C 36.3 21 35.2 21.1 34.1 21.1 C 34.14 21.11 33.2 21.1 33.2 21.1 C 33.2 21.1 32.6 23.67 32.6 23.7 C 32.5 24.1 32.6 24.3 32.9 24.3 C 32.88 24.29 33.8 24.4 33.8 24.4 L 33.7 24.8 L 30 24.8 L 30.1 24.4 Z M 34.2 20.7 C 35.9 20.7 37 19.8 37 17.9 C 37 16.8 36.3 16.2 35 16.2 C 34.4 16.2 34.3 16.3 34.2 16.7 C 34.2 16.7 33.4 20.1 33.4 20.1 C 33.3 20.5 33.3 20.7 34.2 20.7 Z M 41.4 15.5 C 41.7 15.5 42.1 15.7 42.1 16.2 C 42.1 16.7 41.7 17 41.2 17 C 40.8 17 40.5 16.8 40.5 16.3 C 40.5 15.9 40.8 15.5 41.4 15.5 Z M 40 19.6 C 40.1 19.1 40.1 19 39.7 19 C 39.72 18.96 39 18.9 39 18.9 L 39.1 18.6 L 41.4 18.2 L 41.5 18.3 C 41.5 18.3 40.07 23.51 40.1 23.5 C 40 23.9 39.9 24.2 40.2 24.2 C 40.6 24.2 41.1 23.3 41.4 22.9 C 41.4 22.9 41.7 23 41.7 23 C 41.2 24 40.5 24.9 39.6 24.9 C 38.9 24.9 38.7 24.4 38.9 23.6 C 38.9 23.6 40 19.6 40 19.6 Z M 44.6 16.4 C 44.8 15.9 44.7 15.8 44.4 15.8 C 44.36 15.81 43.6 15.7 43.6 15.7 L 43.7 15.4 L 46 15.1 L 46.1 15.2 C 46.1 15.2 44 23.53 44 23.5 C 43.9 24 43.9 24.2 44.1 24.2 C 44.4 24.2 45 23.4 45.3 22.9 C 45.3 22.9 45.6 23 45.6 23 C 45.2 24 44.4 24.9 43.5 24.9 C 42.8 24.9 42.7 24.4 42.8 23.6 C 42.8 23.6 44.6 16.4 44.6 16.4 Z M 49.2 15.5 C 49.6 15.5 49.9 15.7 49.9 16.2 C 49.9 16.7 49.6 17 49.1 17 C 48.7 17 48.4 16.8 48.4 16.3 C 48.4 15.9 48.6 15.5 49.2 15.5 Z M 47.8 19.6 C 47.9 19.1 47.9 19 47.6 19 C 47.56 18.96 46.8 18.9 46.8 18.9 L 46.9 18.6 L 49.3 18.2 L 49.3 18.3 C 49.3 18.3 47.91 23.51 47.9 23.5 C 47.8 23.9 47.8 24.2 48 24.2 C 48.4 24.2 49 23.3 49.2 22.9 C 49.2 22.9 49.5 23 49.5 23 C 49.1 24 48.4 24.9 47.4 24.9 C 46.7 24.9 46.5 24.4 46.7 23.6 C 46.7 23.6 47.8 19.6 47.8 19.6 Z M 51.7 19.6 C 51.8 19.2 51.8 19 51.5 19 C 51.54 18.96 50.7 18.9 50.7 18.9 L 50.8 18.6 L 53.2 18.2 L 53.2 18.3 L 52.5 21 C 52.5 21 52.52 21.03 52.5 21 C 53.5 19.2 54.8 18.2 55.8 18.2 C 56.8 18.2 57.2 18.8 57.2 20 C 57.2 21 56.4 24.9 53.2 24.9 C 52.5 24.9 52.1 24.8 51.8 24.6 C 51.78 24.62 51.1 27.7 51.1 27.7 L 49.9 27.9 C 49.9 27.9 51.73 19.59 51.7 19.6 Z M 53.1 24.5 C 55.2 24.5 56 21 56 20 C 56 19.3 55.7 18.9 55.3 18.9 C 54.5 18.9 53.6 19.9 52.9 21 C 52.4 21.9 52.1 23.2 51.9 24.1 C 52.2 24.3 52.6 24.5 53.1 24.5 Z M 60.7 15.5 C 61.1 15.5 61.4 15.7 61.4 16.2 C 61.4 16.7 61.1 17 60.6 17 C 60.2 17 59.9 16.8 59.9 16.3 C 59.9 15.9 60.2 15.5 60.7 15.5 Z M 59.4 19.6 C 59.5 19.1 59.4 19 59.1 19 C 59.09 18.96 58.3 18.9 58.3 18.9 L 58.4 18.6 L 60.8 18.2 L 60.9 18.3 C 60.9 18.3 59.44 23.51 59.4 23.5 C 59.3 23.9 59.3 24.2 59.6 24.2 C 59.9 24.2 60.5 23.3 60.7 22.9 C 60.7 22.9 61.1 23 61.1 23 C 60.6 24 59.9 24.9 58.9 24.9 C 58.2 24.9 58.1 24.4 58.3 23.6 C 58.3 23.6 59.4 19.6 59.4 19.6 Z M 63.3 19.6 C 63.5 19.2 63.5 19 63.1 19 C 63.15 18.96 62.3 18.9 62.3 18.9 L 62.4 18.6 L 64.8 18.2 L 64.9 18.3 L 64 21.1 C 64 21.1 64.06 21.12 64.1 21.1 C 64.8 19.6 66.2 18.2 67.4 18.2 C 68.5 18.2 68.7 19.1 68.4 20.1 C 68.4 20.1 67.3 23.5 67.3 23.5 C 67.2 23.9 67.2 24.2 67.5 24.2 C 67.8 24.2 68.4 23.3 68.6 22.9 C 68.6 22.9 69 23 69 23 C 68.5 24 67.8 24.9 66.8 24.9 C 66.1 24.9 65.9 24.4 66.1 23.6 C 66.1 23.6 67.3 19.8 67.3 19.8 C 67.4 19.3 67.3 18.9 66.8 18.9 C 65.8 18.9 64.5 20.8 64.1 21.9 C 63.7 22.7 63.5 23.4 63.1 24.8 C 63.12 24.75 62 24.9 62 24.9 C 62 24.9 63.34 19.59 63.3 19.6 Z M 74 18.2 C 74.4 18.2 74.8 18.3 75 18.5 C 74.99 18.5 75.1 18.3 75.1 18.3 L 76.1 18.3 C 76.1 18.3 74.77 23.51 74.8 23.5 C 74.7 23.9 74.6 24.2 74.9 24.2 C 75.3 24.2 75.8 23.3 76.1 22.9 C 76.1 22.9 76.4 23 76.4 23 C 75.9 24 75.2 24.9 74.2 24.9 C 73.5 24.9 73.4 24.4 73.6 23.4 C 73.65 23.45 74.1 22 74.1 22 C 74.1 22 74.07 21.97 74.1 22 C 73.3 23.3 72.1 24.9 70.7 24.9 C 69.8 24.9 69.5 24.1 69.5 23.4 C 69.5 21.6 70.9 18.2 74 18.2 Z M 71.3 24.2 C 71.9 24.2 72.7 23.4 73.5 22.3 C 74.2 21.2 74.6 19.9 74.9 19 C 74.7 18.8 74.4 18.7 74.1 18.7 C 72 18.7 70.8 21.9 70.8 23.3 C 70.8 23.8 70.9 24.2 71.3 24.2 Z M 77.1 23 C 77.4 23 77.5 23.1 77.6 23.4 C 77.8 24 78.3 24.5 78.7 24.5 C 79.3 24.5 79.7 24.1 79.7 23.5 C 79.7 23 79.3 22.4 78.8 22 C 78.1 21.4 77.6 20.8 77.6 20.1 C 77.6 19.1 78.4 18.2 79.7 18.2 C 80.9 18.2 81.4 18.8 81.4 19.2 C 81.4 19.6 81 19.8 80.8 19.8 C 80.6 19.8 80.5 19.7 80.4 19.6 C 80.1 19 79.8 18.7 79.4 18.7 C 78.9 18.7 78.6 19.1 78.6 19.5 C 78.6 19.9 78.7 20.3 79.5 21 C 80.3 21.7 80.7 22.2 80.7 22.9 C 80.7 24 79.8 24.9 78.4 24.9 C 77.2 24.9 76.5 24.2 76.5 23.7 C 76.5 23.3 76.8 23 77.1 23 Z M 81.5 21.1 L 94.5 21.1 L 94.3 21.9 L 81.3 21.9 L 81.5 21.1 Z M 96.8 16.4 C 96.9 15.9 96.8 15.8 96.5 15.8 C 96.52 15.81 95.8 15.7 95.8 15.7 L 95.9 15.4 L 98.2 15.1 L 98.2 15.2 L 96 24.8 L 94.8 24.9 C 94.8 24.9 96.78 16.44 96.8 16.4 Z M 98.9 19.2 C 99.6 18.6 100.2 18.2 100.7 18.2 C 101.2 18.2 101.4 18.5 101.4 18.9 C 101.4 19.2 101.1 19.6 100.8 19.6 C 100.6 19.6 100.5 19.5 100.4 19.5 C 100.1 19.3 99.9 19.2 99.8 19.2 C 99.3 19.2 98.3 20.3 97.9 20.7 C 98.2 21.6 98.5 22.4 98.9 23.3 C 99.2 23.9 99.4 24.2 99.6 24.2 C 100 24.2 100.3 23.7 100.7 22.9 C 100.7 22.9 101 23.1 101 23.1 C 100.6 24.2 100 24.9 99.2 24.9 C 98.6 24.9 98.2 24.5 97.8 23.7 C 97.4 22.9 97.1 22.1 96.9 21.3 C 97.5 20.5 98.2 19.8 98.9 19.2 Z M 106 18.2 C 106.3 18.2 106.7 18.3 106.9 18.5 C 106.9 18.5 107 18.3 107 18.3 L 108.1 18.3 C 108.1 18.3 106.68 23.51 106.7 23.5 C 106.6 23.9 106.6 24.2 106.8 24.2 C 107.2 24.2 107.7 23.3 108 22.9 C 108 22.9 108.3 23 108.3 23 C 107.9 24 107.1 24.9 106.1 24.9 C 105.4 24.9 105.3 24.4 105.6 23.4 C 105.56 23.45 106 22 106 22 C 106 22 105.98 21.97 106 22 C 105.2 23.3 104 24.9 102.6 24.9 C 101.7 24.9 101.4 24.1 101.4 23.4 C 101.4 21.6 102.9 18.2 106 18.2 Z M 103.2 24.2 C 103.9 24.2 104.7 23.4 105.4 22.3 C 106.1 21.2 106.5 19.9 106.8 19 C 106.6 18.8 106.3 18.7 106 18.7 C 103.9 18.7 102.7 21.9 102.7 23.3 C 102.7 23.8 102.8 24.2 103.2 24.2 Z M 111.7 15.5 C 112.1 15.5 112.4 15.7 112.4 16.2 C 112.4 16.7 112.1 17 111.6 17 C 111.2 17 110.9 16.8 110.9 16.3 C 110.9 15.9 111.1 15.5 111.7 15.5 Z M 110.3 19.6 C 110.5 19.1 110.4 19 110.1 19 C 110.06 18.96 109.3 18.9 109.3 18.9 L 109.4 18.6 L 111.8 18.2 L 111.8 18.3 C 111.8 18.3 110.41 23.51 110.4 23.5 C 110.3 23.9 110.3 24.2 110.5 24.2 C 110.9 24.2 111.5 23.3 111.7 22.9 C 111.7 22.9 112 23 112 23 C 111.6 24 110.9 24.9 109.9 24.9 C 109.2 24.9 109 24.4 109.2 23.6 C 109.2 23.6 110.3 19.6 110.3 19.6 Z M 115 16.4 C 115.1 15.9 115 15.8 114.7 15.8 C 114.7 15.81 114 15.7 114 15.7 L 114 15.4 L 116.4 15.1 L 116.4 15.2 C 116.4 15.2 114.34 23.53 114.3 23.5 C 114.2 24 114.2 24.2 114.5 24.2 C 114.8 24.2 115.4 23.4 115.7 22.9 C 115.7 22.9 116 23 116 23 C 115.6 24 114.8 24.9 113.9 24.9 C 113.2 24.9 113 24.4 113.2 23.6 C 113.2 23.6 115 16.4 115 16.4 Z M 121 18.2 C 121.3 18.2 121.7 18.3 121.9 18.5 C 121.9 18.5 122 18.3 122 18.3 L 123.1 18.3 C 123.1 18.3 121.68 23.51 121.7 23.5 C 121.6 23.9 121.6 24.2 121.8 24.2 C 122.2 24.2 122.7 23.3 123 22.9 C 123 22.9 123.3 23 123.3 23 C 122.9 24 122.1 24.9 121.1 24.9 C 120.4 24.9 120.3 24.4 120.6 23.4 C 120.57 23.45 121 22 121 22 C 121 22 120.98 21.97 121 22 C 120.2 23.3 119 24.9 117.6 24.9 C 116.7 24.9 116.4 24.1 116.4 23.4 C 116.4 21.6 117.9 18.2 121 18.2 Z M 118.2 24.2 C 118.9 24.2 119.7 23.4 120.4 22.3 C 121.1 21.2 121.5 19.9 121.8 19 C 121.6 18.8 121.3 18.7 121 18.7 C 118.9 18.7 117.7 21.9 117.7 23.3 C 117.7 23.8 117.8 24.2 118.2 24.2 Z M 125.3 19.6 C 125.4 19.2 125.4 19 125.1 19 C 125.13 18.96 124.3 18.9 124.3 18.9 L 124.4 18.6 L 126.8 18.2 L 126.8 18.3 L 126 21.1 C 126 21.1 126.04 21.12 126 21.1 C 126.8 19.6 128.2 18.2 129.4 18.2 C 130.5 18.2 130.6 19.1 130.3 20.1 C 130.3 20.1 129.3 23.5 129.3 23.5 C 129.2 23.9 129.2 24.2 129.5 24.2 C 129.8 24.2 130.4 23.3 130.6 22.9 C 130.6 22.9 130.9 23 130.9 23 C 130.5 24 129.8 24.9 128.8 24.9 C 128.1 24.9 127.9 24.4 128.1 23.6 C 128.1 23.6 129.2 19.8 129.2 19.8 C 129.4 19.3 129.3 18.9 128.8 18.9 C 127.8 18.9 126.5 20.8 126 21.9 C 125.7 22.7 125.5 23.4 125.1 24.8 C 125.1 24.75 124 24.9 124 24.9 C 124 24.9 125.32 19.59 125.3 19.6 Z M 133 24.2 C 133 24.2 133 24.2 133 24.2 C 132.4 23.9 132.1 23.6 132.1 23.2 C 132.1 22.7 132.8 22.4 133.2 22.2 C 133.2 22.2 133.2 22.2 133.2 22.2 C 132.9 22.1 132.1 21.6 132.1 20.6 C 132.1 19.7 132.8 18.2 134.9 18.2 C 135.6 18.2 136.2 18.4 136.5 18.6 C 136.53 18.61 138.4 18.1 138.4 18.1 L 138.5 18.2 L 138.1 19 C 138.1 19 136.97 19.19 137 19.2 C 137.1 19.4 137.2 19.7 137.2 20.1 C 137.2 21.4 136.2 22.4 134.4 22.4 C 134.2 22.4 134 22.4 133.7 22.4 C 133.4 22.4 133.2 22.6 133.2 22.9 C 133.2 23.2 133.6 23.4 134.7 23.7 C 136.3 24 137 24.8 137 25.7 C 137 27.2 135.6 27.9 133.8 27.9 C 132.2 27.9 131 27.2 131 26 C 131 24.9 132.1 24.4 133 24.2 Z M 134.1 27.4 C 135.1 27.4 135.9 27 135.9 26 C 135.9 24.9 134.4 24.5 133.6 24.4 C 133 24.5 132.2 24.9 132.2 25.9 C 132.2 26.8 133 27.4 134.1 27.4 Z M 134.4 22 C 135.4 22 136 21 136 19.8 C 136 18.9 135.4 18.7 135 18.7 C 133.8 18.7 133.4 20 133.4 20.8 C 133.4 21.5 133.8 22 134.4 22 Z M 142.4 18.2 C 142.7 18.2 143.1 18.3 143.3 18.5 C 143.33 18.5 143.4 18.3 143.4 18.3 L 144.5 18.3 C 144.5 18.3 143.11 23.51 143.1 23.5 C 143 23.9 143 24.2 143.2 24.2 C 143.6 24.2 144.2 23.3 144.4 22.9 C 144.4 22.9 144.7 23 144.7 23 C 144.3 24 143.5 24.9 142.6 24.9 C 141.9 24.9 141.7 24.4 142 23.4 C 141.99 23.45 142.4 22 142.4 22 C 142.4 22 142.41 21.97 142.4 22 C 141.7 23.3 140.4 24.9 139.1 24.9 C 138.2 24.9 137.8 24.1 137.8 23.4 C 137.8 21.6 139.3 18.2 142.4 18.2 Z M 139.7 24.2 C 140.3 24.2 141.1 23.4 141.8 22.3 C 142.5 21.2 143 19.9 143.2 19 C 143 18.8 142.7 18.7 142.4 18.7 C 140.4 18.7 139.1 21.9 139.1 23.3 C 139.1 23.8 139.2 24.2 139.7 24.2 Z M 146.7 19.6 C 146.9 19.2 146.9 19 146.6 19 C 146.55 18.96 145.7 18.9 145.7 18.9 L 145.8 18.6 L 148.2 18.2 L 148.3 18.3 L 147.4 21.1 C 147.4 21.1 147.46 21.12 147.5 21.1 C 148.2 19.6 149.6 18.2 150.8 18.2 C 151.9 18.2 152.1 19.1 151.8 20.1 C 151.8 20.1 150.8 23.5 150.8 23.5 C 150.6 23.9 150.6 24.2 150.9 24.2 C 151.2 24.2 151.8 23.3 152.1 22.9 C 152.1 22.9 152.4 23 152.4 23 C 151.9 24 151.2 24.9 150.2 24.9 C 149.5 24.9 149.3 24.4 149.6 23.6 C 149.6 23.6 150.7 19.8 150.7 19.8 C 150.8 19.3 150.7 18.9 150.2 18.9 C 149.2 18.9 147.9 20.8 147.5 21.9 C 147.1 22.7 146.9 23.4 146.5 24.8 C 146.53 24.75 145.4 24.9 145.4 24.9 C 145.4 24.9 146.75 19.59 146.7 19.6 Z M 157.4 19.6 C 157.5 19.2 157.6 19 157.2 19 C 157.24 18.96 156.4 18.9 156.4 18.9 L 156.5 18.6 L 158.9 18.2 L 158.9 18.3 L 158.1 21 C 158.1 21 158.16 20.98 158.2 21 C 159.1 19.3 160.3 18.2 161.5 18.2 C 162.4 18.2 162.6 18.9 162.2 20.2 C 162.24 20.16 162 21 162 21 C 162 21 162.04 20.98 162 21 C 163 19.3 164.2 18.2 165.3 18.2 C 166.4 18.2 166.6 19.1 166.3 20.1 C 166.3 20.1 165.3 23.5 165.3 23.5 C 165.2 23.9 165.1 24.2 165.4 24.2 C 165.8 24.2 166.3 23.3 166.6 22.9 C 166.6 22.9 166.9 23 166.9 23 C 166.4 24 165.7 24.9 164.8 24.9 C 164.1 24.9 163.9 24.4 164.1 23.6 C 164.1 23.6 165.2 19.8 165.2 19.8 C 165.4 19.3 165.2 18.9 164.8 18.9 C 163.7 18.9 162.5 20.8 162 21.9 C 161.7 22.7 161.5 23.4 161.1 24.8 C 161.09 24.75 160 24.9 160 24.9 L 160.3 23.6 C 160.3 23.6 161.26 19.99 161.3 20 C 161.5 19.2 161.3 18.9 160.9 18.9 C 159.8 18.9 158.5 20.8 158.1 22 C 157.8 22.7 157.6 23.4 157.2 24.8 C 157.21 24.75 156.1 24.9 156.1 24.9 C 156.1 24.9 157.42 19.59 157.4 19.6 Z M 168.2 18.6 L 170.6 18.2 L 170.7 18.3 C 170.7 18.3 169.43 23.09 169.4 23.1 C 169.2 23.8 169.3 24.2 169.8 24.2 C 170.8 24.2 172 22.5 172.5 21.2 C 172.9 20.4 173.1 19.7 173.5 18.4 C 173.46 18.38 174.6 18.2 174.6 18.2 C 174.6 18.2 173.23 23.53 173.2 23.5 C 173.1 23.9 173.1 24.2 173.4 24.2 C 173.8 24.2 174.3 23.3 174.6 22.9 C 174.6 22.9 174.9 23 174.9 23 C 174.5 24 173.7 24.9 172.7 24.9 C 172 24.9 171.9 24.4 172.1 23.5 C 172.14 23.5 172.6 22 172.6 22 C 172.6 22 172.54 22.02 172.5 22 C 171.8 23.5 170.4 24.9 169.1 24.9 C 168.1 24.9 168 24.1 168.3 23 C 168.3 23 169.2 19.6 169.2 19.6 C 169.3 19.2 169.3 19 169 19 C 168.98 18.96 168.2 18.9 168.2 18.9 L 168.2 18.6 Z M 177.1 19.6 C 177.2 19.2 177.2 19 176.9 19 C 176.88 18.96 176.1 18.9 176.1 18.9 L 176.2 18.6 L 178.5 18.2 L 178.6 18.3 L 177.8 21.1 C 177.8 21.1 177.79 21.12 177.8 21.1 C 178.6 19.6 179.9 18.2 181.2 18.2 C 182.2 18.2 182.4 19.1 182.1 20.1 C 182.1 20.1 181.1 23.5 181.1 23.5 C 181 23.9 181 24.2 181.2 24.2 C 181.6 24.2 182.1 23.3 182.4 22.9 C 182.4 22.9 182.7 23 182.7 23 C 182.3 24 181.5 24.9 180.5 24.9 C 179.8 24.9 179.7 24.4 179.9 23.6 C 179.9 23.6 181 19.8 181 19.8 C 181.1 19.3 181 18.9 180.6 18.9 C 179.5 18.9 178.3 20.8 177.8 21.9 C 177.5 22.7 177.2 23.4 176.9 24.8 C 176.86 24.75 175.7 24.9 175.7 24.9 C 175.7 24.9 177.08 19.59 177.1 19.6 Z M 187.8 18.2 C 188.1 18.2 188.5 18.3 188.7 18.5 C 188.72 18.5 188.8 18.3 188.8 18.3 L 189.9 18.3 C 189.9 18.3 188.5 23.51 188.5 23.5 C 188.4 23.9 188.4 24.2 188.6 24.2 C 189 24.2 189.6 23.3 189.8 22.9 C 189.8 22.9 190.1 23 190.1 23 C 189.7 24 188.9 24.9 188 24.9 C 187.3 24.9 187.1 24.4 187.4 23.4 C 187.39 23.45 187.8 22 187.8 22 C 187.8 22 187.8 21.97 187.8 22 C 187 23.3 185.8 24.9 184.4 24.9 C 183.6 24.9 183.2 24.1 183.2 23.4 C 183.2 21.6 184.7 18.2 187.8 18.2 Z M 185.1 24.2 C 185.7 24.2 186.5 23.4 187.2 22.3 C 187.9 21.2 188.4 19.9 188.6 19 C 188.4 18.8 188.1 18.7 187.8 18.7 C 185.8 18.7 184.5 21.9 184.5 23.3 C 184.5 23.8 184.6 24.2 185.1 24.2 Z M 192.1 19.6 C 192.3 19.2 192.3 19 191.9 19 C 191.95 18.96 191.1 18.9 191.1 18.9 L 191.2 18.6 L 193.6 18.2 L 193.7 18.3 L 192.8 21.1 C 192.8 21.1 192.86 21.12 192.9 21.1 C 193.6 19.6 195 18.2 196.2 18.2 C 197.3 18.2 197.5 19.1 197.2 20.1 C 197.2 20.1 196.1 23.5 196.1 23.5 C 196 23.9 196 24.2 196.3 24.2 C 196.6 24.2 197.2 23.3 197.4 22.9 C 197.4 22.9 197.8 23 197.8 23 C 197.3 24 196.6 24.9 195.6 24.9 C 194.9 24.9 194.7 24.4 195 23.6 C 195 23.6 196.1 19.8 196.1 19.8 C 196.2 19.3 196.1 18.9 195.6 18.9 C 194.6 18.9 193.3 20.8 192.9 21.9 C 192.5 22.7 192.3 23.4 191.9 24.8 C 191.92 24.75 190.8 24.9 190.8 24.9 C 190.8 24.9 192.14 19.59 192.1 19.6 Z M 199.8 24.2 C 199.8 24.2 199.8 24.2 199.8 24.2 C 199.3 23.9 198.9 23.6 198.9 23.2 C 198.9 22.7 199.7 22.4 200.1 22.2 C 200.1 22.2 200.1 22.2 200.1 22.2 C 199.7 22.1 199 21.6 199 20.6 C 199 19.7 199.6 18.2 201.7 18.2 C 202.4 18.2 203 18.4 203.3 18.6 C 203.35 18.61 205.2 18.1 205.2 18.1 L 205.3 18.2 L 204.9 19 C 204.9 19 203.79 19.19 203.8 19.2 C 204 19.4 204.1 19.7 204.1 20.1 C 204.1 21.4 203.1 22.4 201.3 22.4 C 201.1 22.4 200.8 22.4 200.6 22.4 C 200.2 22.4 200 22.6 200 22.9 C 200 23.2 200.5 23.4 201.6 23.7 C 203.1 24 203.8 24.8 203.8 25.7 C 203.8 27.2 202.4 27.9 200.7 27.9 C 199 27.9 197.8 27.2 197.8 26 C 197.8 24.9 198.9 24.4 199.8 24.2 Z M 200.9 27.4 C 201.9 27.4 202.7 27 202.7 26 C 202.7 24.9 201.2 24.5 200.4 24.4 C 199.8 24.5 199 24.9 199 25.9 C 199 26.8 199.8 27.4 200.9 27.4 Z M 201.3 22 C 202.2 22 202.9 21 202.9 19.8 C 202.9 18.9 202.2 18.7 201.8 18.7 C 200.6 18.7 200.2 20 200.2 20.8 C 200.2 21.5 200.6 22 201.3 22 Z M 209.2 19.6 C 209.3 19.2 209.3 19 209 19 C 208.99 18.96 208.2 18.9 208.2 18.9 L 208.3 18.6 L 210.6 18.2 L 210.7 18.3 L 209.9 21 C 209.9 21 209.91 20.98 209.9 21 C 210.8 19.3 212 18.2 213.2 18.2 C 214.1 18.2 214.4 18.9 214 20.2 C 214 20.16 213.7 21 213.7 21 C 213.7 21 213.79 20.98 213.8 21 C 214.7 19.3 215.9 18.2 217.1 18.2 C 218.2 18.2 218.3 19.1 218 20.1 C 218 20.1 217 23.5 217 23.5 C 216.9 23.9 216.9 24.2 217.2 24.2 C 217.5 24.2 218.1 23.3 218.3 22.9 C 218.3 22.9 218.6 23 218.6 23 C 218.2 24 217.5 24.9 216.5 24.9 C 215.9 24.9 215.6 24.4 215.8 23.6 C 215.8 23.6 217 19.8 217 19.8 C 217.1 19.3 216.9 18.9 216.5 18.9 C 215.4 18.9 214.2 20.8 213.8 21.9 C 213.4 22.7 213.2 23.4 212.8 24.8 C 212.84 24.75 211.7 24.9 211.7 24.9 L 212 23.6 C 212 23.6 213.01 19.99 213 20 C 213.2 19.2 213 18.9 212.6 18.9 C 211.5 18.9 210.3 20.8 209.8 22 C 209.5 22.7 209.3 23.4 209 24.8 C 208.96 24.75 207.8 24.9 207.8 24.9 C 207.8 24.9 209.17 19.59 209.2 19.6 Z M 223.7 18.2 C 224.1 18.2 224.4 18.3 224.7 18.5 C 224.67 18.5 224.7 18.3 224.7 18.3 L 225.8 18.3 C 225.8 18.3 224.45 23.51 224.4 23.5 C 224.3 23.9 224.3 24.2 224.6 24.2 C 224.9 24.2 225.5 23.3 225.7 22.9 C 225.7 22.9 226.1 23 226.1 23 C 225.6 24 224.9 24.9 223.9 24.9 C 223.2 24.9 223.1 24.4 223.3 23.4 C 223.33 23.45 223.8 22 223.8 22 C 223.8 22 223.75 21.97 223.7 22 C 223 23.3 221.8 24.9 220.4 24.9 C 219.5 24.9 219.1 24.1 219.1 23.4 C 219.1 21.6 220.6 18.2 223.7 18.2 Z M 221 24.2 C 221.6 24.2 222.4 23.4 223.1 22.3 C 223.8 21.2 224.3 19.9 224.5 19 C 224.3 18.8 224.1 18.7 223.7 18.7 C 221.7 18.7 220.4 21.9 220.4 23.3 C 220.4 23.8 220.6 24.2 221 24.2 Z M 227.8 24.2 C 227.8 24.2 227.8 24.2 227.8 24.2 C 227.3 23.9 226.9 23.6 226.9 23.2 C 226.9 22.7 227.7 22.4 228.1 22.2 C 228.1 22.2 228.1 22.2 228.1 22.2 C 227.7 22.1 227 21.6 227 20.6 C 227 19.7 227.6 18.2 229.8 18.2 C 230.4 18.2 231.1 18.4 231.4 18.6 C 231.39 18.61 233.3 18.1 233.3 18.1 L 233.4 18.2 L 232.9 19 C 232.9 19 231.83 19.19 231.8 19.2 C 232 19.4 232.1 19.7 232.1 20.1 C 232.1 21.4 231.1 22.4 229.3 22.4 C 229.1 22.4 228.9 22.4 228.6 22.4 C 228.3 22.4 228 22.6 228 22.9 C 228 23.2 228.5 23.4 229.6 23.7 C 231.1 24 231.9 24.8 231.9 25.7 C 231.9 27.2 230.5 27.9 228.7 27.9 C 227 27.9 225.8 27.2 225.8 26 C 225.8 24.9 227 24.4 227.8 24.2 Z M 229 27.4 C 230 27.4 230.8 27 230.8 26 C 230.8 24.9 229.2 24.5 228.4 24.4 C 227.9 24.5 227 24.9 227 25.9 C 227 26.8 227.9 27.4 229 27.4 Z M 229.3 22 C 230.3 22 230.9 21 230.9 19.8 C 230.9 18.9 230.3 18.7 229.9 18.7 C 228.6 18.7 228.2 20 228.2 20.8 C 228.2 21.5 228.6 22 229.3 22 Z M 233.5 21 L 236.7 21 L 236.5 21.9 L 233.3 21.9 L 233.5 21 Z M 238.5 18.6 L 240.9 18.2 L 240.9 18.3 C 240.9 18.3 239.67 23.09 239.7 23.1 C 239.5 23.8 239.6 24.2 240 24.2 C 241.1 24.2 242.2 22.5 242.8 21.2 C 243.1 20.4 243.3 19.7 243.7 18.4 C 243.7 18.38 244.9 18.2 244.9 18.2 C 244.9 18.2 243.47 23.53 243.5 23.5 C 243.4 23.9 243.4 24.2 243.6 24.2 C 244 24.2 244.6 23.3 244.8 22.9 C 244.8 22.9 245.1 23 245.1 23 C 244.7 24 243.9 24.9 243 24.9 C 242.3 24.9 242.1 24.4 242.4 23.5 C 242.37 23.5 242.8 22 242.8 22 C 242.8 22 242.78 22.02 242.8 22 C 242 23.5 240.6 24.9 239.4 24.9 C 238.3 24.9 238.2 24.1 238.5 23 C 238.5 23 239.4 19.6 239.4 19.6 C 239.5 19.2 239.5 19 239.2 19 C 239.22 18.96 238.4 18.9 238.4 18.9 L 238.5 18.6 Z M 246.3 18.6 L 248.7 18.2 L 248.7 18.3 C 248.7 18.3 247.57 23.18 247.6 23.2 C 247.4 23.9 247.6 24.2 248 24.2 C 248.5 24.2 249.1 23.6 249.6 22.8 C 250.4 21.6 250.8 20.1 251.2 18.4 C 251.2 18.42 252.3 18.3 252.3 18.3 C 252.3 18.3 251.41 22.44 251.4 22.4 C 251.1 23.6 251.3 24.2 251.8 24.2 C 252.9 24.2 254.5 21.8 254.5 20 C 254.5 19.4 254.4 19 254.3 18.5 C 254.6 18.3 254.9 18.2 255.2 18.2 C 255.3 18.2 255.6 18.7 255.6 19.2 C 255.6 20 255 21.4 254.2 22.7 C 253.3 23.9 252.4 24.9 251.3 24.9 C 250.5 24.9 250.2 24.4 250.2 23.6 C 250.2 23.3 250.3 22.7 250.4 22.3 C 250.4 22.3 250.4 22.2 250.4 22.2 C 249.6 23.8 248.4 24.9 247.4 24.9 C 246.6 24.9 246.1 24.4 246.4 23.1 C 246.4 23.1 247.2 19.6 247.2 19.6 C 247.4 19.1 247.3 19 247.1 19 C 247.05 18.96 246.3 18.9 246.3 18.9 L 246.3 18.6 Z M 258.8 15.5 C 259.1 15.5 259.5 15.7 259.5 16.2 C 259.5 16.7 259.1 17 258.6 17 C 258.2 17 257.9 16.8 257.9 16.3 C 257.9 15.9 258.2 15.5 258.8 15.5 Z M 257.4 19.6 C 257.5 19.1 257.5 19 257.1 19 C 257.13 18.96 256.4 18.9 256.4 18.9 L 256.5 18.6 L 258.8 18.2 L 258.9 18.3 C 258.9 18.3 257.48 23.51 257.5 23.5 C 257.4 23.9 257.4 24.2 257.6 24.2 C 258 24.2 258.5 23.3 258.8 22.9 C 258.8 22.9 259.1 23 259.1 23 C 258.7 24 257.9 24.9 257 24.9 C 256.3 24.9 256.1 24.4 256.3 23.6 C 256.3 23.6 257.4 19.6 257.4 19.6 Z M 264.2 19.6 C 264.3 19.2 264.3 19 264 19 C 263.98 18.96 263.2 18.9 263.2 18.9 L 263.3 18.6 L 265.6 18.2 L 265.7 18.3 L 264.9 21.1 C 264.9 21.1 264.89 21.12 264.9 21.1 C 265.7 19.6 267 18.2 268.3 18.2 C 269.3 18.2 269.5 19.1 269.2 20.1 C 269.2 20.1 268.2 23.5 268.2 23.5 C 268.1 23.9 268 24.2 268.3 24.2 C 268.7 24.2 269.2 23.3 269.5 22.9 C 269.5 22.9 269.8 23 269.8 23 C 269.3 24 268.6 24.9 267.6 24.9 C 266.9 24.9 266.8 24.4 267 23.6 C 267 23.6 268.1 19.8 268.1 19.8 C 268.2 19.3 268.1 18.9 267.7 18.9 C 266.6 18.9 265.4 20.8 264.9 21.9 C 264.6 22.7 264.3 23.4 264 24.8 C 263.95 24.75 262.8 24.9 262.8 24.9 C 262.8 24.9 264.17 19.59 264.2 19.6 Z M 271.8 24.2 C 271.8 24.2 271.8 24.2 271.8 24.2 C 271.3 23.9 270.9 23.6 270.9 23.2 C 270.9 22.7 271.7 22.4 272.1 22.2 C 272.1 22.2 272.1 22.2 272.1 22.2 C 271.7 22.1 271 21.6 271 20.6 C 271 19.7 271.6 18.2 273.8 18.2 C 274.4 18.2 275 18.4 275.4 18.6 C 275.38 18.61 277.3 18.1 277.3 18.1 L 277.3 18.2 L 276.9 19 C 276.9 19 275.82 19.19 275.8 19.2 C 276 19.4 276.1 19.7 276.1 20.1 C 276.1 21.4 275.1 22.4 273.3 22.4 C 273.1 22.4 272.8 22.4 272.6 22.4 C 272.3 22.4 272 22.6 272 22.9 C 272 23.2 272.5 23.4 273.6 23.7 C 275.1 24 275.9 24.8 275.9 25.7 C 275.9 27.2 274.4 27.9 272.7 27.9 C 271 27.9 269.8 27.2 269.8 26 C 269.8 24.9 270.9 24.4 271.8 24.2 Z M 273 27.4 C 274 27.4 274.8 27 274.8 26 C 274.8 24.9 273.2 24.5 272.4 24.4 C 271.9 24.5 271 24.9 271 25.9 C 271 26.8 271.8 27.4 273 27.4 Z M 273.3 22 C 274.3 22 274.9 21 274.9 19.8 C 274.9 18.9 274.2 18.7 273.9 18.7 C 272.6 18.7 272.2 20 272.2 20.8 C 272.2 21.5 272.6 22 273.3 22 Z " stroke="none" fill="#000"/>
  </g>
  <g id="Polygon18576">
    <path d="M 23 0 C 23 0 23.3 0.2 23.3 0.2 C 22.8 0.7 22.4 1.2 22.4 1.7 C 22.4 1.9 22.4 2.1 22.5 2.3 C 22.6 2.4 22.7 2.6 22.7 2.8 C 22.7 3.1 22.4 3.4 22 3.4 C 21.5 3.4 21.3 3 21.3 2.6 C 21.3 1.5 22.3 0.7 23 0 Z M 20.6 0 C 20.6 0 20.8 0.2 20.8 0.2 C 20.4 0.7 20 1.2 20 1.7 C 19.9 1.9 20 2.1 20.1 2.3 C 20.2 2.4 20.3 2.6 20.3 2.8 C 20.3 3.1 20 3.4 19.6 3.4 C 19.1 3.4 18.8 3 18.8 2.6 C 18.8 1.5 19.9 0.7 20.6 0 Z M 22.3 9.4 C 22.3 9.4 23.06 9.29 23.1 9.3 C 23.4 9.3 23.5 9.1 23.6 8.7 C 23.6 8.7 25.2 1.8 25.2 1.8 C 25.3 1.4 25.2 1.2 24.9 1.2 C 24.88 1.18 24.1 1.1 24.1 1.1 L 24.2 0.8 L 27.8 0.8 L 27.7 1.1 C 27.7 1.1 26.96 1.2 27 1.2 C 26.6 1.2 26.5 1.4 26.4 1.8 C 26.4 1.8 24.9 8.7 24.9 8.7 C 24.8 9.1 24.8 9.3 25.1 9.3 C 25.14 9.32 25.9 9.4 25.9 9.4 L 25.8 9.8 L 22.3 9.8 L 22.3 9.4 Z M 28.7 3.9 L 27.6 3.9 L 27.7 3.4 L 28.8 3.4 L 29 2.7 L 30.2 1.7 L 30.4 1.8 L 29.9 3.4 L 31.6 3.4 L 31.4 3.9 L 29.8 3.9 C 29.8 3.9 28.65 8.61 28.7 8.6 C 28.6 8.9 28.6 9.2 28.8 9.2 C 29.2 9.2 29.9 8.4 30.2 7.9 C 30.2 7.9 30.5 8.1 30.5 8.1 C 30 9 29.1 9.9 28.1 9.9 C 27.5 9.9 27.3 9.4 27.5 8.6 C 27.49 8.63 28.7 3.9 28.7 3.9 Z M 35.1 3.2 C 36.1 3.2 37.4 3.7 37.4 5.5 C 37.4 6.2 37.2 7.3 36.6 8.2 C 36 9.2 35.1 9.9 33.7 9.9 C 32 9.9 31.3 8.9 31.3 7.6 C 31.3 6.4 32 3.2 35.1 3.2 Z M 33.7 9.5 C 35.5 9.5 36.2 6 36.2 5 C 36.2 4.2 35.9 3.7 35.1 3.7 C 33.4 3.7 32.5 6.7 32.5 8.1 C 32.5 9 32.9 9.5 33.7 9.5 Z M 45.3 3.2 C 45.6 3.2 46 3.3 46.2 3.5 C 46.2 3.5 46.3 3.3 46.3 3.3 L 47.4 3.3 C 47.4 3.3 45.98 8.51 46 8.5 C 45.9 8.9 45.8 9.2 46.1 9.2 C 46.5 9.2 47 8.3 47.3 7.9 C 47.3 7.9 47.6 8 47.6 8 C 47.1 9 46.4 9.9 45.4 9.9 C 44.7 9.9 44.6 9.4 44.9 8.4 C 44.86 8.45 45.3 7 45.3 7 C 45.3 7 45.28 6.97 45.3 7 C 44.5 8.3 43.3 9.9 41.9 9.9 C 41 9.9 40.7 9.1 40.7 8.4 C 40.7 6.6 42.2 3.2 45.3 3.2 Z M 42.5 9.2 C 43.2 9.2 44 8.4 44.7 7.3 C 45.4 6.2 45.8 4.9 46.1 4 C 45.9 3.8 45.6 3.7 45.3 3.7 C 43.2 3.7 42 6.9 42 8.3 C 42 8.8 42.1 9.2 42.5 9.2 Z M 49.6 4.6 C 49.7 4.2 49.7 4 49.4 4 C 49.42 3.96 48.6 3.9 48.6 3.9 L 48.7 3.6 L 51.1 3.2 L 51.1 3.3 L 50.3 6.1 C 50.3 6.1 50.33 6.12 50.3 6.1 C 51.1 4.6 52.5 3.2 53.7 3.2 C 54.8 3.2 54.9 4.1 54.6 5.1 C 54.6 5.1 53.6 8.5 53.6 8.5 C 53.5 8.9 53.5 9.2 53.8 9.2 C 54.1 9.2 54.7 8.3 54.9 7.9 C 54.9 7.9 55.2 8 55.2 8 C 54.8 9 54.1 9.9 53.1 9.9 C 52.4 9.9 52.2 9.4 52.4 8.6 C 52.4 8.6 53.5 4.8 53.5 4.8 C 53.7 4.3 53.6 3.9 53.1 3.9 C 52.1 3.9 50.8 5.8 50.3 6.9 C 50 7.7 49.8 8.4 49.4 9.8 C 49.4 9.75 48.3 9.9 48.3 9.9 C 48.3 9.9 49.62 4.59 49.6 4.6 Z M 57.3 9.2 C 57.3 9.2 57.3 9.2 57.3 9.2 C 56.7 8.9 56.4 8.6 56.4 8.2 C 56.4 7.7 57.1 7.4 57.5 7.2 C 57.5 7.2 57.5 7.2 57.5 7.2 C 57.1 7.1 56.4 6.6 56.4 5.6 C 56.4 4.7 57.1 3.2 59.2 3.2 C 59.9 3.2 60.5 3.4 60.8 3.6 C 60.83 3.61 62.7 3.1 62.7 3.1 L 62.8 3.2 L 62.4 4 C 62.4 4 61.27 4.19 61.3 4.2 C 61.4 4.4 61.5 4.7 61.5 5.1 C 61.5 6.4 60.5 7.4 58.7 7.4 C 58.5 7.4 58.3 7.4 58 7.4 C 57.7 7.4 57.5 7.6 57.5 7.9 C 57.5 8.2 57.9 8.4 59 8.7 C 60.6 9 61.3 9.8 61.3 10.7 C 61.3 12.2 59.9 12.9 58.1 12.9 C 56.5 12.9 55.3 12.2 55.3 11 C 55.3 9.9 56.4 9.4 57.3 9.2 Z M 58.4 12.4 C 59.4 12.4 60.2 12 60.2 11 C 60.2 9.9 58.7 9.5 57.8 9.4 C 57.3 9.5 56.5 9.9 56.5 10.9 C 56.5 11.8 57.3 12.4 58.4 12.4 Z M 58.7 7 C 59.7 7 60.3 6 60.3 4.8 C 60.3 3.9 59.7 3.7 59.3 3.7 C 58.1 3.7 57.7 5 57.7 5.8 C 57.7 6.5 58.1 7 58.7 7 Z M 66.6 4.6 C 66.8 4.2 66.8 4 66.5 4 C 66.47 3.96 65.7 3.9 65.7 3.9 L 65.8 3.6 L 68.1 3.2 L 68.2 3.3 L 67.4 6 C 67.4 6 67.39 5.98 67.4 6 C 68.3 4.3 69.5 3.2 70.7 3.2 C 71.6 3.2 71.9 3.9 71.5 5.2 C 71.47 5.16 71.2 6 71.2 6 C 71.2 6 71.26 5.98 71.3 6 C 72.2 4.3 73.4 3.2 74.6 3.2 C 75.6 3.2 75.8 4.1 75.5 5.1 C 75.5 5.1 74.5 8.5 74.5 8.5 C 74.4 8.9 74.4 9.2 74.6 9.2 C 75 9.2 75.6 8.3 75.8 7.9 C 75.8 7.9 76.1 8 76.1 8 C 75.7 9 74.9 9.9 74 9.9 C 73.3 9.9 73.1 9.4 73.3 8.6 C 73.3 8.6 74.4 4.8 74.4 4.8 C 74.6 4.3 74.4 3.9 74 3.9 C 72.9 3.9 71.7 5.8 71.2 6.9 C 70.9 7.7 70.7 8.4 70.3 9.8 C 70.32 9.75 69.2 9.9 69.2 9.9 L 69.5 8.6 C 69.5 8.6 70.48 4.99 70.5 5 C 70.7 4.2 70.5 3.9 70.1 3.9 C 69 3.9 67.7 5.8 67.3 7 C 67 7.7 66.8 8.4 66.4 9.8 C 66.44 9.75 65.3 9.9 65.3 9.9 C 65.3 9.9 66.65 4.59 66.6 4.6 Z M 81.2 3.2 C 81.5 3.2 81.9 3.3 82.1 3.5 C 82.15 3.5 82.2 3.3 82.2 3.3 L 83.3 3.3 C 83.3 3.3 81.92 8.51 81.9 8.5 C 81.8 8.9 81.8 9.2 82.1 9.2 C 82.4 9.2 83 8.3 83.2 7.9 C 83.2 7.9 83.5 8 83.5 8 C 83.1 9 82.4 9.9 81.4 9.9 C 80.7 9.9 80.5 9.4 80.8 8.4 C 80.81 8.45 81.2 7 81.2 7 C 81.2 7 81.22 6.97 81.2 7 C 80.5 8.3 79.3 9.9 77.9 9.9 C 77 9.9 76.6 9.1 76.6 8.4 C 76.6 6.6 78.1 3.2 81.2 3.2 Z M 78.5 9.2 C 79.1 9.2 79.9 8.4 80.6 7.3 C 81.3 6.2 81.8 4.9 82 4 C 81.8 3.8 81.5 3.7 81.2 3.7 C 79.2 3.7 77.9 6.9 77.9 8.3 C 77.9 8.8 78.1 9.2 78.5 9.2 Z M 86.2 1.4 C 86.3 0.9 86.3 0.8 86 0.8 C 85.95 0.81 85.2 0.7 85.2 0.7 L 85.3 0.4 L 87.6 0.1 L 87.7 0.2 C 87.7 0.2 85.59 8.53 85.6 8.5 C 85.5 9 85.5 9.2 85.7 9.2 C 86 9.2 86.6 8.4 86.9 7.9 C 86.9 7.9 87.2 8 87.2 8 C 86.8 9 86 9.9 85.1 9.9 C 84.4 9.9 84.3 9.4 84.4 8.6 C 84.4 8.6 86.2 1.4 86.2 1.4 Z M 92.2 3.2 C 92.6 3.2 92.9 3.3 93.2 3.5 C 93.16 3.5 93.2 3.3 93.2 3.3 L 94.3 3.3 C 94.3 3.3 92.93 8.51 92.9 8.5 C 92.8 8.9 92.8 9.2 93.1 9.2 C 93.4 9.2 94 8.3 94.2 7.9 C 94.2 7.9 94.5 8 94.5 8 C 94.1 9 93.4 9.9 92.4 9.9 C 91.7 9.9 91.5 9.4 91.8 8.4 C 91.82 8.45 92.3 7 92.3 7 C 92.3 7 92.23 6.97 92.2 7 C 91.5 8.3 90.3 9.9 88.9 9.9 C 88 9.9 87.6 9.1 87.6 8.4 C 87.6 6.6 89.1 3.2 92.2 3.2 Z M 89.5 9.2 C 90.1 9.2 90.9 8.4 91.6 7.3 C 92.3 6.2 92.8 4.9 93 4 C 92.8 3.8 92.5 3.7 92.2 3.7 C 90.2 3.7 88.9 6.9 88.9 8.3 C 88.9 8.8 89.1 9.2 89.5 9.2 Z M 96.3 9.2 C 96.3 9.2 96.3 9.2 96.3 9.2 C 95.8 8.9 95.4 8.6 95.4 8.2 C 95.4 7.7 96.2 7.4 96.6 7.2 C 96.6 7.2 96.6 7.2 96.6 7.2 C 96.2 7.1 95.5 6.6 95.5 5.6 C 95.5 4.7 96.1 3.2 98.3 3.2 C 98.9 3.2 99.5 3.4 99.9 3.6 C 99.88 3.61 101.8 3.1 101.8 3.1 L 101.8 3.2 L 101.4 4 C 101.4 4 100.32 4.19 100.3 4.2 C 100.5 4.4 100.6 4.7 100.6 5.1 C 100.6 6.4 99.6 7.4 97.8 7.4 C 97.6 7.4 97.3 7.4 97.1 7.4 C 96.8 7.4 96.5 7.6 96.5 7.9 C 96.5 8.2 97 8.4 98.1 8.7 C 99.6 9 100.4 9.8 100.4 10.7 C 100.4 12.2 98.9 12.9 97.2 12.9 C 95.5 12.9 94.3 12.2 94.3 11 C 94.3 9.9 95.4 9.4 96.3 9.2 Z M 97.5 12.4 C 98.4 12.4 99.3 12 99.3 11 C 99.3 9.9 97.7 9.5 96.9 9.4 C 96.4 9.5 95.5 9.9 95.5 10.9 C 95.5 11.8 96.3 12.4 97.5 12.4 Z M 97.8 7 C 98.8 7 99.4 6 99.4 4.8 C 99.4 3.9 98.7 3.7 98.4 3.7 C 97.1 3.7 96.7 5 96.7 5.8 C 96.7 6.5 97.1 7 97.8 7 Z M 104.3 0.5 C 104.7 0.5 105 0.7 105 1.2 C 105 1.7 104.7 2 104.2 2 C 103.8 2 103.5 1.8 103.5 1.3 C 103.5 0.9 103.8 0.5 104.3 0.5 Z M 102.9 4.6 C 103.1 4.1 103 4 102.7 4 C 102.67 3.96 101.9 3.9 101.9 3.9 L 102 3.6 L 104.4 3.2 L 104.4 3.3 C 104.4 3.3 103.02 8.51 103 8.5 C 102.9 8.9 102.9 9.2 103.2 9.2 C 103.5 9.2 104.1 8.3 104.3 7.9 C 104.3 7.9 104.6 8 104.6 8 C 104.2 9 103.5 9.9 102.5 9.9 C 101.8 9.9 101.7 9.4 101.9 8.6 C 101.9 8.6 102.9 4.6 102.9 4.6 Z M 106.9 4.6 C 107 4.2 107 4 106.7 4 C 106.71 3.96 105.9 3.9 105.9 3.9 L 106 3.6 L 108.4 3.2 L 108.4 3.3 L 107.6 6 C 107.6 6 107.64 5.98 107.6 6 C 108.5 4.3 109.7 3.2 110.9 3.2 C 111.8 3.2 112.1 3.9 111.7 5.2 C 111.72 5.16 111.5 6 111.5 6 C 111.5 6 111.51 5.98 111.5 6 C 112.4 4.3 113.6 3.2 114.8 3.2 C 115.9 3.2 116 4.1 115.7 5.1 C 115.7 5.1 114.7 8.5 114.7 8.5 C 114.6 8.9 114.6 9.2 114.9 9.2 C 115.2 9.2 115.8 8.3 116 7.9 C 116 7.9 116.4 8 116.4 8 C 115.9 9 115.2 9.9 114.2 9.9 C 113.6 9.9 113.3 9.4 113.6 8.6 C 113.6 8.6 114.7 4.8 114.7 4.8 C 114.9 4.3 114.7 3.9 114.2 3.9 C 113.1 3.9 112 5.8 111.5 6.9 C 111.1 7.7 110.9 8.4 110.6 9.8 C 110.56 9.75 109.4 9.9 109.4 9.9 L 109.8 8.6 C 109.8 8.6 110.73 4.99 110.7 5 C 110.9 4.2 110.7 3.9 110.3 3.9 C 109.3 3.9 108 5.8 107.5 7 C 107.3 7.7 107.1 8.4 106.7 9.8 C 106.69 9.75 105.6 9.9 105.6 9.9 C 105.6 9.9 106.9 4.59 106.9 4.6 Z M 121.4 4.6 C 121.6 4.2 121.6 4 121.2 4 C 121.25 3.96 120.4 3.9 120.4 3.9 L 120.5 3.6 L 122.9 3.2 L 123 3.3 L 122.1 6.1 C 122.1 6.1 122.16 6.12 122.2 6.1 C 122.9 4.6 124.3 3.2 125.5 3.2 C 126.6 3.2 126.8 4.1 126.5 5.1 C 126.5 5.1 125.4 8.5 125.4 8.5 C 125.3 8.9 125.3 9.2 125.6 9.2 C 125.9 9.2 126.5 8.3 126.7 7.9 C 126.7 7.9 127.1 8 127.1 8 C 126.6 9 125.9 9.9 124.9 9.9 C 124.2 9.9 124 9.4 124.3 8.6 C 124.3 8.6 125.4 4.8 125.4 4.8 C 125.5 4.3 125.4 3.9 124.9 3.9 C 123.9 3.9 122.6 5.8 122.2 6.9 C 121.8 7.7 121.6 8.4 121.2 9.8 C 121.22 9.75 120.1 9.9 120.1 9.9 C 120.1 9.9 121.44 4.59 121.4 4.6 Z M 132.1 3.2 C 132.5 3.2 132.9 3.3 133.1 3.5 C 133.09 3.5 133.2 3.3 133.2 3.3 L 134.2 3.3 C 134.2 3.3 132.87 8.51 132.9 8.5 C 132.8 8.9 132.7 9.2 133 9.2 C 133.4 9.2 133.9 8.3 134.2 7.9 C 134.2 7.9 134.5 8 134.5 8 C 134 9 133.3 9.9 132.3 9.9 C 131.6 9.9 131.5 9.4 131.8 8.4 C 131.75 8.45 132.2 7 132.2 7 C 132.2 7 132.17 6.97 132.2 7 C 131.4 8.3 130.2 9.9 128.8 9.9 C 127.9 9.9 127.6 9.1 127.6 8.4 C 127.6 6.6 129 3.2 132.1 3.2 Z M 129.4 9.2 C 130 9.2 130.8 8.4 131.6 7.3 C 132.3 6.2 132.7 4.9 133 4 C 132.8 3.8 132.5 3.7 132.2 3.7 C 130.1 3.7 128.9 6.9 128.9 8.3 C 128.9 8.8 129 9.2 129.4 9.2 Z M 139.9 1.4 C 140 0.9 139.9 0.8 139.6 0.8 C 139.62 0.81 138.9 0.7 138.9 0.7 L 139 0.4 L 141.3 0.1 L 141.3 0.2 L 139.1 9.8 L 137.9 9.9 C 137.9 9.9 139.88 1.44 139.9 1.4 Z M 142 4.2 C 142.7 3.6 143.3 3.2 143.8 3.2 C 144.3 3.2 144.5 3.5 144.5 3.9 C 144.5 4.2 144.2 4.6 143.9 4.6 C 143.7 4.6 143.6 4.5 143.5 4.5 C 143.2 4.3 143 4.2 142.9 4.2 C 142.4 4.2 141.4 5.3 141 5.7 C 141.3 6.6 141.6 7.4 142 8.3 C 142.3 8.9 142.5 9.2 142.7 9.2 C 143.1 9.2 143.4 8.7 143.8 7.9 C 143.8 7.9 144.1 8.1 144.1 8.1 C 143.7 9.2 143.1 9.9 142.3 9.9 C 141.7 9.9 141.3 9.5 140.9 8.7 C 140.5 7.9 140.2 7.1 140 6.3 C 140.6 5.5 141.3 4.8 142 4.2 Z M 149.1 3.2 C 149.4 3.2 149.8 3.3 150 3.5 C 150 3.5 150.1 3.3 150.1 3.3 L 151.2 3.3 C 151.2 3.3 149.78 8.51 149.8 8.5 C 149.7 8.9 149.7 9.2 149.9 9.2 C 150.3 9.2 150.8 8.3 151.1 7.9 C 151.1 7.9 151.4 8 151.4 8 C 151 9 150.2 9.9 149.2 9.9 C 148.5 9.9 148.4 9.4 148.7 8.4 C 148.66 8.45 149.1 7 149.1 7 C 149.1 7 149.08 6.97 149.1 7 C 148.3 8.3 147.1 9.9 145.7 9.9 C 144.8 9.9 144.5 9.1 144.5 8.4 C 144.5 6.6 146 3.2 149.1 3.2 Z M 146.3 9.2 C 147 9.2 147.8 8.4 148.5 7.3 C 149.2 6.2 149.6 4.9 149.9 4 C 149.7 3.8 149.4 3.7 149.1 3.7 C 147 3.7 145.8 6.9 145.8 8.3 C 145.8 8.8 145.9 9.2 146.3 9.2 Z M 153.6 3.9 L 152.5 3.9 L 152.6 3.4 L 153.7 3.4 L 153.9 2.7 L 155.1 1.7 L 155.3 1.8 L 154.8 3.4 L 156.5 3.4 L 156.3 3.9 L 154.7 3.9 C 154.7 3.9 153.57 8.61 153.6 8.6 C 153.5 8.9 153.5 9.2 153.8 9.2 C 154.2 9.2 154.8 8.4 155.1 7.9 C 155.1 7.9 155.4 8.1 155.4 8.1 C 154.9 9 154.1 9.9 153 9.9 C 152.4 9.9 152.2 9.4 152.4 8.6 C 152.41 8.63 153.6 3.9 153.6 3.9 Z M 160 3.2 C 161.1 3.2 162.3 3.7 162.3 5.5 C 162.3 6.2 162.1 7.3 161.5 8.2 C 160.9 9.2 160 9.9 158.6 9.9 C 156.9 9.9 156.2 8.9 156.2 7.6 C 156.2 6.4 156.9 3.2 160 3.2 Z M 158.6 9.5 C 160.4 9.5 161.1 6 161.1 5 C 161.1 4.2 160.8 3.7 160 3.7 C 158.3 3.7 157.4 6.7 157.4 8.1 C 157.4 9 157.9 9.5 158.6 9.5 Z M 164.7 3.9 L 163.7 3.9 L 163.8 3.4 L 164.8 3.4 L 165 2.7 L 166.3 1.7 L 166.4 1.8 L 166 3.4 L 167.6 3.4 L 167.5 3.9 L 165.9 3.9 C 165.9 3.9 164.72 8.61 164.7 8.6 C 164.6 8.9 164.6 9.2 164.9 9.2 C 165.3 9.2 166 8.4 166.3 7.9 C 166.3 7.9 166.6 8.1 166.6 8.1 C 166 9 165.2 9.9 164.2 9.9 C 163.5 9.9 163.4 9.4 163.6 8.6 C 163.56 8.63 164.7 3.9 164.7 3.9 Z M 171.2 3.2 C 172.2 3.2 173.5 3.7 173.5 5.5 C 173.5 6.2 173.3 7.3 172.7 8.2 C 172.1 9.2 171.1 9.9 169.7 9.9 C 168.1 9.9 167.3 8.9 167.3 7.6 C 167.3 6.4 168.1 3.2 171.2 3.2 Z M 169.8 9.5 C 171.5 9.5 172.2 6 172.2 5 C 172.2 4.2 171.9 3.7 171.1 3.7 C 169.4 3.7 168.6 6.7 168.6 8.1 C 168.6 9 169 9.5 169.8 9.5 Z M 176.2 1.4 C 176.3 0.9 176.3 0.8 175.9 0.8 C 175.93 0.81 175.2 0.7 175.2 0.7 L 175.3 0.4 L 177.6 0.1 L 177.7 0.2 L 176.2 6.1 C 176.2 6.1 176.25 6.12 176.3 6.1 C 177.1 4.6 178.5 3.2 179.7 3.2 C 180.7 3.2 180.9 4.1 180.6 5.1 C 180.6 5.1 179.6 8.5 179.6 8.5 C 179.4 8.9 179.4 9.2 179.7 9.2 C 180.1 9.2 180.6 8.3 180.9 7.9 C 180.9 7.9 181.2 8 181.2 8 C 180.7 9 180 9.9 179.1 9.9 C 178.4 9.9 178.2 9.4 178.4 8.5 C 178.4 8.5 179.5 4.8 179.5 4.8 C 179.7 4.3 179.5 3.9 179.1 3.9 C 178 3.9 176.7 5.9 176.3 6.9 C 176 7.7 175.8 8.4 175.4 9.8 C 175.42 9.75 174.3 9.9 174.3 9.9 C 174.3 9.9 176.19 1.44 176.2 1.4 Z M 186.3 3.2 C 186.6 3.2 187 3.3 187.2 3.5 C 187.24 3.5 187.3 3.3 187.3 3.3 L 188.4 3.3 C 188.4 3.3 187.01 8.51 187 8.5 C 186.9 8.9 186.9 9.2 187.1 9.2 C 187.5 9.2 188.1 8.3 188.3 7.9 C 188.3 7.9 188.6 8 188.6 8 C 188.2 9 187.5 9.9 186.5 9.9 C 185.8 9.9 185.6 9.4 185.9 8.4 C 185.9 8.45 186.3 7 186.3 7 C 186.3 7 186.31 6.97 186.3 7 C 185.6 8.3 184.3 9.9 183 9.9 C 182.1 9.9 181.7 9.1 181.7 8.4 C 181.7 6.6 183.2 3.2 186.3 3.2 Z M 183.6 9.2 C 184.2 9.2 185 8.4 185.7 7.3 C 186.4 6.2 186.9 4.9 187.1 4 C 186.9 3.8 186.6 3.7 186.3 3.7 C 184.3 3.7 183 6.9 183 8.3 C 183 8.8 183.1 9.2 183.6 9.2 Z M 190.7 4.6 C 190.8 4.2 190.8 4 190.5 4 C 190.46 3.96 189.7 3.9 189.7 3.9 L 189.7 3.6 L 192.1 3.2 L 192.2 3.3 L 191.3 6.1 C 191.3 6.1 191.37 6.12 191.4 6.1 C 192.1 4.6 193.5 3.2 194.7 3.2 C 195.8 3.2 196 4.1 195.7 5.1 C 195.7 5.1 194.7 8.5 194.7 8.5 C 194.5 8.9 194.5 9.2 194.8 9.2 C 195.2 9.2 195.7 8.3 196 7.9 C 196 7.9 196.3 8 196.3 8 C 195.8 9 195.1 9.9 194.1 9.9 C 193.4 9.9 193.3 9.4 193.5 8.6 C 193.5 8.6 194.6 4.8 194.6 4.8 C 194.7 4.3 194.6 3.9 194.2 3.9 C 193.1 3.9 191.8 5.8 191.4 6.9 C 191 7.7 190.8 8.4 190.4 9.8 C 190.43 9.75 189.3 9.9 189.3 9.9 C 189.3 9.9 190.65 4.59 190.7 4.6 Z M 201.4 3.2 C 201.7 3.2 202.1 3.3 202.3 3.5 C 202.3 3.5 202.4 3.3 202.4 3.3 L 203.5 3.3 C 203.5 3.3 202.08 8.51 202.1 8.5 C 202 8.9 202 9.2 202.2 9.2 C 202.6 9.2 203.1 8.3 203.4 7.9 C 203.4 7.9 203.7 8 203.7 8 C 203.3 9 202.5 9.9 201.5 9.9 C 200.8 9.9 200.7 9.4 201 8.4 C 200.96 8.45 201.4 7 201.4 7 C 201.4 7 201.38 6.97 201.4 7 C 200.6 8.3 199.4 9.9 198 9.9 C 197.1 9.9 196.8 9.1 196.8 8.4 C 196.8 6.6 198.3 3.2 201.4 3.2 Z M 198.6 9.2 C 199.3 9.2 200.1 8.4 200.8 7.3 C 201.5 6.2 201.9 4.9 202.2 4 C 202 3.8 201.7 3.7 201.4 3.7 C 199.3 3.7 198.1 6.9 198.1 8.3 C 198.1 8.8 198.2 9.2 198.6 9.2 Z M 205.7 4.6 C 205.8 4.2 205.8 4 205.5 4 C 205.53 3.96 204.7 3.9 204.7 3.9 L 204.8 3.6 L 207.2 3.2 L 207.2 3.3 L 206.4 6.1 C 206.4 6.1 206.44 6.12 206.4 6.1 C 207.2 4.6 208.6 3.2 209.8 3.2 C 210.9 3.2 211 4.1 210.7 5.1 C 210.7 5.1 209.7 8.5 209.7 8.5 C 209.6 8.9 209.6 9.2 209.9 9.2 C 210.2 9.2 210.8 8.3 211 7.9 C 211 7.9 211.3 8 211.3 8 C 210.9 9 210.2 9.9 209.2 9.9 C 208.5 9.9 208.3 9.4 208.5 8.6 C 208.5 8.6 209.6 4.8 209.6 4.8 C 209.8 4.3 209.7 3.9 209.2 3.9 C 208.2 3.9 206.9 5.8 206.4 6.9 C 206.1 7.7 205.9 8.4 205.5 9.8 C 205.5 9.75 204.4 9.9 204.4 9.9 C 204.4 9.9 205.72 4.59 205.7 4.6 Z M 215.2 8 C 215.4 8 215.5 8.1 215.6 8.4 C 215.8 9 216.3 9.5 216.7 9.5 C 217.3 9.5 217.7 9.1 217.7 8.5 C 217.7 8 217.3 7.4 216.8 7 C 216.1 6.4 215.6 5.8 215.6 5.1 C 215.6 4.1 216.4 3.2 217.7 3.2 C 218.9 3.2 219.4 3.8 219.4 4.2 C 219.4 4.6 219 4.8 218.8 4.8 C 218.6 4.8 218.5 4.7 218.4 4.6 C 218.1 4 217.8 3.7 217.4 3.7 C 216.9 3.7 216.6 4.1 216.6 4.5 C 216.6 4.9 216.7 5.3 217.5 6 C 218.4 6.7 218.7 7.2 218.7 7.9 C 218.7 9 217.8 9.9 216.4 9.9 C 215.2 9.9 214.5 9.2 214.5 8.7 C 214.5 8.3 214.8 8 215.2 8 Z M 224.1 3.2 C 224.5 3.2 224.9 3.3 225.1 3.5 C 225.09 3.5 225.2 3.3 225.2 3.3 L 226.2 3.3 C 226.2 3.3 224.87 8.51 224.9 8.5 C 224.8 8.9 224.7 9.2 225 9.2 C 225.4 9.2 225.9 8.3 226.2 7.9 C 226.2 7.9 226.5 8 226.5 8 C 226 9 225.3 9.9 224.3 9.9 C 223.6 9.9 223.5 9.4 223.8 8.4 C 223.75 8.45 224.2 7 224.2 7 C 224.2 7 224.17 6.97 224.2 7 C 223.4 8.3 222.2 9.9 220.8 9.9 C 219.9 9.9 219.6 9.1 219.6 8.4 C 219.6 6.6 221 3.2 224.1 3.2 Z M 221.4 9.2 C 222 9.2 222.8 8.4 223.6 7.3 C 224.3 6.2 224.7 4.9 225 4 C 224.8 3.8 224.5 3.7 224.2 3.7 C 222.1 3.7 220.9 6.9 220.9 8.3 C 220.9 8.8 221 9.2 221.4 9.2 Z M 231.9 1.4 C 232 0.9 231.9 0.8 231.6 0.8 C 231.62 0.81 230.9 0.7 230.9 0.7 L 231 0.4 L 233.3 0.1 L 233.3 0.2 L 231.1 9.8 L 229.9 9.9 C 229.9 9.9 231.88 1.44 231.9 1.4 Z M 234 4.2 C 234.7 3.6 235.3 3.2 235.8 3.2 C 236.3 3.2 236.5 3.5 236.5 3.9 C 236.5 4.2 236.2 4.6 235.9 4.6 C 235.7 4.6 235.6 4.5 235.5 4.5 C 235.2 4.3 235 4.2 234.9 4.2 C 234.4 4.2 233.4 5.3 233 5.7 C 233.3 6.6 233.6 7.4 234 8.3 C 234.3 8.9 234.5 9.2 234.7 9.2 C 235.1 9.2 235.4 8.7 235.8 7.9 C 235.8 7.9 236.1 8.1 236.1 8.1 C 235.7 9.2 235.1 9.9 234.3 9.9 C 233.7 9.9 233.3 9.5 232.9 8.7 C 232.5 7.9 232.2 7.1 232 6.3 C 232.6 5.5 233.3 4.8 234 4.2 Z M 237.3 3.6 L 239.7 3.2 L 239.8 3.3 C 239.8 3.3 238.52 8.09 238.5 8.1 C 238.3 8.8 238.4 9.2 238.8 9.2 C 239.9 9.2 241.1 7.5 241.6 6.2 C 242 5.4 242.2 4.7 242.5 3.4 C 242.55 3.38 243.7 3.2 243.7 3.2 C 243.7 3.2 242.32 8.53 242.3 8.5 C 242.2 8.9 242.2 9.2 242.5 9.2 C 242.8 9.2 243.4 8.3 243.7 7.9 C 243.7 7.9 244 8 244 8 C 243.5 9 242.8 9.9 241.8 9.9 C 241.1 9.9 241 9.4 241.2 8.5 C 241.22 8.5 241.7 7 241.7 7 C 241.7 7 241.63 7.02 241.6 7 C 240.8 8.5 239.5 9.9 238.2 9.9 C 237.2 9.9 237.1 9.1 237.4 8 C 237.4 8 238.3 4.6 238.3 4.6 C 238.4 4.2 238.4 4 238.1 4 C 238.06 3.96 237.3 3.9 237.3 3.9 L 237.3 3.6 Z M 246.8 1.4 C 246.9 0.9 246.9 0.8 246.6 0.8 C 246.55 0.81 245.8 0.7 245.8 0.7 L 245.9 0.4 L 248.2 0.1 L 248.3 0.2 C 248.3 0.2 246.19 8.53 246.2 8.5 C 246.1 9 246.1 9.2 246.3 9.2 C 246.6 9.2 247.2 8.4 247.5 7.9 C 247.5 7.9 247.8 8 247.8 8 C 247.4 9 246.6 9.9 245.7 9.9 C 245 9.9 244.9 9.4 245 8.6 C 245 8.6 246.8 1.4 246.8 1.4 Z M 250.2 3.9 L 249.1 3.9 L 249.2 3.4 L 250.3 3.4 L 250.5 2.7 L 251.7 1.7 L 251.9 1.8 L 251.4 3.4 L 253.1 3.4 L 252.9 3.9 L 251.3 3.9 C 251.3 3.9 250.15 8.61 250.2 8.6 C 250.1 8.9 250.1 9.2 250.3 9.2 C 250.8 9.2 251.4 8.4 251.7 7.9 C 251.7 7.9 252 8.1 252 8.1 C 251.5 9 250.6 9.9 249.6 9.9 C 249 9.9 248.8 9.4 249 8.6 C 249 8.63 250.2 3.9 250.2 3.9 Z M 253.4 3.6 L 255.8 3.2 L 255.8 3.3 C 255.8 3.3 254.57 8.09 254.6 8.1 C 254.4 8.8 254.5 9.2 254.9 9.2 C 256 9.2 257.1 7.5 257.7 6.2 C 258 5.4 258.2 4.7 258.6 3.4 C 258.6 3.38 259.8 3.2 259.8 3.2 C 259.8 3.2 258.37 8.53 258.4 8.5 C 258.3 8.9 258.3 9.2 258.5 9.2 C 258.9 9.2 259.5 8.3 259.7 7.9 C 259.7 7.9 260 8 260 8 C 259.6 9 258.8 9.9 257.9 9.9 C 257.2 9.9 257 9.4 257.3 8.5 C 257.28 8.5 257.7 7 257.7 7 C 257.7 7 257.68 7.02 257.7 7 C 256.9 8.5 255.5 9.9 254.3 9.9 C 253.2 9.9 253.1 9.1 253.4 8 C 253.4 8 254.3 4.6 254.3 4.6 C 254.4 4.2 254.4 4 254.1 4 C 254.12 3.96 253.3 3.9 253.3 3.9 L 253.4 3.6 Z M 262.1 4.6 C 262.2 4.2 262.2 4 261.9 4 C 261.93 3.96 261.1 3.9 261.1 3.9 L 261.2 3.6 L 263.4 3.2 L 263.5 3.3 L 262.9 5.4 C 262.9 5.4 262.95 5.45 262.9 5.4 C 263.6 4 264.5 3.2 265.3 3.2 C 265.7 3.2 265.9 3.4 265.9 3.8 C 265.9 4.2 265.6 4.6 265.2 4.6 C 264.8 4.6 264.7 4.3 264.3 4.3 C 263.8 4.3 263.2 5.4 262.7 7.1 C 262.5 7.9 262.3 8.9 262 9.8 C 262.05 9.75 260.9 9.9 260.9 9.9 C 260.9 9.9 262.13 4.59 262.1 4.6 Z M 269.8 3.2 C 270.2 3.2 270.6 3.3 270.8 3.5 C 270.8 3.5 270.9 3.3 270.9 3.3 L 272 3.3 C 272 3.3 270.58 8.51 270.6 8.5 C 270.5 8.9 270.4 9.2 270.7 9.2 C 271.1 9.2 271.6 8.3 271.9 7.9 C 271.9 7.9 272.2 8 272.2 8 C 271.7 9 271 9.9 270 9.9 C 269.3 9.9 269.2 9.4 269.5 8.4 C 269.46 8.45 269.9 7 269.9 7 C 269.9 7 269.87 6.97 269.9 7 C 269.1 8.3 267.9 9.9 266.5 9.9 C 265.6 9.9 265.3 9.1 265.3 8.4 C 265.3 6.6 266.8 3.2 269.8 3.2 Z M 267.1 9.2 C 267.8 9.2 268.5 8.4 269.3 7.3 C 270 6.2 270.4 4.9 270.7 4 C 270.5 3.8 270.2 3.7 269.9 3.7 C 267.8 3.7 266.6 6.9 266.6 8.3 C 266.6 8.8 266.7 9.2 267.1 9.2 Z " stroke="none" fill="#000"/>
  </g>
</svg>