<?xml version="1.0" standalone="no"?>
<!DOCTYPE svg PUBLIC "-//W3C//DTD SVG 1.1//EN" "http://www.w3.org/Graphics/SVG/1.1/DTD/svg11.dtd">
<svg xmlns="http://www.w3.org/2000/svg" version="1.1" width="339px" height="18.5px" viewBox="0 -3 339 18.5" style="top:-3px">
  <desc>Jan Miguel Riviann Cerillo, Izel Praise Fernandez, at Eubel Maria Pascual</desc>
  <defs/>
  <g id="Polygon23347">
    <path d="M 10.5 0.3 C 10.5 0.3 10.47 4.07 10.5 4.1 C 10.5 4.6 10.3 5 10.1 5.3 C 9.8 5.6 9.4 5.7 8.8 5.7 C 8.5 5.7 8.3 5.7 8 5.6 C 8 5.6 8 4.6 8 4.6 C 8.2 4.6 8.4 4.6 8.6 4.6 C 8.7 4.6 8.9 4.6 9 4.5 C 9 4.5 9.1 4.4 9.2 4.3 C 9.2 4.3 9.2 4.1 9.2 3.9 C 9.22 3.92 9.2 0.3 9.2 0.3 L 10.5 0.3 Z M 14.3 0.3 L 16 5.6 L 14.6 5.6 L 14.3 4.5 L 12.6 4.5 L 12.2 5.6 L 11.1 5.6 L 12.9 0.3 L 14.3 0.3 Z M 12.9 3.5 L 14 3.5 L 13.4 1.6 L 12.9 3.5 Z M 21 0.3 L 21 5.6 L 19.9 5.6 C 19.9 5.6 17.81 2 17.8 2 C 17.8 2.1 17.8 2.2 17.8 2.2 C 17.8 2.3 17.8 2.3 17.8 2.4 C 17.84 2.41 17.8 5.6 17.8 5.6 L 16.9 5.6 L 16.9 0.3 L 18.2 0.3 C 18.2 0.3 20.02 3.41 20 3.4 C 20 3.3 20 3.1 20 3.1 C 20 3.06 20 0.3 20 0.3 L 21 0.3 Z M 27 5.6 L 25.7 1.3 L 25.7 5.6 L 24.7 5.6 L 24.7 0.3 L 26.6 0.3 L 27.6 3.5 L 28.5 0.3 L 30.5 0.3 L 30.5 5.6 L 29.2 5.6 L 29.2 1.3 L 27.9 5.6 L 27 5.6 Z M 33.1 0.3 L 33.1 5.6 L 31.9 5.6 L 31.9 0.3 L 33.1 0.3 Z M 38.7 2.8 L 38.7 5.6 C 38.7 5.6 38.09 5.6 38.1 5.6 C 38.1 5.4 38 5.2 37.9 5 C 37.5 5.5 37 5.7 36.5 5.7 C 35.8 5.7 35.2 5.4 34.8 4.9 C 34.4 4.4 34.3 3.8 34.3 3 C 34.3 2.2 34.5 1.5 34.9 1 C 35.3 0.4 35.8 0.2 36.6 0.2 C 37.2 0.2 37.6 0.4 38 0.7 C 38.4 1 38.6 1.5 38.7 2 C 38.7 2 37.5 2.2 37.5 2.2 C 37.4 1.5 37.1 1.2 36.6 1.2 C 36.2 1.2 36 1.4 35.8 1.7 C 35.6 2 35.5 2.4 35.5 3 C 35.5 3.5 35.6 3.9 35.8 4.2 C 36 4.5 36.3 4.7 36.6 4.7 C 36.8 4.7 37 4.6 37.2 4.4 C 37.4 4.3 37.5 4.1 37.5 3.7 C 37.48 3.75 36.5 3.7 36.5 3.7 L 36.5 2.8 L 38.7 2.8 Z M 44.2 0.3 C 44.2 0.3 44.17 3.59 44.2 3.6 C 44.2 4.1 44.1 4.5 44 4.8 C 43.9 5 43.6 5.3 43.3 5.4 C 43 5.6 42.6 5.7 42 5.7 C 41.5 5.7 41.1 5.6 40.8 5.5 C 40.5 5.3 40.3 5.1 40.1 4.8 C 40 4.5 39.9 4.1 39.9 3.6 C 39.91 3.59 39.9 0.3 39.9 0.3 L 41.3 0.3 C 41.3 0.3 41.27 3.59 41.3 3.6 C 41.3 3.9 41.3 4.1 41.3 4.2 C 41.4 4.4 41.5 4.5 41.6 4.5 C 41.8 4.6 42 4.7 42.2 4.7 C 42.4 4.7 42.6 4.6 42.7 4.5 C 42.9 4.5 43 4.4 43 4.2 C 43.1 4.1 43.1 3.9 43.1 3.6 C 43.1 3.59 43.1 0.3 43.1 0.3 L 44.2 0.3 Z M 49.3 1.3 L 46.8 1.3 L 46.8 2.4 L 48.7 2.4 L 48.7 3.4 L 46.8 3.4 L 46.8 4.5 L 49.3 4.5 L 49.3 5.6 L 45.5 5.6 L 45.5 0.3 L 49.3 0.3 L 49.3 1.3 Z M 51.6 4.5 L 53.7 4.5 L 53.7 5.6 L 50.4 5.6 L 50.4 0.3 L 51.6 0.3 L 51.6 4.5 Z M 58.3 3.5 L 58.3 5.6 L 57 5.6 L 57 0.3 C 57 0.3 59.37 0.27 59.4 0.3 C 59.8 0.3 60.2 0.3 60.4 0.4 C 60.7 0.5 60.9 0.7 61.1 1 C 61.2 1.2 61.3 1.5 61.3 1.9 C 61.3 2.5 61 3 60.4 3.2 C 60.4 3.24 61.4 5.6 61.4 5.6 L 60 5.6 L 59.2 3.5 L 58.3 3.5 Z M 58.3 1.2 L 58.3 2.6 C 58.3 2.6 59.05 2.58 59.1 2.6 C 59.3 2.6 59.5 2.6 59.6 2.5 C 59.7 2.5 59.8 2.4 59.9 2.3 C 60 2.2 60 2 60 1.9 C 60 1.7 60 1.6 59.9 1.5 C 59.8 1.4 59.7 1.3 59.6 1.3 C 59.5 1.2 59.3 1.2 59 1.2 C 59.02 1.22 58.3 1.2 58.3 1.2 Z M 63.9 0.3 L 63.9 5.6 L 62.6 5.6 L 62.6 0.3 L 63.9 0.3 Z M 69.2 0.3 L 67.6 5.6 L 66.3 5.6 L 64.7 0.3 L 66 0.3 L 67 4.1 L 68.2 0.3 L 69.2 0.3 Z M 71.3 0.3 L 71.3 5.6 L 70 5.6 L 70 0.3 L 71.3 0.3 Z M 75.3 0.3 L 76.9 5.6 L 75.6 5.6 L 75.3 4.5 L 73.5 4.5 L 73.2 5.6 L 72.1 5.6 L 73.8 0.3 L 75.3 0.3 Z M 73.8 3.5 L 75 3.5 L 74.4 1.6 L 73.8 3.5 Z M 81.9 0.3 L 81.9 5.6 L 80.9 5.6 C 80.9 5.6 78.78 2 78.8 2 C 78.8 2.1 78.8 2.2 78.8 2.2 C 78.8 2.3 78.8 2.3 78.8 2.4 C 78.8 2.41 78.8 5.6 78.8 5.6 L 77.8 5.6 L 77.8 0.3 L 79.2 0.3 C 79.2 0.3 80.99 3.41 81 3.4 C 81 3.3 81 3.1 81 3.1 C 80.96 3.06 81 0.3 81 0.3 L 81.9 0.3 Z M 87.4 0.3 L 87.4 5.6 L 86.4 5.6 C 86.4 5.6 84.27 2 84.3 2 C 84.3 2.1 84.3 2.2 84.3 2.2 C 84.3 2.3 84.3 2.3 84.3 2.4 C 84.29 2.41 84.3 5.6 84.3 5.6 L 83.3 5.6 L 83.3 0.3 L 84.7 0.3 C 84.7 0.3 86.48 3.41 86.5 3.4 C 86.5 3.3 86.5 3.1 86.5 3.1 C 86.46 3.06 86.5 0.3 86.5 0.3 L 87.4 0.3 Z M 93.3 0.2 C 94.5 0.2 95.3 0.9 95.4 2.3 C 95.4 2.3 94.1 2.3 94.1 2.3 C 94.1 1.6 93.8 1.2 93.2 1.2 C 92.6 1.2 92.3 1.8 92.3 2.9 C 92.3 3.6 92.4 4.1 92.5 4.3 C 92.7 4.5 93 4.7 93.3 4.7 C 93.8 4.7 94.1 4.3 94.2 3.7 C 94.2 3.7 95.4 3.7 95.4 3.7 C 95.4 4.4 95.1 4.9 94.7 5.2 C 94.3 5.5 93.8 5.7 93.3 5.7 C 92.6 5.7 92 5.4 91.5 5 C 91.1 4.5 90.9 3.8 90.9 2.9 C 90.9 2.1 91.1 1.5 91.5 1 C 91.9 0.4 92.5 0.2 93.3 0.2 C 93.3 0.2 93.3 0.2 93.3 0.2 Z M 100.3 1.3 L 97.7 1.3 L 97.7 2.4 L 99.7 2.4 L 99.7 3.4 L 97.7 3.4 L 97.7 4.5 L 100.3 4.5 L 100.3 5.6 L 96.5 5.6 L 96.5 0.3 L 100.3 0.3 L 100.3 1.3 Z M 102.6 3.5 L 102.6 5.6 L 101.3 5.6 L 101.3 0.3 C 101.3 0.3 103.69 0.27 103.7 0.3 C 104.1 0.3 104.5 0.3 104.7 0.4 C 105 0.5 105.2 0.7 105.4 1 C 105.6 1.2 105.6 1.5 105.6 1.9 C 105.6 2.5 105.3 3 104.7 3.2 C 104.72 3.24 105.7 5.6 105.7 5.6 L 104.3 5.6 L 103.5 3.5 L 102.6 3.5 Z M 102.6 1.2 L 102.6 2.6 C 102.6 2.6 103.37 2.58 103.4 2.6 C 103.6 2.6 103.8 2.6 103.9 2.5 C 104 2.5 104.1 2.4 104.2 2.3 C 104.3 2.2 104.4 2 104.4 1.9 C 104.4 1.7 104.3 1.6 104.2 1.5 C 104.1 1.4 104 1.3 103.9 1.3 C 103.8 1.2 103.6 1.2 103.3 1.2 C 103.35 1.22 102.6 1.2 102.6 1.2 Z M 108.2 0.3 L 108.2 5.6 L 106.9 5.6 L 106.9 0.3 L 108.2 0.3 Z M 110.8 4.5 L 113 4.5 L 113 5.6 L 109.6 5.6 L 109.6 0.3 L 110.8 0.3 L 110.8 4.5 Z M 115.2 4.5 L 117.3 4.5 L 117.3 5.6 L 113.9 5.6 L 113.9 0.3 L 115.2 0.3 L 115.2 4.5 Z M 120.2 5.7 C 119.5 5.7 118.9 5.4 118.5 4.9 C 118.1 4.3 117.9 3.7 117.9 2.9 C 117.9 2.1 118.1 1.5 118.5 1 C 118.9 0.4 119.5 0.2 120.2 0.2 C 121 0.2 121.5 0.5 121.9 1 C 122.3 1.6 122.5 2.2 122.5 2.9 C 122.5 3.7 122.3 4.4 121.9 4.9 C 121.5 5.4 120.9 5.7 120.2 5.7 Z M 121.2 2.9 C 121.2 1.8 120.9 1.2 120.2 1.2 C 119.6 1.2 119.2 1.8 119.2 2.9 C 119.2 4.1 119.6 4.7 120.2 4.7 C 120.9 4.7 121.2 4.1 121.2 2.9 C 121.2 2.9 121.2 2.9 121.2 2.9 Z M 124.7 4.4 L 124.7 5.5 L 123.9 6.8 L 123.5 6.8 L 124.1 5.6 L 123.5 5.6 L 123.5 4.4 L 124.7 4.4 Z M 129.6 0.3 L 129.6 5.6 L 128.3 5.6 L 128.3 0.3 L 129.6 0.3 Z M 134.8 1.2 L 132.1 4.6 L 134.9 4.6 L 134.9 5.6 L 130.6 5.6 L 130.6 4.7 L 133.3 1.3 L 130.8 1.3 L 130.8 0.3 L 134.8 0.3 L 134.8 1.2 Z M 139.7 1.3 L 137.2 1.3 L 137.2 2.4 L 139.2 2.4 L 139.2 3.4 L 137.2 3.4 L 137.2 4.5 L 139.7 4.5 L 139.7 5.6 L 135.9 5.6 L 135.9 0.3 L 139.7 0.3 L 139.7 1.3 Z M 142 4.5 L 144.2 4.5 L 144.2 5.6 L 140.8 5.6 L 140.8 0.3 L 142 0.3 L 142 4.5 Z M 148.7 3.6 L 148.7 5.6 L 147.4 5.6 L 147.4 0.3 C 147.4 0.3 149.54 0.27 149.5 0.3 C 150 0.3 150.4 0.3 150.6 0.4 C 150.9 0.5 151.1 0.7 151.3 1 C 151.5 1.2 151.6 1.5 151.6 1.9 C 151.6 2.2 151.5 2.4 151.4 2.7 C 151.3 2.9 151.2 3.1 151 3.3 C 150.8 3.4 150.6 3.5 150.4 3.6 C 150.2 3.6 150 3.6 149.6 3.6 C 149.59 3.62 148.7 3.6 148.7 3.6 Z M 148.7 2.7 C 148.7 2.7 149.48 2.65 149.5 2.7 C 149.8 2.7 150 2.6 150.1 2.4 C 150.3 2.3 150.3 2.1 150.3 1.9 C 150.3 1.7 150.2 1.6 150.1 1.4 C 150 1.3 149.8 1.2 149.5 1.2 C 149.47 1.24 148.7 1.2 148.7 1.2 L 148.7 2.7 Z M 153.8 3.5 L 153.8 5.6 L 152.6 5.6 L 152.6 0.3 C 152.6 0.3 154.93 0.27 154.9 0.3 C 155.4 0.3 155.7 0.3 156 0.4 C 156.2 0.5 156.5 0.7 156.6 1 C 156.8 1.2 156.9 1.5 156.9 1.9 C 156.9 2.5 156.6 3 156 3.2 C 155.95 3.24 156.9 5.6 156.9 5.6 L 155.6 5.6 L 154.7 3.5 L 153.8 3.5 Z M 153.8 1.2 L 153.8 2.6 C 153.8 2.6 154.61 2.58 154.6 2.6 C 154.9 2.6 155 2.6 155.2 2.5 C 155.3 2.5 155.4 2.4 155.5 2.3 C 155.5 2.2 155.6 2 155.6 1.9 C 155.6 1.7 155.5 1.6 155.5 1.5 C 155.4 1.4 155.3 1.3 155.2 1.3 C 155.1 1.2 154.9 1.2 154.6 1.2 C 154.58 1.22 153.8 1.2 153.8 1.2 Z M 160.8 0.3 L 162.5 5.6 L 161.1 5.6 L 160.8 4.5 L 159.1 4.5 L 158.7 5.6 L 157.6 5.6 L 159.3 0.3 L 160.8 0.3 Z M 159.4 3.5 L 160.5 3.5 L 159.9 1.6 L 159.4 3.5 Z M 164.6 0.3 L 164.6 5.6 L 163.3 5.6 L 163.3 0.3 L 164.6 0.3 Z M 167.7 0.2 C 168.7 0.2 169.4 0.6 169.7 1.4 C 169.7 1.4 168.6 1.8 168.6 1.8 C 168.5 1.4 168.2 1.2 167.7 1.2 C 167.2 1.2 167 1.3 167 1.6 C 167 1.8 167 1.9 167.1 2 C 167.2 2.1 167.4 2.1 167.7 2.2 C 168.3 2.3 168.7 2.4 168.9 2.5 C 169.2 2.6 169.4 2.8 169.6 3.1 C 169.7 3.3 169.8 3.6 169.8 3.9 C 169.8 4.4 169.6 4.8 169.3 5.2 C 168.9 5.5 168.3 5.7 167.6 5.7 C 167.1 5.7 166.6 5.6 166.2 5.3 C 165.8 5.1 165.6 4.7 165.5 4.2 C 165.5 4.2 166.6 3.9 166.6 3.9 C 166.7 4.4 167.1 4.7 167.7 4.7 C 168 4.7 168.2 4.6 168.3 4.5 C 168.5 4.4 168.5 4.3 168.5 4.1 C 168.5 4 168.5 3.8 168.4 3.8 C 168.2 3.7 168 3.6 167.6 3.5 C 166.9 3.4 166.5 3.2 166.2 2.9 C 165.9 2.7 165.7 2.3 165.7 1.9 C 165.7 1.4 165.9 1 166.2 0.7 C 166.6 0.4 167.1 0.2 167.7 0.2 C 167.7 0.2 167.7 0.2 167.7 0.2 Z M 174.8 1.3 L 172.2 1.3 L 172.2 2.4 L 174.2 2.4 L 174.2 3.4 L 172.2 3.4 L 172.2 4.5 L 174.8 4.5 L 174.8 5.6 L 170.9 5.6 L 170.9 0.3 L 174.8 0.3 L 174.8 1.3 Z M 181.9 1.3 L 179.4 1.3 L 179.4 2.5 L 181.4 2.5 L 181.4 3.5 L 179.4 3.5 L 179.4 5.6 L 178.1 5.6 L 178.1 0.3 L 181.9 0.3 L 181.9 1.3 Z M 186.7 1.3 L 184.2 1.3 L 184.2 2.4 L 186.2 2.4 L 186.2 3.4 L 184.2 3.4 L 184.2 4.5 L 186.7 4.5 L 186.7 5.6 L 182.9 5.6 L 182.9 0.3 L 186.7 0.3 L 186.7 1.3 Z M 189 3.5 L 189 5.6 L 187.8 5.6 L 187.8 0.3 C 187.8 0.3 190.12 0.27 190.1 0.3 C 190.6 0.3 190.9 0.3 191.2 0.4 C 191.4 0.5 191.6 0.7 191.8 1 C 192 1.2 192.1 1.5 192.1 1.9 C 192.1 2.5 191.8 3 191.1 3.2 C 191.15 3.24 192.1 5.6 192.1 5.6 L 190.8 5.6 L 189.9 3.5 L 189 3.5 Z M 189 1.2 L 189 2.6 C 189 2.6 189.8 2.58 189.8 2.6 C 190.1 2.6 190.2 2.6 190.3 2.5 C 190.5 2.5 190.6 2.4 190.7 2.3 C 190.7 2.2 190.8 2 190.8 1.9 C 190.8 1.7 190.7 1.6 190.7 1.5 C 190.6 1.4 190.5 1.3 190.4 1.3 C 190.3 1.2 190.1 1.2 189.8 1.2 C 189.78 1.22 189 1.2 189 1.2 Z M 197.5 0.3 L 197.5 5.6 L 196.4 5.6 C 196.4 5.6 194.31 2 194.3 2 C 194.3 2.1 194.3 2.2 194.3 2.2 C 194.3 2.3 194.3 2.3 194.3 2.4 C 194.33 2.41 194.3 5.6 194.3 5.6 L 193.4 5.6 L 193.4 0.3 L 194.7 0.3 C 194.7 0.3 196.52 3.41 196.5 3.4 C 196.5 3.3 196.5 3.1 196.5 3.1 C 196.49 3.06 196.5 0.3 196.5 0.3 L 197.5 0.3 Z M 201.5 0.3 L 203.1 5.6 L 201.8 5.6 L 201.5 4.5 L 199.7 4.5 L 199.4 5.6 L 198.3 5.6 L 200 0.3 L 201.5 0.3 Z M 200 3.5 L 201.2 3.5 L 200.6 1.6 L 200 3.5 Z M 208.1 0.3 L 208.1 5.6 L 207.1 5.6 C 207.1 5.6 204.98 2 205 2 C 205 2.1 205 2.2 205 2.2 C 205 2.3 205 2.3 205 2.4 C 205.01 2.41 205 5.6 205 5.6 L 204 5.6 L 204 0.3 L 205.4 0.3 C 205.4 0.3 207.19 3.41 207.2 3.4 C 207.2 3.3 207.2 3.1 207.2 3.1 C 207.17 3.06 207.2 0.3 207.2 0.3 L 208.1 0.3 Z M 209.5 0.3 C 209.5 0.3 211.15 0.27 211.2 0.3 C 211.8 0.3 212.3 0.4 212.6 0.5 C 213 0.7 213.3 1 213.5 1.4 C 213.8 1.8 213.9 2.3 213.9 2.9 C 213.9 3.7 213.7 4.3 213.2 4.8 C 212.8 5.3 212.2 5.6 211.4 5.6 C 211.36 5.6 209.5 5.6 209.5 5.6 L 209.5 0.3 Z M 210.8 1.3 L 210.8 4.6 C 210.8 4.6 211.27 4.6 211.3 4.6 C 211.7 4.6 212.1 4.4 212.3 4.1 C 212.5 3.7 212.6 3.3 212.6 2.9 C 212.6 2.6 212.5 2.3 212.4 2 C 212.3 1.7 212.1 1.5 212 1.4 C 211.8 1.3 211.5 1.3 211.3 1.3 C 211.28 1.25 210.8 1.3 210.8 1.3 Z M 218.8 1.3 L 216.3 1.3 L 216.3 2.4 L 218.3 2.4 L 218.3 3.4 L 216.3 3.4 L 216.3 4.5 L 218.8 4.5 L 218.8 5.6 L 215 5.6 L 215 0.3 L 218.8 0.3 L 218.8 1.3 Z M 223.8 1.2 L 221.1 4.6 L 223.8 4.6 L 223.8 5.6 L 219.5 5.6 L 219.5 4.7 L 222.2 1.3 L 219.7 1.3 L 219.7 0.3 L 223.8 0.3 L 223.8 1.2 Z M 225.9 4.4 L 225.9 5.5 L 225.2 6.8 L 224.7 6.8 L 225.3 5.6 L 224.7 5.6 L 224.7 4.4 L 225.9 4.4 Z M 232.2 0.3 L 233.8 5.6 L 232.5 5.6 L 232.2 4.5 L 230.4 4.5 L 230.1 5.6 L 229 5.6 L 230.7 0.3 L 232.2 0.3 Z M 230.7 3.5 L 231.9 3.5 L 231.3 1.6 L 230.7 3.5 Z M 237.7 0.3 L 237.7 1.3 L 236.4 1.3 L 236.4 5.6 L 235.1 5.6 L 235.1 1.3 L 233.8 1.3 L 233.8 0.3 L 237.7 0.3 Z M 244.7 1.3 L 242.2 1.3 L 242.2 2.4 L 244.2 2.4 L 244.2 3.4 L 242.2 3.4 L 242.2 4.5 L 244.7 4.5 L 244.7 5.6 L 240.9 5.6 L 240.9 0.3 L 244.7 0.3 L 244.7 1.3 Z M 250 0.3 C 250 0.3 249.97 3.59 250 3.6 C 250 4.1 249.9 4.5 249.8 4.8 C 249.7 5 249.4 5.3 249.1 5.4 C 248.8 5.6 248.4 5.7 247.8 5.7 C 247.3 5.7 246.9 5.6 246.6 5.5 C 246.3 5.3 246.1 5.1 245.9 4.8 C 245.8 4.5 245.7 4.1 245.7 3.6 C 245.71 3.59 245.7 0.3 245.7 0.3 L 247.1 0.3 C 247.1 0.3 247.07 3.59 247.1 3.6 C 247.1 3.9 247.1 4.1 247.1 4.2 C 247.2 4.4 247.3 4.5 247.4 4.5 C 247.6 4.6 247.7 4.7 248 4.7 C 248.2 4.7 248.4 4.6 248.5 4.5 C 248.7 4.5 248.8 4.4 248.8 4.2 C 248.9 4.1 248.9 3.9 248.9 3.6 C 248.9 3.59 248.9 0.3 248.9 0.3 L 250 0.3 Z M 251.3 0.3 C 251.3 0.3 253.76 0.27 253.8 0.3 C 254.2 0.3 254.5 0.3 254.8 0.4 C 255 0.5 255.2 0.7 255.3 0.9 C 255.5 1.1 255.5 1.4 255.5 1.6 C 255.5 2.2 255.2 2.6 254.6 2.8 C 255 2.9 255.2 3.1 255.4 3.3 C 255.6 3.6 255.7 3.8 255.7 4.1 C 255.7 4.5 255.5 4.9 255.2 5.2 C 254.9 5.5 254.4 5.6 253.8 5.6 C 253.76 5.6 251.3 5.6 251.3 5.6 L 251.3 0.3 Z M 252.5 1.2 L 252.5 2.4 C 252.5 2.4 253.47 2.38 253.5 2.4 C 253.8 2.4 254 2.3 254.1 2.2 C 254.2 2 254.3 1.9 254.3 1.8 C 254.3 1.6 254.2 1.5 254.1 1.4 C 254.1 1.3 254 1.3 253.9 1.2 C 253.8 1.2 253.6 1.2 253.4 1.2 C 253.38 1.21 252.5 1.2 252.5 1.2 Z M 252.5 3.3 L 252.5 4.6 C 252.5 4.6 253.48 4.61 253.5 4.6 C 253.8 4.6 254 4.6 254.2 4.4 C 254.3 4.3 254.4 4.2 254.4 4 C 254.4 3.8 254.3 3.6 254.2 3.5 C 254.1 3.4 253.8 3.3 253.5 3.3 C 253.54 3.33 252.5 3.3 252.5 3.3 Z M 260.6 1.3 L 258.1 1.3 L 258.1 2.4 L 260.1 2.4 L 260.1 3.4 L 258.1 3.4 L 258.1 4.5 L 260.6 4.5 L 260.6 5.6 L 256.8 5.6 L 256.8 0.3 L 260.6 0.3 L 260.6 1.3 Z M 263 4.5 L 265.1 4.5 L 265.1 5.6 L 261.7 5.6 L 261.7 0.3 L 263 0.3 L 263 4.5 Z M 270.7 5.6 L 269.4 1.3 L 269.4 5.6 L 268.4 5.6 L 268.4 0.3 L 270.3 0.3 L 271.2 3.5 L 272.2 0.3 L 274.2 0.3 L 274.2 5.6 L 272.9 5.6 L 272.9 1.3 L 271.6 5.6 L 270.7 5.6 Z M 278.2 0.3 L 279.8 5.6 L 278.5 5.6 L 278.2 4.5 L 276.4 4.5 L 276.1 5.6 L 275 5.6 L 276.7 0.3 L 278.2 0.3 Z M 276.7 3.5 L 277.9 3.5 L 277.3 1.6 L 276.7 3.5 Z M 282 3.5 L 282 5.6 L 280.7 5.6 L 280.7 0.3 C 280.7 0.3 283.08 0.27 283.1 0.3 C 283.5 0.3 283.9 0.3 284.1 0.4 C 284.4 0.5 284.6 0.7 284.8 1 C 284.9 1.2 285 1.5 285 1.9 C 285 2.5 284.7 3 284.1 3.2 C 284.11 3.24 285.1 5.6 285.1 5.6 L 283.7 5.6 L 282.9 3.5 L 282 3.5 Z M 282 1.2 L 282 2.6 C 282 2.6 282.76 2.58 282.8 2.6 C 283 2.6 283.2 2.6 283.3 2.5 C 283.4 2.5 283.5 2.4 283.6 2.3 C 283.7 2.2 283.7 2 283.7 1.9 C 283.7 1.7 283.7 1.6 283.6 1.5 C 283.5 1.4 283.4 1.3 283.3 1.3 C 283.2 1.2 283 1.2 282.7 1.2 C 282.73 1.22 282 1.2 282 1.2 Z M 287.6 0.3 L 287.6 5.6 L 286.3 5.6 L 286.3 0.3 L 287.6 0.3 Z M 291.6 0.3 L 293.2 5.6 L 291.9 5.6 L 291.6 4.5 L 289.8 4.5 L 289.5 5.6 L 288.4 5.6 L 290.1 0.3 L 291.6 0.3 Z M 290.1 3.5 L 291.3 3.5 L 290.7 1.6 L 290.1 3.5 Z M 297.7 3.6 L 297.7 5.6 L 296.5 5.6 L 296.5 0.3 C 296.5 0.3 298.56 0.27 298.6 0.3 C 299 0.3 299.4 0.3 299.6 0.4 C 299.9 0.5 300.1 0.7 300.3 1 C 300.5 1.2 300.6 1.5 300.6 1.9 C 300.6 2.2 300.5 2.4 300.4 2.7 C 300.3 2.9 300.2 3.1 300 3.3 C 299.8 3.4 299.6 3.5 299.4 3.6 C 299.3 3.6 299 3.6 298.6 3.6 C 298.6 3.62 297.7 3.6 297.7 3.6 Z M 297.7 2.7 C 297.7 2.7 298.5 2.65 298.5 2.7 C 298.8 2.7 299 2.6 299.1 2.4 C 299.3 2.3 299.3 2.1 299.3 1.9 C 299.3 1.7 299.3 1.6 299.1 1.4 C 299 1.3 298.8 1.2 298.5 1.2 C 298.49 1.24 297.7 1.2 297.7 1.2 L 297.7 2.7 Z M 303.9 0.3 L 305.6 5.6 L 304.2 5.6 L 303.9 4.5 L 302.2 4.5 L 301.8 5.6 L 300.7 5.6 L 302.5 0.3 L 303.9 0.3 Z M 302.5 3.5 L 303.6 3.5 L 303 1.6 L 302.5 3.5 Z M 308.1 0.2 C 309.2 0.2 309.9 0.6 310.2 1.4 C 310.2 1.4 309.1 1.8 309.1 1.8 C 308.9 1.4 308.6 1.2 308.2 1.2 C 307.7 1.2 307.4 1.3 307.4 1.6 C 307.4 1.8 307.5 1.9 307.6 2 C 307.7 2.1 307.9 2.1 308.2 2.2 C 308.7 2.3 309.1 2.4 309.4 2.5 C 309.7 2.6 309.9 2.8 310 3.1 C 310.2 3.3 310.3 3.6 310.3 3.9 C 310.3 4.4 310.1 4.8 309.7 5.2 C 309.4 5.5 308.8 5.7 308.1 5.7 C 307.5 5.7 307.1 5.6 306.7 5.3 C 306.3 5.1 306.1 4.7 305.9 4.2 C 305.9 4.2 307.1 3.9 307.1 3.9 C 307.2 4.4 307.6 4.7 308.2 4.7 C 308.5 4.7 308.7 4.6 308.8 4.5 C 309 4.4 309 4.3 309 4.1 C 309 4 309 3.8 308.8 3.8 C 308.7 3.7 308.5 3.6 308.1 3.5 C 307.4 3.4 306.9 3.2 306.6 2.9 C 306.4 2.7 306.2 2.3 306.2 1.9 C 306.2 1.4 306.4 1 306.7 0.7 C 307.1 0.4 307.5 0.2 308.1 0.2 C 308.1 0.2 308.1 0.2 308.1 0.2 Z M 313.6 0.2 C 314.8 0.2 315.6 0.9 315.7 2.3 C 315.7 2.3 314.4 2.3 314.4 2.3 C 314.4 1.6 314.1 1.2 313.5 1.2 C 312.9 1.2 312.6 1.8 312.6 2.9 C 312.6 3.6 312.7 4.1 312.8 4.3 C 313 4.5 313.3 4.7 313.6 4.7 C 314.1 4.7 314.4 4.3 314.5 3.7 C 314.5 3.7 315.7 3.7 315.7 3.7 C 315.7 4.4 315.4 4.9 315 5.2 C 314.6 5.5 314.1 5.7 313.6 5.7 C 312.9 5.7 312.3 5.4 311.8 5 C 311.4 4.5 311.2 3.8 311.2 2.9 C 311.2 2.1 311.4 1.5 311.8 1 C 312.2 0.4 312.8 0.2 313.6 0.2 C 313.6 0.2 313.6 0.2 313.6 0.2 Z M 321 0.3 C 321 0.3 320.97 3.59 321 3.6 C 321 4.1 320.9 4.5 320.8 4.8 C 320.7 5 320.4 5.3 320.1 5.4 C 319.8 5.6 319.4 5.7 318.8 5.7 C 318.3 5.7 317.9 5.6 317.6 5.5 C 317.3 5.3 317.1 5.1 316.9 4.8 C 316.8 4.5 316.7 4.1 316.7 3.6 C 316.72 3.59 316.7 0.3 316.7 0.3 L 318.1 0.3 C 318.1 0.3 318.07 3.59 318.1 3.6 C 318.1 3.9 318.1 4.1 318.1 4.2 C 318.2 4.4 318.3 4.5 318.4 4.5 C 318.6 4.6 318.8 4.7 319 4.7 C 319.2 4.7 319.4 4.6 319.5 4.5 C 319.7 4.5 319.8 4.4 319.8 4.2 C 319.9 4.1 319.9 3.9 319.9 3.6 C 319.9 3.59 319.9 0.3 319.9 0.3 L 321 0.3 Z M 324.8 0.3 L 326.5 5.6 L 325.1 5.6 L 324.8 4.5 L 323.1 4.5 L 322.7 5.6 L 321.6 5.6 L 323.3 0.3 L 324.8 0.3 Z M 323.4 3.5 L 324.5 3.5 L 323.9 1.6 L 323.4 3.5 Z M 328.6 4.5 L 330.7 4.5 L 330.7 5.6 L 327.3 5.6 L 327.3 0.3 L 328.6 0.3 L 328.6 4.5 Z " stroke="none" fill="#000"/>
  </g>
</svg>