<?xml version="1.0" standalone="no"?>
<!DOCTYPE svg PUBLIC "-//W3C//DTD SVG 1.1//EN" "http://www.w3.org/Graphics/SVG/1.1/DTD/svg11.dtd">
<svg xmlns="http://www.w3.org/2000/svg" version="1.1" width="130.2px" height="18px" viewBox="0 -3 130.2 18" style="top:-3px">
  <desc>Dibuho ni John David Golenia</desc>
  <defs/>
  <g id="Polygon33533">
    <path d="M 1.3 7.9 C 1.3 7.9 2.74 7.86 2.7 7.9 C 3.1 7.9 3.3 7.8 3.6 7.7 C 3.8 7.6 4 7.4 4.2 7.3 C 4.4 7.1 4.5 6.9 4.6 6.7 C 4.8 6.5 4.9 6.3 4.9 6.1 C 5 5.8 5 5.7 5.1 5.5 C 5.1 5.3 5.1 5.1 5.1 5 C 5.1 4.5 5 4 4.7 3.7 C 4.5 3.4 4.1 3.3 3.7 3.3 C 3.7 3.27 2.3 3.3 2.3 3.3 L 1.3 7.9 Z M 1.4 2.3 C 1.4 2.3 3.72 2.35 3.7 2.3 C 4.5 2.3 5.2 2.6 5.6 3 C 6 3.5 6.2 4.1 6.2 5 C 6.2 5.2 6.2 5.4 6.2 5.7 C 6.1 5.9 6.1 6.2 6 6.4 C 5.9 6.6 5.8 6.9 5.7 7.1 C 5.5 7.3 5.4 7.5 5.2 7.7 C 5 7.9 4.8 8 4.7 8.2 C 4.5 8.3 4.3 8.4 4.1 8.5 C 3.8 8.6 3.6 8.7 3.3 8.7 C 3 8.8 2.7 8.8 2.3 8.8 C 2.27 8.77 0 8.8 0 8.8 L 1.4 2.3 Z M 7.8 2.3 L 8.8 2.3 L 8.6 3.3 L 7.6 3.3 L 7.8 2.3 Z M 7.4 4.1 L 8.5 4.1 L 7.5 8.8 L 6.5 8.8 L 7.4 4.1 Z M 10.1 2.3 L 11.1 2.3 L 10.6 4.7 C 10.6 4.7 10.64 4.67 10.6 4.7 C 11 4.2 11.5 4 12.1 4 C 12.3 4 12.6 4 12.8 4.1 C 13 4.2 13.2 4.4 13.3 4.5 C 13.5 4.7 13.6 4.9 13.7 5.1 C 13.8 5.4 13.8 5.6 13.8 5.9 C 13.8 6.3 13.8 6.6 13.7 7 C 13.6 7.4 13.4 7.7 13.2 8 C 13 8.2 12.7 8.5 12.4 8.6 C 12.1 8.8 11.8 8.9 11.4 8.9 C 11 8.9 10.7 8.8 10.4 8.7 C 10.2 8.6 10 8.3 9.8 8 C 9.83 7.99 9.8 8 9.8 8 L 9.7 8.8 L 8.7 8.8 L 10.1 2.3 Z M 11.7 4.8 C 11.4 4.8 11.2 4.9 11 5 C 10.8 5.1 10.7 5.3 10.5 5.5 C 10.4 5.7 10.3 5.9 10.2 6.2 C 10.2 6.4 10.2 6.7 10.2 6.9 C 10.2 7.3 10.2 7.6 10.4 7.8 C 10.6 8 10.9 8.1 11.2 8.1 C 11.5 8.1 11.7 8 11.9 7.9 C 12.1 7.8 12.3 7.6 12.4 7.4 C 12.5 7.2 12.6 7 12.7 6.7 C 12.7 6.5 12.8 6.2 12.8 6 C 12.8 5.6 12.7 5.3 12.5 5.1 C 12.3 4.9 12.1 4.8 11.7 4.8 Z M 18.4 8.8 L 17.4 8.8 L 17.6 8.1 C 17.6 8.1 17.55 8.08 17.5 8.1 C 17.4 8.3 17.1 8.5 16.9 8.7 C 16.6 8.8 16.3 8.9 15.9 8.9 C 15.5 8.9 15.1 8.8 14.9 8.6 C 14.7 8.3 14.6 8 14.6 7.7 C 14.6 7.6 14.6 7.5 14.6 7.4 C 14.6 7.3 14.6 7.2 14.6 7.1 C 14.63 7.09 15.3 4.1 15.3 4.1 L 16.3 4.1 C 16.3 4.1 15.69 6.99 15.7 7 C 15.7 7.1 15.7 7.1 15.6 7.2 C 15.6 7.3 15.6 7.4 15.6 7.4 C 15.6 7.5 15.6 7.5 15.6 7.6 C 15.6 7.7 15.6 7.7 15.7 7.8 C 15.7 7.9 15.8 8 15.9 8 C 16 8.1 16.1 8.1 16.3 8.1 C 16.5 8.1 16.7 8 16.9 8 C 17 7.9 17.2 7.8 17.3 7.6 C 17.4 7.5 17.5 7.3 17.6 7.2 C 17.7 7 17.8 6.8 17.8 6.6 C 17.8 6.64 18.3 4.1 18.3 4.1 L 19.3 4.1 L 18.4 8.8 Z M 20.9 2.3 L 21.9 2.3 L 21.4 4.8 C 21.4 4.8 21.46 4.78 21.5 4.8 C 21.6 4.5 21.9 4.4 22.1 4.2 C 22.4 4.1 22.7 4 23 4 C 23.5 4 23.8 4.1 24 4.3 C 24.2 4.6 24.3 4.9 24.3 5.2 C 24.3 5.3 24.3 5.4 24.3 5.5 C 24.3 5.6 24.3 5.7 24.3 5.8 C 24.3 5.8 23.7 8.8 23.7 8.8 L 22.7 8.8 C 22.7 8.8 23.25 5.9 23.2 5.9 C 23.3 5.8 23.3 5.8 23.3 5.7 C 23.3 5.6 23.3 5.5 23.3 5.5 C 23.3 5.4 23.3 5.4 23.3 5.3 C 23.3 5.2 23.3 5.2 23.2 5.1 C 23.2 5 23.1 4.9 23 4.9 C 22.9 4.8 22.8 4.8 22.6 4.8 C 22.4 4.8 22.2 4.8 22.1 4.9 C 21.9 5 21.8 5.1 21.6 5.3 C 21.5 5.4 21.4 5.5 21.3 5.7 C 21.2 5.9 21.2 6.1 21.1 6.3 C 21.13 6.25 20.6 8.8 20.6 8.8 L 19.6 8.8 L 20.9 2.3 Z M 27.6 4.8 C 27.4 4.8 27.2 4.9 27 5 C 26.8 5.1 26.6 5.3 26.5 5.5 C 26.3 5.7 26.2 5.9 26.2 6.2 C 26.1 6.4 26.1 6.7 26.1 6.9 C 26.1 7.2 26.2 7.5 26.3 7.7 C 26.5 8 26.8 8.1 27.2 8.1 C 27.4 8.1 27.6 8 27.8 7.9 C 28 7.8 28.2 7.6 28.3 7.4 C 28.5 7.2 28.6 7 28.6 6.7 C 28.7 6.5 28.7 6.2 28.7 6 C 28.7 5.7 28.6 5.4 28.5 5.1 C 28.3 4.9 28 4.8 27.6 4.8 Z M 27.1 8.9 C 26.4 8.9 25.9 8.7 25.6 8.4 C 25.2 8 25.1 7.5 25.1 6.9 C 25.1 6.5 25.1 6.1 25.2 5.8 C 25.4 5.4 25.5 5.1 25.8 4.9 C 26 4.6 26.3 4.4 26.6 4.2 C 26.9 4.1 27.3 4 27.7 4 C 28.4 4 28.9 4.2 29.2 4.5 C 29.6 4.8 29.7 5.3 29.7 6 C 29.7 6.4 29.7 6.8 29.6 7.1 C 29.4 7.5 29.3 7.8 29 8.1 C 28.8 8.3 28.5 8.5 28.2 8.7 C 27.9 8.8 27.5 8.9 27.1 8.9 Z M 33.8 4.1 L 34.8 4.1 L 34.6 4.8 C 34.6 4.8 34.66 4.81 34.7 4.8 C 34.8 4.6 35.1 4.4 35.4 4.2 C 35.6 4.1 35.9 4 36.3 4 C 36.7 4 37.1 4.1 37.3 4.3 C 37.5 4.6 37.6 4.9 37.6 5.2 C 37.6 5.3 37.6 5.4 37.6 5.5 C 37.6 5.6 37.6 5.7 37.6 5.8 C 37.57 5.8 37 8.8 37 8.8 L 35.9 8.8 C 35.9 8.8 36.52 5.9 36.5 5.9 C 36.5 5.8 36.6 5.8 36.6 5.7 C 36.6 5.6 36.6 5.5 36.6 5.5 C 36.6 5.4 36.6 5.4 36.6 5.3 C 36.6 5.2 36.6 5.2 36.5 5.1 C 36.5 5 36.4 4.9 36.3 4.9 C 36.2 4.8 36.1 4.8 35.9 4.8 C 35.7 4.8 35.5 4.8 35.3 4.9 C 35.2 5 35 5.1 34.9 5.3 C 34.8 5.4 34.7 5.5 34.6 5.7 C 34.5 5.9 34.4 6.1 34.4 6.3 C 34.41 6.25 33.9 8.8 33.9 8.8 L 32.9 8.8 L 33.8 4.1 Z M 39.4 2.3 L 40.5 2.3 L 40.3 3.3 L 39.2 3.3 L 39.4 2.3 Z M 39.1 4.1 L 40.1 4.1 L 39.1 8.8 L 38.1 8.8 L 39.1 4.1 Z M 47 2.3 L 48.1 2.3 C 48.1 2.3 47.36 5.94 47.4 5.9 C 47.3 6 47.3 6.2 47.3 6.4 C 47.2 6.5 47.2 6.7 47.1 6.9 C 47.1 7.1 47 7.3 46.9 7.5 C 46.9 7.7 46.8 7.9 46.7 8 C 46.6 8.2 46.5 8.3 46.3 8.5 C 46.2 8.6 46.1 8.7 45.9 8.7 C 45.7 8.8 45.6 8.9 45.4 8.9 C 45.2 8.9 45.1 8.9 44.9 8.9 C 44.5 8.9 44.2 8.9 44 8.8 C 43.7 8.6 43.5 8.5 43.4 8.4 C 43.3 8.2 43.2 8 43.2 7.9 C 43.1 7.7 43.1 7.5 43.1 7.4 C 43.1 7.3 43.1 7.1 43.1 7 C 43.1 6.8 43.2 6.7 43.2 6.5 C 43.2 6.5 44.2 6.5 44.2 6.5 C 44.2 6.8 44.1 7 44.1 7.2 C 44.1 7.7 44.4 8 45 8 C 45.2 8 45.3 8 45.5 7.9 C 45.6 7.8 45.7 7.7 45.8 7.6 C 45.9 7.4 45.9 7.3 46 7.1 C 46 6.9 46.1 6.6 46.1 6.4 C 46.13 6.4 47 2.3 47 2.3 Z M 50.7 4.8 C 50.4 4.8 50.2 4.9 50 5 C 49.8 5.1 49.6 5.3 49.5 5.5 C 49.4 5.7 49.3 5.9 49.2 6.2 C 49.2 6.4 49.1 6.7 49.1 6.9 C 49.1 7.2 49.2 7.5 49.4 7.7 C 49.6 8 49.8 8.1 50.2 8.1 C 50.5 8.1 50.7 8 50.9 7.9 C 51.1 7.8 51.2 7.6 51.4 7.4 C 51.5 7.2 51.6 7 51.7 6.7 C 51.7 6.5 51.8 6.2 51.8 6 C 51.8 5.7 51.7 5.4 51.5 5.1 C 51.3 4.9 51.1 4.8 50.7 4.8 Z M 50.1 8.9 C 49.5 8.9 49 8.7 48.6 8.4 C 48.3 8 48.1 7.5 48.1 6.9 C 48.1 6.5 48.2 6.1 48.3 5.8 C 48.4 5.4 48.6 5.1 48.8 4.9 C 49.1 4.6 49.3 4.4 49.7 4.2 C 50 4.1 50.4 4 50.8 4 C 51.4 4 51.9 4.2 52.3 4.5 C 52.6 4.8 52.8 5.3 52.8 6 C 52.8 6.4 52.7 6.8 52.6 7.1 C 52.5 7.5 52.3 7.8 52.1 8.1 C 51.9 8.3 51.6 8.5 51.2 8.7 C 50.9 8.8 50.6 8.9 50.1 8.9 Z M 54.6 2.3 L 55.7 2.3 L 55.2 4.8 C 55.2 4.8 55.19 4.78 55.2 4.8 C 55.4 4.5 55.6 4.4 55.9 4.2 C 56.1 4.1 56.4 4 56.7 4 C 57.2 4 57.5 4.1 57.7 4.3 C 58 4.6 58.1 4.9 58.1 5.2 C 58.1 5.3 58.1 5.4 58.1 5.5 C 58.1 5.6 58 5.7 58 5.8 C 58.03 5.8 57.4 8.8 57.4 8.8 L 56.4 8.8 C 56.4 8.8 56.98 5.9 57 5.9 C 57 5.8 57 5.8 57 5.7 C 57 5.6 57.1 5.5 57.1 5.5 C 57.1 5.4 57 5.4 57 5.3 C 57 5.2 57 5.2 57 5.1 C 56.9 5 56.9 4.9 56.8 4.9 C 56.7 4.8 56.5 4.8 56.3 4.8 C 56.1 4.8 56 4.8 55.8 4.9 C 55.6 5 55.5 5.1 55.4 5.3 C 55.2 5.4 55.1 5.5 55.1 5.7 C 55 5.9 54.9 6.1 54.9 6.3 C 54.86 6.25 54.3 8.8 54.3 8.8 L 53.3 8.8 L 54.6 2.3 Z M 59.5 4.1 L 60.5 4.1 L 60.4 4.8 C 60.4 4.8 60.37 4.81 60.4 4.8 C 60.6 4.6 60.8 4.4 61.1 4.2 C 61.3 4.1 61.6 4 62 4 C 62.4 4 62.8 4.1 63 4.3 C 63.2 4.6 63.3 4.9 63.3 5.2 C 63.3 5.3 63.3 5.4 63.3 5.5 C 63.3 5.6 63.3 5.7 63.3 5.8 C 63.29 5.8 62.7 8.8 62.7 8.8 L 61.6 8.8 C 61.6 8.8 62.23 5.9 62.2 5.9 C 62.3 5.8 62.3 5.8 62.3 5.7 C 62.3 5.6 62.3 5.5 62.3 5.5 C 62.3 5.4 62.3 5.4 62.3 5.3 C 62.3 5.2 62.3 5.2 62.2 5.1 C 62.2 5 62.1 4.9 62 4.9 C 61.9 4.8 61.8 4.8 61.6 4.8 C 61.4 4.8 61.2 4.8 61.1 4.9 C 60.9 5 60.7 5.1 60.6 5.3 C 60.5 5.4 60.4 5.5 60.3 5.7 C 60.2 5.9 60.2 6.1 60.1 6.3 C 60.12 6.25 59.6 8.8 59.6 8.8 L 58.6 8.8 L 59.5 4.1 Z M 67.9 7.9 C 67.9 7.9 69.26 7.86 69.3 7.9 C 69.6 7.9 69.9 7.8 70.1 7.7 C 70.4 7.6 70.6 7.4 70.7 7.3 C 70.9 7.1 71.1 6.9 71.2 6.7 C 71.3 6.5 71.4 6.3 71.5 6.1 C 71.5 5.8 71.6 5.7 71.6 5.5 C 71.6 5.3 71.6 5.1 71.6 5 C 71.6 4.5 71.5 4 71.3 3.7 C 71 3.4 70.7 3.3 70.2 3.3 C 70.23 3.27 68.8 3.3 68.8 3.3 L 67.9 7.9 Z M 67.9 2.3 C 67.9 2.3 70.24 2.35 70.2 2.3 C 71.1 2.3 71.7 2.6 72.1 3 C 72.6 3.5 72.8 4.1 72.8 5 C 72.8 5.2 72.7 5.4 72.7 5.7 C 72.7 5.9 72.6 6.2 72.5 6.4 C 72.4 6.6 72.3 6.9 72.2 7.1 C 72.1 7.3 71.9 7.5 71.7 7.7 C 71.6 7.9 71.4 8 71.2 8.2 C 71 8.3 70.8 8.4 70.6 8.5 C 70.4 8.6 70.1 8.7 69.8 8.7 C 69.5 8.8 69.2 8.8 68.8 8.8 C 68.79 8.77 66.5 8.8 66.5 8.8 L 67.9 2.3 Z M 74.1 7.5 C 74.1 7.6 74.1 7.7 74.1 7.8 C 74.2 7.9 74.3 7.9 74.3 8 C 74.4 8 74.5 8 74.6 8.1 C 74.7 8.1 74.8 8.1 74.9 8.1 C 75.1 8.1 75.3 8 75.5 8 C 75.7 7.9 75.8 7.8 75.9 7.6 C 76 7.5 76.1 7.3 76.2 7.1 C 76.3 6.9 76.3 6.7 76.3 6.5 C 76.3 6.5 76.3 6.5 76.3 6.5 C 76.3 6.5 76.2 6.6 76 6.6 C 75.9 6.7 75.8 6.7 75.7 6.7 C 75.5 6.7 75.4 6.7 75.2 6.7 C 75 6.7 74.8 6.8 74.7 6.8 C 74.5 6.9 74.4 6.9 74.2 7.1 C 74.1 7.2 74.1 7.3 74.1 7.5 Z M 77.1 7.4 C 77.1 7.5 77.1 7.6 77.1 7.7 C 77.1 7.7 77.1 7.8 77.1 7.9 C 77.1 8 77.1 8 77.1 8 C 77.1 8.1 77.2 8.1 77.3 8.1 C 77.3 8.1 77.4 8.1 77.5 8.1 C 77.5 8.1 77.6 8 77.6 8 C 77.6 8 77.5 8.8 77.5 8.8 C 77.3 8.8 77.2 8.8 77.1 8.9 C 76.9 8.9 76.8 8.9 76.7 8.9 C 76.5 8.9 76.4 8.8 76.2 8.7 C 76.1 8.6 76.1 8.5 76 8.3 C 75.8 8.5 75.6 8.7 75.3 8.8 C 75.1 8.9 74.8 8.9 74.5 8.9 C 74.3 8.9 74.1 8.9 73.9 8.8 C 73.8 8.8 73.6 8.7 73.5 8.6 C 73.3 8.5 73.2 8.4 73.2 8.2 C 73.1 8 73 7.9 73 7.7 C 73 7.4 73.1 7.1 73.2 6.9 C 73.3 6.7 73.4 6.6 73.6 6.5 C 73.8 6.3 74 6.2 74.2 6.2 C 74.5 6.1 74.7 6.1 75 6.1 C 75.3 6 75.7 6 76 6 C 76.2 6 76.3 5.9 76.4 5.8 C 76.5 5.7 76.6 5.5 76.6 5.4 C 76.6 5.1 76.5 5 76.3 4.9 C 76.2 4.8 76 4.8 75.8 4.8 C 75.5 4.8 75.2 4.9 75 5 C 74.8 5.1 74.7 5.2 74.6 5.5 C 74.6 5.5 73.6 5.5 73.6 5.5 C 73.7 5.2 73.8 5 73.9 4.8 C 74 4.6 74.2 4.5 74.4 4.3 C 74.6 4.2 74.8 4.1 75.1 4.1 C 75.3 4 75.6 4 75.8 4 C 76.3 4 76.6 4 76.8 4.1 C 77.1 4.2 77.2 4.3 77.3 4.4 C 77.5 4.5 77.5 4.6 77.5 4.8 C 77.6 4.9 77.6 5 77.6 5.1 C 77.6 5.3 77.5 5.5 77.5 5.8 C 77.5 5.8 77.1 7.4 77.1 7.4 Z M 78.5 4.1 L 79.6 4.1 L 80 7.5 L 80 7.5 L 81.8 4.1 L 82.9 4.1 L 80.3 8.8 L 79.1 8.8 L 78.5 4.1 Z M 84 2.3 L 85 2.3 L 84.8 3.3 L 83.8 3.3 L 84 2.3 Z M 83.7 4.1 L 84.7 4.1 L 83.7 8.8 L 82.7 8.8 L 83.7 4.1 Z M 89.3 8.8 L 88.3 8.8 L 88.4 8.1 C 88.4 8.1 88.41 8.13 88.4 8.1 C 88.2 8.4 88 8.6 87.7 8.7 C 87.5 8.8 87.2 8.9 87 8.9 C 86.8 8.9 86.7 8.9 86.5 8.8 C 86.2 8.8 86 8.7 85.9 8.6 C 85.7 8.5 85.5 8.3 85.4 8 C 85.2 7.8 85.1 7.4 85.1 7 C 85.1 6.6 85.2 6.2 85.3 5.9 C 85.4 5.5 85.6 5.2 85.8 4.9 C 86 4.6 86.3 4.4 86.6 4.3 C 86.9 4.1 87.3 4 87.7 4 C 88 4 88.3 4.1 88.5 4.2 C 88.8 4.3 89 4.5 89.1 4.8 C 89.08 4.76 89.1 4.8 89.1 4.8 L 89.6 2.3 L 90.6 2.3 L 89.3 8.8 Z M 88.8 5.9 C 88.8 5.8 88.8 5.6 88.8 5.5 C 88.7 5.4 88.7 5.2 88.6 5.1 C 88.5 5 88.4 5 88.3 4.9 C 88.1 4.8 88 4.8 87.8 4.8 C 87.5 4.8 87.3 4.9 87.1 5 C 86.9 5.1 86.7 5.3 86.6 5.5 C 86.4 5.7 86.3 6 86.3 6.2 C 86.2 6.5 86.2 6.7 86.2 7 C 86.2 7.3 86.3 7.6 86.4 7.8 C 86.6 8 86.9 8.1 87.2 8.1 C 87.5 8.1 87.7 8 87.9 7.9 C 88.1 7.7 88.3 7.6 88.4 7.4 C 88.6 7.1 88.7 6.9 88.7 6.7 C 88.8 6.4 88.8 6.2 88.8 5.9 Z M 98.8 8.8 L 98.1 8.8 L 98.1 8.1 C 98.1 8.1 98.08 8.1 98.1 8.1 C 98 8.2 97.8 8.4 97.7 8.5 C 97.6 8.6 97.4 8.7 97.3 8.7 C 97.1 8.8 97 8.8 96.8 8.9 C 96.6 8.9 96.5 8.9 96.4 8.9 C 95.9 8.9 95.5 8.9 95.1 8.7 C 94.8 8.6 94.5 8.4 94.3 8.1 C 94 7.9 93.8 7.6 93.7 7.2 C 93.6 6.9 93.5 6.5 93.5 6.1 C 93.5 5.4 93.6 4.9 93.8 4.4 C 94 3.9 94.3 3.5 94.6 3.1 C 94.9 2.8 95.3 2.6 95.7 2.4 C 96.1 2.3 96.5 2.2 97 2.2 C 97.3 2.2 97.7 2.2 98 2.3 C 98.3 2.4 98.6 2.6 98.9 2.7 C 99.1 2.9 99.3 3.1 99.4 3.4 C 99.6 3.7 99.6 4 99.6 4.4 C 99.6 4.4 98.5 4.4 98.5 4.4 C 98.5 4 98.3 3.6 98.1 3.4 C 97.8 3.2 97.4 3.1 96.9 3.1 C 96.5 3.1 96.2 3.2 95.9 3.4 C 95.6 3.5 95.4 3.8 95.2 4.1 C 95 4.3 94.9 4.7 94.8 5 C 94.7 5.4 94.6 5.7 94.6 6.1 C 94.6 6.7 94.8 7.2 95.1 7.5 C 95.4 7.8 95.8 8 96.4 8 C 96.7 8 96.9 8 97.1 7.9 C 97.4 7.8 97.5 7.7 97.7 7.5 C 97.9 7.4 98 7.2 98.1 7 C 98.2 6.7 98.3 6.5 98.4 6.2 C 98.36 6.25 96.6 6.2 96.6 6.2 L 96.8 5.4 L 99.5 5.4 L 98.8 8.8 Z M 102.9 4.8 C 102.6 4.8 102.4 4.9 102.2 5 C 102 5.1 101.8 5.3 101.7 5.5 C 101.5 5.7 101.5 5.9 101.4 6.2 C 101.3 6.4 101.3 6.7 101.3 6.9 C 101.3 7.2 101.4 7.5 101.6 7.7 C 101.7 8 102 8.1 102.4 8.1 C 102.6 8.1 102.9 8 103.1 7.9 C 103.2 7.8 103.4 7.6 103.5 7.4 C 103.7 7.2 103.8 7 103.8 6.7 C 103.9 6.5 103.9 6.2 103.9 6 C 103.9 5.7 103.8 5.4 103.7 5.1 C 103.5 4.9 103.2 4.8 102.9 4.8 Z M 102.3 8.9 C 101.7 8.9 101.2 8.7 100.8 8.4 C 100.4 8 100.3 7.5 100.3 6.9 C 100.3 6.5 100.3 6.1 100.5 5.8 C 100.6 5.4 100.8 5.1 101 4.9 C 101.2 4.6 101.5 4.4 101.8 4.2 C 102.2 4.1 102.5 4 102.9 4 C 103.6 4 104.1 4.2 104.4 4.5 C 104.8 4.8 105 5.3 105 6 C 105 6.4 104.9 6.8 104.8 7.1 C 104.7 7.5 104.5 7.8 104.3 8.1 C 104 8.3 103.7 8.5 103.4 8.7 C 103.1 8.8 102.7 8.9 102.3 8.9 Z M 106.8 2.3 L 107.8 2.3 L 106.5 8.8 L 105.5 8.8 L 106.8 2.3 Z M 111.5 6 C 111.5 6 111.5 6 111.5 6 C 111.5 5.9 111.5 5.9 111.5 5.9 C 111.5 5.9 111.5 5.8 111.5 5.8 C 111.5 5.5 111.4 5.2 111.2 5.1 C 111 4.9 110.8 4.8 110.5 4.8 C 110.1 4.8 109.8 4.9 109.6 5.2 C 109.3 5.4 109.2 5.7 109.1 6 C 109.1 6 111.5 6 111.5 6 Z M 112.2 7.3 C 112 7.9 111.8 8.3 111.4 8.5 C 111 8.8 110.5 8.9 110 8.9 C 109.7 8.9 109.4 8.9 109.2 8.8 C 108.9 8.7 108.7 8.5 108.5 8.4 C 108.3 8.2 108.2 8 108.1 7.7 C 108 7.5 107.9 7.2 107.9 6.9 C 107.9 6.5 108 6.2 108.1 5.8 C 108.2 5.5 108.4 5.2 108.6 4.9 C 108.8 4.6 109.1 4.4 109.4 4.2 C 109.7 4.1 110.1 4 110.5 4 C 110.9 4 111.3 4.1 111.5 4.2 C 111.8 4.3 112 4.5 112.1 4.7 C 112.3 4.9 112.4 5.2 112.4 5.4 C 112.5 5.7 112.5 5.9 112.5 6.1 C 112.5 6.3 112.5 6.4 112.5 6.5 C 112.5 6.5 112.5 6.6 112.4 6.7 C 112.4 6.7 109 6.7 109 6.7 C 109 6.7 109 6.8 109 6.8 C 109 6.8 109 6.8 109 6.9 C 109 6.9 109 7 109 7 C 109 7.3 109 7.6 109.2 7.8 C 109.4 8 109.7 8.1 110.1 8.1 C 110.3 8.1 110.6 8 110.8 7.9 C 111 7.8 111.1 7.6 111.2 7.3 C 111.2 7.3 112.2 7.3 112.2 7.3 Z M 113.8 4.1 L 114.8 4.1 L 114.6 4.8 C 114.6 4.8 114.63 4.81 114.6 4.8 C 114.8 4.6 115 4.4 115.3 4.2 C 115.6 4.1 115.9 4 116.2 4 C 116.7 4 117 4.1 117.3 4.3 C 117.5 4.6 117.6 4.9 117.6 5.2 C 117.6 5.3 117.6 5.4 117.6 5.5 C 117.6 5.6 117.6 5.7 117.5 5.8 C 117.55 5.8 116.9 8.8 116.9 8.8 L 115.9 8.8 C 115.9 8.8 116.49 5.9 116.5 5.9 C 116.5 5.8 116.5 5.8 116.5 5.7 C 116.6 5.6 116.6 5.5 116.6 5.5 C 116.6 5.4 116.6 5.4 116.6 5.3 C 116.6 5.2 116.5 5.2 116.5 5.1 C 116.5 5 116.4 4.9 116.3 4.9 C 116.2 4.8 116 4.8 115.9 4.8 C 115.7 4.8 115.5 4.8 115.3 4.9 C 115.2 5 115 5.1 114.9 5.3 C 114.8 5.4 114.7 5.5 114.6 5.7 C 114.5 5.9 114.4 6.1 114.4 6.3 C 114.38 6.25 113.9 8.8 113.9 8.8 L 112.8 8.8 L 113.8 4.1 Z M 119.4 2.3 L 120.4 2.3 L 120.2 3.3 L 119.2 3.3 L 119.4 2.3 Z M 119.1 4.1 L 120.1 4.1 L 119.1 8.8 L 118.1 8.8 L 119.1 4.1 Z M 121.4 7.5 C 121.4 7.6 121.4 7.7 121.5 7.8 C 121.5 7.9 121.6 7.9 121.7 8 C 121.7 8 121.8 8 121.9 8.1 C 122 8.1 122.1 8.1 122.2 8.1 C 122.5 8.1 122.7 8 122.9 8 C 123 7.9 123.2 7.8 123.3 7.6 C 123.4 7.5 123.5 7.3 123.5 7.1 C 123.6 6.9 123.6 6.7 123.7 6.5 C 123.7 6.5 123.7 6.5 123.7 6.5 C 123.6 6.5 123.5 6.6 123.4 6.6 C 123.3 6.7 123.1 6.7 123 6.7 C 122.9 6.7 122.7 6.7 122.5 6.7 C 122.3 6.7 122.2 6.8 122 6.8 C 121.8 6.9 121.7 6.9 121.6 7.1 C 121.5 7.2 121.4 7.3 121.4 7.5 Z M 124.5 7.4 C 124.5 7.5 124.4 7.6 124.4 7.7 C 124.4 7.7 124.4 7.8 124.4 7.9 C 124.4 8 124.4 8 124.4 8 C 124.5 8.1 124.5 8.1 124.6 8.1 C 124.7 8.1 124.7 8.1 124.8 8.1 C 124.9 8.1 124.9 8 125 8 C 125 8 124.8 8.8 124.8 8.8 C 124.7 8.8 124.5 8.8 124.4 8.9 C 124.3 8.9 124.1 8.9 124 8.9 C 123.8 8.9 123.7 8.8 123.6 8.7 C 123.5 8.6 123.4 8.5 123.4 8.3 C 123.2 8.5 122.9 8.7 122.7 8.8 C 122.4 8.9 122.1 8.9 121.8 8.9 C 121.6 8.9 121.4 8.9 121.3 8.8 C 121.1 8.8 120.9 8.7 120.8 8.6 C 120.7 8.5 120.6 8.4 120.5 8.2 C 120.4 8 120.4 7.9 120.4 7.7 C 120.4 7.4 120.4 7.1 120.5 6.9 C 120.6 6.7 120.8 6.6 121 6.5 C 121.1 6.3 121.4 6.2 121.6 6.2 C 121.8 6.1 122.1 6.1 122.3 6.1 C 122.7 6 123 6 123.4 6 C 123.5 6 123.7 5.9 123.8 5.8 C 123.8 5.7 123.9 5.5 123.9 5.4 C 123.9 5.1 123.8 5 123.7 4.9 C 123.5 4.8 123.3 4.8 123.1 4.8 C 122.8 4.8 122.6 4.9 122.4 5 C 122.2 5.1 122 5.2 121.9 5.5 C 121.9 5.5 121 5.5 121 5.5 C 121 5.2 121.1 5 121.3 4.8 C 121.4 4.6 121.5 4.5 121.7 4.3 C 121.9 4.2 122.2 4.1 122.4 4.1 C 122.6 4 122.9 4 123.2 4 C 123.6 4 123.9 4 124.2 4.1 C 124.4 4.2 124.6 4.3 124.7 4.4 C 124.8 4.5 124.9 4.6 124.9 4.8 C 124.9 4.9 124.9 5 124.9 5.1 C 124.9 5.3 124.9 5.5 124.8 5.8 C 124.8 5.8 124.5 7.4 124.5 7.4 Z " stroke="none" fill="#fff"/>
  </g>
</svg>