<?xml version="1.0" standalone="no"?>
<!DOCTYPE svg PUBLIC "-//W3C//DTD SVG 1.1//EN" "http://www.w3.org/Graphics/SVG/1.1/DTD/svg11.dtd">
<svg xmlns="http://www.w3.org/2000/svg" version="1.1" width="163.1px" height="18px" viewBox="0 -3 163.1 18" style="top:-3px">
  <desc>Dibuho ni Felisano Liam Miguel Manalo</desc>
  <defs/>
  <g id="Polygon29316">
    <path d="M 1.3 7.9 C 1.3 7.9 2.74 7.86 2.7 7.9 C 3.1 7.9 3.3 7.8 3.6 7.7 C 3.8 7.6 4 7.4 4.2 7.3 C 4.4 7.1 4.5 6.9 4.6 6.7 C 4.8 6.5 4.9 6.3 4.9 6.1 C 5 5.8 5 5.7 5.1 5.5 C 5.1 5.3 5.1 5.1 5.1 5 C 5.1 4.5 5 4 4.7 3.7 C 4.5 3.4 4.1 3.3 3.7 3.3 C 3.7 3.27 2.3 3.3 2.3 3.3 L 1.3 7.9 Z M 1.4 2.3 C 1.4 2.3 3.72 2.35 3.7 2.3 C 4.5 2.3 5.2 2.6 5.6 3 C 6 3.5 6.2 4.1 6.2 5 C 6.2 5.2 6.2 5.4 6.2 5.7 C 6.1 5.9 6.1 6.2 6 6.4 C 5.9 6.6 5.8 6.9 5.7 7.1 C 5.5 7.3 5.4 7.5 5.2 7.7 C 5 7.9 4.8 8 4.7 8.2 C 4.5 8.3 4.3 8.4 4.1 8.5 C 3.8 8.6 3.6 8.7 3.3 8.7 C 3 8.8 2.7 8.8 2.3 8.8 C 2.27 8.77 0 8.8 0 8.8 L 1.4 2.3 Z M 7.8 2.3 L 8.8 2.3 L 8.6 3.3 L 7.6 3.3 L 7.8 2.3 Z M 7.4 4.1 L 8.5 4.1 L 7.5 8.8 L 6.5 8.8 L 7.4 4.1 Z M 10.1 2.3 L 11.1 2.3 L 10.6 4.7 C 10.6 4.7 10.64 4.67 10.6 4.7 C 11 4.2 11.5 4 12.1 4 C 12.3 4 12.6 4 12.8 4.1 C 13 4.2 13.2 4.4 13.3 4.5 C 13.5 4.7 13.6 4.9 13.7 5.1 C 13.8 5.4 13.8 5.6 13.8 5.9 C 13.8 6.3 13.8 6.6 13.7 7 C 13.6 7.4 13.4 7.7 13.2 8 C 13 8.2 12.7 8.5 12.4 8.6 C 12.1 8.8 11.8 8.9 11.4 8.9 C 11 8.9 10.7 8.8 10.4 8.7 C 10.2 8.6 10 8.3 9.8 8 C 9.83 7.99 9.8 8 9.8 8 L 9.7 8.8 L 8.7 8.8 L 10.1 2.3 Z M 11.7 4.8 C 11.4 4.8 11.2 4.9 11 5 C 10.8 5.1 10.7 5.3 10.5 5.5 C 10.4 5.7 10.3 5.9 10.2 6.2 C 10.2 6.4 10.2 6.7 10.2 6.9 C 10.2 7.3 10.2 7.6 10.4 7.8 C 10.6 8 10.9 8.1 11.2 8.1 C 11.5 8.1 11.7 8 11.9 7.9 C 12.1 7.8 12.3 7.6 12.4 7.4 C 12.5 7.2 12.6 7 12.7 6.7 C 12.7 6.5 12.8 6.2 12.8 6 C 12.8 5.6 12.7 5.3 12.5 5.1 C 12.3 4.9 12.1 4.8 11.7 4.8 Z M 18.4 8.8 L 17.4 8.8 L 17.6 8.1 C 17.6 8.1 17.55 8.08 17.5 8.1 C 17.4 8.3 17.1 8.5 16.9 8.7 C 16.6 8.8 16.3 8.9 15.9 8.9 C 15.5 8.9 15.1 8.8 14.9 8.6 C 14.7 8.3 14.6 8 14.6 7.7 C 14.6 7.6 14.6 7.5 14.6 7.4 C 14.6 7.3 14.6 7.2 14.6 7.1 C 14.63 7.09 15.3 4.1 15.3 4.1 L 16.3 4.1 C 16.3 4.1 15.69 6.99 15.7 7 C 15.7 7.1 15.7 7.1 15.6 7.2 C 15.6 7.3 15.6 7.4 15.6 7.4 C 15.6 7.5 15.6 7.5 15.6 7.6 C 15.6 7.7 15.6 7.7 15.7 7.8 C 15.7 7.9 15.8 8 15.9 8 C 16 8.1 16.1 8.1 16.3 8.1 C 16.5 8.1 16.7 8 16.9 8 C 17 7.9 17.2 7.8 17.3 7.6 C 17.4 7.5 17.5 7.3 17.6 7.2 C 17.7 7 17.8 6.8 17.8 6.6 C 17.8 6.64 18.3 4.1 18.3 4.1 L 19.3 4.1 L 18.4 8.8 Z M 20.9 2.3 L 21.9 2.3 L 21.4 4.8 C 21.4 4.8 21.46 4.78 21.5 4.8 C 21.6 4.5 21.9 4.4 22.1 4.2 C 22.4 4.1 22.7 4 23 4 C 23.5 4 23.8 4.1 24 4.3 C 24.2 4.6 24.3 4.9 24.3 5.2 C 24.3 5.3 24.3 5.4 24.3 5.5 C 24.3 5.6 24.3 5.7 24.3 5.8 C 24.3 5.8 23.7 8.8 23.7 8.8 L 22.7 8.8 C 22.7 8.8 23.25 5.9 23.2 5.9 C 23.3 5.8 23.3 5.8 23.3 5.7 C 23.3 5.6 23.3 5.5 23.3 5.5 C 23.3 5.4 23.3 5.4 23.3 5.3 C 23.3 5.2 23.3 5.2 23.2 5.1 C 23.2 5 23.1 4.9 23 4.9 C 22.9 4.8 22.8 4.8 22.6 4.8 C 22.4 4.8 22.2 4.8 22.1 4.9 C 21.9 5 21.8 5.1 21.6 5.3 C 21.5 5.4 21.4 5.5 21.3 5.7 C 21.2 5.9 21.2 6.1 21.1 6.3 C 21.13 6.25 20.6 8.8 20.6 8.8 L 19.6 8.8 L 20.9 2.3 Z M 27.6 4.8 C 27.4 4.8 27.2 4.9 27 5 C 26.8 5.1 26.6 5.3 26.5 5.5 C 26.3 5.7 26.2 5.9 26.2 6.2 C 26.1 6.4 26.1 6.7 26.1 6.9 C 26.1 7.2 26.2 7.5 26.3 7.7 C 26.5 8 26.8 8.1 27.2 8.1 C 27.4 8.1 27.6 8 27.8 7.9 C 28 7.8 28.2 7.6 28.3 7.4 C 28.5 7.2 28.6 7 28.6 6.7 C 28.7 6.5 28.7 6.2 28.7 6 C 28.7 5.7 28.6 5.4 28.5 5.1 C 28.3 4.9 28 4.8 27.6 4.8 Z M 27.1 8.9 C 26.4 8.9 25.9 8.7 25.6 8.4 C 25.2 8 25.1 7.5 25.1 6.9 C 25.1 6.5 25.1 6.1 25.2 5.8 C 25.4 5.4 25.5 5.1 25.8 4.9 C 26 4.6 26.3 4.4 26.6 4.2 C 26.9 4.1 27.3 4 27.7 4 C 28.4 4 28.9 4.2 29.2 4.5 C 29.6 4.8 29.7 5.3 29.7 6 C 29.7 6.4 29.7 6.8 29.6 7.1 C 29.4 7.5 29.3 7.8 29 8.1 C 28.8 8.3 28.5 8.5 28.2 8.7 C 27.9 8.8 27.5 8.9 27.1 8.9 Z M 33.1 4.1 L 34.1 4.1 L 34 4.8 C 34 4.8 33.98 4.81 34 4.8 C 34.2 4.6 34.4 4.4 34.7 4.2 C 35 4.1 35.3 4 35.6 4 C 36.1 4 36.4 4.1 36.6 4.3 C 36.8 4.6 36.9 4.9 36.9 5.2 C 36.9 5.3 36.9 5.4 36.9 5.5 C 36.9 5.6 36.9 5.7 36.9 5.8 C 36.9 5.8 36.3 8.8 36.3 8.8 L 35.3 8.8 C 35.3 8.8 35.84 5.9 35.8 5.9 C 35.9 5.8 35.9 5.8 35.9 5.7 C 35.9 5.6 35.9 5.5 35.9 5.5 C 35.9 5.4 35.9 5.4 35.9 5.3 C 35.9 5.2 35.9 5.2 35.8 5.1 C 35.8 5 35.7 4.9 35.6 4.9 C 35.5 4.8 35.4 4.8 35.2 4.8 C 35 4.8 34.8 4.8 34.7 4.9 C 34.5 5 34.4 5.1 34.2 5.3 C 34.1 5.4 34 5.5 33.9 5.7 C 33.8 5.9 33.8 6.1 33.7 6.3 C 33.73 6.25 33.2 8.8 33.2 8.8 L 32.2 8.8 L 33.1 4.1 Z M 38.8 2.3 L 39.8 2.3 L 39.6 3.3 L 38.6 3.3 L 38.8 2.3 Z M 38.4 4.1 L 39.4 4.1 L 38.5 8.8 L 37.4 8.8 L 38.4 4.1 Z M 43.1 2.3 L 47.5 2.3 L 47.3 3.3 L 44 3.3 L 43.6 5 L 46.5 5 L 46.3 5.9 L 43.4 5.9 L 42.9 8.8 L 41.7 8.8 L 43.1 2.3 Z M 50.8 6 C 50.8 6 50.8 6 50.8 6 C 50.8 5.9 50.8 5.9 50.8 5.9 C 50.8 5.9 50.8 5.8 50.8 5.8 C 50.8 5.5 50.7 5.2 50.5 5.1 C 50.3 4.9 50.1 4.8 49.8 4.8 C 49.4 4.8 49.1 4.9 48.9 5.2 C 48.6 5.4 48.5 5.7 48.4 6 C 48.4 6 50.8 6 50.8 6 Z M 51.5 7.3 C 51.3 7.9 51.1 8.3 50.7 8.5 C 50.3 8.8 49.8 8.9 49.3 8.9 C 49 8.9 48.7 8.9 48.5 8.8 C 48.2 8.7 48 8.5 47.8 8.4 C 47.6 8.2 47.5 8 47.4 7.7 C 47.3 7.5 47.2 7.2 47.2 6.9 C 47.2 6.5 47.3 6.2 47.4 5.8 C 47.5 5.5 47.7 5.2 47.9 4.9 C 48.1 4.6 48.4 4.4 48.7 4.2 C 49 4.1 49.4 4 49.8 4 C 50.2 4 50.6 4.1 50.8 4.2 C 51.1 4.3 51.3 4.5 51.4 4.7 C 51.6 4.9 51.7 5.2 51.7 5.4 C 51.8 5.7 51.8 5.9 51.8 6.1 C 51.8 6.3 51.8 6.4 51.8 6.5 C 51.8 6.5 51.8 6.6 51.7 6.7 C 51.7 6.7 48.3 6.7 48.3 6.7 C 48.3 6.7 48.3 6.8 48.3 6.8 C 48.3 6.8 48.3 6.8 48.3 6.9 C 48.3 6.9 48.3 7 48.3 7 C 48.3 7.3 48.3 7.6 48.5 7.8 C 48.7 8 49 8.1 49.4 8.1 C 49.6 8.1 49.9 8 50.1 7.9 C 50.3 7.8 50.4 7.6 50.5 7.3 C 50.5 7.3 51.5 7.3 51.5 7.3 Z M 53.5 2.3 L 54.5 2.3 L 53.2 8.8 L 52.1 8.8 L 53.5 2.3 Z M 55.7 2.3 L 56.7 2.3 L 56.5 3.3 L 55.5 3.3 L 55.7 2.3 Z M 55.4 4.1 L 56.4 4.1 L 55.4 8.8 L 54.4 8.8 L 55.4 4.1 Z M 59.9 5.5 C 59.9 5.2 59.8 5.1 59.7 5 C 59.5 4.9 59.3 4.8 59 4.8 C 58.9 4.8 58.8 4.8 58.7 4.8 C 58.6 4.9 58.5 4.9 58.5 4.9 C 58.4 5 58.3 5 58.3 5.1 C 58.2 5.2 58.2 5.3 58.2 5.4 C 58.2 5.5 58.3 5.6 58.3 5.7 C 58.4 5.7 58.5 5.8 58.7 5.8 C 58.8 5.9 58.9 5.9 59.1 6 C 59.3 6 59.4 6.1 59.6 6.1 C 59.7 6.2 59.9 6.2 60 6.3 C 60.1 6.4 60.2 6.5 60.3 6.6 C 60.4 6.6 60.5 6.8 60.6 6.9 C 60.6 7 60.7 7.2 60.7 7.4 C 60.7 7.6 60.6 7.9 60.5 8.1 C 60.4 8.3 60.2 8.4 60 8.5 C 59.8 8.7 59.6 8.8 59.4 8.8 C 59.1 8.9 58.9 8.9 58.6 8.9 C 58.3 8.9 58.1 8.9 57.8 8.8 C 57.6 8.8 57.4 8.7 57.2 8.6 C 57.1 8.4 56.9 8.3 56.8 8.1 C 56.7 7.9 56.7 7.6 56.7 7.3 C 56.7 7.3 57.6 7.3 57.6 7.3 C 57.6 7.6 57.7 7.8 57.9 7.9 C 58.1 8 58.4 8.1 58.7 8.1 C 58.8 8.1 58.9 8.1 59 8.1 C 59.1 8 59.2 8 59.3 8 C 59.4 7.9 59.5 7.8 59.5 7.8 C 59.6 7.7 59.6 7.6 59.6 7.4 C 59.6 7.3 59.6 7.2 59.5 7.1 C 59.4 7.1 59.3 7 59.2 6.9 C 59 6.9 58.9 6.8 58.7 6.8 C 58.5 6.7 58.4 6.7 58.2 6.6 C 58.1 6.6 57.9 6.5 57.8 6.4 C 57.7 6.4 57.6 6.3 57.5 6.2 C 57.4 6.1 57.3 6 57.3 5.9 C 57.2 5.7 57.2 5.6 57.2 5.4 C 57.2 5.2 57.2 4.9 57.4 4.8 C 57.5 4.6 57.6 4.4 57.8 4.3 C 58 4.2 58.2 4.1 58.4 4.1 C 58.6 4 58.9 4 59.1 4 C 59.4 4 59.6 4 59.8 4.1 C 60 4.1 60.2 4.2 60.4 4.3 C 60.6 4.4 60.7 4.6 60.8 4.8 C 60.9 5 60.9 5.2 60.9 5.5 C 60.9 5.5 59.9 5.5 59.9 5.5 Z M 62.3 7.5 C 62.3 7.6 62.3 7.7 62.4 7.8 C 62.4 7.9 62.5 7.9 62.6 8 C 62.6 8 62.7 8 62.8 8.1 C 62.9 8.1 63 8.1 63.1 8.1 C 63.4 8.1 63.6 8 63.7 8 C 63.9 7.9 64.1 7.8 64.2 7.6 C 64.3 7.5 64.4 7.3 64.4 7.1 C 64.5 6.9 64.5 6.7 64.6 6.5 C 64.6 6.5 64.6 6.5 64.6 6.5 C 64.5 6.5 64.4 6.6 64.3 6.6 C 64.2 6.7 64 6.7 63.9 6.7 C 63.8 6.7 63.6 6.7 63.4 6.7 C 63.2 6.7 63.1 6.8 62.9 6.8 C 62.7 6.9 62.6 6.9 62.5 7.1 C 62.4 7.2 62.3 7.3 62.3 7.5 Z M 65.4 7.4 C 65.4 7.5 65.3 7.6 65.3 7.7 C 65.3 7.7 65.3 7.8 65.3 7.9 C 65.3 8 65.3 8 65.3 8 C 65.4 8.1 65.4 8.1 65.5 8.1 C 65.6 8.1 65.6 8.1 65.7 8.1 C 65.7 8.1 65.8 8 65.9 8 C 65.9 8 65.7 8.8 65.7 8.8 C 65.6 8.8 65.4 8.8 65.3 8.9 C 65.2 8.9 65 8.9 64.9 8.9 C 64.7 8.9 64.6 8.8 64.5 8.7 C 64.4 8.6 64.3 8.5 64.3 8.3 C 64.1 8.5 63.8 8.7 63.6 8.8 C 63.3 8.9 63 8.9 62.7 8.9 C 62.5 8.9 62.3 8.9 62.2 8.8 C 62 8.8 61.8 8.7 61.7 8.6 C 61.6 8.5 61.5 8.4 61.4 8.2 C 61.3 8 61.3 7.9 61.3 7.7 C 61.3 7.4 61.3 7.1 61.4 6.9 C 61.5 6.7 61.7 6.6 61.9 6.5 C 62 6.3 62.2 6.2 62.5 6.2 C 62.7 6.1 63 6.1 63.2 6.1 C 63.6 6 63.9 6 64.2 6 C 64.4 6 64.6 5.9 64.7 5.8 C 64.7 5.7 64.8 5.5 64.8 5.4 C 64.8 5.1 64.7 5 64.6 4.9 C 64.4 4.8 64.2 4.8 64 4.8 C 63.7 4.8 63.5 4.9 63.3 5 C 63.1 5.1 62.9 5.2 62.8 5.5 C 62.8 5.5 61.9 5.5 61.9 5.5 C 61.9 5.2 62 5 62.1 4.8 C 62.3 4.6 62.4 4.5 62.6 4.3 C 62.8 4.2 63 4.1 63.3 4.1 C 63.5 4 63.8 4 64.1 4 C 64.5 4 64.8 4 65.1 4.1 C 65.3 4.2 65.5 4.3 65.6 4.4 C 65.7 4.5 65.8 4.6 65.8 4.8 C 65.8 4.9 65.8 5 65.8 5.1 C 65.8 5.3 65.8 5.5 65.7 5.8 C 65.7 5.8 65.4 7.4 65.4 7.4 Z M 67.3 4.1 L 68.3 4.1 L 68.1 4.8 C 68.1 4.8 68.13 4.81 68.1 4.8 C 68.3 4.6 68.6 4.4 68.8 4.2 C 69.1 4.1 69.4 4 69.7 4 C 70.2 4 70.5 4.1 70.8 4.3 C 71 4.6 71.1 4.9 71.1 5.2 C 71.1 5.3 71.1 5.4 71.1 5.5 C 71.1 5.6 71.1 5.7 71 5.8 C 71.05 5.8 70.4 8.8 70.4 8.8 L 69.4 8.8 C 69.4 8.8 70 5.9 70 5.9 C 70 5.8 70 5.8 70 5.7 C 70.1 5.6 70.1 5.5 70.1 5.5 C 70.1 5.4 70.1 5.4 70.1 5.3 C 70.1 5.2 70 5.2 70 5.1 C 70 5 69.9 4.9 69.8 4.9 C 69.7 4.8 69.5 4.8 69.4 4.8 C 69.2 4.8 69 4.8 68.8 4.9 C 68.7 5 68.5 5.1 68.4 5.3 C 68.3 5.4 68.2 5.5 68.1 5.7 C 68 5.9 67.9 6.1 67.9 6.3 C 67.88 6.25 67.4 8.8 67.4 8.8 L 66.3 8.8 L 67.3 4.1 Z M 74.4 4.8 C 74.1 4.8 73.9 4.9 73.7 5 C 73.5 5.1 73.4 5.3 73.2 5.5 C 73.1 5.7 73 5.9 72.9 6.2 C 72.9 6.4 72.8 6.7 72.8 6.9 C 72.8 7.2 72.9 7.5 73.1 7.7 C 73.3 8 73.5 8.1 73.9 8.1 C 74.2 8.1 74.4 8 74.6 7.9 C 74.8 7.8 74.9 7.6 75.1 7.4 C 75.2 7.2 75.3 7 75.4 6.7 C 75.4 6.5 75.5 6.2 75.5 6 C 75.5 5.7 75.4 5.4 75.2 5.1 C 75 4.9 74.8 4.8 74.4 4.8 Z M 73.8 8.9 C 73.2 8.9 72.7 8.7 72.3 8.4 C 72 8 71.8 7.5 71.8 6.9 C 71.8 6.5 71.9 6.1 72 5.8 C 72.1 5.4 72.3 5.1 72.5 4.9 C 72.8 4.6 73 4.4 73.4 4.2 C 73.7 4.1 74.1 4 74.5 4 C 75.1 4 75.6 4.2 76 4.5 C 76.3 4.8 76.5 5.3 76.5 6 C 76.5 6.4 76.4 6.8 76.3 7.1 C 76.2 7.5 76 7.8 75.8 8.1 C 75.6 8.3 75.3 8.5 75 8.7 C 74.6 8.8 74.3 8.9 73.8 8.9 Z M 80.4 2.3 L 81.5 2.3 L 80.4 7.8 L 83.6 7.8 L 83.4 8.8 L 79.1 8.8 L 80.4 2.3 Z M 85.5 2.3 L 86.5 2.3 L 86.3 3.3 L 85.3 3.3 L 85.5 2.3 Z M 85.1 4.1 L 86.2 4.1 L 85.2 8.8 L 84.2 8.8 L 85.1 4.1 Z M 87.5 7.5 C 87.5 7.6 87.5 7.7 87.6 7.8 C 87.6 7.9 87.7 7.9 87.8 8 C 87.8 8 87.9 8 88 8.1 C 88.1 8.1 88.2 8.1 88.3 8.1 C 88.6 8.1 88.8 8 89 8 C 89.1 7.9 89.3 7.8 89.4 7.6 C 89.5 7.5 89.6 7.3 89.6 7.1 C 89.7 6.9 89.7 6.7 89.8 6.5 C 89.8 6.5 89.8 6.5 89.8 6.5 C 89.7 6.5 89.6 6.6 89.5 6.6 C 89.4 6.7 89.2 6.7 89.1 6.7 C 89 6.7 88.8 6.7 88.6 6.7 C 88.4 6.7 88.3 6.8 88.1 6.8 C 87.9 6.9 87.8 6.9 87.7 7.1 C 87.6 7.2 87.5 7.3 87.5 7.5 Z M 90.6 7.4 C 90.6 7.5 90.5 7.6 90.5 7.7 C 90.5 7.7 90.5 7.8 90.5 7.9 C 90.5 8 90.5 8 90.5 8 C 90.6 8.1 90.6 8.1 90.7 8.1 C 90.8 8.1 90.8 8.1 90.9 8.1 C 91 8.1 91 8 91.1 8 C 91.1 8 90.9 8.8 90.9 8.8 C 90.8 8.8 90.6 8.8 90.5 8.9 C 90.4 8.9 90.2 8.9 90.1 8.9 C 89.9 8.9 89.8 8.8 89.7 8.7 C 89.6 8.6 89.5 8.5 89.5 8.3 C 89.3 8.5 89 8.7 88.8 8.8 C 88.5 8.9 88.2 8.9 87.9 8.9 C 87.7 8.9 87.5 8.9 87.4 8.8 C 87.2 8.8 87 8.7 86.9 8.6 C 86.8 8.5 86.7 8.4 86.6 8.2 C 86.5 8 86.5 7.9 86.5 7.7 C 86.5 7.4 86.5 7.1 86.6 6.9 C 86.7 6.7 86.9 6.6 87.1 6.5 C 87.2 6.3 87.5 6.2 87.7 6.2 C 87.9 6.1 88.2 6.1 88.4 6.1 C 88.8 6 89.1 6 89.5 6 C 89.6 6 89.8 5.9 89.9 5.8 C 89.9 5.7 90 5.5 90 5.4 C 90 5.1 89.9 5 89.8 4.9 C 89.6 4.8 89.4 4.8 89.2 4.8 C 88.9 4.8 88.7 4.9 88.5 5 C 88.3 5.1 88.1 5.2 88 5.5 C 88 5.5 87.1 5.5 87.1 5.5 C 87.1 5.2 87.2 5 87.4 4.8 C 87.5 4.6 87.6 4.5 87.8 4.3 C 88 4.2 88.3 4.1 88.5 4.1 C 88.7 4 89 4 89.3 4 C 89.7 4 90 4 90.3 4.1 C 90.5 4.2 90.7 4.3 90.8 4.4 C 90.9 4.5 91 4.6 91 4.8 C 91 4.9 91 5 91 5.1 C 91 5.3 91 5.5 90.9 5.8 C 90.9 5.8 90.6 7.4 90.6 7.4 Z M 92.6 4.1 L 93.5 4.1 L 93.4 4.8 C 93.4 4.8 93.41 4.8 93.4 4.8 C 93.6 4.5 93.8 4.3 94.1 4.2 C 94.4 4.1 94.7 4 95 4 C 95.3 4 95.5 4.1 95.8 4.2 C 96 4.3 96.1 4.5 96.2 4.8 C 96.4 4.6 96.6 4.4 96.9 4.2 C 97.1 4.1 97.4 4 97.8 4 C 98.2 4 98.5 4.1 98.8 4.3 C 99 4.6 99.1 4.9 99.1 5.2 C 99.1 5.3 99.1 5.4 99.1 5.5 C 99 5.6 99 5.7 99 5.8 C 99.01 5.8 98.4 8.8 98.4 8.8 L 97.4 8.8 C 97.4 8.8 97.97 6.02 98 6 C 98 6 98 5.9 98 5.8 C 98 5.7 98 5.6 98.1 5.5 C 98.1 5.4 98 5.3 98 5.2 C 98 5.2 98 5.1 97.9 5 C 97.9 5 97.8 4.9 97.7 4.9 C 97.7 4.8 97.5 4.8 97.4 4.8 C 97.2 4.8 97 4.8 96.9 4.9 C 96.7 5 96.6 5.1 96.5 5.2 C 96.4 5.4 96.3 5.5 96.2 5.6 C 96.2 5.8 96.1 5.9 96.1 6.1 C 96.08 6.06 95.5 8.8 95.5 8.8 L 94.5 8.8 C 94.5 8.8 95.02 6.22 95 6.2 C 95 6.1 95.1 6 95.1 5.8 C 95.1 5.7 95.2 5.5 95.2 5.4 C 95.2 5.2 95.1 5.1 95 5 C 95 4.9 94.8 4.8 94.6 4.8 C 94.4 4.8 94.2 4.8 94.1 4.9 C 93.9 5 93.8 5.1 93.7 5.2 C 93.6 5.3 93.5 5.4 93.4 5.6 C 93.3 5.7 93.2 5.9 93.2 6.1 C 93.18 6.08 92.6 8.8 92.6 8.8 L 91.6 8.8 L 92.6 4.1 Z M 103 2.3 L 104.6 2.3 L 105.3 7.2 L 105.3 7.2 L 108.1 2.3 L 109.7 2.3 L 108.3 8.8 L 107.3 8.8 L 108.4 3.6 L 108.4 3.6 L 105.5 8.8 L 104.6 8.8 L 103.8 3.6 L 103.8 3.6 L 102.8 8.8 L 101.7 8.8 L 103 2.3 Z M 111 2.3 L 112 2.3 L 111.8 3.3 L 110.8 3.3 L 111 2.3 Z M 110.6 4.1 L 111.6 4.1 L 110.7 8.8 L 109.6 8.8 L 110.6 4.1 Z M 113.2 6.8 C 113.2 7 113.2 7.1 113.3 7.3 C 113.3 7.4 113.3 7.5 113.4 7.6 C 113.5 7.7 113.6 7.8 113.7 7.9 C 113.8 7.9 114 8 114.2 8 C 114.4 8 114.7 7.9 114.9 7.8 C 115.1 7.6 115.2 7.5 115.4 7.3 C 115.5 7.1 115.6 6.9 115.6 6.6 C 115.7 6.4 115.7 6.1 115.7 5.9 C 115.7 5.6 115.6 5.3 115.5 5.1 C 115.3 4.9 115 4.8 114.7 4.8 C 114.4 4.8 114.2 4.9 114 5 C 113.8 5.1 113.7 5.3 113.6 5.5 C 113.4 5.7 113.4 5.9 113.3 6.1 C 113.2 6.4 113.2 6.6 113.2 6.8 Z M 116.2 8.6 C 116.1 9 116 9.3 115.9 9.6 C 115.8 9.8 115.6 10 115.4 10.2 C 115.2 10.3 115 10.4 114.8 10.5 C 114.5 10.6 114.2 10.6 113.8 10.6 C 113.5 10.6 113.3 10.6 113.1 10.5 C 112.8 10.5 112.6 10.4 112.4 10.3 C 112.2 10.2 112.1 10 112 9.8 C 111.9 9.6 111.8 9.4 111.8 9.1 C 111.8 9.1 112.8 9.1 112.8 9.1 C 112.9 9.4 113 9.6 113.2 9.7 C 113.4 9.8 113.6 9.9 113.9 9.9 C 114.1 9.9 114.3 9.8 114.5 9.8 C 114.6 9.7 114.7 9.6 114.8 9.5 C 114.9 9.4 115 9.2 115.1 9.1 C 115.1 8.9 115.2 8.7 115.2 8.5 C 115.22 8.55 115.3 8.1 115.3 8.1 C 115.3 8.1 115.3 8.07 115.3 8.1 C 115 8.5 114.5 8.8 114 8.8 C 113.4 8.8 113 8.6 112.6 8.3 C 112.3 7.9 112.2 7.5 112.2 6.9 C 112.2 6.5 112.2 6.2 112.3 5.8 C 112.4 5.5 112.6 5.2 112.8 4.9 C 113 4.6 113.2 4.4 113.5 4.2 C 113.8 4.1 114.2 4 114.6 4 C 114.9 4 115.2 4.1 115.5 4.2 C 115.7 4.3 115.9 4.6 116 4.9 C 116.02 4.9 116 4.9 116 4.9 L 116.2 4.1 L 117.1 4.1 C 117.1 4.1 116.16 8.65 116.2 8.6 Z M 121.4 8.8 L 120.4 8.8 L 120.6 8.1 C 120.6 8.1 120.54 8.08 120.5 8.1 C 120.4 8.3 120.1 8.5 119.8 8.7 C 119.6 8.8 119.3 8.9 118.9 8.9 C 118.5 8.9 118.1 8.8 117.9 8.6 C 117.7 8.3 117.6 8 117.6 7.7 C 117.6 7.6 117.6 7.5 117.6 7.4 C 117.6 7.3 117.6 7.2 117.6 7.1 C 117.63 7.09 118.2 4.1 118.2 4.1 L 119.3 4.1 C 119.3 4.1 118.68 6.99 118.7 7 C 118.7 7.1 118.6 7.1 118.6 7.2 C 118.6 7.3 118.6 7.4 118.6 7.4 C 118.6 7.5 118.6 7.5 118.6 7.6 C 118.6 7.7 118.6 7.7 118.7 7.8 C 118.7 7.9 118.8 8 118.9 8 C 119 8.1 119.1 8.1 119.3 8.1 C 119.5 8.1 119.7 8 119.9 8 C 120 7.9 120.2 7.8 120.3 7.6 C 120.4 7.5 120.5 7.3 120.6 7.2 C 120.7 7 120.8 6.8 120.8 6.6 C 120.8 6.64 121.3 4.1 121.3 4.1 L 122.3 4.1 L 121.4 8.8 Z M 126.3 6 C 126.3 6 126.3 6 126.3 6 C 126.3 5.9 126.3 5.9 126.3 5.9 C 126.3 5.9 126.3 5.8 126.3 5.8 C 126.3 5.5 126.2 5.2 126.1 5.1 C 125.9 4.9 125.6 4.8 125.3 4.8 C 124.9 4.8 124.6 4.9 124.4 5.2 C 124.2 5.4 124 5.7 123.9 6 C 123.9 6 126.3 6 126.3 6 Z M 127.1 7.3 C 126.9 7.9 126.6 8.3 126.2 8.5 C 125.8 8.8 125.4 8.9 124.8 8.9 C 124.5 8.9 124.2 8.9 124 8.8 C 123.7 8.7 123.5 8.5 123.4 8.4 C 123.2 8.2 123 8 122.9 7.7 C 122.8 7.5 122.8 7.2 122.8 6.9 C 122.8 6.5 122.8 6.2 122.9 5.8 C 123.1 5.5 123.2 5.2 123.4 4.9 C 123.7 4.6 123.9 4.4 124.3 4.2 C 124.6 4.1 124.9 4 125.4 4 C 125.8 4 126.1 4.1 126.4 4.2 C 126.6 4.3 126.8 4.5 127 4.7 C 127.1 4.9 127.2 5.2 127.3 5.4 C 127.3 5.7 127.3 5.9 127.3 6.1 C 127.3 6.3 127.3 6.4 127.3 6.5 C 127.3 6.5 127.3 6.6 127.3 6.7 C 127.3 6.7 123.8 6.7 123.8 6.7 C 123.8 6.7 123.8 6.8 123.8 6.8 C 123.8 6.8 123.8 6.8 123.8 6.9 C 123.8 6.9 123.8 7 123.8 7 C 123.8 7.3 123.9 7.6 124.1 7.8 C 124.2 8 124.5 8.1 124.9 8.1 C 125.2 8.1 125.4 8 125.6 7.9 C 125.8 7.8 126 7.6 126 7.3 C 126 7.3 127.1 7.3 127.1 7.3 Z M 129 2.3 L 130 2.3 L 128.7 8.8 L 127.7 8.8 L 129 2.3 Z M 133.3 2.3 L 134.9 2.3 L 135.6 7.2 L 135.6 7.2 L 138.4 2.3 L 140 2.3 L 138.6 8.8 L 137.6 8.8 L 138.7 3.6 L 138.7 3.6 L 135.8 8.8 L 134.9 8.8 L 134.1 3.6 L 134.1 3.6 L 133.1 8.8 L 132 8.8 L 133.3 2.3 Z M 141 7.5 C 141 7.6 141 7.7 141.1 7.8 C 141.1 7.9 141.2 7.9 141.3 8 C 141.3 8 141.4 8 141.5 8.1 C 141.6 8.1 141.7 8.1 141.8 8.1 C 142.1 8.1 142.3 8 142.4 8 C 142.6 7.9 142.8 7.8 142.9 7.6 C 143 7.5 143.1 7.3 143.1 7.1 C 143.2 6.9 143.2 6.7 143.3 6.5 C 143.3 6.5 143.3 6.5 143.3 6.5 C 143.2 6.5 143.1 6.6 143 6.6 C 142.8 6.7 142.7 6.7 142.6 6.7 C 142.5 6.7 142.3 6.7 142.1 6.7 C 141.9 6.7 141.8 6.8 141.6 6.8 C 141.4 6.9 141.3 6.9 141.2 7.1 C 141 7.2 141 7.3 141 7.5 Z M 144.1 7.4 C 144.1 7.5 144 7.6 144 7.7 C 144 7.7 144 7.8 144 7.9 C 144 8 144 8 144 8 C 144.1 8.1 144.1 8.1 144.2 8.1 C 144.3 8.1 144.3 8.1 144.4 8.1 C 144.4 8.1 144.5 8 144.6 8 C 144.6 8 144.4 8.8 144.4 8.8 C 144.3 8.8 144.1 8.8 144 8.9 C 143.9 8.9 143.7 8.9 143.6 8.9 C 143.4 8.9 143.3 8.8 143.2 8.7 C 143.1 8.6 143 8.5 143 8.3 C 142.8 8.5 142.5 8.7 142.3 8.8 C 142 8.9 141.7 8.9 141.4 8.9 C 141.2 8.9 141 8.9 140.9 8.8 C 140.7 8.8 140.5 8.7 140.4 8.6 C 140.3 8.5 140.2 8.4 140.1 8.2 C 140 8 140 7.9 140 7.7 C 140 7.4 140 7.1 140.1 6.9 C 140.2 6.7 140.4 6.6 140.6 6.5 C 140.7 6.3 140.9 6.2 141.2 6.2 C 141.4 6.1 141.7 6.1 141.9 6.1 C 142.3 6 142.6 6 142.9 6 C 143.1 6 143.3 5.9 143.4 5.8 C 143.4 5.7 143.5 5.5 143.5 5.4 C 143.5 5.1 143.4 5 143.2 4.9 C 143.1 4.8 142.9 4.8 142.7 4.8 C 142.4 4.8 142.2 4.9 142 5 C 141.7 5.1 141.6 5.2 141.5 5.5 C 141.5 5.5 140.6 5.5 140.6 5.5 C 140.6 5.2 140.7 5 140.8 4.8 C 141 4.6 141.1 4.5 141.3 4.3 C 141.5 4.2 141.7 4.1 142 4.1 C 142.2 4 142.5 4 142.8 4 C 143.2 4 143.5 4 143.7 4.1 C 144 4.2 144.2 4.3 144.3 4.4 C 144.4 4.5 144.4 4.6 144.5 4.8 C 144.5 4.9 144.5 5 144.5 5.1 C 144.5 5.3 144.5 5.5 144.4 5.8 C 144.4 5.8 144.1 7.4 144.1 7.4 Z M 146 4.1 L 147 4.1 L 146.8 4.8 C 146.8 4.8 146.83 4.81 146.8 4.8 C 147 4.6 147.2 4.4 147.5 4.2 C 147.8 4.1 148.1 4 148.4 4 C 148.9 4 149.2 4.1 149.5 4.3 C 149.7 4.6 149.8 4.9 149.8 5.2 C 149.8 5.3 149.8 5.4 149.8 5.5 C 149.8 5.6 149.8 5.7 149.7 5.8 C 149.75 5.8 149.1 8.8 149.1 8.8 L 148.1 8.8 C 148.1 8.8 148.69 5.9 148.7 5.9 C 148.7 5.8 148.7 5.8 148.7 5.7 C 148.8 5.6 148.8 5.5 148.8 5.5 C 148.8 5.4 148.8 5.4 148.8 5.3 C 148.8 5.2 148.7 5.2 148.7 5.1 C 148.7 5 148.6 4.9 148.5 4.9 C 148.4 4.8 148.2 4.8 148.1 4.8 C 147.9 4.8 147.7 4.8 147.5 4.9 C 147.4 5 147.2 5.1 147.1 5.3 C 147 5.4 146.9 5.5 146.8 5.7 C 146.7 5.9 146.6 6.1 146.6 6.3 C 146.58 6.25 146.1 8.8 146.1 8.8 L 145 8.8 L 146 4.1 Z M 151.3 7.5 C 151.3 7.6 151.4 7.7 151.4 7.8 C 151.5 7.9 151.5 7.9 151.6 8 C 151.7 8 151.8 8 151.9 8.1 C 152 8.1 152.1 8.1 152.2 8.1 C 152.4 8.1 152.6 8 152.8 8 C 153 7.9 153.1 7.8 153.2 7.6 C 153.3 7.5 153.4 7.3 153.5 7.1 C 153.5 6.9 153.6 6.7 153.6 6.5 C 153.6 6.5 153.6 6.5 153.6 6.5 C 153.5 6.5 153.4 6.6 153.3 6.6 C 153.2 6.7 153.1 6.7 153 6.7 C 152.8 6.7 152.7 6.7 152.5 6.7 C 152.3 6.7 152.1 6.8 151.9 6.8 C 151.8 6.9 151.6 6.9 151.5 7.1 C 151.4 7.2 151.3 7.3 151.3 7.5 Z M 154.4 7.4 C 154.4 7.5 154.4 7.6 154.4 7.7 C 154.3 7.7 154.3 7.8 154.3 7.9 C 154.3 8 154.4 8 154.4 8 C 154.4 8.1 154.5 8.1 154.6 8.1 C 154.6 8.1 154.7 8.1 154.7 8.1 C 154.8 8.1 154.9 8 154.9 8 C 154.9 8 154.8 8.8 154.8 8.8 C 154.6 8.8 154.5 8.8 154.4 8.9 C 154.2 8.9 154.1 8.9 153.9 8.9 C 153.8 8.9 153.6 8.8 153.5 8.7 C 153.4 8.6 153.3 8.5 153.3 8.3 C 153.1 8.5 152.9 8.7 152.6 8.8 C 152.3 8.9 152.1 8.9 151.8 8.9 C 151.6 8.9 151.4 8.9 151.2 8.8 C 151 8.8 150.9 8.7 150.7 8.6 C 150.6 8.5 150.5 8.4 150.4 8.2 C 150.4 8 150.3 7.9 150.3 7.7 C 150.3 7.4 150.4 7.1 150.5 6.9 C 150.6 6.7 150.7 6.6 150.9 6.5 C 151.1 6.3 151.3 6.2 151.5 6.2 C 151.8 6.1 152 6.1 152.3 6.1 C 152.6 6 153 6 153.3 6 C 153.5 6 153.6 5.9 153.7 5.8 C 153.8 5.7 153.8 5.5 153.8 5.4 C 153.8 5.1 153.8 5 153.6 4.9 C 153.4 4.8 153.3 4.8 153 4.8 C 152.8 4.8 152.5 4.9 152.3 5 C 152.1 5.1 152 5.2 151.9 5.5 C 151.9 5.5 150.9 5.5 150.9 5.5 C 151 5.2 151.1 5 151.2 4.8 C 151.3 4.6 151.5 4.5 151.7 4.3 C 151.9 4.2 152.1 4.1 152.3 4.1 C 152.6 4 152.8 4 153.1 4 C 153.5 4 153.9 4 154.1 4.1 C 154.3 4.2 154.5 4.3 154.6 4.4 C 154.7 4.5 154.8 4.6 154.8 4.8 C 154.8 4.9 154.9 5 154.9 5.1 C 154.9 5.3 154.8 5.5 154.8 5.8 C 154.8 5.8 154.4 7.4 154.4 7.4 Z M 156.7 2.3 L 157.7 2.3 L 156.4 8.8 L 155.4 8.8 L 156.7 2.3 Z M 160.4 4.8 C 160.2 4.8 160 4.9 159.8 5 C 159.6 5.1 159.4 5.3 159.3 5.5 C 159.1 5.7 159 5.9 159 6.2 C 158.9 6.4 158.9 6.7 158.9 6.9 C 158.9 7.2 159 7.5 159.1 7.7 C 159.3 8 159.6 8.1 160 8.1 C 160.2 8.1 160.4 8 160.6 7.9 C 160.8 7.8 161 7.6 161.1 7.4 C 161.3 7.2 161.4 7 161.4 6.7 C 161.5 6.5 161.5 6.2 161.5 6 C 161.5 5.7 161.4 5.4 161.3 5.1 C 161.1 4.9 160.8 4.8 160.4 4.8 Z M 159.9 8.9 C 159.2 8.9 158.7 8.7 158.4 8.4 C 158 8 157.9 7.5 157.9 6.9 C 157.9 6.5 157.9 6.1 158 5.8 C 158.2 5.4 158.3 5.1 158.6 4.9 C 158.8 4.6 159.1 4.4 159.4 4.2 C 159.7 4.1 160.1 4 160.5 4 C 161.2 4 161.7 4.2 162 4.5 C 162.4 4.8 162.5 5.3 162.5 6 C 162.5 6.4 162.5 6.8 162.4 7.1 C 162.2 7.5 162.1 7.8 161.8 8.1 C 161.6 8.3 161.3 8.5 161 8.7 C 160.7 8.8 160.3 8.9 159.9 8.9 Z " stroke="none" fill="#fff"/>
  </g>
</svg>