<?xml version="1.0" standalone="no"?>
<!DOCTYPE svg PUBLIC "-//W3C//DTD SVG 1.1//EN" "http://www.w3.org/Graphics/SVG/1.1/DTD/svg11.dtd">
<svg xmlns="http://www.w3.org/2000/svg" version="1.1" width="304px" height="33.9px" viewBox="0 -6 304 33.9" style="top:-6px">
  <desc>ECO CAR Mula sa p 1</desc>
  <defs/>
  <g id="Polygon32873">
    <path d="M 1.6 -0.3 L 11 -0.3 L 11 2.2 L 4.1 2.2 L 4.1 6 L 10.6 6 L 10.6 8.4 L 4.1 8.4 L 4.1 12.6 L 11.3 12.6 L 11.3 15.1 L 1.6 15.1 L 1.6 -0.3 Z M 24.1 3.3 C 23.1 2.1 22.1 1.8 21.1 1.8 C 18.2 1.8 16.3 4.2 16.3 7.3 C 16.3 10.6 18.2 13 21.1 13 C 22.3 13 23.4 12.5 24.3 11.2 C 24.3 11.2 26.4 12.8 26.4 12.8 C 25.1 14.7 23.2 15.5 21.1 15.5 C 16.8 15.5 13.6 12.3 13.6 7.5 C 13.6 2.5 16.8 -0.7 21.1 -0.7 C 23 -0.7 24.7 0 26.1 1.7 C 26.1 1.7 24.1 3.3 24.1 3.3 Z M 35.4 -0.7 C 39.8 -0.8 42.9 2.4 42.9 7.4 C 42.9 12.2 39.8 15.4 35.4 15.5 C 31 15.5 27.9 12.3 27.9 7.5 C 27.9 2.5 31 -0.7 35.4 -0.7 Z M 35.4 13 C 38.4 13 40.3 10.6 40.3 7.3 C 40.3 4.2 38.4 1.8 35.4 1.8 C 32.5 1.8 30.6 4.2 30.6 7.3 C 30.6 10.6 32.5 13 35.4 13 Z M 62.2 3.3 C 61.1 2.1 60.2 1.8 59.2 1.8 C 56.3 1.8 54.3 4.2 54.3 7.3 C 54.3 10.6 56.3 13 59.2 13 C 60.3 13 61.4 12.5 62.4 11.2 C 62.4 11.2 64.4 12.8 64.4 12.8 C 63.2 14.7 61.2 15.5 59.2 15.5 C 54.8 15.5 51.7 12.3 51.7 7.5 C 51.7 2.5 54.8 -0.7 59.2 -0.7 C 61.1 -0.7 62.7 0 64.1 1.7 C 64.1 1.7 62.2 3.3 62.2 3.3 Z M 71.3 -0.3 L 73.5 -0.3 L 79.6 15.1 L 76.7 15.1 L 75.4 11.6 L 69.3 11.6 L 68 15.1 L 65.2 15.1 L 71.3 -0.3 Z M 74.5 9.2 L 72.3 3 L 70.1 9.2 L 74.5 9.2 Z M 81.8 -0.3 C 81.8 -0.3 86.69 -0.31 86.7 -0.3 C 89.4 -0.3 92 0.6 92 4.1 C 92 6.3 90.8 8 88.7 8.3 C 88.69 8.3 92.5 15.1 92.5 15.1 L 89.4 15.1 L 86.1 8.6 L 84.3 8.6 L 84.3 15.1 L 81.8 15.1 L 81.8 -0.3 Z M 86.3 6.2 C 87.7 6.2 89.3 6.1 89.3 4.1 C 89.3 2.3 87.8 2 86.5 2 C 86.47 2.04 84.3 2 84.3 2 L 84.3 6.2 C 84.3 6.2 86.25 6.23 86.3 6.2 Z M 103.1 -1.2 L 103.1 20.6 L 101.1 20.6 L 101.1 -1.2 L 103.1 -1.2 Z M 113.1 -0.3 L 116.9 -0.3 L 120.7 10.5 L 124.5 -0.3 L 128.3 -0.3 L 128.3 15.1 L 125.9 15.1 L 125.9 2.3 L 125.9 2.3 L 121.6 15.1 L 119.8 15.1 L 115.5 2.3 L 115.5 2.3 L 115.5 15.1 L 113.1 15.1 L 113.1 -0.3 Z M 140.7 15.1 L 138.4 15.1 L 138.4 13.4 C 138.4 13.4 138.35 13.44 138.3 13.4 C 137.9 14.5 137 15.4 135.4 15.4 C 132.8 15.4 131.9 13.4 131.9 11.3 C 131.91 11.26 131.9 4.7 131.9 4.7 L 134.3 4.7 C 134.3 4.7 134.31 9.95 134.3 10 C 134.3 11.1 134.4 13 136.1 13 C 137.6 13 138.3 11.8 138.3 10.4 C 138.27 10.37 138.3 4.7 138.3 4.7 L 140.7 4.7 L 140.7 15.1 Z M 144 -1.4 L 146.4 -1.4 L 146.4 15.1 L 144 15.1 L 144 -1.4 Z M 155.8 13.7 C 155.8 13.7 155.71 13.68 155.7 13.7 C 155 14.9 153.9 15.4 152.6 15.4 C 150.9 15.4 149.1 14.3 149.1 12.2 C 149.1 8.8 152.8 8.6 155.2 8.6 C 155.17 8.6 155.8 8.6 155.8 8.6 C 155.8 8.6 155.77 8.32 155.8 8.3 C 155.8 7 154.9 6.4 153.6 6.4 C 152.6 6.4 151.7 6.8 151 7.4 C 151 7.4 149.8 6.1 149.8 6.1 C 150.8 4.9 152.3 4.4 153.8 4.4 C 157.9 4.4 157.9 7.6 157.9 9.1 C 157.93 9.1 157.9 15.1 157.9 15.1 L 155.8 15.1 L 155.8 13.7 Z M 155.6 10.4 C 155.6 10.4 155.13 10.43 155.1 10.4 C 153.8 10.4 151.5 10.5 151.5 12 C 151.5 13 152.4 13.4 153.2 13.4 C 154.9 13.4 155.6 12.5 155.6 11 C 155.63 11.02 155.6 10.4 155.6 10.4 Z M 172.7 7.6 C 172.3 6.9 171.7 6.5 170.9 6.5 C 170.2 6.5 169.5 6.8 169.5 7.6 C 169.5 9.5 174.6 7.9 174.6 12 C 174.6 14.5 172.5 15.4 170.5 15.4 C 169 15.4 167.7 15 166.8 13.8 C 166.8 13.8 168.4 12.1 168.4 12.1 C 169 12.9 169.6 13.4 170.6 13.4 C 171.3 13.4 172.2 13 172.2 12.2 C 172.2 10.1 167.1 11.8 167.1 7.8 C 167.1 5.4 169 4.4 170.9 4.4 C 172.2 4.4 173.6 4.8 174.3 6 C 174.3 6 172.7 7.6 172.7 7.6 Z M 183.1 13.7 C 183.1 13.7 183.03 13.68 183 13.7 C 182.3 14.9 181.2 15.4 179.9 15.4 C 178.2 15.4 176.4 14.3 176.4 12.2 C 176.4 8.8 180.1 8.6 182.5 8.6 C 182.49 8.6 183.1 8.6 183.1 8.6 C 183.1 8.6 183.09 8.32 183.1 8.3 C 183.1 7 182.2 6.4 180.9 6.4 C 179.9 6.4 179 6.8 178.3 7.4 C 178.3 7.4 177.1 6.1 177.1 6.1 C 178.1 4.9 179.6 4.4 181.1 4.4 C 185.2 4.4 185.2 7.6 185.2 9.1 C 185.25 9.1 185.2 15.1 185.2 15.1 L 183.1 15.1 L 183.1 13.7 Z M 182.9 10.4 C 182.9 10.4 182.45 10.43 182.4 10.4 C 181.1 10.4 178.8 10.5 178.8 12 C 178.8 13 179.7 13.4 180.5 13.4 C 182.2 13.4 182.9 12.5 182.9 11 C 182.95 11.02 182.9 10.4 182.9 10.4 Z M 194.9 4.7 L 197.2 4.7 L 197.2 6.2 C 197.2 6.2 197.25 6.23 197.3 6.2 C 198 5 199.2 4.4 200.6 4.4 C 203.5 4.4 205.3 6.8 205.3 9.9 C 205.3 13 203.4 15.4 200.7 15.4 C 198.9 15.4 197.9 14.5 197.4 13.8 C 197.39 13.79 197.3 13.8 197.3 13.8 L 197.3 20.1 L 194.9 20.1 L 194.9 4.7 Z M 200.1 6.7 C 198.3 6.7 197.3 8.3 197.3 9.9 C 197.3 11.5 198.3 13 200.1 13 C 201.8 13 202.9 11.5 202.9 9.9 C 202.9 8.3 201.8 6.7 200.1 6.7 Z M 209.7 11.9 C 210.6 11.9 211.3 12.6 211.3 13.6 C 211.3 14.5 210.6 15.3 209.7 15.3 C 208.9 15.3 208.1 14.5 208.1 13.6 C 208.1 12.7 208.8 11.9 209.7 11.9 Z M 218.6 2.7 L 216 5.4 L 214.6 3.6 L 218.9 -0.3 L 221 -0.3 L 221 15.1 L 218.6 15.1 L 218.6 2.7 Z " stroke="none" fill="#fff"/>
  </g>
</svg>