<?xml version="1.0" standalone="no"?>
<!DOCTYPE svg PUBLIC "-//W3C//DTD SVG 1.1//EN" "http://www.w3.org/Graphics/SVG/1.1/DTD/svg11.dtd">
<svg xmlns="http://www.w3.org/2000/svg" version="1.1" width="150px" height="172.8px" viewBox="0 -7 150 172.8" style="top:-7px">
  <desc>Liham para sa mga progresibong mamamahayag pangkampus</desc>
  <defs/>
  <g id="Polygon19230">
    <path d="M 12.4 149.5 L 16 149.5 L 16 143.7 C 16 143.7 16.05 143.69 16.1 143.7 C 16.4 144.2 16.9 144.6 17.3 144.9 C 17.8 145.1 18.4 145.3 19.1 145.3 C 20.5 145.3 21.6 144.7 22.3 143.6 C 23 142.5 23.4 140.6 23.4 138 C 23.4 135.4 23 133.5 22.3 132.4 C 21.6 131.2 20.5 130.6 19.1 130.6 C 18.3 130.6 17.7 130.8 17.2 131.1 C 16.7 131.3 16.3 131.8 15.9 132.5 C 15.9 132.48 15.8 132.5 15.8 132.5 L 15.8 131 L 12.4 131 L 12.4 149.5 Z M 16.4 134.5 C 16.6 133.8 17.1 133.4 17.9 133.4 C 18.7 133.4 19.2 133.8 19.4 134.5 C 19.7 135.3 19.8 136.5 19.8 138 C 19.8 139.5 19.7 140.7 19.4 141.4 C 19.2 142.2 18.7 142.6 17.9 142.6 C 17.1 142.6 16.6 142.2 16.4 141.4 C 16.1 140.7 16 139.5 16 138 C 16 136.5 16.1 135.3 16.4 134.5 Z M 31.2 140.7 C 31.2 141.1 31.1 141.5 31 141.7 C 30.8 142 30.6 142.2 30.4 142.4 C 30.2 142.6 30 142.7 29.7 142.8 C 29.4 142.9 29.2 142.9 28.9 142.9 C 28.5 142.9 28.1 142.7 27.9 142.3 C 27.7 142 27.6 141.5 27.6 141 C 27.6 140.3 27.8 139.8 28.1 139.5 C 28.4 139.1 28.9 138.8 29.6 138.7 C 29.9 138.6 30.1 138.6 30.4 138.4 C 30.7 138.3 30.9 138.2 31.2 138 C 31.2 138 31.2 140.7 31.2 140.7 Z M 27.8 135.3 C 27.8 135.3 27.83 134.9 27.8 134.9 C 27.8 134.3 28 133.9 28.2 133.6 C 28.5 133.2 28.9 133.1 29.5 133.1 C 30.1 133.1 30.5 133.2 30.8 133.5 C 31 133.8 31.2 134.3 31.2 134.8 C 31.2 135.3 31.1 135.6 30.8 135.9 C 30.6 136.1 30.3 136.3 29.7 136.4 C 29.7 136.4 27.7 137 27.7 137 C 27.1 137.2 26.5 137.4 26.1 137.6 C 25.7 137.8 25.3 138.1 25 138.4 C 24.7 138.8 24.5 139.2 24.4 139.6 C 24.2 140.1 24.2 140.7 24.2 141.3 C 24.2 141.8 24.2 142.3 24.3 142.8 C 24.5 143.2 24.7 143.7 24.9 144 C 25.2 144.4 25.5 144.7 26 144.9 C 26.4 145.2 26.9 145.3 27.5 145.3 C 28.4 145.3 29.1 145.2 29.7 144.9 C 30.2 144.7 30.7 144.3 31.1 143.5 C 31.1 143.5 31.2 143.5 31.2 143.5 C 31.2 143.8 31.3 144 31.3 144.3 C 31.4 144.5 31.5 144.8 31.6 145 C 31.6 145 35 145 35 145 C 34.9 144.6 34.7 144.2 34.7 143.8 C 34.6 143.5 34.6 142.9 34.6 142.3 C 34.6 142.3 34.6 134.9 34.6 134.9 C 34.6 134.3 34.5 133.7 34.4 133.2 C 34.3 132.7 34 132.2 33.7 131.8 C 33.3 131.4 32.8 131.2 32.1 130.9 C 31.5 130.7 30.6 130.6 29.5 130.6 C 28.8 130.6 28.2 130.7 27.6 130.9 C 27 131 26.5 131.2 26.1 131.6 C 25.6 131.9 25.3 132.4 25 132.9 C 24.7 133.5 24.6 134.1 24.6 134.9 C 24.61 134.95 24.6 135.3 24.6 135.3 L 27.8 135.3 Z M 36.4 145 L 39.9 145 C 39.9 145 39.95 135.7 39.9 135.7 C 39.9 134.2 40.6 133.4 41.8 133.4 C 42.4 133.4 42.8 133.5 43 133.8 C 43.3 134.1 43.4 134.6 43.4 135.3 C 43.38 135.34 43.4 145 43.4 145 L 47 145 C 47 145 46.97 134.61 47 134.6 C 47 133.2 46.7 132.2 46 131.6 C 45.4 130.9 44.5 130.6 43.4 130.6 C 42.6 130.6 41.9 130.8 41.3 131.1 C 40.7 131.4 40.2 131.9 39.8 132.6 C 39.84 132.64 39.8 132.6 39.8 132.6 L 39.8 131 L 36.4 131 L 36.4 145 Z M 51.9 136.1 C 52 135.4 52.1 134.9 52.2 134.5 C 52.4 134.1 52.5 133.8 52.8 133.6 C 53 133.5 53.4 133.4 53.8 133.4 C 54.5 133.4 55 133.7 55.2 134.5 C 55.5 135.2 55.6 136.4 55.6 138.1 C 55.6 138.7 55.6 139.2 55.5 139.7 C 55.5 140.2 55.4 140.6 55.2 141 C 55.1 141.3 54.9 141.6 54.6 141.8 C 54.4 142 54.1 142.1 53.7 142.1 C 53.3 142.1 53 142 52.8 141.8 C 52.5 141.6 52.3 141.3 52.2 141 C 52.1 140.6 52 140.2 51.9 139.8 C 51.9 139.4 51.9 138.9 51.9 138.4 C 51.9 137.5 51.9 136.7 51.9 136.1 Z M 55.6 131 L 55.6 132.6 C 55.6 132.6 55.57 132.56 55.6 132.6 C 55.2 131.8 54.8 131.3 54.2 131 C 53.7 130.8 53.2 130.6 52.7 130.6 C 51.7 130.6 50.9 130.9 50.4 131.3 C 49.8 131.7 49.3 132.3 49 133 C 48.7 133.6 48.5 134.4 48.4 135.3 C 48.3 136.1 48.3 136.9 48.3 137.8 C 48.3 140.3 48.7 142.1 49.4 143.2 C 50.1 144.3 51.2 144.8 52.6 144.8 C 53.2 144.8 53.7 144.7 54.2 144.4 C 54.8 144 55.2 143.6 55.6 143.1 C 55.57 143.11 55.6 143.1 55.6 143.1 C 55.6 143.1 55.63 144.96 55.6 145 C 55.6 145.7 55.5 146.2 55.2 146.7 C 54.9 147.2 54.4 147.4 53.6 147.4 C 53.4 147.4 53.2 147.4 53 147.3 C 52.8 147.2 52.6 147.1 52.5 147 C 52.1 146.8 51.9 146.4 51.9 145.9 C 51.9 145.9 48.5 145.9 48.5 145.9 C 48.5 147.1 48.9 148.1 49.7 148.7 C 50.5 149.4 51.7 149.7 53.2 149.7 C 55.3 149.7 56.8 149.2 57.7 148.3 C 58.6 147.4 59.1 146.1 59.1 144.3 C 59.06 144.28 59.1 131 59.1 131 L 55.6 131 Z M 60.9 126.4 L 60.9 145 L 64.5 145 L 64.5 140.9 L 65.8 139.2 L 68.8 145 L 72.7 145 L 68.1 136.5 L 72.1 131 L 68.2 131 L 64.6 136.2 L 64.5 136.2 L 64.5 126.4 L 60.9 126.4 Z M 79.5 140.7 C 79.5 141.1 79.5 141.5 79.3 141.7 C 79.2 142 79 142.2 78.8 142.4 C 78.6 142.6 78.3 142.7 78.1 142.8 C 77.8 142.9 77.6 142.9 77.3 142.9 C 76.9 142.9 76.5 142.7 76.3 142.3 C 76.1 142 76 141.5 76 141 C 76 140.3 76.1 139.8 76.5 139.5 C 76.8 139.1 77.3 138.8 78 138.7 C 78.2 138.6 78.5 138.6 78.8 138.4 C 79 138.3 79.3 138.2 79.5 138 C 79.5 138 79.5 140.7 79.5 140.7 Z M 76.2 135.3 C 76.2 135.3 76.22 134.9 76.2 134.9 C 76.2 134.3 76.4 133.9 76.6 133.6 C 76.9 133.2 77.3 133.1 77.9 133.1 C 78.5 133.1 78.9 133.2 79.2 133.5 C 79.4 133.8 79.5 134.3 79.5 134.8 C 79.5 135.3 79.4 135.6 79.2 135.9 C 79 136.1 78.7 136.3 78.1 136.4 C 78.1 136.4 76.1 137 76.1 137 C 75.5 137.2 74.9 137.4 74.5 137.6 C 74 137.8 73.7 138.1 73.4 138.4 C 73.1 138.8 72.9 139.2 72.8 139.6 C 72.6 140.1 72.6 140.7 72.6 141.3 C 72.6 141.8 72.6 142.3 72.7 142.8 C 72.9 143.2 73 143.7 73.3 144 C 73.6 144.4 73.9 144.7 74.3 144.9 C 74.8 145.2 75.3 145.3 75.9 145.3 C 76.8 145.3 77.5 145.2 78.1 144.9 C 78.6 144.7 79.1 144.3 79.5 143.5 C 79.5 143.5 79.5 143.5 79.5 143.5 C 79.6 143.8 79.7 144 79.7 144.3 C 79.8 144.5 79.9 144.8 80 145 C 80 145 83.4 145 83.4 145 C 83.2 144.6 83.1 144.2 83.1 143.8 C 83 143.5 83 142.9 83 142.3 C 83 142.3 83 134.9 83 134.9 C 83 134.3 82.9 133.7 82.8 133.2 C 82.7 132.7 82.4 132.2 82 131.8 C 81.7 131.4 81.2 131.2 80.5 130.9 C 79.8 130.7 79 130.6 77.9 130.6 C 77.2 130.6 76.6 130.7 76 130.9 C 75.4 131 74.9 131.2 74.4 131.6 C 74 131.9 73.6 132.4 73.4 132.9 C 73.1 133.5 73 134.1 73 134.9 C 72.99 134.95 73 135.3 73 135.3 L 76.2 135.3 Z M 84.7 145 L 88.3 145 C 88.3 145 88.33 135.78 88.3 135.8 C 88.3 134.9 88.5 134.3 88.8 134 C 89.2 133.6 89.6 133.4 90.2 133.4 C 90.7 133.4 91.1 133.5 91.3 133.9 C 91.5 134.2 91.6 134.6 91.6 135.2 C 91.61 135.21 91.6 145 91.6 145 L 95.2 145 C 95.2 145 95.2 135.78 95.2 135.8 C 95.2 134.9 95.4 134.3 95.7 134 C 96 133.6 96.5 133.4 97.1 133.4 C 97.6 133.4 97.9 133.5 98.1 133.9 C 98.4 134.2 98.5 134.6 98.5 135.2 C 98.47 135.21 98.5 145 98.5 145 L 102.1 145 C 102.1 145 102.06 134.82 102.1 134.8 C 102.1 133.5 101.8 132.4 101.2 131.7 C 100.7 131 99.8 130.6 98.6 130.6 C 97.7 130.6 97 130.8 96.4 131.2 C 95.8 131.6 95.3 132.1 95 132.9 C 95 132.9 95 132.9 95 132.9 C 94.8 132.1 94.4 131.6 93.9 131.2 C 93.3 130.8 92.6 130.6 91.8 130.6 C 91 130.6 90.3 130.8 89.8 131 C 89.2 131.3 88.7 131.8 88.2 132.4 C 88.23 132.43 88.2 132.4 88.2 132.4 L 88.2 131 L 84.7 131 L 84.7 145 Z M 103.7 149.5 L 107.3 149.5 L 107.3 143.7 C 107.3 143.7 107.31 143.69 107.3 143.7 C 107.7 144.2 108.1 144.6 108.6 144.9 C 109.1 145.1 109.7 145.3 110.3 145.3 C 111.8 145.3 112.9 144.7 113.6 143.6 C 114.3 142.5 114.6 140.6 114.6 138 C 114.6 135.4 114.3 133.5 113.6 132.4 C 112.9 131.2 111.8 130.6 110.3 130.6 C 109.6 130.6 109 130.8 108.5 131.1 C 108 131.3 107.6 131.8 107.2 132.5 C 107.16 132.48 107.1 132.5 107.1 132.5 L 107.1 131 L 103.7 131 L 103.7 149.5 Z M 107.6 134.5 C 107.8 133.8 108.4 133.4 109.2 133.4 C 109.9 133.4 110.4 133.8 110.7 134.5 C 110.9 135.3 111 136.5 111 138 C 111 139.5 110.9 140.7 110.7 141.4 C 110.4 142.2 109.9 142.6 109.2 142.6 C 108.4 142.6 107.8 142.2 107.6 141.4 C 107.4 140.7 107.3 139.5 107.3 138 C 107.3 136.5 107.4 135.3 107.6 134.5 Z M 123.1 145 L 126.5 145 L 126.5 131 L 122.9 131 C 122.9 131 122.91 140.28 122.9 140.3 C 122.9 141.8 122.3 142.6 121 142.6 C 120.5 142.6 120.1 142.5 119.8 142.2 C 119.6 141.9 119.5 141.4 119.5 140.6 C 119.48 140.64 119.5 131 119.5 131 L 115.9 131 C 115.9 131 115.89 141.37 115.9 141.4 C 115.9 142.8 116.2 143.8 116.8 144.4 C 117.4 145 118.3 145.3 119.5 145.3 C 120.2 145.3 120.9 145.1 121.5 144.8 C 122.1 144.5 122.6 144 123 143.3 C 123.02 143.35 123.1 143.3 123.1 143.3 L 123.1 145 Z M 127.5 140.4 C 127.5 140.4 127.51 140.9 127.5 140.9 C 127.5 141.6 127.6 142.2 127.7 142.7 C 127.9 143.3 128.2 143.7 128.6 144.1 C 129 144.5 129.5 144.8 130.2 145 C 130.8 145.2 131.7 145.3 132.7 145.3 C 133.4 145.3 134.1 145.2 134.8 145 C 135.4 144.9 135.9 144.6 136.4 144.3 C 136.9 143.9 137.2 143.4 137.5 142.9 C 137.7 142.3 137.9 141.7 137.9 141 C 137.9 139.9 137.6 139.1 137.2 138.4 C 136.7 137.8 135.9 137.3 134.8 137 C 134.8 137 132.6 136.2 132.6 136.2 C 132 136 131.6 135.8 131.4 135.5 C 131.2 135.2 131.1 134.9 131.1 134.6 C 131.1 134.1 131.2 133.7 131.6 133.5 C 131.9 133.2 132.3 133.1 132.7 133.1 C 133.3 133.1 133.7 133.2 134 133.6 C 134.2 133.9 134.3 134.5 134.3 135.2 C 134.33 135.18 137.6 135.2 137.6 135.2 C 137.6 135.2 137.55 134.61 137.6 134.6 C 137.6 133.3 137.2 132.4 136.4 131.7 C 135.6 131 134.4 130.6 132.8 130.6 C 131.8 130.6 131.1 130.7 130.4 131 C 129.8 131.2 129.2 131.5 128.8 131.9 C 128.4 132.3 128.1 132.7 127.9 133.2 C 127.7 133.7 127.6 134.3 127.6 134.8 C 127.6 135.8 127.9 136.6 128.4 137.3 C 128.9 137.9 129.6 138.4 130.6 138.7 C 130.6 138.7 133.1 139.7 133.1 139.7 C 133.5 139.8 133.8 140 134 140.2 C 134.3 140.4 134.4 140.8 134.4 141.2 C 134.4 141.8 134.3 142.2 133.9 142.5 C 133.6 142.8 133.2 142.9 132.6 142.9 C 132 142.9 131.5 142.7 131.2 142.3 C 130.9 142 130.7 141.5 130.7 140.9 C 130.74 140.88 130.7 140.4 130.7 140.4 L 127.5 140.4 Z " stroke="none" fill="#000"/>
  </g>
  <g id="Polygon19229">
    <path d="M 1.2 115 L 4.8 115 C 4.8 115 4.78 105.78 4.8 105.8 C 4.8 104.9 5 104.3 5.3 104 C 5.6 103.6 6.1 103.4 6.7 103.4 C 7.2 103.4 7.5 103.5 7.7 103.9 C 8 104.2 8.1 104.6 8.1 105.2 C 8.06 105.21 8.1 115 8.1 115 L 11.6 115 C 11.6 115 11.65 105.78 11.6 105.8 C 11.6 104.9 11.8 104.3 12.2 104 C 12.5 103.6 12.9 103.4 13.5 103.4 C 14 103.4 14.4 103.5 14.6 103.9 C 14.8 104.2 14.9 104.6 14.9 105.2 C 14.92 105.21 14.9 115 14.9 115 L 18.5 115 C 18.5 115 18.51 104.82 18.5 104.8 C 18.5 103.5 18.2 102.4 17.7 101.7 C 17.1 101 16.2 100.6 15 100.6 C 14.2 100.6 13.4 100.8 12.8 101.2 C 12.2 101.6 11.8 102.1 11.5 102.9 C 11.5 102.9 11.4 102.9 11.4 102.9 C 11.2 102.1 10.9 101.6 10.3 101.2 C 9.7 100.8 9 100.6 8.2 100.6 C 7.4 100.6 6.8 100.8 6.2 101 C 5.6 101.3 5.1 101.8 4.7 102.4 C 4.68 102.43 4.6 102.4 4.6 102.4 L 4.6 101 L 1.2 101 L 1.2 115 Z M 26.5 110.7 C 26.5 111.1 26.4 111.5 26.2 111.7 C 26.1 112 25.9 112.2 25.7 112.4 C 25.5 112.6 25.3 112.7 25 112.8 C 24.7 112.9 24.5 112.9 24.2 112.9 C 23.8 112.9 23.4 112.7 23.2 112.3 C 23 112 22.9 111.5 22.9 111 C 22.9 110.3 23 109.8 23.4 109.5 C 23.7 109.1 24.2 108.8 24.9 108.7 C 25.1 108.6 25.4 108.6 25.7 108.4 C 25.9 108.3 26.2 108.2 26.5 108 C 26.5 108 26.5 110.7 26.5 110.7 Z M 23.1 105.3 C 23.1 105.3 23.12 104.9 23.1 104.9 C 23.1 104.3 23.3 103.9 23.5 103.6 C 23.8 103.2 24.2 103.1 24.8 103.1 C 25.4 103.1 25.8 103.2 26.1 103.5 C 26.3 103.8 26.5 104.3 26.5 104.8 C 26.5 105.3 26.3 105.6 26.1 105.9 C 25.9 106.1 25.6 106.3 25 106.4 C 25 106.4 23 107 23 107 C 22.4 107.2 21.8 107.4 21.4 107.6 C 21 107.8 20.6 108.1 20.3 108.4 C 20 108.8 19.8 109.2 19.7 109.6 C 19.5 110.1 19.5 110.7 19.5 111.3 C 19.5 111.8 19.5 112.3 19.6 112.8 C 19.8 113.2 20 113.7 20.2 114 C 20.5 114.4 20.8 114.7 21.3 114.9 C 21.7 115.2 22.2 115.3 22.8 115.3 C 23.7 115.3 24.4 115.2 25 114.9 C 25.5 114.7 26 114.3 26.4 113.5 C 26.4 113.5 26.5 113.5 26.5 113.5 C 26.5 113.8 26.6 114 26.6 114.3 C 26.7 114.5 26.8 114.8 26.9 115 C 26.9 115 30.3 115 30.3 115 C 30.2 114.6 30 114.2 30 113.8 C 29.9 113.5 29.9 112.9 29.9 112.3 C 29.9 112.3 29.9 104.9 29.9 104.9 C 29.9 104.3 29.8 103.7 29.7 103.2 C 29.6 102.7 29.3 102.2 28.9 101.8 C 28.6 101.4 28.1 101.2 27.4 100.9 C 26.8 100.7 25.9 100.6 24.8 100.6 C 24.1 100.6 23.5 100.7 22.9 100.9 C 22.3 101 21.8 101.2 21.3 101.6 C 20.9 101.9 20.6 102.4 20.3 102.9 C 20 103.5 19.9 104.1 19.9 104.9 C 19.9 104.95 19.9 105.3 19.9 105.3 L 23.1 105.3 Z M 31.5 115 L 35 115 C 35 115 35.04 105.78 35 105.8 C 35 104.9 35.2 104.3 35.5 104 C 35.9 103.6 36.3 103.4 36.9 103.4 C 37.4 103.4 37.8 103.5 38 103.9 C 38.2 104.2 38.3 104.6 38.3 105.2 C 38.32 105.21 38.3 115 38.3 115 L 41.9 115 C 41.9 115 41.91 105.78 41.9 105.8 C 41.9 104.9 42.1 104.3 42.4 104 C 42.8 103.6 43.2 103.4 43.8 103.4 C 44.3 103.4 44.6 103.5 44.9 103.9 C 45.1 104.2 45.2 104.6 45.2 105.2 C 45.18 105.21 45.2 115 45.2 115 L 48.8 115 C 48.8 115 48.77 104.82 48.8 104.8 C 48.8 103.5 48.5 102.4 47.9 101.7 C 47.4 101 46.5 100.6 45.3 100.6 C 44.4 100.6 43.7 100.8 43.1 101.2 C 42.5 101.6 42 102.1 41.8 102.9 C 41.8 102.9 41.7 102.9 41.7 102.9 C 41.5 102.1 41.1 101.6 40.6 101.2 C 40 100.8 39.3 100.6 38.5 100.6 C 37.7 100.6 37 100.8 36.5 101 C 35.9 101.3 35.4 101.8 34.9 102.4 C 34.94 102.43 34.9 102.4 34.9 102.4 L 34.9 101 L 31.5 101 L 31.5 115 Z M 56.7 110.7 C 56.7 111.1 56.6 111.5 56.5 111.7 C 56.4 112 56.2 112.2 56 112.4 C 55.8 112.6 55.5 112.7 55.3 112.8 C 55 112.9 54.7 112.9 54.5 112.9 C 54 112.9 53.7 112.7 53.5 112.3 C 53.3 112 53.1 111.5 53.1 111 C 53.1 110.3 53.3 109.8 53.6 109.5 C 53.9 109.1 54.4 108.8 55.2 108.7 C 55.4 108.6 55.7 108.6 55.9 108.4 C 56.2 108.3 56.5 108.2 56.7 108 C 56.7 108 56.7 110.7 56.7 110.7 Z M 53.4 105.3 C 53.4 105.3 53.38 104.9 53.4 104.9 C 53.4 104.3 53.5 103.9 53.8 103.6 C 54.1 103.2 54.5 103.1 55 103.1 C 55.7 103.1 56.1 103.2 56.3 103.5 C 56.6 103.8 56.7 104.3 56.7 104.8 C 56.7 105.3 56.6 105.6 56.4 105.9 C 56.2 106.1 55.8 106.3 55.3 106.4 C 55.3 106.4 53.3 107 53.3 107 C 52.6 107.2 52.1 107.4 51.7 107.6 C 51.2 107.8 50.8 108.1 50.6 108.4 C 50.3 108.8 50.1 109.2 49.9 109.6 C 49.8 110.1 49.7 110.7 49.7 111.3 C 49.7 111.8 49.8 112.3 49.9 112.8 C 50 113.2 50.2 113.7 50.5 114 C 50.7 114.4 51.1 114.7 51.5 114.9 C 51.9 115.2 52.5 115.3 53.1 115.3 C 54 115.3 54.7 115.2 55.2 114.9 C 55.8 114.7 56.2 114.3 56.7 113.5 C 56.7 113.5 56.7 113.5 56.7 113.5 C 56.8 113.8 56.8 114 56.9 114.3 C 56.9 114.5 57 114.8 57.2 115 C 57.2 115 60.6 115 60.6 115 C 60.4 114.6 60.3 114.2 60.2 113.8 C 60.2 113.5 60.1 112.9 60.1 112.3 C 60.1 112.3 60.1 104.9 60.1 104.9 C 60.1 104.3 60.1 103.7 59.9 103.2 C 59.8 102.7 59.6 102.2 59.2 101.8 C 58.8 101.4 58.3 101.2 57.7 100.9 C 57 100.7 56.1 100.6 55.1 100.6 C 54.4 100.6 53.8 100.7 53.2 100.9 C 52.6 101 52 101.2 51.6 101.6 C 51.2 101.9 50.8 102.4 50.5 102.9 C 50.3 103.5 50.2 104.1 50.2 104.9 C 50.16 104.95 50.2 105.3 50.2 105.3 L 53.4 105.3 Z M 61.7 115 L 65.3 115 C 65.3 115 65.3 105.78 65.3 105.8 C 65.3 104.9 65.5 104.3 65.8 104 C 66.1 103.6 66.6 103.4 67.2 103.4 C 67.7 103.4 68 103.5 68.3 103.9 C 68.5 104.2 68.6 104.6 68.6 105.2 C 68.58 105.21 68.6 115 68.6 115 L 72.2 115 C 72.2 115 72.16 105.78 72.2 105.8 C 72.2 104.9 72.3 104.3 72.7 104 C 73 103.6 73.5 103.4 74 103.4 C 74.5 103.4 74.9 103.5 75.1 103.9 C 75.3 104.2 75.4 104.6 75.4 105.2 C 75.44 105.21 75.4 115 75.4 115 L 79 115 C 79 115 79.03 104.82 79 104.8 C 79 103.5 78.7 102.4 78.2 101.7 C 77.6 101 76.7 100.6 75.5 100.6 C 74.7 100.6 74 100.8 73.3 101.2 C 72.7 101.6 72.3 102.1 72 102.9 C 72 102.9 72 102.9 72 102.9 C 71.8 102.1 71.4 101.6 70.8 101.2 C 70.3 100.8 69.6 100.6 68.7 100.6 C 68 100.6 67.3 100.8 66.7 101 C 66.2 101.3 65.6 101.8 65.2 102.4 C 65.2 102.43 65.1 102.4 65.1 102.4 L 65.1 101 L 61.7 101 L 61.7 115 Z M 87 110.7 C 87 111.1 86.9 111.5 86.8 111.7 C 86.6 112 86.4 112.2 86.2 112.4 C 86 112.6 85.8 112.7 85.5 112.8 C 85.3 112.9 85 112.9 84.8 112.9 C 84.3 112.9 83.9 112.7 83.7 112.3 C 83.5 112 83.4 111.5 83.4 111 C 83.4 110.3 83.6 109.8 83.9 109.5 C 84.2 109.1 84.7 108.8 85.4 108.7 C 85.7 108.6 85.9 108.6 86.2 108.4 C 86.5 108.3 86.7 108.2 87 108 C 87 108 87 110.7 87 110.7 Z M 83.6 105.3 C 83.6 105.3 83.64 104.9 83.6 104.9 C 83.6 104.3 83.8 103.9 84.1 103.6 C 84.3 103.2 84.7 103.1 85.3 103.1 C 85.9 103.1 86.3 103.2 86.6 103.5 C 86.8 103.8 87 104.3 87 104.8 C 87 105.3 86.9 105.6 86.7 105.9 C 86.4 106.1 86.1 106.3 85.5 106.4 C 85.5 106.4 83.5 107 83.5 107 C 82.9 107.2 82.4 107.4 81.9 107.6 C 81.5 107.8 81.1 108.1 80.8 108.4 C 80.5 108.8 80.3 109.2 80.2 109.6 C 80 110.1 80 110.7 80 111.3 C 80 111.8 80 112.3 80.2 112.8 C 80.3 113.2 80.5 113.7 80.7 114 C 81 114.4 81.3 114.7 81.8 114.9 C 82.2 115.2 82.7 115.3 83.4 115.3 C 84.2 115.3 84.9 115.2 85.5 114.9 C 86 114.7 86.5 114.3 86.9 113.5 C 86.9 113.5 87 113.5 87 113.5 C 87 113.8 87.1 114 87.1 114.3 C 87.2 114.5 87.3 114.8 87.4 115 C 87.4 115 90.8 115 90.8 115 C 90.7 114.6 90.6 114.2 90.5 113.8 C 90.4 113.5 90.4 112.9 90.4 112.3 C 90.4 112.3 90.4 104.9 90.4 104.9 C 90.4 104.3 90.3 103.7 90.2 103.2 C 90.1 102.7 89.8 102.2 89.5 101.8 C 89.1 101.4 88.6 101.2 87.9 100.9 C 87.3 100.7 86.4 100.6 85.3 100.6 C 84.7 100.6 84 100.7 83.4 100.9 C 82.8 101 82.3 101.2 81.9 101.6 C 81.4 101.9 81.1 102.4 80.8 102.9 C 80.5 103.5 80.4 104.1 80.4 104.9 C 80.42 104.95 80.4 105.3 80.4 105.3 L 83.6 105.3 Z M 92 115 L 95.6 115 C 95.6 115 95.56 105.7 95.6 105.7 C 95.6 104.2 96.2 103.4 97.5 103.4 C 98 103.4 98.4 103.5 98.6 103.8 C 98.9 104.1 99 104.6 99 105.3 C 98.99 105.34 99 115 99 115 L 102.6 115 C 102.6 115 102.58 104.61 102.6 104.6 C 102.6 103.2 102.3 102.2 101.7 101.6 C 101 100.9 100.2 100.6 99 100.6 C 97.4 100.6 96.3 101.2 95.6 102.4 C 95.61 102.43 95.6 102.4 95.6 102.4 L 95.6 96.4 L 92 96.4 L 92 115 Z M 110.5 110.7 C 110.5 111.1 110.4 111.5 110.3 111.7 C 110.2 112 110 112.2 109.8 112.4 C 109.6 112.6 109.3 112.7 109.1 112.8 C 108.8 112.9 108.6 112.9 108.3 112.9 C 107.8 112.9 107.5 112.7 107.3 112.3 C 107.1 112 107 111.5 107 111 C 107 110.3 107.1 109.8 107.4 109.5 C 107.7 109.1 108.3 108.8 109 108.7 C 109.2 108.6 109.5 108.6 109.7 108.4 C 110 108.3 110.3 108.2 110.5 108 C 110.5 108 110.5 110.7 110.5 110.7 Z M 107.2 105.3 C 107.2 105.3 107.19 104.9 107.2 104.9 C 107.2 104.3 107.3 103.9 107.6 103.6 C 107.9 103.2 108.3 103.1 108.9 103.1 C 109.5 103.1 109.9 103.2 110.1 103.5 C 110.4 103.8 110.5 104.3 110.5 104.8 C 110.5 105.3 110.4 105.6 110.2 105.9 C 110 106.1 109.6 106.3 109.1 106.4 C 109.1 106.4 107.1 107 107.1 107 C 106.4 107.2 105.9 107.4 105.5 107.6 C 105 107.8 104.7 108.1 104.4 108.4 C 104.1 108.8 103.9 109.2 103.7 109.6 C 103.6 110.1 103.5 110.7 103.5 111.3 C 103.5 111.8 103.6 112.3 103.7 112.8 C 103.8 113.2 104 113.7 104.3 114 C 104.5 114.4 104.9 114.7 105.3 114.9 C 105.8 115.2 106.3 115.3 106.9 115.3 C 107.8 115.3 108.5 115.2 109 114.9 C 109.6 114.7 110.1 114.3 110.5 113.5 C 110.5 113.5 110.5 113.5 110.5 113.5 C 110.6 113.8 110.6 114 110.7 114.3 C 110.7 114.5 110.8 114.8 111 115 C 111 115 114.4 115 114.4 115 C 114.2 114.6 114.1 114.2 114 113.8 C 114 113.5 114 112.9 114 112.3 C 114 112.3 114 104.9 114 104.9 C 114 104.3 113.9 103.7 113.8 103.2 C 113.6 102.7 113.4 102.2 113 101.8 C 112.7 101.4 112.1 101.2 111.5 100.9 C 110.8 100.7 110 100.6 108.9 100.6 C 108.2 100.6 107.6 100.7 107 100.9 C 106.4 101 105.9 101.2 105.4 101.6 C 105 101.9 104.6 102.4 104.4 102.9 C 104.1 103.5 104 104.1 104 104.9 C 103.97 104.95 104 105.3 104 105.3 L 107.2 105.3 Z M 115.5 119.5 C 115.5 119.5 116.98 119.48 117 119.5 C 117.8 119.5 118.5 119.4 119 119.3 C 119.6 119.2 120.1 118.9 120.4 118.5 C 120.8 118.1 121.2 117.6 121.5 116.9 C 121.7 116.2 122 115.2 122.4 114 C 122.36 114.05 125.7 101 125.7 101 L 122.2 101 L 120.3 110.7 L 120.3 110.7 L 118.2 101 L 114.5 101 C 114.5 101 118.38 114.99 118.4 115 C 118.3 115.6 118.2 116 117.9 116.4 C 117.6 116.7 117.1 116.9 116.5 116.9 C 116.1 116.9 115.8 116.9 115.5 116.8 C 115.52 116.81 115.5 119.5 115.5 119.5 Z M 132.9 110.7 C 132.9 111.1 132.8 111.5 132.7 111.7 C 132.5 112 132.3 112.2 132.1 112.4 C 131.9 112.6 131.7 112.7 131.4 112.8 C 131.2 112.9 130.9 112.9 130.7 112.9 C 130.2 112.9 129.8 112.7 129.6 112.3 C 129.4 112 129.3 111.5 129.3 111 C 129.3 110.3 129.5 109.8 129.8 109.5 C 130.1 109.1 130.6 108.8 131.3 108.7 C 131.6 108.6 131.8 108.6 132.1 108.4 C 132.4 108.3 132.6 108.2 132.9 108 C 132.9 108 132.9 110.7 132.9 110.7 Z M 129.5 105.3 C 129.5 105.3 129.54 104.9 129.5 104.9 C 129.5 104.3 129.7 103.9 130 103.6 C 130.2 103.2 130.7 103.1 131.2 103.1 C 131.8 103.1 132.2 103.2 132.5 103.5 C 132.7 103.8 132.9 104.3 132.9 104.8 C 132.9 105.3 132.8 105.6 132.6 105.9 C 132.4 106.1 132 106.3 131.4 106.4 C 131.4 106.4 129.4 107 129.4 107 C 128.8 107.2 128.3 107.4 127.8 107.6 C 127.4 107.8 127 108.1 126.7 108.4 C 126.4 108.8 126.2 109.2 126.1 109.6 C 125.9 110.1 125.9 110.7 125.9 111.3 C 125.9 111.8 125.9 112.3 126.1 112.8 C 126.2 113.2 126.4 113.7 126.6 114 C 126.9 114.4 127.2 114.7 127.7 114.9 C 128.1 115.2 128.6 115.3 129.3 115.3 C 130.1 115.3 130.8 115.2 131.4 114.9 C 131.9 114.7 132.4 114.3 132.8 113.5 C 132.8 113.5 132.9 113.5 132.9 113.5 C 132.9 113.8 133 114 133 114.3 C 133.1 114.5 133.2 114.8 133.3 115 C 133.3 115 136.7 115 136.7 115 C 136.6 114.6 136.5 114.2 136.4 113.8 C 136.3 113.5 136.3 112.9 136.3 112.3 C 136.3 112.3 136.3 104.9 136.3 104.9 C 136.3 104.3 136.2 103.7 136.1 103.2 C 136 102.7 135.7 102.2 135.4 101.8 C 135 101.4 134.5 101.2 133.8 100.9 C 133.2 100.7 132.3 100.6 131.2 100.6 C 130.6 100.6 129.9 100.7 129.3 100.9 C 128.7 101 128.2 101.2 127.8 101.6 C 127.3 101.9 127 102.4 126.7 102.9 C 126.5 103.5 126.3 104.1 126.3 104.9 C 126.32 104.95 126.3 105.3 126.3 105.3 L 129.5 105.3 Z M 141.2 106.1 C 141.3 105.4 141.4 104.9 141.5 104.5 C 141.7 104.1 141.8 103.8 142.1 103.6 C 142.3 103.5 142.6 103.4 143 103.4 C 143.8 103.4 144.2 103.7 144.5 104.5 C 144.8 105.2 144.9 106.4 144.9 108.1 C 144.9 108.7 144.9 109.2 144.8 109.7 C 144.8 110.2 144.7 110.6 144.5 111 C 144.4 111.3 144.2 111.6 143.9 111.8 C 143.7 112 143.4 112.1 143 112.1 C 142.6 112.1 142.3 112 142 111.8 C 141.8 111.6 141.6 111.3 141.5 111 C 141.4 110.6 141.3 110.2 141.2 109.8 C 141.2 109.4 141.2 108.9 141.2 108.4 C 141.2 107.5 141.2 106.7 141.2 106.1 Z M 144.9 101 L 144.9 102.6 C 144.9 102.6 144.87 102.56 144.9 102.6 C 144.5 101.8 144.1 101.3 143.5 101 C 143 100.8 142.5 100.6 142 100.6 C 141 100.6 140.2 100.9 139.7 101.3 C 139.1 101.7 138.6 102.3 138.3 103 C 138 103.6 137.8 104.4 137.7 105.3 C 137.6 106.1 137.6 106.9 137.6 107.8 C 137.6 110.3 137.9 112.1 138.7 113.2 C 139.4 114.3 140.5 114.8 141.9 114.8 C 142.5 114.8 143 114.7 143.5 114.4 C 144.1 114 144.5 113.6 144.9 113.1 C 144.87 113.11 144.9 113.1 144.9 113.1 C 144.9 113.1 144.92 114.96 144.9 115 C 144.9 115.7 144.8 116.2 144.5 116.7 C 144.2 117.2 143.7 117.4 142.9 117.4 C 142.7 117.4 142.5 117.4 142.3 117.3 C 142.1 117.2 141.9 117.1 141.7 117 C 141.4 116.8 141.2 116.4 141.2 115.9 C 141.2 115.9 137.8 115.9 137.8 115.9 C 137.8 117.1 138.2 118.1 139 118.7 C 139.8 119.4 141 119.7 142.5 119.7 C 144.6 119.7 146.1 119.2 147 118.3 C 147.9 117.4 148.4 116.1 148.4 114.3 C 148.35 114.28 148.4 101 148.4 101 L 144.9 101 Z " stroke="none" fill="#000"/>
  </g>
  <g id="Polygon19228">
    <path d="M 11.8 89.5 L 15.4 89.5 L 15.4 83.7 C 15.4 83.7 15.42 83.69 15.4 83.7 C 15.8 84.2 16.2 84.6 16.7 84.9 C 17.2 85.1 17.8 85.3 18.4 85.3 C 19.9 85.3 21 84.7 21.7 83.6 C 22.4 82.5 22.7 80.6 22.7 78 C 22.7 75.4 22.4 73.5 21.7 72.4 C 21 71.2 19.9 70.6 18.4 70.6 C 17.7 70.6 17.1 70.8 16.6 71.1 C 16.1 71.3 15.7 71.8 15.3 72.5 C 15.26 72.48 15.2 72.5 15.2 72.5 L 15.2 71 L 11.8 71 L 11.8 89.5 Z M 15.7 74.5 C 15.9 73.8 16.5 73.4 17.3 73.4 C 18 73.4 18.5 73.8 18.8 74.5 C 19 75.3 19.1 76.5 19.1 78 C 19.1 79.5 19 80.7 18.8 81.4 C 18.5 82.2 18 82.6 17.3 82.6 C 16.5 82.6 15.9 82.2 15.7 81.4 C 15.5 80.7 15.4 79.5 15.4 78 C 15.4 76.5 15.5 75.3 15.7 74.5 Z M 24 85 L 27.6 85 C 27.6 85 27.58 76.59 27.6 76.6 C 27.6 76.1 27.7 75.7 27.8 75.4 C 28 75.1 28.2 74.8 28.4 74.6 C 28.7 74.4 29 74.3 29.3 74.2 C 29.6 74.1 29.9 74.1 30.2 74.1 C 30.4 74.1 30.6 74.1 30.8 74.1 C 31 74.1 31.2 74.1 31.4 74.1 C 31.4 74.1 31.4 70.7 31.4 70.7 C 31.3 70.7 31.1 70.7 31 70.6 C 30.9 70.6 30.8 70.6 30.7 70.6 C 30 70.6 29.3 70.8 28.8 71.2 C 28.3 71.7 27.8 72.2 27.5 72.9 C 27.48 72.87 27.4 72.9 27.4 72.9 L 27.4 71 L 24 71 L 24 85 Z M 35 76 C 35.1 75.4 35.2 74.9 35.3 74.5 C 35.4 74 35.6 73.7 35.9 73.4 C 36.1 73.2 36.5 73.1 36.9 73.1 C 37.6 73.1 38.1 73.5 38.4 74.2 C 38.7 75 38.8 76.2 38.8 78 C 38.8 79.7 38.7 81 38.4 81.8 C 38.1 82.5 37.6 82.9 36.9 82.9 C 36.5 82.9 36.1 82.8 35.9 82.5 C 35.6 82.3 35.4 82 35.3 81.5 C 35.2 81.1 35.1 80.6 35 80 C 35 79.4 35 78.7 35 78 C 35 77.3 35 76.6 35 76 Z M 31.7 81.2 C 31.8 82.1 32.1 82.9 32.6 83.5 C 33 84.1 33.5 84.6 34.2 84.9 C 35 85.2 35.8 85.3 36.9 85.3 C 37.9 85.3 38.8 85.1 39.5 84.8 C 40.2 84.5 40.8 84.1 41.2 83.5 C 41.6 82.8 42 82.1 42.1 81.2 C 42.3 80.2 42.4 79.2 42.4 78 C 42.4 76.8 42.3 75.7 42.2 74.8 C 42 73.8 41.7 73.1 41.3 72.5 C 40.9 71.8 40.3 71.4 39.6 71.1 C 38.9 70.8 38 70.6 36.9 70.6 C 35.9 70.6 35 70.8 34.3 71.1 C 33.6 71.4 33.1 71.9 32.6 72.5 C 32.2 73.1 31.9 73.9 31.7 74.8 C 31.5 75.7 31.4 76.8 31.4 78 C 31.4 79.2 31.5 80.3 31.7 81.2 Z M 46.9 76.1 C 47 75.4 47.1 74.9 47.2 74.5 C 47.4 74.1 47.5 73.8 47.8 73.6 C 48 73.5 48.3 73.4 48.7 73.4 C 49.5 73.4 49.9 73.7 50.2 74.5 C 50.5 75.2 50.6 76.4 50.6 78.1 C 50.6 78.7 50.6 79.2 50.5 79.7 C 50.5 80.2 50.4 80.6 50.2 81 C 50.1 81.3 49.9 81.6 49.6 81.8 C 49.4 82 49.1 82.1 48.7 82.1 C 48.3 82.1 48 82 47.7 81.8 C 47.5 81.6 47.3 81.3 47.2 81 C 47.1 80.6 47 80.2 46.9 79.8 C 46.9 79.4 46.9 78.9 46.9 78.4 C 46.9 77.5 46.9 76.7 46.9 76.1 Z M 50.6 71 L 50.6 72.6 C 50.6 72.6 50.57 72.56 50.6 72.6 C 50.2 71.8 49.8 71.3 49.2 71 C 48.7 70.8 48.2 70.6 47.7 70.6 C 46.7 70.6 45.9 70.9 45.4 71.3 C 44.8 71.7 44.3 72.3 44 73 C 43.7 73.6 43.5 74.4 43.4 75.3 C 43.3 76.1 43.3 76.9 43.3 77.8 C 43.3 80.3 43.6 82.1 44.4 83.2 C 45.1 84.3 46.2 84.8 47.6 84.8 C 48.2 84.8 48.7 84.7 49.2 84.4 C 49.8 84 50.2 83.6 50.6 83.1 C 50.57 83.11 50.6 83.1 50.6 83.1 C 50.6 83.1 50.62 84.96 50.6 85 C 50.6 85.7 50.5 86.2 50.2 86.7 C 49.9 87.2 49.4 87.4 48.6 87.4 C 48.4 87.4 48.2 87.4 48 87.3 C 47.8 87.2 47.6 87.1 47.4 87 C 47.1 86.8 46.9 86.4 46.9 85.9 C 46.9 85.9 43.5 85.9 43.5 85.9 C 43.5 87.1 43.9 88.1 44.7 88.7 C 45.5 89.4 46.7 89.7 48.2 89.7 C 50.3 89.7 51.8 89.2 52.7 88.3 C 53.6 87.4 54.1 86.1 54.1 84.3 C 54.05 84.28 54.1 71 54.1 71 L 50.6 71 Z M 55.8 85 L 59.4 85 C 59.4 85 59.38 76.59 59.4 76.6 C 59.4 76.1 59.5 75.7 59.6 75.4 C 59.8 75.1 60 74.8 60.2 74.6 C 60.5 74.4 60.8 74.3 61.1 74.2 C 61.4 74.1 61.7 74.1 62 74.1 C 62.2 74.1 62.4 74.1 62.6 74.1 C 62.8 74.1 63 74.1 63.2 74.1 C 63.2 74.1 63.2 70.7 63.2 70.7 C 63 70.7 62.9 70.7 62.8 70.6 C 62.7 70.6 62.6 70.6 62.5 70.6 C 61.8 70.6 61.1 70.8 60.6 71.2 C 60.1 71.7 59.6 72.2 59.3 72.9 C 59.28 72.87 59.2 72.9 59.2 72.9 L 59.2 71 L 55.8 71 L 55.8 85 Z M 66.7 76.4 C 66.7 76.4 66.74 75.86 66.7 75.9 C 66.7 75.5 66.8 75.2 66.8 74.9 C 66.9 74.5 67 74.2 67.1 74 C 67.3 73.7 67.5 73.5 67.7 73.3 C 67.9 73.2 68.2 73.1 68.6 73.1 C 69 73.1 69.2 73.2 69.5 73.3 C 69.7 73.4 69.9 73.7 70 73.9 C 70.2 74.2 70.3 74.6 70.3 75 C 70.4 75.4 70.4 75.9 70.4 76.4 C 70.41 76.41 66.7 76.4 66.7 76.4 Z M 73.8 78.5 C 73.8 78.5 73.84 77.73 73.8 77.7 C 73.8 76.7 73.8 75.7 73.6 74.8 C 73.5 73.9 73.2 73.2 72.9 72.6 C 72.5 72 71.9 71.5 71.3 71.1 C 70.6 70.8 69.8 70.6 68.7 70.6 C 67.5 70.6 66.5 70.8 65.8 71.2 C 65.1 71.6 64.5 72.2 64.1 72.8 C 63.7 73.5 63.5 74.3 63.3 75.2 C 63.2 76 63.2 76.9 63.2 77.9 C 63.2 78.7 63.2 79.6 63.3 80.5 C 63.3 81.4 63.6 82.2 63.9 82.9 C 64.3 83.6 64.8 84.2 65.5 84.6 C 66.2 85.1 67.3 85.3 68.6 85.3 C 70.3 85.3 71.5 84.8 72.3 84 C 73.1 83.1 73.6 81.9 73.6 80.3 C 73.6 80.3 70.4 80.3 70.4 80.3 C 70.3 81.2 70.1 81.8 69.8 82.3 C 69.6 82.7 69.1 82.9 68.5 82.9 C 68.2 82.9 67.9 82.8 67.7 82.6 C 67.5 82.5 67.3 82.2 67.1 81.9 C 67 81.6 66.9 81.3 66.8 80.9 C 66.8 80.5 66.7 80.1 66.7 79.7 C 66.74 79.66 66.7 78.5 66.7 78.5 L 73.8 78.5 Z M 74.3 80.4 C 74.3 80.4 74.33 80.9 74.3 80.9 C 74.3 81.6 74.4 82.2 74.6 82.7 C 74.7 83.3 75 83.7 75.4 84.1 C 75.8 84.5 76.3 84.8 77 85 C 77.6 85.2 78.5 85.3 79.5 85.3 C 80.2 85.3 80.9 85.2 81.6 85 C 82.2 84.9 82.8 84.6 83.2 84.3 C 83.7 83.9 84 83.4 84.3 82.9 C 84.6 82.3 84.7 81.7 84.7 81 C 84.7 79.9 84.4 79.1 84 78.4 C 83.5 77.8 82.7 77.3 81.6 77 C 81.6 77 79.4 76.2 79.4 76.2 C 78.8 76 78.4 75.8 78.2 75.5 C 78 75.2 77.9 74.9 77.9 74.6 C 77.9 74.1 78 73.7 78.4 73.5 C 78.7 73.2 79.1 73.1 79.6 73.1 C 80.1 73.1 80.6 73.2 80.8 73.6 C 81 73.9 81.1 74.5 81.1 75.2 C 81.14 75.18 84.4 75.2 84.4 75.2 C 84.4 75.2 84.37 74.61 84.4 74.6 C 84.4 73.3 84 72.4 83.2 71.7 C 82.4 71 81.2 70.6 79.6 70.6 C 78.7 70.6 77.9 70.7 77.2 71 C 76.6 71.2 76 71.5 75.6 71.9 C 75.2 72.3 74.9 72.7 74.7 73.2 C 74.5 73.7 74.4 74.3 74.4 74.8 C 74.4 75.8 74.7 76.6 75.2 77.3 C 75.7 77.9 76.4 78.4 77.4 78.7 C 77.4 78.7 79.9 79.7 79.9 79.7 C 80.3 79.8 80.6 80 80.9 80.2 C 81.1 80.4 81.2 80.8 81.2 81.2 C 81.2 81.8 81.1 82.2 80.8 82.5 C 80.4 82.8 80 82.9 79.4 82.9 C 78.8 82.9 78.4 82.7 78 82.3 C 77.7 82 77.6 81.5 77.6 80.9 C 77.56 80.88 77.6 80.4 77.6 80.4 L 74.3 80.4 Z M 85.8 69.3 L 89.4 69.3 L 89.4 66.2 L 85.8 66.2 L 85.8 69.3 Z M 85.8 85 L 89.4 85 L 89.4 71 L 85.8 71 L 85.8 85 Z M 91.2 85 L 94.6 85 L 94.6 83.5 C 94.6 83.5 94.64 83.5 94.6 83.5 C 95 84.2 95.5 84.6 96 84.9 C 96.5 85.1 97.1 85.3 97.8 85.3 C 99.3 85.3 100.4 84.7 101.1 83.6 C 101.8 82.5 102.1 80.6 102.1 78 C 102.1 75.4 101.8 73.5 101.1 72.4 C 100.4 71.2 99.3 70.6 97.8 70.6 C 97.1 70.6 96.6 70.8 96.1 71 C 95.6 71.3 95.2 71.7 94.8 72.3 C 94.79 72.3 94.7 72.3 94.7 72.3 L 94.7 66.4 L 91.2 66.4 L 91.2 85 Z M 95.1 74.5 C 95.3 73.8 95.8 73.4 96.6 73.4 C 97.4 73.4 97.9 73.8 98.2 74.5 C 98.4 75.3 98.5 76.5 98.5 78 C 98.5 79.5 98.4 80.7 98.2 81.4 C 97.9 82.2 97.4 82.6 96.6 82.6 C 95.8 82.6 95.3 82.2 95.1 81.4 C 94.9 80.7 94.7 79.5 94.7 78 C 94.7 76.5 94.9 75.3 95.1 74.5 Z M 106.5 76 C 106.6 75.4 106.7 74.9 106.8 74.5 C 106.9 74 107.1 73.7 107.4 73.4 C 107.6 73.2 108 73.1 108.4 73.1 C 109.1 73.1 109.6 73.5 109.9 74.2 C 110.2 75 110.3 76.2 110.3 78 C 110.3 79.7 110.2 81 109.9 81.8 C 109.6 82.5 109.1 82.9 108.4 82.9 C 108 82.9 107.6 82.8 107.4 82.5 C 107.1 82.3 106.9 82 106.8 81.5 C 106.7 81.1 106.6 80.6 106.5 80 C 106.5 79.4 106.5 78.7 106.5 78 C 106.5 77.3 106.5 76.6 106.5 76 Z M 103.2 81.2 C 103.3 82.1 103.6 82.9 104 83.5 C 104.5 84.1 105 84.6 105.7 84.9 C 106.5 85.2 107.3 85.3 108.4 85.3 C 109.4 85.3 110.3 85.1 111 84.8 C 111.7 84.5 112.3 84.1 112.7 83.5 C 113.1 82.8 113.5 82.1 113.6 81.2 C 113.8 80.2 113.9 79.2 113.9 78 C 113.9 76.8 113.8 75.7 113.7 74.8 C 113.5 73.8 113.2 73.1 112.8 72.5 C 112.4 71.8 111.8 71.4 111.1 71.1 C 110.4 70.8 109.5 70.6 108.4 70.6 C 107.4 70.6 106.5 70.8 105.8 71.1 C 105.1 71.4 104.6 71.9 104.1 72.5 C 103.7 73.1 103.4 73.9 103.2 74.8 C 103 75.7 102.9 76.8 102.9 78 C 102.9 79.2 103 80.3 103.2 81.2 Z M 115.1 85 L 118.7 85 C 118.7 85 118.66 75.7 118.7 75.7 C 118.7 74.2 119.3 73.4 120.6 73.4 C 121.1 73.4 121.5 73.5 121.7 73.8 C 122 74.1 122.1 74.6 122.1 75.3 C 122.09 75.34 122.1 85 122.1 85 L 125.7 85 C 125.7 85 125.68 74.61 125.7 74.6 C 125.7 73.2 125.4 72.2 124.8 71.6 C 124.1 70.9 123.3 70.6 122.1 70.6 C 121.3 70.6 120.6 70.8 120 71.1 C 119.4 71.4 118.9 71.9 118.6 72.6 C 118.56 72.64 118.5 72.6 118.5 72.6 L 118.5 71 L 115.1 71 L 115.1 85 Z M 130.7 76.1 C 130.7 75.4 130.8 74.9 130.9 74.5 C 131.1 74.1 131.3 73.8 131.5 73.6 C 131.7 73.5 132.1 73.4 132.5 73.4 C 133.2 73.4 133.7 73.7 133.9 74.5 C 134.2 75.2 134.3 76.4 134.3 78.1 C 134.3 78.7 134.3 79.2 134.2 79.7 C 134.2 80.2 134.1 80.6 133.9 81 C 133.8 81.3 133.6 81.6 133.3 81.8 C 133.1 82 132.8 82.1 132.4 82.1 C 132 82.1 131.7 82 131.5 81.8 C 131.2 81.6 131.1 81.3 130.9 81 C 130.8 80.6 130.7 80.2 130.7 79.8 C 130.6 79.4 130.6 78.9 130.6 78.4 C 130.6 77.5 130.6 76.7 130.7 76.1 Z M 134.3 71 L 134.3 72.6 C 134.3 72.6 134.29 72.56 134.3 72.6 C 133.9 71.8 133.5 71.3 133 71 C 132.4 70.8 131.9 70.6 131.4 70.6 C 130.4 70.6 129.7 70.9 129.1 71.3 C 128.5 71.7 128.1 72.3 127.7 73 C 127.4 73.6 127.2 74.4 127.2 75.3 C 127.1 76.1 127 76.9 127 77.8 C 127 80.3 127.4 82.1 128.1 83.2 C 128.8 84.3 129.9 84.8 131.3 84.8 C 131.9 84.8 132.4 84.7 132.9 84.4 C 133.5 84 133.9 83.6 134.3 83.1 C 134.29 83.11 134.3 83.1 134.3 83.1 C 134.3 83.1 134.34 84.96 134.3 85 C 134.3 85.7 134.2 86.2 133.9 86.7 C 133.6 87.2 133.1 87.4 132.4 87.4 C 132.1 87.4 131.9 87.4 131.7 87.3 C 131.5 87.2 131.3 87.1 131.2 87 C 130.8 86.8 130.6 86.4 130.6 85.9 C 130.6 85.9 127.2 85.9 127.2 85.9 C 127.2 87.1 127.6 88.1 128.4 88.7 C 129.2 89.4 130.4 89.7 131.9 89.7 C 134 89.7 135.5 89.2 136.4 88.3 C 137.3 87.4 137.8 86.1 137.8 84.3 C 137.77 84.28 137.8 71 137.8 71 L 134.3 71 Z " stroke="none" fill="#000"/>
  </g>
  <g id="Polygon19227">
    <path d="M 39.6 50.4 C 39.6 50.4 39.64 50.9 39.6 50.9 C 39.6 51.6 39.7 52.2 39.9 52.7 C 40 53.3 40.3 53.7 40.7 54.1 C 41.1 54.5 41.6 54.8 42.3 55 C 42.9 55.2 43.8 55.3 44.8 55.3 C 45.5 55.3 46.2 55.2 46.9 55 C 47.5 54.9 48.1 54.6 48.5 54.3 C 49 53.9 49.3 53.4 49.6 52.9 C 49.9 52.3 50 51.7 50 51 C 50 49.9 49.7 49.1 49.3 48.4 C 48.8 47.8 48 47.3 46.9 47 C 46.9 47 44.7 46.2 44.7 46.2 C 44.1 46 43.7 45.8 43.5 45.5 C 43.3 45.2 43.2 44.9 43.2 44.6 C 43.2 44.1 43.3 43.7 43.7 43.5 C 44 43.2 44.4 43.1 44.9 43.1 C 45.5 43.1 45.9 43.2 46.1 43.6 C 46.3 43.9 46.4 44.5 46.4 45.2 C 46.45 45.18 49.7 45.2 49.7 45.2 C 49.7 45.2 49.67 44.61 49.7 44.6 C 49.7 43.3 49.3 42.4 48.5 41.7 C 47.7 41 46.5 40.6 44.9 40.6 C 44 40.6 43.2 40.7 42.5 41 C 41.9 41.2 41.4 41.5 40.9 41.9 C 40.5 42.3 40.2 42.7 40 43.2 C 39.8 43.7 39.7 44.3 39.7 44.8 C 39.7 45.8 40 46.6 40.5 47.3 C 41 47.9 41.7 48.4 42.7 48.7 C 42.7 48.7 45.3 49.7 45.3 49.7 C 45.6 49.8 45.9 50 46.2 50.2 C 46.4 50.4 46.6 50.8 46.6 51.2 C 46.6 51.8 46.4 52.2 46.1 52.5 C 45.7 52.8 45.3 52.9 44.7 52.9 C 44.1 52.9 43.7 52.7 43.3 52.3 C 43 52 42.9 51.5 42.9 50.9 C 42.86 50.88 42.9 50.4 42.9 50.4 L 39.6 50.4 Z M 57.5 50.7 C 57.5 51.1 57.5 51.5 57.3 51.7 C 57.2 52 57 52.2 56.8 52.4 C 56.6 52.6 56.3 52.7 56.1 52.8 C 55.8 52.9 55.6 52.9 55.3 52.9 C 54.8 52.9 54.5 52.7 54.3 52.3 C 54.1 52 54 51.5 54 51 C 54 50.3 54.1 49.8 54.4 49.5 C 54.7 49.1 55.3 48.8 56 48.7 C 56.2 48.6 56.5 48.6 56.7 48.4 C 57 48.3 57.3 48.2 57.5 48 C 57.5 48 57.5 50.7 57.5 50.7 Z M 54.2 45.3 C 54.2 45.3 54.2 44.9 54.2 44.9 C 54.2 44.3 54.3 43.9 54.6 43.6 C 54.9 43.2 55.3 43.1 55.9 43.1 C 56.5 43.1 56.9 43.2 57.1 43.5 C 57.4 43.8 57.5 44.3 57.5 44.8 C 57.5 45.3 57.4 45.6 57.2 45.9 C 57 46.1 56.6 46.3 56.1 46.4 C 56.1 46.4 54.1 47 54.1 47 C 53.4 47.2 52.9 47.4 52.5 47.6 C 52 47.8 51.7 48.1 51.4 48.4 C 51.1 48.8 50.9 49.2 50.7 49.6 C 50.6 50.1 50.5 50.7 50.5 51.3 C 50.5 51.8 50.6 52.3 50.7 52.8 C 50.8 53.2 51 53.7 51.3 54 C 51.5 54.4 51.9 54.7 52.3 54.9 C 52.8 55.2 53.3 55.3 53.9 55.3 C 54.8 55.3 55.5 55.2 56 54.9 C 56.6 54.7 57.1 54.3 57.5 53.5 C 57.5 53.5 57.5 53.5 57.5 53.5 C 57.6 53.8 57.6 54 57.7 54.3 C 57.8 54.5 57.8 54.8 58 55 C 58 55 61.4 55 61.4 55 C 61.2 54.6 61.1 54.2 61 53.8 C 61 53.5 61 52.9 61 52.3 C 61 52.3 61 44.9 61 44.9 C 61 44.3 60.9 43.7 60.8 43.2 C 60.6 42.7 60.4 42.2 60 41.8 C 59.7 41.4 59.1 41.2 58.5 40.9 C 57.8 40.7 57 40.6 55.9 40.6 C 55.2 40.6 54.6 40.7 54 40.9 C 53.4 41 52.9 41.2 52.4 41.6 C 52 41.9 51.6 42.4 51.4 42.9 C 51.1 43.5 51 44.1 51 44.9 C 50.97 44.95 51 45.3 51 45.3 L 54.2 45.3 Z M 68.2 55 L 71.8 55 C 71.8 55 71.77 45.78 71.8 45.8 C 71.8 44.9 71.9 44.3 72.3 44 C 72.6 43.6 73.1 43.4 73.6 43.4 C 74.1 43.4 74.5 43.5 74.7 43.9 C 74.9 44.2 75 44.6 75 45.2 C 75.05 45.21 75 55 75 55 L 78.6 55 C 78.6 55 78.63 45.78 78.6 45.8 C 78.6 44.9 78.8 44.3 79.1 44 C 79.5 43.6 79.9 43.4 80.5 43.4 C 81 43.4 81.4 43.5 81.6 43.9 C 81.8 44.2 81.9 44.6 81.9 45.2 C 81.91 45.21 81.9 55 81.9 55 L 85.5 55 C 85.5 55 85.5 44.82 85.5 44.8 C 85.5 43.5 85.2 42.4 84.7 41.7 C 84.1 41 83.2 40.6 82 40.6 C 81.2 40.6 80.4 40.8 79.8 41.2 C 79.2 41.6 78.8 42.1 78.5 42.9 C 78.5 42.9 78.4 42.9 78.4 42.9 C 78.2 42.1 77.9 41.6 77.3 41.2 C 76.7 40.8 76 40.6 75.2 40.6 C 74.4 40.6 73.8 40.8 73.2 41 C 72.6 41.3 72.1 41.8 71.7 42.4 C 71.67 42.43 71.6 42.4 71.6 42.4 L 71.6 41 L 68.2 41 L 68.2 55 Z M 90.5 46.1 C 90.5 45.4 90.6 44.9 90.8 44.5 C 90.9 44.1 91.1 43.8 91.3 43.6 C 91.6 43.5 91.9 43.4 92.3 43.4 C 93 43.4 93.5 43.7 93.8 44.5 C 94 45.2 94.2 46.4 94.2 48.1 C 94.2 48.7 94.1 49.2 94.1 49.7 C 94 50.2 93.9 50.6 93.8 51 C 93.6 51.3 93.4 51.6 93.2 51.8 C 92.9 52 92.6 52.1 92.2 52.1 C 91.8 52.1 91.5 52 91.3 51.8 C 91 51.6 90.9 51.3 90.7 51 C 90.6 50.6 90.5 50.2 90.5 49.8 C 90.4 49.4 90.4 48.9 90.4 48.4 C 90.4 47.5 90.4 46.7 90.5 46.1 Z M 94.2 41 L 94.2 42.6 C 94.2 42.6 94.1 42.56 94.1 42.6 C 93.8 41.8 93.3 41.3 92.8 41 C 92.2 40.8 91.7 40.6 91.2 40.6 C 90.2 40.6 89.5 40.9 88.9 41.3 C 88.3 41.7 87.9 42.3 87.6 43 C 87.3 43.6 87.1 44.4 87 45.3 C 86.9 46.1 86.8 46.9 86.8 47.8 C 86.8 50.3 87.2 52.1 87.9 53.2 C 88.6 54.3 89.7 54.8 91.1 54.8 C 91.7 54.8 92.2 54.7 92.8 54.4 C 93.3 54 93.7 53.6 94.1 53.1 C 94.1 53.11 94.2 53.1 94.2 53.1 C 94.2 53.1 94.16 54.96 94.2 55 C 94.2 55.7 94 56.2 93.7 56.7 C 93.4 57.2 92.9 57.4 92.2 57.4 C 92 57.4 91.7 57.4 91.5 57.3 C 91.3 57.2 91.2 57.1 91 57 C 90.6 56.8 90.4 56.4 90.4 55.9 C 90.4 55.9 87 55.9 87 55.9 C 87 57.1 87.4 58.1 88.2 58.7 C 89.1 59.4 90.2 59.7 91.8 59.7 C 93.9 59.7 95.4 59.2 96.2 58.3 C 97.1 57.4 97.6 56.1 97.6 54.3 C 97.59 54.28 97.6 41 97.6 41 L 94.2 41 Z M 105.9 50.7 C 105.9 51.1 105.8 51.5 105.6 51.7 C 105.5 52 105.3 52.2 105.1 52.4 C 104.9 52.6 104.7 52.7 104.4 52.8 C 104.1 52.9 103.9 52.9 103.6 52.9 C 103.2 52.9 102.8 52.7 102.6 52.3 C 102.4 52 102.3 51.5 102.3 51 C 102.3 50.3 102.5 49.8 102.8 49.5 C 103.1 49.1 103.6 48.8 104.3 48.7 C 104.5 48.6 104.8 48.6 105.1 48.4 C 105.4 48.3 105.6 48.2 105.9 48 C 105.9 48 105.9 50.7 105.9 50.7 Z M 102.5 45.3 C 102.5 45.3 102.53 44.9 102.5 44.9 C 102.5 44.3 102.7 43.9 102.9 43.6 C 103.2 43.2 103.6 43.1 104.2 43.1 C 104.8 43.1 105.2 43.2 105.5 43.5 C 105.7 43.8 105.9 44.3 105.9 44.8 C 105.9 45.3 105.8 45.6 105.5 45.9 C 105.3 46.1 105 46.3 104.4 46.4 C 104.4 46.4 102.4 47 102.4 47 C 101.8 47.2 101.2 47.4 100.8 47.6 C 100.4 47.8 100 48.1 99.7 48.4 C 99.4 48.8 99.2 49.2 99.1 49.6 C 98.9 50.1 98.9 50.7 98.9 51.3 C 98.9 51.8 98.9 52.3 99 52.8 C 99.2 53.2 99.4 53.7 99.6 54 C 99.9 54.4 100.2 54.7 100.7 54.9 C 101.1 55.2 101.6 55.3 102.2 55.3 C 103.1 55.3 103.8 55.2 104.4 54.9 C 104.9 54.7 105.4 54.3 105.8 53.5 C 105.8 53.5 105.9 53.5 105.9 53.5 C 105.9 53.8 106 54 106 54.3 C 106.1 54.5 106.2 54.8 106.3 55 C 106.3 55 109.7 55 109.7 55 C 109.6 54.6 109.4 54.2 109.4 53.8 C 109.3 53.5 109.3 52.9 109.3 52.3 C 109.3 52.3 109.3 44.9 109.3 44.9 C 109.3 44.3 109.2 43.7 109.1 43.2 C 109 42.7 108.7 42.2 108.4 41.8 C 108 41.4 107.5 41.2 106.8 40.9 C 106.2 40.7 105.3 40.6 104.2 40.6 C 103.5 40.6 102.9 40.7 102.3 40.9 C 101.7 41 101.2 41.2 100.7 41.6 C 100.3 41.9 100 42.4 99.7 42.9 C 99.4 43.5 99.3 44.1 99.3 44.9 C 99.3 44.95 99.3 45.3 99.3 45.3 L 102.5 45.3 Z " stroke="none" fill="#000"/>
  </g>
  <g id="Polygon19226">
    <path d="M 31.8 25 L 31.8 21.9 L 25.2 21.9 L 25.2 6.4 L 21.4 6.4 L 21.4 25 L 31.8 25 Z M 32.7 9.3 L 36.3 9.3 L 36.3 6.2 L 32.7 6.2 L 32.7 9.3 Z M 32.7 25 L 36.3 25 L 36.3 11 L 32.7 11 L 32.7 25 Z M 38.1 25 L 41.7 25 C 41.7 25 41.65 15.7 41.7 15.7 C 41.7 14.2 42.3 13.4 43.5 13.4 C 44.1 13.4 44.5 13.5 44.7 13.8 C 45 14.1 45.1 14.6 45.1 15.3 C 45.08 15.34 45.1 25 45.1 25 L 48.7 25 C 48.7 25 48.67 14.61 48.7 14.6 C 48.7 13.2 48.4 12.2 47.7 11.6 C 47.1 10.9 46.3 10.6 45.1 10.6 C 43.5 10.6 42.4 11.2 41.7 12.4 C 41.7 12.43 41.7 12.4 41.7 12.4 L 41.7 6.4 L 38.1 6.4 L 38.1 25 Z M 56.8 20.7 C 56.8 21.1 56.7 21.5 56.6 21.7 C 56.5 22 56.3 22.2 56.1 22.4 C 55.9 22.6 55.6 22.7 55.4 22.8 C 55.1 22.9 54.8 22.9 54.6 22.9 C 54.1 22.9 53.8 22.7 53.6 22.3 C 53.4 22 53.2 21.5 53.2 21 C 53.2 20.3 53.4 19.8 53.7 19.5 C 54 19.1 54.5 18.8 55.3 18.7 C 55.5 18.6 55.8 18.6 56 18.4 C 56.3 18.3 56.6 18.2 56.8 18 C 56.8 18 56.8 20.7 56.8 20.7 Z M 53.5 15.3 C 53.5 15.3 53.48 14.9 53.5 14.9 C 53.5 14.3 53.6 13.9 53.9 13.6 C 54.2 13.2 54.6 13.1 55.1 13.1 C 55.8 13.1 56.2 13.2 56.4 13.5 C 56.7 13.8 56.8 14.3 56.8 14.8 C 56.8 15.3 56.7 15.6 56.5 15.9 C 56.3 16.1 55.9 16.3 55.4 16.4 C 55.4 16.4 53.4 17 53.4 17 C 52.7 17.2 52.2 17.4 51.8 17.6 C 51.3 17.8 50.9 18.1 50.7 18.4 C 50.4 18.8 50.2 19.2 50 19.6 C 49.9 20.1 49.8 20.7 49.8 21.3 C 49.8 21.8 49.9 22.3 50 22.8 C 50.1 23.2 50.3 23.7 50.6 24 C 50.8 24.4 51.2 24.7 51.6 24.9 C 52 25.2 52.6 25.3 53.2 25.3 C 54.1 25.3 54.8 25.2 55.3 24.9 C 55.9 24.7 56.3 24.3 56.8 23.5 C 56.8 23.5 56.8 23.5 56.8 23.5 C 56.9 23.8 56.9 24 57 24.3 C 57 24.5 57.1 24.8 57.3 25 C 57.3 25 60.7 25 60.7 25 C 60.5 24.6 60.4 24.2 60.3 23.8 C 60.3 23.5 60.2 22.9 60.2 22.3 C 60.2 22.3 60.2 14.9 60.2 14.9 C 60.2 14.3 60.2 13.7 60 13.2 C 59.9 12.7 59.7 12.2 59.3 11.8 C 58.9 11.4 58.4 11.2 57.8 10.9 C 57.1 10.7 56.2 10.6 55.2 10.6 C 54.5 10.6 53.9 10.7 53.3 10.9 C 52.7 11 52.1 11.2 51.7 11.6 C 51.3 11.9 50.9 12.4 50.6 12.9 C 50.4 13.5 50.3 14.1 50.3 14.9 C 50.26 14.95 50.3 15.3 50.3 15.3 L 53.5 15.3 Z M 62 25 L 65.6 25 C 65.6 25 65.6 15.78 65.6 15.8 C 65.6 14.9 65.8 14.3 66.1 14 C 66.4 13.6 66.9 13.4 67.5 13.4 C 68 13.4 68.3 13.5 68.5 13.9 C 68.8 14.2 68.9 14.6 68.9 15.2 C 68.87 15.21 68.9 25 68.9 25 L 72.5 25 C 72.5 25 72.46 15.78 72.5 15.8 C 72.5 14.9 72.6 14.3 73 14 C 73.3 13.6 73.8 13.4 74.3 13.4 C 74.8 13.4 75.2 13.5 75.4 13.9 C 75.6 14.2 75.7 14.6 75.7 15.2 C 75.74 15.21 75.7 25 75.7 25 L 79.3 25 C 79.3 25 79.32 14.82 79.3 14.8 C 79.3 13.5 79 12.4 78.5 11.7 C 77.9 11 77 10.6 75.8 10.6 C 75 10.6 74.3 10.8 73.6 11.2 C 73 11.6 72.6 12.1 72.3 12.9 C 72.3 12.9 72.3 12.9 72.3 12.9 C 72.1 12.1 71.7 11.6 71.1 11.2 C 70.6 10.8 69.9 10.6 69 10.6 C 68.2 10.6 67.6 10.8 67 11 C 66.5 11.3 65.9 11.8 65.5 12.4 C 65.49 12.43 65.4 12.4 65.4 12.4 L 65.4 11 L 62 11 L 62 25 Z M 86.4 29.5 L 90 29.5 L 90 23.7 C 90 23.7 90.04 23.69 90 23.7 C 90.4 24.2 90.8 24.6 91.3 24.9 C 91.8 25.1 92.4 25.3 93.1 25.3 C 94.5 25.3 95.6 24.7 96.3 23.6 C 97 22.5 97.3 20.6 97.3 18 C 97.3 15.4 97 13.5 96.3 12.4 C 95.6 11.2 94.5 10.6 93.1 10.6 C 92.3 10.6 91.7 10.8 91.2 11.1 C 90.7 11.3 90.3 11.8 89.9 12.5 C 89.88 12.48 89.8 12.5 89.8 12.5 L 89.8 11 L 86.4 11 L 86.4 29.5 Z M 90.3 14.5 C 90.6 13.8 91.1 13.4 91.9 13.4 C 92.7 13.4 93.2 13.8 93.4 14.5 C 93.6 15.3 93.8 16.5 93.8 18 C 93.8 19.5 93.6 20.7 93.4 21.4 C 93.2 22.2 92.7 22.6 91.9 22.6 C 91.1 22.6 90.6 22.2 90.3 21.4 C 90.1 20.7 90 19.5 90 18 C 90 16.5 90.1 15.3 90.3 14.5 Z M 105.1 20.7 C 105.1 21.1 105.1 21.5 104.9 21.7 C 104.8 22 104.6 22.2 104.4 22.4 C 104.2 22.6 103.9 22.7 103.7 22.8 C 103.4 22.9 103.2 22.9 102.9 22.9 C 102.4 22.9 102.1 22.7 101.9 22.3 C 101.7 22 101.6 21.5 101.6 21 C 101.6 20.3 101.7 19.8 102 19.5 C 102.4 19.1 102.9 18.8 103.6 18.7 C 103.8 18.6 104.1 18.6 104.4 18.4 C 104.6 18.3 104.9 18.2 105.1 18 C 105.1 18 105.1 20.7 105.1 20.7 Z M 101.8 15.3 C 101.8 15.3 101.81 14.9 101.8 14.9 C 101.8 14.3 102 13.9 102.2 13.6 C 102.5 13.2 102.9 13.1 103.5 13.1 C 104.1 13.1 104.5 13.2 104.8 13.5 C 105 13.8 105.1 14.3 105.1 14.8 C 105.1 15.3 105 15.6 104.8 15.9 C 104.6 16.1 104.2 16.3 103.7 16.4 C 103.7 16.4 101.7 17 101.7 17 C 101.1 17.2 100.5 17.4 100.1 17.6 C 99.6 17.8 99.3 18.1 99 18.4 C 98.7 18.8 98.5 19.2 98.4 19.6 C 98.2 20.1 98.1 20.7 98.1 21.3 C 98.1 21.8 98.2 22.3 98.3 22.8 C 98.5 23.2 98.6 23.7 98.9 24 C 99.2 24.4 99.5 24.7 99.9 24.9 C 100.4 25.2 100.9 25.3 101.5 25.3 C 102.4 25.3 103.1 25.2 103.6 24.9 C 104.2 24.7 104.7 24.3 105.1 23.5 C 105.1 23.5 105.1 23.5 105.1 23.5 C 105.2 23.8 105.3 24 105.3 24.3 C 105.4 24.5 105.5 24.8 105.6 25 C 105.6 25 109 25 109 25 C 108.8 24.6 108.7 24.2 108.7 23.8 C 108.6 23.5 108.6 22.9 108.6 22.3 C 108.6 22.3 108.6 14.9 108.6 14.9 C 108.6 14.3 108.5 13.7 108.4 13.2 C 108.2 12.7 108 12.2 107.6 11.8 C 107.3 11.4 106.8 11.2 106.1 10.9 C 105.4 10.7 104.6 10.6 103.5 10.6 C 102.8 10.6 102.2 10.7 101.6 10.9 C 101 11 100.5 11.2 100 11.6 C 99.6 11.9 99.2 12.4 99 12.9 C 98.7 13.5 98.6 14.1 98.6 14.9 C 98.59 14.95 98.6 15.3 98.6 15.3 L 101.8 15.3 Z M 110.3 25 L 113.9 25 C 113.9 25 113.93 16.59 113.9 16.6 C 113.9 16.1 114 15.7 114.2 15.4 C 114.3 15.1 114.5 14.8 114.8 14.6 C 115 14.4 115.3 14.3 115.6 14.2 C 116 14.1 116.3 14.1 116.6 14.1 C 116.8 14.1 117 14.1 117.1 14.1 C 117.3 14.1 117.5 14.1 117.7 14.1 C 117.7 14.1 117.7 10.7 117.7 10.7 C 117.6 10.7 117.5 10.7 117.4 10.6 C 117.3 10.6 117.2 10.6 117 10.6 C 116.3 10.6 115.7 10.8 115.2 11.2 C 114.6 11.7 114.2 12.2 113.8 12.9 C 113.83 12.87 113.8 12.9 113.8 12.9 L 113.8 11 L 110.3 11 L 110.3 25 Z M 124.7 20.7 C 124.7 21.1 124.7 21.5 124.5 21.7 C 124.4 22 124.2 22.2 124 22.4 C 123.8 22.6 123.5 22.7 123.3 22.8 C 123 22.9 122.8 22.9 122.5 22.9 C 122.1 22.9 121.7 22.7 121.5 22.3 C 121.3 22 121.2 21.5 121.2 21 C 121.2 20.3 121.3 19.8 121.7 19.5 C 122 19.1 122.5 18.8 123.2 18.7 C 123.4 18.6 123.7 18.6 124 18.4 C 124.2 18.3 124.5 18.2 124.7 18 C 124.7 18 124.7 20.7 124.7 20.7 Z M 121.4 15.3 C 121.4 15.3 121.42 14.9 121.4 14.9 C 121.4 14.3 121.6 13.9 121.8 13.6 C 122.1 13.2 122.5 13.1 123.1 13.1 C 123.7 13.1 124.1 13.2 124.4 13.5 C 124.6 13.8 124.7 14.3 124.7 14.8 C 124.7 15.3 124.6 15.6 124.4 15.9 C 124.2 16.1 123.9 16.3 123.3 16.4 C 123.3 16.4 121.3 17 121.3 17 C 120.7 17.2 120.1 17.4 119.7 17.6 C 119.2 17.8 118.9 18.1 118.6 18.4 C 118.3 18.8 118.1 19.2 118 19.6 C 117.8 20.1 117.8 20.7 117.8 21.3 C 117.8 21.8 117.8 22.3 117.9 22.8 C 118.1 23.2 118.2 23.7 118.5 24 C 118.8 24.4 119.1 24.7 119.5 24.9 C 120 25.2 120.5 25.3 121.1 25.3 C 122 25.3 122.7 25.2 123.3 24.9 C 123.8 24.7 124.3 24.3 124.7 23.5 C 124.7 23.5 124.7 23.5 124.7 23.5 C 124.8 23.8 124.9 24 124.9 24.3 C 125 24.5 125.1 24.8 125.2 25 C 125.2 25 128.6 25 128.6 25 C 128.4 24.6 128.3 24.2 128.3 23.8 C 128.2 23.5 128.2 22.9 128.2 22.3 C 128.2 22.3 128.2 14.9 128.2 14.9 C 128.2 14.3 128.1 13.7 128 13.2 C 127.9 12.7 127.6 12.2 127.2 11.8 C 126.9 11.4 126.4 11.2 125.7 10.9 C 125 10.7 124.2 10.6 123.1 10.6 C 122.4 10.6 121.8 10.7 121.2 10.9 C 120.6 11 120.1 11.2 119.6 11.6 C 119.2 11.9 118.8 12.4 118.6 12.9 C 118.3 13.5 118.2 14.1 118.2 14.9 C 118.19 14.95 118.2 15.3 118.2 15.3 L 121.4 15.3 Z " stroke="none" fill="#000"/>
  </g>
</svg>