<?xml version="1.0" standalone="no"?>
<!DOCTYPE svg PUBLIC "-//W3C//DTD SVG 1.1//EN" "http://www.w3.org/Graphics/SVG/1.1/DTD/svg11.dtd">
<svg xmlns="http://www.w3.org/2000/svg" version="1.1" width="789.1px" height="31.8px" viewBox="0 -7 789.1 31.8" style="top:-7px">
  <desc>Bagong mukha sa gitna ng pandemya:</desc>
  <defs/>
  <g id="Polygon37771">
    <path d="M 1.3 0.7 C 1.3 0.7 5.81 0.67 5.8 0.7 C 6.9 0.7 7.7 0.8 8.2 0.9 C 8.8 1.1 9.2 1.5 9.6 2 C 10 2.6 10.1 3.3 10.1 4.2 C 10.1 5.7 9.5 6.6 8.2 7.1 C 9.8 7.6 10.5 8.7 10.5 10.3 C 10.5 11.2 10.3 11.9 9.9 12.5 C 9.5 13.1 9 13.5 8.4 13.7 C 7.8 13.9 6.9 14 5.8 14 C 5.81 14 1.3 14 1.3 14 L 1.3 0.7 Z M 4.1 6.1 C 4.1 6.1 5.02 6.05 5 6.1 C 6 6.1 6.6 5.9 6.8 5.5 C 7 5.2 7.2 4.8 7.2 4.4 C 7.2 4 7 3.6 6.8 3.3 C 6.6 3 6 2.8 5.2 2.8 C 5.23 2.83 4.1 2.8 4.1 2.8 L 4.1 6.1 Z M 4.1 11.7 C 4.1 11.7 5.51 11.72 5.5 11.7 C 6.9 11.7 7.5 11.1 7.5 10 C 7.5 9.3 7.4 8.9 7 8.6 C 6.7 8.3 6.2 8.2 5.5 8.2 C 5.51 8.21 4.1 8.2 4.1 8.2 L 4.1 11.7 Z M 14.9 0.7 L 17.8 0.7 L 21.6 14 L 18.6 14 L 18 11.3 L 14.2 11.3 L 13.5 14 L 10.8 14 L 14.9 0.7 Z M 17.4 9 L 16.1 3.5 L 14.8 9 L 17.4 9 Z M 27.2 6.9 L 31.8 6.9 L 31.8 14 L 30.6 14 C 30.6 14 30.21 12.48 30.2 12.5 C 29.5 13.6 28.4 14.2 27 14.2 C 25.5 14.2 24.3 13.6 23.4 12.4 C 22.5 11.2 22.1 9.6 22.1 7.6 C 22.1 5.4 22.5 3.7 23.4 2.4 C 24.2 1.1 25.5 0.5 27.2 0.5 C 30 0.5 31.5 2 31.8 5 C 31.8 5 29.2 5.5 29.2 5.5 C 29 3.7 28.4 2.9 27.3 2.9 C 26.6 2.9 26.1 3.2 25.7 3.8 C 25.3 4.5 25.1 5.7 25.1 7.5 C 25.1 9.1 25.3 10.2 25.7 10.8 C 26.1 11.5 26.7 11.8 27.4 11.8 C 28.6 11.8 29.2 10.9 29.2 9.2 C 29.2 9.18 27.2 9.2 27.2 9.2 L 27.2 6.9 Z M 43.3 7.3 C 43.3 11.9 41.7 14.2 38.5 14.2 C 36.9 14.2 35.7 13.6 34.9 12.5 C 34 11.3 33.6 9.6 33.6 7.3 C 33.6 2.8 35.3 0.5 38.5 0.5 C 40.1 0.5 41.3 1 42.1 2.2 C 42.9 3.3 43.3 5 43.3 7.3 Z M 40.2 7.3 C 40.2 5.5 40.1 4.3 39.8 3.7 C 39.5 3.1 39.1 2.9 38.5 2.9 C 37.9 2.9 37.4 3.2 37.1 3.8 C 36.9 4.3 36.7 5.5 36.7 7.3 C 36.7 9.1 36.9 10.3 37.1 10.9 C 37.4 11.5 37.9 11.8 38.5 11.8 C 39.1 11.8 39.5 11.5 39.8 10.9 C 40.1 10.3 40.2 9.1 40.2 7.3 Z M 45.3 0.7 L 48.5 0.7 L 51.9 9 L 51.9 0.7 L 54.2 0.7 L 54.2 14 L 51.6 14 L 47.5 4.4 L 47.5 14 L 45.3 14 L 45.3 0.7 Z M 61.3 6.9 L 65.9 6.9 L 65.9 14 L 64.7 14 C 64.7 14 64.29 12.48 64.3 12.5 C 63.6 13.6 62.5 14.2 61.1 14.2 C 59.5 14.2 58.3 13.6 57.5 12.4 C 56.6 11.2 56.1 9.6 56.1 7.6 C 56.1 5.4 56.6 3.7 57.4 2.4 C 58.3 1.1 59.6 0.5 61.3 0.5 C 64 0.5 65.6 2 65.9 5 C 65.9 5 63.3 5.5 63.3 5.5 C 63.1 3.7 62.5 2.9 61.4 2.9 C 60.7 2.9 60.2 3.2 59.8 3.8 C 59.4 4.5 59.2 5.7 59.2 7.5 C 59.2 9.1 59.4 10.2 59.8 10.8 C 60.2 11.5 60.7 11.8 61.5 11.8 C 62.7 11.8 63.3 10.9 63.3 9.2 C 63.27 9.18 61.3 9.2 61.3 9.2 L 61.3 6.9 Z M 77.5 0.7 L 81.8 0.7 L 83.7 8.9 L 85.8 0.7 L 90 0.7 L 90 14 L 87.2 14 L 87.2 2.8 L 84.5 14 L 82.4 14 L 79.9 2.8 L 79.9 14 L 77.5 14 L 77.5 0.7 Z M 92.5 0.7 L 95.4 0.7 C 95.4 0.7 95.44 8.29 95.4 8.3 C 95.4 9.4 95.5 10.1 95.6 10.5 C 95.7 11 95.9 11.3 96.2 11.5 C 96.5 11.7 96.9 11.8 97.3 11.8 C 97.8 11.8 98.2 11.7 98.5 11.5 C 98.8 11.2 99 10.9 99 10.5 C 99.1 10.1 99.1 9.4 99.1 8.3 C 99.12 8.29 99.1 0.7 99.1 0.7 L 101.6 0.7 C 101.6 0.7 101.57 8.17 101.6 8.2 C 101.6 9.7 101.5 10.8 101.3 11.5 C 101.1 12.3 100.7 12.9 100 13.4 C 99.3 13.9 98.3 14.2 97.1 14.2 C 95.9 14.2 95 14 94.3 13.6 C 93.7 13.2 93.2 12.7 92.9 12 C 92.6 11.3 92.5 10.1 92.5 8.3 C 92.51 8.29 92.5 0.7 92.5 0.7 Z M 104.1 0.7 L 107 0.7 L 107 6.2 L 110.3 0.7 L 113.2 0.7 L 109.9 5.6 L 113.5 14 L 110.5 14 L 108.1 7.9 L 107 9.5 L 107 14 L 104.1 14 L 104.1 0.7 Z M 114.6 0.7 L 117.6 0.7 L 117.6 6.1 L 120.8 6.1 L 120.8 0.7 L 123.7 0.7 L 123.7 14 L 120.8 14 L 120.8 8.6 L 117.6 8.6 L 117.6 14 L 114.6 14 L 114.6 0.7 Z M 128.6 0.7 L 131.5 0.7 L 135.3 14 L 132.3 14 L 131.7 11.3 L 127.9 11.3 L 127.3 14 L 124.6 14 L 128.6 0.7 Z M 131.1 9 L 129.8 3.5 L 128.5 9 L 131.1 9 Z M 149.6 0.5 C 151.9 0.5 153.4 1.5 153.9 3.6 C 153.9 3.6 151.5 4.5 151.5 4.5 C 151.2 3.4 150.5 2.9 149.6 2.9 C 149.2 2.9 148.8 3 148.6 3.2 C 148.3 3.5 148.2 3.7 148.2 4.1 C 148.2 4.4 148.4 4.8 148.7 5 C 149 5.2 149.6 5.5 150.5 5.9 C 151.4 6.2 152.1 6.5 152.6 6.8 C 153 7.1 153.4 7.5 153.7 8.1 C 154 8.6 154.2 9.2 154.2 10 C 154.2 11.2 153.8 12.2 152.9 13 C 152.1 13.8 150.9 14.2 149.5 14.2 C 147.1 14.2 145.5 13 144.8 10.5 C 144.8 10.5 147.4 9.8 147.4 9.8 C 147.7 11.2 148.4 11.8 149.5 11.8 C 150 11.8 150.5 11.7 150.8 11.4 C 151.1 11.2 151.3 10.8 151.3 10.4 C 151.3 10.1 151.1 9.8 150.9 9.5 C 150.7 9.3 150.2 9 149.4 8.7 C 148.4 8.3 147.6 8 147.1 7.7 C 146.6 7.4 146.2 7 145.9 6.4 C 145.5 5.9 145.4 5.3 145.4 4.6 C 145.4 3.4 145.8 2.4 146.5 1.6 C 147.3 0.9 148.3 0.5 149.6 0.5 C 149.6 0.5 149.6 0.5 149.6 0.5 Z M 158.6 0.7 L 161.5 0.7 L 165.3 14 L 162.3 14 L 161.7 11.3 L 157.9 11.3 L 157.3 14 L 154.6 14 L 158.6 0.7 Z M 161.1 9 L 159.8 3.5 L 158.5 9 L 161.1 9 Z M 180.5 6.9 L 185.1 6.9 L 185.1 14 L 183.8 14 C 183.8 14 183.47 12.48 183.5 12.5 C 182.8 13.6 181.7 14.2 180.2 14.2 C 178.7 14.2 177.5 13.6 176.6 12.4 C 175.7 11.2 175.3 9.6 175.3 7.6 C 175.3 5.4 175.7 3.7 176.6 2.4 C 177.5 1.1 178.8 0.5 180.5 0.5 C 183.2 0.5 184.8 2 185.1 5 C 185.1 5 182.5 5.5 182.5 5.5 C 182.3 3.7 181.6 2.9 180.6 2.9 C 179.9 2.9 179.4 3.2 179 3.8 C 178.6 4.5 178.4 5.7 178.4 7.5 C 178.4 9.1 178.6 10.2 179 10.8 C 179.3 11.5 179.9 11.8 180.7 11.8 C 181.8 11.8 182.4 10.9 182.5 9.2 C 182.45 9.18 180.5 9.2 180.5 9.2 L 180.5 6.9 Z M 187.4 0.7 L 190.3 0.7 L 190.3 14 L 187.4 14 L 187.4 0.7 Z M 191.3 0.7 L 199.6 0.7 L 199.6 3.2 L 196.9 3.2 L 196.9 14 L 194 14 L 194 3.2 L 191.3 3.2 L 191.3 0.7 Z M 200.5 0.7 L 203.8 0.7 L 207.2 9 L 207.2 0.7 L 209.5 0.7 L 209.5 14 L 206.9 14 L 202.8 4.4 L 202.8 14 L 200.5 14 L 200.5 0.7 Z M 214.6 0.7 L 217.6 0.7 L 221.4 14 L 218.4 14 L 217.7 11.3 L 214 11.3 L 213.3 14 L 210.6 14 L 214.6 0.7 Z M 217.2 9 L 215.8 3.5 L 214.5 9 L 217.2 9 Z M 231.7 0.7 L 235 0.7 L 238.4 9 L 238.4 0.7 L 240.7 0.7 L 240.7 14 L 238 14 L 234 4.4 L 234 14 L 231.7 14 L 231.7 0.7 Z M 247.7 6.9 L 252.4 6.9 L 252.4 14 L 251.1 14 C 251.1 14 250.75 12.48 250.8 12.5 C 250 13.6 249 14.2 247.5 14.2 C 246 14.2 244.8 13.6 243.9 12.4 C 243 11.2 242.6 9.6 242.6 7.6 C 242.6 5.4 243 3.7 243.9 2.4 C 244.8 1.1 246.1 0.5 247.8 0.5 C 250.5 0.5 252 2 252.4 5 C 252.4 5 249.7 5.5 249.7 5.5 C 249.6 3.7 248.9 2.9 247.8 2.9 C 247.2 2.9 246.7 3.2 246.3 3.8 C 245.9 4.5 245.7 5.7 245.7 7.5 C 245.7 9.1 245.9 10.2 246.3 10.8 C 246.6 11.5 247.2 11.8 247.9 11.8 C 249.1 11.8 249.7 10.9 249.7 9.2 C 249.74 9.18 247.7 9.2 247.7 9.2 L 247.7 6.9 Z M 264 0.7 C 264 0.7 267.82 0.67 267.8 0.7 C 269 0.7 269.9 0.8 270.5 1 C 271.2 1.2 271.7 1.6 272.1 2.3 C 272.6 3 272.8 3.8 272.8 4.8 C 272.8 5.8 272.6 6.6 272.3 7.3 C 271.9 7.9 271.4 8.4 270.8 8.6 C 270.2 8.9 269.2 9.1 267.9 9.1 C 267.95 9.07 266.9 9.1 266.9 9.1 L 266.9 14 L 264 14 L 264 0.7 Z M 266.9 2.8 L 266.9 6.8 C 266.9 6.8 267.82 6.79 267.8 6.8 C 268.6 6.8 269.1 6.6 269.4 6.2 C 269.6 5.9 269.7 5.4 269.7 4.8 C 269.7 4.3 269.6 3.9 269.4 3.6 C 269.3 3.3 269.1 3.1 268.8 3 C 268.6 2.9 268.3 2.8 267.8 2.8 C 267.82 2.83 266.9 2.8 266.9 2.8 Z M 276.2 0.7 L 279.2 0.7 L 283 14 L 280 14 L 279.3 11.3 L 275.6 11.3 L 274.9 14 L 272.2 14 L 276.2 0.7 Z M 278.8 9 L 277.4 3.5 L 276.1 9 L 278.8 9 Z M 284 0.7 L 287.3 0.7 L 290.7 9 L 290.7 0.7 L 292.9 0.7 L 292.9 14 L 290.3 14 L 286.3 4.4 L 286.3 14 L 284 14 L 284 0.7 Z M 295.4 0.7 C 295.4 0.7 298.51 0.67 298.5 0.7 C 299.9 0.7 301 0.9 301.8 1.2 C 302.7 1.6 303.4 2.3 303.9 3.3 C 304.4 4.3 304.7 5.6 304.7 7.3 C 304.7 8.5 304.5 9.5 304.2 10.5 C 303.9 11.4 303.5 12.1 303 12.7 C 302.5 13.2 301.9 13.5 301.3 13.7 C 300.6 13.9 299.8 14 298.9 14 C 298.86 14 295.4 14 295.4 14 L 295.4 0.7 Z M 298.3 3 L 298.3 11.7 C 298.3 11.7 298.78 11.72 298.8 11.7 C 299.5 11.7 300 11.6 300.4 11.3 C 300.7 11.1 301 10.6 301.2 10 C 301.5 9.3 301.6 8.4 301.6 7.2 C 301.6 6 301.5 5.1 301.2 4.5 C 301 3.9 300.7 3.5 300.3 3.3 C 299.9 3.1 299.4 3 298.8 3 C 298.78 2.96 298.3 3 298.3 3 Z M 306.6 0.7 L 314.7 0.7 L 314.7 3 L 309.5 3 L 309.5 6.1 L 313.5 6.1 L 313.5 8.3 L 309.5 8.3 L 309.5 11.6 L 314.7 11.6 L 314.7 14 L 306.6 14 L 306.6 0.7 Z M 316.1 0.7 L 320.4 0.7 L 322.3 8.9 L 324.4 0.7 L 328.6 0.7 L 328.6 14 L 325.9 14 L 325.9 2.8 L 323.1 14 L 321 14 L 318.5 2.8 L 318.5 14 L 316.1 14 L 316.1 0.7 Z M 329.3 0.7 L 332.5 0.7 L 334.4 5.5 L 336.4 0.7 L 339.3 0.7 L 335.6 8.4 L 335.6 14 L 332.6 14 L 332.6 8.4 L 329.3 0.7 Z M 341.8 0.7 L 344.7 0.7 L 348.6 14 L 345.6 14 L 344.9 11.3 L 341.1 11.3 L 340.5 14 L 337.8 14 L 341.8 0.7 Z M 344.3 9 L 343 3.5 L 341.7 9 L 344.3 9 Z M 349.6 4.1 L 352.3 4.1 L 352.3 7.1 L 349.6 7.1 L 349.6 4.1 Z M 349.6 11.1 L 352.3 11.1 L 352.3 14 L 349.6 14 L 349.6 11.1 Z " stroke="none" fill="#000"/>
  </g>
</svg>