<?xml version="1.0" standalone="no"?>
<!DOCTYPE svg PUBLIC "-//W3C//DTD SVG 1.1//EN" "http://www.w3.org/Graphics/SVG/1.1/DTD/svg11.dtd">
<svg xmlns="http://www.w3.org/2000/svg" version="1.1" width="715px" height="33.9px" viewBox="0 -6 715 33.9" style="top:-6px">
  <desc>LAMBDA Mula sa p 7</desc>
  <defs/>
  <g id="Polygon22990">
    <path d="M 1.6 -0.3 L 4.1 -0.3 L 4.1 12.6 L 10.1 12.6 L 10.1 15.1 L 1.6 15.1 L 1.6 -0.3 Z M 17.1 -0.3 L 19.3 -0.3 L 25.4 15.1 L 22.5 15.1 L 21.2 11.6 L 15.1 11.6 L 13.8 15.1 L 11 15.1 L 17.1 -0.3 Z M 20.3 9.2 L 18.2 3 L 15.9 9.2 L 20.3 9.2 Z M 27.6 -0.3 L 31.5 -0.3 L 35.3 10.5 L 39.1 -0.3 L 42.9 -0.3 L 42.9 15.1 L 40.5 15.1 L 40.5 2.3 L 40.4 2.3 L 36.1 15.1 L 34.4 15.1 L 30.1 2.3 L 30 2.3 L 30 15.1 L 27.6 15.1 L 27.6 -0.3 Z M 46.7 -0.3 C 46.7 -0.3 52.22 -0.31 52.2 -0.3 C 54.4 -0.3 56.6 0.8 56.6 3.6 C 56.6 5.3 55.6 6.5 54.1 6.9 C 54.1 6.9 54.1 7 54.1 7 C 55.9 7.2 57.2 8.7 57.2 10.7 C 57.2 14.1 54.5 15.1 51.8 15.1 C 51.8 15.12 46.7 15.1 46.7 15.1 L 46.7 -0.3 Z M 49.2 6 C 49.2 6 51.52 5.96 51.5 6 C 53.2 6 54 5.2 54 4 C 54 2.7 53.2 2 51.3 2 C 51.3 2.04 49.2 2 49.2 2 L 49.2 6 Z M 49.2 12.8 C 49.2 12.8 51.54 12.77 51.5 12.8 C 52.8 12.8 54.6 12.5 54.6 10.5 C 54.6 8.9 53.7 8.3 51.6 8.3 C 51.64 8.32 49.2 8.3 49.2 8.3 L 49.2 12.8 Z M 60.2 -0.3 C 60.2 -0.3 65.83 -0.31 65.8 -0.3 C 69.5 -0.3 73 2.2 73 7.4 C 73 12.7 68.9 15.1 65.5 15.1 C 65.53 15.12 60.2 15.1 60.2 15.1 L 60.2 -0.3 Z M 64.6 12.6 C 67.8 12.6 70.4 11.2 70.4 7.4 C 70.4 3.7 68.1 2.2 65.1 2.2 C 65.07 2.17 62.8 2.2 62.8 2.2 L 62.8 12.6 C 62.8 12.6 64.65 12.63 64.6 12.6 Z M 80.6 -0.3 L 82.8 -0.3 L 88.9 15.1 L 86 15.1 L 84.7 11.6 L 78.5 11.6 L 77.3 15.1 L 74.4 15.1 L 80.6 -0.3 Z M 83.8 9.2 L 81.6 3 L 79.4 9.2 L 83.8 9.2 Z M 99.2 -1.2 L 99.2 20.6 L 97.2 20.6 L 97.2 -1.2 L 99.2 -1.2 Z M 109.2 -0.3 L 113 -0.3 L 116.8 10.5 L 120.6 -0.3 L 124.4 -0.3 L 124.4 15.1 L 122 15.1 L 122 2.3 L 122 2.3 L 117.7 15.1 L 115.9 15.1 L 111.6 2.3 L 111.6 2.3 L 111.6 15.1 L 109.2 15.1 L 109.2 -0.3 Z M 136.8 15.1 L 134.5 15.1 L 134.5 13.4 C 134.5 13.4 134.44 13.44 134.4 13.4 C 134 14.5 133.1 15.4 131.5 15.4 C 128.9 15.4 128 13.4 128 11.3 C 128 11.26 128 4.7 128 4.7 L 130.4 4.7 C 130.4 4.7 130.4 9.95 130.4 10 C 130.4 11.1 130.5 13 132.2 13 C 133.7 13 134.4 11.8 134.4 10.4 C 134.36 10.37 134.4 4.7 134.4 4.7 L 136.8 4.7 L 136.8 15.1 Z M 140.1 -1.4 L 142.5 -1.4 L 142.5 15.1 L 140.1 15.1 L 140.1 -1.4 Z M 151.9 13.7 C 151.9 13.7 151.8 13.68 151.8 13.7 C 151.1 14.9 150 15.4 148.7 15.4 C 146.9 15.4 145.2 14.3 145.2 12.2 C 145.2 8.8 148.9 8.6 151.3 8.6 C 151.26 8.6 151.9 8.6 151.9 8.6 C 151.9 8.6 151.86 8.32 151.9 8.3 C 151.9 7 150.9 6.4 149.7 6.4 C 148.7 6.4 147.7 6.8 147.1 7.4 C 147.1 7.4 145.8 6.1 145.8 6.1 C 146.9 4.9 148.4 4.4 149.9 4.4 C 154 4.4 154 7.6 154 9.1 C 154.02 9.1 154 15.1 154 15.1 L 151.9 15.1 L 151.9 13.7 Z M 151.7 10.4 C 151.7 10.4 151.22 10.43 151.2 10.4 C 149.9 10.4 147.6 10.5 147.6 12 C 147.6 13 148.5 13.4 149.3 13.4 C 150.9 13.4 151.7 12.5 151.7 11 C 151.72 11.02 151.7 10.4 151.7 10.4 Z M 168.8 7.6 C 168.4 6.9 167.8 6.5 166.9 6.5 C 166.3 6.5 165.5 6.8 165.5 7.6 C 165.5 9.5 170.7 7.9 170.7 12 C 170.7 14.5 168.5 15.4 166.6 15.4 C 165.1 15.4 163.8 15 162.8 13.8 C 162.8 13.8 164.4 12.1 164.4 12.1 C 165.1 12.9 165.7 13.4 166.7 13.4 C 167.4 13.4 168.3 13 168.3 12.2 C 168.3 10.1 163.1 11.8 163.1 7.8 C 163.1 5.4 165.1 4.4 167 4.4 C 168.3 4.4 169.6 4.8 170.4 6 C 170.4 6 168.8 7.6 168.8 7.6 Z M 179.2 13.7 C 179.2 13.7 179.12 13.68 179.1 13.7 C 178.4 14.9 177.3 15.4 176 15.4 C 174.3 15.4 172.5 14.3 172.5 12.2 C 172.5 8.8 176.2 8.6 178.6 8.6 C 178.58 8.6 179.2 8.6 179.2 8.6 C 179.2 8.6 179.18 8.32 179.2 8.3 C 179.2 7 178.3 6.4 177 6.4 C 176 6.4 175.1 6.8 174.4 7.4 C 174.4 7.4 173.2 6.1 173.2 6.1 C 174.2 4.9 175.7 4.4 177.2 4.4 C 181.3 4.4 181.3 7.6 181.3 9.1 C 181.34 9.1 181.3 15.1 181.3 15.1 L 179.2 15.1 L 179.2 13.7 Z M 179 10.4 C 179 10.4 178.54 10.43 178.5 10.4 C 177.2 10.4 174.9 10.5 174.9 12 C 174.9 13 175.8 13.4 176.6 13.4 C 178.3 13.4 179 12.5 179 11 C 179.04 11.02 179 10.4 179 10.4 Z M 191 4.7 L 193.3 4.7 L 193.3 6.2 C 193.3 6.2 193.34 6.23 193.3 6.2 C 194 5 195.3 4.4 196.6 4.4 C 199.6 4.4 201.4 6.8 201.4 9.9 C 201.4 13 199.5 15.4 196.7 15.4 C 194.9 15.4 194 14.5 193.5 13.8 C 193.48 13.79 193.4 13.8 193.4 13.8 L 193.4 20.1 L 191 20.1 L 191 4.7 Z M 196.2 6.7 C 194.4 6.7 193.3 8.3 193.3 9.9 C 193.3 11.5 194.4 13 196.2 13 C 197.9 13 199 11.5 199 9.9 C 199 8.3 197.9 6.7 196.2 6.7 Z M 205.8 11.9 C 206.7 11.9 207.4 12.6 207.4 13.6 C 207.4 14.5 206.7 15.3 205.8 15.3 C 205 15.3 204.2 14.5 204.2 13.6 C 204.2 12.7 204.9 11.9 205.8 11.9 Z M 210.2 -0.3 L 219.8 -0.3 L 219.8 2.1 L 214.2 15.1 L 211.3 15.1 L 217.1 2.2 L 210.2 2.2 L 210.2 -0.3 Z " stroke="none" fill="#fff"/>
  </g>
</svg>