<?xml version="1.0" standalone="no"?>
<!DOCTYPE svg PUBLIC "-//W3C//DTD SVG 1.1//EN" "http://www.w3.org/Graphics/SVG/1.1/DTD/svg11.dtd">
<svg xmlns="http://www.w3.org/2000/svg" version="1.1" width="112.4px" height="17px" viewBox="0 -3 112.4 17" style="top:-3px">
  <desc>Uso yorn</desc>
  <defs/>
  <g id="Polygon32163">
    <path d="M 6 4.3 C 5.6 6.2 4.9 7.2 2.9 7.2 C 1.6 7.2 0.3 6.7 0.3 5.3 C 0.3 5 0.4 4.6 0.5 4.3 C 0.48 4.33 1.3 0.6 1.3 0.6 L 2.7 0.6 C 2.7 0.6 1.89 4.33 1.9 4.3 C 1.8 4.5 1.8 4.9 1.8 5.1 C 1.8 5.5 2 6 3 6 C 4.1 6 4.3 5.4 4.5 4.4 C 4.54 4.42 5.3 0.6 5.3 0.6 L 6.7 0.6 C 6.7 0.6 5.97 4.35 6 4.3 Z M 9.9 3.7 C 9.9 3.3 9.7 3.1 9.2 3.1 C 8.8 3.1 8.4 3.2 8.4 3.6 C 8.4 3.8 8.6 3.9 9 4 C 9 4 9.6 4.2 9.6 4.2 C 10.3 4.5 10.9 4.8 10.9 5.6 C 10.9 6.7 9.7 7.2 8.7 7.2 C 7.7 7.2 6.7 6.8 6.7 5.7 C 6.68 5.72 6.7 5.5 6.7 5.5 L 7.9 5.5 C 7.9 5.5 7.87 5.68 7.9 5.7 C 7.9 6.1 8.3 6.3 8.8 6.3 C 9.2 6.3 9.6 6.2 9.6 5.8 C 9.6 5.4 9.4 5.3 9.1 5.2 C 9.1 5.2 8.2 4.9 8.2 4.9 C 7.5 4.7 7.1 4.5 7.1 3.7 C 7.1 2.6 8.3 2.3 9.2 2.3 C 10.2 2.3 11.1 2.5 11.1 3.7 C 11.1 3.7 9.9 3.7 9.9 3.7 Z M 14.3 2.3 C 15.6 2.3 16.5 2.9 16.5 4.2 C 16.5 5.9 15.4 7.2 13.7 7.2 C 12.4 7.2 11.6 6.5 11.6 5.2 C 11.6 3.6 12.6 2.3 14.3 2.3 Z M 13.8 6.2 C 14.8 6.2 15.2 5 15.2 4.2 C 15.2 3.6 14.9 3.2 14.2 3.2 C 13.3 3.2 12.9 4.4 12.9 5.2 C 12.9 5.7 13.2 6.2 13.8 6.2 Z M 21.5 7.7 C 21 8.5 20.6 8.7 19.7 8.7 C 19.4 8.7 19.2 8.6 19 8.6 C 19 8.6 19.2 7.6 19.2 7.6 C 19.4 7.6 19.5 7.6 19.7 7.6 C 20.3 7.6 20.4 7.2 20.6 7 C 20.56 6.99 19.7 2.4 19.7 2.4 L 21 2.4 L 21.4 5.7 L 21.5 5.7 L 23.1 2.4 L 24.4 2.4 C 24.4 2.4 21.46 7.7 21.5 7.7 Z M 27.1 2.3 C 28.3 2.3 29.2 2.9 29.2 4.2 C 29.2 5.9 28.2 7.2 26.5 7.2 C 25.2 7.2 24.4 6.5 24.4 5.2 C 24.4 3.6 25.4 2.3 27.1 2.3 Z M 26.6 6.2 C 27.5 6.2 28 5 28 4.2 C 28 3.6 27.7 3.2 27 3.2 C 26.1 3.2 25.7 4.4 25.7 5.2 C 25.7 5.7 26 6.2 26.6 6.2 Z M 30.6 2.4 L 31.8 2.4 L 31.6 3.2 C 31.6 3.2 31.63 3.24 31.6 3.2 C 31.9 2.6 32.6 2.3 33.2 2.3 C 33.4 2.3 33.5 2.3 33.6 2.3 C 33.6 2.3 33.4 3.5 33.4 3.5 C 33.2 3.5 33 3.4 32.8 3.4 C 31.9 3.4 31.5 4.2 31.3 5 C 31.33 4.98 30.9 7 30.9 7 L 29.6 7 L 30.6 2.4 Z M 34.2 2.4 L 35.4 2.4 L 35.3 3 C 35.3 3 35.28 3.03 35.3 3 C 35.7 2.5 36.2 2.3 36.9 2.3 C 37.8 2.3 38.3 2.7 38.3 3.5 C 38.3 3.7 38.2 4.1 38.1 4.3 C 38.13 4.31 37.6 7 37.6 7 L 36.3 7 C 36.3 7 36.85 4.31 36.8 4.3 C 36.9 4.2 36.9 3.9 36.9 3.7 C 36.9 3.5 36.6 3.3 36.3 3.3 C 35.5 3.3 35.1 3.9 35 4.6 C 35.01 4.56 34.5 7 34.5 7 L 33.2 7 L 34.2 2.4 Z M 39.6 2.6 C 39.6 1.2 40.7 0.5 42.1 0.5 C 43.1 0.5 44 1 44 2.1 C 44 3 43.5 3.5 42.8 3.8 C 42.2 4.1 41.8 4.4 41.8 5.1 C 41.8 5.1 40.6 5.1 40.6 5.1 C 40.7 3.9 41.2 3.6 42.1 3.1 C 42.4 2.9 42.7 2.6 42.7 2.2 C 42.7 1.7 42.3 1.5 41.9 1.5 C 41.3 1.5 40.9 2 40.8 2.6 C 40.8 2.6 39.6 2.6 39.6 2.6 Z M 40.3 5.7 L 41.7 5.7 L 41.4 7 L 40 7 L 40.3 5.7 Z " stroke="none" fill="#000"/>
  </g>
</svg>