<?xml version="1.0" standalone="no"?>
<!DOCTYPE svg PUBLIC "-//W3C//DTD SVG 1.1//EN" "http://www.w3.org/Graphics/SVG/1.1/DTD/svg11.dtd">
<svg xmlns="http://www.w3.org/2000/svg" version="1.1" width="470.4px" height="31.8px" viewBox="0 -7 470.4 31.8" style="top:-7px">
  <desc>Solusyon o panibagong suliranin :</desc>
  <defs/>
  <g id="Polygon15308">
    <path d="M 5.1 0.5 C 7.4 0.5 8.8 1.5 9.4 3.6 C 9.4 3.6 7 4.5 7 4.5 C 6.6 3.4 6 2.9 5.1 2.9 C 4.7 2.9 4.3 3 4.1 3.2 C 3.8 3.5 3.7 3.7 3.7 4.1 C 3.7 4.4 3.8 4.8 4.1 5 C 4.4 5.2 5.1 5.5 6 5.9 C 6.9 6.2 7.5 6.5 8 6.8 C 8.5 7.1 8.9 7.5 9.2 8.1 C 9.5 8.6 9.7 9.2 9.7 10 C 9.7 11.2 9.2 12.2 8.4 13 C 7.5 13.8 6.4 14.2 5 14.2 C 2.5 14.2 1 13 0.3 10.5 C 0.3 10.5 2.9 9.8 2.9 9.8 C 3.2 11.2 3.9 11.8 5 11.8 C 5.5 11.8 5.9 11.7 6.3 11.4 C 6.6 11.2 6.7 10.8 6.7 10.4 C 6.7 10.1 6.6 9.8 6.4 9.5 C 6.2 9.3 5.7 9 4.9 8.7 C 3.9 8.3 3.1 8 2.6 7.7 C 2.1 7.4 1.7 7 1.3 6.4 C 1 5.9 0.9 5.3 0.9 4.6 C 0.9 3.4 1.2 2.4 2 1.6 C 2.8 0.9 3.8 0.5 5.1 0.5 C 5.1 0.5 5.1 0.5 5.1 0.5 Z M 20.7 7.3 C 20.7 11.9 19.1 14.2 15.8 14.2 C 14.2 14.2 13 13.6 12.2 12.5 C 11.4 11.3 11 9.6 11 7.3 C 11 2.8 12.6 0.5 15.8 0.5 C 17.4 0.5 18.6 1 19.4 2.2 C 20.3 3.3 20.7 5 20.7 7.3 Z M 17.6 7.3 C 17.6 5.5 17.5 4.3 17.2 3.7 C 16.9 3.1 16.5 2.9 15.8 2.9 C 15.2 2.9 14.8 3.2 14.5 3.8 C 14.2 4.3 14.1 5.5 14.1 7.3 C 14.1 9.1 14.2 10.3 14.5 10.9 C 14.8 11.5 15.2 11.8 15.8 11.8 C 16.4 11.8 16.9 11.5 17.2 10.9 C 17.5 10.3 17.6 9.1 17.6 7.3 Z M 22.7 0.7 L 25.7 0.7 L 25.7 11.5 L 30 11.5 L 30 14 L 22.7 14 L 22.7 0.7 Z M 31.2 0.7 L 34.2 0.7 C 34.2 0.7 34.17 8.29 34.2 8.3 C 34.2 9.4 34.2 10.1 34.3 10.5 C 34.4 11 34.6 11.3 34.9 11.5 C 35.2 11.7 35.6 11.8 36.1 11.8 C 36.6 11.8 36.9 11.7 37.2 11.5 C 37.5 11.2 37.7 10.9 37.8 10.5 C 37.8 10.1 37.9 9.4 37.9 8.3 C 37.85 8.29 37.9 0.7 37.9 0.7 L 40.3 0.7 C 40.3 0.7 40.3 8.17 40.3 8.2 C 40.3 9.7 40.2 10.8 40 11.5 C 39.9 12.3 39.4 12.9 38.7 13.4 C 38 13.9 37 14.2 35.8 14.2 C 34.7 14.2 33.7 14 33.1 13.6 C 32.4 13.2 31.9 12.7 31.7 12 C 31.4 11.3 31.2 10.1 31.2 8.3 C 31.24 8.29 31.2 0.7 31.2 0.7 Z M 46.6 0.5 C 49 0.5 50.4 1.5 51 3.6 C 51 3.6 48.6 4.5 48.6 4.5 C 48.2 3.4 47.6 2.9 46.7 2.9 C 46.2 2.9 45.9 3 45.6 3.2 C 45.4 3.5 45.3 3.7 45.3 4.1 C 45.3 4.4 45.4 4.8 45.7 5 C 46 5.2 46.6 5.5 47.6 5.9 C 48.4 6.2 49.1 6.5 49.6 6.8 C 50.1 7.1 50.5 7.5 50.8 8.1 C 51.1 8.6 51.2 9.2 51.2 10 C 51.2 11.2 50.8 12.2 50 13 C 49.1 13.8 48 14.2 46.5 14.2 C 44.1 14.2 42.6 13 41.9 10.5 C 41.9 10.5 44.4 9.8 44.4 9.8 C 44.8 11.2 45.5 11.8 46.6 11.8 C 47.1 11.8 47.5 11.7 47.8 11.4 C 48.1 11.2 48.3 10.8 48.3 10.4 C 48.3 10.1 48.2 9.8 48 9.5 C 47.7 9.3 47.2 9 46.4 8.7 C 45.4 8.3 44.7 8 44.2 7.7 C 43.6 7.4 43.2 7 42.9 6.4 C 42.6 5.9 42.4 5.3 42.4 4.6 C 42.4 3.4 42.8 2.4 43.6 1.6 C 44.4 0.9 45.4 0.5 46.6 0.5 C 46.6 0.5 46.6 0.5 46.6 0.5 Z M 51.3 0.7 L 54.5 0.7 L 56.4 5.5 L 58.4 0.7 L 61.3 0.7 L 57.6 8.4 L 57.6 14 L 54.6 14 L 54.6 8.4 L 51.3 0.7 Z M 71 7.3 C 71 11.9 69.3 14.2 66.1 14.2 C 64.5 14.2 63.3 13.6 62.5 12.5 C 61.7 11.3 61.3 9.6 61.3 7.3 C 61.3 2.8 62.9 0.5 66.1 0.5 C 67.7 0.5 68.9 1 69.7 2.2 C 70.5 3.3 71 5 71 7.3 Z M 67.9 7.3 C 67.9 5.5 67.7 4.3 67.5 3.7 C 67.2 3.1 66.7 2.9 66.1 2.9 C 65.5 2.9 65.1 3.2 64.8 3.8 C 64.5 4.3 64.4 5.5 64.4 7.3 C 64.4 9.1 64.5 10.3 64.8 10.9 C 65.1 11.5 65.5 11.8 66.1 11.8 C 66.7 11.8 67.2 11.5 67.4 10.9 C 67.7 10.3 67.9 9.1 67.9 7.3 Z M 72.9 0.7 L 76.1 0.7 L 79.6 9 L 79.6 0.7 L 81.8 0.7 L 81.8 14 L 79.2 14 L 75.2 4.4 L 75.2 14 L 72.9 14 L 72.9 0.7 Z M 102.8 7.3 C 102.8 11.9 101.2 14.2 97.9 14.2 C 96.3 14.2 95.1 13.6 94.3 12.5 C 93.5 11.3 93.1 9.6 93.1 7.3 C 93.1 2.8 94.7 0.5 97.9 0.5 C 99.5 0.5 100.7 1 101.5 2.2 C 102.4 3.3 102.8 5 102.8 7.3 Z M 99.7 7.3 C 99.7 5.5 99.5 4.3 99.3 3.7 C 99 3.1 98.5 2.9 97.9 2.9 C 97.3 2.9 96.9 3.2 96.6 3.8 C 96.3 4.3 96.2 5.5 96.2 7.3 C 96.2 9.1 96.3 10.3 96.6 10.9 C 96.9 11.5 97.3 11.8 97.9 11.8 C 98.5 11.8 99 11.5 99.3 10.9 C 99.5 10.3 99.7 9.1 99.7 7.3 Z M 114.1 0.7 C 114.1 0.7 117.97 0.67 118 0.7 C 119.1 0.7 120 0.8 120.7 1 C 121.3 1.2 121.9 1.6 122.3 2.3 C 122.7 3 122.9 3.8 122.9 4.8 C 122.9 5.8 122.8 6.6 122.4 7.3 C 122.1 7.9 121.6 8.4 121 8.6 C 120.3 8.9 119.4 9.1 118.1 9.1 C 118.1 9.07 117.1 9.1 117.1 9.1 L 117.1 14 L 114.1 14 L 114.1 0.7 Z M 117.1 2.8 L 117.1 6.8 C 117.1 6.8 117.97 6.79 118 6.8 C 118.8 6.8 119.3 6.6 119.5 6.2 C 119.7 5.9 119.9 5.4 119.9 4.8 C 119.9 4.3 119.8 3.9 119.6 3.6 C 119.4 3.3 119.2 3.1 119 3 C 118.7 2.9 118.4 2.8 118 2.8 C 117.97 2.83 117.1 2.8 117.1 2.8 Z M 126.4 0.7 L 129.3 0.7 L 133.1 14 L 130.1 14 L 129.5 11.3 L 125.7 11.3 L 125.1 14 L 122.4 14 L 126.4 0.7 Z M 128.9 9 L 127.6 3.5 L 126.3 9 L 128.9 9 Z M 134.2 0.7 L 137.4 0.7 L 140.8 9 L 140.8 0.7 L 143.1 0.7 L 143.1 14 L 140.5 14 L 136.4 4.4 L 136.4 14 L 134.2 14 L 134.2 0.7 Z M 145.5 0.7 L 148.4 0.7 L 148.4 14 L 145.5 14 L 145.5 0.7 Z M 150.9 0.7 C 150.9 0.7 155.5 0.67 155.5 0.7 C 156.6 0.7 157.4 0.8 157.9 0.9 C 158.5 1.1 158.9 1.5 159.3 2 C 159.6 2.6 159.8 3.3 159.8 4.2 C 159.8 5.7 159.2 6.6 157.9 7.1 C 159.4 7.6 160.2 8.7 160.2 10.3 C 160.2 11.2 160 11.9 159.6 12.5 C 159.2 13.1 158.7 13.5 158.1 13.7 C 157.5 13.9 156.6 14 155.5 14 C 155.5 14 150.9 14 150.9 14 L 150.9 0.7 Z M 153.8 6.1 C 153.8 6.1 154.71 6.05 154.7 6.1 C 155.7 6.1 156.2 5.9 156.5 5.5 C 156.7 5.2 156.9 4.8 156.9 4.4 C 156.9 4 156.7 3.6 156.5 3.3 C 156.2 3 155.7 2.8 154.9 2.8 C 154.92 2.83 153.8 2.8 153.8 2.8 L 153.8 6.1 Z M 153.8 11.7 C 153.8 11.7 155.2 11.72 155.2 11.7 C 156.5 11.7 157.2 11.1 157.2 10 C 157.2 9.3 157 8.9 156.7 8.6 C 156.4 8.3 155.9 8.2 155.2 8.2 C 155.2 8.21 153.8 8.2 153.8 8.2 L 153.8 11.7 Z M 164.5 0.7 L 167.5 0.7 L 171.3 14 L 168.3 14 L 167.6 11.3 L 163.9 11.3 L 163.2 14 L 160.5 14 L 164.5 0.7 Z M 167.1 9 L 165.7 3.5 L 164.4 9 L 167.1 9 Z M 176.9 6.9 L 181.5 6.9 L 181.5 14 L 180.3 14 C 180.3 14 179.9 12.48 179.9 12.5 C 179.2 13.6 178.1 14.2 176.7 14.2 C 175.2 14.2 174 13.6 173.1 12.4 C 172.2 11.2 171.7 9.6 171.7 7.6 C 171.7 5.4 172.2 3.7 173.1 2.4 C 173.9 1.1 175.2 0.5 176.9 0.5 C 179.7 0.5 181.2 2 181.5 5 C 181.5 5 178.9 5.5 178.9 5.5 C 178.7 3.7 178.1 2.9 177 2.9 C 176.3 2.9 175.8 3.2 175.4 3.8 C 175 4.5 174.8 5.7 174.8 7.5 C 174.8 9.1 175 10.2 175.4 10.8 C 175.8 11.5 176.3 11.8 177.1 11.8 C 178.3 11.8 178.9 10.9 178.9 9.2 C 178.89 9.18 176.9 9.2 176.9 9.2 L 176.9 6.9 Z M 193 7.3 C 193 11.9 191.4 14.2 188.2 14.2 C 186.6 14.2 185.4 13.6 184.6 12.5 C 183.7 11.3 183.3 9.6 183.3 7.3 C 183.3 2.8 184.9 0.5 188.2 0.5 C 189.7 0.5 190.9 1 191.8 2.2 C 192.6 3.3 193 5 193 7.3 Z M 189.9 7.3 C 189.9 5.5 189.8 4.3 189.5 3.7 C 189.2 3.1 188.8 2.9 188.2 2.9 C 187.6 2.9 187.1 3.2 186.8 3.8 C 186.6 4.3 186.4 5.5 186.4 7.3 C 186.4 9.1 186.6 10.3 186.8 10.9 C 187.1 11.5 187.6 11.8 188.2 11.8 C 188.8 11.8 189.2 11.5 189.5 10.9 C 189.8 10.3 189.9 9.1 189.9 7.3 Z M 194.9 0.7 L 198.2 0.7 L 201.6 9 L 201.6 0.7 L 203.9 0.7 L 203.9 14 L 201.3 14 L 197.2 4.4 L 197.2 14 L 194.9 14 L 194.9 0.7 Z M 211 6.9 L 215.6 6.9 L 215.6 14 L 214.4 14 C 214.4 14 213.97 12.48 214 12.5 C 213.3 13.6 212.2 14.2 210.8 14.2 C 209.2 14.2 208 13.6 207.1 12.4 C 206.3 11.2 205.8 9.6 205.8 7.6 C 205.8 5.4 206.2 3.7 207.1 2.4 C 208 1.1 209.3 0.5 211 0.5 C 213.7 0.5 215.3 2 215.6 5 C 215.6 5 213 5.5 213 5.5 C 212.8 3.7 212.1 2.9 211.1 2.9 C 210.4 2.9 209.9 3.2 209.5 3.8 C 209.1 4.5 208.9 5.7 208.9 7.5 C 208.9 9.1 209.1 10.2 209.5 10.8 C 209.9 11.5 210.4 11.8 211.2 11.8 C 212.4 11.8 213 10.9 213 9.2 C 212.96 9.18 211 9.2 211 9.2 L 211 6.9 Z M 231 0.5 C 233.3 0.5 234.8 1.5 235.4 3.6 C 235.4 3.6 232.9 4.5 232.9 4.5 C 232.6 3.4 232 2.9 231 2.9 C 230.6 2.9 230.3 3 230 3.2 C 229.8 3.5 229.6 3.7 229.6 4.1 C 229.6 4.4 229.8 4.8 230.1 5 C 230.4 5.2 231 5.5 232 5.9 C 232.8 6.2 233.5 6.5 234 6.8 C 234.5 7.1 234.9 7.5 235.2 8.1 C 235.5 8.6 235.6 9.2 235.6 10 C 235.6 11.2 235.2 12.2 234.3 13 C 233.5 13.8 232.3 14.2 230.9 14.2 C 228.5 14.2 226.9 13 226.3 10.5 C 226.3 10.5 228.8 9.8 228.8 9.8 C 229.1 11.2 229.9 11.8 231 11.8 C 231.5 11.8 231.9 11.7 232.2 11.4 C 232.5 11.2 232.7 10.8 232.7 10.4 C 232.7 10.1 232.6 9.8 232.3 9.5 C 232.1 9.3 231.6 9 230.8 8.7 C 229.8 8.3 229 8 228.5 7.7 C 228 7.4 227.6 7 227.3 6.4 C 227 5.9 226.8 5.3 226.8 4.6 C 226.8 3.4 227.2 2.4 228 1.6 C 228.7 0.9 229.8 0.5 231 0.5 C 231 0.5 231 0.5 231 0.5 Z M 237.4 0.7 L 240.4 0.7 C 240.4 0.7 240.36 8.29 240.4 8.3 C 240.4 9.4 240.4 10.1 240.5 10.5 C 240.6 11 240.8 11.3 241.1 11.5 C 241.4 11.7 241.8 11.8 242.3 11.8 C 242.7 11.8 243.1 11.7 243.4 11.5 C 243.7 11.2 243.9 10.9 243.9 10.5 C 244 10.1 244 9.4 244 8.3 C 244.04 8.29 244 0.7 244 0.7 L 246.5 0.7 C 246.5 0.7 246.49 8.17 246.5 8.2 C 246.5 9.7 246.4 10.8 246.2 11.5 C 246.1 12.3 245.6 12.9 244.9 13.4 C 244.2 13.9 243.2 14.2 242 14.2 C 240.8 14.2 239.9 14 239.3 13.6 C 238.6 13.2 238.1 12.7 237.9 12 C 237.6 11.3 237.4 10.1 237.4 8.3 C 237.43 8.29 237.4 0.7 237.4 0.7 Z M 249 0.7 L 251.9 0.7 L 251.9 11.5 L 256.2 11.5 L 256.2 14 L 249 14 L 249 0.7 Z M 257.5 0.7 L 260.5 0.7 L 260.5 14 L 257.5 14 L 257.5 0.7 Z M 263 0.7 C 263 0.7 267.17 0.67 267.2 0.7 C 268 0.7 268.6 0.7 269 0.8 C 269.5 0.9 269.9 1.1 270.4 1.4 C 270.8 1.7 271.1 2.2 271.4 2.7 C 271.6 3.3 271.8 3.9 271.8 4.7 C 271.8 6.3 271.1 7.5 269.9 8.2 C 269.89 8.17 272.3 14 272.3 14 L 269.2 14 L 267.4 8.7 L 265.9 8.7 L 265.9 14 L 263 14 L 263 0.7 Z M 265.9 2.8 L 265.9 6.6 C 265.9 6.6 267.2 6.57 267.2 6.6 C 268.3 6.6 268.9 5.9 268.9 4.6 C 268.9 4.2 268.8 3.8 268.7 3.6 C 268.5 3.3 268.3 3.1 268.1 3 C 267.8 2.9 267.5 2.8 267.1 2.8 C 267.08 2.83 265.9 2.8 265.9 2.8 Z M 276.2 0.7 L 279.2 0.7 L 283 14 L 280 14 L 279.3 11.3 L 275.6 11.3 L 274.9 14 L 272.2 14 L 276.2 0.7 Z M 278.8 9 L 277.4 3.5 L 276.1 9 L 278.8 9 Z M 284 0.7 L 287.2 0.7 L 290.7 9 L 290.7 0.7 L 292.9 0.7 L 292.9 14 L 290.3 14 L 286.3 4.4 L 286.3 14 L 284 14 L 284 0.7 Z M 295.3 0.7 L 298.3 0.7 L 298.3 14 L 295.3 14 L 295.3 0.7 Z M 300.7 0.7 L 303.9 0.7 L 307.4 9 L 307.4 0.7 L 309.6 0.7 L 309.6 14 L 307 14 L 302.9 4.4 L 302.9 14 L 300.7 14 L 300.7 0.7 Z M 315.3 2.9 C 314.3 2.9 313.9 3.7 313.8 5.3 C 313.8 5.3 311.3 4.9 311.3 4.9 C 311.4 3.6 311.7 2.5 312.4 1.7 C 313.1 0.9 314.1 0.5 315.4 0.5 C 316.8 0.5 317.8 0.8 318.4 1.6 C 319.1 2.3 319.4 3.2 319.4 4.2 C 319.4 5 319.2 5.6 318.9 6.2 C 318.6 6.7 318.1 7.3 317.4 7.9 C 316.9 8.3 316.6 8.7 316.5 8.9 C 316.4 9.1 316.3 9.6 316.3 10.2 C 316.33 10.19 314 10.2 314 10.2 C 314 10.2 313.98 9.75 314 9.7 C 314 8.9 314 8.3 314.1 8 C 314.2 7.6 314.5 7.2 315.1 6.6 C 315.6 6.1 316 5.7 316.1 5.4 C 316.3 5 316.4 4.6 316.4 4.2 C 316.4 3.7 316.3 3.4 316.1 3.2 C 315.8 3 315.6 2.9 315.3 2.9 C 315.3 2.9 315.3 2.9 315.3 2.9 Z M 313.8 11.2 L 316.5 11.2 L 316.5 14 L 313.8 14 L 313.8 11.2 Z M 321.5 4.1 L 324.2 4.1 L 324.2 7.1 L 321.5 7.1 L 321.5 4.1 Z M 321.5 11.1 L 324.2 11.1 L 324.2 14 L 321.5 14 L 321.5 11.1 Z " stroke="none" fill="#000"/>
  </g>
</svg>