<?xml version="1.0" standalone="no"?>
<!DOCTYPE svg PUBLIC "-//W3C//DTD SVG 1.1//EN" "http://www.w3.org/Graphics/SVG/1.1/DTD/svg11.dtd">
<svg xmlns="http://www.w3.org/2000/svg" version="1.1" width="143px" height="37.7px" viewBox="0 -4 143 37.7" style="top:-4px">
  <desc>Nagigibang ikalawang tahanan ni Juan: PAGSUSURI SA LUMULUBHANG KRISIS PANG-EDUKASYON SA PILIPINAS</desc>
  <defs/>
  <g id="Polygon13750">
    <path d="M 2.9 26.9 L 0.2 26.9 L 1.3 21.9 L 3.9 21.9 L 3.8 22.6 L 2 22.6 L 1.7 23.9 L 3.4 23.9 L 3.2 24.6 L 1.5 24.6 L 1.2 26.2 L 3 26.2 L 2.9 26.9 Z M 7.7 23.8 C 7.7 24.5 7.6 25 7.4 25.5 C 7.2 25.9 6.8 26.3 6.4 26.5 C 6 26.8 5.5 26.9 4.9 26.9 C 4.87 26.89 3.5 26.9 3.5 26.9 L 4.6 21.9 C 4.6 21.9 5.82 21.89 5.8 21.9 C 6.4 21.9 6.9 22.1 7.2 22.4 C 7.6 22.7 7.7 23.2 7.7 23.8 Z M 4.9 26.2 C 5.3 26.2 5.7 26.1 6 25.9 C 6.3 25.7 6.5 25.4 6.7 25.1 C 6.8 24.7 6.9 24.3 6.9 23.9 C 6.9 23.4 6.8 23.1 6.6 22.9 C 6.4 22.7 6.1 22.6 5.7 22.6 C 5.73 22.57 5.2 22.6 5.2 22.6 L 4.5 26.2 C 4.5 26.2 4.91 26.2 4.9 26.2 Z M 12.4 21.9 C 12.4 21.9 11.7 25.16 11.7 25.2 C 11.6 25.8 11.3 26.2 11 26.5 C 10.6 26.8 10.2 27 9.6 27 C 9.1 27 8.7 26.8 8.5 26.6 C 8.2 26.4 8.1 26 8.1 25.5 C 8.1 25.4 8.1 25.2 8.1 25 C 8.13 24.97 8.8 21.9 8.8 21.9 L 9.6 21.9 C 9.6 21.9 8.94 24.98 8.9 25 C 8.9 25.2 8.9 25.4 8.9 25.5 C 8.9 25.8 8.9 25.9 9.1 26.1 C 9.2 26.2 9.4 26.3 9.7 26.3 C 10 26.3 10.3 26.2 10.5 26 C 10.7 25.8 10.8 25.5 10.9 25.1 C 10.9 25.09 11.6 21.9 11.6 21.9 L 12.4 21.9 Z M 15.6 26.9 L 14.7 26.9 L 13.9 24.6 L 13.3 25 L 12.9 26.9 L 12.1 26.9 L 13.2 21.9 L 14 21.9 L 13.5 24.3 L 14 23.7 L 15.7 21.9 L 16.6 21.9 L 14.5 24.2 L 15.6 26.9 Z M 18.4 25.5 L 16.7 25.5 L 16 26.9 L 15.2 26.9 L 17.8 21.9 L 18.8 21.9 L 19.3 26.9 L 18.5 26.9 L 18.4 25.5 Z M 18.3 24.8 C 18.3 23.8 18.2 23.3 18.2 23.1 C 18.2 22.9 18.2 22.7 18.2 22.6 C 18 22.9 17.9 23.3 17.7 23.6 C 17.69 23.64 17.1 24.8 17.1 24.8 C 17.1 24.8 18.35 24.79 18.3 24.8 Z M 22.5 25.4 C 22.5 25.9 22.3 26.3 22 26.5 C 21.6 26.8 21.2 27 20.6 27 C 20.1 27 19.7 26.9 19.4 26.7 C 19.4 26.7 19.4 25.9 19.4 25.9 C 19.8 26.2 20.2 26.3 20.6 26.3 C 20.9 26.3 21.2 26.2 21.4 26.1 C 21.5 25.9 21.6 25.7 21.6 25.5 C 21.6 25.4 21.6 25.2 21.5 25.1 C 21.4 25 21.2 24.8 20.9 24.6 C 20.7 24.5 20.5 24.3 20.4 24.2 C 20.3 24.1 20.2 23.9 20.1 23.8 C 20 23.6 20 23.5 20 23.3 C 20 23 20.1 22.8 20.2 22.5 C 20.4 22.3 20.6 22.1 20.8 22 C 21.1 21.9 21.4 21.8 21.7 21.8 C 22.2 21.8 22.6 21.9 23 22.1 C 23 22.1 22.7 22.8 22.7 22.8 C 22.3 22.6 22 22.5 21.7 22.5 C 21.4 22.5 21.2 22.6 21.1 22.7 C 20.9 22.9 20.9 23 20.9 23.2 C 20.9 23.3 20.9 23.4 20.9 23.5 C 21 23.6 21 23.7 21.1 23.7 C 21.1 23.8 21.3 23.9 21.5 24.1 C 21.9 24.3 22.1 24.5 22.3 24.7 C 22.4 24.9 22.5 25.2 22.5 25.4 Z M 24.5 24.2 L 25.9 21.9 L 26.9 21.9 L 24.7 25 L 24.3 26.9 L 23.5 26.9 L 23.9 25 L 23.1 21.9 L 23.9 21.9 L 24.5 24.2 Z M 30.7 23.7 C 30.7 24.4 30.5 24.9 30.3 25.4 C 30.1 25.9 29.8 26.3 29.4 26.6 C 29.1 26.8 28.6 27 28.1 27 C 27.5 27 27.1 26.8 26.7 26.4 C 26.4 26.1 26.3 25.6 26.3 25 C 26.3 24.4 26.4 23.9 26.6 23.4 C 26.8 22.9 27.1 22.5 27.5 22.2 C 27.9 21.9 28.3 21.8 28.8 21.8 C 29.4 21.8 29.9 22 30.2 22.3 C 30.5 22.7 30.7 23.1 30.7 23.7 Z M 28.8 22.5 C 28.5 22.5 28.2 22.6 27.9 22.8 C 27.7 23.1 27.5 23.4 27.3 23.8 C 27.2 24.1 27.1 24.6 27.1 25 C 27.1 25.4 27.2 25.7 27.4 25.9 C 27.6 26.2 27.8 26.3 28.2 26.3 C 28.5 26.3 28.8 26.1 29 25.9 C 29.3 25.7 29.5 25.4 29.6 25 C 29.7 24.6 29.8 24.2 29.8 23.7 C 29.8 23.4 29.7 23.1 29.5 22.8 C 29.4 22.6 29.1 22.5 28.8 22.5 Z M 34.5 26.9 L 33.6 26.9 L 32.2 22.9 L 32.2 22.9 C 32.2 22.9 32.18 23.15 32.2 23.1 C 32.1 23.5 32.1 23.7 32.1 23.9 C 32 24 31.8 25 31.4 26.9 C 31.43 26.89 30.7 26.9 30.7 26.9 L 31.7 21.9 L 32.7 21.9 L 34 25.8 C 34 25.8 34.04 25.82 34 25.8 C 34.1 25.7 34.1 25.5 34.1 25.2 C 34.2 24.8 34.3 24.6 34.3 24.5 C 34.29 24.46 34.8 21.9 34.8 21.9 L 35.6 21.9 L 34.5 26.9 Z M 39.7 25.4 C 39.7 25.9 39.5 26.3 39.2 26.5 C 38.9 26.8 38.4 27 37.8 27 C 37.4 27 37 26.9 36.7 26.7 C 36.7 26.7 36.7 25.9 36.7 25.9 C 37.1 26.2 37.5 26.3 37.9 26.3 C 38.2 26.3 38.4 26.2 38.6 26.1 C 38.8 25.9 38.9 25.7 38.9 25.5 C 38.9 25.4 38.8 25.2 38.7 25.1 C 38.6 25 38.4 24.8 38.1 24.6 C 37.9 24.5 37.7 24.3 37.6 24.2 C 37.5 24.1 37.4 23.9 37.3 23.8 C 37.3 23.6 37.3 23.5 37.3 23.3 C 37.3 23 37.3 22.8 37.5 22.5 C 37.6 22.3 37.8 22.1 38.1 22 C 38.3 21.9 38.6 21.8 38.9 21.8 C 39.4 21.8 39.8 21.9 40.2 22.1 C 40.2 22.1 39.9 22.8 39.9 22.8 C 39.6 22.6 39.2 22.5 38.9 22.5 C 38.7 22.5 38.5 22.6 38.3 22.7 C 38.2 22.9 38.1 23 38.1 23.2 C 38.1 23.3 38.1 23.4 38.2 23.5 C 38.2 23.6 38.2 23.7 38.3 23.7 C 38.4 23.8 38.5 23.9 38.8 24.1 C 39.1 24.3 39.4 24.5 39.5 24.7 C 39.6 24.9 39.7 25.2 39.7 25.4 Z M 42.5 25.5 L 40.9 25.5 L 40.2 26.9 L 39.3 26.9 L 42 21.9 L 42.9 21.9 L 43.5 26.9 L 42.7 26.9 L 42.5 25.5 Z M 42.5 24.8 C 42.4 23.8 42.3 23.3 42.3 23.1 C 42.3 22.9 42.3 22.7 42.3 22.6 C 42.2 22.9 42 23.3 41.8 23.6 C 41.83 23.64 41.2 24.8 41.2 24.8 C 41.2 24.8 42.49 24.79 42.5 24.8 Z M 46.4 24.3 C 46.4 24.3 46.74 24.33 46.7 24.3 C 47.1 24.3 47.5 24.2 47.7 24.1 C 47.9 23.9 48 23.6 48 23.3 C 48 23 48 22.9 47.8 22.7 C 47.7 22.6 47.5 22.6 47.2 22.6 C 47.2 22.57 46.8 22.6 46.8 22.6 L 46.4 24.3 Z M 48.8 23.3 C 48.8 23.8 48.7 24.3 48.3 24.6 C 47.9 24.9 47.3 25 46.7 25 C 46.65 25.02 46.3 25 46.3 25 L 45.9 26.9 L 45.1 26.9 L 46.1 21.9 C 46.1 21.9 47.27 21.89 47.3 21.9 C 47.8 21.9 48.2 22 48.4 22.2 C 48.7 22.5 48.8 22.8 48.8 23.3 Z M 48.7 26.9 L 49.7 21.9 L 50.5 21.9 L 49.5 26.9 L 48.7 26.9 Z M 50.3 26.9 L 51.4 21.9 L 52.2 21.9 L 51.3 26.2 L 53.1 26.2 L 53 26.9 L 50.3 26.9 Z M 53.4 26.9 L 54.4 21.9 L 55.2 21.9 L 54.2 26.9 L 53.4 26.9 Z M 56.4 24.3 C 56.4 24.3 56.7 24.33 56.7 24.3 C 57.1 24.3 57.4 24.2 57.6 24.1 C 57.9 23.9 58 23.6 58 23.3 C 58 23 57.9 22.9 57.8 22.7 C 57.6 22.6 57.4 22.6 57.2 22.6 C 57.17 22.57 56.8 22.6 56.8 22.6 L 56.4 24.3 Z M 58.8 23.3 C 58.8 23.8 58.6 24.3 58.2 24.6 C 57.8 24.9 57.3 25 56.6 25 C 56.61 25.02 56.2 25 56.2 25 L 55.8 26.9 L 55 26.9 L 56.1 21.9 C 56.1 21.9 57.23 21.89 57.2 21.9 C 57.8 21.9 58.1 22 58.4 22.2 C 58.7 22.5 58.8 22.8 58.8 23.3 Z M 58.6 26.9 L 59.7 21.9 L 60.5 21.9 L 59.4 26.9 L 58.6 26.9 Z M 64.1 26.9 L 63.2 26.9 L 61.8 22.9 L 61.8 22.9 C 61.8 22.9 61.77 23.15 61.8 23.1 C 61.7 23.5 61.7 23.7 61.7 23.9 C 61.6 24 61.4 25 61 26.9 C 61.03 26.89 60.3 26.9 60.3 26.9 L 61.3 21.9 L 62.2 21.9 L 63.6 25.8 C 63.6 25.8 63.64 25.82 63.6 25.8 C 63.7 25.7 63.7 25.5 63.7 25.2 C 63.8 24.8 63.8 24.6 63.9 24.5 C 63.88 24.46 64.4 21.9 64.4 21.9 L 65.2 21.9 L 64.1 26.9 Z M 67.5 25.5 L 65.9 25.5 L 65.2 26.9 L 64.3 26.9 L 67 21.9 L 67.9 21.9 L 68.5 26.9 L 67.7 26.9 L 67.5 25.5 Z M 67.5 24.8 C 67.4 23.8 67.3 23.3 67.3 23.1 C 67.3 22.9 67.3 22.7 67.3 22.6 C 67.2 22.9 67 23.3 66.8 23.6 C 66.83 23.64 66.2 24.8 66.2 24.8 C 66.2 24.8 67.49 24.79 67.5 24.8 Z M 71.6 25.4 C 71.6 25.9 71.5 26.3 71.1 26.5 C 70.8 26.8 70.3 27 69.8 27 C 69.3 27 68.9 26.9 68.6 26.7 C 68.6 26.7 68.6 25.9 68.6 25.9 C 69 26.2 69.4 26.3 69.8 26.3 C 70.1 26.3 70.3 26.2 70.5 26.1 C 70.7 25.9 70.8 25.7 70.8 25.5 C 70.8 25.4 70.7 25.2 70.6 25.1 C 70.5 25 70.3 24.8 70 24.6 C 69.8 24.5 69.6 24.3 69.5 24.2 C 69.4 24.1 69.3 23.9 69.3 23.8 C 69.2 23.6 69.2 23.5 69.2 23.3 C 69.2 23 69.2 22.8 69.4 22.5 C 69.5 22.3 69.7 22.1 70 22 C 70.2 21.9 70.5 21.8 70.8 21.8 C 71.3 21.8 71.7 21.9 72.1 22.1 C 72.1 22.1 71.8 22.8 71.8 22.8 C 71.5 22.6 71.1 22.5 70.8 22.5 C 70.6 22.5 70.4 22.6 70.2 22.7 C 70.1 22.9 70 23 70 23.2 C 70 23.3 70 23.4 70.1 23.5 C 70.1 23.6 70.2 23.7 70.2 23.7 C 70.3 23.8 70.4 23.9 70.7 24.1 C 71 24.3 71.3 24.5 71.4 24.7 C 71.5 24.9 71.6 25.2 71.6 25.4 Z " stroke="none" fill="#000"/>
  </g>
  <g id="Polygon13749">
    <path d="M 1.6 14.3 C 1.6 14.3 1.91 14.33 1.9 14.3 C 2.3 14.3 2.6 14.2 2.9 14.1 C 3.1 13.9 3.2 13.6 3.2 13.3 C 3.2 13 3.1 12.9 3 12.7 C 2.9 12.6 2.6 12.6 2.4 12.6 C 2.37 12.57 2 12.6 2 12.6 L 1.6 14.3 Z M 4 13.3 C 4 13.8 3.8 14.3 3.4 14.6 C 3 14.9 2.5 15 1.8 15 C 1.82 15.02 1.4 15 1.4 15 L 1 16.9 L 0.2 16.9 L 1.3 11.9 C 1.3 11.9 2.44 11.89 2.4 11.9 C 3 11.9 3.4 12 3.6 12.2 C 3.9 12.5 4 12.8 4 13.3 Z M 6.4 15.5 L 4.8 15.5 L 4 16.9 L 3.2 16.9 L 5.9 11.9 L 6.8 11.9 L 7.4 16.9 L 6.6 16.9 L 6.4 15.5 Z M 6.4 14.8 C 6.3 13.8 6.2 13.3 6.2 13.1 C 6.2 12.9 6.2 12.7 6.2 12.6 C 6.1 12.9 5.9 13.3 5.7 13.6 C 5.7 13.64 5.1 14.8 5.1 14.8 C 5.1 14.8 6.36 14.79 6.4 14.8 Z M 10 14.2 L 11.7 14.2 C 11.7 14.2 11.21 16.69 11.2 16.7 C 11 16.8 10.7 16.8 10.5 16.9 C 10.2 16.9 9.9 17 9.6 17 C 9.1 17 8.6 16.8 8.3 16.5 C 7.9 16.1 7.8 15.7 7.8 15 C 7.8 14.4 7.9 13.9 8.1 13.4 C 8.4 12.9 8.7 12.5 9.1 12.2 C 9.5 12 10 11.8 10.6 11.8 C 10.8 11.8 11.1 11.8 11.3 11.9 C 11.5 11.9 11.8 12 12 12.1 C 12 12.1 11.7 12.8 11.7 12.8 C 11.3 12.6 10.9 12.5 10.5 12.5 C 10.2 12.5 9.9 12.6 9.6 12.8 C 9.3 13 9 13.3 8.9 13.7 C 8.7 14.1 8.6 14.5 8.6 15 C 8.6 15.4 8.7 15.7 8.9 15.9 C 9.1 16.2 9.4 16.3 9.8 16.3 C 10 16.3 10.3 16.2 10.5 16.1 C 10.52 16.14 10.8 14.9 10.8 14.9 L 9.8 14.9 L 10 14.2 Z M 14.8 15.4 C 14.8 15.9 14.7 16.3 14.4 16.5 C 14 16.8 13.6 17 13 17 C 12.5 17 12.1 16.9 11.8 16.7 C 11.8 16.7 11.8 15.9 11.8 15.9 C 12.2 16.2 12.6 16.3 13 16.3 C 13.3 16.3 13.6 16.2 13.7 16.1 C 13.9 15.9 14 15.7 14 15.5 C 14 15.4 14 15.2 13.9 15.1 C 13.8 15 13.6 14.8 13.3 14.6 C 13 14.5 12.9 14.3 12.8 14.2 C 12.6 14.1 12.5 13.9 12.5 13.8 C 12.4 13.6 12.4 13.5 12.4 13.3 C 12.4 13 12.5 12.8 12.6 12.5 C 12.7 12.3 12.9 12.1 13.2 12 C 13.5 11.9 13.7 11.8 14.1 11.8 C 14.5 11.8 15 11.9 15.4 12.1 C 15.4 12.1 15.1 12.8 15.1 12.8 C 14.7 12.6 14.4 12.5 14.1 12.5 C 13.8 12.5 13.6 12.6 13.5 12.7 C 13.3 12.9 13.2 13 13.2 13.2 C 13.2 13.3 13.3 13.4 13.3 13.5 C 13.3 13.6 13.4 13.7 13.5 13.7 C 13.5 13.8 13.7 13.9 13.9 14.1 C 14.3 14.3 14.5 14.5 14.6 14.7 C 14.8 14.9 14.8 15.2 14.8 15.4 Z M 19.7 11.9 C 19.7 11.9 19.02 15.16 19 15.2 C 18.9 15.8 18.7 16.2 18.3 16.5 C 18 16.8 17.5 17 16.9 17 C 16.4 17 16.1 16.8 15.8 16.6 C 15.5 16.4 15.4 16 15.4 15.5 C 15.4 15.4 15.4 15.2 15.5 15 C 15.45 14.97 16.1 11.9 16.1 11.9 L 16.9 11.9 C 16.9 11.9 16.26 14.98 16.3 15 C 16.2 15.2 16.2 15.4 16.2 15.5 C 16.2 15.8 16.3 15.9 16.4 16.1 C 16.5 16.2 16.7 16.3 17 16.3 C 17.3 16.3 17.6 16.2 17.8 16 C 18 15.8 18.1 15.5 18.2 15.1 C 18.22 15.09 18.9 11.9 18.9 11.9 L 19.7 11.9 Z M 22.4 15.4 C 22.4 15.9 22.2 16.3 21.9 16.5 C 21.6 16.8 21.1 17 20.5 17 C 20.1 17 19.7 16.9 19.4 16.7 C 19.4 16.7 19.4 15.9 19.4 15.9 C 19.8 16.2 20.2 16.3 20.6 16.3 C 20.9 16.3 21.1 16.2 21.3 16.1 C 21.5 15.9 21.6 15.7 21.6 15.5 C 21.6 15.4 21.5 15.2 21.4 15.1 C 21.3 15 21.1 14.8 20.8 14.6 C 20.6 14.5 20.4 14.3 20.3 14.2 C 20.2 14.1 20.1 13.9 20 13.8 C 20 13.6 20 13.5 20 13.3 C 20 13 20 12.8 20.2 12.5 C 20.3 12.3 20.5 12.1 20.8 12 C 21 11.9 21.3 11.8 21.6 11.8 C 22.1 11.8 22.5 11.9 22.9 12.1 C 22.9 12.1 22.6 12.8 22.6 12.8 C 22.3 12.6 21.9 12.5 21.6 12.5 C 21.4 12.5 21.2 12.6 21 12.7 C 20.9 12.9 20.8 13 20.8 13.2 C 20.8 13.3 20.8 13.4 20.9 13.5 C 20.9 13.6 20.9 13.7 21 13.7 C 21.1 13.8 21.2 13.9 21.5 14.1 C 21.8 14.3 22.1 14.5 22.2 14.7 C 22.3 14.9 22.4 15.2 22.4 15.4 Z M 27.3 11.9 C 27.3 11.9 26.58 15.16 26.6 15.2 C 26.4 15.8 26.2 16.2 25.9 16.5 C 25.5 16.8 25.1 17 24.5 17 C 24 17 23.6 16.8 23.3 16.6 C 23.1 16.4 22.9 16 22.9 15.5 C 22.9 15.4 23 15.2 23 15 C 23.01 14.97 23.7 11.9 23.7 11.9 L 24.5 11.9 C 24.5 11.9 23.82 14.98 23.8 15 C 23.8 15.2 23.7 15.4 23.7 15.5 C 23.7 15.8 23.8 15.9 24 16.1 C 24.1 16.2 24.3 16.3 24.6 16.3 C 24.9 16.3 25.2 16.2 25.4 16 C 25.5 15.8 25.7 15.5 25.8 15.1 C 25.78 15.09 26.5 11.9 26.5 11.9 L 27.3 11.9 Z M 28.2 14.9 L 27.8 16.9 L 27 16.9 L 28.1 11.9 C 28.1 11.9 29.23 11.89 29.2 11.9 C 29.7 11.9 30.1 12 30.4 12.2 C 30.7 12.4 30.8 12.8 30.8 13.2 C 30.8 13.6 30.7 13.9 30.5 14.2 C 30.3 14.4 30 14.6 29.6 14.7 C 29.63 14.72 30.5 16.9 30.5 16.9 L 29.6 16.9 L 28.9 14.9 L 28.2 14.9 Z M 28.4 14.2 C 28.4 14.2 28.82 14.21 28.8 14.2 C 29.2 14.2 29.5 14.1 29.7 14 C 29.9 13.8 30 13.6 30 13.3 C 30 13 29.9 12.8 29.8 12.7 C 29.6 12.6 29.4 12.6 29.1 12.6 C 29.14 12.58 28.7 12.6 28.7 12.6 L 28.4 14.2 Z M 30.7 16.9 L 31.8 11.9 L 32.6 11.9 L 31.5 16.9 L 30.7 16.9 Z M 36.7 15.4 C 36.7 15.9 36.6 16.3 36.2 16.5 C 35.9 16.8 35.4 17 34.9 17 C 34.4 17 34 16.9 33.7 16.7 C 33.7 16.7 33.7 15.9 33.7 15.9 C 34.1 16.2 34.5 16.3 34.9 16.3 C 35.2 16.3 35.4 16.2 35.6 16.1 C 35.8 15.9 35.9 15.7 35.9 15.5 C 35.9 15.4 35.8 15.2 35.7 15.1 C 35.6 15 35.4 14.8 35.1 14.6 C 34.9 14.5 34.7 14.3 34.6 14.2 C 34.5 14.1 34.4 13.9 34.4 13.8 C 34.3 13.6 34.3 13.5 34.3 13.3 C 34.3 13 34.3 12.8 34.5 12.5 C 34.6 12.3 34.8 12.1 35.1 12 C 35.3 11.9 35.6 11.8 35.9 11.8 C 36.4 11.8 36.8 11.9 37.2 12.1 C 37.2 12.1 36.9 12.8 36.9 12.8 C 36.6 12.6 36.2 12.5 35.9 12.5 C 35.7 12.5 35.5 12.6 35.3 12.7 C 35.2 12.9 35.1 13 35.1 13.2 C 35.1 13.3 35.1 13.4 35.2 13.5 C 35.2 13.6 35.3 13.7 35.3 13.7 C 35.4 13.8 35.5 13.9 35.8 14.1 C 36.1 14.3 36.4 14.5 36.5 14.7 C 36.6 14.9 36.7 15.2 36.7 15.4 Z M 39.6 15.5 L 37.9 15.5 L 37.2 16.9 L 36.3 16.9 L 39 11.9 L 39.9 11.9 L 40.5 16.9 L 39.7 16.9 L 39.6 15.5 Z M 39.5 14.8 C 39.4 13.8 39.4 13.3 39.3 13.1 C 39.3 12.9 39.3 12.7 39.3 12.6 C 39.2 12.9 39 13.3 38.8 13.6 C 38.84 13.64 38.3 14.8 38.3 14.8 C 38.3 14.8 39.5 14.79 39.5 14.8 Z M 42.1 16.9 L 43.1 11.9 L 44 11.9 L 43 16.2 L 44.9 16.2 L 44.7 16.9 L 42.1 16.9 Z M 49.7 11.9 C 49.7 11.9 49.06 15.16 49.1 15.2 C 48.9 15.8 48.7 16.2 48.3 16.5 C 48 16.8 47.5 17 47 17 C 46.5 17 46.1 16.8 45.8 16.6 C 45.6 16.4 45.4 16 45.4 15.5 C 45.4 15.4 45.4 15.2 45.5 15 C 45.49 14.97 46.1 11.9 46.1 11.9 L 47 11.9 C 47 11.9 46.3 14.98 46.3 15 C 46.3 15.2 46.2 15.4 46.2 15.5 C 46.2 15.8 46.3 15.9 46.4 16.1 C 46.6 16.2 46.8 16.3 47 16.3 C 47.4 16.3 47.6 16.2 47.8 16 C 48 15.8 48.2 15.5 48.3 15.1 C 48.26 15.09 48.9 11.9 48.9 11.9 L 49.7 11.9 Z M 51.5 16.9 L 51.1 12.7 C 51.1 12.7 51.06 12.74 51.1 12.7 C 51 13 51 13.4 50.9 13.9 C 50.87 13.9 50.2 16.9 50.2 16.9 L 49.5 16.9 L 50.5 11.9 L 51.7 11.9 L 52 15.8 L 52 15.8 L 54.1 11.9 L 55.3 11.9 L 54.2 16.9 L 53.5 16.9 C 53.5 16.9 54.1 13.91 54.1 13.9 C 54.2 13.5 54.3 13.1 54.4 12.7 C 54.39 12.74 54.4 12.7 54.4 12.7 L 52.2 16.9 L 51.5 16.9 Z M 59.7 11.9 C 59.7 11.9 59 15.16 59 15.2 C 58.9 15.8 58.6 16.2 58.3 16.5 C 57.9 16.8 57.5 17 56.9 17 C 56.4 17 56 16.8 55.8 16.6 C 55.5 16.4 55.4 16 55.4 15.5 C 55.4 15.4 55.4 15.2 55.4 15 C 55.43 14.97 56.1 11.9 56.1 11.9 L 56.9 11.9 C 56.9 11.9 56.25 14.98 56.2 15 C 56.2 15.2 56.2 15.4 56.2 15.5 C 56.2 15.8 56.2 15.9 56.4 16.1 C 56.5 16.2 56.7 16.3 57 16.3 C 57.3 16.3 57.6 16.2 57.8 16 C 58 15.8 58.1 15.5 58.2 15.1 C 58.2 15.09 58.9 11.9 58.9 11.9 L 59.7 11.9 Z M 59.4 16.9 L 60.5 11.9 L 61.3 11.9 L 60.4 16.2 L 62.2 16.2 L 62.1 16.9 L 59.4 16.9 Z M 67.1 11.9 C 67.1 11.9 66.42 15.16 66.4 15.2 C 66.3 15.8 66.1 16.2 65.7 16.5 C 65.4 16.8 64.9 17 64.3 17 C 63.8 17 63.5 16.8 63.2 16.6 C 62.9 16.4 62.8 16 62.8 15.5 C 62.8 15.4 62.8 15.2 62.8 15 C 62.85 14.97 63.5 11.9 63.5 11.9 L 64.3 11.9 C 64.3 11.9 63.66 14.98 63.7 15 C 63.6 15.2 63.6 15.4 63.6 15.5 C 63.6 15.8 63.7 15.9 63.8 16.1 C 63.9 16.2 64.1 16.3 64.4 16.3 C 64.7 16.3 65 16.2 65.2 16 C 65.4 15.8 65.5 15.5 65.6 15.1 C 65.62 15.09 66.3 11.9 66.3 11.9 L 67.1 11.9 Z M 69.3 11.9 C 69.8 11.9 70.2 12 70.4 12.2 C 70.7 12.4 70.8 12.7 70.8 13 C 70.8 13.4 70.7 13.6 70.5 13.9 C 70.3 14.1 70 14.2 69.7 14.3 C 69.7 14.3 69.7 14.3 69.7 14.3 C 69.9 14.4 70.1 14.5 70.3 14.7 C 70.4 14.8 70.5 15.1 70.5 15.3 C 70.5 15.8 70.3 16.2 70 16.5 C 69.6 16.7 69.1 16.9 68.5 16.9 C 68.54 16.89 66.9 16.9 66.9 16.9 L 67.9 11.9 C 67.9 11.9 69.28 11.89 69.3 11.9 Z M 68.3 14 C 68.3 14 68.97 13.95 69 14 C 69.3 14 69.5 13.9 69.7 13.7 C 69.9 13.6 70 13.4 70 13.2 C 70 12.8 69.7 12.6 69.2 12.6 C 69.2 12.57 68.6 12.6 68.6 12.6 L 68.3 14 Z M 67.8 16.2 C 67.8 16.2 68.57 16.2 68.6 16.2 C 68.9 16.2 69.2 16.1 69.4 16 C 69.6 15.8 69.6 15.6 69.6 15.3 C 69.6 15.1 69.6 14.9 69.4 14.8 C 69.3 14.7 69.1 14.6 68.8 14.6 C 68.84 14.62 68.2 14.6 68.2 14.6 L 67.8 16.2 Z M 74.3 16.9 L 73.4 16.9 L 73.9 14.6 L 72 14.6 L 71.5 16.9 L 70.7 16.9 L 71.8 11.9 L 72.6 11.9 L 72.1 13.9 L 74.1 13.9 L 74.5 11.9 L 75.3 11.9 L 74.3 16.9 Z M 77.7 15.5 L 76 15.5 L 75.3 16.9 L 74.5 16.9 L 77.1 11.9 L 78.1 11.9 L 78.6 16.9 L 77.8 16.9 L 77.7 15.5 Z M 77.6 14.8 C 77.5 13.8 77.5 13.3 77.5 13.1 C 77.5 12.9 77.5 12.7 77.5 12.6 C 77.3 12.9 77.2 13.3 77 13.6 C 76.98 13.64 76.4 14.8 76.4 14.8 C 76.4 14.8 77.64 14.79 77.6 14.8 Z M 82.7 16.9 L 81.8 16.9 L 80.4 12.9 L 80.3 12.9 C 80.3 12.9 80.31 13.15 80.3 13.1 C 80.3 13.5 80.2 13.7 80.2 13.9 C 80.2 14 80 15 79.6 16.9 C 79.56 16.89 78.8 16.9 78.8 16.9 L 79.9 11.9 L 80.8 11.9 L 82.1 15.8 C 82.1 15.8 82.17 15.82 82.2 15.8 C 82.2 15.7 82.2 15.5 82.3 15.2 C 82.3 14.8 82.4 14.6 82.4 14.5 C 82.42 14.46 83 11.9 83 11.9 L 83.7 11.9 L 82.7 16.9 Z M 85.9 14.2 L 87.7 14.2 C 87.7 14.2 87.16 16.69 87.2 16.7 C 86.9 16.8 86.7 16.8 86.4 16.9 C 86.2 16.9 85.9 17 85.6 17 C 85 17 84.5 16.8 84.2 16.5 C 83.9 16.1 83.7 15.7 83.7 15 C 83.7 14.4 83.8 13.9 84.1 13.4 C 84.3 12.9 84.6 12.5 85.1 12.2 C 85.5 12 86 11.8 86.5 11.8 C 86.8 11.8 87 11.8 87.2 11.9 C 87.5 11.9 87.7 12 87.9 12.1 C 87.9 12.1 87.6 12.8 87.6 12.8 C 87.2 12.6 86.9 12.5 86.5 12.5 C 86.1 12.5 85.8 12.6 85.5 12.8 C 85.2 13 85 13.3 84.8 13.7 C 84.7 14.1 84.6 14.5 84.6 15 C 84.6 15.4 84.7 15.7 84.9 15.9 C 85.1 16.2 85.4 16.3 85.7 16.3 C 86 16.3 86.2 16.2 86.5 16.1 C 86.47 16.14 86.7 14.9 86.7 14.9 L 85.8 14.9 L 85.9 14.2 Z M 92.7 16.9 L 91.8 16.9 L 91 14.6 L 90.5 15 L 90.1 16.9 L 89.3 16.9 L 90.3 11.9 L 91.1 11.9 L 90.6 14.3 L 91.1 13.7 L 92.8 11.9 L 93.7 11.9 L 91.6 14.2 L 92.7 16.9 Z M 94.2 14.9 L 93.7 16.9 L 92.9 16.9 L 94 11.9 C 94 11.9 95.14 11.89 95.1 11.9 C 95.7 11.9 96 12 96.3 12.2 C 96.6 12.4 96.7 12.8 96.7 13.2 C 96.7 13.6 96.6 13.9 96.4 14.2 C 96.2 14.4 95.9 14.6 95.5 14.7 C 95.54 14.72 96.4 16.9 96.4 16.9 L 95.5 16.9 L 94.8 14.9 L 94.2 14.9 Z M 94.3 14.2 C 94.3 14.2 94.73 14.21 94.7 14.2 C 95.1 14.2 95.4 14.1 95.6 14 C 95.8 13.8 95.9 13.6 95.9 13.3 C 95.9 13 95.8 12.8 95.7 12.7 C 95.5 12.6 95.3 12.6 95.1 12.6 C 95.06 12.58 94.7 12.6 94.7 12.6 L 94.3 14.2 Z M 96.6 16.9 L 97.7 11.9 L 98.5 11.9 L 97.4 16.9 L 96.6 16.9 Z M 101.2 15.4 C 101.2 15.9 101.1 16.3 100.7 16.5 C 100.4 16.8 100 17 99.4 17 C 98.9 17 98.5 16.9 98.2 16.7 C 98.2 16.7 98.2 15.9 98.2 15.9 C 98.6 16.2 99 16.3 99.4 16.3 C 99.7 16.3 99.9 16.2 100.1 16.1 C 100.3 15.9 100.4 15.7 100.4 15.5 C 100.4 15.4 100.3 15.2 100.3 15.1 C 100.2 15 100 14.8 99.7 14.6 C 99.4 14.5 99.2 14.3 99.1 14.2 C 99 14.1 98.9 13.9 98.9 13.8 C 98.8 13.6 98.8 13.5 98.8 13.3 C 98.8 13 98.9 12.8 99 12.5 C 99.1 12.3 99.3 12.1 99.6 12 C 99.8 11.9 100.1 11.8 100.5 11.8 C 100.9 11.8 101.4 11.9 101.8 12.1 C 101.8 12.1 101.5 12.8 101.5 12.8 C 101.1 12.6 100.8 12.5 100.5 12.5 C 100.2 12.5 100 12.6 99.9 12.7 C 99.7 12.9 99.6 13 99.6 13.2 C 99.6 13.3 99.6 13.4 99.7 13.5 C 99.7 13.6 99.8 13.7 99.8 13.7 C 99.9 13.8 100.1 13.9 100.3 14.1 C 100.7 14.3 100.9 14.5 101 14.7 C 101.2 14.9 101.2 15.2 101.2 15.4 Z M 101.5 16.9 L 102.5 11.9 L 103.4 11.9 L 102.3 16.9 L 101.5 16.9 Z M 106.1 15.4 C 106.1 15.9 105.9 16.3 105.6 16.5 C 105.3 16.8 104.8 17 104.2 17 C 103.7 17 103.4 16.9 103 16.7 C 103 16.7 103 15.9 103 15.9 C 103.4 16.2 103.8 16.3 104.2 16.3 C 104.5 16.3 104.8 16.2 105 16.1 C 105.2 15.9 105.2 15.7 105.2 15.5 C 105.2 15.4 105.2 15.2 105.1 15.1 C 105 15 104.8 14.8 104.5 14.6 C 104.3 14.5 104.1 14.3 104 14.2 C 103.9 14.1 103.8 13.9 103.7 13.8 C 103.7 13.6 103.6 13.5 103.6 13.3 C 103.6 13 103.7 12.8 103.8 12.5 C 104 12.3 104.2 12.1 104.4 12 C 104.7 11.9 105 11.8 105.3 11.8 C 105.8 11.8 106.2 11.9 106.6 12.1 C 106.6 12.1 106.3 12.8 106.3 12.8 C 105.9 12.6 105.6 12.5 105.3 12.5 C 105.1 12.5 104.9 12.6 104.7 12.7 C 104.6 12.9 104.5 13 104.5 13.2 C 104.5 13.3 104.5 13.4 104.5 13.5 C 104.6 13.6 104.6 13.7 104.7 13.7 C 104.8 13.8 104.9 13.9 105.1 14.1 C 105.5 14.3 105.7 14.5 105.9 14.7 C 106 14.9 106.1 15.2 106.1 15.4 Z M 109.1 14.3 C 109.1 14.3 109.41 14.33 109.4 14.3 C 109.8 14.3 110.1 14.2 110.3 14.1 C 110.6 13.9 110.7 13.6 110.7 13.3 C 110.7 13 110.6 12.9 110.5 12.7 C 110.3 12.6 110.1 12.6 109.9 12.6 C 109.87 12.57 109.5 12.6 109.5 12.6 L 109.1 14.3 Z M 111.5 13.3 C 111.5 13.8 111.3 14.3 110.9 14.6 C 110.5 14.9 110 15 109.3 15 C 109.31 15.02 108.9 15 108.9 15 L 108.5 16.9 L 107.7 16.9 L 108.8 11.9 C 108.8 11.9 109.93 11.89 109.9 11.9 C 110.5 11.9 110.8 12 111.1 12.2 C 111.4 12.5 111.5 12.8 111.5 13.3 Z M 113.9 15.5 L 112.3 15.5 L 111.5 16.9 L 110.7 16.9 L 113.3 11.9 L 114.3 11.9 L 114.9 16.9 L 114.1 16.9 L 113.9 15.5 Z M 113.9 14.8 C 113.8 13.8 113.7 13.3 113.7 13.1 C 113.7 12.9 113.7 12.7 113.7 12.6 C 113.6 12.9 113.4 13.3 113.2 13.6 C 113.2 13.64 112.6 14.8 112.6 14.8 C 112.6 14.8 113.86 14.79 113.9 14.8 Z M 118.9 16.9 L 118 16.9 L 116.6 12.9 L 116.6 12.9 C 116.6 12.9 116.53 13.15 116.5 13.1 C 116.5 13.5 116.4 13.7 116.4 13.9 C 116.4 14 116.2 15 115.8 16.9 C 115.78 16.89 115 16.9 115 16.9 L 116.1 11.9 L 117 11.9 L 118.4 15.8 C 118.4 15.8 118.4 15.82 118.4 15.8 C 118.4 15.7 118.4 15.5 118.5 15.2 C 118.6 14.8 118.6 14.6 118.6 14.5 C 118.64 14.46 119.2 11.9 119.2 11.9 L 119.9 11.9 L 118.9 16.9 Z M 122.2 14.2 L 123.9 14.2 C 123.9 14.2 123.38 16.69 123.4 16.7 C 123.1 16.8 122.9 16.8 122.6 16.9 C 122.4 16.9 122.1 17 121.8 17 C 121.2 17 120.8 16.8 120.4 16.5 C 120.1 16.1 119.9 15.7 119.9 15 C 119.9 14.4 120.1 13.9 120.3 13.4 C 120.5 12.9 120.9 12.5 121.3 12.2 C 121.7 12 122.2 11.8 122.7 11.8 C 123 11.8 123.2 11.8 123.5 11.9 C 123.7 11.9 123.9 12 124.2 12.1 C 124.2 12.1 123.9 12.8 123.9 12.8 C 123.5 12.6 123.1 12.5 122.7 12.5 C 122.4 12.5 122 12.6 121.7 12.8 C 121.4 13 121.2 13.3 121 13.7 C 120.9 14.1 120.8 14.5 120.8 15 C 120.8 15.4 120.9 15.7 121.1 15.9 C 121.3 16.2 121.6 16.3 122 16.3 C 122.2 16.3 122.5 16.2 122.7 16.1 C 122.69 16.14 123 14.9 123 14.9 L 122 14.9 L 122.2 14.2 Z M 124 15.4 L 124.2 14.7 L 125.9 14.7 L 125.7 15.4 L 124 15.4 Z " stroke="none" fill="#000"/>
  </g>
  <g id="Polygon13748">
    <path d="M 5 6.9 L 4.6 6.9 L 1.2 1.8 C 1.2 1.8 1.14 1.82 1.1 1.8 C 1.2 2.4 1.2 2.9 1.2 3.2 C 1.19 3.18 1.2 6.9 1.2 6.9 L 0.8 6.9 L 0.8 1.2 L 1.2 1.2 L 4.6 6.2 C 4.6 6.2 4.61 6.24 4.6 6.2 C 4.6 5.8 4.6 5.3 4.6 4.9 C 4.57 4.9 4.6 1.2 4.6 1.2 L 5 1.2 L 5 6.9 Z M 8.8 6.9 L 8.7 6.2 C 8.7 6.2 8.69 6.21 8.7 6.2 C 8.5 6.5 8.3 6.7 8 6.8 C 7.8 6.9 7.5 7 7.2 7 C 6.8 7 6.5 6.9 6.3 6.6 C 6 6.4 5.9 6.1 5.9 5.8 C 5.9 5.3 6.1 5 6.4 4.8 C 6.8 4.6 7.3 4.4 7.9 4.4 C 7.93 4.43 8.7 4.4 8.7 4.4 C 8.7 4.4 8.74 4.12 8.7 4.1 C 8.7 3.7 8.7 3.4 8.5 3.2 C 8.3 3 8.1 2.9 7.7 2.9 C 7.3 2.9 6.9 3 6.5 3.2 C 6.5 3.2 6.3 2.9 6.3 2.9 C 6.8 2.7 7.3 2.6 7.7 2.6 C 8.2 2.6 8.5 2.7 8.8 2.9 C 9 3.2 9.1 3.5 9.1 4.1 C 9.1 4.06 9.1 6.9 9.1 6.9 L 8.8 6.9 Z M 7.3 6.6 C 7.7 6.6 8.1 6.5 8.3 6.2 C 8.6 6 8.7 5.6 8.7 5.1 C 8.72 5.14 8.7 4.7 8.7 4.7 C 8.7 4.7 7.98 4.76 8 4.8 C 7.4 4.8 7 4.9 6.7 5 C 6.4 5.2 6.3 5.4 6.3 5.8 C 6.3 6 6.4 6.2 6.6 6.4 C 6.7 6.5 7 6.6 7.3 6.6 Z M 13.6 2.6 L 13.6 2.9 C 13.6 2.9 12.67 2.96 12.7 3 C 12.9 3.3 13 3.6 13 3.9 C 13 4.3 12.9 4.7 12.6 4.9 C 12.3 5.2 12 5.3 11.5 5.3 C 11.3 5.3 11.2 5.3 11.1 5.3 C 11 5.4 10.8 5.5 10.8 5.6 C 10.7 5.7 10.6 5.8 10.6 5.9 C 10.6 6 10.7 6.1 10.8 6.2 C 10.9 6.3 11.1 6.3 11.3 6.3 C 11.3 6.3 12.1 6.3 12.1 6.3 C 12.5 6.3 12.9 6.4 13.1 6.6 C 13.4 6.8 13.5 7 13.5 7.4 C 13.5 7.9 13.3 8.2 12.9 8.4 C 12.6 8.7 12.1 8.8 11.4 8.8 C 10.8 8.8 10.4 8.7 10.1 8.5 C 9.9 8.3 9.7 8 9.7 7.6 C 9.7 7.3 9.8 7.1 10 6.9 C 10.2 6.7 10.4 6.6 10.7 6.5 C 10.6 6.5 10.5 6.4 10.4 6.3 C 10.3 6.2 10.3 6.1 10.3 5.9 C 10.3 5.7 10.5 5.4 10.8 5.2 C 10.6 5.1 10.4 4.9 10.3 4.7 C 10.1 4.5 10 4.2 10 4 C 10 3.5 10.2 3.2 10.5 2.9 C 10.7 2.7 11.1 2.6 11.5 2.6 C 11.8 2.6 12 2.6 12.2 2.6 C 12.19 2.64 13.6 2.6 13.6 2.6 Z M 11.3 6.7 C 10.5 6.7 10.1 7 10.1 7.6 C 10.1 8.2 10.5 8.5 11.4 8.5 C 12.5 8.5 13.1 8.1 13.1 7.4 C 13.1 7.2 13 7 12.8 6.9 C 12.7 6.7 12.4 6.7 12 6.7 C 11.98 6.69 11.3 6.7 11.3 6.7 C 11.3 6.7 11.28 6.69 11.3 6.7 Z M 10.4 4 C 10.4 4.3 10.5 4.5 10.7 4.7 C 10.9 4.9 11.2 5 11.5 5 C 11.9 5 12.2 4.9 12.4 4.7 C 12.5 4.6 12.6 4.3 12.6 3.9 C 12.6 3.6 12.5 3.3 12.3 3.1 C 12.1 3 11.9 2.9 11.5 2.9 C 11.2 2.9 10.9 3 10.7 3.2 C 10.5 3.3 10.4 3.6 10.4 4 Z M 14.6 6.9 L 14.2 6.9 L 14.2 2.6 L 14.6 2.6 L 14.6 6.9 Z M 14.4 1.8 C 14.2 1.8 14.1 1.7 14.1 1.5 C 14.1 1.2 14.2 1.1 14.4 1.1 C 14.5 1.1 14.5 1.1 14.6 1.2 C 14.6 1.2 14.6 1.3 14.6 1.5 C 14.6 1.6 14.6 1.7 14.6 1.7 C 14.5 1.8 14.5 1.8 14.4 1.8 C 14.4 1.8 14.4 1.8 14.4 1.8 Z M 19.1 2.6 L 19.1 2.9 C 19.1 2.9 18.18 2.96 18.2 3 C 18.4 3.3 18.5 3.6 18.5 3.9 C 18.5 4.3 18.4 4.7 18.1 4.9 C 17.9 5.2 17.5 5.3 17 5.3 C 16.8 5.3 16.7 5.3 16.6 5.3 C 16.5 5.4 16.4 5.5 16.3 5.6 C 16.2 5.7 16.2 5.8 16.2 5.9 C 16.2 6 16.2 6.1 16.3 6.2 C 16.4 6.3 16.6 6.3 16.8 6.3 C 16.8 6.3 17.6 6.3 17.6 6.3 C 18 6.3 18.4 6.4 18.6 6.6 C 18.9 6.8 19 7 19 7.4 C 19 7.9 18.8 8.2 18.4 8.4 C 18.1 8.7 17.6 8.8 16.9 8.8 C 16.4 8.8 15.9 8.7 15.7 8.5 C 15.4 8.3 15.2 8 15.2 7.6 C 15.2 7.3 15.3 7.1 15.5 6.9 C 15.7 6.7 15.9 6.6 16.2 6.5 C 16.1 6.5 16 6.4 15.9 6.3 C 15.8 6.2 15.8 6.1 15.8 5.9 C 15.8 5.7 16 5.4 16.3 5.2 C 16.1 5.1 15.9 4.9 15.8 4.7 C 15.6 4.5 15.6 4.2 15.6 4 C 15.6 3.5 15.7 3.2 16 2.9 C 16.2 2.7 16.6 2.6 17.1 2.6 C 17.3 2.6 17.6 2.6 17.7 2.6 C 17.7 2.64 19.1 2.6 19.1 2.6 Z M 16.8 6.7 C 16 6.7 15.6 7 15.6 7.6 C 15.6 8.2 16.1 8.5 16.9 8.5 C 18 8.5 18.6 8.1 18.6 7.4 C 18.6 7.2 18.5 7 18.3 6.9 C 18.2 6.7 17.9 6.7 17.5 6.7 C 17.49 6.69 16.8 6.7 16.8 6.7 C 16.8 6.7 16.79 6.69 16.8 6.7 Z M 16 4 C 16 4.3 16 4.5 16.2 4.7 C 16.4 4.9 16.7 5 17 5 C 17.4 5 17.7 4.9 17.9 4.7 C 18.1 4.6 18.1 4.3 18.1 3.9 C 18.1 3.6 18 3.3 17.9 3.1 C 17.7 3 17.4 2.9 17 2.9 C 16.7 2.9 16.4 3 16.2 3.2 C 16 3.3 16 3.6 16 4 Z M 20.1 6.9 L 19.7 6.9 L 19.7 2.6 L 20.1 2.6 L 20.1 6.9 Z M 19.9 1.8 C 19.7 1.8 19.6 1.7 19.6 1.5 C 19.6 1.2 19.7 1.1 19.9 1.1 C 20 1.1 20 1.1 20.1 1.2 C 20.1 1.2 20.1 1.3 20.1 1.5 C 20.1 1.6 20.1 1.7 20.1 1.7 C 20 1.8 20 1.8 19.9 1.8 C 19.9 1.8 19.9 1.8 19.9 1.8 Z M 23.1 2.6 C 23.6 2.6 24.1 2.7 24.4 3.1 C 24.7 3.5 24.8 4 24.8 4.8 C 24.8 5.5 24.7 6 24.4 6.4 C 24.1 6.8 23.6 7 23 7 C 22.7 7 22.5 6.9 22.2 6.8 C 22 6.7 21.8 6.5 21.6 6.2 C 21.65 6.25 21.6 6.2 21.6 6.2 L 21.5 6.9 L 21.3 6.9 L 21.3 0.8 L 21.6 0.8 C 21.6 0.8 21.65 2.34 21.6 2.3 C 21.6 2.6 21.6 2.8 21.6 3 C 21.63 2.97 21.6 3.3 21.6 3.3 C 21.6 3.3 21.65 3.3 21.6 3.3 C 21.8 3 22 2.9 22.2 2.7 C 22.5 2.6 22.7 2.6 23.1 2.6 Z M 24.4 4.7 C 24.4 3.5 24 2.9 23 2.9 C 22.5 2.9 22.2 3.1 22 3.3 C 21.8 3.6 21.6 4.1 21.6 4.8 C 21.6 4.8 21.6 4.8 21.6 4.8 C 21.6 5.5 21.8 5.9 22 6.2 C 22.2 6.5 22.6 6.6 23 6.6 C 23.5 6.6 23.9 6.5 24.1 6.1 C 24.3 5.8 24.4 5.3 24.4 4.7 C 24.4 4.7 24.4 4.7 24.4 4.7 Z M 28.4 6.9 L 28.3 6.2 C 28.3 6.2 28.23 6.21 28.2 6.2 C 28 6.5 27.8 6.7 27.6 6.8 C 27.4 6.9 27.1 7 26.8 7 C 26.4 7 26 6.9 25.8 6.6 C 25.6 6.4 25.5 6.1 25.5 5.8 C 25.5 5.3 25.6 5 26 4.8 C 26.3 4.6 26.8 4.4 27.5 4.4 C 27.47 4.43 28.3 4.4 28.3 4.4 C 28.3 4.4 28.28 4.12 28.3 4.1 C 28.3 3.7 28.2 3.4 28 3.2 C 27.9 3 27.6 2.9 27.2 2.9 C 26.8 2.9 26.4 3 26 3.2 C 26 3.2 25.9 2.9 25.9 2.9 C 26.3 2.7 26.8 2.6 27.3 2.6 C 27.7 2.6 28.1 2.7 28.3 2.9 C 28.5 3.2 28.6 3.5 28.6 4.1 C 28.65 4.06 28.6 6.9 28.6 6.9 L 28.4 6.9 Z M 26.8 6.6 C 27.3 6.6 27.6 6.5 27.9 6.2 C 28.1 6 28.3 5.6 28.3 5.1 C 28.27 5.14 28.3 4.7 28.3 4.7 C 28.3 4.7 27.52 4.76 27.5 4.8 C 26.9 4.8 26.5 4.9 26.2 5 C 26 5.2 25.9 5.4 25.9 5.8 C 25.9 6 25.9 6.2 26.1 6.4 C 26.3 6.5 26.5 6.6 26.8 6.6 Z M 32.7 6.9 C 32.7 6.9 32.74 4.13 32.7 4.1 C 32.7 3.7 32.7 3.4 32.5 3.2 C 32.3 3 32 2.9 31.6 2.9 C 31.1 2.9 30.8 3 30.5 3.3 C 30.3 3.6 30.2 4 30.2 4.5 C 30.17 4.54 30.2 6.9 30.2 6.9 L 29.8 6.9 L 29.8 2.6 L 30.1 2.6 L 30.2 3.2 C 30.2 3.2 30.21 3.22 30.2 3.2 C 30.5 2.8 31 2.6 31.7 2.6 C 32.6 2.6 33.1 3.1 33.1 4.1 C 33.13 4.11 33.1 6.9 33.1 6.9 L 32.7 6.9 Z M 37.6 2.6 L 37.6 2.9 C 37.6 2.9 36.7 2.96 36.7 3 C 36.9 3.3 37 3.6 37 3.9 C 37 4.3 36.9 4.7 36.6 4.9 C 36.4 5.2 36 5.3 35.5 5.3 C 35.4 5.3 35.2 5.3 35.1 5.3 C 35 5.4 34.9 5.5 34.8 5.6 C 34.7 5.7 34.7 5.8 34.7 5.9 C 34.7 6 34.7 6.1 34.8 6.2 C 34.9 6.3 35.1 6.3 35.3 6.3 C 35.3 6.3 36.1 6.3 36.1 6.3 C 36.5 6.3 36.9 6.4 37.1 6.6 C 37.4 6.8 37.5 7 37.5 7.4 C 37.5 7.9 37.3 8.2 37 8.4 C 36.6 8.7 36.1 8.8 35.4 8.8 C 34.9 8.8 34.5 8.7 34.2 8.5 C 33.9 8.3 33.7 8 33.7 7.6 C 33.7 7.3 33.8 7.1 34 6.9 C 34.2 6.7 34.4 6.6 34.7 6.5 C 34.6 6.5 34.5 6.4 34.4 6.3 C 34.4 6.2 34.3 6.1 34.3 5.9 C 34.3 5.7 34.5 5.4 34.9 5.2 C 34.6 5.1 34.4 4.9 34.3 4.7 C 34.1 4.5 34.1 4.2 34.1 4 C 34.1 3.5 34.2 3.2 34.5 2.9 C 34.7 2.7 35.1 2.6 35.6 2.6 C 35.8 2.6 36.1 2.6 36.2 2.6 C 36.22 2.64 37.6 2.6 37.6 2.6 Z M 35.3 6.7 C 34.5 6.7 34.1 7 34.1 7.6 C 34.1 8.2 34.6 8.5 35.4 8.5 C 36.6 8.5 37.1 8.1 37.1 7.4 C 37.1 7.2 37 7 36.8 6.9 C 36.7 6.7 36.4 6.7 36 6.7 C 36 6.69 35.3 6.7 35.3 6.7 C 35.3 6.7 35.3 6.69 35.3 6.7 Z M 34.5 4 C 34.5 4.3 34.6 4.5 34.8 4.7 C 35 4.9 35.2 5 35.6 5 C 35.9 5 36.2 4.9 36.4 4.7 C 36.6 4.6 36.7 4.3 36.7 3.9 C 36.7 3.6 36.6 3.3 36.4 3.1 C 36.2 3 35.9 2.9 35.6 2.9 C 35.2 2.9 34.9 3 34.8 3.2 C 34.6 3.3 34.5 3.6 34.5 4 Z M 40.4 6.9 L 40 6.9 L 40 2.6 L 40.4 2.6 L 40.4 6.9 Z M 40.2 1.8 C 40.1 1.8 40 1.7 40 1.5 C 40 1.2 40.1 1.1 40.2 1.1 C 40.3 1.1 40.4 1.1 40.4 1.2 C 40.5 1.2 40.5 1.3 40.5 1.5 C 40.5 1.6 40.5 1.7 40.4 1.7 C 40.4 1.8 40.3 1.8 40.2 1.8 C 40.2 1.8 40.2 1.8 40.2 1.8 Z M 42 5 L 44.2 2.6 L 44.6 2.6 L 43 4.5 L 44.8 6.9 L 44.3 6.9 L 42.7 4.7 L 42 5.4 L 42 6.9 L 41.6 6.9 L 41.6 0.8 L 42 0.8 L 42 3.9 L 42 5 L 42 5 Z M 47.8 6.9 L 47.7 6.2 C 47.7 6.2 47.69 6.21 47.7 6.2 C 47.5 6.5 47.3 6.7 47 6.8 C 46.8 6.9 46.5 7 46.2 7 C 45.8 7 45.5 6.9 45.3 6.6 C 45 6.4 44.9 6.1 44.9 5.8 C 44.9 5.3 45.1 5 45.4 4.8 C 45.8 4.6 46.3 4.4 46.9 4.4 C 46.93 4.43 47.7 4.4 47.7 4.4 C 47.7 4.4 47.74 4.12 47.7 4.1 C 47.7 3.7 47.7 3.4 47.5 3.2 C 47.3 3 47.1 2.9 46.7 2.9 C 46.3 2.9 45.9 3 45.5 3.2 C 45.5 3.2 45.3 2.9 45.3 2.9 C 45.8 2.7 46.3 2.6 46.7 2.6 C 47.2 2.6 47.5 2.7 47.8 2.9 C 48 3.2 48.1 3.5 48.1 4.1 C 48.11 4.06 48.1 6.9 48.1 6.9 L 47.8 6.9 Z M 46.3 6.6 C 46.7 6.6 47.1 6.5 47.3 6.2 C 47.6 6 47.7 5.6 47.7 5.1 C 47.72 5.14 47.7 4.7 47.7 4.7 C 47.7 4.7 46.98 4.76 47 4.8 C 46.4 4.8 46 4.9 45.7 5 C 45.5 5.2 45.3 5.4 45.3 5.8 C 45.3 6 45.4 6.2 45.6 6.4 C 45.7 6.5 46 6.6 46.3 6.6 Z M 49.6 6.9 L 49.2 6.9 L 49.2 0.8 L 49.6 0.8 L 49.6 6.9 Z M 53.4 6.9 L 53.3 6.2 C 53.3 6.2 53.26 6.21 53.3 6.2 C 53 6.5 52.8 6.7 52.6 6.8 C 52.4 6.9 52.1 7 51.8 7 C 51.4 7 51.1 6.9 50.8 6.6 C 50.6 6.4 50.5 6.1 50.5 5.8 C 50.5 5.3 50.7 5 51 4.8 C 51.3 4.6 51.8 4.4 52.5 4.4 C 52.5 4.43 53.3 4.4 53.3 4.4 C 53.3 4.4 53.31 4.12 53.3 4.1 C 53.3 3.7 53.2 3.4 53.1 3.2 C 52.9 3 52.6 2.9 52.3 2.9 C 51.9 2.9 51.5 3 51 3.2 C 51 3.2 50.9 2.9 50.9 2.9 C 51.4 2.7 51.8 2.6 52.3 2.6 C 52.7 2.6 53.1 2.7 53.3 2.9 C 53.6 3.2 53.7 3.5 53.7 4.1 C 53.67 4.06 53.7 6.9 53.7 6.9 L 53.4 6.9 Z M 51.8 6.6 C 52.3 6.6 52.6 6.5 52.9 6.2 C 53.2 6 53.3 5.6 53.3 5.1 C 53.29 5.14 53.3 4.7 53.3 4.7 C 53.3 4.7 52.55 4.76 52.5 4.8 C 52 4.8 51.5 4.9 51.3 5 C 51 5.2 50.9 5.4 50.9 5.8 C 50.9 6 51 6.2 51.1 6.4 C 51.3 6.5 51.5 6.6 51.8 6.6 Z M 58.2 6.9 C 58.2 6.9 57.27 4.05 57.3 4 C 57.2 3.9 57.1 3.6 57 3.2 C 57.04 3.2 57 3.2 57 3.2 L 56.9 3.5 L 56.8 4.1 L 55.8 6.9 L 55.4 6.9 L 54.2 2.6 L 54.6 2.6 C 54.6 2.6 55.31 5.1 55.3 5.1 C 55.5 5.7 55.6 6.2 55.6 6.4 C 55.6 6.4 55.6 6.4 55.6 6.4 C 55.8 5.8 55.9 5.4 56 5.2 C 55.98 5.23 56.9 2.6 56.9 2.6 L 57.2 2.6 C 57.2 2.6 58.04 5.22 58 5.2 C 58.2 5.8 58.3 6.2 58.4 6.4 C 58.4 6.4 58.4 6.4 58.4 6.4 C 58.4 6.3 58.5 5.8 58.7 5.1 C 58.72 5.08 59.4 2.6 59.4 2.6 L 59.8 2.6 L 58.6 6.9 L 58.2 6.9 Z M 62.9 6.9 L 62.8 6.2 C 62.8 6.2 62.8 6.21 62.8 6.2 C 62.6 6.5 62.4 6.7 62.1 6.8 C 61.9 6.9 61.7 7 61.3 7 C 60.9 7 60.6 6.9 60.4 6.6 C 60.1 6.4 60 6.1 60 5.8 C 60 5.3 60.2 5 60.5 4.8 C 60.9 4.6 61.4 4.4 62 4.4 C 62.04 4.43 62.8 4.4 62.8 4.4 C 62.8 4.4 62.85 4.12 62.8 4.1 C 62.8 3.7 62.8 3.4 62.6 3.2 C 62.4 3 62.2 2.9 61.8 2.9 C 61.4 2.9 61 3 60.6 3.2 C 60.6 3.2 60.4 2.9 60.4 2.9 C 60.9 2.7 61.4 2.6 61.8 2.6 C 62.3 2.6 62.6 2.7 62.9 2.9 C 63.1 3.2 63.2 3.5 63.2 4.1 C 63.22 4.06 63.2 6.9 63.2 6.9 L 62.9 6.9 Z M 61.4 6.6 C 61.8 6.6 62.2 6.5 62.4 6.2 C 62.7 6 62.8 5.6 62.8 5.1 C 62.83 5.14 62.8 4.7 62.8 4.7 C 62.8 4.7 62.09 4.76 62.1 4.8 C 61.5 4.8 61.1 4.9 60.8 5 C 60.6 5.2 60.4 5.4 60.4 5.8 C 60.4 6 60.5 6.2 60.7 6.4 C 60.8 6.5 61.1 6.6 61.4 6.6 Z M 67.3 6.9 C 67.3 6.9 67.31 4.13 67.3 4.1 C 67.3 3.7 67.2 3.4 67 3.2 C 66.9 3 66.6 2.9 66.2 2.9 C 65.7 2.9 65.3 3 65.1 3.3 C 64.9 3.6 64.7 4 64.7 4.5 C 64.74 4.54 64.7 6.9 64.7 6.9 L 64.4 6.9 L 64.4 2.6 L 64.7 2.6 L 64.8 3.2 C 64.8 3.2 64.78 3.22 64.8 3.2 C 65.1 2.8 65.5 2.6 66.3 2.6 C 67.2 2.6 67.7 3.1 67.7 4.1 C 67.7 4.11 67.7 6.9 67.7 6.9 L 67.3 6.9 Z M 72.1 2.6 L 72.1 2.9 C 72.1 2.9 71.26 2.96 71.3 3 C 71.5 3.3 71.6 3.6 71.6 3.9 C 71.6 4.3 71.5 4.7 71.2 4.9 C 70.9 5.2 70.6 5.3 70.1 5.3 C 69.9 5.3 69.8 5.3 69.7 5.3 C 69.6 5.4 69.4 5.5 69.4 5.6 C 69.3 5.7 69.2 5.8 69.2 5.9 C 69.2 6 69.3 6.1 69.4 6.2 C 69.5 6.3 69.7 6.3 69.9 6.3 C 69.9 6.3 70.6 6.3 70.6 6.3 C 71.1 6.3 71.5 6.4 71.7 6.6 C 72 6.8 72.1 7 72.1 7.4 C 72.1 7.9 71.9 8.2 71.5 8.4 C 71.2 8.7 70.6 8.8 70 8.8 C 69.4 8.8 69 8.7 68.7 8.5 C 68.4 8.3 68.3 8 68.3 7.6 C 68.3 7.3 68.4 7.1 68.6 6.9 C 68.7 6.7 69 6.6 69.3 6.5 C 69.2 6.5 69.1 6.4 69 6.3 C 68.9 6.2 68.9 6.1 68.9 5.9 C 68.9 5.7 69.1 5.4 69.4 5.2 C 69.2 5.1 69 4.9 68.8 4.7 C 68.7 4.5 68.6 4.2 68.6 4 C 68.6 3.5 68.8 3.2 69 2.9 C 69.3 2.7 69.7 2.6 70.1 2.6 C 70.4 2.6 70.6 2.6 70.8 2.6 C 70.78 2.64 72.1 2.6 72.1 2.6 Z M 69.9 6.7 C 69.1 6.7 68.7 7 68.7 7.6 C 68.7 8.2 69.1 8.5 70 8.5 C 71.1 8.5 71.7 8.1 71.7 7.4 C 71.7 7.2 71.6 7 71.4 6.9 C 71.2 6.7 71 6.7 70.6 6.7 C 70.57 6.69 69.9 6.7 69.9 6.7 C 69.9 6.7 69.87 6.69 69.9 6.7 Z M 69 4 C 69 4.3 69.1 4.5 69.3 4.7 C 69.5 4.9 69.8 5 70.1 5 C 70.5 5 70.8 4.9 70.9 4.7 C 71.1 4.6 71.2 4.3 71.2 3.9 C 71.2 3.6 71.1 3.3 70.9 3.1 C 70.7 3 70.5 2.9 70.1 2.9 C 69.8 2.9 69.5 3 69.3 3.2 C 69.1 3.3 69 3.6 69 4 Z M 75.7 6.6 C 76 6.6 76.2 6.6 76.4 6.6 C 76.4 6.6 76.4 6.9 76.4 6.9 C 76.2 6.9 76 7 75.7 7 C 75.4 7 75.1 6.9 74.9 6.7 C 74.7 6.5 74.6 6.1 74.6 5.7 C 74.63 5.72 74.6 3 74.6 3 L 74 3 L 74 2.7 L 74.6 2.6 L 74.8 1.6 L 75 1.6 L 75 2.6 L 76.3 2.6 L 76.3 3 L 75 3 C 75 3 75.02 5.66 75 5.7 C 75 6 75.1 6.2 75.2 6.4 C 75.3 6.5 75.5 6.6 75.7 6.6 Z M 79.6 6.9 L 79.5 6.2 C 79.5 6.2 79.5 6.21 79.5 6.2 C 79.3 6.5 79.1 6.7 78.8 6.8 C 78.6 6.9 78.4 7 78 7 C 77.6 7 77.3 6.9 77.1 6.6 C 76.8 6.4 76.7 6.1 76.7 5.8 C 76.7 5.3 76.9 5 77.2 4.8 C 77.6 4.6 78.1 4.4 78.7 4.4 C 78.74 4.43 79.5 4.4 79.5 4.4 C 79.5 4.4 79.55 4.12 79.5 4.1 C 79.5 3.7 79.5 3.4 79.3 3.2 C 79.1 3 78.9 2.9 78.5 2.9 C 78.1 2.9 77.7 3 77.3 3.2 C 77.3 3.2 77.1 2.9 77.1 2.9 C 77.6 2.7 78.1 2.6 78.5 2.6 C 79 2.6 79.3 2.7 79.6 2.9 C 79.8 3.2 79.9 3.5 79.9 4.1 C 79.92 4.06 79.9 6.9 79.9 6.9 L 79.6 6.9 Z M 78.1 6.6 C 78.5 6.6 78.9 6.5 79.1 6.2 C 79.4 6 79.5 5.6 79.5 5.1 C 79.53 5.14 79.5 4.7 79.5 4.7 C 79.5 4.7 78.79 4.76 78.8 4.8 C 78.2 4.8 77.8 4.9 77.5 5 C 77.3 5.2 77.1 5.4 77.1 5.8 C 77.1 6 77.2 6.2 77.4 6.4 C 77.5 6.5 77.8 6.6 78.1 6.6 Z M 84 6.9 C 84 6.9 84.01 4.13 84 4.1 C 84 3.7 83.9 3.4 83.7 3.2 C 83.6 3 83.3 2.9 82.9 2.9 C 82.4 2.9 82 3 81.8 3.3 C 81.6 3.6 81.4 4 81.4 4.5 C 81.44 4.54 81.4 6.9 81.4 6.9 L 81.1 6.9 L 81.1 0.8 L 81.4 0.8 L 81.4 2.7 L 81.4 3.3 C 81.4 3.3 81.44 3.28 81.4 3.3 C 81.6 3 81.8 2.8 82 2.7 C 82.3 2.6 82.6 2.6 82.9 2.6 C 83.9 2.6 84.4 3.1 84.4 4.1 C 84.39 4.11 84.4 6.9 84.4 6.9 L 84 6.9 Z M 88.1 6.9 L 88 6.2 C 88 6.2 87.98 6.21 88 6.2 C 87.8 6.5 87.5 6.7 87.3 6.8 C 87.1 6.9 86.8 7 86.5 7 C 86.1 7 85.8 6.9 85.5 6.6 C 85.3 6.4 85.2 6.1 85.2 5.8 C 85.2 5.3 85.4 5 85.7 4.8 C 86.1 4.6 86.6 4.4 87.2 4.4 C 87.22 4.43 88 4.4 88 4.4 C 88 4.4 88.03 4.12 88 4.1 C 88 3.7 87.9 3.4 87.8 3.2 C 87.6 3 87.4 2.9 87 2.9 C 86.6 2.9 86.2 3 85.8 3.2 C 85.8 3.2 85.6 2.9 85.6 2.9 C 86.1 2.7 86.5 2.6 87 2.6 C 87.5 2.6 87.8 2.7 88 2.9 C 88.3 3.2 88.4 3.5 88.4 4.1 C 88.39 4.06 88.4 6.9 88.4 6.9 L 88.1 6.9 Z M 86.5 6.6 C 87 6.6 87.4 6.5 87.6 6.2 C 87.9 6 88 5.6 88 5.1 C 88.01 5.14 88 4.7 88 4.7 C 88 4.7 87.27 4.76 87.3 4.8 C 86.7 4.8 86.2 4.9 86 5 C 85.7 5.2 85.6 5.4 85.6 5.8 C 85.6 6 85.7 6.2 85.9 6.4 C 86 6.5 86.2 6.6 86.5 6.6 Z M 92.5 6.9 C 92.5 6.9 92.49 4.13 92.5 4.1 C 92.5 3.7 92.4 3.4 92.2 3.2 C 92 3 91.8 2.9 91.4 2.9 C 90.9 2.9 90.5 3 90.3 3.3 C 90 3.6 89.9 4 89.9 4.5 C 89.91 4.54 89.9 6.9 89.9 6.9 L 89.5 6.9 L 89.5 2.6 L 89.9 2.6 L 89.9 3.2 C 89.9 3.2 89.95 3.22 90 3.2 C 90.2 2.8 90.7 2.6 91.4 2.6 C 92.4 2.6 92.9 3.1 92.9 4.1 C 92.87 4.11 92.9 6.9 92.9 6.9 L 92.5 6.9 Z M 96.6 6.9 L 96.5 6.2 C 96.5 6.2 96.46 6.21 96.5 6.2 C 96.2 6.5 96 6.7 95.8 6.8 C 95.6 6.9 95.3 7 95 7 C 94.6 7 94.3 6.9 94 6.6 C 93.8 6.4 93.7 6.1 93.7 5.8 C 93.7 5.3 93.9 5 94.2 4.8 C 94.5 4.6 95 4.4 95.7 4.4 C 95.69 4.43 96.5 4.4 96.5 4.4 C 96.5 4.4 96.5 4.12 96.5 4.1 C 96.5 3.7 96.4 3.4 96.3 3.2 C 96.1 3 95.8 2.9 95.5 2.9 C 95.1 2.9 94.7 3 94.2 3.2 C 94.2 3.2 94.1 2.9 94.1 2.9 C 94.6 2.7 95 2.6 95.5 2.6 C 95.9 2.6 96.3 2.7 96.5 2.9 C 96.8 3.2 96.9 3.5 96.9 4.1 C 96.87 4.06 96.9 6.9 96.9 6.9 L 96.6 6.9 Z M 95 6.6 C 95.5 6.6 95.8 6.5 96.1 6.2 C 96.4 6 96.5 5.6 96.5 5.1 C 96.49 5.14 96.5 4.7 96.5 4.7 C 96.5 4.7 95.74 4.76 95.7 4.8 C 95.1 4.8 94.7 4.9 94.5 5 C 94.2 5.2 94.1 5.4 94.1 5.8 C 94.1 6 94.2 6.2 94.3 6.4 C 94.5 6.5 94.7 6.6 95 6.6 Z M 101 6.9 C 101 6.9 100.97 4.13 101 4.1 C 101 3.7 100.9 3.4 100.7 3.2 C 100.5 3 100.2 2.9 99.9 2.9 C 99.4 2.9 99 3 98.7 3.3 C 98.5 3.6 98.4 4 98.4 4.5 C 98.39 4.54 98.4 6.9 98.4 6.9 L 98 6.9 L 98 2.6 L 98.3 2.6 L 98.4 3.2 C 98.4 3.2 98.43 3.22 98.4 3.2 C 98.7 2.8 99.2 2.6 99.9 2.6 C 100.9 2.6 101.3 3.1 101.3 4.1 C 101.35 4.11 101.3 6.9 101.3 6.9 L 101 6.9 Z M 107.3 6.9 C 107.3 6.9 107.28 4.13 107.3 4.1 C 107.3 3.7 107.2 3.4 107 3.2 C 106.8 3 106.6 2.9 106.2 2.9 C 105.7 2.9 105.3 3 105.1 3.3 C 104.8 3.6 104.7 4 104.7 4.5 C 104.71 4.54 104.7 6.9 104.7 6.9 L 104.3 6.9 L 104.3 2.6 L 104.6 2.6 L 104.7 3.2 C 104.7 3.2 104.75 3.22 104.7 3.2 C 105 2.8 105.5 2.6 106.2 2.6 C 107.2 2.6 107.7 3.1 107.7 4.1 C 107.67 4.11 107.7 6.9 107.7 6.9 L 107.3 6.9 Z M 109.2 6.9 L 108.8 6.9 L 108.8 2.6 L 109.2 2.6 L 109.2 6.9 Z M 109 1.8 C 108.8 1.8 108.7 1.7 108.7 1.5 C 108.7 1.2 108.8 1.1 109 1.1 C 109.1 1.1 109.1 1.1 109.2 1.2 C 109.2 1.2 109.2 1.3 109.2 1.5 C 109.2 1.6 109.2 1.7 109.2 1.7 C 109.1 1.8 109.1 1.8 109 1.8 C 109 1.8 109 1.8 109 1.8 Z M 112.7 6.9 C 112.7 7.8 112.3 8.3 111.4 8.3 C 111.1 8.3 110.9 8.3 110.8 8.2 C 110.8 8.2 110.8 7.9 110.8 7.9 C 111 7.9 111.2 8 111.4 8 C 112 8 112.3 7.6 112.3 6.9 C 112.3 6.93 112.3 1.2 112.3 1.2 L 112.7 1.2 L 112.7 6.9 C 112.7 6.9 112.7 6.89 112.7 6.9 Z M 114.3 2.6 C 114.3 2.6 114.28 5.39 114.3 5.4 C 114.3 5.8 114.4 6.1 114.5 6.3 C 114.7 6.5 115 6.6 115.4 6.6 C 115.9 6.6 116.3 6.5 116.5 6.2 C 116.7 6 116.9 5.6 116.9 5 C 116.86 4.98 116.9 2.6 116.9 2.6 L 117.2 2.6 L 117.2 6.9 L 116.9 6.9 L 116.8 6.3 C 116.8 6.3 116.82 6.3 116.8 6.3 C 116.5 6.7 116.1 7 115.3 7 C 114.4 7 113.9 6.4 113.9 5.4 C 113.9 5.41 113.9 2.6 113.9 2.6 L 114.3 2.6 Z M 121 6.9 L 120.9 6.2 C 120.9 6.2 120.87 6.21 120.9 6.2 C 120.7 6.5 120.4 6.7 120.2 6.8 C 120 6.9 119.7 7 119.4 7 C 119 7 118.7 6.9 118.4 6.6 C 118.2 6.4 118.1 6.1 118.1 5.8 C 118.1 5.3 118.3 5 118.6 4.8 C 119 4.6 119.5 4.4 120.1 4.4 C 120.11 4.43 120.9 4.4 120.9 4.4 C 120.9 4.4 120.92 4.12 120.9 4.1 C 120.9 3.7 120.8 3.4 120.7 3.2 C 120.5 3 120.2 2.9 119.9 2.9 C 119.5 2.9 119.1 3 118.7 3.2 C 118.7 3.2 118.5 2.9 118.5 2.9 C 119 2.7 119.4 2.6 119.9 2.6 C 120.4 2.6 120.7 2.7 120.9 2.9 C 121.2 3.2 121.3 3.5 121.3 4.1 C 121.29 4.06 121.3 6.9 121.3 6.9 L 121 6.9 Z M 119.4 6.6 C 119.9 6.6 120.2 6.5 120.5 6.2 C 120.8 6 120.9 5.6 120.9 5.1 C 120.9 5.14 120.9 4.7 120.9 4.7 C 120.9 4.7 120.16 4.76 120.2 4.8 C 119.6 4.8 119.1 4.9 118.9 5 C 118.6 5.2 118.5 5.4 118.5 5.8 C 118.5 6 118.6 6.2 118.7 6.4 C 118.9 6.5 119.1 6.6 119.4 6.6 Z M 125.4 6.9 C 125.4 6.9 125.38 4.13 125.4 4.1 C 125.4 3.7 125.3 3.4 125.1 3.2 C 124.9 3 124.7 2.9 124.3 2.9 C 123.8 2.9 123.4 3 123.2 3.3 C 122.9 3.6 122.8 4 122.8 4.5 C 122.81 4.54 122.8 6.9 122.8 6.9 L 122.4 6.9 L 122.4 2.6 L 122.7 2.6 L 122.8 3.2 C 122.8 3.2 122.85 3.22 122.8 3.2 C 123.1 2.8 123.6 2.6 124.3 2.6 C 125.3 2.6 125.8 3.1 125.8 4.1 C 125.76 4.11 125.8 6.9 125.8 6.9 L 125.4 6.9 Z M 127.1 7 C 126.9 7 126.8 6.8 126.8 6.6 C 126.8 6.3 126.9 6.2 127.1 6.2 C 127.3 6.2 127.5 6.3 127.5 6.6 C 127.5 6.8 127.3 7 127.1 7 C 127.1 7 127.1 7 127.1 7 Z M 126.8 3.1 C 126.8 2.8 126.9 2.7 127.1 2.7 C 127.3 2.7 127.5 2.8 127.5 3.1 C 127.5 3.2 127.4 3.3 127.4 3.4 C 127.3 3.5 127.2 3.5 127.1 3.5 C 127 3.5 127 3.5 126.9 3.4 C 126.9 3.3 126.8 3.2 126.8 3.1 Z " stroke="none" fill="#000"/>
  </g>
</svg>