<?xml version="1.0" standalone="no"?>
<!DOCTYPE svg PUBLIC "-//W3C//DTD SVG 1.1//EN" "http://www.w3.org/Graphics/SVG/1.1/DTD/svg11.dtd">
<svg xmlns="http://www.w3.org/2000/svg" version="1.1" width="339px" height="18.5px" viewBox="0 -3 339 18.5" style="top:-3px">
  <desc>Althea Caselle Atienza, Sophia Denisse Canapi, AT Maria Consuelo Maningas</desc>
  <defs/>
  <g id="Polygon30142">
    <path d="M 7.9 0.3 L 9.5 5.6 L 8.2 5.6 L 7.9 4.5 L 6.1 4.5 L 5.8 5.6 L 4.7 5.6 L 6.4 0.3 L 7.9 0.3 Z M 6.4 3.5 L 7.6 3.5 L 7 1.6 L 6.4 3.5 Z M 11.7 4.5 L 13.8 4.5 L 13.8 5.6 L 10.4 5.6 L 10.4 0.3 L 11.7 0.3 L 11.7 4.5 Z M 17.7 0.3 L 17.7 1.3 L 16.4 1.3 L 16.4 5.6 L 15.1 5.6 L 15.1 1.3 L 13.8 1.3 L 13.8 0.3 L 17.7 0.3 Z M 22.7 0.3 L 22.7 5.6 L 21.5 5.6 L 21.5 3.4 L 19.8 3.4 L 19.8 5.6 L 18.6 5.6 L 18.6 0.3 L 19.8 0.3 L 19.8 2.3 L 21.5 2.3 L 21.5 0.3 L 22.7 0.3 Z M 27.9 1.3 L 25.4 1.3 L 25.4 2.4 L 27.3 2.4 L 27.3 3.4 L 25.4 3.4 L 25.4 4.5 L 27.9 4.5 L 27.9 5.6 L 24.1 5.6 L 24.1 0.3 L 27.9 0.3 L 27.9 1.3 Z M 31.6 0.3 L 33.2 5.6 L 31.9 5.6 L 31.6 4.5 L 29.9 4.5 L 29.5 5.6 L 28.4 5.6 L 30.1 0.3 L 31.6 0.3 Z M 30.2 3.5 L 31.3 3.5 L 30.7 1.6 L 30.2 3.5 Z M 38.6 0.2 C 39.9 0.2 40.6 0.9 40.8 2.3 C 40.8 2.3 39.5 2.3 39.5 2.3 C 39.4 1.6 39.1 1.2 38.6 1.2 C 37.9 1.2 37.6 1.8 37.6 2.9 C 37.6 3.6 37.7 4.1 37.9 4.3 C 38 4.5 38.3 4.7 38.6 4.7 C 39.1 4.7 39.4 4.3 39.6 3.7 C 39.6 3.7 40.8 3.7 40.8 3.7 C 40.7 4.4 40.4 4.9 40.1 5.2 C 39.7 5.5 39.2 5.7 38.6 5.7 C 37.9 5.7 37.3 5.4 36.9 5 C 36.4 4.5 36.2 3.8 36.2 2.9 C 36.2 2.1 36.4 1.5 36.8 1 C 37.3 0.4 37.9 0.2 38.6 0.2 C 38.6 0.2 38.6 0.2 38.6 0.2 Z M 44.4 0.3 L 46 5.6 L 44.7 5.6 L 44.4 4.5 L 42.6 4.5 L 42.3 5.6 L 41.2 5.6 L 42.9 0.3 L 44.4 0.3 Z M 42.9 3.5 L 44.1 3.5 L 43.5 1.6 L 42.9 3.5 Z M 48.6 0.2 C 49.6 0.2 50.3 0.6 50.6 1.4 C 50.6 1.4 49.6 1.8 49.6 1.8 C 49.4 1.4 49.1 1.2 48.6 1.2 C 48.2 1.2 47.9 1.3 47.9 1.6 C 47.9 1.8 47.9 1.9 48 2 C 48.1 2.1 48.3 2.1 48.7 2.2 C 49.2 2.3 49.6 2.4 49.9 2.5 C 50.1 2.6 50.3 2.8 50.5 3.1 C 50.7 3.3 50.8 3.6 50.8 3.9 C 50.8 4.4 50.6 4.8 50.2 5.2 C 49.8 5.5 49.3 5.7 48.6 5.7 C 48 5.7 47.5 5.6 47.2 5.3 C 46.8 5.1 46.5 4.7 46.4 4.2 C 46.4 4.2 47.6 3.9 47.6 3.9 C 47.7 4.4 48 4.7 48.6 4.7 C 48.9 4.7 49.1 4.6 49.3 4.5 C 49.4 4.4 49.5 4.3 49.5 4.1 C 49.5 4 49.4 3.8 49.3 3.8 C 49.2 3.7 48.9 3.6 48.6 3.5 C 47.9 3.4 47.4 3.2 47.1 2.9 C 46.8 2.7 46.7 2.3 46.7 1.9 C 46.7 1.4 46.8 1 47.2 0.7 C 47.5 0.4 48 0.2 48.6 0.2 C 48.6 0.2 48.6 0.2 48.6 0.2 Z M 55.7 1.3 L 53.2 1.3 L 53.2 2.4 L 55.2 2.4 L 55.2 3.4 L 53.2 3.4 L 53.2 4.5 L 55.7 4.5 L 55.7 5.6 L 51.9 5.6 L 51.9 0.3 L 55.7 0.3 L 55.7 1.3 Z M 58 4.5 L 60.2 4.5 L 60.2 5.6 L 56.8 5.6 L 56.8 0.3 L 58 0.3 L 58 4.5 Z M 62.4 4.5 L 64.5 4.5 L 64.5 5.6 L 61.1 5.6 L 61.1 0.3 L 62.4 0.3 L 62.4 4.5 Z M 69.3 1.3 L 66.7 1.3 L 66.7 2.4 L 68.7 2.4 L 68.7 3.4 L 66.7 3.4 L 66.7 4.5 L 69.3 4.5 L 69.3 5.6 L 65.5 5.6 L 65.5 0.3 L 69.3 0.3 L 69.3 1.3 Z M 75.3 0.3 L 77 5.6 L 75.6 5.6 L 75.3 4.5 L 73.6 4.5 L 73.2 5.6 L 72.1 5.6 L 73.8 0.3 L 75.3 0.3 Z M 73.9 3.5 L 75 3.5 L 74.4 1.6 L 73.9 3.5 Z M 80.8 0.3 L 80.8 1.3 L 79.5 1.3 L 79.5 5.6 L 78.2 5.6 L 78.2 1.3 L 76.9 1.3 L 76.9 0.3 L 80.8 0.3 Z M 82.9 0.3 L 82.9 5.6 L 81.7 5.6 L 81.7 0.3 L 82.9 0.3 Z M 88.1 1.3 L 85.6 1.3 L 85.6 2.4 L 87.6 2.4 L 87.6 3.4 L 85.6 3.4 L 85.6 4.5 L 88.1 4.5 L 88.1 5.6 L 84.3 5.6 L 84.3 0.3 L 88.1 0.3 L 88.1 1.3 Z M 93.3 0.3 L 93.3 5.6 L 92.2 5.6 C 92.2 5.6 90.14 2 90.1 2 C 90.1 2.1 90.1 2.2 90.2 2.2 C 90.2 2.3 90.2 2.3 90.2 2.4 C 90.17 2.41 90.2 5.6 90.2 5.6 L 89.2 5.6 L 89.2 0.3 L 90.5 0.3 C 90.5 0.3 92.35 3.41 92.4 3.4 C 92.3 3.3 92.3 3.1 92.3 3.1 C 92.33 3.06 92.3 0.3 92.3 0.3 L 93.3 0.3 Z M 98.5 1.2 L 95.8 4.6 L 98.6 4.6 L 98.6 5.6 L 94.3 5.6 L 94.3 4.7 L 97 1.3 L 94.5 1.3 L 94.5 0.3 L 98.5 0.3 L 98.5 1.2 Z M 102.3 0.3 L 103.9 5.6 L 102.6 5.6 L 102.2 4.5 L 100.5 4.5 L 100.2 5.6 L 99.1 5.6 L 100.8 0.3 L 102.3 0.3 Z M 100.8 3.5 L 102 3.5 L 101.4 1.6 L 100.8 3.5 Z M 106.1 4.4 L 106.1 5.5 L 105.3 6.8 L 104.9 6.8 L 105.5 5.6 L 104.9 5.6 L 104.9 4.4 L 106.1 4.4 Z M 111.4 0.2 C 112.4 0.2 113.1 0.6 113.4 1.4 C 113.4 1.4 112.3 1.8 112.3 1.8 C 112.2 1.4 111.9 1.2 111.4 1.2 C 110.9 1.2 110.7 1.3 110.7 1.6 C 110.7 1.8 110.7 1.9 110.8 2 C 110.9 2.1 111.1 2.1 111.4 2.2 C 112 2.3 112.4 2.4 112.6 2.5 C 112.9 2.6 113.1 2.8 113.3 3.1 C 113.4 3.3 113.5 3.6 113.5 3.9 C 113.5 4.4 113.3 4.8 113 5.2 C 112.6 5.5 112 5.7 111.3 5.7 C 110.8 5.7 110.3 5.6 109.9 5.3 C 109.5 5.1 109.3 4.7 109.2 4.2 C 109.2 4.2 110.3 3.9 110.3 3.9 C 110.5 4.4 110.8 4.7 111.4 4.7 C 111.7 4.7 111.9 4.6 112 4.5 C 112.2 4.4 112.3 4.3 112.3 4.1 C 112.3 4 112.2 3.8 112.1 3.8 C 111.9 3.7 111.7 3.6 111.3 3.5 C 110.6 3.4 110.2 3.2 109.9 2.9 C 109.6 2.7 109.4 2.3 109.4 1.9 C 109.4 1.4 109.6 1 110 0.7 C 110.3 0.4 110.8 0.2 111.4 0.2 C 111.4 0.2 111.4 0.2 111.4 0.2 Z M 116.7 5.7 C 115.9 5.7 115.4 5.4 115 4.9 C 114.6 4.3 114.4 3.7 114.4 2.9 C 114.4 2.1 114.6 1.5 115 1 C 115.4 0.4 116 0.2 116.7 0.2 C 117.4 0.2 118 0.5 118.4 1 C 118.8 1.6 119 2.2 119 2.9 C 119 3.7 118.8 4.4 118.4 4.9 C 118 5.4 117.4 5.7 116.7 5.7 Z M 117.6 2.9 C 117.6 1.8 117.3 1.2 116.7 1.2 C 116 1.2 115.7 1.8 115.7 2.9 C 115.7 4.1 116 4.7 116.7 4.7 C 117.3 4.7 117.6 4.1 117.6 2.9 C 117.6 2.9 117.6 2.9 117.6 2.9 Z M 121.4 3.6 L 121.4 5.6 L 120.1 5.6 L 120.1 0.3 C 120.1 0.3 122.2 0.27 122.2 0.3 C 122.7 0.3 123 0.3 123.3 0.4 C 123.5 0.5 123.7 0.7 123.9 1 C 124.1 1.2 124.2 1.5 124.2 1.9 C 124.2 2.2 124.2 2.4 124.1 2.7 C 124 2.9 123.8 3.1 123.6 3.3 C 123.4 3.4 123.3 3.5 123.1 3.6 C 122.9 3.6 122.6 3.6 122.2 3.6 C 122.24 3.62 121.4 3.6 121.4 3.6 Z M 121.3 2.7 C 121.3 2.7 122.13 2.65 122.1 2.7 C 122.4 2.7 122.7 2.6 122.8 2.4 C 122.9 2.3 123 2.1 123 1.9 C 123 1.7 122.9 1.6 122.8 1.4 C 122.6 1.3 122.4 1.2 122.1 1.2 C 122.13 1.24 121.3 1.2 121.3 1.2 L 121.3 2.7 Z M 129.4 0.3 L 129.4 5.6 L 128.1 5.6 L 128.1 3.4 L 126.5 3.4 L 126.5 5.6 L 125.2 5.6 L 125.2 0.3 L 126.5 0.3 L 126.5 2.3 L 128.1 2.3 L 128.1 0.3 L 129.4 0.3 Z M 132 0.3 L 132 5.6 L 130.7 5.6 L 130.7 0.3 L 132 0.3 Z M 136 0.3 L 137.7 5.6 L 136.3 5.6 L 136 4.5 L 134.3 4.5 L 133.9 5.6 L 132.9 5.6 L 134.6 0.3 L 136 0.3 Z M 134.6 3.5 L 135.7 3.5 L 135.1 1.6 L 134.6 3.5 Z M 140.9 0.3 C 140.9 0.3 142.52 0.27 142.5 0.3 C 143.2 0.3 143.7 0.4 144 0.5 C 144.3 0.7 144.6 1 144.9 1.4 C 145.1 1.8 145.3 2.3 145.3 2.9 C 145.3 3.7 145 4.3 144.6 4.8 C 144.1 5.3 143.5 5.6 142.7 5.6 C 142.72 5.6 140.9 5.6 140.9 5.6 L 140.9 0.3 Z M 142.1 1.2 L 142.1 4.6 C 142.1 4.6 142.63 4.6 142.6 4.6 C 143.1 4.6 143.4 4.4 143.6 4.1 C 143.9 3.7 144 3.3 144 2.9 C 144 2.6 143.9 2.3 143.8 2 C 143.7 1.7 143.5 1.5 143.3 1.4 C 143.1 1.3 142.9 1.2 142.6 1.2 C 142.64 1.25 142.1 1.2 142.1 1.2 Z M 150.2 1.3 L 147.7 1.3 L 147.7 2.4 L 149.7 2.4 L 149.7 3.4 L 147.7 3.4 L 147.7 4.5 L 150.2 4.5 L 150.2 5.6 L 146.4 5.6 L 146.4 0.3 L 150.2 0.3 L 150.2 1.3 Z M 155.4 0.3 L 155.4 5.6 L 154.3 5.6 C 154.3 5.6 152.22 2 152.2 2 C 152.2 2.1 152.2 2.2 152.2 2.2 C 152.2 2.3 152.2 2.3 152.2 2.4 C 152.25 2.41 152.2 5.6 152.2 5.6 L 151.3 5.6 L 151.3 0.3 L 152.6 0.3 C 152.6 0.3 154.44 3.41 154.4 3.4 C 154.4 3.3 154.4 3.1 154.4 3.1 C 154.41 3.06 154.4 0.3 154.4 0.3 L 155.4 0.3 Z M 158 0.3 L 158 5.6 L 156.8 5.6 L 156.8 0.3 L 158 0.3 Z M 161.1 0.2 C 162.1 0.2 162.8 0.6 163.1 1.4 C 163.1 1.4 162 1.8 162 1.8 C 161.9 1.4 161.6 1.2 161.1 1.2 C 160.6 1.2 160.4 1.3 160.4 1.6 C 160.4 1.8 160.4 1.9 160.5 2 C 160.6 2.1 160.8 2.1 161.1 2.2 C 161.7 2.3 162.1 2.4 162.3 2.5 C 162.6 2.6 162.8 2.8 163 3.1 C 163.1 3.3 163.2 3.6 163.2 3.9 C 163.2 4.4 163 4.8 162.7 5.2 C 162.3 5.5 161.8 5.7 161 5.7 C 160.5 5.7 160 5.6 159.6 5.3 C 159.2 5.1 159 4.7 158.9 4.2 C 158.9 4.2 160 3.9 160 3.9 C 160.2 4.4 160.5 4.7 161.1 4.7 C 161.4 4.7 161.6 4.6 161.8 4.5 C 161.9 4.4 162 4.3 162 4.1 C 162 4 161.9 3.8 161.8 3.8 C 161.6 3.7 161.4 3.6 161 3.5 C 160.4 3.4 159.9 3.2 159.6 2.9 C 159.3 2.7 159.1 2.3 159.1 1.9 C 159.1 1.4 159.3 1 159.7 0.7 C 160 0.4 160.5 0.2 161.1 0.2 C 161.1 0.2 161.1 0.2 161.1 0.2 Z M 166 0.2 C 167.1 0.2 167.8 0.6 168.1 1.4 C 168.1 1.4 167 1.8 167 1.8 C 166.8 1.4 166.5 1.2 166.1 1.2 C 165.6 1.2 165.3 1.3 165.3 1.6 C 165.3 1.8 165.4 1.9 165.5 2 C 165.6 2.1 165.8 2.1 166.1 2.2 C 166.6 2.3 167 2.4 167.3 2.5 C 167.6 2.6 167.8 2.8 167.9 3.1 C 168.1 3.3 168.2 3.6 168.2 3.9 C 168.2 4.4 168 4.8 167.6 5.2 C 167.3 5.5 166.7 5.7 166 5.7 C 165.4 5.7 165 5.6 164.6 5.3 C 164.2 5.1 164 4.7 163.8 4.2 C 163.8 4.2 165 3.9 165 3.9 C 165.1 4.4 165.5 4.7 166.1 4.7 C 166.4 4.7 166.6 4.6 166.7 4.5 C 166.9 4.4 166.9 4.3 166.9 4.1 C 166.9 4 166.9 3.8 166.7 3.8 C 166.6 3.7 166.4 3.6 166 3.5 C 165.3 3.4 164.8 3.2 164.5 2.9 C 164.3 2.7 164.1 2.3 164.1 1.9 C 164.1 1.4 164.3 1 164.6 0.7 C 165 0.4 165.4 0.2 166 0.2 C 166 0.2 166 0.2 166 0.2 Z M 173.1 1.3 L 170.6 1.3 L 170.6 2.4 L 172.6 2.4 L 172.6 3.4 L 170.6 3.4 L 170.6 4.5 L 173.1 4.5 L 173.1 5.6 L 169.3 5.6 L 169.3 0.3 L 173.1 0.3 L 173.1 1.3 Z M 178.7 0.2 C 179.9 0.2 180.7 0.9 180.8 2.3 C 180.8 2.3 179.5 2.3 179.5 2.3 C 179.5 1.6 179.2 1.2 178.6 1.2 C 178 1.2 177.7 1.8 177.7 2.9 C 177.7 3.6 177.8 4.1 177.9 4.3 C 178.1 4.5 178.4 4.7 178.7 4.7 C 179.2 4.7 179.5 4.3 179.6 3.7 C 179.6 3.7 180.8 3.7 180.8 3.7 C 180.8 4.4 180.5 4.9 180.1 5.2 C 179.7 5.5 179.2 5.7 178.7 5.7 C 178 5.7 177.4 5.4 176.9 5 C 176.5 4.5 176.3 3.8 176.3 2.9 C 176.3 2.1 176.5 1.5 176.9 1 C 177.3 0.4 177.9 0.2 178.7 0.2 C 178.7 0.2 178.7 0.2 178.7 0.2 Z M 184.4 0.3 L 186.1 5.6 L 184.8 5.6 L 184.4 4.5 L 182.7 4.5 L 182.4 5.6 L 181.3 5.6 L 183 0.3 L 184.4 0.3 Z M 183 3.5 L 184.1 3.5 L 183.6 1.6 L 183 3.5 Z M 191.1 0.3 L 191.1 5.6 L 190 5.6 C 190 5.6 187.95 2 187.9 2 C 188 2.1 188 2.2 188 2.2 C 188 2.3 188 2.3 188 2.4 C 187.97 2.41 188 5.6 188 5.6 L 187 5.6 L 187 0.3 L 188.3 0.3 C 188.3 0.3 190.16 3.41 190.2 3.4 C 190.1 3.3 190.1 3.1 190.1 3.1 C 190.14 3.06 190.1 0.3 190.1 0.3 L 191.1 0.3 Z M 195.1 0.3 L 196.8 5.6 L 195.4 5.6 L 195.1 4.5 L 193.4 4.5 L 193.1 5.6 L 192 5.6 L 193.7 0.3 L 195.1 0.3 Z M 193.7 3.5 L 194.8 3.5 L 194.3 1.6 L 193.7 3.5 Z M 198.9 3.6 L 198.9 5.6 L 197.7 5.6 L 197.7 0.3 C 197.7 0.3 199.78 0.27 199.8 0.3 C 200.2 0.3 200.6 0.3 200.9 0.4 C 201.1 0.5 201.3 0.7 201.5 1 C 201.7 1.2 201.8 1.5 201.8 1.9 C 201.8 2.2 201.8 2.4 201.7 2.7 C 201.6 2.9 201.4 3.1 201.2 3.3 C 201 3.4 200.8 3.5 200.7 3.6 C 200.5 3.6 200.2 3.6 199.8 3.6 C 199.82 3.62 198.9 3.6 198.9 3.6 Z M 198.9 2.7 C 198.9 2.7 199.71 2.65 199.7 2.7 C 200 2.7 200.2 2.6 200.4 2.4 C 200.5 2.3 200.6 2.1 200.6 1.9 C 200.6 1.7 200.5 1.6 200.3 1.4 C 200.2 1.3 200 1.2 199.7 1.2 C 199.71 1.24 198.9 1.2 198.9 1.2 L 198.9 2.7 Z M 204.1 0.3 L 204.1 5.6 L 202.8 5.6 L 202.8 0.3 L 204.1 0.3 Z M 206.6 4.4 L 206.6 5.5 L 205.8 6.8 L 205.3 6.8 L 206 5.6 L 205.3 5.6 L 205.3 4.4 L 206.6 4.4 Z M 212.8 0.3 L 214.4 5.6 L 213.1 5.6 L 212.8 4.5 L 211.1 4.5 L 210.7 5.6 L 209.6 5.6 L 211.3 0.3 L 212.8 0.3 Z M 211.4 3.5 L 212.5 3.5 L 211.9 1.6 L 211.4 3.5 Z M 218.3 0.3 L 218.3 1.3 L 217 1.3 L 217 5.6 L 215.7 5.6 L 215.7 1.3 L 214.4 1.3 L 214.4 0.3 L 218.3 0.3 Z M 223.9 5.6 L 222.5 1.3 L 222.5 5.6 L 221.5 5.6 L 221.5 0.3 L 223.4 0.3 L 224.4 3.5 L 225.4 0.3 L 227.3 0.3 L 227.3 5.6 L 226 5.6 L 226 1.3 L 224.7 5.6 L 223.9 5.6 Z M 231.3 0.3 L 233 5.6 L 231.6 5.6 L 231.3 4.5 L 229.6 4.5 L 229.2 5.6 L 228.2 5.6 L 229.9 0.3 L 231.3 0.3 Z M 229.9 3.5 L 231 3.5 L 230.5 1.6 L 229.9 3.5 Z M 235.1 3.5 L 235.1 5.6 L 233.9 5.6 L 233.9 0.3 C 233.9 0.3 236.21 0.27 236.2 0.3 C 236.6 0.3 237 0.3 237.3 0.4 C 237.5 0.5 237.7 0.7 237.9 1 C 238.1 1.2 238.2 1.5 238.2 1.9 C 238.2 2.5 237.9 3 237.2 3.2 C 237.24 3.24 238.2 5.6 238.2 5.6 L 236.8 5.6 L 236 3.5 L 235.1 3.5 Z M 235.1 1.2 L 235.1 2.6 C 235.1 2.6 235.89 2.58 235.9 2.6 C 236.1 2.6 236.3 2.6 236.4 2.5 C 236.6 2.5 236.7 2.4 236.7 2.3 C 236.8 2.2 236.9 2 236.9 1.9 C 236.9 1.7 236.8 1.6 236.7 1.5 C 236.7 1.4 236.6 1.3 236.5 1.3 C 236.3 1.2 236.2 1.2 235.9 1.2 C 235.87 1.22 235.1 1.2 235.1 1.2 Z M 240.7 0.3 L 240.7 5.6 L 239.4 5.6 L 239.4 0.3 L 240.7 0.3 Z M 244.7 0.3 L 246.4 5.6 L 245 5.6 L 244.7 4.5 L 243 4.5 L 242.6 5.6 L 241.5 5.6 L 243.3 0.3 L 244.7 0.3 Z M 243.3 3.5 L 244.4 3.5 L 243.8 1.6 L 243.3 3.5 Z M 251.7 0.2 C 253 0.2 253.7 0.9 253.9 2.3 C 253.9 2.3 252.6 2.3 252.6 2.3 C 252.6 1.6 252.3 1.2 251.7 1.2 C 251 1.2 250.7 1.8 250.7 2.9 C 250.7 3.6 250.8 4.1 251 4.3 C 251.2 4.5 251.4 4.7 251.7 4.7 C 252.2 4.7 252.6 4.3 252.7 3.7 C 252.7 3.7 253.9 3.7 253.9 3.7 C 253.8 4.4 253.6 4.9 253.2 5.2 C 252.8 5.5 252.3 5.7 251.7 5.7 C 251 5.7 250.4 5.4 250 5 C 249.6 4.5 249.3 3.8 249.3 2.9 C 249.3 2.1 249.5 1.5 250 1 C 250.4 0.4 251 0.2 251.7 0.2 C 251.7 0.2 251.7 0.2 251.7 0.2 Z M 256.9 5.7 C 256.2 5.7 255.7 5.4 255.3 4.9 C 254.9 4.3 254.7 3.7 254.7 2.9 C 254.7 2.1 254.9 1.5 255.3 1 C 255.7 0.4 256.2 0.2 257 0.2 C 257.7 0.2 258.3 0.5 258.7 1 C 259 1.6 259.2 2.2 259.2 2.9 C 259.2 3.7 259 4.4 258.6 4.9 C 258.2 5.4 257.7 5.7 256.9 5.7 Z M 257.9 2.9 C 257.9 1.8 257.6 1.2 257 1.2 C 256.3 1.2 256 1.8 256 2.9 C 256 4.1 256.3 4.7 257 4.7 C 257.6 4.7 257.9 4.1 257.9 2.9 C 257.9 2.9 257.9 2.9 257.9 2.9 Z M 264.5 0.3 L 264.5 5.6 L 263.4 5.6 C 263.4 5.6 261.31 2 261.3 2 C 261.3 2.1 261.3 2.2 261.3 2.2 C 261.3 2.3 261.3 2.3 261.3 2.4 C 261.33 2.41 261.3 5.6 261.3 5.6 L 260.4 5.6 L 260.4 0.3 L 261.7 0.3 C 261.7 0.3 263.52 3.41 263.5 3.4 C 263.5 3.3 263.5 3.1 263.5 3.1 C 263.5 3.06 263.5 0.3 263.5 0.3 L 264.5 0.3 Z M 267.5 0.2 C 268.6 0.2 269.2 0.6 269.5 1.4 C 269.5 1.4 268.5 1.8 268.5 1.8 C 268.3 1.4 268 1.2 267.6 1.2 C 267.1 1.2 266.8 1.3 266.8 1.6 C 266.8 1.8 266.9 1.9 267 2 C 267.1 2.1 267.3 2.1 267.6 2.2 C 268.1 2.3 268.5 2.4 268.8 2.5 C 269 2.6 269.2 2.8 269.4 3.1 C 269.6 3.3 269.7 3.6 269.7 3.9 C 269.7 4.4 269.5 4.8 269.1 5.2 C 268.8 5.5 268.2 5.7 267.5 5.7 C 266.9 5.7 266.5 5.6 266.1 5.3 C 265.7 5.1 265.4 4.7 265.3 4.2 C 265.3 4.2 266.5 3.9 266.5 3.9 C 266.6 4.4 267 4.7 267.6 4.7 C 267.8 4.7 268.1 4.6 268.2 4.5 C 268.3 4.4 268.4 4.3 268.4 4.1 C 268.4 4 268.3 3.8 268.2 3.8 C 268.1 3.7 267.8 3.6 267.5 3.5 C 266.8 3.4 266.3 3.2 266 2.9 C 265.7 2.7 265.6 2.3 265.6 1.9 C 265.6 1.4 265.8 1 266.1 0.7 C 266.5 0.4 266.9 0.2 267.5 0.2 C 267.5 0.2 267.5 0.2 267.5 0.2 Z M 275 0.3 C 275 0.3 275.02 3.59 275 3.6 C 275 4.1 275 4.5 274.8 4.8 C 274.7 5 274.5 5.3 274.2 5.4 C 273.8 5.6 273.4 5.7 272.9 5.7 C 272.4 5.7 272 5.6 271.7 5.5 C 271.4 5.3 271.1 5.1 271 4.8 C 270.8 4.5 270.8 4.1 270.8 3.6 C 270.76 3.59 270.8 0.3 270.8 0.3 L 272.1 0.3 C 272.1 0.3 272.12 3.59 272.1 3.6 C 272.1 3.9 272.1 4.1 272.2 4.2 C 272.2 4.4 272.3 4.5 272.5 4.5 C 272.6 4.6 272.8 4.7 273 4.7 C 273.2 4.7 273.4 4.6 273.6 4.5 C 273.7 4.5 273.8 4.4 273.9 4.2 C 273.9 4.1 274 3.9 274 3.6 C 273.95 3.59 274 0.3 274 0.3 L 275 0.3 Z M 280.1 1.3 L 277.6 1.3 L 277.6 2.4 L 279.6 2.4 L 279.6 3.4 L 277.6 3.4 L 277.6 4.5 L 280.1 4.5 L 280.1 5.6 L 276.3 5.6 L 276.3 0.3 L 280.1 0.3 L 280.1 1.3 Z M 282.5 4.5 L 284.6 4.5 L 284.6 5.6 L 281.2 5.6 L 281.2 0.3 L 282.5 0.3 L 282.5 4.5 Z M 287.5 5.7 C 286.8 5.7 286.2 5.4 285.8 4.9 C 285.4 4.3 285.2 3.7 285.2 2.9 C 285.2 2.1 285.4 1.5 285.8 1 C 286.2 0.4 286.8 0.2 287.5 0.2 C 288.3 0.2 288.8 0.5 289.2 1 C 289.6 1.6 289.8 2.2 289.8 2.9 C 289.8 3.7 289.6 4.4 289.2 4.9 C 288.8 5.4 288.2 5.7 287.5 5.7 Z M 288.5 2.9 C 288.5 1.8 288.2 1.2 287.5 1.2 C 286.9 1.2 286.5 1.8 286.5 2.9 C 286.5 4.1 286.9 4.7 287.5 4.7 C 288.2 4.7 288.5 4.1 288.5 2.9 C 288.5 2.9 288.5 2.9 288.5 2.9 Z M 295.6 5.6 L 294.3 1.3 L 294.3 5.6 L 293.2 5.6 L 293.2 0.3 L 295.2 0.3 L 296.1 3.5 L 297.1 0.3 L 299.1 0.3 L 299.1 5.6 L 297.8 5.6 L 297.8 1.3 L 296.5 5.6 L 295.6 5.6 Z M 303.1 0.3 L 304.7 5.6 L 303.4 5.6 L 303.1 4.5 L 301.3 4.5 L 301 5.6 L 299.9 5.6 L 301.6 0.3 L 303.1 0.3 Z M 301.6 3.5 L 302.8 3.5 L 302.2 1.6 L 301.6 3.5 Z M 309.7 0.3 L 309.7 5.6 L 308.7 5.6 C 308.7 5.6 306.57 2 306.6 2 C 306.6 2.1 306.6 2.2 306.6 2.2 C 306.6 2.3 306.6 2.3 306.6 2.4 C 306.59 2.41 306.6 5.6 306.6 5.6 L 305.6 5.6 L 305.6 0.3 L 307 0.3 C 307 0.3 308.78 3.41 308.8 3.4 C 308.8 3.3 308.8 3.1 308.8 3.1 C 308.75 3.06 308.8 0.3 308.8 0.3 L 309.7 0.3 Z M 312.4 0.3 L 312.4 5.6 L 311.1 5.6 L 311.1 0.3 L 312.4 0.3 Z M 317.8 0.3 L 317.8 5.6 L 316.8 5.6 C 316.8 5.6 314.69 2 314.7 2 C 314.7 2.1 314.7 2.2 314.7 2.2 C 314.7 2.3 314.7 2.3 314.7 2.4 C 314.72 2.41 314.7 5.6 314.7 5.6 L 313.7 5.6 L 313.7 0.3 L 315.1 0.3 C 315.1 0.3 316.9 3.41 316.9 3.4 C 316.9 3.3 316.9 3.1 316.9 3.1 C 316.88 3.06 316.9 0.3 316.9 0.3 L 317.8 0.3 Z M 323.4 2.7 L 323.4 5.6 C 323.4 5.6 322.82 5.6 322.8 5.6 C 322.8 5.4 322.7 5.2 322.6 5 C 322.3 5.5 321.8 5.7 321.2 5.7 C 320.5 5.7 319.9 5.4 319.6 4.9 C 319.2 4.4 319 3.8 319 3 C 319 2.2 319.2 1.5 319.6 1 C 320 0.4 320.6 0.2 321.3 0.2 C 321.9 0.2 322.4 0.4 322.7 0.7 C 323.1 1 323.3 1.5 323.4 2 C 323.4 2 322.2 2.2 322.2 2.2 C 322.1 1.5 321.8 1.2 321.3 1.2 C 320.9 1.2 320.7 1.4 320.5 1.7 C 320.3 2 320.3 2.4 320.3 3 C 320.3 3.5 320.3 3.9 320.5 4.2 C 320.7 4.5 321 4.7 321.3 4.7 C 321.6 4.7 321.8 4.6 321.9 4.4 C 322.1 4.3 322.2 4.1 322.2 3.7 C 322.2 3.75 321.2 3.7 321.2 3.7 L 321.2 2.7 L 323.4 2.7 Z M 327.4 0.3 L 329 5.6 L 327.7 5.6 L 327.4 4.5 L 325.6 4.5 L 325.3 5.6 L 324.2 5.6 L 325.9 0.3 L 327.4 0.3 Z M 325.9 3.5 L 327.1 3.5 L 326.5 1.6 L 325.9 3.5 Z M 331.6 0.2 C 332.6 0.2 333.3 0.6 333.6 1.4 C 333.6 1.4 332.5 1.8 332.5 1.8 C 332.4 1.4 332.1 1.2 331.6 1.2 C 331.1 1.2 330.9 1.3 330.9 1.6 C 330.9 1.8 330.9 1.9 331 2 C 331.1 2.1 331.3 2.1 331.7 2.2 C 332.2 2.3 332.6 2.4 332.9 2.5 C 333.1 2.6 333.3 2.8 333.5 3.1 C 333.7 3.3 333.8 3.6 333.8 3.9 C 333.8 4.4 333.6 4.8 333.2 5.2 C 332.8 5.5 332.3 5.7 331.5 5.7 C 331 5.7 330.5 5.6 330.2 5.3 C 329.8 5.1 329.5 4.7 329.4 4.2 C 329.4 4.2 330.5 3.9 330.5 3.9 C 330.7 4.4 331 4.7 331.6 4.7 C 331.9 4.7 332.1 4.6 332.3 4.5 C 332.4 4.4 332.5 4.3 332.5 4.1 C 332.5 4 332.4 3.8 332.3 3.8 C 332.2 3.7 331.9 3.6 331.6 3.5 C 330.9 3.4 330.4 3.2 330.1 2.9 C 329.8 2.7 329.7 2.3 329.7 1.9 C 329.7 1.4 329.8 1 330.2 0.7 C 330.5 0.4 331 0.2 331.6 0.2 C 331.6 0.2 331.6 0.2 331.6 0.2 Z " stroke="none" fill="#000"/>
  </g>
</svg>