<?xml version="1.0" standalone="no"?>
<!DOCTYPE svg PUBLIC "-//W3C//DTD SVG 1.1//EN" "http://www.w3.org/Graphics/SVG/1.1/DTD/svg11.dtd">
<svg xmlns="http://www.w3.org/2000/svg" version="1.1" width="792px" height="118px" viewBox="0 -8 792 118" style="top:-8px">
  <desc>Pagsasagawa ng klaseng pang-laboratoryo sa loob ng Pamantasan, masusing kinokonsidera para sa ilang mga teknikal na k</desc>
  <defs/>
  <g id="Polygon14054">
    <path d="M 1.3 75 L 1.3 70 L 6.9 70 L 6.9 75 L 1.3 75 Z M 1.3 96.9 L 1.3 76.8 L 6.9 76.8 L 6.9 96.9 L 1.3 96.9 Z M 10.6 96.9 L 10.6 70 L 16.1 70 L 16.1 96.9 L 10.6 96.9 Z M 32.4 97.3 C 29.6 97.3 29.2 96.2 28.8 94.7 C 28.8 94.7 28.5 95.3 28.5 95.3 C 28.1 96.2 26.7 97.3 24.5 97.3 C 20.6 97.3 19.2 94.3 19.2 91.2 C 19.2 87.9 20.7 85.9 24.2 85.2 C 24.2 85.2 26.3 84.7 26.3 84.7 C 28.4 84.3 28.8 83.8 28.8 82.1 C 28.8 80.2 28.1 79.5 26.6 79.5 C 25.3 79.5 24.3 80.3 24.3 81.5 C 24.3 82.2 24.4 82.7 24.5 83.3 C 24.5 83.3 19.9 83.4 19.9 83.4 C 19.7 82.6 19.6 82.2 19.6 81.2 C 19.6 77.6 22.8 76.2 26.7 76.2 C 32.3 76.2 34.3 78 34.3 80.7 C 34.3 80.7 34.3 92.4 34.3 92.4 C 34.3 93.1 34.9 93.5 35.6 93.5 C 35.8 93.5 35.9 93.5 36.1 93.4 C 36.1 93.4 36.1 96.2 36.1 96.2 C 35.6 96.6 33.8 97.3 32.4 97.3 Z M 28.8 86.9 C 28.3 87.2 27.7 87.4 27.2 87.6 C 25.2 88.1 24.7 88.8 24.7 90.6 C 24.7 92.4 25.1 93.4 26.5 93.4 C 27.8 93.4 28.8 92.9 28.8 88.9 C 28.8 88.9 28.8 86.9 28.8 86.9 Z M 47.8 96.9 C 47.8 96.9 47.77 82.67 47.8 82.7 C 47.8 81.8 47.4 81.2 46.5 81.2 C 45.2 81.2 44.3 82.8 44.3 85.4 C 44.34 85.43 44.3 96.9 44.3 96.9 L 38.8 96.9 L 38.8 76.8 L 44.3 76.8 C 44.3 76.8 44.31 80.04 44.3 80 C 44.9 77.8 46.5 76.4 48.9 76.4 C 51.2 76.4 53.3 77.9 53.3 81.1 C 53.3 81.13 53.3 96.9 53.3 96.9 L 47.8 96.9 Z M 63.1 103.5 C 59.3 103.5 55.6 102.4 55.6 99.1 C 55.6 97.9 56.3 97.2 57.5 96.6 C 57.5 96.6 58.4 96.1 58.4 96.1 C 58.4 96.1 57.75 95.76 57.7 95.8 C 56.4 95 56 93.9 56 92.4 C 56 90.6 57.2 89.5 58.4 88.7 C 58.38 88.65 59 88.2 59 88.2 C 59 88.2 58.41 87.71 58.4 87.7 C 57.3 86.8 56.5 84.8 56.5 83.1 C 56.5 78.7 58.8 76.2 63.2 76.2 C 64.6 76.2 65.3 76.3 66 76.6 C 66.01 76.61 66.5 73 66.5 73 L 71 73 C 71 73 67.93 77.59 67.9 77.6 C 69.3 78.7 70.4 80.4 70.4 83.1 C 70.4 86.9 68 89.4 64.1 89.4 C 63.3 89.4 62.2 89.4 61.5 89.2 C 60.9 89.5 60.3 89.7 60.3 90.5 C 60.3 91.5 61.2 91.5 62 91.5 C 62 91.5 65.3 91.4 65.3 91.4 C 69.2 91.4 71.4 93.3 71.4 97.2 C 71.4 101.5 69 103.5 63.1 103.5 Z M 63.3 79.1 C 62.1 79.1 61.5 79.7 61.5 82.6 C 61.5 85.6 62.1 86.1 63.3 86.1 C 64.5 86.1 65.2 85.6 65.2 82.6 C 65.2 79.7 64.5 79.1 63.3 79.1 Z M 63.3 96.5 C 63.3 96.5 60.9 96.5 60.9 96.5 C 60.4 96.9 59.9 97.6 59.9 98.3 C 59.9 99.6 61.3 100.3 63.2 100.3 C 66.1 100.3 66.5 99.6 66.5 98.3 C 66.5 97.2 65.7 96.5 63.3 96.5 Z M 101.6 96.9 C 101.6 96.9 101.57 82.63 101.6 82.6 C 101.6 81.7 101.2 81.2 100.3 81.2 C 99 81.2 98.1 82.8 98.1 85.4 C 98.14 85.4 98.1 96.9 98.1 96.9 L 92.6 96.9 C 92.6 96.9 92.64 82.63 92.6 82.6 C 92.6 81.7 92.3 81.2 91.3 81.2 C 90.1 81.2 89.2 82.6 89.2 85.4 C 89.2 85.4 89.2 96.8 89.2 96.9 C 89.18 96.88 83.6 96.9 83.6 96.9 L 83.6 76.8 L 89.1 76.8 C 89.1 76.8 89.14 80.08 89.1 80.1 C 89.8 77.8 91.4 76.4 93.8 76.4 C 96 76.4 97.8 77.6 98.1 80.1 C 98.7 77.8 100.3 76.4 102.7 76.4 C 105 76.4 107.1 77.9 107.1 81.1 C 107.1 81.13 107.1 96.9 107.1 96.9 L 101.6 96.9 Z M 116.9 103.5 C 113 103.5 109.4 102.4 109.4 99.1 C 109.4 97.9 110.1 97.2 111.3 96.6 C 111.3 96.6 112.2 96.1 112.2 96.1 C 112.2 96.1 111.54 95.76 111.5 95.8 C 110.2 95 109.8 93.9 109.8 92.4 C 109.8 90.6 111 89.5 112.2 88.7 C 112.17 88.65 112.8 88.2 112.8 88.2 C 112.8 88.2 112.21 87.71 112.2 87.7 C 111.1 86.8 110.2 84.8 110.2 83.1 C 110.2 78.7 112.6 76.2 117 76.2 C 118.4 76.2 119.1 76.3 119.8 76.6 C 119.8 76.61 120.3 73 120.3 73 L 124.8 73 C 124.8 73 121.73 77.59 121.7 77.6 C 123.1 78.7 124.2 80.4 124.2 83.1 C 124.2 86.9 121.8 89.4 117.9 89.4 C 117.1 89.4 116 89.4 115.3 89.2 C 114.7 89.5 114.1 89.7 114.1 90.5 C 114.1 91.5 115 91.5 115.8 91.5 C 115.8 91.5 119.1 91.4 119.1 91.4 C 123 91.4 125.2 93.3 125.2 97.2 C 125.2 101.5 122.8 103.5 116.9 103.5 Z M 117.1 79.1 C 115.9 79.1 115.3 79.7 115.3 82.6 C 115.3 85.6 115.9 86.1 117.1 86.1 C 118.3 86.1 119 85.6 119 82.6 C 119 79.7 118.3 79.1 117.1 79.1 Z M 117.1 96.5 C 117.1 96.5 114.7 96.5 114.7 96.5 C 114.2 96.9 113.7 97.6 113.7 98.3 C 113.7 99.6 115.1 100.3 117 100.3 C 119.9 100.3 120.3 99.6 120.3 98.3 C 120.3 97.2 119.5 96.5 117.1 96.5 Z M 140.1 97.3 C 137.3 97.3 136.9 96.2 136.5 94.7 C 136.5 94.7 136.2 95.3 136.2 95.3 C 135.8 96.2 134.4 97.3 132.2 97.3 C 128.3 97.3 126.9 94.3 126.9 91.2 C 126.9 87.9 128.4 85.9 131.9 85.2 C 131.9 85.2 134 84.7 134 84.7 C 136.1 84.3 136.5 83.8 136.5 82.1 C 136.5 80.2 135.8 79.5 134.3 79.5 C 133 79.5 131.9 80.3 131.9 81.5 C 131.9 82.2 132.1 82.7 132.2 83.3 C 132.2 83.3 127.6 83.4 127.6 83.4 C 127.4 82.6 127.3 82.2 127.3 81.2 C 127.3 77.6 130.5 76.2 134.4 76.2 C 140 76.2 142 78 142 80.7 C 142 80.7 142 92.4 142 92.4 C 142 93.1 142.6 93.5 143.3 93.5 C 143.5 93.5 143.6 93.5 143.8 93.4 C 143.8 93.4 143.8 96.2 143.8 96.2 C 143.3 96.6 141.5 97.3 140.1 97.3 Z M 136.5 86.9 C 136 87.2 135.4 87.4 134.9 87.6 C 132.9 88.1 132.4 88.8 132.4 90.6 C 132.4 92.4 132.8 93.4 134.2 93.4 C 135.4 93.4 136.5 92.9 136.5 88.9 C 136.5 88.9 136.5 86.9 136.5 86.9 Z M 162.7 97.2 C 159.9 97.2 158 96.1 158 93 C 158.02 92.96 158.1 80.6 158.1 80.6 L 155.1 80.6 L 155.1 76.8 L 158.2 76.8 L 158.3 71.3 L 163.6 71.3 L 163.6 76.8 L 167.8 76.8 L 167.8 80.6 L 163.6 80.6 C 163.6 80.6 163.55 90.72 163.6 90.7 C 163.6 92.3 165 92.5 166 92.5 C 166.9 92.5 167.5 92.3 168.1 92 C 168.1 92 168.1 96 168.1 96 C 167.4 96.5 164.9 97.2 162.7 97.2 Z M 176.1 87.9 C 176 92.4 176.8 93 178.4 93 C 179.9 93 180.5 91.9 180.3 90.2 C 180.32 90.23 180.2 89.4 180.2 89.4 C 180.2 89.4 185.04 89.56 185 89.6 C 185.1 89.9 185.1 90.5 185.1 91.1 C 185.1 94.5 183.4 97.3 178.5 97.3 C 173.7 97.3 170.5 95.5 170.5 87.1 C 170.5 79.4 173.2 76.2 178 76.2 C 182.4 76.2 184.4 79.1 184.9 84.1 C 185.1 85.5 185.1 86.8 185.2 88 C 185.2 88 176.1 87.9 176.1 87.9 Z M 178 80.2 C 176.6 80.2 176.2 81.9 176.1 85.1 C 176.1 85.1 179.8 85.1 179.8 85.1 C 179.6 81.2 179.5 80.2 178 80.2 Z M 197.4 96.9 L 195.3 90.1 L 193.9 92.5 L 193.9 96.9 L 188.4 96.9 L 188.4 70 L 193.9 70 L 193.9 84.6 L 197.9 76.8 L 203.5 76.8 L 199.3 84.6 L 203.8 96.9 L 197.4 96.9 Z M 215.4 96.9 C 215.4 96.9 215.35 82.67 215.4 82.7 C 215.4 81.8 215 81.2 214.1 81.2 C 212.8 81.2 211.9 82.8 211.9 85.4 C 211.92 85.43 211.9 96.9 211.9 96.9 L 206.4 96.9 L 206.4 76.8 L 211.9 76.8 C 211.9 76.8 211.89 80.04 211.9 80 C 212.5 77.8 214.1 76.4 216.5 76.4 C 218.7 76.4 220.9 77.9 220.9 81.1 C 220.88 81.13 220.9 96.9 220.9 96.9 L 215.4 96.9 Z M 224.5 75 L 224.5 70 L 230 70 L 230 75 L 224.5 75 Z M 224.5 96.9 L 224.5 76.8 L 230 76.8 L 230 96.9 L 224.5 96.9 Z M 242.8 96.9 L 240.6 90.1 L 239.3 92.5 L 239.3 96.9 L 233.7 96.9 L 233.7 70 L 239.3 70 L 239.3 84.6 L 243.2 76.8 L 248.8 76.8 L 244.6 84.6 L 249.1 96.9 L 242.8 96.9 Z M 264.3 97.3 C 261.5 97.3 261.2 96.2 260.8 94.7 C 260.8 94.7 260.5 95.3 260.5 95.3 C 260 96.2 258.6 97.3 256.4 97.3 C 252.5 97.3 251.1 94.3 251.1 91.2 C 251.1 87.9 252.7 85.9 256.1 85.2 C 256.1 85.2 258.2 84.7 258.2 84.7 C 260.4 84.3 260.8 83.8 260.8 82.1 C 260.8 80.2 260 79.5 258.6 79.5 C 257.2 79.5 256.2 80.3 256.2 81.5 C 256.2 82.2 256.3 82.7 256.5 83.3 C 256.5 83.3 251.9 83.4 251.9 83.4 C 251.7 82.6 251.6 82.2 251.6 81.2 C 251.6 77.6 254.8 76.2 258.6 76.2 C 264.2 76.2 266.2 78 266.2 80.7 C 266.2 80.7 266.2 92.4 266.2 92.4 C 266.2 93.1 266.8 93.5 267.5 93.5 C 267.7 93.5 267.9 93.5 268 93.4 C 268 93.4 268 96.2 268 96.2 C 267.5 96.6 265.7 97.3 264.3 97.3 Z M 260.8 86.9 C 260.3 87.2 259.6 87.4 259.1 87.6 C 257.1 88.1 256.7 88.8 256.7 90.6 C 256.7 92.4 257.1 93.4 258.4 93.4 C 259.7 93.4 260.8 92.9 260.8 88.9 C 260.8 88.9 260.8 86.9 260.8 86.9 Z M 270.8 96.9 L 270.8 70 L 276.3 70 L 276.3 96.9 L 270.8 96.9 Z M 298.9 96.9 C 298.9 96.9 298.9 82.67 298.9 82.7 C 298.9 81.8 298.5 81.2 297.6 81.2 C 296.3 81.2 295.5 82.8 295.5 85.4 C 295.47 85.43 295.5 96.9 295.5 96.9 L 289.9 96.9 L 289.9 76.8 L 295.4 76.8 C 295.4 76.8 295.43 80.04 295.4 80 C 296.1 77.8 297.7 76.4 300 76.4 C 302.3 76.4 304.4 77.9 304.4 81.1 C 304.43 81.13 304.4 96.9 304.4 96.9 L 298.9 96.9 Z M 320.6 97.3 C 317.8 97.3 317.4 96.2 317.1 94.7 C 317.1 94.7 316.7 95.3 316.7 95.3 C 316.3 96.2 314.9 97.3 312.7 97.3 C 308.8 97.3 307.4 94.3 307.4 91.2 C 307.4 87.9 308.9 85.9 312.4 85.2 C 312.4 85.2 314.5 84.7 314.5 84.7 C 316.6 84.3 317.1 83.8 317.1 82.1 C 317.1 80.2 316.3 79.5 314.9 79.5 C 313.5 79.5 312.5 80.3 312.5 81.5 C 312.5 82.2 312.6 82.7 312.8 83.3 C 312.8 83.3 308.1 83.4 308.1 83.4 C 308 82.6 307.9 82.2 307.9 81.2 C 307.9 77.6 311 76.2 314.9 76.2 C 320.5 76.2 322.5 78 322.5 80.7 C 322.5 80.7 322.5 92.4 322.5 92.4 C 322.5 93.1 323.1 93.5 323.8 93.5 C 324 93.5 324.1 93.5 324.3 93.4 C 324.3 93.4 324.3 96.2 324.3 96.2 C 323.8 96.6 322 97.3 320.6 97.3 Z M 317.1 86.9 C 316.6 87.2 315.9 87.4 315.4 87.6 C 313.4 88.1 312.9 88.8 312.9 90.6 C 312.9 92.4 313.4 93.4 314.7 93.4 C 316 93.4 317.1 92.9 317.1 88.9 C 317.1 88.9 317.1 86.9 317.1 86.9 Z M 346 96.9 L 343.9 90.1 L 342.5 92.5 L 342.5 96.9 L 337 96.9 L 337 70 L 342.5 70 L 342.5 84.6 L 346.5 76.8 L 352.1 76.8 L 347.9 84.6 L 352.4 96.9 L 346 96.9 Z M 363.9 96.9 C 363.9 96.9 363.89 93.62 363.9 93.6 C 363.3 95.9 361.6 97.3 359.3 97.3 C 357 97.3 354.9 95.8 354.9 92.5 C 354.89 92.54 354.9 76.8 354.9 76.8 L 360.4 76.8 C 360.4 76.8 360.42 91 360.4 91 C 360.4 91.9 360.8 92.5 361.7 92.5 C 363 92.5 363.9 91.1 363.9 88.2 C 363.85 88.23 363.9 76.8 363.9 76.8 L 369.4 76.8 L 369.4 96.9 L 363.9 96.9 Z M 386.5 85.7 C 386.5 85.7 381.8 86.6 381.8 86.6 C 381.9 85.9 381.9 85.1 381.9 84 C 381.9 82.2 381.4 81.5 380.5 81.5 C 379 81.5 378.6 84 378.6 86.8 C 378.62 86.8 378.6 96.9 378.6 96.9 L 373.1 96.9 L 373.1 76.8 L 378.5 76.8 C 378.5 76.8 378.59 79.2 378.6 80.4 C 378.6 80.4 378.8 79.7 378.8 79.7 C 379.4 78 380.7 76.4 382.6 76.4 C 385.4 76.4 386.8 78 386.8 81.6 C 386.8 83.4 386.6 84.8 386.5 85.7 Z M 395.8 97.2 C 390.9 97.2 388.8 95.4 388.8 92.2 C 388.8 91.3 389 90.4 389.3 89.7 C 389.3 89.7 393.5 89.9 393.5 89.9 C 393.4 90.4 393.4 90.8 393.4 91.2 C 393.4 92.7 394 93.6 395.5 93.6 C 397.1 93.6 397.5 92.2 397.5 91.5 C 397.5 90.4 396.9 89.8 395.4 89.1 C 395.4 89.1 393.3 88.1 393.3 88.1 C 391.5 87.3 388.9 85.8 388.9 82.1 C 388.9 78.3 392.2 76.2 396 76.2 C 399.7 76.2 402.5 77.7 402.5 81.1 C 402.5 81.9 402.4 82.4 402.2 82.9 C 402.2 82.9 398 82.9 398 82.9 C 398.2 82.5 398.2 82.1 398.2 81.5 C 398.2 80.4 397.5 79.8 396.3 79.8 C 395.1 79.8 394.6 80.5 394.6 81.5 C 394.6 82.7 395.4 83.2 396.8 83.8 C 396.8 83.8 399.5 85 399.5 85 C 401.8 86 403.5 87.3 403.5 90.8 C 403.5 95.1 401.5 97.2 395.8 97.2 Z M 413.2 97.2 C 407.6 97.2 405.6 94.2 405.6 87.1 C 405.6 79.6 408.1 76.2 413 76.2 C 418.8 76.2 420.4 79.8 420.4 86.7 C 420.4 93.5 419.1 97.2 413.2 97.2 Z M 413 80.3 C 411.6 80.3 411.3 81.6 411.3 87 C 411.3 92.2 411.8 92.7 413 92.7 C 414.3 92.7 414.7 92.1 414.7 87 C 414.7 81.6 414.5 80.3 413 80.3 Z " stroke="none" fill="#000"/>
  </g>
  <g id="Polygon14053">
    <path d="M 10.3 61.9 C 10.3 61.9 10.29 47.67 10.3 47.7 C 10.3 46.8 9.9 46.2 9 46.2 C 7.7 46.2 6.9 47.8 6.9 50.4 C 6.86 50.43 6.9 61.9 6.9 61.9 L 1.3 61.9 L 1.3 41.8 L 6.8 41.8 C 6.8 41.8 6.82 45.04 6.8 45 C 7.5 42.8 9.1 41.4 11.4 41.4 C 13.7 41.4 15.8 42.9 15.8 46.1 C 15.82 46.13 15.8 61.9 15.8 61.9 L 10.3 61.9 Z M 25.6 68.5 C 21.8 68.5 18.2 67.4 18.2 64.1 C 18.2 62.9 18.8 62.2 20 61.6 C 20.02 61.6 20.9 61.1 20.9 61.1 C 20.9 61.1 20.26 60.76 20.3 60.8 C 18.9 60 18.5 58.9 18.5 57.4 C 18.5 55.6 19.7 54.5 20.9 53.7 C 20.89 53.65 21.5 53.2 21.5 53.2 C 21.5 53.2 20.93 52.71 20.9 52.7 C 19.8 51.8 19 49.8 19 48.1 C 19 43.7 21.3 41.2 25.7 41.2 C 27.1 41.2 27.8 41.3 28.5 41.6 C 28.52 41.61 29 38 29 38 L 33.5 38 C 33.5 38 30.45 42.59 30.4 42.6 C 31.8 43.7 32.9 45.4 32.9 48.1 C 32.9 51.9 30.5 54.4 26.6 54.4 C 25.8 54.4 24.7 54.4 24 54.2 C 23.4 54.5 22.8 54.7 22.8 55.5 C 22.8 56.5 23.7 56.5 24.5 56.5 C 24.5 56.5 27.9 56.4 27.9 56.4 C 31.7 56.4 33.9 58.3 33.9 62.2 C 33.9 66.5 31.5 68.5 25.6 68.5 Z M 25.8 44.1 C 24.6 44.1 24 44.7 24 47.6 C 24 50.6 24.6 51.1 25.8 51.1 C 27.1 51.1 27.7 50.6 27.7 47.6 C 27.7 44.7 27.1 44.1 25.8 44.1 Z M 25.9 61.5 C 25.9 61.5 23.4 61.5 23.4 61.5 C 22.9 61.9 22.4 62.6 22.4 63.3 C 22.4 64.6 23.8 65.3 25.7 65.3 C 28.6 65.3 29 64.6 29 63.3 C 29 62.2 28.2 61.5 25.9 61.5 Z M 54.5 52.3 C 54.49 52.29 52.2 52.3 52.2 52.3 L 52.2 61.9 L 46.4 61.9 L 46.4 35 C 46.4 35 53.69 35 53.7 35 C 58.4 35 61.5 37 61.5 44 C 61.5 50.6 59 52.3 54.5 52.3 Z M 53.4 39.7 C 53.37 39.65 52.2 39.7 52.2 39.7 L 52.2 47.5 C 52.2 47.5 53.41 47.53 53.4 47.5 C 55 47.5 55.6 46.4 55.6 43.7 C 55.6 40.5 55 39.7 53.4 39.7 Z M 76.6 62.3 C 73.8 62.3 73.5 61.2 73.1 59.7 C 73.1 59.7 72.8 60.3 72.8 60.3 C 72.3 61.2 70.9 62.3 68.7 62.3 C 64.8 62.3 63.4 59.3 63.4 56.2 C 63.4 52.9 65 50.9 68.4 50.2 C 68.4 50.2 70.5 49.7 70.5 49.7 C 72.7 49.3 73.1 48.8 73.1 47.1 C 73.1 45.2 72.3 44.5 70.9 44.5 C 69.5 44.5 68.5 45.3 68.5 46.5 C 68.5 47.2 68.6 47.7 68.8 48.3 C 68.8 48.3 64.2 48.4 64.2 48.4 C 64 47.6 63.9 47.2 63.9 46.2 C 63.9 42.6 67.1 41.2 70.9 41.2 C 76.5 41.2 78.5 43 78.5 45.7 C 78.5 45.7 78.5 57.4 78.5 57.4 C 78.5 58.1 79.1 58.5 79.8 58.5 C 80 58.5 80.1 58.5 80.3 58.4 C 80.3 58.4 80.3 61.2 80.3 61.2 C 79.8 61.6 78 62.3 76.6 62.3 Z M 73.1 51.9 C 72.6 52.2 71.9 52.4 71.4 52.6 C 69.4 53.1 68.9 53.8 68.9 55.6 C 68.9 57.4 69.4 58.4 70.7 58.4 C 72 58.4 73.1 57.9 73.1 53.9 C 73.1 53.9 73.1 51.9 73.1 51.9 Z M 101 61.9 C 101 61.9 100.97 47.63 101 47.6 C 101 46.7 100.6 46.2 99.7 46.2 C 98.4 46.2 97.5 47.8 97.5 50.4 C 97.54 50.4 97.5 61.9 97.5 61.9 L 92 61.9 C 92 61.9 92.05 47.63 92 47.6 C 92 46.7 91.7 46.2 90.8 46.2 C 89.5 46.2 88.6 47.6 88.6 50.4 C 88.6 50.4 88.6 61.8 88.6 61.9 C 88.58 61.88 83.1 61.9 83.1 61.9 L 83.1 41.8 L 88.5 41.8 C 88.5 41.8 88.55 45.08 88.5 45.1 C 89.2 42.8 90.8 41.4 93.2 41.4 C 95.4 41.4 97.2 42.6 97.5 45.1 C 98.1 42.8 99.7 41.4 102.1 41.4 C 104.4 41.4 106.5 42.9 106.5 46.1 C 106.5 46.13 106.5 61.9 106.5 61.9 L 101 61.9 Z M 122.7 62.3 C 119.9 62.3 119.5 61.2 119.1 59.7 C 119.1 59.7 118.8 60.3 118.8 60.3 C 118.4 61.2 117 62.3 114.8 62.3 C 110.9 62.3 109.5 59.3 109.5 56.2 C 109.5 52.9 111 50.9 114.5 50.2 C 114.5 50.2 116.6 49.7 116.6 49.7 C 118.7 49.3 119.1 48.8 119.1 47.1 C 119.1 45.2 118.4 44.5 116.9 44.5 C 115.6 44.5 114.6 45.3 114.6 46.5 C 114.6 47.2 114.7 47.7 114.8 48.3 C 114.8 48.3 110.2 48.4 110.2 48.4 C 110 47.6 109.9 47.2 109.9 46.2 C 109.9 42.6 113.1 41.2 117 41.2 C 122.6 41.2 124.6 43 124.6 45.7 C 124.6 45.7 124.6 57.4 124.6 57.4 C 124.6 58.1 125.2 58.5 125.9 58.5 C 126.1 58.5 126.2 58.5 126.4 58.4 C 126.4 58.4 126.4 61.2 126.4 61.2 C 125.9 61.6 124.1 62.3 122.7 62.3 Z M 119.1 51.9 C 118.6 52.2 118 52.4 117.5 52.6 C 115.5 53.1 115 53.8 115 55.6 C 115 57.4 115.4 58.4 116.8 58.4 C 118.1 58.4 119.1 57.9 119.1 53.9 C 119.1 53.9 119.1 51.9 119.1 51.9 Z M 138.1 61.9 C 138.1 61.9 138.07 47.67 138.1 47.7 C 138.1 46.8 137.7 46.2 136.8 46.2 C 135.5 46.2 134.6 47.8 134.6 50.4 C 134.64 50.43 134.6 61.9 134.6 61.9 L 129.1 61.9 L 129.1 41.8 L 134.6 41.8 C 134.6 41.8 134.61 45.04 134.6 45 C 135.2 42.8 136.8 41.4 139.2 41.4 C 141.5 41.4 143.6 42.9 143.6 46.1 C 143.6 46.13 143.6 61.9 143.6 61.9 L 138.1 61.9 Z M 153.5 62.2 C 150.6 62.2 148.7 61.1 148.8 58 C 148.78 57.96 148.9 45.6 148.9 45.6 L 145.9 45.6 L 145.9 41.8 L 148.9 41.8 L 149.1 36.3 L 154.3 36.3 L 154.3 41.8 L 158.5 41.8 L 158.5 45.6 L 154.3 45.6 C 154.3 45.6 154.31 55.72 154.3 55.7 C 154.3 57.3 155.7 57.5 156.8 57.5 C 157.7 57.5 158.3 57.3 158.8 57 C 158.8 57 158.8 61 158.8 61 C 158.1 61.5 155.6 62.2 153.5 62.2 Z M 174.5 62.3 C 171.7 62.3 171.3 61.2 170.9 59.7 C 170.9 59.7 170.6 60.3 170.6 60.3 C 170.2 61.2 168.8 62.3 166.6 62.3 C 162.7 62.3 161.3 59.3 161.3 56.2 C 161.3 52.9 162.8 50.9 166.3 50.2 C 166.3 50.2 168.4 49.7 168.4 49.7 C 170.5 49.3 170.9 48.8 170.9 47.1 C 170.9 45.2 170.2 44.5 168.7 44.5 C 167.4 44.5 166.4 45.3 166.4 46.5 C 166.4 47.2 166.5 47.7 166.6 48.3 C 166.6 48.3 162 48.4 162 48.4 C 161.8 47.6 161.7 47.2 161.7 46.2 C 161.7 42.6 164.9 41.2 168.8 41.2 C 174.4 41.2 176.4 43 176.4 45.7 C 176.4 45.7 176.4 57.4 176.4 57.4 C 176.4 58.1 177 58.5 177.7 58.5 C 177.9 58.5 178 58.5 178.2 58.4 C 178.2 58.4 178.2 61.2 178.2 61.2 C 177.7 61.6 175.9 62.3 174.5 62.3 Z M 170.9 51.9 C 170.4 52.2 169.8 52.4 169.3 52.6 C 167.3 53.1 166.8 53.8 166.8 55.6 C 166.8 57.4 167.2 58.4 168.6 58.4 C 169.9 58.4 170.9 57.9 170.9 53.9 C 170.9 53.9 170.9 51.9 170.9 51.9 Z M 187.2 62.2 C 182.3 62.2 180.2 60.4 180.2 57.2 C 180.2 56.3 180.4 55.4 180.6 54.7 C 180.6 54.7 184.9 54.9 184.9 54.9 C 184.8 55.4 184.7 55.8 184.7 56.2 C 184.7 57.7 185.4 58.6 186.8 58.6 C 188.5 58.6 188.9 57.2 188.9 56.5 C 188.9 55.4 188.3 54.8 186.8 54.1 C 186.8 54.1 184.6 53.1 184.6 53.1 C 182.9 52.3 180.3 50.8 180.3 47.1 C 180.3 43.3 183.5 41.2 187.4 41.2 C 191 41.2 193.9 42.7 193.9 46.1 C 193.9 46.9 193.8 47.4 193.6 47.9 C 193.6 47.9 189.4 47.9 189.4 47.9 C 189.6 47.5 189.6 47.1 189.6 46.5 C 189.6 45.4 188.9 44.8 187.7 44.8 C 186.5 44.8 186 45.5 186 46.5 C 186 47.7 186.8 48.2 188.2 48.8 C 188.2 48.8 190.9 50 190.9 50 C 193.1 51 194.9 52.3 194.9 55.8 C 194.9 60.1 192.9 62.2 187.2 62.2 Z M 210.2 62.3 C 207.4 62.3 207.1 61.2 206.7 59.7 C 206.7 59.7 206.4 60.3 206.4 60.3 C 205.9 61.2 204.5 62.3 202.3 62.3 C 198.4 62.3 197 59.3 197 56.2 C 197 52.9 198.6 50.9 202 50.2 C 202 50.2 204.1 49.7 204.1 49.7 C 206.3 49.3 206.7 48.8 206.7 47.1 C 206.7 45.2 205.9 44.5 204.5 44.5 C 203.1 44.5 202.1 45.3 202.1 46.5 C 202.1 47.2 202.2 47.7 202.4 48.3 C 202.4 48.3 197.7 48.4 197.7 48.4 C 197.6 47.6 197.5 47.2 197.5 46.2 C 197.5 42.6 200.7 41.2 204.5 41.2 C 210.1 41.2 212.1 43 212.1 45.7 C 212.1 45.7 212.1 57.4 212.1 57.4 C 212.1 58.1 212.7 58.5 213.4 58.5 C 213.6 58.5 213.7 58.5 213.9 58.4 C 213.9 58.4 213.9 61.2 213.9 61.2 C 213.4 61.6 211.6 62.3 210.2 62.3 Z M 206.7 51.9 C 206.2 52.2 205.5 52.4 205 52.6 C 203 53.1 202.5 53.8 202.5 55.6 C 202.5 57.4 203 58.4 204.3 58.4 C 205.6 58.4 206.7 57.9 206.7 53.9 C 206.7 53.9 206.7 51.9 206.7 51.9 Z M 225.6 61.9 C 225.6 61.9 225.61 47.67 225.6 47.7 C 225.6 46.8 225.3 46.2 224.3 46.2 C 223 46.2 222.2 47.8 222.2 50.4 C 222.18 50.43 222.2 61.9 222.2 61.9 L 216.6 61.9 L 216.6 41.8 L 222.1 41.8 C 222.1 41.8 222.14 45.04 222.1 45 C 222.8 42.8 224.4 41.4 226.7 41.4 C 229 41.4 231.1 42.9 231.1 46.1 C 231.14 46.13 231.1 61.9 231.1 61.9 L 225.6 61.9 Z M 236.8 67.3 C 236.2 67.6 235.6 67.8 234.8 67.9 C 234.8 67.9 234.4 65.9 234.4 65.9 C 235.1 65.7 235.8 65.3 236.3 64.9 C 237.3 64.1 237.3 63.1 237.2 61.9 C 237.23 61.88 234.7 61.9 234.7 61.9 L 234.7 56 L 240.1 56 C 240.1 56 240.06 61.88 240.1 61.9 C 240.1 64.4 239.3 66.3 236.8 67.3 Z M 271.6 61.9 C 271.6 61.9 271.56 47.63 271.6 47.6 C 271.6 46.7 271.2 46.2 270.3 46.2 C 269 46.2 268.1 47.8 268.1 50.4 C 268.13 50.4 268.1 61.9 268.1 61.9 L 262.6 61.9 C 262.6 61.9 262.64 47.63 262.6 47.6 C 262.6 46.7 262.3 46.2 261.3 46.2 C 260 46.2 259.2 47.6 259.2 50.4 C 259.2 50.4 259.2 61.8 259.2 61.9 C 259.17 61.88 253.6 61.9 253.6 61.9 L 253.6 41.8 L 259.1 41.8 C 259.1 41.8 259.14 45.08 259.1 45.1 C 259.8 42.8 261.4 41.4 263.8 41.4 C 266 41.4 267.8 42.6 268.1 45.1 C 268.7 42.8 270.3 41.4 272.7 41.4 C 275 41.4 277.1 42.9 277.1 46.1 C 277.09 46.13 277.1 61.9 277.1 61.9 L 271.6 61.9 Z M 293.3 62.3 C 290.5 62.3 290.1 61.2 289.7 59.7 C 289.7 59.7 289.4 60.3 289.4 60.3 C 289 61.2 287.6 62.3 285.4 62.3 C 281.5 62.3 280.1 59.3 280.1 56.2 C 280.1 52.9 281.6 50.9 285.1 50.2 C 285.1 50.2 287.2 49.7 287.2 49.7 C 289.3 49.3 289.7 48.8 289.7 47.1 C 289.7 45.2 289 44.5 287.5 44.5 C 286.2 44.5 285.1 45.3 285.1 46.5 C 285.1 47.2 285.2 47.7 285.4 48.3 C 285.4 48.3 280.8 48.4 280.8 48.4 C 280.6 47.6 280.5 47.2 280.5 46.2 C 280.5 42.6 283.7 41.2 287.6 41.2 C 293.2 41.2 295.2 43 295.2 45.7 C 295.2 45.7 295.2 57.4 295.2 57.4 C 295.2 58.1 295.8 58.5 296.5 58.5 C 296.7 58.5 296.8 58.5 297 58.4 C 297 58.4 297 61.2 297 61.2 C 296.4 61.6 294.7 62.3 293.3 62.3 Z M 289.7 51.9 C 289.2 52.2 288.6 52.4 288 52.6 C 286.1 53.1 285.6 53.8 285.6 55.6 C 285.6 57.4 286 58.4 287.3 58.4 C 288.6 58.4 289.7 57.9 289.7 53.9 C 289.7 53.9 289.7 51.9 289.7 51.9 Z M 306 62.2 C 301.1 62.2 299 60.4 299 57.2 C 299 56.3 299.2 55.4 299.4 54.7 C 299.4 54.7 303.7 54.9 303.7 54.9 C 303.6 55.4 303.5 55.8 303.5 56.2 C 303.5 57.7 304.1 58.6 305.6 58.6 C 307.3 58.6 307.6 57.2 307.6 56.5 C 307.6 55.4 307.1 54.8 305.6 54.1 C 305.6 54.1 303.4 53.1 303.4 53.1 C 301.7 52.3 299.1 50.8 299.1 47.1 C 299.1 43.3 302.3 41.2 306.1 41.2 C 309.8 41.2 312.7 42.7 312.7 46.1 C 312.7 46.9 312.6 47.4 312.4 47.9 C 312.4 47.9 308.2 47.9 308.2 47.9 C 308.3 47.5 308.4 47.1 308.4 46.5 C 308.4 45.4 307.6 44.8 306.5 44.8 C 305.3 44.8 304.7 45.5 304.7 46.5 C 304.7 47.7 305.6 48.2 306.9 48.8 C 306.9 48.8 309.6 50 309.6 50 C 311.9 51 313.7 52.3 313.7 55.8 C 313.7 60.1 311.7 62.2 306 62.2 Z M 325.3 61.9 C 325.3 61.9 325.32 58.62 325.3 58.6 C 324.7 60.9 323.1 62.3 320.7 62.3 C 318.5 62.3 316.3 60.8 316.3 57.5 C 316.33 57.54 316.3 41.8 316.3 41.8 L 321.9 41.8 C 321.9 41.8 321.86 56 321.9 56 C 321.9 56.9 322.2 57.5 323.2 57.5 C 324.4 57.5 325.3 56.1 325.3 53.2 C 325.29 53.23 325.3 41.8 325.3 41.8 L 330.8 41.8 L 330.8 61.9 L 325.3 61.9 Z M 340.8 62.2 C 335.9 62.2 333.8 60.4 333.8 57.2 C 333.8 56.3 334 55.4 334.2 54.7 C 334.2 54.7 338.5 54.9 338.5 54.9 C 338.4 55.4 338.3 55.8 338.3 56.2 C 338.3 57.7 339 58.6 340.4 58.6 C 342.1 58.6 342.5 57.2 342.5 56.5 C 342.5 55.4 341.9 54.8 340.4 54.1 C 340.4 54.1 338.2 53.1 338.2 53.1 C 336.5 52.3 333.9 50.8 333.9 47.1 C 333.9 43.3 337.2 41.2 341 41.2 C 344.6 41.2 347.5 42.7 347.5 46.1 C 347.5 46.9 347.4 47.4 347.2 47.9 C 347.2 47.9 343 47.9 343 47.9 C 343.2 47.5 343.2 47.1 343.2 46.5 C 343.2 45.4 342.5 44.8 341.3 44.8 C 340.1 44.8 339.6 45.5 339.6 46.5 C 339.6 47.7 340.4 48.2 341.8 48.8 C 341.8 48.8 344.5 50 344.5 50 C 346.7 51 348.5 52.3 348.5 55.8 C 348.5 60.1 346.5 62.2 340.8 62.2 Z M 351.3 40 L 351.3 35 L 356.8 35 L 356.8 40 L 351.3 40 Z M 351.3 61.9 L 351.3 41.8 L 356.8 41.8 L 356.8 61.9 L 351.3 61.9 Z M 369.5 61.9 C 369.5 61.9 369.46 47.67 369.5 47.7 C 369.5 46.8 369.1 46.2 368.2 46.2 C 366.9 46.2 366 47.8 366 50.4 C 366.03 50.43 366 61.9 366 61.9 L 360.5 61.9 L 360.5 41.8 L 366 41.8 C 366 41.8 365.99 45.04 366 45 C 366.6 42.8 368.2 41.4 370.6 41.4 C 372.9 41.4 375 42.9 375 46.1 C 374.99 46.13 375 61.9 375 61.9 L 369.5 61.9 Z M 384.8 68.5 C 380.9 68.5 377.3 67.4 377.3 64.1 C 377.3 62.9 378 62.2 379.2 61.6 C 379.19 61.6 380.1 61.1 380.1 61.1 C 380.1 61.1 379.43 60.76 379.4 60.8 C 378.1 60 377.6 58.9 377.6 57.4 C 377.6 55.6 378.9 54.5 380.1 53.7 C 380.06 53.65 380.7 53.2 380.7 53.2 C 380.7 53.2 380.1 52.71 380.1 52.7 C 379 51.8 378.1 49.8 378.1 48.1 C 378.1 43.7 380.4 41.2 384.9 41.2 C 386.3 41.2 387 41.3 387.7 41.6 C 387.69 41.61 388.2 38 388.2 38 L 392.7 38 C 392.7 38 389.62 42.59 389.6 42.6 C 390.9 43.7 392.1 45.4 392.1 48.1 C 392.1 51.9 389.7 54.4 385.8 54.4 C 385 54.4 383.8 54.4 383.2 54.2 C 382.6 54.5 382 54.7 382 55.5 C 382 56.5 382.9 56.5 383.7 56.5 C 383.7 56.5 387 56.4 387 56.4 C 390.8 56.4 393.1 58.3 393.1 62.2 C 393.1 66.5 390.7 68.5 384.8 68.5 Z M 385 44.1 C 383.8 44.1 383.2 44.7 383.2 47.6 C 383.2 50.6 383.8 51.1 385 51.1 C 386.2 51.1 386.9 50.6 386.9 47.6 C 386.9 44.7 386.2 44.1 385 44.1 Z M 385 61.5 C 385 61.5 382.6 61.5 382.6 61.5 C 382.1 61.9 381.6 62.6 381.6 63.3 C 381.6 64.6 383 65.3 384.9 65.3 C 387.8 65.3 388.2 64.6 388.2 63.3 C 388.2 62.2 387.3 61.5 385 61.5 Z M 414.4 61.9 L 412.2 55.1 L 410.9 57.5 L 410.9 61.9 L 405.3 61.9 L 405.3 35 L 410.9 35 L 410.9 49.6 L 414.8 41.8 L 420.5 41.8 L 416.2 49.6 L 420.7 61.9 L 414.4 61.9 Z M 423.4 40 L 423.4 35 L 428.9 35 L 428.9 40 L 423.4 40 Z M 423.4 61.9 L 423.4 41.8 L 428.9 41.8 L 428.9 61.9 L 423.4 61.9 Z M 441.6 61.9 C 441.6 61.9 441.55 47.67 441.6 47.7 C 441.6 46.8 441.2 46.2 440.3 46.2 C 439 46.2 438.1 47.8 438.1 50.4 C 438.12 50.43 438.1 61.9 438.1 61.9 L 432.6 61.9 L 432.6 41.8 L 438.1 41.8 C 438.1 41.8 438.09 45.04 438.1 45 C 438.7 42.8 440.3 41.4 442.7 41.4 C 444.9 41.4 447.1 42.9 447.1 46.1 C 447.08 46.13 447.1 61.9 447.1 61.9 L 441.6 61.9 Z M 457.7 62.2 C 452.1 62.2 450.1 59.2 450.1 52.1 C 450.1 44.6 452.5 41.2 457.4 41.2 C 463.2 41.2 464.9 44.8 464.9 51.7 C 464.9 58.5 463.5 62.2 457.7 62.2 Z M 457.4 45.3 C 456 45.3 455.8 46.6 455.8 52 C 455.8 57.2 456.3 57.7 457.4 57.7 C 458.7 57.7 459.2 57.1 459.2 52 C 459.2 46.6 458.9 45.3 457.4 45.3 Z M 477 61.9 L 474.8 55.1 L 473.5 57.5 L 473.5 61.9 L 467.9 61.9 L 467.9 35 L 473.5 35 L 473.5 49.6 L 477.4 41.8 L 483.1 41.8 L 478.8 49.6 L 483.3 61.9 L 477 61.9 Z M 492.1 62.2 C 486.5 62.2 484.5 59.2 484.5 52.1 C 484.5 44.6 486.9 41.2 491.8 41.2 C 497.6 41.2 499.3 44.8 499.3 51.7 C 499.3 58.5 497.9 62.2 492.1 62.2 Z M 491.8 45.3 C 490.4 45.3 490.2 46.6 490.2 52 C 490.2 57.2 490.7 57.7 491.8 57.7 C 493.1 57.7 493.6 57.1 493.6 52 C 493.6 46.6 493.3 45.3 491.8 45.3 Z M 511.3 61.9 C 511.3 61.9 511.31 47.67 511.3 47.7 C 511.3 46.8 511 46.2 510 46.2 C 508.7 46.2 507.9 47.8 507.9 50.4 C 507.88 50.43 507.9 61.9 507.9 61.9 L 502.3 61.9 L 502.3 41.8 L 507.8 41.8 C 507.8 41.8 507.84 45.04 507.8 45 C 508.5 42.8 510.1 41.4 512.4 41.4 C 514.7 41.4 516.8 42.9 516.8 46.1 C 516.84 46.13 516.8 61.9 516.8 61.9 L 511.3 61.9 Z M 526.7 62.2 C 521.8 62.2 519.7 60.4 519.7 57.2 C 519.7 56.3 519.9 55.4 520.2 54.7 C 520.2 54.7 524.4 54.9 524.4 54.9 C 524.3 55.4 524.3 55.8 524.3 56.2 C 524.3 57.7 524.9 58.6 526.4 58.6 C 528 58.6 528.4 57.2 528.4 56.5 C 528.4 55.4 527.8 54.8 526.3 54.1 C 526.3 54.1 524.2 53.1 524.2 53.1 C 522.4 52.3 519.8 50.8 519.8 47.1 C 519.8 43.3 523.1 41.2 526.9 41.2 C 530.6 41.2 533.4 42.7 533.4 46.1 C 533.4 46.9 533.3 47.4 533.1 47.9 C 533.1 47.9 528.9 47.9 528.9 47.9 C 529.1 47.5 529.1 47.1 529.1 46.5 C 529.1 45.4 528.4 44.8 527.2 44.8 C 526 44.8 525.5 45.5 525.5 46.5 C 525.5 47.7 526.3 48.2 527.7 48.8 C 527.7 48.8 530.4 50 530.4 50 C 532.7 51 534.4 52.3 534.4 55.8 C 534.4 60.1 532.4 62.2 526.7 62.2 Z M 537.2 40 L 537.2 35 L 542.7 35 L 542.7 40 L 537.2 40 Z M 537.2 61.9 L 537.2 41.8 L 542.7 41.8 L 542.7 61.9 L 537.2 61.9 Z M 555.5 61.9 L 555.5 59.3 C 555.5 59.3 555.06 60.16 555.1 60.2 C 554.4 61.3 553.3 62.2 551.7 62.2 C 547.8 62.2 545.8 60 545.8 52 C 545.8 45.1 547.8 41.4 551.6 41.4 C 553.3 41.4 554.5 42.3 555 43.5 C 555.02 43.5 555.3 44 555.3 44 L 555.3 35 L 560.8 35 L 560.8 61.9 L 555.5 61.9 Z M 554.6 46.9 C 554.3 46.1 553.9 45.6 553.1 45.6 C 551.9 45.6 551.3 47.2 551.3 51.8 C 551.3 57.3 552.3 57.9 553.2 57.9 C 554.5 57.9 555.2 56.7 555.2 51.9 C 555.2 49.3 555 48 554.6 46.9 Z M 569.4 52.9 C 569.4 57.4 570.2 58 571.8 58 C 573.3 58 573.8 56.9 573.7 55.2 C 573.68 55.23 573.6 54.4 573.6 54.4 C 573.6 54.4 578.4 54.56 578.4 54.6 C 578.5 54.9 578.5 55.5 578.5 56.1 C 578.5 59.5 576.8 62.3 571.9 62.3 C 567 62.3 563.9 60.5 563.9 52.1 C 563.9 44.4 566.5 41.2 571.4 41.2 C 575.8 41.2 577.8 44.1 578.3 49.1 C 578.4 50.5 578.5 51.8 578.5 53 C 578.5 53 569.4 52.9 569.4 52.9 Z M 571.4 45.2 C 569.9 45.2 569.5 46.9 569.4 50.1 C 569.4 50.1 573.2 50.1 573.2 50.1 C 572.9 46.2 572.8 45.2 571.4 45.2 Z M 595.1 50.7 C 595.1 50.7 590.4 51.6 590.4 51.6 C 590.5 50.9 590.6 50.1 590.6 49 C 590.6 47.2 590.1 46.5 589.1 46.5 C 587.6 46.5 587.3 49 587.3 51.8 C 587.26 51.8 587.3 61.9 587.3 61.9 L 581.7 61.9 L 581.7 41.8 L 587.2 41.8 C 587.2 41.8 587.22 44.2 587.2 45.4 C 587.2 45.4 587.5 44.7 587.5 44.7 C 588.1 43 589.4 41.4 591.2 41.4 C 594.1 41.4 595.4 43 595.4 46.6 C 595.4 48.4 595.3 49.8 595.1 50.7 Z M 610.4 62.3 C 607.6 62.3 607.2 61.2 606.9 59.7 C 606.9 59.7 606.5 60.3 606.5 60.3 C 606.1 61.2 604.7 62.3 602.5 62.3 C 598.6 62.3 597.2 59.3 597.2 56.2 C 597.2 52.9 598.7 50.9 602.2 50.2 C 602.2 50.2 604.3 49.7 604.3 49.7 C 606.4 49.3 606.9 48.8 606.9 47.1 C 606.9 45.2 606.1 44.5 604.7 44.5 C 603.3 44.5 602.3 45.3 602.3 46.5 C 602.3 47.2 602.4 47.7 602.6 48.3 C 602.6 48.3 597.9 48.4 597.9 48.4 C 597.8 47.6 597.7 47.2 597.7 46.2 C 597.7 42.6 600.8 41.2 604.7 41.2 C 610.3 41.2 612.3 43 612.3 45.7 C 612.3 45.7 612.3 57.4 612.3 57.4 C 612.3 58.1 612.9 58.5 613.6 58.5 C 613.8 58.5 613.9 58.5 614.1 58.4 C 614.1 58.4 614.1 61.2 614.1 61.2 C 613.6 61.6 611.8 62.3 610.4 62.3 Z M 606.9 51.9 C 606.4 52.2 605.7 52.4 605.2 52.6 C 603.2 53.1 602.7 53.8 602.7 55.6 C 602.7 57.4 603.1 58.4 604.5 58.4 C 605.8 58.4 606.9 57.9 606.9 53.9 C 606.9 53.9 606.9 51.9 606.9 51.9 Z M 636.2 62.2 C 634.7 62.2 633.4 61.2 632.9 60.4 C 632.93 60.37 632.3 59.3 632.3 59.3 L 632.3 66.9 L 626.8 66.9 L 626.8 41.8 L 632.3 41.8 L 632.3 44 C 632.3 44 632.76 43.29 632.8 43.3 C 633.4 42.3 634.5 41.3 635.9 41.3 C 639.1 41.3 641.8 43.3 641.8 52.4 C 641.8 59.2 640.4 62.2 636.2 62.2 Z M 634.3 45.7 C 633.1 45.7 632.3 46.7 632.3 51.8 C 632.3 56.6 632.9 57.6 634.4 57.6 C 635.5 57.6 636.2 55.7 636.2 51.8 C 636.2 47.1 635.3 45.7 634.3 45.7 Z M 657.5 62.3 C 654.7 62.3 654.3 61.2 653.9 59.7 C 653.9 59.7 653.6 60.3 653.6 60.3 C 653.2 61.2 651.8 62.3 649.6 62.3 C 645.7 62.3 644.3 59.3 644.3 56.2 C 644.3 52.9 645.8 50.9 649.3 50.2 C 649.3 50.2 651.4 49.7 651.4 49.7 C 653.5 49.3 653.9 48.8 653.9 47.1 C 653.9 45.2 653.2 44.5 651.7 44.5 C 650.4 44.5 649.3 45.3 649.3 46.5 C 649.3 47.2 649.5 47.7 649.6 48.3 C 649.6 48.3 645 48.4 645 48.4 C 644.8 47.6 644.7 47.2 644.7 46.2 C 644.7 42.6 647.9 41.2 651.8 41.2 C 657.4 41.2 659.4 43 659.4 45.7 C 659.4 45.7 659.4 57.4 659.4 57.4 C 659.4 58.1 660 58.5 660.7 58.5 C 660.9 58.5 661 58.5 661.2 58.4 C 661.2 58.4 661.2 61.2 661.2 61.2 C 660.7 61.6 658.9 62.3 657.5 62.3 Z M 653.9 51.9 C 653.4 52.2 652.8 52.4 652.3 52.6 C 650.3 53.1 649.8 53.8 649.8 55.6 C 649.8 57.4 650.2 58.4 651.6 58.4 C 652.8 58.4 653.9 57.9 653.9 53.9 C 653.9 53.9 653.9 51.9 653.9 51.9 Z M 677.3 50.7 C 677.3 50.7 672.6 51.6 672.6 51.6 C 672.7 50.9 672.8 50.1 672.8 49 C 672.8 47.2 672.2 46.5 671.3 46.5 C 669.8 46.5 669.4 49 669.4 51.8 C 669.44 51.8 669.4 61.9 669.4 61.9 L 663.9 61.9 L 663.9 41.8 L 669.3 41.8 C 669.3 41.8 669.4 44.2 669.4 45.4 C 669.4 45.4 669.6 44.7 669.6 44.7 C 670.2 43 671.5 41.4 673.4 41.4 C 676.3 41.4 677.6 43 677.6 46.6 C 677.6 48.4 677.5 49.8 677.3 50.7 Z M 692.6 62.3 C 689.8 62.3 689.4 61.2 689 59.7 C 689 59.7 688.7 60.3 688.7 60.3 C 688.3 61.2 686.9 62.3 684.7 62.3 C 680.8 62.3 679.4 59.3 679.4 56.2 C 679.4 52.9 680.9 50.9 684.4 50.2 C 684.4 50.2 686.5 49.7 686.5 49.7 C 688.6 49.3 689 48.8 689 47.1 C 689 45.2 688.3 44.5 686.8 44.5 C 685.5 44.5 684.5 45.3 684.5 46.5 C 684.5 47.2 684.6 47.7 684.7 48.3 C 684.7 48.3 680.1 48.4 680.1 48.4 C 679.9 47.6 679.8 47.2 679.8 46.2 C 679.8 42.6 683 41.2 686.9 41.2 C 692.5 41.2 694.5 43 694.5 45.7 C 694.5 45.7 694.5 57.4 694.5 57.4 C 694.5 58.1 695.1 58.5 695.8 58.5 C 696 58.5 696.1 58.5 696.3 58.4 C 696.3 58.4 696.3 61.2 696.3 61.2 C 695.8 61.6 694 62.3 692.6 62.3 Z M 689 51.9 C 688.5 52.2 687.9 52.4 687.4 52.6 C 685.4 53.1 684.9 53.8 684.9 55.6 C 684.9 57.4 685.3 58.4 686.7 58.4 C 688 58.4 689 57.9 689 53.9 C 689 53.9 689 51.9 689 51.9 Z M 715.3 62.2 C 710.3 62.2 708.3 60.4 708.3 57.2 C 708.3 56.3 708.4 55.4 708.7 54.7 C 708.7 54.7 712.9 54.9 712.9 54.9 C 712.8 55.4 712.8 55.8 712.8 56.2 C 712.8 57.7 713.4 58.6 714.9 58.6 C 716.5 58.6 716.9 57.2 716.9 56.5 C 716.9 55.4 716.3 54.8 714.8 54.1 C 714.8 54.1 712.7 53.1 712.7 53.1 C 710.9 52.3 708.3 50.8 708.3 47.1 C 708.3 43.3 711.6 41.2 715.4 41.2 C 719.1 41.2 721.9 42.7 721.9 46.1 C 721.9 46.9 721.8 47.4 721.6 47.9 C 721.6 47.9 717.5 47.9 717.5 47.9 C 717.6 47.5 717.6 47.1 717.6 46.5 C 717.6 45.4 716.9 44.8 715.7 44.8 C 714.6 44.8 714 45.5 714 46.5 C 714 47.7 714.8 48.2 716.2 48.8 C 716.2 48.8 718.9 50 718.9 50 C 721.2 51 722.9 52.3 722.9 55.8 C 722.9 60.1 720.9 62.2 715.3 62.2 Z M 738.2 62.3 C 735.4 62.3 735.1 61.2 734.7 59.7 C 734.7 59.7 734.4 60.3 734.4 60.3 C 733.9 61.2 732.6 62.3 730.3 62.3 C 726.5 62.3 725.1 59.3 725.1 56.2 C 725.1 52.9 726.6 50.9 730.1 50.2 C 730.1 50.2 732.2 49.7 732.2 49.7 C 734.3 49.3 734.7 48.8 734.7 47.1 C 734.7 45.2 733.9 44.5 732.5 44.5 C 731.2 44.5 730.1 45.3 730.1 46.5 C 730.1 47.2 730.2 47.7 730.4 48.3 C 730.4 48.3 725.8 48.4 725.8 48.4 C 725.6 47.6 725.5 47.2 725.5 46.2 C 725.5 42.6 728.7 41.2 732.6 41.2 C 738.2 41.2 740.2 43 740.2 45.7 C 740.2 45.7 740.2 57.4 740.2 57.4 C 740.2 58.1 740.8 58.5 741.5 58.5 C 741.6 58.5 741.8 58.5 742 58.4 C 742 58.4 742 61.2 742 61.2 C 741.4 61.6 739.6 62.3 738.2 62.3 Z M 734.7 51.9 C 734.2 52.2 733.6 52.4 733 52.6 C 731 53.1 730.6 53.8 730.6 55.6 C 730.6 57.4 731 58.4 732.3 58.4 C 733.6 58.4 734.7 57.9 734.7 53.9 C 734.7 53.9 734.7 51.9 734.7 51.9 Z " stroke="none" fill="#000"/>
  </g>
  <g id="Polygon14052">
    <path d="M 9.7 17.3 C 9.66 17.29 7.4 17.3 7.4 17.3 L 7.4 26.9 L 1.6 26.9 L 1.6 0 C 1.6 0 8.86 0 8.9 0 C 13.6 0 16.7 2 16.7 9 C 16.7 15.6 14.1 17.3 9.7 17.3 Z M 8.5 4.7 C 8.54 4.65 7.4 4.7 7.4 4.7 L 7.4 12.5 C 7.4 12.5 8.57 12.53 8.6 12.5 C 10.1 12.5 10.8 11.4 10.8 8.7 C 10.8 5.5 10.2 4.7 8.5 4.7 Z M 31.8 27.3 C 29 27.3 28.6 26.2 28.2 24.7 C 28.2 24.7 27.9 25.3 27.9 25.3 C 27.5 26.2 26.1 27.3 23.9 27.3 C 20 27.3 18.6 24.3 18.6 21.2 C 18.6 17.9 20.1 15.9 23.6 15.2 C 23.6 15.2 25.7 14.7 25.7 14.7 C 27.8 14.3 28.2 13.8 28.2 12.1 C 28.2 10.2 27.5 9.5 26 9.5 C 24.7 9.5 23.7 10.3 23.7 11.5 C 23.7 12.2 23.8 12.7 23.9 13.3 C 23.9 13.3 19.3 13.4 19.3 13.4 C 19.1 12.6 19 12.2 19 11.2 C 19 7.6 22.2 6.2 26.1 6.2 C 31.7 6.2 33.7 8 33.7 10.7 C 33.7 10.7 33.7 22.4 33.7 22.4 C 33.7 23.1 34.3 23.5 35 23.5 C 35.2 23.5 35.3 23.5 35.5 23.4 C 35.5 23.4 35.5 26.2 35.5 26.2 C 35 26.6 33.2 27.3 31.8 27.3 Z M 28.2 16.9 C 27.8 17.2 27.1 17.4 26.6 17.6 C 24.6 18.1 24.1 18.8 24.1 20.6 C 24.1 22.4 24.5 23.4 25.9 23.4 C 27.2 23.4 28.2 22.9 28.2 18.9 C 28.2 18.9 28.2 16.9 28.2 16.9 Z M 44.4 33.5 C 40.6 33.5 37 32.4 37 29.1 C 37 27.9 37.6 27.2 38.8 26.6 C 38.81 26.6 39.7 26.1 39.7 26.1 C 39.7 26.1 39.06 25.76 39.1 25.8 C 37.7 25 37.3 23.9 37.3 22.4 C 37.3 20.6 38.5 19.5 39.7 18.7 C 39.69 18.65 40.3 18.2 40.3 18.2 C 40.3 18.2 39.72 17.71 39.7 17.7 C 38.6 16.8 37.8 14.8 37.8 13.1 C 37.8 8.7 40.1 6.2 44.5 6.2 C 45.9 6.2 46.6 6.3 47.3 6.6 C 47.32 6.61 47.8 3 47.8 3 L 52.3 3 C 52.3 3 49.24 7.59 49.2 7.6 C 50.6 8.7 51.7 10.4 51.7 13.1 C 51.7 16.9 49.3 19.4 45.4 19.4 C 44.6 19.4 43.5 19.4 42.8 19.2 C 42.2 19.5 41.6 19.7 41.6 20.5 C 41.6 21.5 42.5 21.5 43.3 21.5 C 43.3 21.5 46.7 21.4 46.7 21.4 C 50.5 21.4 52.7 23.3 52.7 27.2 C 52.7 31.5 50.3 33.5 44.4 33.5 Z M 44.6 9.1 C 43.4 9.1 42.8 9.7 42.8 12.6 C 42.8 15.6 43.4 16.1 44.6 16.1 C 45.8 16.1 46.5 15.6 46.5 12.6 C 46.5 9.7 45.8 9.1 44.6 9.1 Z M 44.7 26.5 C 44.7 26.5 42.2 26.5 42.2 26.5 C 41.7 26.9 41.2 27.6 41.2 28.3 C 41.2 29.6 42.6 30.3 44.5 30.3 C 47.4 30.3 47.8 29.6 47.8 28.3 C 47.8 27.2 47 26.5 44.7 26.5 Z M 61.3 27.2 C 56.4 27.2 54.3 25.4 54.3 22.2 C 54.3 21.3 54.5 20.4 54.7 19.7 C 54.7 19.7 59 19.9 59 19.9 C 58.9 20.4 58.8 20.8 58.8 21.2 C 58.8 22.7 59.5 23.6 60.9 23.6 C 62.6 23.6 63 22.2 63 21.5 C 63 20.4 62.4 19.8 60.9 19.1 C 60.9 19.1 58.7 18.1 58.7 18.1 C 57 17.3 54.4 15.8 54.4 12.1 C 54.4 8.3 57.6 6.2 61.5 6.2 C 65.1 6.2 68 7.7 68 11.1 C 68 11.9 67.9 12.4 67.7 12.9 C 67.7 12.9 63.5 12.9 63.5 12.9 C 63.7 12.5 63.7 12.1 63.7 11.5 C 63.7 10.4 63 9.8 61.8 9.8 C 60.6 9.8 60.1 10.5 60.1 11.5 C 60.1 12.7 60.9 13.2 62.3 13.8 C 62.3 13.8 65 15 65 15 C 67.2 16 69 17.3 69 20.8 C 69 25.1 67 27.2 61.3 27.2 Z M 84.3 27.3 C 81.5 27.3 81.2 26.2 80.8 24.7 C 80.8 24.7 80.5 25.3 80.5 25.3 C 80 26.2 78.6 27.3 76.4 27.3 C 72.5 27.3 71.1 24.3 71.1 21.2 C 71.1 17.9 72.7 15.9 76.1 15.2 C 76.1 15.2 78.2 14.7 78.2 14.7 C 80.4 14.3 80.8 13.8 80.8 12.1 C 80.8 10.2 80 9.5 78.6 9.5 C 77.2 9.5 76.2 10.3 76.2 11.5 C 76.2 12.2 76.3 12.7 76.5 13.3 C 76.5 13.3 71.9 13.4 71.9 13.4 C 71.7 12.6 71.6 12.2 71.6 11.2 C 71.6 7.6 74.8 6.2 78.6 6.2 C 84.2 6.2 86.2 8 86.2 10.7 C 86.2 10.7 86.2 22.4 86.2 22.4 C 86.2 23.1 86.8 23.5 87.5 23.5 C 87.7 23.5 87.8 23.5 88 23.4 C 88 23.4 88 26.2 88 26.2 C 87.5 26.6 85.7 27.3 84.3 27.3 Z M 80.8 16.9 C 80.3 17.2 79.6 17.4 79.1 17.6 C 77.1 18.1 76.6 18.8 76.6 20.6 C 76.6 22.4 77.1 23.4 78.4 23.4 C 79.7 23.4 80.8 22.9 80.8 18.9 C 80.8 18.9 80.8 16.9 80.8 16.9 Z M 97.1 27.2 C 92.1 27.2 90.1 25.4 90.1 22.2 C 90.1 21.3 90.2 20.4 90.5 19.7 C 90.5 19.7 94.7 19.9 94.7 19.9 C 94.6 20.4 94.6 20.8 94.6 21.2 C 94.6 22.7 95.2 23.6 96.7 23.6 C 98.3 23.6 98.7 22.2 98.7 21.5 C 98.7 20.4 98.1 19.8 96.6 19.1 C 96.6 19.1 94.5 18.1 94.5 18.1 C 92.7 17.3 90.1 15.8 90.1 12.1 C 90.1 8.3 93.4 6.2 97.2 6.2 C 100.9 6.2 103.7 7.7 103.7 11.1 C 103.7 11.9 103.6 12.4 103.4 12.9 C 103.4 12.9 99.3 12.9 99.3 12.9 C 99.4 12.5 99.4 12.1 99.4 11.5 C 99.4 10.4 98.7 9.8 97.5 9.8 C 96.4 9.8 95.8 10.5 95.8 11.5 C 95.8 12.7 96.6 13.2 98 13.8 C 98 13.8 100.7 15 100.7 15 C 103 16 104.7 17.3 104.7 20.8 C 104.7 25.1 102.7 27.2 97.1 27.2 Z M 120 27.3 C 117.2 27.3 116.9 26.2 116.5 24.7 C 116.5 24.7 116.2 25.3 116.2 25.3 C 115.7 26.2 114.4 27.3 112.1 27.3 C 108.3 27.3 106.9 24.3 106.9 21.2 C 106.9 17.9 108.4 15.9 111.9 15.2 C 111.9 15.2 114 14.7 114 14.7 C 116.1 14.3 116.5 13.8 116.5 12.1 C 116.5 10.2 115.7 9.5 114.3 9.5 C 113 9.5 111.9 10.3 111.9 11.5 C 111.9 12.2 112 12.7 112.2 13.3 C 112.2 13.3 107.6 13.4 107.6 13.4 C 107.4 12.6 107.3 12.2 107.3 11.2 C 107.3 7.6 110.5 6.2 114.4 6.2 C 120 6.2 122 8 122 10.7 C 122 10.7 122 22.4 122 22.4 C 122 23.1 122.6 23.5 123.3 23.5 C 123.4 23.5 123.6 23.5 123.8 23.4 C 123.8 23.4 123.8 26.2 123.8 26.2 C 123.2 26.6 121.4 27.3 120 27.3 Z M 116.5 16.9 C 116 17.2 115.4 17.4 114.8 17.6 C 112.8 18.1 112.4 18.8 112.4 20.6 C 112.4 22.4 112.8 23.4 114.1 23.4 C 115.4 23.4 116.5 22.9 116.5 18.9 C 116.5 18.9 116.5 16.9 116.5 16.9 Z M 132.7 33.5 C 128.8 33.5 125.2 32.4 125.2 29.1 C 125.2 27.9 125.9 27.2 127.1 26.6 C 127.08 26.6 128 26.1 128 26.1 C 128 26.1 127.33 25.76 127.3 25.8 C 126 25 125.5 23.9 125.5 22.4 C 125.5 20.6 126.8 19.5 128 18.7 C 127.96 18.65 128.6 18.2 128.6 18.2 C 128.6 18.2 127.99 17.71 128 17.7 C 126.9 16.8 126 14.8 126 13.1 C 126 8.7 128.3 6.2 132.8 6.2 C 134.2 6.2 134.9 6.3 135.6 6.6 C 135.59 6.61 136.1 3 136.1 3 L 140.6 3 C 140.6 3 137.51 7.59 137.5 7.6 C 138.8 8.7 140 10.4 140 13.1 C 140 16.9 137.6 19.4 133.7 19.4 C 132.9 19.4 131.7 19.4 131.1 19.2 C 130.5 19.5 129.9 19.7 129.9 20.5 C 129.9 21.5 130.8 21.5 131.6 21.5 C 131.6 21.5 134.9 21.4 134.9 21.4 C 138.7 21.4 141 23.3 141 27.2 C 141 31.5 138.6 33.5 132.7 33.5 Z M 132.9 9.1 C 131.7 9.1 131.1 9.7 131.1 12.6 C 131.1 15.6 131.7 16.1 132.9 16.1 C 134.1 16.1 134.7 15.6 134.7 12.6 C 134.7 9.7 134.1 9.1 132.9 9.1 Z M 132.9 26.5 C 132.9 26.5 130.5 26.5 130.5 26.5 C 130 26.9 129.5 27.6 129.5 28.3 C 129.5 29.6 130.9 30.3 132.8 30.3 C 135.7 30.3 136.1 29.6 136.1 28.3 C 136.1 27.2 135.2 26.5 132.9 26.5 Z M 155.9 27.3 C 153.1 27.3 152.7 26.2 152.3 24.7 C 152.3 24.7 152 25.3 152 25.3 C 151.5 26.2 150.2 27.3 147.9 27.3 C 144.1 27.3 142.7 24.3 142.7 21.2 C 142.7 17.9 144.2 15.9 147.7 15.2 C 147.7 15.2 149.8 14.7 149.8 14.7 C 151.9 14.3 152.3 13.8 152.3 12.1 C 152.3 10.2 151.5 9.5 150.1 9.5 C 148.8 9.5 147.7 10.3 147.7 11.5 C 147.7 12.2 147.8 12.7 148 13.3 C 148 13.3 143.4 13.4 143.4 13.4 C 143.2 12.6 143.1 12.2 143.1 11.2 C 143.1 7.6 146.3 6.2 150.2 6.2 C 155.8 6.2 157.8 8 157.8 10.7 C 157.8 10.7 157.8 22.4 157.8 22.4 C 157.8 23.1 158.4 23.5 159.1 23.5 C 159.2 23.5 159.4 23.5 159.6 23.4 C 159.6 23.4 159.6 26.2 159.6 26.2 C 159 26.6 157.3 27.3 155.9 27.3 Z M 152.3 16.9 C 151.8 17.2 151.2 17.4 150.6 17.6 C 148.6 18.1 148.2 18.8 148.2 20.6 C 148.2 22.4 148.6 23.4 149.9 23.4 C 151.2 23.4 152.3 22.9 152.3 18.9 C 152.3 18.9 152.3 16.9 152.3 16.9 Z M 178.5 26.9 L 173.9 26.9 L 172 15.4 L 170.2 26.9 L 165.7 26.9 L 160.4 6.8 L 166.1 6.8 L 168 15.9 L 169.6 6.8 L 174.7 6.8 L 176.5 15.9 L 178.2 6.8 L 183.7 6.8 L 178.5 26.9 Z M 198.6 27.3 C 195.8 27.3 195.5 26.2 195.1 24.7 C 195.1 24.7 194.8 25.3 194.8 25.3 C 194.3 26.2 193 27.3 190.7 27.3 C 186.8 27.3 185.4 24.3 185.4 21.2 C 185.4 17.9 187 15.9 190.4 15.2 C 190.4 15.2 192.5 14.7 192.5 14.7 C 194.7 14.3 195.1 13.8 195.1 12.1 C 195.1 10.2 194.3 9.5 192.9 9.5 C 191.6 9.5 190.5 10.3 190.5 11.5 C 190.5 12.2 190.6 12.7 190.8 13.3 C 190.8 13.3 186.2 13.4 186.2 13.4 C 186 12.6 185.9 12.2 185.9 11.2 C 185.9 7.6 189.1 6.2 193 6.2 C 198.6 6.2 200.5 8 200.5 10.7 C 200.5 10.7 200.5 22.4 200.5 22.4 C 200.5 23.1 201.1 23.5 201.8 23.5 C 202 23.5 202.2 23.5 202.3 23.4 C 202.3 23.4 202.3 26.2 202.3 26.2 C 201.8 26.6 200 27.3 198.6 27.3 Z M 195.1 16.9 C 194.6 17.2 193.9 17.4 193.4 17.6 C 191.4 18.1 191 18.8 191 20.6 C 191 22.4 191.4 23.4 192.7 23.4 C 194 23.4 195.1 22.9 195.1 18.9 C 195.1 18.9 195.1 16.9 195.1 16.9 Z M 224 26.9 C 224 26.9 223.96 12.67 224 12.7 C 224 11.8 223.6 11.2 222.7 11.2 C 221.4 11.2 220.5 12.8 220.5 15.4 C 220.53 15.43 220.5 26.9 220.5 26.9 L 215 26.9 L 215 6.8 L 220.5 6.8 C 220.5 6.8 220.5 10.04 220.5 10 C 221.1 7.8 222.7 6.4 225.1 6.4 C 227.4 6.4 229.5 7.9 229.5 11.1 C 229.49 11.13 229.5 26.9 229.5 26.9 L 224 26.9 Z M 239.3 33.5 C 235.4 33.5 231.8 32.4 231.8 29.1 C 231.8 27.9 232.5 27.2 233.7 26.6 C 233.69 26.6 234.6 26.1 234.6 26.1 C 234.6 26.1 233.94 25.76 233.9 25.8 C 232.6 25 232.2 23.9 232.2 22.4 C 232.2 20.6 233.4 19.5 234.6 18.7 C 234.57 18.65 235.2 18.2 235.2 18.2 C 235.2 18.2 234.6 17.71 234.6 17.7 C 233.5 16.8 232.6 14.8 232.6 13.1 C 232.6 8.7 235 6.2 239.4 6.2 C 240.8 6.2 241.5 6.3 242.2 6.6 C 242.2 6.61 242.7 3 242.7 3 L 247.2 3 C 247.2 3 244.12 7.59 244.1 7.6 C 245.5 8.7 246.6 10.4 246.6 13.1 C 246.6 16.9 244.2 19.4 240.3 19.4 C 239.5 19.4 238.3 19.4 237.7 19.2 C 237.1 19.5 236.5 19.7 236.5 20.5 C 236.5 21.5 237.4 21.5 238.2 21.5 C 238.2 21.5 241.5 21.4 241.5 21.4 C 245.3 21.4 247.6 23.3 247.6 27.2 C 247.6 31.5 245.2 33.5 239.3 33.5 Z M 239.5 9.1 C 238.3 9.1 237.7 9.7 237.7 12.6 C 237.7 15.6 238.3 16.1 239.5 16.1 C 240.7 16.1 241.4 15.6 241.4 12.6 C 241.4 9.7 240.7 9.1 239.5 9.1 Z M 239.5 26.5 C 239.5 26.5 237.1 26.5 237.1 26.5 C 236.6 26.9 236.1 27.6 236.1 28.3 C 236.1 29.6 237.5 30.3 239.4 30.3 C 242.3 30.3 242.7 29.6 242.7 28.3 C 242.7 27.2 241.8 26.5 239.5 26.5 Z M 268.9 26.9 L 266.7 20.1 L 265.4 22.5 L 265.4 26.9 L 259.8 26.9 L 259.8 0 L 265.4 0 L 265.4 14.6 L 269.3 6.8 L 275 6.8 L 270.7 14.6 L 275.2 26.9 L 268.9 26.9 Z M 277.9 26.9 L 277.9 0 L 283.4 0 L 283.4 26.9 L 277.9 26.9 Z M 299.7 27.3 C 296.9 27.3 296.5 26.2 296.1 24.7 C 296.1 24.7 295.8 25.3 295.8 25.3 C 295.4 26.2 294 27.3 291.8 27.3 C 287.9 27.3 286.5 24.3 286.5 21.2 C 286.5 17.9 288 15.9 291.5 15.2 C 291.5 15.2 293.6 14.7 293.6 14.7 C 295.7 14.3 296.1 13.8 296.1 12.1 C 296.1 10.2 295.4 9.5 293.9 9.5 C 292.6 9.5 291.5 10.3 291.5 11.5 C 291.5 12.2 291.7 12.7 291.8 13.3 C 291.8 13.3 287.2 13.4 287.2 13.4 C 287 12.6 286.9 12.2 286.9 11.2 C 286.9 7.6 290.1 6.2 294 6.2 C 299.6 6.2 301.6 8 301.6 10.7 C 301.6 10.7 301.6 22.4 301.6 22.4 C 301.6 23.1 302.2 23.5 302.9 23.5 C 303.1 23.5 303.2 23.5 303.4 23.4 C 303.4 23.4 303.4 26.2 303.4 26.2 C 302.9 26.6 301.1 27.3 299.7 27.3 Z M 296.1 16.9 C 295.6 17.2 295 17.4 294.5 17.6 C 292.5 18.1 292 18.8 292 20.6 C 292 22.4 292.4 23.4 293.8 23.4 C 295 23.4 296.1 22.9 296.1 18.9 C 296.1 18.9 296.1 16.9 296.1 16.9 Z M 312.4 27.2 C 307.5 27.2 305.4 25.4 305.4 22.2 C 305.4 21.3 305.6 20.4 305.8 19.7 C 305.8 19.7 310.1 19.9 310.1 19.9 C 310 20.4 309.9 20.8 309.9 21.2 C 309.9 22.7 310.5 23.6 312 23.6 C 313.7 23.6 314 22.2 314 21.5 C 314 20.4 313.5 19.8 312 19.1 C 312 19.1 309.8 18.1 309.8 18.1 C 308.1 17.3 305.5 15.8 305.5 12.1 C 305.5 8.3 308.7 6.2 312.5 6.2 C 316.2 6.2 319.1 7.7 319.1 11.1 C 319.1 11.9 319 12.4 318.8 12.9 C 318.8 12.9 314.6 12.9 314.6 12.9 C 314.7 12.5 314.8 12.1 314.8 11.5 C 314.8 10.4 314 9.8 312.9 9.8 C 311.7 9.8 311.1 10.5 311.1 11.5 C 311.1 12.7 312 13.2 313.3 13.8 C 313.3 13.8 316 15 316 15 C 318.3 16 320.1 17.3 320.1 20.8 C 320.1 25.1 318.1 27.2 312.4 27.2 Z M 327.8 17.9 C 327.7 22.4 328.5 23 330.1 23 C 331.6 23 332.1 21.9 332 20.2 C 332 20.23 331.9 19.4 331.9 19.4 C 331.9 19.4 336.73 19.56 336.7 19.6 C 336.8 19.9 336.8 20.5 336.8 21.1 C 336.8 24.5 335.1 27.3 330.2 27.3 C 325.4 27.3 322.2 25.5 322.2 17.1 C 322.2 9.4 324.9 6.2 329.7 6.2 C 334.1 6.2 336.1 9.1 336.6 14.1 C 336.8 15.5 336.8 16.8 336.9 18 C 336.9 18 327.8 17.9 327.8 17.9 Z M 329.7 10.2 C 328.3 10.2 327.9 11.9 327.8 15.1 C 327.8 15.1 331.5 15.1 331.5 15.1 C 331.3 11.2 331.2 10.2 329.7 10.2 Z M 349 26.9 C 349 26.9 349.01 12.67 349 12.7 C 349 11.8 348.7 11.2 347.7 11.2 C 346.4 11.2 345.6 12.8 345.6 15.4 C 345.58 15.43 345.6 26.9 345.6 26.9 L 340.1 26.9 L 340.1 6.8 L 345.5 6.8 C 345.5 6.8 345.55 10.04 345.5 10 C 346.2 7.8 347.8 6.4 350.1 6.4 C 352.4 6.4 354.5 7.9 354.5 11.1 C 354.54 11.13 354.5 26.9 354.5 26.9 L 349 26.9 Z M 364.3 33.5 C 360.5 33.5 356.9 32.4 356.9 29.1 C 356.9 27.9 357.5 27.2 358.7 26.6 C 358.74 26.6 359.7 26.1 359.7 26.1 C 359.7 26.1 358.99 25.76 359 25.8 C 357.6 25 357.2 23.9 357.2 22.4 C 357.2 20.6 358.4 19.5 359.6 18.7 C 359.62 18.65 360.2 18.2 360.2 18.2 C 360.2 18.2 359.65 17.71 359.7 17.7 C 358.6 16.8 357.7 14.8 357.7 13.1 C 357.7 8.7 360 6.2 364.4 6.2 C 365.8 6.2 366.5 6.3 367.2 6.6 C 367.25 6.61 367.8 3 367.8 3 L 372.3 3 C 372.3 3 369.17 7.59 369.2 7.6 C 370.5 8.7 371.6 10.4 371.6 13.1 C 371.6 16.9 369.2 19.4 365.4 19.4 C 364.5 19.4 363.4 19.4 362.7 19.2 C 362.2 19.5 361.5 19.7 361.5 20.5 C 361.5 21.5 362.5 21.5 363.3 21.5 C 363.3 21.5 366.6 21.4 366.6 21.4 C 370.4 21.4 372.7 23.3 372.7 27.2 C 372.7 31.5 370.3 33.5 364.3 33.5 Z M 364.6 9.1 C 363.3 9.1 362.7 9.7 362.7 12.6 C 362.7 15.6 363.3 16.1 364.6 16.1 C 365.8 16.1 366.4 15.6 366.4 12.6 C 366.4 9.7 365.8 9.1 364.6 9.1 Z M 364.6 26.5 C 364.6 26.5 362.1 26.5 362.1 26.5 C 361.6 26.9 361.2 27.6 361.2 28.3 C 361.2 29.6 362.6 30.3 364.4 30.3 C 367.3 30.3 367.7 29.6 367.7 28.3 C 367.7 27.2 366.9 26.5 364.6 26.5 Z M 394.3 27.2 C 392.8 27.2 391.5 26.2 391 25.4 C 391.05 25.37 390.4 24.3 390.4 24.3 L 390.4 31.9 L 384.9 31.9 L 384.9 6.8 L 390.4 6.8 L 390.4 9 C 390.4 9 390.87 8.29 390.9 8.3 C 391.5 7.3 392.6 6.3 394.1 6.3 C 397.2 6.3 399.9 8.3 399.9 17.4 C 399.9 24.2 398.5 27.2 394.3 27.2 Z M 392.4 10.7 C 391.2 10.7 390.4 11.7 390.4 16.8 C 390.4 21.6 391 22.6 392.5 22.6 C 393.6 22.6 394.3 20.7 394.3 16.8 C 394.3 12.1 393.4 10.7 392.4 10.7 Z M 415.6 27.3 C 412.8 27.3 412.4 26.2 412 24.7 C 412 24.7 411.7 25.3 411.7 25.3 C 411.3 26.2 409.9 27.3 407.7 27.3 C 403.8 27.3 402.4 24.3 402.4 21.2 C 402.4 17.9 403.9 15.9 407.4 15.2 C 407.4 15.2 409.5 14.7 409.5 14.7 C 411.6 14.3 412 13.8 412 12.1 C 412 10.2 411.3 9.5 409.8 9.5 C 408.5 9.5 407.5 10.3 407.5 11.5 C 407.5 12.2 407.6 12.7 407.7 13.3 C 407.7 13.3 403.1 13.4 403.1 13.4 C 402.9 12.6 402.8 12.2 402.8 11.2 C 402.8 7.6 406 6.2 409.9 6.2 C 415.5 6.2 417.5 8 417.5 10.7 C 417.5 10.7 417.5 22.4 417.5 22.4 C 417.5 23.1 418.1 23.5 418.8 23.5 C 419 23.5 419.1 23.5 419.3 23.4 C 419.3 23.4 419.3 26.2 419.3 26.2 C 418.8 26.6 417 27.3 415.6 27.3 Z M 412 16.9 C 411.6 17.2 410.9 17.4 410.4 17.6 C 408.4 18.1 407.9 18.8 407.9 20.6 C 407.9 22.4 408.3 23.4 409.7 23.4 C 411 23.4 412 22.9 412 18.9 C 412 18.9 412 16.9 412 16.9 Z M 431 26.9 C 431 26.9 430.98 12.67 431 12.7 C 431 11.8 430.6 11.2 429.7 11.2 C 428.4 11.2 427.6 12.8 427.6 15.4 C 427.55 15.43 427.6 26.9 427.6 26.9 L 422 26.9 L 422 6.8 L 427.5 6.8 C 427.5 6.8 427.52 10.04 427.5 10 C 428.1 7.8 429.8 6.4 432.1 6.4 C 434.4 6.4 436.5 7.9 436.5 11.1 C 436.51 11.13 436.5 26.9 436.5 26.9 L 431 26.9 Z M 446.3 33.5 C 442.5 33.5 438.9 32.4 438.9 29.1 C 438.9 27.9 439.5 27.2 440.7 26.6 C 440.71 26.6 441.6 26.1 441.6 26.1 C 441.6 26.1 440.96 25.76 441 25.8 C 439.6 25 439.2 23.9 439.2 22.4 C 439.2 20.6 440.4 19.5 441.6 18.7 C 441.59 18.65 442.2 18.2 442.2 18.2 C 442.2 18.2 441.62 17.71 441.6 17.7 C 440.5 16.8 439.7 14.8 439.7 13.1 C 439.7 8.7 442 6.2 446.4 6.2 C 447.8 6.2 448.5 6.3 449.2 6.6 C 449.22 6.61 449.7 3 449.7 3 L 454.2 3 C 454.2 3 451.14 7.59 451.1 7.6 C 452.5 8.7 453.6 10.4 453.6 13.1 C 453.6 16.9 451.2 19.4 447.3 19.4 C 446.5 19.4 445.4 19.4 444.7 19.2 C 444.1 19.5 443.5 19.7 443.5 20.5 C 443.5 21.5 444.4 21.5 445.2 21.5 C 445.2 21.5 448.6 21.4 448.6 21.4 C 452.4 21.4 454.6 23.3 454.6 27.2 C 454.6 31.5 452.2 33.5 446.3 33.5 Z M 446.5 9.1 C 445.3 9.1 444.7 9.7 444.7 12.6 C 444.7 15.6 445.3 16.1 446.5 16.1 C 447.7 16.1 448.4 15.6 448.4 12.6 C 448.4 9.7 447.7 9.1 446.5 9.1 Z M 446.6 26.5 C 446.6 26.5 444.1 26.5 444.1 26.5 C 443.6 26.9 443.1 27.6 443.1 28.3 C 443.1 29.6 444.5 30.3 446.4 30.3 C 449.3 30.3 449.7 29.6 449.7 28.3 C 449.7 27.2 448.9 26.5 446.6 26.5 Z M 456.8 17.2 L 456.8 13.1 L 469.3 13.1 L 469.3 17.2 L 456.8 17.2 Z M 472.9 26.9 L 472.9 0 L 478.5 0 L 478.5 26.9 L 472.9 26.9 Z M 494.8 27.3 C 492 27.3 491.6 26.2 491.2 24.7 C 491.2 24.7 490.9 25.3 490.9 25.3 C 490.4 26.2 489.1 27.3 486.8 27.3 C 483 27.3 481.6 24.3 481.6 21.2 C 481.6 17.9 483.1 15.9 486.6 15.2 C 486.6 15.2 488.7 14.7 488.7 14.7 C 490.8 14.3 491.2 13.8 491.2 12.1 C 491.2 10.2 490.4 9.5 489 9.5 C 487.7 9.5 486.6 10.3 486.6 11.5 C 486.6 12.2 486.7 12.7 486.9 13.3 C 486.9 13.3 482.3 13.4 482.3 13.4 C 482.1 12.6 482 12.2 482 11.2 C 482 7.6 485.2 6.2 489.1 6.2 C 494.7 6.2 496.7 8 496.7 10.7 C 496.7 10.7 496.7 22.4 496.7 22.4 C 496.7 23.1 497.3 23.5 498 23.5 C 498.1 23.5 498.3 23.5 498.5 23.4 C 498.5 23.4 498.5 26.2 498.5 26.2 C 497.9 26.6 496.2 27.3 494.8 27.3 Z M 491.2 16.9 C 490.7 17.2 490.1 17.4 489.5 17.6 C 487.5 18.1 487.1 18.8 487.1 20.6 C 487.1 22.4 487.5 23.4 488.8 23.4 C 490.1 23.4 491.2 22.9 491.2 18.9 C 491.2 18.9 491.2 16.9 491.2 16.9 Z M 509.4 27.2 C 506.7 27.2 505.6 25.4 504.9 24 C 504.9 24.01 503.7 26.9 503.7 26.9 L 501.2 26.9 L 501.2 0 L 506.7 0 C 506.7 0 506.72 8.78 506.7 8.8 C 507.3 7.7 508.2 6.4 510.4 6.4 C 513.6 6.4 516.2 8.8 516.2 16.4 C 516.2 24.3 514.3 27.2 509.4 27.2 Z M 510.3 12.4 C 510 11.2 509.6 10.9 508.8 10.9 C 507.4 10.9 506.7 12.6 506.7 16.9 C 506.7 21.7 507.4 23 508.6 23 C 509.9 23 510.6 22 510.6 16.9 C 510.6 14.8 510.5 13.5 510.3 12.4 Z M 526.2 27.2 C 520.6 27.2 518.6 24.2 518.6 17.1 C 518.6 9.6 521.1 6.2 525.9 6.2 C 531.7 6.2 533.4 9.8 533.4 16.7 C 533.4 23.5 532.1 27.2 526.2 27.2 Z M 526 10.3 C 524.5 10.3 524.3 11.6 524.3 17 C 524.3 22.2 524.8 22.7 526 22.7 C 527.3 22.7 527.7 22.1 527.7 17 C 527.7 11.6 527.4 10.3 526 10.3 Z M 549.9 15.7 C 549.9 15.7 545.2 16.6 545.2 16.6 C 545.3 15.9 545.4 15.1 545.4 14 C 545.4 12.2 544.8 11.5 543.9 11.5 C 542.4 11.5 542 14 542 16.8 C 542.04 16.8 542 26.9 542 26.9 L 536.5 26.9 L 536.5 6.8 L 541.9 6.8 C 541.9 6.8 542 9.2 542 10.4 C 542 10.4 542.2 9.7 542.2 9.7 C 542.8 8 544.1 6.4 546 6.4 C 548.9 6.4 550.2 8 550.2 11.6 C 550.2 13.4 550.1 14.8 549.9 15.7 Z M 565.2 27.3 C 562.4 27.3 562 26.2 561.6 24.7 C 561.6 24.7 561.3 25.3 561.3 25.3 C 560.9 26.2 559.5 27.3 557.3 27.3 C 553.4 27.3 552 24.3 552 21.2 C 552 17.9 553.5 15.9 557 15.2 C 557 15.2 559.1 14.7 559.1 14.7 C 561.2 14.3 561.6 13.8 561.6 12.1 C 561.6 10.2 560.9 9.5 559.4 9.5 C 558.1 9.5 557.1 10.3 557.1 11.5 C 557.1 12.2 557.2 12.7 557.3 13.3 C 557.3 13.3 552.7 13.4 552.7 13.4 C 552.5 12.6 552.4 12.2 552.4 11.2 C 552.4 7.6 555.6 6.2 559.5 6.2 C 565.1 6.2 567.1 8 567.1 10.7 C 567.1 10.7 567.1 22.4 567.1 22.4 C 567.1 23.1 567.7 23.5 568.4 23.5 C 568.6 23.5 568.7 23.5 568.9 23.4 C 568.9 23.4 568.9 26.2 568.9 26.2 C 568.4 26.6 566.6 27.3 565.2 27.3 Z M 561.6 16.9 C 561.1 17.2 560.5 17.4 560 17.6 C 558 18.1 557.5 18.8 557.5 20.6 C 557.5 22.4 557.9 23.4 559.3 23.4 C 560.6 23.4 561.6 22.9 561.6 18.9 C 561.6 18.9 561.6 16.9 561.6 16.9 Z M 577.9 27.2 C 575 27.2 573.2 26.1 573.2 23 C 573.19 22.96 573.3 10.6 573.3 10.6 L 570.3 10.6 L 570.3 6.8 L 573.3 6.8 L 573.5 1.3 L 578.7 1.3 L 578.7 6.8 L 582.9 6.8 L 582.9 10.6 L 578.7 10.6 C 578.7 10.6 578.72 20.72 578.7 20.7 C 578.7 22.3 580.1 22.5 581.2 22.5 C 582.1 22.5 582.7 22.3 583.2 22 C 583.2 22 583.2 26 583.2 26 C 582.5 26.5 580 27.2 577.9 27.2 Z M 593.3 27.2 C 587.7 27.2 585.7 24.2 585.7 17.1 C 585.7 9.6 588.1 6.2 593 6.2 C 598.8 6.2 600.5 9.8 600.5 16.7 C 600.5 23.5 599.1 27.2 593.3 27.2 Z M 593.1 10.3 C 591.6 10.3 591.4 11.6 591.4 17 C 591.4 22.2 591.9 22.7 593.1 22.7 C 594.3 22.7 594.8 22.1 594.8 17 C 594.8 11.6 594.5 10.3 593.1 10.3 Z M 617 15.7 C 617 15.7 612.2 16.6 612.2 16.6 C 612.4 15.9 612.4 15.1 612.4 14 C 612.4 12.2 611.9 11.5 611 11.5 C 609.5 11.5 609.1 14 609.1 16.8 C 609.1 16.8 609.1 26.9 609.1 26.9 L 603.6 26.9 L 603.6 6.8 L 609 6.8 C 609 6.8 609.06 9.2 609.1 10.4 C 609.1 10.4 609.3 9.7 609.3 9.7 C 609.9 8 611.2 6.4 613.1 6.4 C 615.9 6.4 617.3 8 617.3 11.6 C 617.3 13.4 617.1 14.8 617 15.7 Z M 630.1 27.1 C 629.2 30.3 628.5 33.2 623.9 33.2 C 620 33.2 619 31.5 619 28.9 C 619 28.4 619.1 28 619.1 27.5 C 619.1 27.5 622.6 27.5 622.6 27.5 C 622.5 27.9 622.5 28.4 622.5 28.9 C 622.5 29.6 622.9 30 623.8 30 C 625.1 30 625.4 29 625.4 27.4 C 625.4 26.8 625.2 26.1 625 25.3 C 624.99 25.34 618.9 6.8 618.9 6.8 L 625 6.8 L 627.8 18.6 L 630.1 6.8 L 635.4 6.8 C 635.4 6.8 630.1 27.05 630.1 27.1 Z M 644.4 27.2 C 638.8 27.2 636.8 24.2 636.8 17.1 C 636.8 9.6 639.2 6.2 644.1 6.2 C 649.9 6.2 651.6 9.8 651.6 16.7 C 651.6 23.5 650.2 27.2 644.4 27.2 Z M 644.2 10.3 C 642.7 10.3 642.5 11.6 642.5 17 C 642.5 22.2 643 22.7 644.2 22.7 C 645.4 22.7 645.9 22.1 645.9 17 C 645.9 11.6 645.6 10.3 644.2 10.3 Z M 670.9 27.2 C 666 27.2 663.9 25.4 663.9 22.2 C 663.9 21.3 664.1 20.4 664.3 19.7 C 664.3 19.7 668.6 19.9 668.6 19.9 C 668.5 20.4 668.4 20.8 668.4 21.2 C 668.4 22.7 669 23.6 670.5 23.6 C 672.2 23.6 672.5 22.2 672.5 21.5 C 672.5 20.4 672 19.8 670.5 19.1 C 670.5 19.1 668.3 18.1 668.3 18.1 C 666.6 17.3 664 15.8 664 12.1 C 664 8.3 667.2 6.2 671 6.2 C 674.7 6.2 677.6 7.7 677.6 11.1 C 677.6 11.9 677.5 12.4 677.3 12.9 C 677.3 12.9 673.1 12.9 673.1 12.9 C 673.2 12.5 673.3 12.1 673.3 11.5 C 673.3 10.4 672.5 9.8 671.4 9.8 C 670.2 9.8 669.6 10.5 669.6 11.5 C 669.6 12.7 670.5 13.2 671.8 13.8 C 671.8 13.8 674.5 15 674.5 15 C 676.8 16 678.6 17.3 678.6 20.8 C 678.6 25.1 676.6 27.2 670.9 27.2 Z M 693.9 27.3 C 691.1 27.3 690.7 26.2 690.4 24.7 C 690.4 24.7 690 25.3 690 25.3 C 689.6 26.2 688.2 27.3 686 27.3 C 682.1 27.3 680.7 24.3 680.7 21.2 C 680.7 17.9 682.2 15.9 685.7 15.2 C 685.7 15.2 687.8 14.7 687.8 14.7 C 689.9 14.3 690.4 13.8 690.4 12.1 C 690.4 10.2 689.6 9.5 688.2 9.5 C 686.8 9.5 685.8 10.3 685.8 11.5 C 685.8 12.2 685.9 12.7 686.1 13.3 C 686.1 13.3 681.4 13.4 681.4 13.4 C 681.3 12.6 681.2 12.2 681.2 11.2 C 681.2 7.6 684.3 6.2 688.2 6.2 C 693.8 6.2 695.8 8 695.8 10.7 C 695.8 10.7 695.8 22.4 695.8 22.4 C 695.8 23.1 696.4 23.5 697.1 23.5 C 697.3 23.5 697.4 23.5 697.6 23.4 C 697.6 23.4 697.6 26.2 697.6 26.2 C 697.1 26.6 695.3 27.3 693.9 27.3 Z M 690.4 16.9 C 689.9 17.2 689.2 17.4 688.7 17.6 C 686.7 18.1 686.2 18.8 686.2 20.6 C 686.2 22.4 686.7 23.4 688 23.4 C 689.3 23.4 690.4 22.9 690.4 18.9 C 690.4 18.9 690.4 16.9 690.4 16.9 Z M 710.3 26.9 L 710.3 0 L 715.8 0 L 715.8 26.9 L 710.3 26.9 Z M 726.5 27.2 C 720.9 27.2 718.9 24.2 718.9 17.1 C 718.9 9.6 721.3 6.2 726.2 6.2 C 732 6.2 733.7 9.8 733.7 16.7 C 733.7 23.5 732.3 27.2 726.5 27.2 Z M 726.3 10.3 C 724.8 10.3 724.6 11.6 724.6 17 C 724.6 22.2 725.1 22.7 726.3 22.7 C 727.5 22.7 728 22.1 728 17 C 728 11.6 727.7 10.3 726.3 10.3 Z M 743.7 27.2 C 738.1 27.2 736.1 24.2 736.1 17.1 C 736.1 9.6 738.6 6.2 743.5 6.2 C 749.3 6.2 750.9 9.8 750.9 16.7 C 750.9 23.5 749.6 27.2 743.7 27.2 Z M 743.5 10.3 C 742.1 10.3 741.8 11.6 741.8 17 C 741.8 22.2 742.3 22.7 743.5 22.7 C 744.8 22.7 745.2 22.1 745.2 17 C 745.2 11.6 745 10.3 743.5 10.3 Z M 762.3 27.2 C 759.6 27.2 758.5 25.4 757.7 24 C 757.74 24.01 756.5 26.9 756.5 26.9 L 754 26.9 L 754 0 L 759.6 0 C 759.6 0 759.56 8.78 759.6 8.8 C 760.2 7.7 761 6.4 763.2 6.4 C 766.5 6.4 769 8.8 769 16.4 C 769 24.3 767.2 27.2 762.3 27.2 Z M 763.1 12.4 C 762.8 11.2 762.4 10.9 761.6 10.9 C 760.2 10.9 759.6 12.6 759.6 16.9 C 759.6 21.7 760.3 23 761.4 23 C 762.7 23 763.4 22 763.4 16.9 C 763.4 14.8 763.3 13.5 763.1 12.4 Z " stroke="none" fill="#000"/>
  </g>
</svg>