<?xml version="1.0" standalone="no"?>
<!DOCTYPE svg PUBLIC "-//W3C//DTD SVG 1.1//EN" "http://www.w3.org/Graphics/SVG/1.1/DTD/svg11.dtd">
<svg xmlns="http://www.w3.org/2000/svg" version="1.1" width="792px" height="111px" viewBox="0 -18 792 111" style="top:-18px">
  <desc>BALITA</desc>
  <defs/>
  <g id="Polygon14647">
    <path d="M 268.5 20.7 C 268.5 9.7 268.5 7.7 268.4 5.4 C 268.2 3 267.7 1.8 265.3 1.3 C 264.7 1.2 263.5 1.1 262.5 1.1 C 261.7 1.1 261.3 0.9 261.3 0.4 C 261.3 -0.1 261.8 -0.2 262.8 -0.2 C 266.7 -0.2 271.2 0 272.6 0 C 276.2 0 279 -0.2 281.4 -0.2 C 294.4 -0.2 296.7 6.8 296.7 10.6 C 296.7 16.5 293.4 20 289.4 23.2 C 295.3 25.2 302.5 30.3 302.5 38.7 C 302.5 46.4 296.5 54.4 283.3 54.4 C 282.4 54.4 280.3 54.3 278.2 54.2 C 276.1 54.1 273.9 54 272.8 54 C 272.1 54 270.5 54 268.7 54.1 C 267.1 54.1 265.2 54.2 263.8 54.2 C 262.8 54.2 262.3 54 262.3 53.5 C 262.3 53.1 262.6 52.9 263.5 52.9 C 264.6 52.9 265.4 52.8 266.1 52.6 C 267.5 52.3 267.9 50.8 268.2 48.7 C 268.5 45.6 268.5 40 268.5 33.3 C 268.5 33.3 268.5 20.7 268.5 20.7 Z M 277.2 21.9 C 277.2 22.5 277.4 22.6 277.7 22.7 C 278.3 22.8 279.4 22.9 281.1 22.9 C 283.4 22.9 285 22.6 286.2 21.5 C 288.1 20 289.2 17.4 289.2 13.9 C 289.2 9.1 286.4 2.7 280.2 2.7 C 279.2 2.7 278.5 2.7 277.8 2.9 C 277.3 3 277.2 3.3 277.2 4.1 C 277.2 4.1 277.2 21.9 277.2 21.9 Z M 286.7 27.6 C 285.2 26.6 283.5 26.1 280.7 25.9 C 279.4 25.8 278.7 25.8 277.6 25.8 C 277.3 25.8 277.2 26 277.2 26.4 C 277.2 26.4 277.2 43.4 277.2 43.4 C 277.2 48.2 277.4 49.4 279.7 50.3 C 281.6 51.1 283.3 51.2 284.9 51.2 C 288.2 51.2 293.7 49.5 293.7 42 C 293.7 37.5 292.1 31.5 286.7 27.6 Z M 323.4 35.4 C 323 35.4 322.9 35.6 322.7 36 C 322.7 36 318.9 46.3 318.9 46.3 C 318.1 48.1 317.8 49.8 317.8 50.7 C 317.8 52 318.4 52.9 320.7 52.9 C 320.7 52.9 321.7 52.9 321.7 52.9 C 322.6 52.9 322.8 53.1 322.8 53.5 C 322.8 54.1 322.4 54.2 321.6 54.2 C 319.3 54.2 316.2 54 314 54 C 313.2 54 309.2 54.2 305.5 54.2 C 304.5 54.2 304.1 54.1 304.1 53.5 C 304.1 53.1 304.4 52.9 305 52.9 C 305.6 52.9 306.6 52.8 307.2 52.8 C 310.5 52.3 311.9 49.9 313.3 46.3 C 313.3 46.3 331.4 1.1 331.4 1.1 C 332.2 -1 332.7 -1.8 333.4 -1.8 C 334 -1.8 334.5 -1.2 335.2 0.5 C 336.9 4.5 348.4 33.8 353.1 44.8 C 355.8 51.3 357.9 52.3 359.4 52.6 C 360.5 52.8 361.5 52.9 362.4 52.9 C 363 52.9 363.3 53 363.3 53.5 C 363.3 54.1 362.7 54.2 360 54.2 C 357.4 54.2 352.2 54.2 346.4 54.1 C 345.1 54 344.3 54 344.3 53.5 C 344.3 53.1 344.6 52.9 345.3 52.8 C 345.8 52.7 346.3 52.1 345.9 51.2 C 345.9 51.2 340.2 35.9 340.2 35.9 C 340 35.6 339.8 35.4 339.4 35.4 C 339.4 35.4 323.4 35.4 323.4 35.4 Z M 338.1 31.8 C 338.4 31.8 338.5 31.6 338.4 31.4 C 338.4 31.4 332 13.6 332 13.6 C 331.9 13.3 331.8 13 331.6 13 C 331.4 13 331.2 13.3 331.2 13.6 C 331.2 13.6 324.5 31.3 324.5 31.3 C 324.5 31.6 324.5 31.8 324.8 31.8 C 324.8 31.8 338.1 31.8 338.1 31.8 Z M 380.6 33.3 C 380.6 42.6 380.6 47.5 382.1 48.8 C 383.4 49.9 385.2 50.4 390.9 50.4 C 394.7 50.4 397.5 50.3 399.3 48.4 C 400.1 47.4 401 45.4 401.1 44.1 C 401.2 43.4 401.4 43 401.9 43 C 402.4 43 402.5 43.3 402.5 44.2 C 402.5 45 402 50.4 401.4 52.5 C 401 54.1 400.6 54.4 396.9 54.4 C 391.7 54.4 388 54.3 384.7 54.2 C 381.5 54.1 378.9 54 375.9 54 C 375.2 54 373.6 54 371.8 54.1 C 370.2 54.1 368.3 54.2 366.9 54.2 C 365.9 54.2 365.4 54 365.4 53.5 C 365.4 53.1 365.7 52.9 366.6 52.9 C 367.7 52.9 368.5 52.8 369.2 52.6 C 370.6 52.3 371 50.8 371.3 48.7 C 371.6 45.6 371.6 40 371.6 33.3 C 371.6 33.3 371.6 20.7 371.6 20.7 C 371.6 9.7 371.6 7.7 371.5 5.4 C 371.3 3 370.8 1.8 368.4 1.3 C 367.8 1.2 366.9 1.1 366 1.1 C 365.2 1.1 364.8 0.9 364.8 0.4 C 364.8 -0.1 365.3 -0.2 366.4 -0.2 C 369.8 -0.2 374.3 0 376.2 0 C 378 0 383.2 -0.2 386 -0.2 C 387 -0.2 387.5 -0.1 387.5 0.4 C 387.5 0.9 387.1 1.1 386.2 1.1 C 385.5 1.1 384.3 1.2 383.4 1.3 C 381.5 1.7 380.9 2.9 380.8 5.4 C 380.6 7.7 380.6 9.7 380.6 20.7 C 380.6 20.7 380.6 33.3 380.6 33.3 Z M 415.9 20.7 C 415.9 9.7 415.9 7.7 415.8 5.4 C 415.6 3 414.9 1.7 413.3 1.4 C 412.5 1.2 411.6 1.1 410.7 1.1 C 410 1.1 409.6 0.9 409.6 0.4 C 409.6 -0.1 410.1 -0.2 411.3 -0.2 C 414 -0.2 418.6 0 420.7 0 C 422.5 0 426.7 -0.2 429.4 -0.2 C 430.4 -0.2 431 -0.1 431 0.4 C 431 0.9 430.5 1.1 429.8 1.1 C 429.1 1.1 428.5 1.2 427.6 1.3 C 425.7 1.7 425.1 2.9 425 5.4 C 424.8 7.7 424.8 9.7 424.8 20.7 C 424.8 20.7 424.8 33.3 424.8 33.3 C 424.8 40.3 424.8 46 425.1 49.1 C 425.3 51 425.8 52.3 428 52.6 C 429 52.8 430.6 52.9 431.7 52.9 C 432.5 52.9 432.8 53.1 432.8 53.5 C 432.8 54 432.3 54.2 431.5 54.2 C 426.7 54.2 422.2 54 420.2 54 C 418.6 54 414 54.2 411.2 54.2 C 410.2 54.2 409.7 54 409.7 53.5 C 409.7 53.1 410 52.9 410.9 52.9 C 411.9 52.9 412.8 52.8 413.5 52.6 C 414.9 52.3 415.3 51.1 415.5 49 C 415.9 46 415.9 40.3 415.9 33.3 C 415.9 33.3 415.9 20.7 415.9 20.7 Z M 458.7 3.8 C 458.7 3.8 448.02 4.1 448 4.1 C 443.8 4.2 442.1 4.6 441 6.2 C 440.3 7.3 440 8.1 439.8 8.7 C 439.7 9.3 439.5 9.6 439 9.6 C 438.5 9.6 438.4 9.2 438.4 8.4 C 438.4 7.3 439.7 0.7 439.9 0.1 C 440.1 -0.8 440.3 -1.2 440.7 -1.2 C 441.3 -1.2 442 -0.5 443.8 -0.4 C 445.9 -0.1 448.7 0 451 0 C 451 0 479.6 0 479.6 0 C 481.9 0 483.4 -0.2 484.5 -0.4 C 485.6 -0.6 486.2 -0.7 486.5 -0.7 C 487 -0.7 487 -0.3 487 0.8 C 487 2.3 486.8 7.3 486.8 9.1 C 486.8 9.9 486.6 10.3 486.2 10.3 C 485.6 10.3 485.5 9.9 485.4 8.9 C 485.4 8.9 485.3 8.1 485.3 8.1 C 485.2 6.2 483.2 4.2 476.8 4 C 476.82 4.03 467.7 3.8 467.7 3.8 C 467.7 3.8 467.75 33.34 467.7 33.3 C 467.7 40 467.7 45.6 468.1 48.7 C 468.3 50.8 468.8 52.3 470.9 52.6 C 471.9 52.8 473.5 52.9 474.6 52.9 C 475.4 52.9 475.7 53.1 475.7 53.5 C 475.7 54 475.2 54.2 474.4 54.2 C 469.6 54.2 465.1 54 463.1 54 C 461.4 54 456.9 54.2 454 54.2 C 453.1 54.2 452.6 54 452.6 53.5 C 452.6 53.1 452.8 52.9 453.7 52.9 C 454.8 52.9 455.7 52.8 456.3 52.6 C 457.7 52.3 458.2 50.8 458.4 48.7 C 458.7 45.6 458.7 40 458.7 33.3 C 458.75 33.34 458.7 3.8 458.7 3.8 Z M 499.6 35.4 C 499.2 35.4 499.1 35.6 498.9 36 C 498.9 36 495 46.3 495 46.3 C 494.3 48.1 494 49.8 494 50.7 C 494 52 494.6 52.9 496.8 52.9 C 496.8 52.9 497.9 52.9 497.9 52.9 C 498.8 52.9 499 53.1 499 53.5 C 499 54.1 498.6 54.2 497.8 54.2 C 495.5 54.2 492.4 54 490.1 54 C 489.3 54 485.4 54.2 481.6 54.2 C 480.7 54.2 480.3 54.1 480.3 53.5 C 480.3 53.1 480.6 52.9 481.1 52.9 C 481.8 52.9 482.8 52.8 483.4 52.8 C 486.7 52.3 488.1 49.9 489.5 46.3 C 489.5 46.3 507.6 1.1 507.6 1.1 C 508.4 -1 508.9 -1.8 509.6 -1.8 C 510.2 -1.8 510.7 -1.2 511.4 0.5 C 513.1 4.5 524.6 33.8 529.2 44.8 C 532 51.3 534.1 52.3 535.6 52.6 C 536.7 52.8 537.7 52.9 538.6 52.9 C 539.2 52.9 539.5 53 539.5 53.5 C 539.5 54.1 538.9 54.2 536.2 54.2 C 533.6 54.2 528.4 54.2 522.6 54.1 C 521.3 54 520.5 54 520.5 53.5 C 520.5 53.1 520.7 52.9 521.5 52.8 C 522 52.7 522.5 52.1 522.1 51.2 C 522.1 51.2 516.3 35.9 516.3 35.9 C 516.2 35.6 516 35.4 515.6 35.4 C 515.6 35.4 499.6 35.4 499.6 35.4 Z M 514.3 31.8 C 514.6 31.8 514.7 31.6 514.6 31.4 C 514.6 31.4 508.1 13.6 508.1 13.6 C 508.1 13.3 508 13 507.8 13 C 507.6 13 507.4 13.3 507.3 13.6 C 507.3 13.6 500.7 31.3 500.7 31.3 C 500.7 31.6 500.7 31.8 501 31.8 C 501 31.8 514.3 31.8 514.3 31.8 Z " stroke="none" fill="#000"/>
  </g>
</svg>