<?xml version="1.0" standalone="no"?>
<!DOCTYPE svg PUBLIC "-//W3C//DTD SVG 1.1//EN" "http://www.w3.org/Graphics/SVG/1.1/DTD/svg11.dtd">
<svg xmlns="http://www.w3.org/2000/svg" version="1.1" width="149px" height="128.5px" viewBox="0 -6 149 128.5" style="top:-6px">
  <desc>Oo, maraming mga katanungan ngunit, sabi nga nila, masasagot lamang ang mga ito kapag nasa daan na t naglalakad</desc>
  <defs/>
  <g id="Polygon19291">
    <path d="M 37.8 100.9 C 38 100.5 38 100.3 37.6 100.3 C 37.62 100.27 36.8 100.2 36.8 100.2 L 36.8 99.9 L 39.4 99.5 L 39.5 99.5 L 38.6 102.6 C 38.6 102.6 38.6 102.59 38.6 102.6 C 39.4 101 40.9 99.5 42.2 99.5 C 43.4 99.5 43.6 100.4 43.2 101.5 C 43.2 101.5 42.1 105.2 42.1 105.2 C 42 105.6 42 105.9 42.3 105.9 C 42.7 105.9 43.3 104.9 43.5 104.5 C 43.5 104.5 43.9 104.7 43.9 104.7 C 43.4 105.7 42.6 106.7 41.6 106.7 C 40.8 106.7 40.6 106.1 40.9 105.3 C 40.9 105.3 42.1 101.2 42.1 101.2 C 42.2 100.6 42.1 100.2 41.6 100.2 C 40.5 100.2 39.1 102.2 38.6 103.4 C 38.2 104.3 38 105.1 37.6 106.5 C 37.59 106.5 36.4 106.7 36.4 106.7 C 36.4 106.7 37.83 100.94 37.8 100.9 Z M 49.9 99.5 C 50.3 99.5 50.7 99.6 50.9 99.8 C 50.94 99.77 51 99.6 51 99.6 L 52.2 99.6 C 52.2 99.6 50.7 105.17 50.7 105.2 C 50.6 105.6 50.6 105.9 50.8 105.9 C 51.2 105.9 51.8 104.9 52.1 104.5 C 52.1 104.5 52.4 104.7 52.4 104.7 C 52 105.7 51.2 106.7 50.1 106.7 C 49.4 106.7 49.2 106.1 49.5 105.1 C 49.49 105.1 50 103.5 50 103.5 C 50 103.5 49.94 103.5 49.9 103.5 C 49.1 104.9 47.8 106.7 46.3 106.7 C 45.4 106.7 45 105.8 45 105 C 45 103.2 46.6 99.5 49.9 99.5 Z M 47 105.9 C 47.7 105.9 48.5 105 49.3 103.8 C 50 102.7 50.5 101.3 50.8 100.3 C 50.6 100.1 50.3 100 49.9 100 C 47.7 100 46.4 103.4 46.4 105 C 46.4 105.5 46.5 105.9 47 105.9 Z M 54.9 105.9 C 54.9 105.9 54.9 105.9 54.9 105.9 C 54.3 105.6 53.9 105.3 53.9 104.8 C 53.9 104.3 54.8 104 55.2 103.8 C 55.2 103.8 55.2 103.8 55.2 103.8 C 54.8 103.6 54 103.1 54 102 C 54 101.1 54.7 99.5 57 99.5 C 57.7 99.5 58.4 99.7 58.7 99.9 C 58.73 99.89 60.8 99.3 60.8 99.3 L 60.8 99.5 L 60.4 100.3 C 60.4 100.3 59.21 100.51 59.2 100.5 C 59.4 100.7 59.5 101.1 59.5 101.5 C 59.5 102.9 58.4 104 56.5 104 C 56.3 104 56 104 55.7 103.9 C 55.4 104 55.1 104.2 55.1 104.5 C 55.1 104.9 55.6 105.1 56.8 105.4 C 58.5 105.7 59.3 106.5 59.3 107.6 C 59.3 109.1 57.7 109.9 55.8 109.9 C 54.1 109.9 52.8 109.1 52.8 107.8 C 52.8 106.7 54 106.1 54.9 105.9 Z M 56.1 109.4 C 57.2 109.4 58.1 108.9 58.1 107.8 C 58.1 106.6 56.4 106.3 55.5 106.1 C 55 106.2 54 106.7 54 107.7 C 54 108.7 54.9 109.4 56.1 109.4 Z M 56.5 103.5 C 57.5 103.5 58.2 102.4 58.2 101.1 C 58.2 100.2 57.5 100 57.1 100 C 55.8 100 55.3 101.4 55.3 102.3 C 55.3 103 55.8 103.5 56.5 103.5 Z M 63.3 97.6 C 63.4 97 63.4 96.9 63 96.9 C 63 96.87 62.2 96.8 62.2 96.8 L 62.3 96.4 L 64.8 96.1 L 64.9 96.2 C 64.9 96.2 62.61 105.18 62.6 105.2 C 62.5 105.6 62.5 105.9 62.8 105.9 C 63.1 105.9 63.7 105.1 64 104.5 C 64 104.5 64.4 104.7 64.4 104.7 C 63.9 105.7 63.1 106.7 62.1 106.7 C 61.3 106.7 61.2 106.1 61.4 105.3 C 61.4 105.3 63.3 97.6 63.3 97.6 Z M 70.3 99.5 C 70.7 99.5 71.1 99.6 71.3 99.8 C 71.32 99.77 71.4 99.6 71.4 99.6 L 72.6 99.6 C 72.6 99.6 71.08 105.17 71.1 105.2 C 71 105.6 70.9 105.9 71.2 105.9 C 71.6 105.9 72.2 104.9 72.5 104.5 C 72.5 104.5 72.8 104.7 72.8 104.7 C 72.3 105.7 71.6 106.7 70.5 106.7 C 69.7 106.7 69.6 106.1 69.9 105.1 C 69.88 105.1 70.4 103.5 70.4 103.5 C 70.4 103.5 70.33 103.5 70.3 103.5 C 69.5 104.9 68.2 106.7 66.7 106.7 C 65.8 106.7 65.4 105.8 65.4 105 C 65.4 103.2 67 99.5 70.3 99.5 Z M 67.4 105.9 C 68 105.9 68.9 105 69.7 103.8 C 70.4 102.7 70.9 101.3 71.2 100.3 C 71 100.1 70.7 100 70.3 100 C 68.1 100 66.8 103.4 66.8 105 C 66.8 105.5 66.9 105.9 67.4 105.9 Z M 76.3 97.6 C 76.4 97 76.3 96.9 76 96.9 C 75.98 96.87 75.2 96.8 75.2 96.8 L 75.3 96.4 L 77.8 96.1 L 77.8 96.2 C 77.8 96.2 75.59 105.18 75.6 105.2 C 75.5 105.6 75.5 105.9 75.7 105.9 C 76.1 105.9 76.7 105.1 77 104.5 C 77 104.5 77.4 104.7 77.4 104.7 C 76.9 105.7 76.1 106.7 75.1 106.7 C 74.3 106.7 74.1 106.1 74.3 105.3 C 74.3 105.3 76.3 97.6 76.3 97.6 Z M 83.3 99.5 C 83.7 99.5 84.1 99.6 84.3 99.8 C 84.3 99.77 84.4 99.6 84.4 99.6 L 85.5 99.6 C 85.5 99.6 84.06 105.17 84.1 105.2 C 83.9 105.6 83.9 105.9 84.2 105.9 C 84.6 105.9 85.2 104.9 85.5 104.5 C 85.5 104.5 85.8 104.7 85.8 104.7 C 85.3 105.7 84.5 106.7 83.5 106.7 C 82.7 106.7 82.6 106.1 82.9 105.1 C 82.86 105.1 83.3 103.5 83.3 103.5 C 83.3 103.5 83.3 103.5 83.3 103.5 C 82.5 104.9 81.2 106.7 79.7 106.7 C 78.7 106.7 78.3 105.8 78.3 105 C 78.3 103.2 79.9 99.5 83.3 99.5 Z M 80.3 105.9 C 81 105.9 81.9 105 82.7 103.8 C 83.4 102.7 83.9 101.3 84.2 100.3 C 83.9 100.1 83.6 100 83.3 100 C 81.1 100 79.7 103.4 79.7 105 C 79.7 105.5 79.9 105.9 80.3 105.9 Z M 89.2 97.6 C 89.3 97 89.2 96.9 88.9 96.9 C 88.87 96.87 88.1 96.8 88.1 96.8 L 88.2 96.4 L 90.7 96.1 L 90.7 96.2 L 88.3 106.5 L 87 106.7 C 87 106.7 89.15 97.55 89.2 97.6 Z M 91.4 100.5 C 92.2 99.9 92.8 99.5 93.4 99.5 C 93.9 99.5 94.1 99.8 94.1 100.2 C 94.1 100.5 93.8 100.9 93.4 100.9 C 93.3 100.9 93.1 100.9 93 100.8 C 92.7 100.6 92.6 100.5 92.4 100.5 C 91.9 100.5 90.8 101.7 90.4 102.2 C 90.6 103.1 91 104 91.4 104.9 C 91.8 105.6 92 105.9 92.2 105.9 C 92.6 105.9 92.9 105.4 93.3 104.5 C 93.3 104.5 93.7 104.7 93.7 104.7 C 93.3 105.9 92.6 106.7 91.7 106.7 C 91.1 106.7 90.7 106.2 90.3 105.3 C 89.9 104.5 89.5 103.7 89.3 102.8 C 89.9 102 90.7 101.2 91.4 100.5 Z M 99.6 99.5 C 100 99.5 100.4 99.6 100.6 99.8 C 100.62 99.77 100.7 99.6 100.7 99.6 L 101.9 99.6 C 101.9 99.6 100.38 105.17 100.4 105.2 C 100.3 105.6 100.2 105.9 100.5 105.9 C 100.9 105.9 101.5 104.9 101.8 104.5 C 101.8 104.5 102.1 104.7 102.1 104.7 C 101.6 105.7 100.9 106.7 99.8 106.7 C 99 106.7 98.9 106.1 99.2 105.1 C 99.18 105.1 99.7 103.5 99.7 103.5 C 99.7 103.5 99.63 103.5 99.6 103.5 C 98.8 104.9 97.5 106.7 96 106.7 C 95.1 106.7 94.7 105.8 94.7 105 C 94.7 103.2 96.3 99.5 99.6 99.5 Z M 96.7 105.9 C 97.3 105.9 98.2 105 99 103.8 C 99.7 102.7 100.2 101.3 100.5 100.3 C 100.3 100.1 100 100 99.6 100 C 97.4 100 96.1 103.4 96.1 105 C 96.1 105.5 96.2 105.9 96.7 105.9 Z M 107.8 99.5 C 108.3 99.5 108.7 99.6 109 99.7 C 108.96 99.71 109 99.7 109 99.7 C 109 99.7 109.52 97.43 109.5 97.4 C 109.6 97 109.6 96.9 109.3 96.9 C 109.27 96.85 108.4 96.8 108.4 96.8 L 108.5 96.4 L 111 96.1 L 111.1 96.2 C 111.1 96.2 108.87 105.17 108.9 105.2 C 108.8 105.6 108.7 105.9 109 105.9 C 109.4 105.9 110 104.9 110.3 104.5 C 110.3 104.5 110.6 104.7 110.6 104.7 C 110.1 105.7 109.3 106.7 108.3 106.7 C 107.6 106.7 107.4 106.1 107.7 105.1 C 107.68 105.11 108.1 103.4 108.1 103.4 C 108.1 103.4 108.11 103.45 108.1 103.4 C 107.3 104.9 106 106.7 104.4 106.7 C 103.3 106.7 103 105.7 103 104.8 C 103 103.1 104.5 99.5 107.8 99.5 Z M 105.1 105.9 C 105.9 105.9 106.8 104.9 107.5 103.8 C 108.2 102.6 108.6 101.3 108.8 100.2 C 108.7 100.1 108.3 100 107.9 100 C 105.6 100 104.4 103.4 104.4 104.9 C 104.4 105.6 104.7 105.9 105.1 105.9 Z M 112.7 104.9 C 113.2 104.9 113.5 105.3 113.5 105.7 C 113.5 106.3 113.2 106.7 112.6 106.7 C 112.1 106.7 111.8 106.3 111.8 105.9 C 111.8 105.3 112.2 104.9 112.7 104.9 Z " stroke="none" fill="#000"/>
  </g>
  <g id="Polygon19290">
    <path d="M 28.5 84.9 C 28.7 84.5 28.7 84.3 28.3 84.3 C 28.33 84.27 27.5 84.2 27.5 84.2 L 27.5 83.9 L 30.1 83.5 L 30.2 83.5 L 29.3 86.6 C 29.3 86.6 29.31 86.59 29.3 86.6 C 30.2 85 31.6 83.5 33 83.5 C 34.1 83.5 34.3 84.4 33.9 85.5 C 33.9 85.5 32.9 89.2 32.9 89.2 C 32.7 89.6 32.7 89.9 33 89.9 C 33.4 89.9 34 88.9 34.3 88.5 C 34.3 88.5 34.6 88.7 34.6 88.7 C 34.1 89.7 33.3 90.7 32.3 90.7 C 31.5 90.7 31.3 90.1 31.6 89.3 C 31.6 89.3 32.8 85.2 32.8 85.2 C 32.9 84.6 32.8 84.2 32.3 84.2 C 31.2 84.2 29.8 86.2 29.3 87.4 C 28.9 88.3 28.7 89.1 28.3 90.5 C 28.3 90.5 27.1 90.7 27.1 90.7 C 27.1 90.7 28.54 84.94 28.5 84.9 Z M 40.6 83.5 C 41 83.5 41.4 83.6 41.6 83.8 C 41.65 83.77 41.7 83.6 41.7 83.6 L 42.9 83.6 C 42.9 83.6 41.41 89.17 41.4 89.2 C 41.3 89.6 41.3 89.9 41.5 89.9 C 41.9 89.9 42.6 88.9 42.8 88.5 C 42.8 88.5 43.1 88.7 43.1 88.7 C 42.7 89.7 41.9 90.7 40.8 90.7 C 40.1 90.7 39.9 90.1 40.2 89.1 C 40.2 89.1 40.7 87.5 40.7 87.5 C 40.7 87.5 40.65 87.5 40.7 87.5 C 39.8 88.9 38.5 90.7 37 90.7 C 36.1 90.7 35.7 89.8 35.7 89 C 35.7 87.2 37.3 83.5 40.6 83.5 Z M 37.7 89.9 C 38.4 89.9 39.2 89 40 87.8 C 40.8 86.7 41.3 85.3 41.5 84.3 C 41.3 84.1 41 84 40.7 84 C 38.5 84 37.1 87.4 37.1 89 C 37.1 89.5 37.2 89.9 37.7 89.9 Z M 44.5 88.6 C 44.8 88.6 44.9 88.7 45 89 C 45.2 89.7 45.7 90.2 46.2 90.2 C 46.8 90.2 47.2 89.8 47.2 89.1 C 47.2 88.6 46.9 88 46.3 87.5 C 45.6 86.9 45 86.3 45 85.5 C 45 84.4 45.9 83.5 47.3 83.5 C 48.6 83.5 49.1 84.1 49.1 84.6 C 49.1 85 48.7 85.2 48.4 85.2 C 48.2 85.2 48.1 85.1 48 84.9 C 47.7 84.3 47.4 84 46.9 84 C 46.4 84 46 84.4 46 84.9 C 46 85.3 46.2 85.7 47 86.4 C 48 87.2 48.3 87.8 48.3 88.6 C 48.3 89.7 47.4 90.7 45.9 90.7 C 44.6 90.7 43.8 89.9 43.8 89.3 C 43.8 89 44.1 88.6 44.5 88.6 Z M 54.8 83.5 C 55.1 83.5 55.5 83.6 55.8 83.8 C 55.79 83.77 55.9 83.6 55.9 83.6 L 57 83.6 C 57 83.6 55.55 89.17 55.5 89.2 C 55.4 89.6 55.4 89.9 55.7 89.9 C 56.1 89.9 56.7 88.9 56.9 88.5 C 56.9 88.5 57.3 88.7 57.3 88.7 C 56.8 89.7 56 90.7 55 90.7 C 54.2 90.7 54.1 90.1 54.3 89.1 C 54.34 89.1 54.8 87.5 54.8 87.5 C 54.8 87.5 54.79 87.5 54.8 87.5 C 54 88.9 52.7 90.7 51.2 90.7 C 50.2 90.7 49.8 89.8 49.8 89 C 49.8 87.2 51.4 83.5 54.8 83.5 Z M 51.8 89.9 C 52.5 89.9 53.4 89 54.1 87.8 C 54.9 86.7 55.4 85.3 55.6 84.3 C 55.4 84.1 55.1 84 54.8 84 C 52.6 84 51.2 87.4 51.2 89 C 51.2 89.5 51.4 89.9 51.8 89.9 Z M 66.5 83.5 C 67 83.5 67.4 83.6 67.7 83.7 C 67.7 83.71 67.7 83.7 67.7 83.7 C 67.7 83.7 68.26 81.43 68.3 81.4 C 68.4 81 68.3 80.9 68 80.9 C 68.01 80.85 67.2 80.8 67.2 80.8 L 67.3 80.4 L 69.7 80.1 L 69.8 80.2 C 69.8 80.2 67.6 89.17 67.6 89.2 C 67.5 89.6 67.5 89.9 67.7 89.9 C 68.1 89.9 68.8 88.9 69 88.5 C 69 88.5 69.3 88.7 69.3 88.7 C 68.9 89.7 68.1 90.7 67.1 90.7 C 66.3 90.7 66.1 90.1 66.4 89.1 C 66.41 89.11 66.9 87.4 66.9 87.4 C 66.9 87.4 66.85 87.45 66.8 87.4 C 66 88.9 64.8 90.7 63.2 90.7 C 62 90.7 61.8 89.7 61.8 88.8 C 61.8 87.1 63.3 83.5 66.5 83.5 Z M 63.9 89.9 C 64.6 89.9 65.5 88.9 66.2 87.8 C 66.9 86.6 67.4 85.3 67.6 84.2 C 67.4 84.1 67 84 66.6 84 C 64.4 84 63.2 87.4 63.2 88.9 C 63.2 89.6 63.4 89.9 63.9 89.9 Z M 75.2 83.5 C 75.6 83.5 76 83.6 76.3 83.8 C 76.27 83.77 76.3 83.6 76.3 83.6 L 77.5 83.6 C 77.5 83.6 76.03 89.17 76 89.2 C 75.9 89.6 75.9 89.9 76.2 89.9 C 76.6 89.9 77.2 88.9 77.4 88.5 C 77.4 88.5 77.8 88.7 77.8 88.7 C 77.3 89.7 76.5 90.7 75.4 90.7 C 74.7 90.7 74.5 90.1 74.8 89.1 C 74.83 89.1 75.3 87.5 75.3 87.5 C 75.3 87.5 75.27 87.5 75.3 87.5 C 74.5 88.9 73.2 90.7 71.7 90.7 C 70.7 90.7 70.3 89.8 70.3 89 C 70.3 87.2 71.9 83.5 75.2 83.5 Z M 72.3 89.9 C 73 89.9 73.8 89 74.6 87.8 C 75.4 86.7 75.9 85.3 76.1 84.3 C 75.9 84.1 75.6 84 75.3 84 C 73.1 84 71.7 87.4 71.7 89 C 71.7 89.5 71.9 89.9 72.3 89.9 Z M 83.5 83.5 C 83.9 83.5 84.3 83.6 84.5 83.8 C 84.54 83.77 84.6 83.6 84.6 83.6 L 85.8 83.6 C 85.8 83.6 84.3 89.17 84.3 89.2 C 84.2 89.6 84.2 89.9 84.4 89.9 C 84.8 89.9 85.5 88.9 85.7 88.5 C 85.7 88.5 86 88.7 86 88.7 C 85.6 89.7 84.8 90.7 83.7 90.7 C 83 90.7 82.8 90.1 83.1 89.1 C 83.1 89.1 83.6 87.5 83.6 87.5 C 83.6 87.5 83.55 87.5 83.5 87.5 C 82.7 88.9 81.4 90.7 79.9 90.7 C 79 90.7 78.6 89.8 78.6 89 C 78.6 87.2 80.2 83.5 83.5 83.5 Z M 80.6 89.9 C 81.3 89.9 82.1 89 82.9 87.8 C 83.6 86.7 84.1 85.3 84.4 84.3 C 84.2 84.1 83.9 84 83.5 84 C 81.3 84 80 87.4 80 89 C 80 89.5 80.1 89.9 80.6 89.9 Z M 88.8 84.9 C 88.9 84.5 88.9 84.3 88.6 84.3 C 88.57 84.27 87.7 84.2 87.7 84.2 L 87.8 83.9 L 90.4 83.5 L 90.4 83.5 L 89.5 86.6 C 89.5 86.6 89.55 86.59 89.6 86.6 C 90.4 85 91.8 83.5 93.2 83.5 C 94.3 83.5 94.5 84.4 94.2 85.5 C 94.2 85.5 93.1 89.2 93.1 89.2 C 93 89.6 93 89.9 93.2 89.9 C 93.6 89.9 94.2 88.9 94.5 88.5 C 94.5 88.5 94.8 88.7 94.8 88.7 C 94.4 89.7 93.6 90.7 92.5 90.7 C 91.8 90.7 91.6 90.1 91.8 89.3 C 91.8 89.3 93 85.2 93 85.2 C 93.2 84.6 93 84.2 92.5 84.2 C 91.4 84.2 90.1 86.2 89.6 87.4 C 89.2 88.3 89 89.1 88.5 90.5 C 88.55 90.5 87.3 90.7 87.3 90.7 C 87.3 90.7 88.78 84.94 88.8 84.9 Z M 101.4 84.9 C 101.6 84.5 101.6 84.3 101.2 84.3 C 101.22 84.27 100.3 84.2 100.3 84.2 L 100.4 83.9 L 103 83.5 L 103.1 83.5 L 102.2 86.6 C 102.2 86.6 102.2 86.59 102.2 86.6 C 103 85 104.5 83.5 105.8 83.5 C 107 83.5 107.2 84.4 106.8 85.5 C 106.8 85.5 105.7 89.2 105.7 89.2 C 105.6 89.6 105.6 89.9 105.9 89.9 C 106.3 89.9 106.9 88.9 107.1 88.5 C 107.1 88.5 107.5 88.7 107.5 88.7 C 107 89.7 106.2 90.7 105.2 90.7 C 104.4 90.7 104.2 90.1 104.4 89.3 C 104.4 89.3 105.7 85.2 105.7 85.2 C 105.8 84.6 105.7 84.2 105.2 84.2 C 104.1 84.2 102.7 86.2 102.2 87.4 C 101.8 88.3 101.6 89.1 101.2 90.5 C 101.19 90.5 100 90.7 100 90.7 C 100 90.7 101.43 84.94 101.4 84.9 Z M 113.5 83.5 C 113.9 83.5 114.3 83.6 114.5 83.8 C 114.53 83.77 114.6 83.6 114.6 83.6 L 115.8 83.6 C 115.8 83.6 114.29 89.17 114.3 89.2 C 114.2 89.6 114.2 89.9 114.4 89.9 C 114.8 89.9 115.4 88.9 115.7 88.5 C 115.7 88.5 116 88.7 116 88.7 C 115.6 89.7 114.8 90.7 113.7 90.7 C 112.9 90.7 112.8 90.1 113.1 89.1 C 113.09 89.1 113.6 87.5 113.6 87.5 C 113.6 87.5 113.54 87.5 113.5 87.5 C 112.7 88.9 111.4 90.7 109.9 90.7 C 109 90.7 108.6 89.8 108.6 89 C 108.6 87.2 110.2 83.5 113.5 83.5 Z M 110.6 89.9 C 111.3 89.9 112.1 89 112.9 87.8 C 113.6 86.7 114.1 85.3 114.4 84.3 C 114.2 84.1 113.9 84 113.5 84 C 111.3 84 110 87.4 110 89 C 110 89.5 110.1 89.9 110.6 89.9 Z M 118.4 82 C 118.4 81.7 118.3 81.5 118.2 81.3 C 118.2 81.2 118.1 81 118.1 80.8 C 118.1 80.4 118.4 80.1 118.8 80.1 C 119.3 80.1 119.6 80.6 119.6 81 C 119.6 82.2 118.5 83.1 117.7 83.8 C 117.7 83.8 117.4 83.5 117.4 83.5 C 117.9 83.1 118.3 82.5 118.4 82 Z M 121.3 84.2 L 120.2 84.2 L 120.3 83.6 L 121.5 83.6 L 121.6 83 L 123 81.9 L 123.2 82 L 122.7 83.6 L 124.5 83.6 L 124.3 84.2 L 122.6 84.2 C 122.6 84.2 121.32 89.27 121.3 89.3 C 121.2 89.6 121.2 89.9 121.5 89.9 C 122 89.9 122.7 89 123 88.5 C 123 88.5 123.3 88.7 123.3 88.7 C 122.7 89.7 121.9 90.7 120.7 90.7 C 120 90.7 119.9 90.1 120.1 89.3 C 120.07 89.3 121.3 84.2 121.3 84.2 Z " stroke="none" fill="#000"/>
  </g>
  <g id="Polygon19289">
    <path d="M 19 67.5 C 19.3 67.5 19.7 67.6 20 67.8 C 19.98 67.77 20.1 67.6 20.1 67.6 L 21.2 67.6 C 21.2 67.6 19.74 73.17 19.7 73.2 C 19.6 73.6 19.6 73.9 19.9 73.9 C 20.3 73.9 20.9 72.9 21.1 72.5 C 21.1 72.5 21.5 72.7 21.5 72.7 C 21 73.7 20.2 74.7 19.2 74.7 C 18.4 74.7 18.2 74.1 18.5 73.1 C 18.54 73.1 19 71.5 19 71.5 C 19 71.5 18.99 71.5 19 71.5 C 18.2 72.9 16.9 74.7 15.4 74.7 C 14.4 74.7 14 73.8 14 73 C 14 71.2 15.6 67.5 19 67.5 Z M 16 73.9 C 16.7 73.9 17.6 73 18.3 71.8 C 19.1 70.7 19.6 69.3 19.8 68.3 C 19.6 68.1 19.3 68 19 68 C 16.8 68 15.4 71.4 15.4 73 C 15.4 73.5 15.6 73.9 16 73.9 Z M 24.2 68.9 C 24.3 68.5 24.3 68.3 24 68.3 C 24.01 68.27 23.1 68.2 23.1 68.2 L 23.2 67.9 L 25.8 67.5 L 25.9 67.5 L 25 70.6 C 25 70.6 24.99 70.59 25 70.6 C 25.8 69 27.3 67.5 28.6 67.5 C 29.8 67.5 29.9 68.4 29.6 69.5 C 29.6 69.5 28.5 73.2 28.5 73.2 C 28.4 73.6 28.4 73.9 28.7 73.9 C 29.1 73.9 29.7 72.9 29.9 72.5 C 29.9 72.5 30.3 72.7 30.3 72.7 C 29.8 73.7 29 74.7 28 74.7 C 27.2 74.7 27 74.1 27.2 73.3 C 27.2 73.3 28.5 69.2 28.5 69.2 C 28.6 68.6 28.5 68.2 28 68.2 C 26.9 68.2 25.5 70.2 25 71.4 C 24.6 72.3 24.4 73.1 24 74.5 C 23.99 74.5 22.8 74.7 22.8 74.7 C 22.8 74.7 24.22 68.94 24.2 68.9 Z M 33 73.9 C 33 73.9 33 73.9 33 73.9 C 32.5 73.6 32 73.3 32 72.8 C 32 72.3 32.9 72 33.3 71.8 C 33.3 71.8 33.3 71.8 33.3 71.8 C 32.9 71.6 32.1 71.1 32.1 70 C 32.1 69.1 32.8 67.5 35.1 67.5 C 35.8 67.5 36.5 67.7 36.9 67.9 C 36.85 67.89 38.9 67.3 38.9 67.3 L 39 67.5 L 38.5 68.3 C 38.5 68.3 37.33 68.51 37.3 68.5 C 37.5 68.7 37.6 69.1 37.6 69.5 C 37.6 70.9 36.5 72 34.6 72 C 34.4 72 34.1 72 33.8 71.9 C 33.5 72 33.2 72.2 33.2 72.5 C 33.2 72.9 33.7 73.1 34.9 73.4 C 36.6 73.7 37.4 74.5 37.4 75.6 C 37.4 77.1 35.8 77.9 34 77.9 C 32.2 77.9 30.9 77.1 30.9 75.8 C 30.9 74.7 32.1 74.1 33 73.9 Z M 34.3 77.4 C 35.3 77.4 36.2 76.9 36.2 75.8 C 36.2 74.6 34.5 74.3 33.6 74.1 C 33.1 74.2 32.2 74.7 32.2 75.7 C 32.2 76.7 33 77.4 34.3 77.4 Z M 34.6 71.5 C 35.7 71.5 36.3 70.4 36.3 69.1 C 36.3 68.2 35.6 68 35.2 68 C 33.9 68 33.4 69.4 33.4 70.3 C 33.4 71 33.9 71.5 34.6 71.5 Z M 44.2 68.9 C 44.4 68.5 44.4 68.3 44 68.3 C 44.05 68.27 43.2 68.2 43.2 68.2 L 43.3 67.9 L 45.8 67.5 L 45.9 67.5 L 45 70.4 C 45 70.4 45.04 70.44 45 70.4 C 46 68.7 47.3 67.5 48.6 67.5 C 49.6 67.5 49.9 68.2 49.4 69.6 C 49.44 69.56 49.2 70.4 49.2 70.4 C 49.2 70.4 49.21 70.44 49.2 70.4 C 50.2 68.6 51.5 67.5 52.8 67.5 C 53.9 67.5 54.1 68.4 53.8 69.5 C 53.8 69.5 52.7 73.2 52.7 73.2 C 52.6 73.6 52.6 73.9 52.8 73.9 C 53.2 73.9 53.8 72.9 54.1 72.5 C 54.1 72.5 54.4 72.7 54.4 72.7 C 54 73.7 53.2 74.7 52.2 74.7 C 51.5 74.7 51.2 74.2 51.4 73.3 C 51.4 73.3 52.6 69.2 52.6 69.2 C 52.8 68.6 52.6 68.2 52.2 68.2 C 51 68.2 49.7 70.2 49.2 71.4 C 48.8 72.3 48.6 73.1 48.2 74.5 C 48.19 74.5 47 74.7 47 74.7 L 47.3 73.3 C 47.3 73.3 48.37 69.38 48.4 69.4 C 48.6 68.5 48.4 68.2 48 68.2 C 46.8 68.2 45.4 70.3 44.9 71.5 C 44.6 72.3 44.4 73.1 44 74.5 C 44.02 74.5 42.8 74.7 42.8 74.7 C 42.8 74.7 44.24 68.94 44.2 68.9 Z M 57.2 73.9 C 57.2 73.9 57.2 73.9 57.2 73.9 C 56.6 73.6 56.2 73.3 56.2 72.8 C 56.2 72.3 57 72 57.5 71.8 C 57.5 71.8 57.5 71.8 57.5 71.8 C 57.1 71.6 56.3 71.1 56.3 70 C 56.3 69.1 57 67.5 59.3 67.5 C 60 67.5 60.7 67.7 61 67.9 C 61.02 67.89 63 67.3 63 67.3 L 63.1 67.5 L 62.7 68.3 C 62.7 68.3 61.49 68.51 61.5 68.5 C 61.7 68.7 61.8 69.1 61.8 69.5 C 61.8 70.9 60.7 72 58.8 72 C 58.6 72 58.3 72 58 71.9 C 57.7 72 57.4 72.2 57.4 72.5 C 57.4 72.9 57.9 73.1 59.1 73.4 C 60.7 73.7 61.5 74.5 61.5 75.6 C 61.5 77.1 60 77.9 58.1 77.9 C 56.3 77.9 55 77.1 55 75.8 C 55 74.7 56.2 74.1 57.2 73.9 Z M 58.4 77.4 C 59.5 77.4 60.3 76.9 60.3 75.8 C 60.3 74.6 58.7 74.3 57.8 74.1 C 57.2 74.2 56.3 74.7 56.3 75.7 C 56.3 76.7 57.2 77.4 58.4 77.4 Z M 58.8 71.5 C 59.8 71.5 60.5 70.4 60.5 69.1 C 60.5 68.2 59.8 68 59.4 68 C 58 68 57.6 69.4 57.6 70.3 C 57.6 71 58 71.5 58.8 71.5 Z M 67.9 67.5 C 68.3 67.5 68.7 67.6 68.9 67.8 C 68.9 67.77 69 67.6 69 67.6 L 70.1 67.6 C 70.1 67.6 68.66 73.17 68.7 73.2 C 68.5 73.6 68.5 73.9 68.8 73.9 C 69.2 73.9 69.8 72.9 70.1 72.5 C 70.1 72.5 70.4 72.7 70.4 72.7 C 69.9 73.7 69.1 74.7 68.1 74.7 C 67.3 74.7 67.2 74.1 67.5 73.1 C 67.46 73.1 67.9 71.5 67.9 71.5 C 67.9 71.5 67.9 71.5 67.9 71.5 C 67.1 72.9 65.8 74.7 64.3 74.7 C 63.3 74.7 62.9 73.8 62.9 73 C 62.9 71.2 64.5 67.5 67.9 67.5 Z M 64.9 73.9 C 65.6 73.9 66.5 73 67.3 71.8 C 68 70.7 68.5 69.3 68.8 68.3 C 68.5 68.1 68.2 68 67.9 68 C 65.7 68 64.3 71.4 64.3 73 C 64.3 73.5 64.5 73.9 64.9 73.9 Z M 78.2 64.5 C 78.6 64.5 78.9 64.7 78.9 65.3 C 78.9 65.8 78.6 66.2 78.1 66.2 C 77.6 66.2 77.3 65.9 77.3 65.4 C 77.3 65 77.6 64.5 78.2 64.5 Z M 76.7 68.9 C 76.8 68.4 76.8 68.3 76.4 68.3 C 76.43 68.27 75.6 68.2 75.6 68.2 L 75.7 67.9 L 78.3 67.5 L 78.3 67.5 C 78.3 67.5 76.81 73.17 76.8 73.2 C 76.7 73.6 76.7 73.9 76.9 73.9 C 77.3 73.9 78 72.9 78.2 72.5 C 78.2 72.5 78.5 72.7 78.5 72.7 C 78.1 73.7 77.3 74.7 76.3 74.7 C 75.5 74.7 75.3 74.1 75.5 73.3 C 75.5 73.3 76.7 68.9 76.7 68.9 Z M 81.7 68.2 L 80.6 68.2 L 80.7 67.6 L 81.9 67.6 L 82 67 L 83.4 65.9 L 83.6 66 L 83.1 67.6 L 84.9 67.6 L 84.7 68.2 L 83 68.2 C 83 68.2 81.72 73.27 81.7 73.3 C 81.6 73.6 81.6 73.9 81.9 73.9 C 82.4 73.9 83.1 73 83.4 72.5 C 83.4 72.5 83.7 72.7 83.7 72.7 C 83.1 73.7 82.3 74.7 81.1 74.7 C 80.4 74.7 80.3 74.1 80.5 73.3 C 80.47 73.3 81.7 68.2 81.7 68.2 Z M 89.2 67.5 C 90.3 67.5 91.7 68 91.7 69.9 C 91.7 70.7 91.5 71.9 90.8 72.9 C 90.2 73.9 89.2 74.7 87.7 74.7 C 85.9 74.7 85.1 73.6 85.1 72.1 C 85.1 70.9 85.9 67.5 89.2 67.5 Z M 87.7 74.2 C 89.6 74.2 90.4 70.4 90.4 69.4 C 90.4 68.6 90.1 68 89.2 68 C 87.3 68 86.5 71.2 86.5 72.7 C 86.5 73.7 86.9 74.2 87.7 74.2 Z M 98.9 65.6 C 99 65 99 64.9 98.6 64.9 C 98.6 64.87 97.8 64.8 97.8 64.8 L 97.9 64.4 L 100.4 64.1 L 100.5 64.2 L 98 74.5 L 96.7 74.7 C 96.7 74.7 98.88 65.55 98.9 65.6 Z M 101.2 68.5 C 101.9 67.9 102.6 67.5 103.1 67.5 C 103.7 67.5 103.9 67.8 103.9 68.2 C 103.9 68.5 103.6 68.9 103.2 68.9 C 103 68.9 102.9 68.9 102.8 68.8 C 102.5 68.6 102.3 68.5 102.1 68.5 C 101.6 68.5 100.5 69.7 100.1 70.2 C 100.4 71.1 100.7 72 101.2 72.9 C 101.5 73.6 101.7 73.9 101.9 73.9 C 102.3 73.9 102.7 73.4 103.1 72.5 C 103.1 72.5 103.4 72.7 103.4 72.7 C 103 73.9 102.4 74.7 101.5 74.7 C 100.8 74.7 100.4 74.2 100 73.3 C 99.6 72.5 99.3 71.7 99 70.8 C 99.7 70 100.4 69.2 101.2 68.5 Z M 109.3 67.5 C 109.7 67.5 110.1 67.6 110.4 67.8 C 110.35 67.77 110.4 67.6 110.4 67.6 L 111.6 67.6 C 111.6 67.6 110.11 73.17 110.1 73.2 C 110 73.6 110 73.9 110.3 73.9 C 110.6 73.9 111.3 72.9 111.5 72.5 C 111.5 72.5 111.8 72.7 111.8 72.7 C 111.4 73.7 110.6 74.7 109.5 74.7 C 108.8 74.7 108.6 74.1 108.9 73.1 C 108.91 73.1 109.4 71.5 109.4 71.5 C 109.4 71.5 109.36 71.5 109.4 71.5 C 108.5 72.9 107.2 74.7 105.7 74.7 C 104.8 74.7 104.4 73.8 104.4 73 C 104.4 71.2 106 67.5 109.3 67.5 Z M 106.4 73.9 C 107.1 73.9 107.9 73 108.7 71.8 C 109.5 70.7 110 69.3 110.2 68.3 C 110 68.1 109.7 68 109.4 68 C 107.2 68 105.8 71.4 105.8 73 C 105.8 73.5 105.9 73.9 106.4 73.9 Z M 114.5 68.9 C 114.6 68.5 114.6 68.3 114.3 68.3 C 114.3 68.27 113.4 68.2 113.4 68.2 L 113.5 67.9 L 116 67.5 L 116.1 67.5 L 115.3 70.5 C 115.3 70.5 115.36 70.5 115.4 70.5 C 116.4 68.5 117.8 67.5 118.9 67.5 C 119.9 67.5 120.4 68.1 120.4 69.3 C 120.4 70.4 119.5 74.7 116.1 74.7 C 115.3 74.7 114.9 74.5 114.6 74.4 C 114.56 74.36 113.8 77.7 113.8 77.7 L 112.5 77.9 C 112.5 77.9 114.51 68.94 114.5 68.9 Z M 115.9 74.2 C 118.2 74.2 119.1 70.5 119.1 69.4 C 119.1 68.6 118.8 68.2 118.3 68.2 C 117.5 68.2 116.5 69.3 115.8 70.5 C 115.3 71.4 114.9 72.9 114.7 73.8 C 115 74 115.4 74.2 115.9 74.2 Z M 126.3 67.5 C 126.7 67.5 127.1 67.6 127.3 67.8 C 127.3 67.77 127.4 67.6 127.4 67.6 L 128.6 67.6 C 128.6 67.6 127.07 73.17 127.1 73.2 C 126.9 73.6 126.9 73.9 127.2 73.9 C 127.6 73.9 128.2 72.9 128.5 72.5 C 128.5 72.5 128.8 72.7 128.8 72.7 C 128.3 73.7 127.5 74.7 126.5 74.7 C 125.7 74.7 125.6 74.1 125.9 73.1 C 125.86 73.1 126.3 71.5 126.3 71.5 C 126.3 71.5 126.31 71.5 126.3 71.5 C 125.5 72.9 124.2 74.7 122.7 74.7 C 121.7 74.7 121.4 73.8 121.4 73 C 121.4 71.2 123 67.5 126.3 67.5 Z M 123.4 73.9 C 124 73.9 124.9 73 125.7 71.8 C 126.4 70.7 126.9 69.3 127.2 68.3 C 127 68.1 126.6 68 126.3 68 C 124.1 68 122.7 71.4 122.7 73 C 122.7 73.5 122.9 73.9 123.4 73.9 Z M 131.3 73.9 C 131.3 73.9 131.3 73.9 131.3 73.9 C 130.7 73.6 130.3 73.3 130.3 72.8 C 130.3 72.3 131.1 72 131.6 71.8 C 131.6 71.8 131.6 71.8 131.6 71.8 C 131.1 71.6 130.4 71.1 130.4 70 C 130.4 69.1 131.1 67.5 133.4 67.5 C 134.1 67.5 134.7 67.7 135.1 67.9 C 135.1 67.89 137.1 67.3 137.1 67.3 L 137.2 67.5 L 136.8 68.3 C 136.8 68.3 135.58 68.51 135.6 68.5 C 135.8 68.7 135.9 69.1 135.9 69.5 C 135.9 70.9 134.8 72 132.8 72 C 132.6 72 132.4 72 132.1 71.9 C 131.8 72 131.5 72.2 131.5 72.5 C 131.5 72.9 132 73.1 133.2 73.4 C 134.8 73.7 135.6 74.5 135.6 75.6 C 135.6 77.1 134.1 77.9 132.2 77.9 C 130.4 77.9 129.1 77.1 129.1 75.8 C 129.1 74.7 130.3 74.1 131.3 73.9 Z M 132.5 77.4 C 133.6 77.4 134.4 76.9 134.4 75.8 C 134.4 74.6 132.8 74.3 131.9 74.1 C 131.3 74.2 130.4 74.7 130.4 75.7 C 130.4 76.7 131.3 77.4 132.5 77.4 Z M 132.9 71.5 C 133.9 71.5 134.6 70.4 134.6 69.1 C 134.6 68.2 133.9 68 133.5 68 C 132.1 68 131.7 69.4 131.7 70.3 C 131.7 71 132.1 71.5 132.9 71.5 Z " stroke="none" fill="#000"/>
  </g>
  <g id="Polygon19288">
    <path d="M 15 52.9 C 15.2 52.5 15.2 52.3 14.8 52.3 C 14.84 52.27 14 52.2 14 52.2 L 14.1 51.9 L 16.6 51.5 L 16.7 51.5 L 15.8 54.4 C 15.8 54.4 15.84 54.44 15.8 54.4 C 16.8 52.7 18.1 51.5 19.4 51.5 C 20.4 51.5 20.7 52.2 20.2 53.6 C 20.23 53.56 20 54.4 20 54.4 C 20 54.4 20.01 54.44 20 54.4 C 21 52.6 22.3 51.5 23.6 51.5 C 24.7 51.5 24.9 52.4 24.6 53.5 C 24.6 53.5 23.5 57.2 23.5 57.2 C 23.4 57.6 23.4 57.9 23.6 57.9 C 24 57.9 24.6 56.9 24.9 56.5 C 24.9 56.5 25.2 56.7 25.2 56.7 C 24.8 57.7 24 58.7 23 58.7 C 22.3 58.7 22 58.2 22.2 57.3 C 22.2 57.3 23.4 53.2 23.4 53.2 C 23.6 52.6 23.4 52.2 23 52.2 C 21.8 52.2 20.5 54.2 20 55.4 C 19.6 56.3 19.4 57.1 19 58.5 C 18.99 58.5 17.8 58.7 17.8 58.7 L 18.1 57.3 C 18.1 57.3 19.17 53.38 19.2 53.4 C 19.4 52.5 19.2 52.2 18.8 52.2 C 17.6 52.2 16.2 54.3 15.7 55.5 C 15.4 56.3 15.2 57.1 14.8 58.5 C 14.82 58.5 13.6 58.7 13.6 58.7 C 13.6 58.7 15.04 52.94 15 52.9 Z M 31.3 51.5 C 31.6 51.5 32 51.6 32.3 51.8 C 32.29 51.77 32.4 51.6 32.4 51.6 L 33.5 51.6 C 33.5 51.6 32.05 57.17 32 57.2 C 31.9 57.6 31.9 57.9 32.2 57.9 C 32.6 57.9 33.2 56.9 33.4 56.5 C 33.4 56.5 33.8 56.7 33.8 56.7 C 33.3 57.7 32.5 58.7 31.5 58.7 C 30.7 58.7 30.6 58.1 30.8 57.1 C 30.85 57.1 31.3 55.5 31.3 55.5 C 31.3 55.5 31.29 55.5 31.3 55.5 C 30.5 56.9 29.2 58.7 27.7 58.7 C 26.7 58.7 26.3 57.8 26.3 57 C 26.3 55.2 27.9 51.5 31.3 51.5 Z M 28.3 57.9 C 29 57.9 29.9 57 30.6 55.8 C 31.4 54.7 31.9 53.3 32.1 52.3 C 31.9 52.1 31.6 52 31.3 52 C 29.1 52 27.7 55.4 27.7 57 C 27.7 57.5 27.9 57.9 28.3 57.9 Z M 35.2 56.6 C 35.4 56.6 35.5 56.7 35.6 57 C 35.8 57.7 36.4 58.2 36.9 58.2 C 37.5 58.2 37.9 57.8 37.9 57.1 C 37.9 56.6 37.5 56 36.9 55.5 C 36.2 54.9 35.7 54.3 35.7 53.5 C 35.7 52.4 36.5 51.5 38 51.5 C 39.2 51.5 39.7 52.1 39.7 52.6 C 39.7 53 39.3 53.2 39.1 53.2 C 38.9 53.2 38.7 53.1 38.7 52.9 C 38.4 52.3 38 52 37.6 52 C 37 52 36.7 52.4 36.7 52.9 C 36.7 53.3 36.8 53.7 37.7 54.4 C 38.6 55.2 39 55.8 39 56.6 C 39 57.7 38.1 58.7 36.5 58.7 C 35.2 58.7 34.4 57.9 34.4 57.3 C 34.4 57 34.8 56.6 35.2 56.6 Z M 45.4 51.5 C 45.8 51.5 46.2 51.6 46.4 51.8 C 46.43 51.77 46.5 51.6 46.5 51.6 L 47.7 51.6 C 47.7 51.6 46.19 57.17 46.2 57.2 C 46.1 57.6 46 57.9 46.3 57.9 C 46.7 57.9 47.3 56.9 47.6 56.5 C 47.6 56.5 47.9 56.7 47.9 56.7 C 47.4 57.7 46.7 58.7 45.6 58.7 C 44.8 58.7 44.7 58.1 45 57.1 C 44.99 57.1 45.5 55.5 45.5 55.5 C 45.5 55.5 45.43 55.5 45.4 55.5 C 44.6 56.9 43.3 58.7 41.8 58.7 C 40.9 58.7 40.5 57.8 40.5 57 C 40.5 55.2 42.1 51.5 45.4 51.5 Z M 42.5 57.9 C 43.2 57.9 44 57 44.8 55.8 C 45.5 54.7 46 53.3 46.3 52.3 C 46.1 52.1 45.8 52 45.4 52 C 43.2 52 41.9 55.4 41.9 57 C 41.9 57.5 42 57.9 42.5 57.9 Z M 49.3 56.6 C 49.5 56.6 49.7 56.7 49.8 57 C 50 57.7 50.5 58.2 51 58.2 C 51.6 58.2 52 57.8 52 57.1 C 52 56.6 51.7 56 51.1 55.5 C 50.3 54.9 49.8 54.3 49.8 53.5 C 49.8 52.4 50.7 51.5 52.1 51.5 C 53.3 51.5 53.9 52.1 53.9 52.6 C 53.9 53 53.5 53.2 53.2 53.2 C 53 53.2 52.9 53.1 52.8 52.9 C 52.5 52.3 52.2 52 51.7 52 C 51.2 52 50.8 52.4 50.8 52.9 C 50.8 53.3 51 53.7 51.8 54.4 C 52.8 55.2 53.1 55.8 53.1 56.6 C 53.1 57.7 52.2 58.7 50.7 58.7 C 49.4 58.7 48.6 57.9 48.6 57.3 C 48.6 57 48.9 56.6 49.3 56.6 Z M 59.5 51.5 C 59.9 51.5 60.3 51.6 60.6 51.8 C 60.57 51.77 60.6 51.6 60.6 51.6 L 61.8 51.6 C 61.8 51.6 60.33 57.17 60.3 57.2 C 60.2 57.6 60.2 57.9 60.5 57.9 C 60.9 57.9 61.5 56.9 61.7 56.5 C 61.7 56.5 62.1 56.7 62.1 56.7 C 61.6 57.7 60.8 58.7 59.7 58.7 C 59 58.7 58.8 58.1 59.1 57.1 C 59.13 57.1 59.6 55.5 59.6 55.5 C 59.6 55.5 59.57 55.5 59.6 55.5 C 58.8 56.9 57.5 58.7 56 58.7 C 55 58.7 54.6 57.8 54.6 57 C 54.6 55.2 56.2 51.5 59.5 51.5 Z M 56.6 57.9 C 57.3 57.9 58.1 57 58.9 55.8 C 59.7 54.7 60.2 53.3 60.4 52.3 C 60.2 52.1 59.9 52 59.6 52 C 57.4 52 56 55.4 56 57 C 56 57.5 56.2 57.9 56.6 57.9 Z M 64.5 57.9 C 64.5 57.9 64.5 57.9 64.5 57.9 C 64 57.6 63.5 57.3 63.5 56.8 C 63.5 56.3 64.4 56 64.8 55.8 C 64.8 55.8 64.8 55.8 64.8 55.8 C 64.4 55.6 63.6 55.1 63.6 54 C 63.6 53.1 64.3 51.5 66.6 51.5 C 67.3 51.5 68 51.7 68.4 51.9 C 68.37 51.89 70.4 51.3 70.4 51.3 L 70.5 51.5 L 70 52.3 C 70 52.3 68.84 52.51 68.8 52.5 C 69 52.7 69.1 53.1 69.1 53.5 C 69.1 54.9 68.1 56 66.1 56 C 65.9 56 65.6 56 65.4 55.9 C 65 56 64.7 56.2 64.7 56.5 C 64.7 56.9 65.3 57.1 66.4 57.4 C 68.1 57.7 68.9 58.5 68.9 59.6 C 68.9 61.1 67.4 61.9 65.5 61.9 C 63.7 61.9 62.4 61.1 62.4 59.8 C 62.4 58.7 63.6 58.1 64.5 57.9 Z M 65.8 61.4 C 66.8 61.4 67.7 60.9 67.7 59.8 C 67.7 58.6 66 58.3 65.2 58.1 C 64.6 58.2 63.7 58.7 63.7 59.7 C 63.7 60.7 64.6 61.4 65.8 61.4 Z M 66.1 55.5 C 67.2 55.5 67.8 54.4 67.8 53.1 C 67.8 52.2 67.1 52 66.7 52 C 65.4 52 65 53.4 65 54.3 C 65 55 65.4 55.5 66.1 55.5 Z M 74.7 51.5 C 75.8 51.5 77.2 52 77.2 53.9 C 77.2 54.7 76.9 55.9 76.3 56.9 C 75.6 57.9 74.7 58.7 73.1 58.7 C 71.4 58.7 70.5 57.6 70.5 56.1 C 70.5 54.9 71.3 51.5 74.7 51.5 Z M 73.2 58.2 C 75.1 58.2 75.8 54.4 75.8 53.4 C 75.8 52.6 75.5 52 74.7 52 C 72.8 52 71.9 55.2 71.9 56.7 C 71.9 57.7 72.4 58.2 73.2 58.2 Z M 80.3 52.2 L 79.2 52.2 L 79.3 51.6 L 80.4 51.6 L 80.6 51 L 82 49.9 L 82.2 50 L 81.7 51.6 L 83.5 51.6 L 83.3 52.2 L 81.6 52.2 C 81.6 52.2 80.31 57.27 80.3 57.3 C 80.2 57.6 80.2 57.9 80.5 57.9 C 81 57.9 81.7 57 82 56.5 C 82 56.5 82.3 56.7 82.3 56.7 C 81.7 57.7 80.8 58.7 79.7 58.7 C 79 58.7 78.9 58.1 79.1 57.3 C 79.06 57.3 80.3 52.2 80.3 52.2 Z M 89.6 49.6 C 89.8 49 89.7 48.9 89.3 48.9 C 89.34 48.87 88.5 48.8 88.5 48.8 L 88.6 48.4 L 91.1 48.1 L 91.2 48.2 C 91.2 48.2 88.94 57.18 88.9 57.2 C 88.8 57.6 88.8 57.9 89.1 57.9 C 89.4 57.9 90.1 57.1 90.4 56.5 C 90.4 56.5 90.7 56.7 90.7 56.7 C 90.3 57.7 89.4 58.7 88.4 58.7 C 87.7 58.7 87.5 58.1 87.7 57.3 C 87.7 57.3 89.6 49.6 89.6 49.6 Z M 96.6 51.5 C 97 51.5 97.4 51.6 97.7 51.8 C 97.65 51.77 97.7 51.6 97.7 51.6 L 98.9 51.6 C 98.9 51.6 97.41 57.17 97.4 57.2 C 97.3 57.6 97.3 57.9 97.6 57.9 C 97.9 57.9 98.6 56.9 98.8 56.5 C 98.8 56.5 99.2 56.7 99.2 56.7 C 98.7 57.7 97.9 58.7 96.8 58.7 C 96.1 58.7 95.9 58.1 96.2 57.1 C 96.21 57.1 96.7 55.5 96.7 55.5 C 96.7 55.5 96.66 55.5 96.7 55.5 C 95.8 56.9 94.5 58.7 93 58.7 C 92.1 58.7 91.7 57.8 91.7 57 C 91.7 55.2 93.3 51.5 96.6 51.5 Z M 93.7 57.9 C 94.4 57.9 95.2 57 96 55.8 C 96.8 54.7 97.3 53.3 97.5 52.3 C 97.3 52.1 97 52 96.7 52 C 94.5 52 93.1 55.4 93.1 57 C 93.1 57.5 93.2 57.9 93.7 57.9 Z M 101.9 52.9 C 102 52.5 102 52.3 101.7 52.3 C 101.67 52.27 100.8 52.2 100.8 52.2 L 100.9 51.9 L 103.4 51.5 L 103.5 51.5 L 102.6 54.4 C 102.6 54.4 102.66 54.44 102.7 54.4 C 103.6 52.7 104.9 51.5 106.2 51.5 C 107.2 51.5 107.5 52.2 107.1 53.6 C 107.06 53.56 106.8 54.4 106.8 54.4 C 106.8 54.4 106.84 54.44 106.8 54.4 C 107.8 52.6 109.1 51.5 110.4 51.5 C 111.5 51.5 111.7 52.4 111.4 53.5 C 111.4 53.5 110.3 57.2 110.3 57.2 C 110.2 57.6 110.2 57.9 110.5 57.9 C 110.9 57.9 111.5 56.9 111.7 56.5 C 111.7 56.5 112.1 56.7 112.1 56.7 C 111.6 57.7 110.8 58.7 109.8 58.7 C 109.1 58.7 108.8 58.2 109 57.3 C 109 57.3 110.3 53.2 110.3 53.2 C 110.4 52.6 110.2 52.2 109.8 52.2 C 108.6 52.2 107.3 54.2 106.8 55.4 C 106.4 56.3 106.2 57.1 105.8 58.5 C 105.81 58.5 104.6 58.7 104.6 58.7 L 105 57.3 C 105 57.3 106 53.38 106 53.4 C 106.2 52.5 106 52.2 105.6 52.2 C 104.4 52.2 103 54.3 102.6 55.5 C 102.3 56.3 102 57.1 101.6 58.5 C 101.64 58.5 100.4 58.7 100.4 58.7 C 100.4 58.7 101.87 52.94 101.9 52.9 Z M 118.1 51.5 C 118.5 51.5 118.9 51.6 119.1 51.8 C 119.11 51.77 119.2 51.6 119.2 51.6 L 120.4 51.6 C 120.4 51.6 118.88 57.17 118.9 57.2 C 118.8 57.6 118.7 57.9 119 57.9 C 119.4 57.9 120 56.9 120.3 56.5 C 120.3 56.5 120.6 56.7 120.6 56.7 C 120.1 57.7 119.4 58.7 118.3 58.7 C 117.5 58.7 117.4 58.1 117.7 57.1 C 117.67 57.1 118.1 55.5 118.1 55.5 C 118.1 55.5 118.12 55.5 118.1 55.5 C 117.3 56.9 116 58.7 114.5 58.7 C 113.6 58.7 113.2 57.8 113.2 57 C 113.2 55.2 114.8 51.5 118.1 51.5 Z M 115.2 57.9 C 115.8 57.9 116.7 57 117.5 55.8 C 118.2 54.7 118.7 53.3 119 52.3 C 118.8 52.1 118.5 52 118.1 52 C 115.9 52 114.6 55.4 114.6 57 C 114.6 57.5 114.7 57.9 115.2 57.9 Z M 123.4 52.9 C 123.5 52.5 123.5 52.3 123.1 52.3 C 123.15 52.27 122.3 52.2 122.3 52.2 L 122.4 51.9 L 124.9 51.5 L 125 51.5 L 124.1 54.6 C 124.1 54.6 124.13 54.59 124.1 54.6 C 125 53 126.4 51.5 127.8 51.5 C 128.9 51.5 129.1 52.4 128.8 53.5 C 128.8 53.5 127.7 57.2 127.7 57.2 C 127.5 57.6 127.5 57.9 127.8 57.9 C 128.2 57.9 128.8 56.9 129.1 56.5 C 129.1 56.5 129.4 56.7 129.4 56.7 C 128.9 57.7 128.1 58.7 127.1 58.7 C 126.3 58.7 126.2 58.1 126.4 57.3 C 126.4 57.3 127.6 53.2 127.6 53.2 C 127.7 52.6 127.6 52.2 127.1 52.2 C 126 52.2 124.6 54.2 124.1 55.4 C 123.8 56.3 123.5 57.1 123.1 58.5 C 123.12 58.5 121.9 58.7 121.9 58.7 C 121.9 58.7 123.36 52.94 123.4 52.9 Z M 132.2 57.9 C 132.2 57.9 132.2 57.9 132.2 57.9 C 131.6 57.6 131.2 57.3 131.2 56.8 C 131.2 56.3 132 56 132.4 55.8 C 132.4 55.8 132.4 55.8 132.4 55.8 C 132 55.6 131.3 55.1 131.3 54 C 131.3 53.1 132 51.5 134.2 51.5 C 134.9 51.5 135.6 51.7 136 51.9 C 135.98 51.89 138 51.3 138 51.3 L 138.1 51.5 L 137.6 52.3 C 137.6 52.3 136.46 52.51 136.5 52.5 C 136.6 52.7 136.8 53.1 136.8 53.5 C 136.8 54.9 135.7 56 133.7 56 C 133.5 56 133.3 56 133 55.9 C 132.6 56 132.4 56.2 132.4 56.5 C 132.4 56.9 132.9 57.1 134.1 57.4 C 135.7 57.7 136.5 58.5 136.5 59.6 C 136.5 61.1 135 61.9 133.1 61.9 C 131.3 61.9 130 61.1 130 59.8 C 130 58.7 131.2 58.1 132.2 57.9 Z M 133.4 61.4 C 134.4 61.4 135.3 60.9 135.3 59.8 C 135.3 58.6 133.7 58.3 132.8 58.1 C 132.2 58.2 131.3 58.7 131.3 59.7 C 131.3 60.7 132.2 61.4 133.4 61.4 Z M 133.7 55.5 C 134.8 55.5 135.5 54.4 135.5 53.1 C 135.5 52.2 134.8 52 134.3 52 C 133 52 132.6 53.4 132.6 54.3 C 132.6 55 133 55.5 133.7 55.5 Z " stroke="none" fill="#000"/>
  </g>
  <g id="Polygon19287">
    <path d="M 6.7 36.9 C 6.9 36.5 6.9 36.3 6.5 36.3 C 6.53 36.27 5.7 36.2 5.7 36.2 L 5.7 35.9 L 8.3 35.5 L 8.4 35.5 L 7.5 38.6 C 7.5 38.6 7.51 38.59 7.5 38.6 C 8.3 37 9.8 35.5 11.1 35.5 C 12.3 35.5 12.5 36.4 12.1 37.5 C 12.1 37.5 11.1 41.2 11.1 41.2 C 10.9 41.6 10.9 41.9 11.2 41.9 C 11.6 41.9 12.2 40.9 12.5 40.5 C 12.5 40.5 12.8 40.7 12.8 40.7 C 12.3 41.7 11.5 42.7 10.5 42.7 C 9.7 42.7 9.5 42.1 9.8 41.3 C 9.8 41.3 11 37.2 11 37.2 C 11.1 36.6 11 36.2 10.5 36.2 C 9.4 36.2 8 38.2 7.5 39.4 C 7.1 40.3 6.9 41.1 6.5 42.5 C 6.5 42.5 5.3 42.7 5.3 42.7 C 5.3 42.7 6.74 36.94 6.7 36.9 Z M 15.5 41.9 C 15.5 41.9 15.5 41.9 15.5 41.9 C 15 41.6 14.6 41.3 14.6 40.8 C 14.6 40.3 15.4 40 15.8 39.8 C 15.8 39.8 15.8 39.8 15.8 39.8 C 15.4 39.6 14.6 39.1 14.6 38 C 14.6 37.1 15.3 35.5 17.6 35.5 C 18.3 35.5 19 35.7 19.4 35.9 C 19.37 35.89 21.4 35.3 21.4 35.3 L 21.5 35.5 L 21 36.3 C 21 36.3 19.84 36.51 19.8 36.5 C 20 36.7 20.1 37.1 20.1 37.5 C 20.1 38.9 19.1 40 17.1 40 C 16.9 40 16.6 40 16.4 39.9 C 16 40 15.7 40.2 15.7 40.5 C 15.7 40.9 16.3 41.1 17.4 41.4 C 19.1 41.7 19.9 42.5 19.9 43.6 C 19.9 45.1 18.4 45.9 16.5 45.9 C 14.7 45.9 13.4 45.1 13.4 43.8 C 13.4 42.7 14.6 42.1 15.5 41.9 Z M 16.8 45.4 C 17.8 45.4 18.7 44.9 18.7 43.8 C 18.7 42.6 17 42.3 16.2 42.1 C 15.6 42.2 14.7 42.7 14.7 43.7 C 14.7 44.7 15.6 45.4 16.8 45.4 Z M 17.1 39.5 C 18.2 39.5 18.8 38.4 18.8 37.1 C 18.8 36.2 18.1 36 17.7 36 C 16.4 36 16 37.4 16 38.3 C 16 39 16.4 39.5 17.1 39.5 Z M 22.2 35.9 L 24.8 35.5 L 24.8 35.5 C 24.8 35.5 23.5 40.71 23.5 40.7 C 23.3 41.5 23.4 41.9 23.8 41.9 C 25 41.9 26.2 40.1 26.8 38.7 C 27.2 37.8 27.4 37.1 27.8 35.6 C 27.84 35.64 29.1 35.5 29.1 35.5 C 29.1 35.5 27.58 41.18 27.6 41.2 C 27.5 41.6 27.5 41.9 27.8 41.9 C 28.2 41.9 28.8 40.9 29.1 40.5 C 29.1 40.5 29.4 40.7 29.4 40.7 C 28.9 41.7 28.1 42.7 27.1 42.7 C 26.3 42.7 26.1 42.1 26.4 41.2 C 26.41 41.16 26.9 39.6 26.9 39.6 C 26.9 39.6 26.84 39.56 26.8 39.6 C 26 41.2 24.5 42.7 23.2 42.7 C 22.1 42.7 22 41.8 22.2 40.6 C 22.2 40.6 23.2 36.9 23.2 36.9 C 23.3 36.5 23.3 36.3 23 36.3 C 23.01 36.27 22.1 36.2 22.1 36.2 L 22.2 35.9 Z M 32.3 36.9 C 32.4 36.5 32.4 36.3 32.1 36.3 C 32.08 36.27 31.2 36.2 31.2 36.2 L 31.3 35.9 L 33.9 35.5 L 33.9 35.5 L 33 38.6 C 33 38.6 33.06 38.59 33.1 38.6 C 33.9 37 35.4 35.5 36.7 35.5 C 37.8 35.5 38 36.4 37.7 37.5 C 37.7 37.5 36.6 41.2 36.6 41.2 C 36.5 41.6 36.5 41.9 36.7 41.9 C 37.1 41.9 37.7 40.9 38 40.5 C 38 40.5 38.3 40.7 38.3 40.7 C 37.9 41.7 37.1 42.7 36 42.7 C 35.3 42.7 35.1 42.1 35.3 41.3 C 35.3 41.3 36.5 37.2 36.5 37.2 C 36.7 36.6 36.5 36.2 36.1 36.2 C 34.9 36.2 33.6 38.2 33.1 39.4 C 32.7 40.3 32.5 41.1 32 42.5 C 32.05 42.5 30.8 42.7 30.8 42.7 C 30.8 42.7 32.29 36.94 32.3 36.9 Z M 42.8 32.5 C 43.2 32.5 43.6 32.7 43.6 33.3 C 43.6 33.8 43.2 34.2 42.7 34.2 C 42.3 34.2 41.9 33.9 41.9 33.4 C 41.9 33 42.2 32.5 42.8 32.5 Z M 41.4 36.9 C 41.5 36.4 41.5 36.3 41.1 36.3 C 41.08 36.27 40.3 36.2 40.3 36.2 L 40.4 35.9 L 42.9 35.5 L 43 35.5 C 43 35.5 41.46 41.17 41.5 41.2 C 41.3 41.6 41.3 41.9 41.6 41.9 C 42 41.9 42.6 40.9 42.9 40.5 C 42.9 40.5 43.2 40.7 43.2 40.7 C 42.7 41.7 41.9 42.7 40.9 42.7 C 40.2 42.7 40 42.1 40.2 41.3 C 40.2 41.3 41.4 36.9 41.4 36.9 Z M 46.4 36.2 L 45.2 36.2 L 45.4 35.6 L 46.5 35.6 L 46.7 35 L 48.1 33.9 L 48.2 34 L 47.7 35.6 L 49.5 35.6 L 49.4 36.2 L 47.6 36.2 C 47.6 36.2 46.37 41.27 46.4 41.3 C 46.3 41.6 46.3 41.9 46.6 41.9 C 47 41.9 47.7 41 48.1 40.5 C 48.1 40.5 48.4 40.7 48.4 40.7 C 47.8 41.7 46.9 42.7 45.8 42.7 C 45.1 42.7 44.9 42.1 45.1 41.3 C 45.13 41.3 46.4 36.2 46.4 36.2 Z M 50.2 42.5 C 50.2 42.2 50.2 42 50.1 41.8 C 50 41.6 49.9 41.5 49.9 41.3 C 49.9 40.9 50.2 40.5 50.7 40.5 C 51.2 40.5 51.5 41 51.5 41.5 C 51.5 42.7 50.3 43.6 49.5 44.4 C 49.5 44.4 49.2 44.1 49.2 44.1 C 49.7 43.6 50.2 43.1 50.2 42.5 Z M 57.2 40.6 C 57.4 40.6 57.6 40.7 57.6 41 C 57.9 41.7 58.4 42.2 58.9 42.2 C 59.5 42.2 59.9 41.8 59.9 41.1 C 59.9 40.6 59.5 40 58.9 39.5 C 58.2 38.9 57.7 38.3 57.7 37.5 C 57.7 36.4 58.6 35.5 60 35.5 C 61.2 35.5 61.8 36.1 61.8 36.6 C 61.8 37 61.4 37.2 61.1 37.2 C 60.9 37.2 60.8 37.1 60.7 36.9 C 60.4 36.3 60 36 59.6 36 C 59.1 36 58.7 36.4 58.7 36.9 C 58.7 37.3 58.9 37.7 59.7 38.4 C 60.6 39.2 61 39.8 61 40.6 C 61 41.7 60.1 42.7 58.6 42.7 C 57.2 42.7 56.5 41.9 56.5 41.3 C 56.5 41 56.8 40.6 57.2 40.6 Z M 67.4 35.5 C 67.8 35.5 68.2 35.6 68.4 35.8 C 68.45 35.77 68.5 35.6 68.5 35.6 L 69.7 35.6 C 69.7 35.6 68.21 41.17 68.2 41.2 C 68.1 41.6 68.1 41.9 68.4 41.9 C 68.7 41.9 69.4 40.9 69.6 40.5 C 69.6 40.5 69.9 40.7 69.9 40.7 C 69.5 41.7 68.7 42.7 67.6 42.7 C 66.9 42.7 66.7 42.1 67 41.1 C 67.01 41.1 67.5 39.5 67.5 39.5 C 67.5 39.5 67.46 39.5 67.5 39.5 C 66.6 40.9 65.3 42.7 63.8 42.7 C 62.9 42.7 62.5 41.8 62.5 41 C 62.5 39.2 64.1 35.5 67.4 35.5 Z M 64.5 41.9 C 65.2 41.9 66 41 66.8 39.8 C 67.6 38.7 68.1 37.3 68.3 36.3 C 68.1 36.1 67.8 36 67.5 36 C 65.3 36 63.9 39.4 63.9 41 C 63.9 41.5 64 41.9 64.5 41.9 Z M 73.1 33.6 C 73.2 33 73.1 32.9 72.8 32.9 C 72.78 32.87 72 32.8 72 32.8 L 72.1 32.4 L 74.6 32.1 L 74.6 32.2 L 73.1 38.4 C 73.1 38.4 73.11 38.36 73.1 38.4 C 74.2 36.4 75.6 35.5 76.6 35.5 C 77.7 35.5 78.1 36.2 78.1 37.2 C 78.1 37.9 77.9 39.1 77.2 40.3 C 76.5 41.6 75.3 42.7 73.7 42.7 C 72.9 42.7 72.2 42.3 71.9 41.7 C 71.94 41.69 71.5 42.5 71.5 42.5 L 71 42.5 C 71 42.5 73.06 33.55 73.1 33.6 Z M 73.9 42.2 C 75.9 42.2 76.8 38.4 76.8 37.4 C 76.8 36.6 76.5 36.2 76 36.2 C 75.1 36.2 74.1 37.4 73.5 38.5 C 73 39.3 72.7 40.3 72.7 41 C 72.7 41.7 73.2 42.2 73.9 42.2 Z M 82.4 32.5 C 82.8 32.5 83.2 32.7 83.2 33.3 C 83.2 33.8 82.8 34.2 82.3 34.2 C 81.9 34.2 81.5 33.9 81.5 33.4 C 81.5 33 81.8 32.5 82.4 32.5 Z M 81 36.9 C 81.1 36.4 81 36.3 80.7 36.3 C 80.66 36.27 79.9 36.2 79.9 36.2 L 79.9 35.9 L 82.5 35.5 L 82.6 35.5 C 82.6 35.5 81.04 41.17 81 41.2 C 80.9 41.6 80.9 41.9 81.2 41.9 C 81.6 41.9 82.2 40.9 82.4 40.5 C 82.4 40.5 82.8 40.7 82.8 40.7 C 82.3 41.7 81.5 42.7 80.5 42.7 C 79.7 42.7 79.6 42.1 79.8 41.3 C 79.8 41.3 81 36.9 81 36.9 Z M 89.4 36.9 C 89.5 36.5 89.5 36.3 89.2 36.3 C 89.15 36.27 88.3 36.2 88.3 36.2 L 88.4 35.9 L 90.9 35.5 L 91 35.5 L 90.1 38.6 C 90.1 38.6 90.13 38.59 90.1 38.6 C 91 37 92.4 35.5 93.8 35.5 C 94.9 35.5 95.1 36.4 94.8 37.5 C 94.8 37.5 93.7 41.2 93.7 41.2 C 93.6 41.6 93.5 41.9 93.8 41.9 C 94.2 41.9 94.8 40.9 95.1 40.5 C 95.1 40.5 95.4 40.7 95.4 40.7 C 94.9 41.7 94.2 42.7 93.1 42.7 C 92.3 42.7 92.2 42.1 92.4 41.3 C 92.4 41.3 93.6 37.2 93.6 37.2 C 93.7 36.6 93.6 36.2 93.1 36.2 C 92 36.2 90.7 38.2 90.1 39.4 C 89.8 40.3 89.5 41.1 89.1 42.5 C 89.13 42.5 87.9 42.7 87.9 42.7 C 87.9 42.7 89.36 36.94 89.4 36.9 Z M 98.2 41.9 C 98.2 41.9 98.2 41.9 98.2 41.9 C 97.6 41.6 97.2 41.3 97.2 40.8 C 97.2 40.3 98 40 98.5 39.8 C 98.5 39.8 98.5 39.8 98.5 39.8 C 98 39.6 97.3 39.1 97.3 38 C 97.3 37.1 98 35.5 100.3 35.5 C 100.9 35.5 101.6 35.7 102 35.9 C 101.99 35.89 104 35.3 104 35.3 L 104.1 35.5 L 103.6 36.3 C 103.6 36.3 102.47 36.51 102.5 36.5 C 102.7 36.7 102.8 37.1 102.8 37.5 C 102.8 38.9 101.7 40 99.7 40 C 99.5 40 99.3 40 99 39.9 C 98.6 40 98.4 40.2 98.4 40.5 C 98.4 40.9 98.9 41.1 100.1 41.4 C 101.7 41.7 102.5 42.5 102.5 43.6 C 102.5 45.1 101 45.9 99.1 45.9 C 97.3 45.9 96 45.1 96 43.8 C 96 42.7 97.2 42.1 98.2 41.9 Z M 99.4 45.4 C 100.5 45.4 101.3 44.9 101.3 43.8 C 101.3 42.6 99.7 42.3 98.8 42.1 C 98.2 42.2 97.3 42.7 97.3 43.7 C 97.3 44.7 98.2 45.4 99.4 45.4 Z M 99.8 39.5 C 100.8 39.5 101.5 38.4 101.5 37.1 C 101.5 36.2 100.8 36 100.4 36 C 99 36 98.6 37.4 98.6 38.3 C 98.6 39 99 39.5 99.8 39.5 Z M 108.9 35.5 C 109.2 35.5 109.6 35.6 109.9 35.8 C 109.87 35.77 109.9 35.6 109.9 35.6 L 111.1 35.6 C 111.1 35.6 109.64 41.17 109.6 41.2 C 109.5 41.6 109.5 41.9 109.8 41.9 C 110.2 41.9 110.8 40.9 111 40.5 C 111 40.5 111.4 40.7 111.4 40.7 C 110.9 41.7 110.1 42.7 109 42.7 C 108.3 42.7 108.1 42.1 108.4 41.1 C 108.43 41.1 108.9 39.5 108.9 39.5 C 108.9 39.5 108.88 39.5 108.9 39.5 C 108.1 40.9 106.8 42.7 105.3 42.7 C 104.3 42.7 103.9 41.8 103.9 41 C 103.9 39.2 105.5 35.5 108.9 35.5 Z M 105.9 41.9 C 106.6 41.9 107.5 41 108.2 39.8 C 109 38.7 109.5 37.3 109.7 36.3 C 109.5 36.1 109.2 36 108.9 36 C 106.7 36 105.3 39.4 105.3 41 C 105.3 41.5 105.5 41.9 105.9 41.9 Z M 117.7 36.9 C 117.8 36.5 117.8 36.3 117.5 36.3 C 117.48 36.27 116.6 36.2 116.6 36.2 L 116.7 35.9 L 119.3 35.5 L 119.3 35.5 L 118.4 38.6 C 118.4 38.6 118.46 38.59 118.5 38.6 C 119.3 37 120.8 35.5 122.1 35.5 C 123.2 35.5 123.4 36.4 123.1 37.5 C 123.1 37.5 122 41.2 122 41.2 C 121.9 41.6 121.9 41.9 122.1 41.9 C 122.5 41.9 123.1 40.9 123.4 40.5 C 123.4 40.5 123.7 40.7 123.7 40.7 C 123.3 41.7 122.5 42.7 121.4 42.7 C 120.7 42.7 120.5 42.1 120.7 41.3 C 120.7 41.3 121.9 37.2 121.9 37.2 C 122.1 36.6 121.9 36.2 121.5 36.2 C 120.3 36.2 119 38.2 118.5 39.4 C 118.1 40.3 117.9 41.1 117.4 42.5 C 117.45 42.5 116.2 42.7 116.2 42.7 C 116.2 42.7 117.69 36.94 117.7 36.9 Z M 128.2 32.5 C 128.6 32.5 129 32.7 129 33.3 C 129 33.8 128.6 34.2 128.1 34.2 C 127.7 34.2 127.3 33.9 127.3 33.4 C 127.3 33 127.6 32.5 128.2 32.5 Z M 126.8 36.9 C 126.9 36.4 126.9 36.3 126.5 36.3 C 126.48 36.27 125.7 36.2 125.7 36.2 L 125.8 35.9 L 128.3 35.5 L 128.4 35.5 C 128.4 35.5 126.86 41.17 126.9 41.2 C 126.7 41.6 126.7 41.9 127 41.9 C 127.4 41.9 128 40.9 128.3 40.5 C 128.3 40.5 128.6 40.7 128.6 40.7 C 128.1 41.7 127.3 42.7 126.3 42.7 C 125.6 42.7 125.4 42.1 125.6 41.3 C 125.6 41.3 126.8 36.9 126.8 36.9 Z M 132.3 33.6 C 132.5 33 132.4 32.9 132 32.9 C 132.04 32.87 131.2 32.8 131.2 32.8 L 131.3 32.4 L 133.8 32.1 L 133.9 32.2 C 133.9 32.2 131.64 41.18 131.6 41.2 C 131.5 41.6 131.5 41.9 131.8 41.9 C 132.1 41.9 132.8 41.1 133.1 40.5 C 133.1 40.5 133.4 40.7 133.4 40.7 C 133 41.7 132.1 42.7 131.1 42.7 C 130.4 42.7 130.2 42.1 130.4 41.3 C 130.4 41.3 132.3 33.6 132.3 33.6 Z M 139.3 35.5 C 139.7 35.5 140.1 35.6 140.4 35.8 C 140.35 35.77 140.4 35.6 140.4 35.6 L 141.6 35.6 C 141.6 35.6 140.11 41.17 140.1 41.2 C 140 41.6 140 41.9 140.3 41.9 C 140.6 41.9 141.3 40.9 141.5 40.5 C 141.5 40.5 141.9 40.7 141.9 40.7 C 141.4 41.7 140.6 42.7 139.5 42.7 C 138.8 42.7 138.6 42.1 138.9 41.1 C 138.91 41.1 139.4 39.5 139.4 39.5 C 139.4 39.5 139.36 39.5 139.4 39.5 C 138.5 40.9 137.2 42.7 135.7 42.7 C 134.8 42.7 134.4 41.8 134.4 41 C 134.4 39.2 136 35.5 139.3 35.5 Z M 136.4 41.9 C 137.1 41.9 137.9 41 138.7 39.8 C 139.5 38.7 140 37.3 140.2 36.3 C 140 36.1 139.7 36 139.4 36 C 137.2 36 135.8 39.4 135.8 41 C 135.8 41.5 135.9 41.9 136.4 41.9 Z M 143.4 42.5 C 143.4 42.2 143.3 42 143.2 41.8 C 143.2 41.6 143.1 41.5 143.1 41.3 C 143.1 40.9 143.4 40.5 143.9 40.5 C 144.4 40.5 144.7 41 144.7 41.5 C 144.7 42.7 143.5 43.6 142.6 44.4 C 142.6 44.4 142.4 44.1 142.4 44.1 C 142.9 43.6 143.3 43.1 143.4 42.5 Z " stroke="none" fill="#000"/>
  </g>
  <g id="Polygon19286">
    <path d="M 20.3 20.9 C 20.4 20.5 20.5 20.3 20.1 20.3 C 20.13 20.27 19.3 20.2 19.3 20.2 L 19.4 19.9 L 21.9 19.5 L 22 19.5 L 21.1 22.4 C 21.1 22.4 21.12 22.44 21.1 22.4 C 22.1 20.7 23.4 19.5 24.7 19.5 C 25.7 19.5 25.9 20.2 25.5 21.6 C 25.52 21.56 25.2 22.4 25.2 22.4 C 25.2 22.4 25.29 22.44 25.3 22.4 C 26.3 20.6 27.6 19.5 28.8 19.5 C 30 19.5 30.2 20.4 29.9 21.5 C 29.9 21.5 28.8 25.2 28.8 25.2 C 28.7 25.6 28.6 25.9 28.9 25.9 C 29.3 25.9 29.9 24.9 30.2 24.5 C 30.2 24.5 30.5 24.7 30.5 24.7 C 30 25.7 29.3 26.7 28.2 26.7 C 27.5 26.7 27.3 26.2 27.5 25.3 C 27.5 25.3 28.7 21.2 28.7 21.2 C 28.9 20.6 28.7 20.2 28.2 20.2 C 27.1 20.2 25.8 22.2 25.3 23.4 C 24.9 24.3 24.7 25.1 24.3 26.5 C 24.27 26.5 23.1 26.7 23.1 26.7 L 23.4 25.3 C 23.4 25.3 24.45 21.38 24.5 21.4 C 24.7 20.5 24.5 20.2 24 20.2 C 22.9 20.2 21.5 22.3 21 23.5 C 20.7 24.3 20.5 25.1 20.1 26.5 C 20.1 26.5 18.9 26.7 18.9 26.7 C 18.9 26.7 20.32 20.94 20.3 20.9 Z M 33.3 25.9 C 33.3 25.9 33.3 25.9 33.3 25.9 C 32.7 25.6 32.3 25.3 32.3 24.8 C 32.3 24.3 33.1 24 33.6 23.8 C 33.6 23.8 33.6 23.8 33.6 23.8 C 33.1 23.6 32.4 23.1 32.4 22 C 32.4 21.1 33.1 19.5 35.4 19.5 C 36 19.5 36.7 19.7 37.1 19.9 C 37.1 19.89 39.1 19.3 39.1 19.3 L 39.2 19.5 L 38.7 20.3 C 38.7 20.3 37.57 20.51 37.6 20.5 C 37.8 20.7 37.9 21.1 37.9 21.5 C 37.9 22.9 36.8 24 34.8 24 C 34.6 24 34.4 24 34.1 23.9 C 33.8 24 33.5 24.2 33.5 24.5 C 33.5 24.9 34 25.1 35.2 25.4 C 36.8 25.7 37.6 26.5 37.6 27.6 C 37.6 29.1 36.1 29.9 34.2 29.9 C 32.4 29.9 31.1 29.1 31.1 27.8 C 31.1 26.7 32.3 26.1 33.3 25.9 Z M 34.5 29.4 C 35.6 29.4 36.4 28.9 36.4 27.8 C 36.4 26.6 34.8 26.3 33.9 26.1 C 33.3 26.2 32.4 26.7 32.4 27.7 C 32.4 28.7 33.3 29.4 34.5 29.4 Z M 34.9 23.5 C 35.9 23.5 36.6 22.4 36.6 21.1 C 36.6 20.2 35.9 20 35.5 20 C 34.1 20 33.7 21.4 33.7 22.3 C 33.7 23 34.1 23.5 34.9 23.5 Z M 44 19.5 C 44.3 19.5 44.7 19.6 45 19.8 C 44.98 19.77 45 19.6 45 19.6 L 46.2 19.6 C 46.2 19.6 44.74 25.17 44.7 25.2 C 44.6 25.6 44.6 25.9 44.9 25.9 C 45.3 25.9 45.9 24.9 46.1 24.5 C 46.1 24.5 46.5 24.7 46.5 24.7 C 46 25.7 45.2 26.7 44.2 26.7 C 43.4 26.7 43.2 26.1 43.5 25.1 C 43.54 25.1 44 23.5 44 23.5 C 44 23.5 43.98 23.5 44 23.5 C 43.2 24.9 41.9 26.7 40.4 26.7 C 39.4 26.7 39 25.8 39 25 C 39 23.2 40.6 19.5 44 19.5 Z M 41 25.9 C 41.7 25.9 42.6 25 43.3 23.8 C 44.1 22.7 44.6 21.3 44.8 20.3 C 44.6 20.1 44.3 20 44 20 C 41.8 20 40.4 23.4 40.4 25 C 40.4 25.5 40.6 25.9 41 25.9 Z M 53.4 17.6 C 53.5 17 53.5 16.9 53.1 16.9 C 53.13 16.87 52.3 16.8 52.3 16.8 L 52.4 16.4 L 54.9 16.1 L 55 16.2 L 52.5 26.5 L 51.2 26.7 C 51.2 26.7 53.41 17.55 53.4 17.6 Z M 55.7 20.5 C 56.4 19.9 57.1 19.5 57.6 19.5 C 58.2 19.5 58.4 19.8 58.4 20.2 C 58.4 20.5 58.1 20.9 57.7 20.9 C 57.5 20.9 57.4 20.9 57.3 20.8 C 57 20.6 56.8 20.5 56.6 20.5 C 56.1 20.5 55 21.7 54.6 22.2 C 54.9 23.1 55.2 24 55.7 24.9 C 56 25.6 56.2 25.9 56.5 25.9 C 56.8 25.9 57.2 25.4 57.6 24.5 C 57.6 24.5 57.9 24.7 57.9 24.7 C 57.5 25.9 56.9 26.7 56 26.7 C 55.3 26.7 54.9 26.2 54.5 25.3 C 54.1 24.5 53.8 23.7 53.5 22.8 C 54.2 22 54.9 21.2 55.7 20.5 Z M 63.9 19.5 C 64.2 19.5 64.6 19.6 64.9 19.8 C 64.87 19.77 64.9 19.6 64.9 19.6 L 66.1 19.6 C 66.1 19.6 64.63 25.17 64.6 25.2 C 64.5 25.6 64.5 25.9 64.8 25.9 C 65.2 25.9 65.8 24.9 66 24.5 C 66 24.5 66.4 24.7 66.4 24.7 C 65.9 25.7 65.1 26.7 64 26.7 C 63.3 26.7 63.1 26.1 63.4 25.1 C 63.43 25.1 63.9 23.5 63.9 23.5 C 63.9 23.5 63.88 23.5 63.9 23.5 C 63.1 24.9 61.8 26.7 60.3 26.7 C 59.3 26.7 58.9 25.8 58.9 25 C 58.9 23.2 60.5 19.5 63.9 19.5 Z M 60.9 25.9 C 61.6 25.9 62.5 25 63.2 23.8 C 64 22.7 64.5 21.3 64.7 20.3 C 64.5 20.1 64.2 20 63.9 20 C 61.7 20 60.3 23.4 60.3 25 C 60.3 25.5 60.5 25.9 60.9 25.9 Z M 69.3 20.2 L 68.1 20.2 L 68.3 19.6 L 69.4 19.6 L 69.6 19 L 70.9 17.9 L 71.1 18 L 70.6 19.6 L 72.4 19.6 L 72.3 20.2 L 70.5 20.2 C 70.5 20.2 69.27 25.27 69.3 25.3 C 69.2 25.6 69.2 25.9 69.5 25.9 C 69.9 25.9 70.6 25 70.9 24.5 C 70.9 24.5 71.3 24.7 71.3 24.7 C 70.7 25.7 69.8 26.7 68.7 26.7 C 68 26.7 67.8 26.1 68 25.3 C 68.02 25.3 69.3 20.2 69.3 20.2 Z M 77.3 19.5 C 77.7 19.5 78.1 19.6 78.3 19.8 C 78.34 19.77 78.4 19.6 78.4 19.6 L 79.6 19.6 C 79.6 19.6 78.1 25.17 78.1 25.2 C 78 25.6 78 25.9 78.2 25.9 C 78.6 25.9 79.2 24.9 79.5 24.5 C 79.5 24.5 79.8 24.7 79.8 24.7 C 79.4 25.7 78.6 26.7 77.5 26.7 C 76.8 26.7 76.6 26.1 76.9 25.1 C 76.9 25.1 77.4 23.5 77.4 23.5 C 77.4 23.5 77.35 23.5 77.3 23.5 C 76.5 24.9 75.2 26.7 73.7 26.7 C 72.8 26.7 72.4 25.8 72.4 25 C 72.4 23.2 74 19.5 77.3 19.5 Z M 74.4 25.9 C 75.1 25.9 75.9 25 76.7 23.8 C 77.4 22.7 77.9 21.3 78.2 20.3 C 78 20.1 77.7 20 77.3 20 C 75.1 20 73.8 23.4 73.8 25 C 73.8 25.5 73.9 25.9 74.4 25.9 Z M 82.6 20.9 C 82.7 20.5 82.7 20.3 82.4 20.3 C 82.37 20.27 81.5 20.2 81.5 20.2 L 81.6 19.9 L 84.1 19.5 L 84.2 19.5 L 83.3 22.6 C 83.3 22.6 83.35 22.59 83.4 22.6 C 84.2 21 85.6 19.5 87 19.5 C 88.1 19.5 88.3 20.4 88 21.5 C 88 21.5 86.9 25.2 86.9 25.2 C 86.8 25.6 86.8 25.9 87 25.9 C 87.4 25.9 88 24.9 88.3 24.5 C 88.3 24.5 88.6 24.7 88.6 24.7 C 88.2 25.7 87.4 26.7 86.3 26.7 C 85.6 26.7 85.4 26.1 85.6 25.3 C 85.6 25.3 86.8 21.2 86.8 21.2 C 87 20.6 86.8 20.2 86.3 20.2 C 85.2 20.2 83.9 22.2 83.4 23.4 C 83 24.3 82.7 25.1 82.3 26.5 C 82.34 26.5 81.1 26.7 81.1 26.7 C 81.1 26.7 82.58 20.94 82.6 20.9 Z M 90.7 19.9 L 93.2 19.5 L 93.3 19.5 C 93.3 19.5 91.93 24.71 91.9 24.7 C 91.7 25.5 91.8 25.9 92.3 25.9 C 93.4 25.9 94.7 24.1 95.3 22.7 C 95.6 21.8 95.9 21.1 96.3 19.6 C 96.27 19.64 97.5 19.5 97.5 19.5 C 97.5 19.5 96.02 25.18 96 25.2 C 95.9 25.6 95.9 25.9 96.2 25.9 C 96.6 25.9 97.2 24.9 97.5 24.5 C 97.5 24.5 97.8 24.7 97.8 24.7 C 97.3 25.7 96.5 26.7 95.5 26.7 C 94.7 26.7 94.6 26.1 94.8 25.2 C 94.85 25.16 95.3 23.6 95.3 23.6 C 95.3 23.6 95.28 23.56 95.3 23.6 C 94.4 25.2 93 26.7 91.6 26.7 C 90.5 26.7 90.4 25.8 90.7 24.6 C 90.7 24.6 91.7 20.9 91.7 20.9 C 91.8 20.5 91.8 20.3 91.4 20.3 C 91.44 20.27 90.6 20.2 90.6 20.2 L 90.7 19.9 Z M 100.7 20.9 C 100.9 20.5 100.9 20.3 100.5 20.3 C 100.52 20.27 99.6 20.2 99.6 20.2 L 99.7 19.9 L 102.3 19.5 L 102.4 19.5 L 101.5 22.6 C 101.5 22.6 101.5 22.59 101.5 22.6 C 102.3 21 103.8 19.5 105.1 19.5 C 106.3 19.5 106.5 20.4 106.1 21.5 C 106.1 21.5 105 25.2 105 25.2 C 104.9 25.6 104.9 25.9 105.2 25.9 C 105.6 25.9 106.2 24.9 106.4 24.5 C 106.4 24.5 106.8 24.7 106.8 24.7 C 106.3 25.7 105.5 26.7 104.5 26.7 C 103.7 26.7 103.5 26.1 103.7 25.3 C 103.7 25.3 105 21.2 105 21.2 C 105.1 20.6 105 20.2 104.5 20.2 C 103.4 20.2 102 22.2 101.5 23.4 C 101.1 24.3 100.9 25.1 100.5 26.5 C 100.49 26.5 99.3 26.7 99.3 26.7 C 99.3 26.7 100.73 20.94 100.7 20.9 Z M 109.5 25.9 C 109.5 25.9 109.5 25.9 109.5 25.9 C 109 25.6 108.5 25.3 108.5 24.8 C 108.5 24.3 109.4 24 109.8 23.8 C 109.8 23.8 109.8 23.8 109.8 23.8 C 109.4 23.6 108.6 23.1 108.6 22 C 108.6 21.1 109.3 19.5 111.6 19.5 C 112.3 19.5 113 19.7 113.4 19.9 C 113.35 19.89 115.4 19.3 115.4 19.3 L 115.5 19.5 L 115 20.3 C 115 20.3 113.83 20.51 113.8 20.5 C 114 20.7 114.1 21.1 114.1 21.5 C 114.1 22.9 113 24 111.1 24 C 110.9 24 110.6 24 110.3 23.9 C 110 24 109.7 24.2 109.7 24.5 C 109.7 24.9 110.2 25.1 111.4 25.4 C 113.1 25.7 113.9 26.5 113.9 27.6 C 113.9 29.1 112.3 29.9 110.5 29.9 C 108.7 29.9 107.4 29.1 107.4 27.8 C 107.4 26.7 108.6 26.1 109.5 25.9 Z M 110.8 29.4 C 111.8 29.4 112.7 28.9 112.7 27.8 C 112.7 26.6 111 26.3 110.1 26.1 C 109.6 26.2 108.7 26.7 108.7 27.7 C 108.7 28.7 109.5 29.4 110.8 29.4 Z M 111.1 23.5 C 112.2 23.5 112.8 22.4 112.8 21.1 C 112.8 20.2 112.1 20 111.7 20 C 110.4 20 110 21.4 110 22.3 C 110 23 110.4 23.5 111.1 23.5 Z M 120.2 19.5 C 120.6 19.5 121 19.6 121.2 19.8 C 121.24 19.77 121.3 19.6 121.3 19.6 L 122.5 19.6 C 122.5 19.6 121 25.17 121 25.2 C 120.9 25.6 120.9 25.9 121.1 25.9 C 121.5 25.9 122.1 24.9 122.4 24.5 C 122.4 24.5 122.7 24.7 122.7 24.7 C 122.3 25.7 121.5 26.7 120.4 26.7 C 119.7 26.7 119.5 26.1 119.8 25.1 C 119.79 25.1 120.3 23.5 120.3 23.5 C 120.3 23.5 120.24 23.5 120.2 23.5 C 119.4 24.9 118.1 26.7 116.6 26.7 C 115.7 26.7 115.3 25.8 115.3 25 C 115.3 23.2 116.9 19.5 120.2 19.5 Z M 117.3 25.9 C 118 25.9 118.8 25 119.6 23.8 C 120.3 22.7 120.8 21.3 121.1 20.3 C 120.9 20.1 120.6 20 120.2 20 C 118 20 116.7 23.4 116.7 25 C 116.7 25.5 116.8 25.9 117.3 25.9 Z M 125.5 20.9 C 125.6 20.5 125.6 20.3 125.3 20.3 C 125.27 20.27 124.4 20.2 124.4 20.2 L 124.5 19.9 L 127 19.5 L 127.1 19.5 L 126.2 22.6 C 126.2 22.6 126.25 22.59 126.2 22.6 C 127.1 21 128.5 19.5 129.9 19.5 C 131 19.5 131.2 20.4 130.9 21.5 C 130.9 21.5 129.8 25.2 129.8 25.2 C 129.7 25.6 129.6 25.9 129.9 25.9 C 130.3 25.9 130.9 24.9 131.2 24.5 C 131.2 24.5 131.5 24.7 131.5 24.7 C 131 25.7 130.3 26.7 129.2 26.7 C 128.5 26.7 128.3 26.1 128.5 25.3 C 128.5 25.3 129.7 21.2 129.7 21.2 C 129.9 20.6 129.7 20.2 129.2 20.2 C 128.1 20.2 126.8 22.2 126.2 23.4 C 125.9 24.3 125.6 25.1 125.2 26.5 C 125.24 26.5 124 26.7 124 26.7 C 124 26.7 125.48 20.94 125.5 20.9 Z " stroke="none" fill="#000"/>
  </g>
  <g id="Polygon19285">
    <path d="M 29.3 3.2 C 30.1 1.8 31.5 0.6 33.7 0.6 C 36 0.6 37.8 1.8 37.8 4.7 C 37.8 5.3 37.6 6.7 36.9 8 C 36.1 9.4 34.9 10.7 32.4 10.7 C 29.6 10.7 28.3 9 28.3 6.7 C 28.3 5.8 28.5 4.5 29.3 3.2 Z M 32.3 10.2 C 34.1 10.2 35.1 8.9 35.6 7.4 C 36.2 5.9 36.3 4.8 36.3 4 C 36.3 2 35.3 1.1 33.8 1.1 C 32.3 1.1 31.3 2.1 30.6 3.4 C 30 4.8 29.8 6.1 29.8 7.3 C 29.8 9.2 30.8 10.2 32.3 10.2 Z M 43 3.5 C 44.1 3.5 45.5 4 45.5 5.9 C 45.5 6.7 45.2 7.9 44.6 8.9 C 43.9 9.9 43 10.7 41.4 10.7 C 39.7 10.7 38.9 9.6 38.9 8.1 C 38.9 6.9 39.7 3.5 43 3.5 Z M 41.5 10.2 C 43.4 10.2 44.1 6.4 44.1 5.4 C 44.1 4.6 43.8 4 43 4 C 41.1 4 40.2 7.2 40.2 8.7 C 40.2 9.7 40.7 10.2 41.5 10.2 Z M 47 10.5 C 47 10.2 46.9 10 46.8 9.8 C 46.7 9.6 46.7 9.5 46.7 9.3 C 46.7 8.9 47 8.5 47.4 8.5 C 48 8.5 48.2 9 48.2 9.5 C 48.2 10.7 47.1 11.6 46.2 12.4 C 46.2 12.4 46 12.1 46 12.1 C 46.5 11.6 46.9 11.1 47 10.5 Z M 55.3 4.9 C 55.4 4.5 55.4 4.3 55.1 4.3 C 55.09 4.27 54.2 4.2 54.2 4.2 L 54.3 3.9 L 56.9 3.5 L 56.9 3.5 L 56 6.4 C 56 6.4 56.09 6.44 56.1 6.4 C 57.1 4.7 58.4 3.5 59.6 3.5 C 60.6 3.5 60.9 4.2 60.5 5.6 C 60.48 5.56 60.2 6.4 60.2 6.4 C 60.2 6.4 60.26 6.44 60.3 6.4 C 61.3 4.6 62.5 3.5 63.8 3.5 C 65 3.5 65.1 4.4 64.8 5.5 C 64.8 5.5 63.7 9.2 63.7 9.2 C 63.6 9.6 63.6 9.9 63.9 9.9 C 64.3 9.9 64.9 8.9 65.1 8.5 C 65.1 8.5 65.5 8.7 65.5 8.7 C 65 9.7 64.2 10.7 63.2 10.7 C 62.5 10.7 62.2 10.2 62.5 9.3 C 62.5 9.3 63.7 5.2 63.7 5.2 C 63.9 4.6 63.7 4.2 63.2 4.2 C 62 4.2 60.7 6.2 60.2 7.4 C 59.9 8.3 59.6 9.1 59.2 10.5 C 59.24 10.5 58 10.7 58 10.7 L 58.4 9.3 C 58.4 9.3 59.42 5.38 59.4 5.4 C 59.6 4.5 59.4 4.2 59 4.2 C 57.8 4.2 56.5 6.3 56 7.5 C 55.7 8.3 55.5 9.1 55.1 10.5 C 55.07 10.5 53.8 10.7 53.8 10.7 C 53.8 10.7 55.29 4.94 55.3 4.9 Z M 71.5 3.5 C 71.9 3.5 72.3 3.6 72.5 3.8 C 72.54 3.77 72.6 3.6 72.6 3.6 L 73.8 3.6 C 73.8 3.6 72.3 9.17 72.3 9.2 C 72.2 9.6 72.2 9.9 72.4 9.9 C 72.8 9.9 73.4 8.9 73.7 8.5 C 73.7 8.5 74 8.7 74 8.7 C 73.6 9.7 72.8 10.7 71.7 10.7 C 71 10.7 70.8 10.1 71.1 9.1 C 71.1 9.1 71.6 7.5 71.6 7.5 C 71.6 7.5 71.54 7.5 71.5 7.5 C 70.7 8.9 69.4 10.7 67.9 10.7 C 67 10.7 66.6 9.8 66.6 9 C 66.6 7.2 68.2 3.5 71.5 3.5 Z M 68.6 9.9 C 69.3 9.9 70.1 9 70.9 7.8 C 71.6 6.7 72.1 5.3 72.4 4.3 C 72.2 4.1 71.9 4 71.5 4 C 69.3 4 68 7.4 68 9 C 68 9.5 68.1 9.9 68.6 9.9 Z M 76.7 4.9 C 76.8 4.5 76.8 4.3 76.5 4.3 C 76.47 4.27 75.6 4.2 75.6 4.2 L 75.7 3.9 L 78.1 3.5 L 78.2 3.5 L 77.5 5.9 C 77.5 5.9 77.56 5.87 77.6 5.9 C 78.3 4.4 79.3 3.5 80.1 3.5 C 80.5 3.5 80.7 3.7 80.7 4.1 C 80.7 4.5 80.4 5 80 5 C 79.6 5 79.5 4.6 79.1 4.6 C 78.5 4.6 77.8 5.8 77.3 7.6 C 77.1 8.5 76.8 9.6 76.6 10.5 C 76.6 10.5 75.4 10.7 75.4 10.7 C 75.4 10.7 76.68 4.94 76.7 4.9 Z M 85.6 3.5 C 85.9 3.5 86.3 3.6 86.6 3.8 C 86.58 3.77 86.6 3.6 86.6 3.6 L 87.8 3.6 C 87.8 3.6 86.34 9.17 86.3 9.2 C 86.2 9.6 86.2 9.9 86.5 9.9 C 86.9 9.9 87.5 8.9 87.7 8.5 C 87.7 8.5 88.1 8.7 88.1 8.7 C 87.6 9.7 86.8 10.7 85.8 10.7 C 85 10.7 84.8 10.1 85.1 9.1 C 85.14 9.1 85.6 7.5 85.6 7.5 C 85.6 7.5 85.59 7.5 85.6 7.5 C 84.8 8.9 83.5 10.7 82 10.7 C 81 10.7 80.6 9.8 80.6 9 C 80.6 7.2 82.2 3.5 85.6 3.5 Z M 82.6 9.9 C 83.3 9.9 84.2 9 84.9 7.8 C 85.7 6.7 86.2 5.3 86.4 4.3 C 86.2 4.1 85.9 4 85.6 4 C 83.4 4 82 7.4 82 9 C 82 9.5 82.2 9.9 82.6 9.9 Z M 90.8 4.9 C 90.9 4.5 90.9 4.3 90.6 4.3 C 90.6 4.27 89.7 4.2 89.7 4.2 L 89.8 3.9 L 92.4 3.5 L 92.4 3.5 L 91.5 6.4 C 91.5 6.4 91.59 6.44 91.6 6.4 C 92.6 4.7 93.9 3.5 95.1 3.5 C 96.1 3.5 96.4 4.2 96 5.6 C 95.99 5.56 95.7 6.4 95.7 6.4 C 95.7 6.4 95.76 6.44 95.8 6.4 C 96.8 4.6 98 3.5 99.3 3.5 C 100.5 3.5 100.6 4.4 100.3 5.5 C 100.3 5.5 99.2 9.2 99.2 9.2 C 99.1 9.6 99.1 9.9 99.4 9.9 C 99.8 9.9 100.4 8.9 100.6 8.5 C 100.6 8.5 101 8.7 101 8.7 C 100.5 9.7 99.7 10.7 98.7 10.7 C 98 10.7 97.7 10.2 98 9.3 C 98 9.3 99.2 5.2 99.2 5.2 C 99.4 4.6 99.2 4.2 98.7 4.2 C 97.5 4.2 96.3 6.2 95.7 7.4 C 95.4 8.3 95.1 9.1 94.7 10.5 C 94.74 10.5 93.5 10.7 93.5 10.7 L 93.9 9.3 C 93.9 9.3 94.92 5.38 94.9 5.4 C 95.1 4.5 94.9 4.2 94.5 4.2 C 93.3 4.2 92 6.3 91.5 7.5 C 91.2 8.3 91 9.1 90.6 10.5 C 90.57 10.5 89.4 10.7 89.4 10.7 C 89.4 10.7 90.79 4.94 90.8 4.9 Z M 105.5 0.5 C 105.9 0.5 106.2 0.7 106.2 1.3 C 106.2 1.8 105.9 2.2 105.4 2.2 C 104.9 2.2 104.6 1.9 104.6 1.4 C 104.6 1 104.9 0.5 105.5 0.5 Z M 104 4.9 C 104.1 4.4 104.1 4.3 103.7 4.3 C 103.73 4.27 102.9 4.2 102.9 4.2 L 103 3.9 L 105.6 3.5 L 105.6 3.5 C 105.6 3.5 104.11 9.17 104.1 9.2 C 104 9.6 104 9.9 104.2 9.9 C 104.6 9.9 105.3 8.9 105.5 8.5 C 105.5 8.5 105.8 8.7 105.8 8.7 C 105.4 9.7 104.6 10.7 103.6 10.7 C 102.8 10.7 102.6 10.1 102.8 9.3 C 102.8 9.3 104 4.9 104 4.9 Z M 108.9 4.9 C 109 4.5 109 4.3 108.7 4.3 C 108.66 4.27 107.8 4.2 107.8 4.2 L 107.9 3.9 L 110.4 3.5 L 110.5 3.5 L 109.6 6.6 C 109.6 6.6 109.64 6.59 109.6 6.6 C 110.5 5 111.9 3.5 113.3 3.5 C 114.4 3.5 114.6 4.4 114.3 5.5 C 114.3 5.5 113.2 9.2 113.2 9.2 C 113.1 9.6 113 9.9 113.3 9.9 C 113.7 9.9 114.3 8.9 114.6 8.5 C 114.6 8.5 114.9 8.7 114.9 8.7 C 114.4 9.7 113.7 10.7 112.6 10.7 C 111.8 10.7 111.7 10.1 111.9 9.3 C 111.9 9.3 113.1 5.2 113.1 5.2 C 113.2 4.6 113.1 4.2 112.6 4.2 C 111.5 4.2 110.2 6.2 109.6 7.4 C 109.3 8.3 109 9.1 108.6 10.5 C 108.63 10.5 107.4 10.7 107.4 10.7 C 107.4 10.7 108.87 4.94 108.9 4.9 Z M 117.7 9.9 C 117.7 9.9 117.7 9.9 117.7 9.9 C 117.1 9.6 116.7 9.3 116.7 8.8 C 116.7 8.3 117.5 8 118 7.8 C 118 7.8 118 7.8 118 7.8 C 117.5 7.6 116.8 7.1 116.8 6 C 116.8 5.1 117.5 3.5 119.8 3.5 C 120.4 3.5 121.1 3.7 121.5 3.9 C 121.49 3.89 123.5 3.3 123.5 3.3 L 123.6 3.5 L 123.1 4.3 C 123.1 4.3 121.97 4.51 122 4.5 C 122.2 4.7 122.3 5.1 122.3 5.5 C 122.3 6.9 121.2 8 119.2 8 C 119 8 118.8 8 118.5 7.9 C 118.1 8 117.9 8.2 117.9 8.5 C 117.9 8.9 118.4 9.1 119.6 9.4 C 121.2 9.7 122 10.5 122 11.6 C 122 13.1 120.5 13.9 118.6 13.9 C 116.8 13.9 115.5 13.1 115.5 11.8 C 115.5 10.7 116.7 10.1 117.7 9.9 Z M 118.9 13.4 C 120 13.4 120.8 12.9 120.8 11.8 C 120.8 10.6 119.2 10.3 118.3 10.1 C 117.7 10.2 116.8 10.7 116.8 11.7 C 116.8 12.7 117.7 13.4 118.9 13.4 Z M 119.3 7.5 C 120.3 7.5 121 6.4 121 5.1 C 121 4.2 120.3 4 119.9 4 C 118.5 4 118.1 5.4 118.1 6.3 C 118.1 7 118.5 7.5 119.3 7.5 Z " stroke="none" fill="#000"/>
  </g>
</svg>