<?xml version="1.0" standalone="no"?>
<!DOCTYPE svg PUBLIC "-//W3C//DTD SVG 1.1//EN" "http://www.w3.org/Graphics/SVG/1.1/DTD/svg11.dtd">
<svg xmlns="http://www.w3.org/2000/svg" version="1.1" width="68px" height="12.3px" viewBox="0 -2 68 12.3" style="top:-2px">
  <desc>Kuha ni Bella Bernal</desc>
  <defs/>
  <g id="Polygon15919">
    <path d="M 0.4 1.1 L 1 1.1 L 1 7.1 L 0.4 7.1 L 0.4 1.1 Z M 4 1.6 L 4.7 1.6 L 4.3 3.5 L 4.3 3.5 L 6.5 1.6 L 7.5 1.6 L 5.4 3.3 L 6.8 5.8 L 5.9 5.8 L 4.9 3.8 L 4.1 4.4 L 3.8 5.8 L 3.1 5.8 L 4 1.6 Z M 9.8 5.8 L 9.2 5.8 L 9.3 5.3 C 9.3 5.3 9.27 5.33 9.3 5.3 C 9.1 5.5 9 5.6 8.8 5.7 C 8.6 5.8 8.4 5.9 8.2 5.9 C 7.9 5.9 7.7 5.8 7.5 5.7 C 7.4 5.5 7.3 5.3 7.3 5.1 C 7.3 5 7.3 4.9 7.3 4.9 C 7.3 4.8 7.3 4.7 7.3 4.7 C 7.35 4.68 7.8 2.7 7.8 2.7 L 8.4 2.7 C 8.4 2.7 8.04 4.62 8 4.6 C 8 4.7 8 4.7 8 4.8 C 8 4.8 8 4.9 8 4.9 C 8 4.9 8 5 8 5 C 8 5.1 8 5.1 8 5.2 C 8.1 5.2 8.1 5.3 8.2 5.3 C 8.2 5.3 8.3 5.3 8.5 5.3 C 8.6 5.3 8.7 5.3 8.8 5.3 C 8.9 5.2 9 5.1 9.1 5 C 9.2 4.9 9.3 4.8 9.3 4.7 C 9.4 4.6 9.4 4.5 9.4 4.4 C 9.44 4.38 9.8 2.7 9.8 2.7 L 10.5 2.7 L 9.8 5.8 Z M 11.5 1.6 L 12.2 1.6 L 11.8 3.2 C 11.8 3.2 11.85 3.15 11.9 3.2 C 12 3 12.1 2.9 12.3 2.8 C 12.5 2.7 12.7 2.6 12.9 2.6 C 13.2 2.6 13.4 2.7 13.5 2.9 C 13.7 3 13.8 3.2 13.8 3.5 C 13.8 3.5 13.8 3.6 13.8 3.6 C 13.7 3.7 13.7 3.8 13.7 3.8 C 13.73 3.83 13.3 5.8 13.3 5.8 L 12.6 5.8 C 12.6 5.8 13.03 3.9 13 3.9 C 13 3.8 13.1 3.8 13.1 3.7 C 13.1 3.7 13.1 3.7 13.1 3.6 C 13.1 3.6 13.1 3.6 13.1 3.5 C 13.1 3.5 13.1 3.4 13 3.4 C 13 3.3 13 3.3 12.9 3.2 C 12.8 3.2 12.7 3.2 12.6 3.2 C 12.5 3.2 12.4 3.2 12.3 3.3 C 12.1 3.3 12.1 3.4 12 3.5 C 11.9 3.5 11.8 3.6 11.8 3.8 C 11.7 3.9 11.7 4 11.6 4.1 C 11.64 4.13 11.3 5.8 11.3 5.8 L 10.6 5.8 L 11.5 1.6 Z M 14.8 4.9 C 14.8 5 14.8 5.1 14.8 5.1 C 14.9 5.2 14.9 5.2 15 5.3 C 15 5.3 15.1 5.3 15.1 5.3 C 15.2 5.3 15.3 5.3 15.3 5.3 C 15.5 5.3 15.6 5.3 15.7 5.3 C 15.9 5.2 15.9 5.1 16 5 C 16.1 4.9 16.1 4.8 16.2 4.7 C 16.2 4.6 16.3 4.4 16.3 4.3 C 16.3 4.3 16.3 4.3 16.3 4.3 C 16.2 4.3 16.2 4.4 16.1 4.4 C 16 4.4 15.9 4.4 15.9 4.4 C 15.8 4.4 15.6 4.4 15.5 4.4 C 15.4 4.4 15.3 4.5 15.2 4.5 C 15.1 4.5 15 4.6 14.9 4.7 C 14.8 4.7 14.8 4.8 14.8 4.9 Z M 16.8 4.9 C 16.8 5 16.8 5 16.8 5.1 C 16.8 5.1 16.8 5.2 16.8 5.2 C 16.8 5.2 16.8 5.3 16.8 5.3 C 16.8 5.3 16.8 5.3 16.9 5.3 C 16.9 5.3 17 5.3 17 5.3 C 17.1 5.3 17.1 5.3 17.1 5.3 C 17.1 5.3 17 5.8 17 5.8 C 16.9 5.8 16.9 5.8 16.8 5.8 C 16.7 5.9 16.6 5.9 16.5 5.9 C 16.4 5.9 16.3 5.8 16.2 5.8 C 16.1 5.7 16.1 5.6 16.1 5.5 C 16 5.6 15.8 5.7 15.6 5.8 C 15.4 5.8 15.2 5.9 15.1 5.9 C 14.9 5.9 14.8 5.9 14.7 5.8 C 14.6 5.8 14.5 5.7 14.4 5.7 C 14.3 5.6 14.2 5.5 14.2 5.4 C 14.1 5.3 14.1 5.2 14.1 5.1 C 14.1 4.9 14.1 4.7 14.2 4.6 C 14.3 4.4 14.4 4.3 14.5 4.3 C 14.6 4.2 14.7 4.1 14.9 4.1 C 15.1 4 15.2 4 15.4 4 C 15.6 4 15.8 4 16.1 3.9 C 16.2 3.9 16.3 3.9 16.3 3.8 C 16.4 3.7 16.4 3.7 16.4 3.5 C 16.4 3.4 16.4 3.3 16.3 3.2 C 16.2 3.2 16 3.2 15.9 3.2 C 15.7 3.2 15.6 3.2 15.4 3.3 C 15.3 3.3 15.2 3.5 15.1 3.7 C 15.1 3.7 14.5 3.7 14.5 3.7 C 14.5 3.5 14.6 3.3 14.7 3.2 C 14.8 3 14.9 2.9 15 2.9 C 15.1 2.8 15.3 2.7 15.4 2.7 C 15.6 2.7 15.8 2.6 15.9 2.6 C 16.2 2.6 16.4 2.7 16.6 2.7 C 16.8 2.8 16.9 2.8 16.9 2.9 C 17 3 17.1 3.1 17.1 3.1 C 17.1 3.2 17.1 3.3 17.1 3.4 C 17.1 3.5 17.1 3.6 17 3.8 C 17 3.8 16.8 4.9 16.8 4.9 Z M 19.8 2.7 L 20.4 2.7 L 20.3 3.2 C 20.3 3.2 20.34 3.18 20.3 3.2 C 20.5 3 20.6 2.9 20.8 2.8 C 21 2.7 21.2 2.6 21.4 2.6 C 21.7 2.6 21.9 2.7 22.1 2.9 C 22.2 3 22.3 3.2 22.3 3.5 C 22.3 3.5 22.3 3.6 22.3 3.6 C 22.3 3.7 22.3 3.8 22.3 3.8 C 22.27 3.83 21.9 5.8 21.9 5.8 L 21.2 5.8 C 21.2 5.8 21.57 3.9 21.6 3.9 C 21.6 3.8 21.6 3.8 21.6 3.7 C 21.6 3.7 21.6 3.7 21.6 3.6 C 21.6 3.6 21.6 3.6 21.6 3.5 C 21.6 3.5 21.6 3.4 21.6 3.4 C 21.5 3.3 21.5 3.3 21.4 3.2 C 21.4 3.2 21.3 3.2 21.2 3.2 C 21 3.2 20.9 3.2 20.8 3.3 C 20.7 3.3 20.6 3.4 20.5 3.5 C 20.4 3.5 20.4 3.6 20.3 3.8 C 20.2 3.9 20.2 4 20.2 4.1 C 20.18 4.13 19.8 5.8 19.8 5.8 L 19.2 5.8 L 19.8 2.7 Z M 23.5 1.6 L 24.2 1.6 L 24 2.2 L 23.4 2.2 L 23.5 1.6 Z M 23.3 2.7 L 23.9 2.7 L 23.3 5.8 L 22.6 5.8 L 23.3 2.7 Z M 26.8 5.2 C 26.8 5.2 27.83 5.19 27.8 5.2 C 27.9 5.2 28 5.2 28.1 5.2 C 28.2 5.2 28.3 5.2 28.5 5.1 C 28.6 5.1 28.7 5 28.8 4.9 C 28.9 4.8 28.9 4.7 28.9 4.5 C 28.9 4.5 28.9 4.4 28.9 4.3 C 28.9 4.3 28.9 4.2 28.8 4.1 C 28.8 4 28.7 4 28.6 3.9 C 28.5 3.9 28.4 3.9 28.2 3.9 C 28.17 3.86 27.1 3.9 27.1 3.9 L 26.8 5.2 Z M 27.2 3.3 C 27.2 3.3 28.27 3.33 28.3 3.3 C 28.5 3.3 28.6 3.3 28.7 3.3 C 28.8 3.2 28.9 3.1 29 3.1 C 29 3 29.1 2.9 29.1 2.9 C 29.1 2.8 29.1 2.7 29.1 2.7 C 29.1 2.6 29.1 2.6 29.1 2.5 C 29.1 2.5 29.1 2.4 29 2.3 C 29 2.3 28.9 2.2 28.8 2.2 C 28.7 2.2 28.6 2.2 28.5 2.2 C 28.46 2.16 27.4 2.2 27.4 2.2 L 27.2 3.3 Z M 26.8 1.6 C 26.8 1.6 28.61 1.55 28.6 1.6 C 28.9 1.6 29.1 1.6 29.3 1.7 C 29.4 1.7 29.6 1.8 29.7 1.9 C 29.7 2 29.8 2.1 29.8 2.3 C 29.8 2.4 29.9 2.5 29.9 2.5 C 29.9 2.7 29.8 2.8 29.8 2.9 C 29.8 3 29.7 3.1 29.6 3.2 C 29.6 3.3 29.5 3.4 29.4 3.4 C 29.3 3.5 29.2 3.5 29 3.6 C 29 3.6 29 3.6 29 3.6 C 29.5 3.7 29.7 4 29.7 4.5 C 29.7 4.6 29.7 4.7 29.6 4.8 C 29.6 5 29.5 5.1 29.4 5.3 C 29.3 5.4 29.1 5.5 28.9 5.6 C 28.7 5.7 28.4 5.8 28.1 5.8 C 28.08 5.79 25.9 5.8 25.9 5.8 L 26.8 1.6 Z M 32.5 4 C 32.5 4 32.5 3.9 32.5 3.9 C 32.5 3.9 32.5 3.9 32.5 3.9 C 32.5 3.9 32.5 3.8 32.5 3.8 C 32.5 3.6 32.5 3.5 32.4 3.3 C 32.2 3.2 32.1 3.2 31.9 3.2 C 31.6 3.2 31.4 3.2 31.3 3.4 C 31.1 3.6 31 3.7 31 4 C 31 4 32.5 4 32.5 4 Z M 33 4.8 C 32.9 5.2 32.7 5.5 32.5 5.6 C 32.2 5.8 31.9 5.9 31.5 5.9 C 31.3 5.9 31.2 5.8 31 5.8 C 30.8 5.7 30.7 5.6 30.6 5.5 C 30.5 5.4 30.4 5.3 30.3 5.1 C 30.2 4.9 30.2 4.7 30.2 4.5 C 30.2 4.3 30.2 4.1 30.3 3.8 C 30.4 3.6 30.5 3.4 30.6 3.2 C 30.8 3.1 31 2.9 31.2 2.8 C 31.4 2.7 31.6 2.6 31.9 2.6 C 32.2 2.6 32.4 2.7 32.6 2.8 C 32.7 2.9 32.9 3 33 3.1 C 33.1 3.3 33.1 3.4 33.2 3.6 C 33.2 3.7 33.2 3.9 33.2 4.1 C 33.2 4.1 33.2 4.2 33.2 4.3 C 33.2 4.3 33.2 4.4 33.2 4.4 C 33.2 4.4 30.9 4.4 30.9 4.4 C 30.9 4.5 30.9 4.5 30.9 4.5 C 30.9 4.5 30.9 4.5 30.9 4.5 C 30.9 4.5 30.9 4.6 30.9 4.6 C 30.9 4.8 30.9 5 31 5.1 C 31.2 5.3 31.3 5.3 31.6 5.3 C 31.8 5.3 31.9 5.3 32.1 5.2 C 32.2 5.1 32.3 5 32.3 4.8 C 32.3 4.8 33 4.8 33 4.8 Z M 34.3 1.6 L 35 1.6 L 34.1 5.8 L 33.4 5.8 L 34.3 1.6 Z M 35.8 1.6 L 36.5 1.6 L 35.6 5.8 L 34.9 5.8 L 35.8 1.6 Z M 37.1 4.9 C 37.1 5 37.1 5.1 37.2 5.1 C 37.2 5.2 37.2 5.2 37.3 5.3 C 37.3 5.3 37.4 5.3 37.5 5.3 C 37.5 5.3 37.6 5.3 37.6 5.3 C 37.8 5.3 38 5.3 38.1 5.3 C 38.2 5.2 38.3 5.1 38.3 5 C 38.4 4.9 38.5 4.8 38.5 4.7 C 38.6 4.6 38.6 4.4 38.6 4.3 C 38.6 4.3 38.6 4.3 38.6 4.3 C 38.6 4.3 38.5 4.4 38.4 4.4 C 38.3 4.4 38.3 4.4 38.2 4.4 C 38.1 4.4 38 4.4 37.9 4.4 C 37.7 4.4 37.6 4.5 37.5 4.5 C 37.4 4.5 37.3 4.6 37.2 4.7 C 37.1 4.7 37.1 4.8 37.1 4.9 Z M 39.1 4.9 C 39.1 5 39.1 5 39.1 5.1 C 39.1 5.1 39.1 5.2 39.1 5.2 C 39.1 5.2 39.1 5.3 39.1 5.3 C 39.1 5.3 39.2 5.3 39.2 5.3 C 39.3 5.3 39.3 5.3 39.3 5.3 C 39.4 5.3 39.4 5.3 39.5 5.3 C 39.5 5.3 39.4 5.8 39.4 5.8 C 39.3 5.8 39.2 5.8 39.1 5.8 C 39 5.9 38.9 5.9 38.8 5.9 C 38.7 5.9 38.6 5.8 38.5 5.8 C 38.5 5.7 38.4 5.6 38.4 5.5 C 38.3 5.6 38.1 5.7 37.9 5.8 C 37.8 5.8 37.6 5.9 37.4 5.9 C 37.3 5.9 37.1 5.9 37 5.8 C 36.9 5.8 36.8 5.7 36.7 5.7 C 36.6 5.6 36.6 5.5 36.5 5.4 C 36.5 5.3 36.4 5.2 36.4 5.1 C 36.4 4.9 36.5 4.7 36.5 4.6 C 36.6 4.4 36.7 4.3 36.8 4.3 C 36.9 4.2 37.1 4.1 37.2 4.1 C 37.4 4 37.5 4 37.7 4 C 37.9 4 38.2 4 38.4 3.9 C 38.5 3.9 38.6 3.9 38.7 3.8 C 38.7 3.7 38.8 3.7 38.8 3.5 C 38.8 3.4 38.7 3.3 38.6 3.2 C 38.5 3.2 38.4 3.2 38.2 3.2 C 38 3.2 37.9 3.2 37.7 3.3 C 37.6 3.3 37.5 3.5 37.5 3.7 C 37.5 3.7 36.8 3.7 36.8 3.7 C 36.9 3.5 36.9 3.3 37 3.2 C 37.1 3 37.2 2.9 37.3 2.9 C 37.5 2.8 37.6 2.7 37.8 2.7 C 37.9 2.7 38.1 2.6 38.3 2.6 C 38.6 2.6 38.8 2.7 38.9 2.7 C 39.1 2.8 39.2 2.8 39.3 2.9 C 39.3 3 39.4 3.1 39.4 3.1 C 39.4 3.2 39.4 3.3 39.4 3.4 C 39.4 3.5 39.4 3.6 39.4 3.8 C 39.4 3.8 39.1 4.9 39.1 4.9 Z M 42.4 5.2 C 42.4 5.2 43.49 5.19 43.5 5.2 C 43.6 5.2 43.6 5.2 43.8 5.2 C 43.9 5.2 44 5.2 44.1 5.1 C 44.2 5.1 44.3 5 44.4 4.9 C 44.5 4.8 44.6 4.7 44.6 4.5 C 44.6 4.5 44.6 4.4 44.6 4.3 C 44.6 4.3 44.6 4.2 44.5 4.1 C 44.5 4 44.4 4 44.3 3.9 C 44.2 3.9 44 3.9 43.8 3.9 C 43.83 3.86 42.7 3.9 42.7 3.9 L 42.4 5.2 Z M 42.8 3.3 C 42.8 3.3 43.93 3.33 43.9 3.3 C 44.1 3.3 44.3 3.3 44.4 3.3 C 44.5 3.2 44.6 3.1 44.6 3.1 C 44.7 3 44.7 2.9 44.7 2.9 C 44.8 2.8 44.8 2.7 44.8 2.7 C 44.8 2.6 44.8 2.6 44.8 2.5 C 44.7 2.5 44.7 2.4 44.7 2.3 C 44.6 2.3 44.6 2.2 44.5 2.2 C 44.4 2.2 44.3 2.2 44.1 2.2 C 44.12 2.16 43.1 2.2 43.1 2.2 L 42.8 3.3 Z M 42.4 1.6 C 42.4 1.6 44.27 1.55 44.3 1.6 C 44.6 1.6 44.8 1.6 44.9 1.7 C 45.1 1.7 45.2 1.8 45.3 1.9 C 45.4 2 45.5 2.1 45.5 2.3 C 45.5 2.4 45.5 2.5 45.5 2.5 C 45.5 2.7 45.5 2.8 45.5 2.9 C 45.4 3 45.4 3.1 45.3 3.2 C 45.2 3.3 45.1 3.4 45 3.4 C 44.9 3.5 44.8 3.5 44.7 3.6 C 44.7 3.6 44.7 3.6 44.7 3.6 C 45.1 3.7 45.3 4 45.3 4.5 C 45.3 4.6 45.3 4.7 45.3 4.8 C 45.2 5 45.1 5.1 45 5.3 C 44.9 5.4 44.7 5.5 44.5 5.6 C 44.3 5.7 44.1 5.8 43.7 5.8 C 43.74 5.79 41.6 5.8 41.6 5.8 L 42.4 1.6 Z M 48.2 4 C 48.2 4 48.2 3.9 48.2 3.9 C 48.2 3.9 48.2 3.9 48.2 3.9 C 48.2 3.9 48.2 3.8 48.2 3.8 C 48.2 3.6 48.1 3.5 48 3.3 C 47.9 3.2 47.7 3.2 47.5 3.2 C 47.3 3.2 47.1 3.2 46.9 3.4 C 46.8 3.6 46.7 3.7 46.6 4 C 46.6 4 48.2 4 48.2 4 Z M 48.7 4.8 C 48.6 5.2 48.4 5.5 48.1 5.6 C 47.9 5.8 47.6 5.9 47.2 5.9 C 47 5.9 46.8 5.8 46.7 5.8 C 46.5 5.7 46.4 5.6 46.2 5.5 C 46.1 5.4 46 5.3 46 5.1 C 45.9 4.9 45.9 4.7 45.9 4.5 C 45.9 4.3 45.9 4.1 46 3.8 C 46 3.6 46.2 3.4 46.3 3.2 C 46.4 3.1 46.6 2.9 46.8 2.8 C 47 2.7 47.3 2.6 47.6 2.6 C 47.8 2.6 48.1 2.7 48.2 2.8 C 48.4 2.9 48.5 3 48.6 3.1 C 48.7 3.3 48.8 3.4 48.8 3.6 C 48.9 3.7 48.9 3.9 48.9 4.1 C 48.9 4.1 48.9 4.2 48.9 4.3 C 48.8 4.3 48.8 4.4 48.8 4.4 C 48.8 4.4 46.5 4.4 46.5 4.4 C 46.5 4.5 46.5 4.5 46.5 4.5 C 46.5 4.5 46.5 4.5 46.5 4.5 C 46.5 4.5 46.5 4.6 46.5 4.6 C 46.5 4.8 46.6 5 46.7 5.1 C 46.8 5.3 47 5.3 47.3 5.3 C 47.4 5.3 47.6 5.3 47.7 5.2 C 47.9 5.1 48 5 48 4.8 C 48 4.8 48.7 4.8 48.7 4.8 Z M 49.7 2.7 L 50.4 2.7 L 50.2 3.3 C 50.2 3.3 50.25 3.33 50.3 3.3 C 50.3 3.2 50.4 3.2 50.4 3.1 C 50.5 3 50.6 2.9 50.7 2.9 C 50.7 2.8 50.8 2.7 50.9 2.7 C 51 2.7 51.1 2.6 51.2 2.6 C 51.3 2.6 51.3 2.6 51.4 2.6 C 51.4 2.6 51.5 2.6 51.6 2.7 C 51.6 2.7 51.4 3.3 51.4 3.3 C 51.4 3.3 51.3 3.3 51.3 3.3 C 51.3 3.3 51.2 3.3 51.2 3.3 C 51 3.3 50.9 3.3 50.7 3.4 C 50.6 3.4 50.5 3.5 50.4 3.6 C 50.3 3.7 50.2 3.9 50.2 4 C 50.1 4.1 50.1 4.3 50 4.4 C 50.05 4.43 49.8 5.8 49.8 5.8 L 49.1 5.8 L 49.7 2.7 Z M 52 2.7 L 52.6 2.7 L 52.5 3.2 C 52.5 3.2 52.53 3.18 52.5 3.2 C 52.7 3 52.8 2.9 53 2.8 C 53.2 2.7 53.4 2.6 53.6 2.6 C 53.9 2.6 54.1 2.7 54.3 2.9 C 54.4 3 54.5 3.2 54.5 3.5 C 54.5 3.5 54.5 3.6 54.5 3.6 C 54.5 3.7 54.5 3.8 54.5 3.8 C 54.46 3.83 54 5.8 54 5.8 L 53.4 5.8 C 53.4 5.8 53.76 3.9 53.8 3.9 C 53.8 3.8 53.8 3.8 53.8 3.7 C 53.8 3.7 53.8 3.7 53.8 3.6 C 53.8 3.6 53.8 3.6 53.8 3.5 C 53.8 3.5 53.8 3.4 53.8 3.4 C 53.7 3.3 53.7 3.3 53.6 3.2 C 53.6 3.2 53.5 3.2 53.3 3.2 C 53.2 3.2 53.1 3.2 53 3.3 C 52.9 3.3 52.8 3.4 52.7 3.5 C 52.6 3.5 52.6 3.6 52.5 3.8 C 52.4 3.9 52.4 4 52.4 4.1 C 52.37 4.13 52 5.8 52 5.8 L 51.3 5.8 L 52 2.7 Z M 55.5 4.9 C 55.5 5 55.5 5.1 55.6 5.1 C 55.6 5.2 55.6 5.2 55.7 5.3 C 55.7 5.3 55.8 5.3 55.9 5.3 C 55.9 5.3 56 5.3 56 5.3 C 56.2 5.3 56.4 5.3 56.5 5.3 C 56.6 5.2 56.7 5.1 56.7 5 C 56.8 4.9 56.9 4.8 56.9 4.7 C 57 4.6 57 4.4 57 4.3 C 57 4.3 57 4.3 57 4.3 C 57 4.3 56.9 4.4 56.8 4.4 C 56.7 4.4 56.7 4.4 56.6 4.4 C 56.5 4.4 56.4 4.4 56.3 4.4 C 56.1 4.4 56 4.5 55.9 4.5 C 55.8 4.5 55.7 4.6 55.6 4.7 C 55.5 4.7 55.5 4.8 55.5 4.9 Z M 57.5 4.9 C 57.5 5 57.5 5 57.5 5.1 C 57.5 5.1 57.5 5.2 57.5 5.2 C 57.5 5.2 57.5 5.3 57.5 5.3 C 57.5 5.3 57.6 5.3 57.6 5.3 C 57.7 5.3 57.7 5.3 57.7 5.3 C 57.8 5.3 57.8 5.3 57.9 5.3 C 57.9 5.3 57.8 5.8 57.8 5.8 C 57.7 5.8 57.6 5.8 57.5 5.8 C 57.4 5.9 57.3 5.9 57.2 5.9 C 57.1 5.9 57 5.8 56.9 5.8 C 56.9 5.7 56.8 5.6 56.8 5.5 C 56.7 5.6 56.5 5.7 56.3 5.8 C 56.2 5.8 56 5.9 55.8 5.9 C 55.7 5.9 55.5 5.9 55.4 5.8 C 55.3 5.8 55.2 5.7 55.1 5.7 C 55 5.6 55 5.5 54.9 5.4 C 54.9 5.3 54.8 5.2 54.8 5.1 C 54.8 4.9 54.9 4.7 54.9 4.6 C 55 4.4 55.1 4.3 55.2 4.3 C 55.3 4.2 55.5 4.1 55.6 4.1 C 55.8 4 56 4 56.1 4 C 56.4 4 56.6 4 56.8 3.9 C 56.9 3.9 57 3.9 57.1 3.8 C 57.1 3.7 57.2 3.7 57.2 3.5 C 57.2 3.4 57.1 3.3 57 3.2 C 56.9 3.2 56.8 3.2 56.6 3.2 C 56.4 3.2 56.3 3.2 56.1 3.3 C 56 3.3 55.9 3.5 55.9 3.7 C 55.9 3.7 55.2 3.7 55.2 3.7 C 55.3 3.5 55.3 3.3 55.4 3.2 C 55.5 3 55.6 2.9 55.7 2.9 C 55.9 2.8 56 2.7 56.2 2.7 C 56.3 2.7 56.5 2.6 56.7 2.6 C 57 2.6 57.2 2.7 57.3 2.7 C 57.5 2.8 57.6 2.8 57.7 2.9 C 57.7 3 57.8 3.1 57.8 3.1 C 57.8 3.2 57.8 3.3 57.8 3.4 C 57.8 3.5 57.8 3.6 57.8 3.8 C 57.8 3.8 57.5 4.9 57.5 4.9 Z M 59.1 1.6 L 59.7 1.6 L 58.9 5.8 L 58.2 5.8 L 59.1 1.6 Z " stroke="none" fill="#fff"/>
  </g>
</svg>