<?xml version="1.0" standalone="no"?>
<!DOCTYPE svg PUBLIC "-//W3C//DTD SVG 1.1//EN" "http://www.w3.org/Graphics/SVG/1.1/DTD/svg11.dtd">
<svg xmlns="http://www.w3.org/2000/svg" version="1.1" width="120px" height="13.9px" viewBox="0 -1 120 13.9" style="top:-1px">
  <desc>BOTO LASALYANO p 9</desc>
  <defs/>
  <g id="Polygon15158">
    <path d="M 12.3 10.4 L 12.3 3.9 C 12.3 3.9 13.32 3.92 13.3 3.9 C 13.9 3.9 14.3 4 14.6 4 C 15 4.1 15.3 4.3 15.5 4.6 C 15.8 4.9 15.9 5.2 15.9 5.6 C 15.9 5.8 15.8 6.1 15.7 6.3 C 15.6 6.5 15.5 6.7 15.2 6.8 C 15.6 7 15.9 7.2 16.1 7.5 C 16.3 7.8 16.4 8.1 16.4 8.5 C 16.4 8.9 16.3 9.2 16.1 9.5 C 15.9 9.8 15.6 10 15.3 10.2 C 15 10.3 14.6 10.4 14.1 10.4 C 14.12 10.39 12.3 10.4 12.3 10.4 Z M 13.5 5.1 L 13.5 6.5 C 13.5 6.5 13.8 6.46 13.8 6.5 C 14.1 6.5 14.3 6.4 14.5 6.3 C 14.6 6.1 14.7 6 14.7 5.8 C 14.7 5.6 14.6 5.4 14.5 5.3 C 14.3 5.2 14.1 5.1 13.9 5.1 C 13.85 5.1 13.5 5.1 13.5 5.1 Z M 13.5 7.6 L 13.5 9.2 C 13.5 9.2 13.84 9.22 13.8 9.2 C 14.4 9.2 14.7 9.2 14.9 9 C 15.1 8.9 15.1 8.7 15.1 8.5 C 15.1 8.2 15 8 14.8 7.8 C 14.6 7.6 14.3 7.6 13.8 7.6 C 13.79 7.56 13.5 7.6 13.5 7.6 Z M 20.6 3.8 C 21.5 3.8 22.3 4.1 22.9 4.8 C 23.6 5.4 23.9 6.2 23.9 7.2 C 23.9 8.1 23.6 8.9 22.9 9.6 C 22.3 10.2 21.5 10.6 20.6 10.6 C 19.6 10.6 18.8 10.2 18.2 9.5 C 17.5 8.9 17.2 8.1 17.2 7.2 C 17.2 6.5 17.4 6 17.7 5.4 C 18 4.9 18.4 4.5 18.9 4.2 C 19.4 3.9 20 3.8 20.6 3.8 Z M 20.6 5 C 20 5 19.5 5.2 19.1 5.6 C 18.6 6 18.4 6.5 18.4 7.2 C 18.4 7.9 18.7 8.5 19.2 8.9 C 19.6 9.2 20.1 9.4 20.6 9.4 C 21.2 9.4 21.7 9.1 22.1 8.7 C 22.5 8.3 22.7 7.8 22.7 7.2 C 22.7 6.6 22.5 6 22.1 5.6 C 21.7 5.2 21.2 5 20.6 5 Z M 24.4 3.9 L 28 3.9 L 28 5.1 L 26.8 5.1 L 26.8 10.4 L 25.6 10.4 L 25.6 5.1 L 24.4 5.1 L 24.4 3.9 Z M 31.9 3.8 C 32.8 3.8 33.6 4.1 34.3 4.8 C 34.9 5.4 35.3 6.2 35.3 7.2 C 35.3 8.1 34.9 8.9 34.3 9.6 C 33.6 10.2 32.8 10.6 31.9 10.6 C 31 10.6 30.1 10.2 29.5 9.5 C 28.9 8.9 28.5 8.1 28.5 7.2 C 28.5 6.5 28.7 6 29 5.4 C 29.3 4.9 29.7 4.5 30.2 4.2 C 30.7 3.9 31.3 3.8 31.9 3.8 Z M 31.9 5 C 31.3 5 30.8 5.2 30.4 5.6 C 30 6 29.8 6.5 29.8 7.2 C 29.8 7.9 30 8.5 30.6 8.9 C 30.9 9.2 31.4 9.4 31.9 9.4 C 32.5 9.4 33 9.1 33.4 8.7 C 33.8 8.3 34 7.8 34 7.2 C 34 6.6 33.8 6 33.4 5.6 C 33 5.2 32.5 5 31.9 5 Z M 38.9 3.9 L 40.2 3.9 L 40.2 9.2 L 42 9.2 L 42 10.4 L 38.9 10.4 L 38.9 3.9 Z M 44.9 3.9 L 46.1 3.9 L 48.6 10.4 L 47.3 10.4 L 46.8 9.1 L 44.2 9.1 L 43.7 10.4 L 42.4 10.4 L 44.9 3.9 Z M 45.5 5.6 L 44.6 7.9 L 46.4 7.9 L 45.5 5.6 Z M 52.9 4.8 C 52.9 4.8 52 5.6 52 5.6 C 51.7 5.2 51.4 4.9 51.1 4.9 C 50.9 4.9 50.8 5 50.7 5.1 C 50.6 5.2 50.5 5.3 50.5 5.4 C 50.5 5.5 50.5 5.6 50.6 5.7 C 50.7 5.8 51 6.1 51.5 6.5 C 52 6.9 52.3 7.1 52.4 7.2 C 52.6 7.5 52.8 7.7 52.9 8 C 53 8.2 53.1 8.4 53.1 8.7 C 53.1 9.2 52.9 9.7 52.5 10 C 52.1 10.4 51.7 10.6 51.1 10.6 C 50.6 10.6 50.2 10.4 49.9 10.2 C 49.5 10 49.2 9.6 49 9.1 C 49 9.1 50 8.5 50 8.5 C 50.3 9.1 50.7 9.4 51.1 9.4 C 51.3 9.4 51.5 9.3 51.6 9.2 C 51.8 9.1 51.9 8.9 51.9 8.8 C 51.9 8.6 51.8 8.5 51.7 8.3 C 51.6 8.2 51.3 8 51 7.7 C 50.3 7.1 49.8 6.6 49.6 6.3 C 49.4 6 49.3 5.7 49.3 5.4 C 49.3 4.9 49.5 4.6 49.8 4.2 C 50.2 3.9 50.6 3.8 51.1 3.8 C 51.4 3.8 51.7 3.8 52 4 C 52.3 4.1 52.6 4.4 52.9 4.8 Z M 56.2 3.9 L 57.5 3.9 L 59.9 10.4 L 58.7 10.4 L 58.2 9.1 L 55.5 9.1 L 55 10.4 L 53.7 10.4 L 56.2 3.9 Z M 56.8 5.6 L 56 7.9 L 57.7 7.9 L 56.8 5.6 Z M 60.9 3.9 L 62.1 3.9 L 62.1 9.2 L 63.9 9.2 L 63.9 10.4 L 60.9 10.4 L 60.9 3.9 Z M 64.4 3.9 L 65.7 3.9 L 66.9 6.2 L 68.1 3.9 L 69.4 3.9 L 67.5 7.6 L 67.5 10.4 L 66.3 10.4 L 66.3 7.6 L 64.4 3.9 Z M 72.4 3.9 L 73.7 3.9 L 76.1 10.4 L 74.9 10.4 L 74.4 9.1 L 71.7 9.1 L 71.2 10.4 L 69.9 10.4 L 72.4 3.9 Z M 73 5.6 L 72.2 7.9 L 73.9 7.9 L 73 5.6 Z M 77.1 3.9 L 78.3 3.9 L 81 8.2 L 81 3.9 L 82.3 3.9 L 82.3 10.4 L 81.1 10.4 L 78.3 6.1 L 78.3 10.4 L 77.1 10.4 L 77.1 3.9 Z M 86.8 3.8 C 87.7 3.8 88.5 4.1 89.2 4.8 C 89.8 5.4 90.1 6.2 90.1 7.2 C 90.1 8.1 89.8 8.9 89.2 9.6 C 88.5 10.2 87.7 10.6 86.8 10.6 C 85.8 10.6 85 10.2 84.4 9.5 C 83.8 8.9 83.4 8.1 83.4 7.2 C 83.4 6.5 83.6 6 83.9 5.4 C 84.2 4.9 84.6 4.5 85.1 4.2 C 85.6 3.9 86.2 3.8 86.8 3.8 Z M 86.8 5 C 86.2 5 85.7 5.2 85.3 5.6 C 84.9 6 84.7 6.5 84.7 7.2 C 84.7 7.9 84.9 8.5 85.4 8.9 C 85.8 9.2 86.3 9.4 86.8 9.4 C 87.4 9.4 87.9 9.1 88.3 8.7 C 88.7 8.3 88.9 7.8 88.9 7.2 C 88.9 6.6 88.7 6 88.3 5.6 C 87.9 5.2 87.4 5 86.8 5 Z M 93.6 5.5 L 93.6 4.4 L 98 6.7 L 98 7.6 L 93.6 9.9 L 93.6 8.8 L 96.7 7.2 L 93.6 5.5 Z M 99 5.5 L 99 4.4 L 103.4 6.7 L 103.4 7.6 L 99 9.9 L 99 8.8 L 102.1 7.2 L 99 5.5 Z M 108.2 5.6 C 108.2 5.6 108.21 6.13 108.2 6.1 C 108.4 5.9 108.7 5.8 108.9 5.6 C 109.2 5.5 109.4 5.5 109.7 5.5 C 110.3 5.5 110.9 5.7 111.3 6.2 C 111.7 6.7 112 7.3 112 8 C 112 8.7 111.7 9.3 111.3 9.8 C 110.8 10.3 110.3 10.5 109.7 10.5 C 109.4 10.5 109.2 10.5 108.9 10.4 C 108.7 10.3 108.4 10.1 108.2 9.9 C 108.21 9.88 108.2 12.1 108.2 12.1 L 107 12.1 L 107 5.6 L 108.2 5.6 Z M 109.5 6.6 C 109.1 6.6 108.8 6.7 108.5 7 C 108.3 7.2 108.2 7.6 108.2 8 C 108.2 8.4 108.3 8.8 108.5 9 C 108.8 9.3 109.1 9.4 109.5 9.4 C 109.8 9.4 110.1 9.3 110.4 9 C 110.6 8.7 110.8 8.4 110.8 8 C 110.8 7.6 110.6 7.2 110.4 7 C 110.2 6.7 109.8 6.6 109.5 6.6 Z M 113.6 9.1 C 113.8 9.1 114 9.2 114.1 9.3 C 114.2 9.5 114.3 9.6 114.3 9.8 C 114.3 10 114.2 10.2 114.1 10.3 C 114 10.4 113.8 10.5 113.6 10.5 C 113.4 10.5 113.3 10.4 113.1 10.3 C 113 10.2 112.9 10 112.9 9.8 C 112.9 9.6 113 9.5 113.1 9.3 C 113.3 9.2 113.4 9.1 113.6 9.1 Z M 117.3 10.6 L 116.3 10 C 116.3 10 117.39 7.83 117.4 7.8 C 116.8 7.8 116.4 7.6 116 7.2 C 115.6 6.9 115.4 6.4 115.4 5.8 C 115.4 5.2 115.6 4.7 116 4.3 C 116.4 4 116.9 3.8 117.4 3.8 C 118 3.8 118.5 4 118.9 4.4 C 119.3 4.8 119.5 5.2 119.5 5.8 C 119.5 6 119.4 6.2 119.4 6.4 C 119.3 6.6 119.2 6.9 119 7.3 C 118.96 7.29 117.3 10.6 117.3 10.6 Z M 117.5 6.7 C 117.7 6.7 117.9 6.6 118 6.4 C 118.2 6.2 118.3 6 118.3 5.8 C 118.3 5.5 118.2 5.3 118 5.2 C 117.9 5 117.7 4.9 117.4 4.9 C 117.2 4.9 117 5 116.9 5.2 C 116.7 5.3 116.6 5.5 116.6 5.8 C 116.6 6 116.7 6.2 116.9 6.4 C 117 6.6 117.2 6.7 117.5 6.7 Z " stroke="none" fill="#000"/>
  </g>
</svg>