<?xml version="1.0" standalone="no"?>
<!DOCTYPE svg PUBLIC "-//W3C//DTD SVG 1.1//EN" "http://www.w3.org/Graphics/SVG/1.1/DTD/svg11.dtd">
<svg xmlns="http://www.w3.org/2000/svg" version="1.1" width="135px" height="18px" viewBox="0 -3 135 18" style="top:-3px">
  <desc>Kuha ni Angela De Castro</desc>
  <defs/>
  <g id="Polygon36778">
    <path d="M 0.5 1.7 L 1.5 1.7 L 1.5 10.7 L 0.5 10.7 L 0.5 1.7 Z M 6 2.3 L 7.1 2.3 L 6.5 5.3 L 6.6 5.3 L 9.8 2.3 L 11.3 2.3 L 8.3 5 L 10.3 8.8 L 9 8.8 L 7.4 5.7 L 6.2 6.7 L 5.8 8.8 L 4.7 8.8 L 6 2.3 Z M 14.9 8.8 L 13.9 8.8 L 14.1 8.1 C 14.1 8.1 14.05 8.08 14 8.1 C 13.9 8.3 13.6 8.5 13.4 8.7 C 13.1 8.8 12.8 8.9 12.4 8.9 C 12 8.9 11.6 8.8 11.4 8.6 C 11.2 8.3 11.1 8 11.1 7.7 C 11.1 7.6 11.1 7.5 11.1 7.4 C 11.1 7.3 11.1 7.2 11.1 7.1 C 11.13 7.09 11.8 4.1 11.8 4.1 L 12.8 4.1 C 12.8 4.1 12.19 6.99 12.2 7 C 12.2 7.1 12.2 7.1 12.1 7.2 C 12.1 7.3 12.1 7.4 12.1 7.4 C 12.1 7.5 12.1 7.5 12.1 7.6 C 12.1 7.7 12.1 7.7 12.2 7.8 C 12.2 7.9 12.3 8 12.4 8 C 12.5 8.1 12.6 8.1 12.8 8.1 C 13 8.1 13.2 8 13.4 8 C 13.5 7.9 13.7 7.8 13.8 7.6 C 13.9 7.5 14 7.3 14.1 7.2 C 14.2 7 14.3 6.8 14.3 6.6 C 14.3 6.64 14.8 4.1 14.8 4.1 L 15.8 4.1 L 14.9 8.8 Z M 17.4 2.3 L 18.4 2.3 L 17.9 4.8 C 17.9 4.8 17.95 4.78 18 4.8 C 18.1 4.5 18.4 4.4 18.6 4.2 C 18.9 4.1 19.2 4 19.5 4 C 20 4 20.3 4.1 20.5 4.3 C 20.7 4.6 20.8 4.9 20.8 5.2 C 20.8 5.3 20.8 5.4 20.8 5.5 C 20.8 5.6 20.8 5.7 20.8 5.8 C 20.8 5.8 20.2 8.8 20.2 8.8 L 19.2 8.8 C 19.2 8.8 19.75 5.9 19.7 5.9 C 19.8 5.8 19.8 5.8 19.8 5.7 C 19.8 5.6 19.8 5.5 19.8 5.5 C 19.8 5.4 19.8 5.4 19.8 5.3 C 19.8 5.2 19.8 5.2 19.7 5.1 C 19.7 5 19.6 4.9 19.5 4.9 C 19.4 4.8 19.3 4.8 19.1 4.8 C 18.9 4.8 18.7 4.8 18.6 4.9 C 18.4 5 18.3 5.1 18.1 5.3 C 18 5.4 17.9 5.5 17.8 5.7 C 17.7 5.9 17.7 6.1 17.6 6.3 C 17.63 6.25 17.1 8.8 17.1 8.8 L 16.1 8.8 L 17.4 2.3 Z M 22.4 7.5 C 22.4 7.6 22.4 7.7 22.5 7.8 C 22.5 7.9 22.6 7.9 22.7 8 C 22.7 8 22.8 8 22.9 8.1 C 23 8.1 23.1 8.1 23.2 8.1 C 23.5 8.1 23.7 8 23.8 8 C 24 7.9 24.2 7.8 24.3 7.6 C 24.4 7.5 24.5 7.3 24.5 7.1 C 24.6 6.9 24.6 6.7 24.7 6.5 C 24.7 6.5 24.7 6.5 24.7 6.5 C 24.6 6.5 24.5 6.6 24.4 6.6 C 24.3 6.7 24.1 6.7 24 6.7 C 23.9 6.7 23.7 6.7 23.5 6.7 C 23.3 6.7 23.2 6.8 23 6.8 C 22.8 6.9 22.7 6.9 22.6 7.1 C 22.5 7.2 22.4 7.3 22.4 7.5 Z M 25.5 7.4 C 25.5 7.5 25.4 7.6 25.4 7.7 C 25.4 7.7 25.4 7.8 25.4 7.9 C 25.4 8 25.4 8 25.4 8 C 25.5 8.1 25.5 8.1 25.6 8.1 C 25.7 8.1 25.7 8.1 25.8 8.1 C 25.8 8.1 25.9 8 26 8 C 26 8 25.8 8.8 25.8 8.8 C 25.7 8.8 25.5 8.8 25.4 8.9 C 25.3 8.9 25.1 8.9 25 8.9 C 24.8 8.9 24.7 8.8 24.6 8.7 C 24.5 8.6 24.4 8.5 24.4 8.3 C 24.2 8.5 23.9 8.7 23.7 8.8 C 23.4 8.9 23.1 8.9 22.8 8.9 C 22.6 8.9 22.4 8.9 22.3 8.8 C 22.1 8.8 21.9 8.7 21.8 8.6 C 21.7 8.5 21.6 8.4 21.5 8.2 C 21.4 8 21.4 7.9 21.4 7.7 C 21.4 7.4 21.4 7.1 21.5 6.9 C 21.6 6.7 21.8 6.6 22 6.5 C 22.1 6.3 22.3 6.2 22.6 6.2 C 22.8 6.1 23.1 6.1 23.3 6.1 C 23.7 6 24 6 24.3 6 C 24.5 6 24.7 5.9 24.8 5.8 C 24.8 5.7 24.9 5.5 24.9 5.4 C 24.9 5.1 24.8 5 24.7 4.9 C 24.5 4.8 24.3 4.8 24.1 4.8 C 23.8 4.8 23.6 4.9 23.4 5 C 23.2 5.1 23 5.2 22.9 5.5 C 22.9 5.5 22 5.5 22 5.5 C 22 5.2 22.1 5 22.2 4.8 C 22.4 4.6 22.5 4.5 22.7 4.3 C 22.9 4.2 23.1 4.1 23.4 4.1 C 23.6 4 23.9 4 24.2 4 C 24.6 4 24.9 4 25.2 4.1 C 25.4 4.2 25.6 4.3 25.7 4.4 C 25.8 4.5 25.9 4.6 25.9 4.8 C 25.9 4.9 25.9 5 25.9 5.1 C 25.9 5.3 25.9 5.5 25.8 5.8 C 25.8 5.8 25.5 7.4 25.5 7.4 Z M 30 4.1 L 31 4.1 L 30.8 4.8 C 30.8 4.8 30.82 4.81 30.8 4.8 C 31 4.6 31.2 4.4 31.5 4.2 C 31.8 4.1 32.1 4 32.4 4 C 32.9 4 33.2 4.1 33.5 4.3 C 33.7 4.6 33.8 4.9 33.8 5.2 C 33.8 5.3 33.8 5.4 33.8 5.5 C 33.8 5.6 33.8 5.7 33.7 5.8 C 33.74 5.8 33.1 8.8 33.1 8.8 L 32.1 8.8 C 32.1 8.8 32.69 5.9 32.7 5.9 C 32.7 5.8 32.7 5.8 32.7 5.7 C 32.8 5.6 32.8 5.5 32.8 5.5 C 32.8 5.4 32.8 5.4 32.8 5.3 C 32.8 5.2 32.7 5.2 32.7 5.1 C 32.6 5 32.6 4.9 32.5 4.9 C 32.4 4.8 32.2 4.8 32 4.8 C 31.8 4.8 31.7 4.8 31.5 4.9 C 31.3 5 31.2 5.1 31.1 5.3 C 31 5.4 30.9 5.5 30.8 5.7 C 30.7 5.9 30.6 6.1 30.6 6.3 C 30.57 6.25 30.1 8.8 30.1 8.8 L 29 8.8 L 30 4.1 Z M 35.6 2.3 L 36.6 2.3 L 36.4 3.3 L 35.4 3.3 L 35.6 2.3 Z M 35.2 4.1 L 36.3 4.1 L 35.3 8.8 L 34.3 8.8 L 35.2 4.1 Z M 42.6 2.3 L 43.7 2.3 L 44.9 8.8 L 43.7 8.8 L 43.5 7.1 L 40.9 7.1 L 39.9 8.8 L 38.7 8.8 L 42.6 2.3 Z M 42.9 3.5 L 42.9 3.5 L 41.4 6.2 L 43.3 6.2 L 42.9 3.5 Z M 46.3 4.1 L 47.3 4.1 L 47.2 4.8 C 47.2 4.8 47.19 4.81 47.2 4.8 C 47.4 4.6 47.6 4.4 47.9 4.2 C 48.2 4.1 48.5 4 48.8 4 C 49.3 4 49.6 4.1 49.8 4.3 C 50 4.6 50.1 4.9 50.1 5.2 C 50.1 5.3 50.1 5.4 50.1 5.5 C 50.1 5.6 50.1 5.7 50.1 5.8 C 50.1 5.8 49.5 8.8 49.5 8.8 L 48.5 8.8 C 48.5 8.8 49.05 5.9 49 5.9 C 49.1 5.8 49.1 5.8 49.1 5.7 C 49.1 5.6 49.1 5.5 49.1 5.5 C 49.1 5.4 49.1 5.4 49.1 5.3 C 49.1 5.2 49.1 5.2 49 5.1 C 49 5 48.9 4.9 48.8 4.9 C 48.7 4.8 48.6 4.8 48.4 4.8 C 48.2 4.8 48 4.8 47.9 4.9 C 47.7 5 47.6 5.1 47.4 5.3 C 47.3 5.4 47.2 5.5 47.1 5.7 C 47 5.9 47 6.1 46.9 6.3 C 46.93 6.25 46.4 8.8 46.4 8.8 L 45.4 8.8 L 46.3 4.1 Z M 51.9 6.8 C 51.9 7 52 7.1 52 7.3 C 52 7.4 52.1 7.5 52.2 7.6 C 52.3 7.7 52.4 7.8 52.5 7.9 C 52.6 7.9 52.7 8 52.9 8 C 53.2 8 53.4 7.9 53.6 7.8 C 53.8 7.6 54 7.5 54.1 7.3 C 54.2 7.1 54.3 6.9 54.4 6.6 C 54.4 6.4 54.5 6.1 54.5 5.9 C 54.5 5.6 54.4 5.3 54.2 5.1 C 54 4.9 53.8 4.8 53.4 4.8 C 53.2 4.8 53 4.9 52.8 5 C 52.6 5.1 52.4 5.3 52.3 5.5 C 52.2 5.7 52.1 5.9 52 6.1 C 52 6.4 51.9 6.6 51.9 6.8 Z M 54.9 8.6 C 54.8 9 54.7 9.3 54.6 9.6 C 54.5 9.8 54.3 10 54.2 10.2 C 54 10.3 53.8 10.4 53.5 10.5 C 53.2 10.6 52.9 10.6 52.6 10.6 C 52.3 10.6 52 10.6 51.8 10.5 C 51.6 10.5 51.4 10.4 51.2 10.3 C 51 10.2 50.8 10 50.7 9.8 C 50.6 9.6 50.6 9.4 50.6 9.1 C 50.6 9.1 51.6 9.1 51.6 9.1 C 51.6 9.4 51.7 9.6 51.9 9.7 C 52.1 9.8 52.4 9.9 52.6 9.9 C 52.9 9.9 53.1 9.8 53.2 9.8 C 53.4 9.7 53.5 9.6 53.6 9.5 C 53.7 9.4 53.8 9.2 53.8 9.1 C 53.9 8.9 53.9 8.7 54 8.5 C 53.96 8.55 54.1 8.1 54.1 8.1 C 54.1 8.1 54.04 8.07 54 8.1 C 53.7 8.5 53.3 8.8 52.7 8.8 C 52.1 8.8 51.7 8.6 51.4 8.3 C 51.1 7.9 50.9 7.5 50.9 6.9 C 50.9 6.5 51 6.2 51.1 5.8 C 51.2 5.5 51.3 5.2 51.5 4.9 C 51.7 4.6 52 4.4 52.3 4.2 C 52.6 4.1 52.9 4 53.3 4 C 53.7 4 54 4.1 54.2 4.2 C 54.5 4.3 54.6 4.6 54.8 4.9 C 54.76 4.9 54.8 4.9 54.8 4.9 L 54.9 4.1 L 55.9 4.1 C 55.9 4.1 54.91 8.65 54.9 8.6 Z M 59.8 6 C 59.8 6 59.8 6 59.8 6 C 59.8 5.9 59.8 5.9 59.8 5.9 C 59.8 5.9 59.8 5.8 59.8 5.8 C 59.8 5.5 59.7 5.2 59.5 5.1 C 59.4 4.9 59.1 4.8 58.8 4.8 C 58.4 4.8 58.1 4.9 57.9 5.2 C 57.7 5.4 57.5 5.7 57.4 6 C 57.4 6 59.8 6 59.8 6 Z M 60.5 7.3 C 60.4 7.9 60.1 8.3 59.7 8.5 C 59.3 8.8 58.9 8.9 58.3 8.9 C 58 8.9 57.7 8.9 57.5 8.8 C 57.2 8.7 57 8.5 56.8 8.4 C 56.7 8.2 56.5 8 56.4 7.7 C 56.3 7.5 56.3 7.2 56.3 6.9 C 56.3 6.5 56.3 6.2 56.4 5.8 C 56.6 5.5 56.7 5.2 56.9 4.9 C 57.2 4.6 57.4 4.4 57.7 4.2 C 58.1 4.1 58.4 4 58.9 4 C 59.3 4 59.6 4.1 59.9 4.2 C 60.1 4.3 60.3 4.5 60.5 4.7 C 60.6 4.9 60.7 5.2 60.8 5.4 C 60.8 5.7 60.8 5.9 60.8 6.1 C 60.8 6.3 60.8 6.4 60.8 6.5 C 60.8 6.5 60.8 6.6 60.8 6.7 C 60.8 6.7 57.3 6.7 57.3 6.7 C 57.3 6.7 57.3 6.8 57.3 6.8 C 57.3 6.8 57.3 6.8 57.3 6.9 C 57.3 6.9 57.3 7 57.3 7 C 57.3 7.3 57.4 7.6 57.5 7.8 C 57.7 8 58 8.1 58.4 8.1 C 58.7 8.1 58.9 8 59.1 7.9 C 59.3 7.8 59.4 7.6 59.5 7.3 C 59.5 7.3 60.5 7.3 60.5 7.3 Z M 62.5 2.3 L 63.5 2.3 L 62.2 8.8 L 61.2 8.8 L 62.5 2.3 Z M 64.5 7.5 C 64.5 7.6 64.5 7.7 64.6 7.8 C 64.6 7.9 64.7 7.9 64.7 8 C 64.8 8 64.9 8 65 8.1 C 65.1 8.1 65.2 8.1 65.3 8.1 C 65.5 8.1 65.8 8 65.9 8 C 66.1 7.9 66.2 7.8 66.4 7.6 C 66.5 7.5 66.5 7.3 66.6 7.1 C 66.7 6.9 66.7 6.7 66.8 6.5 C 66.8 6.5 66.7 6.5 66.7 6.5 C 66.7 6.5 66.6 6.6 66.5 6.6 C 66.3 6.7 66.2 6.7 66.1 6.7 C 66 6.7 65.8 6.7 65.6 6.7 C 65.4 6.7 65.2 6.8 65.1 6.8 C 64.9 6.9 64.8 6.9 64.7 7.1 C 64.5 7.2 64.5 7.3 64.5 7.5 Z M 67.6 7.4 C 67.5 7.5 67.5 7.6 67.5 7.7 C 67.5 7.7 67.5 7.8 67.5 7.9 C 67.5 8 67.5 8 67.5 8 C 67.5 8.1 67.6 8.1 67.7 8.1 C 67.7 8.1 67.8 8.1 67.9 8.1 C 67.9 8.1 68 8 68 8 C 68 8 67.9 8.8 67.9 8.8 C 67.8 8.8 67.6 8.8 67.5 8.9 C 67.4 8.9 67.2 8.9 67.1 8.9 C 66.9 8.9 66.8 8.8 66.7 8.7 C 66.5 8.6 66.5 8.5 66.5 8.3 C 66.3 8.5 66 8.7 65.7 8.8 C 65.5 8.9 65.2 8.9 64.9 8.9 C 64.7 8.9 64.5 8.9 64.3 8.8 C 64.2 8.8 64 8.7 63.9 8.6 C 63.8 8.5 63.6 8.4 63.6 8.2 C 63.5 8 63.4 7.9 63.4 7.7 C 63.4 7.4 63.5 7.1 63.6 6.9 C 63.7 6.7 63.9 6.6 64 6.5 C 64.2 6.3 64.4 6.2 64.7 6.2 C 64.9 6.1 65.1 6.1 65.4 6.1 C 65.8 6 66.1 6 66.4 6 C 66.6 6 66.8 5.9 66.8 5.8 C 66.9 5.7 67 5.5 67 5.4 C 67 5.1 66.9 5 66.7 4.9 C 66.6 4.8 66.4 4.8 66.2 4.8 C 65.9 4.8 65.6 4.9 65.4 5 C 65.2 5.1 65.1 5.2 65 5.5 C 65 5.5 64.1 5.5 64.1 5.5 C 64.1 5.2 64.2 5 64.3 4.8 C 64.5 4.6 64.6 4.5 64.8 4.3 C 65 4.2 65.2 4.1 65.5 4.1 C 65.7 4 66 4 66.2 4 C 66.7 4 67 4 67.2 4.1 C 67.5 4.2 67.6 4.3 67.8 4.4 C 67.9 4.5 67.9 4.6 68 4.8 C 68 4.9 68 5 68 5.1 C 68 5.3 68 5.5 67.9 5.8 C 67.9 5.8 67.6 7.4 67.6 7.4 Z M 72.5 7.9 C 72.5 7.9 73.95 7.86 74 7.9 C 74.3 7.9 74.6 7.8 74.8 7.7 C 75 7.6 75.3 7.4 75.4 7.3 C 75.6 7.1 75.7 6.9 75.9 6.7 C 76 6.5 76.1 6.3 76.1 6.1 C 76.2 5.8 76.3 5.7 76.3 5.5 C 76.3 5.3 76.3 5.1 76.3 5 C 76.3 4.5 76.2 4 76 3.7 C 75.7 3.4 75.4 3.3 74.9 3.3 C 74.92 3.27 73.5 3.3 73.5 3.3 L 72.5 7.9 Z M 72.6 2.3 C 72.6 2.3 74.93 2.35 74.9 2.3 C 75.8 2.3 76.4 2.6 76.8 3 C 77.2 3.5 77.5 4.1 77.5 5 C 77.5 5.2 77.4 5.4 77.4 5.7 C 77.3 5.9 77.3 6.2 77.2 6.4 C 77.1 6.6 77 6.9 76.9 7.1 C 76.8 7.3 76.6 7.5 76.4 7.7 C 76.2 7.9 76.1 8 75.9 8.2 C 75.7 8.3 75.5 8.4 75.3 8.5 C 75.1 8.6 74.8 8.7 74.5 8.7 C 74.2 8.8 73.9 8.8 73.5 8.8 C 73.48 8.77 71.2 8.8 71.2 8.8 L 72.6 2.3 Z M 81.4 6 C 81.4 6 81.4 6 81.4 6 C 81.4 5.9 81.4 5.9 81.4 5.9 C 81.4 5.9 81.4 5.8 81.4 5.8 C 81.4 5.5 81.3 5.2 81.2 5.1 C 81 4.9 80.8 4.8 80.5 4.8 C 80.1 4.8 79.8 4.9 79.5 5.2 C 79.3 5.4 79.1 5.7 79 6 C 79 6 81.4 6 81.4 6 Z M 82.2 7.3 C 82 7.9 81.7 8.3 81.4 8.5 C 81 8.8 80.5 8.9 79.9 8.9 C 79.6 8.9 79.4 8.9 79.1 8.8 C 78.9 8.7 78.7 8.5 78.5 8.4 C 78.3 8.2 78.1 8 78 7.7 C 77.9 7.5 77.9 7.2 77.9 6.9 C 77.9 6.5 78 6.2 78.1 5.8 C 78.2 5.5 78.3 5.2 78.6 4.9 C 78.8 4.6 79.1 4.4 79.4 4.2 C 79.7 4.1 80.1 4 80.5 4 C 80.9 4 81.2 4.1 81.5 4.2 C 81.7 4.3 81.9 4.5 82.1 4.7 C 82.2 4.9 82.3 5.2 82.4 5.4 C 82.4 5.7 82.5 5.9 82.5 6.1 C 82.5 6.3 82.5 6.4 82.4 6.5 C 82.4 6.5 82.4 6.6 82.4 6.7 C 82.4 6.7 78.9 6.7 78.9 6.7 C 78.9 6.7 78.9 6.8 78.9 6.8 C 78.9 6.8 78.9 6.8 78.9 6.9 C 78.9 6.9 78.9 7 78.9 7 C 78.9 7.3 79 7.6 79.2 7.8 C 79.3 8 79.6 8.1 80 8.1 C 80.3 8.1 80.5 8 80.7 7.9 C 80.9 7.8 81.1 7.6 81.1 7.3 C 81.1 7.3 82.2 7.3 82.2 7.3 Z M 90.6 4.5 C 90.6 4 90.5 3.7 90.3 3.5 C 90 3.2 89.6 3.1 89.2 3.1 C 88.8 3.1 88.5 3.2 88.2 3.4 C 87.9 3.5 87.7 3.8 87.5 4.1 C 87.3 4.3 87.1 4.7 87 5 C 86.9 5.4 86.9 5.7 86.9 6.1 C 86.9 6.7 87 7.2 87.4 7.5 C 87.7 7.8 88.1 8 88.7 8 C 88.9 8 89.2 8 89.4 7.8 C 89.6 7.7 89.7 7.6 89.9 7.4 C 90 7.3 90.1 7.1 90.2 6.9 C 90.2 6.8 90.3 6.6 90.3 6.5 C 90.3 6.5 91.4 6.5 91.4 6.5 C 91.4 6.9 91.2 7.3 91 7.6 C 90.9 7.9 90.6 8.1 90.4 8.3 C 90.2 8.5 89.9 8.7 89.6 8.8 C 89.3 8.9 89 8.9 88.6 8.9 C 88.2 8.9 87.8 8.9 87.4 8.7 C 87 8.6 86.7 8.4 86.5 8.1 C 86.3 7.9 86.1 7.6 86 7.2 C 85.8 6.9 85.8 6.5 85.8 6.1 C 85.8 5.4 85.9 4.9 86.1 4.4 C 86.3 3.9 86.5 3.5 86.9 3.1 C 87.2 2.8 87.6 2.6 88 2.4 C 88.4 2.3 88.8 2.2 89.2 2.2 C 89.6 2.2 89.9 2.2 90.3 2.3 C 90.6 2.5 90.8 2.6 91.1 2.8 C 91.3 3 91.5 3.2 91.6 3.5 C 91.7 3.8 91.8 4.1 91.8 4.5 C 91.8 4.5 90.6 4.5 90.6 4.5 Z M 93 7.5 C 93 7.6 93 7.7 93.1 7.8 C 93.2 7.9 93.2 7.9 93.3 8 C 93.4 8 93.5 8 93.6 8.1 C 93.6 8.1 93.7 8.1 93.8 8.1 C 94.1 8.1 94.3 8 94.5 8 C 94.6 7.9 94.8 7.8 94.9 7.6 C 95 7.5 95.1 7.3 95.2 7.1 C 95.2 6.9 95.3 6.7 95.3 6.5 C 95.3 6.5 95.3 6.5 95.3 6.5 C 95.2 6.5 95.1 6.6 95 6.6 C 94.9 6.7 94.8 6.7 94.7 6.7 C 94.5 6.7 94.3 6.7 94.2 6.7 C 94 6.7 93.8 6.8 93.6 6.8 C 93.5 6.9 93.3 6.9 93.2 7.1 C 93.1 7.2 93 7.3 93 7.5 Z M 96.1 7.4 C 96.1 7.5 96.1 7.6 96.1 7.7 C 96 7.7 96 7.8 96 7.9 C 96 8 96 8 96.1 8 C 96.1 8.1 96.2 8.1 96.2 8.1 C 96.3 8.1 96.4 8.1 96.4 8.1 C 96.5 8.1 96.5 8 96.6 8 C 96.6 8 96.4 8.8 96.4 8.8 C 96.3 8.8 96.2 8.8 96 8.9 C 95.9 8.9 95.8 8.9 95.6 8.9 C 95.5 8.9 95.3 8.8 95.2 8.7 C 95.1 8.6 95 8.5 95 8.3 C 94.8 8.5 94.6 8.7 94.3 8.8 C 94 8.9 93.7 8.9 93.4 8.9 C 93.3 8.9 93.1 8.9 92.9 8.8 C 92.7 8.8 92.6 8.7 92.4 8.6 C 92.3 8.5 92.2 8.4 92.1 8.2 C 92 8 92 7.9 92 7.7 C 92 7.4 92.1 7.1 92.2 6.9 C 92.3 6.7 92.4 6.6 92.6 6.5 C 92.8 6.3 93 6.2 93.2 6.2 C 93.4 6.1 93.7 6.1 94 6.1 C 94.3 6 94.6 6 95 6 C 95.2 6 95.3 5.9 95.4 5.8 C 95.5 5.7 95.5 5.5 95.5 5.4 C 95.5 5.1 95.4 5 95.3 4.9 C 95.1 4.8 94.9 4.8 94.7 4.8 C 94.4 4.8 94.2 4.9 94 5 C 93.8 5.1 93.6 5.2 93.6 5.5 C 93.6 5.5 92.6 5.5 92.6 5.5 C 92.7 5.2 92.7 5 92.9 4.8 C 93 4.6 93.2 4.5 93.4 4.3 C 93.6 4.2 93.8 4.1 94 4.1 C 94.3 4 94.5 4 94.8 4 C 95.2 4 95.5 4 95.8 4.1 C 96 4.2 96.2 4.3 96.3 4.4 C 96.4 4.5 96.5 4.6 96.5 4.8 C 96.5 4.9 96.5 5 96.5 5.1 C 96.5 5.3 96.5 5.5 96.5 5.8 C 96.5 5.8 96.1 7.4 96.1 7.4 Z M 100.4 5.5 C 100.4 5.2 100.3 5.1 100.1 5 C 99.9 4.9 99.7 4.8 99.4 4.8 C 99.3 4.8 99.2 4.8 99.1 4.8 C 99 4.9 99 4.9 98.9 4.9 C 98.8 5 98.7 5 98.7 5.1 C 98.7 5.2 98.6 5.3 98.6 5.4 C 98.6 5.5 98.7 5.6 98.8 5.7 C 98.8 5.7 98.9 5.8 99.1 5.8 C 99.2 5.9 99.4 5.9 99.5 6 C 99.7 6 99.8 6.1 100 6.1 C 100.1 6.2 100.3 6.2 100.4 6.3 C 100.5 6.4 100.7 6.5 100.7 6.6 C 100.8 6.6 100.9 6.8 101 6.9 C 101 7 101.1 7.2 101.1 7.4 C 101.1 7.6 101 7.9 100.9 8.1 C 100.8 8.3 100.6 8.4 100.4 8.5 C 100.2 8.7 100 8.8 99.8 8.8 C 99.5 8.9 99.3 8.9 99 8.9 C 98.7 8.9 98.5 8.9 98.3 8.8 C 98 8.8 97.8 8.7 97.6 8.6 C 97.5 8.4 97.3 8.3 97.2 8.1 C 97.1 7.9 97.1 7.6 97.1 7.3 C 97.1 7.3 98 7.3 98 7.3 C 98 7.6 98.1 7.8 98.3 7.9 C 98.5 8 98.8 8.1 99.1 8.1 C 99.2 8.1 99.3 8.1 99.4 8.1 C 99.5 8 99.6 8 99.7 8 C 99.8 7.9 99.9 7.8 100 7.8 C 100 7.7 100.1 7.6 100.1 7.4 C 100.1 7.3 100 7.2 99.9 7.1 C 99.8 7.1 99.7 7 99.6 6.9 C 99.5 6.9 99.3 6.8 99.1 6.8 C 99 6.7 98.8 6.7 98.6 6.6 C 98.5 6.6 98.4 6.5 98.2 6.4 C 98.1 6.4 98 6.3 97.9 6.2 C 97.8 6.1 97.7 6 97.7 5.9 C 97.6 5.7 97.6 5.6 97.6 5.4 C 97.6 5.2 97.7 4.9 97.8 4.8 C 97.9 4.6 98 4.4 98.2 4.3 C 98.4 4.2 98.6 4.1 98.8 4.1 C 99 4 99.3 4 99.5 4 C 99.8 4 100 4 100.2 4.1 C 100.5 4.1 100.6 4.2 100.8 4.3 C 101 4.4 101.1 4.6 101.2 4.8 C 101.3 5 101.3 5.2 101.3 5.5 C 101.3 5.5 100.4 5.5 100.4 5.5 Z M 103.2 2.7 L 104.2 2.7 L 103.9 4.1 L 104.8 4.1 L 104.7 4.9 L 103.7 4.9 C 103.7 4.9 103.26 7.16 103.3 7.2 C 103.2 7.3 103.2 7.4 103.2 7.5 C 103.2 7.5 103.2 7.6 103.2 7.7 C 103.2 7.8 103.2 7.9 103.2 7.9 C 103.3 8 103.4 8 103.5 8 C 103.6 8 103.7 8 103.8 8 C 103.9 8 104 8 104.1 8 C 104.1 8 103.9 8.7 103.9 8.7 C 103.8 8.8 103.6 8.8 103.5 8.8 C 103.3 8.8 103.2 8.8 103.1 8.8 C 102.9 8.8 102.7 8.8 102.6 8.7 C 102.5 8.7 102.4 8.6 102.3 8.6 C 102.3 8.5 102.2 8.4 102.2 8.3 C 102.2 8.2 102.1 8.1 102.1 8 C 102.1 7.9 102.2 7.8 102.2 7.7 C 102.2 7.6 102.2 7.5 102.2 7.4 C 102.21 7.43 102.7 4.9 102.7 4.9 L 101.9 4.9 L 102.1 4.1 L 102.9 4.1 L 103.2 2.7 Z M 105.7 4.1 L 106.7 4.1 L 106.5 5 C 106.5 5 106.5 5.05 106.5 5 C 106.6 4.9 106.7 4.8 106.8 4.7 C 106.9 4.5 107 4.4 107.1 4.3 C 107.2 4.2 107.4 4.2 107.5 4.1 C 107.7 4 107.8 4 108 4 C 108.1 4 108.2 4 108.2 4 C 108.3 4 108.4 4 108.5 4 C 108.5 4 108.3 5 108.3 5 C 108.2 5 108.1 5 108.1 5 C 108 5 108 5 107.9 5 C 107.6 5 107.4 5 107.2 5.1 C 107 5.2 106.9 5.3 106.7 5.5 C 106.6 5.7 106.5 5.8 106.4 6 C 106.3 6.3 106.2 6.5 106.2 6.7 C 106.2 6.71 105.8 8.8 105.8 8.8 L 104.7 8.8 L 105.7 4.1 Z M 111 4.8 C 110.7 4.8 110.5 4.9 110.3 5 C 110.1 5.1 109.9 5.3 109.8 5.5 C 109.7 5.7 109.6 5.9 109.5 6.2 C 109.4 6.4 109.4 6.7 109.4 6.9 C 109.4 7.2 109.5 7.5 109.7 7.7 C 109.8 8 110.1 8.1 110.5 8.1 C 110.7 8.1 111 8 111.2 7.9 C 111.4 7.8 111.5 7.6 111.7 7.4 C 111.8 7.2 111.9 7 111.9 6.7 C 112 6.5 112 6.2 112 6 C 112 5.7 112 5.4 111.8 5.1 C 111.6 4.9 111.3 4.8 111 4.8 Z M 110.4 8.9 C 109.8 8.9 109.3 8.7 108.9 8.4 C 108.6 8 108.4 7.5 108.4 6.9 C 108.4 6.5 108.4 6.1 108.6 5.8 C 108.7 5.4 108.9 5.1 109.1 4.9 C 109.3 4.6 109.6 4.4 109.9 4.2 C 110.3 4.1 110.6 4 111 4 C 111.7 4 112.2 4.2 112.5 4.5 C 112.9 4.8 113.1 5.3 113.1 6 C 113.1 6.4 113 6.8 112.9 7.1 C 112.8 7.5 112.6 7.8 112.4 8.1 C 112.1 8.3 111.8 8.5 111.5 8.7 C 111.2 8.8 110.8 8.9 110.4 8.9 Z " stroke="none" fill="#fff"/>
  </g>
</svg>