<?xml version="1.0" standalone="no"?>
<!DOCTYPE svg PUBLIC "-//W3C//DTD SVG 1.1//EN" "http://www.w3.org/Graphics/SVG/1.1/DTD/svg11.dtd">
<svg xmlns="http://www.w3.org/2000/svg" version="1.1" width="149px" height="14.5px" viewBox="0 -1 149 14.5" style="top:-1px">
  <desc>Hance Aballa at Lee Justin Catura</desc>
  <defs/>
  <g id="Polygon14390">
    <path d="M 4.7 0.3 L 4.7 5.6 L 3.4 5.6 L 3.4 3.4 L 1.8 3.4 L 1.8 5.6 L 0.5 5.6 L 0.5 0.3 L 1.8 0.3 L 1.8 2.3 L 3.4 2.3 L 3.4 0.3 L 4.7 0.3 Z M 8.7 0.3 L 10.3 5.6 L 9 5.6 L 8.7 4.5 L 6.9 4.5 L 6.6 5.6 L 5.5 5.6 L 7.2 0.3 L 8.7 0.3 Z M 7.2 3.5 L 8.4 3.5 L 7.8 1.6 L 7.2 3.5 Z M 15.3 0.3 L 15.3 5.6 L 14.3 5.6 C 14.3 5.6 12.18 2 12.2 2 C 12.2 2.1 12.2 2.2 12.2 2.2 C 12.2 2.3 12.2 2.3 12.2 2.4 C 12.2 2.41 12.2 5.6 12.2 5.6 L 11.2 5.6 L 11.2 0.3 L 12.6 0.3 C 12.6 0.3 14.39 3.41 14.4 3.4 C 14.4 3.3 14.4 3.1 14.4 3.1 C 14.36 3.06 14.4 0.3 14.4 0.3 L 15.3 0.3 Z M 18.9 0.2 C 20.1 0.2 20.9 0.9 21 2.3 C 21 2.3 19.7 2.3 19.7 2.3 C 19.7 1.6 19.4 1.2 18.8 1.2 C 18.2 1.2 17.9 1.8 17.9 2.9 C 17.9 3.6 17.9 4.1 18.1 4.3 C 18.3 4.5 18.5 4.7 18.9 4.7 C 19.4 4.7 19.7 4.3 19.8 3.7 C 19.8 3.7 21 3.7 21 3.7 C 20.9 4.4 20.7 4.9 20.3 5.2 C 19.9 5.5 19.4 5.7 18.8 5.7 C 18.1 5.7 17.6 5.4 17.1 5 C 16.7 4.5 16.5 3.8 16.5 2.9 C 16.5 2.1 16.7 1.5 17.1 1 C 17.5 0.4 18.1 0.2 18.9 0.2 C 18.9 0.2 18.9 0.2 18.9 0.2 Z M 25.9 1.3 L 23.3 1.3 L 23.3 2.4 L 25.3 2.4 L 25.3 3.4 L 23.3 3.4 L 23.3 4.5 L 25.9 4.5 L 25.9 5.6 L 22.1 5.6 L 22.1 0.3 L 25.9 0.3 L 25.9 1.3 Z M 31.9 0.3 L 33.5 5.6 L 32.2 5.6 L 31.9 4.5 L 30.2 4.5 L 29.8 5.6 L 28.7 5.6 L 30.4 0.3 L 31.9 0.3 Z M 30.4 3.5 L 31.6 3.5 L 31 1.6 L 30.4 3.5 Z M 34.4 0.3 C 34.4 0.3 36.92 0.27 36.9 0.3 C 37.4 0.3 37.7 0.3 37.9 0.4 C 38.2 0.5 38.3 0.7 38.5 0.9 C 38.6 1.1 38.7 1.4 38.7 1.6 C 38.7 2.2 38.4 2.6 37.7 2.8 C 38.1 2.9 38.4 3.1 38.6 3.3 C 38.8 3.6 38.8 3.8 38.8 4.1 C 38.8 4.5 38.7 4.9 38.4 5.2 C 38.1 5.5 37.6 5.6 36.9 5.6 C 36.92 5.6 34.4 5.6 34.4 5.6 L 34.4 0.3 Z M 35.7 1.2 L 35.7 2.4 C 35.7 2.4 36.63 2.38 36.6 2.4 C 37 2.4 37.2 2.3 37.3 2.2 C 37.4 2 37.4 1.9 37.4 1.8 C 37.4 1.6 37.4 1.5 37.3 1.4 C 37.2 1.3 37.2 1.3 37.1 1.2 C 37 1.2 36.8 1.2 36.5 1.2 C 36.54 1.21 35.7 1.2 35.7 1.2 Z M 35.7 3.3 L 35.7 4.6 C 35.7 4.6 36.64 4.61 36.6 4.6 C 37 4.6 37.2 4.6 37.3 4.4 C 37.5 4.3 37.5 4.2 37.5 4 C 37.5 3.8 37.5 3.6 37.3 3.5 C 37.2 3.4 37 3.3 36.7 3.3 C 36.7 3.33 35.7 3.3 35.7 3.3 Z M 42.6 0.3 L 44.3 5.6 L 42.9 5.6 L 42.6 4.5 L 40.9 4.5 L 40.5 5.6 L 39.4 5.6 L 41.1 0.3 L 42.6 0.3 Z M 41.2 3.5 L 42.3 3.5 L 41.7 1.6 L 41.2 3.5 Z M 46.4 4.5 L 48.5 4.5 L 48.5 5.6 L 45.2 5.6 L 45.2 0.3 L 46.4 0.3 L 46.4 4.5 Z M 50.8 4.5 L 52.9 4.5 L 52.9 5.6 L 49.5 5.6 L 49.5 0.3 L 50.8 0.3 L 50.8 4.5 Z M 56.5 0.3 L 58.1 5.6 L 56.8 5.6 L 56.5 4.5 L 54.7 4.5 L 54.4 5.6 L 53.3 5.6 L 55 0.3 L 56.5 0.3 Z M 55 3.5 L 56.2 3.5 L 55.6 1.6 L 55 3.5 Z M 64 0.3 L 65.6 5.6 L 64.3 5.6 L 64 4.5 L 62.2 4.5 L 61.9 5.6 L 60.8 5.6 L 62.5 0.3 L 64 0.3 Z M 62.5 3.5 L 63.7 3.5 L 63.1 1.6 L 62.5 3.5 Z M 69.5 0.3 L 69.5 1.3 L 68.2 1.3 L 68.2 5.6 L 66.9 5.6 L 66.9 1.3 L 65.6 1.3 L 65.6 0.3 L 69.5 0.3 Z M 73.9 4.5 L 76.1 4.5 L 76.1 5.6 L 72.7 5.6 L 72.7 0.3 L 73.9 0.3 L 73.9 4.5 Z M 80.8 1.3 L 78.3 1.3 L 78.3 2.4 L 80.3 2.4 L 80.3 3.4 L 78.3 3.4 L 78.3 4.5 L 80.8 4.5 L 80.8 5.6 L 77 5.6 L 77 0.3 L 80.8 0.3 L 80.8 1.3 Z M 85.7 1.3 L 83.2 1.3 L 83.2 2.4 L 85.2 2.4 L 85.2 3.4 L 83.2 3.4 L 83.2 4.5 L 85.7 4.5 L 85.7 5.6 L 81.9 5.6 L 81.9 0.3 L 85.7 0.3 L 85.7 1.3 Z M 91.1 0.3 C 91.1 0.3 91.14 4.07 91.1 4.1 C 91.1 4.6 91 5 90.7 5.3 C 90.5 5.6 90.1 5.7 89.5 5.7 C 89.2 5.7 88.9 5.7 88.6 5.6 C 88.6 5.6 88.6 4.6 88.6 4.6 C 88.9 4.6 89.1 4.6 89.3 4.6 C 89.4 4.6 89.5 4.6 89.6 4.5 C 89.7 4.5 89.8 4.4 89.8 4.3 C 89.9 4.3 89.9 4.1 89.9 3.9 C 89.89 3.92 89.9 0.3 89.9 0.3 L 91.1 0.3 Z M 96.7 0.3 C 96.7 0.3 96.68 3.59 96.7 3.6 C 96.7 4.1 96.6 4.5 96.5 4.8 C 96.4 5 96.1 5.3 95.8 5.4 C 95.5 5.6 95.1 5.7 94.6 5.7 C 94 5.7 93.6 5.6 93.3 5.5 C 93 5.3 92.8 5.1 92.6 4.8 C 92.5 4.5 92.4 4.1 92.4 3.6 C 92.42 3.59 92.4 0.3 92.4 0.3 L 93.8 0.3 C 93.8 0.3 93.77 3.59 93.8 3.6 C 93.8 3.9 93.8 4.1 93.8 4.2 C 93.9 4.4 94 4.5 94.1 4.5 C 94.3 4.6 94.5 4.7 94.7 4.7 C 94.9 4.7 95.1 4.6 95.2 4.5 C 95.4 4.5 95.5 4.4 95.5 4.2 C 95.6 4.1 95.6 3.9 95.6 3.6 C 95.61 3.59 95.6 0.3 95.6 0.3 L 96.7 0.3 Z M 99.7 0.2 C 100.7 0.2 101.4 0.6 101.7 1.4 C 101.7 1.4 100.6 1.8 100.6 1.8 C 100.5 1.4 100.2 1.2 99.7 1.2 C 99.2 1.2 99 1.3 99 1.6 C 99 1.8 99 1.9 99.1 2 C 99.2 2.1 99.4 2.1 99.7 2.2 C 100.3 2.3 100.7 2.4 100.9 2.5 C 101.2 2.6 101.4 2.8 101.6 3.1 C 101.7 3.3 101.8 3.6 101.8 3.9 C 101.8 4.4 101.6 4.8 101.3 5.2 C 100.9 5.5 100.3 5.7 99.6 5.7 C 99.1 5.7 98.6 5.6 98.2 5.3 C 97.8 5.1 97.6 4.7 97.5 4.2 C 97.5 4.2 98.6 3.9 98.6 3.9 C 98.7 4.4 99.1 4.7 99.7 4.7 C 100 4.7 100.2 4.6 100.3 4.5 C 100.5 4.4 100.5 4.3 100.5 4.1 C 100.5 4 100.5 3.8 100.4 3.8 C 100.2 3.7 100 3.6 99.6 3.5 C 98.9 3.4 98.5 3.2 98.2 2.9 C 97.9 2.7 97.7 2.3 97.7 1.9 C 97.7 1.4 97.9 1 98.3 0.7 C 98.6 0.4 99.1 0.2 99.7 0.2 C 99.7 0.2 99.7 0.2 99.7 0.2 Z M 106.4 0.3 L 106.4 1.3 L 105.1 1.3 L 105.1 5.6 L 103.8 5.6 L 103.8 1.3 L 102.5 1.3 L 102.5 0.3 L 106.4 0.3 Z M 108.5 0.3 L 108.5 5.6 L 107.2 5.6 L 107.2 0.3 L 108.5 0.3 Z M 114 0.3 L 114 5.6 L 112.9 5.6 C 112.9 5.6 110.81 2 110.8 2 C 110.8 2.1 110.8 2.2 110.8 2.2 C 110.8 2.3 110.8 2.3 110.8 2.4 C 110.84 2.41 110.8 5.6 110.8 5.6 L 109.9 5.6 L 109.9 0.3 L 111.2 0.3 C 111.2 0.3 113.02 3.41 113 3.4 C 113 3.3 113 3.1 113 3.1 C 113 3.06 113 0.3 113 0.3 L 114 0.3 Z M 119.8 0.2 C 121.1 0.2 121.8 0.9 122 2.3 C 122 2.3 120.7 2.3 120.7 2.3 C 120.6 1.6 120.4 1.2 119.8 1.2 C 119.1 1.2 118.8 1.8 118.8 2.9 C 118.8 3.6 118.9 4.1 119.1 4.3 C 119.3 4.5 119.5 4.7 119.8 4.7 C 120.3 4.7 120.7 4.3 120.8 3.7 C 120.8 3.7 122 3.7 122 3.7 C 121.9 4.4 121.7 4.9 121.3 5.2 C 120.9 5.5 120.4 5.7 119.8 5.7 C 119.1 5.7 118.5 5.4 118.1 5 C 117.6 4.5 117.4 3.8 117.4 2.9 C 117.4 2.1 117.6 1.5 118.1 1 C 118.5 0.4 119.1 0.2 119.8 0.2 C 119.8 0.2 119.8 0.2 119.8 0.2 Z M 125.6 0.3 L 127.2 5.6 L 125.9 5.6 L 125.6 4.5 L 123.9 4.5 L 123.5 5.6 L 122.4 5.6 L 124.1 0.3 L 125.6 0.3 Z M 124.2 3.5 L 125.3 3.5 L 124.7 1.6 L 124.2 3.5 Z M 131.1 0.3 L 131.1 1.3 L 129.8 1.3 L 129.8 5.6 L 128.5 5.6 L 128.5 1.3 L 127.2 1.3 L 127.2 0.3 L 131.1 0.3 Z M 136.2 0.3 C 136.2 0.3 136.17 3.59 136.2 3.6 C 136.2 4.1 136.1 4.5 136 4.8 C 135.9 5 135.6 5.3 135.3 5.4 C 135 5.6 134.6 5.7 134 5.7 C 133.5 5.7 133.1 5.6 132.8 5.5 C 132.5 5.3 132.3 5.1 132.1 4.8 C 132 4.5 131.9 4.1 131.9 3.6 C 131.92 3.59 131.9 0.3 131.9 0.3 L 133.3 0.3 C 133.3 0.3 133.27 3.59 133.3 3.6 C 133.3 3.9 133.3 4.1 133.3 4.2 C 133.4 4.4 133.5 4.5 133.6 4.5 C 133.8 4.6 134 4.7 134.2 4.7 C 134.4 4.7 134.6 4.6 134.7 4.5 C 134.9 4.5 135 4.4 135 4.2 C 135.1 4.1 135.1 3.9 135.1 3.6 C 135.1 3.59 135.1 0.3 135.1 0.3 L 136.2 0.3 Z M 138.7 3.5 L 138.7 5.6 L 137.5 5.6 L 137.5 0.3 C 137.5 0.3 139.83 0.27 139.8 0.3 C 140.3 0.3 140.6 0.3 140.9 0.4 C 141.1 0.5 141.3 0.7 141.5 1 C 141.7 1.2 141.8 1.5 141.8 1.9 C 141.8 2.5 141.5 3 140.9 3.2 C 140.85 3.24 141.8 5.6 141.8 5.6 L 140.5 5.6 L 139.6 3.5 L 138.7 3.5 Z M 138.7 1.2 L 138.7 2.6 C 138.7 2.6 139.51 2.58 139.5 2.6 C 139.8 2.6 139.9 2.6 140.1 2.5 C 140.2 2.5 140.3 2.4 140.4 2.3 C 140.4 2.2 140.5 2 140.5 1.9 C 140.5 1.7 140.4 1.6 140.4 1.5 C 140.3 1.4 140.2 1.3 140.1 1.3 C 140 1.2 139.8 1.2 139.5 1.2 C 139.48 1.22 138.7 1.2 138.7 1.2 Z M 145.7 0.3 L 147.4 5.6 L 146 5.6 L 145.7 4.5 L 144 4.5 L 143.6 5.6 L 142.5 5.6 L 144.2 0.3 L 145.7 0.3 Z M 144.3 3.5 L 145.4 3.5 L 144.8 1.6 L 144.3 3.5 Z " stroke="none" fill="#000"/>
  </g>
</svg>