<?xml version="1.0" standalone="no"?>
<!DOCTYPE svg PUBLIC "-//W3C//DTD SVG 1.1//EN" "http://www.w3.org/Graphics/SVG/1.1/DTD/svg11.dtd">
<svg xmlns="http://www.w3.org/2000/svg" version="1.1" width="98.4px" height="18px" viewBox="0 -3 98.4 18" style="top:-3px">
  <desc>Dibuho ni Bryan Manese</desc>
  <defs/>
  <g id="Polygon16508">
    <path d="M 1.3 7.9 C 1.3 7.9 2.74 7.86 2.7 7.9 C 3.1 7.9 3.3 7.8 3.6 7.7 C 3.8 7.6 4 7.4 4.2 7.3 C 4.4 7.1 4.5 6.9 4.6 6.7 C 4.8 6.5 4.9 6.3 4.9 6.1 C 5 5.8 5 5.7 5.1 5.5 C 5.1 5.3 5.1 5.1 5.1 5 C 5.1 4.5 5 4 4.7 3.7 C 4.5 3.4 4.1 3.3 3.7 3.3 C 3.7 3.27 2.3 3.3 2.3 3.3 L 1.3 7.9 Z M 1.4 2.3 C 1.4 2.3 3.72 2.35 3.7 2.3 C 4.5 2.3 5.2 2.6 5.6 3 C 6 3.5 6.2 4.1 6.2 5 C 6.2 5.2 6.2 5.4 6.2 5.7 C 6.1 5.9 6.1 6.2 6 6.4 C 5.9 6.6 5.8 6.9 5.7 7.1 C 5.5 7.3 5.4 7.5 5.2 7.7 C 5 7.9 4.8 8 4.7 8.2 C 4.5 8.3 4.3 8.4 4.1 8.5 C 3.8 8.6 3.6 8.7 3.3 8.7 C 3 8.8 2.7 8.8 2.3 8.8 C 2.27 8.77 0 8.8 0 8.8 L 1.4 2.3 Z M 7.5 2.3 L 8.6 2.3 L 8.4 3.3 L 7.3 3.3 L 7.5 2.3 Z M 7.2 4.1 L 8.2 4.1 L 7.2 8.8 L 6.2 8.8 L 7.2 4.1 Z M 9.5 2.3 L 10.6 2.3 L 10.1 4.7 C 10.1 4.7 10.1 4.67 10.1 4.7 C 10.4 4.2 10.9 4 11.5 4 C 11.8 4 12 4 12.3 4.1 C 12.5 4.2 12.7 4.4 12.8 4.5 C 13 4.7 13.1 4.9 13.1 5.1 C 13.2 5.4 13.3 5.6 13.3 5.9 C 13.3 6.3 13.2 6.6 13.1 7 C 13 7.4 12.9 7.7 12.7 8 C 12.4 8.2 12.2 8.5 11.9 8.6 C 11.6 8.8 11.2 8.9 10.8 8.9 C 10.5 8.9 10.2 8.8 9.9 8.7 C 9.6 8.6 9.4 8.3 9.3 8 C 9.29 7.99 9.3 8 9.3 8 L 9.1 8.8 L 8.2 8.8 L 9.5 2.3 Z M 11.2 4.8 C 10.9 4.8 10.7 4.9 10.5 5 C 10.3 5.1 10.1 5.3 10 5.5 C 9.9 5.7 9.8 5.9 9.7 6.2 C 9.6 6.4 9.6 6.7 9.6 6.9 C 9.6 7.3 9.7 7.6 9.9 7.8 C 10 8 10.3 8.1 10.7 8.1 C 11 8.1 11.2 8 11.4 7.9 C 11.6 7.8 11.7 7.6 11.9 7.4 C 12 7.2 12.1 7 12.1 6.7 C 12.2 6.5 12.2 6.2 12.2 6 C 12.2 5.6 12.2 5.3 12 5.1 C 11.8 4.9 11.5 4.8 11.2 4.8 Z M 17.6 8.8 L 16.6 8.8 L 16.8 8.1 C 16.8 8.1 16.74 8.08 16.7 8.1 C 16.6 8.3 16.3 8.5 16 8.7 C 15.8 8.8 15.5 8.9 15.1 8.9 C 14.7 8.9 14.3 8.8 14.1 8.6 C 13.9 8.3 13.8 8 13.8 7.7 C 13.8 7.6 13.8 7.5 13.8 7.4 C 13.8 7.3 13.8 7.2 13.8 7.1 C 13.82 7.09 14.4 4.1 14.4 4.1 L 15.5 4.1 C 15.5 4.1 14.88 6.99 14.9 7 C 14.9 7.1 14.8 7.1 14.8 7.2 C 14.8 7.3 14.8 7.4 14.8 7.4 C 14.8 7.5 14.8 7.5 14.8 7.6 C 14.8 7.7 14.8 7.7 14.9 7.8 C 14.9 7.9 15 8 15.1 8 C 15.2 8.1 15.3 8.1 15.5 8.1 C 15.7 8.1 15.9 8 16.1 8 C 16.2 7.9 16.4 7.8 16.5 7.6 C 16.6 7.5 16.7 7.3 16.8 7.2 C 16.9 7 17 6.8 17 6.6 C 16.99 6.64 17.5 4.1 17.5 4.1 L 18.5 4.1 L 17.6 8.8 Z M 19.8 2.3 L 20.9 2.3 L 20.4 4.8 C 20.4 4.8 20.38 4.78 20.4 4.8 C 20.5 4.5 20.8 4.4 21.1 4.2 C 21.3 4.1 21.6 4 21.9 4 C 22.4 4 22.7 4.1 22.9 4.3 C 23.2 4.6 23.3 4.9 23.3 5.2 C 23.3 5.3 23.3 5.4 23.3 5.5 C 23.2 5.6 23.2 5.7 23.2 5.8 C 23.22 5.8 22.6 8.8 22.6 8.8 L 21.6 8.8 C 21.6 8.8 22.17 5.9 22.2 5.9 C 22.2 5.8 22.2 5.8 22.2 5.7 C 22.2 5.6 22.2 5.5 22.2 5.5 C 22.2 5.4 22.2 5.4 22.2 5.3 C 22.2 5.2 22.2 5.2 22.2 5.1 C 22.1 5 22.1 4.9 22 4.9 C 21.9 4.8 21.7 4.8 21.5 4.8 C 21.3 4.8 21.1 4.8 21 4.9 C 20.8 5 20.7 5.1 20.6 5.3 C 20.4 5.4 20.3 5.5 20.2 5.7 C 20.2 5.9 20.1 6.1 20.1 6.3 C 20.05 6.25 19.5 8.8 19.5 8.8 L 18.5 8.8 L 19.8 2.3 Z M 26.3 4.8 C 26 4.8 25.8 4.9 25.6 5 C 25.4 5.1 25.3 5.3 25.1 5.5 C 25 5.7 24.9 5.9 24.8 6.2 C 24.8 6.4 24.7 6.7 24.7 6.9 C 24.7 7.2 24.8 7.5 25 7.7 C 25.2 8 25.4 8.1 25.8 8.1 C 26.1 8.1 26.3 8 26.5 7.9 C 26.7 7.8 26.8 7.6 27 7.4 C 27.1 7.2 27.2 7 27.3 6.7 C 27.3 6.5 27.4 6.2 27.4 6 C 27.4 5.7 27.3 5.4 27.1 5.1 C 26.9 4.9 26.7 4.8 26.3 4.8 Z M 25.7 8.9 C 25.1 8.9 24.6 8.7 24.2 8.4 C 23.9 8 23.7 7.5 23.7 6.9 C 23.7 6.5 23.8 6.1 23.9 5.8 C 24 5.4 24.2 5.1 24.4 4.9 C 24.7 4.6 24.9 4.4 25.3 4.2 C 25.6 4.1 26 4 26.4 4 C 27 4 27.5 4.2 27.9 4.5 C 28.2 4.8 28.4 5.3 28.4 6 C 28.4 6.4 28.3 6.8 28.2 7.1 C 28.1 7.5 27.9 7.8 27.7 8.1 C 27.5 8.3 27.2 8.5 26.9 8.7 C 26.5 8.8 26.2 8.9 25.7 8.9 Z M 31.9 4.1 L 32.9 4.1 L 32.8 4.8 C 32.8 4.8 32.77 4.81 32.8 4.8 C 33 4.6 33.2 4.4 33.5 4.2 C 33.7 4.1 34 4 34.4 4 C 34.8 4 35.2 4.1 35.4 4.3 C 35.6 4.6 35.7 4.9 35.7 5.2 C 35.7 5.3 35.7 5.4 35.7 5.5 C 35.7 5.6 35.7 5.7 35.7 5.8 C 35.68 5.8 35.1 8.8 35.1 8.8 L 34 8.8 C 34 8.8 34.63 5.9 34.6 5.9 C 34.6 5.8 34.7 5.8 34.7 5.7 C 34.7 5.6 34.7 5.5 34.7 5.5 C 34.7 5.4 34.7 5.4 34.7 5.3 C 34.7 5.2 34.7 5.2 34.6 5.1 C 34.6 5 34.5 4.9 34.4 4.9 C 34.3 4.8 34.2 4.8 34 4.8 C 33.8 4.8 33.6 4.8 33.4 4.9 C 33.3 5 33.1 5.1 33 5.3 C 32.9 5.4 32.8 5.5 32.7 5.7 C 32.6 5.9 32.6 6.1 32.5 6.3 C 32.52 6.25 32 8.8 32 8.8 L 31 8.8 L 31.9 4.1 Z M 37.3 2.3 L 38.3 2.3 L 38.1 3.3 L 37.1 3.3 L 37.3 2.3 Z M 36.9 4.1 L 37.9 4.1 L 37 8.8 L 36 8.8 L 36.9 4.1 Z M 41.7 7.9 C 41.7 7.9 43.31 7.86 43.3 7.9 C 43.4 7.9 43.5 7.9 43.7 7.8 C 43.9 7.8 44.1 7.8 44.2 7.8 C 44.4 7.7 44.6 7.6 44.7 7.5 C 44.9 7.3 44.9 7.1 45 6.9 C 45 6.8 45 6.7 45 6.6 C 45 6.5 44.9 6.3 44.8 6.2 C 44.8 6.1 44.6 6 44.5 6 C 44.3 5.9 44.1 5.8 43.8 5.8 C 43.82 5.85 42.1 5.8 42.1 5.8 L 41.7 7.9 Z M 42.3 5 C 42.3 5 43.96 5.04 44 5 C 44.2 5 44.5 5 44.6 4.9 C 44.8 4.9 44.9 4.8 45 4.7 C 45.1 4.6 45.2 4.5 45.2 4.3 C 45.2 4.2 45.2 4.1 45.2 4 C 45.2 4 45.2 3.9 45.2 3.8 C 45.2 3.7 45.2 3.6 45.1 3.6 C 45 3.5 44.9 3.4 44.8 3.3 C 44.7 3.3 44.5 3.3 44.3 3.3 C 44.25 3.27 42.7 3.3 42.7 3.3 L 42.3 5 Z M 41.7 2.3 C 41.7 2.3 44.49 2.35 44.5 2.3 C 44.9 2.3 45.2 2.4 45.5 2.5 C 45.7 2.6 45.9 2.8 46.1 2.9 C 46.2 3.1 46.3 3.2 46.3 3.4 C 46.3 3.6 46.4 3.7 46.4 3.9 C 46.4 4 46.3 4.2 46.3 4.4 C 46.2 4.6 46.1 4.7 46 4.9 C 45.9 5 45.8 5.1 45.6 5.2 C 45.5 5.3 45.3 5.4 45.1 5.4 C 45.1 5.4 45.1 5.4 45.1 5.4 C 45.8 5.6 46.1 6.1 46.1 6.7 C 46.1 6.9 46.1 7.1 46 7.3 C 45.9 7.6 45.8 7.8 45.6 8 C 45.5 8.2 45.2 8.4 44.9 8.6 C 44.6 8.7 44.2 8.8 43.7 8.8 C 43.69 8.77 40.4 8.8 40.4 8.8 L 41.7 2.3 Z M 47.4 4.1 L 48.4 4.1 L 48.2 5 C 48.2 5 48.19 5.05 48.2 5 C 48.3 4.9 48.3 4.8 48.5 4.7 C 48.6 4.5 48.7 4.4 48.8 4.3 C 48.9 4.2 49.1 4.2 49.2 4.1 C 49.4 4 49.5 4 49.7 4 C 49.8 4 49.8 4 49.9 4 C 50 4 50.1 4 50.2 4 C 50.2 4 49.9 5 49.9 5 C 49.9 5 49.8 5 49.8 5 C 49.7 5 49.6 5 49.6 5 C 49.3 5 49.1 5 48.9 5.1 C 48.7 5.2 48.5 5.3 48.4 5.5 C 48.3 5.7 48.2 5.8 48.1 6 C 48 6.3 47.9 6.5 47.9 6.7 C 47.88 6.71 47.4 8.8 47.4 8.8 L 46.4 8.8 L 47.4 4.1 Z M 49.9 4.1 L 51 4.1 L 51.5 7.5 L 51.5 7.5 L 53.3 4.1 L 54.4 4.1 C 54.4 4.1 51.71 8.92 51.7 8.9 C 51.6 9.1 51.5 9.4 51.4 9.6 C 51.2 9.8 51.1 9.9 51 10.1 C 50.8 10.3 50.7 10.4 50.5 10.5 C 50.3 10.6 50 10.6 49.7 10.6 C 49.6 10.6 49.3 10.6 49.1 10.5 C 49.1 10.5 49.3 9.7 49.3 9.7 C 49.4 9.7 49.4 9.7 49.5 9.7 C 49.6 9.8 49.6 9.8 49.7 9.8 C 49.8 9.8 50 9.7 50.1 9.7 C 50.2 9.6 50.3 9.5 50.4 9.4 C 50.35 9.37 50.8 8.6 50.8 8.6 L 49.9 4.1 Z M 54.9 7.5 C 54.9 7.6 55 7.7 55 7.8 C 55.1 7.9 55.1 7.9 55.2 8 C 55.3 8 55.4 8 55.5 8.1 C 55.6 8.1 55.7 8.1 55.8 8.1 C 56 8.1 56.2 8 56.4 8 C 56.6 7.9 56.7 7.8 56.8 7.6 C 56.9 7.5 57 7.3 57.1 7.1 C 57.1 6.9 57.2 6.7 57.2 6.5 C 57.2 6.5 57.2 6.5 57.2 6.5 C 57.1 6.5 57 6.6 56.9 6.6 C 56.8 6.7 56.7 6.7 56.6 6.7 C 56.4 6.7 56.3 6.7 56.1 6.7 C 55.9 6.7 55.7 6.8 55.5 6.8 C 55.4 6.9 55.2 6.9 55.1 7.1 C 55 7.2 54.9 7.3 54.9 7.5 Z M 58 7.4 C 58 7.5 58 7.6 58 7.7 C 58 7.7 57.9 7.8 57.9 7.9 C 57.9 8 58 8 58 8 C 58 8.1 58.1 8.1 58.2 8.1 C 58.2 8.1 58.3 8.1 58.3 8.1 C 58.4 8.1 58.5 8 58.5 8 C 58.5 8 58.4 8.8 58.4 8.8 C 58.2 8.8 58.1 8.8 58 8.9 C 57.8 8.9 57.7 8.9 57.6 8.9 C 57.4 8.9 57.2 8.8 57.1 8.7 C 57 8.6 56.9 8.5 56.9 8.3 C 56.7 8.5 56.5 8.7 56.2 8.8 C 55.9 8.9 55.7 8.9 55.4 8.9 C 55.2 8.9 55 8.9 54.8 8.8 C 54.6 8.8 54.5 8.7 54.4 8.6 C 54.2 8.5 54.1 8.4 54 8.2 C 54 8 53.9 7.9 53.9 7.7 C 53.9 7.4 54 7.1 54.1 6.9 C 54.2 6.7 54.3 6.6 54.5 6.5 C 54.7 6.3 54.9 6.2 55.1 6.2 C 55.4 6.1 55.6 6.1 55.9 6.1 C 56.2 6 56.6 6 56.9 6 C 57.1 6 57.2 5.9 57.3 5.8 C 57.4 5.7 57.4 5.5 57.4 5.4 C 57.4 5.1 57.4 5 57.2 4.9 C 57 4.8 56.9 4.8 56.7 4.8 C 56.4 4.8 56.1 4.9 55.9 5 C 55.7 5.1 55.6 5.2 55.5 5.5 C 55.5 5.5 54.5 5.5 54.5 5.5 C 54.6 5.2 54.7 5 54.8 4.8 C 54.9 4.6 55.1 4.5 55.3 4.3 C 55.5 4.2 55.7 4.1 55.9 4.1 C 56.2 4 56.4 4 56.7 4 C 57.1 4 57.5 4 57.7 4.1 C 57.9 4.2 58.1 4.3 58.2 4.4 C 58.3 4.5 58.4 4.6 58.4 4.8 C 58.5 4.9 58.5 5 58.5 5.1 C 58.5 5.3 58.4 5.5 58.4 5.8 C 58.4 5.8 58 7.4 58 7.4 Z M 59.7 4.1 L 60.6 4.1 L 60.5 4.8 C 60.5 4.8 60.52 4.81 60.5 4.8 C 60.7 4.6 60.9 4.4 61.2 4.2 C 61.5 4.1 61.8 4 62.1 4 C 62.6 4 62.9 4.1 63.1 4.3 C 63.4 4.6 63.5 4.9 63.5 5.2 C 63.5 5.3 63.5 5.4 63.5 5.5 C 63.5 5.6 63.4 5.7 63.4 5.8 C 63.43 5.8 62.8 8.8 62.8 8.8 L 61.8 8.8 C 61.8 8.8 62.38 5.9 62.4 5.9 C 62.4 5.8 62.4 5.8 62.4 5.7 C 62.4 5.6 62.5 5.5 62.5 5.5 C 62.5 5.4 62.4 5.4 62.4 5.3 C 62.4 5.2 62.4 5.2 62.4 5.1 C 62.3 5 62.3 4.9 62.2 4.9 C 62.1 4.8 61.9 4.8 61.7 4.8 C 61.5 4.8 61.4 4.8 61.2 4.9 C 61 5 60.9 5.1 60.8 5.3 C 60.6 5.4 60.5 5.5 60.5 5.7 C 60.4 5.9 60.3 6.1 60.3 6.3 C 60.26 6.25 59.7 8.8 59.7 8.8 L 58.7 8.8 L 59.7 4.1 Z M 67.5 2.3 L 69 2.3 L 69.7 7.2 L 69.8 7.2 L 72.6 2.3 L 74.2 2.3 L 72.8 8.8 L 71.7 8.8 L 72.9 3.6 L 72.8 3.6 L 69.9 8.8 L 69.1 8.8 L 68.2 3.6 L 68.2 3.6 L 67.2 8.8 L 66.2 8.8 L 67.5 2.3 Z M 74.9 7.5 C 74.9 7.6 74.9 7.7 75 7.8 C 75 7.9 75.1 7.9 75.2 8 C 75.2 8 75.3 8 75.4 8.1 C 75.5 8.1 75.6 8.1 75.7 8.1 C 76 8.1 76.2 8 76.4 8 C 76.5 7.9 76.7 7.8 76.8 7.6 C 76.9 7.5 77 7.3 77 7.1 C 77.1 6.9 77.1 6.7 77.2 6.5 C 77.2 6.5 77.2 6.5 77.2 6.5 C 77.1 6.5 77 6.6 76.9 6.6 C 76.8 6.7 76.6 6.7 76.5 6.7 C 76.4 6.7 76.2 6.7 76 6.7 C 75.8 6.7 75.7 6.8 75.5 6.8 C 75.3 6.9 75.2 6.9 75.1 7.1 C 75 7.2 74.9 7.3 74.9 7.5 Z M 78 7.4 C 78 7.5 77.9 7.6 77.9 7.7 C 77.9 7.7 77.9 7.8 77.9 7.9 C 77.9 8 77.9 8 77.9 8 C 78 8.1 78 8.1 78.1 8.1 C 78.2 8.1 78.2 8.1 78.3 8.1 C 78.4 8.1 78.4 8 78.5 8 C 78.5 8 78.3 8.8 78.3 8.8 C 78.2 8.8 78 8.8 77.9 8.9 C 77.8 8.9 77.6 8.9 77.5 8.9 C 77.3 8.9 77.2 8.8 77.1 8.7 C 77 8.6 76.9 8.5 76.9 8.3 C 76.7 8.5 76.4 8.7 76.2 8.8 C 75.9 8.9 75.6 8.9 75.3 8.9 C 75.1 8.9 74.9 8.9 74.8 8.8 C 74.6 8.8 74.4 8.7 74.3 8.6 C 74.2 8.5 74.1 8.4 74 8.2 C 73.9 8 73.9 7.9 73.9 7.7 C 73.9 7.4 73.9 7.1 74 6.9 C 74.1 6.7 74.3 6.6 74.5 6.5 C 74.6 6.3 74.9 6.2 75.1 6.2 C 75.3 6.1 75.6 6.1 75.8 6.1 C 76.2 6 76.5 6 76.9 6 C 77 6 77.2 5.9 77.3 5.8 C 77.3 5.7 77.4 5.5 77.4 5.4 C 77.4 5.1 77.3 5 77.2 4.9 C 77 4.8 76.8 4.8 76.6 4.8 C 76.3 4.8 76.1 4.9 75.9 5 C 75.7 5.1 75.5 5.2 75.4 5.5 C 75.4 5.5 74.5 5.5 74.5 5.5 C 74.5 5.2 74.6 5 74.8 4.8 C 74.9 4.6 75 4.5 75.2 4.3 C 75.4 4.2 75.6 4.1 75.9 4.1 C 76.1 4 76.4 4 76.7 4 C 77.1 4 77.4 4 77.7 4.1 C 77.9 4.2 78.1 4.3 78.2 4.4 C 78.3 4.5 78.4 4.6 78.4 4.8 C 78.4 4.9 78.4 5 78.4 5.1 C 78.4 5.3 78.4 5.5 78.3 5.8 C 78.3 5.8 78 7.4 78 7.4 Z M 79.6 4.1 L 80.6 4.1 L 80.5 4.8 C 80.5 4.8 80.47 4.81 80.5 4.8 C 80.7 4.6 80.9 4.4 81.2 4.2 C 81.4 4.1 81.7 4 82.1 4 C 82.5 4 82.9 4.1 83.1 4.3 C 83.3 4.6 83.4 4.9 83.4 5.2 C 83.4 5.3 83.4 5.4 83.4 5.5 C 83.4 5.6 83.4 5.7 83.4 5.8 C 83.38 5.8 82.8 8.8 82.8 8.8 L 81.7 8.8 C 81.7 8.8 82.33 5.9 82.3 5.9 C 82.3 5.8 82.4 5.8 82.4 5.7 C 82.4 5.6 82.4 5.5 82.4 5.5 C 82.4 5.4 82.4 5.4 82.4 5.3 C 82.4 5.2 82.4 5.2 82.3 5.1 C 82.3 5 82.2 4.9 82.1 4.9 C 82 4.8 81.9 4.8 81.7 4.8 C 81.5 4.8 81.3 4.8 81.1 4.9 C 81 5 80.8 5.1 80.7 5.3 C 80.6 5.4 80.5 5.5 80.4 5.7 C 80.3 5.9 80.3 6.1 80.2 6.3 C 80.22 6.25 79.7 8.8 79.7 8.8 L 78.7 8.8 L 79.6 4.1 Z M 87.4 6 C 87.4 6 87.4 6 87.4 6 C 87.4 5.9 87.4 5.9 87.4 5.9 C 87.4 5.9 87.4 5.8 87.4 5.8 C 87.4 5.5 87.3 5.2 87.1 5.1 C 87 4.9 86.7 4.8 86.4 4.8 C 86 4.8 85.7 4.9 85.5 5.2 C 85.3 5.4 85.1 5.7 85 6 C 85 6 87.4 6 87.4 6 Z M 88.1 7.3 C 88 7.9 87.7 8.3 87.3 8.5 C 86.9 8.8 86.4 8.9 85.9 8.9 C 85.6 8.9 85.3 8.9 85.1 8.8 C 84.8 8.7 84.6 8.5 84.4 8.4 C 84.2 8.2 84.1 8 84 7.7 C 83.9 7.5 83.9 7.2 83.9 6.9 C 83.9 6.5 83.9 6.2 84 5.8 C 84.1 5.5 84.3 5.2 84.5 4.9 C 84.7 4.6 85 4.4 85.3 4.2 C 85.7 4.1 86 4 86.4 4 C 86.8 4 87.2 4.1 87.4 4.2 C 87.7 4.3 87.9 4.5 88 4.7 C 88.2 4.9 88.3 5.2 88.3 5.4 C 88.4 5.7 88.4 5.9 88.4 6.1 C 88.4 6.3 88.4 6.4 88.4 6.5 C 88.4 6.5 88.4 6.6 88.4 6.7 C 88.4 6.7 84.9 6.7 84.9 6.7 C 84.9 6.7 84.9 6.8 84.9 6.8 C 84.9 6.8 84.9 6.8 84.9 6.9 C 84.9 6.9 84.9 7 84.9 7 C 84.9 7.3 85 7.6 85.1 7.8 C 85.3 8 85.6 8.1 86 8.1 C 86.3 8.1 86.5 8 86.7 7.9 C 86.9 7.8 87 7.6 87.1 7.3 C 87.1 7.3 88.1 7.3 88.1 7.3 Z M 91.8 5.5 C 91.8 5.2 91.7 5.1 91.5 5 C 91.3 4.9 91.1 4.8 90.8 4.8 C 90.7 4.8 90.6 4.8 90.5 4.8 C 90.5 4.9 90.4 4.9 90.3 4.9 C 90.2 5 90.2 5 90.1 5.1 C 90.1 5.2 90 5.3 90 5.4 C 90 5.5 90.1 5.6 90.2 5.7 C 90.2 5.7 90.4 5.8 90.5 5.8 C 90.6 5.9 90.8 5.9 90.9 6 C 91.1 6 91.3 6.1 91.4 6.1 C 91.5 6.2 91.7 6.2 91.8 6.3 C 91.9 6.4 92.1 6.5 92.2 6.6 C 92.3 6.6 92.3 6.8 92.4 6.9 C 92.5 7 92.5 7.2 92.5 7.4 C 92.5 7.6 92.4 7.9 92.3 8.1 C 92.2 8.3 92 8.4 91.8 8.5 C 91.7 8.7 91.4 8.8 91.2 8.8 C 90.9 8.9 90.7 8.9 90.4 8.9 C 90.2 8.9 89.9 8.9 89.7 8.8 C 89.4 8.8 89.2 8.7 89.1 8.6 C 88.9 8.4 88.8 8.3 88.6 8.1 C 88.5 7.9 88.5 7.6 88.5 7.3 C 88.5 7.3 89.5 7.3 89.5 7.3 C 89.4 7.6 89.5 7.8 89.7 7.9 C 89.9 8 90.2 8.1 90.5 8.1 C 90.6 8.1 90.7 8.1 90.8 8.1 C 90.9 8 91 8 91.1 8 C 91.2 7.9 91.3 7.8 91.4 7.8 C 91.4 7.7 91.5 7.6 91.5 7.4 C 91.5 7.3 91.4 7.2 91.3 7.1 C 91.2 7.1 91.1 7 91 6.9 C 90.9 6.9 90.7 6.8 90.5 6.8 C 90.4 6.7 90.2 6.7 90 6.6 C 89.9 6.6 89.8 6.5 89.7 6.4 C 89.5 6.4 89.4 6.3 89.3 6.2 C 89.2 6.1 89.2 6 89.1 5.9 C 89 5.7 89 5.6 89 5.4 C 89 5.2 89.1 4.9 89.2 4.8 C 89.3 4.6 89.4 4.4 89.6 4.3 C 89.8 4.2 90 4.1 90.2 4.1 C 90.5 4 90.7 4 90.9 4 C 91.2 4 91.4 4 91.6 4.1 C 91.9 4.1 92.1 4.2 92.2 4.3 C 92.4 4.4 92.5 4.6 92.6 4.8 C 92.7 5 92.7 5.2 92.7 5.5 C 92.7 5.5 91.8 5.5 91.8 5.5 Z M 96.5 6 C 96.5 6 96.5 6 96.5 6 C 96.5 5.9 96.5 5.9 96.5 5.9 C 96.5 5.9 96.5 5.8 96.5 5.8 C 96.5 5.5 96.4 5.2 96.3 5.1 C 96.1 4.9 95.9 4.8 95.6 4.8 C 95.2 4.8 94.9 4.9 94.6 5.2 C 94.4 5.4 94.2 5.7 94.1 6 C 94.1 6 96.5 6 96.5 6 Z M 97.3 7.3 C 97.1 7.9 96.8 8.3 96.5 8.5 C 96.1 8.8 95.6 8.9 95 8.9 C 94.7 8.9 94.5 8.9 94.2 8.8 C 94 8.7 93.8 8.5 93.6 8.4 C 93.4 8.2 93.3 8 93.1 7.7 C 93 7.5 93 7.2 93 6.9 C 93 6.5 93.1 6.2 93.2 5.8 C 93.3 5.5 93.4 5.2 93.7 4.9 C 93.9 4.6 94.2 4.4 94.5 4.2 C 94.8 4.1 95.2 4 95.6 4 C 96 4 96.3 4.1 96.6 4.2 C 96.8 4.3 97 4.5 97.2 4.7 C 97.3 4.9 97.4 5.2 97.5 5.4 C 97.5 5.7 97.6 5.9 97.6 6.1 C 97.6 6.3 97.6 6.4 97.5 6.5 C 97.5 6.5 97.5 6.6 97.5 6.7 C 97.5 6.7 94 6.7 94 6.7 C 94 6.7 94 6.8 94 6.8 C 94 6.8 94 6.8 94 6.9 C 94 6.9 94 7 94 7 C 94 7.3 94.1 7.6 94.3 7.8 C 94.4 8 94.7 8.1 95.1 8.1 C 95.4 8.1 95.6 8 95.8 7.9 C 96 7.8 96.2 7.6 96.2 7.3 C 96.2 7.3 97.3 7.3 97.3 7.3 Z " stroke="none" fill="#fff"/>
  </g>
</svg>