<?xml version="1.0" standalone="no"?>
<!DOCTYPE svg PUBLIC "-//W3C//DTD SVG 1.1//EN" "http://www.w3.org/Graphics/SVG/1.1/DTD/svg11.dtd">
<svg xmlns="http://www.w3.org/2000/svg" version="1.1" width="112.4px" height="16px" viewBox="0 -3 112.4 16" style="top:-3px">
  <desc>Unjowable jojaks</desc>
  <defs/>
  <g id="Polygon32049">
    <path d="M 6 4.3 C 5.6 6.2 4.9 7.2 2.9 7.2 C 1.6 7.2 0.3 6.7 0.3 5.3 C 0.3 5 0.4 4.6 0.5 4.3 C 0.48 4.33 1.3 0.6 1.3 0.6 L 2.7 0.6 C 2.7 0.6 1.89 4.33 1.9 4.3 C 1.8 4.5 1.8 4.9 1.8 5.1 C 1.8 5.5 2 6 3 6 C 4.1 6 4.3 5.4 4.5 4.4 C 4.54 4.42 5.3 0.6 5.3 0.6 L 6.7 0.6 C 6.7 0.6 5.97 4.35 6 4.3 Z M 7.6 2.4 L 8.8 2.4 L 8.7 3 C 8.7 3 8.72 3.03 8.7 3 C 9.1 2.5 9.7 2.3 10.4 2.3 C 11.2 2.3 11.7 2.7 11.7 3.5 C 11.7 3.7 11.6 4.1 11.6 4.3 C 11.57 4.31 11 7 11 7 L 9.7 7 C 9.7 7 10.29 4.31 10.3 4.3 C 10.3 4.2 10.4 3.9 10.4 3.7 C 10.4 3.5 10.1 3.3 9.8 3.3 C 9 3.3 8.6 3.9 8.5 4.6 C 8.45 4.56 7.9 7 7.9 7 L 6.7 7 L 7.6 2.4 Z M 11.4 7.6 C 11.5 7.6 11.7 7.6 11.8 7.6 C 12.2 7.6 12.3 7 12.3 6.8 C 12.32 6.79 13.2 2.4 13.2 2.4 L 14.5 2.4 C 14.5 2.4 13.51 7.21 13.5 7.2 C 13.3 8.2 12.9 8.7 11.8 8.7 C 11.6 8.7 11.4 8.6 11.2 8.6 C 11.2 8.6 11.4 7.6 11.4 7.6 Z M 14.7 1.7 L 13.4 1.7 L 13.6 0.6 L 14.9 0.6 L 14.7 1.7 Z M 17.5 2.3 C 18.8 2.3 19.7 2.9 19.7 4.2 C 19.7 5.9 18.7 7.2 17 7.2 C 15.7 7.2 14.9 6.5 14.9 5.2 C 14.9 3.6 15.9 2.3 17.5 2.3 Z M 17.1 6.2 C 18 6.2 18.4 5 18.4 4.2 C 18.4 3.6 18.2 3.2 17.5 3.2 C 16.6 3.2 16.1 4.4 16.1 5.2 C 16.1 5.7 16.5 6.2 17.1 6.2 Z M 25.3 7 L 23.9 7 L 23.8 3.8 L 23.8 3.8 L 22.3 7 L 21 7 L 20.5 2.4 L 21.8 2.4 L 22 5.7 L 22 5.7 L 23.4 2.4 L 24.7 2.4 L 24.8 5.6 L 24.9 5.6 L 26.4 2.4 L 27.7 2.4 L 25.3 7 Z M 30.9 4.8 C 30.5 5 30.1 5 29.8 5 C 29.3 5.1 28.8 5.2 28.8 5.8 C 28.8 6.1 29.2 6.3 29.5 6.3 C 30.3 6.3 30.6 5.8 30.7 5.3 C 30.7 5.3 30.9 4.8 30.9 4.8 Z M 28.2 3.8 C 28.3 2.6 29.3 2.3 30.4 2.3 C 31.2 2.3 32.3 2.4 32.3 3.5 C 32.3 3.7 32.3 4 32.2 4.3 C 32.2 4.3 31.8 6.1 31.8 6.1 C 31.7 6.3 31.7 6.6 31.7 6.8 C 31.7 6.8 31.7 7 31.8 7 C 31.77 7.04 30.5 7 30.5 7 C 30.5 7 30.49 6.58 30.5 6.6 C 30.1 7 29.6 7.2 29.1 7.2 C 28.1 7.2 27.6 6.6 27.6 5.9 C 27.6 5 28.2 4.5 29.3 4.4 C 30.5 4.2 31.1 4.3 31.1 3.7 C 31.1 3.2 30.6 3.1 30.3 3.1 C 29.8 3.1 29.4 3.3 29.4 3.8 C 29.4 3.8 28.2 3.8 28.2 3.8 Z M 34.4 5.2 C 34.4 5.8 34.8 6.2 35.3 6.2 C 36.3 6.2 36.7 5.1 36.7 4.3 C 36.7 3.7 36.5 3.2 35.8 3.2 C 34.8 3.2 34.4 4.4 34.4 5.2 Z M 34.1 0.6 L 35.4 0.6 L 34.9 2.9 C 34.9 2.9 34.94 2.88 34.9 2.9 C 35.3 2.4 35.7 2.3 36.3 2.3 C 37.5 2.3 38 3.2 38 4.2 C 38 5.7 37.2 7.2 35.6 7.2 C 34.9 7.2 34.3 7 34.1 6.3 C 34.12 6.31 34.1 6.3 34.1 6.3 L 33.9 7 L 32.8 7 L 34.1 0.6 Z M 39.7 0.6 L 41 0.6 L 39.6 7 L 38.4 7 L 39.7 0.6 Z M 42.2 5 C 42.2 5.1 42.2 5.2 42.2 5.3 C 42.2 5.8 42.5 6.2 43.2 6.2 C 43.7 6.2 44 5.9 44.2 5.6 C 44.2 5.6 45.5 5.6 45.5 5.6 C 45.1 6.6 44.4 7.2 43 7.2 C 41.8 7.2 41 6.5 41 5.1 C 41 3.6 42 2.3 43.5 2.3 C 44.8 2.3 45.7 2.9 45.7 4.3 C 45.7 4.5 45.7 4.8 45.6 5 C 45.6 5 42.2 5 42.2 5 Z M 44.5 4.2 C 44.5 3.7 44.4 3.2 43.6 3.2 C 42.9 3.2 42.5 3.7 42.3 4.2 C 42.3 4.2 44.5 4.2 44.5 4.2 Z M 47.8 7.6 C 47.9 7.6 48.1 7.6 48.2 7.6 C 48.6 7.6 48.6 7 48.7 6.8 C 48.71 6.79 49.6 2.4 49.6 2.4 L 50.9 2.4 C 50.9 2.4 49.9 7.21 49.9 7.2 C 49.7 8.2 49.3 8.7 48.2 8.7 C 48 8.7 47.8 8.6 47.5 8.6 C 47.5 8.6 47.8 7.6 47.8 7.6 Z M 51 1.7 L 49.8 1.7 L 50 0.6 L 51.3 0.6 L 51 1.7 Z M 53.9 2.3 C 55.2 2.3 56.1 2.9 56.1 4.2 C 56.1 5.9 55.1 7.2 53.4 7.2 C 52.1 7.2 51.2 6.5 51.2 5.2 C 51.2 3.6 52.3 2.3 53.9 2.3 Z M 53.4 6.2 C 54.4 6.2 54.8 5 54.8 4.2 C 54.8 3.6 54.5 3.2 53.9 3.2 C 52.9 3.2 52.5 4.4 52.5 5.2 C 52.5 5.7 52.8 6.2 53.4 6.2 Z M 55.6 7.6 C 55.8 7.6 55.9 7.6 56.1 7.6 C 56.4 7.6 56.5 7 56.6 6.8 C 56.56 6.79 57.5 2.4 57.5 2.4 L 58.8 2.4 C 58.8 2.4 57.74 7.21 57.7 7.2 C 57.5 8.2 57.2 8.7 56 8.7 C 55.8 8.7 55.6 8.6 55.4 8.6 C 55.4 8.6 55.6 7.6 55.6 7.6 Z M 58.9 1.7 L 57.6 1.7 L 57.8 0.6 L 59.1 0.6 L 58.9 1.7 Z M 62.2 4.8 C 61.9 5 61.5 5 61.2 5 C 60.7 5.1 60.2 5.2 60.2 5.8 C 60.2 6.1 60.6 6.3 60.9 6.3 C 61.7 6.3 62 5.8 62.1 5.3 C 62.1 5.3 62.2 4.8 62.2 4.8 Z M 59.5 3.8 C 59.7 2.6 60.7 2.3 61.7 2.3 C 62.6 2.3 63.7 2.4 63.7 3.5 C 63.7 3.7 63.6 4 63.6 4.3 C 63.6 4.3 63.2 6.1 63.2 6.1 C 63.1 6.3 63.1 6.6 63.1 6.8 C 63.1 6.8 63.1 7 63.2 7 C 63.15 7.04 61.9 7 61.9 7 C 61.9 7 61.87 6.58 61.9 6.6 C 61.5 7 61 7.2 60.5 7.2 C 59.4 7.2 58.9 6.6 58.9 5.9 C 58.9 5 59.6 4.5 60.7 4.4 C 61.9 4.2 62.5 4.3 62.5 3.7 C 62.5 3.2 62 3.1 61.7 3.1 C 61.2 3.1 60.8 3.3 60.7 3.8 C 60.7 3.8 59.5 3.8 59.5 3.8 Z M 65.5 0.6 L 66.8 0.6 L 66 4.1 L 66.1 4.1 L 67.9 2.4 L 69.5 2.4 L 67.4 4.1 L 68.6 7 L 67.2 7 L 66.4 5 L 65.7 5.5 L 65.4 7 L 64.2 7 L 65.5 0.6 Z M 72.5 3.7 C 72.5 3.3 72.3 3.1 71.8 3.1 C 71.4 3.1 71 3.2 71 3.6 C 71 3.8 71.2 3.9 71.6 4 C 71.6 4 72.2 4.2 72.2 4.2 C 72.9 4.5 73.5 4.8 73.5 5.6 C 73.5 6.7 72.3 7.2 71.3 7.2 C 70.3 7.2 69.3 6.8 69.3 5.7 C 69.27 5.72 69.3 5.5 69.3 5.5 L 70.5 5.5 C 70.5 5.5 70.46 5.68 70.5 5.7 C 70.5 6.1 70.9 6.3 71.4 6.3 C 71.8 6.3 72.2 6.2 72.2 5.8 C 72.2 5.4 72 5.3 71.7 5.2 C 71.7 5.2 70.7 4.9 70.7 4.9 C 70.1 4.7 69.7 4.5 69.7 3.7 C 69.7 2.6 70.9 2.3 71.8 2.3 C 72.8 2.3 73.7 2.5 73.7 3.7 C 73.7 3.7 72.5 3.7 72.5 3.7 Z " stroke="none" fill="#000"/>
  </g>
</svg>