<?xml version="1.0" standalone="no"?>
<!DOCTYPE svg PUBLIC "-//W3C//DTD SVG 1.1//EN" "http://www.w3.org/Graphics/SVG/1.1/DTD/svg11.dtd">
<svg xmlns="http://www.w3.org/2000/svg" version="1.1" width="792px" height="89.6px" viewBox="0 -17 792 89.6" style="top:-17px">
  <desc>Kuwento ng isang babaeng hindi nais magkaroon ng anak</desc>
  <defs/>
  <g id="Polygon28248">
    <path d="M 161.1 30.6 L 167 30.3 C 167 30.3 166.96 42.32 167 42.3 C 167.8 41.3 168.7 40.5 169.6 39.9 C 170.5 39.4 171.5 39.1 172.6 39.1 C 173.6 39.1 174.5 39.4 175.3 39.9 C 175.9 40.2 176.4 40.9 176.9 41.8 C 177.3 42.8 177.5 43.9 177.5 45.2 C 177.5 45.2 177.5 52.6 177.5 52.6 C 177.5 53 177.6 53.4 177.9 53.6 C 178.1 53.8 178.5 53.9 179 53.9 C 179.03 53.92 180.4 53.9 180.4 53.9 L 180.4 55.2 L 172 55.2 L 172 53.9 C 172 53.9 172.88 53.92 172.9 53.9 C 173.6 53.9 174.1 53.8 174.4 53.6 C 174.6 53.4 174.8 53 174.8 52.6 C 174.8 52.6 174.8 45.2 174.8 45.2 C 174.8 43.9 174.4 42.9 173.8 42.1 C 173.2 41.4 172.4 41.1 171.4 41.1 C 170.7 41.1 169.9 41.3 169.3 41.7 C 168.6 42.1 168.1 42.7 167.6 43.5 C 167.2 44.4 167 45.3 167 46.2 C 167 46.2 167 52.4 167 52.4 C 167 52.9 167.1 53.3 167.3 53.6 C 167.5 53.8 167.9 53.9 168.5 53.9 C 168.45 53.92 169.8 53.9 169.8 53.9 L 169.8 55.2 L 161.6 55.2 L 161.6 53.9 C 161.6 53.9 162.49 53.92 162.5 53.9 C 163.1 53.9 163.6 53.8 163.8 53.5 C 164.1 53.3 164.2 52.9 164.2 52.4 C 164.2 52.4 164.2 33.8 164.2 33.8 C 164.2 33.2 164.1 32.7 163.7 32.3 C 163.4 32 162.9 31.9 162.2 31.9 C 162.19 31.86 161.1 31.9 161.1 31.9 L 161.1 30.6 Z M 185.9 30.3 C 186.4 30.3 186.8 30.5 187.2 30.9 C 187.6 31.3 187.8 31.7 187.8 32.2 C 187.8 32.7 187.6 33.2 187.2 33.5 C 186.9 33.9 186.4 34.1 185.9 34.1 C 185.4 34.1 185 33.9 184.6 33.5 C 184.2 33.1 184 32.7 184 32.2 C 184 31.7 184.2 31.3 184.6 30.9 C 185 30.5 185.4 30.3 185.9 30.3 Z M 181.6 39.6 L 187.8 39.4 C 187.8 39.4 187.78 52.81 187.8 52.8 C 187.8 53.2 187.9 53.4 188 53.6 C 188.3 53.8 188.6 53.9 189 53.9 C 189.01 53.92 190.8 53.9 190.8 53.9 L 190.8 55.2 L 181.9 55.2 L 181.9 53.9 C 181.9 53.9 183.57 53.92 183.6 53.9 C 184.1 53.9 184.4 53.8 184.6 53.6 C 184.9 53.3 185 53 185 52.5 C 185 52.5 185 42.7 185 42.7 C 185 42.1 184.8 41.6 184.4 41.3 C 184.1 41 183.6 40.9 182.9 40.9 C 182.87 40.86 181.6 40.9 181.6 40.9 L 181.6 39.6 Z M 192.3 39.6 C 192.3 39.6 197.42 39.3 197.4 39.3 C 197.6 40.3 197.8 41.4 197.9 42.7 C 198.6 41.6 199.4 40.7 200.4 40.2 C 201.3 39.6 202.4 39.3 203.6 39.3 C 204.6 39.3 205.5 39.5 206.2 39.9 C 206.9 40.3 207.4 41 207.8 41.9 C 208.3 42.7 208.5 43.7 208.5 44.8 C 208.5 44.8 208.5 52.4 208.5 52.4 C 208.5 52.9 208.6 53.3 208.8 53.6 C 209.1 53.8 209.5 53.9 210.1 53.9 C 210.12 53.92 211.2 53.9 211.2 53.9 L 211.2 55.2 L 203 55.2 L 203 53.9 C 203 53.9 203.8 53.92 203.8 53.9 C 204.5 53.9 205 53.8 205.3 53.6 C 205.6 53.3 205.8 53 205.8 52.5 C 205.8 52.5 205.8 45.9 205.8 45.9 C 205.8 44.4 205.5 43.3 205.1 42.7 C 204.5 41.7 203.5 41.2 202.3 41.2 C 201 41.2 200 41.7 199.1 42.7 C 198.3 43.7 197.9 45 197.9 46.6 C 197.9 46.6 197.9 52.4 197.9 52.4 C 197.9 52.9 198 53.3 198.3 53.6 C 198.5 53.8 199 53.9 199.6 53.9 C 199.56 53.92 200.6 53.9 200.6 53.9 L 200.6 55.2 L 192.4 55.2 L 192.4 53.9 C 192.4 53.9 193.49 53.92 193.5 53.9 C 194 53.9 194.4 53.8 194.7 53.6 C 195 53.4 195.1 53.1 195.1 52.8 C 195.1 52.8 195.1 42.7 195.1 42.7 C 195.1 42.1 195 41.5 194.6 41.2 C 194.2 40.9 193.7 40.7 193.1 40.7 C 193.05 40.69 192.3 40.7 192.3 40.7 L 192.3 39.6 Z M 221.5 30.6 L 227.6 30.3 C 227.6 30.3 227.58 51.62 227.6 51.6 C 227.6 52.4 227.7 53 228.1 53.4 C 228.4 53.7 228.8 53.9 229.5 53.9 C 229.47 53.92 230.5 53.9 230.5 53.9 L 230.5 55.2 L 225.2 55.2 C 225.2 55.2 224.84 52 224.8 52 C 224.2 53.1 223.5 54 222.6 54.5 C 221.8 55.1 220.8 55.4 219.8 55.4 C 218 55.4 216.5 54.7 215.3 53.2 C 214 51.7 213.4 49.7 213.4 47.3 C 213.4 44.7 214.2 42.6 215.8 41 C 217 39.8 218.5 39.1 220.1 39.1 C 221.1 39.1 222 39.4 222.8 39.9 C 223.6 40.4 224.3 41.1 224.8 42.2 C 224.8 42.2 224.8 33.4 224.8 33.4 C 224.8 32.9 224.7 32.5 224.3 32.3 C 223.9 32 223.4 31.9 222.6 31.9 C 222.61 31.86 221.5 31.9 221.5 31.9 L 221.5 30.6 Z M 223.5 42.1 C 222.7 41.1 221.7 40.5 220.5 40.5 C 219.3 40.5 218.4 41 217.7 42 C 217 43 216.6 44.6 216.6 47 C 216.6 49.5 217 51.3 217.7 52.3 C 218.4 53.4 219.4 53.9 220.5 53.9 C 221.7 53.9 222.7 53.3 223.6 52.2 C 224.4 51 224.9 49.3 224.9 47.1 C 224.9 45 224.4 43.3 223.5 42.1 C 223.5 42.1 223.5 42.1 223.5 42.1 Z M 235.9 30.3 C 236.4 30.3 236.8 30.5 237.2 30.9 C 237.6 31.3 237.8 31.7 237.8 32.2 C 237.8 32.7 237.6 33.2 237.2 33.5 C 236.9 33.9 236.4 34.1 235.9 34.1 C 235.4 34.1 235 33.9 234.6 33.5 C 234.2 33.1 234 32.7 234 32.2 C 234 31.7 234.2 31.3 234.6 30.9 C 235 30.5 235.4 30.3 235.9 30.3 Z M 231.6 39.6 L 237.8 39.4 C 237.8 39.4 237.76 52.81 237.8 52.8 C 237.8 53.2 237.9 53.4 238 53.6 C 238.3 53.8 238.6 53.9 239 53.9 C 238.99 53.92 240.8 53.9 240.8 53.9 L 240.8 55.2 L 231.9 55.2 L 231.9 53.9 C 231.9 53.9 233.55 53.92 233.5 53.9 C 234 53.9 234.4 53.8 234.6 53.6 C 234.8 53.3 235 53 235 52.5 C 235 52.5 235 42.7 235 42.7 C 235 42.1 234.8 41.6 234.4 41.3 C 234.1 41 233.5 40.9 232.8 40.9 C 232.85 40.86 231.6 40.9 231.6 40.9 L 231.6 39.6 Z M 251.3 39.6 C 251.3 39.6 256.51 39.3 256.5 39.3 C 256.7 40.3 256.9 41.4 257 42.7 C 257.7 41.6 258.5 40.7 259.4 40.2 C 260.4 39.6 261.5 39.3 262.6 39.3 C 263.7 39.3 264.5 39.5 265.2 39.9 C 265.9 40.3 266.5 41 266.9 41.9 C 267.3 42.7 267.5 43.7 267.5 44.8 C 267.5 44.8 267.5 52.4 267.5 52.4 C 267.5 52.9 267.7 53.3 267.9 53.6 C 268.2 53.8 268.6 53.9 269.2 53.9 C 269.21 53.92 270.3 53.9 270.3 53.9 L 270.3 55.2 L 262.1 55.2 L 262.1 53.9 C 262.1 53.9 262.88 53.92 262.9 53.9 C 263.6 53.9 264.1 53.8 264.4 53.6 C 264.7 53.3 264.8 53 264.8 52.5 C 264.8 52.5 264.8 45.9 264.8 45.9 C 264.8 44.4 264.6 43.3 264.2 42.7 C 263.6 41.7 262.6 41.2 261.4 41.2 C 260.1 41.2 259.1 41.7 258.2 42.7 C 257.4 43.7 257 45 257 46.6 C 257 46.6 257 52.4 257 52.4 C 257 52.9 257.1 53.3 257.4 53.6 C 257.6 53.8 258.1 53.9 258.6 53.9 C 258.65 53.92 259.7 53.9 259.7 53.9 L 259.7 55.2 L 251.5 55.2 L 251.5 53.9 C 251.5 53.9 252.57 53.92 252.6 53.9 C 253.1 53.9 253.5 53.8 253.8 53.6 C 254.1 53.4 254.2 53.1 254.2 52.8 C 254.2 52.8 254.2 42.7 254.2 42.7 C 254.2 42.1 254.1 41.5 253.7 41.2 C 253.3 40.9 252.8 40.7 252.1 40.7 C 252.14 40.69 251.3 40.7 251.3 40.7 L 251.3 39.6 Z M 286.8 54 C 287.3 54 287.7 53.8 288.2 53.5 C 288.2 53.5 288.8 54.4 288.8 54.4 C 288 55.2 287.1 55.6 286.1 55.6 C 285.4 55.6 284.7 55.4 284.2 55 C 283.7 54.6 283.2 53.9 282.9 52.9 C 281.8 54 280.9 54.7 280.1 55.1 C 279.3 55.4 278.3 55.6 277.2 55.6 C 275.6 55.6 274.4 55.3 273.6 54.6 C 272.8 53.9 272.3 53 272.3 52 C 272.3 50.3 273.3 49 275.2 47.9 C 277.1 46.9 279.6 46.2 282.8 45.8 C 282.8 45.8 282.8 43.4 282.8 43.4 C 282.8 42.6 282.4 41.9 281.8 41.3 C 281.1 40.7 280.2 40.4 279.2 40.4 C 278.2 40.4 277.4 40.6 276.7 41 C 276.2 41.3 275.9 41.6 275.9 41.9 C 275.9 42 276.1 42.3 276.3 42.7 C 276.7 43.1 276.8 43.5 276.8 43.8 C 276.8 44.3 276.7 44.7 276.3 45 C 276 45.4 275.6 45.5 275.1 45.5 C 274.5 45.5 274.1 45.3 273.7 45 C 273.3 44.6 273.1 44.1 273.1 43.5 C 273.1 42.4 273.8 41.4 275 40.5 C 276.2 39.6 277.8 39.1 279.8 39.1 C 281.7 39.1 283.1 39.5 284.1 40.3 C 285 41.2 285.5 42.1 285.5 43.3 C 285.5 43.3 285.5 51.8 285.5 51.8 C 285.5 52.5 285.7 53.1 285.9 53.4 C 286.1 53.8 286.5 54 286.8 54 C 286.8 54 286.8 54 286.8 54 Z M 282.8 46.9 C 280 47.3 278 47.9 276.8 48.8 C 275.9 49.5 275.5 50.4 275.5 51.6 C 275.5 52.5 275.7 53.1 276.2 53.6 C 276.6 54.1 277.2 54.3 277.9 54.3 C 279.2 54.3 280.4 53.8 281.3 52.9 C 282.3 51.9 282.8 50.6 282.8 49.1 C 282.8 49.1 282.8 46.9 282.8 46.9 Z M 294.4 30.3 C 294.9 30.3 295.3 30.5 295.7 30.9 C 296 31.3 296.2 31.7 296.2 32.2 C 296.2 32.7 296.1 33.2 295.7 33.5 C 295.3 33.9 294.9 34.1 294.4 34.1 C 293.9 34.1 293.4 33.9 293.1 33.5 C 292.7 33.1 292.5 32.7 292.5 32.2 C 292.5 31.7 292.7 31.3 293.1 30.9 C 293.4 30.5 293.9 30.3 294.4 30.3 Z M 290 39.6 L 296.2 39.4 C 296.2 39.4 296.24 52.81 296.2 52.8 C 296.2 53.2 296.3 53.4 296.5 53.6 C 296.8 53.8 297.1 53.9 297.5 53.9 C 297.46 53.92 299.2 53.9 299.2 53.9 L 299.2 55.2 L 290.4 55.2 L 290.4 53.9 C 290.4 53.9 292.02 53.92 292 53.9 C 292.5 53.9 292.9 53.8 293.1 53.6 C 293.3 53.3 293.4 53 293.4 52.5 C 293.4 52.5 293.4 42.7 293.4 42.7 C 293.4 42.1 293.3 41.6 292.9 41.3 C 292.5 41 292 40.9 291.3 40.9 C 291.32 40.86 290 40.9 290 40.9 L 290 39.6 Z M 302.6 49.3 C 303.3 51.2 304.1 52.5 305 53.3 C 305.8 54 306.9 54.4 308.2 54.4 C 309.5 54.4 310.4 54.1 311 53.6 C 311.7 53.1 312 52.4 312 51.6 C 312 51.1 311.9 50.7 311.6 50.4 C 311.4 50 311.1 49.8 310.7 49.6 C 310.2 49.4 309.1 49.2 307.4 48.8 C 305.7 48.5 304.5 48.2 303.8 47.8 C 303.2 47.4 302.7 46.9 302.3 46.3 C 301.9 45.6 301.7 44.9 301.7 44.2 C 301.7 43.1 302.1 42 302.9 41.1 C 303.9 39.9 305.3 39.3 307 39.3 C 308.4 39.3 309.6 39.7 310.8 40.6 C 310.78 40.59 311.9 39.4 311.9 39.4 L 312.6 39.4 L 313 45 C 313 45 311.88 44.97 311.9 45 C 311.4 43.4 310.7 42.3 309.9 41.6 C 309.1 40.9 308 40.5 306.8 40.5 C 305.8 40.5 304.9 40.8 304.3 41.3 C 303.7 41.8 303.4 42.5 303.4 43.2 C 303.4 43.9 303.7 44.4 304.3 44.8 C 304.8 45.3 305.9 45.6 307.5 45.9 C 309.3 46.2 310.5 46.4 311.1 46.7 C 312 47 312.7 47.5 313.2 48.2 C 313.7 48.9 313.9 49.7 313.9 50.7 C 313.9 52.1 313.4 53.3 312.3 54.2 C 311.2 55.2 309.9 55.6 308.2 55.6 C 306.6 55.6 305.2 55.1 303.9 54.1 C 303.9 54.11 302.7 55.5 302.7 55.5 L 301.8 55.5 L 301.5 49.3 C 301.5 49.3 302.59 49.31 302.6 49.3 Z M 326.2 39.6 C 326.2 39.6 330.63 39.33 330.6 39.3 C 330.9 40.5 331 41.6 331.1 42.6 C 332 41.4 332.8 40.6 333.6 40.1 C 334.5 39.6 335.4 39.3 336.4 39.3 C 337.5 39.3 338.4 39.6 339.1 40.2 C 339.8 40.7 340.3 41.7 340.7 42.9 C 341.4 41.7 342.2 40.8 343.2 40.2 C 344.1 39.6 345.1 39.3 346.1 39.3 C 347.5 39.3 348.6 39.8 349.3 40.6 C 350.2 41.7 350.7 43.1 350.7 44.9 C 350.7 44.9 350.7 52.6 350.7 52.6 C 350.7 53.1 350.8 53.4 351 53.5 C 351.3 53.8 351.8 53.9 352.4 53.9 C 352.39 53.92 353.2 53.9 353.2 53.9 L 353.2 55.2 L 345.4 55.2 L 345.4 53.9 C 345.4 53.9 346.13 53.92 346.1 53.9 C 346.8 53.9 347.3 53.8 347.5 53.6 C 347.8 53.4 347.9 53 347.9 52.6 C 347.9 52.6 347.9 44.9 347.9 44.9 C 347.9 43.7 347.6 42.8 347.1 42.2 C 346.5 41.6 345.8 41.2 344.9 41.2 C 344.2 41.2 343.5 41.4 343 41.8 C 342.4 42.2 342 42.7 341.6 43.4 C 341.2 44.4 340.9 45.2 340.9 45.9 C 340.9 45.9 340.9 52.6 340.9 52.6 C 340.9 53 341.1 53.4 341.3 53.6 C 341.5 53.8 341.9 53.9 342.4 53.9 C 342.43 53.92 343.5 53.9 343.5 53.9 L 343.5 55.2 L 335.6 55.2 L 335.6 53.9 C 335.6 53.9 336.45 53.92 336.5 53.9 C 337 53.9 337.4 53.8 337.7 53.6 C 338 53.4 338.1 53.1 338.1 52.7 C 338.1 52.7 338.1 45.6 338.1 45.6 C 338.1 44.1 337.9 43 337.3 42.3 C 336.8 41.6 336.1 41.2 335.2 41.2 C 334 41.2 333.1 41.6 332.5 42.4 C 331.6 43.6 331.1 44.9 331.1 46.4 C 331.1 46.4 331.1 52.6 331.1 52.6 C 331.1 53.1 331.2 53.4 331.4 53.6 C 331.7 53.8 332.2 53.9 332.8 53.9 C 332.82 53.92 333.6 53.9 333.6 53.9 L 333.6 55.2 L 325.8 55.2 L 325.8 53.9 C 325.8 53.9 326.96 53.92 327 53.9 C 327.4 53.9 327.7 53.8 328 53.6 C 328.2 53.4 328.3 53.1 328.3 52.7 C 328.3 52.7 328.3 42.6 328.3 42.6 C 328.3 42 328.2 41.6 327.9 41.3 C 327.6 41 327 40.8 326.2 40.8 C 326.18 40.76 326.2 39.6 326.2 39.6 Z M 370.2 54 C 370.6 54 371.1 53.8 371.5 53.5 C 371.5 53.5 372.1 54.4 372.1 54.4 C 371.3 55.2 370.4 55.6 369.4 55.6 C 368.7 55.6 368.1 55.4 367.5 55 C 367 54.6 366.6 53.9 366.2 52.9 C 365.1 54 364.2 54.7 363.4 55.1 C 362.6 55.4 361.7 55.6 360.6 55.6 C 359 55.6 357.7 55.3 356.9 54.6 C 356.1 53.9 355.7 53 355.7 52 C 355.7 50.3 356.6 49 358.5 47.9 C 360.4 46.9 362.9 46.2 366.1 45.8 C 366.1 45.8 366.1 43.4 366.1 43.4 C 366.1 42.6 365.8 41.9 365.1 41.3 C 364.4 40.7 363.6 40.4 362.5 40.4 C 361.5 40.4 360.7 40.6 360 41 C 359.5 41.3 359.3 41.6 359.3 41.9 C 359.3 42 359.4 42.3 359.7 42.7 C 360 43.1 360.2 43.5 360.2 43.8 C 360.2 44.3 360 44.7 359.7 45 C 359.3 45.4 358.9 45.5 358.4 45.5 C 357.9 45.5 357.4 45.3 357 45 C 356.7 44.6 356.5 44.1 356.5 43.5 C 356.5 42.4 357.1 41.4 358.3 40.5 C 359.6 39.6 361.2 39.1 363.2 39.1 C 365 39.1 366.4 39.5 367.4 40.3 C 368.4 41.2 368.9 42.1 368.9 43.3 C 368.9 43.3 368.9 51.8 368.9 51.8 C 368.9 52.5 369 53.1 369.2 53.4 C 369.5 53.8 369.8 54 370.2 54 C 370.2 54 370.2 54 370.2 54 Z M 366.1 46.9 C 363.3 47.3 361.3 47.9 360.1 48.8 C 359.2 49.5 358.8 50.4 358.8 51.6 C 358.8 52.5 359 53.1 359.5 53.6 C 359.9 54.1 360.5 54.3 361.3 54.3 C 362.6 54.3 363.7 53.8 364.7 52.9 C 365.6 51.9 366.1 50.6 366.1 49.1 C 366.1 49.1 366.1 46.9 366.1 46.9 Z M 385.6 40.5 C 386.7 39.4 387.7 38.8 388.6 38.8 C 389.2 38.8 389.7 39 390 39.3 C 390.4 39.7 390.6 40.1 390.6 40.6 C 390.6 41.1 390.5 41.4 390.2 41.7 C 390 41.9 389.7 42.1 389.3 42.1 C 388.7 42.1 388.3 41.7 388.1 40.9 C 388 40.6 387.8 40.4 387.6 40.4 C 387.2 40.4 386.8 40.7 386.4 41.2 C 386.9 41.8 387.2 42.4 387.4 42.9 C 387.5 43.3 387.6 43.9 387.6 44.4 C 387.6 45.4 387.4 46.2 386.9 47 C 386.5 47.7 385.7 48.3 384.6 48.9 C 383.5 49.5 382.5 49.8 381.5 49.8 C 381.5 49.8 379.7 49.8 379.7 49.8 C 378.4 49.8 377.6 49.9 377.1 50.2 C 376.7 50.4 376.5 50.8 376.5 51.4 C 376.5 51.8 376.7 52.1 377 52.4 C 377.4 52.6 378 52.7 379 52.7 C 379 52.7 383.1 52.6 383.1 52.6 C 385.1 52.6 386.6 53 387.5 53.7 C 388.5 54.4 388.9 55.3 388.9 56.5 C 388.9 57.8 388.4 59 387.4 59.9 C 385.9 61.1 383.7 61.8 380.9 61.8 C 378.5 61.8 376.7 61.4 375.6 60.5 C 374.7 59.8 374.2 59 374.2 58.2 C 374.2 57.5 374.5 56.9 375.1 56.4 C 375.7 55.8 376.6 55.4 378 55.2 C 376.9 54.9 376.1 54.5 375.5 54 C 375 53.5 374.7 52.8 374.7 52.1 C 374.7 51.4 374.9 50.8 375.4 50.2 C 375.8 49.7 376.6 49.3 377.7 48.9 C 376.8 48.4 376.1 47.7 375.6 47 C 375.1 46.3 374.9 45.4 374.9 44.5 C 374.9 43 375.5 41.7 376.6 40.7 C 377.8 39.7 379.4 39.1 381.3 39.1 C 382 39.1 382.8 39.3 383.5 39.5 C 384.2 39.7 384.9 40 385.6 40.5 Z M 381.2 40.2 C 380.2 40.2 379.4 40.6 378.8 41.3 C 378.1 42 377.8 43 377.8 44.3 C 377.8 45.7 378.1 46.8 378.8 47.6 C 379.4 48.4 380.2 48.7 381.2 48.7 C 382.2 48.7 383.1 48.4 383.7 47.6 C 384.3 46.9 384.6 45.8 384.6 44.4 C 384.6 43.1 384.3 42.1 383.7 41.3 C 383 40.6 382.2 40.2 381.2 40.2 Z M 382.2 55.2 C 380.2 55.2 378.7 55.5 377.9 56 C 377 56.6 376.5 57.3 376.5 58.1 C 376.5 58.8 376.9 59.4 377.5 59.8 C 378.4 60.4 379.6 60.7 381.2 60.7 C 383.1 60.7 384.5 60.4 385.5 59.8 C 386.5 59.1 387 58.4 387 57.7 C 387 57.2 386.8 56.8 386.5 56.4 C 386.2 56 385.7 55.7 385.1 55.5 C 384.4 55.3 383.5 55.2 382.2 55.2 Z M 391.3 30.6 L 397.3 30.3 L 397.3 47.3 C 397.3 47.3 402.33 42.91 402.3 42.9 C 402.8 42.5 403.1 42.1 403.1 41.8 C 403.1 41.5 402.9 41.3 402.6 41.1 C 402.2 40.9 401.5 40.8 400.5 40.8 C 400.53 40.77 400.5 39.6 400.5 39.6 L 408.8 39.6 C 408.8 39.6 408.81 40.77 408.8 40.8 C 407.2 40.9 405.9 41.3 405.1 42.1 C 405.06 42.07 401.5 45.2 401.5 45.2 C 401.5 45.2 407.29 53.21 407.3 53.2 C 407.6 53.7 408.3 53.9 409.1 53.9 C 409.13 53.92 410 53.9 410 53.9 L 410 55.2 L 401.5 55.2 L 401.5 53.9 C 401.5 53.9 402.34 53.92 402.3 53.9 C 403 53.9 403.4 53.9 403.6 53.8 C 403.8 53.6 403.9 53.5 403.9 53.4 C 403.9 53.2 403.9 53 403.8 52.9 C 403.76 52.89 399.5 47 399.5 47 L 397.3 49 C 397.3 49 397.27 52.89 397.3 52.9 C 397.3 53.2 397.4 53.5 397.6 53.6 C 397.9 53.8 398.3 53.9 398.8 53.9 C 398.83 53.92 399.9 53.9 399.9 53.9 L 399.9 55.2 L 391.6 55.2 L 391.6 53.9 C 391.6 53.9 392.91 53.92 392.9 53.9 C 393.5 53.9 393.9 53.8 394.1 53.6 C 394.4 53.3 394.5 53 394.5 52.6 C 394.5 52.6 394.5 33.5 394.5 33.5 C 394.5 33 394.4 32.6 394.1 32.4 C 393.6 32 393 31.9 392.2 31.9 C 392.18 31.86 391.3 31.9 391.3 31.9 L 391.3 30.6 Z M 426.5 54 C 426.9 54 427.4 53.8 427.8 53.5 C 427.8 53.5 428.4 54.4 428.4 54.4 C 427.6 55.2 426.7 55.6 425.8 55.6 C 425 55.6 424.4 55.4 423.9 55 C 423.3 54.6 422.9 53.9 422.5 52.9 C 421.4 54 420.5 54.7 419.7 55.1 C 418.9 55.4 418 55.6 416.9 55.6 C 415.3 55.6 414.1 55.3 413.2 54.6 C 412.4 53.9 412 53 412 52 C 412 50.3 412.9 49 414.8 47.9 C 416.7 46.9 419.2 46.2 422.4 45.8 C 422.4 45.8 422.4 43.4 422.4 43.4 C 422.4 42.6 422.1 41.9 421.4 41.3 C 420.7 40.7 419.9 40.4 418.8 40.4 C 417.9 40.4 417 40.6 416.3 41 C 415.8 41.3 415.6 41.6 415.6 41.9 C 415.6 42 415.7 42.3 416 42.7 C 416.3 43.1 416.5 43.5 416.5 43.8 C 416.5 44.3 416.3 44.7 416 45 C 415.7 45.4 415.2 45.5 414.7 45.5 C 414.2 45.5 413.7 45.3 413.3 45 C 413 44.6 412.8 44.1 412.8 43.5 C 412.8 42.4 413.4 41.4 414.6 40.5 C 415.9 39.6 417.5 39.1 419.5 39.1 C 421.3 39.1 422.7 39.5 423.7 40.3 C 424.7 41.2 425.2 42.1 425.2 43.3 C 425.2 43.3 425.2 51.8 425.2 51.8 C 425.2 52.5 425.3 53.1 425.5 53.4 C 425.8 53.8 426.1 54 426.5 54 C 426.5 54 426.5 54 426.5 54 Z M 422.4 46.9 C 419.6 47.3 417.6 47.9 416.4 48.8 C 415.6 49.5 415.1 50.4 415.1 51.6 C 415.1 52.5 415.3 53.1 415.8 53.6 C 416.2 54.1 416.8 54.3 417.6 54.3 C 418.9 54.3 420 53.8 421 52.9 C 421.9 51.9 422.4 50.6 422.4 49.1 C 422.4 49.1 422.4 46.9 422.4 46.9 Z M 429.7 39.6 L 435.3 39.3 C 435.3 39.3 435.33 45.62 435.3 45.6 C 435.9 43.6 436.6 42 437.5 40.9 C 438.3 39.9 439.4 39.3 440.6 39.3 C 441.4 39.3 442.1 39.6 442.6 40.1 C 443.1 40.6 443.4 41.3 443.4 42.2 C 443.4 42.9 443.2 43.4 442.9 43.8 C 442.5 44.2 442.1 44.4 441.6 44.4 C 441.1 44.4 440.7 44.2 440.4 43.9 C 440.1 43.5 439.9 43.1 439.9 42.5 C 439.9 42.2 440 41.8 440.2 41.5 C 440.4 41.2 440.5 41 440.5 41 C 440.5 40.8 440.4 40.7 440.1 40.7 C 439.7 40.7 439.2 41 438.6 41.5 C 437.8 42.3 437.2 43.3 436.8 44.6 C 436.1 46.6 435.8 48.2 435.8 49.4 C 435.8 49.4 435.8 52.8 435.8 52.8 C 435.8 53.1 435.9 53.4 436.2 53.6 C 436.4 53.8 436.9 53.9 437.5 53.9 C 437.52 53.92 439.5 53.9 439.5 53.9 L 439.5 55.2 L 429.8 55.2 L 429.8 53.9 C 429.8 53.9 431.37 53.92 431.4 53.9 C 431.9 53.9 432.3 53.8 432.6 53.6 C 432.8 53.4 433 53.2 433 52.9 C 433 52.9 433 43 433 43 C 433 42.2 432.8 41.7 432.5 41.3 C 432.1 41 431.7 40.8 431.1 40.8 C 431.09 40.79 429.7 40.8 429.7 40.8 L 429.7 39.6 Z M 452.1 39.1 C 454.2 39.1 455.9 39.9 457.3 41.4 C 458.8 42.9 459.5 44.9 459.5 47.4 C 459.5 49.1 459.2 50.5 458.5 51.7 C 457.9 52.9 457 53.9 455.8 54.6 C 454.6 55.3 453.3 55.6 452 55.6 C 450 55.6 448.3 54.9 446.9 53.3 C 445.5 51.8 444.8 49.8 444.8 47.4 C 444.8 45 445.5 43 446.9 41.4 C 448.3 39.9 450 39.1 452.1 39.1 Z M 452.1 40.3 C 450.8 40.3 449.8 40.9 449 42 C 448.2 43.1 447.8 44.9 447.8 47.3 C 447.8 49.8 448.2 51.6 449 52.7 C 449.8 53.9 450.8 54.5 452.1 54.5 C 453.4 54.5 454.4 53.9 455.2 52.7 C 456 51.6 456.4 49.7 456.4 47.1 C 456.4 44.7 456 43 455.2 41.9 C 454.4 40.9 453.4 40.3 452.1 40.3 Z M 468.7 39.1 C 470.8 39.1 472.6 39.9 474 41.4 C 475.4 42.9 476.1 44.9 476.1 47.4 C 476.1 49.1 475.8 50.5 475.2 51.7 C 474.5 52.9 473.6 53.9 472.5 54.6 C 471.3 55.3 470 55.6 468.6 55.6 C 466.6 55.6 464.9 54.9 463.5 53.3 C 462.1 51.8 461.4 49.8 461.4 47.4 C 461.4 45 462.1 43 463.5 41.4 C 464.9 39.9 466.7 39.1 468.7 39.1 Z M 468.7 40.3 C 467.5 40.3 466.5 40.9 465.7 42 C 464.9 43.1 464.5 44.9 464.5 47.3 C 464.5 49.8 464.9 51.6 465.7 52.7 C 466.5 53.9 467.5 54.5 468.7 54.5 C 470 54.5 471.1 53.9 471.9 52.7 C 472.7 51.6 473.1 49.7 473.1 47.1 C 473.1 44.7 472.7 43 471.9 41.9 C 471.1 40.9 470 40.3 468.7 40.3 Z M 478.1 39.6 C 478.1 39.6 483.21 39.3 483.2 39.3 C 483.4 40.3 483.6 41.4 483.7 42.7 C 484.4 41.6 485.2 40.7 486.1 40.2 C 487.1 39.6 488.2 39.3 489.4 39.3 C 490.4 39.3 491.2 39.5 491.9 39.9 C 492.6 40.3 493.2 41 493.6 41.9 C 494 42.7 494.3 43.7 494.3 44.8 C 494.3 44.8 494.3 52.4 494.3 52.4 C 494.3 52.9 494.4 53.3 494.6 53.6 C 494.9 53.8 495.3 53.9 495.9 53.9 C 495.91 53.92 497 53.9 497 53.9 L 497 55.2 L 488.8 55.2 L 488.8 53.9 C 488.8 53.9 489.59 53.92 489.6 53.9 C 490.3 53.9 490.8 53.8 491.1 53.6 C 491.4 53.3 491.5 53 491.5 52.5 C 491.5 52.5 491.5 45.9 491.5 45.9 C 491.5 44.4 491.3 43.3 490.9 42.7 C 490.3 41.7 489.3 41.2 488.1 41.2 C 486.8 41.2 485.8 41.7 484.9 42.7 C 484.1 43.7 483.7 45 483.7 46.6 C 483.7 46.6 483.7 52.4 483.7 52.4 C 483.7 52.9 483.8 53.3 484.1 53.6 C 484.3 53.8 484.8 53.9 485.4 53.9 C 485.36 53.92 486.4 53.9 486.4 53.9 L 486.4 55.2 L 478.2 55.2 L 478.2 53.9 C 478.2 53.9 479.28 53.92 479.3 53.9 C 479.8 53.9 480.2 53.8 480.5 53.6 C 480.8 53.4 480.9 53.1 480.9 52.8 C 480.9 52.8 480.9 42.7 480.9 42.7 C 480.9 42.1 480.8 41.5 480.4 41.2 C 480 40.9 479.5 40.7 478.8 40.7 C 478.85 40.69 478.1 40.7 478.1 40.7 L 478.1 39.6 Z M 507.6 39.6 C 507.6 39.6 512.75 39.3 512.7 39.3 C 513 40.3 513.1 41.4 513.2 42.7 C 513.9 41.6 514.7 40.7 515.7 40.2 C 516.6 39.6 517.7 39.3 518.9 39.3 C 519.9 39.3 520.8 39.5 521.5 39.9 C 522.2 40.3 522.7 41 523.2 41.9 C 523.6 42.7 523.8 43.7 523.8 44.8 C 523.8 44.8 523.8 52.4 523.8 52.4 C 523.8 52.9 523.9 53.3 524.2 53.6 C 524.4 53.8 524.9 53.9 525.4 53.9 C 525.45 53.92 526.5 53.9 526.5 53.9 L 526.5 55.2 L 518.3 55.2 L 518.3 53.9 C 518.3 53.9 519.12 53.92 519.1 53.9 C 519.9 53.9 520.4 53.8 520.7 53.6 C 520.9 53.3 521.1 53 521.1 52.5 C 521.1 52.5 521.1 45.9 521.1 45.9 C 521.1 44.4 520.9 43.3 520.4 42.7 C 519.8 41.7 518.9 41.2 517.6 41.2 C 516.3 41.2 515.3 41.7 514.5 42.7 C 513.6 43.7 513.2 45 513.2 46.6 C 513.2 46.6 513.2 52.4 513.2 52.4 C 513.2 52.9 513.3 53.3 513.6 53.6 C 513.9 53.8 514.3 53.9 514.9 53.9 C 514.89 53.92 516 53.9 516 53.9 L 516 55.2 L 507.7 55.2 L 507.7 53.9 C 507.7 53.9 508.81 53.92 508.8 53.9 C 509.4 53.9 509.8 53.8 510.1 53.6 C 510.3 53.4 510.5 53.1 510.5 52.8 C 510.5 52.8 510.5 42.7 510.5 42.7 C 510.5 42.1 510.3 41.5 509.9 41.2 C 509.6 40.9 509.1 40.7 508.4 40.7 C 508.38 40.69 507.6 40.7 507.6 40.7 L 507.6 39.6 Z M 539.9 40.5 C 541 39.4 542.1 38.8 543 38.8 C 543.5 38.8 544 39 544.4 39.3 C 544.7 39.7 544.9 40.1 544.9 40.6 C 544.9 41.1 544.8 41.4 544.5 41.7 C 544.3 41.9 544 42.1 543.7 42.1 C 543 42.1 542.6 41.7 542.4 40.9 C 542.3 40.6 542.2 40.4 541.9 40.4 C 541.6 40.4 541.2 40.7 540.7 41.2 C 541.2 41.8 541.5 42.4 541.7 42.9 C 541.9 43.3 542 43.9 542 44.4 C 542 45.4 541.7 46.2 541.3 47 C 540.8 47.7 540 48.3 538.9 48.9 C 537.9 49.5 536.8 49.8 535.9 49.8 C 535.9 49.8 534 49.8 534 49.8 C 532.8 49.8 531.9 49.9 531.5 50.2 C 531.1 50.4 530.9 50.8 530.9 51.4 C 530.9 51.8 531 52.1 531.4 52.4 C 531.7 52.6 532.4 52.7 533.3 52.7 C 533.3 52.7 537.4 52.6 537.4 52.6 C 539.5 52.6 541 53 541.9 53.7 C 542.8 54.4 543.3 55.3 543.3 56.5 C 543.3 57.8 542.7 59 541.7 59.9 C 540.2 61.1 538.1 61.8 535.2 61.8 C 532.8 61.8 531.1 61.4 529.9 60.5 C 529 59.8 528.5 59 528.5 58.2 C 528.5 57.5 528.8 56.9 529.4 56.4 C 530 55.8 531 55.4 532.3 55.2 C 531.3 54.9 530.4 54.5 529.9 54 C 529.3 53.5 529 52.8 529 52.1 C 529 51.4 529.3 50.8 529.7 50.2 C 530.2 49.7 530.9 49.3 532 48.9 C 531.1 48.4 530.4 47.7 529.9 47 C 529.4 46.3 529.2 45.4 529.2 44.5 C 529.2 43 529.8 41.7 531 40.7 C 532.2 39.7 533.7 39.1 535.6 39.1 C 536.4 39.1 537.1 39.3 537.8 39.5 C 538.6 39.7 539.3 40 539.9 40.5 Z M 535.6 40.2 C 534.6 40.2 533.8 40.6 533.1 41.3 C 532.5 42 532.2 43 532.2 44.3 C 532.2 45.7 532.5 46.8 533.1 47.6 C 533.8 48.4 534.6 48.7 535.6 48.7 C 536.6 48.7 537.4 48.4 538 47.6 C 538.7 46.9 539 45.8 539 44.4 C 539 43.1 538.7 42.1 538 41.3 C 537.4 40.6 536.6 40.2 535.6 40.2 Z M 536.5 55.2 C 534.5 55.2 533.1 55.5 532.2 56 C 531.3 56.6 530.9 57.3 530.9 58.1 C 530.9 58.8 531.2 59.4 531.9 59.8 C 532.7 60.4 534 60.7 535.6 60.7 C 537.5 60.7 538.9 60.4 539.9 59.8 C 540.8 59.1 541.3 58.4 541.3 57.7 C 541.3 57.2 541.1 56.8 540.8 56.4 C 540.5 56 540.1 55.7 539.4 55.5 C 538.8 55.3 537.8 55.2 536.5 55.2 Z M 570.1 54 C 570.5 54 571 53.8 571.5 53.5 C 571.5 53.5 572.1 54.4 572.1 54.4 C 571.3 55.2 570.4 55.6 569.4 55.6 C 568.6 55.6 568 55.4 567.5 55 C 567 54.6 566.5 53.9 566.1 52.9 C 565.1 54 564.2 54.7 563.4 55.1 C 562.6 55.4 561.6 55.6 560.5 55.6 C 558.9 55.6 557.7 55.3 556.9 54.6 C 556 53.9 555.6 53 555.6 52 C 555.6 50.3 556.6 49 558.5 47.9 C 560.4 46.9 562.9 46.2 566 45.8 C 566 45.8 566 43.4 566 43.4 C 566 42.6 565.7 41.9 565 41.3 C 564.3 40.7 563.5 40.4 562.4 40.4 C 561.5 40.4 560.7 40.6 560 41 C 559.5 41.3 559.2 41.6 559.2 41.9 C 559.2 42 559.3 42.3 559.6 42.7 C 559.9 43.1 560.1 43.5 560.1 43.8 C 560.1 44.3 559.9 44.7 559.6 45 C 559.3 45.4 558.9 45.5 558.3 45.5 C 557.8 45.5 557.3 45.3 557 45 C 556.6 44.6 556.4 44.1 556.4 43.5 C 556.4 42.4 557 41.4 558.3 40.5 C 559.5 39.6 561.1 39.1 563.1 39.1 C 565 39.1 566.4 39.5 567.3 40.3 C 568.3 41.2 568.8 42.1 568.8 43.3 C 568.8 43.3 568.8 51.8 568.8 51.8 C 568.8 52.5 568.9 53.1 569.2 53.4 C 569.4 53.8 569.7 54 570.1 54 C 570.1 54 570.1 54 570.1 54 Z M 566 46.9 C 563.2 47.3 561.2 47.9 560.1 48.8 C 559.2 49.5 558.7 50.4 558.7 51.6 C 558.7 52.5 559 53.1 559.4 53.6 C 559.9 54.1 560.5 54.3 561.2 54.3 C 562.5 54.3 563.6 53.8 564.6 52.9 C 565.6 51.9 566 50.6 566 49.1 C 566 49.1 566 46.9 566 46.9 Z M 573.6 39.6 C 573.6 39.6 578.77 39.3 578.8 39.3 C 579 40.3 579.1 41.4 579.2 42.7 C 579.9 41.6 580.8 40.7 581.7 40.2 C 582.7 39.6 583.7 39.3 584.9 39.3 C 585.9 39.3 586.8 39.5 587.5 39.9 C 588.2 40.3 588.8 41 589.2 41.9 C 589.6 42.7 589.8 43.7 589.8 44.8 C 589.8 44.8 589.8 52.4 589.8 52.4 C 589.8 52.9 589.9 53.3 590.2 53.6 C 590.5 53.8 590.9 53.9 591.5 53.9 C 591.47 53.92 592.6 53.9 592.6 53.9 L 592.6 55.2 L 584.4 55.2 L 584.4 53.9 C 584.4 53.9 585.15 53.92 585.1 53.9 C 585.9 53.9 586.4 53.8 586.7 53.6 C 587 53.3 587.1 53 587.1 52.5 C 587.1 52.5 587.1 45.9 587.1 45.9 C 587.1 44.4 586.9 43.3 586.4 42.7 C 585.8 41.7 584.9 41.2 583.6 41.2 C 582.4 41.2 581.3 41.7 580.5 42.7 C 579.7 43.7 579.2 45 579.2 46.6 C 579.2 46.6 579.2 52.4 579.2 52.4 C 579.2 52.9 579.4 53.3 579.6 53.6 C 579.9 53.8 580.3 53.9 580.9 53.9 C 580.92 53.92 582 53.9 582 53.9 L 582 55.2 L 573.8 55.2 L 573.8 53.9 C 573.8 53.9 574.84 53.92 574.8 53.9 C 575.4 53.9 575.8 53.8 576.1 53.6 C 576.4 53.4 576.5 53.1 576.5 52.8 C 576.5 52.8 576.5 42.7 576.5 42.7 C 576.5 42.1 576.3 41.5 576 41.2 C 575.6 40.9 575.1 40.7 574.4 40.7 C 574.41 40.69 573.6 40.7 573.6 40.7 L 573.6 39.6 Z M 609.1 54 C 609.5 54 610 53.8 610.5 53.5 C 610.5 53.5 611.1 54.4 611.1 54.4 C 610.3 55.2 609.4 55.6 608.4 55.6 C 607.6 55.6 607 55.4 606.5 55 C 606 54.6 605.5 53.9 605.1 52.9 C 604.1 54 603.2 54.7 602.4 55.1 C 601.6 55.4 600.6 55.6 599.5 55.6 C 597.9 55.6 596.7 55.3 595.8 54.6 C 595 53.9 594.6 53 594.6 52 C 594.6 50.3 595.6 49 597.5 47.9 C 599.3 46.9 601.9 46.2 605 45.8 C 605 45.8 605 43.4 605 43.4 C 605 42.6 604.7 41.9 604 41.3 C 603.3 40.7 602.5 40.4 601.4 40.4 C 600.5 40.4 599.7 40.6 599 41 C 598.5 41.3 598.2 41.6 598.2 41.9 C 598.2 42 598.3 42.3 598.6 42.7 C 598.9 43.1 599.1 43.5 599.1 43.8 C 599.1 44.3 598.9 44.7 598.6 45 C 598.3 45.4 597.9 45.5 597.3 45.5 C 596.8 45.5 596.3 45.3 596 45 C 595.6 44.6 595.4 44.1 595.4 43.5 C 595.4 42.4 596 41.4 597.3 40.5 C 598.5 39.6 600.1 39.1 602.1 39.1 C 604 39.1 605.4 39.5 606.3 40.3 C 607.3 41.2 607.8 42.1 607.8 43.3 C 607.8 43.3 607.8 51.8 607.8 51.8 C 607.8 52.5 607.9 53.1 608.2 53.4 C 608.4 53.8 608.7 54 609.1 54 C 609.1 54 609.1 54 609.1 54 Z M 605 46.9 C 602.2 47.3 600.2 47.9 599.1 48.8 C 598.2 49.5 597.7 50.4 597.7 51.6 C 597.7 52.5 598 53.1 598.4 53.6 C 598.9 54.1 599.5 54.3 600.2 54.3 C 601.5 54.3 602.6 53.8 603.6 52.9 C 604.6 51.9 605 50.6 605 49.1 C 605 49.1 605 46.9 605 46.9 Z M 612.3 30.6 L 618.3 30.3 L 618.3 47.3 C 618.3 47.3 623.34 42.91 623.3 42.9 C 623.8 42.5 624.1 42.1 624.1 41.8 C 624.1 41.5 623.9 41.3 623.6 41.1 C 623.2 40.9 622.5 40.8 621.5 40.8 C 621.54 40.77 621.5 39.6 621.5 39.6 L 629.8 39.6 C 629.8 39.6 629.83 40.77 629.8 40.8 C 628.2 40.9 626.9 41.3 626.1 42.1 C 626.07 42.07 622.5 45.2 622.5 45.2 C 622.5 45.2 628.3 53.21 628.3 53.2 C 628.7 53.7 629.3 53.9 630.1 53.9 C 630.14 53.92 631 53.9 631 53.9 L 631 55.2 L 622.5 55.2 L 622.5 53.9 C 622.5 53.9 623.35 53.92 623.4 53.9 C 624 53.9 624.4 53.9 624.6 53.8 C 624.8 53.6 624.9 53.5 624.9 53.4 C 624.9 53.2 624.9 53 624.8 52.9 C 624.78 52.89 620.5 47 620.5 47 L 618.3 49 C 618.3 49 618.29 52.89 618.3 52.9 C 618.3 53.2 618.4 53.5 618.6 53.6 C 618.9 53.8 619.3 53.9 619.8 53.9 C 619.85 53.92 620.9 53.9 620.9 53.9 L 620.9 55.2 L 612.6 55.2 L 612.6 53.9 C 612.6 53.9 613.92 53.92 613.9 53.9 C 614.5 53.9 614.9 53.8 615.1 53.6 C 615.4 53.3 615.5 53 615.5 52.6 C 615.5 52.6 615.5 33.5 615.5 33.5 C 615.5 33 615.4 32.6 615.1 32.4 C 614.6 32 614 31.9 613.2 31.9 C 613.19 31.86 612.3 31.9 612.3 31.9 L 612.3 30.6 Z " stroke="none" fill="#000"/>
  </g>
  <g id="Polygon28247">
    <path d="M 193.3 0.6 L 204.5 0.6 L 204.5 1.9 C 204.5 1.9 202.13 1.86 202.1 1.9 C 201.6 1.9 201.2 2 201 2.3 C 200.7 2.5 200.5 2.9 200.5 3.3 C 200.54 3.27 200.5 14.7 200.5 14.7 C 200.5 14.7 209.78 4.8 209.8 4.8 C 210.3 4.2 210.6 3.7 210.6 3.2 C 210.6 2.8 210.4 2.5 210 2.2 C 209.7 2 209.1 1.9 208.2 1.9 C 208.24 1.86 207.6 1.9 207.6 1.9 L 207.6 0.6 L 217.6 0.6 L 217.6 1.9 C 217.6 1.9 216.86 1.86 216.9 1.9 C 216.2 1.9 215.4 2.1 214.6 2.5 C 213.8 2.9 213.1 3.4 212.4 4.1 C 212.39 4.12 206.7 10.1 206.7 10.1 C 206.7 10.1 214.85 22.06 214.8 22.1 C 215.3 22.7 215.8 23.2 216.3 23.5 C 216.7 23.8 217.3 23.9 218 23.9 C 217.99 23.92 218.9 23.9 218.9 23.9 L 218.9 25.2 L 207.8 25.2 L 207.8 23.9 C 207.8 23.9 209.07 23.92 209.1 23.9 C 210 23.9 210.6 23.8 210.9 23.7 C 211.2 23.5 211.4 23.3 211.4 23.1 C 211.4 22.9 211.3 22.7 211.2 22.5 C 211.16 22.48 204.4 12.5 204.4 12.5 L 200.5 16.7 C 200.5 16.7 200.54 22.69 200.5 22.7 C 200.5 23.1 200.6 23.3 200.9 23.5 C 201.2 23.8 201.6 23.9 202.1 23.9 C 202.13 23.92 204.5 23.9 204.5 23.9 L 204.5 25.2 L 193.3 25.2 L 193.3 23.9 C 193.3 23.9 195.46 23.92 195.5 23.9 C 196 23.9 196.4 23.8 196.7 23.6 C 197 23.4 197.1 23.1 197.1 22.7 C 197.1 22.7 197.1 3.1 197.1 3.1 C 197.1 2.7 196.9 2.4 196.6 2.2 C 196.3 2 195.8 1.9 195.1 1.9 C 195.13 1.86 193.3 1.9 193.3 1.9 L 193.3 0.6 Z M 224.5 9.3 C 224.5 9.3 224.47 19.64 224.5 19.6 C 224.5 20.9 224.8 21.9 225.4 22.6 C 226.1 23.2 226.9 23.6 227.9 23.6 C 229.1 23.6 230.2 23.1 231 22.1 C 231.9 21.1 232.3 19.8 232.3 18.3 C 232.3 18.3 232.3 12.5 232.3 12.5 C 232.3 12 232.1 11.6 231.8 11.3 C 231.4 11 230.7 10.8 229.6 10.8 C 229.57 10.77 229.6 9.6 229.6 9.6 L 235 9.3 C 235 9.3 235.03 22.1 235 22.1 C 235 22.7 235.2 23.1 235.5 23.4 C 235.9 23.8 236.3 23.9 236.9 23.9 C 236.92 23.92 237.9 23.9 237.9 23.9 L 237.9 25 L 232.7 25.2 C 232.7 25.2 232.34 22.1 232.3 22.1 C 231.4 23.2 230.5 24 229.5 24.6 C 228.6 25.1 227.6 25.4 226.7 25.4 C 225.3 25.4 224.1 24.9 223.2 24 C 222.2 23.1 221.7 21.5 221.7 19.3 C 221.7 19.3 221.7 12.5 221.7 12.5 C 221.7 11.9 221.5 11.4 221 11.1 C 220.7 10.9 220 10.8 219 10.8 C 218.96 10.77 219 9.6 219 9.6 L 224.5 9.3 Z M 239.3 9.6 L 246.2 9.6 L 246.2 10.8 C 246.2 10.8 245.27 10.76 245.3 10.8 C 244.8 10.8 244.5 10.8 244.3 11 C 244.1 11.1 244 11.3 244 11.5 C 244 11.8 244.1 12 244.2 12.3 C 244.21 12.3 247.7 21.1 247.7 21.1 C 247.7 21.1 250.75 12.75 250.7 12.7 C 250.3 11.9 249.9 11.3 249.6 11.1 C 249.3 10.9 248.7 10.8 247.9 10.8 C 247.94 10.76 247.9 9.6 247.9 9.6 L 255.4 9.6 L 255.4 10.8 C 255.4 10.8 254.82 10.76 254.8 10.8 C 254.2 10.8 253.8 10.8 253.6 11 C 253.4 11.1 253.3 11.3 253.3 11.6 C 253.3 11.8 253.4 12 253.5 12.3 C 253.46 12.3 257 21.1 257 21.1 C 257 21.1 259.79 13.28 259.8 13.3 C 260 12.8 260.1 12.3 260.1 12 C 260.1 11.6 259.9 11.3 259.6 11.1 C 259.4 10.9 258.8 10.8 258 10.8 C 258.02 10.76 258 9.6 258 9.6 L 264.1 9.6 C 264.1 9.6 264.07 10.76 264.1 10.8 C 263.3 10.9 262.7 11.1 262.4 11.5 C 262 11.8 261.6 12.3 261.4 13.1 C 261.38 13.06 256.9 25.6 256.9 25.6 L 255.9 25.6 L 251.5 14.8 L 247.6 25.6 L 246.7 25.6 C 246.7 25.6 241.07 11.89 241.1 11.9 C 240.9 11.5 240.7 11.2 240.5 11 C 240.2 10.9 239.9 10.8 239.3 10.8 C 239.34 10.76 239.3 9.6 239.3 9.6 Z M 279.7 13.6 C 280 14.7 280.2 15.9 280.3 17.5 C 280.3 17.5 269.1 17.5 269.1 17.5 C 269.2 19.9 269.6 21.5 270.5 22.5 C 271.4 23.6 272.6 24.2 274.1 24.2 C 276.3 24.2 278 22.9 279.3 20.5 C 279.3 20.5 280.4 20.9 280.4 20.9 C 278.8 24.1 276.4 25.6 273.4 25.6 C 271.3 25.6 269.6 24.9 268.1 23.4 C 266.7 21.9 266 19.9 266 17.6 C 266 15.1 266.7 13 268.1 11.5 C 269.5 9.9 271.2 9.1 273.3 9.1 C 274.8 9.1 276.1 9.5 277.2 10.3 C 278.3 11.1 279.1 12.2 279.7 13.6 C 279.7 13.6 279.7 13.6 279.7 13.6 Z M 269.1 16.3 C 269.1 16.3 275.9 16.3 275.9 16.3 C 276.3 16.3 276.6 16.2 276.8 15.9 C 277 15.6 277.1 15.2 277.1 14.5 C 277.1 13.3 276.8 12.3 276 11.4 C 275.2 10.6 274.3 10.1 273.3 10.1 C 272.2 10.1 271.2 10.7 270.4 11.7 C 269.6 12.7 269.2 14.3 269.1 16.3 Z M 282.3 9.6 C 282.3 9.6 287.5 9.3 287.5 9.3 C 287.7 10.3 287.9 11.4 288 12.7 C 288.7 11.6 289.5 10.7 290.4 10.2 C 291.4 9.6 292.4 9.3 293.6 9.3 C 294.7 9.3 295.5 9.5 296.2 9.9 C 296.9 10.3 297.5 11 297.9 11.9 C 298.3 12.7 298.5 13.7 298.5 14.8 C 298.5 14.8 298.5 22.4 298.5 22.4 C 298.5 22.9 298.7 23.3 298.9 23.6 C 299.2 23.8 299.6 23.9 300.2 23.9 C 300.2 23.92 301.3 23.9 301.3 23.9 L 301.3 25.2 L 293.1 25.2 L 293.1 23.9 C 293.1 23.9 293.87 23.92 293.9 23.9 C 294.6 23.9 295.1 23.8 295.4 23.6 C 295.7 23.3 295.8 23 295.8 22.5 C 295.8 22.5 295.8 15.9 295.8 15.9 C 295.8 14.4 295.6 13.3 295.2 12.7 C 294.5 11.7 293.6 11.2 292.3 11.2 C 291.1 11.2 290.1 11.7 289.2 12.7 C 288.4 13.7 288 15 288 16.6 C 288 16.6 288 22.4 288 22.4 C 288 22.9 288.1 23.3 288.4 23.6 C 288.6 23.8 289 23.9 289.6 23.9 C 289.64 23.92 290.7 23.9 290.7 23.9 L 290.7 25.2 L 282.5 25.2 L 282.5 23.9 C 282.5 23.9 283.56 23.92 283.6 23.9 C 284.1 23.9 284.5 23.8 284.8 23.6 C 285.1 23.4 285.2 23.1 285.2 22.8 C 285.2 22.8 285.2 12.7 285.2 12.7 C 285.2 12.1 285 11.5 284.7 11.2 C 284.3 10.9 283.8 10.7 283.1 10.7 C 283.13 10.69 282.3 10.7 282.3 10.7 L 282.3 9.6 Z M 305.3 8.4 C 306.3 7.2 306.8 5.5 306.9 3.3 C 306.86 3.27 308 3.3 308 3.3 L 308 9.6 L 313 9.6 L 313 11.1 L 308 11.1 C 308 11.1 307.98 21.12 308 21.1 C 308 22 308.2 22.6 308.6 23.1 C 309 23.6 309.5 23.8 310.2 23.8 C 310.9 23.8 311.5 23.4 312.1 22.7 C 312.6 22 312.9 20.9 313 19.3 C 313 19.3 314.1 19.3 314.1 19.3 C 314.1 21.4 313.6 22.9 312.7 23.9 C 311.8 24.9 310.7 25.4 309.3 25.4 C 308 25.4 307 25 306.3 24.3 C 305.6 23.6 305.2 22.7 305.2 21.6 C 305.2 21.58 305.2 11.1 305.2 11.1 L 302.5 11.1 C 302.5 11.1 302.5 9.98 302.5 10 C 303.7 9.8 304.7 9.3 305.3 8.4 C 305.3 8.4 305.3 8.4 305.3 8.4 Z M 323 9.1 C 325.1 9.1 326.8 9.9 328.3 11.4 C 329.7 12.9 330.4 14.9 330.4 17.4 C 330.4 19.1 330.1 20.5 329.4 21.7 C 328.8 22.9 327.9 23.9 326.7 24.6 C 325.5 25.3 324.3 25.6 322.9 25.6 C 320.9 25.6 319.2 24.9 317.8 23.3 C 316.4 21.8 315.7 19.8 315.7 17.4 C 315.7 15 316.4 13 317.8 11.4 C 319.2 9.9 320.9 9.1 323 9.1 Z M 323 10.3 C 321.8 10.3 320.7 10.9 319.9 12 C 319.1 13.1 318.7 14.9 318.7 17.3 C 318.7 19.8 319.1 21.6 319.9 22.7 C 320.7 23.9 321.7 24.5 323 24.5 C 324.3 24.5 325.3 23.9 326.1 22.7 C 326.9 21.6 327.3 19.7 327.3 17.1 C 327.3 14.7 326.9 13 326.2 11.9 C 325.4 10.9 324.3 10.3 323 10.3 Z M 341.4 9.6 C 341.4 9.6 346.58 9.3 346.6 9.3 C 346.8 10.3 346.9 11.4 347 12.7 C 347.7 11.6 348.6 10.7 349.5 10.2 C 350.5 9.6 351.5 9.3 352.7 9.3 C 353.8 9.3 354.6 9.5 355.3 9.9 C 356 10.3 356.6 11 357 11.9 C 357.4 12.7 357.6 13.7 357.6 14.8 C 357.6 14.8 357.6 22.4 357.6 22.4 C 357.6 22.9 357.8 23.3 358 23.6 C 358.3 23.8 358.7 23.9 359.3 23.9 C 359.28 23.92 360.4 23.9 360.4 23.9 L 360.4 25.2 L 352.2 25.2 L 352.2 23.9 C 352.2 23.9 352.96 23.92 353 23.9 C 353.7 23.9 354.2 23.8 354.5 23.6 C 354.8 23.3 354.9 23 354.9 22.5 C 354.9 22.5 354.9 15.9 354.9 15.9 C 354.9 14.4 354.7 13.3 354.3 12.7 C 353.6 11.7 352.7 11.2 351.4 11.2 C 350.2 11.2 349.1 11.7 348.3 12.7 C 347.5 13.7 347 15 347 16.6 C 347 16.6 347 22.4 347 22.4 C 347 22.9 347.2 23.3 347.4 23.6 C 347.7 23.8 348.1 23.9 348.7 23.9 C 348.73 23.92 349.8 23.9 349.8 23.9 L 349.8 25.2 L 341.6 25.2 L 341.6 23.9 C 341.6 23.9 342.65 23.92 342.6 23.9 C 343.2 23.9 343.6 23.8 343.9 23.6 C 344.2 23.4 344.3 23.1 344.3 22.8 C 344.3 22.8 344.3 12.7 344.3 12.7 C 344.3 12.1 344.1 11.5 343.8 11.2 C 343.4 10.9 342.9 10.7 342.2 10.7 C 342.22 10.69 341.4 10.7 341.4 10.7 L 341.4 9.6 Z M 373.8 10.5 C 374.9 9.4 375.9 8.8 376.8 8.8 C 377.4 8.8 377.8 9 378.2 9.3 C 378.6 9.7 378.8 10.1 378.8 10.6 C 378.8 11.1 378.6 11.4 378.4 11.7 C 378.1 11.9 377.8 12.1 377.5 12.1 C 376.9 12.1 376.4 11.7 376.2 10.9 C 376.1 10.6 376 10.4 375.8 10.4 C 375.4 10.4 375 10.7 374.6 11.2 C 375 11.8 375.4 12.4 375.5 12.9 C 375.7 13.3 375.8 13.9 375.8 14.4 C 375.8 15.4 375.6 16.2 375.1 17 C 374.6 17.7 373.9 18.3 372.8 18.9 C 371.7 19.5 370.7 19.8 369.7 19.8 C 369.7 19.8 367.9 19.8 367.9 19.8 C 366.6 19.8 365.7 19.9 365.3 20.2 C 364.9 20.4 364.7 20.8 364.7 21.4 C 364.7 21.8 364.9 22.1 365.2 22.4 C 365.5 22.6 366.2 22.7 367.1 22.7 C 367.1 22.7 371.2 22.6 371.2 22.6 C 373.3 22.6 374.8 23 375.7 23.7 C 376.6 24.4 377.1 25.3 377.1 26.5 C 377.1 27.8 376.6 29 375.5 29.9 C 374.1 31.1 371.9 31.8 369 31.8 C 366.7 31.8 364.9 31.4 363.7 30.5 C 362.8 29.8 362.4 29 362.4 28.2 C 362.4 27.5 362.7 26.9 363.3 26.4 C 363.8 25.8 364.8 25.4 366.2 25.2 C 365.1 24.9 364.3 24.5 363.7 24 C 363.2 23.5 362.9 22.8 362.9 22.1 C 362.9 21.4 363.1 20.8 363.6 20.2 C 364 19.7 364.8 19.3 365.9 18.9 C 364.9 18.4 364.2 17.7 363.8 17 C 363.3 16.3 363 15.4 363 14.5 C 363 13 363.6 11.7 364.8 10.7 C 366 9.7 367.5 9.1 369.4 9.1 C 370.2 9.1 371 9.3 371.7 9.5 C 372.4 9.7 373.1 10 373.8 10.5 Z M 369.4 10.2 C 368.4 10.2 367.6 10.6 367 11.3 C 366.3 12 366 13 366 14.3 C 366 15.7 366.3 16.8 367 17.6 C 367.6 18.4 368.4 18.7 369.4 18.7 C 370.4 18.7 371.2 18.4 371.9 17.6 C 372.5 16.9 372.8 15.8 372.8 14.4 C 372.8 13.1 372.5 12.1 371.9 11.3 C 371.2 10.6 370.4 10.2 369.4 10.2 Z M 370.4 25.2 C 368.3 25.2 366.9 25.5 366 26 C 365.2 26.6 364.7 27.3 364.7 28.1 C 364.7 28.8 365 29.4 365.7 29.8 C 366.6 30.4 367.8 30.7 369.4 30.7 C 371.3 30.7 372.7 30.4 373.7 29.8 C 374.6 29.1 375.1 28.4 375.1 27.7 C 375.1 27.2 375 26.8 374.7 26.4 C 374.4 26 373.9 25.7 373.3 25.5 C 372.6 25.3 371.6 25.2 370.4 25.2 Z M 392.9 0.3 C 393.4 0.3 393.8 0.5 394.2 0.9 C 394.6 1.3 394.8 1.7 394.8 2.2 C 394.8 2.7 394.6 3.2 394.2 3.5 C 393.9 3.9 393.4 4.1 392.9 4.1 C 392.4 4.1 392 3.9 391.6 3.5 C 391.2 3.1 391 2.7 391 2.2 C 391 1.7 391.2 1.3 391.6 0.9 C 392 0.5 392.4 0.3 392.9 0.3 Z M 388.6 9.6 L 394.8 9.4 C 394.8 9.4 394.77 22.81 394.8 22.8 C 394.8 23.2 394.9 23.4 395 23.6 C 395.3 23.8 395.6 23.9 396 23.9 C 396 23.92 397.8 23.9 397.8 23.9 L 397.8 25.2 L 388.9 25.2 L 388.9 23.9 C 388.9 23.9 390.55 23.92 390.6 23.9 C 391 23.9 391.4 23.8 391.6 23.6 C 391.9 23.3 392 23 392 22.5 C 392 22.5 392 12.7 392 12.7 C 392 12.1 391.8 11.6 391.4 11.3 C 391.1 11 390.6 10.9 389.9 10.9 C 389.86 10.86 388.6 10.9 388.6 10.9 L 388.6 9.6 Z M 401.1 19.3 C 401.8 21.2 402.6 22.5 403.5 23.3 C 404.4 24 405.5 24.4 406.8 24.4 C 408 24.4 408.9 24.1 409.6 23.6 C 410.2 23.1 410.5 22.4 410.5 21.6 C 410.5 21.1 410.4 20.7 410.2 20.4 C 409.9 20 409.6 19.8 409.2 19.6 C 408.8 19.4 407.7 19.2 405.9 18.8 C 404.2 18.5 403.1 18.2 402.4 17.8 C 401.7 17.4 401.2 16.9 400.8 16.3 C 400.5 15.6 400.3 14.9 400.3 14.2 C 400.3 13.1 400.7 12 401.4 11.1 C 402.4 9.9 403.8 9.3 405.6 9.3 C 406.9 9.3 408.2 9.7 409.3 10.6 C 409.32 10.59 410.4 9.4 410.4 9.4 L 411.1 9.4 L 411.5 15 C 411.5 15 410.42 14.97 410.4 15 C 409.9 13.4 409.3 12.3 408.4 11.6 C 407.6 10.9 406.6 10.5 405.4 10.5 C 404.3 10.5 403.5 10.8 402.9 11.3 C 402.3 11.8 402 12.5 402 13.2 C 402 13.9 402.3 14.4 402.8 14.8 C 403.4 15.3 404.4 15.6 406 15.9 C 407.9 16.2 409 16.4 409.6 16.7 C 410.5 17 411.2 17.5 411.7 18.2 C 412.2 18.9 412.5 19.7 412.5 20.7 C 412.5 22.1 411.9 23.3 410.8 24.2 C 409.8 25.2 408.4 25.6 406.7 25.6 C 405.2 25.6 403.8 25.1 402.4 24.1 C 402.44 24.11 401.2 25.5 401.2 25.5 L 400.3 25.5 L 400 19.3 C 400 19.3 401.12 19.31 401.1 19.3 Z M 429.7 24 C 430.2 24 430.6 23.8 431.1 23.5 C 431.1 23.5 431.7 24.4 431.7 24.4 C 430.9 25.2 430 25.6 429 25.6 C 428.2 25.6 427.6 25.4 427.1 25 C 426.6 24.6 426.1 23.9 425.7 22.9 C 424.7 24 423.8 24.7 423 25.1 C 422.2 25.4 421.2 25.6 420.1 25.6 C 418.5 25.6 417.3 25.3 416.5 24.6 C 415.6 23.9 415.2 23 415.2 22 C 415.2 20.3 416.2 19 418.1 17.9 C 420 16.9 422.5 16.2 425.6 15.8 C 425.6 15.8 425.6 13.4 425.6 13.4 C 425.6 12.6 425.3 11.9 424.6 11.3 C 423.9 10.7 423.1 10.4 422 10.4 C 421.1 10.4 420.3 10.6 419.6 11 C 419.1 11.3 418.8 11.6 418.8 11.9 C 418.8 12 418.9 12.3 419.2 12.7 C 419.5 13.1 419.7 13.5 419.7 13.8 C 419.7 14.3 419.5 14.7 419.2 15 C 418.9 15.4 418.5 15.5 417.9 15.5 C 417.4 15.5 416.9 15.3 416.6 15 C 416.2 14.6 416 14.1 416 13.5 C 416 12.4 416.6 11.4 417.9 10.5 C 419.1 9.6 420.7 9.1 422.7 9.1 C 424.6 9.1 426 9.5 426.9 10.3 C 427.9 11.2 428.4 12.1 428.4 13.3 C 428.4 13.3 428.4 21.8 428.4 21.8 C 428.4 22.5 428.5 23.1 428.8 23.4 C 429 23.8 429.3 24 429.7 24 C 429.7 24 429.7 24 429.7 24 Z M 425.6 16.9 C 422.8 17.3 420.8 17.9 419.7 18.8 C 418.8 19.5 418.3 20.4 418.3 21.6 C 418.3 22.5 418.6 23.1 419 23.6 C 419.5 24.1 420.1 24.3 420.8 24.3 C 422.1 24.3 423.2 23.8 424.2 22.9 C 425.2 21.9 425.6 20.6 425.6 19.1 C 425.6 19.1 425.6 16.9 425.6 16.9 Z M 433.2 9.6 C 433.2 9.6 438.38 9.3 438.4 9.3 C 438.6 10.3 438.7 11.4 438.8 12.7 C 439.5 11.6 440.4 10.7 441.3 10.2 C 442.3 9.6 443.3 9.3 444.5 9.3 C 445.5 9.3 446.4 9.5 447.1 9.9 C 447.8 10.3 448.4 11 448.8 11.9 C 449.2 12.7 449.4 13.7 449.4 14.8 C 449.4 14.8 449.4 22.4 449.4 22.4 C 449.4 22.9 449.5 23.3 449.8 23.6 C 450.1 23.8 450.5 23.9 451.1 23.9 C 451.08 23.92 452.2 23.9 452.2 23.9 L 452.2 25.2 L 444 25.2 L 444 23.9 C 444 23.9 444.75 23.92 444.8 23.9 C 445.5 23.9 446 23.8 446.3 23.6 C 446.6 23.3 446.7 23 446.7 22.5 C 446.7 22.5 446.7 15.9 446.7 15.9 C 446.7 14.4 446.5 13.3 446 12.7 C 445.4 11.7 444.5 11.2 443.2 11.2 C 442 11.2 440.9 11.7 440.1 12.7 C 439.3 13.7 438.8 15 438.8 16.6 C 438.8 16.6 438.8 22.4 438.8 22.4 C 438.8 22.9 439 23.3 439.2 23.6 C 439.5 23.8 439.9 23.9 440.5 23.9 C 440.52 23.92 441.6 23.9 441.6 23.9 L 441.6 25.2 L 433.4 25.2 L 433.4 23.9 C 433.4 23.9 434.44 23.92 434.4 23.9 C 435 23.9 435.4 23.8 435.7 23.6 C 436 23.4 436.1 23.1 436.1 22.8 C 436.1 22.8 436.1 12.7 436.1 12.7 C 436.1 12.1 435.9 11.5 435.6 11.2 C 435.2 10.9 434.7 10.7 434 10.7 C 434.01 10.69 433.2 10.7 433.2 10.7 L 433.2 9.6 Z M 465.6 10.5 C 466.7 9.4 467.7 8.8 468.6 8.8 C 469.2 8.8 469.6 9 470 9.3 C 470.4 9.7 470.5 10.1 470.5 10.6 C 470.5 11.1 470.4 11.4 470.2 11.7 C 469.9 11.9 469.6 12.1 469.3 12.1 C 468.7 12.1 468.2 11.7 468 10.9 C 467.9 10.6 467.8 10.4 467.6 10.4 C 467.2 10.4 466.8 10.7 466.3 11.2 C 466.8 11.8 467.1 12.4 467.3 12.9 C 467.5 13.3 467.6 13.9 467.6 14.4 C 467.6 15.4 467.4 16.2 466.9 17 C 466.4 17.7 465.7 18.3 464.6 18.9 C 463.5 19.5 462.5 19.8 461.5 19.8 C 461.5 19.8 459.7 19.8 459.7 19.8 C 458.4 19.8 457.5 19.9 457.1 20.2 C 456.7 20.4 456.5 20.8 456.5 21.4 C 456.5 21.8 456.7 22.1 457 22.4 C 457.3 22.6 458 22.7 458.9 22.7 C 458.9 22.7 463 22.6 463 22.6 C 465.1 22.6 466.6 23 467.5 23.7 C 468.4 24.4 468.9 25.3 468.9 26.5 C 468.9 27.8 468.4 29 467.3 29.9 C 465.9 31.1 463.7 31.8 460.8 31.8 C 458.5 31.8 456.7 31.4 455.5 30.5 C 454.6 29.8 454.2 29 454.2 28.2 C 454.2 27.5 454.5 26.9 455 26.4 C 455.6 25.8 456.6 25.4 458 25.2 C 456.9 24.9 456.1 24.5 455.5 24 C 454.9 23.5 454.7 22.8 454.7 22.1 C 454.7 21.4 454.9 20.8 455.3 20.2 C 455.8 19.7 456.6 19.3 457.7 18.9 C 456.7 18.4 456 17.7 455.6 17 C 455.1 16.3 454.8 15.4 454.8 14.5 C 454.8 13 455.4 11.7 456.6 10.7 C 457.8 9.7 459.3 9.1 461.2 9.1 C 462 9.1 462.8 9.3 463.5 9.5 C 464.2 9.7 464.9 10 465.6 10.5 Z M 461.2 10.2 C 460.2 10.2 459.4 10.6 458.8 11.3 C 458.1 12 457.8 13 457.8 14.3 C 457.8 15.7 458.1 16.8 458.8 17.6 C 459.4 18.4 460.2 18.7 461.2 18.7 C 462.2 18.7 463 18.4 463.7 17.6 C 464.3 16.9 464.6 15.8 464.6 14.4 C 464.6 13.1 464.3 12.1 463.6 11.3 C 463 10.6 462.2 10.2 461.2 10.2 Z M 462.2 25.2 C 460.1 25.2 458.7 25.5 457.8 26 C 456.9 26.6 456.5 27.3 456.5 28.1 C 456.5 28.8 456.8 29.4 457.5 29.8 C 458.4 30.4 459.6 30.7 461.2 30.7 C 463.1 30.7 464.5 30.4 465.5 29.8 C 466.4 29.1 466.9 28.4 466.9 27.7 C 466.9 27.2 466.8 26.8 466.5 26.4 C 466.2 26 465.7 25.7 465 25.5 C 464.4 25.3 463.4 25.2 462.2 25.2 Z M 485.5 0.3 C 485.5 0.3 485.48 11.9 485.5 11.9 C 486.1 11 486.9 10.3 487.7 9.8 C 488.5 9.4 489.3 9.1 490.3 9.1 C 492.1 9.1 493.6 9.9 494.9 11.3 C 496.2 12.7 496.8 14.6 496.8 16.9 C 496.8 19.5 496.1 21.5 494.8 23.1 C 493.4 24.6 491.7 25.4 489.7 25.4 C 488.8 25.4 487.9 25.2 487.1 24.8 C 486.4 24.5 485.6 23.8 484.7 22.9 C 484.1 23.9 483.5 24.8 482.9 25.4 C 482.9 25.4 482.2 25.2 482.2 25.2 C 482.6 23.9 482.7 22.6 482.7 21.2 C 482.7 21.2 482.7 3.6 482.7 3.6 C 482.7 3.1 482.5 2.6 482.1 2.3 C 481.8 2 481.2 1.9 480.5 1.9 C 480.52 1.86 479.8 1.9 479.8 1.9 L 479.8 0.6 L 485.5 0.3 Z M 489.7 10.6 C 488.4 10.6 487.4 11.2 486.6 12.3 C 485.8 13.3 485.4 15.1 485.4 17.7 C 485.4 20 485.8 21.8 486.6 22.8 C 487.4 23.8 488.4 24.3 489.6 24.3 C 490.8 24.3 491.7 23.8 492.4 22.8 C 493.2 21.5 493.7 19.7 493.7 17.3 C 493.7 15 493.3 13.3 492.5 12.2 C 491.8 11.2 490.8 10.6 489.7 10.6 Z M 514.3 24 C 514.7 24 515.2 23.8 515.7 23.5 C 515.7 23.5 516.3 24.4 516.3 24.4 C 515.5 25.2 514.6 25.6 513.6 25.6 C 512.8 25.6 512.2 25.4 511.7 25 C 511.2 24.6 510.7 23.9 510.3 22.9 C 509.3 24 508.4 24.7 507.6 25.1 C 506.8 25.4 505.8 25.6 504.7 25.6 C 503.1 25.6 501.9 25.3 501 24.6 C 500.2 23.9 499.8 23 499.8 22 C 499.8 20.3 500.8 19 502.7 17.9 C 504.5 16.9 507.1 16.2 510.2 15.8 C 510.2 15.8 510.2 13.4 510.2 13.4 C 510.2 12.6 509.9 11.9 509.2 11.3 C 508.5 10.7 507.7 10.4 506.6 10.4 C 505.7 10.4 504.9 10.6 504.2 11 C 503.7 11.3 503.4 11.6 503.4 11.9 C 503.4 12 503.5 12.3 503.8 12.7 C 504.1 13.1 504.3 13.5 504.3 13.8 C 504.3 14.3 504.1 14.7 503.8 15 C 503.5 15.4 503.1 15.5 502.5 15.5 C 502 15.5 501.5 15.3 501.2 15 C 500.8 14.6 500.6 14.1 500.6 13.5 C 500.6 12.4 501.2 11.4 502.5 10.5 C 503.7 9.6 505.3 9.1 507.3 9.1 C 509.2 9.1 510.6 9.5 511.5 10.3 C 512.5 11.2 513 12.1 513 13.3 C 513 13.3 513 21.8 513 21.8 C 513 22.5 513.1 23.1 513.4 23.4 C 513.6 23.8 513.9 24 514.3 24 C 514.3 24 514.3 24 514.3 24 Z M 510.2 16.9 C 507.4 17.3 505.4 17.9 504.3 18.8 C 503.4 19.5 502.9 20.4 502.9 21.6 C 502.9 22.5 503.2 23.1 503.6 23.6 C 504.1 24.1 504.7 24.3 505.4 24.3 C 506.7 24.3 507.8 23.8 508.8 22.9 C 509.8 21.9 510.2 20.6 510.2 19.1 C 510.2 19.1 510.2 16.9 510.2 16.9 Z M 522.6 0.3 C 522.6 0.3 522.62 11.9 522.6 11.9 C 523.3 11 524 10.3 524.8 9.8 C 525.6 9.4 526.5 9.1 527.4 9.1 C 529.2 9.1 530.8 9.9 532 11.3 C 533.3 12.7 533.9 14.6 533.9 16.9 C 533.9 19.5 533.3 21.5 531.9 23.1 C 530.5 24.6 528.9 25.4 526.9 25.4 C 525.9 25.4 525 25.2 524.3 24.8 C 523.5 24.5 522.7 23.8 521.9 22.9 C 521.2 23.9 520.6 24.8 520 25.4 C 520 25.4 519.4 25.2 519.4 25.2 C 519.7 23.9 519.9 22.6 519.9 21.2 C 519.9 21.2 519.9 3.6 519.9 3.6 C 519.9 3.1 519.7 2.6 519.3 2.3 C 518.9 2 518.4 1.9 517.7 1.9 C 517.66 1.86 517 1.9 517 1.9 L 517 0.6 L 522.6 0.3 Z M 526.8 10.6 C 525.6 10.6 524.5 11.2 523.8 12.3 C 523 13.3 522.6 15.1 522.6 17.7 C 522.6 20 523 21.8 523.7 22.8 C 524.5 23.8 525.5 24.3 526.8 24.3 C 527.9 24.3 528.8 23.8 529.5 22.8 C 530.4 21.5 530.8 19.7 530.8 17.3 C 530.8 15 530.4 13.3 529.7 12.2 C 528.9 11.2 527.9 10.6 526.8 10.6 Z M 551.5 24 C 551.9 24 552.3 23.8 552.8 23.5 C 552.8 23.5 553.4 24.4 553.4 24.4 C 552.6 25.2 551.7 25.6 550.7 25.6 C 550 25.6 549.3 25.4 548.8 25 C 548.3 24.6 547.9 23.9 547.5 22.9 C 546.4 24 545.5 24.7 544.7 25.1 C 543.9 25.4 542.9 25.6 541.8 25.6 C 540.2 25.6 539 25.3 538.2 24.6 C 537.4 23.9 536.9 23 536.9 22 C 536.9 20.3 537.9 19 539.8 17.9 C 541.7 16.9 544.2 16.2 547.4 15.8 C 547.4 15.8 547.4 13.4 547.4 13.4 C 547.4 12.6 547 11.9 546.4 11.3 C 545.7 10.7 544.8 10.4 543.8 10.4 C 542.8 10.4 542 10.6 541.3 11 C 540.8 11.3 540.5 11.6 540.5 11.9 C 540.5 12 540.7 12.3 540.9 12.7 C 541.3 13.1 541.4 13.5 541.4 13.8 C 541.4 14.3 541.3 14.7 540.9 15 C 540.6 15.4 540.2 15.5 539.7 15.5 C 539.1 15.5 538.7 15.3 538.3 15 C 537.9 14.6 537.7 14.1 537.7 13.5 C 537.7 12.4 538.4 11.4 539.6 10.5 C 540.8 9.6 542.4 9.1 544.4 9.1 C 546.3 9.1 547.7 9.5 548.7 10.3 C 549.7 11.2 550.1 12.1 550.1 13.3 C 550.1 13.3 550.1 21.8 550.1 21.8 C 550.1 22.5 550.3 23.1 550.5 23.4 C 550.7 23.8 551.1 24 551.5 24 C 551.5 24 551.5 24 551.5 24 Z M 547.4 16.9 C 544.6 17.3 542.6 17.9 541.4 18.8 C 540.5 19.5 540.1 20.4 540.1 21.6 C 540.1 22.5 540.3 23.1 540.8 23.6 C 541.2 24.1 541.8 24.3 542.5 24.3 C 543.8 24.3 545 23.8 545.9 22.9 C 546.9 21.9 547.4 20.6 547.4 19.1 C 547.4 19.1 547.4 16.9 547.4 16.9 Z M 568.9 13.6 C 569.3 14.7 569.5 15.9 569.5 17.5 C 569.5 17.5 558.4 17.5 558.4 17.5 C 558.5 19.9 558.9 21.5 559.7 22.5 C 560.7 23.6 561.9 24.2 563.4 24.2 C 565.5 24.2 567.3 22.9 568.6 20.5 C 568.6 20.5 569.7 20.9 569.7 20.9 C 568.1 24.1 565.7 25.6 562.7 25.6 C 560.6 25.6 558.8 24.9 557.4 23.4 C 556 21.9 555.3 19.9 555.3 17.6 C 555.3 15.1 556 13 557.4 11.5 C 558.8 9.9 560.5 9.1 562.6 9.1 C 564.1 9.1 565.4 9.5 566.5 10.3 C 567.5 11.1 568.4 12.2 568.9 13.6 C 568.9 13.6 568.9 13.6 568.9 13.6 Z M 558.4 16.3 C 558.4 16.3 565.1 16.3 565.1 16.3 C 565.5 16.3 565.8 16.2 566.1 15.9 C 566.3 15.6 566.4 15.2 566.4 14.5 C 566.4 13.3 566 12.3 565.3 11.4 C 564.5 10.6 563.6 10.1 562.6 10.1 C 561.4 10.1 560.5 10.7 559.7 11.7 C 558.9 12.7 558.4 14.3 558.4 16.3 Z M 571.6 9.6 C 571.6 9.6 576.77 9.3 576.8 9.3 C 577 10.3 577.1 11.4 577.2 12.7 C 577.9 11.6 578.8 10.7 579.7 10.2 C 580.6 9.6 581.7 9.3 582.9 9.3 C 583.9 9.3 584.8 9.5 585.5 9.9 C 586.2 10.3 586.8 11 587.2 11.9 C 587.6 12.7 587.8 13.7 587.8 14.8 C 587.8 14.8 587.8 22.4 587.8 22.4 C 587.8 22.9 587.9 23.3 588.2 23.6 C 588.4 23.8 588.9 23.9 589.5 23.9 C 589.47 23.92 590.6 23.9 590.6 23.9 L 590.6 25.2 L 582.4 25.2 L 582.4 23.9 C 582.4 23.9 583.14 23.92 583.1 23.9 C 583.9 23.9 584.4 23.8 584.7 23.6 C 585 23.3 585.1 23 585.1 22.5 C 585.1 22.5 585.1 15.9 585.1 15.9 C 585.1 14.4 584.9 13.3 584.4 12.7 C 583.8 11.7 582.9 11.2 581.6 11.2 C 580.4 11.2 579.3 11.7 578.5 12.7 C 577.7 13.7 577.2 15 577.2 16.6 C 577.2 16.6 577.2 22.4 577.2 22.4 C 577.2 22.9 577.4 23.3 577.6 23.6 C 577.9 23.8 578.3 23.9 578.9 23.9 C 578.91 23.92 580 23.9 580 23.9 L 580 25.2 L 571.8 25.2 L 571.8 23.9 C 571.8 23.9 572.84 23.92 572.8 23.9 C 573.4 23.9 573.8 23.8 574.1 23.6 C 574.4 23.4 574.5 23.1 574.5 22.8 C 574.5 22.8 574.5 12.7 574.5 12.7 C 574.5 12.1 574.3 11.5 574 11.2 C 573.6 10.9 573.1 10.7 572.4 10.7 C 572.4 10.69 571.6 10.7 571.6 10.7 L 571.6 9.6 Z M 604 10.5 C 605.1 9.4 606.1 8.8 607 8.8 C 607.6 8.8 608 9 608.4 9.3 C 608.8 9.7 608.9 10.1 608.9 10.6 C 608.9 11.1 608.8 11.4 608.6 11.7 C 608.3 11.9 608 12.1 607.7 12.1 C 607.1 12.1 606.6 11.7 606.4 10.9 C 606.3 10.6 606.2 10.4 606 10.4 C 605.6 10.4 605.2 10.7 604.7 11.2 C 605.2 11.8 605.5 12.4 605.7 12.9 C 605.9 13.3 606 13.9 606 14.4 C 606 15.4 605.7 16.2 605.3 17 C 604.8 17.7 604 18.3 603 18.9 C 601.9 19.5 600.9 19.8 599.9 19.8 C 599.9 19.8 598.1 19.8 598.1 19.8 C 596.8 19.8 595.9 19.9 595.5 20.2 C 595.1 20.4 594.9 20.8 594.9 21.4 C 594.9 21.8 595 22.1 595.4 22.4 C 595.7 22.6 596.4 22.7 597.3 22.7 C 597.3 22.7 601.4 22.6 601.4 22.6 C 603.5 22.6 605 23 605.9 23.7 C 606.8 24.4 607.3 25.3 607.3 26.5 C 607.3 27.8 606.8 29 605.7 29.9 C 604.3 31.1 602.1 31.8 599.2 31.8 C 596.8 31.8 595.1 31.4 593.9 30.5 C 593 29.8 592.6 29 592.6 28.2 C 592.6 27.5 592.9 26.9 593.4 26.4 C 594 25.8 595 25.4 596.4 25.2 C 595.3 24.9 594.4 24.5 593.9 24 C 593.3 23.5 593.1 22.8 593.1 22.1 C 593.1 21.4 593.3 20.8 593.7 20.2 C 594.2 19.7 595 19.3 596.1 18.9 C 595.1 18.4 594.4 17.7 593.9 17 C 593.5 16.3 593.2 15.4 593.2 14.5 C 593.2 13 593.8 11.7 595 10.7 C 596.2 9.7 597.7 9.1 599.6 9.1 C 600.4 9.1 601.1 9.3 601.9 9.5 C 602.6 9.7 603.3 10 604 10.5 Z M 599.6 10.2 C 598.6 10.2 597.8 10.6 597.1 11.3 C 596.5 12 596.2 13 596.2 14.3 C 596.2 15.7 596.5 16.8 597.1 17.6 C 597.8 18.4 598.6 18.7 599.6 18.7 C 600.6 18.7 601.4 18.4 602.1 17.6 C 602.7 16.9 603 15.8 603 14.4 C 603 13.1 602.7 12.1 602 11.3 C 601.4 10.6 600.6 10.2 599.6 10.2 Z M 600.6 25.2 C 598.5 25.2 597.1 25.5 596.2 26 C 595.3 26.6 594.9 27.3 594.9 28.1 C 594.9 28.8 595.2 29.4 595.9 29.8 C 596.8 30.4 598 30.7 599.6 30.7 C 601.5 30.7 602.9 30.4 603.9 29.8 C 604.8 29.1 605.3 28.4 605.3 27.7 C 605.3 27.2 605.2 26.8 604.9 26.4 C 604.6 26 604.1 25.7 603.4 25.5 C 602.8 25.3 601.8 25.2 600.6 25.2 Z " stroke="none" fill="#000"/>
  </g>
</svg>