<?xml version="1.0" standalone="no"?>
<!DOCTYPE svg PUBLIC "-//W3C//DTD SVG 1.1//EN" "http://www.w3.org/Graphics/SVG/1.1/DTD/svg11.dtd">
<svg xmlns="http://www.w3.org/2000/svg" version="1.1" width="100px" height="20.8px" viewBox="0 -5 100 20.8" style="top:-5px">
  <desc>TOMO XXXVI BLG 3</desc>
  <defs/>
  <g id="Polygon13195">
    <path d="M 1.8 9.1 C 1.8 9.1 1.8 8.83 1.8 8.8 C 2 8.8 2.1 8.8 2.3 8.7 C 2.4 8.7 2.5 8.6 2.5 8.6 C 2.6 8.6 2.7 8.5 2.7 8.5 C 2.7 8.5 2.8 8.4 2.8 8.4 C 2.76 8.41 2.8 2.2 2.8 2.2 C 2.8 2.2 1.01 2.23 1 2.2 C 0.9 2.2 0.9 2.2 0.8 2.3 C 0.8 2.3 0.7 2.3 0.7 2.4 C 0.7 2.5 0.6 2.6 0.5 2.7 C 0.5 2.8 0.4 3 0.3 3.3 C 0.3 3.3 0.1 3.1 0.1 3.1 C 0.1 2.9 0.1 2.7 0.1 2.4 C 0.2 2.1 0.2 1.9 0.3 1.7 C 0.25 1.7 6.2 1.7 6.2 1.7 C 6.2 1.7 6.35 1.85 6.3 1.8 C 6.3 2 6.3 2.3 6.3 2.5 C 6.3 2.7 6.2 3 6.2 3.2 C 6.2 3.2 5.9 3.2 5.9 3.2 C 5.9 3.1 5.8 2.9 5.8 2.8 C 5.8 2.7 5.7 2.6 5.7 2.5 C 5.7 2.4 5.6 2.3 5.6 2.3 C 5.5 2.2 5.4 2.2 5.4 2.2 C 5.36 2.23 3.7 2.2 3.7 2.2 C 3.7 2.2 3.7 8.41 3.7 8.4 C 3.7 8.5 3.8 8.5 3.9 8.6 C 4 8.7 4.3 8.8 4.7 8.8 C 4.66 8.83 4.7 9.1 4.7 9.1 L 1.8 9.1 Z M 12.4 5.4 C 12.4 5.1 12.3 4.9 12.3 4.6 C 12.2 4.3 12.2 4.1 12.1 3.8 C 12 3.6 11.9 3.4 11.8 3.2 C 11.6 3 11.5 2.8 11.3 2.7 C 11.2 2.5 11 2.4 10.8 2.3 C 10.6 2.2 10.4 2.2 10.1 2.2 C 9.8 2.2 9.5 2.3 9.2 2.4 C 8.9 2.6 8.7 2.8 8.5 3 C 8.3 3.3 8.2 3.6 8.1 4 C 8 4.4 7.9 4.8 7.9 5.3 C 7.9 5.8 8 6.2 8.1 6.6 C 8.2 7 8.4 7.3 8.6 7.6 C 8.8 7.9 9 8.1 9.3 8.3 C 9.6 8.5 9.8 8.6 10.1 8.6 C 10.5 8.6 10.8 8.5 11 8.4 C 11.3 8.2 11.5 8 11.7 7.8 C 11.9 7.5 12.1 7.2 12.2 6.8 C 12.3 6.4 12.4 5.9 12.4 5.4 Z M 13.3 5.3 C 13.3 5.8 13.2 6.3 13 6.8 C 12.8 7.3 12.6 7.7 12.3 8.1 C 12 8.4 11.6 8.7 11.2 8.9 C 10.8 9.2 10.4 9.3 10 9.3 C 9.5 9.3 9.1 9.2 8.7 8.9 C 8.4 8.7 8 8.5 7.8 8.1 C 7.5 7.8 7.4 7.4 7.2 6.9 C 7.1 6.5 7 6 7 5.5 C 7 5 7.1 4.5 7.3 4 C 7.4 3.5 7.7 3.1 8 2.7 C 8.3 2.3 8.6 2.1 9 1.8 C 9.4 1.6 9.9 1.5 10.3 1.5 C 10.8 1.5 11.2 1.6 11.6 1.8 C 12 2.1 12.3 2.3 12.5 2.7 C 12.8 3 13 3.4 13.1 3.9 C 13.2 4.3 13.3 4.8 13.3 5.3 Z M 22.9 2 C 22.8 2 22.7 2 22.5 2 C 22.4 2 22.2 2.1 22.1 2.2 C 22.1 2.2 22.2 8.5 22.2 8.5 C 22.2 8.5 22.2 8.6 22.4 8.6 C 22.5 8.7 22.7 8.8 23 8.8 C 23.01 8.83 23 9.1 23 9.1 L 20.4 9.1 C 20.4 9.1 20.36 8.83 20.4 8.8 C 20.6 8.8 20.8 8.7 21 8.7 C 21.2 8.6 21.3 8.5 21.3 8.5 C 21.3 8.5 21.2 2.9 21.2 2.9 C 21.2 3 21.2 3 21.2 3 C 21.19 2.99 18.6 9.1 18.6 9.1 L 18.3 9.1 L 15.7 3 C 15.7 3 15.67 8.47 15.7 8.5 C 15.7 8.5 15.7 8.6 15.9 8.6 C 16 8.7 16.2 8.8 16.5 8.8 C 16.52 8.83 16.5 9.1 16.5 9.1 L 14.2 9.1 C 14.2 9.1 14.16 8.83 14.2 8.8 C 14.4 8.8 14.6 8.7 14.8 8.7 C 14.9 8.6 15 8.5 15 8.5 C 15 8.5 15.1 2.2 15.1 2.2 C 14.9 2.1 14.8 2 14.6 2 C 14.5 2 14.3 2 14.2 2 C 14.22 1.95 14.2 1.7 14.2 1.7 C 14.2 1.7 15.9 1.7 15.9 1.7 C 15.9 1.7 16 1.7 16 1.7 C 16 1.7 16 1.8 16.1 1.8 C 16.1 1.8 16.1 1.9 16.2 1.9 C 16.2 2 16.2 2.1 16.3 2.2 C 16.27 2.19 18.6 7.5 18.6 7.5 C 18.6 7.5 20.84 2.19 20.8 2.2 C 20.9 2.1 20.9 2 21 1.9 C 21 1.9 21 1.8 21 1.8 C 21.1 1.7 21.1 1.7 21.1 1.7 C 21.2 1.7 21.2 1.7 21.2 1.7 C 21.22 1.7 22.9 1.7 22.9 1.7 L 22.9 2 C 22.9 2 22.89 1.95 22.9 2 Z M 29.2 5.4 C 29.2 5.1 29.2 4.9 29.2 4.6 C 29.1 4.3 29.1 4.1 29 3.8 C 28.9 3.6 28.8 3.4 28.6 3.2 C 28.5 3 28.4 2.8 28.2 2.7 C 28 2.5 27.8 2.4 27.7 2.3 C 27.5 2.2 27.2 2.2 27 2.2 C 26.7 2.2 26.4 2.3 26.1 2.4 C 25.8 2.6 25.6 2.8 25.4 3 C 25.2 3.3 25.1 3.6 25 4 C 24.9 4.4 24.8 4.8 24.8 5.3 C 24.8 5.8 24.9 6.2 25 6.6 C 25.1 7 25.3 7.3 25.5 7.6 C 25.7 7.9 25.9 8.1 26.2 8.3 C 26.4 8.5 26.7 8.6 27 8.6 C 27.3 8.6 27.6 8.5 27.9 8.4 C 28.2 8.2 28.4 8 28.6 7.8 C 28.8 7.5 29 7.2 29.1 6.8 C 29.2 6.4 29.2 5.9 29.2 5.4 Z M 30.2 5.3 C 30.2 5.8 30.1 6.3 29.9 6.8 C 29.7 7.3 29.5 7.7 29.2 8.1 C 28.9 8.4 28.5 8.7 28.1 8.9 C 27.7 9.2 27.3 9.3 26.9 9.3 C 26.4 9.3 26 9.2 25.6 8.9 C 25.2 8.7 24.9 8.5 24.7 8.1 C 24.4 7.8 24.2 7.4 24.1 6.9 C 24 6.5 23.9 6 23.9 5.5 C 23.9 5 24 4.5 24.2 4 C 24.3 3.5 24.6 3.1 24.9 2.7 C 25.2 2.3 25.5 2.1 25.9 1.8 C 26.3 1.6 26.7 1.5 27.2 1.5 C 27.7 1.5 28.1 1.6 28.5 1.8 C 28.8 2.1 29.1 2.3 29.4 2.7 C 29.6 3 29.8 3.4 30 3.9 C 30.1 4.3 30.2 4.8 30.2 5.3 Z M 37.8 9.1 C 37.8 9.1 37.83 8.83 37.8 8.8 C 38 8.8 38.1 8.8 38.2 8.8 C 38.4 8.7 38.4 8.7 38.5 8.7 C 38.5 8.6 38.5 8.6 38.5 8.5 C 38.5 8.5 38.5 8.4 38.4 8.3 C 38.44 8.34 36.8 5.9 36.8 5.9 C 36.8 5.9 35.33 8.34 35.3 8.3 C 35.2 8.5 35.2 8.6 35.4 8.7 C 35.5 8.8 35.7 8.8 36.1 8.8 C 36.09 8.83 36.1 9.1 36.1 9.1 L 33.5 9.1 C 33.5 9.1 33.45 8.83 33.5 8.8 C 33.7 8.8 33.9 8.8 34.1 8.7 C 34.3 8.6 34.4 8.5 34.5 8.3 C 34.52 8.34 36.4 5.3 36.4 5.3 C 36.4 5.3 34.43 2.44 34.4 2.4 C 34.4 2.4 34.3 2.3 34.3 2.2 C 34.2 2.2 34.1 2.1 34.1 2.1 C 34 2.1 33.9 2 33.8 2 C 33.7 2 33.6 2 33.5 2 C 33.51 1.95 33.5 1.7 33.5 1.7 L 36.2 1.7 C 36.2 1.7 36.15 1.95 36.2 2 C 35.8 2 35.6 2 35.5 2.1 C 35.4 2.2 35.4 2.3 35.5 2.4 C 35.53 2.44 37 4.6 37 4.6 C 37 4.6 38.3 2.44 38.3 2.4 C 38.4 2.4 38.4 2.3 38.4 2.2 C 38.4 2.2 38.3 2.1 38.3 2.1 C 38.2 2 38.1 2 38 2 C 37.9 2 37.7 2 37.5 2 C 37.53 1.95 37.5 1.7 37.5 1.7 L 40.2 1.7 C 40.2 1.7 40.19 1.95 40.2 2 C 40 2 39.9 2 39.8 2 C 39.7 2 39.6 2.1 39.5 2.1 C 39.4 2.1 39.4 2.2 39.3 2.2 C 39.2 2.3 39.2 2.4 39.1 2.4 C 39.11 2.44 37.4 5.2 37.4 5.2 C 37.4 5.2 39.55 8.34 39.5 8.3 C 39.6 8.4 39.7 8.5 39.7 8.5 C 39.8 8.6 39.9 8.6 39.9 8.7 C 40 8.7 40.1 8.8 40.2 8.8 C 40.3 8.8 40.4 8.8 40.5 8.8 C 40.47 8.83 40.5 9.1 40.5 9.1 L 37.8 9.1 Z M 45.2 9.1 C 45.2 9.1 45.21 8.83 45.2 8.8 C 45.4 8.8 45.5 8.8 45.6 8.8 C 45.7 8.7 45.8 8.7 45.9 8.7 C 45.9 8.6 45.9 8.6 45.9 8.5 C 45.9 8.5 45.9 8.4 45.8 8.3 C 45.83 8.34 44.2 5.9 44.2 5.9 C 44.2 5.9 42.72 8.34 42.7 8.3 C 42.6 8.5 42.6 8.6 42.7 8.7 C 42.9 8.8 43.1 8.8 43.5 8.8 C 43.47 8.83 43.5 9.1 43.5 9.1 L 40.8 9.1 C 40.8 9.1 40.84 8.83 40.8 8.8 C 41.1 8.8 41.3 8.8 41.5 8.7 C 41.7 8.6 41.8 8.5 41.9 8.3 C 41.9 8.34 43.8 5.3 43.8 5.3 C 43.8 5.3 41.81 2.44 41.8 2.4 C 41.7 2.4 41.7 2.3 41.6 2.2 C 41.6 2.2 41.5 2.1 41.5 2.1 C 41.4 2.1 41.3 2 41.2 2 C 41.1 2 41 2 40.9 2 C 40.89 1.95 40.9 1.7 40.9 1.7 L 43.5 1.7 C 43.5 1.7 43.54 1.95 43.5 2 C 43.2 2 43 2 42.9 2.1 C 42.8 2.2 42.8 2.3 42.9 2.4 C 42.91 2.44 44.4 4.6 44.4 4.6 C 44.4 4.6 45.68 2.44 45.7 2.4 C 45.7 2.4 45.8 2.3 45.8 2.2 C 45.7 2.2 45.7 2.1 45.6 2.1 C 45.6 2 45.5 2 45.4 2 C 45.2 2 45.1 2 44.9 2 C 44.91 1.95 44.9 1.7 44.9 1.7 L 47.6 1.7 C 47.6 1.7 47.57 1.95 47.6 2 C 47.4 2 47.3 2 47.2 2 C 47.1 2 47 2.1 46.9 2.1 C 46.8 2.1 46.7 2.2 46.7 2.2 C 46.6 2.3 46.5 2.4 46.5 2.4 C 46.5 2.44 44.8 5.2 44.8 5.2 C 44.8 5.2 46.93 8.34 46.9 8.3 C 47 8.4 47 8.5 47.1 8.5 C 47.2 8.6 47.2 8.6 47.3 8.7 C 47.4 8.7 47.5 8.8 47.6 8.8 C 47.6 8.8 47.7 8.8 47.9 8.8 C 47.86 8.83 47.9 9.1 47.9 9.1 L 45.2 9.1 Z M 52.6 9.1 C 52.6 9.1 52.6 8.83 52.6 8.8 C 52.8 8.8 52.9 8.8 53 8.8 C 53.1 8.7 53.2 8.7 53.2 8.7 C 53.3 8.6 53.3 8.6 53.3 8.5 C 53.3 8.5 53.3 8.4 53.2 8.3 C 53.21 8.34 51.6 5.9 51.6 5.9 C 51.6 5.9 50.1 8.34 50.1 8.3 C 50 8.5 50 8.6 50.1 8.7 C 50.3 8.8 50.5 8.8 50.9 8.8 C 50.86 8.83 50.9 9.1 50.9 9.1 L 48.2 9.1 C 48.2 9.1 48.22 8.83 48.2 8.8 C 48.5 8.8 48.7 8.8 48.9 8.7 C 49 8.6 49.2 8.5 49.3 8.3 C 49.28 8.34 51.1 5.3 51.1 5.3 C 51.1 5.3 49.19 2.44 49.2 2.4 C 49.1 2.4 49.1 2.3 49 2.2 C 49 2.2 48.9 2.1 48.8 2.1 C 48.8 2.1 48.7 2 48.6 2 C 48.5 2 48.4 2 48.3 2 C 48.28 1.95 48.3 1.7 48.3 1.7 L 50.9 1.7 C 50.9 1.7 50.92 1.95 50.9 2 C 50.6 2 50.4 2 50.3 2.1 C 50.2 2.2 50.2 2.3 50.3 2.4 C 50.29 2.44 51.7 4.6 51.7 4.6 C 51.7 4.6 53.06 2.44 53.1 2.4 C 53.1 2.4 53.1 2.3 53.1 2.2 C 53.1 2.2 53.1 2.1 53 2.1 C 53 2 52.9 2 52.7 2 C 52.6 2 52.5 2 52.3 2 C 52.3 1.95 52.3 1.7 52.3 1.7 L 55 1.7 C 55 1.7 54.95 1.95 55 2 C 54.8 2 54.7 2 54.6 2 C 54.5 2 54.4 2.1 54.3 2.1 C 54.2 2.1 54.1 2.2 54.1 2.2 C 54 2.3 53.9 2.4 53.9 2.4 C 53.88 2.44 52.2 5.2 52.2 5.2 C 52.2 5.2 54.31 8.34 54.3 8.3 C 54.4 8.4 54.4 8.5 54.5 8.5 C 54.6 8.6 54.6 8.6 54.7 8.7 C 54.8 8.7 54.8 8.8 54.9 8.8 C 55 8.8 55.1 8.8 55.2 8.8 C 55.24 8.83 55.2 9.1 55.2 9.1 L 52.6 9.1 Z M 63 2 C 62.7 2 62.5 2.1 62.4 2.1 C 62.2 2.1 62.1 2.2 62.1 2.3 C 62.1 2.3 59.8 8.7 59.8 8.7 C 59.8 8.8 59.7 8.9 59.7 9 C 59.6 9 59.5 9.1 59.4 9.1 C 59.3 9.1 59.2 9.2 59.2 9.2 C 59.1 9.2 59 9.2 58.9 9.3 C 58.9 9.3 56.4 2.3 56.4 2.3 C 56.3 2.1 56 2 55.5 2 C 55.54 1.95 55.5 1.7 55.5 1.7 L 58.1 1.7 C 58.1 1.7 58.09 1.95 58.1 2 C 57.8 2 57.6 2 57.4 2.1 C 57.3 2.1 57.3 2.2 57.3 2.3 C 57.34 2.34 59.4 7.9 59.4 7.9 C 59.4 7.9 61.37 2.34 61.4 2.3 C 61.4 2.2 61.4 2.1 61.2 2.1 C 61.1 2 60.9 2 60.5 2 C 60.54 1.95 60.5 1.7 60.5 1.7 L 63 1.7 L 63 2 C 63 2 62.98 1.95 63 2 Z M 63.6 9.1 C 63.6 9.1 63.63 8.83 63.6 8.8 C 63.9 8.8 64.1 8.7 64.3 8.7 C 64.4 8.6 64.5 8.5 64.5 8.5 C 64.5 8.5 64.5 2.3 64.5 2.3 C 64.5 2.3 64.4 2.2 64.3 2.1 C 64.1 2.1 63.9 2 63.6 2 C 63.63 1.95 63.6 1.7 63.6 1.7 L 66.3 1.7 C 66.3 1.7 66.27 1.95 66.3 2 C 66 2 65.8 2.1 65.6 2.1 C 65.5 2.2 65.4 2.3 65.4 2.3 C 65.4 2.3 65.4 8.5 65.4 8.5 C 65.4 8.5 65.5 8.6 65.6 8.6 C 65.8 8.7 66 8.8 66.3 8.8 C 66.27 8.83 66.3 9.1 66.3 9.1 L 63.6 9.1 Z M 71.8 2 C 71.7 2 71.7 2 71.6 2 C 71.6 2 71.5 2 71.5 2 C 71.46 2.03 71.5 4.8 71.5 4.8 C 71.5 4.8 71.66 4.83 71.7 4.8 C 72.1 4.8 72.5 4.8 72.7 4.7 C 73 4.6 73.2 4.5 73.4 4.4 C 73.5 4.2 73.6 4.1 73.7 3.9 C 73.7 3.7 73.8 3.6 73.8 3.4 C 73.8 3.2 73.7 3 73.7 2.8 C 73.6 2.7 73.5 2.5 73.4 2.4 C 73.2 2.3 73 2.2 72.7 2.1 C 72.5 2.1 72.2 2 71.8 2 Z M 72.4 5.3 C 72.2 5.3 72.1 5.3 71.9 5.3 C 71.7 5.3 71.6 5.3 71.5 5.4 C 71.5 5.4 71.5 8.5 71.5 8.5 C 71.5 8.5 71.5 8.5 71.5 8.6 C 71.6 8.6 71.7 8.6 71.7 8.6 C 71.8 8.6 71.9 8.6 72 8.6 C 72.1 8.7 72.2 8.7 72.3 8.7 C 72.4 8.7 72.4 8.7 72.5 8.7 C 72.8 8.7 73.1 8.6 73.3 8.6 C 73.5 8.5 73.7 8.4 73.9 8.3 C 74 8.1 74.2 8 74.2 7.8 C 74.3 7.6 74.4 7.4 74.4 7.2 C 74.4 7 74.3 6.8 74.3 6.5 C 74.2 6.3 74.1 6.1 73.9 5.9 C 73.7 5.7 73.5 5.6 73.3 5.5 C 73.1 5.3 72.8 5.3 72.4 5.3 Z M 75.3 7 C 75.3 7.3 75.3 7.6 75.1 7.9 C 75 8.2 74.8 8.4 74.6 8.6 C 74.3 8.8 74.1 8.9 73.7 9 C 73.4 9.1 73 9.2 72.7 9.2 C 72.5 9.2 72.4 9.2 72.2 9.2 C 72.1 9.2 71.9 9.1 71.7 9.1 C 71.5 9.1 71.3 9.1 71.1 9.1 C 70.9 9.1 70.8 9.1 70.6 9.1 C 70.5 9.1 70.3 9.1 70.1 9.1 C 70.1 9.08 69.7 9.1 69.7 9.1 C 69.7 9.1 69.67 8.83 69.7 8.8 C 69.9 8.8 70.1 8.7 70.3 8.7 C 70.4 8.6 70.5 8.5 70.5 8.5 C 70.5 8.5 70.5 2.1 70.5 2.1 C 70.4 2.1 70.2 2.1 70.1 2.2 C 69.9 2.2 69.8 2.2 69.7 2.2 C 69.7 2.2 69.6 1.9 69.6 1.9 C 69.8 1.8 69.9 1.8 70.1 1.7 C 70.3 1.7 70.6 1.7 70.8 1.6 C 71 1.6 71.2 1.6 71.5 1.6 C 71.7 1.5 71.9 1.5 72.1 1.5 C 72.5 1.5 72.9 1.6 73.2 1.6 C 73.5 1.7 73.8 1.8 74 1.9 C 74.2 2.1 74.4 2.2 74.5 2.4 C 74.6 2.6 74.7 2.9 74.7 3.1 C 74.7 3.5 74.6 3.9 74.4 4.2 C 74.2 4.5 73.9 4.7 73.6 4.8 C 73.8 4.9 74.1 5 74.3 5.1 C 74.5 5.2 74.7 5.4 74.8 5.6 C 75 5.8 75.1 6 75.2 6.2 C 75.3 6.5 75.3 6.7 75.3 7 Z M 81.5 7.7 C 81.5 8 81.4 8.3 81.4 8.5 C 81.3 8.8 81.3 9 81.3 9.1 C 81.27 9.08 76.3 9.1 76.3 9.1 C 76.3 9.1 76.27 8.83 76.3 8.8 C 76.5 8.8 76.7 8.7 76.9 8.7 C 77 8.6 77.1 8.5 77.1 8.5 C 77.1 8.5 77.1 2.3 77.1 2.3 C 77.1 2.3 77 2.2 76.9 2.1 C 76.8 2.1 76.6 2 76.3 2 C 76.27 1.95 76.3 1.7 76.3 1.7 L 78.9 1.7 C 78.9 1.7 78.91 1.95 78.9 2 C 78.6 2 78.4 2.1 78.3 2.1 C 78.1 2.2 78.1 2.3 78.1 2.3 C 78.1 2.3 78.1 8.1 78.1 8.1 C 78.1 8.2 78.1 8.3 78.1 8.3 C 78.1 8.4 78.2 8.4 78.3 8.4 C 78.4 8.5 78.5 8.5 78.6 8.5 C 78.8 8.5 78.9 8.6 79.1 8.6 C 79.1 8.6 80 8.6 80 8.6 C 80.2 8.6 80.3 8.5 80.4 8.5 C 80.6 8.5 80.7 8.5 80.8 8.4 C 80.9 8.3 80.9 8.2 81 8.1 C 81.1 8 81.2 7.8 81.3 7.5 C 81.26 7.55 81.5 7.7 81.5 7.7 C 81.5 7.7 81.51 7.65 81.5 7.7 Z M 87.8 2.1 C 87.8 2.1 87.8 2.2 87.8 2.2 C 87.7 2.3 87.7 2.4 87.6 2.4 C 87.6 2.5 87.5 2.6 87.4 2.6 C 87.3 2.7 87.3 2.8 87.2 2.8 C 87.2 2.8 87 2.8 87 2.8 C 86.9 2.7 86.8 2.5 86.6 2.5 C 86.5 2.4 86.4 2.3 86.2 2.3 C 86.1 2.2 85.9 2.2 85.7 2.2 C 85.6 2.2 85.4 2.2 85.2 2.2 C 85.1 2.2 85 2.2 84.8 2.2 C 84.7 2.3 84.5 2.4 84.4 2.5 C 84.2 2.6 84 2.7 83.9 2.8 C 83.7 3 83.6 3.2 83.4 3.4 C 83.3 3.7 83.2 4 83.1 4.3 C 83 4.6 83 4.9 83 5.3 C 83 5.9 83.1 6.4 83.2 6.8 C 83.4 7.2 83.6 7.5 83.8 7.8 C 84 8 84.3 8.2 84.6 8.4 C 84.9 8.5 85.2 8.6 85.5 8.6 C 85.8 8.6 86 8.5 86.3 8.5 C 86.5 8.4 86.7 8.3 86.9 8.2 C 86.9 8.2 86.9 6.2 86.9 6.2 C 86.9 6.2 86.9 6.2 86.8 6.1 C 86.8 6.1 86.7 6 86.7 6 C 86.6 6 86.4 5.9 86.3 5.9 C 86.1 5.8 85.9 5.8 85.7 5.8 C 85.7 5.76 85.7 5.5 85.7 5.5 L 88.4 5.5 C 88.4 5.5 88.4 5.76 88.4 5.8 C 88.2 5.8 88 5.9 87.9 6 C 87.8 6.1 87.8 6.2 87.8 6.2 C 87.8 6.2 87.8 8.1 87.8 8.1 C 87.8 8.2 87.8 8.2 87.8 8.2 C 87.8 8.2 87.8 8.2 87.8 8.2 C 87.5 8.4 87.2 8.6 87 8.7 C 86.8 8.9 86.6 9 86.4 9.1 C 86.2 9.1 86 9.2 85.8 9.2 C 85.7 9.2 85.5 9.3 85.3 9.3 C 84.9 9.3 84.5 9.2 84.1 9 C 83.8 8.9 83.4 8.7 83.1 8.4 C 82.8 8.1 82.6 7.7 82.4 7.3 C 82.2 6.8 82.1 6.3 82.1 5.7 C 82.1 5 82.2 4.4 82.4 3.9 C 82.6 3.4 82.9 3 83.2 2.6 C 83.6 2.3 84 2 84.5 1.8 C 85 1.6 85.5 1.5 86 1.5 C 86.1 1.5 86.3 1.5 86.4 1.6 C 86.6 1.6 86.7 1.6 86.9 1.7 C 87.1 1.7 87.2 1.8 87.4 1.9 C 87.5 1.9 87.7 2 87.8 2.1 Z M 90.8 8.4 C 90.8 8.5 90.8 8.6 90.8 8.7 C 90.7 8.9 90.7 9 90.6 9 C 90.5 9.1 90.5 9.2 90.4 9.2 C 90.3 9.3 90.2 9.3 90 9.3 C 89.8 9.3 89.7 9.3 89.6 9.1 C 89.5 9 89.5 8.9 89.5 8.7 C 89.5 8.5 89.5 8.4 89.5 8.3 C 89.6 8.2 89.6 8.1 89.7 8 C 89.8 7.9 89.9 7.8 90 7.8 C 90.1 7.7 90.2 7.7 90.3 7.7 C 90.5 7.7 90.6 7.8 90.7 7.9 C 90.8 8 90.8 8.2 90.8 8.4 Z M 98.9 6.8 C 98.9 7.2 98.8 7.5 98.7 7.8 C 98.6 8.1 98.4 8.3 98.2 8.5 C 98 8.8 97.8 8.9 97.5 9.1 C 97.2 9.2 96.8 9.3 96.4 9.3 C 96.2 9.3 96.1 9.2 95.9 9.2 C 95.8 9.2 95.6 9.1 95.4 9.1 C 95.3 9 95.1 8.9 94.9 8.8 C 94.8 8.7 94.6 8.6 94.4 8.4 C 94.4 8.4 94.6 8 94.6 8 C 94.8 8.1 95 8.2 95.1 8.3 C 95.2 8.4 95.4 8.5 95.5 8.5 C 95.6 8.6 95.8 8.6 95.9 8.6 C 96 8.7 96.2 8.7 96.3 8.7 C 96.6 8.7 96.8 8.6 97 8.5 C 97.2 8.5 97.3 8.4 97.5 8.2 C 97.6 8.1 97.7 7.9 97.8 7.7 C 97.9 7.5 97.9 7.3 97.9 7 C 97.9 6.8 97.9 6.5 97.8 6.3 C 97.7 6.1 97.6 5.9 97.4 5.8 C 97.3 5.7 97.1 5.6 96.9 5.5 C 96.8 5.5 96.6 5.4 96.4 5.4 C 96.4 5.4 96.3 5.4 96.3 5.4 C 96.3 5.4 96.3 5.4 96.2 5.4 C 96.2 5.4 96.2 5.4 96.2 5.4 C 96.1 5.5 96.1 5.5 96 5.5 C 96 5.5 95.9 5.1 95.9 5.1 C 96.3 5 96.6 4.9 96.8 4.8 C 97 4.7 97.2 4.5 97.3 4.4 C 97.4 4.2 97.5 4.1 97.5 4 C 97.6 3.8 97.6 3.7 97.6 3.6 C 97.6 3.4 97.6 3.3 97.5 3.2 C 97.5 3 97.4 2.9 97.3 2.8 C 97.2 2.7 97.1 2.6 97 2.5 C 96.9 2.4 96.7 2.4 96.5 2.4 C 96.4 2.4 96.2 2.4 96.1 2.5 C 96 2.5 95.9 2.6 95.8 2.7 C 95.7 2.8 95.6 2.9 95.6 3 C 95.6 3.1 95.6 3.2 95.6 3.4 C 95.5 3.4 95.3 3.5 95.2 3.5 C 95.1 3.6 95 3.6 94.8 3.6 C 94.8 3.6 94.6 3.4 94.6 3.4 C 94.6 3.3 94.7 3.1 94.8 2.9 C 94.9 2.7 95.1 2.5 95.3 2.4 C 95.5 2.2 95.7 2.1 96 2 C 96.3 1.9 96.6 1.8 96.8 1.8 C 97.1 1.8 97.4 1.9 97.6 2 C 97.8 2.1 98 2.2 98.1 2.4 C 98.3 2.5 98.4 2.7 98.4 2.9 C 98.5 3.1 98.5 3.3 98.5 3.5 C 98.5 3.6 98.5 3.8 98.4 3.9 C 98.4 4.1 98.3 4.2 98.2 4.3 C 98.1 4.5 97.9 4.6 97.8 4.7 C 97.6 4.8 97.5 4.9 97.3 5 C 97.5 5 97.7 5.1 97.9 5.2 C 98.1 5.3 98.3 5.4 98.4 5.6 C 98.5 5.8 98.6 6 98.7 6.2 C 98.8 6.4 98.9 6.6 98.9 6.8 Z " stroke="none" fill="#000"/>
  </g>
</svg>