<?xml version="1.0" standalone="no"?>
<!DOCTYPE svg PUBLIC "-//W3C//DTD SVG 1.1//EN" "http://www.w3.org/Graphics/SVG/1.1/DTD/svg11.dtd">
<svg xmlns="http://www.w3.org/2000/svg" version="1.1" width="135px" height="21.3px" viewBox="0 -4 135 21.3" style="top:-4px">
  <desc>HULYO 2021</desc>
  <defs/>
  <g id="Polygon32392">
    <path d="M 78.3 1.3 C 77.3 1.3 77.2 1.4 77.2 2.4 C 77.2 2.4 77.2 7.2 77.2 7.2 C 77.2 8.3 77.3 8.3 78.2 8.4 C 78.24 8.39 78.2 8.7 78.2 8.7 L 75 8.7 C 75 8.7 75.02 8.39 75 8.4 C 76 8.3 76.2 8.3 76.2 7.2 C 76.15 7.25 76.2 4.8 76.2 4.8 L 72.1 4.8 C 72.1 4.8 72.06 7.25 72.1 7.2 C 72.1 8.2 72.2 8.3 73.1 8.4 C 73.14 8.39 73.1 8.7 73.1 8.7 L 70 8.7 C 70 8.7 69.99 8.39 70 8.4 C 70.9 8.3 71 8.3 71 7.2 C 71 7.2 71 2.4 71 2.4 C 71 1.4 70.9 1.3 70 1.3 C 69.96 1.26 70 0.9 70 0.9 L 73.1 0.9 C 73.1 0.9 73.07 1.26 73.1 1.3 C 72.2 1.3 72.1 1.4 72.1 2.4 C 72.06 2.4 72.1 4.3 72.1 4.3 L 76.2 4.3 C 76.2 4.3 76.15 2.4 76.2 2.4 C 76.2 1.4 76.1 1.3 75.1 1.3 C 75.12 1.26 75.1 0.9 75.1 0.9 L 78.3 0.9 C 78.3 0.9 78.25 1.26 78.3 1.3 Z M 87.3 1.3 C 86.6 1.3 86.3 1.5 86.2 2 C 86.2 2.3 86.2 2.8 86.2 3.9 C 86.2 3.9 86.2 4.9 86.2 4.9 C 86.2 6.3 86 7.3 85.3 8.1 C 84.7 8.7 83.9 8.9 83.1 8.9 C 82.4 8.9 81.7 8.7 81.2 8.3 C 80.5 7.8 80.1 6.9 80.1 5.5 C 80.1 5.5 80.1 2.5 80.1 2.5 C 80.1 1.4 80 1.3 79.1 1.3 C 79.09 1.26 79.1 0.9 79.1 0.9 L 82.2 0.9 C 82.2 0.9 82.2 1.26 82.2 1.3 C 81.3 1.3 81.2 1.4 81.2 2.5 C 81.2 2.5 81.2 5.2 81.2 5.2 C 81.2 7.1 81.9 8.2 83.4 8.2 C 85.1 8.2 85.7 6.8 85.7 4.8 C 85.7 4.8 85.7 3.9 85.7 3.9 C 85.7 2.8 85.6 2.3 85.6 1.9 C 85.5 1.5 85.3 1.3 84.4 1.3 C 84.43 1.26 84.4 0.9 84.4 0.9 L 87.3 0.9 C 87.3 0.9 87.29 1.26 87.3 1.3 Z M 93.8 6.8 C 93.8 7.2 93.5 8.4 93.4 8.7 C 93.4 8.72 88 8.7 88 8.7 C 88 8.7 87.96 8.39 88 8.4 C 89 8.3 89.1 8.2 89.1 7.2 C 89.1 7.2 89.1 2.4 89.1 2.4 C 89.1 1.4 89 1.3 88 1.3 C 88.01 1.26 88 0.9 88 0.9 L 91.1 0.9 C 91.1 0.9 91.14 1.26 91.1 1.3 C 90.2 1.3 90.1 1.4 90.1 2.4 C 90.1 2.4 90.1 7.2 90.1 7.2 C 90.1 7.8 90.1 8 90.4 8.2 C 90.6 8.3 91 8.3 91.5 8.3 C 92.2 8.3 92.6 8.3 92.9 7.9 C 93.1 7.7 93.3 7.3 93.5 6.8 C 93.5 6.8 93.8 6.8 93.8 6.8 Z M 100.6 1.3 C 99.8 1.4 99.7 1.5 99.2 2.2 C 98.7 3.1 98.3 3.8 97.7 4.8 C 97.5 5.1 97.5 5.3 97.5 5.6 C 97.5 5.6 97.5 7.2 97.5 7.2 C 97.5 8.2 97.6 8.3 98.7 8.4 C 98.69 8.39 98.7 8.7 98.7 8.7 L 95.3 8.7 C 95.3 8.7 95.29 8.39 95.3 8.4 C 96.4 8.3 96.5 8.2 96.5 7.2 C 96.5 7.2 96.5 5.6 96.5 5.6 C 96.5 5.4 96.4 5.3 96.2 4.9 C 95.8 4.2 95.4 3.4 94.7 2.3 C 94.2 1.5 94.1 1.3 93.4 1.3 C 93.37 1.26 93.4 0.9 93.4 0.9 L 96.2 0.9 C 96.2 0.9 96.24 1.26 96.2 1.3 C 95.4 1.4 95.4 1.5 95.6 1.9 C 96.1 2.9 96.7 3.9 97.2 4.8 C 97.7 4 98.3 2.8 98.7 2.1 C 99 1.5 98.9 1.4 98 1.3 C 97.98 1.26 98 0.9 98 0.9 L 100.6 0.9 C 100.6 0.9 100.63 1.26 100.6 1.3 Z M 108.7 4.7 C 108.7 7.3 106.9 8.9 104.7 8.9 C 102.5 8.9 100.8 7.2 100.8 4.9 C 100.8 2.7 102.3 0.7 104.8 0.7 C 106.9 0.7 108.7 2.3 108.7 4.7 Z M 102 4.6 C 102 6.8 103.3 8.5 105 8.5 C 106.3 8.5 107.5 7.4 107.5 5.1 C 107.5 2.5 106.2 1.2 104.6 1.2 C 103.2 1.2 102 2.3 102 4.6 Z M 117.2 7.2 C 117.1 7.7 117 8.2 116.8 8.7 C 116.82 8.72 112.3 8.7 112.3 8.7 C 112.3 8.7 112.33 8.45 112.3 8.4 C 113 7.8 113.7 7.1 114.3 6.4 C 115 5.5 115.8 4.5 115.8 3.5 C 115.8 2.5 115.2 1.9 114.4 1.9 C 113.5 1.9 113 2.6 112.7 3 C 112.73 3.02 112.5 2.8 112.5 2.8 C 112.5 2.8 113.15 1.81 113.1 1.8 C 113.5 1.4 114.1 1.1 114.8 1.1 C 115.8 1.1 116.8 1.9 116.8 3.1 C 116.8 4.2 116.3 4.9 115.2 6.1 C 115.2 6.06 113.5 7.8 113.5 7.8 C 113.5 7.8 115.74 7.85 115.7 7.8 C 116.4 7.8 116.5 7.8 116.9 7 C 116.9 7 117.2 7.2 117.2 7.2 Z M 123 5 C 123 6.7 122.4 8.9 120.6 8.9 C 118.8 8.9 118.1 6.9 118.1 5 C 118.1 3.2 118.8 1.1 120.6 1.1 C 122.4 1.1 123 3.1 123 5 Z M 119.2 5 C 119.2 6.6 119.6 8.5 120.6 8.5 C 121.7 8.5 122 6.7 122 5 C 122 3.3 121.7 1.5 120.6 1.5 C 119.5 1.5 119.2 3.3 119.2 5 Z M 128.8 7.2 C 128.6 7.7 128.5 8.2 128.3 8.7 C 128.34 8.72 123.9 8.7 123.9 8.7 C 123.9 8.7 123.85 8.45 123.9 8.4 C 124.5 7.8 125.2 7.1 125.8 6.4 C 126.5 5.5 127.3 4.5 127.3 3.5 C 127.3 2.5 126.8 1.9 125.9 1.9 C 125.1 1.9 124.6 2.6 124.2 3 C 124.25 3.02 124 2.8 124 2.8 C 124 2.8 124.67 1.81 124.7 1.8 C 125 1.4 125.6 1.1 126.3 1.1 C 127.3 1.1 128.3 1.9 128.3 3.1 C 128.3 4.2 127.8 4.9 126.7 6.1 C 126.72 6.06 125 7.8 125 7.8 C 125 7.8 127.26 7.85 127.3 7.8 C 127.9 7.8 128.1 7.8 128.4 7 C 128.4 7 128.8 7.2 128.8 7.2 Z M 130.5 8.7 C 130.5 8.7 130.55 8.4 130.5 8.4 C 131.6 8.3 131.7 8.2 131.7 7.4 C 131.7 7.4 131.7 2.7 131.7 2.7 C 131.7 2.1 131.7 2.1 131.1 2 C 131.12 2.03 130.5 2 130.5 2 C 130.5 2 130.55 1.73 130.5 1.7 C 131.3 1.6 132 1.4 132.7 1.1 C 132.7 1.1 132.7 7.4 132.7 7.4 C 132.7 8.2 132.8 8.3 133.8 8.4 C 133.85 8.4 133.8 8.7 133.8 8.7 L 130.5 8.7 Z " stroke="none" fill="#000"/>
  </g>
</svg>