<?xml version="1.0" standalone="no"?>
<!DOCTYPE svg PUBLIC "-//W3C//DTD SVG 1.1//EN" "http://www.w3.org/Graphics/SVG/1.1/DTD/svg11.dtd">
<svg xmlns="http://www.w3.org/2000/svg" version="1.1" width="353.1px" height="33.9px" viewBox="0 -6 353.1 33.9" style="top:-6px">
  <desc>Laboratoryo Mula sa p 1</desc>
  <defs/>
  <g id="Polygon24913">
    <path d="M 1.6 -0.3 L 4.1 -0.3 L 4.1 12.6 L 10.1 12.6 L 10.1 15.1 L 1.6 15.1 L 1.6 -0.3 Z M 18.3 13.7 C 18.3 13.7 18.27 13.68 18.3 13.7 C 17.6 14.9 16.5 15.4 15.2 15.4 C 13.4 15.4 11.7 14.3 11.7 12.2 C 11.7 8.8 15.3 8.6 17.7 8.6 C 17.73 8.6 18.3 8.6 18.3 8.6 C 18.3 8.6 18.33 8.32 18.3 8.3 C 18.3 7 17.4 6.4 16.1 6.4 C 15.1 6.4 14.2 6.8 13.6 7.4 C 13.6 7.4 12.3 6.1 12.3 6.1 C 13.4 4.9 14.9 4.4 16.4 4.4 C 20.5 4.4 20.5 7.6 20.5 9.1 C 20.49 9.1 20.5 15.1 20.5 15.1 L 18.3 15.1 L 18.3 13.7 Z M 18.2 10.4 C 18.2 10.4 17.69 10.43 17.7 10.4 C 16.4 10.4 14.1 10.5 14.1 12 C 14.1 13 15 13.4 15.8 13.4 C 17.4 13.4 18.2 12.5 18.2 11 C 18.19 11.02 18.2 10.4 18.2 10.4 Z M 23.7 -1.4 L 26.1 -1.4 L 26.1 6 C 26.1 6 26.12 5.99 26.1 6 C 26.6 5.3 27.6 4.4 29.4 4.4 C 32.1 4.4 34 6.8 34 9.9 C 34 13 32.2 15.4 29.3 15.4 C 27.9 15.4 26.7 14.8 26 13.6 C 25.98 13.55 25.9 13.6 25.9 13.6 L 25.9 15.1 L 23.7 15.1 L 23.7 -1.4 Z M 28.8 6.7 C 27 6.7 26 8.3 26 9.9 C 26 11.5 27 13 28.8 13 C 30.6 13 31.6 11.5 31.6 9.9 C 31.6 8.3 30.6 6.7 28.8 6.7 Z M 41.6 4.4 C 44.5 4.4 46.8 6.6 46.8 9.9 C 46.8 13.2 44.5 15.4 41.6 15.4 C 38.7 15.4 36.4 13.2 36.4 9.9 C 36.4 6.6 38.7 4.4 41.6 4.4 Z M 41.6 13 C 43.4 13 44.4 11.5 44.4 9.9 C 44.4 8.3 43.4 6.7 41.6 6.7 C 39.8 6.7 38.8 8.3 38.8 9.9 C 38.8 11.5 39.8 13 41.6 13 Z M 49.6 4.7 L 52 4.7 L 52 6.3 C 52 6.3 52.09 6.31 52.1 6.3 C 52.6 5.1 53.7 4.4 54.9 4.4 C 55.2 4.4 55.5 4.5 55.8 4.5 C 55.8 4.5 55.8 7.1 55.8 7.1 C 55.4 7 55 6.9 54.6 6.9 C 52.4 6.9 52 9 52 9.5 C 52.05 9.52 52 15.1 52 15.1 L 49.6 15.1 L 49.6 4.7 Z M 64 13.7 C 64 13.7 63.96 13.68 64 13.7 C 63.3 14.9 62.2 15.4 60.9 15.4 C 59.1 15.4 57.4 14.3 57.4 12.2 C 57.4 8.8 61 8.6 63.4 8.6 C 63.42 8.6 64 8.6 64 8.6 C 64 8.6 64.02 8.32 64 8.3 C 64 7 63.1 6.4 61.8 6.4 C 60.8 6.4 59.9 6.8 59.3 7.4 C 59.3 7.4 58 6.1 58 6.1 C 59.1 4.9 60.6 4.4 62.1 4.4 C 66.2 4.4 66.2 7.6 66.2 9.1 C 66.18 9.1 66.2 15.1 66.2 15.1 L 64 15.1 L 64 13.7 Z M 63.9 10.4 C 63.9 10.4 63.38 10.43 63.4 10.4 C 62.1 10.4 59.8 10.5 59.8 12 C 59.8 13 60.7 13.4 61.5 13.4 C 63.1 13.4 63.9 12.5 63.9 11 C 63.88 11.02 63.9 10.4 63.9 10.4 Z M 68.2 6.9 L 68.2 4.7 L 70.2 4.7 L 70.2 1.6 L 72.6 1.6 L 72.6 4.7 L 75.3 4.7 L 75.3 6.9 L 72.6 6.9 C 72.6 6.9 72.61 11.46 72.6 11.5 C 72.6 12.5 72.9 13.2 74 13.2 C 74.4 13.2 75 13.1 75.3 12.8 C 75.3 12.8 75.3 15 75.3 15 C 74.8 15.3 73.9 15.4 73.4 15.4 C 70.8 15.4 70.2 14.1 70.2 11.7 C 70.21 11.68 70.2 6.9 70.2 6.9 L 68.2 6.9 Z M 82.5 4.4 C 85.4 4.4 87.7 6.6 87.7 9.9 C 87.7 13.2 85.4 15.4 82.5 15.4 C 79.6 15.4 77.2 13.2 77.2 9.9 C 77.2 6.6 79.6 4.4 82.5 4.4 Z M 82.5 13 C 84.2 13 85.3 11.5 85.3 9.9 C 85.3 8.3 84.2 6.7 82.5 6.7 C 80.7 6.7 79.6 8.3 79.6 9.9 C 79.6 11.5 80.7 13 82.5 13 Z M 90.5 4.7 L 92.9 4.7 L 92.9 6.3 C 92.9 6.3 92.95 6.31 93 6.3 C 93.5 5.1 94.5 4.4 95.8 4.4 C 96.1 4.4 96.4 4.5 96.7 4.5 C 96.7 4.5 96.7 7.1 96.7 7.1 C 96.3 7 95.9 6.9 95.5 6.9 C 93.2 6.9 92.9 9 92.9 9.5 C 92.91 9.52 92.9 15.1 92.9 15.1 L 90.5 15.1 L 90.5 4.7 Z M 97.6 4.7 L 100.2 4.7 L 102.9 11.9 L 102.9 11.9 L 105.3 4.7 L 107.8 4.7 C 107.8 4.7 103.31 17.37 103.3 17.4 C 102.6 19.3 101.8 20.4 99.6 20.4 C 99 20.4 98.4 20.3 97.8 20.1 C 97.8 20.1 98.1 17.7 98.1 17.7 C 98.5 17.9 98.9 18 99.3 18 C 100.5 18 100.8 17.5 101.2 16.4 C 101.23 16.45 101.7 15.2 101.7 15.2 L 97.6 4.7 Z M 114.6 4.4 C 117.5 4.4 119.8 6.6 119.8 9.9 C 119.8 13.2 117.5 15.4 114.6 15.4 C 111.7 15.4 109.4 13.2 109.4 9.9 C 109.4 6.6 111.7 4.4 114.6 4.4 Z M 114.6 13 C 116.4 13 117.4 11.5 117.4 9.9 C 117.4 8.3 116.4 6.7 114.6 6.7 C 112.8 6.7 111.8 8.3 111.8 9.9 C 111.8 11.5 112.8 13 114.6 13 Z M 131 -1.2 L 131 20.6 L 129 20.6 L 129 -1.2 L 131 -1.2 Z M 141 -0.3 L 144.8 -0.3 L 148.6 10.5 L 152.4 -0.3 L 156.2 -0.3 L 156.2 15.1 L 153.8 15.1 L 153.8 2.3 L 153.8 2.3 L 149.5 15.1 L 147.7 15.1 L 143.4 2.3 L 143.4 2.3 L 143.4 15.1 L 141 15.1 L 141 -0.3 Z M 168.6 15.1 L 166.3 15.1 L 166.3 13.4 C 166.3 13.4 166.26 13.44 166.3 13.4 C 165.8 14.5 164.9 15.4 163.3 15.4 C 160.7 15.4 159.8 13.4 159.8 11.3 C 159.82 11.26 159.8 4.7 159.8 4.7 L 162.2 4.7 C 162.2 4.7 162.22 9.95 162.2 10 C 162.2 11.1 162.3 13 164 13 C 165.6 13 166.2 11.8 166.2 10.4 C 166.18 10.37 166.2 4.7 166.2 4.7 L 168.6 4.7 L 168.6 15.1 Z M 171.9 -1.4 L 174.3 -1.4 L 174.3 15.1 L 171.9 15.1 L 171.9 -1.4 Z M 183.7 13.7 C 183.7 13.7 183.62 13.68 183.6 13.7 C 182.9 14.9 181.8 15.4 180.5 15.4 C 178.8 15.4 177 14.3 177 12.2 C 177 8.8 180.7 8.6 183.1 8.6 C 183.08 8.6 183.7 8.6 183.7 8.6 C 183.7 8.6 183.68 8.32 183.7 8.3 C 183.7 7 182.8 6.4 181.5 6.4 C 180.5 6.4 179.6 6.8 178.9 7.4 C 178.9 7.4 177.7 6.1 177.7 6.1 C 178.7 4.9 180.2 4.4 181.7 4.4 C 185.8 4.4 185.8 7.6 185.8 9.1 C 185.84 9.1 185.8 15.1 185.8 15.1 L 183.7 15.1 L 183.7 13.7 Z M 183.5 10.4 C 183.5 10.4 183.04 10.43 183 10.4 C 181.7 10.4 179.4 10.5 179.4 12 C 179.4 13 180.3 13.4 181.1 13.4 C 182.8 13.4 183.5 12.5 183.5 11 C 183.54 11.02 183.5 10.4 183.5 10.4 Z M 200.6 7.6 C 200.2 6.9 199.6 6.5 198.8 6.5 C 198.1 6.5 197.4 6.8 197.4 7.6 C 197.4 9.5 202.5 7.9 202.5 12 C 202.5 14.5 200.4 15.4 198.4 15.4 C 196.9 15.4 195.6 15 194.7 13.8 C 194.7 13.8 196.3 12.1 196.3 12.1 C 196.9 12.9 197.5 13.4 198.5 13.4 C 199.2 13.4 200.1 13 200.1 12.2 C 200.1 10.1 195 11.8 195 7.8 C 195 5.4 196.9 4.4 198.8 4.4 C 200.1 4.4 201.5 4.8 202.2 6 C 202.2 6 200.6 7.6 200.6 7.6 Z M 211 13.7 C 211 13.7 210.94 13.68 210.9 13.7 C 210.3 14.9 209.1 15.4 207.9 15.4 C 206.1 15.4 204.4 14.3 204.4 12.2 C 204.4 8.8 208 8.6 210.4 8.6 C 210.4 8.6 211 8.6 211 8.6 C 211 8.6 211 8.32 211 8.3 C 211 7 210.1 6.4 208.8 6.4 C 207.8 6.4 206.9 6.8 206.2 7.4 C 206.2 7.4 205 6.1 205 6.1 C 206 4.9 207.5 4.4 209.1 4.4 C 213.2 4.4 213.2 7.6 213.2 9.1 C 213.16 9.1 213.2 15.1 213.2 15.1 L 211 15.1 L 211 13.7 Z M 210.9 10.4 C 210.9 10.4 210.36 10.43 210.4 10.4 C 209 10.4 206.8 10.5 206.8 12 C 206.8 13 207.7 13.4 208.4 13.4 C 210.1 13.4 210.9 12.5 210.9 11 C 210.86 11.02 210.9 10.4 210.9 10.4 Z M 222.8 4.7 L 225.1 4.7 L 225.1 6.2 C 225.1 6.2 225.16 6.23 225.2 6.2 C 225.9 5 227.1 4.4 228.5 4.4 C 231.4 4.4 233.2 6.8 233.2 9.9 C 233.2 13 231.3 15.4 228.6 15.4 C 226.8 15.4 225.8 14.5 225.3 13.8 C 225.3 13.79 225.2 13.8 225.2 13.8 L 225.2 20.1 L 222.8 20.1 L 222.8 4.7 Z M 228 6.7 C 226.2 6.7 225.2 8.3 225.2 9.9 C 225.2 11.5 226.2 13 228 13 C 229.7 13 230.8 11.5 230.8 9.9 C 230.8 8.3 229.7 6.7 228 6.7 Z M 237.6 11.9 C 238.5 11.9 239.2 12.6 239.2 13.6 C 239.2 14.5 238.5 15.3 237.6 15.3 C 236.8 15.3 236 14.5 236 13.6 C 236 12.7 236.8 11.9 237.6 11.9 Z M 246.5 2.7 L 243.9 5.4 L 242.5 3.6 L 246.8 -0.3 L 248.9 -0.3 L 248.9 15.1 L 246.5 15.1 L 246.5 2.7 Z " stroke="none" fill="#fff"/>
  </g>
</svg>