<?xml version="1.0" standalone="no"?>
<!DOCTYPE svg PUBLIC "-//W3C//DTD SVG 1.1//EN" "http://www.w3.org/Graphics/SVG/1.1/DTD/svg11.dtd">
<svg xmlns="http://www.w3.org/2000/svg" version="1.1" width="310px" height="31.8px" viewBox="0 -7 310 31.8" style="top:-7px">
  <desc>Start Here, Start Now :</desc>
  <defs/>
  <g id="Polygon13496">
    <path d="M 7.2 6 L 4.7 6 L 4.7 3 L 6.1 0.4 L 7.2 0.4 L 6.1 3 L 7.2 3 L 7.2 6 Z M 3.8 6 L 1.3 6 L 1.3 3 L 2.7 0.4 L 3.8 0.4 L 2.7 3 L 3.8 3 L 3.8 6 Z M 13.6 0.5 C 15.9 0.5 17.4 1.5 17.9 3.6 C 17.9 3.6 15.5 4.5 15.5 4.5 C 15.2 3.4 14.5 2.9 13.6 2.9 C 13.2 2.9 12.8 3 12.6 3.2 C 12.3 3.5 12.2 3.7 12.2 4.1 C 12.2 4.4 12.4 4.8 12.7 5 C 13 5.2 13.6 5.5 14.5 5.9 C 15.4 6.2 16.1 6.5 16.5 6.8 C 17 7.1 17.4 7.5 17.7 8.1 C 18 8.6 18.2 9.2 18.2 10 C 18.2 11.2 17.8 12.2 16.9 13 C 16.1 13.8 14.9 14.2 13.5 14.2 C 11.1 14.2 9.5 13 8.8 10.5 C 8.8 10.5 11.4 9.8 11.4 9.8 C 11.7 11.2 12.4 11.8 13.5 11.8 C 14 11.8 14.5 11.7 14.8 11.4 C 15.1 11.2 15.2 10.8 15.2 10.4 C 15.2 10.1 15.1 9.8 14.9 9.5 C 14.7 9.3 14.2 9 13.4 8.7 C 12.4 8.3 11.6 8 11.1 7.7 C 10.6 7.4 10.2 7 9.9 6.4 C 9.5 5.9 9.4 5.3 9.4 4.6 C 9.4 3.4 9.8 2.4 10.5 1.6 C 11.3 0.9 12.3 0.5 13.6 0.5 C 13.6 0.5 13.6 0.5 13.6 0.5 Z M 18.9 0.7 L 27.3 0.7 L 27.3 3.2 L 24.5 3.2 L 24.5 14 L 21.6 14 L 21.6 3.2 L 18.9 3.2 L 18.9 0.7 Z M 30.4 0.7 L 33.3 0.7 L 37.1 14 L 34.1 14 L 33.5 11.3 L 29.7 11.3 L 29 14 L 26.4 14 L 30.4 0.7 Z M 32.9 9 L 31.6 3.5 L 30.3 9 L 32.9 9 Z M 38.2 0.7 C 38.2 0.7 42.42 0.67 42.4 0.7 C 43.2 0.7 43.9 0.7 44.3 0.8 C 44.7 0.9 45.2 1.1 45.6 1.4 C 46 1.7 46.4 2.2 46.6 2.7 C 46.9 3.3 47 3.9 47 4.7 C 47 6.3 46.4 7.5 45.1 8.2 C 45.15 8.17 47.6 14 47.6 14 L 44.4 14 L 42.6 8.7 L 41.2 8.7 L 41.2 14 L 38.2 14 L 38.2 0.7 Z M 41.2 2.8 L 41.2 6.6 C 41.2 6.6 42.45 6.57 42.5 6.6 C 43.6 6.6 44.2 5.9 44.2 4.6 C 44.2 4.2 44.1 3.8 43.9 3.6 C 43.7 3.3 43.5 3.1 43.3 3 C 43.1 2.9 42.8 2.8 42.3 2.8 C 42.33 2.83 41.2 2.8 41.2 2.8 Z M 48 0.7 L 56.3 0.7 L 56.3 3.2 L 53.6 3.2 L 53.6 14 L 50.7 14 L 50.7 3.2 L 48 3.2 L 48 0.7 Z M 66.7 0.7 L 69.6 0.7 L 69.6 6.1 L 72.8 6.1 L 72.8 0.7 L 75.7 0.7 L 75.7 14 L 72.8 14 L 72.8 8.6 L 69.6 8.6 L 69.6 14 L 66.7 14 L 66.7 0.7 Z M 78.3 0.7 L 86.4 0.7 L 86.4 3 L 81.2 3 L 81.2 6.1 L 85.2 6.1 L 85.2 8.3 L 81.2 8.3 L 81.2 11.6 L 86.4 11.6 L 86.4 14 L 78.3 14 L 78.3 0.7 Z M 87.8 0.7 C 87.8 0.7 91.98 0.67 92 0.7 C 92.8 0.7 93.4 0.7 93.9 0.8 C 94.3 0.9 94.7 1.1 95.2 1.4 C 95.6 1.7 96 2.2 96.2 2.7 C 96.5 3.3 96.6 3.9 96.6 4.7 C 96.6 6.3 96 7.5 94.7 8.2 C 94.71 8.17 97.2 14 97.2 14 L 94 14 L 92.2 8.7 L 90.7 8.7 L 90.7 14 L 87.8 14 L 87.8 0.7 Z M 90.7 2.8 L 90.7 6.6 C 90.7 6.6 92.01 6.57 92 6.6 C 93.2 6.6 93.7 5.9 93.7 4.6 C 93.7 4.2 93.6 3.8 93.5 3.6 C 93.3 3.3 93.1 3.1 92.9 3 C 92.7 2.9 92.3 2.8 91.9 2.8 C 91.89 2.83 90.7 2.8 90.7 2.8 Z M 98.7 0.7 L 106.8 0.7 L 106.8 3 L 101.6 3 L 101.6 6.1 L 105.6 6.1 L 105.6 8.3 L 101.6 8.3 L 101.6 11.6 L 106.8 11.6 L 106.8 14 L 98.7 14 L 98.7 0.7 Z M 108.2 11.1 L 110.9 11.1 L 110.9 13.7 L 109.2 17.2 L 108.2 17.2 L 109.4 14 L 108.2 14 L 108.2 11.1 Z M 126.5 0.5 C 128.8 0.5 130.2 1.5 130.8 3.6 C 130.8 3.6 128.4 4.5 128.4 4.5 C 128.1 3.4 127.4 2.9 126.5 2.9 C 126.1 2.9 125.7 3 125.5 3.2 C 125.2 3.5 125.1 3.7 125.1 4.1 C 125.1 4.4 125.3 4.8 125.6 5 C 125.8 5.2 126.5 5.5 127.4 5.9 C 128.3 6.2 128.9 6.5 129.4 6.8 C 129.9 7.1 130.3 7.5 130.6 8.1 C 130.9 8.6 131.1 9.2 131.1 10 C 131.1 11.2 130.7 12.2 129.8 13 C 128.9 13.8 127.8 14.2 126.4 14.2 C 123.9 14.2 122.4 13 121.7 10.5 C 121.7 10.5 124.3 9.8 124.3 9.8 C 124.6 11.2 125.3 11.8 126.4 11.8 C 126.9 11.8 127.3 11.7 127.7 11.4 C 128 11.2 128.1 10.8 128.1 10.4 C 128.1 10.1 128 9.8 127.8 9.5 C 127.6 9.3 127.1 9 126.3 8.7 C 125.3 8.3 124.5 8 124 7.7 C 123.5 7.4 123.1 7 122.8 6.4 C 122.4 5.9 122.3 5.3 122.3 4.6 C 122.3 3.4 122.7 2.4 123.4 1.6 C 124.2 0.9 125.2 0.5 126.5 0.5 C 126.5 0.5 126.5 0.5 126.5 0.5 Z M 131.8 0.7 L 140.1 0.7 L 140.1 3.2 L 137.4 3.2 L 137.4 14 L 134.5 14 L 134.5 3.2 L 131.8 3.2 L 131.8 0.7 Z M 143.3 0.7 L 146.2 0.7 L 150 14 L 147 14 L 146.3 11.3 L 142.6 11.3 L 141.9 14 L 139.2 14 L 143.3 0.7 Z M 145.8 9 L 144.5 3.5 L 143.2 9 L 145.8 9 Z M 151.1 0.7 C 151.1 0.7 155.31 0.67 155.3 0.7 C 156.1 0.7 156.7 0.7 157.2 0.8 C 157.6 0.9 158.1 1.1 158.5 1.4 C 158.9 1.7 159.3 2.2 159.5 2.7 C 159.8 3.3 159.9 3.9 159.9 4.7 C 159.9 6.3 159.3 7.5 158 8.2 C 158.04 8.17 160.5 14 160.5 14 L 157.3 14 L 155.5 8.7 L 154.1 8.7 L 154.1 14 L 151.1 14 L 151.1 0.7 Z M 154.1 2.8 L 154.1 6.6 C 154.1 6.6 155.34 6.57 155.3 6.6 C 156.5 6.6 157.1 5.9 157.1 4.6 C 157.1 4.2 157 3.8 156.8 3.6 C 156.6 3.3 156.4 3.1 156.2 3 C 156 2.9 155.7 2.8 155.2 2.8 C 155.22 2.83 154.1 2.8 154.1 2.8 Z M 160.9 0.7 L 169.2 0.7 L 169.2 3.2 L 166.5 3.2 L 166.5 14 L 163.6 14 L 163.6 3.2 L 160.9 3.2 L 160.9 0.7 Z M 179.5 0.7 L 182.7 0.7 L 186.1 9 L 186.1 0.7 L 188.4 0.7 L 188.4 14 L 185.8 14 L 181.7 4.4 L 181.7 14 L 179.5 14 L 179.5 0.7 Z M 200 7.3 C 200 11.9 198.4 14.2 195.2 14.2 C 193.6 14.2 192.4 13.6 191.5 12.5 C 190.7 11.3 190.3 9.6 190.3 7.3 C 190.3 2.8 191.9 0.5 195.2 0.5 C 196.7 0.5 197.9 1 198.8 2.2 C 199.6 3.3 200 5 200 7.3 Z M 196.9 7.3 C 196.9 5.5 196.8 4.3 196.5 3.7 C 196.2 3.1 195.8 2.9 195.2 2.9 C 194.6 2.9 194.1 3.2 193.8 3.8 C 193.5 4.3 193.4 5.5 193.4 7.3 C 193.4 9.1 193.5 10.3 193.8 10.9 C 194.1 11.5 194.5 11.8 195.2 11.8 C 195.8 11.8 196.2 11.5 196.5 10.9 C 196.8 10.3 196.9 9.1 196.9 7.3 Z M 200.6 0.7 L 203.6 0.7 L 205 9.9 L 206.8 0.7 L 209.4 0.7 L 211.1 9.9 L 212.7 0.7 L 215.2 0.7 L 212.3 14.1 L 209.7 14.1 L 207.9 4.8 L 206.1 14.1 L 203.5 14.1 L 200.6 0.7 Z M 216.3 0.7 L 218.8 0.7 L 218.8 3.6 L 217.4 6.2 L 216.3 6.2 L 217.4 3.6 L 216.3 3.6 L 216.3 0.7 Z M 219.7 0.7 L 222.2 0.7 L 222.2 3.6 L 220.8 6.2 L 219.7 6.2 L 220.8 3.6 L 219.7 3.6 L 219.7 0.7 Z M 224.7 4.1 L 227.5 4.1 L 227.5 7.1 L 224.7 7.1 L 224.7 4.1 Z M 224.7 11.1 L 227.5 11.1 L 227.5 14 L 224.7 14 L 224.7 11.1 Z " stroke="none" fill="#000"/>
  </g>
</svg>