<?xml version="1.0" standalone="no"?>
<!DOCTYPE svg PUBLIC "-//W3C//DTD SVG 1.1//EN" "http://www.w3.org/Graphics/SVG/1.1/DTD/svg11.dtd">
<svg xmlns="http://www.w3.org/2000/svg" version="1.1" width="79.4px" height="14.9px" viewBox="0 -1 79.4 14.9" style="top:-1px">
  <desc>Mikaella Severa</desc>
  <defs/>
  <g id="Polygon31992">
    <path d="M 17.2 2.2 L 15.8 8.6 L 16.7 8.6 L 17.8 3 L 17.8 3 L 18.6 8.6 L 19.5 8.6 L 22.7 3 L 22.7 3 L 21.4 8.6 L 22.3 8.6 L 23.6 2.2 L 22.4 2.2 L 19.2 7.7 L 19.2 7.7 L 18.4 2.2 L 17.2 2.2 Z M 25.6 3.1 L 25.8 2.2 L 25 2.2 L 24.8 3.1 L 25.6 3.1 Z M 24.6 4 L 23.7 8.6 L 24.4 8.6 L 25.4 4 L 24.6 4 Z M 27.1 2.2 L 25.7 8.6 L 26.5 8.6 L 26.9 7 L 27.8 6.1 L 28.7 8.6 L 29.5 8.6 L 28.4 5.7 L 30.4 4 L 29.4 4 L 27.1 6 L 27.1 6 L 27.9 2.2 L 27.1 2.2 Z M 30.7 5.4 C 30.7 5.4 31.4 5.4 31.4 5.4 C 31.5 5.2 31.5 5.1 31.6 5 C 31.7 4.9 31.8 4.8 31.9 4.7 C 32 4.7 32.1 4.6 32.3 4.6 C 32.4 4.5 32.6 4.5 32.7 4.5 C 32.8 4.5 32.9 4.5 33 4.6 C 33.1 4.6 33.2 4.6 33.3 4.6 C 33.4 4.7 33.5 4.8 33.5 4.8 C 33.6 4.9 33.6 5 33.6 5.1 C 33.6 5.3 33.6 5.4 33.6 5.5 C 33.5 5.6 33.4 5.7 33.4 5.7 C 33.3 5.8 33.1 5.8 33 5.8 C 32.8 5.8 32.7 5.9 32.5 5.9 C 32.2 5.9 31.9 5.9 31.7 6 C 31.4 6 31.1 6.1 30.9 6.2 C 30.7 6.3 30.5 6.4 30.3 6.6 C 30.2 6.8 30.1 7.1 30.1 7.4 C 30.1 7.6 30.2 7.8 30.2 8 C 30.3 8.2 30.4 8.3 30.5 8.4 C 30.7 8.5 30.8 8.6 31 8.6 C 31.2 8.7 31.3 8.7 31.5 8.7 C 31.9 8.7 32.2 8.7 32.5 8.5 C 32.7 8.4 32.9 8.3 33.1 8 C 33.1 8 33.1 8.1 33.1 8.1 C 33.1 8.3 33.1 8.4 33.2 8.5 C 33.3 8.7 33.5 8.7 33.7 8.7 C 33.8 8.7 33.9 8.7 33.9 8.7 C 34 8.7 34.1 8.6 34.2 8.6 C 34.2 8.6 34.3 8 34.3 8 C 34.3 8.1 34.2 8.1 34.2 8.1 C 34.1 8.1 34.1 8.1 34.1 8.1 C 34 8.1 33.9 8.1 33.9 8 C 33.8 8 33.8 7.9 33.8 7.8 C 33.8 7.7 33.8 7.6 33.9 7.5 C 33.9 7.4 33.9 7.3 34 7.2 C 34 7.2 34.3 5.9 34.3 5.9 C 34.3 5.8 34.3 5.6 34.3 5.5 C 34.4 5.3 34.4 5.2 34.4 5 C 34.4 4.8 34.3 4.6 34.3 4.5 C 34.2 4.3 34 4.2 33.9 4.1 C 33.7 4 33.5 3.9 33.3 3.9 C 33.1 3.9 32.9 3.9 32.7 3.9 C 32.4 3.9 32.2 3.9 32 3.9 C 31.8 4 31.6 4.1 31.4 4.2 C 31.2 4.3 31 4.5 30.9 4.7 C 30.8 4.9 30.7 5.1 30.7 5.4 Z M 30.9 7.4 C 30.9 7.2 30.9 7 31 6.9 C 31.1 6.8 31.2 6.7 31.4 6.7 C 31.5 6.6 31.7 6.6 31.9 6.5 C 32.1 6.5 32.3 6.5 32.5 6.5 C 32.7 6.5 32.8 6.4 33 6.4 C 33.2 6.4 33.3 6.3 33.4 6.2 C 33.4 6.2 33.4 6.2 33.4 6.2 C 33.4 6.5 33.3 6.7 33.3 6.9 C 33.2 7.1 33.1 7.3 33 7.4 C 32.8 7.8 32.3 8 31.7 8 C 31.5 8 31.3 8 31.1 7.9 C 31 7.8 30.9 7.6 30.9 7.4 Z M 35.8 6.9 C 35.8 6.8 35.8 6.6 35.8 6.5 C 35.8 6.5 39.3 6.5 39.3 6.5 C 39.4 6.4 39.4 6.4 39.4 6.3 C 39.4 6.1 39.4 6 39.4 5.9 C 39.4 5.3 39.3 4.8 38.9 4.4 C 38.6 4 38.1 3.9 37.4 3.9 C 37.1 3.9 36.8 3.9 36.5 4.1 C 36.2 4.2 36 4.4 35.8 4.7 C 35.5 4.9 35.4 5.3 35.2 5.6 C 35.1 6 35.1 6.4 35.1 6.8 C 35.1 7.1 35.1 7.3 35.1 7.5 C 35.2 7.7 35.3 7.9 35.5 8.1 C 35.6 8.3 35.8 8.4 36.1 8.5 C 36.3 8.7 36.6 8.7 37 8.7 C 37.3 8.7 37.5 8.7 37.7 8.6 C 38 8.5 38.2 8.4 38.4 8.3 C 38.6 8.2 38.7 8 38.8 7.8 C 39 7.6 39.1 7.4 39.1 7.2 C 39.1 7.2 38.4 7.2 38.4 7.2 C 38.3 7.4 38.1 7.7 37.9 7.8 C 37.6 8 37.4 8 37 8 C 36.9 8 36.7 8 36.6 8 C 36.4 7.9 36.3 7.8 36.2 7.8 C 36.1 7.7 36 7.5 35.9 7.4 C 35.9 7.3 35.8 7.1 35.8 6.9 C 35.8 6.9 35.8 6.9 35.8 6.9 Z M 38.7 5.8 C 38.7 5.8 36 5.8 36 5.8 C 36 5.7 36.1 5.5 36.2 5.3 C 36.3 5.2 36.4 5 36.5 4.9 C 36.6 4.8 36.8 4.7 37 4.6 C 37.1 4.6 37.3 4.5 37.6 4.5 C 37.8 4.5 38 4.6 38.1 4.6 C 38.2 4.7 38.4 4.8 38.4 4.9 C 38.5 5.1 38.6 5.2 38.6 5.4 C 38.7 5.5 38.7 5.7 38.7 5.8 Z M 41.2 2.2 L 39.8 8.6 L 40.6 8.6 L 42 2.2 L 41.2 2.2 Z M 43.3 2.2 L 41.9 8.6 L 42.7 8.6 L 44 2.2 L 43.3 2.2 Z M 44.5 5.4 C 44.5 5.4 45.3 5.4 45.3 5.4 C 45.3 5.2 45.4 5.1 45.5 5 C 45.5 4.9 45.6 4.8 45.7 4.7 C 45.9 4.7 46 4.6 46.1 4.6 C 46.3 4.5 46.4 4.5 46.6 4.5 C 46.7 4.5 46.8 4.5 46.9 4.6 C 47 4.6 47.1 4.6 47.2 4.6 C 47.3 4.7 47.3 4.8 47.4 4.8 C 47.5 4.9 47.5 5 47.5 5.1 C 47.5 5.3 47.5 5.4 47.4 5.5 C 47.4 5.6 47.3 5.7 47.2 5.7 C 47.1 5.8 47 5.8 46.8 5.8 C 46.7 5.8 46.5 5.9 46.3 5.9 C 46.1 5.9 45.8 5.9 45.5 6 C 45.2 6 45 6.1 44.8 6.2 C 44.5 6.3 44.3 6.4 44.2 6.6 C 44.1 6.8 44 7.1 44 7.4 C 44 7.6 44 7.8 44.1 8 C 44.2 8.2 44.3 8.3 44.4 8.4 C 44.5 8.5 44.7 8.6 44.8 8.6 C 45 8.7 45.2 8.7 45.4 8.7 C 45.8 8.7 46.1 8.7 46.3 8.5 C 46.6 8.4 46.8 8.3 47 8 C 47 8 47 8.1 47 8.1 C 46.9 8.3 47 8.4 47.1 8.5 C 47.2 8.7 47.4 8.7 47.6 8.7 C 47.6 8.7 47.7 8.7 47.8 8.7 C 47.9 8.7 48 8.6 48 8.6 C 48 8.6 48.2 8 48.2 8 C 48.1 8.1 48.1 8.1 48 8.1 C 48 8.1 47.9 8.1 47.9 8.1 C 47.8 8.1 47.8 8.1 47.8 8 C 47.7 8 47.7 7.9 47.7 7.8 C 47.7 7.7 47.7 7.6 47.7 7.5 C 47.8 7.4 47.8 7.3 47.8 7.2 C 47.8 7.2 48.1 5.9 48.1 5.9 C 48.1 5.8 48.2 5.6 48.2 5.5 C 48.2 5.3 48.3 5.2 48.3 5 C 48.3 4.8 48.2 4.6 48.1 4.5 C 48 4.3 47.9 4.2 47.7 4.1 C 47.6 4 47.4 3.9 47.2 3.9 C 47 3.9 46.8 3.9 46.6 3.9 C 46.3 3.9 46.1 3.9 45.8 3.9 C 45.6 4 45.4 4.1 45.2 4.2 C 45.1 4.3 44.9 4.5 44.8 4.7 C 44.7 4.9 44.6 5.1 44.5 5.4 Z M 44.7 7.4 C 44.7 7.2 44.8 7 44.9 6.9 C 45 6.8 45.1 6.7 45.3 6.7 C 45.4 6.6 45.6 6.6 45.8 6.5 C 46 6.5 46.1 6.5 46.3 6.5 C 46.5 6.5 46.7 6.4 46.9 6.4 C 47 6.4 47.2 6.3 47.3 6.2 C 47.3 6.2 47.3 6.2 47.3 6.2 C 47.2 6.5 47.2 6.7 47.1 6.9 C 47.1 7.1 47 7.3 46.9 7.4 C 46.6 7.8 46.2 8 45.6 8 C 45.4 8 45.2 8 45 7.9 C 44.8 7.8 44.7 7.6 44.7 7.4 Z M 56.1 4.1 C 56.1 4.1 56.9 4.1 56.9 4.1 C 57 3.7 56.9 3.4 56.8 3.2 C 56.7 2.9 56.5 2.7 56.3 2.5 C 56 2.4 55.8 2.2 55.5 2.2 C 55.2 2.1 54.9 2 54.6 2 C 54.3 2 54 2.1 53.8 2.2 C 53.5 2.2 53.2 2.3 53 2.5 C 52.8 2.7 52.6 2.9 52.5 3.1 C 52.3 3.3 52.3 3.6 52.3 3.9 C 52.3 4.1 52.3 4.3 52.4 4.5 C 52.5 4.7 52.6 4.9 52.7 5 C 52.8 5.1 53 5.2 53.2 5.3 C 53.3 5.4 53.5 5.5 53.7 5.5 C 53.7 5.5 54.6 5.8 54.6 5.8 C 54.7 5.8 54.9 5.8 55 5.9 C 55.2 5.9 55.3 6 55.4 6.1 C 55.5 6.2 55.6 6.3 55.6 6.4 C 55.7 6.5 55.7 6.7 55.7 6.8 C 55.7 7 55.7 7.2 55.6 7.4 C 55.5 7.5 55.4 7.7 55.2 7.8 C 55.1 7.9 54.9 7.9 54.7 8 C 54.5 8 54.3 8 54.1 8 C 53.9 8 53.6 8 53.4 8 C 53.2 7.9 53 7.8 52.8 7.7 C 52.7 7.6 52.6 7.4 52.5 7.2 C 52.4 7 52.4 6.8 52.4 6.5 C 52.4 6.5 51.5 6.5 51.5 6.5 C 51.5 6.9 51.6 7.2 51.7 7.5 C 51.8 7.8 52 8 52.2 8.2 C 52.4 8.4 52.7 8.5 53 8.6 C 53.3 8.7 53.7 8.8 54.1 8.8 C 54.4 8.8 54.7 8.7 55 8.6 C 55.3 8.6 55.5 8.4 55.8 8.3 C 56 8.1 56.2 7.9 56.4 7.7 C 56.5 7.4 56.6 7.1 56.6 6.8 C 56.6 6.5 56.5 6.3 56.4 6.1 C 56.4 5.9 56.2 5.7 56.1 5.6 C 56 5.5 55.8 5.4 55.6 5.3 C 55.4 5.2 55.2 5.1 55 5.1 C 55 5.1 54.2 4.8 54.2 4.8 C 54 4.8 53.9 4.8 53.8 4.7 C 53.6 4.6 53.5 4.6 53.4 4.5 C 53.3 4.4 53.3 4.3 53.2 4.2 C 53.2 4.1 53.1 4 53.1 3.8 C 53.1 3.6 53.2 3.5 53.3 3.3 C 53.4 3.2 53.5 3.1 53.6 3 C 53.8 2.9 53.9 2.9 54.1 2.8 C 54.3 2.8 54.5 2.8 54.6 2.8 C 54.8 2.8 55 2.8 55.2 2.8 C 55.4 2.9 55.6 2.9 55.7 3 C 55.8 3.1 55.9 3.3 56 3.5 C 56.1 3.6 56.1 3.8 56.1 4.1 Z M 58.2 6.9 C 58.2 6.8 58.2 6.6 58.2 6.5 C 58.2 6.5 61.7 6.5 61.7 6.5 C 61.7 6.4 61.7 6.4 61.8 6.3 C 61.8 6.1 61.8 6 61.8 5.9 C 61.8 5.3 61.6 4.8 61.3 4.4 C 61 4 60.5 3.9 59.8 3.9 C 59.5 3.9 59.2 3.9 58.9 4.1 C 58.6 4.2 58.4 4.4 58.1 4.7 C 57.9 4.9 57.7 5.3 57.6 5.6 C 57.5 6 57.4 6.4 57.4 6.8 C 57.4 7.1 57.5 7.3 57.5 7.5 C 57.6 7.7 57.7 7.9 57.8 8.1 C 58 8.3 58.2 8.4 58.4 8.5 C 58.7 8.7 59 8.7 59.4 8.7 C 59.6 8.7 59.9 8.7 60.1 8.6 C 60.3 8.5 60.6 8.4 60.7 8.3 C 60.9 8.2 61.1 8 61.2 7.8 C 61.3 7.6 61.4 7.4 61.5 7.2 C 61.5 7.2 60.7 7.2 60.7 7.2 C 60.6 7.4 60.5 7.7 60.2 7.8 C 60 8 59.7 8 59.4 8 C 59.2 8 59.1 8 58.9 8 C 58.8 7.9 58.7 7.8 58.6 7.8 C 58.4 7.7 58.4 7.5 58.3 7.4 C 58.2 7.3 58.2 7.1 58.2 6.9 C 58.2 6.9 58.2 6.9 58.2 6.9 Z M 61 5.8 C 61 5.8 58.3 5.8 58.3 5.8 C 58.4 5.7 58.5 5.5 58.5 5.3 C 58.6 5.2 58.7 5 58.9 4.9 C 59 4.8 59.2 4.7 59.3 4.6 C 59.5 4.6 59.7 4.5 59.9 4.5 C 60.1 4.5 60.3 4.6 60.5 4.6 C 60.6 4.7 60.7 4.8 60.8 4.9 C 60.9 5.1 61 5.2 61 5.4 C 61 5.5 61 5.7 61 5.8 Z M 64.1 8.6 L 66.7 4 L 65.9 4 L 63.9 7.8 L 63.8 7.8 L 63.4 4 L 62.6 4 L 63.3 8.6 L 64.1 8.6 Z M 67.5 6.9 C 67.5 6.8 67.5 6.6 67.6 6.5 C 67.6 6.5 71.1 6.5 71.1 6.5 C 71.1 6.4 71.1 6.4 71.1 6.3 C 71.1 6.1 71.1 6 71.1 5.9 C 71.1 5.3 71 4.8 70.7 4.4 C 70.3 4 69.8 3.9 69.2 3.9 C 68.8 3.9 68.5 3.9 68.2 4.1 C 68 4.2 67.7 4.4 67.5 4.7 C 67.3 4.9 67.1 5.3 67 5.6 C 66.8 6 66.8 6.4 66.8 6.8 C 66.8 7.1 66.8 7.3 66.9 7.5 C 66.9 7.7 67 7.9 67.2 8.1 C 67.3 8.3 67.5 8.4 67.8 8.5 C 68 8.7 68.4 8.7 68.7 8.7 C 69 8.7 69.2 8.7 69.5 8.6 C 69.7 8.5 69.9 8.4 70.1 8.3 C 70.3 8.2 70.4 8 70.6 7.8 C 70.7 7.6 70.8 7.4 70.8 7.2 C 70.8 7.2 70.1 7.2 70.1 7.2 C 70 7.4 69.8 7.7 69.6 7.8 C 69.4 8 69.1 8 68.7 8 C 68.6 8 68.4 8 68.3 8 C 68.1 7.9 68 7.8 67.9 7.8 C 67.8 7.7 67.7 7.5 67.6 7.4 C 67.6 7.3 67.5 7.1 67.5 6.9 C 67.5 6.9 67.5 6.9 67.5 6.9 Z M 70.4 5.8 C 70.4 5.8 67.7 5.8 67.7 5.8 C 67.7 5.7 67.8 5.5 67.9 5.3 C 68 5.2 68.1 5 68.2 4.9 C 68.3 4.8 68.5 4.7 68.7 4.6 C 68.9 4.6 69.1 4.5 69.3 4.5 C 69.5 4.5 69.7 4.6 69.8 4.6 C 70 4.7 70.1 4.8 70.2 4.9 C 70.2 5.1 70.3 5.2 70.3 5.4 C 70.4 5.5 70.4 5.7 70.4 5.8 Z M 72.5 4 L 71.6 8.6 L 72.3 8.6 C 72.3 8.6 72.76 6.55 72.8 6.6 C 72.8 6.4 72.8 6.2 72.9 6 C 73 5.8 73 5.6 73.1 5.5 C 73.3 5.3 73.4 5.1 73.6 5 C 73.7 4.9 73.9 4.8 74.1 4.7 C 74.2 4.7 74.3 4.7 74.4 4.7 C 74.4 4.7 74.5 4.7 74.6 4.7 C 74.6 4.7 74.7 4.7 74.7 4.7 C 74.8 4.7 74.8 4.7 74.8 4.7 C 74.8 4.7 75 3.9 75 3.9 C 75 3.8 74.9 3.8 74.9 3.8 C 74.8 3.8 74.8 3.9 74.7 3.9 C 74.3 3.9 74 4 73.7 4.2 C 73.5 4.4 73.2 4.6 73 5 C 73.04 4.96 73 5 73 5 L 73.2 4 L 72.5 4 Z M 75.2 5.4 C 75.2 5.4 75.9 5.4 75.9 5.4 C 76 5.2 76 5.1 76.1 5 C 76.2 4.9 76.3 4.8 76.4 4.7 C 76.5 4.7 76.6 4.6 76.8 4.6 C 76.9 4.5 77 4.5 77.2 4.5 C 77.3 4.5 77.4 4.5 77.5 4.6 C 77.6 4.6 77.7 4.6 77.8 4.6 C 77.9 4.7 78 4.8 78 4.8 C 78.1 4.9 78.1 5 78.1 5.1 C 78.1 5.3 78.1 5.4 78 5.5 C 78 5.6 77.9 5.7 77.8 5.7 C 77.7 5.8 77.6 5.8 77.5 5.8 C 77.3 5.8 77.2 5.9 76.9 5.9 C 76.7 5.9 76.4 5.9 76.1 6 C 75.9 6 75.6 6.1 75.4 6.2 C 75.2 6.3 75 6.4 74.8 6.6 C 74.7 6.8 74.6 7.1 74.6 7.4 C 74.6 7.6 74.6 7.8 74.7 8 C 74.8 8.2 74.9 8.3 75 8.4 C 75.1 8.5 75.3 8.6 75.5 8.6 C 75.6 8.7 75.8 8.7 76 8.7 C 76.4 8.7 76.7 8.7 77 8.5 C 77.2 8.4 77.4 8.3 77.6 8 C 77.6 8 77.6 8.1 77.6 8.1 C 77.6 8.3 77.6 8.4 77.7 8.5 C 77.8 8.7 78 8.7 78.2 8.7 C 78.3 8.7 78.3 8.7 78.4 8.7 C 78.5 8.7 78.6 8.6 78.7 8.6 C 78.7 8.6 78.8 8 78.8 8 C 78.7 8.1 78.7 8.1 78.7 8.1 C 78.6 8.1 78.6 8.1 78.5 8.1 C 78.5 8.1 78.4 8.1 78.4 8 C 78.3 8 78.3 7.9 78.3 7.8 C 78.3 7.7 78.3 7.6 78.4 7.5 C 78.4 7.4 78.4 7.3 78.4 7.2 C 78.4 7.2 78.7 5.9 78.7 5.9 C 78.8 5.8 78.8 5.6 78.8 5.5 C 78.9 5.3 78.9 5.2 78.9 5 C 78.9 4.8 78.8 4.6 78.7 4.5 C 78.6 4.3 78.5 4.2 78.4 4.1 C 78.2 4 78 3.9 77.8 3.9 C 77.6 3.9 77.4 3.9 77.2 3.9 C 76.9 3.9 76.7 3.9 76.5 3.9 C 76.2 4 76 4.1 75.9 4.2 C 75.7 4.3 75.5 4.5 75.4 4.7 C 75.3 4.9 75.2 5.1 75.2 5.4 Z M 75.4 7.4 C 75.4 7.2 75.4 7 75.5 6.9 C 75.6 6.8 75.7 6.7 75.9 6.7 C 76 6.6 76.2 6.6 76.4 6.5 C 76.6 6.5 76.8 6.5 77 6.5 C 77.1 6.5 77.3 6.4 77.5 6.4 C 77.6 6.4 77.8 6.3 77.9 6.2 C 77.9 6.2 77.9 6.2 77.9 6.2 C 77.9 6.5 77.8 6.7 77.8 6.9 C 77.7 7.1 77.6 7.3 77.5 7.4 C 77.2 7.8 76.8 8 76.2 8 C 76 8 75.8 8 75.6 7.9 C 75.4 7.8 75.4 7.6 75.4 7.4 Z " stroke="none" fill="#000"/>
  </g>
</svg>