<?xml version="1.0" standalone="no"?>
<!DOCTYPE svg PUBLIC "-//W3C//DTD SVG 1.1//EN" "http://www.w3.org/Graphics/SVG/1.1/DTD/svg11.dtd">
<svg xmlns="http://www.w3.org/2000/svg" version="1.1" width="279.5px" height="33.9px" viewBox="0 -6 279.5 33.9" style="top:-6px">
  <desc>K-POP FAN Mula sa p 13</desc>
  <defs/>
  <g id="Polygon31256">
    <path d="M 1.6 -0.3 L 4.1 -0.3 L 4.1 6.2 L 4.2 6.2 L 10.1 -0.3 L 13.5 -0.3 L 6.9 6.8 L 13.9 15.1 L 10.4 15.1 L 4.2 7.5 L 4.1 7.5 L 4.1 15.1 L 1.6 15.1 L 1.6 -0.3 Z M 19.9 10.9 L 15 10.9 L 15 8.6 L 19.9 8.6 L 19.9 10.9 Z M 22.8 -0.3 C 22.8 -0.3 27.52 -0.31 27.5 -0.3 C 30.3 -0.3 32.7 0.7 32.7 4.2 C 32.7 8 30.1 8.7 27.1 8.7 C 27.08 8.73 25.3 8.7 25.3 8.7 L 25.3 15.1 L 22.8 15.1 L 22.8 -0.3 Z M 26.8 6.4 C 28.2 6.4 30.1 6.3 30.1 4.2 C 30.1 2.3 28.4 2 27.1 2 C 27.08 2.04 25.3 2 25.3 2 L 25.3 6.4 C 25.3 6.4 26.8 6.38 26.8 6.4 Z M 42.3 -0.7 C 46.7 -0.8 49.8 2.4 49.8 7.4 C 49.8 12.2 46.7 15.4 42.3 15.5 C 37.9 15.5 34.8 12.3 34.8 7.5 C 34.8 2.5 37.9 -0.7 42.3 -0.7 Z M 42.3 13 C 45.3 13 47.2 10.6 47.2 7.3 C 47.2 4.2 45.3 1.8 42.3 1.8 C 39.4 1.8 37.5 4.2 37.5 7.3 C 37.5 10.6 39.4 13 42.3 13 Z M 52.8 -0.3 C 52.8 -0.3 57.59 -0.31 57.6 -0.3 C 60.3 -0.3 62.8 0.7 62.8 4.2 C 62.8 8 60.1 8.7 57.1 8.7 C 57.15 8.73 55.3 8.7 55.3 8.7 L 55.3 15.1 L 52.8 15.1 L 52.8 -0.3 Z M 56.9 6.4 C 58.3 6.4 60.2 6.3 60.2 4.2 C 60.2 2.3 58.5 2 57.1 2 C 57.15 2.04 55.3 2 55.3 2 L 55.3 6.4 C 55.3 6.4 56.87 6.38 56.9 6.4 Z M 72.2 -0.3 L 81.3 -0.3 L 81.3 2.2 L 74.7 2.2 L 74.7 6.2 L 80.9 6.2 L 80.9 8.7 L 74.7 8.7 L 74.7 15.1 L 72.2 15.1 L 72.2 -0.3 Z M 87.7 -0.3 L 89.9 -0.3 L 96 15.1 L 93.1 15.1 L 91.8 11.6 L 85.6 11.6 L 84.4 15.1 L 81.5 15.1 L 87.7 -0.3 Z M 90.9 9.2 L 88.7 3 L 86.5 9.2 L 90.9 9.2 Z M 98.2 -0.3 L 101.5 -0.3 L 108.4 11.2 L 108.4 11.2 L 108.4 -0.3 L 110.9 -0.3 L 110.9 15.1 L 107.7 15.1 L 100.7 3.3 L 100.7 3.3 L 100.7 15.1 L 98.2 15.1 L 98.2 -0.3 Z M 122.8 -1.2 L 122.8 20.6 L 120.8 20.6 L 120.8 -1.2 L 122.8 -1.2 Z M 132.8 -0.3 L 136.6 -0.3 L 140.4 10.5 L 144.2 -0.3 L 148 -0.3 L 148 15.1 L 145.6 15.1 L 145.6 2.3 L 145.6 2.3 L 141.3 15.1 L 139.5 15.1 L 135.2 2.3 L 135.2 2.3 L 135.2 15.1 L 132.8 15.1 L 132.8 -0.3 Z M 160.4 15.1 L 158.1 15.1 L 158.1 13.4 C 158.1 13.4 158.05 13.44 158.1 13.4 C 157.6 14.5 156.7 15.4 155.1 15.4 C 152.5 15.4 151.6 13.4 151.6 11.3 C 151.61 11.26 151.6 4.7 151.6 4.7 L 154 4.7 C 154 4.7 154.01 9.95 154 10 C 154 11.1 154.1 13 155.8 13 C 157.4 13 158 11.8 158 10.4 C 157.97 10.37 158 4.7 158 4.7 L 160.4 4.7 L 160.4 15.1 Z M 163.7 -1.4 L 166.1 -1.4 L 166.1 15.1 L 163.7 15.1 L 163.7 -1.4 Z M 175.5 13.7 C 175.5 13.7 175.42 13.68 175.4 13.7 C 174.7 14.9 173.6 15.4 172.3 15.4 C 170.6 15.4 168.8 14.3 168.8 12.2 C 168.8 8.8 172.5 8.6 174.9 8.6 C 174.88 8.6 175.5 8.6 175.5 8.6 C 175.5 8.6 175.48 8.32 175.5 8.3 C 175.5 7 174.6 6.4 173.3 6.4 C 172.3 6.4 171.4 6.8 170.7 7.4 C 170.7 7.4 169.5 6.1 169.5 6.1 C 170.5 4.9 172 4.4 173.5 4.4 C 177.6 4.4 177.6 7.6 177.6 9.1 C 177.64 9.1 177.6 15.1 177.6 15.1 L 175.5 15.1 L 175.5 13.7 Z M 175.3 10.4 C 175.3 10.4 174.84 10.43 174.8 10.4 C 173.5 10.4 171.2 10.5 171.2 12 C 171.2 13 172.1 13.4 172.9 13.4 C 174.6 13.4 175.3 12.5 175.3 11 C 175.34 11.02 175.3 10.4 175.3 10.4 Z M 192.4 7.6 C 192 6.9 191.4 6.5 190.6 6.5 C 189.9 6.5 189.2 6.8 189.2 7.6 C 189.2 9.5 194.3 7.9 194.3 12 C 194.3 14.5 192.2 15.4 190.2 15.4 C 188.7 15.4 187.4 15 186.5 13.8 C 186.5 13.8 188.1 12.1 188.1 12.1 C 188.7 12.9 189.3 13.4 190.3 13.4 C 191 13.4 191.9 13 191.9 12.2 C 191.9 10.1 186.8 11.8 186.8 7.8 C 186.8 5.4 188.7 4.4 190.6 4.4 C 191.9 4.4 193.3 4.8 194 6 C 194 6 192.4 7.6 192.4 7.6 Z M 202.8 13.7 C 202.8 13.7 202.73 13.68 202.7 13.7 C 202.1 14.9 200.9 15.4 199.7 15.4 C 197.9 15.4 196.2 14.3 196.2 12.2 C 196.2 8.8 199.8 8.6 202.2 8.6 C 202.19 8.6 202.8 8.6 202.8 8.6 C 202.8 8.6 202.79 8.32 202.8 8.3 C 202.8 7 201.9 6.4 200.6 6.4 C 199.6 6.4 198.7 6.8 198 7.4 C 198 7.4 196.8 6.1 196.8 6.1 C 197.8 4.9 199.3 4.4 200.9 4.4 C 205 4.4 205 7.6 205 9.1 C 204.95 9.1 205 15.1 205 15.1 L 202.8 15.1 L 202.8 13.7 Z M 202.7 10.4 C 202.7 10.4 202.15 10.43 202.2 10.4 C 200.8 10.4 198.6 10.5 198.6 12 C 198.6 13 199.5 13.4 200.2 13.4 C 201.9 13.4 202.7 12.5 202.7 11 C 202.65 11.02 202.7 10.4 202.7 10.4 Z M 214.6 4.7 L 216.9 4.7 L 216.9 6.2 C 216.9 6.2 216.96 6.23 217 6.2 C 217.7 5 218.9 4.4 220.3 4.4 C 223.2 4.4 225 6.8 225 9.9 C 225 13 223.1 15.4 220.4 15.4 C 218.6 15.4 217.6 14.5 217.1 13.8 C 217.1 13.79 217 13.8 217 13.8 L 217 20.1 L 214.6 20.1 L 214.6 4.7 Z M 219.8 6.7 C 218 6.7 217 8.3 217 9.9 C 217 11.5 218 13 219.8 13 C 221.5 13 222.6 11.5 222.6 9.9 C 222.6 8.3 221.5 6.7 219.8 6.7 Z M 229.4 11.9 C 230.3 11.9 231 12.6 231 13.6 C 231 14.5 230.3 15.3 229.4 15.3 C 228.6 15.3 227.8 14.5 227.8 13.6 C 227.8 12.7 228.5 11.9 229.4 11.9 Z M 238.3 2.7 L 235.7 5.4 L 234.3 3.6 L 238.6 -0.3 L 240.7 -0.3 L 240.7 15.1 L 238.3 15.1 L 238.3 2.7 Z M 249.9 5.9 C 249.9 5.9 250.47 5.9 250.5 5.9 C 251.9 5.9 253.2 5.7 253.2 3.8 C 253.2 2.6 252.4 1.8 251.2 1.8 C 250.3 1.8 249.4 2.4 249.1 3.5 C 249.1 3.5 246.6 2.7 246.6 2.7 C 247.2 0.4 249 -0.6 251.1 -0.6 C 253.5 -0.6 255.6 0.8 255.6 3.5 C 255.6 5.2 254.7 6.6 253.2 7 C 253.2 7 253.2 7.1 253.2 7.1 C 255 7.4 256 8.9 256 10.8 C 256 13.8 253.7 15.4 251.2 15.4 C 248.9 15.4 247 14.3 246.3 11.8 C 246.3 11.8 248.9 11 248.9 11 C 249.2 12.3 249.9 13 251.2 13 C 252.5 13 253.6 12 253.6 10.6 C 253.6 8.6 251.9 8.3 250.4 8.3 C 250.43 8.25 249.9 8.3 249.9 8.3 L 249.9 5.9 Z " stroke="none" fill="#fff"/>
  </g>
</svg>