<?xml version="1.0" standalone="no"?>
<!DOCTYPE svg PUBLIC "-//W3C//DTD SVG 1.1//EN" "http://www.w3.org/Graphics/SVG/1.1/DTD/svg11.dtd">
<svg xmlns="http://www.w3.org/2000/svg" version="1.1" width="112.4px" height="17px" viewBox="0 -3 112.4 17" style="top:-3px">
  <desc>Isang linggong tag-ulan</desc>
  <defs/>
  <g id="Polygon31648">
    <path d="M 1.3 0.6 L 2.7 0.6 L 1.4 7 L 0 7 L 1.3 0.6 Z M 5.9 3.7 C 5.9 3.3 5.7 3.1 5.2 3.1 C 4.8 3.1 4.4 3.2 4.4 3.6 C 4.4 3.8 4.6 3.9 5 4 C 5 4 5.6 4.2 5.6 4.2 C 6.3 4.5 6.9 4.8 6.9 5.6 C 6.9 6.7 5.7 7.2 4.7 7.2 C 3.7 7.2 2.7 6.8 2.7 5.7 C 2.67 5.72 2.7 5.5 2.7 5.5 L 3.9 5.5 C 3.9 5.5 3.86 5.68 3.9 5.7 C 3.9 6.1 4.3 6.3 4.8 6.3 C 5.2 6.3 5.6 6.2 5.6 5.8 C 5.6 5.4 5.4 5.3 5.1 5.2 C 5.1 5.2 4.1 4.9 4.1 4.9 C 3.5 4.7 3.1 4.5 3.1 3.7 C 3.1 2.6 4.3 2.3 5.2 2.3 C 6.2 2.3 7.1 2.5 7.1 3.7 C 7.1 3.7 5.9 3.7 5.9 3.7 Z M 10.8 4.8 C 10.4 5 10 5 9.7 5 C 9.2 5.1 8.7 5.2 8.7 5.8 C 8.7 6.1 9.1 6.3 9.4 6.3 C 10.2 6.3 10.5 5.8 10.6 5.3 C 10.6 5.3 10.8 4.8 10.8 4.8 Z M 8.1 3.8 C 8.2 2.6 9.2 2.3 10.3 2.3 C 11.1 2.3 12.2 2.4 12.2 3.5 C 12.2 3.7 12.1 4 12.1 4.3 C 12.1 4.3 11.7 6.1 11.7 6.1 C 11.6 6.3 11.6 6.6 11.6 6.8 C 11.6 6.8 11.6 7 11.7 7 C 11.66 7.04 10.4 7 10.4 7 C 10.4 7 10.39 6.58 10.4 6.6 C 10 7 9.5 7.2 9 7.2 C 7.9 7.2 7.5 6.6 7.5 5.9 C 7.5 5 8.1 4.5 9.2 4.4 C 10.4 4.2 11 4.3 11 3.7 C 11 3.2 10.5 3.1 10.2 3.1 C 9.7 3.1 9.3 3.3 9.3 3.8 C 9.3 3.8 8.1 3.8 8.1 3.8 Z M 13.6 2.4 L 14.9 2.4 L 14.7 3 C 14.7 3 14.73 3.03 14.7 3 C 15.1 2.5 15.7 2.3 16.4 2.3 C 17.2 2.3 17.7 2.7 17.7 3.5 C 17.7 3.7 17.6 4.1 17.6 4.3 C 17.59 4.31 17 7 17 7 L 15.7 7 C 15.7 7 16.3 4.31 16.3 4.3 C 16.3 4.2 16.4 3.9 16.4 3.7 C 16.4 3.5 16.1 3.3 15.8 3.3 C 15 3.3 14.6 3.9 14.5 4.6 C 14.46 4.56 13.9 7 13.9 7 L 12.7 7 L 13.6 2.4 Z M 19.8 5 C 19.8 5.5 20.1 6 20.7 6 C 21.6 6 22 5 22 4.2 C 22 3.6 21.7 3.2 21.1 3.2 C 20.2 3.2 19.8 4.2 19.8 5 Z M 22.7 6.8 C 22.4 8.2 21.7 8.8 20.2 8.8 C 19.2 8.8 18.2 8.4 18.2 7.3 C 18.2 7.3 19.5 7.3 19.5 7.3 C 19.4 7.7 19.9 7.9 20.3 7.9 C 21.1 7.9 21.3 7.2 21.6 6.3 C 21.6 6.3 21.6 6.3 21.6 6.3 C 21.2 6.7 20.8 7 20.3 7 C 19.2 7 18.5 6.2 18.5 5.1 C 18.5 3.7 19.4 2.3 20.9 2.3 C 21.5 2.3 22 2.5 22.3 3.1 C 22.28 3.1 22.3 3.1 22.3 3.1 L 22.4 2.4 L 23.7 2.4 C 23.7 2.4 22.74 6.8 22.7 6.8 Z M 27.8 0.6 L 29.1 0.6 L 27.7 7 L 26.4 7 L 27.8 0.6 Z M 29.8 2.4 L 31.1 2.4 L 30.1 7 L 28.9 7 L 29.8 2.4 Z M 31.3 1.7 L 30 1.7 L 30.2 0.6 L 31.5 0.6 L 31.3 1.7 Z M 32.2 2.4 L 33.5 2.4 L 33.3 3 C 33.3 3 33.34 3.03 33.3 3 C 33.8 2.5 34.3 2.3 35 2.3 C 35.9 2.3 36.3 2.7 36.3 3.5 C 36.3 3.7 36.2 4.1 36.2 4.3 C 36.2 4.31 35.6 7 35.6 7 L 34.3 7 C 34.3 7 34.91 4.31 34.9 4.3 C 34.9 4.2 35 3.9 35 3.7 C 35 3.5 34.7 3.3 34.4 3.3 C 33.6 3.3 33.2 3.9 33.1 4.6 C 33.07 4.56 32.6 7 32.6 7 L 31.3 7 L 32.2 2.4 Z M 38.4 5 C 38.4 5.5 38.7 6 39.3 6 C 40.2 6 40.6 5 40.6 4.2 C 40.6 3.6 40.3 3.2 39.7 3.2 C 38.9 3.2 38.4 4.2 38.4 5 Z M 41.4 6.8 C 41 8.2 40.3 8.8 38.8 8.8 C 37.8 8.8 36.8 8.4 36.8 7.3 C 36.8 7.3 38.1 7.3 38.1 7.3 C 38.1 7.7 38.5 7.9 38.9 7.9 C 39.7 7.9 40 7.2 40.2 6.3 C 40.2 6.3 40.2 6.3 40.2 6.3 C 39.9 6.7 39.4 7 38.9 7 C 37.8 7 37.1 6.2 37.1 5.1 C 37.1 3.7 38 2.3 39.5 2.3 C 40.1 2.3 40.6 2.5 40.9 3.1 C 40.89 3.1 40.9 3.1 40.9 3.1 L 41.1 2.4 L 42.3 2.4 C 42.3 2.4 41.35 6.8 41.4 6.8 Z M 44 5 C 44 5.5 44.3 6 44.9 6 C 45.8 6 46.2 5 46.2 4.2 C 46.2 3.6 45.9 3.2 45.3 3.2 C 44.4 3.2 44 4.2 44 5 Z M 46.9 6.8 C 46.6 8.2 45.9 8.8 44.4 8.8 C 43.4 8.8 42.4 8.4 42.4 7.3 C 42.4 7.3 43.7 7.3 43.7 7.3 C 43.6 7.7 44.1 7.9 44.5 7.9 C 45.3 7.9 45.5 7.2 45.8 6.3 C 45.8 6.3 45.8 6.3 45.8 6.3 C 45.4 6.7 45 7 44.5 7 C 43.4 7 42.7 6.2 42.7 5.1 C 42.7 3.7 43.6 2.3 45.1 2.3 C 45.7 2.3 46.2 2.5 46.5 3.1 C 46.48 3.1 46.5 3.1 46.5 3.1 L 46.6 2.4 L 47.9 2.4 C 47.9 2.4 46.94 6.8 46.9 6.8 Z M 50.9 2.3 C 52.2 2.3 53.1 2.9 53.1 4.2 C 53.1 5.9 52.1 7.2 50.4 7.2 C 49.1 7.2 48.2 6.5 48.2 5.2 C 48.2 3.6 49.3 2.3 50.9 2.3 Z M 50.4 6.2 C 51.4 6.2 51.8 5 51.8 4.2 C 51.8 3.6 51.5 3.2 50.9 3.2 C 49.9 3.2 49.5 4.4 49.5 5.2 C 49.5 5.7 49.8 6.2 50.4 6.2 Z M 54.4 2.4 L 55.7 2.4 L 55.5 3 C 55.5 3 55.54 3.03 55.5 3 C 56 2.5 56.5 2.3 57.2 2.3 C 58 2.3 58.5 2.7 58.5 3.5 C 58.5 3.7 58.4 4.1 58.4 4.3 C 58.39 4.31 57.8 7 57.8 7 L 56.5 7 C 56.5 7 57.1 4.31 57.1 4.3 C 57.1 4.2 57.2 3.9 57.2 3.7 C 57.2 3.5 56.9 3.3 56.6 3.3 C 55.8 3.3 55.4 3.9 55.3 4.6 C 55.27 4.56 54.7 7 54.7 7 L 53.5 7 L 54.4 2.4 Z M 60.6 5 C 60.6 5.5 60.9 6 61.5 6 C 62.4 6 62.8 5 62.8 4.2 C 62.8 3.6 62.5 3.2 61.9 3.2 C 61 3.2 60.6 4.2 60.6 5 Z M 63.5 6.8 C 63.2 8.2 62.5 8.8 61 8.8 C 60 8.8 59 8.4 59 7.3 C 59 7.3 60.3 7.3 60.3 7.3 C 60.3 7.7 60.7 7.9 61.1 7.9 C 61.9 7.9 62.2 7.2 62.4 6.3 C 62.4 6.3 62.4 6.3 62.4 6.3 C 62.1 6.7 61.6 7 61.1 7 C 60 7 59.3 6.2 59.3 5.1 C 59.3 3.7 60.2 2.3 61.7 2.3 C 62.3 2.3 62.8 2.5 63.1 3.1 C 63.09 3.1 63.1 3.1 63.1 3.1 L 63.3 2.4 L 64.5 2.4 C 64.5 2.4 63.55 6.8 63.5 6.8 Z M 69.8 2.4 L 70.8 2.4 L 70.6 3.2 L 69.7 3.2 C 69.7 3.2 69.18 5.55 69.2 5.6 C 69.2 5.7 69.1 5.7 69.1 5.8 C 69.1 6.1 69.4 6.1 69.6 6.1 C 69.7 6.1 69.9 6.1 70 6.1 C 70 6.1 69.8 7.1 69.8 7.1 C 69.6 7.1 69.3 7.1 69 7.1 C 68.4 7.1 67.8 6.9 67.8 6.2 C 67.8 6.1 67.8 5.9 67.9 5.7 C 67.87 5.73 68.4 3.2 68.4 3.2 L 67.6 3.2 L 67.8 2.4 L 68.6 2.4 L 68.9 1 L 70.1 1 L 69.8 2.4 Z M 74 4.8 C 73.7 5 73.3 5 72.9 5 C 72.4 5.1 72 5.2 72 5.8 C 72 6.1 72.3 6.3 72.7 6.3 C 73.5 6.3 73.7 5.8 73.9 5.3 C 73.9 5.3 74 4.8 74 4.8 Z M 71.3 3.8 C 71.5 2.6 72.5 2.3 73.5 2.3 C 74.3 2.3 75.5 2.4 75.4 3.5 C 75.4 3.7 75.4 4 75.3 4.3 C 75.3 4.3 74.9 6.1 74.9 6.1 C 74.9 6.3 74.9 6.6 74.9 6.8 C 74.9 6.8 74.9 7 74.9 7 C 74.91 7.04 73.6 7 73.6 7 C 73.6 7 73.64 6.58 73.6 6.6 C 73.3 7 72.7 7.2 72.2 7.2 C 71.2 7.2 70.7 6.6 70.7 5.9 C 70.7 5 71.4 4.5 72.5 4.4 C 73.7 4.2 74.3 4.3 74.3 3.7 C 74.3 3.2 73.8 3.1 73.4 3.1 C 73 3.1 72.6 3.3 72.5 3.8 C 72.5 3.8 71.3 3.8 71.3 3.8 Z M 77.5 5 C 77.5 5.5 77.7 6 78.3 6 C 79.2 6 79.7 5 79.7 4.2 C 79.7 3.6 79.4 3.2 78.8 3.2 C 77.9 3.2 77.5 4.2 77.5 5 Z M 80.4 6.8 C 80.1 8.2 79.4 8.8 77.8 8.8 C 76.9 8.8 75.9 8.4 75.9 7.3 C 75.9 7.3 77.1 7.3 77.1 7.3 C 77.1 7.7 77.6 7.9 78 7.9 C 78.8 7.9 79 7.2 79.3 6.3 C 79.3 6.3 79.2 6.3 79.2 6.3 C 78.9 6.7 78.5 7 78 7 C 76.9 7 76.2 6.2 76.2 5.1 C 76.2 3.7 77 2.3 78.5 2.3 C 79.2 2.3 79.7 2.5 79.9 3.1 C 79.95 3.1 80 3.1 80 3.1 L 80.1 2.4 L 81.3 2.4 C 81.3 2.4 80.4 6.8 80.4 6.8 Z M 82.1 4 L 84.8 4 L 84.6 5.1 L 81.9 5.1 L 82.1 4 Z M 89.7 7 L 88.4 7 L 88.6 6.4 C 88.6 6.4 88.57 6.39 88.6 6.4 C 88.2 6.9 87.6 7.2 86.9 7.2 C 86.1 7.2 85.6 6.7 85.6 5.9 C 85.6 5.7 85.7 5.3 85.7 5.1 C 85.72 5.11 86.3 2.4 86.3 2.4 L 87.6 2.4 C 87.6 2.4 87 5.11 87 5.1 C 87 5.2 86.9 5.6 86.9 5.7 C 86.9 6 87.2 6.2 87.5 6.2 C 88.3 6.2 88.7 5.5 88.8 4.9 C 88.84 4.86 89.4 2.4 89.4 2.4 L 90.6 2.4 L 89.7 7 Z M 92.2 0.6 L 93.5 0.6 L 92.1 7 L 90.8 7 L 92.2 0.6 Z M 96.6 4.8 C 96.3 5 95.9 5 95.5 5 C 95 5.1 94.6 5.2 94.6 5.8 C 94.6 6.1 94.9 6.3 95.3 6.3 C 96.1 6.3 96.3 5.8 96.5 5.3 C 96.5 5.3 96.6 4.8 96.6 4.8 Z M 93.9 3.8 C 94.1 2.6 95.1 2.3 96.1 2.3 C 96.9 2.3 98.1 2.4 98.1 3.5 C 98.1 3.7 98 4 98 4.3 C 98 4.3 97.5 6.1 97.5 6.1 C 97.5 6.3 97.5 6.6 97.5 6.8 C 97.5 6.8 97.5 7 97.5 7 C 97.52 7.04 96.2 7 96.2 7 C 96.2 7 96.25 6.58 96.2 6.6 C 95.9 7 95.3 7.2 94.8 7.2 C 93.8 7.2 93.3 6.6 93.3 5.9 C 93.3 5 94 4.5 95.1 4.4 C 96.3 4.2 96.9 4.3 96.9 3.7 C 96.9 3.2 96.4 3.1 96.1 3.1 C 95.6 3.1 95.2 3.3 95.1 3.8 C 95.1 3.8 93.9 3.8 93.9 3.8 Z M 99.5 2.4 L 100.7 2.4 L 100.6 3 C 100.6 3 100.59 3.03 100.6 3 C 101 2.5 101.6 2.3 102.2 2.3 C 103.1 2.3 103.6 2.7 103.6 3.5 C 103.6 3.7 103.5 4.1 103.4 4.3 C 103.44 4.31 102.9 7 102.9 7 L 101.6 7 C 101.6 7 102.16 4.31 102.2 4.3 C 102.2 4.2 102.2 3.9 102.2 3.7 C 102.2 3.5 101.9 3.3 101.6 3.3 C 100.9 3.3 100.5 3.9 100.3 4.6 C 100.32 4.56 99.8 7 99.8 7 L 98.5 7 L 99.5 2.4 Z " stroke="none" fill="#000"/>
  </g>
</svg>