<?xml version="1.0" standalone="no"?>
<!DOCTYPE svg PUBLIC "-//W3C//DTD SVG 1.1//EN" "http://www.w3.org/Graphics/SVG/1.1/DTD/svg11.dtd">
<svg xmlns="http://www.w3.org/2000/svg" version="1.1" width="120px" height="13.9px" viewBox="0 -1 120 13.9" style="top:-1px">
  <desc>PARALYMPICS p 17</desc>
  <defs/>
  <g id="Polygon38724">
    <path d="M 25.8 2.4 C 25.8 2.4 27.1 2.37 27.1 2.4 C 27.8 2.4 28.3 2.4 28.6 2.6 C 28.9 2.7 29.2 2.9 29.4 3.2 C 29.5 3.5 29.6 3.8 29.6 4.3 C 29.6 4.7 29.5 5.1 29.3 5.4 C 29 5.7 28.7 5.9 28.3 6 C 28.1 6.1 27.6 6.1 27 6.1 C 27.02 6.1 27 8.8 27 8.8 L 25.8 8.8 L 25.8 2.4 Z M 27 4.9 C 27 4.9 27.41 4.9 27.4 4.9 C 27.7 4.9 27.9 4.9 28.1 4.8 C 28.2 4.8 28.3 4.7 28.3 4.6 C 28.4 4.5 28.4 4.4 28.4 4.2 C 28.4 4 28.3 3.8 28.2 3.7 C 28 3.6 27.7 3.6 27.4 3.6 C 27.37 3.57 27 3.6 27 3.6 L 27 4.9 Z M 32.8 2.4 L 34.1 2.4 L 36.5 8.8 L 35.3 8.8 L 34.8 7.5 L 32.1 7.5 L 31.6 8.8 L 30.3 8.8 L 32.8 2.4 Z M 33.4 4.1 L 32.6 6.3 L 34.3 6.3 L 33.4 4.1 Z M 37.6 2.4 C 37.6 2.4 38.88 2.37 38.9 2.4 C 39.6 2.4 40.1 2.4 40.4 2.6 C 40.7 2.7 41 2.9 41.1 3.2 C 41.3 3.5 41.4 3.8 41.4 4.3 C 41.4 4.7 41.3 5 41.1 5.3 C 40.9 5.6 40.6 5.8 40.2 6 C 40.19 5.97 41.7 8.8 41.7 8.8 L 40.4 8.8 L 38.9 6.1 L 38.8 6.1 L 38.8 8.8 L 37.6 8.8 L 37.6 2.4 Z M 38.8 4.9 C 38.8 4.9 39.19 4.9 39.2 4.9 C 39.6 4.9 39.9 4.9 40 4.7 C 40.1 4.6 40.2 4.5 40.2 4.2 C 40.2 4.1 40.2 4 40.1 3.9 C 40 3.8 39.9 3.7 39.8 3.6 C 39.7 3.6 39.5 3.6 39.1 3.6 C 39.14 3.57 38.8 3.6 38.8 3.6 L 38.8 4.9 Z M 44.7 2.4 L 45.9 2.4 L 48.4 8.8 L 47.1 8.8 L 46.6 7.5 L 44 7.5 L 43.5 8.8 L 42.2 8.8 L 44.7 2.4 Z M 45.3 4.1 L 44.5 6.3 L 46.2 6.3 L 45.3 4.1 Z M 49.4 2.4 L 50.6 2.4 L 50.6 7.7 L 52.4 7.7 L 52.4 8.8 L 49.4 8.8 L 49.4 2.4 Z M 52.9 2.4 L 54.2 2.4 L 55.4 4.7 L 56.6 2.4 L 57.9 2.4 L 56 6 L 56 8.8 L 54.8 8.8 L 54.8 6 L 52.9 2.4 Z M 59.5 2.4 L 60.7 2.4 L 62.2 6.9 L 63.7 2.4 L 64.9 2.4 L 66 8.8 L 64.8 8.8 L 64.1 4.8 L 62.8 8.8 L 61.7 8.8 L 60.3 4.8 L 59.6 8.8 L 58.4 8.8 L 59.5 2.4 Z M 67 2.4 C 67 2.4 68.31 2.37 68.3 2.4 C 69 2.4 69.5 2.4 69.8 2.6 C 70.2 2.7 70.4 2.9 70.6 3.2 C 70.8 3.5 70.8 3.8 70.8 4.3 C 70.8 4.7 70.7 5.1 70.5 5.4 C 70.3 5.7 69.9 5.9 69.5 6 C 69.3 6.1 68.9 6.1 68.2 6.1 C 68.24 6.1 68.2 8.8 68.2 8.8 L 67 8.8 L 67 2.4 Z M 68.2 4.9 C 68.2 4.9 68.63 4.9 68.6 4.9 C 68.9 4.9 69.2 4.9 69.3 4.8 C 69.4 4.8 69.5 4.7 69.6 4.6 C 69.6 4.5 69.7 4.4 69.7 4.2 C 69.7 4 69.6 3.8 69.4 3.7 C 69.2 3.6 69 3.6 68.6 3.6 C 68.58 3.57 68.2 3.6 68.2 3.6 L 68.2 4.9 Z M 72 2.4 L 73.2 2.4 L 73.2 8.8 L 72 8.8 L 72 2.4 Z M 80.5 3.5 C 80.5 3.5 79.7 4.3 79.7 4.3 C 79.1 3.7 78.4 3.4 77.7 3.4 C 77.1 3.4 76.5 3.6 76.1 4 C 75.7 4.5 75.5 5 75.5 5.6 C 75.5 6 75.6 6.4 75.8 6.7 C 75.9 7.1 76.2 7.3 76.6 7.5 C 76.9 7.7 77.3 7.8 77.7 7.8 C 78.1 7.8 78.4 7.8 78.7 7.6 C 79 7.5 79.3 7.2 79.7 6.9 C 79.7 6.9 80.5 7.8 80.5 7.8 C 80 8.2 79.6 8.6 79.1 8.7 C 78.7 8.9 78.2 9 77.7 9 C 76.7 9 75.8 8.7 75.2 8 C 74.6 7.4 74.2 6.6 74.2 5.6 C 74.2 5 74.4 4.4 74.7 3.9 C 75 3.4 75.4 3 75.9 2.7 C 76.5 2.4 77.1 2.2 77.7 2.2 C 78.2 2.2 78.7 2.3 79.2 2.6 C 79.7 2.8 80.2 3.1 80.5 3.5 Z M 85 3.3 C 85 3.3 84.1 4.1 84.1 4.1 C 83.7 3.6 83.4 3.4 83.1 3.4 C 82.9 3.4 82.8 3.4 82.7 3.5 C 82.6 3.6 82.5 3.7 82.5 3.8 C 82.5 3.9 82.6 4 82.7 4.1 C 82.8 4.2 83.1 4.5 83.6 5 C 84 5.3 84.3 5.6 84.4 5.7 C 84.7 5.9 84.8 6.2 84.9 6.4 C 85 6.6 85.1 6.9 85.1 7.2 C 85.1 7.7 84.9 8.1 84.5 8.5 C 84.2 8.8 83.7 9 83.1 9 C 82.7 9 82.2 8.9 81.9 8.7 C 81.6 8.4 81.3 8.1 81 7.6 C 81 7.6 82.1 7 82.1 7 C 82.4 7.5 82.7 7.8 83.1 7.8 C 83.3 7.8 83.5 7.8 83.7 7.6 C 83.8 7.5 83.9 7.4 83.9 7.2 C 83.9 7.1 83.8 6.9 83.7 6.8 C 83.6 6.6 83.4 6.4 83 6.1 C 82.3 5.5 81.8 5.1 81.6 4.8 C 81.4 4.5 81.3 4.2 81.3 3.8 C 81.3 3.4 81.5 3 81.8 2.7 C 82.2 2.4 82.6 2.2 83.1 2.2 C 83.4 2.2 83.7 2.3 84 2.4 C 84.3 2.6 84.6 2.9 85 3.3 Z M 88.6 4 L 88.6 2.9 L 92.9 5.1 L 92.9 6.1 L 88.6 8.3 L 88.6 7.2 L 91.7 5.6 L 88.6 4 Z M 94 4 L 94 2.9 L 98.3 5.1 L 98.3 6.1 L 94 8.3 L 94 7.2 L 97.1 5.6 L 94 4 Z M 103.2 4.1 C 103.2 4.1 103.17 4.59 103.2 4.6 C 103.4 4.4 103.6 4.2 103.9 4.1 C 104.1 4 104.4 3.9 104.7 3.9 C 105.3 3.9 105.8 4.2 106.3 4.6 C 106.7 5.1 106.9 5.7 106.9 6.5 C 106.9 7.2 106.7 7.8 106.2 8.2 C 105.8 8.7 105.3 9 104.6 9 C 104.4 9 104.1 8.9 103.9 8.8 C 103.6 8.7 103.4 8.6 103.2 8.3 C 103.17 8.33 103.2 10.6 103.2 10.6 L 102 10.6 L 102 4.1 L 103.2 4.1 Z M 104.4 5 C 104 5 103.7 5.2 103.5 5.4 C 103.2 5.7 103.1 6 103.1 6.4 C 103.1 6.9 103.2 7.2 103.5 7.5 C 103.7 7.7 104 7.9 104.4 7.9 C 104.8 7.9 105.1 7.7 105.4 7.5 C 105.6 7.2 105.7 6.9 105.7 6.4 C 105.7 6 105.6 5.7 105.4 5.4 C 105.1 5.2 104.8 5 104.4 5 Z M 108.6 7.6 C 108.8 7.6 108.9 7.7 109.1 7.8 C 109.2 7.9 109.3 8.1 109.3 8.3 C 109.3 8.5 109.2 8.6 109.1 8.8 C 108.9 8.9 108.8 9 108.6 9 C 108.4 9 108.2 8.9 108.1 8.8 C 107.9 8.6 107.9 8.5 107.9 8.3 C 107.9 8.1 107.9 7.9 108.1 7.8 C 108.2 7.7 108.4 7.6 108.6 7.6 Z M 111.3 2.4 L 113.1 2.4 L 113.1 8.8 L 111.9 8.8 L 111.9 3.5 L 110.6 3.5 L 111.3 2.4 Z M 115.4 2.4 L 119.6 2.4 L 119.6 3 L 116.7 9 L 115.7 8.5 L 118.1 3.5 L 115.4 3.5 L 115.4 2.4 Z " stroke="none" fill="#000"/>
  </g>
</svg>