<?xml version="1.0" standalone="no"?>
<!DOCTYPE svg PUBLIC "-//W3C//DTD SVG 1.1//EN" "http://www.w3.org/Graphics/SVG/1.1/DTD/svg11.dtd">
<svg xmlns="http://www.w3.org/2000/svg" version="1.1" width="310px" height="21.3px" viewBox="0 -3 310 21.3" style="top:-3px">
  <desc>mahirap magbingi-bingihan sa katotohanan Mahirap magsulat ngunit kinakailangan</desc>
  <defs/>
  <g id="Polygon17847">
    <path d="M 77.5 13.3 L 76.9 13.3 L 76.9 9.2 L 75.4 13.3 L 75 13.3 L 73.5 9.2 L 73.5 13.3 L 73 13.3 L 73 8.6 L 73.8 8.6 L 75.2 12.4 L 76.6 8.6 L 77.5 8.6 L 77.5 13.3 Z M 82.5 13.3 L 81.9 13.3 L 81.4 11.9 L 79.7 11.9 L 79.3 13.3 L 78.8 13.3 L 80.3 8.6 L 81 8.6 L 82.5 13.3 Z M 81.3 11.5 L 80.6 9.3 L 79.9 11.5 L 81.3 11.5 Z M 87.1 13.3 L 86.5 13.3 L 86.5 11.1 L 84.4 11.1 L 84.4 13.3 L 83.8 13.3 L 83.8 8.6 L 84.4 8.6 L 84.4 10.6 L 86.5 10.6 L 86.5 8.6 L 87.1 8.6 L 87.1 13.3 Z M 89.6 13.3 L 89 13.3 L 89 8.6 L 89.6 8.6 L 89.6 13.3 Z M 94.8 13.3 L 94.2 13.3 L 93.3 11.3 L 92 11.3 L 92 13.3 L 91.4 13.3 L 91.4 8.6 C 91.4 8.6 93.28 8.64 93.3 8.6 C 93.8 8.6 94.1 8.8 94.4 9 C 94.6 9.3 94.7 9.6 94.7 9.9 C 94.7 10.2 94.7 10.4 94.5 10.7 C 94.4 10.9 94.2 11 93.9 11.1 C 93.88 11.14 94.8 13.3 94.8 13.3 Z M 92 10.8 C 92 10.8 93.21 10.81 93.2 10.8 C 93.5 10.8 93.8 10.7 93.9 10.6 C 94.1 10.4 94.2 10.2 94.2 9.9 C 94.2 9.7 94.1 9.5 93.9 9.4 C 93.7 9.2 93.5 9.1 93.3 9.1 C 93.28 9.15 92 9.1 92 9.1 L 92 10.8 Z M 99.6 13.3 L 99 13.3 L 98.5 11.9 L 96.8 11.9 L 96.4 13.3 L 95.9 13.3 L 97.4 8.6 L 98 8.6 L 99.6 13.3 Z M 98.4 11.5 L 97.7 9.3 L 96.9 11.5 L 98.4 11.5 Z M 101.5 13.3 L 100.9 13.3 L 100.9 8.6 C 100.9 8.6 102.53 8.64 102.5 8.6 C 103.1 8.6 103.4 8.8 103.7 9.1 C 103.9 9.3 104 9.7 104 10 C 104 10.4 103.9 10.8 103.6 11 C 103.4 11.3 103 11.4 102.6 11.4 C 102.6 11.41 101.5 11.4 101.5 11.4 L 101.5 13.3 Z M 101.5 10.9 C 101.5 10.9 102.54 10.92 102.5 10.9 C 102.8 10.9 103 10.8 103.2 10.7 C 103.4 10.5 103.5 10.3 103.5 10 C 103.5 9.8 103.4 9.6 103.2 9.4 C 103.1 9.2 102.9 9.1 102.6 9.1 C 102.58 9.12 101.5 9.1 101.5 9.1 L 101.5 10.9 Z M 112.4 13.3 L 111.9 13.3 L 111.9 9.2 L 110.4 13.3 L 110 13.3 L 108.4 9.2 L 108.4 13.3 L 107.9 13.3 L 107.9 8.6 L 108.8 8.6 L 110.2 12.4 L 111.6 8.6 L 112.4 8.6 L 112.4 13.3 Z M 117.5 13.3 L 116.9 13.3 L 116.4 11.9 L 114.7 11.9 L 114.2 13.3 L 113.8 13.3 L 115.3 8.6 L 115.9 8.6 L 117.5 13.3 Z M 116.3 11.5 L 115.5 9.3 L 114.8 11.5 L 116.3 11.5 Z M 122 10.9 L 122 13.4 L 121.7 13.4 C 121.7 13.4 121.52 12.78 121.5 12.8 C 121.2 13.2 120.8 13.4 120.2 13.4 C 119.6 13.4 119.1 13.2 118.8 12.7 C 118.5 12.2 118.3 11.7 118.3 11 C 118.3 10.3 118.5 9.7 118.8 9.2 C 119.2 8.8 119.7 8.5 120.3 8.5 C 121.2 8.5 121.7 9 122 9.9 C 122 9.9 121.4 10 121.4 10 C 121.4 9.7 121.2 9.4 121 9.3 C 120.8 9.1 120.5 9 120.3 9 C 119.8 9 119.5 9.2 119.3 9.6 C 119 10 118.9 10.4 118.9 11 C 118.9 11.6 119 12.1 119.3 12.4 C 119.5 12.8 119.9 12.9 120.3 12.9 C 120.6 12.9 120.9 12.8 121.1 12.6 C 121.3 12.4 121.4 12.1 121.4 11.7 C 121.4 11.6 121.4 11.5 121.4 11.4 C 121.44 11.44 120.3 11.4 120.3 11.4 L 120.3 10.9 L 122 10.9 Z M 125.2 13.4 C 124.2 13.4 123.6 13 123.3 12.1 C 123.3 12.1 123.8 11.9 123.8 11.9 C 124 12.6 124.5 12.9 125.2 12.9 C 125.6 12.9 125.8 12.8 126 12.7 C 126.2 12.5 126.3 12.3 126.3 12 C 126.3 11.8 126.2 11.7 126.1 11.6 C 126 11.4 125.8 11.4 125.6 11.3 C 125.6 11.3 124.7 11.1 124.7 11.1 C 124.4 11 124.2 10.9 124.1 10.9 C 123.9 10.8 123.8 10.6 123.7 10.4 C 123.6 10.3 123.5 10.1 123.5 9.8 C 123.5 9.4 123.7 9.1 124 8.9 C 124.3 8.7 124.6 8.5 125.1 8.5 C 126 8.5 126.5 8.9 126.8 9.7 C 126.8 9.7 126.2 9.8 126.2 9.8 C 126.2 9.6 126 9.4 125.8 9.2 C 125.6 9.1 125.3 9 125.1 9 C 124.8 9 124.6 9.1 124.4 9.2 C 124.2 9.4 124.1 9.5 124.1 9.8 C 124.1 10.1 124.4 10.4 124.9 10.5 C 124.9 10.5 125.7 10.7 125.7 10.7 C 126.5 10.9 126.9 11.3 126.9 12 C 126.9 12.4 126.8 12.7 126.5 13 C 126.2 13.3 125.8 13.4 125.2 13.4 C 125.2 13.4 125.2 13.4 125.2 13.4 Z M 131.2 8.6 L 131.6 8.6 C 131.6 8.6 131.64 11.68 131.6 11.7 C 131.6 12.3 131.5 12.7 131.2 13 C 130.9 13.3 130.5 13.4 130 13.4 C 129.5 13.4 129.1 13.3 128.8 13 C 128.6 12.7 128.4 12.3 128.4 11.7 C 128.42 11.68 128.4 8.6 128.4 8.6 L 129 8.6 C 129 8.6 129.01 11.68 129 11.7 C 129 12 129.1 12.3 129.1 12.4 C 129.2 12.6 129.3 12.7 129.5 12.8 C 129.7 12.8 129.9 12.9 130.1 12.9 C 130.4 12.9 130.7 12.8 130.9 12.6 C 131.1 12.4 131.2 12.1 131.2 11.7 C 131.16 11.68 131.2 8.6 131.2 8.6 Z M 136.2 12.8 L 136.2 13.3 L 133.4 13.3 L 133.4 8.6 L 134 8.6 L 134 12.8 L 136.2 12.8 Z M 140.7 13.3 L 140.1 13.3 L 139.6 11.9 L 137.9 11.9 L 137.5 13.3 L 137 13.3 L 138.5 8.6 L 139.2 8.6 L 140.7 13.3 Z M 139.5 11.5 L 138.8 9.3 L 138.1 11.5 L 139.5 11.5 Z M 142.9 13.3 L 142.4 13.3 L 142.4 9.1 L 141 9.1 L 141 8.6 L 144.3 8.6 L 144.3 9.1 L 142.9 9.1 L 142.9 13.3 Z M 151.5 13.3 L 151 13.3 L 148.5 9.2 C 148.5 9.2 148.55 9.54 148.5 9.5 C 148.6 9.7 148.6 9.8 148.6 9.8 C 148.56 9.84 148.6 13.3 148.6 13.3 L 148.1 13.3 L 148.1 8.6 L 148.8 8.6 L 151.1 12.4 C 151.1 12.4 151.07 12.11 151.1 12.1 C 151.1 12 151.1 11.9 151.1 11.8 C 151.06 11.78 151.1 8.6 151.1 8.6 L 151.5 8.6 L 151.5 13.3 Z M 156.8 10.9 L 156.8 13.4 L 156.5 13.4 C 156.5 13.4 156.33 12.78 156.3 12.8 C 156 13.2 155.6 13.4 155 13.4 C 154.4 13.4 153.9 13.2 153.6 12.7 C 153.3 12.2 153.1 11.7 153.1 11 C 153.1 10.3 153.3 9.7 153.6 9.2 C 154 8.8 154.5 8.5 155.1 8.5 C 156 8.5 156.5 9 156.8 9.9 C 156.8 9.9 156.2 10 156.2 10 C 156.2 9.7 156 9.4 155.8 9.3 C 155.6 9.1 155.3 9 155.1 9 C 154.6 9 154.3 9.2 154.1 9.6 C 153.8 10 153.7 10.4 153.7 11 C 153.7 11.6 153.9 12.1 154.1 12.4 C 154.3 12.8 154.7 12.9 155.1 12.9 C 155.4 12.9 155.7 12.8 155.9 12.6 C 156.1 12.4 156.2 12.1 156.2 11.7 C 156.2 11.6 156.2 11.5 156.2 11.4 C 156.24 11.44 155.1 11.4 155.1 11.4 L 155.1 10.9 L 156.8 10.9 Z M 161.3 8.6 L 161.8 8.6 C 161.8 8.6 161.76 11.68 161.8 11.7 C 161.8 12.3 161.6 12.7 161.3 13 C 161 13.3 160.6 13.4 160.1 13.4 C 159.6 13.4 159.2 13.3 158.9 13 C 158.7 12.7 158.5 12.3 158.5 11.7 C 158.55 11.68 158.5 8.6 158.5 8.6 L 159.1 8.6 C 159.1 8.6 159.13 11.68 159.1 11.7 C 159.1 12 159.2 12.3 159.3 12.4 C 159.3 12.6 159.5 12.7 159.6 12.8 C 159.8 12.8 160 12.9 160.2 12.9 C 160.5 12.9 160.8 12.8 161 12.6 C 161.2 12.4 161.3 12.1 161.3 11.7 C 161.28 11.68 161.3 8.6 161.3 8.6 Z M 167 13.3 L 166.4 13.3 L 164 9.2 C 164 9.2 164.02 9.54 164 9.5 C 164 9.7 164 9.8 164 9.8 C 164.03 9.84 164 13.3 164 13.3 L 163.6 13.3 L 163.6 8.6 L 164.3 8.6 L 166.5 12.4 C 166.5 12.4 166.54 12.11 166.5 12.1 C 166.5 12 166.5 11.9 166.5 11.8 C 166.53 11.78 166.5 8.6 166.5 8.6 L 167 8.6 L 167 13.3 Z M 169.4 13.3 L 168.9 13.3 L 168.9 8.6 L 169.4 8.6 L 169.4 13.3 Z M 172.7 13.3 L 172.1 13.3 L 172.1 9.1 L 170.8 9.1 L 170.8 8.6 L 174.1 8.6 L 174.1 9.1 L 172.7 9.1 L 172.7 13.3 Z M 181.5 13.3 L 180.9 13.3 L 179.5 10.7 L 178.4 12.1 L 178.4 13.3 L 177.9 13.3 L 177.9 8.6 L 178.4 8.6 L 178.4 11.3 L 180.6 8.6 L 181.2 8.6 L 179.9 10.3 L 181.5 13.3 Z M 183.5 13.3 L 183 13.3 L 183 8.6 L 183.5 8.6 L 183.5 13.3 Z M 188.8 13.3 L 188.3 13.3 L 185.9 9.2 C 185.9 9.2 185.87 9.54 185.9 9.5 C 185.9 9.7 185.9 9.8 185.9 9.8 C 185.88 9.84 185.9 13.3 185.9 13.3 L 185.4 13.3 L 185.4 8.6 L 186.1 8.6 L 188.4 12.4 C 188.4 12.4 188.39 12.11 188.4 12.1 C 188.4 12 188.4 11.9 188.4 11.8 C 188.38 11.78 188.4 8.6 188.4 8.6 L 188.8 8.6 L 188.8 13.3 Z M 193.8 13.3 L 193.3 13.3 L 192.8 11.9 L 191.1 11.9 L 190.6 13.3 L 190.1 13.3 L 191.7 8.6 L 192.3 8.6 L 193.8 13.3 Z M 192.7 11.5 L 191.9 9.3 L 191.2 11.5 L 192.7 11.5 Z M 198.8 13.3 L 198.2 13.3 L 196.8 10.7 L 195.7 12.1 L 195.7 13.3 L 195.2 13.3 L 195.2 8.6 L 195.7 8.6 L 195.7 11.3 L 197.9 8.6 L 198.5 8.6 L 197.2 10.3 L 198.8 13.3 Z M 203.4 13.3 L 202.8 13.3 L 202.3 11.9 L 200.6 11.9 L 200.2 13.3 L 199.7 13.3 L 201.2 8.6 L 201.9 8.6 L 203.4 13.3 Z M 202.2 11.5 L 201.5 9.3 L 200.8 11.5 L 202.2 11.5 Z M 205.3 13.3 L 204.7 13.3 L 204.7 8.6 L 205.3 8.6 L 205.3 13.3 Z M 209.9 12.8 L 209.9 13.3 L 207.2 13.3 L 207.2 8.6 L 207.8 8.6 L 207.8 12.8 L 209.9 12.8 Z M 214.4 13.3 L 213.8 13.3 L 213.4 11.9 L 211.6 11.9 L 211.2 13.3 L 210.7 13.3 L 212.2 8.6 L 212.9 8.6 L 214.4 13.3 Z M 213.2 11.5 L 212.5 9.3 L 211.8 11.5 L 213.2 11.5 Z M 219.2 13.3 L 218.6 13.3 L 216.2 9.2 C 216.2 9.2 216.19 9.54 216.2 9.5 C 216.2 9.7 216.2 9.8 216.2 9.8 C 216.2 9.84 216.2 13.3 216.2 13.3 L 215.7 13.3 L 215.7 8.6 L 216.5 8.6 L 218.7 12.4 C 218.7 12.4 218.71 12.11 218.7 12.1 C 218.7 12 218.7 11.9 218.7 11.8 C 218.71 11.78 218.7 8.6 218.7 8.6 L 219.2 8.6 L 219.2 13.3 Z M 224.5 10.9 L 224.5 13.4 L 224.1 13.4 C 224.1 13.4 223.97 12.78 224 12.8 C 223.7 13.2 223.3 13.4 222.7 13.4 C 222.1 13.4 221.6 13.2 221.3 12.7 C 220.9 12.2 220.7 11.7 220.7 11 C 220.7 10.3 220.9 9.7 221.3 9.2 C 221.6 8.8 222.1 8.5 222.8 8.5 C 223.6 8.5 224.2 9 224.4 9.9 C 224.4 9.9 223.9 10 223.9 10 C 223.8 9.7 223.7 9.4 223.4 9.3 C 223.2 9.1 223 9 222.7 9 C 222.3 9 221.9 9.2 221.7 9.6 C 221.5 10 221.4 10.4 221.4 11 C 221.4 11.6 221.5 12.1 221.7 12.4 C 222 12.8 222.3 12.9 222.7 12.9 C 223.1 12.9 223.3 12.8 223.6 12.6 C 223.8 12.4 223.9 12.1 223.9 11.7 C 223.9 11.6 223.9 11.5 223.9 11.4 C 223.89 11.44 222.7 11.4 222.7 11.4 L 222.7 10.9 L 224.5 10.9 Z M 229.4 13.3 L 228.8 13.3 L 228.4 11.9 L 226.6 11.9 L 226.2 13.3 L 225.7 13.3 L 227.3 8.6 L 227.9 8.6 L 229.4 13.3 Z M 228.2 11.5 L 227.5 9.3 L 226.8 11.5 L 228.2 11.5 Z M 234.2 13.3 L 233.6 13.3 L 231.2 9.2 C 231.2 9.2 231.21 9.54 231.2 9.5 C 231.2 9.7 231.2 9.8 231.2 9.8 C 231.22 9.84 231.2 13.3 231.2 13.3 L 230.7 13.3 L 230.7 8.6 L 231.5 8.6 L 233.7 12.4 C 233.7 12.4 233.73 12.11 233.7 12.1 C 233.7 12 233.7 11.9 233.7 11.8 C 233.72 11.78 233.7 8.6 233.7 8.6 L 234.2 8.6 L 234.2 13.3 Z M 236.7 12.5 L 236.7 13.3 L 236 13.3 L 236 12.5 L 236.7 12.5 Z " stroke="none" fill="#000"/>
  </g>
  <g id="Polygon17846">
    <path d="M 71.7 4.9 L 71.2 4.9 L 71.2 0.8 L 69.6 4.9 L 69.3 4.9 L 67.7 0.8 L 67.7 4.9 L 67.2 4.9 L 67.2 0.2 L 68.1 0.2 L 69.5 4 L 70.9 0.2 L 71.7 0.2 L 71.7 4.9 Z M 76.7 4.9 L 76.1 4.9 L 75.7 3.5 L 73.9 3.5 L 73.5 4.9 L 73 4.9 L 74.6 0.2 L 75.2 0.2 L 76.7 4.9 Z M 75.5 3.1 L 74.8 0.9 L 74.1 3.1 L 75.5 3.1 Z M 81.4 4.9 L 80.8 4.9 L 80.8 2.7 L 78.6 2.7 L 78.6 4.9 L 78 4.9 L 78 0.2 L 78.6 0.2 L 78.6 2.2 L 80.8 2.2 L 80.8 0.2 L 81.4 0.2 L 81.4 4.9 Z M 83.8 4.9 L 83.2 4.9 L 83.2 0.2 L 83.8 0.2 L 83.8 4.9 Z M 89.1 4.9 L 88.4 4.9 L 87.6 2.9 L 86.2 2.9 L 86.2 4.9 L 85.7 4.9 L 85.7 0.2 C 85.7 0.2 87.53 0.24 87.5 0.2 C 88 0.2 88.4 0.4 88.6 0.6 C 88.9 0.9 89 1.2 89 1.5 C 89 1.8 88.9 2 88.8 2.3 C 88.7 2.5 88.4 2.6 88.1 2.7 C 88.13 2.74 89.1 4.9 89.1 4.9 Z M 86.2 2.4 C 86.2 2.4 87.46 2.41 87.5 2.4 C 87.8 2.4 88 2.3 88.2 2.2 C 88.3 2 88.4 1.8 88.4 1.5 C 88.4 1.3 88.3 1.1 88.2 1 C 88 0.8 87.8 0.7 87.5 0.7 C 87.53 0.75 86.2 0.7 86.2 0.7 L 86.2 2.4 Z M 93.8 4.9 L 93.2 4.9 L 92.8 3.5 L 91 3.5 L 90.6 4.9 L 90.1 4.9 L 91.6 0.2 L 92.3 0.2 L 93.8 4.9 Z M 92.6 3.1 L 91.9 0.9 L 91.2 3.1 L 92.6 3.1 Z M 95.7 4.9 L 95.1 4.9 L 95.1 0.2 C 95.1 0.2 96.79 0.24 96.8 0.2 C 97.3 0.2 97.7 0.4 97.9 0.7 C 98.2 0.9 98.3 1.3 98.3 1.6 C 98.3 2 98.2 2.4 97.9 2.6 C 97.6 2.9 97.3 3 96.8 3 C 96.85 3.01 95.7 3 95.7 3 L 95.7 4.9 Z M 95.7 2.5 C 95.7 2.5 96.79 2.52 96.8 2.5 C 97.1 2.5 97.3 2.4 97.5 2.3 C 97.6 2.1 97.7 1.9 97.7 1.6 C 97.7 1.4 97.6 1.2 97.5 1 C 97.3 0.8 97.1 0.7 96.8 0.7 C 96.83 0.72 95.7 0.7 95.7 0.7 L 95.7 2.5 Z M 106.7 4.9 L 106.1 4.9 L 106.1 0.8 L 104.6 4.9 L 104.2 4.9 L 102.7 0.8 L 102.7 4.9 L 102.2 4.9 L 102.2 0.2 L 103.1 0.2 L 104.5 4 L 105.8 0.2 L 106.7 0.2 L 106.7 4.9 Z M 111.7 4.9 L 111.1 4.9 L 110.6 3.5 L 108.9 3.5 L 108.5 4.9 L 108 4.9 L 109.5 0.2 L 110.2 0.2 L 111.7 4.9 Z M 110.5 3.1 L 109.8 0.9 L 109.1 3.1 L 110.5 3.1 Z M 116.3 2.5 L 116.3 5 L 115.9 5 C 115.9 5 115.77 4.38 115.8 4.4 C 115.5 4.8 115.1 5 114.5 5 C 113.9 5 113.4 4.8 113.1 4.3 C 112.7 3.8 112.5 3.3 112.5 2.6 C 112.5 1.9 112.7 1.3 113.1 0.8 C 113.4 0.4 113.9 0.1 114.6 0.1 C 115.4 0.1 116 0.6 116.2 1.5 C 116.2 1.5 115.7 1.6 115.7 1.6 C 115.6 1.3 115.5 1 115.2 0.9 C 115 0.7 114.8 0.6 114.5 0.6 C 114.1 0.6 113.7 0.8 113.5 1.2 C 113.3 1.6 113.2 2 113.2 2.6 C 113.2 3.2 113.3 3.7 113.5 4 C 113.8 4.4 114.1 4.5 114.5 4.5 C 114.9 4.5 115.1 4.4 115.4 4.2 C 115.6 4 115.7 3.7 115.7 3.3 C 115.7 3.2 115.7 3.1 115.7 3 C 115.69 3.04 114.5 3 114.5 3 L 114.5 2.5 L 116.3 2.5 Z M 118.1 4.9 L 118.1 0.2 C 118.1 0.2 119.91 0.24 119.9 0.2 C 120.4 0.2 120.7 0.3 120.9 0.6 C 121.2 0.8 121.3 1.1 121.3 1.4 C 121.3 1.9 121 2.2 120.5 2.4 C 120.8 2.5 121 2.7 121.2 2.9 C 121.3 3.1 121.4 3.3 121.4 3.6 C 121.4 4 121.3 4.3 121.1 4.5 C 120.8 4.8 120.4 4.9 119.9 4.9 C 119.91 4.9 118.1 4.9 118.1 4.9 Z M 118.6 2.2 C 118.6 2.2 119.64 2.24 119.6 2.2 C 120.1 2.2 120.3 2.2 120.5 2 C 120.6 1.8 120.7 1.6 120.7 1.4 C 120.7 1.2 120.6 1 120.5 0.9 C 120.3 0.8 120.1 0.7 119.8 0.7 C 119.79 0.71 118.6 0.7 118.6 0.7 L 118.6 2.2 Z M 118.6 4.4 C 118.6 4.4 119.88 4.39 119.9 4.4 C 120.2 4.4 120.4 4.3 120.6 4.2 C 120.8 4 120.8 3.8 120.8 3.6 C 120.8 3.4 120.8 3.3 120.7 3.1 C 120.6 3 120.5 2.9 120.4 2.8 C 120.3 2.7 120.1 2.7 119.8 2.7 C 119.79 2.68 118.6 2.7 118.6 2.7 L 118.6 4.4 Z M 123.6 4.9 L 123 4.9 L 123 0.2 L 123.6 0.2 L 123.6 4.9 Z M 128.9 4.9 L 128.3 4.9 L 125.9 0.8 C 125.9 0.8 125.91 1.14 125.9 1.1 C 125.9 1.3 125.9 1.4 125.9 1.4 C 125.92 1.44 125.9 4.9 125.9 4.9 L 125.4 4.9 L 125.4 0.2 L 126.2 0.2 L 128.4 4 C 128.4 4 128.43 3.71 128.4 3.7 C 128.4 3.6 128.4 3.5 128.4 3.4 C 128.42 3.38 128.4 0.2 128.4 0.2 L 128.9 0.2 L 128.9 4.9 Z M 134.2 2.5 L 134.2 5 L 133.8 5 C 133.8 5 133.68 4.38 133.7 4.4 C 133.4 4.8 133 5 132.4 5 C 131.8 5 131.3 4.8 131 4.3 C 130.6 3.8 130.5 3.3 130.5 2.6 C 130.5 1.9 130.6 1.3 131 0.8 C 131.4 0.4 131.9 0.1 132.5 0.1 C 133.3 0.1 133.9 0.6 134.2 1.5 C 134.2 1.5 133.6 1.6 133.6 1.6 C 133.5 1.3 133.4 1 133.2 0.9 C 132.9 0.7 132.7 0.6 132.4 0.6 C 132 0.6 131.6 0.8 131.4 1.2 C 131.2 1.6 131.1 2 131.1 2.6 C 131.1 3.2 131.2 3.7 131.5 4 C 131.7 4.4 132 4.5 132.5 4.5 C 132.8 4.5 133.1 4.4 133.3 4.2 C 133.5 4 133.6 3.7 133.6 3.3 C 133.6 3.2 133.6 3.1 133.6 3 C 133.6 3.04 132.4 3 132.4 3 L 132.4 2.5 L 134.2 2.5 Z M 136.6 4.9 L 136 4.9 L 136 0.2 L 136.6 0.2 L 136.6 4.9 Z M 139.5 2.9 L 139.5 3.4 L 137.9 3.4 L 137.9 2.9 L 139.5 2.9 Z M 140.9 4.9 L 140.9 0.2 C 140.9 0.2 142.72 0.24 142.7 0.2 C 143.2 0.2 143.5 0.3 143.8 0.6 C 144 0.8 144.1 1.1 144.1 1.4 C 144.1 1.9 143.8 2.2 143.3 2.4 C 143.6 2.5 143.8 2.7 144 2.9 C 144.2 3.1 144.2 3.3 144.2 3.6 C 144.2 4 144.1 4.3 143.9 4.5 C 143.6 4.8 143.2 4.9 142.7 4.9 C 142.72 4.9 140.9 4.9 140.9 4.9 Z M 141.4 2.2 C 141.4 2.2 142.45 2.24 142.5 2.2 C 142.9 2.2 143.2 2.2 143.3 2 C 143.4 1.8 143.5 1.6 143.5 1.4 C 143.5 1.2 143.4 1 143.3 0.9 C 143.1 0.8 142.9 0.7 142.6 0.7 C 142.61 0.71 141.4 0.7 141.4 0.7 L 141.4 2.2 Z M 141.4 4.4 C 141.4 4.4 142.69 4.39 142.7 4.4 C 143 4.4 143.2 4.3 143.4 4.2 C 143.6 4 143.6 3.8 143.6 3.6 C 143.6 3.4 143.6 3.3 143.5 3.1 C 143.5 3 143.4 2.9 143.2 2.8 C 143.1 2.7 142.9 2.7 142.6 2.7 C 142.61 2.68 141.4 2.7 141.4 2.7 L 141.4 4.4 Z M 146.4 4.9 L 145.8 4.9 L 145.8 0.2 L 146.4 0.2 L 146.4 4.9 Z M 151.7 4.9 L 151.1 4.9 L 148.7 0.8 C 148.7 0.8 148.72 1.14 148.7 1.1 C 148.7 1.3 148.7 1.4 148.7 1.4 C 148.73 1.44 148.7 4.9 148.7 4.9 L 148.3 4.9 L 148.3 0.2 L 149 0.2 L 151.2 4 C 151.2 4 151.24 3.71 151.2 3.7 C 151.2 3.6 151.2 3.5 151.2 3.4 C 151.23 3.38 151.2 0.2 151.2 0.2 L 151.7 0.2 L 151.7 4.9 Z M 157 2.5 L 157 5 L 156.7 5 C 156.7 5 156.5 4.38 156.5 4.4 C 156.2 4.8 155.8 5 155.2 5 C 154.6 5 154.1 4.8 153.8 4.3 C 153.4 3.8 153.3 3.3 153.3 2.6 C 153.3 1.9 153.4 1.3 153.8 0.8 C 154.2 0.4 154.7 0.1 155.3 0.1 C 156.1 0.1 156.7 0.6 157 1.5 C 157 1.5 156.4 1.6 156.4 1.6 C 156.3 1.3 156.2 1 156 0.9 C 155.7 0.7 155.5 0.6 155.2 0.6 C 154.8 0.6 154.4 0.8 154.2 1.2 C 154 1.6 153.9 2 153.9 2.6 C 153.9 3.2 154 3.7 154.3 4 C 154.5 4.4 154.8 4.5 155.3 4.5 C 155.6 4.5 155.9 4.4 156.1 4.2 C 156.3 4 156.4 3.7 156.4 3.3 C 156.4 3.2 156.4 3.1 156.4 3 C 156.41 3.04 155.3 3 155.3 3 L 155.3 2.5 L 157 2.5 Z M 159.4 4.9 L 158.8 4.9 L 158.8 0.2 L 159.4 0.2 L 159.4 4.9 Z M 164.6 4.9 L 164 4.9 L 164 2.7 L 161.8 2.7 L 161.8 4.9 L 161.2 4.9 L 161.2 0.2 L 161.8 0.2 L 161.8 2.2 L 164 2.2 L 164 0.2 L 164.6 0.2 L 164.6 4.9 Z M 169.6 4.9 L 169 4.9 L 168.5 3.5 L 166.8 3.5 L 166.4 4.9 L 165.9 4.9 L 167.4 0.2 L 168.1 0.2 L 169.6 4.9 Z M 168.4 3.1 L 167.7 0.9 L 166.9 3.1 L 168.4 3.1 Z M 174.3 4.9 L 173.8 4.9 L 171.3 0.8 C 171.3 0.8 171.35 1.14 171.3 1.1 C 171.4 1.3 171.4 1.4 171.4 1.4 C 171.36 1.44 171.4 4.9 171.4 4.9 L 170.9 4.9 L 170.9 0.2 L 171.6 0.2 L 173.9 4 C 173.9 4 173.86 3.71 173.9 3.7 C 173.9 3.6 173.9 3.5 173.9 3.4 C 173.86 3.38 173.9 0.2 173.9 0.2 L 174.3 0.2 L 174.3 4.9 Z M 180 5 C 179.1 5 178.4 4.6 178.1 3.7 C 178.1 3.7 178.6 3.5 178.6 3.5 C 178.9 4.2 179.3 4.5 180 4.5 C 180.4 4.5 180.7 4.4 180.9 4.3 C 181 4.1 181.1 3.9 181.1 3.6 C 181.1 3.4 181.1 3.3 180.9 3.2 C 180.8 3 180.6 3 180.4 2.9 C 180.4 2.9 179.5 2.7 179.5 2.7 C 179.3 2.6 179.1 2.5 178.9 2.5 C 178.8 2.4 178.6 2.2 178.5 2 C 178.4 1.9 178.4 1.7 178.4 1.4 C 178.4 1 178.5 0.7 178.8 0.5 C 179.1 0.3 179.5 0.1 179.9 0.1 C 180.8 0.1 181.3 0.5 181.6 1.3 C 181.6 1.3 181.1 1.4 181.1 1.4 C 181 1.2 180.9 1 180.6 0.8 C 180.4 0.7 180.2 0.6 179.9 0.6 C 179.7 0.6 179.4 0.7 179.2 0.8 C 179 1 178.9 1.1 178.9 1.4 C 178.9 1.7 179.2 2 179.7 2.1 C 179.7 2.1 180.6 2.3 180.6 2.3 C 181.4 2.5 181.8 2.9 181.8 3.6 C 181.8 4 181.6 4.3 181.3 4.6 C 181 4.9 180.6 5 180 5 C 180 5 180 5 180 5 Z M 186.5 4.9 L 185.9 4.9 L 185.4 3.5 L 183.7 3.5 L 183.2 4.9 L 182.8 4.9 L 184.3 0.2 L 184.9 0.2 L 186.5 4.9 Z M 185.3 3.1 L 184.5 0.9 L 183.8 3.1 L 185.3 3.1 Z M 193.9 4.9 L 193.3 4.9 L 191.9 2.3 L 190.8 3.7 L 190.8 4.9 L 190.2 4.9 L 190.2 0.2 L 190.8 0.2 L 190.8 2.9 L 192.9 0.2 L 193.5 0.2 L 192.3 1.9 L 193.9 4.9 Z M 198.5 4.9 L 197.9 4.9 L 197.4 3.5 L 195.7 3.5 L 195.2 4.9 L 194.8 4.9 L 196.3 0.2 L 196.9 0.2 L 198.5 4.9 Z M 197.3 3.1 L 196.5 0.9 L 195.8 3.1 L 197.3 3.1 Z M 200.7 4.9 L 200.1 4.9 L 200.1 0.7 L 198.8 0.7 L 198.8 0.2 L 202 0.2 L 202 0.7 L 200.7 0.7 L 200.7 4.9 Z M 204.8 5 C 204.2 5 203.7 4.8 203.4 4.3 C 203.1 3.8 202.9 3.3 202.9 2.6 C 202.9 1.9 203.1 1.3 203.4 0.8 C 203.8 0.4 204.2 0.1 204.8 0.1 C 205.4 0.1 205.8 0.4 206.2 0.8 C 206.5 1.3 206.7 1.8 206.7 2.5 C 206.7 3.2 206.6 3.8 206.2 4.3 C 205.9 4.8 205.4 5 204.8 5 Z M 204.8 4.5 C 205.2 4.5 205.5 4.3 205.8 4 C 206 3.6 206.1 3.1 206.1 2.5 C 206.1 1.9 206 1.5 205.8 1.1 C 205.5 0.8 205.2 0.6 204.8 0.6 C 204.4 0.6 204.1 0.8 203.9 1.2 C 203.6 1.5 203.5 2 203.5 2.6 C 203.5 3.2 203.6 3.6 203.9 4 C 204.1 4.3 204.4 4.5 204.8 4.5 Z M 209.5 4.9 L 208.9 4.9 L 208.9 0.7 L 207.6 0.7 L 207.6 0.2 L 210.8 0.2 L 210.8 0.7 L 209.5 0.7 L 209.5 4.9 Z M 213.6 5 C 213 5 212.5 4.8 212.2 4.3 C 211.9 3.8 211.7 3.3 211.7 2.6 C 211.7 1.9 211.9 1.3 212.2 0.8 C 212.6 0.4 213 0.1 213.6 0.1 C 214.2 0.1 214.6 0.4 215 0.8 C 215.3 1.3 215.5 1.8 215.5 2.5 C 215.5 3.2 215.3 3.8 215 4.3 C 214.7 4.8 214.2 5 213.6 5 Z M 213.6 4.5 C 214 4.5 214.3 4.3 214.6 4 C 214.8 3.6 214.9 3.1 214.9 2.5 C 214.9 1.9 214.8 1.5 214.5 1.1 C 214.3 0.8 214 0.6 213.6 0.6 C 213.2 0.6 212.9 0.8 212.6 1.2 C 212.4 1.5 212.3 2 212.3 2.6 C 212.3 3.2 212.4 3.6 212.7 4 C 212.9 4.3 213.2 4.5 213.6 4.5 Z M 220.4 4.9 L 219.8 4.9 L 219.8 2.7 L 217.7 2.7 L 217.7 4.9 L 217.1 4.9 L 217.1 0.2 L 217.7 0.2 L 217.7 2.2 L 219.8 2.2 L 219.8 0.2 L 220.4 0.2 L 220.4 4.9 Z M 225.4 4.9 L 224.8 4.9 L 224.4 3.5 L 222.6 3.5 L 222.2 4.9 L 221.7 4.9 L 223.2 0.2 L 223.9 0.2 L 225.4 4.9 Z M 224.2 3.1 L 223.5 0.9 L 222.8 3.1 L 224.2 3.1 Z M 230.2 4.9 L 229.6 4.9 L 227.2 0.8 C 227.2 0.8 227.2 1.14 227.2 1.1 C 227.2 1.3 227.2 1.4 227.2 1.4 C 227.21 1.44 227.2 4.9 227.2 4.9 L 226.7 4.9 L 226.7 0.2 L 227.5 0.2 L 229.7 4 C 229.7 4 229.72 3.71 229.7 3.7 C 229.7 3.6 229.7 3.5 229.7 3.4 C 229.72 3.38 229.7 0.2 229.7 0.2 L 230.2 0.2 L 230.2 4.9 Z M 235.2 4.9 L 234.6 4.9 L 234.1 3.5 L 232.4 3.5 L 232 4.9 L 231.5 4.9 L 233 0.2 L 233.7 0.2 L 235.2 4.9 Z M 234 3.1 L 233.3 0.9 L 232.5 3.1 L 234 3.1 Z M 239.9 4.9 L 239.4 4.9 L 236.9 0.8 C 236.9 0.8 236.95 1.14 237 1.1 C 237 1.3 237 1.4 237 1.4 C 236.96 1.44 237 4.9 237 4.9 L 236.5 4.9 L 236.5 0.2 L 237.2 0.2 L 239.5 4 C 239.5 4 239.47 3.71 239.5 3.7 C 239.5 3.6 239.5 3.5 239.5 3.4 C 239.47 3.38 239.5 0.2 239.5 0.2 L 239.9 0.2 L 239.9 4.9 Z M 242.5 4.1 L 242.5 4.9 L 241.7 4.9 L 241.7 4.1 L 242.5 4.1 Z " stroke="none" fill="#000"/>
  </g>
</svg>