<?xml version="1.0" standalone="no"?>
<!DOCTYPE svg PUBLIC "-//W3C//DTD SVG 1.1//EN" "http://www.w3.org/Graphics/SVG/1.1/DTD/svg11.dtd">
<svg xmlns="http://www.w3.org/2000/svg" version="1.1" width="470.2px" height="31.8px" viewBox="0 -7 470.2 31.8" style="top:-7px">
  <desc>#LabanPilipinas:</desc>
  <defs/>
  <g id="Polygon38622">
    <path d="M 3.4 0.7 L 5.1 0.7 L 4.5 4.5 L 6.5 4.5 L 7.1 0.7 L 8.8 0.7 L 8.2 4.5 L 10 4.5 L 9.8 6.1 L 8 6.1 L 7.7 8.3 L 9.5 8.3 L 9.2 9.9 L 7.4 9.9 L 6.8 14 L 5.1 14 L 5.7 9.9 L 3.7 9.9 L 3.1 14 L 1.4 14 L 2 9.9 L 0.2 9.9 L 0.4 8.3 L 2.2 8.3 L 2.6 6.1 L 0.8 6.1 L 1 4.5 L 2.8 4.5 L 3.4 0.7 Z M 4.3 6.1 L 4 8.3 L 5.9 8.3 L 6.3 6.1 L 4.3 6.1 Z M 11.5 0.7 L 14.4 0.7 L 14.4 11.5 L 18.7 11.5 L 18.7 14 L 11.5 14 L 11.5 0.7 Z M 22.4 0.7 L 25.3 0.7 L 29.1 14 L 26.1 14 L 25.5 11.3 L 21.7 11.3 L 21 14 L 18.3 14 L 22.4 0.7 Z M 24.9 9 L 23.6 3.5 L 22.3 9 L 24.9 9 Z M 30.2 0.7 C 30.2 0.7 34.78 0.67 34.8 0.7 C 35.8 0.7 36.6 0.8 37.2 0.9 C 37.7 1.1 38.2 1.5 38.6 2 C 38.9 2.6 39.1 3.3 39.1 4.2 C 39.1 5.7 38.5 6.6 37.2 7.1 C 38.7 7.6 39.5 8.7 39.5 10.3 C 39.5 11.2 39.3 11.9 38.9 12.5 C 38.4 13.1 37.9 13.5 37.3 13.7 C 36.7 13.9 35.9 14 34.8 14 C 34.78 14 30.2 14 30.2 14 L 30.2 0.7 Z M 33 6.1 C 33 6.1 33.98 6.05 34 6.1 C 34.9 6.1 35.5 5.9 35.8 5.5 C 36 5.2 36.1 4.8 36.1 4.4 C 36.1 4 36 3.6 35.8 3.3 C 35.5 3 35 2.8 34.2 2.8 C 34.2 2.83 33 2.8 33 2.8 L 33 6.1 Z M 33 11.7 C 33 11.7 34.47 11.72 34.5 11.7 C 35.8 11.7 36.5 11.1 36.5 10 C 36.5 9.3 36.3 8.9 36 8.6 C 35.7 8.3 35.1 8.2 34.5 8.2 C 34.47 8.21 33 8.2 33 8.2 L 33 11.7 Z M 43.8 0.7 L 46.8 0.7 L 50.6 14 L 47.6 14 L 46.9 11.3 L 43.2 11.3 L 42.5 14 L 39.8 14 L 43.8 0.7 Z M 46.4 9 L 45 3.5 L 43.7 9 L 46.4 9 Z M 51.6 0.7 L 54.8 0.7 L 58.3 9 L 58.3 0.7 L 60.5 0.7 L 60.5 14 L 57.9 14 L 53.8 4.4 L 53.8 14 L 51.6 14 L 51.6 0.7 Z M 62.9 0.7 C 62.9 0.7 66.77 0.67 66.8 0.7 C 67.9 0.7 68.8 0.8 69.5 1 C 70.1 1.2 70.7 1.6 71.1 2.3 C 71.5 3 71.7 3.8 71.7 4.8 C 71.7 5.8 71.6 6.6 71.2 7.3 C 70.9 7.9 70.4 8.4 69.8 8.6 C 69.1 8.9 68.2 9.1 66.9 9.1 C 66.89 9.07 65.9 9.1 65.9 9.1 L 65.9 14 L 62.9 14 L 62.9 0.7 Z M 65.9 2.8 L 65.9 6.8 C 65.9 6.8 66.77 6.79 66.8 6.8 C 67.6 6.8 68.1 6.6 68.3 6.2 C 68.5 5.9 68.7 5.4 68.7 4.8 C 68.7 4.3 68.6 3.9 68.4 3.6 C 68.2 3.3 68 3.1 67.8 3 C 67.5 2.9 67.2 2.8 66.8 2.8 C 66.77 2.83 65.9 2.8 65.9 2.8 Z M 73.2 0.7 L 76.1 0.7 L 76.1 14 L 73.2 14 L 73.2 0.7 Z M 78.6 0.7 L 81.5 0.7 L 81.5 11.5 L 85.8 11.5 L 85.8 14 L 78.6 14 L 78.6 0.7 Z M 87.1 0.7 L 90 0.7 L 90 14 L 87.1 14 L 87.1 0.7 Z M 92.6 0.7 C 92.6 0.7 96.41 0.67 96.4 0.7 C 97.6 0.7 98.5 0.8 99.1 1 C 99.8 1.2 100.3 1.6 100.7 2.3 C 101.2 3 101.4 3.8 101.4 4.8 C 101.4 5.8 101.2 6.6 100.9 7.3 C 100.5 7.9 100 8.4 99.4 8.6 C 98.8 8.9 97.8 9.1 96.5 9.1 C 96.53 9.07 95.5 9.1 95.5 9.1 L 95.5 14 L 92.6 14 L 92.6 0.7 Z M 95.5 2.8 L 95.5 6.8 C 95.5 6.8 96.41 6.79 96.4 6.8 C 97.2 6.8 97.7 6.6 98 6.2 C 98.2 5.9 98.3 5.4 98.3 4.8 C 98.3 4.3 98.2 3.9 98 3.6 C 97.9 3.3 97.6 3.1 97.4 3 C 97.2 2.9 96.8 2.8 96.4 2.8 C 96.41 2.83 95.5 2.8 95.5 2.8 Z M 102.8 0.7 L 105.7 0.7 L 105.7 14 L 102.8 14 L 102.8 0.7 Z M 108.1 0.7 L 111.4 0.7 L 114.8 9 L 114.8 0.7 L 117.1 0.7 L 117.1 14 L 114.5 14 L 110.4 4.4 L 110.4 14 L 108.1 14 L 108.1 0.7 Z M 122.2 0.7 L 125.2 0.7 L 129 14 L 126 14 L 125.3 11.3 L 121.6 11.3 L 120.9 14 L 118.2 14 L 122.2 0.7 Z M 124.8 9 L 123.4 3.5 L 122.1 9 L 124.8 9 Z M 133.9 0.5 C 136.2 0.5 137.7 1.5 138.2 3.6 C 138.2 3.6 135.8 4.5 135.8 4.5 C 135.5 3.4 134.8 2.9 133.9 2.9 C 133.5 2.9 133.2 3 132.9 3.2 C 132.7 3.5 132.5 3.7 132.5 4.1 C 132.5 4.4 132.7 4.8 133 5 C 133.3 5.2 133.9 5.5 134.8 5.9 C 135.7 6.2 136.4 6.5 136.9 6.8 C 137.4 7.1 137.7 7.5 138.1 8.1 C 138.4 8.6 138.5 9.2 138.5 10 C 138.5 11.2 138.1 12.2 137.2 13 C 136.4 13.8 135.2 14.2 133.8 14.2 C 131.4 14.2 129.8 13 129.2 10.5 C 129.2 10.5 131.7 9.8 131.7 9.8 C 132 11.2 132.7 11.8 133.8 11.8 C 134.4 11.8 134.8 11.7 135.1 11.4 C 135.4 11.2 135.6 10.8 135.6 10.4 C 135.6 10.1 135.4 9.8 135.2 9.5 C 135 9.3 134.5 9 133.7 8.7 C 132.7 8.3 131.9 8 131.4 7.7 C 130.9 7.4 130.5 7 130.2 6.4 C 129.9 5.9 129.7 5.3 129.7 4.6 C 129.7 3.4 130.1 2.4 130.8 1.6 C 131.6 0.9 132.6 0.5 133.9 0.5 C 133.9 0.5 133.9 0.5 133.9 0.5 Z M 140.2 4.1 L 143 4.1 L 143 7.1 L 140.2 7.1 L 140.2 4.1 Z M 140.2 11.1 L 143 11.1 L 143 14 L 140.2 14 L 140.2 11.1 Z " stroke="none" fill="#000"/>
  </g>
</svg>