<?xml version="1.0" standalone="no"?>
<!DOCTYPE svg PUBLIC "-//W3C//DTD SVG 1.1//EN" "http://www.w3.org/Graphics/SVG/1.1/DTD/svg11.dtd">
<svg xmlns="http://www.w3.org/2000/svg" version="1.1" width="792px" height="107.3px" viewBox="0 -17 792 107.3" style="top:-17px">
  <desc>BUHAY AT KULTURA</desc>
  <defs/>
  <g id="Polygon26781">
    <path d="M 22.5 19.8 C 22.5 9.3 22.5 7.4 22.3 5.2 C 22.2 2.8 21.6 1.7 19.4 1.2 C 18.8 1.1 17.6 1 16.7 1 C 15.9 1 15.5 0.9 15.5 0.4 C 15.5 -0.1 16 -0.2 17 -0.2 C 20.7 -0.2 25 0 26.4 0 C 29.8 0 32.5 -0.2 34.8 -0.2 C 47.3 -0.2 49.5 6.5 49.5 10.1 C 49.5 15.8 46.3 19.2 42.5 22.2 C 48.1 24.2 55 29 55 37.1 C 55 44.5 49.3 52.2 36.6 52.2 C 35.8 52.2 33.8 52 31.8 52 C 29.7 51.8 27.6 51.8 26.6 51.8 C 25.9 51.8 24.3 51.8 22.7 51.8 C 21.1 51.8 19.3 52 17.9 52 C 17 52 16.5 51.8 16.5 51.3 C 16.5 50.9 16.8 50.7 17.6 50.7 C 18.7 50.7 19.5 50.6 20.1 50.4 C 21.5 50.2 21.9 48.6 22.1 46.6 C 22.5 43.7 22.5 38.3 22.5 31.9 C 22.5 31.9 22.5 19.8 22.5 19.8 Z M 30.8 21 C 30.8 21.5 31 21.7 31.2 21.7 C 31.9 21.9 32.9 21.9 34.5 21.9 C 36.8 21.9 38.3 21.7 39.4 20.6 C 41.2 19.2 42.3 16.7 42.3 13.3 C 42.3 8.7 39.6 2.6 33.7 2.6 C 32.7 2.6 32.1 2.6 31.4 2.8 C 30.9 2.9 30.8 3.2 30.8 3.9 C 30.8 3.9 30.8 21 30.8 21 Z M 39.9 26.5 C 38.4 25.5 36.8 25 34.1 24.8 C 32.9 24.8 32.2 24.8 31.2 24.8 C 30.9 24.8 30.8 24.9 30.8 25.3 C 30.8 25.3 30.8 41.6 30.8 41.6 C 30.8 46.2 31 47.3 33.2 48.2 C 35 49 36.6 49.1 38.2 49.1 C 41.3 49.1 46.6 47.4 46.6 40.2 C 46.6 35.9 45.1 30.2 39.9 26.5 Z M 69 19.8 C 69 9.3 69 7.4 68.8 5.2 C 68.7 2.8 68.1 1.7 65.9 1.2 C 65.3 1.1 64.1 1 63.2 1 C 62.4 1 62 0.9 62 0.4 C 62 -0.1 62.5 -0.2 63.5 -0.2 C 67.2 -0.2 71.5 0 73.6 0 C 75.3 0 79.6 -0.2 82.1 -0.2 C 83.1 -0.2 83.6 -0.1 83.6 0.4 C 83.6 0.9 83.2 1 82.5 1 C 81.7 1 81.3 1.1 80.5 1.2 C 78.6 1.6 78.1 2.8 77.9 5.2 C 77.8 7.4 77.8 9.3 77.8 19.8 C 77.8 19.8 77.8 29.5 77.8 29.5 C 77.8 39.5 79.8 43.7 83.2 46.4 C 86.3 49 89.5 49.3 91.8 49.3 C 94.9 49.3 98.6 48.3 101.3 45.5 C 105.1 41.7 105.3 35.5 105.3 28.4 C 105.3 28.4 105.3 19.8 105.3 19.8 C 105.3 9.3 105.3 7.4 105.2 5.2 C 105.1 2.8 104.5 1.7 102.2 1.2 C 101.7 1.1 100.5 1 99.8 1 C 99 1 98.6 0.9 98.6 0.4 C 98.6 -0.1 99.1 -0.2 100 -0.2 C 103.5 -0.2 107.9 0 108 0 C 108.8 0 113.1 -0.2 115.8 -0.2 C 116.8 -0.2 117.3 -0.1 117.3 0.4 C 117.3 0.9 116.9 1 116 1 C 115.3 1 114.9 1.1 114 1.2 C 112.2 1.6 111.6 2.8 111.5 5.2 C 111.3 7.4 111.3 9.3 111.3 19.8 C 111.3 19.8 111.3 27.2 111.3 27.2 C 111.3 34.8 110.6 43 104.8 48 C 99.9 52.2 94.9 52.9 90.4 52.9 C 86.8 52.9 80.2 52.7 75.1 48.2 C 71.6 45 69 39.9 69 29.9 C 69 29.9 69 19.8 69 19.8 Z M 166.8 21.7 C 167 21.7 167.2 21.6 167.2 21.3 C 167.2 21.3 167.2 19.8 167.2 19.8 C 167.2 9.3 167.2 7.4 167.1 5.2 C 167 2.8 166.4 1.7 164.1 1.2 C 163.6 1.1 162.4 1 161.4 1 C 160.7 1 160.3 0.9 160.3 0.4 C 160.3 -0.1 160.7 -0.2 161.7 -0.2 C 165.4 -0.2 169.8 0 171.6 0 C 173.3 0 177.7 -0.2 180.3 -0.2 C 181.3 -0.2 181.8 -0.1 181.8 0.4 C 181.8 0.9 181.4 1 180.5 1 C 180 1 179.4 1.1 178.5 1.2 C 176.7 1.6 176.1 2.8 176 5.2 C 175.9 7.4 175.9 9.3 175.9 19.8 C 175.9 19.8 175.9 31.9 175.9 31.9 C 175.9 38.3 175.9 43.7 176.2 46.7 C 176.4 48.6 176.8 50.2 178.9 50.4 C 179.9 50.6 181.4 50.7 182.4 50.7 C 183.2 50.7 183.5 50.9 183.5 51.3 C 183.5 51.8 183 52 182.1 52 C 177.7 52 173.3 51.8 171.4 51.8 C 169.8 51.8 165.4 52 162.7 52 C 161.8 52 161.3 51.8 161.3 51.3 C 161.3 50.9 161.6 50.7 162.4 50.7 C 163.4 50.7 164.3 50.6 164.9 50.4 C 166.3 50.2 166.6 48.6 166.9 46.6 C 167.2 43.7 167.2 38.3 167.2 31.9 C 167.2 31.9 167.2 25.9 167.2 25.9 C 167.2 25.6 167 25.5 166.8 25.5 C 166.8 25.5 140.5 25.5 140.5 25.5 C 140.3 25.5 140 25.5 140 25.9 C 140 25.9 140 31.9 140 31.9 C 140 38.3 140 43.7 140.4 46.7 C 140.6 48.6 141 50.2 143.1 50.4 C 144 50.6 145.6 50.7 146.6 50.7 C 147.4 50.7 147.7 50.9 147.7 51.3 C 147.7 51.8 147.2 52 146.3 52 C 141.8 52 137.5 51.8 135.6 51.8 C 134 51.8 129.6 52 126.9 52 C 126 52 125.5 51.8 125.5 51.3 C 125.5 50.9 125.8 50.7 126.6 50.7 C 127.6 50.7 128.5 50.6 129.1 50.4 C 130.5 50.2 130.8 48.6 131.1 46.6 C 131.4 43.7 131.4 38.3 131.4 31.9 C 131.4 31.9 131.4 19.8 131.4 19.8 C 131.4 9.3 131.4 7.4 131.3 5.2 C 131.1 2.8 130.6 1.7 128.3 1.2 C 127.8 1.1 126.6 1 125.6 1 C 124.9 1 124.5 0.9 124.5 0.4 C 124.5 -0.1 124.9 -0.2 125.9 -0.2 C 129.6 -0.2 134 0 135.8 0 C 137.5 0 141.8 -0.2 144.5 -0.2 C 145.5 -0.2 146 -0.1 146 0.4 C 146 0.9 145.6 1 144.7 1 C 144.2 1 143.6 1.1 142.7 1.2 C 140.9 1.6 140.3 2.8 140.2 5.2 C 140 7.4 140 9.3 140 19.8 C 140 19.8 140 21.3 140 21.3 C 140 21.6 140.3 21.7 140.5 21.7 C 140.5 21.7 166.8 21.7 166.8 21.7 Z M 201.9 33.9 C 201.6 33.9 201.5 34.1 201.3 34.5 C 201.3 34.5 197.6 44.4 197.6 44.4 C 196.9 46.1 196.6 47.7 196.6 48.6 C 196.6 49.8 197.2 50.7 199.3 50.7 C 199.3 50.7 200.4 50.7 200.4 50.7 C 201.2 50.7 201.4 50.9 201.4 51.3 C 201.4 51.8 201 52 200.2 52 C 198 52 195 51.8 192.9 51.8 C 192.1 51.8 188.3 52 184.8 52 C 183.9 52 183.4 51.8 183.4 51.3 C 183.4 50.9 183.7 50.7 184.3 50.7 C 184.9 50.7 185.9 50.6 186.4 50.6 C 189.6 50.2 190.9 47.8 192.3 44.4 C 192.3 44.4 209.6 1 209.6 1 C 210.4 -1 210.8 -1.7 211.5 -1.7 C 212.2 -1.7 212.6 -1.1 213.3 0.5 C 214.9 4.3 226 32.4 230.4 42.9 C 233 49.1 235 50.1 236.4 50.4 C 237.5 50.6 238.5 50.7 239.3 50.7 C 239.9 50.7 240.2 50.8 240.2 51.3 C 240.2 51.8 239.6 52 237.1 52 C 234.6 52 229.5 52 224 51.8 C 222.8 51.8 221.9 51.8 221.9 51.3 C 221.9 50.9 222.2 50.7 222.9 50.6 C 223.4 50.5 223.9 49.9 223.5 49.1 C 223.5 49.1 218 34.4 218 34.4 C 217.9 34.1 217.7 33.9 217.3 33.9 C 217.3 33.9 201.9 33.9 201.9 33.9 Z M 216 30.5 C 216.4 30.5 216.4 30.3 216.4 30.1 C 216.4 30.1 210.1 13 210.1 13 C 210.1 12.8 210 12.4 209.8 12.4 C 209.6 12.4 209.5 12.8 209.4 13 C 209.4 13 203 30 203 30 C 203 30.3 203 30.5 203.3 30.5 C 203.3 30.5 216 30.5 216 30.5 Z M 253.5 34.1 C 253.5 30.4 252.8 28.8 251.9 26.8 C 251.4 25.7 242.2 10.6 239.8 7 C 238 4.4 236.3 2.7 235 1.9 C 234.1 1.4 232.9 1 232.1 1 C 231.5 1 231.1 0.9 231.1 0.4 C 231.1 0 231.5 -0.2 232.4 -0.2 C 233.6 -0.2 238.8 0 241.1 0 C 242.5 0 245.3 -0.2 248.4 -0.2 C 249.1 -0.2 249.5 0 249.5 0.4 C 249.5 0.8 249 0.9 248 1.2 C 247.3 1.3 247 1.9 247 2.4 C 247 3 247.3 3.8 247.8 4.8 C 248.8 6.8 258.5 23.5 259.6 25.4 C 260.2 23.7 268.9 8.6 269.9 6.4 C 270.6 4.9 270.9 3.7 270.9 2.8 C 270.9 2.1 270.6 1.4 269.4 1.1 C 268.8 1 268.2 0.8 268.2 0.4 C 268.2 -0.1 268.5 -0.2 269.4 -0.2 C 271.6 -0.2 273.8 0 275.8 0 C 277.4 0 281.9 -0.2 283.2 -0.2 C 284 -0.2 284.5 -0.1 284.5 0.3 C 284.5 0.8 283.9 1 283.2 1 C 282.5 1 281.2 1.3 280.1 1.9 C 278.7 2.6 277.9 3.4 276.4 5.2 C 274.1 8 264.5 24.2 263.2 27.2 C 262.2 29.7 262.2 31.8 262.2 34.1 C 262.2 34.1 262.2 39.7 262.2 39.7 C 262.2 40.8 262.2 43.7 262.4 46.6 C 262.5 48.6 263.1 50.2 265.2 50.4 C 266.2 50.6 267.7 50.7 268.7 50.7 C 269.4 50.7 269.8 50.9 269.8 51.3 C 269.8 51.8 269.2 52 268.3 52 C 264 52 259.6 51.8 257.8 51.8 C 256 51.8 251.7 52 249.1 52 C 248.2 52 247.6 51.8 247.6 51.3 C 247.6 50.9 248 50.7 248.7 50.7 C 249.7 50.7 250.5 50.6 251.1 50.4 C 252.5 50.2 253.1 48.6 253.3 46.6 C 253.5 43.7 253.5 40.8 253.5 39.7 C 253.5 39.7 253.5 34.1 253.5 34.1 Z M 316.8 33.9 C 316.5 33.9 316.3 34.1 316.2 34.5 C 316.2 34.5 312.5 44.4 312.5 44.4 C 311.8 46.1 311.4 47.7 311.4 48.6 C 311.4 49.8 312.1 50.7 314.2 50.7 C 314.2 50.7 315.2 50.7 315.2 50.7 C 316.1 50.7 316.3 50.9 316.3 51.3 C 316.3 51.8 315.9 52 315.1 52 C 312.9 52 309.9 51.8 307.8 51.8 C 307 51.8 303.2 52 299.6 52 C 298.7 52 298.3 51.8 298.3 51.3 C 298.3 50.9 298.6 50.7 299.2 50.7 C 299.8 50.7 300.7 50.6 301.3 50.6 C 304.5 50.2 305.8 47.8 307.2 44.4 C 307.2 44.4 324.5 1 324.5 1 C 325.3 -1 325.7 -1.7 326.4 -1.7 C 327 -1.7 327.4 -1.1 328.1 0.5 C 329.8 4.3 340.8 32.4 345.3 42.9 C 347.9 49.1 349.9 50.1 351.3 50.4 C 352.4 50.6 353.4 50.7 354.2 50.7 C 354.8 50.7 355.1 50.8 355.1 51.3 C 355.1 51.8 354.5 52 351.9 52 C 349.5 52 344.4 52 338.9 51.8 C 337.7 51.8 336.8 51.8 336.8 51.3 C 336.8 50.9 337.1 50.7 337.8 50.6 C 338.3 50.5 338.8 49.9 338.4 49.1 C 338.4 49.1 332.9 34.4 332.9 34.4 C 332.8 34.1 332.6 33.9 332.2 33.9 C 332.2 33.9 316.8 33.9 316.8 33.9 Z M 330.9 30.5 C 331.2 30.5 331.3 30.3 331.2 30.1 C 331.2 30.1 325 13 325 13 C 325 12.8 324.9 12.4 324.7 12.4 C 324.5 12.4 324.3 12.8 324.3 13 C 324.3 13 317.9 30 317.9 30 C 317.9 30.3 317.9 30.5 318.2 30.5 C 318.2 30.5 330.9 30.5 330.9 30.5 Z M 367.7 3.7 C 367.7 3.7 357.46 3.93 357.5 3.9 C 353.5 4.1 351.8 4.4 350.8 5.9 C 350.1 7 349.7 7.8 349.6 8.3 C 349.5 8.9 349.3 9.2 348.8 9.2 C 348.4 9.2 348.2 8.8 348.2 8.1 C 348.2 7 349.5 0.7 349.7 0.1 C 349.9 -0.8 350.1 -1.2 350.5 -1.2 C 351 -1.2 351.7 -0.5 353.5 -0.3 C 355.5 -0.1 358.1 0 360.4 0 C 360.4 0 387.7 0 387.7 0 C 389.9 0 391.4 -0.2 392.4 -0.3 C 393.5 -0.6 394 -0.7 394.3 -0.7 C 394.8 -0.7 394.9 -0.3 394.9 0.8 C 394.9 2.2 394.7 7 394.7 8.8 C 394.6 9.5 394.4 9.9 394 9.9 C 393.5 9.9 393.3 9.5 393.3 8.5 C 393.3 8.5 393.2 7.7 393.2 7.7 C 393.1 5.9 391.2 4 385.1 3.9 C 385.06 3.86 376.4 3.7 376.4 3.7 C 376.4 3.7 376.37 31.95 376.4 31.9 C 376.4 38.3 376.4 43.7 376.7 46.7 C 376.9 48.6 377.3 50.2 379.4 50.4 C 380.4 50.6 381.9 50.7 382.9 50.7 C 383.7 50.7 384 50.9 384 51.3 C 384 51.8 383.5 52 382.7 52 C 378.2 52 373.8 51.8 371.9 51.8 C 370.3 51.8 366 52 363.2 52 C 362.3 52 361.8 51.8 361.8 51.3 C 361.8 50.9 362.1 50.7 362.9 50.7 C 364 50.7 364.8 50.6 365.4 50.4 C 366.8 50.2 367.2 48.6 367.4 46.6 C 367.7 43.7 367.7 38.3 367.7 31.9 C 367.75 31.95 367.7 3.7 367.7 3.7 Z M 438.1 22.8 C 438.1 22.8 438.4 22.84 438.4 22.8 C 440.7 20.3 450.8 10 452.8 7.7 C 454.8 5.4 456.3 3.7 456.3 2.5 C 456.3 1.7 456 1.2 455.3 1.1 C 454.7 1 454.4 0.8 454.4 0.4 C 454.4 -0.1 454.8 -0.2 455.5 -0.2 C 457 -0.2 460.8 0 462.6 0 C 464.8 0 468.6 -0.2 470.7 -0.2 C 471.4 -0.2 471.9 -0.1 471.9 0.4 C 471.9 0.9 471.5 1 470.8 1 C 469.9 1 468.1 1.3 466.8 1.8 C 464.7 2.6 462.3 4.1 459.4 7 C 457.2 9 446.8 19.4 444.5 21.9 C 447 25.1 460.5 39.7 463.2 42.2 C 466.2 45.1 469.3 48.2 473 49.7 C 475.1 50.5 476.5 50.7 477.3 50.7 C 477.8 50.7 478.2 50.9 478.2 51.3 C 478.2 51.8 477.9 52 476.6 52 C 476.6 52 470.6 52 470.6 52 C 468.5 52 467.2 52 465.8 51.8 C 462.1 51.5 460.2 50 457.2 47.3 C 454.2 44.6 440.6 28.7 439.2 26.7 C 439.16 26.7 438.4 25.7 438.4 25.7 L 438.1 25.7 C 438.1 25.7 438.05 31.95 438.1 31.9 C 438.1 38.3 438.1 43.7 438.3 46.7 C 438.4 48.6 439 50.2 440.7 50.4 C 441.7 50.6 443.2 50.7 444.1 50.7 C 444.7 50.7 445 50.9 445 51.3 C 445 51.8 444.5 52 443.7 52 C 439.8 52 435.5 51.8 433.8 51.8 C 432.2 51.8 427.8 52 425.1 52 C 424.2 52 423.7 51.8 423.7 51.3 C 423.7 50.9 424 50.7 424.8 50.7 C 425.8 50.7 426.7 50.6 427.3 50.4 C 428.7 50.2 429 48.6 429.3 46.6 C 429.6 43.7 429.6 38.3 429.6 31.9 C 429.6 31.9 429.6 19.8 429.6 19.8 C 429.6 9.3 429.6 7.4 429.5 5.2 C 429.4 2.8 428.8 1.7 426.5 1.2 C 426 1.1 424.8 1 423.8 1 C 423.1 1 422.7 0.9 422.7 0.4 C 422.7 -0.1 423.2 -0.2 424.2 -0.2 C 427.8 -0.2 432.2 0 433.8 0 C 435.5 0 439.8 -0.2 442.2 -0.2 C 443.2 -0.2 443.6 -0.1 443.6 0.4 C 443.6 0.9 443.2 1 442.7 1 C 442 1 441.6 1.1 440.7 1.2 C 438.9 1.6 438.3 2.8 438.2 5.2 C 438.1 7.4 438.1 9.3 438.1 19.8 C 438.05 19.8 438.1 22.8 438.1 22.8 Z M 480.4 19.8 C 480.4 9.3 480.4 7.4 480.2 5.2 C 480.1 2.8 479.5 1.7 477.2 1.2 C 476.7 1.1 475.5 1 474.6 1 C 473.8 1 473.4 0.9 473.4 0.4 C 473.4 -0.1 473.9 -0.2 474.9 -0.2 C 478.6 -0.2 482.9 0 485 0 C 486.6 0 491 -0.2 493.5 -0.2 C 494.5 -0.2 495 -0.1 495 0.4 C 495 0.9 494.6 1 493.9 1 C 493.1 1 492.7 1.1 491.9 1.2 C 490 1.6 489.5 2.8 489.3 5.2 C 489.2 7.4 489.2 9.3 489.2 19.8 C 489.2 19.8 489.2 29.5 489.2 29.5 C 489.2 39.5 491.2 43.7 494.6 46.4 C 497.7 49 500.8 49.3 503.2 49.3 C 506.2 49.3 510 48.3 512.7 45.5 C 516.5 41.7 516.7 35.5 516.7 28.4 C 516.7 28.4 516.7 19.8 516.7 19.8 C 516.7 9.3 516.7 7.4 516.6 5.2 C 516.4 2.8 515.9 1.7 513.6 1.2 C 513.1 1.1 511.9 1 511.1 1 C 510.4 1 510 0.9 510 0.4 C 510 -0.1 510.4 -0.2 511.4 -0.2 C 514.9 -0.2 519.3 0 519.3 0 C 520.2 0 524.5 -0.2 527.2 -0.2 C 528.2 -0.2 528.7 -0.1 528.7 0.4 C 528.7 0.9 528.2 1 527.4 1 C 526.7 1 526.2 1.1 525.4 1.2 C 523.5 1.6 523 2.8 522.9 5.2 C 522.7 7.4 522.7 9.3 522.7 19.8 C 522.7 19.8 522.7 27.2 522.7 27.2 C 522.7 34.8 522 43 516.2 48 C 511.3 52.2 506.3 52.9 501.8 52.9 C 498.2 52.9 491.5 52.7 486.5 48.2 C 483 45 480.4 39.9 480.4 29.9 C 480.4 29.9 480.4 19.8 480.4 19.8 Z M 551.4 31.9 C 551.4 40.8 551.4 45.5 552.9 46.8 C 554 47.8 555.8 48.3 561.2 48.3 C 564.9 48.3 567.6 48.2 569.3 46.4 C 570.1 45.5 570.9 43.5 571.1 42.2 C 571.2 41.6 571.3 41.2 571.8 41.2 C 572.3 41.2 572.4 41.5 572.4 42.4 C 572.4 43.1 571.9 48.3 571.4 50.3 C 570.9 51.8 570.6 52.2 567 52.2 C 562 52.2 558.5 52 555.4 52 C 552.2 51.8 549.8 51.8 546.9 51.8 C 546.2 51.8 544.7 51.8 543 51.8 C 541.4 51.8 539.6 52 538.2 52 C 537.3 52 536.9 51.8 536.9 51.3 C 536.9 50.9 537.1 50.7 538 50.7 C 539 50.7 539.8 50.6 540.4 50.4 C 541.8 50.2 542.2 48.6 542.5 46.6 C 542.8 43.7 542.8 38.3 542.8 31.9 C 542.8 31.9 542.8 19.8 542.8 19.8 C 542.8 9.3 542.8 7.4 542.7 5.2 C 542.5 2.8 542 1.7 539.7 1.2 C 539.1 1.1 538.3 1 537.4 1 C 536.7 1 536.2 0.9 536.2 0.4 C 536.2 -0.1 536.7 -0.2 537.8 -0.2 C 541 -0.2 545.3 0 547.2 0 C 548.9 0 553.9 -0.2 556.6 -0.2 C 557.6 -0.2 558 -0.1 558 0.4 C 558 0.9 557.6 1 556.8 1 C 556 1 554.9 1.1 554.1 1.2 C 552.2 1.6 551.7 2.8 551.6 5.2 C 551.4 7.4 551.4 9.3 551.4 19.8 C 551.4 19.8 551.4 31.9 551.4 31.9 Z M 591.1 3.7 C 591.1 3.7 580.81 3.93 580.8 3.9 C 576.8 4.1 575.2 4.4 574.1 5.9 C 573.4 7 573.1 7.8 572.9 8.3 C 572.8 8.9 572.6 9.2 572.2 9.2 C 571.7 9.2 571.6 8.8 571.6 8.1 C 571.6 7 572.9 0.7 573 0.1 C 573.2 -0.8 573.4 -1.2 573.8 -1.2 C 574.4 -1.2 575.1 -0.5 576.8 -0.3 C 578.8 -0.1 581.4 0 583.7 0 C 583.7 0 611 0 611 0 C 613.2 0 614.8 -0.2 615.8 -0.3 C 616.8 -0.6 617.4 -0.7 617.7 -0.7 C 618.1 -0.7 618.2 -0.3 618.2 0.8 C 618.2 2.2 618 7 618 8.8 C 617.9 9.5 617.8 9.9 617.4 9.9 C 616.8 9.9 616.7 9.5 616.6 8.5 C 616.6 8.5 616.6 7.7 616.6 7.7 C 616.4 5.9 614.6 4 608.4 3.9 C 608.41 3.86 599.7 3.7 599.7 3.7 C 599.7 3.7 599.72 31.95 599.7 31.9 C 599.7 38.3 599.7 43.7 600.1 46.7 C 600.3 48.6 600.7 50.2 602.8 50.4 C 603.7 50.6 605.2 50.7 606.3 50.7 C 607 50.7 607.4 50.9 607.4 51.3 C 607.4 51.8 606.8 52 606.1 52 C 601.5 52 597.2 51.8 595.2 51.8 C 593.6 51.8 589.3 52 586.5 52 C 585.6 52 585.2 51.8 585.2 51.3 C 585.2 50.9 585.4 50.7 586.3 50.7 C 587.3 50.7 588.1 50.6 588.7 50.4 C 590.1 50.2 590.5 48.6 590.8 46.6 C 591.1 43.7 591.1 38.3 591.1 31.9 C 591.1 31.95 591.1 3.7 591.1 3.7 Z M 628.6 19.8 C 628.6 9.3 628.6 7.4 628.5 5.2 C 628.4 2.8 627.8 1.7 625.5 1.2 C 625 1.1 623.8 1 622.8 1 C 622.1 1 621.7 0.9 621.7 0.4 C 621.7 -0.1 622.1 -0.2 623.2 -0.2 C 626.8 -0.2 631.2 0 633.3 0 C 634.9 0 639.3 -0.2 641.7 -0.2 C 642.8 -0.2 643.3 -0.1 643.3 0.4 C 643.3 0.9 642.8 1 642.2 1 C 641.4 1 641 1.1 640.2 1.2 C 638.3 1.6 637.7 2.8 637.6 5.2 C 637.5 7.4 637.5 9.3 637.5 19.8 C 637.5 19.8 637.5 29.5 637.5 29.5 C 637.5 39.5 639.5 43.7 642.8 46.4 C 646 49 649.1 49.3 651.5 49.3 C 654.5 49.3 658.2 48.3 661 45.5 C 664.8 41.7 665 35.5 665 28.4 C 665 28.4 665 19.8 665 19.8 C 665 9.3 665 7.4 664.9 5.2 C 664.7 2.8 664.2 1.7 661.9 1.2 C 661.3 1.1 660.2 1 659.4 1 C 658.6 1 658.2 0.9 658.2 0.4 C 658.2 -0.1 658.7 -0.2 659.7 -0.2 C 663.2 -0.2 667.5 0 667.6 0 C 668.4 0 672.8 -0.2 675.5 -0.2 C 676.4 -0.2 676.9 -0.1 676.9 0.4 C 676.9 0.9 676.5 1 675.7 1 C 674.9 1 674.5 1.1 673.7 1.2 C 671.8 1.6 671.3 2.8 671.1 5.2 C 671 7.4 671 9.3 671 19.8 C 671 19.8 671 27.2 671 27.2 C 671 34.8 670.2 43 664.4 48 C 659.5 52.2 654.6 52.9 650.1 52.9 C 646.4 52.9 639.8 52.7 634.8 48.2 C 631.3 45 628.6 39.9 628.6 29.9 C 628.6 29.9 628.6 19.8 628.6 19.8 Z M 691.1 19.8 C 691.1 9.3 691.1 7.4 690.9 5.2 C 690.8 2.8 690.2 1.7 688 1.2 C 687.4 1.1 686.2 1 685.3 1 C 684.5 1 684.1 0.9 684.1 0.4 C 684.1 -0.1 684.6 -0.2 685.6 -0.2 C 689.3 -0.2 693.6 0 695.1 0 C 697.4 0 702.7 -0.2 704.8 -0.2 C 709.2 -0.2 713.8 0.2 717.5 2.8 C 719.4 4.1 722.2 7.6 722.2 12.2 C 722.2 17.3 720.1 22 713.1 27.7 C 719.2 35.4 724 41.5 728.1 45.8 C 731.9 49.8 734.8 50.3 735.8 50.5 C 736.5 50.6 737.2 50.7 737.7 50.7 C 738.3 50.7 738.5 50.9 738.5 51.3 C 738.5 51.8 738.1 52 737.2 52 C 737.2 52 730.7 52 730.7 52 C 726.8 52 725.1 51.6 723.3 50.6 C 720.3 49.1 717.7 45.8 713.8 40.5 C 711.1 36.7 707.9 32 707 31 C 706.7 30.6 706.3 30.5 705.8 30.5 C 705.8 30.5 699.8 30.4 699.8 30.4 C 699.4 30.4 699.2 30.5 699.2 30.9 C 699.2 30.9 699.2 31.9 699.2 31.9 C 699.2 38.3 699.2 43.7 699.6 46.6 C 699.8 48.6 700.2 50.2 702.3 50.4 C 703.3 50.6 704.8 50.7 705.6 50.7 C 706.2 50.7 706.5 50.9 706.5 51.3 C 706.5 51.8 706 52 705.1 52 C 701.1 52 696 51.8 694.9 51.8 C 693.6 51.8 689.3 52 686.5 52 C 685.6 52 685.1 51.8 685.1 51.3 C 685.1 50.9 685.4 50.7 686.2 50.7 C 687.3 50.7 688.1 50.6 688.7 50.4 C 690.1 50.2 690.5 48.6 690.7 46.6 C 691.1 43.7 691.1 38.3 691.1 31.9 C 691.1 31.9 691.1 19.8 691.1 19.8 Z M 699.2 25.3 C 699.2 26 699.4 26.3 699.8 26.5 C 701.3 27 703.4 27.2 705.1 27.2 C 707.8 27.2 708.7 26.9 710 26 C 712.1 24.5 714.1 21.3 714.1 15.7 C 714.1 5.9 707.6 3 703.5 3 C 701.8 3 700.5 3.1 699.8 3.3 C 699.4 3.5 699.2 3.7 699.2 4.3 C 699.2 4.3 699.2 25.3 699.2 25.3 Z M 746.6 33.9 C 746.3 33.9 746.1 34.1 746 34.5 C 746 34.5 742.3 44.4 742.3 44.4 C 741.6 46.1 741.2 47.7 741.2 48.6 C 741.2 49.8 741.9 50.7 744 50.7 C 744 50.7 745 50.7 745 50.7 C 745.9 50.7 746.1 50.9 746.1 51.3 C 746.1 51.8 745.7 52 744.9 52 C 742.7 52 739.7 51.8 737.6 51.8 C 736.8 51.8 733 52 729.4 52 C 728.5 52 728.1 51.8 728.1 51.3 C 728.1 50.9 728.4 50.7 729 50.7 C 729.6 50.7 730.5 50.6 731.1 50.6 C 734.3 50.2 735.6 47.8 737 44.4 C 737 44.4 754.3 1 754.3 1 C 755.1 -1 755.5 -1.7 756.2 -1.7 C 756.8 -1.7 757.2 -1.1 757.9 0.5 C 759.6 4.3 770.6 32.4 775 42.9 C 777.7 49.1 779.7 50.1 781.1 50.4 C 782.2 50.6 783.2 50.7 784 50.7 C 784.6 50.7 784.9 50.8 784.9 51.3 C 784.9 51.8 784.3 52 781.7 52 C 779.3 52 774.2 52 768.7 51.8 C 767.5 51.8 766.6 51.8 766.6 51.3 C 766.6 50.9 766.9 50.7 767.6 50.6 C 768.1 50.5 768.6 49.9 768.2 49.1 C 768.2 49.1 762.7 34.4 762.7 34.4 C 762.6 34.1 762.4 33.9 762 33.9 C 762 33.9 746.6 33.9 746.6 33.9 Z M 760.7 30.5 C 761 30.5 761.1 30.3 761 30.1 C 761 30.1 754.8 13 754.8 13 C 754.8 12.8 754.7 12.4 754.5 12.4 C 754.3 12.4 754.1 12.8 754.1 13 C 754.1 13 747.7 30 747.7 30 C 747.7 30.3 747.7 30.5 748 30.5 C 748 30.5 760.7 30.5 760.7 30.5 Z " stroke="none" fill="#000"/>
  </g>
</svg>