<?xml version="1.0" standalone="no"?>
<!DOCTYPE svg PUBLIC "-//W3C//DTD SVG 1.1//EN" "http://www.w3.org/Graphics/SVG/1.1/DTD/svg11.dtd">
<svg xmlns="http://www.w3.org/2000/svg" version="1.1" width="120px" height="13.9px" viewBox="0 -1 120 13.9" style="top:-1px">
  <desc>ANIME p 18</desc>
  <defs/>
  <g id="Polygon34030">
    <path d="M 59.6 3.7 L 60.9 3.7 L 63.4 10.2 L 62.1 10.2 L 61.6 8.9 L 58.9 8.9 L 58.4 10.2 L 57.1 10.2 L 59.6 3.7 Z M 60.3 5.5 L 59.4 7.7 L 61.1 7.7 L 60.3 5.5 Z M 64.3 3.7 L 65.5 3.7 L 68.3 8 L 68.3 3.7 L 69.5 3.7 L 69.5 10.2 L 68.3 10.2 L 65.5 6 L 65.5 10.2 L 64.3 10.2 L 64.3 3.7 Z M 70.9 3.7 L 72.1 3.7 L 72.1 10.2 L 70.9 10.2 L 70.9 3.7 Z M 74.1 3.7 L 75.3 3.7 L 76.8 8.2 L 78.3 3.7 L 79.5 3.7 L 80.6 10.2 L 79.4 10.2 L 78.7 6.1 L 77.4 10.2 L 76.3 10.2 L 74.9 6.1 L 74.2 10.2 L 73 10.2 L 74.1 3.7 Z M 81.6 3.7 L 85.1 3.7 L 85.1 4.9 L 82.8 4.9 L 82.8 6.1 L 85.1 6.1 L 85.1 7.3 L 82.8 7.3 L 82.8 9 L 85.1 9 L 85.1 10.2 L 81.6 10.2 L 81.6 3.7 Z M 88.6 5.3 L 88.6 4.3 L 92.9 6.5 L 92.9 7.5 L 88.6 9.7 L 88.6 8.6 L 91.7 7 L 88.6 5.3 Z M 94 5.3 L 94 4.3 L 98.3 6.5 L 98.3 7.5 L 94 9.7 L 94 8.6 L 97.1 7 L 94 5.3 Z M 103.2 5.4 C 103.2 5.4 103.17 5.95 103.2 5.9 C 103.4 5.7 103.6 5.6 103.9 5.5 C 104.1 5.4 104.4 5.3 104.7 5.3 C 105.3 5.3 105.8 5.5 106.3 6 C 106.7 6.5 106.9 7.1 106.9 7.8 C 106.9 8.5 106.7 9.1 106.2 9.6 C 105.8 10.1 105.3 10.3 104.6 10.3 C 104.4 10.3 104.1 10.3 103.9 10.2 C 103.6 10.1 103.4 9.9 103.2 9.7 C 103.17 9.7 103.2 12 103.2 12 L 102 12 L 102 5.4 L 103.2 5.4 Z M 104.4 6.4 C 104 6.4 103.7 6.5 103.5 6.8 C 103.2 7.1 103.1 7.4 103.1 7.8 C 103.1 8.2 103.2 8.6 103.5 8.8 C 103.7 9.1 104 9.2 104.4 9.2 C 104.8 9.2 105.1 9.1 105.4 8.8 C 105.6 8.6 105.7 8.2 105.7 7.8 C 105.7 7.4 105.6 7.1 105.4 6.8 C 105.1 6.5 104.8 6.4 104.4 6.4 Z M 108.6 9 C 108.8 9 108.9 9 109.1 9.2 C 109.2 9.3 109.3 9.4 109.3 9.6 C 109.3 9.8 109.2 10 109.1 10.1 C 108.9 10.3 108.8 10.3 108.6 10.3 C 108.4 10.3 108.2 10.3 108.1 10.1 C 107.9 10 107.9 9.8 107.9 9.6 C 107.9 9.4 107.9 9.3 108.1 9.2 C 108.2 9 108.4 9 108.6 9 Z M 111.3 3.7 L 113.1 3.7 L 113.1 10.2 L 111.9 10.2 L 111.9 4.9 L 110.6 4.9 L 111.3 3.7 Z M 118.7 6.7 C 119 6.9 119.2 7.1 119.4 7.4 C 119.6 7.7 119.6 8 119.6 8.4 C 119.6 8.7 119.5 9.1 119.4 9.4 C 119.2 9.7 118.9 10 118.6 10.1 C 118.3 10.3 117.9 10.4 117.4 10.4 C 116.9 10.4 116.5 10.3 116.2 10.1 C 115.9 10 115.6 9.7 115.4 9.4 C 115.2 9.1 115.1 8.8 115.1 8.4 C 115.1 8 115.2 7.7 115.4 7.4 C 115.5 7.2 115.7 6.9 116 6.7 C 115.8 6.5 115.7 6.3 115.6 6.1 C 115.5 5.9 115.4 5.6 115.4 5.4 C 115.4 5 115.5 4.7 115.7 4.5 C 115.9 4.2 116.1 4 116.4 3.8 C 116.7 3.7 117 3.6 117.4 3.6 C 117.8 3.6 118.1 3.7 118.4 3.8 C 118.7 4 118.9 4.2 119.1 4.5 C 119.2 4.8 119.3 5.1 119.3 5.4 C 119.3 5.6 119.3 5.8 119.2 6 C 119.1 6.2 118.9 6.5 118.7 6.7 Z M 117.4 4.8 C 117.1 4.8 117 4.8 116.9 5 C 116.7 5.1 116.7 5.3 116.7 5.5 C 116.7 5.7 116.7 5.9 116.9 6 C 117 6.1 117.2 6.2 117.4 6.2 C 117.6 6.2 117.8 6.1 117.9 6 C 118 5.9 118.1 5.7 118.1 5.5 C 118.1 5.3 118 5.1 117.9 5 C 117.7 4.8 117.6 4.8 117.4 4.8 Z M 117.4 7.4 C 117.1 7.4 116.9 7.4 116.7 7.6 C 116.4 7.8 116.3 8 116.3 8.3 C 116.3 8.5 116.4 8.8 116.6 8.9 C 116.8 9.1 117.1 9.2 117.4 9.2 C 117.7 9.2 117.9 9.1 118.1 8.9 C 118.3 8.8 118.4 8.6 118.4 8.3 C 118.4 8 118.3 7.8 118.1 7.6 C 117.9 7.4 117.7 7.4 117.4 7.4 Z " stroke="none" fill="#000"/>
  </g>
</svg>