<?xml version="1.0" standalone="no"?>
<!DOCTYPE svg PUBLIC "-//W3C//DTD SVG 1.1//EN" "http://www.w3.org/Graphics/SVG/1.1/DTD/svg11.dtd">
<svg xmlns="http://www.w3.org/2000/svg" version="1.1" width="122px" height="21.3px" viewBox="0 -4 122 21.3" style="top:-4px">
  <desc>BUHAY AT KULTURA</desc>
  <defs/>
  <g id="Polygon30084">
    <path d="M 4.5 4.5 C 5.7 4.7 6.6 5.2 6.6 6.4 C 6.6 7.2 6.1 7.8 5.4 8.2 C 4.8 8.6 4 8.7 3.1 8.7 C 3.08 8.72 0.4 8.7 0.4 8.7 C 0.4 8.7 0.43 8.39 0.4 8.4 C 1.5 8.3 1.5 8.2 1.5 7.2 C 1.5 7.2 1.5 2.4 1.5 2.4 C 1.5 1.4 1.5 1.3 0.5 1.3 C 0.53 1.26 0.5 0.9 0.5 0.9 C 0.5 0.9 3.61 0.92 3.6 0.9 C 4.5 0.9 5 1.1 5.4 1.3 C 5.8 1.6 6.1 2.1 6.1 2.7 C 6.1 3.8 5.1 4.3 4.5 4.5 C 4.5 4.5 4.5 4.5 4.5 4.5 Z M 3.1 4.4 C 4.4 4.4 5 3.9 5 2.8 C 5 2 4.5 1.3 3.4 1.3 C 3.1 1.3 2.8 1.4 2.7 1.4 C 2.6 1.5 2.5 1.6 2.5 2 C 2.54 2.03 2.5 4.4 2.5 4.4 C 2.5 4.4 3.11 4.38 3.1 4.4 Z M 2.5 7.2 C 2.5 8.1 2.8 8.3 3.5 8.3 C 4.5 8.3 5.4 7.8 5.4 6.6 C 5.4 5.3 4.6 4.8 3.1 4.8 C 3.1 4.78 2.5 4.8 2.5 4.8 C 2.5 4.8 2.54 7.22 2.5 7.2 Z M 15.4 1.3 C 14.7 1.3 14.4 1.5 14.4 2 C 14.4 2.3 14.3 2.8 14.3 3.9 C 14.3 3.9 14.3 4.9 14.3 4.9 C 14.3 6.3 14.1 7.3 13.4 8.1 C 12.9 8.7 12.1 8.9 11.3 8.9 C 10.6 8.9 9.9 8.7 9.3 8.3 C 8.6 7.8 8.3 6.9 8.3 5.5 C 8.3 5.5 8.3 2.5 8.3 2.5 C 8.3 1.4 8.2 1.3 7.2 1.3 C 7.25 1.26 7.2 0.9 7.2 0.9 L 10.4 0.9 C 10.4 0.9 10.36 1.26 10.4 1.3 C 9.4 1.3 9.3 1.4 9.3 2.5 C 9.3 2.5 9.3 5.2 9.3 5.2 C 9.3 7.1 10.1 8.2 11.6 8.2 C 13.3 8.2 13.8 6.8 13.8 4.8 C 13.8 4.8 13.8 3.9 13.8 3.9 C 13.8 2.8 13.8 2.3 13.8 1.9 C 13.7 1.5 13.4 1.3 12.6 1.3 C 12.59 1.26 12.6 0.9 12.6 0.9 L 15.4 0.9 C 15.4 0.9 15.44 1.26 15.4 1.3 Z M 24.4 1.3 C 23.4 1.3 23.4 1.4 23.4 2.4 C 23.4 2.4 23.4 7.2 23.4 7.2 C 23.4 8.3 23.4 8.3 24.4 8.4 C 24.42 8.39 24.4 8.7 24.4 8.7 L 21.2 8.7 C 21.2 8.7 21.2 8.39 21.2 8.4 C 22.2 8.3 22.3 8.3 22.3 7.2 C 22.33 7.25 22.3 4.8 22.3 4.8 L 18.2 4.8 C 18.2 4.8 18.24 7.25 18.2 7.2 C 18.2 8.2 18.3 8.3 19.3 8.4 C 19.32 8.39 19.3 8.7 19.3 8.7 L 16.2 8.7 C 16.2 8.7 16.16 8.39 16.2 8.4 C 17.1 8.3 17.2 8.3 17.2 7.2 C 17.2 7.2 17.2 2.4 17.2 2.4 C 17.2 1.4 17.1 1.3 16.1 1.3 C 16.14 1.26 16.1 0.9 16.1 0.9 L 19.2 0.9 C 19.2 0.9 19.25 1.26 19.2 1.3 C 18.3 1.3 18.2 1.4 18.2 2.4 C 18.24 2.4 18.2 4.3 18.2 4.3 L 22.3 4.3 C 22.3 4.3 22.33 2.4 22.3 2.4 C 22.3 1.4 22.2 1.3 21.3 1.3 C 21.3 1.26 21.3 0.9 21.3 0.9 L 24.4 0.9 C 24.4 0.9 24.43 1.26 24.4 1.3 Z M 29.6 8.7 C 29.6 8.7 29.57 8.39 29.6 8.4 C 30.3 8.3 30.4 8.2 30.3 7.7 C 30.1 7.3 29.9 6.6 29.6 5.9 C 29.6 5.9 27.1 5.9 27.1 5.9 C 26.9 6.4 26.7 6.9 26.5 7.4 C 26.3 8.2 26.4 8.3 27.3 8.4 C 27.28 8.39 27.3 8.7 27.3 8.7 L 24.7 8.7 C 24.7 8.7 24.67 8.39 24.7 8.4 C 25.4 8.3 25.6 8.2 26 7.2 C 26.02 7.15 28.5 0.9 28.5 0.9 C 28.5 0.9 28.87 0.74 28.9 0.7 C 29.6 2.8 30.4 5.1 31.2 7.2 C 31.6 8.2 31.7 8.3 32.5 8.4 C 32.51 8.39 32.5 8.7 32.5 8.7 L 29.6 8.7 Z M 28.4 2.3 C 28.4 2.3 28.37 2.3 28.4 2.3 C 28 3.3 27.6 4.4 27.2 5.4 C 27.24 5.36 29.4 5.4 29.4 5.4 L 28.4 2.3 Z M 39.2 1.3 C 38.4 1.4 38.3 1.5 37.8 2.2 C 37.2 3.1 36.8 3.8 36.3 4.8 C 36.1 5.1 36.1 5.3 36.1 5.6 C 36.1 5.6 36.1 7.2 36.1 7.2 C 36.1 8.2 36.2 8.3 37.3 8.4 C 37.27 8.39 37.3 8.7 37.3 8.7 L 33.9 8.7 C 33.9 8.7 33.88 8.39 33.9 8.4 C 34.9 8.3 35.1 8.2 35.1 7.2 C 35.1 7.2 35.1 5.6 35.1 5.6 C 35.1 5.4 35 5.3 34.8 4.9 C 34.4 4.2 33.9 3.4 33.3 2.3 C 32.8 1.5 32.7 1.3 32 1.3 C 31.96 1.26 32 0.9 32 0.9 L 34.8 0.9 C 34.8 0.9 34.82 1.26 34.8 1.3 C 34 1.4 34 1.5 34.2 1.9 C 34.7 2.9 35.3 3.9 35.8 4.8 C 36.3 4 36.9 2.8 37.3 2.1 C 37.5 1.5 37.5 1.4 36.6 1.3 C 36.56 1.26 36.6 0.9 36.6 0.9 L 39.2 0.9 C 39.2 0.9 39.22 1.26 39.2 1.3 Z M 47.2 8.7 C 47.2 8.7 47.24 8.39 47.2 8.4 C 48 8.3 48.1 8.2 48 7.7 C 47.8 7.3 47.6 6.6 47.3 5.9 C 47.3 5.9 44.7 5.9 44.7 5.9 C 44.5 6.4 44.4 6.9 44.2 7.4 C 43.9 8.2 44.1 8.3 45 8.4 C 44.95 8.39 45 8.7 45 8.7 L 42.3 8.7 C 42.3 8.7 42.35 8.39 42.3 8.4 C 43.1 8.3 43.3 8.2 43.7 7.2 C 43.69 7.15 46.2 0.9 46.2 0.9 C 46.2 0.9 46.55 0.74 46.5 0.7 C 47.3 2.8 48.1 5.1 48.9 7.2 C 49.2 8.2 49.4 8.3 50.2 8.4 C 50.18 8.39 50.2 8.7 50.2 8.7 L 47.2 8.7 Z M 46.1 2.3 C 46.1 2.3 46.04 2.3 46 2.3 C 45.7 3.3 45.3 4.4 44.9 5.4 C 44.92 5.36 47.1 5.4 47.1 5.4 L 46.1 2.3 Z M 56.4 2.8 C 56.2 2.2 56.1 1.9 56 1.7 C 55.8 1.4 55.6 1.3 54.7 1.3 C 54.68 1.34 53.8 1.3 53.8 1.3 C 53.8 1.3 53.83 7.25 53.8 7.2 C 53.8 8.2 53.9 8.3 55.1 8.4 C 55.07 8.39 55.1 8.7 55.1 8.7 L 51.6 8.7 C 51.6 8.7 51.62 8.39 51.6 8.4 C 52.7 8.3 52.8 8.2 52.8 7.2 C 52.81 7.25 52.8 1.3 52.8 1.3 C 52.8 1.3 52.07 1.34 52.1 1.3 C 51.1 1.3 50.8 1.4 50.7 1.7 C 50.5 1.9 50.4 2.3 50.3 2.8 C 50.3 2.8 49.9 2.8 49.9 2.8 C 50 2.1 50.1 1.3 50.1 0.6 C 50.1 0.6 50.3 0.6 50.3 0.6 C 50.5 0.9 50.7 0.9 51 0.9 C 51 0.9 55.7 0.9 55.7 0.9 C 56.1 0.9 56.1 0.9 56.3 0.6 C 56.3 0.6 56.6 0.6 56.6 0.6 C 56.6 1.2 56.7 2.1 56.7 2.7 C 56.7 2.7 56.4 2.8 56.4 2.8 Z M 65.9 8.7 C 65 7.7 64 6.5 62.9 5.2 C 62.6 4.9 62.5 4.9 62.3 4.9 C 62.3 4.9 62.3 7.2 62.3 7.2 C 62.3 8.2 62.4 8.3 63.4 8.4 C 63.37 8.39 63.4 8.7 63.4 8.7 L 60.3 8.7 C 60.3 8.7 60.25 8.39 60.3 8.4 C 61.2 8.3 61.3 8.2 61.3 7.2 C 61.3 7.2 61.3 2.5 61.3 2.5 C 61.3 1.4 61.2 1.3 60.2 1.3 C 60.22 1.26 60.2 0.9 60.2 0.9 L 63.3 0.9 C 63.3 0.9 63.31 1.26 63.3 1.3 C 62.4 1.3 62.3 1.4 62.3 2.5 C 62.3 2.5 62.3 4.6 62.3 4.6 C 62.5 4.5 62.8 4.3 63.1 4 C 63.8 3.4 64.6 2.6 65.1 1.9 C 65.5 1.5 65.5 1.4 64.9 1.3 C 64.92 1.3 64.7 1.3 64.7 1.3 L 64.7 0.9 L 67.5 0.9 C 67.5 0.9 67.53 1.26 67.5 1.3 C 66.6 1.3 66.3 1.5 65.6 2.2 C 65.1 2.6 64.3 3.4 63.5 4.3 C 64.4 5.4 65.7 6.9 66.3 7.5 C 66.9 8.2 67.2 8.3 67.7 8.4 C 67.74 8.39 67.7 8.7 67.7 8.7 C 67.7 8.7 65.89 8.72 65.9 8.7 Z M 76.4 1.3 C 75.7 1.3 75.4 1.5 75.3 2 C 75.3 2.3 75.3 2.8 75.3 3.9 C 75.3 3.9 75.3 4.9 75.3 4.9 C 75.3 6.3 75.1 7.3 74.4 8.1 C 73.8 8.7 73 8.9 72.2 8.9 C 71.5 8.9 70.8 8.7 70.3 8.3 C 69.6 7.8 69.3 6.9 69.3 5.5 C 69.3 5.5 69.3 2.5 69.3 2.5 C 69.3 1.4 69.2 1.3 68.2 1.3 C 68.21 1.26 68.2 0.9 68.2 0.9 L 71.3 0.9 C 71.3 0.9 71.31 1.26 71.3 1.3 C 70.4 1.3 70.3 1.4 70.3 2.5 C 70.3 2.5 70.3 5.2 70.3 5.2 C 70.3 7.1 71 8.2 72.5 8.2 C 74.3 8.2 74.8 6.8 74.8 4.8 C 74.8 4.8 74.8 3.9 74.8 3.9 C 74.8 2.8 74.8 2.3 74.7 1.9 C 74.6 1.5 74.4 1.3 73.5 1.3 C 73.55 1.26 73.5 0.9 73.5 0.9 L 76.4 0.9 C 76.4 0.9 76.4 1.26 76.4 1.3 Z M 82.9 6.8 C 82.9 7.2 82.6 8.4 82.5 8.7 C 82.51 8.72 77.1 8.7 77.1 8.7 C 77.1 8.7 77.08 8.39 77.1 8.4 C 78.1 8.3 78.2 8.2 78.2 7.2 C 78.2 7.2 78.2 2.4 78.2 2.4 C 78.2 1.4 78.1 1.3 77.1 1.3 C 77.12 1.26 77.1 0.9 77.1 0.9 L 80.3 0.9 C 80.3 0.9 80.25 1.26 80.3 1.3 C 79.3 1.3 79.2 1.4 79.2 2.4 C 79.2 2.4 79.2 7.2 79.2 7.2 C 79.2 7.8 79.3 8 79.5 8.2 C 79.7 8.3 80.1 8.3 80.6 8.3 C 81.3 8.3 81.7 8.3 82 7.9 C 82.2 7.7 82.4 7.3 82.6 6.8 C 82.6 6.8 82.9 6.8 82.9 6.8 Z M 89.1 2.8 C 89 2.2 88.8 1.9 88.7 1.7 C 88.5 1.4 88.3 1.3 87.4 1.3 C 87.41 1.34 86.6 1.3 86.6 1.3 C 86.6 1.3 86.55 7.25 86.6 7.2 C 86.6 8.2 86.7 8.3 87.8 8.4 C 87.79 8.39 87.8 8.7 87.8 8.7 L 84.3 8.7 C 84.3 8.7 84.35 8.39 84.3 8.4 C 85.4 8.3 85.5 8.2 85.5 7.2 C 85.54 7.25 85.5 1.3 85.5 1.3 C 85.5 1.3 84.79 1.34 84.8 1.3 C 83.8 1.3 83.6 1.4 83.4 1.7 C 83.3 1.9 83.2 2.3 83 2.8 C 83 2.8 82.7 2.8 82.7 2.8 C 82.7 2.1 82.8 1.3 82.8 0.6 C 82.8 0.6 83.1 0.6 83.1 0.6 C 83.2 0.9 83.4 0.9 83.7 0.9 C 83.7 0.9 88.5 0.9 88.5 0.9 C 88.8 0.9 88.9 0.9 89.1 0.6 C 89.1 0.6 89.3 0.6 89.3 0.6 C 89.3 1.2 89.4 2.1 89.4 2.7 C 89.4 2.7 89.1 2.8 89.1 2.8 Z M 98.3 1.3 C 97.6 1.3 97.3 1.5 97.3 2 C 97.2 2.3 97.2 2.8 97.2 3.9 C 97.2 3.9 97.2 4.9 97.2 4.9 C 97.2 6.3 97 7.3 96.3 8.1 C 95.7 8.7 94.9 8.9 94.2 8.9 C 93.5 8.9 92.8 8.7 92.2 8.3 C 91.5 7.8 91.2 6.9 91.2 5.5 C 91.2 5.5 91.2 2.5 91.2 2.5 C 91.2 1.4 91.1 1.3 90.1 1.3 C 90.13 1.26 90.1 0.9 90.1 0.9 L 93.2 0.9 C 93.2 0.9 93.24 1.26 93.2 1.3 C 92.3 1.3 92.2 1.4 92.2 2.5 C 92.2 2.5 92.2 5.2 92.2 5.2 C 92.2 7.1 93 8.2 94.5 8.2 C 96.2 8.2 96.7 6.8 96.7 4.8 C 96.7 4.8 96.7 3.9 96.7 3.9 C 96.7 2.8 96.7 2.3 96.6 1.9 C 96.6 1.5 96.3 1.3 95.5 1.3 C 95.47 1.26 95.5 0.9 95.5 0.9 L 98.3 0.9 C 98.3 0.9 98.33 1.26 98.3 1.3 Z M 106.1 8.8 C 105.9 8.8 105.8 8.8 105.7 8.8 C 104.8 8.8 104.3 8.5 103.7 7.7 C 103.3 7.1 102.9 6.4 102.5 5.8 C 102.3 5.5 102.1 5.3 101.5 5.3 C 101.48 5.32 101.1 5.3 101.1 5.3 C 101.1 5.3 101.1 7.22 101.1 7.2 C 101.1 8.2 101.2 8.3 102.2 8.4 C 102.17 8.39 102.2 8.7 102.2 8.7 L 99 8.7 C 99 8.7 99.01 8.39 99 8.4 C 100 8.3 100.1 8.2 100.1 7.2 C 100.1 7.2 100.1 2.4 100.1 2.4 C 100.1 1.4 100 1.3 99.1 1.3 C 99.07 1.26 99.1 0.9 99.1 0.9 C 99.1 0.9 102.05 0.92 102 0.9 C 102.9 0.9 103.5 1 104 1.3 C 104.4 1.6 104.8 2.2 104.8 2.9 C 104.8 3.9 104.1 4.6 103.2 5 C 103.4 5.4 103.9 6.2 104.3 6.7 C 104.7 7.3 105 7.6 105.3 7.9 C 105.6 8.3 105.9 8.4 106.1 8.5 C 106.1 8.5 106.1 8.8 106.1 8.8 Z M 101.7 4.9 C 102.3 4.9 102.7 4.8 103 4.6 C 103.5 4.2 103.6 3.7 103.6 3.1 C 103.6 1.8 102.8 1.3 101.9 1.3 C 101.5 1.3 101.3 1.4 101.2 1.4 C 101.1 1.5 101.1 1.6 101.1 2 C 101.1 1.97 101.1 4.9 101.1 4.9 C 101.1 4.9 101.67 4.92 101.7 4.9 Z M 111.2 8.7 C 111.2 8.7 111.2 8.39 111.2 8.4 C 112 8.3 112.1 8.2 111.9 7.7 C 111.8 7.3 111.5 6.6 111.3 5.9 C 111.3 5.9 108.7 5.9 108.7 5.9 C 108.5 6.4 108.3 6.9 108.2 7.4 C 107.9 8.2 108 8.3 108.9 8.4 C 108.91 8.39 108.9 8.7 108.9 8.7 L 106.3 8.7 C 106.3 8.7 106.31 8.39 106.3 8.4 C 107.1 8.3 107.2 8.2 107.7 7.2 C 107.65 7.15 110.1 0.9 110.1 0.9 C 110.1 0.9 110.51 0.74 110.5 0.7 C 111.3 2.8 112.1 5.1 112.8 7.2 C 113.2 8.2 113.4 8.3 114.1 8.4 C 114.14 8.39 114.1 8.7 114.1 8.7 L 111.2 8.7 Z M 110 2.3 C 110 2.3 110 2.3 110 2.3 C 109.6 3.3 109.2 4.4 108.9 5.4 C 108.87 5.36 111.1 5.4 111.1 5.4 L 110 2.3 Z " stroke="none" fill="#000"/>
  </g>
</svg>