<?xml version="1.0" standalone="no"?>
<!DOCTYPE svg PUBLIC "-//W3C//DTD SVG 1.1//EN" "http://www.w3.org/Graphics/SVG/1.1/DTD/svg11.dtd">
<svg xmlns="http://www.w3.org/2000/svg" version="1.1" width="467px" height="31.8px" viewBox="0 -7 467 31.8" style="top:-7px">
  <desc>Pakikipagsapalaran ng mamamayan:</desc>
  <defs/>
  <g id="Polygon23401">
    <path d="M 71.2 0.7 C 71.2 0.7 75.07 0.67 75.1 0.7 C 76.2 0.7 77.1 0.8 77.8 1 C 78.4 1.2 79 1.6 79.4 2.3 C 79.8 3 80.1 3.8 80.1 4.8 C 80.1 5.8 79.9 6.6 79.5 7.3 C 79.2 7.9 78.7 8.4 78.1 8.6 C 77.4 8.9 76.5 9.1 75.2 9.1 C 75.2 9.07 74.2 9.1 74.2 9.1 L 74.2 14 L 71.2 14 L 71.2 0.7 Z M 74.2 2.8 L 74.2 6.8 C 74.2 6.8 75.07 6.79 75.1 6.8 C 75.9 6.8 76.4 6.6 76.6 6.2 C 76.9 5.9 77 5.4 77 4.8 C 77 4.3 76.9 3.9 76.7 3.6 C 76.5 3.3 76.3 3.1 76.1 3 C 75.8 2.9 75.5 2.8 75.1 2.8 C 75.07 2.83 74.2 2.8 74.2 2.8 Z M 83.5 0.7 L 86.4 0.7 L 90.2 14 L 87.3 14 L 86.6 11.3 L 82.8 11.3 L 82.2 14 L 79.5 14 L 83.5 0.7 Z M 86 9 L 84.7 3.5 L 83.4 9 L 86 9 Z M 91.4 0.7 L 94.3 0.7 L 94.3 6.2 L 97.5 0.7 L 100.5 0.7 L 97.1 5.6 L 100.8 14 L 97.7 14 L 95.4 7.9 L 94.3 9.5 L 94.3 14 L 91.4 14 L 91.4 0.7 Z M 101.9 0.7 L 104.8 0.7 L 104.8 14 L 101.9 14 L 101.9 0.7 Z M 107.4 0.7 L 110.3 0.7 L 110.3 6.2 L 113.5 0.7 L 116.5 0.7 L 113.2 5.6 L 116.8 14 L 113.8 14 L 111.4 7.9 L 110.3 9.5 L 110.3 14 L 107.4 14 L 107.4 0.7 Z M 117.9 0.7 L 120.9 0.7 L 120.9 14 L 117.9 14 L 117.9 0.7 Z M 123.4 0.7 C 123.4 0.7 127.21 0.67 127.2 0.7 C 128.4 0.7 129.3 0.8 129.9 1 C 130.6 1.2 131.1 1.6 131.5 2.3 C 132 3 132.2 3.8 132.2 4.8 C 132.2 5.8 132 6.6 131.7 7.3 C 131.3 7.9 130.8 8.4 130.2 8.6 C 129.6 8.9 128.6 9.1 127.3 9.1 C 127.34 9.07 126.3 9.1 126.3 9.1 L 126.3 14 L 123.4 14 L 123.4 0.7 Z M 126.3 2.8 L 126.3 6.8 C 126.3 6.8 127.21 6.79 127.2 6.8 C 128 6.8 128.5 6.6 128.8 6.2 C 129 5.9 129.1 5.4 129.1 4.8 C 129.1 4.3 129 3.9 128.8 3.6 C 128.7 3.3 128.4 3.1 128.2 3 C 128 2.9 127.6 2.8 127.2 2.8 C 127.21 2.83 126.3 2.8 126.3 2.8 Z M 135.6 0.7 L 138.6 0.7 L 142.4 14 L 139.4 14 L 138.7 11.3 L 135 11.3 L 134.3 14 L 131.6 14 L 135.6 0.7 Z M 138.2 9 L 136.8 3.5 L 135.5 9 L 138.2 9 Z M 148 6.9 L 152.6 6.9 L 152.6 14 L 151.4 14 C 151.4 14 150.99 12.48 151 12.5 C 150.3 13.6 149.2 14.2 147.8 14.2 C 146.3 14.2 145 13.6 144.2 12.4 C 143.3 11.2 142.8 9.6 142.8 7.6 C 142.8 5.4 143.3 3.7 144.1 2.4 C 145 1.1 146.3 0.5 148 0.5 C 150.7 0.5 152.3 2 152.6 5 C 152.6 5 150 5.5 150 5.5 C 149.8 3.7 149.2 2.9 148.1 2.9 C 147.4 2.9 146.9 3.2 146.5 3.8 C 146.1 4.5 145.9 5.7 145.9 7.5 C 145.9 9.1 146.1 10.2 146.5 10.8 C 146.9 11.5 147.4 11.8 148.2 11.8 C 149.4 11.8 150 10.9 150 9.2 C 149.98 9.18 148 9.2 148 9.2 L 148 6.9 Z M 158.7 0.5 C 161 0.5 162.5 1.5 163.1 3.6 C 163.1 3.6 160.6 4.5 160.6 4.5 C 160.3 3.4 159.7 2.9 158.7 2.9 C 158.3 2.9 158 3 157.7 3.2 C 157.5 3.5 157.3 3.7 157.3 4.1 C 157.3 4.4 157.5 4.8 157.8 5 C 158.1 5.2 158.7 5.5 159.6 5.9 C 160.5 6.2 161.2 6.5 161.7 6.8 C 162.2 7.1 162.6 7.5 162.9 8.1 C 163.2 8.6 163.3 9.2 163.3 10 C 163.3 11.2 162.9 12.2 162 13 C 161.2 13.8 160 14.2 158.6 14.2 C 156.2 14.2 154.6 13 154 10.5 C 154 10.5 156.5 9.8 156.5 9.8 C 156.8 11.2 157.5 11.8 158.7 11.8 C 159.2 11.8 159.6 11.7 159.9 11.4 C 160.2 11.2 160.4 10.8 160.4 10.4 C 160.4 10.1 160.3 9.8 160 9.5 C 159.8 9.3 159.3 9 158.5 8.7 C 157.5 8.3 156.7 8 156.2 7.7 C 155.7 7.4 155.3 7 155 6.4 C 154.7 5.9 154.5 5.3 154.5 4.6 C 154.5 3.4 154.9 2.4 155.7 1.6 C 156.4 0.9 157.4 0.5 158.7 0.5 C 158.7 0.5 158.7 0.5 158.7 0.5 Z M 167.7 0.7 L 170.6 0.7 L 174.5 14 L 171.5 14 L 170.8 11.3 L 167 11.3 L 166.4 14 L 163.7 14 L 167.7 0.7 Z M 170.2 9 L 168.9 3.5 L 167.6 9 L 170.2 9 Z M 175.6 0.7 C 175.6 0.7 179.41 0.67 179.4 0.7 C 180.6 0.7 181.5 0.8 182.1 1 C 182.8 1.2 183.3 1.6 183.7 2.3 C 184.2 3 184.4 3.8 184.4 4.8 C 184.4 5.8 184.2 6.6 183.9 7.3 C 183.5 7.9 183 8.4 182.4 8.6 C 181.8 8.9 180.8 9.1 179.5 9.1 C 179.54 9.07 178.5 9.1 178.5 9.1 L 178.5 14 L 175.6 14 L 175.6 0.7 Z M 178.5 2.8 L 178.5 6.8 C 178.5 6.8 179.41 6.79 179.4 6.8 C 180.2 6.8 180.7 6.6 181 6.2 C 181.2 5.9 181.3 5.4 181.3 4.8 C 181.3 4.3 181.2 3.9 181 3.6 C 180.9 3.3 180.6 3.1 180.4 3 C 180.2 2.9 179.8 2.8 179.4 2.8 C 179.41 2.83 178.5 2.8 178.5 2.8 Z M 187.8 0.7 L 190.8 0.7 L 194.6 14 L 191.6 14 L 190.9 11.3 L 187.2 11.3 L 186.5 14 L 183.8 14 L 187.8 0.7 Z M 190.4 9 L 189 3.5 L 187.7 9 L 190.4 9 Z M 195.7 0.7 L 198.6 0.7 L 198.6 11.5 L 202.9 11.5 L 202.9 14 L 195.7 14 L 195.7 0.7 Z M 206.6 0.7 L 209.5 0.7 L 213.3 14 L 210.3 14 L 209.7 11.3 L 205.9 11.3 L 205.3 14 L 202.6 14 L 206.6 0.7 Z M 209.1 9 L 207.8 3.5 L 206.5 9 L 209.1 9 Z M 214.4 0.7 C 214.4 0.7 218.63 0.67 218.6 0.7 C 219.4 0.7 220.1 0.7 220.5 0.8 C 220.9 0.9 221.4 1.1 221.8 1.4 C 222.3 1.7 222.6 2.2 222.9 2.7 C 223.1 3.3 223.2 3.9 223.2 4.7 C 223.2 6.3 222.6 7.5 221.4 8.2 C 221.35 8.17 223.8 14 223.8 14 L 220.6 14 L 218.8 8.7 L 217.4 8.7 L 217.4 14 L 214.4 14 L 214.4 0.7 Z M 217.4 2.8 L 217.4 6.6 C 217.4 6.6 218.66 6.57 218.7 6.6 C 219.8 6.6 220.4 5.9 220.4 4.6 C 220.4 4.2 220.3 3.8 220.1 3.6 C 220 3.3 219.8 3.1 219.5 3 C 219.3 2.9 219 2.8 218.5 2.8 C 218.54 2.83 217.4 2.8 217.4 2.8 Z M 227.7 0.7 L 230.6 0.7 L 234.4 14 L 231.5 14 L 230.8 11.3 L 227 11.3 L 226.4 14 L 223.7 14 L 227.7 0.7 Z M 230.2 9 L 228.9 3.5 L 227.6 9 L 230.2 9 Z M 235.5 0.7 L 238.7 0.7 L 242.1 9 L 242.1 0.7 L 244.4 0.7 L 244.4 14 L 241.8 14 L 237.7 4.4 L 237.7 14 L 235.5 14 L 235.5 0.7 Z M 256 0.7 L 259.3 0.7 L 262.7 9 L 262.7 0.7 L 265 0.7 L 265 14 L 262.3 14 L 258.3 4.4 L 258.3 14 L 256 14 L 256 0.7 Z M 272 6.9 L 276.7 6.9 L 276.7 14 L 275.4 14 C 275.4 14 275.05 12.48 275.1 12.5 C 274.3 13.6 273.3 14.2 271.8 14.2 C 270.3 14.2 269.1 13.6 268.2 12.4 C 267.3 11.2 266.9 9.6 266.9 7.6 C 266.9 5.4 267.3 3.7 268.2 2.4 C 269.1 1.1 270.4 0.5 272.1 0.5 C 274.8 0.5 276.3 2 276.7 5 C 276.7 5 274 5.5 274 5.5 C 273.9 3.7 273.2 2.9 272.1 2.9 C 271.5 2.9 271 3.2 270.6 3.8 C 270.2 4.5 270 5.7 270 7.5 C 270 9.1 270.2 10.2 270.6 10.8 C 270.9 11.5 271.5 11.8 272.2 11.8 C 273.4 11.8 274 10.9 274 9.2 C 274.04 9.18 272 9.2 272 9.2 L 272 6.9 Z M 288.3 0.7 L 292.6 0.7 L 294.5 8.9 L 296.6 0.7 L 300.8 0.7 L 300.8 14 L 298 14 L 298 2.8 L 295.3 14 L 293.2 14 L 290.7 2.8 L 290.7 14 L 288.3 14 L 288.3 0.7 Z M 305.6 0.7 L 308.6 0.7 L 312.4 14 L 309.4 14 L 308.7 11.3 L 305 11.3 L 304.3 14 L 301.6 14 L 305.6 0.7 Z M 308.2 9 L 306.8 3.5 L 305.5 9 L 308.2 9 Z M 313.5 0.7 L 317.8 0.7 L 319.7 8.9 L 321.8 0.7 L 326 0.7 L 326 14 L 323.2 14 L 323.2 2.8 L 320.5 14 L 318.4 14 L 315.9 2.8 L 315.9 14 L 313.5 14 L 313.5 0.7 Z M 330.8 0.7 L 333.8 0.7 L 337.6 14 L 334.6 14 L 333.9 11.3 L 330.2 11.3 L 329.5 14 L 326.8 14 L 330.8 0.7 Z M 333.4 9 L 332 3.5 L 330.8 9 L 333.4 9 Z M 338.7 0.7 L 343 0.7 L 344.9 8.9 L 347 0.7 L 351.2 0.7 L 351.2 14 L 348.4 14 L 348.4 2.8 L 345.7 14 L 343.6 14 L 341.1 2.8 L 341.1 14 L 338.7 14 L 338.7 0.7 Z M 356.1 0.7 L 359 0.7 L 362.8 14 L 359.8 14 L 359.2 11.3 L 355.4 11.3 L 354.7 14 L 352.1 14 L 356.1 0.7 Z M 358.6 9 L 357.3 3.5 L 356 9 L 358.6 9 Z M 361.6 0.7 L 364.8 0.7 L 366.7 5.5 L 368.7 0.7 L 371.6 0.7 L 367.9 8.4 L 367.9 14 L 365 14 L 365 8.4 L 361.6 0.7 Z M 374.1 0.7 L 377.1 0.7 L 380.9 14 L 377.9 14 L 377.2 11.3 L 373.4 11.3 L 372.8 14 L 370.1 14 L 374.1 0.7 Z M 376.7 9 L 375.3 3.5 L 374 9 L 376.7 9 Z M 381.9 0.7 L 385.1 0.7 L 388.5 9 L 388.5 0.7 L 390.8 0.7 L 390.8 14 L 388.2 14 L 384.1 4.4 L 384.1 14 L 381.9 14 L 381.9 0.7 Z M 393.1 4.1 L 395.9 4.1 L 395.9 7.1 L 393.1 7.1 L 393.1 4.1 Z M 393.1 11.1 L 395.9 11.1 L 395.9 14 L 393.1 14 L 393.1 11.1 Z " stroke="none" fill="#000"/>
  </g>
</svg>