<?xml version="1.0" standalone="no"?>
<!DOCTYPE svg PUBLIC "-//W3C//DTD SVG 1.1//EN" "http://www.w3.org/Graphics/SVG/1.1/DTD/svg11.dtd">
<svg xmlns="http://www.w3.org/2000/svg" version="1.1" width="302px" height="51.8px" viewBox="0 -3 302 51.8" style="top:-3px">
  <desc>NAAPEKTUHAN nang lubusan ang ekonomiya ng bansa bunsod ng mga naging suliranin ng kasalukuyang administrasyon partiku</desc>
  <defs/>
  <g id="Polygon19641">
    <path d="M 1 42 C 1.02 41.97 1 39.2 1 39.2 L 0.4 39.2 L 0.4 38.5 L 1 38.5 L 1 37.1 L 1.7 37.1 L 1.7 38.5 L 3.2 38.5 L 3.2 39.2 L 1.7 39.2 C 1.7 39.2 1.71 41.88 1.7 41.9 C 1.7 42.4 2 42.7 2.5 42.7 C 2.7 42.7 2.9 42.6 3.2 42.5 C 3.2 42.5 3.2 43.1 3.2 43.1 C 2.9 43.2 2.7 43.3 2.3 43.3 C 1.6 43.3 1 42.9 1 42 Z M 4.6 38.5 L 5.3 38.5 C 5.3 38.5 5.28 39.76 5.3 39.8 C 5.6 39 6.3 38.4 7.2 38.5 C 7.18 38.47 7.2 39.2 7.2 39.2 C 7.2 39.2 7.13 39.21 7.1 39.2 C 6.1 39.2 5.3 39.9 5.3 41.3 C 5.28 41.35 5.3 43.2 5.3 43.2 L 4.6 43.2 L 4.6 38.5 Z M 7.8 41.8 C 7.8 41.8 7.8 41.8 7.8 41.8 C 7.8 40.9 8.6 40.3 9.8 40.3 C 10.4 40.3 10.8 40.4 11.3 40.5 C 11.3 40.5 11.3 40.4 11.3 40.4 C 11.3 39.5 10.7 39.1 9.9 39.1 C 9.3 39.1 8.9 39.2 8.5 39.4 C 8.5 39.4 8.3 38.9 8.3 38.9 C 8.8 38.6 9.3 38.5 9.9 38.5 C 10.6 38.5 11.1 38.7 11.4 39 C 11.8 39.3 11.9 39.8 11.9 40.4 C 11.92 40.36 11.9 43.2 11.9 43.2 L 11.3 43.2 C 11.3 43.2 11.26 42.5 11.3 42.5 C 10.9 42.9 10.4 43.3 9.6 43.3 C 8.7 43.3 7.8 42.8 7.8 41.8 Z M 11.3 41.5 C 11.3 41.5 11.3 41 11.3 41 C 10.9 40.9 10.5 40.8 9.9 40.8 C 9 40.8 8.5 41.2 8.5 41.8 C 8.5 41.8 8.5 41.8 8.5 41.8 C 8.5 42.4 9.1 42.8 9.7 42.8 C 10.6 42.8 11.3 42.2 11.3 41.5 Z M 14.3 42.3 C 14.27 42.31 14.3 43.2 14.3 43.2 L 13.6 43.2 L 13.6 36.6 L 14.3 36.6 C 14.3 36.6 14.27 39.48 14.3 39.5 C 14.7 38.9 15.2 38.4 16.1 38.4 C 17.2 38.4 18.3 39.3 18.3 40.9 C 18.3 40.9 18.3 40.9 18.3 40.9 C 18.3 42.4 17.2 43.3 16.1 43.3 C 15.2 43.3 14.6 42.8 14.3 42.3 Z M 17.6 40.9 C 17.6 40.9 17.6 40.9 17.6 40.9 C 17.6 39.8 16.8 39.1 15.9 39.1 C 15.1 39.1 14.2 39.8 14.2 40.9 C 14.2 40.9 14.2 40.9 14.2 40.9 C 14.2 42 15.1 42.7 15.9 42.7 C 16.8 42.7 17.6 42 17.6 40.9 Z M 19.4 41.8 C 19.4 41.8 19.4 41.8 19.4 41.8 C 19.4 40.9 20.2 40.3 21.4 40.3 C 22 40.3 22.4 40.4 22.8 40.5 C 22.8 40.5 22.8 40.4 22.8 40.4 C 22.8 39.5 22.3 39.1 21.4 39.1 C 20.9 39.1 20.4 39.2 20 39.4 C 20 39.4 19.8 38.9 19.8 38.9 C 20.3 38.6 20.8 38.5 21.5 38.5 C 22.1 38.5 22.7 38.7 23 39 C 23.3 39.3 23.5 39.8 23.5 40.4 C 23.47 40.36 23.5 43.2 23.5 43.2 L 22.8 43.2 C 22.8 43.2 22.81 42.5 22.8 42.5 C 22.5 42.9 21.9 43.3 21.1 43.3 C 20.3 43.3 19.4 42.8 19.4 41.8 Z M 22.8 41.5 C 22.8 41.5 22.8 41 22.8 41 C 22.5 40.9 22 40.8 21.4 40.8 C 20.6 40.8 20.1 41.2 20.1 41.8 C 20.1 41.8 20.1 41.8 20.1 41.8 C 20.1 42.4 20.6 42.8 21.3 42.8 C 22.1 42.8 22.8 42.2 22.8 41.5 Z M 25.1 36.6 L 25.8 36.6 C 25.8 36.6 25.82 39.36 25.8 39.4 C 26.1 38.9 26.6 38.4 27.4 38.4 C 28.5 38.4 29.2 39.2 29.2 40.3 C 29.2 40.31 29.2 43.2 29.2 43.2 L 28.5 43.2 C 28.5 43.2 28.5 40.48 28.5 40.5 C 28.5 39.6 28 39.1 27.2 39.1 C 26.4 39.1 25.8 39.7 25.8 40.5 C 25.82 40.54 25.8 43.2 25.8 43.2 L 25.1 43.2 L 25.1 36.6 Z M 30.6 40.9 C 30.6 40.9 30.6 40.9 30.6 40.9 C 30.6 39.6 31.6 38.4 33 38.4 C 34.4 38.4 35.4 39.5 35.4 40.9 C 35.4 40.9 35.4 40.9 35.4 40.9 C 35.4 42.2 34.4 43.3 33 43.3 C 31.6 43.3 30.6 42.2 30.6 40.9 Z M 34.7 40.9 C 34.7 40.9 34.7 40.9 34.7 40.9 C 34.7 39.9 34 39.1 33 39.1 C 32 39.1 31.3 39.9 31.3 40.9 C 31.3 40.9 31.3 40.9 31.3 40.9 C 31.3 41.9 32 42.7 33 42.7 C 34 42.7 34.7 41.9 34.7 40.9 Z M 36.6 42.3 L 37.4 42.3 L 37.4 43.2 L 36.6 43.2 L 36.6 42.3 Z " stroke="none" fill="#fff"/>
  </g>
  <g id="Polygon19640">
    <path d="M 0.8 26.5 L 1.5 26.5 C 1.5 26.5 1.47 27.36 1.5 27.4 C 1.8 26.9 2.3 26.4 3.1 26.4 C 4.2 26.4 4.8 27.2 4.8 28.3 C 4.84 28.31 4.8 31.2 4.8 31.2 L 4.1 31.2 C 4.1 31.2 4.15 28.48 4.1 28.5 C 4.1 27.6 3.7 27.1 2.9 27.1 C 2.1 27.1 1.5 27.7 1.5 28.5 C 1.47 28.54 1.5 31.2 1.5 31.2 L 0.8 31.2 L 0.8 26.5 Z M 6.1 29.8 C 6.1 29.8 6.1 29.8 6.1 29.8 C 6.1 28.9 7 28.3 8.1 28.3 C 8.7 28.3 9.2 28.4 9.6 28.5 C 9.6 28.5 9.6 28.4 9.6 28.4 C 9.6 27.5 9.1 27.1 8.2 27.1 C 7.6 27.1 7.2 27.2 6.8 27.4 C 6.8 27.4 6.6 26.9 6.6 26.9 C 7.1 26.6 7.6 26.5 8.3 26.5 C 8.9 26.5 9.4 26.7 9.8 27 C 10.1 27.3 10.2 27.8 10.2 28.4 C 10.23 28.36 10.2 31.2 10.2 31.2 L 9.6 31.2 C 9.6 31.2 9.57 30.5 9.6 30.5 C 9.2 30.9 8.7 31.3 7.9 31.3 C 7 31.3 6.1 30.8 6.1 29.8 Z M 9.6 29.5 C 9.6 29.5 9.6 29 9.6 29 C 9.2 28.9 8.8 28.8 8.2 28.8 C 7.3 28.8 6.8 29.2 6.8 29.8 C 6.8 29.8 6.8 29.8 6.8 29.8 C 6.8 30.4 7.4 30.8 8 30.8 C 8.9 30.8 9.6 30.2 9.6 29.5 Z M 16.2 30.6 C 16.2 30.6 16.6 30.1 16.6 30.1 C 17.1 30.5 17.6 30.7 18.2 30.7 C 18.7 30.7 19.1 30.4 19.1 30 C 19.1 30 19.1 29.9 19.1 29.9 C 19.1 29.5 18.6 29.3 18 29.1 C 17.2 28.9 16.4 28.7 16.4 27.8 C 16.4 27.8 16.4 27.8 16.4 27.8 C 16.4 27 17.1 26.5 18 26.5 C 18.6 26.5 19.2 26.7 19.7 27 C 19.7 27 19.4 27.5 19.4 27.5 C 19 27.2 18.5 27.1 18 27.1 C 17.5 27.1 17.1 27.3 17.1 27.7 C 17.1 27.7 17.1 27.7 17.1 27.7 C 17.1 28.2 17.7 28.4 18.3 28.5 C 19 28.8 19.8 29 19.8 29.9 C 19.8 29.9 19.8 29.9 19.8 29.9 C 19.8 30.8 19.1 31.3 18.1 31.3 C 17.5 31.3 16.7 31 16.2 30.6 Z M 20.9 29.8 C 20.9 29.8 20.9 29.8 20.9 29.8 C 20.9 28.9 21.7 28.3 22.9 28.3 C 23.5 28.3 23.9 28.4 24.3 28.5 C 24.3 28.5 24.3 28.4 24.3 28.4 C 24.3 27.5 23.8 27.1 22.9 27.1 C 22.4 27.1 22 27.2 21.5 27.4 C 21.5 27.4 21.3 26.9 21.3 26.9 C 21.8 26.6 22.3 26.5 23 26.5 C 23.7 26.5 24.2 26.7 24.5 27 C 24.8 27.3 25 27.8 25 28.4 C 25 28.36 25 31.2 25 31.2 L 24.3 31.2 C 24.3 31.2 24.33 30.5 24.3 30.5 C 24 30.9 23.5 31.3 22.7 31.3 C 21.8 31.3 20.9 30.8 20.9 29.8 Z M 24.3 29.5 C 24.3 29.5 24.3 29 24.3 29 C 24 28.9 23.5 28.8 23 28.8 C 22.1 28.8 21.6 29.2 21.6 29.8 C 21.6 29.8 21.6 29.8 21.6 29.8 C 21.6 30.4 22.2 30.8 22.8 30.8 C 23.6 30.8 24.3 30.2 24.3 29.5 Z M 31 30.6 C 31 30.6 31.3 30.1 31.3 30.1 C 31.8 30.5 32.4 30.7 32.9 30.7 C 33.5 30.7 33.9 30.4 33.9 30 C 33.9 30 33.9 29.9 33.9 29.9 C 33.9 29.5 33.4 29.3 32.7 29.1 C 32 28.9 31.2 28.7 31.2 27.8 C 31.2 27.8 31.2 27.8 31.2 27.8 C 31.2 27 31.9 26.5 32.8 26.5 C 33.4 26.5 34 26.7 34.5 27 C 34.5 27 34.1 27.5 34.1 27.5 C 33.7 27.2 33.2 27.1 32.8 27.1 C 32.2 27.1 31.9 27.3 31.9 27.7 C 31.9 27.7 31.9 27.7 31.9 27.7 C 31.9 28.2 32.4 28.4 33.1 28.5 C 33.8 28.8 34.6 29 34.6 29.9 C 34.6 29.9 34.6 29.9 34.6 29.9 C 34.6 30.8 33.8 31.3 32.9 31.3 C 32.2 31.3 31.5 31 31 30.6 Z M 35.7 28.9 C 35.7 28.9 35.7 28.9 35.7 28.9 C 35.7 27.5 36.7 26.4 38 26.4 C 39.4 26.4 40.1 27.5 40.1 28.9 C 40.1 29 40.1 29 40.1 29.1 C 40.1 29.1 36.4 29.1 36.4 29.1 C 36.5 30.1 37.3 30.7 38.1 30.7 C 38.7 30.7 39.2 30.4 39.5 30 C 39.5 30 40 30.4 40 30.4 C 39.5 31 38.9 31.3 38.1 31.3 C 36.8 31.3 35.7 30.3 35.7 28.9 Z M 39.4 28.6 C 39.4 27.8 38.9 27 38 27 C 37.1 27 36.5 27.7 36.4 28.6 C 36.4 28.6 39.4 28.6 39.4 28.6 Z M 41.5 24.6 L 42.2 24.6 L 42.2 29.2 L 44.7 26.5 L 45.6 26.5 L 43.7 28.5 L 45.7 31.2 L 44.8 31.2 L 43.2 29 L 42.2 30 L 42.2 31.2 L 41.5 31.2 L 41.5 24.6 Z M 47 30 C 46.99 29.97 47 27.2 47 27.2 L 46.3 27.2 L 46.3 26.5 L 47 26.5 L 47 25.1 L 47.7 25.1 L 47.7 26.5 L 49.2 26.5 L 49.2 27.2 L 47.7 27.2 C 47.7 27.2 47.68 29.88 47.7 29.9 C 47.7 30.4 48 30.7 48.5 30.7 C 48.7 30.7 48.9 30.6 49.1 30.5 C 49.1 30.5 49.1 31.1 49.1 31.1 C 48.9 31.2 48.6 31.3 48.3 31.3 C 47.6 31.3 47 30.9 47 30 Z M 50.1 28.9 C 50.1 28.9 50.1 28.9 50.1 28.9 C 50.1 27.6 51.2 26.4 52.6 26.4 C 54 26.4 55 27.5 55 28.9 C 55 28.9 55 28.9 55 28.9 C 55 30.2 54 31.3 52.6 31.3 C 51.2 31.3 50.1 30.2 50.1 28.9 Z M 54.3 28.9 C 54.3 28.9 54.3 28.9 54.3 28.9 C 54.3 27.9 53.5 27.1 52.6 27.1 C 51.5 27.1 50.9 27.9 50.9 28.9 C 50.9 28.9 50.9 28.9 50.9 28.9 C 50.9 29.9 51.6 30.7 52.6 30.7 C 53.6 30.7 54.3 29.9 54.3 28.9 Z M 56.4 26.5 L 57.1 26.5 C 57.1 26.5 57.12 27.76 57.1 27.8 C 57.5 27 58.1 26.4 59 26.5 C 59.02 26.47 59 27.2 59 27.2 C 59 27.2 58.96 27.21 59 27.2 C 57.9 27.2 57.1 27.9 57.1 29.3 C 57.12 29.35 57.1 31.2 57.1 31.2 L 56.4 31.2 L 56.4 26.5 Z M 65 26.5 L 65.7 26.5 C 65.7 26.5 65.66 27.36 65.7 27.4 C 66 26.9 66.4 26.4 67.2 26.4 C 68.4 26.4 69 27.2 69 28.3 C 69.03 28.31 69 31.2 69 31.2 L 68.3 31.2 C 68.3 31.2 68.34 28.48 68.3 28.5 C 68.3 27.6 67.9 27.1 67.1 27.1 C 66.2 27.1 65.7 27.7 65.7 28.5 C 65.66 28.54 65.7 31.2 65.7 31.2 L 65 31.2 L 65 26.5 Z M 70.6 32 C 70.6 32 70.9 31.5 70.9 31.5 C 71.5 31.9 72.1 32.1 72.7 32.1 C 73.8 32.1 74.4 31.5 74.4 30.4 C 74.4 30.4 74.4 29.9 74.4 29.9 C 74 30.4 73.5 30.8 72.6 30.8 C 71.5 30.8 70.4 30 70.4 28.7 C 70.4 28.7 70.4 28.6 70.4 28.6 C 70.4 27.3 71.5 26.4 72.6 26.4 C 73.5 26.4 74 26.9 74.4 27.4 C 74.42 27.38 74.4 26.5 74.4 26.5 L 75.1 26.5 C 75.1 26.5 75.11 30.39 75.1 30.4 C 75.1 31.1 74.9 31.7 74.5 32 C 74.1 32.5 73.5 32.7 72.7 32.7 C 72 32.7 71.3 32.4 70.6 32 Z M 74.4 28.7 C 74.4 28.7 74.4 28.6 74.4 28.6 C 74.4 27.7 73.6 27.1 72.7 27.1 C 71.9 27.1 71.1 27.7 71.1 28.6 C 71.1 28.6 71.1 28.6 71.1 28.6 C 71.1 29.6 71.9 30.2 72.7 30.2 C 73.6 30.2 74.4 29.6 74.4 28.7 Z M 81.2 29.8 C 81.2 29.8 81.2 29.8 81.2 29.8 C 81.2 28.9 82 28.3 83.2 28.3 C 83.8 28.3 84.2 28.4 84.6 28.5 C 84.6 28.5 84.6 28.4 84.6 28.4 C 84.6 27.5 84.1 27.1 83.2 27.1 C 82.7 27.1 82.3 27.2 81.8 27.4 C 81.8 27.4 81.6 26.9 81.6 26.9 C 82.1 26.6 82.6 26.5 83.3 26.5 C 84 26.5 84.5 26.7 84.8 27 C 85.1 27.3 85.3 27.8 85.3 28.4 C 85.29 28.36 85.3 31.2 85.3 31.2 L 84.6 31.2 C 84.6 31.2 84.63 30.5 84.6 30.5 C 84.3 30.9 83.8 31.3 82.9 31.3 C 82.1 31.3 81.2 30.8 81.2 29.8 Z M 84.6 29.5 C 84.6 29.5 84.6 29 84.6 29 C 84.3 28.9 83.8 28.8 83.3 28.8 C 82.4 28.8 81.9 29.2 81.9 29.8 C 81.9 29.8 81.9 29.8 81.9 29.8 C 81.9 30.4 82.4 30.8 83.1 30.8 C 83.9 30.8 84.6 30.2 84.6 29.5 Z M 86.9 32 C 86.9 32 87.2 31.5 87.2 31.5 C 87.7 31.9 88.3 32.1 89 32.1 C 90 32.1 90.7 31.5 90.7 30.4 C 90.7 30.4 90.7 29.9 90.7 29.9 C 90.3 30.4 89.7 30.8 88.9 30.8 C 87.7 30.8 86.7 30 86.7 28.7 C 86.7 28.7 86.7 28.6 86.7 28.6 C 86.7 27.3 87.8 26.4 88.9 26.4 C 89.7 26.4 90.3 26.9 90.7 27.4 C 90.68 27.38 90.7 26.5 90.7 26.5 L 91.4 26.5 C 91.4 26.5 91.37 30.39 91.4 30.4 C 91.4 31.1 91.2 31.7 90.8 32 C 90.4 32.5 89.7 32.7 89 32.7 C 88.2 32.7 87.5 32.4 86.9 32 Z M 90.7 28.7 C 90.7 28.7 90.7 28.6 90.7 28.6 C 90.7 27.7 89.9 27.1 89 27.1 C 88.1 27.1 87.4 27.7 87.4 28.6 C 87.4 28.6 87.4 28.6 87.4 28.6 C 87.4 29.6 88.1 30.2 89 30.2 C 89.9 30.2 90.7 29.6 90.7 28.7 Z M 93.1 26.5 L 93.8 26.5 C 93.8 26.5 93.8 27.76 93.8 27.8 C 94.1 27 94.8 26.4 95.7 26.5 C 95.69 26.47 95.7 27.2 95.7 27.2 C 95.7 27.2 95.64 27.21 95.6 27.2 C 94.6 27.2 93.8 27.9 93.8 29.3 C 93.8 29.35 93.8 31.2 93.8 31.2 L 93.1 31.2 L 93.1 26.5 Z M 96.9 24.8 L 97.7 24.8 L 97.7 25.5 L 96.9 25.5 L 96.9 24.8 Z M 97 26.5 L 97.7 26.5 L 97.7 31.2 L 97 31.2 L 97 26.5 Z M 99.5 24.6 L 100.2 24.6 L 100.2 29.2 L 102.7 26.5 L 103.5 26.5 L 101.6 28.5 L 103.6 31.2 L 102.8 31.2 L 101.1 29 L 100.2 30 L 100.2 31.2 L 99.5 31.2 L 99.5 24.6 Z M 104.6 29.4 C 104.61 29.44 104.6 26.5 104.6 26.5 L 105.3 26.5 C 105.3 26.5 105.31 29.27 105.3 29.3 C 105.3 30.1 105.8 30.7 106.6 30.7 C 107.4 30.7 108 30.1 108 29.2 C 107.99 29.21 108 26.5 108 26.5 L 108.7 26.5 L 108.7 31.2 L 108 31.2 C 108 31.2 107.99 30.39 108 30.4 C 107.7 30.9 107.2 31.3 106.4 31.3 C 105.3 31.3 104.6 30.5 104.6 29.4 Z M 110.5 24.6 L 111.2 24.6 L 111.2 31.2 L 110.5 31.2 L 110.5 24.6 Z M 113.2 30 C 113.2 29.97 113.2 27.2 113.2 27.2 L 112.6 27.2 L 112.6 26.5 L 113.2 26.5 L 113.2 25.1 L 113.9 25.1 L 113.9 26.5 L 115.4 26.5 L 115.4 27.2 L 113.9 27.2 C 113.9 27.2 113.89 29.88 113.9 29.9 C 113.9 30.4 114.2 30.7 114.7 30.7 C 114.9 30.7 115.1 30.6 115.3 30.5 C 115.3 30.5 115.3 31.1 115.3 31.1 C 115.1 31.2 114.8 31.3 114.5 31.3 C 113.8 31.3 113.2 30.9 113.2 30 Z M 116.7 29.4 C 116.7 29.44 116.7 26.5 116.7 26.5 L 117.4 26.5 C 117.4 26.5 117.39 29.27 117.4 29.3 C 117.4 30.1 117.9 30.7 118.7 30.7 C 119.5 30.7 120.1 30.1 120.1 29.2 C 120.08 29.21 120.1 26.5 120.1 26.5 L 120.8 26.5 L 120.8 31.2 L 120.1 31.2 C 120.1 31.2 120.08 30.39 120.1 30.4 C 119.8 30.9 119.3 31.3 118.5 31.3 C 117.4 31.3 116.7 30.5 116.7 29.4 Z M 122.5 26.5 L 123.2 26.5 C 123.2 26.5 123.19 27.76 123.2 27.8 C 123.5 27 124.2 26.4 125.1 26.5 C 125.09 26.47 125.1 27.2 125.1 27.2 C 125.1 27.2 125.03 27.21 125 27.2 C 124 27.2 123.2 27.9 123.2 29.3 C 123.19 29.35 123.2 31.2 123.2 31.2 L 122.5 31.2 L 122.5 26.5 Z M 125.7 29.8 C 125.7 29.8 125.7 29.8 125.7 29.8 C 125.7 28.9 126.6 28.3 127.7 28.3 C 128.3 28.3 128.8 28.4 129.2 28.5 C 129.2 28.5 129.2 28.4 129.2 28.4 C 129.2 27.5 128.7 27.1 127.8 27.1 C 127.2 27.1 126.8 27.2 126.4 27.4 C 126.4 27.4 126.2 26.9 126.2 26.9 C 126.7 26.6 127.2 26.5 127.9 26.5 C 128.5 26.5 129 26.7 129.4 27 C 129.7 27.3 129.8 27.8 129.8 28.4 C 129.83 28.36 129.8 31.2 129.8 31.2 L 129.2 31.2 C 129.2 31.2 129.17 30.5 129.2 30.5 C 128.8 30.9 128.3 31.3 127.5 31.3 C 126.6 31.3 125.7 30.8 125.7 29.8 Z M 129.2 29.5 C 129.2 29.5 129.2 29 129.2 29 C 128.8 28.9 128.4 28.8 127.8 28.8 C 126.9 28.8 126.4 29.2 126.4 29.8 C 126.4 29.8 126.4 29.8 126.4 29.8 C 126.4 30.4 127 30.8 127.6 30.8 C 128.5 30.8 129.2 30.2 129.2 29.5 Z M 131.1 32 C 131.6 31.8 131.8 31.6 131.7 31.2 C 131.73 31.2 131.4 31.2 131.4 31.2 L 131.4 30.3 L 132.2 30.3 C 132.2 30.3 132.23 31.06 132.2 31.1 C 132.2 31.8 131.9 32.1 131.2 32.3 C 131.2 32.3 131.1 32 131.1 32 Z M 138.6 24.6 L 139.3 24.6 L 139.3 29.2 L 141.8 26.5 L 142.7 26.5 L 140.7 28.5 L 142.7 31.2 L 141.9 31.2 L 140.2 29 L 139.3 30 L 139.3 31.2 L 138.6 31.2 L 138.6 24.6 Z M 143.4 29.8 C 143.4 29.8 143.4 29.8 143.4 29.8 C 143.4 28.9 144.3 28.3 145.4 28.3 C 146 28.3 146.5 28.4 146.9 28.5 C 146.9 28.5 146.9 28.4 146.9 28.4 C 146.9 27.5 146.4 27.1 145.5 27.1 C 144.9 27.1 144.5 27.2 144.1 27.4 C 144.1 27.4 143.9 26.9 143.9 26.9 C 144.4 26.6 144.9 26.5 145.6 26.5 C 146.2 26.5 146.7 26.7 147.1 27 C 147.4 27.3 147.5 27.8 147.5 28.4 C 147.53 28.36 147.5 31.2 147.5 31.2 L 146.9 31.2 C 146.9 31.2 146.87 30.5 146.9 30.5 C 146.5 30.9 146 31.3 145.2 31.3 C 144.3 31.3 143.4 30.8 143.4 29.8 Z M 146.9 29.5 C 146.9 29.5 146.9 29 146.9 29 C 146.5 28.9 146.1 28.8 145.5 28.8 C 144.6 28.8 144.1 29.2 144.1 29.8 C 144.1 29.8 144.1 29.8 144.1 29.8 C 144.1 30.4 144.7 30.8 145.3 30.8 C 146.2 30.8 146.9 30.2 146.9 29.5 Z M 149.2 26.5 L 149.9 26.5 C 149.9 26.5 149.88 27.76 149.9 27.8 C 150.2 27 150.9 26.4 151.8 26.5 C 151.78 26.47 151.8 27.2 151.8 27.2 C 151.8 27.2 151.73 27.21 151.7 27.2 C 150.7 27.2 149.9 27.9 149.9 29.3 C 149.88 29.35 149.9 31.2 149.9 31.2 L 149.2 31.2 L 149.2 26.5 Z M 152.4 29.8 C 152.4 29.8 152.4 29.8 152.4 29.8 C 152.4 28.9 153.2 28.3 154.4 28.3 C 155 28.3 155.4 28.4 155.9 28.5 C 155.9 28.5 155.9 28.4 155.9 28.4 C 155.9 27.5 155.3 27.1 154.5 27.1 C 153.9 27.1 153.5 27.2 153.1 27.4 C 153.1 27.4 152.9 26.9 152.9 26.9 C 153.4 26.6 153.9 26.5 154.5 26.5 C 155.2 26.5 155.7 26.7 156 27 C 156.4 27.3 156.5 27.8 156.5 28.4 C 156.52 28.36 156.5 31.2 156.5 31.2 L 155.9 31.2 C 155.9 31.2 155.86 30.5 155.9 30.5 C 155.5 30.9 155 31.3 154.2 31.3 C 153.3 31.3 152.4 30.8 152.4 29.8 Z M 155.9 29.5 C 155.9 29.5 155.9 29 155.9 29 C 155.5 28.9 155.1 28.8 154.5 28.8 C 153.6 28.8 153.1 29.2 153.1 29.8 C 153.1 29.8 153.1 29.8 153.1 29.8 C 153.1 30.4 153.7 30.8 154.3 30.8 C 155.2 30.8 155.9 30.2 155.9 29.5 Z M 158.2 26.5 L 158.9 26.5 C 158.9 26.5 158.87 27.48 158.9 27.5 C 159.2 26.9 159.8 26.4 160.7 26.4 C 161.8 26.4 162.9 27.3 162.9 28.9 C 162.9 28.9 162.9 28.9 162.9 28.9 C 162.9 30.4 161.8 31.3 160.7 31.3 C 159.8 31.3 159.2 30.8 158.9 30.3 C 158.87 30.31 158.9 32.6 158.9 32.6 L 158.2 32.6 L 158.2 26.5 Z M 162.2 28.9 C 162.2 28.9 162.2 28.9 162.2 28.9 C 162.2 27.8 161.4 27.1 160.5 27.1 C 159.7 27.1 158.8 27.8 158.8 28.9 C 158.8 28.9 158.8 28.9 158.8 28.9 C 158.8 30 159.7 30.7 160.5 30.7 C 161.4 30.7 162.2 30 162.2 28.9 Z M 164 29.8 C 164 29.8 164 29.8 164 29.8 C 164 28.9 164.8 28.3 166 28.3 C 166.6 28.3 167 28.4 167.4 28.5 C 167.4 28.5 167.4 28.4 167.4 28.4 C 167.4 27.5 166.9 27.1 166 27.1 C 165.5 27.1 165 27.2 164.6 27.4 C 164.6 27.4 164.4 26.9 164.4 26.9 C 164.9 26.6 165.4 26.5 166.1 26.5 C 166.7 26.5 167.3 26.7 167.6 27 C 167.9 27.3 168.1 27.8 168.1 28.4 C 168.07 28.36 168.1 31.2 168.1 31.2 L 167.4 31.2 C 167.4 31.2 167.4 30.5 167.4 30.5 C 167.1 30.9 166.5 31.3 165.7 31.3 C 164.9 31.3 164 30.8 164 29.8 Z M 167.4 29.5 C 167.4 29.5 167.4 29 167.4 29 C 167.1 28.9 166.6 28.8 166 28.8 C 165.2 28.8 164.7 29.2 164.7 29.8 C 164.7 29.8 164.7 29.8 164.7 29.8 C 164.7 30.4 165.2 30.8 165.9 30.8 C 166.7 30.8 167.4 30.2 167.4 29.5 Z M 169.9 30 C 169.92 29.97 169.9 27.2 169.9 27.2 L 169.3 27.2 L 169.3 26.5 L 169.9 26.5 L 169.9 25.1 L 170.6 25.1 L 170.6 26.5 L 172.1 26.5 L 172.1 27.2 L 170.6 27.2 C 170.6 27.2 170.62 29.88 170.6 29.9 C 170.6 30.4 170.9 30.7 171.4 30.7 C 171.6 30.7 171.8 30.6 172.1 30.5 C 172.1 30.5 172.1 31.1 172.1 31.1 C 171.8 31.2 171.6 31.3 171.2 31.3 C 170.5 31.3 169.9 30.9 169.9 30 Z M 173.1 29.8 C 173.1 29.8 173.1 29.8 173.1 29.8 C 173.1 28.9 174 28.3 175.1 28.3 C 175.7 28.3 176.2 28.4 176.6 28.5 C 176.6 28.5 176.6 28.4 176.6 28.4 C 176.6 27.5 176.1 27.1 175.2 27.1 C 174.6 27.1 174.2 27.2 173.8 27.4 C 173.8 27.4 173.6 26.9 173.6 26.9 C 174.1 26.6 174.6 26.5 175.3 26.5 C 175.9 26.5 176.4 26.7 176.8 27 C 177.1 27.3 177.2 27.8 177.2 28.4 C 177.23 28.36 177.2 31.2 177.2 31.2 L 176.6 31.2 C 176.6 31.2 176.57 30.5 176.6 30.5 C 176.2 30.9 175.7 31.3 174.9 31.3 C 174 31.3 173.1 30.8 173.1 29.8 Z M 176.6 29.5 C 176.6 29.5 176.6 29 176.6 29 C 176.2 28.9 175.8 28.8 175.2 28.8 C 174.3 28.8 173.8 29.2 173.8 29.8 C 173.8 29.8 173.8 29.8 173.8 29.8 C 173.8 30.4 174.4 30.8 175 30.8 C 175.9 30.8 176.6 30.2 176.6 29.5 Z M 178.9 26.5 L 179.6 26.5 C 179.6 26.5 179.58 27.36 179.6 27.4 C 179.9 26.9 180.4 26.4 181.2 26.4 C 182.3 26.4 183 27.2 183 28.3 C 182.95 28.31 183 31.2 183 31.2 L 182.3 31.2 C 182.3 31.2 182.26 28.48 182.3 28.5 C 182.3 27.6 181.8 27.1 181 27.1 C 180.2 27.1 179.6 27.7 179.6 28.5 C 179.58 28.54 179.6 31.2 179.6 31.2 L 178.9 31.2 L 178.9 26.5 Z M 184.6 32 C 184.6 32 184.9 31.5 184.9 31.5 C 185.4 31.9 186 32.1 186.7 32.1 C 187.7 32.1 188.4 31.5 188.4 30.4 C 188.4 30.4 188.4 29.9 188.4 29.9 C 188 30.4 187.4 30.8 186.5 30.8 C 185.4 30.8 184.3 30 184.3 28.7 C 184.3 28.7 184.3 28.6 184.3 28.6 C 184.3 27.3 185.4 26.4 186.5 26.4 C 187.4 26.4 188 26.9 188.3 27.4 C 188.35 27.38 188.3 26.5 188.3 26.5 L 189 26.5 C 189 26.5 189.04 30.39 189 30.4 C 189 31.1 188.8 31.7 188.4 32 C 188 32.5 187.4 32.7 186.7 32.7 C 185.9 32.7 185.2 32.4 184.6 32 Z M 188.4 28.7 C 188.4 28.7 188.4 28.6 188.4 28.6 C 188.4 27.7 187.5 27.1 186.7 27.1 C 185.8 27.1 185.1 27.7 185.1 28.6 C 185.1 28.6 185.1 28.6 185.1 28.6 C 185.1 29.6 185.8 30.2 186.7 30.2 C 187.5 30.2 188.4 29.6 188.4 28.7 Z M 195.5 26.5 L 196.2 26.5 C 196.2 26.5 196.17 27.48 196.2 27.5 C 196.6 26.9 197.1 26.4 198 26.4 C 199.1 26.4 200.2 27.3 200.2 28.9 C 200.2 28.9 200.2 28.9 200.2 28.9 C 200.2 30.4 199.1 31.3 198 31.3 C 197.1 31.3 196.5 30.8 196.2 30.3 C 196.17 30.31 196.2 32.6 196.2 32.6 L 195.5 32.6 L 195.5 26.5 Z M 199.5 28.9 C 199.5 28.9 199.5 28.9 199.5 28.9 C 199.5 27.8 198.7 27.1 197.8 27.1 C 197 27.1 196.1 27.8 196.1 28.9 C 196.1 28.9 196.1 28.9 196.1 28.9 C 196.1 30 197 30.7 197.8 30.7 C 198.7 30.7 199.5 30 199.5 28.9 Z M 201.3 29.8 C 201.3 29.8 201.3 29.8 201.3 29.8 C 201.3 28.9 202.1 28.3 203.3 28.3 C 203.9 28.3 204.3 28.4 204.7 28.5 C 204.7 28.5 204.7 28.4 204.7 28.4 C 204.7 27.5 204.2 27.1 203.3 27.1 C 202.8 27.1 202.3 27.2 201.9 27.4 C 201.9 27.4 201.7 26.9 201.7 26.9 C 202.2 26.6 202.7 26.5 203.4 26.5 C 204 26.5 204.6 26.7 204.9 27 C 205.2 27.3 205.4 27.8 205.4 28.4 C 205.37 28.36 205.4 31.2 205.4 31.2 L 204.7 31.2 C 204.7 31.2 204.71 30.5 204.7 30.5 C 204.4 30.9 203.8 31.3 203 31.3 C 202.2 31.3 201.3 30.8 201.3 29.8 Z M 204.7 29.5 C 204.7 29.5 204.7 29 204.7 29 C 204.4 28.9 203.9 28.8 203.3 28.8 C 202.5 28.8 202 29.2 202 29.8 C 202 29.8 202 29.8 202 29.8 C 202 30.4 202.5 30.8 203.2 30.8 C 204 30.8 204.7 30.2 204.7 29.5 Z M 207 26.5 L 207.7 26.5 C 207.7 26.5 207.72 27.36 207.7 27.4 C 208 26.9 208.5 26.4 209.3 26.4 C 210.4 26.4 211.1 27.2 211.1 28.3 C 211.09 28.31 211.1 31.2 211.1 31.2 L 210.4 31.2 C 210.4 31.2 210.4 28.48 210.4 28.5 C 210.4 27.6 209.9 27.1 209.1 27.1 C 208.3 27.1 207.7 27.7 207.7 28.5 C 207.72 28.54 207.7 31.2 207.7 31.2 L 207 31.2 L 207 26.5 Z M 213 30 C 213 29.97 213 27.2 213 27.2 L 212.3 27.2 L 212.3 26.5 L 213 26.5 L 213 25.1 L 213.7 25.1 L 213.7 26.5 L 215.2 26.5 L 215.2 27.2 L 213.7 27.2 C 213.7 27.2 213.69 29.88 213.7 29.9 C 213.7 30.4 214 30.7 214.5 30.7 C 214.7 30.7 214.9 30.6 215.1 30.5 C 215.1 30.5 215.1 31.1 215.1 31.1 C 214.9 31.2 214.6 31.3 214.3 31.3 C 213.6 31.3 213 30.9 213 30 Z M 216.2 29.8 C 216.2 29.8 216.2 29.8 216.2 29.8 C 216.2 28.9 217 28.3 218.2 28.3 C 218.8 28.3 219.2 28.4 219.6 28.5 C 219.6 28.5 219.6 28.4 219.6 28.4 C 219.6 27.5 219.1 27.1 218.3 27.1 C 217.7 27.1 217.3 27.2 216.8 27.4 C 216.8 27.4 216.6 26.9 216.6 26.9 C 217.1 26.6 217.6 26.5 218.3 26.5 C 219 26.5 219.5 26.7 219.8 27 C 220.1 27.3 220.3 27.8 220.3 28.4 C 220.3 28.36 220.3 31.2 220.3 31.2 L 219.6 31.2 C 219.6 31.2 219.64 30.5 219.6 30.5 C 219.3 30.9 218.8 31.3 218 31.3 C 217.1 31.3 216.2 30.8 216.2 29.8 Z M 219.6 29.5 C 219.6 29.5 219.6 29 219.6 29 C 219.3 28.9 218.8 28.8 218.3 28.8 C 217.4 28.8 216.9 29.2 216.9 29.8 C 216.9 29.8 216.9 29.8 216.9 29.8 C 216.9 30.4 217.5 30.8 218.1 30.8 C 218.9 30.8 219.6 30.2 219.6 29.5 Z M 221.7 28.9 C 221.7 28.9 221.7 28.9 221.7 28.9 C 221.7 27.6 222.7 26.4 224.1 26.4 C 225.5 26.4 226.5 27.5 226.5 28.9 C 226.5 28.9 226.5 28.9 226.5 28.9 C 226.5 30.2 225.5 31.3 224.1 31.3 C 222.7 31.3 221.7 30.2 221.7 28.9 Z M 225.8 28.9 C 225.8 28.9 225.8 28.9 225.8 28.9 C 225.8 27.9 225.1 27.1 224.1 27.1 C 223.1 27.1 222.4 27.9 222.4 28.9 C 222.4 28.9 222.4 28.9 222.4 28.9 C 222.4 29.9 223.1 30.7 224.1 30.7 C 225.1 30.7 225.8 29.9 225.8 28.9 Z M 227.4 32 C 227.9 31.8 228.1 31.6 228 31.2 C 228.02 31.2 227.7 31.2 227.7 31.2 L 227.7 30.3 L 228.5 30.3 C 228.5 30.3 228.52 31.06 228.5 31.1 C 228.5 31.8 228.2 32.1 227.5 32.3 C 227.5 32.3 227.4 32 227.4 32 Z M 234.5 29.8 C 234.5 29.8 234.5 29.8 234.5 29.8 C 234.5 28.9 235.3 28.3 236.5 28.3 C 237.1 28.3 237.5 28.4 237.9 28.5 C 237.9 28.5 237.9 28.4 237.9 28.4 C 237.9 27.5 237.4 27.1 236.6 27.1 C 236 27.1 235.6 27.2 235.1 27.4 C 235.1 27.4 234.9 26.9 234.9 26.9 C 235.4 26.6 236 26.5 236.6 26.5 C 237.3 26.5 237.8 26.7 238.1 27 C 238.4 27.3 238.6 27.8 238.6 28.4 C 238.61 28.36 238.6 31.2 238.6 31.2 L 237.9 31.2 C 237.9 31.2 237.94 30.5 237.9 30.5 C 237.6 30.9 237.1 31.3 236.3 31.3 C 235.4 31.3 234.5 30.8 234.5 29.8 Z M 237.9 29.5 C 237.9 29.5 237.9 29 237.9 29 C 237.6 28.9 237.1 28.8 236.6 28.8 C 235.7 28.8 235.2 29.2 235.2 29.8 C 235.2 29.8 235.2 29.8 235.2 29.8 C 235.2 30.4 235.8 30.8 236.4 30.8 C 237.2 30.8 237.9 30.2 237.9 29.5 Z M 240.5 30 C 240.46 29.97 240.5 27.2 240.5 27.2 L 239.8 27.2 L 239.8 26.5 L 240.5 26.5 L 240.5 25.1 L 241.2 25.1 L 241.2 26.5 L 242.6 26.5 L 242.6 27.2 L 241.2 27.2 C 241.2 27.2 241.15 29.88 241.2 29.9 C 241.2 30.4 241.5 30.7 241.9 30.7 C 242.2 30.7 242.4 30.6 242.6 30.5 C 242.6 30.5 242.6 31.1 242.6 31.1 C 242.4 31.2 242.1 31.3 241.8 31.3 C 241 31.3 240.5 30.9 240.5 30 Z M 248.7 24.6 L 249.4 24.6 L 249.4 29.2 L 251.9 26.5 L 252.8 26.5 L 250.9 28.5 L 252.9 31.2 L 252 31.2 L 250.4 29 L 249.4 30 L 249.4 31.2 L 248.7 31.2 L 248.7 24.6 Z M 253.6 29.8 C 253.6 29.8 253.6 29.8 253.6 29.8 C 253.6 28.9 254.4 28.3 255.6 28.3 C 256.2 28.3 256.6 28.4 257 28.5 C 257 28.5 257 28.4 257 28.4 C 257 27.5 256.5 27.1 255.6 27.1 C 255.1 27.1 254.7 27.2 254.2 27.4 C 254.2 27.4 254 26.9 254 26.9 C 254.5 26.6 255 26.5 255.7 26.5 C 256.4 26.5 256.9 26.7 257.2 27 C 257.5 27.3 257.7 27.8 257.7 28.4 C 257.69 28.36 257.7 31.2 257.7 31.2 L 257 31.2 C 257 31.2 257.03 30.5 257 30.5 C 256.7 30.9 256.2 31.3 255.3 31.3 C 254.5 31.3 253.6 30.8 253.6 29.8 Z M 257 29.5 C 257 29.5 257 29 257 29 C 256.7 28.9 256.2 28.8 255.7 28.8 C 254.8 28.8 254.3 29.2 254.3 29.8 C 254.3 29.8 254.3 29.8 254.3 29.8 C 254.3 30.4 254.8 30.8 255.5 30.8 C 256.3 30.8 257 30.2 257 29.5 Z M 258.8 26.5 L 259.5 26.5 L 260.7 30.3 L 262 26.5 L 262.6 26.5 L 263.8 30.3 L 265 26.5 L 265.8 26.5 L 264.1 31.2 L 263.5 31.2 L 262.3 27.6 L 261 31.2 L 260.4 31.2 L 258.8 26.5 Z M 266.6 29.8 C 266.6 29.8 266.6 29.8 266.6 29.8 C 266.6 28.9 267.4 28.3 268.6 28.3 C 269.1 28.3 269.6 28.4 270 28.5 C 270 28.5 270 28.4 270 28.4 C 270 27.5 269.5 27.1 268.6 27.1 C 268.1 27.1 267.6 27.2 267.2 27.4 C 267.2 27.4 267 26.9 267 26.9 C 267.5 26.6 268 26.5 268.7 26.5 C 269.3 26.5 269.8 26.7 270.2 27 C 270.5 27.3 270.7 27.8 270.7 28.4 C 270.65 28.36 270.7 31.2 270.7 31.2 L 270 31.2 C 270 31.2 269.99 30.5 270 30.5 C 269.7 30.9 269.1 31.3 268.3 31.3 C 267.4 31.3 266.6 30.8 266.6 29.8 Z M 270 29.5 C 270 29.5 270 29 270 29 C 269.7 28.9 269.2 28.8 268.6 28.8 C 267.8 28.8 267.3 29.2 267.3 29.8 C 267.3 29.8 267.3 29.8 267.3 29.8 C 267.3 30.4 267.8 30.8 268.4 30.8 C 269.3 30.8 270 30.2 270 29.5 Z M 272.4 24.6 L 273.1 24.6 L 273.1 31.2 L 272.4 31.2 L 272.4 24.6 Z M 274.5 29.8 C 274.5 29.8 274.5 29.8 274.5 29.8 C 274.5 28.9 275.3 28.3 276.5 28.3 C 277.1 28.3 277.5 28.4 277.9 28.5 C 277.9 28.5 277.9 28.4 277.9 28.4 C 277.9 27.5 277.4 27.1 276.5 27.1 C 276 27.1 275.6 27.2 275.1 27.4 C 275.1 27.4 274.9 26.9 274.9 26.9 C 275.4 26.6 275.9 26.5 276.6 26.5 C 277.3 26.5 277.8 26.7 278.1 27 C 278.4 27.3 278.6 27.8 278.6 28.4 C 278.59 28.36 278.6 31.2 278.6 31.2 L 277.9 31.2 C 277.9 31.2 277.92 30.5 277.9 30.5 C 277.6 30.9 277.1 31.3 276.2 31.3 C 275.4 31.3 274.5 30.8 274.5 29.8 Z M 277.9 29.5 C 277.9 29.5 277.9 29 277.9 29 C 277.6 28.9 277.1 28.8 276.6 28.8 C 275.7 28.8 275.2 29.2 275.2 29.8 C 275.2 29.8 275.2 29.8 275.2 29.8 C 275.2 30.4 275.7 30.8 276.4 30.8 C 277.2 30.8 277.9 30.2 277.9 29.5 Z M 280.2 26.5 L 280.9 26.5 C 280.9 26.5 280.94 27.36 280.9 27.4 C 281.2 26.9 281.7 26.4 282.5 26.4 C 283.7 26.4 284.3 27.2 284.3 28.3 C 284.31 28.31 284.3 31.2 284.3 31.2 L 283.6 31.2 C 283.6 31.2 283.62 28.48 283.6 28.5 C 283.6 27.6 283.2 27.1 282.3 27.1 C 281.5 27.1 280.9 27.7 280.9 28.5 C 280.94 28.54 280.9 31.2 280.9 31.2 L 280.2 31.2 L 280.2 26.5 Z M 290.7 26.5 L 291.4 26.5 C 291.4 26.5 291.38 27.36 291.4 27.4 C 291.7 26.9 292.2 26.4 293 26.4 C 294.1 26.4 294.8 27.2 294.8 28.3 C 294.75 28.31 294.8 31.2 294.8 31.2 L 294.1 31.2 C 294.1 31.2 294.06 28.48 294.1 28.5 C 294.1 27.6 293.6 27.1 292.8 27.1 C 292 27.1 291.4 27.7 291.4 28.5 C 291.38 28.54 291.4 31.2 291.4 31.2 L 290.7 31.2 L 290.7 26.5 Z M 296.4 32 C 296.4 32 296.7 31.5 296.7 31.5 C 297.2 31.9 297.8 32.1 298.5 32.1 C 299.5 32.1 300.2 31.5 300.2 30.4 C 300.2 30.4 300.2 29.9 300.2 29.9 C 299.7 30.4 299.2 30.8 298.3 30.8 C 297.2 30.8 296.1 30 296.1 28.7 C 296.1 28.7 296.1 28.6 296.1 28.6 C 296.1 27.3 297.2 26.4 298.3 26.4 C 299.2 26.4 299.8 26.9 300.1 27.4 C 300.14 27.38 300.1 26.5 300.1 26.5 L 300.8 26.5 C 300.8 26.5 300.83 30.39 300.8 30.4 C 300.8 31.1 300.6 31.7 300.2 32 C 299.8 32.5 299.2 32.7 298.5 32.7 C 297.7 32.7 297 32.4 296.4 32 Z M 300.2 28.7 C 300.2 28.7 300.2 28.6 300.2 28.6 C 300.2 27.7 299.3 27.1 298.5 27.1 C 297.6 27.1 296.8 27.7 296.8 28.6 C 296.8 28.6 296.8 28.6 296.8 28.6 C 296.8 29.6 297.6 30.2 298.5 30.2 C 299.3 30.2 300.2 29.6 300.2 28.7 Z " stroke="none" fill="#fff"/>
  </g>
  <g id="Polygon19639">
    <path d="M 0.8 14.5 L 1.5 14.5 C 1.5 14.5 1.47 15.33 1.5 15.3 C 1.8 14.9 2.2 14.4 3 14.4 C 3.7 14.4 4.2 14.9 4.5 15.4 C 4.8 14.9 5.3 14.4 6.1 14.4 C 7.2 14.4 7.8 15.2 7.8 16.3 C 7.83 16.32 7.8 19.2 7.8 19.2 L 7.1 19.2 C 7.1 19.2 7.14 16.48 7.1 16.5 C 7.1 15.6 6.7 15.1 5.9 15.1 C 5.2 15.1 4.7 15.6 4.7 16.5 C 4.65 16.52 4.7 19.2 4.7 19.2 L 4 19.2 C 4 19.2 3.96 16.46 4 16.5 C 4 15.6 3.5 15.1 2.8 15.1 C 2 15.1 1.5 15.7 1.5 16.5 C 1.47 16.54 1.5 19.2 1.5 19.2 L 0.8 19.2 L 0.8 14.5 Z M 9.5 20 C 9.5 20 9.8 19.5 9.8 19.5 C 10.3 19.9 10.9 20.1 11.6 20.1 C 12.6 20.1 13.3 19.5 13.3 18.4 C 13.3 18.4 13.3 17.9 13.3 17.9 C 12.9 18.4 12.3 18.8 11.4 18.8 C 10.3 18.8 9.2 18 9.2 16.7 C 9.2 16.7 9.2 16.6 9.2 16.6 C 9.2 15.3 10.3 14.4 11.4 14.4 C 12.3 14.4 12.9 14.9 13.2 15.4 C 13.25 15.38 13.2 14.5 13.2 14.5 L 13.9 14.5 C 13.9 14.5 13.94 18.39 13.9 18.4 C 13.9 19.1 13.7 19.7 13.3 20 C 12.9 20.5 12.3 20.7 11.6 20.7 C 10.8 20.7 10.1 20.4 9.5 20 Z M 13.3 16.7 C 13.3 16.7 13.3 16.6 13.3 16.6 C 13.3 15.7 12.4 15.1 11.6 15.1 C 10.7 15.1 10 15.7 10 16.6 C 10 16.6 10 16.6 10 16.6 C 10 17.6 10.7 18.2 11.6 18.2 C 12.4 18.2 13.3 17.6 13.3 16.7 Z M 15.3 17.8 C 15.3 17.8 15.3 17.8 15.3 17.8 C 15.3 16.9 16.1 16.3 17.3 16.3 C 17.9 16.3 18.3 16.4 18.7 16.5 C 18.7 16.5 18.7 16.4 18.7 16.4 C 18.7 15.5 18.2 15.1 17.4 15.1 C 16.8 15.1 16.4 15.2 15.9 15.4 C 15.9 15.4 15.7 14.9 15.7 14.9 C 16.2 14.6 16.7 14.5 17.4 14.5 C 18.1 14.5 18.6 14.7 18.9 15 C 19.2 15.3 19.4 15.8 19.4 16.4 C 19.4 16.36 19.4 19.2 19.4 19.2 L 18.7 19.2 C 18.7 19.2 18.74 18.5 18.7 18.5 C 18.4 18.9 17.9 19.3 17.1 19.3 C 16.2 19.3 15.3 18.8 15.3 17.8 Z M 18.7 17.5 C 18.7 17.5 18.7 17 18.7 17 C 18.4 16.9 17.9 16.8 17.4 16.8 C 16.5 16.8 16 17.2 16 17.8 C 16 17.8 16 17.8 16 17.8 C 16 18.4 16.6 18.8 17.2 18.8 C 18 18.8 18.7 18.2 18.7 17.5 Z M 24.8 14.5 L 25.5 14.5 C 25.5 14.5 25.53 15.36 25.5 15.4 C 25.8 14.9 26.3 14.4 27.1 14.4 C 28.2 14.4 28.9 15.2 28.9 16.3 C 28.91 16.31 28.9 19.2 28.9 19.2 L 28.2 19.2 C 28.2 19.2 28.21 16.48 28.2 16.5 C 28.2 15.6 27.7 15.1 26.9 15.1 C 26.1 15.1 25.5 15.7 25.5 16.5 C 25.53 16.54 25.5 19.2 25.5 19.2 L 24.8 19.2 L 24.8 14.5 Z M 30.2 17.8 C 30.2 17.8 30.2 17.8 30.2 17.8 C 30.2 16.9 31 16.3 32.2 16.3 C 32.8 16.3 33.2 16.4 33.6 16.5 C 33.6 16.5 33.6 16.4 33.6 16.4 C 33.6 15.5 33.1 15.1 32.2 15.1 C 31.7 15.1 31.3 15.2 30.8 15.4 C 30.8 15.4 30.6 14.9 30.6 14.9 C 31.1 14.6 31.6 14.5 32.3 14.5 C 33 14.5 33.5 14.7 33.8 15 C 34.1 15.3 34.3 15.8 34.3 16.4 C 34.3 16.36 34.3 19.2 34.3 19.2 L 33.6 19.2 C 33.6 19.2 33.63 18.5 33.6 18.5 C 33.3 18.9 32.8 19.3 31.9 19.3 C 31.1 19.3 30.2 18.8 30.2 17.8 Z M 33.6 17.5 C 33.6 17.5 33.6 17 33.6 17 C 33.3 16.9 32.8 16.8 32.3 16.8 C 31.4 16.8 30.9 17.2 30.9 17.8 C 30.9 17.8 30.9 17.8 30.9 17.8 C 30.9 18.4 31.5 18.8 32.1 18.8 C 32.9 18.8 33.6 18.2 33.6 17.5 Z M 35.9 20 C 35.9 20 36.2 19.5 36.2 19.5 C 36.7 19.9 37.3 20.1 38 20.1 C 39 20.1 39.7 19.5 39.7 18.4 C 39.7 18.4 39.7 17.9 39.7 17.9 C 39.3 18.4 38.7 18.8 37.9 18.8 C 36.8 18.8 35.7 18 35.7 16.7 C 35.7 16.7 35.7 16.6 35.7 16.6 C 35.7 15.3 36.8 14.4 37.9 14.4 C 38.7 14.4 39.3 14.9 39.7 15.4 C 39.69 15.38 39.7 14.5 39.7 14.5 L 40.4 14.5 C 40.4 14.5 40.38 18.39 40.4 18.4 C 40.4 19.1 40.2 19.7 39.8 20 C 39.4 20.5 38.8 20.7 38 20.7 C 37.2 20.7 36.5 20.4 35.9 20 Z M 39.7 16.7 C 39.7 16.7 39.7 16.6 39.7 16.6 C 39.7 15.7 38.9 15.1 38 15.1 C 37.1 15.1 36.4 15.7 36.4 16.6 C 36.4 16.6 36.4 16.6 36.4 16.6 C 36.4 17.6 37.1 18.2 38 18.2 C 38.9 18.2 39.7 17.6 39.7 16.7 Z M 42.1 12.8 L 42.9 12.8 L 42.9 13.5 L 42.1 13.5 L 42.1 12.8 Z M 42.2 14.5 L 42.9 14.5 L 42.9 19.2 L 42.2 19.2 L 42.2 14.5 Z M 44.7 14.5 L 45.3 14.5 C 45.3 14.5 45.35 15.36 45.3 15.4 C 45.7 14.9 46.1 14.4 46.9 14.4 C 48.1 14.4 48.7 15.2 48.7 16.3 C 48.72 16.31 48.7 19.2 48.7 19.2 L 48 19.2 C 48 19.2 48.03 16.48 48 16.5 C 48 15.6 47.6 15.1 46.7 15.1 C 45.9 15.1 45.3 15.7 45.3 16.5 C 45.35 16.54 45.3 19.2 45.3 19.2 L 44.7 19.2 L 44.7 14.5 Z M 50.3 20 C 50.3 20 50.6 19.5 50.6 19.5 C 51.2 19.9 51.8 20.1 52.4 20.1 C 53.5 20.1 54.1 19.5 54.1 18.4 C 54.1 18.4 54.1 17.9 54.1 17.9 C 53.7 18.4 53.2 18.8 52.3 18.8 C 51.2 18.8 50.1 18 50.1 16.7 C 50.1 16.7 50.1 16.6 50.1 16.6 C 50.1 15.3 51.2 14.4 52.3 14.4 C 53.2 14.4 53.7 14.9 54.1 15.4 C 54.11 15.38 54.1 14.5 54.1 14.5 L 54.8 14.5 C 54.8 14.5 54.81 18.39 54.8 18.4 C 54.8 19.1 54.6 19.7 54.2 20 C 53.8 20.5 53.2 20.7 52.4 20.7 C 51.7 20.7 50.9 20.4 50.3 20 Z M 54.1 16.7 C 54.1 16.7 54.1 16.6 54.1 16.6 C 54.1 15.7 53.3 15.1 52.4 15.1 C 51.5 15.1 50.8 15.7 50.8 16.6 C 50.8 16.6 50.8 16.6 50.8 16.6 C 50.8 17.6 51.6 18.2 52.4 18.2 C 53.3 18.2 54.1 17.6 54.1 16.7 Z M 59.9 18.6 C 59.9 18.6 60.3 18.1 60.3 18.1 C 60.8 18.5 61.3 18.7 61.9 18.7 C 62.4 18.7 62.9 18.4 62.9 18 C 62.9 18 62.9 17.9 62.9 17.9 C 62.9 17.5 62.3 17.3 61.7 17.1 C 61 16.9 60.2 16.7 60.2 15.8 C 60.2 15.8 60.2 15.8 60.2 15.8 C 60.2 15 60.8 14.5 61.7 14.5 C 62.3 14.5 62.9 14.7 63.4 15 C 63.4 15 63.1 15.5 63.1 15.5 C 62.7 15.2 62.2 15.1 61.7 15.1 C 61.2 15.1 60.8 15.3 60.8 15.7 C 60.8 15.7 60.8 15.7 60.8 15.7 C 60.8 16.2 61.4 16.4 62 16.5 C 62.7 16.8 63.5 17 63.5 17.9 C 63.5 17.9 63.5 17.9 63.5 17.9 C 63.5 18.8 62.8 19.3 61.9 19.3 C 61.2 19.3 60.4 19 59.9 18.6 Z M 64.9 17.4 C 64.9 17.44 64.9 14.5 64.9 14.5 L 65.6 14.5 C 65.6 14.5 65.6 17.27 65.6 17.3 C 65.6 18.1 66.1 18.7 66.9 18.7 C 67.7 18.7 68.3 18.1 68.3 17.2 C 68.28 17.21 68.3 14.5 68.3 14.5 L 69 14.5 L 69 19.2 L 68.3 19.2 C 68.3 19.2 68.28 18.39 68.3 18.4 C 68 18.9 67.5 19.3 66.7 19.3 C 65.6 19.3 64.9 18.5 64.9 17.4 Z M 70.8 12.6 L 71.5 12.6 L 71.5 19.2 L 70.8 19.2 L 70.8 12.6 Z M 73.3 12.8 L 74.1 12.8 L 74.1 13.5 L 73.3 13.5 L 73.3 12.8 Z M 73.3 14.5 L 74 14.5 L 74 19.2 L 73.3 19.2 L 73.3 14.5 Z M 75.8 14.5 L 76.5 14.5 C 76.5 14.5 76.49 15.76 76.5 15.8 C 76.8 15 77.5 14.4 78.4 14.5 C 78.38 14.47 78.4 15.2 78.4 15.2 C 78.4 15.2 78.33 15.21 78.3 15.2 C 77.3 15.2 76.5 15.9 76.5 17.3 C 76.49 17.35 76.5 19.2 76.5 19.2 L 75.8 19.2 L 75.8 14.5 Z M 79 17.8 C 79 17.8 79 17.8 79 17.8 C 79 16.9 79.9 16.3 81 16.3 C 81.6 16.3 82 16.4 82.5 16.5 C 82.5 16.5 82.5 16.4 82.5 16.4 C 82.5 15.5 81.9 15.1 81.1 15.1 C 80.5 15.1 80.1 15.2 79.7 15.4 C 79.7 15.4 79.5 14.9 79.5 14.9 C 80 14.6 80.5 14.5 81.1 14.5 C 81.8 14.5 82.3 14.7 82.7 15 C 83 15.3 83.1 15.8 83.1 16.4 C 83.13 16.36 83.1 19.2 83.1 19.2 L 82.5 19.2 C 82.5 19.2 82.46 18.5 82.5 18.5 C 82.1 18.9 81.6 19.3 80.8 19.3 C 79.9 19.3 79 18.8 79 17.8 Z M 82.5 17.5 C 82.5 17.5 82.5 17 82.5 17 C 82.1 16.9 81.7 16.8 81.1 16.8 C 80.2 16.8 79.7 17.2 79.7 17.8 C 79.7 17.8 79.7 17.8 79.7 17.8 C 79.7 18.4 80.3 18.8 80.9 18.8 C 81.8 18.8 82.5 18.2 82.5 17.5 Z M 84.8 14.5 L 85.5 14.5 C 85.5 14.5 85.48 15.36 85.5 15.4 C 85.8 14.9 86.3 14.4 87.1 14.4 C 88.2 14.4 88.9 15.2 88.9 16.3 C 88.85 16.31 88.9 19.2 88.9 19.2 L 88.2 19.2 C 88.2 19.2 88.16 16.48 88.2 16.5 C 88.2 15.6 87.7 15.1 86.9 15.1 C 86.1 15.1 85.5 15.7 85.5 16.5 C 85.48 16.54 85.5 19.2 85.5 19.2 L 84.8 19.2 L 84.8 14.5 Z M 90.5 12.8 L 91.3 12.8 L 91.3 13.5 L 90.5 13.5 L 90.5 12.8 Z M 90.6 14.5 L 91.3 14.5 L 91.3 19.2 L 90.6 19.2 L 90.6 14.5 Z M 93.1 14.5 L 93.7 14.5 C 93.7 14.5 93.75 15.36 93.7 15.4 C 94.1 14.9 94.5 14.4 95.3 14.4 C 96.5 14.4 97.1 15.2 97.1 16.3 C 97.12 16.31 97.1 19.2 97.1 19.2 L 96.4 19.2 C 96.4 19.2 96.43 16.48 96.4 16.5 C 96.4 15.6 96 15.1 95.1 15.1 C 94.3 15.1 93.7 15.7 93.7 16.5 C 93.75 16.54 93.7 19.2 93.7 19.2 L 93.1 19.2 L 93.1 14.5 Z M 102.6 14.5 L 103.2 14.5 C 103.2 14.5 103.25 15.36 103.2 15.4 C 103.6 14.9 104 14.4 104.8 14.4 C 106 14.4 106.6 15.2 106.6 16.3 C 106.62 16.31 106.6 19.2 106.6 19.2 L 105.9 19.2 C 105.9 19.2 105.93 16.48 105.9 16.5 C 105.9 15.6 105.5 15.1 104.6 15.1 C 103.8 15.1 103.2 15.7 103.2 16.5 C 103.25 16.54 103.2 19.2 103.2 19.2 L 102.6 19.2 L 102.6 14.5 Z M 108.2 20 C 108.2 20 108.5 19.5 108.5 19.5 C 109.1 19.9 109.7 20.1 110.3 20.1 C 111.4 20.1 112 19.5 112 18.4 C 112 18.4 112 17.9 112 17.9 C 111.6 18.4 111.1 18.8 110.2 18.8 C 109.1 18.8 108 18 108 16.7 C 108 16.7 108 16.6 108 16.6 C 108 15.3 109.1 14.4 110.2 14.4 C 111.1 14.4 111.6 14.9 112 15.4 C 112.02 15.38 112 14.5 112 14.5 L 112.7 14.5 C 112.7 14.5 112.71 18.39 112.7 18.4 C 112.7 19.1 112.5 19.7 112.1 20 C 111.7 20.5 111.1 20.7 110.3 20.7 C 109.6 20.7 108.8 20.4 108.2 20 Z M 112 16.7 C 112 16.7 112 16.6 112 16.6 C 112 15.7 111.2 15.1 110.3 15.1 C 109.4 15.1 108.7 15.7 108.7 16.6 C 108.7 16.6 108.7 16.6 108.7 16.6 C 108.7 17.6 109.5 18.2 110.3 18.2 C 111.2 18.2 112 17.6 112 16.7 Z M 118.2 12.6 L 118.9 12.6 L 118.9 17.2 L 121.4 14.5 L 122.3 14.5 L 120.3 16.5 L 122.3 19.2 L 121.5 19.2 L 119.9 17 L 118.9 18 L 118.9 19.2 L 118.2 19.2 L 118.2 12.6 Z M 123.1 17.8 C 123.1 17.8 123.1 17.8 123.1 17.8 C 123.1 16.9 123.9 16.3 125.1 16.3 C 125.7 16.3 126.1 16.4 126.5 16.5 C 126.5 16.5 126.5 16.4 126.5 16.4 C 126.5 15.5 126 15.1 125.1 15.1 C 124.6 15.1 124.1 15.2 123.7 15.4 C 123.7 15.4 123.5 14.9 123.5 14.9 C 124 14.6 124.5 14.5 125.2 14.5 C 125.8 14.5 126.3 14.7 126.7 15 C 127 15.3 127.2 15.8 127.2 16.4 C 127.16 16.36 127.2 19.2 127.2 19.2 L 126.5 19.2 C 126.5 19.2 126.49 18.5 126.5 18.5 C 126.2 18.9 125.6 19.3 124.8 19.3 C 123.9 19.3 123.1 18.8 123.1 17.8 Z M 126.5 17.5 C 126.5 17.5 126.5 17 126.5 17 C 126.2 16.9 125.7 16.8 125.1 16.8 C 124.3 16.8 123.8 17.2 123.8 17.8 C 123.8 17.8 123.8 17.8 123.8 17.8 C 123.8 18.4 124.3 18.8 124.9 18.8 C 125.8 18.8 126.5 18.2 126.5 17.5 Z M 128.4 18.6 C 128.4 18.6 128.8 18.1 128.8 18.1 C 129.3 18.5 129.8 18.7 130.4 18.7 C 130.9 18.7 131.4 18.4 131.4 18 C 131.4 18 131.4 17.9 131.4 17.9 C 131.4 17.5 130.8 17.3 130.2 17.1 C 129.5 16.9 128.7 16.7 128.7 15.8 C 128.7 15.8 128.7 15.8 128.7 15.8 C 128.7 15 129.3 14.5 130.2 14.5 C 130.8 14.5 131.4 14.7 131.9 15 C 131.9 15 131.6 15.5 131.6 15.5 C 131.2 15.2 130.7 15.1 130.2 15.1 C 129.7 15.1 129.3 15.3 129.3 15.7 C 129.3 15.7 129.3 15.7 129.3 15.7 C 129.3 16.2 129.9 16.4 130.5 16.5 C 131.2 16.8 132 17 132 17.9 C 132 17.9 132 17.9 132 17.9 C 132 18.8 131.3 19.3 130.4 19.3 C 129.7 19.3 129 19 128.4 18.6 Z M 133.1 17.8 C 133.1 17.8 133.1 17.8 133.1 17.8 C 133.1 16.9 133.9 16.3 135.1 16.3 C 135.7 16.3 136.1 16.4 136.5 16.5 C 136.5 16.5 136.5 16.4 136.5 16.4 C 136.5 15.5 136 15.1 135.2 15.1 C 134.6 15.1 134.2 15.2 133.7 15.4 C 133.7 15.4 133.5 14.9 133.5 14.9 C 134.1 14.6 134.6 14.5 135.2 14.5 C 135.9 14.5 136.4 14.7 136.7 15 C 137.1 15.3 137.2 15.8 137.2 16.4 C 137.21 16.36 137.2 19.2 137.2 19.2 L 136.5 19.2 C 136.5 19.2 136.55 18.5 136.5 18.5 C 136.2 18.9 135.7 19.3 134.9 19.3 C 134 19.3 133.1 18.8 133.1 17.8 Z M 136.6 17.5 C 136.6 17.5 136.6 17 136.6 17 C 136.2 16.9 135.8 16.8 135.2 16.8 C 134.3 16.8 133.8 17.2 133.8 17.8 C 133.8 17.8 133.8 17.8 133.8 17.8 C 133.8 18.4 134.4 18.8 135 18.8 C 135.9 18.8 136.6 18.2 136.6 17.5 Z M 138.9 12.6 L 139.6 12.6 L 139.6 19.2 L 138.9 19.2 L 138.9 12.6 Z M 141.3 17.4 C 141.34 17.44 141.3 14.5 141.3 14.5 L 142 14.5 C 142 14.5 142.04 17.27 142 17.3 C 142 18.1 142.5 18.7 143.3 18.7 C 144.1 18.7 144.7 18.1 144.7 17.2 C 144.72 17.21 144.7 14.5 144.7 14.5 L 145.4 14.5 L 145.4 19.2 L 144.7 19.2 C 144.7 19.2 144.72 18.39 144.7 18.4 C 144.4 18.9 143.9 19.3 143.1 19.3 C 142 19.3 141.3 18.5 141.3 17.4 Z M 147.1 12.6 L 147.8 12.6 L 147.8 17.2 L 150.3 14.5 L 151.2 14.5 L 149.3 16.5 L 151.3 19.2 L 150.4 19.2 L 148.8 17 L 147.8 18 L 147.8 19.2 L 147.1 19.2 L 147.1 12.6 Z M 152.3 17.4 C 152.28 17.44 152.3 14.5 152.3 14.5 L 153 14.5 C 153 14.5 152.97 17.27 153 17.3 C 153 18.1 153.4 18.7 154.3 18.7 C 155.1 18.7 155.7 18.1 155.7 17.2 C 155.65 17.21 155.7 14.5 155.7 14.5 L 156.3 14.5 L 156.3 19.2 L 155.7 19.2 C 155.7 19.2 155.65 18.39 155.7 18.4 C 155.3 18.9 154.9 19.3 154.1 19.3 C 152.9 19.3 152.3 18.5 152.3 17.4 Z M 161.6 14.5 L 162.3 14.5 C 162.3 14.5 160.34 19.35 160.3 19.4 C 159.9 20.3 159.5 20.7 158.8 20.7 C 158.4 20.7 158.1 20.6 157.8 20.4 C 157.8 20.4 158 19.9 158 19.9 C 158.3 20 158.5 20.1 158.8 20.1 C 159.2 20.1 159.4 19.8 159.7 19.2 C 159.72 19.18 157.6 14.5 157.6 14.5 L 158.4 14.5 L 160.1 18.4 L 161.6 14.5 Z M 163 17.8 C 163 17.8 163 17.8 163 17.8 C 163 16.9 163.8 16.3 165 16.3 C 165.6 16.3 166 16.4 166.4 16.5 C 166.4 16.5 166.4 16.4 166.4 16.4 C 166.4 15.5 165.9 15.1 165 15.1 C 164.5 15.1 164 15.2 163.6 15.4 C 163.6 15.4 163.4 14.9 163.4 14.9 C 163.9 14.6 164.4 14.5 165.1 14.5 C 165.8 14.5 166.3 14.7 166.6 15 C 166.9 15.3 167.1 15.8 167.1 16.4 C 167.08 16.36 167.1 19.2 167.1 19.2 L 166.4 19.2 C 166.4 19.2 166.42 18.5 166.4 18.5 C 166.1 18.9 165.6 19.3 164.7 19.3 C 163.9 19.3 163 18.8 163 17.8 Z M 166.4 17.5 C 166.4 17.5 166.4 17 166.4 17 C 166.1 16.9 165.6 16.8 165.1 16.8 C 164.2 16.8 163.7 17.2 163.7 17.8 C 163.7 17.8 163.7 17.8 163.7 17.8 C 163.7 18.4 164.2 18.8 164.9 18.8 C 165.7 18.8 166.4 18.2 166.4 17.5 Z M 168.7 14.5 L 169.4 14.5 C 169.4 14.5 169.43 15.36 169.4 15.4 C 169.7 14.9 170.2 14.4 171 14.4 C 172.2 14.4 172.8 15.2 172.8 16.3 C 172.81 16.31 172.8 19.2 172.8 19.2 L 172.1 19.2 C 172.1 19.2 172.11 16.48 172.1 16.5 C 172.1 15.6 171.6 15.1 170.8 15.1 C 170 15.1 169.4 15.7 169.4 16.5 C 169.43 16.54 169.4 19.2 169.4 19.2 L 168.7 19.2 L 168.7 14.5 Z M 174.4 20 C 174.4 20 174.7 19.5 174.7 19.5 C 175.3 19.9 175.8 20.1 176.5 20.1 C 177.5 20.1 178.2 19.5 178.2 18.4 C 178.2 18.4 178.2 17.9 178.2 17.9 C 177.8 18.4 177.2 18.8 176.4 18.8 C 175.3 18.8 174.2 18 174.2 16.7 C 174.2 16.7 174.2 16.6 174.2 16.6 C 174.2 15.3 175.3 14.4 176.4 14.4 C 177.3 14.4 177.8 14.9 178.2 15.4 C 178.2 15.38 178.2 14.5 178.2 14.5 L 178.9 14.5 C 178.9 14.5 178.89 18.39 178.9 18.4 C 178.9 19.1 178.7 19.7 178.3 20 C 177.9 20.5 177.3 20.7 176.5 20.7 C 175.8 20.7 175 20.4 174.4 20 Z M 178.2 16.7 C 178.2 16.7 178.2 16.6 178.2 16.6 C 178.2 15.7 177.4 15.1 176.5 15.1 C 175.6 15.1 174.9 15.7 174.9 16.6 C 174.9 16.6 174.9 16.6 174.9 16.6 C 174.9 17.6 175.7 18.2 176.5 18.2 C 177.4 18.2 178.2 17.6 178.2 16.7 Z M 184 17.8 C 184 17.8 184 17.8 184 17.8 C 184 16.9 184.9 16.3 186 16.3 C 186.6 16.3 187.1 16.4 187.5 16.5 C 187.5 16.5 187.5 16.4 187.5 16.4 C 187.5 15.5 187 15.1 186.1 15.1 C 185.5 15.1 185.1 15.2 184.7 15.4 C 184.7 15.4 184.5 14.9 184.5 14.9 C 185 14.6 185.5 14.5 186.2 14.5 C 186.8 14.5 187.3 14.7 187.7 15 C 188 15.3 188.1 15.8 188.1 16.4 C 188.13 16.36 188.1 19.2 188.1 19.2 L 187.5 19.2 C 187.5 19.2 187.47 18.5 187.5 18.5 C 187.1 18.9 186.6 19.3 185.8 19.3 C 184.9 19.3 184 18.8 184 17.8 Z M 187.5 17.5 C 187.5 17.5 187.5 17 187.5 17 C 187.1 16.9 186.7 16.8 186.1 16.8 C 185.2 16.8 184.7 17.2 184.7 17.8 C 184.7 17.8 184.7 17.8 184.7 17.8 C 184.7 18.4 185.3 18.8 185.9 18.8 C 186.8 18.8 187.5 18.2 187.5 17.5 Z M 189.5 16.9 C 189.5 16.9 189.5 16.9 189.5 16.9 C 189.5 15.3 190.6 14.4 191.7 14.4 C 192.6 14.4 193.2 14.9 193.5 15.4 C 193.52 15.44 193.5 12.6 193.5 12.6 L 194.2 12.6 L 194.2 19.2 L 193.5 19.2 C 193.5 19.2 193.52 18.26 193.5 18.3 C 193.1 18.8 192.6 19.3 191.7 19.3 C 190.6 19.3 189.5 18.4 189.5 16.9 Z M 193.6 16.9 C 193.6 16.9 193.6 16.9 193.6 16.9 C 193.6 15.8 192.7 15.1 191.9 15.1 C 191 15.1 190.2 15.7 190.2 16.9 C 190.2 16.9 190.2 16.9 190.2 16.9 C 190.2 18 191 18.7 191.9 18.7 C 192.7 18.7 193.6 17.9 193.6 16.9 Z M 195.9 14.5 L 196.6 14.5 C 196.6 14.5 196.64 15.33 196.6 15.3 C 196.9 14.9 197.4 14.4 198.1 14.4 C 198.9 14.4 199.4 14.9 199.6 15.4 C 200 14.9 200.5 14.4 201.3 14.4 C 202.3 14.4 203 15.2 203 16.3 C 203 16.32 203 19.2 203 19.2 L 202.3 19.2 C 202.3 19.2 202.31 16.48 202.3 16.5 C 202.3 15.6 201.9 15.1 201.1 15.1 C 200.4 15.1 199.8 15.6 199.8 16.5 C 199.82 16.52 199.8 19.2 199.8 19.2 L 199.1 19.2 C 199.1 19.2 199.13 16.46 199.1 16.5 C 199.1 15.6 198.7 15.1 197.9 15.1 C 197.2 15.1 196.6 15.7 196.6 16.5 C 196.64 16.54 196.6 19.2 196.6 19.2 L 195.9 19.2 L 195.9 14.5 Z M 204.7 12.8 L 205.5 12.8 L 205.5 13.5 L 204.7 13.5 L 204.7 12.8 Z M 204.7 14.5 L 205.4 14.5 L 205.4 19.2 L 204.7 19.2 L 204.7 14.5 Z M 207.2 14.5 L 207.9 14.5 C 207.9 14.5 207.92 15.36 207.9 15.4 C 208.2 14.9 208.7 14.4 209.5 14.4 C 210.6 14.4 211.3 15.2 211.3 16.3 C 211.3 16.31 211.3 19.2 211.3 19.2 L 210.6 19.2 C 210.6 19.2 210.61 16.48 210.6 16.5 C 210.6 15.6 210.1 15.1 209.3 15.1 C 208.5 15.1 207.9 15.7 207.9 16.5 C 207.92 16.54 207.9 19.2 207.9 19.2 L 207.2 19.2 L 207.2 14.5 Z M 213 12.8 L 213.8 12.8 L 213.8 13.5 L 213 13.5 L 213 12.8 Z M 213 14.5 L 213.7 14.5 L 213.7 19.2 L 213 19.2 L 213 14.5 Z M 215.1 18.6 C 215.1 18.6 215.5 18.1 215.5 18.1 C 216 18.5 216.5 18.7 217.1 18.7 C 217.6 18.7 218 18.4 218 18 C 218 18 218 17.9 218 17.9 C 218 17.5 217.5 17.3 216.9 17.1 C 216.1 16.9 215.3 16.7 215.3 15.8 C 215.3 15.8 215.3 15.8 215.3 15.8 C 215.3 15 216 14.5 216.9 14.5 C 217.5 14.5 218.1 14.7 218.6 15 C 218.6 15 218.3 15.5 218.3 15.5 C 217.8 15.2 217.4 15.1 216.9 15.1 C 216.4 15.1 216 15.3 216 15.7 C 216 15.7 216 15.7 216 15.7 C 216 16.2 216.6 16.4 217.2 16.5 C 217.9 16.8 218.7 17 218.7 17.9 C 218.7 17.9 218.7 17.9 218.7 17.9 C 218.7 18.8 218 19.3 217 19.3 C 216.4 19.3 215.6 19 215.1 18.6 Z M 220.3 18 C 220.32 17.97 220.3 15.2 220.3 15.2 L 219.7 15.2 L 219.7 14.5 L 220.3 14.5 L 220.3 13.1 L 221 13.1 L 221 14.5 L 222.5 14.5 L 222.5 15.2 L 221 15.2 C 221 15.2 221.01 17.88 221 17.9 C 221 18.4 221.3 18.7 221.8 18.7 C 222 18.7 222.2 18.6 222.5 18.5 C 222.5 18.5 222.5 19.1 222.5 19.1 C 222.2 19.2 222 19.3 221.6 19.3 C 220.9 19.3 220.3 18.9 220.3 18 Z M 223.9 14.5 L 224.6 14.5 C 224.6 14.5 224.58 15.76 224.6 15.8 C 224.9 15 225.6 14.4 226.5 14.5 C 226.48 14.47 226.5 15.2 226.5 15.2 C 226.5 15.2 226.43 15.21 226.4 15.2 C 225.4 15.2 224.6 15.9 224.6 17.3 C 224.58 17.35 224.6 19.2 224.6 19.2 L 223.9 19.2 L 223.9 14.5 Z M 227.1 17.8 C 227.1 17.8 227.1 17.8 227.1 17.8 C 227.1 16.9 227.9 16.3 229.1 16.3 C 229.7 16.3 230.1 16.4 230.6 16.5 C 230.6 16.5 230.6 16.4 230.6 16.4 C 230.6 15.5 230 15.1 229.2 15.1 C 228.6 15.1 228.2 15.2 227.8 15.4 C 227.8 15.4 227.6 14.9 227.6 14.9 C 228.1 14.6 228.6 14.5 229.2 14.5 C 229.9 14.5 230.4 14.7 230.7 15 C 231.1 15.3 231.2 15.8 231.2 16.4 C 231.22 16.36 231.2 19.2 231.2 19.2 L 230.6 19.2 C 230.6 19.2 230.56 18.5 230.6 18.5 C 230.2 18.9 229.7 19.3 228.9 19.3 C 228 19.3 227.1 18.8 227.1 17.8 Z M 230.6 17.5 C 230.6 17.5 230.6 17 230.6 17 C 230.2 16.9 229.8 16.8 229.2 16.8 C 228.3 16.8 227.8 17.2 227.8 17.8 C 227.8 17.8 227.8 17.8 227.8 17.8 C 227.8 18.4 228.4 18.8 229 18.8 C 229.9 18.8 230.6 18.2 230.6 17.5 Z M 232.5 18.6 C 232.5 18.6 232.8 18.1 232.8 18.1 C 233.3 18.5 233.9 18.7 234.5 18.7 C 235 18.7 235.4 18.4 235.4 18 C 235.4 18 235.4 17.9 235.4 17.9 C 235.4 17.5 234.9 17.3 234.3 17.1 C 233.5 16.9 232.7 16.7 232.7 15.8 C 232.7 15.8 232.7 15.8 232.7 15.8 C 232.7 15 233.4 14.5 234.3 14.5 C 234.9 14.5 235.5 14.7 236 15 C 236 15 235.7 15.5 235.7 15.5 C 235.2 15.2 234.7 15.1 234.3 15.1 C 233.7 15.1 233.4 15.3 233.4 15.7 C 233.4 15.7 233.4 15.7 233.4 15.7 C 233.4 16.2 234 16.4 234.6 16.5 C 235.3 16.8 236.1 17 236.1 17.9 C 236.1 17.9 236.1 17.9 236.1 17.9 C 236.1 18.8 235.3 19.3 234.4 19.3 C 233.8 19.3 233 19 232.5 18.6 Z M 240.9 14.5 L 241.6 14.5 C 241.6 14.5 239.67 19.35 239.7 19.4 C 239.3 20.3 238.8 20.7 238.1 20.7 C 237.7 20.7 237.5 20.6 237.1 20.4 C 237.1 20.4 237.4 19.9 237.4 19.9 C 237.6 20 237.8 20.1 238.1 20.1 C 238.5 20.1 238.8 19.8 239.1 19.2 C 239.05 19.18 236.9 14.5 236.9 14.5 L 237.7 14.5 L 239.4 18.4 L 240.9 14.5 Z M 242.3 16.9 C 242.3 16.9 242.3 16.9 242.3 16.9 C 242.3 15.6 243.4 14.4 244.8 14.4 C 246.2 14.4 247.2 15.5 247.2 16.9 C 247.2 16.9 247.2 16.9 247.2 16.9 C 247.2 18.2 246.2 19.3 244.8 19.3 C 243.4 19.3 242.3 18.2 242.3 16.9 Z M 246.5 16.9 C 246.5 16.9 246.5 16.9 246.5 16.9 C 246.5 15.9 245.7 15.1 244.8 15.1 C 243.8 15.1 243.1 15.9 243.1 16.9 C 243.1 16.9 243.1 16.9 243.1 16.9 C 243.1 17.9 243.8 18.7 244.8 18.7 C 245.8 18.7 246.5 17.9 246.5 16.9 Z M 248.6 14.5 L 249.3 14.5 C 249.3 14.5 249.32 15.36 249.3 15.4 C 249.6 14.9 250.1 14.4 250.9 14.4 C 252 14.4 252.7 15.2 252.7 16.3 C 252.7 16.31 252.7 19.2 252.7 19.2 L 252 19.2 C 252 19.2 252 16.48 252 16.5 C 252 15.6 251.5 15.1 250.7 15.1 C 249.9 15.1 249.3 15.7 249.3 16.5 C 249.32 16.54 249.3 19.2 249.3 19.2 L 248.6 19.2 L 248.6 14.5 Z M 258.1 14.5 L 258.8 14.5 C 258.8 14.5 258.82 15.48 258.8 15.5 C 259.2 14.9 259.8 14.4 260.6 14.4 C 261.7 14.4 262.8 15.3 262.8 16.9 C 262.8 16.9 262.8 16.9 262.8 16.9 C 262.8 18.4 261.7 19.3 260.6 19.3 C 259.7 19.3 259.2 18.8 258.8 18.3 C 258.82 18.31 258.8 20.6 258.8 20.6 L 258.1 20.6 L 258.1 14.5 Z M 262.1 16.9 C 262.1 16.9 262.1 16.9 262.1 16.9 C 262.1 15.8 261.4 15.1 260.5 15.1 C 259.6 15.1 258.8 15.8 258.8 16.9 C 258.8 16.9 258.8 16.9 258.8 16.9 C 258.8 18 259.6 18.7 260.5 18.7 C 261.4 18.7 262.1 18 262.1 16.9 Z M 263.9 17.8 C 263.9 17.8 263.9 17.8 263.9 17.8 C 263.9 16.9 264.7 16.3 265.9 16.3 C 266.5 16.3 266.9 16.4 267.4 16.5 C 267.4 16.5 267.4 16.4 267.4 16.4 C 267.4 15.5 266.8 15.1 266 15.1 C 265.4 15.1 265 15.2 264.6 15.4 C 264.6 15.4 264.3 14.9 264.3 14.9 C 264.9 14.6 265.4 14.5 266 14.5 C 266.7 14.5 267.2 14.7 267.5 15 C 267.9 15.3 268 15.8 268 16.4 C 268.02 16.36 268 19.2 268 19.2 L 267.4 19.2 C 267.4 19.2 267.36 18.5 267.4 18.5 C 267 18.9 266.5 19.3 265.7 19.3 C 264.8 19.3 263.9 18.8 263.9 17.8 Z M 267.4 17.5 C 267.4 17.5 267.4 17 267.4 17 C 267 16.9 266.6 16.8 266 16.8 C 265.1 16.8 264.6 17.2 264.6 17.8 C 264.6 17.8 264.6 17.8 264.6 17.8 C 264.6 18.4 265.2 18.8 265.8 18.8 C 266.7 18.8 267.4 18.2 267.4 17.5 Z M 269.7 14.5 L 270.4 14.5 C 270.4 14.5 270.37 15.76 270.4 15.8 C 270.7 15 271.4 14.4 272.3 14.5 C 272.27 14.47 272.3 15.2 272.3 15.2 C 272.3 15.2 272.22 15.21 272.2 15.2 C 271.2 15.2 270.4 15.9 270.4 17.3 C 270.37 17.35 270.4 19.2 270.4 19.2 L 269.7 19.2 L 269.7 14.5 Z M 273.7 18 C 273.75 17.97 273.7 15.2 273.7 15.2 L 273.1 15.2 L 273.1 14.5 L 273.7 14.5 L 273.7 13.1 L 274.4 13.1 L 274.4 14.5 L 275.9 14.5 L 275.9 15.2 L 274.4 15.2 C 274.4 15.2 274.44 17.88 274.4 17.9 C 274.4 18.4 274.8 18.7 275.2 18.7 C 275.5 18.7 275.7 18.6 275.9 18.5 C 275.9 18.5 275.9 19.1 275.9 19.1 C 275.7 19.2 275.4 19.3 275.1 19.3 C 274.3 19.3 273.7 18.9 273.7 18 Z M 277.3 12.8 L 278.1 12.8 L 278.1 13.5 L 277.3 13.5 L 277.3 12.8 Z M 277.4 14.5 L 278.1 14.5 L 278.1 19.2 L 277.4 19.2 L 277.4 14.5 Z M 279.9 12.6 L 280.6 12.6 L 280.6 17.2 L 283.1 14.5 L 283.9 14.5 L 282 16.5 L 284 19.2 L 283.2 19.2 L 281.5 17 L 280.6 18 L 280.6 19.2 L 279.9 19.2 L 279.9 12.6 Z M 285 17.4 C 285.01 17.44 285 14.5 285 14.5 L 285.7 14.5 C 285.7 14.5 285.7 17.27 285.7 17.3 C 285.7 18.1 286.2 18.7 287 18.7 C 287.8 18.7 288.4 18.1 288.4 17.2 C 288.38 17.21 288.4 14.5 288.4 14.5 L 289.1 14.5 L 289.1 19.2 L 288.4 19.2 C 288.4 19.2 288.38 18.39 288.4 18.4 C 288.1 18.9 287.6 19.3 286.8 19.3 C 285.7 19.3 285 18.5 285 17.4 Z M 290.9 12.6 L 291.6 12.6 L 291.6 19.2 L 290.9 19.2 L 290.9 12.6 Z M 293 17.8 C 293 17.8 293 17.8 293 17.8 C 293 16.9 293.8 16.3 295 16.3 C 295.6 16.3 296 16.4 296.4 16.5 C 296.4 16.5 296.4 16.4 296.4 16.4 C 296.4 15.5 295.9 15.1 295 15.1 C 294.5 15.1 294 15.2 293.6 15.4 C 293.6 15.4 293.4 14.9 293.4 14.9 C 293.9 14.6 294.4 14.5 295.1 14.5 C 295.8 14.5 296.3 14.7 296.6 15 C 296.9 15.3 297.1 15.8 297.1 16.4 C 297.08 16.36 297.1 19.2 297.1 19.2 L 296.4 19.2 C 296.4 19.2 296.42 18.5 296.4 18.5 C 296.1 18.9 295.6 19.3 294.7 19.3 C 293.9 19.3 293 18.8 293 17.8 Z M 296.4 17.5 C 296.4 17.5 296.4 17 296.4 17 C 296.1 16.9 295.6 16.8 295.1 16.8 C 294.2 16.8 293.7 17.2 293.7 17.8 C 293.7 17.8 293.7 17.8 293.7 17.8 C 293.7 18.4 294.2 18.8 294.9 18.8 C 295.7 18.8 296.4 18.2 296.4 17.5 Z M 298.7 14.5 L 299.4 14.5 C 299.4 14.5 299.43 15.76 299.4 15.8 C 299.8 15 300.4 14.4 301.3 14.5 C 301.33 14.47 301.3 15.2 301.3 15.2 C 301.3 15.2 301.28 15.21 301.3 15.2 C 300.3 15.2 299.4 15.9 299.4 17.3 C 299.43 17.35 299.4 19.2 299.4 19.2 L 298.7 19.2 L 298.7 14.5 Z " stroke="none" fill="#fff"/>
  </g>
  <g id="Polygon19638">
    <path d="M 0.9 0.9 L 1.6 0.9 L 5.5 5.9 L 5.5 0.9 L 6.2 0.9 L 6.2 7.2 L 5.7 7.2 L 1.6 2 L 1.6 7.2 L 0.9 7.2 L 0.9 0.9 Z M 10.5 0.9 L 11.2 0.9 L 14 7.2 L 13.3 7.2 L 12.5 5.5 L 9.1 5.5 L 8.4 7.2 L 7.6 7.2 L 10.5 0.9 Z M 12.3 4.9 L 10.8 1.7 L 9.4 4.9 L 12.3 4.9 Z M 17.8 0.9 L 18.4 0.9 L 21.3 7.2 L 20.5 7.2 L 19.8 5.5 L 16.4 5.5 L 15.6 7.2 L 14.9 7.2 L 17.8 0.9 Z M 19.5 4.9 L 18.1 1.7 L 16.6 4.9 L 19.5 4.9 Z M 22.7 0.9 C 22.7 0.9 25.07 0.9 25.1 0.9 C 26.5 0.9 27.4 1.7 27.4 2.9 C 27.4 2.9 27.4 2.9 27.4 2.9 C 27.4 4.3 26.3 5 25 5 C 24.96 4.98 23.4 5 23.4 5 L 23.4 7.2 L 22.7 7.2 L 22.7 0.9 Z M 25 4.3 C 26 4.3 26.7 3.8 26.7 2.9 C 26.7 2.9 26.7 2.9 26.7 2.9 C 26.7 2 26 1.6 25 1.6 C 25.02 1.56 23.4 1.6 23.4 1.6 L 23.4 4.3 C 23.4 4.3 24.98 4.33 25 4.3 Z M 28.9 0.9 L 33.5 0.9 L 33.5 1.5 L 29.6 1.5 L 29.6 3.7 L 33.1 3.7 L 33.1 4.3 L 29.6 4.3 L 29.6 6.6 L 33.5 6.6 L 33.5 7.2 L 28.9 7.2 L 28.9 0.9 Z M 35.1 0.9 L 35.8 0.9 L 35.8 4.7 L 39.4 0.9 L 40.4 0.9 L 37.7 3.7 L 40.5 7.2 L 39.6 7.2 L 37.2 4.1 L 35.8 5.5 L 35.8 7.2 L 35.1 7.2 L 35.1 0.9 Z M 43.3 1.6 L 41.2 1.6 L 41.2 0.9 L 46.2 0.9 L 46.2 1.6 L 44.1 1.6 L 44.1 7.2 L 43.3 7.2 L 43.3 1.6 Z M 47.6 4.6 C 47.59 4.56 47.6 0.9 47.6 0.9 L 48.3 0.9 C 48.3 0.9 48.3 4.52 48.3 4.5 C 48.3 5.9 49 6.6 50.2 6.6 C 51.4 6.6 52.1 5.9 52.1 4.6 C 52.13 4.56 52.1 0.9 52.1 0.9 L 52.8 0.9 C 52.8 0.9 52.84 4.51 52.8 4.5 C 52.8 6.3 51.8 7.3 50.2 7.3 C 48.7 7.3 47.6 6.3 47.6 4.6 Z M 54.7 0.9 L 55.4 0.9 L 55.4 3.7 L 59 3.7 L 59 0.9 L 59.8 0.9 L 59.8 7.2 L 59 7.2 L 59 4.4 L 55.4 4.4 L 55.4 7.2 L 54.7 7.2 L 54.7 0.9 Z M 64.1 0.9 L 64.7 0.9 L 67.6 7.2 L 66.8 7.2 L 66.1 5.5 L 62.7 5.5 L 61.9 7.2 L 61.2 7.2 L 64.1 0.9 Z M 65.8 4.9 L 64.4 1.7 L 62.9 4.9 L 65.8 4.9 Z M 69 0.9 L 69.7 0.9 L 73.6 5.9 L 73.6 0.9 L 74.3 0.9 L 74.3 7.2 L 73.8 7.2 L 69.7 2 L 69.7 7.2 L 69 7.2 L 69 0.9 Z M 78 2.5 L 78.7 2.5 C 78.7 2.5 78.68 3.36 78.7 3.4 C 79 2.9 79.5 2.4 80.3 2.4 C 81.4 2.4 82.1 3.2 82.1 4.3 C 82.06 4.31 82.1 7.2 82.1 7.2 L 81.4 7.2 C 81.4 7.2 81.37 4.48 81.4 4.5 C 81.4 3.6 80.9 3.1 80.1 3.1 C 79.3 3.1 78.7 3.7 78.7 4.5 C 78.68 4.54 78.7 7.2 78.7 7.2 L 78 7.2 L 78 2.5 Z M 83.4 5.8 C 83.4 5.8 83.4 5.8 83.4 5.8 C 83.4 4.9 84.2 4.3 85.4 4.3 C 85.9 4.3 86.4 4.4 86.8 4.5 C 86.8 4.5 86.8 4.4 86.8 4.4 C 86.8 3.5 86.3 3.1 85.4 3.1 C 84.8 3.1 84.4 3.2 84 3.4 C 84 3.4 83.8 2.9 83.8 2.9 C 84.3 2.6 84.8 2.5 85.5 2.5 C 86.1 2.5 86.6 2.7 87 3 C 87.3 3.3 87.4 3.8 87.4 4.4 C 87.45 4.36 87.4 7.2 87.4 7.2 L 86.8 7.2 C 86.8 7.2 86.78 6.5 86.8 6.5 C 86.5 6.9 85.9 7.3 85.1 7.3 C 84.2 7.3 83.4 6.8 83.4 5.8 Z M 86.8 5.5 C 86.8 5.5 86.8 5 86.8 5 C 86.4 4.9 86 4.8 85.4 4.8 C 84.6 4.8 84.1 5.2 84.1 5.8 C 84.1 5.8 84.1 5.8 84.1 5.8 C 84.1 6.4 84.6 6.8 85.2 6.8 C 86.1 6.8 86.8 6.2 86.8 5.5 Z M 89.1 2.5 L 89.8 2.5 C 89.8 2.5 89.8 3.36 89.8 3.4 C 90.1 2.9 90.6 2.4 91.4 2.4 C 92.5 2.4 93.2 3.2 93.2 4.3 C 93.17 4.31 93.2 7.2 93.2 7.2 L 92.5 7.2 C 92.5 7.2 92.48 4.48 92.5 4.5 C 92.5 3.6 92 3.1 91.2 3.1 C 90.4 3.1 89.8 3.7 89.8 4.5 C 89.8 4.54 89.8 7.2 89.8 7.2 L 89.1 7.2 L 89.1 2.5 Z M 94.8 8 C 94.8 8 95.1 7.5 95.1 7.5 C 95.6 7.9 96.2 8.1 96.9 8.1 C 97.9 8.1 98.6 7.5 98.6 6.4 C 98.6 6.4 98.6 5.9 98.6 5.9 C 98.2 6.4 97.6 6.8 96.7 6.8 C 95.6 6.8 94.6 6 94.6 4.7 C 94.6 4.7 94.6 4.6 94.6 4.6 C 94.6 3.3 95.6 2.4 96.7 2.4 C 97.6 2.4 98.2 2.9 98.6 3.4 C 98.56 3.38 98.6 2.5 98.6 2.5 L 99.3 2.5 C 99.3 2.5 99.26 6.39 99.3 6.4 C 99.3 7.1 99 7.7 98.7 8 C 98.2 8.5 97.6 8.7 96.9 8.7 C 96.1 8.7 95.4 8.4 94.8 8 Z M 98.6 4.7 C 98.6 4.7 98.6 4.6 98.6 4.6 C 98.6 3.7 97.8 3.1 96.9 3.1 C 96 3.1 95.3 3.7 95.3 4.6 C 95.3 4.6 95.3 4.6 95.3 4.6 C 95.3 5.6 96 6.2 96.9 6.2 C 97.8 6.2 98.6 5.6 98.6 4.7 Z M 102.9 0.6 L 103.5 0.6 L 103.5 7.2 L 102.9 7.2 L 102.9 0.6 Z M 105.3 5.4 C 105.26 5.44 105.3 2.5 105.3 2.5 L 106 2.5 C 106 2.5 105.96 5.27 106 5.3 C 106 6.1 106.4 6.7 107.2 6.7 C 108 6.7 108.6 6.1 108.6 5.2 C 108.64 5.21 108.6 2.5 108.6 2.5 L 109.3 2.5 L 109.3 7.2 L 108.6 7.2 C 108.6 7.2 108.64 6.39 108.6 6.4 C 108.3 6.9 107.8 7.3 107 7.3 C 105.9 7.3 105.3 6.5 105.3 5.4 Z M 111.8 6.3 C 111.75 6.31 111.8 7.2 111.8 7.2 L 111.1 7.2 L 111.1 0.6 L 111.8 0.6 C 111.8 0.6 111.75 3.48 111.8 3.5 C 112.1 2.9 112.7 2.4 113.5 2.4 C 114.7 2.4 115.8 3.3 115.8 4.9 C 115.8 4.9 115.8 4.9 115.8 4.9 C 115.8 6.4 114.7 7.3 113.5 7.3 C 112.7 7.3 112.1 6.8 111.8 6.3 Z M 115 4.9 C 115 4.9 115 4.9 115 4.9 C 115 3.8 114.3 3.1 113.4 3.1 C 112.5 3.1 111.7 3.8 111.7 4.9 C 111.7 4.9 111.7 4.9 111.7 4.9 C 111.7 6 112.5 6.7 113.4 6.7 C 114.3 6.7 115 6 115 4.9 Z M 117.1 5.4 C 117.14 5.44 117.1 2.5 117.1 2.5 L 117.8 2.5 C 117.8 2.5 117.84 5.27 117.8 5.3 C 117.8 6.1 118.3 6.7 119.1 6.7 C 119.9 6.7 120.5 6.1 120.5 5.2 C 120.52 5.21 120.5 2.5 120.5 2.5 L 121.2 2.5 L 121.2 7.2 L 120.5 7.2 C 120.5 7.2 120.52 6.39 120.5 6.4 C 120.2 6.9 119.7 7.3 118.9 7.3 C 117.8 7.3 117.1 6.5 117.1 5.4 Z M 122.6 6.6 C 122.6 6.6 122.9 6.1 122.9 6.1 C 123.4 6.5 124 6.7 124.5 6.7 C 125.1 6.7 125.5 6.4 125.5 6 C 125.5 6 125.5 5.9 125.5 5.9 C 125.5 5.5 124.9 5.3 124.3 5.1 C 123.6 4.9 122.8 4.7 122.8 3.8 C 122.8 3.8 122.8 3.8 122.8 3.8 C 122.8 3 123.4 2.5 124.4 2.5 C 124.9 2.5 125.6 2.7 126 3 C 126 3 125.7 3.5 125.7 3.5 C 125.3 3.2 124.8 3.1 124.3 3.1 C 123.8 3.1 123.4 3.3 123.4 3.7 C 123.4 3.7 123.4 3.7 123.4 3.7 C 123.4 4.2 124 4.4 124.6 4.5 C 125.4 4.8 126.1 5 126.1 5.9 C 126.1 5.9 126.1 5.9 126.1 5.9 C 126.1 6.8 125.4 7.3 124.5 7.3 C 123.8 7.3 123.1 7 122.6 6.6 Z M 127.3 5.8 C 127.3 5.8 127.3 5.8 127.3 5.8 C 127.3 4.9 128.1 4.3 129.2 4.3 C 129.8 4.3 130.3 4.4 130.7 4.5 C 130.7 4.5 130.7 4.4 130.7 4.4 C 130.7 3.5 130.2 3.1 129.3 3.1 C 128.7 3.1 128.3 3.2 127.9 3.4 C 127.9 3.4 127.7 2.9 127.7 2.9 C 128.2 2.6 128.7 2.5 129.4 2.5 C 130 2.5 130.5 2.7 130.9 3 C 131.2 3.3 131.3 3.8 131.3 4.4 C 131.34 4.36 131.3 7.2 131.3 7.2 L 130.7 7.2 C 130.7 7.2 130.67 6.5 130.7 6.5 C 130.3 6.9 129.8 7.3 129 7.3 C 128.1 7.3 127.3 6.8 127.3 5.8 Z M 130.7 5.5 C 130.7 5.5 130.7 5 130.7 5 C 130.3 4.9 129.9 4.8 129.3 4.8 C 128.4 4.8 128 5.2 128 5.8 C 128 5.8 128 5.8 128 5.8 C 128 6.4 128.5 6.8 129.1 6.8 C 130 6.8 130.7 6.2 130.7 5.5 Z M 133 2.5 L 133.7 2.5 C 133.7 2.5 133.69 3.36 133.7 3.4 C 134 2.9 134.5 2.4 135.3 2.4 C 136.4 2.4 137.1 3.2 137.1 4.3 C 137.06 4.31 137.1 7.2 137.1 7.2 L 136.4 7.2 C 136.4 7.2 136.37 4.48 136.4 4.5 C 136.4 3.6 135.9 3.1 135.1 3.1 C 134.3 3.1 133.7 3.7 133.7 4.5 C 133.69 4.54 133.7 7.2 133.7 7.2 L 133 7.2 L 133 2.5 Z M 140.2 5.8 C 140.2 5.8 140.2 5.8 140.2 5.8 C 140.2 4.9 141 4.3 142.2 4.3 C 142.8 4.3 143.2 4.4 143.6 4.5 C 143.6 4.5 143.6 4.4 143.6 4.4 C 143.6 3.5 143.1 3.1 142.2 3.1 C 141.7 3.1 141.2 3.2 140.8 3.4 C 140.8 3.4 140.6 2.9 140.6 2.9 C 141.1 2.6 141.6 2.5 142.3 2.5 C 142.9 2.5 143.4 2.7 143.8 3 C 144.1 3.3 144.3 3.8 144.3 4.4 C 144.26 4.36 144.3 7.2 144.3 7.2 L 143.6 7.2 C 143.6 7.2 143.59 6.5 143.6 6.5 C 143.3 6.9 142.7 7.3 141.9 7.3 C 141 7.3 140.2 6.8 140.2 5.8 Z M 143.6 5.5 C 143.6 5.5 143.6 5 143.6 5 C 143.3 4.9 142.8 4.8 142.2 4.8 C 141.4 4.8 140.9 5.2 140.9 5.8 C 140.9 5.8 140.9 5.8 140.9 5.8 C 140.9 6.4 141.4 6.8 142 6.8 C 142.9 6.8 143.6 6.2 143.6 5.5 Z M 145.9 2.5 L 146.6 2.5 C 146.6 2.5 146.61 3.36 146.6 3.4 C 146.9 2.9 147.4 2.4 148.2 2.4 C 149.3 2.4 150 3.2 150 4.3 C 149.98 4.31 150 7.2 150 7.2 L 149.3 7.2 C 149.3 7.2 149.29 4.48 149.3 4.5 C 149.3 3.6 148.8 3.1 148 3.1 C 147.2 3.1 146.6 3.7 146.6 4.5 C 146.61 4.54 146.6 7.2 146.6 7.2 L 145.9 7.2 L 145.9 2.5 Z M 151.6 8 C 151.6 8 151.9 7.5 151.9 7.5 C 152.4 7.9 153 8.1 153.7 8.1 C 154.7 8.1 155.4 7.5 155.4 6.4 C 155.4 6.4 155.4 5.9 155.4 5.9 C 155 6.4 154.4 6.8 153.6 6.8 C 152.4 6.8 151.4 6 151.4 4.7 C 151.4 4.7 151.4 4.6 151.4 4.6 C 151.4 3.3 152.4 2.4 153.6 2.4 C 154.4 2.4 155 2.9 155.4 3.4 C 155.37 3.38 155.4 2.5 155.4 2.5 L 156.1 2.5 C 156.1 2.5 156.06 6.39 156.1 6.4 C 156.1 7.1 155.8 7.7 155.5 8 C 155.1 8.5 154.4 8.7 153.7 8.7 C 152.9 8.7 152.2 8.4 151.6 8 Z M 155.4 4.7 C 155.4 4.7 155.4 4.6 155.4 4.6 C 155.4 3.7 154.6 3.1 153.7 3.1 C 152.8 3.1 152.1 3.7 152.1 4.6 C 152.1 4.6 152.1 4.6 152.1 4.6 C 152.1 5.6 152.8 6.2 153.7 6.2 C 154.6 6.2 155.4 5.6 155.4 4.7 Z M 159.3 4.9 C 159.3 4.9 159.3 4.9 159.3 4.9 C 159.3 3.5 160.3 2.4 161.5 2.4 C 162.9 2.4 163.7 3.5 163.7 4.9 C 163.7 5 163.7 5 163.7 5.1 C 163.7 5.1 160 5.1 160 5.1 C 160.1 6.1 160.8 6.7 161.6 6.7 C 162.3 6.7 162.7 6.4 163.1 6 C 163.1 6 163.5 6.4 163.5 6.4 C 163.1 7 162.5 7.3 161.6 7.3 C 160.4 7.3 159.3 6.3 159.3 4.9 Z M 163 4.6 C 162.9 3.8 162.5 3 161.5 3 C 160.7 3 160.1 3.7 160 4.6 C 160 4.6 163 4.6 163 4.6 Z M 165.1 0.6 L 165.8 0.6 L 165.8 5.2 L 168.3 2.5 L 169.2 2.5 L 167.2 4.5 L 169.2 7.2 L 168.4 7.2 L 166.7 5 L 165.8 6 L 165.8 7.2 L 165.1 7.2 L 165.1 0.6 Z M 169.9 4.9 C 169.9 4.9 169.9 4.9 169.9 4.9 C 169.9 3.6 170.9 2.4 172.3 2.4 C 173.7 2.4 174.7 3.5 174.7 4.9 C 174.7 4.9 174.7 4.9 174.7 4.9 C 174.7 6.2 173.7 7.3 172.3 7.3 C 170.9 7.3 169.9 6.2 169.9 4.9 Z M 174 4.9 C 174 4.9 174 4.9 174 4.9 C 174 3.9 173.3 3.1 172.3 3.1 C 171.3 3.1 170.6 3.9 170.6 4.9 C 170.6 4.9 170.6 4.9 170.6 4.9 C 170.6 5.9 171.3 6.7 172.3 6.7 C 173.3 6.7 174 5.9 174 4.9 Z M 176.2 2.5 L 176.9 2.5 C 176.9 2.5 176.87 3.36 176.9 3.4 C 177.2 2.9 177.7 2.4 178.5 2.4 C 179.6 2.4 180.2 3.2 180.2 4.3 C 180.24 4.31 180.2 7.2 180.2 7.2 L 179.6 7.2 C 179.6 7.2 179.55 4.48 179.6 4.5 C 179.6 3.6 179.1 3.1 178.3 3.1 C 177.5 3.1 176.9 3.7 176.9 4.5 C 176.87 4.54 176.9 7.2 176.9 7.2 L 176.2 7.2 L 176.2 2.5 Z M 181.6 4.9 C 181.6 4.9 181.6 4.9 181.6 4.9 C 181.6 3.6 182.6 2.4 184 2.4 C 185.4 2.4 186.5 3.5 186.5 4.9 C 186.5 4.9 186.5 4.9 186.5 4.9 C 186.5 6.2 185.4 7.3 184 7.3 C 182.6 7.3 181.6 6.2 181.6 4.9 Z M 185.8 4.9 C 185.8 4.9 185.8 4.9 185.8 4.9 C 185.8 3.9 185 3.1 184 3.1 C 183 3.1 182.3 3.9 182.3 4.9 C 182.3 4.9 182.3 4.9 182.3 4.9 C 182.3 5.9 183.1 6.7 184 6.7 C 185 6.7 185.8 5.9 185.8 4.9 Z M 187.9 2.5 L 188.6 2.5 C 188.6 2.5 188.59 3.33 188.6 3.3 C 188.9 2.9 189.3 2.4 190.1 2.4 C 190.8 2.4 191.3 2.9 191.6 3.4 C 191.9 2.9 192.4 2.4 193.2 2.4 C 194.3 2.4 194.9 3.2 194.9 4.3 C 194.95 4.32 194.9 7.2 194.9 7.2 L 194.3 7.2 C 194.3 7.2 194.26 4.48 194.3 4.5 C 194.3 3.6 193.8 3.1 193.1 3.1 C 192.3 3.1 191.8 3.6 191.8 4.5 C 191.77 4.52 191.8 7.2 191.8 7.2 L 191.1 7.2 C 191.1 7.2 191.08 4.46 191.1 4.5 C 191.1 3.6 190.6 3.1 189.9 3.1 C 189.1 3.1 188.6 3.7 188.6 4.5 C 188.59 4.54 188.6 7.2 188.6 7.2 L 187.9 7.2 L 187.9 2.5 Z M 196.7 0.8 L 197.4 0.8 L 197.4 1.5 L 196.7 1.5 L 196.7 0.8 Z M 196.7 2.5 L 197.4 2.5 L 197.4 7.2 L 196.7 7.2 L 196.7 2.5 Z M 202.7 2.5 L 203.4 2.5 C 203.4 2.5 201.45 7.35 201.4 7.4 C 201.1 8.3 200.6 8.7 199.9 8.7 C 199.5 8.7 199.2 8.6 198.9 8.4 C 198.9 8.4 199.1 7.9 199.1 7.9 C 199.4 8 199.6 8.1 199.9 8.1 C 200.3 8.1 200.5 7.8 200.8 7.2 C 200.83 7.18 198.7 2.5 198.7 2.5 L 199.5 2.5 L 201.2 6.4 L 202.7 2.5 Z M 204.1 5.8 C 204.1 5.8 204.1 5.8 204.1 5.8 C 204.1 4.9 204.9 4.3 206.1 4.3 C 206.7 4.3 207.1 4.4 207.5 4.5 C 207.5 4.5 207.5 4.4 207.5 4.4 C 207.5 3.5 207 3.1 206.1 3.1 C 205.6 3.1 205.2 3.2 204.7 3.4 C 204.7 3.4 204.5 2.9 204.5 2.9 C 205 2.6 205.5 2.5 206.2 2.5 C 206.9 2.5 207.4 2.7 207.7 3 C 208 3.3 208.2 3.8 208.2 4.4 C 208.19 4.36 208.2 7.2 208.2 7.2 L 207.5 7.2 C 207.5 7.2 207.52 6.5 207.5 6.5 C 207.2 6.9 206.7 7.3 205.8 7.3 C 205 7.3 204.1 6.8 204.1 5.8 Z M 207.5 5.5 C 207.5 5.5 207.5 5 207.5 5 C 207.2 4.9 206.7 4.8 206.2 4.8 C 205.3 4.8 204.8 5.2 204.8 5.8 C 204.8 5.8 204.8 5.8 204.8 5.8 C 204.8 6.4 205.3 6.8 206 6.8 C 206.8 6.8 207.5 6.2 207.5 5.5 Z M 211.6 2.5 L 212.3 2.5 C 212.3 2.5 212.34 3.36 212.3 3.4 C 212.6 2.9 213.1 2.4 213.9 2.4 C 215.1 2.4 215.7 3.2 215.7 4.3 C 215.72 4.31 215.7 7.2 215.7 7.2 L 215 7.2 C 215 7.2 215.02 4.48 215 4.5 C 215 3.6 214.6 3.1 213.7 3.1 C 212.9 3.1 212.3 3.7 212.3 4.5 C 212.34 4.54 212.3 7.2 212.3 7.2 L 211.6 7.2 L 211.6 2.5 Z M 217.3 8 C 217.3 8 217.6 7.5 217.6 7.5 C 218.2 7.9 218.8 8.1 219.4 8.1 C 220.5 8.1 221.1 7.5 221.1 6.4 C 221.1 6.4 221.1 5.9 221.1 5.9 C 220.7 6.4 220.1 6.8 219.3 6.8 C 218.2 6.8 217.1 6 217.1 4.7 C 217.1 4.7 217.1 4.6 217.1 4.6 C 217.1 3.3 218.2 2.4 219.3 2.4 C 220.2 2.4 220.7 2.9 221.1 3.4 C 221.11 3.38 221.1 2.5 221.1 2.5 L 221.8 2.5 C 221.8 2.5 221.8 6.39 221.8 6.4 C 221.8 7.1 221.6 7.7 221.2 8 C 220.8 8.5 220.2 8.7 219.4 8.7 C 218.7 8.7 217.9 8.4 217.3 8 Z M 221.1 4.7 C 221.1 4.7 221.1 4.6 221.1 4.6 C 221.1 3.7 220.3 3.1 219.4 3.1 C 218.5 3.1 217.8 3.7 217.8 4.6 C 217.8 4.6 217.8 4.6 217.8 4.6 C 217.8 5.6 218.6 6.2 219.4 6.2 C 220.3 6.2 221.1 5.6 221.1 4.7 Z M 226 6.3 C 226.03 6.31 226 7.2 226 7.2 L 225.3 7.2 L 225.3 0.6 L 226 0.6 C 226 0.6 226.03 3.48 226 3.5 C 226.4 2.9 227 2.4 227.8 2.4 C 228.9 2.4 230 3.3 230 4.9 C 230 4.9 230 4.9 230 4.9 C 230 6.4 228.9 7.3 227.8 7.3 C 226.9 7.3 226.4 6.8 226 6.3 Z M 229.3 4.9 C 229.3 4.9 229.3 4.9 229.3 4.9 C 229.3 3.8 228.6 3.1 227.7 3.1 C 226.8 3.1 226 3.8 226 4.9 C 226 4.9 226 4.9 226 4.9 C 226 6 226.8 6.7 227.7 6.7 C 228.6 6.7 229.3 6 229.3 4.9 Z M 231.1 5.8 C 231.1 5.8 231.1 5.8 231.1 5.8 C 231.1 4.9 231.9 4.3 233.1 4.3 C 233.7 4.3 234.1 4.4 234.6 4.5 C 234.6 4.5 234.6 4.4 234.6 4.4 C 234.6 3.5 234 3.1 233.2 3.1 C 232.6 3.1 232.2 3.2 231.8 3.4 C 231.8 3.4 231.6 2.9 231.6 2.9 C 232.1 2.6 232.6 2.5 233.2 2.5 C 233.9 2.5 234.4 2.7 234.7 3 C 235.1 3.3 235.2 3.8 235.2 4.4 C 235.22 4.36 235.2 7.2 235.2 7.2 L 234.6 7.2 C 234.6 7.2 234.56 6.5 234.6 6.5 C 234.2 6.9 233.7 7.3 232.9 7.3 C 232 7.3 231.1 6.8 231.1 5.8 Z M 234.6 5.5 C 234.6 5.5 234.6 5 234.6 5 C 234.2 4.9 233.8 4.8 233.2 4.8 C 232.3 4.8 231.8 5.2 231.8 5.8 C 231.8 5.8 231.8 5.8 231.8 5.8 C 231.8 6.4 232.4 6.8 233 6.8 C 233.9 6.8 234.6 6.2 234.6 5.5 Z M 236.9 2.5 L 237.6 2.5 C 237.6 2.5 237.57 3.36 237.6 3.4 C 237.9 2.9 238.4 2.4 239.2 2.4 C 240.3 2.4 240.9 3.2 240.9 4.3 C 240.95 4.31 240.9 7.2 240.9 7.2 L 240.3 7.2 C 240.3 7.2 240.26 4.48 240.3 4.5 C 240.3 3.6 239.8 3.1 239 3.1 C 238.2 3.1 237.6 3.7 237.6 4.5 C 237.57 4.54 237.6 7.2 237.6 7.2 L 236.9 7.2 L 236.9 2.5 Z M 242.2 6.6 C 242.2 6.6 242.6 6.1 242.6 6.1 C 243.1 6.5 243.6 6.7 244.2 6.7 C 244.7 6.7 245.1 6.4 245.1 6 C 245.1 6 245.1 5.9 245.1 5.9 C 245.1 5.5 244.6 5.3 244 5.1 C 243.3 4.9 242.4 4.7 242.4 3.8 C 242.4 3.8 242.4 3.8 242.4 3.8 C 242.4 3 243.1 2.5 244 2.5 C 244.6 2.5 245.2 2.7 245.7 3 C 245.7 3 245.4 3.5 245.4 3.5 C 245 3.2 244.5 3.1 244 3.1 C 243.5 3.1 243.1 3.3 243.1 3.7 C 243.1 3.7 243.1 3.7 243.1 3.7 C 243.1 4.2 243.7 4.4 244.3 4.5 C 245 4.8 245.8 5 245.8 5.9 C 245.8 5.9 245.8 5.9 245.8 5.9 C 245.8 6.8 245.1 7.3 244.1 7.3 C 243.5 7.3 242.7 7 242.2 6.6 Z M 246.9 5.8 C 246.9 5.8 246.9 5.8 246.9 5.8 C 246.9 4.9 247.7 4.3 248.9 4.3 C 249.5 4.3 249.9 4.4 250.3 4.5 C 250.3 4.5 250.3 4.4 250.3 4.4 C 250.3 3.5 249.8 3.1 248.9 3.1 C 248.4 3.1 248 3.2 247.5 3.4 C 247.5 3.4 247.3 2.9 247.3 2.9 C 247.8 2.6 248.3 2.5 249 2.5 C 249.7 2.5 250.2 2.7 250.5 3 C 250.8 3.3 251 3.8 251 4.4 C 251 4.36 251 7.2 251 7.2 L 250.3 7.2 C 250.3 7.2 250.34 6.5 250.3 6.5 C 250 6.9 249.5 7.3 248.7 7.3 C 247.8 7.3 246.9 6.8 246.9 5.8 Z M 250.3 5.5 C 250.3 5.5 250.3 5 250.3 5 C 250 4.9 249.5 4.8 249 4.8 C 248.1 4.8 247.6 5.2 247.6 5.8 C 247.6 5.8 247.6 5.8 247.6 5.8 C 247.6 6.4 248.2 6.8 248.8 6.8 C 249.6 6.8 250.3 6.2 250.3 5.5 Z M 255.2 6.3 C 255.16 6.31 255.2 7.2 255.2 7.2 L 254.5 7.2 L 254.5 0.6 L 255.2 0.6 C 255.2 0.6 255.16 3.48 255.2 3.5 C 255.5 2.9 256.1 2.4 256.9 2.4 C 258.1 2.4 259.2 3.3 259.2 4.9 C 259.2 4.9 259.2 4.9 259.2 4.9 C 259.2 6.4 258.1 7.3 256.9 7.3 C 256.1 7.3 255.5 6.8 255.2 6.3 Z M 258.5 4.9 C 258.5 4.9 258.5 4.9 258.5 4.9 C 258.5 3.8 257.7 3.1 256.8 3.1 C 255.9 3.1 255.1 3.8 255.1 4.9 C 255.1 4.9 255.1 4.9 255.1 4.9 C 255.1 6 255.9 6.7 256.8 6.7 C 257.7 6.7 258.5 6 258.5 4.9 Z M 260.5 5.4 C 260.55 5.44 260.5 2.5 260.5 2.5 L 261.2 2.5 C 261.2 2.5 261.24 5.27 261.2 5.3 C 261.2 6.1 261.7 6.7 262.5 6.7 C 263.3 6.7 263.9 6.1 263.9 5.2 C 263.92 5.21 263.9 2.5 263.9 2.5 L 264.6 2.5 L 264.6 7.2 L 263.9 7.2 C 263.9 7.2 263.92 6.39 263.9 6.4 C 263.6 6.9 263.1 7.3 262.3 7.3 C 261.2 7.3 260.5 6.5 260.5 5.4 Z M 266.3 2.5 L 267 2.5 C 267 2.5 267.04 3.36 267 3.4 C 267.3 2.9 267.8 2.4 268.6 2.4 C 269.8 2.4 270.4 3.2 270.4 4.3 C 270.41 4.31 270.4 7.2 270.4 7.2 L 269.7 7.2 C 269.7 7.2 269.72 4.48 269.7 4.5 C 269.7 3.6 269.3 3.1 268.4 3.1 C 267.6 3.1 267 3.7 267 4.5 C 267.04 4.54 267 7.2 267 7.2 L 266.3 7.2 L 266.3 2.5 Z M 271.7 6.6 C 271.7 6.6 272 6.1 272 6.1 C 272.5 6.5 273.1 6.7 273.6 6.7 C 274.2 6.7 274.6 6.4 274.6 6 C 274.6 6 274.6 5.9 274.6 5.9 C 274.6 5.5 274.1 5.3 273.4 5.1 C 272.7 4.9 271.9 4.7 271.9 3.8 C 271.9 3.8 271.9 3.8 271.9 3.8 C 271.9 3 272.6 2.5 273.5 2.5 C 274.1 2.5 274.7 2.7 275.2 3 C 275.2 3 274.8 3.5 274.8 3.5 C 274.4 3.2 273.9 3.1 273.5 3.1 C 272.9 3.1 272.6 3.3 272.6 3.7 C 272.6 3.7 272.6 3.7 272.6 3.7 C 272.6 4.2 273.1 4.4 273.8 4.5 C 274.5 4.8 275.3 5 275.3 5.9 C 275.3 5.9 275.3 5.9 275.3 5.9 C 275.3 6.8 274.5 7.3 273.6 7.3 C 272.9 7.3 272.2 7 271.7 6.6 Z M 276.4 4.9 C 276.4 4.9 276.4 4.9 276.4 4.9 C 276.4 3.6 277.5 2.4 278.9 2.4 C 280.3 2.4 281.3 3.5 281.3 4.9 C 281.3 4.9 281.3 4.9 281.3 4.9 C 281.3 6.2 280.3 7.3 278.9 7.3 C 277.5 7.3 276.4 6.2 276.4 4.9 Z M 280.6 4.9 C 280.6 4.9 280.6 4.9 280.6 4.9 C 280.6 3.9 279.8 3.1 278.9 3.1 C 277.8 3.1 277.2 3.9 277.2 4.9 C 277.2 4.9 277.2 4.9 277.2 4.9 C 277.2 5.9 277.9 6.7 278.9 6.7 C 279.9 6.7 280.6 5.9 280.6 4.9 Z M 282.5 4.9 C 282.5 4.9 282.5 4.9 282.5 4.9 C 282.5 3.3 283.6 2.4 284.7 2.4 C 285.5 2.4 286.1 2.9 286.5 3.4 C 286.46 3.44 286.5 0.6 286.5 0.6 L 287.1 0.6 L 287.1 7.2 L 286.5 7.2 C 286.5 7.2 286.46 6.26 286.5 6.3 C 286.1 6.8 285.5 7.3 284.7 7.3 C 283.6 7.3 282.5 6.4 282.5 4.9 Z M 286.5 4.9 C 286.5 4.9 286.5 4.9 286.5 4.9 C 286.5 3.8 285.7 3.1 284.8 3.1 C 283.9 3.1 283.2 3.7 283.2 4.9 C 283.2 4.9 283.2 4.9 283.2 4.9 C 283.2 6 283.9 6.7 284.8 6.7 C 285.7 6.7 286.5 5.9 286.5 4.9 Z M 290.7 2.5 L 291.4 2.5 C 291.4 2.5 291.38 3.36 291.4 3.4 C 291.7 2.9 292.2 2.4 293 2.4 C 294.1 2.4 294.8 3.2 294.8 4.3 C 294.75 4.31 294.8 7.2 294.8 7.2 L 294.1 7.2 C 294.1 7.2 294.06 4.48 294.1 4.5 C 294.1 3.6 293.6 3.1 292.8 3.1 C 292 3.1 291.4 3.7 291.4 4.5 C 291.38 4.54 291.4 7.2 291.4 7.2 L 290.7 7.2 L 290.7 2.5 Z M 296.4 8 C 296.4 8 296.7 7.5 296.7 7.5 C 297.2 7.9 297.8 8.1 298.5 8.1 C 299.5 8.1 300.2 7.5 300.2 6.4 C 300.2 6.4 300.2 5.9 300.2 5.9 C 299.7 6.4 299.2 6.8 298.3 6.8 C 297.2 6.8 296.1 6 296.1 4.7 C 296.1 4.7 296.1 4.6 296.1 4.6 C 296.1 3.3 297.2 2.4 298.3 2.4 C 299.2 2.4 299.8 2.9 300.1 3.4 C 300.14 3.38 300.1 2.5 300.1 2.5 L 300.8 2.5 C 300.8 2.5 300.83 6.39 300.8 6.4 C 300.8 7.1 300.6 7.7 300.2 8 C 299.8 8.5 299.2 8.7 298.5 8.7 C 297.7 8.7 297 8.4 296.4 8 Z M 300.2 4.7 C 300.2 4.7 300.2 4.6 300.2 4.6 C 300.2 3.7 299.3 3.1 298.5 3.1 C 297.6 3.1 296.8 3.7 296.8 4.6 C 296.8 4.6 296.8 4.6 296.8 4.6 C 296.8 5.6 297.6 6.2 298.5 6.2 C 299.3 6.2 300.2 5.6 300.2 4.7 Z " stroke="none" fill="#fff"/>
  </g>
</svg>