<?xml version="1.0" standalone="no"?>
<!DOCTYPE svg PUBLIC "-//W3C//DTD SVG 1.1//EN" "http://www.w3.org/Graphics/SVG/1.1/DTD/svg11.dtd">
<svg xmlns="http://www.w3.org/2000/svg" version="1.1" width="154px" height="35.5px" viewBox="0 -6 154 35.5" style="top:-6px">
  <desc>DAKILANG</desc>
  <defs/>
  <g id="Polygon17016">
    <path d="M 27.9 6.3 C 27.9 2.9 27.9 2.3 27.9 1.6 C 27.9 0.8 27.7 0.5 27 0.3 C 26.8 0.3 26.4 0.2 26.2 0.2 C 26.1 0.2 26 0.2 26 0.1 C 26 0 26.1 -0.1 26.4 -0.1 C 27.4 -0.1 28.8 0 28.9 0 C 29.1 0 30.5 -0.1 31.8 -0.1 C 34 -0.1 38 -0.3 40.7 2.4 C 41.8 3.6 42.8 5.4 42.8 8 C 42.8 10.8 41.7 12.9 40.4 14.2 C 39.5 15.2 37.5 16.8 33.8 16.8 C 32.8 16.8 31.6 16.7 30.7 16.6 C 29.7 16.6 29 16.5 28.9 16.5 C 28.8 16.5 28.5 16.5 28 16.5 C 27.5 16.5 27 16.6 26.7 16.6 C 26.5 16.6 26.4 16.5 26.4 16.4 C 26.4 16.3 26.4 16.3 26.5 16.3 C 26.7 16.3 27 16.2 27.2 16.2 C 27.6 16.1 27.7 15.6 27.8 15 C 27.9 14 27.9 12.3 27.9 10.2 C 27.9 10.2 27.9 6.3 27.9 6.3 Z M 29.8 8.7 C 29.8 11 29.8 13 29.8 13.5 C 29.9 14 29.9 14.9 30.1 15.1 C 30.4 15.6 31.2 16 33.8 16 C 35.9 16 37.8 15.3 39.1 14 C 40.2 12.8 40.8 10.7 40.8 8.7 C 40.8 5.9 39.6 4.1 38.7 3.2 C 36.6 1 34.1 0.7 31.5 0.7 C 31.1 0.7 30.3 0.7 30.1 0.8 C 29.9 0.9 29.8 1 29.8 1.3 C 29.8 2 29.8 4.3 29.8 6 C 29.8 6 29.8 8.7 29.8 8.7 Z M 51.1 0.5 C 51.3 -0.2 51.4 -0.4 51.6 -0.4 C 51.7 -0.4 51.8 -0.3 52 0.4 C 52.4 1.3 55.8 10.3 57.2 13.7 C 58 15.6 58.6 16 59.1 16.1 C 59.4 16.2 59.7 16.3 59.9 16.3 C 60.1 16.3 60.2 16.3 60.2 16.4 C 60.2 16.5 60 16.6 59.7 16.6 C 59.4 16.6 57.8 16.6 56.3 16.5 C 55.8 16.5 55.6 16.5 55.6 16.4 C 55.6 16.3 55.7 16.2 55.8 16.2 C 55.9 16.2 56 16 55.9 15.6 C 55.9 15.6 53.8 10.2 53.8 10.2 C 53.8 10.1 53.8 10.1 53.6 10.1 C 53.6 10.1 48.9 10.1 48.9 10.1 C 48.8 10.1 48.7 10.1 48.7 10.3 C 48.7 10.3 47.4 14.1 47.4 14.1 C 47.2 14.7 47.1 15.2 47.1 15.6 C 47.1 16.1 47.5 16.3 47.9 16.3 C 47.9 16.3 48.1 16.3 48.1 16.3 C 48.3 16.3 48.3 16.3 48.3 16.4 C 48.3 16.5 48.2 16.6 48 16.6 C 47.5 16.6 46.5 16.5 46.3 16.5 C 46.1 16.5 44.8 16.6 43.8 16.6 C 43.5 16.6 43.4 16.5 43.4 16.4 C 43.4 16.3 43.5 16.3 43.6 16.3 C 43.7 16.3 44 16.2 44.2 16.2 C 45.2 16.1 45.7 15.2 46.1 14.1 C 46.1 14.1 51.1 0.5 51.1 0.5 Z M 53.4 9.3 C 53.5 9.3 53.5 9.2 53.4 9.1 C 53.4 9.1 51.4 3.2 51.4 3.2 C 51.2 2.9 51.1 2.9 51 3.2 C 51 3.2 49.1 9.1 49.1 9.1 C 49 9.2 49.1 9.3 49.2 9.3 C 49.2 9.3 53.4 9.3 53.4 9.3 Z M 63.3 6.3 C 63.3 2.9 63.3 2.3 63.3 1.6 C 63.2 0.8 63 0.5 62.3 0.3 C 62.1 0.3 61.8 0.2 61.6 0.2 C 61.5 0.2 61.4 0.2 61.4 0.1 C 61.4 0 61.5 -0.1 61.7 -0.1 C 62.7 -0.1 64 0 64.2 0 C 64.4 0 65.6 -0.1 66.3 -0.1 C 66.5 -0.1 66.6 0 66.6 0.1 C 66.6 0.2 66.6 0.2 66.5 0.2 C 66.3 0.2 66.2 0.3 65.9 0.3 C 65.3 0.4 65.1 0.8 65.1 1.6 C 65.1 2.3 65.1 2.9 65.1 6.3 C 65.06 6.31 65.1 7.6 65.1 7.6 C 65.1 7.6 65.15 7.63 65.1 7.6 C 65.5 7.2 69.5 3.2 70.3 2.3 C 70.9 1.7 71.5 1.1 71.5 0.7 C 71.5 0.5 71.4 0.3 71.2 0.3 C 71.1 0.2 71 0.2 71 0.1 C 71 0 71.1 -0.1 71.3 -0.1 C 71.7 -0.1 72.4 0 72.9 0 C 73 0 74.5 -0.1 75 -0.1 C 75.3 -0.1 75.4 0 75.4 0.1 C 75.4 0.2 75.3 0.2 75.1 0.2 C 74.8 0.2 74.3 0.4 73.9 0.6 C 73 0.9 72.5 1.5 71.5 2.4 C 71 3 67.1 6.7 66.7 7.3 C 67.3 7.9 71.8 12.6 72.7 13.5 C 74.6 15.2 75 15.5 76 16 C 76.6 16.2 77.2 16.3 77.4 16.3 C 77.5 16.3 77.7 16.3 77.7 16.4 C 77.7 16.5 77.6 16.6 77.2 16.6 C 77.2 16.6 76.1 16.6 76.1 16.6 C 75.4 16.6 75 16.6 74.5 16.5 C 73.4 16.4 72.8 15.9 71.9 15.2 C 70.9 14.4 66.2 9.3 65.2 8 C 65.17 8.03 65.1 8 65.1 8 C 65.1 8 65.06 10.19 65.1 10.2 C 65.1 12.3 65.1 14 65.2 15 C 65.2 15.6 65.4 16.1 66 16.2 C 66.3 16.2 66.7 16.3 66.9 16.3 C 67 16.3 67.1 16.3 67.1 16.4 C 67.1 16.5 67 16.6 66.7 16.6 C 65.6 16.6 64.4 16.5 64.2 16.5 C 64 16.5 62.7 16.6 62.1 16.6 C 61.8 16.6 61.7 16.5 61.7 16.4 C 61.7 16.3 61.8 16.3 61.9 16.3 C 62.1 16.3 62.4 16.2 62.6 16.2 C 63 16.1 63.1 15.6 63.2 15 C 63.3 14 63.3 12.3 63.3 10.2 C 63.3 10.2 63.3 6.3 63.3 6.3 Z M 81.7 10.2 C 81.7 12.3 81.7 14 81.8 15 C 81.9 15.6 82 16.1 82.7 16.2 C 83 16.2 83.5 16.3 83.6 16.3 C 83.8 16.3 83.8 16.3 83.8 16.4 C 83.8 16.5 83.7 16.6 83.5 16.6 C 82.3 16.6 80.9 16.5 80.8 16.5 C 80.7 16.5 79.3 16.6 78.6 16.6 C 78.4 16.6 78.3 16.5 78.3 16.4 C 78.3 16.3 78.3 16.3 78.4 16.3 C 78.6 16.3 78.9 16.2 79.1 16.2 C 79.5 16.1 79.6 15.6 79.7 15 C 79.8 14 79.8 12.3 79.8 10.2 C 79.8 10.2 79.8 6.3 79.8 6.3 C 79.8 2.9 79.8 2.3 79.8 1.6 C 79.8 0.8 79.5 0.4 79.1 0.3 C 78.8 0.3 78.5 0.2 78.4 0.2 C 78.3 0.2 78.2 0.2 78.2 0.1 C 78.2 0 78.3 -0.1 78.5 -0.1 C 79.3 -0.1 80.7 0 80.8 0 C 80.9 0 82.3 -0.1 82.9 -0.1 C 83.2 -0.1 83.3 0 83.3 0.1 C 83.3 0.2 83.2 0.2 83.1 0.2 C 82.9 0.2 82.8 0.3 82.5 0.3 C 82 0.4 81.8 0.8 81.7 1.6 C 81.7 2.3 81.7 2.9 81.7 6.3 C 81.7 6.3 81.7 10.2 81.7 10.2 Z M 91.4 10.2 C 91.4 13.5 91.5 14.9 91.9 15.3 C 92.2 15.6 92.8 15.8 94.5 15.8 C 95.7 15.8 96.6 15.8 97.2 15.1 C 97.4 14.8 97.7 14.2 97.7 13.8 C 97.8 13.6 97.8 13.5 97.9 13.5 C 98 13.5 98.1 13.6 98.1 13.8 C 98.1 14.1 97.9 15.4 97.7 16 C 97.6 16.5 97.5 16.6 96.3 16.6 C 94.8 16.6 93.6 16.6 92.7 16.6 C 91.8 16.5 91.1 16.5 90.4 16.5 C 90.4 16.5 90 16.5 89.5 16.5 C 89.1 16.5 88.6 16.6 88.3 16.6 C 88 16.6 87.9 16.5 87.9 16.4 C 87.9 16.3 88 16.3 88.1 16.3 C 88.3 16.3 88.6 16.2 88.8 16.2 C 89.2 16.1 89.3 15.6 89.4 15 C 89.5 14 89.5 12.3 89.5 10.2 C 89.5 10.2 89.5 6.3 89.5 6.3 C 89.5 2.9 89.5 2.3 89.5 1.6 C 89.4 0.8 89.3 0.5 88.5 0.3 C 88.4 0.3 88 0.2 87.8 0.2 C 87.7 0.2 87.6 0.2 87.6 0.1 C 87.6 0 87.7 -0.1 88 -0.1 C 89 -0.1 90.3 0 90.4 0 C 90.6 0 92.2 -0.1 92.8 -0.1 C 93.1 -0.1 93.2 0 93.2 0.1 C 93.2 0.2 93.1 0.2 93 0.2 C 92.8 0.2 92.5 0.3 92.3 0.3 C 91.6 0.4 91.5 0.8 91.4 1.6 C 91.4 2.3 91.4 2.9 91.4 6.3 C 91.4 6.3 91.4 10.2 91.4 10.2 Z M 105.9 0.5 C 106.2 -0.2 106.3 -0.4 106.4 -0.4 C 106.6 -0.4 106.6 -0.3 106.9 0.4 C 107.2 1.3 110.7 10.3 112 13.7 C 112.8 15.6 113.5 16 113.9 16.1 C 114.3 16.2 114.6 16.3 114.8 16.3 C 114.9 16.3 115 16.3 115 16.4 C 115 16.5 114.8 16.6 114.6 16.6 C 114.3 16.6 112.6 16.6 111.1 16.5 C 110.7 16.5 110.5 16.5 110.5 16.4 C 110.5 16.3 110.5 16.2 110.6 16.2 C 110.8 16.2 110.9 16 110.8 15.6 C 110.8 15.6 108.7 10.2 108.7 10.2 C 108.7 10.1 108.6 10.1 108.5 10.1 C 108.5 10.1 103.8 10.1 103.8 10.1 C 103.7 10.1 103.6 10.1 103.6 10.3 C 103.6 10.3 102.2 14.1 102.2 14.1 C 102 14.7 101.9 15.2 101.9 15.6 C 101.9 16.1 102.4 16.3 102.8 16.3 C 102.8 16.3 103 16.3 103 16.3 C 103.1 16.3 103.2 16.3 103.2 16.4 C 103.2 16.5 103.1 16.6 102.9 16.6 C 102.3 16.6 101.4 16.5 101.2 16.5 C 100.9 16.5 99.7 16.6 98.7 16.6 C 98.4 16.6 98.3 16.5 98.3 16.4 C 98.3 16.3 98.3 16.3 98.5 16.3 C 98.6 16.3 98.9 16.2 99.1 16.2 C 100.1 16.1 100.5 15.2 100.9 14.1 C 100.9 14.1 105.9 0.5 105.9 0.5 Z M 108.2 9.3 C 108.3 9.3 108.3 9.2 108.3 9.1 C 108.3 9.1 106.2 3.2 106.2 3.2 C 106.1 2.9 106 2.9 105.9 3.2 C 105.9 3.2 104 9.1 104 9.1 C 103.9 9.2 104 9.3 104 9.3 C 104 9.3 108.2 9.3 108.2 9.3 Z M 118.8 13.6 C 118.8 15.4 119 15.9 119.6 16.1 C 120 16.2 120.5 16.3 120.7 16.3 C 120.8 16.3 120.9 16.3 120.9 16.4 C 120.9 16.5 120.8 16.6 120.5 16.6 C 119.2 16.6 118.4 16.5 118.2 16.5 C 118 16.5 117 16.6 116.1 16.6 C 115.8 16.6 115.7 16.5 115.7 16.4 C 115.7 16.3 115.8 16.3 115.9 16.3 C 116.1 16.3 116.5 16.2 116.8 16.1 C 117.3 16 117.4 15.3 117.4 13.3 C 117.4 13.3 117.5 0.7 117.5 0.7 C 117.5 -0.1 117.5 -0.4 117.7 -0.4 C 117.9 -0.4 118.3 0.1 118.5 0.3 C 118.8 0.7 122.1 4.2 125.5 7.9 C 127.6 10.2 130 12.9 130.8 13.6 C 130.8 13.6 130.5 2.4 130.5 2.4 C 130.5 1 130.3 0.5 129.7 0.4 C 129.3 0.3 128.7 0.2 128.6 0.2 C 128.4 0.2 128.4 0.2 128.4 0.1 C 128.4 0 128.6 -0.1 128.8 -0.1 C 129.8 -0.1 130.9 0 131.1 0 C 131.4 0 132.1 -0.1 133 -0.1 C 133.2 -0.1 133.4 0 133.4 0.1 C 133.4 0.2 133.3 0.2 133.1 0.2 C 133 0.2 132.9 0.2 132.6 0.3 C 131.9 0.5 131.8 0.9 131.8 2.3 C 131.8 2.3 131.8 15.2 131.8 15.2 C 131.8 16.6 131.7 16.7 131.6 16.7 C 131.4 16.7 131.1 16.5 130 15.3 C 129.7 15.1 126.5 11.9 124.2 9.3 C 121.7 6.6 119.2 3.8 118.5 3 C 118.5 3 118.8 13.6 118.8 13.6 Z M 149.1 11 C 149.1 9.2 149 8.9 148.1 8.7 C 148 8.6 147.6 8.6 147.4 8.6 C 147.3 8.6 147.2 8.6 147.2 8.5 C 147.2 8.4 147.3 8.3 147.6 8.3 C 148.5 8.3 149.9 8.4 150 8.4 C 150.2 8.4 151.5 8.3 152.2 8.3 C 152.4 8.3 152.6 8.4 152.6 8.5 C 152.6 8.6 152.5 8.6 152.4 8.6 C 152.2 8.6 152.1 8.6 151.8 8.7 C 151.2 8.8 151.1 9.2 151 9.9 C 151 10.6 151 11.3 151 12.2 C 151 12.2 151 14.7 151 14.7 C 151 15.7 150.9 15.7 150.7 15.9 C 149.3 16.6 147.3 16.9 146 16.9 C 144.3 16.9 141.2 16.7 138.8 14.5 C 137.4 13.4 136.2 11 136.2 8.3 C 136.2 4.7 137.9 2.2 139.8 1 C 141.8 -0.2 144 -0.4 145.7 -0.4 C 147.1 -0.4 148.6 -0.1 149.1 0 C 149.5 0.1 150.3 0.2 150.8 0.2 C 151.1 0.2 151.1 0.3 151.1 0.4 C 151.1 0.7 150.9 1.3 150.9 3.5 C 150.9 3.9 150.9 4 150.7 4 C 150.6 4 150.6 3.9 150.6 3.7 C 150.6 3.4 150.5 2.8 150.1 2.2 C 149.6 1.4 147.8 0.4 145 0.4 C 143.6 0.4 141.9 0.6 140.3 1.9 C 139 2.9 138.1 4.9 138.1 7.5 C 138.1 10.6 139.6 12.8 140.4 13.6 C 142.1 15.3 144.1 15.9 146.2 15.9 C 147 15.9 148.1 15.8 148.7 15.5 C 149 15.3 149.1 15.1 149.1 14.7 C 149.1 14.7 149.1 11 149.1 11 Z " stroke="none" fill="#000"/>
  </g>
</svg>