<?xml version="1.0" standalone="no"?>
<!DOCTYPE svg PUBLIC "-//W3C//DTD SVG 1.1//EN" "http://www.w3.org/Graphics/SVG/1.1/DTD/svg11.dtd">
<svg xmlns="http://www.w3.org/2000/svg" version="1.1" width="310px" height="67.7px" viewBox="0 -12 310 67.7" style="top:-12px">
  <desc>Ekonomiya ng pagpaslang at kawalang-pananagutan</desc>
  <defs/>
  <g id="Polygon21801">
    <path d="M 27.4 41.9 C 27.7 41.9 28.1 41.8 28.4 41.6 C 28.4 41.6 28.8 42.2 28.8 42.2 C 28.2 42.8 27.6 43.1 26.9 43.1 C 26.4 43.1 25.9 42.9 25.6 42.7 C 25.2 42.4 24.9 41.9 24.6 41.1 C 23.9 41.9 23.2 42.4 22.7 42.7 C 22.1 43 21.4 43.1 20.6 43.1 C 19.5 43.1 18.6 42.9 18.1 42.4 C 17.5 41.9 17.2 41.3 17.2 40.5 C 17.2 39.4 17.9 38.4 19.2 37.7 C 20.5 36.9 22.3 36.4 24.5 36.2 C 24.5 36.2 24.5 34.5 24.5 34.5 C 24.5 33.9 24.3 33.4 23.8 33 C 23.4 32.5 22.7 32.3 22 32.3 C 21.3 32.3 20.7 32.5 20.3 32.8 C 19.9 33 19.7 33.2 19.7 33.4 C 19.7 33.5 19.8 33.7 20 33.9 C 20.2 34.2 20.3 34.5 20.3 34.8 C 20.3 35.1 20.2 35.4 20 35.6 C 19.8 35.8 19.5 36 19.1 36 C 18.7 36 18.4 35.8 18.1 35.6 C 17.9 35.3 17.7 35 17.7 34.5 C 17.7 33.8 18.2 33.1 19.1 32.4 C 19.9 31.8 21.1 31.5 22.5 31.5 C 23.8 31.5 24.8 31.7 25.5 32.3 C 26.2 32.9 26.5 33.6 26.5 34.4 C 26.5 34.4 26.5 40.4 26.5 40.4 C 26.5 40.9 26.6 41.3 26.8 41.5 C 26.9 41.8 27.2 41.9 27.4 41.9 C 27.4 41.9 27.4 41.9 27.4 41.9 Z M 24.5 36.9 C 22.6 37.2 21.2 37.6 20.3 38.3 C 19.7 38.7 19.4 39.4 19.4 40.3 C 19.4 40.9 19.6 41.3 19.9 41.7 C 20.2 42 20.6 42.2 21.1 42.2 C 22.1 42.2 22.9 41.8 23.5 41.1 C 24.2 40.4 24.5 39.6 24.5 38.5 C 24.5 38.5 24.5 36.9 24.5 36.9 Z M 31.2 31 C 31.9 30.1 32.3 28.9 32.3 27.3 C 32.31 27.31 33.1 27.3 33.1 27.3 L 33.1 31.8 L 36.6 31.8 L 36.6 32.9 L 33.1 32.9 C 33.1 32.9 33.09 39.91 33.1 39.9 C 33.1 40.5 33.2 41 33.5 41.3 C 33.8 41.6 34.2 41.8 34.6 41.8 C 35.2 41.8 35.6 41.5 36 41.1 C 36.4 40.6 36.6 39.8 36.6 38.6 C 36.6 38.6 37.4 38.6 37.4 38.6 C 37.4 40.1 37.1 41.2 36.4 41.9 C 35.8 42.6 35 42.9 34 42.9 C 33.1 42.9 32.4 42.7 31.9 42.2 C 31.4 41.7 31.1 41 31.1 40.2 C 31.14 40.23 31.1 32.9 31.1 32.9 L 29.2 32.9 C 29.2 32.9 29.23 32.04 29.2 32 C 30.1 31.9 30.8 31.5 31.2 31 C 31.2 31 31.2 31 31.2 31 Z M 43.8 25.4 L 48 25.2 L 48 37.2 C 48 37.2 51.56 34.11 51.6 34.1 C 51.9 33.8 52.1 33.5 52.1 33.3 C 52.1 33.1 52 33 51.8 32.9 C 51.5 32.7 51 32.6 50.3 32.6 C 50.29 32.61 50.3 31.8 50.3 31.8 L 56.1 31.8 C 56.1 31.8 56.13 32.61 56.1 32.6 C 55 32.7 54.1 33 53.5 33.5 C 53.49 33.52 51 35.8 51 35.8 C 51 35.8 55.06 41.38 55.1 41.4 C 55.3 41.7 55.7 41.9 56.4 41.9 C 56.36 41.89 57 41.9 57 41.9 L 57 42.8 L 51 42.8 L 51 41.9 C 51 41.9 51.56 41.89 51.6 41.9 C 52 41.9 52.3 41.8 52.5 41.8 C 52.6 41.7 52.7 41.6 52.7 41.5 C 52.7 41.4 52.6 41.3 52.6 41.2 C 52.57 41.16 49.6 37 49.6 37 L 48 38.4 C 48 38.4 47.99 41.16 48 41.2 C 48 41.4 48.1 41.6 48.2 41.7 C 48.4 41.8 48.7 41.9 49.1 41.9 C 49.09 41.89 49.9 41.9 49.9 41.9 L 49.9 42.8 L 44 42.8 L 44 41.9 C 44 41.9 44.91 41.89 44.9 41.9 C 45.3 41.9 45.6 41.8 45.8 41.6 C 46 41.5 46.1 41.3 46.1 41 C 46.1 41 46.1 27.4 46.1 27.4 C 46.1 27.1 45.9 26.8 45.7 26.7 C 45.4 26.4 44.9 26.3 44.4 26.3 C 44.39 26.31 43.8 26.3 43.8 26.3 L 43.8 25.4 Z M 68.1 41.9 C 68.4 41.9 68.8 41.8 69.1 41.6 C 69.1 41.6 69.5 42.2 69.5 42.2 C 68.9 42.8 68.3 43.1 67.6 43.1 C 67.1 43.1 66.6 42.9 66.3 42.7 C 65.9 42.4 65.6 41.9 65.3 41.1 C 64.6 41.9 63.9 42.4 63.4 42.7 C 62.8 43 62.1 43.1 61.3 43.1 C 60.2 43.1 59.4 42.9 58.8 42.4 C 58.2 41.9 57.9 41.3 57.9 40.5 C 57.9 39.4 58.6 38.4 59.9 37.7 C 61.2 36.9 63 36.4 65.2 36.2 C 65.2 36.2 65.2 34.5 65.2 34.5 C 65.2 33.9 65 33.4 64.5 33 C 64.1 32.5 63.4 32.3 62.7 32.3 C 62 32.3 61.4 32.5 61 32.8 C 60.6 33 60.4 33.2 60.4 33.4 C 60.4 33.5 60.5 33.7 60.7 33.9 C 60.9 34.2 61.1 34.5 61.1 34.8 C 61.1 35.1 60.9 35.4 60.7 35.6 C 60.5 35.8 60.2 36 59.8 36 C 59.4 36 59.1 35.8 58.8 35.6 C 58.6 35.3 58.4 35 58.4 34.5 C 58.4 33.8 58.9 33.1 59.8 32.4 C 60.6 31.8 61.8 31.5 63.2 31.5 C 64.5 31.5 65.5 31.7 66.2 32.3 C 66.9 32.9 67.2 33.6 67.2 34.4 C 67.2 34.4 67.2 40.4 67.2 40.4 C 67.2 40.9 67.3 41.3 67.5 41.5 C 67.6 41.8 67.9 41.9 68.1 41.9 C 68.1 41.9 68.1 41.9 68.1 41.9 Z M 65.2 36.9 C 63.3 37.2 61.9 37.6 61 38.3 C 60.4 38.7 60.1 39.4 60.1 40.3 C 60.1 40.9 60.3 41.3 60.6 41.7 C 60.9 42 61.3 42.2 61.8 42.2 C 62.8 42.2 63.6 41.8 64.2 41.1 C 64.9 40.4 65.2 39.6 65.2 38.5 C 65.2 38.5 65.2 36.9 65.2 36.9 Z M 70 31.8 L 74.8 31.8 L 74.8 32.6 C 74.8 32.6 74.14 32.59 74.1 32.6 C 73.8 32.6 73.6 32.6 73.5 32.7 C 73.3 32.8 73.3 33 73.3 33.1 C 73.3 33.3 73.3 33.5 73.4 33.7 C 73.39 33.68 75.9 39.9 75.9 39.9 C 75.9 39.9 78.01 34 78 34 C 77.7 33.4 77.4 33 77.2 32.8 C 77 32.7 76.6 32.6 76 32.6 C 76.02 32.59 76 31.8 76 31.8 L 81.3 31.8 L 81.3 32.6 C 81.3 32.6 80.88 32.59 80.9 32.6 C 80.5 32.6 80.2 32.6 80 32.8 C 79.9 32.9 79.8 33 79.8 33.2 C 79.8 33.3 79.8 33.5 79.9 33.7 C 79.92 33.68 82.4 39.9 82.4 39.9 C 82.4 39.9 84.39 34.37 84.4 34.4 C 84.5 34 84.6 33.7 84.6 33.4 C 84.6 33.2 84.5 33 84.3 32.8 C 84.1 32.7 83.7 32.6 83.1 32.6 C 83.14 32.59 83.1 31.8 83.1 31.8 L 87.4 31.8 C 87.4 31.8 87.41 32.59 87.4 32.6 C 86.9 32.7 86.5 32.8 86.2 33.1 C 85.9 33.3 85.7 33.7 85.5 34.2 C 85.51 34.22 82.3 43.1 82.3 43.1 L 81.6 43.1 L 78.6 35.4 L 75.8 43.1 L 75.1 43.1 C 75.1 43.1 71.17 33.39 71.2 33.4 C 71 33.1 70.9 32.9 70.8 32.8 C 70.6 32.7 70.3 32.6 70 32.6 C 69.95 32.59 70 31.8 70 31.8 Z M 98.7 41.9 C 99 41.9 99.3 41.8 99.7 41.6 C 99.7 41.6 100.1 42.2 100.1 42.2 C 99.5 42.8 98.9 43.1 98.2 43.1 C 97.7 43.1 97.2 42.9 96.8 42.7 C 96.5 42.4 96.2 41.9 95.9 41.1 C 95.1 41.9 94.5 42.4 93.9 42.7 C 93.4 43 92.7 43.1 91.9 43.1 C 90.8 43.1 89.9 42.9 89.3 42.4 C 88.8 41.9 88.5 41.3 88.5 40.5 C 88.5 39.4 89.1 38.4 90.5 37.7 C 91.8 36.9 93.6 36.4 95.8 36.2 C 95.8 36.2 95.8 34.5 95.8 34.5 C 95.8 33.9 95.6 33.4 95.1 33 C 94.6 32.5 94 32.3 93.3 32.3 C 92.6 32.3 92 32.5 91.5 32.8 C 91.2 33 91 33.2 91 33.4 C 91 33.5 91.1 33.7 91.3 33.9 C 91.5 34.2 91.6 34.5 91.6 34.8 C 91.6 35.1 91.5 35.4 91.3 35.6 C 91.1 35.8 90.8 36 90.4 36 C 90 36 89.7 35.8 89.4 35.6 C 89.2 35.3 89 35 89 34.5 C 89 33.8 89.5 33.1 90.3 32.4 C 91.2 31.8 92.3 31.5 93.8 31.5 C 95.1 31.5 96.1 31.7 96.7 32.3 C 97.4 32.9 97.8 33.6 97.8 34.4 C 97.8 34.4 97.8 40.4 97.8 40.4 C 97.8 40.9 97.9 41.3 98 41.5 C 98.2 41.8 98.4 41.9 98.7 41.9 C 98.7 41.9 98.7 41.9 98.7 41.9 Z M 95.8 36.9 C 93.8 37.2 92.4 37.6 91.6 38.3 C 91 38.7 90.7 39.4 90.7 40.3 C 90.7 40.9 90.8 41.3 91.2 41.7 C 91.5 42 91.9 42.2 92.4 42.2 C 93.3 42.2 94.1 41.8 94.8 41.1 C 95.5 40.4 95.8 39.6 95.8 38.5 C 95.8 38.5 95.8 36.9 95.8 36.9 Z M 104.8 25.2 C 104.8 25.2 104.84 41.15 104.8 41.1 C 104.8 41.4 104.9 41.5 105 41.7 C 105.2 41.8 105.5 41.9 105.8 41.9 C 105.75 41.89 106.9 41.9 106.9 41.9 L 106.9 42.8 L 100.7 42.8 L 100.7 41.9 C 100.7 41.9 101.79 41.89 101.8 41.9 C 102.2 41.9 102.4 41.8 102.6 41.6 C 102.8 41.5 102.9 41.2 102.9 40.9 C 102.9 40.9 102.9 27.5 102.9 27.5 C 102.9 27.2 102.8 26.9 102.5 26.7 C 102.3 26.4 101.9 26.3 101.5 26.3 C 101.48 26.31 100.5 26.3 100.5 26.3 L 100.5 25.4 L 104.8 25.2 Z M 118.2 41.9 C 118.5 41.9 118.8 41.8 119.1 41.6 C 119.1 41.6 119.6 42.2 119.6 42.2 C 119 42.8 118.4 43.1 117.7 43.1 C 117.1 43.1 116.7 42.9 116.3 42.7 C 116 42.4 115.6 41.9 115.4 41.1 C 114.6 41.9 114 42.4 113.4 42.7 C 112.8 43 112.2 43.1 111.4 43.1 C 110.2 43.1 109.4 42.9 108.8 42.4 C 108.2 41.9 107.9 41.3 107.9 40.5 C 107.9 39.4 108.6 38.4 109.9 37.7 C 111.3 36.9 113.1 36.4 115.3 36.2 C 115.3 36.2 115.3 34.5 115.3 34.5 C 115.3 33.9 115 33.4 114.6 33 C 114.1 32.5 113.5 32.3 112.8 32.3 C 112.1 32.3 111.5 32.5 111 32.8 C 110.6 33 110.5 33.2 110.5 33.4 C 110.5 33.5 110.6 33.7 110.8 33.9 C 111 34.2 111.1 34.5 111.1 34.8 C 111.1 35.1 111 35.4 110.8 35.6 C 110.5 35.8 110.2 36 109.9 36 C 109.5 36 109.1 35.8 108.9 35.6 C 108.6 35.3 108.5 35 108.5 34.5 C 108.5 33.8 108.9 33.1 109.8 32.4 C 110.7 31.8 111.8 31.5 113.2 31.5 C 114.5 31.5 115.5 31.7 116.2 32.3 C 116.9 32.9 117.2 33.6 117.2 34.4 C 117.2 34.4 117.2 40.4 117.2 40.4 C 117.2 40.9 117.3 41.3 117.5 41.5 C 117.7 41.8 117.9 41.9 118.2 41.9 C 118.2 41.9 118.2 41.9 118.2 41.9 Z M 115.3 36.9 C 113.3 37.2 111.9 37.6 111.1 38.3 C 110.5 38.7 110.1 39.4 110.1 40.3 C 110.1 40.9 110.3 41.3 110.6 41.7 C 110.9 42 111.4 42.2 111.9 42.2 C 112.8 42.2 113.6 41.8 114.3 41.1 C 115 40.4 115.3 39.6 115.3 38.5 C 115.3 38.5 115.3 36.9 115.3 36.9 Z M 120.2 31.8 C 120.2 31.8 123.8 31.56 123.8 31.6 C 124 32.3 124.1 33.1 124.1 34 C 124.6 33.2 125.2 32.6 125.9 32.2 C 126.5 31.8 127.3 31.6 128.1 31.6 C 128.9 31.6 129.5 31.7 130 32 C 130.5 32.3 130.9 32.8 131.2 33.4 C 131.4 34 131.6 34.7 131.6 35.4 C 131.6 35.4 131.6 40.8 131.6 40.8 C 131.6 41.2 131.7 41.5 131.9 41.6 C 132 41.8 132.3 41.9 132.8 41.9 C 132.77 41.89 133.5 41.9 133.5 41.9 L 133.5 42.8 L 127.8 42.8 L 127.8 41.9 C 127.8 41.9 128.3 41.89 128.3 41.9 C 128.8 41.9 129.2 41.8 129.4 41.6 C 129.6 41.5 129.7 41.2 129.7 40.9 C 129.7 40.9 129.7 36.2 129.7 36.2 C 129.7 35.2 129.5 34.4 129.2 33.9 C 128.8 33.2 128.1 32.9 127.2 32.9 C 126.3 32.9 125.6 33.2 125 33.9 C 124.4 34.7 124.1 35.6 124.1 36.7 C 124.1 36.7 124.1 40.8 124.1 40.8 C 124.1 41.2 124.2 41.5 124.4 41.6 C 124.6 41.8 124.9 41.9 125.3 41.9 C 125.31 41.89 126.1 41.9 126.1 41.9 L 126.1 42.8 L 120.3 42.8 L 120.3 41.9 C 120.3 41.9 121.03 41.89 121 41.9 C 121.4 41.9 121.7 41.8 121.9 41.7 C 122.1 41.5 122.2 41.3 122.2 41.1 C 122.2 41.1 122.2 34 122.2 34 C 122.2 33.5 122.1 33.2 121.8 32.9 C 121.6 32.7 121.2 32.5 120.7 32.5 C 120.72 32.55 120.2 32.5 120.2 32.5 L 120.2 31.8 Z M 142.5 32.4 C 143.3 31.6 144 31.2 144.7 31.2 C 145.1 31.2 145.4 31.3 145.6 31.6 C 145.9 31.8 146 32.2 146 32.5 C 146 32.8 145.9 33 145.8 33.2 C 145.6 33.4 145.4 33.5 145.1 33.5 C 144.7 33.5 144.4 33.2 144.2 32.7 C 144.2 32.5 144.1 32.3 143.9 32.3 C 143.7 32.3 143.4 32.5 143.1 32.9 C 143.4 33.3 143.6 33.7 143.8 34.1 C 143.9 34.4 143.9 34.8 143.9 35.2 C 143.9 35.9 143.8 36.5 143.4 37 C 143.1 37.5 142.6 37.9 141.8 38.3 C 141.1 38.7 140.3 38.9 139.6 38.9 C 139.6 38.9 138.4 38.9 138.4 38.9 C 137.4 38.9 136.8 39 136.5 39.2 C 136.3 39.4 136.1 39.7 136.1 40.1 C 136.1 40.4 136.2 40.6 136.5 40.8 C 136.7 40.9 137.2 41 137.8 41 C 137.8 41 140.7 41 140.7 41 C 142.2 41 143.2 41.2 143.9 41.7 C 144.5 42.2 144.9 42.9 144.9 43.7 C 144.9 44.7 144.5 45.4 143.8 46.1 C 142.7 47 141.2 47.4 139.2 47.4 C 137.5 47.4 136.2 47.1 135.4 46.5 C 134.8 46 134.5 45.5 134.5 44.9 C 134.5 44.4 134.7 44 135.1 43.6 C 135.5 43.2 136.2 43 137.2 42.8 C 136.4 42.6 135.8 42.3 135.4 41.9 C 135 41.6 134.8 41.1 134.8 40.6 C 134.8 40.1 135 39.7 135.3 39.3 C 135.6 38.9 136.2 38.6 136.9 38.3 C 136.3 38 135.8 37.5 135.4 37 C 135.1 36.5 134.9 35.9 134.9 35.2 C 134.9 34.1 135.4 33.3 136.2 32.5 C 137 31.8 138.1 31.5 139.5 31.5 C 140 31.5 140.5 31.5 141 31.7 C 141.5 31.8 142 32.1 142.5 32.4 Z M 139.4 32.2 C 138.7 32.2 138.2 32.5 137.7 33 C 137.3 33.5 137 34.2 137 35.1 C 137 36.1 137.3 36.9 137.7 37.4 C 138.2 38 138.7 38.2 139.4 38.2 C 140.1 38.2 140.7 38 141.2 37.4 C 141.6 36.9 141.8 36.2 141.8 35.2 C 141.8 34.3 141.6 33.5 141.2 33 C 140.7 32.5 140.1 32.2 139.4 32.2 Z M 140.1 42.8 C 138.7 42.8 137.7 43 137 43.4 C 136.4 43.8 136.1 44.3 136.1 44.8 C 136.1 45.3 136.4 45.8 136.8 46.1 C 137.4 46.5 138.3 46.7 139.4 46.7 C 140.8 46.7 141.8 46.5 142.5 46 C 143.1 45.6 143.5 45.1 143.5 44.5 C 143.5 44.2 143.4 43.9 143.2 43.6 C 142.9 43.3 142.6 43.1 142.1 43 C 141.7 42.8 141 42.8 140.1 42.8 Z M 147.1 32.6 L 151.8 32.6 L 151.8 34.4 L 147.1 34.4 L 147.1 32.6 Z M 157 31.6 C 157.2 32.4 157.3 33.2 157.3 34 C 157.9 33.1 158.4 32.5 159 32.1 C 159.6 31.8 160.3 31.6 161 31.6 C 161.7 31.6 162.4 31.8 163.1 32.3 C 163.8 32.7 164.3 33.4 164.8 34.3 C 165.2 35.2 165.4 36.2 165.4 37.3 C 165.4 39.1 164.9 40.6 163.8 41.7 C 163 42.6 161.9 43.1 160.7 43.1 C 160.1 43.1 159.4 42.9 158.9 42.6 C 158.3 42.2 157.8 41.7 157.4 41 C 157.4 41 157.4 45.4 157.4 45.4 C 157.4 45.8 157.5 46 157.7 46.2 C 157.9 46.4 158.2 46.4 158.5 46.4 C 158.53 46.45 159.3 46.4 159.3 46.4 L 159.3 47.3 L 153.5 47.3 L 153.5 46.4 C 153.5 46.4 154.28 46.45 154.3 46.4 C 154.7 46.4 154.9 46.4 155.1 46.2 C 155.3 46.1 155.4 45.9 155.4 45.6 C 155.4 45.6 155.4 34.1 155.4 34.1 C 155.4 33.5 155.3 33.2 155 32.9 C 154.8 32.7 154.2 32.6 153.5 32.6 C 153.47 32.57 153.5 31.8 153.5 31.8 C 153.5 31.8 157.02 31.59 157 31.6 Z M 160.4 32.7 C 159.6 32.7 158.9 33.1 158.3 33.9 C 157.7 34.7 157.4 35.9 157.4 37.4 C 157.4 39 157.7 40.2 158.2 40.9 C 158.8 41.7 159.5 42.1 160.4 42.1 C 161.2 42.1 161.9 41.7 162.3 41.1 C 162.9 40.2 163.2 39 163.2 37.4 C 163.2 35.7 162.9 34.5 162.4 33.7 C 161.9 33 161.2 32.7 160.4 32.7 Z M 177.2 41.9 C 177.5 41.9 177.9 41.8 178.2 41.6 C 178.2 41.6 178.6 42.2 178.6 42.2 C 178.1 42.8 177.4 43.1 176.7 43.1 C 176.2 43.1 175.7 42.9 175.4 42.7 C 175 42.4 174.7 41.9 174.4 41.1 C 173.7 41.9 173 42.4 172.5 42.7 C 171.9 43 171.2 43.1 170.4 43.1 C 169.3 43.1 168.5 42.9 167.9 42.4 C 167.3 41.9 167 41.3 167 40.5 C 167 39.4 167.7 38.4 169 37.7 C 170.4 36.9 172.1 36.4 174.4 36.2 C 174.4 36.2 174.4 34.5 174.4 34.5 C 174.4 33.9 174.1 33.4 173.6 33 C 173.2 32.5 172.6 32.3 171.8 32.3 C 171.1 32.3 170.6 32.5 170.1 32.8 C 169.7 33 169.5 33.2 169.5 33.4 C 169.5 33.5 169.6 33.7 169.8 33.9 C 170.1 34.2 170.2 34.5 170.2 34.8 C 170.2 35.1 170.1 35.4 169.8 35.6 C 169.6 35.8 169.3 36 168.9 36 C 168.5 36 168.2 35.8 168 35.6 C 167.7 35.3 167.6 35 167.6 34.5 C 167.6 33.8 168 33.1 168.9 32.4 C 169.7 31.8 170.9 31.5 172.3 31.5 C 173.6 31.5 174.6 31.7 175.3 32.3 C 176 32.9 176.3 33.6 176.3 34.4 C 176.3 34.4 176.3 40.4 176.3 40.4 C 176.3 40.9 176.4 41.3 176.6 41.5 C 176.7 41.8 177 41.9 177.2 41.9 C 177.2 41.9 177.2 41.9 177.2 41.9 Z M 174.4 36.9 C 172.4 37.2 171 37.6 170.1 38.3 C 169.5 38.7 169.2 39.4 169.2 40.3 C 169.2 40.9 169.4 41.3 169.7 41.7 C 170 42 170.4 42.2 170.9 42.2 C 171.9 42.2 172.7 41.8 173.3 41.1 C 174 40.4 174.4 39.6 174.4 38.5 C 174.4 38.5 174.4 36.9 174.4 36.9 Z M 179.2 31.8 C 179.2 31.8 182.87 31.56 182.9 31.6 C 183 32.3 183.1 33.1 183.2 34 C 183.7 33.2 184.3 32.6 184.9 32.2 C 185.6 31.8 186.4 31.6 187.2 31.6 C 187.9 31.6 188.5 31.7 189 32 C 189.5 32.3 189.9 32.8 190.2 33.4 C 190.5 34 190.7 34.7 190.7 35.4 C 190.7 35.4 190.7 40.8 190.7 40.8 C 190.7 41.2 190.8 41.5 190.9 41.6 C 191.1 41.8 191.4 41.9 191.8 41.9 C 191.84 41.89 192.6 41.9 192.6 41.9 L 192.6 42.8 L 186.8 42.8 L 186.8 41.9 C 186.8 41.9 187.37 41.89 187.4 41.9 C 187.9 41.9 188.2 41.8 188.5 41.6 C 188.7 41.5 188.8 41.2 188.8 40.9 C 188.8 40.9 188.8 36.2 188.8 36.2 C 188.8 35.2 188.6 34.4 188.3 33.9 C 187.9 33.2 187.2 32.9 186.3 32.9 C 185.4 32.9 184.7 33.2 184.1 33.9 C 183.5 34.7 183.2 35.6 183.2 36.7 C 183.2 36.7 183.2 40.8 183.2 40.8 C 183.2 41.2 183.3 41.5 183.5 41.6 C 183.7 41.8 184 41.9 184.4 41.9 C 184.39 41.89 185.1 41.9 185.1 41.9 L 185.1 42.8 L 179.3 42.8 L 179.3 41.9 C 179.3 41.9 180.1 41.89 180.1 41.9 C 180.5 41.9 180.8 41.8 181 41.7 C 181.2 41.5 181.3 41.3 181.3 41.1 C 181.3 41.1 181.3 34 181.3 34 C 181.3 33.5 181.1 33.2 180.9 32.9 C 180.6 32.7 180.3 32.5 179.8 32.5 C 179.79 32.55 179.2 32.5 179.2 32.5 L 179.2 31.8 Z M 203.8 41.9 C 204.1 41.9 204.4 41.8 204.8 41.6 C 204.8 41.6 205.2 42.2 205.2 42.2 C 204.6 42.8 204 43.1 203.3 43.1 C 202.8 43.1 202.3 42.9 202 42.7 C 201.6 42.4 201.3 41.9 201 41.1 C 200.3 41.9 199.6 42.4 199 42.7 C 198.5 43 197.8 43.1 197 43.1 C 195.9 43.1 195 42.9 194.4 42.4 C 193.9 41.9 193.6 41.3 193.6 40.5 C 193.6 39.4 194.2 38.4 195.6 37.7 C 196.9 36.9 198.7 36.4 200.9 36.2 C 200.9 36.2 200.9 34.5 200.9 34.5 C 200.9 33.9 200.7 33.4 200.2 33 C 199.7 32.5 199.1 32.3 198.4 32.3 C 197.7 32.3 197.1 32.5 196.6 32.8 C 196.3 33 196.1 33.2 196.1 33.4 C 196.1 33.5 196.2 33.7 196.4 33.9 C 196.6 34.2 196.7 34.5 196.7 34.8 C 196.7 35.1 196.6 35.4 196.4 35.6 C 196.2 35.8 195.9 36 195.5 36 C 195.1 36 194.8 35.8 194.5 35.6 C 194.3 35.3 194.1 35 194.1 34.5 C 194.1 33.8 194.6 33.1 195.4 32.4 C 196.3 31.8 197.5 31.5 198.9 31.5 C 200.2 31.5 201.2 31.7 201.9 32.3 C 202.5 32.9 202.9 33.6 202.9 34.4 C 202.9 34.4 202.9 40.4 202.9 40.4 C 202.9 40.9 203 41.3 203.1 41.5 C 203.3 41.8 203.5 41.9 203.8 41.9 C 203.8 41.9 203.8 41.9 203.8 41.9 Z M 200.9 36.9 C 198.9 37.2 197.5 37.6 196.7 38.3 C 196.1 38.7 195.8 39.4 195.8 40.3 C 195.8 40.9 195.9 41.3 196.3 41.7 C 196.6 42 197 42.2 197.5 42.2 C 198.4 42.2 199.2 41.8 199.9 41.1 C 200.6 40.4 200.9 39.6 200.9 38.5 C 200.9 38.5 200.9 36.9 200.9 36.9 Z M 205.8 31.8 C 205.8 31.8 209.44 31.56 209.4 31.6 C 209.6 32.3 209.7 33.1 209.8 34 C 210.3 33.2 210.8 32.6 211.5 32.2 C 212.2 31.8 212.9 31.6 213.8 31.6 C 214.5 31.6 215.1 31.7 215.6 32 C 216.1 32.3 216.5 32.8 216.8 33.4 C 217.1 34 217.2 34.7 217.2 35.4 C 217.2 35.4 217.2 40.8 217.2 40.8 C 217.2 41.2 217.3 41.5 217.5 41.6 C 217.7 41.8 218 41.9 218.4 41.9 C 218.41 41.89 219.2 41.9 219.2 41.9 L 219.2 42.8 L 213.4 42.8 L 213.4 41.9 C 213.4 41.9 213.94 41.89 213.9 41.9 C 214.5 41.9 214.8 41.8 215 41.6 C 215.2 41.5 215.3 41.2 215.3 40.9 C 215.3 40.9 215.3 36.2 215.3 36.2 C 215.3 35.2 215.2 34.4 214.9 33.9 C 214.4 33.2 213.8 32.9 212.9 32.9 C 212 32.9 211.2 33.2 210.7 33.9 C 210.1 34.7 209.8 35.6 209.8 36.7 C 209.8 36.7 209.8 40.8 209.8 40.8 C 209.8 41.2 209.9 41.5 210 41.6 C 210.2 41.8 210.5 41.9 211 41.9 C 210.95 41.89 211.7 41.9 211.7 41.9 L 211.7 42.8 L 205.9 42.8 L 205.9 41.9 C 205.9 41.9 206.66 41.89 206.7 41.9 C 207 41.9 207.3 41.8 207.5 41.7 C 207.7 41.5 207.8 41.3 207.8 41.1 C 207.8 41.1 207.8 34 207.8 34 C 207.8 33.5 207.7 33.2 207.5 32.9 C 207.2 32.7 206.8 32.5 206.4 32.5 C 206.36 32.55 205.8 32.5 205.8 32.5 L 205.8 31.8 Z M 230.4 41.9 C 230.7 41.9 231 41.8 231.3 41.6 C 231.3 41.6 231.8 42.2 231.8 42.2 C 231.2 42.8 230.6 43.1 229.9 43.1 C 229.3 43.1 228.9 42.9 228.5 42.7 C 228.2 42.4 227.8 41.9 227.6 41.1 C 226.8 41.9 226.2 42.4 225.6 42.7 C 225 43 224.4 43.1 223.6 43.1 C 222.5 43.1 221.6 42.9 221 42.4 C 220.4 41.9 220.1 41.3 220.1 40.5 C 220.1 39.4 220.8 38.4 222.1 37.7 C 223.5 36.9 225.3 36.4 227.5 36.2 C 227.5 36.2 227.5 34.5 227.5 34.5 C 227.5 33.9 227.3 33.4 226.8 33 C 226.3 32.5 225.7 32.3 225 32.3 C 224.3 32.3 223.7 32.5 223.2 32.8 C 222.9 33 222.7 33.2 222.7 33.4 C 222.7 33.5 222.8 33.7 223 33.9 C 223.2 34.2 223.3 34.5 223.3 34.8 C 223.3 35.1 223.2 35.4 223 35.6 C 222.7 35.8 222.4 36 222.1 36 C 221.7 36 221.4 35.8 221.1 35.6 C 220.8 35.3 220.7 35 220.7 34.5 C 220.7 33.8 221.1 33.1 222 32.4 C 222.9 31.8 224 31.5 225.4 31.5 C 226.7 31.5 227.7 31.7 228.4 32.3 C 229.1 32.9 229.5 33.6 229.5 34.4 C 229.5 34.4 229.5 40.4 229.5 40.4 C 229.5 40.9 229.5 41.3 229.7 41.5 C 229.9 41.8 230.1 41.9 230.4 41.9 C 230.4 41.9 230.4 41.9 230.4 41.9 Z M 227.5 36.9 C 225.5 37.2 224.1 37.6 223.3 38.3 C 222.7 38.7 222.4 39.4 222.4 40.3 C 222.4 40.9 222.5 41.3 222.8 41.7 C 223.2 42 223.6 42.2 224.1 42.2 C 225 42.2 225.8 41.8 226.5 41.1 C 227.2 40.4 227.5 39.6 227.5 38.5 C 227.5 38.5 227.5 36.9 227.5 36.9 Z M 240.8 32.4 C 241.6 31.6 242.3 31.2 242.9 31.2 C 243.3 31.2 243.7 31.3 243.9 31.6 C 244.2 31.8 244.3 32.2 244.3 32.5 C 244.3 32.8 244.2 33 244 33.2 C 243.9 33.4 243.7 33.5 243.4 33.5 C 243 33.5 242.7 33.2 242.5 32.7 C 242.5 32.5 242.3 32.3 242.2 32.3 C 241.9 32.3 241.6 32.5 241.3 32.9 C 241.7 33.3 241.9 33.7 242 34.1 C 242.1 34.4 242.2 34.8 242.2 35.2 C 242.2 35.9 242 36.5 241.7 37 C 241.4 37.5 240.8 37.9 240.1 38.3 C 239.3 38.7 238.6 38.9 237.9 38.9 C 237.9 38.9 236.6 38.9 236.6 38.9 C 235.7 38.9 235.1 39 234.8 39.2 C 234.5 39.4 234.4 39.7 234.4 40.1 C 234.4 40.4 234.5 40.6 234.7 40.8 C 235 40.9 235.4 41 236.1 41 C 236.1 41 239 41 239 41 C 240.5 41 241.5 41.2 242.2 41.7 C 242.8 42.2 243.1 42.9 243.1 43.7 C 243.1 44.7 242.8 45.4 242 46.1 C 241 47 239.5 47.4 237.4 47.4 C 235.8 47.4 234.5 47.1 233.7 46.5 C 233.1 46 232.7 45.5 232.7 44.9 C 232.7 44.4 232.9 44 233.4 43.6 C 233.8 43.2 234.5 43 235.4 42.8 C 234.7 42.6 234.1 42.3 233.7 41.9 C 233.3 41.6 233.1 41.1 233.1 40.6 C 233.1 40.1 233.3 39.7 233.6 39.3 C 233.9 38.9 234.4 38.6 235.2 38.3 C 234.5 38 234 37.5 233.7 37 C 233.4 36.5 233.2 35.9 233.2 35.2 C 233.2 34.1 233.6 33.3 234.5 32.5 C 235.3 31.8 236.4 31.5 237.7 31.5 C 238.3 31.5 238.8 31.5 239.3 31.7 C 239.8 31.8 240.3 32.1 240.8 32.4 Z M 237.7 32.2 C 237 32.2 236.4 32.5 236 33 C 235.5 33.5 235.3 34.2 235.3 35.1 C 235.3 36.1 235.5 36.9 236 37.4 C 236.4 38 237 38.2 237.7 38.2 C 238.4 38.2 239 38 239.4 37.4 C 239.9 36.9 240.1 36.2 240.1 35.2 C 240.1 34.3 239.9 33.5 239.4 33 C 239 32.5 238.4 32.2 237.7 32.2 Z M 238.4 42.8 C 237 42.8 235.9 43 235.3 43.4 C 234.7 43.8 234.4 44.3 234.4 44.8 C 234.4 45.3 234.6 45.8 235.1 46.1 C 235.7 46.5 236.6 46.7 237.7 46.7 C 239 46.7 240 46.5 240.7 46 C 241.4 45.6 241.7 45.1 241.7 44.5 C 241.7 44.2 241.6 43.9 241.4 43.6 C 241.2 43.3 240.9 43.1 240.4 43 C 240 42.8 239.3 42.8 238.4 42.8 Z M 248.3 31.6 C 248.3 31.6 248.3 38.86 248.3 38.9 C 248.3 39.8 248.5 40.4 249 40.9 C 249.4 41.4 250 41.7 250.7 41.7 C 251.6 41.7 252.3 41.3 252.9 40.6 C 253.5 39.9 253.9 39 253.9 37.9 C 253.9 37.9 253.9 33.8 253.9 33.8 C 253.9 33.4 253.7 33.2 253.4 33 C 253.2 32.7 252.7 32.6 251.9 32.6 C 251.9 32.61 251.9 31.8 251.9 31.8 L 255.8 31.6 C 255.8 31.6 255.75 40.6 255.8 40.6 C 255.8 41 255.9 41.3 256.1 41.6 C 256.3 41.8 256.7 41.9 257.1 41.9 C 257.09 41.89 257.8 41.9 257.8 41.9 L 257.8 42.7 L 254.1 42.8 C 254.1 42.8 253.85 40.6 253.9 40.6 C 253.2 41.4 252.5 42 251.9 42.3 C 251.2 42.7 250.5 42.9 249.9 42.9 C 248.9 42.9 248 42.6 247.4 41.9 C 246.7 41.3 246.4 40.2 246.4 38.6 C 246.4 38.6 246.4 33.8 246.4 33.8 C 246.4 33.4 246.2 33.1 245.8 32.9 C 245.6 32.7 245.1 32.6 244.4 32.6 C 244.41 32.61 244.4 31.8 244.4 31.8 L 248.3 31.6 Z M 260.3 31 C 261 30.1 261.3 28.9 261.4 27.3 C 261.37 27.31 262.2 27.3 262.2 27.3 L 262.2 31.8 L 265.7 31.8 L 265.7 32.9 L 262.2 32.9 C 262.2 32.9 262.16 39.91 262.2 39.9 C 262.2 40.5 262.3 41 262.6 41.3 C 262.9 41.6 263.2 41.8 263.7 41.8 C 264.2 41.8 264.7 41.5 265.1 41.1 C 265.4 40.6 265.6 39.8 265.7 38.6 C 265.7 38.6 266.5 38.6 266.5 38.6 C 266.4 40.1 266.1 41.2 265.5 41.9 C 264.9 42.6 264.1 42.9 263.1 42.9 C 262.2 42.9 261.5 42.7 261 42.2 C 260.5 41.7 260.2 41 260.2 40.2 C 260.2 40.23 260.2 32.9 260.2 32.9 L 258.3 32.9 C 258.3 32.9 258.29 32.04 258.3 32 C 259.2 31.9 259.8 31.5 260.3 31 C 260.3 31 260.3 31 260.3 31 Z M 277.7 41.9 C 278 41.9 278.4 41.8 278.7 41.6 C 278.7 41.6 279.1 42.2 279.1 42.2 C 278.5 42.8 277.9 43.1 277.2 43.1 C 276.7 43.1 276.2 42.9 275.9 42.7 C 275.5 42.4 275.2 41.9 274.9 41.1 C 274.2 41.9 273.5 42.4 273 42.7 C 272.4 43 271.7 43.1 270.9 43.1 C 269.8 43.1 269 42.9 268.4 42.4 C 267.8 41.9 267.5 41.3 267.5 40.5 C 267.5 39.4 268.2 38.4 269.5 37.7 C 270.8 36.9 272.6 36.4 274.9 36.2 C 274.9 36.2 274.9 34.5 274.9 34.5 C 274.9 33.9 274.6 33.4 274.1 33 C 273.7 32.5 273.1 32.3 272.3 32.3 C 271.6 32.3 271.1 32.5 270.6 32.8 C 270.2 33 270 33.2 270 33.4 C 270 33.5 270.1 33.7 270.3 33.9 C 270.5 34.2 270.7 34.5 270.7 34.8 C 270.7 35.1 270.5 35.4 270.3 35.6 C 270.1 35.8 269.8 36 269.4 36 C 269 36 268.7 35.8 268.4 35.6 C 268.2 35.3 268.1 35 268.1 34.5 C 268.1 33.8 268.5 33.1 269.4 32.4 C 270.2 31.8 271.4 31.5 272.8 31.5 C 274.1 31.5 275.1 31.7 275.8 32.3 C 276.5 32.9 276.8 33.6 276.8 34.4 C 276.8 34.4 276.8 40.4 276.8 40.4 C 276.8 40.9 276.9 41.3 277.1 41.5 C 277.2 41.8 277.5 41.9 277.7 41.9 C 277.7 41.9 277.7 41.9 277.7 41.9 Z M 274.9 36.9 C 272.9 37.2 271.5 37.6 270.6 38.3 C 270 38.7 269.7 39.4 269.7 40.3 C 269.7 40.9 269.9 41.3 270.2 41.7 C 270.5 42 270.9 42.2 271.4 42.2 C 272.4 42.2 273.2 41.8 273.8 41.1 C 274.5 40.4 274.9 39.6 274.9 38.5 C 274.9 38.5 274.9 36.9 274.9 36.9 Z M 279.7 31.8 C 279.7 31.8 283.37 31.56 283.4 31.6 C 283.5 32.3 283.6 33.1 283.7 34 C 284.2 33.2 284.8 32.6 285.4 32.2 C 286.1 31.8 286.9 31.6 287.7 31.6 C 288.4 31.6 289 31.7 289.5 32 C 290 32.3 290.4 32.8 290.7 33.4 C 291 34 291.2 34.7 291.2 35.4 C 291.2 35.4 291.2 40.8 291.2 40.8 C 291.2 41.2 291.3 41.5 291.4 41.6 C 291.6 41.8 291.9 41.9 292.3 41.9 C 292.33 41.89 293.1 41.9 293.1 41.9 L 293.1 42.8 L 287.3 42.8 L 287.3 41.9 C 287.3 41.9 287.87 41.89 287.9 41.9 C 288.4 41.9 288.7 41.8 288.9 41.6 C 289.1 41.5 289.3 41.2 289.3 40.9 C 289.3 40.9 289.3 36.2 289.3 36.2 C 289.3 35.2 289.1 34.4 288.8 33.9 C 288.3 33.2 287.7 32.9 286.8 32.9 C 285.9 32.9 285.2 33.2 284.6 33.9 C 284 34.7 283.7 35.6 283.7 36.7 C 283.7 36.7 283.7 40.8 283.7 40.8 C 283.7 41.2 283.8 41.5 284 41.6 C 284.2 41.8 284.5 41.9 284.9 41.9 C 284.88 41.89 285.6 41.9 285.6 41.9 L 285.6 42.8 L 279.8 42.8 L 279.8 41.9 C 279.8 41.9 280.59 41.89 280.6 41.9 C 281 41.9 281.3 41.8 281.5 41.7 C 281.7 41.5 281.8 41.3 281.8 41.1 C 281.8 41.1 281.8 34 281.8 34 C 281.8 33.5 281.6 33.2 281.4 32.9 C 281.1 32.7 280.8 32.5 280.3 32.5 C 280.29 32.55 279.7 32.5 279.7 32.5 L 279.7 31.8 Z " stroke="none" fill="#000"/>
  </g>
  <g id="Polygon21800">
    <path d="M 17.8 0.4 L 31.5 0.4 L 31.9 6.3 C 31.9 6.3 31.09 6.28 31.1 6.3 C 30.8 4.4 30.3 3.1 29.6 2.4 C 28.9 1.7 28.1 1.3 27 1.3 C 27 1.3 23.6 1.3 23.6 1.3 C 23.3 1.3 23.1 1.4 23 1.5 C 22.8 1.7 22.7 1.9 22.7 2.2 C 22.75 2.21 22.7 8.4 22.7 8.4 C 22.7 8.4 24.23 8.39 24.2 8.4 C 25 8.4 25.7 8.1 26.2 7.5 C 26.7 7 26.9 6.1 27 4.9 C 26.96 4.91 27.8 4.9 27.8 4.9 L 27.8 12.9 C 27.8 12.9 26.96 12.94 27 12.9 C 26.9 11.6 26.7 10.7 26.2 10.1 C 25.6 9.5 25 9.2 24.1 9.2 C 24.1 9.22 22.7 9.2 22.7 9.2 C 22.7 9.2 22.75 16.11 22.7 16.1 C 22.7 16.4 22.8 16.6 23 16.7 C 23.2 16.8 23.4 16.9 23.8 16.9 C 23.8 16.9 26.5 16.9 26.5 16.9 C 29.4 16.9 31.1 15 31.5 11.3 C 31.55 11.31 32.4 11.3 32.4 11.3 L 32.1 17.8 L 17.8 17.8 L 17.8 16.9 C 17.8 16.9 19 16.89 19 16.9 C 19.5 16.9 19.8 16.8 20 16.6 C 20.2 16.5 20.2 16.3 20.2 15.9 C 20.2 15.9 20.2 2.2 20.2 2.2 C 20.2 1.9 20.2 1.7 20 1.5 C 19.8 1.4 19.6 1.3 19.2 1.3 C 19.23 1.31 17.8 1.3 17.8 1.3 L 17.8 0.4 Z M 33.5 0.4 L 37.6 0.2 L 37.6 12.2 C 37.6 12.2 41.22 9.11 41.2 9.1 C 41.6 8.8 41.7 8.5 41.7 8.3 C 41.7 8.1 41.6 8 41.4 7.9 C 41.1 7.7 40.6 7.6 39.9 7.6 C 39.94 7.61 39.9 6.8 39.9 6.8 L 45.8 6.8 C 45.8 6.8 45.79 7.61 45.8 7.6 C 44.6 7.7 43.8 8 43.1 8.5 C 43.14 8.52 40.6 10.8 40.6 10.8 C 40.6 10.8 44.71 16.38 44.7 16.4 C 45 16.7 45.4 16.9 46 16.9 C 46.01 16.89 46.6 16.9 46.6 16.9 L 46.6 17.8 L 40.6 17.8 L 40.6 16.9 C 40.6 16.9 41.22 16.89 41.2 16.9 C 41.7 16.9 42 16.8 42.1 16.8 C 42.3 16.7 42.3 16.6 42.3 16.5 C 42.3 16.4 42.3 16.3 42.2 16.2 C 42.23 16.16 39.2 12 39.2 12 L 37.6 13.4 C 37.6 13.4 37.65 16.16 37.6 16.2 C 37.6 16.4 37.7 16.6 37.9 16.7 C 38.1 16.8 38.4 16.9 38.7 16.9 C 38.75 16.89 39.5 16.9 39.5 16.9 L 39.5 17.8 L 33.6 17.8 L 33.6 16.9 C 33.6 16.9 34.56 16.89 34.6 16.9 C 35 16.9 35.2 16.8 35.4 16.6 C 35.6 16.5 35.7 16.3 35.7 16 C 35.7 16 35.7 2.4 35.7 2.4 C 35.7 2.1 35.6 1.8 35.4 1.7 C 35 1.4 34.6 1.3 34 1.3 C 34.05 1.31 33.5 1.3 33.5 1.3 L 33.5 0.4 Z M 52.3 6.5 C 53.8 6.5 55 7 56 8.1 C 57 9.1 57.6 10.5 57.6 12.3 C 57.6 13.5 57.3 14.5 56.9 15.3 C 56.4 16.2 55.8 16.9 55 17.4 C 54.1 17.8 53.2 18.1 52.3 18.1 C 50.8 18.1 49.6 17.6 48.7 16.5 C 47.7 15.4 47.2 14 47.2 12.3 C 47.2 10.6 47.7 9.2 48.7 8.1 C 49.6 7 50.9 6.5 52.3 6.5 Z M 52.3 7.3 C 51.4 7.3 50.7 7.7 50.2 8.5 C 49.6 9.3 49.3 10.5 49.3 12.2 C 49.3 14 49.6 15.3 50.2 16.1 C 50.7 16.9 51.4 17.3 52.3 17.3 C 53.2 17.3 54 16.9 54.5 16.1 C 55.1 15.3 55.4 13.9 55.4 12.1 C 55.4 10.4 55.1 9.2 54.6 8.4 C 54 7.7 53.3 7.3 52.3 7.3 Z M 58.4 6.8 C 58.4 6.8 62.07 6.56 62.1 6.6 C 62.2 7.3 62.3 8.1 62.4 9 C 62.9 8.2 63.5 7.6 64.1 7.2 C 64.8 6.8 65.6 6.6 66.4 6.6 C 67.1 6.6 67.7 6.7 68.2 7 C 68.7 7.3 69.1 7.8 69.4 8.4 C 69.7 9 69.9 9.7 69.9 10.4 C 69.9 10.4 69.9 15.8 69.9 15.8 C 69.9 16.2 70 16.5 70.1 16.6 C 70.3 16.8 70.6 16.9 71 16.9 C 71.03 16.89 71.8 16.9 71.8 16.9 L 71.8 17.8 L 66 17.8 L 66 16.9 C 66 16.9 66.57 16.89 66.6 16.9 C 67.1 16.9 67.4 16.8 67.6 16.6 C 67.9 16.5 68 16.2 68 15.9 C 68 15.9 68 11.2 68 11.2 C 68 10.2 67.8 9.4 67.5 8.9 C 67 8.2 66.4 7.9 65.5 7.9 C 64.6 7.9 63.9 8.2 63.3 8.9 C 62.7 9.7 62.4 10.6 62.4 11.7 C 62.4 11.7 62.4 15.8 62.4 15.8 C 62.4 16.2 62.5 16.5 62.7 16.6 C 62.9 16.8 63.2 16.9 63.6 16.9 C 63.58 16.89 64.3 16.9 64.3 16.9 L 64.3 17.8 L 58.5 17.8 L 58.5 16.9 C 58.5 16.9 59.29 16.89 59.3 16.9 C 59.7 16.9 60 16.8 60.2 16.7 C 60.4 16.5 60.5 16.3 60.5 16.1 C 60.5 16.1 60.5 9 60.5 9 C 60.5 8.5 60.3 8.2 60.1 7.9 C 59.8 7.7 59.5 7.5 59 7.5 C 58.99 7.55 58.4 7.5 58.4 7.5 L 58.4 6.8 Z M 77.5 6.5 C 79 6.5 80.3 7 81.3 8.1 C 82.3 9.1 82.8 10.5 82.8 12.3 C 82.8 13.5 82.5 14.5 82.1 15.3 C 81.6 16.2 81 16.9 80.2 17.4 C 79.3 17.8 78.4 18.1 77.5 18.1 C 76.1 18.1 74.9 17.6 73.9 16.5 C 72.9 15.4 72.4 14 72.4 12.3 C 72.4 10.6 72.9 9.2 73.9 8.1 C 74.9 7 76.1 6.5 77.5 6.5 Z M 77.5 7.3 C 76.7 7.3 76 7.7 75.4 8.5 C 74.8 9.3 74.5 10.5 74.5 12.2 C 74.5 14 74.8 15.3 75.4 16.1 C 75.9 16.9 76.7 17.3 77.5 17.3 C 78.5 17.3 79.2 16.9 79.8 16.1 C 80.3 15.3 80.6 13.9 80.6 12.1 C 80.6 10.4 80.3 9.2 79.8 8.4 C 79.2 7.7 78.5 7.3 77.5 7.3 Z M 84.3 6.8 C 84.3 6.8 87.47 6.59 87.5 6.6 C 87.6 7.4 87.8 8.2 87.8 8.9 C 88.4 8.1 89 7.5 89.6 7.1 C 90.2 6.8 90.8 6.6 91.5 6.6 C 92.3 6.6 92.9 6.8 93.4 7.2 C 93.9 7.6 94.3 8.2 94.6 9.1 C 95.1 8.3 95.7 7.6 96.3 7.2 C 96.9 6.8 97.6 6.6 98.4 6.6 C 99.4 6.6 100.2 6.9 100.7 7.5 C 101.3 8.3 101.6 9.3 101.6 10.5 C 101.6 10.5 101.6 15.9 101.6 15.9 C 101.6 16.3 101.7 16.5 101.9 16.6 C 102.1 16.8 102.4 16.9 102.8 16.9 C 102.83 16.89 103.4 16.9 103.4 16.9 L 103.4 17.8 L 97.9 17.8 L 97.9 16.9 C 97.9 16.9 98.41 16.89 98.4 16.9 C 98.9 16.9 99.2 16.8 99.4 16.7 C 99.6 16.5 99.7 16.3 99.7 15.9 C 99.7 15.9 99.7 10.5 99.7 10.5 C 99.7 9.7 99.5 9 99.1 8.6 C 98.7 8.2 98.2 7.9 97.5 7.9 C 97 7.9 96.6 8.1 96.2 8.3 C 95.8 8.6 95.5 9 95.2 9.4 C 94.9 10.1 94.7 10.7 94.7 11.2 C 94.7 11.2 94.7 15.9 94.7 15.9 C 94.7 16.3 94.8 16.5 95 16.7 C 95.2 16.8 95.4 16.9 95.8 16.9 C 95.8 16.89 96.5 16.9 96.5 16.9 L 96.5 17.8 L 90.9 17.8 L 90.9 16.9 C 90.9 16.9 91.58 16.89 91.6 16.9 C 92 16.9 92.3 16.8 92.5 16.7 C 92.7 16.5 92.8 16.3 92.8 16.1 C 92.8 16.1 92.8 11 92.8 11 C 92.8 9.9 92.6 9.1 92.2 8.7 C 91.8 8.2 91.3 7.9 90.7 7.9 C 89.8 7.9 89.2 8.2 88.8 8.8 C 88.1 9.6 87.8 10.5 87.8 11.6 C 87.8 11.6 87.8 15.9 87.8 15.9 C 87.8 16.3 87.9 16.5 88 16.6 C 88.2 16.8 88.6 16.9 89 16.9 C 89.01 16.89 89.6 16.9 89.6 16.9 L 89.6 17.8 L 84 17.8 L 84 16.9 C 84 16.9 84.88 16.89 84.9 16.9 C 85.2 16.9 85.4 16.8 85.6 16.7 C 85.8 16.5 85.8 16.3 85.8 16.1 C 85.8 16.1 85.8 8.9 85.8 8.9 C 85.8 8.5 85.7 8.2 85.5 8 C 85.3 7.8 84.9 7.6 84.3 7.6 C 84.33 7.59 84.3 6.8 84.3 6.8 Z M 107.1 0.2 C 107.5 0.2 107.8 0.4 108 0.6 C 108.3 0.9 108.4 1.2 108.4 1.6 C 108.4 1.9 108.3 2.2 108 2.5 C 107.8 2.7 107.5 2.9 107.1 2.9 C 106.8 2.9 106.4 2.7 106.2 2.5 C 105.9 2.2 105.8 1.9 105.8 1.6 C 105.8 1.2 105.9 0.9 106.2 0.6 C 106.5 0.4 106.8 0.2 107.1 0.2 Z M 104.1 6.8 L 108.4 6.7 C 108.4 6.7 108.43 16.1 108.4 16.1 C 108.4 16.4 108.5 16.5 108.6 16.7 C 108.8 16.8 109 16.9 109.3 16.9 C 109.29 16.89 110.5 16.9 110.5 16.9 L 110.5 17.8 L 104.3 17.8 L 104.3 16.9 C 104.3 16.9 105.45 16.89 105.4 16.9 C 105.8 16.9 106 16.8 106.2 16.6 C 106.4 16.5 106.4 16.2 106.4 15.9 C 106.4 15.9 106.4 9 106.4 9 C 106.4 8.6 106.3 8.2 106.1 8 C 105.8 7.8 105.4 7.7 105 7.7 C 104.96 7.66 104.1 7.7 104.1 7.7 L 104.1 6.8 Z M 110.9 6.8 L 116.1 6.8 L 116.1 7.6 C 116.1 7.6 115.63 7.58 115.6 7.6 C 115.2 7.6 114.9 7.6 114.7 7.8 C 114.5 7.9 114.4 8.1 114.4 8.3 C 114.4 8.4 114.5 8.5 114.5 8.6 C 114.5 8.59 117.6 15.2 117.6 15.2 C 117.6 15.2 119.83 9.71 119.8 9.7 C 120 9.3 120.1 8.9 120.1 8.6 C 120.1 8.3 120 8.1 119.7 7.9 C 119.5 7.7 119.1 7.6 118.4 7.6 C 118.38 7.58 118.4 6.8 118.4 6.8 L 123 6.8 C 123 6.8 122.95 7.58 123 7.6 C 122.1 7.7 121.5 8.1 121.2 8.8 C 121.2 8.8 117.1 18.2 117.1 18.2 C 116.4 19.8 115.7 20.9 115 21.5 C 114.3 22.1 113.6 22.4 112.8 22.4 C 112.2 22.4 111.7 22.3 111.4 22 C 111 21.6 110.8 21.2 110.8 20.8 C 110.8 20.4 110.9 20.1 111.2 19.9 C 111.4 19.7 111.6 19.6 112 19.6 C 112.3 19.6 112.5 19.7 112.7 19.9 C 112.9 20.1 113 20.3 113 20.6 C 113 20.7 113 20.8 113 20.9 C 112.9 21 112.9 21.1 112.9 21.2 C 112.9 21.4 113.1 21.5 113.3 21.5 C 113.6 21.5 113.8 21.4 114.2 21.2 C 114.5 21 114.8 20.7 115.1 20.3 C 115.4 19.9 115.9 18.9 116.6 17.5 C 116.6 17.5 112.4 8.6 112.4 8.6 C 112.2 8.3 112.1 8 111.8 7.9 C 111.6 7.7 111.3 7.6 110.9 7.6 C 110.86 7.58 110.9 6.8 110.9 6.8 Z M 133.9 16.9 C 134.2 16.9 134.5 16.8 134.9 16.6 C 134.9 16.6 135.3 17.2 135.3 17.2 C 134.7 17.8 134.1 18.1 133.4 18.1 C 132.9 18.1 132.4 17.9 132.1 17.7 C 131.7 17.4 131.4 16.9 131.1 16.1 C 130.4 16.9 129.7 17.4 129.1 17.7 C 128.6 18 127.9 18.1 127.1 18.1 C 126 18.1 125.1 17.9 124.6 17.4 C 124 16.9 123.7 16.3 123.7 15.5 C 123.7 14.4 124.3 13.4 125.7 12.7 C 127 11.9 128.8 11.4 131 11.2 C 131 11.2 131 9.5 131 9.5 C 131 8.9 130.8 8.4 130.3 8 C 129.8 7.5 129.2 7.3 128.5 7.3 C 127.8 7.3 127.2 7.5 126.7 7.8 C 126.4 8 126.2 8.2 126.2 8.4 C 126.2 8.5 126.3 8.7 126.5 8.9 C 126.7 9.2 126.8 9.5 126.8 9.8 C 126.8 10.1 126.7 10.4 126.5 10.6 C 126.3 10.8 126 11 125.6 11 C 125.2 11 124.9 10.8 124.6 10.6 C 124.4 10.3 124.2 10 124.2 9.5 C 124.2 8.8 124.7 8.1 125.5 7.4 C 126.4 6.8 127.6 6.5 129 6.5 C 130.3 6.5 131.3 6.7 132 7.3 C 132.6 7.9 133 8.6 133 9.4 C 133 9.4 133 15.4 133 15.4 C 133 15.9 133.1 16.3 133.2 16.5 C 133.4 16.8 133.6 16.9 133.9 16.9 C 133.9 16.9 133.9 16.9 133.9 16.9 Z M 131 11.9 C 129 12.2 127.6 12.6 126.8 13.3 C 126.2 13.7 125.9 14.4 125.9 15.3 C 125.9 15.9 126 16.3 126.4 16.7 C 126.7 17 127.1 17.2 127.6 17.2 C 128.5 17.2 129.3 16.8 130 16.1 C 130.7 15.4 131 14.6 131 13.5 C 131 13.5 131 11.9 131 11.9 Z M 141.9 6.8 C 141.9 6.8 145.49 6.56 145.5 6.6 C 145.6 7.3 145.8 8.1 145.8 9 C 146.3 8.2 146.9 7.6 147.6 7.2 C 148.2 6.8 149 6.6 149.8 6.6 C 150.6 6.6 151.2 6.7 151.7 7 C 152.2 7.3 152.5 7.8 152.8 8.4 C 153.1 9 153.3 9.7 153.3 10.4 C 153.3 10.4 153.3 15.8 153.3 15.8 C 153.3 16.2 153.4 16.5 153.6 16.6 C 153.7 16.8 154 16.9 154.5 16.9 C 154.46 16.89 155.2 16.9 155.2 16.9 L 155.2 17.8 L 149.4 17.8 L 149.4 16.9 C 149.4 16.9 149.99 16.89 150 16.9 C 150.5 16.9 150.9 16.8 151.1 16.6 C 151.3 16.5 151.4 16.2 151.4 15.9 C 151.4 15.9 151.4 11.2 151.4 11.2 C 151.4 10.2 151.2 9.4 150.9 8.9 C 150.5 8.2 149.8 7.9 148.9 7.9 C 148 7.9 147.3 8.2 146.7 8.9 C 146.1 9.7 145.8 10.6 145.8 11.7 C 145.8 11.7 145.8 15.8 145.8 15.8 C 145.8 16.2 145.9 16.5 146.1 16.6 C 146.3 16.8 146.6 16.9 147 16.9 C 147.01 16.89 147.8 16.9 147.8 16.9 L 147.8 17.8 L 142 17.8 L 142 16.9 C 142 16.9 142.72 16.89 142.7 16.9 C 143.1 16.9 143.4 16.8 143.6 16.7 C 143.8 16.5 143.9 16.3 143.9 16.1 C 143.9 16.1 143.9 9 143.9 9 C 143.9 8.5 143.8 8.2 143.5 7.9 C 143.3 7.7 142.9 7.5 142.4 7.5 C 142.41 7.55 141.9 7.5 141.9 7.5 L 141.9 6.8 Z M 164.2 7.4 C 165 6.6 165.7 6.2 166.4 6.2 C 166.8 6.2 167.1 6.3 167.3 6.6 C 167.6 6.8 167.7 7.2 167.7 7.5 C 167.7 7.8 167.6 8 167.5 8.2 C 167.3 8.4 167.1 8.5 166.8 8.5 C 166.4 8.5 166.1 8.2 165.9 7.7 C 165.9 7.5 165.8 7.3 165.6 7.3 C 165.4 7.3 165.1 7.5 164.8 7.9 C 165.1 8.3 165.3 8.7 165.4 9.1 C 165.6 9.4 165.6 9.8 165.6 10.2 C 165.6 10.9 165.5 11.5 165.1 12 C 164.8 12.5 164.3 12.9 163.5 13.3 C 162.7 13.7 162 13.9 161.3 13.9 C 161.3 13.9 160 13.9 160 13.9 C 159.1 13.9 158.5 14 158.2 14.2 C 157.9 14.4 157.8 14.7 157.8 15.1 C 157.8 15.4 157.9 15.6 158.2 15.8 C 158.4 15.9 158.9 16 159.5 16 C 159.5 16 162.4 16 162.4 16 C 163.9 16 164.9 16.2 165.6 16.7 C 166.2 17.2 166.5 17.9 166.5 18.7 C 166.5 19.7 166.2 20.4 165.4 21.1 C 164.4 22 162.9 22.4 160.9 22.4 C 159.2 22.4 157.9 22.1 157.1 21.5 C 156.5 21 156.2 20.5 156.2 19.9 C 156.2 19.4 156.4 19 156.8 18.6 C 157.2 18.2 157.9 18 158.8 17.8 C 158.1 17.6 157.5 17.3 157.1 16.9 C 156.7 16.6 156.5 16.1 156.5 15.6 C 156.5 15.1 156.7 14.7 157 14.3 C 157.3 13.9 157.9 13.6 158.6 13.3 C 158 13 157.5 12.5 157.1 12 C 156.8 11.5 156.6 10.9 156.6 10.2 C 156.6 9.1 157.1 8.3 157.9 7.5 C 158.7 6.8 159.8 6.5 161.1 6.5 C 161.7 6.5 162.2 6.5 162.7 6.7 C 163.2 6.8 163.7 7.1 164.2 7.4 Z M 161.1 7.2 C 160.4 7.2 159.9 7.5 159.4 8 C 158.9 8.5 158.7 9.2 158.7 10.1 C 158.7 11.1 158.9 11.9 159.4 12.4 C 159.9 13 160.4 13.2 161.1 13.2 C 161.8 13.2 162.4 13 162.9 12.4 C 163.3 11.9 163.5 11.2 163.5 10.2 C 163.5 9.3 163.3 8.5 162.9 8 C 162.4 7.5 161.8 7.2 161.1 7.2 Z M 161.8 17.8 C 160.4 17.8 159.4 18 158.7 18.4 C 158.1 18.8 157.8 19.3 157.8 19.8 C 157.8 20.3 158 20.8 158.5 21.1 C 159.1 21.5 160 21.7 161.1 21.7 C 162.5 21.7 163.5 21.5 164.1 21 C 164.8 20.6 165.2 20.1 165.2 19.5 C 165.2 19.2 165.1 18.9 164.8 18.6 C 164.6 18.3 164.3 18.1 163.8 18 C 163.4 17.8 162.7 17.8 161.8 17.8 Z M 177.4 6.6 C 177.6 7.4 177.7 8.2 177.7 9 C 178.2 8.1 178.8 7.5 179.4 7.1 C 180 6.8 180.6 6.6 181.3 6.6 C 182.1 6.6 182.8 6.8 183.5 7.3 C 184.2 7.7 184.7 8.4 185.1 9.3 C 185.6 10.2 185.8 11.2 185.8 12.3 C 185.8 14.1 185.3 15.6 184.2 16.7 C 183.3 17.6 182.3 18.1 181.1 18.1 C 180.4 18.1 179.8 17.9 179.2 17.6 C 178.7 17.2 178.2 16.7 177.8 16 C 177.8 16 177.8 20.4 177.8 20.4 C 177.8 20.8 177.9 21 178 21.2 C 178.2 21.4 178.5 21.4 178.9 21.4 C 178.9 21.45 179.7 21.4 179.7 21.4 L 179.7 22.3 L 173.8 22.3 L 173.8 21.4 C 173.8 21.4 174.65 21.45 174.6 21.4 C 175 21.4 175.3 21.4 175.5 21.2 C 175.7 21.1 175.8 20.9 175.8 20.6 C 175.8 20.6 175.8 9.1 175.8 9.1 C 175.8 8.5 175.6 8.2 175.4 7.9 C 175.1 7.7 174.6 7.6 173.8 7.6 C 173.84 7.57 173.8 6.8 173.8 6.8 C 173.8 6.8 177.39 6.59 177.4 6.6 Z M 180.8 7.7 C 179.9 7.7 179.2 8.1 178.6 8.9 C 178 9.7 177.8 10.9 177.8 12.4 C 177.8 14 178 15.2 178.6 15.9 C 179.2 16.7 179.9 17.1 180.8 17.1 C 181.6 17.1 182.2 16.7 182.7 16.1 C 183.3 15.2 183.5 14 183.5 12.4 C 183.5 10.7 183.3 9.5 182.8 8.7 C 182.3 8 181.6 7.7 180.8 7.7 Z M 197.6 16.9 C 197.9 16.9 198.2 16.8 198.6 16.6 C 198.6 16.6 199 17.2 199 17.2 C 198.4 17.8 197.8 18.1 197.1 18.1 C 196.6 18.1 196.1 17.9 195.8 17.7 C 195.4 17.4 195.1 16.9 194.8 16.1 C 194.1 16.9 193.4 17.4 192.8 17.7 C 192.3 18 191.6 18.1 190.8 18.1 C 189.7 18.1 188.8 17.9 188.2 17.4 C 187.7 16.9 187.4 16.3 187.4 15.5 C 187.4 14.4 188 13.4 189.4 12.7 C 190.7 11.9 192.5 11.4 194.7 11.2 C 194.7 11.2 194.7 9.5 194.7 9.5 C 194.7 8.9 194.5 8.4 194 8 C 193.5 7.5 192.9 7.3 192.2 7.3 C 191.5 7.3 190.9 7.5 190.4 7.8 C 190.1 8 189.9 8.2 189.9 8.4 C 189.9 8.5 190 8.7 190.2 8.9 C 190.4 9.2 190.5 9.5 190.5 9.8 C 190.5 10.1 190.4 10.4 190.2 10.6 C 190 10.8 189.7 11 189.3 11 C 188.9 11 188.6 10.8 188.3 10.6 C 188.1 10.3 187.9 10 187.9 9.5 C 187.9 8.8 188.4 8.1 189.2 7.4 C 190.1 6.8 191.3 6.5 192.7 6.5 C 194 6.5 195 6.7 195.7 7.3 C 196.3 7.9 196.7 8.6 196.7 9.4 C 196.7 9.4 196.7 15.4 196.7 15.4 C 196.7 15.9 196.8 16.3 196.9 16.5 C 197.1 16.8 197.3 16.9 197.6 16.9 C 197.6 16.9 197.6 16.9 197.6 16.9 Z M 194.7 11.9 C 192.7 12.2 191.3 12.6 190.5 13.3 C 189.9 13.7 189.6 14.4 189.6 15.3 C 189.6 15.9 189.7 16.3 190.1 16.7 C 190.4 17 190.8 17.2 191.3 17.2 C 192.2 17.2 193 16.8 193.7 16.1 C 194.4 15.4 194.7 14.6 194.7 13.5 C 194.7 13.5 194.7 11.9 194.7 11.9 Z M 208 7.4 C 208.8 6.6 209.5 6.2 210.2 6.2 C 210.6 6.2 210.9 6.3 211.1 6.6 C 211.4 6.8 211.5 7.2 211.5 7.5 C 211.5 7.8 211.4 8 211.3 8.2 C 211.1 8.4 210.9 8.5 210.6 8.5 C 210.2 8.5 209.9 8.2 209.7 7.7 C 209.7 7.5 209.6 7.3 209.4 7.3 C 209.2 7.3 208.9 7.5 208.6 7.9 C 208.9 8.3 209.1 8.7 209.3 9.1 C 209.4 9.4 209.4 9.8 209.4 10.2 C 209.4 10.9 209.3 11.5 208.9 12 C 208.6 12.5 208.1 12.9 207.3 13.3 C 206.6 13.7 205.8 13.9 205.1 13.9 C 205.1 13.9 203.9 13.9 203.9 13.9 C 202.9 13.9 202.3 14 202 14.2 C 201.7 14.4 201.6 14.7 201.6 15.1 C 201.6 15.4 201.7 15.6 202 15.8 C 202.2 15.9 202.7 16 203.3 16 C 203.3 16 206.2 16 206.2 16 C 207.7 16 208.7 16.2 209.4 16.7 C 210 17.2 210.4 17.9 210.4 18.7 C 210.4 19.7 210 20.4 209.3 21.1 C 208.2 22 206.7 22.4 204.7 22.4 C 203 22.4 201.7 22.1 200.9 21.5 C 200.3 21 200 20.5 200 19.9 C 200 19.4 200.2 19 200.6 18.6 C 201 18.2 201.7 18 202.7 17.8 C 201.9 17.6 201.3 17.3 200.9 16.9 C 200.5 16.6 200.3 16.1 200.3 15.6 C 200.3 15.1 200.5 14.7 200.8 14.3 C 201.1 13.9 201.7 13.6 202.4 13.3 C 201.8 13 201.3 12.5 200.9 12 C 200.6 11.5 200.4 10.9 200.4 10.2 C 200.4 9.1 200.9 8.3 201.7 7.5 C 202.5 6.8 203.6 6.5 205 6.5 C 205.5 6.5 206 6.5 206.5 6.7 C 207 6.8 207.5 7.1 208 7.4 Z M 204.9 7.2 C 204.2 7.2 203.7 7.5 203.2 8 C 202.8 8.5 202.5 9.2 202.5 10.1 C 202.5 11.1 202.8 11.9 203.2 12.4 C 203.7 13 204.2 13.2 204.9 13.2 C 205.6 13.2 206.2 13 206.7 12.4 C 207.1 11.9 207.3 11.2 207.3 10.2 C 207.3 9.3 207.1 8.5 206.7 8 C 206.2 7.5 205.6 7.2 204.9 7.2 Z M 205.6 17.8 C 204.2 17.8 203.2 18 202.5 18.4 C 201.9 18.8 201.6 19.3 201.6 19.8 C 201.6 20.3 201.9 20.8 202.3 21.1 C 202.9 21.5 203.8 21.7 204.9 21.7 C 206.3 21.7 207.3 21.5 208 21 C 208.6 20.6 209 20.1 209 19.5 C 209 19.2 208.9 18.9 208.7 18.6 C 208.4 18.3 208.1 18.1 207.6 18 C 207.2 17.8 206.5 17.8 205.6 17.8 Z M 215.2 6.6 C 215.4 7.4 215.5 8.2 215.6 9 C 216.1 8.1 216.7 7.5 217.3 7.1 C 217.8 6.8 218.5 6.6 219.2 6.6 C 219.9 6.6 220.7 6.8 221.3 7.3 C 222 7.7 222.6 8.4 223 9.3 C 223.4 10.2 223.6 11.2 223.6 12.3 C 223.6 14.1 223.1 15.6 222.1 16.7 C 221.2 17.6 220.2 18.1 219 18.1 C 218.3 18.1 217.7 17.9 217.1 17.6 C 216.6 17.2 216.1 16.7 215.6 16 C 215.6 16 215.6 20.4 215.6 20.4 C 215.6 20.8 215.7 21 215.9 21.2 C 216.1 21.4 216.4 21.4 216.8 21.4 C 216.76 21.45 217.6 21.4 217.6 21.4 L 217.6 22.3 L 211.7 22.3 L 211.7 21.4 C 211.7 21.4 212.51 21.45 212.5 21.4 C 212.9 21.4 213.2 21.4 213.4 21.2 C 213.5 21.1 213.6 20.9 213.6 20.6 C 213.6 20.6 213.6 9.1 213.6 9.1 C 213.6 8.5 213.5 8.2 213.2 7.9 C 213 7.7 212.5 7.6 211.7 7.6 C 211.7 7.57 211.7 6.8 211.7 6.8 C 211.7 6.8 215.25 6.59 215.2 6.6 Z M 218.7 7.7 C 217.8 7.7 217.1 8.1 216.5 8.9 C 215.9 9.7 215.6 10.9 215.6 12.4 C 215.6 14 215.9 15.2 216.5 15.9 C 217 16.7 217.8 17.1 218.6 17.1 C 219.5 17.1 220.1 16.7 220.5 16.1 C 221.1 15.2 221.4 14 221.4 12.4 C 221.4 10.7 221.1 9.5 220.6 8.7 C 220.1 8 219.5 7.7 218.7 7.7 Z M 235.5 16.9 C 235.8 16.9 236.1 16.8 236.4 16.6 C 236.4 16.6 236.9 17.2 236.9 17.2 C 236.3 17.8 235.6 18.1 235 18.1 C 234.4 18.1 234 17.9 233.6 17.7 C 233.2 17.4 232.9 16.9 232.7 16.1 C 231.9 16.9 231.3 17.4 230.7 17.7 C 230.1 18 229.5 18.1 228.7 18.1 C 227.5 18.1 226.7 17.9 226.1 17.4 C 225.5 16.9 225.2 16.3 225.2 15.5 C 225.2 14.4 225.9 13.4 227.2 12.7 C 228.6 11.9 230.4 11.4 232.6 11.2 C 232.6 11.2 232.6 9.5 232.6 9.5 C 232.6 8.9 232.3 8.4 231.9 8 C 231.4 7.5 230.8 7.3 230.1 7.3 C 229.4 7.3 228.8 7.5 228.3 7.8 C 227.9 8 227.8 8.2 227.8 8.4 C 227.8 8.5 227.9 8.7 228.1 8.9 C 228.3 9.2 228.4 9.5 228.4 9.8 C 228.4 10.1 228.3 10.4 228.1 10.6 C 227.8 10.8 227.5 11 227.2 11 C 226.8 11 226.4 10.8 226.2 10.6 C 225.9 10.3 225.8 10 225.8 9.5 C 225.8 8.8 226.2 8.1 227.1 7.4 C 228 6.8 229.1 6.5 230.5 6.5 C 231.8 6.5 232.8 6.7 233.5 7.3 C 234.2 7.9 234.5 8.6 234.5 9.4 C 234.5 9.4 234.5 15.4 234.5 15.4 C 234.5 15.9 234.6 16.3 234.8 16.5 C 235 16.8 235.2 16.9 235.5 16.9 C 235.5 16.9 235.5 16.9 235.5 16.9 Z M 232.6 11.9 C 230.6 12.2 229.2 12.6 228.4 13.3 C 227.8 13.7 227.4 14.4 227.4 15.3 C 227.4 15.9 227.6 16.3 227.9 16.7 C 228.2 17 228.7 17.2 229.2 17.2 C 230.1 17.2 230.9 16.8 231.6 16.1 C 232.2 15.4 232.6 14.6 232.6 13.5 C 232.6 13.5 232.6 11.9 232.6 11.9 Z M 238.8 13.6 C 239.3 15 239.8 15.9 240.5 16.4 C 241.1 17 241.9 17.2 242.8 17.2 C 243.6 17.2 244.3 17 244.7 16.7 C 245.2 16.3 245.4 15.8 245.4 15.2 C 245.4 14.9 245.3 14.6 245.2 14.4 C 245 14.1 244.8 14 244.5 13.8 C 244.2 13.7 243.4 13.5 242.2 13.3 C 241 13.1 240.1 12.8 239.7 12.6 C 239.2 12.3 238.8 11.9 238.6 11.5 C 238.3 11 238.2 10.6 238.2 10 C 238.2 9.2 238.5 8.5 239 7.8 C 239.7 7 240.7 6.6 241.9 6.6 C 242.9 6.6 243.8 6.9 244.6 7.5 C 244.57 7.48 245.3 6.7 245.3 6.7 L 245.8 6.7 L 246.1 10.6 C 246.1 10.6 245.34 10.57 245.3 10.6 C 245 9.5 244.5 8.7 243.9 8.2 C 243.4 7.7 242.6 7.4 241.8 7.4 C 241 7.4 240.4 7.6 240 8 C 239.6 8.3 239.4 8.8 239.4 9.3 C 239.4 9.8 239.6 10.2 240 10.5 C 240.4 10.8 241.1 11 242.2 11.2 C 243.5 11.4 244.4 11.6 244.8 11.8 C 245.4 12 245.9 12.4 246.3 12.8 C 246.6 13.3 246.8 13.9 246.8 14.6 C 246.8 15.6 246.4 16.4 245.6 17.1 C 244.9 17.8 243.9 18.1 242.7 18.1 C 241.6 18.1 240.6 17.7 239.7 17 C 239.71 17.02 238.9 18 238.9 18 L 238.2 18 L 238 13.6 C 238 13.6 238.78 13.63 238.8 13.6 Z M 252 0.2 C 252 0.2 252 16.15 252 16.1 C 252 16.4 252.1 16.5 252.2 16.7 C 252.4 16.8 252.6 16.9 252.9 16.9 C 252.91 16.89 254.1 16.9 254.1 16.9 L 254.1 17.8 L 247.8 17.8 L 247.8 16.9 C 247.8 16.9 248.95 16.89 248.9 16.9 C 249.3 16.9 249.6 16.8 249.8 16.6 C 249.9 16.5 250 16.2 250 15.9 C 250 15.9 250 2.5 250 2.5 C 250 2.2 249.9 1.9 249.7 1.7 C 249.4 1.4 249.1 1.3 248.6 1.3 C 248.63 1.31 247.6 1.3 247.6 1.3 L 247.6 0.4 L 252 0.2 Z M 265.3 16.9 C 265.6 16.9 266 16.8 266.3 16.6 C 266.3 16.6 266.7 17.2 266.7 17.2 C 266.1 17.8 265.5 18.1 264.8 18.1 C 264.3 18.1 263.8 17.9 263.5 17.7 C 263.1 17.4 262.8 16.9 262.5 16.1 C 261.8 16.9 261.1 17.4 260.6 17.7 C 260 18 259.3 18.1 258.5 18.1 C 257.4 18.1 256.5 17.9 256 17.4 C 255.4 16.9 255.1 16.3 255.1 15.5 C 255.1 14.4 255.8 13.4 257.1 12.7 C 258.4 11.9 260.2 11.4 262.4 11.2 C 262.4 11.2 262.4 9.5 262.4 9.5 C 262.4 8.9 262.2 8.4 261.7 8 C 261.3 7.5 260.6 7.3 259.9 7.3 C 259.2 7.3 258.6 7.5 258.2 7.8 C 257.8 8 257.6 8.2 257.6 8.4 C 257.6 8.5 257.7 8.7 257.9 8.9 C 258.1 9.2 258.2 9.5 258.2 9.8 C 258.2 10.1 258.1 10.4 257.9 10.6 C 257.7 10.8 257.4 11 257 11 C 256.6 11 256.3 10.8 256 10.6 C 255.8 10.3 255.6 10 255.6 9.5 C 255.6 8.8 256.1 8.1 257 7.4 C 257.8 6.8 259 6.5 260.4 6.5 C 261.7 6.5 262.7 6.7 263.4 7.3 C 264.1 7.9 264.4 8.6 264.4 9.4 C 264.4 9.4 264.4 15.4 264.4 15.4 C 264.4 15.9 264.5 16.3 264.7 16.5 C 264.8 16.8 265.1 16.9 265.3 16.9 C 265.3 16.9 265.3 16.9 265.3 16.9 Z M 262.4 11.9 C 260.5 12.2 259.1 12.6 258.2 13.3 C 257.6 13.7 257.3 14.4 257.3 15.3 C 257.3 15.9 257.5 16.3 257.8 16.7 C 258.1 17 258.5 17.2 259 17.2 C 260 17.2 260.8 16.8 261.4 16.1 C 262.1 15.4 262.4 14.6 262.4 13.5 C 262.4 13.5 262.4 11.9 262.4 11.9 Z M 267.3 6.8 C 267.3 6.8 270.96 6.56 271 6.6 C 271.1 7.3 271.2 8.1 271.3 9 C 271.8 8.2 272.4 7.6 273 7.2 C 273.7 6.8 274.4 6.6 275.3 6.6 C 276 6.6 276.6 6.7 277.1 7 C 277.6 7.3 278 7.8 278.3 8.4 C 278.6 9 278.8 9.7 278.8 10.4 C 278.8 10.4 278.8 15.8 278.8 15.8 C 278.8 16.2 278.8 16.5 279 16.6 C 279.2 16.8 279.5 16.9 279.9 16.9 C 279.92 16.89 280.7 16.9 280.7 16.9 L 280.7 17.8 L 274.9 17.8 L 274.9 16.9 C 274.9 16.9 275.46 16.89 275.5 16.9 C 276 16.9 276.3 16.8 276.5 16.6 C 276.7 16.5 276.8 16.2 276.8 15.9 C 276.8 15.9 276.8 11.2 276.8 11.2 C 276.8 10.2 276.7 9.4 276.4 8.9 C 275.9 8.2 275.3 7.9 274.4 7.9 C 273.5 7.9 272.8 8.2 272.2 8.9 C 271.6 9.7 271.3 10.6 271.3 11.7 C 271.3 11.7 271.3 15.8 271.3 15.8 C 271.3 16.2 271.4 16.5 271.6 16.6 C 271.7 16.8 272 16.9 272.5 16.9 C 272.47 16.89 273.2 16.9 273.2 16.9 L 273.2 17.8 L 267.4 17.8 L 267.4 16.9 C 267.4 16.9 268.18 16.89 268.2 16.9 C 268.6 16.9 268.9 16.8 269.1 16.7 C 269.3 16.5 269.4 16.3 269.4 16.1 C 269.4 16.1 269.4 9 269.4 9 C 269.4 8.5 269.2 8.2 269 7.9 C 268.7 7.7 268.4 7.5 267.9 7.5 C 267.88 7.55 267.3 7.5 267.3 7.5 L 267.3 6.8 Z M 289.7 7.4 C 290.4 6.6 291.2 6.2 291.8 6.2 C 292.2 6.2 292.5 6.3 292.8 6.6 C 293.1 6.8 293.2 7.2 293.2 7.5 C 293.2 7.8 293.1 8 292.9 8.2 C 292.7 8.4 292.5 8.5 292.3 8.5 C 291.9 8.5 291.6 8.2 291.4 7.7 C 291.3 7.5 291.2 7.3 291.1 7.3 C 290.8 7.3 290.5 7.5 290.2 7.9 C 290.6 8.3 290.8 8.7 290.9 9.1 C 291 9.4 291.1 9.8 291.1 10.2 C 291.1 10.9 290.9 11.5 290.6 12 C 290.3 12.5 289.7 12.9 289 13.3 C 288.2 13.7 287.5 13.9 286.8 13.9 C 286.8 13.9 285.5 13.9 285.5 13.9 C 284.6 13.9 284 14 283.7 14.2 C 283.4 14.4 283.3 14.7 283.3 15.1 C 283.3 15.4 283.4 15.6 283.6 15.8 C 283.9 15.9 284.3 16 285 16 C 285 16 287.9 16 287.9 16 C 289.3 16 290.4 16.2 291 16.7 C 291.7 17.2 292 17.9 292 18.7 C 292 19.7 291.6 20.4 290.9 21.1 C 289.9 22 288.4 22.4 286.3 22.4 C 284.6 22.4 283.4 22.1 282.6 21.5 C 281.9 21 281.6 20.5 281.6 19.9 C 281.6 19.4 281.8 19 282.2 18.6 C 282.7 18.2 283.3 18 284.3 17.8 C 283.5 17.6 283 17.3 282.6 16.9 C 282.2 16.6 282 16.1 282 15.6 C 282 15.1 282.1 14.7 282.5 14.3 C 282.8 13.9 283.3 13.6 284.1 13.3 C 283.4 13 282.9 12.5 282.6 12 C 282.3 11.5 282.1 10.9 282.1 10.2 C 282.1 9.1 282.5 8.3 283.4 7.5 C 284.2 6.8 285.3 6.5 286.6 6.5 C 287.2 6.5 287.7 6.5 288.2 6.7 C 288.7 6.8 289.2 7.1 289.7 7.4 Z M 286.6 7.2 C 285.9 7.2 285.3 7.5 284.9 8 C 284.4 8.5 284.2 9.2 284.2 10.1 C 284.2 11.1 284.4 11.9 284.9 12.4 C 285.3 13 285.9 13.2 286.6 13.2 C 287.3 13.2 287.9 13 288.3 12.4 C 288.8 11.9 289 11.2 289 10.2 C 289 9.3 288.8 8.5 288.3 8 C 287.9 7.5 287.3 7.2 286.6 7.2 Z M 287.3 17.8 C 285.8 17.8 284.8 18 284.2 18.4 C 283.6 18.8 283.3 19.3 283.3 19.8 C 283.3 20.3 283.5 20.8 284 21.1 C 284.6 21.5 285.4 21.7 286.6 21.7 C 287.9 21.7 288.9 21.5 289.6 21 C 290.3 20.6 290.6 20.1 290.6 19.5 C 290.6 19.2 290.5 18.9 290.3 18.6 C 290.1 18.3 289.8 18.1 289.3 18 C 288.8 17.8 288.2 17.8 287.3 17.8 Z " stroke="none" fill="#000"/>
  </g>
</svg>