<?xml version="1.0" standalone="no"?>
<!DOCTYPE svg PUBLIC "-//W3C//DTD SVG 1.1//EN" "http://www.w3.org/Graphics/SVG/1.1/DTD/svg11.dtd">
<svg xmlns="http://www.w3.org/2000/svg" version="1.1" width="149px" height="24.5px" viewBox="0 -1 149 24.5" style="top:-1px">
  <desc>Zyrhill Dicdican at Justin Rainier Gimeno</desc>
  <defs/>
  <g id="Polygon15358">
    <path d="M 2.6 11.3 C 2.6 11.3 2.57 15.07 2.6 15.1 C 2.6 15.6 2.4 16 2.2 16.3 C 1.9 16.6 1.5 16.7 0.9 16.7 C 0.6 16.7 0.4 16.7 0.1 16.6 C 0.1 16.6 0.1 15.6 0.1 15.6 C 0.3 15.6 0.5 15.6 0.7 15.6 C 0.8 15.6 1 15.6 1.1 15.5 C 1.2 15.5 1.2 15.4 1.3 15.3 C 1.3 15.3 1.3 15.1 1.3 14.9 C 1.32 14.92 1.3 11.3 1.3 11.3 L 2.6 11.3 Z M 8.1 11.3 C 8.1 11.3 8.11 14.59 8.1 14.6 C 8.1 15.1 8 15.5 7.9 15.8 C 7.8 16 7.6 16.3 7.2 16.4 C 6.9 16.6 6.5 16.7 6 16.7 C 5.5 16.7 5.1 16.6 4.8 16.5 C 4.5 16.3 4.2 16.1 4.1 15.8 C 3.9 15.5 3.8 15.1 3.8 14.6 C 3.85 14.59 3.8 11.3 3.8 11.3 L 5.2 11.3 C 5.2 11.3 5.2 14.59 5.2 14.6 C 5.2 14.9 5.2 15.1 5.3 15.2 C 5.3 15.4 5.4 15.5 5.6 15.5 C 5.7 15.6 5.9 15.7 6.1 15.7 C 6.3 15.7 6.5 15.6 6.7 15.5 C 6.8 15.5 6.9 15.4 7 15.2 C 7 15.1 7 14.9 7 14.6 C 7.03 14.59 7 11.3 7 11.3 L 8.1 11.3 Z M 11.1 11.2 C 12.1 11.2 12.8 11.6 13.1 12.4 C 13.1 12.4 12 12.8 12 12.8 C 11.9 12.4 11.6 12.2 11.1 12.2 C 10.6 12.2 10.4 12.3 10.4 12.6 C 10.4 12.8 10.4 12.9 10.5 13 C 10.6 13.1 10.8 13.1 11.2 13.2 C 11.7 13.3 12.1 13.4 12.3 13.5 C 12.6 13.6 12.8 13.8 13 14.1 C 13.2 14.3 13.2 14.6 13.2 14.9 C 13.2 15.4 13.1 15.8 12.7 16.2 C 12.3 16.5 11.8 16.7 11 16.7 C 10.5 16.7 10 16.6 9.6 16.3 C 9.3 16.1 9 15.7 8.9 15.2 C 8.9 15.2 10 14.9 10 14.9 C 10.2 15.4 10.5 15.7 11.1 15.7 C 11.4 15.7 11.6 15.6 11.8 15.5 C 11.9 15.4 12 15.3 12 15.1 C 12 15 11.9 14.8 11.8 14.8 C 11.7 14.7 11.4 14.6 11 14.5 C 10.4 14.4 9.9 14.2 9.6 13.9 C 9.3 13.7 9.2 13.3 9.2 12.9 C 9.2 12.4 9.3 12 9.7 11.7 C 10 11.4 10.5 11.2 11.1 11.2 C 11.1 11.2 11.1 11.2 11.1 11.2 Z M 17.8 11.3 L 17.8 12.3 L 16.5 12.3 L 16.5 16.6 L 15.2 16.6 L 15.2 12.3 L 13.9 12.3 L 13.9 11.3 L 17.8 11.3 Z M 19.9 11.3 L 19.9 16.6 L 18.7 16.6 L 18.7 11.3 L 19.9 11.3 Z M 25.4 11.3 L 25.4 16.6 L 24.3 16.6 C 24.3 16.6 22.24 13 22.2 13 C 22.2 13.1 22.2 13.2 22.2 13.2 C 22.3 13.3 22.3 13.3 22.3 13.4 C 22.26 13.41 22.3 16.6 22.3 16.6 L 21.3 16.6 L 21.3 11.3 L 22.6 11.3 C 22.6 11.3 24.45 14.41 24.5 14.4 C 24.4 14.3 24.4 14.1 24.4 14.1 C 24.43 14.06 24.4 11.3 24.4 11.3 L 25.4 11.3 Z M 30.4 14.5 L 30.4 16.6 L 29.1 16.6 L 29.1 11.3 C 29.1 11.3 31.45 11.27 31.4 11.3 C 31.9 11.3 32.2 11.3 32.5 11.4 C 32.7 11.5 33 11.7 33.1 12 C 33.3 12.2 33.4 12.5 33.4 12.9 C 33.4 13.5 33.1 14 32.5 14.2 C 32.47 14.24 33.5 16.6 33.5 16.6 L 32.1 16.6 L 31.3 14.5 L 30.4 14.5 Z M 30.4 12.2 L 30.4 13.6 C 30.4 13.6 31.13 13.58 31.1 13.6 C 31.4 13.6 31.6 13.6 31.7 13.5 C 31.8 13.5 31.9 13.4 32 13.3 C 32.1 13.2 32.1 13 32.1 12.9 C 32.1 12.7 32.1 12.6 32 12.5 C 31.9 12.4 31.8 12.3 31.7 12.3 C 31.6 12.2 31.4 12.2 31.1 12.2 C 31.1 12.22 30.4 12.2 30.4 12.2 Z M 37.3 11.3 L 39 16.6 L 37.6 16.6 L 37.3 15.5 L 35.6 15.5 L 35.2 16.6 L 34.1 16.6 L 35.9 11.3 L 37.3 11.3 Z M 35.9 14.5 L 37 14.5 L 36.4 12.6 L 35.9 14.5 Z M 41.1 11.3 L 41.1 16.6 L 39.9 16.6 L 39.9 11.3 L 41.1 11.3 Z M 46.6 11.3 L 46.6 16.6 L 45.5 16.6 C 45.5 16.6 43.45 13 43.5 13 C 43.5 13.1 43.5 13.2 43.5 13.2 C 43.5 13.3 43.5 13.3 43.5 13.4 C 43.47 13.41 43.5 16.6 43.5 16.6 L 42.5 16.6 L 42.5 11.3 L 43.8 11.3 C 43.8 11.3 45.66 14.41 45.7 14.4 C 45.6 14.3 45.6 14.1 45.6 14.1 C 45.64 14.06 45.6 11.3 45.6 11.3 L 46.6 11.3 Z M 49.2 11.3 L 49.2 16.6 L 48 16.6 L 48 11.3 L 49.2 11.3 Z M 54.4 12.3 L 51.9 12.3 L 51.9 13.4 L 53.9 13.4 L 53.9 14.4 L 51.9 14.4 L 51.9 15.5 L 54.4 15.5 L 54.4 16.6 L 50.6 16.6 L 50.6 11.3 L 54.4 11.3 L 54.4 12.3 Z M 56.8 14.5 L 56.8 16.6 L 55.5 16.6 L 55.5 11.3 C 55.5 11.3 57.85 11.27 57.9 11.3 C 58.3 11.3 58.6 11.3 58.9 11.4 C 59.2 11.5 59.4 11.7 59.5 12 C 59.7 12.2 59.8 12.5 59.8 12.9 C 59.8 13.5 59.5 14 58.9 14.2 C 58.87 14.24 59.9 16.6 59.9 16.6 L 58.5 16.6 L 57.7 14.5 L 56.8 14.5 Z M 56.8 12.2 L 56.8 13.6 C 56.8 13.6 57.53 13.58 57.5 13.6 C 57.8 13.6 58 13.6 58.1 13.5 C 58.2 13.5 58.3 13.4 58.4 13.3 C 58.5 13.2 58.5 13 58.5 12.9 C 58.5 12.7 58.5 12.6 58.4 12.5 C 58.3 12.4 58.2 12.3 58.1 12.3 C 58 12.2 57.8 12.2 57.5 12.2 C 57.5 12.22 56.8 12.2 56.8 12.2 Z M 67.6 13.8 L 67.6 16.6 C 67.6 16.6 66.99 16.6 67 16.6 C 66.9 16.4 66.9 16.2 66.8 16 C 66.4 16.5 65.9 16.7 65.4 16.7 C 64.7 16.7 64.1 16.4 63.7 15.9 C 63.3 15.4 63.2 14.8 63.2 14 C 63.2 13.2 63.4 12.5 63.8 12 C 64.2 11.4 64.7 11.2 65.5 11.2 C 66 11.2 66.5 11.4 66.9 11.7 C 67.3 12 67.5 12.5 67.6 13 C 67.6 13 66.4 13.2 66.4 13.2 C 66.3 12.5 66 12.2 65.5 12.2 C 65.1 12.2 64.9 12.4 64.7 12.7 C 64.5 13 64.4 13.4 64.4 14 C 64.4 14.5 64.5 14.9 64.7 15.2 C 64.9 15.5 65.2 15.7 65.5 15.7 C 65.7 15.7 65.9 15.6 66.1 15.4 C 66.3 15.3 66.4 15.1 66.4 14.7 C 66.37 14.75 65.4 14.7 65.4 14.7 L 65.4 13.8 L 67.6 13.8 Z M 70.1 11.3 L 70.1 16.6 L 68.9 16.6 L 68.9 11.3 L 70.1 11.3 Z M 73.9 16.6 L 72.5 12.3 L 72.5 16.6 L 71.5 16.6 L 71.5 11.3 L 73.4 11.3 L 74.4 14.5 L 75.4 11.3 L 77.3 11.3 L 77.3 16.6 L 76.1 16.6 L 76.1 12.3 L 74.7 16.6 L 73.9 16.6 Z M 82.5 12.3 L 80 12.3 L 80 13.4 L 82 13.4 L 82 14.4 L 80 14.4 L 80 15.5 L 82.5 15.5 L 82.5 16.6 L 78.7 16.6 L 78.7 11.3 L 82.5 11.3 L 82.5 12.3 Z M 87.7 11.3 L 87.7 16.6 L 86.6 16.6 C 86.6 16.6 84.53 13 84.5 13 C 84.5 13.1 84.5 13.2 84.5 13.2 C 84.5 13.3 84.5 13.3 84.5 13.4 C 84.55 13.41 84.5 16.6 84.5 16.6 L 83.6 16.6 L 83.6 11.3 L 84.9 11.3 C 84.9 11.3 86.74 14.41 86.7 14.4 C 86.7 14.3 86.7 14.1 86.7 14.1 C 86.71 14.06 86.7 11.3 86.7 11.3 L 87.7 11.3 Z M 91.1 16.7 C 90.4 16.7 89.8 16.4 89.4 15.9 C 89 15.3 88.8 14.7 88.8 13.9 C 88.8 13.1 89 12.5 89.4 12 C 89.8 11.4 90.4 11.2 91.1 11.2 C 91.9 11.2 92.4 11.5 92.8 12 C 93.2 12.6 93.4 13.2 93.4 13.9 C 93.4 14.7 93.2 15.4 92.8 15.9 C 92.4 16.4 91.8 16.7 91.1 16.7 Z M 92.1 13.9 C 92.1 12.8 91.7 12.2 91.1 12.2 C 90.5 12.2 90.1 12.8 90.1 13.9 C 90.1 15.1 90.5 15.7 91.1 15.7 C 91.7 15.7 92.1 15.1 92.1 13.9 C 92.1 13.9 92.1 13.9 92.1 13.9 Z " stroke="none" fill="#000"/>
  </g>
  <g id="Polygon15357">
    <path d="M 4.4 1.2 L 1.7 4.6 L 4.5 4.6 L 4.5 5.6 L 0.2 5.6 L 0.2 4.7 L 2.8 1.3 L 0.3 1.3 L 0.3 0.3 L 4.4 0.3 L 4.4 1.2 Z M 9.3 0.3 L 7.7 3.4 L 7.7 5.6 L 6.4 5.6 L 6.4 3.4 L 4.7 0.3 L 6.2 0.3 L 7.2 2.3 L 8.2 0.3 L 9.3 0.3 Z M 11.2 3.5 L 11.2 5.6 L 10 5.6 L 10 0.3 C 10 0.3 12.32 0.27 12.3 0.3 C 12.7 0.3 13.1 0.3 13.4 0.4 C 13.6 0.5 13.8 0.7 14 1 C 14.2 1.2 14.3 1.5 14.3 1.9 C 14.3 2.5 14 3 13.3 3.2 C 13.34 3.24 14.3 5.6 14.3 5.6 L 12.9 5.6 L 12.1 3.5 L 11.2 3.5 Z M 11.2 1.2 L 11.2 2.6 C 11.2 2.6 12 2.58 12 2.6 C 12.2 2.6 12.4 2.6 12.5 2.5 C 12.7 2.5 12.8 2.4 12.8 2.3 C 12.9 2.2 13 2 13 1.9 C 13 1.7 12.9 1.6 12.8 1.5 C 12.8 1.4 12.7 1.3 12.6 1.3 C 12.4 1.2 12.3 1.2 12 1.2 C 11.97 1.22 11.2 1.2 11.2 1.2 Z M 19.7 0.3 L 19.7 5.6 L 18.4 5.6 L 18.4 3.4 L 16.8 3.4 L 16.8 5.6 L 15.5 5.6 L 15.5 0.3 L 16.8 0.3 L 16.8 2.3 L 18.4 2.3 L 18.4 0.3 L 19.7 0.3 Z M 22.3 0.3 L 22.3 5.6 L 21.1 5.6 L 21.1 0.3 L 22.3 0.3 Z M 25 4.5 L 27.1 4.5 L 27.1 5.6 L 23.7 5.6 L 23.7 0.3 L 25 0.3 L 25 4.5 Z M 29.3 4.5 L 31.4 4.5 L 31.4 5.6 L 28 5.6 L 28 0.3 L 29.3 0.3 L 29.3 4.5 Z M 34.7 0.3 C 34.7 0.3 36.34 0.27 36.3 0.3 C 37 0.3 37.5 0.4 37.8 0.5 C 38.1 0.7 38.4 1 38.7 1.4 C 39 1.8 39.1 2.3 39.1 2.9 C 39.1 3.7 38.9 4.3 38.4 4.8 C 38 5.3 37.3 5.6 36.5 5.6 C 36.54 5.6 34.7 5.6 34.7 5.6 L 34.7 0.3 Z M 35.9 1.3 L 35.9 4.6 C 35.9 4.6 36.45 4.6 36.4 4.6 C 36.9 4.6 37.2 4.4 37.5 4.1 C 37.7 3.7 37.8 3.3 37.8 2.9 C 37.8 2.6 37.7 2.3 37.6 2 C 37.5 1.7 37.3 1.5 37.1 1.4 C 36.9 1.3 36.7 1.3 36.5 1.3 C 36.46 1.25 35.9 1.3 35.9 1.3 Z M 41.5 0.3 L 41.5 5.6 L 40.2 5.6 L 40.2 0.3 L 41.5 0.3 Z M 45 0.2 C 46.3 0.2 47 0.9 47.2 2.3 C 47.2 2.3 45.8 2.3 45.8 2.3 C 45.8 1.6 45.5 1.2 45 1.2 C 44.3 1.2 44 1.8 44 2.9 C 44 3.6 44.1 4.1 44.3 4.3 C 44.4 4.5 44.7 4.7 45 4.7 C 45.5 4.7 45.8 4.3 45.9 3.7 C 45.9 3.7 47.2 3.7 47.2 3.7 C 47.1 4.4 46.8 4.9 46.4 5.2 C 46 5.5 45.6 5.7 45 5.7 C 44.3 5.7 43.7 5.4 43.3 5 C 42.8 4.5 42.6 3.8 42.6 2.9 C 42.6 2.1 42.8 1.5 43.2 1 C 43.7 0.4 44.2 0.2 45 0.2 C 45 0.2 45 0.2 45 0.2 Z M 48.2 0.3 C 48.2 0.3 49.82 0.27 49.8 0.3 C 50.5 0.3 51 0.4 51.3 0.5 C 51.6 0.7 51.9 1 52.2 1.4 C 52.4 1.8 52.6 2.3 52.6 2.9 C 52.6 3.7 52.3 4.3 51.9 4.8 C 51.4 5.3 50.8 5.6 50 5.6 C 50.03 5.6 48.2 5.6 48.2 5.6 L 48.2 0.3 Z M 49.4 1.3 L 49.4 4.6 C 49.4 4.6 49.93 4.6 49.9 4.6 C 50.4 4.6 50.7 4.4 50.9 4.1 C 51.2 3.7 51.3 3.3 51.3 2.9 C 51.3 2.6 51.2 2.3 51.1 2 C 51 1.7 50.8 1.5 50.6 1.4 C 50.4 1.3 50.2 1.3 49.9 1.3 C 49.94 1.25 49.4 1.3 49.4 1.3 Z M 54.9 0.3 L 54.9 5.6 L 53.7 5.6 L 53.7 0.3 L 54.9 0.3 Z M 58.5 0.2 C 59.8 0.2 60.5 0.9 60.6 2.3 C 60.6 2.3 59.3 2.3 59.3 2.3 C 59.3 1.6 59 1.2 58.4 1.2 C 57.8 1.2 57.5 1.8 57.5 2.9 C 57.5 3.6 57.6 4.1 57.7 4.3 C 57.9 4.5 58.2 4.7 58.5 4.7 C 59 4.7 59.3 4.3 59.4 3.7 C 59.4 3.7 60.6 3.7 60.6 3.7 C 60.6 4.4 60.3 4.9 59.9 5.2 C 59.5 5.5 59 5.7 58.5 5.7 C 57.8 5.7 57.2 5.4 56.7 5 C 56.3 4.5 56.1 3.8 56.1 2.9 C 56.1 2.1 56.3 1.5 56.7 1 C 57.1 0.4 57.7 0.2 58.5 0.2 C 58.5 0.2 58.5 0.2 58.5 0.2 Z M 64.2 0.3 L 65.9 5.6 L 64.6 5.6 L 64.2 4.5 L 62.5 4.5 L 62.2 5.6 L 61.1 5.6 L 62.8 0.3 L 64.2 0.3 Z M 62.8 3.5 L 63.9 3.5 L 63.4 1.6 L 62.8 3.5 Z M 70.9 0.3 L 70.9 5.6 L 69.8 5.6 C 69.8 5.6 67.75 2 67.8 2 C 67.8 2.1 67.8 2.2 67.8 2.2 C 67.8 2.3 67.8 2.3 67.8 2.4 C 67.78 2.41 67.8 5.6 67.8 5.6 L 66.8 5.6 L 66.8 0.3 L 68.2 0.3 C 68.2 0.3 69.96 3.41 70 3.4 C 69.9 3.3 69.9 3.1 69.9 3.1 C 69.94 3.06 69.9 0.3 69.9 0.3 L 70.9 0.3 Z M 77.2 0.3 L 78.9 5.6 L 77.6 5.6 L 77.2 4.5 L 75.5 4.5 L 75.2 5.6 L 74.1 5.6 L 75.8 0.3 L 77.2 0.3 Z M 75.8 3.5 L 76.9 3.5 L 76.4 1.6 L 75.8 3.5 Z M 82.8 0.3 L 82.8 1.3 L 81.5 1.3 L 81.5 5.6 L 80.2 5.6 L 80.2 1.3 L 78.9 1.3 L 78.9 0.3 L 82.8 0.3 Z " stroke="none" fill="#000"/>
  </g>
</svg>