<?xml version="1.0" standalone="no"?>
<!DOCTYPE svg PUBLIC "-//W3C//DTD SVG 1.1//EN" "http://www.w3.org/Graphics/SVG/1.1/DTD/svg11.dtd">
<svg xmlns="http://www.w3.org/2000/svg" version="1.1" width="98px" height="54.3px" viewBox="0 -7 98 54.3" style="top:-7px">
  <desc>ANG</desc>
  <defs/>
  <g id="Polygon17130">
    <path d="M 43.3 0.5 C 43.6 -0.3 43.7 -0.4 43.8 -0.4 C 44 -0.4 44.1 -0.3 44.4 0.5 C 44.8 1.4 48.7 11.8 50.2 15.5 C 51.1 17.8 51.8 18.2 52.4 18.3 C 52.7 18.4 53.1 18.5 53.4 18.5 C 53.5 18.5 53.6 18.5 53.6 18.6 C 53.6 18.8 53.4 18.8 53.1 18.8 C 52.7 18.8 50.9 18.8 49.2 18.8 C 48.7 18.8 48.4 18.8 48.4 18.6 C 48.4 18.5 48.5 18.4 48.6 18.4 C 48.8 18.4 48.9 18.1 48.8 17.8 C 48.8 17.8 46.4 11.6 46.4 11.6 C 46.4 11.5 46.3 11.4 46.2 11.4 C 46.2 11.4 40.8 11.4 40.8 11.4 C 40.7 11.4 40.6 11.5 40.6 11.7 C 40.6 11.7 39.1 16.1 39.1 16.1 C 38.9 16.7 38.7 17.3 38.7 17.8 C 38.7 18.3 39.3 18.5 39.7 18.5 C 39.7 18.5 39.9 18.5 39.9 18.5 C 40.1 18.5 40.2 18.5 40.2 18.6 C 40.2 18.8 40 18.8 39.8 18.8 C 39.2 18.8 38.1 18.8 37.9 18.8 C 37.6 18.8 36.2 18.8 35 18.8 C 34.7 18.8 34.6 18.8 34.6 18.6 C 34.6 18.5 34.7 18.5 34.8 18.5 C 35 18.5 35.3 18.4 35.5 18.4 C 36.7 18.3 37.2 17.3 37.6 16.1 C 37.6 16.1 43.3 0.5 43.3 0.5 Z M 45.9 10.6 C 46 10.6 46 10.5 46 10.4 C 46 10.4 43.6 3.6 43.6 3.6 C 43.5 3.3 43.4 3.3 43.2 3.6 C 43.2 3.6 41 10.4 41 10.4 C 41 10.5 41 10.6 41.1 10.6 C 41.1 10.6 45.9 10.6 45.9 10.6 Z M 57.9 15.4 C 57.9 17.5 58.2 18.1 58.8 18.3 C 59.3 18.4 59.9 18.5 60.1 18.5 C 60.2 18.5 60.3 18.5 60.3 18.6 C 60.3 18.8 60.1 18.8 59.8 18.8 C 58.4 18.8 57.4 18.8 57.2 18.8 C 57 18.8 55.9 18.8 54.8 18.8 C 54.5 18.8 54.4 18.8 54.4 18.6 C 54.4 18.5 54.5 18.5 54.6 18.5 C 54.8 18.5 55.2 18.4 55.6 18.3 C 56.2 18.1 56.4 17.4 56.4 15.1 C 56.4 15.1 56.4 0.8 56.4 0.8 C 56.4 -0.1 56.5 -0.4 56.7 -0.4 C 56.9 -0.4 57.3 0.1 57.5 0.4 C 57.9 0.8 61.6 4.8 65.5 8.9 C 68 11.6 70.7 14.7 71.5 15.5 C 71.5 15.5 71.2 2.8 71.2 2.8 C 71.2 1.1 71 0.6 70.2 0.4 C 69.8 0.3 69.2 0.3 69 0.3 C 68.8 0.3 68.8 0.2 68.8 0.1 C 68.8 -0.1 69 -0.1 69.3 -0.1 C 70.4 -0.1 71.6 0 71.9 0 C 72.2 0 73 -0.1 74 -0.1 C 74.3 -0.1 74.5 -0.1 74.5 0.1 C 74.5 0.2 74.4 0.3 74.2 0.3 C 74.1 0.3 73.9 0.3 73.6 0.4 C 72.8 0.5 72.7 1.1 72.7 2.6 C 72.7 2.6 72.6 17.2 72.6 17.2 C 72.6 18.9 72.6 19 72.4 19 C 72.2 19 71.9 18.7 70.6 17.4 C 70.3 17.1 66.7 13.5 64.1 10.6 C 61.2 7.5 58.3 4.3 57.5 3.4 C 57.5 3.4 57.9 15.4 57.9 15.4 Z M 92.4 12.4 C 92.4 10.4 92.2 10.1 91.2 9.9 C 91 9.8 90.6 9.8 90.4 9.8 C 90.3 9.8 90.2 9.8 90.2 9.6 C 90.2 9.5 90.3 9.4 90.6 9.4 C 91.7 9.4 93.3 9.5 93.4 9.5 C 93.5 9.5 95.1 9.4 95.9 9.4 C 96.1 9.4 96.3 9.5 96.3 9.6 C 96.3 9.8 96.2 9.8 96.1 9.8 C 95.9 9.8 95.7 9.8 95.4 9.9 C 94.8 10 94.6 10.4 94.5 11.3 C 94.5 12.1 94.5 12.8 94.5 13.9 C 94.5 13.9 94.5 16.7 94.5 16.7 C 94.5 17.8 94.4 17.9 94.1 18.1 C 92.5 18.9 90.3 19.2 88.8 19.2 C 86.9 19.2 83.4 18.9 80.6 16.5 C 79.1 15.2 77.6 12.5 77.6 9.4 C 77.6 5.4 79.6 2.5 81.8 1.1 C 84.1 -0.2 86.5 -0.4 88.5 -0.4 C 90 -0.4 91.8 -0.1 92.3 0 C 92.8 0.1 93.7 0.2 94.3 0.3 C 94.6 0.3 94.6 0.4 94.6 0.5 C 94.6 0.8 94.4 1.5 94.4 4 C 94.4 4.4 94.4 4.6 94.2 4.6 C 94.1 4.6 94.1 4.4 94 4.2 C 94 3.8 93.9 3.1 93.5 2.5 C 92.9 1.6 90.9 0.5 87.6 0.5 C 86.1 0.5 84.2 0.6 82.3 2.1 C 80.8 3.3 79.8 5.6 79.8 8.5 C 79.8 12 81.6 14.6 82.5 15.4 C 84.4 17.4 86.7 18.1 89 18.1 C 89.9 18.1 91.2 17.9 91.9 17.6 C 92.2 17.4 92.4 17.1 92.4 16.7 C 92.4 16.7 92.4 12.4 92.4 12.4 Z " stroke="none" fill="#000"/>
  </g>
</svg>