<?xml version="1.0" standalone="no"?>
<!DOCTYPE svg PUBLIC "-//W3C//DTD SVG 1.1//EN" "http://www.w3.org/Graphics/SVG/1.1/DTD/svg11.dtd">
<svg xmlns="http://www.w3.org/2000/svg" version="1.1" width="328.3px" height="27.3px" viewBox="0 -4 328.3 27.3" style="top:-4px">
  <desc>OPINYON</desc>
  <defs/>
  <g id="Polygon16707">
    <path d="M 8.4 4.7 C 8.4 7.3 6.6 8.9 4.4 8.9 C 2.3 8.9 0.5 7.2 0.5 4.9 C 0.5 2.7 2 0.7 4.6 0.7 C 6.6 0.7 8.4 2.3 8.4 4.7 Z M 1.8 4.6 C 1.8 6.8 3 8.5 4.7 8.5 C 6 8.5 7.2 7.4 7.2 5.1 C 7.2 2.5 5.9 1.2 4.3 1.2 C 3 1.2 1.8 2.3 1.8 4.6 Z M 12.4 0.9 C 13.2 0.9 13.9 1.1 14.4 1.4 C 14.9 1.8 15.2 2.3 15.2 3.1 C 15.2 4.7 14 5.4 12.8 5.6 C 12.6 5.6 12.4 5.6 12.3 5.6 C 12.29 5.58 11.4 5.4 11.4 5.4 C 11.4 5.4 11.4 7.24 11.4 7.2 C 11.4 8.3 11.5 8.3 12.6 8.4 C 12.59 8.39 12.6 8.7 12.6 8.7 L 9.3 8.7 C 9.3 8.7 9.34 8.39 9.3 8.4 C 10.3 8.3 10.4 8.2 10.4 7.2 C 10.4 7.2 10.4 2.4 10.4 2.4 C 10.4 1.4 10.3 1.3 9.4 1.3 C 9.41 1.26 9.4 0.9 9.4 0.9 C 9.4 0.9 12.37 0.92 12.4 0.9 Z M 11.4 5 C 11.6 5 11.9 5.1 12.3 5.1 C 13.1 5.1 14 4.7 14 3.2 C 14 1.9 13.2 1.3 12.2 1.3 C 11.9 1.3 11.6 1.4 11.5 1.5 C 11.4 1.5 11.4 1.7 11.4 2 C 11.4 2 11.4 5 11.4 5 Z M 16 8.7 C 16 8.7 16.01 8.39 16 8.4 C 17 8.3 17.1 8.2 17.1 7.2 C 17.1 7.2 17.1 2.4 17.1 2.4 C 17.1 1.4 17 1.3 16 1.3 C 16.01 1.26 16 0.9 16 0.9 L 19.2 0.9 C 19.2 0.9 19.19 1.26 19.2 1.3 C 18.2 1.3 18.1 1.4 18.1 2.4 C 18.1 2.4 18.1 7.2 18.1 7.2 C 18.1 8.3 18.2 8.3 19.2 8.4 C 19.19 8.39 19.2 8.7 19.2 8.7 L 16 8.7 Z M 28.3 1.3 C 27.6 1.3 27.3 1.5 27.3 2 C 27.2 2.3 27.2 2.9 27.2 4 C 27.19 4 27.2 8.8 27.2 8.8 L 26.8 8.8 L 21.7 2.5 L 21.7 2.5 C 21.7 2.5 21.68 5.56 21.7 5.6 C 21.7 6.7 21.7 7.2 21.8 7.6 C 21.8 8.2 22.1 8.3 22.9 8.4 C 22.91 8.39 22.9 8.7 22.9 8.7 L 20.1 8.7 C 20.1 8.7 20.06 8.39 20.1 8.4 C 20.8 8.4 21.1 8.2 21.1 7.6 C 21.2 7.2 21.2 6.7 21.2 5.6 C 21.2 5.6 21.2 2.9 21.2 2.9 C 21.2 2 21.2 2 21 1.7 C 20.7 1.4 20.4 1.3 19.9 1.3 C 19.88 1.26 19.9 0.9 19.9 0.9 L 21.7 0.9 L 26.7 6.9 L 26.7 6.9 C 26.7 6.9 26.7 4 26.7 4 C 26.7 2.9 26.7 2.3 26.6 2 C 26.6 1.5 26.3 1.3 25.4 1.3 C 25.44 1.26 25.4 0.9 25.4 0.9 L 28.3 0.9 C 28.3 0.9 28.27 1.26 28.3 1.3 Z M 36 1.3 C 35.2 1.4 35 1.5 34.6 2.2 C 34 3.1 33.6 3.8 33 4.8 C 32.9 5.1 32.9 5.3 32.9 5.6 C 32.9 5.6 32.9 7.2 32.9 7.2 C 32.9 8.2 33 8.3 34.1 8.4 C 34.06 8.39 34.1 8.7 34.1 8.7 L 30.7 8.7 C 30.7 8.7 30.66 8.39 30.7 8.4 C 31.7 8.3 31.8 8.2 31.8 7.2 C 31.8 7.2 31.8 5.6 31.8 5.6 C 31.8 5.4 31.8 5.3 31.6 4.9 C 31.2 4.2 30.7 3.4 30.1 2.3 C 29.6 1.5 29.5 1.3 28.7 1.3 C 28.74 1.26 28.7 0.9 28.7 0.9 L 31.6 0.9 C 31.6 0.9 31.61 1.26 31.6 1.3 C 30.8 1.4 30.8 1.5 31 1.9 C 31.5 2.9 32.1 3.9 32.6 4.8 C 33.1 4 33.7 2.8 34 2.1 C 34.3 1.5 34.3 1.4 33.3 1.3 C 33.35 1.26 33.3 0.9 33.3 0.9 L 36 0.9 C 36 0.9 36 1.26 36 1.3 Z M 44.1 4.7 C 44.1 7.3 42.3 8.9 40.1 8.9 C 37.9 8.9 36.2 7.2 36.2 4.9 C 36.2 2.7 37.7 0.7 40.2 0.7 C 42.2 0.7 44.1 2.3 44.1 4.7 Z M 37.4 4.6 C 37.4 6.8 38.6 8.5 40.3 8.5 C 41.7 8.5 42.9 7.4 42.9 5.1 C 42.9 2.5 41.5 1.2 40 1.2 C 38.6 1.2 37.4 2.3 37.4 4.6 Z M 53.1 1.3 C 52.5 1.3 52.2 1.5 52.1 2 C 52.1 2.3 52 2.9 52 4 C 52.04 4 52 8.8 52 8.8 L 51.7 8.8 L 46.6 2.5 L 46.5 2.5 C 46.5 2.5 46.54 5.56 46.5 5.6 C 46.5 6.7 46.6 7.2 46.6 7.6 C 46.7 8.2 46.9 8.3 47.8 8.4 C 47.76 8.39 47.8 8.7 47.8 8.7 L 44.9 8.7 C 44.9 8.7 44.92 8.39 44.9 8.4 C 45.6 8.4 45.9 8.2 46 7.6 C 46 7.2 46 6.7 46 5.6 C 46 5.6 46 2.9 46 2.9 C 46 2 46 2 45.8 1.7 C 45.6 1.4 45.3 1.3 44.7 1.3 C 44.74 1.26 44.7 0.9 44.7 0.9 L 46.5 0.9 L 51.5 6.9 L 51.6 6.9 C 51.6 6.9 51.55 4 51.6 4 C 51.6 2.9 51.5 2.3 51.5 2 C 51.4 1.5 51.1 1.3 50.3 1.3 C 50.29 1.26 50.3 0.9 50.3 0.9 L 53.1 0.9 C 53.1 0.9 53.12 1.26 53.1 1.3 Z " stroke="none" fill="#000"/>
  </g>
</svg>