<?xml version="1.0" standalone="no"?>
<!DOCTYPE svg PUBLIC "-//W3C//DTD SVG 1.1//EN" "http://www.w3.org/Graphics/SVG/1.1/DTD/svg11.dtd">
<svg xmlns="http://www.w3.org/2000/svg" version="1.1" width="79.4px" height="14.9px" viewBox="0 -1 79.4 14.9" style="top:-1px">
  <desc>John David Golenia</desc>
  <defs/>
  <g id="Polygon31705">
    <path d="M 3.7 7 C 3.71 7.03 4.7 2.2 4.7 2.2 L 3.9 2.2 C 3.9 2.2 2.94 6.59 2.9 6.6 C 2.9 6.8 2.9 6.9 2.8 7.1 C 2.8 7.3 2.7 7.4 2.6 7.6 C 2.5 7.7 2.4 7.8 2.3 7.9 C 2.1 8 1.9 8 1.7 8 C 1.4 8 1.2 8 1 7.8 C 0.9 7.7 0.8 7.5 0.8 7.2 C 0.8 7.1 0.8 6.9 0.8 6.8 C 0.8 6.7 0.8 6.6 0.9 6.5 C 0.9 6.5 0 6.5 0 6.5 C 0 6.7 0 6.8 -0.1 7 C -0.1 7.2 -0.1 7.3 -0.1 7.4 C -0.1 7.6 0 7.8 0.1 8 C 0.1 8.2 0.3 8.3 0.4 8.4 C 0.6 8.5 0.8 8.6 1 8.7 C 1.2 8.7 1.4 8.8 1.7 8.8 C 2 8.8 2.3 8.7 2.5 8.6 C 2.7 8.6 2.9 8.5 3.1 8.3 C 3.3 8.2 3.4 8 3.5 7.8 C 3.6 7.6 3.6 7.3 3.7 7 Z M 4.9 6.8 C 4.9 7.1 5 7.3 5 7.6 C 5.1 7.8 5.3 8 5.4 8.2 C 5.6 8.3 5.8 8.5 6.1 8.6 C 6.3 8.7 6.6 8.7 6.9 8.7 C 7.3 8.7 7.6 8.6 8 8.5 C 8.3 8.3 8.6 8.1 8.8 7.8 C 9 7.5 9.2 7.2 9.3 6.9 C 9.4 6.5 9.4 6.2 9.4 5.8 C 9.4 5.1 9.3 4.7 9 4.3 C 8.6 4 8.1 3.9 7.5 3.9 C 7.1 3.9 6.7 3.9 6.4 4.1 C 6.1 4.3 5.8 4.5 5.6 4.7 C 5.4 5 5.2 5.3 5.1 5.7 C 5 6 4.9 6.4 4.9 6.8 Z M 5.7 6.8 C 5.7 6.5 5.7 6.3 5.8 6 C 5.9 5.7 6 5.5 6.1 5.3 C 6.3 5.1 6.5 4.9 6.7 4.7 C 6.9 4.6 7.2 4.5 7.5 4.5 C 7.7 4.5 7.9 4.6 8 4.6 C 8.2 4.7 8.3 4.8 8.4 4.9 C 8.5 5 8.6 5.2 8.6 5.3 C 8.7 5.5 8.7 5.7 8.7 5.8 C 8.7 6.1 8.6 6.3 8.6 6.6 C 8.5 6.8 8.4 7.1 8.2 7.3 C 8.1 7.5 7.9 7.7 7.7 7.8 C 7.5 8 7.2 8 7 8 C 6.5 8 6.2 7.9 6 7.7 C 5.8 7.5 5.7 7.2 5.7 6.8 Z M 11.3 2.2 L 10 8.6 L 10.7 8.6 C 10.7 8.6 11.28 6.04 11.3 6 C 11.3 5.9 11.4 5.7 11.5 5.5 C 11.5 5.3 11.7 5.2 11.8 5.1 C 11.9 4.9 12.1 4.8 12.3 4.7 C 12.5 4.6 12.7 4.5 12.9 4.5 C 13.2 4.5 13.4 4.6 13.5 4.7 C 13.7 4.8 13.8 5 13.8 5.2 C 13.8 5.2 13.7 5.3 13.7 5.3 C 13.7 5.4 13.7 5.5 13.7 5.5 C 13.7 5.6 13.7 5.7 13.7 5.7 C 13.7 5.8 13.6 5.8 13.6 5.9 C 13.64 5.89 13 8.6 13 8.6 L 13.8 8.6 C 13.8 8.6 14.38 5.96 14.4 6 C 14.4 5.8 14.5 5.6 14.5 5.4 C 14.5 5.3 14.5 5.2 14.5 5 C 14.5 4.6 14.4 4.3 14.2 4.1 C 14 3.9 13.7 3.9 13.2 3.9 C 12.9 3.9 12.6 3.9 12.3 4.1 C 12 4.2 11.8 4.4 11.6 4.7 C 11.56 4.66 11.5 4.6 11.5 4.6 L 12.1 2.2 L 11.3 2.2 Z M 16 4 L 15.1 8.6 L 15.8 8.6 C 15.8 8.6 16.37 6.04 16.4 6 C 16.4 5.9 16.5 5.7 16.6 5.5 C 16.6 5.3 16.7 5.2 16.9 5.1 C 17 4.9 17.2 4.8 17.4 4.7 C 17.6 4.6 17.8 4.5 18 4.5 C 18.3 4.5 18.5 4.6 18.6 4.7 C 18.8 4.8 18.8 5 18.8 5.2 C 18.8 5.2 18.8 5.3 18.8 5.3 C 18.8 5.4 18.8 5.5 18.8 5.5 C 18.8 5.6 18.8 5.7 18.8 5.7 C 18.8 5.8 18.7 5.8 18.7 5.9 C 18.74 5.89 18.1 8.6 18.1 8.6 L 18.9 8.6 C 18.9 8.6 19.48 5.96 19.5 6 C 19.5 5.8 19.6 5.6 19.6 5.4 C 19.6 5.3 19.6 5.2 19.6 5 C 19.6 4.6 19.5 4.3 19.3 4.1 C 19.1 3.9 18.8 3.9 18.3 3.9 C 18 3.9 17.7 3.9 17.4 4.1 C 17.1 4.2 16.9 4.4 16.7 4.7 C 16.66 4.66 16.6 4.7 16.6 4.7 L 16.8 4 L 16 4 Z M 23.8 7.9 L 24.8 2.9 C 24.8 2.9 26.18 2.91 26.2 2.9 C 26.5 2.9 26.8 3 27.1 3.1 C 27.3 3.2 27.5 3.3 27.6 3.5 C 27.7 3.6 27.8 3.8 27.9 4 C 27.9 4.3 27.9 4.5 27.9 4.7 C 27.9 5.1 27.9 5.5 27.8 5.9 C 27.7 6.3 27.5 6.6 27.3 6.9 C 27.1 7.2 26.8 7.4 26.4 7.6 C 26.1 7.8 25.7 7.9 25.2 7.9 C 25.24 7.89 23.8 7.9 23.8 7.9 Z M 24.1 2.2 L 22.8 8.6 C 22.8 8.6 25.23 8.61 25.2 8.6 C 25.8 8.6 26.3 8.5 26.7 8.3 C 27.1 8.1 27.5 7.9 27.8 7.5 C 28.1 7.2 28.4 6.8 28.5 6.3 C 28.7 5.8 28.8 5.2 28.8 4.6 C 28.8 3.9 28.6 3.3 28.2 2.8 C 27.8 2.4 27.2 2.2 26.4 2.2 C 26.37 2.19 24.1 2.2 24.1 2.2 Z M 29.6 5.4 C 29.6 5.4 30.4 5.4 30.4 5.4 C 30.4 5.2 30.4 5.1 30.5 5 C 30.6 4.9 30.7 4.8 30.8 4.7 C 30.9 4.7 31.1 4.6 31.2 4.6 C 31.3 4.5 31.5 4.5 31.6 4.5 C 31.7 4.5 31.8 4.5 31.9 4.6 C 32.1 4.6 32.2 4.6 32.2 4.6 C 32.3 4.7 32.4 4.8 32.5 4.8 C 32.5 4.9 32.6 5 32.6 5.1 C 32.6 5.3 32.5 5.4 32.5 5.5 C 32.4 5.6 32.4 5.7 32.3 5.7 C 32.2 5.8 32.1 5.8 31.9 5.8 C 31.8 5.8 31.6 5.9 31.4 5.9 C 31.1 5.9 30.9 5.9 30.6 6 C 30.3 6 30.1 6.1 29.8 6.2 C 29.6 6.3 29.4 6.4 29.3 6.6 C 29.1 6.8 29 7.1 29 7.4 C 29 7.6 29.1 7.8 29.2 8 C 29.2 8.2 29.3 8.3 29.5 8.4 C 29.6 8.5 29.7 8.6 29.9 8.6 C 30.1 8.7 30.3 8.7 30.5 8.7 C 30.9 8.7 31.2 8.7 31.4 8.5 C 31.7 8.4 31.9 8.3 32 8 C 32 8 32 8.1 32 8.1 C 32 8.3 32.1 8.4 32.2 8.5 C 32.3 8.7 32.4 8.7 32.6 8.7 C 32.7 8.7 32.8 8.7 32.9 8.7 C 33 8.7 33 8.6 33.1 8.6 C 33.1 8.6 33.2 8 33.2 8 C 33.2 8.1 33.1 8.1 33.1 8.1 C 33.1 8.1 33 8.1 33 8.1 C 32.9 8.1 32.9 8.1 32.8 8 C 32.8 8 32.8 7.9 32.8 7.8 C 32.8 7.7 32.8 7.6 32.8 7.5 C 32.8 7.4 32.9 7.3 32.9 7.2 C 32.9 7.2 33.2 5.9 33.2 5.9 C 33.2 5.8 33.2 5.6 33.3 5.5 C 33.3 5.3 33.3 5.2 33.3 5 C 33.3 4.8 33.3 4.6 33.2 4.5 C 33.1 4.3 33 4.2 32.8 4.1 C 32.7 4 32.5 3.9 32.3 3.9 C 32.1 3.9 31.8 3.9 31.6 3.9 C 31.4 3.9 31.1 3.9 30.9 3.9 C 30.7 4 30.5 4.1 30.3 4.2 C 30.1 4.3 30 4.5 29.8 4.7 C 29.7 4.9 29.6 5.1 29.6 5.4 Z M 29.8 7.4 C 29.8 7.2 29.9 7 30 6.9 C 30.1 6.8 30.2 6.7 30.3 6.7 C 30.5 6.6 30.6 6.6 30.8 6.5 C 31 6.5 31.2 6.5 31.4 6.5 C 31.6 6.5 31.8 6.4 31.9 6.4 C 32.1 6.4 32.2 6.3 32.3 6.2 C 32.3 6.2 32.3 6.2 32.3 6.2 C 32.3 6.5 32.2 6.7 32.2 6.9 C 32.2 7.1 32.1 7.3 31.9 7.4 C 31.7 7.8 31.2 8 30.6 8 C 30.4 8 30.2 8 30.1 7.9 C 29.9 7.8 29.8 7.6 29.8 7.4 Z M 35.8 8.6 L 38.3 4 L 37.5 4 L 35.5 7.8 L 35.5 7.8 L 35.1 4 L 34.3 4 L 34.9 8.6 L 35.8 8.6 Z M 40.2 3.1 L 40.4 2.2 L 39.6 2.2 L 39.4 3.1 L 40.2 3.1 Z M 39.2 4 L 38.3 8.6 L 39 8.6 L 40 4 L 39.2 4 Z M 44.5 8.6 L 45.8 2.2 L 45.1 2.2 L 44.6 4.7 C 44.6 4.7 44.58 4.67 44.6 4.7 C 44.5 4.5 44.5 4.4 44.4 4.3 C 44.3 4.2 44.1 4.1 44 4 C 43.9 4 43.7 3.9 43.6 3.9 C 43.4 3.9 43.3 3.9 43.1 3.9 C 42.7 3.9 42.4 3.9 42 4.1 C 41.7 4.3 41.4 4.5 41.2 4.8 C 41 5.1 40.8 5.4 40.7 5.8 C 40.6 6.1 40.5 6.5 40.5 6.8 C 40.5 7.1 40.6 7.4 40.7 7.6 C 40.7 7.8 40.9 8 41 8.2 C 41.2 8.4 41.4 8.5 41.6 8.6 C 41.8 8.7 42.1 8.7 42.4 8.7 C 42.7 8.7 43 8.7 43.2 8.6 C 43.5 8.4 43.7 8.2 43.9 7.9 C 43.91 7.95 43.9 7.9 43.9 7.9 L 43.8 8.6 L 44.5 8.6 Z M 41.3 6.8 C 41.3 6.6 41.4 6.3 41.4 6 C 41.5 5.8 41.6 5.5 41.8 5.3 C 41.9 5.1 42.1 4.9 42.4 4.7 C 42.6 4.6 42.9 4.5 43.2 4.5 C 43.5 4.5 43.8 4.6 44 4.9 C 44.2 5.1 44.3 5.4 44.3 5.7 C 44.3 6 44.3 6.2 44.2 6.5 C 44.1 6.8 44 7 43.9 7.3 C 43.7 7.5 43.5 7.7 43.3 7.8 C 43.1 8 42.8 8 42.5 8 C 42.1 8 41.8 7.9 41.6 7.7 C 41.4 7.5 41.3 7.2 41.3 6.8 Z M 53.3 8 C 53.33 7.97 53.4 8.6 53.4 8.6 L 53.9 8.6 L 54.6 5.2 L 51.8 5.2 L 51.7 5.9 C 51.7 5.9 53.74 5.95 53.7 5.9 C 53.7 6.3 53.6 6.5 53.4 6.8 C 53.3 7.1 53.2 7.3 53 7.5 C 52.8 7.6 52.6 7.8 52.3 7.9 C 52.1 8 51.8 8 51.4 8 C 51.1 8 50.8 8 50.6 7.9 C 50.3 7.8 50.1 7.6 50 7.5 C 49.8 7.3 49.7 7.1 49.6 6.8 C 49.6 6.5 49.5 6.3 49.5 5.9 C 49.5 5.6 49.6 5.2 49.7 4.8 C 49.8 4.4 50 4.1 50.2 3.8 C 50.4 3.5 50.7 3.2 51 3 C 51.3 2.8 51.7 2.8 52.2 2.8 C 52.4 2.8 52.6 2.8 52.9 2.8 C 53.1 2.9 53.2 3 53.4 3.1 C 53.6 3.2 53.7 3.4 53.8 3.5 C 53.9 3.7 53.9 3.9 53.9 4.2 C 53.9 4.2 54.8 4.2 54.8 4.2 C 54.8 3.8 54.7 3.5 54.6 3.2 C 54.4 3 54.2 2.7 54 2.6 C 53.8 2.4 53.5 2.2 53.2 2.2 C 52.9 2.1 52.5 2 52.2 2 C 51.6 2 51.2 2.1 50.7 2.4 C 50.3 2.6 49.9 2.9 49.6 3.2 C 49.3 3.6 49.1 4 48.9 4.5 C 48.7 4.9 48.7 5.4 48.7 5.9 C 48.7 6.8 48.9 7.5 49.4 8 C 49.9 8.5 50.5 8.8 51.4 8.8 C 51.8 8.8 52.1 8.7 52.4 8.6 C 52.8 8.4 53.1 8.2 53.3 8 Z M 55.4 6.8 C 55.4 7.1 55.4 7.3 55.5 7.6 C 55.6 7.8 55.7 8 55.9 8.2 C 56.1 8.3 56.3 8.5 56.5 8.6 C 56.8 8.7 57 8.7 57.4 8.7 C 57.8 8.7 58.1 8.6 58.4 8.5 C 58.8 8.3 59 8.1 59.3 7.8 C 59.5 7.5 59.6 7.2 59.8 6.9 C 59.9 6.5 59.9 6.2 59.9 5.8 C 59.9 5.1 59.8 4.7 59.4 4.3 C 59.1 4 58.6 3.9 58 3.9 C 57.6 3.9 57.2 3.9 56.9 4.1 C 56.6 4.3 56.3 4.5 56.1 4.7 C 55.9 5 55.7 5.3 55.6 5.7 C 55.5 6 55.4 6.4 55.4 6.8 Z M 56.2 6.8 C 56.2 6.5 56.2 6.3 56.3 6 C 56.3 5.7 56.5 5.5 56.6 5.3 C 56.8 5.1 56.9 4.9 57.2 4.7 C 57.4 4.6 57.6 4.5 57.9 4.5 C 58.1 4.5 58.3 4.6 58.5 4.6 C 58.6 4.7 58.8 4.8 58.9 4.9 C 59 5 59 5.2 59.1 5.3 C 59.1 5.5 59.2 5.7 59.2 5.8 C 59.2 6.1 59.1 6.3 59.1 6.6 C 59 6.8 58.9 7.1 58.7 7.3 C 58.6 7.5 58.4 7.7 58.2 7.8 C 58 8 57.7 8 57.4 8 C 57 8 56.7 7.9 56.5 7.7 C 56.3 7.5 56.2 7.2 56.2 6.8 Z M 61.8 2.2 L 60.5 8.6 L 61.2 8.6 L 62.6 2.2 L 61.8 2.2 Z M 63.4 6.9 C 63.4 6.8 63.4 6.6 63.5 6.5 C 63.5 6.5 67 6.5 67 6.5 C 67 6.4 67 6.4 67 6.3 C 67 6.1 67 6 67 5.9 C 67 5.3 66.9 4.8 66.6 4.4 C 66.3 4 65.8 3.9 65.1 3.9 C 64.7 3.9 64.4 3.9 64.2 4.1 C 63.9 4.2 63.6 4.4 63.4 4.7 C 63.2 4.9 63 5.3 62.9 5.6 C 62.7 6 62.7 6.4 62.7 6.8 C 62.7 7.1 62.7 7.3 62.8 7.5 C 62.8 7.7 62.9 7.9 63.1 8.1 C 63.2 8.3 63.4 8.4 63.7 8.5 C 63.9 8.7 64.3 8.7 64.6 8.7 C 64.9 8.7 65.1 8.7 65.4 8.6 C 65.6 8.5 65.8 8.4 66 8.3 C 66.2 8.2 66.3 8 66.5 7.8 C 66.6 7.6 66.7 7.4 66.7 7.2 C 66.7 7.2 66 7.2 66 7.2 C 65.9 7.4 65.7 7.7 65.5 7.8 C 65.3 8 65 8 64.6 8 C 64.5 8 64.3 8 64.2 8 C 64 7.9 63.9 7.8 63.8 7.8 C 63.7 7.7 63.6 7.5 63.5 7.4 C 63.5 7.3 63.4 7.1 63.4 6.9 C 63.4 6.9 63.4 6.9 63.4 6.9 Z M 66.3 5.8 C 66.3 5.8 63.6 5.8 63.6 5.8 C 63.6 5.7 63.7 5.5 63.8 5.3 C 63.9 5.2 64 5 64.1 4.9 C 64.3 4.8 64.4 4.7 64.6 4.6 C 64.8 4.6 65 4.5 65.2 4.5 C 65.4 4.5 65.6 4.6 65.7 4.6 C 65.9 4.7 66 4.8 66.1 4.9 C 66.1 5.1 66.2 5.2 66.2 5.4 C 66.3 5.5 66.3 5.7 66.3 5.8 Z M 68.4 4 L 67.5 8.6 L 68.2 8.6 C 68.2 8.6 68.77 6.04 68.8 6 C 68.8 5.9 68.9 5.7 69 5.5 C 69 5.3 69.1 5.2 69.3 5.1 C 69.4 4.9 69.6 4.8 69.8 4.7 C 70 4.6 70.2 4.5 70.4 4.5 C 70.7 4.5 70.9 4.6 71 4.7 C 71.2 4.8 71.2 5 71.2 5.2 C 71.2 5.2 71.2 5.3 71.2 5.3 C 71.2 5.4 71.2 5.5 71.2 5.5 C 71.2 5.6 71.2 5.7 71.2 5.7 C 71.1 5.8 71.1 5.8 71.1 5.9 C 71.13 5.89 70.5 8.6 70.5 8.6 L 71.3 8.6 C 71.3 8.6 71.87 5.96 71.9 6 C 71.9 5.8 71.9 5.6 72 5.4 C 72 5.3 72 5.2 72 5 C 72 4.6 71.9 4.3 71.7 4.1 C 71.5 3.9 71.1 3.9 70.7 3.9 C 70.4 3.9 70.1 3.9 69.8 4.1 C 69.5 4.2 69.2 4.4 69.1 4.7 C 69.05 4.66 69 4.7 69 4.7 L 69.2 4 L 68.4 4 Z M 74.5 3.1 L 74.7 2.2 L 73.9 2.2 L 73.7 3.1 L 74.5 3.1 Z M 73.5 4 L 72.6 8.6 L 73.3 8.6 L 74.3 4 L 73.5 4 Z M 75.2 5.4 C 75.2 5.4 75.9 5.4 75.9 5.4 C 76 5.2 76 5.1 76.1 5 C 76.2 4.9 76.3 4.8 76.4 4.7 C 76.5 4.7 76.6 4.6 76.8 4.6 C 76.9 4.5 77 4.5 77.2 4.5 C 77.3 4.5 77.4 4.5 77.5 4.6 C 77.6 4.6 77.7 4.6 77.8 4.6 C 77.9 4.7 78 4.8 78 4.8 C 78.1 4.9 78.1 5 78.1 5.1 C 78.1 5.3 78.1 5.4 78 5.5 C 78 5.6 77.9 5.7 77.8 5.7 C 77.7 5.8 77.6 5.8 77.5 5.8 C 77.3 5.8 77.2 5.9 76.9 5.9 C 76.7 5.9 76.4 5.9 76.1 6 C 75.9 6 75.6 6.1 75.4 6.2 C 75.2 6.3 75 6.4 74.8 6.6 C 74.7 6.8 74.6 7.1 74.6 7.4 C 74.6 7.6 74.6 7.8 74.7 8 C 74.8 8.2 74.9 8.3 75 8.4 C 75.1 8.5 75.3 8.6 75.5 8.6 C 75.6 8.7 75.8 8.7 76 8.7 C 76.4 8.7 76.7 8.7 77 8.5 C 77.2 8.4 77.4 8.3 77.6 8 C 77.6 8 77.6 8.1 77.6 8.1 C 77.6 8.3 77.6 8.4 77.7 8.5 C 77.8 8.7 78 8.7 78.2 8.7 C 78.3 8.7 78.3 8.7 78.4 8.7 C 78.5 8.7 78.6 8.6 78.7 8.6 C 78.7 8.6 78.8 8 78.8 8 C 78.7 8.1 78.7 8.1 78.7 8.1 C 78.6 8.1 78.6 8.1 78.5 8.1 C 78.5 8.1 78.4 8.1 78.4 8 C 78.3 8 78.3 7.9 78.3 7.8 C 78.3 7.7 78.3 7.6 78.4 7.5 C 78.4 7.4 78.4 7.3 78.4 7.2 C 78.4 7.2 78.7 5.9 78.7 5.9 C 78.8 5.8 78.8 5.6 78.8 5.5 C 78.9 5.3 78.9 5.2 78.9 5 C 78.9 4.8 78.8 4.6 78.7 4.5 C 78.6 4.3 78.5 4.2 78.4 4.1 C 78.2 4 78 3.9 77.8 3.9 C 77.6 3.9 77.4 3.9 77.2 3.9 C 76.9 3.9 76.7 3.9 76.5 3.9 C 76.2 4 76 4.1 75.9 4.2 C 75.7 4.3 75.5 4.5 75.4 4.7 C 75.3 4.9 75.2 5.1 75.2 5.4 Z M 75.4 7.4 C 75.4 7.2 75.4 7 75.5 6.9 C 75.6 6.8 75.7 6.7 75.9 6.7 C 76 6.6 76.2 6.6 76.4 6.5 C 76.6 6.5 76.8 6.5 77 6.5 C 77.1 6.5 77.3 6.4 77.5 6.4 C 77.6 6.4 77.8 6.3 77.9 6.2 C 77.9 6.2 77.9 6.2 77.9 6.2 C 77.9 6.5 77.8 6.7 77.8 6.9 C 77.7 7.1 77.6 7.3 77.5 7.4 C 77.2 7.8 76.8 8 76.2 8 C 76 8 75.8 8 75.6 7.9 C 75.4 7.8 75.4 7.6 75.4 7.4 Z " stroke="none" fill="#000"/>
  </g>
</svg>