<?xml version="1.0" standalone="no"?>
<!DOCTYPE svg PUBLIC "-//W3C//DTD SVG 1.1//EN" "http://www.w3.org/Graphics/SVG/1.1/DTD/svg11.dtd">
<svg xmlns="http://www.w3.org/2000/svg" version="1.1" width="792px" height="111px" viewBox="0 -18 792 111" style="top:-18px">
  <desc>ISPORTS</desc>
  <defs/>
  <g id="Polygon38520">
    <path d="M 239.5 20.7 C 239.5 9.7 239.5 7.7 239.4 5.4 C 239.2 3 238.5 1.7 236.9 1.4 C 236.1 1.2 235.2 1.1 234.3 1.1 C 233.6 1.1 233.2 0.9 233.2 0.4 C 233.2 -0.1 233.8 -0.2 234.9 -0.2 C 237.6 -0.2 242.2 0 244.3 0 C 246.1 0 250.3 -0.2 253 -0.2 C 254 -0.2 254.6 -0.1 254.6 0.4 C 254.6 0.9 254.1 1.1 253.4 1.1 C 252.7 1.1 252.1 1.2 251.2 1.3 C 249.3 1.7 248.7 2.9 248.6 5.4 C 248.4 7.7 248.4 9.7 248.4 20.7 C 248.4 20.7 248.4 33.3 248.4 33.3 C 248.4 40.3 248.4 46 248.7 49.1 C 248.9 51 249.4 52.3 251.6 52.6 C 252.6 52.8 254.2 52.9 255.3 52.9 C 256.1 52.9 256.4 53.1 256.4 53.5 C 256.4 54 255.9 54.2 255.1 54.2 C 250.3 54.2 245.8 54 243.8 54 C 242.2 54 237.6 54.2 234.8 54.2 C 233.8 54.2 233.3 54 233.3 53.5 C 233.3 53.1 233.6 52.9 234.5 52.9 C 235.6 52.9 236.4 52.8 237.1 52.6 C 238.5 52.3 238.9 51.1 239.2 49 C 239.5 46 239.5 40.3 239.5 33.3 C 239.5 33.3 239.5 20.7 239.5 20.7 Z M 268.8 53.4 C 267.7 52.8 267.4 52.5 267.4 50.9 C 267.4 46.9 267.7 42.6 267.8 41.5 C 267.9 40.4 268.1 39.6 268.7 39.6 C 269.3 39.6 269.4 40.2 269.4 40.8 C 269.4 41.8 269.7 43.3 270 44.5 C 271.6 49.8 275.9 51.8 280.3 51.8 C 286.8 51.8 290 47.4 290 43.6 C 290 40 288.9 36.7 282.9 32 C 282.9 32 279.6 29.4 279.6 29.4 C 271.7 23.3 269 18.2 269 12.4 C 269 4.5 275.6 -1.2 285.6 -1.2 C 290.3 -1.2 293.3 -0.5 295.2 0 C 295.8 0.1 296.2 0.4 296.2 0.9 C 296.2 1.8 295.9 3.9 295.9 9.5 C 295.9 11.1 295.7 11.7 295.1 11.7 C 294.6 11.7 294.4 11.2 294.4 10.4 C 294.4 9.7 294 7.5 292.5 5.6 C 291.4 4.2 289.3 2.1 284.7 2.1 C 279.3 2.1 276.1 5.2 276.1 9.5 C 276.1 12.8 277.7 15.3 283.7 19.9 C 283.7 19.9 285.7 21.4 285.7 21.4 C 294.4 27.9 297.5 32.9 297.5 39.7 C 297.5 43.9 296 48.9 290.8 52.3 C 287.2 54.6 283.1 55.2 279.3 55.2 C 275.1 55.2 271.9 54.7 268.8 53.4 Z M 315.4 20.7 C 315.4 9.7 315.4 7.7 315.3 5.4 C 315.1 3 314.5 1.8 312.2 1.3 C 311.6 1.2 310.4 1.1 309.3 1.1 C 308.6 1.1 308.1 0.9 308.1 0.4 C 308.1 -0.1 308.6 -0.2 309.7 -0.2 C 313.5 -0.2 318.1 0 320.1 0 C 323 0 327.2 -0.2 330.5 -0.2 C 339.5 -0.2 342.8 2.8 343.9 3.9 C 345.5 5.4 347.5 8.6 347.5 12.5 C 347.5 22.7 340 29.9 329.8 29.9 C 329.4 29.9 328.6 29.9 328.3 29.8 C 327.9 29.7 327.4 29.7 327.4 29.2 C 327.4 28.6 327.9 28.4 329.4 28.4 C 333.5 28.4 339.1 23.8 339.1 16.5 C 339.1 14.1 338.9 9.3 334.8 5.7 C 332.2 3.3 329.3 2.9 327.6 2.9 C 326.6 2.9 325.5 3 324.8 3.2 C 324.5 3.3 324.3 3.7 324.3 4.5 C 324.3 4.5 324.3 33.3 324.3 33.3 C 324.3 40 324.3 45.6 324.6 48.7 C 324.8 50.8 325.3 52.3 327.4 52.6 C 328.4 52.8 330 52.9 331.1 52.9 C 331.9 52.9 332.2 53.1 332.2 53.5 C 332.2 54 331.7 54.2 330.9 54.2 C 326.1 54.2 321.6 54 319.7 54 C 318.1 54 313.5 54.2 310.6 54.2 C 309.7 54.2 309.2 54 309.2 53.5 C 309.2 53.1 309.5 52.9 310.4 52.9 C 311.4 52.9 312.3 52.8 312.9 52.6 C 314.4 52.3 314.7 50.8 315 48.7 C 315.4 45.6 315.4 40 315.4 33.3 C 315.4 33.3 315.4 20.7 315.4 20.7 Z M 355.4 27 C 355.4 14.7 363.6 -1.2 385.2 -1.2 C 403.1 -1.2 414.3 9.2 414.3 25.7 C 414.3 42.2 402.7 55.2 384.4 55.2 C 363.8 55.2 355.4 39.7 355.4 27 Z M 404.2 28.4 C 404.2 12.2 394.9 2.2 383.1 2.2 C 374.8 2.2 365.4 6.8 365.4 24.8 C 365.4 39.7 373.6 51.6 387.5 51.6 C 392.5 51.6 404.2 49.2 404.2 28.4 Z M 430 20.7 C 430 9.7 430 7.7 429.9 5.4 C 429.7 3 429.2 1.8 426.8 1.3 C 426.2 1.2 425 1.1 424 1.1 C 423.2 1.1 422.7 0.9 422.7 0.4 C 422.7 -0.1 423.3 -0.2 424.3 -0.2 C 428.1 -0.2 432.7 0 434.2 0 C 436.6 0 442.1 -0.2 444.3 -0.2 C 448.9 -0.2 453.7 0.2 457.6 2.9 C 459.6 4.2 462.5 7.9 462.5 12.7 C 462.5 18.1 460.3 23 453 28.9 C 459.4 36.9 464.4 43.3 468.6 47.8 C 472.6 52 475.6 52.5 476.7 52.7 C 477.5 52.8 478.1 52.9 478.7 52.9 C 479.3 52.9 479.6 53.1 479.6 53.5 C 479.6 54.1 479.1 54.2 478.2 54.2 C 478.2 54.2 471.3 54.2 471.3 54.2 C 467.3 54.2 465.5 53.9 463.6 52.8 C 460.5 51.2 457.8 47.8 453.8 42.3 C 450.9 38.3 447.6 33.4 446.7 32.3 C 446.3 31.9 445.9 31.8 445.4 31.8 C 445.4 31.8 439.1 31.7 439.1 31.7 C 438.7 31.7 438.5 31.8 438.5 32.3 C 438.5 32.3 438.5 33.3 438.5 33.3 C 438.5 40 438.5 45.6 438.9 48.7 C 439.1 50.8 439.5 52.3 441.7 52.6 C 442.8 52.8 444.3 52.9 445.2 52.9 C 445.8 52.9 446.1 53.1 446.1 53.5 C 446.1 54 445.6 54.2 444.6 54.2 C 440.5 54.2 435.1 54 434.1 54 C 432.7 54 428.1 54.2 425.3 54.2 C 424.3 54.2 423.8 54 423.8 53.5 C 423.8 53.1 424.1 52.9 425 52.9 C 426.1 52.9 426.9 52.8 427.6 52.6 C 429 52.3 429.4 50.8 429.7 48.7 C 430 45.6 430 40 430 33.3 C 430 33.3 430 20.7 430 20.7 Z M 438.5 26.4 C 438.5 27.1 438.7 27.4 439.2 27.6 C 440.7 28.2 442.8 28.4 444.6 28.4 C 447.5 28.4 448.5 28.1 449.7 27.1 C 451.9 25.6 454 22.2 454 16.3 C 454 6.1 447.2 3.2 443 3.2 C 441.2 3.2 439.9 3.2 439.2 3.5 C 438.7 3.6 438.5 3.9 438.5 4.5 C 438.5 4.5 438.5 26.4 438.5 26.4 Z M 491.9 3.8 C 491.9 3.8 481.21 4.1 481.2 4.1 C 477 4.2 475.3 4.6 474.2 6.2 C 473.5 7.3 473.1 8.1 473 8.7 C 472.9 9.3 472.6 9.6 472.2 9.6 C 471.7 9.6 471.6 9.2 471.6 8.4 C 471.6 7.3 472.9 0.7 473.1 0.1 C 473.3 -0.8 473.5 -1.2 473.9 -1.2 C 474.5 -1.2 475.2 -0.5 477 -0.4 C 479.1 -0.1 481.9 0 484.2 0 C 484.2 0 512.7 0 512.7 0 C 515.1 0 516.6 -0.2 517.7 -0.4 C 518.8 -0.6 519.4 -0.7 519.7 -0.7 C 520.2 -0.7 520.2 -0.3 520.2 0.8 C 520.2 2.3 520 7.3 520 9.1 C 519.9 9.9 519.8 10.3 519.4 10.3 C 518.8 10.3 518.7 9.9 518.6 8.9 C 518.6 8.9 518.5 8.1 518.5 8.1 C 518.4 6.2 516.4 4.2 510 4 C 510.01 4.03 500.9 3.8 500.9 3.8 C 500.9 3.8 500.94 33.34 500.9 33.3 C 500.9 40 500.9 45.6 501.3 48.7 C 501.5 50.8 501.9 52.3 504.1 52.6 C 505.1 52.8 506.7 52.9 507.8 52.9 C 508.6 52.9 508.9 53.1 508.9 53.5 C 508.9 54 508.4 54.2 507.6 54.2 C 502.8 54.2 498.3 54 496.3 54 C 494.6 54 490.1 54.2 487.2 54.2 C 486.3 54.2 485.7 54 485.7 53.5 C 485.7 53.1 486 52.9 486.9 52.9 C 488 52.9 488.8 52.8 489.5 52.6 C 490.9 52.3 491.4 50.8 491.6 48.7 C 491.9 45.6 491.9 40 491.9 33.3 C 491.94 33.34 491.9 3.8 491.9 3.8 Z M 530.2 53.4 C 529.1 52.8 528.9 52.5 528.9 50.9 C 528.9 46.9 529.2 42.6 529.2 41.5 C 529.3 40.4 529.5 39.6 530.1 39.6 C 530.7 39.6 530.8 40.2 530.8 40.8 C 530.8 41.8 531.1 43.3 531.5 44.5 C 533.1 49.8 537.3 51.8 541.8 51.8 C 548.2 51.8 551.4 47.4 551.4 43.6 C 551.4 40 550.3 36.7 544.4 32 C 544.4 32 541 29.4 541 29.4 C 533.1 23.3 530.4 18.2 530.4 12.4 C 530.4 4.5 537 -1.2 547 -1.2 C 551.7 -1.2 554.7 -0.5 556.6 0 C 557.2 0.1 557.6 0.4 557.6 0.9 C 557.6 1.8 557.3 3.9 557.3 9.5 C 557.3 11.1 557.1 11.7 556.5 11.7 C 556 11.7 555.8 11.2 555.8 10.4 C 555.8 9.7 555.4 7.5 553.9 5.6 C 552.9 4.2 550.8 2.1 546.1 2.1 C 540.8 2.1 537.5 5.2 537.5 9.5 C 537.5 12.8 539.2 15.3 545.1 19.9 C 545.1 19.9 547.2 21.4 547.2 21.4 C 555.9 27.9 559 32.9 559 39.7 C 559 43.9 557.4 48.9 552.2 52.3 C 548.6 54.6 544.6 55.2 540.8 55.2 C 536.6 55.2 533.3 54.7 530.2 53.4 Z " stroke="none" fill="#000"/>
  </g>
</svg>