<?xml version="1.0" standalone="no"?>
<!DOCTYPE svg PUBLIC "-//W3C//DTD SVG 1.1//EN" "http://www.w3.org/Graphics/SVG/1.1/DTD/svg11.dtd">
<svg xmlns="http://www.w3.org/2000/svg" version="1.1" width="27px" height="24.8px" viewBox="0 -5 27 24.8" style="top:-5px">
  <desc>18</desc>
  <defs/>
  <g id="Polygon35838">
    <path d="M 3.9 4.4 C 3.9 3.5 3.9 2.9 3.9 2.4 C 3.9 2 3.9 1.8 3.6 1.8 C 3.3 1.8 2.2 2.4 1.9 2.6 C 1.8 2.6 1.7 2.6 1.7 2.6 C 1.6 2.6 1.6 2.6 1.6 2.5 C 1.6 2.4 1.6 2.3 1.7 2.3 C 1.8 2.2 4.7 0.3 5.2 -0.1 C 5.3 -0.1 5.4 -0.3 5.6 -0.3 C 5.7 -0.3 5.7 -0.1 5.7 0.1 C 5.7 0.2 5.7 1.7 5.7 4 C 5.7 4 5.7 6.7 5.7 6.7 C 5.7 8.2 5.7 9.5 5.7 10.1 C 5.8 10.6 5.8 10.8 6.3 10.9 C 6.5 11 7.2 11 7.3 11 C 7.4 11 7.4 11.1 7.4 11.2 C 7.4 11.3 7.4 11.3 7.2 11.3 C 6.1 11.3 5.1 11.3 4.7 11.3 C 4.4 11.3 3.1 11.3 2.1 11.3 C 2 11.3 1.9 11.3 1.9 11.2 C 1.9 11.1 1.9 11 2 11 C 2.2 11 2.9 11 3.2 10.9 C 3.7 10.8 3.8 10.6 3.8 10.1 C 3.9 9.5 3.9 8.2 3.9 6.7 C 3.9 6.7 3.9 4.4 3.9 4.4 Z M 9.6 8.6 C 9.6 6.9 10.9 5.8 12.4 5.2 C 11.1 4.6 10.2 3.7 10.2 2.5 C 10.2 1.3 11.2 -0.3 13.8 -0.3 C 15.6 -0.3 16.8 0.6 16.8 2 C 16.8 3.6 15.5 4.5 14.6 4.8 C 15.7 5.4 17.4 6.3 17.4 8.2 C 17.4 9.9 15.9 11.5 13.4 11.5 C 11.2 11.5 9.6 10.4 9.6 8.6 Z M 13.5 10.8 C 14.7 10.8 15.6 9.9 15.6 8.6 C 15.6 7.1 14.4 6.3 13.1 5.6 C 12.3 6 11.3 6.9 11.3 8.5 C 11.3 9.8 12.3 10.8 13.5 10.8 Z M 13.6 0.4 C 12.3 0.4 11.8 1.3 11.8 2.2 C 11.8 3.1 12.4 3.7 13.8 4.5 C 14.2 4.3 15.3 3.7 15.3 2.2 C 15.3 1 14.5 0.4 13.6 0.4 Z " stroke="none" fill="#000"/>
  </g>
</svg>