<?xml version="1.0" standalone="no"?>
<!DOCTYPE svg PUBLIC "-//W3C//DTD SVG 1.1//EN" "http://www.w3.org/Graphics/SVG/1.1/DTD/svg11.dtd">
<svg xmlns="http://www.w3.org/2000/svg" version="1.1" width="310px" height="31.8px" viewBox="0 -7 310 31.8" style="top:-7px">
  <desc>Legasiyang Duterte:</desc>
  <defs/>
  <g id="Polygon21746">
    <path d="M 65.7 0.7 L 68.7 0.7 L 68.7 11.5 L 73 11.5 L 73 14 L 65.7 14 L 65.7 0.7 Z M 74.2 0.7 L 82.3 0.7 L 82.3 3 L 77.2 3 L 77.2 6.1 L 81.2 6.1 L 81.2 8.3 L 77.2 8.3 L 77.2 11.6 L 82.3 11.6 L 82.3 14 L 74.2 14 L 74.2 0.7 Z M 88.5 6.9 L 93.1 6.9 L 93.1 14 L 91.9 14 C 91.9 14 91.47 12.48 91.5 12.5 C 90.8 13.6 89.7 14.2 88.2 14.2 C 86.7 14.2 85.5 13.6 84.6 12.4 C 83.8 11.2 83.3 9.6 83.3 7.6 C 83.3 5.4 83.7 3.7 84.6 2.4 C 85.5 1.1 86.8 0.5 88.5 0.5 C 91.2 0.5 92.8 2 93.1 5 C 93.1 5 90.5 5.5 90.5 5.5 C 90.3 3.7 89.6 2.9 88.6 2.9 C 87.9 2.9 87.4 3.2 87 3.8 C 86.6 4.5 86.4 5.7 86.4 7.5 C 86.4 9.1 86.6 10.2 87 10.8 C 87.4 11.5 87.9 11.8 88.7 11.8 C 89.8 11.8 90.4 10.9 90.5 9.2 C 90.45 9.18 88.5 9.2 88.5 9.2 L 88.5 6.9 Z M 98.2 0.7 L 101.1 0.7 L 104.9 14 L 102 14 L 101.3 11.3 L 97.5 11.3 L 96.9 14 L 94.2 14 L 98.2 0.7 Z M 100.7 9 L 99.4 3.5 L 98.1 9 L 100.7 9 Z M 109.9 0.5 C 112.2 0.5 113.6 1.5 114.2 3.6 C 114.2 3.6 111.8 4.5 111.8 4.5 C 111.4 3.4 110.8 2.9 109.9 2.9 C 109.5 2.9 109.1 3 108.9 3.2 C 108.6 3.5 108.5 3.7 108.5 4.1 C 108.5 4.4 108.6 4.8 108.9 5 C 109.2 5.2 109.9 5.5 110.8 5.9 C 111.7 6.2 112.3 6.5 112.8 6.8 C 113.3 7.1 113.7 7.5 114 8.1 C 114.3 8.6 114.5 9.2 114.5 10 C 114.5 11.2 114 12.2 113.2 13 C 112.3 13.8 111.2 14.2 109.8 14.2 C 107.3 14.2 105.8 13 105.1 10.5 C 105.1 10.5 107.7 9.8 107.7 9.8 C 108 11.2 108.7 11.8 109.8 11.8 C 110.3 11.8 110.7 11.7 111.1 11.4 C 111.4 11.2 111.5 10.8 111.5 10.4 C 111.5 10.1 111.4 9.8 111.2 9.5 C 111 9.3 110.5 9 109.7 8.7 C 108.7 8.3 107.9 8 107.4 7.7 C 106.9 7.4 106.5 7 106.1 6.4 C 105.8 5.9 105.7 5.3 105.7 4.6 C 105.7 3.4 106 2.4 106.8 1.6 C 107.6 0.9 108.6 0.5 109.9 0.5 C 109.9 0.5 109.9 0.5 109.9 0.5 Z M 116.3 0.7 L 119.2 0.7 L 119.2 14 L 116.3 14 L 116.3 0.7 Z M 119.9 0.7 L 123.1 0.7 L 125 5.5 L 127 0.7 L 129.9 0.7 L 126.2 8.4 L 126.2 14 L 123.3 14 L 123.3 8.4 L 119.9 0.7 Z M 132.4 0.7 L 135.4 0.7 L 139.2 14 L 136.2 14 L 135.5 11.3 L 131.7 11.3 L 131.1 14 L 128.4 14 L 132.4 0.7 Z M 135 9 L 133.6 3.5 L 132.3 9 L 135 9 Z M 140.2 0.7 L 143.4 0.7 L 146.9 9 L 146.9 0.7 L 149.1 0.7 L 149.1 14 L 146.5 14 L 142.4 4.4 L 142.4 14 L 140.2 14 L 140.2 0.7 Z M 156.2 6.9 L 160.8 6.9 L 160.8 14 L 159.6 14 C 159.6 14 159.2 12.48 159.2 12.5 C 158.5 13.6 157.4 14.2 156 14.2 C 154.5 14.2 153.3 13.6 152.4 12.4 C 151.5 11.2 151 9.6 151 7.6 C 151 5.4 151.5 3.7 152.4 2.4 C 153.2 1.1 154.5 0.5 156.2 0.5 C 159 0.5 160.5 2 160.8 5 C 160.8 5 158.2 5.5 158.2 5.5 C 158 3.7 157.4 2.9 156.3 2.9 C 155.6 2.9 155.1 3.2 154.7 3.8 C 154.3 4.5 154.1 5.7 154.1 7.5 C 154.1 9.1 154.3 10.2 154.7 10.8 C 155.1 11.5 155.6 11.8 156.4 11.8 C 157.6 11.8 158.2 10.9 158.2 9.2 C 158.19 9.18 156.2 9.2 156.2 9.2 L 156.2 6.9 Z M 172.4 0.7 C 172.4 0.7 175.59 0.67 175.6 0.7 C 177 0.7 178.1 0.9 178.9 1.2 C 179.8 1.6 180.5 2.3 181 3.3 C 181.5 4.3 181.8 5.6 181.8 7.3 C 181.8 8.5 181.6 9.5 181.3 10.5 C 181 11.4 180.6 12.1 180.1 12.7 C 179.5 13.2 179 13.5 178.3 13.7 C 177.7 13.9 176.9 14 175.9 14 C 175.94 14 172.4 14 172.4 14 L 172.4 0.7 Z M 175.4 3 L 175.4 11.7 C 175.4 11.7 175.87 11.72 175.9 11.7 C 176.5 11.7 177.1 11.6 177.4 11.3 C 177.8 11.1 178.1 10.6 178.3 10 C 178.6 9.3 178.7 8.4 178.7 7.2 C 178.7 6 178.5 5.1 178.3 4.5 C 178.1 3.9 177.7 3.5 177.4 3.3 C 177 3.1 176.5 3 175.9 3 C 175.87 2.96 175.4 3 175.4 3 Z M 183.7 0.7 L 186.6 0.7 C 186.6 0.7 186.61 8.29 186.6 8.3 C 186.6 9.4 186.7 10.1 186.8 10.5 C 186.9 11 187.1 11.3 187.4 11.5 C 187.7 11.7 188.1 11.8 188.5 11.8 C 189 11.8 189.4 11.7 189.7 11.5 C 189.9 11.2 190.1 10.9 190.2 10.5 C 190.3 10.1 190.3 9.4 190.3 8.3 C 190.29 8.29 190.3 0.7 190.3 0.7 L 192.7 0.7 C 192.7 0.7 192.74 8.17 192.7 8.2 C 192.7 9.7 192.7 10.8 192.5 11.5 C 192.3 12.3 191.9 12.9 191.2 13.4 C 190.5 13.9 189.5 14.2 188.2 14.2 C 187.1 14.2 186.2 14 185.5 13.6 C 184.8 13.2 184.4 12.7 184.1 12 C 183.8 11.3 183.7 10.1 183.7 8.3 C 183.68 8.29 183.7 0.7 183.7 0.7 Z M 193.8 0.7 L 202.1 0.7 L 202.1 3.2 L 199.4 3.2 L 199.4 14 L 196.4 14 L 196.4 3.2 L 193.8 3.2 L 193.8 0.7 Z M 203.1 0.7 L 211.2 0.7 L 211.2 3 L 206 3 L 206 6.1 L 210 6.1 L 210 8.3 L 206 8.3 L 206 11.6 L 211.2 11.6 L 211.2 14 L 203.1 14 L 203.1 0.7 Z M 212.6 0.7 C 212.6 0.7 216.82 0.67 216.8 0.7 C 217.6 0.7 218.3 0.7 218.7 0.8 C 219.1 0.9 219.6 1.1 220 1.4 C 220.4 1.7 220.8 2.2 221 2.7 C 221.3 3.3 221.4 3.9 221.4 4.7 C 221.4 6.3 220.8 7.5 219.5 8.2 C 219.55 8.17 222 14 222 14 L 218.8 14 L 217 8.7 L 215.6 8.7 L 215.6 14 L 212.6 14 L 212.6 0.7 Z M 215.6 2.8 L 215.6 6.6 C 215.6 6.6 216.85 6.57 216.9 6.6 C 218 6.6 218.6 5.9 218.6 4.6 C 218.6 4.2 218.5 3.8 218.3 3.6 C 218.1 3.3 217.9 3.1 217.7 3 C 217.5 2.9 217.2 2.8 216.7 2.8 C 216.73 2.83 215.6 2.8 215.6 2.8 Z M 222.4 0.7 L 230.7 0.7 L 230.7 3.2 L 228 3.2 L 228 14 L 225.1 14 L 225.1 3.2 L 222.4 3.2 L 222.4 0.7 Z M 231.7 0.7 L 239.8 0.7 L 239.8 3 L 234.7 3 L 234.7 6.1 L 238.7 6.1 L 238.7 8.3 L 234.7 8.3 L 234.7 11.6 L 239.8 11.6 L 239.8 14 L 231.7 14 L 231.7 0.7 Z M 241.2 4.1 L 243.9 4.1 L 243.9 7.1 L 241.2 7.1 L 241.2 4.1 Z M 241.2 11.1 L 243.9 11.1 L 243.9 14 L 241.2 14 L 241.2 11.1 Z " stroke="none" fill="#000"/>
  </g>
</svg>